<?xml version="1.0" encoding="utf-8" standalone="no"?>
<!DOCTYPE svg PUBLIC "-//W3C//DTD SVG 1.1//EN"
  "http://www.w3.org/Graphics/SVG/1.1/DTD/svg11.dtd">
<!-- Created with matplotlib (http://matplotlib.org/) -->
<svg height="288pt" version="1.1" viewBox="0 0 720 288" width="720pt" xmlns="http://www.w3.org/2000/svg" xmlns:xlink="http://www.w3.org/1999/xlink">
 <defs>
  <style type="text/css">
*{stroke-linecap:butt;stroke-linejoin:round;}
  </style>
 </defs>
 <g id="figure_1">
  <g id="patch_1">
   <path d="M 0 288 
L 720 288 
L 720 0 
L 0 0 
z
" style="fill:#ffffff;"/>
  </g>
  <g id="axes_1">
   <g id="line2d_1">
    <path clip-path="url(#p90d7b66236)" d="M 115.363636 145.437798 
L 118.538059 105.168561 
L 120.442712 83.870997 
L 121.712482 71.688497 
L 122.982251 61.499723 
L 124.25202 53.563948 
L 124.886904 50.50343 
L 125.521789 48.072095 
L 126.156673 46.28225 
L 126.791558 45.141398 
L 127.426442 44.652197 
L 128.061327 44.812469 
L 128.696211 45.615246 
L 129.331096 47.048849 
L 129.96598 49.097014 
L 130.600865 51.739048 
L 131.870634 58.700992 
L 133.140403 67.688703 
L 134.410172 78.400981 
L 136.314825 96.93658 
L 139.489248 131.153981 
L 142.028786 157.909573 
L 143.93344 175.663946 
L 145.203209 185.818665 
L 146.472978 194.348616 
L 147.742747 201.081515 
L 148.377631 203.737806 
L 149.012516 205.909584 
L 149.6474 207.593748 
L 150.282285 208.791318 
L 150.917169 209.507369 
L 151.552054 209.750924 
L 152.186938 209.534813 
L 152.821823 208.875499 
L 153.456707 207.792879 
L 154.091592 206.310052 
L 154.726476 204.453059 
L 155.996245 199.733753 
L 157.266014 193.890998 
L 159.170668 183.644653 
L 164.249744 154.731125 
L 165.519513 148.632456 
L 166.789282 143.426305 
L 168.059051 139.257609 
L 169.32882 136.219545 
L 169.963705 135.138821 
L 170.598589 134.351091 
L 171.233474 133.852708 
L 171.868358 133.636716 
L 172.503243 133.69296 
L 173.138127 134.008214 
L 173.773012 134.566359 
L 174.407896 135.348568 
L 175.677665 137.497713 
L 176.947434 140.259949 
L 179.486972 146.716462 
L 181.391626 151.417473 
L 182.661395 154.033615 
L 183.931164 155.980239 
L 184.566048 156.642719 
L 185.200933 157.070544 
L 185.835817 157.246337 
L 186.470702 157.155536 
L 187.105587 156.78657 
L 187.740471 156.131015 
L 188.375356 155.183707 
L 189.01024 153.942838 
L 190.280009 150.590251 
L 191.549778 146.127133 
L 192.819547 140.661107 
L 194.724201 130.94069 
L 197.263739 116.311572 
L 199.803277 101.778525 
L 201.073046 95.29549 
L 202.342815 89.731987 
L 203.612584 85.364915 
L 204.247468 83.708617 
L 204.882353 82.441038 
L 205.517237 81.586648 
L 206.152122 81.166828 
L 206.787006 81.199631 
L 207.421891 81.69956 
L 208.056776 82.677389 
L 208.69166 84.140001 
L 209.326545 86.090272 
L 209.961429 88.52698 
L 211.231198 94.834058 
L 212.500967 102.968448 
L 213.770736 112.772251 
L 215.67539 130.112555 
L 218.214928 156.581525 
L 222.024235 197.482416 
L 223.928888 215.548121 
L 225.198657 225.822697 
L 226.468426 234.285649 
L 227.738195 240.649875 
L 228.37308 242.970806 
L 229.007965 244.686042 
L 229.642849 245.777284 
L 230.277734 246.230753 
L 230.912618 246.037326 
L 231.547503 245.192641 
L 232.182387 243.697154 
L 232.817272 241.556167 
L 233.452156 238.779811 
L 234.721925 231.385286 
L 235.991694 221.68814 
L 237.261463 209.932701 
L 239.166117 189.126761 
L 241.705655 157.465454 
L 246.149846 101.072155 
L 248.0545 80.368031 
L 249.324269 68.699933 
L 250.594038 59.102655 
L 251.863807 51.817493 
L 252.498692 49.098352 
L 253.133576 47.015701 
L 253.768461 45.579231 
L 254.403345 44.793805 
L 255.03823 44.65944 
L 255.673114 45.171336 
L 256.307999 46.319943 
L 256.942883 48.091065 
L 257.577768 50.466 
L 258.212652 53.421716 
L 259.482421 60.963033 
L 260.75219 70.453039 
L 262.021959 81.577212 
L 263.926613 100.539656 
L 270.275458 167.388888 
L 271.545227 178.582304 
L 272.814996 188.314538 
L 274.084765 196.368811 
L 275.354534 202.590125 
L 275.989419 204.98277 
L 276.624303 206.888697 
L 277.259188 208.307058 
L 277.894072 209.241097 
L 278.528957 209.698058 
L 279.163841 209.689059 
L 279.798726 209.228936 
L 280.43361 208.336051 
L 281.068495 207.032079 
L 281.703379 205.341756 
L 282.973148 200.91468 
L 284.242917 195.303187 
L 286.147571 185.278711 
L 291.861531 152.98951 
L 293.1313 147.117081 
L 294.40107 142.181611 
L 295.670839 138.314282 
L 296.305723 136.807838 
L 296.940608 135.593643 
L 297.575492 134.672984 
L 298.210377 134.043744 
L 298.845261 133.700463 
L 299.480146 133.634422 
L 300.11503 133.833772 
L 300.749915 134.283688 
L 301.384799 134.966547 
L 302.654568 136.947912 
L 303.924337 139.589537 
L 305.828991 144.309101 
L 308.368529 150.751437 
L 309.638298 153.490465 
L 310.908067 155.606854 
L 311.542951 156.369538 
L 312.177836 156.906341 
L 312.81272 157.198673 
L 313.447605 157.230669 
L 314.082489 156.989378 
L 314.717374 156.464929 
L 315.352259 155.650663 
L 315.987143 154.543239 
L 316.622028 153.142702 
L 317.891797 149.479604 
L 319.161566 144.730085 
L 320.431335 139.015992 
L 322.335988 129.023426 
L 328.049949 96.698573 
L 329.319718 90.900904 
L 330.589487 86.238996 
L 331.224371 84.414869 
L 331.859256 82.96739 
L 332.49414 81.922345 
L 333.129025 81.30255 
L 333.763909 81.1276 
L 334.398794 81.413635 
L 335.033678 82.173146 
L 335.668563 83.414802 
L 336.303447 85.143314 
L 336.938332 87.359329 
L 338.208101 93.235789 
L 339.47787 100.966447 
L 340.747639 110.407974 
L 342.017408 121.354466 
L 343.922062 140.006342 
L 347.096484 174.23344 
L 349.636022 200.958041 
L 351.540676 218.511579 
L 352.810445 228.323477 
L 354.080214 236.240259 
L 354.715098 239.400647 
L 355.349983 241.989661 
L 355.984867 243.982747 
L 356.619752 245.359606 
L 357.254636 246.104386 
L 357.889521 246.205831 
L 358.524406 245.657407 
L 359.15929 244.457372 
L 359.794175 242.608828 
L 360.429059 240.119714 
L 361.063944 237.002773 
L 362.333713 228.959907 
L 363.603482 218.674393 
L 364.873251 206.408449 
L 366.777904 185.016094 
L 369.317442 152.966206 
L 373.126749 104.4799 
L 375.031403 83.278313 
L 376.301172 71.179921 
L 377.570941 61.088423 
L 378.84071 53.260134 
L 379.475594 50.256181 
L 380.110479 47.882726 
L 380.745364 46.151644 
L 381.380248 45.069996 
L 382.015133 44.64 
L 382.650017 44.859041 
L 383.284902 45.719718 
L 383.919786 47.20993 
L 384.554671 49.313004 
L 385.189555 52.007852 
L 386.459324 59.067665 
L 387.729093 68.140679 
L 388.998862 78.92342 
L 390.903516 97.533168 
L 394.712823 138.663182 
L 397.252361 164.668375 
L 399.157014 181.391655 
L 400.426783 190.685248 
L 401.696553 198.252295 
L 402.966322 203.955338 
L 403.601206 206.082854 
L 404.236091 207.722677 
L 404.870975 208.876203 
L 405.50586 209.548869 
L 406.140744 209.75005 
L 406.775629 209.492914 
L 407.410513 208.794246 
L 408.045398 207.674243 
L 408.680282 206.156283 
L 409.950051 202.034307 
L 411.21982 196.668481 
L 412.489589 190.331025 
L 414.394243 179.64777 
L 418.20355 157.747903 
L 420.108203 148.375172 
L 421.377972 143.213411 
L 422.647741 139.09449 
L 423.917511 136.109159 
L 424.552395 135.055133 
L 425.18728 134.293908 
L 425.822164 133.821533 
L 426.457049 133.630757 
L 427.091933 133.711138 
L 427.726818 134.049182 
L 428.361702 134.628513 
L 428.996587 135.430071 
L 430.266356 137.611566 
L 431.536125 140.396549 
L 434.075663 146.86623 
L 435.980316 151.547946 
L 437.250085 154.138157 
L 438.519854 156.049653 
L 439.154739 156.691589 
L 439.789623 157.09718 
L 440.424508 157.249295 
L 441.059392 157.133638 
L 441.694277 156.738918 
L 442.329161 156.057003 
L 442.964046 155.083032 
L 443.59893 153.815504 
L 444.8687 150.410856 
L 446.138469 145.899419 
L 447.408238 140.391202 
L 449.312891 130.62373 
L 452.487314 112.239337 
L 455.026852 98.14581 
L 456.296621 92.1286 
L 457.56639 87.185046 
L 458.836159 83.576931 
L 459.471043 82.345948 
L 460.105928 81.530229 
L 460.740812 81.150863 
L 461.375697 81.225587 
L 462.010581 81.768574 
L 462.645466 82.790249 
L 463.28035 84.297136 
L 463.915235 86.291741 
L 464.550119 88.772467 
L 465.819888 95.165118 
L 467.089658 103.379298 
L 468.359427 113.254215 
L 470.26408 130.679148 
L 472.803618 157.208452 
L 476.612925 198.06661 
L 478.517579 216.049867 
L 479.787348 226.249042 
L 481.057117 234.622424 
L 482.326886 240.885332 
L 482.96177 243.152072 
L 483.596655 244.81127 
L 484.231539 245.845034 
L 484.866424 246.24 
L 485.501308 245.987476 
L 486.136193 245.083535 
L 486.771077 243.529074 
L 487.405962 241.329836 
L 488.040847 238.496387 
L 489.310616 230.992862 
L 490.580385 221.196353 
L 491.850154 209.354208 
L 493.754807 188.447609 
L 496.294345 156.717039 
L 500.103652 107.945622 
L 502.008306 86.27607 
L 503.278075 73.763823 
L 504.547844 63.191374 
L 505.817613 54.829674 
L 506.452497 51.544343 
L 507.087382 48.882539 
L 507.722266 46.858303 
L 508.357151 45.480891 
L 508.992035 44.754724 
L 509.62692 44.67938 
L 510.261805 45.249624 
L 510.896689 46.45548 
L 511.531574 48.282333 
L 512.166458 50.711081 
L 512.801343 53.71831 
L 514.071112 61.354321 
L 515.340881 70.925788 
L 516.61065 82.116046 
L 518.515303 101.145397 
L 524.864148 167.925714 
L 526.133917 179.058234 
L 527.403686 188.71845 
L 528.673455 196.692286 
L 529.943224 202.827649 
L 530.578109 205.176191 
L 531.212994 207.037767 
L 531.847878 208.411904 
L 532.482763 209.302214 
L 533.117647 209.716298 
L 533.752532 209.66562 
L 534.387416 209.165345 
L 535.022301 208.234145 
L 535.657185 206.893984 
L 536.29207 205.169863 
L 537.561839 200.683299 
L 538.831608 195.024391 
L 540.736261 184.953679 
L 546.450222 152.704629 
L 547.719991 146.871236 
L 548.98976 141.981858 
L 550.259529 138.165356 
L 550.894413 136.685337 
L 551.529298 135.497824 
L 552.164183 134.603796 
L 552.799067 134.000828 
L 553.433952 133.683159 
L 554.068836 133.64178 
L 554.703721 133.864565 
L 555.338605 134.336426 
L 555.97349 135.039497 
L 557.243259 137.055211 
L 558.513028 139.721869 
L 560.417681 144.459241 
L 562.957219 150.886394 
L 564.226988 153.601756 
L 565.496757 155.684985 
L 566.131642 156.42797 
L 566.766526 156.943277 
L 567.401411 157.212555 
L 568.036295 157.220197 
L 568.67118 156.953525 
L 569.306064 156.402955 
L 569.940949 155.562126 
L 570.575833 154.428002 
L 571.210718 153.000939 
L 572.480487 149.286557 
L 573.750256 144.49016 
L 575.020025 138.735939 
L 576.924679 128.700429 
L 582.638639 96.414314 
L 583.908408 90.662317 
L 585.178177 86.058333 
L 585.813062 84.267308 
L 586.447946 82.855392 
L 587.082831 81.84811 
L 587.717715 81.267996 
L 588.3526 81.134339 
L 588.987484 81.462958 
L 589.622369 82.266001 
L 590.257253 83.551783 
L 590.892138 85.324647 
L 591.527022 87.584872 
L 592.796791 93.547801 
L 594.06656 101.359823 
L 595.33633 110.874681 
L 596.606099 121.883734 
L 598.510752 140.604013 
L 602.320059 181.742719 
L 604.859597 207.674086 
L 606.129366 218.994287 
L 607.399135 228.726705 
L 608.668904 236.550453 
L 609.303789 239.660021 
L 609.938673 242.195812 
L 610.573558 244.13365 
L 611.208442 245.453635 
L 611.843327 246.140324 
L 612.478211 246.182889 
L 613.113096 245.575227 
L 613.74798 244.316036 
L 614.382865 242.408858 
L 615.017749 239.86207 
L 615.652634 236.68885 
L 616.922403 228.539295 
L 618.192172 218.157585 
L 619.461941 205.808865 
L 621.366595 184.322911 
L 622.636364 168.585975 
L 622.636364 168.585975 
" style="fill:none;stroke:#4c72b0;stroke-linecap:round;stroke-width:1.75;"/>
   </g>
  </g>
 </g>
 <defs>
  <clipPath id="p90d7b66236">
   <rect height="221.76" width="558" x="90" y="34.56"/>
  </clipPath>
 </defs>
</svg>
