<?xml version="1.0" encoding="utf-8" standalone="no"?>
<!DOCTYPE svg PUBLIC "-//W3C//DTD SVG 1.1//EN"
  "http://www.w3.org/Graphics/SVG/1.1/DTD/svg11.dtd">
<!-- Created with matplotlib (http://matplotlib.org/) -->
<svg height="576pt" version="1.1" viewBox="0 0 720 576" width="720pt" xmlns="http://www.w3.org/2000/svg" xmlns:xlink="http://www.w3.org/1999/xlink">
 <defs>
  <style type="text/css">
*{stroke-linecap:butt;stroke-linejoin:round;}
  </style>
 </defs>
 <g id="figure_1">
  <g id="patch_1">
   <path d="M 0 576 
L 720 576 
L 720 0 
L 0 0 
z
" style="fill:#ffffff;"/>
  </g>
  <g id="axes_1">
   <g id="patch_2">
    <path d="M 90 270.72 
L 648 270.72 
L 648 69.12 
L 90 69.12 
z
" style="fill:#ffffff;"/>
   </g>
   <g id="matplotlib.axis_1">
    <g id="xtick_1">
     <g id="line2d_1">
      <defs>
       <path d="M 0 0 
L 0 6 
" id="m56031ea010" style="stroke:#262626;"/>
      </defs>
      <g>
       <use style="fill:#262626;stroke:#262626;" x="90" xlink:href="#m56031ea010" y="270.72"/>
      </g>
     </g>
     <g id="text_1">
      <!-- 0 -->
      <defs>
       <path d="M 4.15625 35.296875 
Q 4.15625 48 6.765625 55.734375 
Q 9.375 63.484375 14.515625 67.671875 
Q 19.671875 71.875 27.484375 71.875 
Q 33.25 71.875 37.59375 69.546875 
Q 41.9375 67.234375 44.765625 62.859375 
Q 47.609375 58.5 49.21875 52.21875 
Q 50.828125 45.953125 50.828125 35.296875 
Q 50.828125 22.703125 48.234375 14.96875 
Q 45.65625 7.234375 40.5 3 
Q 35.359375 -1.21875 27.484375 -1.21875 
Q 17.140625 -1.21875 11.234375 6.203125 
Q 4.15625 15.140625 4.15625 35.296875 
z
M 13.1875 35.296875 
Q 13.1875 17.671875 17.3125 11.828125 
Q 21.4375 6 27.484375 6 
Q 33.546875 6 37.671875 11.859375 
Q 41.796875 17.71875 41.796875 35.296875 
Q 41.796875 52.984375 37.671875 58.78125 
Q 33.546875 64.59375 27.390625 64.59375 
Q 21.34375 64.59375 17.71875 59.46875 
Q 13.1875 52.9375 13.1875 35.296875 
z
" id="ArialMT-30"/>
      </defs>
      <g style="fill:#262626;" transform="translate(87.219531 290.877812)scale(0.1 -0.1)">
       <use xlink:href="#ArialMT-30"/>
      </g>
     </g>
    </g>
    <g id="xtick_2">
     <g id="line2d_2">
      <g>
       <use style="fill:#262626;stroke:#262626;" x="159.75" xlink:href="#m56031ea010" y="270.72"/>
      </g>
     </g>
     <g id="text_2">
      <!-- 100 -->
      <defs>
       <path d="M 37.25 0 
L 28.46875 0 
L 28.46875 56 
Q 25.296875 52.984375 20.140625 49.953125 
Q 14.984375 46.921875 10.890625 45.40625 
L 10.890625 53.90625 
Q 18.265625 57.375 23.78125 62.296875 
Q 29.296875 67.234375 31.59375 71.875 
L 37.25 71.875 
z
" id="ArialMT-31"/>
      </defs>
      <g style="fill:#262626;" transform="translate(151.408594 290.877812)scale(0.1 -0.1)">
       <use xlink:href="#ArialMT-31"/>
       <use x="55.615234" xlink:href="#ArialMT-30"/>
       <use x="111.230469" xlink:href="#ArialMT-30"/>
      </g>
     </g>
    </g>
    <g id="xtick_3">
     <g id="line2d_3">
      <g>
       <use style="fill:#262626;stroke:#262626;" x="229.5" xlink:href="#m56031ea010" y="270.72"/>
      </g>
     </g>
     <g id="text_3">
      <!-- 200 -->
      <defs>
       <path d="M 50.34375 8.453125 
L 50.34375 0 
L 3.03125 0 
Q 2.9375 3.171875 4.046875 6.109375 
Q 5.859375 10.9375 9.828125 15.625 
Q 13.8125 20.3125 21.34375 26.46875 
Q 33.015625 36.03125 37.109375 41.625 
Q 41.21875 47.21875 41.21875 52.203125 
Q 41.21875 57.421875 37.46875 61 
Q 33.734375 64.59375 27.734375 64.59375 
Q 21.390625 64.59375 17.578125 60.78125 
Q 13.765625 56.984375 13.71875 50.25 
L 4.6875 51.171875 
Q 5.609375 61.28125 11.65625 66.578125 
Q 17.71875 71.875 27.9375 71.875 
Q 38.234375 71.875 44.234375 66.15625 
Q 50.25 60.453125 50.25 52 
Q 50.25 47.703125 48.484375 43.546875 
Q 46.734375 39.40625 42.65625 34.8125 
Q 38.578125 30.21875 29.109375 22.21875 
Q 21.1875 15.578125 18.9375 13.203125 
Q 16.703125 10.84375 15.234375 8.453125 
z
" id="ArialMT-32"/>
      </defs>
      <g style="fill:#262626;" transform="translate(221.158594 290.877812)scale(0.1 -0.1)">
       <use xlink:href="#ArialMT-32"/>
       <use x="55.615234" xlink:href="#ArialMT-30"/>
       <use x="111.230469" xlink:href="#ArialMT-30"/>
      </g>
     </g>
    </g>
    <g id="xtick_4">
     <g id="line2d_4">
      <g>
       <use style="fill:#262626;stroke:#262626;" x="299.25" xlink:href="#m56031ea010" y="270.72"/>
      </g>
     </g>
     <g id="text_4">
      <!-- 300 -->
      <defs>
       <path d="M 4.203125 18.890625 
L 12.984375 20.0625 
Q 14.5 12.59375 18.140625 9.296875 
Q 21.78125 6 27 6 
Q 33.203125 6 37.46875 10.296875 
Q 41.75 14.59375 41.75 20.953125 
Q 41.75 27 37.796875 30.921875 
Q 33.84375 34.859375 27.734375 34.859375 
Q 25.25 34.859375 21.53125 33.890625 
L 22.515625 41.609375 
Q 23.390625 41.5 23.921875 41.5 
Q 29.546875 41.5 34.03125 44.421875 
Q 38.53125 47.359375 38.53125 53.46875 
Q 38.53125 58.296875 35.25 61.46875 
Q 31.984375 64.65625 26.8125 64.65625 
Q 21.6875 64.65625 18.265625 61.421875 
Q 14.84375 58.203125 13.875 51.765625 
L 5.078125 53.328125 
Q 6.6875 62.15625 12.390625 67.015625 
Q 18.109375 71.875 26.609375 71.875 
Q 32.46875 71.875 37.390625 69.359375 
Q 42.328125 66.84375 44.9375 62.5 
Q 47.5625 58.15625 47.5625 53.265625 
Q 47.5625 48.640625 45.0625 44.828125 
Q 42.578125 41.015625 37.703125 38.765625 
Q 44.046875 37.3125 47.5625 32.6875 
Q 51.078125 28.078125 51.078125 21.140625 
Q 51.078125 11.765625 44.234375 5.25 
Q 37.40625 -1.265625 26.953125 -1.265625 
Q 17.53125 -1.265625 11.296875 4.34375 
Q 5.078125 9.96875 4.203125 18.890625 
z
" id="ArialMT-33"/>
      </defs>
      <g style="fill:#262626;" transform="translate(290.908594 290.877812)scale(0.1 -0.1)">
       <use xlink:href="#ArialMT-33"/>
       <use x="55.615234" xlink:href="#ArialMT-30"/>
       <use x="111.230469" xlink:href="#ArialMT-30"/>
      </g>
     </g>
    </g>
    <g id="xtick_5">
     <g id="line2d_5">
      <g>
       <use style="fill:#262626;stroke:#262626;" x="369" xlink:href="#m56031ea010" y="270.72"/>
      </g>
     </g>
     <g id="text_5">
      <!-- 400 -->
      <defs>
       <path d="M 32.328125 0 
L 32.328125 17.140625 
L 1.265625 17.140625 
L 1.265625 25.203125 
L 33.9375 71.578125 
L 41.109375 71.578125 
L 41.109375 25.203125 
L 50.78125 25.203125 
L 50.78125 17.140625 
L 41.109375 17.140625 
L 41.109375 0 
z
M 32.328125 25.203125 
L 32.328125 57.46875 
L 9.90625 25.203125 
z
" id="ArialMT-34"/>
      </defs>
      <g style="fill:#262626;" transform="translate(360.658594 290.877812)scale(0.1 -0.1)">
       <use xlink:href="#ArialMT-34"/>
       <use x="55.615234" xlink:href="#ArialMT-30"/>
       <use x="111.230469" xlink:href="#ArialMT-30"/>
      </g>
     </g>
    </g>
    <g id="xtick_6">
     <g id="line2d_6">
      <g>
       <use style="fill:#262626;stroke:#262626;" x="438.75" xlink:href="#m56031ea010" y="270.72"/>
      </g>
     </g>
     <g id="text_6">
      <!-- 500 -->
      <defs>
       <path d="M 4.15625 18.75 
L 13.375 19.53125 
Q 14.40625 12.796875 18.140625 9.390625 
Q 21.875 6 27.15625 6 
Q 33.5 6 37.890625 10.78125 
Q 42.28125 15.578125 42.28125 23.484375 
Q 42.28125 31 38.0625 35.34375 
Q 33.84375 39.703125 27 39.703125 
Q 22.75 39.703125 19.328125 37.765625 
Q 15.921875 35.84375 13.96875 32.765625 
L 5.71875 33.84375 
L 12.640625 70.609375 
L 48.25 70.609375 
L 48.25 62.203125 
L 19.671875 62.203125 
L 15.828125 42.96875 
Q 22.265625 47.46875 29.34375 47.46875 
Q 38.71875 47.46875 45.15625 40.96875 
Q 51.609375 34.46875 51.609375 24.265625 
Q 51.609375 14.546875 45.953125 7.46875 
Q 39.0625 -1.21875 27.15625 -1.21875 
Q 17.390625 -1.21875 11.203125 4.25 
Q 5.03125 9.71875 4.15625 18.75 
z
" id="ArialMT-35"/>
      </defs>
      <g style="fill:#262626;" transform="translate(430.408594 290.877812)scale(0.1 -0.1)">
       <use xlink:href="#ArialMT-35"/>
       <use x="55.615234" xlink:href="#ArialMT-30"/>
       <use x="111.230469" xlink:href="#ArialMT-30"/>
      </g>
     </g>
    </g>
    <g id="xtick_7">
     <g id="line2d_7">
      <g>
       <use style="fill:#262626;stroke:#262626;" x="508.5" xlink:href="#m56031ea010" y="270.72"/>
      </g>
     </g>
     <g id="text_7">
      <!-- 600 -->
      <defs>
       <path d="M 49.75 54.046875 
L 41.015625 53.375 
Q 39.84375 58.546875 37.703125 60.890625 
Q 34.125 64.65625 28.90625 64.65625 
Q 24.703125 64.65625 21.53125 62.3125 
Q 17.390625 59.28125 14.984375 53.46875 
Q 12.59375 47.65625 12.5 36.921875 
Q 15.671875 41.75 20.265625 44.09375 
Q 24.859375 46.4375 29.890625 46.4375 
Q 38.671875 46.4375 44.84375 39.96875 
Q 51.03125 33.5 51.03125 23.25 
Q 51.03125 16.5 48.125 10.71875 
Q 45.21875 4.9375 40.140625 1.859375 
Q 35.0625 -1.21875 28.609375 -1.21875 
Q 17.625 -1.21875 10.6875 6.859375 
Q 3.765625 14.9375 3.765625 33.5 
Q 3.765625 54.25 11.421875 63.671875 
Q 18.109375 71.875 29.4375 71.875 
Q 37.890625 71.875 43.28125 67.140625 
Q 48.6875 62.40625 49.75 54.046875 
z
M 13.875 23.1875 
Q 13.875 18.65625 15.796875 14.5 
Q 17.71875 10.359375 21.1875 8.171875 
Q 24.65625 6 28.46875 6 
Q 34.03125 6 38.03125 10.484375 
Q 42.046875 14.984375 42.046875 22.703125 
Q 42.046875 30.125 38.078125 34.390625 
Q 34.125 38.671875 28.125 38.671875 
Q 22.171875 38.671875 18.015625 34.390625 
Q 13.875 30.125 13.875 23.1875 
z
" id="ArialMT-36"/>
      </defs>
      <g style="fill:#262626;" transform="translate(500.158594 290.877812)scale(0.1 -0.1)">
       <use xlink:href="#ArialMT-36"/>
       <use x="55.615234" xlink:href="#ArialMT-30"/>
       <use x="111.230469" xlink:href="#ArialMT-30"/>
      </g>
     </g>
    </g>
    <g id="xtick_8">
     <g id="line2d_8">
      <g>
       <use style="fill:#262626;stroke:#262626;" x="578.25" xlink:href="#m56031ea010" y="270.72"/>
      </g>
     </g>
     <g id="text_8">
      <!-- 700 -->
      <defs>
       <path d="M 4.734375 62.203125 
L 4.734375 70.65625 
L 51.078125 70.65625 
L 51.078125 63.8125 
Q 44.234375 56.546875 37.515625 44.484375 
Q 30.8125 32.421875 27.15625 19.671875 
Q 24.515625 10.6875 23.78125 0 
L 14.75 0 
Q 14.890625 8.453125 18.0625 20.40625 
Q 21.234375 32.375 27.171875 43.484375 
Q 33.109375 54.59375 39.796875 62.203125 
z
" id="ArialMT-37"/>
      </defs>
      <g style="fill:#262626;" transform="translate(569.908594 290.877812)scale(0.1 -0.1)">
       <use xlink:href="#ArialMT-37"/>
       <use x="55.615234" xlink:href="#ArialMT-30"/>
       <use x="111.230469" xlink:href="#ArialMT-30"/>
      </g>
     </g>
    </g>
    <g id="xtick_9">
     <g id="line2d_9">
      <g>
       <use style="fill:#262626;stroke:#262626;" x="648" xlink:href="#m56031ea010" y="270.72"/>
      </g>
     </g>
     <g id="text_9">
      <!-- 800 -->
      <defs>
       <path d="M 17.671875 38.8125 
Q 12.203125 40.828125 9.5625 44.53125 
Q 6.9375 48.25 6.9375 53.421875 
Q 6.9375 61.234375 12.546875 66.546875 
Q 18.171875 71.875 27.484375 71.875 
Q 36.859375 71.875 42.578125 66.421875 
Q 48.296875 60.984375 48.296875 53.171875 
Q 48.296875 48.1875 45.671875 44.5 
Q 43.0625 40.828125 37.75 38.8125 
Q 44.34375 36.671875 47.78125 31.875 
Q 51.21875 27.09375 51.21875 20.453125 
Q 51.21875 11.28125 44.71875 5.03125 
Q 38.234375 -1.21875 27.640625 -1.21875 
Q 17.046875 -1.21875 10.546875 5.046875 
Q 4.046875 11.328125 4.046875 20.703125 
Q 4.046875 27.6875 7.59375 32.390625 
Q 11.140625 37.109375 17.671875 38.8125 
z
M 15.921875 53.71875 
Q 15.921875 48.640625 19.1875 45.40625 
Q 22.46875 42.1875 27.6875 42.1875 
Q 32.765625 42.1875 36.015625 45.375 
Q 39.265625 48.578125 39.265625 53.21875 
Q 39.265625 58.0625 35.90625 61.359375 
Q 32.5625 64.65625 27.59375 64.65625 
Q 22.5625 64.65625 19.234375 61.421875 
Q 15.921875 58.203125 15.921875 53.71875 
z
M 13.09375 20.65625 
Q 13.09375 16.890625 14.875 13.375 
Q 16.65625 9.859375 20.171875 7.921875 
Q 23.6875 6 27.734375 6 
Q 34.03125 6 38.125 10.046875 
Q 42.234375 14.109375 42.234375 20.359375 
Q 42.234375 26.703125 38.015625 30.859375 
Q 33.796875 35.015625 27.4375 35.015625 
Q 21.234375 35.015625 17.15625 30.90625 
Q 13.09375 26.8125 13.09375 20.65625 
z
" id="ArialMT-38"/>
      </defs>
      <g style="fill:#262626;" transform="translate(639.658594 290.877812)scale(0.1 -0.1)">
       <use xlink:href="#ArialMT-38"/>
       <use x="55.615234" xlink:href="#ArialMT-30"/>
       <use x="111.230469" xlink:href="#ArialMT-30"/>
      </g>
     </g>
    </g>
   </g>
   <g id="matplotlib.axis_2">
    <g id="ytick_1">
     <g id="line2d_10">
      <defs>
       <path d="M 0 0 
L -6 0 
" id="ma8a3712a78" style="stroke:#262626;"/>
      </defs>
      <g>
       <use style="fill:#262626;stroke:#262626;" x="90" xlink:href="#ma8a3712a78" y="250.56"/>
      </g>
     </g>
     <g id="text_10">
      <!-- −0.04 -->
      <defs>
       <path d="M 52.828125 31.203125 
L 5.5625 31.203125 
L 5.5625 39.40625 
L 52.828125 39.40625 
z
" id="ArialMT-2212"/>
       <path d="M 9.078125 0 
L 9.078125 10.015625 
L 19.09375 10.015625 
L 19.09375 0 
z
" id="ArialMT-2e"/>
      </defs>
      <g style="fill:#262626;" transform="translate(51.698437 254.138906)scale(0.1 -0.1)">
       <use xlink:href="#ArialMT-2212"/>
       <use x="58.398438" xlink:href="#ArialMT-30"/>
       <use x="114.013672" xlink:href="#ArialMT-2e"/>
       <use x="141.796875" xlink:href="#ArialMT-30"/>
       <use x="197.412109" xlink:href="#ArialMT-34"/>
      </g>
     </g>
    </g>
    <g id="ytick_2">
     <g id="line2d_11">
      <g>
       <use style="fill:#262626;stroke:#262626;" x="90" xlink:href="#ma8a3712a78" y="210.24"/>
      </g>
     </g>
     <g id="text_11">
      <!-- −0.02 -->
      <g style="fill:#262626;" transform="translate(51.698437 213.818906)scale(0.1 -0.1)">
       <use xlink:href="#ArialMT-2212"/>
       <use x="58.398438" xlink:href="#ArialMT-30"/>
       <use x="114.013672" xlink:href="#ArialMT-2e"/>
       <use x="141.796875" xlink:href="#ArialMT-30"/>
       <use x="197.412109" xlink:href="#ArialMT-32"/>
      </g>
     </g>
    </g>
    <g id="ytick_3">
     <g id="line2d_12">
      <g>
       <use style="fill:#262626;stroke:#262626;" x="90" xlink:href="#ma8a3712a78" y="169.92"/>
      </g>
     </g>
     <g id="text_12">
      <!-- 0.00 -->
      <g style="fill:#262626;" transform="translate(57.539062 173.498906)scale(0.1 -0.1)">
       <use xlink:href="#ArialMT-30"/>
       <use x="55.615234" xlink:href="#ArialMT-2e"/>
       <use x="83.398438" xlink:href="#ArialMT-30"/>
       <use x="139.013672" xlink:href="#ArialMT-30"/>
      </g>
     </g>
    </g>
    <g id="ytick_4">
     <g id="line2d_13">
      <g>
       <use style="fill:#262626;stroke:#262626;" x="90" xlink:href="#ma8a3712a78" y="129.6"/>
      </g>
     </g>
     <g id="text_13">
      <!-- 0.02 -->
      <g style="fill:#262626;" transform="translate(57.539062 133.178906)scale(0.1 -0.1)">
       <use xlink:href="#ArialMT-30"/>
       <use x="55.615234" xlink:href="#ArialMT-2e"/>
       <use x="83.398438" xlink:href="#ArialMT-30"/>
       <use x="139.013672" xlink:href="#ArialMT-32"/>
      </g>
     </g>
    </g>
    <g id="ytick_5">
     <g id="line2d_14">
      <g>
       <use style="fill:#262626;stroke:#262626;" x="90" xlink:href="#ma8a3712a78" y="89.28"/>
      </g>
     </g>
     <g id="text_14">
      <!-- 0.04 -->
      <g style="fill:#262626;" transform="translate(57.539062 92.858906)scale(0.1 -0.1)">
       <use xlink:href="#ArialMT-30"/>
       <use x="55.615234" xlink:href="#ArialMT-2e"/>
       <use x="83.398438" xlink:href="#ArialMT-30"/>
       <use x="139.013672" xlink:href="#ArialMT-34"/>
      </g>
     </g>
    </g>
   </g>
   <g id="PolyCollection_1">
    <path clip-path="url(#pd76ab43a15)" d="M 90 200.205884 
L 90 169.92 
L 90.6975 169.92 
L 91.395 169.92 
L 92.0925 169.92 
L 92.79 169.92 
L 93.4875 169.92 
L 94.185 169.92 
L 94.8825 169.92 
L 95.58 169.92 
L 96.2775 169.92 
L 96.975 169.92 
L 97.6725 169.92 
L 98.37 169.92 
L 99.0675 169.92 
L 99.765 169.92 
L 100.4625 169.92 
L 101.16 169.92 
L 101.8575 169.92 
L 102.555 169.92 
L 103.2525 169.92 
L 103.95 169.92 
L 104.6475 169.92 
L 105.345 169.92 
L 106.0425 169.92 
L 106.74 169.92 
L 107.4375 169.92 
L 108.135 169.92 
L 108.8325 169.92 
L 109.53 169.92 
L 110.2275 169.92 
L 110.925 169.92 
L 111.6225 169.92 
L 112.32 169.92 
L 113.0175 169.92 
L 113.715 169.92 
L 114.4125 169.92 
L 115.11 169.92 
L 115.8075 169.92 
L 116.505 169.92 
L 117.2025 169.92 
L 117.9 169.92 
L 118.5975 169.92 
L 119.295 169.92 
L 119.9925 169.92 
L 120.69 169.92 
L 121.3875 169.92 
L 122.085 169.92 
L 122.7825 169.92 
L 123.48 169.92 
L 124.1775 169.92 
L 124.875 169.92 
L 125.5725 169.92 
L 126.27 169.92 
L 126.9675 169.92 
L 127.665 169.92 
L 128.3625 169.92 
L 129.06 169.92 
L 129.7575 169.92 
L 130.455 169.92 
L 131.1525 169.92 
L 131.85 169.92 
L 132.5475 169.92 
L 133.245 169.92 
L 133.9425 169.92 
L 134.64 169.92 
L 135.3375 169.92 
L 136.035 169.92 
L 136.7325 169.92 
L 137.43 169.92 
L 138.1275 169.92 
L 138.825 169.92 
L 139.5225 169.92 
L 140.22 169.92 
L 140.9175 169.92 
L 141.615 169.92 
L 142.3125 169.92 
L 143.01 169.92 
L 143.7075 169.92 
L 144.405 169.92 
L 145.1025 169.92 
L 145.8 169.92 
L 146.4975 169.92 
L 147.195 169.92 
L 147.8925 169.92 
L 148.59 169.92 
L 149.2875 169.92 
L 149.985 169.92 
L 150.6825 169.92 
L 151.38 169.92 
L 152.0775 169.92 
L 152.775 169.92 
L 153.4725 169.92 
L 154.17 169.92 
L 154.8675 169.92 
L 155.565 169.92 
L 156.2625 169.92 
L 156.96 169.92 
L 157.6575 169.92 
L 158.355 169.92 
L 159.0525 169.92 
L 159.75 169.92 
L 160.4475 169.92 
L 161.145 169.92 
L 161.8425 169.92 
L 162.54 169.92 
L 163.2375 169.92 
L 163.935 169.92 
L 164.6325 169.92 
L 165.33 169.92 
L 166.0275 169.92 
L 166.725 169.92 
L 167.4225 169.92 
L 168.12 169.92 
L 168.8175 169.92 
L 169.515 169.92 
L 170.2125 169.92 
L 170.91 169.92 
L 171.6075 169.92 
L 172.305 169.92 
L 173.0025 169.92 
L 173.7 169.92 
L 174.3975 169.92 
L 175.095 169.92 
L 175.7925 169.92 
L 176.49 169.92 
L 177.1875 169.92 
L 177.885 169.92 
L 178.5825 169.92 
L 179.28 169.92 
L 179.9775 169.92 
L 180.675 169.92 
L 181.3725 169.92 
L 182.07 169.92 
L 182.7675 169.92 
L 183.465 169.92 
L 184.1625 169.92 
L 184.86 169.92 
L 185.5575 169.92 
L 186.255 169.92 
L 186.9525 169.92 
L 187.65 169.92 
L 188.3475 169.92 
L 189.045 169.92 
L 189.7425 169.92 
L 190.44 169.92 
L 191.1375 169.92 
L 191.835 169.92 
L 192.5325 169.92 
L 193.23 169.92 
L 193.9275 169.92 
L 194.625 169.92 
L 195.3225 169.92 
L 196.02 169.92 
L 196.7175 169.92 
L 197.415 169.92 
L 198.1125 169.92 
L 198.81 169.92 
L 199.5075 169.92 
L 200.205 169.92 
L 200.9025 169.92 
L 201.6 169.92 
L 202.2975 169.92 
L 202.995 169.92 
L 203.6925 169.92 
L 204.39 169.92 
L 205.0875 169.92 
L 205.785 169.92 
L 206.4825 169.92 
L 207.18 169.92 
L 207.8775 169.92 
L 208.575 169.92 
L 209.2725 169.92 
L 209.97 169.92 
L 210.6675 169.92 
L 211.365 169.92 
L 212.0625 169.92 
L 212.76 169.92 
L 213.4575 169.92 
L 214.155 169.92 
L 214.8525 169.92 
L 215.55 169.92 
L 216.2475 169.92 
L 216.945 169.92 
L 217.6425 169.92 
L 218.34 169.92 
L 219.0375 169.92 
L 219.735 169.92 
L 220.4325 169.92 
L 221.13 169.92 
L 221.8275 169.92 
L 222.525 169.92 
L 223.2225 169.92 
L 223.92 169.92 
L 224.6175 169.92 
L 225.315 169.92 
L 226.0125 169.92 
L 226.71 169.92 
L 227.4075 169.92 
L 228.105 169.92 
L 228.8025 169.92 
L 229.5 169.92 
L 230.1975 169.92 
L 230.895 169.92 
L 231.5925 169.92 
L 232.29 169.92 
L 232.9875 169.92 
L 233.685 169.92 
L 234.3825 169.92 
L 235.08 169.92 
L 235.7775 169.92 
L 236.475 169.92 
L 237.1725 169.92 
L 237.87 169.92 
L 238.5675 169.92 
L 239.265 169.92 
L 239.9625 169.92 
L 240.66 169.92 
L 241.3575 169.92 
L 242.055 169.92 
L 242.7525 169.92 
L 243.45 169.92 
L 244.1475 169.92 
L 244.845 169.92 
L 245.5425 169.92 
L 246.24 169.92 
L 246.9375 169.92 
L 247.635 169.92 
L 248.3325 169.92 
L 249.03 169.92 
L 249.7275 169.92 
L 250.425 169.92 
L 251.1225 169.92 
L 251.82 169.92 
L 252.5175 169.92 
L 253.215 169.92 
L 253.9125 169.92 
L 254.61 169.92 
L 255.3075 169.92 
L 256.005 169.92 
L 256.7025 169.92 
L 257.4 169.92 
L 258.0975 169.92 
L 258.795 169.92 
L 259.4925 169.92 
L 260.19 169.92 
L 260.8875 169.92 
L 261.585 169.92 
L 262.2825 169.92 
L 262.98 169.92 
L 263.6775 169.92 
L 264.375 169.92 
L 265.0725 169.92 
L 265.77 169.92 
L 266.4675 169.92 
L 267.165 169.92 
L 267.8625 169.92 
L 268.56 169.92 
L 269.2575 169.92 
L 269.955 169.92 
L 270.6525 169.92 
L 271.35 169.92 
L 272.0475 169.92 
L 272.745 169.92 
L 273.4425 169.92 
L 274.14 169.92 
L 274.8375 169.92 
L 275.535 169.92 
L 276.2325 169.92 
L 276.93 169.92 
L 277.6275 169.92 
L 278.325 169.92 
L 279.0225 169.92 
L 279.72 169.92 
L 280.4175 169.92 
L 281.115 169.92 
L 281.8125 169.92 
L 282.51 169.92 
L 283.2075 169.92 
L 283.905 169.92 
L 284.6025 169.92 
L 285.3 169.92 
L 285.9975 169.92 
L 286.695 169.92 
L 287.3925 169.92 
L 288.09 169.92 
L 288.7875 169.92 
L 289.485 169.92 
L 290.1825 169.92 
L 290.88 169.92 
L 291.5775 169.92 
L 292.275 169.92 
L 292.9725 169.92 
L 293.67 169.92 
L 294.3675 169.92 
L 295.065 169.92 
L 295.7625 169.92 
L 296.46 169.92 
L 297.1575 169.92 
L 297.855 169.92 
L 298.5525 169.92 
L 299.25 169.92 
L 299.9475 169.92 
L 300.645 169.92 
L 301.3425 169.92 
L 302.04 169.92 
L 302.7375 169.92 
L 303.435 169.92 
L 304.1325 169.92 
L 304.83 169.92 
L 305.5275 169.92 
L 306.225 169.92 
L 306.9225 169.92 
L 307.62 169.92 
L 308.3175 169.92 
L 309.015 169.92 
L 309.7125 169.92 
L 310.41 169.92 
L 311.1075 169.92 
L 311.805 169.92 
L 312.5025 169.92 
L 313.2 169.92 
L 313.8975 169.92 
L 314.595 169.92 
L 315.2925 169.92 
L 315.99 169.92 
L 316.6875 169.92 
L 317.385 169.92 
L 318.0825 169.92 
L 318.78 169.92 
L 319.4775 169.92 
L 320.175 169.92 
L 320.8725 169.92 
L 321.57 169.92 
L 322.2675 169.92 
L 322.965 169.92 
L 323.6625 169.92 
L 324.36 169.92 
L 325.0575 169.92 
L 325.755 169.92 
L 326.4525 169.92 
L 327.15 169.92 
L 327.8475 169.92 
L 328.545 169.92 
L 329.2425 169.92 
L 329.94 169.92 
L 330.6375 169.92 
L 331.335 169.92 
L 332.0325 169.92 
L 332.73 169.92 
L 333.4275 169.92 
L 334.125 169.92 
L 334.8225 169.92 
L 335.52 169.92 
L 336.2175 169.92 
L 336.915 169.92 
L 337.6125 169.92 
L 338.31 169.92 
L 339.0075 169.92 
L 339.705 169.92 
L 340.4025 169.92 
L 341.1 169.92 
L 341.7975 169.92 
L 342.495 169.92 
L 343.1925 169.92 
L 343.89 169.92 
L 344.5875 169.92 
L 345.285 169.92 
L 345.9825 169.92 
L 346.68 169.92 
L 347.3775 169.92 
L 348.075 169.92 
L 348.7725 169.92 
L 349.47 169.92 
L 350.1675 169.92 
L 350.865 169.92 
L 351.5625 169.92 
L 352.26 169.92 
L 352.9575 169.92 
L 353.655 169.92 
L 354.3525 169.92 
L 355.05 169.92 
L 355.7475 169.92 
L 356.445 169.92 
L 357.1425 169.92 
L 357.84 169.92 
L 358.5375 169.92 
L 359.235 169.92 
L 359.9325 169.92 
L 360.63 169.92 
L 361.3275 169.92 
L 362.025 169.92 
L 362.7225 169.92 
L 363.42 169.92 
L 364.1175 169.92 
L 364.815 169.92 
L 365.5125 169.92 
L 366.21 169.92 
L 366.9075 169.92 
L 367.605 169.92 
L 368.3025 169.92 
L 369 169.92 
L 369.6975 169.92 
L 370.395 169.92 
L 371.0925 169.92 
L 371.79 169.92 
L 372.4875 169.92 
L 373.185 169.92 
L 373.8825 169.92 
L 374.58 169.92 
L 375.2775 169.92 
L 375.975 169.92 
L 376.6725 169.92 
L 377.37 169.92 
L 378.0675 169.92 
L 378.765 169.92 
L 379.4625 169.92 
L 380.16 169.92 
L 380.8575 169.92 
L 381.555 169.92 
L 382.2525 169.92 
L 382.95 169.92 
L 383.6475 169.92 
L 384.345 169.92 
L 385.0425 169.92 
L 385.74 169.92 
L 386.4375 169.92 
L 387.135 169.92 
L 387.8325 169.92 
L 388.53 169.92 
L 389.2275 169.92 
L 389.925 169.92 
L 390.6225 169.92 
L 391.32 169.92 
L 392.0175 169.92 
L 392.715 169.92 
L 393.4125 169.92 
L 394.11 169.92 
L 394.8075 169.92 
L 395.505 169.92 
L 396.2025 169.92 
L 396.9 169.92 
L 397.5975 169.92 
L 398.295 169.92 
L 398.9925 169.92 
L 399.69 169.92 
L 400.3875 169.92 
L 401.085 169.92 
L 401.7825 169.92 
L 402.48 169.92 
L 403.1775 169.92 
L 403.875 169.92 
L 404.5725 169.92 
L 405.27 169.92 
L 405.9675 169.92 
L 406.665 169.92 
L 407.3625 169.92 
L 408.06 169.92 
L 408.7575 169.92 
L 409.455 169.92 
L 410.1525 169.92 
L 410.85 169.92 
L 411.5475 169.92 
L 412.245 169.92 
L 412.9425 169.92 
L 413.64 169.92 
L 414.3375 169.92 
L 415.035 169.92 
L 415.7325 169.92 
L 416.43 169.92 
L 417.1275 169.92 
L 417.825 169.92 
L 418.5225 169.92 
L 419.22 169.92 
L 419.9175 169.92 
L 420.615 169.92 
L 421.3125 169.92 
L 422.01 169.92 
L 422.7075 169.92 
L 423.405 169.92 
L 424.1025 169.92 
L 424.8 169.92 
L 425.4975 169.92 
L 426.195 169.92 
L 426.8925 169.92 
L 427.59 169.92 
L 428.2875 169.92 
L 428.985 169.92 
L 429.6825 169.92 
L 430.38 169.92 
L 431.0775 169.92 
L 431.775 169.92 
L 432.4725 169.92 
L 433.17 169.92 
L 433.8675 169.92 
L 434.565 169.92 
L 435.2625 169.92 
L 435.96 169.92 
L 436.6575 169.92 
L 437.355 169.92 
L 438.0525 169.92 
L 438.75 169.92 
L 439.4475 169.92 
L 440.145 169.92 
L 440.8425 169.92 
L 441.54 169.92 
L 442.2375 169.92 
L 442.935 169.92 
L 443.6325 169.92 
L 444.33 169.92 
L 445.0275 169.92 
L 445.725 169.92 
L 446.4225 169.92 
L 447.12 169.92 
L 447.8175 169.92 
L 448.515 169.92 
L 449.2125 169.92 
L 449.91 169.92 
L 450.6075 169.92 
L 451.305 169.92 
L 452.0025 169.92 
L 452.7 169.92 
L 453.3975 169.92 
L 454.095 169.92 
L 454.7925 169.92 
L 455.49 169.92 
L 456.1875 169.92 
L 456.885 169.92 
L 457.5825 169.92 
L 458.28 169.92 
L 458.9775 169.92 
L 459.675 169.92 
L 460.3725 169.92 
L 461.07 169.92 
L 461.7675 169.92 
L 462.465 169.92 
L 463.1625 169.92 
L 463.86 169.92 
L 464.5575 169.92 
L 465.255 169.92 
L 465.9525 169.92 
L 466.65 169.92 
L 467.3475 169.92 
L 468.045 169.92 
L 468.7425 169.92 
L 469.44 169.92 
L 470.1375 169.92 
L 470.835 169.92 
L 471.5325 169.92 
L 472.23 169.92 
L 472.9275 169.92 
L 473.625 169.92 
L 474.3225 169.92 
L 475.02 169.92 
L 475.7175 169.92 
L 476.415 169.92 
L 477.1125 169.92 
L 477.81 169.92 
L 478.5075 169.92 
L 479.205 169.92 
L 479.9025 169.92 
L 480.6 169.92 
L 481.2975 169.92 
L 481.995 169.92 
L 482.6925 169.92 
L 483.39 169.92 
L 484.0875 169.92 
L 484.785 169.92 
L 485.4825 169.92 
L 486.18 169.92 
L 486.8775 169.92 
L 487.575 169.92 
L 488.2725 169.92 
L 488.97 169.92 
L 489.6675 169.92 
L 490.365 169.92 
L 491.0625 169.92 
L 491.76 169.92 
L 492.4575 169.92 
L 493.155 169.92 
L 493.8525 169.92 
L 494.55 169.92 
L 495.2475 169.92 
L 495.945 169.92 
L 496.6425 169.92 
L 497.34 169.92 
L 498.0375 169.92 
L 498.735 169.92 
L 499.4325 169.92 
L 500.13 169.92 
L 500.8275 169.92 
L 501.525 169.92 
L 502.2225 169.92 
L 502.92 169.92 
L 503.6175 169.92 
L 504.315 169.92 
L 505.0125 169.92 
L 505.71 169.92 
L 506.4075 169.92 
L 507.105 169.92 
L 507.8025 169.92 
L 508.5 169.92 
L 509.1975 169.92 
L 509.895 169.92 
L 510.5925 169.92 
L 511.29 169.92 
L 511.9875 169.92 
L 512.685 169.92 
L 513.3825 169.92 
L 514.08 169.92 
L 514.7775 169.92 
L 515.475 169.92 
L 516.1725 169.92 
L 516.87 169.92 
L 517.5675 169.92 
L 518.265 169.92 
L 518.9625 169.92 
L 519.66 169.92 
L 520.3575 169.92 
L 521.055 169.92 
L 521.7525 169.92 
L 522.45 169.92 
L 523.1475 169.92 
L 523.845 169.92 
L 524.5425 169.92 
L 525.24 169.92 
L 525.9375 169.92 
L 526.635 169.92 
L 527.3325 169.92 
L 528.03 169.92 
L 528.7275 169.92 
L 529.425 169.92 
L 530.1225 169.92 
L 530.82 169.92 
L 531.5175 169.92 
L 532.215 169.92 
L 532.9125 169.92 
L 533.61 169.92 
L 534.3075 169.92 
L 535.005 169.92 
L 535.7025 169.92 
L 536.4 169.92 
L 537.0975 169.92 
L 537.795 169.92 
L 538.4925 169.92 
L 539.19 169.92 
L 539.8875 169.92 
L 540.585 169.92 
L 541.2825 169.92 
L 541.98 169.92 
L 542.6775 169.92 
L 543.375 169.92 
L 544.0725 169.92 
L 544.77 169.92 
L 545.4675 169.92 
L 546.165 169.92 
L 546.8625 169.92 
L 547.56 169.92 
L 548.2575 169.92 
L 548.955 169.92 
L 549.6525 169.92 
L 550.35 169.92 
L 551.0475 169.92 
L 551.745 169.92 
L 552.4425 169.92 
L 553.14 169.92 
L 553.8375 169.92 
L 554.535 169.92 
L 555.2325 169.92 
L 555.93 169.92 
L 556.6275 169.92 
L 557.325 169.92 
L 558.0225 169.92 
L 558.72 169.92 
L 559.4175 169.92 
L 560.115 169.92 
L 560.8125 169.92 
L 561.51 169.92 
L 562.2075 169.92 
L 562.905 169.92 
L 563.6025 169.92 
L 564.3 169.92 
L 564.9975 169.92 
L 565.695 169.92 
L 566.3925 169.92 
L 567.09 169.92 
L 567.7875 169.92 
L 568.485 169.92 
L 569.1825 169.92 
L 569.88 169.92 
L 570.5775 169.92 
L 571.275 169.92 
L 571.9725 169.92 
L 572.67 169.92 
L 573.3675 169.92 
L 574.065 169.92 
L 574.7625 169.92 
L 575.46 169.92 
L 576.1575 169.92 
L 576.855 169.92 
L 577.5525 169.92 
L 578.25 169.92 
L 578.9475 169.92 
L 579.645 169.92 
L 580.3425 169.92 
L 581.04 169.92 
L 581.7375 169.92 
L 582.435 169.92 
L 583.1325 169.92 
L 583.83 169.92 
L 584.5275 169.92 
L 585.225 169.92 
L 585.9225 169.92 
L 586.62 169.92 
L 587.3175 169.92 
L 588.015 169.92 
L 588.7125 169.92 
L 589.41 169.92 
L 590.1075 169.92 
L 590.805 169.92 
L 591.5025 169.92 
L 592.2 169.92 
L 592.8975 169.92 
L 593.595 169.92 
L 594.2925 169.92 
L 594.99 169.92 
L 595.6875 169.92 
L 596.385 169.92 
L 597.0825 169.92 
L 597.78 169.92 
L 598.4775 169.92 
L 599.175 169.92 
L 599.8725 169.92 
L 600.57 169.92 
L 601.2675 169.92 
L 601.965 169.92 
L 602.6625 169.92 
L 603.36 169.92 
L 604.0575 169.92 
L 604.755 169.92 
L 605.4525 169.92 
L 606.15 169.92 
L 606.8475 169.92 
L 607.545 169.92 
L 608.2425 169.92 
L 608.94 169.92 
L 609.6375 169.92 
L 610.335 169.92 
L 611.0325 169.92 
L 611.73 169.92 
L 612.4275 169.92 
L 613.125 169.92 
L 613.8225 169.92 
L 614.52 169.92 
L 615.2175 169.92 
L 615.915 169.92 
L 616.6125 169.92 
L 617.31 169.92 
L 618.0075 169.92 
L 618.705 169.92 
L 619.4025 169.92 
L 620.1 169.92 
L 620.7975 169.92 
L 621.495 169.92 
L 622.1925 169.92 
L 622.89 169.92 
L 623.5875 169.92 
L 624.285 169.92 
L 624.9825 169.92 
L 625.68 169.92 
L 626.3775 169.92 
L 627.075 169.92 
L 627.7725 169.92 
L 628.47 169.92 
L 629.1675 169.92 
L 629.865 169.92 
L 630.5625 169.92 
L 631.26 169.92 
L 631.9575 169.92 
L 632.655 169.92 
L 633.3525 169.92 
L 634.05 169.92 
L 634.7475 169.92 
L 635.445 169.92 
L 636.1425 169.92 
L 636.84 169.92 
L 637.5375 169.92 
L 638.235 169.92 
L 638.9325 169.92 
L 639.63 169.92 
L 640.3275 169.92 
L 641.025 169.92 
L 641.7225 169.92 
L 642.42 169.92 
L 643.1175 169.92 
L 643.815 169.92 
L 644.5125 169.92 
L 645.21 169.92 
L 645.9075 169.92 
L 646.605 169.92 
L 646.605 169.92 
L 646.605 169.92 
L 645.9075 169.928678 
L 645.21 169.951816 
L 644.5125 169.981695 
L 643.815 170.019273 
L 643.1175 170.066468 
L 642.42 170.119413 
L 641.7225 170.177129 
L 641.025 170.246352 
L 640.3275 170.323208 
L 639.63 170.406715 
L 638.9325 170.501672 
L 638.235 170.602271 
L 637.5375 170.712345 
L 636.84 170.829937 
L 636.1425 170.955984 
L 635.445 171.090454 
L 634.7475 171.232349 
L 634.05 171.379707 
L 633.3525 171.531528 
L 632.655 171.693559 
L 631.9575 171.861903 
L 631.26 172.038448 
L 630.5625 172.224115 
L 629.865 172.419821 
L 629.1675 172.619734 
L 628.47 172.828626 
L 627.7725 173.045482 
L 627.075 173.273139 
L 626.3775 173.505758 
L 625.68 173.747139 
L 624.9825 173.995292 
L 624.285 174.24823 
L 623.5875 174.512639 
L 622.89 174.782669 
L 622.1925 175.061146 
L 621.495 175.347039 
L 620.7975 175.638347 
L 620.1 175.932108 
L 619.4025 176.234998 
L 618.705 176.542122 
L 618.0075 176.855333 
L 617.31 177.171662 
L 616.6125 177.490066 
L 615.915 177.815288 
L 615.2175 178.142428 
L 614.52 178.472369 
L 613.8225 178.807923 
L 613.125 179.147078 
L 612.4275 179.487825 
L 611.73 179.831042 
L 611.0325 180.181466 
L 610.335 180.53612 
L 609.6375 180.892022 
L 608.94 181.251979 
L 608.2425 181.613974 
L 607.545 181.975989 
L 606.8475 182.342756 
L 606.15 182.713221 
L 605.4525 183.085364 
L 604.755 183.452346 
L 604.0575 183.822753 
L 603.36 184.188782 
L 602.6625 184.555162 
L 601.965 184.917947 
L 601.2675 185.278978 
L 600.57 185.6372 
L 599.8725 185.991561 
L 599.175 186.343904 
L 598.4775 186.688355 
L 597.78 187.032545 
L 597.0825 187.368675 
L 596.385 187.700519 
L 595.6875 188.026068 
L 594.99 188.345241 
L 594.2925 188.660853 
L 593.595 188.968005 
L 592.8975 189.269515 
L 592.2 189.562415 
L 591.5025 189.843741 
L 590.805 190.11921 
L 590.1075 190.387788 
L 589.41 190.647483 
L 588.7125 190.896302 
L 588.015 191.138041 
L 587.3175 191.373603 
L 586.62 191.599076 
L 585.9225 191.814402 
L 585.225 192.016638 
L 584.5275 192.207661 
L 583.83 192.389354 
L 583.1325 192.563599 
L 582.435 192.72939 
L 581.7375 192.884758 
L 581.04 193.029664 
L 580.3425 193.164073 
L 579.645 193.28506 
L 578.9475 193.395487 
L 578.25 193.492434 
L 577.5525 193.575879 
L 576.855 193.65062 
L 576.1575 193.710855 
L 575.46 193.763319 
L 574.7625 193.79932 
L 574.065 193.820778 
L 573.3675 193.829617 
L 572.67 193.822941 
L 571.9725 193.807502 
L 571.275 193.778482 
L 570.5775 193.734925 
L 569.88 193.675876 
L 569.1825 193.606172 
L 568.485 193.520044 
L 567.7875 193.417513 
L 567.09 193.304391 
L 566.3925 193.176847 
L 565.695 193.034913 
L 564.9975 192.880552 
L 564.3 192.716695 
L 563.6025 192.539526 
L 562.905 192.347159 
L 562.2075 192.145427 
L 561.51 191.930522 
L 560.8125 191.704427 
L 560.115 191.468159 
L 559.4175 191.220814 
L 558.72 190.964381 
L 558.0225 190.695065 
L 557.325 190.417754 
L 556.6275 190.126731 
L 555.93 189.827852 
L 555.2325 189.515406 
L 554.535 189.193326 
L 553.8375 188.862655 
L 553.14 188.519618 
L 552.4425 188.171049 
L 551.745 187.809319 
L 551.0475 187.441268 
L 550.35 187.062163 
L 549.6525 186.677884 
L 548.955 186.283703 
L 548.2575 185.87779 
L 547.56 185.465065 
L 546.8625 185.04563 
L 546.165 184.618622 
L 545.4675 184.182219 
L 544.77 183.738457 
L 544.0725 183.286479 
L 543.375 182.827362 
L 542.6775 182.360254 
L 541.98 181.89009 
L 541.2825 181.410236 
L 540.585 180.924669 
L 539.8875 180.433505 
L 539.19 179.935903 
L 538.4925 179.43584 
L 537.795 178.931512 
L 537.0975 178.424006 
L 536.4 177.913448 
L 535.7025 177.400926 
L 535.005 176.883674 
L 534.3075 176.36664 
L 533.61 175.844166 
L 532.9125 175.322165 
L 532.215 174.795945 
L 531.5175 174.270455 
L 530.82 173.744861 
L 530.1225 173.218328 
L 529.425 172.694841 
L 528.7275 172.168745 
L 528.03 171.644024 
L 527.3325 171.119844 
L 526.635 170.59537 
L 525.9375 170.069765 
L 525.24 169.545088 
L 524.5425 169.020503 
L 523.845 168.497103 
L 523.1475 167.975981 
L 522.45 167.453408 
L 521.7525 166.93144 
L 521.055 166.408279 
L 520.3575 165.88598 
L 519.66 165.365636 
L 518.9625 164.846411 
L 518.265 164.327467 
L 517.5675 163.81279 
L 516.87 163.300577 
L 516.1725 162.789026 
L 515.475 162.282118 
L 514.7775 161.779015 
L 514.08 161.27984 
L 513.3825 160.784716 
L 512.685 160.291835 
L 511.9875 159.800355 
L 511.29 159.311361 
L 510.5925 158.8269 
L 509.895 158.349021 
L 509.1975 157.874948 
L 508.5 157.40769 
L 507.8025 156.942542 
L 507.105 156.486366 
L 506.4075 156.035417 
L 505.71 155.590772 
L 505.0125 155.149646 
L 504.315 154.716005 
L 503.6175 154.289954 
L 502.92 153.868707 
L 502.2225 153.458152 
L 501.525 153.053568 
L 500.8275 152.656984 
L 500.13 152.265604 
L 499.4325 151.880489 
L 498.735 151.504625 
L 498.0375 151.137141 
L 497.34 150.778127 
L 496.6425 150.426708 
L 495.945 150.084897 
L 495.2475 149.752778 
L 494.55 149.432363 
L 493.8525 149.117944 
L 493.155 148.814419 
L 492.4575 148.516078 
L 491.76 148.228779 
L 491.0625 147.949701 
L 490.365 147.678911 
L 489.6675 147.415513 
L 488.97 147.161499 
L 488.2725 146.915003 
L 487.575 146.67705 
L 486.8775 146.451555 
L 486.18 146.236645 
L 485.4825 146.030445 
L 484.785 145.833005 
L 484.0875 145.647266 
L 483.39 145.471346 
L 482.6925 145.303359 
L 481.995 145.143347 
L 481.2975 144.993277 
L 480.6 144.851258 
L 479.9025 144.718288 
L 479.205 144.593437 
L 478.5075 144.478664 
L 477.81 144.371103 
L 477.1125 144.27271 
L 476.415 144.181581 
L 475.7175 144.101594 
L 475.02 144.027949 
L 474.3225 143.961628 
L 473.625 143.902646 
L 472.9275 143.850055 
L 472.23 143.803868 
L 471.5325 143.764094 
L 470.835 143.735566 
L 470.1375 143.71347 
L 469.44 143.698774 
L 468.7425 143.693411 
L 468.045 143.696418 
L 467.3475 143.705866 
L 466.65 143.723682 
L 465.9525 143.751788 
L 465.255 143.790178 
L 464.5575 143.835951 
L 463.86 143.889094 
L 463.1625 143.952487 
L 462.465 144.022259 
L 461.7675 144.105141 
L 461.07 144.194363 
L 460.3725 144.290869 
L 459.675 144.394633 
L 458.9775 144.504667 
L 458.28 144.619015 
L 457.5825 144.743434 
L 456.885 144.875965 
L 456.1875 145.013683 
L 455.49 145.157519 
L 454.7925 145.312258 
L 454.095 145.47304 
L 453.3975 145.641756 
L 452.7 145.818363 
L 452.0025 146.003783 
L 451.305 146.197005 
L 450.6075 146.397982 
L 449.91 146.60763 
L 449.2125 146.824931 
L 448.515 147.050798 
L 447.8175 147.28421 
L 447.12 147.523181 
L 446.4225 147.769582 
L 445.725 148.024317 
L 445.0275 148.286357 
L 444.33 148.558532 
L 443.6325 148.836918 
L 442.935 149.121446 
L 442.2375 149.411083 
L 441.54 149.709614 
L 440.8425 150.014074 
L 440.145 150.327279 
L 439.4475 150.64626 
L 438.75 150.974797 
L 438.0525 151.307987 
L 437.355 151.647676 
L 436.6575 151.993782 
L 435.96 152.344291 
L 435.2625 152.701045 
L 434.565 153.062993 
L 433.8675 153.431009 
L 433.17 153.803075 
L 432.4725 154.181029 
L 431.775 154.562848 
L 431.0775 154.948439 
L 430.38 155.337707 
L 429.6825 155.731521 
L 428.985 156.12882 
L 428.2875 156.529506 
L 427.59 156.932518 
L 426.8925 157.338719 
L 426.195 157.748974 
L 425.4975 158.162219 
L 424.8 158.578352 
L 424.1025 158.998235 
L 423.405 159.419836 
L 422.7075 159.846908 
L 422.01 160.274527 
L 421.3125 160.704514 
L 420.615 161.136765 
L 419.9175 161.570209 
L 419.22 162.00474 
L 418.5225 162.440251 
L 417.825 162.878563 
L 417.1275 163.31764 
L 416.43 163.758339 
L 415.7325 164.199588 
L 415.035 164.639348 
L 414.3375 165.08137 
L 413.64 165.524581 
L 412.9425 165.966943 
L 412.245 166.412204 
L 411.5475 166.857362 
L 410.85 167.30038 
L 410.1525 167.743077 
L 409.455 168.185345 
L 408.7575 168.627075 
L 408.06 169.067194 
L 407.3625 169.50463 
L 406.665 169.942168 
L 405.9675 170.374879 
L 405.27 170.805551 
L 404.5725 171.232148 
L 403.875 171.657459 
L 403.1775 172.080414 
L 402.48 172.498983 
L 401.7825 172.915953 
L 401.085 173.327367 
L 400.3875 173.735052 
L 399.69 174.139871 
L 398.9925 174.538833 
L 398.295 174.932804 
L 397.5975 175.324579 
L 396.9 175.712134 
L 396.2025 176.096338 
L 395.505 176.475169 
L 394.8075 176.849497 
L 394.11 177.21923 
L 393.4125 177.580421 
L 392.715 177.936839 
L 392.0175 178.288394 
L 391.32 178.633074 
L 390.6225 178.974649 
L 389.925 179.30725 
L 389.2275 179.63369 
L 388.53 179.956779 
L 387.8325 180.273547 
L 387.135 180.583915 
L 386.4375 180.890699 
L 385.74 181.189968 
L 385.0425 181.481648 
L 384.345 181.767596 
L 383.6475 182.047741 
L 382.95 182.320086 
L 382.2525 182.583601 
L 381.555 182.839184 
L 380.8575 183.087738 
L 380.16 183.328237 
L 379.4625 183.560621 
L 378.765 183.78387 
L 378.0675 183.996964 
L 377.37 184.202744 
L 376.6725 184.398267 
L 375.975 184.585413 
L 375.2775 184.7651 
L 374.58 184.935356 
L 373.8825 185.097102 
L 373.185 185.249337 
L 372.4875 185.392984 
L 371.79 185.528011 
L 371.0925 185.653419 
L 370.395 185.769178 
L 369.6975 185.875258 
L 369 185.974528 
L 368.3025 186.06214 
L 367.605 186.14386 
L 366.9075 186.215809 
L 366.21 186.277971 
L 365.5125 186.331294 
L 364.815 186.375765 
L 364.1175 186.409446 
L 363.42 186.434255 
L 362.7225 186.450187 
L 362.025 186.457239 
L 361.3275 186.455407 
L 360.63 186.446622 
L 359.9325 186.427992 
L 359.235 186.400487 
L 358.5375 186.365078 
L 357.84 186.317915 
L 357.1425 186.262869 
L 356.445 186.197058 
L 355.7475 186.12243 
L 355.05 186.038036 
L 354.3525 185.94197 
L 353.655 185.836184 
L 352.9575 185.71974 
L 352.26 185.594593 
L 351.5625 185.461741 
L 350.865 185.318321 
L 350.1675 185.165335 
L 349.47 185.002818 
L 348.7725 184.830813 
L 348.075 184.650324 
L 347.3775 184.461396 
L 346.68 184.265039 
L 345.9825 184.060339 
L 345.285 183.84638 
L 344.5875 183.62418 
L 343.89 183.394757 
L 343.1925 183.156239 
L 342.495 182.90965 
L 341.7975 182.655049 
L 341.1 182.391535 
L 340.4025 182.121101 
L 339.705 181.843814 
L 339.0075 181.558777 
L 338.31 181.267024 
L 337.6125 180.967664 
L 336.915 180.662698 
L 336.2175 180.352201 
L 335.52 180.03432 
L 334.8225 179.709134 
L 334.125 179.376723 
L 333.4275 179.038133 
L 332.73 178.692482 
L 332.0325 178.338891 
L 331.335 177.979376 
L 330.6375 177.61306 
L 329.94 177.238106 
L 329.2425 176.856533 
L 328.545 176.471329 
L 327.8475 176.077765 
L 327.15 175.679797 
L 326.4525 175.275594 
L 325.755 174.864289 
L 325.0575 174.44695 
L 324.36 174.023677 
L 323.6625 173.594576 
L 322.965 173.159752 
L 322.2675 172.719311 
L 321.57 172.274325 
L 320.8725 171.825869 
L 320.175 171.372124 
L 319.4775 170.914165 
L 318.78 170.452106 
L 318.0825 169.985095 
L 317.385 169.514211 
L 316.6875 169.040534 
L 315.99 168.563217 
L 315.2925 168.08334 
L 314.595 167.601022 
L 313.8975 167.11831 
L 313.2 166.632428 
L 312.5025 166.142534 
L 311.805 165.648746 
L 311.1075 165.151187 
L 310.41 164.650942 
L 309.7125 164.149099 
L 309.015 163.644816 
L 308.3175 163.139183 
L 307.62 162.630393 
L 306.9225 162.120502 
L 306.225 161.60867 
L 305.5275 161.097915 
L 304.83 160.588363 
L 304.1325 160.07821 
L 303.435 159.568546 
L 302.7375 159.06046 
L 302.04 158.55215 
L 301.3425 158.044703 
L 300.645 157.538244 
L 299.9475 157.032898 
L 299.25 156.52879 
L 298.5525 156.026041 
L 297.855 155.524778 
L 297.1575 155.02705 
L 296.46 154.532015 
L 295.7625 154.039796 
L 295.065 153.54955 
L 294.3675 153.062359 
L 293.67 152.578346 
L 292.9725 152.097627 
L 292.275 151.621286 
L 291.5775 151.147511 
L 290.88 150.678347 
L 290.1825 150.211981 
L 289.485 149.750455 
L 288.7875 149.292919 
L 288.09 148.839485 
L 287.3925 148.391229 
L 286.695 147.947297 
L 285.9975 147.508762 
L 285.3 147.073802 
L 284.6025 146.645419 
L 283.905 146.222752 
L 283.2075 145.805905 
L 282.51 145.394982 
L 281.8125 144.990082 
L 281.115 144.591305 
L 280.4175 144.19875 
L 279.72 143.813476 
L 279.0225 143.434614 
L 278.325 143.062258 
L 277.6275 142.697463 
L 276.93 142.340318 
L 276.2325 141.989947 
L 275.535 141.6474 
L 274.8375 141.312762 
L 274.14 140.987079 
L 273.4425 140.669466 
L 272.745 140.359038 
L 272.0475 140.057799 
L 271.35 139.763894 
L 270.6525 139.478361 
L 269.955 139.201268 
L 269.2575 138.931721 
L 268.56 138.671713 
L 267.8625 138.421309 
L 267.165 138.181534 
L 266.4675 137.950519 
L 265.77 137.729284 
L 265.0725 137.517884 
L 264.375 137.315407 
L 263.6775 137.123831 
L 262.98 136.941274 
L 262.2825 136.766817 
L 261.585 136.602432 
L 260.8875 136.447194 
L 260.19 136.302106 
L 259.4925 136.167204 
L 258.795 136.04252 
L 258.0975 135.928085 
L 257.4 135.823928 
L 256.7025 135.730074 
L 256.005 135.646546 
L 255.3075 135.574328 
L 254.61 135.511511 
L 253.9125 135.459073 
L 253.215 135.416063 
L 252.5175 135.383457 
L 251.82 135.360298 
L 251.1225 135.346591 
L 250.425 135.343304 
L 249.7275 135.350439 
L 249.03 135.367993 
L 248.3325 135.395961 
L 247.635 135.434338 
L 246.9375 135.483113 
L 246.24 135.540347 
L 245.5425 135.607953 
L 244.845 135.684951 
L 244.1475 135.77325 
L 243.45 135.870901 
L 242.7525 135.978842 
L 242.055 136.096085 
L 241.3575 136.221635 
L 240.66 136.357391 
L 239.9625 136.502354 
L 239.265 136.65649 
L 238.5675 136.818795 
L 237.87 136.989231 
L 237.1725 137.168719 
L 236.475 137.357216 
L 235.7775 137.553711 
L 235.08 137.759119 
L 234.3825 137.973391 
L 233.685 138.196474 
L 232.9875 138.427349 
L 232.29 138.665959 
L 231.5925 138.914174 
L 230.895 139.170968 
L 230.1975 139.435315 
L 229.5 139.708114 
L 228.8025 139.987369 
L 228.105 140.274941 
L 227.4075 140.569793 
L 226.71 140.871855 
L 226.0125 141.182015 
L 225.315 141.499234 
L 224.6175 141.823434 
L 223.92 142.154535 
L 223.2225 142.492455 
L 222.525 142.837112 
L 221.8275 143.188421 
L 221.13 143.546296 
L 220.4325 143.909684 
L 219.735 144.279461 
L 219.0375 144.654572 
L 218.34 145.035888 
L 217.6425 145.423317 
L 216.945 145.816762 
L 216.2475 146.216127 
L 215.55 146.621314 
L 214.8525 147.032224 
L 214.155 147.448755 
L 213.4575 147.87177 
L 212.76 148.300201 
L 212.0625 148.733941 
L 211.365 149.17385 
L 210.6675 149.618854 
L 209.97 150.068844 
L 209.2725 150.52371 
L 208.575 150.983341 
L 207.8775 151.447622 
L 207.18 151.916441 
L 206.4825 152.389681 
L 205.785 152.867227 
L 205.0875 153.348962 
L 204.39 153.834767 
L 203.6925 154.324523 
L 202.995 154.818109 
L 202.2975 155.317333 
L 201.6 155.820143 
L 200.9025 156.326417 
L 200.205 156.83603 
L 199.5075 157.348856 
L 198.81 157.86477 
L 198.1125 158.384609 
L 197.415 158.907281 
L 196.7175 159.432658 
L 196.02 159.960611 
L 195.3225 160.49101 
L 194.625 161.023726 
L 193.9275 161.558626 
L 193.23 162.09558 
L 192.5325 162.634456 
L 191.835 163.175121 
L 191.1375 163.717443 
L 190.44 164.261288 
L 189.7425 164.806523 
L 189.045 165.353015 
L 188.3475 165.900627 
L 187.65 166.449228 
L 186.9525 166.99868 
L 186.255 167.54885 
L 185.5575 168.099603 
L 184.86 168.650803 
L 184.1625 169.202314 
L 183.465 169.754002 
L 182.7675 170.30573 
L 182.07 170.857364 
L 181.3725 171.408767 
L 180.675 171.959805 
L 179.9775 172.510342 
L 179.28 173.060243 
L 178.5825 173.609372 
L 177.885 174.157595 
L 177.1875 174.704777 
L 176.49 175.250784 
L 175.7925 175.795482 
L 175.095 176.338737 
L 174.3975 176.880415 
L 173.7 177.420383 
L 173.0025 177.958509 
L 172.305 178.494661 
L 171.6075 179.028707 
L 170.91 179.560516 
L 170.2125 180.089956 
L 169.515 180.616899 
L 168.8175 181.141214 
L 168.12 181.662773 
L 167.4225 182.180484 
L 166.725 182.695184 
L 166.0275 183.206745 
L 165.33 183.715043 
L 164.6325 184.219953 
L 163.935 184.721351 
L 163.2375 185.219113 
L 162.54 185.713117 
L 161.8425 186.202278 
L 161.145 186.68744 
L 160.4475 187.168484 
L 159.75 187.645291 
L 159.0525 188.117744 
L 158.355 188.585728 
L 157.6575 189.049127 
L 156.96 189.507828 
L 156.2625 189.961717 
L 155.565 190.410684 
L 154.8675 190.854618 
L 154.17 191.29341 
L 153.4725 191.726953 
L 152.775 192.155139 
L 152.0775 192.5769 
L 151.38 192.993095 
L 150.6825 193.40266 
L 149.985 193.806457 
L 149.2875 194.204387 
L 148.59 194.596352 
L 147.8925 194.982256 
L 147.195 195.362004 
L 146.4975 195.735504 
L 145.8 196.102663 
L 145.1025 196.463391 
L 144.405 196.817599 
L 143.7075 197.165201 
L 143.01 197.506111 
L 142.3125 197.840245 
L 141.615 198.167522 
L 140.9175 198.48786 
L 140.22 198.801182 
L 139.5225 199.106446 
L 138.825 199.404541 
L 138.1275 199.695394 
L 137.43 199.979898 
L 136.7325 200.257019 
L 136.035 200.526689 
L 135.3375 200.788841 
L 134.64 201.043411 
L 133.9425 201.291301 
L 133.245 201.531485 
L 132.5475 201.763905 
L 131.85 201.988504 
L 131.1525 202.205226 
L 130.455 202.414018 
L 129.7575 202.61483 
L 129.06 202.807611 
L 128.3625 202.992314 
L 127.665 203.168894 
L 126.9675 203.337307 
L 126.27 203.497513 
L 125.5725 203.649471 
L 124.875 203.793145 
L 124.1775 203.928499 
L 123.48 204.055499 
L 122.7825 204.174116 
L 122.085 204.284319 
L 121.3875 204.386082 
L 120.69 204.479379 
L 119.9925 204.564188 
L 119.295 204.640488 
L 118.5975 204.70826 
L 117.9 204.767487 
L 117.2025 204.818155 
L 116.505 204.860251 
L 115.8075 204.893765 
L 115.11 204.91869 
L 114.4125 204.935018 
L 113.715 204.942745 
L 113.0175 204.941871 
L 112.32 204.932394 
L 111.6225 204.914318 
L 110.925 204.887647 
L 110.2275 204.852387 
L 109.53 204.808547 
L 108.8325 204.756138 
L 108.135 204.695172 
L 107.4375 204.625665 
L 106.74 204.547634 
L 106.0425 204.461098 
L 105.345 204.366077 
L 104.6475 204.262596 
L 103.95 204.15068 
L 103.2525 204.030357 
L 102.555 203.901655 
L 101.8575 203.764607 
L 101.16 203.619246 
L 100.4625 203.465607 
L 99.765 203.30373 
L 99.0675 203.133653 
L 98.37 202.955418 
L 97.6725 202.769068 
L 96.975 202.574651 
L 96.2775 202.372213 
L 95.58 202.161804 
L 94.8825 201.94444 
L 94.185 201.719211 
L 93.4875 201.486171 
L 92.79 201.245378 
L 92.0925 200.996891 
L 91.395 200.74077 
L 90.6975 200.47708 
L 90 200.205884 
z
" style="fill:#e0ffff;"/>
   </g>
   <g id="line2d_15">
    <path clip-path="url(#pd76ab43a15)" d="M 90 200.205884 
L 94.185 201.719211 
L 98.37 202.955418 
L 101.8575 203.764607 
L 105.345 204.366077 
L 108.8325 204.756138 
L 112.32 204.932394 
L 115.8075 204.893765 
L 119.295 204.640488 
L 122.7825 204.174116 
L 126.27 203.497513 
L 129.7575 202.61483 
L 133.245 201.531485 
L 137.43 199.979898 
L 141.615 198.167522 
L 145.8 196.102663 
L 149.985 193.806457 
L 154.8675 190.854618 
L 159.75 187.645291 
L 165.33 183.715043 
L 172.305 178.494661 
L 182.07 170.857364 
L 196.02 159.960611 
L 202.995 154.818109 
L 208.575 150.983341 
L 213.4575 147.87177 
L 218.34 145.035888 
L 223.2225 142.492455 
L 227.4075 140.569793 
L 231.5925 138.914174 
L 235.08 137.759119 
L 238.5675 136.818795 
L 242.055 136.096085 
L 245.5425 135.607953 
L 249.03 135.367993 
L 252.5175 135.383457 
L 256.005 135.646546 
L 259.4925 136.167204 
L 262.98 136.941274 
L 266.4675 137.950519 
L 269.955 139.201268 
L 273.4425 140.669466 
L 276.93 142.340318 
L 281.115 144.591305 
L 285.9975 147.508762 
L 291.5775 151.147511 
L 297.855 155.524778 
L 318.78 170.452106 
L 324.36 174.023677 
L 328.545 176.471329 
L 332.73 178.692482 
L 336.915 180.662698 
L 341.1 182.391535 
L 344.5875 183.62418 
L 348.075 184.650324 
L 351.5625 185.461741 
L 355.05 186.038036 
L 358.5375 186.365078 
L 362.025 186.457239 
L 365.5125 186.331294 
L 369 185.974528 
L 372.4875 185.392984 
L 375.975 184.585413 
L 379.4625 183.560621 
L 382.95 182.320086 
L 387.135 180.583915 
L 391.32 178.633074 
L 395.505 176.475169 
L 401.085 173.327367 
L 407.3625 169.50463 
L 427.59 156.932518 
L 433.8675 153.431009 
L 438.75 150.974797 
L 442.935 149.121446 
L 447.12 147.523181 
L 451.305 146.197005 
L 454.7925 145.312258 
L 458.28 144.619015 
L 462.465 144.022259 
L 465.9525 143.751788 
L 469.44 143.698774 
L 472.9275 143.850055 
L 477.1125 144.27271 
L 480.6 144.851258 
L 484.0875 145.647266 
L 487.575 146.67705 
L 491.0625 147.949701 
L 494.55 149.432363 
L 498.0375 151.137141 
L 502.2225 153.458152 
L 506.4075 156.035417 
L 511.29 159.311361 
L 518.265 164.327467 
L 542.6775 182.360254 
L 546.8625 185.04563 
L 551.0475 187.441268 
L 554.535 189.193326 
L 558.0225 190.695065 
L 561.51 191.930522 
L 564.3 192.716695 
L 567.09 193.304391 
L 569.88 193.675876 
L 572.67 193.822941 
L 575.46 193.763319 
L 578.9475 193.395487 
L 581.7375 192.884758 
L 585.225 192.016638 
L 588.7125 190.896302 
L 592.2 189.562415 
L 596.385 187.700519 
L 601.2675 185.278978 
L 615.915 177.815288 
L 620.7975 175.638347 
L 624.9825 173.995292 
L 629.1675 172.619734 
L 633.3525 171.531528 
L 637.5375 170.712345 
L 641.025 170.246352 
L 644.5125 169.981695 
L 646.605 169.92 
L 646.605 169.92 
" style="fill:none;stroke:#008080;stroke-linecap:round;stroke-width:1.75;"/>
   </g>
   <g id="patch_3">
    <path d="M 90 270.72 
L 90 69.12 
" style="fill:none;stroke:#262626;stroke-linecap:square;stroke-linejoin:miter;stroke-width:1.25;"/>
   </g>
   <g id="patch_4">
    <path d="M 90 270.72 
L 648 270.72 
" style="fill:none;stroke:#262626;stroke-linecap:square;stroke-linejoin:miter;stroke-width:1.25;"/>
   </g>
  </g>
  <g id="axes_2">
   <g id="patch_5">
    <path d="M 90 512.64 
L 648 512.64 
L 648 311.04 
L 90 311.04 
z
" style="fill:#ffffff;"/>
   </g>
   <g id="matplotlib.axis_3">
    <g id="xtick_10">
     <g id="line2d_16">
      <g>
       <use style="fill:#262626;stroke:#262626;" x="191.454545" xlink:href="#m56031ea010" y="512.64"/>
      </g>
     </g>
     <g id="text_15">
      <!-- 200 -->
      <g style="fill:#262626;" transform="translate(183.113139 532.797812)scale(0.1 -0.1)">
       <use xlink:href="#ArialMT-32"/>
       <use x="55.615234" xlink:href="#ArialMT-30"/>
       <use x="111.230469" xlink:href="#ArialMT-30"/>
      </g>
     </g>
    </g>
    <g id="xtick_11">
     <g id="line2d_17">
      <g>
       <use style="fill:#262626;stroke:#262626;" x="304.181818" xlink:href="#m56031ea010" y="512.64"/>
      </g>
     </g>
     <g id="text_16">
      <!-- 400 -->
      <g style="fill:#262626;" transform="translate(295.840412 532.797812)scale(0.1 -0.1)">
       <use xlink:href="#ArialMT-34"/>
       <use x="55.615234" xlink:href="#ArialMT-30"/>
       <use x="111.230469" xlink:href="#ArialMT-30"/>
      </g>
     </g>
    </g>
    <g id="xtick_12">
     <g id="line2d_18">
      <g>
       <use style="fill:#262626;stroke:#262626;" x="416.909091" xlink:href="#m56031ea010" y="512.64"/>
      </g>
     </g>
     <g id="text_17">
      <!-- 600 -->
      <g style="fill:#262626;" transform="translate(408.567685 532.797812)scale(0.1 -0.1)">
       <use xlink:href="#ArialMT-36"/>
       <use x="55.615234" xlink:href="#ArialMT-30"/>
       <use x="111.230469" xlink:href="#ArialMT-30"/>
      </g>
     </g>
    </g>
    <g id="xtick_13">
     <g id="line2d_19">
      <g>
       <use style="fill:#262626;stroke:#262626;" x="529.636364" xlink:href="#m56031ea010" y="512.64"/>
      </g>
     </g>
     <g id="text_18">
      <!-- 800 -->
      <g style="fill:#262626;" transform="translate(521.294957 532.797812)scale(0.1 -0.1)">
       <use xlink:href="#ArialMT-38"/>
       <use x="55.615234" xlink:href="#ArialMT-30"/>
       <use x="111.230469" xlink:href="#ArialMT-30"/>
      </g>
     </g>
    </g>
    <g id="xtick_14">
     <g id="line2d_20">
      <g>
       <use style="fill:#262626;stroke:#262626;" x="642.363636" xlink:href="#m56031ea010" y="512.64"/>
      </g>
     </g>
     <g id="text_19">
      <!-- 1000 -->
      <g style="fill:#262626;" transform="translate(631.241761 532.797812)scale(0.1 -0.1)">
       <use xlink:href="#ArialMT-31"/>
       <use x="55.615234" xlink:href="#ArialMT-30"/>
       <use x="111.230469" xlink:href="#ArialMT-30"/>
       <use x="166.845703" xlink:href="#ArialMT-30"/>
      </g>
     </g>
    </g>
   </g>
   <g id="matplotlib.axis_4">
    <g id="ytick_6">
     <g id="line2d_21">
      <g>
       <use style="fill:#262626;stroke:#262626;" x="90" xlink:href="#ma8a3712a78" y="512.64"/>
      </g>
     </g>
     <g id="text_20">
      <!-- 0 -->
      <g style="fill:#262626;" transform="translate(71.439063 516.218906)scale(0.1 -0.1)">
       <use xlink:href="#ArialMT-30"/>
      </g>
     </g>
    </g>
    <g id="ytick_7">
     <g id="line2d_22">
      <g>
       <use style="fill:#262626;stroke:#262626;" x="90" xlink:href="#ma8a3712a78" y="490.24"/>
      </g>
     </g>
     <g id="text_21">
      <!-- 2 -->
      <g style="fill:#262626;" transform="translate(71.439063 493.818906)scale(0.1 -0.1)">
       <use xlink:href="#ArialMT-32"/>
      </g>
     </g>
    </g>
    <g id="ytick_8">
     <g id="line2d_23">
      <g>
       <use style="fill:#262626;stroke:#262626;" x="90" xlink:href="#ma8a3712a78" y="467.84"/>
      </g>
     </g>
     <g id="text_22">
      <!-- 4 -->
      <g style="fill:#262626;" transform="translate(71.439063 471.418906)scale(0.1 -0.1)">
       <use xlink:href="#ArialMT-34"/>
      </g>
     </g>
    </g>
    <g id="ytick_9">
     <g id="line2d_24">
      <g>
       <use style="fill:#262626;stroke:#262626;" x="90" xlink:href="#ma8a3712a78" y="445.44"/>
      </g>
     </g>
     <g id="text_23">
      <!-- 6 -->
      <g style="fill:#262626;" transform="translate(71.439063 449.018906)scale(0.1 -0.1)">
       <use xlink:href="#ArialMT-36"/>
      </g>
     </g>
    </g>
    <g id="ytick_10">
     <g id="line2d_25">
      <g>
       <use style="fill:#262626;stroke:#262626;" x="90" xlink:href="#ma8a3712a78" y="423.04"/>
      </g>
     </g>
     <g id="text_24">
      <!-- 8 -->
      <g style="fill:#262626;" transform="translate(71.439063 426.618906)scale(0.1 -0.1)">
       <use xlink:href="#ArialMT-38"/>
      </g>
     </g>
    </g>
    <g id="ytick_11">
     <g id="line2d_26">
      <g>
       <use style="fill:#262626;stroke:#262626;" x="90" xlink:href="#ma8a3712a78" y="400.64"/>
      </g>
     </g>
     <g id="text_25">
      <!-- 10 -->
      <g style="fill:#262626;" transform="translate(65.878125 404.218906)scale(0.1 -0.1)">
       <use xlink:href="#ArialMT-31"/>
       <use x="55.615234" xlink:href="#ArialMT-30"/>
      </g>
     </g>
    </g>
    <g id="ytick_12">
     <g id="line2d_27">
      <g>
       <use style="fill:#262626;stroke:#262626;" x="90" xlink:href="#ma8a3712a78" y="378.24"/>
      </g>
     </g>
     <g id="text_26">
      <!-- 12 -->
      <g style="fill:#262626;" transform="translate(65.878125 381.818906)scale(0.1 -0.1)">
       <use xlink:href="#ArialMT-31"/>
       <use x="55.615234" xlink:href="#ArialMT-32"/>
      </g>
     </g>
    </g>
    <g id="ytick_13">
     <g id="line2d_28">
      <g>
       <use style="fill:#262626;stroke:#262626;" x="90" xlink:href="#ma8a3712a78" y="355.84"/>
      </g>
     </g>
     <g id="text_27">
      <!-- 14 -->
      <g style="fill:#262626;" transform="translate(65.878125 359.418906)scale(0.1 -0.1)">
       <use xlink:href="#ArialMT-31"/>
       <use x="55.615234" xlink:href="#ArialMT-34"/>
      </g>
     </g>
    </g>
    <g id="ytick_14">
     <g id="line2d_29">
      <g>
       <use style="fill:#262626;stroke:#262626;" x="90" xlink:href="#ma8a3712a78" y="333.44"/>
      </g>
     </g>
     <g id="text_28">
      <!-- 16 -->
      <g style="fill:#262626;" transform="translate(65.878125 337.018906)scale(0.1 -0.1)">
       <use xlink:href="#ArialMT-31"/>
       <use x="55.615234" xlink:href="#ArialMT-36"/>
      </g>
     </g>
    </g>
    <g id="ytick_15">
     <g id="line2d_30">
      <g>
       <use style="fill:#262626;stroke:#262626;" x="90" xlink:href="#ma8a3712a78" y="311.04"/>
      </g>
     </g>
     <g id="text_29">
      <!-- 18 -->
      <g style="fill:#262626;" transform="translate(65.878125 314.618906)scale(0.1 -0.1)">
       <use xlink:href="#ArialMT-31"/>
       <use x="55.615234" xlink:href="#ArialMT-38"/>
      </g>
     </g>
    </g>
   </g>
   <g id="line2d_31">
    <path clip-path="url(#pc825766a66)" d="M 90 477.654723 
L 95.636364 452.736402 
L 101.272727 431.923589 
L 106.909091 427.92302 
L 112.545455 440.45326 
L 118.181818 444.705349 
L 123.818182 448.961059 
L 129.454545 457.370701 
L 135.090909 456.375715 
L 140.727273 434.868159 
" style="fill:none;stroke:#b22222;stroke-linecap:round;stroke-width:1.75;"/>
   </g>
   <g id="line2d_32">
    <path clip-path="url(#pc825766a66)" d="M 152 512.64 
L 152 311.04 
" style="fill:none;stroke:#4c72b0;stroke-linecap:round;stroke-width:1.75;"/>
   </g>
   <g id="patch_6">
    <path d="M 90 512.64 
L 90 311.04 
" style="fill:none;stroke:#262626;stroke-linecap:square;stroke-linejoin:miter;stroke-width:1.25;"/>
   </g>
   <g id="patch_7">
    <path d="M 90 512.64 
L 648 512.64 
" style="fill:none;stroke:#262626;stroke-linecap:square;stroke-linejoin:miter;stroke-width:1.25;"/>
   </g>
   <g id="text_30">
    <!-- f = 110 Hz -->
    <defs>
     <path d="M 8.6875 0 
L 8.6875 45.015625 
L 0.921875 45.015625 
L 0.921875 51.859375 
L 8.6875 51.859375 
L 8.6875 57.375 
Q 8.6875 62.59375 9.625 65.140625 
Q 10.890625 68.5625 14.078125 70.671875 
Q 17.28125 72.796875 23.046875 72.796875 
Q 26.765625 72.796875 31.25 71.921875 
L 29.9375 64.265625 
Q 27.203125 64.75 24.75 64.75 
Q 20.75 64.75 19.09375 63.03125 
Q 17.4375 61.328125 17.4375 56.640625 
L 17.4375 51.859375 
L 27.546875 51.859375 
L 27.546875 45.015625 
L 17.4375 45.015625 
L 17.4375 0 
z
" id="ArialMT-66"/>
     <path id="ArialMT-20"/>
     <path d="M 52.828125 42.09375 
L 5.5625 42.09375 
L 5.5625 50.296875 
L 52.828125 50.296875 
z
M 52.828125 20.359375 
L 5.5625 20.359375 
L 5.5625 28.5625 
L 52.828125 28.5625 
z
" id="ArialMT-3d"/>
     <path d="M 8.015625 0 
L 8.015625 71.578125 
L 17.484375 71.578125 
L 17.484375 42.1875 
L 54.6875 42.1875 
L 54.6875 71.578125 
L 64.15625 71.578125 
L 64.15625 0 
L 54.6875 0 
L 54.6875 33.734375 
L 17.484375 33.734375 
L 17.484375 0 
z
" id="ArialMT-48"/>
     <path d="M 1.953125 0 
L 1.953125 7.125 
L 34.96875 45.015625 
Q 29.34375 44.734375 25.046875 44.734375 
L 3.90625 44.734375 
L 3.90625 51.859375 
L 46.296875 51.859375 
L 46.296875 46.046875 
L 18.21875 13.140625 
L 12.796875 7.125 
Q 18.703125 7.5625 23.875 7.5625 
L 47.859375 7.5625 
L 47.859375 0 
z
" id="ArialMT-7a"/>
    </defs>
    <g style="fill:#262626;" transform="translate(529.636364 403.742188)scale(0.12 -0.12)">
     <use xlink:href="#ArialMT-66"/>
     <use x="27.783203" xlink:href="#ArialMT-20"/>
     <use x="55.566406" xlink:href="#ArialMT-3d"/>
     <use x="113.964844" xlink:href="#ArialMT-20"/>
     <use x="141.748047" xlink:href="#ArialMT-31"/>
     <use x="197.253906" xlink:href="#ArialMT-31"/>
     <use x="252.869141" xlink:href="#ArialMT-30"/>
     <use x="308.484375" xlink:href="#ArialMT-20"/>
     <use x="336.267578" xlink:href="#ArialMT-48"/>
     <use x="408.484375" xlink:href="#ArialMT-7a"/>
    </g>
   </g>
   <g id="PathCollection_1">
    <defs>
     <path d="M 0 3.5 
C 0.928211 3.5 1.81853 3.131218 2.474874 2.474874 
C 3.131218 1.81853 3.5 0.928211 3.5 0 
C 3.5 -0.928211 3.131218 -1.81853 2.474874 -2.474874 
C 1.81853 -3.131218 0.928211 -3.5 0 -3.5 
C -0.928211 -3.5 -1.81853 -3.131218 -2.474874 -2.474874 
C -3.131218 -1.81853 -3.5 -0.928211 -3.5 0 
C -3.5 0.928211 -3.131218 1.81853 -2.474874 2.474874 
C -1.81853 3.131218 -0.928211 3.5 0 3.5 
z
" id="m86b0b280b6" style="stroke:#800000;stroke-width:0.3;"/>
    </defs>
    <g clip-path="url(#pc825766a66)">
     <use style="fill:#800000;stroke:#800000;stroke-width:0.3;" x="140.727273" xlink:href="#m86b0b280b6" y="434.868159"/>
    </g>
   </g>
  </g>
 </g>
 <defs>
  <clipPath id="pd76ab43a15">
   <rect height="201.6" width="558" x="90" y="69.12"/>
  </clipPath>
  <clipPath id="pc825766a66">
   <rect height="201.6" width="558" x="90" y="311.04"/>
  </clipPath>
 </defs>
</svg>
