<?xml version="1.0" encoding="utf-8" standalone="no"?>
<!DOCTYPE svg PUBLIC "-//W3C//DTD SVG 1.1//EN"
  "http://www.w3.org/Graphics/SVG/1.1/DTD/svg11.dtd">
<!-- Created with matplotlib (http://matplotlib.org/) -->
<svg height="576pt" version="1.1" viewBox="0 0 720 576" width="720pt" xmlns="http://www.w3.org/2000/svg" xmlns:xlink="http://www.w3.org/1999/xlink">
 <defs>
  <style type="text/css">
*{stroke-linecap:butt;stroke-linejoin:round;}
  </style>
 </defs>
 <g id="figure_1">
  <g id="patch_1">
   <path d="M 0 576 
L 720 576 
L 720 0 
L 0 0 
z
" style="fill:#ffffff;"/>
  </g>
  <g id="axes_1">
   <g id="patch_2">
    <path d="M 90 270.72 
L 648 270.72 
L 648 69.12 
L 90 69.12 
z
" style="fill:#ffffff;"/>
   </g>
   <g id="matplotlib.axis_1">
    <g id="xtick_1">
     <g id="line2d_1">
      <defs>
       <path d="M 0 0 
L 0 6 
" id="m6fbd1c81cd" style="stroke:#262626;"/>
      </defs>
      <g>
       <use style="fill:#262626;stroke:#262626;" x="90" xlink:href="#m6fbd1c81cd" y="270.72"/>
      </g>
     </g>
     <g id="text_1">
      <!-- 0 -->
      <defs>
       <path d="M 4.15625 35.296875 
Q 4.15625 48 6.765625 55.734375 
Q 9.375 63.484375 14.515625 67.671875 
Q 19.671875 71.875 27.484375 71.875 
Q 33.25 71.875 37.59375 69.546875 
Q 41.9375 67.234375 44.765625 62.859375 
Q 47.609375 58.5 49.21875 52.21875 
Q 50.828125 45.953125 50.828125 35.296875 
Q 50.828125 22.703125 48.234375 14.96875 
Q 45.65625 7.234375 40.5 3 
Q 35.359375 -1.21875 27.484375 -1.21875 
Q 17.140625 -1.21875 11.234375 6.203125 
Q 4.15625 15.140625 4.15625 35.296875 
z
M 13.1875 35.296875 
Q 13.1875 17.671875 17.3125 11.828125 
Q 21.4375 6 27.484375 6 
Q 33.546875 6 37.671875 11.859375 
Q 41.796875 17.71875 41.796875 35.296875 
Q 41.796875 52.984375 37.671875 58.78125 
Q 33.546875 64.59375 27.390625 64.59375 
Q 21.34375 64.59375 17.71875 59.46875 
Q 13.1875 52.9375 13.1875 35.296875 
z
" id="ArialMT-30"/>
      </defs>
      <g style="fill:#262626;" transform="translate(87.219531 290.877812)scale(0.1 -0.1)">
       <use xlink:href="#ArialMT-30"/>
      </g>
     </g>
    </g>
    <g id="xtick_2">
     <g id="line2d_2">
      <g>
       <use style="fill:#262626;stroke:#262626;" x="159.75" xlink:href="#m6fbd1c81cd" y="270.72"/>
      </g>
     </g>
     <g id="text_2">
      <!-- 100 -->
      <defs>
       <path d="M 37.25 0 
L 28.46875 0 
L 28.46875 56 
Q 25.296875 52.984375 20.140625 49.953125 
Q 14.984375 46.921875 10.890625 45.40625 
L 10.890625 53.90625 
Q 18.265625 57.375 23.78125 62.296875 
Q 29.296875 67.234375 31.59375 71.875 
L 37.25 71.875 
z
" id="ArialMT-31"/>
      </defs>
      <g style="fill:#262626;" transform="translate(151.408594 290.877812)scale(0.1 -0.1)">
       <use xlink:href="#ArialMT-31"/>
       <use x="55.615234" xlink:href="#ArialMT-30"/>
       <use x="111.230469" xlink:href="#ArialMT-30"/>
      </g>
     </g>
    </g>
    <g id="xtick_3">
     <g id="line2d_3">
      <g>
       <use style="fill:#262626;stroke:#262626;" x="229.5" xlink:href="#m6fbd1c81cd" y="270.72"/>
      </g>
     </g>
     <g id="text_3">
      <!-- 200 -->
      <defs>
       <path d="M 50.34375 8.453125 
L 50.34375 0 
L 3.03125 0 
Q 2.9375 3.171875 4.046875 6.109375 
Q 5.859375 10.9375 9.828125 15.625 
Q 13.8125 20.3125 21.34375 26.46875 
Q 33.015625 36.03125 37.109375 41.625 
Q 41.21875 47.21875 41.21875 52.203125 
Q 41.21875 57.421875 37.46875 61 
Q 33.734375 64.59375 27.734375 64.59375 
Q 21.390625 64.59375 17.578125 60.78125 
Q 13.765625 56.984375 13.71875 50.25 
L 4.6875 51.171875 
Q 5.609375 61.28125 11.65625 66.578125 
Q 17.71875 71.875 27.9375 71.875 
Q 38.234375 71.875 44.234375 66.15625 
Q 50.25 60.453125 50.25 52 
Q 50.25 47.703125 48.484375 43.546875 
Q 46.734375 39.40625 42.65625 34.8125 
Q 38.578125 30.21875 29.109375 22.21875 
Q 21.1875 15.578125 18.9375 13.203125 
Q 16.703125 10.84375 15.234375 8.453125 
z
" id="ArialMT-32"/>
      </defs>
      <g style="fill:#262626;" transform="translate(221.158594 290.877812)scale(0.1 -0.1)">
       <use xlink:href="#ArialMT-32"/>
       <use x="55.615234" xlink:href="#ArialMT-30"/>
       <use x="111.230469" xlink:href="#ArialMT-30"/>
      </g>
     </g>
    </g>
    <g id="xtick_4">
     <g id="line2d_4">
      <g>
       <use style="fill:#262626;stroke:#262626;" x="299.25" xlink:href="#m6fbd1c81cd" y="270.72"/>
      </g>
     </g>
     <g id="text_4">
      <!-- 300 -->
      <defs>
       <path d="M 4.203125 18.890625 
L 12.984375 20.0625 
Q 14.5 12.59375 18.140625 9.296875 
Q 21.78125 6 27 6 
Q 33.203125 6 37.46875 10.296875 
Q 41.75 14.59375 41.75 20.953125 
Q 41.75 27 37.796875 30.921875 
Q 33.84375 34.859375 27.734375 34.859375 
Q 25.25 34.859375 21.53125 33.890625 
L 22.515625 41.609375 
Q 23.390625 41.5 23.921875 41.5 
Q 29.546875 41.5 34.03125 44.421875 
Q 38.53125 47.359375 38.53125 53.46875 
Q 38.53125 58.296875 35.25 61.46875 
Q 31.984375 64.65625 26.8125 64.65625 
Q 21.6875 64.65625 18.265625 61.421875 
Q 14.84375 58.203125 13.875 51.765625 
L 5.078125 53.328125 
Q 6.6875 62.15625 12.390625 67.015625 
Q 18.109375 71.875 26.609375 71.875 
Q 32.46875 71.875 37.390625 69.359375 
Q 42.328125 66.84375 44.9375 62.5 
Q 47.5625 58.15625 47.5625 53.265625 
Q 47.5625 48.640625 45.0625 44.828125 
Q 42.578125 41.015625 37.703125 38.765625 
Q 44.046875 37.3125 47.5625 32.6875 
Q 51.078125 28.078125 51.078125 21.140625 
Q 51.078125 11.765625 44.234375 5.25 
Q 37.40625 -1.265625 26.953125 -1.265625 
Q 17.53125 -1.265625 11.296875 4.34375 
Q 5.078125 9.96875 4.203125 18.890625 
z
" id="ArialMT-33"/>
      </defs>
      <g style="fill:#262626;" transform="translate(290.908594 290.877812)scale(0.1 -0.1)">
       <use xlink:href="#ArialMT-33"/>
       <use x="55.615234" xlink:href="#ArialMT-30"/>
       <use x="111.230469" xlink:href="#ArialMT-30"/>
      </g>
     </g>
    </g>
    <g id="xtick_5">
     <g id="line2d_5">
      <g>
       <use style="fill:#262626;stroke:#262626;" x="369" xlink:href="#m6fbd1c81cd" y="270.72"/>
      </g>
     </g>
     <g id="text_5">
      <!-- 400 -->
      <defs>
       <path d="M 32.328125 0 
L 32.328125 17.140625 
L 1.265625 17.140625 
L 1.265625 25.203125 
L 33.9375 71.578125 
L 41.109375 71.578125 
L 41.109375 25.203125 
L 50.78125 25.203125 
L 50.78125 17.140625 
L 41.109375 17.140625 
L 41.109375 0 
z
M 32.328125 25.203125 
L 32.328125 57.46875 
L 9.90625 25.203125 
z
" id="ArialMT-34"/>
      </defs>
      <g style="fill:#262626;" transform="translate(360.658594 290.877812)scale(0.1 -0.1)">
       <use xlink:href="#ArialMT-34"/>
       <use x="55.615234" xlink:href="#ArialMT-30"/>
       <use x="111.230469" xlink:href="#ArialMT-30"/>
      </g>
     </g>
    </g>
    <g id="xtick_6">
     <g id="line2d_6">
      <g>
       <use style="fill:#262626;stroke:#262626;" x="438.75" xlink:href="#m6fbd1c81cd" y="270.72"/>
      </g>
     </g>
     <g id="text_6">
      <!-- 500 -->
      <defs>
       <path d="M 4.15625 18.75 
L 13.375 19.53125 
Q 14.40625 12.796875 18.140625 9.390625 
Q 21.875 6 27.15625 6 
Q 33.5 6 37.890625 10.78125 
Q 42.28125 15.578125 42.28125 23.484375 
Q 42.28125 31 38.0625 35.34375 
Q 33.84375 39.703125 27 39.703125 
Q 22.75 39.703125 19.328125 37.765625 
Q 15.921875 35.84375 13.96875 32.765625 
L 5.71875 33.84375 
L 12.640625 70.609375 
L 48.25 70.609375 
L 48.25 62.203125 
L 19.671875 62.203125 
L 15.828125 42.96875 
Q 22.265625 47.46875 29.34375 47.46875 
Q 38.71875 47.46875 45.15625 40.96875 
Q 51.609375 34.46875 51.609375 24.265625 
Q 51.609375 14.546875 45.953125 7.46875 
Q 39.0625 -1.21875 27.15625 -1.21875 
Q 17.390625 -1.21875 11.203125 4.25 
Q 5.03125 9.71875 4.15625 18.75 
z
" id="ArialMT-35"/>
      </defs>
      <g style="fill:#262626;" transform="translate(430.408594 290.877812)scale(0.1 -0.1)">
       <use xlink:href="#ArialMT-35"/>
       <use x="55.615234" xlink:href="#ArialMT-30"/>
       <use x="111.230469" xlink:href="#ArialMT-30"/>
      </g>
     </g>
    </g>
    <g id="xtick_7">
     <g id="line2d_7">
      <g>
       <use style="fill:#262626;stroke:#262626;" x="508.5" xlink:href="#m6fbd1c81cd" y="270.72"/>
      </g>
     </g>
     <g id="text_7">
      <!-- 600 -->
      <defs>
       <path d="M 49.75 54.046875 
L 41.015625 53.375 
Q 39.84375 58.546875 37.703125 60.890625 
Q 34.125 64.65625 28.90625 64.65625 
Q 24.703125 64.65625 21.53125 62.3125 
Q 17.390625 59.28125 14.984375 53.46875 
Q 12.59375 47.65625 12.5 36.921875 
Q 15.671875 41.75 20.265625 44.09375 
Q 24.859375 46.4375 29.890625 46.4375 
Q 38.671875 46.4375 44.84375 39.96875 
Q 51.03125 33.5 51.03125 23.25 
Q 51.03125 16.5 48.125 10.71875 
Q 45.21875 4.9375 40.140625 1.859375 
Q 35.0625 -1.21875 28.609375 -1.21875 
Q 17.625 -1.21875 10.6875 6.859375 
Q 3.765625 14.9375 3.765625 33.5 
Q 3.765625 54.25 11.421875 63.671875 
Q 18.109375 71.875 29.4375 71.875 
Q 37.890625 71.875 43.28125 67.140625 
Q 48.6875 62.40625 49.75 54.046875 
z
M 13.875 23.1875 
Q 13.875 18.65625 15.796875 14.5 
Q 17.71875 10.359375 21.1875 8.171875 
Q 24.65625 6 28.46875 6 
Q 34.03125 6 38.03125 10.484375 
Q 42.046875 14.984375 42.046875 22.703125 
Q 42.046875 30.125 38.078125 34.390625 
Q 34.125 38.671875 28.125 38.671875 
Q 22.171875 38.671875 18.015625 34.390625 
Q 13.875 30.125 13.875 23.1875 
z
" id="ArialMT-36"/>
      </defs>
      <g style="fill:#262626;" transform="translate(500.158594 290.877812)scale(0.1 -0.1)">
       <use xlink:href="#ArialMT-36"/>
       <use x="55.615234" xlink:href="#ArialMT-30"/>
       <use x="111.230469" xlink:href="#ArialMT-30"/>
      </g>
     </g>
    </g>
    <g id="xtick_8">
     <g id="line2d_8">
      <g>
       <use style="fill:#262626;stroke:#262626;" x="578.25" xlink:href="#m6fbd1c81cd" y="270.72"/>
      </g>
     </g>
     <g id="text_8">
      <!-- 700 -->
      <defs>
       <path d="M 4.734375 62.203125 
L 4.734375 70.65625 
L 51.078125 70.65625 
L 51.078125 63.8125 
Q 44.234375 56.546875 37.515625 44.484375 
Q 30.8125 32.421875 27.15625 19.671875 
Q 24.515625 10.6875 23.78125 0 
L 14.75 0 
Q 14.890625 8.453125 18.0625 20.40625 
Q 21.234375 32.375 27.171875 43.484375 
Q 33.109375 54.59375 39.796875 62.203125 
z
" id="ArialMT-37"/>
      </defs>
      <g style="fill:#262626;" transform="translate(569.908594 290.877812)scale(0.1 -0.1)">
       <use xlink:href="#ArialMT-37"/>
       <use x="55.615234" xlink:href="#ArialMT-30"/>
       <use x="111.230469" xlink:href="#ArialMT-30"/>
      </g>
     </g>
    </g>
    <g id="xtick_9">
     <g id="line2d_9">
      <g>
       <use style="fill:#262626;stroke:#262626;" x="648" xlink:href="#m6fbd1c81cd" y="270.72"/>
      </g>
     </g>
     <g id="text_9">
      <!-- 800 -->
      <defs>
       <path d="M 17.671875 38.8125 
Q 12.203125 40.828125 9.5625 44.53125 
Q 6.9375 48.25 6.9375 53.421875 
Q 6.9375 61.234375 12.546875 66.546875 
Q 18.171875 71.875 27.484375 71.875 
Q 36.859375 71.875 42.578125 66.421875 
Q 48.296875 60.984375 48.296875 53.171875 
Q 48.296875 48.1875 45.671875 44.5 
Q 43.0625 40.828125 37.75 38.8125 
Q 44.34375 36.671875 47.78125 31.875 
Q 51.21875 27.09375 51.21875 20.453125 
Q 51.21875 11.28125 44.71875 5.03125 
Q 38.234375 -1.21875 27.640625 -1.21875 
Q 17.046875 -1.21875 10.546875 5.046875 
Q 4.046875 11.328125 4.046875 20.703125 
Q 4.046875 27.6875 7.59375 32.390625 
Q 11.140625 37.109375 17.671875 38.8125 
z
M 15.921875 53.71875 
Q 15.921875 48.640625 19.1875 45.40625 
Q 22.46875 42.1875 27.6875 42.1875 
Q 32.765625 42.1875 36.015625 45.375 
Q 39.265625 48.578125 39.265625 53.21875 
Q 39.265625 58.0625 35.90625 61.359375 
Q 32.5625 64.65625 27.59375 64.65625 
Q 22.5625 64.65625 19.234375 61.421875 
Q 15.921875 58.203125 15.921875 53.71875 
z
M 13.09375 20.65625 
Q 13.09375 16.890625 14.875 13.375 
Q 16.65625 9.859375 20.171875 7.921875 
Q 23.6875 6 27.734375 6 
Q 34.03125 6 38.125 10.046875 
Q 42.234375 14.109375 42.234375 20.359375 
Q 42.234375 26.703125 38.015625 30.859375 
Q 33.796875 35.015625 27.4375 35.015625 
Q 21.234375 35.015625 17.15625 30.90625 
Q 13.09375 26.8125 13.09375 20.65625 
z
" id="ArialMT-38"/>
      </defs>
      <g style="fill:#262626;" transform="translate(639.658594 290.877812)scale(0.1 -0.1)">
       <use xlink:href="#ArialMT-38"/>
       <use x="55.615234" xlink:href="#ArialMT-30"/>
       <use x="111.230469" xlink:href="#ArialMT-30"/>
      </g>
     </g>
    </g>
   </g>
   <g id="matplotlib.axis_2">
    <g id="ytick_1">
     <g id="line2d_10">
      <defs>
       <path d="M 0 0 
L -6 0 
" id="me99052bde6" style="stroke:#262626;"/>
      </defs>
      <g>
       <use style="fill:#262626;stroke:#262626;" x="90" xlink:href="#me99052bde6" y="250.56"/>
      </g>
     </g>
     <g id="text_10">
      <!-- −0.04 -->
      <defs>
       <path d="M 52.828125 31.203125 
L 5.5625 31.203125 
L 5.5625 39.40625 
L 52.828125 39.40625 
z
" id="ArialMT-2212"/>
       <path d="M 9.078125 0 
L 9.078125 10.015625 
L 19.09375 10.015625 
L 19.09375 0 
z
" id="ArialMT-2e"/>
      </defs>
      <g style="fill:#262626;" transform="translate(51.698437 254.138906)scale(0.1 -0.1)">
       <use xlink:href="#ArialMT-2212"/>
       <use x="58.398438" xlink:href="#ArialMT-30"/>
       <use x="114.013672" xlink:href="#ArialMT-2e"/>
       <use x="141.796875" xlink:href="#ArialMT-30"/>
       <use x="197.412109" xlink:href="#ArialMT-34"/>
      </g>
     </g>
    </g>
    <g id="ytick_2">
     <g id="line2d_11">
      <g>
       <use style="fill:#262626;stroke:#262626;" x="90" xlink:href="#me99052bde6" y="210.24"/>
      </g>
     </g>
     <g id="text_11">
      <!-- −0.02 -->
      <g style="fill:#262626;" transform="translate(51.698437 213.818906)scale(0.1 -0.1)">
       <use xlink:href="#ArialMT-2212"/>
       <use x="58.398438" xlink:href="#ArialMT-30"/>
       <use x="114.013672" xlink:href="#ArialMT-2e"/>
       <use x="141.796875" xlink:href="#ArialMT-30"/>
       <use x="197.412109" xlink:href="#ArialMT-32"/>
      </g>
     </g>
    </g>
    <g id="ytick_3">
     <g id="line2d_12">
      <g>
       <use style="fill:#262626;stroke:#262626;" x="90" xlink:href="#me99052bde6" y="169.92"/>
      </g>
     </g>
     <g id="text_12">
      <!-- 0.00 -->
      <g style="fill:#262626;" transform="translate(57.539062 173.498906)scale(0.1 -0.1)">
       <use xlink:href="#ArialMT-30"/>
       <use x="55.615234" xlink:href="#ArialMT-2e"/>
       <use x="83.398438" xlink:href="#ArialMT-30"/>
       <use x="139.013672" xlink:href="#ArialMT-30"/>
      </g>
     </g>
    </g>
    <g id="ytick_4">
     <g id="line2d_13">
      <g>
       <use style="fill:#262626;stroke:#262626;" x="90" xlink:href="#me99052bde6" y="129.6"/>
      </g>
     </g>
     <g id="text_13">
      <!-- 0.02 -->
      <g style="fill:#262626;" transform="translate(57.539062 133.178906)scale(0.1 -0.1)">
       <use xlink:href="#ArialMT-30"/>
       <use x="55.615234" xlink:href="#ArialMT-2e"/>
       <use x="83.398438" xlink:href="#ArialMT-30"/>
       <use x="139.013672" xlink:href="#ArialMT-32"/>
      </g>
     </g>
    </g>
    <g id="ytick_5">
     <g id="line2d_14">
      <g>
       <use style="fill:#262626;stroke:#262626;" x="90" xlink:href="#me99052bde6" y="89.28"/>
      </g>
     </g>
     <g id="text_14">
      <!-- 0.04 -->
      <g style="fill:#262626;" transform="translate(57.539062 92.858906)scale(0.1 -0.1)">
       <use xlink:href="#ArialMT-30"/>
       <use x="55.615234" xlink:href="#ArialMT-2e"/>
       <use x="83.398438" xlink:href="#ArialMT-30"/>
       <use x="139.013672" xlink:href="#ArialMT-34"/>
      </g>
     </g>
    </g>
   </g>
   <g id="PolyCollection_1">
    <path clip-path="url(#p985ded914a)" d="M 90 173.979329 
L 90 169.92 
L 90.6975 169.92 
L 91.395 169.92 
L 92.0925 169.92 
L 92.79 169.92 
L 93.4875 169.92 
L 94.185 169.92 
L 94.8825 169.92 
L 95.58 169.92 
L 96.2775 169.92 
L 96.975 169.92 
L 97.6725 169.92 
L 98.37 169.92 
L 99.0675 169.92 
L 99.765 169.92 
L 100.4625 169.92 
L 101.16 169.92 
L 101.8575 169.92 
L 102.555 169.92 
L 103.2525 169.92 
L 103.95 169.92 
L 104.6475 169.92 
L 105.345 169.92 
L 106.0425 169.92 
L 106.74 169.92 
L 107.4375 169.92 
L 108.135 169.92 
L 108.8325 169.92 
L 109.53 169.92 
L 110.2275 169.92 
L 110.925 169.92 
L 111.6225 169.92 
L 112.32 169.92 
L 113.0175 169.92 
L 113.715 169.92 
L 114.4125 169.92 
L 115.11 169.92 
L 115.8075 169.92 
L 116.505 169.92 
L 117.2025 169.92 
L 117.9 169.92 
L 118.5975 169.92 
L 119.295 169.92 
L 119.9925 169.92 
L 120.69 169.92 
L 121.3875 169.92 
L 122.085 169.92 
L 122.7825 169.92 
L 123.48 169.92 
L 124.1775 169.92 
L 124.875 169.92 
L 125.5725 169.92 
L 126.27 169.92 
L 126.9675 169.92 
L 127.665 169.92 
L 128.3625 169.92 
L 129.06 169.92 
L 129.7575 169.92 
L 130.455 169.92 
L 131.1525 169.92 
L 131.85 169.92 
L 132.5475 169.92 
L 133.245 169.92 
L 133.9425 169.92 
L 134.64 169.92 
L 135.3375 169.92 
L 136.035 169.92 
L 136.7325 169.92 
L 137.43 169.92 
L 138.1275 169.92 
L 138.825 169.92 
L 139.5225 169.92 
L 140.22 169.92 
L 140.9175 169.92 
L 141.615 169.92 
L 142.3125 169.92 
L 143.01 169.92 
L 143.7075 169.92 
L 144.405 169.92 
L 145.1025 169.92 
L 145.8 169.92 
L 146.4975 169.92 
L 147.195 169.92 
L 147.8925 169.92 
L 148.59 169.92 
L 149.2875 169.92 
L 149.985 169.92 
L 150.6825 169.92 
L 151.38 169.92 
L 152.0775 169.92 
L 152.775 169.92 
L 153.4725 169.92 
L 154.17 169.92 
L 154.8675 169.92 
L 155.565 169.92 
L 156.2625 169.92 
L 156.96 169.92 
L 157.6575 169.92 
L 158.355 169.92 
L 159.0525 169.92 
L 159.75 169.92 
L 160.4475 169.92 
L 161.145 169.92 
L 161.8425 169.92 
L 162.54 169.92 
L 163.2375 169.92 
L 163.935 169.92 
L 164.6325 169.92 
L 165.33 169.92 
L 166.0275 169.92 
L 166.725 169.92 
L 167.4225 169.92 
L 168.12 169.92 
L 168.8175 169.92 
L 169.515 169.92 
L 170.2125 169.92 
L 170.91 169.92 
L 171.6075 169.92 
L 172.305 169.92 
L 173.0025 169.92 
L 173.7 169.92 
L 174.3975 169.92 
L 175.095 169.92 
L 175.7925 169.92 
L 176.49 169.92 
L 177.1875 169.92 
L 177.885 169.92 
L 178.5825 169.92 
L 179.28 169.92 
L 179.9775 169.92 
L 180.675 169.92 
L 181.3725 169.92 
L 182.07 169.92 
L 182.7675 169.92 
L 183.465 169.92 
L 184.1625 169.92 
L 184.86 169.92 
L 185.5575 169.92 
L 186.255 169.92 
L 186.9525 169.92 
L 187.65 169.92 
L 188.3475 169.92 
L 189.045 169.92 
L 189.7425 169.92 
L 190.44 169.92 
L 191.1375 169.92 
L 191.835 169.92 
L 192.5325 169.92 
L 193.23 169.92 
L 193.9275 169.92 
L 194.625 169.92 
L 195.3225 169.92 
L 196.02 169.92 
L 196.7175 169.92 
L 197.415 169.92 
L 198.1125 169.92 
L 198.81 169.92 
L 199.5075 169.92 
L 200.205 169.92 
L 200.9025 169.92 
L 201.6 169.92 
L 202.2975 169.92 
L 202.995 169.92 
L 203.6925 169.92 
L 204.39 169.92 
L 205.0875 169.92 
L 205.785 169.92 
L 206.4825 169.92 
L 207.18 169.92 
L 207.8775 169.92 
L 208.575 169.92 
L 209.2725 169.92 
L 209.97 169.92 
L 210.6675 169.92 
L 211.365 169.92 
L 212.0625 169.92 
L 212.76 169.92 
L 213.4575 169.92 
L 214.155 169.92 
L 214.8525 169.92 
L 215.55 169.92 
L 216.2475 169.92 
L 216.945 169.92 
L 217.6425 169.92 
L 218.34 169.92 
L 219.0375 169.92 
L 219.735 169.92 
L 220.4325 169.92 
L 221.13 169.92 
L 221.8275 169.92 
L 222.525 169.92 
L 223.2225 169.92 
L 223.92 169.92 
L 224.6175 169.92 
L 225.315 169.92 
L 226.0125 169.92 
L 226.71 169.92 
L 227.4075 169.92 
L 228.105 169.92 
L 228.8025 169.92 
L 229.5 169.92 
L 230.1975 169.92 
L 230.895 169.92 
L 231.5925 169.92 
L 232.29 169.92 
L 232.9875 169.92 
L 233.685 169.92 
L 234.3825 169.92 
L 235.08 169.92 
L 235.7775 169.92 
L 236.475 169.92 
L 237.1725 169.92 
L 237.87 169.92 
L 238.5675 169.92 
L 239.265 169.92 
L 239.9625 169.92 
L 240.66 169.92 
L 241.3575 169.92 
L 242.055 169.92 
L 242.7525 169.92 
L 243.45 169.92 
L 244.1475 169.92 
L 244.845 169.92 
L 245.5425 169.92 
L 246.24 169.92 
L 246.9375 169.92 
L 247.635 169.92 
L 248.3325 169.92 
L 249.03 169.92 
L 249.7275 169.92 
L 250.425 169.92 
L 251.1225 169.92 
L 251.82 169.92 
L 252.5175 169.92 
L 253.215 169.92 
L 253.9125 169.92 
L 254.61 169.92 
L 255.3075 169.92 
L 256.005 169.92 
L 256.7025 169.92 
L 257.4 169.92 
L 258.0975 169.92 
L 258.795 169.92 
L 259.4925 169.92 
L 260.19 169.92 
L 260.8875 169.92 
L 261.585 169.92 
L 262.2825 169.92 
L 262.98 169.92 
L 263.6775 169.92 
L 264.375 169.92 
L 265.0725 169.92 
L 265.77 169.92 
L 266.4675 169.92 
L 267.165 169.92 
L 267.8625 169.92 
L 268.56 169.92 
L 269.2575 169.92 
L 269.955 169.92 
L 270.6525 169.92 
L 271.35 169.92 
L 272.0475 169.92 
L 272.745 169.92 
L 273.4425 169.92 
L 274.14 169.92 
L 274.8375 169.92 
L 275.535 169.92 
L 276.2325 169.92 
L 276.93 169.92 
L 277.6275 169.92 
L 278.325 169.92 
L 279.0225 169.92 
L 279.72 169.92 
L 280.4175 169.92 
L 281.115 169.92 
L 281.8125 169.92 
L 282.51 169.92 
L 283.2075 169.92 
L 283.905 169.92 
L 284.6025 169.92 
L 285.3 169.92 
L 285.9975 169.92 
L 286.695 169.92 
L 287.3925 169.92 
L 288.09 169.92 
L 288.7875 169.92 
L 289.485 169.92 
L 290.1825 169.92 
L 290.88 169.92 
L 291.5775 169.92 
L 292.275 169.92 
L 292.9725 169.92 
L 293.67 169.92 
L 294.3675 169.92 
L 295.065 169.92 
L 295.7625 169.92 
L 296.46 169.92 
L 297.1575 169.92 
L 297.855 169.92 
L 298.5525 169.92 
L 299.25 169.92 
L 299.9475 169.92 
L 300.645 169.92 
L 301.3425 169.92 
L 302.04 169.92 
L 302.7375 169.92 
L 303.435 169.92 
L 304.1325 169.92 
L 304.83 169.92 
L 305.5275 169.92 
L 306.225 169.92 
L 306.9225 169.92 
L 307.62 169.92 
L 308.3175 169.92 
L 309.015 169.92 
L 309.7125 169.92 
L 310.41 169.92 
L 311.1075 169.92 
L 311.805 169.92 
L 312.5025 169.92 
L 313.2 169.92 
L 313.8975 169.92 
L 314.595 169.92 
L 315.2925 169.92 
L 315.99 169.92 
L 316.6875 169.92 
L 317.385 169.92 
L 318.0825 169.92 
L 318.78 169.92 
L 319.4775 169.92 
L 320.175 169.92 
L 320.8725 169.92 
L 321.57 169.92 
L 322.2675 169.92 
L 322.965 169.92 
L 323.6625 169.92 
L 324.36 169.92 
L 325.0575 169.92 
L 325.755 169.92 
L 326.4525 169.92 
L 327.15 169.92 
L 327.8475 169.92 
L 328.545 169.92 
L 329.2425 169.92 
L 329.94 169.92 
L 330.6375 169.92 
L 331.335 169.92 
L 332.0325 169.92 
L 332.73 169.92 
L 333.4275 169.92 
L 334.125 169.92 
L 334.8225 169.92 
L 335.52 169.92 
L 336.2175 169.92 
L 336.915 169.92 
L 337.6125 169.92 
L 338.31 169.92 
L 339.0075 169.92 
L 339.705 169.92 
L 340.4025 169.92 
L 341.1 169.92 
L 341.7975 169.92 
L 342.495 169.92 
L 343.1925 169.92 
L 343.89 169.92 
L 344.5875 169.92 
L 345.285 169.92 
L 345.9825 169.92 
L 346.68 169.92 
L 347.3775 169.92 
L 348.075 169.92 
L 348.7725 169.92 
L 349.47 169.92 
L 350.1675 169.92 
L 350.865 169.92 
L 351.5625 169.92 
L 352.26 169.92 
L 352.9575 169.92 
L 353.655 169.92 
L 354.3525 169.92 
L 355.05 169.92 
L 355.7475 169.92 
L 356.445 169.92 
L 357.1425 169.92 
L 357.84 169.92 
L 358.5375 169.92 
L 359.235 169.92 
L 359.9325 169.92 
L 360.63 169.92 
L 361.3275 169.92 
L 362.025 169.92 
L 362.7225 169.92 
L 363.42 169.92 
L 364.1175 169.92 
L 364.815 169.92 
L 365.5125 169.92 
L 366.21 169.92 
L 366.9075 169.92 
L 367.605 169.92 
L 368.3025 169.92 
L 369 169.92 
L 369.6975 169.92 
L 370.395 169.92 
L 371.0925 169.92 
L 371.79 169.92 
L 372.4875 169.92 
L 373.185 169.92 
L 373.8825 169.92 
L 374.58 169.92 
L 375.2775 169.92 
L 375.975 169.92 
L 376.6725 169.92 
L 377.37 169.92 
L 378.0675 169.92 
L 378.765 169.92 
L 379.4625 169.92 
L 380.16 169.92 
L 380.8575 169.92 
L 381.555 169.92 
L 382.2525 169.92 
L 382.95 169.92 
L 383.6475 169.92 
L 384.345 169.92 
L 385.0425 169.92 
L 385.74 169.92 
L 386.4375 169.92 
L 387.135 169.92 
L 387.8325 169.92 
L 388.53 169.92 
L 389.2275 169.92 
L 389.925 169.92 
L 390.6225 169.92 
L 391.32 169.92 
L 392.0175 169.92 
L 392.715 169.92 
L 393.4125 169.92 
L 394.11 169.92 
L 394.8075 169.92 
L 395.505 169.92 
L 396.2025 169.92 
L 396.9 169.92 
L 397.5975 169.92 
L 398.295 169.92 
L 398.9925 169.92 
L 399.69 169.92 
L 400.3875 169.92 
L 401.085 169.92 
L 401.7825 169.92 
L 402.48 169.92 
L 403.1775 169.92 
L 403.875 169.92 
L 404.5725 169.92 
L 405.27 169.92 
L 405.9675 169.92 
L 406.665 169.92 
L 407.3625 169.92 
L 408.06 169.92 
L 408.7575 169.92 
L 409.455 169.92 
L 410.1525 169.92 
L 410.85 169.92 
L 411.5475 169.92 
L 412.245 169.92 
L 412.9425 169.92 
L 413.64 169.92 
L 414.3375 169.92 
L 415.035 169.92 
L 415.7325 169.92 
L 416.43 169.92 
L 417.1275 169.92 
L 417.825 169.92 
L 418.5225 169.92 
L 419.22 169.92 
L 419.9175 169.92 
L 420.615 169.92 
L 421.3125 169.92 
L 422.01 169.92 
L 422.7075 169.92 
L 423.405 169.92 
L 424.1025 169.92 
L 424.8 169.92 
L 425.4975 169.92 
L 426.195 169.92 
L 426.8925 169.92 
L 427.59 169.92 
L 428.2875 169.92 
L 428.985 169.92 
L 429.6825 169.92 
L 430.38 169.92 
L 431.0775 169.92 
L 431.775 169.92 
L 432.4725 169.92 
L 433.17 169.92 
L 433.8675 169.92 
L 434.565 169.92 
L 435.2625 169.92 
L 435.96 169.92 
L 436.6575 169.92 
L 437.355 169.92 
L 438.0525 169.92 
L 438.75 169.92 
L 439.4475 169.92 
L 440.145 169.92 
L 440.8425 169.92 
L 441.54 169.92 
L 442.2375 169.92 
L 442.935 169.92 
L 443.6325 169.92 
L 444.33 169.92 
L 445.0275 169.92 
L 445.725 169.92 
L 446.4225 169.92 
L 447.12 169.92 
L 447.8175 169.92 
L 448.515 169.92 
L 449.2125 169.92 
L 449.91 169.92 
L 450.6075 169.92 
L 451.305 169.92 
L 452.0025 169.92 
L 452.7 169.92 
L 453.3975 169.92 
L 454.095 169.92 
L 454.7925 169.92 
L 455.49 169.92 
L 456.1875 169.92 
L 456.885 169.92 
L 457.5825 169.92 
L 458.28 169.92 
L 458.9775 169.92 
L 459.675 169.92 
L 460.3725 169.92 
L 461.07 169.92 
L 461.7675 169.92 
L 462.465 169.92 
L 463.1625 169.92 
L 463.86 169.92 
L 464.5575 169.92 
L 465.255 169.92 
L 465.9525 169.92 
L 466.65 169.92 
L 467.3475 169.92 
L 468.045 169.92 
L 468.7425 169.92 
L 469.44 169.92 
L 470.1375 169.92 
L 470.835 169.92 
L 471.5325 169.92 
L 472.23 169.92 
L 472.9275 169.92 
L 473.625 169.92 
L 474.3225 169.92 
L 475.02 169.92 
L 475.7175 169.92 
L 476.415 169.92 
L 477.1125 169.92 
L 477.81 169.92 
L 478.5075 169.92 
L 479.205 169.92 
L 479.9025 169.92 
L 480.6 169.92 
L 481.2975 169.92 
L 481.995 169.92 
L 482.6925 169.92 
L 483.39 169.92 
L 484.0875 169.92 
L 484.785 169.92 
L 485.4825 169.92 
L 486.18 169.92 
L 486.8775 169.92 
L 487.575 169.92 
L 488.2725 169.92 
L 488.97 169.92 
L 489.6675 169.92 
L 490.365 169.92 
L 491.0625 169.92 
L 491.76 169.92 
L 492.4575 169.92 
L 493.155 169.92 
L 493.8525 169.92 
L 494.55 169.92 
L 495.2475 169.92 
L 495.945 169.92 
L 496.6425 169.92 
L 497.34 169.92 
L 498.0375 169.92 
L 498.735 169.92 
L 499.4325 169.92 
L 500.13 169.92 
L 500.8275 169.92 
L 501.525 169.92 
L 502.2225 169.92 
L 502.92 169.92 
L 503.6175 169.92 
L 504.315 169.92 
L 505.0125 169.92 
L 505.71 169.92 
L 506.4075 169.92 
L 507.105 169.92 
L 507.8025 169.92 
L 508.5 169.92 
L 509.1975 169.92 
L 509.895 169.92 
L 510.5925 169.92 
L 511.29 169.92 
L 511.9875 169.92 
L 512.685 169.92 
L 513.3825 169.92 
L 514.08 169.92 
L 514.7775 169.92 
L 515.475 169.92 
L 516.1725 169.92 
L 516.87 169.92 
L 517.5675 169.92 
L 518.265 169.92 
L 518.9625 169.92 
L 519.66 169.92 
L 520.3575 169.92 
L 521.055 169.92 
L 521.7525 169.92 
L 522.45 169.92 
L 523.1475 169.92 
L 523.845 169.92 
L 524.5425 169.92 
L 525.24 169.92 
L 525.9375 169.92 
L 526.635 169.92 
L 527.3325 169.92 
L 528.03 169.92 
L 528.7275 169.92 
L 529.425 169.92 
L 530.1225 169.92 
L 530.82 169.92 
L 531.5175 169.92 
L 532.215 169.92 
L 532.9125 169.92 
L 533.61 169.92 
L 534.3075 169.92 
L 535.005 169.92 
L 535.7025 169.92 
L 536.4 169.92 
L 537.0975 169.92 
L 537.795 169.92 
L 538.4925 169.92 
L 539.19 169.92 
L 539.8875 169.92 
L 540.585 169.92 
L 541.2825 169.92 
L 541.98 169.92 
L 542.6775 169.92 
L 543.375 169.92 
L 544.0725 169.92 
L 544.77 169.92 
L 545.4675 169.92 
L 546.165 169.92 
L 546.8625 169.92 
L 547.56 169.92 
L 548.2575 169.92 
L 548.955 169.92 
L 549.6525 169.92 
L 550.35 169.92 
L 551.0475 169.92 
L 551.745 169.92 
L 552.4425 169.92 
L 553.14 169.92 
L 553.8375 169.92 
L 554.535 169.92 
L 555.2325 169.92 
L 555.93 169.92 
L 556.6275 169.92 
L 557.325 169.92 
L 558.0225 169.92 
L 558.72 169.92 
L 559.4175 169.92 
L 560.115 169.92 
L 560.8125 169.92 
L 561.51 169.92 
L 562.2075 169.92 
L 562.905 169.92 
L 563.6025 169.92 
L 564.3 169.92 
L 564.9975 169.92 
L 565.695 169.92 
L 566.3925 169.92 
L 567.09 169.92 
L 567.7875 169.92 
L 568.485 169.92 
L 569.1825 169.92 
L 569.88 169.92 
L 570.5775 169.92 
L 571.275 169.92 
L 571.9725 169.92 
L 572.67 169.92 
L 573.3675 169.92 
L 574.065 169.92 
L 574.7625 169.92 
L 575.46 169.92 
L 576.1575 169.92 
L 576.855 169.92 
L 577.5525 169.92 
L 578.25 169.92 
L 578.9475 169.92 
L 579.645 169.92 
L 580.3425 169.92 
L 581.04 169.92 
L 581.7375 169.92 
L 582.435 169.92 
L 583.1325 169.92 
L 583.83 169.92 
L 584.5275 169.92 
L 585.225 169.92 
L 585.9225 169.92 
L 586.62 169.92 
L 587.3175 169.92 
L 588.015 169.92 
L 588.7125 169.92 
L 589.41 169.92 
L 590.1075 169.92 
L 590.805 169.92 
L 591.5025 169.92 
L 592.2 169.92 
L 592.8975 169.92 
L 593.595 169.92 
L 594.2925 169.92 
L 594.99 169.92 
L 595.6875 169.92 
L 596.385 169.92 
L 597.0825 169.92 
L 597.78 169.92 
L 598.4775 169.92 
L 599.175 169.92 
L 599.8725 169.92 
L 600.57 169.92 
L 601.2675 169.92 
L 601.965 169.92 
L 602.6625 169.92 
L 603.36 169.92 
L 604.0575 169.92 
L 604.755 169.92 
L 605.4525 169.92 
L 606.15 169.92 
L 606.8475 169.92 
L 607.545 169.92 
L 608.2425 169.92 
L 608.94 169.92 
L 609.6375 169.92 
L 610.335 169.92 
L 611.0325 169.92 
L 611.73 169.92 
L 612.4275 169.92 
L 613.125 169.92 
L 613.8225 169.92 
L 614.52 169.92 
L 615.2175 169.92 
L 615.915 169.92 
L 616.6125 169.92 
L 617.31 169.92 
L 618.0075 169.92 
L 618.705 169.92 
L 619.4025 169.92 
L 620.1 169.92 
L 620.7975 169.92 
L 621.495 169.92 
L 622.1925 169.92 
L 622.89 169.92 
L 623.5875 169.92 
L 624.285 169.92 
L 624.9825 169.92 
L 625.68 169.92 
L 626.3775 169.92 
L 627.075 169.92 
L 627.7725 169.92 
L 628.47 169.92 
L 629.1675 169.92 
L 629.865 169.92 
L 630.5625 169.92 
L 631.26 169.92 
L 631.9575 169.92 
L 632.655 169.92 
L 633.3525 169.92 
L 634.05 169.92 
L 634.7475 169.92 
L 635.445 169.92 
L 636.1425 169.92 
L 636.84 169.92 
L 637.5375 169.92 
L 638.235 169.92 
L 638.9325 169.92 
L 639.63 169.92 
L 640.3275 169.92 
L 641.025 169.92 
L 641.7225 169.92 
L 642.42 169.92 
L 643.1175 169.92 
L 643.815 169.92 
L 644.5125 169.92 
L 645.21 169.92 
L 645.9075 169.92 
L 646.605 169.92 
L 646.605 169.92 
L 646.605 169.92 
L 645.9075 169.991589 
L 645.21 170.181293 
L 644.5125 170.42229 
L 643.815 170.718491 
L 643.1175 171.080832 
L 642.42 171.471413 
L 641.7225 171.875723 
L 641.025 172.342656 
L 640.3275 172.832557 
L 639.63 173.329247 
L 638.9325 173.86416 
L 638.235 174.380592 
L 637.5375 174.90169 
L 636.84 175.402798 
L 636.1425 175.88346 
L 635.445 176.335606 
L 634.7475 176.743692 
L 634.05 177.084959 
L 633.3525 177.345725 
L 632.655 177.569338 
L 631.9575 177.720226 
L 631.26 177.811767 
L 630.5625 177.850377 
L 629.865 177.843363 
L 629.1675 177.743116 
L 628.47 177.591091 
L 627.7725 177.381886 
L 627.075 177.142875 
L 626.3775 176.830344 
L 625.68 176.481358 
L 624.9825 176.085865 
L 624.285 175.634596 
L 623.5875 175.190806 
L 622.89 174.714219 
L 622.1925 174.236699 
L 621.495 173.758306 
L 620.7975 173.271162 
L 620.1 172.759582 
L 619.4025 172.287834 
L 618.705 171.824064 
L 618.0075 171.391968 
L 617.31 170.974934 
L 616.6125 170.572009 
L 615.915 170.229728 
L 615.2175 169.914066 
L 614.52 169.638276 
L 613.8225 169.430849 
L 613.125 169.27936 
L 612.4275 169.170442 
L 611.73 169.113878 
L 611.0325 169.15039 
L 610.335 169.255502 
L 609.6375 169.403586 
L 608.94 169.616018 
L 608.2425 169.873326 
L 607.545 170.15528 
L 606.8475 170.49692 
L 606.15 170.884555 
L 605.4525 171.295772 
L 604.755 171.667985 
L 604.0575 172.066536 
L 603.36 172.421101 
L 602.6625 172.765499 
L 601.965 173.062131 
L 601.2675 173.321927 
L 600.57 173.532571 
L 599.8725 173.682573 
L 599.175 173.785324 
L 598.4775 173.791373 
L 597.78 173.764253 
L 597.0825 173.640784 
L 596.385 173.454857 
L 595.6875 173.193684 
L 594.99 172.861649 
L 594.2925 172.488188 
L 593.595 172.039799 
L 592.8975 171.547873 
L 592.2 170.996803 
L 591.5025 170.371976 
L 590.805 169.731608 
L 590.1075 169.078494 
L 589.41 168.407688 
L 588.7125 167.714542 
L 588.015 167.042509 
L 587.3175 166.410825 
L 586.62 165.798275 
L 585.9225 165.215141 
L 585.225 164.647351 
L 584.5275 164.120342 
L 583.83 163.658872 
L 583.1325 163.286594 
L 582.435 163.001804 
L 581.7375 162.793374 
L 581.04 162.664802 
L 580.3425 162.618247 
L 579.645 162.630626 
L 578.9475 162.725596 
L 578.25 162.877699 
L 577.5525 163.084382 
L 576.855 163.381946 
L 576.1575 163.717672 
L 575.46 164.141604 
L 574.7625 164.575035 
L 574.065 165.0266 
L 573.3675 165.504627 
L 572.67 165.977228 
L 571.9725 166.492151 
L 571.275 167.00098 
L 570.5775 167.48722 
L 569.88 167.934753 
L 569.1825 168.37584 
L 568.485 168.755349 
L 567.7875 169.066911 
L 567.09 169.353021 
L 566.3925 169.577059 
L 565.695 169.735264 
L 564.9975 169.84089 
L 564.3 169.916027 
L 563.6025 169.927595 
L 562.905 169.859492 
L 562.2075 169.760587 
L 561.51 169.600724 
L 560.8125 169.398493 
L 560.115 169.165245 
L 559.4175 168.89694 
L 558.72 168.613991 
L 558.0225 168.289331 
L 557.325 167.96818 
L 556.6275 167.608204 
L 555.93 167.263172 
L 555.2325 166.891148 
L 554.535 166.530196 
L 553.8375 166.19433 
L 553.14 165.857369 
L 552.4425 165.58065 
L 551.745 165.305184 
L 551.0475 165.091275 
L 550.35 164.902742 
L 549.6525 164.790477 
L 548.955 164.716591 
L 548.2575 164.666417 
L 547.56 164.680568 
L 546.8625 164.758808 
L 546.165 164.891867 
L 545.4675 165.061605 
L 544.77 165.281079 
L 544.0725 165.538653 
L 543.375 165.837956 
L 542.6775 166.16601 
L 541.98 166.557079 
L 541.2825 166.94892 
L 540.585 167.366771 
L 539.8875 167.803618 
L 539.19 168.244174 
L 538.4925 168.712861 
L 537.795 169.185903 
L 537.0975 169.663314 
L 536.4 170.137078 
L 535.7025 170.607199 
L 535.005 171.041922 
L 534.3075 171.47372 
L 533.61 171.847619 
L 532.9125 172.205069 
L 532.215 172.500298 
L 531.5175 172.768122 
L 530.82 172.99609 
L 530.1225 173.172423 
L 529.425 173.325976 
L 528.7275 173.406447 
L 528.03 173.444301 
L 527.3325 173.43095 
L 526.635 173.358663 
L 525.9375 173.220698 
L 525.24 173.035281 
L 524.5425 172.79757 
L 523.845 172.519509 
L 523.1475 172.213721 
L 522.45 171.853521 
L 521.7525 171.460864 
L 521.055 171.026432 
L 520.3575 170.573428 
L 519.66 170.117409 
L 518.9625 169.658077 
L 518.265 169.195187 
L 517.5675 168.768327 
L 516.87 168.368754 
L 516.1725 167.987266 
L 515.475 167.662085 
L 514.7775 167.390715 
L 514.08 167.177711 
L 513.3825 167.026649 
L 512.685 166.924156 
L 511.9875 166.863998 
L 511.29 166.855139 
L 510.5925 166.913636 
L 509.895 167.054417 
L 509.1975 167.251256 
L 508.5 167.52471 
L 507.8025 167.830418 
L 507.105 168.218929 
L 506.4075 168.651903 
L 505.71 169.130028 
L 505.0125 169.621413 
L 504.315 170.149627 
L 503.6175 170.705805 
L 502.92 171.256746 
L 502.2225 171.840929 
L 501.525 172.408775 
L 500.8275 172.966661 
L 500.13 173.481359 
L 499.4325 173.952183 
L 498.735 174.395093 
L 498.0375 174.794701 
L 497.34 175.144297 
L 496.6425 175.43006 
L 495.945 175.6631 
L 495.2475 175.839506 
L 494.55 175.972226 
L 493.8525 176.011306 
L 493.155 175.99586 
L 492.4575 175.878423 
L 491.76 175.708692 
L 491.0625 175.465653 
L 490.365 175.153386 
L 489.6675 174.769177 
L 488.97 174.335387 
L 488.2725 173.843386 
L 487.575 173.309389 
L 486.8775 172.774178 
L 486.18 172.230827 
L 485.4825 171.672548 
L 484.785 171.108714 
L 484.0875 170.572652 
L 483.39 170.057451 
L 482.6925 169.555852 
L 481.995 169.076275 
L 481.2975 168.642678 
L 480.6 168.246431 
L 479.9025 167.902141 
L 479.205 167.607632 
L 478.5075 167.383757 
L 477.81 167.21041 
L 477.1125 167.106411 
L 476.415 167.057596 
L 475.7175 167.096602 
L 475.02 167.183003 
L 474.3225 167.323303 
L 473.625 167.515146 
L 472.9275 167.747357 
L 472.23 168.01604 
L 471.5325 168.316683 
L 470.835 168.684012 
L 470.1375 169.072089 
L 469.44 169.482353 
L 468.7425 169.923827 
L 468.045 170.381146 
L 467.3475 170.830723 
L 466.65 171.280922 
L 465.9525 171.740093 
L 465.255 172.200529 
L 464.5575 172.630637 
L 463.86 173.023198 
L 463.1625 173.395485 
L 462.465 173.709431 
L 461.7675 174.015447 
L 461.07 174.252716 
L 460.3725 174.425208 
L 459.675 174.530028 
L 458.9775 174.557463 
L 458.28 174.491143 
L 457.5825 174.379907 
L 456.885 174.209714 
L 456.1875 173.959559 
L 455.49 173.641593 
L 454.7925 173.300928 
L 454.095 172.903509 
L 453.3975 172.471917 
L 452.7 172.013395 
L 452.0025 171.543597 
L 451.305 171.062453 
L 450.6075 170.57804 
L 449.91 170.106444 
L 449.2125 169.647627 
L 448.515 169.217245 
L 447.8175 168.814568 
L 447.12 168.430448 
L 446.4225 168.087241 
L 445.725 167.798663 
L 445.0275 167.561602 
L 444.33 167.403903 
L 443.6325 167.296393 
L 442.935 167.24088 
L 442.2375 167.230339 
L 441.54 167.296765 
L 440.8425 167.41518 
L 440.145 167.607459 
L 439.4475 167.846512 
L 438.75 168.160143 
L 438.0525 168.503315 
L 437.355 168.886178 
L 436.6575 169.302303 
L 435.96 169.728797 
L 435.2625 170.17441 
L 434.565 170.623706 
L 433.8675 171.077099 
L 433.17 171.511067 
L 432.4725 171.934237 
L 431.775 172.323594 
L 431.0775 172.672604 
L 430.38 172.975408 
L 429.6825 173.234877 
L 428.985 173.438701 
L 428.2875 173.583459 
L 427.59 173.658766 
L 426.8925 173.671313 
L 426.195 173.628844 
L 425.4975 173.524116 
L 424.8 173.358889 
L 424.1025 173.143889 
L 423.405 172.866817 
L 422.7075 172.564142 
L 422.01 172.201173 
L 421.3125 171.799912 
L 420.615 171.367093 
L 419.9175 170.902029 
L 419.22 170.412525 
L 418.5225 169.906799 
L 417.825 169.40925 
L 417.1275 168.912319 
L 416.43 168.432304 
L 415.7325 167.969308 
L 415.035 167.515194 
L 414.3375 167.109401 
L 413.64 166.750789 
L 412.9425 166.429467 
L 412.245 166.182648 
L 411.5475 165.990611 
L 410.85 165.840671 
L 410.1525 165.751253 
L 409.455 165.72386 
L 408.7575 165.75895 
L 408.06 165.84798 
L 407.3625 165.981502 
L 406.665 166.181136 
L 405.9675 166.403761 
L 405.27 166.669502 
L 404.5725 166.957989 
L 403.875 167.288244 
L 403.1775 167.646768 
L 402.48 168.011633 
L 401.7825 168.400578 
L 401.085 168.775258 
L 400.3875 169.14529 
L 399.69 169.512418 
L 398.9925 169.846616 
L 398.295 170.150228 
L 397.5975 170.442021 
L 396.9 170.701189 
L 396.2025 170.931334 
L 395.505 171.112685 
L 394.8075 171.250152 
L 394.11 171.341428 
L 393.4125 171.353162 
L 392.715 171.316976 
L 392.0175 171.233477 
L 391.32 171.088157 
L 390.6225 170.915273 
L 389.925 170.670002 
L 389.2275 170.380324 
L 388.53 170.074964 
L 387.8325 169.735185 
L 387.135 169.366692 
L 386.4375 168.999531 
L 385.74 168.608051 
L 385.0425 168.198821 
L 384.345 167.794621 
L 383.6475 167.402235 
L 382.95 167.012341 
L 382.2525 166.62353 
L 381.555 166.250283 
L 380.8575 165.90682 
L 380.16 165.590951 
L 379.4625 165.30798 
L 378.765 165.054702 
L 378.0675 164.827414 
L 377.37 164.653794 
L 376.6725 164.512894 
L 375.975 164.422988 
L 375.2775 164.39354 
L 374.58 164.409134 
L 373.8825 164.477464 
L 373.185 164.589429 
L 372.4875 164.751102 
L 371.79 164.959771 
L 371.0925 165.203977 
L 370.395 165.479623 
L 369.6975 165.78208 
L 369 166.130134 
L 368.3025 166.478172 
L 367.605 166.868077 
L 366.9075 167.261486 
L 366.21 167.651796 
L 365.5125 168.040408 
L 364.815 168.420801 
L 364.1175 168.770679 
L 363.42 169.100078 
L 362.7225 169.403469 
L 362.025 169.675759 
L 361.3275 169.912376 
L 360.63 170.125259 
L 359.9325 170.28697 
L 359.235 170.402749 
L 358.5375 170.478606 
L 357.84 170.481452 
L 357.1425 170.443056 
L 356.445 170.340199 
L 355.7475 170.190516 
L 355.05 169.988566 
L 354.3525 169.72183 
L 353.655 169.410695 
L 352.9575 169.052428 
L 352.26 168.668953 
L 351.5625 168.274661 
L 350.865 167.852307 
L 350.1675 167.416937 
L 349.47 166.975857 
L 348.7725 166.536473 
L 348.075 166.114114 
L 347.3775 165.71587 
L 346.68 165.356381 
L 345.9825 165.033727 
L 345.285 164.745369 
L 344.5875 164.504103 
L 343.89 164.321932 
L 343.1925 164.186007 
L 342.495 164.106562 
L 341.7975 164.084932 
L 341.1 164.113526 
L 340.4025 164.207772 
L 339.705 164.366088 
L 339.0075 164.577862 
L 338.31 164.847494 
L 337.6125 165.162503 
L 336.915 165.533509 
L 336.2175 165.954287 
L 335.52 166.401862 
L 334.8225 166.868722 
L 334.125 167.34703 
L 333.4275 167.836711 
L 332.73 168.321592 
L 332.0325 168.785578 
L 331.335 169.236789 
L 330.6375 169.659697 
L 329.94 170.031293 
L 329.2425 170.36125 
L 328.545 170.667891 
L 327.8475 170.906297 
L 327.15 171.104284 
L 326.4525 171.242619 
L 325.755 171.311026 
L 325.0575 171.31631 
L 324.36 171.258384 
L 323.6625 171.138219 
L 322.965 170.957833 
L 322.2675 170.720254 
L 321.57 170.437423 
L 320.8725 170.122044 
L 320.175 169.763502 
L 319.4775 169.375769 
L 318.78 168.965354 
L 318.0825 168.531193 
L 317.385 168.088527 
L 316.6875 167.652742 
L 315.99 167.223198 
L 315.2925 166.815061 
L 314.595 166.435181 
L 313.8975 166.105844 
L 313.2 165.808716 
L 312.5025 165.540829 
L 311.805 165.306681 
L 311.1075 165.110202 
L 310.41 164.962645 
L 309.7125 164.87444 
L 309.015 164.839115 
L 308.3175 164.865216 
L 307.62 164.936397 
L 306.9225 165.067371 
L 306.225 165.247986 
L 305.5275 165.499073 
L 304.83 165.816416 
L 304.1325 166.178781 
L 303.435 166.588039 
L 302.7375 167.045273 
L 302.04 167.526901 
L 301.3425 168.032792 
L 300.645 168.554453 
L 299.9475 169.083128 
L 299.25 169.609943 
L 298.5525 170.126053 
L 297.855 170.622796 
L 297.1575 171.107741 
L 296.46 171.564794 
L 295.7625 171.986283 
L 295.065 172.357177 
L 294.3675 172.679206 
L 293.67 172.946963 
L 292.9725 173.155954 
L 292.275 173.310626 
L 291.5775 173.392472 
L 290.88 173.416028 
L 290.1825 173.364989 
L 289.485 173.256122 
L 288.7875 173.083299 
L 288.09 172.849421 
L 287.3925 172.566369 
L 286.695 172.23094 
L 285.9975 171.856718 
L 285.3 171.434077 
L 284.6025 170.993975 
L 283.905 170.535844 
L 283.2075 170.067376 
L 282.51 169.596434 
L 281.8125 169.130923 
L 281.115 168.678658 
L 280.4175 168.247231 
L 279.72 167.851837 
L 279.0225 167.491161 
L 278.325 167.171256 
L 277.6275 166.905447 
L 276.93 166.698196 
L 276.2325 166.545027 
L 275.535 166.456466 
L 274.8375 166.433999 
L 274.14 166.485959 
L 273.4425 166.603518 
L 272.745 166.776749 
L 272.0475 167.018652 
L 271.35 167.309258 
L 270.6525 167.651644 
L 269.955 168.040062 
L 269.2575 168.460037 
L 268.56 168.920428 
L 267.8625 169.413507 
L 267.165 169.938951 
L 266.4675 170.472032 
L 265.77 171.011754 
L 265.0725 171.549059 
L 264.375 172.066972 
L 263.6775 172.572709 
L 262.98 173.04187 
L 262.2825 173.458627 
L 261.585 173.831892 
L 260.8875 174.147444 
L 260.19 174.407942 
L 259.4925 174.609012 
L 258.795 174.74728 
L 258.0975 174.820423 
L 257.4 174.827216 
L 256.7025 174.767542 
L 256.005 174.642405 
L 255.3075 174.461858 
L 254.61 174.213025 
L 253.9125 173.908036 
L 253.215 173.544057 
L 252.5175 173.135152 
L 251.82 172.68023 
L 251.1225 172.186929 
L 250.425 171.671483 
L 249.7275 171.142544 
L 249.03 170.608992 
L 248.3325 170.079783 
L 247.635 169.563801 
L 246.9375 169.069707 
L 246.24 168.589886 
L 245.5425 168.148302 
L 244.845 167.744412 
L 244.1475 167.400906 
L 243.45 167.10764 
L 242.7525 166.877493 
L 242.055 166.706373 
L 241.3575 166.589198 
L 240.66 166.543843 
L 239.9625 166.563117 
L 239.265 166.646694 
L 238.5675 166.785219 
L 237.87 166.976365 
L 237.1725 167.224879 
L 236.475 167.526588 
L 235.7775 167.868474 
L 235.08 168.252752 
L 234.3825 168.672972 
L 233.685 169.122078 
L 232.9875 169.58458 
L 232.29 170.052711 
L 231.5925 170.534524 
L 230.895 171.013975 
L 230.1975 171.475063 
L 229.5 171.918001 
L 228.8025 172.319445 
L 228.105 172.688566 
L 227.4075 173.011212 
L 226.71 173.281969 
L 226.0125 173.504244 
L 225.315 173.666353 
L 224.6175 173.765575 
L 223.92 173.800243 
L 223.2225 173.769776 
L 222.525 173.674685 
L 221.8275 173.516566 
L 221.13 173.298075 
L 220.4325 173.014923 
L 219.735 172.679819 
L 219.0375 172.290433 
L 218.34 171.861256 
L 217.6425 171.399492 
L 216.945 170.912893 
L 216.2475 170.409627 
L 215.55 169.898142 
L 214.8525 169.387024 
L 214.155 168.884853 
L 213.4575 168.408012 
L 212.76 167.956552 
L 212.0625 167.538051 
L 211.365 167.167489 
L 210.6675 166.843132 
L 209.97 166.570424 
L 209.2725 166.353944 
L 208.575 166.197324 
L 207.8775 166.103195 
L 207.18 166.073136 
L 206.4825 166.107652 
L 205.785 166.206163 
L 205.0875 166.367016 
L 204.39 166.587511 
L 203.6925 166.863947 
L 202.995 167.191682 
L 202.2975 167.581125 
L 201.6 168.009829 
L 200.9025 168.470598 
L 200.205 168.955697 
L 199.5075 169.456983 
L 198.81 169.966042 
L 198.1125 170.482282 
L 197.415 170.989083 
L 196.7175 171.477938 
L 196.02 171.940642 
L 195.3225 172.369426 
L 194.625 172.757093 
L 193.9275 173.097135 
L 193.23 173.383845 
L 192.5325 173.61241 
L 191.835 173.778992 
L 191.1375 173.880796 
L 190.44 173.916112 
L 189.7425 173.884349 
L 189.045 173.786038 
L 188.3475 173.62283 
L 187.65 173.397466 
L 186.9525 173.113727 
L 186.255 172.776377 
L 185.5575 172.391079 
L 184.86 171.964301 
L 184.1625 171.503206 
L 183.465 171.015535 
L 182.7675 170.509474 
L 182.07 169.993517 
L 181.3725 169.476327 
L 180.675 168.966584 
L 179.9775 168.472846 
L 179.28 168.0034 
L 178.5825 167.566127 
L 177.885 167.168367 
L 177.1875 166.816797 
L 176.49 166.517318 
L 175.7925 166.274958 
L 175.095 166.093785 
L 174.3975 165.97684 
L 173.7 165.926087 
L 173.0025 165.942377 
L 172.305 166.025437 
L 171.6075 166.173873 
L 170.91 166.385192 
L 170.2125 166.655848 
L 169.515 166.981297 
L 168.8175 167.356077 
L 168.12 167.773895 
L 167.4225 168.219784 
L 166.725 168.694214 
L 166.0275 169.18922 
L 165.33 169.696494 
L 164.6325 170.207519 
L 163.935 170.713718 
L 163.2375 171.206593 
L 162.54 171.677871 
L 161.8425 172.111687 
L 161.145 172.508712 
L 160.4475 172.862281 
L 159.75 173.166461 
L 159.0525 173.416144 
L 158.355 173.60714 
L 157.6575 173.736242 
L 156.96 173.801283 
L 156.2625 173.801171 
L 155.565 173.735909 
L 154.8675 173.606591 
L 154.17 173.415389 
L 153.4725 173.165512 
L 152.775 172.861155 
L 152.0775 172.499472 
L 151.38 172.094489 
L 150.6825 171.645049 
L 149.985 171.166653 
L 149.2875 170.66733 
L 148.59 170.155461 
L 147.8925 169.63964 
L 147.195 169.128526 
L 146.4975 168.630697 
L 145.8 168.154511 
L 145.1025 167.707961 
L 144.405 167.298544 
L 143.7075 166.933131 
L 143.01 166.617857 
L 142.3125 166.358013 
L 141.615 166.157963 
L 140.9175 166.021064 
L 140.22 165.949613 
L 139.5225 165.936857 
L 138.825 165.990963 
L 138.1275 166.111024 
L 137.43 166.302977 
L 136.7325 166.555648 
L 136.035 166.864793 
L 135.3375 167.225225 
L 134.64 167.630892 
L 133.9425 168.082939 
L 133.245 168.565824 
L 132.5475 169.07144 
L 131.85 169.591301 
L 131.1525 170.11668 
L 130.455 170.638756 
L 129.7575 171.148768 
L 129.06 171.638153 
L 128.3625 172.098696 
L 127.665 172.522667 
L 126.9675 172.902949 
L 126.27 173.233158 
L 125.5725 173.507751 
L 124.875 173.722118 
L 124.1775 173.872662 
L 123.48 173.956855 
L 122.7825 173.973284 
L 122.085 173.921673 
L 121.3875 173.802888 
L 120.69 173.618924 
L 119.9925 173.372868 
L 119.295 173.068851 
L 118.5975 172.711976 
L 117.9 172.308234 
L 117.2025 171.864402 
L 116.505 171.387931 
L 115.8075 170.886819 
L 115.11 170.369477 
L 114.4125 169.84459 
L 113.715 169.320969 
L 113.0175 168.807403 
L 112.32 168.312514 
L 111.6225 167.844609 
L 110.925 167.411542 
L 110.2275 167.020583 
L 109.53 166.678295 
L 108.8325 166.390423 
L 108.135 166.1618 
L 107.4375 165.996264 
L 106.74 165.896593 
L 106.0425 165.86446 
L 105.345 165.900405 
L 104.6475 166.003825 
L 103.95 166.172982 
L 103.2525 166.405039 
L 102.555 166.696099 
L 101.8575 167.041277 
L 101.16 167.434778 
L 100.4625 167.869997 
L 99.765 168.339628 
L 99.0675 168.835788 
L 98.37 169.350148 
L 97.6725 169.874073 
L 96.975 170.39877 
L 96.2775 170.915429 
L 95.58 171.415379 
L 94.8825 171.898182 
L 94.185 172.347778 
L 93.4875 172.75662 
L 92.79 173.117846 
L 92.0925 173.425391 
L 91.395 173.674094 
L 90.6975 173.859779 
L 90 173.979329 
z
" style="fill:#e0ffff;"/>
   </g>
   <g id="line2d_15">
    <path clip-path="url(#p985ded914a)" d="M 90 173.979329 
L 91.395 173.674094 
L 92.79 173.117846 
L 94.185 172.347778 
L 96.2775 170.915429 
L 101.16 167.434778 
L 102.555 166.696099 
L 103.95 166.172982 
L 105.345 165.900405 
L 106.74 165.896593 
L 108.135 166.1618 
L 109.53 166.678295 
L 110.925 167.411542 
L 113.0175 168.807403 
L 117.9 172.308234 
L 119.295 173.068851 
L 120.69 173.618924 
L 122.085 173.921673 
L 123.48 173.956855 
L 124.875 173.722118 
L 126.27 173.233158 
L 127.665 172.522667 
L 129.7575 171.148768 
L 134.64 167.630892 
L 136.035 166.864793 
L 137.43 166.302977 
L 138.825 165.990963 
L 140.22 165.949613 
L 141.615 166.157963 
L 143.01 166.617857 
L 144.405 167.298544 
L 146.4975 168.630697 
L 152.0775 172.499472 
L 153.4725 173.165512 
L 154.8675 173.606591 
L 156.2625 173.801171 
L 157.6575 173.736242 
L 159.0525 173.416144 
L 160.4475 172.862281 
L 162.54 171.677871 
L 166.0275 169.18922 
L 168.12 167.773895 
L 169.515 166.981297 
L 170.91 166.385192 
L 172.305 166.025437 
L 173.7 165.926087 
L 175.095 166.093785 
L 176.49 166.517318 
L 177.885 167.168367 
L 179.9775 168.472846 
L 185.5575 172.391079 
L 186.9525 173.113727 
L 188.3475 173.62283 
L 189.7425 173.884349 
L 191.1375 173.880796 
L 192.5325 173.61241 
L 193.9275 173.097135 
L 195.3225 172.369426 
L 197.415 170.989083 
L 201.6 168.009829 
L 202.995 167.191682 
L 204.39 166.587511 
L 205.785 166.206163 
L 207.18 166.073136 
L 208.575 166.197324 
L 209.97 166.570424 
L 211.365 167.167489 
L 212.76 167.956552 
L 214.8525 169.387024 
L 218.34 171.861256 
L 219.735 172.679819 
L 221.13 173.298075 
L 222.525 173.674685 
L 223.92 173.800243 
L 225.315 173.666353 
L 226.71 173.281969 
L 228.105 172.688566 
L 230.1975 171.475063 
L 235.7775 167.868474 
L 237.1725 167.224879 
L 238.5675 166.785219 
L 239.9625 166.563117 
L 241.3575 166.589198 
L 242.7525 166.877493 
L 244.1475 167.400906 
L 245.5425 168.148302 
L 247.635 169.563801 
L 252.5175 173.135152 
L 253.9125 173.908036 
L 255.3075 174.461858 
L 256.7025 174.767542 
L 258.0975 174.820423 
L 259.4925 174.609012 
L 260.8875 174.147444 
L 262.2825 173.458627 
L 263.6775 172.572709 
L 270.6525 167.651644 
L 272.0475 167.018652 
L 273.4425 166.603518 
L 274.8375 166.433999 
L 276.2325 166.545027 
L 277.6275 166.905447 
L 279.0225 167.491161 
L 281.115 168.678658 
L 286.695 172.23094 
L 288.09 172.849421 
L 289.485 173.256122 
L 290.88 173.416028 
L 292.275 173.310626 
L 293.67 172.946963 
L 295.065 172.357177 
L 296.46 171.564794 
L 299.25 169.609943 
L 303.435 166.588039 
L 304.83 165.816416 
L 306.225 165.247986 
L 307.62 164.936397 
L 309.015 164.839115 
L 310.41 164.962645 
L 311.805 165.306681 
L 313.8975 166.105844 
L 315.2925 166.815061 
L 321.57 170.437423 
L 322.965 170.957833 
L 324.36 171.258384 
L 325.755 171.311026 
L 327.15 171.104284 
L 328.545 170.667891 
L 330.6375 169.659697 
L 332.73 168.321592 
L 336.915 165.533509 
L 338.31 164.847494 
L 339.705 164.366088 
L 341.1 164.113526 
L 342.495 164.106562 
L 343.89 164.321932 
L 345.285 164.745369 
L 347.3775 165.71587 
L 350.1675 167.416937 
L 352.9575 169.052428 
L 354.3525 169.72183 
L 355.7475 170.190516 
L 357.1425 170.443056 
L 358.5375 170.478606 
L 359.9325 170.28697 
L 361.3275 169.912376 
L 363.42 169.100078 
L 365.5125 168.040408 
L 369.6975 165.78208 
L 371.79 164.959771 
L 373.185 164.589429 
L 374.58 164.409134 
L 375.975 164.422988 
L 377.37 164.653794 
L 378.765 165.054702 
L 380.8575 165.90682 
L 383.6475 167.402235 
L 388.53 170.074964 
L 390.6225 170.915273 
L 392.0175 171.233477 
L 393.4125 171.353162 
L 394.8075 171.250152 
L 396.2025 170.931334 
L 398.295 170.150228 
L 400.3875 169.14529 
L 405.27 166.669502 
L 407.3625 165.981502 
L 408.7575 165.75895 
L 410.1525 165.751253 
L 411.5475 165.990611 
L 412.9425 166.429467 
L 415.035 167.515194 
L 418.5225 169.906799 
L 421.3125 171.799912 
L 422.7075 172.564142 
L 424.8 173.358889 
L 426.195 173.628844 
L 427.59 173.658766 
L 428.985 173.438701 
L 430.38 172.975408 
L 431.775 172.323594 
L 433.8675 171.077099 
L 437.355 168.886178 
L 439.4475 167.846512 
L 440.8425 167.41518 
L 442.2375 167.230339 
L 443.6325 167.296393 
L 445.0275 167.561602 
L 446.4225 168.087241 
L 448.515 169.217245 
L 451.305 171.062453 
L 454.095 172.903509 
L 455.49 173.641593 
L 456.885 174.209714 
L 458.28 174.491143 
L 459.675 174.530028 
L 461.07 174.252716 
L 462.465 173.709431 
L 463.86 173.023198 
L 465.9525 171.740093 
L 470.1375 169.072089 
L 472.23 168.01604 
L 474.3225 167.323303 
L 475.7175 167.096602 
L 477.1125 167.106411 
L 478.5075 167.383757 
L 479.9025 167.902141 
L 481.2975 168.642678 
L 483.39 170.057451 
L 486.18 172.230827 
L 488.97 174.335387 
L 490.365 175.153386 
L 491.76 175.708692 
L 493.155 175.99586 
L 494.55 175.972226 
L 495.945 175.6631 
L 497.34 175.144297 
L 498.735 174.395093 
L 500.8275 172.966661 
L 505.71 169.130028 
L 507.105 168.218929 
L 508.5 167.52471 
L 509.895 167.054417 
L 511.29 166.855139 
L 512.685 166.924156 
L 514.08 167.177711 
L 515.475 167.662085 
L 516.87 168.368754 
L 518.9625 169.658077 
L 522.45 171.853521 
L 523.845 172.519509 
L 525.24 173.035281 
L 526.635 173.358663 
L 528.03 173.444301 
L 529.425 173.325976 
L 531.5175 172.768122 
L 533.61 171.847619 
L 535.7025 170.607199 
L 541.2825 166.94892 
L 543.375 165.837956 
L 544.77 165.281079 
L 546.165 164.891867 
L 547.56 164.680568 
L 548.955 164.716591 
L 550.35 164.902742 
L 552.4425 165.58065 
L 554.535 166.530196 
L 558.72 168.613991 
L 560.8125 169.398493 
L 562.2075 169.760587 
L 563.6025 169.927595 
L 564.9975 169.84089 
L 566.3925 169.577059 
L 567.7875 169.066911 
L 569.1825 168.37584 
L 571.9725 166.492151 
L 574.065 165.0266 
L 576.1575 163.717672 
L 577.5525 163.084382 
L 578.9475 162.725596 
L 580.3425 162.618247 
L 581.7375 162.793374 
L 583.1325 163.286594 
L 584.5275 164.120342 
L 586.62 165.798275 
L 588.7125 167.714542 
L 591.5025 170.371976 
L 592.8975 171.547873 
L 594.2925 172.488188 
L 595.6875 173.193684 
L 597.0825 173.640784 
L 598.4775 173.791373 
L 599.8725 173.682573 
L 601.2675 173.321927 
L 602.6625 172.765499 
L 605.4525 171.295772 
L 607.545 170.15528 
L 609.6375 169.403586 
L 611.0325 169.15039 
L 612.4275 169.170442 
L 613.8225 169.430849 
L 615.2175 169.914066 
L 617.31 170.974934 
L 620.1 172.759582 
L 623.5875 175.190806 
L 625.68 176.481358 
L 627.075 177.142875 
L 629.1675 177.743116 
L 630.5625 177.850377 
L 631.9575 177.720226 
L 633.3525 177.345725 
L 634.7475 176.743692 
L 636.84 175.402798 
L 642.42 171.471413 
L 644.5125 170.42229 
L 645.9075 169.991589 
L 646.605 169.92 
L 646.605 169.92 
" style="fill:none;stroke:#008080;stroke-linecap:round;stroke-width:1.75;"/>
   </g>
   <g id="patch_3">
    <path d="M 90 270.72 
L 90 69.12 
" style="fill:none;stroke:#262626;stroke-linecap:square;stroke-linejoin:miter;stroke-width:1.25;"/>
   </g>
   <g id="patch_4">
    <path d="M 90 270.72 
L 648 270.72 
" style="fill:none;stroke:#262626;stroke-linecap:square;stroke-linejoin:miter;stroke-width:1.25;"/>
   </g>
  </g>
  <g id="axes_2">
   <g id="patch_5">
    <path d="M 90 512.64 
L 648 512.64 
L 648 311.04 
L 90 311.04 
z
" style="fill:#ffffff;"/>
   </g>
   <g id="matplotlib.axis_3">
    <g id="xtick_10">
     <g id="line2d_16">
      <g>
       <use style="fill:#262626;stroke:#262626;" x="191.454545" xlink:href="#m6fbd1c81cd" y="512.64"/>
      </g>
     </g>
     <g id="text_15">
      <!-- 200 -->
      <g style="fill:#262626;" transform="translate(183.113139 532.797812)scale(0.1 -0.1)">
       <use xlink:href="#ArialMT-32"/>
       <use x="55.615234" xlink:href="#ArialMT-30"/>
       <use x="111.230469" xlink:href="#ArialMT-30"/>
      </g>
     </g>
    </g>
    <g id="xtick_11">
     <g id="line2d_17">
      <g>
       <use style="fill:#262626;stroke:#262626;" x="304.181818" xlink:href="#m6fbd1c81cd" y="512.64"/>
      </g>
     </g>
     <g id="text_16">
      <!-- 400 -->
      <g style="fill:#262626;" transform="translate(295.840412 532.797812)scale(0.1 -0.1)">
       <use xlink:href="#ArialMT-34"/>
       <use x="55.615234" xlink:href="#ArialMT-30"/>
       <use x="111.230469" xlink:href="#ArialMT-30"/>
      </g>
     </g>
    </g>
    <g id="xtick_12">
     <g id="line2d_18">
      <g>
       <use style="fill:#262626;stroke:#262626;" x="416.909091" xlink:href="#m6fbd1c81cd" y="512.64"/>
      </g>
     </g>
     <g id="text_17">
      <!-- 600 -->
      <g style="fill:#262626;" transform="translate(408.567685 532.797812)scale(0.1 -0.1)">
       <use xlink:href="#ArialMT-36"/>
       <use x="55.615234" xlink:href="#ArialMT-30"/>
       <use x="111.230469" xlink:href="#ArialMT-30"/>
      </g>
     </g>
    </g>
    <g id="xtick_13">
     <g id="line2d_19">
      <g>
       <use style="fill:#262626;stroke:#262626;" x="529.636364" xlink:href="#m6fbd1c81cd" y="512.64"/>
      </g>
     </g>
     <g id="text_18">
      <!-- 800 -->
      <g style="fill:#262626;" transform="translate(521.294957 532.797812)scale(0.1 -0.1)">
       <use xlink:href="#ArialMT-38"/>
       <use x="55.615234" xlink:href="#ArialMT-30"/>
       <use x="111.230469" xlink:href="#ArialMT-30"/>
      </g>
     </g>
    </g>
    <g id="xtick_14">
     <g id="line2d_20">
      <g>
       <use style="fill:#262626;stroke:#262626;" x="642.363636" xlink:href="#m6fbd1c81cd" y="512.64"/>
      </g>
     </g>
     <g id="text_19">
      <!-- 1000 -->
      <g style="fill:#262626;" transform="translate(631.241761 532.797812)scale(0.1 -0.1)">
       <use xlink:href="#ArialMT-31"/>
       <use x="55.615234" xlink:href="#ArialMT-30"/>
       <use x="111.230469" xlink:href="#ArialMT-30"/>
       <use x="166.845703" xlink:href="#ArialMT-30"/>
      </g>
     </g>
    </g>
   </g>
   <g id="matplotlib.axis_4">
    <g id="ytick_6">
     <g id="line2d_21">
      <g>
       <use style="fill:#262626;stroke:#262626;" x="90" xlink:href="#me99052bde6" y="512.64"/>
      </g>
     </g>
     <g id="text_20">
      <!-- 0 -->
      <g style="fill:#262626;" transform="translate(71.439063 516.218906)scale(0.1 -0.1)">
       <use xlink:href="#ArialMT-30"/>
      </g>
     </g>
    </g>
    <g id="ytick_7">
     <g id="line2d_22">
      <g>
       <use style="fill:#262626;stroke:#262626;" x="90" xlink:href="#me99052bde6" y="490.24"/>
      </g>
     </g>
     <g id="text_21">
      <!-- 2 -->
      <g style="fill:#262626;" transform="translate(71.439063 493.818906)scale(0.1 -0.1)">
       <use xlink:href="#ArialMT-32"/>
      </g>
     </g>
    </g>
    <g id="ytick_8">
     <g id="line2d_23">
      <g>
       <use style="fill:#262626;stroke:#262626;" x="90" xlink:href="#me99052bde6" y="467.84"/>
      </g>
     </g>
     <g id="text_22">
      <!-- 4 -->
      <g style="fill:#262626;" transform="translate(71.439063 471.418906)scale(0.1 -0.1)">
       <use xlink:href="#ArialMT-34"/>
      </g>
     </g>
    </g>
    <g id="ytick_9">
     <g id="line2d_24">
      <g>
       <use style="fill:#262626;stroke:#262626;" x="90" xlink:href="#me99052bde6" y="445.44"/>
      </g>
     </g>
     <g id="text_23">
      <!-- 6 -->
      <g style="fill:#262626;" transform="translate(71.439063 449.018906)scale(0.1 -0.1)">
       <use xlink:href="#ArialMT-36"/>
      </g>
     </g>
    </g>
    <g id="ytick_10">
     <g id="line2d_25">
      <g>
       <use style="fill:#262626;stroke:#262626;" x="90" xlink:href="#me99052bde6" y="423.04"/>
      </g>
     </g>
     <g id="text_24">
      <!-- 8 -->
      <g style="fill:#262626;" transform="translate(71.439063 426.618906)scale(0.1 -0.1)">
       <use xlink:href="#ArialMT-38"/>
      </g>
     </g>
    </g>
    <g id="ytick_11">
     <g id="line2d_26">
      <g>
       <use style="fill:#262626;stroke:#262626;" x="90" xlink:href="#me99052bde6" y="400.64"/>
      </g>
     </g>
     <g id="text_25">
      <!-- 10 -->
      <g style="fill:#262626;" transform="translate(65.878125 404.218906)scale(0.1 -0.1)">
       <use xlink:href="#ArialMT-31"/>
       <use x="55.615234" xlink:href="#ArialMT-30"/>
      </g>
     </g>
    </g>
    <g id="ytick_12">
     <g id="line2d_27">
      <g>
       <use style="fill:#262626;stroke:#262626;" x="90" xlink:href="#me99052bde6" y="378.24"/>
      </g>
     </g>
     <g id="text_26">
      <!-- 12 -->
      <g style="fill:#262626;" transform="translate(65.878125 381.818906)scale(0.1 -0.1)">
       <use xlink:href="#ArialMT-31"/>
       <use x="55.615234" xlink:href="#ArialMT-32"/>
      </g>
     </g>
    </g>
    <g id="ytick_13">
     <g id="line2d_28">
      <g>
       <use style="fill:#262626;stroke:#262626;" x="90" xlink:href="#me99052bde6" y="355.84"/>
      </g>
     </g>
     <g id="text_27">
      <!-- 14 -->
      <g style="fill:#262626;" transform="translate(65.878125 359.418906)scale(0.1 -0.1)">
       <use xlink:href="#ArialMT-31"/>
       <use x="55.615234" xlink:href="#ArialMT-34"/>
      </g>
     </g>
    </g>
    <g id="ytick_14">
     <g id="line2d_29">
      <g>
       <use style="fill:#262626;stroke:#262626;" x="90" xlink:href="#me99052bde6" y="333.44"/>
      </g>
     </g>
     <g id="text_28">
      <!-- 16 -->
      <g style="fill:#262626;" transform="translate(65.878125 337.018906)scale(0.1 -0.1)">
       <use xlink:href="#ArialMT-31"/>
       <use x="55.615234" xlink:href="#ArialMT-36"/>
      </g>
     </g>
    </g>
    <g id="ytick_15">
     <g id="line2d_30">
      <g>
       <use style="fill:#262626;stroke:#262626;" x="90" xlink:href="#me99052bde6" y="311.04"/>
      </g>
     </g>
     <g id="text_29">
      <!-- 18 -->
      <g style="fill:#262626;" transform="translate(65.878125 314.618906)scale(0.1 -0.1)">
       <use xlink:href="#ArialMT-31"/>
       <use x="55.615234" xlink:href="#ArialMT-38"/>
      </g>
     </g>
    </g>
   </g>
   <g id="line2d_31">
    <path clip-path="url(#p6fb1a96cc3)" d="M 90 477.654723 
L 95.636364 452.736402 
L 101.272727 431.923589 
L 106.909091 427.92302 
L 112.545455 440.45326 
L 118.181818 444.705349 
L 123.818182 448.961059 
L 129.454545 457.370701 
L 135.090909 456.375715 
L 140.727273 434.868159 
L 146.363636 408.816951 
L 152 389.988216 
L 157.636364 371.492183 
L 163.272727 352.310178 
L 168.909091 342.280664 
L 174.545455 348.647566 
L 180.181818 355.802406 
L 185.818182 363.350788 
L 191.454545 378.270766 
L 197.090909 391.147889 
L 202.727273 394.129256 
L 208.363636 396.550705 
L 214 393.395457 
L 219.636364 389.651786 
L 225.272727 392.702199 
L 230.909091 396.085016 
L 236.545455 399.690878 
L 242.181818 407.737617 
L 247.818182 414.331388 
L 253.454545 417.809913 
L 259.090909 422.903097 
L 264.727273 426.347751 
L 270.363636 429.764905 
L 276 436.797845 
L 281.636364 444.59905 
L 287.272727 452.348689 
L 292.909091 461.235722 
L 298.545455 467.982454 
L 304.181818 471.144774 
L 309.818182 472.257688 
L 315.454545 471.707893 
L 321.090909 472.117482 
L 326.727273 473.818281 
L 332.363636 475.619312 
L 338 478.193498 
L 343.636364 480.655986 
L 349.272727 482.144164 
L 354.909091 483.974362 
L 360.545455 485.825198 
L 366.181818 487.914885 
L 371.818182 490.804554 
L 377.454545 493.872728 
L 383.090909 496.544264 
L 388.727273 498.469641 
L 394.363636 499.417825 
L 400 499.768128 
L 405.636364 498.821458 
L 411.272727 497.224183 
L 416.909091 494.909956 
L 422.545455 492.447818 
L 428.181818 490.656474 
L 433.818182 489.398754 
L 439.454545 488.863228 
L 445.090909 489.4762 
L 450.727273 490.947183 
L 456.363636 492.717187 
L 462 494.86505 
L 467.636364 496.940627 
L 473.272727 498.413462 
L 478.909091 499.664059 
L 484.545455 500.693175 
L 490.181818 501.817475 
L 495.818182 503.208137 
L 501.454545 504.425298 
L 507.090909 503.990365 
L 512.727273 502.20513 
L 518.363636 500.243953 
L 524 498.447191 
L 529.636364 496.98678 
L 535.272727 496.1496 
L 540.909091 495.819663 
L 546.545455 495.772558 
L 552.181818 496.217161 
L 557.818182 497.014608 
L 563.454545 497.862877 
L 569.090909 498.837927 
L 574.727273 499.674541 
L 580.363636 500.11803 
L 586 500.445929 
L 591.636364 500.697585 
" style="fill:none;stroke:#b22222;stroke-linecap:round;stroke-width:1.75;"/>
   </g>
   <g id="line2d_32">
    <path clip-path="url(#p6fb1a96cc3)" d="M 152 512.64 
L 152 311.04 
" style="fill:none;stroke:#4c72b0;stroke-linecap:round;stroke-width:1.75;"/>
   </g>
   <g id="patch_6">
    <path d="M 90 512.64 
L 90 311.04 
" style="fill:none;stroke:#262626;stroke-linecap:square;stroke-linejoin:miter;stroke-width:1.25;"/>
   </g>
   <g id="patch_7">
    <path d="M 90 512.64 
L 648 512.64 
" style="fill:none;stroke:#262626;stroke-linecap:square;stroke-linejoin:miter;stroke-width:1.25;"/>
   </g>
   <g id="text_30">
    <!-- f = 910 Hz -->
    <defs>
     <path d="M 8.6875 0 
L 8.6875 45.015625 
L 0.921875 45.015625 
L 0.921875 51.859375 
L 8.6875 51.859375 
L 8.6875 57.375 
Q 8.6875 62.59375 9.625 65.140625 
Q 10.890625 68.5625 14.078125 70.671875 
Q 17.28125 72.796875 23.046875 72.796875 
Q 26.765625 72.796875 31.25 71.921875 
L 29.9375 64.265625 
Q 27.203125 64.75 24.75 64.75 
Q 20.75 64.75 19.09375 63.03125 
Q 17.4375 61.328125 17.4375 56.640625 
L 17.4375 51.859375 
L 27.546875 51.859375 
L 27.546875 45.015625 
L 17.4375 45.015625 
L 17.4375 0 
z
" id="ArialMT-66"/>
     <path id="ArialMT-20"/>
     <path d="M 52.828125 42.09375 
L 5.5625 42.09375 
L 5.5625 50.296875 
L 52.828125 50.296875 
z
M 52.828125 20.359375 
L 5.5625 20.359375 
L 5.5625 28.5625 
L 52.828125 28.5625 
z
" id="ArialMT-3d"/>
     <path d="M 5.46875 16.546875 
L 13.921875 17.328125 
Q 14.984375 11.375 18.015625 8.6875 
Q 21.046875 6 25.78125 6 
Q 29.828125 6 32.875 7.859375 
Q 35.9375 9.71875 37.890625 12.8125 
Q 39.84375 15.921875 41.15625 21.1875 
Q 42.484375 26.46875 42.484375 31.9375 
Q 42.484375 32.515625 42.4375 33.6875 
Q 39.796875 29.5 35.234375 26.875 
Q 30.671875 24.265625 25.34375 24.265625 
Q 16.453125 24.265625 10.296875 30.703125 
Q 4.15625 37.15625 4.15625 47.703125 
Q 4.15625 58.59375 10.578125 65.234375 
Q 17 71.875 26.65625 71.875 
Q 33.640625 71.875 39.421875 68.109375 
Q 45.21875 64.359375 48.21875 57.390625 
Q 51.21875 50.4375 51.21875 37.25 
Q 51.21875 23.53125 48.234375 15.40625 
Q 45.265625 7.28125 39.375 3.03125 
Q 33.5 -1.21875 25.59375 -1.21875 
Q 17.1875 -1.21875 11.859375 3.4375 
Q 6.546875 8.109375 5.46875 16.546875 
z
M 41.453125 48.140625 
Q 41.453125 55.71875 37.421875 60.15625 
Q 33.40625 64.59375 27.734375 64.59375 
Q 21.875 64.59375 17.53125 59.8125 
Q 13.1875 55.03125 13.1875 47.40625 
Q 13.1875 40.578125 17.3125 36.296875 
Q 21.4375 32.03125 27.484375 32.03125 
Q 33.59375 32.03125 37.515625 36.296875 
Q 41.453125 40.578125 41.453125 48.140625 
z
" id="ArialMT-39"/>
     <path d="M 8.015625 0 
L 8.015625 71.578125 
L 17.484375 71.578125 
L 17.484375 42.1875 
L 54.6875 42.1875 
L 54.6875 71.578125 
L 64.15625 71.578125 
L 64.15625 0 
L 54.6875 0 
L 54.6875 33.734375 
L 17.484375 33.734375 
L 17.484375 0 
z
" id="ArialMT-48"/>
     <path d="M 1.953125 0 
L 1.953125 7.125 
L 34.96875 45.015625 
Q 29.34375 44.734375 25.046875 44.734375 
L 3.90625 44.734375 
L 3.90625 51.859375 
L 46.296875 51.859375 
L 46.296875 46.046875 
L 18.21875 13.140625 
L 12.796875 7.125 
Q 18.703125 7.5625 23.875 7.5625 
L 47.859375 7.5625 
L 47.859375 0 
z
" id="ArialMT-7a"/>
    </defs>
    <g style="fill:#262626;" transform="translate(529.636364 403.742188)scale(0.12 -0.12)">
     <use xlink:href="#ArialMT-66"/>
     <use x="27.783203" xlink:href="#ArialMT-20"/>
     <use x="55.566406" xlink:href="#ArialMT-3d"/>
     <use x="113.964844" xlink:href="#ArialMT-20"/>
     <use x="141.748047" xlink:href="#ArialMT-39"/>
     <use x="197.363281" xlink:href="#ArialMT-31"/>
     <use x="252.978516" xlink:href="#ArialMT-30"/>
     <use x="308.59375" xlink:href="#ArialMT-20"/>
     <use x="336.376953" xlink:href="#ArialMT-48"/>
     <use x="408.59375" xlink:href="#ArialMT-7a"/>
    </g>
   </g>
   <g id="PathCollection_1">
    <defs>
     <path d="M 0 3.5 
C 0.928211 3.5 1.81853 3.131218 2.474874 2.474874 
C 3.131218 1.81853 3.5 0.928211 3.5 0 
C 3.5 -0.928211 3.131218 -1.81853 2.474874 -2.474874 
C 1.81853 -3.131218 0.928211 -3.5 0 -3.5 
C -0.928211 -3.5 -1.81853 -3.131218 -2.474874 -2.474874 
C -3.131218 -1.81853 -3.5 -0.928211 -3.5 0 
C -3.5 0.928211 -3.131218 1.81853 -2.474874 2.474874 
C -1.81853 3.131218 -0.928211 3.5 0 3.5 
z
" id="m826f029c0f" style="stroke:#800000;stroke-width:0.3;"/>
    </defs>
    <g clip-path="url(#p6fb1a96cc3)">
     <use style="fill:#800000;stroke:#800000;stroke-width:0.3;" x="591.636364" xlink:href="#m826f029c0f" y="500.697585"/>
    </g>
   </g>
  </g>
 </g>
 <defs>
  <clipPath id="p985ded914a">
   <rect height="201.6" width="558" x="90" y="69.12"/>
  </clipPath>
  <clipPath id="p6fb1a96cc3">
   <rect height="201.6" width="558" x="90" y="311.04"/>
  </clipPath>
 </defs>
</svg>
