<?xml version="1.0" encoding="utf-8" standalone="no"?>
<!DOCTYPE svg PUBLIC "-//W3C//DTD SVG 1.1//EN"
  "http://www.w3.org/Graphics/SVG/1.1/DTD/svg11.dtd">
<!-- Created with matplotlib (http://matplotlib.org/) -->
<svg height="576pt" version="1.1" viewBox="0 0 720 576" width="720pt" xmlns="http://www.w3.org/2000/svg" xmlns:xlink="http://www.w3.org/1999/xlink">
 <defs>
  <style type="text/css">
*{stroke-linecap:butt;stroke-linejoin:round;}
  </style>
 </defs>
 <g id="figure_1">
  <g id="patch_1">
   <path d="M 0 576 
L 720 576 
L 720 0 
L 0 0 
z
" style="fill:#ffffff;"/>
  </g>
  <g id="axes_1">
   <g id="patch_2">
    <path d="M 90 270.72 
L 648 270.72 
L 648 69.12 
L 90 69.12 
z
" style="fill:#ffffff;"/>
   </g>
   <g id="matplotlib.axis_1">
    <g id="xtick_1">
     <g id="line2d_1">
      <defs>
       <path d="M 0 0 
L 0 6 
" id="m131050d7d0" style="stroke:#262626;"/>
      </defs>
      <g>
       <use style="fill:#262626;stroke:#262626;" x="90" xlink:href="#m131050d7d0" y="270.72"/>
      </g>
     </g>
     <g id="text_1">
      <!-- 0 -->
      <defs>
       <path d="M 4.15625 35.296875 
Q 4.15625 48 6.765625 55.734375 
Q 9.375 63.484375 14.515625 67.671875 
Q 19.671875 71.875 27.484375 71.875 
Q 33.25 71.875 37.59375 69.546875 
Q 41.9375 67.234375 44.765625 62.859375 
Q 47.609375 58.5 49.21875 52.21875 
Q 50.828125 45.953125 50.828125 35.296875 
Q 50.828125 22.703125 48.234375 14.96875 
Q 45.65625 7.234375 40.5 3 
Q 35.359375 -1.21875 27.484375 -1.21875 
Q 17.140625 -1.21875 11.234375 6.203125 
Q 4.15625 15.140625 4.15625 35.296875 
z
M 13.1875 35.296875 
Q 13.1875 17.671875 17.3125 11.828125 
Q 21.4375 6 27.484375 6 
Q 33.546875 6 37.671875 11.859375 
Q 41.796875 17.71875 41.796875 35.296875 
Q 41.796875 52.984375 37.671875 58.78125 
Q 33.546875 64.59375 27.390625 64.59375 
Q 21.34375 64.59375 17.71875 59.46875 
Q 13.1875 52.9375 13.1875 35.296875 
z
" id="ArialMT-30"/>
      </defs>
      <g style="fill:#262626;" transform="translate(87.219531 290.877812)scale(0.1 -0.1)">
       <use xlink:href="#ArialMT-30"/>
      </g>
     </g>
    </g>
    <g id="xtick_2">
     <g id="line2d_2">
      <g>
       <use style="fill:#262626;stroke:#262626;" x="159.75" xlink:href="#m131050d7d0" y="270.72"/>
      </g>
     </g>
     <g id="text_2">
      <!-- 100 -->
      <defs>
       <path d="M 37.25 0 
L 28.46875 0 
L 28.46875 56 
Q 25.296875 52.984375 20.140625 49.953125 
Q 14.984375 46.921875 10.890625 45.40625 
L 10.890625 53.90625 
Q 18.265625 57.375 23.78125 62.296875 
Q 29.296875 67.234375 31.59375 71.875 
L 37.25 71.875 
z
" id="ArialMT-31"/>
      </defs>
      <g style="fill:#262626;" transform="translate(151.408594 290.877812)scale(0.1 -0.1)">
       <use xlink:href="#ArialMT-31"/>
       <use x="55.615234" xlink:href="#ArialMT-30"/>
       <use x="111.230469" xlink:href="#ArialMT-30"/>
      </g>
     </g>
    </g>
    <g id="xtick_3">
     <g id="line2d_3">
      <g>
       <use style="fill:#262626;stroke:#262626;" x="229.5" xlink:href="#m131050d7d0" y="270.72"/>
      </g>
     </g>
     <g id="text_3">
      <!-- 200 -->
      <defs>
       <path d="M 50.34375 8.453125 
L 50.34375 0 
L 3.03125 0 
Q 2.9375 3.171875 4.046875 6.109375 
Q 5.859375 10.9375 9.828125 15.625 
Q 13.8125 20.3125 21.34375 26.46875 
Q 33.015625 36.03125 37.109375 41.625 
Q 41.21875 47.21875 41.21875 52.203125 
Q 41.21875 57.421875 37.46875 61 
Q 33.734375 64.59375 27.734375 64.59375 
Q 21.390625 64.59375 17.578125 60.78125 
Q 13.765625 56.984375 13.71875 50.25 
L 4.6875 51.171875 
Q 5.609375 61.28125 11.65625 66.578125 
Q 17.71875 71.875 27.9375 71.875 
Q 38.234375 71.875 44.234375 66.15625 
Q 50.25 60.453125 50.25 52 
Q 50.25 47.703125 48.484375 43.546875 
Q 46.734375 39.40625 42.65625 34.8125 
Q 38.578125 30.21875 29.109375 22.21875 
Q 21.1875 15.578125 18.9375 13.203125 
Q 16.703125 10.84375 15.234375 8.453125 
z
" id="ArialMT-32"/>
      </defs>
      <g style="fill:#262626;" transform="translate(221.158594 290.877812)scale(0.1 -0.1)">
       <use xlink:href="#ArialMT-32"/>
       <use x="55.615234" xlink:href="#ArialMT-30"/>
       <use x="111.230469" xlink:href="#ArialMT-30"/>
      </g>
     </g>
    </g>
    <g id="xtick_4">
     <g id="line2d_4">
      <g>
       <use style="fill:#262626;stroke:#262626;" x="299.25" xlink:href="#m131050d7d0" y="270.72"/>
      </g>
     </g>
     <g id="text_4">
      <!-- 300 -->
      <defs>
       <path d="M 4.203125 18.890625 
L 12.984375 20.0625 
Q 14.5 12.59375 18.140625 9.296875 
Q 21.78125 6 27 6 
Q 33.203125 6 37.46875 10.296875 
Q 41.75 14.59375 41.75 20.953125 
Q 41.75 27 37.796875 30.921875 
Q 33.84375 34.859375 27.734375 34.859375 
Q 25.25 34.859375 21.53125 33.890625 
L 22.515625 41.609375 
Q 23.390625 41.5 23.921875 41.5 
Q 29.546875 41.5 34.03125 44.421875 
Q 38.53125 47.359375 38.53125 53.46875 
Q 38.53125 58.296875 35.25 61.46875 
Q 31.984375 64.65625 26.8125 64.65625 
Q 21.6875 64.65625 18.265625 61.421875 
Q 14.84375 58.203125 13.875 51.765625 
L 5.078125 53.328125 
Q 6.6875 62.15625 12.390625 67.015625 
Q 18.109375 71.875 26.609375 71.875 
Q 32.46875 71.875 37.390625 69.359375 
Q 42.328125 66.84375 44.9375 62.5 
Q 47.5625 58.15625 47.5625 53.265625 
Q 47.5625 48.640625 45.0625 44.828125 
Q 42.578125 41.015625 37.703125 38.765625 
Q 44.046875 37.3125 47.5625 32.6875 
Q 51.078125 28.078125 51.078125 21.140625 
Q 51.078125 11.765625 44.234375 5.25 
Q 37.40625 -1.265625 26.953125 -1.265625 
Q 17.53125 -1.265625 11.296875 4.34375 
Q 5.078125 9.96875 4.203125 18.890625 
z
" id="ArialMT-33"/>
      </defs>
      <g style="fill:#262626;" transform="translate(290.908594 290.877812)scale(0.1 -0.1)">
       <use xlink:href="#ArialMT-33"/>
       <use x="55.615234" xlink:href="#ArialMT-30"/>
       <use x="111.230469" xlink:href="#ArialMT-30"/>
      </g>
     </g>
    </g>
    <g id="xtick_5">
     <g id="line2d_5">
      <g>
       <use style="fill:#262626;stroke:#262626;" x="369" xlink:href="#m131050d7d0" y="270.72"/>
      </g>
     </g>
     <g id="text_5">
      <!-- 400 -->
      <defs>
       <path d="M 32.328125 0 
L 32.328125 17.140625 
L 1.265625 17.140625 
L 1.265625 25.203125 
L 33.9375 71.578125 
L 41.109375 71.578125 
L 41.109375 25.203125 
L 50.78125 25.203125 
L 50.78125 17.140625 
L 41.109375 17.140625 
L 41.109375 0 
z
M 32.328125 25.203125 
L 32.328125 57.46875 
L 9.90625 25.203125 
z
" id="ArialMT-34"/>
      </defs>
      <g style="fill:#262626;" transform="translate(360.658594 290.877812)scale(0.1 -0.1)">
       <use xlink:href="#ArialMT-34"/>
       <use x="55.615234" xlink:href="#ArialMT-30"/>
       <use x="111.230469" xlink:href="#ArialMT-30"/>
      </g>
     </g>
    </g>
    <g id="xtick_6">
     <g id="line2d_6">
      <g>
       <use style="fill:#262626;stroke:#262626;" x="438.75" xlink:href="#m131050d7d0" y="270.72"/>
      </g>
     </g>
     <g id="text_6">
      <!-- 500 -->
      <defs>
       <path d="M 4.15625 18.75 
L 13.375 19.53125 
Q 14.40625 12.796875 18.140625 9.390625 
Q 21.875 6 27.15625 6 
Q 33.5 6 37.890625 10.78125 
Q 42.28125 15.578125 42.28125 23.484375 
Q 42.28125 31 38.0625 35.34375 
Q 33.84375 39.703125 27 39.703125 
Q 22.75 39.703125 19.328125 37.765625 
Q 15.921875 35.84375 13.96875 32.765625 
L 5.71875 33.84375 
L 12.640625 70.609375 
L 48.25 70.609375 
L 48.25 62.203125 
L 19.671875 62.203125 
L 15.828125 42.96875 
Q 22.265625 47.46875 29.34375 47.46875 
Q 38.71875 47.46875 45.15625 40.96875 
Q 51.609375 34.46875 51.609375 24.265625 
Q 51.609375 14.546875 45.953125 7.46875 
Q 39.0625 -1.21875 27.15625 -1.21875 
Q 17.390625 -1.21875 11.203125 4.25 
Q 5.03125 9.71875 4.15625 18.75 
z
" id="ArialMT-35"/>
      </defs>
      <g style="fill:#262626;" transform="translate(430.408594 290.877812)scale(0.1 -0.1)">
       <use xlink:href="#ArialMT-35"/>
       <use x="55.615234" xlink:href="#ArialMT-30"/>
       <use x="111.230469" xlink:href="#ArialMT-30"/>
      </g>
     </g>
    </g>
    <g id="xtick_7">
     <g id="line2d_7">
      <g>
       <use style="fill:#262626;stroke:#262626;" x="508.5" xlink:href="#m131050d7d0" y="270.72"/>
      </g>
     </g>
     <g id="text_7">
      <!-- 600 -->
      <defs>
       <path d="M 49.75 54.046875 
L 41.015625 53.375 
Q 39.84375 58.546875 37.703125 60.890625 
Q 34.125 64.65625 28.90625 64.65625 
Q 24.703125 64.65625 21.53125 62.3125 
Q 17.390625 59.28125 14.984375 53.46875 
Q 12.59375 47.65625 12.5 36.921875 
Q 15.671875 41.75 20.265625 44.09375 
Q 24.859375 46.4375 29.890625 46.4375 
Q 38.671875 46.4375 44.84375 39.96875 
Q 51.03125 33.5 51.03125 23.25 
Q 51.03125 16.5 48.125 10.71875 
Q 45.21875 4.9375 40.140625 1.859375 
Q 35.0625 -1.21875 28.609375 -1.21875 
Q 17.625 -1.21875 10.6875 6.859375 
Q 3.765625 14.9375 3.765625 33.5 
Q 3.765625 54.25 11.421875 63.671875 
Q 18.109375 71.875 29.4375 71.875 
Q 37.890625 71.875 43.28125 67.140625 
Q 48.6875 62.40625 49.75 54.046875 
z
M 13.875 23.1875 
Q 13.875 18.65625 15.796875 14.5 
Q 17.71875 10.359375 21.1875 8.171875 
Q 24.65625 6 28.46875 6 
Q 34.03125 6 38.03125 10.484375 
Q 42.046875 14.984375 42.046875 22.703125 
Q 42.046875 30.125 38.078125 34.390625 
Q 34.125 38.671875 28.125 38.671875 
Q 22.171875 38.671875 18.015625 34.390625 
Q 13.875 30.125 13.875 23.1875 
z
" id="ArialMT-36"/>
      </defs>
      <g style="fill:#262626;" transform="translate(500.158594 290.877812)scale(0.1 -0.1)">
       <use xlink:href="#ArialMT-36"/>
       <use x="55.615234" xlink:href="#ArialMT-30"/>
       <use x="111.230469" xlink:href="#ArialMT-30"/>
      </g>
     </g>
    </g>
    <g id="xtick_8">
     <g id="line2d_8">
      <g>
       <use style="fill:#262626;stroke:#262626;" x="578.25" xlink:href="#m131050d7d0" y="270.72"/>
      </g>
     </g>
     <g id="text_8">
      <!-- 700 -->
      <defs>
       <path d="M 4.734375 62.203125 
L 4.734375 70.65625 
L 51.078125 70.65625 
L 51.078125 63.8125 
Q 44.234375 56.546875 37.515625 44.484375 
Q 30.8125 32.421875 27.15625 19.671875 
Q 24.515625 10.6875 23.78125 0 
L 14.75 0 
Q 14.890625 8.453125 18.0625 20.40625 
Q 21.234375 32.375 27.171875 43.484375 
Q 33.109375 54.59375 39.796875 62.203125 
z
" id="ArialMT-37"/>
      </defs>
      <g style="fill:#262626;" transform="translate(569.908594 290.877812)scale(0.1 -0.1)">
       <use xlink:href="#ArialMT-37"/>
       <use x="55.615234" xlink:href="#ArialMT-30"/>
       <use x="111.230469" xlink:href="#ArialMT-30"/>
      </g>
     </g>
    </g>
    <g id="xtick_9">
     <g id="line2d_9">
      <g>
       <use style="fill:#262626;stroke:#262626;" x="648" xlink:href="#m131050d7d0" y="270.72"/>
      </g>
     </g>
     <g id="text_9">
      <!-- 800 -->
      <defs>
       <path d="M 17.671875 38.8125 
Q 12.203125 40.828125 9.5625 44.53125 
Q 6.9375 48.25 6.9375 53.421875 
Q 6.9375 61.234375 12.546875 66.546875 
Q 18.171875 71.875 27.484375 71.875 
Q 36.859375 71.875 42.578125 66.421875 
Q 48.296875 60.984375 48.296875 53.171875 
Q 48.296875 48.1875 45.671875 44.5 
Q 43.0625 40.828125 37.75 38.8125 
Q 44.34375 36.671875 47.78125 31.875 
Q 51.21875 27.09375 51.21875 20.453125 
Q 51.21875 11.28125 44.71875 5.03125 
Q 38.234375 -1.21875 27.640625 -1.21875 
Q 17.046875 -1.21875 10.546875 5.046875 
Q 4.046875 11.328125 4.046875 20.703125 
Q 4.046875 27.6875 7.59375 32.390625 
Q 11.140625 37.109375 17.671875 38.8125 
z
M 15.921875 53.71875 
Q 15.921875 48.640625 19.1875 45.40625 
Q 22.46875 42.1875 27.6875 42.1875 
Q 32.765625 42.1875 36.015625 45.375 
Q 39.265625 48.578125 39.265625 53.21875 
Q 39.265625 58.0625 35.90625 61.359375 
Q 32.5625 64.65625 27.59375 64.65625 
Q 22.5625 64.65625 19.234375 61.421875 
Q 15.921875 58.203125 15.921875 53.71875 
z
M 13.09375 20.65625 
Q 13.09375 16.890625 14.875 13.375 
Q 16.65625 9.859375 20.171875 7.921875 
Q 23.6875 6 27.734375 6 
Q 34.03125 6 38.125 10.046875 
Q 42.234375 14.109375 42.234375 20.359375 
Q 42.234375 26.703125 38.015625 30.859375 
Q 33.796875 35.015625 27.4375 35.015625 
Q 21.234375 35.015625 17.15625 30.90625 
Q 13.09375 26.8125 13.09375 20.65625 
z
" id="ArialMT-38"/>
      </defs>
      <g style="fill:#262626;" transform="translate(639.658594 290.877812)scale(0.1 -0.1)">
       <use xlink:href="#ArialMT-38"/>
       <use x="55.615234" xlink:href="#ArialMT-30"/>
       <use x="111.230469" xlink:href="#ArialMT-30"/>
      </g>
     </g>
    </g>
   </g>
   <g id="matplotlib.axis_2">
    <g id="ytick_1">
     <g id="line2d_10">
      <defs>
       <path d="M 0 0 
L -6 0 
" id="m5a83db7278" style="stroke:#262626;"/>
      </defs>
      <g>
       <use style="fill:#262626;stroke:#262626;" x="90" xlink:href="#m5a83db7278" y="250.56"/>
      </g>
     </g>
     <g id="text_10">
      <!-- −0.04 -->
      <defs>
       <path d="M 52.828125 31.203125 
L 5.5625 31.203125 
L 5.5625 39.40625 
L 52.828125 39.40625 
z
" id="ArialMT-2212"/>
       <path d="M 9.078125 0 
L 9.078125 10.015625 
L 19.09375 10.015625 
L 19.09375 0 
z
" id="ArialMT-2e"/>
      </defs>
      <g style="fill:#262626;" transform="translate(51.698437 254.138906)scale(0.1 -0.1)">
       <use xlink:href="#ArialMT-2212"/>
       <use x="58.398438" xlink:href="#ArialMT-30"/>
       <use x="114.013672" xlink:href="#ArialMT-2e"/>
       <use x="141.796875" xlink:href="#ArialMT-30"/>
       <use x="197.412109" xlink:href="#ArialMT-34"/>
      </g>
     </g>
    </g>
    <g id="ytick_2">
     <g id="line2d_11">
      <g>
       <use style="fill:#262626;stroke:#262626;" x="90" xlink:href="#m5a83db7278" y="210.24"/>
      </g>
     </g>
     <g id="text_11">
      <!-- −0.02 -->
      <g style="fill:#262626;" transform="translate(51.698437 213.818906)scale(0.1 -0.1)">
       <use xlink:href="#ArialMT-2212"/>
       <use x="58.398438" xlink:href="#ArialMT-30"/>
       <use x="114.013672" xlink:href="#ArialMT-2e"/>
       <use x="141.796875" xlink:href="#ArialMT-30"/>
       <use x="197.412109" xlink:href="#ArialMT-32"/>
      </g>
     </g>
    </g>
    <g id="ytick_3">
     <g id="line2d_12">
      <g>
       <use style="fill:#262626;stroke:#262626;" x="90" xlink:href="#m5a83db7278" y="169.92"/>
      </g>
     </g>
     <g id="text_12">
      <!-- 0.00 -->
      <g style="fill:#262626;" transform="translate(57.539062 173.498906)scale(0.1 -0.1)">
       <use xlink:href="#ArialMT-30"/>
       <use x="55.615234" xlink:href="#ArialMT-2e"/>
       <use x="83.398438" xlink:href="#ArialMT-30"/>
       <use x="139.013672" xlink:href="#ArialMT-30"/>
      </g>
     </g>
    </g>
    <g id="ytick_4">
     <g id="line2d_13">
      <g>
       <use style="fill:#262626;stroke:#262626;" x="90" xlink:href="#m5a83db7278" y="129.6"/>
      </g>
     </g>
     <g id="text_13">
      <!-- 0.02 -->
      <g style="fill:#262626;" transform="translate(57.539062 133.178906)scale(0.1 -0.1)">
       <use xlink:href="#ArialMT-30"/>
       <use x="55.615234" xlink:href="#ArialMT-2e"/>
       <use x="83.398438" xlink:href="#ArialMT-30"/>
       <use x="139.013672" xlink:href="#ArialMT-32"/>
      </g>
     </g>
    </g>
    <g id="ytick_5">
     <g id="line2d_14">
      <g>
       <use style="fill:#262626;stroke:#262626;" x="90" xlink:href="#m5a83db7278" y="89.28"/>
      </g>
     </g>
     <g id="text_14">
      <!-- 0.04 -->
      <g style="fill:#262626;" transform="translate(57.539062 92.858906)scale(0.1 -0.1)">
       <use xlink:href="#ArialMT-30"/>
       <use x="55.615234" xlink:href="#ArialMT-2e"/>
       <use x="83.398438" xlink:href="#ArialMT-30"/>
       <use x="139.013672" xlink:href="#ArialMT-34"/>
      </g>
     </g>
    </g>
   </g>
   <g id="PolyCollection_1">
    <path clip-path="url(#pf595b99e1b)" d="M 90 161.037334 
L 90 169.92 
L 90.6975 169.92 
L 91.395 169.92 
L 92.0925 169.92 
L 92.79 169.92 
L 93.4875 169.92 
L 94.185 169.92 
L 94.8825 169.92 
L 95.58 169.92 
L 96.2775 169.92 
L 96.975 169.92 
L 97.6725 169.92 
L 98.37 169.92 
L 99.0675 169.92 
L 99.765 169.92 
L 100.4625 169.92 
L 101.16 169.92 
L 101.8575 169.92 
L 102.555 169.92 
L 103.2525 169.92 
L 103.95 169.92 
L 104.6475 169.92 
L 105.345 169.92 
L 106.0425 169.92 
L 106.74 169.92 
L 107.4375 169.92 
L 108.135 169.92 
L 108.8325 169.92 
L 109.53 169.92 
L 110.2275 169.92 
L 110.925 169.92 
L 111.6225 169.92 
L 112.32 169.92 
L 113.0175 169.92 
L 113.715 169.92 
L 114.4125 169.92 
L 115.11 169.92 
L 115.8075 169.92 
L 116.505 169.92 
L 117.2025 169.92 
L 117.9 169.92 
L 118.5975 169.92 
L 119.295 169.92 
L 119.9925 169.92 
L 120.69 169.92 
L 121.3875 169.92 
L 122.085 169.92 
L 122.7825 169.92 
L 123.48 169.92 
L 124.1775 169.92 
L 124.875 169.92 
L 125.5725 169.92 
L 126.27 169.92 
L 126.9675 169.92 
L 127.665 169.92 
L 128.3625 169.92 
L 129.06 169.92 
L 129.7575 169.92 
L 130.455 169.92 
L 131.1525 169.92 
L 131.85 169.92 
L 132.5475 169.92 
L 133.245 169.92 
L 133.9425 169.92 
L 134.64 169.92 
L 135.3375 169.92 
L 136.035 169.92 
L 136.7325 169.92 
L 137.43 169.92 
L 138.1275 169.92 
L 138.825 169.92 
L 139.5225 169.92 
L 140.22 169.92 
L 140.9175 169.92 
L 141.615 169.92 
L 142.3125 169.92 
L 143.01 169.92 
L 143.7075 169.92 
L 144.405 169.92 
L 145.1025 169.92 
L 145.8 169.92 
L 146.4975 169.92 
L 147.195 169.92 
L 147.8925 169.92 
L 148.59 169.92 
L 149.2875 169.92 
L 149.985 169.92 
L 150.6825 169.92 
L 151.38 169.92 
L 152.0775 169.92 
L 152.775 169.92 
L 153.4725 169.92 
L 154.17 169.92 
L 154.8675 169.92 
L 155.565 169.92 
L 156.2625 169.92 
L 156.96 169.92 
L 157.6575 169.92 
L 158.355 169.92 
L 159.0525 169.92 
L 159.75 169.92 
L 160.4475 169.92 
L 161.145 169.92 
L 161.8425 169.92 
L 162.54 169.92 
L 163.2375 169.92 
L 163.935 169.92 
L 164.6325 169.92 
L 165.33 169.92 
L 166.0275 169.92 
L 166.725 169.92 
L 167.4225 169.92 
L 168.12 169.92 
L 168.8175 169.92 
L 169.515 169.92 
L 170.2125 169.92 
L 170.91 169.92 
L 171.6075 169.92 
L 172.305 169.92 
L 173.0025 169.92 
L 173.7 169.92 
L 174.3975 169.92 
L 175.095 169.92 
L 175.7925 169.92 
L 176.49 169.92 
L 177.1875 169.92 
L 177.885 169.92 
L 178.5825 169.92 
L 179.28 169.92 
L 179.9775 169.92 
L 180.675 169.92 
L 181.3725 169.92 
L 182.07 169.92 
L 182.7675 169.92 
L 183.465 169.92 
L 184.1625 169.92 
L 184.86 169.92 
L 185.5575 169.92 
L 186.255 169.92 
L 186.9525 169.92 
L 187.65 169.92 
L 188.3475 169.92 
L 189.045 169.92 
L 189.7425 169.92 
L 190.44 169.92 
L 191.1375 169.92 
L 191.835 169.92 
L 192.5325 169.92 
L 193.23 169.92 
L 193.9275 169.92 
L 194.625 169.92 
L 195.3225 169.92 
L 196.02 169.92 
L 196.7175 169.92 
L 197.415 169.92 
L 198.1125 169.92 
L 198.81 169.92 
L 199.5075 169.92 
L 200.205 169.92 
L 200.9025 169.92 
L 201.6 169.92 
L 202.2975 169.92 
L 202.995 169.92 
L 203.6925 169.92 
L 204.39 169.92 
L 205.0875 169.92 
L 205.785 169.92 
L 206.4825 169.92 
L 207.18 169.92 
L 207.8775 169.92 
L 208.575 169.92 
L 209.2725 169.92 
L 209.97 169.92 
L 210.6675 169.92 
L 211.365 169.92 
L 212.0625 169.92 
L 212.76 169.92 
L 213.4575 169.92 
L 214.155 169.92 
L 214.8525 169.92 
L 215.55 169.92 
L 216.2475 169.92 
L 216.945 169.92 
L 217.6425 169.92 
L 218.34 169.92 
L 219.0375 169.92 
L 219.735 169.92 
L 220.4325 169.92 
L 221.13 169.92 
L 221.8275 169.92 
L 222.525 169.92 
L 223.2225 169.92 
L 223.92 169.92 
L 224.6175 169.92 
L 225.315 169.92 
L 226.0125 169.92 
L 226.71 169.92 
L 227.4075 169.92 
L 228.105 169.92 
L 228.8025 169.92 
L 229.5 169.92 
L 230.1975 169.92 
L 230.895 169.92 
L 231.5925 169.92 
L 232.29 169.92 
L 232.9875 169.92 
L 233.685 169.92 
L 234.3825 169.92 
L 235.08 169.92 
L 235.7775 169.92 
L 236.475 169.92 
L 237.1725 169.92 
L 237.87 169.92 
L 238.5675 169.92 
L 239.265 169.92 
L 239.9625 169.92 
L 240.66 169.92 
L 241.3575 169.92 
L 242.055 169.92 
L 242.7525 169.92 
L 243.45 169.92 
L 244.1475 169.92 
L 244.845 169.92 
L 245.5425 169.92 
L 246.24 169.92 
L 246.9375 169.92 
L 247.635 169.92 
L 248.3325 169.92 
L 249.03 169.92 
L 249.7275 169.92 
L 250.425 169.92 
L 251.1225 169.92 
L 251.82 169.92 
L 252.5175 169.92 
L 253.215 169.92 
L 253.9125 169.92 
L 254.61 169.92 
L 255.3075 169.92 
L 256.005 169.92 
L 256.7025 169.92 
L 257.4 169.92 
L 258.0975 169.92 
L 258.795 169.92 
L 259.4925 169.92 
L 260.19 169.92 
L 260.8875 169.92 
L 261.585 169.92 
L 262.2825 169.92 
L 262.98 169.92 
L 263.6775 169.92 
L 264.375 169.92 
L 265.0725 169.92 
L 265.77 169.92 
L 266.4675 169.92 
L 267.165 169.92 
L 267.8625 169.92 
L 268.56 169.92 
L 269.2575 169.92 
L 269.955 169.92 
L 270.6525 169.92 
L 271.35 169.92 
L 272.0475 169.92 
L 272.745 169.92 
L 273.4425 169.92 
L 274.14 169.92 
L 274.8375 169.92 
L 275.535 169.92 
L 276.2325 169.92 
L 276.93 169.92 
L 277.6275 169.92 
L 278.325 169.92 
L 279.0225 169.92 
L 279.72 169.92 
L 280.4175 169.92 
L 281.115 169.92 
L 281.8125 169.92 
L 282.51 169.92 
L 283.2075 169.92 
L 283.905 169.92 
L 284.6025 169.92 
L 285.3 169.92 
L 285.9975 169.92 
L 286.695 169.92 
L 287.3925 169.92 
L 288.09 169.92 
L 288.7875 169.92 
L 289.485 169.92 
L 290.1825 169.92 
L 290.88 169.92 
L 291.5775 169.92 
L 292.275 169.92 
L 292.9725 169.92 
L 293.67 169.92 
L 294.3675 169.92 
L 295.065 169.92 
L 295.7625 169.92 
L 296.46 169.92 
L 297.1575 169.92 
L 297.855 169.92 
L 298.5525 169.92 
L 299.25 169.92 
L 299.9475 169.92 
L 300.645 169.92 
L 301.3425 169.92 
L 302.04 169.92 
L 302.7375 169.92 
L 303.435 169.92 
L 304.1325 169.92 
L 304.83 169.92 
L 305.5275 169.92 
L 306.225 169.92 
L 306.9225 169.92 
L 307.62 169.92 
L 308.3175 169.92 
L 309.015 169.92 
L 309.7125 169.92 
L 310.41 169.92 
L 311.1075 169.92 
L 311.805 169.92 
L 312.5025 169.92 
L 313.2 169.92 
L 313.8975 169.92 
L 314.595 169.92 
L 315.2925 169.92 
L 315.99 169.92 
L 316.6875 169.92 
L 317.385 169.92 
L 318.0825 169.92 
L 318.78 169.92 
L 319.4775 169.92 
L 320.175 169.92 
L 320.8725 169.92 
L 321.57 169.92 
L 322.2675 169.92 
L 322.965 169.92 
L 323.6625 169.92 
L 324.36 169.92 
L 325.0575 169.92 
L 325.755 169.92 
L 326.4525 169.92 
L 327.15 169.92 
L 327.8475 169.92 
L 328.545 169.92 
L 329.2425 169.92 
L 329.94 169.92 
L 330.6375 169.92 
L 331.335 169.92 
L 332.0325 169.92 
L 332.73 169.92 
L 333.4275 169.92 
L 334.125 169.92 
L 334.8225 169.92 
L 335.52 169.92 
L 336.2175 169.92 
L 336.915 169.92 
L 337.6125 169.92 
L 338.31 169.92 
L 339.0075 169.92 
L 339.705 169.92 
L 340.4025 169.92 
L 341.1 169.92 
L 341.7975 169.92 
L 342.495 169.92 
L 343.1925 169.92 
L 343.89 169.92 
L 344.5875 169.92 
L 345.285 169.92 
L 345.9825 169.92 
L 346.68 169.92 
L 347.3775 169.92 
L 348.075 169.92 
L 348.7725 169.92 
L 349.47 169.92 
L 350.1675 169.92 
L 350.865 169.92 
L 351.5625 169.92 
L 352.26 169.92 
L 352.9575 169.92 
L 353.655 169.92 
L 354.3525 169.92 
L 355.05 169.92 
L 355.7475 169.92 
L 356.445 169.92 
L 357.1425 169.92 
L 357.84 169.92 
L 358.5375 169.92 
L 359.235 169.92 
L 359.9325 169.92 
L 360.63 169.92 
L 361.3275 169.92 
L 362.025 169.92 
L 362.7225 169.92 
L 363.42 169.92 
L 364.1175 169.92 
L 364.815 169.92 
L 365.5125 169.92 
L 366.21 169.92 
L 366.9075 169.92 
L 367.605 169.92 
L 368.3025 169.92 
L 369 169.92 
L 369.6975 169.92 
L 370.395 169.92 
L 371.0925 169.92 
L 371.79 169.92 
L 372.4875 169.92 
L 373.185 169.92 
L 373.8825 169.92 
L 374.58 169.92 
L 375.2775 169.92 
L 375.975 169.92 
L 376.6725 169.92 
L 377.37 169.92 
L 378.0675 169.92 
L 378.765 169.92 
L 379.4625 169.92 
L 380.16 169.92 
L 380.8575 169.92 
L 381.555 169.92 
L 382.2525 169.92 
L 382.95 169.92 
L 383.6475 169.92 
L 384.345 169.92 
L 385.0425 169.92 
L 385.74 169.92 
L 386.4375 169.92 
L 387.135 169.92 
L 387.8325 169.92 
L 388.53 169.92 
L 389.2275 169.92 
L 389.925 169.92 
L 390.6225 169.92 
L 391.32 169.92 
L 392.0175 169.92 
L 392.715 169.92 
L 393.4125 169.92 
L 394.11 169.92 
L 394.8075 169.92 
L 395.505 169.92 
L 396.2025 169.92 
L 396.9 169.92 
L 397.5975 169.92 
L 398.295 169.92 
L 398.9925 169.92 
L 399.69 169.92 
L 400.3875 169.92 
L 401.085 169.92 
L 401.7825 169.92 
L 402.48 169.92 
L 403.1775 169.92 
L 403.875 169.92 
L 404.5725 169.92 
L 405.27 169.92 
L 405.9675 169.92 
L 406.665 169.92 
L 407.3625 169.92 
L 408.06 169.92 
L 408.7575 169.92 
L 409.455 169.92 
L 410.1525 169.92 
L 410.85 169.92 
L 411.5475 169.92 
L 412.245 169.92 
L 412.9425 169.92 
L 413.64 169.92 
L 414.3375 169.92 
L 415.035 169.92 
L 415.7325 169.92 
L 416.43 169.92 
L 417.1275 169.92 
L 417.825 169.92 
L 418.5225 169.92 
L 419.22 169.92 
L 419.9175 169.92 
L 420.615 169.92 
L 421.3125 169.92 
L 422.01 169.92 
L 422.7075 169.92 
L 423.405 169.92 
L 424.1025 169.92 
L 424.8 169.92 
L 425.4975 169.92 
L 426.195 169.92 
L 426.8925 169.92 
L 427.59 169.92 
L 428.2875 169.92 
L 428.985 169.92 
L 429.6825 169.92 
L 430.38 169.92 
L 431.0775 169.92 
L 431.775 169.92 
L 432.4725 169.92 
L 433.17 169.92 
L 433.8675 169.92 
L 434.565 169.92 
L 435.2625 169.92 
L 435.96 169.92 
L 436.6575 169.92 
L 437.355 169.92 
L 438.0525 169.92 
L 438.75 169.92 
L 439.4475 169.92 
L 440.145 169.92 
L 440.8425 169.92 
L 441.54 169.92 
L 442.2375 169.92 
L 442.935 169.92 
L 443.6325 169.92 
L 444.33 169.92 
L 445.0275 169.92 
L 445.725 169.92 
L 446.4225 169.92 
L 447.12 169.92 
L 447.8175 169.92 
L 448.515 169.92 
L 449.2125 169.92 
L 449.91 169.92 
L 450.6075 169.92 
L 451.305 169.92 
L 452.0025 169.92 
L 452.7 169.92 
L 453.3975 169.92 
L 454.095 169.92 
L 454.7925 169.92 
L 455.49 169.92 
L 456.1875 169.92 
L 456.885 169.92 
L 457.5825 169.92 
L 458.28 169.92 
L 458.9775 169.92 
L 459.675 169.92 
L 460.3725 169.92 
L 461.07 169.92 
L 461.7675 169.92 
L 462.465 169.92 
L 463.1625 169.92 
L 463.86 169.92 
L 464.5575 169.92 
L 465.255 169.92 
L 465.9525 169.92 
L 466.65 169.92 
L 467.3475 169.92 
L 468.045 169.92 
L 468.7425 169.92 
L 469.44 169.92 
L 470.1375 169.92 
L 470.835 169.92 
L 471.5325 169.92 
L 472.23 169.92 
L 472.9275 169.92 
L 473.625 169.92 
L 474.3225 169.92 
L 475.02 169.92 
L 475.7175 169.92 
L 476.415 169.92 
L 477.1125 169.92 
L 477.81 169.92 
L 478.5075 169.92 
L 479.205 169.92 
L 479.9025 169.92 
L 480.6 169.92 
L 481.2975 169.92 
L 481.995 169.92 
L 482.6925 169.92 
L 483.39 169.92 
L 484.0875 169.92 
L 484.785 169.92 
L 485.4825 169.92 
L 486.18 169.92 
L 486.8775 169.92 
L 487.575 169.92 
L 488.2725 169.92 
L 488.97 169.92 
L 489.6675 169.92 
L 490.365 169.92 
L 491.0625 169.92 
L 491.76 169.92 
L 492.4575 169.92 
L 493.155 169.92 
L 493.8525 169.92 
L 494.55 169.92 
L 495.2475 169.92 
L 495.945 169.92 
L 496.6425 169.92 
L 497.34 169.92 
L 498.0375 169.92 
L 498.735 169.92 
L 499.4325 169.92 
L 500.13 169.92 
L 500.8275 169.92 
L 501.525 169.92 
L 502.2225 169.92 
L 502.92 169.92 
L 503.6175 169.92 
L 504.315 169.92 
L 505.0125 169.92 
L 505.71 169.92 
L 506.4075 169.92 
L 507.105 169.92 
L 507.8025 169.92 
L 508.5 169.92 
L 509.1975 169.92 
L 509.895 169.92 
L 510.5925 169.92 
L 511.29 169.92 
L 511.9875 169.92 
L 512.685 169.92 
L 513.3825 169.92 
L 514.08 169.92 
L 514.7775 169.92 
L 515.475 169.92 
L 516.1725 169.92 
L 516.87 169.92 
L 517.5675 169.92 
L 518.265 169.92 
L 518.9625 169.92 
L 519.66 169.92 
L 520.3575 169.92 
L 521.055 169.92 
L 521.7525 169.92 
L 522.45 169.92 
L 523.1475 169.92 
L 523.845 169.92 
L 524.5425 169.92 
L 525.24 169.92 
L 525.9375 169.92 
L 526.635 169.92 
L 527.3325 169.92 
L 528.03 169.92 
L 528.7275 169.92 
L 529.425 169.92 
L 530.1225 169.92 
L 530.82 169.92 
L 531.5175 169.92 
L 532.215 169.92 
L 532.9125 169.92 
L 533.61 169.92 
L 534.3075 169.92 
L 535.005 169.92 
L 535.7025 169.92 
L 536.4 169.92 
L 537.0975 169.92 
L 537.795 169.92 
L 538.4925 169.92 
L 539.19 169.92 
L 539.8875 169.92 
L 540.585 169.92 
L 541.2825 169.92 
L 541.98 169.92 
L 542.6775 169.92 
L 543.375 169.92 
L 544.0725 169.92 
L 544.77 169.92 
L 545.4675 169.92 
L 546.165 169.92 
L 546.8625 169.92 
L 547.56 169.92 
L 548.2575 169.92 
L 548.955 169.92 
L 549.6525 169.92 
L 550.35 169.92 
L 551.0475 169.92 
L 551.745 169.92 
L 552.4425 169.92 
L 553.14 169.92 
L 553.8375 169.92 
L 554.535 169.92 
L 555.2325 169.92 
L 555.93 169.92 
L 556.6275 169.92 
L 557.325 169.92 
L 558.0225 169.92 
L 558.72 169.92 
L 559.4175 169.92 
L 560.115 169.92 
L 560.8125 169.92 
L 561.51 169.92 
L 562.2075 169.92 
L 562.905 169.92 
L 563.6025 169.92 
L 564.3 169.92 
L 564.9975 169.92 
L 565.695 169.92 
L 566.3925 169.92 
L 567.09 169.92 
L 567.7875 169.92 
L 568.485 169.92 
L 569.1825 169.92 
L 569.88 169.92 
L 570.5775 169.92 
L 571.275 169.92 
L 571.9725 169.92 
L 572.67 169.92 
L 573.3675 169.92 
L 574.065 169.92 
L 574.7625 169.92 
L 575.46 169.92 
L 576.1575 169.92 
L 576.855 169.92 
L 577.5525 169.92 
L 578.25 169.92 
L 578.9475 169.92 
L 579.645 169.92 
L 580.3425 169.92 
L 581.04 169.92 
L 581.7375 169.92 
L 582.435 169.92 
L 583.1325 169.92 
L 583.83 169.92 
L 584.5275 169.92 
L 585.225 169.92 
L 585.9225 169.92 
L 586.62 169.92 
L 587.3175 169.92 
L 588.015 169.92 
L 588.7125 169.92 
L 589.41 169.92 
L 590.1075 169.92 
L 590.805 169.92 
L 591.5025 169.92 
L 592.2 169.92 
L 592.8975 169.92 
L 593.595 169.92 
L 594.2925 169.92 
L 594.99 169.92 
L 595.6875 169.92 
L 596.385 169.92 
L 597.0825 169.92 
L 597.78 169.92 
L 598.4775 169.92 
L 599.175 169.92 
L 599.8725 169.92 
L 600.57 169.92 
L 601.2675 169.92 
L 601.965 169.92 
L 602.6625 169.92 
L 603.36 169.92 
L 604.0575 169.92 
L 604.755 169.92 
L 605.4525 169.92 
L 606.15 169.92 
L 606.8475 169.92 
L 607.545 169.92 
L 608.2425 169.92 
L 608.94 169.92 
L 609.6375 169.92 
L 610.335 169.92 
L 611.0325 169.92 
L 611.73 169.92 
L 612.4275 169.92 
L 613.125 169.92 
L 613.8225 169.92 
L 614.52 169.92 
L 615.2175 169.92 
L 615.915 169.92 
L 616.6125 169.92 
L 617.31 169.92 
L 618.0075 169.92 
L 618.705 169.92 
L 619.4025 169.92 
L 620.1 169.92 
L 620.7975 169.92 
L 621.495 169.92 
L 622.1925 169.92 
L 622.89 169.92 
L 623.5875 169.92 
L 624.285 169.92 
L 624.9825 169.92 
L 625.68 169.92 
L 626.3775 169.92 
L 627.075 169.92 
L 627.7725 169.92 
L 628.47 169.92 
L 629.1675 169.92 
L 629.865 169.92 
L 630.5625 169.92 
L 631.26 169.92 
L 631.9575 169.92 
L 632.655 169.92 
L 633.3525 169.92 
L 634.05 169.92 
L 634.7475 169.92 
L 635.445 169.92 
L 636.1425 169.92 
L 636.84 169.92 
L 637.5375 169.92 
L 638.235 169.92 
L 638.9325 169.92 
L 639.63 169.92 
L 640.3275 169.92 
L 641.025 169.92 
L 641.7225 169.92 
L 642.42 169.92 
L 643.1175 169.92 
L 643.815 169.92 
L 644.5125 169.92 
L 645.21 169.92 
L 645.9075 169.92 
L 646.605 169.92 
L 646.605 169.92 
L 646.605 169.92 
L 645.9075 169.959412 
L 645.21 170.06431 
L 644.5125 170.19913 
L 643.815 170.367567 
L 643.1175 170.577525 
L 642.42 170.810421 
L 641.7225 171.060696 
L 641.025 171.357734 
L 640.3275 171.682512 
L 639.63 172.029002 
L 638.9325 172.417344 
L 638.235 172.819291 
L 637.5375 173.250323 
L 636.84 173.699493 
L 636.1425 174.168903 
L 635.445 174.656172 
L 634.7475 175.154448 
L 634.05 175.652446 
L 633.3525 176.143261 
L 632.655 176.650677 
L 631.9575 177.154603 
L 631.26 177.661243 
L 630.5625 178.172405 
L 629.865 178.689875 
L 629.1675 179.184753 
L 628.47 179.676425 
L 627.7725 180.158018 
L 627.075 180.640225 
L 626.3775 181.094327 
L 625.68 181.535535 
L 624.9825 181.952854 
L 624.285 182.335409 
L 623.5875 182.711913 
L 622.89 183.05418 
L 622.1925 183.373613 
L 621.495 183.664211 
L 620.7975 183.915744 
L 620.1 184.113796 
L 619.4025 184.288017 
L 618.705 184.415629 
L 618.0075 184.504741 
L 617.31 184.541765 
L 616.6125 184.522133 
L 615.915 184.467841 
L 615.2175 184.357269 
L 614.52 184.195356 
L 613.8225 183.996062 
L 613.125 183.751639 
L 612.4275 183.454568 
L 611.73 183.110736 
L 611.0325 182.743782 
L 610.335 182.342431 
L 609.6375 181.895581 
L 608.94 181.418636 
L 608.2425 180.905257 
L 607.545 180.349291 
L 606.8475 179.775453 
L 606.15 179.182275 
L 605.4525 178.564008 
L 604.755 177.893134 
L 604.0575 177.212469 
L 603.36 176.490432 
L 602.6625 175.752581 
L 601.965 174.985144 
L 601.2675 174.200771 
L 600.57 173.399062 
L 599.8725 172.579704 
L 599.175 171.755613 
L 598.4775 170.904695 
L 597.78 170.066297 
L 597.0825 169.209641 
L 596.385 168.356588 
L 595.6875 167.502708 
L 594.99 166.652332 
L 594.2925 165.822911 
L 593.595 164.996757 
L 592.8975 164.191198 
L 592.2 163.397183 
L 591.5025 162.605602 
L 590.805 161.846746 
L 590.1075 161.120085 
L 589.41 160.420547 
L 588.7125 159.742923 
L 588.015 159.108165 
L 587.3175 158.523873 
L 586.62 157.975495 
L 585.9225 157.465813 
L 585.225 156.984274 
L 584.5275 156.542079 
L 583.83 156.15023 
L 583.1325 155.819473 
L 582.435 155.547106 
L 581.7375 155.325753 
L 581.04 155.156537 
L 580.3425 155.040316 
L 579.645 154.964542 
L 578.9475 154.942737 
L 578.25 154.961875 
L 577.5525 155.021857 
L 576.855 155.144277 
L 576.1575 155.302237 
L 575.46 155.52559 
L 574.7625 155.773792 
L 574.065 156.054342 
L 573.3675 156.374574 
L 572.67 156.719727 
L 571.9725 157.118703 
L 571.275 157.547584 
L 570.5775 157.999815 
L 569.88 158.468722 
L 569.1825 158.973822 
L 568.485 159.486279 
L 567.7875 160.003493 
L 567.09 160.549116 
L 566.3925 161.102861 
L 565.695 161.661922 
L 564.9975 162.23222 
L 564.3 162.823999 
L 563.6025 163.416741 
L 562.905 163.998681 
L 562.2075 164.593142 
L 561.51 165.179592 
L 560.8125 165.763814 
L 560.115 166.347223 
L 559.4175 166.922482 
L 558.72 167.495429 
L 558.0225 168.045643 
L 557.325 168.592228 
L 556.6275 169.106136 
L 555.93 169.611035 
L 555.2325 170.07809 
L 554.535 170.522447 
L 553.8375 170.946232 
L 553.14 171.329779 
L 552.4425 171.701795 
L 551.745 172.02536 
L 551.0475 172.329488 
L 550.35 172.590739 
L 549.6525 172.834063 
L 548.955 173.036331 
L 548.2575 173.187757 
L 547.56 173.30947 
L 546.8625 173.400852 
L 546.165 173.45706 
L 545.4675 173.469052 
L 544.77 173.445523 
L 544.0725 173.382215 
L 543.375 173.283828 
L 542.6775 173.146482 
L 541.98 172.992769 
L 541.2825 172.792815 
L 540.585 172.565151 
L 539.8875 172.310931 
L 539.19 172.027067 
L 538.4925 171.732514 
L 537.795 171.420009 
L 537.0975 171.095515 
L 536.4 170.760679 
L 535.7025 170.421579 
L 535.005 170.066797 
L 534.3075 169.720029 
L 533.61 169.356758 
L 532.9125 169.005103 
L 532.215 168.644952 
L 531.5175 168.300027 
L 530.82 167.967698 
L 530.1225 167.645273 
L 529.425 167.351904 
L 528.7275 167.062803 
L 528.03 166.796954 
L 527.3325 166.551327 
L 526.635 166.322788 
L 525.9375 166.108117 
L 525.24 165.917162 
L 524.5425 165.746512 
L 523.845 165.601412 
L 523.1475 165.486977 
L 522.45 165.386271 
L 521.7525 165.308564 
L 521.055 165.245491 
L 520.3575 165.20613 
L 519.66 165.19506 
L 518.9625 165.207959 
L 518.265 165.240381 
L 517.5675 165.309678 
L 516.87 165.406742 
L 516.1725 165.522321 
L 515.475 165.673345 
L 514.7775 165.854669 
L 514.08 166.065374 
L 513.3825 166.304391 
L 512.685 166.561748 
L 511.9875 166.831761 
L 511.29 167.117441 
L 510.5925 167.426095 
L 509.895 167.764916 
L 509.1975 168.119048 
L 508.5 168.499832 
L 507.8025 168.883442 
L 507.105 169.298584 
L 506.4075 169.725637 
L 505.71 170.166812 
L 505.0125 170.606736 
L 504.315 171.060693 
L 503.6175 171.526379 
L 502.92 171.988296 
L 502.2225 172.470375 
L 501.525 172.948275 
L 500.8275 173.428329 
L 500.13 173.894966 
L 499.4325 174.350198 
L 498.735 174.804852 
L 498.0375 175.252243 
L 497.34 175.690101 
L 496.6425 176.111827 
L 495.945 176.524039 
L 495.2475 176.924646 
L 494.55 177.320374 
L 493.8525 177.682942 
L 493.155 178.032405 
L 492.4575 178.340716 
L 491.76 178.632586 
L 491.0625 178.893397 
L 490.365 179.121827 
L 489.6675 179.312336 
L 488.97 179.472717 
L 488.2725 179.593398 
L 487.575 179.678147 
L 486.8775 179.744049 
L 486.18 179.782012 
L 485.4825 179.783085 
L 484.785 179.747263 
L 484.0875 179.687865 
L 483.39 179.596434 
L 482.6925 179.464676 
L 481.995 179.293258 
L 481.2975 179.091809 
L 480.6 178.852593 
L 479.9025 178.581202 
L 479.205 178.274633 
L 478.5075 177.9432 
L 477.81 177.575446 
L 477.1125 177.181997 
L 476.415 176.756088 
L 475.7175 176.317398 
L 475.02 175.846255 
L 474.3225 175.34943 
L 473.625 174.829442 
L 472.9275 174.284549 
L 472.23 173.717517 
L 471.5325 173.131221 
L 470.835 172.550531 
L 470.1375 171.956497 
L 469.44 171.356511 
L 468.7425 170.762376 
L 468.045 170.172726 
L 467.3475 169.581794 
L 466.65 169.001336 
L 465.9525 168.443054 
L 465.255 167.909781 
L 464.5575 167.391084 
L 463.86 166.889595 
L 463.1625 166.420994 
L 462.465 165.970143 
L 461.7675 165.569981 
L 461.07 165.191887 
L 460.3725 164.842155 
L 459.675 164.522561 
L 458.9775 164.230347 
L 458.28 163.958236 
L 457.5825 163.733884 
L 456.885 163.54967 
L 456.1875 163.393392 
L 455.49 163.270221 
L 454.7925 163.202679 
L 454.095 163.169211 
L 453.3975 163.178746 
L 452.7 163.231236 
L 452.0025 163.330793 
L 451.305 163.472533 
L 450.6075 163.655737 
L 449.91 163.883856 
L 449.2125 164.151352 
L 448.515 164.461248 
L 447.8175 164.807593 
L 447.12 165.179871 
L 446.4225 165.584953 
L 445.725 166.025163 
L 445.0275 166.493888 
L 444.33 167.001889 
L 443.6325 167.529071 
L 442.935 168.07276 
L 442.2375 168.62582 
L 441.54 169.202962 
L 440.8425 169.78812 
L 440.145 170.391463 
L 439.4475 170.996794 
L 438.75 171.618558 
L 438.0525 172.231705 
L 437.355 172.841885 
L 436.6575 173.446 
L 435.96 174.03223 
L 435.2625 174.606357 
L 434.565 175.161091 
L 433.8675 175.697997 
L 433.17 176.205593 
L 432.4725 176.690062 
L 431.775 177.140189 
L 431.0775 177.553689 
L 430.38 177.928467 
L 429.6825 178.266999 
L 428.985 178.563189 
L 428.2875 178.815535 
L 427.59 179.018377 
L 426.8925 179.175066 
L 426.195 179.289187 
L 425.4975 179.35578 
L 424.8 179.374508 
L 424.1025 179.349655 
L 423.405 179.27259 
L 422.7075 179.161219 
L 422.01 178.994212 
L 421.3125 178.781174 
L 420.615 178.523186 
L 419.9175 178.217178 
L 419.22 177.864701 
L 418.5225 177.467545 
L 417.825 177.036481 
L 417.1275 176.564938 
L 416.43 176.059687 
L 415.7325 175.518913 
L 415.035 174.9366 
L 414.3375 174.333218 
L 413.64 173.707449 
L 412.9425 173.05371 
L 412.245 172.392832 
L 411.5475 171.715031 
L 410.85 171.014987 
L 410.1525 170.30501 
L 409.455 169.588701 
L 408.7575 168.869693 
L 408.06 168.147254 
L 407.3625 167.420671 
L 406.665 166.706767 
L 405.9675 165.987266 
L 405.27 165.278957 
L 404.5725 164.576675 
L 403.875 163.897118 
L 403.1775 163.239355 
L 402.48 162.597965 
L 401.7825 161.989338 
L 401.085 161.399046 
L 400.3875 160.83884 
L 399.69 160.315942 
L 398.9925 159.819867 
L 398.295 159.357511 
L 397.5975 158.944356 
L 396.9 158.57374 
L 396.2025 158.251922 
L 395.505 157.971776 
L 394.8075 157.739102 
L 394.11 157.555081 
L 393.4125 157.40313 
L 392.715 157.301536 
L 392.0175 157.250814 
L 391.32 157.242464 
L 390.6225 157.294044 
L 389.925 157.379017 
L 389.2275 157.510092 
L 388.53 157.699738 
L 387.8325 157.933858 
L 387.135 158.211264 
L 386.4375 158.543685 
L 385.74 158.91192 
L 385.0425 159.3141 
L 384.345 159.756943 
L 383.6475 160.238202 
L 382.95 160.746679 
L 382.2525 161.275415 
L 381.555 161.826107 
L 380.8575 162.400341 
L 380.16 162.990823 
L 379.4625 163.59456 
L 378.765 164.20411 
L 378.0675 164.812001 
L 377.37 165.428286 
L 376.6725 166.036703 
L 375.975 166.642924 
L 375.2775 167.248251 
L 374.58 167.840857 
L 373.8825 168.422115 
L 373.185 168.984696 
L 372.4875 169.530126 
L 371.79 170.055638 
L 371.0925 170.554188 
L 370.395 171.023246 
L 369.6975 171.460434 
L 369 171.876669 
L 368.3025 172.247947 
L 367.605 172.598657 
L 366.9075 172.909504 
L 366.21 173.178913 
L 365.5125 173.409894 
L 364.815 173.601276 
L 364.1175 173.743331 
L 363.42 173.844096 
L 362.7225 173.90306 
L 362.025 173.919923 
L 361.3275 173.8946 
L 360.63 173.835978 
L 359.9325 173.731217 
L 359.235 173.585228 
L 358.5375 173.403129 
L 357.84 173.168329 
L 357.1425 172.899534 
L 356.445 172.584972 
L 355.7475 172.234996 
L 355.05 171.847001 
L 354.3525 171.414199 
L 353.655 170.947543 
L 352.9575 170.44502 
L 352.26 169.917939 
L 351.5625 169.373352 
L 350.865 168.800884 
L 350.1675 168.207819 
L 349.47 167.597164 
L 348.7725 166.972018 
L 348.075 166.339931 
L 347.3775 165.704108 
L 346.68 165.072156 
L 345.9825 164.442899 
L 345.285 163.815151 
L 344.5875 163.196476 
L 343.89 162.594392 
L 343.1925 162.003193 
L 342.495 161.430258 
L 341.7975 160.878493 
L 341.1 160.346319 
L 340.4025 159.845193 
L 339.705 159.377657 
L 339.0075 158.941703 
L 338.31 158.543923 
L 337.6125 158.181955 
L 336.915 157.866392 
L 336.2175 157.598837 
L 335.52 157.371888 
L 334.8225 157.186696 
L 334.125 157.044201 
L 333.4275 156.949505 
L 332.73 156.898708 
L 332.0325 156.88769 
L 331.335 156.925265 
L 330.6375 157.006862 
L 329.94 157.12331 
L 329.2425 157.282776 
L 328.545 157.497589 
L 327.8475 157.744764 
L 327.15 158.040562 
L 326.4525 158.374726 
L 325.755 158.741181 
L 325.0575 159.142447 
L 324.36 159.576489 
L 323.6625 160.041104 
L 322.965 160.533937 
L 322.2675 161.052488 
L 321.57 161.598504 
L 320.8725 162.173595 
L 320.175 162.766086 
L 319.4775 163.37735 
L 318.78 164.004286 
L 318.0825 164.639336 
L 317.385 165.283657 
L 316.6875 165.938359 
L 315.99 166.595742 
L 315.2925 167.256851 
L 314.595 167.918332 
L 313.8975 168.585588 
L 313.2 169.242096 
L 312.5025 169.880148 
L 311.805 170.496506 
L 311.1075 171.088045 
L 310.41 171.656142 
L 309.7125 172.202295 
L 309.015 172.719354 
L 308.3175 173.209075 
L 307.62 173.660217 
L 306.9225 174.079248 
L 306.225 174.459664 
L 305.5275 174.812673 
L 304.83 175.136484 
L 304.1325 175.420695 
L 303.435 175.668246 
L 302.7375 175.882258 
L 302.04 176.052888 
L 301.3425 176.183649 
L 300.645 176.273879 
L 299.9475 176.323119 
L 299.25 176.33112 
L 298.5525 176.297841 
L 297.855 176.223451 
L 297.1575 176.117086 
L 296.46 175.974905 
L 295.7625 175.797631 
L 295.065 175.581783 
L 294.3675 175.332835 
L 293.67 175.052051 
L 292.9725 174.740854 
L 292.275 174.405203 
L 291.5775 174.038041 
L 290.88 173.64999 
L 290.1825 173.234259 
L 289.485 172.801717 
L 288.7875 172.350177 
L 288.09 171.88193 
L 287.3925 171.403731 
L 286.695 170.913627 
L 285.9975 170.418482 
L 285.3 169.91205 
L 284.6025 169.410038 
L 283.905 168.910612 
L 283.2075 168.416307 
L 282.51 167.92963 
L 281.8125 167.453049 
L 281.115 166.988982 
L 280.4175 166.539784 
L 279.72 166.112111 
L 279.0225 165.703755 
L 278.325 165.316786 
L 277.6275 164.957547 
L 276.93 164.627861 
L 276.2325 164.325019 
L 275.535 164.054939 
L 274.8375 163.818989 
L 274.14 163.622746 
L 273.4425 163.462826 
L 272.745 163.335662 
L 272.0475 163.250656 
L 271.35 163.199481 
L 270.6525 163.186777 
L 269.955 163.212607 
L 269.2575 163.272462 
L 268.56 163.374797 
L 267.8625 163.519091 
L 267.165 163.708992 
L 266.4675 163.934779 
L 265.77 164.199686 
L 265.0725 164.502368 
L 264.375 164.836911 
L 263.6775 165.210376 
L 262.98 165.612111 
L 262.2825 166.035699 
L 261.585 166.487748 
L 260.8875 166.961588 
L 260.19 167.459193 
L 259.4925 167.978039 
L 258.795 168.515494 
L 258.0975 169.068832 
L 257.4 169.635246 
L 256.7025 170.211862 
L 256.005 170.795757 
L 255.3075 171.388346 
L 254.61 171.977865 
L 253.9125 172.565704 
L 253.215 173.144502 
L 252.5175 173.7157 
L 251.82 174.272023 
L 251.1225 174.810649 
L 250.425 175.333224 
L 249.7275 175.837098 
L 249.03 176.319714 
L 248.3325 176.778625 
L 247.635 177.211502 
L 246.9375 177.616149 
L 246.24 177.981757 
L 245.5425 178.315228 
L 244.845 178.610491 
L 244.1475 178.874808 
L 243.45 179.098078 
L 242.7525 179.283549 
L 242.055 179.425901 
L 241.3575 179.520033 
L 240.66 179.574224 
L 239.9625 179.583822 
L 239.265 179.548777 
L 238.5675 179.464888 
L 237.87 179.332581 
L 237.1725 179.156905 
L 236.475 178.938753 
L 235.7775 178.674852 
L 235.08 178.370919 
L 234.3825 178.028496 
L 233.685 177.64932 
L 232.9875 177.230935 
L 232.29 176.775465 
L 231.5925 176.293977 
L 230.895 175.784535 
L 230.1975 175.245344 
L 229.5 174.683518 
L 228.8025 174.093149 
L 228.105 173.48599 
L 227.4075 172.860742 
L 226.71 172.220576 
L 226.0125 171.57312 
L 225.315 170.917277 
L 224.6175 170.256376 
L 223.92 169.593768 
L 223.2225 168.932816 
L 222.525 168.276871 
L 221.8275 167.629261 
L 221.13 166.993271 
L 220.4325 166.367748 
L 219.735 165.760246 
L 219.0375 165.169465 
L 218.34 164.602782 
L 217.6425 164.063072 
L 216.945 163.553072 
L 216.2475 163.07537 
L 215.55 162.632388 
L 214.8525 162.226374 
L 214.155 161.859388 
L 213.4575 161.53767 
L 212.76 161.258473 
L 212.0625 161.023213 
L 211.365 160.837463 
L 210.6675 160.697786 
L 209.97 160.60489 
L 209.2725 160.559248 
L 208.575 160.561089 
L 207.8775 160.610405 
L 207.18 160.706946 
L 206.4825 160.850223 
L 205.785 161.039507 
L 205.0875 161.273839 
L 204.39 161.552031 
L 203.6925 161.872671 
L 202.995 162.234133 
L 202.2975 162.64334 
L 201.6 163.08946 
L 200.9025 163.57023 
L 200.205 164.08321 
L 199.5075 164.625798 
L 198.81 165.195242 
L 198.1125 165.793032 
L 197.415 166.411757 
L 196.7175 167.048279 
L 196.02 167.699368 
L 195.3225 168.361721 
L 194.625 169.031979 
L 193.9275 169.706742 
L 193.23 170.382586 
L 192.5325 171.056084 
L 191.835 171.723819 
L 191.1375 172.382404 
L 190.44 173.028498 
L 189.7425 173.658823 
L 189.045 174.270182 
L 188.3475 174.859475 
L 187.65 175.42371 
L 186.9525 175.960027 
L 186.255 176.465705 
L 185.5575 176.938179 
L 184.86 177.375051 
L 184.1625 177.774106 
L 183.465 178.13332 
L 182.7675 178.45087 
L 182.07 178.725145 
L 181.3725 178.954755 
L 180.675 179.138534 
L 179.9775 179.27555 
L 179.28 179.365109 
L 178.5825 179.406755 
L 177.885 179.400278 
L 177.1875 179.34571 
L 176.49 179.243328 
L 175.7925 179.093652 
L 175.095 178.897441 
L 174.3975 178.65569 
L 173.7 178.369626 
L 173.0025 178.040699 
L 172.305 177.670578 
L 171.6075 177.261141 
L 170.91 176.814465 
L 170.2125 176.332815 
L 169.515 175.818634 
L 168.8175 175.274532 
L 168.12 174.703268 
L 167.4225 174.103361 
L 166.725 173.482233 
L 166.0275 172.843034 
L 165.33 172.189008 
L 164.6325 171.523472 
L 163.935 170.849802 
L 163.2375 170.171416 
L 162.54 169.491754 
L 161.8425 168.809885 
L 161.145 168.133648 
L 160.4475 167.466472 
L 159.75 166.811743 
L 159.0525 166.17278 
L 158.355 165.552826 
L 157.6575 164.955026 
L 156.96 164.382411 
L 156.2625 163.837886 
L 155.565 163.324215 
L 154.8675 162.844002 
L 154.17 162.399683 
L 153.4725 161.993513 
L 152.775 161.627551 
L 152.0775 161.299275 
L 151.38 161.014729 
L 150.6825 160.770979 
L 149.985 160.573638 
L 149.2875 160.423708 
L 148.59 160.321951 
L 147.8925 160.268881 
L 147.195 160.264769 
L 146.4975 160.309635 
L 145.8 160.403251 
L 145.1025 160.545142 
L 144.405 160.73459 
L 143.7075 160.970632 
L 143.01 161.252072 
L 142.3125 161.577482 
L 141.615 161.94521 
L 140.9175 162.353392 
L 140.22 162.799958 
L 139.5225 163.278262 
L 138.825 163.790258 
L 138.1275 164.333347 
L 137.43 164.909156 
L 136.7325 165.510383 
L 136.035 166.133978 
L 135.3375 166.776779 
L 134.64 167.435525 
L 133.9425 168.111252 
L 133.245 168.796155 
L 132.5475 169.486759 
L 131.85 170.179561 
L 131.1525 170.871045 
L 130.455 171.557706 
L 129.7575 172.236059 
L 129.06 172.902663 
L 128.3625 173.554137 
L 127.665 174.187176 
L 126.9675 174.798569 
L 126.27 175.385215 
L 125.5725 175.944137 
L 124.875 176.4725 
L 124.1775 176.967625 
L 123.48 177.426999 
L 122.7825 177.848293 
L 122.085 178.229369 
L 121.3875 178.568293 
L 120.69 178.863348 
L 119.9925 179.113036 
L 119.295 179.31609 
L 118.5975 179.471481 
L 117.9 179.57842 
L 117.2025 179.636364 
L 116.505 179.645021 
L 115.8075 179.604346 
L 115.11 179.514544 
L 114.4125 179.376073 
L 113.715 179.189634 
L 113.0175 178.956172 
L 112.32 178.676873 
L 111.6225 178.353153 
L 110.925 177.986654 
L 110.2275 177.579236 
L 109.53 177.132964 
L 108.8325 176.650104 
L 108.135 176.133103 
L 107.4375 175.584586 
L 106.74 175.007333 
L 106.0425 174.404274 
L 105.345 173.778468 
L 104.6475 173.133089 
L 103.95 172.471411 
L 103.2525 171.79679 
L 102.555 171.112649 
L 101.8575 170.422458 
L 101.16 169.729718 
L 100.4625 169.037944 
L 99.765 168.350644 
L 99.0675 167.671304 
L 98.37 167.003372 
L 97.6725 166.350235 
L 96.975 165.715206 
L 96.2775 165.101507 
L 95.58 164.51225 
L 94.8825 163.954805 
L 94.185 163.427619 
L 93.4875 162.933367 
L 92.79 162.474556 
L 92.0925 162.053514 
L 91.395 161.672376 
L 90.6975 161.333075 
L 90 161.037334 
z
" style="fill:#e0ffff;"/>
   </g>
   <g id="line2d_15">
    <path clip-path="url(#pf595b99e1b)" d="M 90 161.037334 
L 91.395 161.672376 
L 93.4875 162.933367 
L 95.58 164.51225 
L 98.37 167.003372 
L 107.4375 175.584586 
L 109.53 177.132964 
L 111.6225 178.353153 
L 113.0175 178.956172 
L 114.4125 179.376073 
L 115.8075 179.604346 
L 117.2025 179.636364 
L 118.5975 179.471481 
L 119.9925 179.113036 
L 121.3875 178.568293 
L 122.7825 177.848293 
L 124.875 176.4725 
L 126.9675 174.798569 
L 129.7575 172.236059 
L 137.43 164.909156 
L 139.5225 163.278262 
L 141.615 161.94521 
L 143.01 161.252072 
L 144.405 160.73459 
L 145.8 160.403251 
L 147.195 160.264769 
L 148.59 160.321951 
L 149.985 160.573638 
L 151.38 161.014729 
L 152.775 161.627551 
L 154.8675 162.844002 
L 156.96 164.382411 
L 159.75 166.811743 
L 168.8175 175.274532 
L 170.91 176.814465 
L 173.0025 178.040699 
L 174.3975 178.65569 
L 175.7925 179.093652 
L 177.1875 179.34571 
L 178.5825 179.406755 
L 179.9775 179.27555 
L 181.3725 178.954755 
L 182.7675 178.45087 
L 184.1625 177.774106 
L 186.255 176.465705 
L 188.3475 174.859475 
L 191.1375 172.382404 
L 199.5075 164.625798 
L 201.6 163.08946 
L 203.6925 161.872671 
L 205.0875 161.273839 
L 206.4825 160.850223 
L 207.8775 160.610405 
L 209.2725 160.559248 
L 210.6675 160.697786 
L 212.0625 161.023213 
L 213.4575 161.53767 
L 214.8525 162.226374 
L 216.945 163.553072 
L 219.0375 165.169465 
L 221.8275 167.629261 
L 229.5 174.683518 
L 231.5925 176.293977 
L 233.685 177.64932 
L 235.7775 178.674852 
L 237.1725 179.156905 
L 238.5675 179.464888 
L 239.9625 179.583822 
L 241.3575 179.520033 
L 242.7525 179.283549 
L 244.1475 178.874808 
L 246.24 177.981757 
L 248.3325 176.778625 
L 251.1225 174.810649 
L 254.61 171.977865 
L 259.4925 167.978039 
L 262.2825 166.035699 
L 264.375 164.836911 
L 266.4675 163.934779 
L 267.8625 163.519091 
L 269.2575 163.272462 
L 271.35 163.199481 
L 273.4425 163.462826 
L 275.535 164.054939 
L 277.6275 164.957547 
L 279.72 166.112111 
L 282.51 167.92963 
L 290.88 173.64999 
L 292.9725 174.740854 
L 295.065 175.581783 
L 297.1575 176.117086 
L 299.25 176.33112 
L 300.645 176.273879 
L 302.04 176.052888 
L 303.435 175.668246 
L 305.5275 174.812673 
L 307.62 173.660217 
L 309.7125 172.202295 
L 312.5025 169.880148 
L 322.2675 161.052488 
L 324.36 159.576489 
L 326.4525 158.374726 
L 327.8475 157.744764 
L 329.2425 157.282776 
L 330.6375 157.006862 
L 332.0325 156.88769 
L 333.4275 156.949505 
L 334.8225 157.186696 
L 336.2175 157.598837 
L 337.6125 158.181955 
L 339.705 159.377657 
L 341.7975 160.878493 
L 344.5875 163.196476 
L 352.26 169.917939 
L 354.3525 171.414199 
L 356.445 172.584972 
L 357.84 173.168329 
L 359.235 173.585228 
L 360.63 173.835978 
L 362.7225 173.90306 
L 364.1175 173.743331 
L 365.5125 173.409894 
L 366.9075 172.909504 
L 369 171.876669 
L 371.0925 170.554188 
L 373.185 168.984696 
L 376.6725 166.036703 
L 382.2525 161.275415 
L 384.345 159.756943 
L 386.4375 158.543685 
L 387.8325 157.933858 
L 389.2275 157.510092 
L 390.6225 157.294044 
L 392.0175 157.250814 
L 393.4125 157.40313 
L 395.505 157.971776 
L 396.9 158.57374 
L 398.295 159.357511 
L 400.3875 160.83884 
L 402.48 162.597965 
L 405.27 165.278957 
L 414.3375 174.333218 
L 416.43 176.059687 
L 418.5225 177.467545 
L 419.9175 178.217178 
L 421.3125 178.781174 
L 422.7075 179.161219 
L 424.1025 179.349655 
L 425.4975 179.35578 
L 426.8925 179.175066 
L 428.2875 178.815535 
L 429.6825 178.266999 
L 431.775 177.140189 
L 433.8675 175.697997 
L 436.6575 173.446 
L 443.6325 167.529071 
L 445.725 166.025163 
L 447.8175 164.807593 
L 449.91 163.883856 
L 451.305 163.472533 
L 452.7 163.231236 
L 454.095 163.169211 
L 455.49 163.270221 
L 457.5825 163.733884 
L 459.675 164.522561 
L 461.7675 165.569981 
L 463.86 166.889595 
L 466.65 169.001336 
L 475.02 175.846255 
L 477.1125 177.181997 
L 479.205 178.274633 
L 481.2975 179.091809 
L 483.39 179.596434 
L 485.4825 179.783085 
L 487.575 179.678147 
L 489.6675 179.312336 
L 491.76 178.632586 
L 493.8525 177.682942 
L 496.6425 176.111827 
L 500.13 173.894966 
L 507.8025 168.883442 
L 510.5925 167.426095 
L 513.3825 166.304391 
L 515.475 165.673345 
L 517.5675 165.309678 
L 519.66 165.19506 
L 521.7525 165.308564 
L 523.845 165.601412 
L 525.9375 166.108117 
L 528.7275 167.062803 
L 531.5175 168.300027 
L 539.19 172.027067 
L 541.2825 172.792815 
L 543.375 173.283828 
L 545.4675 173.469052 
L 546.8625 173.400852 
L 548.955 173.036331 
L 551.0475 172.329488 
L 553.14 171.329779 
L 555.2325 170.07809 
L 557.325 168.592228 
L 561.51 165.179592 
L 567.7875 160.003493 
L 571.275 157.547584 
L 573.3675 156.374574 
L 575.46 155.52559 
L 576.855 155.144277 
L 578.25 154.961875 
L 579.645 154.964542 
L 581.04 155.156537 
L 582.435 155.547106 
L 583.83 156.15023 
L 585.225 156.984274 
L 587.3175 158.523873 
L 589.41 160.420547 
L 591.5025 162.605602 
L 595.6875 167.502708 
L 601.2675 174.200771 
L 604.0575 177.212469 
L 606.15 179.182275 
L 608.94 181.418636 
L 611.0325 182.743782 
L 613.125 183.751639 
L 614.52 184.195356 
L 615.915 184.467841 
L 617.31 184.541765 
L 618.705 184.415629 
L 620.1 184.113796 
L 621.495 183.664211 
L 623.5875 182.711913 
L 626.3775 181.094327 
L 629.1675 179.184753 
L 638.235 172.819291 
L 640.3275 171.682512 
L 642.42 170.810421 
L 644.5125 170.19913 
L 645.9075 169.959412 
L 646.605 169.92 
L 646.605 169.92 
" style="fill:none;stroke:#008080;stroke-linecap:round;stroke-width:1.75;"/>
   </g>
   <g id="patch_3">
    <path d="M 90 270.72 
L 90 69.12 
" style="fill:none;stroke:#262626;stroke-linecap:square;stroke-linejoin:miter;stroke-width:1.25;"/>
   </g>
   <g id="patch_4">
    <path d="M 90 270.72 
L 648 270.72 
" style="fill:none;stroke:#262626;stroke-linecap:square;stroke-linejoin:miter;stroke-width:1.25;"/>
   </g>
  </g>
  <g id="axes_2">
   <g id="patch_5">
    <path d="M 90 512.64 
L 648 512.64 
L 648 311.04 
L 90 311.04 
z
" style="fill:#ffffff;"/>
   </g>
   <g id="matplotlib.axis_3">
    <g id="xtick_10">
     <g id="line2d_16">
      <g>
       <use style="fill:#262626;stroke:#262626;" x="191.454545" xlink:href="#m131050d7d0" y="512.64"/>
      </g>
     </g>
     <g id="text_15">
      <!-- 200 -->
      <g style="fill:#262626;" transform="translate(183.113139 532.797812)scale(0.1 -0.1)">
       <use xlink:href="#ArialMT-32"/>
       <use x="55.615234" xlink:href="#ArialMT-30"/>
       <use x="111.230469" xlink:href="#ArialMT-30"/>
      </g>
     </g>
    </g>
    <g id="xtick_11">
     <g id="line2d_17">
      <g>
       <use style="fill:#262626;stroke:#262626;" x="304.181818" xlink:href="#m131050d7d0" y="512.64"/>
      </g>
     </g>
     <g id="text_16">
      <!-- 400 -->
      <g style="fill:#262626;" transform="translate(295.840412 532.797812)scale(0.1 -0.1)">
       <use xlink:href="#ArialMT-34"/>
       <use x="55.615234" xlink:href="#ArialMT-30"/>
       <use x="111.230469" xlink:href="#ArialMT-30"/>
      </g>
     </g>
    </g>
    <g id="xtick_12">
     <g id="line2d_18">
      <g>
       <use style="fill:#262626;stroke:#262626;" x="416.909091" xlink:href="#m131050d7d0" y="512.64"/>
      </g>
     </g>
     <g id="text_17">
      <!-- 600 -->
      <g style="fill:#262626;" transform="translate(408.567685 532.797812)scale(0.1 -0.1)">
       <use xlink:href="#ArialMT-36"/>
       <use x="55.615234" xlink:href="#ArialMT-30"/>
       <use x="111.230469" xlink:href="#ArialMT-30"/>
      </g>
     </g>
    </g>
    <g id="xtick_13">
     <g id="line2d_19">
      <g>
       <use style="fill:#262626;stroke:#262626;" x="529.636364" xlink:href="#m131050d7d0" y="512.64"/>
      </g>
     </g>
     <g id="text_18">
      <!-- 800 -->
      <g style="fill:#262626;" transform="translate(521.294957 532.797812)scale(0.1 -0.1)">
       <use xlink:href="#ArialMT-38"/>
       <use x="55.615234" xlink:href="#ArialMT-30"/>
       <use x="111.230469" xlink:href="#ArialMT-30"/>
      </g>
     </g>
    </g>
    <g id="xtick_14">
     <g id="line2d_20">
      <g>
       <use style="fill:#262626;stroke:#262626;" x="642.363636" xlink:href="#m131050d7d0" y="512.64"/>
      </g>
     </g>
     <g id="text_19">
      <!-- 1000 -->
      <g style="fill:#262626;" transform="translate(631.241761 532.797812)scale(0.1 -0.1)">
       <use xlink:href="#ArialMT-31"/>
       <use x="55.615234" xlink:href="#ArialMT-30"/>
       <use x="111.230469" xlink:href="#ArialMT-30"/>
       <use x="166.845703" xlink:href="#ArialMT-30"/>
      </g>
     </g>
    </g>
   </g>
   <g id="matplotlib.axis_4">
    <g id="ytick_6">
     <g id="line2d_21">
      <g>
       <use style="fill:#262626;stroke:#262626;" x="90" xlink:href="#m5a83db7278" y="512.64"/>
      </g>
     </g>
     <g id="text_20">
      <!-- 0 -->
      <g style="fill:#262626;" transform="translate(71.439063 516.218906)scale(0.1 -0.1)">
       <use xlink:href="#ArialMT-30"/>
      </g>
     </g>
    </g>
    <g id="ytick_7">
     <g id="line2d_22">
      <g>
       <use style="fill:#262626;stroke:#262626;" x="90" xlink:href="#m5a83db7278" y="490.24"/>
      </g>
     </g>
     <g id="text_21">
      <!-- 2 -->
      <g style="fill:#262626;" transform="translate(71.439063 493.818906)scale(0.1 -0.1)">
       <use xlink:href="#ArialMT-32"/>
      </g>
     </g>
    </g>
    <g id="ytick_8">
     <g id="line2d_23">
      <g>
       <use style="fill:#262626;stroke:#262626;" x="90" xlink:href="#m5a83db7278" y="467.84"/>
      </g>
     </g>
     <g id="text_22">
      <!-- 4 -->
      <g style="fill:#262626;" transform="translate(71.439063 471.418906)scale(0.1 -0.1)">
       <use xlink:href="#ArialMT-34"/>
      </g>
     </g>
    </g>
    <g id="ytick_9">
     <g id="line2d_24">
      <g>
       <use style="fill:#262626;stroke:#262626;" x="90" xlink:href="#m5a83db7278" y="445.44"/>
      </g>
     </g>
     <g id="text_23">
      <!-- 6 -->
      <g style="fill:#262626;" transform="translate(71.439063 449.018906)scale(0.1 -0.1)">
       <use xlink:href="#ArialMT-36"/>
      </g>
     </g>
    </g>
    <g id="ytick_10">
     <g id="line2d_25">
      <g>
       <use style="fill:#262626;stroke:#262626;" x="90" xlink:href="#m5a83db7278" y="423.04"/>
      </g>
     </g>
     <g id="text_24">
      <!-- 8 -->
      <g style="fill:#262626;" transform="translate(71.439063 426.618906)scale(0.1 -0.1)">
       <use xlink:href="#ArialMT-38"/>
      </g>
     </g>
    </g>
    <g id="ytick_11">
     <g id="line2d_26">
      <g>
       <use style="fill:#262626;stroke:#262626;" x="90" xlink:href="#m5a83db7278" y="400.64"/>
      </g>
     </g>
     <g id="text_25">
      <!-- 10 -->
      <g style="fill:#262626;" transform="translate(65.878125 404.218906)scale(0.1 -0.1)">
       <use xlink:href="#ArialMT-31"/>
       <use x="55.615234" xlink:href="#ArialMT-30"/>
      </g>
     </g>
    </g>
    <g id="ytick_12">
     <g id="line2d_27">
      <g>
       <use style="fill:#262626;stroke:#262626;" x="90" xlink:href="#m5a83db7278" y="378.24"/>
      </g>
     </g>
     <g id="text_26">
      <!-- 12 -->
      <g style="fill:#262626;" transform="translate(65.878125 381.818906)scale(0.1 -0.1)">
       <use xlink:href="#ArialMT-31"/>
       <use x="55.615234" xlink:href="#ArialMT-32"/>
      </g>
     </g>
    </g>
    <g id="ytick_13">
     <g id="line2d_28">
      <g>
       <use style="fill:#262626;stroke:#262626;" x="90" xlink:href="#m5a83db7278" y="355.84"/>
      </g>
     </g>
     <g id="text_27">
      <!-- 14 -->
      <g style="fill:#262626;" transform="translate(65.878125 359.418906)scale(0.1 -0.1)">
       <use xlink:href="#ArialMT-31"/>
       <use x="55.615234" xlink:href="#ArialMT-34"/>
      </g>
     </g>
    </g>
    <g id="ytick_14">
     <g id="line2d_29">
      <g>
       <use style="fill:#262626;stroke:#262626;" x="90" xlink:href="#m5a83db7278" y="333.44"/>
      </g>
     </g>
     <g id="text_28">
      <!-- 16 -->
      <g style="fill:#262626;" transform="translate(65.878125 337.018906)scale(0.1 -0.1)">
       <use xlink:href="#ArialMT-31"/>
       <use x="55.615234" xlink:href="#ArialMT-36"/>
      </g>
     </g>
    </g>
    <g id="ytick_15">
     <g id="line2d_30">
      <g>
       <use style="fill:#262626;stroke:#262626;" x="90" xlink:href="#m5a83db7278" y="311.04"/>
      </g>
     </g>
     <g id="text_29">
      <!-- 18 -->
      <g style="fill:#262626;" transform="translate(65.878125 314.618906)scale(0.1 -0.1)">
       <use xlink:href="#ArialMT-31"/>
       <use x="55.615234" xlink:href="#ArialMT-38"/>
      </g>
     </g>
    </g>
   </g>
   <g id="line2d_31">
    <path clip-path="url(#p36e64d3b04)" d="M 90 477.654723 
L 95.636364 452.736402 
L 101.272727 431.923589 
L 106.909091 427.92302 
L 112.545455 440.45326 
L 118.181818 444.705349 
L 123.818182 448.961059 
L 129.454545 457.370701 
L 135.090909 456.375715 
L 140.727273 434.868159 
L 146.363636 408.816951 
L 152 389.988216 
L 157.636364 371.492183 
L 163.272727 352.310178 
L 168.909091 342.280664 
L 174.545455 348.647566 
L 180.181818 355.802406 
L 185.818182 363.350788 
L 191.454545 378.270766 
L 197.090909 391.147889 
L 202.727273 394.129256 
L 208.363636 396.550705 
L 214 393.395457 
L 219.636364 389.651786 
L 225.272727 392.702199 
L 230.909091 396.085016 
L 236.545455 399.690878 
L 242.181818 407.737617 
L 247.818182 414.331388 
L 253.454545 417.809913 
L 259.090909 422.903097 
L 264.727273 426.347751 
L 270.363636 429.764905 
L 276 436.797845 
L 281.636364 444.59905 
L 287.272727 452.348689 
L 292.909091 461.235722 
L 298.545455 467.982454 
L 304.181818 471.144774 
L 309.818182 472.257688 
L 315.454545 471.707893 
L 321.090909 472.117482 
L 326.727273 473.818281 
L 332.363636 475.619312 
L 338 478.193498 
L 343.636364 480.655986 
L 349.272727 482.144164 
L 354.909091 483.974362 
L 360.545455 485.825198 
" style="fill:none;stroke:#b22222;stroke-linecap:round;stroke-width:1.75;"/>
   </g>
   <g id="line2d_32">
    <path clip-path="url(#p36e64d3b04)" d="M 152 512.64 
L 152 311.04 
" style="fill:none;stroke:#4c72b0;stroke-linecap:round;stroke-width:1.75;"/>
   </g>
   <g id="patch_6">
    <path d="M 90 512.64 
L 90 311.04 
" style="fill:none;stroke:#262626;stroke-linecap:square;stroke-linejoin:miter;stroke-width:1.25;"/>
   </g>
   <g id="patch_7">
    <path d="M 90 512.64 
L 648 512.64 
" style="fill:none;stroke:#262626;stroke-linecap:square;stroke-linejoin:miter;stroke-width:1.25;"/>
   </g>
   <g id="text_30">
    <!-- f = 500 Hz -->
    <defs>
     <path d="M 8.6875 0 
L 8.6875 45.015625 
L 0.921875 45.015625 
L 0.921875 51.859375 
L 8.6875 51.859375 
L 8.6875 57.375 
Q 8.6875 62.59375 9.625 65.140625 
Q 10.890625 68.5625 14.078125 70.671875 
Q 17.28125 72.796875 23.046875 72.796875 
Q 26.765625 72.796875 31.25 71.921875 
L 29.9375 64.265625 
Q 27.203125 64.75 24.75 64.75 
Q 20.75 64.75 19.09375 63.03125 
Q 17.4375 61.328125 17.4375 56.640625 
L 17.4375 51.859375 
L 27.546875 51.859375 
L 27.546875 45.015625 
L 17.4375 45.015625 
L 17.4375 0 
z
" id="ArialMT-66"/>
     <path id="ArialMT-20"/>
     <path d="M 52.828125 42.09375 
L 5.5625 42.09375 
L 5.5625 50.296875 
L 52.828125 50.296875 
z
M 52.828125 20.359375 
L 5.5625 20.359375 
L 5.5625 28.5625 
L 52.828125 28.5625 
z
" id="ArialMT-3d"/>
     <path d="M 8.015625 0 
L 8.015625 71.578125 
L 17.484375 71.578125 
L 17.484375 42.1875 
L 54.6875 42.1875 
L 54.6875 71.578125 
L 64.15625 71.578125 
L 64.15625 0 
L 54.6875 0 
L 54.6875 33.734375 
L 17.484375 33.734375 
L 17.484375 0 
z
" id="ArialMT-48"/>
     <path d="M 1.953125 0 
L 1.953125 7.125 
L 34.96875 45.015625 
Q 29.34375 44.734375 25.046875 44.734375 
L 3.90625 44.734375 
L 3.90625 51.859375 
L 46.296875 51.859375 
L 46.296875 46.046875 
L 18.21875 13.140625 
L 12.796875 7.125 
Q 18.703125 7.5625 23.875 7.5625 
L 47.859375 7.5625 
L 47.859375 0 
z
" id="ArialMT-7a"/>
    </defs>
    <g style="fill:#262626;" transform="translate(529.636364 403.742188)scale(0.12 -0.12)">
     <use xlink:href="#ArialMT-66"/>
     <use x="27.783203" xlink:href="#ArialMT-20"/>
     <use x="55.566406" xlink:href="#ArialMT-3d"/>
     <use x="113.964844" xlink:href="#ArialMT-20"/>
     <use x="141.748047" xlink:href="#ArialMT-35"/>
     <use x="197.363281" xlink:href="#ArialMT-30"/>
     <use x="252.978516" xlink:href="#ArialMT-30"/>
     <use x="308.59375" xlink:href="#ArialMT-20"/>
     <use x="336.376953" xlink:href="#ArialMT-48"/>
     <use x="408.59375" xlink:href="#ArialMT-7a"/>
    </g>
   </g>
   <g id="PathCollection_1">
    <defs>
     <path d="M 0 3.5 
C 0.928211 3.5 1.81853 3.131218 2.474874 2.474874 
C 3.131218 1.81853 3.5 0.928211 3.5 0 
C 3.5 -0.928211 3.131218 -1.81853 2.474874 -2.474874 
C 1.81853 -3.131218 0.928211 -3.5 0 -3.5 
C -0.928211 -3.5 -1.81853 -3.131218 -2.474874 -2.474874 
C -3.131218 -1.81853 -3.5 -0.928211 -3.5 0 
C -3.5 0.928211 -3.131218 1.81853 -2.474874 2.474874 
C -1.81853 3.131218 -0.928211 3.5 0 3.5 
z
" id="me05289a26c" style="stroke:#800000;stroke-width:0.3;"/>
    </defs>
    <g clip-path="url(#p36e64d3b04)">
     <use style="fill:#800000;stroke:#800000;stroke-width:0.3;" x="360.545455" xlink:href="#me05289a26c" y="485.825198"/>
    </g>
   </g>
  </g>
 </g>
 <defs>
  <clipPath id="pf595b99e1b">
   <rect height="201.6" width="558" x="90" y="69.12"/>
  </clipPath>
  <clipPath id="p36e64d3b04">
   <rect height="201.6" width="558" x="90" y="311.04"/>
  </clipPath>
 </defs>
</svg>
