<?xml version="1.0" encoding="utf-8" standalone="no"?>
<!DOCTYPE svg PUBLIC "-//W3C//DTD SVG 1.1//EN"
  "http://www.w3.org/Graphics/SVG/1.1/DTD/svg11.dtd">
<!-- Created with matplotlib (http://matplotlib.org/) -->
<svg height="576pt" version="1.1" viewBox="0 0 720 576" width="720pt" xmlns="http://www.w3.org/2000/svg" xmlns:xlink="http://www.w3.org/1999/xlink">
 <defs>
  <style type="text/css">
*{stroke-linecap:butt;stroke-linejoin:round;}
  </style>
 </defs>
 <g id="figure_1">
  <g id="patch_1">
   <path d="M 0 576 
L 720 576 
L 720 0 
L 0 0 
z
" style="fill:#ffffff;"/>
  </g>
  <g id="axes_1">
   <g id="patch_2">
    <path d="M 90 270.72 
L 648 270.72 
L 648 69.12 
L 90 69.12 
z
" style="fill:#ffffff;"/>
   </g>
   <g id="matplotlib.axis_1">
    <g id="xtick_1">
     <g id="line2d_1">
      <defs>
       <path d="M 0 0 
L 0 6 
" id="m1ea77f65d7" style="stroke:#262626;"/>
      </defs>
      <g>
       <use style="fill:#262626;stroke:#262626;" x="90" xlink:href="#m1ea77f65d7" y="270.72"/>
      </g>
     </g>
     <g id="text_1">
      <!-- 0 -->
      <defs>
       <path d="M 4.15625 35.296875 
Q 4.15625 48 6.765625 55.734375 
Q 9.375 63.484375 14.515625 67.671875 
Q 19.671875 71.875 27.484375 71.875 
Q 33.25 71.875 37.59375 69.546875 
Q 41.9375 67.234375 44.765625 62.859375 
Q 47.609375 58.5 49.21875 52.21875 
Q 50.828125 45.953125 50.828125 35.296875 
Q 50.828125 22.703125 48.234375 14.96875 
Q 45.65625 7.234375 40.5 3 
Q 35.359375 -1.21875 27.484375 -1.21875 
Q 17.140625 -1.21875 11.234375 6.203125 
Q 4.15625 15.140625 4.15625 35.296875 
z
M 13.1875 35.296875 
Q 13.1875 17.671875 17.3125 11.828125 
Q 21.4375 6 27.484375 6 
Q 33.546875 6 37.671875 11.859375 
Q 41.796875 17.71875 41.796875 35.296875 
Q 41.796875 52.984375 37.671875 58.78125 
Q 33.546875 64.59375 27.390625 64.59375 
Q 21.34375 64.59375 17.71875 59.46875 
Q 13.1875 52.9375 13.1875 35.296875 
z
" id="ArialMT-30"/>
      </defs>
      <g style="fill:#262626;" transform="translate(87.219531 290.877812)scale(0.1 -0.1)">
       <use xlink:href="#ArialMT-30"/>
      </g>
     </g>
    </g>
    <g id="xtick_2">
     <g id="line2d_2">
      <g>
       <use style="fill:#262626;stroke:#262626;" x="159.75" xlink:href="#m1ea77f65d7" y="270.72"/>
      </g>
     </g>
     <g id="text_2">
      <!-- 100 -->
      <defs>
       <path d="M 37.25 0 
L 28.46875 0 
L 28.46875 56 
Q 25.296875 52.984375 20.140625 49.953125 
Q 14.984375 46.921875 10.890625 45.40625 
L 10.890625 53.90625 
Q 18.265625 57.375 23.78125 62.296875 
Q 29.296875 67.234375 31.59375 71.875 
L 37.25 71.875 
z
" id="ArialMT-31"/>
      </defs>
      <g style="fill:#262626;" transform="translate(151.408594 290.877812)scale(0.1 -0.1)">
       <use xlink:href="#ArialMT-31"/>
       <use x="55.615234" xlink:href="#ArialMT-30"/>
       <use x="111.230469" xlink:href="#ArialMT-30"/>
      </g>
     </g>
    </g>
    <g id="xtick_3">
     <g id="line2d_3">
      <g>
       <use style="fill:#262626;stroke:#262626;" x="229.5" xlink:href="#m1ea77f65d7" y="270.72"/>
      </g>
     </g>
     <g id="text_3">
      <!-- 200 -->
      <defs>
       <path d="M 50.34375 8.453125 
L 50.34375 0 
L 3.03125 0 
Q 2.9375 3.171875 4.046875 6.109375 
Q 5.859375 10.9375 9.828125 15.625 
Q 13.8125 20.3125 21.34375 26.46875 
Q 33.015625 36.03125 37.109375 41.625 
Q 41.21875 47.21875 41.21875 52.203125 
Q 41.21875 57.421875 37.46875 61 
Q 33.734375 64.59375 27.734375 64.59375 
Q 21.390625 64.59375 17.578125 60.78125 
Q 13.765625 56.984375 13.71875 50.25 
L 4.6875 51.171875 
Q 5.609375 61.28125 11.65625 66.578125 
Q 17.71875 71.875 27.9375 71.875 
Q 38.234375 71.875 44.234375 66.15625 
Q 50.25 60.453125 50.25 52 
Q 50.25 47.703125 48.484375 43.546875 
Q 46.734375 39.40625 42.65625 34.8125 
Q 38.578125 30.21875 29.109375 22.21875 
Q 21.1875 15.578125 18.9375 13.203125 
Q 16.703125 10.84375 15.234375 8.453125 
z
" id="ArialMT-32"/>
      </defs>
      <g style="fill:#262626;" transform="translate(221.158594 290.877812)scale(0.1 -0.1)">
       <use xlink:href="#ArialMT-32"/>
       <use x="55.615234" xlink:href="#ArialMT-30"/>
       <use x="111.230469" xlink:href="#ArialMT-30"/>
      </g>
     </g>
    </g>
    <g id="xtick_4">
     <g id="line2d_4">
      <g>
       <use style="fill:#262626;stroke:#262626;" x="299.25" xlink:href="#m1ea77f65d7" y="270.72"/>
      </g>
     </g>
     <g id="text_4">
      <!-- 300 -->
      <defs>
       <path d="M 4.203125 18.890625 
L 12.984375 20.0625 
Q 14.5 12.59375 18.140625 9.296875 
Q 21.78125 6 27 6 
Q 33.203125 6 37.46875 10.296875 
Q 41.75 14.59375 41.75 20.953125 
Q 41.75 27 37.796875 30.921875 
Q 33.84375 34.859375 27.734375 34.859375 
Q 25.25 34.859375 21.53125 33.890625 
L 22.515625 41.609375 
Q 23.390625 41.5 23.921875 41.5 
Q 29.546875 41.5 34.03125 44.421875 
Q 38.53125 47.359375 38.53125 53.46875 
Q 38.53125 58.296875 35.25 61.46875 
Q 31.984375 64.65625 26.8125 64.65625 
Q 21.6875 64.65625 18.265625 61.421875 
Q 14.84375 58.203125 13.875 51.765625 
L 5.078125 53.328125 
Q 6.6875 62.15625 12.390625 67.015625 
Q 18.109375 71.875 26.609375 71.875 
Q 32.46875 71.875 37.390625 69.359375 
Q 42.328125 66.84375 44.9375 62.5 
Q 47.5625 58.15625 47.5625 53.265625 
Q 47.5625 48.640625 45.0625 44.828125 
Q 42.578125 41.015625 37.703125 38.765625 
Q 44.046875 37.3125 47.5625 32.6875 
Q 51.078125 28.078125 51.078125 21.140625 
Q 51.078125 11.765625 44.234375 5.25 
Q 37.40625 -1.265625 26.953125 -1.265625 
Q 17.53125 -1.265625 11.296875 4.34375 
Q 5.078125 9.96875 4.203125 18.890625 
z
" id="ArialMT-33"/>
      </defs>
      <g style="fill:#262626;" transform="translate(290.908594 290.877812)scale(0.1 -0.1)">
       <use xlink:href="#ArialMT-33"/>
       <use x="55.615234" xlink:href="#ArialMT-30"/>
       <use x="111.230469" xlink:href="#ArialMT-30"/>
      </g>
     </g>
    </g>
    <g id="xtick_5">
     <g id="line2d_5">
      <g>
       <use style="fill:#262626;stroke:#262626;" x="369" xlink:href="#m1ea77f65d7" y="270.72"/>
      </g>
     </g>
     <g id="text_5">
      <!-- 400 -->
      <defs>
       <path d="M 32.328125 0 
L 32.328125 17.140625 
L 1.265625 17.140625 
L 1.265625 25.203125 
L 33.9375 71.578125 
L 41.109375 71.578125 
L 41.109375 25.203125 
L 50.78125 25.203125 
L 50.78125 17.140625 
L 41.109375 17.140625 
L 41.109375 0 
z
M 32.328125 25.203125 
L 32.328125 57.46875 
L 9.90625 25.203125 
z
" id="ArialMT-34"/>
      </defs>
      <g style="fill:#262626;" transform="translate(360.658594 290.877812)scale(0.1 -0.1)">
       <use xlink:href="#ArialMT-34"/>
       <use x="55.615234" xlink:href="#ArialMT-30"/>
       <use x="111.230469" xlink:href="#ArialMT-30"/>
      </g>
     </g>
    </g>
    <g id="xtick_6">
     <g id="line2d_6">
      <g>
       <use style="fill:#262626;stroke:#262626;" x="438.75" xlink:href="#m1ea77f65d7" y="270.72"/>
      </g>
     </g>
     <g id="text_6">
      <!-- 500 -->
      <defs>
       <path d="M 4.15625 18.75 
L 13.375 19.53125 
Q 14.40625 12.796875 18.140625 9.390625 
Q 21.875 6 27.15625 6 
Q 33.5 6 37.890625 10.78125 
Q 42.28125 15.578125 42.28125 23.484375 
Q 42.28125 31 38.0625 35.34375 
Q 33.84375 39.703125 27 39.703125 
Q 22.75 39.703125 19.328125 37.765625 
Q 15.921875 35.84375 13.96875 32.765625 
L 5.71875 33.84375 
L 12.640625 70.609375 
L 48.25 70.609375 
L 48.25 62.203125 
L 19.671875 62.203125 
L 15.828125 42.96875 
Q 22.265625 47.46875 29.34375 47.46875 
Q 38.71875 47.46875 45.15625 40.96875 
Q 51.609375 34.46875 51.609375 24.265625 
Q 51.609375 14.546875 45.953125 7.46875 
Q 39.0625 -1.21875 27.15625 -1.21875 
Q 17.390625 -1.21875 11.203125 4.25 
Q 5.03125 9.71875 4.15625 18.75 
z
" id="ArialMT-35"/>
      </defs>
      <g style="fill:#262626;" transform="translate(430.408594 290.877812)scale(0.1 -0.1)">
       <use xlink:href="#ArialMT-35"/>
       <use x="55.615234" xlink:href="#ArialMT-30"/>
       <use x="111.230469" xlink:href="#ArialMT-30"/>
      </g>
     </g>
    </g>
    <g id="xtick_7">
     <g id="line2d_7">
      <g>
       <use style="fill:#262626;stroke:#262626;" x="508.5" xlink:href="#m1ea77f65d7" y="270.72"/>
      </g>
     </g>
     <g id="text_7">
      <!-- 600 -->
      <defs>
       <path d="M 49.75 54.046875 
L 41.015625 53.375 
Q 39.84375 58.546875 37.703125 60.890625 
Q 34.125 64.65625 28.90625 64.65625 
Q 24.703125 64.65625 21.53125 62.3125 
Q 17.390625 59.28125 14.984375 53.46875 
Q 12.59375 47.65625 12.5 36.921875 
Q 15.671875 41.75 20.265625 44.09375 
Q 24.859375 46.4375 29.890625 46.4375 
Q 38.671875 46.4375 44.84375 39.96875 
Q 51.03125 33.5 51.03125 23.25 
Q 51.03125 16.5 48.125 10.71875 
Q 45.21875 4.9375 40.140625 1.859375 
Q 35.0625 -1.21875 28.609375 -1.21875 
Q 17.625 -1.21875 10.6875 6.859375 
Q 3.765625 14.9375 3.765625 33.5 
Q 3.765625 54.25 11.421875 63.671875 
Q 18.109375 71.875 29.4375 71.875 
Q 37.890625 71.875 43.28125 67.140625 
Q 48.6875 62.40625 49.75 54.046875 
z
M 13.875 23.1875 
Q 13.875 18.65625 15.796875 14.5 
Q 17.71875 10.359375 21.1875 8.171875 
Q 24.65625 6 28.46875 6 
Q 34.03125 6 38.03125 10.484375 
Q 42.046875 14.984375 42.046875 22.703125 
Q 42.046875 30.125 38.078125 34.390625 
Q 34.125 38.671875 28.125 38.671875 
Q 22.171875 38.671875 18.015625 34.390625 
Q 13.875 30.125 13.875 23.1875 
z
" id="ArialMT-36"/>
      </defs>
      <g style="fill:#262626;" transform="translate(500.158594 290.877812)scale(0.1 -0.1)">
       <use xlink:href="#ArialMT-36"/>
       <use x="55.615234" xlink:href="#ArialMT-30"/>
       <use x="111.230469" xlink:href="#ArialMT-30"/>
      </g>
     </g>
    </g>
    <g id="xtick_8">
     <g id="line2d_8">
      <g>
       <use style="fill:#262626;stroke:#262626;" x="578.25" xlink:href="#m1ea77f65d7" y="270.72"/>
      </g>
     </g>
     <g id="text_8">
      <!-- 700 -->
      <defs>
       <path d="M 4.734375 62.203125 
L 4.734375 70.65625 
L 51.078125 70.65625 
L 51.078125 63.8125 
Q 44.234375 56.546875 37.515625 44.484375 
Q 30.8125 32.421875 27.15625 19.671875 
Q 24.515625 10.6875 23.78125 0 
L 14.75 0 
Q 14.890625 8.453125 18.0625 20.40625 
Q 21.234375 32.375 27.171875 43.484375 
Q 33.109375 54.59375 39.796875 62.203125 
z
" id="ArialMT-37"/>
      </defs>
      <g style="fill:#262626;" transform="translate(569.908594 290.877812)scale(0.1 -0.1)">
       <use xlink:href="#ArialMT-37"/>
       <use x="55.615234" xlink:href="#ArialMT-30"/>
       <use x="111.230469" xlink:href="#ArialMT-30"/>
      </g>
     </g>
    </g>
    <g id="xtick_9">
     <g id="line2d_9">
      <g>
       <use style="fill:#262626;stroke:#262626;" x="648" xlink:href="#m1ea77f65d7" y="270.72"/>
      </g>
     </g>
     <g id="text_9">
      <!-- 800 -->
      <defs>
       <path d="M 17.671875 38.8125 
Q 12.203125 40.828125 9.5625 44.53125 
Q 6.9375 48.25 6.9375 53.421875 
Q 6.9375 61.234375 12.546875 66.546875 
Q 18.171875 71.875 27.484375 71.875 
Q 36.859375 71.875 42.578125 66.421875 
Q 48.296875 60.984375 48.296875 53.171875 
Q 48.296875 48.1875 45.671875 44.5 
Q 43.0625 40.828125 37.75 38.8125 
Q 44.34375 36.671875 47.78125 31.875 
Q 51.21875 27.09375 51.21875 20.453125 
Q 51.21875 11.28125 44.71875 5.03125 
Q 38.234375 -1.21875 27.640625 -1.21875 
Q 17.046875 -1.21875 10.546875 5.046875 
Q 4.046875 11.328125 4.046875 20.703125 
Q 4.046875 27.6875 7.59375 32.390625 
Q 11.140625 37.109375 17.671875 38.8125 
z
M 15.921875 53.71875 
Q 15.921875 48.640625 19.1875 45.40625 
Q 22.46875 42.1875 27.6875 42.1875 
Q 32.765625 42.1875 36.015625 45.375 
Q 39.265625 48.578125 39.265625 53.21875 
Q 39.265625 58.0625 35.90625 61.359375 
Q 32.5625 64.65625 27.59375 64.65625 
Q 22.5625 64.65625 19.234375 61.421875 
Q 15.921875 58.203125 15.921875 53.71875 
z
M 13.09375 20.65625 
Q 13.09375 16.890625 14.875 13.375 
Q 16.65625 9.859375 20.171875 7.921875 
Q 23.6875 6 27.734375 6 
Q 34.03125 6 38.125 10.046875 
Q 42.234375 14.109375 42.234375 20.359375 
Q 42.234375 26.703125 38.015625 30.859375 
Q 33.796875 35.015625 27.4375 35.015625 
Q 21.234375 35.015625 17.15625 30.90625 
Q 13.09375 26.8125 13.09375 20.65625 
z
" id="ArialMT-38"/>
      </defs>
      <g style="fill:#262626;" transform="translate(639.658594 290.877812)scale(0.1 -0.1)">
       <use xlink:href="#ArialMT-38"/>
       <use x="55.615234" xlink:href="#ArialMT-30"/>
       <use x="111.230469" xlink:href="#ArialMT-30"/>
      </g>
     </g>
    </g>
   </g>
   <g id="matplotlib.axis_2">
    <g id="ytick_1">
     <g id="line2d_10">
      <defs>
       <path d="M 0 0 
L -6 0 
" id="m9e26ba2f5a" style="stroke:#262626;"/>
      </defs>
      <g>
       <use style="fill:#262626;stroke:#262626;" x="90" xlink:href="#m9e26ba2f5a" y="250.56"/>
      </g>
     </g>
     <g id="text_10">
      <!-- −0.04 -->
      <defs>
       <path d="M 52.828125 31.203125 
L 5.5625 31.203125 
L 5.5625 39.40625 
L 52.828125 39.40625 
z
" id="ArialMT-2212"/>
       <path d="M 9.078125 0 
L 9.078125 10.015625 
L 19.09375 10.015625 
L 19.09375 0 
z
" id="ArialMT-2e"/>
      </defs>
      <g style="fill:#262626;" transform="translate(51.698437 254.138906)scale(0.1 -0.1)">
       <use xlink:href="#ArialMT-2212"/>
       <use x="58.398438" xlink:href="#ArialMT-30"/>
       <use x="114.013672" xlink:href="#ArialMT-2e"/>
       <use x="141.796875" xlink:href="#ArialMT-30"/>
       <use x="197.412109" xlink:href="#ArialMT-34"/>
      </g>
     </g>
    </g>
    <g id="ytick_2">
     <g id="line2d_11">
      <g>
       <use style="fill:#262626;stroke:#262626;" x="90" xlink:href="#m9e26ba2f5a" y="210.24"/>
      </g>
     </g>
     <g id="text_11">
      <!-- −0.02 -->
      <g style="fill:#262626;" transform="translate(51.698437 213.818906)scale(0.1 -0.1)">
       <use xlink:href="#ArialMT-2212"/>
       <use x="58.398438" xlink:href="#ArialMT-30"/>
       <use x="114.013672" xlink:href="#ArialMT-2e"/>
       <use x="141.796875" xlink:href="#ArialMT-30"/>
       <use x="197.412109" xlink:href="#ArialMT-32"/>
      </g>
     </g>
    </g>
    <g id="ytick_3">
     <g id="line2d_12">
      <g>
       <use style="fill:#262626;stroke:#262626;" x="90" xlink:href="#m9e26ba2f5a" y="169.92"/>
      </g>
     </g>
     <g id="text_12">
      <!-- 0.00 -->
      <g style="fill:#262626;" transform="translate(57.539062 173.498906)scale(0.1 -0.1)">
       <use xlink:href="#ArialMT-30"/>
       <use x="55.615234" xlink:href="#ArialMT-2e"/>
       <use x="83.398438" xlink:href="#ArialMT-30"/>
       <use x="139.013672" xlink:href="#ArialMT-30"/>
      </g>
     </g>
    </g>
    <g id="ytick_4">
     <g id="line2d_13">
      <g>
       <use style="fill:#262626;stroke:#262626;" x="90" xlink:href="#m9e26ba2f5a" y="129.6"/>
      </g>
     </g>
     <g id="text_13">
      <!-- 0.02 -->
      <g style="fill:#262626;" transform="translate(57.539062 133.178906)scale(0.1 -0.1)">
       <use xlink:href="#ArialMT-30"/>
       <use x="55.615234" xlink:href="#ArialMT-2e"/>
       <use x="83.398438" xlink:href="#ArialMT-30"/>
       <use x="139.013672" xlink:href="#ArialMT-32"/>
      </g>
     </g>
    </g>
    <g id="ytick_5">
     <g id="line2d_14">
      <g>
       <use style="fill:#262626;stroke:#262626;" x="90" xlink:href="#m9e26ba2f5a" y="89.28"/>
      </g>
     </g>
     <g id="text_14">
      <!-- 0.04 -->
      <g style="fill:#262626;" transform="translate(57.539062 92.858906)scale(0.1 -0.1)">
       <use xlink:href="#ArialMT-30"/>
       <use x="55.615234" xlink:href="#ArialMT-2e"/>
       <use x="83.398438" xlink:href="#ArialMT-30"/>
       <use x="139.013672" xlink:href="#ArialMT-34"/>
      </g>
     </g>
    </g>
   </g>
   <g id="PolyCollection_1">
    <path clip-path="url(#p7273cafc21)" d="M 90 142.495457 
L 90 169.92 
L 90.6975 169.92 
L 91.395 169.92 
L 92.0925 169.92 
L 92.79 169.92 
L 93.4875 169.92 
L 94.185 169.92 
L 94.8825 169.92 
L 95.58 169.92 
L 96.2775 169.92 
L 96.975 169.92 
L 97.6725 169.92 
L 98.37 169.92 
L 99.0675 169.92 
L 99.765 169.92 
L 100.4625 169.92 
L 101.16 169.92 
L 101.8575 169.92 
L 102.555 169.92 
L 103.2525 169.92 
L 103.95 169.92 
L 104.6475 169.92 
L 105.345 169.92 
L 106.0425 169.92 
L 106.74 169.92 
L 107.4375 169.92 
L 108.135 169.92 
L 108.8325 169.92 
L 109.53 169.92 
L 110.2275 169.92 
L 110.925 169.92 
L 111.6225 169.92 
L 112.32 169.92 
L 113.0175 169.92 
L 113.715 169.92 
L 114.4125 169.92 
L 115.11 169.92 
L 115.8075 169.92 
L 116.505 169.92 
L 117.2025 169.92 
L 117.9 169.92 
L 118.5975 169.92 
L 119.295 169.92 
L 119.9925 169.92 
L 120.69 169.92 
L 121.3875 169.92 
L 122.085 169.92 
L 122.7825 169.92 
L 123.48 169.92 
L 124.1775 169.92 
L 124.875 169.92 
L 125.5725 169.92 
L 126.27 169.92 
L 126.9675 169.92 
L 127.665 169.92 
L 128.3625 169.92 
L 129.06 169.92 
L 129.7575 169.92 
L 130.455 169.92 
L 131.1525 169.92 
L 131.85 169.92 
L 132.5475 169.92 
L 133.245 169.92 
L 133.9425 169.92 
L 134.64 169.92 
L 135.3375 169.92 
L 136.035 169.92 
L 136.7325 169.92 
L 137.43 169.92 
L 138.1275 169.92 
L 138.825 169.92 
L 139.5225 169.92 
L 140.22 169.92 
L 140.9175 169.92 
L 141.615 169.92 
L 142.3125 169.92 
L 143.01 169.92 
L 143.7075 169.92 
L 144.405 169.92 
L 145.1025 169.92 
L 145.8 169.92 
L 146.4975 169.92 
L 147.195 169.92 
L 147.8925 169.92 
L 148.59 169.92 
L 149.2875 169.92 
L 149.985 169.92 
L 150.6825 169.92 
L 151.38 169.92 
L 152.0775 169.92 
L 152.775 169.92 
L 153.4725 169.92 
L 154.17 169.92 
L 154.8675 169.92 
L 155.565 169.92 
L 156.2625 169.92 
L 156.96 169.92 
L 157.6575 169.92 
L 158.355 169.92 
L 159.0525 169.92 
L 159.75 169.92 
L 160.4475 169.92 
L 161.145 169.92 
L 161.8425 169.92 
L 162.54 169.92 
L 163.2375 169.92 
L 163.935 169.92 
L 164.6325 169.92 
L 165.33 169.92 
L 166.0275 169.92 
L 166.725 169.92 
L 167.4225 169.92 
L 168.12 169.92 
L 168.8175 169.92 
L 169.515 169.92 
L 170.2125 169.92 
L 170.91 169.92 
L 171.6075 169.92 
L 172.305 169.92 
L 173.0025 169.92 
L 173.7 169.92 
L 174.3975 169.92 
L 175.095 169.92 
L 175.7925 169.92 
L 176.49 169.92 
L 177.1875 169.92 
L 177.885 169.92 
L 178.5825 169.92 
L 179.28 169.92 
L 179.9775 169.92 
L 180.675 169.92 
L 181.3725 169.92 
L 182.07 169.92 
L 182.7675 169.92 
L 183.465 169.92 
L 184.1625 169.92 
L 184.86 169.92 
L 185.5575 169.92 
L 186.255 169.92 
L 186.9525 169.92 
L 187.65 169.92 
L 188.3475 169.92 
L 189.045 169.92 
L 189.7425 169.92 
L 190.44 169.92 
L 191.1375 169.92 
L 191.835 169.92 
L 192.5325 169.92 
L 193.23 169.92 
L 193.9275 169.92 
L 194.625 169.92 
L 195.3225 169.92 
L 196.02 169.92 
L 196.7175 169.92 
L 197.415 169.92 
L 198.1125 169.92 
L 198.81 169.92 
L 199.5075 169.92 
L 200.205 169.92 
L 200.9025 169.92 
L 201.6 169.92 
L 202.2975 169.92 
L 202.995 169.92 
L 203.6925 169.92 
L 204.39 169.92 
L 205.0875 169.92 
L 205.785 169.92 
L 206.4825 169.92 
L 207.18 169.92 
L 207.8775 169.92 
L 208.575 169.92 
L 209.2725 169.92 
L 209.97 169.92 
L 210.6675 169.92 
L 211.365 169.92 
L 212.0625 169.92 
L 212.76 169.92 
L 213.4575 169.92 
L 214.155 169.92 
L 214.8525 169.92 
L 215.55 169.92 
L 216.2475 169.92 
L 216.945 169.92 
L 217.6425 169.92 
L 218.34 169.92 
L 219.0375 169.92 
L 219.735 169.92 
L 220.4325 169.92 
L 221.13 169.92 
L 221.8275 169.92 
L 222.525 169.92 
L 223.2225 169.92 
L 223.92 169.92 
L 224.6175 169.92 
L 225.315 169.92 
L 226.0125 169.92 
L 226.71 169.92 
L 227.4075 169.92 
L 228.105 169.92 
L 228.8025 169.92 
L 229.5 169.92 
L 230.1975 169.92 
L 230.895 169.92 
L 231.5925 169.92 
L 232.29 169.92 
L 232.9875 169.92 
L 233.685 169.92 
L 234.3825 169.92 
L 235.08 169.92 
L 235.7775 169.92 
L 236.475 169.92 
L 237.1725 169.92 
L 237.87 169.92 
L 238.5675 169.92 
L 239.265 169.92 
L 239.9625 169.92 
L 240.66 169.92 
L 241.3575 169.92 
L 242.055 169.92 
L 242.7525 169.92 
L 243.45 169.92 
L 244.1475 169.92 
L 244.845 169.92 
L 245.5425 169.92 
L 246.24 169.92 
L 246.9375 169.92 
L 247.635 169.92 
L 248.3325 169.92 
L 249.03 169.92 
L 249.7275 169.92 
L 250.425 169.92 
L 251.1225 169.92 
L 251.82 169.92 
L 252.5175 169.92 
L 253.215 169.92 
L 253.9125 169.92 
L 254.61 169.92 
L 255.3075 169.92 
L 256.005 169.92 
L 256.7025 169.92 
L 257.4 169.92 
L 258.0975 169.92 
L 258.795 169.92 
L 259.4925 169.92 
L 260.19 169.92 
L 260.8875 169.92 
L 261.585 169.92 
L 262.2825 169.92 
L 262.98 169.92 
L 263.6775 169.92 
L 264.375 169.92 
L 265.0725 169.92 
L 265.77 169.92 
L 266.4675 169.92 
L 267.165 169.92 
L 267.8625 169.92 
L 268.56 169.92 
L 269.2575 169.92 
L 269.955 169.92 
L 270.6525 169.92 
L 271.35 169.92 
L 272.0475 169.92 
L 272.745 169.92 
L 273.4425 169.92 
L 274.14 169.92 
L 274.8375 169.92 
L 275.535 169.92 
L 276.2325 169.92 
L 276.93 169.92 
L 277.6275 169.92 
L 278.325 169.92 
L 279.0225 169.92 
L 279.72 169.92 
L 280.4175 169.92 
L 281.115 169.92 
L 281.8125 169.92 
L 282.51 169.92 
L 283.2075 169.92 
L 283.905 169.92 
L 284.6025 169.92 
L 285.3 169.92 
L 285.9975 169.92 
L 286.695 169.92 
L 287.3925 169.92 
L 288.09 169.92 
L 288.7875 169.92 
L 289.485 169.92 
L 290.1825 169.92 
L 290.88 169.92 
L 291.5775 169.92 
L 292.275 169.92 
L 292.9725 169.92 
L 293.67 169.92 
L 294.3675 169.92 
L 295.065 169.92 
L 295.7625 169.92 
L 296.46 169.92 
L 297.1575 169.92 
L 297.855 169.92 
L 298.5525 169.92 
L 299.25 169.92 
L 299.9475 169.92 
L 300.645 169.92 
L 301.3425 169.92 
L 302.04 169.92 
L 302.7375 169.92 
L 303.435 169.92 
L 304.1325 169.92 
L 304.83 169.92 
L 305.5275 169.92 
L 306.225 169.92 
L 306.9225 169.92 
L 307.62 169.92 
L 308.3175 169.92 
L 309.015 169.92 
L 309.7125 169.92 
L 310.41 169.92 
L 311.1075 169.92 
L 311.805 169.92 
L 312.5025 169.92 
L 313.2 169.92 
L 313.8975 169.92 
L 314.595 169.92 
L 315.2925 169.92 
L 315.99 169.92 
L 316.6875 169.92 
L 317.385 169.92 
L 318.0825 169.92 
L 318.78 169.92 
L 319.4775 169.92 
L 320.175 169.92 
L 320.8725 169.92 
L 321.57 169.92 
L 322.2675 169.92 
L 322.965 169.92 
L 323.6625 169.92 
L 324.36 169.92 
L 325.0575 169.92 
L 325.755 169.92 
L 326.4525 169.92 
L 327.15 169.92 
L 327.8475 169.92 
L 328.545 169.92 
L 329.2425 169.92 
L 329.94 169.92 
L 330.6375 169.92 
L 331.335 169.92 
L 332.0325 169.92 
L 332.73 169.92 
L 333.4275 169.92 
L 334.125 169.92 
L 334.8225 169.92 
L 335.52 169.92 
L 336.2175 169.92 
L 336.915 169.92 
L 337.6125 169.92 
L 338.31 169.92 
L 339.0075 169.92 
L 339.705 169.92 
L 340.4025 169.92 
L 341.1 169.92 
L 341.7975 169.92 
L 342.495 169.92 
L 343.1925 169.92 
L 343.89 169.92 
L 344.5875 169.92 
L 345.285 169.92 
L 345.9825 169.92 
L 346.68 169.92 
L 347.3775 169.92 
L 348.075 169.92 
L 348.7725 169.92 
L 349.47 169.92 
L 350.1675 169.92 
L 350.865 169.92 
L 351.5625 169.92 
L 352.26 169.92 
L 352.9575 169.92 
L 353.655 169.92 
L 354.3525 169.92 
L 355.05 169.92 
L 355.7475 169.92 
L 356.445 169.92 
L 357.1425 169.92 
L 357.84 169.92 
L 358.5375 169.92 
L 359.235 169.92 
L 359.9325 169.92 
L 360.63 169.92 
L 361.3275 169.92 
L 362.025 169.92 
L 362.7225 169.92 
L 363.42 169.92 
L 364.1175 169.92 
L 364.815 169.92 
L 365.5125 169.92 
L 366.21 169.92 
L 366.9075 169.92 
L 367.605 169.92 
L 368.3025 169.92 
L 369 169.92 
L 369.6975 169.92 
L 370.395 169.92 
L 371.0925 169.92 
L 371.79 169.92 
L 372.4875 169.92 
L 373.185 169.92 
L 373.8825 169.92 
L 374.58 169.92 
L 375.2775 169.92 
L 375.975 169.92 
L 376.6725 169.92 
L 377.37 169.92 
L 378.0675 169.92 
L 378.765 169.92 
L 379.4625 169.92 
L 380.16 169.92 
L 380.8575 169.92 
L 381.555 169.92 
L 382.2525 169.92 
L 382.95 169.92 
L 383.6475 169.92 
L 384.345 169.92 
L 385.0425 169.92 
L 385.74 169.92 
L 386.4375 169.92 
L 387.135 169.92 
L 387.8325 169.92 
L 388.53 169.92 
L 389.2275 169.92 
L 389.925 169.92 
L 390.6225 169.92 
L 391.32 169.92 
L 392.0175 169.92 
L 392.715 169.92 
L 393.4125 169.92 
L 394.11 169.92 
L 394.8075 169.92 
L 395.505 169.92 
L 396.2025 169.92 
L 396.9 169.92 
L 397.5975 169.92 
L 398.295 169.92 
L 398.9925 169.92 
L 399.69 169.92 
L 400.3875 169.92 
L 401.085 169.92 
L 401.7825 169.92 
L 402.48 169.92 
L 403.1775 169.92 
L 403.875 169.92 
L 404.5725 169.92 
L 405.27 169.92 
L 405.9675 169.92 
L 406.665 169.92 
L 407.3625 169.92 
L 408.06 169.92 
L 408.7575 169.92 
L 409.455 169.92 
L 410.1525 169.92 
L 410.85 169.92 
L 411.5475 169.92 
L 412.245 169.92 
L 412.9425 169.92 
L 413.64 169.92 
L 414.3375 169.92 
L 415.035 169.92 
L 415.7325 169.92 
L 416.43 169.92 
L 417.1275 169.92 
L 417.825 169.92 
L 418.5225 169.92 
L 419.22 169.92 
L 419.9175 169.92 
L 420.615 169.92 
L 421.3125 169.92 
L 422.01 169.92 
L 422.7075 169.92 
L 423.405 169.92 
L 424.1025 169.92 
L 424.8 169.92 
L 425.4975 169.92 
L 426.195 169.92 
L 426.8925 169.92 
L 427.59 169.92 
L 428.2875 169.92 
L 428.985 169.92 
L 429.6825 169.92 
L 430.38 169.92 
L 431.0775 169.92 
L 431.775 169.92 
L 432.4725 169.92 
L 433.17 169.92 
L 433.8675 169.92 
L 434.565 169.92 
L 435.2625 169.92 
L 435.96 169.92 
L 436.6575 169.92 
L 437.355 169.92 
L 438.0525 169.92 
L 438.75 169.92 
L 439.4475 169.92 
L 440.145 169.92 
L 440.8425 169.92 
L 441.54 169.92 
L 442.2375 169.92 
L 442.935 169.92 
L 443.6325 169.92 
L 444.33 169.92 
L 445.0275 169.92 
L 445.725 169.92 
L 446.4225 169.92 
L 447.12 169.92 
L 447.8175 169.92 
L 448.515 169.92 
L 449.2125 169.92 
L 449.91 169.92 
L 450.6075 169.92 
L 451.305 169.92 
L 452.0025 169.92 
L 452.7 169.92 
L 453.3975 169.92 
L 454.095 169.92 
L 454.7925 169.92 
L 455.49 169.92 
L 456.1875 169.92 
L 456.885 169.92 
L 457.5825 169.92 
L 458.28 169.92 
L 458.9775 169.92 
L 459.675 169.92 
L 460.3725 169.92 
L 461.07 169.92 
L 461.7675 169.92 
L 462.465 169.92 
L 463.1625 169.92 
L 463.86 169.92 
L 464.5575 169.92 
L 465.255 169.92 
L 465.9525 169.92 
L 466.65 169.92 
L 467.3475 169.92 
L 468.045 169.92 
L 468.7425 169.92 
L 469.44 169.92 
L 470.1375 169.92 
L 470.835 169.92 
L 471.5325 169.92 
L 472.23 169.92 
L 472.9275 169.92 
L 473.625 169.92 
L 474.3225 169.92 
L 475.02 169.92 
L 475.7175 169.92 
L 476.415 169.92 
L 477.1125 169.92 
L 477.81 169.92 
L 478.5075 169.92 
L 479.205 169.92 
L 479.9025 169.92 
L 480.6 169.92 
L 481.2975 169.92 
L 481.995 169.92 
L 482.6925 169.92 
L 483.39 169.92 
L 484.0875 169.92 
L 484.785 169.92 
L 485.4825 169.92 
L 486.18 169.92 
L 486.8775 169.92 
L 487.575 169.92 
L 488.2725 169.92 
L 488.97 169.92 
L 489.6675 169.92 
L 490.365 169.92 
L 491.0625 169.92 
L 491.76 169.92 
L 492.4575 169.92 
L 493.155 169.92 
L 493.8525 169.92 
L 494.55 169.92 
L 495.2475 169.92 
L 495.945 169.92 
L 496.6425 169.92 
L 497.34 169.92 
L 498.0375 169.92 
L 498.735 169.92 
L 499.4325 169.92 
L 500.13 169.92 
L 500.8275 169.92 
L 501.525 169.92 
L 502.2225 169.92 
L 502.92 169.92 
L 503.6175 169.92 
L 504.315 169.92 
L 505.0125 169.92 
L 505.71 169.92 
L 506.4075 169.92 
L 507.105 169.92 
L 507.8025 169.92 
L 508.5 169.92 
L 509.1975 169.92 
L 509.895 169.92 
L 510.5925 169.92 
L 511.29 169.92 
L 511.9875 169.92 
L 512.685 169.92 
L 513.3825 169.92 
L 514.08 169.92 
L 514.7775 169.92 
L 515.475 169.92 
L 516.1725 169.92 
L 516.87 169.92 
L 517.5675 169.92 
L 518.265 169.92 
L 518.9625 169.92 
L 519.66 169.92 
L 520.3575 169.92 
L 521.055 169.92 
L 521.7525 169.92 
L 522.45 169.92 
L 523.1475 169.92 
L 523.845 169.92 
L 524.5425 169.92 
L 525.24 169.92 
L 525.9375 169.92 
L 526.635 169.92 
L 527.3325 169.92 
L 528.03 169.92 
L 528.7275 169.92 
L 529.425 169.92 
L 530.1225 169.92 
L 530.82 169.92 
L 531.5175 169.92 
L 532.215 169.92 
L 532.9125 169.92 
L 533.61 169.92 
L 534.3075 169.92 
L 535.005 169.92 
L 535.7025 169.92 
L 536.4 169.92 
L 537.0975 169.92 
L 537.795 169.92 
L 538.4925 169.92 
L 539.19 169.92 
L 539.8875 169.92 
L 540.585 169.92 
L 541.2825 169.92 
L 541.98 169.92 
L 542.6775 169.92 
L 543.375 169.92 
L 544.0725 169.92 
L 544.77 169.92 
L 545.4675 169.92 
L 546.165 169.92 
L 546.8625 169.92 
L 547.56 169.92 
L 548.2575 169.92 
L 548.955 169.92 
L 549.6525 169.92 
L 550.35 169.92 
L 551.0475 169.92 
L 551.745 169.92 
L 552.4425 169.92 
L 553.14 169.92 
L 553.8375 169.92 
L 554.535 169.92 
L 555.2325 169.92 
L 555.93 169.92 
L 556.6275 169.92 
L 557.325 169.92 
L 558.0225 169.92 
L 558.72 169.92 
L 559.4175 169.92 
L 560.115 169.92 
L 560.8125 169.92 
L 561.51 169.92 
L 562.2075 169.92 
L 562.905 169.92 
L 563.6025 169.92 
L 564.3 169.92 
L 564.9975 169.92 
L 565.695 169.92 
L 566.3925 169.92 
L 567.09 169.92 
L 567.7875 169.92 
L 568.485 169.92 
L 569.1825 169.92 
L 569.88 169.92 
L 570.5775 169.92 
L 571.275 169.92 
L 571.9725 169.92 
L 572.67 169.92 
L 573.3675 169.92 
L 574.065 169.92 
L 574.7625 169.92 
L 575.46 169.92 
L 576.1575 169.92 
L 576.855 169.92 
L 577.5525 169.92 
L 578.25 169.92 
L 578.9475 169.92 
L 579.645 169.92 
L 580.3425 169.92 
L 581.04 169.92 
L 581.7375 169.92 
L 582.435 169.92 
L 583.1325 169.92 
L 583.83 169.92 
L 584.5275 169.92 
L 585.225 169.92 
L 585.9225 169.92 
L 586.62 169.92 
L 587.3175 169.92 
L 588.015 169.92 
L 588.7125 169.92 
L 589.41 169.92 
L 590.1075 169.92 
L 590.805 169.92 
L 591.5025 169.92 
L 592.2 169.92 
L 592.8975 169.92 
L 593.595 169.92 
L 594.2925 169.92 
L 594.99 169.92 
L 595.6875 169.92 
L 596.385 169.92 
L 597.0825 169.92 
L 597.78 169.92 
L 598.4775 169.92 
L 599.175 169.92 
L 599.8725 169.92 
L 600.57 169.92 
L 601.2675 169.92 
L 601.965 169.92 
L 602.6625 169.92 
L 603.36 169.92 
L 604.0575 169.92 
L 604.755 169.92 
L 605.4525 169.92 
L 606.15 169.92 
L 606.8475 169.92 
L 607.545 169.92 
L 608.2425 169.92 
L 608.94 169.92 
L 609.6375 169.92 
L 610.335 169.92 
L 611.0325 169.92 
L 611.73 169.92 
L 612.4275 169.92 
L 613.125 169.92 
L 613.8225 169.92 
L 614.52 169.92 
L 615.2175 169.92 
L 615.915 169.92 
L 616.6125 169.92 
L 617.31 169.92 
L 618.0075 169.92 
L 618.705 169.92 
L 619.4025 169.92 
L 620.1 169.92 
L 620.7975 169.92 
L 621.495 169.92 
L 622.1925 169.92 
L 622.89 169.92 
L 623.5875 169.92 
L 624.285 169.92 
L 624.9825 169.92 
L 625.68 169.92 
L 626.3775 169.92 
L 627.075 169.92 
L 627.7725 169.92 
L 628.47 169.92 
L 629.1675 169.92 
L 629.865 169.92 
L 630.5625 169.92 
L 631.26 169.92 
L 631.9575 169.92 
L 632.655 169.92 
L 633.3525 169.92 
L 634.05 169.92 
L 634.7475 169.92 
L 635.445 169.92 
L 636.1425 169.92 
L 636.84 169.92 
L 637.5375 169.92 
L 638.235 169.92 
L 638.9325 169.92 
L 639.63 169.92 
L 640.3275 169.92 
L 641.025 169.92 
L 641.7225 169.92 
L 642.42 169.92 
L 643.1175 169.92 
L 643.815 169.92 
L 644.5125 169.92 
L 645.21 169.92 
L 645.9075 169.92 
L 646.605 169.92 
L 646.605 169.92 
L 646.605 169.92 
L 645.9075 169.937353 
L 645.21 169.983611 
L 644.5125 170.043303 
L 643.815 170.118299 
L 643.1175 170.212381 
L 642.42 170.317745 
L 641.7225 170.432358 
L 641.025 170.569606 
L 640.3275 170.72164 
L 639.63 170.886384 
L 638.9325 171.073316 
L 638.235 171.270683 
L 637.5375 171.486005 
L 636.84 171.715213 
L 636.1425 171.96001 
L 635.445 172.220157 
L 634.7475 172.493468 
L 634.05 172.775821 
L 633.3525 173.065008 
L 632.655 173.372315 
L 631.9575 173.689727 
L 631.26 174.020788 
L 630.5625 174.367103 
L 629.865 174.730257 
L 629.1675 175.098327 
L 628.47 175.48059 
L 627.7725 175.874744 
L 627.075 176.286185 
L 626.3775 176.702941 
L 625.68 177.132314 
L 624.9825 177.570027 
L 624.285 178.011793 
L 623.5875 178.470675 
L 622.89 178.934654 
L 622.1925 179.409057 
L 621.495 179.891492 
L 620.7975 180.377627 
L 620.1 180.861201 
L 619.4025 181.355236 
L 618.705 181.849605 
L 618.0075 182.34768 
L 617.31 182.843186 
L 616.6125 183.333709 
L 615.915 183.828407 
L 615.2175 184.317153 
L 614.52 184.801397 
L 613.8225 185.286446 
L 613.125 185.767967 
L 612.4275 186.241631 
L 611.73 186.708902 
L 611.0325 187.17896 
L 610.335 187.64556 
L 609.6375 188.102458 
L 608.94 188.554991 
L 608.2425 188.998857 
L 607.545 189.429764 
L 606.8475 189.85693 
L 606.15 190.278006 
L 605.4525 190.688723 
L 604.755 191.07518 
L 604.0575 191.454351 
L 603.36 191.810438 
L 602.6625 192.152732 
L 601.965 192.473185 
L 601.2675 192.775338 
L 600.57 193.056965 
L 599.8725 193.315862 
L 599.175 193.555632 
L 598.4775 193.764469 
L 597.78 193.957593 
L 597.0825 194.119391 
L 596.385 194.257414 
L 595.6875 194.367672 
L 594.99 194.450056 
L 594.2925 194.51027 
L 593.595 194.538614 
L 592.8975 194.540843 
L 592.2 194.511173 
L 591.5025 194.443847 
L 590.805 194.350501 
L 590.1075 194.229298 
L 589.41 194.0765 
L 588.7125 193.888403 
L 588.015 193.672902 
L 587.3175 193.432138 
L 586.62 193.158635 
L 585.9225 192.852662 
L 585.225 192.508734 
L 584.5275 192.131046 
L 583.83 191.723826 
L 583.1325 191.291329 
L 582.435 190.832052 
L 581.7375 190.34259 
L 581.04 189.823425 
L 580.3425 189.275066 
L 579.645 188.692267 
L 578.9475 188.081385 
L 578.25 187.437237 
L 577.5525 186.760454 
L 576.855 186.061343 
L 576.1575 185.329022 
L 575.46 184.577706 
L 574.7625 183.790782 
L 574.065 182.972877 
L 573.3675 182.128652 
L 572.67 181.253153 
L 571.9725 180.360735 
L 571.275 179.442635 
L 570.5775 178.497827 
L 569.88 177.525311 
L 569.1825 176.535682 
L 568.485 175.518345 
L 567.7875 174.474299 
L 567.09 173.416138 
L 566.3925 172.33719 
L 565.695 171.238514 
L 564.9975 170.125045 
L 564.3 169.003663 
L 563.6025 167.867756 
L 562.905 166.714584 
L 562.2075 165.556848 
L 561.51 164.387974 
L 560.8125 163.212966 
L 560.115 162.034907 
L 559.4175 160.853025 
L 558.72 159.672338 
L 558.0225 158.486294 
L 557.325 157.305698 
L 556.6275 156.120141 
L 555.93 154.942357 
L 555.2325 153.761934 
L 554.535 152.587744 
L 553.8375 151.422869 
L 553.14 150.260741 
L 552.4425 149.115999 
L 551.745 147.974341 
L 551.0475 146.850387 
L 550.35 145.735599 
L 549.6525 144.642643 
L 548.955 143.56295 
L 548.2575 142.493726 
L 547.56 141.445662 
L 546.8625 140.419786 
L 546.165 139.41518 
L 545.4675 138.428973 
L 544.77 137.46599 
L 544.0725 136.52525 
L 543.375 135.609605 
L 542.6775 134.718026 
L 541.98 133.86103 
L 541.2825 133.025961 
L 540.585 132.221354 
L 539.8875 131.447997 
L 539.19 130.704724 
L 538.4925 129.999975 
L 537.795 129.330589 
L 537.0975 128.699149 
L 536.4 128.106277 
L 535.7025 127.554484 
L 535.005 127.038526 
L 534.3075 126.568552 
L 533.61 126.133454 
L 532.9125 125.745228 
L 532.215 125.394616 
L 531.5175 125.091602 
L 530.82 124.834557 
L 530.1225 124.621803 
L 529.425 124.461264 
L 528.7275 124.341527 
L 528.03 124.270423 
L 527.3325 124.246094 
L 526.635 124.266635 
L 525.9375 124.330099 
L 525.24 124.440278 
L 524.5425 124.595138 
L 523.845 124.796453 
L 523.1475 125.045954 
L 522.45 125.335683 
L 521.7525 125.669212 
L 521.055 126.042358 
L 520.3575 126.458609 
L 519.66 126.919486 
L 518.9625 127.422606 
L 518.265 127.965548 
L 517.5675 128.555491 
L 516.87 129.187999 
L 516.1725 129.858594 
L 515.475 130.57433 
L 514.7775 131.332576 
L 514.08 132.132587 
L 513.3825 132.973577 
L 512.685 133.850864 
L 511.9875 134.761657 
L 511.29 135.706989 
L 510.5925 136.68979 
L 509.895 137.712948 
L 509.1975 138.769675 
L 508.5 139.864717 
L 507.8025 140.987357 
L 507.105 142.149989 
L 506.4075 143.34376 
L 505.71 144.569423 
L 505.0125 145.819991 
L 504.315 147.101948 
L 503.6175 148.414034 
L 502.92 149.749175 
L 502.2225 151.11763 
L 501.525 152.508412 
L 500.8275 153.924012 
L 500.13 155.357255 
L 499.4325 156.80866 
L 498.735 158.282587 
L 498.0375 159.775659 
L 497.34 161.286409 
L 496.6425 162.811426 
L 495.945 164.353066 
L 495.2475 165.909816 
L 494.55 167.484003 
L 493.8525 169.062511 
L 493.155 170.65343 
L 492.4575 172.243628 
L 491.76 173.843112 
L 491.0625 175.444527 
L 490.365 177.046299 
L 489.6675 178.644925 
L 488.97 180.242693 
L 488.2725 181.834176 
L 487.575 183.419739 
L 486.8775 185.005537 
L 486.18 186.586154 
L 485.4825 188.156184 
L 484.785 189.714082 
L 484.0875 191.264103 
L 483.39 192.800867 
L 482.6925 194.31901 
L 481.995 195.817039 
L 481.2975 197.297339 
L 480.6 198.7546 
L 479.9025 200.189317 
L 479.205 201.598154 
L 478.5075 202.983583 
L 477.81 204.338457 
L 477.1125 205.665303 
L 476.415 206.958961 
L 475.7175 208.225871 
L 475.02 209.45515 
L 474.3225 210.647517 
L 473.625 211.801801 
L 472.9275 212.914941 
L 472.23 213.985841 
L 471.5325 215.013451 
L 470.835 216.006401 
L 470.1375 216.954075 
L 469.44 217.857471 
L 468.7425 218.719557 
L 468.045 219.537559 
L 467.3475 220.306815 
L 466.65 221.030427 
L 465.9525 221.71154 
L 465.255 222.349486 
L 464.5575 222.937852 
L 463.86 223.476061 
L 463.1625 223.969369 
L 462.465 224.409578 
L 461.7675 224.809752 
L 461.07 225.156003 
L 460.3725 225.449917 
L 459.675 225.691207 
L 458.9775 225.877706 
L 458.28 226.005376 
L 457.5825 226.085659 
L 456.885 226.114621 
L 456.1875 226.086449 
L 455.49 226.003098 
L 454.7925 225.874291 
L 454.095 225.690514 
L 453.3975 225.455805 
L 452.7 225.170392 
L 452.0025 224.836485 
L 451.305 224.452484 
L 450.6075 224.018767 
L 449.91 223.537686 
L 449.2125 223.007787 
L 448.515 222.431518 
L 447.8175 221.807518 
L 447.12 221.132544 
L 446.4225 220.411113 
L 445.725 219.645865 
L 445.0275 218.835621 
L 444.33 217.986963 
L 443.6325 217.093011 
L 442.935 216.154644 
L 442.2375 215.170856 
L 441.54 214.150326 
L 440.8425 213.088271 
L 440.145 211.99152 
L 439.4475 210.855366 
L 438.75 209.688637 
L 438.0525 208.482839 
L 437.355 207.243013 
L 436.6575 205.970376 
L 435.96 204.662323 
L 435.2625 203.323996 
L 434.565 201.95478 
L 433.8675 200.557949 
L 433.17 199.131019 
L 432.4725 197.679248 
L 431.775 196.200206 
L 431.0775 194.695346 
L 430.38 193.166147 
L 429.6825 191.616039 
L 428.985 190.044616 
L 428.2875 188.453422 
L 427.59 186.842093 
L 426.8925 185.21414 
L 426.195 183.57309 
L 425.4975 181.918627 
L 424.8 180.252376 
L 424.1025 178.577902 
L 423.405 176.892995 
L 422.7075 175.207022 
L 422.01 173.511999 
L 421.3125 171.813447 
L 420.615 170.113035 
L 419.9175 168.410505 
L 419.22 166.70753 
L 418.5225 165.005783 
L 417.825 163.310791 
L 417.1275 161.620365 
L 416.43 159.938092 
L 415.7325 158.263697 
L 415.035 156.594969 
L 414.3375 154.94126 
L 413.64 153.302266 
L 412.9425 151.675741 
L 412.245 150.070996 
L 411.5475 148.483823 
L 410.85 146.911924 
L 410.1525 145.360701 
L 409.455 143.831677 
L 408.7575 142.326354 
L 408.06 140.844283 
L 407.3625 139.384992 
L 406.665 137.955699 
L 405.9675 136.548167 
L 405.27 135.169564 
L 404.5725 133.817387 
L 403.875 132.49875 
L 403.1775 131.21302 
L 402.48 129.957603 
L 401.7825 128.739518 
L 401.085 127.552248 
L 400.3875 126.400816 
L 399.69 125.288281 
L 398.9925 124.209953 
L 398.295 123.168818 
L 397.5975 122.171684 
L 396.9 121.215674 
L 396.2025 120.303655 
L 395.505 119.432667 
L 394.8075 118.605494 
L 394.11 117.822949 
L 393.4125 117.078087 
L 392.715 116.379353 
L 392.0175 115.727434 
L 391.32 115.119114 
L 390.6225 114.562702 
L 389.925 114.047177 
L 389.2275 113.578829 
L 388.53 113.163904 
L 387.8325 112.797024 
L 387.135 112.478549 
L 386.4375 112.214577 
L 385.74 111.997655 
L 385.0425 111.827996 
L 384.345 111.709622 
L 383.6475 111.642651 
L 382.95 111.623291 
L 382.2525 111.649634 
L 381.555 111.723582 
L 380.8575 111.846989 
L 380.16 112.017808 
L 379.4625 112.235869 
L 378.765 112.499032 
L 378.0675 112.805108 
L 377.37 113.159582 
L 376.6725 113.556322 
L 375.975 113.998792 
L 375.2775 114.488488 
L 374.58 115.021072 
L 373.8825 115.597948 
L 373.185 116.216622 
L 372.4875 116.878414 
L 371.79 117.582674 
L 371.0925 118.326782 
L 370.395 119.110007 
L 369.6975 119.93158 
L 369 120.796477 
L 368.3025 121.694208 
L 367.605 122.635461 
L 366.9075 123.611598 
L 366.21 124.62166 
L 365.5125 125.666583 
L 364.815 126.74534 
L 364.1175 127.853016 
L 363.42 128.992378 
L 362.7225 130.162307 
L 362.025 131.361654 
L 361.3275 132.58924 
L 360.63 133.847716 
L 359.9325 135.130061 
L 359.235 136.436944 
L 358.5375 137.769008 
L 357.84 139.117232 
L 357.1425 140.488005 
L 356.445 141.874196 
L 355.7475 143.278298 
L 355.05 144.697005 
L 354.3525 146.125066 
L 353.655 147.564934 
L 352.9575 149.013268 
L 352.26 150.4725 
L 351.5625 151.943125 
L 350.865 153.417914 
L 350.1675 154.897346 
L 349.47 156.379967 
L 348.7725 157.864322 
L 348.075 159.35088 
L 347.3775 160.83818 
L 346.68 162.32669 
L 345.9825 163.813019 
L 345.285 165.293779 
L 344.5875 166.769443 
L 343.89 168.24049 
L 343.1925 169.701618 
L 342.495 171.15332 
L 341.7975 172.59417 
L 341.1 174.020824 
L 340.4025 175.435737 
L 339.705 176.837519 
L 339.0075 178.222864 
L 338.31 179.59234 
L 337.6125 180.942673 
L 336.915 182.276393 
L 336.2175 183.59219 
L 335.52 184.884914 
L 334.8225 186.153296 
L 334.125 187.39609 
L 333.4275 188.614003 
L 332.73 189.80391 
L 332.0325 190.962714 
L 331.335 192.093133 
L 330.6375 193.192129 
L 329.94 194.254765 
L 329.2425 195.283853 
L 328.545 196.284168 
L 327.8475 197.245085 
L 327.15 198.173374 
L 326.4525 199.064266 
L 325.755 199.914957 
L 325.0575 200.726541 
L 324.36 201.498219 
L 323.6625 202.229234 
L 322.965 202.918868 
L 322.2675 203.566442 
L 321.57 204.17325 
L 320.8725 204.740622 
L 320.175 205.264146 
L 319.4775 205.745235 
L 318.78 206.183416 
L 318.0825 206.576332 
L 317.385 206.925523 
L 316.6875 207.232576 
L 315.99 207.495259 
L 315.2925 207.715244 
L 314.595 207.892315 
L 313.8975 208.030153 
L 313.2 208.122838 
L 312.5025 208.168353 
L 311.805 208.166651 
L 311.1075 208.117735 
L 310.41 208.02358 
L 309.7125 207.886208 
L 309.015 207.703825 
L 308.3175 207.478538 
L 307.62 207.206713 
L 306.9225 206.892473 
L 306.225 206.534199 
L 305.5275 206.138026 
L 304.83 205.704344 
L 304.1325 205.229722 
L 303.435 204.716556 
L 302.7375 204.167278 
L 302.04 203.57857 
L 301.3425 202.95294 
L 300.645 202.291001 
L 299.9475 201.593405 
L 299.25 200.860836 
L 298.5525 200.094014 
L 297.855 199.293693 
L 297.1575 198.464515 
L 296.46 197.605366 
L 295.7625 196.717091 
L 295.065 195.798634 
L 294.3675 194.852826 
L 293.67 193.880595 
L 292.9725 192.882897 
L 292.275 191.86264 
L 291.5775 190.81697 
L 290.88 189.750771 
L 290.1825 188.661233 
L 289.485 187.553284 
L 288.7875 186.426084 
L 288.09 185.28074 
L 287.3925 184.120305 
L 286.695 182.943992 
L 285.9975 181.754884 
L 285.3 180.550293 
L 284.6025 179.337186 
L 283.905 178.114829 
L 283.2075 176.88442 
L 282.51 175.64717 
L 281.8125 174.404293 
L 281.115 173.157011 
L 280.4175 171.906549 
L 279.72 170.656063 
L 279.0225 169.404854 
L 278.325 168.154151 
L 277.6275 166.907111 
L 276.93 165.66496 
L 276.2325 164.426988 
L 275.535 163.196341 
L 274.8375 161.974227 
L 274.14 160.763776 
L 273.4425 159.564247 
L 272.745 158.374893 
L 272.0475 157.200736 
L 271.35 156.039076 
L 270.6525 154.89298 
L 269.955 153.763575 
L 269.2575 152.650042 
L 268.56 151.557331 
L 267.8625 150.486516 
L 267.165 149.440578 
L 266.4675 148.416686 
L 265.77 147.417776 
L 265.0725 146.444829 
L 264.375 145.496872 
L 263.6775 144.578693 
L 262.98 143.687337 
L 262.2825 142.821752 
L 261.585 141.986646 
L 260.8875 141.180909 
L 260.19 140.407263 
L 259.4925 139.666466 
L 258.795 138.959246 
L 258.0975 138.286299 
L 257.4 137.648286 
L 256.7025 137.045833 
L 256.005 136.479531 
L 255.3075 135.951867 
L 254.61 135.459501 
L 253.9125 135.004846 
L 253.215 134.586419 
L 252.5175 134.206561 
L 251.82 133.863717 
L 251.1225 133.558222 
L 250.425 133.292306 
L 249.7275 133.06623 
L 249.03 132.880215 
L 248.3325 132.734444 
L 247.635 132.629062 
L 246.9375 132.56417 
L 246.24 132.535977 
L 245.5425 132.548367 
L 244.845 132.599399 
L 244.1475 132.69288 
L 243.45 132.824861 
L 242.7525 132.997141 
L 242.055 133.207622 
L 241.3575 133.45417 
L 240.66 133.740399 
L 239.9625 134.064098 
L 239.265 134.424951 
L 238.5675 134.820675 
L 237.87 135.250881 
L 237.1725 135.717074 
L 236.475 136.218796 
L 235.7775 136.753627 
L 235.08 137.322969 
L 234.3825 137.926262 
L 233.685 138.562915 
L 232.9875 139.230373 
L 232.29 139.927981 
L 231.5925 140.658909 
L 230.895 141.420512 
L 230.1975 142.210113 
L 229.5 143.028865 
L 228.8025 143.872107 
L 228.105 144.742866 
L 227.4075 145.63836 
L 226.71 146.557708 
L 226.0125 147.501936 
L 225.315 148.468187 
L 224.6175 149.455513 
L 223.92 150.462943 
L 223.2225 151.489488 
L 222.525 152.53414 
L 221.8275 153.595871 
L 221.13 154.67364 
L 220.4325 155.764458 
L 219.735 156.869183 
L 219.0375 157.984801 
L 218.34 159.112145 
L 217.6425 160.250106 
L 216.945 161.397567 
L 216.2475 162.5534 
L 215.55 163.716471 
L 214.8525 164.885635 
L 214.155 166.059746 
L 213.4575 167.239577 
L 212.76 168.422041 
L 212.0625 169.605977 
L 211.365 170.79215 
L 210.6675 171.977466 
L 209.97 173.16076 
L 209.2725 174.340871 
L 208.575 175.516639 
L 207.8775 176.686908 
L 207.18 177.85053 
L 206.4825 179.00636 
L 205.785 180.153264 
L 205.0875 181.290115 
L 204.39 182.415796 
L 203.6925 183.529201 
L 202.995 184.629236 
L 202.2975 185.718676 
L 201.6 186.792596 
L 200.9025 187.84994 
L 200.205 188.88967 
L 199.5075 189.910763 
L 198.81 190.912218 
L 198.1125 191.894978 
L 197.415 192.856149 
L 196.7175 193.794787 
L 196.02 194.709971 
L 195.3225 195.600801 
L 194.625 196.466402 
L 193.9275 197.305923 
L 193.23 198.11854 
L 192.5325 198.903455 
L 191.835 199.659896 
L 191.1375 200.387121 
L 190.44 201.084414 
L 189.7425 201.751091 
L 189.045 202.386497 
L 188.3475 202.990007 
L 187.65 203.561029 
L 186.9525 204.099002 
L 186.255 204.603397 
L 185.5575 205.073719 
L 184.86 205.509506 
L 184.1625 205.910329 
L 183.465 206.275795 
L 182.7675 206.605544 
L 182.07 206.899253 
L 181.3725 207.156634 
L 180.675 207.377433 
L 179.9775 207.561434 
L 179.28 207.708455 
L 178.5825 207.818352 
L 177.885 207.891018 
L 177.1875 207.926381 
L 176.49 207.924406 
L 175.7925 207.885095 
L 175.095 207.808487 
L 174.3975 207.694656 
L 173.7 207.543716 
L 173.0025 207.355814 
L 172.305 207.131134 
L 171.6075 206.869898 
L 170.91 206.572362 
L 170.2125 206.238819 
L 169.515 205.869595 
L 168.8175 205.465054 
L 168.12 205.025594 
L 167.4225 204.549717 
L 166.725 204.03982 
L 166.0275 203.496403 
L 165.33 202.92 
L 164.6325 202.311178 
L 163.935 201.670535 
L 163.2375 200.998699 
L 162.54 200.296332 
L 161.8425 199.562194 
L 161.145 198.798936 
L 160.4475 198.007306 
L 159.75 197.188084 
L 159.0525 196.342073 
L 158.355 195.470105 
L 157.6575 194.573036 
L 156.96 193.651747 
L 156.2625 192.707145 
L 155.565 191.740156 
L 154.8675 190.751731 
L 154.17 189.74284 
L 153.4725 188.714476 
L 152.775 187.667647 
L 152.0775 186.601455 
L 151.38 185.518875 
L 150.6825 184.419043 
L 149.985 183.304966 
L 149.2875 182.17774 
L 148.59 181.038472 
L 147.8925 179.888281 
L 147.195 178.728297 
L 146.4975 177.559659 
L 145.8 176.383516 
L 145.1025 175.201024 
L 144.405 174.013343 
L 143.7075 172.821641 
L 143.01 171.627089 
L 142.3125 170.430859 
L 141.615 169.234128 
L 140.9175 168.03807 
L 140.22 166.843861 
L 139.5225 165.650746 
L 138.825 164.461825 
L 138.1275 163.278267 
L 137.43 162.103161 
L 136.7325 160.935735 
L 136.035 159.777135 
L 135.3375 158.628499 
L 134.64 157.490957 
L 133.9425 156.367552 
L 133.245 155.257462 
L 132.5475 154.161777 
L 131.85 153.081572 
L 131.1525 152.01791 
L 130.455 150.971835 
L 129.7575 149.944374 
L 129.06 148.936538 
L 128.3625 147.949316 
L 127.665 146.983679 
L 126.9675 146.040574 
L 126.27 145.120929 
L 125.5725 144.225647 
L 124.875 143.355606 
L 124.1775 142.511663 
L 123.48 141.694647 
L 122.7825 140.905359 
L 122.085 140.144575 
L 121.3875 139.413043 
L 120.69 138.711481 
L 119.9925 138.040579 
L 119.295 137.400995 
L 118.5975 136.793359 
L 117.9 136.218266 
L 117.2025 135.676282 
L 116.505 135.16794 
L 115.8075 134.693738 
L 115.11 134.254143 
L 114.4125 133.849586 
L 113.715 133.480465 
L 113.0175 133.147143 
L 112.32 132.849947 
L 111.6225 132.589168 
L 110.925 132.365064 
L 110.2275 132.177854 
L 109.53 132.027723 
L 108.8325 131.914817 
L 108.135 131.839248 
L 107.4375 131.801089 
L 106.74 131.800379 
L 106.0425 131.837118 
L 105.345 131.91127 
L 104.6475 132.022762 
L 103.95 132.171485 
L 103.2525 132.357292 
L 102.555 132.580001 
L 101.8575 132.839394 
L 101.16 133.135214 
L 100.4625 133.467173 
L 99.765 133.834943 
L 99.0675 134.238163 
L 98.37 134.676437 
L 97.6725 135.149335 
L 96.975 135.656392 
L 96.2775 136.19711 
L 95.58 136.770957 
L 94.8825 137.379299 
L 94.185 138.019609 
L 93.4875 138.691258 
L 92.79 139.393586 
L 92.0925 140.125904 
L 91.395 140.887492 
L 90.6975 141.677602 
L 90 142.495457 
z
" style="fill:#e0ffff;"/>
   </g>
   <g id="line2d_15">
    <path clip-path="url(#p7273cafc21)" d="M 90 142.495457 
L 92.79 139.393586 
L 94.8825 137.379299 
L 96.975 135.656392 
L 99.0675 134.238163 
L 101.16 133.135214 
L 103.2525 132.357292 
L 105.345 131.91127 
L 106.74 131.800379 
L 108.135 131.839248 
L 109.53 132.027723 
L 111.6225 132.589168 
L 113.715 133.480465 
L 115.8075 134.693738 
L 117.9 136.218266 
L 119.9925 138.040579 
L 122.085 140.144575 
L 124.1775 142.511663 
L 126.9675 146.040574 
L 129.7575 149.944374 
L 133.245 155.257462 
L 137.43 162.103161 
L 152.0775 186.601455 
L 155.565 191.740156 
L 158.355 195.470105 
L 161.145 198.798936 
L 163.2375 200.998699 
L 165.33 202.92 
L 167.4225 204.549717 
L 169.515 205.869595 
L 171.6075 206.869898 
L 173.7 207.543716 
L 175.7925 207.885095 
L 177.1875 207.926381 
L 178.5825 207.818352 
L 180.675 207.377433 
L 182.7675 206.605544 
L 184.86 205.509506 
L 186.9525 204.099002 
L 189.045 202.386497 
L 191.1375 200.387121 
L 193.23 198.11854 
L 196.02 194.709971 
L 198.81 190.912218 
L 202.2975 185.718676 
L 206.4825 179.00636 
L 213.4575 167.239577 
L 219.0375 157.984801 
L 223.2225 151.489488 
L 226.0125 147.501936 
L 228.8025 143.872107 
L 231.5925 140.658909 
L 233.685 138.562915 
L 235.7775 136.753627 
L 237.87 135.250881 
L 239.9625 134.064098 
L 242.055 133.207622 
L 243.45 132.824861 
L 244.845 132.599399 
L 246.24 132.535977 
L 247.635 132.629062 
L 249.03 132.880215 
L 250.425 133.292306 
L 252.5175 134.206561 
L 254.61 135.459501 
L 256.7025 137.045833 
L 258.795 138.959246 
L 260.8875 141.180909 
L 262.98 143.687337 
L 265.77 147.417776 
L 268.56 151.557331 
L 272.0475 157.200736 
L 276.2325 164.426988 
L 288.09 185.28074 
L 291.5775 190.81697 
L 294.3675 194.852826 
L 297.1575 198.464515 
L 299.25 200.860836 
L 301.3425 202.95294 
L 303.435 204.716556 
L 305.5275 206.138026 
L 307.62 207.206713 
L 309.015 207.703825 
L 310.41 208.02358 
L 311.805 208.166651 
L 313.2 208.122838 
L 314.595 207.892315 
L 315.99 207.495259 
L 317.385 206.925523 
L 318.78 206.183416 
L 320.8725 204.740622 
L 322.965 202.918868 
L 325.0575 200.726541 
L 327.15 198.173374 
L 329.2425 195.283853 
L 331.335 192.093133 
L 334.125 187.39609 
L 336.915 182.276393 
L 340.4025 175.435737 
L 345.285 165.293779 
L 355.7475 143.278298 
L 359.235 136.436944 
L 362.025 131.361654 
L 364.815 126.74534 
L 366.9075 123.611598 
L 369 120.796477 
L 371.0925 118.326782 
L 373.185 116.216622 
L 375.2775 114.488488 
L 376.6725 113.556322 
L 378.0675 112.805108 
L 379.4625 112.235869 
L 380.8575 111.846989 
L 382.2525 111.649634 
L 383.6475 111.642651 
L 385.0425 111.827996 
L 386.4375 112.214577 
L 387.8325 112.797024 
L 389.2275 113.578829 
L 390.6225 114.562702 
L 392.0175 115.727434 
L 394.11 117.822949 
L 396.2025 120.303655 
L 398.295 123.168818 
L 400.3875 126.400816 
L 403.1775 131.21302 
L 405.9675 136.548167 
L 409.455 143.831677 
L 412.9425 151.675741 
L 417.825 163.310791 
L 428.2875 188.453422 
L 431.775 196.200206 
L 434.565 201.95478 
L 437.355 207.243013 
L 440.145 211.99152 
L 442.2375 215.170856 
L 444.33 217.986963 
L 446.4225 220.411113 
L 448.515 222.431518 
L 450.6075 224.018767 
L 452.0025 224.836485 
L 453.3975 225.455805 
L 454.7925 225.874291 
L 456.1875 226.086449 
L 457.5825 226.085659 
L 458.9775 225.877706 
L 460.3725 225.449917 
L 461.7675 224.809752 
L 463.1625 223.969369 
L 464.5575 222.937852 
L 466.65 221.030427 
L 468.7425 218.719557 
L 470.835 216.006401 
L 472.9275 212.914941 
L 475.02 209.45515 
L 477.81 204.338457 
L 480.6 198.7546 
L 484.0875 191.264103 
L 490.365 177.046299 
L 497.34 161.286409 
L 500.8275 153.924012 
L 503.6175 148.414034 
L 506.4075 143.34376 
L 509.1975 138.769675 
L 511.29 135.706989 
L 513.3825 132.973577 
L 515.475 130.57433 
L 517.5675 128.555491 
L 519.66 126.919486 
L 521.7525 125.669212 
L 523.1475 125.045954 
L 524.5425 124.595138 
L 525.9375 124.330099 
L 527.3325 124.246094 
L 528.7275 124.341527 
L 530.1225 124.621803 
L 531.5175 125.091602 
L 532.9125 125.745228 
L 534.3075 126.568552 
L 536.4 128.106277 
L 538.4925 129.999975 
L 540.585 132.221354 
L 542.6775 134.718026 
L 545.4675 138.428973 
L 548.2575 142.493726 
L 551.745 147.974341 
L 557.325 157.305698 
L 564.9975 170.125045 
L 568.485 175.518345 
L 571.275 179.442635 
L 574.065 182.972877 
L 576.1575 185.329022 
L 578.25 187.437237 
L 580.3425 189.275066 
L 582.435 190.832052 
L 584.5275 192.131046 
L 586.62 193.158635 
L 588.7125 193.888403 
L 590.805 194.350501 
L 592.8975 194.540843 
L 594.99 194.450056 
L 597.0825 194.119391 
L 599.175 193.555632 
L 601.2675 192.775338 
L 604.0575 191.454351 
L 606.8475 189.85693 
L 611.0325 187.17896 
L 618.0075 182.34768 
L 623.5875 178.470675 
L 627.075 176.286185 
L 629.865 174.730257 
L 632.655 173.372315 
L 635.445 172.220157 
L 638.235 171.270683 
L 641.025 170.569606 
L 643.815 170.118299 
L 646.605 169.92 
L 646.605 169.92 
" style="fill:none;stroke:#008080;stroke-linecap:round;stroke-width:1.75;"/>
   </g>
   <g id="patch_3">
    <path d="M 90 270.72 
L 90 69.12 
" style="fill:none;stroke:#262626;stroke-linecap:square;stroke-linejoin:miter;stroke-width:1.25;"/>
   </g>
   <g id="patch_4">
    <path d="M 90 270.72 
L 648 270.72 
" style="fill:none;stroke:#262626;stroke-linecap:square;stroke-linejoin:miter;stroke-width:1.25;"/>
   </g>
  </g>
  <g id="axes_2">
   <g id="patch_5">
    <path d="M 90 512.64 
L 648 512.64 
L 648 311.04 
L 90 311.04 
z
" style="fill:#ffffff;"/>
   </g>
   <g id="matplotlib.axis_3">
    <g id="xtick_10">
     <g id="line2d_16">
      <g>
       <use style="fill:#262626;stroke:#262626;" x="191.454545" xlink:href="#m1ea77f65d7" y="512.64"/>
      </g>
     </g>
     <g id="text_15">
      <!-- 200 -->
      <g style="fill:#262626;" transform="translate(183.113139 532.797812)scale(0.1 -0.1)">
       <use xlink:href="#ArialMT-32"/>
       <use x="55.615234" xlink:href="#ArialMT-30"/>
       <use x="111.230469" xlink:href="#ArialMT-30"/>
      </g>
     </g>
    </g>
    <g id="xtick_11">
     <g id="line2d_17">
      <g>
       <use style="fill:#262626;stroke:#262626;" x="304.181818" xlink:href="#m1ea77f65d7" y="512.64"/>
      </g>
     </g>
     <g id="text_16">
      <!-- 400 -->
      <g style="fill:#262626;" transform="translate(295.840412 532.797812)scale(0.1 -0.1)">
       <use xlink:href="#ArialMT-34"/>
       <use x="55.615234" xlink:href="#ArialMT-30"/>
       <use x="111.230469" xlink:href="#ArialMT-30"/>
      </g>
     </g>
    </g>
    <g id="xtick_12">
     <g id="line2d_18">
      <g>
       <use style="fill:#262626;stroke:#262626;" x="416.909091" xlink:href="#m1ea77f65d7" y="512.64"/>
      </g>
     </g>
     <g id="text_17">
      <!-- 600 -->
      <g style="fill:#262626;" transform="translate(408.567685 532.797812)scale(0.1 -0.1)">
       <use xlink:href="#ArialMT-36"/>
       <use x="55.615234" xlink:href="#ArialMT-30"/>
       <use x="111.230469" xlink:href="#ArialMT-30"/>
      </g>
     </g>
    </g>
    <g id="xtick_13">
     <g id="line2d_19">
      <g>
       <use style="fill:#262626;stroke:#262626;" x="529.636364" xlink:href="#m1ea77f65d7" y="512.64"/>
      </g>
     </g>
     <g id="text_18">
      <!-- 800 -->
      <g style="fill:#262626;" transform="translate(521.294957 532.797812)scale(0.1 -0.1)">
       <use xlink:href="#ArialMT-38"/>
       <use x="55.615234" xlink:href="#ArialMT-30"/>
       <use x="111.230469" xlink:href="#ArialMT-30"/>
      </g>
     </g>
    </g>
    <g id="xtick_14">
     <g id="line2d_20">
      <g>
       <use style="fill:#262626;stroke:#262626;" x="642.363636" xlink:href="#m1ea77f65d7" y="512.64"/>
      </g>
     </g>
     <g id="text_19">
      <!-- 1000 -->
      <g style="fill:#262626;" transform="translate(631.241761 532.797812)scale(0.1 -0.1)">
       <use xlink:href="#ArialMT-31"/>
       <use x="55.615234" xlink:href="#ArialMT-30"/>
       <use x="111.230469" xlink:href="#ArialMT-30"/>
       <use x="166.845703" xlink:href="#ArialMT-30"/>
      </g>
     </g>
    </g>
   </g>
   <g id="matplotlib.axis_4">
    <g id="ytick_6">
     <g id="line2d_21">
      <g>
       <use style="fill:#262626;stroke:#262626;" x="90" xlink:href="#m9e26ba2f5a" y="512.64"/>
      </g>
     </g>
     <g id="text_20">
      <!-- 0 -->
      <g style="fill:#262626;" transform="translate(71.439063 516.218906)scale(0.1 -0.1)">
       <use xlink:href="#ArialMT-30"/>
      </g>
     </g>
    </g>
    <g id="ytick_7">
     <g id="line2d_22">
      <g>
       <use style="fill:#262626;stroke:#262626;" x="90" xlink:href="#m9e26ba2f5a" y="490.24"/>
      </g>
     </g>
     <g id="text_21">
      <!-- 2 -->
      <g style="fill:#262626;" transform="translate(71.439063 493.818906)scale(0.1 -0.1)">
       <use xlink:href="#ArialMT-32"/>
      </g>
     </g>
    </g>
    <g id="ytick_8">
     <g id="line2d_23">
      <g>
       <use style="fill:#262626;stroke:#262626;" x="90" xlink:href="#m9e26ba2f5a" y="467.84"/>
      </g>
     </g>
     <g id="text_22">
      <!-- 4 -->
      <g style="fill:#262626;" transform="translate(71.439063 471.418906)scale(0.1 -0.1)">
       <use xlink:href="#ArialMT-34"/>
      </g>
     </g>
    </g>
    <g id="ytick_9">
     <g id="line2d_24">
      <g>
       <use style="fill:#262626;stroke:#262626;" x="90" xlink:href="#m9e26ba2f5a" y="445.44"/>
      </g>
     </g>
     <g id="text_23">
      <!-- 6 -->
      <g style="fill:#262626;" transform="translate(71.439063 449.018906)scale(0.1 -0.1)">
       <use xlink:href="#ArialMT-36"/>
      </g>
     </g>
    </g>
    <g id="ytick_10">
     <g id="line2d_25">
      <g>
       <use style="fill:#262626;stroke:#262626;" x="90" xlink:href="#m9e26ba2f5a" y="423.04"/>
      </g>
     </g>
     <g id="text_24">
      <!-- 8 -->
      <g style="fill:#262626;" transform="translate(71.439063 426.618906)scale(0.1 -0.1)">
       <use xlink:href="#ArialMT-38"/>
      </g>
     </g>
    </g>
    <g id="ytick_11">
     <g id="line2d_26">
      <g>
       <use style="fill:#262626;stroke:#262626;" x="90" xlink:href="#m9e26ba2f5a" y="400.64"/>
      </g>
     </g>
     <g id="text_25">
      <!-- 10 -->
      <g style="fill:#262626;" transform="translate(65.878125 404.218906)scale(0.1 -0.1)">
       <use xlink:href="#ArialMT-31"/>
       <use x="55.615234" xlink:href="#ArialMT-30"/>
      </g>
     </g>
    </g>
    <g id="ytick_12">
     <g id="line2d_27">
      <g>
       <use style="fill:#262626;stroke:#262626;" x="90" xlink:href="#m9e26ba2f5a" y="378.24"/>
      </g>
     </g>
     <g id="text_26">
      <!-- 12 -->
      <g style="fill:#262626;" transform="translate(65.878125 381.818906)scale(0.1 -0.1)">
       <use xlink:href="#ArialMT-31"/>
       <use x="55.615234" xlink:href="#ArialMT-32"/>
      </g>
     </g>
    </g>
    <g id="ytick_13">
     <g id="line2d_28">
      <g>
       <use style="fill:#262626;stroke:#262626;" x="90" xlink:href="#m9e26ba2f5a" y="355.84"/>
      </g>
     </g>
     <g id="text_27">
      <!-- 14 -->
      <g style="fill:#262626;" transform="translate(65.878125 359.418906)scale(0.1 -0.1)">
       <use xlink:href="#ArialMT-31"/>
       <use x="55.615234" xlink:href="#ArialMT-34"/>
      </g>
     </g>
    </g>
    <g id="ytick_14">
     <g id="line2d_29">
      <g>
       <use style="fill:#262626;stroke:#262626;" x="90" xlink:href="#m9e26ba2f5a" y="333.44"/>
      </g>
     </g>
     <g id="text_28">
      <!-- 16 -->
      <g style="fill:#262626;" transform="translate(65.878125 337.018906)scale(0.1 -0.1)">
       <use xlink:href="#ArialMT-31"/>
       <use x="55.615234" xlink:href="#ArialMT-36"/>
      </g>
     </g>
    </g>
    <g id="ytick_15">
     <g id="line2d_30">
      <g>
       <use style="fill:#262626;stroke:#262626;" x="90" xlink:href="#m9e26ba2f5a" y="311.04"/>
      </g>
     </g>
     <g id="text_29">
      <!-- 18 -->
      <g style="fill:#262626;" transform="translate(65.878125 314.618906)scale(0.1 -0.1)">
       <use xlink:href="#ArialMT-31"/>
       <use x="55.615234" xlink:href="#ArialMT-38"/>
      </g>
     </g>
    </g>
   </g>
   <g id="line2d_31">
    <path clip-path="url(#p1b5a805e47)" d="M 90 477.654723 
L 95.636364 452.736402 
L 101.272727 431.923589 
L 106.909091 427.92302 
L 112.545455 440.45326 
L 118.181818 444.705349 
L 123.818182 448.961059 
L 129.454545 457.370701 
L 135.090909 456.375715 
L 140.727273 434.868159 
L 146.363636 408.816951 
L 152 389.988216 
L 157.636364 371.492183 
L 163.272727 352.310178 
L 168.909091 342.280664 
L 174.545455 348.647566 
L 180.181818 355.802406 
L 185.818182 363.350788 
L 191.454545 378.270766 
L 197.090909 391.147889 
L 202.727273 394.129256 
" style="fill:none;stroke:#b22222;stroke-linecap:round;stroke-width:1.75;"/>
   </g>
   <g id="line2d_32">
    <path clip-path="url(#p1b5a805e47)" d="M 152 512.64 
L 152 311.04 
" style="fill:none;stroke:#4c72b0;stroke-linecap:round;stroke-width:1.75;"/>
   </g>
   <g id="patch_6">
    <path d="M 90 512.64 
L 90 311.04 
" style="fill:none;stroke:#262626;stroke-linecap:square;stroke-linejoin:miter;stroke-width:1.25;"/>
   </g>
   <g id="patch_7">
    <path d="M 90 512.64 
L 648 512.64 
" style="fill:none;stroke:#262626;stroke-linecap:square;stroke-linejoin:miter;stroke-width:1.25;"/>
   </g>
   <g id="text_30">
    <!-- f = 220 Hz -->
    <defs>
     <path d="M 8.6875 0 
L 8.6875 45.015625 
L 0.921875 45.015625 
L 0.921875 51.859375 
L 8.6875 51.859375 
L 8.6875 57.375 
Q 8.6875 62.59375 9.625 65.140625 
Q 10.890625 68.5625 14.078125 70.671875 
Q 17.28125 72.796875 23.046875 72.796875 
Q 26.765625 72.796875 31.25 71.921875 
L 29.9375 64.265625 
Q 27.203125 64.75 24.75 64.75 
Q 20.75 64.75 19.09375 63.03125 
Q 17.4375 61.328125 17.4375 56.640625 
L 17.4375 51.859375 
L 27.546875 51.859375 
L 27.546875 45.015625 
L 17.4375 45.015625 
L 17.4375 0 
z
" id="ArialMT-66"/>
     <path id="ArialMT-20"/>
     <path d="M 52.828125 42.09375 
L 5.5625 42.09375 
L 5.5625 50.296875 
L 52.828125 50.296875 
z
M 52.828125 20.359375 
L 5.5625 20.359375 
L 5.5625 28.5625 
L 52.828125 28.5625 
z
" id="ArialMT-3d"/>
     <path d="M 8.015625 0 
L 8.015625 71.578125 
L 17.484375 71.578125 
L 17.484375 42.1875 
L 54.6875 42.1875 
L 54.6875 71.578125 
L 64.15625 71.578125 
L 64.15625 0 
L 54.6875 0 
L 54.6875 33.734375 
L 17.484375 33.734375 
L 17.484375 0 
z
" id="ArialMT-48"/>
     <path d="M 1.953125 0 
L 1.953125 7.125 
L 34.96875 45.015625 
Q 29.34375 44.734375 25.046875 44.734375 
L 3.90625 44.734375 
L 3.90625 51.859375 
L 46.296875 51.859375 
L 46.296875 46.046875 
L 18.21875 13.140625 
L 12.796875 7.125 
Q 18.703125 7.5625 23.875 7.5625 
L 47.859375 7.5625 
L 47.859375 0 
z
" id="ArialMT-7a"/>
    </defs>
    <g style="fill:#262626;" transform="translate(529.636364 403.742188)scale(0.12 -0.12)">
     <use xlink:href="#ArialMT-66"/>
     <use x="27.783203" xlink:href="#ArialMT-20"/>
     <use x="55.566406" xlink:href="#ArialMT-3d"/>
     <use x="113.964844" xlink:href="#ArialMT-20"/>
     <use x="141.748047" xlink:href="#ArialMT-32"/>
     <use x="197.363281" xlink:href="#ArialMT-32"/>
     <use x="252.978516" xlink:href="#ArialMT-30"/>
     <use x="308.59375" xlink:href="#ArialMT-20"/>
     <use x="336.376953" xlink:href="#ArialMT-48"/>
     <use x="408.59375" xlink:href="#ArialMT-7a"/>
    </g>
   </g>
   <g id="PathCollection_1">
    <defs>
     <path d="M 0 3.5 
C 0.928211 3.5 1.81853 3.131218 2.474874 2.474874 
C 3.131218 1.81853 3.5 0.928211 3.5 0 
C 3.5 -0.928211 3.131218 -1.81853 2.474874 -2.474874 
C 1.81853 -3.131218 0.928211 -3.5 0 -3.5 
C -0.928211 -3.5 -1.81853 -3.131218 -2.474874 -2.474874 
C -3.131218 -1.81853 -3.5 -0.928211 -3.5 0 
C -3.5 0.928211 -3.131218 1.81853 -2.474874 2.474874 
C -1.81853 3.131218 -0.928211 3.5 0 3.5 
z
" id="mfea35593c5" style="stroke:#800000;stroke-width:0.3;"/>
    </defs>
    <g clip-path="url(#p1b5a805e47)">
     <use style="fill:#800000;stroke:#800000;stroke-width:0.3;" x="202.727273" xlink:href="#mfea35593c5" y="394.129256"/>
    </g>
   </g>
  </g>
 </g>
 <defs>
  <clipPath id="p7273cafc21">
   <rect height="201.6" width="558" x="90" y="69.12"/>
  </clipPath>
  <clipPath id="p1b5a805e47">
   <rect height="201.6" width="558" x="90" y="311.04"/>
  </clipPath>
 </defs>
</svg>
