<?xml version="1.0" encoding="utf-8" standalone="no"?>
<!DOCTYPE svg PUBLIC "-//W3C//DTD SVG 1.1//EN"
  "http://www.w3.org/Graphics/SVG/1.1/DTD/svg11.dtd">
<!-- Created with matplotlib (http://matplotlib.org/) -->
<svg height="576pt" version="1.1" viewBox="0 0 720 576" width="720pt" xmlns="http://www.w3.org/2000/svg" xmlns:xlink="http://www.w3.org/1999/xlink">
 <defs>
  <style type="text/css">
*{stroke-linecap:butt;stroke-linejoin:round;}
  </style>
 </defs>
 <g id="figure_1">
  <g id="patch_1">
   <path d="M 0 576 
L 720 576 
L 720 0 
L 0 0 
z
" style="fill:#ffffff;"/>
  </g>
  <g id="axes_1">
   <g id="patch_2">
    <path d="M 90 270.72 
L 648 270.72 
L 648 69.12 
L 90 69.12 
z
" style="fill:#ffffff;"/>
   </g>
   <g id="matplotlib.axis_1">
    <g id="xtick_1">
     <g id="line2d_1">
      <defs>
       <path d="M 0 0 
L 0 6 
" id="m8bd8f7acdb" style="stroke:#262626;"/>
      </defs>
      <g>
       <use style="fill:#262626;stroke:#262626;" x="90" xlink:href="#m8bd8f7acdb" y="270.72"/>
      </g>
     </g>
     <g id="text_1">
      <!-- 0 -->
      <defs>
       <path d="M 4.15625 35.296875 
Q 4.15625 48 6.765625 55.734375 
Q 9.375 63.484375 14.515625 67.671875 
Q 19.671875 71.875 27.484375 71.875 
Q 33.25 71.875 37.59375 69.546875 
Q 41.9375 67.234375 44.765625 62.859375 
Q 47.609375 58.5 49.21875 52.21875 
Q 50.828125 45.953125 50.828125 35.296875 
Q 50.828125 22.703125 48.234375 14.96875 
Q 45.65625 7.234375 40.5 3 
Q 35.359375 -1.21875 27.484375 -1.21875 
Q 17.140625 -1.21875 11.234375 6.203125 
Q 4.15625 15.140625 4.15625 35.296875 
z
M 13.1875 35.296875 
Q 13.1875 17.671875 17.3125 11.828125 
Q 21.4375 6 27.484375 6 
Q 33.546875 6 37.671875 11.859375 
Q 41.796875 17.71875 41.796875 35.296875 
Q 41.796875 52.984375 37.671875 58.78125 
Q 33.546875 64.59375 27.390625 64.59375 
Q 21.34375 64.59375 17.71875 59.46875 
Q 13.1875 52.9375 13.1875 35.296875 
z
" id="ArialMT-30"/>
      </defs>
      <g style="fill:#262626;" transform="translate(87.219531 290.877812)scale(0.1 -0.1)">
       <use xlink:href="#ArialMT-30"/>
      </g>
     </g>
    </g>
    <g id="xtick_2">
     <g id="line2d_2">
      <g>
       <use style="fill:#262626;stroke:#262626;" x="159.75" xlink:href="#m8bd8f7acdb" y="270.72"/>
      </g>
     </g>
     <g id="text_2">
      <!-- 100 -->
      <defs>
       <path d="M 37.25 0 
L 28.46875 0 
L 28.46875 56 
Q 25.296875 52.984375 20.140625 49.953125 
Q 14.984375 46.921875 10.890625 45.40625 
L 10.890625 53.90625 
Q 18.265625 57.375 23.78125 62.296875 
Q 29.296875 67.234375 31.59375 71.875 
L 37.25 71.875 
z
" id="ArialMT-31"/>
      </defs>
      <g style="fill:#262626;" transform="translate(151.408594 290.877812)scale(0.1 -0.1)">
       <use xlink:href="#ArialMT-31"/>
       <use x="55.615234" xlink:href="#ArialMT-30"/>
       <use x="111.230469" xlink:href="#ArialMT-30"/>
      </g>
     </g>
    </g>
    <g id="xtick_3">
     <g id="line2d_3">
      <g>
       <use style="fill:#262626;stroke:#262626;" x="229.5" xlink:href="#m8bd8f7acdb" y="270.72"/>
      </g>
     </g>
     <g id="text_3">
      <!-- 200 -->
      <defs>
       <path d="M 50.34375 8.453125 
L 50.34375 0 
L 3.03125 0 
Q 2.9375 3.171875 4.046875 6.109375 
Q 5.859375 10.9375 9.828125 15.625 
Q 13.8125 20.3125 21.34375 26.46875 
Q 33.015625 36.03125 37.109375 41.625 
Q 41.21875 47.21875 41.21875 52.203125 
Q 41.21875 57.421875 37.46875 61 
Q 33.734375 64.59375 27.734375 64.59375 
Q 21.390625 64.59375 17.578125 60.78125 
Q 13.765625 56.984375 13.71875 50.25 
L 4.6875 51.171875 
Q 5.609375 61.28125 11.65625 66.578125 
Q 17.71875 71.875 27.9375 71.875 
Q 38.234375 71.875 44.234375 66.15625 
Q 50.25 60.453125 50.25 52 
Q 50.25 47.703125 48.484375 43.546875 
Q 46.734375 39.40625 42.65625 34.8125 
Q 38.578125 30.21875 29.109375 22.21875 
Q 21.1875 15.578125 18.9375 13.203125 
Q 16.703125 10.84375 15.234375 8.453125 
z
" id="ArialMT-32"/>
      </defs>
      <g style="fill:#262626;" transform="translate(221.158594 290.877812)scale(0.1 -0.1)">
       <use xlink:href="#ArialMT-32"/>
       <use x="55.615234" xlink:href="#ArialMT-30"/>
       <use x="111.230469" xlink:href="#ArialMT-30"/>
      </g>
     </g>
    </g>
    <g id="xtick_4">
     <g id="line2d_4">
      <g>
       <use style="fill:#262626;stroke:#262626;" x="299.25" xlink:href="#m8bd8f7acdb" y="270.72"/>
      </g>
     </g>
     <g id="text_4">
      <!-- 300 -->
      <defs>
       <path d="M 4.203125 18.890625 
L 12.984375 20.0625 
Q 14.5 12.59375 18.140625 9.296875 
Q 21.78125 6 27 6 
Q 33.203125 6 37.46875 10.296875 
Q 41.75 14.59375 41.75 20.953125 
Q 41.75 27 37.796875 30.921875 
Q 33.84375 34.859375 27.734375 34.859375 
Q 25.25 34.859375 21.53125 33.890625 
L 22.515625 41.609375 
Q 23.390625 41.5 23.921875 41.5 
Q 29.546875 41.5 34.03125 44.421875 
Q 38.53125 47.359375 38.53125 53.46875 
Q 38.53125 58.296875 35.25 61.46875 
Q 31.984375 64.65625 26.8125 64.65625 
Q 21.6875 64.65625 18.265625 61.421875 
Q 14.84375 58.203125 13.875 51.765625 
L 5.078125 53.328125 
Q 6.6875 62.15625 12.390625 67.015625 
Q 18.109375 71.875 26.609375 71.875 
Q 32.46875 71.875 37.390625 69.359375 
Q 42.328125 66.84375 44.9375 62.5 
Q 47.5625 58.15625 47.5625 53.265625 
Q 47.5625 48.640625 45.0625 44.828125 
Q 42.578125 41.015625 37.703125 38.765625 
Q 44.046875 37.3125 47.5625 32.6875 
Q 51.078125 28.078125 51.078125 21.140625 
Q 51.078125 11.765625 44.234375 5.25 
Q 37.40625 -1.265625 26.953125 -1.265625 
Q 17.53125 -1.265625 11.296875 4.34375 
Q 5.078125 9.96875 4.203125 18.890625 
z
" id="ArialMT-33"/>
      </defs>
      <g style="fill:#262626;" transform="translate(290.908594 290.877812)scale(0.1 -0.1)">
       <use xlink:href="#ArialMT-33"/>
       <use x="55.615234" xlink:href="#ArialMT-30"/>
       <use x="111.230469" xlink:href="#ArialMT-30"/>
      </g>
     </g>
    </g>
    <g id="xtick_5">
     <g id="line2d_5">
      <g>
       <use style="fill:#262626;stroke:#262626;" x="369" xlink:href="#m8bd8f7acdb" y="270.72"/>
      </g>
     </g>
     <g id="text_5">
      <!-- 400 -->
      <defs>
       <path d="M 32.328125 0 
L 32.328125 17.140625 
L 1.265625 17.140625 
L 1.265625 25.203125 
L 33.9375 71.578125 
L 41.109375 71.578125 
L 41.109375 25.203125 
L 50.78125 25.203125 
L 50.78125 17.140625 
L 41.109375 17.140625 
L 41.109375 0 
z
M 32.328125 25.203125 
L 32.328125 57.46875 
L 9.90625 25.203125 
z
" id="ArialMT-34"/>
      </defs>
      <g style="fill:#262626;" transform="translate(360.658594 290.877812)scale(0.1 -0.1)">
       <use xlink:href="#ArialMT-34"/>
       <use x="55.615234" xlink:href="#ArialMT-30"/>
       <use x="111.230469" xlink:href="#ArialMT-30"/>
      </g>
     </g>
    </g>
    <g id="xtick_6">
     <g id="line2d_6">
      <g>
       <use style="fill:#262626;stroke:#262626;" x="438.75" xlink:href="#m8bd8f7acdb" y="270.72"/>
      </g>
     </g>
     <g id="text_6">
      <!-- 500 -->
      <defs>
       <path d="M 4.15625 18.75 
L 13.375 19.53125 
Q 14.40625 12.796875 18.140625 9.390625 
Q 21.875 6 27.15625 6 
Q 33.5 6 37.890625 10.78125 
Q 42.28125 15.578125 42.28125 23.484375 
Q 42.28125 31 38.0625 35.34375 
Q 33.84375 39.703125 27 39.703125 
Q 22.75 39.703125 19.328125 37.765625 
Q 15.921875 35.84375 13.96875 32.765625 
L 5.71875 33.84375 
L 12.640625 70.609375 
L 48.25 70.609375 
L 48.25 62.203125 
L 19.671875 62.203125 
L 15.828125 42.96875 
Q 22.265625 47.46875 29.34375 47.46875 
Q 38.71875 47.46875 45.15625 40.96875 
Q 51.609375 34.46875 51.609375 24.265625 
Q 51.609375 14.546875 45.953125 7.46875 
Q 39.0625 -1.21875 27.15625 -1.21875 
Q 17.390625 -1.21875 11.203125 4.25 
Q 5.03125 9.71875 4.15625 18.75 
z
" id="ArialMT-35"/>
      </defs>
      <g style="fill:#262626;" transform="translate(430.408594 290.877812)scale(0.1 -0.1)">
       <use xlink:href="#ArialMT-35"/>
       <use x="55.615234" xlink:href="#ArialMT-30"/>
       <use x="111.230469" xlink:href="#ArialMT-30"/>
      </g>
     </g>
    </g>
    <g id="xtick_7">
     <g id="line2d_7">
      <g>
       <use style="fill:#262626;stroke:#262626;" x="508.5" xlink:href="#m8bd8f7acdb" y="270.72"/>
      </g>
     </g>
     <g id="text_7">
      <!-- 600 -->
      <defs>
       <path d="M 49.75 54.046875 
L 41.015625 53.375 
Q 39.84375 58.546875 37.703125 60.890625 
Q 34.125 64.65625 28.90625 64.65625 
Q 24.703125 64.65625 21.53125 62.3125 
Q 17.390625 59.28125 14.984375 53.46875 
Q 12.59375 47.65625 12.5 36.921875 
Q 15.671875 41.75 20.265625 44.09375 
Q 24.859375 46.4375 29.890625 46.4375 
Q 38.671875 46.4375 44.84375 39.96875 
Q 51.03125 33.5 51.03125 23.25 
Q 51.03125 16.5 48.125 10.71875 
Q 45.21875 4.9375 40.140625 1.859375 
Q 35.0625 -1.21875 28.609375 -1.21875 
Q 17.625 -1.21875 10.6875 6.859375 
Q 3.765625 14.9375 3.765625 33.5 
Q 3.765625 54.25 11.421875 63.671875 
Q 18.109375 71.875 29.4375 71.875 
Q 37.890625 71.875 43.28125 67.140625 
Q 48.6875 62.40625 49.75 54.046875 
z
M 13.875 23.1875 
Q 13.875 18.65625 15.796875 14.5 
Q 17.71875 10.359375 21.1875 8.171875 
Q 24.65625 6 28.46875 6 
Q 34.03125 6 38.03125 10.484375 
Q 42.046875 14.984375 42.046875 22.703125 
Q 42.046875 30.125 38.078125 34.390625 
Q 34.125 38.671875 28.125 38.671875 
Q 22.171875 38.671875 18.015625 34.390625 
Q 13.875 30.125 13.875 23.1875 
z
" id="ArialMT-36"/>
      </defs>
      <g style="fill:#262626;" transform="translate(500.158594 290.877812)scale(0.1 -0.1)">
       <use xlink:href="#ArialMT-36"/>
       <use x="55.615234" xlink:href="#ArialMT-30"/>
       <use x="111.230469" xlink:href="#ArialMT-30"/>
      </g>
     </g>
    </g>
    <g id="xtick_8">
     <g id="line2d_8">
      <g>
       <use style="fill:#262626;stroke:#262626;" x="578.25" xlink:href="#m8bd8f7acdb" y="270.72"/>
      </g>
     </g>
     <g id="text_8">
      <!-- 700 -->
      <defs>
       <path d="M 4.734375 62.203125 
L 4.734375 70.65625 
L 51.078125 70.65625 
L 51.078125 63.8125 
Q 44.234375 56.546875 37.515625 44.484375 
Q 30.8125 32.421875 27.15625 19.671875 
Q 24.515625 10.6875 23.78125 0 
L 14.75 0 
Q 14.890625 8.453125 18.0625 20.40625 
Q 21.234375 32.375 27.171875 43.484375 
Q 33.109375 54.59375 39.796875 62.203125 
z
" id="ArialMT-37"/>
      </defs>
      <g style="fill:#262626;" transform="translate(569.908594 290.877812)scale(0.1 -0.1)">
       <use xlink:href="#ArialMT-37"/>
       <use x="55.615234" xlink:href="#ArialMT-30"/>
       <use x="111.230469" xlink:href="#ArialMT-30"/>
      </g>
     </g>
    </g>
    <g id="xtick_9">
     <g id="line2d_9">
      <g>
       <use style="fill:#262626;stroke:#262626;" x="648" xlink:href="#m8bd8f7acdb" y="270.72"/>
      </g>
     </g>
     <g id="text_9">
      <!-- 800 -->
      <defs>
       <path d="M 17.671875 38.8125 
Q 12.203125 40.828125 9.5625 44.53125 
Q 6.9375 48.25 6.9375 53.421875 
Q 6.9375 61.234375 12.546875 66.546875 
Q 18.171875 71.875 27.484375 71.875 
Q 36.859375 71.875 42.578125 66.421875 
Q 48.296875 60.984375 48.296875 53.171875 
Q 48.296875 48.1875 45.671875 44.5 
Q 43.0625 40.828125 37.75 38.8125 
Q 44.34375 36.671875 47.78125 31.875 
Q 51.21875 27.09375 51.21875 20.453125 
Q 51.21875 11.28125 44.71875 5.03125 
Q 38.234375 -1.21875 27.640625 -1.21875 
Q 17.046875 -1.21875 10.546875 5.046875 
Q 4.046875 11.328125 4.046875 20.703125 
Q 4.046875 27.6875 7.59375 32.390625 
Q 11.140625 37.109375 17.671875 38.8125 
z
M 15.921875 53.71875 
Q 15.921875 48.640625 19.1875 45.40625 
Q 22.46875 42.1875 27.6875 42.1875 
Q 32.765625 42.1875 36.015625 45.375 
Q 39.265625 48.578125 39.265625 53.21875 
Q 39.265625 58.0625 35.90625 61.359375 
Q 32.5625 64.65625 27.59375 64.65625 
Q 22.5625 64.65625 19.234375 61.421875 
Q 15.921875 58.203125 15.921875 53.71875 
z
M 13.09375 20.65625 
Q 13.09375 16.890625 14.875 13.375 
Q 16.65625 9.859375 20.171875 7.921875 
Q 23.6875 6 27.734375 6 
Q 34.03125 6 38.125 10.046875 
Q 42.234375 14.109375 42.234375 20.359375 
Q 42.234375 26.703125 38.015625 30.859375 
Q 33.796875 35.015625 27.4375 35.015625 
Q 21.234375 35.015625 17.15625 30.90625 
Q 13.09375 26.8125 13.09375 20.65625 
z
" id="ArialMT-38"/>
      </defs>
      <g style="fill:#262626;" transform="translate(639.658594 290.877812)scale(0.1 -0.1)">
       <use xlink:href="#ArialMT-38"/>
       <use x="55.615234" xlink:href="#ArialMT-30"/>
       <use x="111.230469" xlink:href="#ArialMT-30"/>
      </g>
     </g>
    </g>
   </g>
   <g id="matplotlib.axis_2">
    <g id="ytick_1">
     <g id="line2d_10">
      <defs>
       <path d="M 0 0 
L -6 0 
" id="m6c02e48523" style="stroke:#262626;"/>
      </defs>
      <g>
       <use style="fill:#262626;stroke:#262626;" x="90" xlink:href="#m6c02e48523" y="250.56"/>
      </g>
     </g>
     <g id="text_10">
      <!-- −0.04 -->
      <defs>
       <path d="M 52.828125 31.203125 
L 5.5625 31.203125 
L 5.5625 39.40625 
L 52.828125 39.40625 
z
" id="ArialMT-2212"/>
       <path d="M 9.078125 0 
L 9.078125 10.015625 
L 19.09375 10.015625 
L 19.09375 0 
z
" id="ArialMT-2e"/>
      </defs>
      <g style="fill:#262626;" transform="translate(51.698437 254.138906)scale(0.1 -0.1)">
       <use xlink:href="#ArialMT-2212"/>
       <use x="58.398438" xlink:href="#ArialMT-30"/>
       <use x="114.013672" xlink:href="#ArialMT-2e"/>
       <use x="141.796875" xlink:href="#ArialMT-30"/>
       <use x="197.412109" xlink:href="#ArialMT-34"/>
      </g>
     </g>
    </g>
    <g id="ytick_2">
     <g id="line2d_11">
      <g>
       <use style="fill:#262626;stroke:#262626;" x="90" xlink:href="#m6c02e48523" y="210.24"/>
      </g>
     </g>
     <g id="text_11">
      <!-- −0.02 -->
      <g style="fill:#262626;" transform="translate(51.698437 213.818906)scale(0.1 -0.1)">
       <use xlink:href="#ArialMT-2212"/>
       <use x="58.398438" xlink:href="#ArialMT-30"/>
       <use x="114.013672" xlink:href="#ArialMT-2e"/>
       <use x="141.796875" xlink:href="#ArialMT-30"/>
       <use x="197.412109" xlink:href="#ArialMT-32"/>
      </g>
     </g>
    </g>
    <g id="ytick_3">
     <g id="line2d_12">
      <g>
       <use style="fill:#262626;stroke:#262626;" x="90" xlink:href="#m6c02e48523" y="169.92"/>
      </g>
     </g>
     <g id="text_12">
      <!-- 0.00 -->
      <g style="fill:#262626;" transform="translate(57.539062 173.498906)scale(0.1 -0.1)">
       <use xlink:href="#ArialMT-30"/>
       <use x="55.615234" xlink:href="#ArialMT-2e"/>
       <use x="83.398438" xlink:href="#ArialMT-30"/>
       <use x="139.013672" xlink:href="#ArialMT-30"/>
      </g>
     </g>
    </g>
    <g id="ytick_4">
     <g id="line2d_13">
      <g>
       <use style="fill:#262626;stroke:#262626;" x="90" xlink:href="#m6c02e48523" y="129.6"/>
      </g>
     </g>
     <g id="text_13">
      <!-- 0.02 -->
      <g style="fill:#262626;" transform="translate(57.539062 133.178906)scale(0.1 -0.1)">
       <use xlink:href="#ArialMT-30"/>
       <use x="55.615234" xlink:href="#ArialMT-2e"/>
       <use x="83.398438" xlink:href="#ArialMT-30"/>
       <use x="139.013672" xlink:href="#ArialMT-32"/>
      </g>
     </g>
    </g>
    <g id="ytick_5">
     <g id="line2d_14">
      <g>
       <use style="fill:#262626;stroke:#262626;" x="90" xlink:href="#m6c02e48523" y="89.28"/>
      </g>
     </g>
     <g id="text_14">
      <!-- 0.04 -->
      <g style="fill:#262626;" transform="translate(57.539062 92.858906)scale(0.1 -0.1)">
       <use xlink:href="#ArialMT-30"/>
       <use x="55.615234" xlink:href="#ArialMT-2e"/>
       <use x="83.398438" xlink:href="#ArialMT-30"/>
       <use x="139.013672" xlink:href="#ArialMT-34"/>
      </g>
     </g>
    </g>
   </g>
   <g id="PolyCollection_1">
    <path clip-path="url(#pa0d8525399)" d="M 90 167.688395 
L 90 169.92 
L 90.6975 169.92 
L 91.395 169.92 
L 92.0925 169.92 
L 92.79 169.92 
L 93.4875 169.92 
L 94.185 169.92 
L 94.8825 169.92 
L 95.58 169.92 
L 96.2775 169.92 
L 96.975 169.92 
L 97.6725 169.92 
L 98.37 169.92 
L 99.0675 169.92 
L 99.765 169.92 
L 100.4625 169.92 
L 101.16 169.92 
L 101.8575 169.92 
L 102.555 169.92 
L 103.2525 169.92 
L 103.95 169.92 
L 104.6475 169.92 
L 105.345 169.92 
L 106.0425 169.92 
L 106.74 169.92 
L 107.4375 169.92 
L 108.135 169.92 
L 108.8325 169.92 
L 109.53 169.92 
L 110.2275 169.92 
L 110.925 169.92 
L 111.6225 169.92 
L 112.32 169.92 
L 113.0175 169.92 
L 113.715 169.92 
L 114.4125 169.92 
L 115.11 169.92 
L 115.8075 169.92 
L 116.505 169.92 
L 117.2025 169.92 
L 117.9 169.92 
L 118.5975 169.92 
L 119.295 169.92 
L 119.9925 169.92 
L 120.69 169.92 
L 121.3875 169.92 
L 122.085 169.92 
L 122.7825 169.92 
L 123.48 169.92 
L 124.1775 169.92 
L 124.875 169.92 
L 125.5725 169.92 
L 126.27 169.92 
L 126.9675 169.92 
L 127.665 169.92 
L 128.3625 169.92 
L 129.06 169.92 
L 129.7575 169.92 
L 130.455 169.92 
L 131.1525 169.92 
L 131.85 169.92 
L 132.5475 169.92 
L 133.245 169.92 
L 133.9425 169.92 
L 134.64 169.92 
L 135.3375 169.92 
L 136.035 169.92 
L 136.7325 169.92 
L 137.43 169.92 
L 138.1275 169.92 
L 138.825 169.92 
L 139.5225 169.92 
L 140.22 169.92 
L 140.9175 169.92 
L 141.615 169.92 
L 142.3125 169.92 
L 143.01 169.92 
L 143.7075 169.92 
L 144.405 169.92 
L 145.1025 169.92 
L 145.8 169.92 
L 146.4975 169.92 
L 147.195 169.92 
L 147.8925 169.92 
L 148.59 169.92 
L 149.2875 169.92 
L 149.985 169.92 
L 150.6825 169.92 
L 151.38 169.92 
L 152.0775 169.92 
L 152.775 169.92 
L 153.4725 169.92 
L 154.17 169.92 
L 154.8675 169.92 
L 155.565 169.92 
L 156.2625 169.92 
L 156.96 169.92 
L 157.6575 169.92 
L 158.355 169.92 
L 159.0525 169.92 
L 159.75 169.92 
L 160.4475 169.92 
L 161.145 169.92 
L 161.8425 169.92 
L 162.54 169.92 
L 163.2375 169.92 
L 163.935 169.92 
L 164.6325 169.92 
L 165.33 169.92 
L 166.0275 169.92 
L 166.725 169.92 
L 167.4225 169.92 
L 168.12 169.92 
L 168.8175 169.92 
L 169.515 169.92 
L 170.2125 169.92 
L 170.91 169.92 
L 171.6075 169.92 
L 172.305 169.92 
L 173.0025 169.92 
L 173.7 169.92 
L 174.3975 169.92 
L 175.095 169.92 
L 175.7925 169.92 
L 176.49 169.92 
L 177.1875 169.92 
L 177.885 169.92 
L 178.5825 169.92 
L 179.28 169.92 
L 179.9775 169.92 
L 180.675 169.92 
L 181.3725 169.92 
L 182.07 169.92 
L 182.7675 169.92 
L 183.465 169.92 
L 184.1625 169.92 
L 184.86 169.92 
L 185.5575 169.92 
L 186.255 169.92 
L 186.9525 169.92 
L 187.65 169.92 
L 188.3475 169.92 
L 189.045 169.92 
L 189.7425 169.92 
L 190.44 169.92 
L 191.1375 169.92 
L 191.835 169.92 
L 192.5325 169.92 
L 193.23 169.92 
L 193.9275 169.92 
L 194.625 169.92 
L 195.3225 169.92 
L 196.02 169.92 
L 196.7175 169.92 
L 197.415 169.92 
L 198.1125 169.92 
L 198.81 169.92 
L 199.5075 169.92 
L 200.205 169.92 
L 200.9025 169.92 
L 201.6 169.92 
L 202.2975 169.92 
L 202.995 169.92 
L 203.6925 169.92 
L 204.39 169.92 
L 205.0875 169.92 
L 205.785 169.92 
L 206.4825 169.92 
L 207.18 169.92 
L 207.8775 169.92 
L 208.575 169.92 
L 209.2725 169.92 
L 209.97 169.92 
L 210.6675 169.92 
L 211.365 169.92 
L 212.0625 169.92 
L 212.76 169.92 
L 213.4575 169.92 
L 214.155 169.92 
L 214.8525 169.92 
L 215.55 169.92 
L 216.2475 169.92 
L 216.945 169.92 
L 217.6425 169.92 
L 218.34 169.92 
L 219.0375 169.92 
L 219.735 169.92 
L 220.4325 169.92 
L 221.13 169.92 
L 221.8275 169.92 
L 222.525 169.92 
L 223.2225 169.92 
L 223.92 169.92 
L 224.6175 169.92 
L 225.315 169.92 
L 226.0125 169.92 
L 226.71 169.92 
L 227.4075 169.92 
L 228.105 169.92 
L 228.8025 169.92 
L 229.5 169.92 
L 230.1975 169.92 
L 230.895 169.92 
L 231.5925 169.92 
L 232.29 169.92 
L 232.9875 169.92 
L 233.685 169.92 
L 234.3825 169.92 
L 235.08 169.92 
L 235.7775 169.92 
L 236.475 169.92 
L 237.1725 169.92 
L 237.87 169.92 
L 238.5675 169.92 
L 239.265 169.92 
L 239.9625 169.92 
L 240.66 169.92 
L 241.3575 169.92 
L 242.055 169.92 
L 242.7525 169.92 
L 243.45 169.92 
L 244.1475 169.92 
L 244.845 169.92 
L 245.5425 169.92 
L 246.24 169.92 
L 246.9375 169.92 
L 247.635 169.92 
L 248.3325 169.92 
L 249.03 169.92 
L 249.7275 169.92 
L 250.425 169.92 
L 251.1225 169.92 
L 251.82 169.92 
L 252.5175 169.92 
L 253.215 169.92 
L 253.9125 169.92 
L 254.61 169.92 
L 255.3075 169.92 
L 256.005 169.92 
L 256.7025 169.92 
L 257.4 169.92 
L 258.0975 169.92 
L 258.795 169.92 
L 259.4925 169.92 
L 260.19 169.92 
L 260.8875 169.92 
L 261.585 169.92 
L 262.2825 169.92 
L 262.98 169.92 
L 263.6775 169.92 
L 264.375 169.92 
L 265.0725 169.92 
L 265.77 169.92 
L 266.4675 169.92 
L 267.165 169.92 
L 267.8625 169.92 
L 268.56 169.92 
L 269.2575 169.92 
L 269.955 169.92 
L 270.6525 169.92 
L 271.35 169.92 
L 272.0475 169.92 
L 272.745 169.92 
L 273.4425 169.92 
L 274.14 169.92 
L 274.8375 169.92 
L 275.535 169.92 
L 276.2325 169.92 
L 276.93 169.92 
L 277.6275 169.92 
L 278.325 169.92 
L 279.0225 169.92 
L 279.72 169.92 
L 280.4175 169.92 
L 281.115 169.92 
L 281.8125 169.92 
L 282.51 169.92 
L 283.2075 169.92 
L 283.905 169.92 
L 284.6025 169.92 
L 285.3 169.92 
L 285.9975 169.92 
L 286.695 169.92 
L 287.3925 169.92 
L 288.09 169.92 
L 288.7875 169.92 
L 289.485 169.92 
L 290.1825 169.92 
L 290.88 169.92 
L 291.5775 169.92 
L 292.275 169.92 
L 292.9725 169.92 
L 293.67 169.92 
L 294.3675 169.92 
L 295.065 169.92 
L 295.7625 169.92 
L 296.46 169.92 
L 297.1575 169.92 
L 297.855 169.92 
L 298.5525 169.92 
L 299.25 169.92 
L 299.9475 169.92 
L 300.645 169.92 
L 301.3425 169.92 
L 302.04 169.92 
L 302.7375 169.92 
L 303.435 169.92 
L 304.1325 169.92 
L 304.83 169.92 
L 305.5275 169.92 
L 306.225 169.92 
L 306.9225 169.92 
L 307.62 169.92 
L 308.3175 169.92 
L 309.015 169.92 
L 309.7125 169.92 
L 310.41 169.92 
L 311.1075 169.92 
L 311.805 169.92 
L 312.5025 169.92 
L 313.2 169.92 
L 313.8975 169.92 
L 314.595 169.92 
L 315.2925 169.92 
L 315.99 169.92 
L 316.6875 169.92 
L 317.385 169.92 
L 318.0825 169.92 
L 318.78 169.92 
L 319.4775 169.92 
L 320.175 169.92 
L 320.8725 169.92 
L 321.57 169.92 
L 322.2675 169.92 
L 322.965 169.92 
L 323.6625 169.92 
L 324.36 169.92 
L 325.0575 169.92 
L 325.755 169.92 
L 326.4525 169.92 
L 327.15 169.92 
L 327.8475 169.92 
L 328.545 169.92 
L 329.2425 169.92 
L 329.94 169.92 
L 330.6375 169.92 
L 331.335 169.92 
L 332.0325 169.92 
L 332.73 169.92 
L 333.4275 169.92 
L 334.125 169.92 
L 334.8225 169.92 
L 335.52 169.92 
L 336.2175 169.92 
L 336.915 169.92 
L 337.6125 169.92 
L 338.31 169.92 
L 339.0075 169.92 
L 339.705 169.92 
L 340.4025 169.92 
L 341.1 169.92 
L 341.7975 169.92 
L 342.495 169.92 
L 343.1925 169.92 
L 343.89 169.92 
L 344.5875 169.92 
L 345.285 169.92 
L 345.9825 169.92 
L 346.68 169.92 
L 347.3775 169.92 
L 348.075 169.92 
L 348.7725 169.92 
L 349.47 169.92 
L 350.1675 169.92 
L 350.865 169.92 
L 351.5625 169.92 
L 352.26 169.92 
L 352.9575 169.92 
L 353.655 169.92 
L 354.3525 169.92 
L 355.05 169.92 
L 355.7475 169.92 
L 356.445 169.92 
L 357.1425 169.92 
L 357.84 169.92 
L 358.5375 169.92 
L 359.235 169.92 
L 359.9325 169.92 
L 360.63 169.92 
L 361.3275 169.92 
L 362.025 169.92 
L 362.7225 169.92 
L 363.42 169.92 
L 364.1175 169.92 
L 364.815 169.92 
L 365.5125 169.92 
L 366.21 169.92 
L 366.9075 169.92 
L 367.605 169.92 
L 368.3025 169.92 
L 369 169.92 
L 369.6975 169.92 
L 370.395 169.92 
L 371.0925 169.92 
L 371.79 169.92 
L 372.4875 169.92 
L 373.185 169.92 
L 373.8825 169.92 
L 374.58 169.92 
L 375.2775 169.92 
L 375.975 169.92 
L 376.6725 169.92 
L 377.37 169.92 
L 378.0675 169.92 
L 378.765 169.92 
L 379.4625 169.92 
L 380.16 169.92 
L 380.8575 169.92 
L 381.555 169.92 
L 382.2525 169.92 
L 382.95 169.92 
L 383.6475 169.92 
L 384.345 169.92 
L 385.0425 169.92 
L 385.74 169.92 
L 386.4375 169.92 
L 387.135 169.92 
L 387.8325 169.92 
L 388.53 169.92 
L 389.2275 169.92 
L 389.925 169.92 
L 390.6225 169.92 
L 391.32 169.92 
L 392.0175 169.92 
L 392.715 169.92 
L 393.4125 169.92 
L 394.11 169.92 
L 394.8075 169.92 
L 395.505 169.92 
L 396.2025 169.92 
L 396.9 169.92 
L 397.5975 169.92 
L 398.295 169.92 
L 398.9925 169.92 
L 399.69 169.92 
L 400.3875 169.92 
L 401.085 169.92 
L 401.7825 169.92 
L 402.48 169.92 
L 403.1775 169.92 
L 403.875 169.92 
L 404.5725 169.92 
L 405.27 169.92 
L 405.9675 169.92 
L 406.665 169.92 
L 407.3625 169.92 
L 408.06 169.92 
L 408.7575 169.92 
L 409.455 169.92 
L 410.1525 169.92 
L 410.85 169.92 
L 411.5475 169.92 
L 412.245 169.92 
L 412.9425 169.92 
L 413.64 169.92 
L 414.3375 169.92 
L 415.035 169.92 
L 415.7325 169.92 
L 416.43 169.92 
L 417.1275 169.92 
L 417.825 169.92 
L 418.5225 169.92 
L 419.22 169.92 
L 419.9175 169.92 
L 420.615 169.92 
L 421.3125 169.92 
L 422.01 169.92 
L 422.7075 169.92 
L 423.405 169.92 
L 424.1025 169.92 
L 424.8 169.92 
L 425.4975 169.92 
L 426.195 169.92 
L 426.8925 169.92 
L 427.59 169.92 
L 428.2875 169.92 
L 428.985 169.92 
L 429.6825 169.92 
L 430.38 169.92 
L 431.0775 169.92 
L 431.775 169.92 
L 432.4725 169.92 
L 433.17 169.92 
L 433.8675 169.92 
L 434.565 169.92 
L 435.2625 169.92 
L 435.96 169.92 
L 436.6575 169.92 
L 437.355 169.92 
L 438.0525 169.92 
L 438.75 169.92 
L 439.4475 169.92 
L 440.145 169.92 
L 440.8425 169.92 
L 441.54 169.92 
L 442.2375 169.92 
L 442.935 169.92 
L 443.6325 169.92 
L 444.33 169.92 
L 445.0275 169.92 
L 445.725 169.92 
L 446.4225 169.92 
L 447.12 169.92 
L 447.8175 169.92 
L 448.515 169.92 
L 449.2125 169.92 
L 449.91 169.92 
L 450.6075 169.92 
L 451.305 169.92 
L 452.0025 169.92 
L 452.7 169.92 
L 453.3975 169.92 
L 454.095 169.92 
L 454.7925 169.92 
L 455.49 169.92 
L 456.1875 169.92 
L 456.885 169.92 
L 457.5825 169.92 
L 458.28 169.92 
L 458.9775 169.92 
L 459.675 169.92 
L 460.3725 169.92 
L 461.07 169.92 
L 461.7675 169.92 
L 462.465 169.92 
L 463.1625 169.92 
L 463.86 169.92 
L 464.5575 169.92 
L 465.255 169.92 
L 465.9525 169.92 
L 466.65 169.92 
L 467.3475 169.92 
L 468.045 169.92 
L 468.7425 169.92 
L 469.44 169.92 
L 470.1375 169.92 
L 470.835 169.92 
L 471.5325 169.92 
L 472.23 169.92 
L 472.9275 169.92 
L 473.625 169.92 
L 474.3225 169.92 
L 475.02 169.92 
L 475.7175 169.92 
L 476.415 169.92 
L 477.1125 169.92 
L 477.81 169.92 
L 478.5075 169.92 
L 479.205 169.92 
L 479.9025 169.92 
L 480.6 169.92 
L 481.2975 169.92 
L 481.995 169.92 
L 482.6925 169.92 
L 483.39 169.92 
L 484.0875 169.92 
L 484.785 169.92 
L 485.4825 169.92 
L 486.18 169.92 
L 486.8775 169.92 
L 487.575 169.92 
L 488.2725 169.92 
L 488.97 169.92 
L 489.6675 169.92 
L 490.365 169.92 
L 491.0625 169.92 
L 491.76 169.92 
L 492.4575 169.92 
L 493.155 169.92 
L 493.8525 169.92 
L 494.55 169.92 
L 495.2475 169.92 
L 495.945 169.92 
L 496.6425 169.92 
L 497.34 169.92 
L 498.0375 169.92 
L 498.735 169.92 
L 499.4325 169.92 
L 500.13 169.92 
L 500.8275 169.92 
L 501.525 169.92 
L 502.2225 169.92 
L 502.92 169.92 
L 503.6175 169.92 
L 504.315 169.92 
L 505.0125 169.92 
L 505.71 169.92 
L 506.4075 169.92 
L 507.105 169.92 
L 507.8025 169.92 
L 508.5 169.92 
L 509.1975 169.92 
L 509.895 169.92 
L 510.5925 169.92 
L 511.29 169.92 
L 511.9875 169.92 
L 512.685 169.92 
L 513.3825 169.92 
L 514.08 169.92 
L 514.7775 169.92 
L 515.475 169.92 
L 516.1725 169.92 
L 516.87 169.92 
L 517.5675 169.92 
L 518.265 169.92 
L 518.9625 169.92 
L 519.66 169.92 
L 520.3575 169.92 
L 521.055 169.92 
L 521.7525 169.92 
L 522.45 169.92 
L 523.1475 169.92 
L 523.845 169.92 
L 524.5425 169.92 
L 525.24 169.92 
L 525.9375 169.92 
L 526.635 169.92 
L 527.3325 169.92 
L 528.03 169.92 
L 528.7275 169.92 
L 529.425 169.92 
L 530.1225 169.92 
L 530.82 169.92 
L 531.5175 169.92 
L 532.215 169.92 
L 532.9125 169.92 
L 533.61 169.92 
L 534.3075 169.92 
L 535.005 169.92 
L 535.7025 169.92 
L 536.4 169.92 
L 537.0975 169.92 
L 537.795 169.92 
L 538.4925 169.92 
L 539.19 169.92 
L 539.8875 169.92 
L 540.585 169.92 
L 541.2825 169.92 
L 541.98 169.92 
L 542.6775 169.92 
L 543.375 169.92 
L 544.0725 169.92 
L 544.77 169.92 
L 545.4675 169.92 
L 546.165 169.92 
L 546.8625 169.92 
L 547.56 169.92 
L 548.2575 169.92 
L 548.955 169.92 
L 549.6525 169.92 
L 550.35 169.92 
L 551.0475 169.92 
L 551.745 169.92 
L 552.4425 169.92 
L 553.14 169.92 
L 553.8375 169.92 
L 554.535 169.92 
L 555.2325 169.92 
L 555.93 169.92 
L 556.6275 169.92 
L 557.325 169.92 
L 558.0225 169.92 
L 558.72 169.92 
L 559.4175 169.92 
L 560.115 169.92 
L 560.8125 169.92 
L 561.51 169.92 
L 562.2075 169.92 
L 562.905 169.92 
L 563.6025 169.92 
L 564.3 169.92 
L 564.9975 169.92 
L 565.695 169.92 
L 566.3925 169.92 
L 567.09 169.92 
L 567.7875 169.92 
L 568.485 169.92 
L 569.1825 169.92 
L 569.88 169.92 
L 570.5775 169.92 
L 571.275 169.92 
L 571.9725 169.92 
L 572.67 169.92 
L 573.3675 169.92 
L 574.065 169.92 
L 574.7625 169.92 
L 575.46 169.92 
L 576.1575 169.92 
L 576.855 169.92 
L 577.5525 169.92 
L 578.25 169.92 
L 578.9475 169.92 
L 579.645 169.92 
L 580.3425 169.92 
L 581.04 169.92 
L 581.7375 169.92 
L 582.435 169.92 
L 583.1325 169.92 
L 583.83 169.92 
L 584.5275 169.92 
L 585.225 169.92 
L 585.9225 169.92 
L 586.62 169.92 
L 587.3175 169.92 
L 588.015 169.92 
L 588.7125 169.92 
L 589.41 169.92 
L 590.1075 169.92 
L 590.805 169.92 
L 591.5025 169.92 
L 592.2 169.92 
L 592.8975 169.92 
L 593.595 169.92 
L 594.2925 169.92 
L 594.99 169.92 
L 595.6875 169.92 
L 596.385 169.92 
L 597.0825 169.92 
L 597.78 169.92 
L 598.4775 169.92 
L 599.175 169.92 
L 599.8725 169.92 
L 600.57 169.92 
L 601.2675 169.92 
L 601.965 169.92 
L 602.6625 169.92 
L 603.36 169.92 
L 604.0575 169.92 
L 604.755 169.92 
L 605.4525 169.92 
L 606.15 169.92 
L 606.8475 169.92 
L 607.545 169.92 
L 608.2425 169.92 
L 608.94 169.92 
L 609.6375 169.92 
L 610.335 169.92 
L 611.0325 169.92 
L 611.73 169.92 
L 612.4275 169.92 
L 613.125 169.92 
L 613.8225 169.92 
L 614.52 169.92 
L 615.2175 169.92 
L 615.915 169.92 
L 616.6125 169.92 
L 617.31 169.92 
L 618.0075 169.92 
L 618.705 169.92 
L 619.4025 169.92 
L 620.1 169.92 
L 620.7975 169.92 
L 621.495 169.92 
L 622.1925 169.92 
L 622.89 169.92 
L 623.5875 169.92 
L 624.285 169.92 
L 624.9825 169.92 
L 625.68 169.92 
L 626.3775 169.92 
L 627.075 169.92 
L 627.7725 169.92 
L 628.47 169.92 
L 629.1675 169.92 
L 629.865 169.92 
L 630.5625 169.92 
L 631.26 169.92 
L 631.9575 169.92 
L 632.655 169.92 
L 633.3525 169.92 
L 634.05 169.92 
L 634.7475 169.92 
L 635.445 169.92 
L 636.1425 169.92 
L 636.84 169.92 
L 637.5375 169.92 
L 638.235 169.92 
L 638.9325 169.92 
L 639.63 169.92 
L 640.3275 169.92 
L 641.025 169.92 
L 641.7225 169.92 
L 642.42 169.92 
L 643.1175 169.92 
L 643.815 169.92 
L 644.5125 169.92 
L 645.21 169.92 
L 645.9075 169.92 
L 646.605 169.92 
L 646.605 169.92 
L 646.605 169.92 
L 645.9075 169.977486 
L 645.21 170.130162 
L 644.5125 170.325277 
L 643.815 170.567111 
L 643.1175 170.865825 
L 642.42 171.192641 
L 641.7225 171.53764 
L 641.025 171.941803 
L 640.3275 172.375214 
L 639.63 172.826801 
L 638.9325 173.323621 
L 638.235 173.821979 
L 637.5375 174.342039 
L 636.84 174.865405 
L 636.1425 175.392809 
L 635.445 175.91855 
L 634.7475 176.430559 
L 634.05 176.910527 
L 633.3525 177.34688 
L 632.655 177.773226 
L 631.9575 178.159407 
L 631.26 178.514025 
L 630.5625 178.839634 
L 629.865 179.139103 
L 629.1675 179.37087 
L 628.47 179.564368 
L 627.7725 179.711118 
L 627.075 179.828696 
L 626.3775 179.877507 
L 625.68 179.882573 
L 624.9825 179.831064 
L 624.285 179.710763 
L 623.5875 179.567681 
L 622.89 179.365041 
L 622.1925 179.124194 
L 621.495 178.841357 
L 620.7975 178.506811 
L 620.1 178.10501 
L 619.4025 177.685008 
L 618.705 177.219408 
L 618.0075 176.726016 
L 617.31 176.191003 
L 616.6125 175.613764 
L 615.915 175.032474 
L 615.2175 174.421479 
L 614.52 173.79377 
L 613.8225 173.175293 
L 613.125 172.559957 
L 612.4275 171.941639 
L 611.73 171.333408 
L 611.0325 170.773775 
L 610.335 170.249626 
L 609.6375 169.747464 
L 608.94 169.291879 
L 608.2425 168.875018 
L 607.545 168.488614 
L 606.8475 168.168779 
L 606.15 167.912582 
L 605.4525 167.710017 
L 604.755 167.518563 
L 604.0575 167.397775 
L 603.36 167.297859 
L 602.6625 167.251832 
L 601.965 167.234641 
L 601.2675 167.259249 
L 600.57 167.319 
L 599.8725 167.406863 
L 599.175 167.534662 
L 598.4775 167.662692 
L 597.78 167.840667 
L 597.0825 168.015566 
L 596.385 168.211048 
L 595.6875 168.412225 
L 594.99 168.616923 
L 594.2925 168.842092 
L 593.595 169.053361 
L 592.8975 169.267609 
L 592.2 169.463359 
L 591.5025 169.619332 
L 590.805 169.772168 
L 590.1075 169.913827 
L 589.41 170.030003 
L 588.7125 170.106666 
L 588.015 170.168536 
L 587.3175 170.221334 
L 586.62 170.238937 
L 585.9225 170.221157 
L 585.225 170.149023 
L 584.5275 170.03609 
L 583.83 169.896353 
L 583.1325 169.744096 
L 582.435 169.574579 
L 581.7375 169.376858 
L 581.04 169.15307 
L 580.3425 168.905634 
L 579.645 168.618063 
L 578.9475 168.312625 
L 578.25 167.973461 
L 577.5525 167.604236 
L 576.855 167.240878 
L 576.1575 166.848988 
L 575.46 166.477514 
L 574.7625 166.072985 
L 574.065 165.652548 
L 573.3675 165.23352 
L 572.67 164.80127 
L 571.9725 164.40518 
L 571.275 164.017593 
L 570.5775 163.636313 
L 569.88 163.259071 
L 569.1825 162.921883 
L 568.485 162.590068 
L 567.7875 162.267212 
L 567.09 161.995129 
L 566.3925 161.75121 
L 565.695 161.538092 
L 564.9975 161.370852 
L 564.3 161.270459 
L 563.6025 161.212451 
L 562.905 161.184678 
L 562.2075 161.225765 
L 561.51 161.309718 
L 560.8125 161.448406 
L 560.115 161.646715 
L 559.4175 161.896117 
L 558.72 162.20669 
L 558.0225 162.549527 
L 557.325 162.952861 
L 556.6275 163.374008 
L 555.93 163.84674 
L 555.2325 164.327625 
L 554.535 164.837014 
L 553.8375 165.37579 
L 553.14 165.91258 
L 552.4425 166.486293 
L 551.745 167.039631 
L 551.0475 167.611325 
L 550.35 168.163259 
L 549.6525 168.727792 
L 548.955 169.266886 
L 548.2575 169.76194 
L 547.56 170.23954 
L 546.8625 170.694524 
L 546.165 171.115588 
L 545.4675 171.485406 
L 544.77 171.812757 
L 544.0725 172.087714 
L 543.375 172.313693 
L 542.6775 172.481865 
L 541.98 172.622349 
L 541.2825 172.688915 
L 540.585 172.706393 
L 539.8875 172.674594 
L 539.19 172.587475 
L 538.4925 172.471526 
L 537.795 172.315226 
L 537.0975 172.126652 
L 536.4 171.907841 
L 535.7025 171.667546 
L 535.005 171.389202 
L 534.3075 171.107754 
L 533.61 170.787919 
L 532.9125 170.471479 
L 532.215 170.129917 
L 531.5175 169.79886 
L 530.82 169.4755 
L 530.1225 169.156944 
L 529.425 168.872185 
L 528.7275 168.585975 
L 528.03 168.326958 
L 527.3325 168.091546 
L 526.635 167.875895 
L 525.9375 167.675949 
L 525.24 167.506644 
L 524.5425 167.363421 
L 523.845 167.254217 
L 523.1475 167.186599 
L 522.45 167.135748 
L 521.7525 167.114989 
L 521.055 167.111771 
L 520.3575 167.138904 
L 519.66 167.202481 
L 518.9625 167.295429 
L 518.265 167.410356 
L 517.5675 167.571568 
L 516.87 167.764549 
L 516.1725 167.974438 
L 515.475 168.224517 
L 514.7775 168.505694 
L 514.08 168.814932 
L 513.3825 169.148888 
L 512.685 169.491178 
L 511.9875 169.831715 
L 511.29 170.173206 
L 510.5925 170.524736 
L 509.895 170.895279 
L 509.1975 171.261669 
L 508.5 171.639108 
L 507.8025 171.991579 
L 507.105 172.359986 
L 506.4075 172.714796 
L 505.71 173.058563 
L 505.0125 173.36841 
L 504.315 173.666536 
L 503.6175 173.949719 
L 502.92 174.195738 
L 502.2225 174.440257 
L 501.525 174.648696 
L 500.8275 174.831579 
L 500.13 174.967765 
L 499.4325 175.062171 
L 498.735 175.132938 
L 498.0375 175.172915 
L 497.34 175.181668 
L 496.6425 175.152717 
L 495.945 175.099148 
L 495.2475 175.021541 
L 494.55 174.933509 
L 493.8525 174.79768 
L 493.155 174.647457 
L 492.4575 174.446142 
L 491.76 174.234233 
L 491.0625 173.994859 
L 490.365 173.730607 
L 489.6675 173.437945 
L 488.97 173.132811 
L 488.2725 172.805729 
L 487.575 172.466621 
L 486.8775 172.1447 
L 486.18 171.830673 
L 485.4825 171.515157 
L 484.785 171.201563 
L 484.0875 170.912443 
L 483.39 170.638146 
L 482.6925 170.368862 
L 481.995 170.107502 
L 481.2975 169.869665 
L 480.6 169.645146 
L 479.9025 169.44276 
L 479.205 169.258307 
L 478.5075 169.106554 
L 477.81 168.969981 
L 477.1125 168.862837 
L 476.415 168.773506 
L 475.7175 168.728503 
L 475.02 168.696377 
L 474.3225 168.683863 
L 473.625 168.691097 
L 472.9275 168.711613 
L 472.23 168.745188 
L 471.5325 168.79146 
L 470.835 168.881867 
L 470.1375 168.983493 
L 469.44 169.101628 
L 468.7425 169.24777 
L 468.045 169.413952 
L 467.3475 169.585604 
L 466.65 169.773644 
L 465.9525 169.988815 
L 465.255 170.228792 
L 464.5575 170.471819 
L 463.86 170.71527 
L 463.1625 170.975675 
L 462.465 171.22467 
L 461.7675 171.504276 
L 461.07 171.76676 
L 460.3725 172.015672 
L 459.675 172.248321 
L 458.9775 172.455807 
L 458.28 172.623111 
L 457.5825 172.78675 
L 456.885 172.932181 
L 456.1875 173.038669 
L 455.49 173.111451 
L 454.7925 173.181678 
L 454.095 173.216653 
L 453.3975 173.228773 
L 452.7 173.217908 
L 452.0025 173.190561 
L 451.305 173.140642 
L 450.6075 173.06869 
L 449.91 172.981869 
L 449.2125 172.874731 
L 448.515 172.75482 
L 447.8175 172.617047 
L 447.12 172.450124 
L 446.4225 172.268631 
L 445.725 172.080917 
L 445.0275 171.882622 
L 444.33 171.695053 
L 443.6325 171.494687 
L 442.935 171.283689 
L 442.2375 171.057953 
L 441.54 170.845467 
L 440.8425 170.629367 
L 440.145 170.431149 
L 439.4475 170.233794 
L 438.75 170.064985 
L 438.0525 169.894609 
L 437.355 169.737282 
L 436.6575 169.594704 
L 435.96 169.455642 
L 435.2625 169.334374 
L 434.565 169.225822 
L 433.8675 169.137547 
L 433.17 169.057729 
L 432.4725 169.000005 
L 431.775 168.952224 
L 431.0775 168.914903 
L 430.38 168.888444 
L 429.6825 168.879522 
L 428.985 168.881845 
L 428.2875 168.895388 
L 427.59 168.913617 
L 426.8925 168.942724 
L 426.195 168.98878 
L 425.4975 169.0449 
L 424.8 169.110478 
L 424.1025 169.191193 
L 423.405 169.273397 
L 422.7075 169.381751 
L 422.01 169.483148 
L 421.3125 169.589267 
L 420.615 169.69896 
L 419.9175 169.804654 
L 419.22 169.905208 
L 418.5225 169.999535 
L 417.825 170.099389 
L 417.1275 170.190917 
L 416.43 170.279517 
L 415.7325 170.357844 
L 415.035 170.412276 
L 414.3375 170.467776 
L 413.64 170.517356 
L 412.9425 170.547704 
L 412.245 170.584044 
L 411.5475 170.606819 
L 410.85 170.603009 
L 410.1525 170.58543 
L 409.455 170.554271 
L 408.7575 170.509871 
L 408.06 170.44632 
L 407.3625 170.357919 
L 406.665 170.264785 
L 405.9675 170.135988 
L 405.27 169.992081 
L 404.5725 169.821847 
L 403.875 169.646285 
L 403.1775 169.460908 
L 402.48 169.254942 
L 401.7825 169.049777 
L 401.085 168.822081 
L 400.3875 168.587088 
L 399.69 168.353726 
L 398.9925 168.105356 
L 398.295 167.851049 
L 397.5975 167.612714 
L 396.9 167.380155 
L 396.2025 167.162271 
L 395.505 166.948642 
L 394.8075 166.747965 
L 394.11 166.562409 
L 393.4125 166.368429 
L 392.715 166.193672 
L 392.0175 166.040026 
L 391.32 165.896377 
L 390.6225 165.789827 
L 389.925 165.683204 
L 389.2275 165.596822 
L 388.53 165.550776 
L 387.8325 165.526403 
L 387.135 165.523965 
L 386.4375 165.562651 
L 385.74 165.616494 
L 385.0425 165.684911 
L 384.345 165.779938 
L 383.6475 165.900548 
L 382.95 166.032663 
L 382.2525 166.168467 
L 381.555 166.312879 
L 380.8575 166.470728 
L 380.16 166.633918 
L 379.4625 166.800687 
L 378.765 166.962845 
L 378.0675 167.112252 
L 377.37 167.266454 
L 376.6725 167.404624 
L 375.975 167.538043 
L 375.2775 167.671656 
L 374.58 167.791245 
L 373.8825 167.901904 
L 373.185 167.996049 
L 372.4875 168.079052 
L 371.79 168.150015 
L 371.0925 168.201783 
L 370.395 168.233796 
L 369.6975 168.24571 
L 369 168.256557 
L 368.3025 168.234284 
L 367.605 168.217454 
L 366.9075 168.180701 
L 366.21 168.124422 
L 365.5125 168.055613 
L 364.815 167.975016 
L 364.1175 167.870729 
L 363.42 167.756653 
L 362.7225 167.634021 
L 362.025 167.504159 
L 361.3275 167.36847 
L 360.63 167.241196 
L 359.9325 167.104549 
L 359.235 166.966394 
L 358.5375 166.834611 
L 357.84 166.685076 
L 357.1425 166.544954 
L 356.445 166.396597 
L 355.7475 166.254384 
L 355.05 166.113463 
L 354.3525 165.962584 
L 353.655 165.816151 
L 352.9575 165.669361 
L 352.26 165.536574 
L 351.5625 165.425612 
L 350.865 165.318513 
L 350.1675 165.222822 
L 349.47 165.139573 
L 348.7725 165.069666 
L 348.075 165.020243 
L 347.3775 164.991839 
L 346.68 164.991148 
L 345.9825 165.01179 
L 345.285 165.047155 
L 344.5875 165.103248 
L 343.89 165.185849 
L 343.1925 165.281293 
L 342.495 165.394933 
L 341.7975 165.525543 
L 341.1 165.665323 
L 340.4025 165.825537 
L 339.705 166.004454 
L 339.0075 166.193752 
L 338.31 166.397773 
L 337.6125 166.607926 
L 336.915 166.834712 
L 336.2175 167.075681 
L 335.52 167.315454 
L 334.8225 167.55144 
L 334.125 167.781088 
L 333.4275 168.008303 
L 332.73 168.224243 
L 332.0325 168.420186 
L 331.335 168.606789 
L 330.6375 168.775648 
L 329.94 168.912164 
L 329.2425 169.027635 
L 328.545 169.139976 
L 327.8475 169.216036 
L 327.15 169.280542 
L 326.4525 169.320023 
L 325.755 169.327663 
L 325.0575 169.309769 
L 324.36 169.266533 
L 323.6625 169.198423 
L 322.965 169.106175 
L 322.2675 168.990785 
L 321.57 168.859889 
L 320.8725 168.721289 
L 320.175 168.563707 
L 319.4775 168.395234 
L 318.78 168.21769 
L 318.0825 168.026609 
L 317.385 167.830441 
L 316.6875 167.637694 
L 315.99 167.444065 
L 315.2925 167.258033 
L 314.595 167.081609 
L 313.8975 166.929475 
L 313.2 166.784112 
L 312.5025 166.640704 
L 311.805 166.500801 
L 311.1075 166.365915 
L 310.41 166.243892 
L 309.7125 166.142437 
L 309.015 166.05626 
L 308.3175 165.99268 
L 307.62 165.939608 
L 306.9225 165.910393 
L 306.225 165.898964 
L 305.5275 165.924606 
L 304.83 165.987042 
L 304.1325 166.072822 
L 303.435 166.187407 
L 302.7375 166.335946 
L 302.04 166.504059 
L 301.3425 166.696315 
L 300.645 166.910638 
L 299.9475 167.14471 
L 299.25 167.396003 
L 298.5525 167.6618 
L 297.855 167.939228 
L 297.1575 168.238063 
L 296.46 168.54869 
L 295.7625 168.86775 
L 295.065 169.185408 
L 294.3675 169.504617 
L 293.67 169.821929 
L 292.9725 170.133913 
L 292.275 170.443586 
L 291.5775 170.734824 
L 290.88 171.017257 
L 290.1825 171.275055 
L 289.485 171.518209 
L 288.7875 171.737702 
L 288.09 171.931163 
L 287.3925 172.102887 
L 286.695 172.244631 
L 285.9975 172.361252 
L 285.3 172.438713 
L 284.6025 172.49534 
L 283.905 172.524133 
L 283.2075 172.524782 
L 282.51 172.497278 
L 281.8125 172.44192 
L 281.115 172.359305 
L 280.4175 172.250327 
L 279.72 172.122551 
L 279.0225 171.970969 
L 278.325 171.797222 
L 277.6275 171.609573 
L 276.93 171.410051 
L 276.2325 171.194425 
L 275.535 170.971412 
L 274.8375 170.743424 
L 274.14 170.51931 
L 273.4425 170.295107 
L 272.745 170.06685 
L 272.0475 169.84978 
L 271.35 169.63347 
L 270.6525 169.426643 
L 269.955 169.231536 
L 269.2575 169.04387 
L 268.56 168.878447 
L 267.8625 168.737056 
L 267.165 168.627612 
L 266.4675 168.538523 
L 265.77 168.47714 
L 265.0725 168.444126 
L 264.375 168.43345 
L 263.6775 168.458002 
L 262.98 168.504743 
L 262.2825 168.566779 
L 261.585 168.656215 
L 260.8875 168.765698 
L 260.19 168.900431 
L 259.4925 169.058957 
L 258.795 169.239565 
L 258.0975 169.440301 
L 257.4 169.658996 
L 256.7025 169.893287 
L 256.005 170.140641 
L 255.3075 170.404773 
L 254.61 170.670053 
L 253.9125 170.940001 
L 253.215 171.205313 
L 252.5175 171.469508 
L 251.82 171.723343 
L 251.1225 171.964076 
L 250.425 172.195491 
L 249.7275 172.415088 
L 249.03 172.620494 
L 248.3325 172.809488 
L 247.635 172.980027 
L 246.9375 173.13027 
L 246.24 173.245816 
L 245.5425 173.338192 
L 244.845 173.400013 
L 244.1475 173.443384 
L 243.45 173.455063 
L 242.7525 173.441311 
L 242.055 173.395888 
L 241.3575 173.312898 
L 240.66 173.206014 
L 239.9625 173.070002 
L 239.265 172.906333 
L 238.5675 172.710389 
L 237.87 172.484286 
L 237.1725 172.236857 
L 236.475 171.970775 
L 235.7775 171.682528 
L 235.08 171.38162 
L 234.3825 171.071303 
L 233.685 170.754929 
L 232.9875 170.429532 
L 232.29 170.098629 
L 231.5925 169.778569 
L 230.895 169.466425 
L 230.1975 169.159183 
L 229.5 168.866552 
L 228.8025 168.578918 
L 228.105 168.312166 
L 227.4075 168.062791 
L 226.71 167.833488 
L 226.0125 167.633124 
L 225.315 167.457475 
L 224.6175 167.308441 
L 223.92 167.187632 
L 223.2225 167.096354 
L 222.525 167.035593 
L 221.8275 167.006006 
L 221.13 167.007913 
L 220.4325 167.034906 
L 219.735 167.093081 
L 219.0375 167.175421 
L 218.34 167.287423 
L 217.6425 167.427878 
L 216.945 167.595267 
L 216.2475 167.787782 
L 215.55 168.003341 
L 214.8525 168.239615 
L 214.155 168.49405 
L 213.4575 168.770284 
L 212.76 169.058944 
L 212.0625 169.356909 
L 211.365 169.667348 
L 210.6675 169.980518 
L 209.97 170.293033 
L 209.2725 170.601517 
L 208.575 170.902635 
L 207.8775 171.193134 
L 207.18 171.469872 
L 206.4825 171.729859 
L 205.785 171.970286 
L 205.0875 172.188554 
L 204.39 172.382304 
L 203.6925 172.549442 
L 202.995 172.688162 
L 202.2975 172.809738 
L 201.6 172.900083 
L 200.9025 172.958219 
L 200.205 172.98352 
L 199.5075 172.97571 
L 198.81 172.934875 
L 198.1125 172.867843 
L 197.415 172.768952 
L 196.7175 172.639269 
L 196.02 172.480198 
L 195.3225 172.293456 
L 194.625 172.081062 
L 193.9275 171.845313 
L 193.23 171.588754 
L 192.5325 171.314161 
L 191.835 171.024499 
L 191.1375 170.7229 
L 190.44 170.412624 
L 189.7425 170.097024 
L 189.045 169.77951 
L 188.3475 169.463515 
L 187.65 169.152453 
L 186.9525 168.849687 
L 186.255 168.558488 
L 185.5575 168.282005 
L 184.86 168.023224 
L 184.1625 167.784944 
L 183.465 167.569738 
L 182.7675 167.379934 
L 182.07 167.217582 
L 181.3725 167.084438 
L 180.675 166.98194 
L 179.9775 166.911195 
L 179.28 166.872969 
L 178.5825 166.867675 
L 177.885 166.89537 
L 177.1875 166.955754 
L 176.49 167.048175 
L 175.7925 167.171634 
L 175.095 167.324797 
L 174.3975 167.506008 
L 173.7 167.713309 
L 173.0025 167.94446 
L 172.305 168.196962 
L 171.6075 168.468086 
L 170.91 168.754902 
L 170.2125 169.05431 
L 169.515 169.363075 
L 168.8175 169.677858 
L 168.12 169.995259 
L 167.4225 170.305459 
L 166.725 170.611493 
L 166.0275 170.910053 
L 165.33 171.197913 
L 164.6325 171.471962 
L 163.935 171.729237 
L 163.2375 171.966959 
L 162.54 172.182557 
L 161.8425 172.367315 
L 161.145 172.525623 
L 160.4475 172.655769 
L 159.75 172.756349 
L 159.0525 172.826273 
L 158.355 172.864787 
L 157.6575 172.871475 
L 156.96 172.846263 
L 156.2625 172.789426 
L 155.565 172.701576 
L 154.8675 172.583663 
L 154.17 172.436962 
L 153.4725 172.263058 
L 152.775 172.063831 
L 152.0775 171.835047 
L 151.38 171.585565 
L 150.6825 171.311695 
L 149.985 171.022783 
L 149.2875 170.721953 
L 148.59 170.412456 
L 147.8925 170.097636 
L 147.195 169.780897 
L 146.4975 169.46566 
L 145.8 169.155335 
L 145.1025 168.853273 
L 144.405 168.562741 
L 143.7075 168.286877 
L 143.01 168.028664 
L 142.3125 167.790892 
L 141.615 167.576131 
L 140.9175 167.386702 
L 140.22 167.224652 
L 139.5225 167.085346 
L 138.825 166.976676 
L 138.1275 166.899817 
L 137.43 166.861987 
L 136.7325 166.857207 
L 136.035 166.885529 
L 135.3375 166.946647 
L 134.64 167.039901 
L 133.9425 167.170669 
L 133.245 167.331151 
L 132.5475 167.519613 
L 131.85 167.734018 
L 131.1525 167.972049 
L 130.455 168.231133 
L 129.7575 168.508469 
L 129.06 168.801061 
L 128.3625 169.105747 
L 127.665 169.419232 
L 126.9675 169.73813 
L 126.27 170.058994 
L 125.5725 170.378355 
L 124.875 170.692762 
L 124.1775 170.998818 
L 123.48 171.293214 
L 122.7825 171.572768 
L 122.085 171.83446 
L 121.3875 172.075461 
L 120.69 172.293166 
L 119.9925 172.485222 
L 119.295 172.649554 
L 118.5975 172.784385 
L 117.9 172.888259 
L 117.2025 172.960053 
L 116.505 172.99899 
L 115.8075 173.00465 
L 115.11 172.976972 
L 114.4125 172.916255 
L 113.715 172.823155 
L 113.0175 172.698678 
L 112.32 172.54417 
L 111.6225 172.3613 
L 110.925 172.152046 
L 110.2275 171.918668 
L 109.53 171.663689 
L 108.8325 171.389864 
L 108.135 171.100153 
L 107.4375 170.797688 
L 106.74 170.485736 
L 106.0425 170.167671 
L 105.345 169.846928 
L 104.6475 169.526975 
L 103.95 169.21127 
L 103.2525 168.903225 
L 102.555 168.606169 
L 101.8575 168.323313 
L 101.16 168.057713 
L 100.4625 167.81224 
L 99.765 167.589548 
L 99.0675 167.392042 
L 98.37 167.221858 
L 97.6725 167.080836 
L 96.975 166.970498 
L 96.2775 166.892038 
L 95.58 166.846303 
L 94.8825 166.840176 
L 94.185 166.867334 
L 93.4875 166.927486 
L 92.79 167.019979 
L 92.0925 167.143816 
L 91.395 167.297657 
L 90.6975 167.479839 
L 90 167.688395 
z
" style="fill:#e0ffff;"/>
   </g>
   <g id="line2d_15">
    <path clip-path="url(#pa0d8525399)" d="M 90 167.688395 
L 92.0925 167.143816 
L 94.185 166.867334 
L 96.2775 166.892038 
L 98.37 167.221858 
L 100.4625 167.81224 
L 103.2525 168.903225 
L 110.2275 171.918668 
L 112.32 172.54417 
L 114.4125 172.916255 
L 116.505 172.99899 
L 118.5975 172.784385 
L 120.69 172.293166 
L 122.7825 171.572768 
L 126.27 170.058994 
L 130.455 168.231133 
L 132.5475 167.519613 
L 134.64 167.039901 
L 136.7325 166.857207 
L 138.825 166.976676 
L 140.9175 167.386702 
L 143.01 168.028664 
L 145.8 169.155335 
L 152.0775 171.835047 
L 154.17 172.436962 
L 156.2625 172.789426 
L 158.355 172.864787 
L 160.4475 172.655769 
L 162.54 172.182557 
L 164.6325 171.471962 
L 168.12 169.995259 
L 172.305 168.196962 
L 174.3975 167.506008 
L 176.49 167.048175 
L 178.5825 166.867675 
L 180.675 166.98194 
L 182.7675 167.379934 
L 184.86 168.023224 
L 187.65 169.152453 
L 193.9275 171.845313 
L 196.02 172.480198 
L 198.1125 172.867843 
L 200.205 172.98352 
L 202.2975 172.809738 
L 204.39 172.382304 
L 206.4825 171.729859 
L 209.2725 170.601517 
L 214.8525 168.239615 
L 216.945 167.595267 
L 219.0375 167.175421 
L 221.13 167.007913 
L 223.2225 167.096354 
L 225.315 167.457475 
L 227.4075 168.062791 
L 230.1975 169.159183 
L 237.87 172.484286 
L 239.9625 173.070002 
L 242.055 173.395888 
L 244.1475 173.443384 
L 246.24 173.245816 
L 248.3325 172.809488 
L 251.1225 171.964076 
L 255.3075 170.404773 
L 258.0975 169.440301 
L 260.19 168.900431 
L 262.2825 168.566779 
L 264.375 168.43345 
L 266.4675 168.538523 
L 268.56 168.878447 
L 271.35 169.63347 
L 279.72 172.122551 
L 281.8125 172.44192 
L 283.905 172.524133 
L 285.9975 172.361252 
L 288.09 171.931163 
L 290.1825 171.275055 
L 292.9725 170.133913 
L 299.25 167.396003 
L 302.04 166.504059 
L 304.1325 166.072822 
L 306.225 165.898964 
L 308.3175 165.99268 
L 310.41 166.243892 
L 314.595 167.081609 
L 322.965 169.106175 
L 325.0575 169.309769 
L 327.15 169.280542 
L 329.94 168.912164 
L 332.0325 168.420186 
L 334.8225 167.55144 
L 339.705 166.004454 
L 342.495 165.394933 
L 345.285 165.047155 
L 347.3775 164.991839 
L 349.47 165.139573 
L 352.26 165.536574 
L 366.21 168.124422 
L 369 168.256557 
L 371.79 168.150015 
L 374.58 167.791245 
L 378.765 166.962845 
L 383.6475 165.900548 
L 385.74 165.616494 
L 387.8325 165.526403 
L 389.925 165.683204 
L 392.715 166.193672 
L 396.2025 167.162271 
L 399.69 168.353726 
L 403.875 169.646285 
L 406.665 170.264785 
L 409.455 170.554271 
L 412.245 170.584044 
L 416.43 170.279517 
L 422.7075 169.381751 
L 425.4975 169.0449 
L 428.2875 168.895388 
L 431.0775 168.914903 
L 433.8675 169.137547 
L 436.6575 169.594704 
L 439.4475 170.233794 
L 448.515 172.75482 
L 451.305 173.140642 
L 453.3975 173.228773 
L 455.49 173.111451 
L 457.5825 172.78675 
L 459.675 172.248321 
L 463.1625 170.975675 
L 466.65 169.773644 
L 469.44 169.101628 
L 471.5325 168.79146 
L 474.3225 168.683863 
L 476.415 168.773506 
L 478.5075 169.106554 
L 480.6 169.645146 
L 483.39 170.638146 
L 486.18 171.830673 
L 491.76 174.234233 
L 493.8525 174.79768 
L 495.945 175.099148 
L 498.0375 175.172915 
L 500.13 174.967765 
L 501.525 174.648696 
L 503.6175 173.949719 
L 506.4075 172.714796 
L 515.475 168.224517 
L 517.5675 167.571568 
L 518.9625 167.295429 
L 521.055 167.111771 
L 523.1475 167.186599 
L 524.5425 167.363421 
L 526.635 167.875895 
L 528.7275 168.585975 
L 532.215 170.129917 
L 535.005 171.389202 
L 537.0975 172.126652 
L 539.19 172.587475 
L 540.585 172.706393 
L 541.98 172.622349 
L 544.0725 172.087714 
L 545.4675 171.485406 
L 546.8625 170.694524 
L 548.955 169.266886 
L 556.6275 163.374008 
L 558.72 162.20669 
L 560.115 161.646715 
L 561.51 161.309718 
L 562.905 161.184678 
L 564.9975 161.370852 
L 566.3925 161.75121 
L 568.485 162.590068 
L 571.275 164.017593 
L 574.7625 166.072985 
L 578.25 167.973461 
L 580.3425 168.905634 
L 582.435 169.574579 
L 585.225 170.149023 
L 586.62 170.238937 
L 588.7125 170.106666 
L 590.805 169.772168 
L 593.595 169.053361 
L 598.4775 167.662692 
L 601.2675 167.259249 
L 602.6625 167.251832 
L 604.0575 167.397775 
L 605.4525 167.710017 
L 606.8475 168.168779 
L 608.2425 168.875018 
L 610.335 170.249626 
L 612.4275 171.941639 
L 617.31 176.191003 
L 619.4025 177.685008 
L 621.495 178.841357 
L 622.89 179.365041 
L 624.285 179.710763 
L 625.68 179.882573 
L 627.075 179.828696 
L 629.1675 179.37087 
L 630.5625 178.839634 
L 632.655 177.773226 
L 634.7475 176.430559 
L 641.025 171.941803 
L 642.42 171.192641 
L 644.5125 170.325277 
L 645.9075 169.977486 
L 646.605 169.92 
L 646.605 169.92 
" style="fill:none;stroke:#008080;stroke-linecap:round;stroke-width:1.75;"/>
   </g>
   <g id="patch_3">
    <path d="M 90 270.72 
L 90 69.12 
" style="fill:none;stroke:#262626;stroke-linecap:square;stroke-linejoin:miter;stroke-width:1.25;"/>
   </g>
   <g id="patch_4">
    <path d="M 90 270.72 
L 648 270.72 
" style="fill:none;stroke:#262626;stroke-linecap:square;stroke-linejoin:miter;stroke-width:1.25;"/>
   </g>
  </g>
  <g id="axes_2">
   <g id="patch_5">
    <path d="M 90 512.64 
L 648 512.64 
L 648 311.04 
L 90 311.04 
z
" style="fill:#ffffff;"/>
   </g>
   <g id="matplotlib.axis_3">
    <g id="xtick_10">
     <g id="line2d_16">
      <g>
       <use style="fill:#262626;stroke:#262626;" x="191.454545" xlink:href="#m8bd8f7acdb" y="512.64"/>
      </g>
     </g>
     <g id="text_15">
      <!-- 200 -->
      <g style="fill:#262626;" transform="translate(183.113139 532.797812)scale(0.1 -0.1)">
       <use xlink:href="#ArialMT-32"/>
       <use x="55.615234" xlink:href="#ArialMT-30"/>
       <use x="111.230469" xlink:href="#ArialMT-30"/>
      </g>
     </g>
    </g>
    <g id="xtick_11">
     <g id="line2d_17">
      <g>
       <use style="fill:#262626;stroke:#262626;" x="304.181818" xlink:href="#m8bd8f7acdb" y="512.64"/>
      </g>
     </g>
     <g id="text_16">
      <!-- 400 -->
      <g style="fill:#262626;" transform="translate(295.840412 532.797812)scale(0.1 -0.1)">
       <use xlink:href="#ArialMT-34"/>
       <use x="55.615234" xlink:href="#ArialMT-30"/>
       <use x="111.230469" xlink:href="#ArialMT-30"/>
      </g>
     </g>
    </g>
    <g id="xtick_12">
     <g id="line2d_18">
      <g>
       <use style="fill:#262626;stroke:#262626;" x="416.909091" xlink:href="#m8bd8f7acdb" y="512.64"/>
      </g>
     </g>
     <g id="text_17">
      <!-- 600 -->
      <g style="fill:#262626;" transform="translate(408.567685 532.797812)scale(0.1 -0.1)">
       <use xlink:href="#ArialMT-36"/>
       <use x="55.615234" xlink:href="#ArialMT-30"/>
       <use x="111.230469" xlink:href="#ArialMT-30"/>
      </g>
     </g>
    </g>
    <g id="xtick_13">
     <g id="line2d_19">
      <g>
       <use style="fill:#262626;stroke:#262626;" x="529.636364" xlink:href="#m8bd8f7acdb" y="512.64"/>
      </g>
     </g>
     <g id="text_18">
      <!-- 800 -->
      <g style="fill:#262626;" transform="translate(521.294957 532.797812)scale(0.1 -0.1)">
       <use xlink:href="#ArialMT-38"/>
       <use x="55.615234" xlink:href="#ArialMT-30"/>
       <use x="111.230469" xlink:href="#ArialMT-30"/>
      </g>
     </g>
    </g>
    <g id="xtick_14">
     <g id="line2d_20">
      <g>
       <use style="fill:#262626;stroke:#262626;" x="642.363636" xlink:href="#m8bd8f7acdb" y="512.64"/>
      </g>
     </g>
     <g id="text_19">
      <!-- 1000 -->
      <g style="fill:#262626;" transform="translate(631.241761 532.797812)scale(0.1 -0.1)">
       <use xlink:href="#ArialMT-31"/>
       <use x="55.615234" xlink:href="#ArialMT-30"/>
       <use x="111.230469" xlink:href="#ArialMT-30"/>
       <use x="166.845703" xlink:href="#ArialMT-30"/>
      </g>
     </g>
    </g>
   </g>
   <g id="matplotlib.axis_4">
    <g id="ytick_6">
     <g id="line2d_21">
      <g>
       <use style="fill:#262626;stroke:#262626;" x="90" xlink:href="#m6c02e48523" y="512.64"/>
      </g>
     </g>
     <g id="text_20">
      <!-- 0 -->
      <g style="fill:#262626;" transform="translate(71.439063 516.218906)scale(0.1 -0.1)">
       <use xlink:href="#ArialMT-30"/>
      </g>
     </g>
    </g>
    <g id="ytick_7">
     <g id="line2d_22">
      <g>
       <use style="fill:#262626;stroke:#262626;" x="90" xlink:href="#m6c02e48523" y="490.24"/>
      </g>
     </g>
     <g id="text_21">
      <!-- 2 -->
      <g style="fill:#262626;" transform="translate(71.439063 493.818906)scale(0.1 -0.1)">
       <use xlink:href="#ArialMT-32"/>
      </g>
     </g>
    </g>
    <g id="ytick_8">
     <g id="line2d_23">
      <g>
       <use style="fill:#262626;stroke:#262626;" x="90" xlink:href="#m6c02e48523" y="467.84"/>
      </g>
     </g>
     <g id="text_22">
      <!-- 4 -->
      <g style="fill:#262626;" transform="translate(71.439063 471.418906)scale(0.1 -0.1)">
       <use xlink:href="#ArialMT-34"/>
      </g>
     </g>
    </g>
    <g id="ytick_9">
     <g id="line2d_24">
      <g>
       <use style="fill:#262626;stroke:#262626;" x="90" xlink:href="#m6c02e48523" y="445.44"/>
      </g>
     </g>
     <g id="text_23">
      <!-- 6 -->
      <g style="fill:#262626;" transform="translate(71.439063 449.018906)scale(0.1 -0.1)">
       <use xlink:href="#ArialMT-36"/>
      </g>
     </g>
    </g>
    <g id="ytick_10">
     <g id="line2d_25">
      <g>
       <use style="fill:#262626;stroke:#262626;" x="90" xlink:href="#m6c02e48523" y="423.04"/>
      </g>
     </g>
     <g id="text_24">
      <!-- 8 -->
      <g style="fill:#262626;" transform="translate(71.439063 426.618906)scale(0.1 -0.1)">
       <use xlink:href="#ArialMT-38"/>
      </g>
     </g>
    </g>
    <g id="ytick_11">
     <g id="line2d_26">
      <g>
       <use style="fill:#262626;stroke:#262626;" x="90" xlink:href="#m6c02e48523" y="400.64"/>
      </g>
     </g>
     <g id="text_25">
      <!-- 10 -->
      <g style="fill:#262626;" transform="translate(65.878125 404.218906)scale(0.1 -0.1)">
       <use xlink:href="#ArialMT-31"/>
       <use x="55.615234" xlink:href="#ArialMT-30"/>
      </g>
     </g>
    </g>
    <g id="ytick_12">
     <g id="line2d_27">
      <g>
       <use style="fill:#262626;stroke:#262626;" x="90" xlink:href="#m6c02e48523" y="378.24"/>
      </g>
     </g>
     <g id="text_26">
      <!-- 12 -->
      <g style="fill:#262626;" transform="translate(65.878125 381.818906)scale(0.1 -0.1)">
       <use xlink:href="#ArialMT-31"/>
       <use x="55.615234" xlink:href="#ArialMT-32"/>
      </g>
     </g>
    </g>
    <g id="ytick_13">
     <g id="line2d_28">
      <g>
       <use style="fill:#262626;stroke:#262626;" x="90" xlink:href="#m6c02e48523" y="355.84"/>
      </g>
     </g>
     <g id="text_27">
      <!-- 14 -->
      <g style="fill:#262626;" transform="translate(65.878125 359.418906)scale(0.1 -0.1)">
       <use xlink:href="#ArialMT-31"/>
       <use x="55.615234" xlink:href="#ArialMT-34"/>
      </g>
     </g>
    </g>
    <g id="ytick_14">
     <g id="line2d_29">
      <g>
       <use style="fill:#262626;stroke:#262626;" x="90" xlink:href="#m6c02e48523" y="333.44"/>
      </g>
     </g>
     <g id="text_28">
      <!-- 16 -->
      <g style="fill:#262626;" transform="translate(65.878125 337.018906)scale(0.1 -0.1)">
       <use xlink:href="#ArialMT-31"/>
       <use x="55.615234" xlink:href="#ArialMT-36"/>
      </g>
     </g>
    </g>
    <g id="ytick_15">
     <g id="line2d_30">
      <g>
       <use style="fill:#262626;stroke:#262626;" x="90" xlink:href="#m6c02e48523" y="311.04"/>
      </g>
     </g>
     <g id="text_29">
      <!-- 18 -->
      <g style="fill:#262626;" transform="translate(65.878125 314.618906)scale(0.1 -0.1)">
       <use xlink:href="#ArialMT-31"/>
       <use x="55.615234" xlink:href="#ArialMT-38"/>
      </g>
     </g>
    </g>
   </g>
   <g id="line2d_31">
    <path clip-path="url(#p33ffd66077)" d="M 90 477.654723 
L 95.636364 452.736402 
L 101.272727 431.923589 
L 106.909091 427.92302 
L 112.545455 440.45326 
L 118.181818 444.705349 
L 123.818182 448.961059 
L 129.454545 457.370701 
L 135.090909 456.375715 
L 140.727273 434.868159 
L 146.363636 408.816951 
L 152 389.988216 
L 157.636364 371.492183 
L 163.272727 352.310178 
L 168.909091 342.280664 
L 174.545455 348.647566 
L 180.181818 355.802406 
L 185.818182 363.350788 
L 191.454545 378.270766 
L 197.090909 391.147889 
L 202.727273 394.129256 
L 208.363636 396.550705 
L 214 393.395457 
L 219.636364 389.651786 
L 225.272727 392.702199 
L 230.909091 396.085016 
L 236.545455 399.690878 
L 242.181818 407.737617 
L 247.818182 414.331388 
L 253.454545 417.809913 
L 259.090909 422.903097 
L 264.727273 426.347751 
L 270.363636 429.764905 
L 276 436.797845 
L 281.636364 444.59905 
L 287.272727 452.348689 
L 292.909091 461.235722 
L 298.545455 467.982454 
L 304.181818 471.144774 
L 309.818182 472.257688 
L 315.454545 471.707893 
L 321.090909 472.117482 
L 326.727273 473.818281 
L 332.363636 475.619312 
L 338 478.193498 
L 343.636364 480.655986 
L 349.272727 482.144164 
L 354.909091 483.974362 
L 360.545455 485.825198 
L 366.181818 487.914885 
L 371.818182 490.804554 
L 377.454545 493.872728 
L 383.090909 496.544264 
L 388.727273 498.469641 
L 394.363636 499.417825 
L 400 499.768128 
L 405.636364 498.821458 
L 411.272727 497.224183 
L 416.909091 494.909956 
L 422.545455 492.447818 
L 428.181818 490.656474 
L 433.818182 489.398754 
L 439.454545 488.863228 
L 445.090909 489.4762 
L 450.727273 490.947183 
L 456.363636 492.717187 
L 462 494.86505 
L 467.636364 496.940627 
L 473.272727 498.413462 
L 478.909091 499.664059 
L 484.545455 500.693175 
L 490.181818 501.817475 
" style="fill:none;stroke:#b22222;stroke-linecap:round;stroke-width:1.75;"/>
   </g>
   <g id="line2d_32">
    <path clip-path="url(#p33ffd66077)" d="M 152 512.64 
L 152 311.04 
" style="fill:none;stroke:#4c72b0;stroke-linecap:round;stroke-width:1.75;"/>
   </g>
   <g id="patch_6">
    <path d="M 90 512.64 
L 90 311.04 
" style="fill:none;stroke:#262626;stroke-linecap:square;stroke-linejoin:miter;stroke-width:1.25;"/>
   </g>
   <g id="patch_7">
    <path d="M 90 512.64 
L 648 512.64 
" style="fill:none;stroke:#262626;stroke-linecap:square;stroke-linejoin:miter;stroke-width:1.25;"/>
   </g>
   <g id="text_30">
    <!-- f = 730 Hz -->
    <defs>
     <path d="M 8.6875 0 
L 8.6875 45.015625 
L 0.921875 45.015625 
L 0.921875 51.859375 
L 8.6875 51.859375 
L 8.6875 57.375 
Q 8.6875 62.59375 9.625 65.140625 
Q 10.890625 68.5625 14.078125 70.671875 
Q 17.28125 72.796875 23.046875 72.796875 
Q 26.765625 72.796875 31.25 71.921875 
L 29.9375 64.265625 
Q 27.203125 64.75 24.75 64.75 
Q 20.75 64.75 19.09375 63.03125 
Q 17.4375 61.328125 17.4375 56.640625 
L 17.4375 51.859375 
L 27.546875 51.859375 
L 27.546875 45.015625 
L 17.4375 45.015625 
L 17.4375 0 
z
" id="ArialMT-66"/>
     <path id="ArialMT-20"/>
     <path d="M 52.828125 42.09375 
L 5.5625 42.09375 
L 5.5625 50.296875 
L 52.828125 50.296875 
z
M 52.828125 20.359375 
L 5.5625 20.359375 
L 5.5625 28.5625 
L 52.828125 28.5625 
z
" id="ArialMT-3d"/>
     <path d="M 8.015625 0 
L 8.015625 71.578125 
L 17.484375 71.578125 
L 17.484375 42.1875 
L 54.6875 42.1875 
L 54.6875 71.578125 
L 64.15625 71.578125 
L 64.15625 0 
L 54.6875 0 
L 54.6875 33.734375 
L 17.484375 33.734375 
L 17.484375 0 
z
" id="ArialMT-48"/>
     <path d="M 1.953125 0 
L 1.953125 7.125 
L 34.96875 45.015625 
Q 29.34375 44.734375 25.046875 44.734375 
L 3.90625 44.734375 
L 3.90625 51.859375 
L 46.296875 51.859375 
L 46.296875 46.046875 
L 18.21875 13.140625 
L 12.796875 7.125 
Q 18.703125 7.5625 23.875 7.5625 
L 47.859375 7.5625 
L 47.859375 0 
z
" id="ArialMT-7a"/>
    </defs>
    <g style="fill:#262626;" transform="translate(529.636364 403.742188)scale(0.12 -0.12)">
     <use xlink:href="#ArialMT-66"/>
     <use x="27.783203" xlink:href="#ArialMT-20"/>
     <use x="55.566406" xlink:href="#ArialMT-3d"/>
     <use x="113.964844" xlink:href="#ArialMT-20"/>
     <use x="141.748047" xlink:href="#ArialMT-37"/>
     <use x="197.363281" xlink:href="#ArialMT-33"/>
     <use x="252.978516" xlink:href="#ArialMT-30"/>
     <use x="308.59375" xlink:href="#ArialMT-20"/>
     <use x="336.376953" xlink:href="#ArialMT-48"/>
     <use x="408.59375" xlink:href="#ArialMT-7a"/>
    </g>
   </g>
   <g id="PathCollection_1">
    <defs>
     <path d="M 0 3.5 
C 0.928211 3.5 1.81853 3.131218 2.474874 2.474874 
C 3.131218 1.81853 3.5 0.928211 3.5 0 
C 3.5 -0.928211 3.131218 -1.81853 2.474874 -2.474874 
C 1.81853 -3.131218 0.928211 -3.5 0 -3.5 
C -0.928211 -3.5 -1.81853 -3.131218 -2.474874 -2.474874 
C -3.131218 -1.81853 -3.5 -0.928211 -3.5 0 
C -3.5 0.928211 -3.131218 1.81853 -2.474874 2.474874 
C -1.81853 3.131218 -0.928211 3.5 0 3.5 
z
" id="m7f88aebf5a" style="stroke:#800000;stroke-width:0.3;"/>
    </defs>
    <g clip-path="url(#p33ffd66077)">
     <use style="fill:#800000;stroke:#800000;stroke-width:0.3;" x="490.181818" xlink:href="#m7f88aebf5a" y="501.817475"/>
    </g>
   </g>
  </g>
 </g>
 <defs>
  <clipPath id="pa0d8525399">
   <rect height="201.6" width="558" x="90" y="69.12"/>
  </clipPath>
  <clipPath id="p33ffd66077">
   <rect height="201.6" width="558" x="90" y="311.04"/>
  </clipPath>
 </defs>
</svg>
