<?xml version="1.0" encoding="utf-8" standalone="no"?>
<!DOCTYPE svg PUBLIC "-//W3C//DTD SVG 1.1//EN"
  "http://www.w3.org/Graphics/SVG/1.1/DTD/svg11.dtd">
<!-- Created with matplotlib (http://matplotlib.org/) -->
<svg height="576pt" version="1.1" viewBox="0 0 720 576" width="720pt" xmlns="http://www.w3.org/2000/svg" xmlns:xlink="http://www.w3.org/1999/xlink">
 <defs>
  <style type="text/css">
*{stroke-linecap:butt;stroke-linejoin:round;}
  </style>
 </defs>
 <g id="figure_1">
  <g id="patch_1">
   <path d="M 0 576 
L 720 576 
L 720 0 
L 0 0 
z
" style="fill:#ffffff;"/>
  </g>
  <g id="axes_1">
   <g id="patch_2">
    <path d="M 90 270.72 
L 648 270.72 
L 648 69.12 
L 90 69.12 
z
" style="fill:#ffffff;"/>
   </g>
   <g id="matplotlib.axis_1">
    <g id="xtick_1">
     <g id="line2d_1">
      <defs>
       <path d="M 0 0 
L 0 6 
" id="m75e1ae0988" style="stroke:#262626;"/>
      </defs>
      <g>
       <use style="fill:#262626;stroke:#262626;" x="90" xlink:href="#m75e1ae0988" y="270.72"/>
      </g>
     </g>
     <g id="text_1">
      <!-- 0 -->
      <defs>
       <path d="M 4.15625 35.296875 
Q 4.15625 48 6.765625 55.734375 
Q 9.375 63.484375 14.515625 67.671875 
Q 19.671875 71.875 27.484375 71.875 
Q 33.25 71.875 37.59375 69.546875 
Q 41.9375 67.234375 44.765625 62.859375 
Q 47.609375 58.5 49.21875 52.21875 
Q 50.828125 45.953125 50.828125 35.296875 
Q 50.828125 22.703125 48.234375 14.96875 
Q 45.65625 7.234375 40.5 3 
Q 35.359375 -1.21875 27.484375 -1.21875 
Q 17.140625 -1.21875 11.234375 6.203125 
Q 4.15625 15.140625 4.15625 35.296875 
z
M 13.1875 35.296875 
Q 13.1875 17.671875 17.3125 11.828125 
Q 21.4375 6 27.484375 6 
Q 33.546875 6 37.671875 11.859375 
Q 41.796875 17.71875 41.796875 35.296875 
Q 41.796875 52.984375 37.671875 58.78125 
Q 33.546875 64.59375 27.390625 64.59375 
Q 21.34375 64.59375 17.71875 59.46875 
Q 13.1875 52.9375 13.1875 35.296875 
z
" id="ArialMT-30"/>
      </defs>
      <g style="fill:#262626;" transform="translate(87.219531 290.877812)scale(0.1 -0.1)">
       <use xlink:href="#ArialMT-30"/>
      </g>
     </g>
    </g>
    <g id="xtick_2">
     <g id="line2d_2">
      <g>
       <use style="fill:#262626;stroke:#262626;" x="159.75" xlink:href="#m75e1ae0988" y="270.72"/>
      </g>
     </g>
     <g id="text_2">
      <!-- 100 -->
      <defs>
       <path d="M 37.25 0 
L 28.46875 0 
L 28.46875 56 
Q 25.296875 52.984375 20.140625 49.953125 
Q 14.984375 46.921875 10.890625 45.40625 
L 10.890625 53.90625 
Q 18.265625 57.375 23.78125 62.296875 
Q 29.296875 67.234375 31.59375 71.875 
L 37.25 71.875 
z
" id="ArialMT-31"/>
      </defs>
      <g style="fill:#262626;" transform="translate(151.408594 290.877812)scale(0.1 -0.1)">
       <use xlink:href="#ArialMT-31"/>
       <use x="55.615234" xlink:href="#ArialMT-30"/>
       <use x="111.230469" xlink:href="#ArialMT-30"/>
      </g>
     </g>
    </g>
    <g id="xtick_3">
     <g id="line2d_3">
      <g>
       <use style="fill:#262626;stroke:#262626;" x="229.5" xlink:href="#m75e1ae0988" y="270.72"/>
      </g>
     </g>
     <g id="text_3">
      <!-- 200 -->
      <defs>
       <path d="M 50.34375 8.453125 
L 50.34375 0 
L 3.03125 0 
Q 2.9375 3.171875 4.046875 6.109375 
Q 5.859375 10.9375 9.828125 15.625 
Q 13.8125 20.3125 21.34375 26.46875 
Q 33.015625 36.03125 37.109375 41.625 
Q 41.21875 47.21875 41.21875 52.203125 
Q 41.21875 57.421875 37.46875 61 
Q 33.734375 64.59375 27.734375 64.59375 
Q 21.390625 64.59375 17.578125 60.78125 
Q 13.765625 56.984375 13.71875 50.25 
L 4.6875 51.171875 
Q 5.609375 61.28125 11.65625 66.578125 
Q 17.71875 71.875 27.9375 71.875 
Q 38.234375 71.875 44.234375 66.15625 
Q 50.25 60.453125 50.25 52 
Q 50.25 47.703125 48.484375 43.546875 
Q 46.734375 39.40625 42.65625 34.8125 
Q 38.578125 30.21875 29.109375 22.21875 
Q 21.1875 15.578125 18.9375 13.203125 
Q 16.703125 10.84375 15.234375 8.453125 
z
" id="ArialMT-32"/>
      </defs>
      <g style="fill:#262626;" transform="translate(221.158594 290.877812)scale(0.1 -0.1)">
       <use xlink:href="#ArialMT-32"/>
       <use x="55.615234" xlink:href="#ArialMT-30"/>
       <use x="111.230469" xlink:href="#ArialMT-30"/>
      </g>
     </g>
    </g>
    <g id="xtick_4">
     <g id="line2d_4">
      <g>
       <use style="fill:#262626;stroke:#262626;" x="299.25" xlink:href="#m75e1ae0988" y="270.72"/>
      </g>
     </g>
     <g id="text_4">
      <!-- 300 -->
      <defs>
       <path d="M 4.203125 18.890625 
L 12.984375 20.0625 
Q 14.5 12.59375 18.140625 9.296875 
Q 21.78125 6 27 6 
Q 33.203125 6 37.46875 10.296875 
Q 41.75 14.59375 41.75 20.953125 
Q 41.75 27 37.796875 30.921875 
Q 33.84375 34.859375 27.734375 34.859375 
Q 25.25 34.859375 21.53125 33.890625 
L 22.515625 41.609375 
Q 23.390625 41.5 23.921875 41.5 
Q 29.546875 41.5 34.03125 44.421875 
Q 38.53125 47.359375 38.53125 53.46875 
Q 38.53125 58.296875 35.25 61.46875 
Q 31.984375 64.65625 26.8125 64.65625 
Q 21.6875 64.65625 18.265625 61.421875 
Q 14.84375 58.203125 13.875 51.765625 
L 5.078125 53.328125 
Q 6.6875 62.15625 12.390625 67.015625 
Q 18.109375 71.875 26.609375 71.875 
Q 32.46875 71.875 37.390625 69.359375 
Q 42.328125 66.84375 44.9375 62.5 
Q 47.5625 58.15625 47.5625 53.265625 
Q 47.5625 48.640625 45.0625 44.828125 
Q 42.578125 41.015625 37.703125 38.765625 
Q 44.046875 37.3125 47.5625 32.6875 
Q 51.078125 28.078125 51.078125 21.140625 
Q 51.078125 11.765625 44.234375 5.25 
Q 37.40625 -1.265625 26.953125 -1.265625 
Q 17.53125 -1.265625 11.296875 4.34375 
Q 5.078125 9.96875 4.203125 18.890625 
z
" id="ArialMT-33"/>
      </defs>
      <g style="fill:#262626;" transform="translate(290.908594 290.877812)scale(0.1 -0.1)">
       <use xlink:href="#ArialMT-33"/>
       <use x="55.615234" xlink:href="#ArialMT-30"/>
       <use x="111.230469" xlink:href="#ArialMT-30"/>
      </g>
     </g>
    </g>
    <g id="xtick_5">
     <g id="line2d_5">
      <g>
       <use style="fill:#262626;stroke:#262626;" x="369" xlink:href="#m75e1ae0988" y="270.72"/>
      </g>
     </g>
     <g id="text_5">
      <!-- 400 -->
      <defs>
       <path d="M 32.328125 0 
L 32.328125 17.140625 
L 1.265625 17.140625 
L 1.265625 25.203125 
L 33.9375 71.578125 
L 41.109375 71.578125 
L 41.109375 25.203125 
L 50.78125 25.203125 
L 50.78125 17.140625 
L 41.109375 17.140625 
L 41.109375 0 
z
M 32.328125 25.203125 
L 32.328125 57.46875 
L 9.90625 25.203125 
z
" id="ArialMT-34"/>
      </defs>
      <g style="fill:#262626;" transform="translate(360.658594 290.877812)scale(0.1 -0.1)">
       <use xlink:href="#ArialMT-34"/>
       <use x="55.615234" xlink:href="#ArialMT-30"/>
       <use x="111.230469" xlink:href="#ArialMT-30"/>
      </g>
     </g>
    </g>
    <g id="xtick_6">
     <g id="line2d_6">
      <g>
       <use style="fill:#262626;stroke:#262626;" x="438.75" xlink:href="#m75e1ae0988" y="270.72"/>
      </g>
     </g>
     <g id="text_6">
      <!-- 500 -->
      <defs>
       <path d="M 4.15625 18.75 
L 13.375 19.53125 
Q 14.40625 12.796875 18.140625 9.390625 
Q 21.875 6 27.15625 6 
Q 33.5 6 37.890625 10.78125 
Q 42.28125 15.578125 42.28125 23.484375 
Q 42.28125 31 38.0625 35.34375 
Q 33.84375 39.703125 27 39.703125 
Q 22.75 39.703125 19.328125 37.765625 
Q 15.921875 35.84375 13.96875 32.765625 
L 5.71875 33.84375 
L 12.640625 70.609375 
L 48.25 70.609375 
L 48.25 62.203125 
L 19.671875 62.203125 
L 15.828125 42.96875 
Q 22.265625 47.46875 29.34375 47.46875 
Q 38.71875 47.46875 45.15625 40.96875 
Q 51.609375 34.46875 51.609375 24.265625 
Q 51.609375 14.546875 45.953125 7.46875 
Q 39.0625 -1.21875 27.15625 -1.21875 
Q 17.390625 -1.21875 11.203125 4.25 
Q 5.03125 9.71875 4.15625 18.75 
z
" id="ArialMT-35"/>
      </defs>
      <g style="fill:#262626;" transform="translate(430.408594 290.877812)scale(0.1 -0.1)">
       <use xlink:href="#ArialMT-35"/>
       <use x="55.615234" xlink:href="#ArialMT-30"/>
       <use x="111.230469" xlink:href="#ArialMT-30"/>
      </g>
     </g>
    </g>
    <g id="xtick_7">
     <g id="line2d_7">
      <g>
       <use style="fill:#262626;stroke:#262626;" x="508.5" xlink:href="#m75e1ae0988" y="270.72"/>
      </g>
     </g>
     <g id="text_7">
      <!-- 600 -->
      <defs>
       <path d="M 49.75 54.046875 
L 41.015625 53.375 
Q 39.84375 58.546875 37.703125 60.890625 
Q 34.125 64.65625 28.90625 64.65625 
Q 24.703125 64.65625 21.53125 62.3125 
Q 17.390625 59.28125 14.984375 53.46875 
Q 12.59375 47.65625 12.5 36.921875 
Q 15.671875 41.75 20.265625 44.09375 
Q 24.859375 46.4375 29.890625 46.4375 
Q 38.671875 46.4375 44.84375 39.96875 
Q 51.03125 33.5 51.03125 23.25 
Q 51.03125 16.5 48.125 10.71875 
Q 45.21875 4.9375 40.140625 1.859375 
Q 35.0625 -1.21875 28.609375 -1.21875 
Q 17.625 -1.21875 10.6875 6.859375 
Q 3.765625 14.9375 3.765625 33.5 
Q 3.765625 54.25 11.421875 63.671875 
Q 18.109375 71.875 29.4375 71.875 
Q 37.890625 71.875 43.28125 67.140625 
Q 48.6875 62.40625 49.75 54.046875 
z
M 13.875 23.1875 
Q 13.875 18.65625 15.796875 14.5 
Q 17.71875 10.359375 21.1875 8.171875 
Q 24.65625 6 28.46875 6 
Q 34.03125 6 38.03125 10.484375 
Q 42.046875 14.984375 42.046875 22.703125 
Q 42.046875 30.125 38.078125 34.390625 
Q 34.125 38.671875 28.125 38.671875 
Q 22.171875 38.671875 18.015625 34.390625 
Q 13.875 30.125 13.875 23.1875 
z
" id="ArialMT-36"/>
      </defs>
      <g style="fill:#262626;" transform="translate(500.158594 290.877812)scale(0.1 -0.1)">
       <use xlink:href="#ArialMT-36"/>
       <use x="55.615234" xlink:href="#ArialMT-30"/>
       <use x="111.230469" xlink:href="#ArialMT-30"/>
      </g>
     </g>
    </g>
    <g id="xtick_8">
     <g id="line2d_8">
      <g>
       <use style="fill:#262626;stroke:#262626;" x="578.25" xlink:href="#m75e1ae0988" y="270.72"/>
      </g>
     </g>
     <g id="text_8">
      <!-- 700 -->
      <defs>
       <path d="M 4.734375 62.203125 
L 4.734375 70.65625 
L 51.078125 70.65625 
L 51.078125 63.8125 
Q 44.234375 56.546875 37.515625 44.484375 
Q 30.8125 32.421875 27.15625 19.671875 
Q 24.515625 10.6875 23.78125 0 
L 14.75 0 
Q 14.890625 8.453125 18.0625 20.40625 
Q 21.234375 32.375 27.171875 43.484375 
Q 33.109375 54.59375 39.796875 62.203125 
z
" id="ArialMT-37"/>
      </defs>
      <g style="fill:#262626;" transform="translate(569.908594 290.877812)scale(0.1 -0.1)">
       <use xlink:href="#ArialMT-37"/>
       <use x="55.615234" xlink:href="#ArialMT-30"/>
       <use x="111.230469" xlink:href="#ArialMT-30"/>
      </g>
     </g>
    </g>
    <g id="xtick_9">
     <g id="line2d_9">
      <g>
       <use style="fill:#262626;stroke:#262626;" x="648" xlink:href="#m75e1ae0988" y="270.72"/>
      </g>
     </g>
     <g id="text_9">
      <!-- 800 -->
      <defs>
       <path d="M 17.671875 38.8125 
Q 12.203125 40.828125 9.5625 44.53125 
Q 6.9375 48.25 6.9375 53.421875 
Q 6.9375 61.234375 12.546875 66.546875 
Q 18.171875 71.875 27.484375 71.875 
Q 36.859375 71.875 42.578125 66.421875 
Q 48.296875 60.984375 48.296875 53.171875 
Q 48.296875 48.1875 45.671875 44.5 
Q 43.0625 40.828125 37.75 38.8125 
Q 44.34375 36.671875 47.78125 31.875 
Q 51.21875 27.09375 51.21875 20.453125 
Q 51.21875 11.28125 44.71875 5.03125 
Q 38.234375 -1.21875 27.640625 -1.21875 
Q 17.046875 -1.21875 10.546875 5.046875 
Q 4.046875 11.328125 4.046875 20.703125 
Q 4.046875 27.6875 7.59375 32.390625 
Q 11.140625 37.109375 17.671875 38.8125 
z
M 15.921875 53.71875 
Q 15.921875 48.640625 19.1875 45.40625 
Q 22.46875 42.1875 27.6875 42.1875 
Q 32.765625 42.1875 36.015625 45.375 
Q 39.265625 48.578125 39.265625 53.21875 
Q 39.265625 58.0625 35.90625 61.359375 
Q 32.5625 64.65625 27.59375 64.65625 
Q 22.5625 64.65625 19.234375 61.421875 
Q 15.921875 58.203125 15.921875 53.71875 
z
M 13.09375 20.65625 
Q 13.09375 16.890625 14.875 13.375 
Q 16.65625 9.859375 20.171875 7.921875 
Q 23.6875 6 27.734375 6 
Q 34.03125 6 38.125 10.046875 
Q 42.234375 14.109375 42.234375 20.359375 
Q 42.234375 26.703125 38.015625 30.859375 
Q 33.796875 35.015625 27.4375 35.015625 
Q 21.234375 35.015625 17.15625 30.90625 
Q 13.09375 26.8125 13.09375 20.65625 
z
" id="ArialMT-38"/>
      </defs>
      <g style="fill:#262626;" transform="translate(639.658594 290.877812)scale(0.1 -0.1)">
       <use xlink:href="#ArialMT-38"/>
       <use x="55.615234" xlink:href="#ArialMT-30"/>
       <use x="111.230469" xlink:href="#ArialMT-30"/>
      </g>
     </g>
    </g>
   </g>
   <g id="matplotlib.axis_2">
    <g id="ytick_1">
     <g id="line2d_10">
      <defs>
       <path d="M 0 0 
L -6 0 
" id="md92125fb3f" style="stroke:#262626;"/>
      </defs>
      <g>
       <use style="fill:#262626;stroke:#262626;" x="90" xlink:href="#md92125fb3f" y="250.56"/>
      </g>
     </g>
     <g id="text_10">
      <!-- −0.04 -->
      <defs>
       <path d="M 52.828125 31.203125 
L 5.5625 31.203125 
L 5.5625 39.40625 
L 52.828125 39.40625 
z
" id="ArialMT-2212"/>
       <path d="M 9.078125 0 
L 9.078125 10.015625 
L 19.09375 10.015625 
L 19.09375 0 
z
" id="ArialMT-2e"/>
      </defs>
      <g style="fill:#262626;" transform="translate(51.698437 254.138906)scale(0.1 -0.1)">
       <use xlink:href="#ArialMT-2212"/>
       <use x="58.398438" xlink:href="#ArialMT-30"/>
       <use x="114.013672" xlink:href="#ArialMT-2e"/>
       <use x="141.796875" xlink:href="#ArialMT-30"/>
       <use x="197.412109" xlink:href="#ArialMT-34"/>
      </g>
     </g>
    </g>
    <g id="ytick_2">
     <g id="line2d_11">
      <g>
       <use style="fill:#262626;stroke:#262626;" x="90" xlink:href="#md92125fb3f" y="210.24"/>
      </g>
     </g>
     <g id="text_11">
      <!-- −0.02 -->
      <g style="fill:#262626;" transform="translate(51.698437 213.818906)scale(0.1 -0.1)">
       <use xlink:href="#ArialMT-2212"/>
       <use x="58.398438" xlink:href="#ArialMT-30"/>
       <use x="114.013672" xlink:href="#ArialMT-2e"/>
       <use x="141.796875" xlink:href="#ArialMT-30"/>
       <use x="197.412109" xlink:href="#ArialMT-32"/>
      </g>
     </g>
    </g>
    <g id="ytick_3">
     <g id="line2d_12">
      <g>
       <use style="fill:#262626;stroke:#262626;" x="90" xlink:href="#md92125fb3f" y="169.92"/>
      </g>
     </g>
     <g id="text_12">
      <!-- 0.00 -->
      <g style="fill:#262626;" transform="translate(57.539062 173.498906)scale(0.1 -0.1)">
       <use xlink:href="#ArialMT-30"/>
       <use x="55.615234" xlink:href="#ArialMT-2e"/>
       <use x="83.398438" xlink:href="#ArialMT-30"/>
       <use x="139.013672" xlink:href="#ArialMT-30"/>
      </g>
     </g>
    </g>
    <g id="ytick_4">
     <g id="line2d_13">
      <g>
       <use style="fill:#262626;stroke:#262626;" x="90" xlink:href="#md92125fb3f" y="129.6"/>
      </g>
     </g>
     <g id="text_13">
      <!-- 0.02 -->
      <g style="fill:#262626;" transform="translate(57.539062 133.178906)scale(0.1 -0.1)">
       <use xlink:href="#ArialMT-30"/>
       <use x="55.615234" xlink:href="#ArialMT-2e"/>
       <use x="83.398438" xlink:href="#ArialMT-30"/>
       <use x="139.013672" xlink:href="#ArialMT-32"/>
      </g>
     </g>
    </g>
    <g id="ytick_5">
     <g id="line2d_14">
      <g>
       <use style="fill:#262626;stroke:#262626;" x="90" xlink:href="#md92125fb3f" y="89.28"/>
      </g>
     </g>
     <g id="text_14">
      <!-- 0.04 -->
      <g style="fill:#262626;" transform="translate(57.539062 92.858906)scale(0.1 -0.1)">
       <use xlink:href="#ArialMT-30"/>
       <use x="55.615234" xlink:href="#ArialMT-2e"/>
       <use x="83.398438" xlink:href="#ArialMT-30"/>
       <use x="139.013672" xlink:href="#ArialMT-34"/>
      </g>
     </g>
    </g>
   </g>
   <g id="PolyCollection_1">
    <path clip-path="url(#pd6d7f18cf7)" d="M 90 167.849882 
L 90 169.92 
L 90.6975 169.92 
L 91.395 169.92 
L 92.0925 169.92 
L 92.79 169.92 
L 93.4875 169.92 
L 94.185 169.92 
L 94.8825 169.92 
L 95.58 169.92 
L 96.2775 169.92 
L 96.975 169.92 
L 97.6725 169.92 
L 98.37 169.92 
L 99.0675 169.92 
L 99.765 169.92 
L 100.4625 169.92 
L 101.16 169.92 
L 101.8575 169.92 
L 102.555 169.92 
L 103.2525 169.92 
L 103.95 169.92 
L 104.6475 169.92 
L 105.345 169.92 
L 106.0425 169.92 
L 106.74 169.92 
L 107.4375 169.92 
L 108.135 169.92 
L 108.8325 169.92 
L 109.53 169.92 
L 110.2275 169.92 
L 110.925 169.92 
L 111.6225 169.92 
L 112.32 169.92 
L 113.0175 169.92 
L 113.715 169.92 
L 114.4125 169.92 
L 115.11 169.92 
L 115.8075 169.92 
L 116.505 169.92 
L 117.2025 169.92 
L 117.9 169.92 
L 118.5975 169.92 
L 119.295 169.92 
L 119.9925 169.92 
L 120.69 169.92 
L 121.3875 169.92 
L 122.085 169.92 
L 122.7825 169.92 
L 123.48 169.92 
L 124.1775 169.92 
L 124.875 169.92 
L 125.5725 169.92 
L 126.27 169.92 
L 126.9675 169.92 
L 127.665 169.92 
L 128.3625 169.92 
L 129.06 169.92 
L 129.7575 169.92 
L 130.455 169.92 
L 131.1525 169.92 
L 131.85 169.92 
L 132.5475 169.92 
L 133.245 169.92 
L 133.9425 169.92 
L 134.64 169.92 
L 135.3375 169.92 
L 136.035 169.92 
L 136.7325 169.92 
L 137.43 169.92 
L 138.1275 169.92 
L 138.825 169.92 
L 139.5225 169.92 
L 140.22 169.92 
L 140.9175 169.92 
L 141.615 169.92 
L 142.3125 169.92 
L 143.01 169.92 
L 143.7075 169.92 
L 144.405 169.92 
L 145.1025 169.92 
L 145.8 169.92 
L 146.4975 169.92 
L 147.195 169.92 
L 147.8925 169.92 
L 148.59 169.92 
L 149.2875 169.92 
L 149.985 169.92 
L 150.6825 169.92 
L 151.38 169.92 
L 152.0775 169.92 
L 152.775 169.92 
L 153.4725 169.92 
L 154.17 169.92 
L 154.8675 169.92 
L 155.565 169.92 
L 156.2625 169.92 
L 156.96 169.92 
L 157.6575 169.92 
L 158.355 169.92 
L 159.0525 169.92 
L 159.75 169.92 
L 160.4475 169.92 
L 161.145 169.92 
L 161.8425 169.92 
L 162.54 169.92 
L 163.2375 169.92 
L 163.935 169.92 
L 164.6325 169.92 
L 165.33 169.92 
L 166.0275 169.92 
L 166.725 169.92 
L 167.4225 169.92 
L 168.12 169.92 
L 168.8175 169.92 
L 169.515 169.92 
L 170.2125 169.92 
L 170.91 169.92 
L 171.6075 169.92 
L 172.305 169.92 
L 173.0025 169.92 
L 173.7 169.92 
L 174.3975 169.92 
L 175.095 169.92 
L 175.7925 169.92 
L 176.49 169.92 
L 177.1875 169.92 
L 177.885 169.92 
L 178.5825 169.92 
L 179.28 169.92 
L 179.9775 169.92 
L 180.675 169.92 
L 181.3725 169.92 
L 182.07 169.92 
L 182.7675 169.92 
L 183.465 169.92 
L 184.1625 169.92 
L 184.86 169.92 
L 185.5575 169.92 
L 186.255 169.92 
L 186.9525 169.92 
L 187.65 169.92 
L 188.3475 169.92 
L 189.045 169.92 
L 189.7425 169.92 
L 190.44 169.92 
L 191.1375 169.92 
L 191.835 169.92 
L 192.5325 169.92 
L 193.23 169.92 
L 193.9275 169.92 
L 194.625 169.92 
L 195.3225 169.92 
L 196.02 169.92 
L 196.7175 169.92 
L 197.415 169.92 
L 198.1125 169.92 
L 198.81 169.92 
L 199.5075 169.92 
L 200.205 169.92 
L 200.9025 169.92 
L 201.6 169.92 
L 202.2975 169.92 
L 202.995 169.92 
L 203.6925 169.92 
L 204.39 169.92 
L 205.0875 169.92 
L 205.785 169.92 
L 206.4825 169.92 
L 207.18 169.92 
L 207.8775 169.92 
L 208.575 169.92 
L 209.2725 169.92 
L 209.97 169.92 
L 210.6675 169.92 
L 211.365 169.92 
L 212.0625 169.92 
L 212.76 169.92 
L 213.4575 169.92 
L 214.155 169.92 
L 214.8525 169.92 
L 215.55 169.92 
L 216.2475 169.92 
L 216.945 169.92 
L 217.6425 169.92 
L 218.34 169.92 
L 219.0375 169.92 
L 219.735 169.92 
L 220.4325 169.92 
L 221.13 169.92 
L 221.8275 169.92 
L 222.525 169.92 
L 223.2225 169.92 
L 223.92 169.92 
L 224.6175 169.92 
L 225.315 169.92 
L 226.0125 169.92 
L 226.71 169.92 
L 227.4075 169.92 
L 228.105 169.92 
L 228.8025 169.92 
L 229.5 169.92 
L 230.1975 169.92 
L 230.895 169.92 
L 231.5925 169.92 
L 232.29 169.92 
L 232.9875 169.92 
L 233.685 169.92 
L 234.3825 169.92 
L 235.08 169.92 
L 235.7775 169.92 
L 236.475 169.92 
L 237.1725 169.92 
L 237.87 169.92 
L 238.5675 169.92 
L 239.265 169.92 
L 239.9625 169.92 
L 240.66 169.92 
L 241.3575 169.92 
L 242.055 169.92 
L 242.7525 169.92 
L 243.45 169.92 
L 244.1475 169.92 
L 244.845 169.92 
L 245.5425 169.92 
L 246.24 169.92 
L 246.9375 169.92 
L 247.635 169.92 
L 248.3325 169.92 
L 249.03 169.92 
L 249.7275 169.92 
L 250.425 169.92 
L 251.1225 169.92 
L 251.82 169.92 
L 252.5175 169.92 
L 253.215 169.92 
L 253.9125 169.92 
L 254.61 169.92 
L 255.3075 169.92 
L 256.005 169.92 
L 256.7025 169.92 
L 257.4 169.92 
L 258.0975 169.92 
L 258.795 169.92 
L 259.4925 169.92 
L 260.19 169.92 
L 260.8875 169.92 
L 261.585 169.92 
L 262.2825 169.92 
L 262.98 169.92 
L 263.6775 169.92 
L 264.375 169.92 
L 265.0725 169.92 
L 265.77 169.92 
L 266.4675 169.92 
L 267.165 169.92 
L 267.8625 169.92 
L 268.56 169.92 
L 269.2575 169.92 
L 269.955 169.92 
L 270.6525 169.92 
L 271.35 169.92 
L 272.0475 169.92 
L 272.745 169.92 
L 273.4425 169.92 
L 274.14 169.92 
L 274.8375 169.92 
L 275.535 169.92 
L 276.2325 169.92 
L 276.93 169.92 
L 277.6275 169.92 
L 278.325 169.92 
L 279.0225 169.92 
L 279.72 169.92 
L 280.4175 169.92 
L 281.115 169.92 
L 281.8125 169.92 
L 282.51 169.92 
L 283.2075 169.92 
L 283.905 169.92 
L 284.6025 169.92 
L 285.3 169.92 
L 285.9975 169.92 
L 286.695 169.92 
L 287.3925 169.92 
L 288.09 169.92 
L 288.7875 169.92 
L 289.485 169.92 
L 290.1825 169.92 
L 290.88 169.92 
L 291.5775 169.92 
L 292.275 169.92 
L 292.9725 169.92 
L 293.67 169.92 
L 294.3675 169.92 
L 295.065 169.92 
L 295.7625 169.92 
L 296.46 169.92 
L 297.1575 169.92 
L 297.855 169.92 
L 298.5525 169.92 
L 299.25 169.92 
L 299.9475 169.92 
L 300.645 169.92 
L 301.3425 169.92 
L 302.04 169.92 
L 302.7375 169.92 
L 303.435 169.92 
L 304.1325 169.92 
L 304.83 169.92 
L 305.5275 169.92 
L 306.225 169.92 
L 306.9225 169.92 
L 307.62 169.92 
L 308.3175 169.92 
L 309.015 169.92 
L 309.7125 169.92 
L 310.41 169.92 
L 311.1075 169.92 
L 311.805 169.92 
L 312.5025 169.92 
L 313.2 169.92 
L 313.8975 169.92 
L 314.595 169.92 
L 315.2925 169.92 
L 315.99 169.92 
L 316.6875 169.92 
L 317.385 169.92 
L 318.0825 169.92 
L 318.78 169.92 
L 319.4775 169.92 
L 320.175 169.92 
L 320.8725 169.92 
L 321.57 169.92 
L 322.2675 169.92 
L 322.965 169.92 
L 323.6625 169.92 
L 324.36 169.92 
L 325.0575 169.92 
L 325.755 169.92 
L 326.4525 169.92 
L 327.15 169.92 
L 327.8475 169.92 
L 328.545 169.92 
L 329.2425 169.92 
L 329.94 169.92 
L 330.6375 169.92 
L 331.335 169.92 
L 332.0325 169.92 
L 332.73 169.92 
L 333.4275 169.92 
L 334.125 169.92 
L 334.8225 169.92 
L 335.52 169.92 
L 336.2175 169.92 
L 336.915 169.92 
L 337.6125 169.92 
L 338.31 169.92 
L 339.0075 169.92 
L 339.705 169.92 
L 340.4025 169.92 
L 341.1 169.92 
L 341.7975 169.92 
L 342.495 169.92 
L 343.1925 169.92 
L 343.89 169.92 
L 344.5875 169.92 
L 345.285 169.92 
L 345.9825 169.92 
L 346.68 169.92 
L 347.3775 169.92 
L 348.075 169.92 
L 348.7725 169.92 
L 349.47 169.92 
L 350.1675 169.92 
L 350.865 169.92 
L 351.5625 169.92 
L 352.26 169.92 
L 352.9575 169.92 
L 353.655 169.92 
L 354.3525 169.92 
L 355.05 169.92 
L 355.7475 169.92 
L 356.445 169.92 
L 357.1425 169.92 
L 357.84 169.92 
L 358.5375 169.92 
L 359.235 169.92 
L 359.9325 169.92 
L 360.63 169.92 
L 361.3275 169.92 
L 362.025 169.92 
L 362.7225 169.92 
L 363.42 169.92 
L 364.1175 169.92 
L 364.815 169.92 
L 365.5125 169.92 
L 366.21 169.92 
L 366.9075 169.92 
L 367.605 169.92 
L 368.3025 169.92 
L 369 169.92 
L 369.6975 169.92 
L 370.395 169.92 
L 371.0925 169.92 
L 371.79 169.92 
L 372.4875 169.92 
L 373.185 169.92 
L 373.8825 169.92 
L 374.58 169.92 
L 375.2775 169.92 
L 375.975 169.92 
L 376.6725 169.92 
L 377.37 169.92 
L 378.0675 169.92 
L 378.765 169.92 
L 379.4625 169.92 
L 380.16 169.92 
L 380.8575 169.92 
L 381.555 169.92 
L 382.2525 169.92 
L 382.95 169.92 
L 383.6475 169.92 
L 384.345 169.92 
L 385.0425 169.92 
L 385.74 169.92 
L 386.4375 169.92 
L 387.135 169.92 
L 387.8325 169.92 
L 388.53 169.92 
L 389.2275 169.92 
L 389.925 169.92 
L 390.6225 169.92 
L 391.32 169.92 
L 392.0175 169.92 
L 392.715 169.92 
L 393.4125 169.92 
L 394.11 169.92 
L 394.8075 169.92 
L 395.505 169.92 
L 396.2025 169.92 
L 396.9 169.92 
L 397.5975 169.92 
L 398.295 169.92 
L 398.9925 169.92 
L 399.69 169.92 
L 400.3875 169.92 
L 401.085 169.92 
L 401.7825 169.92 
L 402.48 169.92 
L 403.1775 169.92 
L 403.875 169.92 
L 404.5725 169.92 
L 405.27 169.92 
L 405.9675 169.92 
L 406.665 169.92 
L 407.3625 169.92 
L 408.06 169.92 
L 408.7575 169.92 
L 409.455 169.92 
L 410.1525 169.92 
L 410.85 169.92 
L 411.5475 169.92 
L 412.245 169.92 
L 412.9425 169.92 
L 413.64 169.92 
L 414.3375 169.92 
L 415.035 169.92 
L 415.7325 169.92 
L 416.43 169.92 
L 417.1275 169.92 
L 417.825 169.92 
L 418.5225 169.92 
L 419.22 169.92 
L 419.9175 169.92 
L 420.615 169.92 
L 421.3125 169.92 
L 422.01 169.92 
L 422.7075 169.92 
L 423.405 169.92 
L 424.1025 169.92 
L 424.8 169.92 
L 425.4975 169.92 
L 426.195 169.92 
L 426.8925 169.92 
L 427.59 169.92 
L 428.2875 169.92 
L 428.985 169.92 
L 429.6825 169.92 
L 430.38 169.92 
L 431.0775 169.92 
L 431.775 169.92 
L 432.4725 169.92 
L 433.17 169.92 
L 433.8675 169.92 
L 434.565 169.92 
L 435.2625 169.92 
L 435.96 169.92 
L 436.6575 169.92 
L 437.355 169.92 
L 438.0525 169.92 
L 438.75 169.92 
L 439.4475 169.92 
L 440.145 169.92 
L 440.8425 169.92 
L 441.54 169.92 
L 442.2375 169.92 
L 442.935 169.92 
L 443.6325 169.92 
L 444.33 169.92 
L 445.0275 169.92 
L 445.725 169.92 
L 446.4225 169.92 
L 447.12 169.92 
L 447.8175 169.92 
L 448.515 169.92 
L 449.2125 169.92 
L 449.91 169.92 
L 450.6075 169.92 
L 451.305 169.92 
L 452.0025 169.92 
L 452.7 169.92 
L 453.3975 169.92 
L 454.095 169.92 
L 454.7925 169.92 
L 455.49 169.92 
L 456.1875 169.92 
L 456.885 169.92 
L 457.5825 169.92 
L 458.28 169.92 
L 458.9775 169.92 
L 459.675 169.92 
L 460.3725 169.92 
L 461.07 169.92 
L 461.7675 169.92 
L 462.465 169.92 
L 463.1625 169.92 
L 463.86 169.92 
L 464.5575 169.92 
L 465.255 169.92 
L 465.9525 169.92 
L 466.65 169.92 
L 467.3475 169.92 
L 468.045 169.92 
L 468.7425 169.92 
L 469.44 169.92 
L 470.1375 169.92 
L 470.835 169.92 
L 471.5325 169.92 
L 472.23 169.92 
L 472.9275 169.92 
L 473.625 169.92 
L 474.3225 169.92 
L 475.02 169.92 
L 475.7175 169.92 
L 476.415 169.92 
L 477.1125 169.92 
L 477.81 169.92 
L 478.5075 169.92 
L 479.205 169.92 
L 479.9025 169.92 
L 480.6 169.92 
L 481.2975 169.92 
L 481.995 169.92 
L 482.6925 169.92 
L 483.39 169.92 
L 484.0875 169.92 
L 484.785 169.92 
L 485.4825 169.92 
L 486.18 169.92 
L 486.8775 169.92 
L 487.575 169.92 
L 488.2725 169.92 
L 488.97 169.92 
L 489.6675 169.92 
L 490.365 169.92 
L 491.0625 169.92 
L 491.76 169.92 
L 492.4575 169.92 
L 493.155 169.92 
L 493.8525 169.92 
L 494.55 169.92 
L 495.2475 169.92 
L 495.945 169.92 
L 496.6425 169.92 
L 497.34 169.92 
L 498.0375 169.92 
L 498.735 169.92 
L 499.4325 169.92 
L 500.13 169.92 
L 500.8275 169.92 
L 501.525 169.92 
L 502.2225 169.92 
L 502.92 169.92 
L 503.6175 169.92 
L 504.315 169.92 
L 505.0125 169.92 
L 505.71 169.92 
L 506.4075 169.92 
L 507.105 169.92 
L 507.8025 169.92 
L 508.5 169.92 
L 509.1975 169.92 
L 509.895 169.92 
L 510.5925 169.92 
L 511.29 169.92 
L 511.9875 169.92 
L 512.685 169.92 
L 513.3825 169.92 
L 514.08 169.92 
L 514.7775 169.92 
L 515.475 169.92 
L 516.1725 169.92 
L 516.87 169.92 
L 517.5675 169.92 
L 518.265 169.92 
L 518.9625 169.92 
L 519.66 169.92 
L 520.3575 169.92 
L 521.055 169.92 
L 521.7525 169.92 
L 522.45 169.92 
L 523.1475 169.92 
L 523.845 169.92 
L 524.5425 169.92 
L 525.24 169.92 
L 525.9375 169.92 
L 526.635 169.92 
L 527.3325 169.92 
L 528.03 169.92 
L 528.7275 169.92 
L 529.425 169.92 
L 530.1225 169.92 
L 530.82 169.92 
L 531.5175 169.92 
L 532.215 169.92 
L 532.9125 169.92 
L 533.61 169.92 
L 534.3075 169.92 
L 535.005 169.92 
L 535.7025 169.92 
L 536.4 169.92 
L 537.0975 169.92 
L 537.795 169.92 
L 538.4925 169.92 
L 539.19 169.92 
L 539.8875 169.92 
L 540.585 169.92 
L 541.2825 169.92 
L 541.98 169.92 
L 542.6775 169.92 
L 543.375 169.92 
L 544.0725 169.92 
L 544.77 169.92 
L 545.4675 169.92 
L 546.165 169.92 
L 546.8625 169.92 
L 547.56 169.92 
L 548.2575 169.92 
L 548.955 169.92 
L 549.6525 169.92 
L 550.35 169.92 
L 551.0475 169.92 
L 551.745 169.92 
L 552.4425 169.92 
L 553.14 169.92 
L 553.8375 169.92 
L 554.535 169.92 
L 555.2325 169.92 
L 555.93 169.92 
L 556.6275 169.92 
L 557.325 169.92 
L 558.0225 169.92 
L 558.72 169.92 
L 559.4175 169.92 
L 560.115 169.92 
L 560.8125 169.92 
L 561.51 169.92 
L 562.2075 169.92 
L 562.905 169.92 
L 563.6025 169.92 
L 564.3 169.92 
L 564.9975 169.92 
L 565.695 169.92 
L 566.3925 169.92 
L 567.09 169.92 
L 567.7875 169.92 
L 568.485 169.92 
L 569.1825 169.92 
L 569.88 169.92 
L 570.5775 169.92 
L 571.275 169.92 
L 571.9725 169.92 
L 572.67 169.92 
L 573.3675 169.92 
L 574.065 169.92 
L 574.7625 169.92 
L 575.46 169.92 
L 576.1575 169.92 
L 576.855 169.92 
L 577.5525 169.92 
L 578.25 169.92 
L 578.9475 169.92 
L 579.645 169.92 
L 580.3425 169.92 
L 581.04 169.92 
L 581.7375 169.92 
L 582.435 169.92 
L 583.1325 169.92 
L 583.83 169.92 
L 584.5275 169.92 
L 585.225 169.92 
L 585.9225 169.92 
L 586.62 169.92 
L 587.3175 169.92 
L 588.015 169.92 
L 588.7125 169.92 
L 589.41 169.92 
L 590.1075 169.92 
L 590.805 169.92 
L 591.5025 169.92 
L 592.2 169.92 
L 592.8975 169.92 
L 593.595 169.92 
L 594.2925 169.92 
L 594.99 169.92 
L 595.6875 169.92 
L 596.385 169.92 
L 597.0825 169.92 
L 597.78 169.92 
L 598.4775 169.92 
L 599.175 169.92 
L 599.8725 169.92 
L 600.57 169.92 
L 601.2675 169.92 
L 601.965 169.92 
L 602.6625 169.92 
L 603.36 169.92 
L 604.0575 169.92 
L 604.755 169.92 
L 605.4525 169.92 
L 606.15 169.92 
L 606.8475 169.92 
L 607.545 169.92 
L 608.2425 169.92 
L 608.94 169.92 
L 609.6375 169.92 
L 610.335 169.92 
L 611.0325 169.92 
L 611.73 169.92 
L 612.4275 169.92 
L 613.125 169.92 
L 613.8225 169.92 
L 614.52 169.92 
L 615.2175 169.92 
L 615.915 169.92 
L 616.6125 169.92 
L 617.31 169.92 
L 618.0075 169.92 
L 618.705 169.92 
L 619.4025 169.92 
L 620.1 169.92 
L 620.7975 169.92 
L 621.495 169.92 
L 622.1925 169.92 
L 622.89 169.92 
L 623.5875 169.92 
L 624.285 169.92 
L 624.9825 169.92 
L 625.68 169.92 
L 626.3775 169.92 
L 627.075 169.92 
L 627.7725 169.92 
L 628.47 169.92 
L 629.1675 169.92 
L 629.865 169.92 
L 630.5625 169.92 
L 631.26 169.92 
L 631.9575 169.92 
L 632.655 169.92 
L 633.3525 169.92 
L 634.05 169.92 
L 634.7475 169.92 
L 635.445 169.92 
L 636.1425 169.92 
L 636.84 169.92 
L 637.5375 169.92 
L 638.235 169.92 
L 638.9325 169.92 
L 639.63 169.92 
L 640.3275 169.92 
L 641.025 169.92 
L 641.7225 169.92 
L 642.42 169.92 
L 643.1175 169.92 
L 643.815 169.92 
L 644.5125 169.92 
L 645.21 169.92 
L 645.9075 169.92 
L 646.605 169.92 
L 646.605 169.92 
L 646.605 169.92 
L 645.9075 169.964132 
L 645.21 170.081536 
L 644.5125 170.232237 
L 643.815 170.420179 
L 643.1175 170.653975 
L 642.42 170.912522 
L 641.7225 171.189271 
L 641.025 171.516787 
L 640.3275 171.873372 
L 639.63 172.251853 
L 638.9325 172.674341 
L 638.235 173.108724 
L 637.5375 173.571855 
L 636.84 174.05098 
L 636.1425 174.547952 
L 635.445 175.059611 
L 634.7475 175.577798 
L 634.05 176.089408 
L 633.3525 176.586282 
L 632.655 177.094682 
L 631.9575 177.591757 
L 631.26 178.084152 
L 630.5625 178.573638 
L 629.865 179.062004 
L 629.1675 179.516722 
L 628.47 179.959416 
L 627.7725 180.382365 
L 627.075 180.797591 
L 626.3775 181.173028 
L 625.68 181.525904 
L 624.9825 181.844165 
L 624.285 182.11598 
L 623.5875 182.373944 
L 622.89 182.586994 
L 622.1925 182.768486 
L 621.495 182.912361 
L 620.7975 183.007896 
L 620.1 183.039774 
L 619.4025 183.042117 
L 618.705 182.99039 
L 618.0075 182.894732 
L 617.31 182.74104 
L 616.6125 182.525387 
L 615.915 182.273665 
L 615.2175 181.962956 
L 614.52 181.600142 
L 613.8225 181.202241 
L 613.125 180.761978 
L 612.4275 180.272347 
L 611.73 179.741367 
L 611.0325 179.196933 
L 610.335 178.6278 
L 609.6375 178.022877 
L 608.94 177.400725 
L 608.2425 176.755494 
L 607.545 176.081482 
L 606.8475 175.407497 
L 606.15 174.732922 
L 605.4525 174.052242 
L 604.755 173.335464 
L 604.0575 172.63128 
L 603.36 171.904942 
L 602.6625 171.185588 
L 601.965 170.458183 
L 601.2675 169.73716 
L 600.57 169.022204 
L 599.8725 168.31296 
L 599.175 167.623748 
L 598.4775 166.929532 
L 597.78 166.273957 
L 597.0825 165.621966 
L 596.385 164.997321 
L 595.6875 164.394189 
L 594.99 163.816409 
L 594.2925 163.282366 
L 593.595 162.770941 
L 592.8975 162.300098 
L 592.2 161.858123 
L 591.5025 161.433117 
L 590.805 161.057205 
L 590.1075 160.727876 
L 589.41 160.437418 
L 588.7125 160.177871 
L 588.015 159.970502 
L 587.3175 159.821533 
L 586.62 159.712298 
L 585.9225 159.643491 
L 585.225 159.600841 
L 584.5275 159.594425 
L 583.83 159.634092 
L 583.1325 159.729396 
L 582.435 159.874827 
L 581.7375 160.059653 
L 581.04 160.282697 
L 580.3425 160.542542 
L 579.645 160.822822 
L 578.9475 161.136466 
L 578.25 161.466766 
L 577.5525 161.811622 
L 576.855 162.193357 
L 576.1575 162.580121 
L 575.46 163.003778 
L 574.7625 163.417501 
L 574.065 163.828464 
L 573.3675 164.243859 
L 572.67 164.646334 
L 571.9725 165.067652 
L 571.275 165.480615 
L 570.5775 165.877692 
L 569.88 166.251453 
L 569.1825 166.624037 
L 568.485 166.963653 
L 567.7875 167.268139 
L 567.09 167.564981 
L 566.3925 167.832674 
L 565.695 168.069517 
L 564.9975 168.283808 
L 564.3 168.488896 
L 563.6025 168.663861 
L 562.905 168.797782 
L 562.2075 168.91923 
L 561.51 169.007816 
L 560.8125 169.072786 
L 560.115 169.118628 
L 559.4175 169.140147 
L 558.72 169.147015 
L 558.0225 169.119572 
L 557.325 169.082511 
L 556.6275 169.006647 
L 555.93 168.921884 
L 555.2325 168.799339 
L 554.535 168.659407 
L 553.8375 168.507882 
L 553.14 168.326112 
L 552.4425 168.14958 
L 551.745 167.940181 
L 551.0475 167.733572 
L 550.35 167.506548 
L 549.6525 167.289977 
L 548.955 167.060718 
L 548.2575 166.810424 
L 547.56 166.565203 
L 546.8625 166.326616 
L 546.165 166.091279 
L 545.4675 165.85088 
L 544.77 165.616757 
L 544.0725 165.385496 
L 543.375 165.163471 
L 542.6775 164.947193 
L 541.98 164.762554 
L 541.2825 164.576404 
L 540.585 164.409542 
L 539.8875 164.263031 
L 539.19 164.132897 
L 538.4925 164.039584 
L 537.795 163.973878 
L 537.0975 163.941101 
L 536.4 163.941461 
L 535.7025 163.97986 
L 535.005 164.041342 
L 534.3075 164.150034 
L 533.61 164.275824 
L 532.9125 164.447331 
L 532.215 164.638948 
L 531.5175 164.873973 
L 530.82 165.146007 
L 530.1225 165.448415 
L 529.425 165.798888 
L 528.7275 166.165774 
L 528.03 166.566354 
L 527.3325 166.993175 
L 526.635 167.438618 
L 525.9375 167.894945 
L 525.24 168.36906 
L 524.5425 168.853043 
L 523.845 169.348718 
L 523.1475 169.857835 
L 522.45 170.35754 
L 521.7525 170.854461 
L 521.055 171.33563 
L 520.3575 171.807792 
L 519.66 172.272846 
L 518.9625 172.722931 
L 518.265 173.150278 
L 517.5675 173.571783 
L 516.87 173.974957 
L 516.1725 174.347428 
L 515.475 174.70644 
L 514.7775 175.044805 
L 514.08 175.360371 
L 513.3825 175.651129 
L 512.685 175.905423 
L 511.9875 176.116732 
L 511.29 176.288613 
L 510.5925 176.429781 
L 509.895 176.549145 
L 509.1975 176.631235 
L 508.5 176.690238 
L 507.8025 176.701262 
L 507.105 176.698561 
L 506.4075 176.662539 
L 505.71 176.598328 
L 505.0125 176.491626 
L 504.315 176.362726 
L 503.6175 176.212449 
L 502.92 176.027039 
L 502.2225 175.837098 
L 501.525 175.619316 
L 500.8275 175.384887 
L 500.13 175.12059 
L 499.4325 174.833012 
L 498.735 174.538693 
L 498.0375 174.234601 
L 497.34 173.922672 
L 496.6425 173.599986 
L 495.945 173.278404 
L 495.2475 172.959972 
L 494.55 172.656523 
L 493.8525 172.340566 
L 493.155 172.038629 
L 492.4575 171.723213 
L 491.76 171.425745 
L 491.0625 171.133407 
L 490.365 170.848059 
L 489.6675 170.566614 
L 488.97 170.300669 
L 488.2725 170.042108 
L 487.575 169.797482 
L 486.8775 169.58796 
L 486.18 169.405068 
L 485.4825 169.240162 
L 484.785 169.094293 
L 484.0875 168.983099 
L 483.39 168.89748 
L 482.6925 168.828174 
L 481.995 168.775621 
L 481.2975 168.749964 
L 480.6 168.741558 
L 479.9025 168.755361 
L 479.205 168.786381 
L 478.5075 168.844227 
L 477.81 168.913822 
L 477.1125 169.004529 
L 476.415 169.105964 
L 475.7175 169.237096 
L 475.02 169.372574 
L 474.3225 169.516437 
L 473.625 169.667772 
L 472.9275 169.820712 
L 472.23 169.974284 
L 471.5325 170.12751 
L 470.835 170.303933 
L 470.1375 170.477914 
L 469.44 170.653248 
L 468.7425 170.838628 
L 468.045 171.02797 
L 467.3475 171.210263 
L 466.65 171.394153 
L 465.9525 171.588279 
L 465.255 171.791404 
L 464.5575 171.987525 
L 463.86 172.175396 
L 463.1625 172.36853 
L 462.465 172.546086 
L 461.7675 172.741258 
L 461.07 172.91848 
L 460.3725 173.081528 
L 459.675 173.229364 
L 458.9775 173.356144 
L 458.28 173.451254 
L 457.5825 173.543511 
L 456.885 173.62252 
L 456.1875 173.673069 
L 455.49 173.699738 
L 454.7925 173.726877 
L 454.095 173.729795 
L 453.3975 173.718279 
L 452.7 173.692404 
L 452.0025 173.657238 
L 451.305 173.608101 
L 450.6075 173.545305 
L 449.91 173.474154 
L 449.2125 173.390196 
L 448.515 173.29887 
L 447.8175 173.195853 
L 447.12 173.071993 
L 446.4225 172.937886 
L 445.725 172.799288 
L 445.0275 172.652177 
L 444.33 172.512201 
L 443.6325 172.360635 
L 442.935 172.198445 
L 442.2375 172.021758 
L 441.54 171.851312 
L 440.8425 171.673482 
L 440.145 171.50411 
L 439.4475 171.329562 
L 438.75 171.170563 
L 438.0525 171.003608 
L 437.355 170.839565 
L 436.6575 170.679479 
L 435.96 170.514561 
L 435.2625 170.355666 
L 434.565 170.198904 
L 433.8675 170.050174 
L 433.17 169.900615 
L 432.4725 169.760987 
L 431.775 169.622371 
L 431.0775 169.485648 
L 430.38 169.351689 
L 429.6825 169.22625 
L 428.985 169.105224 
L 428.2875 168.989382 
L 427.59 168.874558 
L 426.8925 168.766386 
L 426.195 168.670457 
L 425.4975 168.582478 
L 424.8 168.503009 
L 424.1025 168.437459 
L 423.405 168.376439 
L 422.7075 168.33995 
L 422.01 168.303707 
L 421.3125 168.277747 
L 420.615 168.262237 
L 419.9175 168.25237 
L 419.22 168.248211 
L 418.5225 168.249784 
L 417.825 168.266888 
L 417.1275 168.289606 
L 416.43 168.322698 
L 415.7325 168.361049 
L 415.035 168.394608 
L 414.3375 168.442776 
L 413.64 168.500343 
L 412.9425 168.557135 
L 412.245 168.632406 
L 411.5475 168.710965 
L 410.85 168.782506 
L 410.1525 168.856382 
L 409.455 168.93212 
L 408.7575 169.009241 
L 408.06 169.08235 
L 407.3625 169.146077 
L 406.665 169.214728 
L 405.9675 169.263349 
L 405.27 169.306341 
L 404.5725 169.333623 
L 403.875 169.359733 
L 403.1775 169.3796 
L 402.48 169.383291 
L 401.7825 169.385494 
L 401.085 169.36658 
L 400.3875 169.336476 
L 399.69 169.300278 
L 398.9925 169.243505 
L 398.295 169.171422 
L 397.5975 169.099199 
L 396.9 169.017487 
L 396.2025 168.931711 
L 395.505 168.832608 
L 394.8075 168.725714 
L 394.11 168.611707 
L 393.4125 168.4717 
L 392.715 168.326196 
L 392.0175 168.176123 
L 391.32 168.012628 
L 390.6225 167.856365 
L 389.925 167.678907 
L 389.2275 167.496094 
L 388.53 167.323799 
L 387.8325 167.148409 
L 387.135 166.971038 
L 386.4375 166.807527 
L 385.74 166.639302 
L 385.0425 166.467432 
L 384.345 166.302819 
L 383.6475 166.146509 
L 382.95 165.989691 
L 382.2525 165.828458 
L 381.555 165.668739 
L 380.8575 165.516456 
L 380.16 165.367672 
L 379.4625 165.223335 
L 378.765 165.079459 
L 378.0675 164.932057 
L 377.37 164.796776 
L 376.6725 164.659767 
L 375.975 164.531708 
L 375.2775 164.418319 
L 374.58 164.310512 
L 373.8825 164.213879 
L 373.185 164.124129 
L 372.4875 164.046739 
L 371.79 163.982199 
L 371.0925 163.926017 
L 370.395 163.878551 
L 369.6975 163.840102 
L 369 163.825626 
L 368.3025 163.810698 
L 367.605 163.824833 
L 366.9075 163.848327 
L 366.21 163.881031 
L 365.5125 163.92764 
L 364.815 163.987858 
L 364.1175 164.051495 
L 363.42 164.127952 
L 362.7225 164.216744 
L 362.025 164.317305 
L 361.3275 164.428995 
L 360.63 164.560912 
L 359.9325 164.697504 
L 359.235 164.842807 
L 358.5375 165.0008 
L 357.84 165.150863 
L 357.1425 165.311655 
L 356.445 165.467443 
L 355.7475 165.627043 
L 355.05 165.784536 
L 354.3525 165.929112 
L 353.655 166.06966 
L 352.9575 166.20038 
L 352.26 166.330249 
L 351.5625 166.463343 
L 350.865 166.584106 
L 350.1675 166.696672 
L 349.47 166.800325 
L 348.7725 166.894407 
L 348.075 166.983221 
L 347.3775 167.066202 
L 346.68 167.147727 
L 345.9825 167.222372 
L 345.285 167.28476 
L 344.5875 167.339398 
L 343.89 167.39084 
L 343.1925 167.428953 
L 342.495 167.458397 
L 341.7975 167.478986 
L 341.1 167.485684 
L 340.4025 167.488257 
L 339.705 167.486687 
L 339.0075 167.476082 
L 338.31 167.461412 
L 337.6125 167.437868 
L 336.915 167.415405 
L 336.2175 167.394167 
L 335.52 167.364482 
L 334.8225 167.326539 
L 334.125 167.280579 
L 333.4275 167.231799 
L 332.73 167.175604 
L 332.0325 167.10745 
L 331.335 167.037576 
L 330.6375 166.961524 
L 329.94 166.869971 
L 329.2425 166.773306 
L 328.545 166.686854 
L 327.8475 166.586649 
L 327.15 166.492942 
L 326.4525 166.396521 
L 325.755 166.293098 
L 325.0575 166.188233 
L 324.36 166.082594 
L 323.6625 165.976853 
L 322.965 165.871682 
L 322.2675 165.767751 
L 321.57 165.670625 
L 320.8725 165.585825 
L 320.175 165.504083 
L 319.4775 165.430824 
L 318.78 165.366513 
L 318.0825 165.306655 
L 317.385 165.256536 
L 316.6875 165.221378 
L 315.99 165.196501 
L 315.2925 165.186966 
L 314.595 165.192835 
L 313.8975 165.223877 
L 313.2 165.265184 
L 312.5025 165.311589 
L 311.805 165.362798 
L 311.1075 165.418484 
L 310.41 165.483197 
L 309.7125 165.561429 
L 309.015 165.647778 
L 308.3175 165.746599 
L 307.62 165.847455 
L 306.9225 165.959512 
L 306.225 166.077154 
L 305.5275 166.214342 
L 304.83 166.370204 
L 304.1325 166.533941 
L 303.435 166.709415 
L 302.7375 166.900412 
L 302.04 167.095911 
L 301.3425 167.299572 
L 300.645 167.510097 
L 299.9475 167.726149 
L 299.25 167.946352 
L 298.5525 168.169306 
L 297.855 168.393591 
L 297.1575 168.627587 
L 296.46 168.864904 
L 295.7625 169.10403 
L 295.065 169.33854 
L 294.3675 169.571846 
L 293.67 169.802464 
L 292.9725 170.028927 
L 292.275 170.254696 
L 291.5775 170.468529 
L 290.88 170.678871 
L 290.1825 170.874579 
L 289.485 171.064212 
L 288.7875 171.241662 
L 288.09 171.4058 
L 287.3925 171.560484 
L 286.695 171.699827 
L 285.9975 171.827846 
L 285.3 171.933919 
L 284.6025 172.032082 
L 283.905 172.116807 
L 283.2075 172.187555 
L 282.51 172.243875 
L 281.8125 172.28541 
L 281.115 172.311895 
L 280.4175 172.323161 
L 279.72 172.324041 
L 279.0225 172.309625 
L 278.325 172.280005 
L 277.6275 172.240273 
L 276.93 172.190682 
L 276.2325 172.126643 
L 275.535 172.053469 
L 274.8375 171.971623 
L 274.14 171.886532 
L 273.4425 171.793831 
L 272.745 171.689209 
L 272.0475 171.583137 
L 271.35 171.466483 
L 270.6525 171.344893 
L 269.955 171.219141 
L 269.2575 171.085123 
L 268.56 170.953499 
L 267.8625 170.825106 
L 267.165 170.705666 
L 266.4675 170.58613 
L 265.77 170.472163 
L 265.0725 170.364489 
L 264.375 170.258892 
L 263.6775 170.165848 
L 262.98 170.076144 
L 262.2825 169.985447 
L 261.585 169.90414 
L 260.8875 169.827837 
L 260.19 169.761928 
L 259.4925 169.706832 
L 258.795 169.662899 
L 258.0975 169.630409 
L 257.4 169.609569 
L 256.7025 169.600511 
L 256.005 169.603293 
L 255.3075 169.6228 
L 254.61 169.649102 
L 253.9125 169.686934 
L 253.215 169.731153 
L 252.5175 169.78638 
L 251.82 169.847361 
L 251.1225 169.913708 
L 250.425 169.989902 
L 249.7275 170.075458 
L 249.03 170.169832 
L 248.3325 170.272424 
L 247.635 170.382581 
L 246.9375 170.499601 
L 246.24 170.612934 
L 245.5425 170.731664 
L 244.845 170.850135 
L 244.1475 170.977397 
L 243.45 171.102836 
L 242.7525 171.230556 
L 242.055 171.354841 
L 241.3575 171.469997 
L 240.66 171.585098 
L 239.9625 171.694508 
L 239.265 171.797532 
L 238.5675 171.88861 
L 237.87 171.967162 
L 237.1725 172.037593 
L 236.475 172.099454 
L 235.7775 172.147449 
L 235.08 172.186175 
L 234.3825 172.215386 
L 233.685 172.234896 
L 232.9875 172.239677 
L 232.29 172.229699 
L 231.5925 172.214833 
L 230.895 172.19027 
L 230.1975 172.151262 
L 229.5 172.102961 
L 228.8025 172.035868 
L 228.105 171.960216 
L 227.4075 171.871583 
L 226.71 171.770533 
L 226.0125 171.662612 
L 225.315 171.543605 
L 224.6175 171.414267 
L 223.92 171.275421 
L 223.2225 171.127952 
L 222.525 170.972797 
L 221.8275 170.810944 
L 221.13 170.643422 
L 220.4325 170.466394 
L 219.735 170.285889 
L 219.0375 170.098153 
L 218.34 169.909284 
L 217.6425 169.720482 
L 216.945 169.53295 
L 216.2475 169.347881 
L 215.55 169.166451 
L 214.8525 168.989817 
L 214.155 168.8191 
L 213.4575 168.660292 
L 212.76 168.509498 
L 212.0625 168.367679 
L 211.365 168.24064 
L 210.6675 168.124285 
L 209.97 168.019357 
L 209.2725 167.92652 
L 208.575 167.846368 
L 207.8775 167.779409 
L 207.18 167.726069 
L 206.4825 167.686689 
L 205.785 167.661518 
L 205.0875 167.650716 
L 204.39 167.654353 
L 203.6925 167.672405 
L 202.995 167.704757 
L 202.2975 167.761011 
L 201.6 167.831001 
L 200.9025 167.914283 
L 200.205 168.010326 
L 199.5075 168.11852 
L 198.81 168.238175 
L 198.1125 168.373435 
L 197.415 168.518534 
L 196.7175 168.67255 
L 196.02 168.834504 
L 195.3225 169.003363 
L 194.625 169.178055 
L 193.9275 169.357468 
L 193.23 169.540459 
L 192.5325 169.725866 
L 191.835 169.912507 
L 191.1375 170.099197 
L 190.44 170.284746 
L 189.7425 170.467974 
L 189.045 170.647716 
L 188.3475 170.822828 
L 187.65 170.992196 
L 186.9525 171.154741 
L 186.255 171.309431 
L 185.5575 171.455281 
L 184.86 171.591362 
L 184.1625 171.716809 
L 183.465 171.830824 
L 182.7675 171.932681 
L 182.07 172.021733 
L 181.3725 172.097412 
L 180.675 172.159238 
L 179.9775 172.206816 
L 179.28 172.239845 
L 178.5825 172.258113 
L 177.885 172.261505 
L 177.1875 172.25 
L 176.49 172.223669 
L 175.7925 172.182682 
L 175.095 172.127298 
L 174.3975 172.057871 
L 173.7 171.974841 
L 173.0025 171.878737 
L 172.305 171.770171 
L 171.6075 171.649833 
L 170.91 171.518489 
L 170.2125 171.376974 
L 169.515 171.22619 
L 168.8175 171.067094 
L 168.12 170.900701 
L 167.4225 170.723164 
L 166.725 170.540517 
L 166.0275 170.353922 
L 165.33 170.164567 
L 164.6325 169.973655 
L 163.935 169.782402 
L 163.2375 169.592024 
L 162.54 169.403733 
L 161.8425 169.213823 
L 161.145 169.028406 
L 160.4475 168.848662 
L 159.75 168.675735 
L 159.0525 168.510724 
L 158.355 168.35468 
L 157.6575 168.208595 
L 156.96 168.073398 
L 156.2625 167.949951 
L 155.565 167.839038 
L 154.8675 167.741366 
L 154.17 167.657555 
L 153.4725 167.588139 
L 152.775 167.533559 
L 152.0775 167.489259 
L 151.38 167.460426 
L 150.6825 167.442337 
L 149.985 167.440013 
L 149.2875 167.453468 
L 148.59 167.482616 
L 147.8925 167.527272 
L 147.195 167.587151 
L 146.4975 167.661874 
L 145.8 167.750963 
L 145.1025 167.853854 
L 144.405 167.96989 
L 143.7075 168.098333 
L 143.01 168.238368 
L 142.3125 168.389101 
L 141.615 168.549575 
L 140.9175 168.718768 
L 140.22 168.895604 
L 139.5225 169.074054 
L 138.825 169.257887 
L 138.1275 169.445932 
L 137.43 169.641897 
L 136.7325 169.839632 
L 136.035 170.037877 
L 135.3375 170.235373 
L 134.64 170.430862 
L 133.9425 170.628005 
L 133.245 170.820643 
L 132.5475 171.00755 
L 131.85 171.187538 
L 131.1525 171.359461 
L 130.455 171.522226 
L 129.7575 171.674796 
L 129.06 171.816201 
L 128.3625 171.945542 
L 127.665 172.061996 
L 126.9675 172.164821 
L 126.27 172.253363 
L 125.5725 172.327059 
L 124.875 172.38544 
L 124.1775 172.428135 
L 123.48 172.454872 
L 122.7825 172.465481 
L 122.085 172.459894 
L 121.3875 172.438147 
L 120.69 172.400378 
L 119.9925 172.346828 
L 119.295 172.277837 
L 118.5975 172.193844 
L 117.9 172.095384 
L 117.2025 171.983084 
L 116.505 171.857656 
L 115.8075 171.719901 
L 115.11 171.570693 
L 114.4125 171.410983 
L 113.715 171.241787 
L 113.0175 171.064181 
L 112.32 170.879294 
L 111.6225 170.688305 
L 110.925 170.492427 
L 110.2275 170.292907 
L 109.53 170.091014 
L 108.8325 169.888033 
L 108.135 169.685256 
L 107.4375 169.483972 
L 106.74 169.285462 
L 106.0425 169.09099 
L 105.345 168.901792 
L 104.6475 168.719073 
L 103.95 168.543994 
L 103.2525 168.377671 
L 102.555 168.22116 
L 101.8575 168.075459 
L 101.16 167.941493 
L 100.4625 167.820115 
L 99.765 167.712098 
L 99.0675 167.618129 
L 98.37 167.538805 
L 97.6725 167.474632 
L 96.975 167.426018 
L 96.2775 167.393271 
L 95.58 167.376601 
L 94.8825 167.381017 
L 94.185 167.401587 
L 93.4875 167.43818 
L 92.79 167.490564 
L 92.0925 167.558406 
L 91.395 167.641273 
L 90.6975 167.738638 
L 90 167.849882 
z
" style="fill:#e0ffff;"/>
   </g>
   <g id="line2d_15">
    <path clip-path="url(#pd6d7f18cf7)" d="M 90 167.849882 
L 92.79 167.490564 
L 95.58 167.376601 
L 98.37 167.538805 
L 101.16 167.941493 
L 104.6475 168.719073 
L 110.2275 170.292907 
L 114.4125 171.410983 
L 117.2025 171.983084 
L 119.9925 172.346828 
L 122.7825 172.465481 
L 125.5725 172.327059 
L 128.3625 171.945542 
L 131.85 171.187538 
L 137.43 169.641897 
L 141.615 168.549575 
L 145.1025 167.853854 
L 147.8925 167.527272 
L 150.6825 167.442337 
L 153.4725 167.588139 
L 156.2625 167.949951 
L 159.75 168.675735 
L 165.33 170.164567 
L 170.2125 171.376974 
L 173.7 171.974841 
L 176.49 172.223669 
L 179.28 172.239845 
L 182.07 172.021733 
L 184.86 171.591362 
L 188.3475 170.822828 
L 199.5075 168.11852 
L 202.2975 167.761011 
L 204.39 167.654353 
L 207.18 167.726069 
L 209.97 168.019357 
L 212.76 168.509498 
L 216.2475 169.347881 
L 223.92 171.275421 
L 227.4075 171.871583 
L 230.1975 172.151262 
L 232.9875 172.239677 
L 235.7775 172.147449 
L 239.265 171.797532 
L 244.1475 170.977397 
L 249.03 170.169832 
L 252.5175 169.78638 
L 256.005 169.603293 
L 258.795 169.662899 
L 262.2825 169.985447 
L 267.165 170.705666 
L 275.535 172.053469 
L 279.0225 172.309625 
L 281.8125 172.28541 
L 284.6025 172.032082 
L 287.3925 171.560484 
L 290.88 170.678871 
L 295.7625 169.10403 
L 301.3425 167.299572 
L 304.83 166.370204 
L 307.62 165.847455 
L 311.1075 165.418484 
L 315.2925 165.186966 
L 318.0825 165.306655 
L 322.2675 165.767751 
L 331.335 167.037576 
L 335.52 167.364482 
L 340.4025 167.488257 
L 343.89 167.39084 
L 348.075 166.983221 
L 351.5625 166.463343 
L 357.1425 165.311655 
L 361.3275 164.428995 
L 364.1175 164.051495 
L 367.605 163.824833 
L 370.395 163.878551 
L 373.8825 164.213879 
L 377.37 164.796776 
L 382.95 165.989691 
L 389.2275 167.496094 
L 392.715 168.326196 
L 395.505 168.832608 
L 398.9925 169.243505 
L 401.7825 169.385494 
L 405.9675 169.263349 
L 409.455 168.93212 
L 415.7325 168.361049 
L 419.22 168.248211 
L 423.405 168.376439 
L 426.8925 168.766386 
L 431.775 169.622371 
L 437.355 170.839565 
L 447.8175 173.195853 
L 451.305 173.608101 
L 454.095 173.729795 
L 456.885 173.62252 
L 459.675 173.229364 
L 462.465 172.546086 
L 468.7425 170.838628 
L 472.9275 169.820712 
L 477.1125 169.004529 
L 479.205 168.786381 
L 481.2975 168.749964 
L 483.39 168.89748 
L 485.4825 169.240162 
L 487.575 169.797482 
L 491.0625 171.133407 
L 495.945 173.278404 
L 500.13 175.12059 
L 502.2225 175.837098 
L 505.0125 176.491626 
L 506.4075 176.662539 
L 508.5 176.690238 
L 510.5925 176.429781 
L 512.685 175.905423 
L 514.7775 175.044805 
L 517.5675 173.571783 
L 521.055 171.33563 
L 528.7275 166.165774 
L 530.82 165.146007 
L 532.9125 164.447331 
L 535.005 164.041342 
L 537.0975 163.941101 
L 539.19 164.132897 
L 541.98 164.762554 
L 544.0725 165.385496 
L 553.8375 168.507882 
L 556.6275 169.006647 
L 558.72 169.147015 
L 560.8125 169.072786 
L 562.905 168.797782 
L 564.9975 168.283808 
L 567.09 167.564981 
L 569.1825 166.624037 
L 572.67 164.646334 
L 578.9475 161.136466 
L 581.04 160.282697 
L 583.1325 159.729396 
L 584.5275 159.594425 
L 586.62 159.712298 
L 588.015 159.970502 
L 589.41 160.437418 
L 590.805 161.057205 
L 592.8975 162.300098 
L 594.99 163.816409 
L 597.0825 165.621966 
L 600.57 169.022204 
L 608.2425 176.755494 
L 611.0325 179.196933 
L 613.125 180.761978 
L 615.2175 181.962956 
L 616.6125 182.525387 
L 618.0075 182.894732 
L 619.4025 183.042117 
L 620.7975 183.007896 
L 622.1925 182.768486 
L 624.285 182.11598 
L 625.68 181.525904 
L 627.7725 180.382365 
L 630.5625 178.573638 
L 639.63 172.251853 
L 641.7225 171.189271 
L 643.815 170.420179 
L 645.9075 169.964132 
L 646.605 169.92 
L 646.605 169.92 
" style="fill:none;stroke:#008080;stroke-linecap:round;stroke-width:1.75;"/>
   </g>
   <g id="patch_3">
    <path d="M 90 270.72 
L 90 69.12 
" style="fill:none;stroke:#262626;stroke-linecap:square;stroke-linejoin:miter;stroke-width:1.25;"/>
   </g>
   <g id="patch_4">
    <path d="M 90 270.72 
L 648 270.72 
" style="fill:none;stroke:#262626;stroke-linecap:square;stroke-linejoin:miter;stroke-width:1.25;"/>
   </g>
  </g>
  <g id="axes_2">
   <g id="patch_5">
    <path d="M 90 512.64 
L 648 512.64 
L 648 311.04 
L 90 311.04 
z
" style="fill:#ffffff;"/>
   </g>
   <g id="matplotlib.axis_3">
    <g id="xtick_10">
     <g id="line2d_16">
      <g>
       <use style="fill:#262626;stroke:#262626;" x="191.454545" xlink:href="#m75e1ae0988" y="512.64"/>
      </g>
     </g>
     <g id="text_15">
      <!-- 200 -->
      <g style="fill:#262626;" transform="translate(183.113139 532.797812)scale(0.1 -0.1)">
       <use xlink:href="#ArialMT-32"/>
       <use x="55.615234" xlink:href="#ArialMT-30"/>
       <use x="111.230469" xlink:href="#ArialMT-30"/>
      </g>
     </g>
    </g>
    <g id="xtick_11">
     <g id="line2d_17">
      <g>
       <use style="fill:#262626;stroke:#262626;" x="304.181818" xlink:href="#m75e1ae0988" y="512.64"/>
      </g>
     </g>
     <g id="text_16">
      <!-- 400 -->
      <g style="fill:#262626;" transform="translate(295.840412 532.797812)scale(0.1 -0.1)">
       <use xlink:href="#ArialMT-34"/>
       <use x="55.615234" xlink:href="#ArialMT-30"/>
       <use x="111.230469" xlink:href="#ArialMT-30"/>
      </g>
     </g>
    </g>
    <g id="xtick_12">
     <g id="line2d_18">
      <g>
       <use style="fill:#262626;stroke:#262626;" x="416.909091" xlink:href="#m75e1ae0988" y="512.64"/>
      </g>
     </g>
     <g id="text_17">
      <!-- 600 -->
      <g style="fill:#262626;" transform="translate(408.567685 532.797812)scale(0.1 -0.1)">
       <use xlink:href="#ArialMT-36"/>
       <use x="55.615234" xlink:href="#ArialMT-30"/>
       <use x="111.230469" xlink:href="#ArialMT-30"/>
      </g>
     </g>
    </g>
    <g id="xtick_13">
     <g id="line2d_19">
      <g>
       <use style="fill:#262626;stroke:#262626;" x="529.636364" xlink:href="#m75e1ae0988" y="512.64"/>
      </g>
     </g>
     <g id="text_18">
      <!-- 800 -->
      <g style="fill:#262626;" transform="translate(521.294957 532.797812)scale(0.1 -0.1)">
       <use xlink:href="#ArialMT-38"/>
       <use x="55.615234" xlink:href="#ArialMT-30"/>
       <use x="111.230469" xlink:href="#ArialMT-30"/>
      </g>
     </g>
    </g>
    <g id="xtick_14">
     <g id="line2d_20">
      <g>
       <use style="fill:#262626;stroke:#262626;" x="642.363636" xlink:href="#m75e1ae0988" y="512.64"/>
      </g>
     </g>
     <g id="text_19">
      <!-- 1000 -->
      <g style="fill:#262626;" transform="translate(631.241761 532.797812)scale(0.1 -0.1)">
       <use xlink:href="#ArialMT-31"/>
       <use x="55.615234" xlink:href="#ArialMT-30"/>
       <use x="111.230469" xlink:href="#ArialMT-30"/>
       <use x="166.845703" xlink:href="#ArialMT-30"/>
      </g>
     </g>
    </g>
   </g>
   <g id="matplotlib.axis_4">
    <g id="ytick_6">
     <g id="line2d_21">
      <g>
       <use style="fill:#262626;stroke:#262626;" x="90" xlink:href="#md92125fb3f" y="512.64"/>
      </g>
     </g>
     <g id="text_20">
      <!-- 0 -->
      <g style="fill:#262626;" transform="translate(71.439063 516.218906)scale(0.1 -0.1)">
       <use xlink:href="#ArialMT-30"/>
      </g>
     </g>
    </g>
    <g id="ytick_7">
     <g id="line2d_22">
      <g>
       <use style="fill:#262626;stroke:#262626;" x="90" xlink:href="#md92125fb3f" y="490.24"/>
      </g>
     </g>
     <g id="text_21">
      <!-- 2 -->
      <g style="fill:#262626;" transform="translate(71.439063 493.818906)scale(0.1 -0.1)">
       <use xlink:href="#ArialMT-32"/>
      </g>
     </g>
    </g>
    <g id="ytick_8">
     <g id="line2d_23">
      <g>
       <use style="fill:#262626;stroke:#262626;" x="90" xlink:href="#md92125fb3f" y="467.84"/>
      </g>
     </g>
     <g id="text_22">
      <!-- 4 -->
      <g style="fill:#262626;" transform="translate(71.439063 471.418906)scale(0.1 -0.1)">
       <use xlink:href="#ArialMT-34"/>
      </g>
     </g>
    </g>
    <g id="ytick_9">
     <g id="line2d_24">
      <g>
       <use style="fill:#262626;stroke:#262626;" x="90" xlink:href="#md92125fb3f" y="445.44"/>
      </g>
     </g>
     <g id="text_23">
      <!-- 6 -->
      <g style="fill:#262626;" transform="translate(71.439063 449.018906)scale(0.1 -0.1)">
       <use xlink:href="#ArialMT-36"/>
      </g>
     </g>
    </g>
    <g id="ytick_10">
     <g id="line2d_25">
      <g>
       <use style="fill:#262626;stroke:#262626;" x="90" xlink:href="#md92125fb3f" y="423.04"/>
      </g>
     </g>
     <g id="text_24">
      <!-- 8 -->
      <g style="fill:#262626;" transform="translate(71.439063 426.618906)scale(0.1 -0.1)">
       <use xlink:href="#ArialMT-38"/>
      </g>
     </g>
    </g>
    <g id="ytick_11">
     <g id="line2d_26">
      <g>
       <use style="fill:#262626;stroke:#262626;" x="90" xlink:href="#md92125fb3f" y="400.64"/>
      </g>
     </g>
     <g id="text_25">
      <!-- 10 -->
      <g style="fill:#262626;" transform="translate(65.878125 404.218906)scale(0.1 -0.1)">
       <use xlink:href="#ArialMT-31"/>
       <use x="55.615234" xlink:href="#ArialMT-30"/>
      </g>
     </g>
    </g>
    <g id="ytick_12">
     <g id="line2d_27">
      <g>
       <use style="fill:#262626;stroke:#262626;" x="90" xlink:href="#md92125fb3f" y="378.24"/>
      </g>
     </g>
     <g id="text_26">
      <!-- 12 -->
      <g style="fill:#262626;" transform="translate(65.878125 381.818906)scale(0.1 -0.1)">
       <use xlink:href="#ArialMT-31"/>
       <use x="55.615234" xlink:href="#ArialMT-32"/>
      </g>
     </g>
    </g>
    <g id="ytick_13">
     <g id="line2d_28">
      <g>
       <use style="fill:#262626;stroke:#262626;" x="90" xlink:href="#md92125fb3f" y="355.84"/>
      </g>
     </g>
     <g id="text_27">
      <!-- 14 -->
      <g style="fill:#262626;" transform="translate(65.878125 359.418906)scale(0.1 -0.1)">
       <use xlink:href="#ArialMT-31"/>
       <use x="55.615234" xlink:href="#ArialMT-34"/>
      </g>
     </g>
    </g>
    <g id="ytick_14">
     <g id="line2d_29">
      <g>
       <use style="fill:#262626;stroke:#262626;" x="90" xlink:href="#md92125fb3f" y="333.44"/>
      </g>
     </g>
     <g id="text_28">
      <!-- 16 -->
      <g style="fill:#262626;" transform="translate(65.878125 337.018906)scale(0.1 -0.1)">
       <use xlink:href="#ArialMT-31"/>
       <use x="55.615234" xlink:href="#ArialMT-36"/>
      </g>
     </g>
    </g>
    <g id="ytick_15">
     <g id="line2d_30">
      <g>
       <use style="fill:#262626;stroke:#262626;" x="90" xlink:href="#md92125fb3f" y="311.04"/>
      </g>
     </g>
     <g id="text_29">
      <!-- 18 -->
      <g style="fill:#262626;" transform="translate(65.878125 314.618906)scale(0.1 -0.1)">
       <use xlink:href="#ArialMT-31"/>
       <use x="55.615234" xlink:href="#ArialMT-38"/>
      </g>
     </g>
    </g>
   </g>
   <g id="line2d_31">
    <path clip-path="url(#p58b7b1a9b7)" d="M 90 477.654723 
L 95.636364 452.736402 
L 101.272727 431.923589 
L 106.909091 427.92302 
L 112.545455 440.45326 
L 118.181818 444.705349 
L 123.818182 448.961059 
L 129.454545 457.370701 
L 135.090909 456.375715 
L 140.727273 434.868159 
L 146.363636 408.816951 
L 152 389.988216 
L 157.636364 371.492183 
L 163.272727 352.310178 
L 168.909091 342.280664 
L 174.545455 348.647566 
L 180.181818 355.802406 
L 185.818182 363.350788 
L 191.454545 378.270766 
L 197.090909 391.147889 
L 202.727273 394.129256 
L 208.363636 396.550705 
L 214 393.395457 
L 219.636364 389.651786 
L 225.272727 392.702199 
L 230.909091 396.085016 
L 236.545455 399.690878 
L 242.181818 407.737617 
L 247.818182 414.331388 
L 253.454545 417.809913 
L 259.090909 422.903097 
L 264.727273 426.347751 
L 270.363636 429.764905 
L 276 436.797845 
L 281.636364 444.59905 
L 287.272727 452.348689 
L 292.909091 461.235722 
L 298.545455 467.982454 
L 304.181818 471.144774 
L 309.818182 472.257688 
L 315.454545 471.707893 
L 321.090909 472.117482 
L 326.727273 473.818281 
L 332.363636 475.619312 
L 338 478.193498 
L 343.636364 480.655986 
L 349.272727 482.144164 
L 354.909091 483.974362 
L 360.545455 485.825198 
L 366.181818 487.914885 
L 371.818182 490.804554 
L 377.454545 493.872728 
L 383.090909 496.544264 
L 388.727273 498.469641 
L 394.363636 499.417825 
" style="fill:none;stroke:#b22222;stroke-linecap:round;stroke-width:1.75;"/>
   </g>
   <g id="line2d_32">
    <path clip-path="url(#p58b7b1a9b7)" d="M 152 512.64 
L 152 311.04 
" style="fill:none;stroke:#4c72b0;stroke-linecap:round;stroke-width:1.75;"/>
   </g>
   <g id="patch_6">
    <path d="M 90 512.64 
L 90 311.04 
" style="fill:none;stroke:#262626;stroke-linecap:square;stroke-linejoin:miter;stroke-width:1.25;"/>
   </g>
   <g id="patch_7">
    <path d="M 90 512.64 
L 648 512.64 
" style="fill:none;stroke:#262626;stroke-linecap:square;stroke-linejoin:miter;stroke-width:1.25;"/>
   </g>
   <g id="text_30">
    <!-- f = 560 Hz -->
    <defs>
     <path d="M 8.6875 0 
L 8.6875 45.015625 
L 0.921875 45.015625 
L 0.921875 51.859375 
L 8.6875 51.859375 
L 8.6875 57.375 
Q 8.6875 62.59375 9.625 65.140625 
Q 10.890625 68.5625 14.078125 70.671875 
Q 17.28125 72.796875 23.046875 72.796875 
Q 26.765625 72.796875 31.25 71.921875 
L 29.9375 64.265625 
Q 27.203125 64.75 24.75 64.75 
Q 20.75 64.75 19.09375 63.03125 
Q 17.4375 61.328125 17.4375 56.640625 
L 17.4375 51.859375 
L 27.546875 51.859375 
L 27.546875 45.015625 
L 17.4375 45.015625 
L 17.4375 0 
z
" id="ArialMT-66"/>
     <path id="ArialMT-20"/>
     <path d="M 52.828125 42.09375 
L 5.5625 42.09375 
L 5.5625 50.296875 
L 52.828125 50.296875 
z
M 52.828125 20.359375 
L 5.5625 20.359375 
L 5.5625 28.5625 
L 52.828125 28.5625 
z
" id="ArialMT-3d"/>
     <path d="M 8.015625 0 
L 8.015625 71.578125 
L 17.484375 71.578125 
L 17.484375 42.1875 
L 54.6875 42.1875 
L 54.6875 71.578125 
L 64.15625 71.578125 
L 64.15625 0 
L 54.6875 0 
L 54.6875 33.734375 
L 17.484375 33.734375 
L 17.484375 0 
z
" id="ArialMT-48"/>
     <path d="M 1.953125 0 
L 1.953125 7.125 
L 34.96875 45.015625 
Q 29.34375 44.734375 25.046875 44.734375 
L 3.90625 44.734375 
L 3.90625 51.859375 
L 46.296875 51.859375 
L 46.296875 46.046875 
L 18.21875 13.140625 
L 12.796875 7.125 
Q 18.703125 7.5625 23.875 7.5625 
L 47.859375 7.5625 
L 47.859375 0 
z
" id="ArialMT-7a"/>
    </defs>
    <g style="fill:#262626;" transform="translate(529.636364 403.742188)scale(0.12 -0.12)">
     <use xlink:href="#ArialMT-66"/>
     <use x="27.783203" xlink:href="#ArialMT-20"/>
     <use x="55.566406" xlink:href="#ArialMT-3d"/>
     <use x="113.964844" xlink:href="#ArialMT-20"/>
     <use x="141.748047" xlink:href="#ArialMT-35"/>
     <use x="197.363281" xlink:href="#ArialMT-36"/>
     <use x="252.978516" xlink:href="#ArialMT-30"/>
     <use x="308.59375" xlink:href="#ArialMT-20"/>
     <use x="336.376953" xlink:href="#ArialMT-48"/>
     <use x="408.59375" xlink:href="#ArialMT-7a"/>
    </g>
   </g>
   <g id="PathCollection_1">
    <defs>
     <path d="M 0 3.5 
C 0.928211 3.5 1.81853 3.131218 2.474874 2.474874 
C 3.131218 1.81853 3.5 0.928211 3.5 0 
C 3.5 -0.928211 3.131218 -1.81853 2.474874 -2.474874 
C 1.81853 -3.131218 0.928211 -3.5 0 -3.5 
C -0.928211 -3.5 -1.81853 -3.131218 -2.474874 -2.474874 
C -3.131218 -1.81853 -3.5 -0.928211 -3.5 0 
C -3.5 0.928211 -3.131218 1.81853 -2.474874 2.474874 
C -1.81853 3.131218 -0.928211 3.5 0 3.5 
z
" id="mba9e94d8f4" style="stroke:#800000;stroke-width:0.3;"/>
    </defs>
    <g clip-path="url(#p58b7b1a9b7)">
     <use style="fill:#800000;stroke:#800000;stroke-width:0.3;" x="394.363636" xlink:href="#mba9e94d8f4" y="499.417825"/>
    </g>
   </g>
  </g>
 </g>
 <defs>
  <clipPath id="pd6d7f18cf7">
   <rect height="201.6" width="558" x="90" y="69.12"/>
  </clipPath>
  <clipPath id="p58b7b1a9b7">
   <rect height="201.6" width="558" x="90" y="311.04"/>
  </clipPath>
 </defs>
</svg>
