<?xml version="1.0" encoding="utf-8" standalone="no"?>
<!DOCTYPE svg PUBLIC "-//W3C//DTD SVG 1.1//EN"
  "http://www.w3.org/Graphics/SVG/1.1/DTD/svg11.dtd">
<!-- Created with matplotlib (http://matplotlib.org/) -->
<svg height="576pt" version="1.1" viewBox="0 0 720 576" width="720pt" xmlns="http://www.w3.org/2000/svg" xmlns:xlink="http://www.w3.org/1999/xlink">
 <defs>
  <style type="text/css">
*{stroke-linecap:butt;stroke-linejoin:round;}
  </style>
 </defs>
 <g id="figure_1">
  <g id="patch_1">
   <path d="M 0 576 
L 720 576 
L 720 0 
L 0 0 
z
" style="fill:#ffffff;"/>
  </g>
  <g id="axes_1">
   <g id="patch_2">
    <path d="M 90 270.72 
L 648 270.72 
L 648 69.12 
L 90 69.12 
z
" style="fill:#ffffff;"/>
   </g>
   <g id="matplotlib.axis_1">
    <g id="xtick_1">
     <g id="line2d_1">
      <defs>
       <path d="M 0 0 
L 0 6 
" id="m0859c794a0" style="stroke:#262626;"/>
      </defs>
      <g>
       <use style="fill:#262626;stroke:#262626;" x="90" xlink:href="#m0859c794a0" y="270.72"/>
      </g>
     </g>
     <g id="text_1">
      <!-- 0 -->
      <defs>
       <path d="M 4.15625 35.296875 
Q 4.15625 48 6.765625 55.734375 
Q 9.375 63.484375 14.515625 67.671875 
Q 19.671875 71.875 27.484375 71.875 
Q 33.25 71.875 37.59375 69.546875 
Q 41.9375 67.234375 44.765625 62.859375 
Q 47.609375 58.5 49.21875 52.21875 
Q 50.828125 45.953125 50.828125 35.296875 
Q 50.828125 22.703125 48.234375 14.96875 
Q 45.65625 7.234375 40.5 3 
Q 35.359375 -1.21875 27.484375 -1.21875 
Q 17.140625 -1.21875 11.234375 6.203125 
Q 4.15625 15.140625 4.15625 35.296875 
z
M 13.1875 35.296875 
Q 13.1875 17.671875 17.3125 11.828125 
Q 21.4375 6 27.484375 6 
Q 33.546875 6 37.671875 11.859375 
Q 41.796875 17.71875 41.796875 35.296875 
Q 41.796875 52.984375 37.671875 58.78125 
Q 33.546875 64.59375 27.390625 64.59375 
Q 21.34375 64.59375 17.71875 59.46875 
Q 13.1875 52.9375 13.1875 35.296875 
z
" id="ArialMT-30"/>
      </defs>
      <g style="fill:#262626;" transform="translate(87.219531 290.877812)scale(0.1 -0.1)">
       <use xlink:href="#ArialMT-30"/>
      </g>
     </g>
    </g>
    <g id="xtick_2">
     <g id="line2d_2">
      <g>
       <use style="fill:#262626;stroke:#262626;" x="159.75" xlink:href="#m0859c794a0" y="270.72"/>
      </g>
     </g>
     <g id="text_2">
      <!-- 100 -->
      <defs>
       <path d="M 37.25 0 
L 28.46875 0 
L 28.46875 56 
Q 25.296875 52.984375 20.140625 49.953125 
Q 14.984375 46.921875 10.890625 45.40625 
L 10.890625 53.90625 
Q 18.265625 57.375 23.78125 62.296875 
Q 29.296875 67.234375 31.59375 71.875 
L 37.25 71.875 
z
" id="ArialMT-31"/>
      </defs>
      <g style="fill:#262626;" transform="translate(151.408594 290.877812)scale(0.1 -0.1)">
       <use xlink:href="#ArialMT-31"/>
       <use x="55.615234" xlink:href="#ArialMT-30"/>
       <use x="111.230469" xlink:href="#ArialMT-30"/>
      </g>
     </g>
    </g>
    <g id="xtick_3">
     <g id="line2d_3">
      <g>
       <use style="fill:#262626;stroke:#262626;" x="229.5" xlink:href="#m0859c794a0" y="270.72"/>
      </g>
     </g>
     <g id="text_3">
      <!-- 200 -->
      <defs>
       <path d="M 50.34375 8.453125 
L 50.34375 0 
L 3.03125 0 
Q 2.9375 3.171875 4.046875 6.109375 
Q 5.859375 10.9375 9.828125 15.625 
Q 13.8125 20.3125 21.34375 26.46875 
Q 33.015625 36.03125 37.109375 41.625 
Q 41.21875 47.21875 41.21875 52.203125 
Q 41.21875 57.421875 37.46875 61 
Q 33.734375 64.59375 27.734375 64.59375 
Q 21.390625 64.59375 17.578125 60.78125 
Q 13.765625 56.984375 13.71875 50.25 
L 4.6875 51.171875 
Q 5.609375 61.28125 11.65625 66.578125 
Q 17.71875 71.875 27.9375 71.875 
Q 38.234375 71.875 44.234375 66.15625 
Q 50.25 60.453125 50.25 52 
Q 50.25 47.703125 48.484375 43.546875 
Q 46.734375 39.40625 42.65625 34.8125 
Q 38.578125 30.21875 29.109375 22.21875 
Q 21.1875 15.578125 18.9375 13.203125 
Q 16.703125 10.84375 15.234375 8.453125 
z
" id="ArialMT-32"/>
      </defs>
      <g style="fill:#262626;" transform="translate(221.158594 290.877812)scale(0.1 -0.1)">
       <use xlink:href="#ArialMT-32"/>
       <use x="55.615234" xlink:href="#ArialMT-30"/>
       <use x="111.230469" xlink:href="#ArialMT-30"/>
      </g>
     </g>
    </g>
    <g id="xtick_4">
     <g id="line2d_4">
      <g>
       <use style="fill:#262626;stroke:#262626;" x="299.25" xlink:href="#m0859c794a0" y="270.72"/>
      </g>
     </g>
     <g id="text_4">
      <!-- 300 -->
      <defs>
       <path d="M 4.203125 18.890625 
L 12.984375 20.0625 
Q 14.5 12.59375 18.140625 9.296875 
Q 21.78125 6 27 6 
Q 33.203125 6 37.46875 10.296875 
Q 41.75 14.59375 41.75 20.953125 
Q 41.75 27 37.796875 30.921875 
Q 33.84375 34.859375 27.734375 34.859375 
Q 25.25 34.859375 21.53125 33.890625 
L 22.515625 41.609375 
Q 23.390625 41.5 23.921875 41.5 
Q 29.546875 41.5 34.03125 44.421875 
Q 38.53125 47.359375 38.53125 53.46875 
Q 38.53125 58.296875 35.25 61.46875 
Q 31.984375 64.65625 26.8125 64.65625 
Q 21.6875 64.65625 18.265625 61.421875 
Q 14.84375 58.203125 13.875 51.765625 
L 5.078125 53.328125 
Q 6.6875 62.15625 12.390625 67.015625 
Q 18.109375 71.875 26.609375 71.875 
Q 32.46875 71.875 37.390625 69.359375 
Q 42.328125 66.84375 44.9375 62.5 
Q 47.5625 58.15625 47.5625 53.265625 
Q 47.5625 48.640625 45.0625 44.828125 
Q 42.578125 41.015625 37.703125 38.765625 
Q 44.046875 37.3125 47.5625 32.6875 
Q 51.078125 28.078125 51.078125 21.140625 
Q 51.078125 11.765625 44.234375 5.25 
Q 37.40625 -1.265625 26.953125 -1.265625 
Q 17.53125 -1.265625 11.296875 4.34375 
Q 5.078125 9.96875 4.203125 18.890625 
z
" id="ArialMT-33"/>
      </defs>
      <g style="fill:#262626;" transform="translate(290.908594 290.877812)scale(0.1 -0.1)">
       <use xlink:href="#ArialMT-33"/>
       <use x="55.615234" xlink:href="#ArialMT-30"/>
       <use x="111.230469" xlink:href="#ArialMT-30"/>
      </g>
     </g>
    </g>
    <g id="xtick_5">
     <g id="line2d_5">
      <g>
       <use style="fill:#262626;stroke:#262626;" x="369" xlink:href="#m0859c794a0" y="270.72"/>
      </g>
     </g>
     <g id="text_5">
      <!-- 400 -->
      <defs>
       <path d="M 32.328125 0 
L 32.328125 17.140625 
L 1.265625 17.140625 
L 1.265625 25.203125 
L 33.9375 71.578125 
L 41.109375 71.578125 
L 41.109375 25.203125 
L 50.78125 25.203125 
L 50.78125 17.140625 
L 41.109375 17.140625 
L 41.109375 0 
z
M 32.328125 25.203125 
L 32.328125 57.46875 
L 9.90625 25.203125 
z
" id="ArialMT-34"/>
      </defs>
      <g style="fill:#262626;" transform="translate(360.658594 290.877812)scale(0.1 -0.1)">
       <use xlink:href="#ArialMT-34"/>
       <use x="55.615234" xlink:href="#ArialMT-30"/>
       <use x="111.230469" xlink:href="#ArialMT-30"/>
      </g>
     </g>
    </g>
    <g id="xtick_6">
     <g id="line2d_6">
      <g>
       <use style="fill:#262626;stroke:#262626;" x="438.75" xlink:href="#m0859c794a0" y="270.72"/>
      </g>
     </g>
     <g id="text_6">
      <!-- 500 -->
      <defs>
       <path d="M 4.15625 18.75 
L 13.375 19.53125 
Q 14.40625 12.796875 18.140625 9.390625 
Q 21.875 6 27.15625 6 
Q 33.5 6 37.890625 10.78125 
Q 42.28125 15.578125 42.28125 23.484375 
Q 42.28125 31 38.0625 35.34375 
Q 33.84375 39.703125 27 39.703125 
Q 22.75 39.703125 19.328125 37.765625 
Q 15.921875 35.84375 13.96875 32.765625 
L 5.71875 33.84375 
L 12.640625 70.609375 
L 48.25 70.609375 
L 48.25 62.203125 
L 19.671875 62.203125 
L 15.828125 42.96875 
Q 22.265625 47.46875 29.34375 47.46875 
Q 38.71875 47.46875 45.15625 40.96875 
Q 51.609375 34.46875 51.609375 24.265625 
Q 51.609375 14.546875 45.953125 7.46875 
Q 39.0625 -1.21875 27.15625 -1.21875 
Q 17.390625 -1.21875 11.203125 4.25 
Q 5.03125 9.71875 4.15625 18.75 
z
" id="ArialMT-35"/>
      </defs>
      <g style="fill:#262626;" transform="translate(430.408594 290.877812)scale(0.1 -0.1)">
       <use xlink:href="#ArialMT-35"/>
       <use x="55.615234" xlink:href="#ArialMT-30"/>
       <use x="111.230469" xlink:href="#ArialMT-30"/>
      </g>
     </g>
    </g>
    <g id="xtick_7">
     <g id="line2d_7">
      <g>
       <use style="fill:#262626;stroke:#262626;" x="508.5" xlink:href="#m0859c794a0" y="270.72"/>
      </g>
     </g>
     <g id="text_7">
      <!-- 600 -->
      <defs>
       <path d="M 49.75 54.046875 
L 41.015625 53.375 
Q 39.84375 58.546875 37.703125 60.890625 
Q 34.125 64.65625 28.90625 64.65625 
Q 24.703125 64.65625 21.53125 62.3125 
Q 17.390625 59.28125 14.984375 53.46875 
Q 12.59375 47.65625 12.5 36.921875 
Q 15.671875 41.75 20.265625 44.09375 
Q 24.859375 46.4375 29.890625 46.4375 
Q 38.671875 46.4375 44.84375 39.96875 
Q 51.03125 33.5 51.03125 23.25 
Q 51.03125 16.5 48.125 10.71875 
Q 45.21875 4.9375 40.140625 1.859375 
Q 35.0625 -1.21875 28.609375 -1.21875 
Q 17.625 -1.21875 10.6875 6.859375 
Q 3.765625 14.9375 3.765625 33.5 
Q 3.765625 54.25 11.421875 63.671875 
Q 18.109375 71.875 29.4375 71.875 
Q 37.890625 71.875 43.28125 67.140625 
Q 48.6875 62.40625 49.75 54.046875 
z
M 13.875 23.1875 
Q 13.875 18.65625 15.796875 14.5 
Q 17.71875 10.359375 21.1875 8.171875 
Q 24.65625 6 28.46875 6 
Q 34.03125 6 38.03125 10.484375 
Q 42.046875 14.984375 42.046875 22.703125 
Q 42.046875 30.125 38.078125 34.390625 
Q 34.125 38.671875 28.125 38.671875 
Q 22.171875 38.671875 18.015625 34.390625 
Q 13.875 30.125 13.875 23.1875 
z
" id="ArialMT-36"/>
      </defs>
      <g style="fill:#262626;" transform="translate(500.158594 290.877812)scale(0.1 -0.1)">
       <use xlink:href="#ArialMT-36"/>
       <use x="55.615234" xlink:href="#ArialMT-30"/>
       <use x="111.230469" xlink:href="#ArialMT-30"/>
      </g>
     </g>
    </g>
    <g id="xtick_8">
     <g id="line2d_8">
      <g>
       <use style="fill:#262626;stroke:#262626;" x="578.25" xlink:href="#m0859c794a0" y="270.72"/>
      </g>
     </g>
     <g id="text_8">
      <!-- 700 -->
      <defs>
       <path d="M 4.734375 62.203125 
L 4.734375 70.65625 
L 51.078125 70.65625 
L 51.078125 63.8125 
Q 44.234375 56.546875 37.515625 44.484375 
Q 30.8125 32.421875 27.15625 19.671875 
Q 24.515625 10.6875 23.78125 0 
L 14.75 0 
Q 14.890625 8.453125 18.0625 20.40625 
Q 21.234375 32.375 27.171875 43.484375 
Q 33.109375 54.59375 39.796875 62.203125 
z
" id="ArialMT-37"/>
      </defs>
      <g style="fill:#262626;" transform="translate(569.908594 290.877812)scale(0.1 -0.1)">
       <use xlink:href="#ArialMT-37"/>
       <use x="55.615234" xlink:href="#ArialMT-30"/>
       <use x="111.230469" xlink:href="#ArialMT-30"/>
      </g>
     </g>
    </g>
    <g id="xtick_9">
     <g id="line2d_9">
      <g>
       <use style="fill:#262626;stroke:#262626;" x="648" xlink:href="#m0859c794a0" y="270.72"/>
      </g>
     </g>
     <g id="text_9">
      <!-- 800 -->
      <defs>
       <path d="M 17.671875 38.8125 
Q 12.203125 40.828125 9.5625 44.53125 
Q 6.9375 48.25 6.9375 53.421875 
Q 6.9375 61.234375 12.546875 66.546875 
Q 18.171875 71.875 27.484375 71.875 
Q 36.859375 71.875 42.578125 66.421875 
Q 48.296875 60.984375 48.296875 53.171875 
Q 48.296875 48.1875 45.671875 44.5 
Q 43.0625 40.828125 37.75 38.8125 
Q 44.34375 36.671875 47.78125 31.875 
Q 51.21875 27.09375 51.21875 20.453125 
Q 51.21875 11.28125 44.71875 5.03125 
Q 38.234375 -1.21875 27.640625 -1.21875 
Q 17.046875 -1.21875 10.546875 5.046875 
Q 4.046875 11.328125 4.046875 20.703125 
Q 4.046875 27.6875 7.59375 32.390625 
Q 11.140625 37.109375 17.671875 38.8125 
z
M 15.921875 53.71875 
Q 15.921875 48.640625 19.1875 45.40625 
Q 22.46875 42.1875 27.6875 42.1875 
Q 32.765625 42.1875 36.015625 45.375 
Q 39.265625 48.578125 39.265625 53.21875 
Q 39.265625 58.0625 35.90625 61.359375 
Q 32.5625 64.65625 27.59375 64.65625 
Q 22.5625 64.65625 19.234375 61.421875 
Q 15.921875 58.203125 15.921875 53.71875 
z
M 13.09375 20.65625 
Q 13.09375 16.890625 14.875 13.375 
Q 16.65625 9.859375 20.171875 7.921875 
Q 23.6875 6 27.734375 6 
Q 34.03125 6 38.125 10.046875 
Q 42.234375 14.109375 42.234375 20.359375 
Q 42.234375 26.703125 38.015625 30.859375 
Q 33.796875 35.015625 27.4375 35.015625 
Q 21.234375 35.015625 17.15625 30.90625 
Q 13.09375 26.8125 13.09375 20.65625 
z
" id="ArialMT-38"/>
      </defs>
      <g style="fill:#262626;" transform="translate(639.658594 290.877812)scale(0.1 -0.1)">
       <use xlink:href="#ArialMT-38"/>
       <use x="55.615234" xlink:href="#ArialMT-30"/>
       <use x="111.230469" xlink:href="#ArialMT-30"/>
      </g>
     </g>
    </g>
   </g>
   <g id="matplotlib.axis_2">
    <g id="ytick_1">
     <g id="line2d_10">
      <defs>
       <path d="M 0 0 
L -6 0 
" id="m8737888c3b" style="stroke:#262626;"/>
      </defs>
      <g>
       <use style="fill:#262626;stroke:#262626;" x="90" xlink:href="#m8737888c3b" y="250.56"/>
      </g>
     </g>
     <g id="text_10">
      <!-- −0.04 -->
      <defs>
       <path d="M 52.828125 31.203125 
L 5.5625 31.203125 
L 5.5625 39.40625 
L 52.828125 39.40625 
z
" id="ArialMT-2212"/>
       <path d="M 9.078125 0 
L 9.078125 10.015625 
L 19.09375 10.015625 
L 19.09375 0 
z
" id="ArialMT-2e"/>
      </defs>
      <g style="fill:#262626;" transform="translate(51.698437 254.138906)scale(0.1 -0.1)">
       <use xlink:href="#ArialMT-2212"/>
       <use x="58.398438" xlink:href="#ArialMT-30"/>
       <use x="114.013672" xlink:href="#ArialMT-2e"/>
       <use x="141.796875" xlink:href="#ArialMT-30"/>
       <use x="197.412109" xlink:href="#ArialMT-34"/>
      </g>
     </g>
    </g>
    <g id="ytick_2">
     <g id="line2d_11">
      <g>
       <use style="fill:#262626;stroke:#262626;" x="90" xlink:href="#m8737888c3b" y="210.24"/>
      </g>
     </g>
     <g id="text_11">
      <!-- −0.02 -->
      <g style="fill:#262626;" transform="translate(51.698437 213.818906)scale(0.1 -0.1)">
       <use xlink:href="#ArialMT-2212"/>
       <use x="58.398438" xlink:href="#ArialMT-30"/>
       <use x="114.013672" xlink:href="#ArialMT-2e"/>
       <use x="141.796875" xlink:href="#ArialMT-30"/>
       <use x="197.412109" xlink:href="#ArialMT-32"/>
      </g>
     </g>
    </g>
    <g id="ytick_3">
     <g id="line2d_12">
      <g>
       <use style="fill:#262626;stroke:#262626;" x="90" xlink:href="#m8737888c3b" y="169.92"/>
      </g>
     </g>
     <g id="text_12">
      <!-- 0.00 -->
      <g style="fill:#262626;" transform="translate(57.539062 173.498906)scale(0.1 -0.1)">
       <use xlink:href="#ArialMT-30"/>
       <use x="55.615234" xlink:href="#ArialMT-2e"/>
       <use x="83.398438" xlink:href="#ArialMT-30"/>
       <use x="139.013672" xlink:href="#ArialMT-30"/>
      </g>
     </g>
    </g>
    <g id="ytick_4">
     <g id="line2d_13">
      <g>
       <use style="fill:#262626;stroke:#262626;" x="90" xlink:href="#m8737888c3b" y="129.6"/>
      </g>
     </g>
     <g id="text_13">
      <!-- 0.02 -->
      <g style="fill:#262626;" transform="translate(57.539062 133.178906)scale(0.1 -0.1)">
       <use xlink:href="#ArialMT-30"/>
       <use x="55.615234" xlink:href="#ArialMT-2e"/>
       <use x="83.398438" xlink:href="#ArialMT-30"/>
       <use x="139.013672" xlink:href="#ArialMT-32"/>
      </g>
     </g>
    </g>
    <g id="ytick_5">
     <g id="line2d_14">
      <g>
       <use style="fill:#262626;stroke:#262626;" x="90" xlink:href="#m8737888c3b" y="89.28"/>
      </g>
     </g>
     <g id="text_14">
      <!-- 0.04 -->
      <g style="fill:#262626;" transform="translate(57.539062 92.858906)scale(0.1 -0.1)">
       <use xlink:href="#ArialMT-30"/>
       <use x="55.615234" xlink:href="#ArialMT-2e"/>
       <use x="83.398438" xlink:href="#ArialMT-30"/>
       <use x="139.013672" xlink:href="#ArialMT-34"/>
      </g>
     </g>
    </g>
   </g>
   <g id="PolyCollection_1">
    <path clip-path="url(#pb9df77fa91)" d="M 90 171.768334 
L 90 169.92 
L 90.6975 169.92 
L 91.395 169.92 
L 92.0925 169.92 
L 92.79 169.92 
L 93.4875 169.92 
L 94.185 169.92 
L 94.8825 169.92 
L 95.58 169.92 
L 96.2775 169.92 
L 96.975 169.92 
L 97.6725 169.92 
L 98.37 169.92 
L 99.0675 169.92 
L 99.765 169.92 
L 100.4625 169.92 
L 101.16 169.92 
L 101.8575 169.92 
L 102.555 169.92 
L 103.2525 169.92 
L 103.95 169.92 
L 104.6475 169.92 
L 105.345 169.92 
L 106.0425 169.92 
L 106.74 169.92 
L 107.4375 169.92 
L 108.135 169.92 
L 108.8325 169.92 
L 109.53 169.92 
L 110.2275 169.92 
L 110.925 169.92 
L 111.6225 169.92 
L 112.32 169.92 
L 113.0175 169.92 
L 113.715 169.92 
L 114.4125 169.92 
L 115.11 169.92 
L 115.8075 169.92 
L 116.505 169.92 
L 117.2025 169.92 
L 117.9 169.92 
L 118.5975 169.92 
L 119.295 169.92 
L 119.9925 169.92 
L 120.69 169.92 
L 121.3875 169.92 
L 122.085 169.92 
L 122.7825 169.92 
L 123.48 169.92 
L 124.1775 169.92 
L 124.875 169.92 
L 125.5725 169.92 
L 126.27 169.92 
L 126.9675 169.92 
L 127.665 169.92 
L 128.3625 169.92 
L 129.06 169.92 
L 129.7575 169.92 
L 130.455 169.92 
L 131.1525 169.92 
L 131.85 169.92 
L 132.5475 169.92 
L 133.245 169.92 
L 133.9425 169.92 
L 134.64 169.92 
L 135.3375 169.92 
L 136.035 169.92 
L 136.7325 169.92 
L 137.43 169.92 
L 138.1275 169.92 
L 138.825 169.92 
L 139.5225 169.92 
L 140.22 169.92 
L 140.9175 169.92 
L 141.615 169.92 
L 142.3125 169.92 
L 143.01 169.92 
L 143.7075 169.92 
L 144.405 169.92 
L 145.1025 169.92 
L 145.8 169.92 
L 146.4975 169.92 
L 147.195 169.92 
L 147.8925 169.92 
L 148.59 169.92 
L 149.2875 169.92 
L 149.985 169.92 
L 150.6825 169.92 
L 151.38 169.92 
L 152.0775 169.92 
L 152.775 169.92 
L 153.4725 169.92 
L 154.17 169.92 
L 154.8675 169.92 
L 155.565 169.92 
L 156.2625 169.92 
L 156.96 169.92 
L 157.6575 169.92 
L 158.355 169.92 
L 159.0525 169.92 
L 159.75 169.92 
L 160.4475 169.92 
L 161.145 169.92 
L 161.8425 169.92 
L 162.54 169.92 
L 163.2375 169.92 
L 163.935 169.92 
L 164.6325 169.92 
L 165.33 169.92 
L 166.0275 169.92 
L 166.725 169.92 
L 167.4225 169.92 
L 168.12 169.92 
L 168.8175 169.92 
L 169.515 169.92 
L 170.2125 169.92 
L 170.91 169.92 
L 171.6075 169.92 
L 172.305 169.92 
L 173.0025 169.92 
L 173.7 169.92 
L 174.3975 169.92 
L 175.095 169.92 
L 175.7925 169.92 
L 176.49 169.92 
L 177.1875 169.92 
L 177.885 169.92 
L 178.5825 169.92 
L 179.28 169.92 
L 179.9775 169.92 
L 180.675 169.92 
L 181.3725 169.92 
L 182.07 169.92 
L 182.7675 169.92 
L 183.465 169.92 
L 184.1625 169.92 
L 184.86 169.92 
L 185.5575 169.92 
L 186.255 169.92 
L 186.9525 169.92 
L 187.65 169.92 
L 188.3475 169.92 
L 189.045 169.92 
L 189.7425 169.92 
L 190.44 169.92 
L 191.1375 169.92 
L 191.835 169.92 
L 192.5325 169.92 
L 193.23 169.92 
L 193.9275 169.92 
L 194.625 169.92 
L 195.3225 169.92 
L 196.02 169.92 
L 196.7175 169.92 
L 197.415 169.92 
L 198.1125 169.92 
L 198.81 169.92 
L 199.5075 169.92 
L 200.205 169.92 
L 200.9025 169.92 
L 201.6 169.92 
L 202.2975 169.92 
L 202.995 169.92 
L 203.6925 169.92 
L 204.39 169.92 
L 205.0875 169.92 
L 205.785 169.92 
L 206.4825 169.92 
L 207.18 169.92 
L 207.8775 169.92 
L 208.575 169.92 
L 209.2725 169.92 
L 209.97 169.92 
L 210.6675 169.92 
L 211.365 169.92 
L 212.0625 169.92 
L 212.76 169.92 
L 213.4575 169.92 
L 214.155 169.92 
L 214.8525 169.92 
L 215.55 169.92 
L 216.2475 169.92 
L 216.945 169.92 
L 217.6425 169.92 
L 218.34 169.92 
L 219.0375 169.92 
L 219.735 169.92 
L 220.4325 169.92 
L 221.13 169.92 
L 221.8275 169.92 
L 222.525 169.92 
L 223.2225 169.92 
L 223.92 169.92 
L 224.6175 169.92 
L 225.315 169.92 
L 226.0125 169.92 
L 226.71 169.92 
L 227.4075 169.92 
L 228.105 169.92 
L 228.8025 169.92 
L 229.5 169.92 
L 230.1975 169.92 
L 230.895 169.92 
L 231.5925 169.92 
L 232.29 169.92 
L 232.9875 169.92 
L 233.685 169.92 
L 234.3825 169.92 
L 235.08 169.92 
L 235.7775 169.92 
L 236.475 169.92 
L 237.1725 169.92 
L 237.87 169.92 
L 238.5675 169.92 
L 239.265 169.92 
L 239.9625 169.92 
L 240.66 169.92 
L 241.3575 169.92 
L 242.055 169.92 
L 242.7525 169.92 
L 243.45 169.92 
L 244.1475 169.92 
L 244.845 169.92 
L 245.5425 169.92 
L 246.24 169.92 
L 246.9375 169.92 
L 247.635 169.92 
L 248.3325 169.92 
L 249.03 169.92 
L 249.7275 169.92 
L 250.425 169.92 
L 251.1225 169.92 
L 251.82 169.92 
L 252.5175 169.92 
L 253.215 169.92 
L 253.9125 169.92 
L 254.61 169.92 
L 255.3075 169.92 
L 256.005 169.92 
L 256.7025 169.92 
L 257.4 169.92 
L 258.0975 169.92 
L 258.795 169.92 
L 259.4925 169.92 
L 260.19 169.92 
L 260.8875 169.92 
L 261.585 169.92 
L 262.2825 169.92 
L 262.98 169.92 
L 263.6775 169.92 
L 264.375 169.92 
L 265.0725 169.92 
L 265.77 169.92 
L 266.4675 169.92 
L 267.165 169.92 
L 267.8625 169.92 
L 268.56 169.92 
L 269.2575 169.92 
L 269.955 169.92 
L 270.6525 169.92 
L 271.35 169.92 
L 272.0475 169.92 
L 272.745 169.92 
L 273.4425 169.92 
L 274.14 169.92 
L 274.8375 169.92 
L 275.535 169.92 
L 276.2325 169.92 
L 276.93 169.92 
L 277.6275 169.92 
L 278.325 169.92 
L 279.0225 169.92 
L 279.72 169.92 
L 280.4175 169.92 
L 281.115 169.92 
L 281.8125 169.92 
L 282.51 169.92 
L 283.2075 169.92 
L 283.905 169.92 
L 284.6025 169.92 
L 285.3 169.92 
L 285.9975 169.92 
L 286.695 169.92 
L 287.3925 169.92 
L 288.09 169.92 
L 288.7875 169.92 
L 289.485 169.92 
L 290.1825 169.92 
L 290.88 169.92 
L 291.5775 169.92 
L 292.275 169.92 
L 292.9725 169.92 
L 293.67 169.92 
L 294.3675 169.92 
L 295.065 169.92 
L 295.7625 169.92 
L 296.46 169.92 
L 297.1575 169.92 
L 297.855 169.92 
L 298.5525 169.92 
L 299.25 169.92 
L 299.9475 169.92 
L 300.645 169.92 
L 301.3425 169.92 
L 302.04 169.92 
L 302.7375 169.92 
L 303.435 169.92 
L 304.1325 169.92 
L 304.83 169.92 
L 305.5275 169.92 
L 306.225 169.92 
L 306.9225 169.92 
L 307.62 169.92 
L 308.3175 169.92 
L 309.015 169.92 
L 309.7125 169.92 
L 310.41 169.92 
L 311.1075 169.92 
L 311.805 169.92 
L 312.5025 169.92 
L 313.2 169.92 
L 313.8975 169.92 
L 314.595 169.92 
L 315.2925 169.92 
L 315.99 169.92 
L 316.6875 169.92 
L 317.385 169.92 
L 318.0825 169.92 
L 318.78 169.92 
L 319.4775 169.92 
L 320.175 169.92 
L 320.8725 169.92 
L 321.57 169.92 
L 322.2675 169.92 
L 322.965 169.92 
L 323.6625 169.92 
L 324.36 169.92 
L 325.0575 169.92 
L 325.755 169.92 
L 326.4525 169.92 
L 327.15 169.92 
L 327.8475 169.92 
L 328.545 169.92 
L 329.2425 169.92 
L 329.94 169.92 
L 330.6375 169.92 
L 331.335 169.92 
L 332.0325 169.92 
L 332.73 169.92 
L 333.4275 169.92 
L 334.125 169.92 
L 334.8225 169.92 
L 335.52 169.92 
L 336.2175 169.92 
L 336.915 169.92 
L 337.6125 169.92 
L 338.31 169.92 
L 339.0075 169.92 
L 339.705 169.92 
L 340.4025 169.92 
L 341.1 169.92 
L 341.7975 169.92 
L 342.495 169.92 
L 343.1925 169.92 
L 343.89 169.92 
L 344.5875 169.92 
L 345.285 169.92 
L 345.9825 169.92 
L 346.68 169.92 
L 347.3775 169.92 
L 348.075 169.92 
L 348.7725 169.92 
L 349.47 169.92 
L 350.1675 169.92 
L 350.865 169.92 
L 351.5625 169.92 
L 352.26 169.92 
L 352.9575 169.92 
L 353.655 169.92 
L 354.3525 169.92 
L 355.05 169.92 
L 355.7475 169.92 
L 356.445 169.92 
L 357.1425 169.92 
L 357.84 169.92 
L 358.5375 169.92 
L 359.235 169.92 
L 359.9325 169.92 
L 360.63 169.92 
L 361.3275 169.92 
L 362.025 169.92 
L 362.7225 169.92 
L 363.42 169.92 
L 364.1175 169.92 
L 364.815 169.92 
L 365.5125 169.92 
L 366.21 169.92 
L 366.9075 169.92 
L 367.605 169.92 
L 368.3025 169.92 
L 369 169.92 
L 369.6975 169.92 
L 370.395 169.92 
L 371.0925 169.92 
L 371.79 169.92 
L 372.4875 169.92 
L 373.185 169.92 
L 373.8825 169.92 
L 374.58 169.92 
L 375.2775 169.92 
L 375.975 169.92 
L 376.6725 169.92 
L 377.37 169.92 
L 378.0675 169.92 
L 378.765 169.92 
L 379.4625 169.92 
L 380.16 169.92 
L 380.8575 169.92 
L 381.555 169.92 
L 382.2525 169.92 
L 382.95 169.92 
L 383.6475 169.92 
L 384.345 169.92 
L 385.0425 169.92 
L 385.74 169.92 
L 386.4375 169.92 
L 387.135 169.92 
L 387.8325 169.92 
L 388.53 169.92 
L 389.2275 169.92 
L 389.925 169.92 
L 390.6225 169.92 
L 391.32 169.92 
L 392.0175 169.92 
L 392.715 169.92 
L 393.4125 169.92 
L 394.11 169.92 
L 394.8075 169.92 
L 395.505 169.92 
L 396.2025 169.92 
L 396.9 169.92 
L 397.5975 169.92 
L 398.295 169.92 
L 398.9925 169.92 
L 399.69 169.92 
L 400.3875 169.92 
L 401.085 169.92 
L 401.7825 169.92 
L 402.48 169.92 
L 403.1775 169.92 
L 403.875 169.92 
L 404.5725 169.92 
L 405.27 169.92 
L 405.9675 169.92 
L 406.665 169.92 
L 407.3625 169.92 
L 408.06 169.92 
L 408.7575 169.92 
L 409.455 169.92 
L 410.1525 169.92 
L 410.85 169.92 
L 411.5475 169.92 
L 412.245 169.92 
L 412.9425 169.92 
L 413.64 169.92 
L 414.3375 169.92 
L 415.035 169.92 
L 415.7325 169.92 
L 416.43 169.92 
L 417.1275 169.92 
L 417.825 169.92 
L 418.5225 169.92 
L 419.22 169.92 
L 419.9175 169.92 
L 420.615 169.92 
L 421.3125 169.92 
L 422.01 169.92 
L 422.7075 169.92 
L 423.405 169.92 
L 424.1025 169.92 
L 424.8 169.92 
L 425.4975 169.92 
L 426.195 169.92 
L 426.8925 169.92 
L 427.59 169.92 
L 428.2875 169.92 
L 428.985 169.92 
L 429.6825 169.92 
L 430.38 169.92 
L 431.0775 169.92 
L 431.775 169.92 
L 432.4725 169.92 
L 433.17 169.92 
L 433.8675 169.92 
L 434.565 169.92 
L 435.2625 169.92 
L 435.96 169.92 
L 436.6575 169.92 
L 437.355 169.92 
L 438.0525 169.92 
L 438.75 169.92 
L 439.4475 169.92 
L 440.145 169.92 
L 440.8425 169.92 
L 441.54 169.92 
L 442.2375 169.92 
L 442.935 169.92 
L 443.6325 169.92 
L 444.33 169.92 
L 445.0275 169.92 
L 445.725 169.92 
L 446.4225 169.92 
L 447.12 169.92 
L 447.8175 169.92 
L 448.515 169.92 
L 449.2125 169.92 
L 449.91 169.92 
L 450.6075 169.92 
L 451.305 169.92 
L 452.0025 169.92 
L 452.7 169.92 
L 453.3975 169.92 
L 454.095 169.92 
L 454.7925 169.92 
L 455.49 169.92 
L 456.1875 169.92 
L 456.885 169.92 
L 457.5825 169.92 
L 458.28 169.92 
L 458.9775 169.92 
L 459.675 169.92 
L 460.3725 169.92 
L 461.07 169.92 
L 461.7675 169.92 
L 462.465 169.92 
L 463.1625 169.92 
L 463.86 169.92 
L 464.5575 169.92 
L 465.255 169.92 
L 465.9525 169.92 
L 466.65 169.92 
L 467.3475 169.92 
L 468.045 169.92 
L 468.7425 169.92 
L 469.44 169.92 
L 470.1375 169.92 
L 470.835 169.92 
L 471.5325 169.92 
L 472.23 169.92 
L 472.9275 169.92 
L 473.625 169.92 
L 474.3225 169.92 
L 475.02 169.92 
L 475.7175 169.92 
L 476.415 169.92 
L 477.1125 169.92 
L 477.81 169.92 
L 478.5075 169.92 
L 479.205 169.92 
L 479.9025 169.92 
L 480.6 169.92 
L 481.2975 169.92 
L 481.995 169.92 
L 482.6925 169.92 
L 483.39 169.92 
L 484.0875 169.92 
L 484.785 169.92 
L 485.4825 169.92 
L 486.18 169.92 
L 486.8775 169.92 
L 487.575 169.92 
L 488.2725 169.92 
L 488.97 169.92 
L 489.6675 169.92 
L 490.365 169.92 
L 491.0625 169.92 
L 491.76 169.92 
L 492.4575 169.92 
L 493.155 169.92 
L 493.8525 169.92 
L 494.55 169.92 
L 495.2475 169.92 
L 495.945 169.92 
L 496.6425 169.92 
L 497.34 169.92 
L 498.0375 169.92 
L 498.735 169.92 
L 499.4325 169.92 
L 500.13 169.92 
L 500.8275 169.92 
L 501.525 169.92 
L 502.2225 169.92 
L 502.92 169.92 
L 503.6175 169.92 
L 504.315 169.92 
L 505.0125 169.92 
L 505.71 169.92 
L 506.4075 169.92 
L 507.105 169.92 
L 507.8025 169.92 
L 508.5 169.92 
L 509.1975 169.92 
L 509.895 169.92 
L 510.5925 169.92 
L 511.29 169.92 
L 511.9875 169.92 
L 512.685 169.92 
L 513.3825 169.92 
L 514.08 169.92 
L 514.7775 169.92 
L 515.475 169.92 
L 516.1725 169.92 
L 516.87 169.92 
L 517.5675 169.92 
L 518.265 169.92 
L 518.9625 169.92 
L 519.66 169.92 
L 520.3575 169.92 
L 521.055 169.92 
L 521.7525 169.92 
L 522.45 169.92 
L 523.1475 169.92 
L 523.845 169.92 
L 524.5425 169.92 
L 525.24 169.92 
L 525.9375 169.92 
L 526.635 169.92 
L 527.3325 169.92 
L 528.03 169.92 
L 528.7275 169.92 
L 529.425 169.92 
L 530.1225 169.92 
L 530.82 169.92 
L 531.5175 169.92 
L 532.215 169.92 
L 532.9125 169.92 
L 533.61 169.92 
L 534.3075 169.92 
L 535.005 169.92 
L 535.7025 169.92 
L 536.4 169.92 
L 537.0975 169.92 
L 537.795 169.92 
L 538.4925 169.92 
L 539.19 169.92 
L 539.8875 169.92 
L 540.585 169.92 
L 541.2825 169.92 
L 541.98 169.92 
L 542.6775 169.92 
L 543.375 169.92 
L 544.0725 169.92 
L 544.77 169.92 
L 545.4675 169.92 
L 546.165 169.92 
L 546.8625 169.92 
L 547.56 169.92 
L 548.2575 169.92 
L 548.955 169.92 
L 549.6525 169.92 
L 550.35 169.92 
L 551.0475 169.92 
L 551.745 169.92 
L 552.4425 169.92 
L 553.14 169.92 
L 553.8375 169.92 
L 554.535 169.92 
L 555.2325 169.92 
L 555.93 169.92 
L 556.6275 169.92 
L 557.325 169.92 
L 558.0225 169.92 
L 558.72 169.92 
L 559.4175 169.92 
L 560.115 169.92 
L 560.8125 169.92 
L 561.51 169.92 
L 562.2075 169.92 
L 562.905 169.92 
L 563.6025 169.92 
L 564.3 169.92 
L 564.9975 169.92 
L 565.695 169.92 
L 566.3925 169.92 
L 567.09 169.92 
L 567.7875 169.92 
L 568.485 169.92 
L 569.1825 169.92 
L 569.88 169.92 
L 570.5775 169.92 
L 571.275 169.92 
L 571.9725 169.92 
L 572.67 169.92 
L 573.3675 169.92 
L 574.065 169.92 
L 574.7625 169.92 
L 575.46 169.92 
L 576.1575 169.92 
L 576.855 169.92 
L 577.5525 169.92 
L 578.25 169.92 
L 578.9475 169.92 
L 579.645 169.92 
L 580.3425 169.92 
L 581.04 169.92 
L 581.7375 169.92 
L 582.435 169.92 
L 583.1325 169.92 
L 583.83 169.92 
L 584.5275 169.92 
L 585.225 169.92 
L 585.9225 169.92 
L 586.62 169.92 
L 587.3175 169.92 
L 588.015 169.92 
L 588.7125 169.92 
L 589.41 169.92 
L 590.1075 169.92 
L 590.805 169.92 
L 591.5025 169.92 
L 592.2 169.92 
L 592.8975 169.92 
L 593.595 169.92 
L 594.2925 169.92 
L 594.99 169.92 
L 595.6875 169.92 
L 596.385 169.92 
L 597.0825 169.92 
L 597.78 169.92 
L 598.4775 169.92 
L 599.175 169.92 
L 599.8725 169.92 
L 600.57 169.92 
L 601.2675 169.92 
L 601.965 169.92 
L 602.6625 169.92 
L 603.36 169.92 
L 604.0575 169.92 
L 604.755 169.92 
L 605.4525 169.92 
L 606.15 169.92 
L 606.8475 169.92 
L 607.545 169.92 
L 608.2425 169.92 
L 608.94 169.92 
L 609.6375 169.92 
L 610.335 169.92 
L 611.0325 169.92 
L 611.73 169.92 
L 612.4275 169.92 
L 613.125 169.92 
L 613.8225 169.92 
L 614.52 169.92 
L 615.2175 169.92 
L 615.915 169.92 
L 616.6125 169.92 
L 617.31 169.92 
L 618.0075 169.92 
L 618.705 169.92 
L 619.4025 169.92 
L 620.1 169.92 
L 620.7975 169.92 
L 621.495 169.92 
L 622.1925 169.92 
L 622.89 169.92 
L 623.5875 169.92 
L 624.285 169.92 
L 624.9825 169.92 
L 625.68 169.92 
L 626.3775 169.92 
L 627.075 169.92 
L 627.7725 169.92 
L 628.47 169.92 
L 629.1675 169.92 
L 629.865 169.92 
L 630.5625 169.92 
L 631.26 169.92 
L 631.9575 169.92 
L 632.655 169.92 
L 633.3525 169.92 
L 634.05 169.92 
L 634.7475 169.92 
L 635.445 169.92 
L 636.1425 169.92 
L 636.84 169.92 
L 637.5375 169.92 
L 638.235 169.92 
L 638.9325 169.92 
L 639.63 169.92 
L 640.3275 169.92 
L 641.025 169.92 
L 641.7225 169.92 
L 642.42 169.92 
L 643.1175 169.92 
L 643.815 169.92 
L 644.5125 169.92 
L 645.21 169.92 
L 645.9075 169.92 
L 646.605 169.92 
L 646.605 169.92 
L 646.605 169.92 
L 645.9075 169.995499 
L 645.21 170.195419 
L 644.5125 170.448916 
L 643.815 170.759644 
L 643.1175 171.138576 
L 642.42 171.545079 
L 641.7225 171.963171 
L 641.025 172.443765 
L 640.3275 172.944328 
L 639.63 173.447122 
L 638.9325 173.984698 
L 638.235 174.496684 
L 637.5375 175.007071 
L 636.84 175.489548 
L 636.1425 175.943491 
L 635.445 176.360422 
L 634.7475 176.724165 
L 634.05 177.011146 
L 633.3525 177.207618 
L 632.655 177.360242 
L 631.9575 177.432613 
L 631.26 177.440157 
L 630.5625 177.391122 
L 629.865 177.294811 
L 629.1675 177.102693 
L 628.47 176.860298 
L 627.7725 176.563766 
L 627.075 176.243802 
L 626.3775 175.85605 
L 625.68 175.441307 
L 624.9825 174.990544 
L 624.285 174.495401 
L 623.5875 174.02385 
L 622.89 173.534366 
L 622.1925 173.061257 
L 621.495 172.604972 
L 620.7975 172.157257 
L 620.1 171.701308 
L 619.4025 171.304362 
L 618.705 170.931891 
L 618.0075 170.60763 
L 617.31 170.312468 
L 616.6125 170.04353 
L 615.915 169.847784 
L 615.2175 169.686942 
L 614.52 169.572397 
L 613.8225 169.531454 
L 613.125 169.548102 
L 612.4275 169.605252 
L 611.73 169.710225 
L 611.0325 169.903003 
L 610.335 170.154821 
L 609.6375 170.435807 
L 608.94 170.76588 
L 608.2425 171.122097 
L 607.545 171.481026 
L 606.8475 171.877908 
L 606.15 172.29694 
L 605.4525 172.713517 
L 604.755 173.061138 
L 604.0575 173.408807 
L 603.36 173.682921 
L 602.6625 173.920303 
L 601.965 174.082965 
L 601.2675 174.184645 
L 600.57 174.215055 
L 599.8725 174.16524 
L 599.175 174.052906 
L 598.4775 173.82982 
L 597.78 173.567258 
L 597.0825 173.203015 
L 596.385 172.777449 
L 595.6875 172.281732 
L 594.99 171.725123 
L 594.2925 171.143186 
L 593.595 170.504846 
L 592.8975 169.847193 
L 592.2 169.157345 
L 591.5025 168.423021 
L 590.805 167.70827 
L 590.1075 167.018054 
L 589.41 166.348487 
L 588.7125 165.695299 
L 588.015 165.104246 
L 587.3175 164.594756 
L 586.62 164.142792 
L 585.9225 163.756795 
L 585.225 163.418808 
L 584.5275 163.151923 
L 583.83 162.977902 
L 583.1325 162.916774 
L 582.435 162.96129 
L 581.7375 163.093843 
L 581.04 163.311956 
L 580.3425 163.611555 
L 579.645 163.961878 
L 578.9475 164.381548 
L 578.25 164.837558 
L 577.5525 165.321392 
L 576.855 165.865957 
L 576.1575 166.410746 
L 575.46 167.004307 
L 574.7625 167.560053 
L 574.065 168.08438 
L 573.3675 168.584274 
L 572.67 169.025229 
L 571.9725 169.457731 
L 571.275 169.831758 
L 570.5775 170.131934 
L 569.88 170.344264 
L 569.1825 170.506725 
L 568.485 170.565951 
L 567.7875 170.520834 
L 567.09 170.422551 
L 566.3925 170.239382 
L 565.695 169.974748 
L 564.9975 169.650371 
L 564.3 169.297474 
L 563.6025 168.889096 
L 562.905 168.416086 
L 562.2075 167.937612 
L 561.51 167.429056 
L 560.8125 166.916696 
L 560.115 166.418489 
L 559.4175 165.935354 
L 558.72 165.493092 
L 558.0225 165.066409 
L 557.325 164.705219 
L 556.6275 164.365935 
L 555.93 164.105228 
L 555.2325 163.877635 
L 554.535 163.720962 
L 553.8375 163.646524 
L 553.14 163.622157 
L 552.4425 163.707037 
L 551.745 163.832468 
L 551.0475 164.054829 
L 550.35 164.328023 
L 549.6525 164.697279 
L 548.955 165.113757 
L 548.2575 165.552899 
L 547.56 166.048447 
L 546.8625 166.591144 
L 546.165 167.162465 
L 545.4675 167.734961 
L 544.77 168.314716 
L 544.0725 168.882511 
L 543.375 169.43613 
L 542.6775 169.956844 
L 541.98 170.476869 
L 541.2825 170.927772 
L 540.585 171.334684 
L 539.8875 171.690005 
L 539.19 171.97871 
L 538.4925 172.22896 
L 537.795 172.419305 
L 537.0975 172.554577 
L 536.4 172.63225 
L 535.7025 172.659261 
L 535.005 172.60994 
L 534.3075 172.527151 
L 533.61 172.362109 
L 532.9125 172.16823 
L 532.215 171.90719 
L 531.5175 171.625809 
L 530.82 171.320954 
L 530.1225 170.989932 
L 529.425 170.672479 
L 528.7275 170.324194 
L 528.03 169.985136 
L 527.3325 169.653251 
L 526.635 169.326348 
L 525.9375 169.002144 
L 525.24 168.703475 
L 524.5425 168.427528 
L 523.845 168.187847 
L 523.1475 167.997299 
L 522.45 167.825886 
L 521.7525 167.693589 
L 521.055 167.586102 
L 520.3575 167.522208 
L 519.66 167.511491 
L 518.9625 167.545762 
L 518.265 167.615992 
L 517.5675 167.754424 
L 516.87 167.941695 
L 516.1725 168.15753 
L 515.475 168.431452 
L 514.7775 168.749955 
L 514.08 169.107091 
L 513.3825 169.496189 
L 512.685 169.893203 
L 511.9875 170.282329 
L 511.29 170.664687 
L 510.5925 171.049912 
L 509.895 171.447588 
L 509.1975 171.825118 
L 508.5 172.200619 
L 507.8025 172.525131 
L 507.105 172.851316 
L 506.4075 173.139525 
L 505.71 173.392763 
L 505.0125 173.581135 
L 504.315 173.734676 
L 503.6175 173.850519 
L 502.92 173.901333 
L 502.2225 173.936503 
L 501.525 173.913427 
L 500.8275 173.849313 
L 500.13 173.720194 
L 499.4325 173.536869 
L 498.735 173.32793 
L 498.0375 173.08889 
L 497.34 172.824214 
L 496.6425 172.530457 
L 495.945 172.229884 
L 495.2475 171.928109 
L 494.55 171.647546 
L 493.8525 171.343104 
L 493.155 171.062412 
L 492.4575 170.760382 
L 491.76 170.492987 
L 491.0625 170.240056 
L 490.365 170.006313 
L 489.6675 169.787735 
L 488.97 169.605182 
L 488.2725 169.445288 
L 487.575 169.319427 
L 486.8775 169.263505 
L 486.18 169.26179 
L 485.4825 169.297535 
L 484.785 169.370074 
L 484.0875 169.503217 
L 483.39 169.6777 
L 482.6925 169.873487 
L 481.995 170.08692 
L 481.2975 170.33079 
L 480.6 170.583765 
L 479.9025 170.849507 
L 479.205 171.114665 
L 478.5075 171.391064 
L 477.81 171.648373 
L 477.1125 171.898565 
L 476.415 172.120189 
L 475.7175 172.342659 
L 475.02 172.519878 
L 474.3225 172.656922 
L 473.625 172.751234 
L 472.9275 172.792661 
L 472.23 172.78043 
L 471.5325 172.714771 
L 470.835 172.638852 
L 470.1375 172.512148 
L 469.44 172.345416 
L 468.7425 172.158545 
L 468.045 171.946639 
L 467.3475 171.696878 
L 466.65 171.430705 
L 465.9525 171.169868 
L 465.255 170.919241 
L 464.5575 170.658338 
L 463.86 170.392032 
L 463.1625 170.150465 
L 462.465 169.904593 
L 461.7675 169.71773 
L 461.07 169.534645 
L 460.3725 169.367146 
L 459.675 169.218363 
L 458.9775 169.082686 
L 458.28 168.945872 
L 457.5825 168.860807 
L 456.885 168.812305 
L 456.1875 168.776105 
L 455.49 168.76127 
L 454.7925 168.810024 
L 454.095 168.87951 
L 453.3975 168.985209 
L 452.7 169.125146 
L 452.0025 169.305097 
L 451.305 169.51331 
L 450.6075 169.745898 
L 449.91 170.006903 
L 449.2125 170.283064 
L 448.515 170.577608 
L 447.8175 170.876647 
L 447.12 171.157818 
L 446.4225 171.432644 
L 445.725 171.704383 
L 445.0275 171.959569 
L 444.33 172.218603 
L 443.6325 172.44309 
L 442.935 172.628838 
L 442.2375 172.763988 
L 441.54 172.879571 
L 440.8425 172.948261 
L 440.145 172.993943 
L 439.4475 172.990596 
L 438.75 172.971838 
L 438.0525 172.896075 
L 437.355 172.781501 
L 436.6575 172.630255 
L 435.96 172.428384 
L 435.2625 172.196438 
L 434.565 171.930359 
L 433.8675 171.643507 
L 433.17 171.324462 
L 432.4725 170.995961 
L 431.775 170.647362 
L 431.0775 170.285178 
L 430.38 169.916172 
L 429.6825 169.555626 
L 428.985 169.201886 
L 428.2875 168.86156 
L 427.59 168.532615 
L 426.8925 168.229585 
L 426.195 167.966519 
L 425.4975 167.739941 
L 424.8 167.554084 
L 424.1025 167.420808 
L 423.405 167.325825 
L 422.7075 167.304465 
L 422.01 167.315182 
L 421.3125 167.374553 
L 420.615 167.48147 
L 419.9175 167.625548 
L 419.22 167.804094 
L 418.5225 168.013773 
L 417.825 168.267448 
L 417.1275 168.543601 
L 416.43 168.845463 
L 415.7325 169.159008 
L 415.035 169.461601 
L 414.3375 169.781145 
L 413.64 170.103283 
L 412.9425 170.40522 
L 412.245 170.714871 
L 411.5475 171.001285 
L 410.85 171.242337 
L 410.1525 171.4503 
L 409.455 171.621291 
L 408.7575 171.752114 
L 408.06 171.831939 
L 407.3625 171.850884 
L 406.665 171.833763 
L 405.9675 171.738951 
L 405.27 171.593387 
L 404.5725 171.38301 
L 403.875 171.136917 
L 403.1775 170.851317 
L 402.48 170.514765 
L 401.7825 170.158715 
L 401.085 169.756263 
L 400.3875 169.331702 
L 399.69 168.901353 
L 398.9925 168.448087 
L 398.295 167.988759 
L 397.5975 167.557116 
L 396.9 167.144442 
L 396.2025 166.766835 
L 395.505 166.41457 
L 394.8075 166.102615 
L 394.11 165.836798 
L 393.4125 165.588529 
L 392.715 165.396 
L 392.0175 165.262808 
L 391.32 165.174662 
L 390.6225 165.166764 
L 389.925 165.18893 
L 389.2275 165.265911 
L 388.53 165.421435 
L 387.8325 165.627433 
L 387.135 165.880055 
L 386.4375 166.199749 
L 385.74 166.546989 
L 385.0425 166.915289 
L 384.345 167.314547 
L 383.6475 167.737305 
L 382.95 168.15889 
L 382.2525 168.563037 
L 381.555 168.950587 
L 380.8575 169.322689 
L 380.16 169.664004 
L 379.4625 169.968157 
L 378.765 170.221078 
L 378.0675 170.409654 
L 377.37 170.555529 
L 376.6725 170.630811 
L 375.975 170.650872 
L 375.2775 170.623727 
L 374.58 170.533104 
L 373.8825 170.389086 
L 373.185 170.185973 
L 372.4875 169.935948 
L 371.79 169.643681 
L 371.0925 169.306243 
L 370.395 168.929937 
L 369.6975 168.521791 
L 369 168.114596 
L 368.3025 167.674013 
L 367.605 167.258605 
L 366.9075 166.842576 
L 366.21 166.433696 
L 365.5125 166.047993 
L 364.815 165.69267 
L 364.1175 165.357587 
L 363.42 165.06578 
L 362.7225 164.822701 
L 362.025 164.632888 
L 361.3275 164.499889 
L 360.63 164.442964 
L 359.9325 164.43801 
L 359.235 164.49351 
L 358.5375 164.616814 
L 357.84 164.772066 
L 357.1425 164.989919 
L 356.445 165.241138 
L 355.7475 165.537809 
L 355.05 165.866002 
L 354.3525 166.202808 
L 353.655 166.558713 
L 352.9575 166.918682 
L 352.26 167.292768 
L 351.5625 167.682373 
L 350.865 168.055052 
L 350.1675 168.412233 
L 349.47 168.747245 
L 348.7725 169.05383 
L 348.075 169.33465 
L 347.3775 169.58446 
L 346.68 169.806982 
L 345.9825 169.989672 
L 345.285 170.120727 
L 344.5875 170.20609 
L 343.89 170.252553 
L 343.1925 170.242472 
L 342.495 170.184424 
L 341.7975 170.079493 
L 341.1 169.92125 
L 340.4025 169.729429 
L 339.705 169.507613 
L 339.0075 169.251555 
L 338.31 168.974428 
L 337.6125 168.67302 
L 336.915 168.369737 
L 336.2175 168.070245 
L 335.52 167.76336 
L 334.8225 167.454814 
L 334.125 167.150372 
L 333.4275 166.864107 
L 332.73 166.592979 
L 332.0325 166.333663 
L 331.335 166.10778 
L 330.6375 165.911161 
L 329.94 165.7307 
L 329.2425 165.586547 
L 328.545 165.50656 
L 327.8475 165.450288 
L 327.15 165.452339 
L 326.4525 165.495897 
L 325.755 165.571759 
L 325.0575 165.686896 
L 324.36 165.839159 
L 323.6625 166.025703 
L 322.965 166.243044 
L 322.2675 166.487122 
L 321.57 166.761767 
L 320.8725 167.070237 
L 320.175 167.389993 
L 319.4775 167.723452 
L 318.78 168.064385 
L 318.0825 168.398034 
L 317.385 168.726556 
L 316.6875 169.052205 
L 315.99 169.360507 
L 315.2925 169.654094 
L 314.595 169.927482 
L 313.8975 170.19234 
L 313.2 170.418557 
L 312.5025 170.593518 
L 311.805 170.713954 
L 311.1075 170.777616 
L 310.41 170.791704 
L 309.7125 170.764344 
L 309.015 170.687657 
L 308.3175 170.571465 
L 307.62 170.40116 
L 306.9225 170.196702 
L 306.225 169.95352 
L 305.5275 169.701324 
L 304.83 169.444823 
L 304.1325 169.172031 
L 303.435 168.896434 
L 302.7375 168.631566 
L 302.04 168.365598 
L 301.3425 168.111887 
L 300.645 167.875172 
L 299.9475 167.659874 
L 299.25 167.470015 
L 298.5525 167.309142 
L 297.855 167.180258 
L 297.1575 167.102549 
L 296.46 167.069078 
L 295.7625 167.080469 
L 295.065 167.128122 
L 294.3675 167.219535 
L 293.67 167.353001 
L 292.9725 167.526026 
L 292.275 167.743768 
L 291.5775 167.985381 
L 290.88 168.263131 
L 290.1825 168.555051 
L 289.485 168.872467 
L 288.7875 169.201061 
L 288.09 169.534695 
L 287.3925 169.875526 
L 286.695 170.208799 
L 285.9975 170.536677 
L 285.3 170.836259 
L 284.6025 171.127116 
L 283.905 171.395425 
L 283.2075 171.636174 
L 282.51 171.844868 
L 281.8125 172.017608 
L 281.115 172.151167 
L 280.4175 172.243051 
L 279.72 172.299931 
L 279.0225 172.312358 
L 278.325 172.280098 
L 277.6275 172.212143 
L 276.93 172.109763 
L 276.2325 171.966481 
L 275.535 171.793362 
L 274.8375 171.593639 
L 274.14 171.379433 
L 273.4425 171.146354 
L 272.745 170.89037 
L 272.0475 170.633037 
L 271.35 170.362386 
L 270.6525 170.09186 
L 269.955 169.826513 
L 269.2575 169.562912 
L 268.56 169.322759 
L 267.8625 169.110539 
L 267.165 168.938605 
L 266.4675 168.79339 
L 265.77 168.685998 
L 265.0725 168.618432 
L 264.375 168.583567 
L 263.6775 168.598831 
L 262.98 168.647161 
L 262.2825 168.719267 
L 261.585 168.830578 
L 260.8875 168.970627 
L 260.19 169.145187 
L 259.4925 169.350996 
L 258.795 169.584212 
L 258.0975 169.840477 
L 257.4 170.115006 
L 256.7025 170.402669 
L 256.005 170.698094 
L 255.3075 171.004151 
L 254.61 171.298347 
L 253.9125 171.583575 
L 253.215 171.846118 
L 252.5175 172.08946 
L 251.82 172.300669 
L 251.1225 172.475799 
L 250.425 172.619967 
L 249.7275 172.73048 
L 249.03 172.805275 
L 248.3325 172.842954 
L 247.635 172.842814 
L 246.9375 172.804856 
L 246.24 172.713013 
L 245.5425 172.585777 
L 244.845 172.417137 
L 244.1475 172.22702 
L 243.45 172.002199 
L 242.7525 171.755263 
L 242.055 171.482435 
L 241.3575 171.180423 
L 240.66 170.871646 
L 239.9625 170.553481 
L 239.265 170.231873 
L 238.5675 169.904439 
L 237.87 169.577296 
L 237.1725 169.264943 
L 236.475 168.973214 
L 235.7775 168.69917 
L 235.08 168.456319 
L 234.3825 168.249196 
L 233.685 168.08167 
L 232.9875 167.948482 
L 232.29 167.85212 
L 231.5925 167.81116 
L 230.895 167.81798 
L 230.1975 167.864063 
L 229.5 167.956937 
L 228.8025 168.078089 
L 228.105 168.242036 
L 227.4075 168.437324 
L 226.71 168.660307 
L 226.0125 168.915208 
L 225.315 169.188878 
L 224.6175 169.476203 
L 223.92 169.771819 
L 223.2225 170.070202 
L 222.525 170.36578 
L 221.8275 170.653031 
L 221.13 170.92659 
L 220.4325 171.172958 
L 219.735 171.395923 
L 219.0375 171.582931 
L 218.34 171.738877 
L 217.6425 171.860848 
L 216.945 171.946568 
L 216.2475 171.994433 
L 215.55 172.00355 
L 214.8525 171.97375 
L 214.155 171.905588 
L 213.4575 171.808726 
L 212.76 171.676585 
L 212.0625 171.511634 
L 211.365 171.325341 
L 210.6675 171.112799 
L 209.97 170.877976 
L 209.2725 170.62526 
L 208.575 170.35937 
L 207.8775 170.085274 
L 207.18 169.80809 
L 206.4825 169.532997 
L 205.785 169.265132 
L 205.0875 169.0095 
L 204.39 168.770874 
L 203.6925 168.553713 
L 202.995 168.362072 
L 202.2975 168.216309 
L 201.6 168.102369 
L 200.9025 168.02238 
L 200.205 167.977836 
L 199.5075 167.969569 
L 198.81 167.997734 
L 198.1125 168.070193 
L 197.415 168.177204 
L 196.7175 168.316769 
L 196.02 168.48628 
L 195.3225 168.682571 
L 194.625 168.901975 
L 193.9275 169.140395 
L 193.23 169.393377 
L 192.5325 169.656196 
L 191.835 169.923942 
L 191.1375 170.191615 
L 190.44 170.454214 
L 189.7425 170.706835 
L 189.045 170.944758 
L 188.3475 171.163541 
L 187.65 171.359095 
L 186.9525 171.527769 
L 186.255 171.666412 
L 185.5575 171.772435 
L 184.86 171.843856 
L 184.1625 171.879341 
L 183.465 171.878229 
L 182.7675 171.84054 
L 182.07 171.766977 
L 181.3725 171.658915 
L 180.675 171.518372 
L 179.9775 171.347974 
L 179.28 171.150903 
L 178.5825 170.93084 
L 177.885 170.691896 
L 177.1875 170.438533 
L 176.49 170.175486 
L 175.7925 169.907666 
L 175.095 169.640076 
L 174.3975 169.377716 
L 173.7 169.125484 
L 173.0025 168.888093 
L 172.305 168.669976 
L 171.6075 168.475209 
L 170.91 168.307428 
L 170.2125 168.169769 
L 169.515 168.064801 
L 168.8175 167.994486 
L 168.12 167.960138 
L 167.4225 167.954008 
L 166.725 167.984601 
L 166.0275 168.051344 
L 165.33 168.152992 
L 164.6325 168.287645 
L 163.935 168.452789 
L 163.2375 168.645338 
L 162.54 168.861696 
L 161.8425 169.089434 
L 161.145 169.332685 
L 160.4475 169.586906 
L 159.75 169.84735 
L 159.0525 170.10915 
L 158.355 170.367417 
L 157.6575 170.617328 
L 156.96 170.854212 
L 156.2625 171.073647 
L 155.565 171.271534 
L 154.8675 171.444175 
L 154.17 171.588347 
L 153.4725 171.701356 
L 152.775 171.781091 
L 152.0775 171.817675 
L 151.38 171.818813 
L 150.6825 171.776094 
L 149.985 171.698706 
L 149.2875 171.588094 
L 148.59 171.446324 
L 147.8925 171.276044 
L 147.195 171.080435 
L 146.4975 170.863151 
L 145.8 170.628249 
L 145.1025 170.380119 
L 144.405 170.123394 
L 143.7075 169.862869 
L 143.01 169.603412 
L 142.3125 169.349869 
L 141.615 169.106974 
L 140.9175 168.879267 
L 140.22 168.670998 
L 139.5225 168.477671 
L 138.825 168.311284 
L 138.1275 168.174947 
L 137.43 168.079593 
L 136.7325 168.018617 
L 136.035 167.993155 
L 135.3375 168.003685 
L 134.64 168.050009 
L 133.9425 168.139651 
L 133.245 168.262547 
L 132.5475 168.416403 
L 131.85 168.598344 
L 131.1525 168.804972 
L 130.455 169.032427 
L 129.7575 169.276461 
L 129.06 169.532516 
L 128.3625 169.795808 
L 127.665 170.06142 
L 126.9675 170.32439 
L 126.27 170.579807 
L 125.5725 170.8229 
L 124.875 171.049127 
L 124.1775 171.254264 
L 123.48 171.434479 
L 122.7825 171.586404 
L 122.085 171.707204 
L 121.3875 171.794621 
L 120.69 171.847022 
L 119.9925 171.863429 
L 119.295 171.843535 
L 118.5975 171.787712 
L 117.9 171.697002 
L 117.2025 171.5731 
L 116.505 171.41832 
L 115.8075 171.235554 
L 115.11 171.028214 
L 114.4125 170.800175 
L 113.715 170.555695 
L 113.0175 170.299341 
L 112.32 170.035901 
L 111.6225 169.770297 
L 110.925 169.507488 
L 110.2275 169.252385 
L 109.53 169.009752 
L 108.8325 168.784122 
L 108.135 168.579708 
L 107.4375 168.400329 
L 106.74 168.249336 
L 106.0425 168.129549 
L 105.345 168.043205 
L 104.6475 167.991917 
L 103.95 167.976644 
L 103.2525 167.997669 
L 102.555 168.054602 
L 101.8575 168.146378 
L 101.16 168.271283 
L 100.4625 168.426984 
L 99.765 168.610573 
L 99.0675 168.81862 
L 98.37 169.047239 
L 97.6725 169.292161 
L 96.975 169.54881 
L 96.2775 169.812392 
L 95.58 170.077984 
L 94.8825 170.349014 
L 94.185 170.612031 
L 93.4875 170.862121 
L 92.79 171.094614 
L 92.0925 171.305166 
L 91.395 171.489845 
L 90.6975 171.645202 
L 90 171.768334 
z
" style="fill:#e0ffff;"/>
   </g>
   <g id="line2d_15">
    <path clip-path="url(#pb9df77fa91)" d="M 90 171.768334 
L 92.0925 171.305166 
L 94.8825 170.349014 
L 99.0675 168.81862 
L 101.16 168.271283 
L 103.2525 167.997669 
L 105.345 168.043205 
L 107.4375 168.400329 
L 109.53 169.009752 
L 117.2025 171.5731 
L 119.295 171.843535 
L 121.3875 171.794621 
L 123.48 171.434479 
L 125.5725 170.8229 
L 133.245 168.262547 
L 135.3375 168.003685 
L 137.43 168.079593 
L 139.5225 168.477671 
L 142.3125 169.349869 
L 147.8925 171.276044 
L 149.985 171.698706 
L 151.38 171.818813 
L 152.775 171.781091 
L 154.8675 171.444175 
L 156.96 170.854212 
L 164.6325 168.287645 
L 166.725 167.984601 
L 168.8175 167.994486 
L 170.91 168.307428 
L 173.0025 168.888093 
L 176.49 170.175486 
L 179.28 171.150903 
L 181.3725 171.658915 
L 183.465 171.878229 
L 185.5575 171.772435 
L 187.65 171.359095 
L 189.7425 170.706835 
L 196.02 168.48628 
L 198.1125 168.070193 
L 199.5075 167.969569 
L 201.6 168.102369 
L 203.6925 168.553713 
L 206.4825 169.532997 
L 210.6675 171.112799 
L 212.76 171.676585 
L 214.8525 171.97375 
L 216.2475 171.994433 
L 217.6425 171.860848 
L 219.735 171.395923 
L 221.8275 170.653031 
L 227.4075 168.437324 
L 229.5 167.956937 
L 230.895 167.81798 
L 232.29 167.85212 
L 234.3825 168.249196 
L 236.475 168.973214 
L 239.265 170.231873 
L 242.7525 171.755263 
L 244.845 172.417137 
L 246.24 172.713013 
L 247.635 172.842814 
L 249.03 172.805275 
L 251.1225 172.475799 
L 253.215 171.846118 
L 256.005 170.698094 
L 258.795 169.584212 
L 260.8875 168.970627 
L 262.98 168.647161 
L 264.375 168.583567 
L 266.4675 168.79339 
L 268.56 169.322759 
L 272.0475 170.633037 
L 274.8375 171.593639 
L 276.93 172.109763 
L 279.0225 172.312358 
L 280.4175 172.243051 
L 281.8125 172.017608 
L 283.905 171.395425 
L 286.695 170.208799 
L 291.5775 167.985381 
L 293.67 167.353001 
L 295.065 167.128122 
L 296.46 167.069078 
L 297.855 167.180258 
L 299.9475 167.659874 
L 302.7375 168.631566 
L 307.62 170.40116 
L 309.015 170.687657 
L 310.41 170.791704 
L 311.805 170.713954 
L 313.2 170.418557 
L 315.2925 169.654094 
L 318.0825 168.398034 
L 322.2675 166.487122 
L 324.36 165.839159 
L 326.4525 165.495897 
L 327.8475 165.450288 
L 329.2425 165.586547 
L 331.335 166.10778 
L 333.4275 166.864107 
L 341.1 169.92125 
L 342.495 170.184424 
L 343.89 170.252553 
L 345.285 170.120727 
L 346.68 169.806982 
L 348.7725 169.05383 
L 350.865 168.055052 
L 355.7475 165.537809 
L 357.1425 164.989919 
L 358.5375 164.616814 
L 359.9325 164.43801 
L 361.3275 164.499889 
L 362.7225 164.822701 
L 364.1175 165.357587 
L 366.21 166.433696 
L 371.79 169.643681 
L 373.185 170.185973 
L 374.58 170.533104 
L 375.975 170.650872 
L 377.37 170.555529 
L 378.765 170.221078 
L 380.16 169.664004 
L 382.2525 168.563037 
L 386.4375 166.199749 
L 387.8325 165.627433 
L 389.2275 165.265911 
L 390.6225 165.166764 
L 392.0175 165.262808 
L 393.4125 165.588529 
L 395.505 166.41457 
L 397.5975 167.557116 
L 402.48 170.514765 
L 403.875 171.136917 
L 405.27 171.593387 
L 406.665 171.833763 
L 408.06 171.831939 
L 409.455 171.621291 
L 411.5475 171.001285 
L 415.035 169.461601 
L 418.5225 168.013773 
L 420.615 167.48147 
L 422.01 167.315182 
L 423.405 167.325825 
L 424.8 167.554084 
L 426.195 167.966519 
L 428.2875 168.86156 
L 435.2625 172.196438 
L 437.355 172.781501 
L 438.75 172.971838 
L 440.8425 172.948261 
L 442.2375 172.763988 
L 443.6325 172.44309 
L 446.4225 171.432644 
L 452.0025 169.305097 
L 454.095 168.87951 
L 456.1875 168.776105 
L 458.28 168.945872 
L 461.7675 169.71773 
L 463.86 170.392032 
L 468.7425 172.158545 
L 470.835 172.638852 
L 472.9275 172.792661 
L 474.3225 172.656922 
L 475.7175 172.342659 
L 479.205 171.114665 
L 482.6925 169.873487 
L 484.785 169.370074 
L 486.8775 169.263505 
L 488.2725 169.445288 
L 490.365 170.006313 
L 492.4575 170.760382 
L 498.0375 173.08889 
L 500.13 173.720194 
L 501.525 173.913427 
L 502.92 173.901333 
L 504.315 173.734676 
L 505.71 173.392763 
L 507.8025 172.525131 
L 509.895 171.447588 
L 514.7775 168.749955 
L 516.1725 168.15753 
L 518.265 167.615992 
L 519.66 167.511491 
L 521.055 167.586102 
L 523.1475 167.997299 
L 524.5425 168.427528 
L 526.635 169.326348 
L 532.9125 172.16823 
L 534.3075 172.527151 
L 535.7025 172.659261 
L 537.0975 172.554577 
L 538.4925 172.22896 
L 539.8875 171.690005 
L 541.2825 170.927772 
L 542.6775 169.956844 
L 544.77 168.314716 
L 548.2575 165.552899 
L 550.35 164.328023 
L 551.745 163.832468 
L 553.14 163.622157 
L 554.535 163.720962 
L 555.93 164.105228 
L 557.325 164.705219 
L 558.72 165.493092 
L 560.8125 166.916696 
L 563.6025 168.889096 
L 564.9975 169.650371 
L 566.3925 170.239382 
L 567.7875 170.520834 
L 569.1825 170.506725 
L 570.5775 170.131934 
L 571.9725 169.457731 
L 574.065 168.08438 
L 576.855 165.865957 
L 578.25 164.837558 
L 579.645 163.961878 
L 581.04 163.311956 
L 582.435 162.96129 
L 583.83 162.977902 
L 585.225 163.418808 
L 586.62 164.142792 
L 588.015 165.104246 
L 590.1075 167.018054 
L 594.99 171.725123 
L 596.385 172.777449 
L 597.78 173.567258 
L 599.175 174.052906 
L 600.57 174.215055 
L 601.965 174.082965 
L 603.36 173.682921 
L 604.755 173.061138 
L 606.15 172.29694 
L 608.2425 171.122097 
L 610.335 170.154821 
L 611.73 169.710225 
L 613.125 169.548102 
L 614.52 169.572397 
L 615.915 169.847784 
L 617.31 170.312468 
L 619.4025 171.304362 
L 621.495 172.604972 
L 627.075 176.243802 
L 629.1675 177.102693 
L 630.5625 177.391122 
L 631.9575 177.432613 
L 633.3525 177.207618 
L 634.7475 176.724165 
L 636.1425 175.943491 
L 638.235 174.496684 
L 642.42 171.545079 
L 644.5125 170.448916 
L 645.9075 169.995499 
L 646.605 169.92 
L 646.605 169.92 
" style="fill:none;stroke:#008080;stroke-linecap:round;stroke-width:1.75;"/>
   </g>
   <g id="patch_3">
    <path d="M 90 270.72 
L 90 69.12 
" style="fill:none;stroke:#262626;stroke-linecap:square;stroke-linejoin:miter;stroke-width:1.25;"/>
   </g>
   <g id="patch_4">
    <path d="M 90 270.72 
L 648 270.72 
" style="fill:none;stroke:#262626;stroke-linecap:square;stroke-linejoin:miter;stroke-width:1.25;"/>
   </g>
  </g>
  <g id="axes_2">
   <g id="patch_5">
    <path d="M 90 512.64 
L 648 512.64 
L 648 311.04 
L 90 311.04 
z
" style="fill:#ffffff;"/>
   </g>
   <g id="matplotlib.axis_3">
    <g id="xtick_10">
     <g id="line2d_16">
      <g>
       <use style="fill:#262626;stroke:#262626;" x="191.454545" xlink:href="#m0859c794a0" y="512.64"/>
      </g>
     </g>
     <g id="text_15">
      <!-- 200 -->
      <g style="fill:#262626;" transform="translate(183.113139 532.797812)scale(0.1 -0.1)">
       <use xlink:href="#ArialMT-32"/>
       <use x="55.615234" xlink:href="#ArialMT-30"/>
       <use x="111.230469" xlink:href="#ArialMT-30"/>
      </g>
     </g>
    </g>
    <g id="xtick_11">
     <g id="line2d_17">
      <g>
       <use style="fill:#262626;stroke:#262626;" x="304.181818" xlink:href="#m0859c794a0" y="512.64"/>
      </g>
     </g>
     <g id="text_16">
      <!-- 400 -->
      <g style="fill:#262626;" transform="translate(295.840412 532.797812)scale(0.1 -0.1)">
       <use xlink:href="#ArialMT-34"/>
       <use x="55.615234" xlink:href="#ArialMT-30"/>
       <use x="111.230469" xlink:href="#ArialMT-30"/>
      </g>
     </g>
    </g>
    <g id="xtick_12">
     <g id="line2d_18">
      <g>
       <use style="fill:#262626;stroke:#262626;" x="416.909091" xlink:href="#m0859c794a0" y="512.64"/>
      </g>
     </g>
     <g id="text_17">
      <!-- 600 -->
      <g style="fill:#262626;" transform="translate(408.567685 532.797812)scale(0.1 -0.1)">
       <use xlink:href="#ArialMT-36"/>
       <use x="55.615234" xlink:href="#ArialMT-30"/>
       <use x="111.230469" xlink:href="#ArialMT-30"/>
      </g>
     </g>
    </g>
    <g id="xtick_13">
     <g id="line2d_19">
      <g>
       <use style="fill:#262626;stroke:#262626;" x="529.636364" xlink:href="#m0859c794a0" y="512.64"/>
      </g>
     </g>
     <g id="text_18">
      <!-- 800 -->
      <g style="fill:#262626;" transform="translate(521.294957 532.797812)scale(0.1 -0.1)">
       <use xlink:href="#ArialMT-38"/>
       <use x="55.615234" xlink:href="#ArialMT-30"/>
       <use x="111.230469" xlink:href="#ArialMT-30"/>
      </g>
     </g>
    </g>
    <g id="xtick_14">
     <g id="line2d_20">
      <g>
       <use style="fill:#262626;stroke:#262626;" x="642.363636" xlink:href="#m0859c794a0" y="512.64"/>
      </g>
     </g>
     <g id="text_19">
      <!-- 1000 -->
      <g style="fill:#262626;" transform="translate(631.241761 532.797812)scale(0.1 -0.1)">
       <use xlink:href="#ArialMT-31"/>
       <use x="55.615234" xlink:href="#ArialMT-30"/>
       <use x="111.230469" xlink:href="#ArialMT-30"/>
       <use x="166.845703" xlink:href="#ArialMT-30"/>
      </g>
     </g>
    </g>
   </g>
   <g id="matplotlib.axis_4">
    <g id="ytick_6">
     <g id="line2d_21">
      <g>
       <use style="fill:#262626;stroke:#262626;" x="90" xlink:href="#m8737888c3b" y="512.64"/>
      </g>
     </g>
     <g id="text_20">
      <!-- 0 -->
      <g style="fill:#262626;" transform="translate(71.439063 516.218906)scale(0.1 -0.1)">
       <use xlink:href="#ArialMT-30"/>
      </g>
     </g>
    </g>
    <g id="ytick_7">
     <g id="line2d_22">
      <g>
       <use style="fill:#262626;stroke:#262626;" x="90" xlink:href="#m8737888c3b" y="490.24"/>
      </g>
     </g>
     <g id="text_21">
      <!-- 2 -->
      <g style="fill:#262626;" transform="translate(71.439063 493.818906)scale(0.1 -0.1)">
       <use xlink:href="#ArialMT-32"/>
      </g>
     </g>
    </g>
    <g id="ytick_8">
     <g id="line2d_23">
      <g>
       <use style="fill:#262626;stroke:#262626;" x="90" xlink:href="#m8737888c3b" y="467.84"/>
      </g>
     </g>
     <g id="text_22">
      <!-- 4 -->
      <g style="fill:#262626;" transform="translate(71.439063 471.418906)scale(0.1 -0.1)">
       <use xlink:href="#ArialMT-34"/>
      </g>
     </g>
    </g>
    <g id="ytick_9">
     <g id="line2d_24">
      <g>
       <use style="fill:#262626;stroke:#262626;" x="90" xlink:href="#m8737888c3b" y="445.44"/>
      </g>
     </g>
     <g id="text_23">
      <!-- 6 -->
      <g style="fill:#262626;" transform="translate(71.439063 449.018906)scale(0.1 -0.1)">
       <use xlink:href="#ArialMT-36"/>
      </g>
     </g>
    </g>
    <g id="ytick_10">
     <g id="line2d_25">
      <g>
       <use style="fill:#262626;stroke:#262626;" x="90" xlink:href="#m8737888c3b" y="423.04"/>
      </g>
     </g>
     <g id="text_24">
      <!-- 8 -->
      <g style="fill:#262626;" transform="translate(71.439063 426.618906)scale(0.1 -0.1)">
       <use xlink:href="#ArialMT-38"/>
      </g>
     </g>
    </g>
    <g id="ytick_11">
     <g id="line2d_26">
      <g>
       <use style="fill:#262626;stroke:#262626;" x="90" xlink:href="#m8737888c3b" y="400.64"/>
      </g>
     </g>
     <g id="text_25">
      <!-- 10 -->
      <g style="fill:#262626;" transform="translate(65.878125 404.218906)scale(0.1 -0.1)">
       <use xlink:href="#ArialMT-31"/>
       <use x="55.615234" xlink:href="#ArialMT-30"/>
      </g>
     </g>
    </g>
    <g id="ytick_12">
     <g id="line2d_27">
      <g>
       <use style="fill:#262626;stroke:#262626;" x="90" xlink:href="#m8737888c3b" y="378.24"/>
      </g>
     </g>
     <g id="text_26">
      <!-- 12 -->
      <g style="fill:#262626;" transform="translate(65.878125 381.818906)scale(0.1 -0.1)">
       <use xlink:href="#ArialMT-31"/>
       <use x="55.615234" xlink:href="#ArialMT-32"/>
      </g>
     </g>
    </g>
    <g id="ytick_13">
     <g id="line2d_28">
      <g>
       <use style="fill:#262626;stroke:#262626;" x="90" xlink:href="#m8737888c3b" y="355.84"/>
      </g>
     </g>
     <g id="text_27">
      <!-- 14 -->
      <g style="fill:#262626;" transform="translate(65.878125 359.418906)scale(0.1 -0.1)">
       <use xlink:href="#ArialMT-31"/>
       <use x="55.615234" xlink:href="#ArialMT-34"/>
      </g>
     </g>
    </g>
    <g id="ytick_14">
     <g id="line2d_29">
      <g>
       <use style="fill:#262626;stroke:#262626;" x="90" xlink:href="#m8737888c3b" y="333.44"/>
      </g>
     </g>
     <g id="text_28">
      <!-- 16 -->
      <g style="fill:#262626;" transform="translate(65.878125 337.018906)scale(0.1 -0.1)">
       <use xlink:href="#ArialMT-31"/>
       <use x="55.615234" xlink:href="#ArialMT-36"/>
      </g>
     </g>
    </g>
    <g id="ytick_15">
     <g id="line2d_30">
      <g>
       <use style="fill:#262626;stroke:#262626;" x="90" xlink:href="#m8737888c3b" y="311.04"/>
      </g>
     </g>
     <g id="text_29">
      <!-- 18 -->
      <g style="fill:#262626;" transform="translate(65.878125 314.618906)scale(0.1 -0.1)">
       <use xlink:href="#ArialMT-31"/>
       <use x="55.615234" xlink:href="#ArialMT-38"/>
      </g>
     </g>
    </g>
   </g>
   <g id="line2d_31">
    <path clip-path="url(#p1a158d1190)" d="M 90 477.654723 
L 95.636364 452.736402 
L 101.272727 431.923589 
L 106.909091 427.92302 
L 112.545455 440.45326 
L 118.181818 444.705349 
L 123.818182 448.961059 
L 129.454545 457.370701 
L 135.090909 456.375715 
L 140.727273 434.868159 
L 146.363636 408.816951 
L 152 389.988216 
L 157.636364 371.492183 
L 163.272727 352.310178 
L 168.909091 342.280664 
L 174.545455 348.647566 
L 180.181818 355.802406 
L 185.818182 363.350788 
L 191.454545 378.270766 
L 197.090909 391.147889 
L 202.727273 394.129256 
L 208.363636 396.550705 
L 214 393.395457 
L 219.636364 389.651786 
L 225.272727 392.702199 
L 230.909091 396.085016 
L 236.545455 399.690878 
L 242.181818 407.737617 
L 247.818182 414.331388 
L 253.454545 417.809913 
L 259.090909 422.903097 
L 264.727273 426.347751 
L 270.363636 429.764905 
L 276 436.797845 
L 281.636364 444.59905 
L 287.272727 452.348689 
L 292.909091 461.235722 
L 298.545455 467.982454 
L 304.181818 471.144774 
L 309.818182 472.257688 
L 315.454545 471.707893 
L 321.090909 472.117482 
L 326.727273 473.818281 
L 332.363636 475.619312 
L 338 478.193498 
L 343.636364 480.655986 
L 349.272727 482.144164 
L 354.909091 483.974362 
L 360.545455 485.825198 
L 366.181818 487.914885 
L 371.818182 490.804554 
L 377.454545 493.872728 
L 383.090909 496.544264 
L 388.727273 498.469641 
L 394.363636 499.417825 
L 400 499.768128 
L 405.636364 498.821458 
L 411.272727 497.224183 
L 416.909091 494.909956 
L 422.545455 492.447818 
L 428.181818 490.656474 
L 433.818182 489.398754 
L 439.454545 488.863228 
L 445.090909 489.4762 
L 450.727273 490.947183 
L 456.363636 492.717187 
L 462 494.86505 
L 467.636364 496.940627 
L 473.272727 498.413462 
L 478.909091 499.664059 
L 484.545455 500.693175 
L 490.181818 501.817475 
L 495.818182 503.208137 
L 501.454545 504.425298 
L 507.090909 503.990365 
L 512.727273 502.20513 
L 518.363636 500.243953 
L 524 498.447191 
L 529.636364 496.98678 
L 535.272727 496.1496 
L 540.909091 495.819663 
L 546.545455 495.772558 
L 552.181818 496.217161 
L 557.818182 497.014608 
L 563.454545 497.862877 
L 569.090909 498.837927 
L 574.727273 499.674541 
L 580.363636 500.11803 
L 586 500.445929 
L 591.636364 500.697585 
L 597.272727 501.137149 
L 602.909091 501.952529 
L 608.545455 502.87429 
L 614.181818 503.677027 
L 619.818182 503.93008 
" style="fill:none;stroke:#b22222;stroke-linecap:round;stroke-width:1.75;"/>
   </g>
   <g id="line2d_32">
    <path clip-path="url(#p1a158d1190)" d="M 152 512.64 
L 152 311.04 
" style="fill:none;stroke:#4c72b0;stroke-linecap:round;stroke-width:1.75;"/>
   </g>
   <g id="patch_6">
    <path d="M 90 512.64 
L 90 311.04 
" style="fill:none;stroke:#262626;stroke-linecap:square;stroke-linejoin:miter;stroke-width:1.25;"/>
   </g>
   <g id="patch_7">
    <path d="M 90 512.64 
L 648 512.64 
" style="fill:none;stroke:#262626;stroke-linecap:square;stroke-linejoin:miter;stroke-width:1.25;"/>
   </g>
   <g id="text_30">
    <!-- f = 960 Hz -->
    <defs>
     <path d="M 8.6875 0 
L 8.6875 45.015625 
L 0.921875 45.015625 
L 0.921875 51.859375 
L 8.6875 51.859375 
L 8.6875 57.375 
Q 8.6875 62.59375 9.625 65.140625 
Q 10.890625 68.5625 14.078125 70.671875 
Q 17.28125 72.796875 23.046875 72.796875 
Q 26.765625 72.796875 31.25 71.921875 
L 29.9375 64.265625 
Q 27.203125 64.75 24.75 64.75 
Q 20.75 64.75 19.09375 63.03125 
Q 17.4375 61.328125 17.4375 56.640625 
L 17.4375 51.859375 
L 27.546875 51.859375 
L 27.546875 45.015625 
L 17.4375 45.015625 
L 17.4375 0 
z
" id="ArialMT-66"/>
     <path id="ArialMT-20"/>
     <path d="M 52.828125 42.09375 
L 5.5625 42.09375 
L 5.5625 50.296875 
L 52.828125 50.296875 
z
M 52.828125 20.359375 
L 5.5625 20.359375 
L 5.5625 28.5625 
L 52.828125 28.5625 
z
" id="ArialMT-3d"/>
     <path d="M 5.46875 16.546875 
L 13.921875 17.328125 
Q 14.984375 11.375 18.015625 8.6875 
Q 21.046875 6 25.78125 6 
Q 29.828125 6 32.875 7.859375 
Q 35.9375 9.71875 37.890625 12.8125 
Q 39.84375 15.921875 41.15625 21.1875 
Q 42.484375 26.46875 42.484375 31.9375 
Q 42.484375 32.515625 42.4375 33.6875 
Q 39.796875 29.5 35.234375 26.875 
Q 30.671875 24.265625 25.34375 24.265625 
Q 16.453125 24.265625 10.296875 30.703125 
Q 4.15625 37.15625 4.15625 47.703125 
Q 4.15625 58.59375 10.578125 65.234375 
Q 17 71.875 26.65625 71.875 
Q 33.640625 71.875 39.421875 68.109375 
Q 45.21875 64.359375 48.21875 57.390625 
Q 51.21875 50.4375 51.21875 37.25 
Q 51.21875 23.53125 48.234375 15.40625 
Q 45.265625 7.28125 39.375 3.03125 
Q 33.5 -1.21875 25.59375 -1.21875 
Q 17.1875 -1.21875 11.859375 3.4375 
Q 6.546875 8.109375 5.46875 16.546875 
z
M 41.453125 48.140625 
Q 41.453125 55.71875 37.421875 60.15625 
Q 33.40625 64.59375 27.734375 64.59375 
Q 21.875 64.59375 17.53125 59.8125 
Q 13.1875 55.03125 13.1875 47.40625 
Q 13.1875 40.578125 17.3125 36.296875 
Q 21.4375 32.03125 27.484375 32.03125 
Q 33.59375 32.03125 37.515625 36.296875 
Q 41.453125 40.578125 41.453125 48.140625 
z
" id="ArialMT-39"/>
     <path d="M 8.015625 0 
L 8.015625 71.578125 
L 17.484375 71.578125 
L 17.484375 42.1875 
L 54.6875 42.1875 
L 54.6875 71.578125 
L 64.15625 71.578125 
L 64.15625 0 
L 54.6875 0 
L 54.6875 33.734375 
L 17.484375 33.734375 
L 17.484375 0 
z
" id="ArialMT-48"/>
     <path d="M 1.953125 0 
L 1.953125 7.125 
L 34.96875 45.015625 
Q 29.34375 44.734375 25.046875 44.734375 
L 3.90625 44.734375 
L 3.90625 51.859375 
L 46.296875 51.859375 
L 46.296875 46.046875 
L 18.21875 13.140625 
L 12.796875 7.125 
Q 18.703125 7.5625 23.875 7.5625 
L 47.859375 7.5625 
L 47.859375 0 
z
" id="ArialMT-7a"/>
    </defs>
    <g style="fill:#262626;" transform="translate(529.636364 403.742188)scale(0.12 -0.12)">
     <use xlink:href="#ArialMT-66"/>
     <use x="27.783203" xlink:href="#ArialMT-20"/>
     <use x="55.566406" xlink:href="#ArialMT-3d"/>
     <use x="113.964844" xlink:href="#ArialMT-20"/>
     <use x="141.748047" xlink:href="#ArialMT-39"/>
     <use x="197.363281" xlink:href="#ArialMT-36"/>
     <use x="252.978516" xlink:href="#ArialMT-30"/>
     <use x="308.59375" xlink:href="#ArialMT-20"/>
     <use x="336.376953" xlink:href="#ArialMT-48"/>
     <use x="408.59375" xlink:href="#ArialMT-7a"/>
    </g>
   </g>
   <g id="PathCollection_1">
    <defs>
     <path d="M 0 3.5 
C 0.928211 3.5 1.81853 3.131218 2.474874 2.474874 
C 3.131218 1.81853 3.5 0.928211 3.5 0 
C 3.5 -0.928211 3.131218 -1.81853 2.474874 -2.474874 
C 1.81853 -3.131218 0.928211 -3.5 0 -3.5 
C -0.928211 -3.5 -1.81853 -3.131218 -2.474874 -2.474874 
C -3.131218 -1.81853 -3.5 -0.928211 -3.5 0 
C -3.5 0.928211 -3.131218 1.81853 -2.474874 2.474874 
C -1.81853 3.131218 -0.928211 3.5 0 3.5 
z
" id="mdfc9a1f14d" style="stroke:#800000;stroke-width:0.3;"/>
    </defs>
    <g clip-path="url(#p1a158d1190)">
     <use style="fill:#800000;stroke:#800000;stroke-width:0.3;" x="619.818182" xlink:href="#mdfc9a1f14d" y="503.93008"/>
    </g>
   </g>
  </g>
 </g>
 <defs>
  <clipPath id="pb9df77fa91">
   <rect height="201.6" width="558" x="90" y="69.12"/>
  </clipPath>
  <clipPath id="p1a158d1190">
   <rect height="201.6" width="558" x="90" y="311.04"/>
  </clipPath>
 </defs>
</svg>
