<?xml version="1.0" encoding="utf-8" standalone="no"?>
<!DOCTYPE svg PUBLIC "-//W3C//DTD SVG 1.1//EN"
  "http://www.w3.org/Graphics/SVG/1.1/DTD/svg11.dtd">
<!-- Created with matplotlib (http://matplotlib.org/) -->
<svg height="576pt" version="1.1" viewBox="0 0 720 576" width="720pt" xmlns="http://www.w3.org/2000/svg" xmlns:xlink="http://www.w3.org/1999/xlink">
 <defs>
  <style type="text/css">
*{stroke-linecap:butt;stroke-linejoin:round;}
  </style>
 </defs>
 <g id="figure_1">
  <g id="patch_1">
   <path d="M 0 576 
L 720 576 
L 720 0 
L 0 0 
z
" style="fill:#ffffff;"/>
  </g>
  <g id="axes_1">
   <g id="patch_2">
    <path d="M 90 270.72 
L 648 270.72 
L 648 69.12 
L 90 69.12 
z
" style="fill:#ffffff;"/>
   </g>
   <g id="matplotlib.axis_1">
    <g id="xtick_1">
     <g id="line2d_1">
      <defs>
       <path d="M 0 0 
L 0 6 
" id="m50e5764bbc" style="stroke:#262626;"/>
      </defs>
      <g>
       <use style="fill:#262626;stroke:#262626;" x="90" xlink:href="#m50e5764bbc" y="270.72"/>
      </g>
     </g>
     <g id="text_1">
      <!-- 0 -->
      <defs>
       <path d="M 4.15625 35.296875 
Q 4.15625 48 6.765625 55.734375 
Q 9.375 63.484375 14.515625 67.671875 
Q 19.671875 71.875 27.484375 71.875 
Q 33.25 71.875 37.59375 69.546875 
Q 41.9375 67.234375 44.765625 62.859375 
Q 47.609375 58.5 49.21875 52.21875 
Q 50.828125 45.953125 50.828125 35.296875 
Q 50.828125 22.703125 48.234375 14.96875 
Q 45.65625 7.234375 40.5 3 
Q 35.359375 -1.21875 27.484375 -1.21875 
Q 17.140625 -1.21875 11.234375 6.203125 
Q 4.15625 15.140625 4.15625 35.296875 
z
M 13.1875 35.296875 
Q 13.1875 17.671875 17.3125 11.828125 
Q 21.4375 6 27.484375 6 
Q 33.546875 6 37.671875 11.859375 
Q 41.796875 17.71875 41.796875 35.296875 
Q 41.796875 52.984375 37.671875 58.78125 
Q 33.546875 64.59375 27.390625 64.59375 
Q 21.34375 64.59375 17.71875 59.46875 
Q 13.1875 52.9375 13.1875 35.296875 
z
" id="ArialMT-30"/>
      </defs>
      <g style="fill:#262626;" transform="translate(87.219531 290.877812)scale(0.1 -0.1)">
       <use xlink:href="#ArialMT-30"/>
      </g>
     </g>
    </g>
    <g id="xtick_2">
     <g id="line2d_2">
      <g>
       <use style="fill:#262626;stroke:#262626;" x="159.75" xlink:href="#m50e5764bbc" y="270.72"/>
      </g>
     </g>
     <g id="text_2">
      <!-- 100 -->
      <defs>
       <path d="M 37.25 0 
L 28.46875 0 
L 28.46875 56 
Q 25.296875 52.984375 20.140625 49.953125 
Q 14.984375 46.921875 10.890625 45.40625 
L 10.890625 53.90625 
Q 18.265625 57.375 23.78125 62.296875 
Q 29.296875 67.234375 31.59375 71.875 
L 37.25 71.875 
z
" id="ArialMT-31"/>
      </defs>
      <g style="fill:#262626;" transform="translate(151.408594 290.877812)scale(0.1 -0.1)">
       <use xlink:href="#ArialMT-31"/>
       <use x="55.615234" xlink:href="#ArialMT-30"/>
       <use x="111.230469" xlink:href="#ArialMT-30"/>
      </g>
     </g>
    </g>
    <g id="xtick_3">
     <g id="line2d_3">
      <g>
       <use style="fill:#262626;stroke:#262626;" x="229.5" xlink:href="#m50e5764bbc" y="270.72"/>
      </g>
     </g>
     <g id="text_3">
      <!-- 200 -->
      <defs>
       <path d="M 50.34375 8.453125 
L 50.34375 0 
L 3.03125 0 
Q 2.9375 3.171875 4.046875 6.109375 
Q 5.859375 10.9375 9.828125 15.625 
Q 13.8125 20.3125 21.34375 26.46875 
Q 33.015625 36.03125 37.109375 41.625 
Q 41.21875 47.21875 41.21875 52.203125 
Q 41.21875 57.421875 37.46875 61 
Q 33.734375 64.59375 27.734375 64.59375 
Q 21.390625 64.59375 17.578125 60.78125 
Q 13.765625 56.984375 13.71875 50.25 
L 4.6875 51.171875 
Q 5.609375 61.28125 11.65625 66.578125 
Q 17.71875 71.875 27.9375 71.875 
Q 38.234375 71.875 44.234375 66.15625 
Q 50.25 60.453125 50.25 52 
Q 50.25 47.703125 48.484375 43.546875 
Q 46.734375 39.40625 42.65625 34.8125 
Q 38.578125 30.21875 29.109375 22.21875 
Q 21.1875 15.578125 18.9375 13.203125 
Q 16.703125 10.84375 15.234375 8.453125 
z
" id="ArialMT-32"/>
      </defs>
      <g style="fill:#262626;" transform="translate(221.158594 290.877812)scale(0.1 -0.1)">
       <use xlink:href="#ArialMT-32"/>
       <use x="55.615234" xlink:href="#ArialMT-30"/>
       <use x="111.230469" xlink:href="#ArialMT-30"/>
      </g>
     </g>
    </g>
    <g id="xtick_4">
     <g id="line2d_4">
      <g>
       <use style="fill:#262626;stroke:#262626;" x="299.25" xlink:href="#m50e5764bbc" y="270.72"/>
      </g>
     </g>
     <g id="text_4">
      <!-- 300 -->
      <defs>
       <path d="M 4.203125 18.890625 
L 12.984375 20.0625 
Q 14.5 12.59375 18.140625 9.296875 
Q 21.78125 6 27 6 
Q 33.203125 6 37.46875 10.296875 
Q 41.75 14.59375 41.75 20.953125 
Q 41.75 27 37.796875 30.921875 
Q 33.84375 34.859375 27.734375 34.859375 
Q 25.25 34.859375 21.53125 33.890625 
L 22.515625 41.609375 
Q 23.390625 41.5 23.921875 41.5 
Q 29.546875 41.5 34.03125 44.421875 
Q 38.53125 47.359375 38.53125 53.46875 
Q 38.53125 58.296875 35.25 61.46875 
Q 31.984375 64.65625 26.8125 64.65625 
Q 21.6875 64.65625 18.265625 61.421875 
Q 14.84375 58.203125 13.875 51.765625 
L 5.078125 53.328125 
Q 6.6875 62.15625 12.390625 67.015625 
Q 18.109375 71.875 26.609375 71.875 
Q 32.46875 71.875 37.390625 69.359375 
Q 42.328125 66.84375 44.9375 62.5 
Q 47.5625 58.15625 47.5625 53.265625 
Q 47.5625 48.640625 45.0625 44.828125 
Q 42.578125 41.015625 37.703125 38.765625 
Q 44.046875 37.3125 47.5625 32.6875 
Q 51.078125 28.078125 51.078125 21.140625 
Q 51.078125 11.765625 44.234375 5.25 
Q 37.40625 -1.265625 26.953125 -1.265625 
Q 17.53125 -1.265625 11.296875 4.34375 
Q 5.078125 9.96875 4.203125 18.890625 
z
" id="ArialMT-33"/>
      </defs>
      <g style="fill:#262626;" transform="translate(290.908594 290.877812)scale(0.1 -0.1)">
       <use xlink:href="#ArialMT-33"/>
       <use x="55.615234" xlink:href="#ArialMT-30"/>
       <use x="111.230469" xlink:href="#ArialMT-30"/>
      </g>
     </g>
    </g>
    <g id="xtick_5">
     <g id="line2d_5">
      <g>
       <use style="fill:#262626;stroke:#262626;" x="369" xlink:href="#m50e5764bbc" y="270.72"/>
      </g>
     </g>
     <g id="text_5">
      <!-- 400 -->
      <defs>
       <path d="M 32.328125 0 
L 32.328125 17.140625 
L 1.265625 17.140625 
L 1.265625 25.203125 
L 33.9375 71.578125 
L 41.109375 71.578125 
L 41.109375 25.203125 
L 50.78125 25.203125 
L 50.78125 17.140625 
L 41.109375 17.140625 
L 41.109375 0 
z
M 32.328125 25.203125 
L 32.328125 57.46875 
L 9.90625 25.203125 
z
" id="ArialMT-34"/>
      </defs>
      <g style="fill:#262626;" transform="translate(360.658594 290.877812)scale(0.1 -0.1)">
       <use xlink:href="#ArialMT-34"/>
       <use x="55.615234" xlink:href="#ArialMT-30"/>
       <use x="111.230469" xlink:href="#ArialMT-30"/>
      </g>
     </g>
    </g>
    <g id="xtick_6">
     <g id="line2d_6">
      <g>
       <use style="fill:#262626;stroke:#262626;" x="438.75" xlink:href="#m50e5764bbc" y="270.72"/>
      </g>
     </g>
     <g id="text_6">
      <!-- 500 -->
      <defs>
       <path d="M 4.15625 18.75 
L 13.375 19.53125 
Q 14.40625 12.796875 18.140625 9.390625 
Q 21.875 6 27.15625 6 
Q 33.5 6 37.890625 10.78125 
Q 42.28125 15.578125 42.28125 23.484375 
Q 42.28125 31 38.0625 35.34375 
Q 33.84375 39.703125 27 39.703125 
Q 22.75 39.703125 19.328125 37.765625 
Q 15.921875 35.84375 13.96875 32.765625 
L 5.71875 33.84375 
L 12.640625 70.609375 
L 48.25 70.609375 
L 48.25 62.203125 
L 19.671875 62.203125 
L 15.828125 42.96875 
Q 22.265625 47.46875 29.34375 47.46875 
Q 38.71875 47.46875 45.15625 40.96875 
Q 51.609375 34.46875 51.609375 24.265625 
Q 51.609375 14.546875 45.953125 7.46875 
Q 39.0625 -1.21875 27.15625 -1.21875 
Q 17.390625 -1.21875 11.203125 4.25 
Q 5.03125 9.71875 4.15625 18.75 
z
" id="ArialMT-35"/>
      </defs>
      <g style="fill:#262626;" transform="translate(430.408594 290.877812)scale(0.1 -0.1)">
       <use xlink:href="#ArialMT-35"/>
       <use x="55.615234" xlink:href="#ArialMT-30"/>
       <use x="111.230469" xlink:href="#ArialMT-30"/>
      </g>
     </g>
    </g>
    <g id="xtick_7">
     <g id="line2d_7">
      <g>
       <use style="fill:#262626;stroke:#262626;" x="508.5" xlink:href="#m50e5764bbc" y="270.72"/>
      </g>
     </g>
     <g id="text_7">
      <!-- 600 -->
      <defs>
       <path d="M 49.75 54.046875 
L 41.015625 53.375 
Q 39.84375 58.546875 37.703125 60.890625 
Q 34.125 64.65625 28.90625 64.65625 
Q 24.703125 64.65625 21.53125 62.3125 
Q 17.390625 59.28125 14.984375 53.46875 
Q 12.59375 47.65625 12.5 36.921875 
Q 15.671875 41.75 20.265625 44.09375 
Q 24.859375 46.4375 29.890625 46.4375 
Q 38.671875 46.4375 44.84375 39.96875 
Q 51.03125 33.5 51.03125 23.25 
Q 51.03125 16.5 48.125 10.71875 
Q 45.21875 4.9375 40.140625 1.859375 
Q 35.0625 -1.21875 28.609375 -1.21875 
Q 17.625 -1.21875 10.6875 6.859375 
Q 3.765625 14.9375 3.765625 33.5 
Q 3.765625 54.25 11.421875 63.671875 
Q 18.109375 71.875 29.4375 71.875 
Q 37.890625 71.875 43.28125 67.140625 
Q 48.6875 62.40625 49.75 54.046875 
z
M 13.875 23.1875 
Q 13.875 18.65625 15.796875 14.5 
Q 17.71875 10.359375 21.1875 8.171875 
Q 24.65625 6 28.46875 6 
Q 34.03125 6 38.03125 10.484375 
Q 42.046875 14.984375 42.046875 22.703125 
Q 42.046875 30.125 38.078125 34.390625 
Q 34.125 38.671875 28.125 38.671875 
Q 22.171875 38.671875 18.015625 34.390625 
Q 13.875 30.125 13.875 23.1875 
z
" id="ArialMT-36"/>
      </defs>
      <g style="fill:#262626;" transform="translate(500.158594 290.877812)scale(0.1 -0.1)">
       <use xlink:href="#ArialMT-36"/>
       <use x="55.615234" xlink:href="#ArialMT-30"/>
       <use x="111.230469" xlink:href="#ArialMT-30"/>
      </g>
     </g>
    </g>
    <g id="xtick_8">
     <g id="line2d_8">
      <g>
       <use style="fill:#262626;stroke:#262626;" x="578.25" xlink:href="#m50e5764bbc" y="270.72"/>
      </g>
     </g>
     <g id="text_8">
      <!-- 700 -->
      <defs>
       <path d="M 4.734375 62.203125 
L 4.734375 70.65625 
L 51.078125 70.65625 
L 51.078125 63.8125 
Q 44.234375 56.546875 37.515625 44.484375 
Q 30.8125 32.421875 27.15625 19.671875 
Q 24.515625 10.6875 23.78125 0 
L 14.75 0 
Q 14.890625 8.453125 18.0625 20.40625 
Q 21.234375 32.375 27.171875 43.484375 
Q 33.109375 54.59375 39.796875 62.203125 
z
" id="ArialMT-37"/>
      </defs>
      <g style="fill:#262626;" transform="translate(569.908594 290.877812)scale(0.1 -0.1)">
       <use xlink:href="#ArialMT-37"/>
       <use x="55.615234" xlink:href="#ArialMT-30"/>
       <use x="111.230469" xlink:href="#ArialMT-30"/>
      </g>
     </g>
    </g>
    <g id="xtick_9">
     <g id="line2d_9">
      <g>
       <use style="fill:#262626;stroke:#262626;" x="648" xlink:href="#m50e5764bbc" y="270.72"/>
      </g>
     </g>
     <g id="text_9">
      <!-- 800 -->
      <defs>
       <path d="M 17.671875 38.8125 
Q 12.203125 40.828125 9.5625 44.53125 
Q 6.9375 48.25 6.9375 53.421875 
Q 6.9375 61.234375 12.546875 66.546875 
Q 18.171875 71.875 27.484375 71.875 
Q 36.859375 71.875 42.578125 66.421875 
Q 48.296875 60.984375 48.296875 53.171875 
Q 48.296875 48.1875 45.671875 44.5 
Q 43.0625 40.828125 37.75 38.8125 
Q 44.34375 36.671875 47.78125 31.875 
Q 51.21875 27.09375 51.21875 20.453125 
Q 51.21875 11.28125 44.71875 5.03125 
Q 38.234375 -1.21875 27.640625 -1.21875 
Q 17.046875 -1.21875 10.546875 5.046875 
Q 4.046875 11.328125 4.046875 20.703125 
Q 4.046875 27.6875 7.59375 32.390625 
Q 11.140625 37.109375 17.671875 38.8125 
z
M 15.921875 53.71875 
Q 15.921875 48.640625 19.1875 45.40625 
Q 22.46875 42.1875 27.6875 42.1875 
Q 32.765625 42.1875 36.015625 45.375 
Q 39.265625 48.578125 39.265625 53.21875 
Q 39.265625 58.0625 35.90625 61.359375 
Q 32.5625 64.65625 27.59375 64.65625 
Q 22.5625 64.65625 19.234375 61.421875 
Q 15.921875 58.203125 15.921875 53.71875 
z
M 13.09375 20.65625 
Q 13.09375 16.890625 14.875 13.375 
Q 16.65625 9.859375 20.171875 7.921875 
Q 23.6875 6 27.734375 6 
Q 34.03125 6 38.125 10.046875 
Q 42.234375 14.109375 42.234375 20.359375 
Q 42.234375 26.703125 38.015625 30.859375 
Q 33.796875 35.015625 27.4375 35.015625 
Q 21.234375 35.015625 17.15625 30.90625 
Q 13.09375 26.8125 13.09375 20.65625 
z
" id="ArialMT-38"/>
      </defs>
      <g style="fill:#262626;" transform="translate(639.658594 290.877812)scale(0.1 -0.1)">
       <use xlink:href="#ArialMT-38"/>
       <use x="55.615234" xlink:href="#ArialMT-30"/>
       <use x="111.230469" xlink:href="#ArialMT-30"/>
      </g>
     </g>
    </g>
   </g>
   <g id="matplotlib.axis_2">
    <g id="ytick_1">
     <g id="line2d_10">
      <defs>
       <path d="M 0 0 
L -6 0 
" id="ma1daf577da" style="stroke:#262626;"/>
      </defs>
      <g>
       <use style="fill:#262626;stroke:#262626;" x="90" xlink:href="#ma1daf577da" y="250.56"/>
      </g>
     </g>
     <g id="text_10">
      <!-- −0.04 -->
      <defs>
       <path d="M 52.828125 31.203125 
L 5.5625 31.203125 
L 5.5625 39.40625 
L 52.828125 39.40625 
z
" id="ArialMT-2212"/>
       <path d="M 9.078125 0 
L 9.078125 10.015625 
L 19.09375 10.015625 
L 19.09375 0 
z
" id="ArialMT-2e"/>
      </defs>
      <g style="fill:#262626;" transform="translate(51.698437 254.138906)scale(0.1 -0.1)">
       <use xlink:href="#ArialMT-2212"/>
       <use x="58.398438" xlink:href="#ArialMT-30"/>
       <use x="114.013672" xlink:href="#ArialMT-2e"/>
       <use x="141.796875" xlink:href="#ArialMT-30"/>
       <use x="197.412109" xlink:href="#ArialMT-34"/>
      </g>
     </g>
    </g>
    <g id="ytick_2">
     <g id="line2d_11">
      <g>
       <use style="fill:#262626;stroke:#262626;" x="90" xlink:href="#ma1daf577da" y="210.24"/>
      </g>
     </g>
     <g id="text_11">
      <!-- −0.02 -->
      <g style="fill:#262626;" transform="translate(51.698437 213.818906)scale(0.1 -0.1)">
       <use xlink:href="#ArialMT-2212"/>
       <use x="58.398438" xlink:href="#ArialMT-30"/>
       <use x="114.013672" xlink:href="#ArialMT-2e"/>
       <use x="141.796875" xlink:href="#ArialMT-30"/>
       <use x="197.412109" xlink:href="#ArialMT-32"/>
      </g>
     </g>
    </g>
    <g id="ytick_3">
     <g id="line2d_12">
      <g>
       <use style="fill:#262626;stroke:#262626;" x="90" xlink:href="#ma1daf577da" y="169.92"/>
      </g>
     </g>
     <g id="text_12">
      <!-- 0.00 -->
      <g style="fill:#262626;" transform="translate(57.539062 173.498906)scale(0.1 -0.1)">
       <use xlink:href="#ArialMT-30"/>
       <use x="55.615234" xlink:href="#ArialMT-2e"/>
       <use x="83.398438" xlink:href="#ArialMT-30"/>
       <use x="139.013672" xlink:href="#ArialMT-30"/>
      </g>
     </g>
    </g>
    <g id="ytick_4">
     <g id="line2d_13">
      <g>
       <use style="fill:#262626;stroke:#262626;" x="90" xlink:href="#ma1daf577da" y="129.6"/>
      </g>
     </g>
     <g id="text_13">
      <!-- 0.02 -->
      <g style="fill:#262626;" transform="translate(57.539062 133.178906)scale(0.1 -0.1)">
       <use xlink:href="#ArialMT-30"/>
       <use x="55.615234" xlink:href="#ArialMT-2e"/>
       <use x="83.398438" xlink:href="#ArialMT-30"/>
       <use x="139.013672" xlink:href="#ArialMT-32"/>
      </g>
     </g>
    </g>
    <g id="ytick_5">
     <g id="line2d_14">
      <g>
       <use style="fill:#262626;stroke:#262626;" x="90" xlink:href="#ma1daf577da" y="89.28"/>
      </g>
     </g>
     <g id="text_14">
      <!-- 0.04 -->
      <g style="fill:#262626;" transform="translate(57.539062 92.858906)scale(0.1 -0.1)">
       <use xlink:href="#ArialMT-30"/>
       <use x="55.615234" xlink:href="#ArialMT-2e"/>
       <use x="83.398438" xlink:href="#ArialMT-30"/>
       <use x="139.013672" xlink:href="#ArialMT-34"/>
      </g>
     </g>
    </g>
   </g>
   <g id="PolyCollection_1">
    <path clip-path="url(#p6fdc927b19)" d="M 90 170.852437 
L 90 169.92 
L 90.6975 169.92 
L 91.395 169.92 
L 92.0925 169.92 
L 92.79 169.92 
L 93.4875 169.92 
L 94.185 169.92 
L 94.8825 169.92 
L 95.58 169.92 
L 96.2775 169.92 
L 96.975 169.92 
L 97.6725 169.92 
L 98.37 169.92 
L 99.0675 169.92 
L 99.765 169.92 
L 100.4625 169.92 
L 101.16 169.92 
L 101.8575 169.92 
L 102.555 169.92 
L 103.2525 169.92 
L 103.95 169.92 
L 104.6475 169.92 
L 105.345 169.92 
L 106.0425 169.92 
L 106.74 169.92 
L 107.4375 169.92 
L 108.135 169.92 
L 108.8325 169.92 
L 109.53 169.92 
L 110.2275 169.92 
L 110.925 169.92 
L 111.6225 169.92 
L 112.32 169.92 
L 113.0175 169.92 
L 113.715 169.92 
L 114.4125 169.92 
L 115.11 169.92 
L 115.8075 169.92 
L 116.505 169.92 
L 117.2025 169.92 
L 117.9 169.92 
L 118.5975 169.92 
L 119.295 169.92 
L 119.9925 169.92 
L 120.69 169.92 
L 121.3875 169.92 
L 122.085 169.92 
L 122.7825 169.92 
L 123.48 169.92 
L 124.1775 169.92 
L 124.875 169.92 
L 125.5725 169.92 
L 126.27 169.92 
L 126.9675 169.92 
L 127.665 169.92 
L 128.3625 169.92 
L 129.06 169.92 
L 129.7575 169.92 
L 130.455 169.92 
L 131.1525 169.92 
L 131.85 169.92 
L 132.5475 169.92 
L 133.245 169.92 
L 133.9425 169.92 
L 134.64 169.92 
L 135.3375 169.92 
L 136.035 169.92 
L 136.7325 169.92 
L 137.43 169.92 
L 138.1275 169.92 
L 138.825 169.92 
L 139.5225 169.92 
L 140.22 169.92 
L 140.9175 169.92 
L 141.615 169.92 
L 142.3125 169.92 
L 143.01 169.92 
L 143.7075 169.92 
L 144.405 169.92 
L 145.1025 169.92 
L 145.8 169.92 
L 146.4975 169.92 
L 147.195 169.92 
L 147.8925 169.92 
L 148.59 169.92 
L 149.2875 169.92 
L 149.985 169.92 
L 150.6825 169.92 
L 151.38 169.92 
L 152.0775 169.92 
L 152.775 169.92 
L 153.4725 169.92 
L 154.17 169.92 
L 154.8675 169.92 
L 155.565 169.92 
L 156.2625 169.92 
L 156.96 169.92 
L 157.6575 169.92 
L 158.355 169.92 
L 159.0525 169.92 
L 159.75 169.92 
L 160.4475 169.92 
L 161.145 169.92 
L 161.8425 169.92 
L 162.54 169.92 
L 163.2375 169.92 
L 163.935 169.92 
L 164.6325 169.92 
L 165.33 169.92 
L 166.0275 169.92 
L 166.725 169.92 
L 167.4225 169.92 
L 168.12 169.92 
L 168.8175 169.92 
L 169.515 169.92 
L 170.2125 169.92 
L 170.91 169.92 
L 171.6075 169.92 
L 172.305 169.92 
L 173.0025 169.92 
L 173.7 169.92 
L 174.3975 169.92 
L 175.095 169.92 
L 175.7925 169.92 
L 176.49 169.92 
L 177.1875 169.92 
L 177.885 169.92 
L 178.5825 169.92 
L 179.28 169.92 
L 179.9775 169.92 
L 180.675 169.92 
L 181.3725 169.92 
L 182.07 169.92 
L 182.7675 169.92 
L 183.465 169.92 
L 184.1625 169.92 
L 184.86 169.92 
L 185.5575 169.92 
L 186.255 169.92 
L 186.9525 169.92 
L 187.65 169.92 
L 188.3475 169.92 
L 189.045 169.92 
L 189.7425 169.92 
L 190.44 169.92 
L 191.1375 169.92 
L 191.835 169.92 
L 192.5325 169.92 
L 193.23 169.92 
L 193.9275 169.92 
L 194.625 169.92 
L 195.3225 169.92 
L 196.02 169.92 
L 196.7175 169.92 
L 197.415 169.92 
L 198.1125 169.92 
L 198.81 169.92 
L 199.5075 169.92 
L 200.205 169.92 
L 200.9025 169.92 
L 201.6 169.92 
L 202.2975 169.92 
L 202.995 169.92 
L 203.6925 169.92 
L 204.39 169.92 
L 205.0875 169.92 
L 205.785 169.92 
L 206.4825 169.92 
L 207.18 169.92 
L 207.8775 169.92 
L 208.575 169.92 
L 209.2725 169.92 
L 209.97 169.92 
L 210.6675 169.92 
L 211.365 169.92 
L 212.0625 169.92 
L 212.76 169.92 
L 213.4575 169.92 
L 214.155 169.92 
L 214.8525 169.92 
L 215.55 169.92 
L 216.2475 169.92 
L 216.945 169.92 
L 217.6425 169.92 
L 218.34 169.92 
L 219.0375 169.92 
L 219.735 169.92 
L 220.4325 169.92 
L 221.13 169.92 
L 221.8275 169.92 
L 222.525 169.92 
L 223.2225 169.92 
L 223.92 169.92 
L 224.6175 169.92 
L 225.315 169.92 
L 226.0125 169.92 
L 226.71 169.92 
L 227.4075 169.92 
L 228.105 169.92 
L 228.8025 169.92 
L 229.5 169.92 
L 230.1975 169.92 
L 230.895 169.92 
L 231.5925 169.92 
L 232.29 169.92 
L 232.9875 169.92 
L 233.685 169.92 
L 234.3825 169.92 
L 235.08 169.92 
L 235.7775 169.92 
L 236.475 169.92 
L 237.1725 169.92 
L 237.87 169.92 
L 238.5675 169.92 
L 239.265 169.92 
L 239.9625 169.92 
L 240.66 169.92 
L 241.3575 169.92 
L 242.055 169.92 
L 242.7525 169.92 
L 243.45 169.92 
L 244.1475 169.92 
L 244.845 169.92 
L 245.5425 169.92 
L 246.24 169.92 
L 246.9375 169.92 
L 247.635 169.92 
L 248.3325 169.92 
L 249.03 169.92 
L 249.7275 169.92 
L 250.425 169.92 
L 251.1225 169.92 
L 251.82 169.92 
L 252.5175 169.92 
L 253.215 169.92 
L 253.9125 169.92 
L 254.61 169.92 
L 255.3075 169.92 
L 256.005 169.92 
L 256.7025 169.92 
L 257.4 169.92 
L 258.0975 169.92 
L 258.795 169.92 
L 259.4925 169.92 
L 260.19 169.92 
L 260.8875 169.92 
L 261.585 169.92 
L 262.2825 169.92 
L 262.98 169.92 
L 263.6775 169.92 
L 264.375 169.92 
L 265.0725 169.92 
L 265.77 169.92 
L 266.4675 169.92 
L 267.165 169.92 
L 267.8625 169.92 
L 268.56 169.92 
L 269.2575 169.92 
L 269.955 169.92 
L 270.6525 169.92 
L 271.35 169.92 
L 272.0475 169.92 
L 272.745 169.92 
L 273.4425 169.92 
L 274.14 169.92 
L 274.8375 169.92 
L 275.535 169.92 
L 276.2325 169.92 
L 276.93 169.92 
L 277.6275 169.92 
L 278.325 169.92 
L 279.0225 169.92 
L 279.72 169.92 
L 280.4175 169.92 
L 281.115 169.92 
L 281.8125 169.92 
L 282.51 169.92 
L 283.2075 169.92 
L 283.905 169.92 
L 284.6025 169.92 
L 285.3 169.92 
L 285.9975 169.92 
L 286.695 169.92 
L 287.3925 169.92 
L 288.09 169.92 
L 288.7875 169.92 
L 289.485 169.92 
L 290.1825 169.92 
L 290.88 169.92 
L 291.5775 169.92 
L 292.275 169.92 
L 292.9725 169.92 
L 293.67 169.92 
L 294.3675 169.92 
L 295.065 169.92 
L 295.7625 169.92 
L 296.46 169.92 
L 297.1575 169.92 
L 297.855 169.92 
L 298.5525 169.92 
L 299.25 169.92 
L 299.9475 169.92 
L 300.645 169.92 
L 301.3425 169.92 
L 302.04 169.92 
L 302.7375 169.92 
L 303.435 169.92 
L 304.1325 169.92 
L 304.83 169.92 
L 305.5275 169.92 
L 306.225 169.92 
L 306.9225 169.92 
L 307.62 169.92 
L 308.3175 169.92 
L 309.015 169.92 
L 309.7125 169.92 
L 310.41 169.92 
L 311.1075 169.92 
L 311.805 169.92 
L 312.5025 169.92 
L 313.2 169.92 
L 313.8975 169.92 
L 314.595 169.92 
L 315.2925 169.92 
L 315.99 169.92 
L 316.6875 169.92 
L 317.385 169.92 
L 318.0825 169.92 
L 318.78 169.92 
L 319.4775 169.92 
L 320.175 169.92 
L 320.8725 169.92 
L 321.57 169.92 
L 322.2675 169.92 
L 322.965 169.92 
L 323.6625 169.92 
L 324.36 169.92 
L 325.0575 169.92 
L 325.755 169.92 
L 326.4525 169.92 
L 327.15 169.92 
L 327.8475 169.92 
L 328.545 169.92 
L 329.2425 169.92 
L 329.94 169.92 
L 330.6375 169.92 
L 331.335 169.92 
L 332.0325 169.92 
L 332.73 169.92 
L 333.4275 169.92 
L 334.125 169.92 
L 334.8225 169.92 
L 335.52 169.92 
L 336.2175 169.92 
L 336.915 169.92 
L 337.6125 169.92 
L 338.31 169.92 
L 339.0075 169.92 
L 339.705 169.92 
L 340.4025 169.92 
L 341.1 169.92 
L 341.7975 169.92 
L 342.495 169.92 
L 343.1925 169.92 
L 343.89 169.92 
L 344.5875 169.92 
L 345.285 169.92 
L 345.9825 169.92 
L 346.68 169.92 
L 347.3775 169.92 
L 348.075 169.92 
L 348.7725 169.92 
L 349.47 169.92 
L 350.1675 169.92 
L 350.865 169.92 
L 351.5625 169.92 
L 352.26 169.92 
L 352.9575 169.92 
L 353.655 169.92 
L 354.3525 169.92 
L 355.05 169.92 
L 355.7475 169.92 
L 356.445 169.92 
L 357.1425 169.92 
L 357.84 169.92 
L 358.5375 169.92 
L 359.235 169.92 
L 359.9325 169.92 
L 360.63 169.92 
L 361.3275 169.92 
L 362.025 169.92 
L 362.7225 169.92 
L 363.42 169.92 
L 364.1175 169.92 
L 364.815 169.92 
L 365.5125 169.92 
L 366.21 169.92 
L 366.9075 169.92 
L 367.605 169.92 
L 368.3025 169.92 
L 369 169.92 
L 369.6975 169.92 
L 370.395 169.92 
L 371.0925 169.92 
L 371.79 169.92 
L 372.4875 169.92 
L 373.185 169.92 
L 373.8825 169.92 
L 374.58 169.92 
L 375.2775 169.92 
L 375.975 169.92 
L 376.6725 169.92 
L 377.37 169.92 
L 378.0675 169.92 
L 378.765 169.92 
L 379.4625 169.92 
L 380.16 169.92 
L 380.8575 169.92 
L 381.555 169.92 
L 382.2525 169.92 
L 382.95 169.92 
L 383.6475 169.92 
L 384.345 169.92 
L 385.0425 169.92 
L 385.74 169.92 
L 386.4375 169.92 
L 387.135 169.92 
L 387.8325 169.92 
L 388.53 169.92 
L 389.2275 169.92 
L 389.925 169.92 
L 390.6225 169.92 
L 391.32 169.92 
L 392.0175 169.92 
L 392.715 169.92 
L 393.4125 169.92 
L 394.11 169.92 
L 394.8075 169.92 
L 395.505 169.92 
L 396.2025 169.92 
L 396.9 169.92 
L 397.5975 169.92 
L 398.295 169.92 
L 398.9925 169.92 
L 399.69 169.92 
L 400.3875 169.92 
L 401.085 169.92 
L 401.7825 169.92 
L 402.48 169.92 
L 403.1775 169.92 
L 403.875 169.92 
L 404.5725 169.92 
L 405.27 169.92 
L 405.9675 169.92 
L 406.665 169.92 
L 407.3625 169.92 
L 408.06 169.92 
L 408.7575 169.92 
L 409.455 169.92 
L 410.1525 169.92 
L 410.85 169.92 
L 411.5475 169.92 
L 412.245 169.92 
L 412.9425 169.92 
L 413.64 169.92 
L 414.3375 169.92 
L 415.035 169.92 
L 415.7325 169.92 
L 416.43 169.92 
L 417.1275 169.92 
L 417.825 169.92 
L 418.5225 169.92 
L 419.22 169.92 
L 419.9175 169.92 
L 420.615 169.92 
L 421.3125 169.92 
L 422.01 169.92 
L 422.7075 169.92 
L 423.405 169.92 
L 424.1025 169.92 
L 424.8 169.92 
L 425.4975 169.92 
L 426.195 169.92 
L 426.8925 169.92 
L 427.59 169.92 
L 428.2875 169.92 
L 428.985 169.92 
L 429.6825 169.92 
L 430.38 169.92 
L 431.0775 169.92 
L 431.775 169.92 
L 432.4725 169.92 
L 433.17 169.92 
L 433.8675 169.92 
L 434.565 169.92 
L 435.2625 169.92 
L 435.96 169.92 
L 436.6575 169.92 
L 437.355 169.92 
L 438.0525 169.92 
L 438.75 169.92 
L 439.4475 169.92 
L 440.145 169.92 
L 440.8425 169.92 
L 441.54 169.92 
L 442.2375 169.92 
L 442.935 169.92 
L 443.6325 169.92 
L 444.33 169.92 
L 445.0275 169.92 
L 445.725 169.92 
L 446.4225 169.92 
L 447.12 169.92 
L 447.8175 169.92 
L 448.515 169.92 
L 449.2125 169.92 
L 449.91 169.92 
L 450.6075 169.92 
L 451.305 169.92 
L 452.0025 169.92 
L 452.7 169.92 
L 453.3975 169.92 
L 454.095 169.92 
L 454.7925 169.92 
L 455.49 169.92 
L 456.1875 169.92 
L 456.885 169.92 
L 457.5825 169.92 
L 458.28 169.92 
L 458.9775 169.92 
L 459.675 169.92 
L 460.3725 169.92 
L 461.07 169.92 
L 461.7675 169.92 
L 462.465 169.92 
L 463.1625 169.92 
L 463.86 169.92 
L 464.5575 169.92 
L 465.255 169.92 
L 465.9525 169.92 
L 466.65 169.92 
L 467.3475 169.92 
L 468.045 169.92 
L 468.7425 169.92 
L 469.44 169.92 
L 470.1375 169.92 
L 470.835 169.92 
L 471.5325 169.92 
L 472.23 169.92 
L 472.9275 169.92 
L 473.625 169.92 
L 474.3225 169.92 
L 475.02 169.92 
L 475.7175 169.92 
L 476.415 169.92 
L 477.1125 169.92 
L 477.81 169.92 
L 478.5075 169.92 
L 479.205 169.92 
L 479.9025 169.92 
L 480.6 169.92 
L 481.2975 169.92 
L 481.995 169.92 
L 482.6925 169.92 
L 483.39 169.92 
L 484.0875 169.92 
L 484.785 169.92 
L 485.4825 169.92 
L 486.18 169.92 
L 486.8775 169.92 
L 487.575 169.92 
L 488.2725 169.92 
L 488.97 169.92 
L 489.6675 169.92 
L 490.365 169.92 
L 491.0625 169.92 
L 491.76 169.92 
L 492.4575 169.92 
L 493.155 169.92 
L 493.8525 169.92 
L 494.55 169.92 
L 495.2475 169.92 
L 495.945 169.92 
L 496.6425 169.92 
L 497.34 169.92 
L 498.0375 169.92 
L 498.735 169.92 
L 499.4325 169.92 
L 500.13 169.92 
L 500.8275 169.92 
L 501.525 169.92 
L 502.2225 169.92 
L 502.92 169.92 
L 503.6175 169.92 
L 504.315 169.92 
L 505.0125 169.92 
L 505.71 169.92 
L 506.4075 169.92 
L 507.105 169.92 
L 507.8025 169.92 
L 508.5 169.92 
L 509.1975 169.92 
L 509.895 169.92 
L 510.5925 169.92 
L 511.29 169.92 
L 511.9875 169.92 
L 512.685 169.92 
L 513.3825 169.92 
L 514.08 169.92 
L 514.7775 169.92 
L 515.475 169.92 
L 516.1725 169.92 
L 516.87 169.92 
L 517.5675 169.92 
L 518.265 169.92 
L 518.9625 169.92 
L 519.66 169.92 
L 520.3575 169.92 
L 521.055 169.92 
L 521.7525 169.92 
L 522.45 169.92 
L 523.1475 169.92 
L 523.845 169.92 
L 524.5425 169.92 
L 525.24 169.92 
L 525.9375 169.92 
L 526.635 169.92 
L 527.3325 169.92 
L 528.03 169.92 
L 528.7275 169.92 
L 529.425 169.92 
L 530.1225 169.92 
L 530.82 169.92 
L 531.5175 169.92 
L 532.215 169.92 
L 532.9125 169.92 
L 533.61 169.92 
L 534.3075 169.92 
L 535.005 169.92 
L 535.7025 169.92 
L 536.4 169.92 
L 537.0975 169.92 
L 537.795 169.92 
L 538.4925 169.92 
L 539.19 169.92 
L 539.8875 169.92 
L 540.585 169.92 
L 541.2825 169.92 
L 541.98 169.92 
L 542.6775 169.92 
L 543.375 169.92 
L 544.0725 169.92 
L 544.77 169.92 
L 545.4675 169.92 
L 546.165 169.92 
L 546.8625 169.92 
L 547.56 169.92 
L 548.2575 169.92 
L 548.955 169.92 
L 549.6525 169.92 
L 550.35 169.92 
L 551.0475 169.92 
L 551.745 169.92 
L 552.4425 169.92 
L 553.14 169.92 
L 553.8375 169.92 
L 554.535 169.92 
L 555.2325 169.92 
L 555.93 169.92 
L 556.6275 169.92 
L 557.325 169.92 
L 558.0225 169.92 
L 558.72 169.92 
L 559.4175 169.92 
L 560.115 169.92 
L 560.8125 169.92 
L 561.51 169.92 
L 562.2075 169.92 
L 562.905 169.92 
L 563.6025 169.92 
L 564.3 169.92 
L 564.9975 169.92 
L 565.695 169.92 
L 566.3925 169.92 
L 567.09 169.92 
L 567.7875 169.92 
L 568.485 169.92 
L 569.1825 169.92 
L 569.88 169.92 
L 570.5775 169.92 
L 571.275 169.92 
L 571.9725 169.92 
L 572.67 169.92 
L 573.3675 169.92 
L 574.065 169.92 
L 574.7625 169.92 
L 575.46 169.92 
L 576.1575 169.92 
L 576.855 169.92 
L 577.5525 169.92 
L 578.25 169.92 
L 578.9475 169.92 
L 579.645 169.92 
L 580.3425 169.92 
L 581.04 169.92 
L 581.7375 169.92 
L 582.435 169.92 
L 583.1325 169.92 
L 583.83 169.92 
L 584.5275 169.92 
L 585.225 169.92 
L 585.9225 169.92 
L 586.62 169.92 
L 587.3175 169.92 
L 588.015 169.92 
L 588.7125 169.92 
L 589.41 169.92 
L 590.1075 169.92 
L 590.805 169.92 
L 591.5025 169.92 
L 592.2 169.92 
L 592.8975 169.92 
L 593.595 169.92 
L 594.2925 169.92 
L 594.99 169.92 
L 595.6875 169.92 
L 596.385 169.92 
L 597.0825 169.92 
L 597.78 169.92 
L 598.4775 169.92 
L 599.175 169.92 
L 599.8725 169.92 
L 600.57 169.92 
L 601.2675 169.92 
L 601.965 169.92 
L 602.6625 169.92 
L 603.36 169.92 
L 604.0575 169.92 
L 604.755 169.92 
L 605.4525 169.92 
L 606.15 169.92 
L 606.8475 169.92 
L 607.545 169.92 
L 608.2425 169.92 
L 608.94 169.92 
L 609.6375 169.92 
L 610.335 169.92 
L 611.0325 169.92 
L 611.73 169.92 
L 612.4275 169.92 
L 613.125 169.92 
L 613.8225 169.92 
L 614.52 169.92 
L 615.2175 169.92 
L 615.915 169.92 
L 616.6125 169.92 
L 617.31 169.92 
L 618.0075 169.92 
L 618.705 169.92 
L 619.4025 169.92 
L 620.1 169.92 
L 620.7975 169.92 
L 621.495 169.92 
L 622.1925 169.92 
L 622.89 169.92 
L 623.5875 169.92 
L 624.285 169.92 
L 624.9825 169.92 
L 625.68 169.92 
L 626.3775 169.92 
L 627.075 169.92 
L 627.7725 169.92 
L 628.47 169.92 
L 629.1675 169.92 
L 629.865 169.92 
L 630.5625 169.92 
L 631.26 169.92 
L 631.9575 169.92 
L 632.655 169.92 
L 633.3525 169.92 
L 634.05 169.92 
L 634.7475 169.92 
L 635.445 169.92 
L 636.1425 169.92 
L 636.84 169.92 
L 637.5375 169.92 
L 638.235 169.92 
L 638.9325 169.92 
L 639.63 169.92 
L 640.3275 169.92 
L 641.025 169.92 
L 641.7225 169.92 
L 642.42 169.92 
L 643.1175 169.92 
L 643.815 169.92 
L 644.5125 169.92 
L 645.21 169.92 
L 645.9075 169.92 
L 646.605 169.92 
L 646.605 169.92 
L 646.605 169.92 
L 645.9075 169.981408 
L 645.21 170.144405 
L 644.5125 170.352395 
L 643.815 170.609635 
L 643.1175 170.926598 
L 642.42 171.272081 
L 641.7225 171.634998 
L 641.025 172.058634 
L 640.3275 172.51047 
L 639.63 172.978107 
L 638.9325 173.489893 
L 638.235 173.998573 
L 637.5375 174.525166 
L 636.84 175.049528 
L 636.1425 175.572012 
L 635.445 176.086174 
L 634.7475 176.578845 
L 634.05 177.030302 
L 633.3525 177.428151 
L 632.655 177.808424 
L 631.9575 178.139135 
L 631.26 178.429851 
L 630.5625 178.683809 
L 629.865 178.904697 
L 629.1675 179.048854 
L 628.47 179.148615 
L 627.7725 179.195926 
L 627.075 179.210673 
L 626.3775 179.151736 
L 625.68 179.047135 
L 624.9825 178.884512 
L 624.285 178.65223 
L 623.5875 178.400914 
L 622.89 178.092728 
L 622.1925 177.751942 
L 621.495 177.375938 
L 620.7975 176.955708 
L 620.1 176.475969 
L 619.4025 175.9904 
L 618.705 175.470876 
L 618.0075 174.937454 
L 617.31 174.376244 
L 616.6125 173.787349 
L 615.915 173.212148 
L 615.2175 172.623623 
L 614.52 172.035858 
L 613.8225 171.476573 
L 613.125 170.939023 
L 612.4275 170.416194 
L 611.73 169.921358 
L 611.0325 169.494736 
L 610.335 169.121123 
L 609.6375 168.784658 
L 608.94 168.509962 
L 608.2425 168.286779 
L 607.545 168.104214 
L 606.8475 167.998636 
L 606.15 167.964524 
L 605.4525 167.988654 
L 604.755 168.022965 
L 604.0575 168.128443 
L 603.36 168.2492 
L 602.6625 168.417864 
L 601.965 168.60506 
L 601.2675 168.822125 
L 600.57 169.059558 
L 599.8725 169.307607 
L 599.175 169.576858 
L 598.4775 169.823049 
L 597.78 170.097729 
L 597.0825 170.342924 
L 596.385 170.582901 
L 595.6875 170.801054 
L 594.99 170.99469 
L 594.2925 171.18189 
L 593.595 171.32623 
L 592.8975 171.446397 
L 592.2 171.52044 
L 591.5025 171.526976 
L 590.805 171.506863 
L 590.1075 171.453525 
L 589.41 171.353976 
L 588.7125 171.195796 
L 588.015 171.00823 
L 587.3175 170.800415 
L 586.62 170.547623 
L 585.9225 170.252971 
L 585.225 169.899627 
L 584.5275 169.505596 
L 583.83 169.089384 
L 583.1325 168.669775 
L 582.435 168.24512 
L 581.7375 167.807014 
L 581.04 167.360861 
L 580.3425 166.912165 
L 579.645 166.445994 
L 578.9475 165.988567 
L 578.25 165.52506 
L 577.5525 165.06119 
L 576.855 164.636795 
L 576.1575 164.216174 
L 575.46 163.852277 
L 574.7625 163.488187 
L 574.065 163.14204 
L 573.3675 162.831754 
L 572.67 162.540688 
L 571.9725 162.320194 
L 571.275 162.138878 
L 570.5775 161.992152 
L 569.88 161.875005 
L 569.1825 161.822997 
L 568.485 161.795831 
L 567.7875 161.793842 
L 567.09 161.857994 
L 566.3925 161.960202 
L 565.695 162.099205 
L 564.9975 162.286935 
L 564.3 162.541546 
L 563.6025 162.832602 
L 562.905 163.142868 
L 562.2075 163.509454 
L 561.51 163.900544 
L 560.8125 164.324961 
L 560.115 164.78429 
L 559.4175 165.266042 
L 558.72 165.77792 
L 558.0225 166.286316 
L 557.325 166.819072 
L 556.6275 167.328678 
L 555.93 167.849785 
L 555.2325 168.335025 
L 554.535 168.805704 
L 553.8375 169.262839 
L 553.14 169.673496 
L 552.4425 170.080371 
L 551.745 170.423859 
L 551.0475 170.747486 
L 550.35 171.013141 
L 549.6525 171.258486 
L 548.955 171.44638 
L 548.2575 171.560857 
L 547.56 171.634621 
L 546.8625 171.666761 
L 546.165 171.650059 
L 545.4675 171.571073 
L 544.77 171.444425 
L 544.0725 171.264854 
L 543.375 171.041398 
L 542.6775 170.769992 
L 541.98 170.488099 
L 541.2825 170.151435 
L 540.585 169.791447 
L 539.8875 169.412576 
L 539.19 169.012672 
L 538.4925 168.623962 
L 537.795 168.237596 
L 537.0975 167.865164 
L 536.4 167.511259 
L 535.7025 167.187073 
L 535.005 166.876134 
L 534.3075 166.616395 
L 533.61 166.370122 
L 532.9125 166.181291 
L 532.215 166.018117 
L 531.5175 165.916728 
L 530.82 165.871553 
L 530.1225 165.876325 
L 529.425 165.958278 
L 528.7275 166.075462 
L 528.03 166.253724 
L 527.3325 166.484042 
L 526.635 166.756751 
L 525.9375 167.061663 
L 525.24 167.408662 
L 524.5425 167.786645 
L 523.845 168.197771 
L 523.1475 168.643792 
L 522.45 169.091911 
L 521.7525 169.550247 
L 521.055 169.999498 
L 520.3575 170.447769 
L 519.66 170.896351 
L 518.9625 171.332888 
L 518.265 171.74517 
L 517.5675 172.155403 
L 516.87 172.544881 
L 516.1725 172.895151 
L 515.475 173.229185 
L 514.7775 173.536038 
L 514.08 173.811924 
L 513.3825 174.053441 
L 512.685 174.243962 
L 511.9875 174.374312 
L 511.29 174.449708 
L 510.5925 174.482866 
L 509.895 174.487021 
L 509.1975 174.441655 
L 508.5 174.367795 
L 507.8025 174.232238 
L 507.105 174.084418 
L 506.4075 173.898865 
L 505.71 173.684693 
L 505.0125 173.424074 
L 504.315 173.147517 
L 503.6175 172.858432 
L 502.92 172.539918 
L 502.2225 172.236843 
L 501.525 171.91883 
L 500.8275 171.603449 
L 500.13 171.274121 
L 499.4325 170.941734 
L 498.735 170.630856 
L 498.0375 170.338501 
L 497.34 170.068275 
L 496.6425 169.816689 
L 495.945 169.600493 
L 495.2475 169.422354 
L 494.55 169.298117 
L 493.8525 169.188376 
L 493.155 169.128599 
L 492.4575 169.078586 
L 491.76 169.079893 
L 491.0625 169.112034 
L 490.365 169.174613 
L 489.6675 169.260033 
L 488.97 169.380889 
L 488.2725 169.522042 
L 487.575 169.688574 
L 486.8775 169.905723 
L 486.18 170.157164 
L 485.4825 170.426148 
L 484.785 170.709357 
L 484.0875 171.023766 
L 483.39 171.351849 
L 482.6925 171.675914 
L 481.995 171.991961 
L 481.2975 172.309738 
L 480.6 172.611678 
L 479.9025 172.900879 
L 479.205 173.16695 
L 478.5075 173.420254 
L 477.81 173.637197 
L 477.1125 173.828749 
L 476.415 173.9789 
L 475.7175 174.11309 
L 475.02 174.195548 
L 474.3225 174.23208 
L 473.625 174.222235 
L 472.9275 174.159311 
L 472.23 174.044086 
L 471.5325 173.87798 
L 470.835 173.697158 
L 470.1375 173.469735 
L 469.44 173.205341 
L 468.7425 172.920884 
L 468.045 172.613049 
L 467.3475 172.27199 
L 466.65 171.915559 
L 465.9525 171.5618 
L 465.255 171.215079 
L 464.5575 170.859202 
L 463.86 170.498561 
L 463.1625 170.158075 
L 462.465 169.814651 
L 461.7675 169.520289 
L 461.07 169.230859 
L 460.3725 168.956753 
L 459.675 168.701355 
L 458.9775 168.460992 
L 458.28 168.224983 
L 457.5825 168.037178 
L 456.885 167.886249 
L 456.1875 167.753588 
L 455.49 167.647655 
L 454.7925 167.603873 
L 454.095 167.588665 
L 453.3975 167.615866 
L 452.7 167.685141 
L 452.0025 167.802458 
L 451.305 167.959545 
L 450.6075 168.154466 
L 449.91 168.391639 
L 449.2125 168.661313 
L 448.515 168.966986 
L 447.8175 169.298063 
L 447.12 169.636813 
L 446.4225 169.992703 
L 445.725 170.368165 
L 445.0275 170.751745 
L 444.33 171.159178 
L 443.6325 171.558146 
L 442.935 171.943727 
L 442.2375 172.30434 
L 441.54 172.662829 
L 440.8425 172.994301 
L 440.145 173.315137 
L 439.4475 173.600909 
L 438.75 173.875384 
L 438.0525 174.101059 
L 437.355 174.288797 
L 436.6575 174.436281 
L 435.96 174.528046 
L 435.2625 174.576606 
L 434.565 174.574538 
L 433.8675 174.528692 
L 433.17 174.425986 
L 432.4725 174.281334 
L 431.775 174.082874 
L 431.0775 173.833055 
L 430.38 173.534959 
L 429.6825 173.199087 
L 428.985 172.82276 
L 428.2875 172.410619 
L 427.59 171.960928 
L 426.8925 171.486057 
L 426.195 170.998688 
L 425.4975 170.498011 
L 424.8 169.990203 
L 424.1025 169.488351 
L 423.405 168.985002 
L 422.7075 168.513658 
L 422.01 168.046018 
L 421.3125 167.601498 
L 420.615 167.185583 
L 419.9175 166.79658 
L 419.22 166.439289 
L 418.5225 166.118118 
L 417.825 165.850676 
L 417.1275 165.626615 
L 416.43 165.455524 
L 415.7325 165.33269 
L 415.035 165.245982 
L 414.3375 165.223763 
L 413.64 165.259483 
L 412.9425 165.339056 
L 412.245 165.488792 
L 411.5475 165.686374 
L 410.85 165.91572 
L 410.1525 166.187645 
L 409.455 166.498794 
L 408.7575 166.845329 
L 408.06 167.216152 
L 407.3625 167.599863 
L 406.665 168.0122 
L 405.9675 168.413958 
L 405.27 168.82065 
L 404.5725 169.213614 
L 403.875 169.608469 
L 403.1775 169.993521 
L 402.48 170.350374 
L 401.7825 170.695094 
L 401.085 170.996136 
L 400.3875 171.263432 
L 399.69 171.500507 
L 398.9925 171.683967 
L 398.295 171.818372 
L 397.5975 171.922533 
L 396.9 171.981519 
L 396.2025 172.001424 
L 395.505 171.968357 
L 394.8075 171.88955 
L 394.11 171.765974 
L 393.4125 171.571862 
L 392.715 171.336901 
L 392.0175 171.063989 
L 391.32 170.742849 
L 390.6225 170.404733 
L 389.925 170.012875 
L 389.2275 169.592579 
L 388.53 169.169499 
L 387.8325 168.728386 
L 387.135 168.274682 
L 386.4375 167.834454 
L 385.74 167.385841 
L 385.0425 166.934377 
L 384.345 166.499279 
L 383.6475 166.085914 
L 382.95 165.685737 
L 382.2525 165.296861 
L 381.555 164.930907 
L 380.8575 164.599213 
L 380.16 164.299049 
L 379.4625 164.034117 
L 378.765 163.800863 
L 378.0675 163.595342 
L 377.37 163.440558 
L 376.6725 163.317953 
L 375.975 163.242684 
L 375.2775 163.222503 
L 374.58 163.244014 
L 373.8825 163.313774 
L 373.185 163.424099 
L 372.4875 163.580452 
L 371.79 163.780902 
L 371.0925 164.016155 
L 370.395 164.283307 
L 369.6975 164.579063 
L 369 164.920243 
L 368.3025 165.268522 
L 367.605 165.660543 
L 366.9075 166.064175 
L 366.21 166.47444 
L 365.5125 166.893099 
L 364.815 167.314986 
L 364.1175 167.721251 
L 363.42 168.120527 
L 362.7225 168.507888 
L 362.025 168.878556 
L 361.3275 169.227957 
L 360.63 169.565427 
L 359.9325 169.866333 
L 359.235 170.133785 
L 358.5375 170.371307 
L 357.84 170.548676 
L 357.1425 170.690997 
L 356.445 170.776044 
L 355.7475 170.816414 
L 355.05 170.804786 
L 354.3525 170.727657 
L 353.655 170.599624 
L 352.9575 170.415446 
L 352.26 170.191039 
L 351.5625 169.935996 
L 350.865 169.632994 
L 350.1675 169.292594 
L 349.47 168.918996 
L 348.7725 168.516809 
L 348.075 168.097819 
L 347.3775 167.667194 
L 346.68 167.23707 
L 345.9825 166.805932 
L 345.285 166.372274 
L 344.5875 165.94827 
L 343.89 165.545976 
L 343.1925 165.156706 
L 342.495 164.792088 
L 341.7975 164.45662 
L 341.1 164.147617 
L 340.4025 163.882538 
L 339.705 163.664653 
L 339.0075 163.489828 
L 338.31 163.367042 
L 337.6125 163.290988 
L 336.915 163.276249 
L 336.2175 163.323007 
L 335.52 163.41704 
L 334.8225 163.557187 
L 334.125 163.74172 
L 333.4275 163.975184 
L 332.73 164.247876 
L 332.0325 164.549609 
L 331.335 164.890307 
L 330.6375 165.258942 
L 329.94 165.637321 
L 329.2425 166.034422 
L 328.545 166.465815 
L 327.8475 166.892062 
L 327.15 167.335196 
L 326.4525 167.776105 
L 325.755 168.202525 
L 325.0575 168.616019 
L 324.36 169.011485 
L 323.6625 169.384045 
L 322.965 169.729101 
L 322.2675 170.042397 
L 321.57 170.32689 
L 320.8725 170.585894 
L 320.175 170.802567 
L 319.4775 170.981059 
L 318.78 171.119168 
L 318.0825 171.208367 
L 317.385 171.254378 
L 316.6875 171.263457 
L 315.99 171.228669 
L 315.2925 171.157266 
L 314.595 171.050129 
L 313.8975 170.922225 
L 313.2 170.754665 
L 312.5025 170.542691 
L 311.805 170.28892 
L 311.1075 169.996481 
L 310.41 169.675807 
L 309.7125 169.337675 
L 309.015 168.979436 
L 308.3175 168.612332 
L 307.62 168.227245 
L 306.9225 167.842573 
L 306.225 167.456239 
L 305.5275 167.093478 
L 304.83 166.758766 
L 304.1325 166.442587 
L 303.435 166.155663 
L 302.7375 165.908359 
L 302.04 165.690079 
L 301.3425 165.510338 
L 300.645 165.371356 
L 299.9475 165.274846 
L 299.25 165.221999 
L 298.5525 165.213467 
L 297.855 165.249355 
L 297.1575 165.342867 
L 296.46 165.486026 
L 295.7625 165.677066 
L 295.065 165.906806 
L 294.3675 166.179236 
L 293.67 166.490994 
L 292.9725 166.838235 
L 292.275 167.223496 
L 291.5775 167.628379 
L 290.88 168.061534 
L 290.1825 168.503973 
L 289.485 168.963881 
L 288.7875 169.428762 
L 288.09 169.892881 
L 287.3925 170.357334 
L 286.695 170.809569 
L 285.9975 171.250829 
L 285.3 171.662023 
L 284.6025 172.058549 
L 283.905 172.42869 
L 283.2075 172.76788 
L 282.51 173.071935 
L 281.8125 173.337103 
L 281.115 173.560113 
L 280.4175 173.738213 
L 279.72 173.87603 
L 279.0225 173.965039 
L 278.325 174.004143 
L 277.6275 173.999682 
L 276.93 173.951711 
L 276.2325 173.854 
L 275.535 173.714576 
L 274.8375 173.535159 
L 274.14 173.324788 
L 273.4425 173.079233 
L 272.745 172.794701 
L 272.0475 172.488349 
L 271.35 172.15031 
L 270.6525 171.791578 
L 269.955 171.416579 
L 269.2575 171.023115 
L 268.56 170.629689 
L 267.8625 170.241153 
L 267.165 169.869123 
L 266.4675 169.504545 
L 265.77 169.158739 
L 265.0725 168.83597 
L 264.375 168.533399 
L 263.6775 168.268405 
L 262.98 168.03061 
L 262.2825 167.816125 
L 261.585 167.641243 
L 260.8875 167.501298 
L 260.19 167.40484 
L 259.4925 167.353058 
L 258.795 167.346592 
L 258.0975 167.385522 
L 257.4 167.469367 
L 256.7025 167.597093 
L 256.005 167.767123 
L 255.3075 167.984184 
L 254.61 168.231951 
L 253.9125 168.51419 
L 253.215 168.820597 
L 252.5175 169.154213 
L 251.82 169.504101 
L 251.1225 169.865942 
L 250.425 170.242097 
L 249.7275 170.627924 
L 249.03 171.018664 
L 248.3325 171.409495 
L 247.635 171.795596 
L 246.9375 172.172202 
L 246.24 172.521023 
L 245.5425 172.8514 
L 244.845 173.152434 
L 244.1475 173.434057 
L 243.45 173.679149 
L 242.7525 173.891509 
L 242.055 174.061694 
L 241.3575 174.180781 
L 240.66 174.260947 
L 239.9625 174.29438 
L 239.265 174.280667 
L 238.5675 174.213155 
L 237.87 174.092677 
L 237.1725 173.927542 
L 236.475 173.719787 
L 235.7775 173.465152 
L 235.08 173.173602 
L 234.3825 172.848735 
L 233.685 172.494557 
L 232.9875 172.108616 
L 232.29 171.695673 
L 231.5925 171.274469 
L 230.895 170.843378 
L 230.1975 170.400894 
L 229.5 169.959301 
L 228.8025 169.510399 
L 228.105 169.073374 
L 227.4075 168.646795 
L 226.71 168.235923 
L 226.0125 167.852652 
L 225.315 167.494886 
L 224.6175 167.16704 
L 223.92 166.873159 
L 223.2225 166.616867 
L 222.525 166.401328 
L 221.8275 166.2292 
L 221.13 166.102608 
L 220.4325 166.016289 
L 219.735 165.978131 
L 219.0375 165.981784 
L 218.34 166.034023 
L 217.6425 166.134206 
L 216.945 166.281095 
L 216.2475 166.47288 
L 215.55 166.707193 
L 214.8525 166.981143 
L 214.155 167.291352 
L 213.4575 167.640815 
L 212.76 168.018396 
L 212.0625 168.419439 
L 211.365 168.845818 
L 210.6675 169.28545 
L 209.97 169.73291 
L 209.2725 170.182678 
L 208.575 170.629206 
L 207.8775 171.066984 
L 207.18 171.490611 
L 206.4825 171.894861 
L 205.785 172.274746 
L 205.0875 172.62558 
L 204.39 172.943033 
L 203.6925 173.22319 
L 202.995 173.462595 
L 202.2975 173.671939 
L 201.6 173.834993 
L 200.9025 173.949747 
L 200.205 174.014784 
L 199.5075 174.029302 
L 198.81 173.993122 
L 198.1125 173.913513 
L 197.415 173.784634 
L 196.7175 173.608076 
L 196.02 173.386016 
L 195.3225 173.121194 
L 194.625 172.816878 
L 193.9275 172.476822 
L 193.23 172.105221 
L 192.5325 171.706661 
L 191.835 171.286057 
L 191.1375 170.8486 
L 190.44 170.399686 
L 189.7425 169.944854 
L 189.045 169.489716 
L 188.3475 169.039886 
L 187.65 168.600915 
L 186.9525 168.178217 
L 186.255 167.777009 
L 185.5575 167.40224 
L 184.86 167.058533 
L 184.1625 166.75013 
L 183.465 166.480835 
L 182.7675 166.25397 
L 182.07 166.072334 
L 181.3725 165.938169 
L 180.675 165.853129 
L 179.9775 165.818265 
L 179.28 165.834005 
L 178.5825 165.900155 
L 177.885 166.015901 
L 177.1875 166.179812 
L 176.49 166.389869 
L 175.7925 166.643477 
L 175.095 166.93751 
L 174.3975 167.268339 
L 173.7 167.631883 
L 173.0025 168.023656 
L 172.305 168.438825 
L 171.6075 168.872268 
L 170.91 169.318638 
L 170.2125 169.772426 
L 169.515 170.228036 
L 168.8175 170.679845 
L 168.12 171.122279 
L 167.4225 171.543058 
L 166.725 171.943811 
L 166.0275 172.319597 
L 165.33 172.665777 
L 164.6325 172.978082 
L 163.935 173.252658 
L 163.2375 173.486117 
L 162.54 173.675579 
L 161.8425 173.811885 
L 161.145 173.900174 
L 160.4475 173.939358 
L 159.75 173.928954 
L 159.0525 173.86909 
L 158.355 173.760504 
L 157.6575 173.604536 
L 156.96 173.40311 
L 156.2625 173.158711 
L 155.565 172.874356 
L 154.8675 172.553551 
L 154.17 172.200255 
L 153.4725 171.818826 
L 152.775 171.413971 
L 152.0775 170.98386 
L 151.38 170.540625 
L 150.6825 170.082909 
L 149.985 169.623184 
L 149.2875 169.167121 
L 148.59 168.720346 
L 147.8925 168.288372 
L 147.195 167.876528 
L 146.4975 167.489895 
L 145.8 167.133243 
L 145.1025 166.810973 
L 144.405 166.52706 
L 143.7075 166.285008 
L 143.01 166.087801 
L 142.3125 165.937875 
L 141.615 165.837077 
L 140.9175 165.786653 
L 140.22 165.787223 
L 139.5225 165.831958 
L 138.825 165.927129 
L 138.1275 166.071561 
L 137.43 166.270297 
L 136.7325 166.51406 
L 136.035 166.799845 
L 135.3375 167.124123 
L 134.64 167.482896 
L 133.9425 167.87856 
L 133.245 168.299409 
L 132.5475 168.740253 
L 131.85 169.195651 
L 131.1525 169.659987 
L 130.455 170.12753 
L 129.7575 170.592512 
L 129.06 171.049198 
L 128.3625 171.491952 
L 127.665 171.915313 
L 126.9675 172.314056 
L 126.27 172.683263 
L 125.5725 173.018378 
L 124.875 173.315267 
L 124.1775 173.570268 
L 123.48 173.780233 
L 122.7825 173.942573 
L 122.085 174.055285 
L 121.3875 174.116978 
L 120.69 174.126891 
L 119.9925 174.084902 
L 119.295 173.991529 
L 118.5975 173.847923 
L 117.9 173.655857 
L 117.2025 173.417701 
L 116.505 173.136391 
L 115.8075 172.815399 
L 115.11 172.458686 
L 114.4125 172.070652 
L 113.715 171.656084 
L 113.0175 171.220098 
L 112.32 170.768071 
L 111.6225 170.305582 
L 110.925 169.838336 
L 110.2275 169.372097 
L 109.53 168.912617 
L 108.8325 168.465567 
L 108.135 168.03646 
L 107.4375 167.630591 
L 106.74 167.252968 
L 106.0425 166.908249 
L 105.345 166.600687 
L 104.6475 166.334077 
L 103.95 166.111708 
L 103.2525 165.936324 
L 102.555 165.810088 
L 101.8575 165.734558 
L 101.16 165.710665 
L 100.4625 165.738705 
L 99.765 165.818331 
L 99.0675 165.948562 
L 98.37 166.127789 
L 97.6725 166.353803 
L 96.975 166.623815 
L 96.2775 166.934492 
L 95.58 167.282004 
L 94.8825 167.668885 
L 94.185 168.083538 
L 93.4875 168.520849 
L 92.79 168.975422 
L 92.0925 169.441648 
L 91.395 169.913776 
L 90.6975 170.385981 
L 90 170.852437 
z
" style="fill:#e0ffff;"/>
   </g>
   <g id="line2d_15">
    <path clip-path="url(#p6fdc927b19)" d="M 90 170.852437 
L 94.8825 167.668885 
L 96.975 166.623815 
L 98.37 166.127789 
L 99.765 165.818331 
L 101.16 165.710665 
L 102.555 165.810088 
L 103.95 166.111708 
L 105.345 166.600687 
L 107.4375 167.630591 
L 110.2275 169.372097 
L 114.4125 172.070652 
L 116.505 173.136391 
L 117.9 173.655857 
L 119.295 173.991529 
L 120.69 174.126891 
L 122.085 174.055285 
L 123.48 173.780233 
L 124.875 173.315267 
L 126.9675 172.314056 
L 129.7575 170.592512 
L 133.9425 167.87856 
L 136.035 166.799845 
L 137.43 166.270297 
L 138.825 165.927129 
L 140.22 165.787223 
L 141.615 165.837077 
L 143.01 166.087801 
L 144.405 166.52706 
L 146.4975 167.489895 
L 148.59 168.720346 
L 154.17 172.200255 
L 156.2625 173.158711 
L 157.6575 173.604536 
L 159.0525 173.86909 
L 160.4475 173.939358 
L 161.8425 173.811885 
L 163.2375 173.486117 
L 164.6325 172.978082 
L 166.725 171.943811 
L 169.515 170.228036 
L 173.0025 168.023656 
L 175.095 166.93751 
L 176.49 166.389869 
L 177.885 166.015901 
L 179.28 165.834005 
L 180.675 165.853129 
L 182.07 166.072334 
L 183.465 166.480835 
L 185.5575 167.40224 
L 187.65 168.600915 
L 193.9275 172.476822 
L 196.02 173.386016 
L 197.415 173.784634 
L 198.81 173.993122 
L 200.205 174.014784 
L 201.6 173.834993 
L 202.995 173.462595 
L 204.39 172.943033 
L 206.4825 171.894861 
L 209.2725 170.182678 
L 212.76 168.018396 
L 214.8525 166.981143 
L 216.2475 166.47288 
L 217.6425 166.134206 
L 219.0375 165.981784 
L 220.4325 166.016289 
L 221.8275 166.2292 
L 223.2225 166.616867 
L 225.315 167.494886 
L 227.4075 168.646795 
L 234.3825 172.848735 
L 236.475 173.719787 
L 237.87 174.092677 
L 239.265 174.280667 
L 240.66 174.260947 
L 242.055 174.061694 
L 243.45 173.679149 
L 245.5425 172.8514 
L 248.3325 171.409495 
L 252.5175 169.154213 
L 254.61 168.231951 
L 256.7025 167.597093 
L 258.0975 167.385522 
L 259.4925 167.353058 
L 260.8875 167.501298 
L 262.98 168.03061 
L 265.0725 168.83597 
L 267.8625 170.241153 
L 272.0475 172.488349 
L 274.14 173.324788 
L 276.2325 173.854 
L 277.6275 173.999682 
L 279.0225 173.965039 
L 280.4175 173.738213 
L 281.8125 173.337103 
L 283.905 172.42869 
L 285.9975 171.250829 
L 293.67 166.490994 
L 295.7625 165.677066 
L 297.1575 165.342867 
L 298.5525 165.213467 
L 299.9475 165.274846 
L 301.3425 165.510338 
L 303.435 166.155663 
L 305.5275 167.093478 
L 311.805 170.28892 
L 313.2 170.754665 
L 315.2925 171.157266 
L 316.6875 171.263457 
L 318.0825 171.208367 
L 319.4775 170.981059 
L 320.8725 170.585894 
L 322.965 169.729101 
L 325.0575 168.616019 
L 332.0325 164.549609 
L 334.125 163.74172 
L 335.52 163.41704 
L 336.915 163.276249 
L 338.31 163.367042 
L 339.705 163.664653 
L 341.1 164.147617 
L 343.1925 165.156706 
L 345.9825 166.805932 
L 350.1675 169.292594 
L 352.26 170.191039 
L 353.655 170.599624 
L 355.05 170.804786 
L 356.445 170.776044 
L 357.84 170.548676 
L 359.235 170.133785 
L 361.3275 169.227957 
L 364.1175 167.721251 
L 369.6975 164.579063 
L 371.79 163.780902 
L 373.185 163.424099 
L 374.58 163.244014 
L 375.975 163.242684 
L 377.37 163.440558 
L 378.765 163.800863 
L 380.8575 164.599213 
L 382.95 165.685737 
L 385.74 167.385841 
L 390.6225 170.404733 
L 392.715 171.336901 
L 394.11 171.765974 
L 395.505 171.968357 
L 396.9 171.981519 
L 398.295 171.818372 
L 399.69 171.500507 
L 401.7825 170.695094 
L 404.5725 169.213614 
L 410.1525 166.187645 
L 412.245 165.488792 
L 413.64 165.259483 
L 415.035 165.245982 
L 416.43 165.455524 
L 417.825 165.850676 
L 419.22 166.439289 
L 421.3125 167.601498 
L 424.1025 169.488351 
L 428.2875 172.410619 
L 430.38 173.534959 
L 431.775 174.082874 
L 433.17 174.425986 
L 434.565 174.574538 
L 435.96 174.528046 
L 437.355 174.288797 
L 438.75 173.875384 
L 441.54 172.662829 
L 445.0275 170.751745 
L 447.8175 169.298063 
L 449.91 168.391639 
L 451.305 167.959545 
L 452.7 167.685141 
L 454.095 167.588665 
L 455.49 167.647655 
L 457.5825 168.037178 
L 459.675 168.701355 
L 462.465 169.814651 
L 470.1375 173.469735 
L 472.23 174.044086 
L 473.625 174.222235 
L 475.02 174.195548 
L 476.415 173.9789 
L 478.5075 173.420254 
L 481.2975 172.309738 
L 486.18 170.157164 
L 487.575 169.688574 
L 489.6675 169.260033 
L 491.76 169.079893 
L 493.155 169.128599 
L 494.55 169.298117 
L 495.945 169.600493 
L 498.0375 170.338501 
L 501.525 171.91883 
L 505.0125 173.424074 
L 506.4075 173.898865 
L 508.5 174.367795 
L 510.5925 174.482866 
L 511.9875 174.374312 
L 513.3825 174.053441 
L 515.475 173.229185 
L 517.5675 172.155403 
L 521.055 169.999498 
L 525.24 167.408662 
L 527.3325 166.484042 
L 528.7275 166.075462 
L 530.1225 165.876325 
L 531.5175 165.916728 
L 532.9125 166.181291 
L 534.3075 166.616395 
L 536.4 167.511259 
L 539.19 169.012672 
L 541.98 170.488099 
L 544.0725 171.264854 
L 545.4675 171.571073 
L 546.8625 171.666761 
L 548.2575 171.560857 
L 549.6525 171.258486 
L 551.745 170.423859 
L 553.14 169.673496 
L 555.2325 168.335025 
L 558.72 165.77792 
L 560.8125 164.324961 
L 562.905 163.142868 
L 564.9975 162.286935 
L 566.3925 161.960202 
L 567.7875 161.793842 
L 569.88 161.875005 
L 571.9725 162.320194 
L 573.3675 162.831754 
L 575.46 163.852277 
L 577.5525 165.06119 
L 583.1325 168.669775 
L 585.9225 170.252971 
L 587.3175 170.800415 
L 589.41 171.353976 
L 590.805 171.506863 
L 592.2 171.52044 
L 593.595 171.32623 
L 595.6875 170.801054 
L 598.4775 169.823049 
L 602.6625 168.417864 
L 604.755 168.022965 
L 606.8475 167.998636 
L 608.2425 168.286779 
L 609.6375 168.784658 
L 611.0325 169.494736 
L 612.4275 170.416194 
L 615.2175 172.623623 
L 618.705 175.470876 
L 620.7975 176.955708 
L 622.89 178.092728 
L 624.285 178.65223 
L 625.68 179.047135 
L 627.075 179.210673 
L 628.47 179.148615 
L 629.865 178.904697 
L 631.9575 178.139135 
L 634.05 177.030302 
L 636.1425 175.572012 
L 640.3275 172.51047 
L 642.42 171.272081 
L 644.5125 170.352395 
L 645.9075 169.981408 
L 646.605 169.92 
L 646.605 169.92 
" style="fill:none;stroke:#008080;stroke-linecap:round;stroke-width:1.75;"/>
   </g>
   <g id="patch_3">
    <path d="M 90 270.72 
L 90 69.12 
" style="fill:none;stroke:#262626;stroke-linecap:square;stroke-linejoin:miter;stroke-width:1.25;"/>
   </g>
   <g id="patch_4">
    <path d="M 90 270.72 
L 648 270.72 
" style="fill:none;stroke:#262626;stroke-linecap:square;stroke-linejoin:miter;stroke-width:1.25;"/>
   </g>
  </g>
  <g id="axes_2">
   <g id="patch_5">
    <path d="M 90 512.64 
L 648 512.64 
L 648 311.04 
L 90 311.04 
z
" style="fill:#ffffff;"/>
   </g>
   <g id="matplotlib.axis_3">
    <g id="xtick_10">
     <g id="line2d_16">
      <g>
       <use style="fill:#262626;stroke:#262626;" x="191.454545" xlink:href="#m50e5764bbc" y="512.64"/>
      </g>
     </g>
     <g id="text_15">
      <!-- 200 -->
      <g style="fill:#262626;" transform="translate(183.113139 532.797812)scale(0.1 -0.1)">
       <use xlink:href="#ArialMT-32"/>
       <use x="55.615234" xlink:href="#ArialMT-30"/>
       <use x="111.230469" xlink:href="#ArialMT-30"/>
      </g>
     </g>
    </g>
    <g id="xtick_11">
     <g id="line2d_17">
      <g>
       <use style="fill:#262626;stroke:#262626;" x="304.181818" xlink:href="#m50e5764bbc" y="512.64"/>
      </g>
     </g>
     <g id="text_16">
      <!-- 400 -->
      <g style="fill:#262626;" transform="translate(295.840412 532.797812)scale(0.1 -0.1)">
       <use xlink:href="#ArialMT-34"/>
       <use x="55.615234" xlink:href="#ArialMT-30"/>
       <use x="111.230469" xlink:href="#ArialMT-30"/>
      </g>
     </g>
    </g>
    <g id="xtick_12">
     <g id="line2d_18">
      <g>
       <use style="fill:#262626;stroke:#262626;" x="416.909091" xlink:href="#m50e5764bbc" y="512.64"/>
      </g>
     </g>
     <g id="text_17">
      <!-- 600 -->
      <g style="fill:#262626;" transform="translate(408.567685 532.797812)scale(0.1 -0.1)">
       <use xlink:href="#ArialMT-36"/>
       <use x="55.615234" xlink:href="#ArialMT-30"/>
       <use x="111.230469" xlink:href="#ArialMT-30"/>
      </g>
     </g>
    </g>
    <g id="xtick_13">
     <g id="line2d_19">
      <g>
       <use style="fill:#262626;stroke:#262626;" x="529.636364" xlink:href="#m50e5764bbc" y="512.64"/>
      </g>
     </g>
     <g id="text_18">
      <!-- 800 -->
      <g style="fill:#262626;" transform="translate(521.294957 532.797812)scale(0.1 -0.1)">
       <use xlink:href="#ArialMT-38"/>
       <use x="55.615234" xlink:href="#ArialMT-30"/>
       <use x="111.230469" xlink:href="#ArialMT-30"/>
      </g>
     </g>
    </g>
    <g id="xtick_14">
     <g id="line2d_20">
      <g>
       <use style="fill:#262626;stroke:#262626;" x="642.363636" xlink:href="#m50e5764bbc" y="512.64"/>
      </g>
     </g>
     <g id="text_19">
      <!-- 1000 -->
      <g style="fill:#262626;" transform="translate(631.241761 532.797812)scale(0.1 -0.1)">
       <use xlink:href="#ArialMT-31"/>
       <use x="55.615234" xlink:href="#ArialMT-30"/>
       <use x="111.230469" xlink:href="#ArialMT-30"/>
       <use x="166.845703" xlink:href="#ArialMT-30"/>
      </g>
     </g>
    </g>
   </g>
   <g id="matplotlib.axis_4">
    <g id="ytick_6">
     <g id="line2d_21">
      <g>
       <use style="fill:#262626;stroke:#262626;" x="90" xlink:href="#ma1daf577da" y="512.64"/>
      </g>
     </g>
     <g id="text_20">
      <!-- 0 -->
      <g style="fill:#262626;" transform="translate(71.439063 516.218906)scale(0.1 -0.1)">
       <use xlink:href="#ArialMT-30"/>
      </g>
     </g>
    </g>
    <g id="ytick_7">
     <g id="line2d_22">
      <g>
       <use style="fill:#262626;stroke:#262626;" x="90" xlink:href="#ma1daf577da" y="490.24"/>
      </g>
     </g>
     <g id="text_21">
      <!-- 2 -->
      <g style="fill:#262626;" transform="translate(71.439063 493.818906)scale(0.1 -0.1)">
       <use xlink:href="#ArialMT-32"/>
      </g>
     </g>
    </g>
    <g id="ytick_8">
     <g id="line2d_23">
      <g>
       <use style="fill:#262626;stroke:#262626;" x="90" xlink:href="#ma1daf577da" y="467.84"/>
      </g>
     </g>
     <g id="text_22">
      <!-- 4 -->
      <g style="fill:#262626;" transform="translate(71.439063 471.418906)scale(0.1 -0.1)">
       <use xlink:href="#ArialMT-34"/>
      </g>
     </g>
    </g>
    <g id="ytick_9">
     <g id="line2d_24">
      <g>
       <use style="fill:#262626;stroke:#262626;" x="90" xlink:href="#ma1daf577da" y="445.44"/>
      </g>
     </g>
     <g id="text_23">
      <!-- 6 -->
      <g style="fill:#262626;" transform="translate(71.439063 449.018906)scale(0.1 -0.1)">
       <use xlink:href="#ArialMT-36"/>
      </g>
     </g>
    </g>
    <g id="ytick_10">
     <g id="line2d_25">
      <g>
       <use style="fill:#262626;stroke:#262626;" x="90" xlink:href="#ma1daf577da" y="423.04"/>
      </g>
     </g>
     <g id="text_24">
      <!-- 8 -->
      <g style="fill:#262626;" transform="translate(71.439063 426.618906)scale(0.1 -0.1)">
       <use xlink:href="#ArialMT-38"/>
      </g>
     </g>
    </g>
    <g id="ytick_11">
     <g id="line2d_26">
      <g>
       <use style="fill:#262626;stroke:#262626;" x="90" xlink:href="#ma1daf577da" y="400.64"/>
      </g>
     </g>
     <g id="text_25">
      <!-- 10 -->
      <g style="fill:#262626;" transform="translate(65.878125 404.218906)scale(0.1 -0.1)">
       <use xlink:href="#ArialMT-31"/>
       <use x="55.615234" xlink:href="#ArialMT-30"/>
      </g>
     </g>
    </g>
    <g id="ytick_12">
     <g id="line2d_27">
      <g>
       <use style="fill:#262626;stroke:#262626;" x="90" xlink:href="#ma1daf577da" y="378.24"/>
      </g>
     </g>
     <g id="text_26">
      <!-- 12 -->
      <g style="fill:#262626;" transform="translate(65.878125 381.818906)scale(0.1 -0.1)">
       <use xlink:href="#ArialMT-31"/>
       <use x="55.615234" xlink:href="#ArialMT-32"/>
      </g>
     </g>
    </g>
    <g id="ytick_13">
     <g id="line2d_28">
      <g>
       <use style="fill:#262626;stroke:#262626;" x="90" xlink:href="#ma1daf577da" y="355.84"/>
      </g>
     </g>
     <g id="text_27">
      <!-- 14 -->
      <g style="fill:#262626;" transform="translate(65.878125 359.418906)scale(0.1 -0.1)">
       <use xlink:href="#ArialMT-31"/>
       <use x="55.615234" xlink:href="#ArialMT-34"/>
      </g>
     </g>
    </g>
    <g id="ytick_14">
     <g id="line2d_29">
      <g>
       <use style="fill:#262626;stroke:#262626;" x="90" xlink:href="#ma1daf577da" y="333.44"/>
      </g>
     </g>
     <g id="text_28">
      <!-- 16 -->
      <g style="fill:#262626;" transform="translate(65.878125 337.018906)scale(0.1 -0.1)">
       <use xlink:href="#ArialMT-31"/>
       <use x="55.615234" xlink:href="#ArialMT-36"/>
      </g>
     </g>
    </g>
    <g id="ytick_15">
     <g id="line2d_30">
      <g>
       <use style="fill:#262626;stroke:#262626;" x="90" xlink:href="#ma1daf577da" y="311.04"/>
      </g>
     </g>
     <g id="text_29">
      <!-- 18 -->
      <g style="fill:#262626;" transform="translate(65.878125 314.618906)scale(0.1 -0.1)">
       <use xlink:href="#ArialMT-31"/>
       <use x="55.615234" xlink:href="#ArialMT-38"/>
      </g>
     </g>
    </g>
   </g>
   <g id="line2d_31">
    <path clip-path="url(#pc2d894adef)" d="M 90 477.654723 
L 95.636364 452.736402 
L 101.272727 431.923589 
L 106.909091 427.92302 
L 112.545455 440.45326 
L 118.181818 444.705349 
L 123.818182 448.961059 
L 129.454545 457.370701 
L 135.090909 456.375715 
L 140.727273 434.868159 
L 146.363636 408.816951 
L 152 389.988216 
L 157.636364 371.492183 
L 163.272727 352.310178 
L 168.909091 342.280664 
L 174.545455 348.647566 
L 180.181818 355.802406 
L 185.818182 363.350788 
L 191.454545 378.270766 
L 197.090909 391.147889 
L 202.727273 394.129256 
L 208.363636 396.550705 
L 214 393.395457 
L 219.636364 389.651786 
L 225.272727 392.702199 
L 230.909091 396.085016 
L 236.545455 399.690878 
L 242.181818 407.737617 
L 247.818182 414.331388 
L 253.454545 417.809913 
L 259.090909 422.903097 
L 264.727273 426.347751 
L 270.363636 429.764905 
L 276 436.797845 
L 281.636364 444.59905 
L 287.272727 452.348689 
L 292.909091 461.235722 
L 298.545455 467.982454 
L 304.181818 471.144774 
L 309.818182 472.257688 
L 315.454545 471.707893 
L 321.090909 472.117482 
L 326.727273 473.818281 
L 332.363636 475.619312 
L 338 478.193498 
L 343.636364 480.655986 
L 349.272727 482.144164 
L 354.909091 483.974362 
L 360.545455 485.825198 
L 366.181818 487.914885 
L 371.818182 490.804554 
L 377.454545 493.872728 
L 383.090909 496.544264 
L 388.727273 498.469641 
L 394.363636 499.417825 
L 400 499.768128 
L 405.636364 498.821458 
L 411.272727 497.224183 
L 416.909091 494.909956 
L 422.545455 492.447818 
L 428.181818 490.656474 
L 433.818182 489.398754 
L 439.454545 488.863228 
L 445.090909 489.4762 
L 450.727273 490.947183 
L 456.363636 492.717187 
L 462 494.86505 
L 467.636364 496.940627 
L 473.272727 498.413462 
L 478.909091 499.664059 
L 484.545455 500.693175 
L 490.181818 501.817475 
L 495.818182 503.208137 
L 501.454545 504.425298 
L 507.090909 503.990365 
L 512.727273 502.20513 
L 518.363636 500.243953 
" style="fill:none;stroke:#b22222;stroke-linecap:round;stroke-width:1.75;"/>
   </g>
   <g id="line2d_32">
    <path clip-path="url(#pc2d894adef)" d="M 152 512.64 
L 152 311.04 
" style="fill:none;stroke:#4c72b0;stroke-linecap:round;stroke-width:1.75;"/>
   </g>
   <g id="patch_6">
    <path d="M 90 512.64 
L 90 311.04 
" style="fill:none;stroke:#262626;stroke-linecap:square;stroke-linejoin:miter;stroke-width:1.25;"/>
   </g>
   <g id="patch_7">
    <path d="M 90 512.64 
L 648 512.64 
" style="fill:none;stroke:#262626;stroke-linecap:square;stroke-linejoin:miter;stroke-width:1.25;"/>
   </g>
   <g id="text_30">
    <!-- f = 780 Hz -->
    <defs>
     <path d="M 8.6875 0 
L 8.6875 45.015625 
L 0.921875 45.015625 
L 0.921875 51.859375 
L 8.6875 51.859375 
L 8.6875 57.375 
Q 8.6875 62.59375 9.625 65.140625 
Q 10.890625 68.5625 14.078125 70.671875 
Q 17.28125 72.796875 23.046875 72.796875 
Q 26.765625 72.796875 31.25 71.921875 
L 29.9375 64.265625 
Q 27.203125 64.75 24.75 64.75 
Q 20.75 64.75 19.09375 63.03125 
Q 17.4375 61.328125 17.4375 56.640625 
L 17.4375 51.859375 
L 27.546875 51.859375 
L 27.546875 45.015625 
L 17.4375 45.015625 
L 17.4375 0 
z
" id="ArialMT-66"/>
     <path id="ArialMT-20"/>
     <path d="M 52.828125 42.09375 
L 5.5625 42.09375 
L 5.5625 50.296875 
L 52.828125 50.296875 
z
M 52.828125 20.359375 
L 5.5625 20.359375 
L 5.5625 28.5625 
L 52.828125 28.5625 
z
" id="ArialMT-3d"/>
     <path d="M 8.015625 0 
L 8.015625 71.578125 
L 17.484375 71.578125 
L 17.484375 42.1875 
L 54.6875 42.1875 
L 54.6875 71.578125 
L 64.15625 71.578125 
L 64.15625 0 
L 54.6875 0 
L 54.6875 33.734375 
L 17.484375 33.734375 
L 17.484375 0 
z
" id="ArialMT-48"/>
     <path d="M 1.953125 0 
L 1.953125 7.125 
L 34.96875 45.015625 
Q 29.34375 44.734375 25.046875 44.734375 
L 3.90625 44.734375 
L 3.90625 51.859375 
L 46.296875 51.859375 
L 46.296875 46.046875 
L 18.21875 13.140625 
L 12.796875 7.125 
Q 18.703125 7.5625 23.875 7.5625 
L 47.859375 7.5625 
L 47.859375 0 
z
" id="ArialMT-7a"/>
    </defs>
    <g style="fill:#262626;" transform="translate(529.636364 403.742188)scale(0.12 -0.12)">
     <use xlink:href="#ArialMT-66"/>
     <use x="27.783203" xlink:href="#ArialMT-20"/>
     <use x="55.566406" xlink:href="#ArialMT-3d"/>
     <use x="113.964844" xlink:href="#ArialMT-20"/>
     <use x="141.748047" xlink:href="#ArialMT-37"/>
     <use x="197.363281" xlink:href="#ArialMT-38"/>
     <use x="252.978516" xlink:href="#ArialMT-30"/>
     <use x="308.59375" xlink:href="#ArialMT-20"/>
     <use x="336.376953" xlink:href="#ArialMT-48"/>
     <use x="408.59375" xlink:href="#ArialMT-7a"/>
    </g>
   </g>
   <g id="PathCollection_1">
    <defs>
     <path d="M 0 3.5 
C 0.928211 3.5 1.81853 3.131218 2.474874 2.474874 
C 3.131218 1.81853 3.5 0.928211 3.5 0 
C 3.5 -0.928211 3.131218 -1.81853 2.474874 -2.474874 
C 1.81853 -3.131218 0.928211 -3.5 0 -3.5 
C -0.928211 -3.5 -1.81853 -3.131218 -2.474874 -2.474874 
C -3.131218 -1.81853 -3.5 -0.928211 -3.5 0 
C -3.5 0.928211 -3.131218 1.81853 -2.474874 2.474874 
C -1.81853 3.131218 -0.928211 3.5 0 3.5 
z
" id="m60ae67e97d" style="stroke:#800000;stroke-width:0.3;"/>
    </defs>
    <g clip-path="url(#pc2d894adef)">
     <use style="fill:#800000;stroke:#800000;stroke-width:0.3;" x="518.363636" xlink:href="#m60ae67e97d" y="500.243953"/>
    </g>
   </g>
  </g>
 </g>
 <defs>
  <clipPath id="p6fdc927b19">
   <rect height="201.6" width="558" x="90" y="69.12"/>
  </clipPath>
  <clipPath id="pc2d894adef">
   <rect height="201.6" width="558" x="90" y="311.04"/>
  </clipPath>
 </defs>
</svg>
