<?xml version="1.0" encoding="utf-8" standalone="no"?>
<!DOCTYPE svg PUBLIC "-//W3C//DTD SVG 1.1//EN"
  "http://www.w3.org/Graphics/SVG/1.1/DTD/svg11.dtd">
<!-- Created with matplotlib (http://matplotlib.org/) -->
<svg height="576pt" version="1.1" viewBox="0 0 720 576" width="720pt" xmlns="http://www.w3.org/2000/svg" xmlns:xlink="http://www.w3.org/1999/xlink">
 <defs>
  <style type="text/css">
*{stroke-linecap:butt;stroke-linejoin:round;}
  </style>
 </defs>
 <g id="figure_1">
  <g id="patch_1">
   <path d="M 0 576 
L 720 576 
L 720 0 
L 0 0 
z
" style="fill:#ffffff;"/>
  </g>
  <g id="axes_1">
   <g id="patch_2">
    <path d="M 90 270.72 
L 648 270.72 
L 648 69.12 
L 90 69.12 
z
" style="fill:#ffffff;"/>
   </g>
   <g id="matplotlib.axis_1">
    <g id="xtick_1">
     <g id="line2d_1">
      <defs>
       <path d="M 0 0 
L 0 6 
" id="mf10e381c69" style="stroke:#262626;"/>
      </defs>
      <g>
       <use style="fill:#262626;stroke:#262626;" x="90" xlink:href="#mf10e381c69" y="270.72"/>
      </g>
     </g>
     <g id="text_1">
      <!-- 0 -->
      <defs>
       <path d="M 4.15625 35.296875 
Q 4.15625 48 6.765625 55.734375 
Q 9.375 63.484375 14.515625 67.671875 
Q 19.671875 71.875 27.484375 71.875 
Q 33.25 71.875 37.59375 69.546875 
Q 41.9375 67.234375 44.765625 62.859375 
Q 47.609375 58.5 49.21875 52.21875 
Q 50.828125 45.953125 50.828125 35.296875 
Q 50.828125 22.703125 48.234375 14.96875 
Q 45.65625 7.234375 40.5 3 
Q 35.359375 -1.21875 27.484375 -1.21875 
Q 17.140625 -1.21875 11.234375 6.203125 
Q 4.15625 15.140625 4.15625 35.296875 
z
M 13.1875 35.296875 
Q 13.1875 17.671875 17.3125 11.828125 
Q 21.4375 6 27.484375 6 
Q 33.546875 6 37.671875 11.859375 
Q 41.796875 17.71875 41.796875 35.296875 
Q 41.796875 52.984375 37.671875 58.78125 
Q 33.546875 64.59375 27.390625 64.59375 
Q 21.34375 64.59375 17.71875 59.46875 
Q 13.1875 52.9375 13.1875 35.296875 
z
" id="ArialMT-30"/>
      </defs>
      <g style="fill:#262626;" transform="translate(87.219531 290.877812)scale(0.1 -0.1)">
       <use xlink:href="#ArialMT-30"/>
      </g>
     </g>
    </g>
    <g id="xtick_2">
     <g id="line2d_2">
      <g>
       <use style="fill:#262626;stroke:#262626;" x="159.75" xlink:href="#mf10e381c69" y="270.72"/>
      </g>
     </g>
     <g id="text_2">
      <!-- 100 -->
      <defs>
       <path d="M 37.25 0 
L 28.46875 0 
L 28.46875 56 
Q 25.296875 52.984375 20.140625 49.953125 
Q 14.984375 46.921875 10.890625 45.40625 
L 10.890625 53.90625 
Q 18.265625 57.375 23.78125 62.296875 
Q 29.296875 67.234375 31.59375 71.875 
L 37.25 71.875 
z
" id="ArialMT-31"/>
      </defs>
      <g style="fill:#262626;" transform="translate(151.408594 290.877812)scale(0.1 -0.1)">
       <use xlink:href="#ArialMT-31"/>
       <use x="55.615234" xlink:href="#ArialMT-30"/>
       <use x="111.230469" xlink:href="#ArialMT-30"/>
      </g>
     </g>
    </g>
    <g id="xtick_3">
     <g id="line2d_3">
      <g>
       <use style="fill:#262626;stroke:#262626;" x="229.5" xlink:href="#mf10e381c69" y="270.72"/>
      </g>
     </g>
     <g id="text_3">
      <!-- 200 -->
      <defs>
       <path d="M 50.34375 8.453125 
L 50.34375 0 
L 3.03125 0 
Q 2.9375 3.171875 4.046875 6.109375 
Q 5.859375 10.9375 9.828125 15.625 
Q 13.8125 20.3125 21.34375 26.46875 
Q 33.015625 36.03125 37.109375 41.625 
Q 41.21875 47.21875 41.21875 52.203125 
Q 41.21875 57.421875 37.46875 61 
Q 33.734375 64.59375 27.734375 64.59375 
Q 21.390625 64.59375 17.578125 60.78125 
Q 13.765625 56.984375 13.71875 50.25 
L 4.6875 51.171875 
Q 5.609375 61.28125 11.65625 66.578125 
Q 17.71875 71.875 27.9375 71.875 
Q 38.234375 71.875 44.234375 66.15625 
Q 50.25 60.453125 50.25 52 
Q 50.25 47.703125 48.484375 43.546875 
Q 46.734375 39.40625 42.65625 34.8125 
Q 38.578125 30.21875 29.109375 22.21875 
Q 21.1875 15.578125 18.9375 13.203125 
Q 16.703125 10.84375 15.234375 8.453125 
z
" id="ArialMT-32"/>
      </defs>
      <g style="fill:#262626;" transform="translate(221.158594 290.877812)scale(0.1 -0.1)">
       <use xlink:href="#ArialMT-32"/>
       <use x="55.615234" xlink:href="#ArialMT-30"/>
       <use x="111.230469" xlink:href="#ArialMT-30"/>
      </g>
     </g>
    </g>
    <g id="xtick_4">
     <g id="line2d_4">
      <g>
       <use style="fill:#262626;stroke:#262626;" x="299.25" xlink:href="#mf10e381c69" y="270.72"/>
      </g>
     </g>
     <g id="text_4">
      <!-- 300 -->
      <defs>
       <path d="M 4.203125 18.890625 
L 12.984375 20.0625 
Q 14.5 12.59375 18.140625 9.296875 
Q 21.78125 6 27 6 
Q 33.203125 6 37.46875 10.296875 
Q 41.75 14.59375 41.75 20.953125 
Q 41.75 27 37.796875 30.921875 
Q 33.84375 34.859375 27.734375 34.859375 
Q 25.25 34.859375 21.53125 33.890625 
L 22.515625 41.609375 
Q 23.390625 41.5 23.921875 41.5 
Q 29.546875 41.5 34.03125 44.421875 
Q 38.53125 47.359375 38.53125 53.46875 
Q 38.53125 58.296875 35.25 61.46875 
Q 31.984375 64.65625 26.8125 64.65625 
Q 21.6875 64.65625 18.265625 61.421875 
Q 14.84375 58.203125 13.875 51.765625 
L 5.078125 53.328125 
Q 6.6875 62.15625 12.390625 67.015625 
Q 18.109375 71.875 26.609375 71.875 
Q 32.46875 71.875 37.390625 69.359375 
Q 42.328125 66.84375 44.9375 62.5 
Q 47.5625 58.15625 47.5625 53.265625 
Q 47.5625 48.640625 45.0625 44.828125 
Q 42.578125 41.015625 37.703125 38.765625 
Q 44.046875 37.3125 47.5625 32.6875 
Q 51.078125 28.078125 51.078125 21.140625 
Q 51.078125 11.765625 44.234375 5.25 
Q 37.40625 -1.265625 26.953125 -1.265625 
Q 17.53125 -1.265625 11.296875 4.34375 
Q 5.078125 9.96875 4.203125 18.890625 
z
" id="ArialMT-33"/>
      </defs>
      <g style="fill:#262626;" transform="translate(290.908594 290.877812)scale(0.1 -0.1)">
       <use xlink:href="#ArialMT-33"/>
       <use x="55.615234" xlink:href="#ArialMT-30"/>
       <use x="111.230469" xlink:href="#ArialMT-30"/>
      </g>
     </g>
    </g>
    <g id="xtick_5">
     <g id="line2d_5">
      <g>
       <use style="fill:#262626;stroke:#262626;" x="369" xlink:href="#mf10e381c69" y="270.72"/>
      </g>
     </g>
     <g id="text_5">
      <!-- 400 -->
      <defs>
       <path d="M 32.328125 0 
L 32.328125 17.140625 
L 1.265625 17.140625 
L 1.265625 25.203125 
L 33.9375 71.578125 
L 41.109375 71.578125 
L 41.109375 25.203125 
L 50.78125 25.203125 
L 50.78125 17.140625 
L 41.109375 17.140625 
L 41.109375 0 
z
M 32.328125 25.203125 
L 32.328125 57.46875 
L 9.90625 25.203125 
z
" id="ArialMT-34"/>
      </defs>
      <g style="fill:#262626;" transform="translate(360.658594 290.877812)scale(0.1 -0.1)">
       <use xlink:href="#ArialMT-34"/>
       <use x="55.615234" xlink:href="#ArialMT-30"/>
       <use x="111.230469" xlink:href="#ArialMT-30"/>
      </g>
     </g>
    </g>
    <g id="xtick_6">
     <g id="line2d_6">
      <g>
       <use style="fill:#262626;stroke:#262626;" x="438.75" xlink:href="#mf10e381c69" y="270.72"/>
      </g>
     </g>
     <g id="text_6">
      <!-- 500 -->
      <defs>
       <path d="M 4.15625 18.75 
L 13.375 19.53125 
Q 14.40625 12.796875 18.140625 9.390625 
Q 21.875 6 27.15625 6 
Q 33.5 6 37.890625 10.78125 
Q 42.28125 15.578125 42.28125 23.484375 
Q 42.28125 31 38.0625 35.34375 
Q 33.84375 39.703125 27 39.703125 
Q 22.75 39.703125 19.328125 37.765625 
Q 15.921875 35.84375 13.96875 32.765625 
L 5.71875 33.84375 
L 12.640625 70.609375 
L 48.25 70.609375 
L 48.25 62.203125 
L 19.671875 62.203125 
L 15.828125 42.96875 
Q 22.265625 47.46875 29.34375 47.46875 
Q 38.71875 47.46875 45.15625 40.96875 
Q 51.609375 34.46875 51.609375 24.265625 
Q 51.609375 14.546875 45.953125 7.46875 
Q 39.0625 -1.21875 27.15625 -1.21875 
Q 17.390625 -1.21875 11.203125 4.25 
Q 5.03125 9.71875 4.15625 18.75 
z
" id="ArialMT-35"/>
      </defs>
      <g style="fill:#262626;" transform="translate(430.408594 290.877812)scale(0.1 -0.1)">
       <use xlink:href="#ArialMT-35"/>
       <use x="55.615234" xlink:href="#ArialMT-30"/>
       <use x="111.230469" xlink:href="#ArialMT-30"/>
      </g>
     </g>
    </g>
    <g id="xtick_7">
     <g id="line2d_7">
      <g>
       <use style="fill:#262626;stroke:#262626;" x="508.5" xlink:href="#mf10e381c69" y="270.72"/>
      </g>
     </g>
     <g id="text_7">
      <!-- 600 -->
      <defs>
       <path d="M 49.75 54.046875 
L 41.015625 53.375 
Q 39.84375 58.546875 37.703125 60.890625 
Q 34.125 64.65625 28.90625 64.65625 
Q 24.703125 64.65625 21.53125 62.3125 
Q 17.390625 59.28125 14.984375 53.46875 
Q 12.59375 47.65625 12.5 36.921875 
Q 15.671875 41.75 20.265625 44.09375 
Q 24.859375 46.4375 29.890625 46.4375 
Q 38.671875 46.4375 44.84375 39.96875 
Q 51.03125 33.5 51.03125 23.25 
Q 51.03125 16.5 48.125 10.71875 
Q 45.21875 4.9375 40.140625 1.859375 
Q 35.0625 -1.21875 28.609375 -1.21875 
Q 17.625 -1.21875 10.6875 6.859375 
Q 3.765625 14.9375 3.765625 33.5 
Q 3.765625 54.25 11.421875 63.671875 
Q 18.109375 71.875 29.4375 71.875 
Q 37.890625 71.875 43.28125 67.140625 
Q 48.6875 62.40625 49.75 54.046875 
z
M 13.875 23.1875 
Q 13.875 18.65625 15.796875 14.5 
Q 17.71875 10.359375 21.1875 8.171875 
Q 24.65625 6 28.46875 6 
Q 34.03125 6 38.03125 10.484375 
Q 42.046875 14.984375 42.046875 22.703125 
Q 42.046875 30.125 38.078125 34.390625 
Q 34.125 38.671875 28.125 38.671875 
Q 22.171875 38.671875 18.015625 34.390625 
Q 13.875 30.125 13.875 23.1875 
z
" id="ArialMT-36"/>
      </defs>
      <g style="fill:#262626;" transform="translate(500.158594 290.877812)scale(0.1 -0.1)">
       <use xlink:href="#ArialMT-36"/>
       <use x="55.615234" xlink:href="#ArialMT-30"/>
       <use x="111.230469" xlink:href="#ArialMT-30"/>
      </g>
     </g>
    </g>
    <g id="xtick_8">
     <g id="line2d_8">
      <g>
       <use style="fill:#262626;stroke:#262626;" x="578.25" xlink:href="#mf10e381c69" y="270.72"/>
      </g>
     </g>
     <g id="text_8">
      <!-- 700 -->
      <defs>
       <path d="M 4.734375 62.203125 
L 4.734375 70.65625 
L 51.078125 70.65625 
L 51.078125 63.8125 
Q 44.234375 56.546875 37.515625 44.484375 
Q 30.8125 32.421875 27.15625 19.671875 
Q 24.515625 10.6875 23.78125 0 
L 14.75 0 
Q 14.890625 8.453125 18.0625 20.40625 
Q 21.234375 32.375 27.171875 43.484375 
Q 33.109375 54.59375 39.796875 62.203125 
z
" id="ArialMT-37"/>
      </defs>
      <g style="fill:#262626;" transform="translate(569.908594 290.877812)scale(0.1 -0.1)">
       <use xlink:href="#ArialMT-37"/>
       <use x="55.615234" xlink:href="#ArialMT-30"/>
       <use x="111.230469" xlink:href="#ArialMT-30"/>
      </g>
     </g>
    </g>
    <g id="xtick_9">
     <g id="line2d_9">
      <g>
       <use style="fill:#262626;stroke:#262626;" x="648" xlink:href="#mf10e381c69" y="270.72"/>
      </g>
     </g>
     <g id="text_9">
      <!-- 800 -->
      <defs>
       <path d="M 17.671875 38.8125 
Q 12.203125 40.828125 9.5625 44.53125 
Q 6.9375 48.25 6.9375 53.421875 
Q 6.9375 61.234375 12.546875 66.546875 
Q 18.171875 71.875 27.484375 71.875 
Q 36.859375 71.875 42.578125 66.421875 
Q 48.296875 60.984375 48.296875 53.171875 
Q 48.296875 48.1875 45.671875 44.5 
Q 43.0625 40.828125 37.75 38.8125 
Q 44.34375 36.671875 47.78125 31.875 
Q 51.21875 27.09375 51.21875 20.453125 
Q 51.21875 11.28125 44.71875 5.03125 
Q 38.234375 -1.21875 27.640625 -1.21875 
Q 17.046875 -1.21875 10.546875 5.046875 
Q 4.046875 11.328125 4.046875 20.703125 
Q 4.046875 27.6875 7.59375 32.390625 
Q 11.140625 37.109375 17.671875 38.8125 
z
M 15.921875 53.71875 
Q 15.921875 48.640625 19.1875 45.40625 
Q 22.46875 42.1875 27.6875 42.1875 
Q 32.765625 42.1875 36.015625 45.375 
Q 39.265625 48.578125 39.265625 53.21875 
Q 39.265625 58.0625 35.90625 61.359375 
Q 32.5625 64.65625 27.59375 64.65625 
Q 22.5625 64.65625 19.234375 61.421875 
Q 15.921875 58.203125 15.921875 53.71875 
z
M 13.09375 20.65625 
Q 13.09375 16.890625 14.875 13.375 
Q 16.65625 9.859375 20.171875 7.921875 
Q 23.6875 6 27.734375 6 
Q 34.03125 6 38.125 10.046875 
Q 42.234375 14.109375 42.234375 20.359375 
Q 42.234375 26.703125 38.015625 30.859375 
Q 33.796875 35.015625 27.4375 35.015625 
Q 21.234375 35.015625 17.15625 30.90625 
Q 13.09375 26.8125 13.09375 20.65625 
z
" id="ArialMT-38"/>
      </defs>
      <g style="fill:#262626;" transform="translate(639.658594 290.877812)scale(0.1 -0.1)">
       <use xlink:href="#ArialMT-38"/>
       <use x="55.615234" xlink:href="#ArialMT-30"/>
       <use x="111.230469" xlink:href="#ArialMT-30"/>
      </g>
     </g>
    </g>
   </g>
   <g id="matplotlib.axis_2">
    <g id="ytick_1">
     <g id="line2d_10">
      <defs>
       <path d="M 0 0 
L -6 0 
" id="mf3d0248951" style="stroke:#262626;"/>
      </defs>
      <g>
       <use style="fill:#262626;stroke:#262626;" x="90" xlink:href="#mf3d0248951" y="250.56"/>
      </g>
     </g>
     <g id="text_10">
      <!-- −0.04 -->
      <defs>
       <path d="M 52.828125 31.203125 
L 5.5625 31.203125 
L 5.5625 39.40625 
L 52.828125 39.40625 
z
" id="ArialMT-2212"/>
       <path d="M 9.078125 0 
L 9.078125 10.015625 
L 19.09375 10.015625 
L 19.09375 0 
z
" id="ArialMT-2e"/>
      </defs>
      <g style="fill:#262626;" transform="translate(51.698437 254.138906)scale(0.1 -0.1)">
       <use xlink:href="#ArialMT-2212"/>
       <use x="58.398438" xlink:href="#ArialMT-30"/>
       <use x="114.013672" xlink:href="#ArialMT-2e"/>
       <use x="141.796875" xlink:href="#ArialMT-30"/>
       <use x="197.412109" xlink:href="#ArialMT-34"/>
      </g>
     </g>
    </g>
    <g id="ytick_2">
     <g id="line2d_11">
      <g>
       <use style="fill:#262626;stroke:#262626;" x="90" xlink:href="#mf3d0248951" y="210.24"/>
      </g>
     </g>
     <g id="text_11">
      <!-- −0.02 -->
      <g style="fill:#262626;" transform="translate(51.698437 213.818906)scale(0.1 -0.1)">
       <use xlink:href="#ArialMT-2212"/>
       <use x="58.398438" xlink:href="#ArialMT-30"/>
       <use x="114.013672" xlink:href="#ArialMT-2e"/>
       <use x="141.796875" xlink:href="#ArialMT-30"/>
       <use x="197.412109" xlink:href="#ArialMT-32"/>
      </g>
     </g>
    </g>
    <g id="ytick_3">
     <g id="line2d_12">
      <g>
       <use style="fill:#262626;stroke:#262626;" x="90" xlink:href="#mf3d0248951" y="169.92"/>
      </g>
     </g>
     <g id="text_12">
      <!-- 0.00 -->
      <g style="fill:#262626;" transform="translate(57.539062 173.498906)scale(0.1 -0.1)">
       <use xlink:href="#ArialMT-30"/>
       <use x="55.615234" xlink:href="#ArialMT-2e"/>
       <use x="83.398438" xlink:href="#ArialMT-30"/>
       <use x="139.013672" xlink:href="#ArialMT-30"/>
      </g>
     </g>
    </g>
    <g id="ytick_4">
     <g id="line2d_13">
      <g>
       <use style="fill:#262626;stroke:#262626;" x="90" xlink:href="#mf3d0248951" y="129.6"/>
      </g>
     </g>
     <g id="text_13">
      <!-- 0.02 -->
      <g style="fill:#262626;" transform="translate(57.539062 133.178906)scale(0.1 -0.1)">
       <use xlink:href="#ArialMT-30"/>
       <use x="55.615234" xlink:href="#ArialMT-2e"/>
       <use x="83.398438" xlink:href="#ArialMT-30"/>
       <use x="139.013672" xlink:href="#ArialMT-32"/>
      </g>
     </g>
    </g>
    <g id="ytick_5">
     <g id="line2d_14">
      <g>
       <use style="fill:#262626;stroke:#262626;" x="90" xlink:href="#mf3d0248951" y="89.28"/>
      </g>
     </g>
     <g id="text_14">
      <!-- 0.04 -->
      <g style="fill:#262626;" transform="translate(57.539062 92.858906)scale(0.1 -0.1)">
       <use xlink:href="#ArialMT-30"/>
       <use x="55.615234" xlink:href="#ArialMT-2e"/>
       <use x="83.398438" xlink:href="#ArialMT-30"/>
       <use x="139.013672" xlink:href="#ArialMT-34"/>
      </g>
     </g>
    </g>
   </g>
   <g id="PolyCollection_1">
    <path clip-path="url(#pfe1b9475cf)" d="M 90 169.862855 
L 90 169.92 
L 90.6975 169.92 
L 91.395 169.92 
L 92.0925 169.92 
L 92.79 169.92 
L 93.4875 169.92 
L 94.185 169.92 
L 94.8825 169.92 
L 95.58 169.92 
L 96.2775 169.92 
L 96.975 169.92 
L 97.6725 169.92 
L 98.37 169.92 
L 99.0675 169.92 
L 99.765 169.92 
L 100.4625 169.92 
L 101.16 169.92 
L 101.8575 169.92 
L 102.555 169.92 
L 103.2525 169.92 
L 103.95 169.92 
L 104.6475 169.92 
L 105.345 169.92 
L 106.0425 169.92 
L 106.74 169.92 
L 107.4375 169.92 
L 108.135 169.92 
L 108.8325 169.92 
L 109.53 169.92 
L 110.2275 169.92 
L 110.925 169.92 
L 111.6225 169.92 
L 112.32 169.92 
L 113.0175 169.92 
L 113.715 169.92 
L 114.4125 169.92 
L 115.11 169.92 
L 115.8075 169.92 
L 116.505 169.92 
L 117.2025 169.92 
L 117.9 169.92 
L 118.5975 169.92 
L 119.295 169.92 
L 119.9925 169.92 
L 120.69 169.92 
L 121.3875 169.92 
L 122.085 169.92 
L 122.7825 169.92 
L 123.48 169.92 
L 124.1775 169.92 
L 124.875 169.92 
L 125.5725 169.92 
L 126.27 169.92 
L 126.9675 169.92 
L 127.665 169.92 
L 128.3625 169.92 
L 129.06 169.92 
L 129.7575 169.92 
L 130.455 169.92 
L 131.1525 169.92 
L 131.85 169.92 
L 132.5475 169.92 
L 133.245 169.92 
L 133.9425 169.92 
L 134.64 169.92 
L 135.3375 169.92 
L 136.035 169.92 
L 136.7325 169.92 
L 137.43 169.92 
L 138.1275 169.92 
L 138.825 169.92 
L 139.5225 169.92 
L 140.22 169.92 
L 140.9175 169.92 
L 141.615 169.92 
L 142.3125 169.92 
L 143.01 169.92 
L 143.7075 169.92 
L 144.405 169.92 
L 145.1025 169.92 
L 145.8 169.92 
L 146.4975 169.92 
L 147.195 169.92 
L 147.8925 169.92 
L 148.59 169.92 
L 149.2875 169.92 
L 149.985 169.92 
L 150.6825 169.92 
L 151.38 169.92 
L 152.0775 169.92 
L 152.775 169.92 
L 153.4725 169.92 
L 154.17 169.92 
L 154.8675 169.92 
L 155.565 169.92 
L 156.2625 169.92 
L 156.96 169.92 
L 157.6575 169.92 
L 158.355 169.92 
L 159.0525 169.92 
L 159.75 169.92 
L 160.4475 169.92 
L 161.145 169.92 
L 161.8425 169.92 
L 162.54 169.92 
L 163.2375 169.92 
L 163.935 169.92 
L 164.6325 169.92 
L 165.33 169.92 
L 166.0275 169.92 
L 166.725 169.92 
L 167.4225 169.92 
L 168.12 169.92 
L 168.8175 169.92 
L 169.515 169.92 
L 170.2125 169.92 
L 170.91 169.92 
L 171.6075 169.92 
L 172.305 169.92 
L 173.0025 169.92 
L 173.7 169.92 
L 174.3975 169.92 
L 175.095 169.92 
L 175.7925 169.92 
L 176.49 169.92 
L 177.1875 169.92 
L 177.885 169.92 
L 178.5825 169.92 
L 179.28 169.92 
L 179.9775 169.92 
L 180.675 169.92 
L 181.3725 169.92 
L 182.07 169.92 
L 182.7675 169.92 
L 183.465 169.92 
L 184.1625 169.92 
L 184.86 169.92 
L 185.5575 169.92 
L 186.255 169.92 
L 186.9525 169.92 
L 187.65 169.92 
L 188.3475 169.92 
L 189.045 169.92 
L 189.7425 169.92 
L 190.44 169.92 
L 191.1375 169.92 
L 191.835 169.92 
L 192.5325 169.92 
L 193.23 169.92 
L 193.9275 169.92 
L 194.625 169.92 
L 195.3225 169.92 
L 196.02 169.92 
L 196.7175 169.92 
L 197.415 169.92 
L 198.1125 169.92 
L 198.81 169.92 
L 199.5075 169.92 
L 200.205 169.92 
L 200.9025 169.92 
L 201.6 169.92 
L 202.2975 169.92 
L 202.995 169.92 
L 203.6925 169.92 
L 204.39 169.92 
L 205.0875 169.92 
L 205.785 169.92 
L 206.4825 169.92 
L 207.18 169.92 
L 207.8775 169.92 
L 208.575 169.92 
L 209.2725 169.92 
L 209.97 169.92 
L 210.6675 169.92 
L 211.365 169.92 
L 212.0625 169.92 
L 212.76 169.92 
L 213.4575 169.92 
L 214.155 169.92 
L 214.8525 169.92 
L 215.55 169.92 
L 216.2475 169.92 
L 216.945 169.92 
L 217.6425 169.92 
L 218.34 169.92 
L 219.0375 169.92 
L 219.735 169.92 
L 220.4325 169.92 
L 221.13 169.92 
L 221.8275 169.92 
L 222.525 169.92 
L 223.2225 169.92 
L 223.92 169.92 
L 224.6175 169.92 
L 225.315 169.92 
L 226.0125 169.92 
L 226.71 169.92 
L 227.4075 169.92 
L 228.105 169.92 
L 228.8025 169.92 
L 229.5 169.92 
L 230.1975 169.92 
L 230.895 169.92 
L 231.5925 169.92 
L 232.29 169.92 
L 232.9875 169.92 
L 233.685 169.92 
L 234.3825 169.92 
L 235.08 169.92 
L 235.7775 169.92 
L 236.475 169.92 
L 237.1725 169.92 
L 237.87 169.92 
L 238.5675 169.92 
L 239.265 169.92 
L 239.9625 169.92 
L 240.66 169.92 
L 241.3575 169.92 
L 242.055 169.92 
L 242.7525 169.92 
L 243.45 169.92 
L 244.1475 169.92 
L 244.845 169.92 
L 245.5425 169.92 
L 246.24 169.92 
L 246.9375 169.92 
L 247.635 169.92 
L 248.3325 169.92 
L 249.03 169.92 
L 249.7275 169.92 
L 250.425 169.92 
L 251.1225 169.92 
L 251.82 169.92 
L 252.5175 169.92 
L 253.215 169.92 
L 253.9125 169.92 
L 254.61 169.92 
L 255.3075 169.92 
L 256.005 169.92 
L 256.7025 169.92 
L 257.4 169.92 
L 258.0975 169.92 
L 258.795 169.92 
L 259.4925 169.92 
L 260.19 169.92 
L 260.8875 169.92 
L 261.585 169.92 
L 262.2825 169.92 
L 262.98 169.92 
L 263.6775 169.92 
L 264.375 169.92 
L 265.0725 169.92 
L 265.77 169.92 
L 266.4675 169.92 
L 267.165 169.92 
L 267.8625 169.92 
L 268.56 169.92 
L 269.2575 169.92 
L 269.955 169.92 
L 270.6525 169.92 
L 271.35 169.92 
L 272.0475 169.92 
L 272.745 169.92 
L 273.4425 169.92 
L 274.14 169.92 
L 274.8375 169.92 
L 275.535 169.92 
L 276.2325 169.92 
L 276.93 169.92 
L 277.6275 169.92 
L 278.325 169.92 
L 279.0225 169.92 
L 279.72 169.92 
L 280.4175 169.92 
L 281.115 169.92 
L 281.8125 169.92 
L 282.51 169.92 
L 283.2075 169.92 
L 283.905 169.92 
L 284.6025 169.92 
L 285.3 169.92 
L 285.9975 169.92 
L 286.695 169.92 
L 287.3925 169.92 
L 288.09 169.92 
L 288.7875 169.92 
L 289.485 169.92 
L 290.1825 169.92 
L 290.88 169.92 
L 291.5775 169.92 
L 292.275 169.92 
L 292.9725 169.92 
L 293.67 169.92 
L 294.3675 169.92 
L 295.065 169.92 
L 295.7625 169.92 
L 296.46 169.92 
L 297.1575 169.92 
L 297.855 169.92 
L 298.5525 169.92 
L 299.25 169.92 
L 299.9475 169.92 
L 300.645 169.92 
L 301.3425 169.92 
L 302.04 169.92 
L 302.7375 169.92 
L 303.435 169.92 
L 304.1325 169.92 
L 304.83 169.92 
L 305.5275 169.92 
L 306.225 169.92 
L 306.9225 169.92 
L 307.62 169.92 
L 308.3175 169.92 
L 309.015 169.92 
L 309.7125 169.92 
L 310.41 169.92 
L 311.1075 169.92 
L 311.805 169.92 
L 312.5025 169.92 
L 313.2 169.92 
L 313.8975 169.92 
L 314.595 169.92 
L 315.2925 169.92 
L 315.99 169.92 
L 316.6875 169.92 
L 317.385 169.92 
L 318.0825 169.92 
L 318.78 169.92 
L 319.4775 169.92 
L 320.175 169.92 
L 320.8725 169.92 
L 321.57 169.92 
L 322.2675 169.92 
L 322.965 169.92 
L 323.6625 169.92 
L 324.36 169.92 
L 325.0575 169.92 
L 325.755 169.92 
L 326.4525 169.92 
L 327.15 169.92 
L 327.8475 169.92 
L 328.545 169.92 
L 329.2425 169.92 
L 329.94 169.92 
L 330.6375 169.92 
L 331.335 169.92 
L 332.0325 169.92 
L 332.73 169.92 
L 333.4275 169.92 
L 334.125 169.92 
L 334.8225 169.92 
L 335.52 169.92 
L 336.2175 169.92 
L 336.915 169.92 
L 337.6125 169.92 
L 338.31 169.92 
L 339.0075 169.92 
L 339.705 169.92 
L 340.4025 169.92 
L 341.1 169.92 
L 341.7975 169.92 
L 342.495 169.92 
L 343.1925 169.92 
L 343.89 169.92 
L 344.5875 169.92 
L 345.285 169.92 
L 345.9825 169.92 
L 346.68 169.92 
L 347.3775 169.92 
L 348.075 169.92 
L 348.7725 169.92 
L 349.47 169.92 
L 350.1675 169.92 
L 350.865 169.92 
L 351.5625 169.92 
L 352.26 169.92 
L 352.9575 169.92 
L 353.655 169.92 
L 354.3525 169.92 
L 355.05 169.92 
L 355.7475 169.92 
L 356.445 169.92 
L 357.1425 169.92 
L 357.84 169.92 
L 358.5375 169.92 
L 359.235 169.92 
L 359.9325 169.92 
L 360.63 169.92 
L 361.3275 169.92 
L 362.025 169.92 
L 362.7225 169.92 
L 363.42 169.92 
L 364.1175 169.92 
L 364.815 169.92 
L 365.5125 169.92 
L 366.21 169.92 
L 366.9075 169.92 
L 367.605 169.92 
L 368.3025 169.92 
L 369 169.92 
L 369.6975 169.92 
L 370.395 169.92 
L 371.0925 169.92 
L 371.79 169.92 
L 372.4875 169.92 
L 373.185 169.92 
L 373.8825 169.92 
L 374.58 169.92 
L 375.2775 169.92 
L 375.975 169.92 
L 376.6725 169.92 
L 377.37 169.92 
L 378.0675 169.92 
L 378.765 169.92 
L 379.4625 169.92 
L 380.16 169.92 
L 380.8575 169.92 
L 381.555 169.92 
L 382.2525 169.92 
L 382.95 169.92 
L 383.6475 169.92 
L 384.345 169.92 
L 385.0425 169.92 
L 385.74 169.92 
L 386.4375 169.92 
L 387.135 169.92 
L 387.8325 169.92 
L 388.53 169.92 
L 389.2275 169.92 
L 389.925 169.92 
L 390.6225 169.92 
L 391.32 169.92 
L 392.0175 169.92 
L 392.715 169.92 
L 393.4125 169.92 
L 394.11 169.92 
L 394.8075 169.92 
L 395.505 169.92 
L 396.2025 169.92 
L 396.9 169.92 
L 397.5975 169.92 
L 398.295 169.92 
L 398.9925 169.92 
L 399.69 169.92 
L 400.3875 169.92 
L 401.085 169.92 
L 401.7825 169.92 
L 402.48 169.92 
L 403.1775 169.92 
L 403.875 169.92 
L 404.5725 169.92 
L 405.27 169.92 
L 405.9675 169.92 
L 406.665 169.92 
L 407.3625 169.92 
L 408.06 169.92 
L 408.7575 169.92 
L 409.455 169.92 
L 410.1525 169.92 
L 410.85 169.92 
L 411.5475 169.92 
L 412.245 169.92 
L 412.9425 169.92 
L 413.64 169.92 
L 414.3375 169.92 
L 415.035 169.92 
L 415.7325 169.92 
L 416.43 169.92 
L 417.1275 169.92 
L 417.825 169.92 
L 418.5225 169.92 
L 419.22 169.92 
L 419.9175 169.92 
L 420.615 169.92 
L 421.3125 169.92 
L 422.01 169.92 
L 422.7075 169.92 
L 423.405 169.92 
L 424.1025 169.92 
L 424.8 169.92 
L 425.4975 169.92 
L 426.195 169.92 
L 426.8925 169.92 
L 427.59 169.92 
L 428.2875 169.92 
L 428.985 169.92 
L 429.6825 169.92 
L 430.38 169.92 
L 431.0775 169.92 
L 431.775 169.92 
L 432.4725 169.92 
L 433.17 169.92 
L 433.8675 169.92 
L 434.565 169.92 
L 435.2625 169.92 
L 435.96 169.92 
L 436.6575 169.92 
L 437.355 169.92 
L 438.0525 169.92 
L 438.75 169.92 
L 439.4475 169.92 
L 440.145 169.92 
L 440.8425 169.92 
L 441.54 169.92 
L 442.2375 169.92 
L 442.935 169.92 
L 443.6325 169.92 
L 444.33 169.92 
L 445.0275 169.92 
L 445.725 169.92 
L 446.4225 169.92 
L 447.12 169.92 
L 447.8175 169.92 
L 448.515 169.92 
L 449.2125 169.92 
L 449.91 169.92 
L 450.6075 169.92 
L 451.305 169.92 
L 452.0025 169.92 
L 452.7 169.92 
L 453.3975 169.92 
L 454.095 169.92 
L 454.7925 169.92 
L 455.49 169.92 
L 456.1875 169.92 
L 456.885 169.92 
L 457.5825 169.92 
L 458.28 169.92 
L 458.9775 169.92 
L 459.675 169.92 
L 460.3725 169.92 
L 461.07 169.92 
L 461.7675 169.92 
L 462.465 169.92 
L 463.1625 169.92 
L 463.86 169.92 
L 464.5575 169.92 
L 465.255 169.92 
L 465.9525 169.92 
L 466.65 169.92 
L 467.3475 169.92 
L 468.045 169.92 
L 468.7425 169.92 
L 469.44 169.92 
L 470.1375 169.92 
L 470.835 169.92 
L 471.5325 169.92 
L 472.23 169.92 
L 472.9275 169.92 
L 473.625 169.92 
L 474.3225 169.92 
L 475.02 169.92 
L 475.7175 169.92 
L 476.415 169.92 
L 477.1125 169.92 
L 477.81 169.92 
L 478.5075 169.92 
L 479.205 169.92 
L 479.9025 169.92 
L 480.6 169.92 
L 481.2975 169.92 
L 481.995 169.92 
L 482.6925 169.92 
L 483.39 169.92 
L 484.0875 169.92 
L 484.785 169.92 
L 485.4825 169.92 
L 486.18 169.92 
L 486.8775 169.92 
L 487.575 169.92 
L 488.2725 169.92 
L 488.97 169.92 
L 489.6675 169.92 
L 490.365 169.92 
L 491.0625 169.92 
L 491.76 169.92 
L 492.4575 169.92 
L 493.155 169.92 
L 493.8525 169.92 
L 494.55 169.92 
L 495.2475 169.92 
L 495.945 169.92 
L 496.6425 169.92 
L 497.34 169.92 
L 498.0375 169.92 
L 498.735 169.92 
L 499.4325 169.92 
L 500.13 169.92 
L 500.8275 169.92 
L 501.525 169.92 
L 502.2225 169.92 
L 502.92 169.92 
L 503.6175 169.92 
L 504.315 169.92 
L 505.0125 169.92 
L 505.71 169.92 
L 506.4075 169.92 
L 507.105 169.92 
L 507.8025 169.92 
L 508.5 169.92 
L 509.1975 169.92 
L 509.895 169.92 
L 510.5925 169.92 
L 511.29 169.92 
L 511.9875 169.92 
L 512.685 169.92 
L 513.3825 169.92 
L 514.08 169.92 
L 514.7775 169.92 
L 515.475 169.92 
L 516.1725 169.92 
L 516.87 169.92 
L 517.5675 169.92 
L 518.265 169.92 
L 518.9625 169.92 
L 519.66 169.92 
L 520.3575 169.92 
L 521.055 169.92 
L 521.7525 169.92 
L 522.45 169.92 
L 523.1475 169.92 
L 523.845 169.92 
L 524.5425 169.92 
L 525.24 169.92 
L 525.9375 169.92 
L 526.635 169.92 
L 527.3325 169.92 
L 528.03 169.92 
L 528.7275 169.92 
L 529.425 169.92 
L 530.1225 169.92 
L 530.82 169.92 
L 531.5175 169.92 
L 532.215 169.92 
L 532.9125 169.92 
L 533.61 169.92 
L 534.3075 169.92 
L 535.005 169.92 
L 535.7025 169.92 
L 536.4 169.92 
L 537.0975 169.92 
L 537.795 169.92 
L 538.4925 169.92 
L 539.19 169.92 
L 539.8875 169.92 
L 540.585 169.92 
L 541.2825 169.92 
L 541.98 169.92 
L 542.6775 169.92 
L 543.375 169.92 
L 544.0725 169.92 
L 544.77 169.92 
L 545.4675 169.92 
L 546.165 169.92 
L 546.8625 169.92 
L 547.56 169.92 
L 548.2575 169.92 
L 548.955 169.92 
L 549.6525 169.92 
L 550.35 169.92 
L 551.0475 169.92 
L 551.745 169.92 
L 552.4425 169.92 
L 553.14 169.92 
L 553.8375 169.92 
L 554.535 169.92 
L 555.2325 169.92 
L 555.93 169.92 
L 556.6275 169.92 
L 557.325 169.92 
L 558.0225 169.92 
L 558.72 169.92 
L 559.4175 169.92 
L 560.115 169.92 
L 560.8125 169.92 
L 561.51 169.92 
L 562.2075 169.92 
L 562.905 169.92 
L 563.6025 169.92 
L 564.3 169.92 
L 564.9975 169.92 
L 565.695 169.92 
L 566.3925 169.92 
L 567.09 169.92 
L 567.7875 169.92 
L 568.485 169.92 
L 569.1825 169.92 
L 569.88 169.92 
L 570.5775 169.92 
L 571.275 169.92 
L 571.9725 169.92 
L 572.67 169.92 
L 573.3675 169.92 
L 574.065 169.92 
L 574.7625 169.92 
L 575.46 169.92 
L 576.1575 169.92 
L 576.855 169.92 
L 577.5525 169.92 
L 578.25 169.92 
L 578.9475 169.92 
L 579.645 169.92 
L 580.3425 169.92 
L 581.04 169.92 
L 581.7375 169.92 
L 582.435 169.92 
L 583.1325 169.92 
L 583.83 169.92 
L 584.5275 169.92 
L 585.225 169.92 
L 585.9225 169.92 
L 586.62 169.92 
L 587.3175 169.92 
L 588.015 169.92 
L 588.7125 169.92 
L 589.41 169.92 
L 590.1075 169.92 
L 590.805 169.92 
L 591.5025 169.92 
L 592.2 169.92 
L 592.8975 169.92 
L 593.595 169.92 
L 594.2925 169.92 
L 594.99 169.92 
L 595.6875 169.92 
L 596.385 169.92 
L 597.0825 169.92 
L 597.78 169.92 
L 598.4775 169.92 
L 599.175 169.92 
L 599.8725 169.92 
L 600.57 169.92 
L 601.2675 169.92 
L 601.965 169.92 
L 602.6625 169.92 
L 603.36 169.92 
L 604.0575 169.92 
L 604.755 169.92 
L 605.4525 169.92 
L 606.15 169.92 
L 606.8475 169.92 
L 607.545 169.92 
L 608.2425 169.92 
L 608.94 169.92 
L 609.6375 169.92 
L 610.335 169.92 
L 611.0325 169.92 
L 611.73 169.92 
L 612.4275 169.92 
L 613.125 169.92 
L 613.8225 169.92 
L 614.52 169.92 
L 615.2175 169.92 
L 615.915 169.92 
L 616.6125 169.92 
L 617.31 169.92 
L 618.0075 169.92 
L 618.705 169.92 
L 619.4025 169.92 
L 620.1 169.92 
L 620.7975 169.92 
L 621.495 169.92 
L 622.1925 169.92 
L 622.89 169.92 
L 623.5875 169.92 
L 624.285 169.92 
L 624.9825 169.92 
L 625.68 169.92 
L 626.3775 169.92 
L 627.075 169.92 
L 627.7725 169.92 
L 628.47 169.92 
L 629.1675 169.92 
L 629.865 169.92 
L 630.5625 169.92 
L 631.26 169.92 
L 631.9575 169.92 
L 632.655 169.92 
L 633.3525 169.92 
L 634.05 169.92 
L 634.7475 169.92 
L 635.445 169.92 
L 636.1425 169.92 
L 636.84 169.92 
L 637.5375 169.92 
L 638.235 169.92 
L 638.9325 169.92 
L 639.63 169.92 
L 640.3275 169.92 
L 641.025 169.92 
L 641.7225 169.92 
L 642.42 169.92 
L 643.1175 169.92 
L 643.815 169.92 
L 644.5125 169.92 
L 645.21 169.92 
L 645.9075 169.92 
L 646.605 169.92 
L 646.605 169.92 
L 646.605 169.92 
L 645.9075 169.960986 
L 645.21 170.070055 
L 644.5125 170.21018 
L 643.815 170.385143 
L 643.1175 170.603094 
L 642.42 170.844621 
L 641.7225 171.103845 
L 641.025 171.411222 
L 640.3275 171.746848 
L 639.63 172.104329 
L 638.9325 172.504473 
L 638.235 172.917761 
L 637.5375 173.360142 
L 636.84 173.82008 
L 636.1425 174.299606 
L 635.445 174.796089 
L 634.7475 175.302252 
L 634.05 175.806208 
L 633.3525 176.30064 
L 632.655 176.810159 
L 631.9575 177.313752 
L 631.26 177.817766 
L 630.5625 178.323989 
L 629.865 178.834197 
L 629.1675 179.318267 
L 628.47 179.796314 
L 627.7725 180.261161 
L 627.075 180.723919 
L 626.3775 181.154725 
L 625.68 181.569433 
L 624.9825 181.956658 
L 624.285 182.305168 
L 623.5875 182.644929 
L 622.89 182.946753 
L 622.1925 183.222646 
L 621.495 183.466541 
L 620.7975 183.66799 
L 620.1 183.812229 
L 619.4025 183.930341 
L 618.705 183.998911 
L 618.0075 184.026668 
L 617.31 183.999801 
L 616.6125 183.913901 
L 615.915 183.79221 
L 615.2175 183.612625 
L 614.52 183.380687 
L 613.8225 183.111329 
L 613.125 182.796921 
L 612.4275 182.43008 
L 611.73 182.017374 
L 611.0325 181.583835 
L 610.335 181.118181 
L 609.6375 180.609305 
L 608.94 180.07366 
L 608.2425 179.505077 
L 607.545 178.897569 
L 606.8475 178.277237 
L 606.15 177.642931 
L 605.4525 176.989023 
L 604.755 176.287224 
L 604.0575 175.582369 
L 603.36 174.841894 
L 602.6625 174.092631 
L 601.965 173.320475 
L 601.2675 172.53877 
L 600.57 171.747252 
L 599.8725 170.945708 
L 599.175 170.147645 
L 598.4775 169.330118 
L 597.78 168.534042 
L 597.0825 167.727354 
L 596.385 166.932697 
L 595.6875 166.145321 
L 594.99 165.369547 
L 594.2925 164.623292 
L 593.595 163.887882 
L 592.8975 163.181013 
L 592.2 162.492901 
L 591.5025 161.813659 
L 590.805 161.174339 
L 590.1075 160.573893 
L 589.41 160.006509 
L 588.7125 159.46619 
L 588.015 158.974118 
L 587.3175 158.537546 
L 586.62 158.140653 
L 585.9225 157.785617 
L 585.225 157.460724 
L 584.5275 157.176865 
L 583.83 156.944704 
L 583.1325 156.774623 
L 582.435 156.663002 
L 581.7375 156.601345 
L 581.04 156.58999 
L 580.3425 156.629 
L 579.645 156.704499 
L 578.9475 156.829733 
L 578.25 156.990355 
L 577.5525 157.185484 
L 576.855 157.436817 
L 576.1575 157.715654 
L 575.46 158.05234 
L 574.7625 158.404045 
L 574.065 158.777946 
L 573.3675 159.181099 
L 572.67 159.597631 
L 571.9725 160.057135 
L 571.275 160.534318 
L 570.5775 161.022011 
L 569.88 161.512982 
L 569.1825 162.027308 
L 568.485 162.534843 
L 567.7875 163.032803 
L 567.09 163.54578 
L 566.3925 164.052743 
L 565.695 164.550911 
L 564.9975 165.046658 
L 564.3 165.550927 
L 563.6025 166.042734 
L 562.905 166.510275 
L 562.2075 166.978308 
L 561.51 167.426048 
L 560.8125 167.860147 
L 560.115 168.282778 
L 559.4175 168.687068 
L 558.72 169.079906 
L 558.0225 169.440922 
L 557.325 169.790905 
L 556.6275 170.10061 
L 555.93 170.395663 
L 555.2325 170.64712 
L 554.535 170.871818 
L 553.8375 171.073079 
L 553.14 171.231581 
L 552.4425 171.378334 
L 551.745 171.4761 
L 551.0475 171.556221 
L 550.35 171.595487 
L 549.6525 171.621007 
L 548.955 171.609871 
L 548.2575 171.553031 
L 547.56 171.473571 
L 546.8625 171.371924 
L 546.165 171.244097 
L 545.4675 171.081681 
L 544.77 170.894675 
L 544.0725 170.679553 
L 543.375 170.442047 
L 542.6775 170.178908 
L 541.98 169.914348 
L 541.2825 169.617941 
L 540.585 169.30953 
L 539.8875 168.990807 
L 539.19 168.658965 
L 538.4925 168.334042 
L 537.795 168.008713 
L 537.0975 167.689315 
L 536.4 167.377603 
L 535.7025 167.079839 
L 535.005 166.783995 
L 534.3075 166.514465 
L 533.61 166.245403 
L 532.9125 166.00561 
L 532.215 165.773631 
L 531.5175 165.573509 
L 530.82 165.401787 
L 530.1225 165.254854 
L 529.425 165.151732 
L 528.7275 165.065663 
L 528.03 165.015335 
L 527.3325 164.99647 
L 526.635 165.004618 
L 525.9375 165.035179 
L 525.24 165.097095 
L 524.5425 165.185472 
L 523.845 165.304378 
L 523.1475 165.457715 
L 522.45 165.626427 
L 521.7525 165.818694 
L 521.055 166.024356 
L 520.3575 166.251391 
L 519.66 166.503107 
L 518.9625 166.77357 
L 518.265 167.056742 
L 517.5675 167.369284 
L 516.87 167.700375 
L 516.1725 168.03909 
L 515.475 168.401786 
L 514.7775 168.78192 
L 514.08 169.177405 
L 513.3825 169.586073 
L 512.685 169.996572 
L 511.9875 170.402098 
L 511.29 170.804979 
L 510.5925 171.212112 
L 509.895 171.630371 
L 509.1975 172.043801 
L 508.5 172.463795 
L 507.8025 172.865278 
L 507.105 173.277926 
L 506.4075 173.681259 
L 505.71 174.077617 
L 505.0125 174.451165 
L 504.315 174.818069 
L 503.6175 175.176316 
L 502.92 175.510278 
L 502.2225 175.845447 
L 501.525 176.157215 
L 500.8275 176.452978 
L 500.13 176.717452 
L 499.4325 176.95374 
L 498.735 177.174208 
L 498.0375 177.373092 
L 497.34 177.549301 
L 496.6425 177.697313 
L 495.945 177.825426 
L 495.2475 177.932936 
L 494.55 178.028361 
L 493.8525 178.083854 
L 493.155 178.12188 
L 492.4575 178.114907 
L 491.76 178.090297 
L 491.0625 178.034523 
L 490.365 177.947891 
L 489.6675 177.826322 
L 488.97 177.679591 
L 488.2725 177.499396 
L 487.575 177.291279 
L 486.8775 177.074597 
L 486.18 176.841432 
L 485.4825 176.583954 
L 484.785 176.303577 
L 484.0875 176.015501 
L 483.39 175.712198 
L 482.6925 175.386224 
L 481.995 175.039368 
L 481.2975 174.68264 
L 480.6 174.308891 
L 479.9025 173.924724 
L 479.205 173.527693 
L 478.5075 173.129084 
L 477.81 172.717423 
L 477.1125 172.304076 
L 476.415 171.882203 
L 475.7175 171.472334 
L 475.02 171.053949 
L 474.3225 170.633896 
L 473.625 170.21448 
L 472.9275 169.793448 
L 472.23 169.373111 
L 471.5325 168.955774 
L 470.835 168.566497 
L 470.1375 168.184647 
L 469.44 167.81687 
L 468.7425 167.474295 
L 468.045 167.154245 
L 467.3475 166.84937 
L 466.65 166.57045 
L 465.9525 166.328122 
L 465.255 166.123717 
L 464.5575 165.944693 
L 463.86 165.792034 
L 463.1625 165.680239 
L 462.465 165.591705 
L 461.7675 165.558795 
L 461.07 165.549813 
L 460.3725 165.569361 
L 459.675 165.617333 
L 458.9775 165.688912 
L 458.28 165.774596 
L 457.5825 165.901239 
L 456.885 166.059039 
L 456.1875 166.233468 
L 455.49 166.428122 
L 454.7925 166.664705 
L 454.095 166.919147 
L 453.3975 167.199162 
L 452.7 167.503212 
L 452.0025 167.834183 
L 451.305 168.185706 
L 450.6075 168.555852 
L 449.91 168.947144 
L 449.2125 169.352882 
L 448.515 169.775393 
L 447.8175 170.207805 
L 447.12 170.638638 
L 446.4225 171.074636 
L 445.725 171.517961 
L 445.0275 171.961627 
L 444.33 172.416862 
L 443.6325 172.862951 
L 442.935 173.297448 
L 442.2375 173.713415 
L 441.54 174.126786 
L 440.8425 174.52163 
L 440.145 174.909443 
L 439.4475 175.274436 
L 438.75 175.632822 
L 438.0525 175.959865 
L 437.355 176.262878 
L 436.6575 176.540199 
L 435.96 176.7812 
L 435.2625 176.993664 
L 434.565 177.171873 
L 433.8675 177.319403 
L 433.17 177.426337 
L 432.4725 177.501196 
L 431.775 177.534461 
L 431.0775 177.525949 
L 430.38 177.475708 
L 429.6825 177.388567 
L 428.985 177.26045 
L 428.2875 177.09206 
L 427.59 176.879767 
L 426.8925 176.62929 
L 426.195 176.346557 
L 425.4975 176.028565 
L 424.8 175.677058 
L 424.1025 175.29852 
L 423.405 174.885919 
L 422.7075 174.459734 
L 422.01 173.999535 
L 421.3125 173.516953 
L 420.615 173.014637 
L 419.9175 172.490788 
L 419.22 171.948282 
L 418.5225 171.390093 
L 417.825 170.828392 
L 417.1275 170.257154 
L 416.43 169.684066 
L 415.7325 169.107718 
L 415.035 168.522165 
L 414.3375 167.948835 
L 413.64 167.38632 
L 412.9425 166.828598 
L 412.245 166.296944 
L 411.5475 165.780615 
L 410.85 165.273334 
L 410.1525 164.786992 
L 409.455 164.324259 
L 408.7575 163.887672 
L 408.06 163.475074 
L 407.3625 163.084173 
L 406.665 162.730777 
L 405.9675 162.394054 
L 405.27 162.089514 
L 404.5725 161.809719 
L 403.875 161.569868 
L 403.1775 161.36672 
L 402.48 161.192285 
L 401.7825 161.061179 
L 401.085 160.955907 
L 400.3875 160.886154 
L 399.69 160.856857 
L 398.9925 160.854514 
L 398.295 160.883693 
L 397.5975 160.957895 
L 396.9 161.067605 
L 396.2025 161.216776 
L 395.505 161.39548 
L 394.8075 161.607292 
L 394.11 161.85105 
L 393.4125 162.107199 
L 392.715 162.392551 
L 392.0175 162.70554 
L 391.32 163.035341 
L 390.6225 163.398361 
L 389.925 163.765283 
L 389.2275 164.147757 
L 388.53 164.557346 
L 387.8325 164.978141 
L 387.135 165.407834 
L 386.4375 165.857729 
L 385.74 166.307141 
L 385.0425 166.753605 
L 384.345 167.203779 
L 383.6475 167.655195 
L 382.95 168.096266 
L 382.2525 168.520019 
L 381.555 168.928683 
L 380.8575 169.324571 
L 380.16 169.700955 
L 379.4625 170.055772 
L 378.765 170.38252 
L 378.0675 170.674852 
L 377.37 170.944828 
L 376.6725 171.177303 
L 375.975 171.38011 
L 375.2775 171.556691 
L 374.58 171.696969 
L 373.8825 171.804727 
L 373.185 171.874822 
L 372.4875 171.911421 
L 371.79 171.914326 
L 371.0925 171.878964 
L 370.395 171.805532 
L 369.6975 171.69443 
L 369 171.559932 
L 368.3025 171.380005 
L 367.605 171.182959 
L 366.9075 170.951661 
L 366.21 170.687379 
L 365.5125 170.396117 
L 364.815 170.079473 
L 364.1175 169.730077 
L 363.42 169.358953 
L 362.7225 168.968137 
L 362.025 168.559774 
L 361.3275 168.136104 
L 360.63 167.708559 
L 359.9325 167.265824 
L 359.235 166.81488 
L 358.5375 166.362758 
L 357.84 165.89372 
L 357.1425 165.428556 
L 356.445 164.956157 
L 355.7475 164.488222 
L 355.05 164.022764 
L 354.3525 163.553229 
L 353.655 163.091302 
L 352.9575 162.634963 
L 352.26 162.195822 
L 351.5625 161.780844 
L 350.865 161.378644 
L 350.1675 160.995981 
L 349.47 160.634956 
L 348.7725 160.297549 
L 348.075 159.990165 
L 347.3775 159.714491 
L 346.68 159.476593 
L 345.9825 159.273222 
L 345.285 159.100941 
L 344.5875 158.965248 
L 343.89 158.871442 
L 343.1925 158.810929 
L 342.495 158.788596 
L 341.7975 158.804565 
L 341.1 158.854194 
L 340.4025 158.94632 
L 339.705 159.080436 
L 339.0075 159.251253 
L 338.31 159.462388 
L 337.6125 159.708128 
L 336.915 159.996233 
L 336.2175 160.325122 
L 335.52 160.683884 
L 334.8225 161.070549 
L 334.125 161.482996 
L 333.4275 161.923516 
L 332.73 162.385139 
L 332.0325 162.860778 
L 331.335 163.356932 
L 330.6375 163.866323 
L 329.94 164.37705 
L 329.2425 164.895418 
L 328.545 165.432245 
L 327.8475 165.961817 
L 327.15 166.499443 
L 326.4525 167.033066 
L 325.755 167.555204 
L 325.0575 168.067547 
L 324.36 168.567283 
L 323.6625 169.051672 
L 322.965 169.518054 
L 322.2675 169.963872 
L 321.57 170.391234 
L 320.8725 170.802349 
L 320.175 171.185852 
L 319.4775 171.544195 
L 318.78 171.875412 
L 318.0825 172.17313 
L 317.385 172.44027 
L 316.6875 172.679922 
L 315.99 172.886216 
L 315.2925 173.062574 
L 314.595 173.208028 
L 313.8975 173.330889 
L 313.2 173.416821 
L 312.5025 173.460797 
L 311.805 173.462578 
L 311.1075 173.422153 
L 310.41 173.344297 
L 309.7125 173.233993 
L 309.015 173.087291 
L 308.3175 172.90955 
L 307.62 172.692637 
L 306.9225 172.44685 
L 306.225 172.168984 
L 305.5275 171.874225 
L 304.83 171.564191 
L 304.1325 171.231474 
L 303.435 170.882454 
L 302.7375 170.523599 
L 302.04 170.147771 
L 301.3425 169.761586 
L 300.645 169.367161 
L 299.9475 168.966662 
L 299.25 168.562286 
L 298.5525 168.15625 
L 297.855 167.750784 
L 297.1575 167.357218 
L 296.46 166.97316 
L 295.7625 166.600715 
L 295.065 166.237373 
L 294.3675 165.889681 
L 293.67 165.559548 
L 292.9725 165.248785 
L 292.275 164.963649 
L 291.5775 164.696599 
L 290.88 164.458206 
L 290.1825 164.240671 
L 289.485 164.054296 
L 288.7875 163.895548 
L 288.09 163.765299 
L 287.3925 163.668818 
L 286.695 163.602079 
L 285.9975 163.570004 
L 285.3 163.563659 
L 284.6025 163.596742 
L 283.905 163.664517 
L 283.2075 163.766612 
L 282.51 163.902468 
L 281.8125 164.071338 
L 281.115 164.272297 
L 280.4175 164.504242 
L 279.72 164.770453 
L 279.0225 165.064918 
L 278.325 165.386019 
L 277.6275 165.73655 
L 276.93 166.114587 
L 276.2325 166.513502 
L 275.535 166.935661 
L 274.8375 167.378747 
L 274.14 167.844883 
L 273.4425 168.326959 
L 272.745 168.817774 
L 272.0475 169.323745 
L 271.35 169.832987 
L 270.6525 170.34726 
L 269.955 170.863743 
L 269.2575 171.375048 
L 268.56 171.887479 
L 267.8625 172.398222 
L 267.165 172.909031 
L 266.4675 173.407995 
L 265.77 173.896929 
L 265.0725 174.373153 
L 264.375 174.829499 
L 263.6775 175.27257 
L 262.98 175.690829 
L 262.2825 176.077427 
L 261.585 176.439351 
L 260.8875 176.77006 
L 260.19 177.072295 
L 259.4925 177.344397 
L 258.795 177.584873 
L 258.0975 177.792404 
L 257.4 177.965852 
L 256.7025 178.104265 
L 256.005 178.206883 
L 255.3075 178.277697 
L 254.61 178.307212 
L 253.9125 178.299818 
L 253.215 178.251003 
L 252.5175 178.165588 
L 251.82 178.039488 
L 251.1225 177.873396 
L 250.425 177.672775 
L 249.7275 177.438727 
L 249.03 177.172536 
L 248.3325 176.875662 
L 247.635 176.549734 
L 246.9375 176.19654 
L 246.24 175.808911 
L 245.5425 175.39808 
L 244.845 174.961748 
L 244.1475 174.511417 
L 243.45 174.040449 
L 242.7525 173.555983 
L 242.055 173.056121 
L 241.3575 172.539054 
L 240.66 172.016725 
L 239.9625 171.487447 
L 239.265 170.954123 
L 238.5675 170.415125 
L 237.87 169.873411 
L 237.1725 169.336506 
L 236.475 168.807357 
L 235.7775 168.284312 
L 235.08 167.774795 
L 234.3825 167.281601 
L 233.685 166.807437 
L 232.9875 166.35035 
L 232.29 165.912847 
L 231.5925 165.506438 
L 230.895 165.128797 
L 230.1975 164.777443 
L 229.5 164.458856 
L 228.8025 164.165679 
L 228.105 163.908626 
L 227.4075 163.684554 
L 226.71 163.494692 
L 226.0125 163.344636 
L 225.315 163.230656 
L 224.6175 163.153376 
L 223.92 163.113221 
L 223.2225 163.110412 
L 222.525 163.144962 
L 221.8275 163.216683 
L 221.13 163.325182 
L 220.4325 163.465309 
L 219.735 163.640849 
L 219.0375 163.846285 
L 218.34 164.085044 
L 217.6425 164.355817 
L 216.945 164.657117 
L 216.2475 164.987291 
L 215.55 165.344529 
L 214.8525 165.726869 
L 214.155 166.132215 
L 213.4575 166.562896 
L 212.76 167.011996 
L 212.0625 167.477051 
L 211.365 167.960062 
L 210.6675 168.453827 
L 209.97 168.955635 
L 209.2725 169.462735 
L 208.575 169.972343 
L 207.8775 170.481664 
L 207.18 170.987904 
L 206.4825 171.488284 
L 205.785 171.980061 
L 205.0875 172.460535 
L 204.39 172.92707 
L 203.6925 173.377107 
L 202.995 173.808178 
L 202.2975 174.227023 
L 201.6 174.622239 
L 200.9025 174.991656 
L 200.205 175.333247 
L 199.5075 175.64514 
L 198.81 175.925621 
L 198.1125 176.177707 
L 197.415 176.395461 
L 196.7175 176.577687 
L 196.02 176.723386 
L 195.3225 176.831759 
L 194.625 176.902211 
L 193.9275 176.934356 
L 193.23 176.928016 
L 192.5325 176.883228 
L 191.835 176.800236 
L 191.1375 176.679496 
L 190.44 176.521671 
L 189.7425 176.327626 
L 189.045 176.098426 
L 188.3475 175.835329 
L 187.65 175.539777 
L 186.9525 175.213393 
L 186.255 174.857967 
L 185.5575 174.475449 
L 184.86 174.067937 
L 184.1625 173.637669 
L 183.465 173.187004 
L 182.7675 172.718414 
L 182.07 172.234471 
L 181.3725 171.73783 
L 180.675 171.231216 
L 179.9775 170.717407 
L 179.28 170.199224 
L 178.5825 169.679509 
L 177.885 169.161113 
L 177.1875 168.64688 
L 176.49 168.139633 
L 175.7925 167.642154 
L 175.095 167.157171 
L 174.3975 166.687347 
L 173.7 166.235259 
L 173.0025 165.803387 
L 172.305 165.3941 
L 171.6075 165.009644 
L 170.91 164.652129 
L 170.2125 164.323516 
L 169.515 164.025607 
L 168.8175 163.760038 
L 168.12 163.528265 
L 167.4225 163.327005 
L 166.725 163.161918 
L 166.0275 163.033909 
L 165.33 162.94368 
L 164.6325 162.891726 
L 163.935 162.878332 
L 163.2375 162.903571 
L 162.54 162.967307 
L 161.8425 163.064633 
L 161.145 163.199571 
L 160.4475 163.371381 
L 159.75 163.579119 
L 159.0525 163.821646 
L 158.355 164.097631 
L 157.6575 164.40556 
L 156.96 164.743744 
L 156.2625 165.110327 
L 155.565 165.503298 
L 154.8675 165.920501 
L 154.17 166.359647 
L 153.4725 166.818326 
L 152.775 167.294023 
L 152.0775 167.779573 
L 151.38 168.276867 
L 150.6825 168.778621 
L 149.985 169.286638 
L 149.2875 169.798129 
L 148.59 170.310289 
L 147.8925 170.820308 
L 147.195 171.325388 
L 146.4975 171.822756 
L 145.8 172.309686 
L 145.1025 172.783504 
L 144.405 173.241612 
L 143.7075 173.681496 
L 143.01 174.100744 
L 142.3125 174.497053 
L 141.615 174.868251 
L 140.9175 175.212301 
L 140.22 175.527314 
L 139.5225 175.80701 
L 138.825 176.054407 
L 138.1275 176.268148 
L 137.43 176.451614 
L 136.7325 176.599245 
L 136.035 176.71023 
L 135.3375 176.783961 
L 134.64 176.820034 
L 133.9425 176.822804 
L 133.245 176.787702 
L 132.5475 176.714921 
L 131.85 176.60486 
L 131.1525 176.458123 
L 130.455 176.275514 
L 129.7575 176.058037 
L 129.06 175.806884 
L 128.3625 175.523433 
L 127.665 175.209238 
L 126.9675 174.866025 
L 126.27 174.495676 
L 125.5725 174.100222 
L 124.875 173.681834 
L 124.1775 173.242807 
L 123.48 172.78555 
L 122.7825 172.312571 
L 122.085 171.826465 
L 121.3875 171.329899 
L 120.69 170.825598 
L 119.9925 170.316329 
L 119.295 169.804885 
L 118.5975 169.294073 
L 117.9 168.786695 
L 117.2025 168.285534 
L 116.505 167.793341 
L 115.8075 167.312816 
L 115.11 166.846595 
L 114.4125 166.397236 
L 113.715 165.967205 
L 113.0175 165.55886 
L 112.32 165.174442 
L 111.6225 164.816061 
L 110.925 164.485682 
L 110.2275 164.185118 
L 109.53 163.916018 
L 108.8325 163.679859 
L 108.135 163.477936 
L 107.4375 163.311357 
L 106.74 163.181035 
L 106.0425 163.087687 
L 105.345 163.031824 
L 104.6475 163.013752 
L 103.95 163.033571 
L 103.2525 163.091172 
L 102.555 163.186239 
L 101.8575 163.31825 
L 101.16 163.486482 
L 100.4625 163.69001 
L 99.765 163.927719 
L 99.0675 164.198304 
L 98.37 164.500281 
L 97.6725 164.831993 
L 96.975 165.19162 
L 96.2775 165.577189 
L 95.58 165.986585 
L 94.8825 166.422115 
L 94.185 166.876836 
L 93.4875 167.348253 
L 92.79 167.833779 
L 92.0925 168.330752 
L 91.395 168.836444 
L 90.6975 169.348081 
L 90 169.862855 
z
" style="fill:#e0ffff;"/>
   </g>
   <g id="line2d_15">
    <path clip-path="url(#pfe1b9475cf)" d="M 90 169.862855 
L 94.185 166.876836 
L 96.2775 165.577189 
L 98.37 164.500281 
L 100.4625 163.69001 
L 102.555 163.186239 
L 103.95 163.033571 
L 105.345 163.031824 
L 106.74 163.181035 
L 108.8325 163.679859 
L 110.925 164.485682 
L 113.0175 165.55886 
L 115.8075 167.312816 
L 119.9925 170.316329 
L 124.1775 173.242807 
L 126.27 174.495676 
L 128.3625 175.523433 
L 130.455 176.275514 
L 132.5475 176.714921 
L 133.9425 176.822804 
L 136.035 176.71023 
L 138.1275 176.268148 
L 140.22 175.527314 
L 142.3125 174.497053 
L 144.405 173.241612 
L 147.8925 170.820308 
L 154.17 166.359647 
L 156.2625 165.110327 
L 158.355 164.097631 
L 160.4475 163.371381 
L 162.54 162.967307 
L 163.935 162.878332 
L 165.33 162.94368 
L 166.725 163.161918 
L 168.8175 163.760038 
L 170.91 164.652129 
L 173.0025 165.803387 
L 175.7925 167.642154 
L 185.5575 174.475449 
L 187.65 175.539777 
L 189.7425 176.327626 
L 191.835 176.800236 
L 193.23 176.928016 
L 194.625 176.902211 
L 196.02 176.723386 
L 198.1125 176.177707 
L 200.205 175.333247 
L 202.2975 174.227023 
L 205.0875 172.460535 
L 209.2725 169.462735 
L 212.76 167.011996 
L 215.55 165.344529 
L 217.6425 164.355817 
L 219.735 163.640849 
L 221.8275 163.216683 
L 223.2225 163.110412 
L 224.6175 163.153376 
L 226.71 163.494692 
L 228.8025 164.165679 
L 230.895 165.128797 
L 232.9875 166.35035 
L 235.7775 168.284312 
L 244.845 174.961748 
L 246.9375 176.19654 
L 249.03 177.172536 
L 251.1225 177.873396 
L 252.5175 178.165588 
L 253.9125 178.299818 
L 255.3075 178.277697 
L 257.4 177.965852 
L 259.4925 177.344397 
L 261.585 176.439351 
L 263.6775 175.27257 
L 266.4675 173.407995 
L 276.2325 166.513502 
L 278.325 165.386019 
L 280.4175 164.504242 
L 282.51 163.902468 
L 284.6025 163.596742 
L 286.695 163.602079 
L 288.7875 163.895548 
L 290.88 164.458206 
L 292.9725 165.248785 
L 295.7625 166.600715 
L 299.25 168.562286 
L 303.435 170.882454 
L 306.225 172.168984 
L 308.3175 172.90955 
L 310.41 173.344297 
L 311.805 173.462578 
L 313.2 173.416821 
L 315.2925 173.062574 
L 317.385 172.44027 
L 319.4775 171.544195 
L 321.57 170.391234 
L 324.36 168.567283 
L 328.545 165.432245 
L 332.0325 162.860778 
L 334.8225 161.070549 
L 336.915 159.996233 
L 339.0075 159.251253 
L 340.4025 158.94632 
L 341.7975 158.804565 
L 343.1925 158.810929 
L 345.285 159.100941 
L 347.3775 159.714491 
L 349.47 160.634956 
L 352.26 162.195822 
L 356.445 164.956157 
L 361.3275 168.136104 
L 364.1175 169.730077 
L 366.21 170.687379 
L 368.3025 171.380005 
L 370.395 171.805532 
L 371.79 171.914326 
L 373.8825 171.804727 
L 375.975 171.38011 
L 378.0675 170.674852 
L 380.16 169.700955 
L 382.95 168.096266 
L 389.925 163.765283 
L 392.715 162.392551 
L 394.8075 161.607292 
L 396.9 161.067605 
L 398.295 160.883693 
L 400.3875 160.886154 
L 402.48 161.192285 
L 404.5725 161.809719 
L 406.665 162.730777 
L 408.7575 163.887672 
L 410.85 165.273334 
L 413.64 167.38632 
L 422.01 173.999535 
L 424.1025 175.29852 
L 426.195 176.346557 
L 428.2875 177.09206 
L 429.6825 177.388567 
L 431.0775 177.525949 
L 432.4725 177.501196 
L 434.565 177.171873 
L 436.6575 176.540199 
L 438.75 175.632822 
L 441.54 174.126786 
L 445.725 171.517961 
L 449.91 168.947144 
L 452.7 167.503212 
L 454.7925 166.664705 
L 456.885 166.059039 
L 458.9775 165.688912 
L 461.07 165.549813 
L 463.1625 165.680239 
L 465.255 166.123717 
L 467.3475 166.84937 
L 470.1375 168.184647 
L 473.625 170.21448 
L 480.6 174.308891 
L 483.39 175.712198 
L 486.18 176.841432 
L 488.97 177.679591 
L 491.0625 178.034523 
L 493.155 178.12188 
L 495.2475 177.932936 
L 497.34 177.549301 
L 499.4325 176.95374 
L 501.525 176.157215 
L 504.315 174.818069 
L 507.8025 172.865278 
L 517.5675 167.369284 
L 519.66 166.503107 
L 521.7525 165.818694 
L 523.845 165.304378 
L 525.9375 165.035179 
L 528.03 165.015335 
L 530.1225 165.254854 
L 532.215 165.773631 
L 535.005 166.783995 
L 539.19 168.658965 
L 541.98 169.914348 
L 544.77 170.894675 
L 546.8625 171.371924 
L 548.955 171.609871 
L 551.0475 171.556221 
L 553.14 171.231581 
L 555.2325 170.64712 
L 557.325 169.790905 
L 560.115 168.282778 
L 563.6025 166.042734 
L 574.065 158.777946 
L 576.1575 157.715654 
L 578.25 156.990355 
L 579.645 156.704499 
L 581.04 156.58999 
L 582.435 156.663002 
L 583.83 156.944704 
L 585.225 157.460724 
L 587.3175 158.537546 
L 588.7125 159.46619 
L 590.805 161.174339 
L 592.8975 163.181013 
L 595.6875 166.145321 
L 604.755 176.287224 
L 606.8475 178.277237 
L 608.94 180.07366 
L 611.0325 181.583835 
L 613.125 182.796921 
L 614.52 183.380687 
L 615.915 183.79221 
L 617.31 183.999801 
L 618.705 183.998911 
L 620.1 183.812229 
L 621.495 183.466541 
L 623.5875 182.644929 
L 625.68 181.569433 
L 628.47 179.796314 
L 632.655 176.810159 
L 637.5375 173.360142 
L 639.63 172.104329 
L 641.7225 171.103845 
L 643.815 170.385143 
L 645.9075 169.960986 
L 646.605 169.92 
L 646.605 169.92 
" style="fill:none;stroke:#008080;stroke-linecap:round;stroke-width:1.75;"/>
   </g>
   <g id="patch_3">
    <path d="M 90 270.72 
L 90 69.12 
" style="fill:none;stroke:#262626;stroke-linecap:square;stroke-linejoin:miter;stroke-width:1.25;"/>
   </g>
   <g id="patch_4">
    <path d="M 90 270.72 
L 648 270.72 
" style="fill:none;stroke:#262626;stroke-linecap:square;stroke-linejoin:miter;stroke-width:1.25;"/>
   </g>
  </g>
  <g id="axes_2">
   <g id="patch_5">
    <path d="M 90 512.64 
L 648 512.64 
L 648 311.04 
L 90 311.04 
z
" style="fill:#ffffff;"/>
   </g>
   <g id="matplotlib.axis_3">
    <g id="xtick_10">
     <g id="line2d_16">
      <g>
       <use style="fill:#262626;stroke:#262626;" x="191.454545" xlink:href="#mf10e381c69" y="512.64"/>
      </g>
     </g>
     <g id="text_15">
      <!-- 200 -->
      <g style="fill:#262626;" transform="translate(183.113139 532.797812)scale(0.1 -0.1)">
       <use xlink:href="#ArialMT-32"/>
       <use x="55.615234" xlink:href="#ArialMT-30"/>
       <use x="111.230469" xlink:href="#ArialMT-30"/>
      </g>
     </g>
    </g>
    <g id="xtick_11">
     <g id="line2d_17">
      <g>
       <use style="fill:#262626;stroke:#262626;" x="304.181818" xlink:href="#mf10e381c69" y="512.64"/>
      </g>
     </g>
     <g id="text_16">
      <!-- 400 -->
      <g style="fill:#262626;" transform="translate(295.840412 532.797812)scale(0.1 -0.1)">
       <use xlink:href="#ArialMT-34"/>
       <use x="55.615234" xlink:href="#ArialMT-30"/>
       <use x="111.230469" xlink:href="#ArialMT-30"/>
      </g>
     </g>
    </g>
    <g id="xtick_12">
     <g id="line2d_18">
      <g>
       <use style="fill:#262626;stroke:#262626;" x="416.909091" xlink:href="#mf10e381c69" y="512.64"/>
      </g>
     </g>
     <g id="text_17">
      <!-- 600 -->
      <g style="fill:#262626;" transform="translate(408.567685 532.797812)scale(0.1 -0.1)">
       <use xlink:href="#ArialMT-36"/>
       <use x="55.615234" xlink:href="#ArialMT-30"/>
       <use x="111.230469" xlink:href="#ArialMT-30"/>
      </g>
     </g>
    </g>
    <g id="xtick_13">
     <g id="line2d_19">
      <g>
       <use style="fill:#262626;stroke:#262626;" x="529.636364" xlink:href="#mf10e381c69" y="512.64"/>
      </g>
     </g>
     <g id="text_18">
      <!-- 800 -->
      <g style="fill:#262626;" transform="translate(521.294957 532.797812)scale(0.1 -0.1)">
       <use xlink:href="#ArialMT-38"/>
       <use x="55.615234" xlink:href="#ArialMT-30"/>
       <use x="111.230469" xlink:href="#ArialMT-30"/>
      </g>
     </g>
    </g>
    <g id="xtick_14">
     <g id="line2d_20">
      <g>
       <use style="fill:#262626;stroke:#262626;" x="642.363636" xlink:href="#mf10e381c69" y="512.64"/>
      </g>
     </g>
     <g id="text_19">
      <!-- 1000 -->
      <g style="fill:#262626;" transform="translate(631.241761 532.797812)scale(0.1 -0.1)">
       <use xlink:href="#ArialMT-31"/>
       <use x="55.615234" xlink:href="#ArialMT-30"/>
       <use x="111.230469" xlink:href="#ArialMT-30"/>
       <use x="166.845703" xlink:href="#ArialMT-30"/>
      </g>
     </g>
    </g>
   </g>
   <g id="matplotlib.axis_4">
    <g id="ytick_6">
     <g id="line2d_21">
      <g>
       <use style="fill:#262626;stroke:#262626;" x="90" xlink:href="#mf3d0248951" y="512.64"/>
      </g>
     </g>
     <g id="text_20">
      <!-- 0 -->
      <g style="fill:#262626;" transform="translate(71.439063 516.218906)scale(0.1 -0.1)">
       <use xlink:href="#ArialMT-30"/>
      </g>
     </g>
    </g>
    <g id="ytick_7">
     <g id="line2d_22">
      <g>
       <use style="fill:#262626;stroke:#262626;" x="90" xlink:href="#mf3d0248951" y="490.24"/>
      </g>
     </g>
     <g id="text_21">
      <!-- 2 -->
      <g style="fill:#262626;" transform="translate(71.439063 493.818906)scale(0.1 -0.1)">
       <use xlink:href="#ArialMT-32"/>
      </g>
     </g>
    </g>
    <g id="ytick_8">
     <g id="line2d_23">
      <g>
       <use style="fill:#262626;stroke:#262626;" x="90" xlink:href="#mf3d0248951" y="467.84"/>
      </g>
     </g>
     <g id="text_22">
      <!-- 4 -->
      <g style="fill:#262626;" transform="translate(71.439063 471.418906)scale(0.1 -0.1)">
       <use xlink:href="#ArialMT-34"/>
      </g>
     </g>
    </g>
    <g id="ytick_9">
     <g id="line2d_24">
      <g>
       <use style="fill:#262626;stroke:#262626;" x="90" xlink:href="#mf3d0248951" y="445.44"/>
      </g>
     </g>
     <g id="text_23">
      <!-- 6 -->
      <g style="fill:#262626;" transform="translate(71.439063 449.018906)scale(0.1 -0.1)">
       <use xlink:href="#ArialMT-36"/>
      </g>
     </g>
    </g>
    <g id="ytick_10">
     <g id="line2d_25">
      <g>
       <use style="fill:#262626;stroke:#262626;" x="90" xlink:href="#mf3d0248951" y="423.04"/>
      </g>
     </g>
     <g id="text_24">
      <!-- 8 -->
      <g style="fill:#262626;" transform="translate(71.439063 426.618906)scale(0.1 -0.1)">
       <use xlink:href="#ArialMT-38"/>
      </g>
     </g>
    </g>
    <g id="ytick_11">
     <g id="line2d_26">
      <g>
       <use style="fill:#262626;stroke:#262626;" x="90" xlink:href="#mf3d0248951" y="400.64"/>
      </g>
     </g>
     <g id="text_25">
      <!-- 10 -->
      <g style="fill:#262626;" transform="translate(65.878125 404.218906)scale(0.1 -0.1)">
       <use xlink:href="#ArialMT-31"/>
       <use x="55.615234" xlink:href="#ArialMT-30"/>
      </g>
     </g>
    </g>
    <g id="ytick_12">
     <g id="line2d_27">
      <g>
       <use style="fill:#262626;stroke:#262626;" x="90" xlink:href="#mf3d0248951" y="378.24"/>
      </g>
     </g>
     <g id="text_26">
      <!-- 12 -->
      <g style="fill:#262626;" transform="translate(65.878125 381.818906)scale(0.1 -0.1)">
       <use xlink:href="#ArialMT-31"/>
       <use x="55.615234" xlink:href="#ArialMT-32"/>
      </g>
     </g>
    </g>
    <g id="ytick_13">
     <g id="line2d_28">
      <g>
       <use style="fill:#262626;stroke:#262626;" x="90" xlink:href="#mf3d0248951" y="355.84"/>
      </g>
     </g>
     <g id="text_27">
      <!-- 14 -->
      <g style="fill:#262626;" transform="translate(65.878125 359.418906)scale(0.1 -0.1)">
       <use xlink:href="#ArialMT-31"/>
       <use x="55.615234" xlink:href="#ArialMT-34"/>
      </g>
     </g>
    </g>
    <g id="ytick_14">
     <g id="line2d_29">
      <g>
       <use style="fill:#262626;stroke:#262626;" x="90" xlink:href="#mf3d0248951" y="333.44"/>
      </g>
     </g>
     <g id="text_28">
      <!-- 16 -->
      <g style="fill:#262626;" transform="translate(65.878125 337.018906)scale(0.1 -0.1)">
       <use xlink:href="#ArialMT-31"/>
       <use x="55.615234" xlink:href="#ArialMT-36"/>
      </g>
     </g>
    </g>
    <g id="ytick_15">
     <g id="line2d_30">
      <g>
       <use style="fill:#262626;stroke:#262626;" x="90" xlink:href="#mf3d0248951" y="311.04"/>
      </g>
     </g>
     <g id="text_29">
      <!-- 18 -->
      <g style="fill:#262626;" transform="translate(65.878125 314.618906)scale(0.1 -0.1)">
       <use xlink:href="#ArialMT-31"/>
       <use x="55.615234" xlink:href="#ArialMT-38"/>
      </g>
     </g>
    </g>
   </g>
   <g id="line2d_31">
    <path clip-path="url(#p1c9e47429d)" d="M 90 477.654723 
L 95.636364 452.736402 
L 101.272727 431.923589 
L 106.909091 427.92302 
L 112.545455 440.45326 
L 118.181818 444.705349 
L 123.818182 448.961059 
L 129.454545 457.370701 
L 135.090909 456.375715 
L 140.727273 434.868159 
L 146.363636 408.816951 
L 152 389.988216 
L 157.636364 371.492183 
L 163.272727 352.310178 
L 168.909091 342.280664 
L 174.545455 348.647566 
L 180.181818 355.802406 
L 185.818182 363.350788 
L 191.454545 378.270766 
L 197.090909 391.147889 
L 202.727273 394.129256 
L 208.363636 396.550705 
L 214 393.395457 
L 219.636364 389.651786 
L 225.272727 392.702199 
L 230.909091 396.085016 
L 236.545455 399.690878 
L 242.181818 407.737617 
L 247.818182 414.331388 
L 253.454545 417.809913 
L 259.090909 422.903097 
L 264.727273 426.347751 
L 270.363636 429.764905 
L 276 436.797845 
L 281.636364 444.59905 
L 287.272727 452.348689 
L 292.909091 461.235722 
L 298.545455 467.982454 
L 304.181818 471.144774 
L 309.818182 472.257688 
L 315.454545 471.707893 
L 321.090909 472.117482 
L 326.727273 473.818281 
L 332.363636 475.619312 
L 338 478.193498 
L 343.636364 480.655986 
L 349.272727 482.144164 
L 354.909091 483.974362 
L 360.545455 485.825198 
L 366.181818 487.914885 
L 371.818182 490.804554 
" style="fill:none;stroke:#b22222;stroke-linecap:round;stroke-width:1.75;"/>
   </g>
   <g id="line2d_32">
    <path clip-path="url(#p1c9e47429d)" d="M 152 512.64 
L 152 311.04 
" style="fill:none;stroke:#4c72b0;stroke-linecap:round;stroke-width:1.75;"/>
   </g>
   <g id="patch_6">
    <path d="M 90 512.64 
L 90 311.04 
" style="fill:none;stroke:#262626;stroke-linecap:square;stroke-linejoin:miter;stroke-width:1.25;"/>
   </g>
   <g id="patch_7">
    <path d="M 90 512.64 
L 648 512.64 
" style="fill:none;stroke:#262626;stroke-linecap:square;stroke-linejoin:miter;stroke-width:1.25;"/>
   </g>
   <g id="text_30">
    <!-- f = 520 Hz -->
    <defs>
     <path d="M 8.6875 0 
L 8.6875 45.015625 
L 0.921875 45.015625 
L 0.921875 51.859375 
L 8.6875 51.859375 
L 8.6875 57.375 
Q 8.6875 62.59375 9.625 65.140625 
Q 10.890625 68.5625 14.078125 70.671875 
Q 17.28125 72.796875 23.046875 72.796875 
Q 26.765625 72.796875 31.25 71.921875 
L 29.9375 64.265625 
Q 27.203125 64.75 24.75 64.75 
Q 20.75 64.75 19.09375 63.03125 
Q 17.4375 61.328125 17.4375 56.640625 
L 17.4375 51.859375 
L 27.546875 51.859375 
L 27.546875 45.015625 
L 17.4375 45.015625 
L 17.4375 0 
z
" id="ArialMT-66"/>
     <path id="ArialMT-20"/>
     <path d="M 52.828125 42.09375 
L 5.5625 42.09375 
L 5.5625 50.296875 
L 52.828125 50.296875 
z
M 52.828125 20.359375 
L 5.5625 20.359375 
L 5.5625 28.5625 
L 52.828125 28.5625 
z
" id="ArialMT-3d"/>
     <path d="M 8.015625 0 
L 8.015625 71.578125 
L 17.484375 71.578125 
L 17.484375 42.1875 
L 54.6875 42.1875 
L 54.6875 71.578125 
L 64.15625 71.578125 
L 64.15625 0 
L 54.6875 0 
L 54.6875 33.734375 
L 17.484375 33.734375 
L 17.484375 0 
z
" id="ArialMT-48"/>
     <path d="M 1.953125 0 
L 1.953125 7.125 
L 34.96875 45.015625 
Q 29.34375 44.734375 25.046875 44.734375 
L 3.90625 44.734375 
L 3.90625 51.859375 
L 46.296875 51.859375 
L 46.296875 46.046875 
L 18.21875 13.140625 
L 12.796875 7.125 
Q 18.703125 7.5625 23.875 7.5625 
L 47.859375 7.5625 
L 47.859375 0 
z
" id="ArialMT-7a"/>
    </defs>
    <g style="fill:#262626;" transform="translate(529.636364 403.742188)scale(0.12 -0.12)">
     <use xlink:href="#ArialMT-66"/>
     <use x="27.783203" xlink:href="#ArialMT-20"/>
     <use x="55.566406" xlink:href="#ArialMT-3d"/>
     <use x="113.964844" xlink:href="#ArialMT-20"/>
     <use x="141.748047" xlink:href="#ArialMT-35"/>
     <use x="197.363281" xlink:href="#ArialMT-32"/>
     <use x="252.978516" xlink:href="#ArialMT-30"/>
     <use x="308.59375" xlink:href="#ArialMT-20"/>
     <use x="336.376953" xlink:href="#ArialMT-48"/>
     <use x="408.59375" xlink:href="#ArialMT-7a"/>
    </g>
   </g>
   <g id="PathCollection_1">
    <defs>
     <path d="M 0 3.5 
C 0.928211 3.5 1.81853 3.131218 2.474874 2.474874 
C 3.131218 1.81853 3.5 0.928211 3.5 0 
C 3.5 -0.928211 3.131218 -1.81853 2.474874 -2.474874 
C 1.81853 -3.131218 0.928211 -3.5 0 -3.5 
C -0.928211 -3.5 -1.81853 -3.131218 -2.474874 -2.474874 
C -3.131218 -1.81853 -3.5 -0.928211 -3.5 0 
C -3.5 0.928211 -3.131218 1.81853 -2.474874 2.474874 
C -1.81853 3.131218 -0.928211 3.5 0 3.5 
z
" id="m1e38ad8e80" style="stroke:#800000;stroke-width:0.3;"/>
    </defs>
    <g clip-path="url(#p1c9e47429d)">
     <use style="fill:#800000;stroke:#800000;stroke-width:0.3;" x="371.818182" xlink:href="#m1e38ad8e80" y="490.804554"/>
    </g>
   </g>
  </g>
 </g>
 <defs>
  <clipPath id="pfe1b9475cf">
   <rect height="201.6" width="558" x="90" y="69.12"/>
  </clipPath>
  <clipPath id="p1c9e47429d">
   <rect height="201.6" width="558" x="90" y="311.04"/>
  </clipPath>
 </defs>
</svg>
