<?xml version="1.0" encoding="utf-8" standalone="no"?>
<!DOCTYPE svg PUBLIC "-//W3C//DTD SVG 1.1//EN"
  "http://www.w3.org/Graphics/SVG/1.1/DTD/svg11.dtd">
<!-- Created with matplotlib (http://matplotlib.org/) -->
<svg height="576pt" version="1.1" viewBox="0 0 720 576" width="720pt" xmlns="http://www.w3.org/2000/svg" xmlns:xlink="http://www.w3.org/1999/xlink">
 <defs>
  <style type="text/css">
*{stroke-linecap:butt;stroke-linejoin:round;}
  </style>
 </defs>
 <g id="figure_1">
  <g id="patch_1">
   <path d="M 0 576 
L 720 576 
L 720 0 
L 0 0 
z
" style="fill:#ffffff;"/>
  </g>
  <g id="axes_1">
   <g id="patch_2">
    <path d="M 90 270.72 
L 648 270.72 
L 648 69.12 
L 90 69.12 
z
" style="fill:#ffffff;"/>
   </g>
   <g id="matplotlib.axis_1">
    <g id="xtick_1">
     <g id="line2d_1">
      <defs>
       <path d="M 0 0 
L 0 6 
" id="m62272092a6" style="stroke:#262626;"/>
      </defs>
      <g>
       <use style="fill:#262626;stroke:#262626;" x="90" xlink:href="#m62272092a6" y="270.72"/>
      </g>
     </g>
     <g id="text_1">
      <!-- 0 -->
      <defs>
       <path d="M 4.15625 35.296875 
Q 4.15625 48 6.765625 55.734375 
Q 9.375 63.484375 14.515625 67.671875 
Q 19.671875 71.875 27.484375 71.875 
Q 33.25 71.875 37.59375 69.546875 
Q 41.9375 67.234375 44.765625 62.859375 
Q 47.609375 58.5 49.21875 52.21875 
Q 50.828125 45.953125 50.828125 35.296875 
Q 50.828125 22.703125 48.234375 14.96875 
Q 45.65625 7.234375 40.5 3 
Q 35.359375 -1.21875 27.484375 -1.21875 
Q 17.140625 -1.21875 11.234375 6.203125 
Q 4.15625 15.140625 4.15625 35.296875 
z
M 13.1875 35.296875 
Q 13.1875 17.671875 17.3125 11.828125 
Q 21.4375 6 27.484375 6 
Q 33.546875 6 37.671875 11.859375 
Q 41.796875 17.71875 41.796875 35.296875 
Q 41.796875 52.984375 37.671875 58.78125 
Q 33.546875 64.59375 27.390625 64.59375 
Q 21.34375 64.59375 17.71875 59.46875 
Q 13.1875 52.9375 13.1875 35.296875 
z
" id="ArialMT-30"/>
      </defs>
      <g style="fill:#262626;" transform="translate(87.219531 290.877812)scale(0.1 -0.1)">
       <use xlink:href="#ArialMT-30"/>
      </g>
     </g>
    </g>
    <g id="xtick_2">
     <g id="line2d_2">
      <g>
       <use style="fill:#262626;stroke:#262626;" x="159.75" xlink:href="#m62272092a6" y="270.72"/>
      </g>
     </g>
     <g id="text_2">
      <!-- 100 -->
      <defs>
       <path d="M 37.25 0 
L 28.46875 0 
L 28.46875 56 
Q 25.296875 52.984375 20.140625 49.953125 
Q 14.984375 46.921875 10.890625 45.40625 
L 10.890625 53.90625 
Q 18.265625 57.375 23.78125 62.296875 
Q 29.296875 67.234375 31.59375 71.875 
L 37.25 71.875 
z
" id="ArialMT-31"/>
      </defs>
      <g style="fill:#262626;" transform="translate(151.408594 290.877812)scale(0.1 -0.1)">
       <use xlink:href="#ArialMT-31"/>
       <use x="55.615234" xlink:href="#ArialMT-30"/>
       <use x="111.230469" xlink:href="#ArialMT-30"/>
      </g>
     </g>
    </g>
    <g id="xtick_3">
     <g id="line2d_3">
      <g>
       <use style="fill:#262626;stroke:#262626;" x="229.5" xlink:href="#m62272092a6" y="270.72"/>
      </g>
     </g>
     <g id="text_3">
      <!-- 200 -->
      <defs>
       <path d="M 50.34375 8.453125 
L 50.34375 0 
L 3.03125 0 
Q 2.9375 3.171875 4.046875 6.109375 
Q 5.859375 10.9375 9.828125 15.625 
Q 13.8125 20.3125 21.34375 26.46875 
Q 33.015625 36.03125 37.109375 41.625 
Q 41.21875 47.21875 41.21875 52.203125 
Q 41.21875 57.421875 37.46875 61 
Q 33.734375 64.59375 27.734375 64.59375 
Q 21.390625 64.59375 17.578125 60.78125 
Q 13.765625 56.984375 13.71875 50.25 
L 4.6875 51.171875 
Q 5.609375 61.28125 11.65625 66.578125 
Q 17.71875 71.875 27.9375 71.875 
Q 38.234375 71.875 44.234375 66.15625 
Q 50.25 60.453125 50.25 52 
Q 50.25 47.703125 48.484375 43.546875 
Q 46.734375 39.40625 42.65625 34.8125 
Q 38.578125 30.21875 29.109375 22.21875 
Q 21.1875 15.578125 18.9375 13.203125 
Q 16.703125 10.84375 15.234375 8.453125 
z
" id="ArialMT-32"/>
      </defs>
      <g style="fill:#262626;" transform="translate(221.158594 290.877812)scale(0.1 -0.1)">
       <use xlink:href="#ArialMT-32"/>
       <use x="55.615234" xlink:href="#ArialMT-30"/>
       <use x="111.230469" xlink:href="#ArialMT-30"/>
      </g>
     </g>
    </g>
    <g id="xtick_4">
     <g id="line2d_4">
      <g>
       <use style="fill:#262626;stroke:#262626;" x="299.25" xlink:href="#m62272092a6" y="270.72"/>
      </g>
     </g>
     <g id="text_4">
      <!-- 300 -->
      <defs>
       <path d="M 4.203125 18.890625 
L 12.984375 20.0625 
Q 14.5 12.59375 18.140625 9.296875 
Q 21.78125 6 27 6 
Q 33.203125 6 37.46875 10.296875 
Q 41.75 14.59375 41.75 20.953125 
Q 41.75 27 37.796875 30.921875 
Q 33.84375 34.859375 27.734375 34.859375 
Q 25.25 34.859375 21.53125 33.890625 
L 22.515625 41.609375 
Q 23.390625 41.5 23.921875 41.5 
Q 29.546875 41.5 34.03125 44.421875 
Q 38.53125 47.359375 38.53125 53.46875 
Q 38.53125 58.296875 35.25 61.46875 
Q 31.984375 64.65625 26.8125 64.65625 
Q 21.6875 64.65625 18.265625 61.421875 
Q 14.84375 58.203125 13.875 51.765625 
L 5.078125 53.328125 
Q 6.6875 62.15625 12.390625 67.015625 
Q 18.109375 71.875 26.609375 71.875 
Q 32.46875 71.875 37.390625 69.359375 
Q 42.328125 66.84375 44.9375 62.5 
Q 47.5625 58.15625 47.5625 53.265625 
Q 47.5625 48.640625 45.0625 44.828125 
Q 42.578125 41.015625 37.703125 38.765625 
Q 44.046875 37.3125 47.5625 32.6875 
Q 51.078125 28.078125 51.078125 21.140625 
Q 51.078125 11.765625 44.234375 5.25 
Q 37.40625 -1.265625 26.953125 -1.265625 
Q 17.53125 -1.265625 11.296875 4.34375 
Q 5.078125 9.96875 4.203125 18.890625 
z
" id="ArialMT-33"/>
      </defs>
      <g style="fill:#262626;" transform="translate(290.908594 290.877812)scale(0.1 -0.1)">
       <use xlink:href="#ArialMT-33"/>
       <use x="55.615234" xlink:href="#ArialMT-30"/>
       <use x="111.230469" xlink:href="#ArialMT-30"/>
      </g>
     </g>
    </g>
    <g id="xtick_5">
     <g id="line2d_5">
      <g>
       <use style="fill:#262626;stroke:#262626;" x="369" xlink:href="#m62272092a6" y="270.72"/>
      </g>
     </g>
     <g id="text_5">
      <!-- 400 -->
      <defs>
       <path d="M 32.328125 0 
L 32.328125 17.140625 
L 1.265625 17.140625 
L 1.265625 25.203125 
L 33.9375 71.578125 
L 41.109375 71.578125 
L 41.109375 25.203125 
L 50.78125 25.203125 
L 50.78125 17.140625 
L 41.109375 17.140625 
L 41.109375 0 
z
M 32.328125 25.203125 
L 32.328125 57.46875 
L 9.90625 25.203125 
z
" id="ArialMT-34"/>
      </defs>
      <g style="fill:#262626;" transform="translate(360.658594 290.877812)scale(0.1 -0.1)">
       <use xlink:href="#ArialMT-34"/>
       <use x="55.615234" xlink:href="#ArialMT-30"/>
       <use x="111.230469" xlink:href="#ArialMT-30"/>
      </g>
     </g>
    </g>
    <g id="xtick_6">
     <g id="line2d_6">
      <g>
       <use style="fill:#262626;stroke:#262626;" x="438.75" xlink:href="#m62272092a6" y="270.72"/>
      </g>
     </g>
     <g id="text_6">
      <!-- 500 -->
      <defs>
       <path d="M 4.15625 18.75 
L 13.375 19.53125 
Q 14.40625 12.796875 18.140625 9.390625 
Q 21.875 6 27.15625 6 
Q 33.5 6 37.890625 10.78125 
Q 42.28125 15.578125 42.28125 23.484375 
Q 42.28125 31 38.0625 35.34375 
Q 33.84375 39.703125 27 39.703125 
Q 22.75 39.703125 19.328125 37.765625 
Q 15.921875 35.84375 13.96875 32.765625 
L 5.71875 33.84375 
L 12.640625 70.609375 
L 48.25 70.609375 
L 48.25 62.203125 
L 19.671875 62.203125 
L 15.828125 42.96875 
Q 22.265625 47.46875 29.34375 47.46875 
Q 38.71875 47.46875 45.15625 40.96875 
Q 51.609375 34.46875 51.609375 24.265625 
Q 51.609375 14.546875 45.953125 7.46875 
Q 39.0625 -1.21875 27.15625 -1.21875 
Q 17.390625 -1.21875 11.203125 4.25 
Q 5.03125 9.71875 4.15625 18.75 
z
" id="ArialMT-35"/>
      </defs>
      <g style="fill:#262626;" transform="translate(430.408594 290.877812)scale(0.1 -0.1)">
       <use xlink:href="#ArialMT-35"/>
       <use x="55.615234" xlink:href="#ArialMT-30"/>
       <use x="111.230469" xlink:href="#ArialMT-30"/>
      </g>
     </g>
    </g>
    <g id="xtick_7">
     <g id="line2d_7">
      <g>
       <use style="fill:#262626;stroke:#262626;" x="508.5" xlink:href="#m62272092a6" y="270.72"/>
      </g>
     </g>
     <g id="text_7">
      <!-- 600 -->
      <defs>
       <path d="M 49.75 54.046875 
L 41.015625 53.375 
Q 39.84375 58.546875 37.703125 60.890625 
Q 34.125 64.65625 28.90625 64.65625 
Q 24.703125 64.65625 21.53125 62.3125 
Q 17.390625 59.28125 14.984375 53.46875 
Q 12.59375 47.65625 12.5 36.921875 
Q 15.671875 41.75 20.265625 44.09375 
Q 24.859375 46.4375 29.890625 46.4375 
Q 38.671875 46.4375 44.84375 39.96875 
Q 51.03125 33.5 51.03125 23.25 
Q 51.03125 16.5 48.125 10.71875 
Q 45.21875 4.9375 40.140625 1.859375 
Q 35.0625 -1.21875 28.609375 -1.21875 
Q 17.625 -1.21875 10.6875 6.859375 
Q 3.765625 14.9375 3.765625 33.5 
Q 3.765625 54.25 11.421875 63.671875 
Q 18.109375 71.875 29.4375 71.875 
Q 37.890625 71.875 43.28125 67.140625 
Q 48.6875 62.40625 49.75 54.046875 
z
M 13.875 23.1875 
Q 13.875 18.65625 15.796875 14.5 
Q 17.71875 10.359375 21.1875 8.171875 
Q 24.65625 6 28.46875 6 
Q 34.03125 6 38.03125 10.484375 
Q 42.046875 14.984375 42.046875 22.703125 
Q 42.046875 30.125 38.078125 34.390625 
Q 34.125 38.671875 28.125 38.671875 
Q 22.171875 38.671875 18.015625 34.390625 
Q 13.875 30.125 13.875 23.1875 
z
" id="ArialMT-36"/>
      </defs>
      <g style="fill:#262626;" transform="translate(500.158594 290.877812)scale(0.1 -0.1)">
       <use xlink:href="#ArialMT-36"/>
       <use x="55.615234" xlink:href="#ArialMT-30"/>
       <use x="111.230469" xlink:href="#ArialMT-30"/>
      </g>
     </g>
    </g>
    <g id="xtick_8">
     <g id="line2d_8">
      <g>
       <use style="fill:#262626;stroke:#262626;" x="578.25" xlink:href="#m62272092a6" y="270.72"/>
      </g>
     </g>
     <g id="text_8">
      <!-- 700 -->
      <defs>
       <path d="M 4.734375 62.203125 
L 4.734375 70.65625 
L 51.078125 70.65625 
L 51.078125 63.8125 
Q 44.234375 56.546875 37.515625 44.484375 
Q 30.8125 32.421875 27.15625 19.671875 
Q 24.515625 10.6875 23.78125 0 
L 14.75 0 
Q 14.890625 8.453125 18.0625 20.40625 
Q 21.234375 32.375 27.171875 43.484375 
Q 33.109375 54.59375 39.796875 62.203125 
z
" id="ArialMT-37"/>
      </defs>
      <g style="fill:#262626;" transform="translate(569.908594 290.877812)scale(0.1 -0.1)">
       <use xlink:href="#ArialMT-37"/>
       <use x="55.615234" xlink:href="#ArialMT-30"/>
       <use x="111.230469" xlink:href="#ArialMT-30"/>
      </g>
     </g>
    </g>
    <g id="xtick_9">
     <g id="line2d_9">
      <g>
       <use style="fill:#262626;stroke:#262626;" x="648" xlink:href="#m62272092a6" y="270.72"/>
      </g>
     </g>
     <g id="text_9">
      <!-- 800 -->
      <defs>
       <path d="M 17.671875 38.8125 
Q 12.203125 40.828125 9.5625 44.53125 
Q 6.9375 48.25 6.9375 53.421875 
Q 6.9375 61.234375 12.546875 66.546875 
Q 18.171875 71.875 27.484375 71.875 
Q 36.859375 71.875 42.578125 66.421875 
Q 48.296875 60.984375 48.296875 53.171875 
Q 48.296875 48.1875 45.671875 44.5 
Q 43.0625 40.828125 37.75 38.8125 
Q 44.34375 36.671875 47.78125 31.875 
Q 51.21875 27.09375 51.21875 20.453125 
Q 51.21875 11.28125 44.71875 5.03125 
Q 38.234375 -1.21875 27.640625 -1.21875 
Q 17.046875 -1.21875 10.546875 5.046875 
Q 4.046875 11.328125 4.046875 20.703125 
Q 4.046875 27.6875 7.59375 32.390625 
Q 11.140625 37.109375 17.671875 38.8125 
z
M 15.921875 53.71875 
Q 15.921875 48.640625 19.1875 45.40625 
Q 22.46875 42.1875 27.6875 42.1875 
Q 32.765625 42.1875 36.015625 45.375 
Q 39.265625 48.578125 39.265625 53.21875 
Q 39.265625 58.0625 35.90625 61.359375 
Q 32.5625 64.65625 27.59375 64.65625 
Q 22.5625 64.65625 19.234375 61.421875 
Q 15.921875 58.203125 15.921875 53.71875 
z
M 13.09375 20.65625 
Q 13.09375 16.890625 14.875 13.375 
Q 16.65625 9.859375 20.171875 7.921875 
Q 23.6875 6 27.734375 6 
Q 34.03125 6 38.125 10.046875 
Q 42.234375 14.109375 42.234375 20.359375 
Q 42.234375 26.703125 38.015625 30.859375 
Q 33.796875 35.015625 27.4375 35.015625 
Q 21.234375 35.015625 17.15625 30.90625 
Q 13.09375 26.8125 13.09375 20.65625 
z
" id="ArialMT-38"/>
      </defs>
      <g style="fill:#262626;" transform="translate(639.658594 290.877812)scale(0.1 -0.1)">
       <use xlink:href="#ArialMT-38"/>
       <use x="55.615234" xlink:href="#ArialMT-30"/>
       <use x="111.230469" xlink:href="#ArialMT-30"/>
      </g>
     </g>
    </g>
   </g>
   <g id="matplotlib.axis_2">
    <g id="ytick_1">
     <g id="line2d_10">
      <defs>
       <path d="M 0 0 
L -6 0 
" id="me136c076bb" style="stroke:#262626;"/>
      </defs>
      <g>
       <use style="fill:#262626;stroke:#262626;" x="90" xlink:href="#me136c076bb" y="250.56"/>
      </g>
     </g>
     <g id="text_10">
      <!-- −0.04 -->
      <defs>
       <path d="M 52.828125 31.203125 
L 5.5625 31.203125 
L 5.5625 39.40625 
L 52.828125 39.40625 
z
" id="ArialMT-2212"/>
       <path d="M 9.078125 0 
L 9.078125 10.015625 
L 19.09375 10.015625 
L 19.09375 0 
z
" id="ArialMT-2e"/>
      </defs>
      <g style="fill:#262626;" transform="translate(51.698437 254.138906)scale(0.1 -0.1)">
       <use xlink:href="#ArialMT-2212"/>
       <use x="58.398438" xlink:href="#ArialMT-30"/>
       <use x="114.013672" xlink:href="#ArialMT-2e"/>
       <use x="141.796875" xlink:href="#ArialMT-30"/>
       <use x="197.412109" xlink:href="#ArialMT-34"/>
      </g>
     </g>
    </g>
    <g id="ytick_2">
     <g id="line2d_11">
      <g>
       <use style="fill:#262626;stroke:#262626;" x="90" xlink:href="#me136c076bb" y="210.24"/>
      </g>
     </g>
     <g id="text_11">
      <!-- −0.02 -->
      <g style="fill:#262626;" transform="translate(51.698437 213.818906)scale(0.1 -0.1)">
       <use xlink:href="#ArialMT-2212"/>
       <use x="58.398438" xlink:href="#ArialMT-30"/>
       <use x="114.013672" xlink:href="#ArialMT-2e"/>
       <use x="141.796875" xlink:href="#ArialMT-30"/>
       <use x="197.412109" xlink:href="#ArialMT-32"/>
      </g>
     </g>
    </g>
    <g id="ytick_3">
     <g id="line2d_12">
      <g>
       <use style="fill:#262626;stroke:#262626;" x="90" xlink:href="#me136c076bb" y="169.92"/>
      </g>
     </g>
     <g id="text_12">
      <!-- 0.00 -->
      <g style="fill:#262626;" transform="translate(57.539062 173.498906)scale(0.1 -0.1)">
       <use xlink:href="#ArialMT-30"/>
       <use x="55.615234" xlink:href="#ArialMT-2e"/>
       <use x="83.398438" xlink:href="#ArialMT-30"/>
       <use x="139.013672" xlink:href="#ArialMT-30"/>
      </g>
     </g>
    </g>
    <g id="ytick_4">
     <g id="line2d_13">
      <g>
       <use style="fill:#262626;stroke:#262626;" x="90" xlink:href="#me136c076bb" y="129.6"/>
      </g>
     </g>
     <g id="text_13">
      <!-- 0.02 -->
      <g style="fill:#262626;" transform="translate(57.539062 133.178906)scale(0.1 -0.1)">
       <use xlink:href="#ArialMT-30"/>
       <use x="55.615234" xlink:href="#ArialMT-2e"/>
       <use x="83.398438" xlink:href="#ArialMT-30"/>
       <use x="139.013672" xlink:href="#ArialMT-32"/>
      </g>
     </g>
    </g>
    <g id="ytick_5">
     <g id="line2d_14">
      <g>
       <use style="fill:#262626;stroke:#262626;" x="90" xlink:href="#me136c076bb" y="89.28"/>
      </g>
     </g>
     <g id="text_14">
      <!-- 0.04 -->
      <g style="fill:#262626;" transform="translate(57.539062 92.858906)scale(0.1 -0.1)">
       <use xlink:href="#ArialMT-30"/>
       <use x="55.615234" xlink:href="#ArialMT-2e"/>
       <use x="83.398438" xlink:href="#ArialMT-30"/>
       <use x="139.013672" xlink:href="#ArialMT-34"/>
      </g>
     </g>
    </g>
   </g>
   <g id="PolyCollection_1">
    <path clip-path="url(#p1c690ef5f6)" d="M 90 164.957894 
L 90 169.92 
L 90.6975 169.92 
L 91.395 169.92 
L 92.0925 169.92 
L 92.79 169.92 
L 93.4875 169.92 
L 94.185 169.92 
L 94.8825 169.92 
L 95.58 169.92 
L 96.2775 169.92 
L 96.975 169.92 
L 97.6725 169.92 
L 98.37 169.92 
L 99.0675 169.92 
L 99.765 169.92 
L 100.4625 169.92 
L 101.16 169.92 
L 101.8575 169.92 
L 102.555 169.92 
L 103.2525 169.92 
L 103.95 169.92 
L 104.6475 169.92 
L 105.345 169.92 
L 106.0425 169.92 
L 106.74 169.92 
L 107.4375 169.92 
L 108.135 169.92 
L 108.8325 169.92 
L 109.53 169.92 
L 110.2275 169.92 
L 110.925 169.92 
L 111.6225 169.92 
L 112.32 169.92 
L 113.0175 169.92 
L 113.715 169.92 
L 114.4125 169.92 
L 115.11 169.92 
L 115.8075 169.92 
L 116.505 169.92 
L 117.2025 169.92 
L 117.9 169.92 
L 118.5975 169.92 
L 119.295 169.92 
L 119.9925 169.92 
L 120.69 169.92 
L 121.3875 169.92 
L 122.085 169.92 
L 122.7825 169.92 
L 123.48 169.92 
L 124.1775 169.92 
L 124.875 169.92 
L 125.5725 169.92 
L 126.27 169.92 
L 126.9675 169.92 
L 127.665 169.92 
L 128.3625 169.92 
L 129.06 169.92 
L 129.7575 169.92 
L 130.455 169.92 
L 131.1525 169.92 
L 131.85 169.92 
L 132.5475 169.92 
L 133.245 169.92 
L 133.9425 169.92 
L 134.64 169.92 
L 135.3375 169.92 
L 136.035 169.92 
L 136.7325 169.92 
L 137.43 169.92 
L 138.1275 169.92 
L 138.825 169.92 
L 139.5225 169.92 
L 140.22 169.92 
L 140.9175 169.92 
L 141.615 169.92 
L 142.3125 169.92 
L 143.01 169.92 
L 143.7075 169.92 
L 144.405 169.92 
L 145.1025 169.92 
L 145.8 169.92 
L 146.4975 169.92 
L 147.195 169.92 
L 147.8925 169.92 
L 148.59 169.92 
L 149.2875 169.92 
L 149.985 169.92 
L 150.6825 169.92 
L 151.38 169.92 
L 152.0775 169.92 
L 152.775 169.92 
L 153.4725 169.92 
L 154.17 169.92 
L 154.8675 169.92 
L 155.565 169.92 
L 156.2625 169.92 
L 156.96 169.92 
L 157.6575 169.92 
L 158.355 169.92 
L 159.0525 169.92 
L 159.75 169.92 
L 160.4475 169.92 
L 161.145 169.92 
L 161.8425 169.92 
L 162.54 169.92 
L 163.2375 169.92 
L 163.935 169.92 
L 164.6325 169.92 
L 165.33 169.92 
L 166.0275 169.92 
L 166.725 169.92 
L 167.4225 169.92 
L 168.12 169.92 
L 168.8175 169.92 
L 169.515 169.92 
L 170.2125 169.92 
L 170.91 169.92 
L 171.6075 169.92 
L 172.305 169.92 
L 173.0025 169.92 
L 173.7 169.92 
L 174.3975 169.92 
L 175.095 169.92 
L 175.7925 169.92 
L 176.49 169.92 
L 177.1875 169.92 
L 177.885 169.92 
L 178.5825 169.92 
L 179.28 169.92 
L 179.9775 169.92 
L 180.675 169.92 
L 181.3725 169.92 
L 182.07 169.92 
L 182.7675 169.92 
L 183.465 169.92 
L 184.1625 169.92 
L 184.86 169.92 
L 185.5575 169.92 
L 186.255 169.92 
L 186.9525 169.92 
L 187.65 169.92 
L 188.3475 169.92 
L 189.045 169.92 
L 189.7425 169.92 
L 190.44 169.92 
L 191.1375 169.92 
L 191.835 169.92 
L 192.5325 169.92 
L 193.23 169.92 
L 193.9275 169.92 
L 194.625 169.92 
L 195.3225 169.92 
L 196.02 169.92 
L 196.7175 169.92 
L 197.415 169.92 
L 198.1125 169.92 
L 198.81 169.92 
L 199.5075 169.92 
L 200.205 169.92 
L 200.9025 169.92 
L 201.6 169.92 
L 202.2975 169.92 
L 202.995 169.92 
L 203.6925 169.92 
L 204.39 169.92 
L 205.0875 169.92 
L 205.785 169.92 
L 206.4825 169.92 
L 207.18 169.92 
L 207.8775 169.92 
L 208.575 169.92 
L 209.2725 169.92 
L 209.97 169.92 
L 210.6675 169.92 
L 211.365 169.92 
L 212.0625 169.92 
L 212.76 169.92 
L 213.4575 169.92 
L 214.155 169.92 
L 214.8525 169.92 
L 215.55 169.92 
L 216.2475 169.92 
L 216.945 169.92 
L 217.6425 169.92 
L 218.34 169.92 
L 219.0375 169.92 
L 219.735 169.92 
L 220.4325 169.92 
L 221.13 169.92 
L 221.8275 169.92 
L 222.525 169.92 
L 223.2225 169.92 
L 223.92 169.92 
L 224.6175 169.92 
L 225.315 169.92 
L 226.0125 169.92 
L 226.71 169.92 
L 227.4075 169.92 
L 228.105 169.92 
L 228.8025 169.92 
L 229.5 169.92 
L 230.1975 169.92 
L 230.895 169.92 
L 231.5925 169.92 
L 232.29 169.92 
L 232.9875 169.92 
L 233.685 169.92 
L 234.3825 169.92 
L 235.08 169.92 
L 235.7775 169.92 
L 236.475 169.92 
L 237.1725 169.92 
L 237.87 169.92 
L 238.5675 169.92 
L 239.265 169.92 
L 239.9625 169.92 
L 240.66 169.92 
L 241.3575 169.92 
L 242.055 169.92 
L 242.7525 169.92 
L 243.45 169.92 
L 244.1475 169.92 
L 244.845 169.92 
L 245.5425 169.92 
L 246.24 169.92 
L 246.9375 169.92 
L 247.635 169.92 
L 248.3325 169.92 
L 249.03 169.92 
L 249.7275 169.92 
L 250.425 169.92 
L 251.1225 169.92 
L 251.82 169.92 
L 252.5175 169.92 
L 253.215 169.92 
L 253.9125 169.92 
L 254.61 169.92 
L 255.3075 169.92 
L 256.005 169.92 
L 256.7025 169.92 
L 257.4 169.92 
L 258.0975 169.92 
L 258.795 169.92 
L 259.4925 169.92 
L 260.19 169.92 
L 260.8875 169.92 
L 261.585 169.92 
L 262.2825 169.92 
L 262.98 169.92 
L 263.6775 169.92 
L 264.375 169.92 
L 265.0725 169.92 
L 265.77 169.92 
L 266.4675 169.92 
L 267.165 169.92 
L 267.8625 169.92 
L 268.56 169.92 
L 269.2575 169.92 
L 269.955 169.92 
L 270.6525 169.92 
L 271.35 169.92 
L 272.0475 169.92 
L 272.745 169.92 
L 273.4425 169.92 
L 274.14 169.92 
L 274.8375 169.92 
L 275.535 169.92 
L 276.2325 169.92 
L 276.93 169.92 
L 277.6275 169.92 
L 278.325 169.92 
L 279.0225 169.92 
L 279.72 169.92 
L 280.4175 169.92 
L 281.115 169.92 
L 281.8125 169.92 
L 282.51 169.92 
L 283.2075 169.92 
L 283.905 169.92 
L 284.6025 169.92 
L 285.3 169.92 
L 285.9975 169.92 
L 286.695 169.92 
L 287.3925 169.92 
L 288.09 169.92 
L 288.7875 169.92 
L 289.485 169.92 
L 290.1825 169.92 
L 290.88 169.92 
L 291.5775 169.92 
L 292.275 169.92 
L 292.9725 169.92 
L 293.67 169.92 
L 294.3675 169.92 
L 295.065 169.92 
L 295.7625 169.92 
L 296.46 169.92 
L 297.1575 169.92 
L 297.855 169.92 
L 298.5525 169.92 
L 299.25 169.92 
L 299.9475 169.92 
L 300.645 169.92 
L 301.3425 169.92 
L 302.04 169.92 
L 302.7375 169.92 
L 303.435 169.92 
L 304.1325 169.92 
L 304.83 169.92 
L 305.5275 169.92 
L 306.225 169.92 
L 306.9225 169.92 
L 307.62 169.92 
L 308.3175 169.92 
L 309.015 169.92 
L 309.7125 169.92 
L 310.41 169.92 
L 311.1075 169.92 
L 311.805 169.92 
L 312.5025 169.92 
L 313.2 169.92 
L 313.8975 169.92 
L 314.595 169.92 
L 315.2925 169.92 
L 315.99 169.92 
L 316.6875 169.92 
L 317.385 169.92 
L 318.0825 169.92 
L 318.78 169.92 
L 319.4775 169.92 
L 320.175 169.92 
L 320.8725 169.92 
L 321.57 169.92 
L 322.2675 169.92 
L 322.965 169.92 
L 323.6625 169.92 
L 324.36 169.92 
L 325.0575 169.92 
L 325.755 169.92 
L 326.4525 169.92 
L 327.15 169.92 
L 327.8475 169.92 
L 328.545 169.92 
L 329.2425 169.92 
L 329.94 169.92 
L 330.6375 169.92 
L 331.335 169.92 
L 332.0325 169.92 
L 332.73 169.92 
L 333.4275 169.92 
L 334.125 169.92 
L 334.8225 169.92 
L 335.52 169.92 
L 336.2175 169.92 
L 336.915 169.92 
L 337.6125 169.92 
L 338.31 169.92 
L 339.0075 169.92 
L 339.705 169.92 
L 340.4025 169.92 
L 341.1 169.92 
L 341.7975 169.92 
L 342.495 169.92 
L 343.1925 169.92 
L 343.89 169.92 
L 344.5875 169.92 
L 345.285 169.92 
L 345.9825 169.92 
L 346.68 169.92 
L 347.3775 169.92 
L 348.075 169.92 
L 348.7725 169.92 
L 349.47 169.92 
L 350.1675 169.92 
L 350.865 169.92 
L 351.5625 169.92 
L 352.26 169.92 
L 352.9575 169.92 
L 353.655 169.92 
L 354.3525 169.92 
L 355.05 169.92 
L 355.7475 169.92 
L 356.445 169.92 
L 357.1425 169.92 
L 357.84 169.92 
L 358.5375 169.92 
L 359.235 169.92 
L 359.9325 169.92 
L 360.63 169.92 
L 361.3275 169.92 
L 362.025 169.92 
L 362.7225 169.92 
L 363.42 169.92 
L 364.1175 169.92 
L 364.815 169.92 
L 365.5125 169.92 
L 366.21 169.92 
L 366.9075 169.92 
L 367.605 169.92 
L 368.3025 169.92 
L 369 169.92 
L 369.6975 169.92 
L 370.395 169.92 
L 371.0925 169.92 
L 371.79 169.92 
L 372.4875 169.92 
L 373.185 169.92 
L 373.8825 169.92 
L 374.58 169.92 
L 375.2775 169.92 
L 375.975 169.92 
L 376.6725 169.92 
L 377.37 169.92 
L 378.0675 169.92 
L 378.765 169.92 
L 379.4625 169.92 
L 380.16 169.92 
L 380.8575 169.92 
L 381.555 169.92 
L 382.2525 169.92 
L 382.95 169.92 
L 383.6475 169.92 
L 384.345 169.92 
L 385.0425 169.92 
L 385.74 169.92 
L 386.4375 169.92 
L 387.135 169.92 
L 387.8325 169.92 
L 388.53 169.92 
L 389.2275 169.92 
L 389.925 169.92 
L 390.6225 169.92 
L 391.32 169.92 
L 392.0175 169.92 
L 392.715 169.92 
L 393.4125 169.92 
L 394.11 169.92 
L 394.8075 169.92 
L 395.505 169.92 
L 396.2025 169.92 
L 396.9 169.92 
L 397.5975 169.92 
L 398.295 169.92 
L 398.9925 169.92 
L 399.69 169.92 
L 400.3875 169.92 
L 401.085 169.92 
L 401.7825 169.92 
L 402.48 169.92 
L 403.1775 169.92 
L 403.875 169.92 
L 404.5725 169.92 
L 405.27 169.92 
L 405.9675 169.92 
L 406.665 169.92 
L 407.3625 169.92 
L 408.06 169.92 
L 408.7575 169.92 
L 409.455 169.92 
L 410.1525 169.92 
L 410.85 169.92 
L 411.5475 169.92 
L 412.245 169.92 
L 412.9425 169.92 
L 413.64 169.92 
L 414.3375 169.92 
L 415.035 169.92 
L 415.7325 169.92 
L 416.43 169.92 
L 417.1275 169.92 
L 417.825 169.92 
L 418.5225 169.92 
L 419.22 169.92 
L 419.9175 169.92 
L 420.615 169.92 
L 421.3125 169.92 
L 422.01 169.92 
L 422.7075 169.92 
L 423.405 169.92 
L 424.1025 169.92 
L 424.8 169.92 
L 425.4975 169.92 
L 426.195 169.92 
L 426.8925 169.92 
L 427.59 169.92 
L 428.2875 169.92 
L 428.985 169.92 
L 429.6825 169.92 
L 430.38 169.92 
L 431.0775 169.92 
L 431.775 169.92 
L 432.4725 169.92 
L 433.17 169.92 
L 433.8675 169.92 
L 434.565 169.92 
L 435.2625 169.92 
L 435.96 169.92 
L 436.6575 169.92 
L 437.355 169.92 
L 438.0525 169.92 
L 438.75 169.92 
L 439.4475 169.92 
L 440.145 169.92 
L 440.8425 169.92 
L 441.54 169.92 
L 442.2375 169.92 
L 442.935 169.92 
L 443.6325 169.92 
L 444.33 169.92 
L 445.0275 169.92 
L 445.725 169.92 
L 446.4225 169.92 
L 447.12 169.92 
L 447.8175 169.92 
L 448.515 169.92 
L 449.2125 169.92 
L 449.91 169.92 
L 450.6075 169.92 
L 451.305 169.92 
L 452.0025 169.92 
L 452.7 169.92 
L 453.3975 169.92 
L 454.095 169.92 
L 454.7925 169.92 
L 455.49 169.92 
L 456.1875 169.92 
L 456.885 169.92 
L 457.5825 169.92 
L 458.28 169.92 
L 458.9775 169.92 
L 459.675 169.92 
L 460.3725 169.92 
L 461.07 169.92 
L 461.7675 169.92 
L 462.465 169.92 
L 463.1625 169.92 
L 463.86 169.92 
L 464.5575 169.92 
L 465.255 169.92 
L 465.9525 169.92 
L 466.65 169.92 
L 467.3475 169.92 
L 468.045 169.92 
L 468.7425 169.92 
L 469.44 169.92 
L 470.1375 169.92 
L 470.835 169.92 
L 471.5325 169.92 
L 472.23 169.92 
L 472.9275 169.92 
L 473.625 169.92 
L 474.3225 169.92 
L 475.02 169.92 
L 475.7175 169.92 
L 476.415 169.92 
L 477.1125 169.92 
L 477.81 169.92 
L 478.5075 169.92 
L 479.205 169.92 
L 479.9025 169.92 
L 480.6 169.92 
L 481.2975 169.92 
L 481.995 169.92 
L 482.6925 169.92 
L 483.39 169.92 
L 484.0875 169.92 
L 484.785 169.92 
L 485.4825 169.92 
L 486.18 169.92 
L 486.8775 169.92 
L 487.575 169.92 
L 488.2725 169.92 
L 488.97 169.92 
L 489.6675 169.92 
L 490.365 169.92 
L 491.0625 169.92 
L 491.76 169.92 
L 492.4575 169.92 
L 493.155 169.92 
L 493.8525 169.92 
L 494.55 169.92 
L 495.2475 169.92 
L 495.945 169.92 
L 496.6425 169.92 
L 497.34 169.92 
L 498.0375 169.92 
L 498.735 169.92 
L 499.4325 169.92 
L 500.13 169.92 
L 500.8275 169.92 
L 501.525 169.92 
L 502.2225 169.92 
L 502.92 169.92 
L 503.6175 169.92 
L 504.315 169.92 
L 505.0125 169.92 
L 505.71 169.92 
L 506.4075 169.92 
L 507.105 169.92 
L 507.8025 169.92 
L 508.5 169.92 
L 509.1975 169.92 
L 509.895 169.92 
L 510.5925 169.92 
L 511.29 169.92 
L 511.9875 169.92 
L 512.685 169.92 
L 513.3825 169.92 
L 514.08 169.92 
L 514.7775 169.92 
L 515.475 169.92 
L 516.1725 169.92 
L 516.87 169.92 
L 517.5675 169.92 
L 518.265 169.92 
L 518.9625 169.92 
L 519.66 169.92 
L 520.3575 169.92 
L 521.055 169.92 
L 521.7525 169.92 
L 522.45 169.92 
L 523.1475 169.92 
L 523.845 169.92 
L 524.5425 169.92 
L 525.24 169.92 
L 525.9375 169.92 
L 526.635 169.92 
L 527.3325 169.92 
L 528.03 169.92 
L 528.7275 169.92 
L 529.425 169.92 
L 530.1225 169.92 
L 530.82 169.92 
L 531.5175 169.92 
L 532.215 169.92 
L 532.9125 169.92 
L 533.61 169.92 
L 534.3075 169.92 
L 535.005 169.92 
L 535.7025 169.92 
L 536.4 169.92 
L 537.0975 169.92 
L 537.795 169.92 
L 538.4925 169.92 
L 539.19 169.92 
L 539.8875 169.92 
L 540.585 169.92 
L 541.2825 169.92 
L 541.98 169.92 
L 542.6775 169.92 
L 543.375 169.92 
L 544.0725 169.92 
L 544.77 169.92 
L 545.4675 169.92 
L 546.165 169.92 
L 546.8625 169.92 
L 547.56 169.92 
L 548.2575 169.92 
L 548.955 169.92 
L 549.6525 169.92 
L 550.35 169.92 
L 551.0475 169.92 
L 551.745 169.92 
L 552.4425 169.92 
L 553.14 169.92 
L 553.8375 169.92 
L 554.535 169.92 
L 555.2325 169.92 
L 555.93 169.92 
L 556.6275 169.92 
L 557.325 169.92 
L 558.0225 169.92 
L 558.72 169.92 
L 559.4175 169.92 
L 560.115 169.92 
L 560.8125 169.92 
L 561.51 169.92 
L 562.2075 169.92 
L 562.905 169.92 
L 563.6025 169.92 
L 564.3 169.92 
L 564.9975 169.92 
L 565.695 169.92 
L 566.3925 169.92 
L 567.09 169.92 
L 567.7875 169.92 
L 568.485 169.92 
L 569.1825 169.92 
L 569.88 169.92 
L 570.5775 169.92 
L 571.275 169.92 
L 571.9725 169.92 
L 572.67 169.92 
L 573.3675 169.92 
L 574.065 169.92 
L 574.7625 169.92 
L 575.46 169.92 
L 576.1575 169.92 
L 576.855 169.92 
L 577.5525 169.92 
L 578.25 169.92 
L 578.9475 169.92 
L 579.645 169.92 
L 580.3425 169.92 
L 581.04 169.92 
L 581.7375 169.92 
L 582.435 169.92 
L 583.1325 169.92 
L 583.83 169.92 
L 584.5275 169.92 
L 585.225 169.92 
L 585.9225 169.92 
L 586.62 169.92 
L 587.3175 169.92 
L 588.015 169.92 
L 588.7125 169.92 
L 589.41 169.92 
L 590.1075 169.92 
L 590.805 169.92 
L 591.5025 169.92 
L 592.2 169.92 
L 592.8975 169.92 
L 593.595 169.92 
L 594.2925 169.92 
L 594.99 169.92 
L 595.6875 169.92 
L 596.385 169.92 
L 597.0825 169.92 
L 597.78 169.92 
L 598.4775 169.92 
L 599.175 169.92 
L 599.8725 169.92 
L 600.57 169.92 
L 601.2675 169.92 
L 601.965 169.92 
L 602.6625 169.92 
L 603.36 169.92 
L 604.0575 169.92 
L 604.755 169.92 
L 605.4525 169.92 
L 606.15 169.92 
L 606.8475 169.92 
L 607.545 169.92 
L 608.2425 169.92 
L 608.94 169.92 
L 609.6375 169.92 
L 610.335 169.92 
L 611.0325 169.92 
L 611.73 169.92 
L 612.4275 169.92 
L 613.125 169.92 
L 613.8225 169.92 
L 614.52 169.92 
L 615.2175 169.92 
L 615.915 169.92 
L 616.6125 169.92 
L 617.31 169.92 
L 618.0075 169.92 
L 618.705 169.92 
L 619.4025 169.92 
L 620.1 169.92 
L 620.7975 169.92 
L 621.495 169.92 
L 622.1925 169.92 
L 622.89 169.92 
L 623.5875 169.92 
L 624.285 169.92 
L 624.9825 169.92 
L 625.68 169.92 
L 626.3775 169.92 
L 627.075 169.92 
L 627.7725 169.92 
L 628.47 169.92 
L 629.1675 169.92 
L 629.865 169.92 
L 630.5625 169.92 
L 631.26 169.92 
L 631.9575 169.92 
L 632.655 169.92 
L 633.3525 169.92 
L 634.05 169.92 
L 634.7475 169.92 
L 635.445 169.92 
L 636.1425 169.92 
L 636.84 169.92 
L 637.5375 169.92 
L 638.235 169.92 
L 638.9325 169.92 
L 639.63 169.92 
L 640.3275 169.92 
L 641.025 169.92 
L 641.7225 169.92 
L 642.42 169.92 
L 643.1175 169.92 
L 643.815 169.92 
L 644.5125 169.92 
L 645.21 169.92 
L 645.9075 169.92 
L 646.605 169.92 
L 646.605 169.92 
L 646.605 169.92 
L 645.9075 169.967277 
L 645.21 170.093002 
L 644.5125 170.254235 
L 643.815 170.455051 
L 643.1175 170.704489 
L 642.42 170.979714 
L 641.7225 171.273466 
L 641.025 171.620368 
L 640.3275 171.996875 
L 639.63 172.394985 
L 638.9325 172.838055 
L 638.235 173.291331 
L 637.5375 173.772515 
L 636.84 174.267586 
L 636.1425 174.778182 
L 635.445 175.300574 
L 634.7475 175.825694 
L 634.05 176.3392 
L 633.3525 176.832089 
L 632.655 177.33228 
L 631.9575 177.815107 
L 631.26 178.28755 
L 630.5625 178.751412 
L 629.865 179.208558 
L 629.1675 179.624131 
L 628.47 180.021361 
L 627.7725 180.392095 
L 627.075 180.749383 
L 626.3775 181.059098 
L 625.68 181.33999 
L 624.9825 181.579502 
L 624.285 181.765379 
L 623.5875 181.933034 
L 622.89 182.049724 
L 622.1925 182.130356 
L 621.495 182.169089 
L 620.7975 182.155134 
L 620.1 182.072833 
L 619.4025 181.959559 
L 618.705 181.789874 
L 618.0075 181.575523 
L 617.31 181.302312 
L 616.6125 180.966985 
L 615.915 180.598255 
L 615.2175 180.172549 
L 614.52 179.698231 
L 613.8225 179.194523 
L 613.125 178.654598 
L 612.4275 178.071893 
L 611.73 177.455917 
L 611.0325 176.837434 
L 610.335 176.2052 
L 609.6375 175.548076 
L 608.94 174.886619 
L 608.2425 174.215154 
L 607.545 173.528078 
L 606.8475 172.856676 
L 606.15 172.200597 
L 605.4525 171.554126 
L 604.755 170.885215 
L 604.0575 170.246026 
L 603.36 169.599202 
L 602.6625 168.975733 
L 601.965 168.359161 
L 601.2675 167.764494 
L 600.57 167.190822 
L 599.8725 166.637082 
L 599.175 166.117824 
L 598.4775 165.605323 
L 597.78 165.145345 
L 597.0825 164.699227 
L 596.385 164.291237 
L 595.6875 163.91385 
L 594.99 163.569822 
L 594.2925 163.277424 
L 593.595 163.012528 
L 592.8975 162.792826 
L 592.2 162.604164 
L 591.5025 162.432161 
L 590.805 162.309592 
L 590.1075 162.232097 
L 589.41 162.189739 
L 588.7125 162.172319 
L 588.015 162.200977 
L 587.3175 162.280757 
L 586.62 162.390063 
L 585.9225 162.528099 
L 585.225 162.678096 
L 584.5275 162.849465 
L 583.83 163.051461 
L 583.1325 163.293115 
L 582.435 163.567407 
L 581.7375 163.86183 
L 581.04 164.174233 
L 580.3425 164.502334 
L 579.645 164.827979 
L 578.9475 165.164548 
L 578.25 165.493823 
L 577.5525 165.8134 
L 576.855 166.147211 
L 576.1575 166.461299 
L 575.46 166.790141 
L 574.7625 167.084058 
L 574.065 167.351411 
L 573.3675 167.600752 
L 572.67 167.814502 
L 571.9725 168.027871 
L 571.275 168.213034 
L 570.5775 168.363387 
L 569.88 168.472579 
L 569.1825 168.566078 
L 568.485 168.611682 
L 567.7875 168.609058 
L 567.09 168.589744 
L 566.3925 168.532869 
L 565.695 168.438847 
L 564.9975 168.318872 
L 564.3 168.189579 
L 563.6025 168.0309 
L 562.905 167.833488 
L 562.2075 167.630303 
L 561.51 167.401817 
L 560.8125 167.160204 
L 560.115 166.912481 
L 559.4175 166.655206 
L 558.72 166.400763 
L 558.0225 166.129998 
L 557.325 165.871154 
L 556.6275 165.594604 
L 555.93 165.333884 
L 555.2325 165.059382 
L 554.535 164.794113 
L 553.8375 164.545269 
L 553.14 164.293655 
L 552.4425 164.077878 
L 551.745 163.857492 
L 551.0475 163.670876 
L 550.35 163.493129 
L 549.6525 163.357066 
L 548.955 163.237417 
L 548.2575 163.12455 
L 547.56 163.045553 
L 546.8625 163.001003 
L 546.165 162.985973 
L 545.4675 162.990067 
L 544.77 163.02376 
L 544.0725 163.081555 
L 543.375 163.16828 
L 542.6775 163.278051 
L 541.98 163.436331 
L 541.2825 163.605191 
L 540.585 163.804413 
L 539.8875 164.032539 
L 539.19 164.282651 
L 538.4925 164.573935 
L 537.795 164.893757 
L 537.0975 165.245035 
L 536.4 165.625202 
L 535.7025 166.036735 
L 535.005 166.460871 
L 534.3075 166.920775 
L 533.61 167.381572 
L 532.9125 167.871414 
L 532.215 168.360458 
L 531.5175 168.871398 
L 530.82 169.39525 
L 530.1225 169.922933 
L 529.425 170.471608 
L 528.7275 171.005747 
L 528.03 171.542463 
L 527.3325 172.072583 
L 526.635 172.586982 
L 525.9375 173.07665 
L 525.24 173.548516 
L 524.5425 173.993883 
L 523.845 174.41475 
L 523.1475 174.813295 
L 522.45 175.165598 
L 521.7525 175.47959 
L 521.055 175.742473 
L 520.3575 175.962833 
L 519.66 176.144313 
L 518.9625 176.280334 
L 518.265 176.364651 
L 517.5675 176.41766 
L 516.87 176.428467 
L 516.1725 176.386487 
L 515.475 176.31304 
L 514.7775 176.203408 
L 514.08 176.058392 
L 513.3825 175.879052 
L 512.685 175.65619 
L 511.9875 175.386183 
L 511.29 175.076254 
L 510.5925 174.739173 
L 509.895 174.387908 
L 509.1975 174.009266 
L 508.5 173.62177 
L 507.8025 173.201986 
L 507.105 172.78975 
L 506.4075 172.367061 
L 505.71 171.94226 
L 505.0125 171.502689 
L 504.315 171.072572 
L 503.6175 170.655048 
L 502.92 170.237409 
L 502.2225 169.854223 
L 501.525 169.482023 
L 500.8275 169.134034 
L 500.13 168.797038 
L 499.4325 168.478749 
L 498.735 168.197251 
L 498.0375 167.949346 
L 497.34 167.736845 
L 496.6425 167.556048 
L 495.945 167.41878 
L 495.2475 167.326045 
L 494.55 167.289024 
L 493.8525 167.276471 
L 493.155 167.314743 
L 492.4575 167.372042 
L 491.76 167.479467 
L 491.0625 167.620474 
L 490.365 167.794035 
L 489.6675 167.993629 
L 488.97 168.228303 
L 488.2725 168.485838 
L 487.575 168.769606 
L 486.8775 169.098547 
L 486.18 169.459751 
L 485.4825 169.840076 
L 484.785 170.236744 
L 484.0875 170.662616 
L 483.39 171.104076 
L 482.6925 171.547394 
L 481.995 171.989333 
L 481.2975 172.437171 
L 480.6 172.877131 
L 479.9025 173.311253 
L 479.205 173.731114 
L 478.5075 174.144152 
L 477.81 174.531593 
L 477.1125 174.901113 
L 476.415 175.239508 
L 475.7175 175.565317 
L 475.02 175.849896 
L 474.3225 176.096421 
L 473.625 176.30309 
L 472.9275 176.463141 
L 472.23 176.575406 
L 471.5325 176.639064 
L 470.835 176.679915 
L 470.1375 176.671396 
L 469.44 176.618823 
L 468.7425 176.533085 
L 468.045 176.409556 
L 467.3475 176.238631 
L 466.65 176.032065 
L 465.9525 175.801872 
L 465.255 175.549734 
L 464.5575 175.261733 
L 463.86 174.939973 
L 463.1625 174.602562 
L 462.465 174.230953 
L 461.7675 173.86463 
L 461.07 173.469499 
L 460.3725 173.053697 
L 459.675 172.620262 
L 458.9775 172.167106 
L 458.28 171.687032 
L 457.5825 171.215065 
L 456.885 170.744146 
L 456.1875 170.261955 
L 455.49 169.777267 
L 454.7925 169.319885 
L 454.095 168.866887 
L 453.3975 168.432086 
L 452.7 168.018657 
L 452.0025 167.634873 
L 451.305 167.278285 
L 450.6075 166.951495 
L 449.91 166.662144 
L 449.2125 166.407093 
L 448.515 166.193456 
L 447.8175 166.017541 
L 447.12 165.870127 
L 446.4225 165.762797 
L 445.725 165.701587 
L 445.0275 165.681691 
L 444.33 165.719014 
L 443.6325 165.792271 
L 442.935 165.900927 
L 442.2375 166.038936 
L 441.54 166.226301 
L 440.8425 166.445895 
L 440.145 166.711874 
L 439.4475 167.006536 
L 438.75 167.34874 
L 438.0525 167.709723 
L 437.355 168.097355 
L 436.6575 168.508803 
L 435.96 168.930559 
L 435.2625 169.370046 
L 434.565 169.818803 
L 433.8675 170.278804 
L 433.17 170.736186 
L 432.4725 171.198112 
L 431.775 171.650704 
L 431.0775 172.090656 
L 430.38 172.514755 
L 429.6825 172.925157 
L 428.985 173.313611 
L 428.2875 173.67728 
L 427.59 174.008256 
L 426.8925 174.309373 
L 426.195 174.583687 
L 425.4975 174.823941 
L 424.8 175.028379 
L 424.1025 175.200762 
L 423.405 175.329325 
L 422.7075 175.434141 
L 422.01 175.48818 
L 421.3125 175.501552 
L 420.615 175.47416 
L 419.9175 175.400952 
L 419.22 175.282461 
L 418.5225 175.119554 
L 417.825 174.923925 
L 417.1275 174.686499 
L 416.43 174.414261 
L 415.7325 174.103947 
L 415.035 173.747317 
L 414.3375 173.367989 
L 413.64 172.963478 
L 412.9425 172.526234 
L 412.245 172.080462 
L 411.5475 171.613658 
L 410.85 171.118726 
L 410.1525 170.609787 
L 409.455 170.090557 
L 408.7575 169.564828 
L 408.06 169.031187 
L 407.3625 168.488279 
L 406.665 167.955826 
L 405.9675 167.411455 
L 405.27 166.874898 
L 404.5725 166.339568 
L 403.875 165.825135 
L 403.1775 165.330101 
L 402.48 164.847578 
L 401.7825 164.396847 
L 401.085 163.960188 
L 400.3875 163.551298 
L 399.69 163.178413 
L 398.9925 162.828501 
L 398.295 162.509367 
L 397.5975 162.239104 
L 396.9 162.009177 
L 396.2025 161.82652 
L 395.505 161.68196 
L 394.8075 161.581806 
L 394.11 161.52679 
L 393.4125 161.496302 
L 392.715 161.511575 
L 392.0175 161.5725 
L 391.32 161.668124 
L 390.6225 161.818761 
L 389.925 161.991793 
L 389.2275 162.201716 
L 388.53 162.462755 
L 387.8325 162.757245 
L 387.135 163.083035 
L 386.4375 163.453505 
L 385.74 163.844936 
L 385.0425 164.254471 
L 384.345 164.689625 
L 383.6475 165.147218 
L 382.95 165.613404 
L 382.2525 166.079525 
L 381.555 166.547429 
L 380.8575 167.018952 
L 380.16 167.485398 
L 379.4625 167.94336 
L 378.765 168.38424 
L 378.0675 168.799565 
L 377.37 169.202061 
L 376.6725 169.573031 
L 375.975 169.920269 
L 375.2775 170.246493 
L 374.58 170.538816 
L 373.8825 170.800354 
L 373.185 171.023944 
L 372.4875 171.213208 
L 371.79 171.366762 
L 371.0925 171.478232 
L 370.395 171.546804 
L 369.6975 171.571977 
L 369 171.569327 
L 368.3025 171.512607 
L 367.605 171.43375 
L 366.9075 171.312319 
L 366.21 171.149203 
L 365.5125 170.950844 
L 364.815 170.718692 
L 364.1175 170.443936 
L 363.42 170.139089 
L 362.7225 169.806377 
L 362.025 169.44823 
L 361.3275 169.067264 
L 360.63 168.676767 
L 359.9325 168.263831 
L 359.235 167.836727 
L 358.5375 167.403825 
L 357.84 166.947276 
L 357.1425 166.491426 
L 356.445 166.023846 
L 355.7475 165.558455 
L 355.05 165.093401 
L 354.3525 164.621573 
L 353.655 164.156923 
L 352.9575 163.697592 
L 352.26 163.257441 
L 351.5625 162.844937 
L 350.865 162.447333 
L 350.1675 162.072787 
L 349.47 161.724034 
L 348.7725 161.403621 
L 348.075 161.119141 
L 347.3775 160.872672 
L 346.68 160.671267 
L 345.9825 160.511143 
L 345.285 160.388217 
L 344.5875 160.308641 
L 343.89 160.278247 
L 343.1925 160.286753 
L 342.495 160.339348 
L 341.7975 160.435649 
L 341.1 160.5697 
L 340.4025 160.751027 
L 339.705 160.978306 
L 339.0075 161.244625 
L 338.31 161.553291 
L 337.6125 161.896797 
L 336.915 162.28314 
L 336.2175 162.709498 
L 335.52 163.162253 
L 334.8225 163.638096 
L 334.125 164.133554 
L 333.4275 164.65026 
L 332.73 165.179188 
L 332.0325 165.711222 
L 331.335 166.252982 
L 330.6375 166.795259 
L 329.94 167.323586 
L 329.2425 167.84461 
L 328.545 168.370286 
L 327.8475 168.870509 
L 327.15 169.362639 
L 326.4525 169.832574 
L 325.755 170.271629 
L 325.0575 170.681852 
L 324.36 171.060246 
L 323.6625 171.404048 
L 322.965 171.710746 
L 322.2675 171.978101 
L 321.57 172.209414 
L 320.8725 172.408247 
L 320.175 172.562643 
L 319.4775 172.676727 
L 318.78 172.749666 
L 318.0825 172.775674 
L 317.385 172.759814 
L 316.6875 172.707455 
L 315.99 172.613727 
L 315.2925 172.484567 
L 314.595 172.320918 
L 313.8975 172.134482 
L 313.2 171.91086 
L 312.5025 171.646434 
L 311.805 171.343134 
L 311.1075 171.003176 
L 310.41 170.634295 
L 309.7125 170.244439 
L 309.015 169.831201 
L 308.3175 169.402853 
L 307.62 168.952018 
L 306.9225 168.492492 
L 306.225 168.022381 
L 305.5275 167.560875 
L 304.83 167.111346 
L 304.1325 166.66657 
L 303.435 166.23505 
L 302.7375 165.825189 
L 302.04 165.429475 
L 301.3425 165.05605 
L 300.645 164.707643 
L 299.9475 164.386797 
L 299.25 164.095856 
L 298.5525 163.836945 
L 297.855 163.611954 
L 297.1575 163.433033 
L 296.46 163.296236 
L 295.7625 163.202561 
L 295.065 163.14744 
L 294.3675 163.136528 
L 293.67 163.169905 
L 292.9725 163.247327 
L 292.275 163.373482 
L 291.5775 163.536942 
L 290.88 163.74702 
L 290.1825 163.991675 
L 289.485 164.279627 
L 288.7875 164.603519 
L 288.09 164.960986 
L 287.3925 165.354671 
L 286.695 165.776444 
L 285.9975 166.22848 
L 285.3 166.696969 
L 284.6025 167.194251 
L 283.905 167.71144 
L 283.2075 168.244758 
L 282.51 168.790311 
L 281.8125 169.344115 
L 281.115 169.902125 
L 280.4175 170.460265 
L 279.72 171.019712 
L 279.0225 171.571128 
L 278.325 172.110485 
L 277.6275 172.639097 
L 276.93 173.153104 
L 276.2325 173.643498 
L 275.535 174.111952 
L 274.8375 174.555043 
L 274.14 174.974789 
L 273.4425 175.362871 
L 272.745 175.711202 
L 272.0475 176.027744 
L 271.35 176.299679 
L 270.6525 176.530274 
L 269.955 176.717845 
L 269.2575 176.85577 
L 268.56 176.953546 
L 267.8625 177.010459 
L 267.165 177.031348 
L 266.4675 177.005553 
L 265.77 176.938516 
L 265.0725 176.830727 
L 264.375 176.677719 
L 263.6775 176.491116 
L 262.98 176.261775 
L 262.2825 175.986118 
L 261.585 175.676664 
L 260.8875 175.33042 
L 260.19 174.955169 
L 259.4925 174.553649 
L 258.795 174.128795 
L 258.0975 173.683708 
L 257.4 173.22164 
L 256.7025 172.745964 
L 256.005 172.260156 
L 255.3075 171.773015 
L 254.61 171.277595 
L 253.9125 170.782765 
L 253.215 170.286887 
L 252.5175 169.798836 
L 251.82 169.316922 
L 251.1225 168.844666 
L 250.425 168.390769 
L 249.7275 167.958547 
L 249.03 167.551156 
L 248.3325 167.171571 
L 247.635 166.822565 
L 246.9375 166.506686 
L 246.24 166.215736 
L 245.5425 165.962345 
L 244.845 165.743111 
L 244.1475 165.570141 
L 243.45 165.434193 
L 242.7525 165.341511 
L 242.055 165.287521 
L 241.3575 165.267364 
L 240.66 165.291692 
L 239.9625 165.355075 
L 239.265 165.45705 
L 238.5675 165.591619 
L 237.87 165.7578 
L 237.1725 165.959632 
L 236.475 166.195641 
L 235.7775 166.45885 
L 235.08 166.75259 
L 234.3825 167.074715 
L 233.685 167.422873 
L 232.9875 167.789269 
L 232.29 168.171226 
L 231.5925 168.576461 
L 230.895 168.996761 
L 230.1975 169.423804 
L 229.5 169.859724 
L 228.8025 170.290831 
L 228.105 170.724482 
L 227.4075 171.152258 
L 226.71 171.571035 
L 226.0125 171.983007 
L 225.315 172.379911 
L 224.6175 172.758851 
L 223.92 173.117057 
L 223.2225 173.451914 
L 222.525 173.760976 
L 221.8275 174.041986 
L 221.13 174.292893 
L 220.4325 174.506609 
L 219.735 174.686828 
L 219.0375 174.826981 
L 218.34 174.931296 
L 217.6425 174.999012 
L 216.945 175.029635 
L 216.2475 175.02294 
L 215.55 174.978976 
L 214.8525 174.898066 
L 214.155 174.780799 
L 213.4575 174.633284 
L 212.76 174.451348 
L 212.0625 174.236317 
L 211.365 173.995016 
L 210.6675 173.723954 
L 209.97 173.42511 
L 209.2725 173.100667 
L 208.575 172.752995 
L 207.8775 172.384632 
L 207.18 171.99827 
L 206.4825 171.596729 
L 205.785 171.182942 
L 205.0875 170.759932 
L 204.39 170.330788 
L 203.6925 169.898643 
L 202.995 169.466655 
L 202.2975 169.048483 
L 201.6 168.636676 
L 200.9025 168.234242 
L 200.205 167.844119 
L 199.5075 167.469157 
L 198.81 167.112095 
L 198.1125 166.780792 
L 197.415 166.472417 
L 196.7175 166.18922 
L 196.02 165.93327 
L 195.3225 165.706436 
L 194.625 165.510376 
L 193.9275 165.34652 
L 193.23 165.216066 
L 192.5325 165.119966 
L 191.835 165.058923 
L 191.1375 165.033382 
L 190.44 165.043529 
L 189.7425 165.08929 
L 189.045 165.170332 
L 188.3475 165.286062 
L 187.65 165.435636 
L 186.9525 165.61796 
L 186.255 165.831703 
L 185.5575 166.075304 
L 184.86 166.346985 
L 184.1625 166.64476 
L 183.465 166.966456 
L 182.7675 167.309722 
L 182.07 167.672052 
L 181.3725 168.0508 
L 180.675 168.443198 
L 179.9775 168.846383 
L 179.28 169.257408 
L 178.5825 169.673272 
L 177.885 170.090939 
L 177.1875 170.507357 
L 176.49 170.919485 
L 175.7925 171.324314 
L 175.095 171.718886 
L 174.3975 172.100321 
L 173.7 172.465832 
L 173.0025 172.81275 
L 172.305 173.138542 
L 171.6075 173.440827 
L 170.91 173.717399 
L 170.2125 173.966237 
L 169.515 174.185524 
L 168.8175 174.373658 
L 168.12 174.529266 
L 167.4225 174.645958 
L 166.725 174.728135 
L 166.0275 174.775197 
L 165.33 174.786799 
L 164.6325 174.762858 
L 163.935 174.703547 
L 163.2375 174.609301 
L 162.54 174.480808 
L 161.8425 174.313752 
L 161.145 174.114607 
L 160.4475 173.884828 
L 159.75 173.626093 
L 159.0525 173.34029 
L 158.355 173.029508 
L 157.6575 172.696016 
L 156.96 172.342251 
L 156.2625 171.970794 
L 155.565 171.58436 
L 154.8675 171.185771 
L 154.17 170.777938 
L 153.4725 170.363838 
L 152.775 169.946497 
L 152.0775 169.52371 
L 151.38 169.103817 
L 150.6825 168.684631 
L 149.985 168.274468 
L 149.2875 167.876323 
L 148.59 167.493104 
L 147.8925 167.127609 
L 147.195 166.782508 
L 146.4975 166.46032 
L 145.8 166.1634 
L 145.1025 165.893916 
L 144.405 165.653835 
L 143.7075 165.444912 
L 143.01 165.268672 
L 142.3125 165.126401 
L 141.615 165.01914 
L 140.9175 164.947672 
L 140.22 164.912518 
L 139.5225 164.908682 
L 138.825 164.941446 
L 138.1275 165.01057 
L 137.43 165.120801 
L 136.7325 165.266083 
L 136.035 165.445354 
L 135.3375 165.657305 
L 134.64 165.900387 
L 133.9425 166.178079 
L 133.245 166.4831 
L 132.5475 166.813221 
L 131.85 167.166032 
L 131.1525 167.538957 
L 130.455 167.92927 
L 129.7575 168.334123 
L 129.06 168.750558 
L 128.3625 169.175534 
L 127.665 169.605946 
L 126.9675 170.038653 
L 126.27 170.470493 
L 125.5725 170.898312 
L 124.875 171.318987 
L 124.1775 171.729444 
L 123.48 172.126686 
L 122.7825 172.507812 
L 122.085 172.870039 
L 121.3875 173.21072 
L 120.69 173.527368 
L 119.9925 173.817671 
L 119.295 174.079507 
L 118.5975 174.310966 
L 117.9 174.510355 
L 117.2025 174.67622 
L 116.505 174.807349 
L 115.8075 174.902783 
L 115.11 174.961827 
L 114.4125 174.984049 
L 113.715 174.969286 
L 113.0175 174.917647 
L 112.32 174.829508 
L 111.6225 174.705514 
L 110.925 174.546569 
L 110.2275 174.353835 
L 109.53 174.128719 
L 108.8325 173.872866 
L 108.135 173.588144 
L 107.4375 173.276632 
L 106.74 172.940605 
L 106.0425 172.582518 
L 105.345 172.204986 
L 104.6475 171.810766 
L 103.95 171.402736 
L 103.2525 170.983878 
L 102.555 170.557251 
L 101.8575 170.125969 
L 101.16 169.693182 
L 100.4625 169.262053 
L 99.765 168.835728 
L 99.0675 168.417323 
L 98.37 168.009891 
L 97.6725 167.616411 
L 96.975 167.239753 
L 96.2775 166.882671 
L 95.58 166.547771 
L 94.8825 166.242753 
L 94.185 165.96459 
L 93.4875 165.715316 
L 92.79 165.496749 
L 92.0925 165.310487 
L 91.395 165.15789 
L 90.6975 165.040072 
L 90 164.957894 
z
" style="fill:#e0ffff;"/>
   </g>
   <g id="line2d_15">
    <path clip-path="url(#p1c690ef5f6)" d="M 90 164.957894 
L 92.0925 165.310487 
L 94.185 165.96459 
L 96.2775 166.882671 
L 99.0675 168.417323 
L 106.74 172.940605 
L 108.8325 173.872866 
L 110.925 174.546569 
L 113.0175 174.917647 
L 115.11 174.961827 
L 117.2025 174.67622 
L 119.295 174.079507 
L 121.3875 173.21072 
L 124.1775 171.729444 
L 133.245 166.4831 
L 135.3375 165.657305 
L 137.43 165.120801 
L 138.825 164.941446 
L 140.9175 164.947672 
L 143.01 165.268672 
L 145.1025 165.893916 
L 147.195 166.782508 
L 149.985 168.274468 
L 157.6575 172.696016 
L 159.75 173.626093 
L 161.8425 174.313752 
L 163.935 174.703547 
L 166.0275 174.775197 
L 168.12 174.529266 
L 170.2125 173.966237 
L 172.305 173.138542 
L 175.095 171.718886 
L 184.1625 166.64476 
L 186.255 165.831703 
L 188.3475 165.286062 
L 190.44 165.043529 
L 192.5325 165.119966 
L 194.625 165.510376 
L 196.7175 166.18922 
L 198.81 167.112095 
L 201.6 168.636676 
L 209.2725 173.100667 
L 211.365 173.995016 
L 213.4575 174.633284 
L 215.55 174.978976 
L 216.945 175.029635 
L 219.0375 174.826981 
L 220.4325 174.506609 
L 222.525 173.760976 
L 224.6175 172.758851 
L 227.4075 171.152258 
L 233.685 167.422873 
L 235.7775 166.45885 
L 237.87 165.7578 
L 239.9625 165.355075 
L 241.3575 165.267364 
L 243.45 165.434193 
L 244.845 165.743111 
L 246.9375 166.506686 
L 249.03 167.551156 
L 251.1225 168.844666 
L 260.8875 175.33042 
L 262.98 176.261775 
L 264.375 176.677719 
L 265.77 176.938516 
L 267.165 177.031348 
L 268.56 176.953546 
L 269.955 176.717845 
L 271.35 176.299679 
L 272.745 175.711202 
L 274.8375 174.555043 
L 276.93 173.153104 
L 280.4175 170.460265 
L 284.6025 167.194251 
L 286.695 165.776444 
L 288.7875 164.603519 
L 290.88 163.74702 
L 292.275 163.373482 
L 293.67 163.169905 
L 295.065 163.14744 
L 296.46 163.296236 
L 297.855 163.611954 
L 299.9475 164.386797 
L 302.04 165.429475 
L 304.83 167.111346 
L 310.41 170.634295 
L 312.5025 171.646434 
L 314.595 172.320918 
L 316.6875 172.707455 
L 318.0825 172.775674 
L 319.4775 172.676727 
L 320.8725 172.408247 
L 322.965 171.710746 
L 325.0575 170.681852 
L 327.15 169.362639 
L 330.6375 166.795259 
L 334.8225 163.638096 
L 336.915 162.28314 
L 339.0075 161.244625 
L 340.4025 160.751027 
L 341.7975 160.435649 
L 343.1925 160.286753 
L 344.5875 160.308641 
L 345.9825 160.511143 
L 347.3775 160.872672 
L 349.47 161.724034 
L 351.5625 162.844937 
L 354.3525 164.621573 
L 359.9325 168.263831 
L 362.7225 169.806377 
L 364.815 170.718692 
L 366.9075 171.312319 
L 369 171.569327 
L 371.0925 171.478232 
L 372.4875 171.213208 
L 374.58 170.538816 
L 376.6725 169.573031 
L 378.765 168.38424 
L 382.95 165.613404 
L 385.74 163.844936 
L 387.8325 162.757245 
L 389.925 161.991793 
L 392.0175 161.5725 
L 393.4125 161.496302 
L 395.505 161.68196 
L 396.9 162.009177 
L 398.295 162.509367 
L 400.3875 163.551298 
L 402.48 164.847578 
L 405.27 166.874898 
L 411.5475 171.613658 
L 414.3375 173.367989 
L 416.43 174.414261 
L 418.5225 175.119554 
L 419.9175 175.400952 
L 421.3125 175.501552 
L 422.7075 175.434141 
L 424.8 175.028379 
L 426.8925 174.309373 
L 428.985 173.313611 
L 431.775 171.650704 
L 438.0525 167.709723 
L 440.145 166.711874 
L 441.54 166.226301 
L 442.935 165.900927 
L 445.0275 165.681691 
L 446.4225 165.762797 
L 448.515 166.193456 
L 449.91 166.662144 
L 452.0025 167.634873 
L 454.095 168.866887 
L 462.465 174.230953 
L 464.5575 175.261733 
L 466.65 176.032065 
L 468.045 176.409556 
L 470.1375 176.671396 
L 471.5325 176.639064 
L 472.9275 176.463141 
L 474.3225 176.096421 
L 476.415 175.239508 
L 478.5075 174.144152 
L 482.6925 171.547394 
L 486.18 169.459751 
L 488.2725 168.485838 
L 490.365 167.794035 
L 492.4575 167.372042 
L 494.55 167.289024 
L 495.945 167.41878 
L 497.34 167.736845 
L 499.4325 168.478749 
L 502.2225 169.854223 
L 505.0125 171.502689 
L 509.1975 174.009266 
L 511.29 175.076254 
L 512.685 175.65619 
L 514.08 176.058392 
L 516.1725 176.386487 
L 517.5675 176.41766 
L 518.9625 176.280334 
L 520.3575 175.962833 
L 521.7525 175.47959 
L 523.1475 174.813295 
L 525.24 173.548516 
L 528.03 171.542463 
L 533.61 167.381572 
L 536.4 165.625202 
L 538.4925 164.573935 
L 540.585 163.804413 
L 542.6775 163.278051 
L 544.77 163.02376 
L 546.8625 163.001003 
L 548.955 163.237417 
L 551.0475 163.670876 
L 553.14 164.293655 
L 563.6025 168.0309 
L 565.695 168.438847 
L 567.7875 168.609058 
L 569.1825 168.566078 
L 571.275 168.213034 
L 573.3675 167.600752 
L 575.46 166.790141 
L 583.1325 163.293115 
L 585.225 162.678096 
L 587.3175 162.280757 
L 588.7125 162.172319 
L 590.805 162.309592 
L 592.2 162.604164 
L 594.2925 163.277424 
L 595.6875 163.91385 
L 597.78 165.145345 
L 599.8725 166.637082 
L 602.6625 168.975733 
L 606.8475 172.856676 
L 611.73 177.455917 
L 613.8225 179.194523 
L 615.915 180.598255 
L 617.31 181.302312 
L 618.705 181.789874 
L 620.1 182.072833 
L 621.495 182.169089 
L 622.89 182.049724 
L 624.285 181.765379 
L 625.68 181.33999 
L 627.7725 180.392095 
L 629.865 179.208558 
L 634.05 176.3392 
L 638.9325 172.838055 
L 641.025 171.620368 
L 642.42 170.979714 
L 644.5125 170.254235 
L 645.9075 169.967277 
L 646.605 169.92 
L 646.605 169.92 
" style="fill:none;stroke:#008080;stroke-linecap:round;stroke-width:1.75;"/>
   </g>
   <g id="patch_3">
    <path d="M 90 270.72 
L 90 69.12 
" style="fill:none;stroke:#262626;stroke-linecap:square;stroke-linejoin:miter;stroke-width:1.25;"/>
   </g>
   <g id="patch_4">
    <path d="M 90 270.72 
L 648 270.72 
" style="fill:none;stroke:#262626;stroke-linecap:square;stroke-linejoin:miter;stroke-width:1.25;"/>
   </g>
  </g>
  <g id="axes_2">
   <g id="patch_5">
    <path d="M 90 512.64 
L 648 512.64 
L 648 311.04 
L 90 311.04 
z
" style="fill:#ffffff;"/>
   </g>
   <g id="matplotlib.axis_3">
    <g id="xtick_10">
     <g id="line2d_16">
      <g>
       <use style="fill:#262626;stroke:#262626;" x="191.454545" xlink:href="#m62272092a6" y="512.64"/>
      </g>
     </g>
     <g id="text_15">
      <!-- 200 -->
      <g style="fill:#262626;" transform="translate(183.113139 532.797812)scale(0.1 -0.1)">
       <use xlink:href="#ArialMT-32"/>
       <use x="55.615234" xlink:href="#ArialMT-30"/>
       <use x="111.230469" xlink:href="#ArialMT-30"/>
      </g>
     </g>
    </g>
    <g id="xtick_11">
     <g id="line2d_17">
      <g>
       <use style="fill:#262626;stroke:#262626;" x="304.181818" xlink:href="#m62272092a6" y="512.64"/>
      </g>
     </g>
     <g id="text_16">
      <!-- 400 -->
      <g style="fill:#262626;" transform="translate(295.840412 532.797812)scale(0.1 -0.1)">
       <use xlink:href="#ArialMT-34"/>
       <use x="55.615234" xlink:href="#ArialMT-30"/>
       <use x="111.230469" xlink:href="#ArialMT-30"/>
      </g>
     </g>
    </g>
    <g id="xtick_12">
     <g id="line2d_18">
      <g>
       <use style="fill:#262626;stroke:#262626;" x="416.909091" xlink:href="#m62272092a6" y="512.64"/>
      </g>
     </g>
     <g id="text_17">
      <!-- 600 -->
      <g style="fill:#262626;" transform="translate(408.567685 532.797812)scale(0.1 -0.1)">
       <use xlink:href="#ArialMT-36"/>
       <use x="55.615234" xlink:href="#ArialMT-30"/>
       <use x="111.230469" xlink:href="#ArialMT-30"/>
      </g>
     </g>
    </g>
    <g id="xtick_13">
     <g id="line2d_19">
      <g>
       <use style="fill:#262626;stroke:#262626;" x="529.636364" xlink:href="#m62272092a6" y="512.64"/>
      </g>
     </g>
     <g id="text_18">
      <!-- 800 -->
      <g style="fill:#262626;" transform="translate(521.294957 532.797812)scale(0.1 -0.1)">
       <use xlink:href="#ArialMT-38"/>
       <use x="55.615234" xlink:href="#ArialMT-30"/>
       <use x="111.230469" xlink:href="#ArialMT-30"/>
      </g>
     </g>
    </g>
    <g id="xtick_14">
     <g id="line2d_20">
      <g>
       <use style="fill:#262626;stroke:#262626;" x="642.363636" xlink:href="#m62272092a6" y="512.64"/>
      </g>
     </g>
     <g id="text_19">
      <!-- 1000 -->
      <g style="fill:#262626;" transform="translate(631.241761 532.797812)scale(0.1 -0.1)">
       <use xlink:href="#ArialMT-31"/>
       <use x="55.615234" xlink:href="#ArialMT-30"/>
       <use x="111.230469" xlink:href="#ArialMT-30"/>
       <use x="166.845703" xlink:href="#ArialMT-30"/>
      </g>
     </g>
    </g>
   </g>
   <g id="matplotlib.axis_4">
    <g id="ytick_6">
     <g id="line2d_21">
      <g>
       <use style="fill:#262626;stroke:#262626;" x="90" xlink:href="#me136c076bb" y="512.64"/>
      </g>
     </g>
     <g id="text_20">
      <!-- 0 -->
      <g style="fill:#262626;" transform="translate(71.439063 516.218906)scale(0.1 -0.1)">
       <use xlink:href="#ArialMT-30"/>
      </g>
     </g>
    </g>
    <g id="ytick_7">
     <g id="line2d_22">
      <g>
       <use style="fill:#262626;stroke:#262626;" x="90" xlink:href="#me136c076bb" y="490.24"/>
      </g>
     </g>
     <g id="text_21">
      <!-- 2 -->
      <g style="fill:#262626;" transform="translate(71.439063 493.818906)scale(0.1 -0.1)">
       <use xlink:href="#ArialMT-32"/>
      </g>
     </g>
    </g>
    <g id="ytick_8">
     <g id="line2d_23">
      <g>
       <use style="fill:#262626;stroke:#262626;" x="90" xlink:href="#me136c076bb" y="467.84"/>
      </g>
     </g>
     <g id="text_22">
      <!-- 4 -->
      <g style="fill:#262626;" transform="translate(71.439063 471.418906)scale(0.1 -0.1)">
       <use xlink:href="#ArialMT-34"/>
      </g>
     </g>
    </g>
    <g id="ytick_9">
     <g id="line2d_24">
      <g>
       <use style="fill:#262626;stroke:#262626;" x="90" xlink:href="#me136c076bb" y="445.44"/>
      </g>
     </g>
     <g id="text_23">
      <!-- 6 -->
      <g style="fill:#262626;" transform="translate(71.439063 449.018906)scale(0.1 -0.1)">
       <use xlink:href="#ArialMT-36"/>
      </g>
     </g>
    </g>
    <g id="ytick_10">
     <g id="line2d_25">
      <g>
       <use style="fill:#262626;stroke:#262626;" x="90" xlink:href="#me136c076bb" y="423.04"/>
      </g>
     </g>
     <g id="text_24">
      <!-- 8 -->
      <g style="fill:#262626;" transform="translate(71.439063 426.618906)scale(0.1 -0.1)">
       <use xlink:href="#ArialMT-38"/>
      </g>
     </g>
    </g>
    <g id="ytick_11">
     <g id="line2d_26">
      <g>
       <use style="fill:#262626;stroke:#262626;" x="90" xlink:href="#me136c076bb" y="400.64"/>
      </g>
     </g>
     <g id="text_25">
      <!-- 10 -->
      <g style="fill:#262626;" transform="translate(65.878125 404.218906)scale(0.1 -0.1)">
       <use xlink:href="#ArialMT-31"/>
       <use x="55.615234" xlink:href="#ArialMT-30"/>
      </g>
     </g>
    </g>
    <g id="ytick_12">
     <g id="line2d_27">
      <g>
       <use style="fill:#262626;stroke:#262626;" x="90" xlink:href="#me136c076bb" y="378.24"/>
      </g>
     </g>
     <g id="text_26">
      <!-- 12 -->
      <g style="fill:#262626;" transform="translate(65.878125 381.818906)scale(0.1 -0.1)">
       <use xlink:href="#ArialMT-31"/>
       <use x="55.615234" xlink:href="#ArialMT-32"/>
      </g>
     </g>
    </g>
    <g id="ytick_13">
     <g id="line2d_28">
      <g>
       <use style="fill:#262626;stroke:#262626;" x="90" xlink:href="#me136c076bb" y="355.84"/>
      </g>
     </g>
     <g id="text_27">
      <!-- 14 -->
      <g style="fill:#262626;" transform="translate(65.878125 359.418906)scale(0.1 -0.1)">
       <use xlink:href="#ArialMT-31"/>
       <use x="55.615234" xlink:href="#ArialMT-34"/>
      </g>
     </g>
    </g>
    <g id="ytick_14">
     <g id="line2d_29">
      <g>
       <use style="fill:#262626;stroke:#262626;" x="90" xlink:href="#me136c076bb" y="333.44"/>
      </g>
     </g>
     <g id="text_28">
      <!-- 16 -->
      <g style="fill:#262626;" transform="translate(65.878125 337.018906)scale(0.1 -0.1)">
       <use xlink:href="#ArialMT-31"/>
       <use x="55.615234" xlink:href="#ArialMT-36"/>
      </g>
     </g>
    </g>
    <g id="ytick_15">
     <g id="line2d_30">
      <g>
       <use style="fill:#262626;stroke:#262626;" x="90" xlink:href="#me136c076bb" y="311.04"/>
      </g>
     </g>
     <g id="text_29">
      <!-- 18 -->
      <g style="fill:#262626;" transform="translate(65.878125 314.618906)scale(0.1 -0.1)">
       <use xlink:href="#ArialMT-31"/>
       <use x="55.615234" xlink:href="#ArialMT-38"/>
      </g>
     </g>
    </g>
   </g>
   <g id="line2d_31">
    <path clip-path="url(#p5a18e4e8fc)" d="M 90 477.654723 
L 95.636364 452.736402 
L 101.272727 431.923589 
L 106.909091 427.92302 
L 112.545455 440.45326 
L 118.181818 444.705349 
L 123.818182 448.961059 
L 129.454545 457.370701 
L 135.090909 456.375715 
L 140.727273 434.868159 
L 146.363636 408.816951 
L 152 389.988216 
L 157.636364 371.492183 
L 163.272727 352.310178 
L 168.909091 342.280664 
L 174.545455 348.647566 
L 180.181818 355.802406 
L 185.818182 363.350788 
L 191.454545 378.270766 
L 197.090909 391.147889 
L 202.727273 394.129256 
L 208.363636 396.550705 
L 214 393.395457 
L 219.636364 389.651786 
L 225.272727 392.702199 
L 230.909091 396.085016 
L 236.545455 399.690878 
L 242.181818 407.737617 
L 247.818182 414.331388 
L 253.454545 417.809913 
L 259.090909 422.903097 
L 264.727273 426.347751 
L 270.363636 429.764905 
L 276 436.797845 
L 281.636364 444.59905 
L 287.272727 452.348689 
L 292.909091 461.235722 
L 298.545455 467.982454 
L 304.181818 471.144774 
L 309.818182 472.257688 
L 315.454545 471.707893 
L 321.090909 472.117482 
L 326.727273 473.818281 
L 332.363636 475.619312 
L 338 478.193498 
L 343.636364 480.655986 
L 349.272727 482.144164 
L 354.909091 483.974362 
L 360.545455 485.825198 
L 366.181818 487.914885 
L 371.818182 490.804554 
L 377.454545 493.872728 
L 383.090909 496.544264 
L 388.727273 498.469641 
L 394.363636 499.417825 
L 400 499.768128 
L 405.636364 498.821458 
L 411.272727 497.224183 
L 416.909091 494.909956 
" style="fill:none;stroke:#b22222;stroke-linecap:round;stroke-width:1.75;"/>
   </g>
   <g id="line2d_32">
    <path clip-path="url(#p5a18e4e8fc)" d="M 152 512.64 
L 152 311.04 
" style="fill:none;stroke:#4c72b0;stroke-linecap:round;stroke-width:1.75;"/>
   </g>
   <g id="patch_6">
    <path d="M 90 512.64 
L 90 311.04 
" style="fill:none;stroke:#262626;stroke-linecap:square;stroke-linejoin:miter;stroke-width:1.25;"/>
   </g>
   <g id="patch_7">
    <path d="M 90 512.64 
L 648 512.64 
" style="fill:none;stroke:#262626;stroke-linecap:square;stroke-linejoin:miter;stroke-width:1.25;"/>
   </g>
   <g id="text_30">
    <!-- f = 600 Hz -->
    <defs>
     <path d="M 8.6875 0 
L 8.6875 45.015625 
L 0.921875 45.015625 
L 0.921875 51.859375 
L 8.6875 51.859375 
L 8.6875 57.375 
Q 8.6875 62.59375 9.625 65.140625 
Q 10.890625 68.5625 14.078125 70.671875 
Q 17.28125 72.796875 23.046875 72.796875 
Q 26.765625 72.796875 31.25 71.921875 
L 29.9375 64.265625 
Q 27.203125 64.75 24.75 64.75 
Q 20.75 64.75 19.09375 63.03125 
Q 17.4375 61.328125 17.4375 56.640625 
L 17.4375 51.859375 
L 27.546875 51.859375 
L 27.546875 45.015625 
L 17.4375 45.015625 
L 17.4375 0 
z
" id="ArialMT-66"/>
     <path id="ArialMT-20"/>
     <path d="M 52.828125 42.09375 
L 5.5625 42.09375 
L 5.5625 50.296875 
L 52.828125 50.296875 
z
M 52.828125 20.359375 
L 5.5625 20.359375 
L 5.5625 28.5625 
L 52.828125 28.5625 
z
" id="ArialMT-3d"/>
     <path d="M 8.015625 0 
L 8.015625 71.578125 
L 17.484375 71.578125 
L 17.484375 42.1875 
L 54.6875 42.1875 
L 54.6875 71.578125 
L 64.15625 71.578125 
L 64.15625 0 
L 54.6875 0 
L 54.6875 33.734375 
L 17.484375 33.734375 
L 17.484375 0 
z
" id="ArialMT-48"/>
     <path d="M 1.953125 0 
L 1.953125 7.125 
L 34.96875 45.015625 
Q 29.34375 44.734375 25.046875 44.734375 
L 3.90625 44.734375 
L 3.90625 51.859375 
L 46.296875 51.859375 
L 46.296875 46.046875 
L 18.21875 13.140625 
L 12.796875 7.125 
Q 18.703125 7.5625 23.875 7.5625 
L 47.859375 7.5625 
L 47.859375 0 
z
" id="ArialMT-7a"/>
    </defs>
    <g style="fill:#262626;" transform="translate(529.636364 403.742188)scale(0.12 -0.12)">
     <use xlink:href="#ArialMT-66"/>
     <use x="27.783203" xlink:href="#ArialMT-20"/>
     <use x="55.566406" xlink:href="#ArialMT-3d"/>
     <use x="113.964844" xlink:href="#ArialMT-20"/>
     <use x="141.748047" xlink:href="#ArialMT-36"/>
     <use x="197.363281" xlink:href="#ArialMT-30"/>
     <use x="252.978516" xlink:href="#ArialMT-30"/>
     <use x="308.59375" xlink:href="#ArialMT-20"/>
     <use x="336.376953" xlink:href="#ArialMT-48"/>
     <use x="408.59375" xlink:href="#ArialMT-7a"/>
    </g>
   </g>
   <g id="PathCollection_1">
    <defs>
     <path d="M 0 3.5 
C 0.928211 3.5 1.81853 3.131218 2.474874 2.474874 
C 3.131218 1.81853 3.5 0.928211 3.5 0 
C 3.5 -0.928211 3.131218 -1.81853 2.474874 -2.474874 
C 1.81853 -3.131218 0.928211 -3.5 0 -3.5 
C -0.928211 -3.5 -1.81853 -3.131218 -2.474874 -2.474874 
C -3.131218 -1.81853 -3.5 -0.928211 -3.5 0 
C -3.5 0.928211 -3.131218 1.81853 -2.474874 2.474874 
C -1.81853 3.131218 -0.928211 3.5 0 3.5 
z
" id="m3c6987d981" style="stroke:#800000;stroke-width:0.3;"/>
    </defs>
    <g clip-path="url(#p5a18e4e8fc)">
     <use style="fill:#800000;stroke:#800000;stroke-width:0.3;" x="416.909091" xlink:href="#m3c6987d981" y="494.909956"/>
    </g>
   </g>
  </g>
 </g>
 <defs>
  <clipPath id="p1c690ef5f6">
   <rect height="201.6" width="558" x="90" y="69.12"/>
  </clipPath>
  <clipPath id="p5a18e4e8fc">
   <rect height="201.6" width="558" x="90" y="311.04"/>
  </clipPath>
 </defs>
</svg>
