<?xml version="1.0" encoding="utf-8" standalone="no"?>
<!DOCTYPE svg PUBLIC "-//W3C//DTD SVG 1.1//EN"
  "http://www.w3.org/Graphics/SVG/1.1/DTD/svg11.dtd">
<!-- Created with matplotlib (http://matplotlib.org/) -->
<svg height="576pt" version="1.1" viewBox="0 0 720 576" width="720pt" xmlns="http://www.w3.org/2000/svg" xmlns:xlink="http://www.w3.org/1999/xlink">
 <defs>
  <style type="text/css">
*{stroke-linecap:butt;stroke-linejoin:round;}
  </style>
 </defs>
 <g id="figure_1">
  <g id="patch_1">
   <path d="M 0 576 
L 720 576 
L 720 0 
L 0 0 
z
" style="fill:#ffffff;"/>
  </g>
  <g id="axes_1">
   <g id="patch_2">
    <path d="M 90 270.72 
L 648 270.72 
L 648 69.12 
L 90 69.12 
z
" style="fill:#ffffff;"/>
   </g>
   <g id="matplotlib.axis_1">
    <g id="xtick_1">
     <g id="line2d_1">
      <defs>
       <path d="M 0 0 
L 0 6 
" id="m2149f54fe0" style="stroke:#262626;"/>
      </defs>
      <g>
       <use style="fill:#262626;stroke:#262626;" x="90" xlink:href="#m2149f54fe0" y="270.72"/>
      </g>
     </g>
     <g id="text_1">
      <!-- 0 -->
      <defs>
       <path d="M 4.15625 35.296875 
Q 4.15625 48 6.765625 55.734375 
Q 9.375 63.484375 14.515625 67.671875 
Q 19.671875 71.875 27.484375 71.875 
Q 33.25 71.875 37.59375 69.546875 
Q 41.9375 67.234375 44.765625 62.859375 
Q 47.609375 58.5 49.21875 52.21875 
Q 50.828125 45.953125 50.828125 35.296875 
Q 50.828125 22.703125 48.234375 14.96875 
Q 45.65625 7.234375 40.5 3 
Q 35.359375 -1.21875 27.484375 -1.21875 
Q 17.140625 -1.21875 11.234375 6.203125 
Q 4.15625 15.140625 4.15625 35.296875 
z
M 13.1875 35.296875 
Q 13.1875 17.671875 17.3125 11.828125 
Q 21.4375 6 27.484375 6 
Q 33.546875 6 37.671875 11.859375 
Q 41.796875 17.71875 41.796875 35.296875 
Q 41.796875 52.984375 37.671875 58.78125 
Q 33.546875 64.59375 27.390625 64.59375 
Q 21.34375 64.59375 17.71875 59.46875 
Q 13.1875 52.9375 13.1875 35.296875 
z
" id="ArialMT-30"/>
      </defs>
      <g style="fill:#262626;" transform="translate(87.219531 290.877812)scale(0.1 -0.1)">
       <use xlink:href="#ArialMT-30"/>
      </g>
     </g>
    </g>
    <g id="xtick_2">
     <g id="line2d_2">
      <g>
       <use style="fill:#262626;stroke:#262626;" x="159.75" xlink:href="#m2149f54fe0" y="270.72"/>
      </g>
     </g>
     <g id="text_2">
      <!-- 100 -->
      <defs>
       <path d="M 37.25 0 
L 28.46875 0 
L 28.46875 56 
Q 25.296875 52.984375 20.140625 49.953125 
Q 14.984375 46.921875 10.890625 45.40625 
L 10.890625 53.90625 
Q 18.265625 57.375 23.78125 62.296875 
Q 29.296875 67.234375 31.59375 71.875 
L 37.25 71.875 
z
" id="ArialMT-31"/>
      </defs>
      <g style="fill:#262626;" transform="translate(151.408594 290.877812)scale(0.1 -0.1)">
       <use xlink:href="#ArialMT-31"/>
       <use x="55.615234" xlink:href="#ArialMT-30"/>
       <use x="111.230469" xlink:href="#ArialMT-30"/>
      </g>
     </g>
    </g>
    <g id="xtick_3">
     <g id="line2d_3">
      <g>
       <use style="fill:#262626;stroke:#262626;" x="229.5" xlink:href="#m2149f54fe0" y="270.72"/>
      </g>
     </g>
     <g id="text_3">
      <!-- 200 -->
      <defs>
       <path d="M 50.34375 8.453125 
L 50.34375 0 
L 3.03125 0 
Q 2.9375 3.171875 4.046875 6.109375 
Q 5.859375 10.9375 9.828125 15.625 
Q 13.8125 20.3125 21.34375 26.46875 
Q 33.015625 36.03125 37.109375 41.625 
Q 41.21875 47.21875 41.21875 52.203125 
Q 41.21875 57.421875 37.46875 61 
Q 33.734375 64.59375 27.734375 64.59375 
Q 21.390625 64.59375 17.578125 60.78125 
Q 13.765625 56.984375 13.71875 50.25 
L 4.6875 51.171875 
Q 5.609375 61.28125 11.65625 66.578125 
Q 17.71875 71.875 27.9375 71.875 
Q 38.234375 71.875 44.234375 66.15625 
Q 50.25 60.453125 50.25 52 
Q 50.25 47.703125 48.484375 43.546875 
Q 46.734375 39.40625 42.65625 34.8125 
Q 38.578125 30.21875 29.109375 22.21875 
Q 21.1875 15.578125 18.9375 13.203125 
Q 16.703125 10.84375 15.234375 8.453125 
z
" id="ArialMT-32"/>
      </defs>
      <g style="fill:#262626;" transform="translate(221.158594 290.877812)scale(0.1 -0.1)">
       <use xlink:href="#ArialMT-32"/>
       <use x="55.615234" xlink:href="#ArialMT-30"/>
       <use x="111.230469" xlink:href="#ArialMT-30"/>
      </g>
     </g>
    </g>
    <g id="xtick_4">
     <g id="line2d_4">
      <g>
       <use style="fill:#262626;stroke:#262626;" x="299.25" xlink:href="#m2149f54fe0" y="270.72"/>
      </g>
     </g>
     <g id="text_4">
      <!-- 300 -->
      <defs>
       <path d="M 4.203125 18.890625 
L 12.984375 20.0625 
Q 14.5 12.59375 18.140625 9.296875 
Q 21.78125 6 27 6 
Q 33.203125 6 37.46875 10.296875 
Q 41.75 14.59375 41.75 20.953125 
Q 41.75 27 37.796875 30.921875 
Q 33.84375 34.859375 27.734375 34.859375 
Q 25.25 34.859375 21.53125 33.890625 
L 22.515625 41.609375 
Q 23.390625 41.5 23.921875 41.5 
Q 29.546875 41.5 34.03125 44.421875 
Q 38.53125 47.359375 38.53125 53.46875 
Q 38.53125 58.296875 35.25 61.46875 
Q 31.984375 64.65625 26.8125 64.65625 
Q 21.6875 64.65625 18.265625 61.421875 
Q 14.84375 58.203125 13.875 51.765625 
L 5.078125 53.328125 
Q 6.6875 62.15625 12.390625 67.015625 
Q 18.109375 71.875 26.609375 71.875 
Q 32.46875 71.875 37.390625 69.359375 
Q 42.328125 66.84375 44.9375 62.5 
Q 47.5625 58.15625 47.5625 53.265625 
Q 47.5625 48.640625 45.0625 44.828125 
Q 42.578125 41.015625 37.703125 38.765625 
Q 44.046875 37.3125 47.5625 32.6875 
Q 51.078125 28.078125 51.078125 21.140625 
Q 51.078125 11.765625 44.234375 5.25 
Q 37.40625 -1.265625 26.953125 -1.265625 
Q 17.53125 -1.265625 11.296875 4.34375 
Q 5.078125 9.96875 4.203125 18.890625 
z
" id="ArialMT-33"/>
      </defs>
      <g style="fill:#262626;" transform="translate(290.908594 290.877812)scale(0.1 -0.1)">
       <use xlink:href="#ArialMT-33"/>
       <use x="55.615234" xlink:href="#ArialMT-30"/>
       <use x="111.230469" xlink:href="#ArialMT-30"/>
      </g>
     </g>
    </g>
    <g id="xtick_5">
     <g id="line2d_5">
      <g>
       <use style="fill:#262626;stroke:#262626;" x="369" xlink:href="#m2149f54fe0" y="270.72"/>
      </g>
     </g>
     <g id="text_5">
      <!-- 400 -->
      <defs>
       <path d="M 32.328125 0 
L 32.328125 17.140625 
L 1.265625 17.140625 
L 1.265625 25.203125 
L 33.9375 71.578125 
L 41.109375 71.578125 
L 41.109375 25.203125 
L 50.78125 25.203125 
L 50.78125 17.140625 
L 41.109375 17.140625 
L 41.109375 0 
z
M 32.328125 25.203125 
L 32.328125 57.46875 
L 9.90625 25.203125 
z
" id="ArialMT-34"/>
      </defs>
      <g style="fill:#262626;" transform="translate(360.658594 290.877812)scale(0.1 -0.1)">
       <use xlink:href="#ArialMT-34"/>
       <use x="55.615234" xlink:href="#ArialMT-30"/>
       <use x="111.230469" xlink:href="#ArialMT-30"/>
      </g>
     </g>
    </g>
    <g id="xtick_6">
     <g id="line2d_6">
      <g>
       <use style="fill:#262626;stroke:#262626;" x="438.75" xlink:href="#m2149f54fe0" y="270.72"/>
      </g>
     </g>
     <g id="text_6">
      <!-- 500 -->
      <defs>
       <path d="M 4.15625 18.75 
L 13.375 19.53125 
Q 14.40625 12.796875 18.140625 9.390625 
Q 21.875 6 27.15625 6 
Q 33.5 6 37.890625 10.78125 
Q 42.28125 15.578125 42.28125 23.484375 
Q 42.28125 31 38.0625 35.34375 
Q 33.84375 39.703125 27 39.703125 
Q 22.75 39.703125 19.328125 37.765625 
Q 15.921875 35.84375 13.96875 32.765625 
L 5.71875 33.84375 
L 12.640625 70.609375 
L 48.25 70.609375 
L 48.25 62.203125 
L 19.671875 62.203125 
L 15.828125 42.96875 
Q 22.265625 47.46875 29.34375 47.46875 
Q 38.71875 47.46875 45.15625 40.96875 
Q 51.609375 34.46875 51.609375 24.265625 
Q 51.609375 14.546875 45.953125 7.46875 
Q 39.0625 -1.21875 27.15625 -1.21875 
Q 17.390625 -1.21875 11.203125 4.25 
Q 5.03125 9.71875 4.15625 18.75 
z
" id="ArialMT-35"/>
      </defs>
      <g style="fill:#262626;" transform="translate(430.408594 290.877812)scale(0.1 -0.1)">
       <use xlink:href="#ArialMT-35"/>
       <use x="55.615234" xlink:href="#ArialMT-30"/>
       <use x="111.230469" xlink:href="#ArialMT-30"/>
      </g>
     </g>
    </g>
    <g id="xtick_7">
     <g id="line2d_7">
      <g>
       <use style="fill:#262626;stroke:#262626;" x="508.5" xlink:href="#m2149f54fe0" y="270.72"/>
      </g>
     </g>
     <g id="text_7">
      <!-- 600 -->
      <defs>
       <path d="M 49.75 54.046875 
L 41.015625 53.375 
Q 39.84375 58.546875 37.703125 60.890625 
Q 34.125 64.65625 28.90625 64.65625 
Q 24.703125 64.65625 21.53125 62.3125 
Q 17.390625 59.28125 14.984375 53.46875 
Q 12.59375 47.65625 12.5 36.921875 
Q 15.671875 41.75 20.265625 44.09375 
Q 24.859375 46.4375 29.890625 46.4375 
Q 38.671875 46.4375 44.84375 39.96875 
Q 51.03125 33.5 51.03125 23.25 
Q 51.03125 16.5 48.125 10.71875 
Q 45.21875 4.9375 40.140625 1.859375 
Q 35.0625 -1.21875 28.609375 -1.21875 
Q 17.625 -1.21875 10.6875 6.859375 
Q 3.765625 14.9375 3.765625 33.5 
Q 3.765625 54.25 11.421875 63.671875 
Q 18.109375 71.875 29.4375 71.875 
Q 37.890625 71.875 43.28125 67.140625 
Q 48.6875 62.40625 49.75 54.046875 
z
M 13.875 23.1875 
Q 13.875 18.65625 15.796875 14.5 
Q 17.71875 10.359375 21.1875 8.171875 
Q 24.65625 6 28.46875 6 
Q 34.03125 6 38.03125 10.484375 
Q 42.046875 14.984375 42.046875 22.703125 
Q 42.046875 30.125 38.078125 34.390625 
Q 34.125 38.671875 28.125 38.671875 
Q 22.171875 38.671875 18.015625 34.390625 
Q 13.875 30.125 13.875 23.1875 
z
" id="ArialMT-36"/>
      </defs>
      <g style="fill:#262626;" transform="translate(500.158594 290.877812)scale(0.1 -0.1)">
       <use xlink:href="#ArialMT-36"/>
       <use x="55.615234" xlink:href="#ArialMT-30"/>
       <use x="111.230469" xlink:href="#ArialMT-30"/>
      </g>
     </g>
    </g>
    <g id="xtick_8">
     <g id="line2d_8">
      <g>
       <use style="fill:#262626;stroke:#262626;" x="578.25" xlink:href="#m2149f54fe0" y="270.72"/>
      </g>
     </g>
     <g id="text_8">
      <!-- 700 -->
      <defs>
       <path d="M 4.734375 62.203125 
L 4.734375 70.65625 
L 51.078125 70.65625 
L 51.078125 63.8125 
Q 44.234375 56.546875 37.515625 44.484375 
Q 30.8125 32.421875 27.15625 19.671875 
Q 24.515625 10.6875 23.78125 0 
L 14.75 0 
Q 14.890625 8.453125 18.0625 20.40625 
Q 21.234375 32.375 27.171875 43.484375 
Q 33.109375 54.59375 39.796875 62.203125 
z
" id="ArialMT-37"/>
      </defs>
      <g style="fill:#262626;" transform="translate(569.908594 290.877812)scale(0.1 -0.1)">
       <use xlink:href="#ArialMT-37"/>
       <use x="55.615234" xlink:href="#ArialMT-30"/>
       <use x="111.230469" xlink:href="#ArialMT-30"/>
      </g>
     </g>
    </g>
    <g id="xtick_9">
     <g id="line2d_9">
      <g>
       <use style="fill:#262626;stroke:#262626;" x="648" xlink:href="#m2149f54fe0" y="270.72"/>
      </g>
     </g>
     <g id="text_9">
      <!-- 800 -->
      <defs>
       <path d="M 17.671875 38.8125 
Q 12.203125 40.828125 9.5625 44.53125 
Q 6.9375 48.25 6.9375 53.421875 
Q 6.9375 61.234375 12.546875 66.546875 
Q 18.171875 71.875 27.484375 71.875 
Q 36.859375 71.875 42.578125 66.421875 
Q 48.296875 60.984375 48.296875 53.171875 
Q 48.296875 48.1875 45.671875 44.5 
Q 43.0625 40.828125 37.75 38.8125 
Q 44.34375 36.671875 47.78125 31.875 
Q 51.21875 27.09375 51.21875 20.453125 
Q 51.21875 11.28125 44.71875 5.03125 
Q 38.234375 -1.21875 27.640625 -1.21875 
Q 17.046875 -1.21875 10.546875 5.046875 
Q 4.046875 11.328125 4.046875 20.703125 
Q 4.046875 27.6875 7.59375 32.390625 
Q 11.140625 37.109375 17.671875 38.8125 
z
M 15.921875 53.71875 
Q 15.921875 48.640625 19.1875 45.40625 
Q 22.46875 42.1875 27.6875 42.1875 
Q 32.765625 42.1875 36.015625 45.375 
Q 39.265625 48.578125 39.265625 53.21875 
Q 39.265625 58.0625 35.90625 61.359375 
Q 32.5625 64.65625 27.59375 64.65625 
Q 22.5625 64.65625 19.234375 61.421875 
Q 15.921875 58.203125 15.921875 53.71875 
z
M 13.09375 20.65625 
Q 13.09375 16.890625 14.875 13.375 
Q 16.65625 9.859375 20.171875 7.921875 
Q 23.6875 6 27.734375 6 
Q 34.03125 6 38.125 10.046875 
Q 42.234375 14.109375 42.234375 20.359375 
Q 42.234375 26.703125 38.015625 30.859375 
Q 33.796875 35.015625 27.4375 35.015625 
Q 21.234375 35.015625 17.15625 30.90625 
Q 13.09375 26.8125 13.09375 20.65625 
z
" id="ArialMT-38"/>
      </defs>
      <g style="fill:#262626;" transform="translate(639.658594 290.877812)scale(0.1 -0.1)">
       <use xlink:href="#ArialMT-38"/>
       <use x="55.615234" xlink:href="#ArialMT-30"/>
       <use x="111.230469" xlink:href="#ArialMT-30"/>
      </g>
     </g>
    </g>
   </g>
   <g id="matplotlib.axis_2">
    <g id="ytick_1">
     <g id="line2d_10">
      <defs>
       <path d="M 0 0 
L -6 0 
" id="m0c1df53702" style="stroke:#262626;"/>
      </defs>
      <g>
       <use style="fill:#262626;stroke:#262626;" x="90" xlink:href="#m0c1df53702" y="250.56"/>
      </g>
     </g>
     <g id="text_10">
      <!-- −0.04 -->
      <defs>
       <path d="M 52.828125 31.203125 
L 5.5625 31.203125 
L 5.5625 39.40625 
L 52.828125 39.40625 
z
" id="ArialMT-2212"/>
       <path d="M 9.078125 0 
L 9.078125 10.015625 
L 19.09375 10.015625 
L 19.09375 0 
z
" id="ArialMT-2e"/>
      </defs>
      <g style="fill:#262626;" transform="translate(51.698437 254.138906)scale(0.1 -0.1)">
       <use xlink:href="#ArialMT-2212"/>
       <use x="58.398438" xlink:href="#ArialMT-30"/>
       <use x="114.013672" xlink:href="#ArialMT-2e"/>
       <use x="141.796875" xlink:href="#ArialMT-30"/>
       <use x="197.412109" xlink:href="#ArialMT-34"/>
      </g>
     </g>
    </g>
    <g id="ytick_2">
     <g id="line2d_11">
      <g>
       <use style="fill:#262626;stroke:#262626;" x="90" xlink:href="#m0c1df53702" y="210.24"/>
      </g>
     </g>
     <g id="text_11">
      <!-- −0.02 -->
      <g style="fill:#262626;" transform="translate(51.698437 213.818906)scale(0.1 -0.1)">
       <use xlink:href="#ArialMT-2212"/>
       <use x="58.398438" xlink:href="#ArialMT-30"/>
       <use x="114.013672" xlink:href="#ArialMT-2e"/>
       <use x="141.796875" xlink:href="#ArialMT-30"/>
       <use x="197.412109" xlink:href="#ArialMT-32"/>
      </g>
     </g>
    </g>
    <g id="ytick_3">
     <g id="line2d_12">
      <g>
       <use style="fill:#262626;stroke:#262626;" x="90" xlink:href="#m0c1df53702" y="169.92"/>
      </g>
     </g>
     <g id="text_12">
      <!-- 0.00 -->
      <g style="fill:#262626;" transform="translate(57.539062 173.498906)scale(0.1 -0.1)">
       <use xlink:href="#ArialMT-30"/>
       <use x="55.615234" xlink:href="#ArialMT-2e"/>
       <use x="83.398438" xlink:href="#ArialMT-30"/>
       <use x="139.013672" xlink:href="#ArialMT-30"/>
      </g>
     </g>
    </g>
    <g id="ytick_4">
     <g id="line2d_13">
      <g>
       <use style="fill:#262626;stroke:#262626;" x="90" xlink:href="#m0c1df53702" y="129.6"/>
      </g>
     </g>
     <g id="text_13">
      <!-- 0.02 -->
      <g style="fill:#262626;" transform="translate(57.539062 133.178906)scale(0.1 -0.1)">
       <use xlink:href="#ArialMT-30"/>
       <use x="55.615234" xlink:href="#ArialMT-2e"/>
       <use x="83.398438" xlink:href="#ArialMT-30"/>
       <use x="139.013672" xlink:href="#ArialMT-32"/>
      </g>
     </g>
    </g>
    <g id="ytick_5">
     <g id="line2d_14">
      <g>
       <use style="fill:#262626;stroke:#262626;" x="90" xlink:href="#m0c1df53702" y="89.28"/>
      </g>
     </g>
     <g id="text_14">
      <!-- 0.04 -->
      <g style="fill:#262626;" transform="translate(57.539062 92.858906)scale(0.1 -0.1)">
       <use xlink:href="#ArialMT-30"/>
       <use x="55.615234" xlink:href="#ArialMT-2e"/>
       <use x="83.398438" xlink:href="#ArialMT-30"/>
       <use x="139.013672" xlink:href="#ArialMT-34"/>
      </g>
     </g>
    </g>
   </g>
   <g id="PolyCollection_1">
    <path clip-path="url(#pa61c36120f)" d="M 90 199.374496 
L 90 169.92 
L 90.6975 169.92 
L 91.395 169.92 
L 92.0925 169.92 
L 92.79 169.92 
L 93.4875 169.92 
L 94.185 169.92 
L 94.8825 169.92 
L 95.58 169.92 
L 96.2775 169.92 
L 96.975 169.92 
L 97.6725 169.92 
L 98.37 169.92 
L 99.0675 169.92 
L 99.765 169.92 
L 100.4625 169.92 
L 101.16 169.92 
L 101.8575 169.92 
L 102.555 169.92 
L 103.2525 169.92 
L 103.95 169.92 
L 104.6475 169.92 
L 105.345 169.92 
L 106.0425 169.92 
L 106.74 169.92 
L 107.4375 169.92 
L 108.135 169.92 
L 108.8325 169.92 
L 109.53 169.92 
L 110.2275 169.92 
L 110.925 169.92 
L 111.6225 169.92 
L 112.32 169.92 
L 113.0175 169.92 
L 113.715 169.92 
L 114.4125 169.92 
L 115.11 169.92 
L 115.8075 169.92 
L 116.505 169.92 
L 117.2025 169.92 
L 117.9 169.92 
L 118.5975 169.92 
L 119.295 169.92 
L 119.9925 169.92 
L 120.69 169.92 
L 121.3875 169.92 
L 122.085 169.92 
L 122.7825 169.92 
L 123.48 169.92 
L 124.1775 169.92 
L 124.875 169.92 
L 125.5725 169.92 
L 126.27 169.92 
L 126.9675 169.92 
L 127.665 169.92 
L 128.3625 169.92 
L 129.06 169.92 
L 129.7575 169.92 
L 130.455 169.92 
L 131.1525 169.92 
L 131.85 169.92 
L 132.5475 169.92 
L 133.245 169.92 
L 133.9425 169.92 
L 134.64 169.92 
L 135.3375 169.92 
L 136.035 169.92 
L 136.7325 169.92 
L 137.43 169.92 
L 138.1275 169.92 
L 138.825 169.92 
L 139.5225 169.92 
L 140.22 169.92 
L 140.9175 169.92 
L 141.615 169.92 
L 142.3125 169.92 
L 143.01 169.92 
L 143.7075 169.92 
L 144.405 169.92 
L 145.1025 169.92 
L 145.8 169.92 
L 146.4975 169.92 
L 147.195 169.92 
L 147.8925 169.92 
L 148.59 169.92 
L 149.2875 169.92 
L 149.985 169.92 
L 150.6825 169.92 
L 151.38 169.92 
L 152.0775 169.92 
L 152.775 169.92 
L 153.4725 169.92 
L 154.17 169.92 
L 154.8675 169.92 
L 155.565 169.92 
L 156.2625 169.92 
L 156.96 169.92 
L 157.6575 169.92 
L 158.355 169.92 
L 159.0525 169.92 
L 159.75 169.92 
L 160.4475 169.92 
L 161.145 169.92 
L 161.8425 169.92 
L 162.54 169.92 
L 163.2375 169.92 
L 163.935 169.92 
L 164.6325 169.92 
L 165.33 169.92 
L 166.0275 169.92 
L 166.725 169.92 
L 167.4225 169.92 
L 168.12 169.92 
L 168.8175 169.92 
L 169.515 169.92 
L 170.2125 169.92 
L 170.91 169.92 
L 171.6075 169.92 
L 172.305 169.92 
L 173.0025 169.92 
L 173.7 169.92 
L 174.3975 169.92 
L 175.095 169.92 
L 175.7925 169.92 
L 176.49 169.92 
L 177.1875 169.92 
L 177.885 169.92 
L 178.5825 169.92 
L 179.28 169.92 
L 179.9775 169.92 
L 180.675 169.92 
L 181.3725 169.92 
L 182.07 169.92 
L 182.7675 169.92 
L 183.465 169.92 
L 184.1625 169.92 
L 184.86 169.92 
L 185.5575 169.92 
L 186.255 169.92 
L 186.9525 169.92 
L 187.65 169.92 
L 188.3475 169.92 
L 189.045 169.92 
L 189.7425 169.92 
L 190.44 169.92 
L 191.1375 169.92 
L 191.835 169.92 
L 192.5325 169.92 
L 193.23 169.92 
L 193.9275 169.92 
L 194.625 169.92 
L 195.3225 169.92 
L 196.02 169.92 
L 196.7175 169.92 
L 197.415 169.92 
L 198.1125 169.92 
L 198.81 169.92 
L 199.5075 169.92 
L 200.205 169.92 
L 200.9025 169.92 
L 201.6 169.92 
L 202.2975 169.92 
L 202.995 169.92 
L 203.6925 169.92 
L 204.39 169.92 
L 205.0875 169.92 
L 205.785 169.92 
L 206.4825 169.92 
L 207.18 169.92 
L 207.8775 169.92 
L 208.575 169.92 
L 209.2725 169.92 
L 209.97 169.92 
L 210.6675 169.92 
L 211.365 169.92 
L 212.0625 169.92 
L 212.76 169.92 
L 213.4575 169.92 
L 214.155 169.92 
L 214.8525 169.92 
L 215.55 169.92 
L 216.2475 169.92 
L 216.945 169.92 
L 217.6425 169.92 
L 218.34 169.92 
L 219.0375 169.92 
L 219.735 169.92 
L 220.4325 169.92 
L 221.13 169.92 
L 221.8275 169.92 
L 222.525 169.92 
L 223.2225 169.92 
L 223.92 169.92 
L 224.6175 169.92 
L 225.315 169.92 
L 226.0125 169.92 
L 226.71 169.92 
L 227.4075 169.92 
L 228.105 169.92 
L 228.8025 169.92 
L 229.5 169.92 
L 230.1975 169.92 
L 230.895 169.92 
L 231.5925 169.92 
L 232.29 169.92 
L 232.9875 169.92 
L 233.685 169.92 
L 234.3825 169.92 
L 235.08 169.92 
L 235.7775 169.92 
L 236.475 169.92 
L 237.1725 169.92 
L 237.87 169.92 
L 238.5675 169.92 
L 239.265 169.92 
L 239.9625 169.92 
L 240.66 169.92 
L 241.3575 169.92 
L 242.055 169.92 
L 242.7525 169.92 
L 243.45 169.92 
L 244.1475 169.92 
L 244.845 169.92 
L 245.5425 169.92 
L 246.24 169.92 
L 246.9375 169.92 
L 247.635 169.92 
L 248.3325 169.92 
L 249.03 169.92 
L 249.7275 169.92 
L 250.425 169.92 
L 251.1225 169.92 
L 251.82 169.92 
L 252.5175 169.92 
L 253.215 169.92 
L 253.9125 169.92 
L 254.61 169.92 
L 255.3075 169.92 
L 256.005 169.92 
L 256.7025 169.92 
L 257.4 169.92 
L 258.0975 169.92 
L 258.795 169.92 
L 259.4925 169.92 
L 260.19 169.92 
L 260.8875 169.92 
L 261.585 169.92 
L 262.2825 169.92 
L 262.98 169.92 
L 263.6775 169.92 
L 264.375 169.92 
L 265.0725 169.92 
L 265.77 169.92 
L 266.4675 169.92 
L 267.165 169.92 
L 267.8625 169.92 
L 268.56 169.92 
L 269.2575 169.92 
L 269.955 169.92 
L 270.6525 169.92 
L 271.35 169.92 
L 272.0475 169.92 
L 272.745 169.92 
L 273.4425 169.92 
L 274.14 169.92 
L 274.8375 169.92 
L 275.535 169.92 
L 276.2325 169.92 
L 276.93 169.92 
L 277.6275 169.92 
L 278.325 169.92 
L 279.0225 169.92 
L 279.72 169.92 
L 280.4175 169.92 
L 281.115 169.92 
L 281.8125 169.92 
L 282.51 169.92 
L 283.2075 169.92 
L 283.905 169.92 
L 284.6025 169.92 
L 285.3 169.92 
L 285.9975 169.92 
L 286.695 169.92 
L 287.3925 169.92 
L 288.09 169.92 
L 288.7875 169.92 
L 289.485 169.92 
L 290.1825 169.92 
L 290.88 169.92 
L 291.5775 169.92 
L 292.275 169.92 
L 292.9725 169.92 
L 293.67 169.92 
L 294.3675 169.92 
L 295.065 169.92 
L 295.7625 169.92 
L 296.46 169.92 
L 297.1575 169.92 
L 297.855 169.92 
L 298.5525 169.92 
L 299.25 169.92 
L 299.9475 169.92 
L 300.645 169.92 
L 301.3425 169.92 
L 302.04 169.92 
L 302.7375 169.92 
L 303.435 169.92 
L 304.1325 169.92 
L 304.83 169.92 
L 305.5275 169.92 
L 306.225 169.92 
L 306.9225 169.92 
L 307.62 169.92 
L 308.3175 169.92 
L 309.015 169.92 
L 309.7125 169.92 
L 310.41 169.92 
L 311.1075 169.92 
L 311.805 169.92 
L 312.5025 169.92 
L 313.2 169.92 
L 313.8975 169.92 
L 314.595 169.92 
L 315.2925 169.92 
L 315.99 169.92 
L 316.6875 169.92 
L 317.385 169.92 
L 318.0825 169.92 
L 318.78 169.92 
L 319.4775 169.92 
L 320.175 169.92 
L 320.8725 169.92 
L 321.57 169.92 
L 322.2675 169.92 
L 322.965 169.92 
L 323.6625 169.92 
L 324.36 169.92 
L 325.0575 169.92 
L 325.755 169.92 
L 326.4525 169.92 
L 327.15 169.92 
L 327.8475 169.92 
L 328.545 169.92 
L 329.2425 169.92 
L 329.94 169.92 
L 330.6375 169.92 
L 331.335 169.92 
L 332.0325 169.92 
L 332.73 169.92 
L 333.4275 169.92 
L 334.125 169.92 
L 334.8225 169.92 
L 335.52 169.92 
L 336.2175 169.92 
L 336.915 169.92 
L 337.6125 169.92 
L 338.31 169.92 
L 339.0075 169.92 
L 339.705 169.92 
L 340.4025 169.92 
L 341.1 169.92 
L 341.7975 169.92 
L 342.495 169.92 
L 343.1925 169.92 
L 343.89 169.92 
L 344.5875 169.92 
L 345.285 169.92 
L 345.9825 169.92 
L 346.68 169.92 
L 347.3775 169.92 
L 348.075 169.92 
L 348.7725 169.92 
L 349.47 169.92 
L 350.1675 169.92 
L 350.865 169.92 
L 351.5625 169.92 
L 352.26 169.92 
L 352.9575 169.92 
L 353.655 169.92 
L 354.3525 169.92 
L 355.05 169.92 
L 355.7475 169.92 
L 356.445 169.92 
L 357.1425 169.92 
L 357.84 169.92 
L 358.5375 169.92 
L 359.235 169.92 
L 359.9325 169.92 
L 360.63 169.92 
L 361.3275 169.92 
L 362.025 169.92 
L 362.7225 169.92 
L 363.42 169.92 
L 364.1175 169.92 
L 364.815 169.92 
L 365.5125 169.92 
L 366.21 169.92 
L 366.9075 169.92 
L 367.605 169.92 
L 368.3025 169.92 
L 369 169.92 
L 369.6975 169.92 
L 370.395 169.92 
L 371.0925 169.92 
L 371.79 169.92 
L 372.4875 169.92 
L 373.185 169.92 
L 373.8825 169.92 
L 374.58 169.92 
L 375.2775 169.92 
L 375.975 169.92 
L 376.6725 169.92 
L 377.37 169.92 
L 378.0675 169.92 
L 378.765 169.92 
L 379.4625 169.92 
L 380.16 169.92 
L 380.8575 169.92 
L 381.555 169.92 
L 382.2525 169.92 
L 382.95 169.92 
L 383.6475 169.92 
L 384.345 169.92 
L 385.0425 169.92 
L 385.74 169.92 
L 386.4375 169.92 
L 387.135 169.92 
L 387.8325 169.92 
L 388.53 169.92 
L 389.2275 169.92 
L 389.925 169.92 
L 390.6225 169.92 
L 391.32 169.92 
L 392.0175 169.92 
L 392.715 169.92 
L 393.4125 169.92 
L 394.11 169.92 
L 394.8075 169.92 
L 395.505 169.92 
L 396.2025 169.92 
L 396.9 169.92 
L 397.5975 169.92 
L 398.295 169.92 
L 398.9925 169.92 
L 399.69 169.92 
L 400.3875 169.92 
L 401.085 169.92 
L 401.7825 169.92 
L 402.48 169.92 
L 403.1775 169.92 
L 403.875 169.92 
L 404.5725 169.92 
L 405.27 169.92 
L 405.9675 169.92 
L 406.665 169.92 
L 407.3625 169.92 
L 408.06 169.92 
L 408.7575 169.92 
L 409.455 169.92 
L 410.1525 169.92 
L 410.85 169.92 
L 411.5475 169.92 
L 412.245 169.92 
L 412.9425 169.92 
L 413.64 169.92 
L 414.3375 169.92 
L 415.035 169.92 
L 415.7325 169.92 
L 416.43 169.92 
L 417.1275 169.92 
L 417.825 169.92 
L 418.5225 169.92 
L 419.22 169.92 
L 419.9175 169.92 
L 420.615 169.92 
L 421.3125 169.92 
L 422.01 169.92 
L 422.7075 169.92 
L 423.405 169.92 
L 424.1025 169.92 
L 424.8 169.92 
L 425.4975 169.92 
L 426.195 169.92 
L 426.8925 169.92 
L 427.59 169.92 
L 428.2875 169.92 
L 428.985 169.92 
L 429.6825 169.92 
L 430.38 169.92 
L 431.0775 169.92 
L 431.775 169.92 
L 432.4725 169.92 
L 433.17 169.92 
L 433.8675 169.92 
L 434.565 169.92 
L 435.2625 169.92 
L 435.96 169.92 
L 436.6575 169.92 
L 437.355 169.92 
L 438.0525 169.92 
L 438.75 169.92 
L 439.4475 169.92 
L 440.145 169.92 
L 440.8425 169.92 
L 441.54 169.92 
L 442.2375 169.92 
L 442.935 169.92 
L 443.6325 169.92 
L 444.33 169.92 
L 445.0275 169.92 
L 445.725 169.92 
L 446.4225 169.92 
L 447.12 169.92 
L 447.8175 169.92 
L 448.515 169.92 
L 449.2125 169.92 
L 449.91 169.92 
L 450.6075 169.92 
L 451.305 169.92 
L 452.0025 169.92 
L 452.7 169.92 
L 453.3975 169.92 
L 454.095 169.92 
L 454.7925 169.92 
L 455.49 169.92 
L 456.1875 169.92 
L 456.885 169.92 
L 457.5825 169.92 
L 458.28 169.92 
L 458.9775 169.92 
L 459.675 169.92 
L 460.3725 169.92 
L 461.07 169.92 
L 461.7675 169.92 
L 462.465 169.92 
L 463.1625 169.92 
L 463.86 169.92 
L 464.5575 169.92 
L 465.255 169.92 
L 465.9525 169.92 
L 466.65 169.92 
L 467.3475 169.92 
L 468.045 169.92 
L 468.7425 169.92 
L 469.44 169.92 
L 470.1375 169.92 
L 470.835 169.92 
L 471.5325 169.92 
L 472.23 169.92 
L 472.9275 169.92 
L 473.625 169.92 
L 474.3225 169.92 
L 475.02 169.92 
L 475.7175 169.92 
L 476.415 169.92 
L 477.1125 169.92 
L 477.81 169.92 
L 478.5075 169.92 
L 479.205 169.92 
L 479.9025 169.92 
L 480.6 169.92 
L 481.2975 169.92 
L 481.995 169.92 
L 482.6925 169.92 
L 483.39 169.92 
L 484.0875 169.92 
L 484.785 169.92 
L 485.4825 169.92 
L 486.18 169.92 
L 486.8775 169.92 
L 487.575 169.92 
L 488.2725 169.92 
L 488.97 169.92 
L 489.6675 169.92 
L 490.365 169.92 
L 491.0625 169.92 
L 491.76 169.92 
L 492.4575 169.92 
L 493.155 169.92 
L 493.8525 169.92 
L 494.55 169.92 
L 495.2475 169.92 
L 495.945 169.92 
L 496.6425 169.92 
L 497.34 169.92 
L 498.0375 169.92 
L 498.735 169.92 
L 499.4325 169.92 
L 500.13 169.92 
L 500.8275 169.92 
L 501.525 169.92 
L 502.2225 169.92 
L 502.92 169.92 
L 503.6175 169.92 
L 504.315 169.92 
L 505.0125 169.92 
L 505.71 169.92 
L 506.4075 169.92 
L 507.105 169.92 
L 507.8025 169.92 
L 508.5 169.92 
L 509.1975 169.92 
L 509.895 169.92 
L 510.5925 169.92 
L 511.29 169.92 
L 511.9875 169.92 
L 512.685 169.92 
L 513.3825 169.92 
L 514.08 169.92 
L 514.7775 169.92 
L 515.475 169.92 
L 516.1725 169.92 
L 516.87 169.92 
L 517.5675 169.92 
L 518.265 169.92 
L 518.9625 169.92 
L 519.66 169.92 
L 520.3575 169.92 
L 521.055 169.92 
L 521.7525 169.92 
L 522.45 169.92 
L 523.1475 169.92 
L 523.845 169.92 
L 524.5425 169.92 
L 525.24 169.92 
L 525.9375 169.92 
L 526.635 169.92 
L 527.3325 169.92 
L 528.03 169.92 
L 528.7275 169.92 
L 529.425 169.92 
L 530.1225 169.92 
L 530.82 169.92 
L 531.5175 169.92 
L 532.215 169.92 
L 532.9125 169.92 
L 533.61 169.92 
L 534.3075 169.92 
L 535.005 169.92 
L 535.7025 169.92 
L 536.4 169.92 
L 537.0975 169.92 
L 537.795 169.92 
L 538.4925 169.92 
L 539.19 169.92 
L 539.8875 169.92 
L 540.585 169.92 
L 541.2825 169.92 
L 541.98 169.92 
L 542.6775 169.92 
L 543.375 169.92 
L 544.0725 169.92 
L 544.77 169.92 
L 545.4675 169.92 
L 546.165 169.92 
L 546.8625 169.92 
L 547.56 169.92 
L 548.2575 169.92 
L 548.955 169.92 
L 549.6525 169.92 
L 550.35 169.92 
L 551.0475 169.92 
L 551.745 169.92 
L 552.4425 169.92 
L 553.14 169.92 
L 553.8375 169.92 
L 554.535 169.92 
L 555.2325 169.92 
L 555.93 169.92 
L 556.6275 169.92 
L 557.325 169.92 
L 558.0225 169.92 
L 558.72 169.92 
L 559.4175 169.92 
L 560.115 169.92 
L 560.8125 169.92 
L 561.51 169.92 
L 562.2075 169.92 
L 562.905 169.92 
L 563.6025 169.92 
L 564.3 169.92 
L 564.9975 169.92 
L 565.695 169.92 
L 566.3925 169.92 
L 567.09 169.92 
L 567.7875 169.92 
L 568.485 169.92 
L 569.1825 169.92 
L 569.88 169.92 
L 570.5775 169.92 
L 571.275 169.92 
L 571.9725 169.92 
L 572.67 169.92 
L 573.3675 169.92 
L 574.065 169.92 
L 574.7625 169.92 
L 575.46 169.92 
L 576.1575 169.92 
L 576.855 169.92 
L 577.5525 169.92 
L 578.25 169.92 
L 578.9475 169.92 
L 579.645 169.92 
L 580.3425 169.92 
L 581.04 169.92 
L 581.7375 169.92 
L 582.435 169.92 
L 583.1325 169.92 
L 583.83 169.92 
L 584.5275 169.92 
L 585.225 169.92 
L 585.9225 169.92 
L 586.62 169.92 
L 587.3175 169.92 
L 588.015 169.92 
L 588.7125 169.92 
L 589.41 169.92 
L 590.1075 169.92 
L 590.805 169.92 
L 591.5025 169.92 
L 592.2 169.92 
L 592.8975 169.92 
L 593.595 169.92 
L 594.2925 169.92 
L 594.99 169.92 
L 595.6875 169.92 
L 596.385 169.92 
L 597.0825 169.92 
L 597.78 169.92 
L 598.4775 169.92 
L 599.175 169.92 
L 599.8725 169.92 
L 600.57 169.92 
L 601.2675 169.92 
L 601.965 169.92 
L 602.6625 169.92 
L 603.36 169.92 
L 604.0575 169.92 
L 604.755 169.92 
L 605.4525 169.92 
L 606.15 169.92 
L 606.8475 169.92 
L 607.545 169.92 
L 608.2425 169.92 
L 608.94 169.92 
L 609.6375 169.92 
L 610.335 169.92 
L 611.0325 169.92 
L 611.73 169.92 
L 612.4275 169.92 
L 613.125 169.92 
L 613.8225 169.92 
L 614.52 169.92 
L 615.2175 169.92 
L 615.915 169.92 
L 616.6125 169.92 
L 617.31 169.92 
L 618.0075 169.92 
L 618.705 169.92 
L 619.4025 169.92 
L 620.1 169.92 
L 620.7975 169.92 
L 621.495 169.92 
L 622.1925 169.92 
L 622.89 169.92 
L 623.5875 169.92 
L 624.285 169.92 
L 624.9825 169.92 
L 625.68 169.92 
L 626.3775 169.92 
L 627.075 169.92 
L 627.7725 169.92 
L 628.47 169.92 
L 629.1675 169.92 
L 629.865 169.92 
L 630.5625 169.92 
L 631.26 169.92 
L 631.9575 169.92 
L 632.655 169.92 
L 633.3525 169.92 
L 634.05 169.92 
L 634.7475 169.92 
L 635.445 169.92 
L 636.1425 169.92 
L 636.84 169.92 
L 637.5375 169.92 
L 638.235 169.92 
L 638.9325 169.92 
L 639.63 169.92 
L 640.3275 169.92 
L 641.025 169.92 
L 641.7225 169.92 
L 642.42 169.92 
L 643.1175 169.92 
L 643.815 169.92 
L 644.5125 169.92 
L 645.21 169.92 
L 645.9075 169.92 
L 646.605 169.92 
L 646.605 169.92 
L 646.605 169.92 
L 645.9075 169.926311 
L 645.21 169.94314 
L 644.5125 169.964874 
L 643.815 169.992213 
L 643.1175 170.026554 
L 642.42 170.065089 
L 641.7225 170.107111 
L 641.025 170.157524 
L 640.3275 170.213516 
L 639.63 170.274378 
L 638.9325 170.343609 
L 638.235 170.416992 
L 637.5375 170.497324 
L 636.84 170.58319 
L 636.1425 170.675281 
L 635.445 170.773585 
L 634.7475 170.877387 
L 634.05 170.985273 
L 633.3525 171.096527 
L 632.655 171.215341 
L 631.9575 171.338896 
L 631.26 171.468578 
L 630.5625 171.60507 
L 629.865 171.749058 
L 629.1675 171.896314 
L 628.47 172.050325 
L 627.7725 172.210371 
L 627.075 172.378534 
L 626.3775 172.550585 
L 625.68 172.729306 
L 624.9825 172.913273 
L 624.285 173.101058 
L 623.5875 173.297546 
L 622.89 173.498503 
L 622.1925 173.706009 
L 621.495 173.919333 
L 620.7975 174.137046 
L 620.1 174.357017 
L 619.4025 174.584124 
L 618.705 174.814833 
L 618.0075 175.050516 
L 617.31 175.289039 
L 616.6125 175.529669 
L 615.915 175.775881 
L 615.2175 176.024138 
L 614.52 176.275108 
L 613.8225 176.530862 
L 613.125 176.789964 
L 612.4275 177.050979 
L 611.73 177.314574 
L 611.0325 177.58422 
L 610.335 177.857779 
L 609.6375 178.133112 
L 608.94 178.412287 
L 608.2425 178.693864 
L 607.545 178.976406 
L 606.8475 179.26338 
L 606.15 179.55405 
L 605.4525 179.846974 
L 604.755 180.137206 
L 604.0575 180.431019 
L 603.36 180.722765 
L 602.6625 181.015913 
L 601.965 181.307619 
L 601.2675 181.599249 
L 600.57 181.890062 
L 599.8725 182.17932 
L 599.175 182.468388 
L 598.4775 182.753021 
L 597.78 183.038792 
L 597.0825 183.320053 
L 596.385 183.599574 
L 595.6875 183.875915 
L 594.99 184.14904 
L 594.2925 184.421018 
L 593.595 184.688307 
L 592.8975 184.952976 
L 592.2 185.212888 
L 591.5025 185.465904 
L 590.805 185.716199 
L 590.1075 185.963039 
L 589.41 186.204991 
L 588.7125 186.440619 
L 588.015 186.672698 
L 587.3175 186.9019 
L 586.62 187.12539 
L 585.9225 187.343138 
L 585.225 187.553013 
L 584.5275 187.756389 
L 583.83 187.954644 
L 583.1325 188.149153 
L 582.435 188.33919 
L 581.7375 188.523328 
L 581.04 188.701543 
L 580.3425 188.873812 
L 579.645 189.038008 
L 578.9475 189.196215 
L 578.25 189.346307 
L 577.5525 189.488266 
L 576.855 189.625579 
L 576.1575 189.754021 
L 575.46 189.878484 
L 574.7625 189.99264 
L 574.065 190.097878 
L 573.3675 190.195585 
L 572.67 190.283646 
L 571.9725 190.366958 
L 571.275 190.442003 
L 570.5775 190.508071 
L 569.88 190.564453 
L 569.1825 190.614646 
L 568.485 190.654437 
L 567.7875 190.683821 
L 567.09 190.707001 
L 566.3925 190.721169 
L 565.695 190.726324 
L 564.9975 190.723867 
L 564.3 190.715903 
L 563.6025 190.699627 
L 562.905 190.673639 
L 562.2075 190.64215 
L 561.51 190.602359 
L 560.8125 190.555674 
L 560.115 190.502801 
L 559.4175 190.443047 
L 558.72 190.377822 
L 558.0225 190.30433 
L 557.325 190.226085 
L 556.6275 190.138892 
L 555.93 190.046968 
L 555.2325 189.946118 
L 554.535 189.83916 
L 553.8375 189.726809 
L 553.14 189.606276 
L 552.4425 189.482483 
L 551.745 189.349838 
L 551.0475 189.213267 
L 550.35 189.06928 
L 549.6525 188.922104 
L 548.955 188.768253 
L 548.2575 188.606342 
L 547.56 188.439901 
L 546.8625 188.268949 
L 546.165 188.092809 
L 545.4675 187.910101 
L 544.77 187.722251 
L 544.0725 187.528581 
L 543.375 187.329819 
L 542.6775 187.125289 
L 541.98 186.918524 
L 541.2825 186.704642 
L 540.585 186.486476 
L 539.8875 186.264053 
L 539.19 186.036703 
L 538.4925 185.807259 
L 537.795 185.574348 
L 537.0975 185.338702 
L 536.4 185.100352 
L 535.7025 184.86003 
L 535.005 184.615663 
L 534.3075 184.370789 
L 533.61 184.121233 
L 532.9125 183.871235 
L 532.215 183.61732 
L 531.5175 183.363029 
L 530.82 183.107692 
L 530.1225 182.850642 
L 529.425 182.594717 
L 528.7275 182.335743 
L 528.03 182.076558 
L 527.3325 181.816495 
L 526.635 181.554887 
L 525.9375 181.291066 
L 525.24 181.026469 
L 524.5425 180.760429 
L 523.845 180.493682 
L 523.1475 180.226964 
L 522.45 179.957504 
L 521.7525 179.68674 
L 521.055 179.413305 
L 520.3575 179.138637 
L 519.66 178.863472 
L 518.9625 178.587146 
L 518.265 178.308992 
L 517.5675 178.031852 
L 516.87 177.754359 
L 516.1725 177.475147 
L 515.475 177.197058 
L 514.7775 176.919425 
L 514.08 176.642286 
L 513.3825 176.365676 
L 512.685 176.088228 
L 511.9875 175.809278 
L 511.29 175.529563 
L 510.5925 175.250521 
L 509.895 174.973592 
L 509.1975 174.696708 
L 508.5 174.422008 
L 507.8025 174.146022 
L 507.105 173.873694 
L 506.4075 173.602255 
L 505.71 173.332442 
L 505.0125 173.062185 
L 504.315 172.794324 
L 503.6175 172.528896 
L 502.92 172.263829 
L 502.2225 172.003367 
L 501.525 171.744036 
L 500.8275 171.487274 
L 500.13 171.231009 
L 499.4325 170.975976 
L 498.735 170.724313 
L 498.0375 170.475349 
L 497.34 170.229119 
L 496.6425 169.984952 
L 495.945 169.744283 
L 495.2475 169.507142 
L 494.55 169.274964 
L 493.8525 169.043571 
L 493.155 168.8165 
L 492.4575 168.589571 
L 491.76 168.367023 
L 491.0625 168.14678 
L 490.365 167.928872 
L 489.6675 167.712624 
L 488.97 167.499469 
L 488.2725 167.28803 
L 487.575 167.079037 
L 486.8775 166.875321 
L 486.18 166.675507 
L 485.4825 166.478219 
L 484.785 166.283481 
L 484.0875 166.093423 
L 483.39 165.906668 
L 482.6925 165.721836 
L 481.995 165.538952 
L 481.2975 165.359442 
L 480.6 165.181926 
L 479.9025 165.007131 
L 479.205 164.834376 
L 478.5075 164.665086 
L 477.81 164.497181 
L 477.1125 164.332083 
L 476.415 164.168413 
L 475.7175 164.008996 
L 475.02 163.850348 
L 474.3225 163.693189 
L 473.625 163.53754 
L 472.9275 163.38272 
L 472.23 163.22875 
L 471.5325 163.075648 
L 470.835 162.926943 
L 470.1375 162.779145 
L 469.44 162.632977 
L 468.7425 162.489859 
L 468.045 162.349109 
L 467.3475 162.209342 
L 466.65 162.07198 
L 465.9525 161.938442 
L 465.255 161.808746 
L 464.5575 161.680805 
L 463.86 161.554635 
L 463.1625 161.432358 
L 462.465 161.311182 
L 461.7675 161.196034 
L 461.07 161.08202 
L 460.3725 160.969855 
L 459.675 160.859553 
L 458.9775 160.750429 
L 458.28 160.641094 
L 457.5825 160.535769 
L 456.885 160.433065 
L 456.1875 160.330893 
L 455.49 160.229967 
L 454.7925 160.133806 
L 454.095 160.038916 
L 453.3975 159.946712 
L 452.7 159.857206 
L 452.0025 159.771112 
L 451.305 159.687738 
L 450.6075 159.607096 
L 449.91 159.529898 
L 449.2125 159.455452 
L 448.515 159.384469 
L 447.8175 159.316257 
L 447.12 159.249423 
L 446.4225 159.185378 
L 445.725 159.12483 
L 445.0275 159.067088 
L 444.33 159.014262 
L 443.6325 158.963554 
L 442.935 158.914971 
L 442.2375 158.867817 
L 441.54 158.824904 
L 440.8425 158.784134 
L 440.145 158.747615 
L 439.4475 158.713249 
L 438.75 158.683845 
L 438.0525 158.655901 
L 437.355 158.630823 
L 436.6575 158.608614 
L 435.96 158.587874 
L 435.2625 158.570009 
L 434.565 158.55432 
L 433.8675 158.54151 
L 433.17 158.530178 
L 432.4725 158.521728 
L 431.775 158.514759 
L 431.0775 158.509272 
L 430.38 158.505267 
L 429.6825 158.503446 
L 428.985 158.503109 
L 428.2875 158.504254 
L 427.59 158.506182 
L 426.8925 158.509592 
L 426.195 158.515186 
L 425.4975 158.522262 
L 424.8 158.530818 
L 424.1025 158.541556 
L 423.405 158.55307 
L 422.7075 158.568164 
L 422.01 158.583331 
L 421.3125 158.599971 
L 420.615 158.618081 
L 419.9175 158.636959 
L 419.22 158.656601 
L 418.5225 158.677005 
L 417.825 158.699571 
L 417.1275 158.722893 
L 416.43 158.74767 
L 415.7325 158.773198 
L 415.035 158.798069 
L 414.3375 158.825087 
L 413.64 158.853546 
L 412.9425 158.882041 
L 412.245 158.913372 
L 411.5475 158.945431 
L 410.85 158.976813 
L 410.1525 159.008915 
L 409.455 159.041734 
L 408.7575 159.075264 
L 408.06 159.108801 
L 407.3625 159.141638 
L 406.665 159.175876 
L 405.9675 159.208004 
L 405.27 159.240121 
L 404.5725 159.27082 
L 403.875 159.302201 
L 403.1775 159.33356 
L 402.48 159.363489 
L 401.7825 159.394088 
L 401.085 159.422548 
L 400.3875 159.450269 
L 399.69 159.477947 
L 398.9925 159.503476 
L 398.295 159.527552 
L 397.5975 159.552278 
L 396.9 159.576247 
L 396.2025 159.600158 
L 395.505 159.622604 
L 394.8075 159.644284 
L 394.11 159.665195 
L 393.4125 159.68253 
L 392.715 159.699092 
L 392.0175 159.714877 
L 391.32 159.728483 
L 390.6225 159.742711 
L 389.925 159.753352 
L 389.2275 159.762509 
L 388.53 159.772285 
L 387.8325 159.780574 
L 387.135 159.787376 
L 386.4375 159.794792 
L 385.74 159.800018 
L 385.0425 159.803053 
L 384.345 159.805298 
L 383.6475 159.806753 
L 382.95 159.806016 
L 382.2525 159.802386 
L 381.555 159.796564 
L 380.8575 159.789252 
L 380.16 159.77975 
L 379.4625 159.768059 
L 378.765 159.75348 
L 378.0675 159.735313 
L 377.37 159.715664 
L 376.6725 159.692432 
L 375.975 159.667023 
L 375.2775 159.640141 
L 374.58 159.610387 
L 373.8825 159.578466 
L 373.185 159.543681 
L 372.4875 159.506739 
L 371.79 159.467642 
L 371.0925 159.425697 
L 370.395 159.380907 
L 369.6975 159.333279 
L 369 159.284923 
L 368.3025 159.232338 
L 367.605 159.17974 
L 366.9075 159.124329 
L 366.21 159.066114 
L 365.5125 159.005802 
L 364.815 158.943403 
L 364.1175 158.87752 
L 363.42 158.809566 
L 362.7225 158.73955 
L 362.025 158.667479 
L 361.3275 158.593364 
L 360.63 158.518618 
L 359.9325 158.441145 
L 359.235 158.361657 
L 358.5375 158.280865 
L 357.84 158.195976 
L 357.1425 158.109805 
L 356.445 158.02026 
L 355.7475 157.928755 
L 355.05 157.8346 
L 354.3525 157.736405 
L 353.655 157.635585 
L 352.9575 157.531453 
L 352.26 157.425425 
L 351.5625 157.318214 
L 350.865 157.207732 
L 350.1675 157.094694 
L 349.47 156.979115 
L 348.7725 156.86101 
L 348.075 156.741095 
L 347.3775 156.619386 
L 346.68 156.4966 
L 345.9825 156.372052 
L 345.285 156.245057 
L 344.5875 156.116332 
L 343.89 155.986595 
L 343.1925 155.854461 
L 342.495 155.720648 
L 341.7975 155.585174 
L 341.1 155.447355 
L 340.4025 155.30861 
L 339.705 155.16896 
L 339.0075 155.027719 
L 338.31 154.885608 
L 337.6125 154.741944 
L 336.915 154.598149 
L 336.2175 154.45424 
L 335.52 154.308834 
L 334.8225 154.161951 
L 334.125 154.013608 
L 333.4275 153.864527 
L 332.73 153.714025 
L 332.0325 153.561422 
L 331.335 153.408138 
L 330.6375 153.253494 
L 329.94 153.096106 
L 329.2425 152.937398 
L 328.545 152.779494 
L 327.8475 152.618908 
L 327.15 152.458465 
L 326.4525 152.296786 
L 325.755 152.133188 
L 325.0575 151.968395 
L 324.36 151.802427 
L 323.6625 151.635308 
L 322.965 151.467057 
L 322.2675 151.297698 
L 321.57 151.127953 
L 320.8725 150.958546 
L 320.175 150.788096 
L 319.4775 150.617327 
L 318.78 150.44626 
L 318.0825 150.274218 
L 317.385 150.101922 
L 316.6875 149.930098 
L 315.99 149.758065 
L 315.2925 149.586548 
L 314.595 149.415569 
L 313.8975 149.246553 
L 313.2 149.077417 
L 312.5025 148.907484 
L 311.805 148.736773 
L 311.1075 148.565309 
L 310.41 148.393814 
L 309.7125 148.223012 
L 309.015 148.052223 
L 308.3175 147.882172 
L 307.62 147.711478 
L 306.9225 147.541565 
L 306.225 147.371755 
L 305.5275 147.204172 
L 304.83 147.03884 
L 304.1325 146.874376 
L 303.435 146.711504 
L 302.7375 146.550946 
L 302.04 146.391321 
L 301.3425 146.233349 
L 300.645 146.077052 
L 299.9475 145.92245 
L 299.25 145.769564 
L 298.5525 145.618412 
L 297.855 145.469015 
L 297.1575 145.322795 
L 296.46 145.179069 
L 295.7625 145.037856 
L 295.065 144.898473 
L 294.3675 144.761639 
L 293.67 144.627373 
L 292.9725 144.495691 
L 292.275 144.367313 
L 291.5775 144.240851 
L 290.88 144.117726 
L 290.1825 143.99655 
L 289.485 143.878742 
L 288.7875 143.763616 
L 288.09 143.651187 
L 287.3925 143.54217 
L 286.695 143.435879 
L 285.9975 143.333029 
L 285.3 143.232231 
L 284.6025 143.1356 
L 283.905 143.04245 
L 283.2075 142.952791 
L 282.51 142.866636 
L 281.8125 142.783995 
L 281.115 142.70488 
L 280.4175 142.6293 
L 279.72 142.557967 
L 279.0225 142.490189 
L 278.325 142.425974 
L 277.6275 142.366032 
L 276.93 142.310371 
L 276.2325 142.258297 
L 275.535 142.210518 
L 274.8375 142.167041 
L 274.14 142.128571 
L 273.4425 142.094413 
L 272.745 142.063869 
L 272.0475 142.038347 
L 271.35 142.016448 
L 270.6525 141.998875 
L 269.955 141.98563 
L 269.2575 141.976014 
L 268.56 141.971431 
L 267.8625 141.971882 
L 267.165 141.978067 
L 266.4675 141.988584 
L 265.77 142.004131 
L 265.0725 142.024708 
L 264.375 142.04961 
L 263.6775 142.080236 
L 262.98 142.115181 
L 262.2825 142.153738 
L 261.585 142.197304 
L 260.8875 142.245173 
L 260.19 142.29804 
L 259.4925 142.355899 
L 258.795 142.41874 
L 258.0975 142.486557 
L 257.4 142.55934 
L 256.7025 142.63708 
L 256.005 142.719767 
L 255.3075 142.808092 
L 254.61 142.90064 
L 253.9125 142.998101 
L 253.215 143.09976 
L 252.5175 143.206307 
L 251.82 143.317025 
L 251.1225 143.4319 
L 250.425 143.551619 
L 249.7275 143.676166 
L 249.03 143.805525 
L 248.3325 143.939679 
L 247.635 144.078611 
L 246.9375 144.222303 
L 246.24 144.369333 
L 245.5425 144.521085 
L 244.845 144.676837 
L 244.1475 144.837973 
L 243.45 145.003069 
L 242.7525 145.172804 
L 242.055 145.346456 
L 241.3575 145.5233 
L 240.66 145.704716 
L 239.9625 145.889979 
L 239.265 146.079065 
L 238.5675 146.271248 
L 237.87 146.466504 
L 237.1725 146.665508 
L 236.475 146.868234 
L 235.7775 147.073955 
L 235.08 147.283346 
L 234.3825 147.496378 
L 233.685 147.713025 
L 232.9875 147.932557 
L 232.29 148.154945 
L 231.5925 148.381563 
L 230.895 148.611681 
L 230.1975 148.844567 
L 229.5 149.080892 
L 228.8025 149.319223 
L 228.105 149.560932 
L 227.4075 149.805286 
L 226.71 150.052253 
L 226.0125 150.302502 
L 225.315 150.5553 
L 224.6175 150.810614 
L 223.92 151.06841 
L 223.2225 151.328655 
L 222.525 151.591316 
L 221.8275 151.856358 
L 221.13 152.123746 
L 220.4325 152.392746 
L 219.735 152.664022 
L 219.0375 152.936839 
L 218.34 153.211862 
L 217.6425 153.489056 
L 216.945 153.768385 
L 216.2475 154.049811 
L 215.55 154.3333 
L 214.8525 154.618814 
L 214.155 154.906315 
L 213.4575 155.196468 
L 212.76 155.488534 
L 212.0625 155.782475 
L 211.365 156.078954 
L 210.6675 156.37723 
L 209.97 156.677267 
L 209.2725 156.979023 
L 208.575 157.282461 
L 207.8775 157.587541 
L 207.18 157.894223 
L 206.4825 158.202467 
L 205.785 158.512234 
L 205.0875 158.823482 
L 204.39 159.136172 
L 203.6925 159.450263 
L 202.995 159.765714 
L 202.2975 160.083887 
L 201.6 160.403338 
L 200.9025 160.724025 
L 200.205 161.045907 
L 199.5075 161.368942 
L 198.81 161.693087 
L 198.1125 162.019003 
L 197.415 162.345945 
L 196.7175 162.673871 
L 196.02 163.002738 
L 195.3225 163.332505 
L 194.625 163.663126 
L 193.9275 163.994561 
L 193.23 164.326766 
L 192.5325 164.659697 
L 191.835 164.993311 
L 191.1375 165.327566 
L 190.44 165.662417 
L 189.7425 165.997822 
L 189.045 166.333736 
L 188.3475 166.670115 
L 187.65 167.006918 
L 186.9525 167.344098 
L 186.255 167.681613 
L 185.5575 168.019419 
L 184.86 168.357472 
L 184.1625 168.695728 
L 183.465 169.034143 
L 182.7675 169.372673 
L 182.07 169.711274 
L 181.3725 170.049902 
L 180.675 170.388513 
L 179.9775 170.727064 
L 179.28 171.065509 
L 178.5825 171.403806 
L 177.885 171.74191 
L 177.1875 172.079778 
L 176.49 172.417364 
L 175.7925 172.754627 
L 175.095 173.091521 
L 174.3975 173.428003 
L 173.7 173.764029 
L 173.0025 174.099556 
L 172.305 174.43454 
L 171.6075 174.768937 
L 170.91 175.102705 
L 170.2125 175.435799 
L 169.515 175.768176 
L 168.8175 176.099794 
L 168.12 176.430609 
L 167.4225 176.759877 
L 166.725 177.088256 
L 166.0275 177.415704 
L 165.33 177.742178 
L 164.6325 178.067636 
L 163.935 178.392036 
L 163.2375 178.715335 
L 162.54 179.037491 
L 161.8425 179.357762 
L 161.145 179.676806 
L 160.4475 179.994583 
L 159.75 180.311051 
L 159.0525 180.626169 
L 158.355 180.939896 
L 157.6575 181.252192 
L 156.96 181.563015 
L 156.2625 181.872326 
L 155.565 182.180084 
L 154.8675 182.486249 
L 154.17 182.790781 
L 153.4725 183.093642 
L 152.775 183.394791 
L 152.0775 183.693488 
L 151.38 183.990396 
L 150.6825 184.284775 
L 149.985 184.577287 
L 149.2875 184.867896 
L 148.59 185.156562 
L 147.8925 185.443249 
L 147.195 185.727919 
L 146.4975 186.010536 
L 145.8 186.291062 
L 145.1025 186.569461 
L 144.405 186.845698 
L 143.7075 187.119735 
L 143.01 187.391538 
L 142.3125 187.661071 
L 141.615 187.928299 
L 140.9175 188.193188 
L 140.22 188.455703 
L 139.5225 188.715109 
L 138.825 188.972072 
L 138.1275 189.226561 
L 137.43 189.479243 
L 136.7325 189.729383 
L 136.035 189.97695 
L 135.3375 190.221912 
L 134.64 190.464236 
L 133.9425 190.704592 
L 133.245 190.942248 
L 132.5475 191.177172 
L 131.85 191.409336 
L 131.1525 191.638707 
L 130.455 191.865257 
L 129.7575 192.088956 
L 129.06 192.309774 
L 128.3625 192.527684 
L 127.665 192.742657 
L 126.9675 192.954665 
L 126.27 193.163681 
L 125.5725 193.369676 
L 124.875 193.572626 
L 124.1775 193.772502 
L 123.48 193.96928 
L 122.7825 194.162933 
L 122.085 194.353437 
L 121.3875 194.540766 
L 120.69 194.724897 
L 119.9925 194.905806 
L 119.295 195.083468 
L 118.5975 195.257861 
L 117.9 195.428963 
L 117.2025 195.59675 
L 116.505 195.761202 
L 115.8075 195.922297 
L 115.11 196.080013 
L 114.4125 196.234331 
L 113.715 196.38523 
L 113.0175 196.532692 
L 112.32 196.676695 
L 111.6225 196.817223 
L 110.925 196.954256 
L 110.2275 197.087778 
L 109.53 197.217769 
L 108.8325 197.344215 
L 108.135 197.467097 
L 107.4375 197.586401 
L 106.74 197.70211 
L 106.0425 197.81421 
L 105.345 197.922687 
L 104.6475 198.027525 
L 103.95 198.128712 
L 103.2525 198.226234 
L 102.555 198.320079 
L 101.8575 198.410234 
L 101.16 198.496688 
L 100.4625 198.579429 
L 99.765 198.658447 
L 99.0675 198.733731 
L 98.37 198.805272 
L 97.6725 198.873061 
L 96.975 198.937088 
L 96.2775 198.997345 
L 95.58 199.053825 
L 94.8825 199.107221 
L 94.185 199.156825 
L 93.4875 199.202631 
L 92.79 199.244633 
L 92.0925 199.282825 
L 91.395 199.317202 
L 90.6975 199.347761 
L 90 199.374496 
z
" style="fill:#e0ffff;"/>
   </g>
   <g id="line2d_15">
    <path clip-path="url(#pa61c36120f)" d="M 90 199.374496 
L 95.58 199.053825 
L 101.16 198.496688 
L 106.74 197.70211 
L 112.32 196.676695 
L 117.9 195.428963 
L 123.48 193.96928 
L 129.7575 192.088956 
L 136.035 189.97695 
L 143.01 187.391538 
L 150.6825 184.284775 
L 158.355 180.939896 
L 168.12 176.430609 
L 183.465 169.034143 
L 199.5075 161.368942 
L 208.575 157.282461 
L 216.2475 154.049811 
L 223.92 151.06841 
L 230.1975 148.844567 
L 235.7775 147.073955 
L 241.3575 145.5233 
L 246.9375 144.222303 
L 251.82 143.317025 
L 256.7025 142.63708 
L 261.585 142.197304 
L 266.4675 141.988584 
L 271.35 142.016448 
L 276.2325 142.258297 
L 281.8125 142.783995 
L 287.3925 143.54217 
L 293.67 144.627373 
L 300.645 146.077052 
L 309.015 148.052223 
L 331.335 153.408138 
L 341.1 155.447355 
L 348.7725 156.86101 
L 355.05 157.8346 
L 362.025 158.667479 
L 369 159.284923 
L 375.975 159.667023 
L 382.2525 159.802386 
L 390.6225 159.742711 
L 401.085 159.422548 
L 425.4975 158.522262 
L 433.8675 158.54151 
L 440.145 158.747615 
L 446.4225 159.185378 
L 452.7 159.857206 
L 459.675 160.859553 
L 466.65 162.07198 
L 474.3225 163.693189 
L 481.2975 165.359442 
L 487.575 167.079037 
L 494.55 169.274964 
L 500.13 171.231009 
L 508.5 174.422008 
L 530.82 183.107692 
L 538.4925 185.807259 
L 544.0725 187.528581 
L 548.2575 188.606342 
L 552.4425 189.482483 
L 556.6275 190.138892 
L 560.8125 190.555674 
L 564.3 190.715903 
L 568.485 190.654437 
L 571.9725 190.366958 
L 575.46 189.878484 
L 579.645 189.038008 
L 583.83 187.954644 
L 588.015 186.672698 
L 592.8975 184.952976 
L 599.175 182.468388 
L 613.125 176.789964 
L 618.705 174.814833 
L 623.5875 173.297546 
L 627.7725 172.210371 
L 631.9575 171.338896 
L 636.84 170.58319 
L 641.025 170.157524 
L 645.21 169.94314 
L 646.605 169.92 
L 646.605 169.92 
" style="fill:none;stroke:#008080;stroke-linecap:round;stroke-width:1.75;"/>
   </g>
   <g id="patch_3">
    <path d="M 90 270.72 
L 90 69.12 
" style="fill:none;stroke:#262626;stroke-linecap:square;stroke-linejoin:miter;stroke-width:1.25;"/>
   </g>
   <g id="patch_4">
    <path d="M 90 270.72 
L 648 270.72 
" style="fill:none;stroke:#262626;stroke-linecap:square;stroke-linejoin:miter;stroke-width:1.25;"/>
   </g>
  </g>
  <g id="axes_2">
   <g id="patch_5">
    <path d="M 90 512.64 
L 648 512.64 
L 648 311.04 
L 90 311.04 
z
" style="fill:#ffffff;"/>
   </g>
   <g id="matplotlib.axis_3">
    <g id="xtick_10">
     <g id="line2d_16">
      <g>
       <use style="fill:#262626;stroke:#262626;" x="191.454545" xlink:href="#m2149f54fe0" y="512.64"/>
      </g>
     </g>
     <g id="text_15">
      <!-- 200 -->
      <g style="fill:#262626;" transform="translate(183.113139 532.797812)scale(0.1 -0.1)">
       <use xlink:href="#ArialMT-32"/>
       <use x="55.615234" xlink:href="#ArialMT-30"/>
       <use x="111.230469" xlink:href="#ArialMT-30"/>
      </g>
     </g>
    </g>
    <g id="xtick_11">
     <g id="line2d_17">
      <g>
       <use style="fill:#262626;stroke:#262626;" x="304.181818" xlink:href="#m2149f54fe0" y="512.64"/>
      </g>
     </g>
     <g id="text_16">
      <!-- 400 -->
      <g style="fill:#262626;" transform="translate(295.840412 532.797812)scale(0.1 -0.1)">
       <use xlink:href="#ArialMT-34"/>
       <use x="55.615234" xlink:href="#ArialMT-30"/>
       <use x="111.230469" xlink:href="#ArialMT-30"/>
      </g>
     </g>
    </g>
    <g id="xtick_12">
     <g id="line2d_18">
      <g>
       <use style="fill:#262626;stroke:#262626;" x="416.909091" xlink:href="#m2149f54fe0" y="512.64"/>
      </g>
     </g>
     <g id="text_17">
      <!-- 600 -->
      <g style="fill:#262626;" transform="translate(408.567685 532.797812)scale(0.1 -0.1)">
       <use xlink:href="#ArialMT-36"/>
       <use x="55.615234" xlink:href="#ArialMT-30"/>
       <use x="111.230469" xlink:href="#ArialMT-30"/>
      </g>
     </g>
    </g>
    <g id="xtick_13">
     <g id="line2d_19">
      <g>
       <use style="fill:#262626;stroke:#262626;" x="529.636364" xlink:href="#m2149f54fe0" y="512.64"/>
      </g>
     </g>
     <g id="text_18">
      <!-- 800 -->
      <g style="fill:#262626;" transform="translate(521.294957 532.797812)scale(0.1 -0.1)">
       <use xlink:href="#ArialMT-38"/>
       <use x="55.615234" xlink:href="#ArialMT-30"/>
       <use x="111.230469" xlink:href="#ArialMT-30"/>
      </g>
     </g>
    </g>
    <g id="xtick_14">
     <g id="line2d_20">
      <g>
       <use style="fill:#262626;stroke:#262626;" x="642.363636" xlink:href="#m2149f54fe0" y="512.64"/>
      </g>
     </g>
     <g id="text_19">
      <!-- 1000 -->
      <g style="fill:#262626;" transform="translate(631.241761 532.797812)scale(0.1 -0.1)">
       <use xlink:href="#ArialMT-31"/>
       <use x="55.615234" xlink:href="#ArialMT-30"/>
       <use x="111.230469" xlink:href="#ArialMT-30"/>
       <use x="166.845703" xlink:href="#ArialMT-30"/>
      </g>
     </g>
    </g>
   </g>
   <g id="matplotlib.axis_4">
    <g id="ytick_6">
     <g id="line2d_21">
      <g>
       <use style="fill:#262626;stroke:#262626;" x="90" xlink:href="#m0c1df53702" y="512.64"/>
      </g>
     </g>
     <g id="text_20">
      <!-- 0 -->
      <g style="fill:#262626;" transform="translate(71.439063 516.218906)scale(0.1 -0.1)">
       <use xlink:href="#ArialMT-30"/>
      </g>
     </g>
    </g>
    <g id="ytick_7">
     <g id="line2d_22">
      <g>
       <use style="fill:#262626;stroke:#262626;" x="90" xlink:href="#m0c1df53702" y="490.24"/>
      </g>
     </g>
     <g id="text_21">
      <!-- 2 -->
      <g style="fill:#262626;" transform="translate(71.439063 493.818906)scale(0.1 -0.1)">
       <use xlink:href="#ArialMT-32"/>
      </g>
     </g>
    </g>
    <g id="ytick_8">
     <g id="line2d_23">
      <g>
       <use style="fill:#262626;stroke:#262626;" x="90" xlink:href="#m0c1df53702" y="467.84"/>
      </g>
     </g>
     <g id="text_22">
      <!-- 4 -->
      <g style="fill:#262626;" transform="translate(71.439063 471.418906)scale(0.1 -0.1)">
       <use xlink:href="#ArialMT-34"/>
      </g>
     </g>
    </g>
    <g id="ytick_9">
     <g id="line2d_24">
      <g>
       <use style="fill:#262626;stroke:#262626;" x="90" xlink:href="#m0c1df53702" y="445.44"/>
      </g>
     </g>
     <g id="text_23">
      <!-- 6 -->
      <g style="fill:#262626;" transform="translate(71.439063 449.018906)scale(0.1 -0.1)">
       <use xlink:href="#ArialMT-36"/>
      </g>
     </g>
    </g>
    <g id="ytick_10">
     <g id="line2d_25">
      <g>
       <use style="fill:#262626;stroke:#262626;" x="90" xlink:href="#m0c1df53702" y="423.04"/>
      </g>
     </g>
     <g id="text_24">
      <!-- 8 -->
      <g style="fill:#262626;" transform="translate(71.439063 426.618906)scale(0.1 -0.1)">
       <use xlink:href="#ArialMT-38"/>
      </g>
     </g>
    </g>
    <g id="ytick_11">
     <g id="line2d_26">
      <g>
       <use style="fill:#262626;stroke:#262626;" x="90" xlink:href="#m0c1df53702" y="400.64"/>
      </g>
     </g>
     <g id="text_25">
      <!-- 10 -->
      <g style="fill:#262626;" transform="translate(65.878125 404.218906)scale(0.1 -0.1)">
       <use xlink:href="#ArialMT-31"/>
       <use x="55.615234" xlink:href="#ArialMT-30"/>
      </g>
     </g>
    </g>
    <g id="ytick_12">
     <g id="line2d_27">
      <g>
       <use style="fill:#262626;stroke:#262626;" x="90" xlink:href="#m0c1df53702" y="378.24"/>
      </g>
     </g>
     <g id="text_26">
      <!-- 12 -->
      <g style="fill:#262626;" transform="translate(65.878125 381.818906)scale(0.1 -0.1)">
       <use xlink:href="#ArialMT-31"/>
       <use x="55.615234" xlink:href="#ArialMT-32"/>
      </g>
     </g>
    </g>
    <g id="ytick_13">
     <g id="line2d_28">
      <g>
       <use style="fill:#262626;stroke:#262626;" x="90" xlink:href="#m0c1df53702" y="355.84"/>
      </g>
     </g>
     <g id="text_27">
      <!-- 14 -->
      <g style="fill:#262626;" transform="translate(65.878125 359.418906)scale(0.1 -0.1)">
       <use xlink:href="#ArialMT-31"/>
       <use x="55.615234" xlink:href="#ArialMT-34"/>
      </g>
     </g>
    </g>
    <g id="ytick_14">
     <g id="line2d_29">
      <g>
       <use style="fill:#262626;stroke:#262626;" x="90" xlink:href="#m0c1df53702" y="333.44"/>
      </g>
     </g>
     <g id="text_28">
      <!-- 16 -->
      <g style="fill:#262626;" transform="translate(65.878125 337.018906)scale(0.1 -0.1)">
       <use xlink:href="#ArialMT-31"/>
       <use x="55.615234" xlink:href="#ArialMT-36"/>
      </g>
     </g>
    </g>
    <g id="ytick_15">
     <g id="line2d_30">
      <g>
       <use style="fill:#262626;stroke:#262626;" x="90" xlink:href="#m0c1df53702" y="311.04"/>
      </g>
     </g>
     <g id="text_29">
      <!-- 18 -->
      <g style="fill:#262626;" transform="translate(65.878125 314.618906)scale(0.1 -0.1)">
       <use xlink:href="#ArialMT-31"/>
       <use x="55.615234" xlink:href="#ArialMT-38"/>
      </g>
     </g>
    </g>
   </g>
   <g id="line2d_31">
    <path clip-path="url(#pcf60ade37f)" d="M 90 477.654723 
L 95.636364 452.736402 
L 101.272727 431.923589 
L 106.909091 427.92302 
L 112.545455 440.45326 
L 118.181818 444.705349 
L 123.818182 448.961059 
" style="fill:none;stroke:#b22222;stroke-linecap:round;stroke-width:1.75;"/>
   </g>
   <g id="line2d_32">
    <path clip-path="url(#pcf60ade37f)" d="M 152 512.64 
L 152 311.04 
" style="fill:none;stroke:#4c72b0;stroke-linecap:round;stroke-width:1.75;"/>
   </g>
   <g id="patch_6">
    <path d="M 90 512.64 
L 90 311.04 
" style="fill:none;stroke:#262626;stroke-linecap:square;stroke-linejoin:miter;stroke-width:1.25;"/>
   </g>
   <g id="patch_7">
    <path d="M 90 512.64 
L 648 512.64 
" style="fill:none;stroke:#262626;stroke-linecap:square;stroke-linejoin:miter;stroke-width:1.25;"/>
   </g>
   <g id="text_30">
    <!-- f = 80 Hz -->
    <defs>
     <path d="M 8.6875 0 
L 8.6875 45.015625 
L 0.921875 45.015625 
L 0.921875 51.859375 
L 8.6875 51.859375 
L 8.6875 57.375 
Q 8.6875 62.59375 9.625 65.140625 
Q 10.890625 68.5625 14.078125 70.671875 
Q 17.28125 72.796875 23.046875 72.796875 
Q 26.765625 72.796875 31.25 71.921875 
L 29.9375 64.265625 
Q 27.203125 64.75 24.75 64.75 
Q 20.75 64.75 19.09375 63.03125 
Q 17.4375 61.328125 17.4375 56.640625 
L 17.4375 51.859375 
L 27.546875 51.859375 
L 27.546875 45.015625 
L 17.4375 45.015625 
L 17.4375 0 
z
" id="ArialMT-66"/>
     <path id="ArialMT-20"/>
     <path d="M 52.828125 42.09375 
L 5.5625 42.09375 
L 5.5625 50.296875 
L 52.828125 50.296875 
z
M 52.828125 20.359375 
L 5.5625 20.359375 
L 5.5625 28.5625 
L 52.828125 28.5625 
z
" id="ArialMT-3d"/>
     <path d="M 8.015625 0 
L 8.015625 71.578125 
L 17.484375 71.578125 
L 17.484375 42.1875 
L 54.6875 42.1875 
L 54.6875 71.578125 
L 64.15625 71.578125 
L 64.15625 0 
L 54.6875 0 
L 54.6875 33.734375 
L 17.484375 33.734375 
L 17.484375 0 
z
" id="ArialMT-48"/>
     <path d="M 1.953125 0 
L 1.953125 7.125 
L 34.96875 45.015625 
Q 29.34375 44.734375 25.046875 44.734375 
L 3.90625 44.734375 
L 3.90625 51.859375 
L 46.296875 51.859375 
L 46.296875 46.046875 
L 18.21875 13.140625 
L 12.796875 7.125 
Q 18.703125 7.5625 23.875 7.5625 
L 47.859375 7.5625 
L 47.859375 0 
z
" id="ArialMT-7a"/>
    </defs>
    <g style="fill:#262626;" transform="translate(529.636364 403.742188)scale(0.12 -0.12)">
     <use xlink:href="#ArialMT-66"/>
     <use x="27.783203" xlink:href="#ArialMT-20"/>
     <use x="55.566406" xlink:href="#ArialMT-3d"/>
     <use x="113.964844" xlink:href="#ArialMT-20"/>
     <use x="141.748047" xlink:href="#ArialMT-38"/>
     <use x="197.363281" xlink:href="#ArialMT-30"/>
     <use x="252.978516" xlink:href="#ArialMT-20"/>
     <use x="280.761719" xlink:href="#ArialMT-48"/>
     <use x="352.978516" xlink:href="#ArialMT-7a"/>
    </g>
   </g>
   <g id="PathCollection_1">
    <defs>
     <path d="M 0 3.5 
C 0.928211 3.5 1.81853 3.131218 2.474874 2.474874 
C 3.131218 1.81853 3.5 0.928211 3.5 0 
C 3.5 -0.928211 3.131218 -1.81853 2.474874 -2.474874 
C 1.81853 -3.131218 0.928211 -3.5 0 -3.5 
C -0.928211 -3.5 -1.81853 -3.131218 -2.474874 -2.474874 
C -3.131218 -1.81853 -3.5 -0.928211 -3.5 0 
C -3.5 0.928211 -3.131218 1.81853 -2.474874 2.474874 
C -1.81853 3.131218 -0.928211 3.5 0 3.5 
z
" id="m2c0986499e" style="stroke:#800000;stroke-width:0.3;"/>
    </defs>
    <g clip-path="url(#pcf60ade37f)">
     <use style="fill:#800000;stroke:#800000;stroke-width:0.3;" x="123.818182" xlink:href="#m2c0986499e" y="448.961059"/>
    </g>
   </g>
  </g>
 </g>
 <defs>
  <clipPath id="pa61c36120f">
   <rect height="201.6" width="558" x="90" y="69.12"/>
  </clipPath>
  <clipPath id="pcf60ade37f">
   <rect height="201.6" width="558" x="90" y="311.04"/>
  </clipPath>
 </defs>
</svg>
