<?xml version="1.0" encoding="utf-8" standalone="no"?>
<!DOCTYPE svg PUBLIC "-//W3C//DTD SVG 1.1//EN"
  "http://www.w3.org/Graphics/SVG/1.1/DTD/svg11.dtd">
<!-- Created with matplotlib (http://matplotlib.org/) -->
<svg height="576pt" version="1.1" viewBox="0 0 720 576" width="720pt" xmlns="http://www.w3.org/2000/svg" xmlns:xlink="http://www.w3.org/1999/xlink">
 <defs>
  <style type="text/css">
*{stroke-linecap:butt;stroke-linejoin:round;}
  </style>
 </defs>
 <g id="figure_1">
  <g id="patch_1">
   <path d="M 0 576 
L 720 576 
L 720 0 
L 0 0 
z
" style="fill:#ffffff;"/>
  </g>
  <g id="axes_1">
   <g id="patch_2">
    <path d="M 90 270.72 
L 648 270.72 
L 648 69.12 
L 90 69.12 
z
" style="fill:#ffffff;"/>
   </g>
   <g id="matplotlib.axis_1">
    <g id="xtick_1">
     <g id="line2d_1">
      <defs>
       <path d="M 0 0 
L 0 6 
" id="md7b5d24bfc" style="stroke:#262626;"/>
      </defs>
      <g>
       <use style="fill:#262626;stroke:#262626;" x="90" xlink:href="#md7b5d24bfc" y="270.72"/>
      </g>
     </g>
     <g id="text_1">
      <!-- 0 -->
      <defs>
       <path d="M 4.15625 35.296875 
Q 4.15625 48 6.765625 55.734375 
Q 9.375 63.484375 14.515625 67.671875 
Q 19.671875 71.875 27.484375 71.875 
Q 33.25 71.875 37.59375 69.546875 
Q 41.9375 67.234375 44.765625 62.859375 
Q 47.609375 58.5 49.21875 52.21875 
Q 50.828125 45.953125 50.828125 35.296875 
Q 50.828125 22.703125 48.234375 14.96875 
Q 45.65625 7.234375 40.5 3 
Q 35.359375 -1.21875 27.484375 -1.21875 
Q 17.140625 -1.21875 11.234375 6.203125 
Q 4.15625 15.140625 4.15625 35.296875 
z
M 13.1875 35.296875 
Q 13.1875 17.671875 17.3125 11.828125 
Q 21.4375 6 27.484375 6 
Q 33.546875 6 37.671875 11.859375 
Q 41.796875 17.71875 41.796875 35.296875 
Q 41.796875 52.984375 37.671875 58.78125 
Q 33.546875 64.59375 27.390625 64.59375 
Q 21.34375 64.59375 17.71875 59.46875 
Q 13.1875 52.9375 13.1875 35.296875 
z
" id="ArialMT-30"/>
      </defs>
      <g style="fill:#262626;" transform="translate(87.219531 290.877812)scale(0.1 -0.1)">
       <use xlink:href="#ArialMT-30"/>
      </g>
     </g>
    </g>
    <g id="xtick_2">
     <g id="line2d_2">
      <g>
       <use style="fill:#262626;stroke:#262626;" x="159.75" xlink:href="#md7b5d24bfc" y="270.72"/>
      </g>
     </g>
     <g id="text_2">
      <!-- 100 -->
      <defs>
       <path d="M 37.25 0 
L 28.46875 0 
L 28.46875 56 
Q 25.296875 52.984375 20.140625 49.953125 
Q 14.984375 46.921875 10.890625 45.40625 
L 10.890625 53.90625 
Q 18.265625 57.375 23.78125 62.296875 
Q 29.296875 67.234375 31.59375 71.875 
L 37.25 71.875 
z
" id="ArialMT-31"/>
      </defs>
      <g style="fill:#262626;" transform="translate(151.408594 290.877812)scale(0.1 -0.1)">
       <use xlink:href="#ArialMT-31"/>
       <use x="55.615234" xlink:href="#ArialMT-30"/>
       <use x="111.230469" xlink:href="#ArialMT-30"/>
      </g>
     </g>
    </g>
    <g id="xtick_3">
     <g id="line2d_3">
      <g>
       <use style="fill:#262626;stroke:#262626;" x="229.5" xlink:href="#md7b5d24bfc" y="270.72"/>
      </g>
     </g>
     <g id="text_3">
      <!-- 200 -->
      <defs>
       <path d="M 50.34375 8.453125 
L 50.34375 0 
L 3.03125 0 
Q 2.9375 3.171875 4.046875 6.109375 
Q 5.859375 10.9375 9.828125 15.625 
Q 13.8125 20.3125 21.34375 26.46875 
Q 33.015625 36.03125 37.109375 41.625 
Q 41.21875 47.21875 41.21875 52.203125 
Q 41.21875 57.421875 37.46875 61 
Q 33.734375 64.59375 27.734375 64.59375 
Q 21.390625 64.59375 17.578125 60.78125 
Q 13.765625 56.984375 13.71875 50.25 
L 4.6875 51.171875 
Q 5.609375 61.28125 11.65625 66.578125 
Q 17.71875 71.875 27.9375 71.875 
Q 38.234375 71.875 44.234375 66.15625 
Q 50.25 60.453125 50.25 52 
Q 50.25 47.703125 48.484375 43.546875 
Q 46.734375 39.40625 42.65625 34.8125 
Q 38.578125 30.21875 29.109375 22.21875 
Q 21.1875 15.578125 18.9375 13.203125 
Q 16.703125 10.84375 15.234375 8.453125 
z
" id="ArialMT-32"/>
      </defs>
      <g style="fill:#262626;" transform="translate(221.158594 290.877812)scale(0.1 -0.1)">
       <use xlink:href="#ArialMT-32"/>
       <use x="55.615234" xlink:href="#ArialMT-30"/>
       <use x="111.230469" xlink:href="#ArialMT-30"/>
      </g>
     </g>
    </g>
    <g id="xtick_4">
     <g id="line2d_4">
      <g>
       <use style="fill:#262626;stroke:#262626;" x="299.25" xlink:href="#md7b5d24bfc" y="270.72"/>
      </g>
     </g>
     <g id="text_4">
      <!-- 300 -->
      <defs>
       <path d="M 4.203125 18.890625 
L 12.984375 20.0625 
Q 14.5 12.59375 18.140625 9.296875 
Q 21.78125 6 27 6 
Q 33.203125 6 37.46875 10.296875 
Q 41.75 14.59375 41.75 20.953125 
Q 41.75 27 37.796875 30.921875 
Q 33.84375 34.859375 27.734375 34.859375 
Q 25.25 34.859375 21.53125 33.890625 
L 22.515625 41.609375 
Q 23.390625 41.5 23.921875 41.5 
Q 29.546875 41.5 34.03125 44.421875 
Q 38.53125 47.359375 38.53125 53.46875 
Q 38.53125 58.296875 35.25 61.46875 
Q 31.984375 64.65625 26.8125 64.65625 
Q 21.6875 64.65625 18.265625 61.421875 
Q 14.84375 58.203125 13.875 51.765625 
L 5.078125 53.328125 
Q 6.6875 62.15625 12.390625 67.015625 
Q 18.109375 71.875 26.609375 71.875 
Q 32.46875 71.875 37.390625 69.359375 
Q 42.328125 66.84375 44.9375 62.5 
Q 47.5625 58.15625 47.5625 53.265625 
Q 47.5625 48.640625 45.0625 44.828125 
Q 42.578125 41.015625 37.703125 38.765625 
Q 44.046875 37.3125 47.5625 32.6875 
Q 51.078125 28.078125 51.078125 21.140625 
Q 51.078125 11.765625 44.234375 5.25 
Q 37.40625 -1.265625 26.953125 -1.265625 
Q 17.53125 -1.265625 11.296875 4.34375 
Q 5.078125 9.96875 4.203125 18.890625 
z
" id="ArialMT-33"/>
      </defs>
      <g style="fill:#262626;" transform="translate(290.908594 290.877812)scale(0.1 -0.1)">
       <use xlink:href="#ArialMT-33"/>
       <use x="55.615234" xlink:href="#ArialMT-30"/>
       <use x="111.230469" xlink:href="#ArialMT-30"/>
      </g>
     </g>
    </g>
    <g id="xtick_5">
     <g id="line2d_5">
      <g>
       <use style="fill:#262626;stroke:#262626;" x="369" xlink:href="#md7b5d24bfc" y="270.72"/>
      </g>
     </g>
     <g id="text_5">
      <!-- 400 -->
      <defs>
       <path d="M 32.328125 0 
L 32.328125 17.140625 
L 1.265625 17.140625 
L 1.265625 25.203125 
L 33.9375 71.578125 
L 41.109375 71.578125 
L 41.109375 25.203125 
L 50.78125 25.203125 
L 50.78125 17.140625 
L 41.109375 17.140625 
L 41.109375 0 
z
M 32.328125 25.203125 
L 32.328125 57.46875 
L 9.90625 25.203125 
z
" id="ArialMT-34"/>
      </defs>
      <g style="fill:#262626;" transform="translate(360.658594 290.877812)scale(0.1 -0.1)">
       <use xlink:href="#ArialMT-34"/>
       <use x="55.615234" xlink:href="#ArialMT-30"/>
       <use x="111.230469" xlink:href="#ArialMT-30"/>
      </g>
     </g>
    </g>
    <g id="xtick_6">
     <g id="line2d_6">
      <g>
       <use style="fill:#262626;stroke:#262626;" x="438.75" xlink:href="#md7b5d24bfc" y="270.72"/>
      </g>
     </g>
     <g id="text_6">
      <!-- 500 -->
      <defs>
       <path d="M 4.15625 18.75 
L 13.375 19.53125 
Q 14.40625 12.796875 18.140625 9.390625 
Q 21.875 6 27.15625 6 
Q 33.5 6 37.890625 10.78125 
Q 42.28125 15.578125 42.28125 23.484375 
Q 42.28125 31 38.0625 35.34375 
Q 33.84375 39.703125 27 39.703125 
Q 22.75 39.703125 19.328125 37.765625 
Q 15.921875 35.84375 13.96875 32.765625 
L 5.71875 33.84375 
L 12.640625 70.609375 
L 48.25 70.609375 
L 48.25 62.203125 
L 19.671875 62.203125 
L 15.828125 42.96875 
Q 22.265625 47.46875 29.34375 47.46875 
Q 38.71875 47.46875 45.15625 40.96875 
Q 51.609375 34.46875 51.609375 24.265625 
Q 51.609375 14.546875 45.953125 7.46875 
Q 39.0625 -1.21875 27.15625 -1.21875 
Q 17.390625 -1.21875 11.203125 4.25 
Q 5.03125 9.71875 4.15625 18.75 
z
" id="ArialMT-35"/>
      </defs>
      <g style="fill:#262626;" transform="translate(430.408594 290.877812)scale(0.1 -0.1)">
       <use xlink:href="#ArialMT-35"/>
       <use x="55.615234" xlink:href="#ArialMT-30"/>
       <use x="111.230469" xlink:href="#ArialMT-30"/>
      </g>
     </g>
    </g>
    <g id="xtick_7">
     <g id="line2d_7">
      <g>
       <use style="fill:#262626;stroke:#262626;" x="508.5" xlink:href="#md7b5d24bfc" y="270.72"/>
      </g>
     </g>
     <g id="text_7">
      <!-- 600 -->
      <defs>
       <path d="M 49.75 54.046875 
L 41.015625 53.375 
Q 39.84375 58.546875 37.703125 60.890625 
Q 34.125 64.65625 28.90625 64.65625 
Q 24.703125 64.65625 21.53125 62.3125 
Q 17.390625 59.28125 14.984375 53.46875 
Q 12.59375 47.65625 12.5 36.921875 
Q 15.671875 41.75 20.265625 44.09375 
Q 24.859375 46.4375 29.890625 46.4375 
Q 38.671875 46.4375 44.84375 39.96875 
Q 51.03125 33.5 51.03125 23.25 
Q 51.03125 16.5 48.125 10.71875 
Q 45.21875 4.9375 40.140625 1.859375 
Q 35.0625 -1.21875 28.609375 -1.21875 
Q 17.625 -1.21875 10.6875 6.859375 
Q 3.765625 14.9375 3.765625 33.5 
Q 3.765625 54.25 11.421875 63.671875 
Q 18.109375 71.875 29.4375 71.875 
Q 37.890625 71.875 43.28125 67.140625 
Q 48.6875 62.40625 49.75 54.046875 
z
M 13.875 23.1875 
Q 13.875 18.65625 15.796875 14.5 
Q 17.71875 10.359375 21.1875 8.171875 
Q 24.65625 6 28.46875 6 
Q 34.03125 6 38.03125 10.484375 
Q 42.046875 14.984375 42.046875 22.703125 
Q 42.046875 30.125 38.078125 34.390625 
Q 34.125 38.671875 28.125 38.671875 
Q 22.171875 38.671875 18.015625 34.390625 
Q 13.875 30.125 13.875 23.1875 
z
" id="ArialMT-36"/>
      </defs>
      <g style="fill:#262626;" transform="translate(500.158594 290.877812)scale(0.1 -0.1)">
       <use xlink:href="#ArialMT-36"/>
       <use x="55.615234" xlink:href="#ArialMT-30"/>
       <use x="111.230469" xlink:href="#ArialMT-30"/>
      </g>
     </g>
    </g>
    <g id="xtick_8">
     <g id="line2d_8">
      <g>
       <use style="fill:#262626;stroke:#262626;" x="578.25" xlink:href="#md7b5d24bfc" y="270.72"/>
      </g>
     </g>
     <g id="text_8">
      <!-- 700 -->
      <defs>
       <path d="M 4.734375 62.203125 
L 4.734375 70.65625 
L 51.078125 70.65625 
L 51.078125 63.8125 
Q 44.234375 56.546875 37.515625 44.484375 
Q 30.8125 32.421875 27.15625 19.671875 
Q 24.515625 10.6875 23.78125 0 
L 14.75 0 
Q 14.890625 8.453125 18.0625 20.40625 
Q 21.234375 32.375 27.171875 43.484375 
Q 33.109375 54.59375 39.796875 62.203125 
z
" id="ArialMT-37"/>
      </defs>
      <g style="fill:#262626;" transform="translate(569.908594 290.877812)scale(0.1 -0.1)">
       <use xlink:href="#ArialMT-37"/>
       <use x="55.615234" xlink:href="#ArialMT-30"/>
       <use x="111.230469" xlink:href="#ArialMT-30"/>
      </g>
     </g>
    </g>
    <g id="xtick_9">
     <g id="line2d_9">
      <g>
       <use style="fill:#262626;stroke:#262626;" x="648" xlink:href="#md7b5d24bfc" y="270.72"/>
      </g>
     </g>
     <g id="text_9">
      <!-- 800 -->
      <defs>
       <path d="M 17.671875 38.8125 
Q 12.203125 40.828125 9.5625 44.53125 
Q 6.9375 48.25 6.9375 53.421875 
Q 6.9375 61.234375 12.546875 66.546875 
Q 18.171875 71.875 27.484375 71.875 
Q 36.859375 71.875 42.578125 66.421875 
Q 48.296875 60.984375 48.296875 53.171875 
Q 48.296875 48.1875 45.671875 44.5 
Q 43.0625 40.828125 37.75 38.8125 
Q 44.34375 36.671875 47.78125 31.875 
Q 51.21875 27.09375 51.21875 20.453125 
Q 51.21875 11.28125 44.71875 5.03125 
Q 38.234375 -1.21875 27.640625 -1.21875 
Q 17.046875 -1.21875 10.546875 5.046875 
Q 4.046875 11.328125 4.046875 20.703125 
Q 4.046875 27.6875 7.59375 32.390625 
Q 11.140625 37.109375 17.671875 38.8125 
z
M 15.921875 53.71875 
Q 15.921875 48.640625 19.1875 45.40625 
Q 22.46875 42.1875 27.6875 42.1875 
Q 32.765625 42.1875 36.015625 45.375 
Q 39.265625 48.578125 39.265625 53.21875 
Q 39.265625 58.0625 35.90625 61.359375 
Q 32.5625 64.65625 27.59375 64.65625 
Q 22.5625 64.65625 19.234375 61.421875 
Q 15.921875 58.203125 15.921875 53.71875 
z
M 13.09375 20.65625 
Q 13.09375 16.890625 14.875 13.375 
Q 16.65625 9.859375 20.171875 7.921875 
Q 23.6875 6 27.734375 6 
Q 34.03125 6 38.125 10.046875 
Q 42.234375 14.109375 42.234375 20.359375 
Q 42.234375 26.703125 38.015625 30.859375 
Q 33.796875 35.015625 27.4375 35.015625 
Q 21.234375 35.015625 17.15625 30.90625 
Q 13.09375 26.8125 13.09375 20.65625 
z
" id="ArialMT-38"/>
      </defs>
      <g style="fill:#262626;" transform="translate(639.658594 290.877812)scale(0.1 -0.1)">
       <use xlink:href="#ArialMT-38"/>
       <use x="55.615234" xlink:href="#ArialMT-30"/>
       <use x="111.230469" xlink:href="#ArialMT-30"/>
      </g>
     </g>
    </g>
   </g>
   <g id="matplotlib.axis_2">
    <g id="ytick_1">
     <g id="line2d_10">
      <defs>
       <path d="M 0 0 
L -6 0 
" id="macf064109b" style="stroke:#262626;"/>
      </defs>
      <g>
       <use style="fill:#262626;stroke:#262626;" x="90" xlink:href="#macf064109b" y="250.56"/>
      </g>
     </g>
     <g id="text_10">
      <!-- −0.04 -->
      <defs>
       <path d="M 52.828125 31.203125 
L 5.5625 31.203125 
L 5.5625 39.40625 
L 52.828125 39.40625 
z
" id="ArialMT-2212"/>
       <path d="M 9.078125 0 
L 9.078125 10.015625 
L 19.09375 10.015625 
L 19.09375 0 
z
" id="ArialMT-2e"/>
      </defs>
      <g style="fill:#262626;" transform="translate(51.698437 254.138906)scale(0.1 -0.1)">
       <use xlink:href="#ArialMT-2212"/>
       <use x="58.398438" xlink:href="#ArialMT-30"/>
       <use x="114.013672" xlink:href="#ArialMT-2e"/>
       <use x="141.796875" xlink:href="#ArialMT-30"/>
       <use x="197.412109" xlink:href="#ArialMT-34"/>
      </g>
     </g>
    </g>
    <g id="ytick_2">
     <g id="line2d_11">
      <g>
       <use style="fill:#262626;stroke:#262626;" x="90" xlink:href="#macf064109b" y="210.24"/>
      </g>
     </g>
     <g id="text_11">
      <!-- −0.02 -->
      <g style="fill:#262626;" transform="translate(51.698437 213.818906)scale(0.1 -0.1)">
       <use xlink:href="#ArialMT-2212"/>
       <use x="58.398438" xlink:href="#ArialMT-30"/>
       <use x="114.013672" xlink:href="#ArialMT-2e"/>
       <use x="141.796875" xlink:href="#ArialMT-30"/>
       <use x="197.412109" xlink:href="#ArialMT-32"/>
      </g>
     </g>
    </g>
    <g id="ytick_3">
     <g id="line2d_12">
      <g>
       <use style="fill:#262626;stroke:#262626;" x="90" xlink:href="#macf064109b" y="169.92"/>
      </g>
     </g>
     <g id="text_12">
      <!-- 0.00 -->
      <g style="fill:#262626;" transform="translate(57.539062 173.498906)scale(0.1 -0.1)">
       <use xlink:href="#ArialMT-30"/>
       <use x="55.615234" xlink:href="#ArialMT-2e"/>
       <use x="83.398438" xlink:href="#ArialMT-30"/>
       <use x="139.013672" xlink:href="#ArialMT-30"/>
      </g>
     </g>
    </g>
    <g id="ytick_4">
     <g id="line2d_13">
      <g>
       <use style="fill:#262626;stroke:#262626;" x="90" xlink:href="#macf064109b" y="129.6"/>
      </g>
     </g>
     <g id="text_13">
      <!-- 0.02 -->
      <g style="fill:#262626;" transform="translate(57.539062 133.178906)scale(0.1 -0.1)">
       <use xlink:href="#ArialMT-30"/>
       <use x="55.615234" xlink:href="#ArialMT-2e"/>
       <use x="83.398438" xlink:href="#ArialMT-30"/>
       <use x="139.013672" xlink:href="#ArialMT-32"/>
      </g>
     </g>
    </g>
    <g id="ytick_5">
     <g id="line2d_14">
      <g>
       <use style="fill:#262626;stroke:#262626;" x="90" xlink:href="#macf064109b" y="89.28"/>
      </g>
     </g>
     <g id="text_14">
      <!-- 0.04 -->
      <g style="fill:#262626;" transform="translate(57.539062 92.858906)scale(0.1 -0.1)">
       <use xlink:href="#ArialMT-30"/>
       <use x="55.615234" xlink:href="#ArialMT-2e"/>
       <use x="83.398438" xlink:href="#ArialMT-30"/>
       <use x="139.013672" xlink:href="#ArialMT-34"/>
      </g>
     </g>
    </g>
   </g>
   <g id="PolyCollection_1">
    <path clip-path="url(#p5eb7c91e6d)" d="M 90 200.473068 
L 90 169.92 
L 90.6975 169.92 
L 91.395 169.92 
L 92.0925 169.92 
L 92.79 169.92 
L 93.4875 169.92 
L 94.185 169.92 
L 94.8825 169.92 
L 95.58 169.92 
L 96.2775 169.92 
L 96.975 169.92 
L 97.6725 169.92 
L 98.37 169.92 
L 99.0675 169.92 
L 99.765 169.92 
L 100.4625 169.92 
L 101.16 169.92 
L 101.8575 169.92 
L 102.555 169.92 
L 103.2525 169.92 
L 103.95 169.92 
L 104.6475 169.92 
L 105.345 169.92 
L 106.0425 169.92 
L 106.74 169.92 
L 107.4375 169.92 
L 108.135 169.92 
L 108.8325 169.92 
L 109.53 169.92 
L 110.2275 169.92 
L 110.925 169.92 
L 111.6225 169.92 
L 112.32 169.92 
L 113.0175 169.92 
L 113.715 169.92 
L 114.4125 169.92 
L 115.11 169.92 
L 115.8075 169.92 
L 116.505 169.92 
L 117.2025 169.92 
L 117.9 169.92 
L 118.5975 169.92 
L 119.295 169.92 
L 119.9925 169.92 
L 120.69 169.92 
L 121.3875 169.92 
L 122.085 169.92 
L 122.7825 169.92 
L 123.48 169.92 
L 124.1775 169.92 
L 124.875 169.92 
L 125.5725 169.92 
L 126.27 169.92 
L 126.9675 169.92 
L 127.665 169.92 
L 128.3625 169.92 
L 129.06 169.92 
L 129.7575 169.92 
L 130.455 169.92 
L 131.1525 169.92 
L 131.85 169.92 
L 132.5475 169.92 
L 133.245 169.92 
L 133.9425 169.92 
L 134.64 169.92 
L 135.3375 169.92 
L 136.035 169.92 
L 136.7325 169.92 
L 137.43 169.92 
L 138.1275 169.92 
L 138.825 169.92 
L 139.5225 169.92 
L 140.22 169.92 
L 140.9175 169.92 
L 141.615 169.92 
L 142.3125 169.92 
L 143.01 169.92 
L 143.7075 169.92 
L 144.405 169.92 
L 145.1025 169.92 
L 145.8 169.92 
L 146.4975 169.92 
L 147.195 169.92 
L 147.8925 169.92 
L 148.59 169.92 
L 149.2875 169.92 
L 149.985 169.92 
L 150.6825 169.92 
L 151.38 169.92 
L 152.0775 169.92 
L 152.775 169.92 
L 153.4725 169.92 
L 154.17 169.92 
L 154.8675 169.92 
L 155.565 169.92 
L 156.2625 169.92 
L 156.96 169.92 
L 157.6575 169.92 
L 158.355 169.92 
L 159.0525 169.92 
L 159.75 169.92 
L 160.4475 169.92 
L 161.145 169.92 
L 161.8425 169.92 
L 162.54 169.92 
L 163.2375 169.92 
L 163.935 169.92 
L 164.6325 169.92 
L 165.33 169.92 
L 166.0275 169.92 
L 166.725 169.92 
L 167.4225 169.92 
L 168.12 169.92 
L 168.8175 169.92 
L 169.515 169.92 
L 170.2125 169.92 
L 170.91 169.92 
L 171.6075 169.92 
L 172.305 169.92 
L 173.0025 169.92 
L 173.7 169.92 
L 174.3975 169.92 
L 175.095 169.92 
L 175.7925 169.92 
L 176.49 169.92 
L 177.1875 169.92 
L 177.885 169.92 
L 178.5825 169.92 
L 179.28 169.92 
L 179.9775 169.92 
L 180.675 169.92 
L 181.3725 169.92 
L 182.07 169.92 
L 182.7675 169.92 
L 183.465 169.92 
L 184.1625 169.92 
L 184.86 169.92 
L 185.5575 169.92 
L 186.255 169.92 
L 186.9525 169.92 
L 187.65 169.92 
L 188.3475 169.92 
L 189.045 169.92 
L 189.7425 169.92 
L 190.44 169.92 
L 191.1375 169.92 
L 191.835 169.92 
L 192.5325 169.92 
L 193.23 169.92 
L 193.9275 169.92 
L 194.625 169.92 
L 195.3225 169.92 
L 196.02 169.92 
L 196.7175 169.92 
L 197.415 169.92 
L 198.1125 169.92 
L 198.81 169.92 
L 199.5075 169.92 
L 200.205 169.92 
L 200.9025 169.92 
L 201.6 169.92 
L 202.2975 169.92 
L 202.995 169.92 
L 203.6925 169.92 
L 204.39 169.92 
L 205.0875 169.92 
L 205.785 169.92 
L 206.4825 169.92 
L 207.18 169.92 
L 207.8775 169.92 
L 208.575 169.92 
L 209.2725 169.92 
L 209.97 169.92 
L 210.6675 169.92 
L 211.365 169.92 
L 212.0625 169.92 
L 212.76 169.92 
L 213.4575 169.92 
L 214.155 169.92 
L 214.8525 169.92 
L 215.55 169.92 
L 216.2475 169.92 
L 216.945 169.92 
L 217.6425 169.92 
L 218.34 169.92 
L 219.0375 169.92 
L 219.735 169.92 
L 220.4325 169.92 
L 221.13 169.92 
L 221.8275 169.92 
L 222.525 169.92 
L 223.2225 169.92 
L 223.92 169.92 
L 224.6175 169.92 
L 225.315 169.92 
L 226.0125 169.92 
L 226.71 169.92 
L 227.4075 169.92 
L 228.105 169.92 
L 228.8025 169.92 
L 229.5 169.92 
L 230.1975 169.92 
L 230.895 169.92 
L 231.5925 169.92 
L 232.29 169.92 
L 232.9875 169.92 
L 233.685 169.92 
L 234.3825 169.92 
L 235.08 169.92 
L 235.7775 169.92 
L 236.475 169.92 
L 237.1725 169.92 
L 237.87 169.92 
L 238.5675 169.92 
L 239.265 169.92 
L 239.9625 169.92 
L 240.66 169.92 
L 241.3575 169.92 
L 242.055 169.92 
L 242.7525 169.92 
L 243.45 169.92 
L 244.1475 169.92 
L 244.845 169.92 
L 245.5425 169.92 
L 246.24 169.92 
L 246.9375 169.92 
L 247.635 169.92 
L 248.3325 169.92 
L 249.03 169.92 
L 249.7275 169.92 
L 250.425 169.92 
L 251.1225 169.92 
L 251.82 169.92 
L 252.5175 169.92 
L 253.215 169.92 
L 253.9125 169.92 
L 254.61 169.92 
L 255.3075 169.92 
L 256.005 169.92 
L 256.7025 169.92 
L 257.4 169.92 
L 258.0975 169.92 
L 258.795 169.92 
L 259.4925 169.92 
L 260.19 169.92 
L 260.8875 169.92 
L 261.585 169.92 
L 262.2825 169.92 
L 262.98 169.92 
L 263.6775 169.92 
L 264.375 169.92 
L 265.0725 169.92 
L 265.77 169.92 
L 266.4675 169.92 
L 267.165 169.92 
L 267.8625 169.92 
L 268.56 169.92 
L 269.2575 169.92 
L 269.955 169.92 
L 270.6525 169.92 
L 271.35 169.92 
L 272.0475 169.92 
L 272.745 169.92 
L 273.4425 169.92 
L 274.14 169.92 
L 274.8375 169.92 
L 275.535 169.92 
L 276.2325 169.92 
L 276.93 169.92 
L 277.6275 169.92 
L 278.325 169.92 
L 279.0225 169.92 
L 279.72 169.92 
L 280.4175 169.92 
L 281.115 169.92 
L 281.8125 169.92 
L 282.51 169.92 
L 283.2075 169.92 
L 283.905 169.92 
L 284.6025 169.92 
L 285.3 169.92 
L 285.9975 169.92 
L 286.695 169.92 
L 287.3925 169.92 
L 288.09 169.92 
L 288.7875 169.92 
L 289.485 169.92 
L 290.1825 169.92 
L 290.88 169.92 
L 291.5775 169.92 
L 292.275 169.92 
L 292.9725 169.92 
L 293.67 169.92 
L 294.3675 169.92 
L 295.065 169.92 
L 295.7625 169.92 
L 296.46 169.92 
L 297.1575 169.92 
L 297.855 169.92 
L 298.5525 169.92 
L 299.25 169.92 
L 299.9475 169.92 
L 300.645 169.92 
L 301.3425 169.92 
L 302.04 169.92 
L 302.7375 169.92 
L 303.435 169.92 
L 304.1325 169.92 
L 304.83 169.92 
L 305.5275 169.92 
L 306.225 169.92 
L 306.9225 169.92 
L 307.62 169.92 
L 308.3175 169.92 
L 309.015 169.92 
L 309.7125 169.92 
L 310.41 169.92 
L 311.1075 169.92 
L 311.805 169.92 
L 312.5025 169.92 
L 313.2 169.92 
L 313.8975 169.92 
L 314.595 169.92 
L 315.2925 169.92 
L 315.99 169.92 
L 316.6875 169.92 
L 317.385 169.92 
L 318.0825 169.92 
L 318.78 169.92 
L 319.4775 169.92 
L 320.175 169.92 
L 320.8725 169.92 
L 321.57 169.92 
L 322.2675 169.92 
L 322.965 169.92 
L 323.6625 169.92 
L 324.36 169.92 
L 325.0575 169.92 
L 325.755 169.92 
L 326.4525 169.92 
L 327.15 169.92 
L 327.8475 169.92 
L 328.545 169.92 
L 329.2425 169.92 
L 329.94 169.92 
L 330.6375 169.92 
L 331.335 169.92 
L 332.0325 169.92 
L 332.73 169.92 
L 333.4275 169.92 
L 334.125 169.92 
L 334.8225 169.92 
L 335.52 169.92 
L 336.2175 169.92 
L 336.915 169.92 
L 337.6125 169.92 
L 338.31 169.92 
L 339.0075 169.92 
L 339.705 169.92 
L 340.4025 169.92 
L 341.1 169.92 
L 341.7975 169.92 
L 342.495 169.92 
L 343.1925 169.92 
L 343.89 169.92 
L 344.5875 169.92 
L 345.285 169.92 
L 345.9825 169.92 
L 346.68 169.92 
L 347.3775 169.92 
L 348.075 169.92 
L 348.7725 169.92 
L 349.47 169.92 
L 350.1675 169.92 
L 350.865 169.92 
L 351.5625 169.92 
L 352.26 169.92 
L 352.9575 169.92 
L 353.655 169.92 
L 354.3525 169.92 
L 355.05 169.92 
L 355.7475 169.92 
L 356.445 169.92 
L 357.1425 169.92 
L 357.84 169.92 
L 358.5375 169.92 
L 359.235 169.92 
L 359.9325 169.92 
L 360.63 169.92 
L 361.3275 169.92 
L 362.025 169.92 
L 362.7225 169.92 
L 363.42 169.92 
L 364.1175 169.92 
L 364.815 169.92 
L 365.5125 169.92 
L 366.21 169.92 
L 366.9075 169.92 
L 367.605 169.92 
L 368.3025 169.92 
L 369 169.92 
L 369.6975 169.92 
L 370.395 169.92 
L 371.0925 169.92 
L 371.79 169.92 
L 372.4875 169.92 
L 373.185 169.92 
L 373.8825 169.92 
L 374.58 169.92 
L 375.2775 169.92 
L 375.975 169.92 
L 376.6725 169.92 
L 377.37 169.92 
L 378.0675 169.92 
L 378.765 169.92 
L 379.4625 169.92 
L 380.16 169.92 
L 380.8575 169.92 
L 381.555 169.92 
L 382.2525 169.92 
L 382.95 169.92 
L 383.6475 169.92 
L 384.345 169.92 
L 385.0425 169.92 
L 385.74 169.92 
L 386.4375 169.92 
L 387.135 169.92 
L 387.8325 169.92 
L 388.53 169.92 
L 389.2275 169.92 
L 389.925 169.92 
L 390.6225 169.92 
L 391.32 169.92 
L 392.0175 169.92 
L 392.715 169.92 
L 393.4125 169.92 
L 394.11 169.92 
L 394.8075 169.92 
L 395.505 169.92 
L 396.2025 169.92 
L 396.9 169.92 
L 397.5975 169.92 
L 398.295 169.92 
L 398.9925 169.92 
L 399.69 169.92 
L 400.3875 169.92 
L 401.085 169.92 
L 401.7825 169.92 
L 402.48 169.92 
L 403.1775 169.92 
L 403.875 169.92 
L 404.5725 169.92 
L 405.27 169.92 
L 405.9675 169.92 
L 406.665 169.92 
L 407.3625 169.92 
L 408.06 169.92 
L 408.7575 169.92 
L 409.455 169.92 
L 410.1525 169.92 
L 410.85 169.92 
L 411.5475 169.92 
L 412.245 169.92 
L 412.9425 169.92 
L 413.64 169.92 
L 414.3375 169.92 
L 415.035 169.92 
L 415.7325 169.92 
L 416.43 169.92 
L 417.1275 169.92 
L 417.825 169.92 
L 418.5225 169.92 
L 419.22 169.92 
L 419.9175 169.92 
L 420.615 169.92 
L 421.3125 169.92 
L 422.01 169.92 
L 422.7075 169.92 
L 423.405 169.92 
L 424.1025 169.92 
L 424.8 169.92 
L 425.4975 169.92 
L 426.195 169.92 
L 426.8925 169.92 
L 427.59 169.92 
L 428.2875 169.92 
L 428.985 169.92 
L 429.6825 169.92 
L 430.38 169.92 
L 431.0775 169.92 
L 431.775 169.92 
L 432.4725 169.92 
L 433.17 169.92 
L 433.8675 169.92 
L 434.565 169.92 
L 435.2625 169.92 
L 435.96 169.92 
L 436.6575 169.92 
L 437.355 169.92 
L 438.0525 169.92 
L 438.75 169.92 
L 439.4475 169.92 
L 440.145 169.92 
L 440.8425 169.92 
L 441.54 169.92 
L 442.2375 169.92 
L 442.935 169.92 
L 443.6325 169.92 
L 444.33 169.92 
L 445.0275 169.92 
L 445.725 169.92 
L 446.4225 169.92 
L 447.12 169.92 
L 447.8175 169.92 
L 448.515 169.92 
L 449.2125 169.92 
L 449.91 169.92 
L 450.6075 169.92 
L 451.305 169.92 
L 452.0025 169.92 
L 452.7 169.92 
L 453.3975 169.92 
L 454.095 169.92 
L 454.7925 169.92 
L 455.49 169.92 
L 456.1875 169.92 
L 456.885 169.92 
L 457.5825 169.92 
L 458.28 169.92 
L 458.9775 169.92 
L 459.675 169.92 
L 460.3725 169.92 
L 461.07 169.92 
L 461.7675 169.92 
L 462.465 169.92 
L 463.1625 169.92 
L 463.86 169.92 
L 464.5575 169.92 
L 465.255 169.92 
L 465.9525 169.92 
L 466.65 169.92 
L 467.3475 169.92 
L 468.045 169.92 
L 468.7425 169.92 
L 469.44 169.92 
L 470.1375 169.92 
L 470.835 169.92 
L 471.5325 169.92 
L 472.23 169.92 
L 472.9275 169.92 
L 473.625 169.92 
L 474.3225 169.92 
L 475.02 169.92 
L 475.7175 169.92 
L 476.415 169.92 
L 477.1125 169.92 
L 477.81 169.92 
L 478.5075 169.92 
L 479.205 169.92 
L 479.9025 169.92 
L 480.6 169.92 
L 481.2975 169.92 
L 481.995 169.92 
L 482.6925 169.92 
L 483.39 169.92 
L 484.0875 169.92 
L 484.785 169.92 
L 485.4825 169.92 
L 486.18 169.92 
L 486.8775 169.92 
L 487.575 169.92 
L 488.2725 169.92 
L 488.97 169.92 
L 489.6675 169.92 
L 490.365 169.92 
L 491.0625 169.92 
L 491.76 169.92 
L 492.4575 169.92 
L 493.155 169.92 
L 493.8525 169.92 
L 494.55 169.92 
L 495.2475 169.92 
L 495.945 169.92 
L 496.6425 169.92 
L 497.34 169.92 
L 498.0375 169.92 
L 498.735 169.92 
L 499.4325 169.92 
L 500.13 169.92 
L 500.8275 169.92 
L 501.525 169.92 
L 502.2225 169.92 
L 502.92 169.92 
L 503.6175 169.92 
L 504.315 169.92 
L 505.0125 169.92 
L 505.71 169.92 
L 506.4075 169.92 
L 507.105 169.92 
L 507.8025 169.92 
L 508.5 169.92 
L 509.1975 169.92 
L 509.895 169.92 
L 510.5925 169.92 
L 511.29 169.92 
L 511.9875 169.92 
L 512.685 169.92 
L 513.3825 169.92 
L 514.08 169.92 
L 514.7775 169.92 
L 515.475 169.92 
L 516.1725 169.92 
L 516.87 169.92 
L 517.5675 169.92 
L 518.265 169.92 
L 518.9625 169.92 
L 519.66 169.92 
L 520.3575 169.92 
L 521.055 169.92 
L 521.7525 169.92 
L 522.45 169.92 
L 523.1475 169.92 
L 523.845 169.92 
L 524.5425 169.92 
L 525.24 169.92 
L 525.9375 169.92 
L 526.635 169.92 
L 527.3325 169.92 
L 528.03 169.92 
L 528.7275 169.92 
L 529.425 169.92 
L 530.1225 169.92 
L 530.82 169.92 
L 531.5175 169.92 
L 532.215 169.92 
L 532.9125 169.92 
L 533.61 169.92 
L 534.3075 169.92 
L 535.005 169.92 
L 535.7025 169.92 
L 536.4 169.92 
L 537.0975 169.92 
L 537.795 169.92 
L 538.4925 169.92 
L 539.19 169.92 
L 539.8875 169.92 
L 540.585 169.92 
L 541.2825 169.92 
L 541.98 169.92 
L 542.6775 169.92 
L 543.375 169.92 
L 544.0725 169.92 
L 544.77 169.92 
L 545.4675 169.92 
L 546.165 169.92 
L 546.8625 169.92 
L 547.56 169.92 
L 548.2575 169.92 
L 548.955 169.92 
L 549.6525 169.92 
L 550.35 169.92 
L 551.0475 169.92 
L 551.745 169.92 
L 552.4425 169.92 
L 553.14 169.92 
L 553.8375 169.92 
L 554.535 169.92 
L 555.2325 169.92 
L 555.93 169.92 
L 556.6275 169.92 
L 557.325 169.92 
L 558.0225 169.92 
L 558.72 169.92 
L 559.4175 169.92 
L 560.115 169.92 
L 560.8125 169.92 
L 561.51 169.92 
L 562.2075 169.92 
L 562.905 169.92 
L 563.6025 169.92 
L 564.3 169.92 
L 564.9975 169.92 
L 565.695 169.92 
L 566.3925 169.92 
L 567.09 169.92 
L 567.7875 169.92 
L 568.485 169.92 
L 569.1825 169.92 
L 569.88 169.92 
L 570.5775 169.92 
L 571.275 169.92 
L 571.9725 169.92 
L 572.67 169.92 
L 573.3675 169.92 
L 574.065 169.92 
L 574.7625 169.92 
L 575.46 169.92 
L 576.1575 169.92 
L 576.855 169.92 
L 577.5525 169.92 
L 578.25 169.92 
L 578.9475 169.92 
L 579.645 169.92 
L 580.3425 169.92 
L 581.04 169.92 
L 581.7375 169.92 
L 582.435 169.92 
L 583.1325 169.92 
L 583.83 169.92 
L 584.5275 169.92 
L 585.225 169.92 
L 585.9225 169.92 
L 586.62 169.92 
L 587.3175 169.92 
L 588.015 169.92 
L 588.7125 169.92 
L 589.41 169.92 
L 590.1075 169.92 
L 590.805 169.92 
L 591.5025 169.92 
L 592.2 169.92 
L 592.8975 169.92 
L 593.595 169.92 
L 594.2925 169.92 
L 594.99 169.92 
L 595.6875 169.92 
L 596.385 169.92 
L 597.0825 169.92 
L 597.78 169.92 
L 598.4775 169.92 
L 599.175 169.92 
L 599.8725 169.92 
L 600.57 169.92 
L 601.2675 169.92 
L 601.965 169.92 
L 602.6625 169.92 
L 603.36 169.92 
L 604.0575 169.92 
L 604.755 169.92 
L 605.4525 169.92 
L 606.15 169.92 
L 606.8475 169.92 
L 607.545 169.92 
L 608.2425 169.92 
L 608.94 169.92 
L 609.6375 169.92 
L 610.335 169.92 
L 611.0325 169.92 
L 611.73 169.92 
L 612.4275 169.92 
L 613.125 169.92 
L 613.8225 169.92 
L 614.52 169.92 
L 615.2175 169.92 
L 615.915 169.92 
L 616.6125 169.92 
L 617.31 169.92 
L 618.0075 169.92 
L 618.705 169.92 
L 619.4025 169.92 
L 620.1 169.92 
L 620.7975 169.92 
L 621.495 169.92 
L 622.1925 169.92 
L 622.89 169.92 
L 623.5875 169.92 
L 624.285 169.92 
L 624.9825 169.92 
L 625.68 169.92 
L 626.3775 169.92 
L 627.075 169.92 
L 627.7725 169.92 
L 628.47 169.92 
L 629.1675 169.92 
L 629.865 169.92 
L 630.5625 169.92 
L 631.26 169.92 
L 631.9575 169.92 
L 632.655 169.92 
L 633.3525 169.92 
L 634.05 169.92 
L 634.7475 169.92 
L 635.445 169.92 
L 636.1425 169.92 
L 636.84 169.92 
L 637.5375 169.92 
L 638.235 169.92 
L 638.9325 169.92 
L 639.63 169.92 
L 640.3275 169.92 
L 641.025 169.92 
L 641.7225 169.92 
L 642.42 169.92 
L 643.1175 169.92 
L 643.815 169.92 
L 644.5125 169.92 
L 645.21 169.92 
L 645.9075 169.92 
L 646.605 169.92 
L 646.605 169.92 
L 646.605 169.92 
L 645.9075 169.925522 
L 645.21 169.940248 
L 644.5125 169.959266 
L 643.815 169.983189 
L 643.1175 170.013242 
L 642.42 170.046967 
L 641.7225 170.083747 
L 641.025 170.127874 
L 640.3275 170.176889 
L 639.63 170.230174 
L 638.9325 170.29079 
L 638.235 170.355052 
L 637.5375 170.425405 
L 636.84 170.500618 
L 636.1425 170.581294 
L 635.445 170.667427 
L 634.7475 170.758395 
L 634.05 170.85296 
L 633.3525 170.950501 
L 632.655 171.054688 
L 631.9575 171.163058 
L 631.26 171.276826 
L 630.5625 171.396596 
L 629.865 171.522967 
L 629.1675 171.652248 
L 628.47 171.787491 
L 627.7725 171.928072 
L 627.075 172.075815 
L 626.3775 172.227026 
L 625.68 172.384142 
L 624.9825 172.545923 
L 624.285 172.711124 
L 623.5875 172.884023 
L 622.89 173.060923 
L 622.1925 173.243647 
L 621.495 173.431562 
L 620.7975 173.623422 
L 620.1 173.817369 
L 619.4025 174.017678 
L 618.705 174.22126 
L 618.0075 174.429323 
L 617.31 174.640006 
L 616.6125 174.852673 
L 615.915 175.070373 
L 615.2175 175.290014 
L 614.52 175.512189 
L 613.8225 175.738716 
L 613.125 175.968346 
L 612.4275 176.199829 
L 611.73 176.433755 
L 611.0325 176.673169 
L 610.335 176.916206 
L 609.6375 177.161002 
L 608.94 177.409373 
L 608.2425 177.660066 
L 607.545 177.911831 
L 606.8475 178.167709 
L 606.15 178.427062 
L 605.4525 178.688636 
L 604.755 178.948112 
L 604.0575 179.210984 
L 603.36 179.472319 
L 602.6625 179.735158 
L 601.965 179.99702 
L 601.2675 180.259108 
L 600.57 180.52078 
L 599.8725 180.781399 
L 599.175 181.042164 
L 598.4775 181.299368 
L 597.78 181.557895 
L 597.0825 181.81281 
L 596.385 182.066542 
L 595.6875 182.317839 
L 594.99 182.566675 
L 594.2925 182.814867 
L 593.595 183.059323 
L 592.8975 183.301857 
L 592.2 183.540606 
L 591.5025 183.773706 
L 590.805 184.004814 
L 590.1075 184.233293 
L 589.41 184.457895 
L 588.7125 184.677369 
L 588.015 184.894149 
L 587.3175 185.108825 
L 586.62 185.318922 
L 585.9225 185.52442 
L 585.225 185.723457 
L 584.5275 185.917241 
L 583.83 186.106979 
L 583.1325 186.29388 
L 582.435 186.477312 
L 581.7375 186.656029 
L 581.04 186.830013 
L 580.3425 186.999247 
L 579.645 187.161874 
L 578.9475 187.319718 
L 578.25 187.470923 
L 577.5525 187.615473 
L 576.855 187.756423 
L 576.1575 187.890076 
L 575.46 188.020714 
L 574.7625 188.142803 
L 574.065 188.257557 
L 573.3675 188.366192 
L 572.67 188.466856 
L 571.9725 188.563835 
L 571.275 188.65405 
L 570.5775 188.73688 
L 569.88 188.811703 
L 569.1825 188.881578 
L 568.485 188.942818 
L 567.7875 188.995417 
L 567.09 189.04305 
L 566.3925 189.083259 
L 565.695 189.11604 
L 564.9975 189.142616 
L 564.3 189.164826 
L 563.6025 189.180213 
L 562.905 189.187548 
L 562.2075 189.190513 
L 561.51 189.186652 
L 560.8125 189.177194 
L 560.115 189.162752 
L 559.4175 189.142714 
L 558.72 189.118311 
L 558.0225 189.087089 
L 557.325 189.052119 
L 556.6275 189.009725 
L 555.93 188.963591 
L 555.2325 188.91004 
L 554.535 188.851533 
L 553.8375 188.788688 
L 553.14 188.719058 
L 552.4425 188.646945 
L 551.745 188.567446 
L 551.0475 188.484866 
L 550.35 188.396144 
L 549.6525 188.304971 
L 548.955 188.208287 
L 548.2575 188.104876 
L 547.56 187.997815 
L 546.8625 187.887115 
L 546.165 187.772174 
L 545.4675 187.651776 
L 544.77 187.52716 
L 544.0725 187.397724 
L 543.375 187.264096 
L 542.6775 187.125674 
L 541.98 186.985541 
L 541.2825 186.839416 
L 540.585 186.689767 
L 539.8875 186.53661 
L 539.19 186.379345 
L 538.4925 186.220443 
L 537.795 186.058692 
L 537.0975 185.894723 
L 536.4 185.728551 
L 535.7025 185.560807 
L 535.005 185.389666 
L 534.3075 185.218214 
L 533.61 185.042786 
L 532.9125 184.86708 
L 532.215 184.688047 
L 531.5175 184.508773 
L 530.82 184.328661 
L 530.1225 184.147116 
L 529.425 183.96661 
L 528.7275 183.783479 
L 528.03 183.600197 
L 527.3325 183.416168 
L 526.635 183.230796 
L 525.9375 183.043487 
L 525.24 182.855486 
L 524.5425 182.666199 
L 523.845 182.476257 
L 523.1475 182.286293 
L 522.45 182.093872 
L 521.7525 181.900241 
L 521.055 181.70419 
L 520.3575 181.506968 
L 519.66 181.309206 
L 518.9625 181.110312 
L 518.265 180.909691 
L 517.5675 180.709817 
L 516.87 180.509484 
L 516.1725 180.307484 
L 515.475 180.106292 
L 514.7775 179.905314 
L 514.08 179.704569 
L 513.3825 179.504079 
L 512.685 179.302635 
L 511.9875 179.099645 
L 511.29 178.895741 
L 510.5925 178.692172 
L 509.895 178.490184 
L 509.1975 178.287958 
L 508.5 178.087354 
L 507.8025 177.885323 
L 507.105 177.686182 
L 506.4075 177.487496 
L 505.71 177.289897 
L 505.0125 177.091566 
L 504.315 176.894976 
L 503.6175 176.700146 
L 502.92 176.505255 
L 502.2225 176.314005 
L 501.525 176.123345 
L 500.8275 175.934523 
L 500.13 175.745716 
L 499.4325 175.557557 
L 498.735 175.371905 
L 498.0375 175.188165 
L 497.34 175.006356 
L 496.6425 174.825881 
L 495.945 174.647986 
L 495.2475 174.472689 
L 494.55 174.301234 
L 493.8525 174.129957 
L 493.155 173.961943 
L 492.4575 173.793527 
L 491.76 173.628407 
L 491.0625 173.464758 
L 490.365 173.302598 
L 489.6675 173.141329 
L 488.97 172.982193 
L 488.2725 172.82398 
L 487.575 172.667319 
L 486.8775 172.51468 
L 486.18 172.364851 
L 485.4825 172.216619 
L 484.785 172.069999 
L 484.0875 171.926848 
L 483.39 171.78595 
L 482.6925 171.646095 
L 481.995 171.507295 
L 481.2975 171.370791 
L 480.6 171.23537 
L 479.9025 171.101659 
L 479.205 170.969058 
L 478.5075 170.838807 
L 477.81 170.709078 
L 477.1125 170.581111 
L 476.415 170.453692 
L 475.7175 170.329288 
L 475.02 170.204843 
L 474.3225 170.080983 
L 473.625 169.957721 
L 472.9275 169.834455 
L 472.23 169.711198 
L 471.5325 169.587962 
L 470.835 169.467826 
L 470.1375 169.347735 
L 469.44 169.228315 
L 468.7425 169.110805 
L 468.045 168.994602 
L 467.3475 168.878491 
L 466.65 168.763711 
L 465.9525 168.6515 
L 465.255 168.54187 
L 464.5575 168.43299 
L 463.86 168.324872 
L 463.1625 168.219367 
L 462.465 168.114031 
L 461.7675 168.01317 
L 461.07 167.912498 
L 460.3725 167.81264 
L 459.675 167.713604 
L 458.9775 167.614789 
L 458.28 167.514975 
L 457.5825 167.417855 
L 456.885 167.322211 
L 456.1875 167.226212 
L 455.49 167.130481 
L 454.7925 167.038095 
L 454.095 166.945996 
L 453.3975 166.85542 
L 452.7 166.766375 
L 452.0025 166.679485 
L 451.305 166.594145 
L 450.6075 166.510363 
L 449.91 166.42876 
L 449.2125 166.348732 
L 448.515 166.2709 
L 447.8175 166.194658 
L 447.12 166.118787 
L 446.4225 166.044521 
L 445.725 165.972481 
L 445.0275 165.902061 
L 444.33 165.835108 
L 443.6325 165.769175 
L 442.935 165.704269 
L 442.2375 165.639782 
L 441.54 165.578176 
L 440.8425 165.517614 
L 440.145 165.459945 
L 439.4475 165.403333 
L 438.75 165.350238 
L 438.0525 165.297598 
L 437.355 165.246645 
L 436.6575 165.197383 
L 435.96 165.148592 
L 435.2625 165.101502 
L 434.565 165.055505 
L 433.8675 165.011219 
L 433.17 164.967421 
L 432.4725 164.925343 
L 431.775 164.883762 
L 431.0775 164.842682 
L 430.38 164.802107 
L 429.6825 164.762655 
L 428.985 164.723715 
L 428.2875 164.685292 
L 427.59 164.646777 
L 426.8925 164.608786 
L 426.195 164.571936 
L 425.4975 164.535619 
L 424.8 164.499838 
L 424.1025 164.465209 
L 423.405 164.430509 
L 422.7075 164.398195 
L 422.01 164.365204 
L 421.3125 164.332765 
L 420.615 164.300883 
L 419.9175 164.268945 
L 419.22 164.236956 
L 418.5225 164.204918 
L 417.825 164.174063 
L 417.1275 164.143166 
L 416.43 164.112843 
L 415.7325 164.082484 
L 415.035 164.050865 
L 414.3375 164.020444 
L 413.64 163.990609 
L 412.9425 163.960137 
L 412.245 163.931485 
L 411.5475 163.902815 
L 410.85 163.872902 
L 410.1525 163.842978 
L 409.455 163.813044 
L 408.7575 163.783105 
L 408.06 163.752548 
L 407.3625 163.720765 
L 406.665 163.689597 
L 405.9675 163.655982 
L 405.27 163.621763 
L 404.5725 163.585715 
L 403.875 163.549685 
L 403.1775 163.51306 
L 402.48 163.474619 
L 401.7825 163.436205 
L 401.085 163.395368 
L 400.3875 163.353339 
L 399.69 163.310737 
L 398.9925 163.265723 
L 398.295 163.218918 
L 397.5975 163.172165 
L 396.9 163.124243 
L 396.2025 163.075769 
L 395.505 163.025522 
L 394.8075 162.97412 
L 394.11 162.921569 
L 393.4125 162.865418 
L 392.715 162.808128 
L 392.0175 162.749705 
L 391.32 162.688927 
L 390.6225 162.628254 
L 389.925 162.564012 
L 389.2275 162.498047 
L 388.53 162.432207 
L 387.8325 162.364658 
L 387.135 162.295405 
L 386.4375 162.226298 
L 385.74 162.154887 
L 385.0425 162.081181 
L 384.345 162.006415 
L 383.6475 161.930594 
L 382.95 161.8525 
L 382.2525 161.771527 
L 381.555 161.688297 
L 380.8575 161.603431 
L 380.16 161.516325 
L 379.4625 161.426986 
L 378.765 161.334811 
L 378.0675 161.239195 
L 377.37 161.141988 
L 376.6725 161.041358 
L 375.975 160.938544 
L 375.2775 160.834169 
L 374.58 160.727017 
L 373.8825 160.61771 
L 373.185 160.505648 
L 372.4875 160.391454 
L 371.79 160.27514 
L 371.0925 160.156104 
L 370.395 160.034357 
L 369.6975 159.909912 
L 369 159.784622 
L 368.3025 159.655432 
L 367.605 159.526035 
L 366.9075 159.393991 
L 366.21 159.259312 
L 365.5125 159.122626 
L 364.815 158.983946 
L 364.1175 158.842058 
L 363.42 158.698205 
L 362.7225 158.552399 
L 362.025 158.404657 
L 361.3275 158.254992 
L 360.63 158.104646 
L 359.9325 157.951794 
L 359.235 157.797065 
L 358.5375 157.641087 
L 357.84 157.481422 
L 357.1425 157.32054 
L 356.445 157.156616 
L 355.7475 156.990893 
L 355.05 156.822776 
L 354.3525 156.651052 
L 353.655 156.476966 
L 352.9575 156.299923 
L 352.26 156.121166 
L 351.5625 155.941328 
L 350.865 155.758584 
L 350.1675 155.573568 
L 349.47 155.386298 
L 348.7725 155.196791 
L 348.075 155.005681 
L 347.3775 154.812987 
L 346.68 154.619341 
L 345.9825 154.424149 
L 345.285 154.226817 
L 344.5875 154.027977 
L 343.89 153.828265 
L 343.1925 153.626471 
L 342.495 153.42323 
L 341.7975 153.218562 
L 341.1 153.011874 
L 340.4025 152.804413 
L 339.705 152.5962 
L 339.0075 152.386642 
L 338.31 152.176375 
L 337.6125 151.964804 
L 336.915 151.753178 
L 336.2175 151.541518 
L 335.52 151.328619 
L 334.8225 151.114501 
L 334.125 150.899186 
L 333.4275 150.683308 
L 332.73 150.466275 
L 332.0325 150.247496 
L 331.335 150.02822 
L 330.6375 149.807854 
L 329.94 149.585194 
L 329.2425 149.361488 
L 328.545 149.1386 
L 327.8475 148.913484 
L 327.15 148.688617 
L 326.4525 148.462793 
L 325.755 148.235423 
L 325.0575 148.007141 
L 324.36 147.777971 
L 323.6625 147.547935 
L 322.965 147.317057 
L 322.2675 147.085359 
L 321.57 146.853478 
L 320.8725 146.622051 
L 320.175 146.389873 
L 319.4775 146.157581 
L 318.78 145.925199 
L 318.0825 145.692135 
L 317.385 145.459027 
L 316.6875 145.226511 
L 315.99 144.993997 
L 315.2925 144.762121 
L 314.595 144.530907 
L 313.8975 144.301605 
L 313.2 144.072396 
L 312.5025 143.842691 
L 311.805 143.612512 
L 311.1075 143.381881 
L 310.41 143.151436 
L 309.7125 142.921812 
L 309.015 142.69242 
L 308.3175 142.463895 
L 307.62 142.235033 
L 306.9225 142.007084 
L 306.225 141.779457 
L 305.5275 141.554015 
L 304.83 141.330782 
L 304.1325 141.108551 
L 303.435 140.887959 
L 302.7375 140.669641 
L 302.04 140.452392 
L 301.3425 140.236846 
L 300.645 140.023026 
L 299.9475 139.810953 
L 299.25 139.600647 
L 298.5525 139.39213 
L 297.855 139.185422 
L 297.1575 138.981771 
L 296.46 138.780584 
L 295.7625 138.58188 
L 295.065 138.385067 
L 294.3675 138.190776 
L 293.67 137.999028 
L 292.9725 137.809841 
L 292.275 137.623849 
L 291.5775 137.439841 
L 290.88 137.259064 
L 290.1825 137.080309 
L 289.485 136.90482 
L 288.7875 136.732001 
L 288.09 136.56187 
L 287.3925 136.395057 
L 286.695 136.230965 
L 285.9975 136.070224 
L 285.3 135.911622 
L 284.6025 135.757017 
L 283.905 135.60581 
L 283.2075 135.458016 
L 282.51 135.31365 
L 281.8125 135.172726 
L 281.115 135.035258 
L 280.4175 134.90126 
L 279.72 134.771359 
L 279.0225 134.644953 
L 278.325 134.522057 
L 277.6275 134.403295 
L 276.93 134.288679 
L 276.2325 134.177608 
L 275.535 134.070705 
L 274.8375 133.967981 
L 274.14 133.870061 
L 273.4425 133.77634 
L 272.745 133.686214 
L 272.0475 133.600919 
L 271.35 133.519237 
L 270.6525 133.441789 
L 269.955 133.368583 
L 269.2575 133.299012 
L 268.56 133.234311 
L 267.8625 133.174487 
L 267.165 133.120158 
L 266.4675 133.070103 
L 265.77 133.02494 
L 265.0725 132.984675 
L 264.375 132.948697 
L 263.6775 132.918237 
L 262.98 132.89207 
L 262.2825 132.869587 
L 261.585 132.852017 
L 260.8875 132.838747 
L 260.19 132.830392 
L 259.4925 132.826954 
L 258.795 132.828433 
L 258.0975 132.834828 
L 257.4 132.846139 
L 256.7025 132.862364 
L 256.005 132.883503 
L 255.3075 132.910166 
L 254.61 132.941125 
L 253.9125 132.976988 
L 253.215 133.01714 
L 252.5175 133.062189 
L 251.82 133.111518 
L 251.1225 133.165122 
L 250.425 133.223609 
L 249.7275 133.286973 
L 249.03 133.355208 
L 248.3325 133.428307 
L 247.635 133.506263 
L 246.9375 133.589069 
L 246.24 133.675487 
L 245.5425 133.766738 
L 244.845 133.862199 
L 244.1475 133.963087 
L 243.45 134.068165 
L 242.7525 134.178036 
L 242.055 134.292076 
L 241.3575 134.40966 
L 240.66 134.532003 
L 239.9625 134.658479 
L 239.265 134.789077 
L 238.5675 134.923168 
L 237.87 135.060741 
L 237.1725 135.202394 
L 236.475 135.348115 
L 235.7775 135.497274 
L 235.08 135.65047 
L 234.3825 135.807689 
L 233.685 135.968915 
L 232.9875 136.133517 
L 232.29 136.30148 
L 231.5925 136.474014 
L 230.895 136.650488 
L 230.1975 136.830272 
L 229.5 137.013961 
L 228.8025 137.200308 
L 228.105 137.390524 
L 227.4075 137.583976 
L 226.71 137.780644 
L 226.0125 137.981122 
L 225.315 138.184777 
L 224.6175 138.391589 
L 223.92 138.601537 
L 223.2225 138.814599 
L 222.525 139.030756 
L 221.8275 139.249985 
L 221.13 139.472265 
L 220.4325 139.69696 
L 219.735 139.924661 
L 219.0375 140.154732 
L 218.34 140.387763 
L 217.6425 140.623732 
L 216.945 140.862615 
L 216.2475 141.104388 
L 215.55 141.349028 
L 214.8525 141.596509 
L 214.155 141.846807 
L 213.4575 142.100511 
L 212.76 142.356983 
L 212.0625 142.616196 
L 211.365 142.878738 
L 210.6675 143.14397 
L 209.97 143.411866 
L 209.2725 143.682398 
L 208.575 143.955539 
L 207.8775 144.231264 
L 207.18 144.509543 
L 206.4825 144.79035 
L 205.785 145.073657 
L 205.0875 145.359435 
L 204.39 145.647656 
L 203.6925 145.938291 
L 202.995 146.231311 
L 202.2975 146.527915 
L 201.6 146.826846 
L 200.9025 147.128073 
L 200.205 147.431568 
L 199.5075 147.737299 
L 198.81 148.045237 
L 198.1125 148.355965 
L 197.415 148.668837 
L 196.7175 148.983823 
L 196.02 149.300891 
L 195.3225 149.62001 
L 194.625 149.941149 
L 193.9275 150.264274 
L 193.23 150.589355 
L 192.5325 150.916359 
L 191.835 151.245252 
L 191.1375 151.576003 
L 190.44 151.908579 
L 189.7425 152.242947 
L 189.045 152.579072 
L 188.3475 152.916923 
L 187.65 153.256464 
L 186.9525 153.597663 
L 186.255 153.940486 
L 185.5575 154.284898 
L 184.86 154.630865 
L 184.1625 154.978353 
L 183.465 155.327327 
L 182.7675 155.677753 
L 182.07 156.029595 
L 181.3725 156.382819 
L 180.675 156.737389 
L 179.9775 157.093271 
L 179.28 157.450428 
L 178.5825 157.808826 
L 177.885 158.168428 
L 177.1875 158.5292 
L 176.49 158.891104 
L 175.7925 159.254105 
L 175.095 159.618167 
L 174.3975 159.983254 
L 173.7 160.349329 
L 173.0025 160.716356 
L 172.305 161.084299 
L 171.6075 161.45312 
L 170.91 161.822784 
L 170.2125 162.193253 
L 169.515 162.564491 
L 168.8175 162.93646 
L 168.12 163.309123 
L 167.4225 163.681831 
L 166.725 164.05516 
L 166.0275 164.429071 
L 165.33 164.803529 
L 164.6325 165.178496 
L 163.935 165.553934 
L 163.2375 165.929807 
L 162.54 166.306076 
L 161.8425 166.682091 
L 161.145 167.058429 
L 160.4475 167.435051 
L 159.75 167.81192 
L 159.0525 168.188999 
L 158.355 168.56625 
L 157.6575 168.943636 
L 156.96 169.321119 
L 156.2625 169.698661 
L 155.565 170.076225 
L 154.8675 170.453774 
L 154.17 170.83127 
L 153.4725 171.208675 
L 152.775 171.585952 
L 152.0775 171.96245 
L 151.38 172.338745 
L 150.6825 172.714185 
L 149.985 173.089347 
L 149.2875 173.464195 
L 148.59 173.838689 
L 147.8925 174.212794 
L 147.195 174.586472 
L 146.4975 174.959686 
L 145.8 175.332398 
L 145.1025 175.704572 
L 144.405 176.076171 
L 143.7075 176.447158 
L 143.01 176.817495 
L 142.3125 177.187146 
L 141.615 177.556074 
L 140.9175 177.924243 
L 140.22 178.291616 
L 139.5225 178.657542 
L 138.825 179.022599 
L 138.1275 179.386751 
L 137.43 179.750575 
L 136.7325 180.113421 
L 136.035 180.475253 
L 135.3375 180.836035 
L 134.64 181.195732 
L 133.9425 181.55492 
L 133.245 181.912951 
L 132.5475 182.26979 
L 131.85 182.625399 
L 131.1525 182.979746 
L 130.455 183.332793 
L 129.7575 183.684506 
L 129.06 184.03485 
L 128.3625 184.38379 
L 127.665 184.731291 
L 126.9675 185.077319 
L 126.27 185.42184 
L 125.5725 185.764818 
L 124.875 186.106221 
L 124.1775 186.446013 
L 123.48 186.784162 
L 122.7825 187.120633 
L 122.085 187.455394 
L 121.3875 187.78841 
L 120.69 188.119649 
L 119.9925 188.449078 
L 119.295 188.776664 
L 118.5975 189.102374 
L 117.9 189.426176 
L 117.2025 189.748038 
L 116.505 190.067928 
L 115.8075 190.385813 
L 115.11 190.701664 
L 114.4125 191.015446 
L 113.715 191.327131 
L 113.0175 191.636687 
L 112.32 191.944082 
L 111.6225 192.249287 
L 110.925 192.55227 
L 110.2275 192.853003 
L 109.53 193.151454 
L 108.8325 193.447595 
L 108.135 193.741396 
L 107.4375 194.032827 
L 106.74 194.321859 
L 106.0425 194.608465 
L 105.345 194.892615 
L 104.6475 195.174281 
L 103.95 195.453435 
L 103.2525 195.730049 
L 102.555 196.004096 
L 101.8575 196.275549 
L 101.16 196.54438 
L 100.4625 196.810563 
L 99.765 197.074071 
L 99.0675 197.334878 
L 98.37 197.592959 
L 97.6725 197.848287 
L 96.975 198.100837 
L 96.2775 198.350584 
L 95.58 198.597503 
L 94.8825 198.842183 
L 94.185 199.083986 
L 93.4875 199.322889 
L 92.79 199.558867 
L 92.0925 199.791897 
L 91.395 200.021956 
L 90.6975 200.24902 
L 90 200.473068 
z
" style="fill:#e0ffff;"/>
   </g>
   <g id="line2d_15">
    <path clip-path="url(#p5eb7c91e6d)" d="M 90 200.473068 
L 96.2775 198.350584 
L 102.555 196.004096 
L 109.53 193.151454 
L 117.2025 189.748038 
L 125.5725 185.764818 
L 134.64 181.195732 
L 146.4975 174.959686 
L 182.7675 155.677753 
L 191.835 151.245252 
L 199.5075 147.737299 
L 206.4825 144.79035 
L 213.4575 142.100511 
L 219.735 139.924661 
L 226.0125 137.981122 
L 231.5925 136.474014 
L 237.1725 135.202394 
L 242.7525 134.178036 
L 247.635 133.506263 
L 252.5175 133.062189 
L 257.4 132.846139 
L 262.2825 132.869587 
L 267.165 133.120158 
L 272.0475 133.600919 
L 276.93 134.288679 
L 282.51 135.31365 
L 288.09 136.56187 
L 294.3675 138.190776 
L 301.3425 140.236846 
L 310.41 143.151436 
L 334.8225 151.114501 
L 345.285 154.226817 
L 352.9575 156.299923 
L 359.235 157.797065 
L 366.9075 159.393991 
L 373.8825 160.61771 
L 380.8575 161.603431 
L 388.53 162.432207 
L 396.9 163.124243 
L 406.665 163.689597 
L 433.8675 165.011219 
L 442.2375 165.639782 
L 450.6075 166.510363 
L 458.9775 167.614789 
L 468.045 168.994602 
L 478.5075 170.838807 
L 486.8775 172.51468 
L 494.55 174.301234 
L 501.525 176.123345 
L 511.29 178.895741 
L 524.5425 182.666199 
L 534.3075 185.218214 
L 541.2825 186.839416 
L 546.165 187.772174 
L 551.0475 188.484866 
L 555.93 188.963591 
L 560.8125 189.177194 
L 564.9975 189.142616 
L 569.1825 188.881578 
L 573.3675 188.366192 
L 577.5525 187.615473 
L 581.7375 186.656029 
L 586.62 185.318922 
L 592.2 183.540606 
L 599.175 181.042164 
L 612.4275 176.199829 
L 618.705 174.22126 
L 623.5875 172.884023 
L 628.47 171.787491 
L 633.3525 170.950501 
L 638.235 170.355052 
L 643.1175 170.013242 
L 646.605 169.92 
L 646.605 169.92 
" style="fill:none;stroke:#008080;stroke-linecap:round;stroke-width:1.75;"/>
   </g>
   <g id="patch_3">
    <path d="M 90 270.72 
L 90 69.12 
" style="fill:none;stroke:#262626;stroke-linecap:square;stroke-linejoin:miter;stroke-width:1.25;"/>
   </g>
   <g id="patch_4">
    <path d="M 90 270.72 
L 648 270.72 
" style="fill:none;stroke:#262626;stroke-linecap:square;stroke-linejoin:miter;stroke-width:1.25;"/>
   </g>
  </g>
  <g id="axes_2">
   <g id="patch_5">
    <path d="M 90 512.64 
L 648 512.64 
L 648 311.04 
L 90 311.04 
z
" style="fill:#ffffff;"/>
   </g>
   <g id="matplotlib.axis_3">
    <g id="xtick_10">
     <g id="line2d_16">
      <g>
       <use style="fill:#262626;stroke:#262626;" x="191.454545" xlink:href="#md7b5d24bfc" y="512.64"/>
      </g>
     </g>
     <g id="text_15">
      <!-- 200 -->
      <g style="fill:#262626;" transform="translate(183.113139 532.797812)scale(0.1 -0.1)">
       <use xlink:href="#ArialMT-32"/>
       <use x="55.615234" xlink:href="#ArialMT-30"/>
       <use x="111.230469" xlink:href="#ArialMT-30"/>
      </g>
     </g>
    </g>
    <g id="xtick_11">
     <g id="line2d_17">
      <g>
       <use style="fill:#262626;stroke:#262626;" x="304.181818" xlink:href="#md7b5d24bfc" y="512.64"/>
      </g>
     </g>
     <g id="text_16">
      <!-- 400 -->
      <g style="fill:#262626;" transform="translate(295.840412 532.797812)scale(0.1 -0.1)">
       <use xlink:href="#ArialMT-34"/>
       <use x="55.615234" xlink:href="#ArialMT-30"/>
       <use x="111.230469" xlink:href="#ArialMT-30"/>
      </g>
     </g>
    </g>
    <g id="xtick_12">
     <g id="line2d_18">
      <g>
       <use style="fill:#262626;stroke:#262626;" x="416.909091" xlink:href="#md7b5d24bfc" y="512.64"/>
      </g>
     </g>
     <g id="text_17">
      <!-- 600 -->
      <g style="fill:#262626;" transform="translate(408.567685 532.797812)scale(0.1 -0.1)">
       <use xlink:href="#ArialMT-36"/>
       <use x="55.615234" xlink:href="#ArialMT-30"/>
       <use x="111.230469" xlink:href="#ArialMT-30"/>
      </g>
     </g>
    </g>
    <g id="xtick_13">
     <g id="line2d_19">
      <g>
       <use style="fill:#262626;stroke:#262626;" x="529.636364" xlink:href="#md7b5d24bfc" y="512.64"/>
      </g>
     </g>
     <g id="text_18">
      <!-- 800 -->
      <g style="fill:#262626;" transform="translate(521.294957 532.797812)scale(0.1 -0.1)">
       <use xlink:href="#ArialMT-38"/>
       <use x="55.615234" xlink:href="#ArialMT-30"/>
       <use x="111.230469" xlink:href="#ArialMT-30"/>
      </g>
     </g>
    </g>
    <g id="xtick_14">
     <g id="line2d_20">
      <g>
       <use style="fill:#262626;stroke:#262626;" x="642.363636" xlink:href="#md7b5d24bfc" y="512.64"/>
      </g>
     </g>
     <g id="text_19">
      <!-- 1000 -->
      <g style="fill:#262626;" transform="translate(631.241761 532.797812)scale(0.1 -0.1)">
       <use xlink:href="#ArialMT-31"/>
       <use x="55.615234" xlink:href="#ArialMT-30"/>
       <use x="111.230469" xlink:href="#ArialMT-30"/>
       <use x="166.845703" xlink:href="#ArialMT-30"/>
      </g>
     </g>
    </g>
   </g>
   <g id="matplotlib.axis_4">
    <g id="ytick_6">
     <g id="line2d_21">
      <g>
       <use style="fill:#262626;stroke:#262626;" x="90" xlink:href="#macf064109b" y="512.64"/>
      </g>
     </g>
     <g id="text_20">
      <!-- 0 -->
      <g style="fill:#262626;" transform="translate(71.439063 516.218906)scale(0.1 -0.1)">
       <use xlink:href="#ArialMT-30"/>
      </g>
     </g>
    </g>
    <g id="ytick_7">
     <g id="line2d_22">
      <g>
       <use style="fill:#262626;stroke:#262626;" x="90" xlink:href="#macf064109b" y="490.24"/>
      </g>
     </g>
     <g id="text_21">
      <!-- 2 -->
      <g style="fill:#262626;" transform="translate(71.439063 493.818906)scale(0.1 -0.1)">
       <use xlink:href="#ArialMT-32"/>
      </g>
     </g>
    </g>
    <g id="ytick_8">
     <g id="line2d_23">
      <g>
       <use style="fill:#262626;stroke:#262626;" x="90" xlink:href="#macf064109b" y="467.84"/>
      </g>
     </g>
     <g id="text_22">
      <!-- 4 -->
      <g style="fill:#262626;" transform="translate(71.439063 471.418906)scale(0.1 -0.1)">
       <use xlink:href="#ArialMT-34"/>
      </g>
     </g>
    </g>
    <g id="ytick_9">
     <g id="line2d_24">
      <g>
       <use style="fill:#262626;stroke:#262626;" x="90" xlink:href="#macf064109b" y="445.44"/>
      </g>
     </g>
     <g id="text_23">
      <!-- 6 -->
      <g style="fill:#262626;" transform="translate(71.439063 449.018906)scale(0.1 -0.1)">
       <use xlink:href="#ArialMT-36"/>
      </g>
     </g>
    </g>
    <g id="ytick_10">
     <g id="line2d_25">
      <g>
       <use style="fill:#262626;stroke:#262626;" x="90" xlink:href="#macf064109b" y="423.04"/>
      </g>
     </g>
     <g id="text_24">
      <!-- 8 -->
      <g style="fill:#262626;" transform="translate(71.439063 426.618906)scale(0.1 -0.1)">
       <use xlink:href="#ArialMT-38"/>
      </g>
     </g>
    </g>
    <g id="ytick_11">
     <g id="line2d_26">
      <g>
       <use style="fill:#262626;stroke:#262626;" x="90" xlink:href="#macf064109b" y="400.64"/>
      </g>
     </g>
     <g id="text_25">
      <!-- 10 -->
      <g style="fill:#262626;" transform="translate(65.878125 404.218906)scale(0.1 -0.1)">
       <use xlink:href="#ArialMT-31"/>
       <use x="55.615234" xlink:href="#ArialMT-30"/>
      </g>
     </g>
    </g>
    <g id="ytick_12">
     <g id="line2d_27">
      <g>
       <use style="fill:#262626;stroke:#262626;" x="90" xlink:href="#macf064109b" y="378.24"/>
      </g>
     </g>
     <g id="text_26">
      <!-- 12 -->
      <g style="fill:#262626;" transform="translate(65.878125 381.818906)scale(0.1 -0.1)">
       <use xlink:href="#ArialMT-31"/>
       <use x="55.615234" xlink:href="#ArialMT-32"/>
      </g>
     </g>
    </g>
    <g id="ytick_13">
     <g id="line2d_28">
      <g>
       <use style="fill:#262626;stroke:#262626;" x="90" xlink:href="#macf064109b" y="355.84"/>
      </g>
     </g>
     <g id="text_27">
      <!-- 14 -->
      <g style="fill:#262626;" transform="translate(65.878125 359.418906)scale(0.1 -0.1)">
       <use xlink:href="#ArialMT-31"/>
       <use x="55.615234" xlink:href="#ArialMT-34"/>
      </g>
     </g>
    </g>
    <g id="ytick_14">
     <g id="line2d_29">
      <g>
       <use style="fill:#262626;stroke:#262626;" x="90" xlink:href="#macf064109b" y="333.44"/>
      </g>
     </g>
     <g id="text_28">
      <!-- 16 -->
      <g style="fill:#262626;" transform="translate(65.878125 337.018906)scale(0.1 -0.1)">
       <use xlink:href="#ArialMT-31"/>
       <use x="55.615234" xlink:href="#ArialMT-36"/>
      </g>
     </g>
    </g>
    <g id="ytick_15">
     <g id="line2d_30">
      <g>
       <use style="fill:#262626;stroke:#262626;" x="90" xlink:href="#macf064109b" y="311.04"/>
      </g>
     </g>
     <g id="text_29">
      <!-- 18 -->
      <g style="fill:#262626;" transform="translate(65.878125 314.618906)scale(0.1 -0.1)">
       <use xlink:href="#ArialMT-31"/>
       <use x="55.615234" xlink:href="#ArialMT-38"/>
      </g>
     </g>
    </g>
   </g>
   <g id="line2d_31">
    <path clip-path="url(#p4e95e0cf39)" d="M 90 477.654723 
L 95.636364 452.736402 
L 101.272727 431.923589 
L 106.909091 427.92302 
L 112.545455 440.45326 
L 118.181818 444.705349 
" style="fill:none;stroke:#b22222;stroke-linecap:round;stroke-width:1.75;"/>
   </g>
   <g id="line2d_32">
    <path clip-path="url(#p4e95e0cf39)" d="M 152 512.64 
L 152 311.04 
" style="fill:none;stroke:#4c72b0;stroke-linecap:round;stroke-width:1.75;"/>
   </g>
   <g id="patch_6">
    <path d="M 90 512.64 
L 90 311.04 
" style="fill:none;stroke:#262626;stroke-linecap:square;stroke-linejoin:miter;stroke-width:1.25;"/>
   </g>
   <g id="patch_7">
    <path d="M 90 512.64 
L 648 512.64 
" style="fill:none;stroke:#262626;stroke-linecap:square;stroke-linejoin:miter;stroke-width:1.25;"/>
   </g>
   <g id="text_30">
    <!-- f = 70 Hz -->
    <defs>
     <path d="M 8.6875 0 
L 8.6875 45.015625 
L 0.921875 45.015625 
L 0.921875 51.859375 
L 8.6875 51.859375 
L 8.6875 57.375 
Q 8.6875 62.59375 9.625 65.140625 
Q 10.890625 68.5625 14.078125 70.671875 
Q 17.28125 72.796875 23.046875 72.796875 
Q 26.765625 72.796875 31.25 71.921875 
L 29.9375 64.265625 
Q 27.203125 64.75 24.75 64.75 
Q 20.75 64.75 19.09375 63.03125 
Q 17.4375 61.328125 17.4375 56.640625 
L 17.4375 51.859375 
L 27.546875 51.859375 
L 27.546875 45.015625 
L 17.4375 45.015625 
L 17.4375 0 
z
" id="ArialMT-66"/>
     <path id="ArialMT-20"/>
     <path d="M 52.828125 42.09375 
L 5.5625 42.09375 
L 5.5625 50.296875 
L 52.828125 50.296875 
z
M 52.828125 20.359375 
L 5.5625 20.359375 
L 5.5625 28.5625 
L 52.828125 28.5625 
z
" id="ArialMT-3d"/>
     <path d="M 8.015625 0 
L 8.015625 71.578125 
L 17.484375 71.578125 
L 17.484375 42.1875 
L 54.6875 42.1875 
L 54.6875 71.578125 
L 64.15625 71.578125 
L 64.15625 0 
L 54.6875 0 
L 54.6875 33.734375 
L 17.484375 33.734375 
L 17.484375 0 
z
" id="ArialMT-48"/>
     <path d="M 1.953125 0 
L 1.953125 7.125 
L 34.96875 45.015625 
Q 29.34375 44.734375 25.046875 44.734375 
L 3.90625 44.734375 
L 3.90625 51.859375 
L 46.296875 51.859375 
L 46.296875 46.046875 
L 18.21875 13.140625 
L 12.796875 7.125 
Q 18.703125 7.5625 23.875 7.5625 
L 47.859375 7.5625 
L 47.859375 0 
z
" id="ArialMT-7a"/>
    </defs>
    <g style="fill:#262626;" transform="translate(529.636364 403.742188)scale(0.12 -0.12)">
     <use xlink:href="#ArialMT-66"/>
     <use x="27.783203" xlink:href="#ArialMT-20"/>
     <use x="55.566406" xlink:href="#ArialMT-3d"/>
     <use x="113.964844" xlink:href="#ArialMT-20"/>
     <use x="141.748047" xlink:href="#ArialMT-37"/>
     <use x="197.363281" xlink:href="#ArialMT-30"/>
     <use x="252.978516" xlink:href="#ArialMT-20"/>
     <use x="280.761719" xlink:href="#ArialMT-48"/>
     <use x="352.978516" xlink:href="#ArialMT-7a"/>
    </g>
   </g>
   <g id="PathCollection_1">
    <defs>
     <path d="M 0 3.5 
C 0.928211 3.5 1.81853 3.131218 2.474874 2.474874 
C 3.131218 1.81853 3.5 0.928211 3.5 0 
C 3.5 -0.928211 3.131218 -1.81853 2.474874 -2.474874 
C 1.81853 -3.131218 0.928211 -3.5 0 -3.5 
C -0.928211 -3.5 -1.81853 -3.131218 -2.474874 -2.474874 
C -3.131218 -1.81853 -3.5 -0.928211 -3.5 0 
C -3.5 0.928211 -3.131218 1.81853 -2.474874 2.474874 
C -1.81853 3.131218 -0.928211 3.5 0 3.5 
z
" id="m74a02c2090" style="stroke:#800000;stroke-width:0.3;"/>
    </defs>
    <g clip-path="url(#p4e95e0cf39)">
     <use style="fill:#800000;stroke:#800000;stroke-width:0.3;" x="118.181818" xlink:href="#m74a02c2090" y="444.705349"/>
    </g>
   </g>
  </g>
 </g>
 <defs>
  <clipPath id="p5eb7c91e6d">
   <rect height="201.6" width="558" x="90" y="69.12"/>
  </clipPath>
  <clipPath id="p4e95e0cf39">
   <rect height="201.6" width="558" x="90" y="311.04"/>
  </clipPath>
 </defs>
</svg>
