<?xml version="1.0" encoding="utf-8" standalone="no"?>
<!DOCTYPE svg PUBLIC "-//W3C//DTD SVG 1.1//EN"
  "http://www.w3.org/Graphics/SVG/1.1/DTD/svg11.dtd">
<!-- Created with matplotlib (http://matplotlib.org/) -->
<svg height="576pt" version="1.1" viewBox="0 0 720 576" width="720pt" xmlns="http://www.w3.org/2000/svg" xmlns:xlink="http://www.w3.org/1999/xlink">
 <defs>
  <style type="text/css">
*{stroke-linecap:butt;stroke-linejoin:round;}
  </style>
 </defs>
 <g id="figure_1">
  <g id="patch_1">
   <path d="M 0 576 
L 720 576 
L 720 0 
L 0 0 
z
" style="fill:#ffffff;"/>
  </g>
  <g id="axes_1">
   <g id="patch_2">
    <path d="M 90 270.72 
L 648 270.72 
L 648 69.12 
L 90 69.12 
z
" style="fill:#ffffff;"/>
   </g>
   <g id="matplotlib.axis_1">
    <g id="xtick_1">
     <g id="line2d_1">
      <defs>
       <path d="M 0 0 
L 0 6 
" id="m8d2fb1dcf9" style="stroke:#262626;"/>
      </defs>
      <g>
       <use style="fill:#262626;stroke:#262626;" x="90" xlink:href="#m8d2fb1dcf9" y="270.72"/>
      </g>
     </g>
     <g id="text_1">
      <!-- 0 -->
      <defs>
       <path d="M 4.15625 35.296875 
Q 4.15625 48 6.765625 55.734375 
Q 9.375 63.484375 14.515625 67.671875 
Q 19.671875 71.875 27.484375 71.875 
Q 33.25 71.875 37.59375 69.546875 
Q 41.9375 67.234375 44.765625 62.859375 
Q 47.609375 58.5 49.21875 52.21875 
Q 50.828125 45.953125 50.828125 35.296875 
Q 50.828125 22.703125 48.234375 14.96875 
Q 45.65625 7.234375 40.5 3 
Q 35.359375 -1.21875 27.484375 -1.21875 
Q 17.140625 -1.21875 11.234375 6.203125 
Q 4.15625 15.140625 4.15625 35.296875 
z
M 13.1875 35.296875 
Q 13.1875 17.671875 17.3125 11.828125 
Q 21.4375 6 27.484375 6 
Q 33.546875 6 37.671875 11.859375 
Q 41.796875 17.71875 41.796875 35.296875 
Q 41.796875 52.984375 37.671875 58.78125 
Q 33.546875 64.59375 27.390625 64.59375 
Q 21.34375 64.59375 17.71875 59.46875 
Q 13.1875 52.9375 13.1875 35.296875 
z
" id="ArialMT-30"/>
      </defs>
      <g style="fill:#262626;" transform="translate(87.219531 290.877812)scale(0.1 -0.1)">
       <use xlink:href="#ArialMT-30"/>
      </g>
     </g>
    </g>
    <g id="xtick_2">
     <g id="line2d_2">
      <g>
       <use style="fill:#262626;stroke:#262626;" x="159.75" xlink:href="#m8d2fb1dcf9" y="270.72"/>
      </g>
     </g>
     <g id="text_2">
      <!-- 100 -->
      <defs>
       <path d="M 37.25 0 
L 28.46875 0 
L 28.46875 56 
Q 25.296875 52.984375 20.140625 49.953125 
Q 14.984375 46.921875 10.890625 45.40625 
L 10.890625 53.90625 
Q 18.265625 57.375 23.78125 62.296875 
Q 29.296875 67.234375 31.59375 71.875 
L 37.25 71.875 
z
" id="ArialMT-31"/>
      </defs>
      <g style="fill:#262626;" transform="translate(151.408594 290.877812)scale(0.1 -0.1)">
       <use xlink:href="#ArialMT-31"/>
       <use x="55.615234" xlink:href="#ArialMT-30"/>
       <use x="111.230469" xlink:href="#ArialMT-30"/>
      </g>
     </g>
    </g>
    <g id="xtick_3">
     <g id="line2d_3">
      <g>
       <use style="fill:#262626;stroke:#262626;" x="229.5" xlink:href="#m8d2fb1dcf9" y="270.72"/>
      </g>
     </g>
     <g id="text_3">
      <!-- 200 -->
      <defs>
       <path d="M 50.34375 8.453125 
L 50.34375 0 
L 3.03125 0 
Q 2.9375 3.171875 4.046875 6.109375 
Q 5.859375 10.9375 9.828125 15.625 
Q 13.8125 20.3125 21.34375 26.46875 
Q 33.015625 36.03125 37.109375 41.625 
Q 41.21875 47.21875 41.21875 52.203125 
Q 41.21875 57.421875 37.46875 61 
Q 33.734375 64.59375 27.734375 64.59375 
Q 21.390625 64.59375 17.578125 60.78125 
Q 13.765625 56.984375 13.71875 50.25 
L 4.6875 51.171875 
Q 5.609375 61.28125 11.65625 66.578125 
Q 17.71875 71.875 27.9375 71.875 
Q 38.234375 71.875 44.234375 66.15625 
Q 50.25 60.453125 50.25 52 
Q 50.25 47.703125 48.484375 43.546875 
Q 46.734375 39.40625 42.65625 34.8125 
Q 38.578125 30.21875 29.109375 22.21875 
Q 21.1875 15.578125 18.9375 13.203125 
Q 16.703125 10.84375 15.234375 8.453125 
z
" id="ArialMT-32"/>
      </defs>
      <g style="fill:#262626;" transform="translate(221.158594 290.877812)scale(0.1 -0.1)">
       <use xlink:href="#ArialMT-32"/>
       <use x="55.615234" xlink:href="#ArialMT-30"/>
       <use x="111.230469" xlink:href="#ArialMT-30"/>
      </g>
     </g>
    </g>
    <g id="xtick_4">
     <g id="line2d_4">
      <g>
       <use style="fill:#262626;stroke:#262626;" x="299.25" xlink:href="#m8d2fb1dcf9" y="270.72"/>
      </g>
     </g>
     <g id="text_4">
      <!-- 300 -->
      <defs>
       <path d="M 4.203125 18.890625 
L 12.984375 20.0625 
Q 14.5 12.59375 18.140625 9.296875 
Q 21.78125 6 27 6 
Q 33.203125 6 37.46875 10.296875 
Q 41.75 14.59375 41.75 20.953125 
Q 41.75 27 37.796875 30.921875 
Q 33.84375 34.859375 27.734375 34.859375 
Q 25.25 34.859375 21.53125 33.890625 
L 22.515625 41.609375 
Q 23.390625 41.5 23.921875 41.5 
Q 29.546875 41.5 34.03125 44.421875 
Q 38.53125 47.359375 38.53125 53.46875 
Q 38.53125 58.296875 35.25 61.46875 
Q 31.984375 64.65625 26.8125 64.65625 
Q 21.6875 64.65625 18.265625 61.421875 
Q 14.84375 58.203125 13.875 51.765625 
L 5.078125 53.328125 
Q 6.6875 62.15625 12.390625 67.015625 
Q 18.109375 71.875 26.609375 71.875 
Q 32.46875 71.875 37.390625 69.359375 
Q 42.328125 66.84375 44.9375 62.5 
Q 47.5625 58.15625 47.5625 53.265625 
Q 47.5625 48.640625 45.0625 44.828125 
Q 42.578125 41.015625 37.703125 38.765625 
Q 44.046875 37.3125 47.5625 32.6875 
Q 51.078125 28.078125 51.078125 21.140625 
Q 51.078125 11.765625 44.234375 5.25 
Q 37.40625 -1.265625 26.953125 -1.265625 
Q 17.53125 -1.265625 11.296875 4.34375 
Q 5.078125 9.96875 4.203125 18.890625 
z
" id="ArialMT-33"/>
      </defs>
      <g style="fill:#262626;" transform="translate(290.908594 290.877812)scale(0.1 -0.1)">
       <use xlink:href="#ArialMT-33"/>
       <use x="55.615234" xlink:href="#ArialMT-30"/>
       <use x="111.230469" xlink:href="#ArialMT-30"/>
      </g>
     </g>
    </g>
    <g id="xtick_5">
     <g id="line2d_5">
      <g>
       <use style="fill:#262626;stroke:#262626;" x="369" xlink:href="#m8d2fb1dcf9" y="270.72"/>
      </g>
     </g>
     <g id="text_5">
      <!-- 400 -->
      <defs>
       <path d="M 32.328125 0 
L 32.328125 17.140625 
L 1.265625 17.140625 
L 1.265625 25.203125 
L 33.9375 71.578125 
L 41.109375 71.578125 
L 41.109375 25.203125 
L 50.78125 25.203125 
L 50.78125 17.140625 
L 41.109375 17.140625 
L 41.109375 0 
z
M 32.328125 25.203125 
L 32.328125 57.46875 
L 9.90625 25.203125 
z
" id="ArialMT-34"/>
      </defs>
      <g style="fill:#262626;" transform="translate(360.658594 290.877812)scale(0.1 -0.1)">
       <use xlink:href="#ArialMT-34"/>
       <use x="55.615234" xlink:href="#ArialMT-30"/>
       <use x="111.230469" xlink:href="#ArialMT-30"/>
      </g>
     </g>
    </g>
    <g id="xtick_6">
     <g id="line2d_6">
      <g>
       <use style="fill:#262626;stroke:#262626;" x="438.75" xlink:href="#m8d2fb1dcf9" y="270.72"/>
      </g>
     </g>
     <g id="text_6">
      <!-- 500 -->
      <defs>
       <path d="M 4.15625 18.75 
L 13.375 19.53125 
Q 14.40625 12.796875 18.140625 9.390625 
Q 21.875 6 27.15625 6 
Q 33.5 6 37.890625 10.78125 
Q 42.28125 15.578125 42.28125 23.484375 
Q 42.28125 31 38.0625 35.34375 
Q 33.84375 39.703125 27 39.703125 
Q 22.75 39.703125 19.328125 37.765625 
Q 15.921875 35.84375 13.96875 32.765625 
L 5.71875 33.84375 
L 12.640625 70.609375 
L 48.25 70.609375 
L 48.25 62.203125 
L 19.671875 62.203125 
L 15.828125 42.96875 
Q 22.265625 47.46875 29.34375 47.46875 
Q 38.71875 47.46875 45.15625 40.96875 
Q 51.609375 34.46875 51.609375 24.265625 
Q 51.609375 14.546875 45.953125 7.46875 
Q 39.0625 -1.21875 27.15625 -1.21875 
Q 17.390625 -1.21875 11.203125 4.25 
Q 5.03125 9.71875 4.15625 18.75 
z
" id="ArialMT-35"/>
      </defs>
      <g style="fill:#262626;" transform="translate(430.408594 290.877812)scale(0.1 -0.1)">
       <use xlink:href="#ArialMT-35"/>
       <use x="55.615234" xlink:href="#ArialMT-30"/>
       <use x="111.230469" xlink:href="#ArialMT-30"/>
      </g>
     </g>
    </g>
    <g id="xtick_7">
     <g id="line2d_7">
      <g>
       <use style="fill:#262626;stroke:#262626;" x="508.5" xlink:href="#m8d2fb1dcf9" y="270.72"/>
      </g>
     </g>
     <g id="text_7">
      <!-- 600 -->
      <defs>
       <path d="M 49.75 54.046875 
L 41.015625 53.375 
Q 39.84375 58.546875 37.703125 60.890625 
Q 34.125 64.65625 28.90625 64.65625 
Q 24.703125 64.65625 21.53125 62.3125 
Q 17.390625 59.28125 14.984375 53.46875 
Q 12.59375 47.65625 12.5 36.921875 
Q 15.671875 41.75 20.265625 44.09375 
Q 24.859375 46.4375 29.890625 46.4375 
Q 38.671875 46.4375 44.84375 39.96875 
Q 51.03125 33.5 51.03125 23.25 
Q 51.03125 16.5 48.125 10.71875 
Q 45.21875 4.9375 40.140625 1.859375 
Q 35.0625 -1.21875 28.609375 -1.21875 
Q 17.625 -1.21875 10.6875 6.859375 
Q 3.765625 14.9375 3.765625 33.5 
Q 3.765625 54.25 11.421875 63.671875 
Q 18.109375 71.875 29.4375 71.875 
Q 37.890625 71.875 43.28125 67.140625 
Q 48.6875 62.40625 49.75 54.046875 
z
M 13.875 23.1875 
Q 13.875 18.65625 15.796875 14.5 
Q 17.71875 10.359375 21.1875 8.171875 
Q 24.65625 6 28.46875 6 
Q 34.03125 6 38.03125 10.484375 
Q 42.046875 14.984375 42.046875 22.703125 
Q 42.046875 30.125 38.078125 34.390625 
Q 34.125 38.671875 28.125 38.671875 
Q 22.171875 38.671875 18.015625 34.390625 
Q 13.875 30.125 13.875 23.1875 
z
" id="ArialMT-36"/>
      </defs>
      <g style="fill:#262626;" transform="translate(500.158594 290.877812)scale(0.1 -0.1)">
       <use xlink:href="#ArialMT-36"/>
       <use x="55.615234" xlink:href="#ArialMT-30"/>
       <use x="111.230469" xlink:href="#ArialMT-30"/>
      </g>
     </g>
    </g>
    <g id="xtick_8">
     <g id="line2d_8">
      <g>
       <use style="fill:#262626;stroke:#262626;" x="578.25" xlink:href="#m8d2fb1dcf9" y="270.72"/>
      </g>
     </g>
     <g id="text_8">
      <!-- 700 -->
      <defs>
       <path d="M 4.734375 62.203125 
L 4.734375 70.65625 
L 51.078125 70.65625 
L 51.078125 63.8125 
Q 44.234375 56.546875 37.515625 44.484375 
Q 30.8125 32.421875 27.15625 19.671875 
Q 24.515625 10.6875 23.78125 0 
L 14.75 0 
Q 14.890625 8.453125 18.0625 20.40625 
Q 21.234375 32.375 27.171875 43.484375 
Q 33.109375 54.59375 39.796875 62.203125 
z
" id="ArialMT-37"/>
      </defs>
      <g style="fill:#262626;" transform="translate(569.908594 290.877812)scale(0.1 -0.1)">
       <use xlink:href="#ArialMT-37"/>
       <use x="55.615234" xlink:href="#ArialMT-30"/>
       <use x="111.230469" xlink:href="#ArialMT-30"/>
      </g>
     </g>
    </g>
    <g id="xtick_9">
     <g id="line2d_9">
      <g>
       <use style="fill:#262626;stroke:#262626;" x="648" xlink:href="#m8d2fb1dcf9" y="270.72"/>
      </g>
     </g>
     <g id="text_9">
      <!-- 800 -->
      <defs>
       <path d="M 17.671875 38.8125 
Q 12.203125 40.828125 9.5625 44.53125 
Q 6.9375 48.25 6.9375 53.421875 
Q 6.9375 61.234375 12.546875 66.546875 
Q 18.171875 71.875 27.484375 71.875 
Q 36.859375 71.875 42.578125 66.421875 
Q 48.296875 60.984375 48.296875 53.171875 
Q 48.296875 48.1875 45.671875 44.5 
Q 43.0625 40.828125 37.75 38.8125 
Q 44.34375 36.671875 47.78125 31.875 
Q 51.21875 27.09375 51.21875 20.453125 
Q 51.21875 11.28125 44.71875 5.03125 
Q 38.234375 -1.21875 27.640625 -1.21875 
Q 17.046875 -1.21875 10.546875 5.046875 
Q 4.046875 11.328125 4.046875 20.703125 
Q 4.046875 27.6875 7.59375 32.390625 
Q 11.140625 37.109375 17.671875 38.8125 
z
M 15.921875 53.71875 
Q 15.921875 48.640625 19.1875 45.40625 
Q 22.46875 42.1875 27.6875 42.1875 
Q 32.765625 42.1875 36.015625 45.375 
Q 39.265625 48.578125 39.265625 53.21875 
Q 39.265625 58.0625 35.90625 61.359375 
Q 32.5625 64.65625 27.59375 64.65625 
Q 22.5625 64.65625 19.234375 61.421875 
Q 15.921875 58.203125 15.921875 53.71875 
z
M 13.09375 20.65625 
Q 13.09375 16.890625 14.875 13.375 
Q 16.65625 9.859375 20.171875 7.921875 
Q 23.6875 6 27.734375 6 
Q 34.03125 6 38.125 10.046875 
Q 42.234375 14.109375 42.234375 20.359375 
Q 42.234375 26.703125 38.015625 30.859375 
Q 33.796875 35.015625 27.4375 35.015625 
Q 21.234375 35.015625 17.15625 30.90625 
Q 13.09375 26.8125 13.09375 20.65625 
z
" id="ArialMT-38"/>
      </defs>
      <g style="fill:#262626;" transform="translate(639.658594 290.877812)scale(0.1 -0.1)">
       <use xlink:href="#ArialMT-38"/>
       <use x="55.615234" xlink:href="#ArialMT-30"/>
       <use x="111.230469" xlink:href="#ArialMT-30"/>
      </g>
     </g>
    </g>
   </g>
   <g id="matplotlib.axis_2">
    <g id="ytick_1">
     <g id="line2d_10">
      <defs>
       <path d="M 0 0 
L -6 0 
" id="mf94c8f3c15" style="stroke:#262626;"/>
      </defs>
      <g>
       <use style="fill:#262626;stroke:#262626;" x="90" xlink:href="#mf94c8f3c15" y="250.56"/>
      </g>
     </g>
     <g id="text_10">
      <!-- −0.04 -->
      <defs>
       <path d="M 52.828125 31.203125 
L 5.5625 31.203125 
L 5.5625 39.40625 
L 52.828125 39.40625 
z
" id="ArialMT-2212"/>
       <path d="M 9.078125 0 
L 9.078125 10.015625 
L 19.09375 10.015625 
L 19.09375 0 
z
" id="ArialMT-2e"/>
      </defs>
      <g style="fill:#262626;" transform="translate(51.698437 254.138906)scale(0.1 -0.1)">
       <use xlink:href="#ArialMT-2212"/>
       <use x="58.398438" xlink:href="#ArialMT-30"/>
       <use x="114.013672" xlink:href="#ArialMT-2e"/>
       <use x="141.796875" xlink:href="#ArialMT-30"/>
       <use x="197.412109" xlink:href="#ArialMT-34"/>
      </g>
     </g>
    </g>
    <g id="ytick_2">
     <g id="line2d_11">
      <g>
       <use style="fill:#262626;stroke:#262626;" x="90" xlink:href="#mf94c8f3c15" y="210.24"/>
      </g>
     </g>
     <g id="text_11">
      <!-- −0.02 -->
      <g style="fill:#262626;" transform="translate(51.698437 213.818906)scale(0.1 -0.1)">
       <use xlink:href="#ArialMT-2212"/>
       <use x="58.398438" xlink:href="#ArialMT-30"/>
       <use x="114.013672" xlink:href="#ArialMT-2e"/>
       <use x="141.796875" xlink:href="#ArialMT-30"/>
       <use x="197.412109" xlink:href="#ArialMT-32"/>
      </g>
     </g>
    </g>
    <g id="ytick_3">
     <g id="line2d_12">
      <g>
       <use style="fill:#262626;stroke:#262626;" x="90" xlink:href="#mf94c8f3c15" y="169.92"/>
      </g>
     </g>
     <g id="text_12">
      <!-- 0.00 -->
      <g style="fill:#262626;" transform="translate(57.539062 173.498906)scale(0.1 -0.1)">
       <use xlink:href="#ArialMT-30"/>
       <use x="55.615234" xlink:href="#ArialMT-2e"/>
       <use x="83.398438" xlink:href="#ArialMT-30"/>
       <use x="139.013672" xlink:href="#ArialMT-30"/>
      </g>
     </g>
    </g>
    <g id="ytick_4">
     <g id="line2d_13">
      <g>
       <use style="fill:#262626;stroke:#262626;" x="90" xlink:href="#mf94c8f3c15" y="129.6"/>
      </g>
     </g>
     <g id="text_13">
      <!-- 0.02 -->
      <g style="fill:#262626;" transform="translate(57.539062 133.178906)scale(0.1 -0.1)">
       <use xlink:href="#ArialMT-30"/>
       <use x="55.615234" xlink:href="#ArialMT-2e"/>
       <use x="83.398438" xlink:href="#ArialMT-30"/>
       <use x="139.013672" xlink:href="#ArialMT-32"/>
      </g>
     </g>
    </g>
    <g id="ytick_5">
     <g id="line2d_14">
      <g>
       <use style="fill:#262626;stroke:#262626;" x="90" xlink:href="#mf94c8f3c15" y="89.28"/>
      </g>
     </g>
     <g id="text_14">
      <!-- 0.04 -->
      <g style="fill:#262626;" transform="translate(57.539062 92.858906)scale(0.1 -0.1)">
       <use xlink:href="#ArialMT-30"/>
       <use x="55.615234" xlink:href="#ArialMT-2e"/>
       <use x="83.398438" xlink:href="#ArialMT-30"/>
       <use x="139.013672" xlink:href="#ArialMT-34"/>
      </g>
     </g>
    </g>
   </g>
   <g id="PolyCollection_1">
    <path clip-path="url(#p4e32fc0aba)" d="M 90 178.201832 
L 90 169.92 
L 90.6975 169.92 
L 91.395 169.92 
L 92.0925 169.92 
L 92.79 169.92 
L 93.4875 169.92 
L 94.185 169.92 
L 94.8825 169.92 
L 95.58 169.92 
L 96.2775 169.92 
L 96.975 169.92 
L 97.6725 169.92 
L 98.37 169.92 
L 99.0675 169.92 
L 99.765 169.92 
L 100.4625 169.92 
L 101.16 169.92 
L 101.8575 169.92 
L 102.555 169.92 
L 103.2525 169.92 
L 103.95 169.92 
L 104.6475 169.92 
L 105.345 169.92 
L 106.0425 169.92 
L 106.74 169.92 
L 107.4375 169.92 
L 108.135 169.92 
L 108.8325 169.92 
L 109.53 169.92 
L 110.2275 169.92 
L 110.925 169.92 
L 111.6225 169.92 
L 112.32 169.92 
L 113.0175 169.92 
L 113.715 169.92 
L 114.4125 169.92 
L 115.11 169.92 
L 115.8075 169.92 
L 116.505 169.92 
L 117.2025 169.92 
L 117.9 169.92 
L 118.5975 169.92 
L 119.295 169.92 
L 119.9925 169.92 
L 120.69 169.92 
L 121.3875 169.92 
L 122.085 169.92 
L 122.7825 169.92 
L 123.48 169.92 
L 124.1775 169.92 
L 124.875 169.92 
L 125.5725 169.92 
L 126.27 169.92 
L 126.9675 169.92 
L 127.665 169.92 
L 128.3625 169.92 
L 129.06 169.92 
L 129.7575 169.92 
L 130.455 169.92 
L 131.1525 169.92 
L 131.85 169.92 
L 132.5475 169.92 
L 133.245 169.92 
L 133.9425 169.92 
L 134.64 169.92 
L 135.3375 169.92 
L 136.035 169.92 
L 136.7325 169.92 
L 137.43 169.92 
L 138.1275 169.92 
L 138.825 169.92 
L 139.5225 169.92 
L 140.22 169.92 
L 140.9175 169.92 
L 141.615 169.92 
L 142.3125 169.92 
L 143.01 169.92 
L 143.7075 169.92 
L 144.405 169.92 
L 145.1025 169.92 
L 145.8 169.92 
L 146.4975 169.92 
L 147.195 169.92 
L 147.8925 169.92 
L 148.59 169.92 
L 149.2875 169.92 
L 149.985 169.92 
L 150.6825 169.92 
L 151.38 169.92 
L 152.0775 169.92 
L 152.775 169.92 
L 153.4725 169.92 
L 154.17 169.92 
L 154.8675 169.92 
L 155.565 169.92 
L 156.2625 169.92 
L 156.96 169.92 
L 157.6575 169.92 
L 158.355 169.92 
L 159.0525 169.92 
L 159.75 169.92 
L 160.4475 169.92 
L 161.145 169.92 
L 161.8425 169.92 
L 162.54 169.92 
L 163.2375 169.92 
L 163.935 169.92 
L 164.6325 169.92 
L 165.33 169.92 
L 166.0275 169.92 
L 166.725 169.92 
L 167.4225 169.92 
L 168.12 169.92 
L 168.8175 169.92 
L 169.515 169.92 
L 170.2125 169.92 
L 170.91 169.92 
L 171.6075 169.92 
L 172.305 169.92 
L 173.0025 169.92 
L 173.7 169.92 
L 174.3975 169.92 
L 175.095 169.92 
L 175.7925 169.92 
L 176.49 169.92 
L 177.1875 169.92 
L 177.885 169.92 
L 178.5825 169.92 
L 179.28 169.92 
L 179.9775 169.92 
L 180.675 169.92 
L 181.3725 169.92 
L 182.07 169.92 
L 182.7675 169.92 
L 183.465 169.92 
L 184.1625 169.92 
L 184.86 169.92 
L 185.5575 169.92 
L 186.255 169.92 
L 186.9525 169.92 
L 187.65 169.92 
L 188.3475 169.92 
L 189.045 169.92 
L 189.7425 169.92 
L 190.44 169.92 
L 191.1375 169.92 
L 191.835 169.92 
L 192.5325 169.92 
L 193.23 169.92 
L 193.9275 169.92 
L 194.625 169.92 
L 195.3225 169.92 
L 196.02 169.92 
L 196.7175 169.92 
L 197.415 169.92 
L 198.1125 169.92 
L 198.81 169.92 
L 199.5075 169.92 
L 200.205 169.92 
L 200.9025 169.92 
L 201.6 169.92 
L 202.2975 169.92 
L 202.995 169.92 
L 203.6925 169.92 
L 204.39 169.92 
L 205.0875 169.92 
L 205.785 169.92 
L 206.4825 169.92 
L 207.18 169.92 
L 207.8775 169.92 
L 208.575 169.92 
L 209.2725 169.92 
L 209.97 169.92 
L 210.6675 169.92 
L 211.365 169.92 
L 212.0625 169.92 
L 212.76 169.92 
L 213.4575 169.92 
L 214.155 169.92 
L 214.8525 169.92 
L 215.55 169.92 
L 216.2475 169.92 
L 216.945 169.92 
L 217.6425 169.92 
L 218.34 169.92 
L 219.0375 169.92 
L 219.735 169.92 
L 220.4325 169.92 
L 221.13 169.92 
L 221.8275 169.92 
L 222.525 169.92 
L 223.2225 169.92 
L 223.92 169.92 
L 224.6175 169.92 
L 225.315 169.92 
L 226.0125 169.92 
L 226.71 169.92 
L 227.4075 169.92 
L 228.105 169.92 
L 228.8025 169.92 
L 229.5 169.92 
L 230.1975 169.92 
L 230.895 169.92 
L 231.5925 169.92 
L 232.29 169.92 
L 232.9875 169.92 
L 233.685 169.92 
L 234.3825 169.92 
L 235.08 169.92 
L 235.7775 169.92 
L 236.475 169.92 
L 237.1725 169.92 
L 237.87 169.92 
L 238.5675 169.92 
L 239.265 169.92 
L 239.9625 169.92 
L 240.66 169.92 
L 241.3575 169.92 
L 242.055 169.92 
L 242.7525 169.92 
L 243.45 169.92 
L 244.1475 169.92 
L 244.845 169.92 
L 245.5425 169.92 
L 246.24 169.92 
L 246.9375 169.92 
L 247.635 169.92 
L 248.3325 169.92 
L 249.03 169.92 
L 249.7275 169.92 
L 250.425 169.92 
L 251.1225 169.92 
L 251.82 169.92 
L 252.5175 169.92 
L 253.215 169.92 
L 253.9125 169.92 
L 254.61 169.92 
L 255.3075 169.92 
L 256.005 169.92 
L 256.7025 169.92 
L 257.4 169.92 
L 258.0975 169.92 
L 258.795 169.92 
L 259.4925 169.92 
L 260.19 169.92 
L 260.8875 169.92 
L 261.585 169.92 
L 262.2825 169.92 
L 262.98 169.92 
L 263.6775 169.92 
L 264.375 169.92 
L 265.0725 169.92 
L 265.77 169.92 
L 266.4675 169.92 
L 267.165 169.92 
L 267.8625 169.92 
L 268.56 169.92 
L 269.2575 169.92 
L 269.955 169.92 
L 270.6525 169.92 
L 271.35 169.92 
L 272.0475 169.92 
L 272.745 169.92 
L 273.4425 169.92 
L 274.14 169.92 
L 274.8375 169.92 
L 275.535 169.92 
L 276.2325 169.92 
L 276.93 169.92 
L 277.6275 169.92 
L 278.325 169.92 
L 279.0225 169.92 
L 279.72 169.92 
L 280.4175 169.92 
L 281.115 169.92 
L 281.8125 169.92 
L 282.51 169.92 
L 283.2075 169.92 
L 283.905 169.92 
L 284.6025 169.92 
L 285.3 169.92 
L 285.9975 169.92 
L 286.695 169.92 
L 287.3925 169.92 
L 288.09 169.92 
L 288.7875 169.92 
L 289.485 169.92 
L 290.1825 169.92 
L 290.88 169.92 
L 291.5775 169.92 
L 292.275 169.92 
L 292.9725 169.92 
L 293.67 169.92 
L 294.3675 169.92 
L 295.065 169.92 
L 295.7625 169.92 
L 296.46 169.92 
L 297.1575 169.92 
L 297.855 169.92 
L 298.5525 169.92 
L 299.25 169.92 
L 299.9475 169.92 
L 300.645 169.92 
L 301.3425 169.92 
L 302.04 169.92 
L 302.7375 169.92 
L 303.435 169.92 
L 304.1325 169.92 
L 304.83 169.92 
L 305.5275 169.92 
L 306.225 169.92 
L 306.9225 169.92 
L 307.62 169.92 
L 308.3175 169.92 
L 309.015 169.92 
L 309.7125 169.92 
L 310.41 169.92 
L 311.1075 169.92 
L 311.805 169.92 
L 312.5025 169.92 
L 313.2 169.92 
L 313.8975 169.92 
L 314.595 169.92 
L 315.2925 169.92 
L 315.99 169.92 
L 316.6875 169.92 
L 317.385 169.92 
L 318.0825 169.92 
L 318.78 169.92 
L 319.4775 169.92 
L 320.175 169.92 
L 320.8725 169.92 
L 321.57 169.92 
L 322.2675 169.92 
L 322.965 169.92 
L 323.6625 169.92 
L 324.36 169.92 
L 325.0575 169.92 
L 325.755 169.92 
L 326.4525 169.92 
L 327.15 169.92 
L 327.8475 169.92 
L 328.545 169.92 
L 329.2425 169.92 
L 329.94 169.92 
L 330.6375 169.92 
L 331.335 169.92 
L 332.0325 169.92 
L 332.73 169.92 
L 333.4275 169.92 
L 334.125 169.92 
L 334.8225 169.92 
L 335.52 169.92 
L 336.2175 169.92 
L 336.915 169.92 
L 337.6125 169.92 
L 338.31 169.92 
L 339.0075 169.92 
L 339.705 169.92 
L 340.4025 169.92 
L 341.1 169.92 
L 341.7975 169.92 
L 342.495 169.92 
L 343.1925 169.92 
L 343.89 169.92 
L 344.5875 169.92 
L 345.285 169.92 
L 345.9825 169.92 
L 346.68 169.92 
L 347.3775 169.92 
L 348.075 169.92 
L 348.7725 169.92 
L 349.47 169.92 
L 350.1675 169.92 
L 350.865 169.92 
L 351.5625 169.92 
L 352.26 169.92 
L 352.9575 169.92 
L 353.655 169.92 
L 354.3525 169.92 
L 355.05 169.92 
L 355.7475 169.92 
L 356.445 169.92 
L 357.1425 169.92 
L 357.84 169.92 
L 358.5375 169.92 
L 359.235 169.92 
L 359.9325 169.92 
L 360.63 169.92 
L 361.3275 169.92 
L 362.025 169.92 
L 362.7225 169.92 
L 363.42 169.92 
L 364.1175 169.92 
L 364.815 169.92 
L 365.5125 169.92 
L 366.21 169.92 
L 366.9075 169.92 
L 367.605 169.92 
L 368.3025 169.92 
L 369 169.92 
L 369.6975 169.92 
L 370.395 169.92 
L 371.0925 169.92 
L 371.79 169.92 
L 372.4875 169.92 
L 373.185 169.92 
L 373.8825 169.92 
L 374.58 169.92 
L 375.2775 169.92 
L 375.975 169.92 
L 376.6725 169.92 
L 377.37 169.92 
L 378.0675 169.92 
L 378.765 169.92 
L 379.4625 169.92 
L 380.16 169.92 
L 380.8575 169.92 
L 381.555 169.92 
L 382.2525 169.92 
L 382.95 169.92 
L 383.6475 169.92 
L 384.345 169.92 
L 385.0425 169.92 
L 385.74 169.92 
L 386.4375 169.92 
L 387.135 169.92 
L 387.8325 169.92 
L 388.53 169.92 
L 389.2275 169.92 
L 389.925 169.92 
L 390.6225 169.92 
L 391.32 169.92 
L 392.0175 169.92 
L 392.715 169.92 
L 393.4125 169.92 
L 394.11 169.92 
L 394.8075 169.92 
L 395.505 169.92 
L 396.2025 169.92 
L 396.9 169.92 
L 397.5975 169.92 
L 398.295 169.92 
L 398.9925 169.92 
L 399.69 169.92 
L 400.3875 169.92 
L 401.085 169.92 
L 401.7825 169.92 
L 402.48 169.92 
L 403.1775 169.92 
L 403.875 169.92 
L 404.5725 169.92 
L 405.27 169.92 
L 405.9675 169.92 
L 406.665 169.92 
L 407.3625 169.92 
L 408.06 169.92 
L 408.7575 169.92 
L 409.455 169.92 
L 410.1525 169.92 
L 410.85 169.92 
L 411.5475 169.92 
L 412.245 169.92 
L 412.9425 169.92 
L 413.64 169.92 
L 414.3375 169.92 
L 415.035 169.92 
L 415.7325 169.92 
L 416.43 169.92 
L 417.1275 169.92 
L 417.825 169.92 
L 418.5225 169.92 
L 419.22 169.92 
L 419.9175 169.92 
L 420.615 169.92 
L 421.3125 169.92 
L 422.01 169.92 
L 422.7075 169.92 
L 423.405 169.92 
L 424.1025 169.92 
L 424.8 169.92 
L 425.4975 169.92 
L 426.195 169.92 
L 426.8925 169.92 
L 427.59 169.92 
L 428.2875 169.92 
L 428.985 169.92 
L 429.6825 169.92 
L 430.38 169.92 
L 431.0775 169.92 
L 431.775 169.92 
L 432.4725 169.92 
L 433.17 169.92 
L 433.8675 169.92 
L 434.565 169.92 
L 435.2625 169.92 
L 435.96 169.92 
L 436.6575 169.92 
L 437.355 169.92 
L 438.0525 169.92 
L 438.75 169.92 
L 439.4475 169.92 
L 440.145 169.92 
L 440.8425 169.92 
L 441.54 169.92 
L 442.2375 169.92 
L 442.935 169.92 
L 443.6325 169.92 
L 444.33 169.92 
L 445.0275 169.92 
L 445.725 169.92 
L 446.4225 169.92 
L 447.12 169.92 
L 447.8175 169.92 
L 448.515 169.92 
L 449.2125 169.92 
L 449.91 169.92 
L 450.6075 169.92 
L 451.305 169.92 
L 452.0025 169.92 
L 452.7 169.92 
L 453.3975 169.92 
L 454.095 169.92 
L 454.7925 169.92 
L 455.49 169.92 
L 456.1875 169.92 
L 456.885 169.92 
L 457.5825 169.92 
L 458.28 169.92 
L 458.9775 169.92 
L 459.675 169.92 
L 460.3725 169.92 
L 461.07 169.92 
L 461.7675 169.92 
L 462.465 169.92 
L 463.1625 169.92 
L 463.86 169.92 
L 464.5575 169.92 
L 465.255 169.92 
L 465.9525 169.92 
L 466.65 169.92 
L 467.3475 169.92 
L 468.045 169.92 
L 468.7425 169.92 
L 469.44 169.92 
L 470.1375 169.92 
L 470.835 169.92 
L 471.5325 169.92 
L 472.23 169.92 
L 472.9275 169.92 
L 473.625 169.92 
L 474.3225 169.92 
L 475.02 169.92 
L 475.7175 169.92 
L 476.415 169.92 
L 477.1125 169.92 
L 477.81 169.92 
L 478.5075 169.92 
L 479.205 169.92 
L 479.9025 169.92 
L 480.6 169.92 
L 481.2975 169.92 
L 481.995 169.92 
L 482.6925 169.92 
L 483.39 169.92 
L 484.0875 169.92 
L 484.785 169.92 
L 485.4825 169.92 
L 486.18 169.92 
L 486.8775 169.92 
L 487.575 169.92 
L 488.2725 169.92 
L 488.97 169.92 
L 489.6675 169.92 
L 490.365 169.92 
L 491.0625 169.92 
L 491.76 169.92 
L 492.4575 169.92 
L 493.155 169.92 
L 493.8525 169.92 
L 494.55 169.92 
L 495.2475 169.92 
L 495.945 169.92 
L 496.6425 169.92 
L 497.34 169.92 
L 498.0375 169.92 
L 498.735 169.92 
L 499.4325 169.92 
L 500.13 169.92 
L 500.8275 169.92 
L 501.525 169.92 
L 502.2225 169.92 
L 502.92 169.92 
L 503.6175 169.92 
L 504.315 169.92 
L 505.0125 169.92 
L 505.71 169.92 
L 506.4075 169.92 
L 507.105 169.92 
L 507.8025 169.92 
L 508.5 169.92 
L 509.1975 169.92 
L 509.895 169.92 
L 510.5925 169.92 
L 511.29 169.92 
L 511.9875 169.92 
L 512.685 169.92 
L 513.3825 169.92 
L 514.08 169.92 
L 514.7775 169.92 
L 515.475 169.92 
L 516.1725 169.92 
L 516.87 169.92 
L 517.5675 169.92 
L 518.265 169.92 
L 518.9625 169.92 
L 519.66 169.92 
L 520.3575 169.92 
L 521.055 169.92 
L 521.7525 169.92 
L 522.45 169.92 
L 523.1475 169.92 
L 523.845 169.92 
L 524.5425 169.92 
L 525.24 169.92 
L 525.9375 169.92 
L 526.635 169.92 
L 527.3325 169.92 
L 528.03 169.92 
L 528.7275 169.92 
L 529.425 169.92 
L 530.1225 169.92 
L 530.82 169.92 
L 531.5175 169.92 
L 532.215 169.92 
L 532.9125 169.92 
L 533.61 169.92 
L 534.3075 169.92 
L 535.005 169.92 
L 535.7025 169.92 
L 536.4 169.92 
L 537.0975 169.92 
L 537.795 169.92 
L 538.4925 169.92 
L 539.19 169.92 
L 539.8875 169.92 
L 540.585 169.92 
L 541.2825 169.92 
L 541.98 169.92 
L 542.6775 169.92 
L 543.375 169.92 
L 544.0725 169.92 
L 544.77 169.92 
L 545.4675 169.92 
L 546.165 169.92 
L 546.8625 169.92 
L 547.56 169.92 
L 548.2575 169.92 
L 548.955 169.92 
L 549.6525 169.92 
L 550.35 169.92 
L 551.0475 169.92 
L 551.745 169.92 
L 552.4425 169.92 
L 553.14 169.92 
L 553.8375 169.92 
L 554.535 169.92 
L 555.2325 169.92 
L 555.93 169.92 
L 556.6275 169.92 
L 557.325 169.92 
L 558.0225 169.92 
L 558.72 169.92 
L 559.4175 169.92 
L 560.115 169.92 
L 560.8125 169.92 
L 561.51 169.92 
L 562.2075 169.92 
L 562.905 169.92 
L 563.6025 169.92 
L 564.3 169.92 
L 564.9975 169.92 
L 565.695 169.92 
L 566.3925 169.92 
L 567.09 169.92 
L 567.7875 169.92 
L 568.485 169.92 
L 569.1825 169.92 
L 569.88 169.92 
L 570.5775 169.92 
L 571.275 169.92 
L 571.9725 169.92 
L 572.67 169.92 
L 573.3675 169.92 
L 574.065 169.92 
L 574.7625 169.92 
L 575.46 169.92 
L 576.1575 169.92 
L 576.855 169.92 
L 577.5525 169.92 
L 578.25 169.92 
L 578.9475 169.92 
L 579.645 169.92 
L 580.3425 169.92 
L 581.04 169.92 
L 581.7375 169.92 
L 582.435 169.92 
L 583.1325 169.92 
L 583.83 169.92 
L 584.5275 169.92 
L 585.225 169.92 
L 585.9225 169.92 
L 586.62 169.92 
L 587.3175 169.92 
L 588.015 169.92 
L 588.7125 169.92 
L 589.41 169.92 
L 590.1075 169.92 
L 590.805 169.92 
L 591.5025 169.92 
L 592.2 169.92 
L 592.8975 169.92 
L 593.595 169.92 
L 594.2925 169.92 
L 594.99 169.92 
L 595.6875 169.92 
L 596.385 169.92 
L 597.0825 169.92 
L 597.78 169.92 
L 598.4775 169.92 
L 599.175 169.92 
L 599.8725 169.92 
L 600.57 169.92 
L 601.2675 169.92 
L 601.965 169.92 
L 602.6625 169.92 
L 603.36 169.92 
L 604.0575 169.92 
L 604.755 169.92 
L 605.4525 169.92 
L 606.15 169.92 
L 606.8475 169.92 
L 607.545 169.92 
L 608.2425 169.92 
L 608.94 169.92 
L 609.6375 169.92 
L 610.335 169.92 
L 611.0325 169.92 
L 611.73 169.92 
L 612.4275 169.92 
L 613.125 169.92 
L 613.8225 169.92 
L 614.52 169.92 
L 615.2175 169.92 
L 615.915 169.92 
L 616.6125 169.92 
L 617.31 169.92 
L 618.0075 169.92 
L 618.705 169.92 
L 619.4025 169.92 
L 620.1 169.92 
L 620.7975 169.92 
L 621.495 169.92 
L 622.1925 169.92 
L 622.89 169.92 
L 623.5875 169.92 
L 624.285 169.92 
L 624.9825 169.92 
L 625.68 169.92 
L 626.3775 169.92 
L 627.075 169.92 
L 627.7725 169.92 
L 628.47 169.92 
L 629.1675 169.92 
L 629.865 169.92 
L 630.5625 169.92 
L 631.26 169.92 
L 631.9575 169.92 
L 632.655 169.92 
L 633.3525 169.92 
L 634.05 169.92 
L 634.7475 169.92 
L 635.445 169.92 
L 636.1425 169.92 
L 636.84 169.92 
L 637.5375 169.92 
L 638.235 169.92 
L 638.9325 169.92 
L 639.63 169.92 
L 640.3275 169.92 
L 641.025 169.92 
L 641.7225 169.92 
L 642.42 169.92 
L 643.1175 169.92 
L 643.815 169.92 
L 644.5125 169.92 
L 645.21 169.92 
L 645.9075 169.92 
L 646.605 169.92 
L 646.605 169.92 
L 646.605 169.92 
L 645.9075 169.97042 
L 645.21 170.104454 
L 644.5125 170.276171 
L 643.815 170.489747 
L 643.1175 170.754611 
L 642.42 171.046153 
L 641.7225 171.356349 
L 641.025 171.721838 
L 640.3275 172.117173 
L 639.63 172.533467 
L 638.9325 172.995274 
L 638.235 173.465141 
L 637.5375 173.961575 
L 636.84 174.469245 
L 636.1425 174.989536 
L 635.445 175.518125 
L 634.7475 176.045018 
L 634.05 176.554632 
L 633.3525 177.037131 
L 632.655 177.52212 
L 631.9575 177.983158 
L 631.26 178.427621 
L 630.5625 178.857418 
L 629.865 179.274579 
L 629.1675 179.642025 
L 628.47 179.984714 
L 627.7725 180.294197 
L 627.075 180.584709 
L 626.3775 180.820223 
L 625.68 181.02119 
L 624.9825 181.174737 
L 624.285 181.268383 
L 623.5875 181.340565 
L 622.89 181.357071 
L 622.1925 181.334571 
L 621.495 181.267648 
L 620.7975 181.145654 
L 620.1 180.952798 
L 619.4025 180.729895 
L 618.705 180.450788 
L 618.0075 180.128999 
L 617.31 179.750397 
L 616.6125 179.312524 
L 615.915 178.84703 
L 615.2175 178.329771 
L 614.52 177.770648 
L 613.8225 177.191112 
L 613.125 176.584775 
L 612.4275 175.94547 
L 611.73 175.284112 
L 611.0325 174.634206 
L 610.335 173.984346 
L 609.6375 173.323124 
L 608.94 172.672842 
L 608.2425 172.027698 
L 607.545 171.381848 
L 606.8475 170.76867 
L 606.15 170.187656 
L 605.4525 169.632428 
L 604.755 169.068386 
L 604.0575 168.550635 
L 603.36 168.03866 
L 602.6625 167.564726 
L 601.965 167.110361 
L 601.2675 166.690545 
L 600.57 166.303165 
L 599.8725 165.945837 
L 599.175 165.632733 
L 598.4775 165.332844 
L 597.78 165.093477 
L 597.0825 164.871804 
L 596.385 164.692076 
L 595.6875 164.544582 
L 594.99 164.430546 
L 594.2925 164.367725 
L 593.595 164.328627 
L 592.8975 164.330385 
L 592.2 164.356178 
L 591.5025 164.388984 
L 590.805 164.462144 
L 590.1075 164.569449 
L 589.41 164.698801 
L 588.7125 164.837923 
L 588.015 165.008066 
L 587.3175 165.21342 
L 586.62 165.429869 
L 585.9225 165.655615 
L 585.225 165.871975 
L 584.5275 166.088356 
L 583.83 166.314166 
L 583.1325 166.558731 
L 582.435 166.814418 
L 581.7375 167.067897 
L 581.04 167.317063 
L 580.3425 167.559846 
L 579.645 167.777421 
L 578.9475 167.984788 
L 578.25 168.163416 
L 577.5525 168.311821 
L 576.855 168.456782 
L 576.1575 168.563481 
L 575.46 168.670246 
L 574.7625 168.725772 
L 574.065 168.740799 
L 573.3675 168.72641 
L 572.67 168.665915 
L 571.9725 168.599034 
L 571.275 168.498311 
L 570.5775 168.35898 
L 569.88 168.176598 
L 569.1825 167.98069 
L 568.485 167.739271 
L 567.7875 167.454347 
L 567.09 167.161899 
L 566.3925 166.841948 
L 565.695 166.497152 
L 564.9975 166.14158 
L 564.3 165.794994 
L 563.6025 165.437864 
L 562.905 165.061954 
L 562.2075 164.703999 
L 561.51 164.344566 
L 560.8125 163.997845 
L 560.115 163.672319 
L 559.4175 163.365091 
L 558.72 163.089919 
L 558.0225 162.826678 
L 557.325 162.605569 
L 556.6275 162.394814 
L 555.93 162.229778 
L 555.2325 162.078219 
L 554.535 161.963805 
L 553.8375 161.89309 
L 553.14 161.844251 
L 552.4425 161.85691 
L 551.745 161.886145 
L 551.0475 161.970927 
L 550.35 162.082541 
L 549.6525 162.253674 
L 548.955 162.454892 
L 548.2575 162.673318 
L 547.56 162.93515 
L 546.8625 163.238211 
L 546.165 163.574381 
L 545.4675 163.929663 
L 544.77 164.312309 
L 544.0725 164.713537 
L 543.375 165.135617 
L 542.6775 165.569438 
L 541.98 166.039407 
L 541.2825 166.502404 
L 540.585 166.976991 
L 539.8875 167.459224 
L 539.19 167.939494 
L 538.4925 168.436221 
L 537.795 168.934071 
L 537.0975 169.434511 
L 536.4 169.933383 
L 535.7025 170.432143 
L 535.005 170.909842 
L 534.3075 171.39052 
L 533.61 171.836572 
L 532.9125 172.277903 
L 532.215 172.682836 
L 531.5175 173.076018 
L 530.82 173.448578 
L 530.1225 173.791821 
L 529.425 174.125301 
L 528.7275 174.412636 
L 528.03 174.673847 
L 527.3325 174.901161 
L 526.635 175.087087 
L 525.9375 175.224479 
L 525.24 175.323398 
L 524.5425 175.377421 
L 523.845 175.391702 
L 523.1475 175.371723 
L 522.45 175.295242 
L 521.7525 175.1741 
L 521.055 174.998097 
L 520.3575 174.779901 
L 519.66 174.526926 
L 518.9625 174.235674 
L 518.265 173.902961 
L 517.5675 173.553961 
L 516.87 173.180369 
L 516.1725 172.774084 
L 515.475 172.360893 
L 514.7775 171.938624 
L 514.08 171.510788 
L 513.3825 171.080938 
L 512.685 170.641442 
L 511.9875 170.19035 
L 511.29 169.737011 
L 510.5925 169.296398 
L 509.895 168.883374 
L 509.1975 168.484566 
L 508.5 168.120094 
L 507.8025 167.764974 
L 507.105 167.461374 
L 506.4075 167.189406 
L 505.71 166.956934 
L 505.0125 166.749081 
L 504.315 166.589983 
L 503.6175 166.480963 
L 502.92 166.40612 
L 502.2225 166.399689 
L 501.525 166.433712 
L 500.8275 166.519111 
L 500.13 166.638369 
L 499.4325 166.796099 
L 498.735 167.007795 
L 498.0375 167.266098 
L 497.34 167.568861 
L 496.6425 167.907965 
L 495.945 168.291798 
L 495.2475 168.717171 
L 494.55 169.191754 
L 493.8525 169.677989 
L 493.155 170.199849 
L 492.4575 170.719383 
L 491.76 171.265889 
L 491.0625 171.818019 
L 490.365 172.371185 
L 489.6675 172.915189 
L 488.97 173.456715 
L 488.2725 173.980059 
L 487.575 174.486476 
L 486.8775 174.994166 
L 486.18 175.487706 
L 485.4825 175.951792 
L 484.785 176.382567 
L 484.0875 176.793259 
L 483.39 177.16925 
L 482.6925 177.496213 
L 481.995 177.771431 
L 481.2975 178.003821 
L 480.6 178.180249 
L 479.9025 178.304849 
L 479.205 178.370986 
L 478.5075 178.389313 
L 477.81 178.342873 
L 477.1125 178.243254 
L 476.415 178.080081 
L 475.7175 177.877118 
L 475.02 177.60804 
L 474.3225 177.280685 
L 473.625 176.897774 
L 472.9275 176.456886 
L 472.23 175.961683 
L 471.5325 175.416281 
L 470.835 174.853223 
L 470.1375 174.249174 
L 469.44 173.614758 
L 468.7425 172.966449 
L 468.045 172.304031 
L 467.3475 171.621806 
L 466.65 170.936644 
L 465.9525 170.265444 
L 465.255 169.613783 
L 464.5575 168.970269 
L 463.86 168.340247 
L 463.1625 167.745761 
L 462.465 167.16934 
L 461.7675 166.654989 
L 461.07 166.167767 
L 460.3725 165.717324 
L 459.675 165.307403 
L 458.9775 164.935807 
L 458.28 164.59442 
L 457.5825 164.31969 
L 456.885 164.102698 
L 456.1875 163.928439 
L 455.49 163.803962 
L 454.7925 163.758314 
L 454.095 163.763863 
L 453.3975 163.831766 
L 452.7 163.961461 
L 452.0025 164.15747 
L 451.305 164.412564 
L 450.6075 164.724623 
L 449.91 165.096657 
L 449.2125 165.519971 
L 448.515 165.996651 
L 447.8175 166.517134 
L 447.12 167.065891 
L 446.4225 167.649567 
L 445.725 168.268915 
L 445.0275 168.913185 
L 444.33 169.593832 
L 443.6325 170.282791 
L 442.935 170.974338 
L 442.2375 171.657125 
L 441.54 172.347887 
L 440.8425 173.024078 
L 440.145 173.696887 
L 439.4475 174.343917 
L 438.75 174.982199 
L 438.0525 175.578421 
L 437.355 176.138832 
L 436.6575 176.658776 
L 435.96 177.122728 
L 435.2625 177.538039 
L 434.565 177.895654 
L 433.8675 178.198205 
L 433.17 178.431974 
L 432.4725 178.606223 
L 431.775 178.708298 
L 431.0775 178.737353 
L 430.38 178.693146 
L 429.6825 178.581646 
L 428.985 178.398178 
L 428.2875 178.144266 
L 427.59 177.816417 
L 426.8925 177.422958 
L 426.195 176.97276 
L 425.4975 176.463962 
L 424.8 175.90079 
L 424.1025 175.293528 
L 423.405 174.636015 
L 422.7075 173.956125 
L 422.01 173.231494 
L 421.3125 172.479348 
L 420.615 171.705938 
L 419.9175 170.912085 
L 419.22 170.104388 
L 418.5225 169.289556 
L 417.825 168.485565 
L 417.1275 167.68789 
L 416.43 166.908762 
L 415.7325 166.149051 
L 415.035 165.403866 
L 414.3375 164.701807 
L 413.64 164.043105 
L 412.9425 163.422029 
L 412.245 162.866148 
L 411.5475 162.363275 
L 410.85 161.906382 
L 410.1525 161.510472 
L 409.455 161.178833 
L 408.7575 160.914221 
L 408.06 160.713232 
L 407.3625 160.571934 
L 406.665 160.508308 
L 405.9675 160.494872 
L 405.27 160.548543 
L 404.5725 160.657671 
L 403.875 160.838157 
L 403.1775 161.082898 
L 402.48 161.378656 
L 401.7825 161.739781 
L 401.085 162.140864 
L 400.3875 162.589775 
L 399.69 163.088388 
L 398.9925 163.615752 
L 398.295 164.173089 
L 397.5975 164.772574 
L 396.9 165.398022 
L 396.2025 166.049837 
L 395.505 166.711401 
L 394.8075 167.382817 
L 394.11 168.058508 
L 393.4125 168.710451 
L 392.715 169.355637 
L 392.0175 169.988705 
L 391.32 170.593191 
L 390.6225 171.186482 
L 389.925 171.730034 
L 389.2275 172.236138 
L 388.53 172.717395 
L 387.8325 173.153 
L 387.135 173.539334 
L 386.4375 173.889993 
L 385.74 174.179655 
L 385.0425 174.405913 
L 384.345 174.578091 
L 383.6475 174.69476 
L 382.95 174.743744 
L 382.2525 174.719035 
L 381.555 174.626441 
L 380.8575 174.472333 
L 380.16 174.252389 
L 379.4625 173.968436 
L 378.765 173.617232 
L 378.0675 173.196093 
L 377.37 172.725325 
L 376.6725 172.192032 
L 375.975 171.61185 
L 375.2775 170.995202 
L 374.58 170.336006 
L 373.8825 169.645343 
L 373.185 168.923349 
L 372.4875 168.181625 
L 371.79 167.426334 
L 371.0925 166.658149 
L 370.395 165.883453 
L 369.6975 165.108682 
L 369 164.357082 
L 368.3025 163.606885 
L 367.605 162.897939 
L 366.9075 162.213725 
L 366.21 161.559928 
L 365.5125 160.947582 
L 364.815 160.381777 
L 364.1175 159.856007 
L 363.42 159.385846 
L 362.7225 158.975202 
L 362.025 158.627485 
L 361.3275 158.345585 
L 360.63 158.143048 
L 359.9325 158.004751 
L 359.235 157.937446 
L 358.5375 157.947293 
L 357.84 158.011801 
L 357.1425 158.152845 
L 356.445 158.352445 
L 355.7475 158.620146 
L 355.05 158.948124 
L 354.3525 159.322447 
L 353.655 159.751211 
L 352.9575 160.22525 
L 352.26 160.751831 
L 351.5625 161.33218 
L 350.865 161.944668 
L 350.1675 162.589809 
L 349.47 163.262242 
L 348.7725 163.956381 
L 348.075 164.672059 
L 347.3775 165.40333 
L 346.68 166.149721 
L 345.9825 166.899428 
L 345.285 167.640619 
L 344.5875 168.372738 
L 343.89 169.095303 
L 343.1925 169.791108 
L 342.495 170.459973 
L 341.7975 171.09634 
L 341.1 171.68932 
L 340.4025 172.24519 
L 339.705 172.759332 
L 339.0075 173.22187 
L 338.31 173.634565 
L 337.6125 173.988385 
L 336.915 174.291595 
L 336.2175 174.541676 
L 335.52 174.725344 
L 334.8225 174.841074 
L 334.125 174.887905 
L 333.4275 174.871049 
L 332.73 174.785044 
L 332.0325 174.625003 
L 331.335 174.403461 
L 330.6375 174.116654 
L 329.94 173.755763 
L 329.2425 173.33499 
L 328.545 172.874637 
L 327.8475 172.35052 
L 327.15 171.7894 
L 326.4525 171.184738 
L 325.755 170.535953 
L 325.0575 169.85404 
L 324.36 169.144663 
L 323.6625 168.413718 
L 322.965 167.667277 
L 322.2675 166.911542 
L 321.57 166.158396 
L 320.8725 165.419697 
L 320.175 164.69038 
L 319.4775 163.982106 
L 318.78 163.30076 
L 318.0825 162.646402 
L 317.385 162.03007 
L 316.6875 161.462488 
L 315.99 160.942769 
L 315.2925 160.480834 
L 314.595 160.080522 
L 313.8975 159.756361 
L 313.2 159.494241 
L 312.5025 159.290735 
L 311.805 159.147536 
L 311.1075 159.065832 
L 310.41 159.051905 
L 309.7125 159.111473 
L 309.015 159.238439 
L 308.3175 159.43735 
L 307.62 159.695349 
L 306.9225 160.021496 
L 306.225 160.407479 
L 305.5275 160.866899 
L 304.83 161.395937 
L 304.1325 161.978994 
L 303.435 162.616828 
L 302.7375 163.30974 
L 302.04 164.040769 
L 301.3425 164.809443 
L 300.645 165.609376 
L 299.9475 166.433921 
L 299.25 167.276227 
L 298.5525 168.129295 
L 297.855 168.986038 
L 297.1575 169.85054 
L 296.46 170.710018 
L 295.7625 171.557329 
L 295.065 172.379831 
L 294.3675 173.176293 
L 293.67 173.940097 
L 292.9725 174.664895 
L 292.275 175.35027 
L 291.5775 175.97932 
L 290.88 176.558024 
L 290.1825 177.07037 
L 289.485 177.523304 
L 288.7875 177.907461 
L 288.09 178.219649 
L 287.3925 178.462876 
L 286.695 178.62952 
L 285.9975 178.723797 
L 285.3 178.73372 
L 284.6025 178.676014 
L 283.905 178.545555 
L 283.2075 178.343428 
L 282.51 178.071311 
L 281.8125 177.731467 
L 281.115 177.326718 
L 280.4175 176.860427 
L 279.72 176.342072 
L 279.0225 175.770356 
L 278.325 175.150031 
L 277.6275 174.491853 
L 276.93 173.801289 
L 276.2325 173.078477 
L 275.535 172.335024 
L 274.8375 171.577106 
L 274.14 170.816625 
L 273.4425 170.054295 
L 272.745 169.29085 
L 272.0475 168.543837 
L 271.35 167.808258 
L 270.6525 167.095827 
L 269.955 166.412465 
L 269.2575 165.758246 
L 268.56 165.149811 
L 267.8625 164.592215 
L 267.165 164.095694 
L 266.4675 163.653168 
L 265.77 163.273917 
L 265.0725 162.961091 
L 264.375 162.711689 
L 263.6775 162.538986 
L 262.98 162.433213 
L 262.2825 162.389647 
L 261.585 162.419854 
L 260.8875 162.517981 
L 260.19 162.688814 
L 259.4925 162.930935 
L 258.795 163.242332 
L 258.0975 163.620417 
L 257.4 164.062048 
L 256.7025 164.563557 
L 256.005 165.120777 
L 255.3075 165.734679 
L 254.61 166.388958 
L 253.9125 167.083781 
L 253.215 167.807772 
L 252.5175 168.560518 
L 251.82 169.330161 
L 251.1225 170.110308 
L 250.425 170.900078 
L 249.7275 171.692908 
L 249.03 172.482213 
L 248.3325 173.261433 
L 247.635 174.024094 
L 246.9375 174.763858 
L 246.24 175.463376 
L 245.5425 176.12804 
L 244.845 176.746723 
L 244.1475 177.325491 
L 243.45 177.84833 
L 242.7525 178.316498 
L 242.055 178.720503 
L 241.3575 179.051386 
L 240.66 179.317602 
L 239.9625 179.511336 
L 239.265 179.63098 
L 238.5675 179.669936 
L 237.87 179.627882 
L 237.1725 179.510768 
L 236.475 179.319569 
L 235.7775 179.050269 
L 235.08 178.71071 
L 234.3825 178.303712 
L 233.685 177.832657 
L 232.9875 177.295857 
L 232.29 176.697772 
L 231.5925 176.054575 
L 230.895 175.36601 
L 230.1975 174.632195 
L 229.5 173.864828 
L 228.8025 173.059083 
L 228.105 172.232857 
L 227.4075 171.387415 
L 226.71 170.529779 
L 226.0125 169.67268 
L 225.315 168.817635 
L 224.6175 167.97175 
L 223.92 167.142052 
L 223.2225 166.335437 
L 222.525 165.558604 
L 221.8275 164.81801 
L 221.13 164.119808 
L 220.4325 163.464196 
L 219.735 162.862225 
L 219.0375 162.313294 
L 218.34 161.827566 
L 217.6425 161.409076 
L 216.945 161.061303 
L 216.2475 160.787136 
L 215.55 160.588852 
L 214.8525 160.468099 
L 214.155 160.425881 
L 213.4575 160.468151 
L 212.76 160.588955 
L 212.0625 160.787289 
L 211.365 161.067107 
L 210.6675 161.420483 
L 209.97 161.844481 
L 209.2725 162.335577 
L 208.575 162.88969 
L 207.8775 163.502218 
L 207.18 164.16807 
L 206.4825 164.881714 
L 205.785 165.637221 
L 205.0875 166.428312 
L 204.39 167.248416 
L 203.6925 168.090717 
L 202.995 168.948218 
L 202.2975 169.824997 
L 201.6 170.702566 
L 200.9025 171.573632 
L 200.205 172.430959 
L 199.5075 173.267423 
L 198.81 174.076073 
L 198.1125 174.855793 
L 197.415 175.594503 
L 196.7175 176.286063 
L 196.02 176.924729 
L 195.3225 177.505194 
L 194.625 178.022634 
L 193.9275 178.472751 
L 193.23 178.851804 
L 192.5325 179.156644 
L 191.835 179.384738 
L 191.1375 179.534191 
L 190.44 179.60376 
L 189.7425 179.592869 
L 189.045 179.501607 
L 188.3475 179.330733 
L 187.65 179.081666 
L 186.9525 178.756477 
L 186.255 178.357866 
L 185.5575 177.889146 
L 184.86 177.354212 
L 184.1625 176.757508 
L 183.465 176.103992 
L 182.7675 175.399094 
L 182.07 174.648671 
L 181.3725 173.858958 
L 180.675 173.036517 
L 179.9775 172.188181 
L 179.28 171.320999 
L 178.5825 170.442176 
L 177.885 169.559015 
L 177.1875 168.678853 
L 176.49 167.809004 
L 175.7925 166.956694 
L 175.095 166.129007 
L 174.3975 165.332818 
L 173.7 164.574743 
L 173.0025 163.861081 
L 172.305 163.197763 
L 171.6075 162.590298 
L 170.91 162.043735 
L 170.2125 161.562614 
L 169.515 161.150934 
L 168.8175 160.812115 
L 168.12 160.548972 
L 167.4225 160.35809 
L 166.725 160.246656 
L 166.0275 160.215596 
L 165.33 160.265169 
L 164.6325 160.394963 
L 163.935 160.603899 
L 163.2375 160.890241 
L 162.54 161.25161 
L 161.8425 161.679402 
L 161.145 162.175663 
L 160.4475 162.736271 
L 159.75 163.356568 
L 159.0525 164.031399 
L 158.355 164.755158 
L 157.6575 165.521831 
L 156.96 166.325047 
L 156.2625 167.158134 
L 155.565 168.014169 
L 154.8675 168.886039 
L 154.17 169.766499 
L 153.4725 170.648236 
L 152.775 171.523921 
L 152.0775 172.380678 
L 151.38 173.216989 
L 150.6825 174.020304 
L 149.985 174.789549 
L 149.2875 175.518335 
L 148.59 176.200604 
L 147.8925 176.830689 
L 147.195 177.403354 
L 146.4975 177.913841 
L 145.8 178.357908 
L 145.1025 178.731866 
L 144.405 179.032607 
L 143.7075 179.257632 
L 143.01 179.405073 
L 142.3125 179.473703 
L 141.615 179.462953 
L 140.9175 179.372912 
L 140.22 179.204328 
L 139.5225 178.953 
L 138.825 178.626617 
L 138.1275 178.227893 
L 137.43 177.765741 
L 136.7325 177.238401 
L 136.035 176.650253 
L 135.3375 176.006184 
L 134.64 175.311545 
L 133.9425 174.577712 
L 133.245 173.805178 
L 132.5475 173.000363 
L 131.85 172.169953 
L 131.1525 171.320849 
L 130.455 170.460105 
L 129.7575 169.594874 
L 129.06 168.732344 
L 128.3625 167.879682 
L 127.665 167.043973 
L 126.9675 166.232161 
L 126.27 165.45099 
L 125.5725 164.706952 
L 124.875 164.006228 
L 124.1775 163.35464 
L 123.48 162.757604 
L 122.7825 162.220079 
L 122.085 161.746531 
L 121.3875 161.340896 
L 120.69 161.006543 
L 119.9925 160.746251 
L 119.295 160.562182 
L 118.5975 160.455867 
L 117.9 160.428187 
L 117.2025 160.479373 
L 116.505 160.609001 
L 115.8075 160.815992 
L 115.11 161.098627 
L 114.4125 161.454558 
L 113.715 161.880827 
L 113.0175 162.373892 
L 112.32 162.929657 
L 111.6225 163.543504 
L 110.925 164.210332 
L 110.2275 164.924601 
L 109.53 165.680376 
L 108.8325 166.471377 
L 108.135 167.291033 
L 107.4375 168.132532 
L 106.74 168.988883 
L 106.0425 169.852971 
L 105.345 170.717616 
L 104.6475 171.575633 
L 103.95 172.419894 
L 103.2525 173.243384 
L 102.555 174.03926 
L 101.8575 174.80091 
L 101.16 175.522004 
L 100.4625 176.196553 
L 99.765 176.818951 
L 99.0675 177.384026 
L 98.37 177.887084 
L 97.6725 178.323944 
L 96.975 178.690977 
L 96.2775 178.985133 
L 95.58 179.203968 
L 94.8825 179.351267 
L 94.185 179.420202 
L 93.4875 179.410201 
L 92.79 179.321347 
L 92.0925 179.154379 
L 91.395 178.910684 
L 90.6975 178.592287 
L 90 178.201832 
z
" style="fill:#e0ffff;"/>
   </g>
   <g id="line2d_15">
    <path clip-path="url(#p4e32fc0aba)" d="M 90 178.201832 
L 91.395 178.910684 
L 92.79 179.321347 
L 94.185 179.420202 
L 95.58 179.203968 
L 96.975 178.690977 
L 98.37 177.887084 
L 99.765 176.818951 
L 101.16 175.522004 
L 103.2525 173.243384 
L 107.4375 168.132532 
L 110.2275 164.924601 
L 112.32 162.929657 
L 113.715 161.880827 
L 115.11 161.098627 
L 116.505 160.609001 
L 117.9 160.428187 
L 119.295 160.562182 
L 120.69 161.006543 
L 122.085 161.746531 
L 123.48 162.757604 
L 124.875 164.006228 
L 126.9675 166.232161 
L 130.455 170.460105 
L 133.245 173.805178 
L 135.3375 176.006184 
L 136.7325 177.238401 
L 138.1275 178.227893 
L 139.5225 178.953 
L 140.9175 179.372912 
L 142.3125 179.473703 
L 143.7075 179.257632 
L 145.1025 178.731866 
L 146.4975 177.913841 
L 147.8925 176.830689 
L 149.2875 175.518335 
L 151.38 173.216989 
L 154.8675 168.886039 
L 157.6575 165.521831 
L 159.75 163.356568 
L 161.145 162.175663 
L 162.54 161.25161 
L 163.935 160.603899 
L 165.33 160.265169 
L 166.725 160.246656 
L 168.12 160.548972 
L 169.515 161.150934 
L 170.91 162.043735 
L 172.305 163.197763 
L 174.3975 165.332818 
L 177.1875 168.678853 
L 181.3725 173.858958 
L 183.465 176.103992 
L 184.86 177.354212 
L 186.255 178.357866 
L 187.65 179.081666 
L 189.045 179.501607 
L 190.44 179.60376 
L 191.835 179.384738 
L 193.23 178.851804 
L 194.625 178.022634 
L 196.02 176.924729 
L 197.415 175.594503 
L 199.5075 173.267423 
L 207.18 164.16807 
L 208.575 162.88969 
L 209.97 161.844481 
L 211.365 161.067107 
L 212.76 160.588955 
L 214.155 160.425881 
L 215.55 160.588852 
L 216.945 161.061303 
L 218.34 161.827566 
L 219.735 162.862225 
L 221.13 164.119808 
L 223.2225 166.335437 
L 226.71 170.529779 
L 229.5 173.864828 
L 231.5925 176.054575 
L 232.9875 177.295857 
L 234.3825 178.303712 
L 235.7775 179.050269 
L 237.1725 179.510768 
L 238.5675 179.669936 
L 239.9625 179.511336 
L 241.3575 179.051386 
L 242.7525 178.316498 
L 244.1475 177.325491 
L 246.24 175.463376 
L 248.3325 173.261433 
L 254.61 166.388958 
L 256.7025 164.563557 
L 258.0975 163.620417 
L 259.4925 162.930935 
L 260.8875 162.517981 
L 262.2825 162.389647 
L 263.6775 162.538986 
L 265.0725 162.961091 
L 266.4675 163.653168 
L 267.8625 164.592215 
L 269.2575 165.758246 
L 271.35 167.808258 
L 279.0225 175.770356 
L 280.4175 176.860427 
L 281.8125 177.731467 
L 283.2075 178.343428 
L 284.6025 178.676014 
L 285.9975 178.723797 
L 287.3925 178.462876 
L 288.7875 177.907461 
L 290.1825 177.07037 
L 291.5775 175.97932 
L 292.9725 174.664895 
L 295.065 172.379831 
L 299.25 167.276227 
L 302.04 164.040769 
L 304.1325 161.978994 
L 305.5275 160.866899 
L 306.9225 160.021496 
L 308.3175 159.43735 
L 309.7125 159.111473 
L 311.1075 159.065832 
L 312.5025 159.290735 
L 313.8975 159.756361 
L 315.2925 160.480834 
L 316.6875 161.462488 
L 318.78 163.30076 
L 321.57 166.158396 
L 325.755 170.535953 
L 327.8475 172.35052 
L 329.2425 173.33499 
L 330.6375 174.116654 
L 332.0325 174.625003 
L 333.4275 174.871049 
L 334.8225 174.841074 
L 336.2175 174.541676 
L 337.6125 173.988385 
L 339.0075 173.22187 
L 340.4025 172.24519 
L 342.495 170.459973 
L 345.285 167.640619 
L 350.1675 162.589809 
L 352.26 160.751831 
L 353.655 159.751211 
L 355.05 158.948124 
L 356.445 158.352445 
L 357.84 158.011801 
L 359.235 157.937446 
L 360.63 158.143048 
L 362.025 158.627485 
L 363.42 159.385846 
L 364.815 160.381777 
L 366.9075 162.213725 
L 369 164.357082 
L 375.2775 170.995202 
L 377.37 172.725325 
L 378.765 173.617232 
L 380.16 174.252389 
L 381.555 174.626441 
L 382.95 174.743744 
L 384.345 174.578091 
L 385.74 174.179655 
L 387.135 173.539334 
L 388.53 172.717395 
L 390.6225 171.186482 
L 393.4125 168.710451 
L 398.9925 163.615752 
L 401.085 162.140864 
L 402.48 161.378656 
L 403.875 160.838157 
L 405.27 160.548543 
L 406.665 160.508308 
L 408.06 160.713232 
L 409.455 161.178833 
L 410.85 161.906382 
L 412.245 162.866148 
L 413.64 164.043105 
L 415.7325 166.149051 
L 419.22 170.104388 
L 422.01 173.231494 
L 424.1025 175.293528 
L 426.195 176.97276 
L 427.59 177.816417 
L 428.985 178.398178 
L 430.38 178.693146 
L 431.775 178.708298 
L 433.17 178.431974 
L 434.565 177.895654 
L 435.96 177.122728 
L 437.355 176.138832 
L 439.4475 174.343917 
L 442.935 170.974338 
L 446.4225 167.649567 
L 448.515 165.996651 
L 449.91 165.096657 
L 451.305 164.412564 
L 452.7 163.961461 
L 454.095 163.763863 
L 455.49 163.803962 
L 456.885 164.102698 
L 458.28 164.59442 
L 460.3725 165.717324 
L 462.465 167.16934 
L 465.255 169.613783 
L 471.5325 175.416281 
L 472.9275 176.456886 
L 474.3225 177.280685 
L 475.7175 177.877118 
L 477.1125 178.243254 
L 478.5075 178.389313 
L 479.9025 178.304849 
L 481.2975 178.003821 
L 482.6925 177.496213 
L 484.0875 176.793259 
L 486.18 175.487706 
L 489.6675 172.915189 
L 494.55 169.191754 
L 495.945 168.291798 
L 498.0375 167.266098 
L 499.4325 166.796099 
L 501.525 166.433712 
L 502.92 166.40612 
L 504.315 166.589983 
L 505.71 166.956934 
L 507.8025 167.764974 
L 510.5925 169.296398 
L 516.87 173.180369 
L 518.9625 174.235674 
L 521.055 174.998097 
L 522.45 175.295242 
L 523.845 175.391702 
L 525.24 175.323398 
L 526.635 175.087087 
L 528.03 174.673847 
L 530.1225 173.791821 
L 532.215 172.682836 
L 534.3075 171.39052 
L 544.77 164.312309 
L 546.8625 163.238211 
L 548.2575 162.673318 
L 550.35 162.082541 
L 552.4425 161.85691 
L 553.8375 161.89309 
L 555.2325 162.078219 
L 557.325 162.605569 
L 559.4175 163.365091 
L 562.2075 164.703999 
L 567.7875 167.454347 
L 569.1825 167.98069 
L 571.275 168.498311 
L 573.3675 168.72641 
L 575.46 168.670246 
L 578.25 168.163416 
L 580.3425 167.559846 
L 587.3175 165.21342 
L 589.41 164.698801 
L 591.5025 164.388984 
L 594.2925 164.367725 
L 595.6875 164.544582 
L 597.78 165.093477 
L 599.175 165.632733 
L 601.2675 166.690545 
L 603.36 168.03866 
L 606.15 170.187656 
L 608.2425 172.027698 
L 615.2175 178.329771 
L 617.31 179.750397 
L 618.705 180.450788 
L 620.1 180.952798 
L 621.495 181.267648 
L 622.89 181.357071 
L 624.285 181.268383 
L 625.68 181.02119 
L 627.075 180.584709 
L 629.1675 179.642025 
L 631.26 178.427621 
L 634.05 176.554632 
L 639.63 172.533467 
L 641.7225 171.356349 
L 643.815 170.489747 
L 645.21 170.104454 
L 646.605 169.92 
L 646.605 169.92 
" style="fill:none;stroke:#008080;stroke-linecap:round;stroke-width:1.75;"/>
   </g>
   <g id="patch_3">
    <path d="M 90 270.72 
L 90 69.12 
" style="fill:none;stroke:#262626;stroke-linecap:square;stroke-linejoin:miter;stroke-width:1.25;"/>
   </g>
   <g id="patch_4">
    <path d="M 90 270.72 
L 648 270.72 
" style="fill:none;stroke:#262626;stroke-linecap:square;stroke-linejoin:miter;stroke-width:1.25;"/>
   </g>
  </g>
  <g id="axes_2">
   <g id="patch_5">
    <path d="M 90 512.64 
L 648 512.64 
L 648 311.04 
L 90 311.04 
z
" style="fill:#ffffff;"/>
   </g>
   <g id="matplotlib.axis_3">
    <g id="xtick_10">
     <g id="line2d_16">
      <g>
       <use style="fill:#262626;stroke:#262626;" x="191.454545" xlink:href="#m8d2fb1dcf9" y="512.64"/>
      </g>
     </g>
     <g id="text_15">
      <!-- 200 -->
      <g style="fill:#262626;" transform="translate(183.113139 532.797812)scale(0.1 -0.1)">
       <use xlink:href="#ArialMT-32"/>
       <use x="55.615234" xlink:href="#ArialMT-30"/>
       <use x="111.230469" xlink:href="#ArialMT-30"/>
      </g>
     </g>
    </g>
    <g id="xtick_11">
     <g id="line2d_17">
      <g>
       <use style="fill:#262626;stroke:#262626;" x="304.181818" xlink:href="#m8d2fb1dcf9" y="512.64"/>
      </g>
     </g>
     <g id="text_16">
      <!-- 400 -->
      <g style="fill:#262626;" transform="translate(295.840412 532.797812)scale(0.1 -0.1)">
       <use xlink:href="#ArialMT-34"/>
       <use x="55.615234" xlink:href="#ArialMT-30"/>
       <use x="111.230469" xlink:href="#ArialMT-30"/>
      </g>
     </g>
    </g>
    <g id="xtick_12">
     <g id="line2d_18">
      <g>
       <use style="fill:#262626;stroke:#262626;" x="416.909091" xlink:href="#m8d2fb1dcf9" y="512.64"/>
      </g>
     </g>
     <g id="text_17">
      <!-- 600 -->
      <g style="fill:#262626;" transform="translate(408.567685 532.797812)scale(0.1 -0.1)">
       <use xlink:href="#ArialMT-36"/>
       <use x="55.615234" xlink:href="#ArialMT-30"/>
       <use x="111.230469" xlink:href="#ArialMT-30"/>
      </g>
     </g>
    </g>
    <g id="xtick_13">
     <g id="line2d_19">
      <g>
       <use style="fill:#262626;stroke:#262626;" x="529.636364" xlink:href="#m8d2fb1dcf9" y="512.64"/>
      </g>
     </g>
     <g id="text_18">
      <!-- 800 -->
      <g style="fill:#262626;" transform="translate(521.294957 532.797812)scale(0.1 -0.1)">
       <use xlink:href="#ArialMT-38"/>
       <use x="55.615234" xlink:href="#ArialMT-30"/>
       <use x="111.230469" xlink:href="#ArialMT-30"/>
      </g>
     </g>
    </g>
    <g id="xtick_14">
     <g id="line2d_20">
      <g>
       <use style="fill:#262626;stroke:#262626;" x="642.363636" xlink:href="#m8d2fb1dcf9" y="512.64"/>
      </g>
     </g>
     <g id="text_19">
      <!-- 1000 -->
      <g style="fill:#262626;" transform="translate(631.241761 532.797812)scale(0.1 -0.1)">
       <use xlink:href="#ArialMT-31"/>
       <use x="55.615234" xlink:href="#ArialMT-30"/>
       <use x="111.230469" xlink:href="#ArialMT-30"/>
       <use x="166.845703" xlink:href="#ArialMT-30"/>
      </g>
     </g>
    </g>
   </g>
   <g id="matplotlib.axis_4">
    <g id="ytick_6">
     <g id="line2d_21">
      <g>
       <use style="fill:#262626;stroke:#262626;" x="90" xlink:href="#mf94c8f3c15" y="512.64"/>
      </g>
     </g>
     <g id="text_20">
      <!-- 0 -->
      <g style="fill:#262626;" transform="translate(71.439063 516.218906)scale(0.1 -0.1)">
       <use xlink:href="#ArialMT-30"/>
      </g>
     </g>
    </g>
    <g id="ytick_7">
     <g id="line2d_22">
      <g>
       <use style="fill:#262626;stroke:#262626;" x="90" xlink:href="#mf94c8f3c15" y="490.24"/>
      </g>
     </g>
     <g id="text_21">
      <!-- 2 -->
      <g style="fill:#262626;" transform="translate(71.439063 493.818906)scale(0.1 -0.1)">
       <use xlink:href="#ArialMT-32"/>
      </g>
     </g>
    </g>
    <g id="ytick_8">
     <g id="line2d_23">
      <g>
       <use style="fill:#262626;stroke:#262626;" x="90" xlink:href="#mf94c8f3c15" y="467.84"/>
      </g>
     </g>
     <g id="text_22">
      <!-- 4 -->
      <g style="fill:#262626;" transform="translate(71.439063 471.418906)scale(0.1 -0.1)">
       <use xlink:href="#ArialMT-34"/>
      </g>
     </g>
    </g>
    <g id="ytick_9">
     <g id="line2d_24">
      <g>
       <use style="fill:#262626;stroke:#262626;" x="90" xlink:href="#mf94c8f3c15" y="445.44"/>
      </g>
     </g>
     <g id="text_23">
      <!-- 6 -->
      <g style="fill:#262626;" transform="translate(71.439063 449.018906)scale(0.1 -0.1)">
       <use xlink:href="#ArialMT-36"/>
      </g>
     </g>
    </g>
    <g id="ytick_10">
     <g id="line2d_25">
      <g>
       <use style="fill:#262626;stroke:#262626;" x="90" xlink:href="#mf94c8f3c15" y="423.04"/>
      </g>
     </g>
     <g id="text_24">
      <!-- 8 -->
      <g style="fill:#262626;" transform="translate(71.439063 426.618906)scale(0.1 -0.1)">
       <use xlink:href="#ArialMT-38"/>
      </g>
     </g>
    </g>
    <g id="ytick_11">
     <g id="line2d_26">
      <g>
       <use style="fill:#262626;stroke:#262626;" x="90" xlink:href="#mf94c8f3c15" y="400.64"/>
      </g>
     </g>
     <g id="text_25">
      <!-- 10 -->
      <g style="fill:#262626;" transform="translate(65.878125 404.218906)scale(0.1 -0.1)">
       <use xlink:href="#ArialMT-31"/>
       <use x="55.615234" xlink:href="#ArialMT-30"/>
      </g>
     </g>
    </g>
    <g id="ytick_12">
     <g id="line2d_27">
      <g>
       <use style="fill:#262626;stroke:#262626;" x="90" xlink:href="#mf94c8f3c15" y="378.24"/>
      </g>
     </g>
     <g id="text_26">
      <!-- 12 -->
      <g style="fill:#262626;" transform="translate(65.878125 381.818906)scale(0.1 -0.1)">
       <use xlink:href="#ArialMT-31"/>
       <use x="55.615234" xlink:href="#ArialMT-32"/>
      </g>
     </g>
    </g>
    <g id="ytick_13">
     <g id="line2d_28">
      <g>
       <use style="fill:#262626;stroke:#262626;" x="90" xlink:href="#mf94c8f3c15" y="355.84"/>
      </g>
     </g>
     <g id="text_27">
      <!-- 14 -->
      <g style="fill:#262626;" transform="translate(65.878125 359.418906)scale(0.1 -0.1)">
       <use xlink:href="#ArialMT-31"/>
       <use x="55.615234" xlink:href="#ArialMT-34"/>
      </g>
     </g>
    </g>
    <g id="ytick_14">
     <g id="line2d_29">
      <g>
       <use style="fill:#262626;stroke:#262626;" x="90" xlink:href="#mf94c8f3c15" y="333.44"/>
      </g>
     </g>
     <g id="text_28">
      <!-- 16 -->
      <g style="fill:#262626;" transform="translate(65.878125 337.018906)scale(0.1 -0.1)">
       <use xlink:href="#ArialMT-31"/>
       <use x="55.615234" xlink:href="#ArialMT-36"/>
      </g>
     </g>
    </g>
    <g id="ytick_15">
     <g id="line2d_30">
      <g>
       <use style="fill:#262626;stroke:#262626;" x="90" xlink:href="#mf94c8f3c15" y="311.04"/>
      </g>
     </g>
     <g id="text_29">
      <!-- 18 -->
      <g style="fill:#262626;" transform="translate(65.878125 314.618906)scale(0.1 -0.1)">
       <use xlink:href="#ArialMT-31"/>
       <use x="55.615234" xlink:href="#ArialMT-38"/>
      </g>
     </g>
    </g>
   </g>
   <g id="line2d_31">
    <path clip-path="url(#p9ad5d2a44d)" d="M 90 477.654723 
L 95.636364 452.736402 
L 101.272727 431.923589 
L 106.909091 427.92302 
L 112.545455 440.45326 
L 118.181818 444.705349 
L 123.818182 448.961059 
L 129.454545 457.370701 
L 135.090909 456.375715 
L 140.727273 434.868159 
L 146.363636 408.816951 
L 152 389.988216 
L 157.636364 371.492183 
L 163.272727 352.310178 
L 168.909091 342.280664 
L 174.545455 348.647566 
L 180.181818 355.802406 
L 185.818182 363.350788 
L 191.454545 378.270766 
L 197.090909 391.147889 
L 202.727273 394.129256 
L 208.363636 396.550705 
L 214 393.395457 
L 219.636364 389.651786 
L 225.272727 392.702199 
L 230.909091 396.085016 
L 236.545455 399.690878 
L 242.181818 407.737617 
L 247.818182 414.331388 
L 253.454545 417.809913 
L 259.090909 422.903097 
L 264.727273 426.347751 
L 270.363636 429.764905 
L 276 436.797845 
L 281.636364 444.59905 
L 287.272727 452.348689 
L 292.909091 461.235722 
L 298.545455 467.982454 
L 304.181818 471.144774 
L 309.818182 472.257688 
L 315.454545 471.707893 
L 321.090909 472.117482 
L 326.727273 473.818281 
L 332.363636 475.619312 
L 338 478.193498 
L 343.636364 480.655986 
L 349.272727 482.144164 
L 354.909091 483.974362 
L 360.545455 485.825198 
L 366.181818 487.914885 
L 371.818182 490.804554 
L 377.454545 493.872728 
L 383.090909 496.544264 
L 388.727273 498.469641 
L 394.363636 499.417825 
L 400 499.768128 
L 405.636364 498.821458 
L 411.272727 497.224183 
L 416.909091 494.909956 
L 422.545455 492.447818 
L 428.181818 490.656474 
L 433.818182 489.398754 
L 439.454545 488.863228 
" style="fill:none;stroke:#b22222;stroke-linecap:round;stroke-width:1.75;"/>
   </g>
   <g id="line2d_32">
    <path clip-path="url(#p9ad5d2a44d)" d="M 152 512.64 
L 152 311.04 
" style="fill:none;stroke:#4c72b0;stroke-linecap:round;stroke-width:1.75;"/>
   </g>
   <g id="patch_6">
    <path d="M 90 512.64 
L 90 311.04 
" style="fill:none;stroke:#262626;stroke-linecap:square;stroke-linejoin:miter;stroke-width:1.25;"/>
   </g>
   <g id="patch_7">
    <path d="M 90 512.64 
L 648 512.64 
" style="fill:none;stroke:#262626;stroke-linecap:square;stroke-linejoin:miter;stroke-width:1.25;"/>
   </g>
   <g id="text_30">
    <!-- f = 640 Hz -->
    <defs>
     <path d="M 8.6875 0 
L 8.6875 45.015625 
L 0.921875 45.015625 
L 0.921875 51.859375 
L 8.6875 51.859375 
L 8.6875 57.375 
Q 8.6875 62.59375 9.625 65.140625 
Q 10.890625 68.5625 14.078125 70.671875 
Q 17.28125 72.796875 23.046875 72.796875 
Q 26.765625 72.796875 31.25 71.921875 
L 29.9375 64.265625 
Q 27.203125 64.75 24.75 64.75 
Q 20.75 64.75 19.09375 63.03125 
Q 17.4375 61.328125 17.4375 56.640625 
L 17.4375 51.859375 
L 27.546875 51.859375 
L 27.546875 45.015625 
L 17.4375 45.015625 
L 17.4375 0 
z
" id="ArialMT-66"/>
     <path id="ArialMT-20"/>
     <path d="M 52.828125 42.09375 
L 5.5625 42.09375 
L 5.5625 50.296875 
L 52.828125 50.296875 
z
M 52.828125 20.359375 
L 5.5625 20.359375 
L 5.5625 28.5625 
L 52.828125 28.5625 
z
" id="ArialMT-3d"/>
     <path d="M 8.015625 0 
L 8.015625 71.578125 
L 17.484375 71.578125 
L 17.484375 42.1875 
L 54.6875 42.1875 
L 54.6875 71.578125 
L 64.15625 71.578125 
L 64.15625 0 
L 54.6875 0 
L 54.6875 33.734375 
L 17.484375 33.734375 
L 17.484375 0 
z
" id="ArialMT-48"/>
     <path d="M 1.953125 0 
L 1.953125 7.125 
L 34.96875 45.015625 
Q 29.34375 44.734375 25.046875 44.734375 
L 3.90625 44.734375 
L 3.90625 51.859375 
L 46.296875 51.859375 
L 46.296875 46.046875 
L 18.21875 13.140625 
L 12.796875 7.125 
Q 18.703125 7.5625 23.875 7.5625 
L 47.859375 7.5625 
L 47.859375 0 
z
" id="ArialMT-7a"/>
    </defs>
    <g style="fill:#262626;" transform="translate(529.636364 403.742188)scale(0.12 -0.12)">
     <use xlink:href="#ArialMT-66"/>
     <use x="27.783203" xlink:href="#ArialMT-20"/>
     <use x="55.566406" xlink:href="#ArialMT-3d"/>
     <use x="113.964844" xlink:href="#ArialMT-20"/>
     <use x="141.748047" xlink:href="#ArialMT-36"/>
     <use x="197.363281" xlink:href="#ArialMT-34"/>
     <use x="252.978516" xlink:href="#ArialMT-30"/>
     <use x="308.59375" xlink:href="#ArialMT-20"/>
     <use x="336.376953" xlink:href="#ArialMT-48"/>
     <use x="408.59375" xlink:href="#ArialMT-7a"/>
    </g>
   </g>
   <g id="PathCollection_1">
    <defs>
     <path d="M 0 3.5 
C 0.928211 3.5 1.81853 3.131218 2.474874 2.474874 
C 3.131218 1.81853 3.5 0.928211 3.5 0 
C 3.5 -0.928211 3.131218 -1.81853 2.474874 -2.474874 
C 1.81853 -3.131218 0.928211 -3.5 0 -3.5 
C -0.928211 -3.5 -1.81853 -3.131218 -2.474874 -2.474874 
C -3.131218 -1.81853 -3.5 -0.928211 -3.5 0 
C -3.5 0.928211 -3.131218 1.81853 -2.474874 2.474874 
C -1.81853 3.131218 -0.928211 3.5 0 3.5 
z
" id="m2d64dda922" style="stroke:#800000;stroke-width:0.3;"/>
    </defs>
    <g clip-path="url(#p9ad5d2a44d)">
     <use style="fill:#800000;stroke:#800000;stroke-width:0.3;" x="439.454545" xlink:href="#m2d64dda922" y="488.863228"/>
    </g>
   </g>
  </g>
 </g>
 <defs>
  <clipPath id="p4e32fc0aba">
   <rect height="201.6" width="558" x="90" y="69.12"/>
  </clipPath>
  <clipPath id="p9ad5d2a44d">
   <rect height="201.6" width="558" x="90" y="311.04"/>
  </clipPath>
 </defs>
</svg>
