<?xml version="1.0" encoding="utf-8" standalone="no"?>
<!DOCTYPE svg PUBLIC "-//W3C//DTD SVG 1.1//EN"
  "http://www.w3.org/Graphics/SVG/1.1/DTD/svg11.dtd">
<!-- Created with matplotlib (http://matplotlib.org/) -->
<svg height="576pt" version="1.1" viewBox="0 0 720 576" width="720pt" xmlns="http://www.w3.org/2000/svg" xmlns:xlink="http://www.w3.org/1999/xlink">
 <defs>
  <style type="text/css">
*{stroke-linecap:butt;stroke-linejoin:round;}
  </style>
 </defs>
 <g id="figure_1">
  <g id="patch_1">
   <path d="M 0 576 
L 720 576 
L 720 0 
L 0 0 
z
" style="fill:#ffffff;"/>
  </g>
  <g id="axes_1">
   <g id="patch_2">
    <path d="M 90 270.72 
L 648 270.72 
L 648 69.12 
L 90 69.12 
z
" style="fill:#ffffff;"/>
   </g>
   <g id="matplotlib.axis_1">
    <g id="xtick_1">
     <g id="line2d_1">
      <defs>
       <path d="M 0 0 
L 0 6 
" id="m2cfd82d7db" style="stroke:#262626;"/>
      </defs>
      <g>
       <use style="fill:#262626;stroke:#262626;" x="90" xlink:href="#m2cfd82d7db" y="270.72"/>
      </g>
     </g>
     <g id="text_1">
      <!-- 0 -->
      <defs>
       <path d="M 4.15625 35.296875 
Q 4.15625 48 6.765625 55.734375 
Q 9.375 63.484375 14.515625 67.671875 
Q 19.671875 71.875 27.484375 71.875 
Q 33.25 71.875 37.59375 69.546875 
Q 41.9375 67.234375 44.765625 62.859375 
Q 47.609375 58.5 49.21875 52.21875 
Q 50.828125 45.953125 50.828125 35.296875 
Q 50.828125 22.703125 48.234375 14.96875 
Q 45.65625 7.234375 40.5 3 
Q 35.359375 -1.21875 27.484375 -1.21875 
Q 17.140625 -1.21875 11.234375 6.203125 
Q 4.15625 15.140625 4.15625 35.296875 
z
M 13.1875 35.296875 
Q 13.1875 17.671875 17.3125 11.828125 
Q 21.4375 6 27.484375 6 
Q 33.546875 6 37.671875 11.859375 
Q 41.796875 17.71875 41.796875 35.296875 
Q 41.796875 52.984375 37.671875 58.78125 
Q 33.546875 64.59375 27.390625 64.59375 
Q 21.34375 64.59375 17.71875 59.46875 
Q 13.1875 52.9375 13.1875 35.296875 
z
" id="ArialMT-30"/>
      </defs>
      <g style="fill:#262626;" transform="translate(87.219531 290.877812)scale(0.1 -0.1)">
       <use xlink:href="#ArialMT-30"/>
      </g>
     </g>
    </g>
    <g id="xtick_2">
     <g id="line2d_2">
      <g>
       <use style="fill:#262626;stroke:#262626;" x="159.75" xlink:href="#m2cfd82d7db" y="270.72"/>
      </g>
     </g>
     <g id="text_2">
      <!-- 100 -->
      <defs>
       <path d="M 37.25 0 
L 28.46875 0 
L 28.46875 56 
Q 25.296875 52.984375 20.140625 49.953125 
Q 14.984375 46.921875 10.890625 45.40625 
L 10.890625 53.90625 
Q 18.265625 57.375 23.78125 62.296875 
Q 29.296875 67.234375 31.59375 71.875 
L 37.25 71.875 
z
" id="ArialMT-31"/>
      </defs>
      <g style="fill:#262626;" transform="translate(151.408594 290.877812)scale(0.1 -0.1)">
       <use xlink:href="#ArialMT-31"/>
       <use x="55.615234" xlink:href="#ArialMT-30"/>
       <use x="111.230469" xlink:href="#ArialMT-30"/>
      </g>
     </g>
    </g>
    <g id="xtick_3">
     <g id="line2d_3">
      <g>
       <use style="fill:#262626;stroke:#262626;" x="229.5" xlink:href="#m2cfd82d7db" y="270.72"/>
      </g>
     </g>
     <g id="text_3">
      <!-- 200 -->
      <defs>
       <path d="M 50.34375 8.453125 
L 50.34375 0 
L 3.03125 0 
Q 2.9375 3.171875 4.046875 6.109375 
Q 5.859375 10.9375 9.828125 15.625 
Q 13.8125 20.3125 21.34375 26.46875 
Q 33.015625 36.03125 37.109375 41.625 
Q 41.21875 47.21875 41.21875 52.203125 
Q 41.21875 57.421875 37.46875 61 
Q 33.734375 64.59375 27.734375 64.59375 
Q 21.390625 64.59375 17.578125 60.78125 
Q 13.765625 56.984375 13.71875 50.25 
L 4.6875 51.171875 
Q 5.609375 61.28125 11.65625 66.578125 
Q 17.71875 71.875 27.9375 71.875 
Q 38.234375 71.875 44.234375 66.15625 
Q 50.25 60.453125 50.25 52 
Q 50.25 47.703125 48.484375 43.546875 
Q 46.734375 39.40625 42.65625 34.8125 
Q 38.578125 30.21875 29.109375 22.21875 
Q 21.1875 15.578125 18.9375 13.203125 
Q 16.703125 10.84375 15.234375 8.453125 
z
" id="ArialMT-32"/>
      </defs>
      <g style="fill:#262626;" transform="translate(221.158594 290.877812)scale(0.1 -0.1)">
       <use xlink:href="#ArialMT-32"/>
       <use x="55.615234" xlink:href="#ArialMT-30"/>
       <use x="111.230469" xlink:href="#ArialMT-30"/>
      </g>
     </g>
    </g>
    <g id="xtick_4">
     <g id="line2d_4">
      <g>
       <use style="fill:#262626;stroke:#262626;" x="299.25" xlink:href="#m2cfd82d7db" y="270.72"/>
      </g>
     </g>
     <g id="text_4">
      <!-- 300 -->
      <defs>
       <path d="M 4.203125 18.890625 
L 12.984375 20.0625 
Q 14.5 12.59375 18.140625 9.296875 
Q 21.78125 6 27 6 
Q 33.203125 6 37.46875 10.296875 
Q 41.75 14.59375 41.75 20.953125 
Q 41.75 27 37.796875 30.921875 
Q 33.84375 34.859375 27.734375 34.859375 
Q 25.25 34.859375 21.53125 33.890625 
L 22.515625 41.609375 
Q 23.390625 41.5 23.921875 41.5 
Q 29.546875 41.5 34.03125 44.421875 
Q 38.53125 47.359375 38.53125 53.46875 
Q 38.53125 58.296875 35.25 61.46875 
Q 31.984375 64.65625 26.8125 64.65625 
Q 21.6875 64.65625 18.265625 61.421875 
Q 14.84375 58.203125 13.875 51.765625 
L 5.078125 53.328125 
Q 6.6875 62.15625 12.390625 67.015625 
Q 18.109375 71.875 26.609375 71.875 
Q 32.46875 71.875 37.390625 69.359375 
Q 42.328125 66.84375 44.9375 62.5 
Q 47.5625 58.15625 47.5625 53.265625 
Q 47.5625 48.640625 45.0625 44.828125 
Q 42.578125 41.015625 37.703125 38.765625 
Q 44.046875 37.3125 47.5625 32.6875 
Q 51.078125 28.078125 51.078125 21.140625 
Q 51.078125 11.765625 44.234375 5.25 
Q 37.40625 -1.265625 26.953125 -1.265625 
Q 17.53125 -1.265625 11.296875 4.34375 
Q 5.078125 9.96875 4.203125 18.890625 
z
" id="ArialMT-33"/>
      </defs>
      <g style="fill:#262626;" transform="translate(290.908594 290.877812)scale(0.1 -0.1)">
       <use xlink:href="#ArialMT-33"/>
       <use x="55.615234" xlink:href="#ArialMT-30"/>
       <use x="111.230469" xlink:href="#ArialMT-30"/>
      </g>
     </g>
    </g>
    <g id="xtick_5">
     <g id="line2d_5">
      <g>
       <use style="fill:#262626;stroke:#262626;" x="369" xlink:href="#m2cfd82d7db" y="270.72"/>
      </g>
     </g>
     <g id="text_5">
      <!-- 400 -->
      <defs>
       <path d="M 32.328125 0 
L 32.328125 17.140625 
L 1.265625 17.140625 
L 1.265625 25.203125 
L 33.9375 71.578125 
L 41.109375 71.578125 
L 41.109375 25.203125 
L 50.78125 25.203125 
L 50.78125 17.140625 
L 41.109375 17.140625 
L 41.109375 0 
z
M 32.328125 25.203125 
L 32.328125 57.46875 
L 9.90625 25.203125 
z
" id="ArialMT-34"/>
      </defs>
      <g style="fill:#262626;" transform="translate(360.658594 290.877812)scale(0.1 -0.1)">
       <use xlink:href="#ArialMT-34"/>
       <use x="55.615234" xlink:href="#ArialMT-30"/>
       <use x="111.230469" xlink:href="#ArialMT-30"/>
      </g>
     </g>
    </g>
    <g id="xtick_6">
     <g id="line2d_6">
      <g>
       <use style="fill:#262626;stroke:#262626;" x="438.75" xlink:href="#m2cfd82d7db" y="270.72"/>
      </g>
     </g>
     <g id="text_6">
      <!-- 500 -->
      <defs>
       <path d="M 4.15625 18.75 
L 13.375 19.53125 
Q 14.40625 12.796875 18.140625 9.390625 
Q 21.875 6 27.15625 6 
Q 33.5 6 37.890625 10.78125 
Q 42.28125 15.578125 42.28125 23.484375 
Q 42.28125 31 38.0625 35.34375 
Q 33.84375 39.703125 27 39.703125 
Q 22.75 39.703125 19.328125 37.765625 
Q 15.921875 35.84375 13.96875 32.765625 
L 5.71875 33.84375 
L 12.640625 70.609375 
L 48.25 70.609375 
L 48.25 62.203125 
L 19.671875 62.203125 
L 15.828125 42.96875 
Q 22.265625 47.46875 29.34375 47.46875 
Q 38.71875 47.46875 45.15625 40.96875 
Q 51.609375 34.46875 51.609375 24.265625 
Q 51.609375 14.546875 45.953125 7.46875 
Q 39.0625 -1.21875 27.15625 -1.21875 
Q 17.390625 -1.21875 11.203125 4.25 
Q 5.03125 9.71875 4.15625 18.75 
z
" id="ArialMT-35"/>
      </defs>
      <g style="fill:#262626;" transform="translate(430.408594 290.877812)scale(0.1 -0.1)">
       <use xlink:href="#ArialMT-35"/>
       <use x="55.615234" xlink:href="#ArialMT-30"/>
       <use x="111.230469" xlink:href="#ArialMT-30"/>
      </g>
     </g>
    </g>
    <g id="xtick_7">
     <g id="line2d_7">
      <g>
       <use style="fill:#262626;stroke:#262626;" x="508.5" xlink:href="#m2cfd82d7db" y="270.72"/>
      </g>
     </g>
     <g id="text_7">
      <!-- 600 -->
      <defs>
       <path d="M 49.75 54.046875 
L 41.015625 53.375 
Q 39.84375 58.546875 37.703125 60.890625 
Q 34.125 64.65625 28.90625 64.65625 
Q 24.703125 64.65625 21.53125 62.3125 
Q 17.390625 59.28125 14.984375 53.46875 
Q 12.59375 47.65625 12.5 36.921875 
Q 15.671875 41.75 20.265625 44.09375 
Q 24.859375 46.4375 29.890625 46.4375 
Q 38.671875 46.4375 44.84375 39.96875 
Q 51.03125 33.5 51.03125 23.25 
Q 51.03125 16.5 48.125 10.71875 
Q 45.21875 4.9375 40.140625 1.859375 
Q 35.0625 -1.21875 28.609375 -1.21875 
Q 17.625 -1.21875 10.6875 6.859375 
Q 3.765625 14.9375 3.765625 33.5 
Q 3.765625 54.25 11.421875 63.671875 
Q 18.109375 71.875 29.4375 71.875 
Q 37.890625 71.875 43.28125 67.140625 
Q 48.6875 62.40625 49.75 54.046875 
z
M 13.875 23.1875 
Q 13.875 18.65625 15.796875 14.5 
Q 17.71875 10.359375 21.1875 8.171875 
Q 24.65625 6 28.46875 6 
Q 34.03125 6 38.03125 10.484375 
Q 42.046875 14.984375 42.046875 22.703125 
Q 42.046875 30.125 38.078125 34.390625 
Q 34.125 38.671875 28.125 38.671875 
Q 22.171875 38.671875 18.015625 34.390625 
Q 13.875 30.125 13.875 23.1875 
z
" id="ArialMT-36"/>
      </defs>
      <g style="fill:#262626;" transform="translate(500.158594 290.877812)scale(0.1 -0.1)">
       <use xlink:href="#ArialMT-36"/>
       <use x="55.615234" xlink:href="#ArialMT-30"/>
       <use x="111.230469" xlink:href="#ArialMT-30"/>
      </g>
     </g>
    </g>
    <g id="xtick_8">
     <g id="line2d_8">
      <g>
       <use style="fill:#262626;stroke:#262626;" x="578.25" xlink:href="#m2cfd82d7db" y="270.72"/>
      </g>
     </g>
     <g id="text_8">
      <!-- 700 -->
      <defs>
       <path d="M 4.734375 62.203125 
L 4.734375 70.65625 
L 51.078125 70.65625 
L 51.078125 63.8125 
Q 44.234375 56.546875 37.515625 44.484375 
Q 30.8125 32.421875 27.15625 19.671875 
Q 24.515625 10.6875 23.78125 0 
L 14.75 0 
Q 14.890625 8.453125 18.0625 20.40625 
Q 21.234375 32.375 27.171875 43.484375 
Q 33.109375 54.59375 39.796875 62.203125 
z
" id="ArialMT-37"/>
      </defs>
      <g style="fill:#262626;" transform="translate(569.908594 290.877812)scale(0.1 -0.1)">
       <use xlink:href="#ArialMT-37"/>
       <use x="55.615234" xlink:href="#ArialMT-30"/>
       <use x="111.230469" xlink:href="#ArialMT-30"/>
      </g>
     </g>
    </g>
    <g id="xtick_9">
     <g id="line2d_9">
      <g>
       <use style="fill:#262626;stroke:#262626;" x="648" xlink:href="#m2cfd82d7db" y="270.72"/>
      </g>
     </g>
     <g id="text_9">
      <!-- 800 -->
      <defs>
       <path d="M 17.671875 38.8125 
Q 12.203125 40.828125 9.5625 44.53125 
Q 6.9375 48.25 6.9375 53.421875 
Q 6.9375 61.234375 12.546875 66.546875 
Q 18.171875 71.875 27.484375 71.875 
Q 36.859375 71.875 42.578125 66.421875 
Q 48.296875 60.984375 48.296875 53.171875 
Q 48.296875 48.1875 45.671875 44.5 
Q 43.0625 40.828125 37.75 38.8125 
Q 44.34375 36.671875 47.78125 31.875 
Q 51.21875 27.09375 51.21875 20.453125 
Q 51.21875 11.28125 44.71875 5.03125 
Q 38.234375 -1.21875 27.640625 -1.21875 
Q 17.046875 -1.21875 10.546875 5.046875 
Q 4.046875 11.328125 4.046875 20.703125 
Q 4.046875 27.6875 7.59375 32.390625 
Q 11.140625 37.109375 17.671875 38.8125 
z
M 15.921875 53.71875 
Q 15.921875 48.640625 19.1875 45.40625 
Q 22.46875 42.1875 27.6875 42.1875 
Q 32.765625 42.1875 36.015625 45.375 
Q 39.265625 48.578125 39.265625 53.21875 
Q 39.265625 58.0625 35.90625 61.359375 
Q 32.5625 64.65625 27.59375 64.65625 
Q 22.5625 64.65625 19.234375 61.421875 
Q 15.921875 58.203125 15.921875 53.71875 
z
M 13.09375 20.65625 
Q 13.09375 16.890625 14.875 13.375 
Q 16.65625 9.859375 20.171875 7.921875 
Q 23.6875 6 27.734375 6 
Q 34.03125 6 38.125 10.046875 
Q 42.234375 14.109375 42.234375 20.359375 
Q 42.234375 26.703125 38.015625 30.859375 
Q 33.796875 35.015625 27.4375 35.015625 
Q 21.234375 35.015625 17.15625 30.90625 
Q 13.09375 26.8125 13.09375 20.65625 
z
" id="ArialMT-38"/>
      </defs>
      <g style="fill:#262626;" transform="translate(639.658594 290.877812)scale(0.1 -0.1)">
       <use xlink:href="#ArialMT-38"/>
       <use x="55.615234" xlink:href="#ArialMT-30"/>
       <use x="111.230469" xlink:href="#ArialMT-30"/>
      </g>
     </g>
    </g>
   </g>
   <g id="matplotlib.axis_2">
    <g id="ytick_1">
     <g id="line2d_10">
      <defs>
       <path d="M 0 0 
L -6 0 
" id="m031fd4a499" style="stroke:#262626;"/>
      </defs>
      <g>
       <use style="fill:#262626;stroke:#262626;" x="90" xlink:href="#m031fd4a499" y="250.56"/>
      </g>
     </g>
     <g id="text_10">
      <!-- −0.04 -->
      <defs>
       <path d="M 52.828125 31.203125 
L 5.5625 31.203125 
L 5.5625 39.40625 
L 52.828125 39.40625 
z
" id="ArialMT-2212"/>
       <path d="M 9.078125 0 
L 9.078125 10.015625 
L 19.09375 10.015625 
L 19.09375 0 
z
" id="ArialMT-2e"/>
      </defs>
      <g style="fill:#262626;" transform="translate(51.698437 254.138906)scale(0.1 -0.1)">
       <use xlink:href="#ArialMT-2212"/>
       <use x="58.398438" xlink:href="#ArialMT-30"/>
       <use x="114.013672" xlink:href="#ArialMT-2e"/>
       <use x="141.796875" xlink:href="#ArialMT-30"/>
       <use x="197.412109" xlink:href="#ArialMT-34"/>
      </g>
     </g>
    </g>
    <g id="ytick_2">
     <g id="line2d_11">
      <g>
       <use style="fill:#262626;stroke:#262626;" x="90" xlink:href="#m031fd4a499" y="210.24"/>
      </g>
     </g>
     <g id="text_11">
      <!-- −0.02 -->
      <g style="fill:#262626;" transform="translate(51.698437 213.818906)scale(0.1 -0.1)">
       <use xlink:href="#ArialMT-2212"/>
       <use x="58.398438" xlink:href="#ArialMT-30"/>
       <use x="114.013672" xlink:href="#ArialMT-2e"/>
       <use x="141.796875" xlink:href="#ArialMT-30"/>
       <use x="197.412109" xlink:href="#ArialMT-32"/>
      </g>
     </g>
    </g>
    <g id="ytick_3">
     <g id="line2d_12">
      <g>
       <use style="fill:#262626;stroke:#262626;" x="90" xlink:href="#m031fd4a499" y="169.92"/>
      </g>
     </g>
     <g id="text_12">
      <!-- 0.00 -->
      <g style="fill:#262626;" transform="translate(57.539062 173.498906)scale(0.1 -0.1)">
       <use xlink:href="#ArialMT-30"/>
       <use x="55.615234" xlink:href="#ArialMT-2e"/>
       <use x="83.398438" xlink:href="#ArialMT-30"/>
       <use x="139.013672" xlink:href="#ArialMT-30"/>
      </g>
     </g>
    </g>
    <g id="ytick_4">
     <g id="line2d_13">
      <g>
       <use style="fill:#262626;stroke:#262626;" x="90" xlink:href="#m031fd4a499" y="129.6"/>
      </g>
     </g>
     <g id="text_13">
      <!-- 0.02 -->
      <g style="fill:#262626;" transform="translate(57.539062 133.178906)scale(0.1 -0.1)">
       <use xlink:href="#ArialMT-30"/>
       <use x="55.615234" xlink:href="#ArialMT-2e"/>
       <use x="83.398438" xlink:href="#ArialMT-30"/>
       <use x="139.013672" xlink:href="#ArialMT-32"/>
      </g>
     </g>
    </g>
    <g id="ytick_5">
     <g id="line2d_14">
      <g>
       <use style="fill:#262626;stroke:#262626;" x="90" xlink:href="#m031fd4a499" y="89.28"/>
      </g>
     </g>
     <g id="text_14">
      <!-- 0.04 -->
      <g style="fill:#262626;" transform="translate(57.539062 92.858906)scale(0.1 -0.1)">
       <use xlink:href="#ArialMT-30"/>
       <use x="55.615234" xlink:href="#ArialMT-2e"/>
       <use x="83.398438" xlink:href="#ArialMT-30"/>
       <use x="139.013672" xlink:href="#ArialMT-34"/>
      </g>
     </g>
    </g>
   </g>
   <g id="PolyCollection_1">
    <path clip-path="url(#pa685c3705c)" d="M 90 201.659727 
L 90 169.92 
L 90.6975 169.92 
L 91.395 169.92 
L 92.0925 169.92 
L 92.79 169.92 
L 93.4875 169.92 
L 94.185 169.92 
L 94.8825 169.92 
L 95.58 169.92 
L 96.2775 169.92 
L 96.975 169.92 
L 97.6725 169.92 
L 98.37 169.92 
L 99.0675 169.92 
L 99.765 169.92 
L 100.4625 169.92 
L 101.16 169.92 
L 101.8575 169.92 
L 102.555 169.92 
L 103.2525 169.92 
L 103.95 169.92 
L 104.6475 169.92 
L 105.345 169.92 
L 106.0425 169.92 
L 106.74 169.92 
L 107.4375 169.92 
L 108.135 169.92 
L 108.8325 169.92 
L 109.53 169.92 
L 110.2275 169.92 
L 110.925 169.92 
L 111.6225 169.92 
L 112.32 169.92 
L 113.0175 169.92 
L 113.715 169.92 
L 114.4125 169.92 
L 115.11 169.92 
L 115.8075 169.92 
L 116.505 169.92 
L 117.2025 169.92 
L 117.9 169.92 
L 118.5975 169.92 
L 119.295 169.92 
L 119.9925 169.92 
L 120.69 169.92 
L 121.3875 169.92 
L 122.085 169.92 
L 122.7825 169.92 
L 123.48 169.92 
L 124.1775 169.92 
L 124.875 169.92 
L 125.5725 169.92 
L 126.27 169.92 
L 126.9675 169.92 
L 127.665 169.92 
L 128.3625 169.92 
L 129.06 169.92 
L 129.7575 169.92 
L 130.455 169.92 
L 131.1525 169.92 
L 131.85 169.92 
L 132.5475 169.92 
L 133.245 169.92 
L 133.9425 169.92 
L 134.64 169.92 
L 135.3375 169.92 
L 136.035 169.92 
L 136.7325 169.92 
L 137.43 169.92 
L 138.1275 169.92 
L 138.825 169.92 
L 139.5225 169.92 
L 140.22 169.92 
L 140.9175 169.92 
L 141.615 169.92 
L 142.3125 169.92 
L 143.01 169.92 
L 143.7075 169.92 
L 144.405 169.92 
L 145.1025 169.92 
L 145.8 169.92 
L 146.4975 169.92 
L 147.195 169.92 
L 147.8925 169.92 
L 148.59 169.92 
L 149.2875 169.92 
L 149.985 169.92 
L 150.6825 169.92 
L 151.38 169.92 
L 152.0775 169.92 
L 152.775 169.92 
L 153.4725 169.92 
L 154.17 169.92 
L 154.8675 169.92 
L 155.565 169.92 
L 156.2625 169.92 
L 156.96 169.92 
L 157.6575 169.92 
L 158.355 169.92 
L 159.0525 169.92 
L 159.75 169.92 
L 160.4475 169.92 
L 161.145 169.92 
L 161.8425 169.92 
L 162.54 169.92 
L 163.2375 169.92 
L 163.935 169.92 
L 164.6325 169.92 
L 165.33 169.92 
L 166.0275 169.92 
L 166.725 169.92 
L 167.4225 169.92 
L 168.12 169.92 
L 168.8175 169.92 
L 169.515 169.92 
L 170.2125 169.92 
L 170.91 169.92 
L 171.6075 169.92 
L 172.305 169.92 
L 173.0025 169.92 
L 173.7 169.92 
L 174.3975 169.92 
L 175.095 169.92 
L 175.7925 169.92 
L 176.49 169.92 
L 177.1875 169.92 
L 177.885 169.92 
L 178.5825 169.92 
L 179.28 169.92 
L 179.9775 169.92 
L 180.675 169.92 
L 181.3725 169.92 
L 182.07 169.92 
L 182.7675 169.92 
L 183.465 169.92 
L 184.1625 169.92 
L 184.86 169.92 
L 185.5575 169.92 
L 186.255 169.92 
L 186.9525 169.92 
L 187.65 169.92 
L 188.3475 169.92 
L 189.045 169.92 
L 189.7425 169.92 
L 190.44 169.92 
L 191.1375 169.92 
L 191.835 169.92 
L 192.5325 169.92 
L 193.23 169.92 
L 193.9275 169.92 
L 194.625 169.92 
L 195.3225 169.92 
L 196.02 169.92 
L 196.7175 169.92 
L 197.415 169.92 
L 198.1125 169.92 
L 198.81 169.92 
L 199.5075 169.92 
L 200.205 169.92 
L 200.9025 169.92 
L 201.6 169.92 
L 202.2975 169.92 
L 202.995 169.92 
L 203.6925 169.92 
L 204.39 169.92 
L 205.0875 169.92 
L 205.785 169.92 
L 206.4825 169.92 
L 207.18 169.92 
L 207.8775 169.92 
L 208.575 169.92 
L 209.2725 169.92 
L 209.97 169.92 
L 210.6675 169.92 
L 211.365 169.92 
L 212.0625 169.92 
L 212.76 169.92 
L 213.4575 169.92 
L 214.155 169.92 
L 214.8525 169.92 
L 215.55 169.92 
L 216.2475 169.92 
L 216.945 169.92 
L 217.6425 169.92 
L 218.34 169.92 
L 219.0375 169.92 
L 219.735 169.92 
L 220.4325 169.92 
L 221.13 169.92 
L 221.8275 169.92 
L 222.525 169.92 
L 223.2225 169.92 
L 223.92 169.92 
L 224.6175 169.92 
L 225.315 169.92 
L 226.0125 169.92 
L 226.71 169.92 
L 227.4075 169.92 
L 228.105 169.92 
L 228.8025 169.92 
L 229.5 169.92 
L 230.1975 169.92 
L 230.895 169.92 
L 231.5925 169.92 
L 232.29 169.92 
L 232.9875 169.92 
L 233.685 169.92 
L 234.3825 169.92 
L 235.08 169.92 
L 235.7775 169.92 
L 236.475 169.92 
L 237.1725 169.92 
L 237.87 169.92 
L 238.5675 169.92 
L 239.265 169.92 
L 239.9625 169.92 
L 240.66 169.92 
L 241.3575 169.92 
L 242.055 169.92 
L 242.7525 169.92 
L 243.45 169.92 
L 244.1475 169.92 
L 244.845 169.92 
L 245.5425 169.92 
L 246.24 169.92 
L 246.9375 169.92 
L 247.635 169.92 
L 248.3325 169.92 
L 249.03 169.92 
L 249.7275 169.92 
L 250.425 169.92 
L 251.1225 169.92 
L 251.82 169.92 
L 252.5175 169.92 
L 253.215 169.92 
L 253.9125 169.92 
L 254.61 169.92 
L 255.3075 169.92 
L 256.005 169.92 
L 256.7025 169.92 
L 257.4 169.92 
L 258.0975 169.92 
L 258.795 169.92 
L 259.4925 169.92 
L 260.19 169.92 
L 260.8875 169.92 
L 261.585 169.92 
L 262.2825 169.92 
L 262.98 169.92 
L 263.6775 169.92 
L 264.375 169.92 
L 265.0725 169.92 
L 265.77 169.92 
L 266.4675 169.92 
L 267.165 169.92 
L 267.8625 169.92 
L 268.56 169.92 
L 269.2575 169.92 
L 269.955 169.92 
L 270.6525 169.92 
L 271.35 169.92 
L 272.0475 169.92 
L 272.745 169.92 
L 273.4425 169.92 
L 274.14 169.92 
L 274.8375 169.92 
L 275.535 169.92 
L 276.2325 169.92 
L 276.93 169.92 
L 277.6275 169.92 
L 278.325 169.92 
L 279.0225 169.92 
L 279.72 169.92 
L 280.4175 169.92 
L 281.115 169.92 
L 281.8125 169.92 
L 282.51 169.92 
L 283.2075 169.92 
L 283.905 169.92 
L 284.6025 169.92 
L 285.3 169.92 
L 285.9975 169.92 
L 286.695 169.92 
L 287.3925 169.92 
L 288.09 169.92 
L 288.7875 169.92 
L 289.485 169.92 
L 290.1825 169.92 
L 290.88 169.92 
L 291.5775 169.92 
L 292.275 169.92 
L 292.9725 169.92 
L 293.67 169.92 
L 294.3675 169.92 
L 295.065 169.92 
L 295.7625 169.92 
L 296.46 169.92 
L 297.1575 169.92 
L 297.855 169.92 
L 298.5525 169.92 
L 299.25 169.92 
L 299.9475 169.92 
L 300.645 169.92 
L 301.3425 169.92 
L 302.04 169.92 
L 302.7375 169.92 
L 303.435 169.92 
L 304.1325 169.92 
L 304.83 169.92 
L 305.5275 169.92 
L 306.225 169.92 
L 306.9225 169.92 
L 307.62 169.92 
L 308.3175 169.92 
L 309.015 169.92 
L 309.7125 169.92 
L 310.41 169.92 
L 311.1075 169.92 
L 311.805 169.92 
L 312.5025 169.92 
L 313.2 169.92 
L 313.8975 169.92 
L 314.595 169.92 
L 315.2925 169.92 
L 315.99 169.92 
L 316.6875 169.92 
L 317.385 169.92 
L 318.0825 169.92 
L 318.78 169.92 
L 319.4775 169.92 
L 320.175 169.92 
L 320.8725 169.92 
L 321.57 169.92 
L 322.2675 169.92 
L 322.965 169.92 
L 323.6625 169.92 
L 324.36 169.92 
L 325.0575 169.92 
L 325.755 169.92 
L 326.4525 169.92 
L 327.15 169.92 
L 327.8475 169.92 
L 328.545 169.92 
L 329.2425 169.92 
L 329.94 169.92 
L 330.6375 169.92 
L 331.335 169.92 
L 332.0325 169.92 
L 332.73 169.92 
L 333.4275 169.92 
L 334.125 169.92 
L 334.8225 169.92 
L 335.52 169.92 
L 336.2175 169.92 
L 336.915 169.92 
L 337.6125 169.92 
L 338.31 169.92 
L 339.0075 169.92 
L 339.705 169.92 
L 340.4025 169.92 
L 341.1 169.92 
L 341.7975 169.92 
L 342.495 169.92 
L 343.1925 169.92 
L 343.89 169.92 
L 344.5875 169.92 
L 345.285 169.92 
L 345.9825 169.92 
L 346.68 169.92 
L 347.3775 169.92 
L 348.075 169.92 
L 348.7725 169.92 
L 349.47 169.92 
L 350.1675 169.92 
L 350.865 169.92 
L 351.5625 169.92 
L 352.26 169.92 
L 352.9575 169.92 
L 353.655 169.92 
L 354.3525 169.92 
L 355.05 169.92 
L 355.7475 169.92 
L 356.445 169.92 
L 357.1425 169.92 
L 357.84 169.92 
L 358.5375 169.92 
L 359.235 169.92 
L 359.9325 169.92 
L 360.63 169.92 
L 361.3275 169.92 
L 362.025 169.92 
L 362.7225 169.92 
L 363.42 169.92 
L 364.1175 169.92 
L 364.815 169.92 
L 365.5125 169.92 
L 366.21 169.92 
L 366.9075 169.92 
L 367.605 169.92 
L 368.3025 169.92 
L 369 169.92 
L 369.6975 169.92 
L 370.395 169.92 
L 371.0925 169.92 
L 371.79 169.92 
L 372.4875 169.92 
L 373.185 169.92 
L 373.8825 169.92 
L 374.58 169.92 
L 375.2775 169.92 
L 375.975 169.92 
L 376.6725 169.92 
L 377.37 169.92 
L 378.0675 169.92 
L 378.765 169.92 
L 379.4625 169.92 
L 380.16 169.92 
L 380.8575 169.92 
L 381.555 169.92 
L 382.2525 169.92 
L 382.95 169.92 
L 383.6475 169.92 
L 384.345 169.92 
L 385.0425 169.92 
L 385.74 169.92 
L 386.4375 169.92 
L 387.135 169.92 
L 387.8325 169.92 
L 388.53 169.92 
L 389.2275 169.92 
L 389.925 169.92 
L 390.6225 169.92 
L 391.32 169.92 
L 392.0175 169.92 
L 392.715 169.92 
L 393.4125 169.92 
L 394.11 169.92 
L 394.8075 169.92 
L 395.505 169.92 
L 396.2025 169.92 
L 396.9 169.92 
L 397.5975 169.92 
L 398.295 169.92 
L 398.9925 169.92 
L 399.69 169.92 
L 400.3875 169.92 
L 401.085 169.92 
L 401.7825 169.92 
L 402.48 169.92 
L 403.1775 169.92 
L 403.875 169.92 
L 404.5725 169.92 
L 405.27 169.92 
L 405.9675 169.92 
L 406.665 169.92 
L 407.3625 169.92 
L 408.06 169.92 
L 408.7575 169.92 
L 409.455 169.92 
L 410.1525 169.92 
L 410.85 169.92 
L 411.5475 169.92 
L 412.245 169.92 
L 412.9425 169.92 
L 413.64 169.92 
L 414.3375 169.92 
L 415.035 169.92 
L 415.7325 169.92 
L 416.43 169.92 
L 417.1275 169.92 
L 417.825 169.92 
L 418.5225 169.92 
L 419.22 169.92 
L 419.9175 169.92 
L 420.615 169.92 
L 421.3125 169.92 
L 422.01 169.92 
L 422.7075 169.92 
L 423.405 169.92 
L 424.1025 169.92 
L 424.8 169.92 
L 425.4975 169.92 
L 426.195 169.92 
L 426.8925 169.92 
L 427.59 169.92 
L 428.2875 169.92 
L 428.985 169.92 
L 429.6825 169.92 
L 430.38 169.92 
L 431.0775 169.92 
L 431.775 169.92 
L 432.4725 169.92 
L 433.17 169.92 
L 433.8675 169.92 
L 434.565 169.92 
L 435.2625 169.92 
L 435.96 169.92 
L 436.6575 169.92 
L 437.355 169.92 
L 438.0525 169.92 
L 438.75 169.92 
L 439.4475 169.92 
L 440.145 169.92 
L 440.8425 169.92 
L 441.54 169.92 
L 442.2375 169.92 
L 442.935 169.92 
L 443.6325 169.92 
L 444.33 169.92 
L 445.0275 169.92 
L 445.725 169.92 
L 446.4225 169.92 
L 447.12 169.92 
L 447.8175 169.92 
L 448.515 169.92 
L 449.2125 169.92 
L 449.91 169.92 
L 450.6075 169.92 
L 451.305 169.92 
L 452.0025 169.92 
L 452.7 169.92 
L 453.3975 169.92 
L 454.095 169.92 
L 454.7925 169.92 
L 455.49 169.92 
L 456.1875 169.92 
L 456.885 169.92 
L 457.5825 169.92 
L 458.28 169.92 
L 458.9775 169.92 
L 459.675 169.92 
L 460.3725 169.92 
L 461.07 169.92 
L 461.7675 169.92 
L 462.465 169.92 
L 463.1625 169.92 
L 463.86 169.92 
L 464.5575 169.92 
L 465.255 169.92 
L 465.9525 169.92 
L 466.65 169.92 
L 467.3475 169.92 
L 468.045 169.92 
L 468.7425 169.92 
L 469.44 169.92 
L 470.1375 169.92 
L 470.835 169.92 
L 471.5325 169.92 
L 472.23 169.92 
L 472.9275 169.92 
L 473.625 169.92 
L 474.3225 169.92 
L 475.02 169.92 
L 475.7175 169.92 
L 476.415 169.92 
L 477.1125 169.92 
L 477.81 169.92 
L 478.5075 169.92 
L 479.205 169.92 
L 479.9025 169.92 
L 480.6 169.92 
L 481.2975 169.92 
L 481.995 169.92 
L 482.6925 169.92 
L 483.39 169.92 
L 484.0875 169.92 
L 484.785 169.92 
L 485.4825 169.92 
L 486.18 169.92 
L 486.8775 169.92 
L 487.575 169.92 
L 488.2725 169.92 
L 488.97 169.92 
L 489.6675 169.92 
L 490.365 169.92 
L 491.0625 169.92 
L 491.76 169.92 
L 492.4575 169.92 
L 493.155 169.92 
L 493.8525 169.92 
L 494.55 169.92 
L 495.2475 169.92 
L 495.945 169.92 
L 496.6425 169.92 
L 497.34 169.92 
L 498.0375 169.92 
L 498.735 169.92 
L 499.4325 169.92 
L 500.13 169.92 
L 500.8275 169.92 
L 501.525 169.92 
L 502.2225 169.92 
L 502.92 169.92 
L 503.6175 169.92 
L 504.315 169.92 
L 505.0125 169.92 
L 505.71 169.92 
L 506.4075 169.92 
L 507.105 169.92 
L 507.8025 169.92 
L 508.5 169.92 
L 509.1975 169.92 
L 509.895 169.92 
L 510.5925 169.92 
L 511.29 169.92 
L 511.9875 169.92 
L 512.685 169.92 
L 513.3825 169.92 
L 514.08 169.92 
L 514.7775 169.92 
L 515.475 169.92 
L 516.1725 169.92 
L 516.87 169.92 
L 517.5675 169.92 
L 518.265 169.92 
L 518.9625 169.92 
L 519.66 169.92 
L 520.3575 169.92 
L 521.055 169.92 
L 521.7525 169.92 
L 522.45 169.92 
L 523.1475 169.92 
L 523.845 169.92 
L 524.5425 169.92 
L 525.24 169.92 
L 525.9375 169.92 
L 526.635 169.92 
L 527.3325 169.92 
L 528.03 169.92 
L 528.7275 169.92 
L 529.425 169.92 
L 530.1225 169.92 
L 530.82 169.92 
L 531.5175 169.92 
L 532.215 169.92 
L 532.9125 169.92 
L 533.61 169.92 
L 534.3075 169.92 
L 535.005 169.92 
L 535.7025 169.92 
L 536.4 169.92 
L 537.0975 169.92 
L 537.795 169.92 
L 538.4925 169.92 
L 539.19 169.92 
L 539.8875 169.92 
L 540.585 169.92 
L 541.2825 169.92 
L 541.98 169.92 
L 542.6775 169.92 
L 543.375 169.92 
L 544.0725 169.92 
L 544.77 169.92 
L 545.4675 169.92 
L 546.165 169.92 
L 546.8625 169.92 
L 547.56 169.92 
L 548.2575 169.92 
L 548.955 169.92 
L 549.6525 169.92 
L 550.35 169.92 
L 551.0475 169.92 
L 551.745 169.92 
L 552.4425 169.92 
L 553.14 169.92 
L 553.8375 169.92 
L 554.535 169.92 
L 555.2325 169.92 
L 555.93 169.92 
L 556.6275 169.92 
L 557.325 169.92 
L 558.0225 169.92 
L 558.72 169.92 
L 559.4175 169.92 
L 560.115 169.92 
L 560.8125 169.92 
L 561.51 169.92 
L 562.2075 169.92 
L 562.905 169.92 
L 563.6025 169.92 
L 564.3 169.92 
L 564.9975 169.92 
L 565.695 169.92 
L 566.3925 169.92 
L 567.09 169.92 
L 567.7875 169.92 
L 568.485 169.92 
L 569.1825 169.92 
L 569.88 169.92 
L 570.5775 169.92 
L 571.275 169.92 
L 571.9725 169.92 
L 572.67 169.92 
L 573.3675 169.92 
L 574.065 169.92 
L 574.7625 169.92 
L 575.46 169.92 
L 576.1575 169.92 
L 576.855 169.92 
L 577.5525 169.92 
L 578.25 169.92 
L 578.9475 169.92 
L 579.645 169.92 
L 580.3425 169.92 
L 581.04 169.92 
L 581.7375 169.92 
L 582.435 169.92 
L 583.1325 169.92 
L 583.83 169.92 
L 584.5275 169.92 
L 585.225 169.92 
L 585.9225 169.92 
L 586.62 169.92 
L 587.3175 169.92 
L 588.015 169.92 
L 588.7125 169.92 
L 589.41 169.92 
L 590.1075 169.92 
L 590.805 169.92 
L 591.5025 169.92 
L 592.2 169.92 
L 592.8975 169.92 
L 593.595 169.92 
L 594.2925 169.92 
L 594.99 169.92 
L 595.6875 169.92 
L 596.385 169.92 
L 597.0825 169.92 
L 597.78 169.92 
L 598.4775 169.92 
L 599.175 169.92 
L 599.8725 169.92 
L 600.57 169.92 
L 601.2675 169.92 
L 601.965 169.92 
L 602.6625 169.92 
L 603.36 169.92 
L 604.0575 169.92 
L 604.755 169.92 
L 605.4525 169.92 
L 606.15 169.92 
L 606.8475 169.92 
L 607.545 169.92 
L 608.2425 169.92 
L 608.94 169.92 
L 609.6375 169.92 
L 610.335 169.92 
L 611.0325 169.92 
L 611.73 169.92 
L 612.4275 169.92 
L 613.125 169.92 
L 613.8225 169.92 
L 614.52 169.92 
L 615.2175 169.92 
L 615.915 169.92 
L 616.6125 169.92 
L 617.31 169.92 
L 618.0075 169.92 
L 618.705 169.92 
L 619.4025 169.92 
L 620.1 169.92 
L 620.7975 169.92 
L 621.495 169.92 
L 622.1925 169.92 
L 622.89 169.92 
L 623.5875 169.92 
L 624.285 169.92 
L 624.9825 169.92 
L 625.68 169.92 
L 626.3775 169.92 
L 627.075 169.92 
L 627.7725 169.92 
L 628.47 169.92 
L 629.1675 169.92 
L 629.865 169.92 
L 630.5625 169.92 
L 631.26 169.92 
L 631.9575 169.92 
L 632.655 169.92 
L 633.3525 169.92 
L 634.05 169.92 
L 634.7475 169.92 
L 635.445 169.92 
L 636.1425 169.92 
L 636.84 169.92 
L 637.5375 169.92 
L 638.235 169.92 
L 638.9325 169.92 
L 639.63 169.92 
L 640.3275 169.92 
L 641.025 169.92 
L 641.7225 169.92 
L 642.42 169.92 
L 643.1175 169.92 
L 643.815 169.92 
L 644.5125 169.92 
L 645.21 169.92 
L 645.9075 169.92 
L 646.605 169.92 
L 646.605 169.92 
L 646.605 169.92 
L 645.9075 169.94366 
L 645.21 170.00671 
L 644.5125 170.088004 
L 643.815 170.190021 
L 643.1175 170.317835 
L 642.42 170.460695 
L 641.7225 170.615712 
L 641.025 170.801004 
L 640.3275 171.005718 
L 639.63 171.226851 
L 638.9325 171.477144 
L 638.235 171.740365 
L 637.5375 172.02655 
L 636.84 172.329918 
L 636.1425 172.652544 
L 635.445 172.993839 
L 634.7475 173.350549 
L 634.05 173.716767 
L 633.3525 174.089193 
L 632.655 174.482922 
L 631.9575 174.886717 
L 631.26 175.3051 
L 630.5625 175.739935 
L 629.865 176.193057 
L 629.1675 176.647864 
L 628.47 177.116671 
L 627.7725 177.595991 
L 627.075 178.092837 
L 626.3775 178.590527 
L 625.68 179.098667 
L 624.9825 179.611072 
L 624.285 180.121549 
L 623.5875 180.647565 
L 622.89 181.172389 
L 622.1925 181.702946 
L 621.495 182.235641 
L 620.7975 182.76424 
L 620.1 183.279894 
L 619.4025 183.800061 
L 618.705 184.310646 
L 618.0075 184.815976 
L 617.31 185.307241 
L 616.6125 185.780914 
L 615.915 186.249274 
L 615.2175 186.698321 
L 614.52 187.129865 
L 613.8225 187.551002 
L 613.125 187.955708 
L 612.4275 188.337983 
L 611.73 188.69976 
L 611.0325 189.053521 
L 610.335 189.390733 
L 609.6375 189.702895 
L 608.94 189.997322 
L 608.2425 190.268219 
L 607.545 190.509833 
L 606.8475 190.734867 
L 606.15 190.940282 
L 605.4525 191.120444 
L 604.755 191.256622 
L 604.0575 191.372228 
L 603.36 191.446019 
L 602.6625 191.491004 
L 601.965 191.496586 
L 601.2675 191.468013 
L 600.57 191.402708 
L 599.8725 191.298161 
L 599.175 191.159822 
L 598.4775 190.972168 
L 597.78 190.756575 
L 597.0825 190.492405 
L 596.385 190.190656 
L 595.6875 189.846621 
L 594.99 189.46093 
L 594.2925 189.042172 
L 593.595 188.57797 
L 592.8975 188.077056 
L 592.2 187.53246 
L 591.5025 186.93729 
L 590.805 186.308406 
L 590.1075 185.644329 
L 589.41 184.941012 
L 588.7125 184.194484 
L 588.015 183.416624 
L 587.3175 182.611481 
L 586.62 181.77001 
L 585.9225 180.893749 
L 585.225 179.976412 
L 584.5275 179.024931 
L 583.83 178.046304 
L 583.1325 177.047574 
L 582.435 176.027939 
L 581.7375 174.984001 
L 581.04 173.917669 
L 580.3425 172.830891 
L 579.645 171.717763 
L 578.9475 170.588208 
L 578.25 169.436401 
L 577.5525 168.264447 
L 576.855 167.087629 
L 576.1575 165.892326 
L 575.46 164.699122 
L 574.7625 163.486538 
L 574.065 162.262045 
L 573.3675 161.033138 
L 572.67 159.794176 
L 571.9725 158.565824 
L 571.275 157.337181 
L 570.5775 156.107863 
L 569.88 154.877486 
L 569.1825 153.661442 
L 568.485 152.44618 
L 567.7875 151.233919 
L 567.09 150.042646 
L 566.3925 148.864023 
L 565.695 147.700202 
L 564.9975 146.558567 
L 564.3 145.44909 
L 563.6025 144.363283 
L 562.905 143.29787 
L 562.2075 142.270571 
L 561.51 141.272747 
L 560.8125 140.311479 
L 560.115 139.391152 
L 559.4175 138.510817 
L 558.72 137.677341 
L 558.0225 136.88173 
L 557.325 136.138582 
L 556.6275 135.433482 
L 555.93 134.783491 
L 555.2325 134.174022 
L 554.535 133.616705 
L 553.8375 133.115186 
L 553.14 132.659866 
L 552.4425 132.269979 
L 551.745 131.925207 
L 551.0475 131.64458 
L 550.35 131.415467 
L 549.6525 131.254061 
L 548.955 131.14751 
L 548.2575 131.090754 
L 547.56 131.097038 
L 546.8625 131.166353 
L 546.165 131.295942 
L 545.4675 131.48031 
L 544.77 131.72438 
L 544.0725 132.025076 
L 543.375 132.384478 
L 542.6775 132.7993 
L 541.98 133.281929 
L 541.2825 133.813082 
L 540.585 134.402303 
L 539.8875 135.048517 
L 539.19 135.747913 
L 538.4925 136.509731 
L 537.795 137.32732 
L 537.0975 138.201816 
L 536.4 139.131622 
L 535.7025 140.117667 
L 535.005 141.150266 
L 534.3075 142.240674 
L 533.61 143.371128 
L 532.9125 144.555335 
L 532.215 145.777989 
L 531.5175 147.05 
L 530.82 148.366415 
L 530.1225 149.722202 
L 529.425 151.125398 
L 528.7275 152.557669 
L 528.03 154.026912 
L 527.3325 155.527816 
L 526.635 157.055009 
L 525.9375 158.603073 
L 525.24 160.174439 
L 524.5425 161.763606 
L 523.845 163.370302 
L 523.1475 164.994219 
L 522.45 166.621876 
L 521.7525 168.255558 
L 521.055 169.887022 
L 520.3575 171.518547 
L 519.66 173.14978 
L 518.9625 174.775114 
L 518.265 176.38895 
L 517.5675 177.998856 
L 516.87 179.596634 
L 516.1725 181.174107 
L 515.475 182.738909 
L 514.7775 184.285553 
L 514.08 185.811214 
L 513.3825 187.313104 
L 512.685 188.783223 
L 511.9875 190.216257 
L 511.29 191.612216 
L 510.5925 192.973808 
L 509.895 194.303804 
L 509.1975 195.591888 
L 508.5 196.843594 
L 507.8025 198.043491 
L 507.105 199.207788 
L 506.4075 200.323844 
L 505.71 201.39225 
L 505.0125 202.403166 
L 504.315 203.365261 
L 503.6175 204.276779 
L 502.92 205.128168 
L 502.2225 205.933645 
L 501.525 206.678595 
L 500.8275 207.366914 
L 500.13 207.98946 
L 499.4325 208.547723 
L 498.735 209.048571 
L 498.0375 209.48846 
L 497.34 209.866586 
L 496.6425 210.179629 
L 495.945 210.432276 
L 495.2475 210.624065 
L 494.55 210.759903 
L 493.8525 210.82377 
L 493.155 210.828692 
L 492.4575 210.758888 
L 491.76 210.630258 
L 491.0625 210.435151 
L 490.365 210.173922 
L 489.6675 209.844421 
L 488.97 209.452507 
L 488.2725 208.993639 
L 487.575 208.471282 
L 486.8775 207.896907 
L 486.18 207.266306 
L 485.4825 206.575372 
L 484.785 205.825367 
L 484.0875 205.025549 
L 483.39 204.17212 
L 482.6925 203.261382 
L 481.995 202.294998 
L 481.2975 201.279991 
L 480.6 200.212958 
L 479.9025 199.098476 
L 479.205 197.935953 
L 478.5075 196.73277 
L 477.81 195.483237 
L 477.1125 194.194896 
L 476.415 192.864841 
L 475.7175 191.506018 
L 475.02 190.107765 
L 474.3225 188.675265 
L 473.625 187.211133 
L 472.9275 185.715417 
L 472.23 184.190848 
L 471.5325 182.64021 
L 470.835 181.079482 
L 470.1375 179.498369 
L 469.44 177.902388 
L 468.7425 176.299713 
L 468.045 174.690642 
L 467.3475 173.072856 
L 466.65 171.454569 
L 465.9525 169.843995 
L 465.255 168.244075 
L 464.5575 166.649845 
L 463.86 165.064217 
L 463.1625 163.497975 
L 462.465 161.943464 
L 461.7675 160.421925 
L 461.07 158.917736 
L 460.3725 157.436274 
L 459.675 155.980244 
L 458.9775 154.549677 
L 458.28 153.141929 
L 457.5825 151.775344 
L 456.885 150.447161 
L 456.1875 149.15192 
L 455.49 147.894615 
L 454.7925 146.690688 
L 454.095 145.529192 
L 453.3975 144.417509 
L 452.7 143.357667 
L 452.0025 142.354233 
L 451.305 141.40641 
L 450.6075 140.515929 
L 449.91 139.687047 
L 449.2125 138.918647 
L 448.515 138.214764 
L 447.8175 137.574053 
L 447.12 136.992427 
L 446.4225 136.476207 
L 445.725 136.028964 
L 445.0275 135.648886 
L 444.33 135.344555 
L 443.6325 135.10601 
L 442.935 134.933687 
L 442.2375 134.825273 
L 441.54 134.791481 
L 440.8425 134.824485 
L 440.145 134.932113 
L 439.4475 135.106281 
L 438.75 135.357186 
L 438.0525 135.671226 
L 437.355 136.053085 
L 436.6575 136.502065 
L 435.96 137.012089 
L 435.2625 137.587482 
L 434.565 138.224564 
L 433.8675 138.924801 
L 433.17 139.681657 
L 432.4725 140.499005 
L 431.775 141.370095 
L 431.0775 142.293337 
L 430.38 143.267043 
L 429.6825 144.292064 
L 428.985 145.363899 
L 428.2875 146.48059 
L 427.59 147.637467 
L 426.8925 148.835048 
L 426.195 150.073772 
L 425.4975 151.348749 
L 424.8 152.657649 
L 424.1025 154.000711 
L 423.405 155.370223 
L 422.7075 156.774199 
L 422.01 158.196931 
L 421.3125 159.641076 
L 420.615 161.103998 
L 419.9175 162.580395 
L 419.22 164.06757 
L 418.5225 165.562806 
L 417.825 167.06863 
L 417.1275 168.577034 
L 416.43 170.087892 
L 415.7325 171.595813 
L 415.035 173.092787 
L 414.3375 174.586594 
L 413.64 176.071877 
L 412.9425 177.540665 
L 412.245 179.00079 
L 411.5475 180.441698 
L 410.85 181.8555 
L 410.1525 183.244872 
L 409.455 184.607274 
L 408.7575 185.940219 
L 408.06 187.238642 
L 407.3625 188.497543 
L 406.665 189.72251 
L 405.9675 190.898159 
L 405.27 192.030231 
L 404.5725 193.111399 
L 403.875 194.147575 
L 403.1775 195.134238 
L 402.48 196.064327 
L 401.7825 196.944031 
L 401.085 197.761226 
L 400.3875 198.519678 
L 399.69 199.22063 
L 398.9925 199.854916 
L 398.295 200.424004 
L 397.5975 200.934744 
L 396.9 201.380943 
L 396.2025 201.764415 
L 395.505 202.079204 
L 394.8075 202.327361 
L 394.11 202.508434 
L 393.4125 202.611577 
L 392.715 202.647117 
L 392.0175 202.614989 
L 391.32 202.509994 
L 390.6225 202.342838 
L 389.925 202.098055 
L 389.2275 201.783978 
L 388.53 201.409067 
L 387.8325 200.96612 
L 387.135 200.455947 
L 386.4375 199.887367 
L 385.74 199.250901 
L 385.0425 198.547714 
L 384.345 197.784346 
L 383.6475 196.962193 
L 382.95 196.077499 
L 382.2525 195.12925 
L 381.555 194.121808 
L 380.8575 193.059642 
L 380.16 191.942063 
L 379.4625 190.771113 
L 378.765 189.546302 
L 378.0675 188.267238 
L 377.37 186.944143 
L 376.6725 185.57155 
L 375.975 184.157222 
L 375.2775 182.706371 
L 374.58 181.216391 
L 373.8825 179.692632 
L 373.185 178.135248 
L 372.4875 176.549713 
L 371.79 174.938924 
L 371.0925 173.303194 
L 370.395 171.64551 
L 369.6975 169.968901 
L 369 168.284316 
L 368.3025 166.581688 
L 367.605 164.8799 
L 366.9075 163.171545 
L 366.21 161.459744 
L 365.5125 159.750253 
L 364.815 158.046194 
L 364.1175 156.345423 
L 363.42 154.656303 
L 362.7225 152.981921 
L 362.025 151.325334 
L 361.3275 149.689569 
L 360.63 148.082872 
L 359.9325 146.50029 
L 359.235 144.947345 
L 358.5375 143.4295 
L 357.84 141.939013 
L 357.1425 140.489123 
L 356.445 139.074591 
L 355.7475 137.703259 
L 355.05 136.375003 
L 354.3525 135.086991 
L 353.655 133.846835 
L 352.9575 132.654169 
L 352.26 131.516432 
L 351.5625 130.438329 
L 350.865 129.413944 
L 350.1675 128.447777 
L 349.47 127.541592 
L 348.7725 126.697045 
L 348.075 125.918308 
L 347.3775 125.206803 
L 346.68 124.566458 
L 345.9825 123.995814 
L 345.285 123.493286 
L 344.5875 123.062419 
L 343.89 122.706629 
L 343.1925 122.421309 
L 342.495 122.209609 
L 341.7975 122.071916 
L 341.1 122.005852 
L 340.4025 122.016795 
L 339.705 122.104726 
L 339.0075 122.266855 
L 338.31 122.505515 
L 337.6125 122.81764 
L 336.915 123.20792 
L 336.2175 123.67564 
L 335.52 124.214689 
L 334.8225 124.824081 
L 334.125 125.502704 
L 333.4275 126.251948 
L 332.73 127.067813 
L 332.0325 127.946183 
L 331.335 128.890708 
L 330.6375 129.897036 
L 329.94 130.958071 
L 329.2425 132.077131 
L 328.545 133.26006 
L 327.8475 134.491552 
L 327.15 135.779874 
L 326.4525 137.117413 
L 325.755 138.499099 
L 325.0575 139.925036 
L 324.36 141.392619 
L 323.6625 142.899168 
L 322.965 144.44193 
L 322.2675 146.018088 
L 321.57 147.627391 
L 320.8725 149.269528 
L 320.175 150.936243 
L 319.4775 152.627119 
L 318.78 154.339068 
L 318.0825 156.066334 
L 317.385 157.80839 
L 316.6875 159.564683 
L 315.99 161.329376 
L 315.2925 163.101876 
L 314.595 164.878942 
L 313.8975 166.662589 
L 313.2 168.44167 
L 312.5025 170.210307 
L 311.805 171.965269 
L 311.1075 173.703351 
L 310.41 175.424006 
L 309.7125 177.126721 
L 309.015 178.805756 
L 308.3175 180.460673 
L 307.62 182.083191 
L 306.9225 183.675605 
L 306.225 185.232376 
L 305.5275 186.758548 
L 304.83 188.251332 
L 304.1325 189.702745 
L 303.435 191.112763 
L 302.7375 192.481441 
L 302.04 193.80102 
L 301.3425 195.071718 
L 300.645 196.291215 
L 299.9475 197.457282 
L 299.25 198.567791 
L 298.5525 199.620711 
L 297.855 200.614121 
L 297.1575 201.551463 
L 296.46 202.428396 
L 295.7625 203.243318 
L 295.065 203.992112 
L 294.3675 204.676038 
L 293.67 205.293848 
L 292.9725 205.844413 
L 292.275 206.329356 
L 291.5775 206.742534 
L 290.88 207.088449 
L 290.1825 207.361212 
L 289.485 207.565582 
L 288.7875 207.698558 
L 288.09 207.759896 
L 287.3925 207.752114 
L 286.695 207.672595 
L 285.9975 207.524116 
L 285.3 207.301688 
L 284.6025 207.013606 
L 283.905 206.657766 
L 283.2075 206.234819 
L 282.51 205.745536 
L 281.8125 205.190812 
L 281.115 204.57166 
L 280.4175 203.889212 
L 279.72 203.147341 
L 279.0225 202.344776 
L 278.325 201.482981 
L 277.6275 200.56616 
L 276.93 199.595988 
L 276.2325 198.571608 
L 275.535 197.497519 
L 274.8375 196.375685 
L 274.14 195.210783 
L 273.4425 194.002311 
L 272.745 192.74985 
L 272.0475 191.460944 
L 271.35 190.132689 
L 270.6525 188.770142 
L 269.955 187.375791 
L 269.2575 185.949554 
L 268.56 184.499294 
L 267.8625 183.02766 
L 267.165 181.53997 
L 266.4675 180.033682 
L 265.77 178.514178 
L 265.0725 176.984234 
L 264.375 175.444014 
L 263.6775 173.90159 
L 262.98 172.354522 
L 262.2825 170.803007 
L 261.585 169.255137 
L 260.8875 167.71111 
L 260.19 166.176376 
L 259.4925 164.653738 
L 258.795 163.145977 
L 258.0975 161.655848 
L 257.4 160.186073 
L 256.7025 158.739336 
L 256.005 157.31828 
L 255.3075 155.92813 
L 254.61 154.566167 
L 253.9125 153.237508 
L 253.215 151.941952 
L 252.5175 150.684493 
L 251.82 149.4648 
L 251.1225 148.2851 
L 250.425 147.150178 
L 249.7275 146.062107 
L 249.03 145.022874 
L 248.3325 144.034377 
L 247.635 143.098422 
L 246.9375 142.216719 
L 246.24 141.385621 
L 245.5425 140.611904 
L 244.845 139.894351 
L 244.1475 139.239531 
L 243.45 138.643384 
L 242.7525 138.109626 
L 242.055 137.636604 
L 241.3575 137.222553 
L 240.66 136.873487 
L 239.9625 136.587415 
L 239.265 136.364859 
L 238.5675 136.203597 
L 237.87 136.103924 
L 237.1725 136.06865 
L 236.475 136.09784 
L 235.7775 136.188812 
L 235.08 136.344029 
L 234.3825 136.563206 
L 233.685 136.845944 
L 232.9875 137.189097 
L 232.29 137.592039 
L 231.5925 138.05929 
L 230.895 138.58737 
L 230.1975 139.172684 
L 229.5 139.816791 
L 228.8025 140.513258 
L 228.105 141.266071 
L 227.4075 142.071224 
L 226.71 142.927248 
L 226.0125 143.835207 
L 225.315 144.790815 
L 224.6175 145.792325 
L 223.92 146.837909 
L 223.2225 147.925655 
L 222.525 149.053578 
L 221.8275 150.219617 
L 221.13 151.421642 
L 220.4325 152.654829 
L 219.735 153.919553 
L 219.0375 155.210875 
L 218.34 156.529067 
L 217.6425 157.871719 
L 216.945 159.236379 
L 216.2475 160.620555 
L 215.55 162.021717 
L 214.8525 163.437307 
L 214.155 164.864739 
L 213.4575 166.304034 
L 212.76 167.749934 
L 212.0625 169.199798 
L 211.365 170.653607 
L 210.6675 172.106075 
L 209.97 173.554551 
L 209.2725 174.996387 
L 208.575 176.42895 
L 207.8775 177.849624 
L 207.18 179.255813 
L 206.4825 180.644948 
L 205.785 182.014493 
L 205.0875 183.361945 
L 204.39 184.684843 
L 203.6925 185.98077 
L 202.995 187.24736 
L 202.2975 188.487557 
L 201.6 189.693836 
L 200.9025 190.863996 
L 200.205 191.995898 
L 199.5075 193.087475 
L 198.81 194.136732 
L 198.1125 195.144382 
L 197.415 196.105956 
L 196.7175 197.019697 
L 196.02 197.883936 
L 195.3225 198.697094 
L 194.625 199.457686 
L 193.9275 200.164323 
L 193.23 200.815713 
L 192.5325 201.410667 
L 191.835 201.948099 
L 191.1375 202.427025 
L 190.44 202.846573 
L 189.7425 203.205974 
L 189.045 203.504573 
L 188.3475 203.741824 
L 187.65 203.917294 
L 186.9525 204.030663 
L 186.255 204.081723 
L 185.5575 204.07038 
L 184.86 203.996657 
L 184.1625 203.860686 
L 183.465 203.662718 
L 182.7675 203.403113 
L 182.07 203.082345 
L 181.3725 202.701001 
L 180.675 202.259777 
L 179.9775 201.759479 
L 179.28 201.201021 
L 178.5825 200.585423 
L 177.885 199.913809 
L 177.1875 199.187407 
L 176.49 198.407543 
L 175.7925 197.575642 
L 175.095 196.693224 
L 174.3975 195.761899 
L 173.7 194.78337 
L 173.0025 193.759425 
L 172.305 192.691932 
L 171.6075 191.582843 
L 170.91 190.434183 
L 170.2125 189.24805 
L 169.515 188.026612 
L 168.8175 186.772099 
L 168.12 185.486802 
L 167.4225 184.170442 
L 166.725 182.82805 
L 166.0275 181.46208 
L 165.33 180.075027 
L 164.6325 178.669424 
L 163.935 177.247838 
L 163.2375 175.812867 
L 162.54 174.367131 
L 161.8425 172.910644 
L 161.145 171.448693 
L 160.4475 169.98395 
L 159.75 168.51909 
L 159.0525 167.056789 
L 158.355 165.599719 
L 157.6575 164.15054 
L 156.96 162.7119 
L 156.2625 161.286426 
L 155.565 159.876723 
L 154.8675 158.485366 
L 154.17 157.114897 
L 153.4725 155.767818 
L 152.775 154.44659 
L 152.0775 153.150998 
L 151.38 151.886037 
L 150.6825 150.65139 
L 149.985 149.45194 
L 149.2875 148.289878 
L 148.59 147.167327 
L 147.8925 146.086337 
L 147.195 145.048884 
L 146.4975 144.056862 
L 145.8 143.112083 
L 145.1025 142.216274 
L 144.405 141.371069 
L 143.7075 140.578014 
L 143.01 139.838558 
L 142.3125 139.154049 
L 141.615 138.52574 
L 140.9175 137.954778 
L 140.22 137.442205 
L 139.5225 136.98633 
L 138.825 136.590613 
L 138.1275 136.255778 
L 137.43 135.985066 
L 136.7325 135.776341 
L 136.035 135.629985 
L 135.3375 135.546265 
L 134.64 135.525335 
L 133.9425 135.569861 
L 133.245 135.677133 
L 132.5475 135.846955 
L 131.85 136.079018 
L 131.1525 136.372897 
L 130.455 136.728055 
L 129.7575 137.143843 
L 129.06 137.619503 
L 128.3625 138.154165 
L 127.665 138.746852 
L 126.9675 139.396483 
L 126.27 140.101869 
L 125.5725 140.861724 
L 124.875 141.674658 
L 124.1775 142.539186 
L 123.48 143.453731 
L 122.7825 144.41662 
L 122.085 145.426096 
L 121.3875 146.480314 
L 120.69 147.577348 
L 119.9925 148.715194 
L 119.295 149.891775 
L 118.5975 151.104941 
L 117.9 152.352475 
L 117.2025 153.6321 
L 116.505 154.941477 
L 115.8075 156.278215 
L 115.11 157.639871 
L 114.4125 159.02396 
L 113.715 160.427951 
L 113.0175 161.849282 
L 112.32 163.285355 
L 111.6225 164.733548 
L 110.925 166.191214 
L 110.2275 167.655691 
L 109.53 169.124305 
L 108.8325 170.594372 
L 108.135 172.063208 
L 107.4375 173.528128 
L 106.74 174.986457 
L 106.0425 176.435532 
L 105.345 177.872705 
L 104.6475 179.295352 
L 103.95 180.700872 
L 103.2525 182.0867 
L 102.555 183.450303 
L 101.8575 184.78919 
L 101.16 186.100917 
L 100.4625 187.383087 
L 99.765 188.633357 
L 99.0675 189.849444 
L 98.37 191.029127 
L 97.6725 192.170251 
L 96.975 193.27073 
L 96.2775 194.328556 
L 95.58 195.341796 
L 94.8825 196.311227 
L 94.185 197.232451 
L 93.4875 198.103783 
L 92.79 198.923634 
L 92.0925 199.690504 
L 91.395 200.402994 
L 90.6975 201.059801 
L 90 201.659727 
z
" style="fill:#e0ffff;"/>
   </g>
   <g id="line2d_15">
    <path clip-path="url(#pa685c3705c)" d="M 90 201.659727 
L 91.395 200.402994 
L 92.79 198.923634 
L 94.8825 196.311227 
L 96.975 193.27073 
L 99.0675 189.849444 
L 101.8575 184.78919 
L 105.345 177.872705 
L 117.2025 153.6321 
L 119.9925 148.715194 
L 122.085 145.426096 
L 124.1775 142.539186 
L 126.27 140.101869 
L 127.665 138.746852 
L 129.06 137.619503 
L 130.455 136.728055 
L 131.85 136.079018 
L 133.245 135.677133 
L 134.64 135.525335 
L 136.035 135.629985 
L 137.43 135.985066 
L 138.825 136.590613 
L 140.22 137.442205 
L 141.615 138.52574 
L 143.01 139.838558 
L 145.1025 142.216274 
L 147.195 145.048884 
L 149.2875 148.289878 
L 152.0775 153.150998 
L 154.8675 158.485366 
L 159.0525 167.056789 
L 166.0275 181.46208 
L 168.8175 186.772099 
L 171.6075 191.582843 
L 173.7 194.78337 
L 175.7925 197.575642 
L 177.885 199.913809 
L 179.28 201.201021 
L 180.675 202.259777 
L 182.07 203.082345 
L 183.465 203.662718 
L 184.86 203.996657 
L 186.255 204.081723 
L 187.65 203.917294 
L 189.045 203.504573 
L 190.44 202.846573 
L 191.835 201.948099 
L 193.23 200.815713 
L 194.625 199.457686 
L 196.7175 197.019697 
L 198.81 194.136732 
L 200.9025 190.863996 
L 203.6925 185.98077 
L 206.4825 180.644948 
L 210.6675 172.106075 
L 216.945 159.236379 
L 220.4325 152.654829 
L 223.2225 147.925655 
L 225.315 144.790815 
L 227.4075 142.071224 
L 229.5 139.816791 
L 230.895 138.58737 
L 232.29 137.592039 
L 233.685 136.845944 
L 235.08 136.344029 
L 236.475 136.09784 
L 237.87 136.103924 
L 239.265 136.364859 
L 240.66 136.873487 
L 242.055 137.636604 
L 243.45 138.643384 
L 244.845 139.894351 
L 246.24 141.385621 
L 248.3325 144.034377 
L 250.425 147.150178 
L 252.5175 150.684493 
L 255.3075 155.92813 
L 258.0975 161.655848 
L 262.2825 170.803007 
L 268.56 184.499294 
L 271.35 190.132689 
L 274.14 195.210783 
L 276.2325 198.571608 
L 278.325 201.482981 
L 279.72 203.147341 
L 281.115 204.57166 
L 282.51 205.745536 
L 283.905 206.657766 
L 285.3 207.301688 
L 286.695 207.672595 
L 288.09 207.759896 
L 289.485 207.565582 
L 290.88 207.088449 
L 292.275 206.329356 
L 293.67 205.293848 
L 295.065 203.992112 
L 296.46 202.428396 
L 298.5525 199.620711 
L 300.645 196.291215 
L 302.7375 192.481441 
L 304.83 188.251332 
L 307.62 182.083191 
L 311.1075 173.703351 
L 322.965 144.44193 
L 325.755 138.499099 
L 327.8475 134.491552 
L 329.94 130.958071 
L 332.0325 127.946183 
L 333.4275 126.251948 
L 334.8225 124.824081 
L 336.2175 123.67564 
L 337.6125 122.81764 
L 339.0075 122.266855 
L 340.4025 122.016795 
L 341.7975 122.071916 
L 343.1925 122.421309 
L 344.5875 123.062419 
L 345.9825 123.995814 
L 347.3775 125.206803 
L 348.7725 126.697045 
L 350.1675 128.447777 
L 352.26 131.516432 
L 354.3525 135.086991 
L 356.445 139.074591 
L 359.235 144.947345 
L 362.7225 152.981921 
L 374.58 181.216391 
L 377.37 186.944143 
L 379.4625 190.771113 
L 381.555 194.121808 
L 383.6475 196.962193 
L 385.0425 198.547714 
L 386.4375 199.887367 
L 387.8325 200.96612 
L 389.2275 201.783978 
L 390.6225 202.342838 
L 392.0175 202.614989 
L 393.4125 202.611577 
L 394.8075 202.327361 
L 396.2025 201.764415 
L 397.5975 200.934744 
L 398.9925 199.854916 
L 400.3875 198.519678 
L 401.7825 196.944031 
L 403.875 194.147575 
L 405.9675 190.898159 
L 408.06 187.238642 
L 410.85 181.8555 
L 414.3375 174.586594 
L 423.405 155.370223 
L 426.195 150.073772 
L 428.2875 146.48059 
L 430.38 143.267043 
L 432.4725 140.499005 
L 433.8675 138.924801 
L 435.2625 137.587482 
L 436.6575 136.502065 
L 438.0525 135.671226 
L 439.4475 135.106281 
L 440.8425 134.824485 
L 442.2375 134.825273 
L 443.6325 135.10601 
L 445.0275 135.648886 
L 446.4225 136.476207 
L 447.8175 137.574053 
L 449.2125 138.918647 
L 450.6075 140.515929 
L 452.7 143.357667 
L 454.7925 146.690688 
L 456.885 150.447161 
L 459.675 155.980244 
L 463.1625 163.497975 
L 468.7425 176.299713 
L 472.9275 185.715417 
L 475.7175 191.506018 
L 478.5075 196.73277 
L 480.6 200.212958 
L 482.6925 203.261382 
L 484.785 205.825367 
L 486.18 207.266306 
L 487.575 208.471282 
L 488.97 209.452507 
L 490.365 210.173922 
L 491.76 210.630258 
L 493.155 210.828692 
L 494.55 210.759903 
L 495.945 210.432276 
L 497.34 209.866586 
L 498.735 209.048571 
L 500.13 207.98946 
L 501.525 206.678595 
L 502.92 205.128168 
L 505.0125 202.403166 
L 507.105 199.207788 
L 509.1975 195.591888 
L 511.9875 190.216257 
L 514.7775 184.285553 
L 518.9625 174.775114 
L 527.3325 155.527816 
L 530.1225 149.722202 
L 532.215 145.777989 
L 534.3075 142.240674 
L 536.4 139.131622 
L 538.4925 136.509731 
L 539.8875 135.048517 
L 541.2825 133.813082 
L 542.6775 132.7993 
L 544.0725 132.025076 
L 545.4675 131.48031 
L 546.8625 131.166353 
L 548.2575 131.090754 
L 549.6525 131.254061 
L 551.0475 131.64458 
L 552.4425 132.269979 
L 553.8375 133.115186 
L 555.2325 134.174022 
L 557.325 136.138582 
L 559.4175 138.510817 
L 561.51 141.272747 
L 564.3 145.44909 
L 567.09 150.042646 
L 571.9725 158.565824 
L 578.25 169.436401 
L 581.7375 174.984001 
L 584.5275 179.024931 
L 586.62 181.77001 
L 588.7125 184.194484 
L 590.805 186.308406 
L 592.8975 188.077056 
L 594.99 189.46093 
L 597.0825 190.492405 
L 598.4775 190.972168 
L 599.8725 191.298161 
L 601.2675 191.468013 
L 603.36 191.446019 
L 605.4525 191.120444 
L 607.545 190.509833 
L 609.6375 189.702895 
L 612.4275 188.337983 
L 615.2175 186.698321 
L 618.0075 184.815976 
L 623.5875 180.647565 
L 627.7725 177.595991 
L 631.26 175.3051 
L 634.05 173.716767 
L 636.84 172.329918 
L 639.63 171.226851 
L 641.7225 170.615712 
L 644.5125 170.088004 
L 646.605 169.92 
L 646.605 169.92 
" style="fill:none;stroke:#008080;stroke-linecap:round;stroke-width:1.75;"/>
   </g>
   <g id="patch_3">
    <path d="M 90 270.72 
L 90 69.12 
" style="fill:none;stroke:#262626;stroke-linecap:square;stroke-linejoin:miter;stroke-width:1.25;"/>
   </g>
   <g id="patch_4">
    <path d="M 90 270.72 
L 648 270.72 
" style="fill:none;stroke:#262626;stroke-linecap:square;stroke-linejoin:miter;stroke-width:1.25;"/>
   </g>
  </g>
  <g id="axes_2">
   <g id="patch_5">
    <path d="M 90 512.64 
L 648 512.64 
L 648 311.04 
L 90 311.04 
z
" style="fill:#ffffff;"/>
   </g>
   <g id="matplotlib.axis_3">
    <g id="xtick_10">
     <g id="line2d_16">
      <g>
       <use style="fill:#262626;stroke:#262626;" x="191.454545" xlink:href="#m2cfd82d7db" y="512.64"/>
      </g>
     </g>
     <g id="text_15">
      <!-- 200 -->
      <g style="fill:#262626;" transform="translate(183.113139 532.797812)scale(0.1 -0.1)">
       <use xlink:href="#ArialMT-32"/>
       <use x="55.615234" xlink:href="#ArialMT-30"/>
       <use x="111.230469" xlink:href="#ArialMT-30"/>
      </g>
     </g>
    </g>
    <g id="xtick_11">
     <g id="line2d_17">
      <g>
       <use style="fill:#262626;stroke:#262626;" x="304.181818" xlink:href="#m2cfd82d7db" y="512.64"/>
      </g>
     </g>
     <g id="text_16">
      <!-- 400 -->
      <g style="fill:#262626;" transform="translate(295.840412 532.797812)scale(0.1 -0.1)">
       <use xlink:href="#ArialMT-34"/>
       <use x="55.615234" xlink:href="#ArialMT-30"/>
       <use x="111.230469" xlink:href="#ArialMT-30"/>
      </g>
     </g>
    </g>
    <g id="xtick_12">
     <g id="line2d_18">
      <g>
       <use style="fill:#262626;stroke:#262626;" x="416.909091" xlink:href="#m2cfd82d7db" y="512.64"/>
      </g>
     </g>
     <g id="text_17">
      <!-- 600 -->
      <g style="fill:#262626;" transform="translate(408.567685 532.797812)scale(0.1 -0.1)">
       <use xlink:href="#ArialMT-36"/>
       <use x="55.615234" xlink:href="#ArialMT-30"/>
       <use x="111.230469" xlink:href="#ArialMT-30"/>
      </g>
     </g>
    </g>
    <g id="xtick_13">
     <g id="line2d_19">
      <g>
       <use style="fill:#262626;stroke:#262626;" x="529.636364" xlink:href="#m2cfd82d7db" y="512.64"/>
      </g>
     </g>
     <g id="text_18">
      <!-- 800 -->
      <g style="fill:#262626;" transform="translate(521.294957 532.797812)scale(0.1 -0.1)">
       <use xlink:href="#ArialMT-38"/>
       <use x="55.615234" xlink:href="#ArialMT-30"/>
       <use x="111.230469" xlink:href="#ArialMT-30"/>
      </g>
     </g>
    </g>
    <g id="xtick_14">
     <g id="line2d_20">
      <g>
       <use style="fill:#262626;stroke:#262626;" x="642.363636" xlink:href="#m2cfd82d7db" y="512.64"/>
      </g>
     </g>
     <g id="text_19">
      <!-- 1000 -->
      <g style="fill:#262626;" transform="translate(631.241761 532.797812)scale(0.1 -0.1)">
       <use xlink:href="#ArialMT-31"/>
       <use x="55.615234" xlink:href="#ArialMT-30"/>
       <use x="111.230469" xlink:href="#ArialMT-30"/>
       <use x="166.845703" xlink:href="#ArialMT-30"/>
      </g>
     </g>
    </g>
   </g>
   <g id="matplotlib.axis_4">
    <g id="ytick_6">
     <g id="line2d_21">
      <g>
       <use style="fill:#262626;stroke:#262626;" x="90" xlink:href="#m031fd4a499" y="512.64"/>
      </g>
     </g>
     <g id="text_20">
      <!-- 0 -->
      <g style="fill:#262626;" transform="translate(71.439063 516.218906)scale(0.1 -0.1)">
       <use xlink:href="#ArialMT-30"/>
      </g>
     </g>
    </g>
    <g id="ytick_7">
     <g id="line2d_22">
      <g>
       <use style="fill:#262626;stroke:#262626;" x="90" xlink:href="#m031fd4a499" y="490.24"/>
      </g>
     </g>
     <g id="text_21">
      <!-- 2 -->
      <g style="fill:#262626;" transform="translate(71.439063 493.818906)scale(0.1 -0.1)">
       <use xlink:href="#ArialMT-32"/>
      </g>
     </g>
    </g>
    <g id="ytick_8">
     <g id="line2d_23">
      <g>
       <use style="fill:#262626;stroke:#262626;" x="90" xlink:href="#m031fd4a499" y="467.84"/>
      </g>
     </g>
     <g id="text_22">
      <!-- 4 -->
      <g style="fill:#262626;" transform="translate(71.439063 471.418906)scale(0.1 -0.1)">
       <use xlink:href="#ArialMT-34"/>
      </g>
     </g>
    </g>
    <g id="ytick_9">
     <g id="line2d_24">
      <g>
       <use style="fill:#262626;stroke:#262626;" x="90" xlink:href="#m031fd4a499" y="445.44"/>
      </g>
     </g>
     <g id="text_23">
      <!-- 6 -->
      <g style="fill:#262626;" transform="translate(71.439063 449.018906)scale(0.1 -0.1)">
       <use xlink:href="#ArialMT-36"/>
      </g>
     </g>
    </g>
    <g id="ytick_10">
     <g id="line2d_25">
      <g>
       <use style="fill:#262626;stroke:#262626;" x="90" xlink:href="#m031fd4a499" y="423.04"/>
      </g>
     </g>
     <g id="text_24">
      <!-- 8 -->
      <g style="fill:#262626;" transform="translate(71.439063 426.618906)scale(0.1 -0.1)">
       <use xlink:href="#ArialMT-38"/>
      </g>
     </g>
    </g>
    <g id="ytick_11">
     <g id="line2d_26">
      <g>
       <use style="fill:#262626;stroke:#262626;" x="90" xlink:href="#m031fd4a499" y="400.64"/>
      </g>
     </g>
     <g id="text_25">
      <!-- 10 -->
      <g style="fill:#262626;" transform="translate(65.878125 404.218906)scale(0.1 -0.1)">
       <use xlink:href="#ArialMT-31"/>
       <use x="55.615234" xlink:href="#ArialMT-30"/>
      </g>
     </g>
    </g>
    <g id="ytick_12">
     <g id="line2d_27">
      <g>
       <use style="fill:#262626;stroke:#262626;" x="90" xlink:href="#m031fd4a499" y="378.24"/>
      </g>
     </g>
     <g id="text_26">
      <!-- 12 -->
      <g style="fill:#262626;" transform="translate(65.878125 381.818906)scale(0.1 -0.1)">
       <use xlink:href="#ArialMT-31"/>
       <use x="55.615234" xlink:href="#ArialMT-32"/>
      </g>
     </g>
    </g>
    <g id="ytick_13">
     <g id="line2d_28">
      <g>
       <use style="fill:#262626;stroke:#262626;" x="90" xlink:href="#m031fd4a499" y="355.84"/>
      </g>
     </g>
     <g id="text_27">
      <!-- 14 -->
      <g style="fill:#262626;" transform="translate(65.878125 359.418906)scale(0.1 -0.1)">
       <use xlink:href="#ArialMT-31"/>
       <use x="55.615234" xlink:href="#ArialMT-34"/>
      </g>
     </g>
    </g>
    <g id="ytick_14">
     <g id="line2d_29">
      <g>
       <use style="fill:#262626;stroke:#262626;" x="90" xlink:href="#m031fd4a499" y="333.44"/>
      </g>
     </g>
     <g id="text_28">
      <!-- 16 -->
      <g style="fill:#262626;" transform="translate(65.878125 337.018906)scale(0.1 -0.1)">
       <use xlink:href="#ArialMT-31"/>
       <use x="55.615234" xlink:href="#ArialMT-36"/>
      </g>
     </g>
    </g>
    <g id="ytick_15">
     <g id="line2d_30">
      <g>
       <use style="fill:#262626;stroke:#262626;" x="90" xlink:href="#m031fd4a499" y="311.04"/>
      </g>
     </g>
     <g id="text_29">
      <!-- 18 -->
      <g style="fill:#262626;" transform="translate(65.878125 314.618906)scale(0.1 -0.1)">
       <use xlink:href="#ArialMT-31"/>
       <use x="55.615234" xlink:href="#ArialMT-38"/>
      </g>
     </g>
    </g>
   </g>
   <g id="line2d_31">
    <path clip-path="url(#pa424c4c6a0)" d="M 90 477.654723 
L 95.636364 452.736402 
L 101.272727 431.923589 
L 106.909091 427.92302 
L 112.545455 440.45326 
L 118.181818 444.705349 
L 123.818182 448.961059 
L 129.454545 457.370701 
L 135.090909 456.375715 
L 140.727273 434.868159 
L 146.363636 408.816951 
L 152 389.988216 
L 157.636364 371.492183 
L 163.272727 352.310178 
L 168.909091 342.280664 
L 174.545455 348.647566 
L 180.181818 355.802406 
L 185.818182 363.350788 
L 191.454545 378.270766 
L 197.090909 391.147889 
L 202.727273 394.129256 
L 208.363636 396.550705 
L 214 393.395457 
L 219.636364 389.651786 
L 225.272727 392.702199 
L 230.909091 396.085016 
L 236.545455 399.690878 
L 242.181818 407.737617 
L 247.818182 414.331388 
" style="fill:none;stroke:#b22222;stroke-linecap:round;stroke-width:1.75;"/>
   </g>
   <g id="line2d_32">
    <path clip-path="url(#pa424c4c6a0)" d="M 152 512.64 
L 152 311.04 
" style="fill:none;stroke:#4c72b0;stroke-linecap:round;stroke-width:1.75;"/>
   </g>
   <g id="patch_6">
    <path d="M 90 512.64 
L 90 311.04 
" style="fill:none;stroke:#262626;stroke-linecap:square;stroke-linejoin:miter;stroke-width:1.25;"/>
   </g>
   <g id="patch_7">
    <path d="M 90 512.64 
L 648 512.64 
" style="fill:none;stroke:#262626;stroke-linecap:square;stroke-linejoin:miter;stroke-width:1.25;"/>
   </g>
   <g id="text_30">
    <!-- f = 300 Hz -->
    <defs>
     <path d="M 8.6875 0 
L 8.6875 45.015625 
L 0.921875 45.015625 
L 0.921875 51.859375 
L 8.6875 51.859375 
L 8.6875 57.375 
Q 8.6875 62.59375 9.625 65.140625 
Q 10.890625 68.5625 14.078125 70.671875 
Q 17.28125 72.796875 23.046875 72.796875 
Q 26.765625 72.796875 31.25 71.921875 
L 29.9375 64.265625 
Q 27.203125 64.75 24.75 64.75 
Q 20.75 64.75 19.09375 63.03125 
Q 17.4375 61.328125 17.4375 56.640625 
L 17.4375 51.859375 
L 27.546875 51.859375 
L 27.546875 45.015625 
L 17.4375 45.015625 
L 17.4375 0 
z
" id="ArialMT-66"/>
     <path id="ArialMT-20"/>
     <path d="M 52.828125 42.09375 
L 5.5625 42.09375 
L 5.5625 50.296875 
L 52.828125 50.296875 
z
M 52.828125 20.359375 
L 5.5625 20.359375 
L 5.5625 28.5625 
L 52.828125 28.5625 
z
" id="ArialMT-3d"/>
     <path d="M 8.015625 0 
L 8.015625 71.578125 
L 17.484375 71.578125 
L 17.484375 42.1875 
L 54.6875 42.1875 
L 54.6875 71.578125 
L 64.15625 71.578125 
L 64.15625 0 
L 54.6875 0 
L 54.6875 33.734375 
L 17.484375 33.734375 
L 17.484375 0 
z
" id="ArialMT-48"/>
     <path d="M 1.953125 0 
L 1.953125 7.125 
L 34.96875 45.015625 
Q 29.34375 44.734375 25.046875 44.734375 
L 3.90625 44.734375 
L 3.90625 51.859375 
L 46.296875 51.859375 
L 46.296875 46.046875 
L 18.21875 13.140625 
L 12.796875 7.125 
Q 18.703125 7.5625 23.875 7.5625 
L 47.859375 7.5625 
L 47.859375 0 
z
" id="ArialMT-7a"/>
    </defs>
    <g style="fill:#262626;" transform="translate(529.636364 403.742188)scale(0.12 -0.12)">
     <use xlink:href="#ArialMT-66"/>
     <use x="27.783203" xlink:href="#ArialMT-20"/>
     <use x="55.566406" xlink:href="#ArialMT-3d"/>
     <use x="113.964844" xlink:href="#ArialMT-20"/>
     <use x="141.748047" xlink:href="#ArialMT-33"/>
     <use x="197.363281" xlink:href="#ArialMT-30"/>
     <use x="252.978516" xlink:href="#ArialMT-30"/>
     <use x="308.59375" xlink:href="#ArialMT-20"/>
     <use x="336.376953" xlink:href="#ArialMT-48"/>
     <use x="408.59375" xlink:href="#ArialMT-7a"/>
    </g>
   </g>
   <g id="PathCollection_1">
    <defs>
     <path d="M 0 3.5 
C 0.928211 3.5 1.81853 3.131218 2.474874 2.474874 
C 3.131218 1.81853 3.5 0.928211 3.5 0 
C 3.5 -0.928211 3.131218 -1.81853 2.474874 -2.474874 
C 1.81853 -3.131218 0.928211 -3.5 0 -3.5 
C -0.928211 -3.5 -1.81853 -3.131218 -2.474874 -2.474874 
C -3.131218 -1.81853 -3.5 -0.928211 -3.5 0 
C -3.5 0.928211 -3.131218 1.81853 -2.474874 2.474874 
C -1.81853 3.131218 -0.928211 3.5 0 3.5 
z
" id="m85cb64ca8d" style="stroke:#800000;stroke-width:0.3;"/>
    </defs>
    <g clip-path="url(#pa424c4c6a0)">
     <use style="fill:#800000;stroke:#800000;stroke-width:0.3;" x="247.818182" xlink:href="#m85cb64ca8d" y="414.331388"/>
    </g>
   </g>
  </g>
 </g>
 <defs>
  <clipPath id="pa685c3705c">
   <rect height="201.6" width="558" x="90" y="69.12"/>
  </clipPath>
  <clipPath id="pa424c4c6a0">
   <rect height="201.6" width="558" x="90" y="311.04"/>
  </clipPath>
 </defs>
</svg>
