<?xml version="1.0" encoding="utf-8" standalone="no"?>
<!DOCTYPE svg PUBLIC "-//W3C//DTD SVG 1.1//EN"
  "http://www.w3.org/Graphics/SVG/1.1/DTD/svg11.dtd">
<!-- Created with matplotlib (http://matplotlib.org/) -->
<svg height="576pt" version="1.1" viewBox="0 0 720 576" width="720pt" xmlns="http://www.w3.org/2000/svg" xmlns:xlink="http://www.w3.org/1999/xlink">
 <defs>
  <style type="text/css">
*{stroke-linecap:butt;stroke-linejoin:round;}
  </style>
 </defs>
 <g id="figure_1">
  <g id="patch_1">
   <path d="M 0 576 
L 720 576 
L 720 0 
L 0 0 
z
" style="fill:#ffffff;"/>
  </g>
  <g id="axes_1">
   <g id="patch_2">
    <path d="M 90 270.72 
L 648 270.72 
L 648 69.12 
L 90 69.12 
z
" style="fill:#ffffff;"/>
   </g>
   <g id="matplotlib.axis_1">
    <g id="xtick_1">
     <g id="line2d_1">
      <defs>
       <path d="M 0 0 
L 0 6 
" id="m298daf67f0" style="stroke:#262626;"/>
      </defs>
      <g>
       <use style="fill:#262626;stroke:#262626;" x="90" xlink:href="#m298daf67f0" y="270.72"/>
      </g>
     </g>
     <g id="text_1">
      <!-- 0 -->
      <defs>
       <path d="M 4.15625 35.296875 
Q 4.15625 48 6.765625 55.734375 
Q 9.375 63.484375 14.515625 67.671875 
Q 19.671875 71.875 27.484375 71.875 
Q 33.25 71.875 37.59375 69.546875 
Q 41.9375 67.234375 44.765625 62.859375 
Q 47.609375 58.5 49.21875 52.21875 
Q 50.828125 45.953125 50.828125 35.296875 
Q 50.828125 22.703125 48.234375 14.96875 
Q 45.65625 7.234375 40.5 3 
Q 35.359375 -1.21875 27.484375 -1.21875 
Q 17.140625 -1.21875 11.234375 6.203125 
Q 4.15625 15.140625 4.15625 35.296875 
z
M 13.1875 35.296875 
Q 13.1875 17.671875 17.3125 11.828125 
Q 21.4375 6 27.484375 6 
Q 33.546875 6 37.671875 11.859375 
Q 41.796875 17.71875 41.796875 35.296875 
Q 41.796875 52.984375 37.671875 58.78125 
Q 33.546875 64.59375 27.390625 64.59375 
Q 21.34375 64.59375 17.71875 59.46875 
Q 13.1875 52.9375 13.1875 35.296875 
z
" id="ArialMT-30"/>
      </defs>
      <g style="fill:#262626;" transform="translate(87.219531 290.877812)scale(0.1 -0.1)">
       <use xlink:href="#ArialMT-30"/>
      </g>
     </g>
    </g>
    <g id="xtick_2">
     <g id="line2d_2">
      <g>
       <use style="fill:#262626;stroke:#262626;" x="159.75" xlink:href="#m298daf67f0" y="270.72"/>
      </g>
     </g>
     <g id="text_2">
      <!-- 100 -->
      <defs>
       <path d="M 37.25 0 
L 28.46875 0 
L 28.46875 56 
Q 25.296875 52.984375 20.140625 49.953125 
Q 14.984375 46.921875 10.890625 45.40625 
L 10.890625 53.90625 
Q 18.265625 57.375 23.78125 62.296875 
Q 29.296875 67.234375 31.59375 71.875 
L 37.25 71.875 
z
" id="ArialMT-31"/>
      </defs>
      <g style="fill:#262626;" transform="translate(151.408594 290.877812)scale(0.1 -0.1)">
       <use xlink:href="#ArialMT-31"/>
       <use x="55.615234" xlink:href="#ArialMT-30"/>
       <use x="111.230469" xlink:href="#ArialMT-30"/>
      </g>
     </g>
    </g>
    <g id="xtick_3">
     <g id="line2d_3">
      <g>
       <use style="fill:#262626;stroke:#262626;" x="229.5" xlink:href="#m298daf67f0" y="270.72"/>
      </g>
     </g>
     <g id="text_3">
      <!-- 200 -->
      <defs>
       <path d="M 50.34375 8.453125 
L 50.34375 0 
L 3.03125 0 
Q 2.9375 3.171875 4.046875 6.109375 
Q 5.859375 10.9375 9.828125 15.625 
Q 13.8125 20.3125 21.34375 26.46875 
Q 33.015625 36.03125 37.109375 41.625 
Q 41.21875 47.21875 41.21875 52.203125 
Q 41.21875 57.421875 37.46875 61 
Q 33.734375 64.59375 27.734375 64.59375 
Q 21.390625 64.59375 17.578125 60.78125 
Q 13.765625 56.984375 13.71875 50.25 
L 4.6875 51.171875 
Q 5.609375 61.28125 11.65625 66.578125 
Q 17.71875 71.875 27.9375 71.875 
Q 38.234375 71.875 44.234375 66.15625 
Q 50.25 60.453125 50.25 52 
Q 50.25 47.703125 48.484375 43.546875 
Q 46.734375 39.40625 42.65625 34.8125 
Q 38.578125 30.21875 29.109375 22.21875 
Q 21.1875 15.578125 18.9375 13.203125 
Q 16.703125 10.84375 15.234375 8.453125 
z
" id="ArialMT-32"/>
      </defs>
      <g style="fill:#262626;" transform="translate(221.158594 290.877812)scale(0.1 -0.1)">
       <use xlink:href="#ArialMT-32"/>
       <use x="55.615234" xlink:href="#ArialMT-30"/>
       <use x="111.230469" xlink:href="#ArialMT-30"/>
      </g>
     </g>
    </g>
    <g id="xtick_4">
     <g id="line2d_4">
      <g>
       <use style="fill:#262626;stroke:#262626;" x="299.25" xlink:href="#m298daf67f0" y="270.72"/>
      </g>
     </g>
     <g id="text_4">
      <!-- 300 -->
      <defs>
       <path d="M 4.203125 18.890625 
L 12.984375 20.0625 
Q 14.5 12.59375 18.140625 9.296875 
Q 21.78125 6 27 6 
Q 33.203125 6 37.46875 10.296875 
Q 41.75 14.59375 41.75 20.953125 
Q 41.75 27 37.796875 30.921875 
Q 33.84375 34.859375 27.734375 34.859375 
Q 25.25 34.859375 21.53125 33.890625 
L 22.515625 41.609375 
Q 23.390625 41.5 23.921875 41.5 
Q 29.546875 41.5 34.03125 44.421875 
Q 38.53125 47.359375 38.53125 53.46875 
Q 38.53125 58.296875 35.25 61.46875 
Q 31.984375 64.65625 26.8125 64.65625 
Q 21.6875 64.65625 18.265625 61.421875 
Q 14.84375 58.203125 13.875 51.765625 
L 5.078125 53.328125 
Q 6.6875 62.15625 12.390625 67.015625 
Q 18.109375 71.875 26.609375 71.875 
Q 32.46875 71.875 37.390625 69.359375 
Q 42.328125 66.84375 44.9375 62.5 
Q 47.5625 58.15625 47.5625 53.265625 
Q 47.5625 48.640625 45.0625 44.828125 
Q 42.578125 41.015625 37.703125 38.765625 
Q 44.046875 37.3125 47.5625 32.6875 
Q 51.078125 28.078125 51.078125 21.140625 
Q 51.078125 11.765625 44.234375 5.25 
Q 37.40625 -1.265625 26.953125 -1.265625 
Q 17.53125 -1.265625 11.296875 4.34375 
Q 5.078125 9.96875 4.203125 18.890625 
z
" id="ArialMT-33"/>
      </defs>
      <g style="fill:#262626;" transform="translate(290.908594 290.877812)scale(0.1 -0.1)">
       <use xlink:href="#ArialMT-33"/>
       <use x="55.615234" xlink:href="#ArialMT-30"/>
       <use x="111.230469" xlink:href="#ArialMT-30"/>
      </g>
     </g>
    </g>
    <g id="xtick_5">
     <g id="line2d_5">
      <g>
       <use style="fill:#262626;stroke:#262626;" x="369" xlink:href="#m298daf67f0" y="270.72"/>
      </g>
     </g>
     <g id="text_5">
      <!-- 400 -->
      <defs>
       <path d="M 32.328125 0 
L 32.328125 17.140625 
L 1.265625 17.140625 
L 1.265625 25.203125 
L 33.9375 71.578125 
L 41.109375 71.578125 
L 41.109375 25.203125 
L 50.78125 25.203125 
L 50.78125 17.140625 
L 41.109375 17.140625 
L 41.109375 0 
z
M 32.328125 25.203125 
L 32.328125 57.46875 
L 9.90625 25.203125 
z
" id="ArialMT-34"/>
      </defs>
      <g style="fill:#262626;" transform="translate(360.658594 290.877812)scale(0.1 -0.1)">
       <use xlink:href="#ArialMT-34"/>
       <use x="55.615234" xlink:href="#ArialMT-30"/>
       <use x="111.230469" xlink:href="#ArialMT-30"/>
      </g>
     </g>
    </g>
    <g id="xtick_6">
     <g id="line2d_6">
      <g>
       <use style="fill:#262626;stroke:#262626;" x="438.75" xlink:href="#m298daf67f0" y="270.72"/>
      </g>
     </g>
     <g id="text_6">
      <!-- 500 -->
      <defs>
       <path d="M 4.15625 18.75 
L 13.375 19.53125 
Q 14.40625 12.796875 18.140625 9.390625 
Q 21.875 6 27.15625 6 
Q 33.5 6 37.890625 10.78125 
Q 42.28125 15.578125 42.28125 23.484375 
Q 42.28125 31 38.0625 35.34375 
Q 33.84375 39.703125 27 39.703125 
Q 22.75 39.703125 19.328125 37.765625 
Q 15.921875 35.84375 13.96875 32.765625 
L 5.71875 33.84375 
L 12.640625 70.609375 
L 48.25 70.609375 
L 48.25 62.203125 
L 19.671875 62.203125 
L 15.828125 42.96875 
Q 22.265625 47.46875 29.34375 47.46875 
Q 38.71875 47.46875 45.15625 40.96875 
Q 51.609375 34.46875 51.609375 24.265625 
Q 51.609375 14.546875 45.953125 7.46875 
Q 39.0625 -1.21875 27.15625 -1.21875 
Q 17.390625 -1.21875 11.203125 4.25 
Q 5.03125 9.71875 4.15625 18.75 
z
" id="ArialMT-35"/>
      </defs>
      <g style="fill:#262626;" transform="translate(430.408594 290.877812)scale(0.1 -0.1)">
       <use xlink:href="#ArialMT-35"/>
       <use x="55.615234" xlink:href="#ArialMT-30"/>
       <use x="111.230469" xlink:href="#ArialMT-30"/>
      </g>
     </g>
    </g>
    <g id="xtick_7">
     <g id="line2d_7">
      <g>
       <use style="fill:#262626;stroke:#262626;" x="508.5" xlink:href="#m298daf67f0" y="270.72"/>
      </g>
     </g>
     <g id="text_7">
      <!-- 600 -->
      <defs>
       <path d="M 49.75 54.046875 
L 41.015625 53.375 
Q 39.84375 58.546875 37.703125 60.890625 
Q 34.125 64.65625 28.90625 64.65625 
Q 24.703125 64.65625 21.53125 62.3125 
Q 17.390625 59.28125 14.984375 53.46875 
Q 12.59375 47.65625 12.5 36.921875 
Q 15.671875 41.75 20.265625 44.09375 
Q 24.859375 46.4375 29.890625 46.4375 
Q 38.671875 46.4375 44.84375 39.96875 
Q 51.03125 33.5 51.03125 23.25 
Q 51.03125 16.5 48.125 10.71875 
Q 45.21875 4.9375 40.140625 1.859375 
Q 35.0625 -1.21875 28.609375 -1.21875 
Q 17.625 -1.21875 10.6875 6.859375 
Q 3.765625 14.9375 3.765625 33.5 
Q 3.765625 54.25 11.421875 63.671875 
Q 18.109375 71.875 29.4375 71.875 
Q 37.890625 71.875 43.28125 67.140625 
Q 48.6875 62.40625 49.75 54.046875 
z
M 13.875 23.1875 
Q 13.875 18.65625 15.796875 14.5 
Q 17.71875 10.359375 21.1875 8.171875 
Q 24.65625 6 28.46875 6 
Q 34.03125 6 38.03125 10.484375 
Q 42.046875 14.984375 42.046875 22.703125 
Q 42.046875 30.125 38.078125 34.390625 
Q 34.125 38.671875 28.125 38.671875 
Q 22.171875 38.671875 18.015625 34.390625 
Q 13.875 30.125 13.875 23.1875 
z
" id="ArialMT-36"/>
      </defs>
      <g style="fill:#262626;" transform="translate(500.158594 290.877812)scale(0.1 -0.1)">
       <use xlink:href="#ArialMT-36"/>
       <use x="55.615234" xlink:href="#ArialMT-30"/>
       <use x="111.230469" xlink:href="#ArialMT-30"/>
      </g>
     </g>
    </g>
    <g id="xtick_8">
     <g id="line2d_8">
      <g>
       <use style="fill:#262626;stroke:#262626;" x="578.25" xlink:href="#m298daf67f0" y="270.72"/>
      </g>
     </g>
     <g id="text_8">
      <!-- 700 -->
      <defs>
       <path d="M 4.734375 62.203125 
L 4.734375 70.65625 
L 51.078125 70.65625 
L 51.078125 63.8125 
Q 44.234375 56.546875 37.515625 44.484375 
Q 30.8125 32.421875 27.15625 19.671875 
Q 24.515625 10.6875 23.78125 0 
L 14.75 0 
Q 14.890625 8.453125 18.0625 20.40625 
Q 21.234375 32.375 27.171875 43.484375 
Q 33.109375 54.59375 39.796875 62.203125 
z
" id="ArialMT-37"/>
      </defs>
      <g style="fill:#262626;" transform="translate(569.908594 290.877812)scale(0.1 -0.1)">
       <use xlink:href="#ArialMT-37"/>
       <use x="55.615234" xlink:href="#ArialMT-30"/>
       <use x="111.230469" xlink:href="#ArialMT-30"/>
      </g>
     </g>
    </g>
    <g id="xtick_9">
     <g id="line2d_9">
      <g>
       <use style="fill:#262626;stroke:#262626;" x="648" xlink:href="#m298daf67f0" y="270.72"/>
      </g>
     </g>
     <g id="text_9">
      <!-- 800 -->
      <defs>
       <path d="M 17.671875 38.8125 
Q 12.203125 40.828125 9.5625 44.53125 
Q 6.9375 48.25 6.9375 53.421875 
Q 6.9375 61.234375 12.546875 66.546875 
Q 18.171875 71.875 27.484375 71.875 
Q 36.859375 71.875 42.578125 66.421875 
Q 48.296875 60.984375 48.296875 53.171875 
Q 48.296875 48.1875 45.671875 44.5 
Q 43.0625 40.828125 37.75 38.8125 
Q 44.34375 36.671875 47.78125 31.875 
Q 51.21875 27.09375 51.21875 20.453125 
Q 51.21875 11.28125 44.71875 5.03125 
Q 38.234375 -1.21875 27.640625 -1.21875 
Q 17.046875 -1.21875 10.546875 5.046875 
Q 4.046875 11.328125 4.046875 20.703125 
Q 4.046875 27.6875 7.59375 32.390625 
Q 11.140625 37.109375 17.671875 38.8125 
z
M 15.921875 53.71875 
Q 15.921875 48.640625 19.1875 45.40625 
Q 22.46875 42.1875 27.6875 42.1875 
Q 32.765625 42.1875 36.015625 45.375 
Q 39.265625 48.578125 39.265625 53.21875 
Q 39.265625 58.0625 35.90625 61.359375 
Q 32.5625 64.65625 27.59375 64.65625 
Q 22.5625 64.65625 19.234375 61.421875 
Q 15.921875 58.203125 15.921875 53.71875 
z
M 13.09375 20.65625 
Q 13.09375 16.890625 14.875 13.375 
Q 16.65625 9.859375 20.171875 7.921875 
Q 23.6875 6 27.734375 6 
Q 34.03125 6 38.125 10.046875 
Q 42.234375 14.109375 42.234375 20.359375 
Q 42.234375 26.703125 38.015625 30.859375 
Q 33.796875 35.015625 27.4375 35.015625 
Q 21.234375 35.015625 17.15625 30.90625 
Q 13.09375 26.8125 13.09375 20.65625 
z
" id="ArialMT-38"/>
      </defs>
      <g style="fill:#262626;" transform="translate(639.658594 290.877812)scale(0.1 -0.1)">
       <use xlink:href="#ArialMT-38"/>
       <use x="55.615234" xlink:href="#ArialMT-30"/>
       <use x="111.230469" xlink:href="#ArialMT-30"/>
      </g>
     </g>
    </g>
   </g>
   <g id="matplotlib.axis_2">
    <g id="ytick_1">
     <g id="line2d_10">
      <defs>
       <path d="M 0 0 
L -6 0 
" id="mbb7d01505b" style="stroke:#262626;"/>
      </defs>
      <g>
       <use style="fill:#262626;stroke:#262626;" x="90" xlink:href="#mbb7d01505b" y="250.56"/>
      </g>
     </g>
     <g id="text_10">
      <!-- −0.04 -->
      <defs>
       <path d="M 52.828125 31.203125 
L 5.5625 31.203125 
L 5.5625 39.40625 
L 52.828125 39.40625 
z
" id="ArialMT-2212"/>
       <path d="M 9.078125 0 
L 9.078125 10.015625 
L 19.09375 10.015625 
L 19.09375 0 
z
" id="ArialMT-2e"/>
      </defs>
      <g style="fill:#262626;" transform="translate(51.698437 254.138906)scale(0.1 -0.1)">
       <use xlink:href="#ArialMT-2212"/>
       <use x="58.398438" xlink:href="#ArialMT-30"/>
       <use x="114.013672" xlink:href="#ArialMT-2e"/>
       <use x="141.796875" xlink:href="#ArialMT-30"/>
       <use x="197.412109" xlink:href="#ArialMT-34"/>
      </g>
     </g>
    </g>
    <g id="ytick_2">
     <g id="line2d_11">
      <g>
       <use style="fill:#262626;stroke:#262626;" x="90" xlink:href="#mbb7d01505b" y="210.24"/>
      </g>
     </g>
     <g id="text_11">
      <!-- −0.02 -->
      <g style="fill:#262626;" transform="translate(51.698437 213.818906)scale(0.1 -0.1)">
       <use xlink:href="#ArialMT-2212"/>
       <use x="58.398438" xlink:href="#ArialMT-30"/>
       <use x="114.013672" xlink:href="#ArialMT-2e"/>
       <use x="141.796875" xlink:href="#ArialMT-30"/>
       <use x="197.412109" xlink:href="#ArialMT-32"/>
      </g>
     </g>
    </g>
    <g id="ytick_3">
     <g id="line2d_12">
      <g>
       <use style="fill:#262626;stroke:#262626;" x="90" xlink:href="#mbb7d01505b" y="169.92"/>
      </g>
     </g>
     <g id="text_12">
      <!-- 0.00 -->
      <g style="fill:#262626;" transform="translate(57.539062 173.498906)scale(0.1 -0.1)">
       <use xlink:href="#ArialMT-30"/>
       <use x="55.615234" xlink:href="#ArialMT-2e"/>
       <use x="83.398438" xlink:href="#ArialMT-30"/>
       <use x="139.013672" xlink:href="#ArialMT-30"/>
      </g>
     </g>
    </g>
    <g id="ytick_4">
     <g id="line2d_13">
      <g>
       <use style="fill:#262626;stroke:#262626;" x="90" xlink:href="#mbb7d01505b" y="129.6"/>
      </g>
     </g>
     <g id="text_13">
      <!-- 0.02 -->
      <g style="fill:#262626;" transform="translate(57.539062 133.178906)scale(0.1 -0.1)">
       <use xlink:href="#ArialMT-30"/>
       <use x="55.615234" xlink:href="#ArialMT-2e"/>
       <use x="83.398438" xlink:href="#ArialMT-30"/>
       <use x="139.013672" xlink:href="#ArialMT-32"/>
      </g>
     </g>
    </g>
    <g id="ytick_5">
     <g id="line2d_14">
      <g>
       <use style="fill:#262626;stroke:#262626;" x="90" xlink:href="#mbb7d01505b" y="89.28"/>
      </g>
     </g>
     <g id="text_14">
      <!-- 0.04 -->
      <g style="fill:#262626;" transform="translate(57.539062 92.858906)scale(0.1 -0.1)">
       <use xlink:href="#ArialMT-30"/>
       <use x="55.615234" xlink:href="#ArialMT-2e"/>
       <use x="83.398438" xlink:href="#ArialMT-30"/>
       <use x="139.013672" xlink:href="#ArialMT-34"/>
      </g>
     </g>
    </g>
   </g>
   <g id="PolyCollection_1">
    <path clip-path="url(#p81d850613d)" d="M 90 89.783528 
L 90 169.92 
L 90.6975 169.92 
L 91.395 169.92 
L 92.0925 169.92 
L 92.79 169.92 
L 93.4875 169.92 
L 94.185 169.92 
L 94.8825 169.92 
L 95.58 169.92 
L 96.2775 169.92 
L 96.975 169.92 
L 97.6725 169.92 
L 98.37 169.92 
L 99.0675 169.92 
L 99.765 169.92 
L 100.4625 169.92 
L 101.16 169.92 
L 101.8575 169.92 
L 102.555 169.92 
L 103.2525 169.92 
L 103.95 169.92 
L 104.6475 169.92 
L 105.345 169.92 
L 106.0425 169.92 
L 106.74 169.92 
L 107.4375 169.92 
L 108.135 169.92 
L 108.8325 169.92 
L 109.53 169.92 
L 110.2275 169.92 
L 110.925 169.92 
L 111.6225 169.92 
L 112.32 169.92 
L 113.0175 169.92 
L 113.715 169.92 
L 114.4125 169.92 
L 115.11 169.92 
L 115.8075 169.92 
L 116.505 169.92 
L 117.2025 169.92 
L 117.9 169.92 
L 118.5975 169.92 
L 119.295 169.92 
L 119.9925 169.92 
L 120.69 169.92 
L 121.3875 169.92 
L 122.085 169.92 
L 122.7825 169.92 
L 123.48 169.92 
L 124.1775 169.92 
L 124.875 169.92 
L 125.5725 169.92 
L 126.27 169.92 
L 126.9675 169.92 
L 127.665 169.92 
L 128.3625 169.92 
L 129.06 169.92 
L 129.7575 169.92 
L 130.455 169.92 
L 131.1525 169.92 
L 131.85 169.92 
L 132.5475 169.92 
L 133.245 169.92 
L 133.9425 169.92 
L 134.64 169.92 
L 135.3375 169.92 
L 136.035 169.92 
L 136.7325 169.92 
L 137.43 169.92 
L 138.1275 169.92 
L 138.825 169.92 
L 139.5225 169.92 
L 140.22 169.92 
L 140.9175 169.92 
L 141.615 169.92 
L 142.3125 169.92 
L 143.01 169.92 
L 143.7075 169.92 
L 144.405 169.92 
L 145.1025 169.92 
L 145.8 169.92 
L 146.4975 169.92 
L 147.195 169.92 
L 147.8925 169.92 
L 148.59 169.92 
L 149.2875 169.92 
L 149.985 169.92 
L 150.6825 169.92 
L 151.38 169.92 
L 152.0775 169.92 
L 152.775 169.92 
L 153.4725 169.92 
L 154.17 169.92 
L 154.8675 169.92 
L 155.565 169.92 
L 156.2625 169.92 
L 156.96 169.92 
L 157.6575 169.92 
L 158.355 169.92 
L 159.0525 169.92 
L 159.75 169.92 
L 160.4475 169.92 
L 161.145 169.92 
L 161.8425 169.92 
L 162.54 169.92 
L 163.2375 169.92 
L 163.935 169.92 
L 164.6325 169.92 
L 165.33 169.92 
L 166.0275 169.92 
L 166.725 169.92 
L 167.4225 169.92 
L 168.12 169.92 
L 168.8175 169.92 
L 169.515 169.92 
L 170.2125 169.92 
L 170.91 169.92 
L 171.6075 169.92 
L 172.305 169.92 
L 173.0025 169.92 
L 173.7 169.92 
L 174.3975 169.92 
L 175.095 169.92 
L 175.7925 169.92 
L 176.49 169.92 
L 177.1875 169.92 
L 177.885 169.92 
L 178.5825 169.92 
L 179.28 169.92 
L 179.9775 169.92 
L 180.675 169.92 
L 181.3725 169.92 
L 182.07 169.92 
L 182.7675 169.92 
L 183.465 169.92 
L 184.1625 169.92 
L 184.86 169.92 
L 185.5575 169.92 
L 186.255 169.92 
L 186.9525 169.92 
L 187.65 169.92 
L 188.3475 169.92 
L 189.045 169.92 
L 189.7425 169.92 
L 190.44 169.92 
L 191.1375 169.92 
L 191.835 169.92 
L 192.5325 169.92 
L 193.23 169.92 
L 193.9275 169.92 
L 194.625 169.92 
L 195.3225 169.92 
L 196.02 169.92 
L 196.7175 169.92 
L 197.415 169.92 
L 198.1125 169.92 
L 198.81 169.92 
L 199.5075 169.92 
L 200.205 169.92 
L 200.9025 169.92 
L 201.6 169.92 
L 202.2975 169.92 
L 202.995 169.92 
L 203.6925 169.92 
L 204.39 169.92 
L 205.0875 169.92 
L 205.785 169.92 
L 206.4825 169.92 
L 207.18 169.92 
L 207.8775 169.92 
L 208.575 169.92 
L 209.2725 169.92 
L 209.97 169.92 
L 210.6675 169.92 
L 211.365 169.92 
L 212.0625 169.92 
L 212.76 169.92 
L 213.4575 169.92 
L 214.155 169.92 
L 214.8525 169.92 
L 215.55 169.92 
L 216.2475 169.92 
L 216.945 169.92 
L 217.6425 169.92 
L 218.34 169.92 
L 219.0375 169.92 
L 219.735 169.92 
L 220.4325 169.92 
L 221.13 169.92 
L 221.8275 169.92 
L 222.525 169.92 
L 223.2225 169.92 
L 223.92 169.92 
L 224.6175 169.92 
L 225.315 169.92 
L 226.0125 169.92 
L 226.71 169.92 
L 227.4075 169.92 
L 228.105 169.92 
L 228.8025 169.92 
L 229.5 169.92 
L 230.1975 169.92 
L 230.895 169.92 
L 231.5925 169.92 
L 232.29 169.92 
L 232.9875 169.92 
L 233.685 169.92 
L 234.3825 169.92 
L 235.08 169.92 
L 235.7775 169.92 
L 236.475 169.92 
L 237.1725 169.92 
L 237.87 169.92 
L 238.5675 169.92 
L 239.265 169.92 
L 239.9625 169.92 
L 240.66 169.92 
L 241.3575 169.92 
L 242.055 169.92 
L 242.7525 169.92 
L 243.45 169.92 
L 244.1475 169.92 
L 244.845 169.92 
L 245.5425 169.92 
L 246.24 169.92 
L 246.9375 169.92 
L 247.635 169.92 
L 248.3325 169.92 
L 249.03 169.92 
L 249.7275 169.92 
L 250.425 169.92 
L 251.1225 169.92 
L 251.82 169.92 
L 252.5175 169.92 
L 253.215 169.92 
L 253.9125 169.92 
L 254.61 169.92 
L 255.3075 169.92 
L 256.005 169.92 
L 256.7025 169.92 
L 257.4 169.92 
L 258.0975 169.92 
L 258.795 169.92 
L 259.4925 169.92 
L 260.19 169.92 
L 260.8875 169.92 
L 261.585 169.92 
L 262.2825 169.92 
L 262.98 169.92 
L 263.6775 169.92 
L 264.375 169.92 
L 265.0725 169.92 
L 265.77 169.92 
L 266.4675 169.92 
L 267.165 169.92 
L 267.8625 169.92 
L 268.56 169.92 
L 269.2575 169.92 
L 269.955 169.92 
L 270.6525 169.92 
L 271.35 169.92 
L 272.0475 169.92 
L 272.745 169.92 
L 273.4425 169.92 
L 274.14 169.92 
L 274.8375 169.92 
L 275.535 169.92 
L 276.2325 169.92 
L 276.93 169.92 
L 277.6275 169.92 
L 278.325 169.92 
L 279.0225 169.92 
L 279.72 169.92 
L 280.4175 169.92 
L 281.115 169.92 
L 281.8125 169.92 
L 282.51 169.92 
L 283.2075 169.92 
L 283.905 169.92 
L 284.6025 169.92 
L 285.3 169.92 
L 285.9975 169.92 
L 286.695 169.92 
L 287.3925 169.92 
L 288.09 169.92 
L 288.7875 169.92 
L 289.485 169.92 
L 290.1825 169.92 
L 290.88 169.92 
L 291.5775 169.92 
L 292.275 169.92 
L 292.9725 169.92 
L 293.67 169.92 
L 294.3675 169.92 
L 295.065 169.92 
L 295.7625 169.92 
L 296.46 169.92 
L 297.1575 169.92 
L 297.855 169.92 
L 298.5525 169.92 
L 299.25 169.92 
L 299.9475 169.92 
L 300.645 169.92 
L 301.3425 169.92 
L 302.04 169.92 
L 302.7375 169.92 
L 303.435 169.92 
L 304.1325 169.92 
L 304.83 169.92 
L 305.5275 169.92 
L 306.225 169.92 
L 306.9225 169.92 
L 307.62 169.92 
L 308.3175 169.92 
L 309.015 169.92 
L 309.7125 169.92 
L 310.41 169.92 
L 311.1075 169.92 
L 311.805 169.92 
L 312.5025 169.92 
L 313.2 169.92 
L 313.8975 169.92 
L 314.595 169.92 
L 315.2925 169.92 
L 315.99 169.92 
L 316.6875 169.92 
L 317.385 169.92 
L 318.0825 169.92 
L 318.78 169.92 
L 319.4775 169.92 
L 320.175 169.92 
L 320.8725 169.92 
L 321.57 169.92 
L 322.2675 169.92 
L 322.965 169.92 
L 323.6625 169.92 
L 324.36 169.92 
L 325.0575 169.92 
L 325.755 169.92 
L 326.4525 169.92 
L 327.15 169.92 
L 327.8475 169.92 
L 328.545 169.92 
L 329.2425 169.92 
L 329.94 169.92 
L 330.6375 169.92 
L 331.335 169.92 
L 332.0325 169.92 
L 332.73 169.92 
L 333.4275 169.92 
L 334.125 169.92 
L 334.8225 169.92 
L 335.52 169.92 
L 336.2175 169.92 
L 336.915 169.92 
L 337.6125 169.92 
L 338.31 169.92 
L 339.0075 169.92 
L 339.705 169.92 
L 340.4025 169.92 
L 341.1 169.92 
L 341.7975 169.92 
L 342.495 169.92 
L 343.1925 169.92 
L 343.89 169.92 
L 344.5875 169.92 
L 345.285 169.92 
L 345.9825 169.92 
L 346.68 169.92 
L 347.3775 169.92 
L 348.075 169.92 
L 348.7725 169.92 
L 349.47 169.92 
L 350.1675 169.92 
L 350.865 169.92 
L 351.5625 169.92 
L 352.26 169.92 
L 352.9575 169.92 
L 353.655 169.92 
L 354.3525 169.92 
L 355.05 169.92 
L 355.7475 169.92 
L 356.445 169.92 
L 357.1425 169.92 
L 357.84 169.92 
L 358.5375 169.92 
L 359.235 169.92 
L 359.9325 169.92 
L 360.63 169.92 
L 361.3275 169.92 
L 362.025 169.92 
L 362.7225 169.92 
L 363.42 169.92 
L 364.1175 169.92 
L 364.815 169.92 
L 365.5125 169.92 
L 366.21 169.92 
L 366.9075 169.92 
L 367.605 169.92 
L 368.3025 169.92 
L 369 169.92 
L 369.6975 169.92 
L 370.395 169.92 
L 371.0925 169.92 
L 371.79 169.92 
L 372.4875 169.92 
L 373.185 169.92 
L 373.8825 169.92 
L 374.58 169.92 
L 375.2775 169.92 
L 375.975 169.92 
L 376.6725 169.92 
L 377.37 169.92 
L 378.0675 169.92 
L 378.765 169.92 
L 379.4625 169.92 
L 380.16 169.92 
L 380.8575 169.92 
L 381.555 169.92 
L 382.2525 169.92 
L 382.95 169.92 
L 383.6475 169.92 
L 384.345 169.92 
L 385.0425 169.92 
L 385.74 169.92 
L 386.4375 169.92 
L 387.135 169.92 
L 387.8325 169.92 
L 388.53 169.92 
L 389.2275 169.92 
L 389.925 169.92 
L 390.6225 169.92 
L 391.32 169.92 
L 392.0175 169.92 
L 392.715 169.92 
L 393.4125 169.92 
L 394.11 169.92 
L 394.8075 169.92 
L 395.505 169.92 
L 396.2025 169.92 
L 396.9 169.92 
L 397.5975 169.92 
L 398.295 169.92 
L 398.9925 169.92 
L 399.69 169.92 
L 400.3875 169.92 
L 401.085 169.92 
L 401.7825 169.92 
L 402.48 169.92 
L 403.1775 169.92 
L 403.875 169.92 
L 404.5725 169.92 
L 405.27 169.92 
L 405.9675 169.92 
L 406.665 169.92 
L 407.3625 169.92 
L 408.06 169.92 
L 408.7575 169.92 
L 409.455 169.92 
L 410.1525 169.92 
L 410.85 169.92 
L 411.5475 169.92 
L 412.245 169.92 
L 412.9425 169.92 
L 413.64 169.92 
L 414.3375 169.92 
L 415.035 169.92 
L 415.7325 169.92 
L 416.43 169.92 
L 417.1275 169.92 
L 417.825 169.92 
L 418.5225 169.92 
L 419.22 169.92 
L 419.9175 169.92 
L 420.615 169.92 
L 421.3125 169.92 
L 422.01 169.92 
L 422.7075 169.92 
L 423.405 169.92 
L 424.1025 169.92 
L 424.8 169.92 
L 425.4975 169.92 
L 426.195 169.92 
L 426.8925 169.92 
L 427.59 169.92 
L 428.2875 169.92 
L 428.985 169.92 
L 429.6825 169.92 
L 430.38 169.92 
L 431.0775 169.92 
L 431.775 169.92 
L 432.4725 169.92 
L 433.17 169.92 
L 433.8675 169.92 
L 434.565 169.92 
L 435.2625 169.92 
L 435.96 169.92 
L 436.6575 169.92 
L 437.355 169.92 
L 438.0525 169.92 
L 438.75 169.92 
L 439.4475 169.92 
L 440.145 169.92 
L 440.8425 169.92 
L 441.54 169.92 
L 442.2375 169.92 
L 442.935 169.92 
L 443.6325 169.92 
L 444.33 169.92 
L 445.0275 169.92 
L 445.725 169.92 
L 446.4225 169.92 
L 447.12 169.92 
L 447.8175 169.92 
L 448.515 169.92 
L 449.2125 169.92 
L 449.91 169.92 
L 450.6075 169.92 
L 451.305 169.92 
L 452.0025 169.92 
L 452.7 169.92 
L 453.3975 169.92 
L 454.095 169.92 
L 454.7925 169.92 
L 455.49 169.92 
L 456.1875 169.92 
L 456.885 169.92 
L 457.5825 169.92 
L 458.28 169.92 
L 458.9775 169.92 
L 459.675 169.92 
L 460.3725 169.92 
L 461.07 169.92 
L 461.7675 169.92 
L 462.465 169.92 
L 463.1625 169.92 
L 463.86 169.92 
L 464.5575 169.92 
L 465.255 169.92 
L 465.9525 169.92 
L 466.65 169.92 
L 467.3475 169.92 
L 468.045 169.92 
L 468.7425 169.92 
L 469.44 169.92 
L 470.1375 169.92 
L 470.835 169.92 
L 471.5325 169.92 
L 472.23 169.92 
L 472.9275 169.92 
L 473.625 169.92 
L 474.3225 169.92 
L 475.02 169.92 
L 475.7175 169.92 
L 476.415 169.92 
L 477.1125 169.92 
L 477.81 169.92 
L 478.5075 169.92 
L 479.205 169.92 
L 479.9025 169.92 
L 480.6 169.92 
L 481.2975 169.92 
L 481.995 169.92 
L 482.6925 169.92 
L 483.39 169.92 
L 484.0875 169.92 
L 484.785 169.92 
L 485.4825 169.92 
L 486.18 169.92 
L 486.8775 169.92 
L 487.575 169.92 
L 488.2725 169.92 
L 488.97 169.92 
L 489.6675 169.92 
L 490.365 169.92 
L 491.0625 169.92 
L 491.76 169.92 
L 492.4575 169.92 
L 493.155 169.92 
L 493.8525 169.92 
L 494.55 169.92 
L 495.2475 169.92 
L 495.945 169.92 
L 496.6425 169.92 
L 497.34 169.92 
L 498.0375 169.92 
L 498.735 169.92 
L 499.4325 169.92 
L 500.13 169.92 
L 500.8275 169.92 
L 501.525 169.92 
L 502.2225 169.92 
L 502.92 169.92 
L 503.6175 169.92 
L 504.315 169.92 
L 505.0125 169.92 
L 505.71 169.92 
L 506.4075 169.92 
L 507.105 169.92 
L 507.8025 169.92 
L 508.5 169.92 
L 509.1975 169.92 
L 509.895 169.92 
L 510.5925 169.92 
L 511.29 169.92 
L 511.9875 169.92 
L 512.685 169.92 
L 513.3825 169.92 
L 514.08 169.92 
L 514.7775 169.92 
L 515.475 169.92 
L 516.1725 169.92 
L 516.87 169.92 
L 517.5675 169.92 
L 518.265 169.92 
L 518.9625 169.92 
L 519.66 169.92 
L 520.3575 169.92 
L 521.055 169.92 
L 521.7525 169.92 
L 522.45 169.92 
L 523.1475 169.92 
L 523.845 169.92 
L 524.5425 169.92 
L 525.24 169.92 
L 525.9375 169.92 
L 526.635 169.92 
L 527.3325 169.92 
L 528.03 169.92 
L 528.7275 169.92 
L 529.425 169.92 
L 530.1225 169.92 
L 530.82 169.92 
L 531.5175 169.92 
L 532.215 169.92 
L 532.9125 169.92 
L 533.61 169.92 
L 534.3075 169.92 
L 535.005 169.92 
L 535.7025 169.92 
L 536.4 169.92 
L 537.0975 169.92 
L 537.795 169.92 
L 538.4925 169.92 
L 539.19 169.92 
L 539.8875 169.92 
L 540.585 169.92 
L 541.2825 169.92 
L 541.98 169.92 
L 542.6775 169.92 
L 543.375 169.92 
L 544.0725 169.92 
L 544.77 169.92 
L 545.4675 169.92 
L 546.165 169.92 
L 546.8625 169.92 
L 547.56 169.92 
L 548.2575 169.92 
L 548.955 169.92 
L 549.6525 169.92 
L 550.35 169.92 
L 551.0475 169.92 
L 551.745 169.92 
L 552.4425 169.92 
L 553.14 169.92 
L 553.8375 169.92 
L 554.535 169.92 
L 555.2325 169.92 
L 555.93 169.92 
L 556.6275 169.92 
L 557.325 169.92 
L 558.0225 169.92 
L 558.72 169.92 
L 559.4175 169.92 
L 560.115 169.92 
L 560.8125 169.92 
L 561.51 169.92 
L 562.2075 169.92 
L 562.905 169.92 
L 563.6025 169.92 
L 564.3 169.92 
L 564.9975 169.92 
L 565.695 169.92 
L 566.3925 169.92 
L 567.09 169.92 
L 567.7875 169.92 
L 568.485 169.92 
L 569.1825 169.92 
L 569.88 169.92 
L 570.5775 169.92 
L 571.275 169.92 
L 571.9725 169.92 
L 572.67 169.92 
L 573.3675 169.92 
L 574.065 169.92 
L 574.7625 169.92 
L 575.46 169.92 
L 576.1575 169.92 
L 576.855 169.92 
L 577.5525 169.92 
L 578.25 169.92 
L 578.9475 169.92 
L 579.645 169.92 
L 580.3425 169.92 
L 581.04 169.92 
L 581.7375 169.92 
L 582.435 169.92 
L 583.1325 169.92 
L 583.83 169.92 
L 584.5275 169.92 
L 585.225 169.92 
L 585.9225 169.92 
L 586.62 169.92 
L 587.3175 169.92 
L 588.015 169.92 
L 588.7125 169.92 
L 589.41 169.92 
L 590.1075 169.92 
L 590.805 169.92 
L 591.5025 169.92 
L 592.2 169.92 
L 592.8975 169.92 
L 593.595 169.92 
L 594.2925 169.92 
L 594.99 169.92 
L 595.6875 169.92 
L 596.385 169.92 
L 597.0825 169.92 
L 597.78 169.92 
L 598.4775 169.92 
L 599.175 169.92 
L 599.8725 169.92 
L 600.57 169.92 
L 601.2675 169.92 
L 601.965 169.92 
L 602.6625 169.92 
L 603.36 169.92 
L 604.0575 169.92 
L 604.755 169.92 
L 605.4525 169.92 
L 606.15 169.92 
L 606.8475 169.92 
L 607.545 169.92 
L 608.2425 169.92 
L 608.94 169.92 
L 609.6375 169.92 
L 610.335 169.92 
L 611.0325 169.92 
L 611.73 169.92 
L 612.4275 169.92 
L 613.125 169.92 
L 613.8225 169.92 
L 614.52 169.92 
L 615.2175 169.92 
L 615.915 169.92 
L 616.6125 169.92 
L 617.31 169.92 
L 618.0075 169.92 
L 618.705 169.92 
L 619.4025 169.92 
L 620.1 169.92 
L 620.7975 169.92 
L 621.495 169.92 
L 622.1925 169.92 
L 622.89 169.92 
L 623.5875 169.92 
L 624.285 169.92 
L 624.9825 169.92 
L 625.68 169.92 
L 626.3775 169.92 
L 627.075 169.92 
L 627.7725 169.92 
L 628.47 169.92 
L 629.1675 169.92 
L 629.865 169.92 
L 630.5625 169.92 
L 631.26 169.92 
L 631.9575 169.92 
L 632.655 169.92 
L 633.3525 169.92 
L 634.05 169.92 
L 634.7475 169.92 
L 635.445 169.92 
L 636.1425 169.92 
L 636.84 169.92 
L 637.5375 169.92 
L 638.235 169.92 
L 638.9325 169.92 
L 639.63 169.92 
L 640.3275 169.92 
L 641.025 169.92 
L 641.7225 169.92 
L 642.42 169.92 
L 643.1175 169.92 
L 643.815 169.92 
L 644.5125 169.92 
L 645.21 169.92 
L 645.9075 169.92 
L 646.605 169.92 
L 646.605 169.92 
L 646.605 169.92 
L 645.9075 169.931833 
L 645.21 169.963381 
L 644.5125 170.004113 
L 643.815 170.055324 
L 643.1175 170.119621 
L 642.42 170.191715 
L 641.7225 170.270259 
L 641.025 170.364419 
L 640.3275 170.468895 
L 639.63 170.582323 
L 638.9325 170.711226 
L 638.235 170.847655 
L 637.5375 170.996808 
L 636.84 171.155988 
L 636.1425 171.326435 
L 635.445 171.508073 
L 634.7475 171.699504 
L 634.05 171.89801 
L 633.3525 172.102187 
L 632.655 172.319829 
L 631.9575 172.545578 
L 631.26 172.781961 
L 630.5625 173.030184 
L 629.865 173.291448 
L 629.1675 173.557747 
L 628.47 173.835531 
L 627.7725 174.12336 
L 627.075 174.425046 
L 626.3775 174.732563 
L 625.68 175.05103 
L 624.9825 175.37767 
L 624.285 175.709707 
L 623.5875 176.056191 
L 622.89 176.409076 
L 622.1925 176.772144 
L 621.495 177.143916 
L 620.7975 177.521591 
L 620.1 177.901054 
L 619.4025 178.291334 
L 618.705 178.685679 
L 618.0075 179.086538 
L 617.31 179.489784 
L 616.6125 179.893919 
L 615.915 180.305331 
L 615.2175 180.717259 
L 614.52 181.13083 
L 613.8225 181.549798 
L 613.125 181.971343 
L 612.4275 182.392642 
L 611.73 182.81482 
L 611.0325 183.244255 
L 610.335 183.676808 
L 609.6375 184.108337 
L 608.94 184.542589 
L 608.2425 184.976736 
L 607.545 185.407951 
L 606.8475 185.84261 
L 606.15 186.2792 
L 605.4525 186.714892 
L 604.755 187.140285 
L 604.0575 187.567015 
L 603.36 187.984371 
L 602.6625 188.398736 
L 601.965 188.804662 
L 601.2675 189.204591 
L 600.57 189.597028 
L 599.8725 189.980478 
L 599.175 190.357396 
L 598.4775 190.71972 
L 597.78 191.077804 
L 597.0825 191.420966 
L 596.385 191.754307 
L 595.6875 192.075047 
L 594.99 192.383039 
L 594.2925 192.682087 
L 593.595 192.96548 
L 592.8975 193.237032 
L 592.2 193.492677 
L 591.5025 193.728352 
L 590.805 193.951838 
L 590.1075 194.16172 
L 589.41 194.35527 
L 588.7125 194.529773 
L 588.015 194.690406 
L 587.3175 194.838411 
L 586.62 194.968462 
L 585.9225 195.080499 
L 585.225 195.170527 
L 584.5275 195.241134 
L 583.83 195.294917 
L 583.1325 195.334482 
L 582.435 195.358495 
L 581.7375 195.364316 
L 581.04 195.351943 
L 580.3425 195.321381 
L 579.645 195.2687 
L 578.9475 195.197867 
L 578.25 195.104972 
L 577.5525 194.990057 
L 576.855 194.859747 
L 576.1575 194.706214 
L 575.46 194.538732 
L 574.7625 194.345543 
L 574.065 194.129366 
L 573.3675 193.892929 
L 572.67 193.632396 
L 571.9725 193.357089 
L 571.275 193.06056 
L 570.5775 192.741629 
L 569.88 192.399128 
L 569.1825 192.039786 
L 568.485 191.65588 
L 567.7875 191.247585 
L 567.09 190.822975 
L 566.3925 190.376985 
L 565.695 189.90982 
L 564.9975 189.424322 
L 564.3 188.924657 
L 563.6025 188.405795 
L 562.905 187.865342 
L 562.2075 187.311434 
L 561.51 186.739065 
L 560.8125 186.151127 
L 560.115 185.549201 
L 559.4175 184.932249 
L 558.72 184.303182 
L 558.0225 183.657027 
L 557.325 183.000655 
L 556.6275 182.326475 
L 555.93 181.642685 
L 555.2325 180.941709 
L 554.535 180.229125 
L 553.8375 179.506573 
L 553.14 178.769126 
L 552.4425 178.026322 
L 551.745 177.267983 
L 551.0475 176.503659 
L 550.35 175.727124 
L 549.6525 174.946623 
L 548.955 174.155937 
L 548.2575 173.352799 
L 547.56 172.544149 
L 546.8625 171.730356 
L 546.165 170.910477 
L 545.4675 170.082258 
L 544.77 169.248705 
L 544.0725 168.408885 
L 543.375 167.564497 
L 542.6775 166.714611 
L 541.98 165.866188 
L 541.2825 165.010414 
L 540.585 164.152938 
L 539.8875 163.294151 
L 539.19 162.433132 
L 538.4925 161.575532 
L 537.795 160.719114 
L 537.0975 159.865583 
L 536.4 159.01533 
L 535.7025 158.170057 
L 535.005 157.326206 
L 534.3075 156.490736 
L 533.61 155.656141 
L 532.9125 154.83069 
L 532.215 154.008186 
L 531.5175 153.195579 
L 530.82 152.391925 
L 530.1225 151.596277 
L 529.425 150.814256 
L 528.7275 150.038331 
L 528.03 149.274117 
L 527.3325 148.520646 
L 526.635 147.776949 
L 525.9375 147.042051 
L 525.24 146.318916 
L 524.5425 145.60656 
L 523.845 144.906623 
L 523.1475 144.220739 
L 522.45 143.543964 
L 521.7525 142.879235 
L 521.055 142.224226 
L 520.3575 141.581867 
L 519.66 140.953765 
L 518.9625 140.338892 
L 518.265 139.736215 
L 517.5675 139.151268 
L 516.87 138.581688 
L 516.1725 138.025106 
L 515.475 137.487035 
L 514.7775 136.966406 
L 514.08 136.463458 
L 513.3825 135.978419 
L 512.685 135.508882 
L 511.9875 135.053746 
L 511.29 134.614534 
L 510.5925 134.194077 
L 509.895 133.795195 
L 509.1975 133.414127 
L 508.5 133.05499 
L 507.8025 132.711376 
L 507.105 132.392644 
L 506.4075 132.093681 
L 505.71 131.815938 
L 505.0125 131.555598 
L 504.315 131.318039 
L 503.6175 131.103369 
L 502.92 130.907742 
L 502.2225 130.739136 
L 501.525 130.591054 
L 500.8275 130.466193 
L 500.13 130.360666 
L 499.4325 130.275836 
L 498.735 130.215686 
L 498.0375 130.178929 
L 497.34 130.165581 
L 496.6425 130.174333 
L 495.945 130.207813 
L 495.2475 130.266003 
L 494.55 130.351507 
L 493.8525 130.456397 
L 493.155 130.5872 
L 492.4575 130.735967 
L 491.76 130.910518 
L 491.0625 131.10683 
L 490.365 131.324812 
L 489.6675 131.563051 
L 488.97 131.824068 
L 488.2725 132.105113 
L 487.575 132.407373 
L 486.8775 132.735969 
L 486.18 133.088122 
L 485.4825 133.46104 
L 484.785 133.854554 
L 484.0875 134.272428 
L 483.39 134.711843 
L 482.6925 135.169966 
L 481.995 135.646591 
L 481.2975 136.144127 
L 480.6 136.659719 
L 479.9025 137.194446 
L 479.205 137.746749 
L 478.5075 138.319005 
L 477.81 138.907008 
L 477.1125 139.51312 
L 476.415 140.134434 
L 475.7175 140.775925 
L 475.02 141.430727 
L 474.3225 142.099855 
L 473.625 142.783004 
L 472.9275 143.478547 
L 472.23 144.186166 
L 471.5325 144.905538 
L 470.835 145.642909 
L 470.1375 146.391367 
L 469.44 147.151886 
L 468.7425 147.926748 
L 468.045 148.714284 
L 467.3475 149.511505 
L 466.65 150.320677 
L 465.9525 151.144059 
L 465.255 151.981275 
L 464.5575 152.827998 
L 463.86 153.683843 
L 463.1625 154.552362 
L 462.465 155.4279 
L 461.7675 156.31926 
L 461.07 157.216831 
L 460.3725 158.121519 
L 459.675 159.032911 
L 458.9775 159.949275 
L 458.28 160.867563 
L 457.5825 161.795244 
L 456.885 162.729265 
L 456.1875 163.665256 
L 455.49 164.604104 
L 454.7925 165.551953 
L 454.095 166.501798 
L 453.3975 167.455832 
L 452.7 168.413622 
L 452.0025 169.376044 
L 451.305 170.341344 
L 450.6075 171.309081 
L 449.91 172.280127 
L 449.2125 173.252726 
L 448.515 174.227746 
L 447.8175 175.203429 
L 447.12 176.176698 
L 446.4225 177.149739 
L 445.725 178.123423 
L 445.0275 179.095989 
L 444.33 180.070939 
L 443.6325 181.042567 
L 442.935 182.010429 
L 442.2375 182.97277 
L 441.54 183.934408 
L 440.8425 184.890961 
L 440.145 185.845935 
L 439.4475 186.79495 
L 438.75 187.742831 
L 438.0525 188.682573 
L 437.355 189.616375 
L 436.6575 190.54381 
L 435.96 191.461827 
L 435.2625 192.372634 
L 434.565 193.274502 
L 433.8675 194.168332 
L 433.17 195.051088 
L 432.4725 195.924995 
L 431.775 196.787026 
L 431.0775 197.636786 
L 430.38 198.473887 
L 429.6825 199.299262 
L 428.985 200.111219 
L 428.2875 200.909386 
L 427.59 201.692086 
L 426.8925 202.460275 
L 426.195 203.214917 
L 425.4975 203.954352 
L 424.8 204.678243 
L 424.1025 205.387575 
L 423.405 206.079392 
L 422.7075 206.75864 
L 422.01 207.418433 
L 421.3125 208.0611 
L 420.615 208.686347 
L 419.9175 209.292574 
L 419.22 209.879504 
L 418.5225 210.446869 
L 417.825 210.997039 
L 417.1275 211.527135 
L 416.43 212.038227 
L 415.7325 212.528768 
L 415.035 212.995905 
L 414.3375 213.444684 
L 413.64 213.873583 
L 412.9425 214.279779 
L 412.245 214.668344 
L 411.5475 215.035158 
L 410.85 215.377422 
L 410.1525 215.69761 
L 409.455 215.995576 
L 408.7575 216.271183 
L 408.06 216.522992 
L 407.3625 216.749572 
L 406.665 216.954764 
L 405.9675 217.1319 
L 405.27 217.284845 
L 404.5725 217.410898 
L 403.875 217.513947 
L 403.1775 217.592629 
L 402.48 217.644279 
L 401.7825 217.672818 
L 401.085 217.672973 
L 400.3875 217.647375 
L 399.69 217.597349 
L 398.9925 217.518975 
L 398.295 217.413602 
L 397.5975 217.285223 
L 396.9 217.131267 
L 396.2025 216.95312 
L 395.505 216.748233 
L 394.8075 216.518014 
L 394.11 216.262569 
L 393.4125 215.976755 
L 392.715 215.665962 
L 392.0175 215.330331 
L 391.32 214.967388 
L 390.6225 214.582555 
L 389.925 214.168121 
L 389.2275 213.72822 
L 388.53 213.266995 
L 387.8325 212.780714 
L 387.135 212.269599 
L 386.4375 211.737827 
L 385.74 211.180383 
L 385.0425 210.597521 
L 384.345 209.992136 
L 383.6475 209.364505 
L 382.95 208.712286 
L 382.2525 208.034461 
L 381.555 207.332654 
L 380.8575 206.608502 
L 380.16 205.861019 
L 379.4625 205.090548 
L 378.765 204.296126 
L 378.0675 203.4768 
L 377.37 202.636889 
L 376.6725 201.772833 
L 375.975 200.887655 
L 375.2775 199.983075 
L 374.58 199.056875 
L 373.8825 198.110795 
L 373.185 197.143951 
L 372.4875 196.1581 
L 371.79 195.153691 
L 371.0925 194.12987 
L 370.395 193.087103 
L 369.6975 192.025866 
L 369 190.95059 
L 368.3025 189.85519 
L 367.605 188.748056 
L 366.9075 187.624434 
L 366.21 186.484838 
L 365.5125 185.331103 
L 364.815 184.163756 
L 364.1175 182.9807 
L 363.42 181.785105 
L 362.7225 180.577518 
L 362.025 179.358489 
L 361.3275 178.128576 
L 360.63 176.89097 
L 359.9325 175.642291 
L 359.235 174.384426 
L 358.5375 173.119262 
L 357.84 171.842119 
L 357.1425 170.55884 
L 356.445 169.266065 
L 355.7475 167.967016 
L 355.05 166.66097 
L 354.3525 165.345894 
L 353.655 164.025019 
L 352.9575 162.697634 
L 352.26 161.366973 
L 351.5625 160.034959 
L 350.865 158.698258 
L 350.1675 157.358792 
L 349.47 156.017176 
L 348.7725 154.67402 
L 348.075 153.331254 
L 347.3775 151.989491 
L 346.68 150.650658 
L 345.9825 149.314051 
L 345.285 147.978968 
L 344.5875 146.647332 
L 343.89 145.321065 
L 343.1925 143.998145 
L 342.495 142.680491 
L 341.7975 141.368703 
L 341.1 140.062067 
L 340.4025 138.763809 
L 339.705 137.474521 
L 339.0075 136.193478 
L 338.31 134.92258 
L 337.6125 133.661092 
L 336.915 132.412219 
L 336.2175 131.176533 
L 335.52 129.951969 
L 334.8225 128.739084 
L 334.125 127.538434 
L 333.4275 126.351882 
L 332.73 125.178654 
L 332.0325 124.017972 
L 331.335 122.872995 
L 330.6375 121.742932 
L 329.94 120.625669 
L 329.2425 119.524345 
L 328.545 118.443409 
L 327.8475 117.376781 
L 327.15 116.330205 
L 326.4525 115.301531 
L 325.755 114.289914 
L 325.0575 113.29713 
L 324.36 112.323634 
L 323.6625 111.369869 
L 322.965 110.436271 
L 322.2675 109.523267 
L 321.57 108.632589 
L 320.8725 107.765957 
L 320.175 106.921138 
L 319.4775 106.099833 
L 318.78 105.302417 
L 318.0825 104.52794 
L 317.385 103.778069 
L 316.6875 103.054462 
L 315.99 102.356135 
L 315.2925 101.684721 
L 314.595 101.040528 
L 313.8975 100.426478 
L 313.2 99.838908 
L 312.5025 99.276772 
L 311.805 98.740327 
L 311.1075 98.229816 
L 310.41 97.746789 
L 309.7125 97.292781 
L 309.015 96.866683 
L 308.3175 96.470007 
L 307.62 96.100302 
L 306.9225 95.760368 
L 306.225 95.449046 
L 305.5275 95.17042 
L 304.83 94.92462 
L 304.1325 94.709127 
L 303.435 94.525355 
L 302.7375 94.374702 
L 302.04 94.254608 
L 301.3425 94.166442 
L 300.645 94.110245 
L 299.9475 94.086042 
L 299.25 94.093844 
L 298.5525 94.133648 
L 297.855 94.205436 
L 297.1575 94.311804 
L 296.46 94.451388 
L 295.7625 94.624126 
L 295.065 94.828624 
L 294.3675 95.066102 
L 293.67 95.336453 
L 292.9725 95.639552 
L 292.275 95.976577 
L 291.5775 96.344744 
L 290.88 96.746514 
L 290.1825 97.179074 
L 289.485 97.644856 
L 288.7875 98.142333 
L 288.09 98.671277 
L 287.3925 99.232762 
L 286.695 99.825217 
L 285.9975 100.449685 
L 285.3 101.103252 
L 284.6025 101.789563 
L 283.905 102.506991 
L 283.2075 103.255207 
L 282.51 104.033871 
L 281.8125 104.842626 
L 281.115 105.681103 
L 280.4175 106.54892 
L 279.72 107.446993 
L 279.0225 108.3736 
L 278.325 109.328315 
L 277.6275 110.312019 
L 276.93 111.324262 
L 276.2325 112.363266 
L 275.535 113.429872 
L 274.8375 114.523593 
L 274.14 115.645244 
L 273.4425 116.792998 
L 272.745 117.965017 
L 272.0475 119.163393 
L 271.35 120.384951 
L 270.6525 121.630447 
L 269.955 122.899313 
L 269.2575 124.189654 
L 268.56 125.50351 
L 267.8625 126.840282 
L 267.165 128.200673 
L 266.4675 129.581433 
L 265.77 130.983246 
L 265.0725 132.405471 
L 264.375 133.846145 
L 263.6775 135.307239 
L 262.98 136.785455 
L 262.2825 138.278805 
L 261.585 139.789235 
L 260.8875 141.314741 
L 260.19 142.855942 
L 259.4925 144.412132 
L 258.795 145.982602 
L 258.0975 147.566634 
L 257.4 149.163505 
L 256.7025 150.772485 
L 256.005 152.392839 
L 255.3075 154.025143 
L 254.61 155.666021 
L 253.9125 157.316038 
L 253.215 158.973127 
L 252.5175 160.637845 
L 251.82 162.308117 
L 251.1225 163.98318 
L 250.425 165.663584 
L 249.7275 167.348561 
L 249.03 169.037343 
L 248.3325 170.729157 
L 247.635 172.423231 
L 246.9375 174.118791 
L 246.24 175.812433 
L 245.5425 177.506014 
L 244.845 179.197445 
L 244.1475 180.888583 
L 243.45 182.576026 
L 242.7525 184.260318 
L 242.055 185.939376 
L 241.3575 187.611117 
L 240.66 189.277408 
L 239.9625 190.936173 
L 239.265 192.586654 
L 238.5675 194.226782 
L 237.87 195.85581 
L 237.1725 197.474306 
L 236.475 199.081533 
L 235.7775 200.675442 
L 235.08 202.256618 
L 234.3825 203.824341 
L 233.685 205.377893 
L 232.9875 206.915251 
L 232.29 208.435713 
L 231.5925 209.941213 
L 230.895 211.42975 
L 230.1975 212.899329 
L 229.5 214.350592 
L 228.8025 215.780249 
L 228.105 217.190275 
L 227.4075 218.578712 
L 226.71 219.944926 
L 226.0125 221.289607 
L 225.315 222.610827 
L 224.6175 223.907982 
L 223.92 225.180479 
L 223.2225 226.427739 
L 222.525 227.649189 
L 221.8275 228.844274 
L 221.13 230.012448 
L 220.4325 231.151861 
L 219.735 232.263308 
L 219.0375 233.344967 
L 218.34 234.397659 
L 217.6425 235.420903 
L 216.945 236.414231 
L 216.2475 237.37719 
L 215.55 238.309341 
L 214.8525 239.210256 
L 214.155 240.079526 
L 213.4575 240.918067 
L 212.76 241.724182 
L 212.0625 242.497502 
L 211.365 243.23899 
L 210.6675 243.946992 
L 209.97 244.621184 
L 209.2725 245.261259 
L 208.575 245.866924 
L 207.8775 246.437903 
L 207.18 246.973934 
L 206.4825 247.474774 
L 205.785 247.940193 
L 205.0875 248.369978 
L 204.39 248.763934 
L 203.6925 249.121881 
L 202.995 249.443655 
L 202.2975 249.731738 
L 201.6 249.98337 
L 200.9025 250.198435 
L 200.205 250.376836 
L 199.5075 250.51849 
L 198.81 250.623334 
L 198.1125 250.692634 
L 197.415 250.725043 
L 196.7175 250.720548 
L 196.02 250.679149 
L 195.3225 250.600866 
L 194.625 250.485734 
L 193.9275 250.333807 
L 193.23 250.145153 
L 192.5325 249.919859 
L 191.835 249.658028 
L 191.1375 249.359778 
L 190.44 249.025247 
L 189.7425 248.654588 
L 189.045 248.247968 
L 188.3475 247.805575 
L 187.65 247.32761 
L 186.9525 246.814292 
L 186.255 246.265855 
L 185.5575 245.682549 
L 184.86 245.064641 
L 184.1625 244.412412 
L 183.465 243.726162 
L 182.7675 243.006204 
L 182.07 242.252865 
L 181.3725 241.466491 
L 180.675 240.64744 
L 179.9775 239.796086 
L 179.28 238.912819 
L 178.5825 237.998042 
L 177.885 237.052172 
L 177.1875 236.075641 
L 176.49 235.068896 
L 175.7925 234.032397 
L 175.095 232.966616 
L 174.3975 231.87204 
L 173.7 230.74917 
L 173.0025 229.598518 
L 172.305 228.42061 
L 171.6075 227.215983 
L 170.91 225.985188 
L 170.2125 224.728788 
L 169.515 223.447355 
L 168.8175 222.141475 
L 168.12 220.811745 
L 167.4225 219.457457 
L 166.725 218.080544 
L 166.0275 216.681635 
L 165.33 215.261369 
L 164.6325 213.820395 
L 163.935 212.359371 
L 163.2375 210.878965 
L 162.54 209.379851 
L 161.8425 207.861401 
L 161.145 206.325622 
L 160.4475 204.773216 
L 159.75 203.204892 
L 159.0525 201.621366 
L 158.355 200.023361 
L 157.6575 198.411608 
L 156.96 196.786842 
L 156.2625 195.149806 
L 155.565 193.501246 
L 154.8675 191.841917 
L 154.17 190.172575 
L 153.4725 188.493984 
L 152.775 186.80691 
L 152.0775 185.110808 
L 151.38 183.407768 
L 150.6825 181.697254 
L 149.985 179.981361 
L 149.2875 178.260872 
L 148.59 176.536574 
L 147.8925 174.809254 
L 147.195 173.079701 
L 146.4975 171.348705 
L 145.8 169.617057 
L 145.1025 167.885547 
L 144.405 166.154966 
L 143.7075 164.426104 
L 143.01 162.699752 
L 142.3125 160.976697 
L 141.615 159.257727 
L 140.9175 157.543627 
L 140.22 155.835179 
L 139.5225 154.131849 
L 138.825 152.43573 
L 138.1275 150.747597 
L 137.43 149.069534 
L 136.7325 147.400994 
L 136.035 145.742739 
L 135.3375 144.095527 
L 134.64 142.460108 
L 133.9425 140.838546 
L 133.245 139.230266 
L 132.5475 137.636003 
L 131.85 136.056484 
L 131.1525 134.492432 
L 130.455 132.944559 
L 129.7575 131.413574 
L 129.06 129.900176 
L 128.3625 128.405056 
L 127.665 126.928896 
L 126.9675 125.472371 
L 126.27 124.036146 
L 125.5725 122.620877 
L 124.875 121.22721 
L 124.1775 119.855783 
L 123.48 118.50722 
L 122.7825 117.182139 
L 122.085 115.881144 
L 121.3875 114.60483 
L 120.69 113.353779 
L 119.9925 112.128563 
L 119.295 110.929741 
L 118.5975 109.757862 
L 117.9 108.613459 
L 117.2025 107.497056 
L 116.505 106.409163 
L 115.8075 105.350277 
L 115.11 104.320881 
L 114.4125 103.321445 
L 113.715 102.352426 
L 113.0175 101.414266 
L 112.32 100.507394 
L 111.6225 99.632224 
L 110.925 98.789156 
L 110.2275 97.978574 
L 109.53 97.20085 
L 108.8325 96.456338 
L 108.135 95.745377 
L 107.4375 95.068294 
L 106.74 94.425397 
L 106.0425 93.81698 
L 105.345 93.243321 
L 104.6475 92.704681 
L 103.95 92.201306 
L 103.2525 91.733428 
L 102.555 91.301258 
L 101.8575 90.904995 
L 101.16 90.54482 
L 100.4625 90.220897 
L 99.765 89.933374 
L 99.0675 89.682382 
L 98.37 89.468037 
L 97.6725 89.290435 
L 96.975 89.149658 
L 96.2775 89.045771 
L 95.58 88.97882 
L 94.8825 88.950151 
L 94.185 88.958463 
L 93.4875 89.003751 
L 92.79 89.085996 
L 92.0925 89.205158 
L 91.395 89.361185 
L 90.6975 89.554004 
L 90 89.783528 
z
" style="fill:#e0ffff;"/>
   </g>
   <g id="line2d_15">
    <path clip-path="url(#p81d850613d)" d="M 90 89.783528 
L 92.0925 89.205158 
L 94.185 88.958463 
L 95.58 88.97882 
L 97.6725 89.290435 
L 99.765 89.933374 
L 101.8575 90.904995 
L 103.95 92.201306 
L 106.0425 93.81698 
L 108.135 95.745377 
L 110.2275 97.978574 
L 112.32 100.507394 
L 114.4125 103.321445 
L 117.2025 107.497056 
L 119.9925 112.128563 
L 122.7825 117.182139 
L 126.27 124.036146 
L 129.7575 131.413574 
L 133.9425 140.838546 
L 138.825 152.43573 
L 147.195 173.079701 
L 154.8675 191.841917 
L 159.75 203.204892 
L 163.935 212.359371 
L 167.4225 219.457457 
L 170.2125 224.728788 
L 173.0025 229.598518 
L 175.7925 234.032397 
L 178.5825 237.998042 
L 180.675 240.64744 
L 182.7675 243.006204 
L 184.86 245.064641 
L 186.9525 246.814292 
L 189.045 248.247968 
L 191.1375 249.359778 
L 193.23 250.145153 
L 195.3225 250.600866 
L 197.415 250.725043 
L 199.5075 250.51849 
L 201.6 249.98337 
L 203.6925 249.121881 
L 205.785 247.940193 
L 207.8775 246.437903 
L 209.97 244.621184 
L 212.0625 242.497502 
L 214.155 240.079526 
L 216.2475 237.37719 
L 219.0375 233.344967 
L 221.8275 228.844274 
L 224.6175 223.907982 
L 228.105 217.190275 
L 231.5925 209.941213 
L 235.7775 200.675442 
L 240.66 189.277408 
L 250.425 165.663584 
L 256.7025 150.772485 
L 260.8875 141.314741 
L 265.0725 132.405471 
L 268.56 125.50351 
L 272.0475 119.163393 
L 274.8375 114.523593 
L 277.6275 110.312019 
L 280.4175 106.54892 
L 282.51 104.033871 
L 284.6025 101.789563 
L 286.695 99.825217 
L 288.7875 98.142333 
L 290.88 96.746514 
L 292.9725 95.639552 
L 295.065 94.828624 
L 297.1575 94.311804 
L 299.25 94.093844 
L 301.3425 94.166442 
L 303.435 94.525355 
L 305.5275 95.17042 
L 307.62 96.100302 
L 309.7125 97.292781 
L 311.805 98.740327 
L 313.8975 100.426478 
L 315.99 102.356135 
L 318.78 105.302417 
L 321.57 108.632589 
L 324.36 112.323634 
L 327.8475 117.376781 
L 331.335 122.872995 
L 335.52 129.951969 
L 339.705 137.474521 
L 345.285 147.978968 
L 358.5375 173.119262 
L 363.42 181.785105 
L 367.605 188.748056 
L 371.0925 194.12987 
L 374.58 199.056875 
L 377.37 202.636889 
L 380.16 205.861019 
L 382.95 208.712286 
L 385.74 211.180383 
L 387.8325 212.780714 
L 389.925 214.168121 
L 392.0175 215.330331 
L 394.11 216.262569 
L 396.2025 216.95312 
L 398.295 217.413602 
L 400.3875 217.647375 
L 402.48 217.644279 
L 404.5725 217.410898 
L 406.665 216.954764 
L 408.7575 216.271183 
L 410.85 215.377422 
L 412.9425 214.279779 
L 415.7325 212.528768 
L 418.5225 210.446869 
L 421.3125 208.0611 
L 424.1025 205.387575 
L 427.59 201.692086 
L 431.0775 197.636786 
L 435.2625 192.372634 
L 440.145 185.845935 
L 449.2125 173.252726 
L 456.885 162.729265 
L 462.465 155.4279 
L 466.65 150.320677 
L 470.1375 146.391367 
L 473.625 142.783004 
L 477.1125 139.51312 
L 479.9025 137.194446 
L 482.6925 135.169966 
L 485.4825 133.46104 
L 487.575 132.407373 
L 489.6675 131.563051 
L 491.76 130.910518 
L 493.8525 130.456397 
L 495.945 130.207813 
L 498.0375 130.178929 
L 500.13 130.360666 
L 502.2225 130.739136 
L 504.315 131.318039 
L 506.4075 132.093681 
L 508.5 133.05499 
L 511.29 134.614534 
L 514.08 136.463458 
L 516.87 138.581688 
L 519.66 140.953765 
L 523.1475 144.220739 
L 526.635 147.776949 
L 530.82 152.391925 
L 535.7025 158.170057 
L 549.6525 174.946623 
L 553.8375 179.506573 
L 557.325 183.000655 
L 560.8125 186.151127 
L 563.6025 188.405795 
L 566.3925 190.376985 
L 569.1825 192.039786 
L 571.9725 193.357089 
L 574.7625 194.345543 
L 576.855 194.859747 
L 579.645 195.2687 
L 581.7375 195.364316 
L 584.5275 195.241134 
L 586.62 194.968462 
L 589.41 194.35527 
L 592.2 193.492677 
L 594.99 192.383039 
L 597.78 191.077804 
L 601.965 188.804662 
L 606.8475 185.84261 
L 615.915 180.305331 
L 620.7975 177.521591 
L 624.9825 175.37767 
L 628.47 173.835531 
L 631.9575 172.545578 
L 635.445 171.508073 
L 638.9325 170.711226 
L 641.7225 170.270259 
L 645.21 169.963381 
L 646.605 169.92 
L 646.605 169.92 
" style="fill:none;stroke:#008080;stroke-linecap:round;stroke-width:1.75;"/>
   </g>
   <g id="patch_3">
    <path d="M 90 270.72 
L 90 69.12 
" style="fill:none;stroke:#262626;stroke-linecap:square;stroke-linejoin:miter;stroke-width:1.25;"/>
   </g>
   <g id="patch_4">
    <path d="M 90 270.72 
L 648 270.72 
" style="fill:none;stroke:#262626;stroke-linecap:square;stroke-linejoin:miter;stroke-width:1.25;"/>
   </g>
  </g>
  <g id="axes_2">
   <g id="patch_5">
    <path d="M 90 512.64 
L 648 512.64 
L 648 311.04 
L 90 311.04 
z
" style="fill:#ffffff;"/>
   </g>
   <g id="matplotlib.axis_3">
    <g id="xtick_10">
     <g id="line2d_16">
      <g>
       <use style="fill:#262626;stroke:#262626;" x="191.454545" xlink:href="#m298daf67f0" y="512.64"/>
      </g>
     </g>
     <g id="text_15">
      <!-- 200 -->
      <g style="fill:#262626;" transform="translate(183.113139 532.797812)scale(0.1 -0.1)">
       <use xlink:href="#ArialMT-32"/>
       <use x="55.615234" xlink:href="#ArialMT-30"/>
       <use x="111.230469" xlink:href="#ArialMT-30"/>
      </g>
     </g>
    </g>
    <g id="xtick_11">
     <g id="line2d_17">
      <g>
       <use style="fill:#262626;stroke:#262626;" x="304.181818" xlink:href="#m298daf67f0" y="512.64"/>
      </g>
     </g>
     <g id="text_16">
      <!-- 400 -->
      <g style="fill:#262626;" transform="translate(295.840412 532.797812)scale(0.1 -0.1)">
       <use xlink:href="#ArialMT-34"/>
       <use x="55.615234" xlink:href="#ArialMT-30"/>
       <use x="111.230469" xlink:href="#ArialMT-30"/>
      </g>
     </g>
    </g>
    <g id="xtick_12">
     <g id="line2d_18">
      <g>
       <use style="fill:#262626;stroke:#262626;" x="416.909091" xlink:href="#m298daf67f0" y="512.64"/>
      </g>
     </g>
     <g id="text_17">
      <!-- 600 -->
      <g style="fill:#262626;" transform="translate(408.567685 532.797812)scale(0.1 -0.1)">
       <use xlink:href="#ArialMT-36"/>
       <use x="55.615234" xlink:href="#ArialMT-30"/>
       <use x="111.230469" xlink:href="#ArialMT-30"/>
      </g>
     </g>
    </g>
    <g id="xtick_13">
     <g id="line2d_19">
      <g>
       <use style="fill:#262626;stroke:#262626;" x="529.636364" xlink:href="#m298daf67f0" y="512.64"/>
      </g>
     </g>
     <g id="text_18">
      <!-- 800 -->
      <g style="fill:#262626;" transform="translate(521.294957 532.797812)scale(0.1 -0.1)">
       <use xlink:href="#ArialMT-38"/>
       <use x="55.615234" xlink:href="#ArialMT-30"/>
       <use x="111.230469" xlink:href="#ArialMT-30"/>
      </g>
     </g>
    </g>
    <g id="xtick_14">
     <g id="line2d_20">
      <g>
       <use style="fill:#262626;stroke:#262626;" x="642.363636" xlink:href="#m298daf67f0" y="512.64"/>
      </g>
     </g>
     <g id="text_19">
      <!-- 1000 -->
      <g style="fill:#262626;" transform="translate(631.241761 532.797812)scale(0.1 -0.1)">
       <use xlink:href="#ArialMT-31"/>
       <use x="55.615234" xlink:href="#ArialMT-30"/>
       <use x="111.230469" xlink:href="#ArialMT-30"/>
       <use x="166.845703" xlink:href="#ArialMT-30"/>
      </g>
     </g>
    </g>
   </g>
   <g id="matplotlib.axis_4">
    <g id="ytick_6">
     <g id="line2d_21">
      <g>
       <use style="fill:#262626;stroke:#262626;" x="90" xlink:href="#mbb7d01505b" y="512.64"/>
      </g>
     </g>
     <g id="text_20">
      <!-- 0 -->
      <g style="fill:#262626;" transform="translate(71.439063 516.218906)scale(0.1 -0.1)">
       <use xlink:href="#ArialMT-30"/>
      </g>
     </g>
    </g>
    <g id="ytick_7">
     <g id="line2d_22">
      <g>
       <use style="fill:#262626;stroke:#262626;" x="90" xlink:href="#mbb7d01505b" y="490.24"/>
      </g>
     </g>
     <g id="text_21">
      <!-- 2 -->
      <g style="fill:#262626;" transform="translate(71.439063 493.818906)scale(0.1 -0.1)">
       <use xlink:href="#ArialMT-32"/>
      </g>
     </g>
    </g>
    <g id="ytick_8">
     <g id="line2d_23">
      <g>
       <use style="fill:#262626;stroke:#262626;" x="90" xlink:href="#mbb7d01505b" y="467.84"/>
      </g>
     </g>
     <g id="text_22">
      <!-- 4 -->
      <g style="fill:#262626;" transform="translate(71.439063 471.418906)scale(0.1 -0.1)">
       <use xlink:href="#ArialMT-34"/>
      </g>
     </g>
    </g>
    <g id="ytick_9">
     <g id="line2d_24">
      <g>
       <use style="fill:#262626;stroke:#262626;" x="90" xlink:href="#mbb7d01505b" y="445.44"/>
      </g>
     </g>
     <g id="text_23">
      <!-- 6 -->
      <g style="fill:#262626;" transform="translate(71.439063 449.018906)scale(0.1 -0.1)">
       <use xlink:href="#ArialMT-36"/>
      </g>
     </g>
    </g>
    <g id="ytick_10">
     <g id="line2d_25">
      <g>
       <use style="fill:#262626;stroke:#262626;" x="90" xlink:href="#mbb7d01505b" y="423.04"/>
      </g>
     </g>
     <g id="text_24">
      <!-- 8 -->
      <g style="fill:#262626;" transform="translate(71.439063 426.618906)scale(0.1 -0.1)">
       <use xlink:href="#ArialMT-38"/>
      </g>
     </g>
    </g>
    <g id="ytick_11">
     <g id="line2d_26">
      <g>
       <use style="fill:#262626;stroke:#262626;" x="90" xlink:href="#mbb7d01505b" y="400.64"/>
      </g>
     </g>
     <g id="text_25">
      <!-- 10 -->
      <g style="fill:#262626;" transform="translate(65.878125 404.218906)scale(0.1 -0.1)">
       <use xlink:href="#ArialMT-31"/>
       <use x="55.615234" xlink:href="#ArialMT-30"/>
      </g>
     </g>
    </g>
    <g id="ytick_12">
     <g id="line2d_27">
      <g>
       <use style="fill:#262626;stroke:#262626;" x="90" xlink:href="#mbb7d01505b" y="378.24"/>
      </g>
     </g>
     <g id="text_26">
      <!-- 12 -->
      <g style="fill:#262626;" transform="translate(65.878125 381.818906)scale(0.1 -0.1)">
       <use xlink:href="#ArialMT-31"/>
       <use x="55.615234" xlink:href="#ArialMT-32"/>
      </g>
     </g>
    </g>
    <g id="ytick_13">
     <g id="line2d_28">
      <g>
       <use style="fill:#262626;stroke:#262626;" x="90" xlink:href="#mbb7d01505b" y="355.84"/>
      </g>
     </g>
     <g id="text_27">
      <!-- 14 -->
      <g style="fill:#262626;" transform="translate(65.878125 359.418906)scale(0.1 -0.1)">
       <use xlink:href="#ArialMT-31"/>
       <use x="55.615234" xlink:href="#ArialMT-34"/>
      </g>
     </g>
    </g>
    <g id="ytick_14">
     <g id="line2d_29">
      <g>
       <use style="fill:#262626;stroke:#262626;" x="90" xlink:href="#mbb7d01505b" y="333.44"/>
      </g>
     </g>
     <g id="text_28">
      <!-- 16 -->
      <g style="fill:#262626;" transform="translate(65.878125 337.018906)scale(0.1 -0.1)">
       <use xlink:href="#ArialMT-31"/>
       <use x="55.615234" xlink:href="#ArialMT-36"/>
      </g>
     </g>
    </g>
    <g id="ytick_15">
     <g id="line2d_30">
      <g>
       <use style="fill:#262626;stroke:#262626;" x="90" xlink:href="#mbb7d01505b" y="311.04"/>
      </g>
     </g>
     <g id="text_29">
      <!-- 18 -->
      <g style="fill:#262626;" transform="translate(65.878125 314.618906)scale(0.1 -0.1)">
       <use xlink:href="#ArialMT-31"/>
       <use x="55.615234" xlink:href="#ArialMT-38"/>
      </g>
     </g>
    </g>
   </g>
   <g id="line2d_31">
    <path clip-path="url(#p0a0b973440)" d="M 90 477.654723 
L 95.636364 452.736402 
L 101.272727 431.923589 
L 106.909091 427.92302 
L 112.545455 440.45326 
L 118.181818 444.705349 
L 123.818182 448.961059 
L 129.454545 457.370701 
L 135.090909 456.375715 
L 140.727273 434.868159 
L 146.363636 408.816951 
L 152 389.988216 
L 157.636364 371.492183 
L 163.272727 352.310178 
" style="fill:none;stroke:#b22222;stroke-linecap:round;stroke-width:1.75;"/>
   </g>
   <g id="line2d_32">
    <path clip-path="url(#p0a0b973440)" d="M 152 512.64 
L 152 311.04 
" style="fill:none;stroke:#4c72b0;stroke-linecap:round;stroke-width:1.75;"/>
   </g>
   <g id="patch_6">
    <path d="M 90 512.64 
L 90 311.04 
" style="fill:none;stroke:#262626;stroke-linecap:square;stroke-linejoin:miter;stroke-width:1.25;"/>
   </g>
   <g id="patch_7">
    <path d="M 90 512.64 
L 648 512.64 
" style="fill:none;stroke:#262626;stroke-linecap:square;stroke-linejoin:miter;stroke-width:1.25;"/>
   </g>
   <g id="text_30">
    <!-- f = 150 Hz -->
    <defs>
     <path d="M 8.6875 0 
L 8.6875 45.015625 
L 0.921875 45.015625 
L 0.921875 51.859375 
L 8.6875 51.859375 
L 8.6875 57.375 
Q 8.6875 62.59375 9.625 65.140625 
Q 10.890625 68.5625 14.078125 70.671875 
Q 17.28125 72.796875 23.046875 72.796875 
Q 26.765625 72.796875 31.25 71.921875 
L 29.9375 64.265625 
Q 27.203125 64.75 24.75 64.75 
Q 20.75 64.75 19.09375 63.03125 
Q 17.4375 61.328125 17.4375 56.640625 
L 17.4375 51.859375 
L 27.546875 51.859375 
L 27.546875 45.015625 
L 17.4375 45.015625 
L 17.4375 0 
z
" id="ArialMT-66"/>
     <path id="ArialMT-20"/>
     <path d="M 52.828125 42.09375 
L 5.5625 42.09375 
L 5.5625 50.296875 
L 52.828125 50.296875 
z
M 52.828125 20.359375 
L 5.5625 20.359375 
L 5.5625 28.5625 
L 52.828125 28.5625 
z
" id="ArialMT-3d"/>
     <path d="M 8.015625 0 
L 8.015625 71.578125 
L 17.484375 71.578125 
L 17.484375 42.1875 
L 54.6875 42.1875 
L 54.6875 71.578125 
L 64.15625 71.578125 
L 64.15625 0 
L 54.6875 0 
L 54.6875 33.734375 
L 17.484375 33.734375 
L 17.484375 0 
z
" id="ArialMT-48"/>
     <path d="M 1.953125 0 
L 1.953125 7.125 
L 34.96875 45.015625 
Q 29.34375 44.734375 25.046875 44.734375 
L 3.90625 44.734375 
L 3.90625 51.859375 
L 46.296875 51.859375 
L 46.296875 46.046875 
L 18.21875 13.140625 
L 12.796875 7.125 
Q 18.703125 7.5625 23.875 7.5625 
L 47.859375 7.5625 
L 47.859375 0 
z
" id="ArialMT-7a"/>
    </defs>
    <g style="fill:#262626;" transform="translate(529.636364 403.742188)scale(0.12 -0.12)">
     <use xlink:href="#ArialMT-66"/>
     <use x="27.783203" xlink:href="#ArialMT-20"/>
     <use x="55.566406" xlink:href="#ArialMT-3d"/>
     <use x="113.964844" xlink:href="#ArialMT-20"/>
     <use x="141.748047" xlink:href="#ArialMT-31"/>
     <use x="197.363281" xlink:href="#ArialMT-35"/>
     <use x="252.978516" xlink:href="#ArialMT-30"/>
     <use x="308.59375" xlink:href="#ArialMT-20"/>
     <use x="336.376953" xlink:href="#ArialMT-48"/>
     <use x="408.59375" xlink:href="#ArialMT-7a"/>
    </g>
   </g>
   <g id="PathCollection_1">
    <defs>
     <path d="M 0 3.5 
C 0.928211 3.5 1.81853 3.131218 2.474874 2.474874 
C 3.131218 1.81853 3.5 0.928211 3.5 0 
C 3.5 -0.928211 3.131218 -1.81853 2.474874 -2.474874 
C 1.81853 -3.131218 0.928211 -3.5 0 -3.5 
C -0.928211 -3.5 -1.81853 -3.131218 -2.474874 -2.474874 
C -3.131218 -1.81853 -3.5 -0.928211 -3.5 0 
C -3.5 0.928211 -3.131218 1.81853 -2.474874 2.474874 
C -1.81853 3.131218 -0.928211 3.5 0 3.5 
z
" id="m04881c74da" style="stroke:#800000;stroke-width:0.3;"/>
    </defs>
    <g clip-path="url(#p0a0b973440)">
     <use style="fill:#800000;stroke:#800000;stroke-width:0.3;" x="163.272727" xlink:href="#m04881c74da" y="352.310178"/>
    </g>
   </g>
  </g>
 </g>
 <defs>
  <clipPath id="p81d850613d">
   <rect height="201.6" width="558" x="90" y="69.12"/>
  </clipPath>
  <clipPath id="p0a0b973440">
   <rect height="201.6" width="558" x="90" y="311.04"/>
  </clipPath>
 </defs>
</svg>
