<?xml version="1.0" encoding="utf-8" standalone="no"?>
<!DOCTYPE svg PUBLIC "-//W3C//DTD SVG 1.1//EN"
  "http://www.w3.org/Graphics/SVG/1.1/DTD/svg11.dtd">
<!-- Created with matplotlib (http://matplotlib.org/) -->
<svg height="576pt" version="1.1" viewBox="0 0 720 576" width="720pt" xmlns="http://www.w3.org/2000/svg" xmlns:xlink="http://www.w3.org/1999/xlink">
 <defs>
  <style type="text/css">
*{stroke-linecap:butt;stroke-linejoin:round;}
  </style>
 </defs>
 <g id="figure_1">
  <g id="patch_1">
   <path d="M 0 576 
L 720 576 
L 720 0 
L 0 0 
z
" style="fill:#ffffff;"/>
  </g>
  <g id="axes_1">
   <g id="patch_2">
    <path d="M 90 270.72 
L 648 270.72 
L 648 69.12 
L 90 69.12 
z
" style="fill:#ffffff;"/>
   </g>
   <g id="matplotlib.axis_1">
    <g id="xtick_1">
     <g id="line2d_1">
      <defs>
       <path d="M 0 0 
L 0 6 
" id="ma58b646b24" style="stroke:#262626;"/>
      </defs>
      <g>
       <use style="fill:#262626;stroke:#262626;" x="90" xlink:href="#ma58b646b24" y="270.72"/>
      </g>
     </g>
     <g id="text_1">
      <!-- 0 -->
      <defs>
       <path d="M 4.15625 35.296875 
Q 4.15625 48 6.765625 55.734375 
Q 9.375 63.484375 14.515625 67.671875 
Q 19.671875 71.875 27.484375 71.875 
Q 33.25 71.875 37.59375 69.546875 
Q 41.9375 67.234375 44.765625 62.859375 
Q 47.609375 58.5 49.21875 52.21875 
Q 50.828125 45.953125 50.828125 35.296875 
Q 50.828125 22.703125 48.234375 14.96875 
Q 45.65625 7.234375 40.5 3 
Q 35.359375 -1.21875 27.484375 -1.21875 
Q 17.140625 -1.21875 11.234375 6.203125 
Q 4.15625 15.140625 4.15625 35.296875 
z
M 13.1875 35.296875 
Q 13.1875 17.671875 17.3125 11.828125 
Q 21.4375 6 27.484375 6 
Q 33.546875 6 37.671875 11.859375 
Q 41.796875 17.71875 41.796875 35.296875 
Q 41.796875 52.984375 37.671875 58.78125 
Q 33.546875 64.59375 27.390625 64.59375 
Q 21.34375 64.59375 17.71875 59.46875 
Q 13.1875 52.9375 13.1875 35.296875 
z
" id="ArialMT-30"/>
      </defs>
      <g style="fill:#262626;" transform="translate(87.219531 290.877812)scale(0.1 -0.1)">
       <use xlink:href="#ArialMT-30"/>
      </g>
     </g>
    </g>
    <g id="xtick_2">
     <g id="line2d_2">
      <g>
       <use style="fill:#262626;stroke:#262626;" x="159.75" xlink:href="#ma58b646b24" y="270.72"/>
      </g>
     </g>
     <g id="text_2">
      <!-- 100 -->
      <defs>
       <path d="M 37.25 0 
L 28.46875 0 
L 28.46875 56 
Q 25.296875 52.984375 20.140625 49.953125 
Q 14.984375 46.921875 10.890625 45.40625 
L 10.890625 53.90625 
Q 18.265625 57.375 23.78125 62.296875 
Q 29.296875 67.234375 31.59375 71.875 
L 37.25 71.875 
z
" id="ArialMT-31"/>
      </defs>
      <g style="fill:#262626;" transform="translate(151.408594 290.877812)scale(0.1 -0.1)">
       <use xlink:href="#ArialMT-31"/>
       <use x="55.615234" xlink:href="#ArialMT-30"/>
       <use x="111.230469" xlink:href="#ArialMT-30"/>
      </g>
     </g>
    </g>
    <g id="xtick_3">
     <g id="line2d_3">
      <g>
       <use style="fill:#262626;stroke:#262626;" x="229.5" xlink:href="#ma58b646b24" y="270.72"/>
      </g>
     </g>
     <g id="text_3">
      <!-- 200 -->
      <defs>
       <path d="M 50.34375 8.453125 
L 50.34375 0 
L 3.03125 0 
Q 2.9375 3.171875 4.046875 6.109375 
Q 5.859375 10.9375 9.828125 15.625 
Q 13.8125 20.3125 21.34375 26.46875 
Q 33.015625 36.03125 37.109375 41.625 
Q 41.21875 47.21875 41.21875 52.203125 
Q 41.21875 57.421875 37.46875 61 
Q 33.734375 64.59375 27.734375 64.59375 
Q 21.390625 64.59375 17.578125 60.78125 
Q 13.765625 56.984375 13.71875 50.25 
L 4.6875 51.171875 
Q 5.609375 61.28125 11.65625 66.578125 
Q 17.71875 71.875 27.9375 71.875 
Q 38.234375 71.875 44.234375 66.15625 
Q 50.25 60.453125 50.25 52 
Q 50.25 47.703125 48.484375 43.546875 
Q 46.734375 39.40625 42.65625 34.8125 
Q 38.578125 30.21875 29.109375 22.21875 
Q 21.1875 15.578125 18.9375 13.203125 
Q 16.703125 10.84375 15.234375 8.453125 
z
" id="ArialMT-32"/>
      </defs>
      <g style="fill:#262626;" transform="translate(221.158594 290.877812)scale(0.1 -0.1)">
       <use xlink:href="#ArialMT-32"/>
       <use x="55.615234" xlink:href="#ArialMT-30"/>
       <use x="111.230469" xlink:href="#ArialMT-30"/>
      </g>
     </g>
    </g>
    <g id="xtick_4">
     <g id="line2d_4">
      <g>
       <use style="fill:#262626;stroke:#262626;" x="299.25" xlink:href="#ma58b646b24" y="270.72"/>
      </g>
     </g>
     <g id="text_4">
      <!-- 300 -->
      <defs>
       <path d="M 4.203125 18.890625 
L 12.984375 20.0625 
Q 14.5 12.59375 18.140625 9.296875 
Q 21.78125 6 27 6 
Q 33.203125 6 37.46875 10.296875 
Q 41.75 14.59375 41.75 20.953125 
Q 41.75 27 37.796875 30.921875 
Q 33.84375 34.859375 27.734375 34.859375 
Q 25.25 34.859375 21.53125 33.890625 
L 22.515625 41.609375 
Q 23.390625 41.5 23.921875 41.5 
Q 29.546875 41.5 34.03125 44.421875 
Q 38.53125 47.359375 38.53125 53.46875 
Q 38.53125 58.296875 35.25 61.46875 
Q 31.984375 64.65625 26.8125 64.65625 
Q 21.6875 64.65625 18.265625 61.421875 
Q 14.84375 58.203125 13.875 51.765625 
L 5.078125 53.328125 
Q 6.6875 62.15625 12.390625 67.015625 
Q 18.109375 71.875 26.609375 71.875 
Q 32.46875 71.875 37.390625 69.359375 
Q 42.328125 66.84375 44.9375 62.5 
Q 47.5625 58.15625 47.5625 53.265625 
Q 47.5625 48.640625 45.0625 44.828125 
Q 42.578125 41.015625 37.703125 38.765625 
Q 44.046875 37.3125 47.5625 32.6875 
Q 51.078125 28.078125 51.078125 21.140625 
Q 51.078125 11.765625 44.234375 5.25 
Q 37.40625 -1.265625 26.953125 -1.265625 
Q 17.53125 -1.265625 11.296875 4.34375 
Q 5.078125 9.96875 4.203125 18.890625 
z
" id="ArialMT-33"/>
      </defs>
      <g style="fill:#262626;" transform="translate(290.908594 290.877812)scale(0.1 -0.1)">
       <use xlink:href="#ArialMT-33"/>
       <use x="55.615234" xlink:href="#ArialMT-30"/>
       <use x="111.230469" xlink:href="#ArialMT-30"/>
      </g>
     </g>
    </g>
    <g id="xtick_5">
     <g id="line2d_5">
      <g>
       <use style="fill:#262626;stroke:#262626;" x="369" xlink:href="#ma58b646b24" y="270.72"/>
      </g>
     </g>
     <g id="text_5">
      <!-- 400 -->
      <defs>
       <path d="M 32.328125 0 
L 32.328125 17.140625 
L 1.265625 17.140625 
L 1.265625 25.203125 
L 33.9375 71.578125 
L 41.109375 71.578125 
L 41.109375 25.203125 
L 50.78125 25.203125 
L 50.78125 17.140625 
L 41.109375 17.140625 
L 41.109375 0 
z
M 32.328125 25.203125 
L 32.328125 57.46875 
L 9.90625 25.203125 
z
" id="ArialMT-34"/>
      </defs>
      <g style="fill:#262626;" transform="translate(360.658594 290.877812)scale(0.1 -0.1)">
       <use xlink:href="#ArialMT-34"/>
       <use x="55.615234" xlink:href="#ArialMT-30"/>
       <use x="111.230469" xlink:href="#ArialMT-30"/>
      </g>
     </g>
    </g>
    <g id="xtick_6">
     <g id="line2d_6">
      <g>
       <use style="fill:#262626;stroke:#262626;" x="438.75" xlink:href="#ma58b646b24" y="270.72"/>
      </g>
     </g>
     <g id="text_6">
      <!-- 500 -->
      <defs>
       <path d="M 4.15625 18.75 
L 13.375 19.53125 
Q 14.40625 12.796875 18.140625 9.390625 
Q 21.875 6 27.15625 6 
Q 33.5 6 37.890625 10.78125 
Q 42.28125 15.578125 42.28125 23.484375 
Q 42.28125 31 38.0625 35.34375 
Q 33.84375 39.703125 27 39.703125 
Q 22.75 39.703125 19.328125 37.765625 
Q 15.921875 35.84375 13.96875 32.765625 
L 5.71875 33.84375 
L 12.640625 70.609375 
L 48.25 70.609375 
L 48.25 62.203125 
L 19.671875 62.203125 
L 15.828125 42.96875 
Q 22.265625 47.46875 29.34375 47.46875 
Q 38.71875 47.46875 45.15625 40.96875 
Q 51.609375 34.46875 51.609375 24.265625 
Q 51.609375 14.546875 45.953125 7.46875 
Q 39.0625 -1.21875 27.15625 -1.21875 
Q 17.390625 -1.21875 11.203125 4.25 
Q 5.03125 9.71875 4.15625 18.75 
z
" id="ArialMT-35"/>
      </defs>
      <g style="fill:#262626;" transform="translate(430.408594 290.877812)scale(0.1 -0.1)">
       <use xlink:href="#ArialMT-35"/>
       <use x="55.615234" xlink:href="#ArialMT-30"/>
       <use x="111.230469" xlink:href="#ArialMT-30"/>
      </g>
     </g>
    </g>
    <g id="xtick_7">
     <g id="line2d_7">
      <g>
       <use style="fill:#262626;stroke:#262626;" x="508.5" xlink:href="#ma58b646b24" y="270.72"/>
      </g>
     </g>
     <g id="text_7">
      <!-- 600 -->
      <defs>
       <path d="M 49.75 54.046875 
L 41.015625 53.375 
Q 39.84375 58.546875 37.703125 60.890625 
Q 34.125 64.65625 28.90625 64.65625 
Q 24.703125 64.65625 21.53125 62.3125 
Q 17.390625 59.28125 14.984375 53.46875 
Q 12.59375 47.65625 12.5 36.921875 
Q 15.671875 41.75 20.265625 44.09375 
Q 24.859375 46.4375 29.890625 46.4375 
Q 38.671875 46.4375 44.84375 39.96875 
Q 51.03125 33.5 51.03125 23.25 
Q 51.03125 16.5 48.125 10.71875 
Q 45.21875 4.9375 40.140625 1.859375 
Q 35.0625 -1.21875 28.609375 -1.21875 
Q 17.625 -1.21875 10.6875 6.859375 
Q 3.765625 14.9375 3.765625 33.5 
Q 3.765625 54.25 11.421875 63.671875 
Q 18.109375 71.875 29.4375 71.875 
Q 37.890625 71.875 43.28125 67.140625 
Q 48.6875 62.40625 49.75 54.046875 
z
M 13.875 23.1875 
Q 13.875 18.65625 15.796875 14.5 
Q 17.71875 10.359375 21.1875 8.171875 
Q 24.65625 6 28.46875 6 
Q 34.03125 6 38.03125 10.484375 
Q 42.046875 14.984375 42.046875 22.703125 
Q 42.046875 30.125 38.078125 34.390625 
Q 34.125 38.671875 28.125 38.671875 
Q 22.171875 38.671875 18.015625 34.390625 
Q 13.875 30.125 13.875 23.1875 
z
" id="ArialMT-36"/>
      </defs>
      <g style="fill:#262626;" transform="translate(500.158594 290.877812)scale(0.1 -0.1)">
       <use xlink:href="#ArialMT-36"/>
       <use x="55.615234" xlink:href="#ArialMT-30"/>
       <use x="111.230469" xlink:href="#ArialMT-30"/>
      </g>
     </g>
    </g>
    <g id="xtick_8">
     <g id="line2d_8">
      <g>
       <use style="fill:#262626;stroke:#262626;" x="578.25" xlink:href="#ma58b646b24" y="270.72"/>
      </g>
     </g>
     <g id="text_8">
      <!-- 700 -->
      <defs>
       <path d="M 4.734375 62.203125 
L 4.734375 70.65625 
L 51.078125 70.65625 
L 51.078125 63.8125 
Q 44.234375 56.546875 37.515625 44.484375 
Q 30.8125 32.421875 27.15625 19.671875 
Q 24.515625 10.6875 23.78125 0 
L 14.75 0 
Q 14.890625 8.453125 18.0625 20.40625 
Q 21.234375 32.375 27.171875 43.484375 
Q 33.109375 54.59375 39.796875 62.203125 
z
" id="ArialMT-37"/>
      </defs>
      <g style="fill:#262626;" transform="translate(569.908594 290.877812)scale(0.1 -0.1)">
       <use xlink:href="#ArialMT-37"/>
       <use x="55.615234" xlink:href="#ArialMT-30"/>
       <use x="111.230469" xlink:href="#ArialMT-30"/>
      </g>
     </g>
    </g>
    <g id="xtick_9">
     <g id="line2d_9">
      <g>
       <use style="fill:#262626;stroke:#262626;" x="648" xlink:href="#ma58b646b24" y="270.72"/>
      </g>
     </g>
     <g id="text_9">
      <!-- 800 -->
      <defs>
       <path d="M 17.671875 38.8125 
Q 12.203125 40.828125 9.5625 44.53125 
Q 6.9375 48.25 6.9375 53.421875 
Q 6.9375 61.234375 12.546875 66.546875 
Q 18.171875 71.875 27.484375 71.875 
Q 36.859375 71.875 42.578125 66.421875 
Q 48.296875 60.984375 48.296875 53.171875 
Q 48.296875 48.1875 45.671875 44.5 
Q 43.0625 40.828125 37.75 38.8125 
Q 44.34375 36.671875 47.78125 31.875 
Q 51.21875 27.09375 51.21875 20.453125 
Q 51.21875 11.28125 44.71875 5.03125 
Q 38.234375 -1.21875 27.640625 -1.21875 
Q 17.046875 -1.21875 10.546875 5.046875 
Q 4.046875 11.328125 4.046875 20.703125 
Q 4.046875 27.6875 7.59375 32.390625 
Q 11.140625 37.109375 17.671875 38.8125 
z
M 15.921875 53.71875 
Q 15.921875 48.640625 19.1875 45.40625 
Q 22.46875 42.1875 27.6875 42.1875 
Q 32.765625 42.1875 36.015625 45.375 
Q 39.265625 48.578125 39.265625 53.21875 
Q 39.265625 58.0625 35.90625 61.359375 
Q 32.5625 64.65625 27.59375 64.65625 
Q 22.5625 64.65625 19.234375 61.421875 
Q 15.921875 58.203125 15.921875 53.71875 
z
M 13.09375 20.65625 
Q 13.09375 16.890625 14.875 13.375 
Q 16.65625 9.859375 20.171875 7.921875 
Q 23.6875 6 27.734375 6 
Q 34.03125 6 38.125 10.046875 
Q 42.234375 14.109375 42.234375 20.359375 
Q 42.234375 26.703125 38.015625 30.859375 
Q 33.796875 35.015625 27.4375 35.015625 
Q 21.234375 35.015625 17.15625 30.90625 
Q 13.09375 26.8125 13.09375 20.65625 
z
" id="ArialMT-38"/>
      </defs>
      <g style="fill:#262626;" transform="translate(639.658594 290.877812)scale(0.1 -0.1)">
       <use xlink:href="#ArialMT-38"/>
       <use x="55.615234" xlink:href="#ArialMT-30"/>
       <use x="111.230469" xlink:href="#ArialMT-30"/>
      </g>
     </g>
    </g>
   </g>
   <g id="matplotlib.axis_2">
    <g id="ytick_1">
     <g id="line2d_10">
      <defs>
       <path d="M 0 0 
L -6 0 
" id="mbb99d4235e" style="stroke:#262626;"/>
      </defs>
      <g>
       <use style="fill:#262626;stroke:#262626;" x="90" xlink:href="#mbb99d4235e" y="250.56"/>
      </g>
     </g>
     <g id="text_10">
      <!-- −0.04 -->
      <defs>
       <path d="M 52.828125 31.203125 
L 5.5625 31.203125 
L 5.5625 39.40625 
L 52.828125 39.40625 
z
" id="ArialMT-2212"/>
       <path d="M 9.078125 0 
L 9.078125 10.015625 
L 19.09375 10.015625 
L 19.09375 0 
z
" id="ArialMT-2e"/>
      </defs>
      <g style="fill:#262626;" transform="translate(51.698437 254.138906)scale(0.1 -0.1)">
       <use xlink:href="#ArialMT-2212"/>
       <use x="58.398438" xlink:href="#ArialMT-30"/>
       <use x="114.013672" xlink:href="#ArialMT-2e"/>
       <use x="141.796875" xlink:href="#ArialMT-30"/>
       <use x="197.412109" xlink:href="#ArialMT-34"/>
      </g>
     </g>
    </g>
    <g id="ytick_2">
     <g id="line2d_11">
      <g>
       <use style="fill:#262626;stroke:#262626;" x="90" xlink:href="#mbb99d4235e" y="210.24"/>
      </g>
     </g>
     <g id="text_11">
      <!-- −0.02 -->
      <g style="fill:#262626;" transform="translate(51.698437 213.818906)scale(0.1 -0.1)">
       <use xlink:href="#ArialMT-2212"/>
       <use x="58.398438" xlink:href="#ArialMT-30"/>
       <use x="114.013672" xlink:href="#ArialMT-2e"/>
       <use x="141.796875" xlink:href="#ArialMT-30"/>
       <use x="197.412109" xlink:href="#ArialMT-32"/>
      </g>
     </g>
    </g>
    <g id="ytick_3">
     <g id="line2d_12">
      <g>
       <use style="fill:#262626;stroke:#262626;" x="90" xlink:href="#mbb99d4235e" y="169.92"/>
      </g>
     </g>
     <g id="text_12">
      <!-- 0.00 -->
      <g style="fill:#262626;" transform="translate(57.539062 173.498906)scale(0.1 -0.1)">
       <use xlink:href="#ArialMT-30"/>
       <use x="55.615234" xlink:href="#ArialMT-2e"/>
       <use x="83.398438" xlink:href="#ArialMT-30"/>
       <use x="139.013672" xlink:href="#ArialMT-30"/>
      </g>
     </g>
    </g>
    <g id="ytick_4">
     <g id="line2d_13">
      <g>
       <use style="fill:#262626;stroke:#262626;" x="90" xlink:href="#mbb99d4235e" y="129.6"/>
      </g>
     </g>
     <g id="text_13">
      <!-- 0.02 -->
      <g style="fill:#262626;" transform="translate(57.539062 133.178906)scale(0.1 -0.1)">
       <use xlink:href="#ArialMT-30"/>
       <use x="55.615234" xlink:href="#ArialMT-2e"/>
       <use x="83.398438" xlink:href="#ArialMT-30"/>
       <use x="139.013672" xlink:href="#ArialMT-32"/>
      </g>
     </g>
    </g>
    <g id="ytick_5">
     <g id="line2d_14">
      <g>
       <use style="fill:#262626;stroke:#262626;" x="90" xlink:href="#mbb99d4235e" y="89.28"/>
      </g>
     </g>
     <g id="text_14">
      <!-- 0.04 -->
      <g style="fill:#262626;" transform="translate(57.539062 92.858906)scale(0.1 -0.1)">
       <use xlink:href="#ArialMT-30"/>
       <use x="55.615234" xlink:href="#ArialMT-2e"/>
       <use x="83.398438" xlink:href="#ArialMT-30"/>
       <use x="139.013672" xlink:href="#ArialMT-34"/>
      </g>
     </g>
    </g>
   </g>
   <g id="PolyCollection_1">
    <path clip-path="url(#p6608a8a87d)" d="M 90 174.808288 
L 90 169.92 
L 90.6975 169.92 
L 91.395 169.92 
L 92.0925 169.92 
L 92.79 169.92 
L 93.4875 169.92 
L 94.185 169.92 
L 94.8825 169.92 
L 95.58 169.92 
L 96.2775 169.92 
L 96.975 169.92 
L 97.6725 169.92 
L 98.37 169.92 
L 99.0675 169.92 
L 99.765 169.92 
L 100.4625 169.92 
L 101.16 169.92 
L 101.8575 169.92 
L 102.555 169.92 
L 103.2525 169.92 
L 103.95 169.92 
L 104.6475 169.92 
L 105.345 169.92 
L 106.0425 169.92 
L 106.74 169.92 
L 107.4375 169.92 
L 108.135 169.92 
L 108.8325 169.92 
L 109.53 169.92 
L 110.2275 169.92 
L 110.925 169.92 
L 111.6225 169.92 
L 112.32 169.92 
L 113.0175 169.92 
L 113.715 169.92 
L 114.4125 169.92 
L 115.11 169.92 
L 115.8075 169.92 
L 116.505 169.92 
L 117.2025 169.92 
L 117.9 169.92 
L 118.5975 169.92 
L 119.295 169.92 
L 119.9925 169.92 
L 120.69 169.92 
L 121.3875 169.92 
L 122.085 169.92 
L 122.7825 169.92 
L 123.48 169.92 
L 124.1775 169.92 
L 124.875 169.92 
L 125.5725 169.92 
L 126.27 169.92 
L 126.9675 169.92 
L 127.665 169.92 
L 128.3625 169.92 
L 129.06 169.92 
L 129.7575 169.92 
L 130.455 169.92 
L 131.1525 169.92 
L 131.85 169.92 
L 132.5475 169.92 
L 133.245 169.92 
L 133.9425 169.92 
L 134.64 169.92 
L 135.3375 169.92 
L 136.035 169.92 
L 136.7325 169.92 
L 137.43 169.92 
L 138.1275 169.92 
L 138.825 169.92 
L 139.5225 169.92 
L 140.22 169.92 
L 140.9175 169.92 
L 141.615 169.92 
L 142.3125 169.92 
L 143.01 169.92 
L 143.7075 169.92 
L 144.405 169.92 
L 145.1025 169.92 
L 145.8 169.92 
L 146.4975 169.92 
L 147.195 169.92 
L 147.8925 169.92 
L 148.59 169.92 
L 149.2875 169.92 
L 149.985 169.92 
L 150.6825 169.92 
L 151.38 169.92 
L 152.0775 169.92 
L 152.775 169.92 
L 153.4725 169.92 
L 154.17 169.92 
L 154.8675 169.92 
L 155.565 169.92 
L 156.2625 169.92 
L 156.96 169.92 
L 157.6575 169.92 
L 158.355 169.92 
L 159.0525 169.92 
L 159.75 169.92 
L 160.4475 169.92 
L 161.145 169.92 
L 161.8425 169.92 
L 162.54 169.92 
L 163.2375 169.92 
L 163.935 169.92 
L 164.6325 169.92 
L 165.33 169.92 
L 166.0275 169.92 
L 166.725 169.92 
L 167.4225 169.92 
L 168.12 169.92 
L 168.8175 169.92 
L 169.515 169.92 
L 170.2125 169.92 
L 170.91 169.92 
L 171.6075 169.92 
L 172.305 169.92 
L 173.0025 169.92 
L 173.7 169.92 
L 174.3975 169.92 
L 175.095 169.92 
L 175.7925 169.92 
L 176.49 169.92 
L 177.1875 169.92 
L 177.885 169.92 
L 178.5825 169.92 
L 179.28 169.92 
L 179.9775 169.92 
L 180.675 169.92 
L 181.3725 169.92 
L 182.07 169.92 
L 182.7675 169.92 
L 183.465 169.92 
L 184.1625 169.92 
L 184.86 169.92 
L 185.5575 169.92 
L 186.255 169.92 
L 186.9525 169.92 
L 187.65 169.92 
L 188.3475 169.92 
L 189.045 169.92 
L 189.7425 169.92 
L 190.44 169.92 
L 191.1375 169.92 
L 191.835 169.92 
L 192.5325 169.92 
L 193.23 169.92 
L 193.9275 169.92 
L 194.625 169.92 
L 195.3225 169.92 
L 196.02 169.92 
L 196.7175 169.92 
L 197.415 169.92 
L 198.1125 169.92 
L 198.81 169.92 
L 199.5075 169.92 
L 200.205 169.92 
L 200.9025 169.92 
L 201.6 169.92 
L 202.2975 169.92 
L 202.995 169.92 
L 203.6925 169.92 
L 204.39 169.92 
L 205.0875 169.92 
L 205.785 169.92 
L 206.4825 169.92 
L 207.18 169.92 
L 207.8775 169.92 
L 208.575 169.92 
L 209.2725 169.92 
L 209.97 169.92 
L 210.6675 169.92 
L 211.365 169.92 
L 212.0625 169.92 
L 212.76 169.92 
L 213.4575 169.92 
L 214.155 169.92 
L 214.8525 169.92 
L 215.55 169.92 
L 216.2475 169.92 
L 216.945 169.92 
L 217.6425 169.92 
L 218.34 169.92 
L 219.0375 169.92 
L 219.735 169.92 
L 220.4325 169.92 
L 221.13 169.92 
L 221.8275 169.92 
L 222.525 169.92 
L 223.2225 169.92 
L 223.92 169.92 
L 224.6175 169.92 
L 225.315 169.92 
L 226.0125 169.92 
L 226.71 169.92 
L 227.4075 169.92 
L 228.105 169.92 
L 228.8025 169.92 
L 229.5 169.92 
L 230.1975 169.92 
L 230.895 169.92 
L 231.5925 169.92 
L 232.29 169.92 
L 232.9875 169.92 
L 233.685 169.92 
L 234.3825 169.92 
L 235.08 169.92 
L 235.7775 169.92 
L 236.475 169.92 
L 237.1725 169.92 
L 237.87 169.92 
L 238.5675 169.92 
L 239.265 169.92 
L 239.9625 169.92 
L 240.66 169.92 
L 241.3575 169.92 
L 242.055 169.92 
L 242.7525 169.92 
L 243.45 169.92 
L 244.1475 169.92 
L 244.845 169.92 
L 245.5425 169.92 
L 246.24 169.92 
L 246.9375 169.92 
L 247.635 169.92 
L 248.3325 169.92 
L 249.03 169.92 
L 249.7275 169.92 
L 250.425 169.92 
L 251.1225 169.92 
L 251.82 169.92 
L 252.5175 169.92 
L 253.215 169.92 
L 253.9125 169.92 
L 254.61 169.92 
L 255.3075 169.92 
L 256.005 169.92 
L 256.7025 169.92 
L 257.4 169.92 
L 258.0975 169.92 
L 258.795 169.92 
L 259.4925 169.92 
L 260.19 169.92 
L 260.8875 169.92 
L 261.585 169.92 
L 262.2825 169.92 
L 262.98 169.92 
L 263.6775 169.92 
L 264.375 169.92 
L 265.0725 169.92 
L 265.77 169.92 
L 266.4675 169.92 
L 267.165 169.92 
L 267.8625 169.92 
L 268.56 169.92 
L 269.2575 169.92 
L 269.955 169.92 
L 270.6525 169.92 
L 271.35 169.92 
L 272.0475 169.92 
L 272.745 169.92 
L 273.4425 169.92 
L 274.14 169.92 
L 274.8375 169.92 
L 275.535 169.92 
L 276.2325 169.92 
L 276.93 169.92 
L 277.6275 169.92 
L 278.325 169.92 
L 279.0225 169.92 
L 279.72 169.92 
L 280.4175 169.92 
L 281.115 169.92 
L 281.8125 169.92 
L 282.51 169.92 
L 283.2075 169.92 
L 283.905 169.92 
L 284.6025 169.92 
L 285.3 169.92 
L 285.9975 169.92 
L 286.695 169.92 
L 287.3925 169.92 
L 288.09 169.92 
L 288.7875 169.92 
L 289.485 169.92 
L 290.1825 169.92 
L 290.88 169.92 
L 291.5775 169.92 
L 292.275 169.92 
L 292.9725 169.92 
L 293.67 169.92 
L 294.3675 169.92 
L 295.065 169.92 
L 295.7625 169.92 
L 296.46 169.92 
L 297.1575 169.92 
L 297.855 169.92 
L 298.5525 169.92 
L 299.25 169.92 
L 299.9475 169.92 
L 300.645 169.92 
L 301.3425 169.92 
L 302.04 169.92 
L 302.7375 169.92 
L 303.435 169.92 
L 304.1325 169.92 
L 304.83 169.92 
L 305.5275 169.92 
L 306.225 169.92 
L 306.9225 169.92 
L 307.62 169.92 
L 308.3175 169.92 
L 309.015 169.92 
L 309.7125 169.92 
L 310.41 169.92 
L 311.1075 169.92 
L 311.805 169.92 
L 312.5025 169.92 
L 313.2 169.92 
L 313.8975 169.92 
L 314.595 169.92 
L 315.2925 169.92 
L 315.99 169.92 
L 316.6875 169.92 
L 317.385 169.92 
L 318.0825 169.92 
L 318.78 169.92 
L 319.4775 169.92 
L 320.175 169.92 
L 320.8725 169.92 
L 321.57 169.92 
L 322.2675 169.92 
L 322.965 169.92 
L 323.6625 169.92 
L 324.36 169.92 
L 325.0575 169.92 
L 325.755 169.92 
L 326.4525 169.92 
L 327.15 169.92 
L 327.8475 169.92 
L 328.545 169.92 
L 329.2425 169.92 
L 329.94 169.92 
L 330.6375 169.92 
L 331.335 169.92 
L 332.0325 169.92 
L 332.73 169.92 
L 333.4275 169.92 
L 334.125 169.92 
L 334.8225 169.92 
L 335.52 169.92 
L 336.2175 169.92 
L 336.915 169.92 
L 337.6125 169.92 
L 338.31 169.92 
L 339.0075 169.92 
L 339.705 169.92 
L 340.4025 169.92 
L 341.1 169.92 
L 341.7975 169.92 
L 342.495 169.92 
L 343.1925 169.92 
L 343.89 169.92 
L 344.5875 169.92 
L 345.285 169.92 
L 345.9825 169.92 
L 346.68 169.92 
L 347.3775 169.92 
L 348.075 169.92 
L 348.7725 169.92 
L 349.47 169.92 
L 350.1675 169.92 
L 350.865 169.92 
L 351.5625 169.92 
L 352.26 169.92 
L 352.9575 169.92 
L 353.655 169.92 
L 354.3525 169.92 
L 355.05 169.92 
L 355.7475 169.92 
L 356.445 169.92 
L 357.1425 169.92 
L 357.84 169.92 
L 358.5375 169.92 
L 359.235 169.92 
L 359.9325 169.92 
L 360.63 169.92 
L 361.3275 169.92 
L 362.025 169.92 
L 362.7225 169.92 
L 363.42 169.92 
L 364.1175 169.92 
L 364.815 169.92 
L 365.5125 169.92 
L 366.21 169.92 
L 366.9075 169.92 
L 367.605 169.92 
L 368.3025 169.92 
L 369 169.92 
L 369.6975 169.92 
L 370.395 169.92 
L 371.0925 169.92 
L 371.79 169.92 
L 372.4875 169.92 
L 373.185 169.92 
L 373.8825 169.92 
L 374.58 169.92 
L 375.2775 169.92 
L 375.975 169.92 
L 376.6725 169.92 
L 377.37 169.92 
L 378.0675 169.92 
L 378.765 169.92 
L 379.4625 169.92 
L 380.16 169.92 
L 380.8575 169.92 
L 381.555 169.92 
L 382.2525 169.92 
L 382.95 169.92 
L 383.6475 169.92 
L 384.345 169.92 
L 385.0425 169.92 
L 385.74 169.92 
L 386.4375 169.92 
L 387.135 169.92 
L 387.8325 169.92 
L 388.53 169.92 
L 389.2275 169.92 
L 389.925 169.92 
L 390.6225 169.92 
L 391.32 169.92 
L 392.0175 169.92 
L 392.715 169.92 
L 393.4125 169.92 
L 394.11 169.92 
L 394.8075 169.92 
L 395.505 169.92 
L 396.2025 169.92 
L 396.9 169.92 
L 397.5975 169.92 
L 398.295 169.92 
L 398.9925 169.92 
L 399.69 169.92 
L 400.3875 169.92 
L 401.085 169.92 
L 401.7825 169.92 
L 402.48 169.92 
L 403.1775 169.92 
L 403.875 169.92 
L 404.5725 169.92 
L 405.27 169.92 
L 405.9675 169.92 
L 406.665 169.92 
L 407.3625 169.92 
L 408.06 169.92 
L 408.7575 169.92 
L 409.455 169.92 
L 410.1525 169.92 
L 410.85 169.92 
L 411.5475 169.92 
L 412.245 169.92 
L 412.9425 169.92 
L 413.64 169.92 
L 414.3375 169.92 
L 415.035 169.92 
L 415.7325 169.92 
L 416.43 169.92 
L 417.1275 169.92 
L 417.825 169.92 
L 418.5225 169.92 
L 419.22 169.92 
L 419.9175 169.92 
L 420.615 169.92 
L 421.3125 169.92 
L 422.01 169.92 
L 422.7075 169.92 
L 423.405 169.92 
L 424.1025 169.92 
L 424.8 169.92 
L 425.4975 169.92 
L 426.195 169.92 
L 426.8925 169.92 
L 427.59 169.92 
L 428.2875 169.92 
L 428.985 169.92 
L 429.6825 169.92 
L 430.38 169.92 
L 431.0775 169.92 
L 431.775 169.92 
L 432.4725 169.92 
L 433.17 169.92 
L 433.8675 169.92 
L 434.565 169.92 
L 435.2625 169.92 
L 435.96 169.92 
L 436.6575 169.92 
L 437.355 169.92 
L 438.0525 169.92 
L 438.75 169.92 
L 439.4475 169.92 
L 440.145 169.92 
L 440.8425 169.92 
L 441.54 169.92 
L 442.2375 169.92 
L 442.935 169.92 
L 443.6325 169.92 
L 444.33 169.92 
L 445.0275 169.92 
L 445.725 169.92 
L 446.4225 169.92 
L 447.12 169.92 
L 447.8175 169.92 
L 448.515 169.92 
L 449.2125 169.92 
L 449.91 169.92 
L 450.6075 169.92 
L 451.305 169.92 
L 452.0025 169.92 
L 452.7 169.92 
L 453.3975 169.92 
L 454.095 169.92 
L 454.7925 169.92 
L 455.49 169.92 
L 456.1875 169.92 
L 456.885 169.92 
L 457.5825 169.92 
L 458.28 169.92 
L 458.9775 169.92 
L 459.675 169.92 
L 460.3725 169.92 
L 461.07 169.92 
L 461.7675 169.92 
L 462.465 169.92 
L 463.1625 169.92 
L 463.86 169.92 
L 464.5575 169.92 
L 465.255 169.92 
L 465.9525 169.92 
L 466.65 169.92 
L 467.3475 169.92 
L 468.045 169.92 
L 468.7425 169.92 
L 469.44 169.92 
L 470.1375 169.92 
L 470.835 169.92 
L 471.5325 169.92 
L 472.23 169.92 
L 472.9275 169.92 
L 473.625 169.92 
L 474.3225 169.92 
L 475.02 169.92 
L 475.7175 169.92 
L 476.415 169.92 
L 477.1125 169.92 
L 477.81 169.92 
L 478.5075 169.92 
L 479.205 169.92 
L 479.9025 169.92 
L 480.6 169.92 
L 481.2975 169.92 
L 481.995 169.92 
L 482.6925 169.92 
L 483.39 169.92 
L 484.0875 169.92 
L 484.785 169.92 
L 485.4825 169.92 
L 486.18 169.92 
L 486.8775 169.92 
L 487.575 169.92 
L 488.2725 169.92 
L 488.97 169.92 
L 489.6675 169.92 
L 490.365 169.92 
L 491.0625 169.92 
L 491.76 169.92 
L 492.4575 169.92 
L 493.155 169.92 
L 493.8525 169.92 
L 494.55 169.92 
L 495.2475 169.92 
L 495.945 169.92 
L 496.6425 169.92 
L 497.34 169.92 
L 498.0375 169.92 
L 498.735 169.92 
L 499.4325 169.92 
L 500.13 169.92 
L 500.8275 169.92 
L 501.525 169.92 
L 502.2225 169.92 
L 502.92 169.92 
L 503.6175 169.92 
L 504.315 169.92 
L 505.0125 169.92 
L 505.71 169.92 
L 506.4075 169.92 
L 507.105 169.92 
L 507.8025 169.92 
L 508.5 169.92 
L 509.1975 169.92 
L 509.895 169.92 
L 510.5925 169.92 
L 511.29 169.92 
L 511.9875 169.92 
L 512.685 169.92 
L 513.3825 169.92 
L 514.08 169.92 
L 514.7775 169.92 
L 515.475 169.92 
L 516.1725 169.92 
L 516.87 169.92 
L 517.5675 169.92 
L 518.265 169.92 
L 518.9625 169.92 
L 519.66 169.92 
L 520.3575 169.92 
L 521.055 169.92 
L 521.7525 169.92 
L 522.45 169.92 
L 523.1475 169.92 
L 523.845 169.92 
L 524.5425 169.92 
L 525.24 169.92 
L 525.9375 169.92 
L 526.635 169.92 
L 527.3325 169.92 
L 528.03 169.92 
L 528.7275 169.92 
L 529.425 169.92 
L 530.1225 169.92 
L 530.82 169.92 
L 531.5175 169.92 
L 532.215 169.92 
L 532.9125 169.92 
L 533.61 169.92 
L 534.3075 169.92 
L 535.005 169.92 
L 535.7025 169.92 
L 536.4 169.92 
L 537.0975 169.92 
L 537.795 169.92 
L 538.4925 169.92 
L 539.19 169.92 
L 539.8875 169.92 
L 540.585 169.92 
L 541.2825 169.92 
L 541.98 169.92 
L 542.6775 169.92 
L 543.375 169.92 
L 544.0725 169.92 
L 544.77 169.92 
L 545.4675 169.92 
L 546.165 169.92 
L 546.8625 169.92 
L 547.56 169.92 
L 548.2575 169.92 
L 548.955 169.92 
L 549.6525 169.92 
L 550.35 169.92 
L 551.0475 169.92 
L 551.745 169.92 
L 552.4425 169.92 
L 553.14 169.92 
L 553.8375 169.92 
L 554.535 169.92 
L 555.2325 169.92 
L 555.93 169.92 
L 556.6275 169.92 
L 557.325 169.92 
L 558.0225 169.92 
L 558.72 169.92 
L 559.4175 169.92 
L 560.115 169.92 
L 560.8125 169.92 
L 561.51 169.92 
L 562.2075 169.92 
L 562.905 169.92 
L 563.6025 169.92 
L 564.3 169.92 
L 564.9975 169.92 
L 565.695 169.92 
L 566.3925 169.92 
L 567.09 169.92 
L 567.7875 169.92 
L 568.485 169.92 
L 569.1825 169.92 
L 569.88 169.92 
L 570.5775 169.92 
L 571.275 169.92 
L 571.9725 169.92 
L 572.67 169.92 
L 573.3675 169.92 
L 574.065 169.92 
L 574.7625 169.92 
L 575.46 169.92 
L 576.1575 169.92 
L 576.855 169.92 
L 577.5525 169.92 
L 578.25 169.92 
L 578.9475 169.92 
L 579.645 169.92 
L 580.3425 169.92 
L 581.04 169.92 
L 581.7375 169.92 
L 582.435 169.92 
L 583.1325 169.92 
L 583.83 169.92 
L 584.5275 169.92 
L 585.225 169.92 
L 585.9225 169.92 
L 586.62 169.92 
L 587.3175 169.92 
L 588.015 169.92 
L 588.7125 169.92 
L 589.41 169.92 
L 590.1075 169.92 
L 590.805 169.92 
L 591.5025 169.92 
L 592.2 169.92 
L 592.8975 169.92 
L 593.595 169.92 
L 594.2925 169.92 
L 594.99 169.92 
L 595.6875 169.92 
L 596.385 169.92 
L 597.0825 169.92 
L 597.78 169.92 
L 598.4775 169.92 
L 599.175 169.92 
L 599.8725 169.92 
L 600.57 169.92 
L 601.2675 169.92 
L 601.965 169.92 
L 602.6625 169.92 
L 603.36 169.92 
L 604.0575 169.92 
L 604.755 169.92 
L 605.4525 169.92 
L 606.15 169.92 
L 606.8475 169.92 
L 607.545 169.92 
L 608.2425 169.92 
L 608.94 169.92 
L 609.6375 169.92 
L 610.335 169.92 
L 611.0325 169.92 
L 611.73 169.92 
L 612.4275 169.92 
L 613.125 169.92 
L 613.8225 169.92 
L 614.52 169.92 
L 615.2175 169.92 
L 615.915 169.92 
L 616.6125 169.92 
L 617.31 169.92 
L 618.0075 169.92 
L 618.705 169.92 
L 619.4025 169.92 
L 620.1 169.92 
L 620.7975 169.92 
L 621.495 169.92 
L 622.1925 169.92 
L 622.89 169.92 
L 623.5875 169.92 
L 624.285 169.92 
L 624.9825 169.92 
L 625.68 169.92 
L 626.3775 169.92 
L 627.075 169.92 
L 627.7725 169.92 
L 628.47 169.92 
L 629.1675 169.92 
L 629.865 169.92 
L 630.5625 169.92 
L 631.26 169.92 
L 631.9575 169.92 
L 632.655 169.92 
L 633.3525 169.92 
L 634.05 169.92 
L 634.7475 169.92 
L 635.445 169.92 
L 636.1425 169.92 
L 636.84 169.92 
L 637.5375 169.92 
L 638.235 169.92 
L 638.9325 169.92 
L 639.63 169.92 
L 640.3275 169.92 
L 641.025 169.92 
L 641.7225 169.92 
L 642.42 169.92 
L 643.1175 169.92 
L 643.815 169.92 
L 644.5125 169.92 
L 645.21 169.92 
L 645.9075 169.92 
L 646.605 169.92 
L 646.605 169.92 
L 646.605 169.92 
L 645.9075 169.987676 
L 645.21 170.167131 
L 644.5125 170.395517 
L 643.815 170.67693 
L 643.1175 171.022188 
L 642.42 171.396037 
L 641.7225 171.785352 
L 641.025 172.23693 
L 640.3275 172.713924 
L 639.63 173.201661 
L 638.9325 173.730425 
L 638.235 174.247171 
L 637.5375 174.774229 
L 636.84 175.288655 
L 636.1425 175.790256 
L 635.445 176.271512 
L 634.7475 176.717685 
L 634.05 177.107047 
L 633.3525 177.426239 
L 632.655 177.715593 
L 631.9575 177.940693 
L 631.26 178.113201 
L 630.5625 178.23805 
L 629.865 178.320889 
L 629.1675 178.315357 
L 628.47 178.259136 
L 627.7725 178.145548 
L 627.075 177.998857 
L 626.3775 177.776143 
L 625.68 177.510824 
L 624.9825 177.191841 
L 624.285 176.808936 
L 623.5875 176.420489 
L 622.89 175.987206 
L 622.1925 175.538144 
L 621.495 175.072515 
L 620.7975 174.582263 
L 620.1 174.052181 
L 619.4025 173.542853 
L 618.705 173.02432 
L 618.0075 172.519395 
L 617.31 172.01309 
L 616.6125 171.505479 
L 615.915 171.041771 
L 615.2175 170.59132 
L 614.52 170.1684 
L 613.8225 169.801913 
L 613.125 169.482314 
L 612.4275 169.199355 
L 611.73 168.964801 
L 611.0325 168.819765 
L 610.335 168.743864 
L 609.6375 168.715677 
L 608.94 168.758185 
L 608.2425 168.855712 
L 607.545 168.991756 
L 606.8475 169.201876 
L 606.15 169.475401 
L 605.4525 169.79319 
L 604.755 170.097841 
L 604.0575 170.452463 
L 603.36 170.791581 
L 602.6625 171.147708 
L 601.965 171.485427 
L 601.2675 171.814711 
L 600.57 172.123105 
L 599.8725 172.398463 
L 599.175 172.651698 
L 598.4775 172.833893 
L 597.78 173.002473 
L 597.0825 173.094755 
L 596.385 173.139432 
L 595.6875 173.120796 
L 594.99 173.039127 
L 594.2925 172.918206 
L 593.595 172.72225 
L 592.8975 172.476756 
L 592.2 172.162846 
L 591.5025 171.762669 
L 590.805 171.327341 
L 590.1075 170.855872 
L 589.41 170.340292 
L 588.7125 169.773292 
L 588.015 169.193452 
L 587.3175 168.616988 
L 586.62 168.022463 
L 585.9225 167.418794 
L 585.225 166.792473 
L 584.5275 166.167931 
L 583.83 165.569571 
L 583.1325 165.021405 
L 582.435 164.524133 
L 581.7375 164.070173 
L 581.04 163.66633 
L 580.3425 163.318662 
L 579.645 163.009821 
L 578.9475 162.766998 
L 578.25 162.571276 
L 577.5525 162.425588 
L 576.855 162.369717 
L 576.1575 162.359384 
L 575.46 162.447381 
L 574.7625 162.564712 
L 574.065 162.724656 
L 573.3675 162.939855 
L 572.67 163.184523 
L 571.9725 163.507629 
L 571.275 163.866729 
L 570.5775 164.248919 
L 569.88 164.64095 
L 569.1825 165.07454 
L 568.485 165.498071 
L 567.7875 165.905191 
L 567.09 166.334915 
L 566.3925 166.750719 
L 565.695 167.14637 
L 564.9975 167.530973 
L 564.3 167.921321 
L 563.6025 168.281481 
L 562.905 168.591015 
L 562.2075 168.890398 
L 561.51 169.145063 
L 560.8125 169.36623 
L 560.115 169.558103 
L 559.4175 169.710285 
L 558.72 169.835534 
L 558.0225 169.901893 
L 557.325 169.945964 
L 556.6275 169.92197 
L 555.93 169.875387 
L 555.2325 169.761798 
L 554.535 169.612983 
L 553.8375 169.438693 
L 553.14 169.211463 
L 552.4425 168.987339 
L 551.745 168.709523 
L 551.0475 168.434818 
L 550.35 168.129746 
L 549.6525 167.843999 
L 548.955 167.544264 
L 548.2575 167.219995 
L 547.56 166.913653 
L 546.8625 166.629831 
L 546.165 166.365266 
L 545.4675 166.108886 
L 544.77 165.879574 
L 544.0725 165.673248 
L 543.375 165.500523 
L 542.6775 165.356468 
L 541.98 165.280842 
L 541.2825 165.222141 
L 540.585 165.211324 
L 539.8875 165.248554 
L 539.19 165.325752 
L 538.4925 165.471839 
L 537.795 165.669585 
L 537.0975 165.923545 
L 536.4 166.229911 
L 535.7025 166.591609 
L 535.005 166.980656 
L 534.3075 167.428816 
L 533.61 167.884253 
L 532.9125 168.385254 
L 532.215 168.886709 
L 531.5175 169.418698 
L 530.82 169.965722 
L 530.1225 170.512061 
L 529.425 171.079601 
L 528.7275 171.614714 
L 528.03 172.139454 
L 527.3325 172.638434 
L 526.635 173.096652 
L 525.9375 173.499717 
L 525.24 173.856626 
L 524.5425 174.154506 
L 523.845 174.396411 
L 523.1475 174.586233 
L 522.45 174.691048 
L 521.7525 174.724322 
L 521.055 174.670518 
L 520.3575 174.545481 
L 519.66 174.358607 
L 518.9625 174.105178 
L 518.265 173.781473 
L 517.5675 173.422426 
L 516.87 173.018381 
L 516.1725 172.560358 
L 515.475 172.085301 
L 514.7775 171.592816 
L 514.08 171.090287 
L 513.3825 170.585249 
L 512.685 170.070236 
L 511.9875 169.545451 
L 511.29 169.026281 
L 510.5925 168.535552 
L 509.895 168.095661 
L 509.1975 167.690644 
L 508.5 167.349134 
L 507.8025 167.038654 
L 507.105 166.816495 
L 506.4075 166.655912 
L 505.71 166.566832 
L 505.0125 166.528031 
L 504.315 166.570169 
L 503.6175 166.692616 
L 502.92 166.870975 
L 502.2225 167.147691 
L 501.525 167.481015 
L 500.8275 167.880989 
L 500.13 168.319058 
L 499.4325 168.79617 
L 498.735 169.327733 
L 498.0375 169.898254 
L 497.34 170.49918 
L 496.6425 171.113979 
L 495.945 171.748474 
L 495.2475 172.393149 
L 494.55 173.053376 
L 493.8525 173.67414 
L 493.155 174.283729 
L 492.4575 174.827886 
L 491.76 175.343568 
L 491.0625 175.800484 
L 490.365 176.191783 
L 489.6675 176.504078 
L 488.97 176.747726 
L 488.2725 176.904033 
L 487.575 176.978177 
L 486.8775 176.999122 
L 486.18 176.951516 
L 485.4825 176.821034 
L 484.785 176.609632 
L 484.0875 176.343039 
L 483.39 176.010213 
L 482.6925 175.601106 
L 481.995 175.121852 
L 481.2975 174.594676 
L 480.6 174.012444 
L 479.9025 173.391406 
L 479.205 172.733355 
L 478.5075 172.063196 
L 477.81 171.368421 
L 477.1125 170.674486 
L 476.415 169.976758 
L 475.7175 169.315776 
L 475.02 168.663854 
L 474.3225 168.038288 
L 473.625 167.448456 
L 472.9275 166.895685 
L 472.23 166.388262 
L 471.5325 165.933796 
L 470.835 165.576699 
L 470.1375 165.284729 
L 469.44 165.069783 
L 468.7425 164.950122 
L 468.045 164.920023 
L 467.3475 164.964896 
L 466.65 165.099108 
L 465.9525 165.335686 
L 465.255 165.671083 
L 464.5575 166.07771 
L 463.86 166.54947 
L 463.1625 167.101849 
L 462.465 167.696485 
L 461.7675 168.377098 
L 461.07 169.080847 
L 460.3725 169.804698 
L 459.675 170.537798 
L 458.9775 171.261634 
L 458.28 171.950313 
L 457.5825 172.638627 
L 456.885 173.301216 
L 456.1875 173.905584 
L 455.49 174.450191 
L 454.7925 174.964466 
L 454.095 175.403102 
L 453.3975 175.774559 
L 452.7 176.073269 
L 452.0025 176.302271 
L 451.305 176.450613 
L 450.6075 176.516069 
L 449.91 176.505179 
L 449.2125 176.410586 
L 448.515 176.241227 
L 447.8175 175.992122 
L 447.12 175.651969 
L 446.4225 175.240906 
L 445.725 174.772616 
L 445.0275 174.246602 
L 444.33 173.693311 
L 443.6325 173.090959 
L 442.935 172.44858 
L 442.2375 171.768285 
L 441.54 171.090355 
L 440.8425 170.402395 
L 440.145 169.73728 
L 439.4475 169.082424 
L 438.75 168.477725 
L 438.0525 167.894653 
L 437.355 167.356989 
L 436.6575 166.872796 
L 435.96 166.434294 
L 435.2625 166.063099 
L 434.565 165.757256 
L 433.8675 165.528871 
L 433.17 165.366329 
L 432.4725 165.287107 
L 431.775 165.277354 
L 431.0775 165.337215 
L 430.38 165.465794 
L 429.6825 165.668682 
L 428.985 165.935316 
L 428.2875 166.261699 
L 427.59 166.635418 
L 426.8925 167.058388 
L 426.195 167.531786 
L 425.4975 168.040995 
L 424.8 168.578378 
L 424.1025 169.143399 
L 423.405 169.712544 
L 422.7075 170.30736 
L 422.01 170.881327 
L 421.3125 171.44088 
L 420.615 171.977628 
L 419.9175 172.476003 
L 419.22 172.928532 
L 418.5225 173.328429 
L 417.825 173.684738 
L 417.1275 173.977076 
L 416.43 174.20858 
L 415.7325 174.368259 
L 415.035 174.438679 
L 414.3375 174.448863 
L 413.64 174.391138 
L 412.9425 174.251331 
L 412.245 174.061616 
L 411.5475 173.802279 
L 410.85 173.462171 
L 410.1525 173.061429 
L 409.455 172.606063 
L 408.7575 172.102901 
L 408.06 171.551968 
L 407.3625 170.954005 
L 406.665 170.340538 
L 405.9675 169.683168 
L 405.27 169.014309 
L 404.5725 168.328953 
L 403.875 167.659934 
L 403.1775 167.009765 
L 402.48 166.373156 
L 401.7825 165.78221 
L 401.085 165.215712 
L 400.3875 164.697194 
L 399.69 164.241951 
L 398.9925 163.83425 
L 398.295 163.487724 
L 397.5975 163.230129 
L 396.9 163.050287 
L 396.2025 162.958415 
L 395.505 162.940851 
L 394.8075 163.005379 
L 394.11 163.151029 
L 393.4125 163.345542 
L 392.715 163.616076 
L 392.0175 163.958578 
L 391.32 164.352871 
L 390.6225 164.823121 
L 389.925 165.31716 
L 389.2275 165.850139 
L 388.53 166.436625 
L 387.8325 167.045264 
L 387.135 167.66693 
L 386.4375 168.314861 
L 385.74 168.949262 
L 385.0425 169.560622 
L 384.345 170.154811 
L 383.6475 170.722921 
L 382.95 171.241394 
L 382.2525 171.694935 
L 381.555 172.084264 
L 380.8575 172.411062 
L 380.16 172.66291 
L 379.4625 172.836031 
L 378.765 172.92031 
L 378.0675 172.906963 
L 377.37 172.818749 
L 376.6725 172.634433 
L 375.975 172.371817 
L 375.2775 172.042359 
L 374.58 171.635959 
L 373.8825 171.166231 
L 373.185 170.632699 
L 372.4875 170.050882 
L 371.79 169.429505 
L 371.0925 168.770366 
L 370.395 168.083347 
L 369.6975 167.378751 
L 369 166.689701 
L 368.3025 165.988932 
L 367.605 165.332068 
L 366.9075 164.698882 
L 366.21 164.098867 
L 365.5125 163.54854 
L 364.815 163.056153 
L 364.1175 162.614049 
L 363.42 162.243898 
L 362.7225 161.95125 
L 362.025 161.740492 
L 361.3275 161.614785 
L 360.63 161.591053 
L 359.9325 161.647093 
L 359.235 161.789585 
L 358.5375 162.023911 
L 357.84 162.316479 
L 357.1425 162.692981 
L 356.445 163.125213 
L 355.7475 163.621732 
L 355.05 164.167575 
L 354.3525 164.739516 
L 353.655 165.344019 
L 352.9575 165.9645 
L 352.26 166.606695 
L 351.5625 167.268493 
L 350.865 167.917413 
L 350.1675 168.551243 
L 349.47 169.16048 
L 348.7725 169.735988 
L 348.075 170.276658 
L 347.3775 170.774382 
L 346.68 171.229216 
L 345.9825 171.626821 
L 345.285 171.953716 
L 344.5875 172.212518 
L 343.89 172.406866 
L 343.1925 172.518807 
L 342.495 172.554182 
L 341.7975 172.512461 
L 341.1 172.386749 
L 340.4025 172.193971 
L 339.705 171.937017 
L 339.0075 171.612221 
L 338.31 171.231972 
L 337.6125 170.794453 
L 336.915 170.321263 
L 336.2175 169.819498 
L 335.52 169.281642 
L 334.8225 168.71576 
L 334.125 168.130337 
L 333.4275 167.541671 
L 332.73 166.95107 
L 332.0325 166.359869 
L 331.335 165.791973 
L 330.6375 165.248377 
L 329.94 164.722193 
L 329.2425 164.236351 
L 328.545 163.820694 
L 327.8475 163.443857 
L 327.15 163.141569 
L 326.4525 162.903323 
L 325.755 162.725172 
L 325.0575 162.617307 
L 324.36 162.581345 
L 323.6625 162.617826 
L 322.965 162.726203 
L 322.2675 162.90485 
L 321.57 163.158609 
L 320.8725 163.491193 
L 320.175 163.882577 
L 319.4775 164.334412 
L 318.78 164.839923 
L 318.0825 165.38401 
L 317.385 165.966034 
L 316.6875 166.584787 
L 315.99 167.223473 
L 315.2925 167.880033 
L 314.595 168.544623 
L 313.8975 169.222317 
L 313.2 169.880394 
L 312.5025 170.501467 
L 311.805 171.076223 
L 311.1075 171.596045 
L 310.41 172.060656 
L 309.7125 172.47061 
L 309.015 172.812241 
L 308.3175 173.087944 
L 307.62 173.278548 
L 306.9225 173.396233 
L 306.225 173.431714 
L 305.5275 173.40702 
L 304.83 173.322518 
L 304.1325 173.164439 
L 303.435 172.942672 
L 302.7375 172.66806 
L 302.04 172.329684 
L 301.3425 171.940137 
L 300.645 171.505259 
L 299.9475 171.031572 
L 299.25 170.526178 
L 298.5525 169.996655 
L 297.855 169.450944 
L 297.1575 168.912266 
L 296.46 168.381179 
L 295.7625 167.865647 
L 295.065 167.365879 
L 294.3675 166.896891 
L 293.67 166.465713 
L 292.9725 166.078811 
L 292.275 165.749507 
L 291.5775 165.467698 
L 290.88 165.252651 
L 290.1825 165.092549 
L 289.485 165.004833 
L 288.7875 164.983299 
L 288.09 165.028269 
L 287.3925 165.146589 
L 286.695 165.328965 
L 285.9975 165.580182 
L 285.3 165.881434 
L 284.6025 166.250762 
L 283.905 166.675109 
L 283.2075 167.148112 
L 282.51 167.662679 
L 281.8125 168.211093 
L 281.115 168.785132 
L 280.4175 169.376187 
L 279.72 169.982917 
L 279.0225 170.588703 
L 278.325 171.184462 
L 277.6275 171.76878 
L 276.93 172.332897 
L 276.2325 172.860833 
L 275.535 173.352191 
L 274.8375 173.799605 
L 274.14 174.203885 
L 273.4425 174.551448 
L 272.745 174.829565 
L 272.0475 175.049104 
L 271.35 175.191734 
L 270.6525 175.262836 
L 269.955 175.261343 
L 269.2575 175.179759 
L 268.56 175.034346 
L 267.8625 174.827284 
L 267.165 174.569198 
L 266.4675 174.248918 
L 265.77 173.878767 
L 265.0725 173.464295 
L 264.375 173.004197 
L 263.6775 172.520412 
L 262.98 172.005153 
L 262.2825 171.458629 
L 261.585 170.904072 
L 260.8875 170.342279 
L 260.19 169.789194 
L 259.4925 169.253109 
L 258.795 168.742063 
L 258.0975 168.263718 
L 257.4 167.825249 
L 256.7025 167.433228 
L 256.005 167.093535 
L 255.3075 166.818782 
L 254.61 166.598051 
L 253.9125 166.44217 
L 253.215 166.345958 
L 252.5175 166.318376 
L 251.82 166.352319 
L 251.1225 166.447277 
L 250.425 166.609347 
L 249.7275 166.836098 
L 249.03 167.12413 
L 248.3325 167.469125 
L 247.635 167.865908 
L 246.9375 168.308531 
L 246.24 168.775318 
L 245.5425 169.274307 
L 244.845 169.790498 
L 244.1475 170.33119 
L 243.45 170.873236 
L 242.7525 171.416027 
L 242.055 171.943906 
L 241.3575 172.441436 
L 240.66 172.916198 
L 239.9625 173.353553 
L 239.265 173.746942 
L 238.5675 174.082948 
L 237.87 174.356531 
L 237.1725 174.57111 
L 236.475 174.723467 
L 235.7775 174.803798 
L 235.08 174.818418 
L 234.3825 174.767107 
L 233.685 174.650635 
L 232.9875 174.463228 
L 232.29 174.207698 
L 231.5925 173.902915 
L 230.895 173.545928 
L 230.1975 173.134572 
L 229.5 172.682535 
L 228.8025 172.181554 
L 228.105 171.654182 
L 227.4075 171.100807 
L 226.71 170.529725 
L 226.0125 169.957021 
L 225.315 169.383762 
L 224.6175 168.818543 
L 223.92 168.26984 
L 223.2225 167.745881 
L 222.525 167.254522 
L 221.8275 166.803131 
L 221.13 166.398476 
L 220.4325 166.039105 
L 219.735 165.737927 
L 219.0375 165.491939 
L 218.34 165.312347 
L 217.6425 165.201846 
L 216.945 165.162091 
L 216.2475 165.19368 
L 215.55 165.296138 
L 214.8525 165.467929 
L 214.155 165.706478 
L 213.4575 166.015726 
L 212.76 166.383518 
L 212.0625 166.804338 
L 211.365 167.279395 
L 210.6675 167.794048 
L 209.97 168.340578 
L 209.2725 168.910791 
L 208.575 169.496137 
L 207.8775 170.087839 
L 207.18 170.677024 
L 206.4825 171.254858 
L 205.785 171.812676 
L 205.0875 172.342113 
L 204.39 172.835233 
L 203.6925 173.284639 
L 202.995 173.683594 
L 202.2975 174.041154 
L 201.6 174.336919 
L 200.9025 174.566454 
L 200.205 174.726317 
L 199.5075 174.814111 
L 198.81 174.82852 
L 198.1125 174.776846 
L 197.415 174.652346 
L 196.7175 174.456886 
L 196.02 174.193398 
L 195.3225 173.865831 
L 194.625 173.479098 
L 193.9275 173.038997 
L 193.23 172.552128 
L 192.5325 172.025792 
L 191.835 171.467879 
L 191.1375 170.886757 
L 190.44 170.291139 
L 189.7425 169.689956 
L 189.045 169.092222 
L 188.3475 168.5069 
L 187.65 167.942767 
L 186.9525 167.408282 
L 186.255 166.91146 
L 185.5575 166.459749 
L 184.86 166.059924 
L 184.1625 165.717979 
L 183.465 165.439042 
L 182.7675 165.227295 
L 182.07 165.085914 
L 181.3725 165.017018 
L 180.675 165.02164 
L 179.9775 165.099712 
L 179.28 165.250062 
L 178.5825 165.470436 
L 177.885 165.75753 
L 177.1875 166.107038 
L 176.49 166.513721 
L 175.7925 166.971479 
L 175.095 167.47345 
L 174.3975 168.012105 
L 173.7 168.579369 
L 173.0025 169.166735 
L 172.305 169.765396 
L 171.6075 170.366375 
L 170.91 170.960661 
L 170.2125 171.539343 
L 169.515 172.093743 
L 168.8175 172.615549 
L 168.12 173.096936 
L 167.4225 173.523166 
L 166.725 173.895368 
L 166.0275 174.207961 
L 165.33 174.456258 
L 164.6325 174.636535 
L 163.935 174.746089 
L 163.2375 174.783278 
L 162.54 174.747543 
L 161.8425 174.631902 
L 161.145 174.445608 
L 160.4475 174.191453 
L 159.75 173.87325 
L 159.0525 173.495769 
L 158.355 173.064671 
L 157.6575 172.58642 
L 156.96 172.068186 
L 156.2625 171.517742 
L 155.565 170.94334 
L 154.8675 170.353593 
L 154.17 169.757344 
L 153.4725 169.163535 
L 152.775 168.581069 
L 152.0775 168.011159 
L 151.38 167.469872 
L 150.6825 166.957805 
L 149.985 166.490154 
L 149.2875 166.073933 
L 148.59 165.715382 
L 147.8925 165.419878 
L 147.195 165.191851 
L 146.4975 165.034721 
L 145.8 164.950845 
L 145.1025 164.941479 
L 144.405 165.006764 
L 143.7075 165.145722 
L 143.01 165.356268 
L 142.3125 165.635245 
L 141.615 165.978471 
L 140.9175 166.380799 
L 140.22 166.836195 
L 139.5225 167.330313 
L 138.825 167.863262 
L 138.1275 168.427051 
L 137.43 169.020746 
L 136.7325 169.627925 
L 136.035 170.239484 
L 135.3375 170.846252 
L 134.64 171.439131 
L 133.9425 172.016751 
L 133.245 172.562931 
L 132.5475 173.069481 
L 131.85 173.528806 
L 131.1525 173.934018 
L 130.455 174.279041 
L 129.7575 174.558702 
L 129.06 174.768807 
L 128.3625 174.906206 
L 127.665 174.968839 
L 126.9675 174.955767 
L 126.27 174.867184 
L 125.5725 174.704421 
L 124.875 174.469917 
L 124.1775 174.167188 
L 123.48 173.800775 
L 122.7825 173.376171 
L 122.085 172.899742 
L 121.3875 172.378634 
L 120.69 171.820659 
L 119.9925 171.234184 
L 119.295 170.628004 
L 118.5975 170.011207 
L 117.9 169.393043 
L 117.2025 168.782781 
L 116.505 168.18957 
L 115.8075 167.622307 
L 115.11 167.089497 
L 114.4125 166.599129 
L 113.715 166.158556 
L 113.0175 165.774385 
L 112.32 165.452376 
L 111.6225 165.197358 
L 110.925 165.013153 
L 110.2275 164.902525 
L 109.53 164.867133 
L 108.8325 164.907506 
L 108.135 165.02304 
L 107.4375 165.212002 
L 106.74 165.471558 
L 106.0425 165.797818 
L 105.345 166.185888 
L 104.6475 166.62995 
L 103.95 167.123344 
L 103.2525 167.658674 
L 102.555 168.227912 
L 101.8575 168.822521 
L 101.16 169.433587 
L 100.4625 170.051947 
L 99.765 170.668328 
L 99.0675 171.273488 
L 98.37 171.858353 
L 97.6725 172.414154 
L 96.975 172.932555 
L 96.2775 173.405784 
L 95.58 173.826745 
L 94.8825 174.196646 
L 94.185 174.502419 
L 93.4875 174.739481 
L 92.79 174.904277 
L 92.0925 174.994335 
L 91.395 175.008305 
L 90.6975 174.945978 
L 90 174.808288 
z
" style="fill:#e0ffff;"/>
   </g>
   <g id="line2d_15">
    <path clip-path="url(#p6608a8a87d)" d="M 90 174.808288 
L 91.395 175.008305 
L 92.79 174.904277 
L 94.185 174.502419 
L 95.58 173.826745 
L 96.975 172.932555 
L 99.0675 171.273488 
L 103.95 167.123344 
L 105.345 166.185888 
L 106.74 165.471558 
L 108.135 165.02304 
L 109.53 164.867133 
L 110.925 165.013153 
L 112.32 165.452376 
L 113.715 166.158556 
L 115.11 167.089497 
L 117.2025 168.782781 
L 121.3875 172.378634 
L 122.7825 173.376171 
L 124.1775 174.167188 
L 125.5725 174.704421 
L 126.9675 174.955767 
L 128.3625 174.906206 
L 129.7575 174.558702 
L 131.1525 173.934018 
L 132.5475 173.069481 
L 134.64 171.439131 
L 140.22 166.836195 
L 141.615 165.978471 
L 143.01 165.356268 
L 144.405 165.006764 
L 145.8 164.950845 
L 147.195 165.191851 
L 148.59 165.715382 
L 149.985 166.490154 
L 152.0775 168.011159 
L 158.355 173.064671 
L 159.75 173.87325 
L 161.145 174.445608 
L 162.54 174.747543 
L 163.935 174.746089 
L 165.33 174.456258 
L 166.725 173.895368 
L 168.12 173.096936 
L 170.2125 171.539343 
L 175.7925 166.971479 
L 177.1875 166.107038 
L 178.5825 165.470436 
L 179.9775 165.099712 
L 181.3725 165.017018 
L 182.7675 165.227295 
L 184.1625 165.717979 
L 185.5575 166.459749 
L 187.65 167.942767 
L 194.625 173.479098 
L 196.02 174.193398 
L 197.415 174.652346 
L 198.81 174.82852 
L 200.205 174.726317 
L 201.6 174.336919 
L 202.995 173.683594 
L 204.39 172.835233 
L 206.4825 171.254858 
L 211.365 167.279395 
L 212.76 166.383518 
L 214.155 165.706478 
L 215.55 165.296138 
L 216.945 165.162091 
L 218.34 165.312347 
L 219.735 165.737927 
L 221.13 166.398476 
L 222.525 167.254522 
L 224.6175 168.818543 
L 229.5 172.682535 
L 230.895 173.545928 
L 232.29 174.207698 
L 233.685 174.650635 
L 235.08 174.818418 
L 236.475 174.723467 
L 237.87 174.356531 
L 239.265 173.746942 
L 241.3575 172.441436 
L 244.1475 170.33119 
L 246.9375 168.308531 
L 248.3325 167.469125 
L 249.7275 166.836098 
L 251.1225 166.447277 
L 252.5175 166.318376 
L 253.9125 166.44217 
L 255.3075 166.818782 
L 256.7025 167.433228 
L 258.0975 168.263718 
L 260.19 169.789194 
L 264.375 173.004197 
L 265.77 173.878767 
L 267.165 174.569198 
L 268.56 175.034346 
L 269.955 175.261343 
L 271.35 175.191734 
L 272.745 174.829565 
L 274.14 174.203885 
L 275.535 173.352191 
L 277.6275 171.76878 
L 283.2075 167.148112 
L 284.6025 166.250762 
L 285.9975 165.580182 
L 287.3925 165.146589 
L 288.7875 164.983299 
L 290.1825 165.092549 
L 291.5775 165.467698 
L 292.9725 166.078811 
L 295.065 167.365879 
L 298.5525 169.996655 
L 300.645 171.505259 
L 302.04 172.329684 
L 303.435 172.942672 
L 304.83 173.322518 
L 306.225 173.431714 
L 307.62 173.278548 
L 309.015 172.812241 
L 310.41 172.060656 
L 311.805 171.076223 
L 313.8975 169.222317 
L 317.385 165.966034 
L 319.4775 164.334412 
L 320.8725 163.491193 
L 322.2675 162.90485 
L 323.6625 162.617826 
L 325.0575 162.617307 
L 326.4525 162.903323 
L 327.8475 163.443857 
L 329.2425 164.236351 
L 331.335 165.791973 
L 337.6125 170.794453 
L 339.0075 171.612221 
L 340.4025 172.193971 
L 341.7975 172.512461 
L 343.1925 172.518807 
L 344.5875 172.212518 
L 345.9825 171.626821 
L 347.3775 170.774382 
L 349.47 169.16048 
L 352.26 166.606695 
L 355.05 164.167575 
L 356.445 163.125213 
L 357.84 162.316479 
L 359.235 161.789585 
L 360.63 161.591053 
L 362.025 161.740492 
L 363.42 162.243898 
L 364.815 163.056153 
L 366.21 164.098867 
L 368.3025 165.988932 
L 372.4875 170.050882 
L 373.8825 171.166231 
L 375.2775 172.042359 
L 376.6725 172.634433 
L 378.0675 172.906963 
L 379.4625 172.836031 
L 380.8575 172.411062 
L 382.2525 171.694935 
L 383.6475 170.722921 
L 386.4375 168.314861 
L 389.2275 165.850139 
L 391.32 164.352871 
L 392.715 163.616076 
L 394.11 163.151029 
L 395.505 162.940851 
L 396.9 163.050287 
L 398.295 163.487724 
L 399.69 164.241951 
L 401.085 165.215712 
L 403.1775 167.009765 
L 408.7575 172.102901 
L 410.1525 173.061429 
L 411.5475 173.802279 
L 412.9425 174.251331 
L 414.3375 174.448863 
L 415.7325 174.368259 
L 417.1275 173.977076 
L 418.5225 173.328429 
L 419.9175 172.476003 
L 422.01 170.881327 
L 426.195 167.531786 
L 427.59 166.635418 
L 428.985 165.935316 
L 430.38 165.465794 
L 431.775 165.277354 
L 433.17 165.366329 
L 434.565 165.757256 
L 435.96 166.434294 
L 437.355 167.356989 
L 439.4475 169.082424 
L 445.0275 174.246602 
L 446.4225 175.240906 
L 447.8175 175.992122 
L 449.2125 176.410586 
L 450.6075 176.516069 
L 452.0025 176.302271 
L 453.3975 175.774559 
L 454.7925 174.964466 
L 456.885 173.301216 
L 459.675 170.537798 
L 462.465 167.696485 
L 463.86 166.54947 
L 465.255 165.671083 
L 466.65 165.099108 
L 468.045 164.920023 
L 469.44 165.069783 
L 470.835 165.576699 
L 472.23 166.388262 
L 474.3225 168.038288 
L 477.1125 170.674486 
L 480.6 174.012444 
L 481.995 175.121852 
L 483.39 176.010213 
L 484.785 176.609632 
L 486.18 176.951516 
L 487.575 176.978177 
L 488.97 176.747726 
L 490.365 176.191783 
L 491.76 175.343568 
L 493.8525 173.67414 
L 499.4325 168.79617 
L 501.525 167.481015 
L 502.92 166.870975 
L 504.315 166.570169 
L 505.71 166.566832 
L 507.105 166.816495 
L 508.5 167.349134 
L 509.895 168.095661 
L 511.9875 169.545451 
L 516.1725 172.560358 
L 517.5675 173.422426 
L 518.9625 174.105178 
L 520.3575 174.545481 
L 521.7525 174.724322 
L 523.1475 174.586233 
L 524.5425 174.154506 
L 525.9375 173.499717 
L 527.3325 172.638434 
L 530.1225 170.512061 
L 533.61 167.884253 
L 535.7025 166.591609 
L 537.0975 165.923545 
L 538.4925 165.471839 
L 539.8875 165.248554 
L 541.2825 165.222141 
L 543.375 165.500523 
L 545.4675 166.108886 
L 548.2575 167.219995 
L 551.0475 168.434818 
L 553.8375 169.438693 
L 555.93 169.875387 
L 557.325 169.945964 
L 559.4175 169.710285 
L 561.51 169.145063 
L 563.6025 168.281481 
L 566.3925 166.750719 
L 571.9725 163.507629 
L 573.3675 162.939855 
L 574.7625 162.564712 
L 576.1575 162.359384 
L 577.5525 162.425588 
L 578.9475 162.766998 
L 580.3425 163.318662 
L 581.7375 164.070173 
L 583.1325 165.021405 
L 585.225 166.792473 
L 588.015 169.193452 
L 590.1075 170.855872 
L 592.2 172.162846 
L 593.595 172.72225 
L 594.99 173.039127 
L 596.385 173.139432 
L 597.78 173.002473 
L 599.8725 172.398463 
L 601.965 171.485427 
L 606.8475 169.201876 
L 608.2425 168.855712 
L 609.6375 168.715677 
L 611.0325 168.819765 
L 612.4275 169.199355 
L 613.8225 169.801913 
L 615.2175 170.59132 
L 618.0075 172.519395 
L 622.89 175.987206 
L 624.9825 177.191841 
L 626.3775 177.776143 
L 627.7725 178.145548 
L 629.1675 178.315357 
L 630.5625 178.23805 
L 631.9575 177.940693 
L 633.3525 177.426239 
L 634.7475 176.717685 
L 636.84 175.288655 
L 641.7225 171.785352 
L 643.815 170.67693 
L 645.21 170.167131 
L 646.605 169.92 
L 646.605 169.92 
" style="fill:none;stroke:#008080;stroke-linecap:round;stroke-width:1.75;"/>
   </g>
   <g id="patch_3">
    <path d="M 90 270.72 
L 90 69.12 
" style="fill:none;stroke:#262626;stroke-linecap:square;stroke-linejoin:miter;stroke-width:1.25;"/>
   </g>
   <g id="patch_4">
    <path d="M 90 270.72 
L 648 270.72 
" style="fill:none;stroke:#262626;stroke-linecap:square;stroke-linejoin:miter;stroke-width:1.25;"/>
   </g>
  </g>
  <g id="axes_2">
   <g id="patch_5">
    <path d="M 90 512.64 
L 648 512.64 
L 648 311.04 
L 90 311.04 
z
" style="fill:#ffffff;"/>
   </g>
   <g id="matplotlib.axis_3">
    <g id="xtick_10">
     <g id="line2d_16">
      <g>
       <use style="fill:#262626;stroke:#262626;" x="191.454545" xlink:href="#ma58b646b24" y="512.64"/>
      </g>
     </g>
     <g id="text_15">
      <!-- 200 -->
      <g style="fill:#262626;" transform="translate(183.113139 532.797812)scale(0.1 -0.1)">
       <use xlink:href="#ArialMT-32"/>
       <use x="55.615234" xlink:href="#ArialMT-30"/>
       <use x="111.230469" xlink:href="#ArialMT-30"/>
      </g>
     </g>
    </g>
    <g id="xtick_11">
     <g id="line2d_17">
      <g>
       <use style="fill:#262626;stroke:#262626;" x="304.181818" xlink:href="#ma58b646b24" y="512.64"/>
      </g>
     </g>
     <g id="text_16">
      <!-- 400 -->
      <g style="fill:#262626;" transform="translate(295.840412 532.797812)scale(0.1 -0.1)">
       <use xlink:href="#ArialMT-34"/>
       <use x="55.615234" xlink:href="#ArialMT-30"/>
       <use x="111.230469" xlink:href="#ArialMT-30"/>
      </g>
     </g>
    </g>
    <g id="xtick_12">
     <g id="line2d_18">
      <g>
       <use style="fill:#262626;stroke:#262626;" x="416.909091" xlink:href="#ma58b646b24" y="512.64"/>
      </g>
     </g>
     <g id="text_17">
      <!-- 600 -->
      <g style="fill:#262626;" transform="translate(408.567685 532.797812)scale(0.1 -0.1)">
       <use xlink:href="#ArialMT-36"/>
       <use x="55.615234" xlink:href="#ArialMT-30"/>
       <use x="111.230469" xlink:href="#ArialMT-30"/>
      </g>
     </g>
    </g>
    <g id="xtick_13">
     <g id="line2d_19">
      <g>
       <use style="fill:#262626;stroke:#262626;" x="529.636364" xlink:href="#ma58b646b24" y="512.64"/>
      </g>
     </g>
     <g id="text_18">
      <!-- 800 -->
      <g style="fill:#262626;" transform="translate(521.294957 532.797812)scale(0.1 -0.1)">
       <use xlink:href="#ArialMT-38"/>
       <use x="55.615234" xlink:href="#ArialMT-30"/>
       <use x="111.230469" xlink:href="#ArialMT-30"/>
      </g>
     </g>
    </g>
    <g id="xtick_14">
     <g id="line2d_20">
      <g>
       <use style="fill:#262626;stroke:#262626;" x="642.363636" xlink:href="#ma58b646b24" y="512.64"/>
      </g>
     </g>
     <g id="text_19">
      <!-- 1000 -->
      <g style="fill:#262626;" transform="translate(631.241761 532.797812)scale(0.1 -0.1)">
       <use xlink:href="#ArialMT-31"/>
       <use x="55.615234" xlink:href="#ArialMT-30"/>
       <use x="111.230469" xlink:href="#ArialMT-30"/>
       <use x="166.845703" xlink:href="#ArialMT-30"/>
      </g>
     </g>
    </g>
   </g>
   <g id="matplotlib.axis_4">
    <g id="ytick_6">
     <g id="line2d_21">
      <g>
       <use style="fill:#262626;stroke:#262626;" x="90" xlink:href="#mbb99d4235e" y="512.64"/>
      </g>
     </g>
     <g id="text_20">
      <!-- 0 -->
      <g style="fill:#262626;" transform="translate(71.439063 516.218906)scale(0.1 -0.1)">
       <use xlink:href="#ArialMT-30"/>
      </g>
     </g>
    </g>
    <g id="ytick_7">
     <g id="line2d_22">
      <g>
       <use style="fill:#262626;stroke:#262626;" x="90" xlink:href="#mbb99d4235e" y="490.24"/>
      </g>
     </g>
     <g id="text_21">
      <!-- 2 -->
      <g style="fill:#262626;" transform="translate(71.439063 493.818906)scale(0.1 -0.1)">
       <use xlink:href="#ArialMT-32"/>
      </g>
     </g>
    </g>
    <g id="ytick_8">
     <g id="line2d_23">
      <g>
       <use style="fill:#262626;stroke:#262626;" x="90" xlink:href="#mbb99d4235e" y="467.84"/>
      </g>
     </g>
     <g id="text_22">
      <!-- 4 -->
      <g style="fill:#262626;" transform="translate(71.439063 471.418906)scale(0.1 -0.1)">
       <use xlink:href="#ArialMT-34"/>
      </g>
     </g>
    </g>
    <g id="ytick_9">
     <g id="line2d_24">
      <g>
       <use style="fill:#262626;stroke:#262626;" x="90" xlink:href="#mbb99d4235e" y="445.44"/>
      </g>
     </g>
     <g id="text_23">
      <!-- 6 -->
      <g style="fill:#262626;" transform="translate(71.439063 449.018906)scale(0.1 -0.1)">
       <use xlink:href="#ArialMT-36"/>
      </g>
     </g>
    </g>
    <g id="ytick_10">
     <g id="line2d_25">
      <g>
       <use style="fill:#262626;stroke:#262626;" x="90" xlink:href="#mbb99d4235e" y="423.04"/>
      </g>
     </g>
     <g id="text_24">
      <!-- 8 -->
      <g style="fill:#262626;" transform="translate(71.439063 426.618906)scale(0.1 -0.1)">
       <use xlink:href="#ArialMT-38"/>
      </g>
     </g>
    </g>
    <g id="ytick_11">
     <g id="line2d_26">
      <g>
       <use style="fill:#262626;stroke:#262626;" x="90" xlink:href="#mbb99d4235e" y="400.64"/>
      </g>
     </g>
     <g id="text_25">
      <!-- 10 -->
      <g style="fill:#262626;" transform="translate(65.878125 404.218906)scale(0.1 -0.1)">
       <use xlink:href="#ArialMT-31"/>
       <use x="55.615234" xlink:href="#ArialMT-30"/>
      </g>
     </g>
    </g>
    <g id="ytick_12">
     <g id="line2d_27">
      <g>
       <use style="fill:#262626;stroke:#262626;" x="90" xlink:href="#mbb99d4235e" y="378.24"/>
      </g>
     </g>
     <g id="text_26">
      <!-- 12 -->
      <g style="fill:#262626;" transform="translate(65.878125 381.818906)scale(0.1 -0.1)">
       <use xlink:href="#ArialMT-31"/>
       <use x="55.615234" xlink:href="#ArialMT-32"/>
      </g>
     </g>
    </g>
    <g id="ytick_13">
     <g id="line2d_28">
      <g>
       <use style="fill:#262626;stroke:#262626;" x="90" xlink:href="#mbb99d4235e" y="355.84"/>
      </g>
     </g>
     <g id="text_27">
      <!-- 14 -->
      <g style="fill:#262626;" transform="translate(65.878125 359.418906)scale(0.1 -0.1)">
       <use xlink:href="#ArialMT-31"/>
       <use x="55.615234" xlink:href="#ArialMT-34"/>
      </g>
     </g>
    </g>
    <g id="ytick_14">
     <g id="line2d_29">
      <g>
       <use style="fill:#262626;stroke:#262626;" x="90" xlink:href="#mbb99d4235e" y="333.44"/>
      </g>
     </g>
     <g id="text_28">
      <!-- 16 -->
      <g style="fill:#262626;" transform="translate(65.878125 337.018906)scale(0.1 -0.1)">
       <use xlink:href="#ArialMT-31"/>
       <use x="55.615234" xlink:href="#ArialMT-36"/>
      </g>
     </g>
    </g>
    <g id="ytick_15">
     <g id="line2d_30">
      <g>
       <use style="fill:#262626;stroke:#262626;" x="90" xlink:href="#mbb99d4235e" y="311.04"/>
      </g>
     </g>
     <g id="text_29">
      <!-- 18 -->
      <g style="fill:#262626;" transform="translate(65.878125 314.618906)scale(0.1 -0.1)">
       <use xlink:href="#ArialMT-31"/>
       <use x="55.615234" xlink:href="#ArialMT-38"/>
      </g>
     </g>
    </g>
   </g>
   <g id="line2d_31">
    <path clip-path="url(#p35f39202e0)" d="M 90 477.654723 
L 95.636364 452.736402 
L 101.272727 431.923589 
L 106.909091 427.92302 
L 112.545455 440.45326 
L 118.181818 444.705349 
L 123.818182 448.961059 
L 129.454545 457.370701 
L 135.090909 456.375715 
L 140.727273 434.868159 
L 146.363636 408.816951 
L 152 389.988216 
L 157.636364 371.492183 
L 163.272727 352.310178 
L 168.909091 342.280664 
L 174.545455 348.647566 
L 180.181818 355.802406 
L 185.818182 363.350788 
L 191.454545 378.270766 
L 197.090909 391.147889 
L 202.727273 394.129256 
L 208.363636 396.550705 
L 214 393.395457 
L 219.636364 389.651786 
L 225.272727 392.702199 
L 230.909091 396.085016 
L 236.545455 399.690878 
L 242.181818 407.737617 
L 247.818182 414.331388 
L 253.454545 417.809913 
L 259.090909 422.903097 
L 264.727273 426.347751 
L 270.363636 429.764905 
L 276 436.797845 
L 281.636364 444.59905 
L 287.272727 452.348689 
L 292.909091 461.235722 
L 298.545455 467.982454 
L 304.181818 471.144774 
L 309.818182 472.257688 
L 315.454545 471.707893 
L 321.090909 472.117482 
L 326.727273 473.818281 
L 332.363636 475.619312 
L 338 478.193498 
L 343.636364 480.655986 
L 349.272727 482.144164 
L 354.909091 483.974362 
L 360.545455 485.825198 
L 366.181818 487.914885 
L 371.818182 490.804554 
L 377.454545 493.872728 
L 383.090909 496.544264 
L 388.727273 498.469641 
L 394.363636 499.417825 
L 400 499.768128 
L 405.636364 498.821458 
L 411.272727 497.224183 
L 416.909091 494.909956 
L 422.545455 492.447818 
L 428.181818 490.656474 
L 433.818182 489.398754 
L 439.454545 488.863228 
L 445.090909 489.4762 
L 450.727273 490.947183 
L 456.363636 492.717187 
L 462 494.86505 
L 467.636364 496.940627 
L 473.272727 498.413462 
L 478.909091 499.664059 
L 484.545455 500.693175 
L 490.181818 501.817475 
L 495.818182 503.208137 
L 501.454545 504.425298 
L 507.090909 503.990365 
L 512.727273 502.20513 
L 518.363636 500.243953 
L 524 498.447191 
L 529.636364 496.98678 
L 535.272727 496.1496 
L 540.909091 495.819663 
L 546.545455 495.772558 
L 552.181818 496.217161 
L 557.818182 497.014608 
L 563.454545 497.862877 
" style="fill:none;stroke:#b22222;stroke-linecap:round;stroke-width:1.75;"/>
   </g>
   <g id="line2d_32">
    <path clip-path="url(#p35f39202e0)" d="M 152 512.64 
L 152 311.04 
" style="fill:none;stroke:#4c72b0;stroke-linecap:round;stroke-width:1.75;"/>
   </g>
   <g id="patch_6">
    <path d="M 90 512.64 
L 90 311.04 
" style="fill:none;stroke:#262626;stroke-linecap:square;stroke-linejoin:miter;stroke-width:1.25;"/>
   </g>
   <g id="patch_7">
    <path d="M 90 512.64 
L 648 512.64 
" style="fill:none;stroke:#262626;stroke-linecap:square;stroke-linejoin:miter;stroke-width:1.25;"/>
   </g>
   <g id="text_30">
    <!-- f = 860 Hz -->
    <defs>
     <path d="M 8.6875 0 
L 8.6875 45.015625 
L 0.921875 45.015625 
L 0.921875 51.859375 
L 8.6875 51.859375 
L 8.6875 57.375 
Q 8.6875 62.59375 9.625 65.140625 
Q 10.890625 68.5625 14.078125 70.671875 
Q 17.28125 72.796875 23.046875 72.796875 
Q 26.765625 72.796875 31.25 71.921875 
L 29.9375 64.265625 
Q 27.203125 64.75 24.75 64.75 
Q 20.75 64.75 19.09375 63.03125 
Q 17.4375 61.328125 17.4375 56.640625 
L 17.4375 51.859375 
L 27.546875 51.859375 
L 27.546875 45.015625 
L 17.4375 45.015625 
L 17.4375 0 
z
" id="ArialMT-66"/>
     <path id="ArialMT-20"/>
     <path d="M 52.828125 42.09375 
L 5.5625 42.09375 
L 5.5625 50.296875 
L 52.828125 50.296875 
z
M 52.828125 20.359375 
L 5.5625 20.359375 
L 5.5625 28.5625 
L 52.828125 28.5625 
z
" id="ArialMT-3d"/>
     <path d="M 8.015625 0 
L 8.015625 71.578125 
L 17.484375 71.578125 
L 17.484375 42.1875 
L 54.6875 42.1875 
L 54.6875 71.578125 
L 64.15625 71.578125 
L 64.15625 0 
L 54.6875 0 
L 54.6875 33.734375 
L 17.484375 33.734375 
L 17.484375 0 
z
" id="ArialMT-48"/>
     <path d="M 1.953125 0 
L 1.953125 7.125 
L 34.96875 45.015625 
Q 29.34375 44.734375 25.046875 44.734375 
L 3.90625 44.734375 
L 3.90625 51.859375 
L 46.296875 51.859375 
L 46.296875 46.046875 
L 18.21875 13.140625 
L 12.796875 7.125 
Q 18.703125 7.5625 23.875 7.5625 
L 47.859375 7.5625 
L 47.859375 0 
z
" id="ArialMT-7a"/>
    </defs>
    <g style="fill:#262626;" transform="translate(529.636364 403.742188)scale(0.12 -0.12)">
     <use xlink:href="#ArialMT-66"/>
     <use x="27.783203" xlink:href="#ArialMT-20"/>
     <use x="55.566406" xlink:href="#ArialMT-3d"/>
     <use x="113.964844" xlink:href="#ArialMT-20"/>
     <use x="141.748047" xlink:href="#ArialMT-38"/>
     <use x="197.363281" xlink:href="#ArialMT-36"/>
     <use x="252.978516" xlink:href="#ArialMT-30"/>
     <use x="308.59375" xlink:href="#ArialMT-20"/>
     <use x="336.376953" xlink:href="#ArialMT-48"/>
     <use x="408.59375" xlink:href="#ArialMT-7a"/>
    </g>
   </g>
   <g id="PathCollection_1">
    <defs>
     <path d="M 0 3.5 
C 0.928211 3.5 1.81853 3.131218 2.474874 2.474874 
C 3.131218 1.81853 3.5 0.928211 3.5 0 
C 3.5 -0.928211 3.131218 -1.81853 2.474874 -2.474874 
C 1.81853 -3.131218 0.928211 -3.5 0 -3.5 
C -0.928211 -3.5 -1.81853 -3.131218 -2.474874 -2.474874 
C -3.131218 -1.81853 -3.5 -0.928211 -3.5 0 
C -3.5 0.928211 -3.131218 1.81853 -2.474874 2.474874 
C -1.81853 3.131218 -0.928211 3.5 0 3.5 
z
" id="m48ee9d228c" style="stroke:#800000;stroke-width:0.3;"/>
    </defs>
    <g clip-path="url(#p35f39202e0)">
     <use style="fill:#800000;stroke:#800000;stroke-width:0.3;" x="563.454545" xlink:href="#m48ee9d228c" y="497.862877"/>
    </g>
   </g>
  </g>
 </g>
 <defs>
  <clipPath id="p6608a8a87d">
   <rect height="201.6" width="558" x="90" y="69.12"/>
  </clipPath>
  <clipPath id="p35f39202e0">
   <rect height="201.6" width="558" x="90" y="311.04"/>
  </clipPath>
 </defs>
</svg>
