<?xml version="1.0" encoding="utf-8" standalone="no"?>
<!DOCTYPE svg PUBLIC "-//W3C//DTD SVG 1.1//EN"
  "http://www.w3.org/Graphics/SVG/1.1/DTD/svg11.dtd">
<!-- Created with matplotlib (http://matplotlib.org/) -->
<svg height="576pt" version="1.1" viewBox="0 0 720 576" width="720pt" xmlns="http://www.w3.org/2000/svg" xmlns:xlink="http://www.w3.org/1999/xlink">
 <defs>
  <style type="text/css">
*{stroke-linecap:butt;stroke-linejoin:round;}
  </style>
 </defs>
 <g id="figure_1">
  <g id="patch_1">
   <path d="M 0 576 
L 720 576 
L 720 0 
L 0 0 
z
" style="fill:#ffffff;"/>
  </g>
  <g id="axes_1">
   <g id="patch_2">
    <path d="M 90 270.72 
L 648 270.72 
L 648 69.12 
L 90 69.12 
z
" style="fill:#ffffff;"/>
   </g>
   <g id="matplotlib.axis_1">
    <g id="xtick_1">
     <g id="line2d_1">
      <defs>
       <path d="M 0 0 
L 0 6 
" id="mb211db9fc1" style="stroke:#262626;"/>
      </defs>
      <g>
       <use style="fill:#262626;stroke:#262626;" x="90" xlink:href="#mb211db9fc1" y="270.72"/>
      </g>
     </g>
     <g id="text_1">
      <!-- 0 -->
      <defs>
       <path d="M 4.15625 35.296875 
Q 4.15625 48 6.765625 55.734375 
Q 9.375 63.484375 14.515625 67.671875 
Q 19.671875 71.875 27.484375 71.875 
Q 33.25 71.875 37.59375 69.546875 
Q 41.9375 67.234375 44.765625 62.859375 
Q 47.609375 58.5 49.21875 52.21875 
Q 50.828125 45.953125 50.828125 35.296875 
Q 50.828125 22.703125 48.234375 14.96875 
Q 45.65625 7.234375 40.5 3 
Q 35.359375 -1.21875 27.484375 -1.21875 
Q 17.140625 -1.21875 11.234375 6.203125 
Q 4.15625 15.140625 4.15625 35.296875 
z
M 13.1875 35.296875 
Q 13.1875 17.671875 17.3125 11.828125 
Q 21.4375 6 27.484375 6 
Q 33.546875 6 37.671875 11.859375 
Q 41.796875 17.71875 41.796875 35.296875 
Q 41.796875 52.984375 37.671875 58.78125 
Q 33.546875 64.59375 27.390625 64.59375 
Q 21.34375 64.59375 17.71875 59.46875 
Q 13.1875 52.9375 13.1875 35.296875 
z
" id="ArialMT-30"/>
      </defs>
      <g style="fill:#262626;" transform="translate(87.219531 290.877812)scale(0.1 -0.1)">
       <use xlink:href="#ArialMT-30"/>
      </g>
     </g>
    </g>
    <g id="xtick_2">
     <g id="line2d_2">
      <g>
       <use style="fill:#262626;stroke:#262626;" x="159.75" xlink:href="#mb211db9fc1" y="270.72"/>
      </g>
     </g>
     <g id="text_2">
      <!-- 100 -->
      <defs>
       <path d="M 37.25 0 
L 28.46875 0 
L 28.46875 56 
Q 25.296875 52.984375 20.140625 49.953125 
Q 14.984375 46.921875 10.890625 45.40625 
L 10.890625 53.90625 
Q 18.265625 57.375 23.78125 62.296875 
Q 29.296875 67.234375 31.59375 71.875 
L 37.25 71.875 
z
" id="ArialMT-31"/>
      </defs>
      <g style="fill:#262626;" transform="translate(151.408594 290.877812)scale(0.1 -0.1)">
       <use xlink:href="#ArialMT-31"/>
       <use x="55.615234" xlink:href="#ArialMT-30"/>
       <use x="111.230469" xlink:href="#ArialMT-30"/>
      </g>
     </g>
    </g>
    <g id="xtick_3">
     <g id="line2d_3">
      <g>
       <use style="fill:#262626;stroke:#262626;" x="229.5" xlink:href="#mb211db9fc1" y="270.72"/>
      </g>
     </g>
     <g id="text_3">
      <!-- 200 -->
      <defs>
       <path d="M 50.34375 8.453125 
L 50.34375 0 
L 3.03125 0 
Q 2.9375 3.171875 4.046875 6.109375 
Q 5.859375 10.9375 9.828125 15.625 
Q 13.8125 20.3125 21.34375 26.46875 
Q 33.015625 36.03125 37.109375 41.625 
Q 41.21875 47.21875 41.21875 52.203125 
Q 41.21875 57.421875 37.46875 61 
Q 33.734375 64.59375 27.734375 64.59375 
Q 21.390625 64.59375 17.578125 60.78125 
Q 13.765625 56.984375 13.71875 50.25 
L 4.6875 51.171875 
Q 5.609375 61.28125 11.65625 66.578125 
Q 17.71875 71.875 27.9375 71.875 
Q 38.234375 71.875 44.234375 66.15625 
Q 50.25 60.453125 50.25 52 
Q 50.25 47.703125 48.484375 43.546875 
Q 46.734375 39.40625 42.65625 34.8125 
Q 38.578125 30.21875 29.109375 22.21875 
Q 21.1875 15.578125 18.9375 13.203125 
Q 16.703125 10.84375 15.234375 8.453125 
z
" id="ArialMT-32"/>
      </defs>
      <g style="fill:#262626;" transform="translate(221.158594 290.877812)scale(0.1 -0.1)">
       <use xlink:href="#ArialMT-32"/>
       <use x="55.615234" xlink:href="#ArialMT-30"/>
       <use x="111.230469" xlink:href="#ArialMT-30"/>
      </g>
     </g>
    </g>
    <g id="xtick_4">
     <g id="line2d_4">
      <g>
       <use style="fill:#262626;stroke:#262626;" x="299.25" xlink:href="#mb211db9fc1" y="270.72"/>
      </g>
     </g>
     <g id="text_4">
      <!-- 300 -->
      <defs>
       <path d="M 4.203125 18.890625 
L 12.984375 20.0625 
Q 14.5 12.59375 18.140625 9.296875 
Q 21.78125 6 27 6 
Q 33.203125 6 37.46875 10.296875 
Q 41.75 14.59375 41.75 20.953125 
Q 41.75 27 37.796875 30.921875 
Q 33.84375 34.859375 27.734375 34.859375 
Q 25.25 34.859375 21.53125 33.890625 
L 22.515625 41.609375 
Q 23.390625 41.5 23.921875 41.5 
Q 29.546875 41.5 34.03125 44.421875 
Q 38.53125 47.359375 38.53125 53.46875 
Q 38.53125 58.296875 35.25 61.46875 
Q 31.984375 64.65625 26.8125 64.65625 
Q 21.6875 64.65625 18.265625 61.421875 
Q 14.84375 58.203125 13.875 51.765625 
L 5.078125 53.328125 
Q 6.6875 62.15625 12.390625 67.015625 
Q 18.109375 71.875 26.609375 71.875 
Q 32.46875 71.875 37.390625 69.359375 
Q 42.328125 66.84375 44.9375 62.5 
Q 47.5625 58.15625 47.5625 53.265625 
Q 47.5625 48.640625 45.0625 44.828125 
Q 42.578125 41.015625 37.703125 38.765625 
Q 44.046875 37.3125 47.5625 32.6875 
Q 51.078125 28.078125 51.078125 21.140625 
Q 51.078125 11.765625 44.234375 5.25 
Q 37.40625 -1.265625 26.953125 -1.265625 
Q 17.53125 -1.265625 11.296875 4.34375 
Q 5.078125 9.96875 4.203125 18.890625 
z
" id="ArialMT-33"/>
      </defs>
      <g style="fill:#262626;" transform="translate(290.908594 290.877812)scale(0.1 -0.1)">
       <use xlink:href="#ArialMT-33"/>
       <use x="55.615234" xlink:href="#ArialMT-30"/>
       <use x="111.230469" xlink:href="#ArialMT-30"/>
      </g>
     </g>
    </g>
    <g id="xtick_5">
     <g id="line2d_5">
      <g>
       <use style="fill:#262626;stroke:#262626;" x="369" xlink:href="#mb211db9fc1" y="270.72"/>
      </g>
     </g>
     <g id="text_5">
      <!-- 400 -->
      <defs>
       <path d="M 32.328125 0 
L 32.328125 17.140625 
L 1.265625 17.140625 
L 1.265625 25.203125 
L 33.9375 71.578125 
L 41.109375 71.578125 
L 41.109375 25.203125 
L 50.78125 25.203125 
L 50.78125 17.140625 
L 41.109375 17.140625 
L 41.109375 0 
z
M 32.328125 25.203125 
L 32.328125 57.46875 
L 9.90625 25.203125 
z
" id="ArialMT-34"/>
      </defs>
      <g style="fill:#262626;" transform="translate(360.658594 290.877812)scale(0.1 -0.1)">
       <use xlink:href="#ArialMT-34"/>
       <use x="55.615234" xlink:href="#ArialMT-30"/>
       <use x="111.230469" xlink:href="#ArialMT-30"/>
      </g>
     </g>
    </g>
    <g id="xtick_6">
     <g id="line2d_6">
      <g>
       <use style="fill:#262626;stroke:#262626;" x="438.75" xlink:href="#mb211db9fc1" y="270.72"/>
      </g>
     </g>
     <g id="text_6">
      <!-- 500 -->
      <defs>
       <path d="M 4.15625 18.75 
L 13.375 19.53125 
Q 14.40625 12.796875 18.140625 9.390625 
Q 21.875 6 27.15625 6 
Q 33.5 6 37.890625 10.78125 
Q 42.28125 15.578125 42.28125 23.484375 
Q 42.28125 31 38.0625 35.34375 
Q 33.84375 39.703125 27 39.703125 
Q 22.75 39.703125 19.328125 37.765625 
Q 15.921875 35.84375 13.96875 32.765625 
L 5.71875 33.84375 
L 12.640625 70.609375 
L 48.25 70.609375 
L 48.25 62.203125 
L 19.671875 62.203125 
L 15.828125 42.96875 
Q 22.265625 47.46875 29.34375 47.46875 
Q 38.71875 47.46875 45.15625 40.96875 
Q 51.609375 34.46875 51.609375 24.265625 
Q 51.609375 14.546875 45.953125 7.46875 
Q 39.0625 -1.21875 27.15625 -1.21875 
Q 17.390625 -1.21875 11.203125 4.25 
Q 5.03125 9.71875 4.15625 18.75 
z
" id="ArialMT-35"/>
      </defs>
      <g style="fill:#262626;" transform="translate(430.408594 290.877812)scale(0.1 -0.1)">
       <use xlink:href="#ArialMT-35"/>
       <use x="55.615234" xlink:href="#ArialMT-30"/>
       <use x="111.230469" xlink:href="#ArialMT-30"/>
      </g>
     </g>
    </g>
    <g id="xtick_7">
     <g id="line2d_7">
      <g>
       <use style="fill:#262626;stroke:#262626;" x="508.5" xlink:href="#mb211db9fc1" y="270.72"/>
      </g>
     </g>
     <g id="text_7">
      <!-- 600 -->
      <defs>
       <path d="M 49.75 54.046875 
L 41.015625 53.375 
Q 39.84375 58.546875 37.703125 60.890625 
Q 34.125 64.65625 28.90625 64.65625 
Q 24.703125 64.65625 21.53125 62.3125 
Q 17.390625 59.28125 14.984375 53.46875 
Q 12.59375 47.65625 12.5 36.921875 
Q 15.671875 41.75 20.265625 44.09375 
Q 24.859375 46.4375 29.890625 46.4375 
Q 38.671875 46.4375 44.84375 39.96875 
Q 51.03125 33.5 51.03125 23.25 
Q 51.03125 16.5 48.125 10.71875 
Q 45.21875 4.9375 40.140625 1.859375 
Q 35.0625 -1.21875 28.609375 -1.21875 
Q 17.625 -1.21875 10.6875 6.859375 
Q 3.765625 14.9375 3.765625 33.5 
Q 3.765625 54.25 11.421875 63.671875 
Q 18.109375 71.875 29.4375 71.875 
Q 37.890625 71.875 43.28125 67.140625 
Q 48.6875 62.40625 49.75 54.046875 
z
M 13.875 23.1875 
Q 13.875 18.65625 15.796875 14.5 
Q 17.71875 10.359375 21.1875 8.171875 
Q 24.65625 6 28.46875 6 
Q 34.03125 6 38.03125 10.484375 
Q 42.046875 14.984375 42.046875 22.703125 
Q 42.046875 30.125 38.078125 34.390625 
Q 34.125 38.671875 28.125 38.671875 
Q 22.171875 38.671875 18.015625 34.390625 
Q 13.875 30.125 13.875 23.1875 
z
" id="ArialMT-36"/>
      </defs>
      <g style="fill:#262626;" transform="translate(500.158594 290.877812)scale(0.1 -0.1)">
       <use xlink:href="#ArialMT-36"/>
       <use x="55.615234" xlink:href="#ArialMT-30"/>
       <use x="111.230469" xlink:href="#ArialMT-30"/>
      </g>
     </g>
    </g>
    <g id="xtick_8">
     <g id="line2d_8">
      <g>
       <use style="fill:#262626;stroke:#262626;" x="578.25" xlink:href="#mb211db9fc1" y="270.72"/>
      </g>
     </g>
     <g id="text_8">
      <!-- 700 -->
      <defs>
       <path d="M 4.734375 62.203125 
L 4.734375 70.65625 
L 51.078125 70.65625 
L 51.078125 63.8125 
Q 44.234375 56.546875 37.515625 44.484375 
Q 30.8125 32.421875 27.15625 19.671875 
Q 24.515625 10.6875 23.78125 0 
L 14.75 0 
Q 14.890625 8.453125 18.0625 20.40625 
Q 21.234375 32.375 27.171875 43.484375 
Q 33.109375 54.59375 39.796875 62.203125 
z
" id="ArialMT-37"/>
      </defs>
      <g style="fill:#262626;" transform="translate(569.908594 290.877812)scale(0.1 -0.1)">
       <use xlink:href="#ArialMT-37"/>
       <use x="55.615234" xlink:href="#ArialMT-30"/>
       <use x="111.230469" xlink:href="#ArialMT-30"/>
      </g>
     </g>
    </g>
    <g id="xtick_9">
     <g id="line2d_9">
      <g>
       <use style="fill:#262626;stroke:#262626;" x="648" xlink:href="#mb211db9fc1" y="270.72"/>
      </g>
     </g>
     <g id="text_9">
      <!-- 800 -->
      <defs>
       <path d="M 17.671875 38.8125 
Q 12.203125 40.828125 9.5625 44.53125 
Q 6.9375 48.25 6.9375 53.421875 
Q 6.9375 61.234375 12.546875 66.546875 
Q 18.171875 71.875 27.484375 71.875 
Q 36.859375 71.875 42.578125 66.421875 
Q 48.296875 60.984375 48.296875 53.171875 
Q 48.296875 48.1875 45.671875 44.5 
Q 43.0625 40.828125 37.75 38.8125 
Q 44.34375 36.671875 47.78125 31.875 
Q 51.21875 27.09375 51.21875 20.453125 
Q 51.21875 11.28125 44.71875 5.03125 
Q 38.234375 -1.21875 27.640625 -1.21875 
Q 17.046875 -1.21875 10.546875 5.046875 
Q 4.046875 11.328125 4.046875 20.703125 
Q 4.046875 27.6875 7.59375 32.390625 
Q 11.140625 37.109375 17.671875 38.8125 
z
M 15.921875 53.71875 
Q 15.921875 48.640625 19.1875 45.40625 
Q 22.46875 42.1875 27.6875 42.1875 
Q 32.765625 42.1875 36.015625 45.375 
Q 39.265625 48.578125 39.265625 53.21875 
Q 39.265625 58.0625 35.90625 61.359375 
Q 32.5625 64.65625 27.59375 64.65625 
Q 22.5625 64.65625 19.234375 61.421875 
Q 15.921875 58.203125 15.921875 53.71875 
z
M 13.09375 20.65625 
Q 13.09375 16.890625 14.875 13.375 
Q 16.65625 9.859375 20.171875 7.921875 
Q 23.6875 6 27.734375 6 
Q 34.03125 6 38.125 10.046875 
Q 42.234375 14.109375 42.234375 20.359375 
Q 42.234375 26.703125 38.015625 30.859375 
Q 33.796875 35.015625 27.4375 35.015625 
Q 21.234375 35.015625 17.15625 30.90625 
Q 13.09375 26.8125 13.09375 20.65625 
z
" id="ArialMT-38"/>
      </defs>
      <g style="fill:#262626;" transform="translate(639.658594 290.877812)scale(0.1 -0.1)">
       <use xlink:href="#ArialMT-38"/>
       <use x="55.615234" xlink:href="#ArialMT-30"/>
       <use x="111.230469" xlink:href="#ArialMT-30"/>
      </g>
     </g>
    </g>
   </g>
   <g id="matplotlib.axis_2">
    <g id="ytick_1">
     <g id="line2d_10">
      <defs>
       <path d="M 0 0 
L -6 0 
" id="m1beea3c7cf" style="stroke:#262626;"/>
      </defs>
      <g>
       <use style="fill:#262626;stroke:#262626;" x="90" xlink:href="#m1beea3c7cf" y="250.56"/>
      </g>
     </g>
     <g id="text_10">
      <!-- −0.04 -->
      <defs>
       <path d="M 52.828125 31.203125 
L 5.5625 31.203125 
L 5.5625 39.40625 
L 52.828125 39.40625 
z
" id="ArialMT-2212"/>
       <path d="M 9.078125 0 
L 9.078125 10.015625 
L 19.09375 10.015625 
L 19.09375 0 
z
" id="ArialMT-2e"/>
      </defs>
      <g style="fill:#262626;" transform="translate(51.698437 254.138906)scale(0.1 -0.1)">
       <use xlink:href="#ArialMT-2212"/>
       <use x="58.398438" xlink:href="#ArialMT-30"/>
       <use x="114.013672" xlink:href="#ArialMT-2e"/>
       <use x="141.796875" xlink:href="#ArialMT-30"/>
       <use x="197.412109" xlink:href="#ArialMT-34"/>
      </g>
     </g>
    </g>
    <g id="ytick_2">
     <g id="line2d_11">
      <g>
       <use style="fill:#262626;stroke:#262626;" x="90" xlink:href="#m1beea3c7cf" y="210.24"/>
      </g>
     </g>
     <g id="text_11">
      <!-- −0.02 -->
      <g style="fill:#262626;" transform="translate(51.698437 213.818906)scale(0.1 -0.1)">
       <use xlink:href="#ArialMT-2212"/>
       <use x="58.398438" xlink:href="#ArialMT-30"/>
       <use x="114.013672" xlink:href="#ArialMT-2e"/>
       <use x="141.796875" xlink:href="#ArialMT-30"/>
       <use x="197.412109" xlink:href="#ArialMT-32"/>
      </g>
     </g>
    </g>
    <g id="ytick_3">
     <g id="line2d_12">
      <g>
       <use style="fill:#262626;stroke:#262626;" x="90" xlink:href="#m1beea3c7cf" y="169.92"/>
      </g>
     </g>
     <g id="text_12">
      <!-- 0.00 -->
      <g style="fill:#262626;" transform="translate(57.539062 173.498906)scale(0.1 -0.1)">
       <use xlink:href="#ArialMT-30"/>
       <use x="55.615234" xlink:href="#ArialMT-2e"/>
       <use x="83.398438" xlink:href="#ArialMT-30"/>
       <use x="139.013672" xlink:href="#ArialMT-30"/>
      </g>
     </g>
    </g>
    <g id="ytick_4">
     <g id="line2d_13">
      <g>
       <use style="fill:#262626;stroke:#262626;" x="90" xlink:href="#m1beea3c7cf" y="129.6"/>
      </g>
     </g>
     <g id="text_13">
      <!-- 0.02 -->
      <g style="fill:#262626;" transform="translate(57.539062 133.178906)scale(0.1 -0.1)">
       <use xlink:href="#ArialMT-30"/>
       <use x="55.615234" xlink:href="#ArialMT-2e"/>
       <use x="83.398438" xlink:href="#ArialMT-30"/>
       <use x="139.013672" xlink:href="#ArialMT-32"/>
      </g>
     </g>
    </g>
    <g id="ytick_5">
     <g id="line2d_14">
      <g>
       <use style="fill:#262626;stroke:#262626;" x="90" xlink:href="#m1beea3c7cf" y="89.28"/>
      </g>
     </g>
     <g id="text_14">
      <!-- 0.04 -->
      <g style="fill:#262626;" transform="translate(57.539062 92.858906)scale(0.1 -0.1)">
       <use xlink:href="#ArialMT-30"/>
       <use x="55.615234" xlink:href="#ArialMT-2e"/>
       <use x="83.398438" xlink:href="#ArialMT-30"/>
       <use x="139.013672" xlink:href="#ArialMT-34"/>
      </g>
     </g>
    </g>
   </g>
   <g id="PolyCollection_1">
    <path clip-path="url(#p52ed3d9439)" d="M 90 174.249947 
L 90 169.92 
L 90.6975 169.92 
L 91.395 169.92 
L 92.0925 169.92 
L 92.79 169.92 
L 93.4875 169.92 
L 94.185 169.92 
L 94.8825 169.92 
L 95.58 169.92 
L 96.2775 169.92 
L 96.975 169.92 
L 97.6725 169.92 
L 98.37 169.92 
L 99.0675 169.92 
L 99.765 169.92 
L 100.4625 169.92 
L 101.16 169.92 
L 101.8575 169.92 
L 102.555 169.92 
L 103.2525 169.92 
L 103.95 169.92 
L 104.6475 169.92 
L 105.345 169.92 
L 106.0425 169.92 
L 106.74 169.92 
L 107.4375 169.92 
L 108.135 169.92 
L 108.8325 169.92 
L 109.53 169.92 
L 110.2275 169.92 
L 110.925 169.92 
L 111.6225 169.92 
L 112.32 169.92 
L 113.0175 169.92 
L 113.715 169.92 
L 114.4125 169.92 
L 115.11 169.92 
L 115.8075 169.92 
L 116.505 169.92 
L 117.2025 169.92 
L 117.9 169.92 
L 118.5975 169.92 
L 119.295 169.92 
L 119.9925 169.92 
L 120.69 169.92 
L 121.3875 169.92 
L 122.085 169.92 
L 122.7825 169.92 
L 123.48 169.92 
L 124.1775 169.92 
L 124.875 169.92 
L 125.5725 169.92 
L 126.27 169.92 
L 126.9675 169.92 
L 127.665 169.92 
L 128.3625 169.92 
L 129.06 169.92 
L 129.7575 169.92 
L 130.455 169.92 
L 131.1525 169.92 
L 131.85 169.92 
L 132.5475 169.92 
L 133.245 169.92 
L 133.9425 169.92 
L 134.64 169.92 
L 135.3375 169.92 
L 136.035 169.92 
L 136.7325 169.92 
L 137.43 169.92 
L 138.1275 169.92 
L 138.825 169.92 
L 139.5225 169.92 
L 140.22 169.92 
L 140.9175 169.92 
L 141.615 169.92 
L 142.3125 169.92 
L 143.01 169.92 
L 143.7075 169.92 
L 144.405 169.92 
L 145.1025 169.92 
L 145.8 169.92 
L 146.4975 169.92 
L 147.195 169.92 
L 147.8925 169.92 
L 148.59 169.92 
L 149.2875 169.92 
L 149.985 169.92 
L 150.6825 169.92 
L 151.38 169.92 
L 152.0775 169.92 
L 152.775 169.92 
L 153.4725 169.92 
L 154.17 169.92 
L 154.8675 169.92 
L 155.565 169.92 
L 156.2625 169.92 
L 156.96 169.92 
L 157.6575 169.92 
L 158.355 169.92 
L 159.0525 169.92 
L 159.75 169.92 
L 160.4475 169.92 
L 161.145 169.92 
L 161.8425 169.92 
L 162.54 169.92 
L 163.2375 169.92 
L 163.935 169.92 
L 164.6325 169.92 
L 165.33 169.92 
L 166.0275 169.92 
L 166.725 169.92 
L 167.4225 169.92 
L 168.12 169.92 
L 168.8175 169.92 
L 169.515 169.92 
L 170.2125 169.92 
L 170.91 169.92 
L 171.6075 169.92 
L 172.305 169.92 
L 173.0025 169.92 
L 173.7 169.92 
L 174.3975 169.92 
L 175.095 169.92 
L 175.7925 169.92 
L 176.49 169.92 
L 177.1875 169.92 
L 177.885 169.92 
L 178.5825 169.92 
L 179.28 169.92 
L 179.9775 169.92 
L 180.675 169.92 
L 181.3725 169.92 
L 182.07 169.92 
L 182.7675 169.92 
L 183.465 169.92 
L 184.1625 169.92 
L 184.86 169.92 
L 185.5575 169.92 
L 186.255 169.92 
L 186.9525 169.92 
L 187.65 169.92 
L 188.3475 169.92 
L 189.045 169.92 
L 189.7425 169.92 
L 190.44 169.92 
L 191.1375 169.92 
L 191.835 169.92 
L 192.5325 169.92 
L 193.23 169.92 
L 193.9275 169.92 
L 194.625 169.92 
L 195.3225 169.92 
L 196.02 169.92 
L 196.7175 169.92 
L 197.415 169.92 
L 198.1125 169.92 
L 198.81 169.92 
L 199.5075 169.92 
L 200.205 169.92 
L 200.9025 169.92 
L 201.6 169.92 
L 202.2975 169.92 
L 202.995 169.92 
L 203.6925 169.92 
L 204.39 169.92 
L 205.0875 169.92 
L 205.785 169.92 
L 206.4825 169.92 
L 207.18 169.92 
L 207.8775 169.92 
L 208.575 169.92 
L 209.2725 169.92 
L 209.97 169.92 
L 210.6675 169.92 
L 211.365 169.92 
L 212.0625 169.92 
L 212.76 169.92 
L 213.4575 169.92 
L 214.155 169.92 
L 214.8525 169.92 
L 215.55 169.92 
L 216.2475 169.92 
L 216.945 169.92 
L 217.6425 169.92 
L 218.34 169.92 
L 219.0375 169.92 
L 219.735 169.92 
L 220.4325 169.92 
L 221.13 169.92 
L 221.8275 169.92 
L 222.525 169.92 
L 223.2225 169.92 
L 223.92 169.92 
L 224.6175 169.92 
L 225.315 169.92 
L 226.0125 169.92 
L 226.71 169.92 
L 227.4075 169.92 
L 228.105 169.92 
L 228.8025 169.92 
L 229.5 169.92 
L 230.1975 169.92 
L 230.895 169.92 
L 231.5925 169.92 
L 232.29 169.92 
L 232.9875 169.92 
L 233.685 169.92 
L 234.3825 169.92 
L 235.08 169.92 
L 235.7775 169.92 
L 236.475 169.92 
L 237.1725 169.92 
L 237.87 169.92 
L 238.5675 169.92 
L 239.265 169.92 
L 239.9625 169.92 
L 240.66 169.92 
L 241.3575 169.92 
L 242.055 169.92 
L 242.7525 169.92 
L 243.45 169.92 
L 244.1475 169.92 
L 244.845 169.92 
L 245.5425 169.92 
L 246.24 169.92 
L 246.9375 169.92 
L 247.635 169.92 
L 248.3325 169.92 
L 249.03 169.92 
L 249.7275 169.92 
L 250.425 169.92 
L 251.1225 169.92 
L 251.82 169.92 
L 252.5175 169.92 
L 253.215 169.92 
L 253.9125 169.92 
L 254.61 169.92 
L 255.3075 169.92 
L 256.005 169.92 
L 256.7025 169.92 
L 257.4 169.92 
L 258.0975 169.92 
L 258.795 169.92 
L 259.4925 169.92 
L 260.19 169.92 
L 260.8875 169.92 
L 261.585 169.92 
L 262.2825 169.92 
L 262.98 169.92 
L 263.6775 169.92 
L 264.375 169.92 
L 265.0725 169.92 
L 265.77 169.92 
L 266.4675 169.92 
L 267.165 169.92 
L 267.8625 169.92 
L 268.56 169.92 
L 269.2575 169.92 
L 269.955 169.92 
L 270.6525 169.92 
L 271.35 169.92 
L 272.0475 169.92 
L 272.745 169.92 
L 273.4425 169.92 
L 274.14 169.92 
L 274.8375 169.92 
L 275.535 169.92 
L 276.2325 169.92 
L 276.93 169.92 
L 277.6275 169.92 
L 278.325 169.92 
L 279.0225 169.92 
L 279.72 169.92 
L 280.4175 169.92 
L 281.115 169.92 
L 281.8125 169.92 
L 282.51 169.92 
L 283.2075 169.92 
L 283.905 169.92 
L 284.6025 169.92 
L 285.3 169.92 
L 285.9975 169.92 
L 286.695 169.92 
L 287.3925 169.92 
L 288.09 169.92 
L 288.7875 169.92 
L 289.485 169.92 
L 290.1825 169.92 
L 290.88 169.92 
L 291.5775 169.92 
L 292.275 169.92 
L 292.9725 169.92 
L 293.67 169.92 
L 294.3675 169.92 
L 295.065 169.92 
L 295.7625 169.92 
L 296.46 169.92 
L 297.1575 169.92 
L 297.855 169.92 
L 298.5525 169.92 
L 299.25 169.92 
L 299.9475 169.92 
L 300.645 169.92 
L 301.3425 169.92 
L 302.04 169.92 
L 302.7375 169.92 
L 303.435 169.92 
L 304.1325 169.92 
L 304.83 169.92 
L 305.5275 169.92 
L 306.225 169.92 
L 306.9225 169.92 
L 307.62 169.92 
L 308.3175 169.92 
L 309.015 169.92 
L 309.7125 169.92 
L 310.41 169.92 
L 311.1075 169.92 
L 311.805 169.92 
L 312.5025 169.92 
L 313.2 169.92 
L 313.8975 169.92 
L 314.595 169.92 
L 315.2925 169.92 
L 315.99 169.92 
L 316.6875 169.92 
L 317.385 169.92 
L 318.0825 169.92 
L 318.78 169.92 
L 319.4775 169.92 
L 320.175 169.92 
L 320.8725 169.92 
L 321.57 169.92 
L 322.2675 169.92 
L 322.965 169.92 
L 323.6625 169.92 
L 324.36 169.92 
L 325.0575 169.92 
L 325.755 169.92 
L 326.4525 169.92 
L 327.15 169.92 
L 327.8475 169.92 
L 328.545 169.92 
L 329.2425 169.92 
L 329.94 169.92 
L 330.6375 169.92 
L 331.335 169.92 
L 332.0325 169.92 
L 332.73 169.92 
L 333.4275 169.92 
L 334.125 169.92 
L 334.8225 169.92 
L 335.52 169.92 
L 336.2175 169.92 
L 336.915 169.92 
L 337.6125 169.92 
L 338.31 169.92 
L 339.0075 169.92 
L 339.705 169.92 
L 340.4025 169.92 
L 341.1 169.92 
L 341.7975 169.92 
L 342.495 169.92 
L 343.1925 169.92 
L 343.89 169.92 
L 344.5875 169.92 
L 345.285 169.92 
L 345.9825 169.92 
L 346.68 169.92 
L 347.3775 169.92 
L 348.075 169.92 
L 348.7725 169.92 
L 349.47 169.92 
L 350.1675 169.92 
L 350.865 169.92 
L 351.5625 169.92 
L 352.26 169.92 
L 352.9575 169.92 
L 353.655 169.92 
L 354.3525 169.92 
L 355.05 169.92 
L 355.7475 169.92 
L 356.445 169.92 
L 357.1425 169.92 
L 357.84 169.92 
L 358.5375 169.92 
L 359.235 169.92 
L 359.9325 169.92 
L 360.63 169.92 
L 361.3275 169.92 
L 362.025 169.92 
L 362.7225 169.92 
L 363.42 169.92 
L 364.1175 169.92 
L 364.815 169.92 
L 365.5125 169.92 
L 366.21 169.92 
L 366.9075 169.92 
L 367.605 169.92 
L 368.3025 169.92 
L 369 169.92 
L 369.6975 169.92 
L 370.395 169.92 
L 371.0925 169.92 
L 371.79 169.92 
L 372.4875 169.92 
L 373.185 169.92 
L 373.8825 169.92 
L 374.58 169.92 
L 375.2775 169.92 
L 375.975 169.92 
L 376.6725 169.92 
L 377.37 169.92 
L 378.0675 169.92 
L 378.765 169.92 
L 379.4625 169.92 
L 380.16 169.92 
L 380.8575 169.92 
L 381.555 169.92 
L 382.2525 169.92 
L 382.95 169.92 
L 383.6475 169.92 
L 384.345 169.92 
L 385.0425 169.92 
L 385.74 169.92 
L 386.4375 169.92 
L 387.135 169.92 
L 387.8325 169.92 
L 388.53 169.92 
L 389.2275 169.92 
L 389.925 169.92 
L 390.6225 169.92 
L 391.32 169.92 
L 392.0175 169.92 
L 392.715 169.92 
L 393.4125 169.92 
L 394.11 169.92 
L 394.8075 169.92 
L 395.505 169.92 
L 396.2025 169.92 
L 396.9 169.92 
L 397.5975 169.92 
L 398.295 169.92 
L 398.9925 169.92 
L 399.69 169.92 
L 400.3875 169.92 
L 401.085 169.92 
L 401.7825 169.92 
L 402.48 169.92 
L 403.1775 169.92 
L 403.875 169.92 
L 404.5725 169.92 
L 405.27 169.92 
L 405.9675 169.92 
L 406.665 169.92 
L 407.3625 169.92 
L 408.06 169.92 
L 408.7575 169.92 
L 409.455 169.92 
L 410.1525 169.92 
L 410.85 169.92 
L 411.5475 169.92 
L 412.245 169.92 
L 412.9425 169.92 
L 413.64 169.92 
L 414.3375 169.92 
L 415.035 169.92 
L 415.7325 169.92 
L 416.43 169.92 
L 417.1275 169.92 
L 417.825 169.92 
L 418.5225 169.92 
L 419.22 169.92 
L 419.9175 169.92 
L 420.615 169.92 
L 421.3125 169.92 
L 422.01 169.92 
L 422.7075 169.92 
L 423.405 169.92 
L 424.1025 169.92 
L 424.8 169.92 
L 425.4975 169.92 
L 426.195 169.92 
L 426.8925 169.92 
L 427.59 169.92 
L 428.2875 169.92 
L 428.985 169.92 
L 429.6825 169.92 
L 430.38 169.92 
L 431.0775 169.92 
L 431.775 169.92 
L 432.4725 169.92 
L 433.17 169.92 
L 433.8675 169.92 
L 434.565 169.92 
L 435.2625 169.92 
L 435.96 169.92 
L 436.6575 169.92 
L 437.355 169.92 
L 438.0525 169.92 
L 438.75 169.92 
L 439.4475 169.92 
L 440.145 169.92 
L 440.8425 169.92 
L 441.54 169.92 
L 442.2375 169.92 
L 442.935 169.92 
L 443.6325 169.92 
L 444.33 169.92 
L 445.0275 169.92 
L 445.725 169.92 
L 446.4225 169.92 
L 447.12 169.92 
L 447.8175 169.92 
L 448.515 169.92 
L 449.2125 169.92 
L 449.91 169.92 
L 450.6075 169.92 
L 451.305 169.92 
L 452.0025 169.92 
L 452.7 169.92 
L 453.3975 169.92 
L 454.095 169.92 
L 454.7925 169.92 
L 455.49 169.92 
L 456.1875 169.92 
L 456.885 169.92 
L 457.5825 169.92 
L 458.28 169.92 
L 458.9775 169.92 
L 459.675 169.92 
L 460.3725 169.92 
L 461.07 169.92 
L 461.7675 169.92 
L 462.465 169.92 
L 463.1625 169.92 
L 463.86 169.92 
L 464.5575 169.92 
L 465.255 169.92 
L 465.9525 169.92 
L 466.65 169.92 
L 467.3475 169.92 
L 468.045 169.92 
L 468.7425 169.92 
L 469.44 169.92 
L 470.1375 169.92 
L 470.835 169.92 
L 471.5325 169.92 
L 472.23 169.92 
L 472.9275 169.92 
L 473.625 169.92 
L 474.3225 169.92 
L 475.02 169.92 
L 475.7175 169.92 
L 476.415 169.92 
L 477.1125 169.92 
L 477.81 169.92 
L 478.5075 169.92 
L 479.205 169.92 
L 479.9025 169.92 
L 480.6 169.92 
L 481.2975 169.92 
L 481.995 169.92 
L 482.6925 169.92 
L 483.39 169.92 
L 484.0875 169.92 
L 484.785 169.92 
L 485.4825 169.92 
L 486.18 169.92 
L 486.8775 169.92 
L 487.575 169.92 
L 488.2725 169.92 
L 488.97 169.92 
L 489.6675 169.92 
L 490.365 169.92 
L 491.0625 169.92 
L 491.76 169.92 
L 492.4575 169.92 
L 493.155 169.92 
L 493.8525 169.92 
L 494.55 169.92 
L 495.2475 169.92 
L 495.945 169.92 
L 496.6425 169.92 
L 497.34 169.92 
L 498.0375 169.92 
L 498.735 169.92 
L 499.4325 169.92 
L 500.13 169.92 
L 500.8275 169.92 
L 501.525 169.92 
L 502.2225 169.92 
L 502.92 169.92 
L 503.6175 169.92 
L 504.315 169.92 
L 505.0125 169.92 
L 505.71 169.92 
L 506.4075 169.92 
L 507.105 169.92 
L 507.8025 169.92 
L 508.5 169.92 
L 509.1975 169.92 
L 509.895 169.92 
L 510.5925 169.92 
L 511.29 169.92 
L 511.9875 169.92 
L 512.685 169.92 
L 513.3825 169.92 
L 514.08 169.92 
L 514.7775 169.92 
L 515.475 169.92 
L 516.1725 169.92 
L 516.87 169.92 
L 517.5675 169.92 
L 518.265 169.92 
L 518.9625 169.92 
L 519.66 169.92 
L 520.3575 169.92 
L 521.055 169.92 
L 521.7525 169.92 
L 522.45 169.92 
L 523.1475 169.92 
L 523.845 169.92 
L 524.5425 169.92 
L 525.24 169.92 
L 525.9375 169.92 
L 526.635 169.92 
L 527.3325 169.92 
L 528.03 169.92 
L 528.7275 169.92 
L 529.425 169.92 
L 530.1225 169.92 
L 530.82 169.92 
L 531.5175 169.92 
L 532.215 169.92 
L 532.9125 169.92 
L 533.61 169.92 
L 534.3075 169.92 
L 535.005 169.92 
L 535.7025 169.92 
L 536.4 169.92 
L 537.0975 169.92 
L 537.795 169.92 
L 538.4925 169.92 
L 539.19 169.92 
L 539.8875 169.92 
L 540.585 169.92 
L 541.2825 169.92 
L 541.98 169.92 
L 542.6775 169.92 
L 543.375 169.92 
L 544.0725 169.92 
L 544.77 169.92 
L 545.4675 169.92 
L 546.165 169.92 
L 546.8625 169.92 
L 547.56 169.92 
L 548.2575 169.92 
L 548.955 169.92 
L 549.6525 169.92 
L 550.35 169.92 
L 551.0475 169.92 
L 551.745 169.92 
L 552.4425 169.92 
L 553.14 169.92 
L 553.8375 169.92 
L 554.535 169.92 
L 555.2325 169.92 
L 555.93 169.92 
L 556.6275 169.92 
L 557.325 169.92 
L 558.0225 169.92 
L 558.72 169.92 
L 559.4175 169.92 
L 560.115 169.92 
L 560.8125 169.92 
L 561.51 169.92 
L 562.2075 169.92 
L 562.905 169.92 
L 563.6025 169.92 
L 564.3 169.92 
L 564.9975 169.92 
L 565.695 169.92 
L 566.3925 169.92 
L 567.09 169.92 
L 567.7875 169.92 
L 568.485 169.92 
L 569.1825 169.92 
L 569.88 169.92 
L 570.5775 169.92 
L 571.275 169.92 
L 571.9725 169.92 
L 572.67 169.92 
L 573.3675 169.92 
L 574.065 169.92 
L 574.7625 169.92 
L 575.46 169.92 
L 576.1575 169.92 
L 576.855 169.92 
L 577.5525 169.92 
L 578.25 169.92 
L 578.9475 169.92 
L 579.645 169.92 
L 580.3425 169.92 
L 581.04 169.92 
L 581.7375 169.92 
L 582.435 169.92 
L 583.1325 169.92 
L 583.83 169.92 
L 584.5275 169.92 
L 585.225 169.92 
L 585.9225 169.92 
L 586.62 169.92 
L 587.3175 169.92 
L 588.015 169.92 
L 588.7125 169.92 
L 589.41 169.92 
L 590.1075 169.92 
L 590.805 169.92 
L 591.5025 169.92 
L 592.2 169.92 
L 592.8975 169.92 
L 593.595 169.92 
L 594.2925 169.92 
L 594.99 169.92 
L 595.6875 169.92 
L 596.385 169.92 
L 597.0825 169.92 
L 597.78 169.92 
L 598.4775 169.92 
L 599.175 169.92 
L 599.8725 169.92 
L 600.57 169.92 
L 601.2675 169.92 
L 601.965 169.92 
L 602.6625 169.92 
L 603.36 169.92 
L 604.0575 169.92 
L 604.755 169.92 
L 605.4525 169.92 
L 606.15 169.92 
L 606.8475 169.92 
L 607.545 169.92 
L 608.2425 169.92 
L 608.94 169.92 
L 609.6375 169.92 
L 610.335 169.92 
L 611.0325 169.92 
L 611.73 169.92 
L 612.4275 169.92 
L 613.125 169.92 
L 613.8225 169.92 
L 614.52 169.92 
L 615.2175 169.92 
L 615.915 169.92 
L 616.6125 169.92 
L 617.31 169.92 
L 618.0075 169.92 
L 618.705 169.92 
L 619.4025 169.92 
L 620.1 169.92 
L 620.7975 169.92 
L 621.495 169.92 
L 622.1925 169.92 
L 622.89 169.92 
L 623.5875 169.92 
L 624.285 169.92 
L 624.9825 169.92 
L 625.68 169.92 
L 626.3775 169.92 
L 627.075 169.92 
L 627.7725 169.92 
L 628.47 169.92 
L 629.1675 169.92 
L 629.865 169.92 
L 630.5625 169.92 
L 631.26 169.92 
L 631.9575 169.92 
L 632.655 169.92 
L 633.3525 169.92 
L 634.05 169.92 
L 634.7475 169.92 
L 635.445 169.92 
L 636.1425 169.92 
L 636.84 169.92 
L 637.5375 169.92 
L 638.235 169.92 
L 638.9325 169.92 
L 639.63 169.92 
L 640.3275 169.92 
L 641.025 169.92 
L 641.7225 169.92 
L 642.42 169.92 
L 643.1175 169.92 
L 643.815 169.92 
L 644.5125 169.92 
L 645.21 169.92 
L 645.9075 169.92 
L 646.605 169.92 
L 646.605 169.92 
L 646.605 169.92 
L 645.9075 169.961772 
L 645.21 170.072927 
L 644.5125 170.215699 
L 643.815 170.393917 
L 643.1175 170.615847 
L 642.42 170.86166 
L 641.7225 171.125313 
L 641.025 171.437792 
L 640.3275 171.778752 
L 639.63 172.141607 
L 638.9325 172.547497 
L 638.235 172.96626 
L 637.5375 173.414075 
L 636.84 173.879107 
L 636.1425 174.363346 
L 635.445 174.864033 
L 634.7475 175.373673 
L 634.05 175.880079 
L 633.3525 176.375722 
L 632.655 176.885627 
L 631.9575 177.388322 
L 631.26 177.890224 
L 630.5625 178.393114 
L 629.865 178.898767 
L 629.1675 179.376454 
L 628.47 179.846659 
L 627.7725 180.30206 
L 627.075 180.753985 
L 626.3775 181.172012 
L 625.68 181.572323 
L 624.9825 181.943354 
L 624.285 182.273707 
L 623.5875 182.593989 
L 622.89 182.874527 
L 622.1925 183.127646 
L 621.495 183.347261 
L 620.7975 183.522839 
L 620.1 183.639454 
L 619.4025 183.728932 
L 618.705 183.767556 
L 618.0075 183.764387 
L 617.31 183.705522 
L 616.6125 183.586652 
L 615.915 183.431664 
L 615.2175 183.218232 
L 614.52 182.952216 
L 613.8225 182.649055 
L 613.125 182.301194 
L 612.4275 181.901333 
L 611.73 181.456393 
L 611.0325 180.992117 
L 610.335 180.497225 
L 609.6375 179.960616 
L 608.94 179.39927 
L 608.2425 178.807105 
L 607.545 178.178214 
L 606.8475 177.539386 
L 606.15 176.889622 
L 605.4525 176.223342 
L 604.755 175.511855 
L 604.0575 174.800987 
L 603.36 174.057659 
L 602.6625 173.309314 
L 601.965 172.541652 
L 601.2675 171.768331 
L 600.57 170.989117 
L 599.8725 170.20381 
L 599.175 169.426168 
L 598.4775 168.632775 
L 597.78 167.865284 
L 597.0825 167.090938 
L 596.385 166.332716 
L 595.6875 165.585656 
L 594.99 164.854017 
L 594.2925 164.155893 
L 593.595 163.472054 
L 592.8975 162.820324 
L 592.2 162.190492 
L 591.5025 161.572224 
L 590.805 160.996892 
L 590.1075 160.463133 
L 589.41 159.964707 
L 588.7125 159.495173 
L 588.015 159.07577 
L 587.3175 158.713532 
L 586.62 158.391956 
L 585.9225 158.112877 
L 585.225 157.86396 
L 584.5275 157.655907 
L 583.83 157.499187 
L 583.1325 157.403974 
L 582.435 157.366172 
L 581.7375 157.376711 
L 581.04 157.435533 
L 580.3425 157.542302 
L 579.645 157.682485 
L 578.9475 157.869207 
L 578.25 158.087481 
L 577.5525 158.336063 
L 576.855 158.636741 
L 576.1575 158.959955 
L 575.46 159.336351 
L 574.7625 159.722013 
L 574.065 160.124025 
L 573.3675 160.549379 
L 572.67 160.981726 
L 571.9725 161.451091 
L 571.275 161.931593 
L 570.5775 162.415852 
L 569.88 162.896466 
L 569.1825 163.393903 
L 568.485 163.87748 
L 567.7875 164.344441 
L 567.09 164.819972 
L 566.3925 165.282799 
L 565.695 165.730282 
L 564.9975 166.169154 
L 564.3 166.610839 
L 563.6025 167.034252 
L 562.905 167.4277 
L 562.2075 167.816786 
L 561.51 168.180729 
L 560.8125 168.526736 
L 560.115 168.857477 
L 559.4175 169.166426 
L 558.72 169.461104 
L 558.0225 169.721267 
L 557.325 169.968638 
L 556.6275 170.17396 
L 555.93 170.363911 
L 555.2325 170.509559 
L 554.535 170.62864 
L 553.8375 170.725117 
L 553.14 170.779875 
L 552.4425 170.82509 
L 551.745 170.823375 
L 551.0475 170.807229 
L 550.35 170.753536 
L 549.6525 170.690451 
L 548.955 170.595127 
L 548.2575 170.458825 
L 547.56 170.305527 
L 546.8625 170.136108 
L 546.165 169.946892 
L 545.4675 169.729674 
L 544.77 169.494976 
L 544.0725 169.239494 
L 543.375 168.969324 
L 542.6775 168.681366 
L 541.98 168.400467 
L 541.2825 168.09574 
L 540.585 167.787485 
L 539.8875 167.47746 
L 539.19 167.162791 
L 538.4925 166.863836 
L 537.795 166.573017 
L 537.0975 166.296632 
L 536.4 166.036257 
L 535.7025 165.798017 
L 535.005 165.569345 
L 534.3075 165.374752 
L 533.61 165.187499 
L 532.9125 165.036501 
L 532.215 164.899412 
L 531.5175 164.80022 
L 530.82 164.734848 
L 530.1225 164.699029 
L 529.425 164.711532 
L 528.7275 164.744437 
L 528.03 164.816122 
L 527.3325 164.921538 
L 526.635 165.055441 
L 525.9375 165.212429 
L 525.24 165.400888 
L 524.5425 165.615103 
L 523.845 165.858494 
L 523.1475 166.134317 
L 522.45 166.422433 
L 521.7525 166.730483 
L 521.055 167.047428 
L 520.3575 167.380745 
L 519.66 167.733176 
L 518.9625 168.09807 
L 518.265 168.468707 
L 517.5675 168.86154 
L 516.87 169.265046 
L 516.1725 169.667644 
L 515.475 170.085604 
L 514.7775 170.511903 
L 514.08 170.944112 
L 513.3825 171.379766 
L 512.685 171.8071 
L 511.9875 172.219038 
L 511.29 172.617873 
L 510.5925 173.010614 
L 509.895 173.404306 
L 509.1975 173.782781 
L 508.5 174.157806 
L 507.8025 174.504036 
L 507.105 174.851989 
L 506.4075 175.181115 
L 505.71 175.49418 
L 505.0125 175.775476 
L 504.315 176.041964 
L 503.6175 176.292127 
L 502.92 176.510613 
L 502.2225 176.724027 
L 501.525 176.907944 
L 500.8275 177.0706 
L 500.13 177.197144 
L 499.4325 177.291495 
L 498.735 177.367039 
L 498.0375 177.418706 
L 497.34 177.4462 
L 496.6425 177.444723 
L 495.945 177.423567 
L 495.2475 177.382852 
L 494.55 177.332093 
L 493.8525 177.24373 
L 493.155 177.141476 
L 492.4575 176.998063 
L 491.76 176.842158 
L 491.0625 176.660724 
L 490.365 176.454797 
L 489.6675 176.220908 
L 488.97 175.969674 
L 488.2725 175.693242 
L 487.575 175.397831 
L 486.8775 175.103689 
L 486.18 174.80321 
L 485.4825 174.488824 
L 484.785 174.162322 
L 484.0875 173.83949 
L 483.39 173.512885 
L 482.6925 173.175085 
L 481.995 172.828016 
L 481.2975 172.482938 
L 480.6 172.132536 
L 479.9025 171.783448 
L 479.205 171.433022 
L 478.5075 171.092538 
L 477.81 170.750013 
L 477.1125 170.416681 
L 476.415 170.08516 
L 475.7175 169.775905 
L 475.02 169.46747 
L 474.3225 169.166256 
L 473.625 168.87398 
L 472.9275 168.587665 
L 472.23 168.308943 
L 471.5325 168.039404 
L 470.835 167.80379 
L 470.1375 167.580236 
L 469.44 167.374659 
L 468.7425 167.197514 
L 468.045 167.045167 
L 467.3475 166.909205 
L 466.65 166.799686 
L 465.9525 166.726516 
L 465.255 166.690112 
L 464.5575 166.676758 
L 463.86 166.68653 
L 463.1625 166.733295 
L 462.465 166.798224 
L 461.7675 166.913434 
L 461.07 167.045779 
L 460.3725 167.199147 
L 459.675 167.372664 
L 458.9775 167.560699 
L 458.28 167.752898 
L 457.5825 167.976013 
L 456.885 168.219491 
L 456.1875 168.468019 
L 455.49 168.724822 
L 454.7925 169.011644 
L 454.095 169.303643 
L 453.3975 169.608438 
L 452.7 169.924291 
L 452.0025 170.254044 
L 451.305 170.591175 
L 450.6075 170.933764 
L 449.91 171.2845 
L 449.2125 171.636741 
L 448.515 171.993122 
L 447.8175 172.34697 
L 447.12 172.686986 
L 446.4225 173.020514 
L 445.725 173.350296 
L 445.0275 173.669809 
L 444.33 173.991158 
L 443.6325 174.293945 
L 442.935 174.576445 
L 442.2375 174.832405 
L 441.54 175.078934 
L 440.8425 175.300701 
L 440.145 175.510367 
L 439.4475 175.692812 
L 438.75 175.865563 
L 438.0525 176.004428 
L 437.355 176.117898 
L 436.6575 176.205327 
L 435.96 176.256933 
L 435.2625 176.281705 
L 434.565 176.274861 
L 433.8675 176.24108 
L 433.17 176.171274 
L 432.4725 176.075121 
L 431.775 175.943889 
L 431.0775 175.778324 
L 430.38 175.579369 
L 429.6825 175.352802 
L 428.985 175.095271 
L 428.2875 174.808244 
L 427.59 174.488715 
L 426.8925 174.143148 
L 426.195 173.778153 
L 425.4975 173.391168 
L 424.8 172.984401 
L 424.1025 172.564809 
L 423.405 172.125502 
L 422.7075 171.687549 
L 422.01 171.23024 
L 421.3125 170.765463 
L 420.615 170.295867 
L 419.9175 169.819488 
L 419.22 169.339041 
L 418.5225 168.857263 
L 417.825 168.386183 
L 417.1275 167.919204 
L 416.43 167.463628 
L 415.7325 167.017411 
L 415.035 166.573812 
L 414.3375 166.153926 
L 413.64 165.755505 
L 412.9425 165.371535 
L 412.245 165.022772 
L 411.5475 164.697279 
L 410.85 164.387628 
L 410.1525 164.104866 
L 409.455 163.850606 
L 408.7575 163.626297 
L 408.06 163.428575 
L 407.3625 163.253926 
L 406.665 163.117269 
L 405.9675 162.996178 
L 405.27 162.905265 
L 404.5725 162.835766 
L 403.875 162.802001 
L 403.1775 162.799522 
L 402.48 162.81906 
L 401.7825 162.874428 
L 401.085 162.946744 
L 400.3875 163.04488 
L 399.69 163.172917 
L 398.9925 163.316201 
L 398.295 163.478557 
L 397.5975 163.672984 
L 396.9 163.889091 
L 396.2025 164.130289 
L 395.505 164.385918 
L 394.8075 164.659164 
L 394.11 164.94847 
L 393.4125 165.23362 
L 392.715 165.531557 
L 392.0175 165.84058 
L 391.32 166.149647 
L 390.6225 166.475562 
L 389.925 166.788617 
L 389.2275 167.100955 
L 388.53 167.424718 
L 387.8325 167.744137 
L 387.135 168.057392 
L 386.4375 168.376621 
L 385.74 168.68144 
L 385.0425 168.97011 
L 384.345 169.250271 
L 383.6475 169.520325 
L 382.95 169.769449 
L 382.2525 169.991584 
L 381.555 170.190104 
L 380.8575 170.368519 
L 380.16 170.521171 
L 379.4625 170.64719 
L 378.765 170.741216 
L 378.0675 170.798072 
L 377.37 170.831358 
L 376.6725 170.826961 
L 375.975 170.794188 
L 375.2775 170.737867 
L 374.58 170.649036 
L 373.8825 170.532844 
L 373.185 170.385311 
L 372.4875 170.211919 
L 371.79 170.013656 
L 371.0925 169.787012 
L 370.395 169.533277 
L 369.6975 169.253898 
L 369 168.964392 
L 368.3025 168.643201 
L 367.605 168.320004 
L 366.9075 167.978078 
L 366.21 167.619372 
L 365.5125 167.250571 
L 364.815 166.873778 
L 364.1175 166.481856 
L 363.42 166.086324 
L 362.7225 165.689434 
L 362.025 165.293448 
L 361.3275 164.900625 
L 360.63 164.522485 
L 359.9325 164.147259 
L 359.235 163.781727 
L 358.5375 163.432614 
L 357.84 163.083345 
L 357.1425 162.754475 
L 356.445 162.433954 
L 355.7475 162.132893 
L 355.05 161.848365 
L 354.3525 161.57271 
L 353.655 161.316781 
L 352.9575 161.077395 
L 352.26 160.8652 
L 351.5625 160.686047 
L 350.865 160.527031 
L 350.1675 160.393702 
L 349.47 160.286819 
L 348.7725 160.206991 
L 348.075 160.159314 
L 347.3775 160.14406 
L 346.68 160.165958 
L 345.9825 160.22024 
L 345.285 160.301958 
L 344.5875 160.415285 
L 343.89 160.564219 
L 343.1925 160.738626 
L 342.495 160.942154 
L 341.7975 161.173644 
L 341.1 161.427135 
L 340.4025 161.710464 
L 339.705 162.022018 
L 339.0075 162.355378 
L 338.31 162.713286 
L 337.6125 163.089061 
L 336.915 163.489845 
L 336.2175 163.913352 
L 335.52 164.347887 
L 334.8225 164.790972 
L 334.125 165.240084 
L 333.4275 165.697302 
L 332.73 166.15538 
L 332.0325 166.607066 
L 331.335 167.059069 
L 330.6375 167.50417 
L 329.94 167.93055 
L 329.2425 168.345063 
L 328.545 168.759268 
L 327.8475 169.1476 
L 327.15 169.52641 
L 326.4525 169.884256 
L 325.755 170.214458 
L 325.0575 170.519775 
L 324.36 170.798467 
L 323.6625 171.048945 
L 322.965 171.269782 
L 322.2675 171.459719 
L 321.57 171.622316 
L 320.8725 171.761286 
L 320.175 171.866556 
L 319.4775 171.942165 
L 318.78 171.987685 
L 318.0825 171.998212 
L 317.385 171.97833 
L 316.6875 171.932793 
L 315.99 171.857219 
L 315.2925 171.756679 
L 314.595 171.631748 
L 313.8975 171.492419 
L 313.2 171.325563 
L 312.5025 171.12749 
L 311.805 170.899327 
L 311.1075 170.642377 
L 310.41 170.362743 
L 309.7125 170.066663 
L 309.015 169.751181 
L 308.3175 169.422737 
L 307.62 169.07392 
L 306.9225 168.716002 
L 306.225 168.34638 
L 305.5275 167.981085 
L 304.83 167.6222 
L 304.1325 167.262487 
L 303.435 166.908637 
L 302.7375 166.567309 
L 302.04 166.231165 
L 301.3425 165.906762 
L 300.645 165.59595 
L 299.9475 165.300499 
L 299.25 165.022094 
L 298.5525 164.762321 
L 297.855 164.522661 
L 297.1575 164.313763 
L 296.46 164.132175 
L 295.7625 163.978933 
L 295.065 163.850269 
L 294.3675 163.751557 
L 293.67 163.68336 
L 292.9725 163.646067 
L 292.275 163.644531 
L 291.5775 163.669479 
L 290.88 163.730051 
L 290.1825 163.816619 
L 289.485 163.937973 
L 288.7875 164.088779 
L 288.09 164.268178 
L 287.3925 164.479789 
L 286.695 164.717765 
L 285.9975 164.98539 
L 285.3 165.271857 
L 284.6025 165.589456 
L 283.905 165.931737 
L 283.2075 166.296749 
L 282.51 166.682411 
L 281.8125 167.086525 
L 281.115 167.506789 
L 280.4175 167.940806 
L 279.72 168.390744 
L 279.0225 168.849399 
L 278.325 169.314155 
L 277.6275 169.787006 
L 276.93 170.265255 
L 276.2325 170.741538 
L 275.535 171.217779 
L 274.8375 171.691265 
L 274.14 172.163938 
L 273.4425 172.628464 
L 272.745 173.077554 
L 272.0475 173.51793 
L 271.35 173.9378 
L 270.6525 174.339412 
L 269.955 174.720478 
L 269.2575 175.074184 
L 268.56 175.407797 
L 267.8625 175.719416 
L 267.165 176.011905 
L 266.4675 176.274316 
L 265.77 176.509794 
L 265.0725 176.716997 
L 264.375 176.890103 
L 263.6775 177.037407 
L 262.98 177.148788 
L 262.2825 177.218969 
L 261.585 177.256833 
L 260.8875 177.257523 
L 260.19 177.225677 
L 259.4925 177.161475 
L 258.795 177.065285 
L 258.0975 176.937653 
L 257.4 176.779307 
L 256.7025 176.591151 
L 256.005 176.374256 
L 255.3075 176.134499 
L 254.61 175.863965 
L 253.9125 175.568837 
L 253.215 175.246155 
L 252.5175 174.902401 
L 251.82 174.534891 
L 251.1225 174.14572 
L 250.425 173.741748 
L 249.7275 173.325277 
L 249.03 172.898681 
L 248.3325 172.464391 
L 247.635 172.024882 
L 246.9375 171.582659 
L 246.24 171.13096 
L 245.5425 170.681643 
L 244.845 170.232625 
L 244.1475 169.79575 
L 243.45 169.364225 
L 242.7525 168.945149 
L 242.055 168.536272 
L 241.3575 168.13528 
L 240.66 167.753743 
L 239.9625 167.389194 
L 239.265 167.04371 
L 238.5675 166.714619 
L 237.87 166.403797 
L 237.1725 166.117657 
L 236.475 165.857828 
L 235.7775 165.621152 
L 235.08 165.413618 
L 234.3825 165.236409 
L 233.685 165.090535 
L 232.9875 164.972185 
L 232.29 164.882036 
L 231.5925 164.829882 
L 230.895 164.81138 
L 230.1975 164.821994 
L 229.5 164.866305 
L 228.8025 164.934778 
L 228.105 165.036304 
L 227.4075 165.165665 
L 226.71 165.322122 
L 226.0125 165.509426 
L 225.315 165.721868 
L 224.6175 165.958236 
L 223.92 166.217184 
L 223.2225 166.497235 
L 222.525 166.796794 
L 221.8275 167.114154 
L 221.13 167.447505 
L 220.4325 167.790307 
L 219.735 168.145246 
L 219.0375 168.505659 
L 218.34 168.874133 
L 217.6425 169.248568 
L 216.945 169.62683 
L 216.2475 170.006762 
L 215.55 170.3862 
L 214.8525 170.762981 
L 214.155 171.134957 
L 213.4575 171.50465 
L 212.76 171.865312 
L 212.0625 172.214887 
L 211.365 172.556023 
L 210.6675 172.882136 
L 209.97 173.191367 
L 209.2725 173.481952 
L 208.575 173.752237 
L 207.8775 174.000681 
L 207.18 174.225867 
L 206.4825 174.426512 
L 205.785 174.601473 
L 205.0875 174.749752 
L 204.39 174.870505 
L 203.6925 174.963043 
L 202.995 175.026839 
L 202.2975 175.070811 
L 201.6 175.085427 
L 200.9025 175.070604 
L 200.205 175.026425 
L 199.5075 174.953142 
L 198.81 174.851174 
L 198.1125 174.725743 
L 197.415 174.572922 
L 196.7175 174.393581 
L 196.02 174.188745 
L 195.3225 173.959579 
L 194.625 173.70739 
L 193.9275 173.433615 
L 193.23 173.139815 
L 192.5325 172.827664 
L 191.835 172.49894 
L 191.1375 172.155519 
L 190.44 171.799356 
L 189.7425 171.432483 
L 189.045 171.056989 
L 188.3475 170.675015 
L 187.65 170.288737 
L 186.9525 169.900359 
L 186.255 169.512092 
L 185.5575 169.12615 
L 184.86 168.744732 
L 184.1625 168.370013 
L 183.465 168.004128 
L 182.7675 167.649162 
L 182.07 167.307138 
L 181.3725 166.980006 
L 180.675 166.66963 
L 179.9775 166.37778 
L 179.28 166.106118 
L 178.5825 165.856192 
L 177.885 165.629428 
L 177.1875 165.427117 
L 176.49 165.250414 
L 175.7925 165.100323 
L 175.095 164.977702 
L 174.3975 164.88325 
L 173.7 164.817503 
L 173.0025 164.780838 
L 172.305 164.773462 
L 171.6075 164.795419 
L 170.91 164.846583 
L 170.2125 164.926662 
L 169.515 165.0352 
L 168.8175 165.171578 
L 168.12 165.335019 
L 167.4225 165.519951 
L 166.725 165.72996 
L 166.0275 165.96385 
L 165.33 166.220287 
L 164.6325 166.497811 
L 163.935 166.794839 
L 163.2375 167.109678 
L 162.54 167.440535 
L 161.8425 167.780881 
L 161.145 168.13342 
L 160.4475 168.49614 
L 159.75 168.866976 
L 159.0525 169.243813 
L 158.355 169.624504 
L 157.6575 170.00688 
L 156.96 170.38876 
L 156.2625 170.767969 
L 155.565 171.142344 
L 154.8675 171.509753 
L 154.17 171.868102 
L 153.4725 172.215347 
L 152.775 172.54951 
L 152.0775 172.864046 
L 151.38 173.161802 
L 150.6825 173.436441 
L 149.985 173.691038 
L 149.2875 173.924142 
L 148.59 174.134425 
L 147.8925 174.320689 
L 147.195 174.481871 
L 146.4975 174.617054 
L 145.8 174.725466 
L 145.1025 174.80649 
L 144.405 174.859664 
L 143.7075 174.884685 
L 143.01 174.881411 
L 142.3125 174.849859 
L 141.615 174.79021 
L 140.9175 174.702804 
L 140.22 174.588139 
L 139.5225 174.442227 
L 138.825 174.270542 
L 138.1275 174.07406 
L 137.43 173.858545 
L 136.7325 173.620582 
L 136.035 173.361529 
L 135.3375 173.08286 
L 134.64 172.786166 
L 133.9425 172.477777 
L 133.245 172.15481 
L 132.5475 171.819107 
L 131.85 171.47258 
L 131.1525 171.117204 
L 130.455 170.755004 
L 129.7575 170.388046 
L 129.06 170.01842 
L 128.3625 169.648233 
L 127.665 169.279595 
L 126.9675 168.914607 
L 126.27 168.555349 
L 125.5725 168.203869 
L 124.875 167.86217 
L 124.1775 167.532199 
L 123.48 167.215837 
L 122.7825 166.914887 
L 122.085 166.631064 
L 121.3875 166.365987 
L 120.69 166.121165 
L 119.9925 165.897993 
L 119.295 165.697745 
L 118.5975 165.521562 
L 117.9 165.370446 
L 117.2025 165.24526 
L 116.505 165.146718 
L 115.8075 165.07538 
L 115.11 165.031653 
L 114.4125 165.015788 
L 113.715 165.027873 
L 113.0175 165.06784 
L 112.32 165.135461 
L 111.6225 165.230352 
L 110.925 165.35197 
L 110.2275 165.499624 
L 109.53 165.672471 
L 108.8325 165.869526 
L 108.135 166.089666 
L 107.4375 166.331637 
L 106.74 166.59406 
L 106.0425 166.875438 
L 105.345 167.174168 
L 104.6475 167.488548 
L 103.95 167.816786 
L 103.2525 168.15701 
L 102.555 168.507283 
L 101.8575 168.865607 
L 101.16 169.229941 
L 100.4625 169.598208 
L 99.765 169.968308 
L 99.0675 170.338133 
L 98.37 170.705576 
L 97.6725 171.06854 
L 96.975 171.424959 
L 96.2775 171.772801 
L 95.58 172.110083 
L 94.8825 172.439524 
L 94.185 172.754605 
L 93.4875 173.053531 
L 92.79 173.334597 
L 92.0925 173.596203 
L 91.395 173.836856 
L 90.6975 174.055186 
L 90 174.249947 
z
" style="fill:#e0ffff;"/>
   </g>
   <g id="line2d_15">
    <path clip-path="url(#p52ed3d9439)" d="M 90 174.249947 
L 92.0925 173.596203 
L 94.8825 172.439524 
L 98.37 170.705576 
L 104.6475 167.488548 
L 107.4375 166.331637 
L 109.53 165.672471 
L 111.6225 165.230352 
L 113.715 165.027873 
L 115.8075 165.07538 
L 117.9 165.370446 
L 119.9925 165.897993 
L 122.085 166.631064 
L 124.875 167.86217 
L 129.06 170.01842 
L 133.245 172.15481 
L 136.035 173.361529 
L 138.1275 174.07406 
L 140.22 174.588139 
L 142.3125 174.849859 
L 144.405 174.859664 
L 146.4975 174.617054 
L 148.59 174.134425 
L 150.6825 173.436441 
L 152.775 172.54951 
L 156.2625 170.767969 
L 162.54 167.440535 
L 165.33 166.220287 
L 167.4225 165.519951 
L 169.515 165.0352 
L 171.6075 164.795419 
L 173.7 164.817503 
L 175.7925 165.100323 
L 177.885 165.629428 
L 179.9775 166.37778 
L 182.7675 167.649162 
L 186.9525 169.900359 
L 191.835 172.49894 
L 194.625 173.70739 
L 196.7175 174.393581 
L 198.81 174.851174 
L 200.9025 175.070604 
L 202.995 175.026839 
L 205.0875 174.749752 
L 207.18 174.225867 
L 209.2725 173.481952 
L 212.0625 172.214887 
L 216.2475 170.006762 
L 221.13 167.447505 
L 223.92 166.217184 
L 226.0125 165.509426 
L 228.105 165.036304 
L 230.1975 164.821994 
L 232.29 164.882036 
L 234.3825 165.236409 
L 236.475 165.857828 
L 238.5675 166.714619 
L 241.3575 168.13528 
L 244.845 170.232625 
L 251.1225 174.14572 
L 253.215 175.246155 
L 255.3075 176.134499 
L 257.4 176.779307 
L 259.4925 177.161475 
L 261.585 177.256833 
L 263.6775 177.037407 
L 265.77 176.509794 
L 267.8625 175.719416 
L 269.955 174.720478 
L 272.745 173.077554 
L 276.93 170.265255 
L 281.115 167.506789 
L 283.905 165.931737 
L 285.9975 164.98539 
L 288.09 164.268178 
L 290.1825 163.816619 
L 292.275 163.644531 
L 294.3675 163.751557 
L 296.46 164.132175 
L 298.5525 164.762321 
L 301.3425 165.906762 
L 304.83 167.6222 
L 309.7125 170.066663 
L 311.805 170.899327 
L 313.8975 171.492419 
L 315.99 171.857219 
L 318.0825 171.998212 
L 320.175 171.866556 
L 322.2675 171.459719 
L 324.36 170.798467 
L 326.4525 169.884256 
L 329.2425 168.345063 
L 332.73 166.15538 
L 336.915 163.489845 
L 339.0075 162.355378 
L 341.1 161.427135 
L 343.1925 160.738626 
L 345.285 160.301958 
L 347.3775 160.14406 
L 349.47 160.286819 
L 351.5625 160.686047 
L 353.655 161.316781 
L 356.445 162.433954 
L 359.9325 164.147259 
L 369 168.964392 
L 371.79 170.013656 
L 373.8825 170.532844 
L 375.975 170.794188 
L 378.0675 170.798072 
L 380.16 170.521171 
L 382.2525 169.991584 
L 384.345 169.250271 
L 387.8325 167.744137 
L 394.8075 164.659164 
L 397.5975 163.672984 
L 399.69 163.172917 
L 401.7825 162.874428 
L 403.875 162.802001 
L 405.9675 162.996178 
L 408.06 163.428575 
L 410.1525 164.104866 
L 412.245 165.022772 
L 414.3375 166.153926 
L 417.1275 167.919204 
L 425.4975 173.391168 
L 427.59 174.488715 
L 429.6825 175.352802 
L 431.775 175.943889 
L 433.8675 176.24108 
L 435.96 176.256933 
L 438.0525 176.004428 
L 440.145 175.510367 
L 442.935 174.576445 
L 445.725 173.350296 
L 451.305 170.591175 
L 454.7925 169.011644 
L 457.5825 167.976013 
L 460.3725 167.199147 
L 462.465 166.798224 
L 464.5575 166.676758 
L 466.65 166.799686 
L 468.7425 167.197514 
L 470.835 167.80379 
L 472.9275 168.587665 
L 477.1125 170.416681 
L 488.97 175.969674 
L 491.0625 176.660724 
L 493.155 177.141476 
L 495.2475 177.382852 
L 497.34 177.4462 
L 499.4325 177.291495 
L 501.525 176.907944 
L 503.6175 176.292127 
L 506.4075 175.181115 
L 509.1975 173.782781 
L 512.685 171.8071 
L 518.265 168.468707 
L 521.7525 166.730483 
L 524.5425 165.615103 
L 526.635 165.055441 
L 528.7275 164.744437 
L 530.82 164.734848 
L 532.9125 165.036501 
L 535.005 165.569345 
L 537.795 166.573017 
L 546.165 169.946892 
L 548.955 170.595127 
L 551.0475 170.807229 
L 553.14 170.779875 
L 555.2325 170.509559 
L 557.325 169.968638 
L 559.4175 169.166426 
L 562.2075 167.816786 
L 564.9975 166.169154 
L 568.485 163.87748 
L 574.065 160.124025 
L 576.855 158.636741 
L 578.25 158.087481 
L 580.3425 157.542302 
L 581.7375 157.376711 
L 583.1325 157.403974 
L 584.5275 157.655907 
L 586.62 158.391956 
L 588.015 159.07577 
L 590.1075 160.463133 
L 592.2 162.190492 
L 594.99 164.854017 
L 598.4775 168.632775 
L 603.36 174.057659 
L 606.15 176.889622 
L 608.94 179.39927 
L 611.0325 180.992117 
L 613.125 182.301194 
L 614.52 182.952216 
L 615.915 183.431664 
L 617.31 183.705522 
L 618.705 183.767556 
L 620.1 183.639454 
L 621.495 183.347261 
L 623.5875 182.593989 
L 625.68 181.572323 
L 628.47 179.846659 
L 631.9575 177.388322 
L 638.235 172.96626 
L 640.3275 171.778752 
L 642.42 170.86166 
L 644.5125 170.215699 
L 645.9075 169.961772 
L 646.605 169.92 
L 646.605 169.92 
" style="fill:none;stroke:#008080;stroke-linecap:round;stroke-width:1.75;"/>
   </g>
   <g id="patch_3">
    <path d="M 90 270.72 
L 90 69.12 
" style="fill:none;stroke:#262626;stroke-linecap:square;stroke-linejoin:miter;stroke-width:1.25;"/>
   </g>
   <g id="patch_4">
    <path d="M 90 270.72 
L 648 270.72 
" style="fill:none;stroke:#262626;stroke-linecap:square;stroke-linejoin:miter;stroke-width:1.25;"/>
   </g>
  </g>
  <g id="axes_2">
   <g id="patch_5">
    <path d="M 90 512.64 
L 648 512.64 
L 648 311.04 
L 90 311.04 
z
" style="fill:#ffffff;"/>
   </g>
   <g id="matplotlib.axis_3">
    <g id="xtick_10">
     <g id="line2d_16">
      <g>
       <use style="fill:#262626;stroke:#262626;" x="191.454545" xlink:href="#mb211db9fc1" y="512.64"/>
      </g>
     </g>
     <g id="text_15">
      <!-- 200 -->
      <g style="fill:#262626;" transform="translate(183.113139 532.797812)scale(0.1 -0.1)">
       <use xlink:href="#ArialMT-32"/>
       <use x="55.615234" xlink:href="#ArialMT-30"/>
       <use x="111.230469" xlink:href="#ArialMT-30"/>
      </g>
     </g>
    </g>
    <g id="xtick_11">
     <g id="line2d_17">
      <g>
       <use style="fill:#262626;stroke:#262626;" x="304.181818" xlink:href="#mb211db9fc1" y="512.64"/>
      </g>
     </g>
     <g id="text_16">
      <!-- 400 -->
      <g style="fill:#262626;" transform="translate(295.840412 532.797812)scale(0.1 -0.1)">
       <use xlink:href="#ArialMT-34"/>
       <use x="55.615234" xlink:href="#ArialMT-30"/>
       <use x="111.230469" xlink:href="#ArialMT-30"/>
      </g>
     </g>
    </g>
    <g id="xtick_12">
     <g id="line2d_18">
      <g>
       <use style="fill:#262626;stroke:#262626;" x="416.909091" xlink:href="#mb211db9fc1" y="512.64"/>
      </g>
     </g>
     <g id="text_17">
      <!-- 600 -->
      <g style="fill:#262626;" transform="translate(408.567685 532.797812)scale(0.1 -0.1)">
       <use xlink:href="#ArialMT-36"/>
       <use x="55.615234" xlink:href="#ArialMT-30"/>
       <use x="111.230469" xlink:href="#ArialMT-30"/>
      </g>
     </g>
    </g>
    <g id="xtick_13">
     <g id="line2d_19">
      <g>
       <use style="fill:#262626;stroke:#262626;" x="529.636364" xlink:href="#mb211db9fc1" y="512.64"/>
      </g>
     </g>
     <g id="text_18">
      <!-- 800 -->
      <g style="fill:#262626;" transform="translate(521.294957 532.797812)scale(0.1 -0.1)">
       <use xlink:href="#ArialMT-38"/>
       <use x="55.615234" xlink:href="#ArialMT-30"/>
       <use x="111.230469" xlink:href="#ArialMT-30"/>
      </g>
     </g>
    </g>
    <g id="xtick_14">
     <g id="line2d_20">
      <g>
       <use style="fill:#262626;stroke:#262626;" x="642.363636" xlink:href="#mb211db9fc1" y="512.64"/>
      </g>
     </g>
     <g id="text_19">
      <!-- 1000 -->
      <g style="fill:#262626;" transform="translate(631.241761 532.797812)scale(0.1 -0.1)">
       <use xlink:href="#ArialMT-31"/>
       <use x="55.615234" xlink:href="#ArialMT-30"/>
       <use x="111.230469" xlink:href="#ArialMT-30"/>
       <use x="166.845703" xlink:href="#ArialMT-30"/>
      </g>
     </g>
    </g>
   </g>
   <g id="matplotlib.axis_4">
    <g id="ytick_6">
     <g id="line2d_21">
      <g>
       <use style="fill:#262626;stroke:#262626;" x="90" xlink:href="#m1beea3c7cf" y="512.64"/>
      </g>
     </g>
     <g id="text_20">
      <!-- 0 -->
      <g style="fill:#262626;" transform="translate(71.439063 516.218906)scale(0.1 -0.1)">
       <use xlink:href="#ArialMT-30"/>
      </g>
     </g>
    </g>
    <g id="ytick_7">
     <g id="line2d_22">
      <g>
       <use style="fill:#262626;stroke:#262626;" x="90" xlink:href="#m1beea3c7cf" y="490.24"/>
      </g>
     </g>
     <g id="text_21">
      <!-- 2 -->
      <g style="fill:#262626;" transform="translate(71.439063 493.818906)scale(0.1 -0.1)">
       <use xlink:href="#ArialMT-32"/>
      </g>
     </g>
    </g>
    <g id="ytick_8">
     <g id="line2d_23">
      <g>
       <use style="fill:#262626;stroke:#262626;" x="90" xlink:href="#m1beea3c7cf" y="467.84"/>
      </g>
     </g>
     <g id="text_22">
      <!-- 4 -->
      <g style="fill:#262626;" transform="translate(71.439063 471.418906)scale(0.1 -0.1)">
       <use xlink:href="#ArialMT-34"/>
      </g>
     </g>
    </g>
    <g id="ytick_9">
     <g id="line2d_24">
      <g>
       <use style="fill:#262626;stroke:#262626;" x="90" xlink:href="#m1beea3c7cf" y="445.44"/>
      </g>
     </g>
     <g id="text_23">
      <!-- 6 -->
      <g style="fill:#262626;" transform="translate(71.439063 449.018906)scale(0.1 -0.1)">
       <use xlink:href="#ArialMT-36"/>
      </g>
     </g>
    </g>
    <g id="ytick_10">
     <g id="line2d_25">
      <g>
       <use style="fill:#262626;stroke:#262626;" x="90" xlink:href="#m1beea3c7cf" y="423.04"/>
      </g>
     </g>
     <g id="text_24">
      <!-- 8 -->
      <g style="fill:#262626;" transform="translate(71.439063 426.618906)scale(0.1 -0.1)">
       <use xlink:href="#ArialMT-38"/>
      </g>
     </g>
    </g>
    <g id="ytick_11">
     <g id="line2d_26">
      <g>
       <use style="fill:#262626;stroke:#262626;" x="90" xlink:href="#m1beea3c7cf" y="400.64"/>
      </g>
     </g>
     <g id="text_25">
      <!-- 10 -->
      <g style="fill:#262626;" transform="translate(65.878125 404.218906)scale(0.1 -0.1)">
       <use xlink:href="#ArialMT-31"/>
       <use x="55.615234" xlink:href="#ArialMT-30"/>
      </g>
     </g>
    </g>
    <g id="ytick_12">
     <g id="line2d_27">
      <g>
       <use style="fill:#262626;stroke:#262626;" x="90" xlink:href="#m1beea3c7cf" y="378.24"/>
      </g>
     </g>
     <g id="text_26">
      <!-- 12 -->
      <g style="fill:#262626;" transform="translate(65.878125 381.818906)scale(0.1 -0.1)">
       <use xlink:href="#ArialMT-31"/>
       <use x="55.615234" xlink:href="#ArialMT-32"/>
      </g>
     </g>
    </g>
    <g id="ytick_13">
     <g id="line2d_28">
      <g>
       <use style="fill:#262626;stroke:#262626;" x="90" xlink:href="#m1beea3c7cf" y="355.84"/>
      </g>
     </g>
     <g id="text_27">
      <!-- 14 -->
      <g style="fill:#262626;" transform="translate(65.878125 359.418906)scale(0.1 -0.1)">
       <use xlink:href="#ArialMT-31"/>
       <use x="55.615234" xlink:href="#ArialMT-34"/>
      </g>
     </g>
    </g>
    <g id="ytick_14">
     <g id="line2d_29">
      <g>
       <use style="fill:#262626;stroke:#262626;" x="90" xlink:href="#m1beea3c7cf" y="333.44"/>
      </g>
     </g>
     <g id="text_28">
      <!-- 16 -->
      <g style="fill:#262626;" transform="translate(65.878125 337.018906)scale(0.1 -0.1)">
       <use xlink:href="#ArialMT-31"/>
       <use x="55.615234" xlink:href="#ArialMT-36"/>
      </g>
     </g>
    </g>
    <g id="ytick_15">
     <g id="line2d_30">
      <g>
       <use style="fill:#262626;stroke:#262626;" x="90" xlink:href="#m1beea3c7cf" y="311.04"/>
      </g>
     </g>
     <g id="text_29">
      <!-- 18 -->
      <g style="fill:#262626;" transform="translate(65.878125 314.618906)scale(0.1 -0.1)">
       <use xlink:href="#ArialMT-31"/>
       <use x="55.615234" xlink:href="#ArialMT-38"/>
      </g>
     </g>
    </g>
   </g>
   <g id="line2d_31">
    <path clip-path="url(#p8108aba946)" d="M 90 477.654723 
L 95.636364 452.736402 
L 101.272727 431.923589 
L 106.909091 427.92302 
L 112.545455 440.45326 
L 118.181818 444.705349 
L 123.818182 448.961059 
L 129.454545 457.370701 
L 135.090909 456.375715 
L 140.727273 434.868159 
L 146.363636 408.816951 
L 152 389.988216 
L 157.636364 371.492183 
L 163.272727 352.310178 
L 168.909091 342.280664 
L 174.545455 348.647566 
L 180.181818 355.802406 
L 185.818182 363.350788 
L 191.454545 378.270766 
L 197.090909 391.147889 
L 202.727273 394.129256 
L 208.363636 396.550705 
L 214 393.395457 
L 219.636364 389.651786 
L 225.272727 392.702199 
L 230.909091 396.085016 
L 236.545455 399.690878 
L 242.181818 407.737617 
L 247.818182 414.331388 
L 253.454545 417.809913 
L 259.090909 422.903097 
L 264.727273 426.347751 
L 270.363636 429.764905 
L 276 436.797845 
L 281.636364 444.59905 
L 287.272727 452.348689 
L 292.909091 461.235722 
L 298.545455 467.982454 
L 304.181818 471.144774 
L 309.818182 472.257688 
L 315.454545 471.707893 
L 321.090909 472.117482 
L 326.727273 473.818281 
L 332.363636 475.619312 
L 338 478.193498 
L 343.636364 480.655986 
L 349.272727 482.144164 
L 354.909091 483.974362 
L 360.545455 485.825198 
L 366.181818 487.914885 
L 371.818182 490.804554 
L 377.454545 493.872728 
" style="fill:none;stroke:#b22222;stroke-linecap:round;stroke-width:1.75;"/>
   </g>
   <g id="line2d_32">
    <path clip-path="url(#p8108aba946)" d="M 152 512.64 
L 152 311.04 
" style="fill:none;stroke:#4c72b0;stroke-linecap:round;stroke-width:1.75;"/>
   </g>
   <g id="patch_6">
    <path d="M 90 512.64 
L 90 311.04 
" style="fill:none;stroke:#262626;stroke-linecap:square;stroke-linejoin:miter;stroke-width:1.25;"/>
   </g>
   <g id="patch_7">
    <path d="M 90 512.64 
L 648 512.64 
" style="fill:none;stroke:#262626;stroke-linecap:square;stroke-linejoin:miter;stroke-width:1.25;"/>
   </g>
   <g id="text_30">
    <!-- f = 530 Hz -->
    <defs>
     <path d="M 8.6875 0 
L 8.6875 45.015625 
L 0.921875 45.015625 
L 0.921875 51.859375 
L 8.6875 51.859375 
L 8.6875 57.375 
Q 8.6875 62.59375 9.625 65.140625 
Q 10.890625 68.5625 14.078125 70.671875 
Q 17.28125 72.796875 23.046875 72.796875 
Q 26.765625 72.796875 31.25 71.921875 
L 29.9375 64.265625 
Q 27.203125 64.75 24.75 64.75 
Q 20.75 64.75 19.09375 63.03125 
Q 17.4375 61.328125 17.4375 56.640625 
L 17.4375 51.859375 
L 27.546875 51.859375 
L 27.546875 45.015625 
L 17.4375 45.015625 
L 17.4375 0 
z
" id="ArialMT-66"/>
     <path id="ArialMT-20"/>
     <path d="M 52.828125 42.09375 
L 5.5625 42.09375 
L 5.5625 50.296875 
L 52.828125 50.296875 
z
M 52.828125 20.359375 
L 5.5625 20.359375 
L 5.5625 28.5625 
L 52.828125 28.5625 
z
" id="ArialMT-3d"/>
     <path d="M 8.015625 0 
L 8.015625 71.578125 
L 17.484375 71.578125 
L 17.484375 42.1875 
L 54.6875 42.1875 
L 54.6875 71.578125 
L 64.15625 71.578125 
L 64.15625 0 
L 54.6875 0 
L 54.6875 33.734375 
L 17.484375 33.734375 
L 17.484375 0 
z
" id="ArialMT-48"/>
     <path d="M 1.953125 0 
L 1.953125 7.125 
L 34.96875 45.015625 
Q 29.34375 44.734375 25.046875 44.734375 
L 3.90625 44.734375 
L 3.90625 51.859375 
L 46.296875 51.859375 
L 46.296875 46.046875 
L 18.21875 13.140625 
L 12.796875 7.125 
Q 18.703125 7.5625 23.875 7.5625 
L 47.859375 7.5625 
L 47.859375 0 
z
" id="ArialMT-7a"/>
    </defs>
    <g style="fill:#262626;" transform="translate(529.636364 403.742188)scale(0.12 -0.12)">
     <use xlink:href="#ArialMT-66"/>
     <use x="27.783203" xlink:href="#ArialMT-20"/>
     <use x="55.566406" xlink:href="#ArialMT-3d"/>
     <use x="113.964844" xlink:href="#ArialMT-20"/>
     <use x="141.748047" xlink:href="#ArialMT-35"/>
     <use x="197.363281" xlink:href="#ArialMT-33"/>
     <use x="252.978516" xlink:href="#ArialMT-30"/>
     <use x="308.59375" xlink:href="#ArialMT-20"/>
     <use x="336.376953" xlink:href="#ArialMT-48"/>
     <use x="408.59375" xlink:href="#ArialMT-7a"/>
    </g>
   </g>
   <g id="PathCollection_1">
    <defs>
     <path d="M 0 3.5 
C 0.928211 3.5 1.81853 3.131218 2.474874 2.474874 
C 3.131218 1.81853 3.5 0.928211 3.5 0 
C 3.5 -0.928211 3.131218 -1.81853 2.474874 -2.474874 
C 1.81853 -3.131218 0.928211 -3.5 0 -3.5 
C -0.928211 -3.5 -1.81853 -3.131218 -2.474874 -2.474874 
C -3.131218 -1.81853 -3.5 -0.928211 -3.5 0 
C -3.5 0.928211 -3.131218 1.81853 -2.474874 2.474874 
C -1.81853 3.131218 -0.928211 3.5 0 3.5 
z
" id="mddb7692b8c" style="stroke:#800000;stroke-width:0.3;"/>
    </defs>
    <g clip-path="url(#p8108aba946)">
     <use style="fill:#800000;stroke:#800000;stroke-width:0.3;" x="377.454545" xlink:href="#mddb7692b8c" y="493.872728"/>
    </g>
   </g>
  </g>
 </g>
 <defs>
  <clipPath id="p52ed3d9439">
   <rect height="201.6" width="558" x="90" y="69.12"/>
  </clipPath>
  <clipPath id="p8108aba946">
   <rect height="201.6" width="558" x="90" y="311.04"/>
  </clipPath>
 </defs>
</svg>
