<?xml version="1.0" encoding="utf-8" standalone="no"?>
<!DOCTYPE svg PUBLIC "-//W3C//DTD SVG 1.1//EN"
  "http://www.w3.org/Graphics/SVG/1.1/DTD/svg11.dtd">
<!-- Created with matplotlib (http://matplotlib.org/) -->
<svg height="576pt" version="1.1" viewBox="0 0 720 576" width="720pt" xmlns="http://www.w3.org/2000/svg" xmlns:xlink="http://www.w3.org/1999/xlink">
 <defs>
  <style type="text/css">
*{stroke-linecap:butt;stroke-linejoin:round;}
  </style>
 </defs>
 <g id="figure_1">
  <g id="patch_1">
   <path d="M 0 576 
L 720 576 
L 720 0 
L 0 0 
z
" style="fill:#ffffff;"/>
  </g>
  <g id="axes_1">
   <g id="patch_2">
    <path d="M 90 270.72 
L 648 270.72 
L 648 69.12 
L 90 69.12 
z
" style="fill:#ffffff;"/>
   </g>
   <g id="matplotlib.axis_1">
    <g id="xtick_1">
     <g id="line2d_1">
      <defs>
       <path d="M 0 0 
L 0 6 
" id="m4151020bf9" style="stroke:#262626;"/>
      </defs>
      <g>
       <use style="fill:#262626;stroke:#262626;" x="90" xlink:href="#m4151020bf9" y="270.72"/>
      </g>
     </g>
     <g id="text_1">
      <!-- 0 -->
      <defs>
       <path d="M 4.15625 35.296875 
Q 4.15625 48 6.765625 55.734375 
Q 9.375 63.484375 14.515625 67.671875 
Q 19.671875 71.875 27.484375 71.875 
Q 33.25 71.875 37.59375 69.546875 
Q 41.9375 67.234375 44.765625 62.859375 
Q 47.609375 58.5 49.21875 52.21875 
Q 50.828125 45.953125 50.828125 35.296875 
Q 50.828125 22.703125 48.234375 14.96875 
Q 45.65625 7.234375 40.5 3 
Q 35.359375 -1.21875 27.484375 -1.21875 
Q 17.140625 -1.21875 11.234375 6.203125 
Q 4.15625 15.140625 4.15625 35.296875 
z
M 13.1875 35.296875 
Q 13.1875 17.671875 17.3125 11.828125 
Q 21.4375 6 27.484375 6 
Q 33.546875 6 37.671875 11.859375 
Q 41.796875 17.71875 41.796875 35.296875 
Q 41.796875 52.984375 37.671875 58.78125 
Q 33.546875 64.59375 27.390625 64.59375 
Q 21.34375 64.59375 17.71875 59.46875 
Q 13.1875 52.9375 13.1875 35.296875 
z
" id="ArialMT-30"/>
      </defs>
      <g style="fill:#262626;" transform="translate(87.219531 290.877812)scale(0.1 -0.1)">
       <use xlink:href="#ArialMT-30"/>
      </g>
     </g>
    </g>
    <g id="xtick_2">
     <g id="line2d_2">
      <g>
       <use style="fill:#262626;stroke:#262626;" x="159.75" xlink:href="#m4151020bf9" y="270.72"/>
      </g>
     </g>
     <g id="text_2">
      <!-- 100 -->
      <defs>
       <path d="M 37.25 0 
L 28.46875 0 
L 28.46875 56 
Q 25.296875 52.984375 20.140625 49.953125 
Q 14.984375 46.921875 10.890625 45.40625 
L 10.890625 53.90625 
Q 18.265625 57.375 23.78125 62.296875 
Q 29.296875 67.234375 31.59375 71.875 
L 37.25 71.875 
z
" id="ArialMT-31"/>
      </defs>
      <g style="fill:#262626;" transform="translate(151.408594 290.877812)scale(0.1 -0.1)">
       <use xlink:href="#ArialMT-31"/>
       <use x="55.615234" xlink:href="#ArialMT-30"/>
       <use x="111.230469" xlink:href="#ArialMT-30"/>
      </g>
     </g>
    </g>
    <g id="xtick_3">
     <g id="line2d_3">
      <g>
       <use style="fill:#262626;stroke:#262626;" x="229.5" xlink:href="#m4151020bf9" y="270.72"/>
      </g>
     </g>
     <g id="text_3">
      <!-- 200 -->
      <defs>
       <path d="M 50.34375 8.453125 
L 50.34375 0 
L 3.03125 0 
Q 2.9375 3.171875 4.046875 6.109375 
Q 5.859375 10.9375 9.828125 15.625 
Q 13.8125 20.3125 21.34375 26.46875 
Q 33.015625 36.03125 37.109375 41.625 
Q 41.21875 47.21875 41.21875 52.203125 
Q 41.21875 57.421875 37.46875 61 
Q 33.734375 64.59375 27.734375 64.59375 
Q 21.390625 64.59375 17.578125 60.78125 
Q 13.765625 56.984375 13.71875 50.25 
L 4.6875 51.171875 
Q 5.609375 61.28125 11.65625 66.578125 
Q 17.71875 71.875 27.9375 71.875 
Q 38.234375 71.875 44.234375 66.15625 
Q 50.25 60.453125 50.25 52 
Q 50.25 47.703125 48.484375 43.546875 
Q 46.734375 39.40625 42.65625 34.8125 
Q 38.578125 30.21875 29.109375 22.21875 
Q 21.1875 15.578125 18.9375 13.203125 
Q 16.703125 10.84375 15.234375 8.453125 
z
" id="ArialMT-32"/>
      </defs>
      <g style="fill:#262626;" transform="translate(221.158594 290.877812)scale(0.1 -0.1)">
       <use xlink:href="#ArialMT-32"/>
       <use x="55.615234" xlink:href="#ArialMT-30"/>
       <use x="111.230469" xlink:href="#ArialMT-30"/>
      </g>
     </g>
    </g>
    <g id="xtick_4">
     <g id="line2d_4">
      <g>
       <use style="fill:#262626;stroke:#262626;" x="299.25" xlink:href="#m4151020bf9" y="270.72"/>
      </g>
     </g>
     <g id="text_4">
      <!-- 300 -->
      <defs>
       <path d="M 4.203125 18.890625 
L 12.984375 20.0625 
Q 14.5 12.59375 18.140625 9.296875 
Q 21.78125 6 27 6 
Q 33.203125 6 37.46875 10.296875 
Q 41.75 14.59375 41.75 20.953125 
Q 41.75 27 37.796875 30.921875 
Q 33.84375 34.859375 27.734375 34.859375 
Q 25.25 34.859375 21.53125 33.890625 
L 22.515625 41.609375 
Q 23.390625 41.5 23.921875 41.5 
Q 29.546875 41.5 34.03125 44.421875 
Q 38.53125 47.359375 38.53125 53.46875 
Q 38.53125 58.296875 35.25 61.46875 
Q 31.984375 64.65625 26.8125 64.65625 
Q 21.6875 64.65625 18.265625 61.421875 
Q 14.84375 58.203125 13.875 51.765625 
L 5.078125 53.328125 
Q 6.6875 62.15625 12.390625 67.015625 
Q 18.109375 71.875 26.609375 71.875 
Q 32.46875 71.875 37.390625 69.359375 
Q 42.328125 66.84375 44.9375 62.5 
Q 47.5625 58.15625 47.5625 53.265625 
Q 47.5625 48.640625 45.0625 44.828125 
Q 42.578125 41.015625 37.703125 38.765625 
Q 44.046875 37.3125 47.5625 32.6875 
Q 51.078125 28.078125 51.078125 21.140625 
Q 51.078125 11.765625 44.234375 5.25 
Q 37.40625 -1.265625 26.953125 -1.265625 
Q 17.53125 -1.265625 11.296875 4.34375 
Q 5.078125 9.96875 4.203125 18.890625 
z
" id="ArialMT-33"/>
      </defs>
      <g style="fill:#262626;" transform="translate(290.908594 290.877812)scale(0.1 -0.1)">
       <use xlink:href="#ArialMT-33"/>
       <use x="55.615234" xlink:href="#ArialMT-30"/>
       <use x="111.230469" xlink:href="#ArialMT-30"/>
      </g>
     </g>
    </g>
    <g id="xtick_5">
     <g id="line2d_5">
      <g>
       <use style="fill:#262626;stroke:#262626;" x="369" xlink:href="#m4151020bf9" y="270.72"/>
      </g>
     </g>
     <g id="text_5">
      <!-- 400 -->
      <defs>
       <path d="M 32.328125 0 
L 32.328125 17.140625 
L 1.265625 17.140625 
L 1.265625 25.203125 
L 33.9375 71.578125 
L 41.109375 71.578125 
L 41.109375 25.203125 
L 50.78125 25.203125 
L 50.78125 17.140625 
L 41.109375 17.140625 
L 41.109375 0 
z
M 32.328125 25.203125 
L 32.328125 57.46875 
L 9.90625 25.203125 
z
" id="ArialMT-34"/>
      </defs>
      <g style="fill:#262626;" transform="translate(360.658594 290.877812)scale(0.1 -0.1)">
       <use xlink:href="#ArialMT-34"/>
       <use x="55.615234" xlink:href="#ArialMT-30"/>
       <use x="111.230469" xlink:href="#ArialMT-30"/>
      </g>
     </g>
    </g>
    <g id="xtick_6">
     <g id="line2d_6">
      <g>
       <use style="fill:#262626;stroke:#262626;" x="438.75" xlink:href="#m4151020bf9" y="270.72"/>
      </g>
     </g>
     <g id="text_6">
      <!-- 500 -->
      <defs>
       <path d="M 4.15625 18.75 
L 13.375 19.53125 
Q 14.40625 12.796875 18.140625 9.390625 
Q 21.875 6 27.15625 6 
Q 33.5 6 37.890625 10.78125 
Q 42.28125 15.578125 42.28125 23.484375 
Q 42.28125 31 38.0625 35.34375 
Q 33.84375 39.703125 27 39.703125 
Q 22.75 39.703125 19.328125 37.765625 
Q 15.921875 35.84375 13.96875 32.765625 
L 5.71875 33.84375 
L 12.640625 70.609375 
L 48.25 70.609375 
L 48.25 62.203125 
L 19.671875 62.203125 
L 15.828125 42.96875 
Q 22.265625 47.46875 29.34375 47.46875 
Q 38.71875 47.46875 45.15625 40.96875 
Q 51.609375 34.46875 51.609375 24.265625 
Q 51.609375 14.546875 45.953125 7.46875 
Q 39.0625 -1.21875 27.15625 -1.21875 
Q 17.390625 -1.21875 11.203125 4.25 
Q 5.03125 9.71875 4.15625 18.75 
z
" id="ArialMT-35"/>
      </defs>
      <g style="fill:#262626;" transform="translate(430.408594 290.877812)scale(0.1 -0.1)">
       <use xlink:href="#ArialMT-35"/>
       <use x="55.615234" xlink:href="#ArialMT-30"/>
       <use x="111.230469" xlink:href="#ArialMT-30"/>
      </g>
     </g>
    </g>
    <g id="xtick_7">
     <g id="line2d_7">
      <g>
       <use style="fill:#262626;stroke:#262626;" x="508.5" xlink:href="#m4151020bf9" y="270.72"/>
      </g>
     </g>
     <g id="text_7">
      <!-- 600 -->
      <defs>
       <path d="M 49.75 54.046875 
L 41.015625 53.375 
Q 39.84375 58.546875 37.703125 60.890625 
Q 34.125 64.65625 28.90625 64.65625 
Q 24.703125 64.65625 21.53125 62.3125 
Q 17.390625 59.28125 14.984375 53.46875 
Q 12.59375 47.65625 12.5 36.921875 
Q 15.671875 41.75 20.265625 44.09375 
Q 24.859375 46.4375 29.890625 46.4375 
Q 38.671875 46.4375 44.84375 39.96875 
Q 51.03125 33.5 51.03125 23.25 
Q 51.03125 16.5 48.125 10.71875 
Q 45.21875 4.9375 40.140625 1.859375 
Q 35.0625 -1.21875 28.609375 -1.21875 
Q 17.625 -1.21875 10.6875 6.859375 
Q 3.765625 14.9375 3.765625 33.5 
Q 3.765625 54.25 11.421875 63.671875 
Q 18.109375 71.875 29.4375 71.875 
Q 37.890625 71.875 43.28125 67.140625 
Q 48.6875 62.40625 49.75 54.046875 
z
M 13.875 23.1875 
Q 13.875 18.65625 15.796875 14.5 
Q 17.71875 10.359375 21.1875 8.171875 
Q 24.65625 6 28.46875 6 
Q 34.03125 6 38.03125 10.484375 
Q 42.046875 14.984375 42.046875 22.703125 
Q 42.046875 30.125 38.078125 34.390625 
Q 34.125 38.671875 28.125 38.671875 
Q 22.171875 38.671875 18.015625 34.390625 
Q 13.875 30.125 13.875 23.1875 
z
" id="ArialMT-36"/>
      </defs>
      <g style="fill:#262626;" transform="translate(500.158594 290.877812)scale(0.1 -0.1)">
       <use xlink:href="#ArialMT-36"/>
       <use x="55.615234" xlink:href="#ArialMT-30"/>
       <use x="111.230469" xlink:href="#ArialMT-30"/>
      </g>
     </g>
    </g>
    <g id="xtick_8">
     <g id="line2d_8">
      <g>
       <use style="fill:#262626;stroke:#262626;" x="578.25" xlink:href="#m4151020bf9" y="270.72"/>
      </g>
     </g>
     <g id="text_8">
      <!-- 700 -->
      <defs>
       <path d="M 4.734375 62.203125 
L 4.734375 70.65625 
L 51.078125 70.65625 
L 51.078125 63.8125 
Q 44.234375 56.546875 37.515625 44.484375 
Q 30.8125 32.421875 27.15625 19.671875 
Q 24.515625 10.6875 23.78125 0 
L 14.75 0 
Q 14.890625 8.453125 18.0625 20.40625 
Q 21.234375 32.375 27.171875 43.484375 
Q 33.109375 54.59375 39.796875 62.203125 
z
" id="ArialMT-37"/>
      </defs>
      <g style="fill:#262626;" transform="translate(569.908594 290.877812)scale(0.1 -0.1)">
       <use xlink:href="#ArialMT-37"/>
       <use x="55.615234" xlink:href="#ArialMT-30"/>
       <use x="111.230469" xlink:href="#ArialMT-30"/>
      </g>
     </g>
    </g>
    <g id="xtick_9">
     <g id="line2d_9">
      <g>
       <use style="fill:#262626;stroke:#262626;" x="648" xlink:href="#m4151020bf9" y="270.72"/>
      </g>
     </g>
     <g id="text_9">
      <!-- 800 -->
      <defs>
       <path d="M 17.671875 38.8125 
Q 12.203125 40.828125 9.5625 44.53125 
Q 6.9375 48.25 6.9375 53.421875 
Q 6.9375 61.234375 12.546875 66.546875 
Q 18.171875 71.875 27.484375 71.875 
Q 36.859375 71.875 42.578125 66.421875 
Q 48.296875 60.984375 48.296875 53.171875 
Q 48.296875 48.1875 45.671875 44.5 
Q 43.0625 40.828125 37.75 38.8125 
Q 44.34375 36.671875 47.78125 31.875 
Q 51.21875 27.09375 51.21875 20.453125 
Q 51.21875 11.28125 44.71875 5.03125 
Q 38.234375 -1.21875 27.640625 -1.21875 
Q 17.046875 -1.21875 10.546875 5.046875 
Q 4.046875 11.328125 4.046875 20.703125 
Q 4.046875 27.6875 7.59375 32.390625 
Q 11.140625 37.109375 17.671875 38.8125 
z
M 15.921875 53.71875 
Q 15.921875 48.640625 19.1875 45.40625 
Q 22.46875 42.1875 27.6875 42.1875 
Q 32.765625 42.1875 36.015625 45.375 
Q 39.265625 48.578125 39.265625 53.21875 
Q 39.265625 58.0625 35.90625 61.359375 
Q 32.5625 64.65625 27.59375 64.65625 
Q 22.5625 64.65625 19.234375 61.421875 
Q 15.921875 58.203125 15.921875 53.71875 
z
M 13.09375 20.65625 
Q 13.09375 16.890625 14.875 13.375 
Q 16.65625 9.859375 20.171875 7.921875 
Q 23.6875 6 27.734375 6 
Q 34.03125 6 38.125 10.046875 
Q 42.234375 14.109375 42.234375 20.359375 
Q 42.234375 26.703125 38.015625 30.859375 
Q 33.796875 35.015625 27.4375 35.015625 
Q 21.234375 35.015625 17.15625 30.90625 
Q 13.09375 26.8125 13.09375 20.65625 
z
" id="ArialMT-38"/>
      </defs>
      <g style="fill:#262626;" transform="translate(639.658594 290.877812)scale(0.1 -0.1)">
       <use xlink:href="#ArialMT-38"/>
       <use x="55.615234" xlink:href="#ArialMT-30"/>
       <use x="111.230469" xlink:href="#ArialMT-30"/>
      </g>
     </g>
    </g>
   </g>
   <g id="matplotlib.axis_2">
    <g id="ytick_1">
     <g id="line2d_10">
      <defs>
       <path d="M 0 0 
L -6 0 
" id="m16eaa91c88" style="stroke:#262626;"/>
      </defs>
      <g>
       <use style="fill:#262626;stroke:#262626;" x="90" xlink:href="#m16eaa91c88" y="250.56"/>
      </g>
     </g>
     <g id="text_10">
      <!-- −0.04 -->
      <defs>
       <path d="M 52.828125 31.203125 
L 5.5625 31.203125 
L 5.5625 39.40625 
L 52.828125 39.40625 
z
" id="ArialMT-2212"/>
       <path d="M 9.078125 0 
L 9.078125 10.015625 
L 19.09375 10.015625 
L 19.09375 0 
z
" id="ArialMT-2e"/>
      </defs>
      <g style="fill:#262626;" transform="translate(51.698437 254.138906)scale(0.1 -0.1)">
       <use xlink:href="#ArialMT-2212"/>
       <use x="58.398438" xlink:href="#ArialMT-30"/>
       <use x="114.013672" xlink:href="#ArialMT-2e"/>
       <use x="141.796875" xlink:href="#ArialMT-30"/>
       <use x="197.412109" xlink:href="#ArialMT-34"/>
      </g>
     </g>
    </g>
    <g id="ytick_2">
     <g id="line2d_11">
      <g>
       <use style="fill:#262626;stroke:#262626;" x="90" xlink:href="#m16eaa91c88" y="210.24"/>
      </g>
     </g>
     <g id="text_11">
      <!-- −0.02 -->
      <g style="fill:#262626;" transform="translate(51.698437 213.818906)scale(0.1 -0.1)">
       <use xlink:href="#ArialMT-2212"/>
       <use x="58.398438" xlink:href="#ArialMT-30"/>
       <use x="114.013672" xlink:href="#ArialMT-2e"/>
       <use x="141.796875" xlink:href="#ArialMT-30"/>
       <use x="197.412109" xlink:href="#ArialMT-32"/>
      </g>
     </g>
    </g>
    <g id="ytick_3">
     <g id="line2d_12">
      <g>
       <use style="fill:#262626;stroke:#262626;" x="90" xlink:href="#m16eaa91c88" y="169.92"/>
      </g>
     </g>
     <g id="text_12">
      <!-- 0.00 -->
      <g style="fill:#262626;" transform="translate(57.539062 173.498906)scale(0.1 -0.1)">
       <use xlink:href="#ArialMT-30"/>
       <use x="55.615234" xlink:href="#ArialMT-2e"/>
       <use x="83.398438" xlink:href="#ArialMT-30"/>
       <use x="139.013672" xlink:href="#ArialMT-30"/>
      </g>
     </g>
    </g>
    <g id="ytick_4">
     <g id="line2d_13">
      <g>
       <use style="fill:#262626;stroke:#262626;" x="90" xlink:href="#m16eaa91c88" y="129.6"/>
      </g>
     </g>
     <g id="text_13">
      <!-- 0.02 -->
      <g style="fill:#262626;" transform="translate(57.539062 133.178906)scale(0.1 -0.1)">
       <use xlink:href="#ArialMT-30"/>
       <use x="55.615234" xlink:href="#ArialMT-2e"/>
       <use x="83.398438" xlink:href="#ArialMT-30"/>
       <use x="139.013672" xlink:href="#ArialMT-32"/>
      </g>
     </g>
    </g>
    <g id="ytick_5">
     <g id="line2d_14">
      <g>
       <use style="fill:#262626;stroke:#262626;" x="90" xlink:href="#m16eaa91c88" y="89.28"/>
      </g>
     </g>
     <g id="text_14">
      <!-- 0.04 -->
      <g style="fill:#262626;" transform="translate(57.539062 92.858906)scale(0.1 -0.1)">
       <use xlink:href="#ArialMT-30"/>
       <use x="55.615234" xlink:href="#ArialMT-2e"/>
       <use x="83.398438" xlink:href="#ArialMT-30"/>
       <use x="139.013672" xlink:href="#ArialMT-34"/>
      </g>
     </g>
    </g>
   </g>
   <g id="PolyCollection_1">
    <path clip-path="url(#p67545423fa)" d="M 90 173.360511 
L 90 169.92 
L 90.6975 169.92 
L 91.395 169.92 
L 92.0925 169.92 
L 92.79 169.92 
L 93.4875 169.92 
L 94.185 169.92 
L 94.8825 169.92 
L 95.58 169.92 
L 96.2775 169.92 
L 96.975 169.92 
L 97.6725 169.92 
L 98.37 169.92 
L 99.0675 169.92 
L 99.765 169.92 
L 100.4625 169.92 
L 101.16 169.92 
L 101.8575 169.92 
L 102.555 169.92 
L 103.2525 169.92 
L 103.95 169.92 
L 104.6475 169.92 
L 105.345 169.92 
L 106.0425 169.92 
L 106.74 169.92 
L 107.4375 169.92 
L 108.135 169.92 
L 108.8325 169.92 
L 109.53 169.92 
L 110.2275 169.92 
L 110.925 169.92 
L 111.6225 169.92 
L 112.32 169.92 
L 113.0175 169.92 
L 113.715 169.92 
L 114.4125 169.92 
L 115.11 169.92 
L 115.8075 169.92 
L 116.505 169.92 
L 117.2025 169.92 
L 117.9 169.92 
L 118.5975 169.92 
L 119.295 169.92 
L 119.9925 169.92 
L 120.69 169.92 
L 121.3875 169.92 
L 122.085 169.92 
L 122.7825 169.92 
L 123.48 169.92 
L 124.1775 169.92 
L 124.875 169.92 
L 125.5725 169.92 
L 126.27 169.92 
L 126.9675 169.92 
L 127.665 169.92 
L 128.3625 169.92 
L 129.06 169.92 
L 129.7575 169.92 
L 130.455 169.92 
L 131.1525 169.92 
L 131.85 169.92 
L 132.5475 169.92 
L 133.245 169.92 
L 133.9425 169.92 
L 134.64 169.92 
L 135.3375 169.92 
L 136.035 169.92 
L 136.7325 169.92 
L 137.43 169.92 
L 138.1275 169.92 
L 138.825 169.92 
L 139.5225 169.92 
L 140.22 169.92 
L 140.9175 169.92 
L 141.615 169.92 
L 142.3125 169.92 
L 143.01 169.92 
L 143.7075 169.92 
L 144.405 169.92 
L 145.1025 169.92 
L 145.8 169.92 
L 146.4975 169.92 
L 147.195 169.92 
L 147.8925 169.92 
L 148.59 169.92 
L 149.2875 169.92 
L 149.985 169.92 
L 150.6825 169.92 
L 151.38 169.92 
L 152.0775 169.92 
L 152.775 169.92 
L 153.4725 169.92 
L 154.17 169.92 
L 154.8675 169.92 
L 155.565 169.92 
L 156.2625 169.92 
L 156.96 169.92 
L 157.6575 169.92 
L 158.355 169.92 
L 159.0525 169.92 
L 159.75 169.92 
L 160.4475 169.92 
L 161.145 169.92 
L 161.8425 169.92 
L 162.54 169.92 
L 163.2375 169.92 
L 163.935 169.92 
L 164.6325 169.92 
L 165.33 169.92 
L 166.0275 169.92 
L 166.725 169.92 
L 167.4225 169.92 
L 168.12 169.92 
L 168.8175 169.92 
L 169.515 169.92 
L 170.2125 169.92 
L 170.91 169.92 
L 171.6075 169.92 
L 172.305 169.92 
L 173.0025 169.92 
L 173.7 169.92 
L 174.3975 169.92 
L 175.095 169.92 
L 175.7925 169.92 
L 176.49 169.92 
L 177.1875 169.92 
L 177.885 169.92 
L 178.5825 169.92 
L 179.28 169.92 
L 179.9775 169.92 
L 180.675 169.92 
L 181.3725 169.92 
L 182.07 169.92 
L 182.7675 169.92 
L 183.465 169.92 
L 184.1625 169.92 
L 184.86 169.92 
L 185.5575 169.92 
L 186.255 169.92 
L 186.9525 169.92 
L 187.65 169.92 
L 188.3475 169.92 
L 189.045 169.92 
L 189.7425 169.92 
L 190.44 169.92 
L 191.1375 169.92 
L 191.835 169.92 
L 192.5325 169.92 
L 193.23 169.92 
L 193.9275 169.92 
L 194.625 169.92 
L 195.3225 169.92 
L 196.02 169.92 
L 196.7175 169.92 
L 197.415 169.92 
L 198.1125 169.92 
L 198.81 169.92 
L 199.5075 169.92 
L 200.205 169.92 
L 200.9025 169.92 
L 201.6 169.92 
L 202.2975 169.92 
L 202.995 169.92 
L 203.6925 169.92 
L 204.39 169.92 
L 205.0875 169.92 
L 205.785 169.92 
L 206.4825 169.92 
L 207.18 169.92 
L 207.8775 169.92 
L 208.575 169.92 
L 209.2725 169.92 
L 209.97 169.92 
L 210.6675 169.92 
L 211.365 169.92 
L 212.0625 169.92 
L 212.76 169.92 
L 213.4575 169.92 
L 214.155 169.92 
L 214.8525 169.92 
L 215.55 169.92 
L 216.2475 169.92 
L 216.945 169.92 
L 217.6425 169.92 
L 218.34 169.92 
L 219.0375 169.92 
L 219.735 169.92 
L 220.4325 169.92 
L 221.13 169.92 
L 221.8275 169.92 
L 222.525 169.92 
L 223.2225 169.92 
L 223.92 169.92 
L 224.6175 169.92 
L 225.315 169.92 
L 226.0125 169.92 
L 226.71 169.92 
L 227.4075 169.92 
L 228.105 169.92 
L 228.8025 169.92 
L 229.5 169.92 
L 230.1975 169.92 
L 230.895 169.92 
L 231.5925 169.92 
L 232.29 169.92 
L 232.9875 169.92 
L 233.685 169.92 
L 234.3825 169.92 
L 235.08 169.92 
L 235.7775 169.92 
L 236.475 169.92 
L 237.1725 169.92 
L 237.87 169.92 
L 238.5675 169.92 
L 239.265 169.92 
L 239.9625 169.92 
L 240.66 169.92 
L 241.3575 169.92 
L 242.055 169.92 
L 242.7525 169.92 
L 243.45 169.92 
L 244.1475 169.92 
L 244.845 169.92 
L 245.5425 169.92 
L 246.24 169.92 
L 246.9375 169.92 
L 247.635 169.92 
L 248.3325 169.92 
L 249.03 169.92 
L 249.7275 169.92 
L 250.425 169.92 
L 251.1225 169.92 
L 251.82 169.92 
L 252.5175 169.92 
L 253.215 169.92 
L 253.9125 169.92 
L 254.61 169.92 
L 255.3075 169.92 
L 256.005 169.92 
L 256.7025 169.92 
L 257.4 169.92 
L 258.0975 169.92 
L 258.795 169.92 
L 259.4925 169.92 
L 260.19 169.92 
L 260.8875 169.92 
L 261.585 169.92 
L 262.2825 169.92 
L 262.98 169.92 
L 263.6775 169.92 
L 264.375 169.92 
L 265.0725 169.92 
L 265.77 169.92 
L 266.4675 169.92 
L 267.165 169.92 
L 267.8625 169.92 
L 268.56 169.92 
L 269.2575 169.92 
L 269.955 169.92 
L 270.6525 169.92 
L 271.35 169.92 
L 272.0475 169.92 
L 272.745 169.92 
L 273.4425 169.92 
L 274.14 169.92 
L 274.8375 169.92 
L 275.535 169.92 
L 276.2325 169.92 
L 276.93 169.92 
L 277.6275 169.92 
L 278.325 169.92 
L 279.0225 169.92 
L 279.72 169.92 
L 280.4175 169.92 
L 281.115 169.92 
L 281.8125 169.92 
L 282.51 169.92 
L 283.2075 169.92 
L 283.905 169.92 
L 284.6025 169.92 
L 285.3 169.92 
L 285.9975 169.92 
L 286.695 169.92 
L 287.3925 169.92 
L 288.09 169.92 
L 288.7875 169.92 
L 289.485 169.92 
L 290.1825 169.92 
L 290.88 169.92 
L 291.5775 169.92 
L 292.275 169.92 
L 292.9725 169.92 
L 293.67 169.92 
L 294.3675 169.92 
L 295.065 169.92 
L 295.7625 169.92 
L 296.46 169.92 
L 297.1575 169.92 
L 297.855 169.92 
L 298.5525 169.92 
L 299.25 169.92 
L 299.9475 169.92 
L 300.645 169.92 
L 301.3425 169.92 
L 302.04 169.92 
L 302.7375 169.92 
L 303.435 169.92 
L 304.1325 169.92 
L 304.83 169.92 
L 305.5275 169.92 
L 306.225 169.92 
L 306.9225 169.92 
L 307.62 169.92 
L 308.3175 169.92 
L 309.015 169.92 
L 309.7125 169.92 
L 310.41 169.92 
L 311.1075 169.92 
L 311.805 169.92 
L 312.5025 169.92 
L 313.2 169.92 
L 313.8975 169.92 
L 314.595 169.92 
L 315.2925 169.92 
L 315.99 169.92 
L 316.6875 169.92 
L 317.385 169.92 
L 318.0825 169.92 
L 318.78 169.92 
L 319.4775 169.92 
L 320.175 169.92 
L 320.8725 169.92 
L 321.57 169.92 
L 322.2675 169.92 
L 322.965 169.92 
L 323.6625 169.92 
L 324.36 169.92 
L 325.0575 169.92 
L 325.755 169.92 
L 326.4525 169.92 
L 327.15 169.92 
L 327.8475 169.92 
L 328.545 169.92 
L 329.2425 169.92 
L 329.94 169.92 
L 330.6375 169.92 
L 331.335 169.92 
L 332.0325 169.92 
L 332.73 169.92 
L 333.4275 169.92 
L 334.125 169.92 
L 334.8225 169.92 
L 335.52 169.92 
L 336.2175 169.92 
L 336.915 169.92 
L 337.6125 169.92 
L 338.31 169.92 
L 339.0075 169.92 
L 339.705 169.92 
L 340.4025 169.92 
L 341.1 169.92 
L 341.7975 169.92 
L 342.495 169.92 
L 343.1925 169.92 
L 343.89 169.92 
L 344.5875 169.92 
L 345.285 169.92 
L 345.9825 169.92 
L 346.68 169.92 
L 347.3775 169.92 
L 348.075 169.92 
L 348.7725 169.92 
L 349.47 169.92 
L 350.1675 169.92 
L 350.865 169.92 
L 351.5625 169.92 
L 352.26 169.92 
L 352.9575 169.92 
L 353.655 169.92 
L 354.3525 169.92 
L 355.05 169.92 
L 355.7475 169.92 
L 356.445 169.92 
L 357.1425 169.92 
L 357.84 169.92 
L 358.5375 169.92 
L 359.235 169.92 
L 359.9325 169.92 
L 360.63 169.92 
L 361.3275 169.92 
L 362.025 169.92 
L 362.7225 169.92 
L 363.42 169.92 
L 364.1175 169.92 
L 364.815 169.92 
L 365.5125 169.92 
L 366.21 169.92 
L 366.9075 169.92 
L 367.605 169.92 
L 368.3025 169.92 
L 369 169.92 
L 369.6975 169.92 
L 370.395 169.92 
L 371.0925 169.92 
L 371.79 169.92 
L 372.4875 169.92 
L 373.185 169.92 
L 373.8825 169.92 
L 374.58 169.92 
L 375.2775 169.92 
L 375.975 169.92 
L 376.6725 169.92 
L 377.37 169.92 
L 378.0675 169.92 
L 378.765 169.92 
L 379.4625 169.92 
L 380.16 169.92 
L 380.8575 169.92 
L 381.555 169.92 
L 382.2525 169.92 
L 382.95 169.92 
L 383.6475 169.92 
L 384.345 169.92 
L 385.0425 169.92 
L 385.74 169.92 
L 386.4375 169.92 
L 387.135 169.92 
L 387.8325 169.92 
L 388.53 169.92 
L 389.2275 169.92 
L 389.925 169.92 
L 390.6225 169.92 
L 391.32 169.92 
L 392.0175 169.92 
L 392.715 169.92 
L 393.4125 169.92 
L 394.11 169.92 
L 394.8075 169.92 
L 395.505 169.92 
L 396.2025 169.92 
L 396.9 169.92 
L 397.5975 169.92 
L 398.295 169.92 
L 398.9925 169.92 
L 399.69 169.92 
L 400.3875 169.92 
L 401.085 169.92 
L 401.7825 169.92 
L 402.48 169.92 
L 403.1775 169.92 
L 403.875 169.92 
L 404.5725 169.92 
L 405.27 169.92 
L 405.9675 169.92 
L 406.665 169.92 
L 407.3625 169.92 
L 408.06 169.92 
L 408.7575 169.92 
L 409.455 169.92 
L 410.1525 169.92 
L 410.85 169.92 
L 411.5475 169.92 
L 412.245 169.92 
L 412.9425 169.92 
L 413.64 169.92 
L 414.3375 169.92 
L 415.035 169.92 
L 415.7325 169.92 
L 416.43 169.92 
L 417.1275 169.92 
L 417.825 169.92 
L 418.5225 169.92 
L 419.22 169.92 
L 419.9175 169.92 
L 420.615 169.92 
L 421.3125 169.92 
L 422.01 169.92 
L 422.7075 169.92 
L 423.405 169.92 
L 424.1025 169.92 
L 424.8 169.92 
L 425.4975 169.92 
L 426.195 169.92 
L 426.8925 169.92 
L 427.59 169.92 
L 428.2875 169.92 
L 428.985 169.92 
L 429.6825 169.92 
L 430.38 169.92 
L 431.0775 169.92 
L 431.775 169.92 
L 432.4725 169.92 
L 433.17 169.92 
L 433.8675 169.92 
L 434.565 169.92 
L 435.2625 169.92 
L 435.96 169.92 
L 436.6575 169.92 
L 437.355 169.92 
L 438.0525 169.92 
L 438.75 169.92 
L 439.4475 169.92 
L 440.145 169.92 
L 440.8425 169.92 
L 441.54 169.92 
L 442.2375 169.92 
L 442.935 169.92 
L 443.6325 169.92 
L 444.33 169.92 
L 445.0275 169.92 
L 445.725 169.92 
L 446.4225 169.92 
L 447.12 169.92 
L 447.8175 169.92 
L 448.515 169.92 
L 449.2125 169.92 
L 449.91 169.92 
L 450.6075 169.92 
L 451.305 169.92 
L 452.0025 169.92 
L 452.7 169.92 
L 453.3975 169.92 
L 454.095 169.92 
L 454.7925 169.92 
L 455.49 169.92 
L 456.1875 169.92 
L 456.885 169.92 
L 457.5825 169.92 
L 458.28 169.92 
L 458.9775 169.92 
L 459.675 169.92 
L 460.3725 169.92 
L 461.07 169.92 
L 461.7675 169.92 
L 462.465 169.92 
L 463.1625 169.92 
L 463.86 169.92 
L 464.5575 169.92 
L 465.255 169.92 
L 465.9525 169.92 
L 466.65 169.92 
L 467.3475 169.92 
L 468.045 169.92 
L 468.7425 169.92 
L 469.44 169.92 
L 470.1375 169.92 
L 470.835 169.92 
L 471.5325 169.92 
L 472.23 169.92 
L 472.9275 169.92 
L 473.625 169.92 
L 474.3225 169.92 
L 475.02 169.92 
L 475.7175 169.92 
L 476.415 169.92 
L 477.1125 169.92 
L 477.81 169.92 
L 478.5075 169.92 
L 479.205 169.92 
L 479.9025 169.92 
L 480.6 169.92 
L 481.2975 169.92 
L 481.995 169.92 
L 482.6925 169.92 
L 483.39 169.92 
L 484.0875 169.92 
L 484.785 169.92 
L 485.4825 169.92 
L 486.18 169.92 
L 486.8775 169.92 
L 487.575 169.92 
L 488.2725 169.92 
L 488.97 169.92 
L 489.6675 169.92 
L 490.365 169.92 
L 491.0625 169.92 
L 491.76 169.92 
L 492.4575 169.92 
L 493.155 169.92 
L 493.8525 169.92 
L 494.55 169.92 
L 495.2475 169.92 
L 495.945 169.92 
L 496.6425 169.92 
L 497.34 169.92 
L 498.0375 169.92 
L 498.735 169.92 
L 499.4325 169.92 
L 500.13 169.92 
L 500.8275 169.92 
L 501.525 169.92 
L 502.2225 169.92 
L 502.92 169.92 
L 503.6175 169.92 
L 504.315 169.92 
L 505.0125 169.92 
L 505.71 169.92 
L 506.4075 169.92 
L 507.105 169.92 
L 507.8025 169.92 
L 508.5 169.92 
L 509.1975 169.92 
L 509.895 169.92 
L 510.5925 169.92 
L 511.29 169.92 
L 511.9875 169.92 
L 512.685 169.92 
L 513.3825 169.92 
L 514.08 169.92 
L 514.7775 169.92 
L 515.475 169.92 
L 516.1725 169.92 
L 516.87 169.92 
L 517.5675 169.92 
L 518.265 169.92 
L 518.9625 169.92 
L 519.66 169.92 
L 520.3575 169.92 
L 521.055 169.92 
L 521.7525 169.92 
L 522.45 169.92 
L 523.1475 169.92 
L 523.845 169.92 
L 524.5425 169.92 
L 525.24 169.92 
L 525.9375 169.92 
L 526.635 169.92 
L 527.3325 169.92 
L 528.03 169.92 
L 528.7275 169.92 
L 529.425 169.92 
L 530.1225 169.92 
L 530.82 169.92 
L 531.5175 169.92 
L 532.215 169.92 
L 532.9125 169.92 
L 533.61 169.92 
L 534.3075 169.92 
L 535.005 169.92 
L 535.7025 169.92 
L 536.4 169.92 
L 537.0975 169.92 
L 537.795 169.92 
L 538.4925 169.92 
L 539.19 169.92 
L 539.8875 169.92 
L 540.585 169.92 
L 541.2825 169.92 
L 541.98 169.92 
L 542.6775 169.92 
L 543.375 169.92 
L 544.0725 169.92 
L 544.77 169.92 
L 545.4675 169.92 
L 546.165 169.92 
L 546.8625 169.92 
L 547.56 169.92 
L 548.2575 169.92 
L 548.955 169.92 
L 549.6525 169.92 
L 550.35 169.92 
L 551.0475 169.92 
L 551.745 169.92 
L 552.4425 169.92 
L 553.14 169.92 
L 553.8375 169.92 
L 554.535 169.92 
L 555.2325 169.92 
L 555.93 169.92 
L 556.6275 169.92 
L 557.325 169.92 
L 558.0225 169.92 
L 558.72 169.92 
L 559.4175 169.92 
L 560.115 169.92 
L 560.8125 169.92 
L 561.51 169.92 
L 562.2075 169.92 
L 562.905 169.92 
L 563.6025 169.92 
L 564.3 169.92 
L 564.9975 169.92 
L 565.695 169.92 
L 566.3925 169.92 
L 567.09 169.92 
L 567.7875 169.92 
L 568.485 169.92 
L 569.1825 169.92 
L 569.88 169.92 
L 570.5775 169.92 
L 571.275 169.92 
L 571.9725 169.92 
L 572.67 169.92 
L 573.3675 169.92 
L 574.065 169.92 
L 574.7625 169.92 
L 575.46 169.92 
L 576.1575 169.92 
L 576.855 169.92 
L 577.5525 169.92 
L 578.25 169.92 
L 578.9475 169.92 
L 579.645 169.92 
L 580.3425 169.92 
L 581.04 169.92 
L 581.7375 169.92 
L 582.435 169.92 
L 583.1325 169.92 
L 583.83 169.92 
L 584.5275 169.92 
L 585.225 169.92 
L 585.9225 169.92 
L 586.62 169.92 
L 587.3175 169.92 
L 588.015 169.92 
L 588.7125 169.92 
L 589.41 169.92 
L 590.1075 169.92 
L 590.805 169.92 
L 591.5025 169.92 
L 592.2 169.92 
L 592.8975 169.92 
L 593.595 169.92 
L 594.2925 169.92 
L 594.99 169.92 
L 595.6875 169.92 
L 596.385 169.92 
L 597.0825 169.92 
L 597.78 169.92 
L 598.4775 169.92 
L 599.175 169.92 
L 599.8725 169.92 
L 600.57 169.92 
L 601.2675 169.92 
L 601.965 169.92 
L 602.6625 169.92 
L 603.36 169.92 
L 604.0575 169.92 
L 604.755 169.92 
L 605.4525 169.92 
L 606.15 169.92 
L 606.8475 169.92 
L 607.545 169.92 
L 608.2425 169.92 
L 608.94 169.92 
L 609.6375 169.92 
L 610.335 169.92 
L 611.0325 169.92 
L 611.73 169.92 
L 612.4275 169.92 
L 613.125 169.92 
L 613.8225 169.92 
L 614.52 169.92 
L 615.2175 169.92 
L 615.915 169.92 
L 616.6125 169.92 
L 617.31 169.92 
L 618.0075 169.92 
L 618.705 169.92 
L 619.4025 169.92 
L 620.1 169.92 
L 620.7975 169.92 
L 621.495 169.92 
L 622.1925 169.92 
L 622.89 169.92 
L 623.5875 169.92 
L 624.285 169.92 
L 624.9825 169.92 
L 625.68 169.92 
L 626.3775 169.92 
L 627.075 169.92 
L 627.7725 169.92 
L 628.47 169.92 
L 629.1675 169.92 
L 629.865 169.92 
L 630.5625 169.92 
L 631.26 169.92 
L 631.9575 169.92 
L 632.655 169.92 
L 633.3525 169.92 
L 634.05 169.92 
L 634.7475 169.92 
L 635.445 169.92 
L 636.1425 169.92 
L 636.84 169.92 
L 637.5375 169.92 
L 638.235 169.92 
L 638.9325 169.92 
L 639.63 169.92 
L 640.3275 169.92 
L 641.025 169.92 
L 641.7225 169.92 
L 642.42 169.92 
L 643.1175 169.92 
L 643.815 169.92 
L 644.5125 169.92 
L 645.21 169.92 
L 645.9075 169.92 
L 646.605 169.92 
L 646.605 169.92 
L 646.605 169.92 
L 645.9075 169.974347 
L 645.21 170.118747 
L 644.5125 170.303497 
L 643.815 170.532852 
L 643.1175 170.816675 
L 642.42 171.128069 
L 641.7225 171.457991 
L 641.025 171.845522 
L 640.3275 172.262768 
L 639.63 172.699659 
L 638.9325 173.182171 
L 638.235 173.669412 
L 637.5375 174.180831 
L 636.84 174.699412 
L 636.1425 175.226187 
L 635.445 175.756068 
L 634.7475 176.2779 
L 634.05 176.774566 
L 633.3525 177.235232 
L 632.655 177.69168 
L 631.9575 178.115349 
L 631.26 178.514225 
L 630.5625 178.890493 
L 629.865 179.24656 
L 629.1675 179.542755 
L 628.47 179.80641 
L 627.7725 180.028942 
L 627.075 180.226317 
L 626.3775 180.360397 
L 625.68 180.454042 
L 624.9825 180.494271 
L 624.285 180.468618 
L 623.5875 180.419601 
L 622.89 180.311461 
L 622.1925 180.163359 
L 621.495 179.970686 
L 620.7975 179.723226 
L 620.1 179.405252 
L 619.4025 179.062106 
L 618.705 178.666908 
L 618.0075 178.235552 
L 617.31 177.754086 
L 616.6125 177.221124 
L 615.915 176.672003 
L 615.2175 176.081833 
L 614.52 175.462353 
L 613.8225 174.83766 
L 613.125 174.20171 
L 612.4275 173.548566 
L 611.73 172.890575 
L 611.0325 172.264283 
L 610.335 171.657623 
L 609.6375 171.058337 
L 608.94 170.490328 
L 608.2425 169.947004 
L 607.545 169.421535 
L 606.8475 168.949188 
L 606.15 168.528485 
L 605.4525 168.151413 
L 604.755 167.779342 
L 604.0575 167.470213 
L 603.36 167.178702 
L 602.6625 166.937817 
L 601.965 166.725731 
L 601.2675 166.556568 
L 600.57 166.425923 
L 599.8725 166.32902 
L 599.175 166.278871 
L 598.4775 166.239729 
L 597.78 166.260281 
L 597.0825 166.292019 
L 596.385 166.358793 
L 595.6875 166.447878 
L 594.99 166.558417 
L 594.2925 166.707455 
L 593.595 166.863363 
L 592.8975 167.042748 
L 592.2 167.225765 
L 591.5025 167.39253 
L 590.805 167.577663 
L 590.1075 167.773338 
L 589.41 167.96559 
L 588.7125 168.140483 
L 588.015 168.320483 
L 587.3175 168.509891 
L 586.62 168.682724 
L 585.9225 168.837312 
L 585.225 168.954047 
L 584.5275 169.043879 
L 583.83 169.118017 
L 583.1325 169.187822 
L 582.435 169.246583 
L 581.7375 169.281654 
L 581.04 169.292696 
L 580.3425 169.279604 
L 579.645 169.224387 
L 578.9475 169.145695 
L 578.25 169.026173 
L 577.5525 168.866973 
L 576.855 168.699827 
L 576.1575 168.490117 
L 575.46 168.282138 
L 574.7625 168.023551 
L 574.065 167.728931 
L 573.3675 167.4132 
L 572.67 167.061292 
L 571.9725 166.718873 
L 571.275 166.359059 
L 570.5775 165.979285 
L 569.88 165.57718 
L 569.1825 165.186821 
L 568.485 164.775744 
L 567.7875 164.347921 
L 567.09 163.943713 
L 566.3925 163.542869 
L 565.695 163.149262 
L 564.9975 162.778768 
L 564.3 162.453081 
L 563.6025 162.151191 
L 562.905 161.863938 
L 562.2075 161.630327 
L 561.51 161.428458 
L 560.8125 161.272359 
L 560.115 161.169575 
L 559.4175 161.115061 
L 558.72 161.121419 
L 558.0225 161.164435 
L 557.325 161.273886 
L 556.6275 161.412484 
L 555.93 161.615121 
L 555.2325 161.843609 
L 554.535 162.119896 
L 553.8375 162.447353 
L 553.14 162.798663 
L 552.4425 163.212703 
L 551.745 163.637167 
L 551.0475 164.110226 
L 550.35 164.597119 
L 549.6525 165.129375 
L 548.955 165.671662 
L 548.2575 166.206665 
L 547.56 166.759412 
L 546.8625 167.324564 
L 546.165 167.890626 
L 545.4675 168.440053 
L 544.77 168.979618 
L 544.0725 169.498071 
L 543.375 169.996445 
L 542.6775 170.463888 
L 541.98 170.926078 
L 541.2825 171.336284 
L 540.585 171.714697 
L 539.8875 172.057663 
L 539.19 172.355833 
L 538.4925 172.63048 
L 537.795 172.866876 
L 537.0975 173.068776 
L 536.4 173.234231 
L 535.7025 173.367681 
L 535.005 173.449722 
L 534.3075 173.509754 
L 533.61 173.510967 
L 532.9125 173.48958 
L 532.215 173.415607 
L 531.5175 173.319954 
L 530.82 173.197508 
L 530.1225 173.043411 
L 529.425 172.883307 
L 528.7275 172.68251 
L 528.03 172.467113 
L 527.3325 172.233157 
L 526.635 171.976865 
L 525.9375 171.69467 
L 525.24 171.401377 
L 524.5425 171.093779 
L 523.845 170.780884 
L 523.1475 170.471753 
L 522.45 170.145217 
L 521.7525 169.816506 
L 521.055 169.476717 
L 520.3575 169.141209 
L 519.66 168.81926 
L 518.9625 168.507941 
L 518.265 168.204219 
L 517.5675 167.935181 
L 516.87 167.691349 
L 516.1725 167.463 
L 515.475 167.276493 
L 514.7775 167.127591 
L 514.08 167.017731 
L 513.3825 166.947975 
L 512.685 166.906919 
L 511.9875 166.888921 
L 511.29 166.900194 
L 510.5925 166.952705 
L 509.895 167.058025 
L 509.1975 167.19702 
L 508.5 167.386465 
L 507.8025 167.594337 
L 507.105 167.860899 
L 506.4075 168.159421 
L 505.71 168.493061 
L 505.0125 168.840481 
L 504.315 169.222479 
L 503.6175 169.635367 
L 502.92 170.057042 
L 502.2225 170.519664 
L 501.525 170.988572 
L 500.8275 171.471315 
L 500.13 171.945115 
L 499.4325 172.411437 
L 498.735 172.883893 
L 498.0375 173.351881 
L 497.34 173.810882 
L 496.6425 174.250426 
L 495.945 174.678344 
L 495.2475 175.090505 
L 494.55 175.495005 
L 493.8525 175.851708 
L 493.155 176.18736 
L 492.4575 176.462491 
L 491.76 176.710673 
L 491.0625 176.911395 
L 490.365 177.062718 
L 489.6675 177.157143 
L 488.97 177.205835 
L 488.2725 177.196247 
L 487.575 177.134509 
L 486.8775 177.045372 
L 486.18 176.91762 
L 485.4825 176.74041 
L 484.785 176.515451 
L 484.0875 176.263034 
L 483.39 175.973517 
L 482.6925 175.637621 
L 481.995 175.258587 
L 481.2975 174.852155 
L 480.6 174.41017 
L 479.9025 173.942941 
L 479.205 173.448941 
L 478.5075 172.945017 
L 477.81 172.417919 
L 477.1125 171.884815 
L 476.415 171.338776 
L 475.7175 170.809228 
L 475.02 170.271094 
L 474.3225 169.735608 
L 473.625 169.207941 
L 472.9275 168.68715 
L 472.23 168.178265 
L 471.5325 167.686198 
L 470.835 167.245896 
L 470.1375 166.831417 
L 469.44 166.452803 
L 468.7425 166.125785 
L 468.045 165.847485 
L 467.3475 165.608511 
L 466.65 165.42325 
L 465.9525 165.305567 
L 465.255 165.256599 
L 464.5575 165.258702 
L 463.86 165.311857 
L 463.1625 165.433665 
L 462.465 165.598797 
L 461.7675 165.847928 
L 461.07 166.136381 
L 460.3725 166.46741 
L 459.675 166.837819 
L 458.9775 167.237992 
L 458.28 167.651987 
L 457.5825 168.112037 
L 456.885 168.601624 
L 456.1875 169.097904 
L 455.49 169.602122 
L 454.7925 170.139603 
L 454.095 170.674963 
L 453.3975 171.215109 
L 452.7 171.754826 
L 452.0025 172.294941 
L 451.305 172.824198 
L 450.6075 173.337487 
L 449.91 173.83589 
L 449.2125 174.308555 
L 448.515 174.756956 
L 447.8175 175.170725 
L 447.12 175.53379 
L 446.4225 175.85472 
L 445.725 176.136456 
L 445.0275 176.370238 
L 444.33 176.571925 
L 443.6325 176.715414 
L 442.935 176.79932 
L 442.2375 176.816794 
L 441.54 176.791822 
L 440.8425 176.706529 
L 440.145 176.579854 
L 439.4475 176.394905 
L 438.75 176.177622 
L 438.0525 175.899911 
L 437.355 175.57653 
L 436.6575 175.210603 
L 435.96 174.793586 
L 435.2625 174.341583 
L 434.565 173.85292 
L 433.8675 173.338355 
L 433.17 172.79078 
L 432.4725 172.22756 
L 431.775 171.642056 
L 431.0775 171.039922 
L 430.38 170.426974 
L 429.6825 169.815169 
L 428.985 169.204376 
L 428.2875 168.600493 
L 427.59 168.003314 
L 426.8925 167.424644 
L 426.195 166.87611 
L 425.4975 166.35697 
L 424.8 165.872237 
L 424.1025 165.43263 
L 423.405 165.030319 
L 422.7075 164.693342 
L 422.01 164.39476 
L 421.3125 164.149534 
L 420.615 163.960032 
L 419.9175 163.822045 
L 419.22 163.736906 
L 418.5225 163.705437 
L 417.825 163.74002 
L 417.1275 163.828242 
L 416.43 163.975291 
L 415.7325 164.173708 
L 415.035 164.409499 
L 414.3375 164.704543 
L 413.64 165.049951 
L 412.9425 165.430311 
L 412.245 165.866104 
L 411.5475 166.335006 
L 410.85 166.820411 
L 410.1525 167.32971 
L 409.455 167.857985 
L 408.7575 168.400133 
L 408.06 168.944881 
L 407.3625 169.480929 
L 406.665 170.021218 
L 405.9675 170.530337 
L 405.27 171.021485 
L 404.5725 171.477842 
L 403.875 171.913117 
L 403.1775 172.317067 
L 402.48 172.673716 
L 401.7825 172.997734 
L 401.085 173.261839 
L 400.3875 173.475556 
L 399.69 173.642862 
L 398.9925 173.744024 
L 398.295 173.784104 
L 397.5975 173.780832 
L 396.9 173.72216 
L 396.2025 173.614695 
L 395.505 173.447397 
L 394.8075 173.227921 
L 394.11 172.958385 
L 393.4125 172.617238 
L 392.715 172.231929 
L 392.0175 171.806179 
L 391.32 171.332022 
L 390.6225 170.838191 
L 389.925 170.293223 
L 389.2275 169.720497 
L 388.53 169.143659 
L 387.8325 168.550164 
L 387.135 167.945743 
L 386.4375 167.354349 
L 385.74 166.757537 
L 385.0425 166.161072 
L 384.345 165.582791 
L 383.6475 165.028277 
L 382.95 164.490809 
L 382.2525 163.969538 
L 381.555 163.475536 
L 380.8575 163.019613 
L 380.16 162.600132 
L 379.4625 162.221145 
L 378.765 161.880273 
L 378.0675 161.574769 
L 377.37 161.325698 
L 376.6725 161.11735 
L 375.975 160.963815 
L 375.2775 160.872614 
L 374.58 160.832549 
L 373.8825 160.850047 
L 373.185 160.918901 
L 372.4875 161.044483 
L 371.79 161.225581 
L 371.0925 161.454407 
L 370.395 161.728753 
L 369.6975 162.045968 
L 369 162.421105 
L 368.3025 162.820349 
L 367.605 163.276075 
L 366.9075 163.759729 
L 366.21 164.26664 
L 365.5125 164.797951 
L 364.815 165.348532 
L 364.1175 165.900989 
L 363.42 166.462064 
L 362.7225 167.026338 
L 362.025 167.588363 
L 361.3275 168.142712 
L 360.63 168.696108 
L 359.9325 169.225091 
L 359.235 169.730593 
L 358.5375 170.213769 
L 357.84 170.6458 
L 357.1425 171.046669 
L 356.445 171.394387 
L 355.7475 171.697675 
L 355.05 171.947566 
L 354.3525 172.129568 
L 353.655 172.254002 
L 352.9575 172.313628 
L 352.26 172.319946 
L 351.5625 172.278934 
L 350.865 172.172873 
L 350.1675 172.008826 
L 349.47 171.788376 
L 348.7725 171.513652 
L 348.075 171.193346 
L 347.3775 170.830552 
L 346.68 170.43481 
L 345.9825 170.003904 
L 345.285 169.535956 
L 344.5875 169.041525 
L 343.89 168.531423 
L 343.1925 167.998498 
L 342.495 167.453937 
L 341.7975 166.902997 
L 341.1 166.34496 
L 340.4025 165.797292 
L 339.705 165.265283 
L 339.0075 164.74803 
L 338.31 164.256567 
L 337.6125 163.789602 
L 336.915 163.363721 
L 336.2175 162.983037 
L 335.52 162.639149 
L 334.8225 162.335377 
L 334.125 162.074656 
L 333.4275 161.865541 
L 332.73 161.704013 
L 332.0325 161.585594 
L 331.335 161.523504 
L 330.6375 161.512304 
L 329.94 161.540026 
L 329.2425 161.618478 
L 328.545 161.765018 
L 327.8475 161.94804 
L 327.15 162.189929 
L 326.4525 162.476273 
L 325.755 162.798268 
L 325.0575 163.158844 
L 324.36 163.554517 
L 323.6625 163.981467 
L 322.965 164.435572 
L 322.2675 164.912446 
L 321.57 165.413523 
L 320.8725 165.940001 
L 320.175 166.474721 
L 319.4775 167.018557 
L 318.78 167.566258 
L 318.0825 168.106495 
L 317.385 168.640091 
L 316.6875 169.167931 
L 315.99 169.678879 
L 315.2925 170.17404 
L 314.595 170.648633 
L 313.8975 171.11015 
L 313.2 171.536021 
L 312.5025 171.916093 
L 311.805 172.246697 
L 311.1075 172.52464 
L 310.41 172.753277 
L 309.7125 172.936438 
L 309.015 173.066315 
L 308.3175 173.147694 
L 307.62 173.167711 
L 306.9225 173.13825 
L 306.225 173.053558 
L 305.5275 172.932566 
L 304.83 172.776445 
L 304.1325 172.574624 
L 303.435 172.335091 
L 302.7375 172.066198 
L 302.04 171.758463 
L 301.3425 171.420898 
L 300.645 171.056762 
L 299.9475 170.669572 
L 299.25 170.263066 
L 298.5525 169.84117 
L 297.855 169.407959 
L 297.1575 168.979692 
L 296.46 168.554467 
L 295.7625 168.13639 
L 295.065 167.723459 
L 294.3675 167.325702 
L 293.67 166.946959 
L 292.9725 166.590887 
L 292.275 166.266963 
L 291.5775 165.966239 
L 290.88 165.703695 
L 290.1825 165.46979 
L 289.485 165.27886 
L 288.7875 165.126709 
L 288.09 165.014808 
L 287.3925 164.950274 
L 286.695 164.927694 
L 285.9975 164.953323 
L 285.3 165.014837 
L 284.6025 165.129757 
L 283.905 165.290935 
L 283.2075 165.496816 
L 282.51 165.745409 
L 281.8125 166.034316 
L 281.115 166.360746 
L 280.4175 166.721547 
L 279.72 167.119273 
L 279.0225 167.544044 
L 278.325 167.99176 
L 277.6275 168.464135 
L 276.93 168.956607 
L 276.2325 169.458383 
L 275.535 169.970655 
L 274.8375 170.488476 
L 274.14 171.012884 
L 273.4425 171.532778 
L 272.745 172.037097 
L 272.0475 172.533049 
L 271.35 173.003768 
L 270.6525 173.450745 
L 269.955 173.869666 
L 269.2575 174.250446 
L 268.56 174.601485 
L 267.8625 174.919393 
L 267.165 175.207139 
L 266.4675 175.449866 
L 265.77 175.651271 
L 265.0725 175.809407 
L 264.375 175.916708 
L 263.6775 175.984217 
L 262.98 175.999204 
L 262.2825 175.955485 
L 261.585 175.86556 
L 260.8875 175.724259 
L 260.19 175.538985 
L 259.4925 175.311527 
L 258.795 175.044081 
L 258.0975 174.73923 
L 257.4 174.399918 
L 256.7025 174.029422 
L 256.005 173.631319 
L 255.3075 173.215493 
L 254.61 172.773881 
L 253.9125 172.316787 
L 253.215 171.842587 
L 252.5175 171.361897 
L 251.82 170.873322 
L 251.1225 170.38158 
L 250.425 169.897457 
L 249.7275 169.425629 
L 249.03 168.970652 
L 248.3325 168.53692 
L 247.635 168.128621 
L 246.9375 167.749698 
L 246.24 167.391733 
L 245.5425 167.07026 
L 244.845 166.782345 
L 244.1475 166.542844 
L 243.45 166.341995 
L 242.7525 166.187775 
L 242.055 166.075634 
L 241.3575 166.000617 
L 240.66 165.975526 
L 239.9625 165.994564 
L 239.265 166.057548 
L 238.5675 166.15783 
L 237.87 166.294443 
L 237.1725 166.472106 
L 236.475 166.689102 
L 235.7775 166.937298 
L 235.08 167.220336 
L 234.3825 167.535483 
L 233.685 167.879695 
L 232.9875 168.243609 
L 232.29 168.623712 
L 231.5925 169.02841 
L 230.895 169.447757 
L 230.1975 169.871663 
L 229.5 170.302075 
L 228.8025 170.722759 
L 228.105 171.141729 
L 227.4075 171.548902 
L 226.71 171.940344 
L 226.0125 172.318315 
L 225.315 172.673127 
L 224.6175 173.001352 
L 223.92 173.299821 
L 223.2225 173.565652 
L 222.525 173.796277 
L 221.8275 173.989471 
L 221.13 174.143367 
L 220.4325 174.25044 
L 219.735 174.315695 
L 219.0375 174.332464 
L 218.34 174.306622 
L 217.6425 174.238421 
L 216.945 174.128517 
L 216.2475 173.977972 
L 215.55 173.788241 
L 214.8525 173.561155 
L 214.155 173.298907 
L 213.4575 173.010069 
L 212.76 172.691391 
L 212.0625 172.34595 
L 211.365 171.98312 
L 210.6675 171.600368 
L 209.97 171.201389 
L 209.2725 170.790036 
L 208.575 170.370281 
L 207.8775 169.946177 
L 207.18 169.521822 
L 206.4825 169.101311 
L 205.785 168.688706 
L 205.0875 168.287991 
L 204.39 167.903036 
L 203.6925 167.537559 
L 202.995 167.195088 
L 202.2975 166.891008 
L 201.6 166.616178 
L 200.9025 166.373252 
L 200.205 166.164577 
L 199.5075 165.992166 
L 198.81 165.857686 
L 198.1125 165.768473 
L 197.415 165.71935 
L 196.7175 165.710792 
L 196.02 165.742881 
L 195.3225 165.815308 
L 194.625 165.927373 
L 193.9275 166.077993 
L 193.23 166.265714 
L 192.5325 166.488725 
L 191.835 166.74487 
L 191.1375 167.031676 
L 190.44 167.346374 
L 189.7425 167.685926 
L 189.045 168.047051 
L 188.3475 168.426262 
L 187.65 168.819899 
L 186.9525 169.224159 
L 186.255 169.635138 
L 185.5575 170.048868 
L 184.86 170.461354 
L 184.1625 170.868612 
L 183.465 171.266709 
L 182.7675 171.651802 
L 182.07 172.020171 
L 181.3725 172.368259 
L 180.675 172.692705 
L 179.9775 172.990376 
L 179.28 173.258397 
L 178.5825 173.49418 
L 177.885 173.695447 
L 177.1875 173.860257 
L 176.49 173.987016 
L 175.7925 174.074501 
L 175.095 174.121867 
L 174.3975 174.128657 
L 173.7 174.094805 
L 173.0025 174.020637 
L 172.305 173.906871 
L 171.6075 173.754605 
L 170.91 173.565309 
L 170.2125 173.340811 
L 169.515 173.083279 
L 168.8175 172.7952 
L 168.12 172.479356 
L 167.4225 172.132759 
L 166.725 171.764793 
L 166.0275 171.379013 
L 165.33 170.979143 
L 164.6325 170.569046 
L 163.935 170.152681 
L 163.2375 169.734069 
L 162.54 169.317252 
L 161.8425 168.900217 
L 161.145 168.493031 
L 160.4475 168.099624 
L 159.75 167.723796 
L 159.0525 167.369176 
L 158.355 167.039189 
L 157.6575 166.737021 
L 156.96 166.46559 
L 156.2625 166.227518 
L 155.565 166.025103 
L 154.8675 165.860301 
L 154.17 165.734701 
L 153.4725 165.649518 
L 152.775 165.605574 
L 152.0775 165.597255 
L 151.38 165.63068 
L 150.6825 165.699486 
L 149.985 165.80905 
L 149.2875 165.958311 
L 148.59 166.14583 
L 147.8925 166.369795 
L 147.195 166.628043 
L 146.4975 166.918081 
L 145.8 167.237108 
L 145.1025 167.582043 
L 144.405 167.949555 
L 143.7075 168.336095 
L 143.01 168.73793 
L 142.3125 169.15118 
L 141.615 169.571855 
L 140.9175 169.995891 
L 140.22 170.419195 
L 139.5225 170.831639 
L 138.825 171.23528 
L 138.1275 171.62622 
L 137.43 172.006722 
L 136.7325 172.367073 
L 136.035 172.703793 
L 135.3375 173.01363 
L 134.64 173.293593 
L 133.9425 173.547017 
L 133.245 173.765416 
L 132.5475 173.94668 
L 131.85 174.08906 
L 131.1525 174.19118 
L 130.455 174.252054 
L 129.7575 174.271095 
L 129.06 174.248119 
L 128.3625 174.183347 
L 127.665 174.077404 
L 126.9675 173.931315 
L 126.27 173.74649 
L 125.5725 173.524713 
L 124.875 173.268126 
L 124.1775 172.979208 
L 123.48 172.660747 
L 122.7825 172.315819 
L 122.085 171.947756 
L 121.3875 171.560111 
L 120.69 171.156628 
L 119.9925 170.741204 
L 119.295 170.317849 
L 118.5975 169.890652 
L 117.9 169.463739 
L 117.2025 169.041231 
L 116.505 168.62721 
L 115.8075 168.225673 
L 115.11 167.840497 
L 114.4125 167.475403 
L 113.715 167.133915 
L 113.0175 166.819333 
L 112.32 166.534692 
L 111.6225 166.282743 
L 110.925 166.065917 
L 110.2275 165.88631 
L 109.53 165.745655 
L 108.8325 165.64531 
L 108.135 165.586245 
L 107.4375 165.56903 
L 106.74 165.593831 
L 106.0425 165.660409 
L 105.345 165.768121 
L 104.6475 165.915927 
L 103.95 166.102399 
L 103.2525 166.325736 
L 102.555 166.583782 
L 101.8575 166.874046 
L 101.16 167.193723 
L 100.4625 167.539727 
L 99.765 167.908717 
L 99.0675 168.29713 
L 98.37 168.701214 
L 97.6725 169.117067 
L 96.975 169.540675 
L 96.2775 169.967945 
L 95.58 170.394753 
L 94.8825 170.823014 
L 94.185 171.242555 
L 93.4875 171.649325 
L 92.79 172.039395 
L 92.0925 172.408998 
L 91.395 172.754566 
L 90.6975 173.072761 
L 90 173.360511 
z
" style="fill:#e0ffff;"/>
   </g>
   <g id="line2d_15">
    <path clip-path="url(#p67545423fa)" d="M 90 173.360511 
L 92.0925 172.408998 
L 94.8825 170.823014 
L 99.765 167.908717 
L 101.8575 166.874046 
L 103.95 166.102399 
L 105.345 165.768121 
L 106.74 165.593831 
L 108.135 165.586245 
L 109.53 165.745655 
L 110.925 166.065917 
L 113.0175 166.819333 
L 115.11 167.840497 
L 118.5975 169.890652 
L 122.085 171.947756 
L 124.1775 172.979208 
L 126.27 173.74649 
L 127.665 174.077404 
L 129.06 174.248119 
L 130.455 174.252054 
L 131.85 174.08906 
L 133.245 173.765416 
L 135.3375 173.01363 
L 137.43 172.006722 
L 140.9175 169.995891 
L 144.405 167.949555 
L 146.4975 166.918081 
L 148.59 166.14583 
L 149.985 165.80905 
L 151.38 165.63068 
L 152.775 165.605574 
L 154.17 165.734701 
L 155.565 166.025103 
L 157.6575 166.737021 
L 159.75 167.723796 
L 162.54 169.317252 
L 167.4225 172.132759 
L 169.515 173.083279 
L 171.6075 173.754605 
L 173.0025 174.020637 
L 174.3975 174.128657 
L 175.7925 174.074501 
L 177.1875 173.860257 
L 179.28 173.258397 
L 181.3725 172.368259 
L 184.1625 170.868612 
L 189.7425 167.685926 
L 191.835 166.74487 
L 193.9275 166.077993 
L 195.3225 165.815308 
L 196.7175 165.710792 
L 198.1125 165.768473 
L 199.5075 165.992166 
L 201.6 166.616178 
L 203.6925 167.537559 
L 206.4825 169.101311 
L 212.0625 172.34595 
L 214.155 173.298907 
L 216.2475 173.977972 
L 217.6425 174.238421 
L 219.0375 174.332464 
L 220.4325 174.25044 
L 221.8275 173.989471 
L 223.92 173.299821 
L 226.0125 172.318315 
L 228.8025 170.722759 
L 233.685 167.879695 
L 235.7775 166.937298 
L 237.87 166.294443 
L 239.9625 165.994564 
L 241.3575 166.000617 
L 242.7525 166.187775 
L 244.1475 166.542844 
L 245.5425 167.07026 
L 247.635 168.128621 
L 249.7275 169.425629 
L 256.7025 174.029422 
L 258.795 175.044081 
L 260.19 175.538985 
L 261.585 175.86556 
L 262.98 175.999204 
L 264.375 175.916708 
L 265.77 175.651271 
L 267.165 175.207139 
L 269.2575 174.250446 
L 271.35 173.003768 
L 274.14 171.012884 
L 278.325 167.99176 
L 280.4175 166.721547 
L 282.51 165.745409 
L 283.905 165.290935 
L 285.3 165.014837 
L 286.695 164.927694 
L 288.09 165.014808 
L 289.485 165.27886 
L 291.5775 165.966239 
L 293.67 166.946959 
L 296.46 168.554467 
L 301.3425 171.420898 
L 303.435 172.335091 
L 304.83 172.776445 
L 306.9225 173.13825 
L 308.3175 173.147694 
L 309.7125 172.936438 
L 311.1075 172.52464 
L 312.5025 171.916093 
L 313.8975 171.11015 
L 316.6875 169.167931 
L 323.6625 163.981467 
L 325.755 162.798268 
L 327.8475 161.94804 
L 329.2425 161.618478 
L 330.6375 161.512304 
L 332.0325 161.585594 
L 333.4275 161.865541 
L 334.8225 162.335377 
L 336.915 163.363721 
L 339.0075 164.74803 
L 342.495 167.453937 
L 345.285 169.535956 
L 347.3775 170.830552 
L 348.7725 171.513652 
L 350.1675 172.008826 
L 351.5625 172.278934 
L 352.9575 172.313628 
L 354.3525 172.129568 
L 355.7475 171.697675 
L 357.1425 171.046669 
L 359.235 169.730593 
L 362.025 167.588363 
L 366.9075 163.759729 
L 369 162.421105 
L 370.395 161.728753 
L 371.79 161.225581 
L 373.185 160.918901 
L 374.58 160.832549 
L 375.975 160.963815 
L 377.37 161.325698 
L 378.765 161.880273 
L 380.8575 163.019613 
L 382.95 164.490809 
L 385.74 166.757537 
L 390.6225 170.838191 
L 392.715 172.231929 
L 394.11 172.958385 
L 395.505 173.447397 
L 396.9 173.72216 
L 398.295 173.784104 
L 399.69 173.642862 
L 401.085 173.261839 
L 402.48 172.673716 
L 403.875 171.913117 
L 405.9675 170.530337 
L 409.455 167.857985 
L 412.245 165.866104 
L 413.64 165.049951 
L 415.035 164.409499 
L 416.43 163.975291 
L 417.825 163.74002 
L 419.22 163.736906 
L 420.615 163.960032 
L 422.01 164.39476 
L 423.405 165.030319 
L 425.4975 166.35697 
L 427.59 168.003314 
L 434.565 173.85292 
L 436.6575 175.210603 
L 438.0525 175.899911 
L 439.4475 176.394905 
L 440.8425 176.706529 
L 442.2375 176.816794 
L 443.6325 176.715414 
L 445.0275 176.370238 
L 446.4225 175.85472 
L 447.8175 175.170725 
L 449.91 173.83589 
L 453.3975 171.215109 
L 457.5825 168.112037 
L 459.675 166.837819 
L 461.7675 165.847928 
L 463.1625 165.433665 
L 464.5575 165.258702 
L 465.9525 165.305567 
L 467.3475 165.608511 
L 468.7425 166.125785 
L 470.1375 166.831417 
L 472.23 168.178265 
L 476.415 171.338776 
L 479.9025 173.942941 
L 481.995 175.258587 
L 483.39 175.973517 
L 485.4825 176.74041 
L 486.8775 177.045372 
L 488.97 177.205835 
L 490.365 177.062718 
L 491.76 176.710673 
L 493.8525 175.851708 
L 495.945 174.678344 
L 499.4325 172.411437 
L 504.315 169.222479 
L 506.4075 168.159421 
L 507.8025 167.594337 
L 509.895 167.058025 
L 511.29 166.900194 
L 513.3825 166.947975 
L 514.7775 167.127591 
L 516.1725 167.463 
L 518.265 168.204219 
L 522.45 170.145217 
L 525.9375 171.69467 
L 528.03 172.467113 
L 530.1225 173.043411 
L 532.215 173.415607 
L 533.61 173.510967 
L 535.005 173.449722 
L 536.4 173.234231 
L 538.4925 172.63048 
L 540.585 171.714697 
L 542.6775 170.463888 
L 544.77 168.979618 
L 551.745 163.637167 
L 553.8375 162.447353 
L 555.2325 161.843609 
L 557.325 161.273886 
L 558.72 161.121419 
L 560.115 161.169575 
L 561.51 161.428458 
L 562.905 161.863938 
L 564.9975 162.778768 
L 567.7875 164.347921 
L 571.275 166.359059 
L 574.065 167.728931 
L 575.46 168.282138 
L 578.25 169.026173 
L 580.3425 169.279604 
L 582.435 169.246583 
L 585.225 168.954047 
L 587.3175 168.509891 
L 594.2925 166.707455 
L 596.385 166.358793 
L 598.4775 166.239729 
L 600.57 166.425923 
L 601.965 166.725731 
L 604.0575 167.470213 
L 605.4525 168.151413 
L 606.8475 168.949188 
L 608.94 170.490328 
L 611.73 172.890575 
L 615.2175 176.081833 
L 617.31 177.754086 
L 618.705 178.666908 
L 620.1 179.405252 
L 621.495 179.970686 
L 622.89 180.311461 
L 624.285 180.468618 
L 625.68 180.454042 
L 627.075 180.226317 
L 629.1675 179.542755 
L 630.5625 178.890493 
L 632.655 177.69168 
L 635.445 175.756068 
L 639.63 172.699659 
L 641.7225 171.457991 
L 643.815 170.532852 
L 645.21 170.118747 
L 646.605 169.92 
L 646.605 169.92 
" style="fill:none;stroke:#008080;stroke-linecap:round;stroke-width:1.75;"/>
   </g>
   <g id="patch_3">
    <path d="M 90 270.72 
L 90 69.12 
" style="fill:none;stroke:#262626;stroke-linecap:square;stroke-linejoin:miter;stroke-width:1.25;"/>
   </g>
   <g id="patch_4">
    <path d="M 90 270.72 
L 648 270.72 
" style="fill:none;stroke:#262626;stroke-linecap:square;stroke-linejoin:miter;stroke-width:1.25;"/>
   </g>
  </g>
  <g id="axes_2">
   <g id="patch_5">
    <path d="M 90 512.64 
L 648 512.64 
L 648 311.04 
L 90 311.04 
z
" style="fill:#ffffff;"/>
   </g>
   <g id="matplotlib.axis_3">
    <g id="xtick_10">
     <g id="line2d_16">
      <g>
       <use style="fill:#262626;stroke:#262626;" x="191.454545" xlink:href="#m4151020bf9" y="512.64"/>
      </g>
     </g>
     <g id="text_15">
      <!-- 200 -->
      <g style="fill:#262626;" transform="translate(183.113139 532.797812)scale(0.1 -0.1)">
       <use xlink:href="#ArialMT-32"/>
       <use x="55.615234" xlink:href="#ArialMT-30"/>
       <use x="111.230469" xlink:href="#ArialMT-30"/>
      </g>
     </g>
    </g>
    <g id="xtick_11">
     <g id="line2d_17">
      <g>
       <use style="fill:#262626;stroke:#262626;" x="304.181818" xlink:href="#m4151020bf9" y="512.64"/>
      </g>
     </g>
     <g id="text_16">
      <!-- 400 -->
      <g style="fill:#262626;" transform="translate(295.840412 532.797812)scale(0.1 -0.1)">
       <use xlink:href="#ArialMT-34"/>
       <use x="55.615234" xlink:href="#ArialMT-30"/>
       <use x="111.230469" xlink:href="#ArialMT-30"/>
      </g>
     </g>
    </g>
    <g id="xtick_12">
     <g id="line2d_18">
      <g>
       <use style="fill:#262626;stroke:#262626;" x="416.909091" xlink:href="#m4151020bf9" y="512.64"/>
      </g>
     </g>
     <g id="text_17">
      <!-- 600 -->
      <g style="fill:#262626;" transform="translate(408.567685 532.797812)scale(0.1 -0.1)">
       <use xlink:href="#ArialMT-36"/>
       <use x="55.615234" xlink:href="#ArialMT-30"/>
       <use x="111.230469" xlink:href="#ArialMT-30"/>
      </g>
     </g>
    </g>
    <g id="xtick_13">
     <g id="line2d_19">
      <g>
       <use style="fill:#262626;stroke:#262626;" x="529.636364" xlink:href="#m4151020bf9" y="512.64"/>
      </g>
     </g>
     <g id="text_18">
      <!-- 800 -->
      <g style="fill:#262626;" transform="translate(521.294957 532.797812)scale(0.1 -0.1)">
       <use xlink:href="#ArialMT-38"/>
       <use x="55.615234" xlink:href="#ArialMT-30"/>
       <use x="111.230469" xlink:href="#ArialMT-30"/>
      </g>
     </g>
    </g>
    <g id="xtick_14">
     <g id="line2d_20">
      <g>
       <use style="fill:#262626;stroke:#262626;" x="642.363636" xlink:href="#m4151020bf9" y="512.64"/>
      </g>
     </g>
     <g id="text_19">
      <!-- 1000 -->
      <g style="fill:#262626;" transform="translate(631.241761 532.797812)scale(0.1 -0.1)">
       <use xlink:href="#ArialMT-31"/>
       <use x="55.615234" xlink:href="#ArialMT-30"/>
       <use x="111.230469" xlink:href="#ArialMT-30"/>
       <use x="166.845703" xlink:href="#ArialMT-30"/>
      </g>
     </g>
    </g>
   </g>
   <g id="matplotlib.axis_4">
    <g id="ytick_6">
     <g id="line2d_21">
      <g>
       <use style="fill:#262626;stroke:#262626;" x="90" xlink:href="#m16eaa91c88" y="512.64"/>
      </g>
     </g>
     <g id="text_20">
      <!-- 0 -->
      <g style="fill:#262626;" transform="translate(71.439063 516.218906)scale(0.1 -0.1)">
       <use xlink:href="#ArialMT-30"/>
      </g>
     </g>
    </g>
    <g id="ytick_7">
     <g id="line2d_22">
      <g>
       <use style="fill:#262626;stroke:#262626;" x="90" xlink:href="#m16eaa91c88" y="490.24"/>
      </g>
     </g>
     <g id="text_21">
      <!-- 2 -->
      <g style="fill:#262626;" transform="translate(71.439063 493.818906)scale(0.1 -0.1)">
       <use xlink:href="#ArialMT-32"/>
      </g>
     </g>
    </g>
    <g id="ytick_8">
     <g id="line2d_23">
      <g>
       <use style="fill:#262626;stroke:#262626;" x="90" xlink:href="#m16eaa91c88" y="467.84"/>
      </g>
     </g>
     <g id="text_22">
      <!-- 4 -->
      <g style="fill:#262626;" transform="translate(71.439063 471.418906)scale(0.1 -0.1)">
       <use xlink:href="#ArialMT-34"/>
      </g>
     </g>
    </g>
    <g id="ytick_9">
     <g id="line2d_24">
      <g>
       <use style="fill:#262626;stroke:#262626;" x="90" xlink:href="#m16eaa91c88" y="445.44"/>
      </g>
     </g>
     <g id="text_23">
      <!-- 6 -->
      <g style="fill:#262626;" transform="translate(71.439063 449.018906)scale(0.1 -0.1)">
       <use xlink:href="#ArialMT-36"/>
      </g>
     </g>
    </g>
    <g id="ytick_10">
     <g id="line2d_25">
      <g>
       <use style="fill:#262626;stroke:#262626;" x="90" xlink:href="#m16eaa91c88" y="423.04"/>
      </g>
     </g>
     <g id="text_24">
      <!-- 8 -->
      <g style="fill:#262626;" transform="translate(71.439063 426.618906)scale(0.1 -0.1)">
       <use xlink:href="#ArialMT-38"/>
      </g>
     </g>
    </g>
    <g id="ytick_11">
     <g id="line2d_26">
      <g>
       <use style="fill:#262626;stroke:#262626;" x="90" xlink:href="#m16eaa91c88" y="400.64"/>
      </g>
     </g>
     <g id="text_25">
      <!-- 10 -->
      <g style="fill:#262626;" transform="translate(65.878125 404.218906)scale(0.1 -0.1)">
       <use xlink:href="#ArialMT-31"/>
       <use x="55.615234" xlink:href="#ArialMT-30"/>
      </g>
     </g>
    </g>
    <g id="ytick_12">
     <g id="line2d_27">
      <g>
       <use style="fill:#262626;stroke:#262626;" x="90" xlink:href="#m16eaa91c88" y="378.24"/>
      </g>
     </g>
     <g id="text_26">
      <!-- 12 -->
      <g style="fill:#262626;" transform="translate(65.878125 381.818906)scale(0.1 -0.1)">
       <use xlink:href="#ArialMT-31"/>
       <use x="55.615234" xlink:href="#ArialMT-32"/>
      </g>
     </g>
    </g>
    <g id="ytick_13">
     <g id="line2d_28">
      <g>
       <use style="fill:#262626;stroke:#262626;" x="90" xlink:href="#m16eaa91c88" y="355.84"/>
      </g>
     </g>
     <g id="text_27">
      <!-- 14 -->
      <g style="fill:#262626;" transform="translate(65.878125 359.418906)scale(0.1 -0.1)">
       <use xlink:href="#ArialMT-31"/>
       <use x="55.615234" xlink:href="#ArialMT-34"/>
      </g>
     </g>
    </g>
    <g id="ytick_14">
     <g id="line2d_29">
      <g>
       <use style="fill:#262626;stroke:#262626;" x="90" xlink:href="#m16eaa91c88" y="333.44"/>
      </g>
     </g>
     <g id="text_28">
      <!-- 16 -->
      <g style="fill:#262626;" transform="translate(65.878125 337.018906)scale(0.1 -0.1)">
       <use xlink:href="#ArialMT-31"/>
       <use x="55.615234" xlink:href="#ArialMT-36"/>
      </g>
     </g>
    </g>
    <g id="ytick_15">
     <g id="line2d_30">
      <g>
       <use style="fill:#262626;stroke:#262626;" x="90" xlink:href="#m16eaa91c88" y="311.04"/>
      </g>
     </g>
     <g id="text_29">
      <!-- 18 -->
      <g style="fill:#262626;" transform="translate(65.878125 314.618906)scale(0.1 -0.1)">
       <use xlink:href="#ArialMT-31"/>
       <use x="55.615234" xlink:href="#ArialMT-38"/>
      </g>
     </g>
    </g>
   </g>
   <g id="line2d_31">
    <path clip-path="url(#pfef68b9d9f)" d="M 90 477.654723 
L 95.636364 452.736402 
L 101.272727 431.923589 
L 106.909091 427.92302 
L 112.545455 440.45326 
L 118.181818 444.705349 
L 123.818182 448.961059 
L 129.454545 457.370701 
L 135.090909 456.375715 
L 140.727273 434.868159 
L 146.363636 408.816951 
L 152 389.988216 
L 157.636364 371.492183 
L 163.272727 352.310178 
L 168.909091 342.280664 
L 174.545455 348.647566 
L 180.181818 355.802406 
L 185.818182 363.350788 
L 191.454545 378.270766 
L 197.090909 391.147889 
L 202.727273 394.129256 
L 208.363636 396.550705 
L 214 393.395457 
L 219.636364 389.651786 
L 225.272727 392.702199 
L 230.909091 396.085016 
L 236.545455 399.690878 
L 242.181818 407.737617 
L 247.818182 414.331388 
L 253.454545 417.809913 
L 259.090909 422.903097 
L 264.727273 426.347751 
L 270.363636 429.764905 
L 276 436.797845 
L 281.636364 444.59905 
L 287.272727 452.348689 
L 292.909091 461.235722 
L 298.545455 467.982454 
L 304.181818 471.144774 
L 309.818182 472.257688 
L 315.454545 471.707893 
L 321.090909 472.117482 
L 326.727273 473.818281 
L 332.363636 475.619312 
L 338 478.193498 
L 343.636364 480.655986 
L 349.272727 482.144164 
L 354.909091 483.974362 
L 360.545455 485.825198 
L 366.181818 487.914885 
L 371.818182 490.804554 
L 377.454545 493.872728 
L 383.090909 496.544264 
L 388.727273 498.469641 
L 394.363636 499.417825 
L 400 499.768128 
L 405.636364 498.821458 
L 411.272727 497.224183 
L 416.909091 494.909956 
L 422.545455 492.447818 
L 428.181818 490.656474 
L 433.818182 489.398754 
L 439.454545 488.863228 
L 445.090909 489.4762 
L 450.727273 490.947183 
L 456.363636 492.717187 
L 462 494.86505 
L 467.636364 496.940627 
" style="fill:none;stroke:#b22222;stroke-linecap:round;stroke-width:1.75;"/>
   </g>
   <g id="line2d_32">
    <path clip-path="url(#pfef68b9d9f)" d="M 152 512.64 
L 152 311.04 
" style="fill:none;stroke:#4c72b0;stroke-linecap:round;stroke-width:1.75;"/>
   </g>
   <g id="patch_6">
    <path d="M 90 512.64 
L 90 311.04 
" style="fill:none;stroke:#262626;stroke-linecap:square;stroke-linejoin:miter;stroke-width:1.25;"/>
   </g>
   <g id="patch_7">
    <path d="M 90 512.64 
L 648 512.64 
" style="fill:none;stroke:#262626;stroke-linecap:square;stroke-linejoin:miter;stroke-width:1.25;"/>
   </g>
   <g id="text_30">
    <!-- f = 690 Hz -->
    <defs>
     <path d="M 8.6875 0 
L 8.6875 45.015625 
L 0.921875 45.015625 
L 0.921875 51.859375 
L 8.6875 51.859375 
L 8.6875 57.375 
Q 8.6875 62.59375 9.625 65.140625 
Q 10.890625 68.5625 14.078125 70.671875 
Q 17.28125 72.796875 23.046875 72.796875 
Q 26.765625 72.796875 31.25 71.921875 
L 29.9375 64.265625 
Q 27.203125 64.75 24.75 64.75 
Q 20.75 64.75 19.09375 63.03125 
Q 17.4375 61.328125 17.4375 56.640625 
L 17.4375 51.859375 
L 27.546875 51.859375 
L 27.546875 45.015625 
L 17.4375 45.015625 
L 17.4375 0 
z
" id="ArialMT-66"/>
     <path id="ArialMT-20"/>
     <path d="M 52.828125 42.09375 
L 5.5625 42.09375 
L 5.5625 50.296875 
L 52.828125 50.296875 
z
M 52.828125 20.359375 
L 5.5625 20.359375 
L 5.5625 28.5625 
L 52.828125 28.5625 
z
" id="ArialMT-3d"/>
     <path d="M 5.46875 16.546875 
L 13.921875 17.328125 
Q 14.984375 11.375 18.015625 8.6875 
Q 21.046875 6 25.78125 6 
Q 29.828125 6 32.875 7.859375 
Q 35.9375 9.71875 37.890625 12.8125 
Q 39.84375 15.921875 41.15625 21.1875 
Q 42.484375 26.46875 42.484375 31.9375 
Q 42.484375 32.515625 42.4375 33.6875 
Q 39.796875 29.5 35.234375 26.875 
Q 30.671875 24.265625 25.34375 24.265625 
Q 16.453125 24.265625 10.296875 30.703125 
Q 4.15625 37.15625 4.15625 47.703125 
Q 4.15625 58.59375 10.578125 65.234375 
Q 17 71.875 26.65625 71.875 
Q 33.640625 71.875 39.421875 68.109375 
Q 45.21875 64.359375 48.21875 57.390625 
Q 51.21875 50.4375 51.21875 37.25 
Q 51.21875 23.53125 48.234375 15.40625 
Q 45.265625 7.28125 39.375 3.03125 
Q 33.5 -1.21875 25.59375 -1.21875 
Q 17.1875 -1.21875 11.859375 3.4375 
Q 6.546875 8.109375 5.46875 16.546875 
z
M 41.453125 48.140625 
Q 41.453125 55.71875 37.421875 60.15625 
Q 33.40625 64.59375 27.734375 64.59375 
Q 21.875 64.59375 17.53125 59.8125 
Q 13.1875 55.03125 13.1875 47.40625 
Q 13.1875 40.578125 17.3125 36.296875 
Q 21.4375 32.03125 27.484375 32.03125 
Q 33.59375 32.03125 37.515625 36.296875 
Q 41.453125 40.578125 41.453125 48.140625 
z
" id="ArialMT-39"/>
     <path d="M 8.015625 0 
L 8.015625 71.578125 
L 17.484375 71.578125 
L 17.484375 42.1875 
L 54.6875 42.1875 
L 54.6875 71.578125 
L 64.15625 71.578125 
L 64.15625 0 
L 54.6875 0 
L 54.6875 33.734375 
L 17.484375 33.734375 
L 17.484375 0 
z
" id="ArialMT-48"/>
     <path d="M 1.953125 0 
L 1.953125 7.125 
L 34.96875 45.015625 
Q 29.34375 44.734375 25.046875 44.734375 
L 3.90625 44.734375 
L 3.90625 51.859375 
L 46.296875 51.859375 
L 46.296875 46.046875 
L 18.21875 13.140625 
L 12.796875 7.125 
Q 18.703125 7.5625 23.875 7.5625 
L 47.859375 7.5625 
L 47.859375 0 
z
" id="ArialMT-7a"/>
    </defs>
    <g style="fill:#262626;" transform="translate(529.636364 403.742188)scale(0.12 -0.12)">
     <use xlink:href="#ArialMT-66"/>
     <use x="27.783203" xlink:href="#ArialMT-20"/>
     <use x="55.566406" xlink:href="#ArialMT-3d"/>
     <use x="113.964844" xlink:href="#ArialMT-20"/>
     <use x="141.748047" xlink:href="#ArialMT-36"/>
     <use x="197.363281" xlink:href="#ArialMT-39"/>
     <use x="252.978516" xlink:href="#ArialMT-30"/>
     <use x="308.59375" xlink:href="#ArialMT-20"/>
     <use x="336.376953" xlink:href="#ArialMT-48"/>
     <use x="408.59375" xlink:href="#ArialMT-7a"/>
    </g>
   </g>
   <g id="PathCollection_1">
    <defs>
     <path d="M 0 3.5 
C 0.928211 3.5 1.81853 3.131218 2.474874 2.474874 
C 3.131218 1.81853 3.5 0.928211 3.5 0 
C 3.5 -0.928211 3.131218 -1.81853 2.474874 -2.474874 
C 1.81853 -3.131218 0.928211 -3.5 0 -3.5 
C -0.928211 -3.5 -1.81853 -3.131218 -2.474874 -2.474874 
C -3.131218 -1.81853 -3.5 -0.928211 -3.5 0 
C -3.5 0.928211 -3.131218 1.81853 -2.474874 2.474874 
C -1.81853 3.131218 -0.928211 3.5 0 3.5 
z
" id="mcdd85166d5" style="stroke:#800000;stroke-width:0.3;"/>
    </defs>
    <g clip-path="url(#pfef68b9d9f)">
     <use style="fill:#800000;stroke:#800000;stroke-width:0.3;" x="467.636364" xlink:href="#mcdd85166d5" y="496.940627"/>
    </g>
   </g>
  </g>
 </g>
 <defs>
  <clipPath id="p67545423fa">
   <rect height="201.6" width="558" x="90" y="69.12"/>
  </clipPath>
  <clipPath id="pfef68b9d9f">
   <rect height="201.6" width="558" x="90" y="311.04"/>
  </clipPath>
 </defs>
</svg>
