<?xml version="1.0" encoding="utf-8" standalone="no"?>
<!DOCTYPE svg PUBLIC "-//W3C//DTD SVG 1.1//EN"
  "http://www.w3.org/Graphics/SVG/1.1/DTD/svg11.dtd">
<!-- Created with matplotlib (http://matplotlib.org/) -->
<svg height="576pt" version="1.1" viewBox="0 0 720 576" width="720pt" xmlns="http://www.w3.org/2000/svg" xmlns:xlink="http://www.w3.org/1999/xlink">
 <defs>
  <style type="text/css">
*{stroke-linecap:butt;stroke-linejoin:round;}
  </style>
 </defs>
 <g id="figure_1">
  <g id="patch_1">
   <path d="M 0 576 
L 720 576 
L 720 0 
L 0 0 
z
" style="fill:#ffffff;"/>
  </g>
  <g id="axes_1">
   <g id="patch_2">
    <path d="M 90 270.72 
L 648 270.72 
L 648 69.12 
L 90 69.12 
z
" style="fill:#ffffff;"/>
   </g>
   <g id="matplotlib.axis_1">
    <g id="xtick_1">
     <g id="line2d_1">
      <defs>
       <path d="M 0 0 
L 0 6 
" id="m2ffb5cbcda" style="stroke:#262626;"/>
      </defs>
      <g>
       <use style="fill:#262626;stroke:#262626;" x="90" xlink:href="#m2ffb5cbcda" y="270.72"/>
      </g>
     </g>
     <g id="text_1">
      <!-- 0 -->
      <defs>
       <path d="M 4.15625 35.296875 
Q 4.15625 48 6.765625 55.734375 
Q 9.375 63.484375 14.515625 67.671875 
Q 19.671875 71.875 27.484375 71.875 
Q 33.25 71.875 37.59375 69.546875 
Q 41.9375 67.234375 44.765625 62.859375 
Q 47.609375 58.5 49.21875 52.21875 
Q 50.828125 45.953125 50.828125 35.296875 
Q 50.828125 22.703125 48.234375 14.96875 
Q 45.65625 7.234375 40.5 3 
Q 35.359375 -1.21875 27.484375 -1.21875 
Q 17.140625 -1.21875 11.234375 6.203125 
Q 4.15625 15.140625 4.15625 35.296875 
z
M 13.1875 35.296875 
Q 13.1875 17.671875 17.3125 11.828125 
Q 21.4375 6 27.484375 6 
Q 33.546875 6 37.671875 11.859375 
Q 41.796875 17.71875 41.796875 35.296875 
Q 41.796875 52.984375 37.671875 58.78125 
Q 33.546875 64.59375 27.390625 64.59375 
Q 21.34375 64.59375 17.71875 59.46875 
Q 13.1875 52.9375 13.1875 35.296875 
z
" id="ArialMT-30"/>
      </defs>
      <g style="fill:#262626;" transform="translate(87.219531 290.877812)scale(0.1 -0.1)">
       <use xlink:href="#ArialMT-30"/>
      </g>
     </g>
    </g>
    <g id="xtick_2">
     <g id="line2d_2">
      <g>
       <use style="fill:#262626;stroke:#262626;" x="159.75" xlink:href="#m2ffb5cbcda" y="270.72"/>
      </g>
     </g>
     <g id="text_2">
      <!-- 100 -->
      <defs>
       <path d="M 37.25 0 
L 28.46875 0 
L 28.46875 56 
Q 25.296875 52.984375 20.140625 49.953125 
Q 14.984375 46.921875 10.890625 45.40625 
L 10.890625 53.90625 
Q 18.265625 57.375 23.78125 62.296875 
Q 29.296875 67.234375 31.59375 71.875 
L 37.25 71.875 
z
" id="ArialMT-31"/>
      </defs>
      <g style="fill:#262626;" transform="translate(151.408594 290.877812)scale(0.1 -0.1)">
       <use xlink:href="#ArialMT-31"/>
       <use x="55.615234" xlink:href="#ArialMT-30"/>
       <use x="111.230469" xlink:href="#ArialMT-30"/>
      </g>
     </g>
    </g>
    <g id="xtick_3">
     <g id="line2d_3">
      <g>
       <use style="fill:#262626;stroke:#262626;" x="229.5" xlink:href="#m2ffb5cbcda" y="270.72"/>
      </g>
     </g>
     <g id="text_3">
      <!-- 200 -->
      <defs>
       <path d="M 50.34375 8.453125 
L 50.34375 0 
L 3.03125 0 
Q 2.9375 3.171875 4.046875 6.109375 
Q 5.859375 10.9375 9.828125 15.625 
Q 13.8125 20.3125 21.34375 26.46875 
Q 33.015625 36.03125 37.109375 41.625 
Q 41.21875 47.21875 41.21875 52.203125 
Q 41.21875 57.421875 37.46875 61 
Q 33.734375 64.59375 27.734375 64.59375 
Q 21.390625 64.59375 17.578125 60.78125 
Q 13.765625 56.984375 13.71875 50.25 
L 4.6875 51.171875 
Q 5.609375 61.28125 11.65625 66.578125 
Q 17.71875 71.875 27.9375 71.875 
Q 38.234375 71.875 44.234375 66.15625 
Q 50.25 60.453125 50.25 52 
Q 50.25 47.703125 48.484375 43.546875 
Q 46.734375 39.40625 42.65625 34.8125 
Q 38.578125 30.21875 29.109375 22.21875 
Q 21.1875 15.578125 18.9375 13.203125 
Q 16.703125 10.84375 15.234375 8.453125 
z
" id="ArialMT-32"/>
      </defs>
      <g style="fill:#262626;" transform="translate(221.158594 290.877812)scale(0.1 -0.1)">
       <use xlink:href="#ArialMT-32"/>
       <use x="55.615234" xlink:href="#ArialMT-30"/>
       <use x="111.230469" xlink:href="#ArialMT-30"/>
      </g>
     </g>
    </g>
    <g id="xtick_4">
     <g id="line2d_4">
      <g>
       <use style="fill:#262626;stroke:#262626;" x="299.25" xlink:href="#m2ffb5cbcda" y="270.72"/>
      </g>
     </g>
     <g id="text_4">
      <!-- 300 -->
      <defs>
       <path d="M 4.203125 18.890625 
L 12.984375 20.0625 
Q 14.5 12.59375 18.140625 9.296875 
Q 21.78125 6 27 6 
Q 33.203125 6 37.46875 10.296875 
Q 41.75 14.59375 41.75 20.953125 
Q 41.75 27 37.796875 30.921875 
Q 33.84375 34.859375 27.734375 34.859375 
Q 25.25 34.859375 21.53125 33.890625 
L 22.515625 41.609375 
Q 23.390625 41.5 23.921875 41.5 
Q 29.546875 41.5 34.03125 44.421875 
Q 38.53125 47.359375 38.53125 53.46875 
Q 38.53125 58.296875 35.25 61.46875 
Q 31.984375 64.65625 26.8125 64.65625 
Q 21.6875 64.65625 18.265625 61.421875 
Q 14.84375 58.203125 13.875 51.765625 
L 5.078125 53.328125 
Q 6.6875 62.15625 12.390625 67.015625 
Q 18.109375 71.875 26.609375 71.875 
Q 32.46875 71.875 37.390625 69.359375 
Q 42.328125 66.84375 44.9375 62.5 
Q 47.5625 58.15625 47.5625 53.265625 
Q 47.5625 48.640625 45.0625 44.828125 
Q 42.578125 41.015625 37.703125 38.765625 
Q 44.046875 37.3125 47.5625 32.6875 
Q 51.078125 28.078125 51.078125 21.140625 
Q 51.078125 11.765625 44.234375 5.25 
Q 37.40625 -1.265625 26.953125 -1.265625 
Q 17.53125 -1.265625 11.296875 4.34375 
Q 5.078125 9.96875 4.203125 18.890625 
z
" id="ArialMT-33"/>
      </defs>
      <g style="fill:#262626;" transform="translate(290.908594 290.877812)scale(0.1 -0.1)">
       <use xlink:href="#ArialMT-33"/>
       <use x="55.615234" xlink:href="#ArialMT-30"/>
       <use x="111.230469" xlink:href="#ArialMT-30"/>
      </g>
     </g>
    </g>
    <g id="xtick_5">
     <g id="line2d_5">
      <g>
       <use style="fill:#262626;stroke:#262626;" x="369" xlink:href="#m2ffb5cbcda" y="270.72"/>
      </g>
     </g>
     <g id="text_5">
      <!-- 400 -->
      <defs>
       <path d="M 32.328125 0 
L 32.328125 17.140625 
L 1.265625 17.140625 
L 1.265625 25.203125 
L 33.9375 71.578125 
L 41.109375 71.578125 
L 41.109375 25.203125 
L 50.78125 25.203125 
L 50.78125 17.140625 
L 41.109375 17.140625 
L 41.109375 0 
z
M 32.328125 25.203125 
L 32.328125 57.46875 
L 9.90625 25.203125 
z
" id="ArialMT-34"/>
      </defs>
      <g style="fill:#262626;" transform="translate(360.658594 290.877812)scale(0.1 -0.1)">
       <use xlink:href="#ArialMT-34"/>
       <use x="55.615234" xlink:href="#ArialMT-30"/>
       <use x="111.230469" xlink:href="#ArialMT-30"/>
      </g>
     </g>
    </g>
    <g id="xtick_6">
     <g id="line2d_6">
      <g>
       <use style="fill:#262626;stroke:#262626;" x="438.75" xlink:href="#m2ffb5cbcda" y="270.72"/>
      </g>
     </g>
     <g id="text_6">
      <!-- 500 -->
      <defs>
       <path d="M 4.15625 18.75 
L 13.375 19.53125 
Q 14.40625 12.796875 18.140625 9.390625 
Q 21.875 6 27.15625 6 
Q 33.5 6 37.890625 10.78125 
Q 42.28125 15.578125 42.28125 23.484375 
Q 42.28125 31 38.0625 35.34375 
Q 33.84375 39.703125 27 39.703125 
Q 22.75 39.703125 19.328125 37.765625 
Q 15.921875 35.84375 13.96875 32.765625 
L 5.71875 33.84375 
L 12.640625 70.609375 
L 48.25 70.609375 
L 48.25 62.203125 
L 19.671875 62.203125 
L 15.828125 42.96875 
Q 22.265625 47.46875 29.34375 47.46875 
Q 38.71875 47.46875 45.15625 40.96875 
Q 51.609375 34.46875 51.609375 24.265625 
Q 51.609375 14.546875 45.953125 7.46875 
Q 39.0625 -1.21875 27.15625 -1.21875 
Q 17.390625 -1.21875 11.203125 4.25 
Q 5.03125 9.71875 4.15625 18.75 
z
" id="ArialMT-35"/>
      </defs>
      <g style="fill:#262626;" transform="translate(430.408594 290.877812)scale(0.1 -0.1)">
       <use xlink:href="#ArialMT-35"/>
       <use x="55.615234" xlink:href="#ArialMT-30"/>
       <use x="111.230469" xlink:href="#ArialMT-30"/>
      </g>
     </g>
    </g>
    <g id="xtick_7">
     <g id="line2d_7">
      <g>
       <use style="fill:#262626;stroke:#262626;" x="508.5" xlink:href="#m2ffb5cbcda" y="270.72"/>
      </g>
     </g>
     <g id="text_7">
      <!-- 600 -->
      <defs>
       <path d="M 49.75 54.046875 
L 41.015625 53.375 
Q 39.84375 58.546875 37.703125 60.890625 
Q 34.125 64.65625 28.90625 64.65625 
Q 24.703125 64.65625 21.53125 62.3125 
Q 17.390625 59.28125 14.984375 53.46875 
Q 12.59375 47.65625 12.5 36.921875 
Q 15.671875 41.75 20.265625 44.09375 
Q 24.859375 46.4375 29.890625 46.4375 
Q 38.671875 46.4375 44.84375 39.96875 
Q 51.03125 33.5 51.03125 23.25 
Q 51.03125 16.5 48.125 10.71875 
Q 45.21875 4.9375 40.140625 1.859375 
Q 35.0625 -1.21875 28.609375 -1.21875 
Q 17.625 -1.21875 10.6875 6.859375 
Q 3.765625 14.9375 3.765625 33.5 
Q 3.765625 54.25 11.421875 63.671875 
Q 18.109375 71.875 29.4375 71.875 
Q 37.890625 71.875 43.28125 67.140625 
Q 48.6875 62.40625 49.75 54.046875 
z
M 13.875 23.1875 
Q 13.875 18.65625 15.796875 14.5 
Q 17.71875 10.359375 21.1875 8.171875 
Q 24.65625 6 28.46875 6 
Q 34.03125 6 38.03125 10.484375 
Q 42.046875 14.984375 42.046875 22.703125 
Q 42.046875 30.125 38.078125 34.390625 
Q 34.125 38.671875 28.125 38.671875 
Q 22.171875 38.671875 18.015625 34.390625 
Q 13.875 30.125 13.875 23.1875 
z
" id="ArialMT-36"/>
      </defs>
      <g style="fill:#262626;" transform="translate(500.158594 290.877812)scale(0.1 -0.1)">
       <use xlink:href="#ArialMT-36"/>
       <use x="55.615234" xlink:href="#ArialMT-30"/>
       <use x="111.230469" xlink:href="#ArialMT-30"/>
      </g>
     </g>
    </g>
    <g id="xtick_8">
     <g id="line2d_8">
      <g>
       <use style="fill:#262626;stroke:#262626;" x="578.25" xlink:href="#m2ffb5cbcda" y="270.72"/>
      </g>
     </g>
     <g id="text_8">
      <!-- 700 -->
      <defs>
       <path d="M 4.734375 62.203125 
L 4.734375 70.65625 
L 51.078125 70.65625 
L 51.078125 63.8125 
Q 44.234375 56.546875 37.515625 44.484375 
Q 30.8125 32.421875 27.15625 19.671875 
Q 24.515625 10.6875 23.78125 0 
L 14.75 0 
Q 14.890625 8.453125 18.0625 20.40625 
Q 21.234375 32.375 27.171875 43.484375 
Q 33.109375 54.59375 39.796875 62.203125 
z
" id="ArialMT-37"/>
      </defs>
      <g style="fill:#262626;" transform="translate(569.908594 290.877812)scale(0.1 -0.1)">
       <use xlink:href="#ArialMT-37"/>
       <use x="55.615234" xlink:href="#ArialMT-30"/>
       <use x="111.230469" xlink:href="#ArialMT-30"/>
      </g>
     </g>
    </g>
    <g id="xtick_9">
     <g id="line2d_9">
      <g>
       <use style="fill:#262626;stroke:#262626;" x="648" xlink:href="#m2ffb5cbcda" y="270.72"/>
      </g>
     </g>
     <g id="text_9">
      <!-- 800 -->
      <defs>
       <path d="M 17.671875 38.8125 
Q 12.203125 40.828125 9.5625 44.53125 
Q 6.9375 48.25 6.9375 53.421875 
Q 6.9375 61.234375 12.546875 66.546875 
Q 18.171875 71.875 27.484375 71.875 
Q 36.859375 71.875 42.578125 66.421875 
Q 48.296875 60.984375 48.296875 53.171875 
Q 48.296875 48.1875 45.671875 44.5 
Q 43.0625 40.828125 37.75 38.8125 
Q 44.34375 36.671875 47.78125 31.875 
Q 51.21875 27.09375 51.21875 20.453125 
Q 51.21875 11.28125 44.71875 5.03125 
Q 38.234375 -1.21875 27.640625 -1.21875 
Q 17.046875 -1.21875 10.546875 5.046875 
Q 4.046875 11.328125 4.046875 20.703125 
Q 4.046875 27.6875 7.59375 32.390625 
Q 11.140625 37.109375 17.671875 38.8125 
z
M 15.921875 53.71875 
Q 15.921875 48.640625 19.1875 45.40625 
Q 22.46875 42.1875 27.6875 42.1875 
Q 32.765625 42.1875 36.015625 45.375 
Q 39.265625 48.578125 39.265625 53.21875 
Q 39.265625 58.0625 35.90625 61.359375 
Q 32.5625 64.65625 27.59375 64.65625 
Q 22.5625 64.65625 19.234375 61.421875 
Q 15.921875 58.203125 15.921875 53.71875 
z
M 13.09375 20.65625 
Q 13.09375 16.890625 14.875 13.375 
Q 16.65625 9.859375 20.171875 7.921875 
Q 23.6875 6 27.734375 6 
Q 34.03125 6 38.125 10.046875 
Q 42.234375 14.109375 42.234375 20.359375 
Q 42.234375 26.703125 38.015625 30.859375 
Q 33.796875 35.015625 27.4375 35.015625 
Q 21.234375 35.015625 17.15625 30.90625 
Q 13.09375 26.8125 13.09375 20.65625 
z
" id="ArialMT-38"/>
      </defs>
      <g style="fill:#262626;" transform="translate(639.658594 290.877812)scale(0.1 -0.1)">
       <use xlink:href="#ArialMT-38"/>
       <use x="55.615234" xlink:href="#ArialMT-30"/>
       <use x="111.230469" xlink:href="#ArialMT-30"/>
      </g>
     </g>
    </g>
   </g>
   <g id="matplotlib.axis_2">
    <g id="ytick_1">
     <g id="line2d_10">
      <defs>
       <path d="M 0 0 
L -6 0 
" id="m9d70976493" style="stroke:#262626;"/>
      </defs>
      <g>
       <use style="fill:#262626;stroke:#262626;" x="90" xlink:href="#m9d70976493" y="250.56"/>
      </g>
     </g>
     <g id="text_10">
      <!-- −0.04 -->
      <defs>
       <path d="M 52.828125 31.203125 
L 5.5625 31.203125 
L 5.5625 39.40625 
L 52.828125 39.40625 
z
" id="ArialMT-2212"/>
       <path d="M 9.078125 0 
L 9.078125 10.015625 
L 19.09375 10.015625 
L 19.09375 0 
z
" id="ArialMT-2e"/>
      </defs>
      <g style="fill:#262626;" transform="translate(51.698437 254.138906)scale(0.1 -0.1)">
       <use xlink:href="#ArialMT-2212"/>
       <use x="58.398438" xlink:href="#ArialMT-30"/>
       <use x="114.013672" xlink:href="#ArialMT-2e"/>
       <use x="141.796875" xlink:href="#ArialMT-30"/>
       <use x="197.412109" xlink:href="#ArialMT-34"/>
      </g>
     </g>
    </g>
    <g id="ytick_2">
     <g id="line2d_11">
      <g>
       <use style="fill:#262626;stroke:#262626;" x="90" xlink:href="#m9d70976493" y="210.24"/>
      </g>
     </g>
     <g id="text_11">
      <!-- −0.02 -->
      <g style="fill:#262626;" transform="translate(51.698437 213.818906)scale(0.1 -0.1)">
       <use xlink:href="#ArialMT-2212"/>
       <use x="58.398438" xlink:href="#ArialMT-30"/>
       <use x="114.013672" xlink:href="#ArialMT-2e"/>
       <use x="141.796875" xlink:href="#ArialMT-30"/>
       <use x="197.412109" xlink:href="#ArialMT-32"/>
      </g>
     </g>
    </g>
    <g id="ytick_3">
     <g id="line2d_12">
      <g>
       <use style="fill:#262626;stroke:#262626;" x="90" xlink:href="#m9d70976493" y="169.92"/>
      </g>
     </g>
     <g id="text_12">
      <!-- 0.00 -->
      <g style="fill:#262626;" transform="translate(57.539062 173.498906)scale(0.1 -0.1)">
       <use xlink:href="#ArialMT-30"/>
       <use x="55.615234" xlink:href="#ArialMT-2e"/>
       <use x="83.398438" xlink:href="#ArialMT-30"/>
       <use x="139.013672" xlink:href="#ArialMT-30"/>
      </g>
     </g>
    </g>
    <g id="ytick_4">
     <g id="line2d_13">
      <g>
       <use style="fill:#262626;stroke:#262626;" x="90" xlink:href="#m9d70976493" y="129.6"/>
      </g>
     </g>
     <g id="text_13">
      <!-- 0.02 -->
      <g style="fill:#262626;" transform="translate(57.539062 133.178906)scale(0.1 -0.1)">
       <use xlink:href="#ArialMT-30"/>
       <use x="55.615234" xlink:href="#ArialMT-2e"/>
       <use x="83.398438" xlink:href="#ArialMT-30"/>
       <use x="139.013672" xlink:href="#ArialMT-32"/>
      </g>
     </g>
    </g>
    <g id="ytick_5">
     <g id="line2d_14">
      <g>
       <use style="fill:#262626;stroke:#262626;" x="90" xlink:href="#m9d70976493" y="89.28"/>
      </g>
     </g>
     <g id="text_14">
      <!-- 0.04 -->
      <g style="fill:#262626;" transform="translate(57.539062 92.858906)scale(0.1 -0.1)">
       <use xlink:href="#ArialMT-30"/>
       <use x="55.615234" xlink:href="#ArialMT-2e"/>
       <use x="83.398438" xlink:href="#ArialMT-30"/>
       <use x="139.013672" xlink:href="#ArialMT-34"/>
      </g>
     </g>
    </g>
   </g>
   <g id="PolyCollection_1">
    <path clip-path="url(#p9dc5a589f2)" d="M 90 168.480147 
L 90 169.92 
L 90.6975 169.92 
L 91.395 169.92 
L 92.0925 169.92 
L 92.79 169.92 
L 93.4875 169.92 
L 94.185 169.92 
L 94.8825 169.92 
L 95.58 169.92 
L 96.2775 169.92 
L 96.975 169.92 
L 97.6725 169.92 
L 98.37 169.92 
L 99.0675 169.92 
L 99.765 169.92 
L 100.4625 169.92 
L 101.16 169.92 
L 101.8575 169.92 
L 102.555 169.92 
L 103.2525 169.92 
L 103.95 169.92 
L 104.6475 169.92 
L 105.345 169.92 
L 106.0425 169.92 
L 106.74 169.92 
L 107.4375 169.92 
L 108.135 169.92 
L 108.8325 169.92 
L 109.53 169.92 
L 110.2275 169.92 
L 110.925 169.92 
L 111.6225 169.92 
L 112.32 169.92 
L 113.0175 169.92 
L 113.715 169.92 
L 114.4125 169.92 
L 115.11 169.92 
L 115.8075 169.92 
L 116.505 169.92 
L 117.2025 169.92 
L 117.9 169.92 
L 118.5975 169.92 
L 119.295 169.92 
L 119.9925 169.92 
L 120.69 169.92 
L 121.3875 169.92 
L 122.085 169.92 
L 122.7825 169.92 
L 123.48 169.92 
L 124.1775 169.92 
L 124.875 169.92 
L 125.5725 169.92 
L 126.27 169.92 
L 126.9675 169.92 
L 127.665 169.92 
L 128.3625 169.92 
L 129.06 169.92 
L 129.7575 169.92 
L 130.455 169.92 
L 131.1525 169.92 
L 131.85 169.92 
L 132.5475 169.92 
L 133.245 169.92 
L 133.9425 169.92 
L 134.64 169.92 
L 135.3375 169.92 
L 136.035 169.92 
L 136.7325 169.92 
L 137.43 169.92 
L 138.1275 169.92 
L 138.825 169.92 
L 139.5225 169.92 
L 140.22 169.92 
L 140.9175 169.92 
L 141.615 169.92 
L 142.3125 169.92 
L 143.01 169.92 
L 143.7075 169.92 
L 144.405 169.92 
L 145.1025 169.92 
L 145.8 169.92 
L 146.4975 169.92 
L 147.195 169.92 
L 147.8925 169.92 
L 148.59 169.92 
L 149.2875 169.92 
L 149.985 169.92 
L 150.6825 169.92 
L 151.38 169.92 
L 152.0775 169.92 
L 152.775 169.92 
L 153.4725 169.92 
L 154.17 169.92 
L 154.8675 169.92 
L 155.565 169.92 
L 156.2625 169.92 
L 156.96 169.92 
L 157.6575 169.92 
L 158.355 169.92 
L 159.0525 169.92 
L 159.75 169.92 
L 160.4475 169.92 
L 161.145 169.92 
L 161.8425 169.92 
L 162.54 169.92 
L 163.2375 169.92 
L 163.935 169.92 
L 164.6325 169.92 
L 165.33 169.92 
L 166.0275 169.92 
L 166.725 169.92 
L 167.4225 169.92 
L 168.12 169.92 
L 168.8175 169.92 
L 169.515 169.92 
L 170.2125 169.92 
L 170.91 169.92 
L 171.6075 169.92 
L 172.305 169.92 
L 173.0025 169.92 
L 173.7 169.92 
L 174.3975 169.92 
L 175.095 169.92 
L 175.7925 169.92 
L 176.49 169.92 
L 177.1875 169.92 
L 177.885 169.92 
L 178.5825 169.92 
L 179.28 169.92 
L 179.9775 169.92 
L 180.675 169.92 
L 181.3725 169.92 
L 182.07 169.92 
L 182.7675 169.92 
L 183.465 169.92 
L 184.1625 169.92 
L 184.86 169.92 
L 185.5575 169.92 
L 186.255 169.92 
L 186.9525 169.92 
L 187.65 169.92 
L 188.3475 169.92 
L 189.045 169.92 
L 189.7425 169.92 
L 190.44 169.92 
L 191.1375 169.92 
L 191.835 169.92 
L 192.5325 169.92 
L 193.23 169.92 
L 193.9275 169.92 
L 194.625 169.92 
L 195.3225 169.92 
L 196.02 169.92 
L 196.7175 169.92 
L 197.415 169.92 
L 198.1125 169.92 
L 198.81 169.92 
L 199.5075 169.92 
L 200.205 169.92 
L 200.9025 169.92 
L 201.6 169.92 
L 202.2975 169.92 
L 202.995 169.92 
L 203.6925 169.92 
L 204.39 169.92 
L 205.0875 169.92 
L 205.785 169.92 
L 206.4825 169.92 
L 207.18 169.92 
L 207.8775 169.92 
L 208.575 169.92 
L 209.2725 169.92 
L 209.97 169.92 
L 210.6675 169.92 
L 211.365 169.92 
L 212.0625 169.92 
L 212.76 169.92 
L 213.4575 169.92 
L 214.155 169.92 
L 214.8525 169.92 
L 215.55 169.92 
L 216.2475 169.92 
L 216.945 169.92 
L 217.6425 169.92 
L 218.34 169.92 
L 219.0375 169.92 
L 219.735 169.92 
L 220.4325 169.92 
L 221.13 169.92 
L 221.8275 169.92 
L 222.525 169.92 
L 223.2225 169.92 
L 223.92 169.92 
L 224.6175 169.92 
L 225.315 169.92 
L 226.0125 169.92 
L 226.71 169.92 
L 227.4075 169.92 
L 228.105 169.92 
L 228.8025 169.92 
L 229.5 169.92 
L 230.1975 169.92 
L 230.895 169.92 
L 231.5925 169.92 
L 232.29 169.92 
L 232.9875 169.92 
L 233.685 169.92 
L 234.3825 169.92 
L 235.08 169.92 
L 235.7775 169.92 
L 236.475 169.92 
L 237.1725 169.92 
L 237.87 169.92 
L 238.5675 169.92 
L 239.265 169.92 
L 239.9625 169.92 
L 240.66 169.92 
L 241.3575 169.92 
L 242.055 169.92 
L 242.7525 169.92 
L 243.45 169.92 
L 244.1475 169.92 
L 244.845 169.92 
L 245.5425 169.92 
L 246.24 169.92 
L 246.9375 169.92 
L 247.635 169.92 
L 248.3325 169.92 
L 249.03 169.92 
L 249.7275 169.92 
L 250.425 169.92 
L 251.1225 169.92 
L 251.82 169.92 
L 252.5175 169.92 
L 253.215 169.92 
L 253.9125 169.92 
L 254.61 169.92 
L 255.3075 169.92 
L 256.005 169.92 
L 256.7025 169.92 
L 257.4 169.92 
L 258.0975 169.92 
L 258.795 169.92 
L 259.4925 169.92 
L 260.19 169.92 
L 260.8875 169.92 
L 261.585 169.92 
L 262.2825 169.92 
L 262.98 169.92 
L 263.6775 169.92 
L 264.375 169.92 
L 265.0725 169.92 
L 265.77 169.92 
L 266.4675 169.92 
L 267.165 169.92 
L 267.8625 169.92 
L 268.56 169.92 
L 269.2575 169.92 
L 269.955 169.92 
L 270.6525 169.92 
L 271.35 169.92 
L 272.0475 169.92 
L 272.745 169.92 
L 273.4425 169.92 
L 274.14 169.92 
L 274.8375 169.92 
L 275.535 169.92 
L 276.2325 169.92 
L 276.93 169.92 
L 277.6275 169.92 
L 278.325 169.92 
L 279.0225 169.92 
L 279.72 169.92 
L 280.4175 169.92 
L 281.115 169.92 
L 281.8125 169.92 
L 282.51 169.92 
L 283.2075 169.92 
L 283.905 169.92 
L 284.6025 169.92 
L 285.3 169.92 
L 285.9975 169.92 
L 286.695 169.92 
L 287.3925 169.92 
L 288.09 169.92 
L 288.7875 169.92 
L 289.485 169.92 
L 290.1825 169.92 
L 290.88 169.92 
L 291.5775 169.92 
L 292.275 169.92 
L 292.9725 169.92 
L 293.67 169.92 
L 294.3675 169.92 
L 295.065 169.92 
L 295.7625 169.92 
L 296.46 169.92 
L 297.1575 169.92 
L 297.855 169.92 
L 298.5525 169.92 
L 299.25 169.92 
L 299.9475 169.92 
L 300.645 169.92 
L 301.3425 169.92 
L 302.04 169.92 
L 302.7375 169.92 
L 303.435 169.92 
L 304.1325 169.92 
L 304.83 169.92 
L 305.5275 169.92 
L 306.225 169.92 
L 306.9225 169.92 
L 307.62 169.92 
L 308.3175 169.92 
L 309.015 169.92 
L 309.7125 169.92 
L 310.41 169.92 
L 311.1075 169.92 
L 311.805 169.92 
L 312.5025 169.92 
L 313.2 169.92 
L 313.8975 169.92 
L 314.595 169.92 
L 315.2925 169.92 
L 315.99 169.92 
L 316.6875 169.92 
L 317.385 169.92 
L 318.0825 169.92 
L 318.78 169.92 
L 319.4775 169.92 
L 320.175 169.92 
L 320.8725 169.92 
L 321.57 169.92 
L 322.2675 169.92 
L 322.965 169.92 
L 323.6625 169.92 
L 324.36 169.92 
L 325.0575 169.92 
L 325.755 169.92 
L 326.4525 169.92 
L 327.15 169.92 
L 327.8475 169.92 
L 328.545 169.92 
L 329.2425 169.92 
L 329.94 169.92 
L 330.6375 169.92 
L 331.335 169.92 
L 332.0325 169.92 
L 332.73 169.92 
L 333.4275 169.92 
L 334.125 169.92 
L 334.8225 169.92 
L 335.52 169.92 
L 336.2175 169.92 
L 336.915 169.92 
L 337.6125 169.92 
L 338.31 169.92 
L 339.0075 169.92 
L 339.705 169.92 
L 340.4025 169.92 
L 341.1 169.92 
L 341.7975 169.92 
L 342.495 169.92 
L 343.1925 169.92 
L 343.89 169.92 
L 344.5875 169.92 
L 345.285 169.92 
L 345.9825 169.92 
L 346.68 169.92 
L 347.3775 169.92 
L 348.075 169.92 
L 348.7725 169.92 
L 349.47 169.92 
L 350.1675 169.92 
L 350.865 169.92 
L 351.5625 169.92 
L 352.26 169.92 
L 352.9575 169.92 
L 353.655 169.92 
L 354.3525 169.92 
L 355.05 169.92 
L 355.7475 169.92 
L 356.445 169.92 
L 357.1425 169.92 
L 357.84 169.92 
L 358.5375 169.92 
L 359.235 169.92 
L 359.9325 169.92 
L 360.63 169.92 
L 361.3275 169.92 
L 362.025 169.92 
L 362.7225 169.92 
L 363.42 169.92 
L 364.1175 169.92 
L 364.815 169.92 
L 365.5125 169.92 
L 366.21 169.92 
L 366.9075 169.92 
L 367.605 169.92 
L 368.3025 169.92 
L 369 169.92 
L 369.6975 169.92 
L 370.395 169.92 
L 371.0925 169.92 
L 371.79 169.92 
L 372.4875 169.92 
L 373.185 169.92 
L 373.8825 169.92 
L 374.58 169.92 
L 375.2775 169.92 
L 375.975 169.92 
L 376.6725 169.92 
L 377.37 169.92 
L 378.0675 169.92 
L 378.765 169.92 
L 379.4625 169.92 
L 380.16 169.92 
L 380.8575 169.92 
L 381.555 169.92 
L 382.2525 169.92 
L 382.95 169.92 
L 383.6475 169.92 
L 384.345 169.92 
L 385.0425 169.92 
L 385.74 169.92 
L 386.4375 169.92 
L 387.135 169.92 
L 387.8325 169.92 
L 388.53 169.92 
L 389.2275 169.92 
L 389.925 169.92 
L 390.6225 169.92 
L 391.32 169.92 
L 392.0175 169.92 
L 392.715 169.92 
L 393.4125 169.92 
L 394.11 169.92 
L 394.8075 169.92 
L 395.505 169.92 
L 396.2025 169.92 
L 396.9 169.92 
L 397.5975 169.92 
L 398.295 169.92 
L 398.9925 169.92 
L 399.69 169.92 
L 400.3875 169.92 
L 401.085 169.92 
L 401.7825 169.92 
L 402.48 169.92 
L 403.1775 169.92 
L 403.875 169.92 
L 404.5725 169.92 
L 405.27 169.92 
L 405.9675 169.92 
L 406.665 169.92 
L 407.3625 169.92 
L 408.06 169.92 
L 408.7575 169.92 
L 409.455 169.92 
L 410.1525 169.92 
L 410.85 169.92 
L 411.5475 169.92 
L 412.245 169.92 
L 412.9425 169.92 
L 413.64 169.92 
L 414.3375 169.92 
L 415.035 169.92 
L 415.7325 169.92 
L 416.43 169.92 
L 417.1275 169.92 
L 417.825 169.92 
L 418.5225 169.92 
L 419.22 169.92 
L 419.9175 169.92 
L 420.615 169.92 
L 421.3125 169.92 
L 422.01 169.92 
L 422.7075 169.92 
L 423.405 169.92 
L 424.1025 169.92 
L 424.8 169.92 
L 425.4975 169.92 
L 426.195 169.92 
L 426.8925 169.92 
L 427.59 169.92 
L 428.2875 169.92 
L 428.985 169.92 
L 429.6825 169.92 
L 430.38 169.92 
L 431.0775 169.92 
L 431.775 169.92 
L 432.4725 169.92 
L 433.17 169.92 
L 433.8675 169.92 
L 434.565 169.92 
L 435.2625 169.92 
L 435.96 169.92 
L 436.6575 169.92 
L 437.355 169.92 
L 438.0525 169.92 
L 438.75 169.92 
L 439.4475 169.92 
L 440.145 169.92 
L 440.8425 169.92 
L 441.54 169.92 
L 442.2375 169.92 
L 442.935 169.92 
L 443.6325 169.92 
L 444.33 169.92 
L 445.0275 169.92 
L 445.725 169.92 
L 446.4225 169.92 
L 447.12 169.92 
L 447.8175 169.92 
L 448.515 169.92 
L 449.2125 169.92 
L 449.91 169.92 
L 450.6075 169.92 
L 451.305 169.92 
L 452.0025 169.92 
L 452.7 169.92 
L 453.3975 169.92 
L 454.095 169.92 
L 454.7925 169.92 
L 455.49 169.92 
L 456.1875 169.92 
L 456.885 169.92 
L 457.5825 169.92 
L 458.28 169.92 
L 458.9775 169.92 
L 459.675 169.92 
L 460.3725 169.92 
L 461.07 169.92 
L 461.7675 169.92 
L 462.465 169.92 
L 463.1625 169.92 
L 463.86 169.92 
L 464.5575 169.92 
L 465.255 169.92 
L 465.9525 169.92 
L 466.65 169.92 
L 467.3475 169.92 
L 468.045 169.92 
L 468.7425 169.92 
L 469.44 169.92 
L 470.1375 169.92 
L 470.835 169.92 
L 471.5325 169.92 
L 472.23 169.92 
L 472.9275 169.92 
L 473.625 169.92 
L 474.3225 169.92 
L 475.02 169.92 
L 475.7175 169.92 
L 476.415 169.92 
L 477.1125 169.92 
L 477.81 169.92 
L 478.5075 169.92 
L 479.205 169.92 
L 479.9025 169.92 
L 480.6 169.92 
L 481.2975 169.92 
L 481.995 169.92 
L 482.6925 169.92 
L 483.39 169.92 
L 484.0875 169.92 
L 484.785 169.92 
L 485.4825 169.92 
L 486.18 169.92 
L 486.8775 169.92 
L 487.575 169.92 
L 488.2725 169.92 
L 488.97 169.92 
L 489.6675 169.92 
L 490.365 169.92 
L 491.0625 169.92 
L 491.76 169.92 
L 492.4575 169.92 
L 493.155 169.92 
L 493.8525 169.92 
L 494.55 169.92 
L 495.2475 169.92 
L 495.945 169.92 
L 496.6425 169.92 
L 497.34 169.92 
L 498.0375 169.92 
L 498.735 169.92 
L 499.4325 169.92 
L 500.13 169.92 
L 500.8275 169.92 
L 501.525 169.92 
L 502.2225 169.92 
L 502.92 169.92 
L 503.6175 169.92 
L 504.315 169.92 
L 505.0125 169.92 
L 505.71 169.92 
L 506.4075 169.92 
L 507.105 169.92 
L 507.8025 169.92 
L 508.5 169.92 
L 509.1975 169.92 
L 509.895 169.92 
L 510.5925 169.92 
L 511.29 169.92 
L 511.9875 169.92 
L 512.685 169.92 
L 513.3825 169.92 
L 514.08 169.92 
L 514.7775 169.92 
L 515.475 169.92 
L 516.1725 169.92 
L 516.87 169.92 
L 517.5675 169.92 
L 518.265 169.92 
L 518.9625 169.92 
L 519.66 169.92 
L 520.3575 169.92 
L 521.055 169.92 
L 521.7525 169.92 
L 522.45 169.92 
L 523.1475 169.92 
L 523.845 169.92 
L 524.5425 169.92 
L 525.24 169.92 
L 525.9375 169.92 
L 526.635 169.92 
L 527.3325 169.92 
L 528.03 169.92 
L 528.7275 169.92 
L 529.425 169.92 
L 530.1225 169.92 
L 530.82 169.92 
L 531.5175 169.92 
L 532.215 169.92 
L 532.9125 169.92 
L 533.61 169.92 
L 534.3075 169.92 
L 535.005 169.92 
L 535.7025 169.92 
L 536.4 169.92 
L 537.0975 169.92 
L 537.795 169.92 
L 538.4925 169.92 
L 539.19 169.92 
L 539.8875 169.92 
L 540.585 169.92 
L 541.2825 169.92 
L 541.98 169.92 
L 542.6775 169.92 
L 543.375 169.92 
L 544.0725 169.92 
L 544.77 169.92 
L 545.4675 169.92 
L 546.165 169.92 
L 546.8625 169.92 
L 547.56 169.92 
L 548.2575 169.92 
L 548.955 169.92 
L 549.6525 169.92 
L 550.35 169.92 
L 551.0475 169.92 
L 551.745 169.92 
L 552.4425 169.92 
L 553.14 169.92 
L 553.8375 169.92 
L 554.535 169.92 
L 555.2325 169.92 
L 555.93 169.92 
L 556.6275 169.92 
L 557.325 169.92 
L 558.0225 169.92 
L 558.72 169.92 
L 559.4175 169.92 
L 560.115 169.92 
L 560.8125 169.92 
L 561.51 169.92 
L 562.2075 169.92 
L 562.905 169.92 
L 563.6025 169.92 
L 564.3 169.92 
L 564.9975 169.92 
L 565.695 169.92 
L 566.3925 169.92 
L 567.09 169.92 
L 567.7875 169.92 
L 568.485 169.92 
L 569.1825 169.92 
L 569.88 169.92 
L 570.5775 169.92 
L 571.275 169.92 
L 571.9725 169.92 
L 572.67 169.92 
L 573.3675 169.92 
L 574.065 169.92 
L 574.7625 169.92 
L 575.46 169.92 
L 576.1575 169.92 
L 576.855 169.92 
L 577.5525 169.92 
L 578.25 169.92 
L 578.9475 169.92 
L 579.645 169.92 
L 580.3425 169.92 
L 581.04 169.92 
L 581.7375 169.92 
L 582.435 169.92 
L 583.1325 169.92 
L 583.83 169.92 
L 584.5275 169.92 
L 585.225 169.92 
L 585.9225 169.92 
L 586.62 169.92 
L 587.3175 169.92 
L 588.015 169.92 
L 588.7125 169.92 
L 589.41 169.92 
L 590.1075 169.92 
L 590.805 169.92 
L 591.5025 169.92 
L 592.2 169.92 
L 592.8975 169.92 
L 593.595 169.92 
L 594.2925 169.92 
L 594.99 169.92 
L 595.6875 169.92 
L 596.385 169.92 
L 597.0825 169.92 
L 597.78 169.92 
L 598.4775 169.92 
L 599.175 169.92 
L 599.8725 169.92 
L 600.57 169.92 
L 601.2675 169.92 
L 601.965 169.92 
L 602.6625 169.92 
L 603.36 169.92 
L 604.0575 169.92 
L 604.755 169.92 
L 605.4525 169.92 
L 606.15 169.92 
L 606.8475 169.92 
L 607.545 169.92 
L 608.2425 169.92 
L 608.94 169.92 
L 609.6375 169.92 
L 610.335 169.92 
L 611.0325 169.92 
L 611.73 169.92 
L 612.4275 169.92 
L 613.125 169.92 
L 613.8225 169.92 
L 614.52 169.92 
L 615.2175 169.92 
L 615.915 169.92 
L 616.6125 169.92 
L 617.31 169.92 
L 618.0075 169.92 
L 618.705 169.92 
L 619.4025 169.92 
L 620.1 169.92 
L 620.7975 169.92 
L 621.495 169.92 
L 622.1925 169.92 
L 622.89 169.92 
L 623.5875 169.92 
L 624.285 169.92 
L 624.9825 169.92 
L 625.68 169.92 
L 626.3775 169.92 
L 627.075 169.92 
L 627.7725 169.92 
L 628.47 169.92 
L 629.1675 169.92 
L 629.865 169.92 
L 630.5625 169.92 
L 631.26 169.92 
L 631.9575 169.92 
L 632.655 169.92 
L 633.3525 169.92 
L 634.05 169.92 
L 634.7475 169.92 
L 635.445 169.92 
L 636.1425 169.92 
L 636.84 169.92 
L 637.5375 169.92 
L 638.235 169.92 
L 638.9325 169.92 
L 639.63 169.92 
L 640.3275 169.92 
L 641.025 169.92 
L 641.7225 169.92 
L 642.42 169.92 
L 643.1175 169.92 
L 643.815 169.92 
L 644.5125 169.92 
L 645.21 169.92 
L 645.9075 169.92 
L 646.605 169.92 
L 646.605 169.92 
L 646.605 169.92 
L 645.9075 169.973562 
L 645.21 170.11589 
L 644.5125 170.298041 
L 643.815 170.524256 
L 643.1175 170.804316 
L 642.42 171.11179 
L 641.7225 171.437843 
L 641.025 171.821075 
L 640.3275 172.234088 
L 639.63 172.667055 
L 638.9325 173.145673 
L 638.235 173.629745 
L 637.5375 174.138535 
L 636.84 174.65537 
L 636.1425 175.181353 
L 635.445 175.711551 
L 634.7475 176.23504 
L 634.05 176.735007 
L 633.3525 177.200812 
L 632.655 177.663794 
L 631.9575 178.095806 
L 631.26 178.504697 
L 630.5625 178.892585 
L 629.865 179.261782 
L 629.1675 179.573118 
L 628.47 179.853429 
L 627.7725 180.094136 
L 627.075 180.310834 
L 626.3775 180.465783 
L 625.68 180.581336 
L 624.9825 180.644505 
L 624.285 180.642795 
L 623.5875 180.617883 
L 622.89 180.534293 
L 622.1925 180.410663 
L 621.495 180.242203 
L 620.7975 180.018588 
L 620.1 179.724063 
L 619.4025 179.403049 
L 618.705 179.028801 
L 618.0075 178.61673 
L 617.31 178.152849 
L 616.6125 177.635556 
L 615.915 177.09946 
L 615.2175 176.519832 
L 614.52 175.908061 
L 613.8225 175.287737 
L 613.125 174.652776 
L 612.4275 173.997231 
L 611.73 173.333202 
L 611.0325 172.696674 
L 610.335 172.075761 
L 609.6375 171.458435 
L 608.94 170.868339 
L 608.2425 170.299104 
L 607.545 169.744168 
L 606.8475 169.238491 
L 606.15 168.780865 
L 605.4525 168.36368 
L 604.755 167.949189 
L 604.0575 167.594842 
L 603.36 167.256351 
L 602.6625 166.966647 
L 601.965 166.704644 
L 601.2675 166.4847 
L 600.57 166.302928 
L 599.8725 166.15508 
L 599.175 166.054446 
L 598.4775 165.966263 
L 597.78 165.938967 
L 597.0825 165.925205 
L 596.385 165.94891 
L 595.6875 165.997958 
L 594.99 166.071888 
L 594.2925 166.187861 
L 593.595 166.315034 
L 592.8975 166.470066 
L 592.2 166.63365 
L 591.5025 166.786399 
L 590.805 166.962586 
L 590.1075 167.154609 
L 589.41 167.348763 
L 588.7125 167.531325 
L 588.015 167.724389 
L 587.3175 167.932094 
L 586.62 168.128687 
L 585.9225 168.312325 
L 585.225 168.463431 
L 584.5275 168.59249 
L 583.83 168.710195 
L 583.1325 168.827345 
L 582.435 168.936888 
L 581.7375 169.025896 
L 581.04 169.093533 
L 580.3425 169.139166 
L 579.645 169.144511 
L 578.9475 169.127374 
L 578.25 169.07006 
L 577.5525 168.973108 
L 576.855 168.867183 
L 576.1575 168.71757 
L 575.46 168.567333 
L 574.7625 168.364318 
L 574.065 168.122333 
L 573.3675 167.855549 
L 572.67 167.548614 
L 571.9725 167.246068 
L 571.275 166.92099 
L 570.5775 166.570478 
L 569.88 166.191869 
L 569.1825 165.81847 
L 568.485 165.418076 
L 567.7875 164.994441 
L 567.09 164.587247 
L 566.3925 164.176507 
L 565.695 163.766075 
L 564.9975 163.371702 
L 564.3 163.014941 
L 563.6025 162.675333 
L 562.905 162.34416 
L 562.2075 162.060237 
L 561.51 161.80242 
L 560.8125 161.585032 
L 560.115 161.416061 
L 559.4175 161.291142 
L 558.72 161.223348 
L 558.0225 161.189511 
L 557.325 161.219704 
L 556.6275 161.277936 
L 555.93 161.399369 
L 555.2325 161.547156 
L 554.535 161.743717 
L 553.8375 161.993158 
L 553.14 162.269335 
L 552.4425 162.611318 
L 551.745 162.968288 
L 551.0475 163.378555 
L 550.35 163.808517 
L 549.6525 164.289847 
L 548.955 164.788276 
L 548.2575 165.287225 
L 547.56 165.811771 
L 546.8625 166.356995 
L 546.165 166.911831 
L 545.4675 167.459174 
L 544.77 168.005791 
L 544.0725 168.540606 
L 543.375 169.064553 
L 542.6775 169.566767 
L 541.98 170.072294 
L 541.2825 170.534734 
L 540.585 170.973554 
L 539.8875 171.384638 
L 539.19 171.758181 
L 538.4925 172.114483 
L 537.795 172.438301 
L 537.0975 172.732547 
L 536.4 172.994464 
L 535.7025 173.227544 
L 535.005 173.411749 
L 534.3075 173.575107 
L 533.61 173.680379 
L 532.9125 173.762284 
L 532.215 173.790298 
L 531.5175 173.793915 
L 530.82 173.767149 
L 530.1225 173.7043 
L 529.425 173.629764 
L 528.7275 173.50853 
L 528.03 173.365542 
L 527.3325 173.19619 
L 526.635 172.996109 
L 525.9375 172.761226 
L 525.24 172.505647 
L 524.5425 172.225816 
L 523.845 171.930311 
L 523.1475 171.627852 
L 522.45 171.297474 
L 521.7525 170.954175 
L 521.055 170.589275 
L 520.3575 170.218097 
L 519.66 169.850075 
L 518.9625 169.482709 
L 518.265 169.113493 
L 517.5675 168.769695 
L 516.87 168.442637 
L 516.1725 168.123484 
L 515.475 167.839034 
L 514.7775 167.586005 
L 514.08 167.366769 
L 513.3825 167.183383 
L 512.685 167.025663 
L 511.9875 166.889139 
L 511.29 166.781041 
L 510.5925 166.714287 
L 509.895 166.701404 
L 509.1975 166.72466 
L 508.5 166.801691 
L 507.8025 166.902017 
L 507.105 167.066357 
L 506.4075 167.269364 
L 505.71 167.515085 
L 505.0125 167.783363 
L 504.315 168.095485 
L 503.6175 168.448525 
L 502.92 168.821317 
L 502.2225 169.246072 
L 501.525 169.689052 
L 500.8275 170.158002 
L 500.13 170.630672 
L 499.4325 171.108578 
L 498.735 171.605093 
L 498.0375 172.109609 
L 497.34 172.617394 
L 496.6425 173.117733 
L 495.945 173.617837 
L 495.2475 174.113015 
L 494.55 174.610525 
L 493.8525 175.069994 
L 493.155 175.516868 
L 492.4575 175.911249 
L 491.76 176.285145 
L 491.0625 176.617195 
L 490.365 176.904286 
L 489.6675 177.137774 
L 488.97 177.32737 
L 488.2725 177.459394 
L 487.575 177.53856 
L 486.8775 177.58793 
L 486.18 177.595138 
L 485.4825 177.548213 
L 484.785 177.447598 
L 484.0875 177.312087 
L 483.39 177.131051 
L 482.6925 176.894285 
L 481.995 176.604008 
L 481.2975 176.274847 
L 480.6 175.897986 
L 479.9025 175.482911 
L 479.205 175.027563 
L 478.5075 174.548116 
L 477.81 174.031212 
L 477.1125 173.493604 
L 476.415 172.928429 
L 475.7175 172.364794 
L 475.02 171.77823 
L 474.3225 171.180188 
L 473.625 170.576279 
L 472.9275 169.966213 
L 472.23 169.355715 
L 471.5325 168.750509 
L 470.835 168.186028 
L 470.1375 167.63781 
L 469.44 167.116949 
L 468.7425 166.640231 
L 468.045 166.206177 
L 467.3475 165.806956 
L 466.65 165.458213 
L 465.9525 165.175123 
L 465.255 164.960342 
L 464.5575 164.798028 
L 463.86 164.689705 
L 463.1625 164.654243 
L 462.465 164.668169 
L 461.7675 164.773011 
L 461.07 164.926127 
L 460.3725 165.132032 
L 459.675 165.388796 
L 458.9775 165.688058 
L 458.28 166.015109 
L 457.5825 166.40259 
L 456.885 166.834964 
L 456.1875 167.290321 
L 455.49 167.770342 
L 454.7925 168.300281 
L 454.095 168.845412 
L 453.3975 169.412524 
L 452.7 169.996298 
L 452.0025 170.59721 
L 451.305 171.203674 
L 450.6075 171.81 
L 449.91 172.416454 
L 449.2125 173.011396 
L 448.515 173.595197 
L 447.8175 174.156431 
L 447.12 174.677931 
L 446.4225 175.166709 
L 445.725 175.624131 
L 445.0275 176.039956 
L 444.33 176.428138 
L 443.6325 176.76123 
L 442.935 177.03611 
L 442.2375 177.244247 
L 441.54 177.407494 
L 440.8425 177.506467 
L 440.145 177.558091 
L 439.4475 177.544028 
L 438.75 177.488215 
L 438.0525 177.361418 
L 437.355 177.176731 
L 436.6575 176.935885 
L 435.96 176.629236 
L 435.2625 176.271563 
L 434.565 175.86027 
L 433.8675 175.405165 
L 433.17 174.898614 
L 432.4725 174.35727 
L 431.775 173.774309 
L 431.0775 173.155199 
L 430.38 172.505745 
L 429.6825 171.83799 
L 428.985 171.152247 
L 428.2875 170.454946 
L 427.59 169.746676 
L 426.8925 169.040032 
L 426.195 168.347593 
L 425.4975 167.669901 
L 424.8 167.013314 
L 424.1025 166.389939 
L 423.405 165.793722 
L 422.7075 165.25406 
L 422.01 164.746258 
L 421.3125 164.28698 
L 420.615 163.880535 
L 419.9175 163.524783 
L 419.22 163.223062 
L 418.5225 162.9782 
L 417.825 162.804397 
L 417.1275 162.691381 
L 416.43 162.646163 
L 415.7325 162.663215 
L 415.035 162.730476 
L 414.3375 162.871119 
L 413.64 163.077874 
L 412.9425 163.3369 
L 412.245 163.669571 
L 411.5475 164.054915 
L 410.85 164.477414 
L 410.1525 164.945008 
L 409.455 165.453311 
L 408.7575 165.997557 
L 408.06 166.566689 
L 407.3625 167.149419 
L 406.665 167.758134 
L 405.9675 168.357368 
L 405.27 168.959357 
L 404.5725 169.54655 
L 403.875 170.131294 
L 403.1775 170.702154 
L 402.48 171.241873 
L 401.7825 171.763243 
L 401.085 172.237568 
L 400.3875 172.672303 
L 399.69 173.069321 
L 398.9925 173.407045 
L 398.295 173.688258 
L 397.5975 173.928177 
L 396.9 174.11265 
L 396.2025 174.245896 
L 395.505 174.314765 
L 394.8075 174.324561 
L 394.11 174.275192 
L 393.4125 174.143316 
L 392.715 173.953975 
L 392.0175 173.708946 
L 391.32 173.398623 
L 390.6225 173.049723 
L 389.925 172.62981 
L 389.2275 172.160676 
L 388.53 171.664575 
L 387.8325 171.128307 
L 387.135 170.5569 
L 386.4375 169.973569 
L 385.74 169.359979 
L 385.0425 168.721885 
L 384.345 168.077174 
L 383.6475 167.431894 
L 382.95 166.780193 
L 382.2525 166.122233 
L 381.555 165.470136 
L 380.8575 164.835969 
L 380.16 164.21973 
L 379.4625 163.627197 
L 378.765 163.057978 
L 378.0675 162.511459 
L 377.37 162.01062 
L 376.6725 161.542305 
L 375.975 161.122809 
L 375.2775 160.762017 
L 374.58 160.451411 
L 373.8825 160.199856 
L 373.185 160.003758 
L 372.4875 159.87091 
L 371.79 159.802556 
L 371.0925 159.793387 
L 370.395 159.843489 
L 369.6975 159.952391 
L 369 160.136927 
L 368.3025 160.365608 
L 367.605 160.671999 
L 366.9075 161.029419 
L 366.21 161.434518 
L 365.5125 161.889446 
L 364.815 162.389937 
L 364.1175 162.919394 
L 363.42 163.484753 
L 362.7225 164.080713 
L 362.025 164.701684 
L 361.3275 165.341842 
L 360.63 166.007084 
L 359.9325 166.673319 
L 359.235 167.340248 
L 358.5375 168.007567 
L 357.84 168.645213 
L 357.1425 169.27101 
L 356.445 169.861235 
L 355.7475 170.422255 
L 355.05 170.942856 
L 354.3525 171.406254 
L 353.655 171.820004 
L 352.9575 172.174274 
L 352.26 172.477646 
L 351.5625 172.733223 
L 350.865 172.920756 
L 350.1675 173.044438 
L 349.47 173.103107 
L 348.7725 173.096213 
L 348.075 173.029773 
L 347.3775 172.90441 
L 346.68 172.727251 
L 345.9825 172.494005 
L 345.285 172.200911 
L 344.5875 171.856666 
L 343.89 171.470453 
L 343.1925 171.03399 
L 342.495 170.557322 
L 341.7975 170.04492 
L 341.1 169.495639 
L 340.4025 168.926533 
L 339.705 168.34294 
L 339.0075 167.744381 
L 338.31 167.142423 
L 337.6125 166.536759 
L 336.915 165.944973 
L 336.2175 165.372616 
L 335.52 164.813152 
L 334.8225 164.27183 
L 334.125 163.753725 
L 333.4275 163.26965 
L 332.73 162.818192 
L 332.0325 162.397635 
L 331.335 162.023826 
L 330.6375 161.694319 
L 329.94 161.400303 
L 329.2425 161.156437 
L 328.545 160.982863 
L 327.8475 160.851452 
L 327.15 160.787242 
L 326.4525 160.778932 
L 325.755 160.820649 
L 325.0575 160.917954 
L 324.36 161.069933 
L 323.6625 161.275162 
L 322.965 161.531714 
L 322.2675 161.837185 
L 321.57 162.19466 
L 320.8725 162.606737 
L 320.175 163.05765 
L 319.4775 163.549121 
L 318.78 164.076539 
L 318.0825 164.629007 
L 317.385 165.207295 
L 316.6875 165.811929 
L 315.99 166.431289 
L 315.2925 167.065515 
L 314.595 167.70866 
L 313.8975 168.366595 
L 313.2 169.015293 
L 312.5025 169.642721 
L 311.805 170.242992 
L 311.1075 170.810478 
L 310.41 171.345807 
L 309.7125 171.849909 
L 309.015 172.312105 
L 308.3175 172.734011 
L 307.62 173.099769 
L 306.9225 173.417849 
L 306.225 173.679317 
L 305.5275 173.899575 
L 304.83 174.076557 
L 304.1325 174.1967 
L 303.435 174.264829 
L 302.7375 174.286256 
L 302.04 174.248878 
L 301.3425 174.158997 
L 300.645 174.017455 
L 299.9475 173.82558 
L 299.25 173.585171 
L 298.5525 173.298484 
L 297.855 172.968208 
L 297.1575 172.609342 
L 296.46 172.219301 
L 295.7625 171.801743 
L 295.065 171.354634 
L 294.3675 170.888118 
L 293.67 170.40657 
L 292.9725 169.914508 
L 292.275 169.422497 
L 291.5775 168.92325 
L 290.88 168.433352 
L 290.1825 167.945494 
L 289.485 167.476155 
L 288.7875 167.023786 
L 288.09 166.59263 
L 287.3925 166.192681 
L 286.695 165.82174 
L 285.9975 165.489237 
L 285.3 165.186388 
L 284.6025 164.933887 
L 283.905 164.728151 
L 283.2075 164.57111 
L 282.51 164.464237 
L 281.8125 164.408533 
L 281.115 164.404523 
L 280.4175 164.452242 
L 279.72 164.557196 
L 279.0225 164.712447 
L 278.325 164.916541 
L 277.6275 165.173514 
L 276.93 165.480956 
L 276.2325 165.830032 
L 275.535 166.223419 
L 274.8375 166.657429 
L 274.14 167.133941 
L 273.4425 167.642535 
L 272.745 168.172489 
L 272.0475 168.730736 
L 271.35 169.300138 
L 270.6525 169.881304 
L 269.955 170.468784 
L 269.2575 171.051118 
L 268.56 171.634745 
L 267.8625 172.214192 
L 267.165 172.789976 
L 266.4675 173.344793 
L 265.77 173.879391 
L 265.0725 174.388756 
L 264.375 174.86216 
L 263.6775 175.307064 
L 262.98 175.707395 
L 262.2825 176.053444 
L 261.585 176.35387 
L 260.8875 176.599904 
L 260.19 176.795189 
L 259.4925 176.937893 
L 258.795 177.026678 
L 258.0975 177.060712 
L 257.4 177.039675 
L 256.7025 176.963765 
L 256.005 176.833693 
L 255.3075 176.656631 
L 254.61 176.422336 
L 253.9125 176.138959 
L 253.215 175.803204 
L 252.5175 175.424173 
L 251.82 174.999469 
L 251.1225 174.533075 
L 250.425 174.035318 
L 249.7275 173.510865 
L 249.03 172.964636 
L 248.3325 172.401754 
L 247.635 171.827497 
L 246.9375 171.247253 
L 246.24 170.65456 
L 245.5425 170.06688 
L 244.845 169.483774 
L 244.1475 168.922613 
L 243.45 168.376758 
L 242.7525 167.857279 
L 242.055 167.363099 
L 241.3575 166.8929 
L 240.66 166.462995 
L 239.9625 166.071465 
L 239.265 165.721981 
L 238.5675 165.411872 
L 237.87 165.144044 
L 237.1725 164.926962 
L 236.475 164.762662 
L 235.7775 164.646732 
L 235.08 164.586213 
L 234.3825 164.58167 
L 233.685 164.633148 
L 232.9875 164.734211 
L 232.29 164.883913 
L 231.5925 165.09275 
L 230.895 165.352815 
L 230.1975 165.655715 
L 229.5 166.004562 
L 228.8025 166.384181 
L 228.105 166.802914 
L 227.4075 167.250882 
L 226.71 167.723884 
L 226.0125 168.223435 
L 225.315 168.738898 
L 224.6175 169.265439 
L 223.92 169.798119 
L 223.2225 170.331943 
L 222.525 170.861902 
L 221.8275 171.383027 
L 221.13 171.890431 
L 220.4325 172.373402 
L 219.735 172.833363 
L 219.0375 173.260048 
L 218.34 173.655406 
L 217.6425 174.015729 
L 216.945 174.337639 
L 216.2475 174.618114 
L 215.55 174.854526 
L 214.8525 175.044656 
L 214.155 175.186722 
L 213.4575 175.285342 
L 212.76 175.33364 
L 212.0625 175.331163 
L 211.365 175.283886 
L 210.6675 175.1863 
L 209.97 175.039321 
L 209.2725 174.844327 
L 208.575 174.603148 
L 207.8775 174.318045 
L 207.18 173.991693 
L 206.4825 173.627151 
L 205.785 173.22784 
L 205.0875 172.797505 
L 204.39 172.340181 
L 203.6925 171.860158 
L 202.995 171.361938 
L 202.2975 170.862096 
L 201.6 170.353419 
L 200.9025 169.840677 
L 200.205 169.328678 
L 199.5075 168.822226 
L 198.81 168.326069 
L 198.1125 167.850814 
L 197.415 167.394966 
L 196.7175 166.9628 
L 196.02 166.55837 
L 195.3225 166.185469 
L 194.625 165.847594 
L 193.9275 165.547915 
L 193.23 165.289243 
L 192.5325 165.074002 
L 191.835 164.904213 
L 191.1375 164.781467 
L 190.44 164.706915 
L 189.7425 164.681258 
L 189.045 164.704736 
L 188.3475 164.777127 
L 187.65 164.897755 
L 186.9525 165.065486 
L 186.255 165.278748 
L 185.5575 165.535541 
L 184.86 165.833457 
L 184.1625 166.1697 
L 183.465 166.541118 
L 182.7675 166.944226 
L 182.07 167.375245 
L 181.3725 167.830131 
L 180.675 168.304618 
L 179.9775 168.794256 
L 179.28 169.294452 
L 178.5825 169.800516 
L 177.885 170.3077 
L 177.1875 170.811248 
L 176.49 171.306436 
L 175.7925 171.788622 
L 175.095 172.253281 
L 174.3975 172.696056 
L 173.7 173.112794 
L 173.0025 173.499587 
L 172.305 173.852807 
L 171.6075 174.16914 
L 170.91 174.445621 
L 170.2125 174.679655 
L 169.515 174.869048 
L 168.8175 175.012023 
L 168.12 175.10724 
L 167.4225 175.147854 
L 166.725 175.139436 
L 166.0275 175.082063 
L 165.33 174.976276 
L 164.6325 174.823065 
L 163.935 174.623868 
L 163.2375 174.380553 
L 162.54 174.095402 
L 161.8425 173.765138 
L 161.145 173.398811 
L 160.4475 172.999855 
L 159.75 172.572013 
L 159.0525 172.119297 
L 158.355 171.645955 
L 157.6575 171.156424 
L 156.96 170.655297 
L 156.2625 170.147273 
L 155.565 169.637118 
L 154.8675 169.129616 
L 154.17 168.629527 
L 153.4725 168.141541 
L 152.775 167.670236 
L 152.0775 167.21408 
L 151.38 166.783303 
L 150.6825 166.375995 
L 149.985 166.001926 
L 149.2875 165.664605 
L 148.59 165.367195 
L 147.8925 165.112487 
L 147.195 164.902869 
L 146.4975 164.740307 
L 145.8 164.626326 
L 145.1025 164.561994 
L 144.405 164.547916 
L 143.7075 164.584223 
L 143.01 164.670575 
L 142.3125 164.806162 
L 141.615 164.989711 
L 140.9175 165.219503 
L 140.22 165.49338 
L 139.5225 165.802825 
L 138.825 166.150884 
L 138.1275 166.534294 
L 137.43 166.955411 
L 136.7325 167.404333 
L 136.035 167.876849 
L 135.3375 168.368528 
L 134.64 168.874759 
L 133.9425 169.396744 
L 133.245 169.923637 
L 132.5475 170.450496 
L 131.85 170.972379 
L 131.1525 171.484392 
L 130.455 171.981732 
L 129.7575 172.459736 
L 129.06 172.913918 
L 128.3625 173.340021 
L 127.665 173.734047 
L 126.9675 174.0923 
L 126.27 174.411422 
L 125.5725 174.688417 
L 124.875 174.92069 
L 124.1775 175.10606 
L 123.48 175.24279 
L 122.7825 175.329597 
L 122.085 175.365667 
L 121.3875 175.350661 
L 120.69 175.284721 
L 119.9925 175.168465 
L 119.295 175.002983 
L 118.5975 174.789827 
L 117.9 174.530997 
L 117.2025 174.228919 
L 116.505 173.886428 
L 115.8075 173.506735 
L 115.11 173.093403 
L 114.4125 172.650306 
L 113.715 172.181602 
L 113.0175 171.691686 
L 112.32 171.185153 
L 111.6225 170.666754 
L 110.925 170.141351 
L 110.2275 169.613872 
L 109.53 169.089265 
L 108.8325 168.572449 
L 108.135 168.068271 
L 107.4375 167.581462 
L 106.74 167.116585 
L 106.0425 166.678002 
L 105.345 166.269826 
L 104.6475 165.895886 
L 103.95 165.559688 
L 103.2525 165.264385 
L 102.555 165.012749 
L 101.8575 164.807137 
L 101.16 164.64948 
L 100.4625 164.541255 
L 99.765 164.483478 
L 99.0675 164.476691 
L 98.37 164.520957 
L 97.6725 164.615861 
L 96.975 164.760513 
L 96.2775 164.953556 
L 95.58 165.19318 
L 94.8825 165.483089 
L 94.185 165.814612 
L 93.4875 166.184639 
L 92.79 166.589701 
L 92.0925 167.025998 
L 91.395 167.489438 
L 90.6975 167.975675 
L 90 168.480147 
z
" style="fill:#e0ffff;"/>
   </g>
   <g id="line2d_15">
    <path clip-path="url(#p9dc5a589f2)" d="M 90 168.480147 
L 92.79 166.589701 
L 94.8825 165.483089 
L 96.2775 164.953556 
L 97.6725 164.615861 
L 99.0675 164.476691 
L 100.4625 164.541255 
L 101.8575 164.807137 
L 103.2525 165.264385 
L 105.345 166.269826 
L 107.4375 167.581462 
L 110.925 170.141351 
L 114.4125 172.650306 
L 116.505 173.886428 
L 117.9 174.530997 
L 119.295 175.002983 
L 120.69 175.284721 
L 122.085 175.365667 
L 123.48 175.24279 
L 124.875 174.92069 
L 126.27 174.411422 
L 128.3625 173.340021 
L 130.455 171.981732 
L 138.1275 166.534294 
L 140.22 165.49338 
L 141.615 164.989711 
L 143.01 164.670575 
L 144.405 164.547916 
L 145.8 164.626326 
L 147.195 164.902869 
L 148.59 165.367195 
L 150.6825 166.375995 
L 152.775 167.670236 
L 156.2625 170.147273 
L 159.75 172.572013 
L 161.8425 173.765138 
L 163.2375 174.380553 
L 164.6325 174.823065 
L 166.0275 175.082063 
L 167.4225 175.147854 
L 168.8175 175.012023 
L 170.2125 174.679655 
L 171.6075 174.16914 
L 173.7 173.112794 
L 175.7925 171.788622 
L 183.465 166.541118 
L 185.5575 165.535541 
L 186.9525 165.065486 
L 188.3475 164.777127 
L 189.7425 164.681258 
L 191.1375 164.781467 
L 192.5325 165.074002 
L 193.9275 165.547915 
L 196.02 166.55837 
L 198.1125 167.850814 
L 201.6 170.353419 
L 205.0875 172.797505 
L 207.18 173.991693 
L 208.575 174.603148 
L 209.97 175.039321 
L 211.365 175.283886 
L 212.76 175.33364 
L 214.155 175.186722 
L 215.55 174.854526 
L 216.945 174.337639 
L 219.0375 173.260048 
L 221.13 171.890431 
L 228.8025 166.384181 
L 230.895 165.352815 
L 232.29 164.883913 
L 233.685 164.633148 
L 235.08 164.586213 
L 236.475 164.762662 
L 237.87 165.144044 
L 239.265 165.721981 
L 241.3575 166.8929 
L 243.45 168.376758 
L 246.24 170.65456 
L 249.7275 173.510865 
L 251.82 174.999469 
L 253.215 175.803204 
L 254.61 176.422336 
L 256.005 176.833693 
L 257.4 177.039675 
L 258.795 177.026678 
L 260.19 176.795189 
L 261.585 176.35387 
L 262.98 175.707395 
L 265.0725 174.388756 
L 267.8625 172.214192 
L 274.14 167.133941 
L 276.2325 165.830032 
L 277.6275 165.173514 
L 279.0225 164.712447 
L 280.4175 164.452242 
L 281.8125 164.408533 
L 283.2075 164.57111 
L 284.6025 164.933887 
L 285.9975 165.489237 
L 288.09 166.59263 
L 290.88 168.433352 
L 296.46 172.219301 
L 298.5525 173.298484 
L 299.9475 173.82558 
L 301.3425 174.158997 
L 302.7375 174.286256 
L 304.1325 174.1967 
L 305.5275 173.899575 
L 306.9225 173.417849 
L 308.3175 172.734011 
L 310.41 171.345807 
L 312.5025 169.642721 
L 318.78 164.076539 
L 320.8725 162.606737 
L 322.2675 161.837185 
L 323.6625 161.275162 
L 325.0575 160.917954 
L 326.4525 160.778932 
L 327.8475 160.851452 
L 329.2425 161.156437 
L 330.6375 161.694319 
L 332.0325 162.397635 
L 334.125 163.753725 
L 336.915 165.944973 
L 342.495 170.557322 
L 344.5875 171.856666 
L 345.9825 172.494005 
L 347.3775 172.90441 
L 348.7725 173.096213 
L 350.1675 173.044438 
L 351.5625 172.733223 
L 352.9575 172.174274 
L 354.3525 171.406254 
L 355.7475 170.422255 
L 357.84 168.645213 
L 364.815 162.389937 
L 366.21 161.434518 
L 367.605 160.671999 
L 369 160.136927 
L 370.395 159.843489 
L 371.79 159.802556 
L 373.185 160.003758 
L 374.58 160.451411 
L 375.975 161.122809 
L 377.37 162.01062 
L 379.4625 163.627197 
L 382.2525 166.122233 
L 386.4375 169.973569 
L 388.53 171.664575 
L 390.6225 173.049723 
L 392.0175 173.708946 
L 393.4125 174.143316 
L 394.8075 174.324561 
L 396.2025 174.245896 
L 397.5975 173.928177 
L 398.9925 173.407045 
L 400.3875 172.672303 
L 402.48 171.241873 
L 405.27 168.959357 
L 409.455 165.453311 
L 411.5475 164.054915 
L 412.9425 163.3369 
L 414.3375 162.871119 
L 415.7325 162.663215 
L 417.1275 162.691381 
L 418.5225 162.9782 
L 419.9175 163.524783 
L 421.3125 164.28698 
L 423.405 165.793722 
L 425.4975 167.669901 
L 432.4725 174.35727 
L 434.565 175.86027 
L 435.96 176.629236 
L 437.355 177.176731 
L 438.75 177.488215 
L 440.145 177.558091 
L 441.54 177.407494 
L 442.935 177.03611 
L 444.33 176.428138 
L 446.4225 175.166709 
L 448.515 173.595197 
L 456.1875 167.290321 
L 458.28 166.015109 
L 460.3725 165.132032 
L 461.7675 164.773011 
L 463.1625 164.654243 
L 464.5575 164.798028 
L 465.9525 165.175123 
L 467.3475 165.806956 
L 469.44 167.116949 
L 471.5325 168.750509 
L 477.1125 173.493604 
L 479.205 175.027563 
L 481.2975 176.274847 
L 482.6925 176.894285 
L 484.0875 177.312087 
L 485.4825 177.548213 
L 486.8775 177.58793 
L 488.2725 177.459394 
L 489.6675 177.137774 
L 491.0625 176.617195 
L 493.155 175.516868 
L 495.945 173.617837 
L 502.2225 169.246072 
L 504.315 168.095485 
L 506.4075 167.269364 
L 507.8025 166.902017 
L 509.895 166.701404 
L 511.29 166.781041 
L 513.3825 167.183383 
L 515.475 167.839034 
L 517.5675 168.769695 
L 525.24 172.505647 
L 527.3325 173.19619 
L 529.425 173.629764 
L 531.5175 173.793915 
L 533.61 173.680379 
L 535.005 173.411749 
L 536.4 172.994464 
L 538.4925 172.114483 
L 540.585 170.973554 
L 542.6775 169.566767 
L 545.4675 167.459174 
L 549.6525 164.289847 
L 551.745 162.968288 
L 553.8375 161.993158 
L 555.2325 161.547156 
L 556.6275 161.277936 
L 558.0225 161.189511 
L 559.4175 161.291142 
L 560.8125 161.585032 
L 562.905 162.34416 
L 565.695 163.766075 
L 571.275 166.92099 
L 574.065 168.122333 
L 575.46 168.567333 
L 578.25 169.07006 
L 580.3425 169.139166 
L 582.435 168.936888 
L 585.9225 168.312325 
L 594.2925 166.187861 
L 596.385 165.94891 
L 598.4775 165.966263 
L 600.57 166.302928 
L 601.965 166.704644 
L 604.0575 167.594842 
L 606.15 168.780865 
L 607.545 169.744168 
L 610.335 172.075761 
L 617.31 178.152849 
L 618.705 179.028801 
L 620.1 179.724063 
L 621.495 180.242203 
L 622.89 180.534293 
L 624.285 180.642795 
L 625.68 180.581336 
L 627.075 180.310834 
L 629.1675 179.573118 
L 630.5625 178.892585 
L 632.655 177.663794 
L 635.445 175.711551 
L 639.63 172.667055 
L 641.7225 171.437843 
L 643.815 170.524256 
L 645.21 170.11589 
L 646.605 169.92 
L 646.605 169.92 
" style="fill:none;stroke:#008080;stroke-linecap:round;stroke-width:1.75;"/>
   </g>
   <g id="patch_3">
    <path d="M 90 270.72 
L 90 69.12 
" style="fill:none;stroke:#262626;stroke-linecap:square;stroke-linejoin:miter;stroke-width:1.25;"/>
   </g>
   <g id="patch_4">
    <path d="M 90 270.72 
L 648 270.72 
" style="fill:none;stroke:#262626;stroke-linecap:square;stroke-linejoin:miter;stroke-width:1.25;"/>
   </g>
  </g>
  <g id="axes_2">
   <g id="patch_5">
    <path d="M 90 512.64 
L 648 512.64 
L 648 311.04 
L 90 311.04 
z
" style="fill:#ffffff;"/>
   </g>
   <g id="matplotlib.axis_3">
    <g id="xtick_10">
     <g id="line2d_16">
      <g>
       <use style="fill:#262626;stroke:#262626;" x="191.454545" xlink:href="#m2ffb5cbcda" y="512.64"/>
      </g>
     </g>
     <g id="text_15">
      <!-- 200 -->
      <g style="fill:#262626;" transform="translate(183.113139 532.797812)scale(0.1 -0.1)">
       <use xlink:href="#ArialMT-32"/>
       <use x="55.615234" xlink:href="#ArialMT-30"/>
       <use x="111.230469" xlink:href="#ArialMT-30"/>
      </g>
     </g>
    </g>
    <g id="xtick_11">
     <g id="line2d_17">
      <g>
       <use style="fill:#262626;stroke:#262626;" x="304.181818" xlink:href="#m2ffb5cbcda" y="512.64"/>
      </g>
     </g>
     <g id="text_16">
      <!-- 400 -->
      <g style="fill:#262626;" transform="translate(295.840412 532.797812)scale(0.1 -0.1)">
       <use xlink:href="#ArialMT-34"/>
       <use x="55.615234" xlink:href="#ArialMT-30"/>
       <use x="111.230469" xlink:href="#ArialMT-30"/>
      </g>
     </g>
    </g>
    <g id="xtick_12">
     <g id="line2d_18">
      <g>
       <use style="fill:#262626;stroke:#262626;" x="416.909091" xlink:href="#m2ffb5cbcda" y="512.64"/>
      </g>
     </g>
     <g id="text_17">
      <!-- 600 -->
      <g style="fill:#262626;" transform="translate(408.567685 532.797812)scale(0.1 -0.1)">
       <use xlink:href="#ArialMT-36"/>
       <use x="55.615234" xlink:href="#ArialMT-30"/>
       <use x="111.230469" xlink:href="#ArialMT-30"/>
      </g>
     </g>
    </g>
    <g id="xtick_13">
     <g id="line2d_19">
      <g>
       <use style="fill:#262626;stroke:#262626;" x="529.636364" xlink:href="#m2ffb5cbcda" y="512.64"/>
      </g>
     </g>
     <g id="text_18">
      <!-- 800 -->
      <g style="fill:#262626;" transform="translate(521.294957 532.797812)scale(0.1 -0.1)">
       <use xlink:href="#ArialMT-38"/>
       <use x="55.615234" xlink:href="#ArialMT-30"/>
       <use x="111.230469" xlink:href="#ArialMT-30"/>
      </g>
     </g>
    </g>
    <g id="xtick_14">
     <g id="line2d_20">
      <g>
       <use style="fill:#262626;stroke:#262626;" x="642.363636" xlink:href="#m2ffb5cbcda" y="512.64"/>
      </g>
     </g>
     <g id="text_19">
      <!-- 1000 -->
      <g style="fill:#262626;" transform="translate(631.241761 532.797812)scale(0.1 -0.1)">
       <use xlink:href="#ArialMT-31"/>
       <use x="55.615234" xlink:href="#ArialMT-30"/>
       <use x="111.230469" xlink:href="#ArialMT-30"/>
       <use x="166.845703" xlink:href="#ArialMT-30"/>
      </g>
     </g>
    </g>
   </g>
   <g id="matplotlib.axis_4">
    <g id="ytick_6">
     <g id="line2d_21">
      <g>
       <use style="fill:#262626;stroke:#262626;" x="90" xlink:href="#m9d70976493" y="512.64"/>
      </g>
     </g>
     <g id="text_20">
      <!-- 0 -->
      <g style="fill:#262626;" transform="translate(71.439063 516.218906)scale(0.1 -0.1)">
       <use xlink:href="#ArialMT-30"/>
      </g>
     </g>
    </g>
    <g id="ytick_7">
     <g id="line2d_22">
      <g>
       <use style="fill:#262626;stroke:#262626;" x="90" xlink:href="#m9d70976493" y="490.24"/>
      </g>
     </g>
     <g id="text_21">
      <!-- 2 -->
      <g style="fill:#262626;" transform="translate(71.439063 493.818906)scale(0.1 -0.1)">
       <use xlink:href="#ArialMT-32"/>
      </g>
     </g>
    </g>
    <g id="ytick_8">
     <g id="line2d_23">
      <g>
       <use style="fill:#262626;stroke:#262626;" x="90" xlink:href="#m9d70976493" y="467.84"/>
      </g>
     </g>
     <g id="text_22">
      <!-- 4 -->
      <g style="fill:#262626;" transform="translate(71.439063 471.418906)scale(0.1 -0.1)">
       <use xlink:href="#ArialMT-34"/>
      </g>
     </g>
    </g>
    <g id="ytick_9">
     <g id="line2d_24">
      <g>
       <use style="fill:#262626;stroke:#262626;" x="90" xlink:href="#m9d70976493" y="445.44"/>
      </g>
     </g>
     <g id="text_23">
      <!-- 6 -->
      <g style="fill:#262626;" transform="translate(71.439063 449.018906)scale(0.1 -0.1)">
       <use xlink:href="#ArialMT-36"/>
      </g>
     </g>
    </g>
    <g id="ytick_10">
     <g id="line2d_25">
      <g>
       <use style="fill:#262626;stroke:#262626;" x="90" xlink:href="#m9d70976493" y="423.04"/>
      </g>
     </g>
     <g id="text_24">
      <!-- 8 -->
      <g style="fill:#262626;" transform="translate(71.439063 426.618906)scale(0.1 -0.1)">
       <use xlink:href="#ArialMT-38"/>
      </g>
     </g>
    </g>
    <g id="ytick_11">
     <g id="line2d_26">
      <g>
       <use style="fill:#262626;stroke:#262626;" x="90" xlink:href="#m9d70976493" y="400.64"/>
      </g>
     </g>
     <g id="text_25">
      <!-- 10 -->
      <g style="fill:#262626;" transform="translate(65.878125 404.218906)scale(0.1 -0.1)">
       <use xlink:href="#ArialMT-31"/>
       <use x="55.615234" xlink:href="#ArialMT-30"/>
      </g>
     </g>
    </g>
    <g id="ytick_12">
     <g id="line2d_27">
      <g>
       <use style="fill:#262626;stroke:#262626;" x="90" xlink:href="#m9d70976493" y="378.24"/>
      </g>
     </g>
     <g id="text_26">
      <!-- 12 -->
      <g style="fill:#262626;" transform="translate(65.878125 381.818906)scale(0.1 -0.1)">
       <use xlink:href="#ArialMT-31"/>
       <use x="55.615234" xlink:href="#ArialMT-32"/>
      </g>
     </g>
    </g>
    <g id="ytick_13">
     <g id="line2d_28">
      <g>
       <use style="fill:#262626;stroke:#262626;" x="90" xlink:href="#m9d70976493" y="355.84"/>
      </g>
     </g>
     <g id="text_27">
      <!-- 14 -->
      <g style="fill:#262626;" transform="translate(65.878125 359.418906)scale(0.1 -0.1)">
       <use xlink:href="#ArialMT-31"/>
       <use x="55.615234" xlink:href="#ArialMT-34"/>
      </g>
     </g>
    </g>
    <g id="ytick_14">
     <g id="line2d_29">
      <g>
       <use style="fill:#262626;stroke:#262626;" x="90" xlink:href="#m9d70976493" y="333.44"/>
      </g>
     </g>
     <g id="text_28">
      <!-- 16 -->
      <g style="fill:#262626;" transform="translate(65.878125 337.018906)scale(0.1 -0.1)">
       <use xlink:href="#ArialMT-31"/>
       <use x="55.615234" xlink:href="#ArialMT-36"/>
      </g>
     </g>
    </g>
    <g id="ytick_15">
     <g id="line2d_30">
      <g>
       <use style="fill:#262626;stroke:#262626;" x="90" xlink:href="#m9d70976493" y="311.04"/>
      </g>
     </g>
     <g id="text_29">
      <!-- 18 -->
      <g style="fill:#262626;" transform="translate(65.878125 314.618906)scale(0.1 -0.1)">
       <use xlink:href="#ArialMT-31"/>
       <use x="55.615234" xlink:href="#ArialMT-38"/>
      </g>
     </g>
    </g>
   </g>
   <g id="line2d_31">
    <path clip-path="url(#p0f6b3e3775)" d="M 90 477.654723 
L 95.636364 452.736402 
L 101.272727 431.923589 
L 106.909091 427.92302 
L 112.545455 440.45326 
L 118.181818 444.705349 
L 123.818182 448.961059 
L 129.454545 457.370701 
L 135.090909 456.375715 
L 140.727273 434.868159 
L 146.363636 408.816951 
L 152 389.988216 
L 157.636364 371.492183 
L 163.272727 352.310178 
L 168.909091 342.280664 
L 174.545455 348.647566 
L 180.181818 355.802406 
L 185.818182 363.350788 
L 191.454545 378.270766 
L 197.090909 391.147889 
L 202.727273 394.129256 
L 208.363636 396.550705 
L 214 393.395457 
L 219.636364 389.651786 
L 225.272727 392.702199 
L 230.909091 396.085016 
L 236.545455 399.690878 
L 242.181818 407.737617 
L 247.818182 414.331388 
L 253.454545 417.809913 
L 259.090909 422.903097 
L 264.727273 426.347751 
L 270.363636 429.764905 
L 276 436.797845 
L 281.636364 444.59905 
L 287.272727 452.348689 
L 292.909091 461.235722 
L 298.545455 467.982454 
L 304.181818 471.144774 
L 309.818182 472.257688 
L 315.454545 471.707893 
L 321.090909 472.117482 
L 326.727273 473.818281 
L 332.363636 475.619312 
L 338 478.193498 
L 343.636364 480.655986 
L 349.272727 482.144164 
L 354.909091 483.974362 
L 360.545455 485.825198 
L 366.181818 487.914885 
L 371.818182 490.804554 
L 377.454545 493.872728 
L 383.090909 496.544264 
L 388.727273 498.469641 
L 394.363636 499.417825 
L 400 499.768128 
L 405.636364 498.821458 
L 411.272727 497.224183 
L 416.909091 494.909956 
L 422.545455 492.447818 
L 428.181818 490.656474 
L 433.818182 489.398754 
L 439.454545 488.863228 
L 445.090909 489.4762 
L 450.727273 490.947183 
L 456.363636 492.717187 
L 462 494.86505 
" style="fill:none;stroke:#b22222;stroke-linecap:round;stroke-width:1.75;"/>
   </g>
   <g id="line2d_32">
    <path clip-path="url(#p0f6b3e3775)" d="M 152 512.64 
L 152 311.04 
" style="fill:none;stroke:#4c72b0;stroke-linecap:round;stroke-width:1.75;"/>
   </g>
   <g id="patch_6">
    <path d="M 90 512.64 
L 90 311.04 
" style="fill:none;stroke:#262626;stroke-linecap:square;stroke-linejoin:miter;stroke-width:1.25;"/>
   </g>
   <g id="patch_7">
    <path d="M 90 512.64 
L 648 512.64 
" style="fill:none;stroke:#262626;stroke-linecap:square;stroke-linejoin:miter;stroke-width:1.25;"/>
   </g>
   <g id="text_30">
    <!-- f = 680 Hz -->
    <defs>
     <path d="M 8.6875 0 
L 8.6875 45.015625 
L 0.921875 45.015625 
L 0.921875 51.859375 
L 8.6875 51.859375 
L 8.6875 57.375 
Q 8.6875 62.59375 9.625 65.140625 
Q 10.890625 68.5625 14.078125 70.671875 
Q 17.28125 72.796875 23.046875 72.796875 
Q 26.765625 72.796875 31.25 71.921875 
L 29.9375 64.265625 
Q 27.203125 64.75 24.75 64.75 
Q 20.75 64.75 19.09375 63.03125 
Q 17.4375 61.328125 17.4375 56.640625 
L 17.4375 51.859375 
L 27.546875 51.859375 
L 27.546875 45.015625 
L 17.4375 45.015625 
L 17.4375 0 
z
" id="ArialMT-66"/>
     <path id="ArialMT-20"/>
     <path d="M 52.828125 42.09375 
L 5.5625 42.09375 
L 5.5625 50.296875 
L 52.828125 50.296875 
z
M 52.828125 20.359375 
L 5.5625 20.359375 
L 5.5625 28.5625 
L 52.828125 28.5625 
z
" id="ArialMT-3d"/>
     <path d="M 8.015625 0 
L 8.015625 71.578125 
L 17.484375 71.578125 
L 17.484375 42.1875 
L 54.6875 42.1875 
L 54.6875 71.578125 
L 64.15625 71.578125 
L 64.15625 0 
L 54.6875 0 
L 54.6875 33.734375 
L 17.484375 33.734375 
L 17.484375 0 
z
" id="ArialMT-48"/>
     <path d="M 1.953125 0 
L 1.953125 7.125 
L 34.96875 45.015625 
Q 29.34375 44.734375 25.046875 44.734375 
L 3.90625 44.734375 
L 3.90625 51.859375 
L 46.296875 51.859375 
L 46.296875 46.046875 
L 18.21875 13.140625 
L 12.796875 7.125 
Q 18.703125 7.5625 23.875 7.5625 
L 47.859375 7.5625 
L 47.859375 0 
z
" id="ArialMT-7a"/>
    </defs>
    <g style="fill:#262626;" transform="translate(529.636364 403.742188)scale(0.12 -0.12)">
     <use xlink:href="#ArialMT-66"/>
     <use x="27.783203" xlink:href="#ArialMT-20"/>
     <use x="55.566406" xlink:href="#ArialMT-3d"/>
     <use x="113.964844" xlink:href="#ArialMT-20"/>
     <use x="141.748047" xlink:href="#ArialMT-36"/>
     <use x="197.363281" xlink:href="#ArialMT-38"/>
     <use x="252.978516" xlink:href="#ArialMT-30"/>
     <use x="308.59375" xlink:href="#ArialMT-20"/>
     <use x="336.376953" xlink:href="#ArialMT-48"/>
     <use x="408.59375" xlink:href="#ArialMT-7a"/>
    </g>
   </g>
   <g id="PathCollection_1">
    <defs>
     <path d="M 0 3.5 
C 0.928211 3.5 1.81853 3.131218 2.474874 2.474874 
C 3.131218 1.81853 3.5 0.928211 3.5 0 
C 3.5 -0.928211 3.131218 -1.81853 2.474874 -2.474874 
C 1.81853 -3.131218 0.928211 -3.5 0 -3.5 
C -0.928211 -3.5 -1.81853 -3.131218 -2.474874 -2.474874 
C -3.131218 -1.81853 -3.5 -0.928211 -3.5 0 
C -3.5 0.928211 -3.131218 1.81853 -2.474874 2.474874 
C -1.81853 3.131218 -0.928211 3.5 0 3.5 
z
" id="mb33ed1df75" style="stroke:#800000;stroke-width:0.3;"/>
    </defs>
    <g clip-path="url(#p0f6b3e3775)">
     <use style="fill:#800000;stroke:#800000;stroke-width:0.3;" x="462" xlink:href="#mb33ed1df75" y="494.86505"/>
    </g>
   </g>
  </g>
 </g>
 <defs>
  <clipPath id="p9dc5a589f2">
   <rect height="201.6" width="558" x="90" y="69.12"/>
  </clipPath>
  <clipPath id="p0f6b3e3775">
   <rect height="201.6" width="558" x="90" y="311.04"/>
  </clipPath>
 </defs>
</svg>
