<?xml version="1.0" encoding="utf-8" standalone="no"?>
<!DOCTYPE svg PUBLIC "-//W3C//DTD SVG 1.1//EN"
  "http://www.w3.org/Graphics/SVG/1.1/DTD/svg11.dtd">
<!-- Created with matplotlib (http://matplotlib.org/) -->
<svg height="576pt" version="1.1" viewBox="0 0 720 576" width="720pt" xmlns="http://www.w3.org/2000/svg" xmlns:xlink="http://www.w3.org/1999/xlink">
 <defs>
  <style type="text/css">
*{stroke-linecap:butt;stroke-linejoin:round;}
  </style>
 </defs>
 <g id="figure_1">
  <g id="patch_1">
   <path d="M 0 576 
L 720 576 
L 720 0 
L 0 0 
z
" style="fill:#ffffff;"/>
  </g>
  <g id="axes_1">
   <g id="patch_2">
    <path d="M 90 270.72 
L 648 270.72 
L 648 69.12 
L 90 69.12 
z
" style="fill:#ffffff;"/>
   </g>
   <g id="matplotlib.axis_1">
    <g id="xtick_1">
     <g id="line2d_1">
      <defs>
       <path d="M 0 0 
L 0 6 
" id="mfa375f3a9f" style="stroke:#262626;"/>
      </defs>
      <g>
       <use style="fill:#262626;stroke:#262626;" x="90" xlink:href="#mfa375f3a9f" y="270.72"/>
      </g>
     </g>
     <g id="text_1">
      <!-- 0 -->
      <defs>
       <path d="M 4.15625 35.296875 
Q 4.15625 48 6.765625 55.734375 
Q 9.375 63.484375 14.515625 67.671875 
Q 19.671875 71.875 27.484375 71.875 
Q 33.25 71.875 37.59375 69.546875 
Q 41.9375 67.234375 44.765625 62.859375 
Q 47.609375 58.5 49.21875 52.21875 
Q 50.828125 45.953125 50.828125 35.296875 
Q 50.828125 22.703125 48.234375 14.96875 
Q 45.65625 7.234375 40.5 3 
Q 35.359375 -1.21875 27.484375 -1.21875 
Q 17.140625 -1.21875 11.234375 6.203125 
Q 4.15625 15.140625 4.15625 35.296875 
z
M 13.1875 35.296875 
Q 13.1875 17.671875 17.3125 11.828125 
Q 21.4375 6 27.484375 6 
Q 33.546875 6 37.671875 11.859375 
Q 41.796875 17.71875 41.796875 35.296875 
Q 41.796875 52.984375 37.671875 58.78125 
Q 33.546875 64.59375 27.390625 64.59375 
Q 21.34375 64.59375 17.71875 59.46875 
Q 13.1875 52.9375 13.1875 35.296875 
z
" id="ArialMT-30"/>
      </defs>
      <g style="fill:#262626;" transform="translate(87.219531 290.877812)scale(0.1 -0.1)">
       <use xlink:href="#ArialMT-30"/>
      </g>
     </g>
    </g>
    <g id="xtick_2">
     <g id="line2d_2">
      <g>
       <use style="fill:#262626;stroke:#262626;" x="159.75" xlink:href="#mfa375f3a9f" y="270.72"/>
      </g>
     </g>
     <g id="text_2">
      <!-- 100 -->
      <defs>
       <path d="M 37.25 0 
L 28.46875 0 
L 28.46875 56 
Q 25.296875 52.984375 20.140625 49.953125 
Q 14.984375 46.921875 10.890625 45.40625 
L 10.890625 53.90625 
Q 18.265625 57.375 23.78125 62.296875 
Q 29.296875 67.234375 31.59375 71.875 
L 37.25 71.875 
z
" id="ArialMT-31"/>
      </defs>
      <g style="fill:#262626;" transform="translate(151.408594 290.877812)scale(0.1 -0.1)">
       <use xlink:href="#ArialMT-31"/>
       <use x="55.615234" xlink:href="#ArialMT-30"/>
       <use x="111.230469" xlink:href="#ArialMT-30"/>
      </g>
     </g>
    </g>
    <g id="xtick_3">
     <g id="line2d_3">
      <g>
       <use style="fill:#262626;stroke:#262626;" x="229.5" xlink:href="#mfa375f3a9f" y="270.72"/>
      </g>
     </g>
     <g id="text_3">
      <!-- 200 -->
      <defs>
       <path d="M 50.34375 8.453125 
L 50.34375 0 
L 3.03125 0 
Q 2.9375 3.171875 4.046875 6.109375 
Q 5.859375 10.9375 9.828125 15.625 
Q 13.8125 20.3125 21.34375 26.46875 
Q 33.015625 36.03125 37.109375 41.625 
Q 41.21875 47.21875 41.21875 52.203125 
Q 41.21875 57.421875 37.46875 61 
Q 33.734375 64.59375 27.734375 64.59375 
Q 21.390625 64.59375 17.578125 60.78125 
Q 13.765625 56.984375 13.71875 50.25 
L 4.6875 51.171875 
Q 5.609375 61.28125 11.65625 66.578125 
Q 17.71875 71.875 27.9375 71.875 
Q 38.234375 71.875 44.234375 66.15625 
Q 50.25 60.453125 50.25 52 
Q 50.25 47.703125 48.484375 43.546875 
Q 46.734375 39.40625 42.65625 34.8125 
Q 38.578125 30.21875 29.109375 22.21875 
Q 21.1875 15.578125 18.9375 13.203125 
Q 16.703125 10.84375 15.234375 8.453125 
z
" id="ArialMT-32"/>
      </defs>
      <g style="fill:#262626;" transform="translate(221.158594 290.877812)scale(0.1 -0.1)">
       <use xlink:href="#ArialMT-32"/>
       <use x="55.615234" xlink:href="#ArialMT-30"/>
       <use x="111.230469" xlink:href="#ArialMT-30"/>
      </g>
     </g>
    </g>
    <g id="xtick_4">
     <g id="line2d_4">
      <g>
       <use style="fill:#262626;stroke:#262626;" x="299.25" xlink:href="#mfa375f3a9f" y="270.72"/>
      </g>
     </g>
     <g id="text_4">
      <!-- 300 -->
      <defs>
       <path d="M 4.203125 18.890625 
L 12.984375 20.0625 
Q 14.5 12.59375 18.140625 9.296875 
Q 21.78125 6 27 6 
Q 33.203125 6 37.46875 10.296875 
Q 41.75 14.59375 41.75 20.953125 
Q 41.75 27 37.796875 30.921875 
Q 33.84375 34.859375 27.734375 34.859375 
Q 25.25 34.859375 21.53125 33.890625 
L 22.515625 41.609375 
Q 23.390625 41.5 23.921875 41.5 
Q 29.546875 41.5 34.03125 44.421875 
Q 38.53125 47.359375 38.53125 53.46875 
Q 38.53125 58.296875 35.25 61.46875 
Q 31.984375 64.65625 26.8125 64.65625 
Q 21.6875 64.65625 18.265625 61.421875 
Q 14.84375 58.203125 13.875 51.765625 
L 5.078125 53.328125 
Q 6.6875 62.15625 12.390625 67.015625 
Q 18.109375 71.875 26.609375 71.875 
Q 32.46875 71.875 37.390625 69.359375 
Q 42.328125 66.84375 44.9375 62.5 
Q 47.5625 58.15625 47.5625 53.265625 
Q 47.5625 48.640625 45.0625 44.828125 
Q 42.578125 41.015625 37.703125 38.765625 
Q 44.046875 37.3125 47.5625 32.6875 
Q 51.078125 28.078125 51.078125 21.140625 
Q 51.078125 11.765625 44.234375 5.25 
Q 37.40625 -1.265625 26.953125 -1.265625 
Q 17.53125 -1.265625 11.296875 4.34375 
Q 5.078125 9.96875 4.203125 18.890625 
z
" id="ArialMT-33"/>
      </defs>
      <g style="fill:#262626;" transform="translate(290.908594 290.877812)scale(0.1 -0.1)">
       <use xlink:href="#ArialMT-33"/>
       <use x="55.615234" xlink:href="#ArialMT-30"/>
       <use x="111.230469" xlink:href="#ArialMT-30"/>
      </g>
     </g>
    </g>
    <g id="xtick_5">
     <g id="line2d_5">
      <g>
       <use style="fill:#262626;stroke:#262626;" x="369" xlink:href="#mfa375f3a9f" y="270.72"/>
      </g>
     </g>
     <g id="text_5">
      <!-- 400 -->
      <defs>
       <path d="M 32.328125 0 
L 32.328125 17.140625 
L 1.265625 17.140625 
L 1.265625 25.203125 
L 33.9375 71.578125 
L 41.109375 71.578125 
L 41.109375 25.203125 
L 50.78125 25.203125 
L 50.78125 17.140625 
L 41.109375 17.140625 
L 41.109375 0 
z
M 32.328125 25.203125 
L 32.328125 57.46875 
L 9.90625 25.203125 
z
" id="ArialMT-34"/>
      </defs>
      <g style="fill:#262626;" transform="translate(360.658594 290.877812)scale(0.1 -0.1)">
       <use xlink:href="#ArialMT-34"/>
       <use x="55.615234" xlink:href="#ArialMT-30"/>
       <use x="111.230469" xlink:href="#ArialMT-30"/>
      </g>
     </g>
    </g>
    <g id="xtick_6">
     <g id="line2d_6">
      <g>
       <use style="fill:#262626;stroke:#262626;" x="438.75" xlink:href="#mfa375f3a9f" y="270.72"/>
      </g>
     </g>
     <g id="text_6">
      <!-- 500 -->
      <defs>
       <path d="M 4.15625 18.75 
L 13.375 19.53125 
Q 14.40625 12.796875 18.140625 9.390625 
Q 21.875 6 27.15625 6 
Q 33.5 6 37.890625 10.78125 
Q 42.28125 15.578125 42.28125 23.484375 
Q 42.28125 31 38.0625 35.34375 
Q 33.84375 39.703125 27 39.703125 
Q 22.75 39.703125 19.328125 37.765625 
Q 15.921875 35.84375 13.96875 32.765625 
L 5.71875 33.84375 
L 12.640625 70.609375 
L 48.25 70.609375 
L 48.25 62.203125 
L 19.671875 62.203125 
L 15.828125 42.96875 
Q 22.265625 47.46875 29.34375 47.46875 
Q 38.71875 47.46875 45.15625 40.96875 
Q 51.609375 34.46875 51.609375 24.265625 
Q 51.609375 14.546875 45.953125 7.46875 
Q 39.0625 -1.21875 27.15625 -1.21875 
Q 17.390625 -1.21875 11.203125 4.25 
Q 5.03125 9.71875 4.15625 18.75 
z
" id="ArialMT-35"/>
      </defs>
      <g style="fill:#262626;" transform="translate(430.408594 290.877812)scale(0.1 -0.1)">
       <use xlink:href="#ArialMT-35"/>
       <use x="55.615234" xlink:href="#ArialMT-30"/>
       <use x="111.230469" xlink:href="#ArialMT-30"/>
      </g>
     </g>
    </g>
    <g id="xtick_7">
     <g id="line2d_7">
      <g>
       <use style="fill:#262626;stroke:#262626;" x="508.5" xlink:href="#mfa375f3a9f" y="270.72"/>
      </g>
     </g>
     <g id="text_7">
      <!-- 600 -->
      <defs>
       <path d="M 49.75 54.046875 
L 41.015625 53.375 
Q 39.84375 58.546875 37.703125 60.890625 
Q 34.125 64.65625 28.90625 64.65625 
Q 24.703125 64.65625 21.53125 62.3125 
Q 17.390625 59.28125 14.984375 53.46875 
Q 12.59375 47.65625 12.5 36.921875 
Q 15.671875 41.75 20.265625 44.09375 
Q 24.859375 46.4375 29.890625 46.4375 
Q 38.671875 46.4375 44.84375 39.96875 
Q 51.03125 33.5 51.03125 23.25 
Q 51.03125 16.5 48.125 10.71875 
Q 45.21875 4.9375 40.140625 1.859375 
Q 35.0625 -1.21875 28.609375 -1.21875 
Q 17.625 -1.21875 10.6875 6.859375 
Q 3.765625 14.9375 3.765625 33.5 
Q 3.765625 54.25 11.421875 63.671875 
Q 18.109375 71.875 29.4375 71.875 
Q 37.890625 71.875 43.28125 67.140625 
Q 48.6875 62.40625 49.75 54.046875 
z
M 13.875 23.1875 
Q 13.875 18.65625 15.796875 14.5 
Q 17.71875 10.359375 21.1875 8.171875 
Q 24.65625 6 28.46875 6 
Q 34.03125 6 38.03125 10.484375 
Q 42.046875 14.984375 42.046875 22.703125 
Q 42.046875 30.125 38.078125 34.390625 
Q 34.125 38.671875 28.125 38.671875 
Q 22.171875 38.671875 18.015625 34.390625 
Q 13.875 30.125 13.875 23.1875 
z
" id="ArialMT-36"/>
      </defs>
      <g style="fill:#262626;" transform="translate(500.158594 290.877812)scale(0.1 -0.1)">
       <use xlink:href="#ArialMT-36"/>
       <use x="55.615234" xlink:href="#ArialMT-30"/>
       <use x="111.230469" xlink:href="#ArialMT-30"/>
      </g>
     </g>
    </g>
    <g id="xtick_8">
     <g id="line2d_8">
      <g>
       <use style="fill:#262626;stroke:#262626;" x="578.25" xlink:href="#mfa375f3a9f" y="270.72"/>
      </g>
     </g>
     <g id="text_8">
      <!-- 700 -->
      <defs>
       <path d="M 4.734375 62.203125 
L 4.734375 70.65625 
L 51.078125 70.65625 
L 51.078125 63.8125 
Q 44.234375 56.546875 37.515625 44.484375 
Q 30.8125 32.421875 27.15625 19.671875 
Q 24.515625 10.6875 23.78125 0 
L 14.75 0 
Q 14.890625 8.453125 18.0625 20.40625 
Q 21.234375 32.375 27.171875 43.484375 
Q 33.109375 54.59375 39.796875 62.203125 
z
" id="ArialMT-37"/>
      </defs>
      <g style="fill:#262626;" transform="translate(569.908594 290.877812)scale(0.1 -0.1)">
       <use xlink:href="#ArialMT-37"/>
       <use x="55.615234" xlink:href="#ArialMT-30"/>
       <use x="111.230469" xlink:href="#ArialMT-30"/>
      </g>
     </g>
    </g>
    <g id="xtick_9">
     <g id="line2d_9">
      <g>
       <use style="fill:#262626;stroke:#262626;" x="648" xlink:href="#mfa375f3a9f" y="270.72"/>
      </g>
     </g>
     <g id="text_9">
      <!-- 800 -->
      <defs>
       <path d="M 17.671875 38.8125 
Q 12.203125 40.828125 9.5625 44.53125 
Q 6.9375 48.25 6.9375 53.421875 
Q 6.9375 61.234375 12.546875 66.546875 
Q 18.171875 71.875 27.484375 71.875 
Q 36.859375 71.875 42.578125 66.421875 
Q 48.296875 60.984375 48.296875 53.171875 
Q 48.296875 48.1875 45.671875 44.5 
Q 43.0625 40.828125 37.75 38.8125 
Q 44.34375 36.671875 47.78125 31.875 
Q 51.21875 27.09375 51.21875 20.453125 
Q 51.21875 11.28125 44.71875 5.03125 
Q 38.234375 -1.21875 27.640625 -1.21875 
Q 17.046875 -1.21875 10.546875 5.046875 
Q 4.046875 11.328125 4.046875 20.703125 
Q 4.046875 27.6875 7.59375 32.390625 
Q 11.140625 37.109375 17.671875 38.8125 
z
M 15.921875 53.71875 
Q 15.921875 48.640625 19.1875 45.40625 
Q 22.46875 42.1875 27.6875 42.1875 
Q 32.765625 42.1875 36.015625 45.375 
Q 39.265625 48.578125 39.265625 53.21875 
Q 39.265625 58.0625 35.90625 61.359375 
Q 32.5625 64.65625 27.59375 64.65625 
Q 22.5625 64.65625 19.234375 61.421875 
Q 15.921875 58.203125 15.921875 53.71875 
z
M 13.09375 20.65625 
Q 13.09375 16.890625 14.875 13.375 
Q 16.65625 9.859375 20.171875 7.921875 
Q 23.6875 6 27.734375 6 
Q 34.03125 6 38.125 10.046875 
Q 42.234375 14.109375 42.234375 20.359375 
Q 42.234375 26.703125 38.015625 30.859375 
Q 33.796875 35.015625 27.4375 35.015625 
Q 21.234375 35.015625 17.15625 30.90625 
Q 13.09375 26.8125 13.09375 20.65625 
z
" id="ArialMT-38"/>
      </defs>
      <g style="fill:#262626;" transform="translate(639.658594 290.877812)scale(0.1 -0.1)">
       <use xlink:href="#ArialMT-38"/>
       <use x="55.615234" xlink:href="#ArialMT-30"/>
       <use x="111.230469" xlink:href="#ArialMT-30"/>
      </g>
     </g>
    </g>
   </g>
   <g id="matplotlib.axis_2">
    <g id="ytick_1">
     <g id="line2d_10">
      <defs>
       <path d="M 0 0 
L -6 0 
" id="m4a779804d9" style="stroke:#262626;"/>
      </defs>
      <g>
       <use style="fill:#262626;stroke:#262626;" x="90" xlink:href="#m4a779804d9" y="250.56"/>
      </g>
     </g>
     <g id="text_10">
      <!-- −0.04 -->
      <defs>
       <path d="M 52.828125 31.203125 
L 5.5625 31.203125 
L 5.5625 39.40625 
L 52.828125 39.40625 
z
" id="ArialMT-2212"/>
       <path d="M 9.078125 0 
L 9.078125 10.015625 
L 19.09375 10.015625 
L 19.09375 0 
z
" id="ArialMT-2e"/>
      </defs>
      <g style="fill:#262626;" transform="translate(51.698437 254.138906)scale(0.1 -0.1)">
       <use xlink:href="#ArialMT-2212"/>
       <use x="58.398438" xlink:href="#ArialMT-30"/>
       <use x="114.013672" xlink:href="#ArialMT-2e"/>
       <use x="141.796875" xlink:href="#ArialMT-30"/>
       <use x="197.412109" xlink:href="#ArialMT-34"/>
      </g>
     </g>
    </g>
    <g id="ytick_2">
     <g id="line2d_11">
      <g>
       <use style="fill:#262626;stroke:#262626;" x="90" xlink:href="#m4a779804d9" y="210.24"/>
      </g>
     </g>
     <g id="text_11">
      <!-- −0.02 -->
      <g style="fill:#262626;" transform="translate(51.698437 213.818906)scale(0.1 -0.1)">
       <use xlink:href="#ArialMT-2212"/>
       <use x="58.398438" xlink:href="#ArialMT-30"/>
       <use x="114.013672" xlink:href="#ArialMT-2e"/>
       <use x="141.796875" xlink:href="#ArialMT-30"/>
       <use x="197.412109" xlink:href="#ArialMT-32"/>
      </g>
     </g>
    </g>
    <g id="ytick_3">
     <g id="line2d_12">
      <g>
       <use style="fill:#262626;stroke:#262626;" x="90" xlink:href="#m4a779804d9" y="169.92"/>
      </g>
     </g>
     <g id="text_12">
      <!-- 0.00 -->
      <g style="fill:#262626;" transform="translate(57.539062 173.498906)scale(0.1 -0.1)">
       <use xlink:href="#ArialMT-30"/>
       <use x="55.615234" xlink:href="#ArialMT-2e"/>
       <use x="83.398438" xlink:href="#ArialMT-30"/>
       <use x="139.013672" xlink:href="#ArialMT-30"/>
      </g>
     </g>
    </g>
    <g id="ytick_4">
     <g id="line2d_13">
      <g>
       <use style="fill:#262626;stroke:#262626;" x="90" xlink:href="#m4a779804d9" y="129.6"/>
      </g>
     </g>
     <g id="text_13">
      <!-- 0.02 -->
      <g style="fill:#262626;" transform="translate(57.539062 133.178906)scale(0.1 -0.1)">
       <use xlink:href="#ArialMT-30"/>
       <use x="55.615234" xlink:href="#ArialMT-2e"/>
       <use x="83.398438" xlink:href="#ArialMT-30"/>
       <use x="139.013672" xlink:href="#ArialMT-32"/>
      </g>
     </g>
    </g>
    <g id="ytick_5">
     <g id="line2d_14">
      <g>
       <use style="fill:#262626;stroke:#262626;" x="90" xlink:href="#m4a779804d9" y="89.28"/>
      </g>
     </g>
     <g id="text_14">
      <!-- 0.04 -->
      <g style="fill:#262626;" transform="translate(57.539062 92.858906)scale(0.1 -0.1)">
       <use xlink:href="#ArialMT-30"/>
       <use x="55.615234" xlink:href="#ArialMT-2e"/>
       <use x="83.398438" xlink:href="#ArialMT-30"/>
       <use x="139.013672" xlink:href="#ArialMT-34"/>
      </g>
     </g>
    </g>
   </g>
   <g id="PolyCollection_1">
    <path clip-path="url(#p1249fc986c)" d="M 90 216.375155 
L 90 169.92 
L 90.6975 169.92 
L 91.395 169.92 
L 92.0925 169.92 
L 92.79 169.92 
L 93.4875 169.92 
L 94.185 169.92 
L 94.8825 169.92 
L 95.58 169.92 
L 96.2775 169.92 
L 96.975 169.92 
L 97.6725 169.92 
L 98.37 169.92 
L 99.0675 169.92 
L 99.765 169.92 
L 100.4625 169.92 
L 101.16 169.92 
L 101.8575 169.92 
L 102.555 169.92 
L 103.2525 169.92 
L 103.95 169.92 
L 104.6475 169.92 
L 105.345 169.92 
L 106.0425 169.92 
L 106.74 169.92 
L 107.4375 169.92 
L 108.135 169.92 
L 108.8325 169.92 
L 109.53 169.92 
L 110.2275 169.92 
L 110.925 169.92 
L 111.6225 169.92 
L 112.32 169.92 
L 113.0175 169.92 
L 113.715 169.92 
L 114.4125 169.92 
L 115.11 169.92 
L 115.8075 169.92 
L 116.505 169.92 
L 117.2025 169.92 
L 117.9 169.92 
L 118.5975 169.92 
L 119.295 169.92 
L 119.9925 169.92 
L 120.69 169.92 
L 121.3875 169.92 
L 122.085 169.92 
L 122.7825 169.92 
L 123.48 169.92 
L 124.1775 169.92 
L 124.875 169.92 
L 125.5725 169.92 
L 126.27 169.92 
L 126.9675 169.92 
L 127.665 169.92 
L 128.3625 169.92 
L 129.06 169.92 
L 129.7575 169.92 
L 130.455 169.92 
L 131.1525 169.92 
L 131.85 169.92 
L 132.5475 169.92 
L 133.245 169.92 
L 133.9425 169.92 
L 134.64 169.92 
L 135.3375 169.92 
L 136.035 169.92 
L 136.7325 169.92 
L 137.43 169.92 
L 138.1275 169.92 
L 138.825 169.92 
L 139.5225 169.92 
L 140.22 169.92 
L 140.9175 169.92 
L 141.615 169.92 
L 142.3125 169.92 
L 143.01 169.92 
L 143.7075 169.92 
L 144.405 169.92 
L 145.1025 169.92 
L 145.8 169.92 
L 146.4975 169.92 
L 147.195 169.92 
L 147.8925 169.92 
L 148.59 169.92 
L 149.2875 169.92 
L 149.985 169.92 
L 150.6825 169.92 
L 151.38 169.92 
L 152.0775 169.92 
L 152.775 169.92 
L 153.4725 169.92 
L 154.17 169.92 
L 154.8675 169.92 
L 155.565 169.92 
L 156.2625 169.92 
L 156.96 169.92 
L 157.6575 169.92 
L 158.355 169.92 
L 159.0525 169.92 
L 159.75 169.92 
L 160.4475 169.92 
L 161.145 169.92 
L 161.8425 169.92 
L 162.54 169.92 
L 163.2375 169.92 
L 163.935 169.92 
L 164.6325 169.92 
L 165.33 169.92 
L 166.0275 169.92 
L 166.725 169.92 
L 167.4225 169.92 
L 168.12 169.92 
L 168.8175 169.92 
L 169.515 169.92 
L 170.2125 169.92 
L 170.91 169.92 
L 171.6075 169.92 
L 172.305 169.92 
L 173.0025 169.92 
L 173.7 169.92 
L 174.3975 169.92 
L 175.095 169.92 
L 175.7925 169.92 
L 176.49 169.92 
L 177.1875 169.92 
L 177.885 169.92 
L 178.5825 169.92 
L 179.28 169.92 
L 179.9775 169.92 
L 180.675 169.92 
L 181.3725 169.92 
L 182.07 169.92 
L 182.7675 169.92 
L 183.465 169.92 
L 184.1625 169.92 
L 184.86 169.92 
L 185.5575 169.92 
L 186.255 169.92 
L 186.9525 169.92 
L 187.65 169.92 
L 188.3475 169.92 
L 189.045 169.92 
L 189.7425 169.92 
L 190.44 169.92 
L 191.1375 169.92 
L 191.835 169.92 
L 192.5325 169.92 
L 193.23 169.92 
L 193.9275 169.92 
L 194.625 169.92 
L 195.3225 169.92 
L 196.02 169.92 
L 196.7175 169.92 
L 197.415 169.92 
L 198.1125 169.92 
L 198.81 169.92 
L 199.5075 169.92 
L 200.205 169.92 
L 200.9025 169.92 
L 201.6 169.92 
L 202.2975 169.92 
L 202.995 169.92 
L 203.6925 169.92 
L 204.39 169.92 
L 205.0875 169.92 
L 205.785 169.92 
L 206.4825 169.92 
L 207.18 169.92 
L 207.8775 169.92 
L 208.575 169.92 
L 209.2725 169.92 
L 209.97 169.92 
L 210.6675 169.92 
L 211.365 169.92 
L 212.0625 169.92 
L 212.76 169.92 
L 213.4575 169.92 
L 214.155 169.92 
L 214.8525 169.92 
L 215.55 169.92 
L 216.2475 169.92 
L 216.945 169.92 
L 217.6425 169.92 
L 218.34 169.92 
L 219.0375 169.92 
L 219.735 169.92 
L 220.4325 169.92 
L 221.13 169.92 
L 221.8275 169.92 
L 222.525 169.92 
L 223.2225 169.92 
L 223.92 169.92 
L 224.6175 169.92 
L 225.315 169.92 
L 226.0125 169.92 
L 226.71 169.92 
L 227.4075 169.92 
L 228.105 169.92 
L 228.8025 169.92 
L 229.5 169.92 
L 230.1975 169.92 
L 230.895 169.92 
L 231.5925 169.92 
L 232.29 169.92 
L 232.9875 169.92 
L 233.685 169.92 
L 234.3825 169.92 
L 235.08 169.92 
L 235.7775 169.92 
L 236.475 169.92 
L 237.1725 169.92 
L 237.87 169.92 
L 238.5675 169.92 
L 239.265 169.92 
L 239.9625 169.92 
L 240.66 169.92 
L 241.3575 169.92 
L 242.055 169.92 
L 242.7525 169.92 
L 243.45 169.92 
L 244.1475 169.92 
L 244.845 169.92 
L 245.5425 169.92 
L 246.24 169.92 
L 246.9375 169.92 
L 247.635 169.92 
L 248.3325 169.92 
L 249.03 169.92 
L 249.7275 169.92 
L 250.425 169.92 
L 251.1225 169.92 
L 251.82 169.92 
L 252.5175 169.92 
L 253.215 169.92 
L 253.9125 169.92 
L 254.61 169.92 
L 255.3075 169.92 
L 256.005 169.92 
L 256.7025 169.92 
L 257.4 169.92 
L 258.0975 169.92 
L 258.795 169.92 
L 259.4925 169.92 
L 260.19 169.92 
L 260.8875 169.92 
L 261.585 169.92 
L 262.2825 169.92 
L 262.98 169.92 
L 263.6775 169.92 
L 264.375 169.92 
L 265.0725 169.92 
L 265.77 169.92 
L 266.4675 169.92 
L 267.165 169.92 
L 267.8625 169.92 
L 268.56 169.92 
L 269.2575 169.92 
L 269.955 169.92 
L 270.6525 169.92 
L 271.35 169.92 
L 272.0475 169.92 
L 272.745 169.92 
L 273.4425 169.92 
L 274.14 169.92 
L 274.8375 169.92 
L 275.535 169.92 
L 276.2325 169.92 
L 276.93 169.92 
L 277.6275 169.92 
L 278.325 169.92 
L 279.0225 169.92 
L 279.72 169.92 
L 280.4175 169.92 
L 281.115 169.92 
L 281.8125 169.92 
L 282.51 169.92 
L 283.2075 169.92 
L 283.905 169.92 
L 284.6025 169.92 
L 285.3 169.92 
L 285.9975 169.92 
L 286.695 169.92 
L 287.3925 169.92 
L 288.09 169.92 
L 288.7875 169.92 
L 289.485 169.92 
L 290.1825 169.92 
L 290.88 169.92 
L 291.5775 169.92 
L 292.275 169.92 
L 292.9725 169.92 
L 293.67 169.92 
L 294.3675 169.92 
L 295.065 169.92 
L 295.7625 169.92 
L 296.46 169.92 
L 297.1575 169.92 
L 297.855 169.92 
L 298.5525 169.92 
L 299.25 169.92 
L 299.9475 169.92 
L 300.645 169.92 
L 301.3425 169.92 
L 302.04 169.92 
L 302.7375 169.92 
L 303.435 169.92 
L 304.1325 169.92 
L 304.83 169.92 
L 305.5275 169.92 
L 306.225 169.92 
L 306.9225 169.92 
L 307.62 169.92 
L 308.3175 169.92 
L 309.015 169.92 
L 309.7125 169.92 
L 310.41 169.92 
L 311.1075 169.92 
L 311.805 169.92 
L 312.5025 169.92 
L 313.2 169.92 
L 313.8975 169.92 
L 314.595 169.92 
L 315.2925 169.92 
L 315.99 169.92 
L 316.6875 169.92 
L 317.385 169.92 
L 318.0825 169.92 
L 318.78 169.92 
L 319.4775 169.92 
L 320.175 169.92 
L 320.8725 169.92 
L 321.57 169.92 
L 322.2675 169.92 
L 322.965 169.92 
L 323.6625 169.92 
L 324.36 169.92 
L 325.0575 169.92 
L 325.755 169.92 
L 326.4525 169.92 
L 327.15 169.92 
L 327.8475 169.92 
L 328.545 169.92 
L 329.2425 169.92 
L 329.94 169.92 
L 330.6375 169.92 
L 331.335 169.92 
L 332.0325 169.92 
L 332.73 169.92 
L 333.4275 169.92 
L 334.125 169.92 
L 334.8225 169.92 
L 335.52 169.92 
L 336.2175 169.92 
L 336.915 169.92 
L 337.6125 169.92 
L 338.31 169.92 
L 339.0075 169.92 
L 339.705 169.92 
L 340.4025 169.92 
L 341.1 169.92 
L 341.7975 169.92 
L 342.495 169.92 
L 343.1925 169.92 
L 343.89 169.92 
L 344.5875 169.92 
L 345.285 169.92 
L 345.9825 169.92 
L 346.68 169.92 
L 347.3775 169.92 
L 348.075 169.92 
L 348.7725 169.92 
L 349.47 169.92 
L 350.1675 169.92 
L 350.865 169.92 
L 351.5625 169.92 
L 352.26 169.92 
L 352.9575 169.92 
L 353.655 169.92 
L 354.3525 169.92 
L 355.05 169.92 
L 355.7475 169.92 
L 356.445 169.92 
L 357.1425 169.92 
L 357.84 169.92 
L 358.5375 169.92 
L 359.235 169.92 
L 359.9325 169.92 
L 360.63 169.92 
L 361.3275 169.92 
L 362.025 169.92 
L 362.7225 169.92 
L 363.42 169.92 
L 364.1175 169.92 
L 364.815 169.92 
L 365.5125 169.92 
L 366.21 169.92 
L 366.9075 169.92 
L 367.605 169.92 
L 368.3025 169.92 
L 369 169.92 
L 369.6975 169.92 
L 370.395 169.92 
L 371.0925 169.92 
L 371.79 169.92 
L 372.4875 169.92 
L 373.185 169.92 
L 373.8825 169.92 
L 374.58 169.92 
L 375.2775 169.92 
L 375.975 169.92 
L 376.6725 169.92 
L 377.37 169.92 
L 378.0675 169.92 
L 378.765 169.92 
L 379.4625 169.92 
L 380.16 169.92 
L 380.8575 169.92 
L 381.555 169.92 
L 382.2525 169.92 
L 382.95 169.92 
L 383.6475 169.92 
L 384.345 169.92 
L 385.0425 169.92 
L 385.74 169.92 
L 386.4375 169.92 
L 387.135 169.92 
L 387.8325 169.92 
L 388.53 169.92 
L 389.2275 169.92 
L 389.925 169.92 
L 390.6225 169.92 
L 391.32 169.92 
L 392.0175 169.92 
L 392.715 169.92 
L 393.4125 169.92 
L 394.11 169.92 
L 394.8075 169.92 
L 395.505 169.92 
L 396.2025 169.92 
L 396.9 169.92 
L 397.5975 169.92 
L 398.295 169.92 
L 398.9925 169.92 
L 399.69 169.92 
L 400.3875 169.92 
L 401.085 169.92 
L 401.7825 169.92 
L 402.48 169.92 
L 403.1775 169.92 
L 403.875 169.92 
L 404.5725 169.92 
L 405.27 169.92 
L 405.9675 169.92 
L 406.665 169.92 
L 407.3625 169.92 
L 408.06 169.92 
L 408.7575 169.92 
L 409.455 169.92 
L 410.1525 169.92 
L 410.85 169.92 
L 411.5475 169.92 
L 412.245 169.92 
L 412.9425 169.92 
L 413.64 169.92 
L 414.3375 169.92 
L 415.035 169.92 
L 415.7325 169.92 
L 416.43 169.92 
L 417.1275 169.92 
L 417.825 169.92 
L 418.5225 169.92 
L 419.22 169.92 
L 419.9175 169.92 
L 420.615 169.92 
L 421.3125 169.92 
L 422.01 169.92 
L 422.7075 169.92 
L 423.405 169.92 
L 424.1025 169.92 
L 424.8 169.92 
L 425.4975 169.92 
L 426.195 169.92 
L 426.8925 169.92 
L 427.59 169.92 
L 428.2875 169.92 
L 428.985 169.92 
L 429.6825 169.92 
L 430.38 169.92 
L 431.0775 169.92 
L 431.775 169.92 
L 432.4725 169.92 
L 433.17 169.92 
L 433.8675 169.92 
L 434.565 169.92 
L 435.2625 169.92 
L 435.96 169.92 
L 436.6575 169.92 
L 437.355 169.92 
L 438.0525 169.92 
L 438.75 169.92 
L 439.4475 169.92 
L 440.145 169.92 
L 440.8425 169.92 
L 441.54 169.92 
L 442.2375 169.92 
L 442.935 169.92 
L 443.6325 169.92 
L 444.33 169.92 
L 445.0275 169.92 
L 445.725 169.92 
L 446.4225 169.92 
L 447.12 169.92 
L 447.8175 169.92 
L 448.515 169.92 
L 449.2125 169.92 
L 449.91 169.92 
L 450.6075 169.92 
L 451.305 169.92 
L 452.0025 169.92 
L 452.7 169.92 
L 453.3975 169.92 
L 454.095 169.92 
L 454.7925 169.92 
L 455.49 169.92 
L 456.1875 169.92 
L 456.885 169.92 
L 457.5825 169.92 
L 458.28 169.92 
L 458.9775 169.92 
L 459.675 169.92 
L 460.3725 169.92 
L 461.07 169.92 
L 461.7675 169.92 
L 462.465 169.92 
L 463.1625 169.92 
L 463.86 169.92 
L 464.5575 169.92 
L 465.255 169.92 
L 465.9525 169.92 
L 466.65 169.92 
L 467.3475 169.92 
L 468.045 169.92 
L 468.7425 169.92 
L 469.44 169.92 
L 470.1375 169.92 
L 470.835 169.92 
L 471.5325 169.92 
L 472.23 169.92 
L 472.9275 169.92 
L 473.625 169.92 
L 474.3225 169.92 
L 475.02 169.92 
L 475.7175 169.92 
L 476.415 169.92 
L 477.1125 169.92 
L 477.81 169.92 
L 478.5075 169.92 
L 479.205 169.92 
L 479.9025 169.92 
L 480.6 169.92 
L 481.2975 169.92 
L 481.995 169.92 
L 482.6925 169.92 
L 483.39 169.92 
L 484.0875 169.92 
L 484.785 169.92 
L 485.4825 169.92 
L 486.18 169.92 
L 486.8775 169.92 
L 487.575 169.92 
L 488.2725 169.92 
L 488.97 169.92 
L 489.6675 169.92 
L 490.365 169.92 
L 491.0625 169.92 
L 491.76 169.92 
L 492.4575 169.92 
L 493.155 169.92 
L 493.8525 169.92 
L 494.55 169.92 
L 495.2475 169.92 
L 495.945 169.92 
L 496.6425 169.92 
L 497.34 169.92 
L 498.0375 169.92 
L 498.735 169.92 
L 499.4325 169.92 
L 500.13 169.92 
L 500.8275 169.92 
L 501.525 169.92 
L 502.2225 169.92 
L 502.92 169.92 
L 503.6175 169.92 
L 504.315 169.92 
L 505.0125 169.92 
L 505.71 169.92 
L 506.4075 169.92 
L 507.105 169.92 
L 507.8025 169.92 
L 508.5 169.92 
L 509.1975 169.92 
L 509.895 169.92 
L 510.5925 169.92 
L 511.29 169.92 
L 511.9875 169.92 
L 512.685 169.92 
L 513.3825 169.92 
L 514.08 169.92 
L 514.7775 169.92 
L 515.475 169.92 
L 516.1725 169.92 
L 516.87 169.92 
L 517.5675 169.92 
L 518.265 169.92 
L 518.9625 169.92 
L 519.66 169.92 
L 520.3575 169.92 
L 521.055 169.92 
L 521.7525 169.92 
L 522.45 169.92 
L 523.1475 169.92 
L 523.845 169.92 
L 524.5425 169.92 
L 525.24 169.92 
L 525.9375 169.92 
L 526.635 169.92 
L 527.3325 169.92 
L 528.03 169.92 
L 528.7275 169.92 
L 529.425 169.92 
L 530.1225 169.92 
L 530.82 169.92 
L 531.5175 169.92 
L 532.215 169.92 
L 532.9125 169.92 
L 533.61 169.92 
L 534.3075 169.92 
L 535.005 169.92 
L 535.7025 169.92 
L 536.4 169.92 
L 537.0975 169.92 
L 537.795 169.92 
L 538.4925 169.92 
L 539.19 169.92 
L 539.8875 169.92 
L 540.585 169.92 
L 541.2825 169.92 
L 541.98 169.92 
L 542.6775 169.92 
L 543.375 169.92 
L 544.0725 169.92 
L 544.77 169.92 
L 545.4675 169.92 
L 546.165 169.92 
L 546.8625 169.92 
L 547.56 169.92 
L 548.2575 169.92 
L 548.955 169.92 
L 549.6525 169.92 
L 550.35 169.92 
L 551.0475 169.92 
L 551.745 169.92 
L 552.4425 169.92 
L 553.14 169.92 
L 553.8375 169.92 
L 554.535 169.92 
L 555.2325 169.92 
L 555.93 169.92 
L 556.6275 169.92 
L 557.325 169.92 
L 558.0225 169.92 
L 558.72 169.92 
L 559.4175 169.92 
L 560.115 169.92 
L 560.8125 169.92 
L 561.51 169.92 
L 562.2075 169.92 
L 562.905 169.92 
L 563.6025 169.92 
L 564.3 169.92 
L 564.9975 169.92 
L 565.695 169.92 
L 566.3925 169.92 
L 567.09 169.92 
L 567.7875 169.92 
L 568.485 169.92 
L 569.1825 169.92 
L 569.88 169.92 
L 570.5775 169.92 
L 571.275 169.92 
L 571.9725 169.92 
L 572.67 169.92 
L 573.3675 169.92 
L 574.065 169.92 
L 574.7625 169.92 
L 575.46 169.92 
L 576.1575 169.92 
L 576.855 169.92 
L 577.5525 169.92 
L 578.25 169.92 
L 578.9475 169.92 
L 579.645 169.92 
L 580.3425 169.92 
L 581.04 169.92 
L 581.7375 169.92 
L 582.435 169.92 
L 583.1325 169.92 
L 583.83 169.92 
L 584.5275 169.92 
L 585.225 169.92 
L 585.9225 169.92 
L 586.62 169.92 
L 587.3175 169.92 
L 588.015 169.92 
L 588.7125 169.92 
L 589.41 169.92 
L 590.1075 169.92 
L 590.805 169.92 
L 591.5025 169.92 
L 592.2 169.92 
L 592.8975 169.92 
L 593.595 169.92 
L 594.2925 169.92 
L 594.99 169.92 
L 595.6875 169.92 
L 596.385 169.92 
L 597.0825 169.92 
L 597.78 169.92 
L 598.4775 169.92 
L 599.175 169.92 
L 599.8725 169.92 
L 600.57 169.92 
L 601.2675 169.92 
L 601.965 169.92 
L 602.6625 169.92 
L 603.36 169.92 
L 604.0575 169.92 
L 604.755 169.92 
L 605.4525 169.92 
L 606.15 169.92 
L 606.8475 169.92 
L 607.545 169.92 
L 608.2425 169.92 
L 608.94 169.92 
L 609.6375 169.92 
L 610.335 169.92 
L 611.0325 169.92 
L 611.73 169.92 
L 612.4275 169.92 
L 613.125 169.92 
L 613.8225 169.92 
L 614.52 169.92 
L 615.2175 169.92 
L 615.915 169.92 
L 616.6125 169.92 
L 617.31 169.92 
L 618.0075 169.92 
L 618.705 169.92 
L 619.4025 169.92 
L 620.1 169.92 
L 620.7975 169.92 
L 621.495 169.92 
L 622.1925 169.92 
L 622.89 169.92 
L 623.5875 169.92 
L 624.285 169.92 
L 624.9825 169.92 
L 625.68 169.92 
L 626.3775 169.92 
L 627.075 169.92 
L 627.7725 169.92 
L 628.47 169.92 
L 629.1675 169.92 
L 629.865 169.92 
L 630.5625 169.92 
L 631.26 169.92 
L 631.9575 169.92 
L 632.655 169.92 
L 633.3525 169.92 
L 634.05 169.92 
L 634.7475 169.92 
L 635.445 169.92 
L 636.1425 169.92 
L 636.84 169.92 
L 637.5375 169.92 
L 638.235 169.92 
L 638.9325 169.92 
L 639.63 169.92 
L 640.3275 169.92 
L 641.025 169.92 
L 641.7225 169.92 
L 642.42 169.92 
L 643.1175 169.92 
L 643.815 169.92 
L 644.5125 169.92 
L 645.21 169.92 
L 645.9075 169.92 
L 646.605 169.92 
L 646.605 169.92 
L 646.605 169.92 
L 645.9075 169.93893 
L 645.21 169.989388 
L 644.5125 170.054488 
L 643.815 170.136258 
L 643.1175 170.238808 
L 642.42 170.353605 
L 641.7225 170.478412 
L 641.025 170.627807 
L 640.3275 170.7932 
L 639.63 170.972296 
L 638.9325 171.175402 
L 638.235 171.389659 
L 637.5375 171.623233 
L 636.84 171.871641 
L 636.1425 172.136698 
L 635.445 172.418093 
L 634.7475 172.713394 
L 634.05 173.01805 
L 633.3525 173.3296 
L 632.655 173.6603 
L 631.9575 174.001351 
L 631.26 174.35656 
L 630.5625 174.727616 
L 629.865 175.116188 
L 629.1675 175.509201 
L 628.47 175.916713 
L 627.7725 176.336145 
L 627.075 176.773315 
L 626.3775 177.215092 
L 625.68 177.669374 
L 624.9825 178.131423 
L 624.285 178.596492 
L 623.5875 179.07876 
L 622.89 179.565043 
L 622.1925 180.061084 
L 621.495 180.564198 
L 620.7975 181.069591 
L 620.1 181.570362 
L 619.4025 182.08065 
L 618.705 182.589339 
L 618.0075 183.100044 
L 617.31 183.605855 
L 616.6125 184.10408 
L 615.915 184.604652 
L 615.2175 185.096468 
L 614.52 185.581059 
L 613.8225 186.064166 
L 613.125 186.541018 
L 612.4275 187.006851 
L 611.73 187.463225 
L 611.0325 187.920122 
L 610.335 188.370697 
L 609.6375 188.808114 
L 608.94 189.238173 
L 608.2425 189.656162 
L 607.545 190.057387 
L 606.8475 190.451896 
L 606.15 190.837124 
L 605.4525 191.208413 
L 604.755 191.550607 
L 604.0575 191.882235 
L 603.36 192.186084 
L 602.6625 192.472313 
L 601.965 192.732176 
L 601.2675 192.969576 
L 600.57 193.18213 
L 599.8725 193.367489 
L 599.175 193.52964 
L 598.4775 193.655776 
L 597.78 193.762575 
L 597.0825 193.833085 
L 596.385 193.875638 
L 595.6875 193.885977 
L 594.99 193.86409 
L 594.2925 193.816313 
L 593.595 193.732184 
L 592.8975 193.618113 
L 592.2 193.467922 
L 591.5025 193.275477 
L 590.805 193.053623 
L 590.1075 192.800516 
L 589.41 192.512246 
L 588.7125 192.184942 
L 588.015 191.827401 
L 587.3175 191.442144 
L 586.62 191.021208 
L 585.9225 190.565086 
L 585.225 190.068 
L 584.5275 189.534739 
L 583.83 188.970131 
L 583.1325 188.379046 
L 582.435 187.760069 
L 581.7375 187.109718 
L 581.04 186.428753 
L 580.3425 185.717971 
L 579.645 184.971893 
L 578.9475 184.1977 
L 578.25 183.389988 
L 577.5525 182.549701 
L 576.855 181.688338 
L 576.1575 180.794286 
L 575.46 179.883315 
L 574.7625 178.937558 
L 574.065 177.962329 
L 573.3675 176.962973 
L 572.67 175.934351 
L 571.9725 174.892386 
L 571.275 173.827782 
L 570.5775 172.739679 
L 569.88 171.627246 
L 569.1825 170.5023 
L 568.485 169.353537 
L 567.7875 168.182299 
L 567.09 167.002577 
L 566.3925 165.807335 
L 565.695 164.597971 
L 564.9975 163.380107 
L 564.3 162.161474 
L 563.6025 160.935086 
L 562.905 159.698169 
L 562.2075 158.46479 
L 561.51 157.227976 
L 560.8125 155.993381 
L 560.115 154.764551 
L 559.4175 153.54082 
L 558.72 152.327825 
L 558.0225 151.118571 
L 557.325 149.924988 
L 556.6275 148.735852 
L 555.93 147.565173 
L 555.2325 146.4017 
L 554.535 145.255206 
L 553.8375 144.129134 
L 553.14 143.016389 
L 552.4425 141.932995 
L 551.745 140.863391 
L 551.0475 139.823551 
L 550.35 138.804175 
L 549.6525 137.819073 
L 548.955 136.858882 
L 548.2575 135.920517 
L 547.56 135.015592 
L 546.8625 134.145164 
L 546.165 133.308149 
L 545.4675 132.501317 
L 544.77 131.72982 
L 544.0725 130.992455 
L 543.375 130.292188 
L 542.6775 129.627734 
L 541.98 129.010388 
L 541.2825 128.426146 
L 540.585 127.884107 
L 539.8875 127.384902 
L 539.19 126.927014 
L 538.4925 126.51939 
L 537.795 126.1583 
L 537.0975 125.84627 
L 536.4 125.583664 
L 535.7025 125.372893 
L 535.005 125.207894 
L 534.3075 125.099376 
L 533.61 125.034845 
L 532.9125 125.026998 
L 532.215 125.065326 
L 531.5175 125.160302 
L 530.82 125.309712 
L 530.1225 125.511276 
L 529.425 125.773174 
L 528.7275 126.082478 
L 528.03 126.44724 
L 527.3325 126.864931 
L 526.635 127.332959 
L 525.9375 127.848674 
L 525.24 128.415679 
L 524.5425 129.031207 
L 523.845 129.696644 
L 523.1475 130.413313 
L 522.45 131.171964 
L 521.7525 131.975917 
L 521.055 132.820024 
L 520.3575 133.707506 
L 519.66 134.639429 
L 518.9625 135.612599 
L 518.265 136.623775 
L 517.5675 137.68019 
L 516.87 138.7764 
L 516.1725 139.906917 
L 515.475 141.078834 
L 514.7775 142.288677 
L 514.08 143.535031 
L 513.3825 144.816439 
L 512.685 146.127196 
L 511.9875 147.463667 
L 511.29 148.826392 
L 510.5925 150.217985 
L 509.895 151.641026 
L 509.1975 153.08754 
L 508.5 154.562147 
L 507.8025 156.052606 
L 507.105 157.571898 
L 506.4075 159.109833 
L 505.71 160.666717 
L 505.0125 162.234419 
L 504.315 163.819519 
L 503.6175 165.420166 
L 502.92 167.028176 
L 502.2225 168.654291 
L 501.525 170.286092 
L 500.8275 171.925878 
L 500.13 173.565423 
L 499.4325 175.204913 
L 498.735 176.84874 
L 498.0375 178.49288 
L 497.34 180.135411 
L 496.6425 181.772308 
L 495.945 183.405865 
L 495.2475 185.034173 
L 494.55 186.659533 
L 493.8525 188.267425 
L 493.155 189.866488 
L 492.4575 191.44223 
L 491.76 193.00543 
L 491.0625 194.54795 
L 490.365 196.067987 
L 489.6675 197.56166 
L 488.97 199.03143 
L 488.2725 200.471371 
L 487.575 201.881904 
L 486.8775 203.269793 
L 486.18 204.629208 
L 485.4825 205.954353 
L 484.785 207.24368 
L 484.0875 208.50199 
L 483.39 209.723607 
L 482.6925 210.902894 
L 481.995 212.038474 
L 481.2975 213.133226 
L 480.6 214.181662 
L 479.9025 215.18466 
L 479.205 216.138945 
L 478.5075 217.047607 
L 477.81 217.903274 
L 477.1125 218.709153 
L 476.415 219.460094 
L 475.7175 220.163633 
L 475.02 220.808431 
L 474.3225 221.395837 
L 473.625 221.925164 
L 472.9275 222.39369 
L 472.23 222.800868 
L 471.5325 223.146221 
L 470.835 223.439863 
L 470.1375 223.670933 
L 469.44 223.841264 
L 468.7425 223.954865 
L 468.045 224.009498 
L 467.3475 224.000894 
L 466.65 223.933269 
L 465.9525 223.810908 
L 465.255 223.633956 
L 464.5575 223.396308 
L 463.86 223.098243 
L 463.1625 222.746419 
L 462.465 222.332834 
L 461.7675 221.872695 
L 461.07 221.351816 
L 460.3725 220.772911 
L 459.675 220.136655 
L 458.9775 219.441689 
L 458.28 218.684619 
L 457.5825 217.878951 
L 456.885 217.021419 
L 456.1875 216.106716 
L 455.49 215.138014 
L 454.7925 214.126964 
L 454.095 213.06423 
L 453.3975 211.955261 
L 452.7 210.801355 
L 452.0025 209.605962 
L 451.305 208.368379 
L 450.6075 207.090051 
L 449.91 205.774576 
L 449.2125 204.421389 
L 448.515 203.034176 
L 447.8175 201.612455 
L 447.12 200.153681 
L 446.4225 198.663766 
L 445.725 197.146557 
L 445.0275 195.601722 
L 444.33 194.03738 
L 443.6325 192.446944 
L 442.935 190.832274 
L 442.2375 189.193156 
L 441.54 187.539917 
L 440.8425 185.868183 
L 440.145 184.186216 
L 439.4475 182.489673 
L 438.75 180.788952 
L 438.0525 179.075523 
L 437.355 177.355597 
L 436.6575 175.631184 
L 435.96 173.900095 
L 435.2625 172.168558 
L 434.565 170.436497 
L 433.8675 168.708038 
L 433.17 166.980996 
L 432.4725 165.261596 
L 431.775 163.547643 
L 431.0775 161.84114 
L 430.38 160.144083 
L 429.6825 158.460558 
L 428.985 156.79043 
L 428.2875 155.135653 
L 427.59 153.496057 
L 426.8925 151.875663 
L 426.195 150.278469 
L 425.4975 148.704238 
L 424.8 147.154811 
L 424.1025 145.634102 
L 423.405 144.139684 
L 422.7075 142.681716 
L 422.01 141.251387 
L 421.3125 139.854575 
L 420.615 138.492914 
L 419.9175 137.165891 
L 419.22 135.875059 
L 418.5225 134.621926 
L 417.825 133.412165 
L 417.1275 132.242983 
L 416.43 131.117851 
L 415.7325 130.035979 
L 415.035 128.994428 
L 414.3375 128.002826 
L 413.64 127.060232 
L 412.9425 126.163539 
L 412.245 125.322211 
L 411.5475 124.530919 
L 410.85 123.786383 
L 410.1525 123.09368 
L 409.455 122.45362 
L 408.7575 121.866951 
L 408.06 121.332255 
L 407.3625 120.848055 
L 406.665 120.421226 
L 405.9675 120.041751 
L 405.27 119.716383 
L 404.5725 119.441297 
L 403.875 119.223123 
L 403.1775 119.060014 
L 402.48 118.947954 
L 401.7825 118.893383 
L 401.085 118.887952 
L 400.3875 118.935875 
L 399.69 119.039198 
L 398.9925 119.19149 
L 398.295 119.394677 
L 397.5975 119.654832 
L 396.9 119.967443 
L 396.2025 120.334248 
L 395.505 120.750612 
L 394.8075 121.218152 
L 394.11 121.73632 
L 393.4125 122.296098 
L 392.715 122.905245 
L 392.0175 123.563048 
L 391.32 124.264531 
L 390.6225 125.017288 
L 389.925 125.80782 
L 389.2275 126.64151 
L 388.53 127.523696 
L 387.8325 128.447034 
L 387.135 129.410447 
L 386.4375 130.419118 
L 385.74 131.463453 
L 385.0425 132.542233 
L 384.345 133.658401 
L 383.6475 134.810655 
L 382.95 135.993439 
L 382.2525 137.203267 
L 381.555 138.44083 
L 380.8575 139.706781 
L 380.16 140.99754 
L 379.4625 142.311596 
L 378.765 143.645309 
L 378.0675 144.995018 
L 377.37 146.365454 
L 376.6725 147.748705 
L 375.975 149.147361 
L 375.2775 150.561889 
L 374.58 151.986429 
L 373.8825 153.421419 
L 373.185 154.863078 
L 372.4875 156.311824 
L 371.79 157.765963 
L 371.0925 159.221692 
L 370.395 160.677308 
L 369.6975 162.131111 
L 369 163.587709 
L 368.3025 165.034884 
L 367.605 166.483564 
L 366.9075 167.923641 
L 366.21 169.353433 
L 365.5125 170.77337 
L 364.815 172.181792 
L 364.1175 173.572847 
L 363.42 174.949115 
L 362.7225 176.308986 
L 362.025 177.650871 
L 361.3275 178.973201 
L 360.63 180.278637 
L 359.9325 181.559342 
L 359.235 182.815922 
L 358.5375 184.049013 
L 357.84 185.248757 
L 357.1425 186.422167 
L 356.445 187.561561 
L 355.7475 188.669813 
L 355.05 189.743523 
L 354.3525 190.777231 
L 353.655 191.773934 
L 352.9575 192.730364 
L 352.26 193.649608 
L 351.5625 194.532696 
L 350.865 195.372286 
L 350.1675 196.169498 
L 349.47 196.923401 
L 348.7725 197.633114 
L 348.075 198.29991 
L 347.3775 198.923009 
L 346.68 199.503787 
L 345.9825 200.039461 
L 345.285 200.527301 
L 344.5875 200.968841 
L 343.89 201.365667 
L 343.1925 201.713109 
L 342.495 202.012865 
L 341.7975 202.264582 
L 341.1 202.465865 
L 340.4025 202.620684 
L 339.705 202.728859 
L 339.0075 202.788159 
L 338.31 202.800618 
L 337.6125 202.764119 
L 336.915 202.682911 
L 336.2175 202.557089 
L 335.52 202.382593 
L 334.8225 202.159628 
L 334.125 201.888454 
L 333.4275 201.57149 
L 332.73 201.207006 
L 332.0325 200.793323 
L 331.335 200.335132 
L 330.6375 199.830865 
L 329.94 199.276905 
L 329.2425 198.678106 
L 328.545 198.041478 
L 327.8475 197.35725 
L 327.15 196.634633 
L 326.4525 195.870268 
L 325.755 195.062943 
L 325.0575 194.215706 
L 324.36 193.329547 
L 323.6625 192.405503 
L 322.965 191.444654 
L 322.2675 190.448123 
L 321.57 189.419178 
L 320.8725 188.361127 
L 320.175 187.270999 
L 319.4775 186.152172 
L 318.78 185.005954 
L 318.0825 183.831582 
L 317.385 182.632532 
L 316.6875 181.412309 
L 315.99 180.170238 
L 315.2925 178.909872 
L 314.595 177.632686 
L 313.8975 176.34438 
L 313.2 175.040149 
L 312.5025 173.719415 
L 311.805 172.383723 
L 311.1075 171.034634 
L 310.41 169.675828 
L 309.7125 168.310998 
L 309.015 166.939635 
L 308.3175 165.565447 
L 307.62 164.185833 
L 306.9225 162.806614 
L 306.225 161.427297 
L 305.5275 160.055806 
L 304.83 158.693744 
L 304.1325 157.338498 
L 303.435 155.993754 
L 302.7375 154.663188 
L 302.04 153.344149 
L 301.3425 152.040283 
L 300.645 150.753114 
L 299.9475 149.484147 
L 299.25 148.234866 
L 298.5525 147.00673 
L 297.855 145.801177 
L 297.1575 144.623821 
L 296.46 143.473937 
L 295.7625 142.352868 
L 295.065 141.259823 
L 294.3675 140.198181 
L 293.67 139.169184 
L 292.9725 138.174036 
L 292.275 137.216003 
L 291.5775 136.291999 
L 290.88 135.40731 
L 290.1825 134.558765 
L 289.485 133.751561 
L 288.7875 132.984539 
L 288.09 132.258597 
L 287.3925 131.576685 
L 286.695 130.937499 
L 285.9975 130.343888 
L 285.3 129.79234 
L 284.6025 129.28981 
L 283.905 128.834781 
L 283.2075 128.427787 
L 282.51 128.069303 
L 281.8125 127.759747 
L 281.115 127.499482 
L 280.4175 127.288813 
L 279.72 127.130088 
L 279.0225 127.02139 
L 278.325 126.962846 
L 277.6275 126.956627 
L 276.93 127.002742 
L 276.2325 127.099033 
L 275.535 127.247491 
L 274.8375 127.447941 
L 274.14 127.702253 
L 273.4425 128.008027 
L 272.745 128.362802 
L 272.0475 128.770368 
L 271.35 129.226044 
L 270.6525 129.7314 
L 269.955 130.285845 
L 269.2575 130.886628 
L 268.56 131.537252 
L 267.8625 132.236957 
L 267.165 132.987029 
L 266.4675 133.782383 
L 265.77 134.624194 
L 265.0725 135.511476 
L 264.375 136.44109 
L 263.6775 137.416155 
L 262.98 138.431325 
L 262.2825 139.483309 
L 261.585 140.575085 
L 260.8875 141.703271 
L 260.19 142.868653 
L 259.4925 144.069869 
L 258.795 145.305513 
L 258.0975 146.574142 
L 257.4 147.874271 
L 256.7025 149.204382 
L 256.005 150.562918 
L 255.3075 151.950395 
L 254.61 153.360985 
L 253.9125 154.795141 
L 253.215 156.249083 
L 252.5175 157.723214 
L 251.82 159.213709 
L 251.1225 160.718824 
L 250.425 162.238904 
L 249.7275 163.77217 
L 249.03 165.31683 
L 248.3325 166.871079 
L 247.635 168.433099 
L 246.9375 170.001064 
L 246.24 171.568934 
L 245.5425 173.139083 
L 244.845 174.707572 
L 244.1475 176.276773 
L 243.45 177.840646 
L 242.7525 179.399466 
L 242.055 180.949306 
L 241.3575 182.486251 
L 240.66 184.012712 
L 239.9625 185.524799 
L 239.265 187.020746 
L 238.5675 188.4967 
L 237.87 189.950936 
L 237.1725 191.383855 
L 236.475 192.793785 
L 235.7775 194.176971 
L 235.08 195.533902 
L 234.3825 196.86299 
L 233.685 198.162681 
L 232.9875 199.429353 
L 232.29 200.661525 
L 231.5925 201.861963 
L 230.895 203.027159 
L 230.1975 204.15365 
L 229.5 205.242219 
L 228.8025 206.28739 
L 228.105 207.292145 
L 227.4075 208.253207 
L 226.71 209.169454 
L 226.0125 210.041915 
L 225.315 210.867469 
L 224.6175 211.64515 
L 223.92 212.374049 
L 223.2225 213.053314 
L 222.525 213.68215 
L 221.8275 214.259822 
L 221.13 214.785656 
L 220.4325 215.256932 
L 219.735 215.675204 
L 219.0375 216.037878 
L 218.34 216.346635 
L 217.6425 216.601113 
L 216.945 216.801015 
L 216.2475 216.946107 
L 215.55 217.036219 
L 214.8525 217.071246 
L 214.155 217.051147 
L 213.4575 216.978049 
L 212.76 216.849934 
L 212.0625 216.666952 
L 211.365 216.43142 
L 210.6675 216.14151 
L 209.97 215.797562 
L 209.2725 215.399976 
L 208.575 214.949218 
L 207.8775 214.445816 
L 207.18 213.890357 
L 206.4825 213.283491 
L 205.785 212.625927 
L 205.0875 211.918434 
L 204.39 211.16184 
L 203.6925 210.357029 
L 202.995 209.504942 
L 202.2975 208.610781 
L 201.6 207.671386 
L 200.9025 206.687855 
L 200.205 205.661337 
L 199.5075 204.593033 
L 198.81 203.484192 
L 198.1125 202.338213 
L 197.415 201.154333 
L 196.7175 199.933936 
L 196.02 198.678449 
L 195.3225 197.38934 
L 194.625 196.068115 
L 193.9275 194.71632 
L 193.23 193.335535 
L 192.5325 191.927373 
L 191.835 190.493483 
L 191.1375 189.035539 
L 190.44 187.555247 
L 189.7425 186.054337 
L 189.045 184.534563 
L 188.3475 182.997704 
L 187.65 181.445555 
L 186.9525 179.879931 
L 186.255 178.302662 
L 185.5575 176.715593 
L 184.86 175.12058 
L 184.1625 173.519486 
L 183.465 171.914184 
L 182.7675 170.30655 
L 182.07 168.698464 
L 181.3725 167.091807 
L 180.675 165.488456 
L 179.9775 163.890286 
L 179.28 162.299166 
L 178.5825 160.716955 
L 177.885 159.145504 
L 177.1875 157.58665 
L 176.49 156.042215 
L 175.7925 154.514005 
L 175.095 153.003806 
L 174.3975 151.513385 
L 173.7 150.044483 
L 173.0025 148.598819 
L 172.305 147.178082 
L 171.6075 145.783933 
L 170.91 144.418002 
L 170.2125 143.081886 
L 169.515 141.777148 
L 168.8175 140.505312 
L 168.12 139.267866 
L 167.4225 138.064153 
L 166.725 136.897683 
L 166.0275 135.769821 
L 165.33 134.681885 
L 164.6325 133.635147 
L 163.935 132.63083 
L 163.2375 131.670109 
L 162.54 130.754108 
L 161.8425 129.881793 
L 161.145 129.056288 
L 160.4475 128.278558 
L 159.75 127.549512 
L 159.0525 126.870003 
L 158.355 126.240825 
L 157.6575 125.662713 
L 156.96 125.136344 
L 156.2625 124.662333 
L 155.565 124.241234 
L 154.8675 123.873539 
L 154.17 123.559679 
L 153.4725 123.30002 
L 152.775 123.094865 
L 152.0775 122.942352 
L 151.38 122.844762 
L 150.6825 122.800106 
L 149.985 122.810539 
L 149.2875 122.876049 
L 148.59 122.99656 
L 147.8925 123.17193 
L 147.195 123.401954 
L 146.4975 123.686365 
L 145.8 124.024828 
L 145.1025 124.416949 
L 144.405 124.862269 
L 143.7075 125.360267 
L 143.01 125.910361 
L 142.3125 126.511908 
L 141.615 127.164205 
L 140.9175 127.866489 
L 140.22 128.617939 
L 139.5225 129.415574 
L 138.825 130.260563 
L 138.1275 131.151919 
L 137.43 132.090703 
L 136.7325 133.073715 
L 136.035 134.099805 
L 135.3375 135.167773 
L 134.64 136.276371 
L 133.9425 137.426406 
L 133.245 138.614431 
L 132.5475 139.839056 
L 131.85 141.098849 
L 131.1525 142.392338 
L 130.455 143.71801 
L 129.7575 145.074316 
L 129.06 146.45967 
L 128.3625 147.872452 
L 127.665 149.31101 
L 126.9675 150.773663 
L 126.27 152.2587 
L 125.5725 153.764386 
L 124.875 155.28896 
L 124.1775 156.830639 
L 123.48 158.387622 
L 122.7825 159.958087 
L 122.085 161.540199 
L 121.3875 163.132109 
L 120.69 164.731954 
L 119.9925 166.337865 
L 119.295 167.947963 
L 118.5975 169.560367 
L 117.9 171.173192 
L 117.2025 172.784552 
L 116.505 174.392562 
L 115.8075 175.995344 
L 115.11 177.591022 
L 114.4125 179.177733 
L 113.715 180.753619 
L 113.0175 182.31684 
L 112.32 183.865567 
L 111.6225 185.397991 
L 110.925 186.912318 
L 110.2275 188.406779 
L 109.53 189.879627 
L 108.8325 191.329139 
L 108.135 192.753621 
L 107.4375 194.151408 
L 106.74 195.520865 
L 106.0425 196.860391 
L 105.345 198.168421 
L 104.6475 199.443424 
L 103.95 200.683911 
L 103.2525 201.888431 
L 102.555 203.055575 
L 101.8575 204.18398 
L 101.16 205.272326 
L 100.4625 206.31934 
L 99.765 207.323799 
L 99.0675 208.284528 
L 98.37 209.200403 
L 97.6725 210.070355 
L 96.975 210.893366 
L 96.2775 211.668473 
L 95.58 212.394772 
L 94.8825 213.073515 
L 94.185 213.701806 
L 93.4875 214.27891 
L 92.79 214.804153 
L 92.0925 215.276921 
L 91.395 215.69666 
L 90.6975 216.062881 
L 90 216.375155 
z
" style="fill:#e0ffff;"/>
   </g>
   <g id="line2d_15">
    <path clip-path="url(#p1249fc986c)" d="M 90 216.375155 
L 91.395 215.69666 
L 92.79 214.804153 
L 94.185 213.701806 
L 96.2775 211.668473 
L 98.37 209.200403 
L 100.4625 206.31934 
L 102.555 203.055575 
L 104.6475 199.443424 
L 107.4375 194.151408 
L 110.2275 188.406779 
L 114.4125 179.177733 
L 126.9675 150.773663 
L 130.455 143.71801 
L 133.245 138.614431 
L 135.3375 135.167773 
L 137.43 132.090703 
L 139.5225 129.415574 
L 141.615 127.164205 
L 143.01 125.910361 
L 144.405 124.862269 
L 145.8 124.024828 
L 147.195 123.401954 
L 148.59 122.99656 
L 149.985 122.810539 
L 151.38 122.844762 
L 152.775 123.094865 
L 154.17 123.559679 
L 155.565 124.241234 
L 156.96 125.136344 
L 158.355 126.240825 
L 159.75 127.549512 
L 161.8425 129.881793 
L 163.935 132.63083 
L 166.0275 135.769821 
L 168.12 139.267866 
L 170.91 144.418002 
L 173.7 150.044483 
L 177.1875 157.58665 
L 182.7675 170.30655 
L 189.045 184.534563 
L 192.5325 191.927373 
L 195.3225 197.38934 
L 198.1125 202.338213 
L 200.205 205.661337 
L 202.2975 208.610781 
L 204.39 211.16184 
L 206.4825 213.283491 
L 207.8775 214.445816 
L 209.2725 215.399976 
L 210.6675 216.14151 
L 212.0625 216.666952 
L 213.4575 216.978049 
L 214.8525 217.071246 
L 216.2475 216.946107 
L 217.6425 216.601113 
L 219.0375 216.037878 
L 220.4325 215.256932 
L 221.8275 214.259822 
L 223.2225 213.053314 
L 225.315 210.867469 
L 227.4075 208.253207 
L 229.5 205.242219 
L 231.5925 201.861963 
L 234.3825 196.86299 
L 237.1725 191.383855 
L 240.66 184.012712 
L 246.24 171.568934 
L 252.5175 157.723214 
L 256.005 150.562918 
L 258.795 145.305513 
L 261.585 140.575085 
L 263.6775 137.416155 
L 265.77 134.624194 
L 267.8625 132.236957 
L 269.955 130.285845 
L 271.35 129.226044 
L 272.745 128.362802 
L 274.14 127.702253 
L 275.535 127.247491 
L 276.93 127.002742 
L 278.325 126.962846 
L 279.72 127.130088 
L 281.115 127.499482 
L 282.51 128.069303 
L 283.905 128.834781 
L 285.3 129.79234 
L 287.3925 131.576685 
L 289.485 133.751561 
L 291.5775 136.291999 
L 293.67 139.169184 
L 296.46 143.473937 
L 299.25 148.234866 
L 302.7375 154.663188 
L 307.62 164.185833 
L 313.2 175.040149 
L 317.385 182.632532 
L 320.175 187.270999 
L 322.965 191.444654 
L 325.0575 194.215706 
L 327.15 196.634633 
L 329.2425 198.678106 
L 331.335 200.335132 
L 332.73 201.207006 
L 334.125 201.888454 
L 335.52 202.382593 
L 336.915 202.682911 
L 338.31 202.800618 
L 339.705 202.728859 
L 341.1 202.465865 
L 342.495 202.012865 
L 343.89 201.365667 
L 345.285 200.527301 
L 346.68 199.503787 
L 348.7725 197.633114 
L 350.865 195.372286 
L 352.9575 192.730364 
L 355.05 189.743523 
L 357.84 185.248757 
L 360.63 180.278637 
L 364.1175 173.572847 
L 369 163.587709 
L 377.37 146.365454 
L 380.8575 139.706781 
L 383.6475 134.810655 
L 385.74 131.463453 
L 387.8325 128.447034 
L 389.925 125.80782 
L 392.0175 123.563048 
L 394.11 121.73632 
L 395.505 120.750612 
L 396.9 119.967443 
L 398.295 119.394677 
L 399.69 119.039198 
L 401.085 118.887952 
L 402.48 118.947954 
L 403.875 119.223123 
L 405.27 119.716383 
L 406.665 120.421226 
L 408.06 121.332255 
L 409.455 122.45362 
L 410.85 123.786383 
L 412.9425 126.163539 
L 415.035 128.994428 
L 417.1275 132.242983 
L 419.22 135.875059 
L 422.01 141.251387 
L 424.8 147.154811 
L 428.2875 155.135653 
L 433.17 166.980996 
L 442.2375 189.193156 
L 445.725 197.146557 
L 448.515 203.034176 
L 451.305 208.368379 
L 453.3975 211.955261 
L 455.49 215.138014 
L 457.5825 217.878951 
L 459.675 220.136655 
L 461.07 221.351816 
L 462.465 222.332834 
L 463.86 223.098243 
L 465.255 223.633956 
L 466.65 223.933269 
L 468.045 224.009498 
L 469.44 223.841264 
L 470.835 223.439863 
L 472.23 222.800868 
L 473.625 221.925164 
L 475.02 220.808431 
L 476.415 219.460094 
L 478.5075 217.047607 
L 480.6 214.181662 
L 482.6925 210.902894 
L 484.785 207.24368 
L 487.575 201.881904 
L 490.365 196.067987 
L 493.8525 188.267425 
L 500.8275 171.925878 
L 505.71 160.666717 
L 509.1975 153.08754 
L 511.9875 147.463667 
L 514.7775 142.288677 
L 516.87 138.7764 
L 518.9625 135.612599 
L 521.055 132.820024 
L 523.1475 130.413313 
L 525.24 128.415679 
L 526.635 127.332959 
L 528.03 126.44724 
L 529.425 125.773174 
L 530.82 125.309712 
L 532.215 125.065326 
L 533.61 125.034845 
L 535.005 125.207894 
L 536.4 125.583664 
L 537.795 126.1583 
L 539.19 126.927014 
L 541.2825 128.426146 
L 543.375 130.292188 
L 545.4675 132.501317 
L 547.56 135.015592 
L 550.35 138.804175 
L 553.14 143.016389 
L 556.6275 148.735852 
L 562.2075 158.46479 
L 568.485 169.353537 
L 571.9725 174.892386 
L 574.7625 178.937558 
L 577.5525 182.549701 
L 579.645 184.971893 
L 581.7375 187.109718 
L 583.83 188.970131 
L 585.9225 190.565086 
L 588.015 191.827401 
L 590.1075 192.800516 
L 592.2 193.467922 
L 594.2925 193.816313 
L 596.385 193.875638 
L 598.4775 193.655776 
L 600.57 193.18213 
L 602.6625 192.472313 
L 605.4525 191.208413 
L 608.94 189.238173 
L 613.125 186.541018 
L 618.0075 183.100044 
L 624.285 178.596492 
L 628.47 175.916713 
L 631.9575 174.001351 
L 635.445 172.418093 
L 638.235 171.389659 
L 641.025 170.627807 
L 643.815 170.136258 
L 646.605 169.92 
L 646.605 169.92 
" style="fill:none;stroke:#008080;stroke-linecap:round;stroke-width:1.75;"/>
   </g>
   <g id="patch_3">
    <path d="M 90 270.72 
L 90 69.12 
" style="fill:none;stroke:#262626;stroke-linecap:square;stroke-linejoin:miter;stroke-width:1.25;"/>
   </g>
   <g id="patch_4">
    <path d="M 90 270.72 
L 648 270.72 
" style="fill:none;stroke:#262626;stroke-linecap:square;stroke-linejoin:miter;stroke-width:1.25;"/>
   </g>
  </g>
  <g id="axes_2">
   <g id="patch_5">
    <path d="M 90 512.64 
L 648 512.64 
L 648 311.04 
L 90 311.04 
z
" style="fill:#ffffff;"/>
   </g>
   <g id="matplotlib.axis_3">
    <g id="xtick_10">
     <g id="line2d_16">
      <g>
       <use style="fill:#262626;stroke:#262626;" x="191.454545" xlink:href="#mfa375f3a9f" y="512.64"/>
      </g>
     </g>
     <g id="text_15">
      <!-- 200 -->
      <g style="fill:#262626;" transform="translate(183.113139 532.797812)scale(0.1 -0.1)">
       <use xlink:href="#ArialMT-32"/>
       <use x="55.615234" xlink:href="#ArialMT-30"/>
       <use x="111.230469" xlink:href="#ArialMT-30"/>
      </g>
     </g>
    </g>
    <g id="xtick_11">
     <g id="line2d_17">
      <g>
       <use style="fill:#262626;stroke:#262626;" x="304.181818" xlink:href="#mfa375f3a9f" y="512.64"/>
      </g>
     </g>
     <g id="text_16">
      <!-- 400 -->
      <g style="fill:#262626;" transform="translate(295.840412 532.797812)scale(0.1 -0.1)">
       <use xlink:href="#ArialMT-34"/>
       <use x="55.615234" xlink:href="#ArialMT-30"/>
       <use x="111.230469" xlink:href="#ArialMT-30"/>
      </g>
     </g>
    </g>
    <g id="xtick_12">
     <g id="line2d_18">
      <g>
       <use style="fill:#262626;stroke:#262626;" x="416.909091" xlink:href="#mfa375f3a9f" y="512.64"/>
      </g>
     </g>
     <g id="text_17">
      <!-- 600 -->
      <g style="fill:#262626;" transform="translate(408.567685 532.797812)scale(0.1 -0.1)">
       <use xlink:href="#ArialMT-36"/>
       <use x="55.615234" xlink:href="#ArialMT-30"/>
       <use x="111.230469" xlink:href="#ArialMT-30"/>
      </g>
     </g>
    </g>
    <g id="xtick_13">
     <g id="line2d_19">
      <g>
       <use style="fill:#262626;stroke:#262626;" x="529.636364" xlink:href="#mfa375f3a9f" y="512.64"/>
      </g>
     </g>
     <g id="text_18">
      <!-- 800 -->
      <g style="fill:#262626;" transform="translate(521.294957 532.797812)scale(0.1 -0.1)">
       <use xlink:href="#ArialMT-38"/>
       <use x="55.615234" xlink:href="#ArialMT-30"/>
       <use x="111.230469" xlink:href="#ArialMT-30"/>
      </g>
     </g>
    </g>
    <g id="xtick_14">
     <g id="line2d_20">
      <g>
       <use style="fill:#262626;stroke:#262626;" x="642.363636" xlink:href="#mfa375f3a9f" y="512.64"/>
      </g>
     </g>
     <g id="text_19">
      <!-- 1000 -->
      <g style="fill:#262626;" transform="translate(631.241761 532.797812)scale(0.1 -0.1)">
       <use xlink:href="#ArialMT-31"/>
       <use x="55.615234" xlink:href="#ArialMT-30"/>
       <use x="111.230469" xlink:href="#ArialMT-30"/>
       <use x="166.845703" xlink:href="#ArialMT-30"/>
      </g>
     </g>
    </g>
   </g>
   <g id="matplotlib.axis_4">
    <g id="ytick_6">
     <g id="line2d_21">
      <g>
       <use style="fill:#262626;stroke:#262626;" x="90" xlink:href="#m4a779804d9" y="512.64"/>
      </g>
     </g>
     <g id="text_20">
      <!-- 0 -->
      <g style="fill:#262626;" transform="translate(71.439063 516.218906)scale(0.1 -0.1)">
       <use xlink:href="#ArialMT-30"/>
      </g>
     </g>
    </g>
    <g id="ytick_7">
     <g id="line2d_22">
      <g>
       <use style="fill:#262626;stroke:#262626;" x="90" xlink:href="#m4a779804d9" y="490.24"/>
      </g>
     </g>
     <g id="text_21">
      <!-- 2 -->
      <g style="fill:#262626;" transform="translate(71.439063 493.818906)scale(0.1 -0.1)">
       <use xlink:href="#ArialMT-32"/>
      </g>
     </g>
    </g>
    <g id="ytick_8">
     <g id="line2d_23">
      <g>
       <use style="fill:#262626;stroke:#262626;" x="90" xlink:href="#m4a779804d9" y="467.84"/>
      </g>
     </g>
     <g id="text_22">
      <!-- 4 -->
      <g style="fill:#262626;" transform="translate(71.439063 471.418906)scale(0.1 -0.1)">
       <use xlink:href="#ArialMT-34"/>
      </g>
     </g>
    </g>
    <g id="ytick_9">
     <g id="line2d_24">
      <g>
       <use style="fill:#262626;stroke:#262626;" x="90" xlink:href="#m4a779804d9" y="445.44"/>
      </g>
     </g>
     <g id="text_23">
      <!-- 6 -->
      <g style="fill:#262626;" transform="translate(71.439063 449.018906)scale(0.1 -0.1)">
       <use xlink:href="#ArialMT-36"/>
      </g>
     </g>
    </g>
    <g id="ytick_10">
     <g id="line2d_25">
      <g>
       <use style="fill:#262626;stroke:#262626;" x="90" xlink:href="#m4a779804d9" y="423.04"/>
      </g>
     </g>
     <g id="text_24">
      <!-- 8 -->
      <g style="fill:#262626;" transform="translate(71.439063 426.618906)scale(0.1 -0.1)">
       <use xlink:href="#ArialMT-38"/>
      </g>
     </g>
    </g>
    <g id="ytick_11">
     <g id="line2d_26">
      <g>
       <use style="fill:#262626;stroke:#262626;" x="90" xlink:href="#m4a779804d9" y="400.64"/>
      </g>
     </g>
     <g id="text_25">
      <!-- 10 -->
      <g style="fill:#262626;" transform="translate(65.878125 404.218906)scale(0.1 -0.1)">
       <use xlink:href="#ArialMT-31"/>
       <use x="55.615234" xlink:href="#ArialMT-30"/>
      </g>
     </g>
    </g>
    <g id="ytick_12">
     <g id="line2d_27">
      <g>
       <use style="fill:#262626;stroke:#262626;" x="90" xlink:href="#m4a779804d9" y="378.24"/>
      </g>
     </g>
     <g id="text_26">
      <!-- 12 -->
      <g style="fill:#262626;" transform="translate(65.878125 381.818906)scale(0.1 -0.1)">
       <use xlink:href="#ArialMT-31"/>
       <use x="55.615234" xlink:href="#ArialMT-32"/>
      </g>
     </g>
    </g>
    <g id="ytick_13">
     <g id="line2d_28">
      <g>
       <use style="fill:#262626;stroke:#262626;" x="90" xlink:href="#m4a779804d9" y="355.84"/>
      </g>
     </g>
     <g id="text_27">
      <!-- 14 -->
      <g style="fill:#262626;" transform="translate(65.878125 359.418906)scale(0.1 -0.1)">
       <use xlink:href="#ArialMT-31"/>
       <use x="55.615234" xlink:href="#ArialMT-34"/>
      </g>
     </g>
    </g>
    <g id="ytick_14">
     <g id="line2d_29">
      <g>
       <use style="fill:#262626;stroke:#262626;" x="90" xlink:href="#m4a779804d9" y="333.44"/>
      </g>
     </g>
     <g id="text_28">
      <!-- 16 -->
      <g style="fill:#262626;" transform="translate(65.878125 337.018906)scale(0.1 -0.1)">
       <use xlink:href="#ArialMT-31"/>
       <use x="55.615234" xlink:href="#ArialMT-36"/>
      </g>
     </g>
    </g>
    <g id="ytick_15">
     <g id="line2d_30">
      <g>
       <use style="fill:#262626;stroke:#262626;" x="90" xlink:href="#m4a779804d9" y="311.04"/>
      </g>
     </g>
     <g id="text_29">
      <!-- 18 -->
      <g style="fill:#262626;" transform="translate(65.878125 314.618906)scale(0.1 -0.1)">
       <use xlink:href="#ArialMT-31"/>
       <use x="55.615234" xlink:href="#ArialMT-38"/>
      </g>
     </g>
    </g>
   </g>
   <g id="line2d_31">
    <path clip-path="url(#p7533e453c2)" d="M 90 477.654723 
L 95.636364 452.736402 
L 101.272727 431.923589 
L 106.909091 427.92302 
L 112.545455 440.45326 
L 118.181818 444.705349 
L 123.818182 448.961059 
L 129.454545 457.370701 
L 135.090909 456.375715 
L 140.727273 434.868159 
L 146.363636 408.816951 
L 152 389.988216 
L 157.636364 371.492183 
L 163.272727 352.310178 
L 168.909091 342.280664 
L 174.545455 348.647566 
L 180.181818 355.802406 
L 185.818182 363.350788 
L 191.454545 378.270766 
L 197.090909 391.147889 
L 202.727273 394.129256 
L 208.363636 396.550705 
L 214 393.395457 
" style="fill:none;stroke:#b22222;stroke-linecap:round;stroke-width:1.75;"/>
   </g>
   <g id="line2d_32">
    <path clip-path="url(#p7533e453c2)" d="M 152 512.64 
L 152 311.04 
" style="fill:none;stroke:#4c72b0;stroke-linecap:round;stroke-width:1.75;"/>
   </g>
   <g id="patch_6">
    <path d="M 90 512.64 
L 90 311.04 
" style="fill:none;stroke:#262626;stroke-linecap:square;stroke-linejoin:miter;stroke-width:1.25;"/>
   </g>
   <g id="patch_7">
    <path d="M 90 512.64 
L 648 512.64 
" style="fill:none;stroke:#262626;stroke-linecap:square;stroke-linejoin:miter;stroke-width:1.25;"/>
   </g>
   <g id="text_30">
    <!-- f = 240 Hz -->
    <defs>
     <path d="M 8.6875 0 
L 8.6875 45.015625 
L 0.921875 45.015625 
L 0.921875 51.859375 
L 8.6875 51.859375 
L 8.6875 57.375 
Q 8.6875 62.59375 9.625 65.140625 
Q 10.890625 68.5625 14.078125 70.671875 
Q 17.28125 72.796875 23.046875 72.796875 
Q 26.765625 72.796875 31.25 71.921875 
L 29.9375 64.265625 
Q 27.203125 64.75 24.75 64.75 
Q 20.75 64.75 19.09375 63.03125 
Q 17.4375 61.328125 17.4375 56.640625 
L 17.4375 51.859375 
L 27.546875 51.859375 
L 27.546875 45.015625 
L 17.4375 45.015625 
L 17.4375 0 
z
" id="ArialMT-66"/>
     <path id="ArialMT-20"/>
     <path d="M 52.828125 42.09375 
L 5.5625 42.09375 
L 5.5625 50.296875 
L 52.828125 50.296875 
z
M 52.828125 20.359375 
L 5.5625 20.359375 
L 5.5625 28.5625 
L 52.828125 28.5625 
z
" id="ArialMT-3d"/>
     <path d="M 8.015625 0 
L 8.015625 71.578125 
L 17.484375 71.578125 
L 17.484375 42.1875 
L 54.6875 42.1875 
L 54.6875 71.578125 
L 64.15625 71.578125 
L 64.15625 0 
L 54.6875 0 
L 54.6875 33.734375 
L 17.484375 33.734375 
L 17.484375 0 
z
" id="ArialMT-48"/>
     <path d="M 1.953125 0 
L 1.953125 7.125 
L 34.96875 45.015625 
Q 29.34375 44.734375 25.046875 44.734375 
L 3.90625 44.734375 
L 3.90625 51.859375 
L 46.296875 51.859375 
L 46.296875 46.046875 
L 18.21875 13.140625 
L 12.796875 7.125 
Q 18.703125 7.5625 23.875 7.5625 
L 47.859375 7.5625 
L 47.859375 0 
z
" id="ArialMT-7a"/>
    </defs>
    <g style="fill:#262626;" transform="translate(529.636364 403.742188)scale(0.12 -0.12)">
     <use xlink:href="#ArialMT-66"/>
     <use x="27.783203" xlink:href="#ArialMT-20"/>
     <use x="55.566406" xlink:href="#ArialMT-3d"/>
     <use x="113.964844" xlink:href="#ArialMT-20"/>
     <use x="141.748047" xlink:href="#ArialMT-32"/>
     <use x="197.363281" xlink:href="#ArialMT-34"/>
     <use x="252.978516" xlink:href="#ArialMT-30"/>
     <use x="308.59375" xlink:href="#ArialMT-20"/>
     <use x="336.376953" xlink:href="#ArialMT-48"/>
     <use x="408.59375" xlink:href="#ArialMT-7a"/>
    </g>
   </g>
   <g id="PathCollection_1">
    <defs>
     <path d="M 0 3.5 
C 0.928211 3.5 1.81853 3.131218 2.474874 2.474874 
C 3.131218 1.81853 3.5 0.928211 3.5 0 
C 3.5 -0.928211 3.131218 -1.81853 2.474874 -2.474874 
C 1.81853 -3.131218 0.928211 -3.5 0 -3.5 
C -0.928211 -3.5 -1.81853 -3.131218 -2.474874 -2.474874 
C -3.131218 -1.81853 -3.5 -0.928211 -3.5 0 
C -3.5 0.928211 -3.131218 1.81853 -2.474874 2.474874 
C -1.81853 3.131218 -0.928211 3.5 0 3.5 
z
" id="m29eb5423f8" style="stroke:#800000;stroke-width:0.3;"/>
    </defs>
    <g clip-path="url(#p7533e453c2)">
     <use style="fill:#800000;stroke:#800000;stroke-width:0.3;" x="214" xlink:href="#m29eb5423f8" y="393.395457"/>
    </g>
   </g>
  </g>
 </g>
 <defs>
  <clipPath id="p1249fc986c">
   <rect height="201.6" width="558" x="90" y="69.12"/>
  </clipPath>
  <clipPath id="p7533e453c2">
   <rect height="201.6" width="558" x="90" y="311.04"/>
  </clipPath>
 </defs>
</svg>
