<?xml version="1.0" encoding="utf-8" standalone="no"?>
<!DOCTYPE svg PUBLIC "-//W3C//DTD SVG 1.1//EN"
  "http://www.w3.org/Graphics/SVG/1.1/DTD/svg11.dtd">
<!-- Created with matplotlib (http://matplotlib.org/) -->
<svg height="576pt" version="1.1" viewBox="0 0 720 576" width="720pt" xmlns="http://www.w3.org/2000/svg" xmlns:xlink="http://www.w3.org/1999/xlink">
 <defs>
  <style type="text/css">
*{stroke-linecap:butt;stroke-linejoin:round;}
  </style>
 </defs>
 <g id="figure_1">
  <g id="patch_1">
   <path d="M 0 576 
L 720 576 
L 720 0 
L 0 0 
z
" style="fill:#ffffff;"/>
  </g>
  <g id="axes_1">
   <g id="patch_2">
    <path d="M 90 270.72 
L 648 270.72 
L 648 69.12 
L 90 69.12 
z
" style="fill:#ffffff;"/>
   </g>
   <g id="matplotlib.axis_1">
    <g id="xtick_1">
     <g id="line2d_1">
      <defs>
       <path d="M 0 0 
L 0 6 
" id="m7ebac7b3f1" style="stroke:#262626;"/>
      </defs>
      <g>
       <use style="fill:#262626;stroke:#262626;" x="90" xlink:href="#m7ebac7b3f1" y="270.72"/>
      </g>
     </g>
     <g id="text_1">
      <!-- 0 -->
      <defs>
       <path d="M 4.15625 35.296875 
Q 4.15625 48 6.765625 55.734375 
Q 9.375 63.484375 14.515625 67.671875 
Q 19.671875 71.875 27.484375 71.875 
Q 33.25 71.875 37.59375 69.546875 
Q 41.9375 67.234375 44.765625 62.859375 
Q 47.609375 58.5 49.21875 52.21875 
Q 50.828125 45.953125 50.828125 35.296875 
Q 50.828125 22.703125 48.234375 14.96875 
Q 45.65625 7.234375 40.5 3 
Q 35.359375 -1.21875 27.484375 -1.21875 
Q 17.140625 -1.21875 11.234375 6.203125 
Q 4.15625 15.140625 4.15625 35.296875 
z
M 13.1875 35.296875 
Q 13.1875 17.671875 17.3125 11.828125 
Q 21.4375 6 27.484375 6 
Q 33.546875 6 37.671875 11.859375 
Q 41.796875 17.71875 41.796875 35.296875 
Q 41.796875 52.984375 37.671875 58.78125 
Q 33.546875 64.59375 27.390625 64.59375 
Q 21.34375 64.59375 17.71875 59.46875 
Q 13.1875 52.9375 13.1875 35.296875 
z
" id="ArialMT-30"/>
      </defs>
      <g style="fill:#262626;" transform="translate(87.219531 290.877812)scale(0.1 -0.1)">
       <use xlink:href="#ArialMT-30"/>
      </g>
     </g>
    </g>
    <g id="xtick_2">
     <g id="line2d_2">
      <g>
       <use style="fill:#262626;stroke:#262626;" x="159.75" xlink:href="#m7ebac7b3f1" y="270.72"/>
      </g>
     </g>
     <g id="text_2">
      <!-- 100 -->
      <defs>
       <path d="M 37.25 0 
L 28.46875 0 
L 28.46875 56 
Q 25.296875 52.984375 20.140625 49.953125 
Q 14.984375 46.921875 10.890625 45.40625 
L 10.890625 53.90625 
Q 18.265625 57.375 23.78125 62.296875 
Q 29.296875 67.234375 31.59375 71.875 
L 37.25 71.875 
z
" id="ArialMT-31"/>
      </defs>
      <g style="fill:#262626;" transform="translate(151.408594 290.877812)scale(0.1 -0.1)">
       <use xlink:href="#ArialMT-31"/>
       <use x="55.615234" xlink:href="#ArialMT-30"/>
       <use x="111.230469" xlink:href="#ArialMT-30"/>
      </g>
     </g>
    </g>
    <g id="xtick_3">
     <g id="line2d_3">
      <g>
       <use style="fill:#262626;stroke:#262626;" x="229.5" xlink:href="#m7ebac7b3f1" y="270.72"/>
      </g>
     </g>
     <g id="text_3">
      <!-- 200 -->
      <defs>
       <path d="M 50.34375 8.453125 
L 50.34375 0 
L 3.03125 0 
Q 2.9375 3.171875 4.046875 6.109375 
Q 5.859375 10.9375 9.828125 15.625 
Q 13.8125 20.3125 21.34375 26.46875 
Q 33.015625 36.03125 37.109375 41.625 
Q 41.21875 47.21875 41.21875 52.203125 
Q 41.21875 57.421875 37.46875 61 
Q 33.734375 64.59375 27.734375 64.59375 
Q 21.390625 64.59375 17.578125 60.78125 
Q 13.765625 56.984375 13.71875 50.25 
L 4.6875 51.171875 
Q 5.609375 61.28125 11.65625 66.578125 
Q 17.71875 71.875 27.9375 71.875 
Q 38.234375 71.875 44.234375 66.15625 
Q 50.25 60.453125 50.25 52 
Q 50.25 47.703125 48.484375 43.546875 
Q 46.734375 39.40625 42.65625 34.8125 
Q 38.578125 30.21875 29.109375 22.21875 
Q 21.1875 15.578125 18.9375 13.203125 
Q 16.703125 10.84375 15.234375 8.453125 
z
" id="ArialMT-32"/>
      </defs>
      <g style="fill:#262626;" transform="translate(221.158594 290.877812)scale(0.1 -0.1)">
       <use xlink:href="#ArialMT-32"/>
       <use x="55.615234" xlink:href="#ArialMT-30"/>
       <use x="111.230469" xlink:href="#ArialMT-30"/>
      </g>
     </g>
    </g>
    <g id="xtick_4">
     <g id="line2d_4">
      <g>
       <use style="fill:#262626;stroke:#262626;" x="299.25" xlink:href="#m7ebac7b3f1" y="270.72"/>
      </g>
     </g>
     <g id="text_4">
      <!-- 300 -->
      <defs>
       <path d="M 4.203125 18.890625 
L 12.984375 20.0625 
Q 14.5 12.59375 18.140625 9.296875 
Q 21.78125 6 27 6 
Q 33.203125 6 37.46875 10.296875 
Q 41.75 14.59375 41.75 20.953125 
Q 41.75 27 37.796875 30.921875 
Q 33.84375 34.859375 27.734375 34.859375 
Q 25.25 34.859375 21.53125 33.890625 
L 22.515625 41.609375 
Q 23.390625 41.5 23.921875 41.5 
Q 29.546875 41.5 34.03125 44.421875 
Q 38.53125 47.359375 38.53125 53.46875 
Q 38.53125 58.296875 35.25 61.46875 
Q 31.984375 64.65625 26.8125 64.65625 
Q 21.6875 64.65625 18.265625 61.421875 
Q 14.84375 58.203125 13.875 51.765625 
L 5.078125 53.328125 
Q 6.6875 62.15625 12.390625 67.015625 
Q 18.109375 71.875 26.609375 71.875 
Q 32.46875 71.875 37.390625 69.359375 
Q 42.328125 66.84375 44.9375 62.5 
Q 47.5625 58.15625 47.5625 53.265625 
Q 47.5625 48.640625 45.0625 44.828125 
Q 42.578125 41.015625 37.703125 38.765625 
Q 44.046875 37.3125 47.5625 32.6875 
Q 51.078125 28.078125 51.078125 21.140625 
Q 51.078125 11.765625 44.234375 5.25 
Q 37.40625 -1.265625 26.953125 -1.265625 
Q 17.53125 -1.265625 11.296875 4.34375 
Q 5.078125 9.96875 4.203125 18.890625 
z
" id="ArialMT-33"/>
      </defs>
      <g style="fill:#262626;" transform="translate(290.908594 290.877812)scale(0.1 -0.1)">
       <use xlink:href="#ArialMT-33"/>
       <use x="55.615234" xlink:href="#ArialMT-30"/>
       <use x="111.230469" xlink:href="#ArialMT-30"/>
      </g>
     </g>
    </g>
    <g id="xtick_5">
     <g id="line2d_5">
      <g>
       <use style="fill:#262626;stroke:#262626;" x="369" xlink:href="#m7ebac7b3f1" y="270.72"/>
      </g>
     </g>
     <g id="text_5">
      <!-- 400 -->
      <defs>
       <path d="M 32.328125 0 
L 32.328125 17.140625 
L 1.265625 17.140625 
L 1.265625 25.203125 
L 33.9375 71.578125 
L 41.109375 71.578125 
L 41.109375 25.203125 
L 50.78125 25.203125 
L 50.78125 17.140625 
L 41.109375 17.140625 
L 41.109375 0 
z
M 32.328125 25.203125 
L 32.328125 57.46875 
L 9.90625 25.203125 
z
" id="ArialMT-34"/>
      </defs>
      <g style="fill:#262626;" transform="translate(360.658594 290.877812)scale(0.1 -0.1)">
       <use xlink:href="#ArialMT-34"/>
       <use x="55.615234" xlink:href="#ArialMT-30"/>
       <use x="111.230469" xlink:href="#ArialMT-30"/>
      </g>
     </g>
    </g>
    <g id="xtick_6">
     <g id="line2d_6">
      <g>
       <use style="fill:#262626;stroke:#262626;" x="438.75" xlink:href="#m7ebac7b3f1" y="270.72"/>
      </g>
     </g>
     <g id="text_6">
      <!-- 500 -->
      <defs>
       <path d="M 4.15625 18.75 
L 13.375 19.53125 
Q 14.40625 12.796875 18.140625 9.390625 
Q 21.875 6 27.15625 6 
Q 33.5 6 37.890625 10.78125 
Q 42.28125 15.578125 42.28125 23.484375 
Q 42.28125 31 38.0625 35.34375 
Q 33.84375 39.703125 27 39.703125 
Q 22.75 39.703125 19.328125 37.765625 
Q 15.921875 35.84375 13.96875 32.765625 
L 5.71875 33.84375 
L 12.640625 70.609375 
L 48.25 70.609375 
L 48.25 62.203125 
L 19.671875 62.203125 
L 15.828125 42.96875 
Q 22.265625 47.46875 29.34375 47.46875 
Q 38.71875 47.46875 45.15625 40.96875 
Q 51.609375 34.46875 51.609375 24.265625 
Q 51.609375 14.546875 45.953125 7.46875 
Q 39.0625 -1.21875 27.15625 -1.21875 
Q 17.390625 -1.21875 11.203125 4.25 
Q 5.03125 9.71875 4.15625 18.75 
z
" id="ArialMT-35"/>
      </defs>
      <g style="fill:#262626;" transform="translate(430.408594 290.877812)scale(0.1 -0.1)">
       <use xlink:href="#ArialMT-35"/>
       <use x="55.615234" xlink:href="#ArialMT-30"/>
       <use x="111.230469" xlink:href="#ArialMT-30"/>
      </g>
     </g>
    </g>
    <g id="xtick_7">
     <g id="line2d_7">
      <g>
       <use style="fill:#262626;stroke:#262626;" x="508.5" xlink:href="#m7ebac7b3f1" y="270.72"/>
      </g>
     </g>
     <g id="text_7">
      <!-- 600 -->
      <defs>
       <path d="M 49.75 54.046875 
L 41.015625 53.375 
Q 39.84375 58.546875 37.703125 60.890625 
Q 34.125 64.65625 28.90625 64.65625 
Q 24.703125 64.65625 21.53125 62.3125 
Q 17.390625 59.28125 14.984375 53.46875 
Q 12.59375 47.65625 12.5 36.921875 
Q 15.671875 41.75 20.265625 44.09375 
Q 24.859375 46.4375 29.890625 46.4375 
Q 38.671875 46.4375 44.84375 39.96875 
Q 51.03125 33.5 51.03125 23.25 
Q 51.03125 16.5 48.125 10.71875 
Q 45.21875 4.9375 40.140625 1.859375 
Q 35.0625 -1.21875 28.609375 -1.21875 
Q 17.625 -1.21875 10.6875 6.859375 
Q 3.765625 14.9375 3.765625 33.5 
Q 3.765625 54.25 11.421875 63.671875 
Q 18.109375 71.875 29.4375 71.875 
Q 37.890625 71.875 43.28125 67.140625 
Q 48.6875 62.40625 49.75 54.046875 
z
M 13.875 23.1875 
Q 13.875 18.65625 15.796875 14.5 
Q 17.71875 10.359375 21.1875 8.171875 
Q 24.65625 6 28.46875 6 
Q 34.03125 6 38.03125 10.484375 
Q 42.046875 14.984375 42.046875 22.703125 
Q 42.046875 30.125 38.078125 34.390625 
Q 34.125 38.671875 28.125 38.671875 
Q 22.171875 38.671875 18.015625 34.390625 
Q 13.875 30.125 13.875 23.1875 
z
" id="ArialMT-36"/>
      </defs>
      <g style="fill:#262626;" transform="translate(500.158594 290.877812)scale(0.1 -0.1)">
       <use xlink:href="#ArialMT-36"/>
       <use x="55.615234" xlink:href="#ArialMT-30"/>
       <use x="111.230469" xlink:href="#ArialMT-30"/>
      </g>
     </g>
    </g>
    <g id="xtick_8">
     <g id="line2d_8">
      <g>
       <use style="fill:#262626;stroke:#262626;" x="578.25" xlink:href="#m7ebac7b3f1" y="270.72"/>
      </g>
     </g>
     <g id="text_8">
      <!-- 700 -->
      <defs>
       <path d="M 4.734375 62.203125 
L 4.734375 70.65625 
L 51.078125 70.65625 
L 51.078125 63.8125 
Q 44.234375 56.546875 37.515625 44.484375 
Q 30.8125 32.421875 27.15625 19.671875 
Q 24.515625 10.6875 23.78125 0 
L 14.75 0 
Q 14.890625 8.453125 18.0625 20.40625 
Q 21.234375 32.375 27.171875 43.484375 
Q 33.109375 54.59375 39.796875 62.203125 
z
" id="ArialMT-37"/>
      </defs>
      <g style="fill:#262626;" transform="translate(569.908594 290.877812)scale(0.1 -0.1)">
       <use xlink:href="#ArialMT-37"/>
       <use x="55.615234" xlink:href="#ArialMT-30"/>
       <use x="111.230469" xlink:href="#ArialMT-30"/>
      </g>
     </g>
    </g>
    <g id="xtick_9">
     <g id="line2d_9">
      <g>
       <use style="fill:#262626;stroke:#262626;" x="648" xlink:href="#m7ebac7b3f1" y="270.72"/>
      </g>
     </g>
     <g id="text_9">
      <!-- 800 -->
      <defs>
       <path d="M 17.671875 38.8125 
Q 12.203125 40.828125 9.5625 44.53125 
Q 6.9375 48.25 6.9375 53.421875 
Q 6.9375 61.234375 12.546875 66.546875 
Q 18.171875 71.875 27.484375 71.875 
Q 36.859375 71.875 42.578125 66.421875 
Q 48.296875 60.984375 48.296875 53.171875 
Q 48.296875 48.1875 45.671875 44.5 
Q 43.0625 40.828125 37.75 38.8125 
Q 44.34375 36.671875 47.78125 31.875 
Q 51.21875 27.09375 51.21875 20.453125 
Q 51.21875 11.28125 44.71875 5.03125 
Q 38.234375 -1.21875 27.640625 -1.21875 
Q 17.046875 -1.21875 10.546875 5.046875 
Q 4.046875 11.328125 4.046875 20.703125 
Q 4.046875 27.6875 7.59375 32.390625 
Q 11.140625 37.109375 17.671875 38.8125 
z
M 15.921875 53.71875 
Q 15.921875 48.640625 19.1875 45.40625 
Q 22.46875 42.1875 27.6875 42.1875 
Q 32.765625 42.1875 36.015625 45.375 
Q 39.265625 48.578125 39.265625 53.21875 
Q 39.265625 58.0625 35.90625 61.359375 
Q 32.5625 64.65625 27.59375 64.65625 
Q 22.5625 64.65625 19.234375 61.421875 
Q 15.921875 58.203125 15.921875 53.71875 
z
M 13.09375 20.65625 
Q 13.09375 16.890625 14.875 13.375 
Q 16.65625 9.859375 20.171875 7.921875 
Q 23.6875 6 27.734375 6 
Q 34.03125 6 38.125 10.046875 
Q 42.234375 14.109375 42.234375 20.359375 
Q 42.234375 26.703125 38.015625 30.859375 
Q 33.796875 35.015625 27.4375 35.015625 
Q 21.234375 35.015625 17.15625 30.90625 
Q 13.09375 26.8125 13.09375 20.65625 
z
" id="ArialMT-38"/>
      </defs>
      <g style="fill:#262626;" transform="translate(639.658594 290.877812)scale(0.1 -0.1)">
       <use xlink:href="#ArialMT-38"/>
       <use x="55.615234" xlink:href="#ArialMT-30"/>
       <use x="111.230469" xlink:href="#ArialMT-30"/>
      </g>
     </g>
    </g>
   </g>
   <g id="matplotlib.axis_2">
    <g id="ytick_1">
     <g id="line2d_10">
      <defs>
       <path d="M 0 0 
L -6 0 
" id="m505fc0eca2" style="stroke:#262626;"/>
      </defs>
      <g>
       <use style="fill:#262626;stroke:#262626;" x="90" xlink:href="#m505fc0eca2" y="250.56"/>
      </g>
     </g>
     <g id="text_10">
      <!-- −0.04 -->
      <defs>
       <path d="M 52.828125 31.203125 
L 5.5625 31.203125 
L 5.5625 39.40625 
L 52.828125 39.40625 
z
" id="ArialMT-2212"/>
       <path d="M 9.078125 0 
L 9.078125 10.015625 
L 19.09375 10.015625 
L 19.09375 0 
z
" id="ArialMT-2e"/>
      </defs>
      <g style="fill:#262626;" transform="translate(51.698437 254.138906)scale(0.1 -0.1)">
       <use xlink:href="#ArialMT-2212"/>
       <use x="58.398438" xlink:href="#ArialMT-30"/>
       <use x="114.013672" xlink:href="#ArialMT-2e"/>
       <use x="141.796875" xlink:href="#ArialMT-30"/>
       <use x="197.412109" xlink:href="#ArialMT-34"/>
      </g>
     </g>
    </g>
    <g id="ytick_2">
     <g id="line2d_11">
      <g>
       <use style="fill:#262626;stroke:#262626;" x="90" xlink:href="#m505fc0eca2" y="210.24"/>
      </g>
     </g>
     <g id="text_11">
      <!-- −0.02 -->
      <g style="fill:#262626;" transform="translate(51.698437 213.818906)scale(0.1 -0.1)">
       <use xlink:href="#ArialMT-2212"/>
       <use x="58.398438" xlink:href="#ArialMT-30"/>
       <use x="114.013672" xlink:href="#ArialMT-2e"/>
       <use x="141.796875" xlink:href="#ArialMT-30"/>
       <use x="197.412109" xlink:href="#ArialMT-32"/>
      </g>
     </g>
    </g>
    <g id="ytick_3">
     <g id="line2d_12">
      <g>
       <use style="fill:#262626;stroke:#262626;" x="90" xlink:href="#m505fc0eca2" y="169.92"/>
      </g>
     </g>
     <g id="text_12">
      <!-- 0.00 -->
      <g style="fill:#262626;" transform="translate(57.539062 173.498906)scale(0.1 -0.1)">
       <use xlink:href="#ArialMT-30"/>
       <use x="55.615234" xlink:href="#ArialMT-2e"/>
       <use x="83.398438" xlink:href="#ArialMT-30"/>
       <use x="139.013672" xlink:href="#ArialMT-30"/>
      </g>
     </g>
    </g>
    <g id="ytick_4">
     <g id="line2d_13">
      <g>
       <use style="fill:#262626;stroke:#262626;" x="90" xlink:href="#m505fc0eca2" y="129.6"/>
      </g>
     </g>
     <g id="text_13">
      <!-- 0.02 -->
      <g style="fill:#262626;" transform="translate(57.539062 133.178906)scale(0.1 -0.1)">
       <use xlink:href="#ArialMT-30"/>
       <use x="55.615234" xlink:href="#ArialMT-2e"/>
       <use x="83.398438" xlink:href="#ArialMT-30"/>
       <use x="139.013672" xlink:href="#ArialMT-32"/>
      </g>
     </g>
    </g>
    <g id="ytick_5">
     <g id="line2d_14">
      <g>
       <use style="fill:#262626;stroke:#262626;" x="90" xlink:href="#m505fc0eca2" y="89.28"/>
      </g>
     </g>
     <g id="text_14">
      <!-- 0.04 -->
      <g style="fill:#262626;" transform="translate(57.539062 92.858906)scale(0.1 -0.1)">
       <use xlink:href="#ArialMT-30"/>
       <use x="55.615234" xlink:href="#ArialMT-2e"/>
       <use x="83.398438" xlink:href="#ArialMT-30"/>
       <use x="139.013672" xlink:href="#ArialMT-34"/>
      </g>
     </g>
    </g>
   </g>
   <g id="PolyCollection_1">
    <path clip-path="url(#p3616670ba7)" d="M 90 133.708076 
L 90 169.92 
L 90.6975 169.92 
L 91.395 169.92 
L 92.0925 169.92 
L 92.79 169.92 
L 93.4875 169.92 
L 94.185 169.92 
L 94.8825 169.92 
L 95.58 169.92 
L 96.2775 169.92 
L 96.975 169.92 
L 97.6725 169.92 
L 98.37 169.92 
L 99.0675 169.92 
L 99.765 169.92 
L 100.4625 169.92 
L 101.16 169.92 
L 101.8575 169.92 
L 102.555 169.92 
L 103.2525 169.92 
L 103.95 169.92 
L 104.6475 169.92 
L 105.345 169.92 
L 106.0425 169.92 
L 106.74 169.92 
L 107.4375 169.92 
L 108.135 169.92 
L 108.8325 169.92 
L 109.53 169.92 
L 110.2275 169.92 
L 110.925 169.92 
L 111.6225 169.92 
L 112.32 169.92 
L 113.0175 169.92 
L 113.715 169.92 
L 114.4125 169.92 
L 115.11 169.92 
L 115.8075 169.92 
L 116.505 169.92 
L 117.2025 169.92 
L 117.9 169.92 
L 118.5975 169.92 
L 119.295 169.92 
L 119.9925 169.92 
L 120.69 169.92 
L 121.3875 169.92 
L 122.085 169.92 
L 122.7825 169.92 
L 123.48 169.92 
L 124.1775 169.92 
L 124.875 169.92 
L 125.5725 169.92 
L 126.27 169.92 
L 126.9675 169.92 
L 127.665 169.92 
L 128.3625 169.92 
L 129.06 169.92 
L 129.7575 169.92 
L 130.455 169.92 
L 131.1525 169.92 
L 131.85 169.92 
L 132.5475 169.92 
L 133.245 169.92 
L 133.9425 169.92 
L 134.64 169.92 
L 135.3375 169.92 
L 136.035 169.92 
L 136.7325 169.92 
L 137.43 169.92 
L 138.1275 169.92 
L 138.825 169.92 
L 139.5225 169.92 
L 140.22 169.92 
L 140.9175 169.92 
L 141.615 169.92 
L 142.3125 169.92 
L 143.01 169.92 
L 143.7075 169.92 
L 144.405 169.92 
L 145.1025 169.92 
L 145.8 169.92 
L 146.4975 169.92 
L 147.195 169.92 
L 147.8925 169.92 
L 148.59 169.92 
L 149.2875 169.92 
L 149.985 169.92 
L 150.6825 169.92 
L 151.38 169.92 
L 152.0775 169.92 
L 152.775 169.92 
L 153.4725 169.92 
L 154.17 169.92 
L 154.8675 169.92 
L 155.565 169.92 
L 156.2625 169.92 
L 156.96 169.92 
L 157.6575 169.92 
L 158.355 169.92 
L 159.0525 169.92 
L 159.75 169.92 
L 160.4475 169.92 
L 161.145 169.92 
L 161.8425 169.92 
L 162.54 169.92 
L 163.2375 169.92 
L 163.935 169.92 
L 164.6325 169.92 
L 165.33 169.92 
L 166.0275 169.92 
L 166.725 169.92 
L 167.4225 169.92 
L 168.12 169.92 
L 168.8175 169.92 
L 169.515 169.92 
L 170.2125 169.92 
L 170.91 169.92 
L 171.6075 169.92 
L 172.305 169.92 
L 173.0025 169.92 
L 173.7 169.92 
L 174.3975 169.92 
L 175.095 169.92 
L 175.7925 169.92 
L 176.49 169.92 
L 177.1875 169.92 
L 177.885 169.92 
L 178.5825 169.92 
L 179.28 169.92 
L 179.9775 169.92 
L 180.675 169.92 
L 181.3725 169.92 
L 182.07 169.92 
L 182.7675 169.92 
L 183.465 169.92 
L 184.1625 169.92 
L 184.86 169.92 
L 185.5575 169.92 
L 186.255 169.92 
L 186.9525 169.92 
L 187.65 169.92 
L 188.3475 169.92 
L 189.045 169.92 
L 189.7425 169.92 
L 190.44 169.92 
L 191.1375 169.92 
L 191.835 169.92 
L 192.5325 169.92 
L 193.23 169.92 
L 193.9275 169.92 
L 194.625 169.92 
L 195.3225 169.92 
L 196.02 169.92 
L 196.7175 169.92 
L 197.415 169.92 
L 198.1125 169.92 
L 198.81 169.92 
L 199.5075 169.92 
L 200.205 169.92 
L 200.9025 169.92 
L 201.6 169.92 
L 202.2975 169.92 
L 202.995 169.92 
L 203.6925 169.92 
L 204.39 169.92 
L 205.0875 169.92 
L 205.785 169.92 
L 206.4825 169.92 
L 207.18 169.92 
L 207.8775 169.92 
L 208.575 169.92 
L 209.2725 169.92 
L 209.97 169.92 
L 210.6675 169.92 
L 211.365 169.92 
L 212.0625 169.92 
L 212.76 169.92 
L 213.4575 169.92 
L 214.155 169.92 
L 214.8525 169.92 
L 215.55 169.92 
L 216.2475 169.92 
L 216.945 169.92 
L 217.6425 169.92 
L 218.34 169.92 
L 219.0375 169.92 
L 219.735 169.92 
L 220.4325 169.92 
L 221.13 169.92 
L 221.8275 169.92 
L 222.525 169.92 
L 223.2225 169.92 
L 223.92 169.92 
L 224.6175 169.92 
L 225.315 169.92 
L 226.0125 169.92 
L 226.71 169.92 
L 227.4075 169.92 
L 228.105 169.92 
L 228.8025 169.92 
L 229.5 169.92 
L 230.1975 169.92 
L 230.895 169.92 
L 231.5925 169.92 
L 232.29 169.92 
L 232.9875 169.92 
L 233.685 169.92 
L 234.3825 169.92 
L 235.08 169.92 
L 235.7775 169.92 
L 236.475 169.92 
L 237.1725 169.92 
L 237.87 169.92 
L 238.5675 169.92 
L 239.265 169.92 
L 239.9625 169.92 
L 240.66 169.92 
L 241.3575 169.92 
L 242.055 169.92 
L 242.7525 169.92 
L 243.45 169.92 
L 244.1475 169.92 
L 244.845 169.92 
L 245.5425 169.92 
L 246.24 169.92 
L 246.9375 169.92 
L 247.635 169.92 
L 248.3325 169.92 
L 249.03 169.92 
L 249.7275 169.92 
L 250.425 169.92 
L 251.1225 169.92 
L 251.82 169.92 
L 252.5175 169.92 
L 253.215 169.92 
L 253.9125 169.92 
L 254.61 169.92 
L 255.3075 169.92 
L 256.005 169.92 
L 256.7025 169.92 
L 257.4 169.92 
L 258.0975 169.92 
L 258.795 169.92 
L 259.4925 169.92 
L 260.19 169.92 
L 260.8875 169.92 
L 261.585 169.92 
L 262.2825 169.92 
L 262.98 169.92 
L 263.6775 169.92 
L 264.375 169.92 
L 265.0725 169.92 
L 265.77 169.92 
L 266.4675 169.92 
L 267.165 169.92 
L 267.8625 169.92 
L 268.56 169.92 
L 269.2575 169.92 
L 269.955 169.92 
L 270.6525 169.92 
L 271.35 169.92 
L 272.0475 169.92 
L 272.745 169.92 
L 273.4425 169.92 
L 274.14 169.92 
L 274.8375 169.92 
L 275.535 169.92 
L 276.2325 169.92 
L 276.93 169.92 
L 277.6275 169.92 
L 278.325 169.92 
L 279.0225 169.92 
L 279.72 169.92 
L 280.4175 169.92 
L 281.115 169.92 
L 281.8125 169.92 
L 282.51 169.92 
L 283.2075 169.92 
L 283.905 169.92 
L 284.6025 169.92 
L 285.3 169.92 
L 285.9975 169.92 
L 286.695 169.92 
L 287.3925 169.92 
L 288.09 169.92 
L 288.7875 169.92 
L 289.485 169.92 
L 290.1825 169.92 
L 290.88 169.92 
L 291.5775 169.92 
L 292.275 169.92 
L 292.9725 169.92 
L 293.67 169.92 
L 294.3675 169.92 
L 295.065 169.92 
L 295.7625 169.92 
L 296.46 169.92 
L 297.1575 169.92 
L 297.855 169.92 
L 298.5525 169.92 
L 299.25 169.92 
L 299.9475 169.92 
L 300.645 169.92 
L 301.3425 169.92 
L 302.04 169.92 
L 302.7375 169.92 
L 303.435 169.92 
L 304.1325 169.92 
L 304.83 169.92 
L 305.5275 169.92 
L 306.225 169.92 
L 306.9225 169.92 
L 307.62 169.92 
L 308.3175 169.92 
L 309.015 169.92 
L 309.7125 169.92 
L 310.41 169.92 
L 311.1075 169.92 
L 311.805 169.92 
L 312.5025 169.92 
L 313.2 169.92 
L 313.8975 169.92 
L 314.595 169.92 
L 315.2925 169.92 
L 315.99 169.92 
L 316.6875 169.92 
L 317.385 169.92 
L 318.0825 169.92 
L 318.78 169.92 
L 319.4775 169.92 
L 320.175 169.92 
L 320.8725 169.92 
L 321.57 169.92 
L 322.2675 169.92 
L 322.965 169.92 
L 323.6625 169.92 
L 324.36 169.92 
L 325.0575 169.92 
L 325.755 169.92 
L 326.4525 169.92 
L 327.15 169.92 
L 327.8475 169.92 
L 328.545 169.92 
L 329.2425 169.92 
L 329.94 169.92 
L 330.6375 169.92 
L 331.335 169.92 
L 332.0325 169.92 
L 332.73 169.92 
L 333.4275 169.92 
L 334.125 169.92 
L 334.8225 169.92 
L 335.52 169.92 
L 336.2175 169.92 
L 336.915 169.92 
L 337.6125 169.92 
L 338.31 169.92 
L 339.0075 169.92 
L 339.705 169.92 
L 340.4025 169.92 
L 341.1 169.92 
L 341.7975 169.92 
L 342.495 169.92 
L 343.1925 169.92 
L 343.89 169.92 
L 344.5875 169.92 
L 345.285 169.92 
L 345.9825 169.92 
L 346.68 169.92 
L 347.3775 169.92 
L 348.075 169.92 
L 348.7725 169.92 
L 349.47 169.92 
L 350.1675 169.92 
L 350.865 169.92 
L 351.5625 169.92 
L 352.26 169.92 
L 352.9575 169.92 
L 353.655 169.92 
L 354.3525 169.92 
L 355.05 169.92 
L 355.7475 169.92 
L 356.445 169.92 
L 357.1425 169.92 
L 357.84 169.92 
L 358.5375 169.92 
L 359.235 169.92 
L 359.9325 169.92 
L 360.63 169.92 
L 361.3275 169.92 
L 362.025 169.92 
L 362.7225 169.92 
L 363.42 169.92 
L 364.1175 169.92 
L 364.815 169.92 
L 365.5125 169.92 
L 366.21 169.92 
L 366.9075 169.92 
L 367.605 169.92 
L 368.3025 169.92 
L 369 169.92 
L 369.6975 169.92 
L 370.395 169.92 
L 371.0925 169.92 
L 371.79 169.92 
L 372.4875 169.92 
L 373.185 169.92 
L 373.8825 169.92 
L 374.58 169.92 
L 375.2775 169.92 
L 375.975 169.92 
L 376.6725 169.92 
L 377.37 169.92 
L 378.0675 169.92 
L 378.765 169.92 
L 379.4625 169.92 
L 380.16 169.92 
L 380.8575 169.92 
L 381.555 169.92 
L 382.2525 169.92 
L 382.95 169.92 
L 383.6475 169.92 
L 384.345 169.92 
L 385.0425 169.92 
L 385.74 169.92 
L 386.4375 169.92 
L 387.135 169.92 
L 387.8325 169.92 
L 388.53 169.92 
L 389.2275 169.92 
L 389.925 169.92 
L 390.6225 169.92 
L 391.32 169.92 
L 392.0175 169.92 
L 392.715 169.92 
L 393.4125 169.92 
L 394.11 169.92 
L 394.8075 169.92 
L 395.505 169.92 
L 396.2025 169.92 
L 396.9 169.92 
L 397.5975 169.92 
L 398.295 169.92 
L 398.9925 169.92 
L 399.69 169.92 
L 400.3875 169.92 
L 401.085 169.92 
L 401.7825 169.92 
L 402.48 169.92 
L 403.1775 169.92 
L 403.875 169.92 
L 404.5725 169.92 
L 405.27 169.92 
L 405.9675 169.92 
L 406.665 169.92 
L 407.3625 169.92 
L 408.06 169.92 
L 408.7575 169.92 
L 409.455 169.92 
L 410.1525 169.92 
L 410.85 169.92 
L 411.5475 169.92 
L 412.245 169.92 
L 412.9425 169.92 
L 413.64 169.92 
L 414.3375 169.92 
L 415.035 169.92 
L 415.7325 169.92 
L 416.43 169.92 
L 417.1275 169.92 
L 417.825 169.92 
L 418.5225 169.92 
L 419.22 169.92 
L 419.9175 169.92 
L 420.615 169.92 
L 421.3125 169.92 
L 422.01 169.92 
L 422.7075 169.92 
L 423.405 169.92 
L 424.1025 169.92 
L 424.8 169.92 
L 425.4975 169.92 
L 426.195 169.92 
L 426.8925 169.92 
L 427.59 169.92 
L 428.2875 169.92 
L 428.985 169.92 
L 429.6825 169.92 
L 430.38 169.92 
L 431.0775 169.92 
L 431.775 169.92 
L 432.4725 169.92 
L 433.17 169.92 
L 433.8675 169.92 
L 434.565 169.92 
L 435.2625 169.92 
L 435.96 169.92 
L 436.6575 169.92 
L 437.355 169.92 
L 438.0525 169.92 
L 438.75 169.92 
L 439.4475 169.92 
L 440.145 169.92 
L 440.8425 169.92 
L 441.54 169.92 
L 442.2375 169.92 
L 442.935 169.92 
L 443.6325 169.92 
L 444.33 169.92 
L 445.0275 169.92 
L 445.725 169.92 
L 446.4225 169.92 
L 447.12 169.92 
L 447.8175 169.92 
L 448.515 169.92 
L 449.2125 169.92 
L 449.91 169.92 
L 450.6075 169.92 
L 451.305 169.92 
L 452.0025 169.92 
L 452.7 169.92 
L 453.3975 169.92 
L 454.095 169.92 
L 454.7925 169.92 
L 455.49 169.92 
L 456.1875 169.92 
L 456.885 169.92 
L 457.5825 169.92 
L 458.28 169.92 
L 458.9775 169.92 
L 459.675 169.92 
L 460.3725 169.92 
L 461.07 169.92 
L 461.7675 169.92 
L 462.465 169.92 
L 463.1625 169.92 
L 463.86 169.92 
L 464.5575 169.92 
L 465.255 169.92 
L 465.9525 169.92 
L 466.65 169.92 
L 467.3475 169.92 
L 468.045 169.92 
L 468.7425 169.92 
L 469.44 169.92 
L 470.1375 169.92 
L 470.835 169.92 
L 471.5325 169.92 
L 472.23 169.92 
L 472.9275 169.92 
L 473.625 169.92 
L 474.3225 169.92 
L 475.02 169.92 
L 475.7175 169.92 
L 476.415 169.92 
L 477.1125 169.92 
L 477.81 169.92 
L 478.5075 169.92 
L 479.205 169.92 
L 479.9025 169.92 
L 480.6 169.92 
L 481.2975 169.92 
L 481.995 169.92 
L 482.6925 169.92 
L 483.39 169.92 
L 484.0875 169.92 
L 484.785 169.92 
L 485.4825 169.92 
L 486.18 169.92 
L 486.8775 169.92 
L 487.575 169.92 
L 488.2725 169.92 
L 488.97 169.92 
L 489.6675 169.92 
L 490.365 169.92 
L 491.0625 169.92 
L 491.76 169.92 
L 492.4575 169.92 
L 493.155 169.92 
L 493.8525 169.92 
L 494.55 169.92 
L 495.2475 169.92 
L 495.945 169.92 
L 496.6425 169.92 
L 497.34 169.92 
L 498.0375 169.92 
L 498.735 169.92 
L 499.4325 169.92 
L 500.13 169.92 
L 500.8275 169.92 
L 501.525 169.92 
L 502.2225 169.92 
L 502.92 169.92 
L 503.6175 169.92 
L 504.315 169.92 
L 505.0125 169.92 
L 505.71 169.92 
L 506.4075 169.92 
L 507.105 169.92 
L 507.8025 169.92 
L 508.5 169.92 
L 509.1975 169.92 
L 509.895 169.92 
L 510.5925 169.92 
L 511.29 169.92 
L 511.9875 169.92 
L 512.685 169.92 
L 513.3825 169.92 
L 514.08 169.92 
L 514.7775 169.92 
L 515.475 169.92 
L 516.1725 169.92 
L 516.87 169.92 
L 517.5675 169.92 
L 518.265 169.92 
L 518.9625 169.92 
L 519.66 169.92 
L 520.3575 169.92 
L 521.055 169.92 
L 521.7525 169.92 
L 522.45 169.92 
L 523.1475 169.92 
L 523.845 169.92 
L 524.5425 169.92 
L 525.24 169.92 
L 525.9375 169.92 
L 526.635 169.92 
L 527.3325 169.92 
L 528.03 169.92 
L 528.7275 169.92 
L 529.425 169.92 
L 530.1225 169.92 
L 530.82 169.92 
L 531.5175 169.92 
L 532.215 169.92 
L 532.9125 169.92 
L 533.61 169.92 
L 534.3075 169.92 
L 535.005 169.92 
L 535.7025 169.92 
L 536.4 169.92 
L 537.0975 169.92 
L 537.795 169.92 
L 538.4925 169.92 
L 539.19 169.92 
L 539.8875 169.92 
L 540.585 169.92 
L 541.2825 169.92 
L 541.98 169.92 
L 542.6775 169.92 
L 543.375 169.92 
L 544.0725 169.92 
L 544.77 169.92 
L 545.4675 169.92 
L 546.165 169.92 
L 546.8625 169.92 
L 547.56 169.92 
L 548.2575 169.92 
L 548.955 169.92 
L 549.6525 169.92 
L 550.35 169.92 
L 551.0475 169.92 
L 551.745 169.92 
L 552.4425 169.92 
L 553.14 169.92 
L 553.8375 169.92 
L 554.535 169.92 
L 555.2325 169.92 
L 555.93 169.92 
L 556.6275 169.92 
L 557.325 169.92 
L 558.0225 169.92 
L 558.72 169.92 
L 559.4175 169.92 
L 560.115 169.92 
L 560.8125 169.92 
L 561.51 169.92 
L 562.2075 169.92 
L 562.905 169.92 
L 563.6025 169.92 
L 564.3 169.92 
L 564.9975 169.92 
L 565.695 169.92 
L 566.3925 169.92 
L 567.09 169.92 
L 567.7875 169.92 
L 568.485 169.92 
L 569.1825 169.92 
L 569.88 169.92 
L 570.5775 169.92 
L 571.275 169.92 
L 571.9725 169.92 
L 572.67 169.92 
L 573.3675 169.92 
L 574.065 169.92 
L 574.7625 169.92 
L 575.46 169.92 
L 576.1575 169.92 
L 576.855 169.92 
L 577.5525 169.92 
L 578.25 169.92 
L 578.9475 169.92 
L 579.645 169.92 
L 580.3425 169.92 
L 581.04 169.92 
L 581.7375 169.92 
L 582.435 169.92 
L 583.1325 169.92 
L 583.83 169.92 
L 584.5275 169.92 
L 585.225 169.92 
L 585.9225 169.92 
L 586.62 169.92 
L 587.3175 169.92 
L 588.015 169.92 
L 588.7125 169.92 
L 589.41 169.92 
L 590.1075 169.92 
L 590.805 169.92 
L 591.5025 169.92 
L 592.2 169.92 
L 592.8975 169.92 
L 593.595 169.92 
L 594.2925 169.92 
L 594.99 169.92 
L 595.6875 169.92 
L 596.385 169.92 
L 597.0825 169.92 
L 597.78 169.92 
L 598.4775 169.92 
L 599.175 169.92 
L 599.8725 169.92 
L 600.57 169.92 
L 601.2675 169.92 
L 601.965 169.92 
L 602.6625 169.92 
L 603.36 169.92 
L 604.0575 169.92 
L 604.755 169.92 
L 605.4525 169.92 
L 606.15 169.92 
L 606.8475 169.92 
L 607.545 169.92 
L 608.2425 169.92 
L 608.94 169.92 
L 609.6375 169.92 
L 610.335 169.92 
L 611.0325 169.92 
L 611.73 169.92 
L 612.4275 169.92 
L 613.125 169.92 
L 613.8225 169.92 
L 614.52 169.92 
L 615.2175 169.92 
L 615.915 169.92 
L 616.6125 169.92 
L 617.31 169.92 
L 618.0075 169.92 
L 618.705 169.92 
L 619.4025 169.92 
L 620.1 169.92 
L 620.7975 169.92 
L 621.495 169.92 
L 622.1925 169.92 
L 622.89 169.92 
L 623.5875 169.92 
L 624.285 169.92 
L 624.9825 169.92 
L 625.68 169.92 
L 626.3775 169.92 
L 627.075 169.92 
L 627.7725 169.92 
L 628.47 169.92 
L 629.1675 169.92 
L 629.865 169.92 
L 630.5625 169.92 
L 631.26 169.92 
L 631.9575 169.92 
L 632.655 169.92 
L 633.3525 169.92 
L 634.05 169.92 
L 634.7475 169.92 
L 635.445 169.92 
L 636.1425 169.92 
L 636.84 169.92 
L 637.5375 169.92 
L 638.235 169.92 
L 638.9325 169.92 
L 639.63 169.92 
L 640.3275 169.92 
L 641.025 169.92 
L 641.7225 169.92 
L 642.42 169.92 
L 643.1175 169.92 
L 643.815 169.92 
L 644.5125 169.92 
L 645.21 169.92 
L 645.9075 169.92 
L 646.605 169.92 
L 646.605 169.92 
L 646.605 169.92 
L 645.9075 169.922367 
L 645.21 169.928678 
L 644.5125 169.93683 
L 643.815 169.947085 
L 643.1175 169.959969 
L 642.42 169.974431 
L 641.7225 169.990206 
L 641.025 170.009136 
L 640.3275 170.030167 
L 639.63 170.053038 
L 638.9325 170.079062 
L 638.235 170.10666 
L 637.5375 170.136885 
L 636.84 170.16921 
L 636.1425 170.203896 
L 635.445 170.240945 
L 634.7475 170.280091 
L 634.05 170.320808 
L 633.3525 170.362833 
L 632.655 170.407743 
L 631.9575 170.454484 
L 631.26 170.503582 
L 630.5625 170.5553 
L 629.865 170.609898 
L 629.1675 170.665798 
L 628.47 170.724315 
L 627.7725 170.785184 
L 627.075 170.849192 
L 626.3775 170.914761 
L 625.68 170.982942 
L 624.9825 171.053207 
L 624.285 171.125029 
L 623.5875 171.200248 
L 622.89 171.277284 
L 622.1925 171.356925 
L 621.495 171.438906 
L 620.7975 171.522701 
L 620.1 171.607518 
L 619.4025 171.695197 
L 618.705 171.784421 
L 618.0075 171.875715 
L 617.31 171.968288 
L 616.6125 172.061875 
L 615.915 172.15779 
L 615.2175 172.254716 
L 614.52 172.352914 
L 613.8225 172.453172 
L 613.125 172.554961 
L 612.4275 172.657754 
L 611.73 172.761811 
L 611.0325 172.868446 
L 610.335 172.976869 
L 609.6375 173.086287 
L 608.94 173.197488 
L 608.2425 173.309944 
L 607.545 173.423127 
L 606.8475 173.53835 
L 606.15 173.655348 
L 605.4525 173.773592 
L 604.755 173.891239 
L 604.0575 174.010655 
L 603.36 174.129734 
L 602.6625 174.249787 
L 601.965 174.369761 
L 601.2675 174.49018 
L 600.57 174.610778 
L 599.8725 174.731291 
L 599.175 174.852241 
L 598.4775 174.97205 
L 597.78 175.092818 
L 597.0825 175.21244 
L 596.385 175.331965 
L 595.6875 175.450865 
L 594.99 175.569139 
L 594.2925 175.687572 
L 593.595 175.804847 
L 592.8975 175.921753 
L 592.2 176.037497 
L 591.5025 176.151288 
L 590.805 176.264702 
L 590.1075 176.377475 
L 589.41 176.489078 
L 588.7125 176.598983 
L 588.015 176.70824 
L 587.3175 176.81711 
L 586.62 176.924539 
L 585.9225 177.030526 
L 585.225 177.134278 
L 584.5275 177.236322 
L 583.83 177.337179 
L 583.1325 177.437375 
L 582.435 177.536645 
L 581.7375 177.634461 
L 581.04 177.730821 
L 580.3425 177.825724 
L 579.645 177.918378 
L 578.9475 178.009572 
L 578.25 178.098514 
L 577.5525 178.185203 
L 576.855 178.270952 
L 576.1575 178.354181 
L 575.46 178.436731 
L 574.7625 178.516232 
L 574.065 178.59321 
L 573.3675 178.668188 
L 572.67 178.740377 
L 571.9725 178.811616 
L 571.275 178.880589 
L 570.5775 178.947031 
L 569.88 179.010679 
L 569.1825 179.072846 
L 568.485 179.131952 
L 567.7875 179.187998 
L 567.09 179.24256 
L 566.3925 179.294585 
L 565.695 179.344072 
L 564.9975 179.391546 
L 564.3 179.437795 
L 563.6025 179.481766 
L 562.905 179.522933 
L 562.2075 179.562873 
L 561.51 179.600532 
L 560.8125 179.636437 
L 560.115 179.67085 
L 559.4175 179.703507 
L 558.72 179.734933 
L 558.0225 179.764076 
L 557.325 179.792251 
L 556.6275 179.817878 
L 555.93 179.842536 
L 555.2325 179.864645 
L 554.535 179.885258 
L 553.8375 179.904638 
L 553.14 179.921731 
L 552.4425 179.938378 
L 551.745 179.952475 
L 551.0475 179.965864 
L 550.35 179.977228 
L 549.6525 179.988145 
L 548.955 179.997301 
L 548.2575 180.004169 
L 547.56 180.010063 
L 546.8625 180.014985 
L 546.165 180.01867 
L 545.4675 180.020592 
L 544.77 180.021279 
L 544.0725 180.020466 
L 543.375 180.018416 
L 542.6775 180.014868 
L 541.98 180.011135 
L 541.2825 180.005376 
L 540.585 179.998645 
L 539.8875 179.99094 
L 539.19 179.982 
L 538.4925 179.972876 
L 537.795 179.963042 
L 537.0975 179.952762 
L 536.4 179.942035 
L 535.7025 179.931126 
L 535.005 179.919245 
L 534.3075 179.907706 
L 533.61 179.894934 
L 532.9125 179.882505 
L 532.215 179.869106 
L 531.5175 179.85605 
L 530.82 179.843076 
L 530.1225 179.829921 
L 529.425 179.817636 
L 528.7275 179.804645 
L 528.03 179.791999 
L 527.3325 179.779436 
L 526.635 179.766692 
L 525.9375 179.753506 
L 525.24 179.740403 
L 524.5425 179.727121 
L 523.845 179.713922 
L 523.1475 179.70107 
L 522.45 179.687514 
L 521.7525 179.67378 
L 521.055 179.659341 
L 520.3575 179.644724 
L 519.66 179.630193 
L 518.9625 179.615484 
L 518.265 179.600335 
L 517.5675 179.585798 
L 516.87 179.571348 
L 516.1725 179.556458 
L 515.475 179.542181 
L 514.7775 179.528254 
L 514.08 179.514678 
L 513.3825 179.501452 
L 512.685 179.488051 
L 511.9875 179.474213 
L 511.29 179.460199 
L 510.5925 179.446538 
L 509.895 179.433754 
L 509.1975 179.42106 
L 508.5 179.409244 
L 507.8025 179.396991 
L 507.105 179.386143 
L 506.4075 179.375648 
L 505.71 179.36577 
L 505.0125 179.355718 
L 504.315 179.346546 
L 503.6175 179.338254 
L 502.92 179.330053 
L 502.2225 179.323521 
L 501.525 179.317342 
L 500.8275 179.312044 
L 500.13 179.306838 
L 499.4325 179.301985 
L 498.735 179.298277 
L 498.0375 179.295448 
L 497.34 179.293501 
L 496.6425 179.292171 
L 495.945 179.291984 
L 495.2475 179.292941 
L 494.55 179.295568 
L 493.8525 179.298286 
L 493.155 179.302411 
L 492.4575 179.306365 
L 491.76 179.311724 
L 491.0625 179.317702 
L 490.365 179.324296 
L 489.6675 179.331244 
L 488.97 179.339073 
L 488.2725 179.347255 
L 487.575 179.356054 
L 486.8775 179.366521 
L 486.18 179.378131 
L 485.4825 179.390356 
L 484.785 179.403198 
L 484.0875 179.417444 
L 483.39 179.432568 
L 482.6925 179.448045 
L 481.995 179.463873 
L 481.2975 179.480579 
L 480.6 179.497636 
L 479.9025 179.515308 
L 479.205 179.533329 
L 478.5075 179.552227 
L 477.81 179.571212 
L 477.1125 179.59081 
L 476.415 179.610494 
L 475.7175 179.631315 
L 475.02 179.65196 
L 474.3225 179.672689 
L 473.625 179.693503 
L 472.9275 179.714139 
L 472.23 179.734596 
L 471.5325 179.754873 
L 470.835 179.776286 
L 470.1375 179.797518 
L 469.44 179.818833 
L 468.7425 179.840756 
L 468.045 179.863024 
L 467.3475 179.88511 
L 466.65 179.90754 
L 465.9525 179.930839 
L 465.255 179.955008 
L 464.5575 179.979256 
L 463.86 180.003583 
L 463.1625 180.028778 
L 462.465 180.053788 
L 461.7675 180.080454 
L 461.07 180.106934 
L 460.3725 180.133491 
L 459.675 180.160124 
L 458.9775 180.186571 
L 458.28 180.212303 
L 457.5825 180.2389 
L 456.885 180.265834 
L 456.1875 180.292316 
L 455.49 180.318609 
L 454.7925 180.346026 
L 454.095 180.373253 
L 453.3975 180.400815 
L 452.7 180.428712 
L 452.0025 180.457205 
L 451.305 180.486032 
L 450.6075 180.515191 
L 449.91 180.544946 
L 449.2125 180.575033 
L 448.515 180.605714 
L 447.8175 180.636726 
L 447.12 180.667542 
L 446.4225 180.698687 
L 445.725 180.730425 
L 445.0275 180.762491 
L 444.33 180.795673 
L 443.6325 180.82892 
L 442.935 180.862231 
L 442.2375 180.895342 
L 441.54 180.929304 
L 440.8425 180.963328 
L 440.145 180.998202 
L 439.4475 181.033136 
L 438.75 181.069183 
L 438.0525 181.105025 
L 437.355 181.14119 
L 436.6575 181.177675 
L 435.96 181.213955 
L 435.2625 181.250554 
L 434.565 181.287209 
L 433.8675 181.324182 
L 433.17 181.360947 
L 432.4725 181.398029 
L 431.775 181.434902 
L 431.0775 181.471564 
L 430.38 181.508014 
L 429.6825 181.544517 
L 428.985 181.580806 
L 428.2875 181.616883 
L 427.59 181.652483 
L 426.8925 181.687869 
L 426.195 181.723303 
L 425.4975 181.758521 
L 424.8 181.793522 
L 424.1025 181.82857 
L 423.405 181.863137 
L 422.7075 181.898275 
L 422.01 181.932669 
L 421.3125 181.966842 
L 420.615 182.000796 
L 419.9175 182.034266 
L 419.22 182.067252 
L 418.5225 182.099753 
L 417.825 182.132294 
L 417.1275 182.164349 
L 416.43 182.196181 
L 415.7325 182.227525 
L 415.035 182.257855 
L 414.3375 182.288223 
L 413.64 182.318365 
L 412.9425 182.347755 
L 412.245 182.377444 
L 411.5475 182.406642 
L 410.85 182.434823 
L 410.1525 182.462512 
L 409.455 182.489709 
L 408.7575 182.516414 
L 408.06 182.542362 
L 407.3625 182.567291 
L 406.665 182.591989 
L 405.9675 182.615141 
L 405.27 182.637535 
L 404.5725 182.658644 
L 403.875 182.679258 
L 403.1775 182.699113 
L 402.48 182.717683 
L 401.7825 182.735755 
L 401.085 182.752279 
L 400.3875 182.767779 
L 399.69 182.782519 
L 398.9925 182.795709 
L 398.295 182.807612 
L 397.5975 182.819016 
L 396.9 182.829396 
L 396.2025 182.839014 
L 395.505 182.847344 
L 394.8075 182.85465 
L 394.11 182.860929 
L 393.4125 182.865132 
L 392.715 182.868309 
L 392.0175 182.870461 
L 391.32 182.871062 
L 390.6225 182.871163 
L 389.925 182.869186 
L 389.2275 182.865921 
L 388.53 182.862157 
L 387.8325 182.857104 
L 387.135 182.850763 
L 386.4375 182.843923 
L 385.74 182.835531 
L 385.0425 182.825589 
L 384.345 182.814623 
L 383.6475 182.802632 
L 382.95 182.78909 
L 382.2525 182.773736 
L 381.555 182.756832 
L 380.8575 182.738642 
L 380.16 182.718903 
L 379.4625 182.697615 
L 378.765 182.674515 
L 378.0675 182.649342 
L 377.37 182.622885 
L 376.6725 182.594355 
L 375.975 182.564278 
L 375.2775 182.532918 
L 374.58 182.499751 
L 373.8825 182.465038 
L 373.185 182.428519 
L 372.4875 182.390456 
L 371.79 182.35085 
L 371.0925 182.30944 
L 370.395 182.266226 
L 369.6975 182.221208 
L 369 182.175176 
L 368.3025 182.126817 
L 367.605 182.077709 
L 366.9075 182.026801 
L 366.21 181.974094 
L 365.5125 181.919852 
L 364.815 181.864076 
L 364.1175 181.806241 
L 363.42 181.746873 
L 362.7225 181.685975 
L 362.025 181.623548 
L 361.3275 181.559591 
L 360.63 181.494633 
L 359.9325 181.427886 
L 359.235 181.359614 
L 358.5375 181.29008 
L 357.84 181.218236 
L 357.1425 181.145133 
L 356.445 181.069984 
L 355.7475 180.993317 
L 355.05 180.914869 
L 354.3525 180.834117 
L 353.655 180.751588 
L 352.9575 180.66702 
L 352.26 180.580941 
L 351.5625 180.493615 
L 350.865 180.404255 
L 350.1675 180.313126 
L 349.47 180.22023 
L 348.7725 180.125567 
L 348.075 180.029403 
L 347.3775 179.931739 
L 346.68 179.832841 
L 345.9825 179.732447 
L 345.285 179.630296 
L 344.5875 179.526652 
L 343.89 179.421781 
L 343.1925 179.315159 
L 342.495 179.20705 
L 341.7975 179.097457 
L 341.1 178.986118 
L 340.4025 178.873562 
L 339.705 178.75979 
L 339.0075 178.644542 
L 338.31 178.528083 
L 337.6125 178.410151 
L 336.915 178.291276 
L 336.2175 178.171459 
L 335.52 178.050176 
L 334.8225 177.927429 
L 334.125 177.803222 
L 333.4275 177.677819 
L 332.73 177.550959 
L 332.0325 177.422382 
L 331.335 177.292616 
L 330.6375 177.161401 
L 329.94 177.028212 
L 329.2425 176.893579 
L 328.545 176.758292 
L 327.8475 176.62104 
L 327.15 176.482876 
L 326.4525 176.343278 
L 325.755 176.201984 
L 325.0575 176.059261 
L 324.36 175.915111 
L 323.6625 175.769537 
L 322.965 175.622541 
L 322.2675 175.474125 
L 321.57 175.324557 
L 320.8725 175.174101 
L 320.175 175.022234 
L 319.4775 174.869222 
L 318.78 174.715067 
L 318.0825 174.55951 
L 317.385 174.402817 
L 316.6875 174.245253 
L 315.99 174.086558 
L 315.2925 173.926997 
L 314.595 173.766575 
L 313.8975 173.60582 
L 313.2 173.443945 
L 312.5025 173.280691 
L 311.805 173.116061 
L 311.1075 172.950057 
L 310.41 172.782947 
L 309.7125 172.614995 
L 309.015 172.445942 
L 308.3175 172.276054 
L 307.62 172.104808 
L 306.9225 171.932734 
L 306.225 171.75957 
L 305.5275 171.58611 
L 304.83 171.412357 
L 304.1325 171.237788 
L 303.435 171.062668 
L 302.7375 170.887265 
L 302.04 170.711055 
L 301.3425 170.534305 
L 300.645 170.357017 
L 299.9475 170.179196 
L 299.25 170.000844 
L 298.5525 169.821964 
L 297.855 169.642561 
L 297.1575 169.463162 
L 296.46 169.283509 
L 295.7625 169.103605 
L 295.065 168.923189 
L 294.3675 168.742529 
L 293.67 168.561627 
L 292.9725 168.380487 
L 292.275 168.199376 
L 291.5775 168.017769 
L 290.88 167.836198 
L 290.1825 167.654139 
L 289.485 167.472121 
L 288.7875 167.289884 
L 288.09 167.107433 
L 287.3925 166.925034 
L 286.695 166.742426 
L 285.9975 166.559876 
L 285.3 166.376861 
L 284.6025 166.194174 
L 283.905 166.011556 
L 283.2075 165.829008 
L 282.51 165.646536 
L 281.8125 165.464141 
L 281.115 165.281828 
L 280.4175 165.0996 
L 279.72 164.917723 
L 279.0225 164.735937 
L 278.325 164.554246 
L 277.6275 164.372915 
L 276.93 164.191949 
L 276.2325 164.011088 
L 275.535 163.830598 
L 274.8375 163.650482 
L 274.14 163.471006 
L 273.4425 163.291911 
L 272.745 163.112937 
L 272.0475 162.934614 
L 271.35 162.756418 
L 270.6525 162.578616 
L 269.955 162.401211 
L 269.2575 162.223944 
L 268.56 162.047343 
L 267.8625 161.871411 
L 267.165 161.696416 
L 266.4675 161.521834 
L 265.77 161.347931 
L 265.0725 161.174711 
L 264.375 161.001914 
L 263.6775 160.830068 
L 262.98 160.658651 
L 262.2825 160.487404 
L 261.585 160.316855 
L 260.8875 160.146744 
L 260.19 159.977338 
L 259.4925 159.808639 
L 258.795 159.640651 
L 258.0975 159.473377 
L 257.4 159.306819 
L 256.7025 159.140982 
L 256.005 158.975867 
L 255.3075 158.811741 
L 254.61 158.648081 
L 253.9125 158.485153 
L 253.215 158.322697 
L 252.5175 158.160978 
L 251.82 157.999737 
L 251.1225 157.838978 
L 250.425 157.678964 
L 249.7275 157.519701 
L 249.03 157.361189 
L 248.3325 157.203433 
L 247.635 157.046436 
L 246.9375 156.890199 
L 246.24 156.734201 
L 245.5425 156.578969 
L 244.845 156.424244 
L 244.1475 156.270555 
L 243.45 156.117378 
L 242.7525 155.964979 
L 242.055 155.813098 
L 241.3575 155.661475 
L 240.66 155.510638 
L 239.9625 155.360327 
L 239.265 155.210545 
L 238.5675 155.061032 
L 237.87 154.911791 
L 237.1725 154.763086 
L 236.475 154.614922 
L 235.7775 154.467037 
L 235.08 154.319697 
L 234.3825 154.172906 
L 233.685 154.026665 
L 232.9875 153.880714 
L 232.29 153.735056 
L 231.5925 153.59022 
L 230.895 153.445946 
L 230.1975 153.301972 
L 229.5 153.158565 
L 228.8025 153.015201 
L 228.105 152.872409 
L 227.4075 152.729928 
L 226.71 152.587762 
L 226.0125 152.446175 
L 225.315 152.304907 
L 224.6175 152.163961 
L 223.92 152.02334 
L 223.2225 151.883045 
L 222.525 151.74308 
L 221.8275 151.603447 
L 221.13 151.464149 
L 220.4325 151.324925 
L 219.735 151.186041 
L 219.0375 151.047235 
L 218.34 150.908775 
L 217.6425 150.770662 
L 216.945 150.632899 
L 216.2475 150.495488 
L 215.55 150.358433 
L 214.8525 150.221734 
L 214.155 150.085395 
L 213.4575 149.949682 
L 212.76 149.814334 
L 212.0625 149.679353 
L 211.365 149.545004 
L 210.6675 149.411028 
L 209.97 149.277427 
L 209.2725 149.144202 
L 208.575 149.011358 
L 207.8775 148.878895 
L 207.18 148.746816 
L 206.4825 148.615125 
L 205.785 148.483823 
L 205.0875 148.352912 
L 204.39 148.222395 
L 203.6925 148.092275 
L 202.995 147.962554 
L 202.2975 147.833759 
L 201.6 147.705368 
L 200.9025 147.577383 
L 200.205 147.449806 
L 199.5075 147.32264 
L 198.81 147.195886 
L 198.1125 147.069811 
L 197.415 146.944153 
L 196.7175 146.818915 
L 196.02 146.694099 
L 195.3225 146.569707 
L 194.625 146.445742 
L 193.9275 146.322206 
L 193.23 146.1991 
L 192.5325 146.076428 
L 191.835 145.954192 
L 191.1375 145.832394 
L 190.44 145.711035 
L 189.7425 145.590119 
L 189.045 145.469648 
L 188.3475 145.349623 
L 187.65 145.230047 
L 186.9525 145.110922 
L 186.255 144.99225 
L 185.5575 144.874034 
L 184.86 144.756275 
L 184.1625 144.638976 
L 183.465 144.522139 
L 182.7675 144.405766 
L 182.07 144.289859 
L 181.3725 144.174421 
L 180.675 144.059452 
L 179.9775 143.944956 
L 179.28 143.830935 
L 178.5825 143.71739 
L 177.885 143.604324 
L 177.1875 143.491739 
L 176.49 143.379637 
L 175.7925 143.268019 
L 175.095 143.156889 
L 174.3975 143.046247 
L 173.7 142.936096 
L 173.0025 142.826439 
L 172.305 142.717276 
L 171.6075 142.60861 
L 170.91 142.500443 
L 170.2125 142.392777 
L 169.515 142.285614 
L 168.8175 142.178956 
L 168.12 142.072805 
L 167.4225 141.9669 
L 166.725 141.861505 
L 166.0275 141.756623 
L 165.33 141.652255 
L 164.6325 141.548404 
L 163.935 141.445071 
L 163.2375 141.342258 
L 162.54 141.239968 
L 161.8425 141.137938 
L 161.145 141.036434 
L 160.4475 140.935458 
L 159.75 140.835012 
L 159.0525 140.735097 
L 158.355 140.635715 
L 157.6575 140.536868 
L 156.96 140.438557 
L 156.2625 140.340786 
L 155.565 140.243555 
L 154.8675 140.146866 
L 154.17 140.050721 
L 153.4725 139.955121 
L 152.775 139.860069 
L 152.0775 139.765304 
L 151.38 139.671089 
L 150.6825 139.577164 
L 149.985 139.483793 
L 149.2875 139.390978 
L 148.59 139.298721 
L 147.8925 139.207024 
L 147.195 139.115887 
L 146.4975 139.025314 
L 145.8 138.935304 
L 145.1025 138.845861 
L 144.405 138.756986 
L 143.7075 138.66868 
L 143.01 138.580944 
L 142.3125 138.493782 
L 141.615 138.407193 
L 140.9175 138.321181 
L 140.22 138.235745 
L 139.5225 138.150625 
L 138.825 138.066086 
L 138.1275 137.982129 
L 137.43 137.899018 
L 136.7325 137.816492 
L 136.035 137.734553 
L 135.3375 137.653202 
L 134.64 137.57244 
L 133.9425 137.492532 
L 133.245 137.413217 
L 132.5475 137.334495 
L 131.85 137.256369 
L 131.1525 137.17884 
L 130.455 137.101908 
L 129.7575 137.025577 
L 129.06 136.949846 
L 128.3625 136.874717 
L 127.665 136.800193 
L 126.9675 136.726273 
L 126.27 136.65296 
L 125.5725 136.580254 
L 124.875 136.508158 
L 124.1775 136.436672 
L 123.48 136.365798 
L 122.7825 136.295537 
L 122.085 136.22589 
L 121.3875 136.156858 
L 120.69 136.088444 
L 119.9925 136.020648 
L 119.295 135.953471 
L 118.5975 135.886914 
L 117.9 135.820979 
L 117.2025 135.755667 
L 116.505 135.69098 
L 115.8075 135.626917 
L 115.11 135.563482 
L 114.4125 135.500674 
L 113.715 135.438494 
L 113.0175 135.376945 
L 112.32 135.316027 
L 111.6225 135.255741 
L 110.925 135.196088 
L 110.2275 135.13707 
L 109.53 135.078687 
L 108.8325 135.02094 
L 108.135 134.963831 
L 107.4375 134.907361 
L 106.74 134.851531 
L 106.0425 134.796341 
L 105.345 134.741793 
L 104.6475 134.687887 
L 103.95 134.634626 
L 103.2525 134.582008 
L 102.555 134.530037 
L 101.8575 134.478712 
L 101.16 134.428034 
L 100.4625 134.378005 
L 99.765 134.328626 
L 99.0675 134.279896 
L 98.37 134.231818 
L 97.6725 134.184391 
L 96.975 134.137618 
L 96.2775 134.091498 
L 95.58 134.046033 
L 94.8825 134.001486 
L 94.185 133.957595 
L 93.4875 133.914362 
L 92.79 133.871786 
L 92.0925 133.829868 
L 91.395 133.788611 
L 90.6975 133.748013 
L 90 133.708076 
z
" style="fill:#e0ffff;"/>
   </g>
   <g id="line2d_15">
    <path clip-path="url(#p3616670ba7)" d="M 90 133.708076 
L 102.555 134.530037 
L 115.8075 135.626917 
L 129.06 136.949846 
L 142.3125 138.493782 
L 156.2625 140.340786 
L 170.91 142.500443 
L 186.255 144.99225 
L 202.2975 147.833759 
L 218.34 150.908775 
L 236.475 154.614922 
L 251.1225 157.838978 
L 264.375 161.001914 
L 279.72 164.917723 
L 309.015 172.445942 
L 319.4775 174.869222 
L 328.545 176.758292 
L 337.6125 178.410151 
L 346.68 179.832841 
L 355.05 180.914869 
L 363.42 181.746873 
L 371.79 182.35085 
L 380.16 182.718903 
L 389.2275 182.865921 
L 398.295 182.807612 
L 408.06 182.542362 
L 423.405 181.863137 
L 461.07 180.106934 
L 478.5075 179.552227 
L 491.0625 179.317702 
L 502.2225 179.323521 
L 516.87 179.571348 
L 543.375 180.018416 
L 552.4425 179.938378 
L 560.8125 179.636437 
L 568.485 179.131952 
L 575.46 178.436731 
L 583.83 177.337179 
L 592.8975 175.921753 
L 615.915 172.15779 
L 623.5875 171.200248 
L 630.5625 170.5553 
L 637.5375 170.136885 
L 644.5125 169.93683 
L 646.605 169.92 
L 646.605 169.92 
" style="fill:none;stroke:#008080;stroke-linecap:round;stroke-width:1.75;"/>
   </g>
   <g id="patch_3">
    <path d="M 90 270.72 
L 90 69.12 
" style="fill:none;stroke:#262626;stroke-linecap:square;stroke-linejoin:miter;stroke-width:1.25;"/>
   </g>
   <g id="patch_4">
    <path d="M 90 270.72 
L 648 270.72 
" style="fill:none;stroke:#262626;stroke-linecap:square;stroke-linejoin:miter;stroke-width:1.25;"/>
   </g>
  </g>
  <g id="axes_2">
   <g id="patch_5">
    <path d="M 90 512.64 
L 648 512.64 
L 648 311.04 
L 90 311.04 
z
" style="fill:#ffffff;"/>
   </g>
   <g id="matplotlib.axis_3">
    <g id="xtick_10">
     <g id="line2d_16">
      <g>
       <use style="fill:#262626;stroke:#262626;" x="191.454545" xlink:href="#m7ebac7b3f1" y="512.64"/>
      </g>
     </g>
     <g id="text_15">
      <!-- 200 -->
      <g style="fill:#262626;" transform="translate(183.113139 532.797812)scale(0.1 -0.1)">
       <use xlink:href="#ArialMT-32"/>
       <use x="55.615234" xlink:href="#ArialMT-30"/>
       <use x="111.230469" xlink:href="#ArialMT-30"/>
      </g>
     </g>
    </g>
    <g id="xtick_11">
     <g id="line2d_17">
      <g>
       <use style="fill:#262626;stroke:#262626;" x="304.181818" xlink:href="#m7ebac7b3f1" y="512.64"/>
      </g>
     </g>
     <g id="text_16">
      <!-- 400 -->
      <g style="fill:#262626;" transform="translate(295.840412 532.797812)scale(0.1 -0.1)">
       <use xlink:href="#ArialMT-34"/>
       <use x="55.615234" xlink:href="#ArialMT-30"/>
       <use x="111.230469" xlink:href="#ArialMT-30"/>
      </g>
     </g>
    </g>
    <g id="xtick_12">
     <g id="line2d_18">
      <g>
       <use style="fill:#262626;stroke:#262626;" x="416.909091" xlink:href="#m7ebac7b3f1" y="512.64"/>
      </g>
     </g>
     <g id="text_17">
      <!-- 600 -->
      <g style="fill:#262626;" transform="translate(408.567685 532.797812)scale(0.1 -0.1)">
       <use xlink:href="#ArialMT-36"/>
       <use x="55.615234" xlink:href="#ArialMT-30"/>
       <use x="111.230469" xlink:href="#ArialMT-30"/>
      </g>
     </g>
    </g>
    <g id="xtick_13">
     <g id="line2d_19">
      <g>
       <use style="fill:#262626;stroke:#262626;" x="529.636364" xlink:href="#m7ebac7b3f1" y="512.64"/>
      </g>
     </g>
     <g id="text_18">
      <!-- 800 -->
      <g style="fill:#262626;" transform="translate(521.294957 532.797812)scale(0.1 -0.1)">
       <use xlink:href="#ArialMT-38"/>
       <use x="55.615234" xlink:href="#ArialMT-30"/>
       <use x="111.230469" xlink:href="#ArialMT-30"/>
      </g>
     </g>
    </g>
    <g id="xtick_14">
     <g id="line2d_20">
      <g>
       <use style="fill:#262626;stroke:#262626;" x="642.363636" xlink:href="#m7ebac7b3f1" y="512.64"/>
      </g>
     </g>
     <g id="text_19">
      <!-- 1000 -->
      <g style="fill:#262626;" transform="translate(631.241761 532.797812)scale(0.1 -0.1)">
       <use xlink:href="#ArialMT-31"/>
       <use x="55.615234" xlink:href="#ArialMT-30"/>
       <use x="111.230469" xlink:href="#ArialMT-30"/>
       <use x="166.845703" xlink:href="#ArialMT-30"/>
      </g>
     </g>
    </g>
   </g>
   <g id="matplotlib.axis_4">
    <g id="ytick_6">
     <g id="line2d_21">
      <g>
       <use style="fill:#262626;stroke:#262626;" x="90" xlink:href="#m505fc0eca2" y="512.64"/>
      </g>
     </g>
     <g id="text_20">
      <!-- 0 -->
      <g style="fill:#262626;" transform="translate(71.439063 516.218906)scale(0.1 -0.1)">
       <use xlink:href="#ArialMT-30"/>
      </g>
     </g>
    </g>
    <g id="ytick_7">
     <g id="line2d_22">
      <g>
       <use style="fill:#262626;stroke:#262626;" x="90" xlink:href="#m505fc0eca2" y="490.24"/>
      </g>
     </g>
     <g id="text_21">
      <!-- 2 -->
      <g style="fill:#262626;" transform="translate(71.439063 493.818906)scale(0.1 -0.1)">
       <use xlink:href="#ArialMT-32"/>
      </g>
     </g>
    </g>
    <g id="ytick_8">
     <g id="line2d_23">
      <g>
       <use style="fill:#262626;stroke:#262626;" x="90" xlink:href="#m505fc0eca2" y="467.84"/>
      </g>
     </g>
     <g id="text_22">
      <!-- 4 -->
      <g style="fill:#262626;" transform="translate(71.439063 471.418906)scale(0.1 -0.1)">
       <use xlink:href="#ArialMT-34"/>
      </g>
     </g>
    </g>
    <g id="ytick_9">
     <g id="line2d_24">
      <g>
       <use style="fill:#262626;stroke:#262626;" x="90" xlink:href="#m505fc0eca2" y="445.44"/>
      </g>
     </g>
     <g id="text_23">
      <!-- 6 -->
      <g style="fill:#262626;" transform="translate(71.439063 449.018906)scale(0.1 -0.1)">
       <use xlink:href="#ArialMT-36"/>
      </g>
     </g>
    </g>
    <g id="ytick_10">
     <g id="line2d_25">
      <g>
       <use style="fill:#262626;stroke:#262626;" x="90" xlink:href="#m505fc0eca2" y="423.04"/>
      </g>
     </g>
     <g id="text_24">
      <!-- 8 -->
      <g style="fill:#262626;" transform="translate(71.439063 426.618906)scale(0.1 -0.1)">
       <use xlink:href="#ArialMT-38"/>
      </g>
     </g>
    </g>
    <g id="ytick_11">
     <g id="line2d_26">
      <g>
       <use style="fill:#262626;stroke:#262626;" x="90" xlink:href="#m505fc0eca2" y="400.64"/>
      </g>
     </g>
     <g id="text_25">
      <!-- 10 -->
      <g style="fill:#262626;" transform="translate(65.878125 404.218906)scale(0.1 -0.1)">
       <use xlink:href="#ArialMT-31"/>
       <use x="55.615234" xlink:href="#ArialMT-30"/>
      </g>
     </g>
    </g>
    <g id="ytick_12">
     <g id="line2d_27">
      <g>
       <use style="fill:#262626;stroke:#262626;" x="90" xlink:href="#m505fc0eca2" y="378.24"/>
      </g>
     </g>
     <g id="text_26">
      <!-- 12 -->
      <g style="fill:#262626;" transform="translate(65.878125 381.818906)scale(0.1 -0.1)">
       <use xlink:href="#ArialMT-31"/>
       <use x="55.615234" xlink:href="#ArialMT-32"/>
      </g>
     </g>
    </g>
    <g id="ytick_13">
     <g id="line2d_28">
      <g>
       <use style="fill:#262626;stroke:#262626;" x="90" xlink:href="#m505fc0eca2" y="355.84"/>
      </g>
     </g>
     <g id="text_27">
      <!-- 14 -->
      <g style="fill:#262626;" transform="translate(65.878125 359.418906)scale(0.1 -0.1)">
       <use xlink:href="#ArialMT-31"/>
       <use x="55.615234" xlink:href="#ArialMT-34"/>
      </g>
     </g>
    </g>
    <g id="ytick_14">
     <g id="line2d_29">
      <g>
       <use style="fill:#262626;stroke:#262626;" x="90" xlink:href="#m505fc0eca2" y="333.44"/>
      </g>
     </g>
     <g id="text_28">
      <!-- 16 -->
      <g style="fill:#262626;" transform="translate(65.878125 337.018906)scale(0.1 -0.1)">
       <use xlink:href="#ArialMT-31"/>
       <use x="55.615234" xlink:href="#ArialMT-36"/>
      </g>
     </g>
    </g>
    <g id="ytick_15">
     <g id="line2d_30">
      <g>
       <use style="fill:#262626;stroke:#262626;" x="90" xlink:href="#m505fc0eca2" y="311.04"/>
      </g>
     </g>
     <g id="text_29">
      <!-- 18 -->
      <g style="fill:#262626;" transform="translate(65.878125 314.618906)scale(0.1 -0.1)">
       <use xlink:href="#ArialMT-31"/>
       <use x="55.615234" xlink:href="#ArialMT-38"/>
      </g>
     </g>
    </g>
   </g>
   <g id="line2d_31">
    <path clip-path="url(#p5873fc5ce0)" d="M 90 477.654723 
L 95.636364 452.736402 
" style="fill:none;stroke:#b22222;stroke-linecap:round;stroke-width:1.75;"/>
   </g>
   <g id="line2d_32">
    <path clip-path="url(#p5873fc5ce0)" d="M 152 512.64 
L 152 311.04 
" style="fill:none;stroke:#4c72b0;stroke-linecap:round;stroke-width:1.75;"/>
   </g>
   <g id="patch_6">
    <path d="M 90 512.64 
L 90 311.04 
" style="fill:none;stroke:#262626;stroke-linecap:square;stroke-linejoin:miter;stroke-width:1.25;"/>
   </g>
   <g id="patch_7">
    <path d="M 90 512.64 
L 648 512.64 
" style="fill:none;stroke:#262626;stroke-linecap:square;stroke-linejoin:miter;stroke-width:1.25;"/>
   </g>
   <g id="text_30">
    <!-- f = 30 Hz -->
    <defs>
     <path d="M 8.6875 0 
L 8.6875 45.015625 
L 0.921875 45.015625 
L 0.921875 51.859375 
L 8.6875 51.859375 
L 8.6875 57.375 
Q 8.6875 62.59375 9.625 65.140625 
Q 10.890625 68.5625 14.078125 70.671875 
Q 17.28125 72.796875 23.046875 72.796875 
Q 26.765625 72.796875 31.25 71.921875 
L 29.9375 64.265625 
Q 27.203125 64.75 24.75 64.75 
Q 20.75 64.75 19.09375 63.03125 
Q 17.4375 61.328125 17.4375 56.640625 
L 17.4375 51.859375 
L 27.546875 51.859375 
L 27.546875 45.015625 
L 17.4375 45.015625 
L 17.4375 0 
z
" id="ArialMT-66"/>
     <path id="ArialMT-20"/>
     <path d="M 52.828125 42.09375 
L 5.5625 42.09375 
L 5.5625 50.296875 
L 52.828125 50.296875 
z
M 52.828125 20.359375 
L 5.5625 20.359375 
L 5.5625 28.5625 
L 52.828125 28.5625 
z
" id="ArialMT-3d"/>
     <path d="M 8.015625 0 
L 8.015625 71.578125 
L 17.484375 71.578125 
L 17.484375 42.1875 
L 54.6875 42.1875 
L 54.6875 71.578125 
L 64.15625 71.578125 
L 64.15625 0 
L 54.6875 0 
L 54.6875 33.734375 
L 17.484375 33.734375 
L 17.484375 0 
z
" id="ArialMT-48"/>
     <path d="M 1.953125 0 
L 1.953125 7.125 
L 34.96875 45.015625 
Q 29.34375 44.734375 25.046875 44.734375 
L 3.90625 44.734375 
L 3.90625 51.859375 
L 46.296875 51.859375 
L 46.296875 46.046875 
L 18.21875 13.140625 
L 12.796875 7.125 
Q 18.703125 7.5625 23.875 7.5625 
L 47.859375 7.5625 
L 47.859375 0 
z
" id="ArialMT-7a"/>
    </defs>
    <g style="fill:#262626;" transform="translate(529.636364 403.742188)scale(0.12 -0.12)">
     <use xlink:href="#ArialMT-66"/>
     <use x="27.783203" xlink:href="#ArialMT-20"/>
     <use x="55.566406" xlink:href="#ArialMT-3d"/>
     <use x="113.964844" xlink:href="#ArialMT-20"/>
     <use x="141.748047" xlink:href="#ArialMT-33"/>
     <use x="197.363281" xlink:href="#ArialMT-30"/>
     <use x="252.978516" xlink:href="#ArialMT-20"/>
     <use x="280.761719" xlink:href="#ArialMT-48"/>
     <use x="352.978516" xlink:href="#ArialMT-7a"/>
    </g>
   </g>
   <g id="PathCollection_1">
    <defs>
     <path d="M 0 3.5 
C 0.928211 3.5 1.81853 3.131218 2.474874 2.474874 
C 3.131218 1.81853 3.5 0.928211 3.5 0 
C 3.5 -0.928211 3.131218 -1.81853 2.474874 -2.474874 
C 1.81853 -3.131218 0.928211 -3.5 0 -3.5 
C -0.928211 -3.5 -1.81853 -3.131218 -2.474874 -2.474874 
C -3.131218 -1.81853 -3.5 -0.928211 -3.5 0 
C -3.5 0.928211 -3.131218 1.81853 -2.474874 2.474874 
C -1.81853 3.131218 -0.928211 3.5 0 3.5 
z
" id="m81e4ba4569" style="stroke:#800000;stroke-width:0.3;"/>
    </defs>
    <g clip-path="url(#p5873fc5ce0)">
     <use style="fill:#800000;stroke:#800000;stroke-width:0.3;" x="95.636364" xlink:href="#m81e4ba4569" y="452.736402"/>
    </g>
   </g>
  </g>
 </g>
 <defs>
  <clipPath id="p3616670ba7">
   <rect height="201.6" width="558" x="90" y="69.12"/>
  </clipPath>
  <clipPath id="p5873fc5ce0">
   <rect height="201.6" width="558" x="90" y="311.04"/>
  </clipPath>
 </defs>
</svg>
