<?xml version="1.0" encoding="utf-8" standalone="no"?>
<!DOCTYPE svg PUBLIC "-//W3C//DTD SVG 1.1//EN"
  "http://www.w3.org/Graphics/SVG/1.1/DTD/svg11.dtd">
<!-- Created with matplotlib (http://matplotlib.org/) -->
<svg height="576pt" version="1.1" viewBox="0 0 720 576" width="720pt" xmlns="http://www.w3.org/2000/svg" xmlns:xlink="http://www.w3.org/1999/xlink">
 <defs>
  <style type="text/css">
*{stroke-linecap:butt;stroke-linejoin:round;}
  </style>
 </defs>
 <g id="figure_1">
  <g id="patch_1">
   <path d="M 0 576 
L 720 576 
L 720 0 
L 0 0 
z
" style="fill:#ffffff;"/>
  </g>
  <g id="axes_1">
   <g id="patch_2">
    <path d="M 90 270.72 
L 648 270.72 
L 648 69.12 
L 90 69.12 
z
" style="fill:#ffffff;"/>
   </g>
   <g id="matplotlib.axis_1">
    <g id="xtick_1">
     <g id="line2d_1">
      <defs>
       <path d="M 0 0 
L 0 6 
" id="m0bc0fd1a87" style="stroke:#262626;"/>
      </defs>
      <g>
       <use style="fill:#262626;stroke:#262626;" x="90" xlink:href="#m0bc0fd1a87" y="270.72"/>
      </g>
     </g>
     <g id="text_1">
      <!-- 0 -->
      <defs>
       <path d="M 4.15625 35.296875 
Q 4.15625 48 6.765625 55.734375 
Q 9.375 63.484375 14.515625 67.671875 
Q 19.671875 71.875 27.484375 71.875 
Q 33.25 71.875 37.59375 69.546875 
Q 41.9375 67.234375 44.765625 62.859375 
Q 47.609375 58.5 49.21875 52.21875 
Q 50.828125 45.953125 50.828125 35.296875 
Q 50.828125 22.703125 48.234375 14.96875 
Q 45.65625 7.234375 40.5 3 
Q 35.359375 -1.21875 27.484375 -1.21875 
Q 17.140625 -1.21875 11.234375 6.203125 
Q 4.15625 15.140625 4.15625 35.296875 
z
M 13.1875 35.296875 
Q 13.1875 17.671875 17.3125 11.828125 
Q 21.4375 6 27.484375 6 
Q 33.546875 6 37.671875 11.859375 
Q 41.796875 17.71875 41.796875 35.296875 
Q 41.796875 52.984375 37.671875 58.78125 
Q 33.546875 64.59375 27.390625 64.59375 
Q 21.34375 64.59375 17.71875 59.46875 
Q 13.1875 52.9375 13.1875 35.296875 
z
" id="ArialMT-30"/>
      </defs>
      <g style="fill:#262626;" transform="translate(87.219531 290.877812)scale(0.1 -0.1)">
       <use xlink:href="#ArialMT-30"/>
      </g>
     </g>
    </g>
    <g id="xtick_2">
     <g id="line2d_2">
      <g>
       <use style="fill:#262626;stroke:#262626;" x="159.75" xlink:href="#m0bc0fd1a87" y="270.72"/>
      </g>
     </g>
     <g id="text_2">
      <!-- 100 -->
      <defs>
       <path d="M 37.25 0 
L 28.46875 0 
L 28.46875 56 
Q 25.296875 52.984375 20.140625 49.953125 
Q 14.984375 46.921875 10.890625 45.40625 
L 10.890625 53.90625 
Q 18.265625 57.375 23.78125 62.296875 
Q 29.296875 67.234375 31.59375 71.875 
L 37.25 71.875 
z
" id="ArialMT-31"/>
      </defs>
      <g style="fill:#262626;" transform="translate(151.408594 290.877812)scale(0.1 -0.1)">
       <use xlink:href="#ArialMT-31"/>
       <use x="55.615234" xlink:href="#ArialMT-30"/>
       <use x="111.230469" xlink:href="#ArialMT-30"/>
      </g>
     </g>
    </g>
    <g id="xtick_3">
     <g id="line2d_3">
      <g>
       <use style="fill:#262626;stroke:#262626;" x="229.5" xlink:href="#m0bc0fd1a87" y="270.72"/>
      </g>
     </g>
     <g id="text_3">
      <!-- 200 -->
      <defs>
       <path d="M 50.34375 8.453125 
L 50.34375 0 
L 3.03125 0 
Q 2.9375 3.171875 4.046875 6.109375 
Q 5.859375 10.9375 9.828125 15.625 
Q 13.8125 20.3125 21.34375 26.46875 
Q 33.015625 36.03125 37.109375 41.625 
Q 41.21875 47.21875 41.21875 52.203125 
Q 41.21875 57.421875 37.46875 61 
Q 33.734375 64.59375 27.734375 64.59375 
Q 21.390625 64.59375 17.578125 60.78125 
Q 13.765625 56.984375 13.71875 50.25 
L 4.6875 51.171875 
Q 5.609375 61.28125 11.65625 66.578125 
Q 17.71875 71.875 27.9375 71.875 
Q 38.234375 71.875 44.234375 66.15625 
Q 50.25 60.453125 50.25 52 
Q 50.25 47.703125 48.484375 43.546875 
Q 46.734375 39.40625 42.65625 34.8125 
Q 38.578125 30.21875 29.109375 22.21875 
Q 21.1875 15.578125 18.9375 13.203125 
Q 16.703125 10.84375 15.234375 8.453125 
z
" id="ArialMT-32"/>
      </defs>
      <g style="fill:#262626;" transform="translate(221.158594 290.877812)scale(0.1 -0.1)">
       <use xlink:href="#ArialMT-32"/>
       <use x="55.615234" xlink:href="#ArialMT-30"/>
       <use x="111.230469" xlink:href="#ArialMT-30"/>
      </g>
     </g>
    </g>
    <g id="xtick_4">
     <g id="line2d_4">
      <g>
       <use style="fill:#262626;stroke:#262626;" x="299.25" xlink:href="#m0bc0fd1a87" y="270.72"/>
      </g>
     </g>
     <g id="text_4">
      <!-- 300 -->
      <defs>
       <path d="M 4.203125 18.890625 
L 12.984375 20.0625 
Q 14.5 12.59375 18.140625 9.296875 
Q 21.78125 6 27 6 
Q 33.203125 6 37.46875 10.296875 
Q 41.75 14.59375 41.75 20.953125 
Q 41.75 27 37.796875 30.921875 
Q 33.84375 34.859375 27.734375 34.859375 
Q 25.25 34.859375 21.53125 33.890625 
L 22.515625 41.609375 
Q 23.390625 41.5 23.921875 41.5 
Q 29.546875 41.5 34.03125 44.421875 
Q 38.53125 47.359375 38.53125 53.46875 
Q 38.53125 58.296875 35.25 61.46875 
Q 31.984375 64.65625 26.8125 64.65625 
Q 21.6875 64.65625 18.265625 61.421875 
Q 14.84375 58.203125 13.875 51.765625 
L 5.078125 53.328125 
Q 6.6875 62.15625 12.390625 67.015625 
Q 18.109375 71.875 26.609375 71.875 
Q 32.46875 71.875 37.390625 69.359375 
Q 42.328125 66.84375 44.9375 62.5 
Q 47.5625 58.15625 47.5625 53.265625 
Q 47.5625 48.640625 45.0625 44.828125 
Q 42.578125 41.015625 37.703125 38.765625 
Q 44.046875 37.3125 47.5625 32.6875 
Q 51.078125 28.078125 51.078125 21.140625 
Q 51.078125 11.765625 44.234375 5.25 
Q 37.40625 -1.265625 26.953125 -1.265625 
Q 17.53125 -1.265625 11.296875 4.34375 
Q 5.078125 9.96875 4.203125 18.890625 
z
" id="ArialMT-33"/>
      </defs>
      <g style="fill:#262626;" transform="translate(290.908594 290.877812)scale(0.1 -0.1)">
       <use xlink:href="#ArialMT-33"/>
       <use x="55.615234" xlink:href="#ArialMT-30"/>
       <use x="111.230469" xlink:href="#ArialMT-30"/>
      </g>
     </g>
    </g>
    <g id="xtick_5">
     <g id="line2d_5">
      <g>
       <use style="fill:#262626;stroke:#262626;" x="369" xlink:href="#m0bc0fd1a87" y="270.72"/>
      </g>
     </g>
     <g id="text_5">
      <!-- 400 -->
      <defs>
       <path d="M 32.328125 0 
L 32.328125 17.140625 
L 1.265625 17.140625 
L 1.265625 25.203125 
L 33.9375 71.578125 
L 41.109375 71.578125 
L 41.109375 25.203125 
L 50.78125 25.203125 
L 50.78125 17.140625 
L 41.109375 17.140625 
L 41.109375 0 
z
M 32.328125 25.203125 
L 32.328125 57.46875 
L 9.90625 25.203125 
z
" id="ArialMT-34"/>
      </defs>
      <g style="fill:#262626;" transform="translate(360.658594 290.877812)scale(0.1 -0.1)">
       <use xlink:href="#ArialMT-34"/>
       <use x="55.615234" xlink:href="#ArialMT-30"/>
       <use x="111.230469" xlink:href="#ArialMT-30"/>
      </g>
     </g>
    </g>
    <g id="xtick_6">
     <g id="line2d_6">
      <g>
       <use style="fill:#262626;stroke:#262626;" x="438.75" xlink:href="#m0bc0fd1a87" y="270.72"/>
      </g>
     </g>
     <g id="text_6">
      <!-- 500 -->
      <defs>
       <path d="M 4.15625 18.75 
L 13.375 19.53125 
Q 14.40625 12.796875 18.140625 9.390625 
Q 21.875 6 27.15625 6 
Q 33.5 6 37.890625 10.78125 
Q 42.28125 15.578125 42.28125 23.484375 
Q 42.28125 31 38.0625 35.34375 
Q 33.84375 39.703125 27 39.703125 
Q 22.75 39.703125 19.328125 37.765625 
Q 15.921875 35.84375 13.96875 32.765625 
L 5.71875 33.84375 
L 12.640625 70.609375 
L 48.25 70.609375 
L 48.25 62.203125 
L 19.671875 62.203125 
L 15.828125 42.96875 
Q 22.265625 47.46875 29.34375 47.46875 
Q 38.71875 47.46875 45.15625 40.96875 
Q 51.609375 34.46875 51.609375 24.265625 
Q 51.609375 14.546875 45.953125 7.46875 
Q 39.0625 -1.21875 27.15625 -1.21875 
Q 17.390625 -1.21875 11.203125 4.25 
Q 5.03125 9.71875 4.15625 18.75 
z
" id="ArialMT-35"/>
      </defs>
      <g style="fill:#262626;" transform="translate(430.408594 290.877812)scale(0.1 -0.1)">
       <use xlink:href="#ArialMT-35"/>
       <use x="55.615234" xlink:href="#ArialMT-30"/>
       <use x="111.230469" xlink:href="#ArialMT-30"/>
      </g>
     </g>
    </g>
    <g id="xtick_7">
     <g id="line2d_7">
      <g>
       <use style="fill:#262626;stroke:#262626;" x="508.5" xlink:href="#m0bc0fd1a87" y="270.72"/>
      </g>
     </g>
     <g id="text_7">
      <!-- 600 -->
      <defs>
       <path d="M 49.75 54.046875 
L 41.015625 53.375 
Q 39.84375 58.546875 37.703125 60.890625 
Q 34.125 64.65625 28.90625 64.65625 
Q 24.703125 64.65625 21.53125 62.3125 
Q 17.390625 59.28125 14.984375 53.46875 
Q 12.59375 47.65625 12.5 36.921875 
Q 15.671875 41.75 20.265625 44.09375 
Q 24.859375 46.4375 29.890625 46.4375 
Q 38.671875 46.4375 44.84375 39.96875 
Q 51.03125 33.5 51.03125 23.25 
Q 51.03125 16.5 48.125 10.71875 
Q 45.21875 4.9375 40.140625 1.859375 
Q 35.0625 -1.21875 28.609375 -1.21875 
Q 17.625 -1.21875 10.6875 6.859375 
Q 3.765625 14.9375 3.765625 33.5 
Q 3.765625 54.25 11.421875 63.671875 
Q 18.109375 71.875 29.4375 71.875 
Q 37.890625 71.875 43.28125 67.140625 
Q 48.6875 62.40625 49.75 54.046875 
z
M 13.875 23.1875 
Q 13.875 18.65625 15.796875 14.5 
Q 17.71875 10.359375 21.1875 8.171875 
Q 24.65625 6 28.46875 6 
Q 34.03125 6 38.03125 10.484375 
Q 42.046875 14.984375 42.046875 22.703125 
Q 42.046875 30.125 38.078125 34.390625 
Q 34.125 38.671875 28.125 38.671875 
Q 22.171875 38.671875 18.015625 34.390625 
Q 13.875 30.125 13.875 23.1875 
z
" id="ArialMT-36"/>
      </defs>
      <g style="fill:#262626;" transform="translate(500.158594 290.877812)scale(0.1 -0.1)">
       <use xlink:href="#ArialMT-36"/>
       <use x="55.615234" xlink:href="#ArialMT-30"/>
       <use x="111.230469" xlink:href="#ArialMT-30"/>
      </g>
     </g>
    </g>
    <g id="xtick_8">
     <g id="line2d_8">
      <g>
       <use style="fill:#262626;stroke:#262626;" x="578.25" xlink:href="#m0bc0fd1a87" y="270.72"/>
      </g>
     </g>
     <g id="text_8">
      <!-- 700 -->
      <defs>
       <path d="M 4.734375 62.203125 
L 4.734375 70.65625 
L 51.078125 70.65625 
L 51.078125 63.8125 
Q 44.234375 56.546875 37.515625 44.484375 
Q 30.8125 32.421875 27.15625 19.671875 
Q 24.515625 10.6875 23.78125 0 
L 14.75 0 
Q 14.890625 8.453125 18.0625 20.40625 
Q 21.234375 32.375 27.171875 43.484375 
Q 33.109375 54.59375 39.796875 62.203125 
z
" id="ArialMT-37"/>
      </defs>
      <g style="fill:#262626;" transform="translate(569.908594 290.877812)scale(0.1 -0.1)">
       <use xlink:href="#ArialMT-37"/>
       <use x="55.615234" xlink:href="#ArialMT-30"/>
       <use x="111.230469" xlink:href="#ArialMT-30"/>
      </g>
     </g>
    </g>
    <g id="xtick_9">
     <g id="line2d_9">
      <g>
       <use style="fill:#262626;stroke:#262626;" x="648" xlink:href="#m0bc0fd1a87" y="270.72"/>
      </g>
     </g>
     <g id="text_9">
      <!-- 800 -->
      <defs>
       <path d="M 17.671875 38.8125 
Q 12.203125 40.828125 9.5625 44.53125 
Q 6.9375 48.25 6.9375 53.421875 
Q 6.9375 61.234375 12.546875 66.546875 
Q 18.171875 71.875 27.484375 71.875 
Q 36.859375 71.875 42.578125 66.421875 
Q 48.296875 60.984375 48.296875 53.171875 
Q 48.296875 48.1875 45.671875 44.5 
Q 43.0625 40.828125 37.75 38.8125 
Q 44.34375 36.671875 47.78125 31.875 
Q 51.21875 27.09375 51.21875 20.453125 
Q 51.21875 11.28125 44.71875 5.03125 
Q 38.234375 -1.21875 27.640625 -1.21875 
Q 17.046875 -1.21875 10.546875 5.046875 
Q 4.046875 11.328125 4.046875 20.703125 
Q 4.046875 27.6875 7.59375 32.390625 
Q 11.140625 37.109375 17.671875 38.8125 
z
M 15.921875 53.71875 
Q 15.921875 48.640625 19.1875 45.40625 
Q 22.46875 42.1875 27.6875 42.1875 
Q 32.765625 42.1875 36.015625 45.375 
Q 39.265625 48.578125 39.265625 53.21875 
Q 39.265625 58.0625 35.90625 61.359375 
Q 32.5625 64.65625 27.59375 64.65625 
Q 22.5625 64.65625 19.234375 61.421875 
Q 15.921875 58.203125 15.921875 53.71875 
z
M 13.09375 20.65625 
Q 13.09375 16.890625 14.875 13.375 
Q 16.65625 9.859375 20.171875 7.921875 
Q 23.6875 6 27.734375 6 
Q 34.03125 6 38.125 10.046875 
Q 42.234375 14.109375 42.234375 20.359375 
Q 42.234375 26.703125 38.015625 30.859375 
Q 33.796875 35.015625 27.4375 35.015625 
Q 21.234375 35.015625 17.15625 30.90625 
Q 13.09375 26.8125 13.09375 20.65625 
z
" id="ArialMT-38"/>
      </defs>
      <g style="fill:#262626;" transform="translate(639.658594 290.877812)scale(0.1 -0.1)">
       <use xlink:href="#ArialMT-38"/>
       <use x="55.615234" xlink:href="#ArialMT-30"/>
       <use x="111.230469" xlink:href="#ArialMT-30"/>
      </g>
     </g>
    </g>
   </g>
   <g id="matplotlib.axis_2">
    <g id="ytick_1">
     <g id="line2d_10">
      <defs>
       <path d="M 0 0 
L -6 0 
" id="m187735a240" style="stroke:#262626;"/>
      </defs>
      <g>
       <use style="fill:#262626;stroke:#262626;" x="90" xlink:href="#m187735a240" y="250.56"/>
      </g>
     </g>
     <g id="text_10">
      <!-- −0.04 -->
      <defs>
       <path d="M 52.828125 31.203125 
L 5.5625 31.203125 
L 5.5625 39.40625 
L 52.828125 39.40625 
z
" id="ArialMT-2212"/>
       <path d="M 9.078125 0 
L 9.078125 10.015625 
L 19.09375 10.015625 
L 19.09375 0 
z
" id="ArialMT-2e"/>
      </defs>
      <g style="fill:#262626;" transform="translate(51.698437 254.138906)scale(0.1 -0.1)">
       <use xlink:href="#ArialMT-2212"/>
       <use x="58.398438" xlink:href="#ArialMT-30"/>
       <use x="114.013672" xlink:href="#ArialMT-2e"/>
       <use x="141.796875" xlink:href="#ArialMT-30"/>
       <use x="197.412109" xlink:href="#ArialMT-34"/>
      </g>
     </g>
    </g>
    <g id="ytick_2">
     <g id="line2d_11">
      <g>
       <use style="fill:#262626;stroke:#262626;" x="90" xlink:href="#m187735a240" y="210.24"/>
      </g>
     </g>
     <g id="text_11">
      <!-- −0.02 -->
      <g style="fill:#262626;" transform="translate(51.698437 213.818906)scale(0.1 -0.1)">
       <use xlink:href="#ArialMT-2212"/>
       <use x="58.398438" xlink:href="#ArialMT-30"/>
       <use x="114.013672" xlink:href="#ArialMT-2e"/>
       <use x="141.796875" xlink:href="#ArialMT-30"/>
       <use x="197.412109" xlink:href="#ArialMT-32"/>
      </g>
     </g>
    </g>
    <g id="ytick_3">
     <g id="line2d_12">
      <g>
       <use style="fill:#262626;stroke:#262626;" x="90" xlink:href="#m187735a240" y="169.92"/>
      </g>
     </g>
     <g id="text_12">
      <!-- 0.00 -->
      <g style="fill:#262626;" transform="translate(57.539062 173.498906)scale(0.1 -0.1)">
       <use xlink:href="#ArialMT-30"/>
       <use x="55.615234" xlink:href="#ArialMT-2e"/>
       <use x="83.398438" xlink:href="#ArialMT-30"/>
       <use x="139.013672" xlink:href="#ArialMT-30"/>
      </g>
     </g>
    </g>
    <g id="ytick_4">
     <g id="line2d_13">
      <g>
       <use style="fill:#262626;stroke:#262626;" x="90" xlink:href="#m187735a240" y="129.6"/>
      </g>
     </g>
     <g id="text_13">
      <!-- 0.02 -->
      <g style="fill:#262626;" transform="translate(57.539062 133.178906)scale(0.1 -0.1)">
       <use xlink:href="#ArialMT-30"/>
       <use x="55.615234" xlink:href="#ArialMT-2e"/>
       <use x="83.398438" xlink:href="#ArialMT-30"/>
       <use x="139.013672" xlink:href="#ArialMT-32"/>
      </g>
     </g>
    </g>
    <g id="ytick_5">
     <g id="line2d_14">
      <g>
       <use style="fill:#262626;stroke:#262626;" x="90" xlink:href="#m187735a240" y="89.28"/>
      </g>
     </g>
     <g id="text_14">
      <!-- 0.04 -->
      <g style="fill:#262626;" transform="translate(57.539062 92.858906)scale(0.1 -0.1)">
       <use xlink:href="#ArialMT-30"/>
       <use x="55.615234" xlink:href="#ArialMT-2e"/>
       <use x="83.398438" xlink:href="#ArialMT-30"/>
       <use x="139.013672" xlink:href="#ArialMT-34"/>
      </g>
     </g>
    </g>
   </g>
   <g id="PolyCollection_1">
    <path clip-path="url(#paf6e96d2b1)" d="M 90 151.40122 
L 90 169.92 
L 90.6975 169.92 
L 91.395 169.92 
L 92.0925 169.92 
L 92.79 169.92 
L 93.4875 169.92 
L 94.185 169.92 
L 94.8825 169.92 
L 95.58 169.92 
L 96.2775 169.92 
L 96.975 169.92 
L 97.6725 169.92 
L 98.37 169.92 
L 99.0675 169.92 
L 99.765 169.92 
L 100.4625 169.92 
L 101.16 169.92 
L 101.8575 169.92 
L 102.555 169.92 
L 103.2525 169.92 
L 103.95 169.92 
L 104.6475 169.92 
L 105.345 169.92 
L 106.0425 169.92 
L 106.74 169.92 
L 107.4375 169.92 
L 108.135 169.92 
L 108.8325 169.92 
L 109.53 169.92 
L 110.2275 169.92 
L 110.925 169.92 
L 111.6225 169.92 
L 112.32 169.92 
L 113.0175 169.92 
L 113.715 169.92 
L 114.4125 169.92 
L 115.11 169.92 
L 115.8075 169.92 
L 116.505 169.92 
L 117.2025 169.92 
L 117.9 169.92 
L 118.5975 169.92 
L 119.295 169.92 
L 119.9925 169.92 
L 120.69 169.92 
L 121.3875 169.92 
L 122.085 169.92 
L 122.7825 169.92 
L 123.48 169.92 
L 124.1775 169.92 
L 124.875 169.92 
L 125.5725 169.92 
L 126.27 169.92 
L 126.9675 169.92 
L 127.665 169.92 
L 128.3625 169.92 
L 129.06 169.92 
L 129.7575 169.92 
L 130.455 169.92 
L 131.1525 169.92 
L 131.85 169.92 
L 132.5475 169.92 
L 133.245 169.92 
L 133.9425 169.92 
L 134.64 169.92 
L 135.3375 169.92 
L 136.035 169.92 
L 136.7325 169.92 
L 137.43 169.92 
L 138.1275 169.92 
L 138.825 169.92 
L 139.5225 169.92 
L 140.22 169.92 
L 140.9175 169.92 
L 141.615 169.92 
L 142.3125 169.92 
L 143.01 169.92 
L 143.7075 169.92 
L 144.405 169.92 
L 145.1025 169.92 
L 145.8 169.92 
L 146.4975 169.92 
L 147.195 169.92 
L 147.8925 169.92 
L 148.59 169.92 
L 149.2875 169.92 
L 149.985 169.92 
L 150.6825 169.92 
L 151.38 169.92 
L 152.0775 169.92 
L 152.775 169.92 
L 153.4725 169.92 
L 154.17 169.92 
L 154.8675 169.92 
L 155.565 169.92 
L 156.2625 169.92 
L 156.96 169.92 
L 157.6575 169.92 
L 158.355 169.92 
L 159.0525 169.92 
L 159.75 169.92 
L 160.4475 169.92 
L 161.145 169.92 
L 161.8425 169.92 
L 162.54 169.92 
L 163.2375 169.92 
L 163.935 169.92 
L 164.6325 169.92 
L 165.33 169.92 
L 166.0275 169.92 
L 166.725 169.92 
L 167.4225 169.92 
L 168.12 169.92 
L 168.8175 169.92 
L 169.515 169.92 
L 170.2125 169.92 
L 170.91 169.92 
L 171.6075 169.92 
L 172.305 169.92 
L 173.0025 169.92 
L 173.7 169.92 
L 174.3975 169.92 
L 175.095 169.92 
L 175.7925 169.92 
L 176.49 169.92 
L 177.1875 169.92 
L 177.885 169.92 
L 178.5825 169.92 
L 179.28 169.92 
L 179.9775 169.92 
L 180.675 169.92 
L 181.3725 169.92 
L 182.07 169.92 
L 182.7675 169.92 
L 183.465 169.92 
L 184.1625 169.92 
L 184.86 169.92 
L 185.5575 169.92 
L 186.255 169.92 
L 186.9525 169.92 
L 187.65 169.92 
L 188.3475 169.92 
L 189.045 169.92 
L 189.7425 169.92 
L 190.44 169.92 
L 191.1375 169.92 
L 191.835 169.92 
L 192.5325 169.92 
L 193.23 169.92 
L 193.9275 169.92 
L 194.625 169.92 
L 195.3225 169.92 
L 196.02 169.92 
L 196.7175 169.92 
L 197.415 169.92 
L 198.1125 169.92 
L 198.81 169.92 
L 199.5075 169.92 
L 200.205 169.92 
L 200.9025 169.92 
L 201.6 169.92 
L 202.2975 169.92 
L 202.995 169.92 
L 203.6925 169.92 
L 204.39 169.92 
L 205.0875 169.92 
L 205.785 169.92 
L 206.4825 169.92 
L 207.18 169.92 
L 207.8775 169.92 
L 208.575 169.92 
L 209.2725 169.92 
L 209.97 169.92 
L 210.6675 169.92 
L 211.365 169.92 
L 212.0625 169.92 
L 212.76 169.92 
L 213.4575 169.92 
L 214.155 169.92 
L 214.8525 169.92 
L 215.55 169.92 
L 216.2475 169.92 
L 216.945 169.92 
L 217.6425 169.92 
L 218.34 169.92 
L 219.0375 169.92 
L 219.735 169.92 
L 220.4325 169.92 
L 221.13 169.92 
L 221.8275 169.92 
L 222.525 169.92 
L 223.2225 169.92 
L 223.92 169.92 
L 224.6175 169.92 
L 225.315 169.92 
L 226.0125 169.92 
L 226.71 169.92 
L 227.4075 169.92 
L 228.105 169.92 
L 228.8025 169.92 
L 229.5 169.92 
L 230.1975 169.92 
L 230.895 169.92 
L 231.5925 169.92 
L 232.29 169.92 
L 232.9875 169.92 
L 233.685 169.92 
L 234.3825 169.92 
L 235.08 169.92 
L 235.7775 169.92 
L 236.475 169.92 
L 237.1725 169.92 
L 237.87 169.92 
L 238.5675 169.92 
L 239.265 169.92 
L 239.9625 169.92 
L 240.66 169.92 
L 241.3575 169.92 
L 242.055 169.92 
L 242.7525 169.92 
L 243.45 169.92 
L 244.1475 169.92 
L 244.845 169.92 
L 245.5425 169.92 
L 246.24 169.92 
L 246.9375 169.92 
L 247.635 169.92 
L 248.3325 169.92 
L 249.03 169.92 
L 249.7275 169.92 
L 250.425 169.92 
L 251.1225 169.92 
L 251.82 169.92 
L 252.5175 169.92 
L 253.215 169.92 
L 253.9125 169.92 
L 254.61 169.92 
L 255.3075 169.92 
L 256.005 169.92 
L 256.7025 169.92 
L 257.4 169.92 
L 258.0975 169.92 
L 258.795 169.92 
L 259.4925 169.92 
L 260.19 169.92 
L 260.8875 169.92 
L 261.585 169.92 
L 262.2825 169.92 
L 262.98 169.92 
L 263.6775 169.92 
L 264.375 169.92 
L 265.0725 169.92 
L 265.77 169.92 
L 266.4675 169.92 
L 267.165 169.92 
L 267.8625 169.92 
L 268.56 169.92 
L 269.2575 169.92 
L 269.955 169.92 
L 270.6525 169.92 
L 271.35 169.92 
L 272.0475 169.92 
L 272.745 169.92 
L 273.4425 169.92 
L 274.14 169.92 
L 274.8375 169.92 
L 275.535 169.92 
L 276.2325 169.92 
L 276.93 169.92 
L 277.6275 169.92 
L 278.325 169.92 
L 279.0225 169.92 
L 279.72 169.92 
L 280.4175 169.92 
L 281.115 169.92 
L 281.8125 169.92 
L 282.51 169.92 
L 283.2075 169.92 
L 283.905 169.92 
L 284.6025 169.92 
L 285.3 169.92 
L 285.9975 169.92 
L 286.695 169.92 
L 287.3925 169.92 
L 288.09 169.92 
L 288.7875 169.92 
L 289.485 169.92 
L 290.1825 169.92 
L 290.88 169.92 
L 291.5775 169.92 
L 292.275 169.92 
L 292.9725 169.92 
L 293.67 169.92 
L 294.3675 169.92 
L 295.065 169.92 
L 295.7625 169.92 
L 296.46 169.92 
L 297.1575 169.92 
L 297.855 169.92 
L 298.5525 169.92 
L 299.25 169.92 
L 299.9475 169.92 
L 300.645 169.92 
L 301.3425 169.92 
L 302.04 169.92 
L 302.7375 169.92 
L 303.435 169.92 
L 304.1325 169.92 
L 304.83 169.92 
L 305.5275 169.92 
L 306.225 169.92 
L 306.9225 169.92 
L 307.62 169.92 
L 308.3175 169.92 
L 309.015 169.92 
L 309.7125 169.92 
L 310.41 169.92 
L 311.1075 169.92 
L 311.805 169.92 
L 312.5025 169.92 
L 313.2 169.92 
L 313.8975 169.92 
L 314.595 169.92 
L 315.2925 169.92 
L 315.99 169.92 
L 316.6875 169.92 
L 317.385 169.92 
L 318.0825 169.92 
L 318.78 169.92 
L 319.4775 169.92 
L 320.175 169.92 
L 320.8725 169.92 
L 321.57 169.92 
L 322.2675 169.92 
L 322.965 169.92 
L 323.6625 169.92 
L 324.36 169.92 
L 325.0575 169.92 
L 325.755 169.92 
L 326.4525 169.92 
L 327.15 169.92 
L 327.8475 169.92 
L 328.545 169.92 
L 329.2425 169.92 
L 329.94 169.92 
L 330.6375 169.92 
L 331.335 169.92 
L 332.0325 169.92 
L 332.73 169.92 
L 333.4275 169.92 
L 334.125 169.92 
L 334.8225 169.92 
L 335.52 169.92 
L 336.2175 169.92 
L 336.915 169.92 
L 337.6125 169.92 
L 338.31 169.92 
L 339.0075 169.92 
L 339.705 169.92 
L 340.4025 169.92 
L 341.1 169.92 
L 341.7975 169.92 
L 342.495 169.92 
L 343.1925 169.92 
L 343.89 169.92 
L 344.5875 169.92 
L 345.285 169.92 
L 345.9825 169.92 
L 346.68 169.92 
L 347.3775 169.92 
L 348.075 169.92 
L 348.7725 169.92 
L 349.47 169.92 
L 350.1675 169.92 
L 350.865 169.92 
L 351.5625 169.92 
L 352.26 169.92 
L 352.9575 169.92 
L 353.655 169.92 
L 354.3525 169.92 
L 355.05 169.92 
L 355.7475 169.92 
L 356.445 169.92 
L 357.1425 169.92 
L 357.84 169.92 
L 358.5375 169.92 
L 359.235 169.92 
L 359.9325 169.92 
L 360.63 169.92 
L 361.3275 169.92 
L 362.025 169.92 
L 362.7225 169.92 
L 363.42 169.92 
L 364.1175 169.92 
L 364.815 169.92 
L 365.5125 169.92 
L 366.21 169.92 
L 366.9075 169.92 
L 367.605 169.92 
L 368.3025 169.92 
L 369 169.92 
L 369.6975 169.92 
L 370.395 169.92 
L 371.0925 169.92 
L 371.79 169.92 
L 372.4875 169.92 
L 373.185 169.92 
L 373.8825 169.92 
L 374.58 169.92 
L 375.2775 169.92 
L 375.975 169.92 
L 376.6725 169.92 
L 377.37 169.92 
L 378.0675 169.92 
L 378.765 169.92 
L 379.4625 169.92 
L 380.16 169.92 
L 380.8575 169.92 
L 381.555 169.92 
L 382.2525 169.92 
L 382.95 169.92 
L 383.6475 169.92 
L 384.345 169.92 
L 385.0425 169.92 
L 385.74 169.92 
L 386.4375 169.92 
L 387.135 169.92 
L 387.8325 169.92 
L 388.53 169.92 
L 389.2275 169.92 
L 389.925 169.92 
L 390.6225 169.92 
L 391.32 169.92 
L 392.0175 169.92 
L 392.715 169.92 
L 393.4125 169.92 
L 394.11 169.92 
L 394.8075 169.92 
L 395.505 169.92 
L 396.2025 169.92 
L 396.9 169.92 
L 397.5975 169.92 
L 398.295 169.92 
L 398.9925 169.92 
L 399.69 169.92 
L 400.3875 169.92 
L 401.085 169.92 
L 401.7825 169.92 
L 402.48 169.92 
L 403.1775 169.92 
L 403.875 169.92 
L 404.5725 169.92 
L 405.27 169.92 
L 405.9675 169.92 
L 406.665 169.92 
L 407.3625 169.92 
L 408.06 169.92 
L 408.7575 169.92 
L 409.455 169.92 
L 410.1525 169.92 
L 410.85 169.92 
L 411.5475 169.92 
L 412.245 169.92 
L 412.9425 169.92 
L 413.64 169.92 
L 414.3375 169.92 
L 415.035 169.92 
L 415.7325 169.92 
L 416.43 169.92 
L 417.1275 169.92 
L 417.825 169.92 
L 418.5225 169.92 
L 419.22 169.92 
L 419.9175 169.92 
L 420.615 169.92 
L 421.3125 169.92 
L 422.01 169.92 
L 422.7075 169.92 
L 423.405 169.92 
L 424.1025 169.92 
L 424.8 169.92 
L 425.4975 169.92 
L 426.195 169.92 
L 426.8925 169.92 
L 427.59 169.92 
L 428.2875 169.92 
L 428.985 169.92 
L 429.6825 169.92 
L 430.38 169.92 
L 431.0775 169.92 
L 431.775 169.92 
L 432.4725 169.92 
L 433.17 169.92 
L 433.8675 169.92 
L 434.565 169.92 
L 435.2625 169.92 
L 435.96 169.92 
L 436.6575 169.92 
L 437.355 169.92 
L 438.0525 169.92 
L 438.75 169.92 
L 439.4475 169.92 
L 440.145 169.92 
L 440.8425 169.92 
L 441.54 169.92 
L 442.2375 169.92 
L 442.935 169.92 
L 443.6325 169.92 
L 444.33 169.92 
L 445.0275 169.92 
L 445.725 169.92 
L 446.4225 169.92 
L 447.12 169.92 
L 447.8175 169.92 
L 448.515 169.92 
L 449.2125 169.92 
L 449.91 169.92 
L 450.6075 169.92 
L 451.305 169.92 
L 452.0025 169.92 
L 452.7 169.92 
L 453.3975 169.92 
L 454.095 169.92 
L 454.7925 169.92 
L 455.49 169.92 
L 456.1875 169.92 
L 456.885 169.92 
L 457.5825 169.92 
L 458.28 169.92 
L 458.9775 169.92 
L 459.675 169.92 
L 460.3725 169.92 
L 461.07 169.92 
L 461.7675 169.92 
L 462.465 169.92 
L 463.1625 169.92 
L 463.86 169.92 
L 464.5575 169.92 
L 465.255 169.92 
L 465.9525 169.92 
L 466.65 169.92 
L 467.3475 169.92 
L 468.045 169.92 
L 468.7425 169.92 
L 469.44 169.92 
L 470.1375 169.92 
L 470.835 169.92 
L 471.5325 169.92 
L 472.23 169.92 
L 472.9275 169.92 
L 473.625 169.92 
L 474.3225 169.92 
L 475.02 169.92 
L 475.7175 169.92 
L 476.415 169.92 
L 477.1125 169.92 
L 477.81 169.92 
L 478.5075 169.92 
L 479.205 169.92 
L 479.9025 169.92 
L 480.6 169.92 
L 481.2975 169.92 
L 481.995 169.92 
L 482.6925 169.92 
L 483.39 169.92 
L 484.0875 169.92 
L 484.785 169.92 
L 485.4825 169.92 
L 486.18 169.92 
L 486.8775 169.92 
L 487.575 169.92 
L 488.2725 169.92 
L 488.97 169.92 
L 489.6675 169.92 
L 490.365 169.92 
L 491.0625 169.92 
L 491.76 169.92 
L 492.4575 169.92 
L 493.155 169.92 
L 493.8525 169.92 
L 494.55 169.92 
L 495.2475 169.92 
L 495.945 169.92 
L 496.6425 169.92 
L 497.34 169.92 
L 498.0375 169.92 
L 498.735 169.92 
L 499.4325 169.92 
L 500.13 169.92 
L 500.8275 169.92 
L 501.525 169.92 
L 502.2225 169.92 
L 502.92 169.92 
L 503.6175 169.92 
L 504.315 169.92 
L 505.0125 169.92 
L 505.71 169.92 
L 506.4075 169.92 
L 507.105 169.92 
L 507.8025 169.92 
L 508.5 169.92 
L 509.1975 169.92 
L 509.895 169.92 
L 510.5925 169.92 
L 511.29 169.92 
L 511.9875 169.92 
L 512.685 169.92 
L 513.3825 169.92 
L 514.08 169.92 
L 514.7775 169.92 
L 515.475 169.92 
L 516.1725 169.92 
L 516.87 169.92 
L 517.5675 169.92 
L 518.265 169.92 
L 518.9625 169.92 
L 519.66 169.92 
L 520.3575 169.92 
L 521.055 169.92 
L 521.7525 169.92 
L 522.45 169.92 
L 523.1475 169.92 
L 523.845 169.92 
L 524.5425 169.92 
L 525.24 169.92 
L 525.9375 169.92 
L 526.635 169.92 
L 527.3325 169.92 
L 528.03 169.92 
L 528.7275 169.92 
L 529.425 169.92 
L 530.1225 169.92 
L 530.82 169.92 
L 531.5175 169.92 
L 532.215 169.92 
L 532.9125 169.92 
L 533.61 169.92 
L 534.3075 169.92 
L 535.005 169.92 
L 535.7025 169.92 
L 536.4 169.92 
L 537.0975 169.92 
L 537.795 169.92 
L 538.4925 169.92 
L 539.19 169.92 
L 539.8875 169.92 
L 540.585 169.92 
L 541.2825 169.92 
L 541.98 169.92 
L 542.6775 169.92 
L 543.375 169.92 
L 544.0725 169.92 
L 544.77 169.92 
L 545.4675 169.92 
L 546.165 169.92 
L 546.8625 169.92 
L 547.56 169.92 
L 548.2575 169.92 
L 548.955 169.92 
L 549.6525 169.92 
L 550.35 169.92 
L 551.0475 169.92 
L 551.745 169.92 
L 552.4425 169.92 
L 553.14 169.92 
L 553.8375 169.92 
L 554.535 169.92 
L 555.2325 169.92 
L 555.93 169.92 
L 556.6275 169.92 
L 557.325 169.92 
L 558.0225 169.92 
L 558.72 169.92 
L 559.4175 169.92 
L 560.115 169.92 
L 560.8125 169.92 
L 561.51 169.92 
L 562.2075 169.92 
L 562.905 169.92 
L 563.6025 169.92 
L 564.3 169.92 
L 564.9975 169.92 
L 565.695 169.92 
L 566.3925 169.92 
L 567.09 169.92 
L 567.7875 169.92 
L 568.485 169.92 
L 569.1825 169.92 
L 569.88 169.92 
L 570.5775 169.92 
L 571.275 169.92 
L 571.9725 169.92 
L 572.67 169.92 
L 573.3675 169.92 
L 574.065 169.92 
L 574.7625 169.92 
L 575.46 169.92 
L 576.1575 169.92 
L 576.855 169.92 
L 577.5525 169.92 
L 578.25 169.92 
L 578.9475 169.92 
L 579.645 169.92 
L 580.3425 169.92 
L 581.04 169.92 
L 581.7375 169.92 
L 582.435 169.92 
L 583.1325 169.92 
L 583.83 169.92 
L 584.5275 169.92 
L 585.225 169.92 
L 585.9225 169.92 
L 586.62 169.92 
L 587.3175 169.92 
L 588.015 169.92 
L 588.7125 169.92 
L 589.41 169.92 
L 590.1075 169.92 
L 590.805 169.92 
L 591.5025 169.92 
L 592.2 169.92 
L 592.8975 169.92 
L 593.595 169.92 
L 594.2925 169.92 
L 594.99 169.92 
L 595.6875 169.92 
L 596.385 169.92 
L 597.0825 169.92 
L 597.78 169.92 
L 598.4775 169.92 
L 599.175 169.92 
L 599.8725 169.92 
L 600.57 169.92 
L 601.2675 169.92 
L 601.965 169.92 
L 602.6625 169.92 
L 603.36 169.92 
L 604.0575 169.92 
L 604.755 169.92 
L 605.4525 169.92 
L 606.15 169.92 
L 606.8475 169.92 
L 607.545 169.92 
L 608.2425 169.92 
L 608.94 169.92 
L 609.6375 169.92 
L 610.335 169.92 
L 611.0325 169.92 
L 611.73 169.92 
L 612.4275 169.92 
L 613.125 169.92 
L 613.8225 169.92 
L 614.52 169.92 
L 615.2175 169.92 
L 615.915 169.92 
L 616.6125 169.92 
L 617.31 169.92 
L 618.0075 169.92 
L 618.705 169.92 
L 619.4025 169.92 
L 620.1 169.92 
L 620.7975 169.92 
L 621.495 169.92 
L 622.1925 169.92 
L 622.89 169.92 
L 623.5875 169.92 
L 624.285 169.92 
L 624.9825 169.92 
L 625.68 169.92 
L 626.3775 169.92 
L 627.075 169.92 
L 627.7725 169.92 
L 628.47 169.92 
L 629.1675 169.92 
L 629.865 169.92 
L 630.5625 169.92 
L 631.26 169.92 
L 631.9575 169.92 
L 632.655 169.92 
L 633.3525 169.92 
L 634.05 169.92 
L 634.7475 169.92 
L 635.445 169.92 
L 636.1425 169.92 
L 636.84 169.92 
L 637.5375 169.92 
L 638.235 169.92 
L 638.9325 169.92 
L 639.63 169.92 
L 640.3275 169.92 
L 641.025 169.92 
L 641.7225 169.92 
L 642.42 169.92 
L 643.1175 169.92 
L 643.815 169.92 
L 644.5125 169.92 
L 645.21 169.92 
L 645.9075 169.92 
L 646.605 169.92 
L 646.605 169.92 
L 646.605 169.92 
L 645.9075 169.923944 
L 645.21 169.934463 
L 644.5125 169.948049 
L 643.815 169.965139 
L 643.1175 169.98661 
L 642.42 170.010707 
L 641.7225 170.036991 
L 641.025 170.068528 
L 640.3275 170.103564 
L 639.63 170.141659 
L 638.9325 170.185002 
L 638.235 170.230961 
L 637.5375 170.281287 
L 636.84 170.3351 
L 636.1425 170.392838 
L 635.445 170.454495 
L 634.7475 170.519632 
L 634.05 170.587368 
L 633.3525 170.657262 
L 632.655 170.731939 
L 631.9575 170.809643 
L 631.26 170.891246 
L 630.5625 170.977182 
L 629.865 171.067887 
L 629.1675 171.160724 
L 628.47 171.257881 
L 627.7725 171.358914 
L 627.075 171.465134 
L 626.3775 171.573905 
L 625.68 171.686975 
L 624.9825 171.803462 
L 624.285 171.922483 
L 623.5875 172.047099 
L 622.89 172.174676 
L 622.1925 172.306521 
L 621.495 172.442189 
L 620.7975 172.580797 
L 620.1 172.721024 
L 619.4025 172.865929 
L 618.705 173.013314 
L 618.0075 173.164049 
L 617.31 173.31681 
L 616.6125 173.471152 
L 615.915 173.629258 
L 615.2175 173.78893 
L 614.52 173.950596 
L 613.8225 174.115564 
L 613.125 174.282948 
L 612.4275 174.451865 
L 611.73 174.622743 
L 611.0325 174.797764 
L 610.335 174.975607 
L 609.6375 175.154945 
L 608.94 175.337087 
L 608.2425 175.521144 
L 607.545 175.706232 
L 606.8475 175.894533 
L 606.15 176.085598 
L 605.4525 176.278542 
L 604.755 176.470287 
L 604.0575 176.664767 
L 603.36 176.858467 
L 602.6625 177.053567 
L 601.965 177.248306 
L 601.2675 177.443549 
L 600.57 177.638849 
L 599.8725 177.833757 
L 599.175 178.02914 
L 598.4775 178.222359 
L 597.78 178.416909 
L 597.0825 178.609274 
L 596.385 178.801199 
L 595.6875 178.991797 
L 594.99 179.181058 
L 594.2925 179.370287 
L 593.595 179.557283 
L 592.8975 179.743352 
L 592.2 179.927169 
L 591.5025 180.10741 
L 590.805 180.286697 
L 590.1075 180.46458 
L 589.41 180.640176 
L 588.7125 180.812597 
L 588.015 180.98359 
L 587.3175 181.153582 
L 586.62 181.320813 
L 585.9225 181.485275 
L 585.225 181.645643 
L 584.5275 181.802786 
L 583.83 181.957573 
L 583.1325 182.110873 
L 582.435 182.262239 
L 581.7375 182.410788 
L 581.04 182.556511 
L 580.3425 182.699402 
L 579.645 182.838138 
L 578.9475 182.974027 
L 578.25 183.105747 
L 577.5525 183.233292 
L 576.855 183.358846 
L 576.1575 183.479774 
L 575.46 183.599137 
L 574.7625 183.712985 
L 574.065 183.822189 
L 573.3675 183.927619 
L 572.67 184.027955 
L 571.9725 184.126261 
L 571.275 184.22034 
L 570.5775 184.309748 
L 569.88 184.394043 
L 569.1825 184.475413 
L 568.485 184.551222 
L 567.7875 184.621469 
L 567.09 184.688777 
L 566.3925 184.751392 
L 565.695 184.80931 
L 564.9975 184.863404 
L 564.3 184.914986 
L 563.6025 184.962302 
L 562.905 185.004471 
L 562.2075 185.044121 
L 561.51 185.079498 
L 560.8125 185.111476 
L 560.115 185.140492 
L 559.4175 185.166105 
L 558.72 185.189192 
L 558.0225 185.207998 
L 557.325 185.224713 
L 556.6275 185.236706 
L 555.93 185.246608 
L 555.2325 185.251787 
L 554.535 185.253997 
L 553.8375 185.253676 
L 553.14 185.24907 
L 552.4425 185.243248 
L 551.745 185.232704 
L 551.0475 185.220507 
L 550.35 185.204465 
L 549.6525 185.187208 
L 548.955 185.166548 
L 548.2575 185.141608 
L 547.56 185.11458 
L 546.8625 185.085466 
L 546.165 185.05383 
L 545.4675 185.018796 
L 544.77 184.981242 
L 544.0725 184.940733 
L 543.375 184.897709 
L 542.6775 184.851733 
L 541.98 184.804999 
L 541.2825 184.754442 
L 540.585 184.701817 
L 539.8875 184.647128 
L 539.19 184.589937 
L 538.4925 184.532003 
L 537.795 184.47245 
L 537.0975 184.411721 
L 536.4 184.349817 
L 535.7025 184.287182 
L 535.005 184.222502 
L 534.3075 184.157974 
L 533.61 184.090969 
L 532.9125 184.024122 
L 532.215 183.955245 
L 531.5175 183.886532 
L 530.82 183.817548 
L 530.1225 183.747859 
L 529.425 183.679221 
L 528.7275 183.609009 
L 528.03 183.538978 
L 527.3325 183.468694 
L 526.635 183.397723 
L 525.9375 183.32563 
L 525.24 183.253295 
L 524.5425 183.180283 
L 523.845 183.107036 
L 523.1475 183.033997 
L 522.45 182.959415 
L 521.7525 182.884172 
L 521.055 182.807395 
L 520.3575 182.729963 
L 519.66 182.65232 
L 518.9625 182.57403 
L 518.265 182.49466 
L 517.5675 182.415967 
L 516.87 182.337078 
L 516.1725 182.25712 
L 515.475 182.177852 
L 514.7775 182.098837 
L 514.08 182.020081 
L 513.3825 181.941588 
L 512.685 181.862485 
L 511.9875 181.782337 
L 511.29 181.701587 
L 510.5925 181.621116 
L 509.895 181.541804 
L 509.1975 181.462341 
L 508.5 181.384045 
L 507.8025 181.304729 
L 507.105 181.227465 
L 506.4075 181.150503 
L 505.71 181.074287 
L 505.0125 180.997504 
L 504.315 180.921913 
L 503.6175 180.847516 
L 502.92 180.773003 
L 502.2225 180.701007 
L 501.525 180.629341 
L 500.8275 180.558884 
L 500.13 180.488325 
L 499.4325 180.418107 
L 498.735 180.349547 
L 498.0375 180.282211 
L 497.34 180.216103 
L 496.6425 180.150787 
L 495.945 180.087143 
L 495.2475 180.025174 
L 494.55 179.96576 
L 493.8525 179.906275 
L 493.155 179.848913 
L 492.4575 179.791047 
L 491.76 179.73531 
L 491.0625 179.680389 
L 490.365 179.626288 
L 489.6675 179.572571 
L 488.97 179.520117 
L 488.2725 179.468052 
L 487.575 179.416818 
L 486.8775 179.36817 
L 486.18 179.321234 
L 485.4825 179.275135 
L 484.785 179.229877 
L 484.0875 179.186775 
L 483.39 179.144957 
L 482.6925 179.103547 
L 481.995 179.062547 
L 481.2975 179.022837 
L 480.6 178.983541 
L 479.9025 178.9451 
L 479.205 178.907077 
L 478.5075 178.870352 
L 477.81 178.833611 
L 477.1125 178.797732 
L 476.415 178.761841 
L 475.7175 178.727692 
L 475.02 178.693097 
L 474.3225 178.658494 
L 473.625 178.623887 
L 472.9275 178.588838 
L 472.23 178.553348 
L 471.5325 178.517421 
L 470.835 178.483249 
L 470.1375 178.448642 
L 469.44 178.414041 
L 468.7425 178.380323 
L 468.045 178.347053 
L 467.3475 178.313355 
L 466.65 178.280107 
L 465.9525 178.248189 
L 465.255 178.217601 
L 464.5575 178.18703 
L 463.86 178.156478 
L 463.1625 178.127261 
L 462.465 178.097627 
L 461.7675 178.070646 
L 461.07 178.043252 
L 460.3725 178.015884 
L 459.675 177.988543 
L 458.9775 177.960793 
L 458.28 177.931758 
L 457.5825 177.90407 
L 456.885 177.876853 
L 456.1875 177.848794 
L 455.49 177.820332 
L 454.7925 177.793661 
L 454.095 177.766591 
L 453.3975 177.739999 
L 452.7 177.713886 
L 452.0025 177.688693 
L 451.305 177.663982 
L 450.6075 177.639755 
L 449.91 177.616451 
L 449.2125 177.593632 
L 448.515 177.571739 
L 447.8175 177.550335 
L 447.12 177.528543 
L 446.4225 177.507242 
L 445.725 177.48687 
L 445.0275 177.466991 
L 444.33 177.44892 
L 443.6325 177.430906 
L 442.935 177.412948 
L 442.2375 177.394611 
L 441.54 177.377647 
L 440.8425 177.360743 
L 440.145 177.345214 
L 439.4475 177.329747 
L 438.75 177.316095 
L 438.0525 177.302068 
L 437.355 177.288543 
L 436.6575 177.275521 
L 435.96 177.262125 
L 435.2625 177.249233 
L 434.565 177.236408 
L 433.8675 177.224087 
L 433.17 177.211396 
L 432.4725 177.199212 
L 431.775 177.186658 
L 431.0775 177.173736 
L 430.38 177.160445 
L 429.6825 177.147225 
L 428.985 177.133638 
L 428.2875 177.119686 
L 427.59 177.104929 
L 426.8925 177.089808 
L 426.195 177.074762 
L 425.4975 177.059352 
L 424.8 177.04358 
L 424.1025 177.027885 
L 423.405 177.011391 
L 422.7075 176.995852 
L 422.01 176.979077 
L 421.3125 176.961944 
L 420.615 176.944453 
L 419.9175 176.926168 
L 419.22 176.907089 
L 418.5225 176.887217 
L 417.825 176.86743 
L 417.1275 176.846852 
L 416.43 176.825922 
L 415.7325 176.804204 
L 415.035 176.780822 
L 414.3375 176.757529 
L 413.64 176.73389 
L 412.9425 176.709028 
L 412.245 176.684698 
L 411.5475 176.659587 
L 410.85 176.632819 
L 410.1525 176.605272 
L 409.455 176.576947 
L 408.7575 176.547846 
L 408.06 176.517533 
L 407.3625 176.48557 
L 406.665 176.453273 
L 405.9675 176.418454 
L 405.27 176.382428 
L 404.5725 176.344321 
L 403.875 176.30545 
L 403.1775 176.265378 
L 402.48 176.223232 
L 401.7825 176.180327 
L 401.085 176.134913 
L 400.3875 176.087868 
L 399.69 176.039634 
L 398.9925 175.988899 
L 398.295 175.936102 
L 397.5975 175.882561 
L 396.9 175.827403 
L 396.2025 175.771069 
L 395.505 175.712685 
L 394.8075 175.652692 
L 394.11 175.591093 
L 393.4125 175.526139 
L 392.715 175.459585 
L 392.0175 175.391435 
L 391.32 175.320816 
L 390.6225 175.249485 
L 389.925 175.174815 
L 389.2275 175.098126 
L 388.53 175.020735 
L 387.8325 174.941333 
L 387.135 174.859922 
L 386.4375 174.777823 
L 385.74 174.693286 
L 385.0425 174.606315 
L 384.345 174.517791 
L 383.6475 174.42772 
L 382.95 174.335228 
L 382.2525 174.239882 
L 381.555 174.142126 
L 380.8575 174.042403 
L 380.16 173.940279 
L 379.4625 173.835759 
L 378.765 173.728411 
L 378.0675 173.617802 
L 377.37 173.505252 
L 376.6725 173.389453 
L 375.975 173.271285 
L 375.2775 173.151195 
L 374.58 173.028311 
L 373.8825 172.903078 
L 373.185 172.775064 
L 372.4875 172.644713 
L 371.79 172.512033 
L 371.0925 172.376592 
L 370.395 172.238396 
L 369.6975 172.097453 
L 369 171.955085 
L 368.3025 171.809107 
L 367.605 171.662157 
L 366.9075 171.512489 
L 366.21 171.36011 
L 365.5125 171.205467 
L 364.815 171.048567 
L 364.1175 170.888542 
L 363.42 170.726277 
L 362.7225 170.561779 
L 362.025 170.395057 
L 361.3275 170.22612 
L 360.63 170.055852 
L 359.9325 169.882948 
L 359.235 169.707854 
L 358.5375 169.531018 
L 357.84 169.350696 
L 357.1425 169.168649 
L 356.445 168.983572 
L 355.7475 168.796352 
L 355.05 168.606559 
L 354.3525 168.413326 
L 353.655 168.217541 
L 352.9575 168.018773 
L 352.26 167.817911 
L 351.5625 167.615402 
L 350.865 167.409943 
L 350.1675 167.201981 
L 349.47 166.991527 
L 348.7725 166.778592 
L 348.075 166.563626 
L 347.3775 166.346638 
L 346.68 166.128079 
L 345.9825 165.90752 
L 345.285 165.684536 
L 344.5875 165.459575 
L 343.89 165.233087 
L 343.1925 165.004208 
L 342.495 164.773386 
L 341.7975 164.540635 
L 341.1 164.305527 
L 340.4025 164.06895 
L 339.705 163.830918 
L 339.0075 163.591003 
L 338.31 163.349656 
L 337.6125 163.106451 
L 336.915 162.862277 
L 336.2175 162.617146 
L 335.52 162.370195 
L 334.8225 162.121436 
L 334.125 161.87088 
L 333.4275 161.618981 
L 332.73 161.365311 
L 332.0325 161.109445 
L 331.335 160.852274 
L 330.6375 160.593371 
L 329.94 160.331874 
L 329.2425 160.068672 
L 328.545 159.805093 
L 327.8475 159.53896 
L 327.15 159.272038 
L 326.4525 159.003466 
L 325.755 158.732818 
L 325.0575 158.460546 
L 324.36 158.186665 
L 323.6625 157.911187 
L 322.965 157.634128 
L 322.2675 157.355501 
L 321.57 157.075758 
L 320.8725 156.795352 
L 320.175 156.513421 
L 319.4775 156.230417 
L 318.78 155.946355 
L 318.0825 155.660811 
L 317.385 155.374237 
L 316.6875 155.087086 
L 315.99 154.798935 
L 315.2925 154.510237 
L 314.595 154.221005 
L 313.8975 153.932132 
L 313.2 153.642318 
L 312.5025 153.351138 
L 311.805 153.058607 
L 311.1075 152.764741 
L 310.41 152.469993 
L 309.7125 152.174815 
L 309.015 151.878784 
L 308.3175 151.582354 
L 307.62 151.284664 
L 306.9225 150.986604 
L 306.225 150.687752 
L 305.5275 150.389438 
L 304.83 150.091677 
L 304.1325 149.793607 
L 303.435 149.495682 
L 302.7375 149.198355 
L 302.04 148.900765 
L 301.3425 148.603365 
L 300.645 148.30617 
L 299.9475 148.009196 
L 299.25 147.712457 
L 298.5525 147.415968 
L 297.855 147.119745 
L 297.1575 146.824679 
L 296.46 146.530346 
L 295.7625 146.236763 
L 295.065 145.943505 
L 294.3675 145.651025 
L 293.67 145.359338 
L 292.9725 145.06846 
L 292.275 144.778843 
L 291.5775 144.489625 
L 290.88 144.201698 
L 290.1825 143.914199 
L 289.485 143.62802 
L 288.7875 143.342737 
L 288.09 143.058365 
L 287.3925 142.775355 
L 286.695 142.493285 
L 285.9975 142.212607 
L 285.3 141.932459 
L 284.6025 141.654169 
L 283.905 141.377313 
L 283.2075 141.101906 
L 282.51 140.827961 
L 281.8125 140.555493 
L 281.115 140.284515 
L 280.4175 140.015041 
L 279.72 139.747523 
L 279.0225 139.481536 
L 278.325 139.217093 
L 277.6275 138.954648 
L 276.93 138.694211 
L 276.2325 138.43536 
L 275.535 138.178544 
L 274.8375 137.923778 
L 274.14 137.671512 
L 273.4425 137.421321 
L 272.745 137.172779 
L 272.0475 136.926775 
L 271.35 136.682446 
L 270.6525 136.440242 
L 269.955 136.200175 
L 269.2575 135.961819 
L 268.56 135.726063 
L 267.8625 135.492919 
L 267.165 135.262837 
L 266.4675 135.034952 
L 265.77 134.809714 
L 265.0725 134.587134 
L 264.375 134.366786 
L 263.6775 134.149557 
L 262.98 133.934581 
L 262.2825 133.721432 
L 261.585 133.510996 
L 260.8875 133.302846 
L 260.19 133.09743 
L 259.4925 132.89476 
L 258.795 132.694846 
L 258.0975 132.497697 
L 257.4 132.303324 
L 256.7025 132.111737 
L 256.005 131.922944 
L 255.3075 131.737395 
L 254.61 131.554222 
L 253.9125 131.373872 
L 253.215 131.195917 
L 252.5175 131.020803 
L 251.82 130.848102 
L 251.1225 130.677822 
L 250.425 130.51041 
L 249.7275 130.345875 
L 249.03 130.184224 
L 248.3325 130.025466 
L 247.635 129.86961 
L 246.9375 129.716663 
L 246.24 129.565755 
L 245.5425 129.417773 
L 244.845 129.272284 
L 244.1475 129.130172 
L 243.45 128.990569 
L 242.7525 128.85392 
L 242.055 128.719793 
L 241.3575 128.587756 
L 240.66 128.458694 
L 239.9625 128.332174 
L 239.265 128.208203 
L 238.5675 128.086349 
L 237.87 127.966617 
L 237.1725 127.849453 
L 236.475 127.734863 
L 235.7775 127.622413 
L 235.08 127.512548 
L 234.3825 127.405273 
L 233.685 127.300594 
L 232.9875 127.198078 
L 232.29 127.09773 
L 231.5925 127.000432 
L 230.895 126.90575 
L 230.1975 126.813251 
L 229.5 126.723378 
L 228.8025 126.635259 
L 228.105 126.549775 
L 227.4075 126.466491 
L 226.71 126.385413 
L 226.0125 126.306983 
L 225.315 126.230765 
L 224.6175 126.156765 
L 223.92 126.084986 
L 223.2225 126.015431 
L 222.525 125.948105 
L 221.8275 125.883009 
L 221.13 125.820149 
L 220.4325 125.759088 
L 219.735 125.700269 
L 219.0375 125.643255 
L 218.34 125.588488 
L 217.6425 125.535971 
L 216.945 125.485707 
L 216.2475 125.437697 
L 215.55 125.391945 
L 214.8525 125.348452 
L 214.155 125.307222 
L 213.4575 125.268693 
L 212.76 125.232431 
L 212.0625 125.198437 
L 211.365 125.16715 
L 210.6675 125.138134 
L 209.97 125.111391 
L 209.2725 125.086922 
L 208.575 125.064728 
L 207.8775 125.044811 
L 207.18 125.027171 
L 206.4825 125.011809 
L 205.785 124.998726 
L 205.0875 124.987923 
L 204.39 124.9794 
L 203.6925 124.973157 
L 202.995 124.969196 
L 202.2975 124.968392 
L 201.6 124.96987 
L 200.9025 124.973628 
L 200.205 124.979668 
L 199.5075 124.987988 
L 198.81 124.998589 
L 198.1125 125.011907 
L 197.415 125.027504 
L 196.7175 125.04538 
L 196.02 125.065533 
L 195.3225 125.087962 
L 194.625 125.112667 
L 193.9275 125.139645 
L 193.23 125.168896 
L 192.5325 125.200418 
L 191.835 125.234209 
L 191.1375 125.270268 
L 190.44 125.308593 
L 189.7425 125.349182 
L 189.045 125.392032 
L 188.3475 125.437143 
L 187.65 125.484511 
L 186.9525 125.534134 
L 186.255 125.586009 
L 185.5575 125.640134 
L 184.86 125.696507 
L 184.1625 125.755123 
L 183.465 125.815981 
L 182.7675 125.879077 
L 182.07 125.944409 
L 181.3725 126.011971 
L 180.675 126.081763 
L 179.9775 126.153778 
L 179.28 126.228015 
L 178.5825 126.304469 
L 177.885 126.383137 
L 177.1875 126.464014 
L 176.49 126.547096 
L 175.7925 126.63238 
L 175.095 126.71986 
L 174.3975 126.809532 
L 173.7 126.901392 
L 173.0025 126.995436 
L 172.305 127.091658 
L 171.6075 127.190053 
L 170.91 127.290616 
L 170.2125 127.393343 
L 169.515 127.498229 
L 168.8175 127.605267 
L 168.12 127.714452 
L 167.4225 127.825341 
L 166.725 127.938366 
L 166.0275 128.053522 
L 165.33 128.170802 
L 164.6325 128.290201 
L 163.935 128.411713 
L 163.2375 128.535331 
L 162.54 128.661049 
L 161.8425 128.788423 
L 161.145 128.917885 
L 160.4475 129.049427 
L 159.75 129.183043 
L 159.0525 129.318726 
L 158.355 129.45647 
L 157.6575 129.596267 
L 156.96 129.738111 
L 156.2625 129.881994 
L 155.565 130.027909 
L 154.8675 130.175848 
L 154.17 130.325804 
L 153.4725 130.47777 
L 152.775 130.631737 
L 152.0775 130.787259 
L 151.38 130.944768 
L 150.6825 131.103816 
L 149.985 131.264834 
L 149.2875 131.427814 
L 148.59 131.592747 
L 147.8925 131.759625 
L 147.195 131.92844 
L 146.4975 132.099182 
L 145.8 132.271845 
L 145.1025 132.446417 
L 144.405 132.622892 
L 143.7075 132.801259 
L 143.01 132.981509 
L 142.3125 133.163635 
L 141.615 133.347626 
L 140.9175 133.533472 
L 140.22 133.721166 
L 139.5225 133.910258 
L 138.825 134.101177 
L 138.1275 134.293914 
L 137.43 134.488898 
L 136.7325 134.685679 
L 136.035 134.884249 
L 135.3375 135.084596 
L 134.64 135.286712 
L 133.9425 135.491023 
L 133.245 135.697081 
L 132.5475 135.904877 
L 131.85 136.114398 
L 131.1525 136.325635 
L 130.455 136.538577 
L 129.7575 136.753213 
L 129.06 136.969532 
L 128.3625 137.187523 
L 127.665 137.407175 
L 126.9675 137.628478 
L 126.27 137.851419 
L 125.5725 138.075987 
L 124.875 138.302172 
L 124.1775 138.529961 
L 123.48 138.759343 
L 122.7825 138.990306 
L 122.085 139.222839 
L 121.3875 139.45693 
L 120.69 139.692567 
L 119.9925 139.929737 
L 119.295 140.16843 
L 118.5975 140.408633 
L 117.9 140.650333 
L 117.2025 140.893518 
L 116.505 141.138177 
L 115.8075 141.384296 
L 115.11 141.631864 
L 114.4125 141.880867 
L 113.715 142.131293 
L 113.0175 142.383129 
L 112.32 142.636362 
L 111.6225 142.89098 
L 110.925 143.14697 
L 110.2275 143.404319 
L 109.53 143.663013 
L 108.8325 143.92304 
L 108.135 144.184386 
L 107.4375 144.447038 
L 106.74 144.710982 
L 106.0425 144.976206 
L 105.345 145.242696 
L 104.6475 145.510438 
L 103.95 145.779419 
L 103.2525 146.049625 
L 102.555 146.321043 
L 101.8575 146.593658 
L 101.16 146.867456 
L 100.4625 147.142425 
L 99.765 147.41855 
L 99.0675 147.695816 
L 98.37 147.97421 
L 97.6725 148.253718 
L 96.975 148.534326 
L 96.2775 148.816019 
L 95.58 149.098783 
L 94.8825 149.383041 
L 94.185 149.668342 
L 93.4875 149.954671 
L 92.79 150.242013 
L 92.0925 150.530353 
L 91.395 150.819678 
L 90.6975 151.109972 
L 90 151.40122 
z
" style="fill:#e0ffff;"/>
   </g>
   <g id="line2d_15">
    <path clip-path="url(#paf6e96d2b1)" d="M 90 151.40122 
L 100.4625 147.142425 
L 110.2275 143.404319 
L 119.295 140.16843 
L 127.665 137.407175 
L 136.035 134.884249 
L 143.7075 132.801259 
L 151.38 130.944768 
L 159.0525 129.318726 
L 166.725 127.938366 
L 173.7 126.901392 
L 180.675 126.081763 
L 187.65 125.484511 
L 194.625 125.112667 
L 201.6 124.96987 
L 208.575 125.064728 
L 215.55 125.391945 
L 222.525 125.948105 
L 229.5 126.723378 
L 235.7775 127.622413 
L 242.7525 128.85392 
L 249.03 130.184224 
L 255.3075 131.737395 
L 261.585 133.510996 
L 268.56 135.726063 
L 276.2325 138.43536 
L 284.6025 141.654169 
L 295.065 145.943505 
L 325.755 158.732818 
L 334.125 161.87088 
L 342.495 164.773386 
L 350.1675 167.201981 
L 357.1425 169.168649 
L 364.1175 170.888542 
L 371.0925 172.376592 
L 377.37 173.505252 
L 383.6475 174.42772 
L 391.32 175.320816 
L 398.9925 175.988899 
L 406.665 176.453273 
L 417.825 176.86743 
L 434.565 177.236408 
L 450.6075 177.639755 
L 468.7425 178.380323 
L 486.8775 179.36817 
L 496.6425 180.150787 
L 507.8025 181.304729 
L 530.82 183.817548 
L 541.2825 184.754442 
L 547.56 185.11458 
L 553.8375 185.253676 
L 559.4175 185.166105 
L 564.9975 184.863404 
L 569.88 184.394043 
L 574.7625 183.712985 
L 580.3425 182.699402 
L 586.62 181.320813 
L 594.2925 179.370287 
L 615.2175 173.78893 
L 621.495 172.442189 
L 627.075 171.465134 
L 631.9575 170.809643 
L 637.5375 170.281287 
L 643.1175 169.98661 
L 646.605 169.92 
L 646.605 169.92 
" style="fill:none;stroke:#008080;stroke-linecap:round;stroke-width:1.75;"/>
   </g>
   <g id="patch_3">
    <path d="M 90 270.72 
L 90 69.12 
" style="fill:none;stroke:#262626;stroke-linecap:square;stroke-linejoin:miter;stroke-width:1.25;"/>
   </g>
   <g id="patch_4">
    <path d="M 90 270.72 
L 648 270.72 
" style="fill:none;stroke:#262626;stroke-linecap:square;stroke-linejoin:miter;stroke-width:1.25;"/>
   </g>
  </g>
  <g id="axes_2">
   <g id="patch_5">
    <path d="M 90 512.64 
L 648 512.64 
L 648 311.04 
L 90 311.04 
z
" style="fill:#ffffff;"/>
   </g>
   <g id="matplotlib.axis_3">
    <g id="xtick_10">
     <g id="line2d_16">
      <g>
       <use style="fill:#262626;stroke:#262626;" x="191.454545" xlink:href="#m0bc0fd1a87" y="512.64"/>
      </g>
     </g>
     <g id="text_15">
      <!-- 200 -->
      <g style="fill:#262626;" transform="translate(183.113139 532.797812)scale(0.1 -0.1)">
       <use xlink:href="#ArialMT-32"/>
       <use x="55.615234" xlink:href="#ArialMT-30"/>
       <use x="111.230469" xlink:href="#ArialMT-30"/>
      </g>
     </g>
    </g>
    <g id="xtick_11">
     <g id="line2d_17">
      <g>
       <use style="fill:#262626;stroke:#262626;" x="304.181818" xlink:href="#m0bc0fd1a87" y="512.64"/>
      </g>
     </g>
     <g id="text_16">
      <!-- 400 -->
      <g style="fill:#262626;" transform="translate(295.840412 532.797812)scale(0.1 -0.1)">
       <use xlink:href="#ArialMT-34"/>
       <use x="55.615234" xlink:href="#ArialMT-30"/>
       <use x="111.230469" xlink:href="#ArialMT-30"/>
      </g>
     </g>
    </g>
    <g id="xtick_12">
     <g id="line2d_18">
      <g>
       <use style="fill:#262626;stroke:#262626;" x="416.909091" xlink:href="#m0bc0fd1a87" y="512.64"/>
      </g>
     </g>
     <g id="text_17">
      <!-- 600 -->
      <g style="fill:#262626;" transform="translate(408.567685 532.797812)scale(0.1 -0.1)">
       <use xlink:href="#ArialMT-36"/>
       <use x="55.615234" xlink:href="#ArialMT-30"/>
       <use x="111.230469" xlink:href="#ArialMT-30"/>
      </g>
     </g>
    </g>
    <g id="xtick_13">
     <g id="line2d_19">
      <g>
       <use style="fill:#262626;stroke:#262626;" x="529.636364" xlink:href="#m0bc0fd1a87" y="512.64"/>
      </g>
     </g>
     <g id="text_18">
      <!-- 800 -->
      <g style="fill:#262626;" transform="translate(521.294957 532.797812)scale(0.1 -0.1)">
       <use xlink:href="#ArialMT-38"/>
       <use x="55.615234" xlink:href="#ArialMT-30"/>
       <use x="111.230469" xlink:href="#ArialMT-30"/>
      </g>
     </g>
    </g>
    <g id="xtick_14">
     <g id="line2d_20">
      <g>
       <use style="fill:#262626;stroke:#262626;" x="642.363636" xlink:href="#m0bc0fd1a87" y="512.64"/>
      </g>
     </g>
     <g id="text_19">
      <!-- 1000 -->
      <g style="fill:#262626;" transform="translate(631.241761 532.797812)scale(0.1 -0.1)">
       <use xlink:href="#ArialMT-31"/>
       <use x="55.615234" xlink:href="#ArialMT-30"/>
       <use x="111.230469" xlink:href="#ArialMT-30"/>
       <use x="166.845703" xlink:href="#ArialMT-30"/>
      </g>
     </g>
    </g>
   </g>
   <g id="matplotlib.axis_4">
    <g id="ytick_6">
     <g id="line2d_21">
      <g>
       <use style="fill:#262626;stroke:#262626;" x="90" xlink:href="#m187735a240" y="512.64"/>
      </g>
     </g>
     <g id="text_20">
      <!-- 0 -->
      <g style="fill:#262626;" transform="translate(71.439063 516.218906)scale(0.1 -0.1)">
       <use xlink:href="#ArialMT-30"/>
      </g>
     </g>
    </g>
    <g id="ytick_7">
     <g id="line2d_22">
      <g>
       <use style="fill:#262626;stroke:#262626;" x="90" xlink:href="#m187735a240" y="490.24"/>
      </g>
     </g>
     <g id="text_21">
      <!-- 2 -->
      <g style="fill:#262626;" transform="translate(71.439063 493.818906)scale(0.1 -0.1)">
       <use xlink:href="#ArialMT-32"/>
      </g>
     </g>
    </g>
    <g id="ytick_8">
     <g id="line2d_23">
      <g>
       <use style="fill:#262626;stroke:#262626;" x="90" xlink:href="#m187735a240" y="467.84"/>
      </g>
     </g>
     <g id="text_22">
      <!-- 4 -->
      <g style="fill:#262626;" transform="translate(71.439063 471.418906)scale(0.1 -0.1)">
       <use xlink:href="#ArialMT-34"/>
      </g>
     </g>
    </g>
    <g id="ytick_9">
     <g id="line2d_24">
      <g>
       <use style="fill:#262626;stroke:#262626;" x="90" xlink:href="#m187735a240" y="445.44"/>
      </g>
     </g>
     <g id="text_23">
      <!-- 6 -->
      <g style="fill:#262626;" transform="translate(71.439063 449.018906)scale(0.1 -0.1)">
       <use xlink:href="#ArialMT-36"/>
      </g>
     </g>
    </g>
    <g id="ytick_10">
     <g id="line2d_25">
      <g>
       <use style="fill:#262626;stroke:#262626;" x="90" xlink:href="#m187735a240" y="423.04"/>
      </g>
     </g>
     <g id="text_24">
      <!-- 8 -->
      <g style="fill:#262626;" transform="translate(71.439063 426.618906)scale(0.1 -0.1)">
       <use xlink:href="#ArialMT-38"/>
      </g>
     </g>
    </g>
    <g id="ytick_11">
     <g id="line2d_26">
      <g>
       <use style="fill:#262626;stroke:#262626;" x="90" xlink:href="#m187735a240" y="400.64"/>
      </g>
     </g>
     <g id="text_25">
      <!-- 10 -->
      <g style="fill:#262626;" transform="translate(65.878125 404.218906)scale(0.1 -0.1)">
       <use xlink:href="#ArialMT-31"/>
       <use x="55.615234" xlink:href="#ArialMT-30"/>
      </g>
     </g>
    </g>
    <g id="ytick_12">
     <g id="line2d_27">
      <g>
       <use style="fill:#262626;stroke:#262626;" x="90" xlink:href="#m187735a240" y="378.24"/>
      </g>
     </g>
     <g id="text_26">
      <!-- 12 -->
      <g style="fill:#262626;" transform="translate(65.878125 381.818906)scale(0.1 -0.1)">
       <use xlink:href="#ArialMT-31"/>
       <use x="55.615234" xlink:href="#ArialMT-32"/>
      </g>
     </g>
    </g>
    <g id="ytick_13">
     <g id="line2d_28">
      <g>
       <use style="fill:#262626;stroke:#262626;" x="90" xlink:href="#m187735a240" y="355.84"/>
      </g>
     </g>
     <g id="text_27">
      <!-- 14 -->
      <g style="fill:#262626;" transform="translate(65.878125 359.418906)scale(0.1 -0.1)">
       <use xlink:href="#ArialMT-31"/>
       <use x="55.615234" xlink:href="#ArialMT-34"/>
      </g>
     </g>
    </g>
    <g id="ytick_14">
     <g id="line2d_29">
      <g>
       <use style="fill:#262626;stroke:#262626;" x="90" xlink:href="#m187735a240" y="333.44"/>
      </g>
     </g>
     <g id="text_28">
      <!-- 16 -->
      <g style="fill:#262626;" transform="translate(65.878125 337.018906)scale(0.1 -0.1)">
       <use xlink:href="#ArialMT-31"/>
       <use x="55.615234" xlink:href="#ArialMT-36"/>
      </g>
     </g>
    </g>
    <g id="ytick_15">
     <g id="line2d_30">
      <g>
       <use style="fill:#262626;stroke:#262626;" x="90" xlink:href="#m187735a240" y="311.04"/>
      </g>
     </g>
     <g id="text_29">
      <!-- 18 -->
      <g style="fill:#262626;" transform="translate(65.878125 314.618906)scale(0.1 -0.1)">
       <use xlink:href="#ArialMT-31"/>
       <use x="55.615234" xlink:href="#ArialMT-38"/>
      </g>
     </g>
    </g>
   </g>
   <g id="line2d_31">
    <path clip-path="url(#p7399e4b84e)" d="M 90 477.654723 
L 95.636364 452.736402 
L 101.272727 431.923589 
L 106.909091 427.92302 
" style="fill:none;stroke:#b22222;stroke-linecap:round;stroke-width:1.75;"/>
   </g>
   <g id="line2d_32">
    <path clip-path="url(#p7399e4b84e)" d="M 152 512.64 
L 152 311.04 
" style="fill:none;stroke:#4c72b0;stroke-linecap:round;stroke-width:1.75;"/>
   </g>
   <g id="patch_6">
    <path d="M 90 512.64 
L 90 311.04 
" style="fill:none;stroke:#262626;stroke-linecap:square;stroke-linejoin:miter;stroke-width:1.25;"/>
   </g>
   <g id="patch_7">
    <path d="M 90 512.64 
L 648 512.64 
" style="fill:none;stroke:#262626;stroke-linecap:square;stroke-linejoin:miter;stroke-width:1.25;"/>
   </g>
   <g id="text_30">
    <!-- f = 50 Hz -->
    <defs>
     <path d="M 8.6875 0 
L 8.6875 45.015625 
L 0.921875 45.015625 
L 0.921875 51.859375 
L 8.6875 51.859375 
L 8.6875 57.375 
Q 8.6875 62.59375 9.625 65.140625 
Q 10.890625 68.5625 14.078125 70.671875 
Q 17.28125 72.796875 23.046875 72.796875 
Q 26.765625 72.796875 31.25 71.921875 
L 29.9375 64.265625 
Q 27.203125 64.75 24.75 64.75 
Q 20.75 64.75 19.09375 63.03125 
Q 17.4375 61.328125 17.4375 56.640625 
L 17.4375 51.859375 
L 27.546875 51.859375 
L 27.546875 45.015625 
L 17.4375 45.015625 
L 17.4375 0 
z
" id="ArialMT-66"/>
     <path id="ArialMT-20"/>
     <path d="M 52.828125 42.09375 
L 5.5625 42.09375 
L 5.5625 50.296875 
L 52.828125 50.296875 
z
M 52.828125 20.359375 
L 5.5625 20.359375 
L 5.5625 28.5625 
L 52.828125 28.5625 
z
" id="ArialMT-3d"/>
     <path d="M 8.015625 0 
L 8.015625 71.578125 
L 17.484375 71.578125 
L 17.484375 42.1875 
L 54.6875 42.1875 
L 54.6875 71.578125 
L 64.15625 71.578125 
L 64.15625 0 
L 54.6875 0 
L 54.6875 33.734375 
L 17.484375 33.734375 
L 17.484375 0 
z
" id="ArialMT-48"/>
     <path d="M 1.953125 0 
L 1.953125 7.125 
L 34.96875 45.015625 
Q 29.34375 44.734375 25.046875 44.734375 
L 3.90625 44.734375 
L 3.90625 51.859375 
L 46.296875 51.859375 
L 46.296875 46.046875 
L 18.21875 13.140625 
L 12.796875 7.125 
Q 18.703125 7.5625 23.875 7.5625 
L 47.859375 7.5625 
L 47.859375 0 
z
" id="ArialMT-7a"/>
    </defs>
    <g style="fill:#262626;" transform="translate(529.636364 403.742188)scale(0.12 -0.12)">
     <use xlink:href="#ArialMT-66"/>
     <use x="27.783203" xlink:href="#ArialMT-20"/>
     <use x="55.566406" xlink:href="#ArialMT-3d"/>
     <use x="113.964844" xlink:href="#ArialMT-20"/>
     <use x="141.748047" xlink:href="#ArialMT-35"/>
     <use x="197.363281" xlink:href="#ArialMT-30"/>
     <use x="252.978516" xlink:href="#ArialMT-20"/>
     <use x="280.761719" xlink:href="#ArialMT-48"/>
     <use x="352.978516" xlink:href="#ArialMT-7a"/>
    </g>
   </g>
   <g id="PathCollection_1">
    <defs>
     <path d="M 0 3.5 
C 0.928211 3.5 1.81853 3.131218 2.474874 2.474874 
C 3.131218 1.81853 3.5 0.928211 3.5 0 
C 3.5 -0.928211 3.131218 -1.81853 2.474874 -2.474874 
C 1.81853 -3.131218 0.928211 -3.5 0 -3.5 
C -0.928211 -3.5 -1.81853 -3.131218 -2.474874 -2.474874 
C -3.131218 -1.81853 -3.5 -0.928211 -3.5 0 
C -3.5 0.928211 -3.131218 1.81853 -2.474874 2.474874 
C -1.81853 3.131218 -0.928211 3.5 0 3.5 
z
" id="m00962d71f2" style="stroke:#800000;stroke-width:0.3;"/>
    </defs>
    <g clip-path="url(#p7399e4b84e)">
     <use style="fill:#800000;stroke:#800000;stroke-width:0.3;" x="106.909091" xlink:href="#m00962d71f2" y="427.92302"/>
    </g>
   </g>
  </g>
 </g>
 <defs>
  <clipPath id="paf6e96d2b1">
   <rect height="201.6" width="558" x="90" y="69.12"/>
  </clipPath>
  <clipPath id="p7399e4b84e">
   <rect height="201.6" width="558" x="90" y="311.04"/>
  </clipPath>
 </defs>
</svg>
