<?xml version="1.0" encoding="utf-8" standalone="no"?>
<!DOCTYPE svg PUBLIC "-//W3C//DTD SVG 1.1//EN"
  "http://www.w3.org/Graphics/SVG/1.1/DTD/svg11.dtd">
<!-- Created with matplotlib (http://matplotlib.org/) -->
<svg height="576pt" version="1.1" viewBox="0 0 720 576" width="720pt" xmlns="http://www.w3.org/2000/svg" xmlns:xlink="http://www.w3.org/1999/xlink">
 <defs>
  <style type="text/css">
*{stroke-linecap:butt;stroke-linejoin:round;}
  </style>
 </defs>
 <g id="figure_1">
  <g id="patch_1">
   <path d="M 0 576 
L 720 576 
L 720 0 
L 0 0 
z
" style="fill:#ffffff;"/>
  </g>
  <g id="axes_1">
   <g id="patch_2">
    <path d="M 90 270.72 
L 648 270.72 
L 648 69.12 
L 90 69.12 
z
" style="fill:#ffffff;"/>
   </g>
   <g id="matplotlib.axis_1">
    <g id="xtick_1">
     <g id="line2d_1">
      <defs>
       <path d="M 0 0 
L 0 6 
" id="md098766c91" style="stroke:#262626;"/>
      </defs>
      <g>
       <use style="fill:#262626;stroke:#262626;" x="90" xlink:href="#md098766c91" y="270.72"/>
      </g>
     </g>
     <g id="text_1">
      <!-- 0 -->
      <defs>
       <path d="M 4.15625 35.296875 
Q 4.15625 48 6.765625 55.734375 
Q 9.375 63.484375 14.515625 67.671875 
Q 19.671875 71.875 27.484375 71.875 
Q 33.25 71.875 37.59375 69.546875 
Q 41.9375 67.234375 44.765625 62.859375 
Q 47.609375 58.5 49.21875 52.21875 
Q 50.828125 45.953125 50.828125 35.296875 
Q 50.828125 22.703125 48.234375 14.96875 
Q 45.65625 7.234375 40.5 3 
Q 35.359375 -1.21875 27.484375 -1.21875 
Q 17.140625 -1.21875 11.234375 6.203125 
Q 4.15625 15.140625 4.15625 35.296875 
z
M 13.1875 35.296875 
Q 13.1875 17.671875 17.3125 11.828125 
Q 21.4375 6 27.484375 6 
Q 33.546875 6 37.671875 11.859375 
Q 41.796875 17.71875 41.796875 35.296875 
Q 41.796875 52.984375 37.671875 58.78125 
Q 33.546875 64.59375 27.390625 64.59375 
Q 21.34375 64.59375 17.71875 59.46875 
Q 13.1875 52.9375 13.1875 35.296875 
z
" id="ArialMT-30"/>
      </defs>
      <g style="fill:#262626;" transform="translate(87.219531 290.877812)scale(0.1 -0.1)">
       <use xlink:href="#ArialMT-30"/>
      </g>
     </g>
    </g>
    <g id="xtick_2">
     <g id="line2d_2">
      <g>
       <use style="fill:#262626;stroke:#262626;" x="159.75" xlink:href="#md098766c91" y="270.72"/>
      </g>
     </g>
     <g id="text_2">
      <!-- 100 -->
      <defs>
       <path d="M 37.25 0 
L 28.46875 0 
L 28.46875 56 
Q 25.296875 52.984375 20.140625 49.953125 
Q 14.984375 46.921875 10.890625 45.40625 
L 10.890625 53.90625 
Q 18.265625 57.375 23.78125 62.296875 
Q 29.296875 67.234375 31.59375 71.875 
L 37.25 71.875 
z
" id="ArialMT-31"/>
      </defs>
      <g style="fill:#262626;" transform="translate(151.408594 290.877812)scale(0.1 -0.1)">
       <use xlink:href="#ArialMT-31"/>
       <use x="55.615234" xlink:href="#ArialMT-30"/>
       <use x="111.230469" xlink:href="#ArialMT-30"/>
      </g>
     </g>
    </g>
    <g id="xtick_3">
     <g id="line2d_3">
      <g>
       <use style="fill:#262626;stroke:#262626;" x="229.5" xlink:href="#md098766c91" y="270.72"/>
      </g>
     </g>
     <g id="text_3">
      <!-- 200 -->
      <defs>
       <path d="M 50.34375 8.453125 
L 50.34375 0 
L 3.03125 0 
Q 2.9375 3.171875 4.046875 6.109375 
Q 5.859375 10.9375 9.828125 15.625 
Q 13.8125 20.3125 21.34375 26.46875 
Q 33.015625 36.03125 37.109375 41.625 
Q 41.21875 47.21875 41.21875 52.203125 
Q 41.21875 57.421875 37.46875 61 
Q 33.734375 64.59375 27.734375 64.59375 
Q 21.390625 64.59375 17.578125 60.78125 
Q 13.765625 56.984375 13.71875 50.25 
L 4.6875 51.171875 
Q 5.609375 61.28125 11.65625 66.578125 
Q 17.71875 71.875 27.9375 71.875 
Q 38.234375 71.875 44.234375 66.15625 
Q 50.25 60.453125 50.25 52 
Q 50.25 47.703125 48.484375 43.546875 
Q 46.734375 39.40625 42.65625 34.8125 
Q 38.578125 30.21875 29.109375 22.21875 
Q 21.1875 15.578125 18.9375 13.203125 
Q 16.703125 10.84375 15.234375 8.453125 
z
" id="ArialMT-32"/>
      </defs>
      <g style="fill:#262626;" transform="translate(221.158594 290.877812)scale(0.1 -0.1)">
       <use xlink:href="#ArialMT-32"/>
       <use x="55.615234" xlink:href="#ArialMT-30"/>
       <use x="111.230469" xlink:href="#ArialMT-30"/>
      </g>
     </g>
    </g>
    <g id="xtick_4">
     <g id="line2d_4">
      <g>
       <use style="fill:#262626;stroke:#262626;" x="299.25" xlink:href="#md098766c91" y="270.72"/>
      </g>
     </g>
     <g id="text_4">
      <!-- 300 -->
      <defs>
       <path d="M 4.203125 18.890625 
L 12.984375 20.0625 
Q 14.5 12.59375 18.140625 9.296875 
Q 21.78125 6 27 6 
Q 33.203125 6 37.46875 10.296875 
Q 41.75 14.59375 41.75 20.953125 
Q 41.75 27 37.796875 30.921875 
Q 33.84375 34.859375 27.734375 34.859375 
Q 25.25 34.859375 21.53125 33.890625 
L 22.515625 41.609375 
Q 23.390625 41.5 23.921875 41.5 
Q 29.546875 41.5 34.03125 44.421875 
Q 38.53125 47.359375 38.53125 53.46875 
Q 38.53125 58.296875 35.25 61.46875 
Q 31.984375 64.65625 26.8125 64.65625 
Q 21.6875 64.65625 18.265625 61.421875 
Q 14.84375 58.203125 13.875 51.765625 
L 5.078125 53.328125 
Q 6.6875 62.15625 12.390625 67.015625 
Q 18.109375 71.875 26.609375 71.875 
Q 32.46875 71.875 37.390625 69.359375 
Q 42.328125 66.84375 44.9375 62.5 
Q 47.5625 58.15625 47.5625 53.265625 
Q 47.5625 48.640625 45.0625 44.828125 
Q 42.578125 41.015625 37.703125 38.765625 
Q 44.046875 37.3125 47.5625 32.6875 
Q 51.078125 28.078125 51.078125 21.140625 
Q 51.078125 11.765625 44.234375 5.25 
Q 37.40625 -1.265625 26.953125 -1.265625 
Q 17.53125 -1.265625 11.296875 4.34375 
Q 5.078125 9.96875 4.203125 18.890625 
z
" id="ArialMT-33"/>
      </defs>
      <g style="fill:#262626;" transform="translate(290.908594 290.877812)scale(0.1 -0.1)">
       <use xlink:href="#ArialMT-33"/>
       <use x="55.615234" xlink:href="#ArialMT-30"/>
       <use x="111.230469" xlink:href="#ArialMT-30"/>
      </g>
     </g>
    </g>
    <g id="xtick_5">
     <g id="line2d_5">
      <g>
       <use style="fill:#262626;stroke:#262626;" x="369" xlink:href="#md098766c91" y="270.72"/>
      </g>
     </g>
     <g id="text_5">
      <!-- 400 -->
      <defs>
       <path d="M 32.328125 0 
L 32.328125 17.140625 
L 1.265625 17.140625 
L 1.265625 25.203125 
L 33.9375 71.578125 
L 41.109375 71.578125 
L 41.109375 25.203125 
L 50.78125 25.203125 
L 50.78125 17.140625 
L 41.109375 17.140625 
L 41.109375 0 
z
M 32.328125 25.203125 
L 32.328125 57.46875 
L 9.90625 25.203125 
z
" id="ArialMT-34"/>
      </defs>
      <g style="fill:#262626;" transform="translate(360.658594 290.877812)scale(0.1 -0.1)">
       <use xlink:href="#ArialMT-34"/>
       <use x="55.615234" xlink:href="#ArialMT-30"/>
       <use x="111.230469" xlink:href="#ArialMT-30"/>
      </g>
     </g>
    </g>
    <g id="xtick_6">
     <g id="line2d_6">
      <g>
       <use style="fill:#262626;stroke:#262626;" x="438.75" xlink:href="#md098766c91" y="270.72"/>
      </g>
     </g>
     <g id="text_6">
      <!-- 500 -->
      <defs>
       <path d="M 4.15625 18.75 
L 13.375 19.53125 
Q 14.40625 12.796875 18.140625 9.390625 
Q 21.875 6 27.15625 6 
Q 33.5 6 37.890625 10.78125 
Q 42.28125 15.578125 42.28125 23.484375 
Q 42.28125 31 38.0625 35.34375 
Q 33.84375 39.703125 27 39.703125 
Q 22.75 39.703125 19.328125 37.765625 
Q 15.921875 35.84375 13.96875 32.765625 
L 5.71875 33.84375 
L 12.640625 70.609375 
L 48.25 70.609375 
L 48.25 62.203125 
L 19.671875 62.203125 
L 15.828125 42.96875 
Q 22.265625 47.46875 29.34375 47.46875 
Q 38.71875 47.46875 45.15625 40.96875 
Q 51.609375 34.46875 51.609375 24.265625 
Q 51.609375 14.546875 45.953125 7.46875 
Q 39.0625 -1.21875 27.15625 -1.21875 
Q 17.390625 -1.21875 11.203125 4.25 
Q 5.03125 9.71875 4.15625 18.75 
z
" id="ArialMT-35"/>
      </defs>
      <g style="fill:#262626;" transform="translate(430.408594 290.877812)scale(0.1 -0.1)">
       <use xlink:href="#ArialMT-35"/>
       <use x="55.615234" xlink:href="#ArialMT-30"/>
       <use x="111.230469" xlink:href="#ArialMT-30"/>
      </g>
     </g>
    </g>
    <g id="xtick_7">
     <g id="line2d_7">
      <g>
       <use style="fill:#262626;stroke:#262626;" x="508.5" xlink:href="#md098766c91" y="270.72"/>
      </g>
     </g>
     <g id="text_7">
      <!-- 600 -->
      <defs>
       <path d="M 49.75 54.046875 
L 41.015625 53.375 
Q 39.84375 58.546875 37.703125 60.890625 
Q 34.125 64.65625 28.90625 64.65625 
Q 24.703125 64.65625 21.53125 62.3125 
Q 17.390625 59.28125 14.984375 53.46875 
Q 12.59375 47.65625 12.5 36.921875 
Q 15.671875 41.75 20.265625 44.09375 
Q 24.859375 46.4375 29.890625 46.4375 
Q 38.671875 46.4375 44.84375 39.96875 
Q 51.03125 33.5 51.03125 23.25 
Q 51.03125 16.5 48.125 10.71875 
Q 45.21875 4.9375 40.140625 1.859375 
Q 35.0625 -1.21875 28.609375 -1.21875 
Q 17.625 -1.21875 10.6875 6.859375 
Q 3.765625 14.9375 3.765625 33.5 
Q 3.765625 54.25 11.421875 63.671875 
Q 18.109375 71.875 29.4375 71.875 
Q 37.890625 71.875 43.28125 67.140625 
Q 48.6875 62.40625 49.75 54.046875 
z
M 13.875 23.1875 
Q 13.875 18.65625 15.796875 14.5 
Q 17.71875 10.359375 21.1875 8.171875 
Q 24.65625 6 28.46875 6 
Q 34.03125 6 38.03125 10.484375 
Q 42.046875 14.984375 42.046875 22.703125 
Q 42.046875 30.125 38.078125 34.390625 
Q 34.125 38.671875 28.125 38.671875 
Q 22.171875 38.671875 18.015625 34.390625 
Q 13.875 30.125 13.875 23.1875 
z
" id="ArialMT-36"/>
      </defs>
      <g style="fill:#262626;" transform="translate(500.158594 290.877812)scale(0.1 -0.1)">
       <use xlink:href="#ArialMT-36"/>
       <use x="55.615234" xlink:href="#ArialMT-30"/>
       <use x="111.230469" xlink:href="#ArialMT-30"/>
      </g>
     </g>
    </g>
    <g id="xtick_8">
     <g id="line2d_8">
      <g>
       <use style="fill:#262626;stroke:#262626;" x="578.25" xlink:href="#md098766c91" y="270.72"/>
      </g>
     </g>
     <g id="text_8">
      <!-- 700 -->
      <defs>
       <path d="M 4.734375 62.203125 
L 4.734375 70.65625 
L 51.078125 70.65625 
L 51.078125 63.8125 
Q 44.234375 56.546875 37.515625 44.484375 
Q 30.8125 32.421875 27.15625 19.671875 
Q 24.515625 10.6875 23.78125 0 
L 14.75 0 
Q 14.890625 8.453125 18.0625 20.40625 
Q 21.234375 32.375 27.171875 43.484375 
Q 33.109375 54.59375 39.796875 62.203125 
z
" id="ArialMT-37"/>
      </defs>
      <g style="fill:#262626;" transform="translate(569.908594 290.877812)scale(0.1 -0.1)">
       <use xlink:href="#ArialMT-37"/>
       <use x="55.615234" xlink:href="#ArialMT-30"/>
       <use x="111.230469" xlink:href="#ArialMT-30"/>
      </g>
     </g>
    </g>
    <g id="xtick_9">
     <g id="line2d_9">
      <g>
       <use style="fill:#262626;stroke:#262626;" x="648" xlink:href="#md098766c91" y="270.72"/>
      </g>
     </g>
     <g id="text_9">
      <!-- 800 -->
      <defs>
       <path d="M 17.671875 38.8125 
Q 12.203125 40.828125 9.5625 44.53125 
Q 6.9375 48.25 6.9375 53.421875 
Q 6.9375 61.234375 12.546875 66.546875 
Q 18.171875 71.875 27.484375 71.875 
Q 36.859375 71.875 42.578125 66.421875 
Q 48.296875 60.984375 48.296875 53.171875 
Q 48.296875 48.1875 45.671875 44.5 
Q 43.0625 40.828125 37.75 38.8125 
Q 44.34375 36.671875 47.78125 31.875 
Q 51.21875 27.09375 51.21875 20.453125 
Q 51.21875 11.28125 44.71875 5.03125 
Q 38.234375 -1.21875 27.640625 -1.21875 
Q 17.046875 -1.21875 10.546875 5.046875 
Q 4.046875 11.328125 4.046875 20.703125 
Q 4.046875 27.6875 7.59375 32.390625 
Q 11.140625 37.109375 17.671875 38.8125 
z
M 15.921875 53.71875 
Q 15.921875 48.640625 19.1875 45.40625 
Q 22.46875 42.1875 27.6875 42.1875 
Q 32.765625 42.1875 36.015625 45.375 
Q 39.265625 48.578125 39.265625 53.21875 
Q 39.265625 58.0625 35.90625 61.359375 
Q 32.5625 64.65625 27.59375 64.65625 
Q 22.5625 64.65625 19.234375 61.421875 
Q 15.921875 58.203125 15.921875 53.71875 
z
M 13.09375 20.65625 
Q 13.09375 16.890625 14.875 13.375 
Q 16.65625 9.859375 20.171875 7.921875 
Q 23.6875 6 27.734375 6 
Q 34.03125 6 38.125 10.046875 
Q 42.234375 14.109375 42.234375 20.359375 
Q 42.234375 26.703125 38.015625 30.859375 
Q 33.796875 35.015625 27.4375 35.015625 
Q 21.234375 35.015625 17.15625 30.90625 
Q 13.09375 26.8125 13.09375 20.65625 
z
" id="ArialMT-38"/>
      </defs>
      <g style="fill:#262626;" transform="translate(639.658594 290.877812)scale(0.1 -0.1)">
       <use xlink:href="#ArialMT-38"/>
       <use x="55.615234" xlink:href="#ArialMT-30"/>
       <use x="111.230469" xlink:href="#ArialMT-30"/>
      </g>
     </g>
    </g>
   </g>
   <g id="matplotlib.axis_2">
    <g id="ytick_1">
     <g id="line2d_10">
      <defs>
       <path d="M 0 0 
L -6 0 
" id="m443731c6ed" style="stroke:#262626;"/>
      </defs>
      <g>
       <use style="fill:#262626;stroke:#262626;" x="90" xlink:href="#m443731c6ed" y="250.56"/>
      </g>
     </g>
     <g id="text_10">
      <!-- −0.04 -->
      <defs>
       <path d="M 52.828125 31.203125 
L 5.5625 31.203125 
L 5.5625 39.40625 
L 52.828125 39.40625 
z
" id="ArialMT-2212"/>
       <path d="M 9.078125 0 
L 9.078125 10.015625 
L 19.09375 10.015625 
L 19.09375 0 
z
" id="ArialMT-2e"/>
      </defs>
      <g style="fill:#262626;" transform="translate(51.698437 254.138906)scale(0.1 -0.1)">
       <use xlink:href="#ArialMT-2212"/>
       <use x="58.398438" xlink:href="#ArialMT-30"/>
       <use x="114.013672" xlink:href="#ArialMT-2e"/>
       <use x="141.796875" xlink:href="#ArialMT-30"/>
       <use x="197.412109" xlink:href="#ArialMT-34"/>
      </g>
     </g>
    </g>
    <g id="ytick_2">
     <g id="line2d_11">
      <g>
       <use style="fill:#262626;stroke:#262626;" x="90" xlink:href="#m443731c6ed" y="210.24"/>
      </g>
     </g>
     <g id="text_11">
      <!-- −0.02 -->
      <g style="fill:#262626;" transform="translate(51.698437 213.818906)scale(0.1 -0.1)">
       <use xlink:href="#ArialMT-2212"/>
       <use x="58.398438" xlink:href="#ArialMT-30"/>
       <use x="114.013672" xlink:href="#ArialMT-2e"/>
       <use x="141.796875" xlink:href="#ArialMT-30"/>
       <use x="197.412109" xlink:href="#ArialMT-32"/>
      </g>
     </g>
    </g>
    <g id="ytick_3">
     <g id="line2d_12">
      <g>
       <use style="fill:#262626;stroke:#262626;" x="90" xlink:href="#m443731c6ed" y="169.92"/>
      </g>
     </g>
     <g id="text_12">
      <!-- 0.00 -->
      <g style="fill:#262626;" transform="translate(57.539062 173.498906)scale(0.1 -0.1)">
       <use xlink:href="#ArialMT-30"/>
       <use x="55.615234" xlink:href="#ArialMT-2e"/>
       <use x="83.398438" xlink:href="#ArialMT-30"/>
       <use x="139.013672" xlink:href="#ArialMT-30"/>
      </g>
     </g>
    </g>
    <g id="ytick_4">
     <g id="line2d_13">
      <g>
       <use style="fill:#262626;stroke:#262626;" x="90" xlink:href="#m443731c6ed" y="129.6"/>
      </g>
     </g>
     <g id="text_13">
      <!-- 0.02 -->
      <g style="fill:#262626;" transform="translate(57.539062 133.178906)scale(0.1 -0.1)">
       <use xlink:href="#ArialMT-30"/>
       <use x="55.615234" xlink:href="#ArialMT-2e"/>
       <use x="83.398438" xlink:href="#ArialMT-30"/>
       <use x="139.013672" xlink:href="#ArialMT-32"/>
      </g>
     </g>
    </g>
    <g id="ytick_5">
     <g id="line2d_14">
      <g>
       <use style="fill:#262626;stroke:#262626;" x="90" xlink:href="#m443731c6ed" y="89.28"/>
      </g>
     </g>
     <g id="text_14">
      <!-- 0.04 -->
      <g style="fill:#262626;" transform="translate(57.539062 92.858906)scale(0.1 -0.1)">
       <use xlink:href="#ArialMT-30"/>
       <use x="55.615234" xlink:href="#ArialMT-2e"/>
       <use x="83.398438" xlink:href="#ArialMT-30"/>
       <use x="139.013672" xlink:href="#ArialMT-34"/>
      </g>
     </g>
    </g>
   </g>
   <g id="PolyCollection_1">
    <path clip-path="url(#p5da1985529)" d="M 90 158.682271 
L 90 169.92 
L 90.6975 169.92 
L 91.395 169.92 
L 92.0925 169.92 
L 92.79 169.92 
L 93.4875 169.92 
L 94.185 169.92 
L 94.8825 169.92 
L 95.58 169.92 
L 96.2775 169.92 
L 96.975 169.92 
L 97.6725 169.92 
L 98.37 169.92 
L 99.0675 169.92 
L 99.765 169.92 
L 100.4625 169.92 
L 101.16 169.92 
L 101.8575 169.92 
L 102.555 169.92 
L 103.2525 169.92 
L 103.95 169.92 
L 104.6475 169.92 
L 105.345 169.92 
L 106.0425 169.92 
L 106.74 169.92 
L 107.4375 169.92 
L 108.135 169.92 
L 108.8325 169.92 
L 109.53 169.92 
L 110.2275 169.92 
L 110.925 169.92 
L 111.6225 169.92 
L 112.32 169.92 
L 113.0175 169.92 
L 113.715 169.92 
L 114.4125 169.92 
L 115.11 169.92 
L 115.8075 169.92 
L 116.505 169.92 
L 117.2025 169.92 
L 117.9 169.92 
L 118.5975 169.92 
L 119.295 169.92 
L 119.9925 169.92 
L 120.69 169.92 
L 121.3875 169.92 
L 122.085 169.92 
L 122.7825 169.92 
L 123.48 169.92 
L 124.1775 169.92 
L 124.875 169.92 
L 125.5725 169.92 
L 126.27 169.92 
L 126.9675 169.92 
L 127.665 169.92 
L 128.3625 169.92 
L 129.06 169.92 
L 129.7575 169.92 
L 130.455 169.92 
L 131.1525 169.92 
L 131.85 169.92 
L 132.5475 169.92 
L 133.245 169.92 
L 133.9425 169.92 
L 134.64 169.92 
L 135.3375 169.92 
L 136.035 169.92 
L 136.7325 169.92 
L 137.43 169.92 
L 138.1275 169.92 
L 138.825 169.92 
L 139.5225 169.92 
L 140.22 169.92 
L 140.9175 169.92 
L 141.615 169.92 
L 142.3125 169.92 
L 143.01 169.92 
L 143.7075 169.92 
L 144.405 169.92 
L 145.1025 169.92 
L 145.8 169.92 
L 146.4975 169.92 
L 147.195 169.92 
L 147.8925 169.92 
L 148.59 169.92 
L 149.2875 169.92 
L 149.985 169.92 
L 150.6825 169.92 
L 151.38 169.92 
L 152.0775 169.92 
L 152.775 169.92 
L 153.4725 169.92 
L 154.17 169.92 
L 154.8675 169.92 
L 155.565 169.92 
L 156.2625 169.92 
L 156.96 169.92 
L 157.6575 169.92 
L 158.355 169.92 
L 159.0525 169.92 
L 159.75 169.92 
L 160.4475 169.92 
L 161.145 169.92 
L 161.8425 169.92 
L 162.54 169.92 
L 163.2375 169.92 
L 163.935 169.92 
L 164.6325 169.92 
L 165.33 169.92 
L 166.0275 169.92 
L 166.725 169.92 
L 167.4225 169.92 
L 168.12 169.92 
L 168.8175 169.92 
L 169.515 169.92 
L 170.2125 169.92 
L 170.91 169.92 
L 171.6075 169.92 
L 172.305 169.92 
L 173.0025 169.92 
L 173.7 169.92 
L 174.3975 169.92 
L 175.095 169.92 
L 175.7925 169.92 
L 176.49 169.92 
L 177.1875 169.92 
L 177.885 169.92 
L 178.5825 169.92 
L 179.28 169.92 
L 179.9775 169.92 
L 180.675 169.92 
L 181.3725 169.92 
L 182.07 169.92 
L 182.7675 169.92 
L 183.465 169.92 
L 184.1625 169.92 
L 184.86 169.92 
L 185.5575 169.92 
L 186.255 169.92 
L 186.9525 169.92 
L 187.65 169.92 
L 188.3475 169.92 
L 189.045 169.92 
L 189.7425 169.92 
L 190.44 169.92 
L 191.1375 169.92 
L 191.835 169.92 
L 192.5325 169.92 
L 193.23 169.92 
L 193.9275 169.92 
L 194.625 169.92 
L 195.3225 169.92 
L 196.02 169.92 
L 196.7175 169.92 
L 197.415 169.92 
L 198.1125 169.92 
L 198.81 169.92 
L 199.5075 169.92 
L 200.205 169.92 
L 200.9025 169.92 
L 201.6 169.92 
L 202.2975 169.92 
L 202.995 169.92 
L 203.6925 169.92 
L 204.39 169.92 
L 205.0875 169.92 
L 205.785 169.92 
L 206.4825 169.92 
L 207.18 169.92 
L 207.8775 169.92 
L 208.575 169.92 
L 209.2725 169.92 
L 209.97 169.92 
L 210.6675 169.92 
L 211.365 169.92 
L 212.0625 169.92 
L 212.76 169.92 
L 213.4575 169.92 
L 214.155 169.92 
L 214.8525 169.92 
L 215.55 169.92 
L 216.2475 169.92 
L 216.945 169.92 
L 217.6425 169.92 
L 218.34 169.92 
L 219.0375 169.92 
L 219.735 169.92 
L 220.4325 169.92 
L 221.13 169.92 
L 221.8275 169.92 
L 222.525 169.92 
L 223.2225 169.92 
L 223.92 169.92 
L 224.6175 169.92 
L 225.315 169.92 
L 226.0125 169.92 
L 226.71 169.92 
L 227.4075 169.92 
L 228.105 169.92 
L 228.8025 169.92 
L 229.5 169.92 
L 230.1975 169.92 
L 230.895 169.92 
L 231.5925 169.92 
L 232.29 169.92 
L 232.9875 169.92 
L 233.685 169.92 
L 234.3825 169.92 
L 235.08 169.92 
L 235.7775 169.92 
L 236.475 169.92 
L 237.1725 169.92 
L 237.87 169.92 
L 238.5675 169.92 
L 239.265 169.92 
L 239.9625 169.92 
L 240.66 169.92 
L 241.3575 169.92 
L 242.055 169.92 
L 242.7525 169.92 
L 243.45 169.92 
L 244.1475 169.92 
L 244.845 169.92 
L 245.5425 169.92 
L 246.24 169.92 
L 246.9375 169.92 
L 247.635 169.92 
L 248.3325 169.92 
L 249.03 169.92 
L 249.7275 169.92 
L 250.425 169.92 
L 251.1225 169.92 
L 251.82 169.92 
L 252.5175 169.92 
L 253.215 169.92 
L 253.9125 169.92 
L 254.61 169.92 
L 255.3075 169.92 
L 256.005 169.92 
L 256.7025 169.92 
L 257.4 169.92 
L 258.0975 169.92 
L 258.795 169.92 
L 259.4925 169.92 
L 260.19 169.92 
L 260.8875 169.92 
L 261.585 169.92 
L 262.2825 169.92 
L 262.98 169.92 
L 263.6775 169.92 
L 264.375 169.92 
L 265.0725 169.92 
L 265.77 169.92 
L 266.4675 169.92 
L 267.165 169.92 
L 267.8625 169.92 
L 268.56 169.92 
L 269.2575 169.92 
L 269.955 169.92 
L 270.6525 169.92 
L 271.35 169.92 
L 272.0475 169.92 
L 272.745 169.92 
L 273.4425 169.92 
L 274.14 169.92 
L 274.8375 169.92 
L 275.535 169.92 
L 276.2325 169.92 
L 276.93 169.92 
L 277.6275 169.92 
L 278.325 169.92 
L 279.0225 169.92 
L 279.72 169.92 
L 280.4175 169.92 
L 281.115 169.92 
L 281.8125 169.92 
L 282.51 169.92 
L 283.2075 169.92 
L 283.905 169.92 
L 284.6025 169.92 
L 285.3 169.92 
L 285.9975 169.92 
L 286.695 169.92 
L 287.3925 169.92 
L 288.09 169.92 
L 288.7875 169.92 
L 289.485 169.92 
L 290.1825 169.92 
L 290.88 169.92 
L 291.5775 169.92 
L 292.275 169.92 
L 292.9725 169.92 
L 293.67 169.92 
L 294.3675 169.92 
L 295.065 169.92 
L 295.7625 169.92 
L 296.46 169.92 
L 297.1575 169.92 
L 297.855 169.92 
L 298.5525 169.92 
L 299.25 169.92 
L 299.9475 169.92 
L 300.645 169.92 
L 301.3425 169.92 
L 302.04 169.92 
L 302.7375 169.92 
L 303.435 169.92 
L 304.1325 169.92 
L 304.83 169.92 
L 305.5275 169.92 
L 306.225 169.92 
L 306.9225 169.92 
L 307.62 169.92 
L 308.3175 169.92 
L 309.015 169.92 
L 309.7125 169.92 
L 310.41 169.92 
L 311.1075 169.92 
L 311.805 169.92 
L 312.5025 169.92 
L 313.2 169.92 
L 313.8975 169.92 
L 314.595 169.92 
L 315.2925 169.92 
L 315.99 169.92 
L 316.6875 169.92 
L 317.385 169.92 
L 318.0825 169.92 
L 318.78 169.92 
L 319.4775 169.92 
L 320.175 169.92 
L 320.8725 169.92 
L 321.57 169.92 
L 322.2675 169.92 
L 322.965 169.92 
L 323.6625 169.92 
L 324.36 169.92 
L 325.0575 169.92 
L 325.755 169.92 
L 326.4525 169.92 
L 327.15 169.92 
L 327.8475 169.92 
L 328.545 169.92 
L 329.2425 169.92 
L 329.94 169.92 
L 330.6375 169.92 
L 331.335 169.92 
L 332.0325 169.92 
L 332.73 169.92 
L 333.4275 169.92 
L 334.125 169.92 
L 334.8225 169.92 
L 335.52 169.92 
L 336.2175 169.92 
L 336.915 169.92 
L 337.6125 169.92 
L 338.31 169.92 
L 339.0075 169.92 
L 339.705 169.92 
L 340.4025 169.92 
L 341.1 169.92 
L 341.7975 169.92 
L 342.495 169.92 
L 343.1925 169.92 
L 343.89 169.92 
L 344.5875 169.92 
L 345.285 169.92 
L 345.9825 169.92 
L 346.68 169.92 
L 347.3775 169.92 
L 348.075 169.92 
L 348.7725 169.92 
L 349.47 169.92 
L 350.1675 169.92 
L 350.865 169.92 
L 351.5625 169.92 
L 352.26 169.92 
L 352.9575 169.92 
L 353.655 169.92 
L 354.3525 169.92 
L 355.05 169.92 
L 355.7475 169.92 
L 356.445 169.92 
L 357.1425 169.92 
L 357.84 169.92 
L 358.5375 169.92 
L 359.235 169.92 
L 359.9325 169.92 
L 360.63 169.92 
L 361.3275 169.92 
L 362.025 169.92 
L 362.7225 169.92 
L 363.42 169.92 
L 364.1175 169.92 
L 364.815 169.92 
L 365.5125 169.92 
L 366.21 169.92 
L 366.9075 169.92 
L 367.605 169.92 
L 368.3025 169.92 
L 369 169.92 
L 369.6975 169.92 
L 370.395 169.92 
L 371.0925 169.92 
L 371.79 169.92 
L 372.4875 169.92 
L 373.185 169.92 
L 373.8825 169.92 
L 374.58 169.92 
L 375.2775 169.92 
L 375.975 169.92 
L 376.6725 169.92 
L 377.37 169.92 
L 378.0675 169.92 
L 378.765 169.92 
L 379.4625 169.92 
L 380.16 169.92 
L 380.8575 169.92 
L 381.555 169.92 
L 382.2525 169.92 
L 382.95 169.92 
L 383.6475 169.92 
L 384.345 169.92 
L 385.0425 169.92 
L 385.74 169.92 
L 386.4375 169.92 
L 387.135 169.92 
L 387.8325 169.92 
L 388.53 169.92 
L 389.2275 169.92 
L 389.925 169.92 
L 390.6225 169.92 
L 391.32 169.92 
L 392.0175 169.92 
L 392.715 169.92 
L 393.4125 169.92 
L 394.11 169.92 
L 394.8075 169.92 
L 395.505 169.92 
L 396.2025 169.92 
L 396.9 169.92 
L 397.5975 169.92 
L 398.295 169.92 
L 398.9925 169.92 
L 399.69 169.92 
L 400.3875 169.92 
L 401.085 169.92 
L 401.7825 169.92 
L 402.48 169.92 
L 403.1775 169.92 
L 403.875 169.92 
L 404.5725 169.92 
L 405.27 169.92 
L 405.9675 169.92 
L 406.665 169.92 
L 407.3625 169.92 
L 408.06 169.92 
L 408.7575 169.92 
L 409.455 169.92 
L 410.1525 169.92 
L 410.85 169.92 
L 411.5475 169.92 
L 412.245 169.92 
L 412.9425 169.92 
L 413.64 169.92 
L 414.3375 169.92 
L 415.035 169.92 
L 415.7325 169.92 
L 416.43 169.92 
L 417.1275 169.92 
L 417.825 169.92 
L 418.5225 169.92 
L 419.22 169.92 
L 419.9175 169.92 
L 420.615 169.92 
L 421.3125 169.92 
L 422.01 169.92 
L 422.7075 169.92 
L 423.405 169.92 
L 424.1025 169.92 
L 424.8 169.92 
L 425.4975 169.92 
L 426.195 169.92 
L 426.8925 169.92 
L 427.59 169.92 
L 428.2875 169.92 
L 428.985 169.92 
L 429.6825 169.92 
L 430.38 169.92 
L 431.0775 169.92 
L 431.775 169.92 
L 432.4725 169.92 
L 433.17 169.92 
L 433.8675 169.92 
L 434.565 169.92 
L 435.2625 169.92 
L 435.96 169.92 
L 436.6575 169.92 
L 437.355 169.92 
L 438.0525 169.92 
L 438.75 169.92 
L 439.4475 169.92 
L 440.145 169.92 
L 440.8425 169.92 
L 441.54 169.92 
L 442.2375 169.92 
L 442.935 169.92 
L 443.6325 169.92 
L 444.33 169.92 
L 445.0275 169.92 
L 445.725 169.92 
L 446.4225 169.92 
L 447.12 169.92 
L 447.8175 169.92 
L 448.515 169.92 
L 449.2125 169.92 
L 449.91 169.92 
L 450.6075 169.92 
L 451.305 169.92 
L 452.0025 169.92 
L 452.7 169.92 
L 453.3975 169.92 
L 454.095 169.92 
L 454.7925 169.92 
L 455.49 169.92 
L 456.1875 169.92 
L 456.885 169.92 
L 457.5825 169.92 
L 458.28 169.92 
L 458.9775 169.92 
L 459.675 169.92 
L 460.3725 169.92 
L 461.07 169.92 
L 461.7675 169.92 
L 462.465 169.92 
L 463.1625 169.92 
L 463.86 169.92 
L 464.5575 169.92 
L 465.255 169.92 
L 465.9525 169.92 
L 466.65 169.92 
L 467.3475 169.92 
L 468.045 169.92 
L 468.7425 169.92 
L 469.44 169.92 
L 470.1375 169.92 
L 470.835 169.92 
L 471.5325 169.92 
L 472.23 169.92 
L 472.9275 169.92 
L 473.625 169.92 
L 474.3225 169.92 
L 475.02 169.92 
L 475.7175 169.92 
L 476.415 169.92 
L 477.1125 169.92 
L 477.81 169.92 
L 478.5075 169.92 
L 479.205 169.92 
L 479.9025 169.92 
L 480.6 169.92 
L 481.2975 169.92 
L 481.995 169.92 
L 482.6925 169.92 
L 483.39 169.92 
L 484.0875 169.92 
L 484.785 169.92 
L 485.4825 169.92 
L 486.18 169.92 
L 486.8775 169.92 
L 487.575 169.92 
L 488.2725 169.92 
L 488.97 169.92 
L 489.6675 169.92 
L 490.365 169.92 
L 491.0625 169.92 
L 491.76 169.92 
L 492.4575 169.92 
L 493.155 169.92 
L 493.8525 169.92 
L 494.55 169.92 
L 495.2475 169.92 
L 495.945 169.92 
L 496.6425 169.92 
L 497.34 169.92 
L 498.0375 169.92 
L 498.735 169.92 
L 499.4325 169.92 
L 500.13 169.92 
L 500.8275 169.92 
L 501.525 169.92 
L 502.2225 169.92 
L 502.92 169.92 
L 503.6175 169.92 
L 504.315 169.92 
L 505.0125 169.92 
L 505.71 169.92 
L 506.4075 169.92 
L 507.105 169.92 
L 507.8025 169.92 
L 508.5 169.92 
L 509.1975 169.92 
L 509.895 169.92 
L 510.5925 169.92 
L 511.29 169.92 
L 511.9875 169.92 
L 512.685 169.92 
L 513.3825 169.92 
L 514.08 169.92 
L 514.7775 169.92 
L 515.475 169.92 
L 516.1725 169.92 
L 516.87 169.92 
L 517.5675 169.92 
L 518.265 169.92 
L 518.9625 169.92 
L 519.66 169.92 
L 520.3575 169.92 
L 521.055 169.92 
L 521.7525 169.92 
L 522.45 169.92 
L 523.1475 169.92 
L 523.845 169.92 
L 524.5425 169.92 
L 525.24 169.92 
L 525.9375 169.92 
L 526.635 169.92 
L 527.3325 169.92 
L 528.03 169.92 
L 528.7275 169.92 
L 529.425 169.92 
L 530.1225 169.92 
L 530.82 169.92 
L 531.5175 169.92 
L 532.215 169.92 
L 532.9125 169.92 
L 533.61 169.92 
L 534.3075 169.92 
L 535.005 169.92 
L 535.7025 169.92 
L 536.4 169.92 
L 537.0975 169.92 
L 537.795 169.92 
L 538.4925 169.92 
L 539.19 169.92 
L 539.8875 169.92 
L 540.585 169.92 
L 541.2825 169.92 
L 541.98 169.92 
L 542.6775 169.92 
L 543.375 169.92 
L 544.0725 169.92 
L 544.77 169.92 
L 545.4675 169.92 
L 546.165 169.92 
L 546.8625 169.92 
L 547.56 169.92 
L 548.2575 169.92 
L 548.955 169.92 
L 549.6525 169.92 
L 550.35 169.92 
L 551.0475 169.92 
L 551.745 169.92 
L 552.4425 169.92 
L 553.14 169.92 
L 553.8375 169.92 
L 554.535 169.92 
L 555.2325 169.92 
L 555.93 169.92 
L 556.6275 169.92 
L 557.325 169.92 
L 558.0225 169.92 
L 558.72 169.92 
L 559.4175 169.92 
L 560.115 169.92 
L 560.8125 169.92 
L 561.51 169.92 
L 562.2075 169.92 
L 562.905 169.92 
L 563.6025 169.92 
L 564.3 169.92 
L 564.9975 169.92 
L 565.695 169.92 
L 566.3925 169.92 
L 567.09 169.92 
L 567.7875 169.92 
L 568.485 169.92 
L 569.1825 169.92 
L 569.88 169.92 
L 570.5775 169.92 
L 571.275 169.92 
L 571.9725 169.92 
L 572.67 169.92 
L 573.3675 169.92 
L 574.065 169.92 
L 574.7625 169.92 
L 575.46 169.92 
L 576.1575 169.92 
L 576.855 169.92 
L 577.5525 169.92 
L 578.25 169.92 
L 578.9475 169.92 
L 579.645 169.92 
L 580.3425 169.92 
L 581.04 169.92 
L 581.7375 169.92 
L 582.435 169.92 
L 583.1325 169.92 
L 583.83 169.92 
L 584.5275 169.92 
L 585.225 169.92 
L 585.9225 169.92 
L 586.62 169.92 
L 587.3175 169.92 
L 588.015 169.92 
L 588.7125 169.92 
L 589.41 169.92 
L 590.1075 169.92 
L 590.805 169.92 
L 591.5025 169.92 
L 592.2 169.92 
L 592.8975 169.92 
L 593.595 169.92 
L 594.2925 169.92 
L 594.99 169.92 
L 595.6875 169.92 
L 596.385 169.92 
L 597.0825 169.92 
L 597.78 169.92 
L 598.4775 169.92 
L 599.175 169.92 
L 599.8725 169.92 
L 600.57 169.92 
L 601.2675 169.92 
L 601.965 169.92 
L 602.6625 169.92 
L 603.36 169.92 
L 604.0575 169.92 
L 604.755 169.92 
L 605.4525 169.92 
L 606.15 169.92 
L 606.8475 169.92 
L 607.545 169.92 
L 608.2425 169.92 
L 608.94 169.92 
L 609.6375 169.92 
L 610.335 169.92 
L 611.0325 169.92 
L 611.73 169.92 
L 612.4275 169.92 
L 613.125 169.92 
L 613.8225 169.92 
L 614.52 169.92 
L 615.2175 169.92 
L 615.915 169.92 
L 616.6125 169.92 
L 617.31 169.92 
L 618.0075 169.92 
L 618.705 169.92 
L 619.4025 169.92 
L 620.1 169.92 
L 620.7975 169.92 
L 621.495 169.92 
L 622.1925 169.92 
L 622.89 169.92 
L 623.5875 169.92 
L 624.285 169.92 
L 624.9825 169.92 
L 625.68 169.92 
L 626.3775 169.92 
L 627.075 169.92 
L 627.7725 169.92 
L 628.47 169.92 
L 629.1675 169.92 
L 629.865 169.92 
L 630.5625 169.92 
L 631.26 169.92 
L 631.9575 169.92 
L 632.655 169.92 
L 633.3525 169.92 
L 634.05 169.92 
L 634.7475 169.92 
L 635.445 169.92 
L 636.1425 169.92 
L 636.84 169.92 
L 637.5375 169.92 
L 638.235 169.92 
L 638.9325 169.92 
L 639.63 169.92 
L 640.3275 169.92 
L 641.025 169.92 
L 641.7225 169.92 
L 642.42 169.92 
L 643.1175 169.92 
L 643.815 169.92 
L 644.5125 169.92 
L 645.21 169.92 
L 645.9075 169.92 
L 646.605 169.92 
L 646.605 169.92 
L 646.605 169.92 
L 645.9075 169.950751 
L 645.21 170.03266 
L 644.5125 170.138139 
L 643.815 170.27028 
L 643.1175 170.435507 
L 642.42 170.619644 
L 641.7225 170.818705 
L 641.025 171.055995 
L 640.3275 171.317112 
L 639.63 171.597835 
L 638.9325 171.914381 
L 638.235 172.245271 
L 637.5375 172.603152 
L 636.84 172.980086 
L 636.1425 173.378325 
L 635.445 173.796641 
L 634.7475 174.230325 
L 634.05 174.671206 
L 633.3525 175.114505 
L 632.655 175.579354 
L 631.9575 176.050653 
L 631.26 176.533779 
L 630.5625 177.030659 
L 629.865 177.543175 
L 629.1675 178.049244 
L 628.47 178.564389 
L 627.7725 179.083602 
L 627.075 179.615532 
L 626.3775 180.138035 
L 625.68 180.663165 
L 624.9825 181.182469 
L 624.285 181.68751 
L 623.5875 182.200646 
L 622.89 182.699793 
L 622.1925 183.19366 
L 621.495 183.677306 
L 620.7975 184.142405 
L 620.1 184.57727 
L 619.4025 185.004477 
L 618.705 185.405624 
L 618.0075 185.786304 
L 617.31 186.135094 
L 616.6125 186.447499 
L 615.915 186.73964 
L 615.2175 186.99353 
L 614.52 187.211803 
L 613.8225 187.404035 
L 613.125 187.562799 
L 612.4275 187.680772 
L 611.73 187.761006 
L 611.0325 187.820338 
L 610.335 187.848334 
L 609.6375 187.834657 
L 608.94 187.7896 
L 608.2425 187.706468 
L 607.545 187.578685 
L 606.8475 187.423729 
L 606.15 187.23866 
L 605.4525 187.017218 
L 604.755 186.736168 
L 604.0575 186.427128 
L 603.36 186.063718 
L 602.6625 185.664144 
L 601.965 185.215972 
L 601.2675 184.727418 
L 600.57 184.196575 
L 599.8725 183.621664 
L 599.175 183.011293 
L 598.4775 182.346846 
L 597.78 181.657707 
L 597.0825 180.91867 
L 596.385 180.145682 
L 595.6875 179.334297 
L 594.99 178.487019 
L 594.2925 177.616714 
L 593.595 176.708983 
L 592.8975 175.77688 
L 592.2 174.813031 
L 591.5025 173.81016 
L 590.805 172.791865 
L 590.1075 171.757872 
L 589.41 170.704538 
L 588.7125 169.628281 
L 588.015 168.546091 
L 587.3175 167.464726 
L 586.62 166.373855 
L 585.9225 165.276846 
L 585.225 164.166834 
L 584.5275 163.05408 
L 583.83 161.948852 
L 583.1325 160.861396 
L 582.435 159.79165 
L 581.7375 158.736084 
L 581.04 157.697955 
L 580.3425 156.680469 
L 579.645 155.676515 
L 578.9475 154.699443 
L 578.25 153.742018 
L 577.5525 152.807195 
L 576.855 151.914945 
L 576.1575 151.047521 
L 575.46 150.231517 
L 574.7625 149.438701 
L 574.065 148.678355 
L 573.3675 147.959658 
L 572.67 147.274578 
L 571.9725 146.649149 
L 571.275 146.068216 
L 570.5775 145.530156 
L 569.88 145.033213 
L 569.1825 144.596005 
L 568.485 144.19938 
L 567.7875 143.844563 
L 567.09 143.553149 
L 566.3925 143.312372 
L 565.695 143.122975 
L 564.9975 142.992375 
L 564.3 142.931226 
L 563.6025 142.92605 
L 562.905 142.970029 
L 562.2075 143.083529 
L 561.51 143.252531 
L 560.8125 143.483347 
L 560.115 143.778683 
L 559.4175 144.134208 
L 558.72 144.555661 
L 558.0225 145.028072 
L 557.325 145.567068 
L 556.6275 146.150483 
L 555.93 146.797018 
L 555.2325 147.484176 
L 554.535 148.223504 
L 553.8375 149.016136 
L 553.14 149.845958 
L 552.4425 150.734327 
L 551.745 151.651165 
L 551.0475 152.617561 
L 550.35 153.613447 
L 549.6525 154.65625 
L 548.955 155.725668 
L 548.2575 156.811565 
L 547.56 157.927674 
L 546.8625 159.07055 
L 546.165 160.233248 
L 545.4675 161.405345 
L 544.77 162.590058 
L 544.0725 163.780312 
L 543.375 164.97585 
L 542.6775 166.169566 
L 541.98 167.374858 
L 541.2825 168.564089 
L 540.585 169.747254 
L 539.8875 170.920703 
L 539.19 172.077395 
L 538.4925 173.227427 
L 537.795 174.360417 
L 537.0975 175.476284 
L 536.4 176.571583 
L 535.7025 177.64635 
L 535.005 178.687018 
L 534.3075 179.707458 
L 533.61 180.684019 
L 532.9125 181.634188 
L 532.215 182.537948 
L 531.5175 183.409593 
L 530.82 184.243016 
L 530.1225 185.032228 
L 529.425 185.788459 
L 528.7275 186.488876 
L 528.03 187.144981 
L 527.3325 187.751335 
L 526.635 188.302648 
L 525.9375 188.793802 
L 525.24 189.230114 
L 524.5425 189.606821 
L 523.845 189.926176 
L 523.1475 190.190612 
L 522.45 190.385643 
L 521.7525 190.517503 
L 521.055 190.578949 
L 520.3575 190.576627 
L 519.66 190.51396 
L 518.9625 190.387725 
L 518.265 190.194895 
L 517.5675 189.949731 
L 516.87 189.646158 
L 516.1725 189.278279 
L 515.475 188.860896 
L 514.7775 188.391881 
L 514.08 187.872682 
L 513.3825 187.304901 
L 512.685 186.683457 
L 511.9875 186.006853 
L 511.29 185.280592 
L 510.5925 184.513751 
L 509.895 183.71553 
L 509.1975 182.878143 
L 508.5 182.014424 
L 507.8025 181.109957 
L 507.105 180.19145 
L 506.4075 179.248071 
L 505.71 178.286149 
L 505.0125 177.298404 
L 504.315 176.30155 
L 503.6175 175.298666 
L 502.92 174.282595 
L 502.2225 173.276977 
L 501.525 172.26783 
L 500.8275 171.265103 
L 500.13 170.261641 
L 499.4325 169.263958 
L 498.735 168.285384 
L 498.0375 167.325523 
L 497.34 166.387338 
L 496.6425 165.470308 
L 495.945 164.584097 
L 495.2475 163.73144 
L 494.55 162.921804 
L 493.8525 162.137187 
L 493.155 161.397094 
L 492.4575 160.683308 
L 491.76 160.018536 
L 491.0625 159.394576 
L 490.365 158.813357 
L 489.6675 158.273254 
L 488.97 157.78277 
L 488.2725 157.336583 
L 487.575 156.939489 
L 486.8775 156.606379 
L 486.18 156.33145 
L 485.4825 156.108716 
L 484.785 155.938863 
L 484.0875 155.832668 
L 483.39 155.783624 
L 482.6925 155.78505 
L 481.995 155.836939 
L 481.2975 155.945967 
L 480.6 156.104963 
L 479.9025 156.316852 
L 479.205 156.577564 
L 478.5075 156.893129 
L 477.81 157.252321 
L 477.1125 157.660865 
L 476.415 158.110667 
L 475.7175 158.614005 
L 475.02 159.152242 
L 474.3225 159.727133 
L 473.625 160.336903 
L 472.9275 160.976254 
L 472.23 161.643212 
L 471.5325 162.335719 
L 470.835 163.06872 
L 470.1375 163.822869 
L 469.44 164.599256 
L 468.7425 165.402316 
L 468.045 166.226155 
L 467.3475 167.061397 
L 466.65 167.912295 
L 465.9525 168.783058 
L 465.255 169.670998 
L 464.5575 170.563124 
L 463.86 171.45668 
L 463.1625 172.359161 
L 462.465 173.254113 
L 461.7675 174.162691 
L 461.07 175.058174 
L 460.3725 175.941212 
L 459.675 176.809082 
L 458.9775 177.655687 
L 458.28 178.47158 
L 457.5825 179.274744 
L 456.885 180.055865 
L 456.1875 180.802284 
L 455.49 181.515111 
L 454.7925 182.209232 
L 454.095 182.865419 
L 453.3975 183.48848 
L 452.7 184.076493 
L 452.0025 184.631059 
L 451.305 185.147049 
L 450.6075 185.622871 
L 449.91 186.060472 
L 449.2125 186.455086 
L 448.515 186.808911 
L 447.8175 187.117438 
L 447.12 187.372881 
L 446.4225 187.581285 
L 445.725 187.745424 
L 445.0275 187.861374 
L 444.33 187.939027 
L 443.6325 187.964478 
L 442.935 187.937646 
L 442.2375 187.855199 
L 441.54 187.731058 
L 440.8425 187.555356 
L 440.145 187.338885 
L 439.4475 187.072063 
L 438.75 186.769382 
L 438.0525 186.414691 
L 437.355 186.015919 
L 436.6575 185.574296 
L 435.96 185.084353 
L 435.2625 184.554435 
L 434.565 183.982761 
L 433.8675 183.374513 
L 433.17 182.724734 
L 432.4725 182.042264 
L 431.775 181.322376 
L 431.0775 180.567291 
L 430.38 179.779341 
L 429.6825 178.964375 
L 428.985 178.121491 
L 428.2875 177.253291 
L 427.59 176.359039 
L 426.8925 175.44491 
L 426.195 174.517145 
L 425.4975 173.57519 
L 424.8 172.621951 
L 424.1025 171.66379 
L 423.405 170.696829 
L 422.7075 169.73772 
L 422.01 168.772341 
L 421.3125 167.810504 
L 420.615 166.855178 
L 419.9175 165.905896 
L 419.22 164.965588 
L 418.5225 164.037156 
L 417.825 163.1303 
L 417.1275 162.240984 
L 416.43 161.375372 
L 415.7325 160.532718 
L 415.035 159.70879 
L 414.3375 158.919798 
L 413.64 158.16476 
L 412.9425 157.439174 
L 412.245 156.758948 
L 411.5475 156.115928 
L 410.85 155.505268 
L 410.1525 154.935686 
L 409.455 154.40894 
L 408.7575 153.926655 
L 408.06 153.486904 
L 407.3625 153.087627 
L 406.665 152.740308 
L 405.9675 152.428933 
L 405.27 152.164716 
L 404.5725 151.941636 
L 403.875 151.770635 
L 403.1775 151.648822 
L 402.48 151.56974 
L 401.7825 151.543884 
L 401.085 151.557667 
L 400.3875 151.617878 
L 399.69 151.72775 
L 398.9925 151.876692 
L 398.295 152.067662 
L 397.5975 152.31032 
L 396.9 152.597085 
L 396.2025 152.930487 
L 395.505 153.302665 
L 394.8075 153.715885 
L 394.11 154.168872 
L 393.4125 154.646562 
L 392.715 155.161146 
L 392.0175 155.711036 
L 391.32 156.287702 
L 390.6225 156.90303 
L 389.925 157.53462 
L 389.2275 158.190773 
L 388.53 158.879715 
L 387.8325 159.589068 
L 387.135 160.316642 
L 386.4375 161.070443 
L 385.74 161.834476 
L 385.0425 162.606382 
L 384.345 163.390614 
L 383.6475 164.184749 
L 382.95 164.979504 
L 382.2525 165.769007 
L 381.555 166.55424 
L 380.8575 167.336194 
L 380.16 168.10904 
L 379.4625 168.870391 
L 378.765 169.614482 
L 378.0675 170.335598 
L 377.37 171.041763 
L 376.6725 171.720549 
L 375.975 172.376692 
L 375.2775 173.011585 
L 374.58 173.616434 
L 373.8825 174.192788 
L 373.185 174.735453 
L 372.4875 175.24617 
L 371.79 175.723362 
L 371.0925 176.16214 
L 370.395 176.561149 
L 369.6975 176.919157 
L 369 177.24531 
L 368.3025 177.521518 
L 367.605 177.767428 
L 366.9075 177.968614 
L 366.21 178.124455 
L 365.5125 178.237886 
L 364.815 178.308559 
L 364.1175 178.32942 
L 363.42 178.30724 
L 362.7225 178.242086 
L 362.025 178.13416 
L 361.3275 177.983795 
L 360.63 177.798289 
L 359.9325 177.567963 
L 359.235 177.296946 
L 358.5375 176.989491 
L 357.84 176.63288 
L 357.1425 176.24188 
L 356.445 175.807449 
L 355.7475 175.33776 
L 355.05 174.830848 
L 354.3525 174.281442 
L 353.655 173.698072 
L 352.9575 173.079123 
L 352.26 172.433339 
L 351.5625 171.766129 
L 350.865 171.069302 
L 350.1675 170.348427 
L 349.47 169.605729 
L 348.7725 168.8435 
L 348.075 168.06751 
L 347.3775 167.280153 
L 346.68 166.487278 
L 345.9825 165.687915 
L 345.285 164.881114 
L 344.5875 164.072782 
L 343.89 163.268833 
L 343.1925 162.464912 
L 342.495 161.66692 
L 341.7975 160.877318 
L 341.1 160.095128 
L 340.4025 159.329597 
L 339.705 158.583089 
L 339.0075 157.854491 
L 338.31 157.149468 
L 337.6125 156.466781 
L 336.915 155.81537 
L 336.2175 155.197246 
L 335.52 154.607483 
L 334.8225 154.047901 
L 334.125 153.520228 
L 333.4275 153.02951 
L 332.73 152.573845 
L 332.0325 152.151221 
L 331.335 151.769778 
L 330.6375 151.427276 
L 329.94 151.117938 
L 329.2425 150.849553 
L 328.545 150.633199 
L 327.8475 150.452462 
L 327.15 150.321565 
L 326.4525 150.234079 
L 325.755 150.186858 
L 325.0575 150.183464 
L 324.36 150.223907 
L 323.6625 150.308062 
L 322.965 150.435671 
L 322.2675 150.606338 
L 321.57 150.822954 
L 320.8725 151.088268 
L 320.175 151.394625 
L 319.4775 151.744499 
L 318.78 152.136808 
L 318.0825 152.566926 
L 317.385 153.03694 
L 316.6875 153.548818 
L 315.99 154.097562 
L 315.2925 154.684895 
L 314.595 155.309004 
L 313.8975 155.974797 
L 313.2 156.669968 
L 312.5025 157.388954 
L 311.805 158.129536 
L 311.1075 158.889428 
L 310.41 159.669701 
L 309.7125 160.471364 
L 309.015 161.288525 
L 308.3175 162.122079 
L 307.62 162.962618 
L 306.9225 163.814383 
L 306.225 164.671327 
L 305.5275 165.541055 
L 304.83 166.420883 
L 304.1325 167.301262 
L 303.435 168.18289 
L 302.7375 169.066464 
L 302.04 169.942421 
L 301.3425 170.811476 
L 300.645 171.670945 
L 299.9475 172.518176 
L 299.25 173.350554 
L 298.5525 174.165508 
L 297.855 174.960524 
L 297.1575 175.739982 
L 296.46 176.498057 
L 295.7625 177.232412 
L 295.065 177.93736 
L 294.3675 178.614145 
L 293.67 179.260676 
L 292.9725 179.874959 
L 292.275 180.458512 
L 291.5775 181.002703 
L 290.88 181.512684 
L 290.1825 181.980048 
L 289.485 182.410186 
L 288.7875 182.798352 
L 288.09 183.14335 
L 287.3925 183.447531 
L 286.695 183.706539 
L 285.9975 183.922992 
L 285.3 184.089387 
L 284.6025 184.215462 
L 283.905 184.297411 
L 283.2075 184.33498 
L 282.51 184.328054 
L 281.8125 184.276654 
L 281.115 184.180939 
L 280.4175 184.041204 
L 279.72 183.861297 
L 279.0225 183.638357 
L 278.325 183.373072 
L 277.6275 183.069678 
L 276.93 182.729111 
L 276.2325 182.349006 
L 275.535 181.933952 
L 274.8375 181.485232 
L 274.14 181.007646 
L 273.4425 180.499252 
L 272.745 179.958203 
L 272.0475 179.393002 
L 271.35 178.79856 
L 270.6525 178.18013 
L 269.955 177.539619 
L 269.2575 176.875589 
L 268.56 176.196922 
L 267.8625 175.505714 
L 267.165 174.807514 
L 266.4675 174.097645 
L 265.77 173.381714 
L 265.0725 172.661932 
L 264.375 171.937102 
L 263.6775 171.216297 
L 262.98 170.494907 
L 262.2825 169.771743 
L 261.585 169.05587 
L 260.8875 168.346081 
L 260.19 167.647984 
L 259.4925 166.963734 
L 258.795 166.295443 
L 258.0975 165.645173 
L 257.4 165.014933 
L 256.7025 164.406667 
L 256.005 163.822252 
L 255.3075 163.26691 
L 254.61 162.735522 
L 253.9125 162.233144 
L 253.215 161.757909 
L 252.5175 161.314703 
L 251.82 160.901476 
L 251.1225 160.519504 
L 250.425 160.173382 
L 249.7275 159.864179 
L 249.03 159.592849 
L 248.3325 159.36023 
L 247.635 159.167041 
L 246.9375 159.013876 
L 246.24 158.894376 
L 245.5425 158.815743 
L 244.845 158.774802 
L 244.1475 158.778514 
L 243.45 158.820034 
L 242.7525 158.902651 
L 242.055 159.022691 
L 241.3575 159.176369 
L 240.66 159.370044 
L 239.9625 159.5997 
L 239.265 159.864629 
L 238.5675 160.160597 
L 237.87 160.486689 
L 237.1725 160.845316 
L 236.475 161.235371 
L 235.7775 161.652234 
L 235.08 162.098033 
L 234.3825 162.571394 
L 233.685 163.070855 
L 232.9875 163.591458 
L 232.29 164.131595 
L 231.5925 164.696433 
L 230.895 165.280811 
L 230.1975 165.87951 
L 229.5 166.494097 
L 228.8025 167.115843 
L 228.105 167.749661 
L 227.4075 168.390178 
L 226.71 169.035417 
L 226.0125 169.686804 
L 225.315 170.33891 
L 224.6175 170.989724 
L 223.92 171.637235 
L 223.2225 172.279446 
L 222.525 172.914374 
L 221.8275 173.540059 
L 221.13 174.154569 
L 220.4325 174.752592 
L 219.735 175.335698 
L 219.0375 175.898671 
L 218.34 176.443188 
L 217.6425 176.967571 
L 216.945 177.470199 
L 216.2475 177.949522 
L 215.55 178.404059 
L 214.8525 178.832409 
L 214.155 179.233249 
L 213.4575 179.608757 
L 212.76 179.954359 
L 212.0625 180.268988 
L 211.365 180.555088 
L 210.6675 180.808361 
L 209.97 181.028025 
L 209.2725 181.2134 
L 208.575 181.363916 
L 207.8775 181.479108 
L 207.18 181.55862 
L 206.4825 181.602206 
L 205.785 181.609732 
L 205.0875 181.581176 
L 204.39 181.516624 
L 203.6925 181.416276 
L 202.995 181.280443 
L 202.2975 181.116376 
L 201.6 180.917749 
L 200.9025 180.685175 
L 200.205 180.419371 
L 199.5075 180.121159 
L 198.81 179.791458 
L 198.1125 179.434704 
L 197.415 179.04858 
L 196.7175 178.634279 
L 196.02 178.193079 
L 195.3225 177.726342 
L 194.625 177.235509 
L 193.9275 176.722095 
L 193.23 176.187684 
L 192.5325 175.633927 
L 191.835 175.062532 
L 191.1375 174.475264 
L 190.44 173.873935 
L 189.7425 173.260401 
L 189.045 172.636556 
L 188.3475 172.004326 
L 187.65 171.365662 
L 186.9525 170.722536 
L 186.255 170.076932 
L 185.5575 169.430844 
L 184.86 168.786266 
L 184.1625 168.145188 
L 183.465 167.509588 
L 182.7675 166.881428 
L 182.07 166.262647 
L 181.3725 165.655156 
L 180.675 165.060829 
L 179.9775 164.481502 
L 179.28 163.918961 
L 178.5825 163.374944 
L 177.885 162.85113 
L 177.1875 162.349136 
L 176.49 161.870511 
L 175.7925 161.416733 
L 175.095 160.989202 
L 174.3975 160.589238 
L 173.7 160.218076 
L 173.0025 159.876861 
L 172.305 159.566647 
L 171.6075 159.28839 
L 170.91 159.042951 
L 170.2125 158.831086 
L 169.515 158.65345 
L 168.8175 158.510591 
L 168.12 158.40295 
L 167.4225 158.327442 
L 166.725 158.287717 
L 166.0275 158.283899 
L 165.33 158.315997 
L 164.6325 158.383915 
L 163.935 158.487441 
L 163.2375 158.626256 
L 162.54 158.799933 
L 161.8425 159.004517 
L 161.145 159.242794 
L 160.4475 159.51403 
L 159.75 159.817385 
L 159.0525 160.151925 
L 158.355 160.516617 
L 157.6575 160.910334 
L 156.96 161.331862 
L 156.2625 161.779899 
L 155.565 162.253063 
L 154.8675 162.749892 
L 154.17 163.268853 
L 153.4725 163.808345 
L 152.775 164.366702 
L 152.0775 164.938784 
L 151.38 165.526242 
L 150.6825 166.123845 
L 149.985 166.733166 
L 149.2875 167.352323 
L 148.59 167.979407 
L 147.8925 168.61248 
L 147.195 169.24959 
L 146.4975 169.888769 
L 145.8 170.528044 
L 145.1025 171.165443 
L 144.405 171.798997 
L 143.7075 172.426751 
L 143.01 173.046767 
L 142.3125 173.657132 
L 141.615 174.255962 
L 140.9175 174.841407 
L 140.22 175.411661 
L 139.5225 175.961548 
L 138.825 176.492785 
L 138.1275 177.003734 
L 137.43 177.496234 
L 136.7325 177.965348 
L 136.035 178.409629 
L 135.3375 178.827704 
L 134.64 179.218283 
L 133.9425 179.583578 
L 133.245 179.919044 
L 132.5475 180.223645 
L 131.85 180.496442 
L 131.1525 180.736592 
L 130.455 180.943354 
L 129.7575 181.11609 
L 129.06 181.254266 
L 128.3625 181.357457 
L 127.665 181.425343 
L 126.9675 181.457715 
L 126.27 181.454473 
L 125.5725 181.415627 
L 124.875 181.341297 
L 124.1775 181.231712 
L 123.48 181.087212 
L 122.7825 180.908241 
L 122.085 180.695352 
L 121.3875 180.449202 
L 120.69 180.170552 
L 119.9925 179.86026 
L 119.295 179.519286 
L 118.5975 179.148681 
L 117.9 178.74959 
L 117.2025 178.323244 
L 116.505 177.870959 
L 115.8075 177.394132 
L 115.11 176.894234 
L 114.4125 176.372809 
L 113.715 175.831465 
L 113.0175 175.271875 
L 112.32 174.695764 
L 111.6225 174.104912 
L 110.925 173.501142 
L 110.2275 172.886318 
L 109.53 172.262338 
L 108.8325 171.631127 
L 108.135 170.994635 
L 107.4375 170.354826 
L 106.74 169.713674 
L 106.0425 169.07316 
L 105.345 168.435259 
L 104.6475 167.801941 
L 103.95 167.175162 
L 103.2525 166.556854 
L 102.555 165.948928 
L 101.8575 165.35326 
L 101.16 164.771688 
L 100.4625 164.206008 
L 99.765 163.657965 
L 99.0675 163.129251 
L 98.37 162.621499 
L 97.6725 162.136275 
L 96.975 161.675078 
L 96.2775 161.23933 
L 95.58 160.830378 
L 94.8825 160.452899 
L 94.185 160.104643 
L 93.4875 159.786685 
L 92.79 159.500005 
L 92.0925 159.245489 
L 91.395 159.023923 
L 90.6975 158.83599 
L 90 158.682271 
z
" style="fill:#e0ffff;"/>
   </g>
   <g id="line2d_15">
    <path clip-path="url(#p5da1985529)" d="M 90 158.682271 
L 92.0925 159.245489 
L 94.185 160.104643 
L 96.2775 161.23933 
L 98.37 162.621499 
L 101.16 164.771688 
L 104.6475 167.801941 
L 113.0175 175.271875 
L 115.8075 177.394132 
L 117.9 178.74959 
L 119.9925 179.86026 
L 122.085 180.695352 
L 124.1775 181.231712 
L 126.27 181.454473 
L 128.3625 181.357457 
L 130.455 180.943354 
L 132.5475 180.223645 
L 134.64 179.218283 
L 136.7325 177.965348 
L 139.5225 175.961548 
L 142.3125 173.657132 
L 147.195 169.24959 
L 152.0775 164.938784 
L 154.8675 162.749892 
L 156.96 161.331862 
L 159.0525 160.151925 
L 161.145 159.242794 
L 163.2375 158.626256 
L 165.33 158.315997 
L 167.4225 158.327442 
L 169.515 158.65345 
L 171.6075 159.28839 
L 173.7 160.218076 
L 175.7925 161.416733 
L 177.885 162.85113 
L 180.675 165.060829 
L 184.1625 168.145188 
L 191.835 175.062532 
L 194.625 177.235509 
L 196.7175 178.634279 
L 198.81 179.791458 
L 200.9025 180.685175 
L 202.995 181.280443 
L 205.0875 181.581176 
L 207.18 181.55862 
L 209.2725 181.2134 
L 211.365 180.555088 
L 213.4575 179.608757 
L 215.55 178.404059 
L 217.6425 176.967571 
L 220.4325 174.752592 
L 223.92 171.637235 
L 230.895 165.280811 
L 233.685 163.070855 
L 235.7775 161.652234 
L 237.87 160.486689 
L 239.9625 159.5997 
L 242.055 159.022691 
L 243.45 158.820034 
L 244.845 158.774802 
L 246.24 158.894376 
L 248.3325 159.36023 
L 250.425 160.173382 
L 252.5175 161.314703 
L 254.61 162.735522 
L 256.7025 164.406667 
L 259.4925 166.963734 
L 263.6775 171.216297 
L 269.2575 176.875589 
L 272.0475 179.393002 
L 274.14 181.007646 
L 276.2325 182.349006 
L 278.325 183.373072 
L 279.72 183.861297 
L 281.115 184.180939 
L 282.51 184.328054 
L 283.905 184.297411 
L 285.3 184.089387 
L 286.695 183.706539 
L 288.09 183.14335 
L 289.485 182.410186 
L 291.5775 181.002703 
L 293.67 179.260676 
L 295.7625 177.232412 
L 298.5525 174.165508 
L 302.04 169.942421 
L 309.7125 160.471364 
L 312.5025 157.388954 
L 314.595 155.309004 
L 316.6875 153.548818 
L 318.78 152.136808 
L 320.175 151.394625 
L 321.57 150.822954 
L 322.965 150.435671 
L 324.36 150.223907 
L 325.755 150.186858 
L 327.15 150.321565 
L 328.545 150.633199 
L 329.94 151.117938 
L 332.0325 152.151221 
L 334.125 153.520228 
L 336.2175 155.197246 
L 338.31 157.149468 
L 341.1 160.095128 
L 351.5625 171.766129 
L 354.3525 174.281442 
L 356.445 175.807449 
L 358.5375 176.989491 
L 360.63 177.798289 
L 362.7225 178.242086 
L 364.1175 178.32942 
L 365.5125 178.237886 
L 366.9075 177.968614 
L 368.3025 177.521518 
L 369.6975 176.919157 
L 371.79 175.723362 
L 373.8825 174.192788 
L 375.975 172.376692 
L 378.765 169.614482 
L 382.2525 165.769007 
L 387.8325 159.589068 
L 390.6225 156.90303 
L 392.715 155.161146 
L 394.8075 153.715885 
L 396.9 152.597085 
L 398.295 152.067662 
L 399.69 151.72775 
L 401.085 151.557667 
L 402.48 151.56974 
L 403.875 151.770635 
L 405.27 152.164716 
L 406.665 152.740308 
L 408.06 153.486904 
L 410.1525 154.935686 
L 412.245 156.758948 
L 414.3375 158.919798 
L 417.1275 162.240984 
L 420.615 166.855178 
L 428.2875 177.253291 
L 431.0775 180.567291 
L 433.17 182.724734 
L 435.2625 184.554435 
L 437.355 186.015919 
L 438.75 186.769382 
L 440.145 187.338885 
L 441.54 187.731058 
L 442.935 187.937646 
L 444.33 187.939027 
L 445.725 187.745424 
L 447.12 187.372881 
L 448.515 186.808911 
L 450.6075 185.622871 
L 452.7 184.076493 
L 454.7925 182.209232 
L 456.885 180.055865 
L 459.675 176.809082 
L 464.5575 170.563124 
L 468.045 166.226155 
L 470.835 163.06872 
L 472.9275 160.976254 
L 475.02 159.152242 
L 477.1125 157.660865 
L 478.5075 156.893129 
L 479.9025 156.316852 
L 481.2975 155.945967 
L 482.6925 155.78505 
L 484.0875 155.832668 
L 485.4825 156.108716 
L 486.8775 156.606379 
L 488.2725 157.336583 
L 489.6675 158.273254 
L 491.76 160.018536 
L 493.8525 162.137187 
L 495.945 164.584097 
L 498.735 168.285384 
L 504.315 176.30155 
L 507.8025 181.109957 
L 509.895 183.71553 
L 511.9875 186.006853 
L 513.3825 187.304901 
L 514.7775 188.391881 
L 516.1725 189.278279 
L 517.5675 189.949731 
L 518.9625 190.387725 
L 520.3575 190.576627 
L 521.7525 190.517503 
L 523.1475 190.190612 
L 524.5425 189.606821 
L 525.9375 188.793802 
L 527.3325 187.751335 
L 529.425 185.788459 
L 531.5175 183.409593 
L 533.61 180.684019 
L 535.7025 177.64635 
L 539.19 172.077395 
L 544.0725 163.780312 
L 548.2575 156.811565 
L 551.0475 152.617561 
L 553.14 149.845958 
L 555.2325 147.484176 
L 557.325 145.567068 
L 558.72 144.555661 
L 560.115 143.778683 
L 561.51 143.252531 
L 562.905 142.970029 
L 564.3 142.931226 
L 565.695 143.122975 
L 567.09 143.553149 
L 568.485 144.19938 
L 569.88 145.033213 
L 571.9725 146.649149 
L 573.3675 147.959658 
L 575.46 150.231517 
L 577.5525 152.807195 
L 580.3425 156.680469 
L 583.83 161.948852 
L 590.1075 171.757872 
L 592.8975 175.77688 
L 595.6875 179.334297 
L 597.78 181.657707 
L 599.8725 183.621664 
L 601.965 185.215972 
L 603.36 186.063718 
L 604.755 186.736168 
L 606.15 187.23866 
L 608.2425 187.706468 
L 610.335 187.848334 
L 612.4275 187.680772 
L 613.8225 187.404035 
L 615.915 186.73964 
L 618.0075 185.786304 
L 620.7975 184.142405 
L 624.285 181.68751 
L 634.7475 174.230325 
L 637.5375 172.603152 
L 639.63 171.597835 
L 641.7225 170.818705 
L 643.815 170.27028 
L 645.9075 169.950751 
L 646.605 169.92 
L 646.605 169.92 
" style="fill:none;stroke:#008080;stroke-linecap:round;stroke-width:1.75;"/>
   </g>
   <g id="patch_3">
    <path d="M 90 270.72 
L 90 69.12 
" style="fill:none;stroke:#262626;stroke-linecap:square;stroke-linejoin:miter;stroke-width:1.25;"/>
   </g>
   <g id="patch_4">
    <path d="M 90 270.72 
L 648 270.72 
" style="fill:none;stroke:#262626;stroke-linecap:square;stroke-linejoin:miter;stroke-width:1.25;"/>
   </g>
  </g>
  <g id="axes_2">
   <g id="patch_5">
    <path d="M 90 512.64 
L 648 512.64 
L 648 311.04 
L 90 311.04 
z
" style="fill:#ffffff;"/>
   </g>
   <g id="matplotlib.axis_3">
    <g id="xtick_10">
     <g id="line2d_16">
      <g>
       <use style="fill:#262626;stroke:#262626;" x="191.454545" xlink:href="#md098766c91" y="512.64"/>
      </g>
     </g>
     <g id="text_15">
      <!-- 200 -->
      <g style="fill:#262626;" transform="translate(183.113139 532.797812)scale(0.1 -0.1)">
       <use xlink:href="#ArialMT-32"/>
       <use x="55.615234" xlink:href="#ArialMT-30"/>
       <use x="111.230469" xlink:href="#ArialMT-30"/>
      </g>
     </g>
    </g>
    <g id="xtick_11">
     <g id="line2d_17">
      <g>
       <use style="fill:#262626;stroke:#262626;" x="304.181818" xlink:href="#md098766c91" y="512.64"/>
      </g>
     </g>
     <g id="text_16">
      <!-- 400 -->
      <g style="fill:#262626;" transform="translate(295.840412 532.797812)scale(0.1 -0.1)">
       <use xlink:href="#ArialMT-34"/>
       <use x="55.615234" xlink:href="#ArialMT-30"/>
       <use x="111.230469" xlink:href="#ArialMT-30"/>
      </g>
     </g>
    </g>
    <g id="xtick_12">
     <g id="line2d_18">
      <g>
       <use style="fill:#262626;stroke:#262626;" x="416.909091" xlink:href="#md098766c91" y="512.64"/>
      </g>
     </g>
     <g id="text_17">
      <!-- 600 -->
      <g style="fill:#262626;" transform="translate(408.567685 532.797812)scale(0.1 -0.1)">
       <use xlink:href="#ArialMT-36"/>
       <use x="55.615234" xlink:href="#ArialMT-30"/>
       <use x="111.230469" xlink:href="#ArialMT-30"/>
      </g>
     </g>
    </g>
    <g id="xtick_13">
     <g id="line2d_19">
      <g>
       <use style="fill:#262626;stroke:#262626;" x="529.636364" xlink:href="#md098766c91" y="512.64"/>
      </g>
     </g>
     <g id="text_18">
      <!-- 800 -->
      <g style="fill:#262626;" transform="translate(521.294957 532.797812)scale(0.1 -0.1)">
       <use xlink:href="#ArialMT-38"/>
       <use x="55.615234" xlink:href="#ArialMT-30"/>
       <use x="111.230469" xlink:href="#ArialMT-30"/>
      </g>
     </g>
    </g>
    <g id="xtick_14">
     <g id="line2d_20">
      <g>
       <use style="fill:#262626;stroke:#262626;" x="642.363636" xlink:href="#md098766c91" y="512.64"/>
      </g>
     </g>
     <g id="text_19">
      <!-- 1000 -->
      <g style="fill:#262626;" transform="translate(631.241761 532.797812)scale(0.1 -0.1)">
       <use xlink:href="#ArialMT-31"/>
       <use x="55.615234" xlink:href="#ArialMT-30"/>
       <use x="111.230469" xlink:href="#ArialMT-30"/>
       <use x="166.845703" xlink:href="#ArialMT-30"/>
      </g>
     </g>
    </g>
   </g>
   <g id="matplotlib.axis_4">
    <g id="ytick_6">
     <g id="line2d_21">
      <g>
       <use style="fill:#262626;stroke:#262626;" x="90" xlink:href="#m443731c6ed" y="512.64"/>
      </g>
     </g>
     <g id="text_20">
      <!-- 0 -->
      <g style="fill:#262626;" transform="translate(71.439063 516.218906)scale(0.1 -0.1)">
       <use xlink:href="#ArialMT-30"/>
      </g>
     </g>
    </g>
    <g id="ytick_7">
     <g id="line2d_22">
      <g>
       <use style="fill:#262626;stroke:#262626;" x="90" xlink:href="#m443731c6ed" y="490.24"/>
      </g>
     </g>
     <g id="text_21">
      <!-- 2 -->
      <g style="fill:#262626;" transform="translate(71.439063 493.818906)scale(0.1 -0.1)">
       <use xlink:href="#ArialMT-32"/>
      </g>
     </g>
    </g>
    <g id="ytick_8">
     <g id="line2d_23">
      <g>
       <use style="fill:#262626;stroke:#262626;" x="90" xlink:href="#m443731c6ed" y="467.84"/>
      </g>
     </g>
     <g id="text_22">
      <!-- 4 -->
      <g style="fill:#262626;" transform="translate(71.439063 471.418906)scale(0.1 -0.1)">
       <use xlink:href="#ArialMT-34"/>
      </g>
     </g>
    </g>
    <g id="ytick_9">
     <g id="line2d_24">
      <g>
       <use style="fill:#262626;stroke:#262626;" x="90" xlink:href="#m443731c6ed" y="445.44"/>
      </g>
     </g>
     <g id="text_23">
      <!-- 6 -->
      <g style="fill:#262626;" transform="translate(71.439063 449.018906)scale(0.1 -0.1)">
       <use xlink:href="#ArialMT-36"/>
      </g>
     </g>
    </g>
    <g id="ytick_10">
     <g id="line2d_25">
      <g>
       <use style="fill:#262626;stroke:#262626;" x="90" xlink:href="#m443731c6ed" y="423.04"/>
      </g>
     </g>
     <g id="text_24">
      <!-- 8 -->
      <g style="fill:#262626;" transform="translate(71.439063 426.618906)scale(0.1 -0.1)">
       <use xlink:href="#ArialMT-38"/>
      </g>
     </g>
    </g>
    <g id="ytick_11">
     <g id="line2d_26">
      <g>
       <use style="fill:#262626;stroke:#262626;" x="90" xlink:href="#m443731c6ed" y="400.64"/>
      </g>
     </g>
     <g id="text_25">
      <!-- 10 -->
      <g style="fill:#262626;" transform="translate(65.878125 404.218906)scale(0.1 -0.1)">
       <use xlink:href="#ArialMT-31"/>
       <use x="55.615234" xlink:href="#ArialMT-30"/>
      </g>
     </g>
    </g>
    <g id="ytick_12">
     <g id="line2d_27">
      <g>
       <use style="fill:#262626;stroke:#262626;" x="90" xlink:href="#m443731c6ed" y="378.24"/>
      </g>
     </g>
     <g id="text_26">
      <!-- 12 -->
      <g style="fill:#262626;" transform="translate(65.878125 381.818906)scale(0.1 -0.1)">
       <use xlink:href="#ArialMT-31"/>
       <use x="55.615234" xlink:href="#ArialMT-32"/>
      </g>
     </g>
    </g>
    <g id="ytick_13">
     <g id="line2d_28">
      <g>
       <use style="fill:#262626;stroke:#262626;" x="90" xlink:href="#m443731c6ed" y="355.84"/>
      </g>
     </g>
     <g id="text_27">
      <!-- 14 -->
      <g style="fill:#262626;" transform="translate(65.878125 359.418906)scale(0.1 -0.1)">
       <use xlink:href="#ArialMT-31"/>
       <use x="55.615234" xlink:href="#ArialMT-34"/>
      </g>
     </g>
    </g>
    <g id="ytick_14">
     <g id="line2d_29">
      <g>
       <use style="fill:#262626;stroke:#262626;" x="90" xlink:href="#m443731c6ed" y="333.44"/>
      </g>
     </g>
     <g id="text_28">
      <!-- 16 -->
      <g style="fill:#262626;" transform="translate(65.878125 337.018906)scale(0.1 -0.1)">
       <use xlink:href="#ArialMT-31"/>
       <use x="55.615234" xlink:href="#ArialMT-36"/>
      </g>
     </g>
    </g>
    <g id="ytick_15">
     <g id="line2d_30">
      <g>
       <use style="fill:#262626;stroke:#262626;" x="90" xlink:href="#m443731c6ed" y="311.04"/>
      </g>
     </g>
     <g id="text_29">
      <!-- 18 -->
      <g style="fill:#262626;" transform="translate(65.878125 314.618906)scale(0.1 -0.1)">
       <use xlink:href="#ArialMT-31"/>
       <use x="55.615234" xlink:href="#ArialMT-38"/>
      </g>
     </g>
    </g>
   </g>
   <g id="line2d_31">
    <path clip-path="url(#p49977959f0)" d="M 90 477.654723 
L 95.636364 452.736402 
L 101.272727 431.923589 
L 106.909091 427.92302 
L 112.545455 440.45326 
L 118.181818 444.705349 
L 123.818182 448.961059 
L 129.454545 457.370701 
L 135.090909 456.375715 
L 140.727273 434.868159 
L 146.363636 408.816951 
L 152 389.988216 
L 157.636364 371.492183 
L 163.272727 352.310178 
L 168.909091 342.280664 
L 174.545455 348.647566 
L 180.181818 355.802406 
L 185.818182 363.350788 
L 191.454545 378.270766 
L 197.090909 391.147889 
L 202.727273 394.129256 
L 208.363636 396.550705 
L 214 393.395457 
L 219.636364 389.651786 
L 225.272727 392.702199 
L 230.909091 396.085016 
L 236.545455 399.690878 
L 242.181818 407.737617 
L 247.818182 414.331388 
L 253.454545 417.809913 
L 259.090909 422.903097 
L 264.727273 426.347751 
L 270.363636 429.764905 
L 276 436.797845 
L 281.636364 444.59905 
L 287.272727 452.348689 
L 292.909091 461.235722 
L 298.545455 467.982454 
" style="fill:none;stroke:#b22222;stroke-linecap:round;stroke-width:1.75;"/>
   </g>
   <g id="line2d_32">
    <path clip-path="url(#p49977959f0)" d="M 152 512.64 
L 152 311.04 
" style="fill:none;stroke:#4c72b0;stroke-linecap:round;stroke-width:1.75;"/>
   </g>
   <g id="patch_6">
    <path d="M 90 512.64 
L 90 311.04 
" style="fill:none;stroke:#262626;stroke-linecap:square;stroke-linejoin:miter;stroke-width:1.25;"/>
   </g>
   <g id="patch_7">
    <path d="M 90 512.64 
L 648 512.64 
" style="fill:none;stroke:#262626;stroke-linecap:square;stroke-linejoin:miter;stroke-width:1.25;"/>
   </g>
   <g id="text_30">
    <!-- f = 390 Hz -->
    <defs>
     <path d="M 8.6875 0 
L 8.6875 45.015625 
L 0.921875 45.015625 
L 0.921875 51.859375 
L 8.6875 51.859375 
L 8.6875 57.375 
Q 8.6875 62.59375 9.625 65.140625 
Q 10.890625 68.5625 14.078125 70.671875 
Q 17.28125 72.796875 23.046875 72.796875 
Q 26.765625 72.796875 31.25 71.921875 
L 29.9375 64.265625 
Q 27.203125 64.75 24.75 64.75 
Q 20.75 64.75 19.09375 63.03125 
Q 17.4375 61.328125 17.4375 56.640625 
L 17.4375 51.859375 
L 27.546875 51.859375 
L 27.546875 45.015625 
L 17.4375 45.015625 
L 17.4375 0 
z
" id="ArialMT-66"/>
     <path id="ArialMT-20"/>
     <path d="M 52.828125 42.09375 
L 5.5625 42.09375 
L 5.5625 50.296875 
L 52.828125 50.296875 
z
M 52.828125 20.359375 
L 5.5625 20.359375 
L 5.5625 28.5625 
L 52.828125 28.5625 
z
" id="ArialMT-3d"/>
     <path d="M 5.46875 16.546875 
L 13.921875 17.328125 
Q 14.984375 11.375 18.015625 8.6875 
Q 21.046875 6 25.78125 6 
Q 29.828125 6 32.875 7.859375 
Q 35.9375 9.71875 37.890625 12.8125 
Q 39.84375 15.921875 41.15625 21.1875 
Q 42.484375 26.46875 42.484375 31.9375 
Q 42.484375 32.515625 42.4375 33.6875 
Q 39.796875 29.5 35.234375 26.875 
Q 30.671875 24.265625 25.34375 24.265625 
Q 16.453125 24.265625 10.296875 30.703125 
Q 4.15625 37.15625 4.15625 47.703125 
Q 4.15625 58.59375 10.578125 65.234375 
Q 17 71.875 26.65625 71.875 
Q 33.640625 71.875 39.421875 68.109375 
Q 45.21875 64.359375 48.21875 57.390625 
Q 51.21875 50.4375 51.21875 37.25 
Q 51.21875 23.53125 48.234375 15.40625 
Q 45.265625 7.28125 39.375 3.03125 
Q 33.5 -1.21875 25.59375 -1.21875 
Q 17.1875 -1.21875 11.859375 3.4375 
Q 6.546875 8.109375 5.46875 16.546875 
z
M 41.453125 48.140625 
Q 41.453125 55.71875 37.421875 60.15625 
Q 33.40625 64.59375 27.734375 64.59375 
Q 21.875 64.59375 17.53125 59.8125 
Q 13.1875 55.03125 13.1875 47.40625 
Q 13.1875 40.578125 17.3125 36.296875 
Q 21.4375 32.03125 27.484375 32.03125 
Q 33.59375 32.03125 37.515625 36.296875 
Q 41.453125 40.578125 41.453125 48.140625 
z
" id="ArialMT-39"/>
     <path d="M 8.015625 0 
L 8.015625 71.578125 
L 17.484375 71.578125 
L 17.484375 42.1875 
L 54.6875 42.1875 
L 54.6875 71.578125 
L 64.15625 71.578125 
L 64.15625 0 
L 54.6875 0 
L 54.6875 33.734375 
L 17.484375 33.734375 
L 17.484375 0 
z
" id="ArialMT-48"/>
     <path d="M 1.953125 0 
L 1.953125 7.125 
L 34.96875 45.015625 
Q 29.34375 44.734375 25.046875 44.734375 
L 3.90625 44.734375 
L 3.90625 51.859375 
L 46.296875 51.859375 
L 46.296875 46.046875 
L 18.21875 13.140625 
L 12.796875 7.125 
Q 18.703125 7.5625 23.875 7.5625 
L 47.859375 7.5625 
L 47.859375 0 
z
" id="ArialMT-7a"/>
    </defs>
    <g style="fill:#262626;" transform="translate(529.636364 403.742188)scale(0.12 -0.12)">
     <use xlink:href="#ArialMT-66"/>
     <use x="27.783203" xlink:href="#ArialMT-20"/>
     <use x="55.566406" xlink:href="#ArialMT-3d"/>
     <use x="113.964844" xlink:href="#ArialMT-20"/>
     <use x="141.748047" xlink:href="#ArialMT-33"/>
     <use x="197.363281" xlink:href="#ArialMT-39"/>
     <use x="252.978516" xlink:href="#ArialMT-30"/>
     <use x="308.59375" xlink:href="#ArialMT-20"/>
     <use x="336.376953" xlink:href="#ArialMT-48"/>
     <use x="408.59375" xlink:href="#ArialMT-7a"/>
    </g>
   </g>
   <g id="PathCollection_1">
    <defs>
     <path d="M 0 3.5 
C 0.928211 3.5 1.81853 3.131218 2.474874 2.474874 
C 3.131218 1.81853 3.5 0.928211 3.5 0 
C 3.5 -0.928211 3.131218 -1.81853 2.474874 -2.474874 
C 1.81853 -3.131218 0.928211 -3.5 0 -3.5 
C -0.928211 -3.5 -1.81853 -3.131218 -2.474874 -2.474874 
C -3.131218 -1.81853 -3.5 -0.928211 -3.5 0 
C -3.5 0.928211 -3.131218 1.81853 -2.474874 2.474874 
C -1.81853 3.131218 -0.928211 3.5 0 3.5 
z
" id="m50b1f51e5a" style="stroke:#800000;stroke-width:0.3;"/>
    </defs>
    <g clip-path="url(#p49977959f0)">
     <use style="fill:#800000;stroke:#800000;stroke-width:0.3;" x="298.545455" xlink:href="#m50b1f51e5a" y="467.982454"/>
    </g>
   </g>
  </g>
 </g>
 <defs>
  <clipPath id="p5da1985529">
   <rect height="201.6" width="558" x="90" y="69.12"/>
  </clipPath>
  <clipPath id="p49977959f0">
   <rect height="201.6" width="558" x="90" y="311.04"/>
  </clipPath>
 </defs>
</svg>
