<?xml version="1.0" encoding="utf-8" standalone="no"?>
<!DOCTYPE svg PUBLIC "-//W3C//DTD SVG 1.1//EN"
  "http://www.w3.org/Graphics/SVG/1.1/DTD/svg11.dtd">
<!-- Created with matplotlib (http://matplotlib.org/) -->
<svg height="576pt" version="1.1" viewBox="0 0 720 576" width="720pt" xmlns="http://www.w3.org/2000/svg" xmlns:xlink="http://www.w3.org/1999/xlink">
 <defs>
  <style type="text/css">
*{stroke-linecap:butt;stroke-linejoin:round;}
  </style>
 </defs>
 <g id="figure_1">
  <g id="patch_1">
   <path d="M 0 576 
L 720 576 
L 720 0 
L 0 0 
z
" style="fill:#ffffff;"/>
  </g>
  <g id="axes_1">
   <g id="patch_2">
    <path d="M 90 270.72 
L 648 270.72 
L 648 69.12 
L 90 69.12 
z
" style="fill:#ffffff;"/>
   </g>
   <g id="matplotlib.axis_1">
    <g id="xtick_1">
     <g id="line2d_1">
      <defs>
       <path d="M 0 0 
L 0 6 
" id="mc8fceb3fe1" style="stroke:#262626;"/>
      </defs>
      <g>
       <use style="fill:#262626;stroke:#262626;" x="90" xlink:href="#mc8fceb3fe1" y="270.72"/>
      </g>
     </g>
     <g id="text_1">
      <!-- 0 -->
      <defs>
       <path d="M 4.15625 35.296875 
Q 4.15625 48 6.765625 55.734375 
Q 9.375 63.484375 14.515625 67.671875 
Q 19.671875 71.875 27.484375 71.875 
Q 33.25 71.875 37.59375 69.546875 
Q 41.9375 67.234375 44.765625 62.859375 
Q 47.609375 58.5 49.21875 52.21875 
Q 50.828125 45.953125 50.828125 35.296875 
Q 50.828125 22.703125 48.234375 14.96875 
Q 45.65625 7.234375 40.5 3 
Q 35.359375 -1.21875 27.484375 -1.21875 
Q 17.140625 -1.21875 11.234375 6.203125 
Q 4.15625 15.140625 4.15625 35.296875 
z
M 13.1875 35.296875 
Q 13.1875 17.671875 17.3125 11.828125 
Q 21.4375 6 27.484375 6 
Q 33.546875 6 37.671875 11.859375 
Q 41.796875 17.71875 41.796875 35.296875 
Q 41.796875 52.984375 37.671875 58.78125 
Q 33.546875 64.59375 27.390625 64.59375 
Q 21.34375 64.59375 17.71875 59.46875 
Q 13.1875 52.9375 13.1875 35.296875 
z
" id="ArialMT-30"/>
      </defs>
      <g style="fill:#262626;" transform="translate(87.219531 290.877812)scale(0.1 -0.1)">
       <use xlink:href="#ArialMT-30"/>
      </g>
     </g>
    </g>
    <g id="xtick_2">
     <g id="line2d_2">
      <g>
       <use style="fill:#262626;stroke:#262626;" x="159.75" xlink:href="#mc8fceb3fe1" y="270.72"/>
      </g>
     </g>
     <g id="text_2">
      <!-- 100 -->
      <defs>
       <path d="M 37.25 0 
L 28.46875 0 
L 28.46875 56 
Q 25.296875 52.984375 20.140625 49.953125 
Q 14.984375 46.921875 10.890625 45.40625 
L 10.890625 53.90625 
Q 18.265625 57.375 23.78125 62.296875 
Q 29.296875 67.234375 31.59375 71.875 
L 37.25 71.875 
z
" id="ArialMT-31"/>
      </defs>
      <g style="fill:#262626;" transform="translate(151.408594 290.877812)scale(0.1 -0.1)">
       <use xlink:href="#ArialMT-31"/>
       <use x="55.615234" xlink:href="#ArialMT-30"/>
       <use x="111.230469" xlink:href="#ArialMT-30"/>
      </g>
     </g>
    </g>
    <g id="xtick_3">
     <g id="line2d_3">
      <g>
       <use style="fill:#262626;stroke:#262626;" x="229.5" xlink:href="#mc8fceb3fe1" y="270.72"/>
      </g>
     </g>
     <g id="text_3">
      <!-- 200 -->
      <defs>
       <path d="M 50.34375 8.453125 
L 50.34375 0 
L 3.03125 0 
Q 2.9375 3.171875 4.046875 6.109375 
Q 5.859375 10.9375 9.828125 15.625 
Q 13.8125 20.3125 21.34375 26.46875 
Q 33.015625 36.03125 37.109375 41.625 
Q 41.21875 47.21875 41.21875 52.203125 
Q 41.21875 57.421875 37.46875 61 
Q 33.734375 64.59375 27.734375 64.59375 
Q 21.390625 64.59375 17.578125 60.78125 
Q 13.765625 56.984375 13.71875 50.25 
L 4.6875 51.171875 
Q 5.609375 61.28125 11.65625 66.578125 
Q 17.71875 71.875 27.9375 71.875 
Q 38.234375 71.875 44.234375 66.15625 
Q 50.25 60.453125 50.25 52 
Q 50.25 47.703125 48.484375 43.546875 
Q 46.734375 39.40625 42.65625 34.8125 
Q 38.578125 30.21875 29.109375 22.21875 
Q 21.1875 15.578125 18.9375 13.203125 
Q 16.703125 10.84375 15.234375 8.453125 
z
" id="ArialMT-32"/>
      </defs>
      <g style="fill:#262626;" transform="translate(221.158594 290.877812)scale(0.1 -0.1)">
       <use xlink:href="#ArialMT-32"/>
       <use x="55.615234" xlink:href="#ArialMT-30"/>
       <use x="111.230469" xlink:href="#ArialMT-30"/>
      </g>
     </g>
    </g>
    <g id="xtick_4">
     <g id="line2d_4">
      <g>
       <use style="fill:#262626;stroke:#262626;" x="299.25" xlink:href="#mc8fceb3fe1" y="270.72"/>
      </g>
     </g>
     <g id="text_4">
      <!-- 300 -->
      <defs>
       <path d="M 4.203125 18.890625 
L 12.984375 20.0625 
Q 14.5 12.59375 18.140625 9.296875 
Q 21.78125 6 27 6 
Q 33.203125 6 37.46875 10.296875 
Q 41.75 14.59375 41.75 20.953125 
Q 41.75 27 37.796875 30.921875 
Q 33.84375 34.859375 27.734375 34.859375 
Q 25.25 34.859375 21.53125 33.890625 
L 22.515625 41.609375 
Q 23.390625 41.5 23.921875 41.5 
Q 29.546875 41.5 34.03125 44.421875 
Q 38.53125 47.359375 38.53125 53.46875 
Q 38.53125 58.296875 35.25 61.46875 
Q 31.984375 64.65625 26.8125 64.65625 
Q 21.6875 64.65625 18.265625 61.421875 
Q 14.84375 58.203125 13.875 51.765625 
L 5.078125 53.328125 
Q 6.6875 62.15625 12.390625 67.015625 
Q 18.109375 71.875 26.609375 71.875 
Q 32.46875 71.875 37.390625 69.359375 
Q 42.328125 66.84375 44.9375 62.5 
Q 47.5625 58.15625 47.5625 53.265625 
Q 47.5625 48.640625 45.0625 44.828125 
Q 42.578125 41.015625 37.703125 38.765625 
Q 44.046875 37.3125 47.5625 32.6875 
Q 51.078125 28.078125 51.078125 21.140625 
Q 51.078125 11.765625 44.234375 5.25 
Q 37.40625 -1.265625 26.953125 -1.265625 
Q 17.53125 -1.265625 11.296875 4.34375 
Q 5.078125 9.96875 4.203125 18.890625 
z
" id="ArialMT-33"/>
      </defs>
      <g style="fill:#262626;" transform="translate(290.908594 290.877812)scale(0.1 -0.1)">
       <use xlink:href="#ArialMT-33"/>
       <use x="55.615234" xlink:href="#ArialMT-30"/>
       <use x="111.230469" xlink:href="#ArialMT-30"/>
      </g>
     </g>
    </g>
    <g id="xtick_5">
     <g id="line2d_5">
      <g>
       <use style="fill:#262626;stroke:#262626;" x="369" xlink:href="#mc8fceb3fe1" y="270.72"/>
      </g>
     </g>
     <g id="text_5">
      <!-- 400 -->
      <defs>
       <path d="M 32.328125 0 
L 32.328125 17.140625 
L 1.265625 17.140625 
L 1.265625 25.203125 
L 33.9375 71.578125 
L 41.109375 71.578125 
L 41.109375 25.203125 
L 50.78125 25.203125 
L 50.78125 17.140625 
L 41.109375 17.140625 
L 41.109375 0 
z
M 32.328125 25.203125 
L 32.328125 57.46875 
L 9.90625 25.203125 
z
" id="ArialMT-34"/>
      </defs>
      <g style="fill:#262626;" transform="translate(360.658594 290.877812)scale(0.1 -0.1)">
       <use xlink:href="#ArialMT-34"/>
       <use x="55.615234" xlink:href="#ArialMT-30"/>
       <use x="111.230469" xlink:href="#ArialMT-30"/>
      </g>
     </g>
    </g>
    <g id="xtick_6">
     <g id="line2d_6">
      <g>
       <use style="fill:#262626;stroke:#262626;" x="438.75" xlink:href="#mc8fceb3fe1" y="270.72"/>
      </g>
     </g>
     <g id="text_6">
      <!-- 500 -->
      <defs>
       <path d="M 4.15625 18.75 
L 13.375 19.53125 
Q 14.40625 12.796875 18.140625 9.390625 
Q 21.875 6 27.15625 6 
Q 33.5 6 37.890625 10.78125 
Q 42.28125 15.578125 42.28125 23.484375 
Q 42.28125 31 38.0625 35.34375 
Q 33.84375 39.703125 27 39.703125 
Q 22.75 39.703125 19.328125 37.765625 
Q 15.921875 35.84375 13.96875 32.765625 
L 5.71875 33.84375 
L 12.640625 70.609375 
L 48.25 70.609375 
L 48.25 62.203125 
L 19.671875 62.203125 
L 15.828125 42.96875 
Q 22.265625 47.46875 29.34375 47.46875 
Q 38.71875 47.46875 45.15625 40.96875 
Q 51.609375 34.46875 51.609375 24.265625 
Q 51.609375 14.546875 45.953125 7.46875 
Q 39.0625 -1.21875 27.15625 -1.21875 
Q 17.390625 -1.21875 11.203125 4.25 
Q 5.03125 9.71875 4.15625 18.75 
z
" id="ArialMT-35"/>
      </defs>
      <g style="fill:#262626;" transform="translate(430.408594 290.877812)scale(0.1 -0.1)">
       <use xlink:href="#ArialMT-35"/>
       <use x="55.615234" xlink:href="#ArialMT-30"/>
       <use x="111.230469" xlink:href="#ArialMT-30"/>
      </g>
     </g>
    </g>
    <g id="xtick_7">
     <g id="line2d_7">
      <g>
       <use style="fill:#262626;stroke:#262626;" x="508.5" xlink:href="#mc8fceb3fe1" y="270.72"/>
      </g>
     </g>
     <g id="text_7">
      <!-- 600 -->
      <defs>
       <path d="M 49.75 54.046875 
L 41.015625 53.375 
Q 39.84375 58.546875 37.703125 60.890625 
Q 34.125 64.65625 28.90625 64.65625 
Q 24.703125 64.65625 21.53125 62.3125 
Q 17.390625 59.28125 14.984375 53.46875 
Q 12.59375 47.65625 12.5 36.921875 
Q 15.671875 41.75 20.265625 44.09375 
Q 24.859375 46.4375 29.890625 46.4375 
Q 38.671875 46.4375 44.84375 39.96875 
Q 51.03125 33.5 51.03125 23.25 
Q 51.03125 16.5 48.125 10.71875 
Q 45.21875 4.9375 40.140625 1.859375 
Q 35.0625 -1.21875 28.609375 -1.21875 
Q 17.625 -1.21875 10.6875 6.859375 
Q 3.765625 14.9375 3.765625 33.5 
Q 3.765625 54.25 11.421875 63.671875 
Q 18.109375 71.875 29.4375 71.875 
Q 37.890625 71.875 43.28125 67.140625 
Q 48.6875 62.40625 49.75 54.046875 
z
M 13.875 23.1875 
Q 13.875 18.65625 15.796875 14.5 
Q 17.71875 10.359375 21.1875 8.171875 
Q 24.65625 6 28.46875 6 
Q 34.03125 6 38.03125 10.484375 
Q 42.046875 14.984375 42.046875 22.703125 
Q 42.046875 30.125 38.078125 34.390625 
Q 34.125 38.671875 28.125 38.671875 
Q 22.171875 38.671875 18.015625 34.390625 
Q 13.875 30.125 13.875 23.1875 
z
" id="ArialMT-36"/>
      </defs>
      <g style="fill:#262626;" transform="translate(500.158594 290.877812)scale(0.1 -0.1)">
       <use xlink:href="#ArialMT-36"/>
       <use x="55.615234" xlink:href="#ArialMT-30"/>
       <use x="111.230469" xlink:href="#ArialMT-30"/>
      </g>
     </g>
    </g>
    <g id="xtick_8">
     <g id="line2d_8">
      <g>
       <use style="fill:#262626;stroke:#262626;" x="578.25" xlink:href="#mc8fceb3fe1" y="270.72"/>
      </g>
     </g>
     <g id="text_8">
      <!-- 700 -->
      <defs>
       <path d="M 4.734375 62.203125 
L 4.734375 70.65625 
L 51.078125 70.65625 
L 51.078125 63.8125 
Q 44.234375 56.546875 37.515625 44.484375 
Q 30.8125 32.421875 27.15625 19.671875 
Q 24.515625 10.6875 23.78125 0 
L 14.75 0 
Q 14.890625 8.453125 18.0625 20.40625 
Q 21.234375 32.375 27.171875 43.484375 
Q 33.109375 54.59375 39.796875 62.203125 
z
" id="ArialMT-37"/>
      </defs>
      <g style="fill:#262626;" transform="translate(569.908594 290.877812)scale(0.1 -0.1)">
       <use xlink:href="#ArialMT-37"/>
       <use x="55.615234" xlink:href="#ArialMT-30"/>
       <use x="111.230469" xlink:href="#ArialMT-30"/>
      </g>
     </g>
    </g>
    <g id="xtick_9">
     <g id="line2d_9">
      <g>
       <use style="fill:#262626;stroke:#262626;" x="648" xlink:href="#mc8fceb3fe1" y="270.72"/>
      </g>
     </g>
     <g id="text_9">
      <!-- 800 -->
      <defs>
       <path d="M 17.671875 38.8125 
Q 12.203125 40.828125 9.5625 44.53125 
Q 6.9375 48.25 6.9375 53.421875 
Q 6.9375 61.234375 12.546875 66.546875 
Q 18.171875 71.875 27.484375 71.875 
Q 36.859375 71.875 42.578125 66.421875 
Q 48.296875 60.984375 48.296875 53.171875 
Q 48.296875 48.1875 45.671875 44.5 
Q 43.0625 40.828125 37.75 38.8125 
Q 44.34375 36.671875 47.78125 31.875 
Q 51.21875 27.09375 51.21875 20.453125 
Q 51.21875 11.28125 44.71875 5.03125 
Q 38.234375 -1.21875 27.640625 -1.21875 
Q 17.046875 -1.21875 10.546875 5.046875 
Q 4.046875 11.328125 4.046875 20.703125 
Q 4.046875 27.6875 7.59375 32.390625 
Q 11.140625 37.109375 17.671875 38.8125 
z
M 15.921875 53.71875 
Q 15.921875 48.640625 19.1875 45.40625 
Q 22.46875 42.1875 27.6875 42.1875 
Q 32.765625 42.1875 36.015625 45.375 
Q 39.265625 48.578125 39.265625 53.21875 
Q 39.265625 58.0625 35.90625 61.359375 
Q 32.5625 64.65625 27.59375 64.65625 
Q 22.5625 64.65625 19.234375 61.421875 
Q 15.921875 58.203125 15.921875 53.71875 
z
M 13.09375 20.65625 
Q 13.09375 16.890625 14.875 13.375 
Q 16.65625 9.859375 20.171875 7.921875 
Q 23.6875 6 27.734375 6 
Q 34.03125 6 38.125 10.046875 
Q 42.234375 14.109375 42.234375 20.359375 
Q 42.234375 26.703125 38.015625 30.859375 
Q 33.796875 35.015625 27.4375 35.015625 
Q 21.234375 35.015625 17.15625 30.90625 
Q 13.09375 26.8125 13.09375 20.65625 
z
" id="ArialMT-38"/>
      </defs>
      <g style="fill:#262626;" transform="translate(639.658594 290.877812)scale(0.1 -0.1)">
       <use xlink:href="#ArialMT-38"/>
       <use x="55.615234" xlink:href="#ArialMT-30"/>
       <use x="111.230469" xlink:href="#ArialMT-30"/>
      </g>
     </g>
    </g>
   </g>
   <g id="matplotlib.axis_2">
    <g id="ytick_1">
     <g id="line2d_10">
      <defs>
       <path d="M 0 0 
L -6 0 
" id="m71376eb7c7" style="stroke:#262626;"/>
      </defs>
      <g>
       <use style="fill:#262626;stroke:#262626;" x="90" xlink:href="#m71376eb7c7" y="250.56"/>
      </g>
     </g>
     <g id="text_10">
      <!-- −0.04 -->
      <defs>
       <path d="M 52.828125 31.203125 
L 5.5625 31.203125 
L 5.5625 39.40625 
L 52.828125 39.40625 
z
" id="ArialMT-2212"/>
       <path d="M 9.078125 0 
L 9.078125 10.015625 
L 19.09375 10.015625 
L 19.09375 0 
z
" id="ArialMT-2e"/>
      </defs>
      <g style="fill:#262626;" transform="translate(51.698437 254.138906)scale(0.1 -0.1)">
       <use xlink:href="#ArialMT-2212"/>
       <use x="58.398438" xlink:href="#ArialMT-30"/>
       <use x="114.013672" xlink:href="#ArialMT-2e"/>
       <use x="141.796875" xlink:href="#ArialMT-30"/>
       <use x="197.412109" xlink:href="#ArialMT-34"/>
      </g>
     </g>
    </g>
    <g id="ytick_2">
     <g id="line2d_11">
      <g>
       <use style="fill:#262626;stroke:#262626;" x="90" xlink:href="#m71376eb7c7" y="210.24"/>
      </g>
     </g>
     <g id="text_11">
      <!-- −0.02 -->
      <g style="fill:#262626;" transform="translate(51.698437 213.818906)scale(0.1 -0.1)">
       <use xlink:href="#ArialMT-2212"/>
       <use x="58.398438" xlink:href="#ArialMT-30"/>
       <use x="114.013672" xlink:href="#ArialMT-2e"/>
       <use x="141.796875" xlink:href="#ArialMT-30"/>
       <use x="197.412109" xlink:href="#ArialMT-32"/>
      </g>
     </g>
    </g>
    <g id="ytick_3">
     <g id="line2d_12">
      <g>
       <use style="fill:#262626;stroke:#262626;" x="90" xlink:href="#m71376eb7c7" y="169.92"/>
      </g>
     </g>
     <g id="text_12">
      <!-- 0.00 -->
      <g style="fill:#262626;" transform="translate(57.539062 173.498906)scale(0.1 -0.1)">
       <use xlink:href="#ArialMT-30"/>
       <use x="55.615234" xlink:href="#ArialMT-2e"/>
       <use x="83.398438" xlink:href="#ArialMT-30"/>
       <use x="139.013672" xlink:href="#ArialMT-30"/>
      </g>
     </g>
    </g>
    <g id="ytick_4">
     <g id="line2d_13">
      <g>
       <use style="fill:#262626;stroke:#262626;" x="90" xlink:href="#m71376eb7c7" y="129.6"/>
      </g>
     </g>
     <g id="text_13">
      <!-- 0.02 -->
      <g style="fill:#262626;" transform="translate(57.539062 133.178906)scale(0.1 -0.1)">
       <use xlink:href="#ArialMT-30"/>
       <use x="55.615234" xlink:href="#ArialMT-2e"/>
       <use x="83.398438" xlink:href="#ArialMT-30"/>
       <use x="139.013672" xlink:href="#ArialMT-32"/>
      </g>
     </g>
    </g>
    <g id="ytick_5">
     <g id="line2d_14">
      <g>
       <use style="fill:#262626;stroke:#262626;" x="90" xlink:href="#m71376eb7c7" y="89.28"/>
      </g>
     </g>
     <g id="text_14">
      <!-- 0.04 -->
      <g style="fill:#262626;" transform="translate(57.539062 92.858906)scale(0.1 -0.1)">
       <use xlink:href="#ArialMT-30"/>
       <use x="55.615234" xlink:href="#ArialMT-2e"/>
       <use x="83.398438" xlink:href="#ArialMT-30"/>
       <use x="139.013672" xlink:href="#ArialMT-34"/>
      </g>
     </g>
    </g>
   </g>
   <g id="PolyCollection_1">
    <path clip-path="url(#pa949255571)" d="M 90 166.521507 
L 90 169.92 
L 90.6975 169.92 
L 91.395 169.92 
L 92.0925 169.92 
L 92.79 169.92 
L 93.4875 169.92 
L 94.185 169.92 
L 94.8825 169.92 
L 95.58 169.92 
L 96.2775 169.92 
L 96.975 169.92 
L 97.6725 169.92 
L 98.37 169.92 
L 99.0675 169.92 
L 99.765 169.92 
L 100.4625 169.92 
L 101.16 169.92 
L 101.8575 169.92 
L 102.555 169.92 
L 103.2525 169.92 
L 103.95 169.92 
L 104.6475 169.92 
L 105.345 169.92 
L 106.0425 169.92 
L 106.74 169.92 
L 107.4375 169.92 
L 108.135 169.92 
L 108.8325 169.92 
L 109.53 169.92 
L 110.2275 169.92 
L 110.925 169.92 
L 111.6225 169.92 
L 112.32 169.92 
L 113.0175 169.92 
L 113.715 169.92 
L 114.4125 169.92 
L 115.11 169.92 
L 115.8075 169.92 
L 116.505 169.92 
L 117.2025 169.92 
L 117.9 169.92 
L 118.5975 169.92 
L 119.295 169.92 
L 119.9925 169.92 
L 120.69 169.92 
L 121.3875 169.92 
L 122.085 169.92 
L 122.7825 169.92 
L 123.48 169.92 
L 124.1775 169.92 
L 124.875 169.92 
L 125.5725 169.92 
L 126.27 169.92 
L 126.9675 169.92 
L 127.665 169.92 
L 128.3625 169.92 
L 129.06 169.92 
L 129.7575 169.92 
L 130.455 169.92 
L 131.1525 169.92 
L 131.85 169.92 
L 132.5475 169.92 
L 133.245 169.92 
L 133.9425 169.92 
L 134.64 169.92 
L 135.3375 169.92 
L 136.035 169.92 
L 136.7325 169.92 
L 137.43 169.92 
L 138.1275 169.92 
L 138.825 169.92 
L 139.5225 169.92 
L 140.22 169.92 
L 140.9175 169.92 
L 141.615 169.92 
L 142.3125 169.92 
L 143.01 169.92 
L 143.7075 169.92 
L 144.405 169.92 
L 145.1025 169.92 
L 145.8 169.92 
L 146.4975 169.92 
L 147.195 169.92 
L 147.8925 169.92 
L 148.59 169.92 
L 149.2875 169.92 
L 149.985 169.92 
L 150.6825 169.92 
L 151.38 169.92 
L 152.0775 169.92 
L 152.775 169.92 
L 153.4725 169.92 
L 154.17 169.92 
L 154.8675 169.92 
L 155.565 169.92 
L 156.2625 169.92 
L 156.96 169.92 
L 157.6575 169.92 
L 158.355 169.92 
L 159.0525 169.92 
L 159.75 169.92 
L 160.4475 169.92 
L 161.145 169.92 
L 161.8425 169.92 
L 162.54 169.92 
L 163.2375 169.92 
L 163.935 169.92 
L 164.6325 169.92 
L 165.33 169.92 
L 166.0275 169.92 
L 166.725 169.92 
L 167.4225 169.92 
L 168.12 169.92 
L 168.8175 169.92 
L 169.515 169.92 
L 170.2125 169.92 
L 170.91 169.92 
L 171.6075 169.92 
L 172.305 169.92 
L 173.0025 169.92 
L 173.7 169.92 
L 174.3975 169.92 
L 175.095 169.92 
L 175.7925 169.92 
L 176.49 169.92 
L 177.1875 169.92 
L 177.885 169.92 
L 178.5825 169.92 
L 179.28 169.92 
L 179.9775 169.92 
L 180.675 169.92 
L 181.3725 169.92 
L 182.07 169.92 
L 182.7675 169.92 
L 183.465 169.92 
L 184.1625 169.92 
L 184.86 169.92 
L 185.5575 169.92 
L 186.255 169.92 
L 186.9525 169.92 
L 187.65 169.92 
L 188.3475 169.92 
L 189.045 169.92 
L 189.7425 169.92 
L 190.44 169.92 
L 191.1375 169.92 
L 191.835 169.92 
L 192.5325 169.92 
L 193.23 169.92 
L 193.9275 169.92 
L 194.625 169.92 
L 195.3225 169.92 
L 196.02 169.92 
L 196.7175 169.92 
L 197.415 169.92 
L 198.1125 169.92 
L 198.81 169.92 
L 199.5075 169.92 
L 200.205 169.92 
L 200.9025 169.92 
L 201.6 169.92 
L 202.2975 169.92 
L 202.995 169.92 
L 203.6925 169.92 
L 204.39 169.92 
L 205.0875 169.92 
L 205.785 169.92 
L 206.4825 169.92 
L 207.18 169.92 
L 207.8775 169.92 
L 208.575 169.92 
L 209.2725 169.92 
L 209.97 169.92 
L 210.6675 169.92 
L 211.365 169.92 
L 212.0625 169.92 
L 212.76 169.92 
L 213.4575 169.92 
L 214.155 169.92 
L 214.8525 169.92 
L 215.55 169.92 
L 216.2475 169.92 
L 216.945 169.92 
L 217.6425 169.92 
L 218.34 169.92 
L 219.0375 169.92 
L 219.735 169.92 
L 220.4325 169.92 
L 221.13 169.92 
L 221.8275 169.92 
L 222.525 169.92 
L 223.2225 169.92 
L 223.92 169.92 
L 224.6175 169.92 
L 225.315 169.92 
L 226.0125 169.92 
L 226.71 169.92 
L 227.4075 169.92 
L 228.105 169.92 
L 228.8025 169.92 
L 229.5 169.92 
L 230.1975 169.92 
L 230.895 169.92 
L 231.5925 169.92 
L 232.29 169.92 
L 232.9875 169.92 
L 233.685 169.92 
L 234.3825 169.92 
L 235.08 169.92 
L 235.7775 169.92 
L 236.475 169.92 
L 237.1725 169.92 
L 237.87 169.92 
L 238.5675 169.92 
L 239.265 169.92 
L 239.9625 169.92 
L 240.66 169.92 
L 241.3575 169.92 
L 242.055 169.92 
L 242.7525 169.92 
L 243.45 169.92 
L 244.1475 169.92 
L 244.845 169.92 
L 245.5425 169.92 
L 246.24 169.92 
L 246.9375 169.92 
L 247.635 169.92 
L 248.3325 169.92 
L 249.03 169.92 
L 249.7275 169.92 
L 250.425 169.92 
L 251.1225 169.92 
L 251.82 169.92 
L 252.5175 169.92 
L 253.215 169.92 
L 253.9125 169.92 
L 254.61 169.92 
L 255.3075 169.92 
L 256.005 169.92 
L 256.7025 169.92 
L 257.4 169.92 
L 258.0975 169.92 
L 258.795 169.92 
L 259.4925 169.92 
L 260.19 169.92 
L 260.8875 169.92 
L 261.585 169.92 
L 262.2825 169.92 
L 262.98 169.92 
L 263.6775 169.92 
L 264.375 169.92 
L 265.0725 169.92 
L 265.77 169.92 
L 266.4675 169.92 
L 267.165 169.92 
L 267.8625 169.92 
L 268.56 169.92 
L 269.2575 169.92 
L 269.955 169.92 
L 270.6525 169.92 
L 271.35 169.92 
L 272.0475 169.92 
L 272.745 169.92 
L 273.4425 169.92 
L 274.14 169.92 
L 274.8375 169.92 
L 275.535 169.92 
L 276.2325 169.92 
L 276.93 169.92 
L 277.6275 169.92 
L 278.325 169.92 
L 279.0225 169.92 
L 279.72 169.92 
L 280.4175 169.92 
L 281.115 169.92 
L 281.8125 169.92 
L 282.51 169.92 
L 283.2075 169.92 
L 283.905 169.92 
L 284.6025 169.92 
L 285.3 169.92 
L 285.9975 169.92 
L 286.695 169.92 
L 287.3925 169.92 
L 288.09 169.92 
L 288.7875 169.92 
L 289.485 169.92 
L 290.1825 169.92 
L 290.88 169.92 
L 291.5775 169.92 
L 292.275 169.92 
L 292.9725 169.92 
L 293.67 169.92 
L 294.3675 169.92 
L 295.065 169.92 
L 295.7625 169.92 
L 296.46 169.92 
L 297.1575 169.92 
L 297.855 169.92 
L 298.5525 169.92 
L 299.25 169.92 
L 299.9475 169.92 
L 300.645 169.92 
L 301.3425 169.92 
L 302.04 169.92 
L 302.7375 169.92 
L 303.435 169.92 
L 304.1325 169.92 
L 304.83 169.92 
L 305.5275 169.92 
L 306.225 169.92 
L 306.9225 169.92 
L 307.62 169.92 
L 308.3175 169.92 
L 309.015 169.92 
L 309.7125 169.92 
L 310.41 169.92 
L 311.1075 169.92 
L 311.805 169.92 
L 312.5025 169.92 
L 313.2 169.92 
L 313.8975 169.92 
L 314.595 169.92 
L 315.2925 169.92 
L 315.99 169.92 
L 316.6875 169.92 
L 317.385 169.92 
L 318.0825 169.92 
L 318.78 169.92 
L 319.4775 169.92 
L 320.175 169.92 
L 320.8725 169.92 
L 321.57 169.92 
L 322.2675 169.92 
L 322.965 169.92 
L 323.6625 169.92 
L 324.36 169.92 
L 325.0575 169.92 
L 325.755 169.92 
L 326.4525 169.92 
L 327.15 169.92 
L 327.8475 169.92 
L 328.545 169.92 
L 329.2425 169.92 
L 329.94 169.92 
L 330.6375 169.92 
L 331.335 169.92 
L 332.0325 169.92 
L 332.73 169.92 
L 333.4275 169.92 
L 334.125 169.92 
L 334.8225 169.92 
L 335.52 169.92 
L 336.2175 169.92 
L 336.915 169.92 
L 337.6125 169.92 
L 338.31 169.92 
L 339.0075 169.92 
L 339.705 169.92 
L 340.4025 169.92 
L 341.1 169.92 
L 341.7975 169.92 
L 342.495 169.92 
L 343.1925 169.92 
L 343.89 169.92 
L 344.5875 169.92 
L 345.285 169.92 
L 345.9825 169.92 
L 346.68 169.92 
L 347.3775 169.92 
L 348.075 169.92 
L 348.7725 169.92 
L 349.47 169.92 
L 350.1675 169.92 
L 350.865 169.92 
L 351.5625 169.92 
L 352.26 169.92 
L 352.9575 169.92 
L 353.655 169.92 
L 354.3525 169.92 
L 355.05 169.92 
L 355.7475 169.92 
L 356.445 169.92 
L 357.1425 169.92 
L 357.84 169.92 
L 358.5375 169.92 
L 359.235 169.92 
L 359.9325 169.92 
L 360.63 169.92 
L 361.3275 169.92 
L 362.025 169.92 
L 362.7225 169.92 
L 363.42 169.92 
L 364.1175 169.92 
L 364.815 169.92 
L 365.5125 169.92 
L 366.21 169.92 
L 366.9075 169.92 
L 367.605 169.92 
L 368.3025 169.92 
L 369 169.92 
L 369.6975 169.92 
L 370.395 169.92 
L 371.0925 169.92 
L 371.79 169.92 
L 372.4875 169.92 
L 373.185 169.92 
L 373.8825 169.92 
L 374.58 169.92 
L 375.2775 169.92 
L 375.975 169.92 
L 376.6725 169.92 
L 377.37 169.92 
L 378.0675 169.92 
L 378.765 169.92 
L 379.4625 169.92 
L 380.16 169.92 
L 380.8575 169.92 
L 381.555 169.92 
L 382.2525 169.92 
L 382.95 169.92 
L 383.6475 169.92 
L 384.345 169.92 
L 385.0425 169.92 
L 385.74 169.92 
L 386.4375 169.92 
L 387.135 169.92 
L 387.8325 169.92 
L 388.53 169.92 
L 389.2275 169.92 
L 389.925 169.92 
L 390.6225 169.92 
L 391.32 169.92 
L 392.0175 169.92 
L 392.715 169.92 
L 393.4125 169.92 
L 394.11 169.92 
L 394.8075 169.92 
L 395.505 169.92 
L 396.2025 169.92 
L 396.9 169.92 
L 397.5975 169.92 
L 398.295 169.92 
L 398.9925 169.92 
L 399.69 169.92 
L 400.3875 169.92 
L 401.085 169.92 
L 401.7825 169.92 
L 402.48 169.92 
L 403.1775 169.92 
L 403.875 169.92 
L 404.5725 169.92 
L 405.27 169.92 
L 405.9675 169.92 
L 406.665 169.92 
L 407.3625 169.92 
L 408.06 169.92 
L 408.7575 169.92 
L 409.455 169.92 
L 410.1525 169.92 
L 410.85 169.92 
L 411.5475 169.92 
L 412.245 169.92 
L 412.9425 169.92 
L 413.64 169.92 
L 414.3375 169.92 
L 415.035 169.92 
L 415.7325 169.92 
L 416.43 169.92 
L 417.1275 169.92 
L 417.825 169.92 
L 418.5225 169.92 
L 419.22 169.92 
L 419.9175 169.92 
L 420.615 169.92 
L 421.3125 169.92 
L 422.01 169.92 
L 422.7075 169.92 
L 423.405 169.92 
L 424.1025 169.92 
L 424.8 169.92 
L 425.4975 169.92 
L 426.195 169.92 
L 426.8925 169.92 
L 427.59 169.92 
L 428.2875 169.92 
L 428.985 169.92 
L 429.6825 169.92 
L 430.38 169.92 
L 431.0775 169.92 
L 431.775 169.92 
L 432.4725 169.92 
L 433.17 169.92 
L 433.8675 169.92 
L 434.565 169.92 
L 435.2625 169.92 
L 435.96 169.92 
L 436.6575 169.92 
L 437.355 169.92 
L 438.0525 169.92 
L 438.75 169.92 
L 439.4475 169.92 
L 440.145 169.92 
L 440.8425 169.92 
L 441.54 169.92 
L 442.2375 169.92 
L 442.935 169.92 
L 443.6325 169.92 
L 444.33 169.92 
L 445.0275 169.92 
L 445.725 169.92 
L 446.4225 169.92 
L 447.12 169.92 
L 447.8175 169.92 
L 448.515 169.92 
L 449.2125 169.92 
L 449.91 169.92 
L 450.6075 169.92 
L 451.305 169.92 
L 452.0025 169.92 
L 452.7 169.92 
L 453.3975 169.92 
L 454.095 169.92 
L 454.7925 169.92 
L 455.49 169.92 
L 456.1875 169.92 
L 456.885 169.92 
L 457.5825 169.92 
L 458.28 169.92 
L 458.9775 169.92 
L 459.675 169.92 
L 460.3725 169.92 
L 461.07 169.92 
L 461.7675 169.92 
L 462.465 169.92 
L 463.1625 169.92 
L 463.86 169.92 
L 464.5575 169.92 
L 465.255 169.92 
L 465.9525 169.92 
L 466.65 169.92 
L 467.3475 169.92 
L 468.045 169.92 
L 468.7425 169.92 
L 469.44 169.92 
L 470.1375 169.92 
L 470.835 169.92 
L 471.5325 169.92 
L 472.23 169.92 
L 472.9275 169.92 
L 473.625 169.92 
L 474.3225 169.92 
L 475.02 169.92 
L 475.7175 169.92 
L 476.415 169.92 
L 477.1125 169.92 
L 477.81 169.92 
L 478.5075 169.92 
L 479.205 169.92 
L 479.9025 169.92 
L 480.6 169.92 
L 481.2975 169.92 
L 481.995 169.92 
L 482.6925 169.92 
L 483.39 169.92 
L 484.0875 169.92 
L 484.785 169.92 
L 485.4825 169.92 
L 486.18 169.92 
L 486.8775 169.92 
L 487.575 169.92 
L 488.2725 169.92 
L 488.97 169.92 
L 489.6675 169.92 
L 490.365 169.92 
L 491.0625 169.92 
L 491.76 169.92 
L 492.4575 169.92 
L 493.155 169.92 
L 493.8525 169.92 
L 494.55 169.92 
L 495.2475 169.92 
L 495.945 169.92 
L 496.6425 169.92 
L 497.34 169.92 
L 498.0375 169.92 
L 498.735 169.92 
L 499.4325 169.92 
L 500.13 169.92 
L 500.8275 169.92 
L 501.525 169.92 
L 502.2225 169.92 
L 502.92 169.92 
L 503.6175 169.92 
L 504.315 169.92 
L 505.0125 169.92 
L 505.71 169.92 
L 506.4075 169.92 
L 507.105 169.92 
L 507.8025 169.92 
L 508.5 169.92 
L 509.1975 169.92 
L 509.895 169.92 
L 510.5925 169.92 
L 511.29 169.92 
L 511.9875 169.92 
L 512.685 169.92 
L 513.3825 169.92 
L 514.08 169.92 
L 514.7775 169.92 
L 515.475 169.92 
L 516.1725 169.92 
L 516.87 169.92 
L 517.5675 169.92 
L 518.265 169.92 
L 518.9625 169.92 
L 519.66 169.92 
L 520.3575 169.92 
L 521.055 169.92 
L 521.7525 169.92 
L 522.45 169.92 
L 523.1475 169.92 
L 523.845 169.92 
L 524.5425 169.92 
L 525.24 169.92 
L 525.9375 169.92 
L 526.635 169.92 
L 527.3325 169.92 
L 528.03 169.92 
L 528.7275 169.92 
L 529.425 169.92 
L 530.1225 169.92 
L 530.82 169.92 
L 531.5175 169.92 
L 532.215 169.92 
L 532.9125 169.92 
L 533.61 169.92 
L 534.3075 169.92 
L 535.005 169.92 
L 535.7025 169.92 
L 536.4 169.92 
L 537.0975 169.92 
L 537.795 169.92 
L 538.4925 169.92 
L 539.19 169.92 
L 539.8875 169.92 
L 540.585 169.92 
L 541.2825 169.92 
L 541.98 169.92 
L 542.6775 169.92 
L 543.375 169.92 
L 544.0725 169.92 
L 544.77 169.92 
L 545.4675 169.92 
L 546.165 169.92 
L 546.8625 169.92 
L 547.56 169.92 
L 548.2575 169.92 
L 548.955 169.92 
L 549.6525 169.92 
L 550.35 169.92 
L 551.0475 169.92 
L 551.745 169.92 
L 552.4425 169.92 
L 553.14 169.92 
L 553.8375 169.92 
L 554.535 169.92 
L 555.2325 169.92 
L 555.93 169.92 
L 556.6275 169.92 
L 557.325 169.92 
L 558.0225 169.92 
L 558.72 169.92 
L 559.4175 169.92 
L 560.115 169.92 
L 560.8125 169.92 
L 561.51 169.92 
L 562.2075 169.92 
L 562.905 169.92 
L 563.6025 169.92 
L 564.3 169.92 
L 564.9975 169.92 
L 565.695 169.92 
L 566.3925 169.92 
L 567.09 169.92 
L 567.7875 169.92 
L 568.485 169.92 
L 569.1825 169.92 
L 569.88 169.92 
L 570.5775 169.92 
L 571.275 169.92 
L 571.9725 169.92 
L 572.67 169.92 
L 573.3675 169.92 
L 574.065 169.92 
L 574.7625 169.92 
L 575.46 169.92 
L 576.1575 169.92 
L 576.855 169.92 
L 577.5525 169.92 
L 578.25 169.92 
L 578.9475 169.92 
L 579.645 169.92 
L 580.3425 169.92 
L 581.04 169.92 
L 581.7375 169.92 
L 582.435 169.92 
L 583.1325 169.92 
L 583.83 169.92 
L 584.5275 169.92 
L 585.225 169.92 
L 585.9225 169.92 
L 586.62 169.92 
L 587.3175 169.92 
L 588.015 169.92 
L 588.7125 169.92 
L 589.41 169.92 
L 590.1075 169.92 
L 590.805 169.92 
L 591.5025 169.92 
L 592.2 169.92 
L 592.8975 169.92 
L 593.595 169.92 
L 594.2925 169.92 
L 594.99 169.92 
L 595.6875 169.92 
L 596.385 169.92 
L 597.0825 169.92 
L 597.78 169.92 
L 598.4775 169.92 
L 599.175 169.92 
L 599.8725 169.92 
L 600.57 169.92 
L 601.2675 169.92 
L 601.965 169.92 
L 602.6625 169.92 
L 603.36 169.92 
L 604.0575 169.92 
L 604.755 169.92 
L 605.4525 169.92 
L 606.15 169.92 
L 606.8475 169.92 
L 607.545 169.92 
L 608.2425 169.92 
L 608.94 169.92 
L 609.6375 169.92 
L 610.335 169.92 
L 611.0325 169.92 
L 611.73 169.92 
L 612.4275 169.92 
L 613.125 169.92 
L 613.8225 169.92 
L 614.52 169.92 
L 615.2175 169.92 
L 615.915 169.92 
L 616.6125 169.92 
L 617.31 169.92 
L 618.0075 169.92 
L 618.705 169.92 
L 619.4025 169.92 
L 620.1 169.92 
L 620.7975 169.92 
L 621.495 169.92 
L 622.1925 169.92 
L 622.89 169.92 
L 623.5875 169.92 
L 624.285 169.92 
L 624.9825 169.92 
L 625.68 169.92 
L 626.3775 169.92 
L 627.075 169.92 
L 627.7725 169.92 
L 628.47 169.92 
L 629.1675 169.92 
L 629.865 169.92 
L 630.5625 169.92 
L 631.26 169.92 
L 631.9575 169.92 
L 632.655 169.92 
L 633.3525 169.92 
L 634.05 169.92 
L 634.7475 169.92 
L 635.445 169.92 
L 636.1425 169.92 
L 636.84 169.92 
L 637.5375 169.92 
L 638.235 169.92 
L 638.9325 169.92 
L 639.63 169.92 
L 640.3275 169.92 
L 641.025 169.92 
L 641.7225 169.92 
L 642.42 169.92 
L 643.1175 169.92 
L 643.815 169.92 
L 644.5125 169.92 
L 645.21 169.92 
L 645.9075 169.92 
L 646.605 169.92 
L 646.605 169.92 
L 646.605 169.92 
L 645.9075 169.976702 
L 645.21 170.12731 
L 644.5125 170.319839 
L 643.815 170.558566 
L 643.1175 170.853581 
L 642.42 171.176581 
L 641.7225 171.517871 
L 641.025 171.917962 
L 640.3275 172.347449 
L 639.63 172.795514 
L 638.9325 173.288949 
L 638.235 173.784763 
L 637.5375 174.302945 
L 636.84 174.825447 
L 636.1425 175.353074 
L 635.445 175.88028 
L 634.7475 176.395221 
L 634.05 176.879882 
L 633.3525 177.322869 
L 632.655 177.757324 
L 631.9575 178.153478 
L 631.26 178.519768 
L 630.5625 178.858642 
L 629.865 179.172837 
L 629.1675 179.421249 
L 628.47 179.632767 
L 627.7725 179.798866 
L 627.075 179.936702 
L 626.3775 180.007023 
L 625.68 180.034291 
L 624.9825 180.00562 
L 624.285 179.908709 
L 623.5875 179.78868 
L 622.89 179.608993 
L 622.1925 179.390438 
L 621.495 179.129013 
L 620.7975 178.814865 
L 620.1 178.432398 
L 619.4025 178.029734 
L 618.705 177.579605 
L 618.0075 177.099345 
L 617.31 176.575102 
L 616.6125 176.006089 
L 615.915 175.429788 
L 615.2175 174.820758 
L 614.52 174.191702 
L 613.8225 173.568135 
L 613.125 172.944013 
L 612.4275 172.313298 
L 611.73 171.68892 
L 611.0325 171.108945 
L 610.335 170.560571 
L 609.6375 170.030663 
L 608.94 169.543692 
L 608.2425 169.092179 
L 607.545 168.66827 
L 606.8475 168.307923 
L 606.15 168.008627 
L 605.4525 167.760927 
L 604.755 167.523328 
L 604.0575 167.355028 
L 603.36 167.207397 
L 602.6625 167.113486 
L 601.965 167.049082 
L 601.2675 167.027464 
L 600.57 167.042558 
L 599.8725 167.087906 
L 599.175 167.17563 
L 598.4775 167.267008 
L 597.78 167.41148 
L 597.0825 167.557126 
L 596.385 167.727615 
L 595.6875 167.908554 
L 594.99 168.098041 
L 594.2925 168.312984 
L 593.595 168.519623 
L 592.8975 168.734685 
L 592.2 168.937009 
L 591.5025 169.105567 
L 590.805 169.276388 
L 590.1075 169.441375 
L 589.41 169.586193 
L 588.7125 169.696721 
L 588.015 169.796995 
L 587.3175 169.892263 
L 586.62 169.956321 
L 585.9225 169.988497 
L 585.225 169.969551 
L 584.5275 169.912283 
L 583.83 169.829895 
L 583.1325 169.735855 
L 582.435 169.62485 
L 581.7375 169.485447 
L 581.04 169.319113 
L 580.3425 169.127595 
L 579.645 168.894007 
L 578.9475 168.639706 
L 578.25 168.348464 
L 577.5525 168.023344 
L 576.855 167.699265 
L 576.1575 167.341833 
L 575.46 166.998907 
L 574.7625 166.617392 
L 574.065 166.213899 
L 573.3675 165.80527 
L 572.67 165.376902 
L 571.9725 164.977399 
L 571.275 164.579462 
L 570.5775 164.180973 
L 569.88 163.779822 
L 569.1825 163.411728 
L 568.485 163.042759 
L 567.7875 162.676797 
L 567.09 162.355488 
L 566.3925 162.05701 
L 565.695 161.784502 
L 564.9975 161.55343 
L 564.3 161.385122 
L 563.6025 161.256149 
L 562.905 161.155265 
L 562.2075 161.121333 
L 561.51 161.129508 
L 560.8125 161.192305 
L 560.115 161.315364 
L 559.4175 161.491091 
L 558.72 161.730239 
L 558.0225 162.005092 
L 557.325 162.344261 
L 556.6275 162.70638 
L 555.93 163.125443 
L 555.2325 163.559241 
L 554.535 164.028416 
L 553.8375 164.534334 
L 553.14 165.046475 
L 552.4425 165.603556 
L 551.745 166.149318 
L 551.0475 166.722125 
L 550.35 167.284453 
L 549.6525 167.868191 
L 548.955 168.435701 
L 548.2575 168.968415 
L 547.56 169.492234 
L 546.8625 170.001649 
L 546.165 170.485006 
L 545.4675 170.92462 
L 544.77 171.328472 
L 544.0725 171.686014 
L 543.375 171.999788 
L 542.6775 172.260194 
L 541.98 172.495995 
L 541.2825 172.660611 
L 540.585 172.777512 
L 539.8875 172.845469 
L 539.19 172.857466 
L 538.4925 172.83858 
L 537.795 172.776407 
L 537.0975 172.677901 
L 536.4 172.544099 
L 535.7025 172.382707 
L 535.005 172.176522 
L 534.3075 171.959213 
L 533.61 171.695262 
L 532.9125 171.425247 
L 532.215 171.120505 
L 531.5175 170.815741 
L 530.82 170.50786 
L 530.1225 170.193798 
L 529.425 169.902058 
L 528.7275 169.597906 
L 528.03 169.309741 
L 527.3325 169.034293 
L 526.635 168.768156 
L 525.9375 168.50783 
L 525.24 168.268652 
L 524.5425 168.046836 
L 523.845 167.851015 
L 523.1475 167.689547 
L 522.45 167.538929 
L 521.7525 167.413347 
L 521.055 167.301518 
L 520.3575 167.217221 
L 519.66 167.16764 
L 518.9625 167.146998 
L 518.265 167.149211 
L 517.5675 167.199456 
L 516.87 167.284605 
L 516.1725 167.391162 
L 515.475 167.543209 
L 514.7775 167.732845 
L 514.08 167.958076 
L 513.3825 168.216536 
L 512.685 168.492906 
L 511.9875 168.777981 
L 511.29 169.075062 
L 510.5925 169.393628 
L 509.895 169.742928 
L 509.1975 170.10039 
L 508.5 170.481157 
L 507.8025 170.849723 
L 507.105 171.246315 
L 506.4075 171.641563 
L 505.71 172.037611 
L 505.0125 172.411394 
L 504.315 172.784183 
L 503.6175 173.15206 
L 502.92 173.492254 
L 502.2225 173.838992 
L 501.525 174.157125 
L 500.8275 174.45591 
L 500.13 174.713305 
L 499.4325 174.932904 
L 498.735 175.131298 
L 498.0375 175.300101 
L 497.34 175.437539 
L 496.6425 175.535866 
L 495.945 175.606648 
L 495.2475 175.649143 
L 494.55 175.675503 
L 493.8525 175.647649 
L 493.155 175.597376 
L 492.4575 175.487412 
L 491.76 175.356713 
L 491.0625 175.187753 
L 490.365 174.982309 
L 489.6675 174.73624 
L 488.97 174.464734 
L 488.2725 174.158045 
L 487.575 173.825698 
L 486.8775 173.496387 
L 486.18 173.160976 
L 485.4825 172.810389 
L 484.785 172.448314 
L 484.0875 172.097457 
L 483.39 171.748907 
L 482.6925 171.393728 
L 481.995 171.035655 
L 481.2975 170.691053 
L 480.6 170.350944 
L 479.9025 170.025205 
L 479.205 169.71096 
L 478.5075 169.424113 
L 477.81 169.14878 
L 477.1125 168.900457 
L 476.415 168.669153 
L 475.7175 168.482501 
L 475.02 168.310964 
L 474.3225 168.162643 
L 473.625 168.0391 
L 472.9275 167.935332 
L 472.23 167.852431 
L 471.5325 167.791269 
L 470.835 167.783988 
L 470.1375 167.799166 
L 469.44 167.842942 
L 468.7425 167.927457 
L 468.045 168.045522 
L 467.3475 168.183295 
L 466.65 168.351928 
L 465.9525 168.562248 
L 465.255 168.812045 
L 464.5575 169.07979 
L 463.86 169.36267 
L 463.1625 169.67661 
L 462.465 169.993109 
L 461.7675 170.35294 
L 461.07 170.70822 
L 460.3725 171.061513 
L 459.675 171.409104 
L 458.9775 171.741038 
L 458.28 172.041226 
L 457.5825 172.344312 
L 456.885 172.634509 
L 456.1875 172.889866 
L 455.49 173.113998 
L 454.7925 173.336049 
L 454.095 173.522183 
L 453.3975 173.683045 
L 452.7 173.816943 
L 452.0025 173.928769 
L 451.305 174.011047 
L 450.6075 174.062912 
L 449.91 174.090119 
L 449.2125 174.086083 
L 448.515 174.057144 
L 447.8175 173.997309 
L 447.12 173.894604 
L 446.4225 173.762711 
L 445.725 173.609316 
L 445.0275 173.429733 
L 444.33 173.244749 
L 443.6325 173.031109 
L 442.935 172.791059 
L 442.2375 172.520822 
L 441.54 172.248442 
L 440.8425 171.95788 
L 440.145 171.671093 
L 439.4475 171.372195 
L 438.75 171.08953 
L 438.0525 170.794568 
L 437.355 170.503012 
L 436.6575 170.217926 
L 435.96 169.929707 
L 435.2625 169.653987 
L 434.565 169.387364 
L 433.8675 169.138942 
L 433.17 168.898731 
L 432.4725 168.681858 
L 431.775 168.478004 
L 431.0775 168.28931 
L 430.38 168.117761 
L 429.6825 167.971461 
L 428.985 167.845648 
L 428.2875 167.741645 
L 427.59 167.654245 
L 426.8925 167.590666 
L 426.195 167.557879 
L 425.4975 167.549926 
L 424.8 167.566893 
L 424.1025 167.6149 
L 423.405 167.680843 
L 422.7075 167.789229 
L 422.01 167.907417 
L 421.3125 168.046766 
L 420.615 168.205809 
L 419.9175 168.376576 
L 419.22 168.557269 
L 418.5225 168.745991 
L 417.825 168.953356 
L 417.1275 169.164584 
L 416.43 169.383754 
L 415.7325 169.602263 
L 415.035 169.805211 
L 414.3375 170.015667 
L 413.64 170.225117 
L 412.9425 170.418758 
L 412.245 170.619756 
L 411.5475 170.807096 
L 410.85 170.966209 
L 410.1525 171.108022 
L 409.455 171.231044 
L 408.7575 171.333982 
L 408.06 171.409453 
L 407.3625 171.450363 
L 406.665 171.475183 
L 405.9675 171.452151 
L 405.27 171.400409 
L 404.5725 171.307902 
L 403.875 171.194503 
L 403.1775 171.055103 
L 402.48 170.878568 
L 401.7825 170.685654 
L 401.085 170.453189 
L 400.3875 170.196218 
L 399.69 169.923743 
L 398.9925 169.619727 
L 398.295 169.293668 
L 397.5975 168.967893 
L 396.9 168.633229 
L 396.2025 168.299493 
L 395.505 167.957595 
L 394.8075 167.617429 
L 394.11 167.282571 
L 393.4125 166.931342 
L 392.715 166.592635 
L 392.0175 166.270012 
L 391.32 165.954263 
L 390.6225 165.67391 
L 389.925 165.394099 
L 389.2275 165.136673 
L 388.53 164.923238 
L 387.8325 164.737138 
L 387.135 164.58033 
L 386.4375 164.473363 
L 385.74 164.39216 
L 385.0425 164.337577 
L 384.345 164.322786 
L 383.6475 164.347944 
L 382.95 164.400185 
L 382.2525 164.472661 
L 381.555 164.570909 
L 380.8575 164.700196 
L 380.16 164.852863 
L 379.4625 165.027305 
L 378.765 165.215388 
L 378.0675 165.408834 
L 377.37 165.624509 
L 376.6725 165.841245 
L 375.975 166.069365 
L 375.2775 166.31277 
L 374.58 166.556299 
L 373.8825 166.803694 
L 373.185 167.046053 
L 372.4875 167.287127 
L 371.79 167.524382 
L 371.0925 167.749024 
L 370.395 167.95869 
L 369.6975 168.151176 
L 369 168.34336 
L 368.3025 168.501718 
L 367.605 168.662388 
L 366.9075 168.79848 
L 366.21 168.908562 
L 365.5125 168.997777 
L 364.815 169.065188 
L 364.1175 169.097485 
L 363.42 169.106929 
L 362.7225 169.093421 
L 362.025 169.057102 
L 361.3275 168.998356 
L 360.63 168.930398 
L 359.9325 168.835045 
L 359.235 168.719598 
L 358.5375 168.591571 
L 357.84 168.427109 
L 357.1425 168.253144 
L 356.445 168.052602 
L 355.7475 167.840193 
L 355.05 167.611851 
L 354.3525 167.357374 
L 353.655 167.09204 
L 352.9575 166.812338 
L 352.26 166.533809 
L 351.5625 166.265682 
L 350.865 165.991874 
L 350.1675 165.721566 
L 349.47 165.457599 
L 348.7725 165.202749 
L 348.075 164.965994 
L 347.3775 164.749825 
L 346.68 164.562815 
L 345.9825 164.400629 
L 345.285 164.258672 
L 344.5875 164.144738 
L 343.89 164.066323 
L 343.1925 164.011653 
L 342.495 163.987603 
L 341.7975 163.994424 
L 341.1 164.025746 
L 340.4025 164.093839 
L 339.705 164.197988 
L 339.0075 164.330797 
L 338.31 164.497169 
L 337.6125 164.689057 
L 336.915 164.917042 
L 336.2175 165.178727 
L 335.52 165.458761 
L 334.8225 165.754199 
L 334.125 166.061936 
L 333.4275 166.385036 
L 332.73 166.713801 
L 332.0325 167.038475 
L 331.335 167.368244 
L 330.6375 167.693342 
L 329.94 167.99775 
L 329.2425 168.290867 
L 328.545 168.588513 
L 327.8475 168.856056 
L 327.15 169.115886 
L 326.4525 169.352669 
L 325.755 169.557615 
L 325.0575 169.734872 
L 324.36 169.882573 
L 323.6625 169.999167 
L 322.965 170.083428 
L 322.2675 170.13447 
L 321.57 170.158057 
L 320.8725 170.160239 
L 320.175 170.128395 
L 319.4775 170.06916 
L 318.78 169.983155 
L 318.0825 169.864986 
L 317.385 169.722194 
L 316.6875 169.562581 
L 315.99 169.381526 
L 315.2925 169.187232 
L 314.595 168.981741 
L 313.8975 168.779815 
L 313.2 168.564677 
L 312.5025 168.332287 
L 311.805 168.085089 
L 311.1075 167.825683 
L 310.41 167.563096 
L 309.7125 167.306389 
L 309.015 167.05196 
L 308.3175 166.808785 
L 307.62 166.566821 
L 306.9225 166.341212 
L 306.225 166.128029 
L 305.5275 165.948414 
L 304.83 165.804256 
L 304.1325 165.684471 
L 303.435 165.596618 
L 302.7375 165.54792 
L 302.04 165.52629 
L 301.3425 165.538255 
L 300.645 165.583689 
L 299.9475 165.662114 
L 299.25 165.772706 
L 298.5525 165.914303 
L 297.855 166.085415 
L 297.1575 166.296843 
L 296.46 166.540066 
L 295.7625 166.812524 
L 295.065 167.105054 
L 294.3675 167.420881 
L 293.67 167.756682 
L 292.9725 168.108929 
L 292.275 168.480217 
L 291.5775 168.854043 
L 290.88 169.239076 
L 290.1825 169.618668 
L 289.485 170.001428 
L 288.7875 170.377032 
L 288.09 170.74153 
L 287.3925 171.097391 
L 286.695 171.434573 
L 285.9975 171.75583 
L 285.3 172.045186 
L 284.6025 172.318497 
L 283.905 172.566591 
L 283.2075 172.786858 
L 282.51 172.976983 
L 281.8125 173.134968 
L 281.115 173.25915 
L 280.4175 173.348225 
L 279.72 173.407555 
L 279.0225 173.430218 
L 278.325 173.415974 
L 277.6275 173.371274 
L 276.93 173.296587 
L 276.2325 173.186399 
L 275.535 173.048168 
L 274.8375 172.883348 
L 274.14 172.699972 
L 273.4425 172.493668 
L 272.745 172.260304 
L 272.0475 172.014934 
L 271.35 171.747539 
L 270.6525 171.467229 
L 269.955 171.176951 
L 269.2575 170.873458 
L 268.56 170.572541 
L 267.8625 170.277363 
L 267.165 169.997329 
L 266.4675 169.722782 
L 265.77 169.462908 
L 265.0725 169.220441 
L 264.375 168.991629 
L 263.6775 168.791478 
L 262.98 168.609493 
L 262.2825 168.441287 
L 261.585 168.301228 
L 260.8875 168.184488 
L 260.19 168.098597 
L 259.4925 168.044456 
L 258.795 168.022634 
L 258.0975 168.033362 
L 257.4 168.076526 
L 256.7025 168.151673 
L 256.005 168.258012 
L 255.3075 168.400726 
L 254.61 168.565714 
L 253.9125 168.75754 
L 253.215 168.96789 
L 252.5175 169.200849 
L 251.82 169.447671 
L 251.1225 169.705758 
L 250.425 169.978698 
L 249.7275 170.263622 
L 249.03 170.557533 
L 248.3325 170.857341 
L 247.635 171.159895 
L 246.9375 171.462012 
L 246.24 171.747917 
L 245.5425 172.027204 
L 244.845 172.290636 
L 244.1475 172.548043 
L 243.45 172.78412 
L 242.7525 173.002683 
L 242.055 173.195136 
L 241.3575 173.353154 
L 240.66 173.487676 
L 239.9625 173.590988 
L 239.265 173.662003 
L 238.5675 173.693675 
L 237.87 173.685671 
L 237.1725 173.644375 
L 236.475 173.570221 
L 235.7775 173.457688 
L 235.08 173.314261 
L 234.3825 173.141447 
L 233.685 172.941063 
L 232.9875 172.708915 
L 232.29 172.447445 
L 231.5925 172.172001 
L 230.895 171.879181 
L 230.1975 171.565761 
L 229.5 171.241339 
L 228.8025 170.896723 
L 228.105 170.548139 
L 227.4075 170.19295 
L 226.71 169.834892 
L 226.0125 169.484028 
L 225.315 169.137749 
L 224.6175 168.799693 
L 223.92 168.473417 
L 223.2225 168.16235 
L 222.525 167.869763 
L 221.8275 167.598732 
L 221.13 167.352107 
L 220.4325 167.12618 
L 219.735 166.929628 
L 219.0375 166.758216 
L 218.34 166.620047 
L 217.6425 166.516573 
L 216.945 166.448883 
L 216.2475 166.417689 
L 215.55 166.423317 
L 214.8525 166.46571 
L 214.155 166.54442 
L 213.4575 166.664922 
L 212.76 166.819647 
L 212.0625 167.00697 
L 211.365 167.23122 
L 210.6675 167.48374 
L 209.97 167.761875 
L 209.2725 168.0627 
L 208.575 168.383052 
L 207.8775 168.719565 
L 207.18 169.068698 
L 206.4825 169.426782 
L 205.785 169.790052 
L 205.0875 170.154688 
L 204.39 170.516856 
L 203.6925 170.872749 
L 202.995 171.218625 
L 202.2975 171.563448 
L 201.6 171.890991 
L 200.9025 172.197812 
L 200.205 172.480684 
L 199.5075 172.736632 
L 198.81 172.962967 
L 198.1125 173.163608 
L 197.415 173.330146 
L 196.7175 173.46083 
L 196.02 173.554286 
L 195.3225 173.609531 
L 194.625 173.625984 
L 193.9275 173.603473 
L 193.23 173.542234 
L 192.5325 173.442911 
L 191.835 173.306547 
L 191.1375 173.134578 
L 190.44 172.928811 
L 189.7425 172.69141 
L 189.045 172.42487 
L 188.3475 172.131993 
L 187.65 171.81586 
L 186.9525 171.479794 
L 186.255 171.127329 
L 185.5575 170.762169 
L 184.86 170.388155 
L 184.1625 170.009219 
L 183.465 169.629345 
L 182.7675 169.252526 
L 182.07 168.882726 
L 181.3725 168.523831 
L 180.675 168.179616 
L 179.9775 167.853699 
L 179.28 167.549507 
L 178.5825 167.270238 
L 177.885 167.018829 
L 177.1875 166.797922 
L 176.49 166.609841 
L 175.7925 166.456563 
L 175.095 166.3397 
L 174.3975 166.260479 
L 173.7 166.219735 
L 173.0025 166.217895 
L 172.305 166.254979 
L 171.6075 166.330597 
L 170.91 166.443954 
L 170.2125 166.593857 
L 169.515 166.778732 
L 168.8175 166.996634 
L 168.12 167.245272 
L 167.4225 167.515732 
L 166.725 167.81147 
L 166.0275 168.129378 
L 165.33 168.466112 
L 164.6325 168.818132 
L 163.935 169.181737 
L 163.2375 169.553104 
L 162.54 169.928328 
L 161.8425 170.297165 
L 161.145 170.662037 
L 160.4475 171.019106 
L 159.75 171.36462 
L 159.0525 171.694945 
L 158.355 172.006608 
L 157.6575 172.296333 
L 156.96 172.561073 
L 156.2625 172.798045 
L 155.565 173.004757 
L 154.8675 173.179036 
L 154.17 173.31905 
L 153.4725 173.423326 
L 152.775 173.490769 
L 152.0775 173.514368 
L 151.38 173.500176 
L 150.6825 173.442042 
L 149.985 173.346878 
L 149.2875 173.215683 
L 148.59 173.049838 
L 147.8925 172.851086 
L 147.195 172.621516 
L 146.4975 172.363543 
L 145.8 172.079878 
L 145.1025 171.773505 
L 144.405 171.447644 
L 143.7075 171.105721 
L 143.01 170.751331 
L 142.3125 170.388201 
L 141.615 170.020149 
L 140.9175 169.651043 
L 140.22 169.284765 
L 139.5225 168.918866 
L 138.825 168.563493 
L 138.1275 168.222382 
L 137.43 167.90542 
L 136.7325 167.609639 
L 136.035 167.338149 
L 135.3375 167.093805 
L 134.64 166.879175 
L 133.9425 166.702816 
L 133.245 166.560283 
L 132.5475 166.453074 
L 131.85 166.382316 
L 131.1525 166.348753 
L 130.455 166.352738 
L 129.7575 166.394229 
L 129.06 166.47279 
L 128.3625 166.587595 
L 127.665 166.737437 
L 126.9675 166.92074 
L 126.27 167.135577 
L 125.5725 167.379689 
L 124.875 167.650511 
L 124.1775 167.945193 
L 123.48 168.260639 
L 122.7825 168.593531 
L 122.085 168.940369 
L 121.3875 169.297508 
L 120.69 169.661191 
L 119.9925 170.027595 
L 119.295 170.392868 
L 118.5975 170.75317 
L 117.9 171.104711 
L 117.2025 171.443797 
L 116.505 171.766861 
L 115.8075 172.070507 
L 115.11 172.351543 
L 114.4125 172.607014 
L 113.715 172.834234 
L 113.0175 173.030813 
L 112.32 173.194686 
L 111.6225 173.324129 
L 110.925 173.41778 
L 110.2275 173.474656 
L 109.53 173.494159 
L 108.8325 173.476083 
L 108.135 173.420618 
L 107.4375 173.328349 
L 106.74 173.200243 
L 106.0425 173.03765 
L 105.345 172.842277 
L 104.6475 172.61618 
L 103.95 172.361735 
L 103.2525 172.081618 
L 102.555 171.778774 
L 101.8575 171.456387 
L 101.16 171.117846 
L 100.4625 170.766711 
L 99.765 170.406674 
L 99.0675 170.04152 
L 98.37 169.675088 
L 97.6725 169.311231 
L 96.975 168.953775 
L 96.2775 168.606477 
L 95.58 168.27299 
L 94.8825 167.96312 
L 94.185 167.673824 
L 93.4875 167.408145 
L 92.79 167.168875 
L 92.0925 166.95853 
L 91.395 166.779323 
L 90.6975 166.633136 
L 90 166.521507 
z
" style="fill:#e0ffff;"/>
   </g>
   <g id="line2d_15">
    <path clip-path="url(#pa949255571)" d="M 90 166.521507 
L 92.0925 166.95853 
L 94.185 167.673824 
L 96.2775 168.606477 
L 103.95 172.361735 
L 106.0425 173.03765 
L 108.135 173.420618 
L 109.53 173.494159 
L 110.925 173.41778 
L 113.0175 173.030813 
L 115.11 172.351543 
L 117.2025 171.443797 
L 121.3875 169.297508 
L 124.1775 167.945193 
L 126.27 167.135577 
L 128.3625 166.587595 
L 130.455 166.352738 
L 131.85 166.382316 
L 133.9425 166.702816 
L 136.035 167.338149 
L 138.1275 168.222382 
L 142.3125 170.388201 
L 145.8 172.079878 
L 147.8925 172.851086 
L 149.985 173.346878 
L 151.38 173.500176 
L 152.775 173.490769 
L 154.8675 173.179036 
L 156.96 172.561073 
L 159.0525 171.694945 
L 162.54 169.928328 
L 166.0275 168.129378 
L 168.12 167.245272 
L 170.2125 166.593857 
L 172.305 166.254979 
L 173.7 166.219735 
L 175.095 166.3397 
L 177.1875 166.797922 
L 179.28 167.549507 
L 182.07 168.882726 
L 188.3475 172.131993 
L 190.44 172.928811 
L 192.5325 173.442911 
L 193.9275 173.603473 
L 195.3225 173.609531 
L 196.7175 173.46083 
L 198.81 172.962967 
L 200.9025 172.197812 
L 203.6925 170.872749 
L 209.97 167.761875 
L 212.0625 167.00697 
L 214.155 166.54442 
L 216.2475 166.417689 
L 218.34 166.620047 
L 220.4325 167.12618 
L 222.525 167.869763 
L 225.315 169.137749 
L 231.5925 172.172001 
L 233.685 172.941063 
L 235.7775 173.457688 
L 237.87 173.685671 
L 239.265 173.662003 
L 241.3575 173.353154 
L 243.45 172.78412 
L 246.24 171.747917 
L 253.215 168.96789 
L 255.3075 168.400726 
L 257.4 168.076526 
L 259.4925 168.044456 
L 261.585 168.301228 
L 263.6775 168.791478 
L 265.77 169.462908 
L 269.2575 170.873458 
L 272.0475 172.014934 
L 274.8375 172.883348 
L 276.93 173.296587 
L 279.0225 173.430218 
L 281.115 173.25915 
L 283.2075 172.786858 
L 285.3 172.045186 
L 287.3925 171.097391 
L 291.5775 168.854043 
L 295.065 167.105054 
L 297.1575 166.296843 
L 299.25 165.772706 
L 301.3425 165.538255 
L 303.435 165.596618 
L 305.5275 165.948414 
L 307.62 166.566821 
L 315.99 169.381526 
L 318.0825 169.864986 
L 320.175 170.128395 
L 322.2675 170.13447 
L 324.36 169.882573 
L 326.4525 169.352669 
L 329.2425 168.290867 
L 332.73 166.713801 
L 336.2175 165.178727 
L 338.31 164.497169 
L 340.4025 164.093839 
L 342.495 163.987603 
L 344.5875 164.144738 
L 346.68 164.562815 
L 348.7725 165.202749 
L 357.84 168.427109 
L 359.9325 168.835045 
L 362.025 169.057102 
L 364.1175 169.097485 
L 366.21 168.908562 
L 368.3025 168.501718 
L 370.395 167.95869 
L 373.8825 166.803694 
L 378.0675 165.408834 
L 380.8575 164.700196 
L 382.95 164.400185 
L 385.0425 164.337577 
L 387.135 164.58033 
L 389.2275 165.136673 
L 392.0175 166.270012 
L 398.295 169.293668 
L 400.3875 170.196218 
L 402.48 170.878568 
L 404.5725 171.307902 
L 406.665 171.475183 
L 408.7575 171.333982 
L 410.85 170.966209 
L 413.64 170.225117 
L 420.615 168.205809 
L 423.405 167.680843 
L 425.4975 167.549926 
L 427.59 167.654245 
L 429.6825 167.971461 
L 431.775 168.478004 
L 434.565 169.387364 
L 439.4475 171.372195 
L 442.935 172.791059 
L 445.0275 173.429733 
L 447.12 173.894604 
L 448.515 174.057144 
L 450.6075 174.062912 
L 452.7 173.816943 
L 454.7925 173.336049 
L 457.5825 172.344312 
L 461.07 170.70822 
L 463.86 169.36267 
L 465.9525 168.562248 
L 468.045 168.045522 
L 470.1375 167.799166 
L 472.23 167.852431 
L 474.3225 168.162643 
L 476.415 168.669153 
L 479.205 169.71096 
L 482.6925 171.393728 
L 488.2725 174.158045 
L 490.365 174.982309 
L 492.4575 175.487412 
L 493.8525 175.647649 
L 495.2475 175.649143 
L 497.34 175.437539 
L 499.4325 174.932904 
L 500.8275 174.45591 
L 503.6175 173.15206 
L 512.685 168.492906 
L 514.7775 167.732845 
L 516.1725 167.391162 
L 518.265 167.149211 
L 520.3575 167.217221 
L 522.45 167.538929 
L 524.5425 168.046836 
L 527.3325 169.034293 
L 530.82 170.50786 
L 534.3075 171.959213 
L 536.4 172.544099 
L 538.4925 172.83858 
L 539.8875 172.845469 
L 541.2825 172.660611 
L 542.6775 172.260194 
L 544.0725 171.686014 
L 545.4675 170.92462 
L 547.56 169.492234 
L 550.35 167.284453 
L 554.535 164.028416 
L 556.6275 162.70638 
L 558.72 161.730239 
L 560.115 161.315364 
L 561.51 161.129508 
L 562.905 161.155265 
L 564.9975 161.55343 
L 567.09 162.355488 
L 569.1825 163.411728 
L 572.67 165.376902 
L 575.46 166.998907 
L 578.9475 168.639706 
L 581.04 169.319113 
L 583.1325 169.735855 
L 585.225 169.969551 
L 586.62 169.956321 
L 588.7125 169.696721 
L 590.805 169.276388 
L 594.2925 168.312984 
L 597.0825 167.557126 
L 599.8725 167.087906 
L 601.965 167.049082 
L 603.36 167.207397 
L 605.4525 167.760927 
L 606.8475 168.307923 
L 608.2425 169.092179 
L 610.335 170.560571 
L 612.4275 172.313298 
L 616.6125 176.006089 
L 618.705 177.579605 
L 620.7975 178.814865 
L 622.1925 179.390438 
L 623.5875 179.78868 
L 624.9825 180.00562 
L 626.3775 180.007023 
L 627.7725 179.798866 
L 629.1675 179.421249 
L 630.5625 178.858642 
L 632.655 177.757324 
L 634.7475 176.395221 
L 640.3275 172.347449 
L 642.42 171.176581 
L 644.5125 170.319839 
L 645.9075 169.976702 
L 646.605 169.92 
L 646.605 169.92 
" style="fill:none;stroke:#008080;stroke-linecap:round;stroke-width:1.75;"/>
   </g>
   <g id="patch_3">
    <path d="M 90 270.72 
L 90 69.12 
" style="fill:none;stroke:#262626;stroke-linecap:square;stroke-linejoin:miter;stroke-width:1.25;"/>
   </g>
   <g id="patch_4">
    <path d="M 90 270.72 
L 648 270.72 
" style="fill:none;stroke:#262626;stroke-linecap:square;stroke-linejoin:miter;stroke-width:1.25;"/>
   </g>
  </g>
  <g id="axes_2">
   <g id="patch_5">
    <path d="M 90 512.64 
L 648 512.64 
L 648 311.04 
L 90 311.04 
z
" style="fill:#ffffff;"/>
   </g>
   <g id="matplotlib.axis_3">
    <g id="xtick_10">
     <g id="line2d_16">
      <g>
       <use style="fill:#262626;stroke:#262626;" x="191.454545" xlink:href="#mc8fceb3fe1" y="512.64"/>
      </g>
     </g>
     <g id="text_15">
      <!-- 200 -->
      <g style="fill:#262626;" transform="translate(183.113139 532.797812)scale(0.1 -0.1)">
       <use xlink:href="#ArialMT-32"/>
       <use x="55.615234" xlink:href="#ArialMT-30"/>
       <use x="111.230469" xlink:href="#ArialMT-30"/>
      </g>
     </g>
    </g>
    <g id="xtick_11">
     <g id="line2d_17">
      <g>
       <use style="fill:#262626;stroke:#262626;" x="304.181818" xlink:href="#mc8fceb3fe1" y="512.64"/>
      </g>
     </g>
     <g id="text_16">
      <!-- 400 -->
      <g style="fill:#262626;" transform="translate(295.840412 532.797812)scale(0.1 -0.1)">
       <use xlink:href="#ArialMT-34"/>
       <use x="55.615234" xlink:href="#ArialMT-30"/>
       <use x="111.230469" xlink:href="#ArialMT-30"/>
      </g>
     </g>
    </g>
    <g id="xtick_12">
     <g id="line2d_18">
      <g>
       <use style="fill:#262626;stroke:#262626;" x="416.909091" xlink:href="#mc8fceb3fe1" y="512.64"/>
      </g>
     </g>
     <g id="text_17">
      <!-- 600 -->
      <g style="fill:#262626;" transform="translate(408.567685 532.797812)scale(0.1 -0.1)">
       <use xlink:href="#ArialMT-36"/>
       <use x="55.615234" xlink:href="#ArialMT-30"/>
       <use x="111.230469" xlink:href="#ArialMT-30"/>
      </g>
     </g>
    </g>
    <g id="xtick_13">
     <g id="line2d_19">
      <g>
       <use style="fill:#262626;stroke:#262626;" x="529.636364" xlink:href="#mc8fceb3fe1" y="512.64"/>
      </g>
     </g>
     <g id="text_18">
      <!-- 800 -->
      <g style="fill:#262626;" transform="translate(521.294957 532.797812)scale(0.1 -0.1)">
       <use xlink:href="#ArialMT-38"/>
       <use x="55.615234" xlink:href="#ArialMT-30"/>
       <use x="111.230469" xlink:href="#ArialMT-30"/>
      </g>
     </g>
    </g>
    <g id="xtick_14">
     <g id="line2d_20">
      <g>
       <use style="fill:#262626;stroke:#262626;" x="642.363636" xlink:href="#mc8fceb3fe1" y="512.64"/>
      </g>
     </g>
     <g id="text_19">
      <!-- 1000 -->
      <g style="fill:#262626;" transform="translate(631.241761 532.797812)scale(0.1 -0.1)">
       <use xlink:href="#ArialMT-31"/>
       <use x="55.615234" xlink:href="#ArialMT-30"/>
       <use x="111.230469" xlink:href="#ArialMT-30"/>
       <use x="166.845703" xlink:href="#ArialMT-30"/>
      </g>
     </g>
    </g>
   </g>
   <g id="matplotlib.axis_4">
    <g id="ytick_6">
     <g id="line2d_21">
      <g>
       <use style="fill:#262626;stroke:#262626;" x="90" xlink:href="#m71376eb7c7" y="512.64"/>
      </g>
     </g>
     <g id="text_20">
      <!-- 0 -->
      <g style="fill:#262626;" transform="translate(71.439063 516.218906)scale(0.1 -0.1)">
       <use xlink:href="#ArialMT-30"/>
      </g>
     </g>
    </g>
    <g id="ytick_7">
     <g id="line2d_22">
      <g>
       <use style="fill:#262626;stroke:#262626;" x="90" xlink:href="#m71376eb7c7" y="490.24"/>
      </g>
     </g>
     <g id="text_21">
      <!-- 2 -->
      <g style="fill:#262626;" transform="translate(71.439063 493.818906)scale(0.1 -0.1)">
       <use xlink:href="#ArialMT-32"/>
      </g>
     </g>
    </g>
    <g id="ytick_8">
     <g id="line2d_23">
      <g>
       <use style="fill:#262626;stroke:#262626;" x="90" xlink:href="#m71376eb7c7" y="467.84"/>
      </g>
     </g>
     <g id="text_22">
      <!-- 4 -->
      <g style="fill:#262626;" transform="translate(71.439063 471.418906)scale(0.1 -0.1)">
       <use xlink:href="#ArialMT-34"/>
      </g>
     </g>
    </g>
    <g id="ytick_9">
     <g id="line2d_24">
      <g>
       <use style="fill:#262626;stroke:#262626;" x="90" xlink:href="#m71376eb7c7" y="445.44"/>
      </g>
     </g>
     <g id="text_23">
      <!-- 6 -->
      <g style="fill:#262626;" transform="translate(71.439063 449.018906)scale(0.1 -0.1)">
       <use xlink:href="#ArialMT-36"/>
      </g>
     </g>
    </g>
    <g id="ytick_10">
     <g id="line2d_25">
      <g>
       <use style="fill:#262626;stroke:#262626;" x="90" xlink:href="#m71376eb7c7" y="423.04"/>
      </g>
     </g>
     <g id="text_24">
      <!-- 8 -->
      <g style="fill:#262626;" transform="translate(71.439063 426.618906)scale(0.1 -0.1)">
       <use xlink:href="#ArialMT-38"/>
      </g>
     </g>
    </g>
    <g id="ytick_11">
     <g id="line2d_26">
      <g>
       <use style="fill:#262626;stroke:#262626;" x="90" xlink:href="#m71376eb7c7" y="400.64"/>
      </g>
     </g>
     <g id="text_25">
      <!-- 10 -->
      <g style="fill:#262626;" transform="translate(65.878125 404.218906)scale(0.1 -0.1)">
       <use xlink:href="#ArialMT-31"/>
       <use x="55.615234" xlink:href="#ArialMT-30"/>
      </g>
     </g>
    </g>
    <g id="ytick_12">
     <g id="line2d_27">
      <g>
       <use style="fill:#262626;stroke:#262626;" x="90" xlink:href="#m71376eb7c7" y="378.24"/>
      </g>
     </g>
     <g id="text_26">
      <!-- 12 -->
      <g style="fill:#262626;" transform="translate(65.878125 381.818906)scale(0.1 -0.1)">
       <use xlink:href="#ArialMT-31"/>
       <use x="55.615234" xlink:href="#ArialMT-32"/>
      </g>
     </g>
    </g>
    <g id="ytick_13">
     <g id="line2d_28">
      <g>
       <use style="fill:#262626;stroke:#262626;" x="90" xlink:href="#m71376eb7c7" y="355.84"/>
      </g>
     </g>
     <g id="text_27">
      <!-- 14 -->
      <g style="fill:#262626;" transform="translate(65.878125 359.418906)scale(0.1 -0.1)">
       <use xlink:href="#ArialMT-31"/>
       <use x="55.615234" xlink:href="#ArialMT-34"/>
      </g>
     </g>
    </g>
    <g id="ytick_14">
     <g id="line2d_29">
      <g>
       <use style="fill:#262626;stroke:#262626;" x="90" xlink:href="#m71376eb7c7" y="333.44"/>
      </g>
     </g>
     <g id="text_28">
      <!-- 16 -->
      <g style="fill:#262626;" transform="translate(65.878125 337.018906)scale(0.1 -0.1)">
       <use xlink:href="#ArialMT-31"/>
       <use x="55.615234" xlink:href="#ArialMT-36"/>
      </g>
     </g>
    </g>
    <g id="ytick_15">
     <g id="line2d_30">
      <g>
       <use style="fill:#262626;stroke:#262626;" x="90" xlink:href="#m71376eb7c7" y="311.04"/>
      </g>
     </g>
     <g id="text_29">
      <!-- 18 -->
      <g style="fill:#262626;" transform="translate(65.878125 314.618906)scale(0.1 -0.1)">
       <use xlink:href="#ArialMT-31"/>
       <use x="55.615234" xlink:href="#ArialMT-38"/>
      </g>
     </g>
    </g>
   </g>
   <g id="line2d_31">
    <path clip-path="url(#p753abae7ee)" d="M 90 477.654723 
L 95.636364 452.736402 
L 101.272727 431.923589 
L 106.909091 427.92302 
L 112.545455 440.45326 
L 118.181818 444.705349 
L 123.818182 448.961059 
L 129.454545 457.370701 
L 135.090909 456.375715 
L 140.727273 434.868159 
L 146.363636 408.816951 
L 152 389.988216 
L 157.636364 371.492183 
L 163.272727 352.310178 
L 168.909091 342.280664 
L 174.545455 348.647566 
L 180.181818 355.802406 
L 185.818182 363.350788 
L 191.454545 378.270766 
L 197.090909 391.147889 
L 202.727273 394.129256 
L 208.363636 396.550705 
L 214 393.395457 
L 219.636364 389.651786 
L 225.272727 392.702199 
L 230.909091 396.085016 
L 236.545455 399.690878 
L 242.181818 407.737617 
L 247.818182 414.331388 
L 253.454545 417.809913 
L 259.090909 422.903097 
L 264.727273 426.347751 
L 270.363636 429.764905 
L 276 436.797845 
L 281.636364 444.59905 
L 287.272727 452.348689 
L 292.909091 461.235722 
L 298.545455 467.982454 
L 304.181818 471.144774 
L 309.818182 472.257688 
L 315.454545 471.707893 
L 321.090909 472.117482 
L 326.727273 473.818281 
L 332.363636 475.619312 
L 338 478.193498 
L 343.636364 480.655986 
L 349.272727 482.144164 
L 354.909091 483.974362 
L 360.545455 485.825198 
L 366.181818 487.914885 
L 371.818182 490.804554 
L 377.454545 493.872728 
L 383.090909 496.544264 
L 388.727273 498.469641 
L 394.363636 499.417825 
L 400 499.768128 
L 405.636364 498.821458 
L 411.272727 497.224183 
L 416.909091 494.909956 
L 422.545455 492.447818 
L 428.181818 490.656474 
L 433.818182 489.398754 
L 439.454545 488.863228 
L 445.090909 489.4762 
L 450.727273 490.947183 
L 456.363636 492.717187 
L 462 494.86505 
L 467.636364 496.940627 
L 473.272727 498.413462 
L 478.909091 499.664059 
L 484.545455 500.693175 
" style="fill:none;stroke:#b22222;stroke-linecap:round;stroke-width:1.75;"/>
   </g>
   <g id="line2d_32">
    <path clip-path="url(#p753abae7ee)" d="M 152 512.64 
L 152 311.04 
" style="fill:none;stroke:#4c72b0;stroke-linecap:round;stroke-width:1.75;"/>
   </g>
   <g id="patch_6">
    <path d="M 90 512.64 
L 90 311.04 
" style="fill:none;stroke:#262626;stroke-linecap:square;stroke-linejoin:miter;stroke-width:1.25;"/>
   </g>
   <g id="patch_7">
    <path d="M 90 512.64 
L 648 512.64 
" style="fill:none;stroke:#262626;stroke-linecap:square;stroke-linejoin:miter;stroke-width:1.25;"/>
   </g>
   <g id="text_30">
    <!-- f = 720 Hz -->
    <defs>
     <path d="M 8.6875 0 
L 8.6875 45.015625 
L 0.921875 45.015625 
L 0.921875 51.859375 
L 8.6875 51.859375 
L 8.6875 57.375 
Q 8.6875 62.59375 9.625 65.140625 
Q 10.890625 68.5625 14.078125 70.671875 
Q 17.28125 72.796875 23.046875 72.796875 
Q 26.765625 72.796875 31.25 71.921875 
L 29.9375 64.265625 
Q 27.203125 64.75 24.75 64.75 
Q 20.75 64.75 19.09375 63.03125 
Q 17.4375 61.328125 17.4375 56.640625 
L 17.4375 51.859375 
L 27.546875 51.859375 
L 27.546875 45.015625 
L 17.4375 45.015625 
L 17.4375 0 
z
" id="ArialMT-66"/>
     <path id="ArialMT-20"/>
     <path d="M 52.828125 42.09375 
L 5.5625 42.09375 
L 5.5625 50.296875 
L 52.828125 50.296875 
z
M 52.828125 20.359375 
L 5.5625 20.359375 
L 5.5625 28.5625 
L 52.828125 28.5625 
z
" id="ArialMT-3d"/>
     <path d="M 8.015625 0 
L 8.015625 71.578125 
L 17.484375 71.578125 
L 17.484375 42.1875 
L 54.6875 42.1875 
L 54.6875 71.578125 
L 64.15625 71.578125 
L 64.15625 0 
L 54.6875 0 
L 54.6875 33.734375 
L 17.484375 33.734375 
L 17.484375 0 
z
" id="ArialMT-48"/>
     <path d="M 1.953125 0 
L 1.953125 7.125 
L 34.96875 45.015625 
Q 29.34375 44.734375 25.046875 44.734375 
L 3.90625 44.734375 
L 3.90625 51.859375 
L 46.296875 51.859375 
L 46.296875 46.046875 
L 18.21875 13.140625 
L 12.796875 7.125 
Q 18.703125 7.5625 23.875 7.5625 
L 47.859375 7.5625 
L 47.859375 0 
z
" id="ArialMT-7a"/>
    </defs>
    <g style="fill:#262626;" transform="translate(529.636364 403.742188)scale(0.12 -0.12)">
     <use xlink:href="#ArialMT-66"/>
     <use x="27.783203" xlink:href="#ArialMT-20"/>
     <use x="55.566406" xlink:href="#ArialMT-3d"/>
     <use x="113.964844" xlink:href="#ArialMT-20"/>
     <use x="141.748047" xlink:href="#ArialMT-37"/>
     <use x="197.363281" xlink:href="#ArialMT-32"/>
     <use x="252.978516" xlink:href="#ArialMT-30"/>
     <use x="308.59375" xlink:href="#ArialMT-20"/>
     <use x="336.376953" xlink:href="#ArialMT-48"/>
     <use x="408.59375" xlink:href="#ArialMT-7a"/>
    </g>
   </g>
   <g id="PathCollection_1">
    <defs>
     <path d="M 0 3.5 
C 0.928211 3.5 1.81853 3.131218 2.474874 2.474874 
C 3.131218 1.81853 3.5 0.928211 3.5 0 
C 3.5 -0.928211 3.131218 -1.81853 2.474874 -2.474874 
C 1.81853 -3.131218 0.928211 -3.5 0 -3.5 
C -0.928211 -3.5 -1.81853 -3.131218 -2.474874 -2.474874 
C -3.131218 -1.81853 -3.5 -0.928211 -3.5 0 
C -3.5 0.928211 -3.131218 1.81853 -2.474874 2.474874 
C -1.81853 3.131218 -0.928211 3.5 0 3.5 
z
" id="m546c97f9cc" style="stroke:#800000;stroke-width:0.3;"/>
    </defs>
    <g clip-path="url(#p753abae7ee)">
     <use style="fill:#800000;stroke:#800000;stroke-width:0.3;" x="484.545455" xlink:href="#m546c97f9cc" y="500.693175"/>
    </g>
   </g>
  </g>
 </g>
 <defs>
  <clipPath id="pa949255571">
   <rect height="201.6" width="558" x="90" y="69.12"/>
  </clipPath>
  <clipPath id="p753abae7ee">
   <rect height="201.6" width="558" x="90" y="311.04"/>
  </clipPath>
 </defs>
</svg>
