<?xml version="1.0" encoding="utf-8" standalone="no"?>
<!DOCTYPE svg PUBLIC "-//W3C//DTD SVG 1.1//EN"
  "http://www.w3.org/Graphics/SVG/1.1/DTD/svg11.dtd">
<!-- Created with matplotlib (http://matplotlib.org/) -->
<svg height="576pt" version="1.1" viewBox="0 0 720 576" width="720pt" xmlns="http://www.w3.org/2000/svg" xmlns:xlink="http://www.w3.org/1999/xlink">
 <defs>
  <style type="text/css">
*{stroke-linecap:butt;stroke-linejoin:round;}
  </style>
 </defs>
 <g id="figure_1">
  <g id="patch_1">
   <path d="M 0 576 
L 720 576 
L 720 0 
L 0 0 
z
" style="fill:#ffffff;"/>
  </g>
  <g id="axes_1">
   <g id="patch_2">
    <path d="M 90 270.72 
L 648 270.72 
L 648 69.12 
L 90 69.12 
z
" style="fill:#ffffff;"/>
   </g>
   <g id="matplotlib.axis_1">
    <g id="xtick_1">
     <g id="line2d_1">
      <defs>
       <path d="M 0 0 
L 0 6 
" id="mf04eed9a21" style="stroke:#262626;"/>
      </defs>
      <g>
       <use style="fill:#262626;stroke:#262626;" x="90" xlink:href="#mf04eed9a21" y="270.72"/>
      </g>
     </g>
     <g id="text_1">
      <!-- 0 -->
      <defs>
       <path d="M 4.15625 35.296875 
Q 4.15625 48 6.765625 55.734375 
Q 9.375 63.484375 14.515625 67.671875 
Q 19.671875 71.875 27.484375 71.875 
Q 33.25 71.875 37.59375 69.546875 
Q 41.9375 67.234375 44.765625 62.859375 
Q 47.609375 58.5 49.21875 52.21875 
Q 50.828125 45.953125 50.828125 35.296875 
Q 50.828125 22.703125 48.234375 14.96875 
Q 45.65625 7.234375 40.5 3 
Q 35.359375 -1.21875 27.484375 -1.21875 
Q 17.140625 -1.21875 11.234375 6.203125 
Q 4.15625 15.140625 4.15625 35.296875 
z
M 13.1875 35.296875 
Q 13.1875 17.671875 17.3125 11.828125 
Q 21.4375 6 27.484375 6 
Q 33.546875 6 37.671875 11.859375 
Q 41.796875 17.71875 41.796875 35.296875 
Q 41.796875 52.984375 37.671875 58.78125 
Q 33.546875 64.59375 27.390625 64.59375 
Q 21.34375 64.59375 17.71875 59.46875 
Q 13.1875 52.9375 13.1875 35.296875 
z
" id="ArialMT-30"/>
      </defs>
      <g style="fill:#262626;" transform="translate(87.219531 290.877812)scale(0.1 -0.1)">
       <use xlink:href="#ArialMT-30"/>
      </g>
     </g>
    </g>
    <g id="xtick_2">
     <g id="line2d_2">
      <g>
       <use style="fill:#262626;stroke:#262626;" x="159.75" xlink:href="#mf04eed9a21" y="270.72"/>
      </g>
     </g>
     <g id="text_2">
      <!-- 100 -->
      <defs>
       <path d="M 37.25 0 
L 28.46875 0 
L 28.46875 56 
Q 25.296875 52.984375 20.140625 49.953125 
Q 14.984375 46.921875 10.890625 45.40625 
L 10.890625 53.90625 
Q 18.265625 57.375 23.78125 62.296875 
Q 29.296875 67.234375 31.59375 71.875 
L 37.25 71.875 
z
" id="ArialMT-31"/>
      </defs>
      <g style="fill:#262626;" transform="translate(151.408594 290.877812)scale(0.1 -0.1)">
       <use xlink:href="#ArialMT-31"/>
       <use x="55.615234" xlink:href="#ArialMT-30"/>
       <use x="111.230469" xlink:href="#ArialMT-30"/>
      </g>
     </g>
    </g>
    <g id="xtick_3">
     <g id="line2d_3">
      <g>
       <use style="fill:#262626;stroke:#262626;" x="229.5" xlink:href="#mf04eed9a21" y="270.72"/>
      </g>
     </g>
     <g id="text_3">
      <!-- 200 -->
      <defs>
       <path d="M 50.34375 8.453125 
L 50.34375 0 
L 3.03125 0 
Q 2.9375 3.171875 4.046875 6.109375 
Q 5.859375 10.9375 9.828125 15.625 
Q 13.8125 20.3125 21.34375 26.46875 
Q 33.015625 36.03125 37.109375 41.625 
Q 41.21875 47.21875 41.21875 52.203125 
Q 41.21875 57.421875 37.46875 61 
Q 33.734375 64.59375 27.734375 64.59375 
Q 21.390625 64.59375 17.578125 60.78125 
Q 13.765625 56.984375 13.71875 50.25 
L 4.6875 51.171875 
Q 5.609375 61.28125 11.65625 66.578125 
Q 17.71875 71.875 27.9375 71.875 
Q 38.234375 71.875 44.234375 66.15625 
Q 50.25 60.453125 50.25 52 
Q 50.25 47.703125 48.484375 43.546875 
Q 46.734375 39.40625 42.65625 34.8125 
Q 38.578125 30.21875 29.109375 22.21875 
Q 21.1875 15.578125 18.9375 13.203125 
Q 16.703125 10.84375 15.234375 8.453125 
z
" id="ArialMT-32"/>
      </defs>
      <g style="fill:#262626;" transform="translate(221.158594 290.877812)scale(0.1 -0.1)">
       <use xlink:href="#ArialMT-32"/>
       <use x="55.615234" xlink:href="#ArialMT-30"/>
       <use x="111.230469" xlink:href="#ArialMT-30"/>
      </g>
     </g>
    </g>
    <g id="xtick_4">
     <g id="line2d_4">
      <g>
       <use style="fill:#262626;stroke:#262626;" x="299.25" xlink:href="#mf04eed9a21" y="270.72"/>
      </g>
     </g>
     <g id="text_4">
      <!-- 300 -->
      <defs>
       <path d="M 4.203125 18.890625 
L 12.984375 20.0625 
Q 14.5 12.59375 18.140625 9.296875 
Q 21.78125 6 27 6 
Q 33.203125 6 37.46875 10.296875 
Q 41.75 14.59375 41.75 20.953125 
Q 41.75 27 37.796875 30.921875 
Q 33.84375 34.859375 27.734375 34.859375 
Q 25.25 34.859375 21.53125 33.890625 
L 22.515625 41.609375 
Q 23.390625 41.5 23.921875 41.5 
Q 29.546875 41.5 34.03125 44.421875 
Q 38.53125 47.359375 38.53125 53.46875 
Q 38.53125 58.296875 35.25 61.46875 
Q 31.984375 64.65625 26.8125 64.65625 
Q 21.6875 64.65625 18.265625 61.421875 
Q 14.84375 58.203125 13.875 51.765625 
L 5.078125 53.328125 
Q 6.6875 62.15625 12.390625 67.015625 
Q 18.109375 71.875 26.609375 71.875 
Q 32.46875 71.875 37.390625 69.359375 
Q 42.328125 66.84375 44.9375 62.5 
Q 47.5625 58.15625 47.5625 53.265625 
Q 47.5625 48.640625 45.0625 44.828125 
Q 42.578125 41.015625 37.703125 38.765625 
Q 44.046875 37.3125 47.5625 32.6875 
Q 51.078125 28.078125 51.078125 21.140625 
Q 51.078125 11.765625 44.234375 5.25 
Q 37.40625 -1.265625 26.953125 -1.265625 
Q 17.53125 -1.265625 11.296875 4.34375 
Q 5.078125 9.96875 4.203125 18.890625 
z
" id="ArialMT-33"/>
      </defs>
      <g style="fill:#262626;" transform="translate(290.908594 290.877812)scale(0.1 -0.1)">
       <use xlink:href="#ArialMT-33"/>
       <use x="55.615234" xlink:href="#ArialMT-30"/>
       <use x="111.230469" xlink:href="#ArialMT-30"/>
      </g>
     </g>
    </g>
    <g id="xtick_5">
     <g id="line2d_5">
      <g>
       <use style="fill:#262626;stroke:#262626;" x="369" xlink:href="#mf04eed9a21" y="270.72"/>
      </g>
     </g>
     <g id="text_5">
      <!-- 400 -->
      <defs>
       <path d="M 32.328125 0 
L 32.328125 17.140625 
L 1.265625 17.140625 
L 1.265625 25.203125 
L 33.9375 71.578125 
L 41.109375 71.578125 
L 41.109375 25.203125 
L 50.78125 25.203125 
L 50.78125 17.140625 
L 41.109375 17.140625 
L 41.109375 0 
z
M 32.328125 25.203125 
L 32.328125 57.46875 
L 9.90625 25.203125 
z
" id="ArialMT-34"/>
      </defs>
      <g style="fill:#262626;" transform="translate(360.658594 290.877812)scale(0.1 -0.1)">
       <use xlink:href="#ArialMT-34"/>
       <use x="55.615234" xlink:href="#ArialMT-30"/>
       <use x="111.230469" xlink:href="#ArialMT-30"/>
      </g>
     </g>
    </g>
    <g id="xtick_6">
     <g id="line2d_6">
      <g>
       <use style="fill:#262626;stroke:#262626;" x="438.75" xlink:href="#mf04eed9a21" y="270.72"/>
      </g>
     </g>
     <g id="text_6">
      <!-- 500 -->
      <defs>
       <path d="M 4.15625 18.75 
L 13.375 19.53125 
Q 14.40625 12.796875 18.140625 9.390625 
Q 21.875 6 27.15625 6 
Q 33.5 6 37.890625 10.78125 
Q 42.28125 15.578125 42.28125 23.484375 
Q 42.28125 31 38.0625 35.34375 
Q 33.84375 39.703125 27 39.703125 
Q 22.75 39.703125 19.328125 37.765625 
Q 15.921875 35.84375 13.96875 32.765625 
L 5.71875 33.84375 
L 12.640625 70.609375 
L 48.25 70.609375 
L 48.25 62.203125 
L 19.671875 62.203125 
L 15.828125 42.96875 
Q 22.265625 47.46875 29.34375 47.46875 
Q 38.71875 47.46875 45.15625 40.96875 
Q 51.609375 34.46875 51.609375 24.265625 
Q 51.609375 14.546875 45.953125 7.46875 
Q 39.0625 -1.21875 27.15625 -1.21875 
Q 17.390625 -1.21875 11.203125 4.25 
Q 5.03125 9.71875 4.15625 18.75 
z
" id="ArialMT-35"/>
      </defs>
      <g style="fill:#262626;" transform="translate(430.408594 290.877812)scale(0.1 -0.1)">
       <use xlink:href="#ArialMT-35"/>
       <use x="55.615234" xlink:href="#ArialMT-30"/>
       <use x="111.230469" xlink:href="#ArialMT-30"/>
      </g>
     </g>
    </g>
    <g id="xtick_7">
     <g id="line2d_7">
      <g>
       <use style="fill:#262626;stroke:#262626;" x="508.5" xlink:href="#mf04eed9a21" y="270.72"/>
      </g>
     </g>
     <g id="text_7">
      <!-- 600 -->
      <defs>
       <path d="M 49.75 54.046875 
L 41.015625 53.375 
Q 39.84375 58.546875 37.703125 60.890625 
Q 34.125 64.65625 28.90625 64.65625 
Q 24.703125 64.65625 21.53125 62.3125 
Q 17.390625 59.28125 14.984375 53.46875 
Q 12.59375 47.65625 12.5 36.921875 
Q 15.671875 41.75 20.265625 44.09375 
Q 24.859375 46.4375 29.890625 46.4375 
Q 38.671875 46.4375 44.84375 39.96875 
Q 51.03125 33.5 51.03125 23.25 
Q 51.03125 16.5 48.125 10.71875 
Q 45.21875 4.9375 40.140625 1.859375 
Q 35.0625 -1.21875 28.609375 -1.21875 
Q 17.625 -1.21875 10.6875 6.859375 
Q 3.765625 14.9375 3.765625 33.5 
Q 3.765625 54.25 11.421875 63.671875 
Q 18.109375 71.875 29.4375 71.875 
Q 37.890625 71.875 43.28125 67.140625 
Q 48.6875 62.40625 49.75 54.046875 
z
M 13.875 23.1875 
Q 13.875 18.65625 15.796875 14.5 
Q 17.71875 10.359375 21.1875 8.171875 
Q 24.65625 6 28.46875 6 
Q 34.03125 6 38.03125 10.484375 
Q 42.046875 14.984375 42.046875 22.703125 
Q 42.046875 30.125 38.078125 34.390625 
Q 34.125 38.671875 28.125 38.671875 
Q 22.171875 38.671875 18.015625 34.390625 
Q 13.875 30.125 13.875 23.1875 
z
" id="ArialMT-36"/>
      </defs>
      <g style="fill:#262626;" transform="translate(500.158594 290.877812)scale(0.1 -0.1)">
       <use xlink:href="#ArialMT-36"/>
       <use x="55.615234" xlink:href="#ArialMT-30"/>
       <use x="111.230469" xlink:href="#ArialMT-30"/>
      </g>
     </g>
    </g>
    <g id="xtick_8">
     <g id="line2d_8">
      <g>
       <use style="fill:#262626;stroke:#262626;" x="578.25" xlink:href="#mf04eed9a21" y="270.72"/>
      </g>
     </g>
     <g id="text_8">
      <!-- 700 -->
      <defs>
       <path d="M 4.734375 62.203125 
L 4.734375 70.65625 
L 51.078125 70.65625 
L 51.078125 63.8125 
Q 44.234375 56.546875 37.515625 44.484375 
Q 30.8125 32.421875 27.15625 19.671875 
Q 24.515625 10.6875 23.78125 0 
L 14.75 0 
Q 14.890625 8.453125 18.0625 20.40625 
Q 21.234375 32.375 27.171875 43.484375 
Q 33.109375 54.59375 39.796875 62.203125 
z
" id="ArialMT-37"/>
      </defs>
      <g style="fill:#262626;" transform="translate(569.908594 290.877812)scale(0.1 -0.1)">
       <use xlink:href="#ArialMT-37"/>
       <use x="55.615234" xlink:href="#ArialMT-30"/>
       <use x="111.230469" xlink:href="#ArialMT-30"/>
      </g>
     </g>
    </g>
    <g id="xtick_9">
     <g id="line2d_9">
      <g>
       <use style="fill:#262626;stroke:#262626;" x="648" xlink:href="#mf04eed9a21" y="270.72"/>
      </g>
     </g>
     <g id="text_9">
      <!-- 800 -->
      <defs>
       <path d="M 17.671875 38.8125 
Q 12.203125 40.828125 9.5625 44.53125 
Q 6.9375 48.25 6.9375 53.421875 
Q 6.9375 61.234375 12.546875 66.546875 
Q 18.171875 71.875 27.484375 71.875 
Q 36.859375 71.875 42.578125 66.421875 
Q 48.296875 60.984375 48.296875 53.171875 
Q 48.296875 48.1875 45.671875 44.5 
Q 43.0625 40.828125 37.75 38.8125 
Q 44.34375 36.671875 47.78125 31.875 
Q 51.21875 27.09375 51.21875 20.453125 
Q 51.21875 11.28125 44.71875 5.03125 
Q 38.234375 -1.21875 27.640625 -1.21875 
Q 17.046875 -1.21875 10.546875 5.046875 
Q 4.046875 11.328125 4.046875 20.703125 
Q 4.046875 27.6875 7.59375 32.390625 
Q 11.140625 37.109375 17.671875 38.8125 
z
M 15.921875 53.71875 
Q 15.921875 48.640625 19.1875 45.40625 
Q 22.46875 42.1875 27.6875 42.1875 
Q 32.765625 42.1875 36.015625 45.375 
Q 39.265625 48.578125 39.265625 53.21875 
Q 39.265625 58.0625 35.90625 61.359375 
Q 32.5625 64.65625 27.59375 64.65625 
Q 22.5625 64.65625 19.234375 61.421875 
Q 15.921875 58.203125 15.921875 53.71875 
z
M 13.09375 20.65625 
Q 13.09375 16.890625 14.875 13.375 
Q 16.65625 9.859375 20.171875 7.921875 
Q 23.6875 6 27.734375 6 
Q 34.03125 6 38.125 10.046875 
Q 42.234375 14.109375 42.234375 20.359375 
Q 42.234375 26.703125 38.015625 30.859375 
Q 33.796875 35.015625 27.4375 35.015625 
Q 21.234375 35.015625 17.15625 30.90625 
Q 13.09375 26.8125 13.09375 20.65625 
z
" id="ArialMT-38"/>
      </defs>
      <g style="fill:#262626;" transform="translate(639.658594 290.877812)scale(0.1 -0.1)">
       <use xlink:href="#ArialMT-38"/>
       <use x="55.615234" xlink:href="#ArialMT-30"/>
       <use x="111.230469" xlink:href="#ArialMT-30"/>
      </g>
     </g>
    </g>
   </g>
   <g id="matplotlib.axis_2">
    <g id="ytick_1">
     <g id="line2d_10">
      <defs>
       <path d="M 0 0 
L -6 0 
" id="m3d2ead5f40" style="stroke:#262626;"/>
      </defs>
      <g>
       <use style="fill:#262626;stroke:#262626;" x="90" xlink:href="#m3d2ead5f40" y="250.56"/>
      </g>
     </g>
     <g id="text_10">
      <!-- −0.04 -->
      <defs>
       <path d="M 52.828125 31.203125 
L 5.5625 31.203125 
L 5.5625 39.40625 
L 52.828125 39.40625 
z
" id="ArialMT-2212"/>
       <path d="M 9.078125 0 
L 9.078125 10.015625 
L 19.09375 10.015625 
L 19.09375 0 
z
" id="ArialMT-2e"/>
      </defs>
      <g style="fill:#262626;" transform="translate(51.698437 254.138906)scale(0.1 -0.1)">
       <use xlink:href="#ArialMT-2212"/>
       <use x="58.398438" xlink:href="#ArialMT-30"/>
       <use x="114.013672" xlink:href="#ArialMT-2e"/>
       <use x="141.796875" xlink:href="#ArialMT-30"/>
       <use x="197.412109" xlink:href="#ArialMT-34"/>
      </g>
     </g>
    </g>
    <g id="ytick_2">
     <g id="line2d_11">
      <g>
       <use style="fill:#262626;stroke:#262626;" x="90" xlink:href="#m3d2ead5f40" y="210.24"/>
      </g>
     </g>
     <g id="text_11">
      <!-- −0.02 -->
      <g style="fill:#262626;" transform="translate(51.698437 213.818906)scale(0.1 -0.1)">
       <use xlink:href="#ArialMT-2212"/>
       <use x="58.398438" xlink:href="#ArialMT-30"/>
       <use x="114.013672" xlink:href="#ArialMT-2e"/>
       <use x="141.796875" xlink:href="#ArialMT-30"/>
       <use x="197.412109" xlink:href="#ArialMT-32"/>
      </g>
     </g>
    </g>
    <g id="ytick_3">
     <g id="line2d_12">
      <g>
       <use style="fill:#262626;stroke:#262626;" x="90" xlink:href="#m3d2ead5f40" y="169.92"/>
      </g>
     </g>
     <g id="text_12">
      <!-- 0.00 -->
      <g style="fill:#262626;" transform="translate(57.539062 173.498906)scale(0.1 -0.1)">
       <use xlink:href="#ArialMT-30"/>
       <use x="55.615234" xlink:href="#ArialMT-2e"/>
       <use x="83.398438" xlink:href="#ArialMT-30"/>
       <use x="139.013672" xlink:href="#ArialMT-30"/>
      </g>
     </g>
    </g>
    <g id="ytick_4">
     <g id="line2d_13">
      <g>
       <use style="fill:#262626;stroke:#262626;" x="90" xlink:href="#m3d2ead5f40" y="129.6"/>
      </g>
     </g>
     <g id="text_13">
      <!-- 0.02 -->
      <g style="fill:#262626;" transform="translate(57.539062 133.178906)scale(0.1 -0.1)">
       <use xlink:href="#ArialMT-30"/>
       <use x="55.615234" xlink:href="#ArialMT-2e"/>
       <use x="83.398438" xlink:href="#ArialMT-30"/>
       <use x="139.013672" xlink:href="#ArialMT-32"/>
      </g>
     </g>
    </g>
    <g id="ytick_5">
     <g id="line2d_14">
      <g>
       <use style="fill:#262626;stroke:#262626;" x="90" xlink:href="#m3d2ead5f40" y="89.28"/>
      </g>
     </g>
     <g id="text_14">
      <!-- 0.04 -->
      <g style="fill:#262626;" transform="translate(57.539062 92.858906)scale(0.1 -0.1)">
       <use xlink:href="#ArialMT-30"/>
       <use x="55.615234" xlink:href="#ArialMT-2e"/>
       <use x="83.398438" xlink:href="#ArialMT-30"/>
       <use x="139.013672" xlink:href="#ArialMT-34"/>
      </g>
     </g>
    </g>
   </g>
   <g id="PolyCollection_1">
    <path clip-path="url(#pd692286051)" d="M 90 168.865943 
L 90 169.92 
L 90.6975 169.92 
L 91.395 169.92 
L 92.0925 169.92 
L 92.79 169.92 
L 93.4875 169.92 
L 94.185 169.92 
L 94.8825 169.92 
L 95.58 169.92 
L 96.2775 169.92 
L 96.975 169.92 
L 97.6725 169.92 
L 98.37 169.92 
L 99.0675 169.92 
L 99.765 169.92 
L 100.4625 169.92 
L 101.16 169.92 
L 101.8575 169.92 
L 102.555 169.92 
L 103.2525 169.92 
L 103.95 169.92 
L 104.6475 169.92 
L 105.345 169.92 
L 106.0425 169.92 
L 106.74 169.92 
L 107.4375 169.92 
L 108.135 169.92 
L 108.8325 169.92 
L 109.53 169.92 
L 110.2275 169.92 
L 110.925 169.92 
L 111.6225 169.92 
L 112.32 169.92 
L 113.0175 169.92 
L 113.715 169.92 
L 114.4125 169.92 
L 115.11 169.92 
L 115.8075 169.92 
L 116.505 169.92 
L 117.2025 169.92 
L 117.9 169.92 
L 118.5975 169.92 
L 119.295 169.92 
L 119.9925 169.92 
L 120.69 169.92 
L 121.3875 169.92 
L 122.085 169.92 
L 122.7825 169.92 
L 123.48 169.92 
L 124.1775 169.92 
L 124.875 169.92 
L 125.5725 169.92 
L 126.27 169.92 
L 126.9675 169.92 
L 127.665 169.92 
L 128.3625 169.92 
L 129.06 169.92 
L 129.7575 169.92 
L 130.455 169.92 
L 131.1525 169.92 
L 131.85 169.92 
L 132.5475 169.92 
L 133.245 169.92 
L 133.9425 169.92 
L 134.64 169.92 
L 135.3375 169.92 
L 136.035 169.92 
L 136.7325 169.92 
L 137.43 169.92 
L 138.1275 169.92 
L 138.825 169.92 
L 139.5225 169.92 
L 140.22 169.92 
L 140.9175 169.92 
L 141.615 169.92 
L 142.3125 169.92 
L 143.01 169.92 
L 143.7075 169.92 
L 144.405 169.92 
L 145.1025 169.92 
L 145.8 169.92 
L 146.4975 169.92 
L 147.195 169.92 
L 147.8925 169.92 
L 148.59 169.92 
L 149.2875 169.92 
L 149.985 169.92 
L 150.6825 169.92 
L 151.38 169.92 
L 152.0775 169.92 
L 152.775 169.92 
L 153.4725 169.92 
L 154.17 169.92 
L 154.8675 169.92 
L 155.565 169.92 
L 156.2625 169.92 
L 156.96 169.92 
L 157.6575 169.92 
L 158.355 169.92 
L 159.0525 169.92 
L 159.75 169.92 
L 160.4475 169.92 
L 161.145 169.92 
L 161.8425 169.92 
L 162.54 169.92 
L 163.2375 169.92 
L 163.935 169.92 
L 164.6325 169.92 
L 165.33 169.92 
L 166.0275 169.92 
L 166.725 169.92 
L 167.4225 169.92 
L 168.12 169.92 
L 168.8175 169.92 
L 169.515 169.92 
L 170.2125 169.92 
L 170.91 169.92 
L 171.6075 169.92 
L 172.305 169.92 
L 173.0025 169.92 
L 173.7 169.92 
L 174.3975 169.92 
L 175.095 169.92 
L 175.7925 169.92 
L 176.49 169.92 
L 177.1875 169.92 
L 177.885 169.92 
L 178.5825 169.92 
L 179.28 169.92 
L 179.9775 169.92 
L 180.675 169.92 
L 181.3725 169.92 
L 182.07 169.92 
L 182.7675 169.92 
L 183.465 169.92 
L 184.1625 169.92 
L 184.86 169.92 
L 185.5575 169.92 
L 186.255 169.92 
L 186.9525 169.92 
L 187.65 169.92 
L 188.3475 169.92 
L 189.045 169.92 
L 189.7425 169.92 
L 190.44 169.92 
L 191.1375 169.92 
L 191.835 169.92 
L 192.5325 169.92 
L 193.23 169.92 
L 193.9275 169.92 
L 194.625 169.92 
L 195.3225 169.92 
L 196.02 169.92 
L 196.7175 169.92 
L 197.415 169.92 
L 198.1125 169.92 
L 198.81 169.92 
L 199.5075 169.92 
L 200.205 169.92 
L 200.9025 169.92 
L 201.6 169.92 
L 202.2975 169.92 
L 202.995 169.92 
L 203.6925 169.92 
L 204.39 169.92 
L 205.0875 169.92 
L 205.785 169.92 
L 206.4825 169.92 
L 207.18 169.92 
L 207.8775 169.92 
L 208.575 169.92 
L 209.2725 169.92 
L 209.97 169.92 
L 210.6675 169.92 
L 211.365 169.92 
L 212.0625 169.92 
L 212.76 169.92 
L 213.4575 169.92 
L 214.155 169.92 
L 214.8525 169.92 
L 215.55 169.92 
L 216.2475 169.92 
L 216.945 169.92 
L 217.6425 169.92 
L 218.34 169.92 
L 219.0375 169.92 
L 219.735 169.92 
L 220.4325 169.92 
L 221.13 169.92 
L 221.8275 169.92 
L 222.525 169.92 
L 223.2225 169.92 
L 223.92 169.92 
L 224.6175 169.92 
L 225.315 169.92 
L 226.0125 169.92 
L 226.71 169.92 
L 227.4075 169.92 
L 228.105 169.92 
L 228.8025 169.92 
L 229.5 169.92 
L 230.1975 169.92 
L 230.895 169.92 
L 231.5925 169.92 
L 232.29 169.92 
L 232.9875 169.92 
L 233.685 169.92 
L 234.3825 169.92 
L 235.08 169.92 
L 235.7775 169.92 
L 236.475 169.92 
L 237.1725 169.92 
L 237.87 169.92 
L 238.5675 169.92 
L 239.265 169.92 
L 239.9625 169.92 
L 240.66 169.92 
L 241.3575 169.92 
L 242.055 169.92 
L 242.7525 169.92 
L 243.45 169.92 
L 244.1475 169.92 
L 244.845 169.92 
L 245.5425 169.92 
L 246.24 169.92 
L 246.9375 169.92 
L 247.635 169.92 
L 248.3325 169.92 
L 249.03 169.92 
L 249.7275 169.92 
L 250.425 169.92 
L 251.1225 169.92 
L 251.82 169.92 
L 252.5175 169.92 
L 253.215 169.92 
L 253.9125 169.92 
L 254.61 169.92 
L 255.3075 169.92 
L 256.005 169.92 
L 256.7025 169.92 
L 257.4 169.92 
L 258.0975 169.92 
L 258.795 169.92 
L 259.4925 169.92 
L 260.19 169.92 
L 260.8875 169.92 
L 261.585 169.92 
L 262.2825 169.92 
L 262.98 169.92 
L 263.6775 169.92 
L 264.375 169.92 
L 265.0725 169.92 
L 265.77 169.92 
L 266.4675 169.92 
L 267.165 169.92 
L 267.8625 169.92 
L 268.56 169.92 
L 269.2575 169.92 
L 269.955 169.92 
L 270.6525 169.92 
L 271.35 169.92 
L 272.0475 169.92 
L 272.745 169.92 
L 273.4425 169.92 
L 274.14 169.92 
L 274.8375 169.92 
L 275.535 169.92 
L 276.2325 169.92 
L 276.93 169.92 
L 277.6275 169.92 
L 278.325 169.92 
L 279.0225 169.92 
L 279.72 169.92 
L 280.4175 169.92 
L 281.115 169.92 
L 281.8125 169.92 
L 282.51 169.92 
L 283.2075 169.92 
L 283.905 169.92 
L 284.6025 169.92 
L 285.3 169.92 
L 285.9975 169.92 
L 286.695 169.92 
L 287.3925 169.92 
L 288.09 169.92 
L 288.7875 169.92 
L 289.485 169.92 
L 290.1825 169.92 
L 290.88 169.92 
L 291.5775 169.92 
L 292.275 169.92 
L 292.9725 169.92 
L 293.67 169.92 
L 294.3675 169.92 
L 295.065 169.92 
L 295.7625 169.92 
L 296.46 169.92 
L 297.1575 169.92 
L 297.855 169.92 
L 298.5525 169.92 
L 299.25 169.92 
L 299.9475 169.92 
L 300.645 169.92 
L 301.3425 169.92 
L 302.04 169.92 
L 302.7375 169.92 
L 303.435 169.92 
L 304.1325 169.92 
L 304.83 169.92 
L 305.5275 169.92 
L 306.225 169.92 
L 306.9225 169.92 
L 307.62 169.92 
L 308.3175 169.92 
L 309.015 169.92 
L 309.7125 169.92 
L 310.41 169.92 
L 311.1075 169.92 
L 311.805 169.92 
L 312.5025 169.92 
L 313.2 169.92 
L 313.8975 169.92 
L 314.595 169.92 
L 315.2925 169.92 
L 315.99 169.92 
L 316.6875 169.92 
L 317.385 169.92 
L 318.0825 169.92 
L 318.78 169.92 
L 319.4775 169.92 
L 320.175 169.92 
L 320.8725 169.92 
L 321.57 169.92 
L 322.2675 169.92 
L 322.965 169.92 
L 323.6625 169.92 
L 324.36 169.92 
L 325.0575 169.92 
L 325.755 169.92 
L 326.4525 169.92 
L 327.15 169.92 
L 327.8475 169.92 
L 328.545 169.92 
L 329.2425 169.92 
L 329.94 169.92 
L 330.6375 169.92 
L 331.335 169.92 
L 332.0325 169.92 
L 332.73 169.92 
L 333.4275 169.92 
L 334.125 169.92 
L 334.8225 169.92 
L 335.52 169.92 
L 336.2175 169.92 
L 336.915 169.92 
L 337.6125 169.92 
L 338.31 169.92 
L 339.0075 169.92 
L 339.705 169.92 
L 340.4025 169.92 
L 341.1 169.92 
L 341.7975 169.92 
L 342.495 169.92 
L 343.1925 169.92 
L 343.89 169.92 
L 344.5875 169.92 
L 345.285 169.92 
L 345.9825 169.92 
L 346.68 169.92 
L 347.3775 169.92 
L 348.075 169.92 
L 348.7725 169.92 
L 349.47 169.92 
L 350.1675 169.92 
L 350.865 169.92 
L 351.5625 169.92 
L 352.26 169.92 
L 352.9575 169.92 
L 353.655 169.92 
L 354.3525 169.92 
L 355.05 169.92 
L 355.7475 169.92 
L 356.445 169.92 
L 357.1425 169.92 
L 357.84 169.92 
L 358.5375 169.92 
L 359.235 169.92 
L 359.9325 169.92 
L 360.63 169.92 
L 361.3275 169.92 
L 362.025 169.92 
L 362.7225 169.92 
L 363.42 169.92 
L 364.1175 169.92 
L 364.815 169.92 
L 365.5125 169.92 
L 366.21 169.92 
L 366.9075 169.92 
L 367.605 169.92 
L 368.3025 169.92 
L 369 169.92 
L 369.6975 169.92 
L 370.395 169.92 
L 371.0925 169.92 
L 371.79 169.92 
L 372.4875 169.92 
L 373.185 169.92 
L 373.8825 169.92 
L 374.58 169.92 
L 375.2775 169.92 
L 375.975 169.92 
L 376.6725 169.92 
L 377.37 169.92 
L 378.0675 169.92 
L 378.765 169.92 
L 379.4625 169.92 
L 380.16 169.92 
L 380.8575 169.92 
L 381.555 169.92 
L 382.2525 169.92 
L 382.95 169.92 
L 383.6475 169.92 
L 384.345 169.92 
L 385.0425 169.92 
L 385.74 169.92 
L 386.4375 169.92 
L 387.135 169.92 
L 387.8325 169.92 
L 388.53 169.92 
L 389.2275 169.92 
L 389.925 169.92 
L 390.6225 169.92 
L 391.32 169.92 
L 392.0175 169.92 
L 392.715 169.92 
L 393.4125 169.92 
L 394.11 169.92 
L 394.8075 169.92 
L 395.505 169.92 
L 396.2025 169.92 
L 396.9 169.92 
L 397.5975 169.92 
L 398.295 169.92 
L 398.9925 169.92 
L 399.69 169.92 
L 400.3875 169.92 
L 401.085 169.92 
L 401.7825 169.92 
L 402.48 169.92 
L 403.1775 169.92 
L 403.875 169.92 
L 404.5725 169.92 
L 405.27 169.92 
L 405.9675 169.92 
L 406.665 169.92 
L 407.3625 169.92 
L 408.06 169.92 
L 408.7575 169.92 
L 409.455 169.92 
L 410.1525 169.92 
L 410.85 169.92 
L 411.5475 169.92 
L 412.245 169.92 
L 412.9425 169.92 
L 413.64 169.92 
L 414.3375 169.92 
L 415.035 169.92 
L 415.7325 169.92 
L 416.43 169.92 
L 417.1275 169.92 
L 417.825 169.92 
L 418.5225 169.92 
L 419.22 169.92 
L 419.9175 169.92 
L 420.615 169.92 
L 421.3125 169.92 
L 422.01 169.92 
L 422.7075 169.92 
L 423.405 169.92 
L 424.1025 169.92 
L 424.8 169.92 
L 425.4975 169.92 
L 426.195 169.92 
L 426.8925 169.92 
L 427.59 169.92 
L 428.2875 169.92 
L 428.985 169.92 
L 429.6825 169.92 
L 430.38 169.92 
L 431.0775 169.92 
L 431.775 169.92 
L 432.4725 169.92 
L 433.17 169.92 
L 433.8675 169.92 
L 434.565 169.92 
L 435.2625 169.92 
L 435.96 169.92 
L 436.6575 169.92 
L 437.355 169.92 
L 438.0525 169.92 
L 438.75 169.92 
L 439.4475 169.92 
L 440.145 169.92 
L 440.8425 169.92 
L 441.54 169.92 
L 442.2375 169.92 
L 442.935 169.92 
L 443.6325 169.92 
L 444.33 169.92 
L 445.0275 169.92 
L 445.725 169.92 
L 446.4225 169.92 
L 447.12 169.92 
L 447.8175 169.92 
L 448.515 169.92 
L 449.2125 169.92 
L 449.91 169.92 
L 450.6075 169.92 
L 451.305 169.92 
L 452.0025 169.92 
L 452.7 169.92 
L 453.3975 169.92 
L 454.095 169.92 
L 454.7925 169.92 
L 455.49 169.92 
L 456.1875 169.92 
L 456.885 169.92 
L 457.5825 169.92 
L 458.28 169.92 
L 458.9775 169.92 
L 459.675 169.92 
L 460.3725 169.92 
L 461.07 169.92 
L 461.7675 169.92 
L 462.465 169.92 
L 463.1625 169.92 
L 463.86 169.92 
L 464.5575 169.92 
L 465.255 169.92 
L 465.9525 169.92 
L 466.65 169.92 
L 467.3475 169.92 
L 468.045 169.92 
L 468.7425 169.92 
L 469.44 169.92 
L 470.1375 169.92 
L 470.835 169.92 
L 471.5325 169.92 
L 472.23 169.92 
L 472.9275 169.92 
L 473.625 169.92 
L 474.3225 169.92 
L 475.02 169.92 
L 475.7175 169.92 
L 476.415 169.92 
L 477.1125 169.92 
L 477.81 169.92 
L 478.5075 169.92 
L 479.205 169.92 
L 479.9025 169.92 
L 480.6 169.92 
L 481.2975 169.92 
L 481.995 169.92 
L 482.6925 169.92 
L 483.39 169.92 
L 484.0875 169.92 
L 484.785 169.92 
L 485.4825 169.92 
L 486.18 169.92 
L 486.8775 169.92 
L 487.575 169.92 
L 488.2725 169.92 
L 488.97 169.92 
L 489.6675 169.92 
L 490.365 169.92 
L 491.0625 169.92 
L 491.76 169.92 
L 492.4575 169.92 
L 493.155 169.92 
L 493.8525 169.92 
L 494.55 169.92 
L 495.2475 169.92 
L 495.945 169.92 
L 496.6425 169.92 
L 497.34 169.92 
L 498.0375 169.92 
L 498.735 169.92 
L 499.4325 169.92 
L 500.13 169.92 
L 500.8275 169.92 
L 501.525 169.92 
L 502.2225 169.92 
L 502.92 169.92 
L 503.6175 169.92 
L 504.315 169.92 
L 505.0125 169.92 
L 505.71 169.92 
L 506.4075 169.92 
L 507.105 169.92 
L 507.8025 169.92 
L 508.5 169.92 
L 509.1975 169.92 
L 509.895 169.92 
L 510.5925 169.92 
L 511.29 169.92 
L 511.9875 169.92 
L 512.685 169.92 
L 513.3825 169.92 
L 514.08 169.92 
L 514.7775 169.92 
L 515.475 169.92 
L 516.1725 169.92 
L 516.87 169.92 
L 517.5675 169.92 
L 518.265 169.92 
L 518.9625 169.92 
L 519.66 169.92 
L 520.3575 169.92 
L 521.055 169.92 
L 521.7525 169.92 
L 522.45 169.92 
L 523.1475 169.92 
L 523.845 169.92 
L 524.5425 169.92 
L 525.24 169.92 
L 525.9375 169.92 
L 526.635 169.92 
L 527.3325 169.92 
L 528.03 169.92 
L 528.7275 169.92 
L 529.425 169.92 
L 530.1225 169.92 
L 530.82 169.92 
L 531.5175 169.92 
L 532.215 169.92 
L 532.9125 169.92 
L 533.61 169.92 
L 534.3075 169.92 
L 535.005 169.92 
L 535.7025 169.92 
L 536.4 169.92 
L 537.0975 169.92 
L 537.795 169.92 
L 538.4925 169.92 
L 539.19 169.92 
L 539.8875 169.92 
L 540.585 169.92 
L 541.2825 169.92 
L 541.98 169.92 
L 542.6775 169.92 
L 543.375 169.92 
L 544.0725 169.92 
L 544.77 169.92 
L 545.4675 169.92 
L 546.165 169.92 
L 546.8625 169.92 
L 547.56 169.92 
L 548.2575 169.92 
L 548.955 169.92 
L 549.6525 169.92 
L 550.35 169.92 
L 551.0475 169.92 
L 551.745 169.92 
L 552.4425 169.92 
L 553.14 169.92 
L 553.8375 169.92 
L 554.535 169.92 
L 555.2325 169.92 
L 555.93 169.92 
L 556.6275 169.92 
L 557.325 169.92 
L 558.0225 169.92 
L 558.72 169.92 
L 559.4175 169.92 
L 560.115 169.92 
L 560.8125 169.92 
L 561.51 169.92 
L 562.2075 169.92 
L 562.905 169.92 
L 563.6025 169.92 
L 564.3 169.92 
L 564.9975 169.92 
L 565.695 169.92 
L 566.3925 169.92 
L 567.09 169.92 
L 567.7875 169.92 
L 568.485 169.92 
L 569.1825 169.92 
L 569.88 169.92 
L 570.5775 169.92 
L 571.275 169.92 
L 571.9725 169.92 
L 572.67 169.92 
L 573.3675 169.92 
L 574.065 169.92 
L 574.7625 169.92 
L 575.46 169.92 
L 576.1575 169.92 
L 576.855 169.92 
L 577.5525 169.92 
L 578.25 169.92 
L 578.9475 169.92 
L 579.645 169.92 
L 580.3425 169.92 
L 581.04 169.92 
L 581.7375 169.92 
L 582.435 169.92 
L 583.1325 169.92 
L 583.83 169.92 
L 584.5275 169.92 
L 585.225 169.92 
L 585.9225 169.92 
L 586.62 169.92 
L 587.3175 169.92 
L 588.015 169.92 
L 588.7125 169.92 
L 589.41 169.92 
L 590.1075 169.92 
L 590.805 169.92 
L 591.5025 169.92 
L 592.2 169.92 
L 592.8975 169.92 
L 593.595 169.92 
L 594.2925 169.92 
L 594.99 169.92 
L 595.6875 169.92 
L 596.385 169.92 
L 597.0825 169.92 
L 597.78 169.92 
L 598.4775 169.92 
L 599.175 169.92 
L 599.8725 169.92 
L 600.57 169.92 
L 601.2675 169.92 
L 601.965 169.92 
L 602.6625 169.92 
L 603.36 169.92 
L 604.0575 169.92 
L 604.755 169.92 
L 605.4525 169.92 
L 606.15 169.92 
L 606.8475 169.92 
L 607.545 169.92 
L 608.2425 169.92 
L 608.94 169.92 
L 609.6375 169.92 
L 610.335 169.92 
L 611.0325 169.92 
L 611.73 169.92 
L 612.4275 169.92 
L 613.125 169.92 
L 613.8225 169.92 
L 614.52 169.92 
L 615.2175 169.92 
L 615.915 169.92 
L 616.6125 169.92 
L 617.31 169.92 
L 618.0075 169.92 
L 618.705 169.92 
L 619.4025 169.92 
L 620.1 169.92 
L 620.7975 169.92 
L 621.495 169.92 
L 622.1925 169.92 
L 622.89 169.92 
L 623.5875 169.92 
L 624.285 169.92 
L 624.9825 169.92 
L 625.68 169.92 
L 626.3775 169.92 
L 627.075 169.92 
L 627.7725 169.92 
L 628.47 169.92 
L 629.1675 169.92 
L 629.865 169.92 
L 630.5625 169.92 
L 631.26 169.92 
L 631.9575 169.92 
L 632.655 169.92 
L 633.3525 169.92 
L 634.05 169.92 
L 634.7475 169.92 
L 635.445 169.92 
L 636.1425 169.92 
L 636.84 169.92 
L 637.5375 169.92 
L 638.235 169.92 
L 638.9325 169.92 
L 639.63 169.92 
L 640.3275 169.92 
L 641.025 169.92 
L 641.7225 169.92 
L 642.42 169.92 
L 643.1175 169.92 
L 643.815 169.92 
L 644.5125 169.92 
L 645.21 169.92 
L 645.9075 169.92 
L 646.605 169.92 
L 646.605 169.92 
L 646.605 169.92 
L 645.9075 169.97984 
L 645.21 170.138711 
L 644.5125 170.341563 
L 643.815 170.592667 
L 643.1175 170.902381 
L 642.42 171.24048 
L 641.7225 171.596357 
L 641.025 172.012383 
L 640.3275 172.457092 
L 639.63 172.918624 
L 638.9325 173.424818 
L 638.235 173.929852 
L 637.5375 174.454405 
L 636.84 174.979035 
L 636.1425 175.504246 
L 635.445 176.023885 
L 634.7475 176.525218 
L 634.05 176.989074 
L 633.3525 177.403371 
L 632.655 177.803149 
L 631.9575 178.15713 
L 631.26 178.474465 
L 630.5625 178.758086 
L 629.865 179.01132 
L 629.1675 179.191308 
L 628.47 179.329185 
L 627.7725 179.416687 
L 627.075 179.472736 
L 626.3775 179.456783 
L 625.68 179.39561 
L 624.9825 179.276635 
L 624.285 179.087954 
L 623.5875 178.87832 
L 622.89 178.610295 
L 622.1925 178.306966 
L 621.495 177.965235 
L 620.7975 177.575809 
L 620.1 177.123302 
L 619.4025 176.659556 
L 618.705 176.156761 
L 618.0075 175.634102 
L 617.31 175.077755 
L 616.6125 174.487589 
L 615.915 173.90376 
L 615.2175 173.299862 
L 614.52 172.689619 
L 613.8225 172.100125 
L 613.125 171.524987 
L 612.4275 170.957645 
L 611.73 170.411393 
L 611.0325 169.925873 
L 610.335 169.486826 
L 609.6375 169.079449 
L 608.94 168.728459 
L 608.2425 168.42467 
L 607.545 168.158344 
L 606.8475 167.965844 
L 606.15 167.842775 
L 605.4525 167.777282 
L 604.755 167.72359 
L 604.0575 167.742168 
L 603.36 167.779607 
L 602.6625 167.868712 
L 601.965 167.981846 
L 601.2675 168.130979 
L 600.57 168.307717 
L 599.8725 168.50334 
L 599.175 168.728855 
L 598.4775 168.941727 
L 597.78 169.192654 
L 597.0825 169.425505 
L 596.385 169.664148 
L 595.6875 169.89249 
L 594.99 170.107857 
L 594.2925 170.327672 
L 593.595 170.516116 
L 592.8975 170.690929 
L 592.2 170.830117 
L 591.5025 170.912102 
L 590.805 170.975817 
L 590.1075 171.013867 
L 589.41 171.012509 
L 588.7125 170.95846 
L 588.015 170.87895 
L 587.3175 170.781559 
L 586.62 170.640831 
L 585.9225 170.458416 
L 585.225 170.216503 
L 584.5275 169.931224 
L 583.83 169.619218 
L 583.1325 169.297438 
L 582.435 168.963003 
L 581.7375 168.606534 
L 581.04 168.232206 
L 580.3425 167.844404 
L 579.645 167.427723 
L 578.9475 167.006991 
L 578.25 166.56719 
L 577.5525 166.113471 
L 576.855 165.684393 
L 576.1575 165.24509 
L 575.46 164.847247 
L 574.7625 164.435687 
L 574.065 164.028528 
L 573.3675 163.643836 
L 572.67 163.266172 
L 571.9725 162.9465 
L 571.275 162.655321 
L 570.5775 162.389398 
L 569.88 162.145195 
L 569.1825 161.958818 
L 568.485 161.792556 
L 567.7875 161.648358 
L 567.09 161.567805 
L 566.3925 161.525245 
L 565.695 161.521178 
L 564.9975 161.568948 
L 564.3 161.687942 
L 563.6025 161.850172 
L 562.905 162.040438 
L 562.2075 162.296406 
L 561.51 162.588482 
L 560.8125 162.926543 
L 560.115 163.313277 
L 559.4175 163.737505 
L 558.72 164.207556 
L 558.0225 164.691329 
L 557.325 165.216402 
L 556.6275 165.73673 
L 555.93 166.286112 
L 555.2325 166.81822 
L 554.535 167.353416 
L 553.8375 167.892081 
L 553.14 168.401309 
L 552.4425 168.921677 
L 551.745 169.393899 
L 551.0475 169.858986 
L 550.35 170.278245 
L 549.6525 170.68666 
L 548.955 171.046201 
L 548.2575 171.33936 
L 547.56 171.595946 
L 546.8625 171.812955 
L 546.165 171.981196 
L 545.4675 172.085399 
L 544.77 172.137643 
L 544.0725 172.130666 
L 543.375 172.0712 
L 542.6775 171.953291 
L 541.98 171.811565 
L 541.2825 171.60114 
L 540.585 171.351077 
L 539.8875 171.064305 
L 539.19 170.737533 
L 538.4925 170.401186 
L 537.795 170.045904 
L 537.0975 169.682498 
L 536.4 169.315226 
L 535.7025 168.955038 
L 535.005 168.586206 
L 534.3075 168.246295 
L 533.61 167.899394 
L 532.9125 167.589459 
L 532.215 167.286876 
L 531.5175 167.028433 
L 530.82 166.81051 
L 530.1225 166.629009 
L 529.425 166.512653 
L 528.7275 166.422911 
L 528.03 166.38743 
L 527.3325 166.399976 
L 526.635 166.453754 
L 525.9375 166.541485 
L 525.24 166.675439 
L 524.5425 166.847398 
L 523.845 167.061996 
L 523.1475 167.32337 
L 522.45 167.601861 
L 521.7525 167.907505 
L 521.055 168.223426 
L 520.3575 168.559218 
L 519.66 168.9176 
L 518.9625 169.287723 
L 518.265 169.658603 
L 517.5675 170.052491 
L 516.87 170.451477 
L 516.1725 170.837588 
L 515.475 171.232898 
L 514.7775 171.626126 
L 514.08 172.012668 
L 513.3825 172.387995 
L 512.685 172.734413 
L 511.9875 173.041216 
L 511.29 173.311459 
L 510.5925 173.555274 
L 509.895 173.783102 
L 509.1975 173.972329 
L 508.5 174.140685 
L 507.8025 174.252952 
L 507.105 174.354359 
L 506.4075 174.417122 
L 505.71 174.447155 
L 505.0125 174.424159 
L 504.315 174.374999 
L 503.6175 174.300251 
L 502.92 174.180844 
L 502.2225 174.05807 
L 501.525 173.900122 
L 500.8275 173.722149 
L 500.13 173.506288 
L 499.4325 173.261717 
L 498.735 173.011247 
L 498.0375 172.751163 
L 497.34 172.484512 
L 496.6425 172.207768 
L 495.945 171.937471 
L 495.2475 171.676786 
L 494.55 171.442066 
L 493.8525 171.196165 
L 493.155 170.975209 
L 492.4575 170.741894 
L 491.76 170.538844 
L 491.0625 170.348491 
L 490.365 170.173066 
L 489.6675 170.007975 
L 488.97 169.868448 
L 488.2725 169.742823 
L 487.575 169.63922 
L 486.8775 169.585448 
L 486.18 169.568839 
L 485.4825 169.57629 
L 484.785 169.607713 
L 484.0875 169.682687 
L 483.39 169.787036 
L 482.6925 169.906241 
L 481.995 170.038904 
L 481.2975 170.196771 
L 480.6 170.364692 
L 479.9025 170.547352 
L 479.205 170.735961 
L 478.5075 170.941607 
L 477.81 171.141936 
L 477.1125 171.347898 
L 476.415 171.543783 
L 475.7175 171.753892 
L 475.02 171.942521 
L 474.3225 172.114107 
L 473.625 172.266642 
L 472.9275 172.391689 
L 472.23 172.487784 
L 471.5325 172.553802 
L 470.835 172.622213 
L 470.1375 172.658971 
L 469.44 172.670296 
L 468.7425 172.669352 
L 468.045 172.649501 
L 467.3475 172.597678 
L 466.65 172.527788 
L 465.9525 172.453947 
L 465.255 172.37702 
L 464.5575 172.277962 
L 463.86 172.157932 
L 463.1625 172.038284 
L 462.465 171.893824 
L 461.7675 171.772785 
L 461.07 171.630044 
L 460.3725 171.473921 
L 459.675 171.306246 
L 458.9775 171.122332 
L 458.28 170.911037 
L 457.5825 170.714729 
L 456.885 170.52241 
L 456.1875 170.316386 
L 455.49 170.105719 
L 454.7925 169.92612 
L 454.095 169.74645 
L 453.3975 169.58211 
L 452.7 169.435026 
L 452.0025 169.313569 
L 451.305 169.212513 
L 450.6075 169.133043 
L 449.91 169.082736 
L 449.2125 169.055535 
L 448.515 169.058406 
L 447.8175 169.084667 
L 447.12 169.120712 
L 446.4225 169.179418 
L 445.725 169.266745 
L 445.0275 169.375022 
L 444.33 169.522926 
L 443.6325 169.682131 
L 442.935 169.85077 
L 442.2375 170.020221 
L 441.54 170.215093 
L 440.8425 170.413157 
L 440.145 170.63204 
L 439.4475 170.849231 
L 438.75 171.088783 
L 438.0525 171.314643 
L 437.355 171.537465 
L 436.6575 171.754639 
L 435.96 171.950323 
L 435.2625 172.135523 
L 434.565 172.301419 
L 433.8675 172.452719 
L 433.17 172.574352 
L 432.4725 172.678191 
L 431.775 172.749722 
L 431.0775 172.788107 
L 430.38 172.792897 
L 429.6825 172.770684 
L 428.985 172.71508 
L 428.2875 172.626735 
L 427.59 172.500036 
L 426.8925 172.343117 
L 426.195 172.164463 
L 425.4975 171.959518 
L 424.8 171.730684 
L 424.1025 171.487289 
L 423.405 171.218887 
L 422.7075 170.955217 
L 422.01 170.666124 
L 421.3125 170.36829 
L 420.615 170.065206 
L 419.9175 169.753772 
L 419.22 169.437636 
L 418.5225 169.120502 
L 417.825 168.819381 
L 417.1275 168.524503 
L 416.43 168.245972 
L 415.7325 167.9804 
L 415.035 167.717601 
L 414.3375 167.487249 
L 413.64 167.285393 
L 412.9425 167.1011 
L 412.245 166.963123 
L 411.5475 166.853132 
L 410.85 166.759119 
L 410.1525 166.695482 
L 409.455 166.662966 
L 408.7575 166.661953 
L 408.06 166.685804 
L 407.3625 166.727593 
L 406.665 166.806776 
L 405.9675 166.889182 
L 405.27 166.993791 
L 404.5725 167.106081 
L 403.875 167.244682 
L 403.1775 167.401324 
L 402.48 167.560872 
L 401.7825 167.741405 
L 401.085 167.914212 
L 400.3875 168.090568 
L 399.69 168.275055 
L 398.9925 168.445566 
L 398.295 168.606752 
L 397.5975 168.776672 
L 396.9 168.940038 
L 396.2025 169.101585 
L 395.505 169.246123 
L 394.8075 169.378608 
L 394.11 169.497487 
L 393.4125 169.574774 
L 392.715 169.636159 
L 392.0175 169.680921 
L 391.32 169.69524 
L 390.6225 169.705542 
L 389.925 169.671815 
L 389.2275 169.614399 
L 388.53 169.553914 
L 387.8325 169.471122 
L 387.135 169.366992 
L 386.4375 169.262692 
L 385.74 169.132846 
L 385.0425 168.978976 
L 384.345 168.816183 
L 383.6475 168.646372 
L 382.95 168.458236 
L 382.2525 168.247329 
L 381.555 168.02277 
L 380.8575 167.79384 
L 380.16 167.556569 
L 379.4625 167.313739 
L 378.765 167.061543 
L 378.0675 166.796289 
L 377.37 166.541028 
L 376.6725 166.278805 
L 375.975 166.025988 
L 375.2775 165.792189 
L 374.58 165.566847 
L 373.8825 165.359252 
L 373.185 165.165186 
L 372.4875 164.99357 
L 371.79 164.846417 
L 371.0925 164.718799 
L 370.395 164.612212 
L 369.6975 164.527905 
L 369 164.486811 
L 368.3025 164.456168 
L 367.605 164.476228 
L 366.9075 164.52016 
L 366.21 164.58745 
L 365.5125 164.683958 
L 364.815 164.808554 
L 364.1175 164.946481 
L 363.42 165.109421 
L 362.7225 165.295465 
L 362.025 165.502434 
L 361.3275 165.727904 
L 360.63 165.982532 
L 359.9325 166.243387 
L 359.235 166.514065 
L 358.5375 166.798042 
L 357.84 167.065397 
L 357.1425 167.339594 
L 356.445 167.597475 
L 355.7475 167.849317 
L 355.05 168.08552 
L 354.3525 168.29002 
L 353.655 168.47372 
L 352.9575 168.62782 
L 352.26 168.76381 
L 351.5625 168.886749 
L 350.865 168.975248 
L 350.1675 169.034921 
L 349.47 169.065067 
L 348.7725 169.065335 
L 348.075 169.04237 
L 347.3775 168.996441 
L 346.68 168.934734 
L 345.9825 168.851324 
L 345.285 168.740539 
L 344.5875 168.610325 
L 343.89 168.468857 
L 343.1925 168.304493 
L 342.495 168.125808 
L 341.7975 167.934896 
L 341.1 167.727342 
L 340.4025 167.518877 
L 339.705 167.311942 
L 339.0075 167.102312 
L 338.31 166.899092 
L 337.6125 166.698012 
L 336.915 166.514727 
L 336.2175 166.351383 
L 335.52 166.196595 
L 334.8225 166.052177 
L 334.125 165.91982 
L 333.4275 165.807724 
L 332.73 165.710553 
L 332.0325 165.622796 
L 331.335 165.558779 
L 330.6375 165.512602 
L 329.94 165.471509 
L 329.2425 165.44928 
L 328.545 165.46612 
L 327.8475 165.488589 
L 327.15 165.543018 
L 326.4525 165.615473 
L 325.755 165.698455 
L 325.0575 165.797642 
L 324.36 165.911872 
L 323.6625 166.039807 
L 322.965 166.179948 
L 322.2675 166.330654 
L 321.57 166.496808 
L 320.8725 166.683113 
L 320.175 166.874089 
L 319.4775 167.074148 
L 318.78 167.280946 
L 318.0825 167.485412 
L 317.385 167.691801 
L 316.6875 167.904342 
L 315.99 168.113899 
L 315.2925 168.324665 
L 314.595 168.534171 
L 313.8975 168.753261 
L 313.2 168.959423 
L 312.5025 169.143591 
L 311.805 169.30361 
L 311.1075 169.437605 
L 310.41 169.550655 
L 309.7125 169.648085 
L 309.015 169.722104 
L 308.3175 169.778495 
L 307.62 169.803299 
L 306.9225 169.809524 
L 306.225 169.790447 
L 305.5275 169.766239 
L 304.83 169.737183 
L 304.1325 169.690322 
L 303.435 169.632854 
L 302.7375 169.5721 
L 302.04 169.495475 
L 301.3425 169.410524 
L 300.645 169.318244 
L 299.9475 169.219715 
L 299.25 169.116091 
L 298.5525 169.008586 
L 297.855 168.898458 
L 297.1575 168.800297 
L 296.46 168.708602 
L 295.7625 168.624448 
L 295.065 168.542172 
L 294.3675 168.469386 
L 293.67 168.406943 
L 292.9725 168.355575 
L 292.275 168.322531 
L 291.5775 168.294901 
L 290.88 168.286307 
L 290.1825 168.283551 
L 289.485 168.299964 
L 288.7875 168.328705 
L 288.09 168.369436 
L 287.3925 168.428329 
L 286.695 168.498046 
L 285.9975 168.58442 
L 285.3 168.673139 
L 284.6025 168.783113 
L 283.905 168.906404 
L 283.2075 169.041567 
L 282.51 169.18702 
L 281.8125 169.341058 
L 281.115 169.501878 
L 280.4175 169.667596 
L 279.72 169.842919 
L 279.0225 170.019145 
L 278.325 170.19421 
L 277.6275 170.372711 
L 276.93 170.552558 
L 276.2325 170.724997 
L 275.535 170.894654 
L 274.8375 171.059544 
L 274.14 171.224384 
L 273.4425 171.380593 
L 272.745 171.519694 
L 272.0475 171.653355 
L 271.35 171.766712 
L 270.6525 171.865086 
L 269.955 171.947326 
L 269.2575 172.005819 
L 268.56 172.053177 
L 267.8625 172.088846 
L 267.165 172.119057 
L 266.4675 172.130158 
L 265.77 172.128668 
L 265.0725 172.114605 
L 264.375 172.081484 
L 263.6775 172.042992 
L 262.98 171.98628 
L 262.2825 171.905365 
L 261.585 171.814493 
L 260.8875 171.708078 
L 260.19 171.594016 
L 259.4925 171.473644 
L 258.795 171.34837 
L 258.0975 171.219664 
L 257.4 171.089031 
L 256.7025 170.958002 
L 256.005 170.828113 
L 255.3075 170.707533 
L 254.61 170.584377 
L 253.9125 170.466737 
L 253.215 170.349341 
L 252.5175 170.240214 
L 251.82 170.133986 
L 251.1225 170.031899 
L 250.425 169.941799 
L 249.7275 169.864742 
L 249.03 169.80163 
L 248.3325 169.753201 
L 247.635 169.720025 
L 246.9375 169.702488 
L 246.24 169.6875 
L 245.5425 169.688532 
L 244.845 169.698924 
L 244.1475 169.731853 
L 243.45 169.773634 
L 242.7525 169.830428 
L 242.055 169.894919 
L 241.3575 169.959705 
L 240.66 170.037323 
L 239.9625 170.120215 
L 239.265 170.207411 
L 238.5675 170.291241 
L 237.87 170.370722 
L 237.1725 170.451572 
L 236.475 170.532845 
L 235.7775 170.606939 
L 235.08 170.679636 
L 234.3825 170.750083 
L 233.685 170.817456 
L 232.9875 170.874317 
L 232.29 170.919999 
L 231.5925 170.967266 
L 230.895 171.008915 
L 230.1975 171.037808 
L 229.5 171.060257 
L 228.8025 171.062701 
L 228.105 171.058408 
L 227.4075 171.040781 
L 226.71 171.010026 
L 226.0125 170.973151 
L 225.315 170.923941 
L 224.6175 170.862971 
L 223.92 170.790955 
L 223.2225 170.708737 
L 222.525 170.617281 
L 221.8275 170.517657 
L 221.13 170.411033 
L 220.4325 170.292007 
L 219.735 170.168625 
L 219.0375 170.035681 
L 218.34 169.901382 
L 217.6425 169.767302 
L 216.945 169.63501 
L 216.2475 169.506056 
L 215.55 169.381951 
L 214.8525 169.264148 
L 214.155 169.154028 
L 213.4575 169.059528 
L 212.76 168.975108 
L 212.0625 168.901756 
L 211.365 168.84698 
L 210.6675 168.804772 
L 209.97 168.775628 
L 209.2725 168.759888 
L 208.575 168.757737 
L 207.8775 168.769201 
L 207.18 168.794144 
L 206.4825 168.832275 
L 205.785 168.883146 
L 205.0875 168.946164 
L 204.39 169.020588 
L 203.6925 169.105547 
L 202.995 169.200046 
L 202.2975 169.316276 
L 201.6 169.439578 
L 200.9025 169.568507 
L 200.205 169.701554 
L 199.5075 169.837159 
L 198.81 169.973735 
L 198.1125 170.11633 
L 197.415 170.256625 
L 196.7175 170.392977 
L 196.02 170.523789 
L 195.3225 170.647529 
L 194.625 170.762747 
L 193.9275 170.868093 
L 193.23 170.962334 
L 192.5325 171.044365 
L 191.835 171.113226 
L 191.1375 171.168111 
L 190.44 171.208376 
L 189.7425 171.233549 
L 189.045 171.243336 
L 188.3475 171.237622 
L 187.65 171.216475 
L 186.9525 171.180141 
L 186.255 171.129047 
L 185.5575 171.06379 
L 184.86 170.985136 
L 184.1625 170.894005 
L 183.465 170.791465 
L 182.7675 170.678718 
L 182.07 170.557083 
L 181.3725 170.427986 
L 180.675 170.292938 
L 179.9775 170.153522 
L 179.28 170.011371 
L 178.5825 169.868149 
L 177.885 169.725535 
L 177.1875 169.585199 
L 176.49 169.448784 
L 175.7925 169.317889 
L 175.095 169.194047 
L 174.3975 169.078708 
L 173.7 168.973224 
L 173.0025 168.878829 
L 172.305 168.796631 
L 171.6075 168.72759 
L 170.91 168.672518 
L 170.2125 168.632057 
L 169.515 168.606683 
L 168.8175 168.596692 
L 168.12 168.602202 
L 167.4225 168.616499 
L 166.725 168.646064 
L 166.0275 168.690552 
L 165.33 168.749441 
L 164.6325 168.822041 
L 163.935 168.907501 
L 163.2375 169.004822 
L 162.54 169.112863 
L 161.8425 169.223709 
L 161.145 169.342711 
L 160.4475 169.468476 
L 159.75 169.599529 
L 159.0525 169.734336 
L 158.355 169.871318 
L 157.6575 170.00887 
L 156.96 170.145381 
L 156.2625 170.279252 
L 155.565 170.408915 
L 154.8675 170.532851 
L 154.17 170.649608 
L 153.4725 170.757819 
L 152.775 170.856217 
L 152.0775 170.936999 
L 151.38 171.005869 
L 150.6825 171.05537 
L 149.985 171.091573 
L 149.2875 171.114052 
L 148.59 171.122545 
L 147.8925 171.116952 
L 147.195 171.097338 
L 146.4975 171.063934 
L 145.8 171.01713 
L 145.1025 170.957475 
L 144.405 170.885668 
L 143.7075 170.802549 
L 143.01 170.709092 
L 142.3125 170.606393 
L 141.615 170.495654 
L 140.9175 170.378171 
L 140.22 170.255322 
L 139.5225 170.121896 
L 138.825 169.986106 
L 138.1275 169.849541 
L 137.43 169.72045 
L 136.7325 169.593696 
L 136.035 169.470765 
L 135.3375 169.353096 
L 134.64 169.242067 
L 133.9425 169.145628 
L 133.245 169.05826 
L 132.5475 168.980986 
L 131.85 168.91471 
L 131.1525 168.86021 
L 130.455 168.818124 
L 129.7575 168.788945 
L 129.06 168.773014 
L 128.3625 168.770519 
L 127.665 168.781488 
L 126.9675 168.805792 
L 126.27 168.843148 
L 125.5725 168.893118 
L 124.875 168.955116 
L 124.1775 169.028416 
L 123.48 169.11216 
L 122.7825 169.205366 
L 122.085 169.306943 
L 121.3875 169.415702 
L 120.69 169.530367 
L 119.9925 169.649596 
L 119.295 169.771993 
L 118.5975 169.896123 
L 117.9 170.020533 
L 117.2025 170.143765 
L 116.505 170.264376 
L 115.8075 170.380954 
L 115.11 170.492132 
L 114.4125 170.596608 
L 113.715 170.693159 
L 113.0175 170.780654 
L 112.32 170.858067 
L 111.6225 170.924493 
L 110.925 170.979152 
L 110.2275 171.021405 
L 109.53 171.050756 
L 108.8325 171.066863 
L 108.135 171.069536 
L 107.4375 171.058744 
L 106.74 171.034613 
L 106.0425 170.997426 
L 105.345 170.947619 
L 104.6475 170.885775 
L 103.95 170.812618 
L 103.2525 170.729006 
L 102.555 170.635917 
L 101.8575 170.534442 
L 101.16 170.425771 
L 100.4625 170.311175 
L 99.765 170.191996 
L 99.0675 170.069632 
L 98.37 169.945516 
L 97.6725 169.8211 
L 96.975 169.697843 
L 96.2775 169.577188 
L 95.58 169.460548 
L 94.8825 169.355939 
L 94.185 169.257937 
L 93.4875 169.167691 
L 92.79 169.086256 
L 92.0925 169.014588 
L 91.395 168.953525 
L 90.6975 168.903782 
L 90 168.865943 
z
" style="fill:#e0ffff;"/>
   </g>
   <g id="line2d_15">
    <path clip-path="url(#pd692286051)" d="M 90 168.865943 
L 92.79 169.086256 
L 96.2775 169.577188 
L 103.95 170.812618 
L 106.74 171.034613 
L 109.53 171.050756 
L 112.32 170.858067 
L 115.8075 170.380954 
L 124.875 168.955116 
L 127.665 168.781488 
L 130.455 168.818124 
L 133.245 169.05826 
L 136.7325 169.593696 
L 144.405 170.885668 
L 147.195 171.097338 
L 149.985 171.091573 
L 152.775 170.856217 
L 156.2625 170.279252 
L 163.935 168.907501 
L 166.725 168.646064 
L 169.515 168.606683 
L 172.305 168.796631 
L 175.7925 169.317889 
L 185.5575 171.06379 
L 188.3475 171.237622 
L 191.1375 171.168111 
L 193.9275 170.868093 
L 197.415 170.256625 
L 203.6925 169.105547 
L 206.4825 168.832275 
L 209.2725 168.759888 
L 212.0625 168.901756 
L 214.8525 169.264148 
L 225.315 170.923941 
L 228.8025 171.062701 
L 231.5925 170.967266 
L 236.475 170.532845 
L 244.1475 169.731853 
L 246.9375 169.702488 
L 249.7275 169.864742 
L 253.215 170.349341 
L 263.6775 172.042992 
L 266.4675 172.130158 
L 269.2575 172.005819 
L 271.35 171.766712 
L 274.14 171.224384 
L 285.3 168.673139 
L 288.7875 168.328705 
L 291.5775 168.294901 
L 295.065 168.542172 
L 299.9475 169.219715 
L 303.435 169.632854 
L 306.9225 169.809524 
L 309.015 169.722104 
L 311.1075 169.437605 
L 313.2 168.959423 
L 322.965 166.179948 
L 325.755 165.698455 
L 328.545 165.46612 
L 330.6375 165.512602 
L 333.4275 165.807724 
L 336.2175 166.351383 
L 339.0075 167.102312 
L 343.89 168.468857 
L 346.68 168.934734 
L 348.7725 169.065335 
L 350.865 168.975248 
L 352.9575 168.62782 
L 355.05 168.08552 
L 358.5375 166.798042 
L 361.3275 165.727904 
L 363.42 165.109421 
L 365.5125 164.683958 
L 367.605 164.476228 
L 369 164.486811 
L 371.0925 164.718799 
L 373.185 165.165186 
L 375.975 166.025988 
L 382.95 168.458236 
L 385.74 169.132846 
L 388.53 169.553914 
L 391.32 169.69524 
L 393.4125 169.574774 
L 395.505 169.246123 
L 399.69 168.275055 
L 403.875 167.244682 
L 405.9675 166.889182 
L 408.7575 166.661953 
L 410.85 166.759119 
L 412.9425 167.1011 
L 415.035 167.717601 
L 418.5225 169.120502 
L 423.405 171.218887 
L 425.4975 171.959518 
L 427.59 172.500036 
L 429.6825 172.770684 
L 431.775 172.749722 
L 433.8675 172.452719 
L 436.6575 171.754639 
L 443.6325 169.682131 
L 445.725 169.266745 
L 447.8175 169.084667 
L 449.91 169.082736 
L 452.0025 169.313569 
L 454.095 169.74645 
L 458.28 170.911037 
L 460.3725 171.473921 
L 463.86 172.157932 
L 466.65 172.527788 
L 468.7425 172.669352 
L 470.835 172.622213 
L 473.625 172.266642 
L 476.415 171.543783 
L 481.995 170.038904 
L 484.785 169.607713 
L 486.8775 169.585448 
L 488.2725 169.742823 
L 491.0625 170.348491 
L 493.8525 171.196165 
L 502.2225 174.05807 
L 504.315 174.374999 
L 506.4075 174.417122 
L 508.5 174.140685 
L 510.5925 173.555274 
L 512.685 172.734413 
L 515.475 171.232898 
L 520.3575 168.559218 
L 523.1475 167.32337 
L 524.5425 166.847398 
L 525.9375 166.541485 
L 528.03 166.38743 
L 529.425 166.512653 
L 530.82 166.81051 
L 532.215 167.286876 
L 535.005 168.586206 
L 539.8875 171.064305 
L 541.98 171.811565 
L 544.0725 172.130666 
L 545.4675 172.085399 
L 546.8625 171.812955 
L 548.955 171.046201 
L 551.0475 169.858986 
L 553.8375 167.892081 
L 558.72 164.207556 
L 560.8125 162.926543 
L 562.2075 162.296406 
L 563.6025 161.850172 
L 564.9975 161.568948 
L 566.3925 161.525245 
L 567.7875 161.648358 
L 569.88 162.145195 
L 571.9725 162.9465 
L 573.3675 163.643836 
L 576.855 165.684393 
L 581.7375 168.606534 
L 584.5275 169.931224 
L 585.9225 170.458416 
L 587.3175 170.781559 
L 589.41 171.012509 
L 591.5025 170.912102 
L 592.8975 170.690929 
L 595.6875 169.89249 
L 601.2675 168.130979 
L 603.36 167.779607 
L 605.4525 167.777282 
L 606.8475 167.965844 
L 608.2425 168.42467 
L 609.6375 169.079449 
L 611.73 170.411393 
L 614.52 172.689619 
L 618.0075 175.634102 
L 620.1 177.123302 
L 621.495 177.965235 
L 623.5875 178.87832 
L 625.68 179.39561 
L 627.075 179.472736 
L 628.47 179.329185 
L 629.865 179.01132 
L 631.9575 178.15713 
L 634.05 176.989074 
L 636.1425 175.504246 
L 640.3275 172.457092 
L 642.42 171.24048 
L 644.5125 170.341563 
L 645.9075 169.97984 
L 646.605 169.92 
L 646.605 169.92 
" style="fill:none;stroke:#008080;stroke-linecap:round;stroke-width:1.75;"/>
   </g>
   <g id="patch_3">
    <path d="M 90 270.72 
L 90 69.12 
" style="fill:none;stroke:#262626;stroke-linecap:square;stroke-linejoin:miter;stroke-width:1.25;"/>
   </g>
   <g id="patch_4">
    <path d="M 90 270.72 
L 648 270.72 
" style="fill:none;stroke:#262626;stroke-linecap:square;stroke-linejoin:miter;stroke-width:1.25;"/>
   </g>
  </g>
  <g id="axes_2">
   <g id="patch_5">
    <path d="M 90 512.64 
L 648 512.64 
L 648 311.04 
L 90 311.04 
z
" style="fill:#ffffff;"/>
   </g>
   <g id="matplotlib.axis_3">
    <g id="xtick_10">
     <g id="line2d_16">
      <g>
       <use style="fill:#262626;stroke:#262626;" x="191.454545" xlink:href="#mf04eed9a21" y="512.64"/>
      </g>
     </g>
     <g id="text_15">
      <!-- 200 -->
      <g style="fill:#262626;" transform="translate(183.113139 532.797812)scale(0.1 -0.1)">
       <use xlink:href="#ArialMT-32"/>
       <use x="55.615234" xlink:href="#ArialMT-30"/>
       <use x="111.230469" xlink:href="#ArialMT-30"/>
      </g>
     </g>
    </g>
    <g id="xtick_11">
     <g id="line2d_17">
      <g>
       <use style="fill:#262626;stroke:#262626;" x="304.181818" xlink:href="#mf04eed9a21" y="512.64"/>
      </g>
     </g>
     <g id="text_16">
      <!-- 400 -->
      <g style="fill:#262626;" transform="translate(295.840412 532.797812)scale(0.1 -0.1)">
       <use xlink:href="#ArialMT-34"/>
       <use x="55.615234" xlink:href="#ArialMT-30"/>
       <use x="111.230469" xlink:href="#ArialMT-30"/>
      </g>
     </g>
    </g>
    <g id="xtick_12">
     <g id="line2d_18">
      <g>
       <use style="fill:#262626;stroke:#262626;" x="416.909091" xlink:href="#mf04eed9a21" y="512.64"/>
      </g>
     </g>
     <g id="text_17">
      <!-- 600 -->
      <g style="fill:#262626;" transform="translate(408.567685 532.797812)scale(0.1 -0.1)">
       <use xlink:href="#ArialMT-36"/>
       <use x="55.615234" xlink:href="#ArialMT-30"/>
       <use x="111.230469" xlink:href="#ArialMT-30"/>
      </g>
     </g>
    </g>
    <g id="xtick_13">
     <g id="line2d_19">
      <g>
       <use style="fill:#262626;stroke:#262626;" x="529.636364" xlink:href="#mf04eed9a21" y="512.64"/>
      </g>
     </g>
     <g id="text_18">
      <!-- 800 -->
      <g style="fill:#262626;" transform="translate(521.294957 532.797812)scale(0.1 -0.1)">
       <use xlink:href="#ArialMT-38"/>
       <use x="55.615234" xlink:href="#ArialMT-30"/>
       <use x="111.230469" xlink:href="#ArialMT-30"/>
      </g>
     </g>
    </g>
    <g id="xtick_14">
     <g id="line2d_20">
      <g>
       <use style="fill:#262626;stroke:#262626;" x="642.363636" xlink:href="#mf04eed9a21" y="512.64"/>
      </g>
     </g>
     <g id="text_19">
      <!-- 1000 -->
      <g style="fill:#262626;" transform="translate(631.241761 532.797812)scale(0.1 -0.1)">
       <use xlink:href="#ArialMT-31"/>
       <use x="55.615234" xlink:href="#ArialMT-30"/>
       <use x="111.230469" xlink:href="#ArialMT-30"/>
       <use x="166.845703" xlink:href="#ArialMT-30"/>
      </g>
     </g>
    </g>
   </g>
   <g id="matplotlib.axis_4">
    <g id="ytick_6">
     <g id="line2d_21">
      <g>
       <use style="fill:#262626;stroke:#262626;" x="90" xlink:href="#m3d2ead5f40" y="512.64"/>
      </g>
     </g>
     <g id="text_20">
      <!-- 0 -->
      <g style="fill:#262626;" transform="translate(71.439063 516.218906)scale(0.1 -0.1)">
       <use xlink:href="#ArialMT-30"/>
      </g>
     </g>
    </g>
    <g id="ytick_7">
     <g id="line2d_22">
      <g>
       <use style="fill:#262626;stroke:#262626;" x="90" xlink:href="#m3d2ead5f40" y="490.24"/>
      </g>
     </g>
     <g id="text_21">
      <!-- 2 -->
      <g style="fill:#262626;" transform="translate(71.439063 493.818906)scale(0.1 -0.1)">
       <use xlink:href="#ArialMT-32"/>
      </g>
     </g>
    </g>
    <g id="ytick_8">
     <g id="line2d_23">
      <g>
       <use style="fill:#262626;stroke:#262626;" x="90" xlink:href="#m3d2ead5f40" y="467.84"/>
      </g>
     </g>
     <g id="text_22">
      <!-- 4 -->
      <g style="fill:#262626;" transform="translate(71.439063 471.418906)scale(0.1 -0.1)">
       <use xlink:href="#ArialMT-34"/>
      </g>
     </g>
    </g>
    <g id="ytick_9">
     <g id="line2d_24">
      <g>
       <use style="fill:#262626;stroke:#262626;" x="90" xlink:href="#m3d2ead5f40" y="445.44"/>
      </g>
     </g>
     <g id="text_23">
      <!-- 6 -->
      <g style="fill:#262626;" transform="translate(71.439063 449.018906)scale(0.1 -0.1)">
       <use xlink:href="#ArialMT-36"/>
      </g>
     </g>
    </g>
    <g id="ytick_10">
     <g id="line2d_25">
      <g>
       <use style="fill:#262626;stroke:#262626;" x="90" xlink:href="#m3d2ead5f40" y="423.04"/>
      </g>
     </g>
     <g id="text_24">
      <!-- 8 -->
      <g style="fill:#262626;" transform="translate(71.439063 426.618906)scale(0.1 -0.1)">
       <use xlink:href="#ArialMT-38"/>
      </g>
     </g>
    </g>
    <g id="ytick_11">
     <g id="line2d_26">
      <g>
       <use style="fill:#262626;stroke:#262626;" x="90" xlink:href="#m3d2ead5f40" y="400.64"/>
      </g>
     </g>
     <g id="text_25">
      <!-- 10 -->
      <g style="fill:#262626;" transform="translate(65.878125 404.218906)scale(0.1 -0.1)">
       <use xlink:href="#ArialMT-31"/>
       <use x="55.615234" xlink:href="#ArialMT-30"/>
      </g>
     </g>
    </g>
    <g id="ytick_12">
     <g id="line2d_27">
      <g>
       <use style="fill:#262626;stroke:#262626;" x="90" xlink:href="#m3d2ead5f40" y="378.24"/>
      </g>
     </g>
     <g id="text_26">
      <!-- 12 -->
      <g style="fill:#262626;" transform="translate(65.878125 381.818906)scale(0.1 -0.1)">
       <use xlink:href="#ArialMT-31"/>
       <use x="55.615234" xlink:href="#ArialMT-32"/>
      </g>
     </g>
    </g>
    <g id="ytick_13">
     <g id="line2d_28">
      <g>
       <use style="fill:#262626;stroke:#262626;" x="90" xlink:href="#m3d2ead5f40" y="355.84"/>
      </g>
     </g>
     <g id="text_27">
      <!-- 14 -->
      <g style="fill:#262626;" transform="translate(65.878125 359.418906)scale(0.1 -0.1)">
       <use xlink:href="#ArialMT-31"/>
       <use x="55.615234" xlink:href="#ArialMT-34"/>
      </g>
     </g>
    </g>
    <g id="ytick_14">
     <g id="line2d_29">
      <g>
       <use style="fill:#262626;stroke:#262626;" x="90" xlink:href="#m3d2ead5f40" y="333.44"/>
      </g>
     </g>
     <g id="text_28">
      <!-- 16 -->
      <g style="fill:#262626;" transform="translate(65.878125 337.018906)scale(0.1 -0.1)">
       <use xlink:href="#ArialMT-31"/>
       <use x="55.615234" xlink:href="#ArialMT-36"/>
      </g>
     </g>
    </g>
    <g id="ytick_15">
     <g id="line2d_30">
      <g>
       <use style="fill:#262626;stroke:#262626;" x="90" xlink:href="#m3d2ead5f40" y="311.04"/>
      </g>
     </g>
     <g id="text_29">
      <!-- 18 -->
      <g style="fill:#262626;" transform="translate(65.878125 314.618906)scale(0.1 -0.1)">
       <use xlink:href="#ArialMT-31"/>
       <use x="55.615234" xlink:href="#ArialMT-38"/>
      </g>
     </g>
    </g>
   </g>
   <g id="line2d_31">
    <path clip-path="url(#pf2d6c80713)" d="M 90 477.654723 
L 95.636364 452.736402 
L 101.272727 431.923589 
L 106.909091 427.92302 
L 112.545455 440.45326 
L 118.181818 444.705349 
L 123.818182 448.961059 
L 129.454545 457.370701 
L 135.090909 456.375715 
L 140.727273 434.868159 
L 146.363636 408.816951 
L 152 389.988216 
L 157.636364 371.492183 
L 163.272727 352.310178 
L 168.909091 342.280664 
L 174.545455 348.647566 
L 180.181818 355.802406 
L 185.818182 363.350788 
L 191.454545 378.270766 
L 197.090909 391.147889 
L 202.727273 394.129256 
L 208.363636 396.550705 
L 214 393.395457 
L 219.636364 389.651786 
L 225.272727 392.702199 
L 230.909091 396.085016 
L 236.545455 399.690878 
L 242.181818 407.737617 
L 247.818182 414.331388 
L 253.454545 417.809913 
L 259.090909 422.903097 
L 264.727273 426.347751 
L 270.363636 429.764905 
L 276 436.797845 
L 281.636364 444.59905 
L 287.272727 452.348689 
L 292.909091 461.235722 
L 298.545455 467.982454 
L 304.181818 471.144774 
L 309.818182 472.257688 
L 315.454545 471.707893 
L 321.090909 472.117482 
L 326.727273 473.818281 
L 332.363636 475.619312 
L 338 478.193498 
L 343.636364 480.655986 
L 349.272727 482.144164 
L 354.909091 483.974362 
L 360.545455 485.825198 
L 366.181818 487.914885 
L 371.818182 490.804554 
L 377.454545 493.872728 
L 383.090909 496.544264 
L 388.727273 498.469641 
L 394.363636 499.417825 
L 400 499.768128 
L 405.636364 498.821458 
L 411.272727 497.224183 
L 416.909091 494.909956 
L 422.545455 492.447818 
L 428.181818 490.656474 
L 433.818182 489.398754 
L 439.454545 488.863228 
L 445.090909 489.4762 
L 450.727273 490.947183 
L 456.363636 492.717187 
L 462 494.86505 
L 467.636364 496.940627 
L 473.272727 498.413462 
L 478.909091 499.664059 
L 484.545455 500.693175 
L 490.181818 501.817475 
L 495.818182 503.208137 
L 501.454545 504.425298 
L 507.090909 503.990365 
" style="fill:none;stroke:#b22222;stroke-linecap:round;stroke-width:1.75;"/>
   </g>
   <g id="line2d_32">
    <path clip-path="url(#pf2d6c80713)" d="M 152 512.64 
L 152 311.04 
" style="fill:none;stroke:#4c72b0;stroke-linecap:round;stroke-width:1.75;"/>
   </g>
   <g id="patch_6">
    <path d="M 90 512.64 
L 90 311.04 
" style="fill:none;stroke:#262626;stroke-linecap:square;stroke-linejoin:miter;stroke-width:1.25;"/>
   </g>
   <g id="patch_7">
    <path d="M 90 512.64 
L 648 512.64 
" style="fill:none;stroke:#262626;stroke-linecap:square;stroke-linejoin:miter;stroke-width:1.25;"/>
   </g>
   <g id="text_30">
    <!-- f = 760 Hz -->
    <defs>
     <path d="M 8.6875 0 
L 8.6875 45.015625 
L 0.921875 45.015625 
L 0.921875 51.859375 
L 8.6875 51.859375 
L 8.6875 57.375 
Q 8.6875 62.59375 9.625 65.140625 
Q 10.890625 68.5625 14.078125 70.671875 
Q 17.28125 72.796875 23.046875 72.796875 
Q 26.765625 72.796875 31.25 71.921875 
L 29.9375 64.265625 
Q 27.203125 64.75 24.75 64.75 
Q 20.75 64.75 19.09375 63.03125 
Q 17.4375 61.328125 17.4375 56.640625 
L 17.4375 51.859375 
L 27.546875 51.859375 
L 27.546875 45.015625 
L 17.4375 45.015625 
L 17.4375 0 
z
" id="ArialMT-66"/>
     <path id="ArialMT-20"/>
     <path d="M 52.828125 42.09375 
L 5.5625 42.09375 
L 5.5625 50.296875 
L 52.828125 50.296875 
z
M 52.828125 20.359375 
L 5.5625 20.359375 
L 5.5625 28.5625 
L 52.828125 28.5625 
z
" id="ArialMT-3d"/>
     <path d="M 8.015625 0 
L 8.015625 71.578125 
L 17.484375 71.578125 
L 17.484375 42.1875 
L 54.6875 42.1875 
L 54.6875 71.578125 
L 64.15625 71.578125 
L 64.15625 0 
L 54.6875 0 
L 54.6875 33.734375 
L 17.484375 33.734375 
L 17.484375 0 
z
" id="ArialMT-48"/>
     <path d="M 1.953125 0 
L 1.953125 7.125 
L 34.96875 45.015625 
Q 29.34375 44.734375 25.046875 44.734375 
L 3.90625 44.734375 
L 3.90625 51.859375 
L 46.296875 51.859375 
L 46.296875 46.046875 
L 18.21875 13.140625 
L 12.796875 7.125 
Q 18.703125 7.5625 23.875 7.5625 
L 47.859375 7.5625 
L 47.859375 0 
z
" id="ArialMT-7a"/>
    </defs>
    <g style="fill:#262626;" transform="translate(529.636364 403.742188)scale(0.12 -0.12)">
     <use xlink:href="#ArialMT-66"/>
     <use x="27.783203" xlink:href="#ArialMT-20"/>
     <use x="55.566406" xlink:href="#ArialMT-3d"/>
     <use x="113.964844" xlink:href="#ArialMT-20"/>
     <use x="141.748047" xlink:href="#ArialMT-37"/>
     <use x="197.363281" xlink:href="#ArialMT-36"/>
     <use x="252.978516" xlink:href="#ArialMT-30"/>
     <use x="308.59375" xlink:href="#ArialMT-20"/>
     <use x="336.376953" xlink:href="#ArialMT-48"/>
     <use x="408.59375" xlink:href="#ArialMT-7a"/>
    </g>
   </g>
   <g id="PathCollection_1">
    <defs>
     <path d="M 0 3.5 
C 0.928211 3.5 1.81853 3.131218 2.474874 2.474874 
C 3.131218 1.81853 3.5 0.928211 3.5 0 
C 3.5 -0.928211 3.131218 -1.81853 2.474874 -2.474874 
C 1.81853 -3.131218 0.928211 -3.5 0 -3.5 
C -0.928211 -3.5 -1.81853 -3.131218 -2.474874 -2.474874 
C -3.131218 -1.81853 -3.5 -0.928211 -3.5 0 
C -3.5 0.928211 -3.131218 1.81853 -2.474874 2.474874 
C -1.81853 3.131218 -0.928211 3.5 0 3.5 
z
" id="m49a3400ba8" style="stroke:#800000;stroke-width:0.3;"/>
    </defs>
    <g clip-path="url(#pf2d6c80713)">
     <use style="fill:#800000;stroke:#800000;stroke-width:0.3;" x="507.090909" xlink:href="#m49a3400ba8" y="503.990365"/>
    </g>
   </g>
  </g>
 </g>
 <defs>
  <clipPath id="pd692286051">
   <rect height="201.6" width="558" x="90" y="69.12"/>
  </clipPath>
  <clipPath id="pf2d6c80713">
   <rect height="201.6" width="558" x="90" y="311.04"/>
  </clipPath>
 </defs>
</svg>
