<?xml version="1.0" encoding="utf-8" standalone="no"?>
<!DOCTYPE svg PUBLIC "-//W3C//DTD SVG 1.1//EN"
  "http://www.w3.org/Graphics/SVG/1.1/DTD/svg11.dtd">
<!-- Created with matplotlib (http://matplotlib.org/) -->
<svg height="576pt" version="1.1" viewBox="0 0 720 576" width="720pt" xmlns="http://www.w3.org/2000/svg" xmlns:xlink="http://www.w3.org/1999/xlink">
 <defs>
  <style type="text/css">
*{stroke-linecap:butt;stroke-linejoin:round;}
  </style>
 </defs>
 <g id="figure_1">
  <g id="patch_1">
   <path d="M 0 576 
L 720 576 
L 720 0 
L 0 0 
z
" style="fill:#ffffff;"/>
  </g>
  <g id="axes_1">
   <g id="patch_2">
    <path d="M 90 270.72 
L 648 270.72 
L 648 69.12 
L 90 69.12 
z
" style="fill:#ffffff;"/>
   </g>
   <g id="matplotlib.axis_1">
    <g id="xtick_1">
     <g id="line2d_1">
      <defs>
       <path d="M 0 0 
L 0 6 
" id="m6b351a3d72" style="stroke:#262626;"/>
      </defs>
      <g>
       <use style="fill:#262626;stroke:#262626;" x="90" xlink:href="#m6b351a3d72" y="270.72"/>
      </g>
     </g>
     <g id="text_1">
      <!-- 0 -->
      <defs>
       <path d="M 4.15625 35.296875 
Q 4.15625 48 6.765625 55.734375 
Q 9.375 63.484375 14.515625 67.671875 
Q 19.671875 71.875 27.484375 71.875 
Q 33.25 71.875 37.59375 69.546875 
Q 41.9375 67.234375 44.765625 62.859375 
Q 47.609375 58.5 49.21875 52.21875 
Q 50.828125 45.953125 50.828125 35.296875 
Q 50.828125 22.703125 48.234375 14.96875 
Q 45.65625 7.234375 40.5 3 
Q 35.359375 -1.21875 27.484375 -1.21875 
Q 17.140625 -1.21875 11.234375 6.203125 
Q 4.15625 15.140625 4.15625 35.296875 
z
M 13.1875 35.296875 
Q 13.1875 17.671875 17.3125 11.828125 
Q 21.4375 6 27.484375 6 
Q 33.546875 6 37.671875 11.859375 
Q 41.796875 17.71875 41.796875 35.296875 
Q 41.796875 52.984375 37.671875 58.78125 
Q 33.546875 64.59375 27.390625 64.59375 
Q 21.34375 64.59375 17.71875 59.46875 
Q 13.1875 52.9375 13.1875 35.296875 
z
" id="ArialMT-30"/>
      </defs>
      <g style="fill:#262626;" transform="translate(87.219531 290.877812)scale(0.1 -0.1)">
       <use xlink:href="#ArialMT-30"/>
      </g>
     </g>
    </g>
    <g id="xtick_2">
     <g id="line2d_2">
      <g>
       <use style="fill:#262626;stroke:#262626;" x="159.75" xlink:href="#m6b351a3d72" y="270.72"/>
      </g>
     </g>
     <g id="text_2">
      <!-- 100 -->
      <defs>
       <path d="M 37.25 0 
L 28.46875 0 
L 28.46875 56 
Q 25.296875 52.984375 20.140625 49.953125 
Q 14.984375 46.921875 10.890625 45.40625 
L 10.890625 53.90625 
Q 18.265625 57.375 23.78125 62.296875 
Q 29.296875 67.234375 31.59375 71.875 
L 37.25 71.875 
z
" id="ArialMT-31"/>
      </defs>
      <g style="fill:#262626;" transform="translate(151.408594 290.877812)scale(0.1 -0.1)">
       <use xlink:href="#ArialMT-31"/>
       <use x="55.615234" xlink:href="#ArialMT-30"/>
       <use x="111.230469" xlink:href="#ArialMT-30"/>
      </g>
     </g>
    </g>
    <g id="xtick_3">
     <g id="line2d_3">
      <g>
       <use style="fill:#262626;stroke:#262626;" x="229.5" xlink:href="#m6b351a3d72" y="270.72"/>
      </g>
     </g>
     <g id="text_3">
      <!-- 200 -->
      <defs>
       <path d="M 50.34375 8.453125 
L 50.34375 0 
L 3.03125 0 
Q 2.9375 3.171875 4.046875 6.109375 
Q 5.859375 10.9375 9.828125 15.625 
Q 13.8125 20.3125 21.34375 26.46875 
Q 33.015625 36.03125 37.109375 41.625 
Q 41.21875 47.21875 41.21875 52.203125 
Q 41.21875 57.421875 37.46875 61 
Q 33.734375 64.59375 27.734375 64.59375 
Q 21.390625 64.59375 17.578125 60.78125 
Q 13.765625 56.984375 13.71875 50.25 
L 4.6875 51.171875 
Q 5.609375 61.28125 11.65625 66.578125 
Q 17.71875 71.875 27.9375 71.875 
Q 38.234375 71.875 44.234375 66.15625 
Q 50.25 60.453125 50.25 52 
Q 50.25 47.703125 48.484375 43.546875 
Q 46.734375 39.40625 42.65625 34.8125 
Q 38.578125 30.21875 29.109375 22.21875 
Q 21.1875 15.578125 18.9375 13.203125 
Q 16.703125 10.84375 15.234375 8.453125 
z
" id="ArialMT-32"/>
      </defs>
      <g style="fill:#262626;" transform="translate(221.158594 290.877812)scale(0.1 -0.1)">
       <use xlink:href="#ArialMT-32"/>
       <use x="55.615234" xlink:href="#ArialMT-30"/>
       <use x="111.230469" xlink:href="#ArialMT-30"/>
      </g>
     </g>
    </g>
    <g id="xtick_4">
     <g id="line2d_4">
      <g>
       <use style="fill:#262626;stroke:#262626;" x="299.25" xlink:href="#m6b351a3d72" y="270.72"/>
      </g>
     </g>
     <g id="text_4">
      <!-- 300 -->
      <defs>
       <path d="M 4.203125 18.890625 
L 12.984375 20.0625 
Q 14.5 12.59375 18.140625 9.296875 
Q 21.78125 6 27 6 
Q 33.203125 6 37.46875 10.296875 
Q 41.75 14.59375 41.75 20.953125 
Q 41.75 27 37.796875 30.921875 
Q 33.84375 34.859375 27.734375 34.859375 
Q 25.25 34.859375 21.53125 33.890625 
L 22.515625 41.609375 
Q 23.390625 41.5 23.921875 41.5 
Q 29.546875 41.5 34.03125 44.421875 
Q 38.53125 47.359375 38.53125 53.46875 
Q 38.53125 58.296875 35.25 61.46875 
Q 31.984375 64.65625 26.8125 64.65625 
Q 21.6875 64.65625 18.265625 61.421875 
Q 14.84375 58.203125 13.875 51.765625 
L 5.078125 53.328125 
Q 6.6875 62.15625 12.390625 67.015625 
Q 18.109375 71.875 26.609375 71.875 
Q 32.46875 71.875 37.390625 69.359375 
Q 42.328125 66.84375 44.9375 62.5 
Q 47.5625 58.15625 47.5625 53.265625 
Q 47.5625 48.640625 45.0625 44.828125 
Q 42.578125 41.015625 37.703125 38.765625 
Q 44.046875 37.3125 47.5625 32.6875 
Q 51.078125 28.078125 51.078125 21.140625 
Q 51.078125 11.765625 44.234375 5.25 
Q 37.40625 -1.265625 26.953125 -1.265625 
Q 17.53125 -1.265625 11.296875 4.34375 
Q 5.078125 9.96875 4.203125 18.890625 
z
" id="ArialMT-33"/>
      </defs>
      <g style="fill:#262626;" transform="translate(290.908594 290.877812)scale(0.1 -0.1)">
       <use xlink:href="#ArialMT-33"/>
       <use x="55.615234" xlink:href="#ArialMT-30"/>
       <use x="111.230469" xlink:href="#ArialMT-30"/>
      </g>
     </g>
    </g>
    <g id="xtick_5">
     <g id="line2d_5">
      <g>
       <use style="fill:#262626;stroke:#262626;" x="369" xlink:href="#m6b351a3d72" y="270.72"/>
      </g>
     </g>
     <g id="text_5">
      <!-- 400 -->
      <defs>
       <path d="M 32.328125 0 
L 32.328125 17.140625 
L 1.265625 17.140625 
L 1.265625 25.203125 
L 33.9375 71.578125 
L 41.109375 71.578125 
L 41.109375 25.203125 
L 50.78125 25.203125 
L 50.78125 17.140625 
L 41.109375 17.140625 
L 41.109375 0 
z
M 32.328125 25.203125 
L 32.328125 57.46875 
L 9.90625 25.203125 
z
" id="ArialMT-34"/>
      </defs>
      <g style="fill:#262626;" transform="translate(360.658594 290.877812)scale(0.1 -0.1)">
       <use xlink:href="#ArialMT-34"/>
       <use x="55.615234" xlink:href="#ArialMT-30"/>
       <use x="111.230469" xlink:href="#ArialMT-30"/>
      </g>
     </g>
    </g>
    <g id="xtick_6">
     <g id="line2d_6">
      <g>
       <use style="fill:#262626;stroke:#262626;" x="438.75" xlink:href="#m6b351a3d72" y="270.72"/>
      </g>
     </g>
     <g id="text_6">
      <!-- 500 -->
      <defs>
       <path d="M 4.15625 18.75 
L 13.375 19.53125 
Q 14.40625 12.796875 18.140625 9.390625 
Q 21.875 6 27.15625 6 
Q 33.5 6 37.890625 10.78125 
Q 42.28125 15.578125 42.28125 23.484375 
Q 42.28125 31 38.0625 35.34375 
Q 33.84375 39.703125 27 39.703125 
Q 22.75 39.703125 19.328125 37.765625 
Q 15.921875 35.84375 13.96875 32.765625 
L 5.71875 33.84375 
L 12.640625 70.609375 
L 48.25 70.609375 
L 48.25 62.203125 
L 19.671875 62.203125 
L 15.828125 42.96875 
Q 22.265625 47.46875 29.34375 47.46875 
Q 38.71875 47.46875 45.15625 40.96875 
Q 51.609375 34.46875 51.609375 24.265625 
Q 51.609375 14.546875 45.953125 7.46875 
Q 39.0625 -1.21875 27.15625 -1.21875 
Q 17.390625 -1.21875 11.203125 4.25 
Q 5.03125 9.71875 4.15625 18.75 
z
" id="ArialMT-35"/>
      </defs>
      <g style="fill:#262626;" transform="translate(430.408594 290.877812)scale(0.1 -0.1)">
       <use xlink:href="#ArialMT-35"/>
       <use x="55.615234" xlink:href="#ArialMT-30"/>
       <use x="111.230469" xlink:href="#ArialMT-30"/>
      </g>
     </g>
    </g>
    <g id="xtick_7">
     <g id="line2d_7">
      <g>
       <use style="fill:#262626;stroke:#262626;" x="508.5" xlink:href="#m6b351a3d72" y="270.72"/>
      </g>
     </g>
     <g id="text_7">
      <!-- 600 -->
      <defs>
       <path d="M 49.75 54.046875 
L 41.015625 53.375 
Q 39.84375 58.546875 37.703125 60.890625 
Q 34.125 64.65625 28.90625 64.65625 
Q 24.703125 64.65625 21.53125 62.3125 
Q 17.390625 59.28125 14.984375 53.46875 
Q 12.59375 47.65625 12.5 36.921875 
Q 15.671875 41.75 20.265625 44.09375 
Q 24.859375 46.4375 29.890625 46.4375 
Q 38.671875 46.4375 44.84375 39.96875 
Q 51.03125 33.5 51.03125 23.25 
Q 51.03125 16.5 48.125 10.71875 
Q 45.21875 4.9375 40.140625 1.859375 
Q 35.0625 -1.21875 28.609375 -1.21875 
Q 17.625 -1.21875 10.6875 6.859375 
Q 3.765625 14.9375 3.765625 33.5 
Q 3.765625 54.25 11.421875 63.671875 
Q 18.109375 71.875 29.4375 71.875 
Q 37.890625 71.875 43.28125 67.140625 
Q 48.6875 62.40625 49.75 54.046875 
z
M 13.875 23.1875 
Q 13.875 18.65625 15.796875 14.5 
Q 17.71875 10.359375 21.1875 8.171875 
Q 24.65625 6 28.46875 6 
Q 34.03125 6 38.03125 10.484375 
Q 42.046875 14.984375 42.046875 22.703125 
Q 42.046875 30.125 38.078125 34.390625 
Q 34.125 38.671875 28.125 38.671875 
Q 22.171875 38.671875 18.015625 34.390625 
Q 13.875 30.125 13.875 23.1875 
z
" id="ArialMT-36"/>
      </defs>
      <g style="fill:#262626;" transform="translate(500.158594 290.877812)scale(0.1 -0.1)">
       <use xlink:href="#ArialMT-36"/>
       <use x="55.615234" xlink:href="#ArialMT-30"/>
       <use x="111.230469" xlink:href="#ArialMT-30"/>
      </g>
     </g>
    </g>
    <g id="xtick_8">
     <g id="line2d_8">
      <g>
       <use style="fill:#262626;stroke:#262626;" x="578.25" xlink:href="#m6b351a3d72" y="270.72"/>
      </g>
     </g>
     <g id="text_8">
      <!-- 700 -->
      <defs>
       <path d="M 4.734375 62.203125 
L 4.734375 70.65625 
L 51.078125 70.65625 
L 51.078125 63.8125 
Q 44.234375 56.546875 37.515625 44.484375 
Q 30.8125 32.421875 27.15625 19.671875 
Q 24.515625 10.6875 23.78125 0 
L 14.75 0 
Q 14.890625 8.453125 18.0625 20.40625 
Q 21.234375 32.375 27.171875 43.484375 
Q 33.109375 54.59375 39.796875 62.203125 
z
" id="ArialMT-37"/>
      </defs>
      <g style="fill:#262626;" transform="translate(569.908594 290.877812)scale(0.1 -0.1)">
       <use xlink:href="#ArialMT-37"/>
       <use x="55.615234" xlink:href="#ArialMT-30"/>
       <use x="111.230469" xlink:href="#ArialMT-30"/>
      </g>
     </g>
    </g>
    <g id="xtick_9">
     <g id="line2d_9">
      <g>
       <use style="fill:#262626;stroke:#262626;" x="648" xlink:href="#m6b351a3d72" y="270.72"/>
      </g>
     </g>
     <g id="text_9">
      <!-- 800 -->
      <defs>
       <path d="M 17.671875 38.8125 
Q 12.203125 40.828125 9.5625 44.53125 
Q 6.9375 48.25 6.9375 53.421875 
Q 6.9375 61.234375 12.546875 66.546875 
Q 18.171875 71.875 27.484375 71.875 
Q 36.859375 71.875 42.578125 66.421875 
Q 48.296875 60.984375 48.296875 53.171875 
Q 48.296875 48.1875 45.671875 44.5 
Q 43.0625 40.828125 37.75 38.8125 
Q 44.34375 36.671875 47.78125 31.875 
Q 51.21875 27.09375 51.21875 20.453125 
Q 51.21875 11.28125 44.71875 5.03125 
Q 38.234375 -1.21875 27.640625 -1.21875 
Q 17.046875 -1.21875 10.546875 5.046875 
Q 4.046875 11.328125 4.046875 20.703125 
Q 4.046875 27.6875 7.59375 32.390625 
Q 11.140625 37.109375 17.671875 38.8125 
z
M 15.921875 53.71875 
Q 15.921875 48.640625 19.1875 45.40625 
Q 22.46875 42.1875 27.6875 42.1875 
Q 32.765625 42.1875 36.015625 45.375 
Q 39.265625 48.578125 39.265625 53.21875 
Q 39.265625 58.0625 35.90625 61.359375 
Q 32.5625 64.65625 27.59375 64.65625 
Q 22.5625 64.65625 19.234375 61.421875 
Q 15.921875 58.203125 15.921875 53.71875 
z
M 13.09375 20.65625 
Q 13.09375 16.890625 14.875 13.375 
Q 16.65625 9.859375 20.171875 7.921875 
Q 23.6875 6 27.734375 6 
Q 34.03125 6 38.125 10.046875 
Q 42.234375 14.109375 42.234375 20.359375 
Q 42.234375 26.703125 38.015625 30.859375 
Q 33.796875 35.015625 27.4375 35.015625 
Q 21.234375 35.015625 17.15625 30.90625 
Q 13.09375 26.8125 13.09375 20.65625 
z
" id="ArialMT-38"/>
      </defs>
      <g style="fill:#262626;" transform="translate(639.658594 290.877812)scale(0.1 -0.1)">
       <use xlink:href="#ArialMT-38"/>
       <use x="55.615234" xlink:href="#ArialMT-30"/>
       <use x="111.230469" xlink:href="#ArialMT-30"/>
      </g>
     </g>
    </g>
   </g>
   <g id="matplotlib.axis_2">
    <g id="ytick_1">
     <g id="line2d_10">
      <defs>
       <path d="M 0 0 
L -6 0 
" id="m6d7c965b7f" style="stroke:#262626;"/>
      </defs>
      <g>
       <use style="fill:#262626;stroke:#262626;" x="90" xlink:href="#m6d7c965b7f" y="250.56"/>
      </g>
     </g>
     <g id="text_10">
      <!-- −0.04 -->
      <defs>
       <path d="M 52.828125 31.203125 
L 5.5625 31.203125 
L 5.5625 39.40625 
L 52.828125 39.40625 
z
" id="ArialMT-2212"/>
       <path d="M 9.078125 0 
L 9.078125 10.015625 
L 19.09375 10.015625 
L 19.09375 0 
z
" id="ArialMT-2e"/>
      </defs>
      <g style="fill:#262626;" transform="translate(51.698437 254.138906)scale(0.1 -0.1)">
       <use xlink:href="#ArialMT-2212"/>
       <use x="58.398438" xlink:href="#ArialMT-30"/>
       <use x="114.013672" xlink:href="#ArialMT-2e"/>
       <use x="141.796875" xlink:href="#ArialMT-30"/>
       <use x="197.412109" xlink:href="#ArialMT-34"/>
      </g>
     </g>
    </g>
    <g id="ytick_2">
     <g id="line2d_11">
      <g>
       <use style="fill:#262626;stroke:#262626;" x="90" xlink:href="#m6d7c965b7f" y="210.24"/>
      </g>
     </g>
     <g id="text_11">
      <!-- −0.02 -->
      <g style="fill:#262626;" transform="translate(51.698437 213.818906)scale(0.1 -0.1)">
       <use xlink:href="#ArialMT-2212"/>
       <use x="58.398438" xlink:href="#ArialMT-30"/>
       <use x="114.013672" xlink:href="#ArialMT-2e"/>
       <use x="141.796875" xlink:href="#ArialMT-30"/>
       <use x="197.412109" xlink:href="#ArialMT-32"/>
      </g>
     </g>
    </g>
    <g id="ytick_3">
     <g id="line2d_12">
      <g>
       <use style="fill:#262626;stroke:#262626;" x="90" xlink:href="#m6d7c965b7f" y="169.92"/>
      </g>
     </g>
     <g id="text_12">
      <!-- 0.00 -->
      <g style="fill:#262626;" transform="translate(57.539062 173.498906)scale(0.1 -0.1)">
       <use xlink:href="#ArialMT-30"/>
       <use x="55.615234" xlink:href="#ArialMT-2e"/>
       <use x="83.398438" xlink:href="#ArialMT-30"/>
       <use x="139.013672" xlink:href="#ArialMT-30"/>
      </g>
     </g>
    </g>
    <g id="ytick_4">
     <g id="line2d_13">
      <g>
       <use style="fill:#262626;stroke:#262626;" x="90" xlink:href="#m6d7c965b7f" y="129.6"/>
      </g>
     </g>
     <g id="text_13">
      <!-- 0.02 -->
      <g style="fill:#262626;" transform="translate(57.539062 133.178906)scale(0.1 -0.1)">
       <use xlink:href="#ArialMT-30"/>
       <use x="55.615234" xlink:href="#ArialMT-2e"/>
       <use x="83.398438" xlink:href="#ArialMT-30"/>
       <use x="139.013672" xlink:href="#ArialMT-32"/>
      </g>
     </g>
    </g>
    <g id="ytick_5">
     <g id="line2d_14">
      <g>
       <use style="fill:#262626;stroke:#262626;" x="90" xlink:href="#m6d7c965b7f" y="89.28"/>
      </g>
     </g>
     <g id="text_14">
      <!-- 0.04 -->
      <g style="fill:#262626;" transform="translate(57.539062 92.858906)scale(0.1 -0.1)">
       <use xlink:href="#ArialMT-30"/>
       <use x="55.615234" xlink:href="#ArialMT-2e"/>
       <use x="83.398438" xlink:href="#ArialMT-30"/>
       <use x="139.013672" xlink:href="#ArialMT-34"/>
      </g>
     </g>
    </g>
   </g>
   <g id="PolyCollection_1">
    <path clip-path="url(#pfa351f6470)" d="M 90 170.32995 
L 90 169.92 
L 90.6975 169.92 
L 91.395 169.92 
L 92.0925 169.92 
L 92.79 169.92 
L 93.4875 169.92 
L 94.185 169.92 
L 94.8825 169.92 
L 95.58 169.92 
L 96.2775 169.92 
L 96.975 169.92 
L 97.6725 169.92 
L 98.37 169.92 
L 99.0675 169.92 
L 99.765 169.92 
L 100.4625 169.92 
L 101.16 169.92 
L 101.8575 169.92 
L 102.555 169.92 
L 103.2525 169.92 
L 103.95 169.92 
L 104.6475 169.92 
L 105.345 169.92 
L 106.0425 169.92 
L 106.74 169.92 
L 107.4375 169.92 
L 108.135 169.92 
L 108.8325 169.92 
L 109.53 169.92 
L 110.2275 169.92 
L 110.925 169.92 
L 111.6225 169.92 
L 112.32 169.92 
L 113.0175 169.92 
L 113.715 169.92 
L 114.4125 169.92 
L 115.11 169.92 
L 115.8075 169.92 
L 116.505 169.92 
L 117.2025 169.92 
L 117.9 169.92 
L 118.5975 169.92 
L 119.295 169.92 
L 119.9925 169.92 
L 120.69 169.92 
L 121.3875 169.92 
L 122.085 169.92 
L 122.7825 169.92 
L 123.48 169.92 
L 124.1775 169.92 
L 124.875 169.92 
L 125.5725 169.92 
L 126.27 169.92 
L 126.9675 169.92 
L 127.665 169.92 
L 128.3625 169.92 
L 129.06 169.92 
L 129.7575 169.92 
L 130.455 169.92 
L 131.1525 169.92 
L 131.85 169.92 
L 132.5475 169.92 
L 133.245 169.92 
L 133.9425 169.92 
L 134.64 169.92 
L 135.3375 169.92 
L 136.035 169.92 
L 136.7325 169.92 
L 137.43 169.92 
L 138.1275 169.92 
L 138.825 169.92 
L 139.5225 169.92 
L 140.22 169.92 
L 140.9175 169.92 
L 141.615 169.92 
L 142.3125 169.92 
L 143.01 169.92 
L 143.7075 169.92 
L 144.405 169.92 
L 145.1025 169.92 
L 145.8 169.92 
L 146.4975 169.92 
L 147.195 169.92 
L 147.8925 169.92 
L 148.59 169.92 
L 149.2875 169.92 
L 149.985 169.92 
L 150.6825 169.92 
L 151.38 169.92 
L 152.0775 169.92 
L 152.775 169.92 
L 153.4725 169.92 
L 154.17 169.92 
L 154.8675 169.92 
L 155.565 169.92 
L 156.2625 169.92 
L 156.96 169.92 
L 157.6575 169.92 
L 158.355 169.92 
L 159.0525 169.92 
L 159.75 169.92 
L 160.4475 169.92 
L 161.145 169.92 
L 161.8425 169.92 
L 162.54 169.92 
L 163.2375 169.92 
L 163.935 169.92 
L 164.6325 169.92 
L 165.33 169.92 
L 166.0275 169.92 
L 166.725 169.92 
L 167.4225 169.92 
L 168.12 169.92 
L 168.8175 169.92 
L 169.515 169.92 
L 170.2125 169.92 
L 170.91 169.92 
L 171.6075 169.92 
L 172.305 169.92 
L 173.0025 169.92 
L 173.7 169.92 
L 174.3975 169.92 
L 175.095 169.92 
L 175.7925 169.92 
L 176.49 169.92 
L 177.1875 169.92 
L 177.885 169.92 
L 178.5825 169.92 
L 179.28 169.92 
L 179.9775 169.92 
L 180.675 169.92 
L 181.3725 169.92 
L 182.07 169.92 
L 182.7675 169.92 
L 183.465 169.92 
L 184.1625 169.92 
L 184.86 169.92 
L 185.5575 169.92 
L 186.255 169.92 
L 186.9525 169.92 
L 187.65 169.92 
L 188.3475 169.92 
L 189.045 169.92 
L 189.7425 169.92 
L 190.44 169.92 
L 191.1375 169.92 
L 191.835 169.92 
L 192.5325 169.92 
L 193.23 169.92 
L 193.9275 169.92 
L 194.625 169.92 
L 195.3225 169.92 
L 196.02 169.92 
L 196.7175 169.92 
L 197.415 169.92 
L 198.1125 169.92 
L 198.81 169.92 
L 199.5075 169.92 
L 200.205 169.92 
L 200.9025 169.92 
L 201.6 169.92 
L 202.2975 169.92 
L 202.995 169.92 
L 203.6925 169.92 
L 204.39 169.92 
L 205.0875 169.92 
L 205.785 169.92 
L 206.4825 169.92 
L 207.18 169.92 
L 207.8775 169.92 
L 208.575 169.92 
L 209.2725 169.92 
L 209.97 169.92 
L 210.6675 169.92 
L 211.365 169.92 
L 212.0625 169.92 
L 212.76 169.92 
L 213.4575 169.92 
L 214.155 169.92 
L 214.8525 169.92 
L 215.55 169.92 
L 216.2475 169.92 
L 216.945 169.92 
L 217.6425 169.92 
L 218.34 169.92 
L 219.0375 169.92 
L 219.735 169.92 
L 220.4325 169.92 
L 221.13 169.92 
L 221.8275 169.92 
L 222.525 169.92 
L 223.2225 169.92 
L 223.92 169.92 
L 224.6175 169.92 
L 225.315 169.92 
L 226.0125 169.92 
L 226.71 169.92 
L 227.4075 169.92 
L 228.105 169.92 
L 228.8025 169.92 
L 229.5 169.92 
L 230.1975 169.92 
L 230.895 169.92 
L 231.5925 169.92 
L 232.29 169.92 
L 232.9875 169.92 
L 233.685 169.92 
L 234.3825 169.92 
L 235.08 169.92 
L 235.7775 169.92 
L 236.475 169.92 
L 237.1725 169.92 
L 237.87 169.92 
L 238.5675 169.92 
L 239.265 169.92 
L 239.9625 169.92 
L 240.66 169.92 
L 241.3575 169.92 
L 242.055 169.92 
L 242.7525 169.92 
L 243.45 169.92 
L 244.1475 169.92 
L 244.845 169.92 
L 245.5425 169.92 
L 246.24 169.92 
L 246.9375 169.92 
L 247.635 169.92 
L 248.3325 169.92 
L 249.03 169.92 
L 249.7275 169.92 
L 250.425 169.92 
L 251.1225 169.92 
L 251.82 169.92 
L 252.5175 169.92 
L 253.215 169.92 
L 253.9125 169.92 
L 254.61 169.92 
L 255.3075 169.92 
L 256.005 169.92 
L 256.7025 169.92 
L 257.4 169.92 
L 258.0975 169.92 
L 258.795 169.92 
L 259.4925 169.92 
L 260.19 169.92 
L 260.8875 169.92 
L 261.585 169.92 
L 262.2825 169.92 
L 262.98 169.92 
L 263.6775 169.92 
L 264.375 169.92 
L 265.0725 169.92 
L 265.77 169.92 
L 266.4675 169.92 
L 267.165 169.92 
L 267.8625 169.92 
L 268.56 169.92 
L 269.2575 169.92 
L 269.955 169.92 
L 270.6525 169.92 
L 271.35 169.92 
L 272.0475 169.92 
L 272.745 169.92 
L 273.4425 169.92 
L 274.14 169.92 
L 274.8375 169.92 
L 275.535 169.92 
L 276.2325 169.92 
L 276.93 169.92 
L 277.6275 169.92 
L 278.325 169.92 
L 279.0225 169.92 
L 279.72 169.92 
L 280.4175 169.92 
L 281.115 169.92 
L 281.8125 169.92 
L 282.51 169.92 
L 283.2075 169.92 
L 283.905 169.92 
L 284.6025 169.92 
L 285.3 169.92 
L 285.9975 169.92 
L 286.695 169.92 
L 287.3925 169.92 
L 288.09 169.92 
L 288.7875 169.92 
L 289.485 169.92 
L 290.1825 169.92 
L 290.88 169.92 
L 291.5775 169.92 
L 292.275 169.92 
L 292.9725 169.92 
L 293.67 169.92 
L 294.3675 169.92 
L 295.065 169.92 
L 295.7625 169.92 
L 296.46 169.92 
L 297.1575 169.92 
L 297.855 169.92 
L 298.5525 169.92 
L 299.25 169.92 
L 299.9475 169.92 
L 300.645 169.92 
L 301.3425 169.92 
L 302.04 169.92 
L 302.7375 169.92 
L 303.435 169.92 
L 304.1325 169.92 
L 304.83 169.92 
L 305.5275 169.92 
L 306.225 169.92 
L 306.9225 169.92 
L 307.62 169.92 
L 308.3175 169.92 
L 309.015 169.92 
L 309.7125 169.92 
L 310.41 169.92 
L 311.1075 169.92 
L 311.805 169.92 
L 312.5025 169.92 
L 313.2 169.92 
L 313.8975 169.92 
L 314.595 169.92 
L 315.2925 169.92 
L 315.99 169.92 
L 316.6875 169.92 
L 317.385 169.92 
L 318.0825 169.92 
L 318.78 169.92 
L 319.4775 169.92 
L 320.175 169.92 
L 320.8725 169.92 
L 321.57 169.92 
L 322.2675 169.92 
L 322.965 169.92 
L 323.6625 169.92 
L 324.36 169.92 
L 325.0575 169.92 
L 325.755 169.92 
L 326.4525 169.92 
L 327.15 169.92 
L 327.8475 169.92 
L 328.545 169.92 
L 329.2425 169.92 
L 329.94 169.92 
L 330.6375 169.92 
L 331.335 169.92 
L 332.0325 169.92 
L 332.73 169.92 
L 333.4275 169.92 
L 334.125 169.92 
L 334.8225 169.92 
L 335.52 169.92 
L 336.2175 169.92 
L 336.915 169.92 
L 337.6125 169.92 
L 338.31 169.92 
L 339.0075 169.92 
L 339.705 169.92 
L 340.4025 169.92 
L 341.1 169.92 
L 341.7975 169.92 
L 342.495 169.92 
L 343.1925 169.92 
L 343.89 169.92 
L 344.5875 169.92 
L 345.285 169.92 
L 345.9825 169.92 
L 346.68 169.92 
L 347.3775 169.92 
L 348.075 169.92 
L 348.7725 169.92 
L 349.47 169.92 
L 350.1675 169.92 
L 350.865 169.92 
L 351.5625 169.92 
L 352.26 169.92 
L 352.9575 169.92 
L 353.655 169.92 
L 354.3525 169.92 
L 355.05 169.92 
L 355.7475 169.92 
L 356.445 169.92 
L 357.1425 169.92 
L 357.84 169.92 
L 358.5375 169.92 
L 359.235 169.92 
L 359.9325 169.92 
L 360.63 169.92 
L 361.3275 169.92 
L 362.025 169.92 
L 362.7225 169.92 
L 363.42 169.92 
L 364.1175 169.92 
L 364.815 169.92 
L 365.5125 169.92 
L 366.21 169.92 
L 366.9075 169.92 
L 367.605 169.92 
L 368.3025 169.92 
L 369 169.92 
L 369.6975 169.92 
L 370.395 169.92 
L 371.0925 169.92 
L 371.79 169.92 
L 372.4875 169.92 
L 373.185 169.92 
L 373.8825 169.92 
L 374.58 169.92 
L 375.2775 169.92 
L 375.975 169.92 
L 376.6725 169.92 
L 377.37 169.92 
L 378.0675 169.92 
L 378.765 169.92 
L 379.4625 169.92 
L 380.16 169.92 
L 380.8575 169.92 
L 381.555 169.92 
L 382.2525 169.92 
L 382.95 169.92 
L 383.6475 169.92 
L 384.345 169.92 
L 385.0425 169.92 
L 385.74 169.92 
L 386.4375 169.92 
L 387.135 169.92 
L 387.8325 169.92 
L 388.53 169.92 
L 389.2275 169.92 
L 389.925 169.92 
L 390.6225 169.92 
L 391.32 169.92 
L 392.0175 169.92 
L 392.715 169.92 
L 393.4125 169.92 
L 394.11 169.92 
L 394.8075 169.92 
L 395.505 169.92 
L 396.2025 169.92 
L 396.9 169.92 
L 397.5975 169.92 
L 398.295 169.92 
L 398.9925 169.92 
L 399.69 169.92 
L 400.3875 169.92 
L 401.085 169.92 
L 401.7825 169.92 
L 402.48 169.92 
L 403.1775 169.92 
L 403.875 169.92 
L 404.5725 169.92 
L 405.27 169.92 
L 405.9675 169.92 
L 406.665 169.92 
L 407.3625 169.92 
L 408.06 169.92 
L 408.7575 169.92 
L 409.455 169.92 
L 410.1525 169.92 
L 410.85 169.92 
L 411.5475 169.92 
L 412.245 169.92 
L 412.9425 169.92 
L 413.64 169.92 
L 414.3375 169.92 
L 415.035 169.92 
L 415.7325 169.92 
L 416.43 169.92 
L 417.1275 169.92 
L 417.825 169.92 
L 418.5225 169.92 
L 419.22 169.92 
L 419.9175 169.92 
L 420.615 169.92 
L 421.3125 169.92 
L 422.01 169.92 
L 422.7075 169.92 
L 423.405 169.92 
L 424.1025 169.92 
L 424.8 169.92 
L 425.4975 169.92 
L 426.195 169.92 
L 426.8925 169.92 
L 427.59 169.92 
L 428.2875 169.92 
L 428.985 169.92 
L 429.6825 169.92 
L 430.38 169.92 
L 431.0775 169.92 
L 431.775 169.92 
L 432.4725 169.92 
L 433.17 169.92 
L 433.8675 169.92 
L 434.565 169.92 
L 435.2625 169.92 
L 435.96 169.92 
L 436.6575 169.92 
L 437.355 169.92 
L 438.0525 169.92 
L 438.75 169.92 
L 439.4475 169.92 
L 440.145 169.92 
L 440.8425 169.92 
L 441.54 169.92 
L 442.2375 169.92 
L 442.935 169.92 
L 443.6325 169.92 
L 444.33 169.92 
L 445.0275 169.92 
L 445.725 169.92 
L 446.4225 169.92 
L 447.12 169.92 
L 447.8175 169.92 
L 448.515 169.92 
L 449.2125 169.92 
L 449.91 169.92 
L 450.6075 169.92 
L 451.305 169.92 
L 452.0025 169.92 
L 452.7 169.92 
L 453.3975 169.92 
L 454.095 169.92 
L 454.7925 169.92 
L 455.49 169.92 
L 456.1875 169.92 
L 456.885 169.92 
L 457.5825 169.92 
L 458.28 169.92 
L 458.9775 169.92 
L 459.675 169.92 
L 460.3725 169.92 
L 461.07 169.92 
L 461.7675 169.92 
L 462.465 169.92 
L 463.1625 169.92 
L 463.86 169.92 
L 464.5575 169.92 
L 465.255 169.92 
L 465.9525 169.92 
L 466.65 169.92 
L 467.3475 169.92 
L 468.045 169.92 
L 468.7425 169.92 
L 469.44 169.92 
L 470.1375 169.92 
L 470.835 169.92 
L 471.5325 169.92 
L 472.23 169.92 
L 472.9275 169.92 
L 473.625 169.92 
L 474.3225 169.92 
L 475.02 169.92 
L 475.7175 169.92 
L 476.415 169.92 
L 477.1125 169.92 
L 477.81 169.92 
L 478.5075 169.92 
L 479.205 169.92 
L 479.9025 169.92 
L 480.6 169.92 
L 481.2975 169.92 
L 481.995 169.92 
L 482.6925 169.92 
L 483.39 169.92 
L 484.0875 169.92 
L 484.785 169.92 
L 485.4825 169.92 
L 486.18 169.92 
L 486.8775 169.92 
L 487.575 169.92 
L 488.2725 169.92 
L 488.97 169.92 
L 489.6675 169.92 
L 490.365 169.92 
L 491.0625 169.92 
L 491.76 169.92 
L 492.4575 169.92 
L 493.155 169.92 
L 493.8525 169.92 
L 494.55 169.92 
L 495.2475 169.92 
L 495.945 169.92 
L 496.6425 169.92 
L 497.34 169.92 
L 498.0375 169.92 
L 498.735 169.92 
L 499.4325 169.92 
L 500.13 169.92 
L 500.8275 169.92 
L 501.525 169.92 
L 502.2225 169.92 
L 502.92 169.92 
L 503.6175 169.92 
L 504.315 169.92 
L 505.0125 169.92 
L 505.71 169.92 
L 506.4075 169.92 
L 507.105 169.92 
L 507.8025 169.92 
L 508.5 169.92 
L 509.1975 169.92 
L 509.895 169.92 
L 510.5925 169.92 
L 511.29 169.92 
L 511.9875 169.92 
L 512.685 169.92 
L 513.3825 169.92 
L 514.08 169.92 
L 514.7775 169.92 
L 515.475 169.92 
L 516.1725 169.92 
L 516.87 169.92 
L 517.5675 169.92 
L 518.265 169.92 
L 518.9625 169.92 
L 519.66 169.92 
L 520.3575 169.92 
L 521.055 169.92 
L 521.7525 169.92 
L 522.45 169.92 
L 523.1475 169.92 
L 523.845 169.92 
L 524.5425 169.92 
L 525.24 169.92 
L 525.9375 169.92 
L 526.635 169.92 
L 527.3325 169.92 
L 528.03 169.92 
L 528.7275 169.92 
L 529.425 169.92 
L 530.1225 169.92 
L 530.82 169.92 
L 531.5175 169.92 
L 532.215 169.92 
L 532.9125 169.92 
L 533.61 169.92 
L 534.3075 169.92 
L 535.005 169.92 
L 535.7025 169.92 
L 536.4 169.92 
L 537.0975 169.92 
L 537.795 169.92 
L 538.4925 169.92 
L 539.19 169.92 
L 539.8875 169.92 
L 540.585 169.92 
L 541.2825 169.92 
L 541.98 169.92 
L 542.6775 169.92 
L 543.375 169.92 
L 544.0725 169.92 
L 544.77 169.92 
L 545.4675 169.92 
L 546.165 169.92 
L 546.8625 169.92 
L 547.56 169.92 
L 548.2575 169.92 
L 548.955 169.92 
L 549.6525 169.92 
L 550.35 169.92 
L 551.0475 169.92 
L 551.745 169.92 
L 552.4425 169.92 
L 553.14 169.92 
L 553.8375 169.92 
L 554.535 169.92 
L 555.2325 169.92 
L 555.93 169.92 
L 556.6275 169.92 
L 557.325 169.92 
L 558.0225 169.92 
L 558.72 169.92 
L 559.4175 169.92 
L 560.115 169.92 
L 560.8125 169.92 
L 561.51 169.92 
L 562.2075 169.92 
L 562.905 169.92 
L 563.6025 169.92 
L 564.3 169.92 
L 564.9975 169.92 
L 565.695 169.92 
L 566.3925 169.92 
L 567.09 169.92 
L 567.7875 169.92 
L 568.485 169.92 
L 569.1825 169.92 
L 569.88 169.92 
L 570.5775 169.92 
L 571.275 169.92 
L 571.9725 169.92 
L 572.67 169.92 
L 573.3675 169.92 
L 574.065 169.92 
L 574.7625 169.92 
L 575.46 169.92 
L 576.1575 169.92 
L 576.855 169.92 
L 577.5525 169.92 
L 578.25 169.92 
L 578.9475 169.92 
L 579.645 169.92 
L 580.3425 169.92 
L 581.04 169.92 
L 581.7375 169.92 
L 582.435 169.92 
L 583.1325 169.92 
L 583.83 169.92 
L 584.5275 169.92 
L 585.225 169.92 
L 585.9225 169.92 
L 586.62 169.92 
L 587.3175 169.92 
L 588.015 169.92 
L 588.7125 169.92 
L 589.41 169.92 
L 590.1075 169.92 
L 590.805 169.92 
L 591.5025 169.92 
L 592.2 169.92 
L 592.8975 169.92 
L 593.595 169.92 
L 594.2925 169.92 
L 594.99 169.92 
L 595.6875 169.92 
L 596.385 169.92 
L 597.0825 169.92 
L 597.78 169.92 
L 598.4775 169.92 
L 599.175 169.92 
L 599.8725 169.92 
L 600.57 169.92 
L 601.2675 169.92 
L 601.965 169.92 
L 602.6625 169.92 
L 603.36 169.92 
L 604.0575 169.92 
L 604.755 169.92 
L 605.4525 169.92 
L 606.15 169.92 
L 606.8475 169.92 
L 607.545 169.92 
L 608.2425 169.92 
L 608.94 169.92 
L 609.6375 169.92 
L 610.335 169.92 
L 611.0325 169.92 
L 611.73 169.92 
L 612.4275 169.92 
L 613.125 169.92 
L 613.8225 169.92 
L 614.52 169.92 
L 615.2175 169.92 
L 615.915 169.92 
L 616.6125 169.92 
L 617.31 169.92 
L 618.0075 169.92 
L 618.705 169.92 
L 619.4025 169.92 
L 620.1 169.92 
L 620.7975 169.92 
L 621.495 169.92 
L 622.1925 169.92 
L 622.89 169.92 
L 623.5875 169.92 
L 624.285 169.92 
L 624.9825 169.92 
L 625.68 169.92 
L 626.3775 169.92 
L 627.075 169.92 
L 627.7725 169.92 
L 628.47 169.92 
L 629.1675 169.92 
L 629.865 169.92 
L 630.5625 169.92 
L 631.26 169.92 
L 631.9575 169.92 
L 632.655 169.92 
L 633.3525 169.92 
L 634.05 169.92 
L 634.7475 169.92 
L 635.445 169.92 
L 636.1425 169.92 
L 636.84 169.92 
L 637.5375 169.92 
L 638.235 169.92 
L 638.9325 169.92 
L 639.63 169.92 
L 640.3275 169.92 
L 641.025 169.92 
L 641.7225 169.92 
L 642.42 169.92 
L 643.1175 169.92 
L 643.815 169.92 
L 644.5125 169.92 
L 645.21 169.92 
L 645.9075 169.92 
L 646.605 169.92 
L 646.605 169.92 
L 646.605 169.92 
L 645.9075 169.978271 
L 645.21 170.133013 
L 644.5125 170.33071 
L 643.815 170.575643 
L 643.1175 170.87804 
L 642.42 171.208645 
L 641.7225 171.557311 
L 641.025 171.965488 
L 640.3275 172.402745 
L 639.63 172.857751 
L 638.9325 173.357826 
L 638.235 173.858569 
L 637.5375 174.380317 
L 636.84 174.904327 
L 636.1425 175.431253 
L 635.445 175.955244 
L 634.7475 176.464006 
L 634.05 176.93894 
L 633.3525 177.368297 
L 632.655 177.786156 
L 631.9575 178.161977 
L 631.26 178.504537 
L 630.5625 178.816506 
L 629.865 179.100893 
L 629.1675 179.315693 
L 628.47 179.490893 
L 627.7725 179.618073 
L 627.075 179.715245 
L 626.3775 179.742481 
L 625.68 179.725377 
L 624.9825 179.651175 
L 624.285 179.507749 
L 623.5875 179.342014 
L 622.89 179.116963 
L 622.1925 178.854519 
L 621.495 178.551123 
L 620.7975 178.197194 
L 620.1 177.77724 
L 619.4025 177.341246 
L 618.705 176.861681 
L 618.0075 176.356821 
L 617.31 175.812849 
L 616.6125 175.229331 
L 615.915 174.64512 
L 615.2175 174.034332 
L 614.52 173.410224 
L 613.8225 172.799151 
L 613.125 172.194951 
L 612.4275 171.591384 
L 611.73 171.001628 
L 611.0325 170.464605 
L 610.335 169.966856 
L 609.6375 169.494485 
L 608.94 169.072161 
L 608.2425 168.691625 
L 607.545 168.344155 
L 606.8475 168.065982 
L 606.15 167.853721 
L 605.4525 167.69678 
L 604.755 167.55158 
L 604.0575 167.478004 
L 603.36 167.425074 
L 602.6625 167.42575 
L 601.965 167.454126 
L 601.2675 167.522837 
L 600.57 167.624644 
L 599.8725 167.751942 
L 599.175 167.916267 
L 598.4775 168.076947 
L 597.78 168.283993 
L 597.0825 168.48331 
L 596.385 168.698582 
L 595.6875 168.91447 
L 594.99 169.128575 
L 594.2925 169.357945 
L 593.595 169.567658 
L 592.8975 169.77481 
L 592.2 169.957676 
L 591.5025 170.094802 
L 590.805 170.223513 
L 590.1075 170.335903 
L 589.41 170.417776 
L 588.7125 170.455274 
L 588.015 170.473879 
L 587.3175 170.479857 
L 586.62 170.447246 
L 585.9225 170.376406 
L 585.225 170.248701 
L 584.5275 170.078499 
L 583.83 169.880638 
L 583.1325 169.670266 
L 582.435 169.443243 
L 581.7375 169.189142 
L 581.04 168.910785 
L 580.3425 168.611264 
L 579.645 168.27448 
L 578.9475 167.923599 
L 578.25 167.543092 
L 577.5525 167.137186 
L 576.855 166.742762 
L 576.1575 166.325352 
L 575.46 165.934914 
L 574.7625 165.517513 
L 574.065 165.090733 
L 573.3675 164.672264 
L 572.67 164.247329 
L 571.9725 163.865969 
L 571.275 163.500046 
L 570.5775 163.147151 
L 569.88 162.804726 
L 569.1825 162.508949 
L 568.485 162.224257 
L 567.7875 161.953811 
L 567.09 161.739461 
L 566.3925 161.557691 
L 565.695 161.410519 
L 564.9975 161.312529 
L 564.3 161.284232 
L 563.6025 161.300044 
L 562.905 161.346841 
L 562.2075 161.46295 
L 561.51 161.621184 
L 560.8125 161.832735 
L 560.115 162.101727 
L 559.4175 162.418698 
L 558.72 162.793079 
L 558.0225 163.194812 
L 557.325 163.651809 
L 556.6275 164.120148 
L 555.93 164.633474 
L 555.2325 165.147239 
L 554.535 165.681636 
L 553.8375 166.237205 
L 553.14 166.781878 
L 552.4425 167.354926 
L 551.745 167.898191 
L 551.0475 168.45096 
L 550.35 168.974722 
L 549.6525 169.502508 
L 548.955 169.996082 
L 548.2575 170.437016 
L 547.56 170.852784 
L 546.8625 171.238769 
L 546.165 171.58421 
L 545.4675 171.872322 
L 544.77 172.112854 
L 544.0725 172.296661 
L 543.375 172.428175 
L 542.6775 172.499461 
L 541.98 172.5421 
L 541.2825 172.510298 
L 540.585 172.430306 
L 539.8875 172.303011 
L 539.19 172.123353 
L 538.4925 171.919225 
L 537.795 171.679946 
L 537.0975 171.414647 
L 536.4 171.126274 
L 535.7025 170.824505 
L 535.005 170.493267 
L 534.3075 170.168612 
L 533.61 169.815297 
L 532.9125 169.476095 
L 532.215 169.122399 
L 531.5175 168.790509 
L 530.82 168.477638 
L 530.1225 168.180785 
L 529.425 167.929146 
L 528.7275 167.686667 
L 528.03 167.48194 
L 527.3325 167.310763 
L 526.635 167.168564 
L 525.9375 167.050447 
L 525.24 166.970672 
L 524.5425 166.923652 
L 523.845 166.916382 
L 523.1475 166.955419 
L 522.45 167.01443 
L 521.7525 167.10571 
L 521.055 167.215295 
L 520.3575 167.354917 
L 519.66 167.529501 
L 518.9625 167.730633 
L 518.265 167.949604 
L 517.5675 168.209882 
L 516.87 168.495626 
L 516.1725 168.790715 
L 515.475 169.117768 
L 514.7775 169.46668 
L 514.08 169.833575 
L 513.3825 170.214379 
L 512.685 170.591914 
L 511.9875 170.955512 
L 511.29 171.30761 
L 510.5925 171.657247 
L 509.895 172.013489 
L 509.1975 172.352956 
L 508.5 172.691301 
L 507.8025 172.992395 
L 507.105 173.298215 
L 506.4075 173.579467 
L 505.71 173.839502 
L 505.0125 174.056009 
L 504.315 174.25248 
L 503.6175 174.426735 
L 502.92 174.557413 
L 502.2225 174.681913 
L 501.525 174.766477 
L 500.8275 174.823116 
L 500.13 174.831777 
L 499.4325 174.798839 
L 498.735 174.744092 
L 498.0375 174.661667 
L 497.34 174.552482 
L 496.6425 174.411273 
L 495.945 174.252559 
L 495.2475 174.078101 
L 494.55 173.902787 
L 493.8525 173.689716 
L 493.155 173.473627 
L 492.4575 173.218073 
L 491.76 172.964739 
L 491.0625 172.697014 
L 490.365 172.417873 
L 489.6675 172.12394 
L 488.97 171.831429 
L 488.2725 171.53064 
L 487.575 171.231387 
L 486.8775 170.962892 
L 486.18 170.715188 
L 485.4825 170.478076 
L 484.785 170.25419 
L 484.0875 170.06544 
L 483.39 169.900973 
L 482.6925 169.749666 
L 481.995 169.6132 
L 481.2975 169.50604 
L 480.6 169.416426 
L 479.9025 169.351827 
L 479.205 169.306488 
L 478.5075 169.293861 
L 477.81 169.294661 
L 477.1125 169.32183 
L 476.415 169.362117 
L 475.7175 169.440972 
L 475.02 169.525147 
L 474.3225 169.620181 
L 473.625 169.72502 
L 472.9275 169.832024 
L 472.23 169.940005 
L 471.5325 170.047764 
L 470.835 170.186477 
L 470.1375 170.32223 
L 469.44 170.459991 
L 468.7425 170.611179 
L 468.045 170.767639 
L 467.3475 170.914686 
L 466.65 171.063636 
L 465.9525 171.225783 
L 465.255 171.399326 
L 464.5575 171.562915 
L 463.86 171.714733 
L 463.1625 171.872518 
L 462.465 172.008618 
L 461.7675 172.166845 
L 461.07 172.300119 
L 460.3725 172.413435 
L 459.675 172.505534 
L 458.9775 172.56892 
L 458.28 172.589938 
L 457.5825 172.607203 
L 456.885 172.607574 
L 456.1875 172.571623 
L 455.49 172.506224 
L 454.7925 172.444477 
L 454.095 172.354693 
L 453.3975 172.25082 
L 452.7 172.13401 
L 452.0025 172.012036 
L 451.305 171.879778 
L 450.6075 171.738704 
L 449.91 171.596856 
L 449.2125 171.449334 
L 448.515 171.304252 
L 447.8175 171.156746 
L 447.12 170.995505 
L 446.4225 170.835269 
L 445.725 170.684291 
L 445.0275 170.537775 
L 444.33 170.416771 
L 443.6325 170.296725 
L 442.935 170.178969 
L 442.2375 170.058337 
L 441.54 169.962067 
L 440.8425 169.871805 
L 440.145 169.807975 
L 439.4475 169.751865 
L 438.75 169.729994 
L 438.0525 169.710234 
L 437.355 169.705752 
L 436.6575 169.716598 
L 435.96 169.729704 
L 435.2625 169.757872 
L 434.565 169.794315 
L 433.8675 169.845103 
L 433.17 169.896722 
L 432.4725 169.96155 
L 431.775 170.025915 
L 431.0775 170.089105 
L 430.38 170.150416 
L 429.6825 170.215644 
L 428.985 170.277587 
L 428.2875 170.33556 
L 427.59 170.382443 
L 426.8925 170.42419 
L 426.195 170.466813 
L 425.4975 170.503363 
L 424.8 170.533434 
L 424.1025 170.563167 
L 423.405 170.579283 
L 422.7075 170.6075 
L 422.01 170.615134 
L 421.3125 170.615047 
L 420.615 170.607242 
L 419.9175 170.58533 
L 419.22 170.549554 
L 418.5225 170.500312 
L 417.825 170.4511 
L 417.1275 170.389515 
L 416.43 170.322716 
L 415.7325 170.24497 
L 415.035 170.144192 
L 414.3375 170.047398 
L 413.64 169.949189 
L 412.9425 169.837707 
L 412.245 169.740088 
L 411.5475 169.637993 
L 410.85 169.519606 
L 410.1525 169.399191 
L 409.455 169.278085 
L 408.7575 169.157634 
L 408.06 169.0327 
L 407.3625 168.898196 
L 406.665 168.775041 
L 405.9675 168.632228 
L 405.27 168.490767 
L 404.5725 168.339282 
L 403.875 168.198876 
L 403.1775 168.064635 
L 402.48 167.925102 
L 401.7825 167.801248 
L 401.085 167.668552 
L 400.3875 167.541436 
L 399.69 167.427787 
L 398.9925 167.309442 
L 398.295 167.194191 
L 397.5975 167.102738 
L 396.9 167.023148 
L 396.2025 166.962781 
L 395.505 166.909357 
L 394.8075 166.869945 
L 394.11 166.844982 
L 393.4125 166.808848 
L 392.715 166.787841 
L 392.0175 166.782195 
L 391.32 166.779024 
L 390.6225 166.80426 
L 389.925 166.818778 
L 389.2275 166.841838 
L 388.53 166.892609 
L 387.8325 166.951102 
L 387.135 167.01667 
L 386.4375 167.108005 
L 385.74 167.198198 
L 385.0425 167.286244 
L 384.345 167.384117 
L 383.6475 167.490729 
L 382.95 167.591947 
L 382.2525 167.680172 
L 381.555 167.760899 
L 380.8575 167.839706 
L 380.16 167.909243 
L 379.4625 167.968739 
L 378.765 168.011057 
L 378.0675 168.029254 
L 377.37 168.04255 
L 376.6725 168.031375 
L 375.975 168.008802 
L 375.2775 167.981555 
L 374.58 167.936989 
L 373.8825 167.882073 
L 373.185 167.810942 
L 372.4875 167.730861 
L 371.79 167.642719 
L 371.0925 167.541021 
L 370.395 167.426895 
L 369.6975 167.30161 
L 369 167.18598 
L 368.3025 167.048917 
L 367.605 166.930789 
L 366.9075 166.807012 
L 366.21 166.678959 
L 365.5125 166.554528 
L 364.815 166.435099 
L 364.1175 166.309051 
L 363.42 166.190732 
L 362.7225 166.081456 
L 362.025 165.982437 
L 361.3275 165.894775 
L 360.63 165.832391 
L 359.9325 165.776556 
L 359.235 165.734364 
L 358.5375 165.712758 
L 357.84 165.68608 
L 357.1425 165.680524 
L 356.445 165.676728 
L 355.7475 165.687684 
L 355.05 165.706795 
L 354.3525 165.7209 
L 353.655 165.742792 
L 352.9575 165.765753 
L 352.26 165.802476 
L 351.5625 165.859029 
L 350.865 165.91536 
L 350.1675 165.977318 
L 349.47 166.044215 
L 348.7725 166.115307 
L 348.075 166.196281 
L 347.3775 166.286236 
L 346.68 166.390648 
L 345.9825 166.501883 
L 345.285 166.612231 
L 344.5875 166.726942 
L 343.89 166.851215 
L 343.1925 166.970722 
L 342.495 167.09061 
L 341.7975 167.209548 
L 341.1 167.319739 
L 340.4025 167.43291 
L 339.705 167.547804 
L 339.0075 167.656669 
L 338.31 167.764772 
L 337.6125 167.864438 
L 336.915 167.967509 
L 336.2175 168.072839 
L 335.52 168.166311 
L 334.8225 168.246886 
L 334.125 168.313669 
L 333.4275 168.372393 
L 332.73 168.415932 
L 332.0325 168.437327 
L 331.335 168.449291 
L 330.6375 168.445214 
L 329.94 168.412195 
L 329.2425 168.363547 
L 328.545 168.319237 
L 327.8475 168.247381 
L 327.15 168.174678 
L 326.4525 168.088985 
L 325.755 167.98478 
L 325.0575 167.869693 
L 324.36 167.745004 
L 323.6625 167.612097 
L 322.965 167.472448 
L 322.2675 167.327608 
L 321.57 167.18566 
L 320.8725 167.054655 
L 320.175 166.923099 
L 319.4775 166.798927 
L 318.78 166.683518 
L 318.0825 166.57168 
L 317.385 166.471129 
L 316.6875 166.389457 
L 315.99 166.321095 
L 315.2925 166.273278 
L 314.595 166.246536 
L 313.8975 166.254116 
L 313.2 166.27651 
L 312.5025 166.306994 
L 311.805 166.345231 
L 311.1075 166.390795 
L 310.41 166.449655 
L 309.7125 166.527631 
L 309.015 166.617384 
L 308.3175 166.724391 
L 307.62 166.834515 
L 306.9225 166.959481 
L 306.225 167.091428 
L 305.5275 167.248313 
L 304.83 167.428395 
L 304.1325 167.616723 
L 303.435 167.817682 
L 302.7375 168.035514 
L 302.04 168.254851 
L 301.3425 168.479732 
L 300.645 168.707658 
L 299.9475 168.936099 
L 299.25 169.162518 
L 298.5525 169.3844 
L 297.855 169.599281 
L 297.1575 169.817724 
L 296.46 170.030829 
L 295.7625 170.236228 
L 295.065 170.425166 
L 294.3675 170.602019 
L 293.67 170.764824 
L 292.9725 170.911771 
L 292.275 171.047705 
L 291.5775 171.158165 
L 290.88 171.254875 
L 290.1825 171.323811 
L 289.485 171.377157 
L 288.7875 171.407846 
L 288.09 171.415536 
L 287.3925 171.406618 
L 286.695 171.374715 
L 285.9975 171.326657 
L 285.3 171.250028 
L 284.6025 171.165103 
L 283.905 171.06635 
L 283.2075 170.954866 
L 282.51 170.831889 
L 281.8125 170.698785 
L 281.115 170.557032 
L 280.4175 170.408205 
L 279.72 170.26043 
L 279.0225 170.108875 
L 278.325 169.955221 
L 277.6275 169.807652 
L 276.93 169.667804 
L 276.2325 169.530758 
L 275.535 169.404508 
L 274.8375 169.290459 
L 274.14 169.196349 
L 273.4425 169.116751 
L 272.745 169.046073 
L 272.0475 168.99805 
L 271.35 168.960266 
L 270.6525 168.939615 
L 269.955 168.936326 
L 269.2575 168.943961 
L 268.56 168.975386 
L 267.8625 169.030249 
L 267.165 169.114418 
L 266.4675 169.214007 
L 265.77 169.334387 
L 265.0725 169.474218 
L 264.375 169.625476 
L 263.6775 169.799427 
L 262.98 169.981192 
L 262.2825 170.162278 
L 261.585 170.353622 
L 260.8875 170.546625 
L 260.19 170.745618 
L 259.4925 170.948391 
L 258.795 171.152692 
L 258.0975 171.356252 
L 257.4 171.556811 
L 256.7025 171.752141 
L 256.005 171.940073 
L 255.3075 172.124995 
L 254.61 172.291903 
L 253.9125 172.445419 
L 253.215 172.577362 
L 252.5175 172.692744 
L 251.82 172.783806 
L 251.1225 172.849539 
L 250.425 172.895687 
L 249.7275 172.921736 
L 249.03 172.927399 
L 248.3325 172.912611 
L 247.635 172.877538 
L 246.9375 172.822568 
L 246.24 172.735364 
L 245.5425 172.629842 
L 244.845 172.5007 
L 244.1475 172.362322 
L 243.45 172.203294 
L 242.7525 172.031858 
L 242.055 171.843443 
L 241.3575 171.633667 
L 240.66 171.417809 
L 239.9625 171.191791 
L 239.265 170.958123 
L 238.5675 170.712927 
L 237.87 170.458925 
L 237.1725 170.205412 
L 236.475 169.955203 
L 235.7775 169.704604 
L 235.08 169.462872 
L 234.3825 169.232691 
L 233.685 169.016617 
L 232.9875 168.810576 
L 232.29 168.616856 
L 231.5925 168.450557 
L 230.895 168.307052 
L 230.1975 168.18146 
L 229.5 168.081649 
L 228.8025 167.995781 
L 228.105 167.937756 
L 227.4075 167.901746 
L 226.71 167.88815 
L 226.0125 167.903593 
L 225.315 167.941429 
L 224.6175 168.001239 
L 223.92 168.082358 
L 223.2225 168.183886 
L 222.525 168.304694 
L 221.8275 168.44344 
L 221.13 168.598586 
L 220.4325 168.761931 
L 219.735 168.938138 
L 219.0375 169.118774 
L 218.34 169.308309 
L 217.6425 169.504637 
L 216.945 169.705577 
L 216.2475 169.908899 
L 215.55 170.112345 
L 214.8525 170.313654 
L 214.155 170.510591 
L 213.4575 170.707444 
L 212.76 170.895552 
L 212.0625 171.072826 
L 211.365 171.243771 
L 210.6675 171.400015 
L 209.97 171.539823 
L 209.2725 171.661641 
L 208.575 171.764118 
L 207.8775 171.846114 
L 207.18 171.90672 
L 206.4825 171.945261 
L 205.785 171.961311 
L 205.0875 171.954691 
L 204.39 171.925474 
L 203.6925 171.873986 
L 202.995 171.800797 
L 202.2975 171.719669 
L 201.6 171.618555 
L 200.9025 171.498578 
L 200.205 171.361069 
L 199.5075 171.207557 
L 198.81 171.039745 
L 198.1125 170.865972 
L 197.415 170.681694 
L 196.7175 170.488957 
L 196.02 170.289901 
L 195.3225 170.086737 
L 194.625 169.881721 
L 193.9275 169.67713 
L 193.23 169.475237 
L 192.5325 169.278283 
L 191.835 169.088455 
L 191.1375 168.907863 
L 190.44 168.738511 
L 189.7425 168.58228 
L 189.045 168.440905 
L 188.3475 168.315957 
L 187.65 168.208823 
L 186.9525 168.120692 
L 186.255 168.052544 
L 185.5575 168.005135 
L 184.86 167.978992 
L 184.1625 167.974405 
L 183.465 167.991425 
L 182.7675 168.029863 
L 182.07 168.089292 
L 181.3725 168.169053 
L 180.675 168.268259 
L 179.9775 168.385809 
L 179.28 168.520396 
L 178.5825 168.670528 
L 177.885 168.834535 
L 177.1875 169.010597 
L 176.49 169.196759 
L 175.7925 169.390953 
L 175.095 169.591022 
L 174.3975 169.794745 
L 173.7 169.999858 
L 173.0025 170.204085 
L 172.305 170.405157 
L 171.6075 170.600841 
L 170.91 170.788964 
L 170.2125 170.967436 
L 169.515 171.134276 
L 168.8175 171.287631 
L 168.12 171.425797 
L 167.4225 171.540766 
L 166.725 171.637735 
L 166.0275 171.715628 
L 165.33 171.773579 
L 164.6325 171.810944 
L 163.935 171.82731 
L 163.2375 171.822494 
L 162.54 171.796549 
L 161.8425 171.74329 
L 161.145 171.669781 
L 160.4475 171.576841 
L 159.75 171.4655 
L 159.0525 171.336995 
L 158.355 171.192754 
L 157.6575 171.034377 
L 156.96 170.863625 
L 156.2625 170.682394 
L 155.565 170.492695 
L 154.8675 170.296637 
L 154.17 170.096395 
L 153.4725 169.894195 
L 152.775 169.692281 
L 152.0775 169.486422 
L 151.38 169.285378 
L 150.6825 169.084907 
L 149.985 168.89371 
L 149.2875 168.713911 
L 148.59 168.547507 
L 147.8925 168.396344 
L 147.195 168.262103 
L 146.4975 168.146274 
L 145.8 168.050144 
L 145.1025 167.974779 
L 144.405 167.921017 
L 143.7075 167.889455 
L 143.01 167.880444 
L 142.3125 167.894083 
L 141.615 167.930222 
L 140.9175 167.988458 
L 140.22 168.068145 
L 139.5225 168.161924 
L 138.825 168.275227 
L 138.1275 168.406797 
L 137.43 168.561646 
L 136.7325 168.73158 
L 136.035 168.914713 
L 135.3375 169.10901 
L 134.64 169.312314 
L 133.9425 169.52884 
L 133.245 169.749711 
L 132.5475 169.972474 
L 131.85 170.194653 
L 131.1525 170.413782 
L 130.455 170.627428 
L 129.7575 170.833217 
L 129.06 171.028864 
L 128.3625 171.212196 
L 127.665 171.381178 
L 126.9675 171.533933 
L 126.27 171.668763 
L 125.5725 171.784173 
L 124.875 171.87888 
L 124.1775 171.951832 
L 123.48 172.002219 
L 122.7825 172.029482 
L 122.085 172.033318 
L 121.3875 172.013684 
L 120.69 171.970798 
L 119.9925 171.905137 
L 119.295 171.81743 
L 118.5975 171.708651 
L 117.9 171.580007 
L 117.2025 171.432928 
L 116.505 171.269047 
L 115.8075 171.090184 
L 115.11 170.898325 
L 114.4125 170.695601 
L 113.715 170.484264 
L 113.0175 170.26666 
L 112.32 170.045207 
L 111.6225 169.822363 
L 110.925 169.600603 
L 110.2275 169.38239 
L 109.53 169.170148 
L 108.8325 168.966233 
L 108.135 168.772911 
L 107.4375 168.592328 
L 106.74 168.426489 
L 106.0425 168.277237 
L 105.345 168.146229 
L 104.6475 168.034919 
L 103.95 167.944545 
L 103.2525 167.876109 
L 102.555 167.830372 
L 101.8575 167.807842 
L 101.16 167.808769 
L 100.4625 167.833142 
L 99.765 167.880691 
L 99.0675 167.950888 
L 98.37 168.042953 
L 97.6725 168.155864 
L 96.975 168.288367 
L 96.2775 168.43899 
L 95.58 168.606061 
L 94.8825 168.794198 
L 94.185 168.994838 
L 93.4875 169.205753 
L 92.79 169.4246 
L 92.0925 169.648948 
L 91.395 169.876307 
L 90.6975 170.104151 
L 90 170.32995 
z
" style="fill:#e0ffff;"/>
   </g>
   <g id="line2d_15">
    <path clip-path="url(#pfa351f6470)" d="M 90 170.32995 
L 95.58 168.606061 
L 98.37 168.042953 
L 100.4625 167.833142 
L 102.555 167.830372 
L 104.6475 168.034919 
L 107.4375 168.592328 
L 110.925 169.600603 
L 116.505 171.269047 
L 119.295 171.81743 
L 121.3875 172.013684 
L 123.48 172.002219 
L 125.5725 171.784173 
L 128.3625 171.212196 
L 131.85 170.194653 
L 136.7325 168.73158 
L 139.5225 168.161924 
L 142.3125 167.894083 
L 144.405 167.921017 
L 146.4975 168.146274 
L 149.2875 168.713911 
L 153.4725 169.894195 
L 157.6575 171.034377 
L 160.4475 171.576841 
L 162.54 171.796549 
L 164.6325 171.810944 
L 166.725 171.637735 
L 168.8175 171.287631 
L 171.6075 170.600841 
L 179.28 168.520396 
L 182.07 168.089292 
L 184.1625 167.974405 
L 186.255 168.052544 
L 188.3475 168.315957 
L 191.1375 168.907863 
L 195.3225 170.086737 
L 199.5075 171.207557 
L 202.2975 171.719669 
L 205.0875 171.954691 
L 207.18 171.90672 
L 209.2725 171.661641 
L 212.0625 171.072826 
L 216.2475 169.908899 
L 221.13 168.598586 
L 223.92 168.082358 
L 226.0125 167.903593 
L 228.105 167.937756 
L 230.1975 168.18146 
L 232.29 168.616856 
L 235.08 169.462872 
L 242.7525 172.031858 
L 245.5425 172.629842 
L 247.635 172.877538 
L 249.7275 172.921736 
L 251.82 172.783806 
L 253.9125 172.445419 
L 256.7025 171.752141 
L 265.0725 169.474218 
L 267.165 169.114418 
L 269.2575 168.943961 
L 272.0475 168.99805 
L 274.8375 169.290459 
L 278.325 169.955221 
L 283.2075 170.954866 
L 285.9975 171.326657 
L 288.7875 171.407846 
L 290.88 171.254875 
L 293.67 170.764824 
L 296.46 170.030829 
L 306.225 167.091428 
L 309.7125 166.527631 
L 312.5025 166.306994 
L 315.2925 166.273278 
L 318.0825 166.57168 
L 322.2675 167.327608 
L 326.4525 168.088985 
L 329.94 168.412195 
L 332.0325 168.437327 
L 334.8225 168.246886 
L 339.0075 167.656669 
L 350.865 165.91536 
L 354.3525 165.7209 
L 358.5375 165.712758 
L 361.3275 165.894775 
L 364.815 166.435099 
L 373.8825 167.882073 
L 376.6725 168.031375 
L 379.4625 167.968739 
L 382.95 167.591947 
L 388.53 166.892609 
L 391.32 166.779024 
L 394.8075 166.869945 
L 397.5975 167.102738 
L 401.085 167.668552 
L 413.64 169.949189 
L 417.825 170.4511 
L 421.3125 170.615047 
L 424.8 170.533434 
L 429.6825 170.215644 
L 435.96 169.729704 
L 439.4475 169.751865 
L 442.2375 170.058337 
L 447.12 170.995505 
L 452.0025 172.012036 
L 454.7925 172.444477 
L 457.5825 172.607203 
L 459.675 172.505534 
L 461.7675 172.166845 
L 471.5325 170.047764 
L 476.415 169.362117 
L 479.205 169.306488 
L 481.2975 169.50604 
L 483.39 169.900973 
L 485.4825 170.478076 
L 488.2725 171.53064 
L 492.4575 173.218073 
L 494.55 173.902787 
L 497.34 174.552482 
L 499.4325 174.798839 
L 500.8275 174.823116 
L 502.92 174.557413 
L 505.0125 174.056009 
L 507.105 173.298215 
L 510.5925 171.657247 
L 517.5675 168.209882 
L 519.66 167.529501 
L 521.7525 167.10571 
L 523.845 166.916382 
L 525.24 166.970672 
L 527.3325 167.310763 
L 529.425 167.929146 
L 531.5175 168.790509 
L 537.795 171.679946 
L 539.8875 172.303011 
L 541.2825 172.510298 
L 542.6775 172.499461 
L 544.0725 172.296661 
L 545.4675 171.872322 
L 546.8625 171.238769 
L 548.955 169.996082 
L 551.745 167.898191 
L 557.325 163.651809 
L 558.72 162.793079 
L 560.115 162.101727 
L 561.51 161.621184 
L 562.905 161.346841 
L 564.9975 161.312529 
L 566.3925 161.557691 
L 567.7875 161.953811 
L 570.5775 163.147151 
L 573.3675 164.672264 
L 578.9475 167.923599 
L 581.04 168.910785 
L 583.1325 169.670266 
L 585.225 170.248701 
L 586.62 170.447246 
L 588.7125 170.455274 
L 590.1075 170.335903 
L 592.8975 169.77481 
L 599.8725 167.751942 
L 601.965 167.454126 
L 604.0575 167.478004 
L 605.4525 167.69678 
L 606.8475 168.065982 
L 608.2425 168.691625 
L 609.6375 169.494485 
L 611.73 171.001628 
L 618.705 176.861681 
L 620.7975 178.197194 
L 622.1925 178.854519 
L 623.5875 179.342014 
L 625.68 179.725377 
L 627.075 179.715245 
L 629.1675 179.315693 
L 630.5625 178.816506 
L 632.655 177.786156 
L 634.7475 176.464006 
L 641.025 171.965488 
L 642.42 171.208645 
L 644.5125 170.33071 
L 645.9075 169.978271 
L 646.605 169.92 
L 646.605 169.92 
" style="fill:none;stroke:#008080;stroke-linecap:round;stroke-width:1.75;"/>
   </g>
   <g id="patch_3">
    <path d="M 90 270.72 
L 90 69.12 
" style="fill:none;stroke:#262626;stroke-linecap:square;stroke-linejoin:miter;stroke-width:1.25;"/>
   </g>
   <g id="patch_4">
    <path d="M 90 270.72 
L 648 270.72 
" style="fill:none;stroke:#262626;stroke-linecap:square;stroke-linejoin:miter;stroke-width:1.25;"/>
   </g>
  </g>
  <g id="axes_2">
   <g id="patch_5">
    <path d="M 90 512.64 
L 648 512.64 
L 648 311.04 
L 90 311.04 
z
" style="fill:#ffffff;"/>
   </g>
   <g id="matplotlib.axis_3">
    <g id="xtick_10">
     <g id="line2d_16">
      <g>
       <use style="fill:#262626;stroke:#262626;" x="191.454545" xlink:href="#m6b351a3d72" y="512.64"/>
      </g>
     </g>
     <g id="text_15">
      <!-- 200 -->
      <g style="fill:#262626;" transform="translate(183.113139 532.797812)scale(0.1 -0.1)">
       <use xlink:href="#ArialMT-32"/>
       <use x="55.615234" xlink:href="#ArialMT-30"/>
       <use x="111.230469" xlink:href="#ArialMT-30"/>
      </g>
     </g>
    </g>
    <g id="xtick_11">
     <g id="line2d_17">
      <g>
       <use style="fill:#262626;stroke:#262626;" x="304.181818" xlink:href="#m6b351a3d72" y="512.64"/>
      </g>
     </g>
     <g id="text_16">
      <!-- 400 -->
      <g style="fill:#262626;" transform="translate(295.840412 532.797812)scale(0.1 -0.1)">
       <use xlink:href="#ArialMT-34"/>
       <use x="55.615234" xlink:href="#ArialMT-30"/>
       <use x="111.230469" xlink:href="#ArialMT-30"/>
      </g>
     </g>
    </g>
    <g id="xtick_12">
     <g id="line2d_18">
      <g>
       <use style="fill:#262626;stroke:#262626;" x="416.909091" xlink:href="#m6b351a3d72" y="512.64"/>
      </g>
     </g>
     <g id="text_17">
      <!-- 600 -->
      <g style="fill:#262626;" transform="translate(408.567685 532.797812)scale(0.1 -0.1)">
       <use xlink:href="#ArialMT-36"/>
       <use x="55.615234" xlink:href="#ArialMT-30"/>
       <use x="111.230469" xlink:href="#ArialMT-30"/>
      </g>
     </g>
    </g>
    <g id="xtick_13">
     <g id="line2d_19">
      <g>
       <use style="fill:#262626;stroke:#262626;" x="529.636364" xlink:href="#m6b351a3d72" y="512.64"/>
      </g>
     </g>
     <g id="text_18">
      <!-- 800 -->
      <g style="fill:#262626;" transform="translate(521.294957 532.797812)scale(0.1 -0.1)">
       <use xlink:href="#ArialMT-38"/>
       <use x="55.615234" xlink:href="#ArialMT-30"/>
       <use x="111.230469" xlink:href="#ArialMT-30"/>
      </g>
     </g>
    </g>
    <g id="xtick_14">
     <g id="line2d_20">
      <g>
       <use style="fill:#262626;stroke:#262626;" x="642.363636" xlink:href="#m6b351a3d72" y="512.64"/>
      </g>
     </g>
     <g id="text_19">
      <!-- 1000 -->
      <g style="fill:#262626;" transform="translate(631.241761 532.797812)scale(0.1 -0.1)">
       <use xlink:href="#ArialMT-31"/>
       <use x="55.615234" xlink:href="#ArialMT-30"/>
       <use x="111.230469" xlink:href="#ArialMT-30"/>
       <use x="166.845703" xlink:href="#ArialMT-30"/>
      </g>
     </g>
    </g>
   </g>
   <g id="matplotlib.axis_4">
    <g id="ytick_6">
     <g id="line2d_21">
      <g>
       <use style="fill:#262626;stroke:#262626;" x="90" xlink:href="#m6d7c965b7f" y="512.64"/>
      </g>
     </g>
     <g id="text_20">
      <!-- 0 -->
      <g style="fill:#262626;" transform="translate(71.439063 516.218906)scale(0.1 -0.1)">
       <use xlink:href="#ArialMT-30"/>
      </g>
     </g>
    </g>
    <g id="ytick_7">
     <g id="line2d_22">
      <g>
       <use style="fill:#262626;stroke:#262626;" x="90" xlink:href="#m6d7c965b7f" y="490.24"/>
      </g>
     </g>
     <g id="text_21">
      <!-- 2 -->
      <g style="fill:#262626;" transform="translate(71.439063 493.818906)scale(0.1 -0.1)">
       <use xlink:href="#ArialMT-32"/>
      </g>
     </g>
    </g>
    <g id="ytick_8">
     <g id="line2d_23">
      <g>
       <use style="fill:#262626;stroke:#262626;" x="90" xlink:href="#m6d7c965b7f" y="467.84"/>
      </g>
     </g>
     <g id="text_22">
      <!-- 4 -->
      <g style="fill:#262626;" transform="translate(71.439063 471.418906)scale(0.1 -0.1)">
       <use xlink:href="#ArialMT-34"/>
      </g>
     </g>
    </g>
    <g id="ytick_9">
     <g id="line2d_24">
      <g>
       <use style="fill:#262626;stroke:#262626;" x="90" xlink:href="#m6d7c965b7f" y="445.44"/>
      </g>
     </g>
     <g id="text_23">
      <!-- 6 -->
      <g style="fill:#262626;" transform="translate(71.439063 449.018906)scale(0.1 -0.1)">
       <use xlink:href="#ArialMT-36"/>
      </g>
     </g>
    </g>
    <g id="ytick_10">
     <g id="line2d_25">
      <g>
       <use style="fill:#262626;stroke:#262626;" x="90" xlink:href="#m6d7c965b7f" y="423.04"/>
      </g>
     </g>
     <g id="text_24">
      <!-- 8 -->
      <g style="fill:#262626;" transform="translate(71.439063 426.618906)scale(0.1 -0.1)">
       <use xlink:href="#ArialMT-38"/>
      </g>
     </g>
    </g>
    <g id="ytick_11">
     <g id="line2d_26">
      <g>
       <use style="fill:#262626;stroke:#262626;" x="90" xlink:href="#m6d7c965b7f" y="400.64"/>
      </g>
     </g>
     <g id="text_25">
      <!-- 10 -->
      <g style="fill:#262626;" transform="translate(65.878125 404.218906)scale(0.1 -0.1)">
       <use xlink:href="#ArialMT-31"/>
       <use x="55.615234" xlink:href="#ArialMT-30"/>
      </g>
     </g>
    </g>
    <g id="ytick_12">
     <g id="line2d_27">
      <g>
       <use style="fill:#262626;stroke:#262626;" x="90" xlink:href="#m6d7c965b7f" y="378.24"/>
      </g>
     </g>
     <g id="text_26">
      <!-- 12 -->
      <g style="fill:#262626;" transform="translate(65.878125 381.818906)scale(0.1 -0.1)">
       <use xlink:href="#ArialMT-31"/>
       <use x="55.615234" xlink:href="#ArialMT-32"/>
      </g>
     </g>
    </g>
    <g id="ytick_13">
     <g id="line2d_28">
      <g>
       <use style="fill:#262626;stroke:#262626;" x="90" xlink:href="#m6d7c965b7f" y="355.84"/>
      </g>
     </g>
     <g id="text_27">
      <!-- 14 -->
      <g style="fill:#262626;" transform="translate(65.878125 359.418906)scale(0.1 -0.1)">
       <use xlink:href="#ArialMT-31"/>
       <use x="55.615234" xlink:href="#ArialMT-34"/>
      </g>
     </g>
    </g>
    <g id="ytick_14">
     <g id="line2d_29">
      <g>
       <use style="fill:#262626;stroke:#262626;" x="90" xlink:href="#m6d7c965b7f" y="333.44"/>
      </g>
     </g>
     <g id="text_28">
      <!-- 16 -->
      <g style="fill:#262626;" transform="translate(65.878125 337.018906)scale(0.1 -0.1)">
       <use xlink:href="#ArialMT-31"/>
       <use x="55.615234" xlink:href="#ArialMT-36"/>
      </g>
     </g>
    </g>
    <g id="ytick_15">
     <g id="line2d_30">
      <g>
       <use style="fill:#262626;stroke:#262626;" x="90" xlink:href="#m6d7c965b7f" y="311.04"/>
      </g>
     </g>
     <g id="text_29">
      <!-- 18 -->
      <g style="fill:#262626;" transform="translate(65.878125 314.618906)scale(0.1 -0.1)">
       <use xlink:href="#ArialMT-31"/>
       <use x="55.615234" xlink:href="#ArialMT-38"/>
      </g>
     </g>
    </g>
   </g>
   <g id="line2d_31">
    <path clip-path="url(#pa5df8a1789)" d="M 90 477.654723 
L 95.636364 452.736402 
L 101.272727 431.923589 
L 106.909091 427.92302 
L 112.545455 440.45326 
L 118.181818 444.705349 
L 123.818182 448.961059 
L 129.454545 457.370701 
L 135.090909 456.375715 
L 140.727273 434.868159 
L 146.363636 408.816951 
L 152 389.988216 
L 157.636364 371.492183 
L 163.272727 352.310178 
L 168.909091 342.280664 
L 174.545455 348.647566 
L 180.181818 355.802406 
L 185.818182 363.350788 
L 191.454545 378.270766 
L 197.090909 391.147889 
L 202.727273 394.129256 
L 208.363636 396.550705 
L 214 393.395457 
L 219.636364 389.651786 
L 225.272727 392.702199 
L 230.909091 396.085016 
L 236.545455 399.690878 
L 242.181818 407.737617 
L 247.818182 414.331388 
L 253.454545 417.809913 
L 259.090909 422.903097 
L 264.727273 426.347751 
L 270.363636 429.764905 
L 276 436.797845 
L 281.636364 444.59905 
L 287.272727 452.348689 
L 292.909091 461.235722 
L 298.545455 467.982454 
L 304.181818 471.144774 
L 309.818182 472.257688 
L 315.454545 471.707893 
L 321.090909 472.117482 
L 326.727273 473.818281 
L 332.363636 475.619312 
L 338 478.193498 
L 343.636364 480.655986 
L 349.272727 482.144164 
L 354.909091 483.974362 
L 360.545455 485.825198 
L 366.181818 487.914885 
L 371.818182 490.804554 
L 377.454545 493.872728 
L 383.090909 496.544264 
L 388.727273 498.469641 
L 394.363636 499.417825 
L 400 499.768128 
L 405.636364 498.821458 
L 411.272727 497.224183 
L 416.909091 494.909956 
L 422.545455 492.447818 
L 428.181818 490.656474 
L 433.818182 489.398754 
L 439.454545 488.863228 
L 445.090909 489.4762 
L 450.727273 490.947183 
L 456.363636 492.717187 
L 462 494.86505 
L 467.636364 496.940627 
L 473.272727 498.413462 
L 478.909091 499.664059 
L 484.545455 500.693175 
L 490.181818 501.817475 
L 495.818182 503.208137 
" style="fill:none;stroke:#b22222;stroke-linecap:round;stroke-width:1.75;"/>
   </g>
   <g id="line2d_32">
    <path clip-path="url(#pa5df8a1789)" d="M 152 512.64 
L 152 311.04 
" style="fill:none;stroke:#4c72b0;stroke-linecap:round;stroke-width:1.75;"/>
   </g>
   <g id="patch_6">
    <path d="M 90 512.64 
L 90 311.04 
" style="fill:none;stroke:#262626;stroke-linecap:square;stroke-linejoin:miter;stroke-width:1.25;"/>
   </g>
   <g id="patch_7">
    <path d="M 90 512.64 
L 648 512.64 
" style="fill:none;stroke:#262626;stroke-linecap:square;stroke-linejoin:miter;stroke-width:1.25;"/>
   </g>
   <g id="text_30">
    <!-- f = 740 Hz -->
    <defs>
     <path d="M 8.6875 0 
L 8.6875 45.015625 
L 0.921875 45.015625 
L 0.921875 51.859375 
L 8.6875 51.859375 
L 8.6875 57.375 
Q 8.6875 62.59375 9.625 65.140625 
Q 10.890625 68.5625 14.078125 70.671875 
Q 17.28125 72.796875 23.046875 72.796875 
Q 26.765625 72.796875 31.25 71.921875 
L 29.9375 64.265625 
Q 27.203125 64.75 24.75 64.75 
Q 20.75 64.75 19.09375 63.03125 
Q 17.4375 61.328125 17.4375 56.640625 
L 17.4375 51.859375 
L 27.546875 51.859375 
L 27.546875 45.015625 
L 17.4375 45.015625 
L 17.4375 0 
z
" id="ArialMT-66"/>
     <path id="ArialMT-20"/>
     <path d="M 52.828125 42.09375 
L 5.5625 42.09375 
L 5.5625 50.296875 
L 52.828125 50.296875 
z
M 52.828125 20.359375 
L 5.5625 20.359375 
L 5.5625 28.5625 
L 52.828125 28.5625 
z
" id="ArialMT-3d"/>
     <path d="M 8.015625 0 
L 8.015625 71.578125 
L 17.484375 71.578125 
L 17.484375 42.1875 
L 54.6875 42.1875 
L 54.6875 71.578125 
L 64.15625 71.578125 
L 64.15625 0 
L 54.6875 0 
L 54.6875 33.734375 
L 17.484375 33.734375 
L 17.484375 0 
z
" id="ArialMT-48"/>
     <path d="M 1.953125 0 
L 1.953125 7.125 
L 34.96875 45.015625 
Q 29.34375 44.734375 25.046875 44.734375 
L 3.90625 44.734375 
L 3.90625 51.859375 
L 46.296875 51.859375 
L 46.296875 46.046875 
L 18.21875 13.140625 
L 12.796875 7.125 
Q 18.703125 7.5625 23.875 7.5625 
L 47.859375 7.5625 
L 47.859375 0 
z
" id="ArialMT-7a"/>
    </defs>
    <g style="fill:#262626;" transform="translate(529.636364 403.742188)scale(0.12 -0.12)">
     <use xlink:href="#ArialMT-66"/>
     <use x="27.783203" xlink:href="#ArialMT-20"/>
     <use x="55.566406" xlink:href="#ArialMT-3d"/>
     <use x="113.964844" xlink:href="#ArialMT-20"/>
     <use x="141.748047" xlink:href="#ArialMT-37"/>
     <use x="197.363281" xlink:href="#ArialMT-34"/>
     <use x="252.978516" xlink:href="#ArialMT-30"/>
     <use x="308.59375" xlink:href="#ArialMT-20"/>
     <use x="336.376953" xlink:href="#ArialMT-48"/>
     <use x="408.59375" xlink:href="#ArialMT-7a"/>
    </g>
   </g>
   <g id="PathCollection_1">
    <defs>
     <path d="M 0 3.5 
C 0.928211 3.5 1.81853 3.131218 2.474874 2.474874 
C 3.131218 1.81853 3.5 0.928211 3.5 0 
C 3.5 -0.928211 3.131218 -1.81853 2.474874 -2.474874 
C 1.81853 -3.131218 0.928211 -3.5 0 -3.5 
C -0.928211 -3.5 -1.81853 -3.131218 -2.474874 -2.474874 
C -3.131218 -1.81853 -3.5 -0.928211 -3.5 0 
C -3.5 0.928211 -3.131218 1.81853 -2.474874 2.474874 
C -1.81853 3.131218 -0.928211 3.5 0 3.5 
z
" id="mcb79fb1b6f" style="stroke:#800000;stroke-width:0.3;"/>
    </defs>
    <g clip-path="url(#pa5df8a1789)">
     <use style="fill:#800000;stroke:#800000;stroke-width:0.3;" x="495.818182" xlink:href="#mcb79fb1b6f" y="503.208137"/>
    </g>
   </g>
  </g>
 </g>
 <defs>
  <clipPath id="pfa351f6470">
   <rect height="201.6" width="558" x="90" y="69.12"/>
  </clipPath>
  <clipPath id="pa5df8a1789">
   <rect height="201.6" width="558" x="90" y="311.04"/>
  </clipPath>
 </defs>
</svg>
