<?xml version="1.0" encoding="utf-8" standalone="no"?>
<!DOCTYPE svg PUBLIC "-//W3C//DTD SVG 1.1//EN"
  "http://www.w3.org/Graphics/SVG/1.1/DTD/svg11.dtd">
<!-- Created with matplotlib (http://matplotlib.org/) -->
<svg height="576pt" version="1.1" viewBox="0 0 720 576" width="720pt" xmlns="http://www.w3.org/2000/svg" xmlns:xlink="http://www.w3.org/1999/xlink">
 <defs>
  <style type="text/css">
*{stroke-linecap:butt;stroke-linejoin:round;}
  </style>
 </defs>
 <g id="figure_1">
  <g id="patch_1">
   <path d="M 0 576 
L 720 576 
L 720 0 
L 0 0 
z
" style="fill:#ffffff;"/>
  </g>
  <g id="axes_1">
   <g id="patch_2">
    <path d="M 90 270.72 
L 648 270.72 
L 648 69.12 
L 90 69.12 
z
" style="fill:#ffffff;"/>
   </g>
   <g id="matplotlib.axis_1">
    <g id="xtick_1">
     <g id="line2d_1">
      <defs>
       <path d="M 0 0 
L 0 6 
" id="mc4fddc8b84" style="stroke:#262626;"/>
      </defs>
      <g>
       <use style="fill:#262626;stroke:#262626;" x="90" xlink:href="#mc4fddc8b84" y="270.72"/>
      </g>
     </g>
     <g id="text_1">
      <!-- 0 -->
      <defs>
       <path d="M 4.15625 35.296875 
Q 4.15625 48 6.765625 55.734375 
Q 9.375 63.484375 14.515625 67.671875 
Q 19.671875 71.875 27.484375 71.875 
Q 33.25 71.875 37.59375 69.546875 
Q 41.9375 67.234375 44.765625 62.859375 
Q 47.609375 58.5 49.21875 52.21875 
Q 50.828125 45.953125 50.828125 35.296875 
Q 50.828125 22.703125 48.234375 14.96875 
Q 45.65625 7.234375 40.5 3 
Q 35.359375 -1.21875 27.484375 -1.21875 
Q 17.140625 -1.21875 11.234375 6.203125 
Q 4.15625 15.140625 4.15625 35.296875 
z
M 13.1875 35.296875 
Q 13.1875 17.671875 17.3125 11.828125 
Q 21.4375 6 27.484375 6 
Q 33.546875 6 37.671875 11.859375 
Q 41.796875 17.71875 41.796875 35.296875 
Q 41.796875 52.984375 37.671875 58.78125 
Q 33.546875 64.59375 27.390625 64.59375 
Q 21.34375 64.59375 17.71875 59.46875 
Q 13.1875 52.9375 13.1875 35.296875 
z
" id="ArialMT-30"/>
      </defs>
      <g style="fill:#262626;" transform="translate(87.219531 290.877812)scale(0.1 -0.1)">
       <use xlink:href="#ArialMT-30"/>
      </g>
     </g>
    </g>
    <g id="xtick_2">
     <g id="line2d_2">
      <g>
       <use style="fill:#262626;stroke:#262626;" x="159.75" xlink:href="#mc4fddc8b84" y="270.72"/>
      </g>
     </g>
     <g id="text_2">
      <!-- 100 -->
      <defs>
       <path d="M 37.25 0 
L 28.46875 0 
L 28.46875 56 
Q 25.296875 52.984375 20.140625 49.953125 
Q 14.984375 46.921875 10.890625 45.40625 
L 10.890625 53.90625 
Q 18.265625 57.375 23.78125 62.296875 
Q 29.296875 67.234375 31.59375 71.875 
L 37.25 71.875 
z
" id="ArialMT-31"/>
      </defs>
      <g style="fill:#262626;" transform="translate(151.408594 290.877812)scale(0.1 -0.1)">
       <use xlink:href="#ArialMT-31"/>
       <use x="55.615234" xlink:href="#ArialMT-30"/>
       <use x="111.230469" xlink:href="#ArialMT-30"/>
      </g>
     </g>
    </g>
    <g id="xtick_3">
     <g id="line2d_3">
      <g>
       <use style="fill:#262626;stroke:#262626;" x="229.5" xlink:href="#mc4fddc8b84" y="270.72"/>
      </g>
     </g>
     <g id="text_3">
      <!-- 200 -->
      <defs>
       <path d="M 50.34375 8.453125 
L 50.34375 0 
L 3.03125 0 
Q 2.9375 3.171875 4.046875 6.109375 
Q 5.859375 10.9375 9.828125 15.625 
Q 13.8125 20.3125 21.34375 26.46875 
Q 33.015625 36.03125 37.109375 41.625 
Q 41.21875 47.21875 41.21875 52.203125 
Q 41.21875 57.421875 37.46875 61 
Q 33.734375 64.59375 27.734375 64.59375 
Q 21.390625 64.59375 17.578125 60.78125 
Q 13.765625 56.984375 13.71875 50.25 
L 4.6875 51.171875 
Q 5.609375 61.28125 11.65625 66.578125 
Q 17.71875 71.875 27.9375 71.875 
Q 38.234375 71.875 44.234375 66.15625 
Q 50.25 60.453125 50.25 52 
Q 50.25 47.703125 48.484375 43.546875 
Q 46.734375 39.40625 42.65625 34.8125 
Q 38.578125 30.21875 29.109375 22.21875 
Q 21.1875 15.578125 18.9375 13.203125 
Q 16.703125 10.84375 15.234375 8.453125 
z
" id="ArialMT-32"/>
      </defs>
      <g style="fill:#262626;" transform="translate(221.158594 290.877812)scale(0.1 -0.1)">
       <use xlink:href="#ArialMT-32"/>
       <use x="55.615234" xlink:href="#ArialMT-30"/>
       <use x="111.230469" xlink:href="#ArialMT-30"/>
      </g>
     </g>
    </g>
    <g id="xtick_4">
     <g id="line2d_4">
      <g>
       <use style="fill:#262626;stroke:#262626;" x="299.25" xlink:href="#mc4fddc8b84" y="270.72"/>
      </g>
     </g>
     <g id="text_4">
      <!-- 300 -->
      <defs>
       <path d="M 4.203125 18.890625 
L 12.984375 20.0625 
Q 14.5 12.59375 18.140625 9.296875 
Q 21.78125 6 27 6 
Q 33.203125 6 37.46875 10.296875 
Q 41.75 14.59375 41.75 20.953125 
Q 41.75 27 37.796875 30.921875 
Q 33.84375 34.859375 27.734375 34.859375 
Q 25.25 34.859375 21.53125 33.890625 
L 22.515625 41.609375 
Q 23.390625 41.5 23.921875 41.5 
Q 29.546875 41.5 34.03125 44.421875 
Q 38.53125 47.359375 38.53125 53.46875 
Q 38.53125 58.296875 35.25 61.46875 
Q 31.984375 64.65625 26.8125 64.65625 
Q 21.6875 64.65625 18.265625 61.421875 
Q 14.84375 58.203125 13.875 51.765625 
L 5.078125 53.328125 
Q 6.6875 62.15625 12.390625 67.015625 
Q 18.109375 71.875 26.609375 71.875 
Q 32.46875 71.875 37.390625 69.359375 
Q 42.328125 66.84375 44.9375 62.5 
Q 47.5625 58.15625 47.5625 53.265625 
Q 47.5625 48.640625 45.0625 44.828125 
Q 42.578125 41.015625 37.703125 38.765625 
Q 44.046875 37.3125 47.5625 32.6875 
Q 51.078125 28.078125 51.078125 21.140625 
Q 51.078125 11.765625 44.234375 5.25 
Q 37.40625 -1.265625 26.953125 -1.265625 
Q 17.53125 -1.265625 11.296875 4.34375 
Q 5.078125 9.96875 4.203125 18.890625 
z
" id="ArialMT-33"/>
      </defs>
      <g style="fill:#262626;" transform="translate(290.908594 290.877812)scale(0.1 -0.1)">
       <use xlink:href="#ArialMT-33"/>
       <use x="55.615234" xlink:href="#ArialMT-30"/>
       <use x="111.230469" xlink:href="#ArialMT-30"/>
      </g>
     </g>
    </g>
    <g id="xtick_5">
     <g id="line2d_5">
      <g>
       <use style="fill:#262626;stroke:#262626;" x="369" xlink:href="#mc4fddc8b84" y="270.72"/>
      </g>
     </g>
     <g id="text_5">
      <!-- 400 -->
      <defs>
       <path d="M 32.328125 0 
L 32.328125 17.140625 
L 1.265625 17.140625 
L 1.265625 25.203125 
L 33.9375 71.578125 
L 41.109375 71.578125 
L 41.109375 25.203125 
L 50.78125 25.203125 
L 50.78125 17.140625 
L 41.109375 17.140625 
L 41.109375 0 
z
M 32.328125 25.203125 
L 32.328125 57.46875 
L 9.90625 25.203125 
z
" id="ArialMT-34"/>
      </defs>
      <g style="fill:#262626;" transform="translate(360.658594 290.877812)scale(0.1 -0.1)">
       <use xlink:href="#ArialMT-34"/>
       <use x="55.615234" xlink:href="#ArialMT-30"/>
       <use x="111.230469" xlink:href="#ArialMT-30"/>
      </g>
     </g>
    </g>
    <g id="xtick_6">
     <g id="line2d_6">
      <g>
       <use style="fill:#262626;stroke:#262626;" x="438.75" xlink:href="#mc4fddc8b84" y="270.72"/>
      </g>
     </g>
     <g id="text_6">
      <!-- 500 -->
      <defs>
       <path d="M 4.15625 18.75 
L 13.375 19.53125 
Q 14.40625 12.796875 18.140625 9.390625 
Q 21.875 6 27.15625 6 
Q 33.5 6 37.890625 10.78125 
Q 42.28125 15.578125 42.28125 23.484375 
Q 42.28125 31 38.0625 35.34375 
Q 33.84375 39.703125 27 39.703125 
Q 22.75 39.703125 19.328125 37.765625 
Q 15.921875 35.84375 13.96875 32.765625 
L 5.71875 33.84375 
L 12.640625 70.609375 
L 48.25 70.609375 
L 48.25 62.203125 
L 19.671875 62.203125 
L 15.828125 42.96875 
Q 22.265625 47.46875 29.34375 47.46875 
Q 38.71875 47.46875 45.15625 40.96875 
Q 51.609375 34.46875 51.609375 24.265625 
Q 51.609375 14.546875 45.953125 7.46875 
Q 39.0625 -1.21875 27.15625 -1.21875 
Q 17.390625 -1.21875 11.203125 4.25 
Q 5.03125 9.71875 4.15625 18.75 
z
" id="ArialMT-35"/>
      </defs>
      <g style="fill:#262626;" transform="translate(430.408594 290.877812)scale(0.1 -0.1)">
       <use xlink:href="#ArialMT-35"/>
       <use x="55.615234" xlink:href="#ArialMT-30"/>
       <use x="111.230469" xlink:href="#ArialMT-30"/>
      </g>
     </g>
    </g>
    <g id="xtick_7">
     <g id="line2d_7">
      <g>
       <use style="fill:#262626;stroke:#262626;" x="508.5" xlink:href="#mc4fddc8b84" y="270.72"/>
      </g>
     </g>
     <g id="text_7">
      <!-- 600 -->
      <defs>
       <path d="M 49.75 54.046875 
L 41.015625 53.375 
Q 39.84375 58.546875 37.703125 60.890625 
Q 34.125 64.65625 28.90625 64.65625 
Q 24.703125 64.65625 21.53125 62.3125 
Q 17.390625 59.28125 14.984375 53.46875 
Q 12.59375 47.65625 12.5 36.921875 
Q 15.671875 41.75 20.265625 44.09375 
Q 24.859375 46.4375 29.890625 46.4375 
Q 38.671875 46.4375 44.84375 39.96875 
Q 51.03125 33.5 51.03125 23.25 
Q 51.03125 16.5 48.125 10.71875 
Q 45.21875 4.9375 40.140625 1.859375 
Q 35.0625 -1.21875 28.609375 -1.21875 
Q 17.625 -1.21875 10.6875 6.859375 
Q 3.765625 14.9375 3.765625 33.5 
Q 3.765625 54.25 11.421875 63.671875 
Q 18.109375 71.875 29.4375 71.875 
Q 37.890625 71.875 43.28125 67.140625 
Q 48.6875 62.40625 49.75 54.046875 
z
M 13.875 23.1875 
Q 13.875 18.65625 15.796875 14.5 
Q 17.71875 10.359375 21.1875 8.171875 
Q 24.65625 6 28.46875 6 
Q 34.03125 6 38.03125 10.484375 
Q 42.046875 14.984375 42.046875 22.703125 
Q 42.046875 30.125 38.078125 34.390625 
Q 34.125 38.671875 28.125 38.671875 
Q 22.171875 38.671875 18.015625 34.390625 
Q 13.875 30.125 13.875 23.1875 
z
" id="ArialMT-36"/>
      </defs>
      <g style="fill:#262626;" transform="translate(500.158594 290.877812)scale(0.1 -0.1)">
       <use xlink:href="#ArialMT-36"/>
       <use x="55.615234" xlink:href="#ArialMT-30"/>
       <use x="111.230469" xlink:href="#ArialMT-30"/>
      </g>
     </g>
    </g>
    <g id="xtick_8">
     <g id="line2d_8">
      <g>
       <use style="fill:#262626;stroke:#262626;" x="578.25" xlink:href="#mc4fddc8b84" y="270.72"/>
      </g>
     </g>
     <g id="text_8">
      <!-- 700 -->
      <defs>
       <path d="M 4.734375 62.203125 
L 4.734375 70.65625 
L 51.078125 70.65625 
L 51.078125 63.8125 
Q 44.234375 56.546875 37.515625 44.484375 
Q 30.8125 32.421875 27.15625 19.671875 
Q 24.515625 10.6875 23.78125 0 
L 14.75 0 
Q 14.890625 8.453125 18.0625 20.40625 
Q 21.234375 32.375 27.171875 43.484375 
Q 33.109375 54.59375 39.796875 62.203125 
z
" id="ArialMT-37"/>
      </defs>
      <g style="fill:#262626;" transform="translate(569.908594 290.877812)scale(0.1 -0.1)">
       <use xlink:href="#ArialMT-37"/>
       <use x="55.615234" xlink:href="#ArialMT-30"/>
       <use x="111.230469" xlink:href="#ArialMT-30"/>
      </g>
     </g>
    </g>
    <g id="xtick_9">
     <g id="line2d_9">
      <g>
       <use style="fill:#262626;stroke:#262626;" x="648" xlink:href="#mc4fddc8b84" y="270.72"/>
      </g>
     </g>
     <g id="text_9">
      <!-- 800 -->
      <defs>
       <path d="M 17.671875 38.8125 
Q 12.203125 40.828125 9.5625 44.53125 
Q 6.9375 48.25 6.9375 53.421875 
Q 6.9375 61.234375 12.546875 66.546875 
Q 18.171875 71.875 27.484375 71.875 
Q 36.859375 71.875 42.578125 66.421875 
Q 48.296875 60.984375 48.296875 53.171875 
Q 48.296875 48.1875 45.671875 44.5 
Q 43.0625 40.828125 37.75 38.8125 
Q 44.34375 36.671875 47.78125 31.875 
Q 51.21875 27.09375 51.21875 20.453125 
Q 51.21875 11.28125 44.71875 5.03125 
Q 38.234375 -1.21875 27.640625 -1.21875 
Q 17.046875 -1.21875 10.546875 5.046875 
Q 4.046875 11.328125 4.046875 20.703125 
Q 4.046875 27.6875 7.59375 32.390625 
Q 11.140625 37.109375 17.671875 38.8125 
z
M 15.921875 53.71875 
Q 15.921875 48.640625 19.1875 45.40625 
Q 22.46875 42.1875 27.6875 42.1875 
Q 32.765625 42.1875 36.015625 45.375 
Q 39.265625 48.578125 39.265625 53.21875 
Q 39.265625 58.0625 35.90625 61.359375 
Q 32.5625 64.65625 27.59375 64.65625 
Q 22.5625 64.65625 19.234375 61.421875 
Q 15.921875 58.203125 15.921875 53.71875 
z
M 13.09375 20.65625 
Q 13.09375 16.890625 14.875 13.375 
Q 16.65625 9.859375 20.171875 7.921875 
Q 23.6875 6 27.734375 6 
Q 34.03125 6 38.125 10.046875 
Q 42.234375 14.109375 42.234375 20.359375 
Q 42.234375 26.703125 38.015625 30.859375 
Q 33.796875 35.015625 27.4375 35.015625 
Q 21.234375 35.015625 17.15625 30.90625 
Q 13.09375 26.8125 13.09375 20.65625 
z
" id="ArialMT-38"/>
      </defs>
      <g style="fill:#262626;" transform="translate(639.658594 290.877812)scale(0.1 -0.1)">
       <use xlink:href="#ArialMT-38"/>
       <use x="55.615234" xlink:href="#ArialMT-30"/>
       <use x="111.230469" xlink:href="#ArialMT-30"/>
      </g>
     </g>
    </g>
   </g>
   <g id="matplotlib.axis_2">
    <g id="ytick_1">
     <g id="line2d_10">
      <defs>
       <path d="M 0 0 
L -6 0 
" id="m7c16bb8bec" style="stroke:#262626;"/>
      </defs>
      <g>
       <use style="fill:#262626;stroke:#262626;" x="90" xlink:href="#m7c16bb8bec" y="270.72"/>
      </g>
     </g>
     <g id="text_10">
      <!-- −0.20 -->
      <defs>
       <path d="M 52.828125 31.203125 
L 5.5625 31.203125 
L 5.5625 39.40625 
L 52.828125 39.40625 
z
" id="ArialMT-2212"/>
       <path d="M 9.078125 0 
L 9.078125 10.015625 
L 19.09375 10.015625 
L 19.09375 0 
z
" id="ArialMT-2e"/>
      </defs>
      <g style="fill:#262626;" transform="translate(51.698437 274.298906)scale(0.1 -0.1)">
       <use xlink:href="#ArialMT-2212"/>
       <use x="58.398438" xlink:href="#ArialMT-30"/>
       <use x="114.013672" xlink:href="#ArialMT-2e"/>
       <use x="141.796875" xlink:href="#ArialMT-32"/>
       <use x="197.412109" xlink:href="#ArialMT-30"/>
      </g>
     </g>
    </g>
    <g id="ytick_2">
     <g id="line2d_11">
      <g>
       <use style="fill:#262626;stroke:#262626;" x="90" xlink:href="#m7c16bb8bec" y="245.52"/>
      </g>
     </g>
     <g id="text_11">
      <!-- −0.15 -->
      <g style="fill:#262626;" transform="translate(51.698437 249.098906)scale(0.1 -0.1)">
       <use xlink:href="#ArialMT-2212"/>
       <use x="58.398438" xlink:href="#ArialMT-30"/>
       <use x="114.013672" xlink:href="#ArialMT-2e"/>
       <use x="141.796875" xlink:href="#ArialMT-31"/>
       <use x="197.412109" xlink:href="#ArialMT-35"/>
      </g>
     </g>
    </g>
    <g id="ytick_3">
     <g id="line2d_12">
      <g>
       <use style="fill:#262626;stroke:#262626;" x="90" xlink:href="#m7c16bb8bec" y="220.32"/>
      </g>
     </g>
     <g id="text_12">
      <!-- −0.10 -->
      <g style="fill:#262626;" transform="translate(51.698437 223.898906)scale(0.1 -0.1)">
       <use xlink:href="#ArialMT-2212"/>
       <use x="58.398438" xlink:href="#ArialMT-30"/>
       <use x="114.013672" xlink:href="#ArialMT-2e"/>
       <use x="141.796875" xlink:href="#ArialMT-31"/>
       <use x="197.412109" xlink:href="#ArialMT-30"/>
      </g>
     </g>
    </g>
    <g id="ytick_4">
     <g id="line2d_13">
      <g>
       <use style="fill:#262626;stroke:#262626;" x="90" xlink:href="#m7c16bb8bec" y="195.12"/>
      </g>
     </g>
     <g id="text_13">
      <!-- −0.05 -->
      <g style="fill:#262626;" transform="translate(51.698437 198.698906)scale(0.1 -0.1)">
       <use xlink:href="#ArialMT-2212"/>
       <use x="58.398438" xlink:href="#ArialMT-30"/>
       <use x="114.013672" xlink:href="#ArialMT-2e"/>
       <use x="141.796875" xlink:href="#ArialMT-30"/>
       <use x="197.412109" xlink:href="#ArialMT-35"/>
      </g>
     </g>
    </g>
    <g id="ytick_5">
     <g id="line2d_14">
      <g>
       <use style="fill:#262626;stroke:#262626;" x="90" xlink:href="#m7c16bb8bec" y="169.92"/>
      </g>
     </g>
     <g id="text_14">
      <!-- 0.00 -->
      <g style="fill:#262626;" transform="translate(57.539062 173.498906)scale(0.1 -0.1)">
       <use xlink:href="#ArialMT-30"/>
       <use x="55.615234" xlink:href="#ArialMT-2e"/>
       <use x="83.398438" xlink:href="#ArialMT-30"/>
       <use x="139.013672" xlink:href="#ArialMT-30"/>
      </g>
     </g>
    </g>
    <g id="ytick_6">
     <g id="line2d_15">
      <g>
       <use style="fill:#262626;stroke:#262626;" x="90" xlink:href="#m7c16bb8bec" y="144.72"/>
      </g>
     </g>
     <g id="text_15">
      <!-- 0.05 -->
      <g style="fill:#262626;" transform="translate(57.539062 148.298906)scale(0.1 -0.1)">
       <use xlink:href="#ArialMT-30"/>
       <use x="55.615234" xlink:href="#ArialMT-2e"/>
       <use x="83.398438" xlink:href="#ArialMT-30"/>
       <use x="139.013672" xlink:href="#ArialMT-35"/>
      </g>
     </g>
    </g>
    <g id="ytick_7">
     <g id="line2d_16">
      <g>
       <use style="fill:#262626;stroke:#262626;" x="90" xlink:href="#m7c16bb8bec" y="119.52"/>
      </g>
     </g>
     <g id="text_16">
      <!-- 0.10 -->
      <g style="fill:#262626;" transform="translate(57.539062 123.098906)scale(0.1 -0.1)">
       <use xlink:href="#ArialMT-30"/>
       <use x="55.615234" xlink:href="#ArialMT-2e"/>
       <use x="83.398438" xlink:href="#ArialMT-31"/>
       <use x="139.013672" xlink:href="#ArialMT-30"/>
      </g>
     </g>
    </g>
    <g id="ytick_8">
     <g id="line2d_17">
      <g>
       <use style="fill:#262626;stroke:#262626;" x="90" xlink:href="#m7c16bb8bec" y="94.32"/>
      </g>
     </g>
     <g id="text_17">
      <!-- 0.15 -->
      <g style="fill:#262626;" transform="translate(57.539062 97.898906)scale(0.1 -0.1)">
       <use xlink:href="#ArialMT-30"/>
       <use x="55.615234" xlink:href="#ArialMT-2e"/>
       <use x="83.398438" xlink:href="#ArialMT-31"/>
       <use x="139.013672" xlink:href="#ArialMT-35"/>
      </g>
     </g>
    </g>
    <g id="ytick_9">
     <g id="line2d_18">
      <g>
       <use style="fill:#262626;stroke:#262626;" x="90" xlink:href="#m7c16bb8bec" y="69.12"/>
      </g>
     </g>
     <g id="text_18">
      <!-- 0.20 -->
      <g style="fill:#262626;" transform="translate(57.539062 72.698906)scale(0.1 -0.1)">
       <use xlink:href="#ArialMT-30"/>
       <use x="55.615234" xlink:href="#ArialMT-2e"/>
       <use x="83.398438" xlink:href="#ArialMT-32"/>
       <use x="139.013672" xlink:href="#ArialMT-30"/>
      </g>
     </g>
    </g>
   </g>
   <g id="PolyCollection_1">
    <path clip-path="url(#p62e16ae2cc)" d="M 90 118.441688 
L 90 169.92 
L 90.6975 169.92 
L 91.395 169.92 
L 92.0925 169.92 
L 92.79 169.92 
L 93.4875 169.92 
L 94.185 169.92 
L 94.8825 169.92 
L 95.58 169.92 
L 96.2775 169.92 
L 96.975 169.92 
L 97.6725 169.92 
L 98.37 169.92 
L 99.0675 169.92 
L 99.765 169.92 
L 100.4625 169.92 
L 101.16 169.92 
L 101.8575 169.92 
L 102.555 169.92 
L 103.2525 169.92 
L 103.95 169.92 
L 104.6475 169.92 
L 105.345 169.92 
L 106.0425 169.92 
L 106.74 169.92 
L 107.4375 169.92 
L 108.135 169.92 
L 108.8325 169.92 
L 109.53 169.92 
L 110.2275 169.92 
L 110.925 169.92 
L 111.6225 169.92 
L 112.32 169.92 
L 113.0175 169.92 
L 113.715 169.92 
L 114.4125 169.92 
L 115.11 169.92 
L 115.8075 169.92 
L 116.505 169.92 
L 117.2025 169.92 
L 117.9 169.92 
L 118.5975 169.92 
L 119.295 169.92 
L 119.9925 169.92 
L 120.69 169.92 
L 121.3875 169.92 
L 122.085 169.92 
L 122.7825 169.92 
L 123.48 169.92 
L 124.1775 169.92 
L 124.875 169.92 
L 125.5725 169.92 
L 126.27 169.92 
L 126.9675 169.92 
L 127.665 169.92 
L 128.3625 169.92 
L 129.06 169.92 
L 129.7575 169.92 
L 130.455 169.92 
L 131.1525 169.92 
L 131.85 169.92 
L 132.5475 169.92 
L 133.245 169.92 
L 133.9425 169.92 
L 134.64 169.92 
L 135.3375 169.92 
L 136.035 169.92 
L 136.7325 169.92 
L 137.43 169.92 
L 138.1275 169.92 
L 138.825 169.92 
L 139.5225 169.92 
L 140.22 169.92 
L 140.9175 169.92 
L 141.615 169.92 
L 142.3125 169.92 
L 143.01 169.92 
L 143.7075 169.92 
L 144.405 169.92 
L 145.1025 169.92 
L 145.8 169.92 
L 146.4975 169.92 
L 147.195 169.92 
L 147.8925 169.92 
L 148.59 169.92 
L 149.2875 169.92 
L 149.985 169.92 
L 150.6825 169.92 
L 151.38 169.92 
L 152.0775 169.92 
L 152.775 169.92 
L 153.4725 169.92 
L 154.17 169.92 
L 154.8675 169.92 
L 155.565 169.92 
L 156.2625 169.92 
L 156.96 169.92 
L 157.6575 169.92 
L 158.355 169.92 
L 159.0525 169.92 
L 159.75 169.92 
L 160.4475 169.92 
L 161.145 169.92 
L 161.8425 169.92 
L 162.54 169.92 
L 163.2375 169.92 
L 163.935 169.92 
L 164.6325 169.92 
L 165.33 169.92 
L 166.0275 169.92 
L 166.725 169.92 
L 167.4225 169.92 
L 168.12 169.92 
L 168.8175 169.92 
L 169.515 169.92 
L 170.2125 169.92 
L 170.91 169.92 
L 171.6075 169.92 
L 172.305 169.92 
L 173.0025 169.92 
L 173.7 169.92 
L 174.3975 169.92 
L 175.095 169.92 
L 175.7925 169.92 
L 176.49 169.92 
L 177.1875 169.92 
L 177.885 169.92 
L 178.5825 169.92 
L 179.28 169.92 
L 179.9775 169.92 
L 180.675 169.92 
L 181.3725 169.92 
L 182.07 169.92 
L 182.7675 169.92 
L 183.465 169.92 
L 184.1625 169.92 
L 184.86 169.92 
L 185.5575 169.92 
L 186.255 169.92 
L 186.9525 169.92 
L 187.65 169.92 
L 188.3475 169.92 
L 189.045 169.92 
L 189.7425 169.92 
L 190.44 169.92 
L 191.1375 169.92 
L 191.835 169.92 
L 192.5325 169.92 
L 193.23 169.92 
L 193.9275 169.92 
L 194.625 169.92 
L 195.3225 169.92 
L 196.02 169.92 
L 196.7175 169.92 
L 197.415 169.92 
L 198.1125 169.92 
L 198.81 169.92 
L 199.5075 169.92 
L 200.205 169.92 
L 200.9025 169.92 
L 201.6 169.92 
L 202.2975 169.92 
L 202.995 169.92 
L 203.6925 169.92 
L 204.39 169.92 
L 205.0875 169.92 
L 205.785 169.92 
L 206.4825 169.92 
L 207.18 169.92 
L 207.8775 169.92 
L 208.575 169.92 
L 209.2725 169.92 
L 209.97 169.92 
L 210.6675 169.92 
L 211.365 169.92 
L 212.0625 169.92 
L 212.76 169.92 
L 213.4575 169.92 
L 214.155 169.92 
L 214.8525 169.92 
L 215.55 169.92 
L 216.2475 169.92 
L 216.945 169.92 
L 217.6425 169.92 
L 218.34 169.92 
L 219.0375 169.92 
L 219.735 169.92 
L 220.4325 169.92 
L 221.13 169.92 
L 221.8275 169.92 
L 222.525 169.92 
L 223.2225 169.92 
L 223.92 169.92 
L 224.6175 169.92 
L 225.315 169.92 
L 226.0125 169.92 
L 226.71 169.92 
L 227.4075 169.92 
L 228.105 169.92 
L 228.8025 169.92 
L 229.5 169.92 
L 230.1975 169.92 
L 230.895 169.92 
L 231.5925 169.92 
L 232.29 169.92 
L 232.9875 169.92 
L 233.685 169.92 
L 234.3825 169.92 
L 235.08 169.92 
L 235.7775 169.92 
L 236.475 169.92 
L 237.1725 169.92 
L 237.87 169.92 
L 238.5675 169.92 
L 239.265 169.92 
L 239.9625 169.92 
L 240.66 169.92 
L 241.3575 169.92 
L 242.055 169.92 
L 242.7525 169.92 
L 243.45 169.92 
L 244.1475 169.92 
L 244.845 169.92 
L 245.5425 169.92 
L 246.24 169.92 
L 246.9375 169.92 
L 247.635 169.92 
L 248.3325 169.92 
L 249.03 169.92 
L 249.7275 169.92 
L 250.425 169.92 
L 251.1225 169.92 
L 251.82 169.92 
L 252.5175 169.92 
L 253.215 169.92 
L 253.9125 169.92 
L 254.61 169.92 
L 255.3075 169.92 
L 256.005 169.92 
L 256.7025 169.92 
L 257.4 169.92 
L 258.0975 169.92 
L 258.795 169.92 
L 259.4925 169.92 
L 260.19 169.92 
L 260.8875 169.92 
L 261.585 169.92 
L 262.2825 169.92 
L 262.98 169.92 
L 263.6775 169.92 
L 264.375 169.92 
L 265.0725 169.92 
L 265.77 169.92 
L 266.4675 169.92 
L 267.165 169.92 
L 267.8625 169.92 
L 268.56 169.92 
L 269.2575 169.92 
L 269.955 169.92 
L 270.6525 169.92 
L 271.35 169.92 
L 272.0475 169.92 
L 272.745 169.92 
L 273.4425 169.92 
L 274.14 169.92 
L 274.8375 169.92 
L 275.535 169.92 
L 276.2325 169.92 
L 276.93 169.92 
L 277.6275 169.92 
L 278.325 169.92 
L 279.0225 169.92 
L 279.72 169.92 
L 280.4175 169.92 
L 281.115 169.92 
L 281.8125 169.92 
L 282.51 169.92 
L 283.2075 169.92 
L 283.905 169.92 
L 284.6025 169.92 
L 285.3 169.92 
L 285.9975 169.92 
L 286.695 169.92 
L 287.3925 169.92 
L 288.09 169.92 
L 288.7875 169.92 
L 289.485 169.92 
L 290.1825 169.92 
L 290.88 169.92 
L 291.5775 169.92 
L 292.275 169.92 
L 292.9725 169.92 
L 293.67 169.92 
L 294.3675 169.92 
L 295.065 169.92 
L 295.7625 169.92 
L 296.46 169.92 
L 297.1575 169.92 
L 297.855 169.92 
L 298.5525 169.92 
L 299.25 169.92 
L 299.9475 169.92 
L 300.645 169.92 
L 301.3425 169.92 
L 302.04 169.92 
L 302.7375 169.92 
L 303.435 169.92 
L 304.1325 169.92 
L 304.83 169.92 
L 305.5275 169.92 
L 306.225 169.92 
L 306.9225 169.92 
L 307.62 169.92 
L 308.3175 169.92 
L 309.015 169.92 
L 309.7125 169.92 
L 310.41 169.92 
L 311.1075 169.92 
L 311.805 169.92 
L 312.5025 169.92 
L 313.2 169.92 
L 313.8975 169.92 
L 314.595 169.92 
L 315.2925 169.92 
L 315.99 169.92 
L 316.6875 169.92 
L 317.385 169.92 
L 318.0825 169.92 
L 318.78 169.92 
L 319.4775 169.92 
L 320.175 169.92 
L 320.8725 169.92 
L 321.57 169.92 
L 322.2675 169.92 
L 322.965 169.92 
L 323.6625 169.92 
L 324.36 169.92 
L 325.0575 169.92 
L 325.755 169.92 
L 326.4525 169.92 
L 327.15 169.92 
L 327.8475 169.92 
L 328.545 169.92 
L 329.2425 169.92 
L 329.94 169.92 
L 330.6375 169.92 
L 331.335 169.92 
L 332.0325 169.92 
L 332.73 169.92 
L 333.4275 169.92 
L 334.125 169.92 
L 334.8225 169.92 
L 335.52 169.92 
L 336.2175 169.92 
L 336.915 169.92 
L 337.6125 169.92 
L 338.31 169.92 
L 339.0075 169.92 
L 339.705 169.92 
L 340.4025 169.92 
L 341.1 169.92 
L 341.7975 169.92 
L 342.495 169.92 
L 343.1925 169.92 
L 343.89 169.92 
L 344.5875 169.92 
L 345.285 169.92 
L 345.9825 169.92 
L 346.68 169.92 
L 347.3775 169.92 
L 348.075 169.92 
L 348.7725 169.92 
L 349.47 169.92 
L 350.1675 169.92 
L 350.865 169.92 
L 351.5625 169.92 
L 352.26 169.92 
L 352.9575 169.92 
L 353.655 169.92 
L 354.3525 169.92 
L 355.05 169.92 
L 355.7475 169.92 
L 356.445 169.92 
L 357.1425 169.92 
L 357.84 169.92 
L 358.5375 169.92 
L 359.235 169.92 
L 359.9325 169.92 
L 360.63 169.92 
L 361.3275 169.92 
L 362.025 169.92 
L 362.7225 169.92 
L 363.42 169.92 
L 364.1175 169.92 
L 364.815 169.92 
L 365.5125 169.92 
L 366.21 169.92 
L 366.9075 169.92 
L 367.605 169.92 
L 368.3025 169.92 
L 369 169.92 
L 369.6975 169.92 
L 370.395 169.92 
L 371.0925 169.92 
L 371.79 169.92 
L 372.4875 169.92 
L 373.185 169.92 
L 373.8825 169.92 
L 374.58 169.92 
L 375.2775 169.92 
L 375.975 169.92 
L 376.6725 169.92 
L 377.37 169.92 
L 378.0675 169.92 
L 378.765 169.92 
L 379.4625 169.92 
L 380.16 169.92 
L 380.8575 169.92 
L 381.555 169.92 
L 382.2525 169.92 
L 382.95 169.92 
L 383.6475 169.92 
L 384.345 169.92 
L 385.0425 169.92 
L 385.74 169.92 
L 386.4375 169.92 
L 387.135 169.92 
L 387.8325 169.92 
L 388.53 169.92 
L 389.2275 169.92 
L 389.925 169.92 
L 390.6225 169.92 
L 391.32 169.92 
L 392.0175 169.92 
L 392.715 169.92 
L 393.4125 169.92 
L 394.11 169.92 
L 394.8075 169.92 
L 395.505 169.92 
L 396.2025 169.92 
L 396.9 169.92 
L 397.5975 169.92 
L 398.295 169.92 
L 398.9925 169.92 
L 399.69 169.92 
L 400.3875 169.92 
L 401.085 169.92 
L 401.7825 169.92 
L 402.48 169.92 
L 403.1775 169.92 
L 403.875 169.92 
L 404.5725 169.92 
L 405.27 169.92 
L 405.9675 169.92 
L 406.665 169.92 
L 407.3625 169.92 
L 408.06 169.92 
L 408.7575 169.92 
L 409.455 169.92 
L 410.1525 169.92 
L 410.85 169.92 
L 411.5475 169.92 
L 412.245 169.92 
L 412.9425 169.92 
L 413.64 169.92 
L 414.3375 169.92 
L 415.035 169.92 
L 415.7325 169.92 
L 416.43 169.92 
L 417.1275 169.92 
L 417.825 169.92 
L 418.5225 169.92 
L 419.22 169.92 
L 419.9175 169.92 
L 420.615 169.92 
L 421.3125 169.92 
L 422.01 169.92 
L 422.7075 169.92 
L 423.405 169.92 
L 424.1025 169.92 
L 424.8 169.92 
L 425.4975 169.92 
L 426.195 169.92 
L 426.8925 169.92 
L 427.59 169.92 
L 428.2875 169.92 
L 428.985 169.92 
L 429.6825 169.92 
L 430.38 169.92 
L 431.0775 169.92 
L 431.775 169.92 
L 432.4725 169.92 
L 433.17 169.92 
L 433.8675 169.92 
L 434.565 169.92 
L 435.2625 169.92 
L 435.96 169.92 
L 436.6575 169.92 
L 437.355 169.92 
L 438.0525 169.92 
L 438.75 169.92 
L 439.4475 169.92 
L 440.145 169.92 
L 440.8425 169.92 
L 441.54 169.92 
L 442.2375 169.92 
L 442.935 169.92 
L 443.6325 169.92 
L 444.33 169.92 
L 445.0275 169.92 
L 445.725 169.92 
L 446.4225 169.92 
L 447.12 169.92 
L 447.8175 169.92 
L 448.515 169.92 
L 449.2125 169.92 
L 449.91 169.92 
L 450.6075 169.92 
L 451.305 169.92 
L 452.0025 169.92 
L 452.7 169.92 
L 453.3975 169.92 
L 454.095 169.92 
L 454.7925 169.92 
L 455.49 169.92 
L 456.1875 169.92 
L 456.885 169.92 
L 457.5825 169.92 
L 458.28 169.92 
L 458.9775 169.92 
L 459.675 169.92 
L 460.3725 169.92 
L 461.07 169.92 
L 461.7675 169.92 
L 462.465 169.92 
L 463.1625 169.92 
L 463.86 169.92 
L 464.5575 169.92 
L 465.255 169.92 
L 465.9525 169.92 
L 466.65 169.92 
L 467.3475 169.92 
L 468.045 169.92 
L 468.7425 169.92 
L 469.44 169.92 
L 470.1375 169.92 
L 470.835 169.92 
L 471.5325 169.92 
L 472.23 169.92 
L 472.9275 169.92 
L 473.625 169.92 
L 474.3225 169.92 
L 475.02 169.92 
L 475.7175 169.92 
L 476.415 169.92 
L 477.1125 169.92 
L 477.81 169.92 
L 478.5075 169.92 
L 479.205 169.92 
L 479.9025 169.92 
L 480.6 169.92 
L 481.2975 169.92 
L 481.995 169.92 
L 482.6925 169.92 
L 483.39 169.92 
L 484.0875 169.92 
L 484.785 169.92 
L 485.4825 169.92 
L 486.18 169.92 
L 486.8775 169.92 
L 487.575 169.92 
L 488.2725 169.92 
L 488.97 169.92 
L 489.6675 169.92 
L 490.365 169.92 
L 491.0625 169.92 
L 491.76 169.92 
L 492.4575 169.92 
L 493.155 169.92 
L 493.8525 169.92 
L 494.55 169.92 
L 495.2475 169.92 
L 495.945 169.92 
L 496.6425 169.92 
L 497.34 169.92 
L 498.0375 169.92 
L 498.735 169.92 
L 499.4325 169.92 
L 500.13 169.92 
L 500.8275 169.92 
L 501.525 169.92 
L 502.2225 169.92 
L 502.92 169.92 
L 503.6175 169.92 
L 504.315 169.92 
L 505.0125 169.92 
L 505.71 169.92 
L 506.4075 169.92 
L 507.105 169.92 
L 507.8025 169.92 
L 508.5 169.92 
L 509.1975 169.92 
L 509.895 169.92 
L 510.5925 169.92 
L 511.29 169.92 
L 511.9875 169.92 
L 512.685 169.92 
L 513.3825 169.92 
L 514.08 169.92 
L 514.7775 169.92 
L 515.475 169.92 
L 516.1725 169.92 
L 516.87 169.92 
L 517.5675 169.92 
L 518.265 169.92 
L 518.9625 169.92 
L 519.66 169.92 
L 520.3575 169.92 
L 521.055 169.92 
L 521.7525 169.92 
L 522.45 169.92 
L 523.1475 169.92 
L 523.845 169.92 
L 524.5425 169.92 
L 525.24 169.92 
L 525.9375 169.92 
L 526.635 169.92 
L 527.3325 169.92 
L 528.03 169.92 
L 528.7275 169.92 
L 529.425 169.92 
L 530.1225 169.92 
L 530.82 169.92 
L 531.5175 169.92 
L 532.215 169.92 
L 532.9125 169.92 
L 533.61 169.92 
L 534.3075 169.92 
L 535.005 169.92 
L 535.7025 169.92 
L 536.4 169.92 
L 537.0975 169.92 
L 537.795 169.92 
L 538.4925 169.92 
L 539.19 169.92 
L 539.8875 169.92 
L 540.585 169.92 
L 541.2825 169.92 
L 541.98 169.92 
L 542.6775 169.92 
L 543.375 169.92 
L 544.0725 169.92 
L 544.77 169.92 
L 545.4675 169.92 
L 546.165 169.92 
L 546.8625 169.92 
L 547.56 169.92 
L 548.2575 169.92 
L 548.955 169.92 
L 549.6525 169.92 
L 550.35 169.92 
L 551.0475 169.92 
L 551.745 169.92 
L 552.4425 169.92 
L 553.14 169.92 
L 553.8375 169.92 
L 554.535 169.92 
L 555.2325 169.92 
L 555.93 169.92 
L 556.6275 169.92 
L 557.325 169.92 
L 558.0225 169.92 
L 558.72 169.92 
L 559.4175 169.92 
L 560.115 169.92 
L 560.8125 169.92 
L 561.51 169.92 
L 562.2075 169.92 
L 562.905 169.92 
L 563.6025 169.92 
L 564.3 169.92 
L 564.9975 169.92 
L 565.695 169.92 
L 566.3925 169.92 
L 567.09 169.92 
L 567.7875 169.92 
L 568.485 169.92 
L 569.1825 169.92 
L 569.88 169.92 
L 570.5775 169.92 
L 571.275 169.92 
L 571.9725 169.92 
L 572.67 169.92 
L 573.3675 169.92 
L 574.065 169.92 
L 574.7625 169.92 
L 575.46 169.92 
L 576.1575 169.92 
L 576.855 169.92 
L 577.5525 169.92 
L 578.25 169.92 
L 578.9475 169.92 
L 579.645 169.92 
L 580.3425 169.92 
L 581.04 169.92 
L 581.7375 169.92 
L 582.435 169.92 
L 583.1325 169.92 
L 583.83 169.92 
L 584.5275 169.92 
L 585.225 169.92 
L 585.9225 169.92 
L 586.62 169.92 
L 587.3175 169.92 
L 588.015 169.92 
L 588.7125 169.92 
L 589.41 169.92 
L 590.1075 169.92 
L 590.805 169.92 
L 591.5025 169.92 
L 592.2 169.92 
L 592.8975 169.92 
L 593.595 169.92 
L 594.2925 169.92 
L 594.99 169.92 
L 595.6875 169.92 
L 596.385 169.92 
L 597.0825 169.92 
L 597.78 169.92 
L 598.4775 169.92 
L 599.175 169.92 
L 599.8725 169.92 
L 600.57 169.92 
L 601.2675 169.92 
L 601.965 169.92 
L 602.6625 169.92 
L 603.36 169.92 
L 604.0575 169.92 
L 604.755 169.92 
L 605.4525 169.92 
L 606.15 169.92 
L 606.8475 169.92 
L 607.545 169.92 
L 608.2425 169.92 
L 608.94 169.92 
L 609.6375 169.92 
L 610.335 169.92 
L 611.0325 169.92 
L 611.73 169.92 
L 612.4275 169.92 
L 613.125 169.92 
L 613.8225 169.92 
L 614.52 169.92 
L 615.2175 169.92 
L 615.915 169.92 
L 616.6125 169.92 
L 617.31 169.92 
L 618.0075 169.92 
L 618.705 169.92 
L 619.4025 169.92 
L 620.1 169.92 
L 620.7975 169.92 
L 621.495 169.92 
L 622.1925 169.92 
L 622.89 169.92 
L 623.5875 169.92 
L 624.285 169.92 
L 624.9825 169.92 
L 625.68 169.92 
L 626.3775 169.92 
L 627.075 169.92 
L 627.7725 169.92 
L 628.47 169.92 
L 629.1675 169.92 
L 629.865 169.92 
L 630.5625 169.92 
L 631.26 169.92 
L 631.9575 169.92 
L 632.655 169.92 
L 633.3525 169.92 
L 634.05 169.92 
L 634.7475 169.92 
L 635.445 169.92 
L 636.1425 169.92 
L 636.84 169.92 
L 637.5375 169.92 
L 638.235 169.92 
L 638.9325 169.92 
L 639.63 169.92 
L 640.3275 169.92 
L 641.025 169.92 
L 641.7225 169.92 
L 642.42 169.92 
L 643.1175 169.92 
L 643.815 169.92 
L 644.5125 169.92 
L 645.21 169.92 
L 645.9075 169.92 
L 646.605 169.92 
L 646.605 169.92 
L 646.605 169.92 
L 645.9075 169.924241 
L 645.21 169.934167 
L 644.5125 169.951163 
L 643.815 169.976539 
L 643.1175 170.011515 
L 642.42 170.057206 
L 641.7225 170.114615 
L 641.025 170.184615 
L 640.3275 170.267943 
L 639.63 170.365189 
L 638.9325 170.476788 
L 638.235 170.603015 
L 637.5375 170.743976 
L 636.84 170.89961 
L 636.1425 171.069683 
L 635.445 171.253785 
L 634.7475 171.451339 
L 634.05 171.661594 
L 633.3525 171.883637 
L 632.655 172.116392 
L 631.9575 172.358631 
L 631.26 172.608981 
L 630.5625 172.865932 
L 629.865 173.127851 
L 629.1675 173.392991 
L 628.47 173.659507 
L 627.7725 173.925466 
L 627.075 174.188867 
L 626.3775 174.447651 
L 625.68 174.699722 
L 624.9825 174.942962 
L 624.285 175.175245 
L 623.5875 175.394461 
L 622.89 175.598526 
L 622.1925 175.785404 
L 621.495 175.953121 
L 620.7975 176.099784 
L 620.1 176.223595 
L 619.4025 176.322868 
L 618.705 176.396044 
L 618.0075 176.441702 
L 617.31 176.458574 
L 616.6125 176.445558 
L 615.915 176.401725 
L 615.2175 176.326331 
L 614.52 176.218825 
L 613.8225 176.078853 
L 613.125 175.906266 
L 612.4275 175.701123 
L 611.73 175.463689 
L 611.0325 175.194442 
L 610.335 174.894068 
L 609.6375 174.563457 
L 608.94 174.203704 
L 608.2425 173.816098 
L 607.545 173.402117 
L 606.8475 172.963422 
L 606.15 172.501843 
L 605.4525 172.01937 
L 604.755 171.518142 
L 604.0575 171.000433 
L 603.36 170.468635 
L 602.6625 169.925247 
L 601.965 169.37286 
L 601.2675 168.814134 
L 600.57 168.251789 
L 599.8725 167.688585 
L 599.175 167.127302 
L 598.4775 166.570726 
L 597.78 166.021631 
L 597.0825 165.48276 
L 596.385 164.956811 
L 595.6875 164.44642 
L 594.99 163.95414 
L 594.2925 163.482434 
L 593.595 163.033656 
L 592.8975 162.610036 
L 592.2 162.213671 
L 591.5025 161.84651 
L 590.805 161.510348 
L 590.1075 161.206811 
L 589.41 160.937353 
L 588.7125 160.703247 
L 588.015 160.505579 
L 587.3175 160.345243 
L 586.62 160.222944 
L 585.9225 160.139188 
L 585.225 160.094288 
L 584.5275 160.088364 
L 583.83 160.121343 
L 583.1325 160.192966 
L 582.435 160.30279 
L 581.7375 160.450194 
L 581.04 160.63439 
L 580.3425 160.854426 
L 579.645 161.109195 
L 578.9475 161.39745 
L 578.25 161.717806 
L 577.5525 162.06876 
L 576.855 162.448694 
L 576.1575 162.855891 
L 575.46 163.288546 
L 574.7625 163.74478 
L 574.065 164.222649 
L 573.3675 164.720158 
L 572.67 165.235273 
L 571.9725 165.765932 
L 571.275 166.310058 
L 570.5775 166.865568 
L 569.88 167.430385 
L 569.1825 168.002449 
L 568.485 168.579723 
L 567.7875 169.160205 
L 567.09 169.741935 
L 566.3925 170.323 
L 565.695 170.901545 
L 564.9975 171.475774 
L 564.3 172.043957 
L 563.6025 172.604433 
L 562.905 173.155614 
L 562.2075 173.695985 
L 561.51 174.224109 
L 560.8125 174.738623 
L 560.115 175.238241 
L 559.4175 175.721754 
L 558.72 176.188024 
L 558.0225 176.635987 
L 557.325 177.064646 
L 556.6275 177.47307 
L 555.93 177.860393 
L 555.2325 178.225806 
L 554.535 178.568555 
L 553.8375 178.887937 
L 553.14 179.183295 
L 552.4425 179.454017 
L 551.745 179.699526 
L 551.0475 179.919283 
L 550.35 180.112779 
L 549.6525 180.279534 
L 548.955 180.419093 
L 548.2575 180.531023 
L 547.56 180.614914 
L 546.8625 180.670374 
L 546.165 180.697034 
L 545.4675 180.694541 
L 544.77 180.662564 
L 544.0725 180.600792 
L 543.375 180.508939 
L 542.6775 180.386743 
L 541.98 180.233974 
L 541.2825 180.050433 
L 540.585 179.835962 
L 539.8875 179.590443 
L 539.19 179.313809 
L 538.4925 179.006047 
L 537.795 178.667207 
L 537.0975 178.297406 
L 536.4 177.896836 
L 535.7025 177.465776 
L 535.005 177.00459 
L 534.3075 176.513742 
L 533.61 175.993804 
L 532.9125 175.445454 
L 532.215 174.869494 
L 531.5175 174.266849 
L 530.82 173.638574 
L 530.1225 172.985863 
L 529.425 172.310048 
L 528.7275 171.612607 
L 528.03 170.895165 
L 527.3325 170.159496 
L 526.635 169.407526 
L 525.9375 168.641328 
L 525.24 167.863125 
L 524.5425 167.075287 
L 523.845 166.280325 
L 523.1475 165.480887 
L 522.45 164.679752 
L 521.7525 163.879821 
L 521.055 163.084109 
L 520.3575 162.295736 
L 519.66 161.517912 
L 518.9625 160.753925 
L 518.265 160.007131 
L 517.5675 159.280933 
L 516.87 158.578769 
L 516.1725 157.904092 
L 515.475 157.260355 
L 514.7775 156.650989 
L 514.08 156.079386 
L 513.3825 155.548877 
L 512.685 155.062714 
L 511.9875 154.624048 
L 511.29 154.235906 
L 510.5925 153.901176 
L 509.895 153.62258 
L 509.1975 153.402657 
L 508.5 153.243744 
L 507.8025 153.147956 
L 507.105 153.117166 
L 506.4075 153.152989 
L 505.71 153.256767 
L 505.0125 153.429551 
L 504.315 153.672089 
L 503.6175 153.984813 
L 502.92 154.367831 
L 502.2225 154.820911 
L 501.525 155.343484 
L 500.8275 155.934628 
L 500.13 156.593074 
L 499.4325 157.317198 
L 498.735 158.105025 
L 498.0375 158.954231 
L 497.34 159.862149 
L 496.6425 160.825776 
L 495.945 161.84178 
L 495.2475 162.906515 
L 494.55 164.016032 
L 493.8525 165.166096 
L 493.155 166.352201 
L 492.4575 167.569593 
L 491.76 168.81329 
L 491.0625 170.078103 
L 490.365 171.35866 
L 489.6675 172.649435 
L 488.97 173.944772 
L 488.2725 175.238916 
L 487.575 176.526038 
L 486.8775 177.800268 
L 486.18 179.055723 
L 485.4825 180.28654 
L 484.785 181.486906 
L 484.0875 182.651089 
L 483.39 183.773467 
L 482.6925 184.848563 
L 481.995 185.871069 
L 481.2975 186.835881 
L 480.6 187.738121 
L 479.9025 188.57317 
L 479.205 189.336691 
L 478.5075 190.024654 
L 477.81 190.633357 
L 477.1125 191.159451 
L 476.415 191.599954 
L 475.7175 191.952275 
L 475.02 192.214221 
L 474.3225 192.384019 
L 473.625 192.460318 
L 472.9275 192.442203 
L 472.23 192.3292 
L 471.5325 192.121279 
L 470.835 191.818855 
L 470.1375 191.422785 
L 469.44 190.93437 
L 468.7425 190.355341 
L 468.045 189.687859 
L 467.3475 188.934497 
L 466.65 188.098231 
L 465.9525 187.182425 
L 465.255 186.190812 
L 464.5575 185.127476 
L 463.86 183.996833 
L 463.1625 182.803606 
L 462.465 181.5528 
L 461.7675 180.249683 
L 461.07 178.899752 
L 460.3725 177.508711 
L 459.675 176.082438 
L 458.9775 174.626961 
L 458.28 173.148425 
L 457.5825 171.653062 
L 456.885 170.147163 
L 456.1875 168.637048 
L 455.49 167.129033 
L 454.7925 165.629403 
L 454.095 164.144384 
L 453.3975 162.680111 
L 452.7 161.242605 
L 452.0025 159.837743 
L 451.305 158.471233 
L 450.6075 157.148592 
L 449.91 155.875121 
L 449.2125 154.655883 
L 448.515 153.495686 
L 447.8175 152.399062 
L 447.12 151.370249 
L 446.4225 150.413181 
L 445.725 149.53147 
L 445.0275 148.728396 
L 444.33 148.006898 
L 443.6325 147.369567 
L 442.935 146.818635 
L 442.2375 146.355978 
L 441.54 145.983107 
L 440.8425 145.70117 
L 440.145 145.510955 
L 439.4475 145.412887 
L 438.75 145.407035 
L 438.0525 145.493119 
L 437.355 145.670513 
L 436.6575 145.938257 
L 435.96 146.29506 
L 435.2625 146.739319 
L 434.565 147.269122 
L 433.8675 147.882265 
L 433.17 148.576265 
L 432.4725 149.34837 
L 431.775 150.195577 
L 431.0775 151.114645 
L 430.38 152.102112 
L 429.6825 153.154306 
L 428.985 154.267367 
L 428.2875 155.437258 
L 427.59 156.659781 
L 426.8925 157.930597 
L 426.195 159.245237 
L 425.4975 160.599121 
L 424.8 161.987572 
L 424.1025 163.405828 
L 423.405 164.849066 
L 422.7075 166.312405 
L 422.01 167.790929 
L 421.3125 169.279697 
L 420.615 170.773756 
L 419.9175 172.268158 
L 419.22 173.757966 
L 418.5225 175.238272 
L 417.825 176.704209 
L 417.1275 178.150957 
L 416.43 179.573759 
L 415.7325 180.967933 
L 415.035 182.328877 
L 414.3375 183.652084 
L 413.64 184.933151 
L 412.9425 186.167787 
L 412.245 187.351827 
L 411.5475 188.481237 
L 410.85 189.552125 
L 410.1525 190.56075 
L 409.455 191.503535 
L 408.7575 192.377068 
L 408.06 193.17812 
L 407.3625 193.903647 
L 406.665 194.550805 
L 405.9675 195.116954 
L 405.27 195.599669 
L 404.5725 195.99675 
L 403.875 196.306227 
L 403.1775 196.526373 
L 402.48 196.655711 
L 401.7825 196.69302 
L 401.085 196.637348 
L 400.3875 196.488014 
L 399.69 196.244619 
L 398.9925 195.907054 
L 398.295 195.475504 
L 397.5975 194.950455 
L 396.9 194.3327 
L 396.2025 193.623345 
L 395.505 192.823809 
L 394.8075 191.935833 
L 394.11 190.961477 
L 393.4125 189.903125 
L 392.715 188.763484 
L 392.0175 187.545584 
L 391.32 186.252774 
L 390.6225 184.88872 
L 389.925 183.457401 
L 389.2275 181.963103 
L 388.53 180.410409 
L 387.8325 178.804193 
L 387.135 177.149607 
L 386.4375 175.452073 
L 385.74 173.717263 
L 385.0425 171.95109 
L 384.345 170.159686 
L 383.6475 168.349389 
L 382.95 166.526717 
L 382.2525 164.698352 
L 381.555 162.871115 
L 380.8575 161.05194 
L 380.16 159.247851 
L 379.4625 157.465934 
L 378.765 155.713311 
L 378.0675 153.997108 
L 377.37 152.324427 
L 376.6725 150.702315 
L 375.975 149.137735 
L 375.2775 147.63753 
L 374.58 146.208396 
L 373.8825 144.856844 
L 373.185 143.589175 
L 372.4875 142.411443 
L 371.79 141.329424 
L 371.0925 140.348589 
L 370.395 139.474069 
L 369.6975 138.710629 
L 369 138.062637 
L 368.3025 137.534042 
L 367.605 137.128344 
L 366.9075 136.848573 
L 366.21 136.697266 
L 365.5125 136.67645 
L 364.815 136.78762 
L 364.1175 137.031727 
L 363.42 137.409165 
L 362.7225 137.919758 
L 362.025 138.562757 
L 361.3275 139.33683 
L 360.63 140.240064 
L 359.9325 141.269963 
L 359.235 142.423453 
L 358.5375 143.696889 
L 357.84 145.086064 
L 357.1425 146.586221 
L 356.445 148.19207 
L 355.7475 149.897805 
L 355.05 151.697127 
L 354.3525 153.583266 
L 353.655 155.549008 
L 352.9575 157.586726 
L 352.26 159.688407 
L 351.5625 161.845693 
L 350.865 164.049908 
L 350.1675 166.292106 
L 349.47 168.5631 
L 348.7725 170.85351 
L 348.075 173.153804 
L 347.3775 175.45434 
L 346.68 177.745411 
L 345.9825 180.017291 
L 345.285 182.260278 
L 344.5875 184.464741 
L 343.89 186.621167 
L 343.1925 188.720202 
L 342.495 190.752699 
L 341.7975 192.709761 
L 341.1 194.582779 
L 340.4025 196.363483 
L 339.705 198.043971 
L 339.0075 199.616753 
L 338.31 201.074788 
L 337.6125 202.411512 
L 336.915 203.620876 
L 336.2175 204.697371 
L 335.52 205.636057 
L 334.8225 206.432582 
L 334.125 207.08321 
L 333.4275 207.584831 
L 332.73 207.934983 
L 332.0325 208.131856 
L 331.335 208.174306 
L 330.6375 208.061856 
L 329.94 207.794702 
L 329.2425 207.373707 
L 328.545 206.800398 
L 327.8475 206.076957 
L 327.15 205.206214 
L 326.4525 204.191627 
L 325.755 203.037267 
L 325.0575 201.747801 
L 324.36 200.328464 
L 323.6625 198.785039 
L 322.965 197.123824 
L 322.2675 195.351607 
L 321.57 193.475631 
L 320.8725 191.503559 
L 320.175 189.443443 
L 319.4775 187.303681 
L 318.78 185.092983 
L 318.0825 182.820329 
L 317.385 180.49493 
L 316.6875 178.126186 
L 315.99 175.723643 
L 315.2925 173.296956 
L 314.595 170.855841 
L 313.8975 168.410038 
L 313.2 165.969268 
L 312.5025 163.543193 
L 311.805 161.141373 
L 311.1075 158.773233 
L 310.41 156.44802 
L 309.7125 154.174767 
L 309.015 151.962261 
L 308.3175 149.819007 
L 307.62 147.753195 
L 306.9225 145.772673 
L 306.225 143.884917 
L 305.5275 142.097004 
L 304.83 140.415588 
L 304.1325 138.846881 
L 303.435 137.396629 
L 302.7375 136.070095 
L 302.04 134.872048 
L 301.3425 133.806744 
L 300.645 132.877916 
L 299.9475 132.088769 
L 299.25 131.441969 
L 298.5525 130.939643 
L 297.855 130.583372 
L 297.1575 130.374192 
L 296.46 130.312599 
L 295.7625 130.398548 
L 295.065 130.631463 
L 294.3675 131.010241 
L 293.67 131.53326 
L 292.9725 132.198396 
L 292.275 133.003026 
L 291.5775 133.94405 
L 290.88 135.017899 
L 290.1825 136.220558 
L 289.485 137.547575 
L 288.7875 138.994088 
L 288.09 140.554837 
L 287.3925 142.224188 
L 286.695 143.996154 
L 285.9975 145.864414 
L 285.3 147.822339 
L 284.6025 149.863011 
L 283.905 151.979248 
L 283.2075 154.163627 
L 282.51 156.408511 
L 281.8125 158.706068 
L 281.115 161.048299 
L 280.4175 163.427064 
L 279.72 165.834101 
L 279.0225 168.261058 
L 278.325 170.699513 
L 277.6275 173.141001 
L 276.93 175.577038 
L 276.2325 177.999148 
L 275.535 180.398884 
L 274.8375 182.767856 
L 274.14 185.097757 
L 273.4425 187.38038 
L 272.745 189.607652 
L 272.0475 191.771651 
L 271.35 193.864632 
L 270.6525 195.879052 
L 269.955 197.807592 
L 269.2575 199.643178 
L 268.56 201.379008 
L 267.8625 203.00857 
L 267.165 204.525666 
L 266.4675 205.924433 
L 265.77 207.199361 
L 265.0725 208.345319 
L 264.375 209.357568 
L 263.6775 210.231784 
L 262.98 210.964072 
L 262.2825 211.550989 
L 261.585 211.989553 
L 260.8875 212.277265 
L 260.19 212.412116 
L 259.4925 212.392606 
L 258.795 212.217752 
L 258.0975 211.8871 
L 257.4 211.400734 
L 256.7025 210.75928 
L 256.005 209.963915 
L 255.3075 209.016371 
L 254.61 207.918938 
L 253.9125 206.674458 
L 253.215 205.286334 
L 252.5175 203.758518 
L 251.82 202.095508 
L 251.1225 200.302343 
L 250.425 198.384591 
L 249.7275 196.348336 
L 249.03 194.200166 
L 248.3325 191.947155 
L 247.635 189.596848 
L 246.9375 187.157234 
L 246.24 184.63673 
L 245.5425 182.044149 
L 244.845 179.388679 
L 244.1475 176.679847 
L 243.45 173.927493 
L 242.7525 171.141735 
L 242.055 168.33293 
L 241.3575 165.511644 
L 240.66 162.688605 
L 239.9625 159.874669 
L 239.265 157.080777 
L 238.5675 154.31791 
L 237.87 151.597046 
L 237.1725 148.929117 
L 236.475 146.324963 
L 235.7775 143.795283 
L 235.08 141.350595 
L 234.3825 139.001185 
L 233.685 136.757061 
L 232.9875 134.627911 
L 232.29 132.623056 
L 231.5925 130.751406 
L 230.895 129.021417 
L 230.1975 127.44105 
L 229.5 126.017731 
L 228.8025 124.758314 
L 228.105 123.669042 
L 227.4075 122.755514 
L 226.71 122.022658 
L 226.0125 121.474696 
L 225.315 121.11512 
L 224.6175 120.946673 
L 223.92 120.971323 
L 223.2225 121.190251 
L 222.525 121.603837 
L 221.8275 122.21165 
L 221.13 123.012441 
L 220.4325 124.004144 
L 219.735 125.183877 
L 219.0375 126.547945 
L 218.34 128.091853 
L 217.6425 129.810315 
L 216.945 131.697276 
L 216.2475 133.74593 
L 215.55 135.948744 
L 214.8525 138.297489 
L 214.155 140.783269 
L 213.4575 143.396556 
L 212.76 146.127232 
L 212.0625 148.964624 
L 211.365 151.897555 
L 210.6675 154.914385 
L 209.97 158.003065 
L 209.2725 161.151185 
L 208.575 164.34603 
L 207.8775 167.574633 
L 207.18 170.823833 
L 206.4825 174.080333 
L 205.785 177.330757 
L 205.0875 180.56171 
L 204.39 183.759838 
L 203.6925 186.911886 
L 202.995 190.004761 
L 202.2975 193.025583 
L 201.6 195.96175 
L 200.9025 198.800991 
L 200.205 201.531421 
L 199.5075 204.141593 
L 198.81 206.620552 
L 198.1125 208.957882 
L 197.415 211.143751 
L 196.7175 213.168957 
L 196.02 215.024967 
L 195.3225 216.703955 
L 194.625 218.198836 
L 193.9275 219.503296 
L 193.23 220.611819 
L 192.5325 221.519712 
L 191.835 222.223122 
L 191.1375 222.719052 
L 190.44 223.005373 
L 189.7425 223.080832 
L 189.045 222.945054 
L 188.3475 222.598542 
L 187.65 222.042675 
L 186.9525 221.279693 
L 186.255 220.312692 
L 185.5575 219.145604 
L 184.86 217.783177 
L 184.1625 216.230954 
L 183.465 214.495245 
L 182.7675 212.583095 
L 182.07 210.502257 
L 181.3725 208.261149 
L 180.675 205.868819 
L 179.9775 203.334908 
L 179.28 200.669597 
L 178.5825 197.883573 
L 177.885 194.987974 
L 177.1875 191.994344 
L 176.49 188.914583 
L 175.7925 185.760895 
L 175.095 182.545737 
L 174.3975 179.28177 
L 173.7 175.981801 
L 173.0025 172.658734 
L 172.305 169.325517 
L 171.6075 165.99509 
L 170.91 162.680333 
L 170.2125 159.394019 
L 169.515 156.148758 
L 168.8175 152.956955 
L 168.12 149.830758 
L 167.4225 146.78202 
L 166.725 143.822245 
L 166.0275 140.962558 
L 165.33 138.213655 
L 164.6325 135.585772 
L 163.935 133.088649 
L 163.2375 130.731495 
L 162.54 128.522957 
L 161.8425 126.471097 
L 161.145 124.58336 
L 160.4475 122.866556 
L 159.75 121.326839 
L 159.0525 119.969685 
L 158.355 118.799886 
L 157.6575 117.821527 
L 156.96 117.037986 
L 156.2625 116.451918 
L 155.565 116.065259 
L 154.8675 115.879218 
L 154.17 115.894281 
L 153.4725 116.110209 
L 152.775 116.526049 
L 152.0775 117.14014 
L 151.38 117.950118 
L 150.6825 118.952935 
L 149.985 120.144867 
L 149.2875 121.521534 
L 148.59 123.077913 
L 147.8925 124.808364 
L 147.195 126.706645 
L 146.4975 128.765938 
L 145.8 130.978873 
L 145.1025 133.337553 
L 144.405 135.833584 
L 143.7075 138.458098 
L 143.01 141.201788 
L 142.3125 144.054936 
L 141.615 147.007447 
L 140.9175 150.048878 
L 140.22 153.168474 
L 139.5225 156.355204 
L 138.825 159.597794 
L 138.1275 162.884761 
L 137.43 166.204454 
L 136.7325 169.545089 
L 136.035 172.894781 
L 135.3375 176.241592 
L 134.64 179.573559 
L 133.9425 182.878738 
L 133.245 186.145241 
L 132.5475 189.361271 
L 131.85 192.515165 
L 131.1525 195.595429 
L 130.455 198.590777 
L 129.7575 201.490168 
L 129.06 204.282845 
L 128.3625 206.958367 
L 127.665 209.506652 
L 126.9675 211.918007 
L 126.27 214.183164 
L 125.5725 216.293315 
L 124.875 218.240146 
L 124.1775 220.015864 
L 123.48 221.613233 
L 122.7825 223.0256 
L 122.085 224.246923 
L 121.3875 225.271799 
L 120.69 226.095487 
L 119.9925 226.713932 
L 119.295 227.123784 
L 118.5975 227.32242 
L 117.9 227.307956 
L 117.2025 227.079266 
L 116.505 226.635992 
L 115.8075 225.978555 
L 115.11 225.10816 
L 114.4125 224.0268 
L 113.715 222.737263 
L 113.0175 221.243122 
L 112.32 219.548741 
L 111.6225 217.659258 
L 110.925 215.580584 
L 110.2275 213.319382 
L 109.53 210.883058 
L 108.8325 208.279735 
L 108.135 205.518237 
L 107.4375 202.608059 
L 106.74 199.559339 
L 106.0425 196.382831 
L 105.345 193.089865 
L 104.6475 189.692312 
L 103.95 186.202546 
L 103.2525 182.633399 
L 102.555 178.998115 
L 101.8575 175.310305 
L 101.16 171.583896 
L 100.4625 167.833079 
L 99.765 164.072257 
L 99.0675 160.315985 
L 98.37 156.578918 
L 97.6725 152.875752 
L 96.975 149.221163 
L 96.2775 145.629746 
L 95.58 142.115961 
L 94.8825 138.694065 
L 94.185 135.378056 
L 93.4875 132.181611 
L 92.79 129.118026 
L 92.0925 126.200161 
L 91.395 123.440378 
L 90.6975 120.850486 
L 90 118.441688 
z
" style="fill:#e0ffff;"/>
   </g>
   <g id="line2d_19">
    <path clip-path="url(#p62e16ae2cc)" d="M 90 118.441688 
L 91.395 123.440378 
L 92.79 129.118026 
L 94.8825 138.694065 
L 97.6725 152.875752 
L 105.345 193.089865 
L 107.4375 202.608059 
L 109.53 210.883058 
L 110.925 215.580584 
L 112.32 219.548741 
L 113.715 222.737263 
L 115.11 225.10816 
L 115.8075 225.978555 
L 116.505 226.635992 
L 117.2025 227.079266 
L 117.9 227.307956 
L 118.5975 227.32242 
L 119.295 227.123784 
L 119.9925 226.713932 
L 120.69 226.095487 
L 121.3875 225.271799 
L 122.7825 223.0256 
L 124.1775 220.015864 
L 125.5725 216.293315 
L 126.9675 211.918007 
L 128.3625 206.958367 
L 130.455 198.590777 
L 133.245 186.145241 
L 142.3125 144.054936 
L 144.405 135.833584 
L 145.8 130.978873 
L 147.195 126.706645 
L 148.59 123.077913 
L 149.985 120.144867 
L 151.38 117.950118 
L 152.0775 117.14014 
L 152.775 116.526049 
L 153.4725 116.110209 
L 154.17 115.894281 
L 154.8675 115.879218 
L 155.565 116.065259 
L 156.2625 116.451918 
L 156.96 117.037986 
L 157.6575 117.821527 
L 158.355 118.799886 
L 159.75 121.326839 
L 161.145 124.58336 
L 162.54 128.522957 
L 163.935 133.088649 
L 166.0275 140.962558 
L 168.12 149.830758 
L 170.91 162.680333 
L 177.1875 191.994344 
L 179.28 200.669597 
L 181.3725 208.261149 
L 182.7675 212.583095 
L 184.1625 216.230954 
L 185.5575 219.145604 
L 186.9525 221.279693 
L 187.65 222.042675 
L 188.3475 222.598542 
L 189.045 222.945054 
L 189.7425 223.080832 
L 190.44 223.005373 
L 191.1375 222.719052 
L 191.835 222.223122 
L 192.5325 221.519712 
L 193.23 220.611819 
L 194.625 218.198836 
L 196.02 215.024967 
L 197.415 211.143751 
L 198.81 206.620552 
L 200.9025 198.800991 
L 202.995 190.004761 
L 206.4825 174.080333 
L 210.6675 154.914385 
L 212.76 146.127232 
L 214.8525 138.297489 
L 216.2475 133.74593 
L 217.6425 129.810315 
L 219.0375 126.547945 
L 220.4325 124.004144 
L 221.8275 122.21165 
L 222.525 121.603837 
L 223.2225 121.190251 
L 223.92 120.971323 
L 224.6175 120.946673 
L 225.315 121.11512 
L 226.0125 121.474696 
L 226.71 122.022658 
L 227.4075 122.755514 
L 228.8025 124.758314 
L 230.1975 127.44105 
L 231.5925 130.751406 
L 232.9875 134.627911 
L 235.08 141.350595 
L 237.1725 148.929117 
L 240.66 162.688605 
L 245.5425 182.044149 
L 247.635 189.596848 
L 249.7275 196.348336 
L 251.1225 200.302343 
L 252.5175 203.758518 
L 253.9125 206.674458 
L 255.3075 209.016371 
L 256.7025 210.75928 
L 257.4 211.400734 
L 258.0975 211.8871 
L 258.795 212.217752 
L 259.4925 212.392606 
L 260.19 212.412116 
L 260.8875 212.277265 
L 261.585 211.989553 
L 262.2825 211.550989 
L 262.98 210.964072 
L 264.375 209.357568 
L 265.77 207.199361 
L 267.165 204.525666 
L 268.56 201.379008 
L 270.6525 195.879052 
L 272.745 189.607652 
L 275.535 180.398884 
L 283.905 151.979248 
L 285.9975 145.864414 
L 288.09 140.554837 
L 289.485 137.547575 
L 290.88 135.017899 
L 292.275 133.003026 
L 293.67 131.53326 
L 294.3675 131.010241 
L 295.065 130.631463 
L 295.7625 130.398548 
L 296.46 130.312599 
L 297.1575 130.374192 
L 297.855 130.583372 
L 298.5525 130.939643 
L 299.25 131.441969 
L 300.645 132.877916 
L 302.04 134.872048 
L 303.435 137.396629 
L 304.83 140.415588 
L 306.225 143.884917 
L 308.3175 149.819007 
L 310.41 156.44802 
L 313.8975 168.410038 
L 318.0825 182.820329 
L 320.175 189.443443 
L 322.2675 195.351607 
L 323.6625 198.785039 
L 325.0575 201.747801 
L 326.4525 204.191627 
L 327.8475 206.076957 
L 329.2425 207.373707 
L 329.94 207.794702 
L 330.6375 208.061856 
L 331.335 208.174306 
L 332.0325 208.131856 
L 332.73 207.934983 
L 333.4275 207.584831 
L 334.125 207.08321 
L 335.52 205.636057 
L 336.915 203.620876 
L 338.31 201.074788 
L 339.705 198.043971 
L 341.1 194.582779 
L 343.1925 188.720202 
L 345.9825 180.017291 
L 352.9575 157.586726 
L 355.05 151.697127 
L 357.1425 146.586221 
L 358.5375 143.696889 
L 359.9325 141.269963 
L 361.3275 139.33683 
L 362.7225 137.919758 
L 364.1175 137.031727 
L 364.815 136.78762 
L 365.5125 136.67645 
L 366.21 136.697266 
L 366.9075 136.848573 
L 367.605 137.128344 
L 369 138.062637 
L 370.395 139.474069 
L 371.79 141.329424 
L 373.185 143.589175 
L 374.58 146.208396 
L 376.6725 150.702315 
L 379.4625 157.465934 
L 388.53 180.410409 
L 390.6225 184.88872 
L 392.715 188.763484 
L 394.11 190.961477 
L 395.505 192.823809 
L 396.9 194.3327 
L 398.295 195.475504 
L 399.69 196.244619 
L 401.085 196.637348 
L 402.48 196.655711 
L 403.875 196.306227 
L 405.27 195.599669 
L 406.665 194.550805 
L 408.06 193.17812 
L 409.455 191.503535 
L 410.85 189.552125 
L 412.9425 186.167787 
L 415.035 182.328877 
L 417.825 176.704209 
L 426.195 159.245237 
L 428.2875 155.437258 
L 430.38 152.102112 
L 431.775 150.195577 
L 433.17 148.576265 
L 434.565 147.269122 
L 435.96 146.29506 
L 437.355 145.670513 
L 438.75 145.407035 
L 440.145 145.510955 
L 441.54 145.983107 
L 442.935 146.818635 
L 444.33 148.006898 
L 445.725 149.53147 
L 447.12 151.370249 
L 448.515 153.495686 
L 450.6075 157.148592 
L 452.7 161.242605 
L 456.1875 168.637048 
L 460.3725 177.508711 
L 462.465 181.5528 
L 464.5575 185.127476 
L 465.9525 187.182425 
L 467.3475 188.934497 
L 468.7425 190.355341 
L 470.1375 191.422785 
L 471.5325 192.121279 
L 472.9275 192.442203 
L 474.3225 192.384019 
L 475.7175 191.952275 
L 477.1125 191.159451 
L 478.5075 190.024654 
L 479.9025 188.57317 
L 481.2975 186.835881 
L 483.39 183.773467 
L 485.4825 180.28654 
L 488.97 173.944772 
L 493.155 166.352201 
L 495.2475 162.906515 
L 497.34 159.862149 
L 499.4325 157.317198 
L 500.8275 155.934628 
L 502.2225 154.820911 
L 503.6175 153.984813 
L 505.0125 153.429551 
L 506.4075 153.152989 
L 507.8025 153.147956 
L 509.1975 153.402657 
L 510.5925 153.901176 
L 511.9875 154.624048 
L 513.3825 155.548877 
L 515.475 157.260355 
L 517.5675 159.280933 
L 520.3575 162.295736 
L 528.7275 171.612607 
L 531.5175 174.266849 
L 533.61 175.993804 
L 535.7025 177.465776 
L 537.795 178.667207 
L 539.8875 179.590443 
L 541.98 180.233974 
L 544.0725 180.600792 
L 546.165 180.697034 
L 548.2575 180.531023 
L 550.35 180.112779 
L 552.4425 179.454017 
L 554.535 178.568555 
L 556.6275 177.47307 
L 559.4175 175.721754 
L 562.2075 173.695985 
L 566.3925 170.323 
L 572.67 165.235273 
L 575.46 163.288546 
L 577.5525 162.06876 
L 579.645 161.109195 
L 581.7375 160.450194 
L 583.83 160.121343 
L 585.225 160.094288 
L 586.62 160.222944 
L 588.015 160.505579 
L 590.1075 161.206811 
L 592.2 162.213671 
L 594.2925 163.482434 
L 597.0825 165.48276 
L 606.8475 172.963422 
L 608.94 174.203704 
L 611.0325 175.194442 
L 613.125 175.906266 
L 615.2175 176.326331 
L 617.31 176.458574 
L 619.4025 176.322868 
L 621.495 175.953121 
L 624.285 175.175245 
L 627.7725 173.925466 
L 633.3525 171.883637 
L 636.1425 171.069683 
L 638.9325 170.476788 
L 641.7225 170.114615 
L 645.21 169.934167 
L 646.605 169.92 
L 646.605 169.92 
" style="fill:none;stroke:#008080;stroke-linecap:round;stroke-width:1.75;"/>
   </g>
   <g id="patch_3">
    <path d="M 90 270.72 
L 90 69.12 
" style="fill:none;stroke:#262626;stroke-linecap:square;stroke-linejoin:miter;stroke-width:1.25;"/>
   </g>
   <g id="patch_4">
    <path d="M 90 270.72 
L 648 270.72 
" style="fill:none;stroke:#262626;stroke-linecap:square;stroke-linejoin:miter;stroke-width:1.25;"/>
   </g>
  </g>
  <g id="axes_2">
   <g id="patch_5">
    <path d="M 90 512.64 
L 648 512.64 
L 648 311.04 
L 90 311.04 
z
" style="fill:#ffffff;"/>
   </g>
   <g id="matplotlib.axis_3">
    <g id="xtick_10">
     <g id="line2d_20">
      <g>
       <use style="fill:#262626;stroke:#262626;" x="191.454545" xlink:href="#mc4fddc8b84" y="512.64"/>
      </g>
     </g>
     <g id="text_19">
      <!-- 200 -->
      <g style="fill:#262626;" transform="translate(183.113139 532.797812)scale(0.1 -0.1)">
       <use xlink:href="#ArialMT-32"/>
       <use x="55.615234" xlink:href="#ArialMT-30"/>
       <use x="111.230469" xlink:href="#ArialMT-30"/>
      </g>
     </g>
    </g>
    <g id="xtick_11">
     <g id="line2d_21">
      <g>
       <use style="fill:#262626;stroke:#262626;" x="304.181818" xlink:href="#mc4fddc8b84" y="512.64"/>
      </g>
     </g>
     <g id="text_20">
      <!-- 400 -->
      <g style="fill:#262626;" transform="translate(295.840412 532.797812)scale(0.1 -0.1)">
       <use xlink:href="#ArialMT-34"/>
       <use x="55.615234" xlink:href="#ArialMT-30"/>
       <use x="111.230469" xlink:href="#ArialMT-30"/>
      </g>
     </g>
    </g>
    <g id="xtick_12">
     <g id="line2d_22">
      <g>
       <use style="fill:#262626;stroke:#262626;" x="416.909091" xlink:href="#mc4fddc8b84" y="512.64"/>
      </g>
     </g>
     <g id="text_21">
      <!-- 600 -->
      <g style="fill:#262626;" transform="translate(408.567685 532.797812)scale(0.1 -0.1)">
       <use xlink:href="#ArialMT-36"/>
       <use x="55.615234" xlink:href="#ArialMT-30"/>
       <use x="111.230469" xlink:href="#ArialMT-30"/>
      </g>
     </g>
    </g>
    <g id="xtick_13">
     <g id="line2d_23">
      <g>
       <use style="fill:#262626;stroke:#262626;" x="529.636364" xlink:href="#mc4fddc8b84" y="512.64"/>
      </g>
     </g>
     <g id="text_22">
      <!-- 800 -->
      <g style="fill:#262626;" transform="translate(521.294957 532.797812)scale(0.1 -0.1)">
       <use xlink:href="#ArialMT-38"/>
       <use x="55.615234" xlink:href="#ArialMT-30"/>
       <use x="111.230469" xlink:href="#ArialMT-30"/>
      </g>
     </g>
    </g>
    <g id="xtick_14">
     <g id="line2d_24">
      <g>
       <use style="fill:#262626;stroke:#262626;" x="642.363636" xlink:href="#mc4fddc8b84" y="512.64"/>
      </g>
     </g>
     <g id="text_23">
      <!-- 1000 -->
      <g style="fill:#262626;" transform="translate(631.241761 532.797812)scale(0.1 -0.1)">
       <use xlink:href="#ArialMT-31"/>
       <use x="55.615234" xlink:href="#ArialMT-30"/>
       <use x="111.230469" xlink:href="#ArialMT-30"/>
       <use x="166.845703" xlink:href="#ArialMT-30"/>
      </g>
     </g>
    </g>
   </g>
   <g id="matplotlib.axis_4">
    <g id="ytick_10">
     <g id="line2d_25">
      <g>
       <use style="fill:#262626;stroke:#262626;" x="90" xlink:href="#m7c16bb8bec" y="512.64"/>
      </g>
     </g>
     <g id="text_24">
      <!-- 0 -->
      <g style="fill:#262626;" transform="translate(71.439063 516.218906)scale(0.1 -0.1)">
       <use xlink:href="#ArialMT-30"/>
      </g>
     </g>
    </g>
    <g id="ytick_11">
     <g id="line2d_26">
      <g>
       <use style="fill:#262626;stroke:#262626;" x="90" xlink:href="#m7c16bb8bec" y="487.44"/>
      </g>
     </g>
     <g id="text_25">
      <!-- 5 -->
      <g style="fill:#262626;" transform="translate(71.439063 491.018906)scale(0.1 -0.1)">
       <use xlink:href="#ArialMT-35"/>
      </g>
     </g>
    </g>
    <g id="ytick_12">
     <g id="line2d_27">
      <g>
       <use style="fill:#262626;stroke:#262626;" x="90" xlink:href="#m7c16bb8bec" y="462.24"/>
      </g>
     </g>
     <g id="text_26">
      <!-- 10 -->
      <g style="fill:#262626;" transform="translate(65.878125 465.818906)scale(0.1 -0.1)">
       <use xlink:href="#ArialMT-31"/>
       <use x="55.615234" xlink:href="#ArialMT-30"/>
      </g>
     </g>
    </g>
    <g id="ytick_13">
     <g id="line2d_28">
      <g>
       <use style="fill:#262626;stroke:#262626;" x="90" xlink:href="#m7c16bb8bec" y="437.04"/>
      </g>
     </g>
     <g id="text_27">
      <!-- 15 -->
      <g style="fill:#262626;" transform="translate(65.878125 440.618906)scale(0.1 -0.1)">
       <use xlink:href="#ArialMT-31"/>
       <use x="55.615234" xlink:href="#ArialMT-35"/>
      </g>
     </g>
    </g>
    <g id="ytick_14">
     <g id="line2d_29">
      <g>
       <use style="fill:#262626;stroke:#262626;" x="90" xlink:href="#m7c16bb8bec" y="411.84"/>
      </g>
     </g>
     <g id="text_28">
      <!-- 20 -->
      <g style="fill:#262626;" transform="translate(65.878125 415.418906)scale(0.1 -0.1)">
       <use xlink:href="#ArialMT-32"/>
       <use x="55.615234" xlink:href="#ArialMT-30"/>
      </g>
     </g>
    </g>
    <g id="ytick_15">
     <g id="line2d_30">
      <g>
       <use style="fill:#262626;stroke:#262626;" x="90" xlink:href="#m7c16bb8bec" y="386.64"/>
      </g>
     </g>
     <g id="text_29">
      <!-- 25 -->
      <g style="fill:#262626;" transform="translate(65.878125 390.218906)scale(0.1 -0.1)">
       <use xlink:href="#ArialMT-32"/>
       <use x="55.615234" xlink:href="#ArialMT-35"/>
      </g>
     </g>
    </g>
    <g id="ytick_16">
     <g id="line2d_31">
      <g>
       <use style="fill:#262626;stroke:#262626;" x="90" xlink:href="#m7c16bb8bec" y="361.44"/>
      </g>
     </g>
     <g id="text_30">
      <!-- 30 -->
      <g style="fill:#262626;" transform="translate(65.878125 365.018906)scale(0.1 -0.1)">
       <use xlink:href="#ArialMT-33"/>
       <use x="55.615234" xlink:href="#ArialMT-30"/>
      </g>
     </g>
    </g>
    <g id="ytick_17">
     <g id="line2d_32">
      <g>
       <use style="fill:#262626;stroke:#262626;" x="90" xlink:href="#m7c16bb8bec" y="336.24"/>
      </g>
     </g>
     <g id="text_31">
      <!-- 35 -->
      <g style="fill:#262626;" transform="translate(65.878125 339.818906)scale(0.1 -0.1)">
       <use xlink:href="#ArialMT-33"/>
       <use x="55.615234" xlink:href="#ArialMT-35"/>
      </g>
     </g>
    </g>
    <g id="ytick_18">
     <g id="line2d_33">
      <g>
       <use style="fill:#262626;stroke:#262626;" x="90" xlink:href="#m7c16bb8bec" y="311.04"/>
      </g>
     </g>
     <g id="text_32">
      <!-- 40 -->
      <g style="fill:#262626;" transform="translate(65.878125 314.618906)scale(0.1 -0.1)">
       <use xlink:href="#ArialMT-34"/>
       <use x="55.615234" xlink:href="#ArialMT-30"/>
      </g>
     </g>
    </g>
   </g>
   <g id="line2d_34">
    <path clip-path="url(#p5ca1bf2b5c)" d="M 90 488.562059 
L 95.636364 492.871917 
L 101.272727 491.915277 
L 106.909091 490.291312 
L 112.545455 492.192009 
L 118.181818 490.692663 
L 123.818182 490.203121 
L 129.454545 491.968658 
L 135.090909 490.163889 
L 140.727273 490.392837 
L 146.363636 490.241829 
L 152 489.156296 
L 157.636364 490.240305 
L 163.272727 490.645166 
L 168.909091 488.187222 
L 174.545455 488.633986 
L 180.181818 487.313077 
L 185.818182 487.018973 
L 191.454545 487.338343 
L 197.090909 486.121391 
L 202.727273 487.201243 
L 208.363636 484.042031 
L 214 483.157918 
L 219.636364 483.169266 
L 225.272727 482.846357 
L 230.909091 480.992047 
L 236.545455 479.145187 
L 242.181818 476.443916 
L 247.818182 475.314111 
L 253.454545 475.654125 
L 259.090909 473.305387 
L 264.727273 469.316541 
L 270.363636 463.226508 
L 276 459.185057 
L 281.636364 457.614718 
L 287.272727 454.794335 
L 292.909091 445.504843 
L 298.545455 423.732573 
L 304.181818 397.596726 
L 309.818182 374.961344 
L 315.454545 359.936381 
L 321.090909 350.604229 
" style="fill:none;stroke:#b22222;stroke-linecap:round;stroke-width:1.75;"/>
   </g>
   <g id="patch_6">
    <path d="M 90 512.64 
L 90 311.04 
" style="fill:none;stroke:#262626;stroke-linecap:square;stroke-linejoin:miter;stroke-width:1.25;"/>
   </g>
   <g id="patch_7">
    <path d="M 90 512.64 
L 648 512.64 
" style="fill:none;stroke:#262626;stroke-linecap:square;stroke-linejoin:miter;stroke-width:1.25;"/>
   </g>
   <g id="text_33">
    <!-- f = 430 Hz -->
    <defs>
     <path d="M 8.6875 0 
L 8.6875 45.015625 
L 0.921875 45.015625 
L 0.921875 51.859375 
L 8.6875 51.859375 
L 8.6875 57.375 
Q 8.6875 62.59375 9.625 65.140625 
Q 10.890625 68.5625 14.078125 70.671875 
Q 17.28125 72.796875 23.046875 72.796875 
Q 26.765625 72.796875 31.25 71.921875 
L 29.9375 64.265625 
Q 27.203125 64.75 24.75 64.75 
Q 20.75 64.75 19.09375 63.03125 
Q 17.4375 61.328125 17.4375 56.640625 
L 17.4375 51.859375 
L 27.546875 51.859375 
L 27.546875 45.015625 
L 17.4375 45.015625 
L 17.4375 0 
z
" id="ArialMT-66"/>
     <path id="ArialMT-20"/>
     <path d="M 52.828125 42.09375 
L 5.5625 42.09375 
L 5.5625 50.296875 
L 52.828125 50.296875 
z
M 52.828125 20.359375 
L 5.5625 20.359375 
L 5.5625 28.5625 
L 52.828125 28.5625 
z
" id="ArialMT-3d"/>
     <path d="M 8.015625 0 
L 8.015625 71.578125 
L 17.484375 71.578125 
L 17.484375 42.1875 
L 54.6875 42.1875 
L 54.6875 71.578125 
L 64.15625 71.578125 
L 64.15625 0 
L 54.6875 0 
L 54.6875 33.734375 
L 17.484375 33.734375 
L 17.484375 0 
z
" id="ArialMT-48"/>
     <path d="M 1.953125 0 
L 1.953125 7.125 
L 34.96875 45.015625 
Q 29.34375 44.734375 25.046875 44.734375 
L 3.90625 44.734375 
L 3.90625 51.859375 
L 46.296875 51.859375 
L 46.296875 46.046875 
L 18.21875 13.140625 
L 12.796875 7.125 
Q 18.703125 7.5625 23.875 7.5625 
L 47.859375 7.5625 
L 47.859375 0 
z
" id="ArialMT-7a"/>
    </defs>
    <g style="fill:#262626;" transform="translate(529.636364 364.542187)scale(0.12 -0.12)">
     <use xlink:href="#ArialMT-66"/>
     <use x="27.783203" xlink:href="#ArialMT-20"/>
     <use x="55.566406" xlink:href="#ArialMT-3d"/>
     <use x="113.964844" xlink:href="#ArialMT-20"/>
     <use x="141.748047" xlink:href="#ArialMT-34"/>
     <use x="197.363281" xlink:href="#ArialMT-33"/>
     <use x="252.978516" xlink:href="#ArialMT-30"/>
     <use x="308.59375" xlink:href="#ArialMT-20"/>
     <use x="336.376953" xlink:href="#ArialMT-48"/>
     <use x="408.59375" xlink:href="#ArialMT-7a"/>
    </g>
   </g>
   <g id="PathCollection_1">
    <defs>
     <path d="M 0 3.5 
C 0.928211 3.5 1.81853 3.131218 2.474874 2.474874 
C 3.131218 1.81853 3.5 0.928211 3.5 0 
C 3.5 -0.928211 3.131218 -1.81853 2.474874 -2.474874 
C 1.81853 -3.131218 0.928211 -3.5 0 -3.5 
C -0.928211 -3.5 -1.81853 -3.131218 -2.474874 -2.474874 
C -3.131218 -1.81853 -3.5 -0.928211 -3.5 0 
C -3.5 0.928211 -3.131218 1.81853 -2.474874 2.474874 
C -1.81853 3.131218 -0.928211 3.5 0 3.5 
z
" id="m8d73351d0e" style="stroke:#800000;stroke-width:0.3;"/>
    </defs>
    <g clip-path="url(#p5ca1bf2b5c)">
     <use style="fill:#800000;stroke:#800000;stroke-width:0.3;" x="321.090909" xlink:href="#m8d73351d0e" y="350.604229"/>
    </g>
   </g>
  </g>
 </g>
 <defs>
  <clipPath id="p62e16ae2cc">
   <rect height="201.6" width="558" x="90" y="69.12"/>
  </clipPath>
  <clipPath id="p5ca1bf2b5c">
   <rect height="201.6" width="558" x="90" y="311.04"/>
  </clipPath>
 </defs>
</svg>
