<?xml version="1.0" encoding="utf-8" standalone="no"?>
<!DOCTYPE svg PUBLIC "-//W3C//DTD SVG 1.1//EN"
  "http://www.w3.org/Graphics/SVG/1.1/DTD/svg11.dtd">
<!-- Created with matplotlib (http://matplotlib.org/) -->
<svg height="576pt" version="1.1" viewBox="0 0 720 576" width="720pt" xmlns="http://www.w3.org/2000/svg" xmlns:xlink="http://www.w3.org/1999/xlink">
 <defs>
  <style type="text/css">
*{stroke-linecap:butt;stroke-linejoin:round;}
  </style>
 </defs>
 <g id="figure_1">
  <g id="patch_1">
   <path d="M 0 576 
L 720 576 
L 720 0 
L 0 0 
z
" style="fill:#ffffff;"/>
  </g>
  <g id="axes_1">
   <g id="patch_2">
    <path d="M 90 270.72 
L 648 270.72 
L 648 69.12 
L 90 69.12 
z
" style="fill:#ffffff;"/>
   </g>
   <g id="matplotlib.axis_1">
    <g id="xtick_1">
     <g id="line2d_1">
      <defs>
       <path d="M 0 0 
L 0 6 
" id="m045c5f2fa1" style="stroke:#262626;"/>
      </defs>
      <g>
       <use style="fill:#262626;stroke:#262626;" x="90" xlink:href="#m045c5f2fa1" y="270.72"/>
      </g>
     </g>
     <g id="text_1">
      <!-- 0 -->
      <defs>
       <path d="M 4.15625 35.296875 
Q 4.15625 48 6.765625 55.734375 
Q 9.375 63.484375 14.515625 67.671875 
Q 19.671875 71.875 27.484375 71.875 
Q 33.25 71.875 37.59375 69.546875 
Q 41.9375 67.234375 44.765625 62.859375 
Q 47.609375 58.5 49.21875 52.21875 
Q 50.828125 45.953125 50.828125 35.296875 
Q 50.828125 22.703125 48.234375 14.96875 
Q 45.65625 7.234375 40.5 3 
Q 35.359375 -1.21875 27.484375 -1.21875 
Q 17.140625 -1.21875 11.234375 6.203125 
Q 4.15625 15.140625 4.15625 35.296875 
z
M 13.1875 35.296875 
Q 13.1875 17.671875 17.3125 11.828125 
Q 21.4375 6 27.484375 6 
Q 33.546875 6 37.671875 11.859375 
Q 41.796875 17.71875 41.796875 35.296875 
Q 41.796875 52.984375 37.671875 58.78125 
Q 33.546875 64.59375 27.390625 64.59375 
Q 21.34375 64.59375 17.71875 59.46875 
Q 13.1875 52.9375 13.1875 35.296875 
z
" id="ArialMT-30"/>
      </defs>
      <g style="fill:#262626;" transform="translate(87.219531 290.877812)scale(0.1 -0.1)">
       <use xlink:href="#ArialMT-30"/>
      </g>
     </g>
    </g>
    <g id="xtick_2">
     <g id="line2d_2">
      <g>
       <use style="fill:#262626;stroke:#262626;" x="159.75" xlink:href="#m045c5f2fa1" y="270.72"/>
      </g>
     </g>
     <g id="text_2">
      <!-- 100 -->
      <defs>
       <path d="M 37.25 0 
L 28.46875 0 
L 28.46875 56 
Q 25.296875 52.984375 20.140625 49.953125 
Q 14.984375 46.921875 10.890625 45.40625 
L 10.890625 53.90625 
Q 18.265625 57.375 23.78125 62.296875 
Q 29.296875 67.234375 31.59375 71.875 
L 37.25 71.875 
z
" id="ArialMT-31"/>
      </defs>
      <g style="fill:#262626;" transform="translate(151.408594 290.877812)scale(0.1 -0.1)">
       <use xlink:href="#ArialMT-31"/>
       <use x="55.615234" xlink:href="#ArialMT-30"/>
       <use x="111.230469" xlink:href="#ArialMT-30"/>
      </g>
     </g>
    </g>
    <g id="xtick_3">
     <g id="line2d_3">
      <g>
       <use style="fill:#262626;stroke:#262626;" x="229.5" xlink:href="#m045c5f2fa1" y="270.72"/>
      </g>
     </g>
     <g id="text_3">
      <!-- 200 -->
      <defs>
       <path d="M 50.34375 8.453125 
L 50.34375 0 
L 3.03125 0 
Q 2.9375 3.171875 4.046875 6.109375 
Q 5.859375 10.9375 9.828125 15.625 
Q 13.8125 20.3125 21.34375 26.46875 
Q 33.015625 36.03125 37.109375 41.625 
Q 41.21875 47.21875 41.21875 52.203125 
Q 41.21875 57.421875 37.46875 61 
Q 33.734375 64.59375 27.734375 64.59375 
Q 21.390625 64.59375 17.578125 60.78125 
Q 13.765625 56.984375 13.71875 50.25 
L 4.6875 51.171875 
Q 5.609375 61.28125 11.65625 66.578125 
Q 17.71875 71.875 27.9375 71.875 
Q 38.234375 71.875 44.234375 66.15625 
Q 50.25 60.453125 50.25 52 
Q 50.25 47.703125 48.484375 43.546875 
Q 46.734375 39.40625 42.65625 34.8125 
Q 38.578125 30.21875 29.109375 22.21875 
Q 21.1875 15.578125 18.9375 13.203125 
Q 16.703125 10.84375 15.234375 8.453125 
z
" id="ArialMT-32"/>
      </defs>
      <g style="fill:#262626;" transform="translate(221.158594 290.877812)scale(0.1 -0.1)">
       <use xlink:href="#ArialMT-32"/>
       <use x="55.615234" xlink:href="#ArialMT-30"/>
       <use x="111.230469" xlink:href="#ArialMT-30"/>
      </g>
     </g>
    </g>
    <g id="xtick_4">
     <g id="line2d_4">
      <g>
       <use style="fill:#262626;stroke:#262626;" x="299.25" xlink:href="#m045c5f2fa1" y="270.72"/>
      </g>
     </g>
     <g id="text_4">
      <!-- 300 -->
      <defs>
       <path d="M 4.203125 18.890625 
L 12.984375 20.0625 
Q 14.5 12.59375 18.140625 9.296875 
Q 21.78125 6 27 6 
Q 33.203125 6 37.46875 10.296875 
Q 41.75 14.59375 41.75 20.953125 
Q 41.75 27 37.796875 30.921875 
Q 33.84375 34.859375 27.734375 34.859375 
Q 25.25 34.859375 21.53125 33.890625 
L 22.515625 41.609375 
Q 23.390625 41.5 23.921875 41.5 
Q 29.546875 41.5 34.03125 44.421875 
Q 38.53125 47.359375 38.53125 53.46875 
Q 38.53125 58.296875 35.25 61.46875 
Q 31.984375 64.65625 26.8125 64.65625 
Q 21.6875 64.65625 18.265625 61.421875 
Q 14.84375 58.203125 13.875 51.765625 
L 5.078125 53.328125 
Q 6.6875 62.15625 12.390625 67.015625 
Q 18.109375 71.875 26.609375 71.875 
Q 32.46875 71.875 37.390625 69.359375 
Q 42.328125 66.84375 44.9375 62.5 
Q 47.5625 58.15625 47.5625 53.265625 
Q 47.5625 48.640625 45.0625 44.828125 
Q 42.578125 41.015625 37.703125 38.765625 
Q 44.046875 37.3125 47.5625 32.6875 
Q 51.078125 28.078125 51.078125 21.140625 
Q 51.078125 11.765625 44.234375 5.25 
Q 37.40625 -1.265625 26.953125 -1.265625 
Q 17.53125 -1.265625 11.296875 4.34375 
Q 5.078125 9.96875 4.203125 18.890625 
z
" id="ArialMT-33"/>
      </defs>
      <g style="fill:#262626;" transform="translate(290.908594 290.877812)scale(0.1 -0.1)">
       <use xlink:href="#ArialMT-33"/>
       <use x="55.615234" xlink:href="#ArialMT-30"/>
       <use x="111.230469" xlink:href="#ArialMT-30"/>
      </g>
     </g>
    </g>
    <g id="xtick_5">
     <g id="line2d_5">
      <g>
       <use style="fill:#262626;stroke:#262626;" x="369" xlink:href="#m045c5f2fa1" y="270.72"/>
      </g>
     </g>
     <g id="text_5">
      <!-- 400 -->
      <defs>
       <path d="M 32.328125 0 
L 32.328125 17.140625 
L 1.265625 17.140625 
L 1.265625 25.203125 
L 33.9375 71.578125 
L 41.109375 71.578125 
L 41.109375 25.203125 
L 50.78125 25.203125 
L 50.78125 17.140625 
L 41.109375 17.140625 
L 41.109375 0 
z
M 32.328125 25.203125 
L 32.328125 57.46875 
L 9.90625 25.203125 
z
" id="ArialMT-34"/>
      </defs>
      <g style="fill:#262626;" transform="translate(360.658594 290.877812)scale(0.1 -0.1)">
       <use xlink:href="#ArialMT-34"/>
       <use x="55.615234" xlink:href="#ArialMT-30"/>
       <use x="111.230469" xlink:href="#ArialMT-30"/>
      </g>
     </g>
    </g>
    <g id="xtick_6">
     <g id="line2d_6">
      <g>
       <use style="fill:#262626;stroke:#262626;" x="438.75" xlink:href="#m045c5f2fa1" y="270.72"/>
      </g>
     </g>
     <g id="text_6">
      <!-- 500 -->
      <defs>
       <path d="M 4.15625 18.75 
L 13.375 19.53125 
Q 14.40625 12.796875 18.140625 9.390625 
Q 21.875 6 27.15625 6 
Q 33.5 6 37.890625 10.78125 
Q 42.28125 15.578125 42.28125 23.484375 
Q 42.28125 31 38.0625 35.34375 
Q 33.84375 39.703125 27 39.703125 
Q 22.75 39.703125 19.328125 37.765625 
Q 15.921875 35.84375 13.96875 32.765625 
L 5.71875 33.84375 
L 12.640625 70.609375 
L 48.25 70.609375 
L 48.25 62.203125 
L 19.671875 62.203125 
L 15.828125 42.96875 
Q 22.265625 47.46875 29.34375 47.46875 
Q 38.71875 47.46875 45.15625 40.96875 
Q 51.609375 34.46875 51.609375 24.265625 
Q 51.609375 14.546875 45.953125 7.46875 
Q 39.0625 -1.21875 27.15625 -1.21875 
Q 17.390625 -1.21875 11.203125 4.25 
Q 5.03125 9.71875 4.15625 18.75 
z
" id="ArialMT-35"/>
      </defs>
      <g style="fill:#262626;" transform="translate(430.408594 290.877812)scale(0.1 -0.1)">
       <use xlink:href="#ArialMT-35"/>
       <use x="55.615234" xlink:href="#ArialMT-30"/>
       <use x="111.230469" xlink:href="#ArialMT-30"/>
      </g>
     </g>
    </g>
    <g id="xtick_7">
     <g id="line2d_7">
      <g>
       <use style="fill:#262626;stroke:#262626;" x="508.5" xlink:href="#m045c5f2fa1" y="270.72"/>
      </g>
     </g>
     <g id="text_7">
      <!-- 600 -->
      <defs>
       <path d="M 49.75 54.046875 
L 41.015625 53.375 
Q 39.84375 58.546875 37.703125 60.890625 
Q 34.125 64.65625 28.90625 64.65625 
Q 24.703125 64.65625 21.53125 62.3125 
Q 17.390625 59.28125 14.984375 53.46875 
Q 12.59375 47.65625 12.5 36.921875 
Q 15.671875 41.75 20.265625 44.09375 
Q 24.859375 46.4375 29.890625 46.4375 
Q 38.671875 46.4375 44.84375 39.96875 
Q 51.03125 33.5 51.03125 23.25 
Q 51.03125 16.5 48.125 10.71875 
Q 45.21875 4.9375 40.140625 1.859375 
Q 35.0625 -1.21875 28.609375 -1.21875 
Q 17.625 -1.21875 10.6875 6.859375 
Q 3.765625 14.9375 3.765625 33.5 
Q 3.765625 54.25 11.421875 63.671875 
Q 18.109375 71.875 29.4375 71.875 
Q 37.890625 71.875 43.28125 67.140625 
Q 48.6875 62.40625 49.75 54.046875 
z
M 13.875 23.1875 
Q 13.875 18.65625 15.796875 14.5 
Q 17.71875 10.359375 21.1875 8.171875 
Q 24.65625 6 28.46875 6 
Q 34.03125 6 38.03125 10.484375 
Q 42.046875 14.984375 42.046875 22.703125 
Q 42.046875 30.125 38.078125 34.390625 
Q 34.125 38.671875 28.125 38.671875 
Q 22.171875 38.671875 18.015625 34.390625 
Q 13.875 30.125 13.875 23.1875 
z
" id="ArialMT-36"/>
      </defs>
      <g style="fill:#262626;" transform="translate(500.158594 290.877812)scale(0.1 -0.1)">
       <use xlink:href="#ArialMT-36"/>
       <use x="55.615234" xlink:href="#ArialMT-30"/>
       <use x="111.230469" xlink:href="#ArialMT-30"/>
      </g>
     </g>
    </g>
    <g id="xtick_8">
     <g id="line2d_8">
      <g>
       <use style="fill:#262626;stroke:#262626;" x="578.25" xlink:href="#m045c5f2fa1" y="270.72"/>
      </g>
     </g>
     <g id="text_8">
      <!-- 700 -->
      <defs>
       <path d="M 4.734375 62.203125 
L 4.734375 70.65625 
L 51.078125 70.65625 
L 51.078125 63.8125 
Q 44.234375 56.546875 37.515625 44.484375 
Q 30.8125 32.421875 27.15625 19.671875 
Q 24.515625 10.6875 23.78125 0 
L 14.75 0 
Q 14.890625 8.453125 18.0625 20.40625 
Q 21.234375 32.375 27.171875 43.484375 
Q 33.109375 54.59375 39.796875 62.203125 
z
" id="ArialMT-37"/>
      </defs>
      <g style="fill:#262626;" transform="translate(569.908594 290.877812)scale(0.1 -0.1)">
       <use xlink:href="#ArialMT-37"/>
       <use x="55.615234" xlink:href="#ArialMT-30"/>
       <use x="111.230469" xlink:href="#ArialMT-30"/>
      </g>
     </g>
    </g>
    <g id="xtick_9">
     <g id="line2d_9">
      <g>
       <use style="fill:#262626;stroke:#262626;" x="648" xlink:href="#m045c5f2fa1" y="270.72"/>
      </g>
     </g>
     <g id="text_9">
      <!-- 800 -->
      <defs>
       <path d="M 17.671875 38.8125 
Q 12.203125 40.828125 9.5625 44.53125 
Q 6.9375 48.25 6.9375 53.421875 
Q 6.9375 61.234375 12.546875 66.546875 
Q 18.171875 71.875 27.484375 71.875 
Q 36.859375 71.875 42.578125 66.421875 
Q 48.296875 60.984375 48.296875 53.171875 
Q 48.296875 48.1875 45.671875 44.5 
Q 43.0625 40.828125 37.75 38.8125 
Q 44.34375 36.671875 47.78125 31.875 
Q 51.21875 27.09375 51.21875 20.453125 
Q 51.21875 11.28125 44.71875 5.03125 
Q 38.234375 -1.21875 27.640625 -1.21875 
Q 17.046875 -1.21875 10.546875 5.046875 
Q 4.046875 11.328125 4.046875 20.703125 
Q 4.046875 27.6875 7.59375 32.390625 
Q 11.140625 37.109375 17.671875 38.8125 
z
M 15.921875 53.71875 
Q 15.921875 48.640625 19.1875 45.40625 
Q 22.46875 42.1875 27.6875 42.1875 
Q 32.765625 42.1875 36.015625 45.375 
Q 39.265625 48.578125 39.265625 53.21875 
Q 39.265625 58.0625 35.90625 61.359375 
Q 32.5625 64.65625 27.59375 64.65625 
Q 22.5625 64.65625 19.234375 61.421875 
Q 15.921875 58.203125 15.921875 53.71875 
z
M 13.09375 20.65625 
Q 13.09375 16.890625 14.875 13.375 
Q 16.65625 9.859375 20.171875 7.921875 
Q 23.6875 6 27.734375 6 
Q 34.03125 6 38.125 10.046875 
Q 42.234375 14.109375 42.234375 20.359375 
Q 42.234375 26.703125 38.015625 30.859375 
Q 33.796875 35.015625 27.4375 35.015625 
Q 21.234375 35.015625 17.15625 30.90625 
Q 13.09375 26.8125 13.09375 20.65625 
z
" id="ArialMT-38"/>
      </defs>
      <g style="fill:#262626;" transform="translate(639.658594 290.877812)scale(0.1 -0.1)">
       <use xlink:href="#ArialMT-38"/>
       <use x="55.615234" xlink:href="#ArialMT-30"/>
       <use x="111.230469" xlink:href="#ArialMT-30"/>
      </g>
     </g>
    </g>
   </g>
   <g id="matplotlib.axis_2">
    <g id="ytick_1">
     <g id="line2d_10">
      <defs>
       <path d="M 0 0 
L -6 0 
" id="md022b7fa45" style="stroke:#262626;"/>
      </defs>
      <g>
       <use style="fill:#262626;stroke:#262626;" x="90" xlink:href="#md022b7fa45" y="270.72"/>
      </g>
     </g>
     <g id="text_10">
      <!-- −0.20 -->
      <defs>
       <path d="M 52.828125 31.203125 
L 5.5625 31.203125 
L 5.5625 39.40625 
L 52.828125 39.40625 
z
" id="ArialMT-2212"/>
       <path d="M 9.078125 0 
L 9.078125 10.015625 
L 19.09375 10.015625 
L 19.09375 0 
z
" id="ArialMT-2e"/>
      </defs>
      <g style="fill:#262626;" transform="translate(51.698437 274.298906)scale(0.1 -0.1)">
       <use xlink:href="#ArialMT-2212"/>
       <use x="58.398438" xlink:href="#ArialMT-30"/>
       <use x="114.013672" xlink:href="#ArialMT-2e"/>
       <use x="141.796875" xlink:href="#ArialMT-32"/>
       <use x="197.412109" xlink:href="#ArialMT-30"/>
      </g>
     </g>
    </g>
    <g id="ytick_2">
     <g id="line2d_11">
      <g>
       <use style="fill:#262626;stroke:#262626;" x="90" xlink:href="#md022b7fa45" y="245.52"/>
      </g>
     </g>
     <g id="text_11">
      <!-- −0.15 -->
      <g style="fill:#262626;" transform="translate(51.698437 249.098906)scale(0.1 -0.1)">
       <use xlink:href="#ArialMT-2212"/>
       <use x="58.398438" xlink:href="#ArialMT-30"/>
       <use x="114.013672" xlink:href="#ArialMT-2e"/>
       <use x="141.796875" xlink:href="#ArialMT-31"/>
       <use x="197.412109" xlink:href="#ArialMT-35"/>
      </g>
     </g>
    </g>
    <g id="ytick_3">
     <g id="line2d_12">
      <g>
       <use style="fill:#262626;stroke:#262626;" x="90" xlink:href="#md022b7fa45" y="220.32"/>
      </g>
     </g>
     <g id="text_12">
      <!-- −0.10 -->
      <g style="fill:#262626;" transform="translate(51.698437 223.898906)scale(0.1 -0.1)">
       <use xlink:href="#ArialMT-2212"/>
       <use x="58.398438" xlink:href="#ArialMT-30"/>
       <use x="114.013672" xlink:href="#ArialMT-2e"/>
       <use x="141.796875" xlink:href="#ArialMT-31"/>
       <use x="197.412109" xlink:href="#ArialMT-30"/>
      </g>
     </g>
    </g>
    <g id="ytick_4">
     <g id="line2d_13">
      <g>
       <use style="fill:#262626;stroke:#262626;" x="90" xlink:href="#md022b7fa45" y="195.12"/>
      </g>
     </g>
     <g id="text_13">
      <!-- −0.05 -->
      <g style="fill:#262626;" transform="translate(51.698437 198.698906)scale(0.1 -0.1)">
       <use xlink:href="#ArialMT-2212"/>
       <use x="58.398438" xlink:href="#ArialMT-30"/>
       <use x="114.013672" xlink:href="#ArialMT-2e"/>
       <use x="141.796875" xlink:href="#ArialMT-30"/>
       <use x="197.412109" xlink:href="#ArialMT-35"/>
      </g>
     </g>
    </g>
    <g id="ytick_5">
     <g id="line2d_14">
      <g>
       <use style="fill:#262626;stroke:#262626;" x="90" xlink:href="#md022b7fa45" y="169.92"/>
      </g>
     </g>
     <g id="text_14">
      <!-- 0.00 -->
      <g style="fill:#262626;" transform="translate(57.539062 173.498906)scale(0.1 -0.1)">
       <use xlink:href="#ArialMT-30"/>
       <use x="55.615234" xlink:href="#ArialMT-2e"/>
       <use x="83.398438" xlink:href="#ArialMT-30"/>
       <use x="139.013672" xlink:href="#ArialMT-30"/>
      </g>
     </g>
    </g>
    <g id="ytick_6">
     <g id="line2d_15">
      <g>
       <use style="fill:#262626;stroke:#262626;" x="90" xlink:href="#md022b7fa45" y="144.72"/>
      </g>
     </g>
     <g id="text_15">
      <!-- 0.05 -->
      <g style="fill:#262626;" transform="translate(57.539062 148.298906)scale(0.1 -0.1)">
       <use xlink:href="#ArialMT-30"/>
       <use x="55.615234" xlink:href="#ArialMT-2e"/>
       <use x="83.398438" xlink:href="#ArialMT-30"/>
       <use x="139.013672" xlink:href="#ArialMT-35"/>
      </g>
     </g>
    </g>
    <g id="ytick_7">
     <g id="line2d_16">
      <g>
       <use style="fill:#262626;stroke:#262626;" x="90" xlink:href="#md022b7fa45" y="119.52"/>
      </g>
     </g>
     <g id="text_16">
      <!-- 0.10 -->
      <g style="fill:#262626;" transform="translate(57.539062 123.098906)scale(0.1 -0.1)">
       <use xlink:href="#ArialMT-30"/>
       <use x="55.615234" xlink:href="#ArialMT-2e"/>
       <use x="83.398438" xlink:href="#ArialMT-31"/>
       <use x="139.013672" xlink:href="#ArialMT-30"/>
      </g>
     </g>
    </g>
    <g id="ytick_8">
     <g id="line2d_17">
      <g>
       <use style="fill:#262626;stroke:#262626;" x="90" xlink:href="#md022b7fa45" y="94.32"/>
      </g>
     </g>
     <g id="text_17">
      <!-- 0.15 -->
      <g style="fill:#262626;" transform="translate(57.539062 97.898906)scale(0.1 -0.1)">
       <use xlink:href="#ArialMT-30"/>
       <use x="55.615234" xlink:href="#ArialMT-2e"/>
       <use x="83.398438" xlink:href="#ArialMT-31"/>
       <use x="139.013672" xlink:href="#ArialMT-35"/>
      </g>
     </g>
    </g>
    <g id="ytick_9">
     <g id="line2d_18">
      <g>
       <use style="fill:#262626;stroke:#262626;" x="90" xlink:href="#md022b7fa45" y="69.12"/>
      </g>
     </g>
     <g id="text_18">
      <!-- 0.20 -->
      <g style="fill:#262626;" transform="translate(57.539062 72.698906)scale(0.1 -0.1)">
       <use xlink:href="#ArialMT-30"/>
       <use x="55.615234" xlink:href="#ArialMT-2e"/>
       <use x="83.398438" xlink:href="#ArialMT-32"/>
       <use x="139.013672" xlink:href="#ArialMT-30"/>
      </g>
     </g>
    </g>
   </g>
   <g id="PolyCollection_1">
    <path clip-path="url(#p7355dc892b)" d="M 90 183.155951 
L 90 169.92 
L 90.6975 169.92 
L 91.395 169.92 
L 92.0925 169.92 
L 92.79 169.92 
L 93.4875 169.92 
L 94.185 169.92 
L 94.8825 169.92 
L 95.58 169.92 
L 96.2775 169.92 
L 96.975 169.92 
L 97.6725 169.92 
L 98.37 169.92 
L 99.0675 169.92 
L 99.765 169.92 
L 100.4625 169.92 
L 101.16 169.92 
L 101.8575 169.92 
L 102.555 169.92 
L 103.2525 169.92 
L 103.95 169.92 
L 104.6475 169.92 
L 105.345 169.92 
L 106.0425 169.92 
L 106.74 169.92 
L 107.4375 169.92 
L 108.135 169.92 
L 108.8325 169.92 
L 109.53 169.92 
L 110.2275 169.92 
L 110.925 169.92 
L 111.6225 169.92 
L 112.32 169.92 
L 113.0175 169.92 
L 113.715 169.92 
L 114.4125 169.92 
L 115.11 169.92 
L 115.8075 169.92 
L 116.505 169.92 
L 117.2025 169.92 
L 117.9 169.92 
L 118.5975 169.92 
L 119.295 169.92 
L 119.9925 169.92 
L 120.69 169.92 
L 121.3875 169.92 
L 122.085 169.92 
L 122.7825 169.92 
L 123.48 169.92 
L 124.1775 169.92 
L 124.875 169.92 
L 125.5725 169.92 
L 126.27 169.92 
L 126.9675 169.92 
L 127.665 169.92 
L 128.3625 169.92 
L 129.06 169.92 
L 129.7575 169.92 
L 130.455 169.92 
L 131.1525 169.92 
L 131.85 169.92 
L 132.5475 169.92 
L 133.245 169.92 
L 133.9425 169.92 
L 134.64 169.92 
L 135.3375 169.92 
L 136.035 169.92 
L 136.7325 169.92 
L 137.43 169.92 
L 138.1275 169.92 
L 138.825 169.92 
L 139.5225 169.92 
L 140.22 169.92 
L 140.9175 169.92 
L 141.615 169.92 
L 142.3125 169.92 
L 143.01 169.92 
L 143.7075 169.92 
L 144.405 169.92 
L 145.1025 169.92 
L 145.8 169.92 
L 146.4975 169.92 
L 147.195 169.92 
L 147.8925 169.92 
L 148.59 169.92 
L 149.2875 169.92 
L 149.985 169.92 
L 150.6825 169.92 
L 151.38 169.92 
L 152.0775 169.92 
L 152.775 169.92 
L 153.4725 169.92 
L 154.17 169.92 
L 154.8675 169.92 
L 155.565 169.92 
L 156.2625 169.92 
L 156.96 169.92 
L 157.6575 169.92 
L 158.355 169.92 
L 159.0525 169.92 
L 159.75 169.92 
L 160.4475 169.92 
L 161.145 169.92 
L 161.8425 169.92 
L 162.54 169.92 
L 163.2375 169.92 
L 163.935 169.92 
L 164.6325 169.92 
L 165.33 169.92 
L 166.0275 169.92 
L 166.725 169.92 
L 167.4225 169.92 
L 168.12 169.92 
L 168.8175 169.92 
L 169.515 169.92 
L 170.2125 169.92 
L 170.91 169.92 
L 171.6075 169.92 
L 172.305 169.92 
L 173.0025 169.92 
L 173.7 169.92 
L 174.3975 169.92 
L 175.095 169.92 
L 175.7925 169.92 
L 176.49 169.92 
L 177.1875 169.92 
L 177.885 169.92 
L 178.5825 169.92 
L 179.28 169.92 
L 179.9775 169.92 
L 180.675 169.92 
L 181.3725 169.92 
L 182.07 169.92 
L 182.7675 169.92 
L 183.465 169.92 
L 184.1625 169.92 
L 184.86 169.92 
L 185.5575 169.92 
L 186.255 169.92 
L 186.9525 169.92 
L 187.65 169.92 
L 188.3475 169.92 
L 189.045 169.92 
L 189.7425 169.92 
L 190.44 169.92 
L 191.1375 169.92 
L 191.835 169.92 
L 192.5325 169.92 
L 193.23 169.92 
L 193.9275 169.92 
L 194.625 169.92 
L 195.3225 169.92 
L 196.02 169.92 
L 196.7175 169.92 
L 197.415 169.92 
L 198.1125 169.92 
L 198.81 169.92 
L 199.5075 169.92 
L 200.205 169.92 
L 200.9025 169.92 
L 201.6 169.92 
L 202.2975 169.92 
L 202.995 169.92 
L 203.6925 169.92 
L 204.39 169.92 
L 205.0875 169.92 
L 205.785 169.92 
L 206.4825 169.92 
L 207.18 169.92 
L 207.8775 169.92 
L 208.575 169.92 
L 209.2725 169.92 
L 209.97 169.92 
L 210.6675 169.92 
L 211.365 169.92 
L 212.0625 169.92 
L 212.76 169.92 
L 213.4575 169.92 
L 214.155 169.92 
L 214.8525 169.92 
L 215.55 169.92 
L 216.2475 169.92 
L 216.945 169.92 
L 217.6425 169.92 
L 218.34 169.92 
L 219.0375 169.92 
L 219.735 169.92 
L 220.4325 169.92 
L 221.13 169.92 
L 221.8275 169.92 
L 222.525 169.92 
L 223.2225 169.92 
L 223.92 169.92 
L 224.6175 169.92 
L 225.315 169.92 
L 226.0125 169.92 
L 226.71 169.92 
L 227.4075 169.92 
L 228.105 169.92 
L 228.8025 169.92 
L 229.5 169.92 
L 230.1975 169.92 
L 230.895 169.92 
L 231.5925 169.92 
L 232.29 169.92 
L 232.9875 169.92 
L 233.685 169.92 
L 234.3825 169.92 
L 235.08 169.92 
L 235.7775 169.92 
L 236.475 169.92 
L 237.1725 169.92 
L 237.87 169.92 
L 238.5675 169.92 
L 239.265 169.92 
L 239.9625 169.92 
L 240.66 169.92 
L 241.3575 169.92 
L 242.055 169.92 
L 242.7525 169.92 
L 243.45 169.92 
L 244.1475 169.92 
L 244.845 169.92 
L 245.5425 169.92 
L 246.24 169.92 
L 246.9375 169.92 
L 247.635 169.92 
L 248.3325 169.92 
L 249.03 169.92 
L 249.7275 169.92 
L 250.425 169.92 
L 251.1225 169.92 
L 251.82 169.92 
L 252.5175 169.92 
L 253.215 169.92 
L 253.9125 169.92 
L 254.61 169.92 
L 255.3075 169.92 
L 256.005 169.92 
L 256.7025 169.92 
L 257.4 169.92 
L 258.0975 169.92 
L 258.795 169.92 
L 259.4925 169.92 
L 260.19 169.92 
L 260.8875 169.92 
L 261.585 169.92 
L 262.2825 169.92 
L 262.98 169.92 
L 263.6775 169.92 
L 264.375 169.92 
L 265.0725 169.92 
L 265.77 169.92 
L 266.4675 169.92 
L 267.165 169.92 
L 267.8625 169.92 
L 268.56 169.92 
L 269.2575 169.92 
L 269.955 169.92 
L 270.6525 169.92 
L 271.35 169.92 
L 272.0475 169.92 
L 272.745 169.92 
L 273.4425 169.92 
L 274.14 169.92 
L 274.8375 169.92 
L 275.535 169.92 
L 276.2325 169.92 
L 276.93 169.92 
L 277.6275 169.92 
L 278.325 169.92 
L 279.0225 169.92 
L 279.72 169.92 
L 280.4175 169.92 
L 281.115 169.92 
L 281.8125 169.92 
L 282.51 169.92 
L 283.2075 169.92 
L 283.905 169.92 
L 284.6025 169.92 
L 285.3 169.92 
L 285.9975 169.92 
L 286.695 169.92 
L 287.3925 169.92 
L 288.09 169.92 
L 288.7875 169.92 
L 289.485 169.92 
L 290.1825 169.92 
L 290.88 169.92 
L 291.5775 169.92 
L 292.275 169.92 
L 292.9725 169.92 
L 293.67 169.92 
L 294.3675 169.92 
L 295.065 169.92 
L 295.7625 169.92 
L 296.46 169.92 
L 297.1575 169.92 
L 297.855 169.92 
L 298.5525 169.92 
L 299.25 169.92 
L 299.9475 169.92 
L 300.645 169.92 
L 301.3425 169.92 
L 302.04 169.92 
L 302.7375 169.92 
L 303.435 169.92 
L 304.1325 169.92 
L 304.83 169.92 
L 305.5275 169.92 
L 306.225 169.92 
L 306.9225 169.92 
L 307.62 169.92 
L 308.3175 169.92 
L 309.015 169.92 
L 309.7125 169.92 
L 310.41 169.92 
L 311.1075 169.92 
L 311.805 169.92 
L 312.5025 169.92 
L 313.2 169.92 
L 313.8975 169.92 
L 314.595 169.92 
L 315.2925 169.92 
L 315.99 169.92 
L 316.6875 169.92 
L 317.385 169.92 
L 318.0825 169.92 
L 318.78 169.92 
L 319.4775 169.92 
L 320.175 169.92 
L 320.8725 169.92 
L 321.57 169.92 
L 322.2675 169.92 
L 322.965 169.92 
L 323.6625 169.92 
L 324.36 169.92 
L 325.0575 169.92 
L 325.755 169.92 
L 326.4525 169.92 
L 327.15 169.92 
L 327.8475 169.92 
L 328.545 169.92 
L 329.2425 169.92 
L 329.94 169.92 
L 330.6375 169.92 
L 331.335 169.92 
L 332.0325 169.92 
L 332.73 169.92 
L 333.4275 169.92 
L 334.125 169.92 
L 334.8225 169.92 
L 335.52 169.92 
L 336.2175 169.92 
L 336.915 169.92 
L 337.6125 169.92 
L 338.31 169.92 
L 339.0075 169.92 
L 339.705 169.92 
L 340.4025 169.92 
L 341.1 169.92 
L 341.7975 169.92 
L 342.495 169.92 
L 343.1925 169.92 
L 343.89 169.92 
L 344.5875 169.92 
L 345.285 169.92 
L 345.9825 169.92 
L 346.68 169.92 
L 347.3775 169.92 
L 348.075 169.92 
L 348.7725 169.92 
L 349.47 169.92 
L 350.1675 169.92 
L 350.865 169.92 
L 351.5625 169.92 
L 352.26 169.92 
L 352.9575 169.92 
L 353.655 169.92 
L 354.3525 169.92 
L 355.05 169.92 
L 355.7475 169.92 
L 356.445 169.92 
L 357.1425 169.92 
L 357.84 169.92 
L 358.5375 169.92 
L 359.235 169.92 
L 359.9325 169.92 
L 360.63 169.92 
L 361.3275 169.92 
L 362.025 169.92 
L 362.7225 169.92 
L 363.42 169.92 
L 364.1175 169.92 
L 364.815 169.92 
L 365.5125 169.92 
L 366.21 169.92 
L 366.9075 169.92 
L 367.605 169.92 
L 368.3025 169.92 
L 369 169.92 
L 369.6975 169.92 
L 370.395 169.92 
L 371.0925 169.92 
L 371.79 169.92 
L 372.4875 169.92 
L 373.185 169.92 
L 373.8825 169.92 
L 374.58 169.92 
L 375.2775 169.92 
L 375.975 169.92 
L 376.6725 169.92 
L 377.37 169.92 
L 378.0675 169.92 
L 378.765 169.92 
L 379.4625 169.92 
L 380.16 169.92 
L 380.8575 169.92 
L 381.555 169.92 
L 382.2525 169.92 
L 382.95 169.92 
L 383.6475 169.92 
L 384.345 169.92 
L 385.0425 169.92 
L 385.74 169.92 
L 386.4375 169.92 
L 387.135 169.92 
L 387.8325 169.92 
L 388.53 169.92 
L 389.2275 169.92 
L 389.925 169.92 
L 390.6225 169.92 
L 391.32 169.92 
L 392.0175 169.92 
L 392.715 169.92 
L 393.4125 169.92 
L 394.11 169.92 
L 394.8075 169.92 
L 395.505 169.92 
L 396.2025 169.92 
L 396.9 169.92 
L 397.5975 169.92 
L 398.295 169.92 
L 398.9925 169.92 
L 399.69 169.92 
L 400.3875 169.92 
L 401.085 169.92 
L 401.7825 169.92 
L 402.48 169.92 
L 403.1775 169.92 
L 403.875 169.92 
L 404.5725 169.92 
L 405.27 169.92 
L 405.9675 169.92 
L 406.665 169.92 
L 407.3625 169.92 
L 408.06 169.92 
L 408.7575 169.92 
L 409.455 169.92 
L 410.1525 169.92 
L 410.85 169.92 
L 411.5475 169.92 
L 412.245 169.92 
L 412.9425 169.92 
L 413.64 169.92 
L 414.3375 169.92 
L 415.035 169.92 
L 415.7325 169.92 
L 416.43 169.92 
L 417.1275 169.92 
L 417.825 169.92 
L 418.5225 169.92 
L 419.22 169.92 
L 419.9175 169.92 
L 420.615 169.92 
L 421.3125 169.92 
L 422.01 169.92 
L 422.7075 169.92 
L 423.405 169.92 
L 424.1025 169.92 
L 424.8 169.92 
L 425.4975 169.92 
L 426.195 169.92 
L 426.8925 169.92 
L 427.59 169.92 
L 428.2875 169.92 
L 428.985 169.92 
L 429.6825 169.92 
L 430.38 169.92 
L 431.0775 169.92 
L 431.775 169.92 
L 432.4725 169.92 
L 433.17 169.92 
L 433.8675 169.92 
L 434.565 169.92 
L 435.2625 169.92 
L 435.96 169.92 
L 436.6575 169.92 
L 437.355 169.92 
L 438.0525 169.92 
L 438.75 169.92 
L 439.4475 169.92 
L 440.145 169.92 
L 440.8425 169.92 
L 441.54 169.92 
L 442.2375 169.92 
L 442.935 169.92 
L 443.6325 169.92 
L 444.33 169.92 
L 445.0275 169.92 
L 445.725 169.92 
L 446.4225 169.92 
L 447.12 169.92 
L 447.8175 169.92 
L 448.515 169.92 
L 449.2125 169.92 
L 449.91 169.92 
L 450.6075 169.92 
L 451.305 169.92 
L 452.0025 169.92 
L 452.7 169.92 
L 453.3975 169.92 
L 454.095 169.92 
L 454.7925 169.92 
L 455.49 169.92 
L 456.1875 169.92 
L 456.885 169.92 
L 457.5825 169.92 
L 458.28 169.92 
L 458.9775 169.92 
L 459.675 169.92 
L 460.3725 169.92 
L 461.07 169.92 
L 461.7675 169.92 
L 462.465 169.92 
L 463.1625 169.92 
L 463.86 169.92 
L 464.5575 169.92 
L 465.255 169.92 
L 465.9525 169.92 
L 466.65 169.92 
L 467.3475 169.92 
L 468.045 169.92 
L 468.7425 169.92 
L 469.44 169.92 
L 470.1375 169.92 
L 470.835 169.92 
L 471.5325 169.92 
L 472.23 169.92 
L 472.9275 169.92 
L 473.625 169.92 
L 474.3225 169.92 
L 475.02 169.92 
L 475.7175 169.92 
L 476.415 169.92 
L 477.1125 169.92 
L 477.81 169.92 
L 478.5075 169.92 
L 479.205 169.92 
L 479.9025 169.92 
L 480.6 169.92 
L 481.2975 169.92 
L 481.995 169.92 
L 482.6925 169.92 
L 483.39 169.92 
L 484.0875 169.92 
L 484.785 169.92 
L 485.4825 169.92 
L 486.18 169.92 
L 486.8775 169.92 
L 487.575 169.92 
L 488.2725 169.92 
L 488.97 169.92 
L 489.6675 169.92 
L 490.365 169.92 
L 491.0625 169.92 
L 491.76 169.92 
L 492.4575 169.92 
L 493.155 169.92 
L 493.8525 169.92 
L 494.55 169.92 
L 495.2475 169.92 
L 495.945 169.92 
L 496.6425 169.92 
L 497.34 169.92 
L 498.0375 169.92 
L 498.735 169.92 
L 499.4325 169.92 
L 500.13 169.92 
L 500.8275 169.92 
L 501.525 169.92 
L 502.2225 169.92 
L 502.92 169.92 
L 503.6175 169.92 
L 504.315 169.92 
L 505.0125 169.92 
L 505.71 169.92 
L 506.4075 169.92 
L 507.105 169.92 
L 507.8025 169.92 
L 508.5 169.92 
L 509.1975 169.92 
L 509.895 169.92 
L 510.5925 169.92 
L 511.29 169.92 
L 511.9875 169.92 
L 512.685 169.92 
L 513.3825 169.92 
L 514.08 169.92 
L 514.7775 169.92 
L 515.475 169.92 
L 516.1725 169.92 
L 516.87 169.92 
L 517.5675 169.92 
L 518.265 169.92 
L 518.9625 169.92 
L 519.66 169.92 
L 520.3575 169.92 
L 521.055 169.92 
L 521.7525 169.92 
L 522.45 169.92 
L 523.1475 169.92 
L 523.845 169.92 
L 524.5425 169.92 
L 525.24 169.92 
L 525.9375 169.92 
L 526.635 169.92 
L 527.3325 169.92 
L 528.03 169.92 
L 528.7275 169.92 
L 529.425 169.92 
L 530.1225 169.92 
L 530.82 169.92 
L 531.5175 169.92 
L 532.215 169.92 
L 532.9125 169.92 
L 533.61 169.92 
L 534.3075 169.92 
L 535.005 169.92 
L 535.7025 169.92 
L 536.4 169.92 
L 537.0975 169.92 
L 537.795 169.92 
L 538.4925 169.92 
L 539.19 169.92 
L 539.8875 169.92 
L 540.585 169.92 
L 541.2825 169.92 
L 541.98 169.92 
L 542.6775 169.92 
L 543.375 169.92 
L 544.0725 169.92 
L 544.77 169.92 
L 545.4675 169.92 
L 546.165 169.92 
L 546.8625 169.92 
L 547.56 169.92 
L 548.2575 169.92 
L 548.955 169.92 
L 549.6525 169.92 
L 550.35 169.92 
L 551.0475 169.92 
L 551.745 169.92 
L 552.4425 169.92 
L 553.14 169.92 
L 553.8375 169.92 
L 554.535 169.92 
L 555.2325 169.92 
L 555.93 169.92 
L 556.6275 169.92 
L 557.325 169.92 
L 558.0225 169.92 
L 558.72 169.92 
L 559.4175 169.92 
L 560.115 169.92 
L 560.8125 169.92 
L 561.51 169.92 
L 562.2075 169.92 
L 562.905 169.92 
L 563.6025 169.92 
L 564.3 169.92 
L 564.9975 169.92 
L 565.695 169.92 
L 566.3925 169.92 
L 567.09 169.92 
L 567.7875 169.92 
L 568.485 169.92 
L 569.1825 169.92 
L 569.88 169.92 
L 570.5775 169.92 
L 571.275 169.92 
L 571.9725 169.92 
L 572.67 169.92 
L 573.3675 169.92 
L 574.065 169.92 
L 574.7625 169.92 
L 575.46 169.92 
L 576.1575 169.92 
L 576.855 169.92 
L 577.5525 169.92 
L 578.25 169.92 
L 578.9475 169.92 
L 579.645 169.92 
L 580.3425 169.92 
L 581.04 169.92 
L 581.7375 169.92 
L 582.435 169.92 
L 583.1325 169.92 
L 583.83 169.92 
L 584.5275 169.92 
L 585.225 169.92 
L 585.9225 169.92 
L 586.62 169.92 
L 587.3175 169.92 
L 588.015 169.92 
L 588.7125 169.92 
L 589.41 169.92 
L 590.1075 169.92 
L 590.805 169.92 
L 591.5025 169.92 
L 592.2 169.92 
L 592.8975 169.92 
L 593.595 169.92 
L 594.2925 169.92 
L 594.99 169.92 
L 595.6875 169.92 
L 596.385 169.92 
L 597.0825 169.92 
L 597.78 169.92 
L 598.4775 169.92 
L 599.175 169.92 
L 599.8725 169.92 
L 600.57 169.92 
L 601.2675 169.92 
L 601.965 169.92 
L 602.6625 169.92 
L 603.36 169.92 
L 604.0575 169.92 
L 604.755 169.92 
L 605.4525 169.92 
L 606.15 169.92 
L 606.8475 169.92 
L 607.545 169.92 
L 608.2425 169.92 
L 608.94 169.92 
L 609.6375 169.92 
L 610.335 169.92 
L 611.0325 169.92 
L 611.73 169.92 
L 612.4275 169.92 
L 613.125 169.92 
L 613.8225 169.92 
L 614.52 169.92 
L 615.2175 169.92 
L 615.915 169.92 
L 616.6125 169.92 
L 617.31 169.92 
L 618.0075 169.92 
L 618.705 169.92 
L 619.4025 169.92 
L 620.1 169.92 
L 620.7975 169.92 
L 621.495 169.92 
L 622.1925 169.92 
L 622.89 169.92 
L 623.5875 169.92 
L 624.285 169.92 
L 624.9825 169.92 
L 625.68 169.92 
L 626.3775 169.92 
L 627.075 169.92 
L 627.7725 169.92 
L 628.47 169.92 
L 629.1675 169.92 
L 629.865 169.92 
L 630.5625 169.92 
L 631.26 169.92 
L 631.9575 169.92 
L 632.655 169.92 
L 633.3525 169.92 
L 634.05 169.92 
L 634.7475 169.92 
L 635.445 169.92 
L 636.1425 169.92 
L 636.84 169.92 
L 637.5375 169.92 
L 638.235 169.92 
L 638.9325 169.92 
L 639.63 169.92 
L 640.3275 169.92 
L 641.025 169.92 
L 641.7225 169.92 
L 642.42 169.92 
L 643.1175 169.92 
L 643.815 169.92 
L 644.5125 169.92 
L 645.21 169.92 
L 645.9075 169.92 
L 646.605 169.92 
L 646.605 169.92 
L 646.605 169.92 
L 645.9075 169.926896 
L 645.21 169.942996 
L 644.5125 169.970451 
L 643.815 170.011222 
L 643.1175 170.067042 
L 642.42 170.139386 
L 641.7225 170.229442 
L 641.025 170.338087 
L 640.3275 170.465865 
L 639.63 170.612975 
L 638.9325 170.779257 
L 638.235 170.964183 
L 637.5375 171.166861 
L 636.84 171.386037 
L 636.1425 171.620099 
L 635.445 171.867097 
L 634.7475 172.124757 
L 634.05 172.390505 
L 633.3525 172.661497 
L 632.655 172.934644 
L 631.9575 173.206656 
L 631.26 173.474073 
L 630.5625 173.733312 
L 629.865 173.980707 
L 629.1675 174.212558 
L 628.47 174.425176 
L 627.7725 174.614932 
L 627.075 174.778308 
L 626.3775 174.911941 
L 625.68 175.012672 
L 624.9825 175.077592 
L 624.285 175.104088 
L 623.5875 175.089877 
L 622.89 175.033051 
L 622.1925 174.932109 
L 621.495 174.785985 
L 620.7975 174.594075 
L 620.1 174.356259 
L 619.4025 174.072913 
L 618.705 173.744922 
L 618.0075 173.373683 
L 617.31 172.961103 
L 616.6125 172.509591 
L 615.915 172.022046 
L 615.2175 171.501836 
L 614.52 170.952773 
L 613.8225 170.379085 
L 613.125 169.785375 
L 612.4275 169.176586 
L 611.73 168.557951 
L 611.0325 167.934943 
L 610.335 167.313228 
L 609.6375 166.6986 
L 608.94 166.096929 
L 608.2425 165.514097 
L 607.545 164.955935 
L 606.8475 164.428165 
L 606.15 163.936331 
L 605.4525 163.485742 
L 604.755 163.08141 
L 604.0575 162.727991 
L 603.36 162.429732 
L 602.6625 162.190415 
L 601.965 162.013313 
L 601.2675 161.901146 
L 600.57 161.856042 
L 599.8725 161.879502 
L 599.175 161.972382 
L 598.4775 162.134862 
L 597.78 162.366443 
L 597.0825 162.665935 
L 596.385 163.03146 
L 595.6875 163.46046 
L 594.99 163.949713 
L 594.2925 164.495356 
L 593.595 165.092916 
L 592.8975 165.737343 
L 592.2 166.423056 
L 591.5025 167.143994 
L 590.805 167.893668 
L 590.1075 168.665223 
L 589.41 169.451501 
L 588.7125 170.245113 
L 588.015 171.038511 
L 587.3175 171.824059 
L 586.62 172.594114 
L 585.9225 173.341103 
L 585.225 174.057599 
L 584.5275 174.736401 
L 583.83 175.37061 
L 583.1325 175.953701 
L 582.435 176.479596 
L 581.7375 176.942732 
L 581.04 177.338119 
L 580.3425 177.661405 
L 579.645 177.908922 
L 578.9475 178.077733 
L 578.25 178.16567 
L 577.5525 178.171367 
L 576.855 178.094279 
L 576.1575 177.934698 
L 575.46 177.69376 
L 574.7625 177.373443 
L 574.065 176.976553 
L 573.3675 176.506707 
L 572.67 175.9683 
L 571.9725 175.366476 
L 571.275 174.707075 
L 570.5775 173.996583 
L 569.88 173.242075 
L 569.1825 172.451143 
L 568.485 171.631828 
L 567.7875 170.792539 
L 567.09 169.94197 
L 566.3925 169.089017 
L 565.695 168.242683 
L 564.9975 167.411989 
L 564.3 166.605881 
L 563.6025 165.833138 
L 562.905 165.102276 
L 562.2075 164.421459 
L 561.51 163.798413 
L 560.8125 163.240336 
L 560.115 162.753825 
L 559.4175 162.344793 
L 558.72 162.018409 
L 558.0225 161.779029 
L 557.325 161.630145 
L 556.6275 161.57434 
L 555.93 161.613251 
L 555.2325 161.747538 
L 554.535 161.976871 
L 553.8375 162.299918 
L 553.14 162.714352 
L 552.4425 163.216856 
L 551.745 163.803155 
L 551.0475 164.46804 
L 550.35 165.205418 
L 549.6525 166.008359 
L 548.955 166.869161 
L 548.2575 167.779418 
L 547.56 168.730098 
L 546.8625 169.711629 
L 546.165 170.713993 
L 545.4675 171.726816 
L 544.77 172.73948 
L 544.0725 173.741219 
L 543.375 174.721234 
L 542.6775 175.668803 
L 541.98 176.573384 
L 541.2825 177.424735 
L 540.585 178.213015 
L 539.8875 178.928891 
L 539.19 179.56364 
L 538.4925 180.109246 
L 537.795 180.558488 
L 537.0975 180.905025 
L 536.4 181.14347 
L 535.7025 181.269458 
L 535.005 181.279704 
L 534.3075 181.172046 
L 533.61 180.945484 
L 532.9125 180.600206 
L 532.215 180.137598 
L 531.5175 179.560248 
L 530.82 178.871933 
L 530.1225 178.077601 
L 529.425 177.183331 
L 528.7275 176.196289 
L 528.03 175.124673 
L 527.3325 173.97764 
L 526.635 172.765232 
L 525.9375 171.498282 
L 525.24 170.188322 
L 524.5425 168.847475 
L 523.845 167.488344 
L 523.1475 166.123892 
L 522.45 164.76732 
L 521.7525 163.43194 
L 521.055 162.131048 
L 520.3575 160.877787 
L 519.66 159.685024 
L 518.9625 158.565216 
L 518.265 157.530285 
L 517.5675 156.591495 
L 516.87 155.759336 
L 516.1725 155.043409 
L 515.475 154.452328 
L 514.7775 153.993619 
L 514.08 153.673639 
L 513.3825 153.497497 
L 512.685 153.468995 
L 511.9875 153.590573 
L 511.29 153.86327 
L 510.5925 154.286702 
L 509.895 154.859046 
L 509.1975 155.577045 
L 508.5 156.436019 
L 507.8025 157.429901 
L 507.105 158.551276 
L 506.4075 159.791437 
L 505.71 161.14046 
L 505.0125 162.58728 
L 504.315 164.119788 
L 503.6175 165.724938 
L 502.92 167.388858 
L 502.2225 169.096975 
L 501.525 170.834147 
L 500.8275 172.584804 
L 500.13 174.333086 
L 499.4325 176.062997 
L 498.735 177.758551 
L 498.0375 179.403925 
L 497.34 180.98361 
L 496.6425 182.482563 
L 495.945 183.886349 
L 495.2475 185.181286 
L 494.55 186.35458 
L 493.8525 187.394451 
L 493.155 188.290259 
L 492.4575 189.032604 
L 491.76 189.613435 
L 491.0625 190.026129 
L 490.365 190.265568 
L 489.6675 190.328199 
L 488.97 190.212079 
L 488.2725 189.916904 
L 487.575 189.444027 
L 486.8775 188.796456 
L 486.18 187.978834 
L 485.4825 186.997414 
L 484.785 185.860007 
L 484.0875 184.575918 
L 483.39 183.155873 
L 482.6925 181.611923 
L 481.995 179.957344 
L 481.2975 178.206516 
L 480.6 176.374797 
L 479.9025 174.478384 
L 479.205 172.534167 
L 478.5075 170.559572 
L 477.81 168.572403 
L 477.1125 166.590676 
L 476.415 164.63245 
L 475.7175 162.715657 
L 475.02 160.857933 
L 474.3225 159.076455 
L 473.625 157.387767 
L 472.9275 155.807632 
L 472.23 154.35087 
L 471.5325 153.031221 
L 470.835 151.861206 
L 470.1375 150.852004 
L 469.44 150.01334 
L 468.7425 149.353389 
L 468.045 148.878685 
L 467.3475 148.594061 
L 466.65 148.502588 
L 465.9525 148.605542 
L 465.255 148.902383 
L 464.5575 149.390752 
L 463.86 150.066487 
L 463.1625 150.923654 
L 462.465 151.954595 
L 461.7675 153.149996 
L 461.07 154.498965 
L 460.3725 155.989134 
L 459.675 157.606766 
L 458.9775 159.336882 
L 458.28 161.163399 
L 457.5825 163.069279 
L 456.885 165.036686 
L 456.1875 167.047155 
L 455.49 169.081762 
L 454.7925 171.121306 
L 454.095 173.14649 
L 453.3975 175.138105 
L 452.7 177.077211 
L 452.0025 178.945323 
L 451.305 180.724586 
L 450.6075 182.397951 
L 449.91 183.949335 
L 449.2125 185.363784 
L 448.515 186.62762 
L 447.8175 187.728572 
L 447.12 188.655901 
L 446.4225 189.400509 
L 445.725 189.955029 
L 445.0275 190.313905 
L 444.33 190.473451 
L 443.6325 190.431888 
L 442.935 190.189375 
L 442.2375 189.748007 
L 441.54 189.111807 
L 440.8425 188.286691 
L 440.145 187.280417 
L 439.4475 186.102517 
L 438.75 184.764214 
L 438.0525 183.278315 
L 437.355 181.659097 
L 436.6575 179.922169 
L 435.96 178.084334 
L 435.2625 176.163423 
L 434.565 174.17813 
L 433.8675 172.147836 
L 433.17 170.092418 
L 432.4725 168.032067 
L 431.775 165.987086 
L 431.0775 163.977699 
L 430.38 162.023852 
L 429.6825 160.145019 
L 428.985 158.360015 
L 428.2875 156.686806 
L 427.59 155.142335 
L 426.8925 153.742354 
L 426.195 152.501263 
L 425.4975 151.431971 
L 424.8 150.545759 
L 424.1025 149.852166 
L 423.405 149.358891 
L 422.7075 149.071709 
L 422.01 148.994409 
L 421.3125 149.128743 
L 420.615 149.474409 
L 419.9175 150.029037 
L 419.22 150.788209 
L 418.5225 151.74549 
L 417.825 152.892479 
L 417.1275 154.218886 
L 416.43 155.712623 
L 415.7325 157.359908 
L 415.035 159.145394 
L 414.3375 161.052313 
L 413.64 163.062625 
L 412.9425 165.157191 
L 412.245 167.315953 
L 411.5475 169.518121 
L 410.85 171.742372 
L 410.1525 173.967052 
L 409.455 176.170385 
L 408.7575 178.330682 
L 408.06 180.426548 
L 407.3625 182.437096 
L 406.665 184.342142 
L 405.9675 186.12241 
L 405.27 187.759717 
L 404.5725 189.237159 
L 403.875 190.539272 
L 403.1775 191.652196 
L 402.48 192.56381 
L 401.7825 193.26386 
L 401.085 193.744063 
L 400.3875 193.998204 
L 399.69 194.022196 
L 398.9925 193.814138 
L 398.295 193.374338 
L 397.5975 192.705325 
L 396.9 191.811834 
L 396.2025 190.700772 
L 395.505 189.381163 
L 394.8075 187.864073 
L 394.11 186.162511 
L 393.4125 184.291321 
L 392.715 182.267043 
L 392.0175 180.107768 
L 391.32 177.832971 
L 390.6225 175.463334 
L 389.925 173.020554 
L 389.2275 170.527145 
L 388.53 168.006222 
L 387.8325 165.481292 
L 387.135 162.976027 
L 386.4375 160.514043 
L 385.74 158.118678 
L 385.0425 155.812766 
L 384.345 153.618422 
L 383.6475 151.556827 
L 382.95 149.648026 
L 382.2525 147.910733 
L 381.555 146.36215 
L 380.8575 145.017794 
L 380.16 143.89135 
L 379.4625 142.994527 
L 378.765 142.336946 
L 378.0675 141.926037 
L 377.37 141.766962 
L 376.6725 141.862556 
L 375.975 142.213291 
L 375.2775 142.817267 
L 374.58 143.670212 
L 373.8825 144.765521 
L 373.185 146.094306 
L 372.4875 147.645471 
L 371.79 149.405809 
L 371.0925 151.360116 
L 370.395 153.491331 
L 369.6975 155.780683 
L 369 158.207868 
L 368.3025 160.751229 
L 367.605 163.387956 
L 366.9075 166.094296 
L 366.21 168.845772 
L 365.5125 171.617409 
L 364.815 174.383968 
L 364.1175 177.120177 
L 363.42 179.800973 
L 362.7225 182.401731 
L 362.025 184.898498 
L 361.3275 187.268221 
L 360.63 189.488959 
L 359.9325 191.540093 
L 359.235 193.402525 
L 358.5375 195.058856 
L 357.84 196.493552 
L 357.1425 197.693096 
L 356.445 198.646118 
L 355.7475 199.343503 
L 355.05 199.778484 
L 354.3525 199.946708 
L 353.655 199.846281 
L 352.9575 199.477791 
L 352.26 198.844305 
L 351.5625 197.95135 
L 350.865 196.806857 
L 350.1675 195.421099 
L 349.47 193.806592 
L 348.7725 191.977985 
L 348.075 189.951925 
L 347.3775 187.746905 
L 346.68 185.383091 
L 345.9825 182.882138 
L 345.285 180.266987 
L 344.5875 177.561656 
L 343.89 174.791008 
L 343.1925 171.980528 
L 342.495 169.156081 
L 341.7975 166.343669 
L 341.1 163.56919 
L 340.4025 160.858191 
L 339.705 158.235635 
L 339.0075 155.725659 
L 338.31 153.351353 
L 337.6125 151.13454 
L 336.915 149.095567 
L 336.2175 147.253122 
L 335.52 145.624048 
L 334.8225 144.223189 
L 334.125 143.06325 
L 333.4275 142.154674 
L 332.73 141.505545 
L 332.0325 141.121508 
L 331.335 141.005722 
L 330.6375 141.158822 
L 329.94 141.578915 
L 329.2425 142.261602 
L 328.545 143.200012 
L 327.8475 144.38487 
L 327.15 145.804586 
L 326.4525 147.445361 
L 325.755 149.29132 
L 325.0575 151.32466 
L 324.36 153.52582 
L 323.6625 155.873665 
L 322.965 158.345689 
L 322.2675 160.918223 
L 321.57 163.566666 
L 320.8725 166.265712 
L 320.175 168.989596 
L 319.4775 171.712335 
L 318.78 174.407977 
L 318.0825 177.050845 
L 317.385 179.615784 
L 316.6875 182.078399 
L 315.99 184.415289 
L 315.2925 186.604266 
L 314.595 188.624572 
L 313.8975 190.457069 
L 313.2 192.084431 
L 312.5025 193.491302 
L 311.805 194.664446 
L 311.1075 195.592873 
L 310.41 196.267943 
L 309.7125 196.683451 
L 309.015 196.835684 
L 308.3175 196.723459 
L 307.62 196.348135 
L 306.9225 195.713598 
L 306.225 194.826225 
L 305.5275 193.694827 
L 304.83 192.33056 
L 304.1325 190.746824 
L 303.435 188.959131 
L 302.7375 186.98496 
L 302.04 184.843589 
L 301.3425 182.55591 
L 300.645 180.144233 
L 299.9475 177.632069 
L 299.25 175.043906 
L 298.5525 172.404977 
L 297.855 169.741015 
L 297.1575 167.078008 
L 296.46 164.441952 
L 295.7625 161.858596 
L 295.065 159.353202 
L 294.3675 156.950296 
L 293.67 154.673436 
L 292.9725 152.544984 
L 292.275 150.585889 
L 291.5775 148.815489 
L 290.88 147.251319 
L 290.1825 145.908943 
L 289.485 144.801806 
L 288.7875 143.941097 
L 288.09 143.335646 
L 287.3925 142.991831 
L 286.695 142.913519 
L 285.9975 143.102021 
L 285.3 143.556082 
L 284.6025 144.271887 
L 283.905 145.243095 
L 283.2075 146.460896 
L 282.51 147.914094 
L 281.8125 149.589209 
L 281.115 151.470606 
L 280.4175 153.540637 
L 279.72 155.779814 
L 279.0225 158.166983 
L 278.325 160.679535 
L 277.6275 163.293612 
L 276.93 165.984335 
L 276.2325 168.726042 
L 275.535 171.492528 
L 274.8375 174.257299 
L 274.14 176.993819 
L 273.4425 179.675766 
L 272.745 182.277284 
L 272.0475 184.773225 
L 271.35 187.139394 
L 270.6525 189.352779 
L 269.955 191.39177 
L 269.2575 193.236369 
L 268.56 194.86838 
L 267.8625 196.271587 
L 267.165 197.431908 
L 266.4675 198.337533 
L 265.77 198.979038 
L 265.0725 199.349481 
L 264.375 199.444466 
L 263.6775 199.262194 
L 262.98 198.80348 
L 262.2825 198.071747 
L 261.585 197.073003 
L 260.8875 195.815782 
L 260.19 194.311072 
L 259.4925 192.572209 
L 258.795 190.614758 
L 258.0975 188.456366 
L 257.4 186.116603 
L 256.7025 183.616774 
L 256.005 180.979724 
L 255.3075 178.229624 
L 254.61 175.391745 
L 253.9125 172.492222 
L 253.215 169.557808 
L 252.5175 166.615624 
L 251.82 163.692904 
L 251.1225 160.816743 
L 250.425 158.013835 
L 249.7275 155.310232 
L 249.03 152.73109 
L 248.3325 150.300441 
L 247.635 148.040961 
L 246.9375 145.973758 
L 246.24 144.118177 
L 245.5425 142.491613 
L 244.845 141.109352 
L 244.1475 139.984423 
L 243.45 139.12748 
L 242.7525 138.546695 
L 242.055 138.24769 
L 241.3575 138.233476 
L 240.66 138.504427 
L 239.9625 139.058279 
L 239.265 139.890149 
L 238.5675 140.992578 
L 237.87 142.355606 
L 237.1725 143.966861 
L 236.475 145.811677 
L 235.7775 147.873231 
L 235.08 150.132702 
L 234.3825 152.569442 
L 233.685 155.161177 
L 232.9875 157.884209 
L 232.29 160.713641 
L 231.5925 163.623609 
L 230.895 166.587523 
L 230.1975 169.578318 
L 229.5 172.568703 
L 228.8025 175.531418 
L 228.105 178.439486 
L 227.4075 181.266467 
L 226.71 183.9867 
L 226.0125 186.575548 
L 225.315 189.009616 
L 224.6175 191.266979 
L 223.92 193.327376 
L 223.2225 195.172401 
L 222.525 196.78567 
L 221.8275 198.152971 
L 221.13 199.262397 
L 220.4325 200.104446 
L 219.735 200.672114 
L 219.0375 200.960949 
L 218.34 200.969093 
L 217.6425 200.697291 
L 216.945 200.148884 
L 216.2475 199.329766 
L 215.55 198.248331 
L 214.8525 196.915383 
L 214.155 195.344035 
L 213.4575 193.549579 
L 212.76 191.549337 
L 212.0625 189.362499 
L 211.365 187.009931 
L 210.6675 184.513985 
L 209.97 181.898279 
L 209.2725 179.187474 
L 208.575 176.407044 
L 207.8775 173.58303 
L 207.18 170.741795 
L 206.4825 167.909778 
L 205.785 165.113245 
L 205.0875 162.378039 
L 204.39 159.729342 
L 203.6925 157.191438 
L 202.995 154.787489 
L 202.2975 152.539315 
L 201.6 150.467198 
L 200.9025 148.589692 
L 200.205 146.923452 
L 199.5075 145.483086 
L 198.81 144.28102 
L 198.1125 143.327387 
L 197.415 142.629938 
L 196.7175 142.19398 
L 196.02 142.022324 
L 195.3225 142.115276 
L 194.625 142.470635 
L 193.9275 143.083722 
L 193.23 143.947435 
L 192.5325 145.052321 
L 191.835 146.386673 
L 191.1375 147.936648 
L 190.44 149.686407 
L 189.7425 151.618268 
L 189.045 153.712882 
L 188.3475 155.949424 
L 187.65 158.305789 
L 186.9525 160.758813 
L 186.255 163.284496 
L 185.5575 165.85823 
L 184.86 168.455035 
L 184.1625 171.049805 
L 183.465 173.61754 
L 182.7675 176.13359 
L 182.07 178.573885 
L 181.3725 180.915167 
L 180.675 183.135208 
L 179.9775 185.213022 
L 179.28 187.129057 
L 178.5825 188.865383 
L 177.885 190.405859 
L 177.1875 191.736279 
L 176.49 192.844505 
L 175.7925 193.720578 
L 175.095 194.356807 
L 174.3975 194.747837 
L 173.7 194.890693 
L 173.0025 194.784806 
L 172.305 194.432007 
L 171.6075 193.836506 
L 170.91 193.004847 
L 170.2125 191.945837 
L 169.515 190.670459 
L 168.8175 189.191757 
L 168.12 187.524709 
L 167.4225 185.686078 
L 166.725 183.694248 
L 166.0275 181.569041 
L 165.33 179.331526 
L 164.6325 177.003813 
L 163.935 174.608839 
L 163.2375 172.170145 
L 162.54 169.711648 
L 161.8425 167.257414 
L 161.145 164.831424 
L 160.4475 162.457342 
L 159.75 160.158296 
L 159.0525 157.956646 
L 158.355 155.873781 
L 157.6575 153.929911 
L 156.96 152.143874 
L 156.2625 150.532961 
L 155.565 149.112753 
L 154.8675 147.896972 
L 154.17 146.897353 
L 153.4725 146.123537 
L 152.775 145.582983 
L 152.0775 145.280896 
L 151.38 145.220185 
L 150.6825 145.401435 
L 149.985 145.822911 
L 149.2875 146.480572 
L 148.59 147.368116 
L 147.8925 148.477045 
L 147.195 149.796746 
L 146.4975 151.314601 
L 145.8 153.016103 
L 145.1025 154.885004 
L 144.405 156.90347 
L 143.7075 159.052252 
L 143.01 161.310873 
L 142.3125 163.657823 
L 141.615 166.07077 
L 140.9175 168.526765 
L 140.22 171.002471 
L 139.5225 173.474378 
L 138.825 175.919029 
L 138.1275 178.313242 
L 137.43 180.634331 
L 136.7325 182.860318 
L 136.035 184.970143 
L 135.3375 186.943857 
L 134.64 188.762816 
L 133.9425 190.409847 
L 133.245 191.869417 
L 132.5475 193.127769 
L 131.85 194.173053 
L 131.1525 194.995434 
L 130.455 195.58718 
L 129.7575 195.942733 
L 129.06 196.058755 
L 128.3625 195.934159 
L 127.665 195.570109 
L 126.9675 194.97001 
L 126.27 194.13947 
L 125.5725 193.086241 
L 124.875 191.820144 
L 124.1775 190.352971 
L 123.48 188.698368 
L 122.7825 186.871709 
L 122.085 184.889941 
L 121.3875 182.771425 
L 120.69 180.535759 
L 119.9925 178.203594 
L 119.295 175.796434 
L 118.5975 173.336437 
L 117.9 170.846201 
L 117.2025 168.348555 
L 116.505 165.866346 
L 115.8075 163.42222 
L 115.11 161.038416 
L 114.4125 158.736559 
L 113.715 156.537458 
L 113.0175 154.460912 
L 112.32 152.525537 
L 111.6225 150.748587 
L 110.925 149.145802 
L 110.2275 147.731266 
L 109.53 146.51728 
L 108.8325 145.514257 
L 108.135 144.730626 
L 107.4375 144.172768 
L 106.74 143.844957 
L 106.0425 143.749334 
L 105.345 143.885894 
L 104.6475 144.252491 
L 103.95 144.844872 
L 103.2525 145.656723 
L 102.555 146.679736 
L 101.8575 147.903695 
L 101.16 149.316584 
L 100.4625 150.904699 
L 99.765 152.65279 
L 99.0675 154.544208 
L 98.37 156.561068 
L 97.6725 158.684419 
L 96.975 160.894428 
L 96.2775 163.170569 
L 95.58 165.491819 
L 94.8825 167.836853 
L 94.185 170.184248 
L 93.4875 172.512685 
L 92.79 174.80114 
L 92.0925 177.029088 
L 91.395 179.176685 
L 90.6975 181.224953 
L 90 183.155951 
z
" style="fill:#e0ffff;"/>
   </g>
   <g id="line2d_19">
    <path clip-path="url(#p7355dc892b)" d="M 90 183.155951 
L 91.395 179.176685 
L 93.4875 172.512685 
L 98.37 156.561068 
L 99.765 152.65279 
L 101.16 149.316584 
L 102.555 146.679736 
L 103.2525 145.656723 
L 103.95 144.844872 
L 104.6475 144.252491 
L 105.345 143.885894 
L 106.0425 143.749334 
L 106.74 143.844957 
L 107.4375 144.172768 
L 108.135 144.730626 
L 108.8325 145.514257 
L 109.53 146.51728 
L 110.925 149.145802 
L 112.32 152.525537 
L 113.715 156.537458 
L 115.8075 163.42222 
L 121.3875 182.771425 
L 122.7825 186.871709 
L 124.1775 190.352971 
L 125.5725 193.086241 
L 126.27 194.13947 
L 126.9675 194.97001 
L 127.665 195.570109 
L 128.3625 195.934159 
L 129.06 196.058755 
L 129.7575 195.942733 
L 130.455 195.58718 
L 131.1525 194.995434 
L 131.85 194.173053 
L 132.5475 193.127769 
L 133.9425 190.409847 
L 135.3375 186.943857 
L 136.7325 182.860318 
L 138.825 175.919029 
L 143.7075 159.052252 
L 145.1025 154.885004 
L 146.4975 151.314601 
L 147.8925 148.477045 
L 148.59 147.368116 
L 149.2875 146.480572 
L 149.985 145.822911 
L 150.6825 145.401435 
L 151.38 145.220185 
L 152.0775 145.280896 
L 152.775 145.582983 
L 153.4725 146.123537 
L 154.17 146.897353 
L 154.8675 147.896972 
L 156.2625 150.532961 
L 157.6575 153.929911 
L 159.0525 157.956646 
L 161.145 164.831424 
L 166.0275 181.569041 
L 167.4225 185.686078 
L 168.8175 189.191757 
L 170.2125 191.945837 
L 170.91 193.004847 
L 171.6075 193.836506 
L 172.305 194.432007 
L 173.0025 194.784806 
L 173.7 194.890693 
L 174.3975 194.747837 
L 175.095 194.356807 
L 175.7925 193.720578 
L 176.49 192.844505 
L 177.1875 191.736279 
L 178.5825 188.865383 
L 179.9775 185.213022 
L 181.3725 180.915167 
L 183.465 173.61754 
L 188.3475 155.949424 
L 189.7425 151.618268 
L 191.1375 147.936648 
L 192.5325 145.052321 
L 193.23 143.947435 
L 193.9275 143.083722 
L 194.625 142.470635 
L 195.3225 142.115276 
L 196.02 142.022324 
L 196.7175 142.19398 
L 197.415 142.629938 
L 198.1125 143.327387 
L 198.81 144.28102 
L 199.5075 145.483086 
L 200.9025 148.589692 
L 202.2975 152.539315 
L 203.6925 157.191438 
L 205.785 165.113245 
L 210.6675 184.513985 
L 212.0625 189.362499 
L 213.4575 193.549579 
L 214.8525 196.915383 
L 215.55 198.248331 
L 216.2475 199.329766 
L 216.945 200.148884 
L 217.6425 200.697291 
L 218.34 200.969093 
L 219.0375 200.960949 
L 219.735 200.672114 
L 220.4325 200.104446 
L 221.13 199.262397 
L 221.8275 198.152971 
L 222.525 196.78567 
L 223.92 193.327376 
L 225.315 189.009616 
L 226.71 183.9867 
L 228.8025 175.531418 
L 233.685 155.161177 
L 235.08 150.132702 
L 236.475 145.811677 
L 237.87 142.355606 
L 238.5675 140.992578 
L 239.265 139.890149 
L 239.9625 139.058279 
L 240.66 138.504427 
L 241.3575 138.233476 
L 242.055 138.24769 
L 242.7525 138.546695 
L 243.45 139.12748 
L 244.1475 139.984423 
L 244.845 141.109352 
L 246.24 144.118177 
L 247.635 148.040961 
L 249.03 152.73109 
L 251.1225 160.816743 
L 256.7025 183.616774 
L 258.0975 188.456366 
L 259.4925 192.572209 
L 260.8875 195.815782 
L 261.585 197.073003 
L 262.2825 198.071747 
L 262.98 198.80348 
L 263.6775 199.262194 
L 264.375 199.444466 
L 265.0725 199.349481 
L 265.77 198.979038 
L 266.4675 198.337533 
L 267.165 197.431908 
L 267.8625 196.271587 
L 269.2575 193.236369 
L 270.6525 189.352779 
L 272.0475 184.773225 
L 274.14 176.993819 
L 279.0225 158.166983 
L 280.4175 153.540637 
L 281.8125 149.589209 
L 283.2075 146.460896 
L 283.905 145.243095 
L 284.6025 144.271887 
L 285.3 143.556082 
L 285.9975 143.102021 
L 286.695 142.913519 
L 287.3925 142.991831 
L 288.09 143.335646 
L 288.7875 143.941097 
L 289.485 144.801806 
L 290.1825 145.908943 
L 291.5775 148.815489 
L 292.9725 152.544984 
L 294.3675 156.950296 
L 296.46 164.441952 
L 301.3425 182.55591 
L 302.7375 186.98496 
L 304.1325 190.746824 
L 305.5275 193.694827 
L 306.225 194.826225 
L 306.9225 195.713598 
L 307.62 196.348135 
L 308.3175 196.723459 
L 309.015 196.835684 
L 309.7125 196.683451 
L 310.41 196.267943 
L 311.1075 195.592873 
L 311.805 194.664446 
L 312.5025 193.491302 
L 313.8975 190.457069 
L 315.2925 186.604266 
L 316.6875 182.078399 
L 318.78 174.407977 
L 323.6625 155.873665 
L 325.0575 151.32466 
L 326.4525 147.445361 
L 327.8475 144.38487 
L 328.545 143.200012 
L 329.2425 142.261602 
L 329.94 141.578915 
L 330.6375 141.158822 
L 331.335 141.005722 
L 332.0325 141.121508 
L 332.73 141.505545 
L 333.4275 142.154674 
L 334.125 143.06325 
L 334.8225 144.223189 
L 336.2175 147.253122 
L 337.6125 151.13454 
L 339.0075 155.725659 
L 341.1 163.56919 
L 346.68 185.383091 
L 348.075 189.951925 
L 349.47 193.806592 
L 350.865 196.806857 
L 351.5625 197.95135 
L 352.26 198.844305 
L 352.9575 199.477791 
L 353.655 199.846281 
L 354.3525 199.946708 
L 355.05 199.778484 
L 355.7475 199.343503 
L 356.445 198.646118 
L 357.1425 197.693096 
L 357.84 196.493552 
L 359.235 193.402525 
L 360.63 189.488959 
L 362.025 184.898498 
L 364.1175 177.120177 
L 369 158.207868 
L 370.395 153.491331 
L 371.79 149.405809 
L 373.185 146.094306 
L 374.58 143.670212 
L 375.2775 142.817267 
L 375.975 142.213291 
L 376.6725 141.862556 
L 377.37 141.766962 
L 378.0675 141.926037 
L 378.765 142.336946 
L 379.4625 142.994527 
L 380.16 143.89135 
L 380.8575 145.017794 
L 382.2525 147.910733 
L 383.6475 151.556827 
L 385.0425 155.812766 
L 387.135 162.976027 
L 392.0175 180.107768 
L 393.4125 184.291321 
L 394.8075 187.864073 
L 396.2025 190.700772 
L 396.9 191.811834 
L 397.5975 192.705325 
L 398.295 193.374338 
L 398.9925 193.814138 
L 399.69 194.022196 
L 400.3875 193.998204 
L 401.085 193.744063 
L 401.7825 193.26386 
L 402.48 192.56381 
L 403.1775 191.652196 
L 404.5725 189.237159 
L 405.9675 186.12241 
L 407.3625 182.437096 
L 409.455 176.170385 
L 414.3375 161.052313 
L 415.7325 157.359908 
L 417.1275 154.218886 
L 418.5225 151.74549 
L 419.22 150.788209 
L 419.9175 150.029037 
L 420.615 149.474409 
L 421.3125 149.128743 
L 422.01 148.994409 
L 422.7075 149.071709 
L 423.405 149.358891 
L 424.1025 149.852166 
L 424.8 150.545759 
L 425.4975 151.431971 
L 426.8925 153.742354 
L 428.2875 156.686806 
L 429.6825 160.145019 
L 431.775 165.987086 
L 435.96 178.084334 
L 437.355 181.659097 
L 438.75 184.764214 
L 440.145 187.280417 
L 441.54 189.111807 
L 442.2375 189.748007 
L 442.935 190.189375 
L 443.6325 190.431888 
L 444.33 190.473451 
L 445.0275 190.313905 
L 445.725 189.955029 
L 446.4225 189.400509 
L 447.12 188.655901 
L 448.515 186.62762 
L 449.91 183.949335 
L 451.305 180.724586 
L 453.3975 175.138105 
L 458.9775 159.336882 
L 460.3725 155.989134 
L 461.7675 153.149996 
L 463.1625 150.923654 
L 463.86 150.066487 
L 464.5575 149.390752 
L 465.255 148.902383 
L 465.9525 148.605542 
L 466.65 148.502588 
L 467.3475 148.594061 
L 468.045 148.878685 
L 468.7425 149.353389 
L 469.44 150.01334 
L 470.835 151.861206 
L 472.23 154.35087 
L 473.625 157.387767 
L 475.7175 162.715657 
L 482.6925 181.611923 
L 484.0875 184.575918 
L 485.4825 186.997414 
L 486.8775 188.796456 
L 487.575 189.444027 
L 488.2725 189.916904 
L 488.97 190.212079 
L 489.6675 190.328199 
L 490.365 190.265568 
L 491.0625 190.026129 
L 491.76 189.613435 
L 492.4575 189.032604 
L 493.8525 187.394451 
L 495.2475 185.181286 
L 496.6425 182.482563 
L 498.735 177.758551 
L 505.0125 162.58728 
L 506.4075 159.791437 
L 507.8025 157.429901 
L 509.1975 155.577045 
L 510.5925 154.286702 
L 511.29 153.86327 
L 511.9875 153.590573 
L 512.685 153.468995 
L 513.3825 153.497497 
L 514.08 153.673639 
L 514.7775 153.993619 
L 516.1725 155.043409 
L 517.5675 156.591495 
L 518.9625 158.565216 
L 521.055 162.131048 
L 524.5425 168.847475 
L 527.3325 173.97764 
L 528.7275 176.196289 
L 530.1225 178.077601 
L 531.5175 179.560248 
L 532.9125 180.600206 
L 534.3075 181.172046 
L 535.005 181.279704 
L 535.7025 181.269458 
L 537.0975 180.905025 
L 538.4925 180.109246 
L 539.8875 178.928891 
L 541.2825 177.424735 
L 543.375 174.721234 
L 549.6525 166.008359 
L 551.0475 164.46804 
L 552.4425 163.216856 
L 553.8375 162.299918 
L 555.2325 161.747538 
L 556.6275 161.57434 
L 558.0225 161.779029 
L 559.4175 162.344793 
L 560.8125 163.240336 
L 562.2075 164.421459 
L 564.3 166.605881 
L 567.7875 170.792539 
L 570.5775 173.996583 
L 571.9725 175.366476 
L 573.3675 176.506707 
L 574.7625 177.373443 
L 576.1575 177.934698 
L 577.5525 178.171367 
L 578.9475 178.077733 
L 580.3425 177.661405 
L 581.7375 176.942732 
L 583.1325 175.953701 
L 584.5275 174.736401 
L 586.62 172.594114 
L 592.8975 165.737343 
L 594.99 163.949713 
L 596.385 163.03146 
L 597.78 162.366443 
L 599.175 161.972382 
L 600.57 161.856042 
L 601.965 162.013313 
L 603.36 162.429732 
L 604.755 163.08141 
L 606.15 163.936331 
L 608.2425 165.514097 
L 611.73 168.557951 
L 614.52 170.952773 
L 616.6125 172.509591 
L 618.705 173.744922 
L 620.1 174.356259 
L 621.495 174.785985 
L 622.89 175.033051 
L 624.285 175.104088 
L 625.68 175.012672 
L 627.7725 174.614932 
L 629.865 173.980707 
L 634.05 172.390505 
L 637.5375 171.166861 
L 640.3275 170.465865 
L 643.1175 170.067042 
L 645.9075 169.926896 
L 646.605 169.92 
L 646.605 169.92 
" style="fill:none;stroke:#008080;stroke-linecap:round;stroke-width:1.75;"/>
   </g>
   <g id="patch_3">
    <path d="M 90 270.72 
L 90 69.12 
" style="fill:none;stroke:#262626;stroke-linecap:square;stroke-linejoin:miter;stroke-width:1.25;"/>
   </g>
   <g id="patch_4">
    <path d="M 90 270.72 
L 648 270.72 
" style="fill:none;stroke:#262626;stroke-linecap:square;stroke-linejoin:miter;stroke-width:1.25;"/>
   </g>
  </g>
  <g id="axes_2">
   <g id="patch_5">
    <path d="M 90 512.64 
L 648 512.64 
L 648 311.04 
L 90 311.04 
z
" style="fill:#ffffff;"/>
   </g>
   <g id="matplotlib.axis_3">
    <g id="xtick_10">
     <g id="line2d_20">
      <g>
       <use style="fill:#262626;stroke:#262626;" x="191.454545" xlink:href="#m045c5f2fa1" y="512.64"/>
      </g>
     </g>
     <g id="text_19">
      <!-- 200 -->
      <g style="fill:#262626;" transform="translate(183.113139 532.797812)scale(0.1 -0.1)">
       <use xlink:href="#ArialMT-32"/>
       <use x="55.615234" xlink:href="#ArialMT-30"/>
       <use x="111.230469" xlink:href="#ArialMT-30"/>
      </g>
     </g>
    </g>
    <g id="xtick_11">
     <g id="line2d_21">
      <g>
       <use style="fill:#262626;stroke:#262626;" x="304.181818" xlink:href="#m045c5f2fa1" y="512.64"/>
      </g>
     </g>
     <g id="text_20">
      <!-- 400 -->
      <g style="fill:#262626;" transform="translate(295.840412 532.797812)scale(0.1 -0.1)">
       <use xlink:href="#ArialMT-34"/>
       <use x="55.615234" xlink:href="#ArialMT-30"/>
       <use x="111.230469" xlink:href="#ArialMT-30"/>
      </g>
     </g>
    </g>
    <g id="xtick_12">
     <g id="line2d_22">
      <g>
       <use style="fill:#262626;stroke:#262626;" x="416.909091" xlink:href="#m045c5f2fa1" y="512.64"/>
      </g>
     </g>
     <g id="text_21">
      <!-- 600 -->
      <g style="fill:#262626;" transform="translate(408.567685 532.797812)scale(0.1 -0.1)">
       <use xlink:href="#ArialMT-36"/>
       <use x="55.615234" xlink:href="#ArialMT-30"/>
       <use x="111.230469" xlink:href="#ArialMT-30"/>
      </g>
     </g>
    </g>
    <g id="xtick_13">
     <g id="line2d_23">
      <g>
       <use style="fill:#262626;stroke:#262626;" x="529.636364" xlink:href="#m045c5f2fa1" y="512.64"/>
      </g>
     </g>
     <g id="text_22">
      <!-- 800 -->
      <g style="fill:#262626;" transform="translate(521.294957 532.797812)scale(0.1 -0.1)">
       <use xlink:href="#ArialMT-38"/>
       <use x="55.615234" xlink:href="#ArialMT-30"/>
       <use x="111.230469" xlink:href="#ArialMT-30"/>
      </g>
     </g>
    </g>
    <g id="xtick_14">
     <g id="line2d_24">
      <g>
       <use style="fill:#262626;stroke:#262626;" x="642.363636" xlink:href="#m045c5f2fa1" y="512.64"/>
      </g>
     </g>
     <g id="text_23">
      <!-- 1000 -->
      <g style="fill:#262626;" transform="translate(631.241761 532.797812)scale(0.1 -0.1)">
       <use xlink:href="#ArialMT-31"/>
       <use x="55.615234" xlink:href="#ArialMT-30"/>
       <use x="111.230469" xlink:href="#ArialMT-30"/>
       <use x="166.845703" xlink:href="#ArialMT-30"/>
      </g>
     </g>
    </g>
   </g>
   <g id="matplotlib.axis_4">
    <g id="ytick_10">
     <g id="line2d_25">
      <g>
       <use style="fill:#262626;stroke:#262626;" x="90" xlink:href="#md022b7fa45" y="512.64"/>
      </g>
     </g>
     <g id="text_24">
      <!-- 0 -->
      <g style="fill:#262626;" transform="translate(71.439063 516.218906)scale(0.1 -0.1)">
       <use xlink:href="#ArialMT-30"/>
      </g>
     </g>
    </g>
    <g id="ytick_11">
     <g id="line2d_26">
      <g>
       <use style="fill:#262626;stroke:#262626;" x="90" xlink:href="#md022b7fa45" y="487.44"/>
      </g>
     </g>
     <g id="text_25">
      <!-- 5 -->
      <g style="fill:#262626;" transform="translate(71.439063 491.018906)scale(0.1 -0.1)">
       <use xlink:href="#ArialMT-35"/>
      </g>
     </g>
    </g>
    <g id="ytick_12">
     <g id="line2d_27">
      <g>
       <use style="fill:#262626;stroke:#262626;" x="90" xlink:href="#md022b7fa45" y="462.24"/>
      </g>
     </g>
     <g id="text_26">
      <!-- 10 -->
      <g style="fill:#262626;" transform="translate(65.878125 465.818906)scale(0.1 -0.1)">
       <use xlink:href="#ArialMT-31"/>
       <use x="55.615234" xlink:href="#ArialMT-30"/>
      </g>
     </g>
    </g>
    <g id="ytick_13">
     <g id="line2d_28">
      <g>
       <use style="fill:#262626;stroke:#262626;" x="90" xlink:href="#md022b7fa45" y="437.04"/>
      </g>
     </g>
     <g id="text_27">
      <!-- 15 -->
      <g style="fill:#262626;" transform="translate(65.878125 440.618906)scale(0.1 -0.1)">
       <use xlink:href="#ArialMT-31"/>
       <use x="55.615234" xlink:href="#ArialMT-35"/>
      </g>
     </g>
    </g>
    <g id="ytick_14">
     <g id="line2d_29">
      <g>
       <use style="fill:#262626;stroke:#262626;" x="90" xlink:href="#md022b7fa45" y="411.84"/>
      </g>
     </g>
     <g id="text_28">
      <!-- 20 -->
      <g style="fill:#262626;" transform="translate(65.878125 415.418906)scale(0.1 -0.1)">
       <use xlink:href="#ArialMT-32"/>
       <use x="55.615234" xlink:href="#ArialMT-30"/>
      </g>
     </g>
    </g>
    <g id="ytick_15">
     <g id="line2d_30">
      <g>
       <use style="fill:#262626;stroke:#262626;" x="90" xlink:href="#md022b7fa45" y="386.64"/>
      </g>
     </g>
     <g id="text_29">
      <!-- 25 -->
      <g style="fill:#262626;" transform="translate(65.878125 390.218906)scale(0.1 -0.1)">
       <use xlink:href="#ArialMT-32"/>
       <use x="55.615234" xlink:href="#ArialMT-35"/>
      </g>
     </g>
    </g>
    <g id="ytick_16">
     <g id="line2d_31">
      <g>
       <use style="fill:#262626;stroke:#262626;" x="90" xlink:href="#md022b7fa45" y="361.44"/>
      </g>
     </g>
     <g id="text_30">
      <!-- 30 -->
      <g style="fill:#262626;" transform="translate(65.878125 365.018906)scale(0.1 -0.1)">
       <use xlink:href="#ArialMT-33"/>
       <use x="55.615234" xlink:href="#ArialMT-30"/>
      </g>
     </g>
    </g>
    <g id="ytick_17">
     <g id="line2d_32">
      <g>
       <use style="fill:#262626;stroke:#262626;" x="90" xlink:href="#md022b7fa45" y="336.24"/>
      </g>
     </g>
     <g id="text_31">
      <!-- 35 -->
      <g style="fill:#262626;" transform="translate(65.878125 339.818906)scale(0.1 -0.1)">
       <use xlink:href="#ArialMT-33"/>
       <use x="55.615234" xlink:href="#ArialMT-35"/>
      </g>
     </g>
    </g>
    <g id="ytick_18">
     <g id="line2d_33">
      <g>
       <use style="fill:#262626;stroke:#262626;" x="90" xlink:href="#md022b7fa45" y="311.04"/>
      </g>
     </g>
     <g id="text_32">
      <!-- 40 -->
      <g style="fill:#262626;" transform="translate(65.878125 314.618906)scale(0.1 -0.1)">
       <use xlink:href="#ArialMT-34"/>
       <use x="55.615234" xlink:href="#ArialMT-30"/>
      </g>
     </g>
    </g>
   </g>
   <g id="line2d_34">
    <path clip-path="url(#p45ae92171e)" d="M 90 488.562059 
L 95.636364 492.871917 
L 101.272727 491.915277 
L 106.909091 490.291312 
L 112.545455 492.192009 
L 118.181818 490.692663 
L 123.818182 490.203121 
L 129.454545 491.968658 
L 135.090909 490.163889 
L 140.727273 490.392837 
L 146.363636 490.241829 
L 152 489.156296 
L 157.636364 490.240305 
L 163.272727 490.645166 
L 168.909091 488.187222 
L 174.545455 488.633986 
L 180.181818 487.313077 
L 185.818182 487.018973 
L 191.454545 487.338343 
L 197.090909 486.121391 
L 202.727273 487.201243 
L 208.363636 484.042031 
L 214 483.157918 
L 219.636364 483.169266 
L 225.272727 482.846357 
L 230.909091 480.992047 
L 236.545455 479.145187 
L 242.181818 476.443916 
L 247.818182 475.314111 
L 253.454545 475.654125 
L 259.090909 473.305387 
L 264.727273 469.316541 
L 270.363636 463.226508 
L 276 459.185057 
L 281.636364 457.614718 
L 287.272727 454.794335 
L 292.909091 445.504843 
L 298.545455 423.732573 
L 304.181818 397.596726 
L 309.818182 374.961344 
L 315.454545 359.936381 
L 321.090909 350.604229 
L 326.727273 348.320806 
L 332.363636 355.280194 
L 338 371.866917 
L 343.636364 395.340341 
L 349.272727 419.997954 
L 354.909091 443.187999 
L 360.545455 460.277658 
L 366.181818 467.98198 
L 371.818182 471.852273 
L 377.454545 475.259843 
L 383.090909 478.489151 
L 388.727273 479.074231 
L 394.363636 476.894748 
L 400 474.552455 
L 405.636364 471.950812 
L 411.272727 468.681632 
L 416.909091 461.027911 
L 422.545455 441.166731 
L 428.181818 416.729328 
L 433.818182 392.840566 
L 439.454545 373.276917 
L 445.090909 358.526684 
L 450.727273 350.201791 
L 456.363636 350.555151 
L 462 360.822412 
L 467.636364 379.751599 
L 473.272727 402.879459 
" style="fill:none;stroke:#b22222;stroke-linecap:round;stroke-width:1.75;"/>
   </g>
   <g id="patch_6">
    <path d="M 90 512.64 
L 90 311.04 
" style="fill:none;stroke:#262626;stroke-linecap:square;stroke-linejoin:miter;stroke-width:1.25;"/>
   </g>
   <g id="patch_7">
    <path d="M 90 512.64 
L 648 512.64 
" style="fill:none;stroke:#262626;stroke-linecap:square;stroke-linejoin:miter;stroke-width:1.25;"/>
   </g>
   <g id="text_33">
    <!-- f = 700 Hz -->
    <defs>
     <path d="M 8.6875 0 
L 8.6875 45.015625 
L 0.921875 45.015625 
L 0.921875 51.859375 
L 8.6875 51.859375 
L 8.6875 57.375 
Q 8.6875 62.59375 9.625 65.140625 
Q 10.890625 68.5625 14.078125 70.671875 
Q 17.28125 72.796875 23.046875 72.796875 
Q 26.765625 72.796875 31.25 71.921875 
L 29.9375 64.265625 
Q 27.203125 64.75 24.75 64.75 
Q 20.75 64.75 19.09375 63.03125 
Q 17.4375 61.328125 17.4375 56.640625 
L 17.4375 51.859375 
L 27.546875 51.859375 
L 27.546875 45.015625 
L 17.4375 45.015625 
L 17.4375 0 
z
" id="ArialMT-66"/>
     <path id="ArialMT-20"/>
     <path d="M 52.828125 42.09375 
L 5.5625 42.09375 
L 5.5625 50.296875 
L 52.828125 50.296875 
z
M 52.828125 20.359375 
L 5.5625 20.359375 
L 5.5625 28.5625 
L 52.828125 28.5625 
z
" id="ArialMT-3d"/>
     <path d="M 8.015625 0 
L 8.015625 71.578125 
L 17.484375 71.578125 
L 17.484375 42.1875 
L 54.6875 42.1875 
L 54.6875 71.578125 
L 64.15625 71.578125 
L 64.15625 0 
L 54.6875 0 
L 54.6875 33.734375 
L 17.484375 33.734375 
L 17.484375 0 
z
" id="ArialMT-48"/>
     <path d="M 1.953125 0 
L 1.953125 7.125 
L 34.96875 45.015625 
Q 29.34375 44.734375 25.046875 44.734375 
L 3.90625 44.734375 
L 3.90625 51.859375 
L 46.296875 51.859375 
L 46.296875 46.046875 
L 18.21875 13.140625 
L 12.796875 7.125 
Q 18.703125 7.5625 23.875 7.5625 
L 47.859375 7.5625 
L 47.859375 0 
z
" id="ArialMT-7a"/>
    </defs>
    <g style="fill:#262626;" transform="translate(529.636364 364.542187)scale(0.12 -0.12)">
     <use xlink:href="#ArialMT-66"/>
     <use x="27.783203" xlink:href="#ArialMT-20"/>
     <use x="55.566406" xlink:href="#ArialMT-3d"/>
     <use x="113.964844" xlink:href="#ArialMT-20"/>
     <use x="141.748047" xlink:href="#ArialMT-37"/>
     <use x="197.363281" xlink:href="#ArialMT-30"/>
     <use x="252.978516" xlink:href="#ArialMT-30"/>
     <use x="308.59375" xlink:href="#ArialMT-20"/>
     <use x="336.376953" xlink:href="#ArialMT-48"/>
     <use x="408.59375" xlink:href="#ArialMT-7a"/>
    </g>
   </g>
   <g id="PathCollection_1">
    <defs>
     <path d="M 0 3.5 
C 0.928211 3.5 1.81853 3.131218 2.474874 2.474874 
C 3.131218 1.81853 3.5 0.928211 3.5 0 
C 3.5 -0.928211 3.131218 -1.81853 2.474874 -2.474874 
C 1.81853 -3.131218 0.928211 -3.5 0 -3.5 
C -0.928211 -3.5 -1.81853 -3.131218 -2.474874 -2.474874 
C -3.131218 -1.81853 -3.5 -0.928211 -3.5 0 
C -3.5 0.928211 -3.131218 1.81853 -2.474874 2.474874 
C -1.81853 3.131218 -0.928211 3.5 0 3.5 
z
" id="mf0f75ba72c" style="stroke:#800000;stroke-width:0.3;"/>
    </defs>
    <g clip-path="url(#p45ae92171e)">
     <use style="fill:#800000;stroke:#800000;stroke-width:0.3;" x="473.272727" xlink:href="#mf0f75ba72c" y="402.879459"/>
    </g>
   </g>
  </g>
 </g>
 <defs>
  <clipPath id="p7355dc892b">
   <rect height="201.6" width="558" x="90" y="69.12"/>
  </clipPath>
  <clipPath id="p45ae92171e">
   <rect height="201.6" width="558" x="90" y="311.04"/>
  </clipPath>
 </defs>
</svg>
