<?xml version="1.0" encoding="utf-8" standalone="no"?>
<!DOCTYPE svg PUBLIC "-//W3C//DTD SVG 1.1//EN"
  "http://www.w3.org/Graphics/SVG/1.1/DTD/svg11.dtd">
<!-- Created with matplotlib (http://matplotlib.org/) -->
<svg height="576pt" version="1.1" viewBox="0 0 720 576" width="720pt" xmlns="http://www.w3.org/2000/svg" xmlns:xlink="http://www.w3.org/1999/xlink">
 <defs>
  <style type="text/css">
*{stroke-linecap:butt;stroke-linejoin:round;}
  </style>
 </defs>
 <g id="figure_1">
  <g id="patch_1">
   <path d="M 0 576 
L 720 576 
L 720 0 
L 0 0 
z
" style="fill:#ffffff;"/>
  </g>
  <g id="axes_1">
   <g id="patch_2">
    <path d="M 90 270.72 
L 648 270.72 
L 648 69.12 
L 90 69.12 
z
" style="fill:#ffffff;"/>
   </g>
   <g id="matplotlib.axis_1">
    <g id="xtick_1">
     <g id="line2d_1">
      <defs>
       <path d="M 0 0 
L 0 6 
" id="m46721e8a94" style="stroke:#262626;"/>
      </defs>
      <g>
       <use style="fill:#262626;stroke:#262626;" x="90" xlink:href="#m46721e8a94" y="270.72"/>
      </g>
     </g>
     <g id="text_1">
      <!-- 0 -->
      <defs>
       <path d="M 4.15625 35.296875 
Q 4.15625 48 6.765625 55.734375 
Q 9.375 63.484375 14.515625 67.671875 
Q 19.671875 71.875 27.484375 71.875 
Q 33.25 71.875 37.59375 69.546875 
Q 41.9375 67.234375 44.765625 62.859375 
Q 47.609375 58.5 49.21875 52.21875 
Q 50.828125 45.953125 50.828125 35.296875 
Q 50.828125 22.703125 48.234375 14.96875 
Q 45.65625 7.234375 40.5 3 
Q 35.359375 -1.21875 27.484375 -1.21875 
Q 17.140625 -1.21875 11.234375 6.203125 
Q 4.15625 15.140625 4.15625 35.296875 
z
M 13.1875 35.296875 
Q 13.1875 17.671875 17.3125 11.828125 
Q 21.4375 6 27.484375 6 
Q 33.546875 6 37.671875 11.859375 
Q 41.796875 17.71875 41.796875 35.296875 
Q 41.796875 52.984375 37.671875 58.78125 
Q 33.546875 64.59375 27.390625 64.59375 
Q 21.34375 64.59375 17.71875 59.46875 
Q 13.1875 52.9375 13.1875 35.296875 
z
" id="ArialMT-30"/>
      </defs>
      <g style="fill:#262626;" transform="translate(87.219531 290.877812)scale(0.1 -0.1)">
       <use xlink:href="#ArialMT-30"/>
      </g>
     </g>
    </g>
    <g id="xtick_2">
     <g id="line2d_2">
      <g>
       <use style="fill:#262626;stroke:#262626;" x="159.75" xlink:href="#m46721e8a94" y="270.72"/>
      </g>
     </g>
     <g id="text_2">
      <!-- 100 -->
      <defs>
       <path d="M 37.25 0 
L 28.46875 0 
L 28.46875 56 
Q 25.296875 52.984375 20.140625 49.953125 
Q 14.984375 46.921875 10.890625 45.40625 
L 10.890625 53.90625 
Q 18.265625 57.375 23.78125 62.296875 
Q 29.296875 67.234375 31.59375 71.875 
L 37.25 71.875 
z
" id="ArialMT-31"/>
      </defs>
      <g style="fill:#262626;" transform="translate(151.408594 290.877812)scale(0.1 -0.1)">
       <use xlink:href="#ArialMT-31"/>
       <use x="55.615234" xlink:href="#ArialMT-30"/>
       <use x="111.230469" xlink:href="#ArialMT-30"/>
      </g>
     </g>
    </g>
    <g id="xtick_3">
     <g id="line2d_3">
      <g>
       <use style="fill:#262626;stroke:#262626;" x="229.5" xlink:href="#m46721e8a94" y="270.72"/>
      </g>
     </g>
     <g id="text_3">
      <!-- 200 -->
      <defs>
       <path d="M 50.34375 8.453125 
L 50.34375 0 
L 3.03125 0 
Q 2.9375 3.171875 4.046875 6.109375 
Q 5.859375 10.9375 9.828125 15.625 
Q 13.8125 20.3125 21.34375 26.46875 
Q 33.015625 36.03125 37.109375 41.625 
Q 41.21875 47.21875 41.21875 52.203125 
Q 41.21875 57.421875 37.46875 61 
Q 33.734375 64.59375 27.734375 64.59375 
Q 21.390625 64.59375 17.578125 60.78125 
Q 13.765625 56.984375 13.71875 50.25 
L 4.6875 51.171875 
Q 5.609375 61.28125 11.65625 66.578125 
Q 17.71875 71.875 27.9375 71.875 
Q 38.234375 71.875 44.234375 66.15625 
Q 50.25 60.453125 50.25 52 
Q 50.25 47.703125 48.484375 43.546875 
Q 46.734375 39.40625 42.65625 34.8125 
Q 38.578125 30.21875 29.109375 22.21875 
Q 21.1875 15.578125 18.9375 13.203125 
Q 16.703125 10.84375 15.234375 8.453125 
z
" id="ArialMT-32"/>
      </defs>
      <g style="fill:#262626;" transform="translate(221.158594 290.877812)scale(0.1 -0.1)">
       <use xlink:href="#ArialMT-32"/>
       <use x="55.615234" xlink:href="#ArialMT-30"/>
       <use x="111.230469" xlink:href="#ArialMT-30"/>
      </g>
     </g>
    </g>
    <g id="xtick_4">
     <g id="line2d_4">
      <g>
       <use style="fill:#262626;stroke:#262626;" x="299.25" xlink:href="#m46721e8a94" y="270.72"/>
      </g>
     </g>
     <g id="text_4">
      <!-- 300 -->
      <defs>
       <path d="M 4.203125 18.890625 
L 12.984375 20.0625 
Q 14.5 12.59375 18.140625 9.296875 
Q 21.78125 6 27 6 
Q 33.203125 6 37.46875 10.296875 
Q 41.75 14.59375 41.75 20.953125 
Q 41.75 27 37.796875 30.921875 
Q 33.84375 34.859375 27.734375 34.859375 
Q 25.25 34.859375 21.53125 33.890625 
L 22.515625 41.609375 
Q 23.390625 41.5 23.921875 41.5 
Q 29.546875 41.5 34.03125 44.421875 
Q 38.53125 47.359375 38.53125 53.46875 
Q 38.53125 58.296875 35.25 61.46875 
Q 31.984375 64.65625 26.8125 64.65625 
Q 21.6875 64.65625 18.265625 61.421875 
Q 14.84375 58.203125 13.875 51.765625 
L 5.078125 53.328125 
Q 6.6875 62.15625 12.390625 67.015625 
Q 18.109375 71.875 26.609375 71.875 
Q 32.46875 71.875 37.390625 69.359375 
Q 42.328125 66.84375 44.9375 62.5 
Q 47.5625 58.15625 47.5625 53.265625 
Q 47.5625 48.640625 45.0625 44.828125 
Q 42.578125 41.015625 37.703125 38.765625 
Q 44.046875 37.3125 47.5625 32.6875 
Q 51.078125 28.078125 51.078125 21.140625 
Q 51.078125 11.765625 44.234375 5.25 
Q 37.40625 -1.265625 26.953125 -1.265625 
Q 17.53125 -1.265625 11.296875 4.34375 
Q 5.078125 9.96875 4.203125 18.890625 
z
" id="ArialMT-33"/>
      </defs>
      <g style="fill:#262626;" transform="translate(290.908594 290.877812)scale(0.1 -0.1)">
       <use xlink:href="#ArialMT-33"/>
       <use x="55.615234" xlink:href="#ArialMT-30"/>
       <use x="111.230469" xlink:href="#ArialMT-30"/>
      </g>
     </g>
    </g>
    <g id="xtick_5">
     <g id="line2d_5">
      <g>
       <use style="fill:#262626;stroke:#262626;" x="369" xlink:href="#m46721e8a94" y="270.72"/>
      </g>
     </g>
     <g id="text_5">
      <!-- 400 -->
      <defs>
       <path d="M 32.328125 0 
L 32.328125 17.140625 
L 1.265625 17.140625 
L 1.265625 25.203125 
L 33.9375 71.578125 
L 41.109375 71.578125 
L 41.109375 25.203125 
L 50.78125 25.203125 
L 50.78125 17.140625 
L 41.109375 17.140625 
L 41.109375 0 
z
M 32.328125 25.203125 
L 32.328125 57.46875 
L 9.90625 25.203125 
z
" id="ArialMT-34"/>
      </defs>
      <g style="fill:#262626;" transform="translate(360.658594 290.877812)scale(0.1 -0.1)">
       <use xlink:href="#ArialMT-34"/>
       <use x="55.615234" xlink:href="#ArialMT-30"/>
       <use x="111.230469" xlink:href="#ArialMT-30"/>
      </g>
     </g>
    </g>
    <g id="xtick_6">
     <g id="line2d_6">
      <g>
       <use style="fill:#262626;stroke:#262626;" x="438.75" xlink:href="#m46721e8a94" y="270.72"/>
      </g>
     </g>
     <g id="text_6">
      <!-- 500 -->
      <defs>
       <path d="M 4.15625 18.75 
L 13.375 19.53125 
Q 14.40625 12.796875 18.140625 9.390625 
Q 21.875 6 27.15625 6 
Q 33.5 6 37.890625 10.78125 
Q 42.28125 15.578125 42.28125 23.484375 
Q 42.28125 31 38.0625 35.34375 
Q 33.84375 39.703125 27 39.703125 
Q 22.75 39.703125 19.328125 37.765625 
Q 15.921875 35.84375 13.96875 32.765625 
L 5.71875 33.84375 
L 12.640625 70.609375 
L 48.25 70.609375 
L 48.25 62.203125 
L 19.671875 62.203125 
L 15.828125 42.96875 
Q 22.265625 47.46875 29.34375 47.46875 
Q 38.71875 47.46875 45.15625 40.96875 
Q 51.609375 34.46875 51.609375 24.265625 
Q 51.609375 14.546875 45.953125 7.46875 
Q 39.0625 -1.21875 27.15625 -1.21875 
Q 17.390625 -1.21875 11.203125 4.25 
Q 5.03125 9.71875 4.15625 18.75 
z
" id="ArialMT-35"/>
      </defs>
      <g style="fill:#262626;" transform="translate(430.408594 290.877812)scale(0.1 -0.1)">
       <use xlink:href="#ArialMT-35"/>
       <use x="55.615234" xlink:href="#ArialMT-30"/>
       <use x="111.230469" xlink:href="#ArialMT-30"/>
      </g>
     </g>
    </g>
    <g id="xtick_7">
     <g id="line2d_7">
      <g>
       <use style="fill:#262626;stroke:#262626;" x="508.5" xlink:href="#m46721e8a94" y="270.72"/>
      </g>
     </g>
     <g id="text_7">
      <!-- 600 -->
      <defs>
       <path d="M 49.75 54.046875 
L 41.015625 53.375 
Q 39.84375 58.546875 37.703125 60.890625 
Q 34.125 64.65625 28.90625 64.65625 
Q 24.703125 64.65625 21.53125 62.3125 
Q 17.390625 59.28125 14.984375 53.46875 
Q 12.59375 47.65625 12.5 36.921875 
Q 15.671875 41.75 20.265625 44.09375 
Q 24.859375 46.4375 29.890625 46.4375 
Q 38.671875 46.4375 44.84375 39.96875 
Q 51.03125 33.5 51.03125 23.25 
Q 51.03125 16.5 48.125 10.71875 
Q 45.21875 4.9375 40.140625 1.859375 
Q 35.0625 -1.21875 28.609375 -1.21875 
Q 17.625 -1.21875 10.6875 6.859375 
Q 3.765625 14.9375 3.765625 33.5 
Q 3.765625 54.25 11.421875 63.671875 
Q 18.109375 71.875 29.4375 71.875 
Q 37.890625 71.875 43.28125 67.140625 
Q 48.6875 62.40625 49.75 54.046875 
z
M 13.875 23.1875 
Q 13.875 18.65625 15.796875 14.5 
Q 17.71875 10.359375 21.1875 8.171875 
Q 24.65625 6 28.46875 6 
Q 34.03125 6 38.03125 10.484375 
Q 42.046875 14.984375 42.046875 22.703125 
Q 42.046875 30.125 38.078125 34.390625 
Q 34.125 38.671875 28.125 38.671875 
Q 22.171875 38.671875 18.015625 34.390625 
Q 13.875 30.125 13.875 23.1875 
z
" id="ArialMT-36"/>
      </defs>
      <g style="fill:#262626;" transform="translate(500.158594 290.877812)scale(0.1 -0.1)">
       <use xlink:href="#ArialMT-36"/>
       <use x="55.615234" xlink:href="#ArialMT-30"/>
       <use x="111.230469" xlink:href="#ArialMT-30"/>
      </g>
     </g>
    </g>
    <g id="xtick_8">
     <g id="line2d_8">
      <g>
       <use style="fill:#262626;stroke:#262626;" x="578.25" xlink:href="#m46721e8a94" y="270.72"/>
      </g>
     </g>
     <g id="text_8">
      <!-- 700 -->
      <defs>
       <path d="M 4.734375 62.203125 
L 4.734375 70.65625 
L 51.078125 70.65625 
L 51.078125 63.8125 
Q 44.234375 56.546875 37.515625 44.484375 
Q 30.8125 32.421875 27.15625 19.671875 
Q 24.515625 10.6875 23.78125 0 
L 14.75 0 
Q 14.890625 8.453125 18.0625 20.40625 
Q 21.234375 32.375 27.171875 43.484375 
Q 33.109375 54.59375 39.796875 62.203125 
z
" id="ArialMT-37"/>
      </defs>
      <g style="fill:#262626;" transform="translate(569.908594 290.877812)scale(0.1 -0.1)">
       <use xlink:href="#ArialMT-37"/>
       <use x="55.615234" xlink:href="#ArialMT-30"/>
       <use x="111.230469" xlink:href="#ArialMT-30"/>
      </g>
     </g>
    </g>
    <g id="xtick_9">
     <g id="line2d_9">
      <g>
       <use style="fill:#262626;stroke:#262626;" x="648" xlink:href="#m46721e8a94" y="270.72"/>
      </g>
     </g>
     <g id="text_9">
      <!-- 800 -->
      <defs>
       <path d="M 17.671875 38.8125 
Q 12.203125 40.828125 9.5625 44.53125 
Q 6.9375 48.25 6.9375 53.421875 
Q 6.9375 61.234375 12.546875 66.546875 
Q 18.171875 71.875 27.484375 71.875 
Q 36.859375 71.875 42.578125 66.421875 
Q 48.296875 60.984375 48.296875 53.171875 
Q 48.296875 48.1875 45.671875 44.5 
Q 43.0625 40.828125 37.75 38.8125 
Q 44.34375 36.671875 47.78125 31.875 
Q 51.21875 27.09375 51.21875 20.453125 
Q 51.21875 11.28125 44.71875 5.03125 
Q 38.234375 -1.21875 27.640625 -1.21875 
Q 17.046875 -1.21875 10.546875 5.046875 
Q 4.046875 11.328125 4.046875 20.703125 
Q 4.046875 27.6875 7.59375 32.390625 
Q 11.140625 37.109375 17.671875 38.8125 
z
M 15.921875 53.71875 
Q 15.921875 48.640625 19.1875 45.40625 
Q 22.46875 42.1875 27.6875 42.1875 
Q 32.765625 42.1875 36.015625 45.375 
Q 39.265625 48.578125 39.265625 53.21875 
Q 39.265625 58.0625 35.90625 61.359375 
Q 32.5625 64.65625 27.59375 64.65625 
Q 22.5625 64.65625 19.234375 61.421875 
Q 15.921875 58.203125 15.921875 53.71875 
z
M 13.09375 20.65625 
Q 13.09375 16.890625 14.875 13.375 
Q 16.65625 9.859375 20.171875 7.921875 
Q 23.6875 6 27.734375 6 
Q 34.03125 6 38.125 10.046875 
Q 42.234375 14.109375 42.234375 20.359375 
Q 42.234375 26.703125 38.015625 30.859375 
Q 33.796875 35.015625 27.4375 35.015625 
Q 21.234375 35.015625 17.15625 30.90625 
Q 13.09375 26.8125 13.09375 20.65625 
z
" id="ArialMT-38"/>
      </defs>
      <g style="fill:#262626;" transform="translate(639.658594 290.877812)scale(0.1 -0.1)">
       <use xlink:href="#ArialMT-38"/>
       <use x="55.615234" xlink:href="#ArialMT-30"/>
       <use x="111.230469" xlink:href="#ArialMT-30"/>
      </g>
     </g>
    </g>
   </g>
   <g id="matplotlib.axis_2">
    <g id="ytick_1">
     <g id="line2d_10">
      <defs>
       <path d="M 0 0 
L -6 0 
" id="me549bcb6fa" style="stroke:#262626;"/>
      </defs>
      <g>
       <use style="fill:#262626;stroke:#262626;" x="90" xlink:href="#me549bcb6fa" y="270.72"/>
      </g>
     </g>
     <g id="text_10">
      <!-- −0.20 -->
      <defs>
       <path d="M 52.828125 31.203125 
L 5.5625 31.203125 
L 5.5625 39.40625 
L 52.828125 39.40625 
z
" id="ArialMT-2212"/>
       <path d="M 9.078125 0 
L 9.078125 10.015625 
L 19.09375 10.015625 
L 19.09375 0 
z
" id="ArialMT-2e"/>
      </defs>
      <g style="fill:#262626;" transform="translate(51.698437 274.298906)scale(0.1 -0.1)">
       <use xlink:href="#ArialMT-2212"/>
       <use x="58.398438" xlink:href="#ArialMT-30"/>
       <use x="114.013672" xlink:href="#ArialMT-2e"/>
       <use x="141.796875" xlink:href="#ArialMT-32"/>
       <use x="197.412109" xlink:href="#ArialMT-30"/>
      </g>
     </g>
    </g>
    <g id="ytick_2">
     <g id="line2d_11">
      <g>
       <use style="fill:#262626;stroke:#262626;" x="90" xlink:href="#me549bcb6fa" y="245.52"/>
      </g>
     </g>
     <g id="text_11">
      <!-- −0.15 -->
      <g style="fill:#262626;" transform="translate(51.698437 249.098906)scale(0.1 -0.1)">
       <use xlink:href="#ArialMT-2212"/>
       <use x="58.398438" xlink:href="#ArialMT-30"/>
       <use x="114.013672" xlink:href="#ArialMT-2e"/>
       <use x="141.796875" xlink:href="#ArialMT-31"/>
       <use x="197.412109" xlink:href="#ArialMT-35"/>
      </g>
     </g>
    </g>
    <g id="ytick_3">
     <g id="line2d_12">
      <g>
       <use style="fill:#262626;stroke:#262626;" x="90" xlink:href="#me549bcb6fa" y="220.32"/>
      </g>
     </g>
     <g id="text_12">
      <!-- −0.10 -->
      <g style="fill:#262626;" transform="translate(51.698437 223.898906)scale(0.1 -0.1)">
       <use xlink:href="#ArialMT-2212"/>
       <use x="58.398438" xlink:href="#ArialMT-30"/>
       <use x="114.013672" xlink:href="#ArialMT-2e"/>
       <use x="141.796875" xlink:href="#ArialMT-31"/>
       <use x="197.412109" xlink:href="#ArialMT-30"/>
      </g>
     </g>
    </g>
    <g id="ytick_4">
     <g id="line2d_13">
      <g>
       <use style="fill:#262626;stroke:#262626;" x="90" xlink:href="#me549bcb6fa" y="195.12"/>
      </g>
     </g>
     <g id="text_13">
      <!-- −0.05 -->
      <g style="fill:#262626;" transform="translate(51.698437 198.698906)scale(0.1 -0.1)">
       <use xlink:href="#ArialMT-2212"/>
       <use x="58.398438" xlink:href="#ArialMT-30"/>
       <use x="114.013672" xlink:href="#ArialMT-2e"/>
       <use x="141.796875" xlink:href="#ArialMT-30"/>
       <use x="197.412109" xlink:href="#ArialMT-35"/>
      </g>
     </g>
    </g>
    <g id="ytick_5">
     <g id="line2d_14">
      <g>
       <use style="fill:#262626;stroke:#262626;" x="90" xlink:href="#me549bcb6fa" y="169.92"/>
      </g>
     </g>
     <g id="text_14">
      <!-- 0.00 -->
      <g style="fill:#262626;" transform="translate(57.539062 173.498906)scale(0.1 -0.1)">
       <use xlink:href="#ArialMT-30"/>
       <use x="55.615234" xlink:href="#ArialMT-2e"/>
       <use x="83.398438" xlink:href="#ArialMT-30"/>
       <use x="139.013672" xlink:href="#ArialMT-30"/>
      </g>
     </g>
    </g>
    <g id="ytick_6">
     <g id="line2d_15">
      <g>
       <use style="fill:#262626;stroke:#262626;" x="90" xlink:href="#me549bcb6fa" y="144.72"/>
      </g>
     </g>
     <g id="text_15">
      <!-- 0.05 -->
      <g style="fill:#262626;" transform="translate(57.539062 148.298906)scale(0.1 -0.1)">
       <use xlink:href="#ArialMT-30"/>
       <use x="55.615234" xlink:href="#ArialMT-2e"/>
       <use x="83.398438" xlink:href="#ArialMT-30"/>
       <use x="139.013672" xlink:href="#ArialMT-35"/>
      </g>
     </g>
    </g>
    <g id="ytick_7">
     <g id="line2d_16">
      <g>
       <use style="fill:#262626;stroke:#262626;" x="90" xlink:href="#me549bcb6fa" y="119.52"/>
      </g>
     </g>
     <g id="text_16">
      <!-- 0.10 -->
      <g style="fill:#262626;" transform="translate(57.539062 123.098906)scale(0.1 -0.1)">
       <use xlink:href="#ArialMT-30"/>
       <use x="55.615234" xlink:href="#ArialMT-2e"/>
       <use x="83.398438" xlink:href="#ArialMT-31"/>
       <use x="139.013672" xlink:href="#ArialMT-30"/>
      </g>
     </g>
    </g>
    <g id="ytick_8">
     <g id="line2d_17">
      <g>
       <use style="fill:#262626;stroke:#262626;" x="90" xlink:href="#me549bcb6fa" y="94.32"/>
      </g>
     </g>
     <g id="text_17">
      <!-- 0.15 -->
      <g style="fill:#262626;" transform="translate(57.539062 97.898906)scale(0.1 -0.1)">
       <use xlink:href="#ArialMT-30"/>
       <use x="55.615234" xlink:href="#ArialMT-2e"/>
       <use x="83.398438" xlink:href="#ArialMT-31"/>
       <use x="139.013672" xlink:href="#ArialMT-35"/>
      </g>
     </g>
    </g>
    <g id="ytick_9">
     <g id="line2d_18">
      <g>
       <use style="fill:#262626;stroke:#262626;" x="90" xlink:href="#me549bcb6fa" y="69.12"/>
      </g>
     </g>
     <g id="text_18">
      <!-- 0.20 -->
      <g style="fill:#262626;" transform="translate(57.539062 72.698906)scale(0.1 -0.1)">
       <use xlink:href="#ArialMT-30"/>
       <use x="55.615234" xlink:href="#ArialMT-2e"/>
       <use x="83.398438" xlink:href="#ArialMT-32"/>
       <use x="139.013672" xlink:href="#ArialMT-30"/>
      </g>
     </g>
    </g>
   </g>
   <g id="PolyCollection_1">
    <path clip-path="url(#p84894a6f99)" d="M 90 163.314955 
L 90 169.92 
L 90.6975 169.92 
L 91.395 169.92 
L 92.0925 169.92 
L 92.79 169.92 
L 93.4875 169.92 
L 94.185 169.92 
L 94.8825 169.92 
L 95.58 169.92 
L 96.2775 169.92 
L 96.975 169.92 
L 97.6725 169.92 
L 98.37 169.92 
L 99.0675 169.92 
L 99.765 169.92 
L 100.4625 169.92 
L 101.16 169.92 
L 101.8575 169.92 
L 102.555 169.92 
L 103.2525 169.92 
L 103.95 169.92 
L 104.6475 169.92 
L 105.345 169.92 
L 106.0425 169.92 
L 106.74 169.92 
L 107.4375 169.92 
L 108.135 169.92 
L 108.8325 169.92 
L 109.53 169.92 
L 110.2275 169.92 
L 110.925 169.92 
L 111.6225 169.92 
L 112.32 169.92 
L 113.0175 169.92 
L 113.715 169.92 
L 114.4125 169.92 
L 115.11 169.92 
L 115.8075 169.92 
L 116.505 169.92 
L 117.2025 169.92 
L 117.9 169.92 
L 118.5975 169.92 
L 119.295 169.92 
L 119.9925 169.92 
L 120.69 169.92 
L 121.3875 169.92 
L 122.085 169.92 
L 122.7825 169.92 
L 123.48 169.92 
L 124.1775 169.92 
L 124.875 169.92 
L 125.5725 169.92 
L 126.27 169.92 
L 126.9675 169.92 
L 127.665 169.92 
L 128.3625 169.92 
L 129.06 169.92 
L 129.7575 169.92 
L 130.455 169.92 
L 131.1525 169.92 
L 131.85 169.92 
L 132.5475 169.92 
L 133.245 169.92 
L 133.9425 169.92 
L 134.64 169.92 
L 135.3375 169.92 
L 136.035 169.92 
L 136.7325 169.92 
L 137.43 169.92 
L 138.1275 169.92 
L 138.825 169.92 
L 139.5225 169.92 
L 140.22 169.92 
L 140.9175 169.92 
L 141.615 169.92 
L 142.3125 169.92 
L 143.01 169.92 
L 143.7075 169.92 
L 144.405 169.92 
L 145.1025 169.92 
L 145.8 169.92 
L 146.4975 169.92 
L 147.195 169.92 
L 147.8925 169.92 
L 148.59 169.92 
L 149.2875 169.92 
L 149.985 169.92 
L 150.6825 169.92 
L 151.38 169.92 
L 152.0775 169.92 
L 152.775 169.92 
L 153.4725 169.92 
L 154.17 169.92 
L 154.8675 169.92 
L 155.565 169.92 
L 156.2625 169.92 
L 156.96 169.92 
L 157.6575 169.92 
L 158.355 169.92 
L 159.0525 169.92 
L 159.75 169.92 
L 160.4475 169.92 
L 161.145 169.92 
L 161.8425 169.92 
L 162.54 169.92 
L 163.2375 169.92 
L 163.935 169.92 
L 164.6325 169.92 
L 165.33 169.92 
L 166.0275 169.92 
L 166.725 169.92 
L 167.4225 169.92 
L 168.12 169.92 
L 168.8175 169.92 
L 169.515 169.92 
L 170.2125 169.92 
L 170.91 169.92 
L 171.6075 169.92 
L 172.305 169.92 
L 173.0025 169.92 
L 173.7 169.92 
L 174.3975 169.92 
L 175.095 169.92 
L 175.7925 169.92 
L 176.49 169.92 
L 177.1875 169.92 
L 177.885 169.92 
L 178.5825 169.92 
L 179.28 169.92 
L 179.9775 169.92 
L 180.675 169.92 
L 181.3725 169.92 
L 182.07 169.92 
L 182.7675 169.92 
L 183.465 169.92 
L 184.1625 169.92 
L 184.86 169.92 
L 185.5575 169.92 
L 186.255 169.92 
L 186.9525 169.92 
L 187.65 169.92 
L 188.3475 169.92 
L 189.045 169.92 
L 189.7425 169.92 
L 190.44 169.92 
L 191.1375 169.92 
L 191.835 169.92 
L 192.5325 169.92 
L 193.23 169.92 
L 193.9275 169.92 
L 194.625 169.92 
L 195.3225 169.92 
L 196.02 169.92 
L 196.7175 169.92 
L 197.415 169.92 
L 198.1125 169.92 
L 198.81 169.92 
L 199.5075 169.92 
L 200.205 169.92 
L 200.9025 169.92 
L 201.6 169.92 
L 202.2975 169.92 
L 202.995 169.92 
L 203.6925 169.92 
L 204.39 169.92 
L 205.0875 169.92 
L 205.785 169.92 
L 206.4825 169.92 
L 207.18 169.92 
L 207.8775 169.92 
L 208.575 169.92 
L 209.2725 169.92 
L 209.97 169.92 
L 210.6675 169.92 
L 211.365 169.92 
L 212.0625 169.92 
L 212.76 169.92 
L 213.4575 169.92 
L 214.155 169.92 
L 214.8525 169.92 
L 215.55 169.92 
L 216.2475 169.92 
L 216.945 169.92 
L 217.6425 169.92 
L 218.34 169.92 
L 219.0375 169.92 
L 219.735 169.92 
L 220.4325 169.92 
L 221.13 169.92 
L 221.8275 169.92 
L 222.525 169.92 
L 223.2225 169.92 
L 223.92 169.92 
L 224.6175 169.92 
L 225.315 169.92 
L 226.0125 169.92 
L 226.71 169.92 
L 227.4075 169.92 
L 228.105 169.92 
L 228.8025 169.92 
L 229.5 169.92 
L 230.1975 169.92 
L 230.895 169.92 
L 231.5925 169.92 
L 232.29 169.92 
L 232.9875 169.92 
L 233.685 169.92 
L 234.3825 169.92 
L 235.08 169.92 
L 235.7775 169.92 
L 236.475 169.92 
L 237.1725 169.92 
L 237.87 169.92 
L 238.5675 169.92 
L 239.265 169.92 
L 239.9625 169.92 
L 240.66 169.92 
L 241.3575 169.92 
L 242.055 169.92 
L 242.7525 169.92 
L 243.45 169.92 
L 244.1475 169.92 
L 244.845 169.92 
L 245.5425 169.92 
L 246.24 169.92 
L 246.9375 169.92 
L 247.635 169.92 
L 248.3325 169.92 
L 249.03 169.92 
L 249.7275 169.92 
L 250.425 169.92 
L 251.1225 169.92 
L 251.82 169.92 
L 252.5175 169.92 
L 253.215 169.92 
L 253.9125 169.92 
L 254.61 169.92 
L 255.3075 169.92 
L 256.005 169.92 
L 256.7025 169.92 
L 257.4 169.92 
L 258.0975 169.92 
L 258.795 169.92 
L 259.4925 169.92 
L 260.19 169.92 
L 260.8875 169.92 
L 261.585 169.92 
L 262.2825 169.92 
L 262.98 169.92 
L 263.6775 169.92 
L 264.375 169.92 
L 265.0725 169.92 
L 265.77 169.92 
L 266.4675 169.92 
L 267.165 169.92 
L 267.8625 169.92 
L 268.56 169.92 
L 269.2575 169.92 
L 269.955 169.92 
L 270.6525 169.92 
L 271.35 169.92 
L 272.0475 169.92 
L 272.745 169.92 
L 273.4425 169.92 
L 274.14 169.92 
L 274.8375 169.92 
L 275.535 169.92 
L 276.2325 169.92 
L 276.93 169.92 
L 277.6275 169.92 
L 278.325 169.92 
L 279.0225 169.92 
L 279.72 169.92 
L 280.4175 169.92 
L 281.115 169.92 
L 281.8125 169.92 
L 282.51 169.92 
L 283.2075 169.92 
L 283.905 169.92 
L 284.6025 169.92 
L 285.3 169.92 
L 285.9975 169.92 
L 286.695 169.92 
L 287.3925 169.92 
L 288.09 169.92 
L 288.7875 169.92 
L 289.485 169.92 
L 290.1825 169.92 
L 290.88 169.92 
L 291.5775 169.92 
L 292.275 169.92 
L 292.9725 169.92 
L 293.67 169.92 
L 294.3675 169.92 
L 295.065 169.92 
L 295.7625 169.92 
L 296.46 169.92 
L 297.1575 169.92 
L 297.855 169.92 
L 298.5525 169.92 
L 299.25 169.92 
L 299.9475 169.92 
L 300.645 169.92 
L 301.3425 169.92 
L 302.04 169.92 
L 302.7375 169.92 
L 303.435 169.92 
L 304.1325 169.92 
L 304.83 169.92 
L 305.5275 169.92 
L 306.225 169.92 
L 306.9225 169.92 
L 307.62 169.92 
L 308.3175 169.92 
L 309.015 169.92 
L 309.7125 169.92 
L 310.41 169.92 
L 311.1075 169.92 
L 311.805 169.92 
L 312.5025 169.92 
L 313.2 169.92 
L 313.8975 169.92 
L 314.595 169.92 
L 315.2925 169.92 
L 315.99 169.92 
L 316.6875 169.92 
L 317.385 169.92 
L 318.0825 169.92 
L 318.78 169.92 
L 319.4775 169.92 
L 320.175 169.92 
L 320.8725 169.92 
L 321.57 169.92 
L 322.2675 169.92 
L 322.965 169.92 
L 323.6625 169.92 
L 324.36 169.92 
L 325.0575 169.92 
L 325.755 169.92 
L 326.4525 169.92 
L 327.15 169.92 
L 327.8475 169.92 
L 328.545 169.92 
L 329.2425 169.92 
L 329.94 169.92 
L 330.6375 169.92 
L 331.335 169.92 
L 332.0325 169.92 
L 332.73 169.92 
L 333.4275 169.92 
L 334.125 169.92 
L 334.8225 169.92 
L 335.52 169.92 
L 336.2175 169.92 
L 336.915 169.92 
L 337.6125 169.92 
L 338.31 169.92 
L 339.0075 169.92 
L 339.705 169.92 
L 340.4025 169.92 
L 341.1 169.92 
L 341.7975 169.92 
L 342.495 169.92 
L 343.1925 169.92 
L 343.89 169.92 
L 344.5875 169.92 
L 345.285 169.92 
L 345.9825 169.92 
L 346.68 169.92 
L 347.3775 169.92 
L 348.075 169.92 
L 348.7725 169.92 
L 349.47 169.92 
L 350.1675 169.92 
L 350.865 169.92 
L 351.5625 169.92 
L 352.26 169.92 
L 352.9575 169.92 
L 353.655 169.92 
L 354.3525 169.92 
L 355.05 169.92 
L 355.7475 169.92 
L 356.445 169.92 
L 357.1425 169.92 
L 357.84 169.92 
L 358.5375 169.92 
L 359.235 169.92 
L 359.9325 169.92 
L 360.63 169.92 
L 361.3275 169.92 
L 362.025 169.92 
L 362.7225 169.92 
L 363.42 169.92 
L 364.1175 169.92 
L 364.815 169.92 
L 365.5125 169.92 
L 366.21 169.92 
L 366.9075 169.92 
L 367.605 169.92 
L 368.3025 169.92 
L 369 169.92 
L 369.6975 169.92 
L 370.395 169.92 
L 371.0925 169.92 
L 371.79 169.92 
L 372.4875 169.92 
L 373.185 169.92 
L 373.8825 169.92 
L 374.58 169.92 
L 375.2775 169.92 
L 375.975 169.92 
L 376.6725 169.92 
L 377.37 169.92 
L 378.0675 169.92 
L 378.765 169.92 
L 379.4625 169.92 
L 380.16 169.92 
L 380.8575 169.92 
L 381.555 169.92 
L 382.2525 169.92 
L 382.95 169.92 
L 383.6475 169.92 
L 384.345 169.92 
L 385.0425 169.92 
L 385.74 169.92 
L 386.4375 169.92 
L 387.135 169.92 
L 387.8325 169.92 
L 388.53 169.92 
L 389.2275 169.92 
L 389.925 169.92 
L 390.6225 169.92 
L 391.32 169.92 
L 392.0175 169.92 
L 392.715 169.92 
L 393.4125 169.92 
L 394.11 169.92 
L 394.8075 169.92 
L 395.505 169.92 
L 396.2025 169.92 
L 396.9 169.92 
L 397.5975 169.92 
L 398.295 169.92 
L 398.9925 169.92 
L 399.69 169.92 
L 400.3875 169.92 
L 401.085 169.92 
L 401.7825 169.92 
L 402.48 169.92 
L 403.1775 169.92 
L 403.875 169.92 
L 404.5725 169.92 
L 405.27 169.92 
L 405.9675 169.92 
L 406.665 169.92 
L 407.3625 169.92 
L 408.06 169.92 
L 408.7575 169.92 
L 409.455 169.92 
L 410.1525 169.92 
L 410.85 169.92 
L 411.5475 169.92 
L 412.245 169.92 
L 412.9425 169.92 
L 413.64 169.92 
L 414.3375 169.92 
L 415.035 169.92 
L 415.7325 169.92 
L 416.43 169.92 
L 417.1275 169.92 
L 417.825 169.92 
L 418.5225 169.92 
L 419.22 169.92 
L 419.9175 169.92 
L 420.615 169.92 
L 421.3125 169.92 
L 422.01 169.92 
L 422.7075 169.92 
L 423.405 169.92 
L 424.1025 169.92 
L 424.8 169.92 
L 425.4975 169.92 
L 426.195 169.92 
L 426.8925 169.92 
L 427.59 169.92 
L 428.2875 169.92 
L 428.985 169.92 
L 429.6825 169.92 
L 430.38 169.92 
L 431.0775 169.92 
L 431.775 169.92 
L 432.4725 169.92 
L 433.17 169.92 
L 433.8675 169.92 
L 434.565 169.92 
L 435.2625 169.92 
L 435.96 169.92 
L 436.6575 169.92 
L 437.355 169.92 
L 438.0525 169.92 
L 438.75 169.92 
L 439.4475 169.92 
L 440.145 169.92 
L 440.8425 169.92 
L 441.54 169.92 
L 442.2375 169.92 
L 442.935 169.92 
L 443.6325 169.92 
L 444.33 169.92 
L 445.0275 169.92 
L 445.725 169.92 
L 446.4225 169.92 
L 447.12 169.92 
L 447.8175 169.92 
L 448.515 169.92 
L 449.2125 169.92 
L 449.91 169.92 
L 450.6075 169.92 
L 451.305 169.92 
L 452.0025 169.92 
L 452.7 169.92 
L 453.3975 169.92 
L 454.095 169.92 
L 454.7925 169.92 
L 455.49 169.92 
L 456.1875 169.92 
L 456.885 169.92 
L 457.5825 169.92 
L 458.28 169.92 
L 458.9775 169.92 
L 459.675 169.92 
L 460.3725 169.92 
L 461.07 169.92 
L 461.7675 169.92 
L 462.465 169.92 
L 463.1625 169.92 
L 463.86 169.92 
L 464.5575 169.92 
L 465.255 169.92 
L 465.9525 169.92 
L 466.65 169.92 
L 467.3475 169.92 
L 468.045 169.92 
L 468.7425 169.92 
L 469.44 169.92 
L 470.1375 169.92 
L 470.835 169.92 
L 471.5325 169.92 
L 472.23 169.92 
L 472.9275 169.92 
L 473.625 169.92 
L 474.3225 169.92 
L 475.02 169.92 
L 475.7175 169.92 
L 476.415 169.92 
L 477.1125 169.92 
L 477.81 169.92 
L 478.5075 169.92 
L 479.205 169.92 
L 479.9025 169.92 
L 480.6 169.92 
L 481.2975 169.92 
L 481.995 169.92 
L 482.6925 169.92 
L 483.39 169.92 
L 484.0875 169.92 
L 484.785 169.92 
L 485.4825 169.92 
L 486.18 169.92 
L 486.8775 169.92 
L 487.575 169.92 
L 488.2725 169.92 
L 488.97 169.92 
L 489.6675 169.92 
L 490.365 169.92 
L 491.0625 169.92 
L 491.76 169.92 
L 492.4575 169.92 
L 493.155 169.92 
L 493.8525 169.92 
L 494.55 169.92 
L 495.2475 169.92 
L 495.945 169.92 
L 496.6425 169.92 
L 497.34 169.92 
L 498.0375 169.92 
L 498.735 169.92 
L 499.4325 169.92 
L 500.13 169.92 
L 500.8275 169.92 
L 501.525 169.92 
L 502.2225 169.92 
L 502.92 169.92 
L 503.6175 169.92 
L 504.315 169.92 
L 505.0125 169.92 
L 505.71 169.92 
L 506.4075 169.92 
L 507.105 169.92 
L 507.8025 169.92 
L 508.5 169.92 
L 509.1975 169.92 
L 509.895 169.92 
L 510.5925 169.92 
L 511.29 169.92 
L 511.9875 169.92 
L 512.685 169.92 
L 513.3825 169.92 
L 514.08 169.92 
L 514.7775 169.92 
L 515.475 169.92 
L 516.1725 169.92 
L 516.87 169.92 
L 517.5675 169.92 
L 518.265 169.92 
L 518.9625 169.92 
L 519.66 169.92 
L 520.3575 169.92 
L 521.055 169.92 
L 521.7525 169.92 
L 522.45 169.92 
L 523.1475 169.92 
L 523.845 169.92 
L 524.5425 169.92 
L 525.24 169.92 
L 525.9375 169.92 
L 526.635 169.92 
L 527.3325 169.92 
L 528.03 169.92 
L 528.7275 169.92 
L 529.425 169.92 
L 530.1225 169.92 
L 530.82 169.92 
L 531.5175 169.92 
L 532.215 169.92 
L 532.9125 169.92 
L 533.61 169.92 
L 534.3075 169.92 
L 535.005 169.92 
L 535.7025 169.92 
L 536.4 169.92 
L 537.0975 169.92 
L 537.795 169.92 
L 538.4925 169.92 
L 539.19 169.92 
L 539.8875 169.92 
L 540.585 169.92 
L 541.2825 169.92 
L 541.98 169.92 
L 542.6775 169.92 
L 543.375 169.92 
L 544.0725 169.92 
L 544.77 169.92 
L 545.4675 169.92 
L 546.165 169.92 
L 546.8625 169.92 
L 547.56 169.92 
L 548.2575 169.92 
L 548.955 169.92 
L 549.6525 169.92 
L 550.35 169.92 
L 551.0475 169.92 
L 551.745 169.92 
L 552.4425 169.92 
L 553.14 169.92 
L 553.8375 169.92 
L 554.535 169.92 
L 555.2325 169.92 
L 555.93 169.92 
L 556.6275 169.92 
L 557.325 169.92 
L 558.0225 169.92 
L 558.72 169.92 
L 559.4175 169.92 
L 560.115 169.92 
L 560.8125 169.92 
L 561.51 169.92 
L 562.2075 169.92 
L 562.905 169.92 
L 563.6025 169.92 
L 564.3 169.92 
L 564.9975 169.92 
L 565.695 169.92 
L 566.3925 169.92 
L 567.09 169.92 
L 567.7875 169.92 
L 568.485 169.92 
L 569.1825 169.92 
L 569.88 169.92 
L 570.5775 169.92 
L 571.275 169.92 
L 571.9725 169.92 
L 572.67 169.92 
L 573.3675 169.92 
L 574.065 169.92 
L 574.7625 169.92 
L 575.46 169.92 
L 576.1575 169.92 
L 576.855 169.92 
L 577.5525 169.92 
L 578.25 169.92 
L 578.9475 169.92 
L 579.645 169.92 
L 580.3425 169.92 
L 581.04 169.92 
L 581.7375 169.92 
L 582.435 169.92 
L 583.1325 169.92 
L 583.83 169.92 
L 584.5275 169.92 
L 585.225 169.92 
L 585.9225 169.92 
L 586.62 169.92 
L 587.3175 169.92 
L 588.015 169.92 
L 588.7125 169.92 
L 589.41 169.92 
L 590.1075 169.92 
L 590.805 169.92 
L 591.5025 169.92 
L 592.2 169.92 
L 592.8975 169.92 
L 593.595 169.92 
L 594.2925 169.92 
L 594.99 169.92 
L 595.6875 169.92 
L 596.385 169.92 
L 597.0825 169.92 
L 597.78 169.92 
L 598.4775 169.92 
L 599.175 169.92 
L 599.8725 169.92 
L 600.57 169.92 
L 601.2675 169.92 
L 601.965 169.92 
L 602.6625 169.92 
L 603.36 169.92 
L 604.0575 169.92 
L 604.755 169.92 
L 605.4525 169.92 
L 606.15 169.92 
L 606.8475 169.92 
L 607.545 169.92 
L 608.2425 169.92 
L 608.94 169.92 
L 609.6375 169.92 
L 610.335 169.92 
L 611.0325 169.92 
L 611.73 169.92 
L 612.4275 169.92 
L 613.125 169.92 
L 613.8225 169.92 
L 614.52 169.92 
L 615.2175 169.92 
L 615.915 169.92 
L 616.6125 169.92 
L 617.31 169.92 
L 618.0075 169.92 
L 618.705 169.92 
L 619.4025 169.92 
L 620.1 169.92 
L 620.7975 169.92 
L 621.495 169.92 
L 622.1925 169.92 
L 622.89 169.92 
L 623.5875 169.92 
L 624.285 169.92 
L 624.9825 169.92 
L 625.68 169.92 
L 626.3775 169.92 
L 627.075 169.92 
L 627.7725 169.92 
L 628.47 169.92 
L 629.1675 169.92 
L 629.865 169.92 
L 630.5625 169.92 
L 631.26 169.92 
L 631.9575 169.92 
L 632.655 169.92 
L 633.3525 169.92 
L 634.05 169.92 
L 634.7475 169.92 
L 635.445 169.92 
L 636.1425 169.92 
L 636.84 169.92 
L 637.5375 169.92 
L 638.235 169.92 
L 638.9325 169.92 
L 639.63 169.92 
L 640.3275 169.92 
L 641.025 169.92 
L 641.7225 169.92 
L 642.42 169.92 
L 643.1175 169.92 
L 643.815 169.92 
L 644.5125 169.92 
L 645.21 169.92 
L 645.9075 169.92 
L 646.605 169.92 
L 646.605 169.92 
L 646.605 169.92 
L 645.9075 169.923157 
L 645.21 169.930551 
L 644.5125 169.943226 
L 643.815 169.962177 
L 643.1175 169.988345 
L 642.42 170.022603 
L 641.7225 170.065753 
L 641.025 170.118517 
L 640.3275 170.181528 
L 639.63 170.255329 
L 638.9325 170.34036 
L 638.235 170.436962 
L 637.5375 170.545365 
L 636.84 170.665692 
L 636.1425 170.797953 
L 635.445 170.942045 
L 634.7475 171.097751 
L 634.05 171.264742 
L 633.3525 171.442577 
L 632.655 171.630706 
L 631.9575 171.828474 
L 631.26 172.035125 
L 630.5625 172.249805 
L 629.865 172.471569 
L 629.1675 172.699388 
L 628.47 172.932155 
L 627.7725 173.168692 
L 627.075 173.40776 
L 626.3775 173.648067 
L 625.68 173.888275 
L 624.9825 174.127011 
L 624.285 174.362878 
L 623.5875 174.594463 
L 622.89 174.820345 
L 622.1925 175.039109 
L 621.495 175.249354 
L 620.7975 175.449702 
L 620.1 175.638807 
L 619.4025 175.815368 
L 618.705 175.978133 
L 618.0075 176.125911 
L 617.31 176.25758 
L 616.6125 176.372092 
L 615.915 176.468481 
L 615.2175 176.545871 
L 614.52 176.603479 
L 613.8225 176.640624 
L 613.125 176.656724 
L 612.4275 176.651309 
L 611.73 176.624015 
L 611.0325 176.574591 
L 610.335 176.502898 
L 609.6375 176.408908 
L 608.94 176.292709 
L 608.2425 176.154496 
L 607.545 175.994576 
L 606.8475 175.81336 
L 606.15 175.611361 
L 605.4525 175.389192 
L 604.755 175.147559 
L 604.0575 174.887257 
L 603.36 174.609161 
L 602.6625 174.314226 
L 601.965 174.003473 
L 601.2675 173.677987 
L 600.57 173.338908 
L 599.8725 172.987424 
L 599.175 172.624763 
L 598.4775 172.252184 
L 597.78 171.870972 
L 597.0825 171.482428 
L 596.385 171.087862 
L 595.6875 170.688586 
L 594.99 170.285908 
L 594.2925 169.881121 
L 593.595 169.475501 
L 592.8975 169.070298 
L 592.2 168.666732 
L 591.5025 168.265986 
L 590.805 167.869202 
L 590.1075 167.477478 
L 589.41 167.091862 
L 588.7125 166.713349 
L 588.015 166.342881 
L 587.3175 165.981343 
L 586.62 165.62956 
L 585.9225 165.288302 
L 585.225 164.958275 
L 584.5275 164.640128 
L 583.83 164.334454 
L 583.1325 164.041786 
L 582.435 163.762602 
L 581.7375 163.497328 
L 581.04 163.246339 
L 580.3425 163.009964 
L 579.645 162.788484 
L 578.9475 162.582142 
L 578.25 162.391143 
L 577.5525 162.215658 
L 576.855 162.055828 
L 576.1575 161.911768 
L 575.46 161.783572 
L 574.7625 161.671316 
L 574.065 161.57506 
L 573.3675 161.494853 
L 572.67 161.430739 
L 571.9725 161.382754 
L 571.275 161.350934 
L 570.5775 161.335314 
L 569.88 161.335932 
L 569.1825 161.352832 
L 568.485 161.386059 
L 567.7875 161.435666 
L 567.09 161.501713 
L 566.3925 161.584264 
L 565.695 161.683388 
L 564.9975 161.79916 
L 564.3 161.931653 
L 563.6025 162.080944 
L 562.905 162.247106 
L 562.2075 162.430205 
L 561.51 162.6303 
L 560.8125 162.847435 
L 560.115 163.081641 
L 559.4175 163.332924 
L 558.72 163.601266 
L 558.0225 163.88662 
L 557.325 164.188901 
L 556.6275 164.507987 
L 555.93 164.84371 
L 555.2325 165.195851 
L 554.535 165.564138 
L 553.8375 165.94824 
L 553.14 166.347761 
L 552.4425 166.762241 
L 551.745 167.191145 
L 551.0475 167.633866 
L 550.35 168.089719 
L 549.6525 168.557939 
L 548.955 169.03768 
L 548.2575 169.528013 
L 547.56 170.027927 
L 546.8625 170.536325 
L 546.165 171.05203 
L 545.4675 171.573782 
L 544.77 172.100243 
L 544.0725 172.63 
L 543.375 173.161564 
L 542.6775 173.693381 
L 541.98 174.223831 
L 541.2825 174.751239 
L 540.585 175.273877 
L 539.8875 175.789972 
L 539.19 176.297716 
L 538.4925 176.795273 
L 537.795 177.280783 
L 537.0975 177.752381 
L 536.4 178.208196 
L 535.7025 178.646368 
L 535.005 179.065056 
L 534.3075 179.462445 
L 533.61 179.836764 
L 532.9125 180.186289 
L 532.215 180.509358 
L 531.5175 180.804379 
L 530.82 181.069841 
L 530.1225 181.304327 
L 529.425 181.506518 
L 528.7275 181.675206 
L 528.03 181.809302 
L 527.3325 181.907845 
L 526.635 181.970007 
L 525.9375 181.995104 
L 525.24 181.982598 
L 524.5425 181.932104 
L 523.845 181.843397 
L 523.1475 181.716411 
L 522.45 181.551247 
L 521.7525 181.34817 
L 521.055 181.107611 
L 520.3575 180.830171 
L 519.66 180.516613 
L 518.9625 180.167866 
L 518.265 179.785016 
L 517.5675 179.369308 
L 516.87 178.922137 
L 516.1725 178.44504 
L 515.475 177.939696 
L 514.7775 177.40791 
L 514.08 176.851611 
L 513.3825 176.272838 
L 512.685 175.673733 
L 511.9875 175.056528 
L 511.29 174.423536 
L 510.5925 173.777135 
L 509.895 173.119761 
L 509.1975 172.453894 
L 508.5 171.782041 
L 507.8025 171.10673 
L 507.105 170.43049 
L 506.4075 169.755844 
L 505.71 169.085292 
L 505.0125 168.421301 
L 504.315 167.766289 
L 503.6175 167.122618 
L 502.92 166.492577 
L 502.2225 165.878376 
L 501.525 165.282131 
L 500.8275 164.705855 
L 500.13 164.151452 
L 499.4325 163.620704 
L 498.735 163.115268 
L 498.0375 162.636664 
L 497.34 162.186273 
L 496.6425 161.765331 
L 495.945 161.374926 
L 495.2475 161.015992 
L 494.55 160.689309 
L 493.8525 160.395502 
L 493.155 160.135041 
L 492.4575 159.908241 
L 491.76 159.715264 
L 491.0625 159.556123 
L 490.365 159.430682 
L 489.6675 159.338666 
L 488.97 159.279662 
L 488.2725 159.253124 
L 487.575 159.258384 
L 486.8775 159.294656 
L 486.18 159.361046 
L 485.4825 159.456557 
L 484.785 159.580101 
L 484.0875 159.730508 
L 483.39 159.906532 
L 482.6925 160.106863 
L 481.995 160.330139 
L 481.2975 160.574951 
L 480.6 160.839855 
L 479.9025 161.123381 
L 479.205 161.424045 
L 478.5075 161.740352 
L 477.81 162.070814 
L 477.1125 162.413949 
L 476.415 162.768295 
L 475.7175 163.132415 
L 475.02 163.504907 
L 474.3225 163.884406 
L 473.625 164.269593 
L 472.9275 164.6592 
L 472.23 165.052014 
L 471.5325 165.446878 
L 470.835 165.842702 
L 470.1375 166.238456 
L 469.44 166.63318 
L 468.7425 167.025978 
L 468.045 167.416024 
L 467.3475 167.802559 
L 466.65 168.184891 
L 465.9525 168.562394 
L 465.255 168.934503 
L 464.5575 169.300717 
L 463.86 169.660591 
L 463.1625 170.013734 
L 462.465 170.359808 
L 461.7675 170.698518 
L 461.07 171.029614 
L 460.3725 171.352883 
L 459.675 171.668143 
L 458.9775 171.975244 
L 458.28 172.274055 
L 457.5825 172.564465 
L 456.885 172.846378 
L 456.1875 173.119704 
L 455.49 173.38436 
L 454.7925 173.640262 
L 454.095 173.887325 
L 453.3975 174.125454 
L 452.7 174.354546 
L 452.0025 174.574485 
L 451.305 174.785139 
L 450.6075 174.98636 
L 449.91 175.177982 
L 449.2125 175.359818 
L 448.515 175.531664 
L 447.8175 175.693295 
L 447.12 175.844469 
L 446.4225 175.984925 
L 445.725 176.114387 
L 445.0275 176.232566 
L 444.33 176.339159 
L 443.6325 176.433859 
L 442.935 176.516351 
L 442.2375 176.58632 
L 441.54 176.643454 
L 440.8425 176.687448 
L 440.145 176.718009 
L 439.4475 176.734858 
L 438.75 176.737738 
L 438.0525 176.726418 
L 437.355 176.700697 
L 436.6575 176.660407 
L 435.96 176.605421 
L 435.2625 176.535656 
L 434.565 176.451073 
L 433.8675 176.351689 
L 433.17 176.237574 
L 432.4725 176.108854 
L 431.775 175.96572 
L 431.0775 175.808421 
L 430.38 175.637274 
L 429.6825 175.452662 
L 428.985 175.255031 
L 428.2875 175.044896 
L 427.59 174.822838 
L 426.8925 174.589503 
L 426.195 174.345597 
L 425.4975 174.091891 
L 424.8 173.829212 
L 424.1025 173.558439 
L 423.405 173.280506 
L 422.7075 172.996388 
L 422.01 172.707104 
L 421.3125 172.413707 
L 420.615 172.117277 
L 419.9175 171.81892 
L 419.22 171.519755 
L 418.5225 171.220913 
L 417.825 170.923525 
L 417.1275 170.628716 
L 416.43 170.3376 
L 415.7325 170.051268 
L 415.035 169.770785 
L 414.3375 169.49718 
L 413.64 169.231441 
L 412.9425 168.974503 
L 412.245 168.727249 
L 411.5475 168.490495 
L 410.85 168.264993 
L 410.1525 168.051417 
L 409.455 167.850364 
L 408.7575 167.662347 
L 408.06 167.487793 
L 407.3625 167.327036 
L 406.665 167.180318 
L 405.9675 167.047789 
L 405.27 166.929498 
L 404.5725 166.825403 
L 403.875 166.735362 
L 403.1775 166.659143 
L 402.48 166.596417 
L 401.7825 166.546769 
L 401.085 166.509696 
L 400.3875 166.484614 
L 399.69 166.47086 
L 398.9925 166.467702 
L 398.295 166.474342 
L 397.5975 166.489922 
L 396.9 166.513533 
L 396.2025 166.544225 
L 395.505 166.581008 
L 394.8075 166.622868 
L 394.11 166.668773 
L 393.4125 166.71768 
L 392.715 166.768546 
L 392.0175 166.820338 
L 391.32 166.872039 
L 390.6225 166.92266 
L 389.925 166.971249 
L 389.2275 167.016895 
L 388.53 167.058743 
L 387.8325 167.095997 
L 387.135 167.127929 
L 386.4375 167.153885 
L 385.74 167.173295 
L 385.0425 167.185672 
L 384.345 167.190623 
L 383.6475 167.187852 
L 382.95 167.177161 
L 382.2525 167.158455 
L 381.555 167.131743 
L 380.8575 167.097139 
L 380.16 167.054862 
L 379.4625 167.005236 
L 378.765 166.948689 
L 378.0675 166.885747 
L 377.37 166.817035 
L 376.6725 166.743268 
L 375.975 166.665254 
L 375.2775 166.583877 
L 374.58 166.5001 
L 373.8825 166.414955 
L 373.185 166.329532 
L 372.4875 166.244974 
L 371.79 166.16247 
L 371.0925 166.083238 
L 370.395 166.008525 
L 369.6975 165.939589 
L 369 165.877694 
L 368.3025 165.824098 
L 367.605 165.78004 
L 366.9075 165.746736 
L 366.21 165.725361 
L 365.5125 165.717046 
L 364.815 165.722863 
L 364.1175 165.743819 
L 363.42 165.780844 
L 362.7225 165.834786 
L 362.025 165.9064 
L 361.3275 165.996342 
L 360.63 166.105164 
L 359.9325 166.233304 
L 359.235 166.381083 
L 358.5375 166.548704 
L 357.84 166.736243 
L 357.1425 166.94365 
L 356.445 167.170745 
L 355.7475 167.417221 
L 355.05 167.68264 
L 354.3525 167.966436 
L 353.655 168.267918 
L 352.9575 168.586272 
L 352.26 168.920564 
L 351.5625 169.269747 
L 350.865 169.632664 
L 350.1675 170.008055 
L 349.47 170.394566 
L 348.7725 170.790754 
L 348.075 171.195098 
L 347.3775 171.606003 
L 346.68 172.021818 
L 345.9825 172.440835 
L 345.285 172.861308 
L 344.5875 173.281459 
L 343.89 173.699491 
L 343.1925 174.113594 
L 342.495 174.521962 
L 341.7975 174.922799 
L 341.1 175.314333 
L 340.4025 175.694822 
L 339.705 176.062569 
L 339.0075 176.415927 
L 338.31 176.753314 
L 337.6125 177.073214 
L 336.915 177.374194 
L 336.2175 177.654905 
L 335.52 177.914093 
L 334.8225 178.150601 
L 334.125 178.363383 
L 333.4275 178.551497 
L 332.73 178.714121 
L 332.0325 178.850549 
L 331.335 178.960194 
L 330.6375 179.042593 
L 329.94 179.097405 
L 329.2425 179.124413 
L 328.545 179.123522 
L 327.8475 179.094757 
L 327.15 179.038263 
L 326.4525 178.9543 
L 325.755 178.843239 
L 325.0575 178.705561 
L 324.36 178.541847 
L 323.6625 178.352777 
L 322.965 178.139122 
L 322.2675 177.90174 
L 321.57 177.641564 
L 320.8725 177.359601 
L 320.175 177.056922 
L 319.4775 176.734653 
L 318.78 176.393971 
L 318.0825 176.036094 
L 317.385 175.662275 
L 316.6875 175.273793 
L 315.99 174.871946 
L 315.2925 174.458044 
L 314.595 174.033403 
L 313.8975 173.599337 
L 313.2 173.157153 
L 312.5025 172.708146 
L 311.805 172.253588 
L 311.1075 171.794732 
L 310.41 171.3328 
L 309.7125 170.868983 
L 309.015 170.404435 
L 308.3175 169.940272 
L 307.62 169.477572 
L 306.9225 169.017366 
L 306.225 168.560644 
L 305.5275 168.108351 
L 304.83 167.661387 
L 304.1325 167.220608 
L 303.435 166.786826 
L 302.7375 166.36081 
L 302.04 165.94329 
L 301.3425 165.534954 
L 300.645 165.136456 
L 299.9475 164.748416 
L 299.25 164.371419 
L 298.5525 164.006027 
L 297.855 163.652771 
L 297.1575 163.312164 
L 296.46 162.984697 
L 295.7625 162.670846 
L 295.065 162.371073 
L 294.3675 162.085832 
L 293.67 161.815567 
L 292.9725 161.560718 
L 292.275 161.32172 
L 291.5775 161.09901 
L 290.88 160.893023 
L 290.1825 160.704195 
L 289.485 160.532968 
L 288.7875 160.379781 
L 288.09 160.24508 
L 287.3925 160.129308 
L 286.695 160.032914 
L 285.9975 159.956341 
L 285.3 159.900031 
L 284.6025 159.864421 
L 283.905 159.849938 
L 283.2075 159.856999 
L 282.51 159.886004 
L 281.8125 159.937333 
L 281.115 160.011342 
L 280.4175 160.10836 
L 279.72 160.228681 
L 279.0225 160.372558 
L 278.325 160.540203 
L 277.6275 160.731777 
L 276.93 160.947387 
L 276.2325 161.187077 
L 275.535 161.450827 
L 274.8375 161.738548 
L 274.14 162.050072 
L 273.4425 162.385153 
L 272.745 162.743458 
L 272.0475 163.124568 
L 271.35 163.52797 
L 270.6525 163.953055 
L 269.955 164.399119 
L 269.2575 164.865356 
L 268.56 165.35086 
L 267.8625 165.854623 
L 267.165 166.375535 
L 266.4675 166.912387 
L 265.77 167.46387 
L 265.0725 168.028577 
L 264.375 168.605009 
L 263.6775 169.191575 
L 262.98 169.786601 
L 262.2825 170.38833 
L 261.585 170.994932 
L 260.8875 171.604511 
L 260.19 172.215109 
L 259.4925 172.824716 
L 258.795 173.43128 
L 258.0975 174.032714 
L 257.4 174.626904 
L 256.7025 175.211726 
L 256.005 175.785048 
L 255.3075 176.344747 
L 254.61 176.888716 
L 253.9125 177.414877 
L 253.215 177.921191 
L 252.5175 178.405673 
L 251.82 178.866396 
L 251.1225 179.301509 
L 250.425 179.709242 
L 249.7275 180.087923 
L 249.03 180.435979 
L 248.3325 180.751955 
L 247.635 181.034515 
L 246.9375 181.282457 
L 246.24 181.494715 
L 245.5425 181.670369 
L 244.845 181.808652 
L 244.1475 181.908952 
L 243.45 181.970818 
L 242.7525 181.993967 
L 242.055 181.978279 
L 241.3575 181.923807 
L 240.66 181.830769 
L 239.9625 181.699556 
L 239.265 181.530724 
L 238.5675 181.324995 
L 237.87 181.083252 
L 237.1725 180.806535 
L 236.475 180.496036 
L 235.7775 180.153092 
L 235.08 179.77918 
L 234.3825 179.375904 
L 233.685 178.944991 
L 232.9875 178.48828 
L 232.29 178.007712 
L 231.5925 177.505317 
L 230.895 176.983208 
L 230.1975 176.443564 
L 229.5 175.88862 
L 228.8025 175.320655 
L 228.105 174.741979 
L 227.4075 174.154922 
L 226.71 173.561819 
L 226.0125 172.964999 
L 225.315 172.366772 
L 224.6175 171.769417 
L 223.92 171.175173 
L 223.2225 170.58622 
L 222.525 170.004678 
L 221.8275 169.432589 
L 221.13 168.871911 
L 220.4325 168.324507 
L 219.735 167.79214 
L 219.0375 167.276461 
L 218.34 166.779005 
L 217.6425 166.301184 
L 216.945 165.844283 
L 216.2475 165.409456 
L 215.55 164.997721 
L 214.8525 164.609961 
L 214.155 164.24692 
L 213.4575 163.909204 
L 212.76 163.59728 
L 212.0625 163.31148 
L 211.365 163.052003 
L 210.6675 162.818915 
L 209.97 162.612157 
L 209.2725 162.43155 
L 208.575 162.276794 
L 207.8775 162.147485 
L 207.18 162.04311 
L 206.4825 161.963065 
L 205.785 161.906653 
L 205.0875 161.8731 
L 204.39 161.86156 
L 203.6925 161.871123 
L 202.995 161.900824 
L 202.2975 161.949656 
L 201.6 162.016572 
L 200.9025 162.100499 
L 200.205 162.200346 
L 199.5075 162.315013 
L 198.81 162.443394 
L 198.1125 162.584395 
L 197.415 162.736931 
L 196.7175 162.899941 
L 196.02 163.072392 
L 195.3225 163.253282 
L 194.625 163.441652 
L 193.9275 163.636585 
L 193.23 163.837214 
L 192.5325 164.042724 
L 191.835 164.252355 
L 191.1375 164.465407 
L 190.44 164.681237 
L 189.7425 164.899262 
L 189.045 165.118962 
L 188.3475 165.339876 
L 187.65 165.561602 
L 186.9525 165.783794 
L 186.255 166.006166 
L 185.5575 166.228479 
L 184.86 166.450548 
L 184.1625 166.672231 
L 183.465 166.893428 
L 182.7675 167.114078 
L 182.07 167.33415 
L 181.3725 167.553643 
L 180.675 167.772577 
L 179.9775 167.99099 
L 179.28 168.20893 
L 178.5825 168.426454 
L 177.885 168.643621 
L 177.1875 168.860484 
L 176.49 169.077089 
L 175.7925 169.293469 
L 175.095 169.509639 
L 174.3975 169.725593 
L 173.7 169.9413 
L 173.0025 170.156699 
L 172.305 170.371701 
L 171.6075 170.586181 
L 170.91 170.799978 
L 170.2125 171.012898 
L 169.515 171.224706 
L 168.8175 171.435131 
L 168.12 171.643866 
L 167.4225 171.850565 
L 166.725 172.054851 
L 166.0275 172.256309 
L 165.33 172.454499 
L 164.6325 172.648949 
L 163.935 172.839165 
L 163.2375 173.024632 
L 162.54 173.204819 
L 161.8425 173.379183 
L 161.145 173.547173 
L 160.4475 173.708236 
L 159.75 173.861823 
L 159.0525 174.007393 
L 158.355 174.144416 
L 157.6575 174.272383 
L 156.96 174.39081 
L 156.2625 174.499238 
L 155.565 174.597246 
L 154.8675 174.684451 
L 154.17 174.760512 
L 153.4725 174.825138 
L 152.775 174.878087 
L 152.0775 174.919172 
L 151.38 174.948267 
L 150.6825 174.965302 
L 149.985 174.970271 
L 149.2875 174.963233 
L 148.59 174.944309 
L 147.8925 174.913685 
L 147.195 174.871614 
L 146.4975 174.818409 
L 145.8 174.754447 
L 145.1025 174.680162 
L 144.405 174.596049 
L 143.7075 174.502654 
L 143.01 174.400572 
L 142.3125 174.290445 
L 141.615 174.172956 
L 140.9175 174.048822 
L 140.22 173.918792 
L 139.5225 173.783637 
L 138.825 173.644145 
L 138.1275 173.501117 
L 137.43 173.355357 
L 136.7325 173.207668 
L 136.035 173.058842 
L 135.3375 172.909656 
L 134.64 172.760864 
L 133.9425 172.613191 
L 133.245 172.467324 
L 132.5475 172.323911 
L 131.85 172.183549 
L 131.1525 172.046785 
L 130.455 171.914103 
L 129.7575 171.785927 
L 129.06 171.662615 
L 128.3625 171.54445 
L 127.665 171.431647 
L 126.9675 171.324341 
L 126.27 171.222593 
L 125.5725 171.126384 
L 124.875 171.035618 
L 124.1775 170.950121 
L 123.48 170.869644 
L 122.7825 170.793863 
L 122.085 170.722383 
L 121.3875 170.654743 
L 120.69 170.590415 
L 119.9925 170.528817 
L 119.295 170.469308 
L 118.5975 170.411206 
L 117.9 170.353783 
L 117.2025 170.296281 
L 116.505 170.237913 
L 115.8075 170.177876 
L 115.11 170.115356 
L 114.4125 170.049535 
L 113.715 169.979604 
L 113.0175 169.904768 
L 112.32 169.824256 
L 111.6225 169.737329 
L 110.925 169.643289 
L 110.2275 169.541486 
L 109.53 169.431329 
L 108.8325 169.312288 
L 108.135 169.183908 
L 107.4375 169.045811 
L 106.74 168.897702 
L 106.0425 168.739379 
L 105.345 168.570732 
L 104.6475 168.391751 
L 103.95 168.20253 
L 103.2525 168.003265 
L 102.555 167.794263 
L 101.8575 167.575934 
L 101.16 167.3488 
L 100.4625 167.113488 
L 99.765 166.870731 
L 99.0675 166.621366 
L 98.37 166.366328 
L 97.6725 166.106647 
L 96.975 165.843446 
L 96.2775 165.577929 
L 95.58 165.311379 
L 94.8825 165.045149 
L 94.185 164.780655 
L 93.4875 164.519366 
L 92.79 164.262795 
L 92.0925 164.01249 
L 91.395 163.770023 
L 90.6975 163.536981 
L 90 163.314955 
z
" style="fill:#e0ffff;"/>
   </g>
   <g id="line2d_19">
    <path clip-path="url(#p84894a6f99)" d="M 90 163.314955 
L 93.4875 164.519366 
L 101.8575 167.575934 
L 105.345 168.570732 
L 108.8325 169.312288 
L 112.32 169.824256 
L 117.2025 170.296281 
L 124.875 171.035618 
L 129.06 171.662615 
L 134.64 172.760864 
L 142.3125 174.290445 
L 145.8 174.754447 
L 149.2875 174.963233 
L 152.0775 174.919172 
L 154.8675 174.684451 
L 158.355 174.144416 
L 161.8425 173.379183 
L 166.725 172.054851 
L 175.7925 169.293469 
L 196.7175 162.899941 
L 199.5075 162.315013 
L 202.2975 161.949656 
L 204.39 161.86156 
L 206.4825 161.963065 
L 208.575 162.276794 
L 210.6675 162.818915 
L 212.76 163.59728 
L 214.8525 164.609961 
L 216.945 165.844283 
L 219.735 167.79214 
L 223.2225 170.58622 
L 230.895 176.983208 
L 233.685 178.944991 
L 235.7775 180.153092 
L 237.87 181.083252 
L 239.9625 181.699556 
L 241.3575 181.923807 
L 242.7525 181.993967 
L 244.1475 181.908952 
L 245.5425 181.670369 
L 247.635 181.034515 
L 249.7275 180.087923 
L 251.82 178.866396 
L 253.9125 177.414877 
L 256.7025 175.211726 
L 262.2825 170.38833 
L 266.4675 166.912387 
L 269.2575 164.865356 
L 272.0475 163.124568 
L 274.14 162.050072 
L 276.2325 161.187077 
L 278.325 160.540203 
L 280.4175 160.10836 
L 282.51 159.886004 
L 284.6025 159.864421 
L 286.695 160.032914 
L 288.7875 160.379781 
L 291.5775 161.09901 
L 294.3675 162.085832 
L 297.1575 163.312164 
L 300.645 165.136456 
L 304.1325 167.220608 
L 309.7125 170.868983 
L 315.2925 174.458044 
L 318.0825 176.036094 
L 320.8725 177.359601 
L 322.965 178.139122 
L 325.0575 178.705561 
L 327.15 179.038263 
L 329.2425 179.124413 
L 331.335 178.960194 
L 333.4275 178.551497 
L 335.52 177.914093 
L 337.6125 177.073214 
L 340.4025 175.694822 
L 343.89 173.699491 
L 350.865 169.632664 
L 353.655 168.267918 
L 356.445 167.170745 
L 358.5375 166.548704 
L 360.63 166.105164 
L 363.42 165.780844 
L 366.21 165.725361 
L 369.6975 165.939589 
L 375.975 166.665254 
L 380.16 167.054862 
L 383.6475 167.187852 
L 387.8325 167.095997 
L 400.3875 166.484614 
L 403.1775 166.659143 
L 405.9675 167.047789 
L 408.7575 167.662347 
L 411.5475 168.490495 
L 415.035 169.770785 
L 421.3125 172.413707 
L 425.4975 174.091891 
L 428.985 175.255031 
L 431.775 175.96572 
L 434.565 176.451073 
L 437.355 176.700697 
L 440.145 176.718009 
L 442.935 176.516351 
L 445.725 176.114387 
L 449.2125 175.359818 
L 452.7 174.354546 
L 456.1875 173.119704 
L 459.675 171.668143 
L 463.86 169.660591 
L 468.7425 167.025978 
L 477.1125 162.413949 
L 479.9025 161.123381 
L 482.6925 160.106863 
L 484.785 159.580101 
L 486.8775 159.294656 
L 488.97 159.279662 
L 491.0625 159.556123 
L 493.155 160.135041 
L 495.2475 161.015992 
L 497.34 162.186273 
L 499.4325 163.620704 
L 502.2225 165.878376 
L 505.71 169.085292 
L 512.685 175.673733 
L 515.475 177.939696 
L 517.5675 179.369308 
L 519.66 180.516613 
L 521.7525 181.34817 
L 523.845 181.843397 
L 525.24 181.982598 
L 526.635 181.970007 
L 528.7275 181.675206 
L 530.82 181.069841 
L 532.9125 180.186289 
L 535.005 179.065056 
L 537.795 177.280783 
L 541.2825 174.751239 
L 549.6525 168.557939 
L 553.14 166.347761 
L 555.93 164.84371 
L 558.72 163.601266 
L 561.51 162.6303 
L 564.3 161.931653 
L 567.09 161.501713 
L 569.88 161.335932 
L 572.67 161.430739 
L 575.46 161.783572 
L 578.25 162.391143 
L 581.04 163.246339 
L 583.83 164.334454 
L 587.3175 165.981343 
L 591.5025 168.265986 
L 599.8725 172.987424 
L 602.6625 174.314226 
L 605.4525 175.389192 
L 607.545 175.994576 
L 609.6375 176.408908 
L 611.73 176.624015 
L 613.8225 176.640624 
L 615.915 176.468481 
L 618.705 175.978133 
L 621.495 175.249354 
L 625.68 173.888275 
L 631.9575 171.828474 
L 635.445 170.942045 
L 638.235 170.436962 
L 641.7225 170.065753 
L 645.21 169.930551 
L 646.605 169.92 
L 646.605 169.92 
" style="fill:none;stroke:#008080;stroke-linecap:round;stroke-width:1.75;"/>
   </g>
   <g id="patch_3">
    <path d="M 90 270.72 
L 90 69.12 
" style="fill:none;stroke:#262626;stroke-linecap:square;stroke-linejoin:miter;stroke-width:1.25;"/>
   </g>
   <g id="patch_4">
    <path d="M 90 270.72 
L 648 270.72 
" style="fill:none;stroke:#262626;stroke-linecap:square;stroke-linejoin:miter;stroke-width:1.25;"/>
   </g>
  </g>
  <g id="axes_2">
   <g id="patch_5">
    <path d="M 90 512.64 
L 648 512.64 
L 648 311.04 
L 90 311.04 
z
" style="fill:#ffffff;"/>
   </g>
   <g id="matplotlib.axis_3">
    <g id="xtick_10">
     <g id="line2d_20">
      <g>
       <use style="fill:#262626;stroke:#262626;" x="191.454545" xlink:href="#m46721e8a94" y="512.64"/>
      </g>
     </g>
     <g id="text_19">
      <!-- 200 -->
      <g style="fill:#262626;" transform="translate(183.113139 532.797812)scale(0.1 -0.1)">
       <use xlink:href="#ArialMT-32"/>
       <use x="55.615234" xlink:href="#ArialMT-30"/>
       <use x="111.230469" xlink:href="#ArialMT-30"/>
      </g>
     </g>
    </g>
    <g id="xtick_11">
     <g id="line2d_21">
      <g>
       <use style="fill:#262626;stroke:#262626;" x="304.181818" xlink:href="#m46721e8a94" y="512.64"/>
      </g>
     </g>
     <g id="text_20">
      <!-- 400 -->
      <g style="fill:#262626;" transform="translate(295.840412 532.797812)scale(0.1 -0.1)">
       <use xlink:href="#ArialMT-34"/>
       <use x="55.615234" xlink:href="#ArialMT-30"/>
       <use x="111.230469" xlink:href="#ArialMT-30"/>
      </g>
     </g>
    </g>
    <g id="xtick_12">
     <g id="line2d_22">
      <g>
       <use style="fill:#262626;stroke:#262626;" x="416.909091" xlink:href="#m46721e8a94" y="512.64"/>
      </g>
     </g>
     <g id="text_21">
      <!-- 600 -->
      <g style="fill:#262626;" transform="translate(408.567685 532.797812)scale(0.1 -0.1)">
       <use xlink:href="#ArialMT-36"/>
       <use x="55.615234" xlink:href="#ArialMT-30"/>
       <use x="111.230469" xlink:href="#ArialMT-30"/>
      </g>
     </g>
    </g>
    <g id="xtick_13">
     <g id="line2d_23">
      <g>
       <use style="fill:#262626;stroke:#262626;" x="529.636364" xlink:href="#m46721e8a94" y="512.64"/>
      </g>
     </g>
     <g id="text_22">
      <!-- 800 -->
      <g style="fill:#262626;" transform="translate(521.294957 532.797812)scale(0.1 -0.1)">
       <use xlink:href="#ArialMT-38"/>
       <use x="55.615234" xlink:href="#ArialMT-30"/>
       <use x="111.230469" xlink:href="#ArialMT-30"/>
      </g>
     </g>
    </g>
    <g id="xtick_14">
     <g id="line2d_24">
      <g>
       <use style="fill:#262626;stroke:#262626;" x="642.363636" xlink:href="#m46721e8a94" y="512.64"/>
      </g>
     </g>
     <g id="text_23">
      <!-- 1000 -->
      <g style="fill:#262626;" transform="translate(631.241761 532.797812)scale(0.1 -0.1)">
       <use xlink:href="#ArialMT-31"/>
       <use x="55.615234" xlink:href="#ArialMT-30"/>
       <use x="111.230469" xlink:href="#ArialMT-30"/>
       <use x="166.845703" xlink:href="#ArialMT-30"/>
      </g>
     </g>
    </g>
   </g>
   <g id="matplotlib.axis_4">
    <g id="ytick_10">
     <g id="line2d_25">
      <g>
       <use style="fill:#262626;stroke:#262626;" x="90" xlink:href="#me549bcb6fa" y="512.64"/>
      </g>
     </g>
     <g id="text_24">
      <!-- 0 -->
      <g style="fill:#262626;" transform="translate(71.439063 516.218906)scale(0.1 -0.1)">
       <use xlink:href="#ArialMT-30"/>
      </g>
     </g>
    </g>
    <g id="ytick_11">
     <g id="line2d_26">
      <g>
       <use style="fill:#262626;stroke:#262626;" x="90" xlink:href="#me549bcb6fa" y="487.44"/>
      </g>
     </g>
     <g id="text_25">
      <!-- 5 -->
      <g style="fill:#262626;" transform="translate(71.439063 491.018906)scale(0.1 -0.1)">
       <use xlink:href="#ArialMT-35"/>
      </g>
     </g>
    </g>
    <g id="ytick_12">
     <g id="line2d_27">
      <g>
       <use style="fill:#262626;stroke:#262626;" x="90" xlink:href="#me549bcb6fa" y="462.24"/>
      </g>
     </g>
     <g id="text_26">
      <!-- 10 -->
      <g style="fill:#262626;" transform="translate(65.878125 465.818906)scale(0.1 -0.1)">
       <use xlink:href="#ArialMT-31"/>
       <use x="55.615234" xlink:href="#ArialMT-30"/>
      </g>
     </g>
    </g>
    <g id="ytick_13">
     <g id="line2d_28">
      <g>
       <use style="fill:#262626;stroke:#262626;" x="90" xlink:href="#me549bcb6fa" y="437.04"/>
      </g>
     </g>
     <g id="text_27">
      <!-- 15 -->
      <g style="fill:#262626;" transform="translate(65.878125 440.618906)scale(0.1 -0.1)">
       <use xlink:href="#ArialMT-31"/>
       <use x="55.615234" xlink:href="#ArialMT-35"/>
      </g>
     </g>
    </g>
    <g id="ytick_14">
     <g id="line2d_29">
      <g>
       <use style="fill:#262626;stroke:#262626;" x="90" xlink:href="#me549bcb6fa" y="411.84"/>
      </g>
     </g>
     <g id="text_28">
      <!-- 20 -->
      <g style="fill:#262626;" transform="translate(65.878125 415.418906)scale(0.1 -0.1)">
       <use xlink:href="#ArialMT-32"/>
       <use x="55.615234" xlink:href="#ArialMT-30"/>
      </g>
     </g>
    </g>
    <g id="ytick_15">
     <g id="line2d_30">
      <g>
       <use style="fill:#262626;stroke:#262626;" x="90" xlink:href="#me549bcb6fa" y="386.64"/>
      </g>
     </g>
     <g id="text_29">
      <!-- 25 -->
      <g style="fill:#262626;" transform="translate(65.878125 390.218906)scale(0.1 -0.1)">
       <use xlink:href="#ArialMT-32"/>
       <use x="55.615234" xlink:href="#ArialMT-35"/>
      </g>
     </g>
    </g>
    <g id="ytick_16">
     <g id="line2d_31">
      <g>
       <use style="fill:#262626;stroke:#262626;" x="90" xlink:href="#me549bcb6fa" y="361.44"/>
      </g>
     </g>
     <g id="text_30">
      <!-- 30 -->
      <g style="fill:#262626;" transform="translate(65.878125 365.018906)scale(0.1 -0.1)">
       <use xlink:href="#ArialMT-33"/>
       <use x="55.615234" xlink:href="#ArialMT-30"/>
      </g>
     </g>
    </g>
    <g id="ytick_17">
     <g id="line2d_32">
      <g>
       <use style="fill:#262626;stroke:#262626;" x="90" xlink:href="#me549bcb6fa" y="336.24"/>
      </g>
     </g>
     <g id="text_31">
      <!-- 35 -->
      <g style="fill:#262626;" transform="translate(65.878125 339.818906)scale(0.1 -0.1)">
       <use xlink:href="#ArialMT-33"/>
       <use x="55.615234" xlink:href="#ArialMT-35"/>
      </g>
     </g>
    </g>
    <g id="ytick_18">
     <g id="line2d_33">
      <g>
       <use style="fill:#262626;stroke:#262626;" x="90" xlink:href="#me549bcb6fa" y="311.04"/>
      </g>
     </g>
     <g id="text_32">
      <!-- 40 -->
      <g style="fill:#262626;" transform="translate(65.878125 314.618906)scale(0.1 -0.1)">
       <use xlink:href="#ArialMT-34"/>
       <use x="55.615234" xlink:href="#ArialMT-30"/>
      </g>
     </g>
    </g>
   </g>
   <g id="line2d_34">
    <path clip-path="url(#pc28d070331)" d="M 90 488.562059 
L 95.636364 492.871917 
L 101.272727 491.915277 
L 106.909091 490.291312 
L 112.545455 492.192009 
L 118.181818 490.692663 
L 123.818182 490.203121 
L 129.454545 491.968658 
L 135.090909 490.163889 
L 140.727273 490.392837 
L 146.363636 490.241829 
L 152 489.156296 
L 157.636364 490.240305 
L 163.272727 490.645166 
L 168.909091 488.187222 
L 174.545455 488.633986 
L 180.181818 487.313077 
L 185.818182 487.018973 
L 191.454545 487.338343 
L 197.090909 486.121391 
L 202.727273 487.201243 
L 208.363636 484.042031 
L 214 483.157918 
L 219.636364 483.169266 
L 225.272727 482.846357 
L 230.909091 480.992047 
L 236.545455 479.145187 
L 242.181818 476.443916 
L 247.818182 475.314111 
L 253.454545 475.654125 
L 259.090909 473.305387 
" style="fill:none;stroke:#b22222;stroke-linecap:round;stroke-width:1.75;"/>
   </g>
   <g id="patch_6">
    <path d="M 90 512.64 
L 90 311.04 
" style="fill:none;stroke:#262626;stroke-linecap:square;stroke-linejoin:miter;stroke-width:1.25;"/>
   </g>
   <g id="patch_7">
    <path d="M 90 512.64 
L 648 512.64 
" style="fill:none;stroke:#262626;stroke-linecap:square;stroke-linejoin:miter;stroke-width:1.25;"/>
   </g>
   <g id="text_33">
    <!-- f = 320 Hz -->
    <defs>
     <path d="M 8.6875 0 
L 8.6875 45.015625 
L 0.921875 45.015625 
L 0.921875 51.859375 
L 8.6875 51.859375 
L 8.6875 57.375 
Q 8.6875 62.59375 9.625 65.140625 
Q 10.890625 68.5625 14.078125 70.671875 
Q 17.28125 72.796875 23.046875 72.796875 
Q 26.765625 72.796875 31.25 71.921875 
L 29.9375 64.265625 
Q 27.203125 64.75 24.75 64.75 
Q 20.75 64.75 19.09375 63.03125 
Q 17.4375 61.328125 17.4375 56.640625 
L 17.4375 51.859375 
L 27.546875 51.859375 
L 27.546875 45.015625 
L 17.4375 45.015625 
L 17.4375 0 
z
" id="ArialMT-66"/>
     <path id="ArialMT-20"/>
     <path d="M 52.828125 42.09375 
L 5.5625 42.09375 
L 5.5625 50.296875 
L 52.828125 50.296875 
z
M 52.828125 20.359375 
L 5.5625 20.359375 
L 5.5625 28.5625 
L 52.828125 28.5625 
z
" id="ArialMT-3d"/>
     <path d="M 8.015625 0 
L 8.015625 71.578125 
L 17.484375 71.578125 
L 17.484375 42.1875 
L 54.6875 42.1875 
L 54.6875 71.578125 
L 64.15625 71.578125 
L 64.15625 0 
L 54.6875 0 
L 54.6875 33.734375 
L 17.484375 33.734375 
L 17.484375 0 
z
" id="ArialMT-48"/>
     <path d="M 1.953125 0 
L 1.953125 7.125 
L 34.96875 45.015625 
Q 29.34375 44.734375 25.046875 44.734375 
L 3.90625 44.734375 
L 3.90625 51.859375 
L 46.296875 51.859375 
L 46.296875 46.046875 
L 18.21875 13.140625 
L 12.796875 7.125 
Q 18.703125 7.5625 23.875 7.5625 
L 47.859375 7.5625 
L 47.859375 0 
z
" id="ArialMT-7a"/>
    </defs>
    <g style="fill:#262626;" transform="translate(529.636364 364.542187)scale(0.12 -0.12)">
     <use xlink:href="#ArialMT-66"/>
     <use x="27.783203" xlink:href="#ArialMT-20"/>
     <use x="55.566406" xlink:href="#ArialMT-3d"/>
     <use x="113.964844" xlink:href="#ArialMT-20"/>
     <use x="141.748047" xlink:href="#ArialMT-33"/>
     <use x="197.363281" xlink:href="#ArialMT-32"/>
     <use x="252.978516" xlink:href="#ArialMT-30"/>
     <use x="308.59375" xlink:href="#ArialMT-20"/>
     <use x="336.376953" xlink:href="#ArialMT-48"/>
     <use x="408.59375" xlink:href="#ArialMT-7a"/>
    </g>
   </g>
   <g id="PathCollection_1">
    <defs>
     <path d="M 0 3.5 
C 0.928211 3.5 1.81853 3.131218 2.474874 2.474874 
C 3.131218 1.81853 3.5 0.928211 3.5 0 
C 3.5 -0.928211 3.131218 -1.81853 2.474874 -2.474874 
C 1.81853 -3.131218 0.928211 -3.5 0 -3.5 
C -0.928211 -3.5 -1.81853 -3.131218 -2.474874 -2.474874 
C -3.131218 -1.81853 -3.5 -0.928211 -3.5 0 
C -3.5 0.928211 -3.131218 1.81853 -2.474874 2.474874 
C -1.81853 3.131218 -0.928211 3.5 0 3.5 
z
" id="m19ca0f9aba" style="stroke:#800000;stroke-width:0.3;"/>
    </defs>
    <g clip-path="url(#pc28d070331)">
     <use style="fill:#800000;stroke:#800000;stroke-width:0.3;" x="259.090909" xlink:href="#m19ca0f9aba" y="473.305387"/>
    </g>
   </g>
  </g>
 </g>
 <defs>
  <clipPath id="p84894a6f99">
   <rect height="201.6" width="558" x="90" y="69.12"/>
  </clipPath>
  <clipPath id="pc28d070331">
   <rect height="201.6" width="558" x="90" y="311.04"/>
  </clipPath>
 </defs>
</svg>
