<?xml version="1.0" encoding="utf-8" standalone="no"?>
<!DOCTYPE svg PUBLIC "-//W3C//DTD SVG 1.1//EN"
  "http://www.w3.org/Graphics/SVG/1.1/DTD/svg11.dtd">
<!-- Created with matplotlib (http://matplotlib.org/) -->
<svg height="576pt" version="1.1" viewBox="0 0 720 576" width="720pt" xmlns="http://www.w3.org/2000/svg" xmlns:xlink="http://www.w3.org/1999/xlink">
 <defs>
  <style type="text/css">
*{stroke-linecap:butt;stroke-linejoin:round;}
  </style>
 </defs>
 <g id="figure_1">
  <g id="patch_1">
   <path d="M 0 576 
L 720 576 
L 720 0 
L 0 0 
z
" style="fill:#ffffff;"/>
  </g>
  <g id="axes_1">
   <g id="patch_2">
    <path d="M 90 270.72 
L 648 270.72 
L 648 69.12 
L 90 69.12 
z
" style="fill:#ffffff;"/>
   </g>
   <g id="matplotlib.axis_1">
    <g id="xtick_1">
     <g id="line2d_1">
      <defs>
       <path d="M 0 0 
L 0 6 
" id="m04eeee78a1" style="stroke:#262626;"/>
      </defs>
      <g>
       <use style="fill:#262626;stroke:#262626;" x="90" xlink:href="#m04eeee78a1" y="270.72"/>
      </g>
     </g>
     <g id="text_1">
      <!-- 0 -->
      <defs>
       <path d="M 4.15625 35.296875 
Q 4.15625 48 6.765625 55.734375 
Q 9.375 63.484375 14.515625 67.671875 
Q 19.671875 71.875 27.484375 71.875 
Q 33.25 71.875 37.59375 69.546875 
Q 41.9375 67.234375 44.765625 62.859375 
Q 47.609375 58.5 49.21875 52.21875 
Q 50.828125 45.953125 50.828125 35.296875 
Q 50.828125 22.703125 48.234375 14.96875 
Q 45.65625 7.234375 40.5 3 
Q 35.359375 -1.21875 27.484375 -1.21875 
Q 17.140625 -1.21875 11.234375 6.203125 
Q 4.15625 15.140625 4.15625 35.296875 
z
M 13.1875 35.296875 
Q 13.1875 17.671875 17.3125 11.828125 
Q 21.4375 6 27.484375 6 
Q 33.546875 6 37.671875 11.859375 
Q 41.796875 17.71875 41.796875 35.296875 
Q 41.796875 52.984375 37.671875 58.78125 
Q 33.546875 64.59375 27.390625 64.59375 
Q 21.34375 64.59375 17.71875 59.46875 
Q 13.1875 52.9375 13.1875 35.296875 
z
" id="ArialMT-30"/>
      </defs>
      <g style="fill:#262626;" transform="translate(87.219531 290.877812)scale(0.1 -0.1)">
       <use xlink:href="#ArialMT-30"/>
      </g>
     </g>
    </g>
    <g id="xtick_2">
     <g id="line2d_2">
      <g>
       <use style="fill:#262626;stroke:#262626;" x="159.75" xlink:href="#m04eeee78a1" y="270.72"/>
      </g>
     </g>
     <g id="text_2">
      <!-- 100 -->
      <defs>
       <path d="M 37.25 0 
L 28.46875 0 
L 28.46875 56 
Q 25.296875 52.984375 20.140625 49.953125 
Q 14.984375 46.921875 10.890625 45.40625 
L 10.890625 53.90625 
Q 18.265625 57.375 23.78125 62.296875 
Q 29.296875 67.234375 31.59375 71.875 
L 37.25 71.875 
z
" id="ArialMT-31"/>
      </defs>
      <g style="fill:#262626;" transform="translate(151.408594 290.877812)scale(0.1 -0.1)">
       <use xlink:href="#ArialMT-31"/>
       <use x="55.615234" xlink:href="#ArialMT-30"/>
       <use x="111.230469" xlink:href="#ArialMT-30"/>
      </g>
     </g>
    </g>
    <g id="xtick_3">
     <g id="line2d_3">
      <g>
       <use style="fill:#262626;stroke:#262626;" x="229.5" xlink:href="#m04eeee78a1" y="270.72"/>
      </g>
     </g>
     <g id="text_3">
      <!-- 200 -->
      <defs>
       <path d="M 50.34375 8.453125 
L 50.34375 0 
L 3.03125 0 
Q 2.9375 3.171875 4.046875 6.109375 
Q 5.859375 10.9375 9.828125 15.625 
Q 13.8125 20.3125 21.34375 26.46875 
Q 33.015625 36.03125 37.109375 41.625 
Q 41.21875 47.21875 41.21875 52.203125 
Q 41.21875 57.421875 37.46875 61 
Q 33.734375 64.59375 27.734375 64.59375 
Q 21.390625 64.59375 17.578125 60.78125 
Q 13.765625 56.984375 13.71875 50.25 
L 4.6875 51.171875 
Q 5.609375 61.28125 11.65625 66.578125 
Q 17.71875 71.875 27.9375 71.875 
Q 38.234375 71.875 44.234375 66.15625 
Q 50.25 60.453125 50.25 52 
Q 50.25 47.703125 48.484375 43.546875 
Q 46.734375 39.40625 42.65625 34.8125 
Q 38.578125 30.21875 29.109375 22.21875 
Q 21.1875 15.578125 18.9375 13.203125 
Q 16.703125 10.84375 15.234375 8.453125 
z
" id="ArialMT-32"/>
      </defs>
      <g style="fill:#262626;" transform="translate(221.158594 290.877812)scale(0.1 -0.1)">
       <use xlink:href="#ArialMT-32"/>
       <use x="55.615234" xlink:href="#ArialMT-30"/>
       <use x="111.230469" xlink:href="#ArialMT-30"/>
      </g>
     </g>
    </g>
    <g id="xtick_4">
     <g id="line2d_4">
      <g>
       <use style="fill:#262626;stroke:#262626;" x="299.25" xlink:href="#m04eeee78a1" y="270.72"/>
      </g>
     </g>
     <g id="text_4">
      <!-- 300 -->
      <defs>
       <path d="M 4.203125 18.890625 
L 12.984375 20.0625 
Q 14.5 12.59375 18.140625 9.296875 
Q 21.78125 6 27 6 
Q 33.203125 6 37.46875 10.296875 
Q 41.75 14.59375 41.75 20.953125 
Q 41.75 27 37.796875 30.921875 
Q 33.84375 34.859375 27.734375 34.859375 
Q 25.25 34.859375 21.53125 33.890625 
L 22.515625 41.609375 
Q 23.390625 41.5 23.921875 41.5 
Q 29.546875 41.5 34.03125 44.421875 
Q 38.53125 47.359375 38.53125 53.46875 
Q 38.53125 58.296875 35.25 61.46875 
Q 31.984375 64.65625 26.8125 64.65625 
Q 21.6875 64.65625 18.265625 61.421875 
Q 14.84375 58.203125 13.875 51.765625 
L 5.078125 53.328125 
Q 6.6875 62.15625 12.390625 67.015625 
Q 18.109375 71.875 26.609375 71.875 
Q 32.46875 71.875 37.390625 69.359375 
Q 42.328125 66.84375 44.9375 62.5 
Q 47.5625 58.15625 47.5625 53.265625 
Q 47.5625 48.640625 45.0625 44.828125 
Q 42.578125 41.015625 37.703125 38.765625 
Q 44.046875 37.3125 47.5625 32.6875 
Q 51.078125 28.078125 51.078125 21.140625 
Q 51.078125 11.765625 44.234375 5.25 
Q 37.40625 -1.265625 26.953125 -1.265625 
Q 17.53125 -1.265625 11.296875 4.34375 
Q 5.078125 9.96875 4.203125 18.890625 
z
" id="ArialMT-33"/>
      </defs>
      <g style="fill:#262626;" transform="translate(290.908594 290.877812)scale(0.1 -0.1)">
       <use xlink:href="#ArialMT-33"/>
       <use x="55.615234" xlink:href="#ArialMT-30"/>
       <use x="111.230469" xlink:href="#ArialMT-30"/>
      </g>
     </g>
    </g>
    <g id="xtick_5">
     <g id="line2d_5">
      <g>
       <use style="fill:#262626;stroke:#262626;" x="369" xlink:href="#m04eeee78a1" y="270.72"/>
      </g>
     </g>
     <g id="text_5">
      <!-- 400 -->
      <defs>
       <path d="M 32.328125 0 
L 32.328125 17.140625 
L 1.265625 17.140625 
L 1.265625 25.203125 
L 33.9375 71.578125 
L 41.109375 71.578125 
L 41.109375 25.203125 
L 50.78125 25.203125 
L 50.78125 17.140625 
L 41.109375 17.140625 
L 41.109375 0 
z
M 32.328125 25.203125 
L 32.328125 57.46875 
L 9.90625 25.203125 
z
" id="ArialMT-34"/>
      </defs>
      <g style="fill:#262626;" transform="translate(360.658594 290.877812)scale(0.1 -0.1)">
       <use xlink:href="#ArialMT-34"/>
       <use x="55.615234" xlink:href="#ArialMT-30"/>
       <use x="111.230469" xlink:href="#ArialMT-30"/>
      </g>
     </g>
    </g>
    <g id="xtick_6">
     <g id="line2d_6">
      <g>
       <use style="fill:#262626;stroke:#262626;" x="438.75" xlink:href="#m04eeee78a1" y="270.72"/>
      </g>
     </g>
     <g id="text_6">
      <!-- 500 -->
      <defs>
       <path d="M 4.15625 18.75 
L 13.375 19.53125 
Q 14.40625 12.796875 18.140625 9.390625 
Q 21.875 6 27.15625 6 
Q 33.5 6 37.890625 10.78125 
Q 42.28125 15.578125 42.28125 23.484375 
Q 42.28125 31 38.0625 35.34375 
Q 33.84375 39.703125 27 39.703125 
Q 22.75 39.703125 19.328125 37.765625 
Q 15.921875 35.84375 13.96875 32.765625 
L 5.71875 33.84375 
L 12.640625 70.609375 
L 48.25 70.609375 
L 48.25 62.203125 
L 19.671875 62.203125 
L 15.828125 42.96875 
Q 22.265625 47.46875 29.34375 47.46875 
Q 38.71875 47.46875 45.15625 40.96875 
Q 51.609375 34.46875 51.609375 24.265625 
Q 51.609375 14.546875 45.953125 7.46875 
Q 39.0625 -1.21875 27.15625 -1.21875 
Q 17.390625 -1.21875 11.203125 4.25 
Q 5.03125 9.71875 4.15625 18.75 
z
" id="ArialMT-35"/>
      </defs>
      <g style="fill:#262626;" transform="translate(430.408594 290.877812)scale(0.1 -0.1)">
       <use xlink:href="#ArialMT-35"/>
       <use x="55.615234" xlink:href="#ArialMT-30"/>
       <use x="111.230469" xlink:href="#ArialMT-30"/>
      </g>
     </g>
    </g>
    <g id="xtick_7">
     <g id="line2d_7">
      <g>
       <use style="fill:#262626;stroke:#262626;" x="508.5" xlink:href="#m04eeee78a1" y="270.72"/>
      </g>
     </g>
     <g id="text_7">
      <!-- 600 -->
      <defs>
       <path d="M 49.75 54.046875 
L 41.015625 53.375 
Q 39.84375 58.546875 37.703125 60.890625 
Q 34.125 64.65625 28.90625 64.65625 
Q 24.703125 64.65625 21.53125 62.3125 
Q 17.390625 59.28125 14.984375 53.46875 
Q 12.59375 47.65625 12.5 36.921875 
Q 15.671875 41.75 20.265625 44.09375 
Q 24.859375 46.4375 29.890625 46.4375 
Q 38.671875 46.4375 44.84375 39.96875 
Q 51.03125 33.5 51.03125 23.25 
Q 51.03125 16.5 48.125 10.71875 
Q 45.21875 4.9375 40.140625 1.859375 
Q 35.0625 -1.21875 28.609375 -1.21875 
Q 17.625 -1.21875 10.6875 6.859375 
Q 3.765625 14.9375 3.765625 33.5 
Q 3.765625 54.25 11.421875 63.671875 
Q 18.109375 71.875 29.4375 71.875 
Q 37.890625 71.875 43.28125 67.140625 
Q 48.6875 62.40625 49.75 54.046875 
z
M 13.875 23.1875 
Q 13.875 18.65625 15.796875 14.5 
Q 17.71875 10.359375 21.1875 8.171875 
Q 24.65625 6 28.46875 6 
Q 34.03125 6 38.03125 10.484375 
Q 42.046875 14.984375 42.046875 22.703125 
Q 42.046875 30.125 38.078125 34.390625 
Q 34.125 38.671875 28.125 38.671875 
Q 22.171875 38.671875 18.015625 34.390625 
Q 13.875 30.125 13.875 23.1875 
z
" id="ArialMT-36"/>
      </defs>
      <g style="fill:#262626;" transform="translate(500.158594 290.877812)scale(0.1 -0.1)">
       <use xlink:href="#ArialMT-36"/>
       <use x="55.615234" xlink:href="#ArialMT-30"/>
       <use x="111.230469" xlink:href="#ArialMT-30"/>
      </g>
     </g>
    </g>
    <g id="xtick_8">
     <g id="line2d_8">
      <g>
       <use style="fill:#262626;stroke:#262626;" x="578.25" xlink:href="#m04eeee78a1" y="270.72"/>
      </g>
     </g>
     <g id="text_8">
      <!-- 700 -->
      <defs>
       <path d="M 4.734375 62.203125 
L 4.734375 70.65625 
L 51.078125 70.65625 
L 51.078125 63.8125 
Q 44.234375 56.546875 37.515625 44.484375 
Q 30.8125 32.421875 27.15625 19.671875 
Q 24.515625 10.6875 23.78125 0 
L 14.75 0 
Q 14.890625 8.453125 18.0625 20.40625 
Q 21.234375 32.375 27.171875 43.484375 
Q 33.109375 54.59375 39.796875 62.203125 
z
" id="ArialMT-37"/>
      </defs>
      <g style="fill:#262626;" transform="translate(569.908594 290.877812)scale(0.1 -0.1)">
       <use xlink:href="#ArialMT-37"/>
       <use x="55.615234" xlink:href="#ArialMT-30"/>
       <use x="111.230469" xlink:href="#ArialMT-30"/>
      </g>
     </g>
    </g>
    <g id="xtick_9">
     <g id="line2d_9">
      <g>
       <use style="fill:#262626;stroke:#262626;" x="648" xlink:href="#m04eeee78a1" y="270.72"/>
      </g>
     </g>
     <g id="text_9">
      <!-- 800 -->
      <defs>
       <path d="M 17.671875 38.8125 
Q 12.203125 40.828125 9.5625 44.53125 
Q 6.9375 48.25 6.9375 53.421875 
Q 6.9375 61.234375 12.546875 66.546875 
Q 18.171875 71.875 27.484375 71.875 
Q 36.859375 71.875 42.578125 66.421875 
Q 48.296875 60.984375 48.296875 53.171875 
Q 48.296875 48.1875 45.671875 44.5 
Q 43.0625 40.828125 37.75 38.8125 
Q 44.34375 36.671875 47.78125 31.875 
Q 51.21875 27.09375 51.21875 20.453125 
Q 51.21875 11.28125 44.71875 5.03125 
Q 38.234375 -1.21875 27.640625 -1.21875 
Q 17.046875 -1.21875 10.546875 5.046875 
Q 4.046875 11.328125 4.046875 20.703125 
Q 4.046875 27.6875 7.59375 32.390625 
Q 11.140625 37.109375 17.671875 38.8125 
z
M 15.921875 53.71875 
Q 15.921875 48.640625 19.1875 45.40625 
Q 22.46875 42.1875 27.6875 42.1875 
Q 32.765625 42.1875 36.015625 45.375 
Q 39.265625 48.578125 39.265625 53.21875 
Q 39.265625 58.0625 35.90625 61.359375 
Q 32.5625 64.65625 27.59375 64.65625 
Q 22.5625 64.65625 19.234375 61.421875 
Q 15.921875 58.203125 15.921875 53.71875 
z
M 13.09375 20.65625 
Q 13.09375 16.890625 14.875 13.375 
Q 16.65625 9.859375 20.171875 7.921875 
Q 23.6875 6 27.734375 6 
Q 34.03125 6 38.125 10.046875 
Q 42.234375 14.109375 42.234375 20.359375 
Q 42.234375 26.703125 38.015625 30.859375 
Q 33.796875 35.015625 27.4375 35.015625 
Q 21.234375 35.015625 17.15625 30.90625 
Q 13.09375 26.8125 13.09375 20.65625 
z
" id="ArialMT-38"/>
      </defs>
      <g style="fill:#262626;" transform="translate(639.658594 290.877812)scale(0.1 -0.1)">
       <use xlink:href="#ArialMT-38"/>
       <use x="55.615234" xlink:href="#ArialMT-30"/>
       <use x="111.230469" xlink:href="#ArialMT-30"/>
      </g>
     </g>
    </g>
   </g>
   <g id="matplotlib.axis_2">
    <g id="ytick_1">
     <g id="line2d_10">
      <defs>
       <path d="M 0 0 
L -6 0 
" id="mf15dc43956" style="stroke:#262626;"/>
      </defs>
      <g>
       <use style="fill:#262626;stroke:#262626;" x="90" xlink:href="#mf15dc43956" y="270.72"/>
      </g>
     </g>
     <g id="text_10">
      <!-- −0.20 -->
      <defs>
       <path d="M 52.828125 31.203125 
L 5.5625 31.203125 
L 5.5625 39.40625 
L 52.828125 39.40625 
z
" id="ArialMT-2212"/>
       <path d="M 9.078125 0 
L 9.078125 10.015625 
L 19.09375 10.015625 
L 19.09375 0 
z
" id="ArialMT-2e"/>
      </defs>
      <g style="fill:#262626;" transform="translate(51.698437 274.298906)scale(0.1 -0.1)">
       <use xlink:href="#ArialMT-2212"/>
       <use x="58.398438" xlink:href="#ArialMT-30"/>
       <use x="114.013672" xlink:href="#ArialMT-2e"/>
       <use x="141.796875" xlink:href="#ArialMT-32"/>
       <use x="197.412109" xlink:href="#ArialMT-30"/>
      </g>
     </g>
    </g>
    <g id="ytick_2">
     <g id="line2d_11">
      <g>
       <use style="fill:#262626;stroke:#262626;" x="90" xlink:href="#mf15dc43956" y="245.52"/>
      </g>
     </g>
     <g id="text_11">
      <!-- −0.15 -->
      <g style="fill:#262626;" transform="translate(51.698437 249.098906)scale(0.1 -0.1)">
       <use xlink:href="#ArialMT-2212"/>
       <use x="58.398438" xlink:href="#ArialMT-30"/>
       <use x="114.013672" xlink:href="#ArialMT-2e"/>
       <use x="141.796875" xlink:href="#ArialMT-31"/>
       <use x="197.412109" xlink:href="#ArialMT-35"/>
      </g>
     </g>
    </g>
    <g id="ytick_3">
     <g id="line2d_12">
      <g>
       <use style="fill:#262626;stroke:#262626;" x="90" xlink:href="#mf15dc43956" y="220.32"/>
      </g>
     </g>
     <g id="text_12">
      <!-- −0.10 -->
      <g style="fill:#262626;" transform="translate(51.698437 223.898906)scale(0.1 -0.1)">
       <use xlink:href="#ArialMT-2212"/>
       <use x="58.398438" xlink:href="#ArialMT-30"/>
       <use x="114.013672" xlink:href="#ArialMT-2e"/>
       <use x="141.796875" xlink:href="#ArialMT-31"/>
       <use x="197.412109" xlink:href="#ArialMT-30"/>
      </g>
     </g>
    </g>
    <g id="ytick_4">
     <g id="line2d_13">
      <g>
       <use style="fill:#262626;stroke:#262626;" x="90" xlink:href="#mf15dc43956" y="195.12"/>
      </g>
     </g>
     <g id="text_13">
      <!-- −0.05 -->
      <g style="fill:#262626;" transform="translate(51.698437 198.698906)scale(0.1 -0.1)">
       <use xlink:href="#ArialMT-2212"/>
       <use x="58.398438" xlink:href="#ArialMT-30"/>
       <use x="114.013672" xlink:href="#ArialMT-2e"/>
       <use x="141.796875" xlink:href="#ArialMT-30"/>
       <use x="197.412109" xlink:href="#ArialMT-35"/>
      </g>
     </g>
    </g>
    <g id="ytick_5">
     <g id="line2d_14">
      <g>
       <use style="fill:#262626;stroke:#262626;" x="90" xlink:href="#mf15dc43956" y="169.92"/>
      </g>
     </g>
     <g id="text_14">
      <!-- 0.00 -->
      <g style="fill:#262626;" transform="translate(57.539062 173.498906)scale(0.1 -0.1)">
       <use xlink:href="#ArialMT-30"/>
       <use x="55.615234" xlink:href="#ArialMT-2e"/>
       <use x="83.398438" xlink:href="#ArialMT-30"/>
       <use x="139.013672" xlink:href="#ArialMT-30"/>
      </g>
     </g>
    </g>
    <g id="ytick_6">
     <g id="line2d_15">
      <g>
       <use style="fill:#262626;stroke:#262626;" x="90" xlink:href="#mf15dc43956" y="144.72"/>
      </g>
     </g>
     <g id="text_15">
      <!-- 0.05 -->
      <g style="fill:#262626;" transform="translate(57.539062 148.298906)scale(0.1 -0.1)">
       <use xlink:href="#ArialMT-30"/>
       <use x="55.615234" xlink:href="#ArialMT-2e"/>
       <use x="83.398438" xlink:href="#ArialMT-30"/>
       <use x="139.013672" xlink:href="#ArialMT-35"/>
      </g>
     </g>
    </g>
    <g id="ytick_7">
     <g id="line2d_16">
      <g>
       <use style="fill:#262626;stroke:#262626;" x="90" xlink:href="#mf15dc43956" y="119.52"/>
      </g>
     </g>
     <g id="text_16">
      <!-- 0.10 -->
      <g style="fill:#262626;" transform="translate(57.539062 123.098906)scale(0.1 -0.1)">
       <use xlink:href="#ArialMT-30"/>
       <use x="55.615234" xlink:href="#ArialMT-2e"/>
       <use x="83.398438" xlink:href="#ArialMT-31"/>
       <use x="139.013672" xlink:href="#ArialMT-30"/>
      </g>
     </g>
    </g>
    <g id="ytick_8">
     <g id="line2d_17">
      <g>
       <use style="fill:#262626;stroke:#262626;" x="90" xlink:href="#mf15dc43956" y="94.32"/>
      </g>
     </g>
     <g id="text_17">
      <!-- 0.15 -->
      <g style="fill:#262626;" transform="translate(57.539062 97.898906)scale(0.1 -0.1)">
       <use xlink:href="#ArialMT-30"/>
       <use x="55.615234" xlink:href="#ArialMT-2e"/>
       <use x="83.398438" xlink:href="#ArialMT-31"/>
       <use x="139.013672" xlink:href="#ArialMT-35"/>
      </g>
     </g>
    </g>
    <g id="ytick_9">
     <g id="line2d_18">
      <g>
       <use style="fill:#262626;stroke:#262626;" x="90" xlink:href="#mf15dc43956" y="69.12"/>
      </g>
     </g>
     <g id="text_18">
      <!-- 0.20 -->
      <g style="fill:#262626;" transform="translate(57.539062 72.698906)scale(0.1 -0.1)">
       <use xlink:href="#ArialMT-30"/>
       <use x="55.615234" xlink:href="#ArialMT-2e"/>
       <use x="83.398438" xlink:href="#ArialMT-32"/>
       <use x="139.013672" xlink:href="#ArialMT-30"/>
      </g>
     </g>
    </g>
   </g>
   <g id="PolyCollection_1">
    <path clip-path="url(#pa086002fb5)" d="M 90 165.3379 
L 90 169.92 
L 90.6975 169.92 
L 91.395 169.92 
L 92.0925 169.92 
L 92.79 169.92 
L 93.4875 169.92 
L 94.185 169.92 
L 94.8825 169.92 
L 95.58 169.92 
L 96.2775 169.92 
L 96.975 169.92 
L 97.6725 169.92 
L 98.37 169.92 
L 99.0675 169.92 
L 99.765 169.92 
L 100.4625 169.92 
L 101.16 169.92 
L 101.8575 169.92 
L 102.555 169.92 
L 103.2525 169.92 
L 103.95 169.92 
L 104.6475 169.92 
L 105.345 169.92 
L 106.0425 169.92 
L 106.74 169.92 
L 107.4375 169.92 
L 108.135 169.92 
L 108.8325 169.92 
L 109.53 169.92 
L 110.2275 169.92 
L 110.925 169.92 
L 111.6225 169.92 
L 112.32 169.92 
L 113.0175 169.92 
L 113.715 169.92 
L 114.4125 169.92 
L 115.11 169.92 
L 115.8075 169.92 
L 116.505 169.92 
L 117.2025 169.92 
L 117.9 169.92 
L 118.5975 169.92 
L 119.295 169.92 
L 119.9925 169.92 
L 120.69 169.92 
L 121.3875 169.92 
L 122.085 169.92 
L 122.7825 169.92 
L 123.48 169.92 
L 124.1775 169.92 
L 124.875 169.92 
L 125.5725 169.92 
L 126.27 169.92 
L 126.9675 169.92 
L 127.665 169.92 
L 128.3625 169.92 
L 129.06 169.92 
L 129.7575 169.92 
L 130.455 169.92 
L 131.1525 169.92 
L 131.85 169.92 
L 132.5475 169.92 
L 133.245 169.92 
L 133.9425 169.92 
L 134.64 169.92 
L 135.3375 169.92 
L 136.035 169.92 
L 136.7325 169.92 
L 137.43 169.92 
L 138.1275 169.92 
L 138.825 169.92 
L 139.5225 169.92 
L 140.22 169.92 
L 140.9175 169.92 
L 141.615 169.92 
L 142.3125 169.92 
L 143.01 169.92 
L 143.7075 169.92 
L 144.405 169.92 
L 145.1025 169.92 
L 145.8 169.92 
L 146.4975 169.92 
L 147.195 169.92 
L 147.8925 169.92 
L 148.59 169.92 
L 149.2875 169.92 
L 149.985 169.92 
L 150.6825 169.92 
L 151.38 169.92 
L 152.0775 169.92 
L 152.775 169.92 
L 153.4725 169.92 
L 154.17 169.92 
L 154.8675 169.92 
L 155.565 169.92 
L 156.2625 169.92 
L 156.96 169.92 
L 157.6575 169.92 
L 158.355 169.92 
L 159.0525 169.92 
L 159.75 169.92 
L 160.4475 169.92 
L 161.145 169.92 
L 161.8425 169.92 
L 162.54 169.92 
L 163.2375 169.92 
L 163.935 169.92 
L 164.6325 169.92 
L 165.33 169.92 
L 166.0275 169.92 
L 166.725 169.92 
L 167.4225 169.92 
L 168.12 169.92 
L 168.8175 169.92 
L 169.515 169.92 
L 170.2125 169.92 
L 170.91 169.92 
L 171.6075 169.92 
L 172.305 169.92 
L 173.0025 169.92 
L 173.7 169.92 
L 174.3975 169.92 
L 175.095 169.92 
L 175.7925 169.92 
L 176.49 169.92 
L 177.1875 169.92 
L 177.885 169.92 
L 178.5825 169.92 
L 179.28 169.92 
L 179.9775 169.92 
L 180.675 169.92 
L 181.3725 169.92 
L 182.07 169.92 
L 182.7675 169.92 
L 183.465 169.92 
L 184.1625 169.92 
L 184.86 169.92 
L 185.5575 169.92 
L 186.255 169.92 
L 186.9525 169.92 
L 187.65 169.92 
L 188.3475 169.92 
L 189.045 169.92 
L 189.7425 169.92 
L 190.44 169.92 
L 191.1375 169.92 
L 191.835 169.92 
L 192.5325 169.92 
L 193.23 169.92 
L 193.9275 169.92 
L 194.625 169.92 
L 195.3225 169.92 
L 196.02 169.92 
L 196.7175 169.92 
L 197.415 169.92 
L 198.1125 169.92 
L 198.81 169.92 
L 199.5075 169.92 
L 200.205 169.92 
L 200.9025 169.92 
L 201.6 169.92 
L 202.2975 169.92 
L 202.995 169.92 
L 203.6925 169.92 
L 204.39 169.92 
L 205.0875 169.92 
L 205.785 169.92 
L 206.4825 169.92 
L 207.18 169.92 
L 207.8775 169.92 
L 208.575 169.92 
L 209.2725 169.92 
L 209.97 169.92 
L 210.6675 169.92 
L 211.365 169.92 
L 212.0625 169.92 
L 212.76 169.92 
L 213.4575 169.92 
L 214.155 169.92 
L 214.8525 169.92 
L 215.55 169.92 
L 216.2475 169.92 
L 216.945 169.92 
L 217.6425 169.92 
L 218.34 169.92 
L 219.0375 169.92 
L 219.735 169.92 
L 220.4325 169.92 
L 221.13 169.92 
L 221.8275 169.92 
L 222.525 169.92 
L 223.2225 169.92 
L 223.92 169.92 
L 224.6175 169.92 
L 225.315 169.92 
L 226.0125 169.92 
L 226.71 169.92 
L 227.4075 169.92 
L 228.105 169.92 
L 228.8025 169.92 
L 229.5 169.92 
L 230.1975 169.92 
L 230.895 169.92 
L 231.5925 169.92 
L 232.29 169.92 
L 232.9875 169.92 
L 233.685 169.92 
L 234.3825 169.92 
L 235.08 169.92 
L 235.7775 169.92 
L 236.475 169.92 
L 237.1725 169.92 
L 237.87 169.92 
L 238.5675 169.92 
L 239.265 169.92 
L 239.9625 169.92 
L 240.66 169.92 
L 241.3575 169.92 
L 242.055 169.92 
L 242.7525 169.92 
L 243.45 169.92 
L 244.1475 169.92 
L 244.845 169.92 
L 245.5425 169.92 
L 246.24 169.92 
L 246.9375 169.92 
L 247.635 169.92 
L 248.3325 169.92 
L 249.03 169.92 
L 249.7275 169.92 
L 250.425 169.92 
L 251.1225 169.92 
L 251.82 169.92 
L 252.5175 169.92 
L 253.215 169.92 
L 253.9125 169.92 
L 254.61 169.92 
L 255.3075 169.92 
L 256.005 169.92 
L 256.7025 169.92 
L 257.4 169.92 
L 258.0975 169.92 
L 258.795 169.92 
L 259.4925 169.92 
L 260.19 169.92 
L 260.8875 169.92 
L 261.585 169.92 
L 262.2825 169.92 
L 262.98 169.92 
L 263.6775 169.92 
L 264.375 169.92 
L 265.0725 169.92 
L 265.77 169.92 
L 266.4675 169.92 
L 267.165 169.92 
L 267.8625 169.92 
L 268.56 169.92 
L 269.2575 169.92 
L 269.955 169.92 
L 270.6525 169.92 
L 271.35 169.92 
L 272.0475 169.92 
L 272.745 169.92 
L 273.4425 169.92 
L 274.14 169.92 
L 274.8375 169.92 
L 275.535 169.92 
L 276.2325 169.92 
L 276.93 169.92 
L 277.6275 169.92 
L 278.325 169.92 
L 279.0225 169.92 
L 279.72 169.92 
L 280.4175 169.92 
L 281.115 169.92 
L 281.8125 169.92 
L 282.51 169.92 
L 283.2075 169.92 
L 283.905 169.92 
L 284.6025 169.92 
L 285.3 169.92 
L 285.9975 169.92 
L 286.695 169.92 
L 287.3925 169.92 
L 288.09 169.92 
L 288.7875 169.92 
L 289.485 169.92 
L 290.1825 169.92 
L 290.88 169.92 
L 291.5775 169.92 
L 292.275 169.92 
L 292.9725 169.92 
L 293.67 169.92 
L 294.3675 169.92 
L 295.065 169.92 
L 295.7625 169.92 
L 296.46 169.92 
L 297.1575 169.92 
L 297.855 169.92 
L 298.5525 169.92 
L 299.25 169.92 
L 299.9475 169.92 
L 300.645 169.92 
L 301.3425 169.92 
L 302.04 169.92 
L 302.7375 169.92 
L 303.435 169.92 
L 304.1325 169.92 
L 304.83 169.92 
L 305.5275 169.92 
L 306.225 169.92 
L 306.9225 169.92 
L 307.62 169.92 
L 308.3175 169.92 
L 309.015 169.92 
L 309.7125 169.92 
L 310.41 169.92 
L 311.1075 169.92 
L 311.805 169.92 
L 312.5025 169.92 
L 313.2 169.92 
L 313.8975 169.92 
L 314.595 169.92 
L 315.2925 169.92 
L 315.99 169.92 
L 316.6875 169.92 
L 317.385 169.92 
L 318.0825 169.92 
L 318.78 169.92 
L 319.4775 169.92 
L 320.175 169.92 
L 320.8725 169.92 
L 321.57 169.92 
L 322.2675 169.92 
L 322.965 169.92 
L 323.6625 169.92 
L 324.36 169.92 
L 325.0575 169.92 
L 325.755 169.92 
L 326.4525 169.92 
L 327.15 169.92 
L 327.8475 169.92 
L 328.545 169.92 
L 329.2425 169.92 
L 329.94 169.92 
L 330.6375 169.92 
L 331.335 169.92 
L 332.0325 169.92 
L 332.73 169.92 
L 333.4275 169.92 
L 334.125 169.92 
L 334.8225 169.92 
L 335.52 169.92 
L 336.2175 169.92 
L 336.915 169.92 
L 337.6125 169.92 
L 338.31 169.92 
L 339.0075 169.92 
L 339.705 169.92 
L 340.4025 169.92 
L 341.1 169.92 
L 341.7975 169.92 
L 342.495 169.92 
L 343.1925 169.92 
L 343.89 169.92 
L 344.5875 169.92 
L 345.285 169.92 
L 345.9825 169.92 
L 346.68 169.92 
L 347.3775 169.92 
L 348.075 169.92 
L 348.7725 169.92 
L 349.47 169.92 
L 350.1675 169.92 
L 350.865 169.92 
L 351.5625 169.92 
L 352.26 169.92 
L 352.9575 169.92 
L 353.655 169.92 
L 354.3525 169.92 
L 355.05 169.92 
L 355.7475 169.92 
L 356.445 169.92 
L 357.1425 169.92 
L 357.84 169.92 
L 358.5375 169.92 
L 359.235 169.92 
L 359.9325 169.92 
L 360.63 169.92 
L 361.3275 169.92 
L 362.025 169.92 
L 362.7225 169.92 
L 363.42 169.92 
L 364.1175 169.92 
L 364.815 169.92 
L 365.5125 169.92 
L 366.21 169.92 
L 366.9075 169.92 
L 367.605 169.92 
L 368.3025 169.92 
L 369 169.92 
L 369.6975 169.92 
L 370.395 169.92 
L 371.0925 169.92 
L 371.79 169.92 
L 372.4875 169.92 
L 373.185 169.92 
L 373.8825 169.92 
L 374.58 169.92 
L 375.2775 169.92 
L 375.975 169.92 
L 376.6725 169.92 
L 377.37 169.92 
L 378.0675 169.92 
L 378.765 169.92 
L 379.4625 169.92 
L 380.16 169.92 
L 380.8575 169.92 
L 381.555 169.92 
L 382.2525 169.92 
L 382.95 169.92 
L 383.6475 169.92 
L 384.345 169.92 
L 385.0425 169.92 
L 385.74 169.92 
L 386.4375 169.92 
L 387.135 169.92 
L 387.8325 169.92 
L 388.53 169.92 
L 389.2275 169.92 
L 389.925 169.92 
L 390.6225 169.92 
L 391.32 169.92 
L 392.0175 169.92 
L 392.715 169.92 
L 393.4125 169.92 
L 394.11 169.92 
L 394.8075 169.92 
L 395.505 169.92 
L 396.2025 169.92 
L 396.9 169.92 
L 397.5975 169.92 
L 398.295 169.92 
L 398.9925 169.92 
L 399.69 169.92 
L 400.3875 169.92 
L 401.085 169.92 
L 401.7825 169.92 
L 402.48 169.92 
L 403.1775 169.92 
L 403.875 169.92 
L 404.5725 169.92 
L 405.27 169.92 
L 405.9675 169.92 
L 406.665 169.92 
L 407.3625 169.92 
L 408.06 169.92 
L 408.7575 169.92 
L 409.455 169.92 
L 410.1525 169.92 
L 410.85 169.92 
L 411.5475 169.92 
L 412.245 169.92 
L 412.9425 169.92 
L 413.64 169.92 
L 414.3375 169.92 
L 415.035 169.92 
L 415.7325 169.92 
L 416.43 169.92 
L 417.1275 169.92 
L 417.825 169.92 
L 418.5225 169.92 
L 419.22 169.92 
L 419.9175 169.92 
L 420.615 169.92 
L 421.3125 169.92 
L 422.01 169.92 
L 422.7075 169.92 
L 423.405 169.92 
L 424.1025 169.92 
L 424.8 169.92 
L 425.4975 169.92 
L 426.195 169.92 
L 426.8925 169.92 
L 427.59 169.92 
L 428.2875 169.92 
L 428.985 169.92 
L 429.6825 169.92 
L 430.38 169.92 
L 431.0775 169.92 
L 431.775 169.92 
L 432.4725 169.92 
L 433.17 169.92 
L 433.8675 169.92 
L 434.565 169.92 
L 435.2625 169.92 
L 435.96 169.92 
L 436.6575 169.92 
L 437.355 169.92 
L 438.0525 169.92 
L 438.75 169.92 
L 439.4475 169.92 
L 440.145 169.92 
L 440.8425 169.92 
L 441.54 169.92 
L 442.2375 169.92 
L 442.935 169.92 
L 443.6325 169.92 
L 444.33 169.92 
L 445.0275 169.92 
L 445.725 169.92 
L 446.4225 169.92 
L 447.12 169.92 
L 447.8175 169.92 
L 448.515 169.92 
L 449.2125 169.92 
L 449.91 169.92 
L 450.6075 169.92 
L 451.305 169.92 
L 452.0025 169.92 
L 452.7 169.92 
L 453.3975 169.92 
L 454.095 169.92 
L 454.7925 169.92 
L 455.49 169.92 
L 456.1875 169.92 
L 456.885 169.92 
L 457.5825 169.92 
L 458.28 169.92 
L 458.9775 169.92 
L 459.675 169.92 
L 460.3725 169.92 
L 461.07 169.92 
L 461.7675 169.92 
L 462.465 169.92 
L 463.1625 169.92 
L 463.86 169.92 
L 464.5575 169.92 
L 465.255 169.92 
L 465.9525 169.92 
L 466.65 169.92 
L 467.3475 169.92 
L 468.045 169.92 
L 468.7425 169.92 
L 469.44 169.92 
L 470.1375 169.92 
L 470.835 169.92 
L 471.5325 169.92 
L 472.23 169.92 
L 472.9275 169.92 
L 473.625 169.92 
L 474.3225 169.92 
L 475.02 169.92 
L 475.7175 169.92 
L 476.415 169.92 
L 477.1125 169.92 
L 477.81 169.92 
L 478.5075 169.92 
L 479.205 169.92 
L 479.9025 169.92 
L 480.6 169.92 
L 481.2975 169.92 
L 481.995 169.92 
L 482.6925 169.92 
L 483.39 169.92 
L 484.0875 169.92 
L 484.785 169.92 
L 485.4825 169.92 
L 486.18 169.92 
L 486.8775 169.92 
L 487.575 169.92 
L 488.2725 169.92 
L 488.97 169.92 
L 489.6675 169.92 
L 490.365 169.92 
L 491.0625 169.92 
L 491.76 169.92 
L 492.4575 169.92 
L 493.155 169.92 
L 493.8525 169.92 
L 494.55 169.92 
L 495.2475 169.92 
L 495.945 169.92 
L 496.6425 169.92 
L 497.34 169.92 
L 498.0375 169.92 
L 498.735 169.92 
L 499.4325 169.92 
L 500.13 169.92 
L 500.8275 169.92 
L 501.525 169.92 
L 502.2225 169.92 
L 502.92 169.92 
L 503.6175 169.92 
L 504.315 169.92 
L 505.0125 169.92 
L 505.71 169.92 
L 506.4075 169.92 
L 507.105 169.92 
L 507.8025 169.92 
L 508.5 169.92 
L 509.1975 169.92 
L 509.895 169.92 
L 510.5925 169.92 
L 511.29 169.92 
L 511.9875 169.92 
L 512.685 169.92 
L 513.3825 169.92 
L 514.08 169.92 
L 514.7775 169.92 
L 515.475 169.92 
L 516.1725 169.92 
L 516.87 169.92 
L 517.5675 169.92 
L 518.265 169.92 
L 518.9625 169.92 
L 519.66 169.92 
L 520.3575 169.92 
L 521.055 169.92 
L 521.7525 169.92 
L 522.45 169.92 
L 523.1475 169.92 
L 523.845 169.92 
L 524.5425 169.92 
L 525.24 169.92 
L 525.9375 169.92 
L 526.635 169.92 
L 527.3325 169.92 
L 528.03 169.92 
L 528.7275 169.92 
L 529.425 169.92 
L 530.1225 169.92 
L 530.82 169.92 
L 531.5175 169.92 
L 532.215 169.92 
L 532.9125 169.92 
L 533.61 169.92 
L 534.3075 169.92 
L 535.005 169.92 
L 535.7025 169.92 
L 536.4 169.92 
L 537.0975 169.92 
L 537.795 169.92 
L 538.4925 169.92 
L 539.19 169.92 
L 539.8875 169.92 
L 540.585 169.92 
L 541.2825 169.92 
L 541.98 169.92 
L 542.6775 169.92 
L 543.375 169.92 
L 544.0725 169.92 
L 544.77 169.92 
L 545.4675 169.92 
L 546.165 169.92 
L 546.8625 169.92 
L 547.56 169.92 
L 548.2575 169.92 
L 548.955 169.92 
L 549.6525 169.92 
L 550.35 169.92 
L 551.0475 169.92 
L 551.745 169.92 
L 552.4425 169.92 
L 553.14 169.92 
L 553.8375 169.92 
L 554.535 169.92 
L 555.2325 169.92 
L 555.93 169.92 
L 556.6275 169.92 
L 557.325 169.92 
L 558.0225 169.92 
L 558.72 169.92 
L 559.4175 169.92 
L 560.115 169.92 
L 560.8125 169.92 
L 561.51 169.92 
L 562.2075 169.92 
L 562.905 169.92 
L 563.6025 169.92 
L 564.3 169.92 
L 564.9975 169.92 
L 565.695 169.92 
L 566.3925 169.92 
L 567.09 169.92 
L 567.7875 169.92 
L 568.485 169.92 
L 569.1825 169.92 
L 569.88 169.92 
L 570.5775 169.92 
L 571.275 169.92 
L 571.9725 169.92 
L 572.67 169.92 
L 573.3675 169.92 
L 574.065 169.92 
L 574.7625 169.92 
L 575.46 169.92 
L 576.1575 169.92 
L 576.855 169.92 
L 577.5525 169.92 
L 578.25 169.92 
L 578.9475 169.92 
L 579.645 169.92 
L 580.3425 169.92 
L 581.04 169.92 
L 581.7375 169.92 
L 582.435 169.92 
L 583.1325 169.92 
L 583.83 169.92 
L 584.5275 169.92 
L 585.225 169.92 
L 585.9225 169.92 
L 586.62 169.92 
L 587.3175 169.92 
L 588.015 169.92 
L 588.7125 169.92 
L 589.41 169.92 
L 590.1075 169.92 
L 590.805 169.92 
L 591.5025 169.92 
L 592.2 169.92 
L 592.8975 169.92 
L 593.595 169.92 
L 594.2925 169.92 
L 594.99 169.92 
L 595.6875 169.92 
L 596.385 169.92 
L 597.0825 169.92 
L 597.78 169.92 
L 598.4775 169.92 
L 599.175 169.92 
L 599.8725 169.92 
L 600.57 169.92 
L 601.2675 169.92 
L 601.965 169.92 
L 602.6625 169.92 
L 603.36 169.92 
L 604.0575 169.92 
L 604.755 169.92 
L 605.4525 169.92 
L 606.15 169.92 
L 606.8475 169.92 
L 607.545 169.92 
L 608.2425 169.92 
L 608.94 169.92 
L 609.6375 169.92 
L 610.335 169.92 
L 611.0325 169.92 
L 611.73 169.92 
L 612.4275 169.92 
L 613.125 169.92 
L 613.8225 169.92 
L 614.52 169.92 
L 615.2175 169.92 
L 615.915 169.92 
L 616.6125 169.92 
L 617.31 169.92 
L 618.0075 169.92 
L 618.705 169.92 
L 619.4025 169.92 
L 620.1 169.92 
L 620.7975 169.92 
L 621.495 169.92 
L 622.1925 169.92 
L 622.89 169.92 
L 623.5875 169.92 
L 624.285 169.92 
L 624.9825 169.92 
L 625.68 169.92 
L 626.3775 169.92 
L 627.075 169.92 
L 627.7725 169.92 
L 628.47 169.92 
L 629.1675 169.92 
L 629.865 169.92 
L 630.5625 169.92 
L 631.26 169.92 
L 631.9575 169.92 
L 632.655 169.92 
L 633.3525 169.92 
L 634.05 169.92 
L 634.7475 169.92 
L 635.445 169.92 
L 636.1425 169.92 
L 636.84 169.92 
L 637.5375 169.92 
L 638.235 169.92 
L 638.9325 169.92 
L 639.63 169.92 
L 640.3275 169.92 
L 641.025 169.92 
L 641.7225 169.92 
L 642.42 169.92 
L 643.1175 169.92 
L 643.815 169.92 
L 644.5125 169.92 
L 645.21 169.92 
L 645.9075 169.92 
L 646.605 169.92 
L 646.605 169.92 
L 646.605 169.92 
L 645.9075 169.925815 
L 645.21 169.939408 
L 644.5125 169.962632 
L 643.815 169.997207 
L 643.1175 170.044692 
L 642.42 170.106462 
L 641.7225 170.18369 
L 641.025 170.277324 
L 640.3275 170.388073 
L 639.63 170.516393 
L 638.9325 170.662475 
L 638.235 170.826238 
L 637.5375 171.007322 
L 636.84 171.205087 
L 636.1425 171.418618 
L 635.445 171.646721 
L 634.7475 171.887939 
L 634.05 172.140557 
L 633.3525 172.402619 
L 632.655 172.671943 
L 631.9575 172.94614 
L 631.26 173.222637 
L 630.5625 173.498699 
L 629.865 173.771459 
L 629.1675 174.037943 
L 628.47 174.295102 
L 627.7725 174.539843 
L 627.075 174.76906 
L 626.3775 174.979667 
L 625.68 175.168633 
L 624.9825 175.333017 
L 624.285 175.469995 
L 623.5875 175.576899 
L 622.89 175.651246 
L 622.1925 175.690767 
L 621.495 175.69344 
L 620.7975 175.657512 
L 620.1 175.581525 
L 619.4025 175.464343 
L 618.705 175.305163 
L 618.0075 175.103539 
L 617.31 174.859392 
L 616.6125 174.573019 
L 615.915 174.245103 
L 615.2175 173.876715 
L 614.52 173.469311 
L 613.8225 173.024731 
L 613.125 172.54519 
L 612.4275 172.033265 
L 611.73 171.491883 
L 611.0325 170.924298 
L 610.335 170.334075 
L 609.6375 169.725057 
L 608.94 169.101344 
L 608.2425 168.467259 
L 607.545 167.827312 
L 606.8475 167.186169 
L 606.15 166.548611 
L 605.4525 165.919495 
L 604.755 165.303713 
L 604.0575 164.706153 
L 603.36 164.131653 
L 602.6625 163.58496 
L 601.965 163.070691 
L 601.2675 162.593284 
L 600.57 162.156967 
L 599.8725 161.76571 
L 599.175 161.423191 
L 598.4775 161.132762 
L 597.78 160.897415 
L 597.0825 160.719747 
L 596.385 160.601942 
L 595.6875 160.545736 
L 594.99 160.552405 
L 594.2925 160.622745 
L 593.595 160.75706 
L 592.8975 160.95515 
L 592.2 161.216312 
L 591.5025 161.539338 
L 590.805 161.922514 
L 590.1075 162.363638 
L 589.41 162.860026 
L 588.7125 163.40853 
L 588.015 164.005561 
L 587.3175 164.647116 
L 586.62 165.3288 
L 585.9225 166.045868 
L 585.225 166.793254 
L 584.5275 167.56561 
L 583.83 168.357355 
L 583.1325 169.162709 
L 582.435 169.975747 
L 581.7375 170.790443 
L 581.04 171.600717 
L 580.3425 172.400491 
L 579.645 173.183733 
L 578.9475 173.944509 
L 578.25 174.677035 
L 577.5525 175.37572 
L 576.855 176.035219 
L 576.1575 176.650476 
L 575.46 177.216766 
L 574.7625 177.729737 
L 574.065 178.18545 
L 573.3675 178.58041 
L 572.67 178.911597 
L 571.9725 179.176496 
L 571.275 179.373117 
L 570.5775 179.500017 
L 569.88 179.556309 
L 569.1825 179.541677 
L 568.485 179.456373 
L 567.7875 179.301226 
L 567.09 179.07763 
L 566.3925 178.787535 
L 565.695 178.433435 
L 564.9975 178.018344 
L 564.3 177.545776 
L 563.6025 177.019714 
L 562.905 176.44458 
L 562.2075 175.825194 
L 561.51 175.166739 
L 560.8125 174.474715 
L 560.115 173.754893 
L 559.4175 173.013267 
L 558.72 172.256004 
L 558.0225 171.48939 
L 557.325 170.719778 
L 556.6275 169.953533 
L 555.93 169.196978 
L 555.2325 168.45634 
L 554.535 167.737697 
L 553.8375 167.046921 
L 553.14 166.389636 
L 552.4425 165.771161 
L 551.745 165.196469 
L 551.0475 164.67014 
L 550.35 164.196324 
L 549.6525 163.778706 
L 548.955 163.420466 
L 548.2575 163.124262 
L 547.56 162.892197 
L 546.8625 162.725807 
L 546.165 162.626043 
L 545.4675 162.593264 
L 544.77 162.627235 
L 544.0725 162.727124 
L 543.375 162.891516 
L 542.6775 163.11842 
L 541.98 163.405286 
L 541.2825 163.749033 
L 540.585 164.146069 
L 539.8875 164.592327 
L 539.19 165.083299 
L 538.4925 165.614077 
L 537.795 166.179397 
L 537.0975 166.773684 
L 536.4 167.391104 
L 535.7025 168.025613 
L 535.005 168.671015 
L 534.3075 169.321016 
L 533.61 169.969281 
L 532.9125 170.60949 
L 532.215 171.235398 
L 531.5175 171.84089 
L 530.82 172.420036 
L 530.1225 172.96715 
L 529.425 173.476837 
L 528.7275 173.944047 
L 528.03 174.364121 
L 527.3325 174.732832 
L 526.635 175.046433 
L 525.9375 175.301682 
L 525.24 175.495884 
L 524.5425 175.626912 
L 523.845 175.693231 
L 523.1475 175.693912 
L 522.45 175.628649 
L 521.7525 175.497759 
L 521.055 175.302186 
L 520.3575 175.043492 
L 519.66 174.723851 
L 518.9625 174.346028 
L 518.265 173.913362 
L 517.5675 173.429731 
L 516.87 172.89953 
L 516.1725 172.327625 
L 515.475 171.719318 
L 514.7775 171.080299 
L 514.08 170.416595 
L 513.3825 169.734522 
L 512.685 169.040626 
L 511.9875 168.341625 
L 511.29 167.644352 
L 510.5925 166.955691 
L 509.895 166.282518 
L 509.1975 165.631637 
L 508.5 165.009715 
L 507.8025 164.423228 
L 507.105 163.878392 
L 506.4075 163.381113 
L 505.71 162.936926 
L 505.0125 162.550943 
L 504.315 162.227806 
L 503.6175 161.971637 
L 502.92 161.786001 
L 502.2225 161.673864 
L 501.525 161.637566 
L 500.8275 161.67879 
L 500.13 161.798546 
L 499.4325 161.997148 
L 498.735 162.274213 
L 498.0375 162.62865 
L 497.34 163.058669 
L 496.6425 163.561785 
L 495.945 164.134836 
L 495.2475 164.774002 
L 494.55 165.474832 
L 493.8525 166.232279 
L 493.155 167.040732 
L 492.4575 167.894067 
L 491.76 168.785687 
L 491.0625 169.708579 
L 490.365 170.655368 
L 489.6675 171.61838 
L 488.97 172.589698 
L 488.2725 173.561236 
L 487.575 174.524798 
L 486.8775 175.472152 
L 486.18 176.395098 
L 485.4825 177.285538 
L 484.785 178.135545 
L 484.0875 178.937431 
L 483.39 179.683816 
L 482.6925 180.36769 
L 481.995 180.982479 
L 481.2975 181.522102 
L 480.6 181.981024 
L 479.9025 182.354313 
L 479.205 182.637681 
L 478.5075 182.827529 
L 477.81 182.92098 
L 477.1125 182.915912 
L 476.415 182.810981 
L 475.7175 182.605639 
L 475.02 182.300145 
L 474.3225 181.895569 
L 473.625 181.393792 
L 472.9275 180.797494 
L 472.23 180.110144 
L 471.5325 179.335972 
L 470.835 178.479945 
L 470.1375 177.547728 
L 469.44 176.545649 
L 468.7425 175.480649 
L 468.045 174.360229 
L 467.3475 173.192397 
L 466.65 171.985606 
L 465.9525 170.748686 
L 465.255 169.490782 
L 464.5575 168.221274 
L 463.86 166.949712 
L 463.1625 165.685734 
L 462.465 164.438993 
L 461.7675 163.219079 
L 461.07 162.03544 
L 460.3725 160.897312 
L 459.675 159.813636 
L 458.9775 158.792992 
L 458.28 157.843525 
L 457.5825 156.97288 
L 456.885 156.188137 
L 456.1875 155.495756 
L 455.49 154.901518 
L 454.7925 154.41048 
L 454.095 154.026929 
L 453.3975 153.754349 
L 452.7 153.595384 
L 452.0025 153.55182 
L 451.305 153.624565 
L 450.6075 153.813639 
L 449.91 154.118169 
L 449.2125 154.536398 
L 448.515 155.065689 
L 447.8175 155.70255 
L 447.12 156.442654 
L 446.4225 157.280874 
L 445.725 158.21132 
L 445.0275 159.227382 
L 444.33 160.321783 
L 443.6325 161.486632 
L 442.935 162.713489 
L 442.2375 163.993425 
L 441.54 165.317092 
L 440.8425 166.674801 
L 440.145 168.056589 
L 439.4475 169.452305 
L 438.75 170.851683 
L 438.0525 172.244424 
L 437.355 173.620278 
L 436.6575 174.969124 
L 435.96 176.281047 
L 435.2625 177.546415 
L 434.565 178.755959 
L 433.8675 179.900841 
L 433.17 180.972724 
L 432.4725 181.963836 
L 431.775 182.867033 
L 431.0775 183.675852 
L 430.38 184.38456 
L 429.6825 184.9882 
L 428.985 185.482628 
L 428.2875 185.864544 
L 427.59 186.131515 
L 426.8925 186.281995 
L 426.195 186.315332 
L 425.4975 186.231773 
L 424.8 186.032461 
L 424.1025 185.719421 
L 423.405 185.295543 
L 422.7075 184.764555 
L 422.01 184.130995 
L 421.3125 183.400169 
L 420.615 182.578108 
L 419.9175 181.671515 
L 419.22 180.687717 
L 418.5225 179.634595 
L 417.825 178.520527 
L 417.1275 177.354316 
L 416.43 176.145118 
L 415.7325 174.902372 
L 415.035 173.635718 
L 414.3375 172.354924 
L 413.64 171.069804 
L 412.9425 169.790142 
L 412.245 168.525616 
L 411.5475 167.285716 
L 410.85 166.079673 
L 410.1525 164.916385 
L 409.455 163.80435 
L 408.7575 162.751595 
L 408.06 161.76562 
L 407.3625 160.853337 
L 406.665 160.021021 
L 405.9675 159.274258 
L 405.27 158.617912 
L 404.5725 158.056082 
L 403.875 157.592079 
L 403.1775 157.228406 
L 402.48 156.966735 
L 401.7825 156.807907 
L 401.085 156.751929 
L 400.3875 156.797976 
L 399.69 156.94441 
L 398.9925 157.188792 
L 398.295 157.527913 
L 397.5975 157.957825 
L 396.9 158.473878 
L 396.2025 159.070765 
L 395.505 159.742567 
L 394.8075 160.482813 
L 394.11 161.284531 
L 393.4125 162.140316 
L 392.715 163.042391 
L 392.0175 163.982674 
L 391.32 164.952853 
L 390.6225 165.944451 
L 389.925 166.948904 
L 389.2275 167.957629 
L 388.53 168.9621 
L 387.8325 169.953917 
L 387.135 170.924879 
L 386.4375 171.867046 
L 385.74 172.772811 
L 385.0425 173.634958 
L 384.345 174.446722 
L 383.6475 175.201842 
L 382.95 175.89461 
L 382.2525 176.519917 
L 381.555 177.073294 
L 380.8575 177.55094 
L 380.16 177.949753 
L 379.4625 178.267352 
L 378.765 178.502091 
L 378.0675 178.653066 
L 377.37 178.72012 
L 376.6725 178.703837 
L 375.975 178.605532 
L 375.2775 178.427234 
L 374.58 178.171665 
L 373.8825 177.842206 
L 373.185 177.44287 
L 372.4875 176.978254 
L 371.79 176.453504 
L 371.0925 175.874257 
L 370.395 175.246595 
L 369.6975 174.576983 
L 369 173.872216 
L 368.3025 173.139348 
L 367.605 172.385636 
L 366.9075 171.618471 
L 366.21 170.84531 
L 365.5125 170.073613 
L 364.815 169.310774 
L 364.1175 168.564057 
L 363.42 167.840529 
L 362.7225 167.147004 
L 362.025 166.489977 
L 361.3275 165.875571 
L 360.63 165.309484 
L 359.9325 164.796938 
L 359.235 164.342639 
L 358.5375 163.950729 
L 357.84 163.624761 
L 357.1425 163.367661 
L 356.445 163.181709 
L 355.7475 163.06852 
L 355.05 163.029032 
L 354.3525 163.063497 
L 353.655 163.171485 
L 352.9575 163.351887 
L 352.26 163.60293 
L 351.5625 163.922188 
L 350.865 164.306615 
L 350.1675 164.752565 
L 349.47 165.255829 
L 348.7725 165.811677 
L 348.075 166.414895 
L 347.3775 167.059838 
L 346.68 167.740477 
L 345.9825 168.450456 
L 345.285 169.183146 
L 344.5875 169.931708 
L 343.89 170.689152 
L 343.1925 171.448398 
L 342.495 172.202341 
L 341.7975 172.943913 
L 341.1 173.666143 
L 340.4025 174.362226 
L 339.705 175.025572 
L 339.0075 175.649875 
L 338.31 176.229159 
L 337.6125 176.757838 
L 336.915 177.230759 
L 336.2175 177.643251 
L 335.52 177.991164 
L 334.8225 178.270906 
L 334.125 178.479474 
L 333.4275 178.614481 
L 332.73 178.674175 
L 332.0325 178.657456 
L 331.335 178.563886 
L 330.6375 178.393691 
L 329.94 178.147761 
L 329.2425 177.827642 
L 328.545 177.435524 
L 327.8475 176.974219 
L 327.15 176.44714 
L 326.4525 175.858272 
L 325.755 175.212138 
L 325.0575 174.51376 
L 324.36 173.768613 
L 323.6625 172.982587 
L 322.965 172.161929 
L 322.2675 171.313195 
L 321.57 170.443191 
L 320.8725 169.558918 
L 320.175 168.667515 
L 319.4775 167.776194 
L 318.78 166.892184 
L 318.0825 166.022666 
L 317.385 165.174719 
L 316.6875 164.355255 
L 315.99 163.570966 
L 315.2925 162.828266 
L 314.595 162.13324 
L 313.8975 161.491591 
L 313.2 160.908596 
L 312.5025 160.389062 
L 311.805 159.937288 
L 311.1075 159.557027 
L 310.41 159.251461 
L 309.7125 159.023173 
L 309.015 158.874126 
L 308.3175 158.805651 
L 307.62 158.818436 
L 306.9225 158.912523 
L 306.225 159.087309 
L 305.5275 159.341549 
L 304.83 159.673376 
L 304.1325 160.080312 
L 303.435 160.559291 
L 302.7375 161.106687 
L 302.04 161.718346 
L 301.3425 162.389621 
L 300.645 163.11541 
L 299.9475 163.890204 
L 299.25 164.708126 
L 298.5525 165.562987 
L 297.855 166.448334 
L 297.1575 167.357503 
L 296.46 168.283678 
L 295.7625 169.219938 
L 295.065 170.159325 
L 294.3675 171.094888 
L 293.67 172.019748 
L 292.9725 172.92715 
L 292.275 173.810513 
L 291.5775 174.663485 
L 290.88 175.479994 
L 290.1825 176.254289 
L 289.485 176.980989 
L 288.7875 177.655119 
L 288.09 178.272151 
L 287.3925 178.828031 
L 286.695 179.319213 
L 285.9975 179.742678 
L 285.3 180.095956 
L 284.6025 180.377142 
L 283.905 180.584901 
L 283.2075 180.718477 
L 282.51 180.77769 
L 281.8125 180.762935 
L 281.115 180.675169 
L 280.4175 180.515899 
L 279.72 180.287162 
L 279.0225 179.991505 
L 278.325 179.631954 
L 277.6275 179.211986 
L 276.93 178.735497 
L 276.2325 178.206762 
L 275.535 177.630394 
L 274.8375 177.011308 
L 274.14 176.354669 
L 273.4425 175.665853 
L 272.745 174.950396 
L 272.0475 174.213949 
L 271.35 173.462226 
L 270.6525 172.700962 
L 269.955 171.935859 
L 269.2575 171.172546 
L 268.56 170.416528 
L 267.8625 169.673147 
L 267.165 168.947538 
L 266.4675 168.24459 
L 265.77 167.568911 
L 265.0725 166.924795 
L 264.375 166.316188 
L 263.6775 165.746668 
L 262.98 165.219414 
L 262.2825 164.737195 
L 261.585 164.302348 
L 260.8875 163.916772 
L 260.19 163.581918 
L 259.4925 163.298785 
L 258.795 163.067927 
L 258.0975 162.88945 
L 257.4 162.763027 
L 256.7025 162.687909 
L 256.005 162.66294 
L 255.3075 162.686578 
L 254.61 162.756919 
L 253.9125 162.871722 
L 253.215 163.028434 
L 252.5175 163.224227 
L 251.82 163.456026 
L 251.1225 163.720548 
L 250.425 164.014331 
L 249.7275 164.333777 
L 249.03 164.675187 
L 248.3325 165.0348 
L 247.635 165.408825 
L 246.9375 165.793487 
L 246.24 166.185057 
L 245.5425 166.579887 
L 244.845 166.974446 
L 244.1475 167.365352 
L 243.45 167.749399 
L 242.7525 168.123586 
L 242.055 168.485142 
L 241.3575 168.831548 
L 240.66 169.160555 
L 239.9625 169.470199 
L 239.265 169.758818 
L 238.5675 170.025056 
L 237.87 170.267872 
L 237.1725 170.486543 
L 236.475 170.68066 
L 235.7775 170.850128 
L 235.08 170.995154 
L 234.3825 171.116241 
L 233.685 171.214171 
L 232.9875 171.289989 
L 232.29 171.344988 
L 231.5925 171.38068 
L 230.895 171.398779 
L 230.1975 171.401174 
L 229.5 171.3899 
L 228.8025 171.367109 
L 228.105 171.335045 
L 227.4075 171.29601 
L 226.71 171.252333 
L 226.0125 171.206343 
L 225.315 171.160336 
L 224.6175 171.116544 
L 223.92 171.077112 
L 223.2225 171.044063 
L 222.525 171.019278 
L 221.8275 171.004469 
L 221.13 171.001157 
L 220.4325 171.010652 
L 219.735 171.034036 
L 219.0375 171.072148 
L 218.34 171.125573 
L 217.6425 171.194631 
L 216.945 171.279372 
L 216.2475 171.379573 
L 215.55 171.494738 
L 214.8525 171.624104 
L 214.155 171.766642 
L 213.4575 171.921072 
L 212.76 172.085872 
L 212.0625 172.259295 
L 211.365 172.439388 
L 210.6675 172.624009 
L 209.97 172.810852 
L 209.2725 172.997475 
L 208.575 173.181319 
L 207.8775 173.359745 
L 207.18 173.530057 
L 206.4825 173.689535 
L 205.785 173.835466 
L 205.0875 173.965178 
L 204.39 174.076065 
L 203.6925 174.165625 
L 202.995 174.231486 
L 202.2975 174.271437 
L 201.6 174.283457 
L 200.9025 174.265742 
L 200.205 174.216727 
L 199.5075 174.135112 
L 198.81 174.01988 
L 198.1125 173.870314 
L 197.415 173.686018 
L 196.7175 173.466919 
L 196.02 173.213285 
L 195.3225 172.925725 
L 194.625 172.605192 
L 193.9275 172.252983 
L 193.23 171.870735 
L 192.5325 171.460414 
L 191.835 171.024305 
L 191.1375 170.564999 
L 190.44 170.085371 
L 189.7425 169.588563 
L 189.045 169.077958 
L 188.3475 168.557153 
L 187.65 168.029933 
L 186.9525 167.500234 
L 186.255 166.972117 
L 185.5575 166.449726 
L 184.86 165.937258 
L 184.1625 165.438922 
L 183.465 164.958903 
L 182.7675 164.501323 
L 182.07 164.070204 
L 181.3725 163.669427 
L 180.675 163.302703 
L 179.9775 162.973528 
L 179.28 162.685154 
L 178.5825 162.440555 
L 177.885 162.2424 
L 177.1875 162.093017 
L 176.49 161.994378 
L 175.7925 161.948068 
L 175.095 161.955271 
L 174.3975 162.016752 
L 173.7 162.132846 
L 173.0025 162.303449 
L 172.305 162.528014 
L 171.6075 162.805549 
L 170.91 163.134621 
L 170.2125 163.513363 
L 169.515 163.939485 
L 168.8175 164.410291 
L 168.12 164.922693 
L 167.4225 165.473237 
L 166.725 166.058128 
L 166.0275 166.673258 
L 165.33 167.314239 
L 164.6325 167.976438 
L 163.935 168.65501 
L 163.2375 169.344943 
L 162.54 170.041098 
L 161.8425 170.738245 
L 161.145 171.431116 
L 160.4475 172.114443 
L 159.75 172.783004 
L 159.0525 173.431667 
L 158.355 174.055436 
L 157.6575 174.649492 
L 156.96 175.209234 
L 156.2625 175.730323 
L 155.565 176.208716 
L 154.8675 176.640702 
L 154.17 177.02294 
L 153.4725 177.352481 
L 152.775 177.626803 
L 152.0775 177.843828 
L 151.38 178.001943 
L 150.6825 178.100019 
L 149.985 178.137417 
L 149.2875 178.113998 
L 148.59 178.030126 
L 147.8925 177.886663 
L 147.195 177.684969 
L 146.4975 177.426885 
L 145.8 177.114725 
L 145.1025 176.751249 
L 144.405 176.339649 
L 143.7075 175.883515 
L 143.01 175.386811 
L 142.3125 174.853834 
L 141.615 174.289184 
L 140.9175 173.697721 
L 140.22 173.084525 
L 139.5225 172.454848 
L 138.825 171.814075 
L 138.1275 171.167669 
L 137.43 170.521132 
L 136.7325 169.879947 
L 136.035 169.249538 
L 135.3375 168.635219 
L 134.64 168.042145 
L 133.9425 167.47527 
L 133.245 166.9393 
L 132.5475 166.438652 
L 131.85 165.977415 
L 131.1525 165.559313 
L 130.455 165.187671 
L 129.7575 164.865385 
L 129.06 164.594898 
L 128.3625 164.378173 
L 127.665 164.216681 
L 126.9675 164.111381 
L 126.27 164.062716 
L 125.5725 164.070608 
L 124.875 164.134454 
L 124.1775 164.253136 
L 123.48 164.42503 
L 122.7825 164.648017 
L 122.085 164.919504 
L 121.3875 165.23645 
L 120.69 165.595388 
L 119.9925 165.992459 
L 119.295 166.42345 
L 118.5975 166.883826 
L 117.9 167.368776 
L 117.2025 167.873258 
L 116.505 168.392041 
L 115.8075 168.919756 
L 115.11 169.450947 
L 114.4125 169.980118 
L 113.715 170.501789 
L 113.0175 171.010543 
L 112.32 171.501081 
L 111.6225 171.968269 
L 110.925 172.407189 
L 110.2275 172.813185 
L 109.53 173.181908 
L 108.8325 173.509359 
L 108.135 173.791931 
L 107.4375 174.026439 
L 106.74 174.210157 
L 106.0425 174.340846 
L 105.345 174.416776 
L 104.6475 174.436748 
L 103.95 174.400104 
L 103.2525 174.306745 
L 102.555 174.157128 
L 101.8575 173.952268 
L 101.16 173.693737 
L 100.4625 173.383645 
L 99.765 173.024634 
L 99.0675 172.619848 
L 98.37 172.172915 
L 97.6725 171.687915 
L 96.975 171.169342 
L 96.2775 170.622073 
L 95.58 170.051319 
L 94.8825 169.462583 
L 94.185 168.86161 
L 93.4875 168.254338 
L 92.79 167.646844 
L 92.0925 167.045287 
L 91.395 166.455853 
L 90.6975 165.884701 
L 90 165.3379 
z
" style="fill:#e0ffff;"/>
   </g>
   <g id="line2d_19">
    <path clip-path="url(#pa086002fb5)" d="M 90 165.3379 
L 92.79 167.646844 
L 96.975 171.169342 
L 99.0675 172.619848 
L 100.4625 173.383645 
L 101.8575 173.952268 
L 103.2525 174.306745 
L 104.6475 174.436748 
L 106.0425 174.340846 
L 107.4375 174.026439 
L 108.8325 173.509359 
L 110.925 172.407189 
L 113.0175 171.010543 
L 119.9925 165.992459 
L 122.085 164.919504 
L 123.48 164.42503 
L 124.875 164.134454 
L 126.27 164.062716 
L 127.665 164.216681 
L 129.06 164.594898 
L 130.455 165.187671 
L 131.85 165.977415 
L 133.9425 167.47527 
L 136.7325 169.879947 
L 141.615 174.289184 
L 143.7075 175.883515 
L 145.1025 176.751249 
L 146.4975 177.426885 
L 147.8925 177.886663 
L 149.2875 178.113998 
L 150.6825 178.100019 
L 152.0775 177.843828 
L 153.4725 177.352481 
L 154.8675 176.640702 
L 156.2625 175.730323 
L 158.355 174.055436 
L 161.145 171.431116 
L 166.0275 166.673258 
L 168.12 164.922693 
L 170.2125 163.513363 
L 171.6075 162.805549 
L 173.0025 162.303449 
L 174.3975 162.016752 
L 175.7925 161.948068 
L 177.1875 162.093017 
L 178.5825 162.440555 
L 179.9775 162.973528 
L 182.07 164.070204 
L 184.1625 165.438922 
L 188.3475 168.557153 
L 191.835 171.024305 
L 193.9275 172.252983 
L 196.02 173.213285 
L 198.1125 173.870314 
L 200.205 174.216727 
L 202.2975 174.271437 
L 204.39 174.076065 
L 207.18 173.530057 
L 216.2475 171.379573 
L 219.0375 171.072148 
L 221.8275 171.004469 
L 225.315 171.160336 
L 230.1975 171.401174 
L 232.9875 171.289989 
L 235.08 170.995154 
L 237.1725 170.486543 
L 239.265 169.758818 
L 242.055 168.485142 
L 245.5425 166.579887 
L 249.7275 164.333777 
L 251.82 163.456026 
L 253.9125 162.871722 
L 255.3075 162.686578 
L 256.7025 162.687909 
L 258.0975 162.88945 
L 259.4925 163.298785 
L 260.8875 163.916772 
L 262.2825 164.737195 
L 264.375 166.316188 
L 266.4675 168.24459 
L 269.2575 171.172546 
L 274.14 176.354669 
L 276.2325 178.206762 
L 277.6275 179.211986 
L 279.0225 179.991505 
L 280.4175 180.515899 
L 281.8125 180.762935 
L 283.2075 180.718477 
L 284.6025 180.377142 
L 285.9975 179.742678 
L 287.3925 178.828031 
L 288.7875 177.655119 
L 290.88 175.479994 
L 292.9725 172.92715 
L 300.645 163.11541 
L 302.04 161.718346 
L 303.435 160.559291 
L 304.83 159.673376 
L 306.225 159.087309 
L 307.62 158.818436 
L 309.015 158.874126 
L 310.41 159.251461 
L 311.805 159.937288 
L 313.2 160.908596 
L 314.595 162.13324 
L 316.6875 164.355255 
L 319.4775 167.776194 
L 323.6625 172.982587 
L 325.755 175.212138 
L 327.15 176.44714 
L 328.545 177.435524 
L 329.94 178.147761 
L 331.335 178.563886 
L 332.73 178.674175 
L 334.125 178.479474 
L 335.52 177.991164 
L 336.915 177.230759 
L 338.31 176.229159 
L 340.4025 174.362226 
L 343.1925 171.448398 
L 346.68 167.740477 
L 348.7725 165.811677 
L 350.1675 164.752565 
L 351.5625 163.922188 
L 352.9575 163.351887 
L 354.3525 163.063497 
L 355.7475 163.06852 
L 357.1425 163.367661 
L 358.5375 163.950729 
L 359.9325 164.796938 
L 361.3275 165.875571 
L 363.42 167.840529 
L 366.21 170.84531 
L 369.6975 174.576983 
L 371.79 176.453504 
L 373.185 177.44287 
L 374.58 178.171665 
L 375.975 178.605532 
L 377.37 178.72012 
L 378.765 178.502091 
L 380.16 177.949753 
L 381.555 177.073294 
L 382.95 175.89461 
L 384.345 174.446722 
L 386.4375 171.867046 
L 389.2275 167.957629 
L 392.715 163.042391 
L 394.8075 160.482813 
L 396.2025 159.070765 
L 397.5975 157.957825 
L 398.9925 157.188792 
L 400.3875 156.797976 
L 401.7825 156.807907 
L 403.1775 157.228406 
L 404.5725 158.056082 
L 405.9675 159.274258 
L 407.3625 160.853337 
L 408.7575 162.751595 
L 410.85 166.079673 
L 413.64 171.069804 
L 417.1275 177.354316 
L 419.22 180.687717 
L 420.615 182.578108 
L 422.01 184.130995 
L 423.405 185.295543 
L 424.8 186.032461 
L 425.4975 186.231773 
L 426.195 186.315332 
L 426.8925 186.281995 
L 427.59 186.131515 
L 428.985 185.482628 
L 430.38 184.38456 
L 431.775 182.867033 
L 433.17 180.972724 
L 434.565 178.755959 
L 436.6575 174.969124 
L 444.33 160.321783 
L 445.725 158.21132 
L 447.12 156.442654 
L 448.515 155.065689 
L 449.91 154.118169 
L 451.305 153.624565 
L 452.0025 153.55182 
L 452.7 153.595384 
L 454.095 154.026929 
L 455.49 154.901518 
L 456.885 156.188137 
L 458.28 157.843525 
L 459.675 159.813636 
L 461.7675 163.219079 
L 465.9525 170.748686 
L 468.7425 175.480649 
L 470.835 178.479945 
L 472.23 180.110144 
L 473.625 181.393792 
L 475.02 182.300145 
L 476.415 182.810981 
L 477.81 182.92098 
L 479.205 182.637681 
L 480.6 181.981024 
L 481.995 180.982479 
L 483.39 179.683816 
L 485.4825 177.285538 
L 488.2725 173.561236 
L 492.4575 167.894067 
L 494.55 165.474832 
L 495.945 164.134836 
L 497.34 163.058669 
L 498.735 162.274213 
L 500.13 161.798546 
L 501.525 161.637566 
L 502.92 161.786001 
L 504.315 162.227806 
L 505.71 162.936926 
L 507.105 163.878392 
L 509.1975 165.631637 
L 511.9875 168.341625 
L 515.475 171.719318 
L 517.5675 173.429731 
L 518.9625 174.346028 
L 520.3575 175.043492 
L 521.7525 175.497759 
L 523.1475 175.693912 
L 524.5425 175.626912 
L 525.9375 175.301682 
L 527.3325 174.732832 
L 528.7275 173.944047 
L 530.82 172.420036 
L 533.61 169.969281 
L 537.795 166.179397 
L 539.8875 164.592327 
L 541.2825 163.749033 
L 542.6775 163.11842 
L 544.0725 162.727124 
L 545.4675 162.593264 
L 546.8625 162.725807 
L 548.2575 163.124262 
L 549.6525 163.778706 
L 551.0475 164.67014 
L 552.4425 165.771161 
L 554.535 167.737697 
L 558.0225 171.48939 
L 561.51 175.166739 
L 563.6025 177.019714 
L 564.9975 178.018344 
L 566.3925 178.787535 
L 567.7875 179.301226 
L 569.1825 179.541677 
L 570.5775 179.500017 
L 571.9725 179.176496 
L 573.3675 178.58041 
L 574.7625 177.729737 
L 576.1575 176.650476 
L 578.25 174.677035 
L 581.04 171.600717 
L 585.9225 166.045868 
L 588.015 164.005561 
L 589.41 162.860026 
L 590.805 161.922514 
L 592.2 161.216312 
L 593.595 160.75706 
L 594.99 160.552405 
L 596.385 160.601942 
L 597.78 160.897415 
L 599.175 161.423191 
L 600.57 162.156967 
L 602.6625 163.58496 
L 604.755 165.303713 
L 613.125 172.54519 
L 615.2175 173.876715 
L 617.31 174.859392 
L 618.705 175.305163 
L 620.1 175.581525 
L 621.495 175.69344 
L 623.5875 175.576899 
L 625.68 175.168633 
L 627.7725 174.539843 
L 631.26 173.222637 
L 635.445 171.646721 
L 638.235 170.826238 
L 641.025 170.277324 
L 643.815 169.997207 
L 646.605 169.92 
L 646.605 169.92 
" style="fill:none;stroke:#008080;stroke-linecap:round;stroke-width:1.75;"/>
   </g>
   <g id="patch_3">
    <path d="M 90 270.72 
L 90 69.12 
" style="fill:none;stroke:#262626;stroke-linecap:square;stroke-linejoin:miter;stroke-width:1.25;"/>
   </g>
   <g id="patch_4">
    <path d="M 90 270.72 
L 648 270.72 
" style="fill:none;stroke:#262626;stroke-linecap:square;stroke-linejoin:miter;stroke-width:1.25;"/>
   </g>
  </g>
  <g id="axes_2">
   <g id="patch_5">
    <path d="M 90 512.64 
L 648 512.64 
L 648 311.04 
L 90 311.04 
z
" style="fill:#ffffff;"/>
   </g>
   <g id="matplotlib.axis_3">
    <g id="xtick_10">
     <g id="line2d_20">
      <g>
       <use style="fill:#262626;stroke:#262626;" x="191.454545" xlink:href="#m04eeee78a1" y="512.64"/>
      </g>
     </g>
     <g id="text_19">
      <!-- 200 -->
      <g style="fill:#262626;" transform="translate(183.113139 532.797812)scale(0.1 -0.1)">
       <use xlink:href="#ArialMT-32"/>
       <use x="55.615234" xlink:href="#ArialMT-30"/>
       <use x="111.230469" xlink:href="#ArialMT-30"/>
      </g>
     </g>
    </g>
    <g id="xtick_11">
     <g id="line2d_21">
      <g>
       <use style="fill:#262626;stroke:#262626;" x="304.181818" xlink:href="#m04eeee78a1" y="512.64"/>
      </g>
     </g>
     <g id="text_20">
      <!-- 400 -->
      <g style="fill:#262626;" transform="translate(295.840412 532.797812)scale(0.1 -0.1)">
       <use xlink:href="#ArialMT-34"/>
       <use x="55.615234" xlink:href="#ArialMT-30"/>
       <use x="111.230469" xlink:href="#ArialMT-30"/>
      </g>
     </g>
    </g>
    <g id="xtick_12">
     <g id="line2d_22">
      <g>
       <use style="fill:#262626;stroke:#262626;" x="416.909091" xlink:href="#m04eeee78a1" y="512.64"/>
      </g>
     </g>
     <g id="text_21">
      <!-- 600 -->
      <g style="fill:#262626;" transform="translate(408.567685 532.797812)scale(0.1 -0.1)">
       <use xlink:href="#ArialMT-36"/>
       <use x="55.615234" xlink:href="#ArialMT-30"/>
       <use x="111.230469" xlink:href="#ArialMT-30"/>
      </g>
     </g>
    </g>
    <g id="xtick_13">
     <g id="line2d_23">
      <g>
       <use style="fill:#262626;stroke:#262626;" x="529.636364" xlink:href="#m04eeee78a1" y="512.64"/>
      </g>
     </g>
     <g id="text_22">
      <!-- 800 -->
      <g style="fill:#262626;" transform="translate(521.294957 532.797812)scale(0.1 -0.1)">
       <use xlink:href="#ArialMT-38"/>
       <use x="55.615234" xlink:href="#ArialMT-30"/>
       <use x="111.230469" xlink:href="#ArialMT-30"/>
      </g>
     </g>
    </g>
    <g id="xtick_14">
     <g id="line2d_24">
      <g>
       <use style="fill:#262626;stroke:#262626;" x="642.363636" xlink:href="#m04eeee78a1" y="512.64"/>
      </g>
     </g>
     <g id="text_23">
      <!-- 1000 -->
      <g style="fill:#262626;" transform="translate(631.241761 532.797812)scale(0.1 -0.1)">
       <use xlink:href="#ArialMT-31"/>
       <use x="55.615234" xlink:href="#ArialMT-30"/>
       <use x="111.230469" xlink:href="#ArialMT-30"/>
       <use x="166.845703" xlink:href="#ArialMT-30"/>
      </g>
     </g>
    </g>
   </g>
   <g id="matplotlib.axis_4">
    <g id="ytick_10">
     <g id="line2d_25">
      <g>
       <use style="fill:#262626;stroke:#262626;" x="90" xlink:href="#mf15dc43956" y="512.64"/>
      </g>
     </g>
     <g id="text_24">
      <!-- 0 -->
      <g style="fill:#262626;" transform="translate(71.439063 516.218906)scale(0.1 -0.1)">
       <use xlink:href="#ArialMT-30"/>
      </g>
     </g>
    </g>
    <g id="ytick_11">
     <g id="line2d_26">
      <g>
       <use style="fill:#262626;stroke:#262626;" x="90" xlink:href="#mf15dc43956" y="487.44"/>
      </g>
     </g>
     <g id="text_25">
      <!-- 5 -->
      <g style="fill:#262626;" transform="translate(71.439063 491.018906)scale(0.1 -0.1)">
       <use xlink:href="#ArialMT-35"/>
      </g>
     </g>
    </g>
    <g id="ytick_12">
     <g id="line2d_27">
      <g>
       <use style="fill:#262626;stroke:#262626;" x="90" xlink:href="#mf15dc43956" y="462.24"/>
      </g>
     </g>
     <g id="text_26">
      <!-- 10 -->
      <g style="fill:#262626;" transform="translate(65.878125 465.818906)scale(0.1 -0.1)">
       <use xlink:href="#ArialMT-31"/>
       <use x="55.615234" xlink:href="#ArialMT-30"/>
      </g>
     </g>
    </g>
    <g id="ytick_13">
     <g id="line2d_28">
      <g>
       <use style="fill:#262626;stroke:#262626;" x="90" xlink:href="#mf15dc43956" y="437.04"/>
      </g>
     </g>
     <g id="text_27">
      <!-- 15 -->
      <g style="fill:#262626;" transform="translate(65.878125 440.618906)scale(0.1 -0.1)">
       <use xlink:href="#ArialMT-31"/>
       <use x="55.615234" xlink:href="#ArialMT-35"/>
      </g>
     </g>
    </g>
    <g id="ytick_14">
     <g id="line2d_29">
      <g>
       <use style="fill:#262626;stroke:#262626;" x="90" xlink:href="#mf15dc43956" y="411.84"/>
      </g>
     </g>
     <g id="text_28">
      <!-- 20 -->
      <g style="fill:#262626;" transform="translate(65.878125 415.418906)scale(0.1 -0.1)">
       <use xlink:href="#ArialMT-32"/>
       <use x="55.615234" xlink:href="#ArialMT-30"/>
      </g>
     </g>
    </g>
    <g id="ytick_15">
     <g id="line2d_30">
      <g>
       <use style="fill:#262626;stroke:#262626;" x="90" xlink:href="#mf15dc43956" y="386.64"/>
      </g>
     </g>
     <g id="text_29">
      <!-- 25 -->
      <g style="fill:#262626;" transform="translate(65.878125 390.218906)scale(0.1 -0.1)">
       <use xlink:href="#ArialMT-32"/>
       <use x="55.615234" xlink:href="#ArialMT-35"/>
      </g>
     </g>
    </g>
    <g id="ytick_16">
     <g id="line2d_31">
      <g>
       <use style="fill:#262626;stroke:#262626;" x="90" xlink:href="#mf15dc43956" y="361.44"/>
      </g>
     </g>
     <g id="text_30">
      <!-- 30 -->
      <g style="fill:#262626;" transform="translate(65.878125 365.018906)scale(0.1 -0.1)">
       <use xlink:href="#ArialMT-33"/>
       <use x="55.615234" xlink:href="#ArialMT-30"/>
      </g>
     </g>
    </g>
    <g id="ytick_17">
     <g id="line2d_32">
      <g>
       <use style="fill:#262626;stroke:#262626;" x="90" xlink:href="#mf15dc43956" y="336.24"/>
      </g>
     </g>
     <g id="text_31">
      <!-- 35 -->
      <g style="fill:#262626;" transform="translate(65.878125 339.818906)scale(0.1 -0.1)">
       <use xlink:href="#ArialMT-33"/>
       <use x="55.615234" xlink:href="#ArialMT-35"/>
      </g>
     </g>
    </g>
    <g id="ytick_18">
     <g id="line2d_33">
      <g>
       <use style="fill:#262626;stroke:#262626;" x="90" xlink:href="#mf15dc43956" y="311.04"/>
      </g>
     </g>
     <g id="text_32">
      <!-- 40 -->
      <g style="fill:#262626;" transform="translate(65.878125 314.618906)scale(0.1 -0.1)">
       <use xlink:href="#ArialMT-34"/>
       <use x="55.615234" xlink:href="#ArialMT-30"/>
      </g>
     </g>
    </g>
   </g>
   <g id="line2d_34">
    <path clip-path="url(#p125b46a6b2)" d="M 90 488.562059 
L 95.636364 492.871917 
L 101.272727 491.915277 
L 106.909091 490.291312 
L 112.545455 492.192009 
L 118.181818 490.692663 
L 123.818182 490.203121 
L 129.454545 491.968658 
L 135.090909 490.163889 
L 140.727273 490.392837 
L 146.363636 490.241829 
L 152 489.156296 
L 157.636364 490.240305 
L 163.272727 490.645166 
L 168.909091 488.187222 
L 174.545455 488.633986 
L 180.181818 487.313077 
L 185.818182 487.018973 
L 191.454545 487.338343 
L 197.090909 486.121391 
L 202.727273 487.201243 
L 208.363636 484.042031 
L 214 483.157918 
L 219.636364 483.169266 
L 225.272727 482.846357 
L 230.909091 480.992047 
L 236.545455 479.145187 
L 242.181818 476.443916 
L 247.818182 475.314111 
L 253.454545 475.654125 
L 259.090909 473.305387 
L 264.727273 469.316541 
L 270.363636 463.226508 
L 276 459.185057 
L 281.636364 457.614718 
L 287.272727 454.794335 
L 292.909091 445.504843 
L 298.545455 423.732573 
L 304.181818 397.596726 
L 309.818182 374.961344 
L 315.454545 359.936381 
L 321.090909 350.604229 
L 326.727273 348.320806 
L 332.363636 355.280194 
L 338 371.866917 
L 343.636364 395.340341 
L 349.272727 419.997954 
L 354.909091 443.187999 
L 360.545455 460.277658 
L 366.181818 467.98198 
L 371.818182 471.852273 
L 377.454545 475.259843 
L 383.090909 478.489151 
L 388.727273 479.074231 
L 394.363636 476.894748 
L 400 474.552455 
L 405.636364 471.950812 
L 411.272727 468.681632 
" style="fill:none;stroke:#b22222;stroke-linecap:round;stroke-width:1.75;"/>
   </g>
   <g id="patch_6">
    <path d="M 90 512.64 
L 90 311.04 
" style="fill:none;stroke:#262626;stroke-linecap:square;stroke-linejoin:miter;stroke-width:1.25;"/>
   </g>
   <g id="patch_7">
    <path d="M 90 512.64 
L 648 512.64 
" style="fill:none;stroke:#262626;stroke-linecap:square;stroke-linejoin:miter;stroke-width:1.25;"/>
   </g>
   <g id="text_33">
    <!-- f = 590 Hz -->
    <defs>
     <path d="M 8.6875 0 
L 8.6875 45.015625 
L 0.921875 45.015625 
L 0.921875 51.859375 
L 8.6875 51.859375 
L 8.6875 57.375 
Q 8.6875 62.59375 9.625 65.140625 
Q 10.890625 68.5625 14.078125 70.671875 
Q 17.28125 72.796875 23.046875 72.796875 
Q 26.765625 72.796875 31.25 71.921875 
L 29.9375 64.265625 
Q 27.203125 64.75 24.75 64.75 
Q 20.75 64.75 19.09375 63.03125 
Q 17.4375 61.328125 17.4375 56.640625 
L 17.4375 51.859375 
L 27.546875 51.859375 
L 27.546875 45.015625 
L 17.4375 45.015625 
L 17.4375 0 
z
" id="ArialMT-66"/>
     <path id="ArialMT-20"/>
     <path d="M 52.828125 42.09375 
L 5.5625 42.09375 
L 5.5625 50.296875 
L 52.828125 50.296875 
z
M 52.828125 20.359375 
L 5.5625 20.359375 
L 5.5625 28.5625 
L 52.828125 28.5625 
z
" id="ArialMT-3d"/>
     <path d="M 5.46875 16.546875 
L 13.921875 17.328125 
Q 14.984375 11.375 18.015625 8.6875 
Q 21.046875 6 25.78125 6 
Q 29.828125 6 32.875 7.859375 
Q 35.9375 9.71875 37.890625 12.8125 
Q 39.84375 15.921875 41.15625 21.1875 
Q 42.484375 26.46875 42.484375 31.9375 
Q 42.484375 32.515625 42.4375 33.6875 
Q 39.796875 29.5 35.234375 26.875 
Q 30.671875 24.265625 25.34375 24.265625 
Q 16.453125 24.265625 10.296875 30.703125 
Q 4.15625 37.15625 4.15625 47.703125 
Q 4.15625 58.59375 10.578125 65.234375 
Q 17 71.875 26.65625 71.875 
Q 33.640625 71.875 39.421875 68.109375 
Q 45.21875 64.359375 48.21875 57.390625 
Q 51.21875 50.4375 51.21875 37.25 
Q 51.21875 23.53125 48.234375 15.40625 
Q 45.265625 7.28125 39.375 3.03125 
Q 33.5 -1.21875 25.59375 -1.21875 
Q 17.1875 -1.21875 11.859375 3.4375 
Q 6.546875 8.109375 5.46875 16.546875 
z
M 41.453125 48.140625 
Q 41.453125 55.71875 37.421875 60.15625 
Q 33.40625 64.59375 27.734375 64.59375 
Q 21.875 64.59375 17.53125 59.8125 
Q 13.1875 55.03125 13.1875 47.40625 
Q 13.1875 40.578125 17.3125 36.296875 
Q 21.4375 32.03125 27.484375 32.03125 
Q 33.59375 32.03125 37.515625 36.296875 
Q 41.453125 40.578125 41.453125 48.140625 
z
" id="ArialMT-39"/>
     <path d="M 8.015625 0 
L 8.015625 71.578125 
L 17.484375 71.578125 
L 17.484375 42.1875 
L 54.6875 42.1875 
L 54.6875 71.578125 
L 64.15625 71.578125 
L 64.15625 0 
L 54.6875 0 
L 54.6875 33.734375 
L 17.484375 33.734375 
L 17.484375 0 
z
" id="ArialMT-48"/>
     <path d="M 1.953125 0 
L 1.953125 7.125 
L 34.96875 45.015625 
Q 29.34375 44.734375 25.046875 44.734375 
L 3.90625 44.734375 
L 3.90625 51.859375 
L 46.296875 51.859375 
L 46.296875 46.046875 
L 18.21875 13.140625 
L 12.796875 7.125 
Q 18.703125 7.5625 23.875 7.5625 
L 47.859375 7.5625 
L 47.859375 0 
z
" id="ArialMT-7a"/>
    </defs>
    <g style="fill:#262626;" transform="translate(529.636364 364.542187)scale(0.12 -0.12)">
     <use xlink:href="#ArialMT-66"/>
     <use x="27.783203" xlink:href="#ArialMT-20"/>
     <use x="55.566406" xlink:href="#ArialMT-3d"/>
     <use x="113.964844" xlink:href="#ArialMT-20"/>
     <use x="141.748047" xlink:href="#ArialMT-35"/>
     <use x="197.363281" xlink:href="#ArialMT-39"/>
     <use x="252.978516" xlink:href="#ArialMT-30"/>
     <use x="308.59375" xlink:href="#ArialMT-20"/>
     <use x="336.376953" xlink:href="#ArialMT-48"/>
     <use x="408.59375" xlink:href="#ArialMT-7a"/>
    </g>
   </g>
   <g id="PathCollection_1">
    <defs>
     <path d="M 0 3.5 
C 0.928211 3.5 1.81853 3.131218 2.474874 2.474874 
C 3.131218 1.81853 3.5 0.928211 3.5 0 
C 3.5 -0.928211 3.131218 -1.81853 2.474874 -2.474874 
C 1.81853 -3.131218 0.928211 -3.5 0 -3.5 
C -0.928211 -3.5 -1.81853 -3.131218 -2.474874 -2.474874 
C -3.131218 -1.81853 -3.5 -0.928211 -3.5 0 
C -3.5 0.928211 -3.131218 1.81853 -2.474874 2.474874 
C -1.81853 3.131218 -0.928211 3.5 0 3.5 
z
" id="m87f6f69775" style="stroke:#800000;stroke-width:0.3;"/>
    </defs>
    <g clip-path="url(#p125b46a6b2)">
     <use style="fill:#800000;stroke:#800000;stroke-width:0.3;" x="411.272727" xlink:href="#m87f6f69775" y="468.681632"/>
    </g>
   </g>
  </g>
 </g>
 <defs>
  <clipPath id="pa086002fb5">
   <rect height="201.6" width="558" x="90" y="69.12"/>
  </clipPath>
  <clipPath id="p125b46a6b2">
   <rect height="201.6" width="558" x="90" y="311.04"/>
  </clipPath>
 </defs>
</svg>
