<?xml version="1.0" encoding="utf-8" standalone="no"?>
<!DOCTYPE svg PUBLIC "-//W3C//DTD SVG 1.1//EN"
  "http://www.w3.org/Graphics/SVG/1.1/DTD/svg11.dtd">
<!-- Created with matplotlib (http://matplotlib.org/) -->
<svg height="576pt" version="1.1" viewBox="0 0 720 576" width="720pt" xmlns="http://www.w3.org/2000/svg" xmlns:xlink="http://www.w3.org/1999/xlink">
 <defs>
  <style type="text/css">
*{stroke-linecap:butt;stroke-linejoin:round;}
  </style>
 </defs>
 <g id="figure_1">
  <g id="patch_1">
   <path d="M 0 576 
L 720 576 
L 720 0 
L 0 0 
z
" style="fill:#ffffff;"/>
  </g>
  <g id="axes_1">
   <g id="patch_2">
    <path d="M 90 270.72 
L 648 270.72 
L 648 69.12 
L 90 69.12 
z
" style="fill:#ffffff;"/>
   </g>
   <g id="matplotlib.axis_1">
    <g id="xtick_1">
     <g id="line2d_1">
      <defs>
       <path d="M 0 0 
L 0 6 
" id="m26218f33f0" style="stroke:#262626;"/>
      </defs>
      <g>
       <use style="fill:#262626;stroke:#262626;" x="90" xlink:href="#m26218f33f0" y="270.72"/>
      </g>
     </g>
     <g id="text_1">
      <!-- 0 -->
      <defs>
       <path d="M 4.15625 35.296875 
Q 4.15625 48 6.765625 55.734375 
Q 9.375 63.484375 14.515625 67.671875 
Q 19.671875 71.875 27.484375 71.875 
Q 33.25 71.875 37.59375 69.546875 
Q 41.9375 67.234375 44.765625 62.859375 
Q 47.609375 58.5 49.21875 52.21875 
Q 50.828125 45.953125 50.828125 35.296875 
Q 50.828125 22.703125 48.234375 14.96875 
Q 45.65625 7.234375 40.5 3 
Q 35.359375 -1.21875 27.484375 -1.21875 
Q 17.140625 -1.21875 11.234375 6.203125 
Q 4.15625 15.140625 4.15625 35.296875 
z
M 13.1875 35.296875 
Q 13.1875 17.671875 17.3125 11.828125 
Q 21.4375 6 27.484375 6 
Q 33.546875 6 37.671875 11.859375 
Q 41.796875 17.71875 41.796875 35.296875 
Q 41.796875 52.984375 37.671875 58.78125 
Q 33.546875 64.59375 27.390625 64.59375 
Q 21.34375 64.59375 17.71875 59.46875 
Q 13.1875 52.9375 13.1875 35.296875 
z
" id="ArialMT-30"/>
      </defs>
      <g style="fill:#262626;" transform="translate(87.219531 290.877812)scale(0.1 -0.1)">
       <use xlink:href="#ArialMT-30"/>
      </g>
     </g>
    </g>
    <g id="xtick_2">
     <g id="line2d_2">
      <g>
       <use style="fill:#262626;stroke:#262626;" x="159.75" xlink:href="#m26218f33f0" y="270.72"/>
      </g>
     </g>
     <g id="text_2">
      <!-- 100 -->
      <defs>
       <path d="M 37.25 0 
L 28.46875 0 
L 28.46875 56 
Q 25.296875 52.984375 20.140625 49.953125 
Q 14.984375 46.921875 10.890625 45.40625 
L 10.890625 53.90625 
Q 18.265625 57.375 23.78125 62.296875 
Q 29.296875 67.234375 31.59375 71.875 
L 37.25 71.875 
z
" id="ArialMT-31"/>
      </defs>
      <g style="fill:#262626;" transform="translate(151.408594 290.877812)scale(0.1 -0.1)">
       <use xlink:href="#ArialMT-31"/>
       <use x="55.615234" xlink:href="#ArialMT-30"/>
       <use x="111.230469" xlink:href="#ArialMT-30"/>
      </g>
     </g>
    </g>
    <g id="xtick_3">
     <g id="line2d_3">
      <g>
       <use style="fill:#262626;stroke:#262626;" x="229.5" xlink:href="#m26218f33f0" y="270.72"/>
      </g>
     </g>
     <g id="text_3">
      <!-- 200 -->
      <defs>
       <path d="M 50.34375 8.453125 
L 50.34375 0 
L 3.03125 0 
Q 2.9375 3.171875 4.046875 6.109375 
Q 5.859375 10.9375 9.828125 15.625 
Q 13.8125 20.3125 21.34375 26.46875 
Q 33.015625 36.03125 37.109375 41.625 
Q 41.21875 47.21875 41.21875 52.203125 
Q 41.21875 57.421875 37.46875 61 
Q 33.734375 64.59375 27.734375 64.59375 
Q 21.390625 64.59375 17.578125 60.78125 
Q 13.765625 56.984375 13.71875 50.25 
L 4.6875 51.171875 
Q 5.609375 61.28125 11.65625 66.578125 
Q 17.71875 71.875 27.9375 71.875 
Q 38.234375 71.875 44.234375 66.15625 
Q 50.25 60.453125 50.25 52 
Q 50.25 47.703125 48.484375 43.546875 
Q 46.734375 39.40625 42.65625 34.8125 
Q 38.578125 30.21875 29.109375 22.21875 
Q 21.1875 15.578125 18.9375 13.203125 
Q 16.703125 10.84375 15.234375 8.453125 
z
" id="ArialMT-32"/>
      </defs>
      <g style="fill:#262626;" transform="translate(221.158594 290.877812)scale(0.1 -0.1)">
       <use xlink:href="#ArialMT-32"/>
       <use x="55.615234" xlink:href="#ArialMT-30"/>
       <use x="111.230469" xlink:href="#ArialMT-30"/>
      </g>
     </g>
    </g>
    <g id="xtick_4">
     <g id="line2d_4">
      <g>
       <use style="fill:#262626;stroke:#262626;" x="299.25" xlink:href="#m26218f33f0" y="270.72"/>
      </g>
     </g>
     <g id="text_4">
      <!-- 300 -->
      <defs>
       <path d="M 4.203125 18.890625 
L 12.984375 20.0625 
Q 14.5 12.59375 18.140625 9.296875 
Q 21.78125 6 27 6 
Q 33.203125 6 37.46875 10.296875 
Q 41.75 14.59375 41.75 20.953125 
Q 41.75 27 37.796875 30.921875 
Q 33.84375 34.859375 27.734375 34.859375 
Q 25.25 34.859375 21.53125 33.890625 
L 22.515625 41.609375 
Q 23.390625 41.5 23.921875 41.5 
Q 29.546875 41.5 34.03125 44.421875 
Q 38.53125 47.359375 38.53125 53.46875 
Q 38.53125 58.296875 35.25 61.46875 
Q 31.984375 64.65625 26.8125 64.65625 
Q 21.6875 64.65625 18.265625 61.421875 
Q 14.84375 58.203125 13.875 51.765625 
L 5.078125 53.328125 
Q 6.6875 62.15625 12.390625 67.015625 
Q 18.109375 71.875 26.609375 71.875 
Q 32.46875 71.875 37.390625 69.359375 
Q 42.328125 66.84375 44.9375 62.5 
Q 47.5625 58.15625 47.5625 53.265625 
Q 47.5625 48.640625 45.0625 44.828125 
Q 42.578125 41.015625 37.703125 38.765625 
Q 44.046875 37.3125 47.5625 32.6875 
Q 51.078125 28.078125 51.078125 21.140625 
Q 51.078125 11.765625 44.234375 5.25 
Q 37.40625 -1.265625 26.953125 -1.265625 
Q 17.53125 -1.265625 11.296875 4.34375 
Q 5.078125 9.96875 4.203125 18.890625 
z
" id="ArialMT-33"/>
      </defs>
      <g style="fill:#262626;" transform="translate(290.908594 290.877812)scale(0.1 -0.1)">
       <use xlink:href="#ArialMT-33"/>
       <use x="55.615234" xlink:href="#ArialMT-30"/>
       <use x="111.230469" xlink:href="#ArialMT-30"/>
      </g>
     </g>
    </g>
    <g id="xtick_5">
     <g id="line2d_5">
      <g>
       <use style="fill:#262626;stroke:#262626;" x="369" xlink:href="#m26218f33f0" y="270.72"/>
      </g>
     </g>
     <g id="text_5">
      <!-- 400 -->
      <defs>
       <path d="M 32.328125 0 
L 32.328125 17.140625 
L 1.265625 17.140625 
L 1.265625 25.203125 
L 33.9375 71.578125 
L 41.109375 71.578125 
L 41.109375 25.203125 
L 50.78125 25.203125 
L 50.78125 17.140625 
L 41.109375 17.140625 
L 41.109375 0 
z
M 32.328125 25.203125 
L 32.328125 57.46875 
L 9.90625 25.203125 
z
" id="ArialMT-34"/>
      </defs>
      <g style="fill:#262626;" transform="translate(360.658594 290.877812)scale(0.1 -0.1)">
       <use xlink:href="#ArialMT-34"/>
       <use x="55.615234" xlink:href="#ArialMT-30"/>
       <use x="111.230469" xlink:href="#ArialMT-30"/>
      </g>
     </g>
    </g>
    <g id="xtick_6">
     <g id="line2d_6">
      <g>
       <use style="fill:#262626;stroke:#262626;" x="438.75" xlink:href="#m26218f33f0" y="270.72"/>
      </g>
     </g>
     <g id="text_6">
      <!-- 500 -->
      <defs>
       <path d="M 4.15625 18.75 
L 13.375 19.53125 
Q 14.40625 12.796875 18.140625 9.390625 
Q 21.875 6 27.15625 6 
Q 33.5 6 37.890625 10.78125 
Q 42.28125 15.578125 42.28125 23.484375 
Q 42.28125 31 38.0625 35.34375 
Q 33.84375 39.703125 27 39.703125 
Q 22.75 39.703125 19.328125 37.765625 
Q 15.921875 35.84375 13.96875 32.765625 
L 5.71875 33.84375 
L 12.640625 70.609375 
L 48.25 70.609375 
L 48.25 62.203125 
L 19.671875 62.203125 
L 15.828125 42.96875 
Q 22.265625 47.46875 29.34375 47.46875 
Q 38.71875 47.46875 45.15625 40.96875 
Q 51.609375 34.46875 51.609375 24.265625 
Q 51.609375 14.546875 45.953125 7.46875 
Q 39.0625 -1.21875 27.15625 -1.21875 
Q 17.390625 -1.21875 11.203125 4.25 
Q 5.03125 9.71875 4.15625 18.75 
z
" id="ArialMT-35"/>
      </defs>
      <g style="fill:#262626;" transform="translate(430.408594 290.877812)scale(0.1 -0.1)">
       <use xlink:href="#ArialMT-35"/>
       <use x="55.615234" xlink:href="#ArialMT-30"/>
       <use x="111.230469" xlink:href="#ArialMT-30"/>
      </g>
     </g>
    </g>
    <g id="xtick_7">
     <g id="line2d_7">
      <g>
       <use style="fill:#262626;stroke:#262626;" x="508.5" xlink:href="#m26218f33f0" y="270.72"/>
      </g>
     </g>
     <g id="text_7">
      <!-- 600 -->
      <defs>
       <path d="M 49.75 54.046875 
L 41.015625 53.375 
Q 39.84375 58.546875 37.703125 60.890625 
Q 34.125 64.65625 28.90625 64.65625 
Q 24.703125 64.65625 21.53125 62.3125 
Q 17.390625 59.28125 14.984375 53.46875 
Q 12.59375 47.65625 12.5 36.921875 
Q 15.671875 41.75 20.265625 44.09375 
Q 24.859375 46.4375 29.890625 46.4375 
Q 38.671875 46.4375 44.84375 39.96875 
Q 51.03125 33.5 51.03125 23.25 
Q 51.03125 16.5 48.125 10.71875 
Q 45.21875 4.9375 40.140625 1.859375 
Q 35.0625 -1.21875 28.609375 -1.21875 
Q 17.625 -1.21875 10.6875 6.859375 
Q 3.765625 14.9375 3.765625 33.5 
Q 3.765625 54.25 11.421875 63.671875 
Q 18.109375 71.875 29.4375 71.875 
Q 37.890625 71.875 43.28125 67.140625 
Q 48.6875 62.40625 49.75 54.046875 
z
M 13.875 23.1875 
Q 13.875 18.65625 15.796875 14.5 
Q 17.71875 10.359375 21.1875 8.171875 
Q 24.65625 6 28.46875 6 
Q 34.03125 6 38.03125 10.484375 
Q 42.046875 14.984375 42.046875 22.703125 
Q 42.046875 30.125 38.078125 34.390625 
Q 34.125 38.671875 28.125 38.671875 
Q 22.171875 38.671875 18.015625 34.390625 
Q 13.875 30.125 13.875 23.1875 
z
" id="ArialMT-36"/>
      </defs>
      <g style="fill:#262626;" transform="translate(500.158594 290.877812)scale(0.1 -0.1)">
       <use xlink:href="#ArialMT-36"/>
       <use x="55.615234" xlink:href="#ArialMT-30"/>
       <use x="111.230469" xlink:href="#ArialMT-30"/>
      </g>
     </g>
    </g>
    <g id="xtick_8">
     <g id="line2d_8">
      <g>
       <use style="fill:#262626;stroke:#262626;" x="578.25" xlink:href="#m26218f33f0" y="270.72"/>
      </g>
     </g>
     <g id="text_8">
      <!-- 700 -->
      <defs>
       <path d="M 4.734375 62.203125 
L 4.734375 70.65625 
L 51.078125 70.65625 
L 51.078125 63.8125 
Q 44.234375 56.546875 37.515625 44.484375 
Q 30.8125 32.421875 27.15625 19.671875 
Q 24.515625 10.6875 23.78125 0 
L 14.75 0 
Q 14.890625 8.453125 18.0625 20.40625 
Q 21.234375 32.375 27.171875 43.484375 
Q 33.109375 54.59375 39.796875 62.203125 
z
" id="ArialMT-37"/>
      </defs>
      <g style="fill:#262626;" transform="translate(569.908594 290.877812)scale(0.1 -0.1)">
       <use xlink:href="#ArialMT-37"/>
       <use x="55.615234" xlink:href="#ArialMT-30"/>
       <use x="111.230469" xlink:href="#ArialMT-30"/>
      </g>
     </g>
    </g>
    <g id="xtick_9">
     <g id="line2d_9">
      <g>
       <use style="fill:#262626;stroke:#262626;" x="648" xlink:href="#m26218f33f0" y="270.72"/>
      </g>
     </g>
     <g id="text_9">
      <!-- 800 -->
      <defs>
       <path d="M 17.671875 38.8125 
Q 12.203125 40.828125 9.5625 44.53125 
Q 6.9375 48.25 6.9375 53.421875 
Q 6.9375 61.234375 12.546875 66.546875 
Q 18.171875 71.875 27.484375 71.875 
Q 36.859375 71.875 42.578125 66.421875 
Q 48.296875 60.984375 48.296875 53.171875 
Q 48.296875 48.1875 45.671875 44.5 
Q 43.0625 40.828125 37.75 38.8125 
Q 44.34375 36.671875 47.78125 31.875 
Q 51.21875 27.09375 51.21875 20.453125 
Q 51.21875 11.28125 44.71875 5.03125 
Q 38.234375 -1.21875 27.640625 -1.21875 
Q 17.046875 -1.21875 10.546875 5.046875 
Q 4.046875 11.328125 4.046875 20.703125 
Q 4.046875 27.6875 7.59375 32.390625 
Q 11.140625 37.109375 17.671875 38.8125 
z
M 15.921875 53.71875 
Q 15.921875 48.640625 19.1875 45.40625 
Q 22.46875 42.1875 27.6875 42.1875 
Q 32.765625 42.1875 36.015625 45.375 
Q 39.265625 48.578125 39.265625 53.21875 
Q 39.265625 58.0625 35.90625 61.359375 
Q 32.5625 64.65625 27.59375 64.65625 
Q 22.5625 64.65625 19.234375 61.421875 
Q 15.921875 58.203125 15.921875 53.71875 
z
M 13.09375 20.65625 
Q 13.09375 16.890625 14.875 13.375 
Q 16.65625 9.859375 20.171875 7.921875 
Q 23.6875 6 27.734375 6 
Q 34.03125 6 38.125 10.046875 
Q 42.234375 14.109375 42.234375 20.359375 
Q 42.234375 26.703125 38.015625 30.859375 
Q 33.796875 35.015625 27.4375 35.015625 
Q 21.234375 35.015625 17.15625 30.90625 
Q 13.09375 26.8125 13.09375 20.65625 
z
" id="ArialMT-38"/>
      </defs>
      <g style="fill:#262626;" transform="translate(639.658594 290.877812)scale(0.1 -0.1)">
       <use xlink:href="#ArialMT-38"/>
       <use x="55.615234" xlink:href="#ArialMT-30"/>
       <use x="111.230469" xlink:href="#ArialMT-30"/>
      </g>
     </g>
    </g>
   </g>
   <g id="matplotlib.axis_2">
    <g id="ytick_1">
     <g id="line2d_10">
      <defs>
       <path d="M 0 0 
L -6 0 
" id="mb58f13c81b" style="stroke:#262626;"/>
      </defs>
      <g>
       <use style="fill:#262626;stroke:#262626;" x="90" xlink:href="#mb58f13c81b" y="270.72"/>
      </g>
     </g>
     <g id="text_10">
      <!-- −0.20 -->
      <defs>
       <path d="M 52.828125 31.203125 
L 5.5625 31.203125 
L 5.5625 39.40625 
L 52.828125 39.40625 
z
" id="ArialMT-2212"/>
       <path d="M 9.078125 0 
L 9.078125 10.015625 
L 19.09375 10.015625 
L 19.09375 0 
z
" id="ArialMT-2e"/>
      </defs>
      <g style="fill:#262626;" transform="translate(51.698437 274.298906)scale(0.1 -0.1)">
       <use xlink:href="#ArialMT-2212"/>
       <use x="58.398438" xlink:href="#ArialMT-30"/>
       <use x="114.013672" xlink:href="#ArialMT-2e"/>
       <use x="141.796875" xlink:href="#ArialMT-32"/>
       <use x="197.412109" xlink:href="#ArialMT-30"/>
      </g>
     </g>
    </g>
    <g id="ytick_2">
     <g id="line2d_11">
      <g>
       <use style="fill:#262626;stroke:#262626;" x="90" xlink:href="#mb58f13c81b" y="245.52"/>
      </g>
     </g>
     <g id="text_11">
      <!-- −0.15 -->
      <g style="fill:#262626;" transform="translate(51.698437 249.098906)scale(0.1 -0.1)">
       <use xlink:href="#ArialMT-2212"/>
       <use x="58.398438" xlink:href="#ArialMT-30"/>
       <use x="114.013672" xlink:href="#ArialMT-2e"/>
       <use x="141.796875" xlink:href="#ArialMT-31"/>
       <use x="197.412109" xlink:href="#ArialMT-35"/>
      </g>
     </g>
    </g>
    <g id="ytick_3">
     <g id="line2d_12">
      <g>
       <use style="fill:#262626;stroke:#262626;" x="90" xlink:href="#mb58f13c81b" y="220.32"/>
      </g>
     </g>
     <g id="text_12">
      <!-- −0.10 -->
      <g style="fill:#262626;" transform="translate(51.698437 223.898906)scale(0.1 -0.1)">
       <use xlink:href="#ArialMT-2212"/>
       <use x="58.398438" xlink:href="#ArialMT-30"/>
       <use x="114.013672" xlink:href="#ArialMT-2e"/>
       <use x="141.796875" xlink:href="#ArialMT-31"/>
       <use x="197.412109" xlink:href="#ArialMT-30"/>
      </g>
     </g>
    </g>
    <g id="ytick_4">
     <g id="line2d_13">
      <g>
       <use style="fill:#262626;stroke:#262626;" x="90" xlink:href="#mb58f13c81b" y="195.12"/>
      </g>
     </g>
     <g id="text_13">
      <!-- −0.05 -->
      <g style="fill:#262626;" transform="translate(51.698437 198.698906)scale(0.1 -0.1)">
       <use xlink:href="#ArialMT-2212"/>
       <use x="58.398438" xlink:href="#ArialMT-30"/>
       <use x="114.013672" xlink:href="#ArialMT-2e"/>
       <use x="141.796875" xlink:href="#ArialMT-30"/>
       <use x="197.412109" xlink:href="#ArialMT-35"/>
      </g>
     </g>
    </g>
    <g id="ytick_5">
     <g id="line2d_14">
      <g>
       <use style="fill:#262626;stroke:#262626;" x="90" xlink:href="#mb58f13c81b" y="169.92"/>
      </g>
     </g>
     <g id="text_14">
      <!-- 0.00 -->
      <g style="fill:#262626;" transform="translate(57.539062 173.498906)scale(0.1 -0.1)">
       <use xlink:href="#ArialMT-30"/>
       <use x="55.615234" xlink:href="#ArialMT-2e"/>
       <use x="83.398438" xlink:href="#ArialMT-30"/>
       <use x="139.013672" xlink:href="#ArialMT-30"/>
      </g>
     </g>
    </g>
    <g id="ytick_6">
     <g id="line2d_15">
      <g>
       <use style="fill:#262626;stroke:#262626;" x="90" xlink:href="#mb58f13c81b" y="144.72"/>
      </g>
     </g>
     <g id="text_15">
      <!-- 0.05 -->
      <g style="fill:#262626;" transform="translate(57.539062 148.298906)scale(0.1 -0.1)">
       <use xlink:href="#ArialMT-30"/>
       <use x="55.615234" xlink:href="#ArialMT-2e"/>
       <use x="83.398438" xlink:href="#ArialMT-30"/>
       <use x="139.013672" xlink:href="#ArialMT-35"/>
      </g>
     </g>
    </g>
    <g id="ytick_7">
     <g id="line2d_16">
      <g>
       <use style="fill:#262626;stroke:#262626;" x="90" xlink:href="#mb58f13c81b" y="119.52"/>
      </g>
     </g>
     <g id="text_16">
      <!-- 0.10 -->
      <g style="fill:#262626;" transform="translate(57.539062 123.098906)scale(0.1 -0.1)">
       <use xlink:href="#ArialMT-30"/>
       <use x="55.615234" xlink:href="#ArialMT-2e"/>
       <use x="83.398438" xlink:href="#ArialMT-31"/>
       <use x="139.013672" xlink:href="#ArialMT-30"/>
      </g>
     </g>
    </g>
    <g id="ytick_8">
     <g id="line2d_17">
      <g>
       <use style="fill:#262626;stroke:#262626;" x="90" xlink:href="#mb58f13c81b" y="94.32"/>
      </g>
     </g>
     <g id="text_17">
      <!-- 0.15 -->
      <g style="fill:#262626;" transform="translate(57.539062 97.898906)scale(0.1 -0.1)">
       <use xlink:href="#ArialMT-30"/>
       <use x="55.615234" xlink:href="#ArialMT-2e"/>
       <use x="83.398438" xlink:href="#ArialMT-31"/>
       <use x="139.013672" xlink:href="#ArialMT-35"/>
      </g>
     </g>
    </g>
    <g id="ytick_9">
     <g id="line2d_18">
      <g>
       <use style="fill:#262626;stroke:#262626;" x="90" xlink:href="#mb58f13c81b" y="69.12"/>
      </g>
     </g>
     <g id="text_18">
      <!-- 0.20 -->
      <g style="fill:#262626;" transform="translate(57.539062 72.698906)scale(0.1 -0.1)">
       <use xlink:href="#ArialMT-30"/>
       <use x="55.615234" xlink:href="#ArialMT-2e"/>
       <use x="83.398438" xlink:href="#ArialMT-32"/>
       <use x="139.013672" xlink:href="#ArialMT-30"/>
      </g>
     </g>
    </g>
   </g>
   <g id="PolyCollection_1">
    <path clip-path="url(#p89c57d3309)" d="M 90 169.932544 
L 90 169.92 
L 90.6975 169.92 
L 91.395 169.92 
L 92.0925 169.92 
L 92.79 169.92 
L 93.4875 169.92 
L 94.185 169.92 
L 94.8825 169.92 
L 95.58 169.92 
L 96.2775 169.92 
L 96.975 169.92 
L 97.6725 169.92 
L 98.37 169.92 
L 99.0675 169.92 
L 99.765 169.92 
L 100.4625 169.92 
L 101.16 169.92 
L 101.8575 169.92 
L 102.555 169.92 
L 103.2525 169.92 
L 103.95 169.92 
L 104.6475 169.92 
L 105.345 169.92 
L 106.0425 169.92 
L 106.74 169.92 
L 107.4375 169.92 
L 108.135 169.92 
L 108.8325 169.92 
L 109.53 169.92 
L 110.2275 169.92 
L 110.925 169.92 
L 111.6225 169.92 
L 112.32 169.92 
L 113.0175 169.92 
L 113.715 169.92 
L 114.4125 169.92 
L 115.11 169.92 
L 115.8075 169.92 
L 116.505 169.92 
L 117.2025 169.92 
L 117.9 169.92 
L 118.5975 169.92 
L 119.295 169.92 
L 119.9925 169.92 
L 120.69 169.92 
L 121.3875 169.92 
L 122.085 169.92 
L 122.7825 169.92 
L 123.48 169.92 
L 124.1775 169.92 
L 124.875 169.92 
L 125.5725 169.92 
L 126.27 169.92 
L 126.9675 169.92 
L 127.665 169.92 
L 128.3625 169.92 
L 129.06 169.92 
L 129.7575 169.92 
L 130.455 169.92 
L 131.1525 169.92 
L 131.85 169.92 
L 132.5475 169.92 
L 133.245 169.92 
L 133.9425 169.92 
L 134.64 169.92 
L 135.3375 169.92 
L 136.035 169.92 
L 136.7325 169.92 
L 137.43 169.92 
L 138.1275 169.92 
L 138.825 169.92 
L 139.5225 169.92 
L 140.22 169.92 
L 140.9175 169.92 
L 141.615 169.92 
L 142.3125 169.92 
L 143.01 169.92 
L 143.7075 169.92 
L 144.405 169.92 
L 145.1025 169.92 
L 145.8 169.92 
L 146.4975 169.92 
L 147.195 169.92 
L 147.8925 169.92 
L 148.59 169.92 
L 149.2875 169.92 
L 149.985 169.92 
L 150.6825 169.92 
L 151.38 169.92 
L 152.0775 169.92 
L 152.775 169.92 
L 153.4725 169.92 
L 154.17 169.92 
L 154.8675 169.92 
L 155.565 169.92 
L 156.2625 169.92 
L 156.96 169.92 
L 157.6575 169.92 
L 158.355 169.92 
L 159.0525 169.92 
L 159.75 169.92 
L 160.4475 169.92 
L 161.145 169.92 
L 161.8425 169.92 
L 162.54 169.92 
L 163.2375 169.92 
L 163.935 169.92 
L 164.6325 169.92 
L 165.33 169.92 
L 166.0275 169.92 
L 166.725 169.92 
L 167.4225 169.92 
L 168.12 169.92 
L 168.8175 169.92 
L 169.515 169.92 
L 170.2125 169.92 
L 170.91 169.92 
L 171.6075 169.92 
L 172.305 169.92 
L 173.0025 169.92 
L 173.7 169.92 
L 174.3975 169.92 
L 175.095 169.92 
L 175.7925 169.92 
L 176.49 169.92 
L 177.1875 169.92 
L 177.885 169.92 
L 178.5825 169.92 
L 179.28 169.92 
L 179.9775 169.92 
L 180.675 169.92 
L 181.3725 169.92 
L 182.07 169.92 
L 182.7675 169.92 
L 183.465 169.92 
L 184.1625 169.92 
L 184.86 169.92 
L 185.5575 169.92 
L 186.255 169.92 
L 186.9525 169.92 
L 187.65 169.92 
L 188.3475 169.92 
L 189.045 169.92 
L 189.7425 169.92 
L 190.44 169.92 
L 191.1375 169.92 
L 191.835 169.92 
L 192.5325 169.92 
L 193.23 169.92 
L 193.9275 169.92 
L 194.625 169.92 
L 195.3225 169.92 
L 196.02 169.92 
L 196.7175 169.92 
L 197.415 169.92 
L 198.1125 169.92 
L 198.81 169.92 
L 199.5075 169.92 
L 200.205 169.92 
L 200.9025 169.92 
L 201.6 169.92 
L 202.2975 169.92 
L 202.995 169.92 
L 203.6925 169.92 
L 204.39 169.92 
L 205.0875 169.92 
L 205.785 169.92 
L 206.4825 169.92 
L 207.18 169.92 
L 207.8775 169.92 
L 208.575 169.92 
L 209.2725 169.92 
L 209.97 169.92 
L 210.6675 169.92 
L 211.365 169.92 
L 212.0625 169.92 
L 212.76 169.92 
L 213.4575 169.92 
L 214.155 169.92 
L 214.8525 169.92 
L 215.55 169.92 
L 216.2475 169.92 
L 216.945 169.92 
L 217.6425 169.92 
L 218.34 169.92 
L 219.0375 169.92 
L 219.735 169.92 
L 220.4325 169.92 
L 221.13 169.92 
L 221.8275 169.92 
L 222.525 169.92 
L 223.2225 169.92 
L 223.92 169.92 
L 224.6175 169.92 
L 225.315 169.92 
L 226.0125 169.92 
L 226.71 169.92 
L 227.4075 169.92 
L 228.105 169.92 
L 228.8025 169.92 
L 229.5 169.92 
L 230.1975 169.92 
L 230.895 169.92 
L 231.5925 169.92 
L 232.29 169.92 
L 232.9875 169.92 
L 233.685 169.92 
L 234.3825 169.92 
L 235.08 169.92 
L 235.7775 169.92 
L 236.475 169.92 
L 237.1725 169.92 
L 237.87 169.92 
L 238.5675 169.92 
L 239.265 169.92 
L 239.9625 169.92 
L 240.66 169.92 
L 241.3575 169.92 
L 242.055 169.92 
L 242.7525 169.92 
L 243.45 169.92 
L 244.1475 169.92 
L 244.845 169.92 
L 245.5425 169.92 
L 246.24 169.92 
L 246.9375 169.92 
L 247.635 169.92 
L 248.3325 169.92 
L 249.03 169.92 
L 249.7275 169.92 
L 250.425 169.92 
L 251.1225 169.92 
L 251.82 169.92 
L 252.5175 169.92 
L 253.215 169.92 
L 253.9125 169.92 
L 254.61 169.92 
L 255.3075 169.92 
L 256.005 169.92 
L 256.7025 169.92 
L 257.4 169.92 
L 258.0975 169.92 
L 258.795 169.92 
L 259.4925 169.92 
L 260.19 169.92 
L 260.8875 169.92 
L 261.585 169.92 
L 262.2825 169.92 
L 262.98 169.92 
L 263.6775 169.92 
L 264.375 169.92 
L 265.0725 169.92 
L 265.77 169.92 
L 266.4675 169.92 
L 267.165 169.92 
L 267.8625 169.92 
L 268.56 169.92 
L 269.2575 169.92 
L 269.955 169.92 
L 270.6525 169.92 
L 271.35 169.92 
L 272.0475 169.92 
L 272.745 169.92 
L 273.4425 169.92 
L 274.14 169.92 
L 274.8375 169.92 
L 275.535 169.92 
L 276.2325 169.92 
L 276.93 169.92 
L 277.6275 169.92 
L 278.325 169.92 
L 279.0225 169.92 
L 279.72 169.92 
L 280.4175 169.92 
L 281.115 169.92 
L 281.8125 169.92 
L 282.51 169.92 
L 283.2075 169.92 
L 283.905 169.92 
L 284.6025 169.92 
L 285.3 169.92 
L 285.9975 169.92 
L 286.695 169.92 
L 287.3925 169.92 
L 288.09 169.92 
L 288.7875 169.92 
L 289.485 169.92 
L 290.1825 169.92 
L 290.88 169.92 
L 291.5775 169.92 
L 292.275 169.92 
L 292.9725 169.92 
L 293.67 169.92 
L 294.3675 169.92 
L 295.065 169.92 
L 295.7625 169.92 
L 296.46 169.92 
L 297.1575 169.92 
L 297.855 169.92 
L 298.5525 169.92 
L 299.25 169.92 
L 299.9475 169.92 
L 300.645 169.92 
L 301.3425 169.92 
L 302.04 169.92 
L 302.7375 169.92 
L 303.435 169.92 
L 304.1325 169.92 
L 304.83 169.92 
L 305.5275 169.92 
L 306.225 169.92 
L 306.9225 169.92 
L 307.62 169.92 
L 308.3175 169.92 
L 309.015 169.92 
L 309.7125 169.92 
L 310.41 169.92 
L 311.1075 169.92 
L 311.805 169.92 
L 312.5025 169.92 
L 313.2 169.92 
L 313.8975 169.92 
L 314.595 169.92 
L 315.2925 169.92 
L 315.99 169.92 
L 316.6875 169.92 
L 317.385 169.92 
L 318.0825 169.92 
L 318.78 169.92 
L 319.4775 169.92 
L 320.175 169.92 
L 320.8725 169.92 
L 321.57 169.92 
L 322.2675 169.92 
L 322.965 169.92 
L 323.6625 169.92 
L 324.36 169.92 
L 325.0575 169.92 
L 325.755 169.92 
L 326.4525 169.92 
L 327.15 169.92 
L 327.8475 169.92 
L 328.545 169.92 
L 329.2425 169.92 
L 329.94 169.92 
L 330.6375 169.92 
L 331.335 169.92 
L 332.0325 169.92 
L 332.73 169.92 
L 333.4275 169.92 
L 334.125 169.92 
L 334.8225 169.92 
L 335.52 169.92 
L 336.2175 169.92 
L 336.915 169.92 
L 337.6125 169.92 
L 338.31 169.92 
L 339.0075 169.92 
L 339.705 169.92 
L 340.4025 169.92 
L 341.1 169.92 
L 341.7975 169.92 
L 342.495 169.92 
L 343.1925 169.92 
L 343.89 169.92 
L 344.5875 169.92 
L 345.285 169.92 
L 345.9825 169.92 
L 346.68 169.92 
L 347.3775 169.92 
L 348.075 169.92 
L 348.7725 169.92 
L 349.47 169.92 
L 350.1675 169.92 
L 350.865 169.92 
L 351.5625 169.92 
L 352.26 169.92 
L 352.9575 169.92 
L 353.655 169.92 
L 354.3525 169.92 
L 355.05 169.92 
L 355.7475 169.92 
L 356.445 169.92 
L 357.1425 169.92 
L 357.84 169.92 
L 358.5375 169.92 
L 359.235 169.92 
L 359.9325 169.92 
L 360.63 169.92 
L 361.3275 169.92 
L 362.025 169.92 
L 362.7225 169.92 
L 363.42 169.92 
L 364.1175 169.92 
L 364.815 169.92 
L 365.5125 169.92 
L 366.21 169.92 
L 366.9075 169.92 
L 367.605 169.92 
L 368.3025 169.92 
L 369 169.92 
L 369.6975 169.92 
L 370.395 169.92 
L 371.0925 169.92 
L 371.79 169.92 
L 372.4875 169.92 
L 373.185 169.92 
L 373.8825 169.92 
L 374.58 169.92 
L 375.2775 169.92 
L 375.975 169.92 
L 376.6725 169.92 
L 377.37 169.92 
L 378.0675 169.92 
L 378.765 169.92 
L 379.4625 169.92 
L 380.16 169.92 
L 380.8575 169.92 
L 381.555 169.92 
L 382.2525 169.92 
L 382.95 169.92 
L 383.6475 169.92 
L 384.345 169.92 
L 385.0425 169.92 
L 385.74 169.92 
L 386.4375 169.92 
L 387.135 169.92 
L 387.8325 169.92 
L 388.53 169.92 
L 389.2275 169.92 
L 389.925 169.92 
L 390.6225 169.92 
L 391.32 169.92 
L 392.0175 169.92 
L 392.715 169.92 
L 393.4125 169.92 
L 394.11 169.92 
L 394.8075 169.92 
L 395.505 169.92 
L 396.2025 169.92 
L 396.9 169.92 
L 397.5975 169.92 
L 398.295 169.92 
L 398.9925 169.92 
L 399.69 169.92 
L 400.3875 169.92 
L 401.085 169.92 
L 401.7825 169.92 
L 402.48 169.92 
L 403.1775 169.92 
L 403.875 169.92 
L 404.5725 169.92 
L 405.27 169.92 
L 405.9675 169.92 
L 406.665 169.92 
L 407.3625 169.92 
L 408.06 169.92 
L 408.7575 169.92 
L 409.455 169.92 
L 410.1525 169.92 
L 410.85 169.92 
L 411.5475 169.92 
L 412.245 169.92 
L 412.9425 169.92 
L 413.64 169.92 
L 414.3375 169.92 
L 415.035 169.92 
L 415.7325 169.92 
L 416.43 169.92 
L 417.1275 169.92 
L 417.825 169.92 
L 418.5225 169.92 
L 419.22 169.92 
L 419.9175 169.92 
L 420.615 169.92 
L 421.3125 169.92 
L 422.01 169.92 
L 422.7075 169.92 
L 423.405 169.92 
L 424.1025 169.92 
L 424.8 169.92 
L 425.4975 169.92 
L 426.195 169.92 
L 426.8925 169.92 
L 427.59 169.92 
L 428.2875 169.92 
L 428.985 169.92 
L 429.6825 169.92 
L 430.38 169.92 
L 431.0775 169.92 
L 431.775 169.92 
L 432.4725 169.92 
L 433.17 169.92 
L 433.8675 169.92 
L 434.565 169.92 
L 435.2625 169.92 
L 435.96 169.92 
L 436.6575 169.92 
L 437.355 169.92 
L 438.0525 169.92 
L 438.75 169.92 
L 439.4475 169.92 
L 440.145 169.92 
L 440.8425 169.92 
L 441.54 169.92 
L 442.2375 169.92 
L 442.935 169.92 
L 443.6325 169.92 
L 444.33 169.92 
L 445.0275 169.92 
L 445.725 169.92 
L 446.4225 169.92 
L 447.12 169.92 
L 447.8175 169.92 
L 448.515 169.92 
L 449.2125 169.92 
L 449.91 169.92 
L 450.6075 169.92 
L 451.305 169.92 
L 452.0025 169.92 
L 452.7 169.92 
L 453.3975 169.92 
L 454.095 169.92 
L 454.7925 169.92 
L 455.49 169.92 
L 456.1875 169.92 
L 456.885 169.92 
L 457.5825 169.92 
L 458.28 169.92 
L 458.9775 169.92 
L 459.675 169.92 
L 460.3725 169.92 
L 461.07 169.92 
L 461.7675 169.92 
L 462.465 169.92 
L 463.1625 169.92 
L 463.86 169.92 
L 464.5575 169.92 
L 465.255 169.92 
L 465.9525 169.92 
L 466.65 169.92 
L 467.3475 169.92 
L 468.045 169.92 
L 468.7425 169.92 
L 469.44 169.92 
L 470.1375 169.92 
L 470.835 169.92 
L 471.5325 169.92 
L 472.23 169.92 
L 472.9275 169.92 
L 473.625 169.92 
L 474.3225 169.92 
L 475.02 169.92 
L 475.7175 169.92 
L 476.415 169.92 
L 477.1125 169.92 
L 477.81 169.92 
L 478.5075 169.92 
L 479.205 169.92 
L 479.9025 169.92 
L 480.6 169.92 
L 481.2975 169.92 
L 481.995 169.92 
L 482.6925 169.92 
L 483.39 169.92 
L 484.0875 169.92 
L 484.785 169.92 
L 485.4825 169.92 
L 486.18 169.92 
L 486.8775 169.92 
L 487.575 169.92 
L 488.2725 169.92 
L 488.97 169.92 
L 489.6675 169.92 
L 490.365 169.92 
L 491.0625 169.92 
L 491.76 169.92 
L 492.4575 169.92 
L 493.155 169.92 
L 493.8525 169.92 
L 494.55 169.92 
L 495.2475 169.92 
L 495.945 169.92 
L 496.6425 169.92 
L 497.34 169.92 
L 498.0375 169.92 
L 498.735 169.92 
L 499.4325 169.92 
L 500.13 169.92 
L 500.8275 169.92 
L 501.525 169.92 
L 502.2225 169.92 
L 502.92 169.92 
L 503.6175 169.92 
L 504.315 169.92 
L 505.0125 169.92 
L 505.71 169.92 
L 506.4075 169.92 
L 507.105 169.92 
L 507.8025 169.92 
L 508.5 169.92 
L 509.1975 169.92 
L 509.895 169.92 
L 510.5925 169.92 
L 511.29 169.92 
L 511.9875 169.92 
L 512.685 169.92 
L 513.3825 169.92 
L 514.08 169.92 
L 514.7775 169.92 
L 515.475 169.92 
L 516.1725 169.92 
L 516.87 169.92 
L 517.5675 169.92 
L 518.265 169.92 
L 518.9625 169.92 
L 519.66 169.92 
L 520.3575 169.92 
L 521.055 169.92 
L 521.7525 169.92 
L 522.45 169.92 
L 523.1475 169.92 
L 523.845 169.92 
L 524.5425 169.92 
L 525.24 169.92 
L 525.9375 169.92 
L 526.635 169.92 
L 527.3325 169.92 
L 528.03 169.92 
L 528.7275 169.92 
L 529.425 169.92 
L 530.1225 169.92 
L 530.82 169.92 
L 531.5175 169.92 
L 532.215 169.92 
L 532.9125 169.92 
L 533.61 169.92 
L 534.3075 169.92 
L 535.005 169.92 
L 535.7025 169.92 
L 536.4 169.92 
L 537.0975 169.92 
L 537.795 169.92 
L 538.4925 169.92 
L 539.19 169.92 
L 539.8875 169.92 
L 540.585 169.92 
L 541.2825 169.92 
L 541.98 169.92 
L 542.6775 169.92 
L 543.375 169.92 
L 544.0725 169.92 
L 544.77 169.92 
L 545.4675 169.92 
L 546.165 169.92 
L 546.8625 169.92 
L 547.56 169.92 
L 548.2575 169.92 
L 548.955 169.92 
L 549.6525 169.92 
L 550.35 169.92 
L 551.0475 169.92 
L 551.745 169.92 
L 552.4425 169.92 
L 553.14 169.92 
L 553.8375 169.92 
L 554.535 169.92 
L 555.2325 169.92 
L 555.93 169.92 
L 556.6275 169.92 
L 557.325 169.92 
L 558.0225 169.92 
L 558.72 169.92 
L 559.4175 169.92 
L 560.115 169.92 
L 560.8125 169.92 
L 561.51 169.92 
L 562.2075 169.92 
L 562.905 169.92 
L 563.6025 169.92 
L 564.3 169.92 
L 564.9975 169.92 
L 565.695 169.92 
L 566.3925 169.92 
L 567.09 169.92 
L 567.7875 169.92 
L 568.485 169.92 
L 569.1825 169.92 
L 569.88 169.92 
L 570.5775 169.92 
L 571.275 169.92 
L 571.9725 169.92 
L 572.67 169.92 
L 573.3675 169.92 
L 574.065 169.92 
L 574.7625 169.92 
L 575.46 169.92 
L 576.1575 169.92 
L 576.855 169.92 
L 577.5525 169.92 
L 578.25 169.92 
L 578.9475 169.92 
L 579.645 169.92 
L 580.3425 169.92 
L 581.04 169.92 
L 581.7375 169.92 
L 582.435 169.92 
L 583.1325 169.92 
L 583.83 169.92 
L 584.5275 169.92 
L 585.225 169.92 
L 585.9225 169.92 
L 586.62 169.92 
L 587.3175 169.92 
L 588.015 169.92 
L 588.7125 169.92 
L 589.41 169.92 
L 590.1075 169.92 
L 590.805 169.92 
L 591.5025 169.92 
L 592.2 169.92 
L 592.8975 169.92 
L 593.595 169.92 
L 594.2925 169.92 
L 594.99 169.92 
L 595.6875 169.92 
L 596.385 169.92 
L 597.0825 169.92 
L 597.78 169.92 
L 598.4775 169.92 
L 599.175 169.92 
L 599.8725 169.92 
L 600.57 169.92 
L 601.2675 169.92 
L 601.965 169.92 
L 602.6625 169.92 
L 603.36 169.92 
L 604.0575 169.92 
L 604.755 169.92 
L 605.4525 169.92 
L 606.15 169.92 
L 606.8475 169.92 
L 607.545 169.92 
L 608.2425 169.92 
L 608.94 169.92 
L 609.6375 169.92 
L 610.335 169.92 
L 611.0325 169.92 
L 611.73 169.92 
L 612.4275 169.92 
L 613.125 169.92 
L 613.8225 169.92 
L 614.52 169.92 
L 615.2175 169.92 
L 615.915 169.92 
L 616.6125 169.92 
L 617.31 169.92 
L 618.0075 169.92 
L 618.705 169.92 
L 619.4025 169.92 
L 620.1 169.92 
L 620.7975 169.92 
L 621.495 169.92 
L 622.1925 169.92 
L 622.89 169.92 
L 623.5875 169.92 
L 624.285 169.92 
L 624.9825 169.92 
L 625.68 169.92 
L 626.3775 169.92 
L 627.075 169.92 
L 627.7725 169.92 
L 628.47 169.92 
L 629.1675 169.92 
L 629.865 169.92 
L 630.5625 169.92 
L 631.26 169.92 
L 631.9575 169.92 
L 632.655 169.92 
L 633.3525 169.92 
L 634.05 169.92 
L 634.7475 169.92 
L 635.445 169.92 
L 636.1425 169.92 
L 636.84 169.92 
L 637.5375 169.92 
L 638.235 169.92 
L 638.9325 169.92 
L 639.63 169.92 
L 640.3275 169.92 
L 641.025 169.92 
L 641.7225 169.92 
L 642.42 169.92 
L 643.1175 169.92 
L 643.815 169.92 
L 644.5125 169.92 
L 645.21 169.92 
L 645.9075 169.92 
L 646.605 169.92 
L 646.605 169.92 
L 646.605 169.92 
L 645.9075 169.925422 
L 645.21 169.9381 
L 644.5125 169.959775 
L 643.815 169.992069 
L 643.1175 170.036465 
L 642.42 170.094287 
L 641.7225 170.166679 
L 641.025 170.254589 
L 640.3275 170.358756 
L 639.63 170.479694 
L 638.9325 170.617684 
L 638.235 170.772765 
L 637.5375 170.944729 
L 636.84 171.133116 
L 636.1425 171.337217 
L 635.445 171.556075 
L 634.7475 171.788487 
L 634.05 172.033019 
L 633.3525 172.288008 
L 632.655 172.551581 
L 631.9575 172.821665 
L 631.26 173.096009 
L 630.5625 173.372201 
L 629.865 173.64769 
L 629.1675 173.919809 
L 628.47 174.185799 
L 627.7725 174.442836 
L 627.075 174.68806 
L 626.3775 174.918596 
L 625.68 175.131592 
L 624.9825 175.324241 
L 624.285 175.493811 
L 623.5875 175.637676 
L 622.89 175.753341 
L 622.1925 175.838471 
L 621.495 175.890918 
L 620.7975 175.908743 
L 620.1 175.890242 
L 619.4025 175.833967 
L 618.705 175.738745 
L 618.0075 175.603696 
L 617.31 175.428246 
L 616.6125 175.212144 
L 615.915 174.955466 
L 615.2175 174.658627 
L 614.52 174.322381 
L 613.8225 173.947824 
L 613.125 173.536393 
L 612.4275 173.08986 
L 611.73 172.61032 
L 611.0325 172.10019 
L 610.335 171.562184 
L 609.6375 170.999303 
L 608.94 170.414813 
L 608.2425 169.812225 
L 607.545 169.195269 
L 606.8475 168.567867 
L 606.15 167.934105 
L 605.4525 167.298204 
L 604.755 166.664486 
L 604.0575 166.037342 
L 603.36 165.421198 
L 602.6625 164.82048 
L 601.965 164.239577 
L 601.2675 163.682809 
L 600.57 163.154389 
L 599.8725 162.65839 
L 599.175 162.19871 
L 598.4775 161.77904 
L 597.78 161.40283 
L 597.0825 161.073265 
L 596.385 160.793231 
L 595.6875 160.565291 
L 594.99 160.391664 
L 594.2925 160.2742 
L 593.595 160.214367 
L 592.8975 160.213232 
L 592.2 160.271449 
L 591.5025 160.389254 
L 590.805 160.566454 
L 590.1075 160.80243 
L 589.41 161.096135 
L 588.7125 161.446103 
L 588.015 161.850449 
L 587.3175 162.30689 
L 586.62 162.812753 
L 585.9225 163.364996 
L 585.225 163.960227 
L 584.5275 164.594731 
L 583.83 165.264493 
L 583.1325 165.965227 
L 582.435 166.692411 
L 581.7375 167.441317 
L 581.04 168.207045 
L 580.3425 168.984561 
L 579.645 169.768738 
L 578.9475 170.554387 
L 578.25 171.336301 
L 577.5525 172.109294 
L 576.855 172.868237 
L 576.1575 173.6081 
L 575.46 174.323989 
L 574.7625 175.011182 
L 574.065 175.665165 
L 573.3675 176.281666 
L 572.67 176.856687 
L 571.9725 177.386535 
L 571.275 177.867847 
L 570.5775 178.297616 
L 569.88 178.673216 
L 569.1825 178.992414 
L 568.485 179.253394 
L 567.7875 179.454763 
L 567.09 179.595563 
L 566.3925 179.675276 
L 565.695 179.693828 
L 564.9975 179.651585 
L 564.3 179.549348 
L 563.6025 179.388348 
L 562.905 179.170229 
L 562.2075 178.897041 
L 561.51 178.571212 
L 560.8125 178.195535 
L 560.115 177.773139 
L 559.4175 177.307467 
L 558.72 176.802243 
L 558.0225 176.261442 
L 557.325 175.689259 
L 556.6275 175.090073 
L 555.93 174.468411 
L 555.2325 173.828914 
L 554.535 173.176294 
L 553.8375 172.515304 
L 553.14 171.850693 
L 552.4425 171.187171 
L 551.745 170.529376 
L 551.0475 169.881832 
L 550.35 169.248916 
L 549.6525 168.634827 
L 548.955 168.043552 
L 548.2575 167.478837 
L 547.56 166.94416 
L 546.8625 166.442705 
L 546.165 165.977342 
L 545.4675 165.550604 
L 544.77 165.164676 
L 544.0725 164.821375 
L 543.375 164.522145 
L 542.6775 164.268048 
L 541.98 164.059764 
L 541.2825 163.897583 
L 540.585 163.781417 
L 539.8875 163.7108 
L 539.19 163.684902 
L 538.4925 163.702539 
L 537.795 163.762189 
L 537.0975 163.862009 
L 536.4 163.999861 
L 535.7025 164.17333 
L 535.005 164.379752 
L 534.3075 164.616241 
L 533.61 164.879719 
L 532.9125 165.166944 
L 532.215 165.474547 
L 531.5175 165.799059 
L 530.82 166.136949 
L 530.1225 166.484652 
L 529.425 166.838607 
L 528.7275 167.195291 
L 528.03 167.551245 
L 527.3325 167.903111 
L 526.635 168.247661 
L 525.9375 168.581827 
L 525.24 168.902722 
L 524.5425 169.207674 
L 523.845 169.494242 
L 523.1475 169.760239 
L 522.45 170.00375 
L 521.7525 170.223148 
L 521.055 170.417103 
L 520.3575 170.584595 
L 519.66 170.724919 
L 518.9625 170.837687 
L 518.265 170.922831 
L 517.5675 170.980598 
L 516.87 171.011544 
L 516.1725 171.016528 
L 515.475 170.996694 
L 514.7775 170.953465 
L 514.08 170.888519 
L 513.3825 170.803771 
L 512.685 170.701355 
L 511.9875 170.583593 
L 511.29 170.452978 
L 510.5925 170.312138 
L 509.895 170.163813 
L 509.1975 170.010825 
L 508.5 169.856044 
L 507.8025 169.702362 
L 507.105 169.552657 
L 506.4075 169.409767 
L 505.71 169.276454 
L 505.0125 169.155379 
L 504.315 169.049071 
L 503.6175 168.959898 
L 502.92 168.890045 
L 502.2225 168.841483 
L 501.525 168.815953 
L 500.8275 168.814944 
L 500.13 168.839672 
L 499.4325 168.89107 
L 498.735 168.96977 
L 498.0375 169.076099 
L 497.34 169.210067 
L 496.6425 169.371367 
L 495.945 169.559373 
L 495.2475 169.773144 
L 494.55 170.011426 
L 493.8525 170.272665 
L 493.155 170.555014 
L 492.4575 170.856353 
L 491.76 171.174301 
L 491.0625 171.506239 
L 490.365 171.84933 
L 489.6675 172.200546 
L 488.97 172.556693 
L 488.2725 172.91444 
L 487.575 173.270348 
L 486.8775 173.620901 
L 486.18 173.962541 
L 485.4825 174.291697 
L 484.785 174.60482 
L 484.0875 174.898419 
L 483.39 175.169091 
L 482.6925 175.413553 
L 481.995 175.628678 
L 481.2975 175.811523 
L 480.6 175.959361 
L 479.9025 176.069705 
L 479.205 176.14034 
L 478.5075 176.169341 
L 477.81 176.155099 
L 477.1125 176.096339 
L 476.415 175.992133 
L 475.7175 175.84192 
L 475.02 175.645511 
L 474.3225 175.403097 
L 473.625 175.115257 
L 472.9275 174.782952 
L 472.23 174.407529 
L 471.5325 173.990712 
L 470.835 173.534589 
L 470.1375 173.04161 
L 469.44 172.514559 
L 468.7425 171.956544 
L 468.045 171.370973 
L 467.3475 170.761528 
L 466.65 170.13214 
L 465.9525 169.486962 
L 465.255 168.830332 
L 464.5575 168.166746 
L 463.86 167.50082 
L 463.1625 166.837255 
L 462.465 166.180801 
L 461.7675 165.53622 
L 461.07 164.908245 
L 460.3725 164.301546 
L 459.675 163.72069 
L 458.9775 163.170107 
L 458.28 162.654049 
L 457.5825 162.176559 
L 456.885 161.741438 
L 456.1875 161.35221 
L 455.49 161.012097 
L 454.7925 160.723988 
L 454.095 160.490414 
L 453.3975 160.313532 
L 452.7 160.195099 
L 452.0025 160.13646 
L 451.305 160.138535 
L 450.6075 160.201806 
L 449.91 160.32632 
L 449.2125 160.511676 
L 448.515 160.757035 
L 447.8175 161.061117 
L 447.12 161.422217 
L 446.4225 161.838211 
L 445.725 162.306572 
L 445.0275 162.824392 
L 444.33 163.388396 
L 443.6325 163.994972 
L 442.935 164.640198 
L 442.2375 165.319866 
L 441.54 166.029517 
L 440.8425 166.764478 
L 440.145 167.519889 
L 439.4475 168.290746 
L 438.75 169.071938 
L 438.0525 169.858281 
L 437.355 170.644564 
L 436.6575 171.425581 
L 435.96 172.196178 
L 435.2625 172.951284 
L 434.565 173.685952 
L 433.8675 174.395397 
L 433.17 175.075031 
L 432.4725 175.720495 
L 431.775 176.327692 
L 431.0775 176.892815 
L 430.38 177.412377 
L 429.6825 177.883235 
L 428.985 178.302609 
L 428.2875 178.668103 
L 427.59 178.977722 
L 426.8925 179.229881 
L 426.195 179.423415 
L 425.4975 179.557587 
L 424.8 179.632088 
L 424.1025 179.647037 
L 423.405 179.602975 
L 422.7075 179.500859 
L 422.01 179.342048 
L 421.3125 179.128294 
L 420.615 178.861719 
L 419.9175 178.544798 
L 419.22 178.180334 
L 418.5225 177.771438 
L 417.825 177.321495 
L 417.1275 176.834139 
L 416.43 176.313219 
L 415.7325 175.76277 
L 415.035 175.186977 
L 414.3375 174.590139 
L 413.64 173.976638 
L 412.9425 173.350901 
L 412.245 172.717362 
L 411.5475 172.080434 
L 410.85 171.444468 
L 410.1525 170.813722 
L 409.455 170.192331 
L 408.7575 169.584272 
L 408.06 168.993337 
L 407.3625 168.423105 
L 406.665 167.876918 
L 405.9675 167.35786 
L 405.27 166.86873 
L 404.5725 166.412034 
L 403.875 165.989962 
L 403.1775 165.60438 
L 402.48 165.256822 
L 401.7825 164.948482 
L 401.085 164.680211 
L 400.3875 164.452521 
L 399.69 164.265582 
L 398.9925 164.119233 
L 398.295 164.012991 
L 397.5975 163.946058 
L 396.9 163.91734 
L 396.2025 163.925464 
L 395.505 163.968791 
L 394.8075 164.045446 
L 394.11 164.153332 
L 393.4125 164.290161 
L 392.715 164.453476 
L 392.0175 164.640682 
L 391.32 164.849069 
L 390.6225 165.075844 
L 389.925 165.318158 
L 389.2275 165.573136 
L 388.53 165.837906 
L 387.8325 166.109625 
L 387.135 166.385508 
L 386.4375 166.662854 
L 385.74 166.93907 
L 385.0425 167.211699 
L 384.345 167.478435 
L 383.6475 167.737149 
L 382.95 167.985904 
L 382.2525 168.222971 
L 381.555 168.446845 
L 380.8575 168.656252 
L 380.16 168.85016 
L 379.4625 169.027785 
L 378.765 169.188592 
L 378.0675 169.332298 
L 377.37 169.458869 
L 376.6725 169.568513 
L 375.975 169.661677 
L 375.2775 169.739033 
L 374.58 169.80147 
L 373.8825 169.850075 
L 373.185 169.886121 
L 372.4875 169.911045 
L 371.79 169.92643 
L 371.0925 169.933986 
L 370.395 169.935519 
L 369.6975 169.932919 
L 369 169.928124 
L 368.3025 169.923103 
L 367.605 169.919826 
L 366.9075 169.920241 
L 366.21 169.926248 
L 365.5125 169.939673 
L 364.815 169.962249 
L 364.1175 169.995584 
L 363.42 170.041149 
L 362.7225 170.100251 
L 362.025 170.174017 
L 361.3275 170.263378 
L 360.63 170.369051 
L 359.9325 170.491531 
L 359.235 170.631078 
L 358.5375 170.787706 
L 357.84 170.961185 
L 357.1425 171.151034 
L 356.445 171.35652 
L 355.7475 171.576663 
L 355.05 171.81024 
L 354.3525 172.055795 
L 353.655 172.311645 
L 352.9575 172.575897 
L 352.26 172.846464 
L 351.5625 173.121078 
L 350.865 173.397314 
L 350.1675 173.672608 
L 349.47 173.944285 
L 348.7725 174.209579 
L 348.075 174.465661 
L 347.3775 174.709667 
L 346.68 174.938727 
L 345.9825 175.149988 
L 345.285 175.34065 
L 344.5875 175.507991 
L 343.89 175.649393 
L 343.1925 175.762375 
L 342.495 175.84462 
L 341.7975 175.893996 
L 341.1 175.908585 
L 340.4025 175.886706 
L 339.705 175.826935 
L 339.0075 175.728124 
L 338.31 175.589421 
L 337.6125 175.410282 
L 336.915 175.190483 
L 336.2175 174.930132 
L 335.52 174.629674 
L 334.8225 174.289894 
L 334.125 173.911921 
L 333.4275 173.497221 
L 332.73 173.047595 
L 332.0325 172.56517 
L 331.335 172.052389 
L 330.6375 171.511993 
L 329.94 170.947009 
L 329.2425 170.360726 
L 328.545 169.756674 
L 327.8475 169.138604 
L 327.15 168.510452 
L 326.4525 167.87632 
L 325.755 167.240437 
L 325.0575 166.607135 
L 324.36 165.980808 
L 323.6625 165.365884 
L 322.965 164.766786 
L 322.2675 164.1879 
L 321.57 163.633537 
L 320.8725 163.107899 
L 320.175 162.615043 
L 319.4775 162.158851 
L 318.78 161.742993 
L 318.0825 161.370897 
L 317.385 161.04572 
L 316.6875 160.77032 
L 315.99 160.547232 
L 315.2925 160.378639 
L 314.595 160.26636 
L 313.8975 160.211826 
L 313.2 160.216065 
L 312.5025 160.279696 
L 311.805 160.402915 
L 311.1075 160.58549 
L 310.41 160.826764 
L 309.7125 161.125651 
L 309.015 161.480646 
L 308.3175 161.889829 
L 307.62 162.350879 
L 306.9225 162.861089 
L 306.225 163.417385 
L 305.5275 164.016345 
L 304.83 164.654224 
L 304.1325 165.326983 
L 303.435 166.030312 
L 302.7375 166.759669 
L 302.04 167.510308 
L 301.3425 168.277317 
L 300.645 169.055653 
L 299.9475 169.840178 
L 299.25 170.625703 
L 298.5525 171.40702 
L 297.855 172.178946 
L 297.1575 172.93636 
L 296.46 173.674244 
L 295.7625 174.387717 
L 295.065 175.072074 
L 294.3675 175.722822 
L 293.67 176.335713 
L 292.9725 176.906775 
L 292.275 177.432344 
L 291.5775 177.909089 
L 290.88 178.334037 
L 290.1825 178.704595 
L 289.485 179.018569 
L 288.7875 179.274181 
L 288.09 179.470077 
L 287.3925 179.605338 
L 286.695 179.679488 
L 285.9975 179.692491 
L 285.3 179.644754 
L 284.6025 179.537118 
L 283.905 179.370851 
L 283.2075 179.147636 
L 282.51 178.869556 
L 281.8125 178.539075 
L 281.115 178.159016 
L 280.4175 177.73254 
L 279.72 177.263114 
L 279.0225 176.754488 
L 278.325 176.210657 
L 277.6275 175.635836 
L 276.93 175.034418 
L 276.2325 174.410942 
L 275.535 173.770056 
L 274.8375 173.116479 
L 274.14 172.454963 
L 273.4425 171.790257 
L 272.745 171.127066 
L 272.0475 170.470018 
L 271.35 169.823625 
L 270.6525 169.19225 
L 269.955 168.580074 
L 269.2575 167.991062 
L 268.56 167.428938 
L 267.8625 166.897155 
L 267.165 166.398867 
L 266.4675 165.936916 
L 265.77 165.513804 
L 265.0725 165.131681 
L 264.375 164.792332 
L 263.6775 164.497167 
L 262.98 164.247213 
L 262.2825 164.043113 
L 261.585 163.885125 
L 260.8875 163.773125 
L 260.19 163.706613 
L 259.4925 163.684727 
L 258.795 163.706251 
L 258.0975 163.769633 
L 257.4 163.873004 
L 256.7025 164.014198 
L 256.005 164.190776 
L 255.3075 164.400054 
L 254.61 164.639126 
L 253.9125 164.904899 
L 253.215 165.194118 
L 252.5175 165.503402 
L 251.82 165.829277 
L 251.1225 166.168206 
L 250.425 166.516624 
L 249.7275 166.870973 
L 249.03 167.227732 
L 248.3325 167.583451 
L 247.635 167.934783 
L 246.9375 168.278514 
L 246.24 168.611589 
L 245.5425 168.931142 
L 244.845 169.23452 
L 244.1475 169.519304 
L 243.45 169.783332 
L 242.7525 170.024714 
L 242.055 170.241849 
L 241.3575 170.433436 
L 240.66 170.598483 
L 239.9625 170.736312 
L 239.265 170.846567 
L 238.5675 170.929208 
L 237.87 170.984509 
L 237.1725 171.013055 
L 236.475 171.015731 
L 235.7775 170.993708 
L 235.08 170.948431 
L 234.3825 170.881602 
L 233.685 170.795157 
L 232.9875 170.691247 
L 232.29 170.572212 
L 231.5925 170.440556 
L 230.895 170.298921 
L 230.1975 170.150055 
L 229.5 169.996784 
L 228.8025 169.841984 
L 228.105 169.688545 
L 227.4075 169.539343 
L 226.71 169.397211 
L 226.0125 169.264902 
L 225.315 169.145068 
L 224.6175 169.040222 
L 223.92 168.952718 
L 223.2225 168.884722 
L 222.525 168.838186 
L 221.8275 168.814828 
L 221.13 168.816112 
L 220.4325 168.843231 
L 219.735 168.897089 
L 219.0375 168.978292 
L 218.34 169.087138 
L 217.6425 169.223608 
L 216.945 169.387367 
L 216.2475 169.577759 
L 215.55 169.793815 
L 214.8525 170.034252 
L 214.155 170.29749 
L 213.4575 170.581658 
L 212.76 170.884609 
L 212.0625 171.20394 
L 211.365 171.537012 
L 210.6675 171.88097 
L 209.97 172.232768 
L 209.2725 172.589201 
L 208.575 172.946924 
L 207.8775 173.302491 
L 207.18 173.652382 
L 206.4825 173.993034 
L 205.785 174.320878 
L 205.0875 174.63237 
L 204.39 174.924024 
L 203.6925 175.192446 
L 202.995 175.434367 
L 202.2975 175.646676 
L 201.6 175.826448 
L 200.9025 175.970976 
L 200.205 176.077798 
L 199.5075 176.144723 
L 198.81 176.169855 
L 198.1125 176.151614 
L 197.415 176.088754 
L 196.7175 175.980384 
L 196.02 175.825974 
L 195.3225 175.625368 
L 194.625 175.378795 
L 193.9275 175.086867 
L 193.23 174.750581 
L 192.5325 174.371319 
L 191.835 173.950836 
L 191.1375 173.491257 
L 190.44 172.99506 
L 189.7425 172.465061 
L 189.045 171.904396 
L 188.3475 171.316498 
L 187.65 170.705074 
L 186.9525 170.074076 
L 186.255 169.427675 
L 185.5575 168.770225 
L 184.86 168.106234 
L 184.1625 167.440327 
L 183.465 166.777212 
L 182.7675 166.121641 
L 182.07 165.478374 
L 181.3725 164.852142 
L 180.675 164.247605 
L 179.9775 163.669321 
L 179.28 163.121704 
L 178.5825 162.608988 
L 177.885 162.135197 
L 177.1875 161.704107 
L 176.49 161.319216 
L 175.7925 160.983716 
L 175.095 160.700465 
L 174.3975 160.471962 
L 173.7 160.300327 
L 173.0025 160.187281 
L 172.305 160.13413 
L 171.6075 160.141754 
L 170.91 160.210598 
L 170.2125 160.340666 
L 169.515 160.531518 
L 168.8175 160.782274 
L 168.12 161.091617 
L 167.4225 161.457801 
L 166.725 161.878666 
L 166.0275 162.35165 
L 165.33 162.873808 
L 164.6325 163.441837 
L 163.935 164.052094 
L 163.2375 164.700628 
L 162.54 165.383209 
L 161.8425 166.095358 
L 161.145 166.832381 
L 160.4475 167.589405 
L 159.75 168.361414 
L 159.0525 169.143289 
L 158.355 169.929842 
L 157.6575 170.715861 
L 156.96 171.496143 
L 156.2625 172.26554 
L 155.565 173.018989 
L 154.8675 173.751559 
L 154.17 174.458481 
L 153.4725 175.135185 
L 152.775 175.777336 
L 152.0775 176.38086 
L 151.38 176.94198 
L 150.6825 177.457239 
L 149.985 177.923526 
L 149.2875 178.338095 
L 148.59 178.698586 
L 147.8925 179.003041 
L 147.195 179.249911 
L 146.4975 179.438073 
L 145.8 179.566827 
L 145.1025 179.635903 
L 144.405 179.645458 
L 143.7075 179.596073 
L 143.01 179.488741 
L 142.3125 179.324857 
L 141.615 179.106208 
L 140.9175 178.834949 
L 140.22 178.513584 
L 139.5225 178.144949 
L 138.825 177.732177 
L 138.1275 177.27868 
L 137.43 176.78811 
L 136.7325 176.264336 
L 136.035 175.711409 
L 135.3375 175.133523 
L 134.64 174.534989 
L 133.9425 173.920192 
L 133.245 173.293562 
L 132.5475 172.659534 
L 131.85 172.022514 
L 131.1525 171.386848 
L 130.455 170.756785 
L 129.7575 170.136444 
L 129.06 169.529788 
L 128.3625 168.94059 
L 127.665 168.372409 
L 126.9675 167.828566 
L 126.27 167.312117 
L 125.5725 166.825837 
L 124.875 166.372203 
L 124.1775 165.953375 
L 123.48 165.571192 
L 122.7825 165.227155 
L 122.085 164.922428 
L 121.3875 164.65783 
L 120.69 164.433843 
L 119.9925 164.250605 
L 119.295 164.107927 
L 118.5975 164.005296 
L 117.9 163.941887 
L 117.2025 163.916579 
L 116.505 163.927975 
L 115.8075 163.974413 
L 115.11 164.053996 
L 114.4125 164.164611 
L 113.715 164.303951 
L 113.0175 164.469548 
L 112.32 164.658793 
L 111.6225 164.868968 
L 110.925 165.097273 
L 110.2275 165.340858 
L 109.53 165.596845 
L 108.8325 165.862363 
L 108.135 166.134575 
L 107.4375 166.4107 
L 106.74 166.688049 
L 106.0425 166.964039 
L 105.345 167.236224 
L 104.6475 167.502316 
L 103.95 167.760202 
L 103.2525 168.007962 
L 102.555 168.243889 
L 101.8575 168.466497 
L 101.16 168.674534 
L 100.4625 168.866991 
L 99.765 169.043105 
L 99.0675 169.202365 
L 98.37 169.344511 
L 97.6725 169.469531 
L 96.975 169.577655 
L 96.2775 169.66935 
L 95.58 169.745311 
L 94.8825 169.806442 
L 94.185 169.853851 
L 93.4875 169.888823 
L 92.79 169.912813 
L 92.0925 169.927414 
L 91.395 169.934346 
L 90.6975 169.935425 
L 90 169.932544 
z
" style="fill:#e0ffff;"/>
   </g>
   <g id="line2d_19">
    <path clip-path="url(#p89c57d3309)" d="M 90 169.932544 
L 94.185 169.853851 
L 96.975 169.577655 
L 99.765 169.043105 
L 102.555 168.243889 
L 106.0425 166.964039 
L 111.6225 164.868968 
L 113.715 164.303951 
L 115.8075 163.974413 
L 117.9 163.941887 
L 119.295 164.107927 
L 120.69 164.433843 
L 122.085 164.922428 
L 124.1775 165.953375 
L 126.27 167.312117 
L 128.3625 168.94059 
L 131.85 172.022514 
L 136.035 175.711409 
L 138.1275 177.27868 
L 140.22 178.513584 
L 141.615 179.106208 
L 143.01 179.488741 
L 144.405 179.645458 
L 145.8 179.566827 
L 147.195 179.249911 
L 148.59 178.698586 
L 149.985 177.923526 
L 151.38 176.94198 
L 153.4725 175.135185 
L 155.565 173.018989 
L 163.935 164.052094 
L 166.0275 162.35165 
L 167.4225 161.457801 
L 168.8175 160.782274 
L 170.2125 160.340666 
L 171.6075 160.141754 
L 173.0025 160.187281 
L 174.3975 160.471962 
L 175.7925 160.983716 
L 177.1875 161.704107 
L 179.28 163.121704 
L 181.3725 164.852142 
L 184.86 168.106234 
L 188.3475 171.316498 
L 190.44 172.99506 
L 192.5325 174.371319 
L 193.9275 175.086867 
L 195.3225 175.625368 
L 196.7175 175.980384 
L 198.1125 176.151614 
L 199.5075 176.144723 
L 200.9025 175.970976 
L 202.995 175.434367 
L 205.0875 174.63237 
L 207.8775 173.302491 
L 213.4575 170.581658 
L 215.55 169.793815 
L 217.6425 169.223608 
L 219.735 168.897089 
L 221.8275 168.814828 
L 223.92 168.952718 
L 226.71 169.397211 
L 234.3825 170.881602 
L 236.475 171.015731 
L 238.5675 170.929208 
L 240.66 170.598483 
L 242.7525 170.024714 
L 244.845 169.23452 
L 247.635 167.934783 
L 253.215 165.194118 
L 255.3075 164.400054 
L 257.4 163.873004 
L 258.795 163.706251 
L 260.19 163.706613 
L 261.585 163.885125 
L 262.98 164.247213 
L 264.375 164.792332 
L 265.77 165.513804 
L 267.8625 166.897155 
L 269.955 168.580074 
L 272.745 171.127066 
L 277.6275 175.635836 
L 279.72 177.263114 
L 281.8125 178.539075 
L 283.2075 179.147636 
L 284.6025 179.537118 
L 285.9975 179.692491 
L 287.3925 179.605338 
L 288.7875 179.274181 
L 290.1825 178.704595 
L 291.5775 177.909089 
L 292.9725 176.906775 
L 295.065 175.072074 
L 297.1575 172.93636 
L 304.83 164.654224 
L 306.9225 162.861089 
L 308.3175 161.889829 
L 309.7125 161.125651 
L 311.1075 160.58549 
L 312.5025 160.279696 
L 313.8975 160.211826 
L 315.2925 160.378639 
L 316.6875 160.77032 
L 318.0825 161.370897 
L 319.4775 162.158851 
L 321.57 163.633537 
L 324.36 165.980808 
L 330.6375 171.511993 
L 332.73 173.047595 
L 334.8225 174.289894 
L 336.915 175.190483 
L 338.31 175.589421 
L 339.705 175.826935 
L 341.1 175.908585 
L 343.1925 175.762375 
L 345.285 175.34065 
L 348.075 174.465661 
L 357.84 170.961185 
L 360.63 170.369051 
L 363.42 170.041149 
L 366.9075 169.920241 
L 373.8825 169.850075 
L 376.6725 169.568513 
L 379.4625 169.027785 
L 382.2525 168.222971 
L 385.74 166.93907 
L 390.6225 165.075844 
L 392.715 164.453476 
L 394.8075 164.045446 
L 396.9 163.91734 
L 398.295 164.012991 
L 399.69 164.265582 
L 401.085 164.680211 
L 402.48 165.256822 
L 404.5725 166.412034 
L 406.665 167.876918 
L 409.455 170.192331 
L 416.43 176.313219 
L 418.5225 177.771438 
L 419.9175 178.544798 
L 421.3125 179.128294 
L 422.7075 179.500859 
L 424.1025 179.647037 
L 425.4975 179.557587 
L 426.8925 179.229881 
L 428.2875 178.668103 
L 429.6825 177.883235 
L 431.0775 176.892815 
L 433.17 175.075031 
L 435.2625 172.951284 
L 443.6325 163.994972 
L 445.725 162.306572 
L 447.12 161.422217 
L 448.515 160.757035 
L 449.91 160.32632 
L 451.305 160.138535 
L 452.7 160.195099 
L 454.095 160.490414 
L 455.49 161.012097 
L 456.885 161.741438 
L 458.9775 163.170107 
L 461.07 164.908245 
L 464.5575 168.166746 
L 468.045 171.370973 
L 470.1375 173.04161 
L 472.23 174.407529 
L 473.625 175.115257 
L 475.02 175.645511 
L 476.415 175.992133 
L 477.81 176.155099 
L 479.205 176.14034 
L 480.6 175.959361 
L 482.6925 175.413553 
L 484.785 174.60482 
L 487.575 173.270348 
L 492.4575 170.856353 
L 494.55 170.011426 
L 496.6425 169.371367 
L 498.735 168.96977 
L 500.8275 168.814944 
L 502.92 168.890045 
L 505.71 169.276454 
L 514.7775 170.953465 
L 516.87 171.011544 
L 518.9625 170.837687 
L 521.055 170.417103 
L 523.1475 169.760239 
L 525.9375 168.581827 
L 534.3075 164.616241 
L 536.4 163.999861 
L 537.795 163.762189 
L 539.19 163.684902 
L 540.585 163.781417 
L 541.98 164.059764 
L 543.375 164.522145 
L 544.77 165.164676 
L 546.8625 166.442705 
L 548.955 168.043552 
L 551.745 170.529376 
L 557.325 175.689259 
L 559.4175 177.307467 
L 561.51 178.571212 
L 562.905 179.170229 
L 564.3 179.549348 
L 565.695 179.693828 
L 567.09 179.595563 
L 568.485 179.253394 
L 569.88 178.673216 
L 571.275 177.867847 
L 572.67 176.856687 
L 574.7625 175.011182 
L 577.5525 172.109294 
L 583.83 165.264493 
L 585.9225 163.364996 
L 587.3175 162.30689 
L 588.7125 161.446103 
L 590.1075 160.80243 
L 591.5025 160.389254 
L 592.8975 160.213232 
L 594.2925 160.2742 
L 595.6875 160.565291 
L 597.0825 161.073265 
L 598.4775 161.77904 
L 600.57 163.154389 
L 602.6625 164.82048 
L 606.8475 168.567867 
L 610.335 171.562184 
L 612.4275 173.08986 
L 614.52 174.322381 
L 616.6125 175.212144 
L 618.0075 175.603696 
L 619.4025 175.833967 
L 620.7975 175.908743 
L 622.89 175.753341 
L 624.9825 175.324241 
L 627.7725 174.442836 
L 637.5375 170.944729 
L 640.3275 170.358756 
L 643.1175 170.036465 
L 646.605 169.92 
L 646.605 169.92 
" style="fill:none;stroke:#008080;stroke-linecap:round;stroke-width:1.75;"/>
   </g>
   <g id="patch_3">
    <path d="M 90 270.72 
L 90 69.12 
" style="fill:none;stroke:#262626;stroke-linecap:square;stroke-linejoin:miter;stroke-width:1.25;"/>
   </g>
   <g id="patch_4">
    <path d="M 90 270.72 
L 648 270.72 
" style="fill:none;stroke:#262626;stroke-linecap:square;stroke-linejoin:miter;stroke-width:1.25;"/>
   </g>
  </g>
  <g id="axes_2">
   <g id="patch_5">
    <path d="M 90 512.64 
L 648 512.64 
L 648 311.04 
L 90 311.04 
z
" style="fill:#ffffff;"/>
   </g>
   <g id="matplotlib.axis_3">
    <g id="xtick_10">
     <g id="line2d_20">
      <g>
       <use style="fill:#262626;stroke:#262626;" x="191.454545" xlink:href="#m26218f33f0" y="512.64"/>
      </g>
     </g>
     <g id="text_19">
      <!-- 200 -->
      <g style="fill:#262626;" transform="translate(183.113139 532.797812)scale(0.1 -0.1)">
       <use xlink:href="#ArialMT-32"/>
       <use x="55.615234" xlink:href="#ArialMT-30"/>
       <use x="111.230469" xlink:href="#ArialMT-30"/>
      </g>
     </g>
    </g>
    <g id="xtick_11">
     <g id="line2d_21">
      <g>
       <use style="fill:#262626;stroke:#262626;" x="304.181818" xlink:href="#m26218f33f0" y="512.64"/>
      </g>
     </g>
     <g id="text_20">
      <!-- 400 -->
      <g style="fill:#262626;" transform="translate(295.840412 532.797812)scale(0.1 -0.1)">
       <use xlink:href="#ArialMT-34"/>
       <use x="55.615234" xlink:href="#ArialMT-30"/>
       <use x="111.230469" xlink:href="#ArialMT-30"/>
      </g>
     </g>
    </g>
    <g id="xtick_12">
     <g id="line2d_22">
      <g>
       <use style="fill:#262626;stroke:#262626;" x="416.909091" xlink:href="#m26218f33f0" y="512.64"/>
      </g>
     </g>
     <g id="text_21">
      <!-- 600 -->
      <g style="fill:#262626;" transform="translate(408.567685 532.797812)scale(0.1 -0.1)">
       <use xlink:href="#ArialMT-36"/>
       <use x="55.615234" xlink:href="#ArialMT-30"/>
       <use x="111.230469" xlink:href="#ArialMT-30"/>
      </g>
     </g>
    </g>
    <g id="xtick_13">
     <g id="line2d_23">
      <g>
       <use style="fill:#262626;stroke:#262626;" x="529.636364" xlink:href="#m26218f33f0" y="512.64"/>
      </g>
     </g>
     <g id="text_22">
      <!-- 800 -->
      <g style="fill:#262626;" transform="translate(521.294957 532.797812)scale(0.1 -0.1)">
       <use xlink:href="#ArialMT-38"/>
       <use x="55.615234" xlink:href="#ArialMT-30"/>
       <use x="111.230469" xlink:href="#ArialMT-30"/>
      </g>
     </g>
    </g>
    <g id="xtick_14">
     <g id="line2d_24">
      <g>
       <use style="fill:#262626;stroke:#262626;" x="642.363636" xlink:href="#m26218f33f0" y="512.64"/>
      </g>
     </g>
     <g id="text_23">
      <!-- 1000 -->
      <g style="fill:#262626;" transform="translate(631.241761 532.797812)scale(0.1 -0.1)">
       <use xlink:href="#ArialMT-31"/>
       <use x="55.615234" xlink:href="#ArialMT-30"/>
       <use x="111.230469" xlink:href="#ArialMT-30"/>
       <use x="166.845703" xlink:href="#ArialMT-30"/>
      </g>
     </g>
    </g>
   </g>
   <g id="matplotlib.axis_4">
    <g id="ytick_10">
     <g id="line2d_25">
      <g>
       <use style="fill:#262626;stroke:#262626;" x="90" xlink:href="#mb58f13c81b" y="512.64"/>
      </g>
     </g>
     <g id="text_24">
      <!-- 0 -->
      <g style="fill:#262626;" transform="translate(71.439063 516.218906)scale(0.1 -0.1)">
       <use xlink:href="#ArialMT-30"/>
      </g>
     </g>
    </g>
    <g id="ytick_11">
     <g id="line2d_26">
      <g>
       <use style="fill:#262626;stroke:#262626;" x="90" xlink:href="#mb58f13c81b" y="487.44"/>
      </g>
     </g>
     <g id="text_25">
      <!-- 5 -->
      <g style="fill:#262626;" transform="translate(71.439063 491.018906)scale(0.1 -0.1)">
       <use xlink:href="#ArialMT-35"/>
      </g>
     </g>
    </g>
    <g id="ytick_12">
     <g id="line2d_27">
      <g>
       <use style="fill:#262626;stroke:#262626;" x="90" xlink:href="#mb58f13c81b" y="462.24"/>
      </g>
     </g>
     <g id="text_26">
      <!-- 10 -->
      <g style="fill:#262626;" transform="translate(65.878125 465.818906)scale(0.1 -0.1)">
       <use xlink:href="#ArialMT-31"/>
       <use x="55.615234" xlink:href="#ArialMT-30"/>
      </g>
     </g>
    </g>
    <g id="ytick_13">
     <g id="line2d_28">
      <g>
       <use style="fill:#262626;stroke:#262626;" x="90" xlink:href="#mb58f13c81b" y="437.04"/>
      </g>
     </g>
     <g id="text_27">
      <!-- 15 -->
      <g style="fill:#262626;" transform="translate(65.878125 440.618906)scale(0.1 -0.1)">
       <use xlink:href="#ArialMT-31"/>
       <use x="55.615234" xlink:href="#ArialMT-35"/>
      </g>
     </g>
    </g>
    <g id="ytick_14">
     <g id="line2d_29">
      <g>
       <use style="fill:#262626;stroke:#262626;" x="90" xlink:href="#mb58f13c81b" y="411.84"/>
      </g>
     </g>
     <g id="text_28">
      <!-- 20 -->
      <g style="fill:#262626;" transform="translate(65.878125 415.418906)scale(0.1 -0.1)">
       <use xlink:href="#ArialMT-32"/>
       <use x="55.615234" xlink:href="#ArialMT-30"/>
      </g>
     </g>
    </g>
    <g id="ytick_15">
     <g id="line2d_30">
      <g>
       <use style="fill:#262626;stroke:#262626;" x="90" xlink:href="#mb58f13c81b" y="386.64"/>
      </g>
     </g>
     <g id="text_29">
      <!-- 25 -->
      <g style="fill:#262626;" transform="translate(65.878125 390.218906)scale(0.1 -0.1)">
       <use xlink:href="#ArialMT-32"/>
       <use x="55.615234" xlink:href="#ArialMT-35"/>
      </g>
     </g>
    </g>
    <g id="ytick_16">
     <g id="line2d_31">
      <g>
       <use style="fill:#262626;stroke:#262626;" x="90" xlink:href="#mb58f13c81b" y="361.44"/>
      </g>
     </g>
     <g id="text_30">
      <!-- 30 -->
      <g style="fill:#262626;" transform="translate(65.878125 365.018906)scale(0.1 -0.1)">
       <use xlink:href="#ArialMT-33"/>
       <use x="55.615234" xlink:href="#ArialMT-30"/>
      </g>
     </g>
    </g>
    <g id="ytick_17">
     <g id="line2d_32">
      <g>
       <use style="fill:#262626;stroke:#262626;" x="90" xlink:href="#mb58f13c81b" y="336.24"/>
      </g>
     </g>
     <g id="text_31">
      <!-- 35 -->
      <g style="fill:#262626;" transform="translate(65.878125 339.818906)scale(0.1 -0.1)">
       <use xlink:href="#ArialMT-33"/>
       <use x="55.615234" xlink:href="#ArialMT-35"/>
      </g>
     </g>
    </g>
    <g id="ytick_18">
     <g id="line2d_33">
      <g>
       <use style="fill:#262626;stroke:#262626;" x="90" xlink:href="#mb58f13c81b" y="311.04"/>
      </g>
     </g>
     <g id="text_32">
      <!-- 40 -->
      <g style="fill:#262626;" transform="translate(65.878125 314.618906)scale(0.1 -0.1)">
       <use xlink:href="#ArialMT-34"/>
       <use x="55.615234" xlink:href="#ArialMT-30"/>
      </g>
     </g>
    </g>
   </g>
   <g id="line2d_34">
    <path clip-path="url(#p7b30d7dd02)" d="M 90 488.562059 
L 95.636364 492.871917 
L 101.272727 491.915277 
L 106.909091 490.291312 
L 112.545455 492.192009 
L 118.181818 490.692663 
L 123.818182 490.203121 
L 129.454545 491.968658 
L 135.090909 490.163889 
L 140.727273 490.392837 
L 146.363636 490.241829 
L 152 489.156296 
L 157.636364 490.240305 
L 163.272727 490.645166 
L 168.909091 488.187222 
L 174.545455 488.633986 
L 180.181818 487.313077 
L 185.818182 487.018973 
L 191.454545 487.338343 
L 197.090909 486.121391 
L 202.727273 487.201243 
L 208.363636 484.042031 
L 214 483.157918 
L 219.636364 483.169266 
L 225.272727 482.846357 
L 230.909091 480.992047 
L 236.545455 479.145187 
L 242.181818 476.443916 
L 247.818182 475.314111 
L 253.454545 475.654125 
L 259.090909 473.305387 
L 264.727273 469.316541 
L 270.363636 463.226508 
L 276 459.185057 
L 281.636364 457.614718 
L 287.272727 454.794335 
L 292.909091 445.504843 
L 298.545455 423.732573 
L 304.181818 397.596726 
L 309.818182 374.961344 
L 315.454545 359.936381 
L 321.090909 350.604229 
L 326.727273 348.320806 
L 332.363636 355.280194 
L 338 371.866917 
L 343.636364 395.340341 
L 349.272727 419.997954 
L 354.909091 443.187999 
L 360.545455 460.277658 
L 366.181818 467.98198 
L 371.818182 471.852273 
L 377.454545 475.259843 
L 383.090909 478.489151 
L 388.727273 479.074231 
" style="fill:none;stroke:#b22222;stroke-linecap:round;stroke-width:1.75;"/>
   </g>
   <g id="patch_6">
    <path d="M 90 512.64 
L 90 311.04 
" style="fill:none;stroke:#262626;stroke-linecap:square;stroke-linejoin:miter;stroke-width:1.25;"/>
   </g>
   <g id="patch_7">
    <path d="M 90 512.64 
L 648 512.64 
" style="fill:none;stroke:#262626;stroke-linecap:square;stroke-linejoin:miter;stroke-width:1.25;"/>
   </g>
   <g id="text_33">
    <!-- f = 550 Hz -->
    <defs>
     <path d="M 8.6875 0 
L 8.6875 45.015625 
L 0.921875 45.015625 
L 0.921875 51.859375 
L 8.6875 51.859375 
L 8.6875 57.375 
Q 8.6875 62.59375 9.625 65.140625 
Q 10.890625 68.5625 14.078125 70.671875 
Q 17.28125 72.796875 23.046875 72.796875 
Q 26.765625 72.796875 31.25 71.921875 
L 29.9375 64.265625 
Q 27.203125 64.75 24.75 64.75 
Q 20.75 64.75 19.09375 63.03125 
Q 17.4375 61.328125 17.4375 56.640625 
L 17.4375 51.859375 
L 27.546875 51.859375 
L 27.546875 45.015625 
L 17.4375 45.015625 
L 17.4375 0 
z
" id="ArialMT-66"/>
     <path id="ArialMT-20"/>
     <path d="M 52.828125 42.09375 
L 5.5625 42.09375 
L 5.5625 50.296875 
L 52.828125 50.296875 
z
M 52.828125 20.359375 
L 5.5625 20.359375 
L 5.5625 28.5625 
L 52.828125 28.5625 
z
" id="ArialMT-3d"/>
     <path d="M 8.015625 0 
L 8.015625 71.578125 
L 17.484375 71.578125 
L 17.484375 42.1875 
L 54.6875 42.1875 
L 54.6875 71.578125 
L 64.15625 71.578125 
L 64.15625 0 
L 54.6875 0 
L 54.6875 33.734375 
L 17.484375 33.734375 
L 17.484375 0 
z
" id="ArialMT-48"/>
     <path d="M 1.953125 0 
L 1.953125 7.125 
L 34.96875 45.015625 
Q 29.34375 44.734375 25.046875 44.734375 
L 3.90625 44.734375 
L 3.90625 51.859375 
L 46.296875 51.859375 
L 46.296875 46.046875 
L 18.21875 13.140625 
L 12.796875 7.125 
Q 18.703125 7.5625 23.875 7.5625 
L 47.859375 7.5625 
L 47.859375 0 
z
" id="ArialMT-7a"/>
    </defs>
    <g style="fill:#262626;" transform="translate(529.636364 364.542187)scale(0.12 -0.12)">
     <use xlink:href="#ArialMT-66"/>
     <use x="27.783203" xlink:href="#ArialMT-20"/>
     <use x="55.566406" xlink:href="#ArialMT-3d"/>
     <use x="113.964844" xlink:href="#ArialMT-20"/>
     <use x="141.748047" xlink:href="#ArialMT-35"/>
     <use x="197.363281" xlink:href="#ArialMT-35"/>
     <use x="252.978516" xlink:href="#ArialMT-30"/>
     <use x="308.59375" xlink:href="#ArialMT-20"/>
     <use x="336.376953" xlink:href="#ArialMT-48"/>
     <use x="408.59375" xlink:href="#ArialMT-7a"/>
    </g>
   </g>
   <g id="PathCollection_1">
    <defs>
     <path d="M 0 3.5 
C 0.928211 3.5 1.81853 3.131218 2.474874 2.474874 
C 3.131218 1.81853 3.5 0.928211 3.5 0 
C 3.5 -0.928211 3.131218 -1.81853 2.474874 -2.474874 
C 1.81853 -3.131218 0.928211 -3.5 0 -3.5 
C -0.928211 -3.5 -1.81853 -3.131218 -2.474874 -2.474874 
C -3.131218 -1.81853 -3.5 -0.928211 -3.5 0 
C -3.5 0.928211 -3.131218 1.81853 -2.474874 2.474874 
C -1.81853 3.131218 -0.928211 3.5 0 3.5 
z
" id="m0c15d60eb4" style="stroke:#800000;stroke-width:0.3;"/>
    </defs>
    <g clip-path="url(#p7b30d7dd02)">
     <use style="fill:#800000;stroke:#800000;stroke-width:0.3;" x="388.727273" xlink:href="#m0c15d60eb4" y="479.074231"/>
    </g>
   </g>
  </g>
 </g>
 <defs>
  <clipPath id="p89c57d3309">
   <rect height="201.6" width="558" x="90" y="69.12"/>
  </clipPath>
  <clipPath id="p7b30d7dd02">
   <rect height="201.6" width="558" x="90" y="311.04"/>
  </clipPath>
 </defs>
</svg>
