<?xml version="1.0" encoding="utf-8" standalone="no"?>
<!DOCTYPE svg PUBLIC "-//W3C//DTD SVG 1.1//EN"
  "http://www.w3.org/Graphics/SVG/1.1/DTD/svg11.dtd">
<!-- Created with matplotlib (http://matplotlib.org/) -->
<svg height="576pt" version="1.1" viewBox="0 0 720 576" width="720pt" xmlns="http://www.w3.org/2000/svg" xmlns:xlink="http://www.w3.org/1999/xlink">
 <defs>
  <style type="text/css">
*{stroke-linecap:butt;stroke-linejoin:round;}
  </style>
 </defs>
 <g id="figure_1">
  <g id="patch_1">
   <path d="M 0 576 
L 720 576 
L 720 0 
L 0 0 
z
" style="fill:#ffffff;"/>
  </g>
  <g id="axes_1">
   <g id="patch_2">
    <path d="M 90 270.72 
L 648 270.72 
L 648 69.12 
L 90 69.12 
z
" style="fill:#ffffff;"/>
   </g>
   <g id="matplotlib.axis_1">
    <g id="xtick_1">
     <g id="line2d_1">
      <defs>
       <path d="M 0 0 
L 0 6 
" id="m613b0c0c9d" style="stroke:#262626;"/>
      </defs>
      <g>
       <use style="fill:#262626;stroke:#262626;" x="90" xlink:href="#m613b0c0c9d" y="270.72"/>
      </g>
     </g>
     <g id="text_1">
      <!-- 0 -->
      <defs>
       <path d="M 4.15625 35.296875 
Q 4.15625 48 6.765625 55.734375 
Q 9.375 63.484375 14.515625 67.671875 
Q 19.671875 71.875 27.484375 71.875 
Q 33.25 71.875 37.59375 69.546875 
Q 41.9375 67.234375 44.765625 62.859375 
Q 47.609375 58.5 49.21875 52.21875 
Q 50.828125 45.953125 50.828125 35.296875 
Q 50.828125 22.703125 48.234375 14.96875 
Q 45.65625 7.234375 40.5 3 
Q 35.359375 -1.21875 27.484375 -1.21875 
Q 17.140625 -1.21875 11.234375 6.203125 
Q 4.15625 15.140625 4.15625 35.296875 
z
M 13.1875 35.296875 
Q 13.1875 17.671875 17.3125 11.828125 
Q 21.4375 6 27.484375 6 
Q 33.546875 6 37.671875 11.859375 
Q 41.796875 17.71875 41.796875 35.296875 
Q 41.796875 52.984375 37.671875 58.78125 
Q 33.546875 64.59375 27.390625 64.59375 
Q 21.34375 64.59375 17.71875 59.46875 
Q 13.1875 52.9375 13.1875 35.296875 
z
" id="ArialMT-30"/>
      </defs>
      <g style="fill:#262626;" transform="translate(87.219531 290.877812)scale(0.1 -0.1)">
       <use xlink:href="#ArialMT-30"/>
      </g>
     </g>
    </g>
    <g id="xtick_2">
     <g id="line2d_2">
      <g>
       <use style="fill:#262626;stroke:#262626;" x="159.75" xlink:href="#m613b0c0c9d" y="270.72"/>
      </g>
     </g>
     <g id="text_2">
      <!-- 100 -->
      <defs>
       <path d="M 37.25 0 
L 28.46875 0 
L 28.46875 56 
Q 25.296875 52.984375 20.140625 49.953125 
Q 14.984375 46.921875 10.890625 45.40625 
L 10.890625 53.90625 
Q 18.265625 57.375 23.78125 62.296875 
Q 29.296875 67.234375 31.59375 71.875 
L 37.25 71.875 
z
" id="ArialMT-31"/>
      </defs>
      <g style="fill:#262626;" transform="translate(151.408594 290.877812)scale(0.1 -0.1)">
       <use xlink:href="#ArialMT-31"/>
       <use x="55.615234" xlink:href="#ArialMT-30"/>
       <use x="111.230469" xlink:href="#ArialMT-30"/>
      </g>
     </g>
    </g>
    <g id="xtick_3">
     <g id="line2d_3">
      <g>
       <use style="fill:#262626;stroke:#262626;" x="229.5" xlink:href="#m613b0c0c9d" y="270.72"/>
      </g>
     </g>
     <g id="text_3">
      <!-- 200 -->
      <defs>
       <path d="M 50.34375 8.453125 
L 50.34375 0 
L 3.03125 0 
Q 2.9375 3.171875 4.046875 6.109375 
Q 5.859375 10.9375 9.828125 15.625 
Q 13.8125 20.3125 21.34375 26.46875 
Q 33.015625 36.03125 37.109375 41.625 
Q 41.21875 47.21875 41.21875 52.203125 
Q 41.21875 57.421875 37.46875 61 
Q 33.734375 64.59375 27.734375 64.59375 
Q 21.390625 64.59375 17.578125 60.78125 
Q 13.765625 56.984375 13.71875 50.25 
L 4.6875 51.171875 
Q 5.609375 61.28125 11.65625 66.578125 
Q 17.71875 71.875 27.9375 71.875 
Q 38.234375 71.875 44.234375 66.15625 
Q 50.25 60.453125 50.25 52 
Q 50.25 47.703125 48.484375 43.546875 
Q 46.734375 39.40625 42.65625 34.8125 
Q 38.578125 30.21875 29.109375 22.21875 
Q 21.1875 15.578125 18.9375 13.203125 
Q 16.703125 10.84375 15.234375 8.453125 
z
" id="ArialMT-32"/>
      </defs>
      <g style="fill:#262626;" transform="translate(221.158594 290.877812)scale(0.1 -0.1)">
       <use xlink:href="#ArialMT-32"/>
       <use x="55.615234" xlink:href="#ArialMT-30"/>
       <use x="111.230469" xlink:href="#ArialMT-30"/>
      </g>
     </g>
    </g>
    <g id="xtick_4">
     <g id="line2d_4">
      <g>
       <use style="fill:#262626;stroke:#262626;" x="299.25" xlink:href="#m613b0c0c9d" y="270.72"/>
      </g>
     </g>
     <g id="text_4">
      <!-- 300 -->
      <defs>
       <path d="M 4.203125 18.890625 
L 12.984375 20.0625 
Q 14.5 12.59375 18.140625 9.296875 
Q 21.78125 6 27 6 
Q 33.203125 6 37.46875 10.296875 
Q 41.75 14.59375 41.75 20.953125 
Q 41.75 27 37.796875 30.921875 
Q 33.84375 34.859375 27.734375 34.859375 
Q 25.25 34.859375 21.53125 33.890625 
L 22.515625 41.609375 
Q 23.390625 41.5 23.921875 41.5 
Q 29.546875 41.5 34.03125 44.421875 
Q 38.53125 47.359375 38.53125 53.46875 
Q 38.53125 58.296875 35.25 61.46875 
Q 31.984375 64.65625 26.8125 64.65625 
Q 21.6875 64.65625 18.265625 61.421875 
Q 14.84375 58.203125 13.875 51.765625 
L 5.078125 53.328125 
Q 6.6875 62.15625 12.390625 67.015625 
Q 18.109375 71.875 26.609375 71.875 
Q 32.46875 71.875 37.390625 69.359375 
Q 42.328125 66.84375 44.9375 62.5 
Q 47.5625 58.15625 47.5625 53.265625 
Q 47.5625 48.640625 45.0625 44.828125 
Q 42.578125 41.015625 37.703125 38.765625 
Q 44.046875 37.3125 47.5625 32.6875 
Q 51.078125 28.078125 51.078125 21.140625 
Q 51.078125 11.765625 44.234375 5.25 
Q 37.40625 -1.265625 26.953125 -1.265625 
Q 17.53125 -1.265625 11.296875 4.34375 
Q 5.078125 9.96875 4.203125 18.890625 
z
" id="ArialMT-33"/>
      </defs>
      <g style="fill:#262626;" transform="translate(290.908594 290.877812)scale(0.1 -0.1)">
       <use xlink:href="#ArialMT-33"/>
       <use x="55.615234" xlink:href="#ArialMT-30"/>
       <use x="111.230469" xlink:href="#ArialMT-30"/>
      </g>
     </g>
    </g>
    <g id="xtick_5">
     <g id="line2d_5">
      <g>
       <use style="fill:#262626;stroke:#262626;" x="369" xlink:href="#m613b0c0c9d" y="270.72"/>
      </g>
     </g>
     <g id="text_5">
      <!-- 400 -->
      <defs>
       <path d="M 32.328125 0 
L 32.328125 17.140625 
L 1.265625 17.140625 
L 1.265625 25.203125 
L 33.9375 71.578125 
L 41.109375 71.578125 
L 41.109375 25.203125 
L 50.78125 25.203125 
L 50.78125 17.140625 
L 41.109375 17.140625 
L 41.109375 0 
z
M 32.328125 25.203125 
L 32.328125 57.46875 
L 9.90625 25.203125 
z
" id="ArialMT-34"/>
      </defs>
      <g style="fill:#262626;" transform="translate(360.658594 290.877812)scale(0.1 -0.1)">
       <use xlink:href="#ArialMT-34"/>
       <use x="55.615234" xlink:href="#ArialMT-30"/>
       <use x="111.230469" xlink:href="#ArialMT-30"/>
      </g>
     </g>
    </g>
    <g id="xtick_6">
     <g id="line2d_6">
      <g>
       <use style="fill:#262626;stroke:#262626;" x="438.75" xlink:href="#m613b0c0c9d" y="270.72"/>
      </g>
     </g>
     <g id="text_6">
      <!-- 500 -->
      <defs>
       <path d="M 4.15625 18.75 
L 13.375 19.53125 
Q 14.40625 12.796875 18.140625 9.390625 
Q 21.875 6 27.15625 6 
Q 33.5 6 37.890625 10.78125 
Q 42.28125 15.578125 42.28125 23.484375 
Q 42.28125 31 38.0625 35.34375 
Q 33.84375 39.703125 27 39.703125 
Q 22.75 39.703125 19.328125 37.765625 
Q 15.921875 35.84375 13.96875 32.765625 
L 5.71875 33.84375 
L 12.640625 70.609375 
L 48.25 70.609375 
L 48.25 62.203125 
L 19.671875 62.203125 
L 15.828125 42.96875 
Q 22.265625 47.46875 29.34375 47.46875 
Q 38.71875 47.46875 45.15625 40.96875 
Q 51.609375 34.46875 51.609375 24.265625 
Q 51.609375 14.546875 45.953125 7.46875 
Q 39.0625 -1.21875 27.15625 -1.21875 
Q 17.390625 -1.21875 11.203125 4.25 
Q 5.03125 9.71875 4.15625 18.75 
z
" id="ArialMT-35"/>
      </defs>
      <g style="fill:#262626;" transform="translate(430.408594 290.877812)scale(0.1 -0.1)">
       <use xlink:href="#ArialMT-35"/>
       <use x="55.615234" xlink:href="#ArialMT-30"/>
       <use x="111.230469" xlink:href="#ArialMT-30"/>
      </g>
     </g>
    </g>
    <g id="xtick_7">
     <g id="line2d_7">
      <g>
       <use style="fill:#262626;stroke:#262626;" x="508.5" xlink:href="#m613b0c0c9d" y="270.72"/>
      </g>
     </g>
     <g id="text_7">
      <!-- 600 -->
      <defs>
       <path d="M 49.75 54.046875 
L 41.015625 53.375 
Q 39.84375 58.546875 37.703125 60.890625 
Q 34.125 64.65625 28.90625 64.65625 
Q 24.703125 64.65625 21.53125 62.3125 
Q 17.390625 59.28125 14.984375 53.46875 
Q 12.59375 47.65625 12.5 36.921875 
Q 15.671875 41.75 20.265625 44.09375 
Q 24.859375 46.4375 29.890625 46.4375 
Q 38.671875 46.4375 44.84375 39.96875 
Q 51.03125 33.5 51.03125 23.25 
Q 51.03125 16.5 48.125 10.71875 
Q 45.21875 4.9375 40.140625 1.859375 
Q 35.0625 -1.21875 28.609375 -1.21875 
Q 17.625 -1.21875 10.6875 6.859375 
Q 3.765625 14.9375 3.765625 33.5 
Q 3.765625 54.25 11.421875 63.671875 
Q 18.109375 71.875 29.4375 71.875 
Q 37.890625 71.875 43.28125 67.140625 
Q 48.6875 62.40625 49.75 54.046875 
z
M 13.875 23.1875 
Q 13.875 18.65625 15.796875 14.5 
Q 17.71875 10.359375 21.1875 8.171875 
Q 24.65625 6 28.46875 6 
Q 34.03125 6 38.03125 10.484375 
Q 42.046875 14.984375 42.046875 22.703125 
Q 42.046875 30.125 38.078125 34.390625 
Q 34.125 38.671875 28.125 38.671875 
Q 22.171875 38.671875 18.015625 34.390625 
Q 13.875 30.125 13.875 23.1875 
z
" id="ArialMT-36"/>
      </defs>
      <g style="fill:#262626;" transform="translate(500.158594 290.877812)scale(0.1 -0.1)">
       <use xlink:href="#ArialMT-36"/>
       <use x="55.615234" xlink:href="#ArialMT-30"/>
       <use x="111.230469" xlink:href="#ArialMT-30"/>
      </g>
     </g>
    </g>
    <g id="xtick_8">
     <g id="line2d_8">
      <g>
       <use style="fill:#262626;stroke:#262626;" x="578.25" xlink:href="#m613b0c0c9d" y="270.72"/>
      </g>
     </g>
     <g id="text_8">
      <!-- 700 -->
      <defs>
       <path d="M 4.734375 62.203125 
L 4.734375 70.65625 
L 51.078125 70.65625 
L 51.078125 63.8125 
Q 44.234375 56.546875 37.515625 44.484375 
Q 30.8125 32.421875 27.15625 19.671875 
Q 24.515625 10.6875 23.78125 0 
L 14.75 0 
Q 14.890625 8.453125 18.0625 20.40625 
Q 21.234375 32.375 27.171875 43.484375 
Q 33.109375 54.59375 39.796875 62.203125 
z
" id="ArialMT-37"/>
      </defs>
      <g style="fill:#262626;" transform="translate(569.908594 290.877812)scale(0.1 -0.1)">
       <use xlink:href="#ArialMT-37"/>
       <use x="55.615234" xlink:href="#ArialMT-30"/>
       <use x="111.230469" xlink:href="#ArialMT-30"/>
      </g>
     </g>
    </g>
    <g id="xtick_9">
     <g id="line2d_9">
      <g>
       <use style="fill:#262626;stroke:#262626;" x="648" xlink:href="#m613b0c0c9d" y="270.72"/>
      </g>
     </g>
     <g id="text_9">
      <!-- 800 -->
      <defs>
       <path d="M 17.671875 38.8125 
Q 12.203125 40.828125 9.5625 44.53125 
Q 6.9375 48.25 6.9375 53.421875 
Q 6.9375 61.234375 12.546875 66.546875 
Q 18.171875 71.875 27.484375 71.875 
Q 36.859375 71.875 42.578125 66.421875 
Q 48.296875 60.984375 48.296875 53.171875 
Q 48.296875 48.1875 45.671875 44.5 
Q 43.0625 40.828125 37.75 38.8125 
Q 44.34375 36.671875 47.78125 31.875 
Q 51.21875 27.09375 51.21875 20.453125 
Q 51.21875 11.28125 44.71875 5.03125 
Q 38.234375 -1.21875 27.640625 -1.21875 
Q 17.046875 -1.21875 10.546875 5.046875 
Q 4.046875 11.328125 4.046875 20.703125 
Q 4.046875 27.6875 7.59375 32.390625 
Q 11.140625 37.109375 17.671875 38.8125 
z
M 15.921875 53.71875 
Q 15.921875 48.640625 19.1875 45.40625 
Q 22.46875 42.1875 27.6875 42.1875 
Q 32.765625 42.1875 36.015625 45.375 
Q 39.265625 48.578125 39.265625 53.21875 
Q 39.265625 58.0625 35.90625 61.359375 
Q 32.5625 64.65625 27.59375 64.65625 
Q 22.5625 64.65625 19.234375 61.421875 
Q 15.921875 58.203125 15.921875 53.71875 
z
M 13.09375 20.65625 
Q 13.09375 16.890625 14.875 13.375 
Q 16.65625 9.859375 20.171875 7.921875 
Q 23.6875 6 27.734375 6 
Q 34.03125 6 38.125 10.046875 
Q 42.234375 14.109375 42.234375 20.359375 
Q 42.234375 26.703125 38.015625 30.859375 
Q 33.796875 35.015625 27.4375 35.015625 
Q 21.234375 35.015625 17.15625 30.90625 
Q 13.09375 26.8125 13.09375 20.65625 
z
" id="ArialMT-38"/>
      </defs>
      <g style="fill:#262626;" transform="translate(639.658594 290.877812)scale(0.1 -0.1)">
       <use xlink:href="#ArialMT-38"/>
       <use x="55.615234" xlink:href="#ArialMT-30"/>
       <use x="111.230469" xlink:href="#ArialMT-30"/>
      </g>
     </g>
    </g>
   </g>
   <g id="matplotlib.axis_2">
    <g id="ytick_1">
     <g id="line2d_10">
      <defs>
       <path d="M 0 0 
L -6 0 
" id="m8018970de0" style="stroke:#262626;"/>
      </defs>
      <g>
       <use style="fill:#262626;stroke:#262626;" x="90" xlink:href="#m8018970de0" y="270.72"/>
      </g>
     </g>
     <g id="text_10">
      <!-- −0.20 -->
      <defs>
       <path d="M 52.828125 31.203125 
L 5.5625 31.203125 
L 5.5625 39.40625 
L 52.828125 39.40625 
z
" id="ArialMT-2212"/>
       <path d="M 9.078125 0 
L 9.078125 10.015625 
L 19.09375 10.015625 
L 19.09375 0 
z
" id="ArialMT-2e"/>
      </defs>
      <g style="fill:#262626;" transform="translate(51.698437 274.298906)scale(0.1 -0.1)">
       <use xlink:href="#ArialMT-2212"/>
       <use x="58.398438" xlink:href="#ArialMT-30"/>
       <use x="114.013672" xlink:href="#ArialMT-2e"/>
       <use x="141.796875" xlink:href="#ArialMT-32"/>
       <use x="197.412109" xlink:href="#ArialMT-30"/>
      </g>
     </g>
    </g>
    <g id="ytick_2">
     <g id="line2d_11">
      <g>
       <use style="fill:#262626;stroke:#262626;" x="90" xlink:href="#m8018970de0" y="245.52"/>
      </g>
     </g>
     <g id="text_11">
      <!-- −0.15 -->
      <g style="fill:#262626;" transform="translate(51.698437 249.098906)scale(0.1 -0.1)">
       <use xlink:href="#ArialMT-2212"/>
       <use x="58.398438" xlink:href="#ArialMT-30"/>
       <use x="114.013672" xlink:href="#ArialMT-2e"/>
       <use x="141.796875" xlink:href="#ArialMT-31"/>
       <use x="197.412109" xlink:href="#ArialMT-35"/>
      </g>
     </g>
    </g>
    <g id="ytick_3">
     <g id="line2d_12">
      <g>
       <use style="fill:#262626;stroke:#262626;" x="90" xlink:href="#m8018970de0" y="220.32"/>
      </g>
     </g>
     <g id="text_12">
      <!-- −0.10 -->
      <g style="fill:#262626;" transform="translate(51.698437 223.898906)scale(0.1 -0.1)">
       <use xlink:href="#ArialMT-2212"/>
       <use x="58.398438" xlink:href="#ArialMT-30"/>
       <use x="114.013672" xlink:href="#ArialMT-2e"/>
       <use x="141.796875" xlink:href="#ArialMT-31"/>
       <use x="197.412109" xlink:href="#ArialMT-30"/>
      </g>
     </g>
    </g>
    <g id="ytick_4">
     <g id="line2d_13">
      <g>
       <use style="fill:#262626;stroke:#262626;" x="90" xlink:href="#m8018970de0" y="195.12"/>
      </g>
     </g>
     <g id="text_13">
      <!-- −0.05 -->
      <g style="fill:#262626;" transform="translate(51.698437 198.698906)scale(0.1 -0.1)">
       <use xlink:href="#ArialMT-2212"/>
       <use x="58.398438" xlink:href="#ArialMT-30"/>
       <use x="114.013672" xlink:href="#ArialMT-2e"/>
       <use x="141.796875" xlink:href="#ArialMT-30"/>
       <use x="197.412109" xlink:href="#ArialMT-35"/>
      </g>
     </g>
    </g>
    <g id="ytick_5">
     <g id="line2d_14">
      <g>
       <use style="fill:#262626;stroke:#262626;" x="90" xlink:href="#m8018970de0" y="169.92"/>
      </g>
     </g>
     <g id="text_14">
      <!-- 0.00 -->
      <g style="fill:#262626;" transform="translate(57.539062 173.498906)scale(0.1 -0.1)">
       <use xlink:href="#ArialMT-30"/>
       <use x="55.615234" xlink:href="#ArialMT-2e"/>
       <use x="83.398438" xlink:href="#ArialMT-30"/>
       <use x="139.013672" xlink:href="#ArialMT-30"/>
      </g>
     </g>
    </g>
    <g id="ytick_6">
     <g id="line2d_15">
      <g>
       <use style="fill:#262626;stroke:#262626;" x="90" xlink:href="#m8018970de0" y="144.72"/>
      </g>
     </g>
     <g id="text_15">
      <!-- 0.05 -->
      <g style="fill:#262626;" transform="translate(57.539062 148.298906)scale(0.1 -0.1)">
       <use xlink:href="#ArialMT-30"/>
       <use x="55.615234" xlink:href="#ArialMT-2e"/>
       <use x="83.398438" xlink:href="#ArialMT-30"/>
       <use x="139.013672" xlink:href="#ArialMT-35"/>
      </g>
     </g>
    </g>
    <g id="ytick_7">
     <g id="line2d_16">
      <g>
       <use style="fill:#262626;stroke:#262626;" x="90" xlink:href="#m8018970de0" y="119.52"/>
      </g>
     </g>
     <g id="text_16">
      <!-- 0.10 -->
      <g style="fill:#262626;" transform="translate(57.539062 123.098906)scale(0.1 -0.1)">
       <use xlink:href="#ArialMT-30"/>
       <use x="55.615234" xlink:href="#ArialMT-2e"/>
       <use x="83.398438" xlink:href="#ArialMT-31"/>
       <use x="139.013672" xlink:href="#ArialMT-30"/>
      </g>
     </g>
    </g>
    <g id="ytick_8">
     <g id="line2d_17">
      <g>
       <use style="fill:#262626;stroke:#262626;" x="90" xlink:href="#m8018970de0" y="94.32"/>
      </g>
     </g>
     <g id="text_17">
      <!-- 0.15 -->
      <g style="fill:#262626;" transform="translate(57.539062 97.898906)scale(0.1 -0.1)">
       <use xlink:href="#ArialMT-30"/>
       <use x="55.615234" xlink:href="#ArialMT-2e"/>
       <use x="83.398438" xlink:href="#ArialMT-31"/>
       <use x="139.013672" xlink:href="#ArialMT-35"/>
      </g>
     </g>
    </g>
    <g id="ytick_9">
     <g id="line2d_18">
      <g>
       <use style="fill:#262626;stroke:#262626;" x="90" xlink:href="#m8018970de0" y="69.12"/>
      </g>
     </g>
     <g id="text_18">
      <!-- 0.20 -->
      <g style="fill:#262626;" transform="translate(57.539062 72.698906)scale(0.1 -0.1)">
       <use xlink:href="#ArialMT-30"/>
       <use x="55.615234" xlink:href="#ArialMT-2e"/>
       <use x="83.398438" xlink:href="#ArialMT-32"/>
       <use x="139.013672" xlink:href="#ArialMT-30"/>
      </g>
     </g>
    </g>
   </g>
   <g id="PolyCollection_1">
    <path clip-path="url(#pba869b3242)" d="M 90 171.04733 
L 90 169.92 
L 90.6975 169.92 
L 91.395 169.92 
L 92.0925 169.92 
L 92.79 169.92 
L 93.4875 169.92 
L 94.185 169.92 
L 94.8825 169.92 
L 95.58 169.92 
L 96.2775 169.92 
L 96.975 169.92 
L 97.6725 169.92 
L 98.37 169.92 
L 99.0675 169.92 
L 99.765 169.92 
L 100.4625 169.92 
L 101.16 169.92 
L 101.8575 169.92 
L 102.555 169.92 
L 103.2525 169.92 
L 103.95 169.92 
L 104.6475 169.92 
L 105.345 169.92 
L 106.0425 169.92 
L 106.74 169.92 
L 107.4375 169.92 
L 108.135 169.92 
L 108.8325 169.92 
L 109.53 169.92 
L 110.2275 169.92 
L 110.925 169.92 
L 111.6225 169.92 
L 112.32 169.92 
L 113.0175 169.92 
L 113.715 169.92 
L 114.4125 169.92 
L 115.11 169.92 
L 115.8075 169.92 
L 116.505 169.92 
L 117.2025 169.92 
L 117.9 169.92 
L 118.5975 169.92 
L 119.295 169.92 
L 119.9925 169.92 
L 120.69 169.92 
L 121.3875 169.92 
L 122.085 169.92 
L 122.7825 169.92 
L 123.48 169.92 
L 124.1775 169.92 
L 124.875 169.92 
L 125.5725 169.92 
L 126.27 169.92 
L 126.9675 169.92 
L 127.665 169.92 
L 128.3625 169.92 
L 129.06 169.92 
L 129.7575 169.92 
L 130.455 169.92 
L 131.1525 169.92 
L 131.85 169.92 
L 132.5475 169.92 
L 133.245 169.92 
L 133.9425 169.92 
L 134.64 169.92 
L 135.3375 169.92 
L 136.035 169.92 
L 136.7325 169.92 
L 137.43 169.92 
L 138.1275 169.92 
L 138.825 169.92 
L 139.5225 169.92 
L 140.22 169.92 
L 140.9175 169.92 
L 141.615 169.92 
L 142.3125 169.92 
L 143.01 169.92 
L 143.7075 169.92 
L 144.405 169.92 
L 145.1025 169.92 
L 145.8 169.92 
L 146.4975 169.92 
L 147.195 169.92 
L 147.8925 169.92 
L 148.59 169.92 
L 149.2875 169.92 
L 149.985 169.92 
L 150.6825 169.92 
L 151.38 169.92 
L 152.0775 169.92 
L 152.775 169.92 
L 153.4725 169.92 
L 154.17 169.92 
L 154.8675 169.92 
L 155.565 169.92 
L 156.2625 169.92 
L 156.96 169.92 
L 157.6575 169.92 
L 158.355 169.92 
L 159.0525 169.92 
L 159.75 169.92 
L 160.4475 169.92 
L 161.145 169.92 
L 161.8425 169.92 
L 162.54 169.92 
L 163.2375 169.92 
L 163.935 169.92 
L 164.6325 169.92 
L 165.33 169.92 
L 166.0275 169.92 
L 166.725 169.92 
L 167.4225 169.92 
L 168.12 169.92 
L 168.8175 169.92 
L 169.515 169.92 
L 170.2125 169.92 
L 170.91 169.92 
L 171.6075 169.92 
L 172.305 169.92 
L 173.0025 169.92 
L 173.7 169.92 
L 174.3975 169.92 
L 175.095 169.92 
L 175.7925 169.92 
L 176.49 169.92 
L 177.1875 169.92 
L 177.885 169.92 
L 178.5825 169.92 
L 179.28 169.92 
L 179.9775 169.92 
L 180.675 169.92 
L 181.3725 169.92 
L 182.07 169.92 
L 182.7675 169.92 
L 183.465 169.92 
L 184.1625 169.92 
L 184.86 169.92 
L 185.5575 169.92 
L 186.255 169.92 
L 186.9525 169.92 
L 187.65 169.92 
L 188.3475 169.92 
L 189.045 169.92 
L 189.7425 169.92 
L 190.44 169.92 
L 191.1375 169.92 
L 191.835 169.92 
L 192.5325 169.92 
L 193.23 169.92 
L 193.9275 169.92 
L 194.625 169.92 
L 195.3225 169.92 
L 196.02 169.92 
L 196.7175 169.92 
L 197.415 169.92 
L 198.1125 169.92 
L 198.81 169.92 
L 199.5075 169.92 
L 200.205 169.92 
L 200.9025 169.92 
L 201.6 169.92 
L 202.2975 169.92 
L 202.995 169.92 
L 203.6925 169.92 
L 204.39 169.92 
L 205.0875 169.92 
L 205.785 169.92 
L 206.4825 169.92 
L 207.18 169.92 
L 207.8775 169.92 
L 208.575 169.92 
L 209.2725 169.92 
L 209.97 169.92 
L 210.6675 169.92 
L 211.365 169.92 
L 212.0625 169.92 
L 212.76 169.92 
L 213.4575 169.92 
L 214.155 169.92 
L 214.8525 169.92 
L 215.55 169.92 
L 216.2475 169.92 
L 216.945 169.92 
L 217.6425 169.92 
L 218.34 169.92 
L 219.0375 169.92 
L 219.735 169.92 
L 220.4325 169.92 
L 221.13 169.92 
L 221.8275 169.92 
L 222.525 169.92 
L 223.2225 169.92 
L 223.92 169.92 
L 224.6175 169.92 
L 225.315 169.92 
L 226.0125 169.92 
L 226.71 169.92 
L 227.4075 169.92 
L 228.105 169.92 
L 228.8025 169.92 
L 229.5 169.92 
L 230.1975 169.92 
L 230.895 169.92 
L 231.5925 169.92 
L 232.29 169.92 
L 232.9875 169.92 
L 233.685 169.92 
L 234.3825 169.92 
L 235.08 169.92 
L 235.7775 169.92 
L 236.475 169.92 
L 237.1725 169.92 
L 237.87 169.92 
L 238.5675 169.92 
L 239.265 169.92 
L 239.9625 169.92 
L 240.66 169.92 
L 241.3575 169.92 
L 242.055 169.92 
L 242.7525 169.92 
L 243.45 169.92 
L 244.1475 169.92 
L 244.845 169.92 
L 245.5425 169.92 
L 246.24 169.92 
L 246.9375 169.92 
L 247.635 169.92 
L 248.3325 169.92 
L 249.03 169.92 
L 249.7275 169.92 
L 250.425 169.92 
L 251.1225 169.92 
L 251.82 169.92 
L 252.5175 169.92 
L 253.215 169.92 
L 253.9125 169.92 
L 254.61 169.92 
L 255.3075 169.92 
L 256.005 169.92 
L 256.7025 169.92 
L 257.4 169.92 
L 258.0975 169.92 
L 258.795 169.92 
L 259.4925 169.92 
L 260.19 169.92 
L 260.8875 169.92 
L 261.585 169.92 
L 262.2825 169.92 
L 262.98 169.92 
L 263.6775 169.92 
L 264.375 169.92 
L 265.0725 169.92 
L 265.77 169.92 
L 266.4675 169.92 
L 267.165 169.92 
L 267.8625 169.92 
L 268.56 169.92 
L 269.2575 169.92 
L 269.955 169.92 
L 270.6525 169.92 
L 271.35 169.92 
L 272.0475 169.92 
L 272.745 169.92 
L 273.4425 169.92 
L 274.14 169.92 
L 274.8375 169.92 
L 275.535 169.92 
L 276.2325 169.92 
L 276.93 169.92 
L 277.6275 169.92 
L 278.325 169.92 
L 279.0225 169.92 
L 279.72 169.92 
L 280.4175 169.92 
L 281.115 169.92 
L 281.8125 169.92 
L 282.51 169.92 
L 283.2075 169.92 
L 283.905 169.92 
L 284.6025 169.92 
L 285.3 169.92 
L 285.9975 169.92 
L 286.695 169.92 
L 287.3925 169.92 
L 288.09 169.92 
L 288.7875 169.92 
L 289.485 169.92 
L 290.1825 169.92 
L 290.88 169.92 
L 291.5775 169.92 
L 292.275 169.92 
L 292.9725 169.92 
L 293.67 169.92 
L 294.3675 169.92 
L 295.065 169.92 
L 295.7625 169.92 
L 296.46 169.92 
L 297.1575 169.92 
L 297.855 169.92 
L 298.5525 169.92 
L 299.25 169.92 
L 299.9475 169.92 
L 300.645 169.92 
L 301.3425 169.92 
L 302.04 169.92 
L 302.7375 169.92 
L 303.435 169.92 
L 304.1325 169.92 
L 304.83 169.92 
L 305.5275 169.92 
L 306.225 169.92 
L 306.9225 169.92 
L 307.62 169.92 
L 308.3175 169.92 
L 309.015 169.92 
L 309.7125 169.92 
L 310.41 169.92 
L 311.1075 169.92 
L 311.805 169.92 
L 312.5025 169.92 
L 313.2 169.92 
L 313.8975 169.92 
L 314.595 169.92 
L 315.2925 169.92 
L 315.99 169.92 
L 316.6875 169.92 
L 317.385 169.92 
L 318.0825 169.92 
L 318.78 169.92 
L 319.4775 169.92 
L 320.175 169.92 
L 320.8725 169.92 
L 321.57 169.92 
L 322.2675 169.92 
L 322.965 169.92 
L 323.6625 169.92 
L 324.36 169.92 
L 325.0575 169.92 
L 325.755 169.92 
L 326.4525 169.92 
L 327.15 169.92 
L 327.8475 169.92 
L 328.545 169.92 
L 329.2425 169.92 
L 329.94 169.92 
L 330.6375 169.92 
L 331.335 169.92 
L 332.0325 169.92 
L 332.73 169.92 
L 333.4275 169.92 
L 334.125 169.92 
L 334.8225 169.92 
L 335.52 169.92 
L 336.2175 169.92 
L 336.915 169.92 
L 337.6125 169.92 
L 338.31 169.92 
L 339.0075 169.92 
L 339.705 169.92 
L 340.4025 169.92 
L 341.1 169.92 
L 341.7975 169.92 
L 342.495 169.92 
L 343.1925 169.92 
L 343.89 169.92 
L 344.5875 169.92 
L 345.285 169.92 
L 345.9825 169.92 
L 346.68 169.92 
L 347.3775 169.92 
L 348.075 169.92 
L 348.7725 169.92 
L 349.47 169.92 
L 350.1675 169.92 
L 350.865 169.92 
L 351.5625 169.92 
L 352.26 169.92 
L 352.9575 169.92 
L 353.655 169.92 
L 354.3525 169.92 
L 355.05 169.92 
L 355.7475 169.92 
L 356.445 169.92 
L 357.1425 169.92 
L 357.84 169.92 
L 358.5375 169.92 
L 359.235 169.92 
L 359.9325 169.92 
L 360.63 169.92 
L 361.3275 169.92 
L 362.025 169.92 
L 362.7225 169.92 
L 363.42 169.92 
L 364.1175 169.92 
L 364.815 169.92 
L 365.5125 169.92 
L 366.21 169.92 
L 366.9075 169.92 
L 367.605 169.92 
L 368.3025 169.92 
L 369 169.92 
L 369.6975 169.92 
L 370.395 169.92 
L 371.0925 169.92 
L 371.79 169.92 
L 372.4875 169.92 
L 373.185 169.92 
L 373.8825 169.92 
L 374.58 169.92 
L 375.2775 169.92 
L 375.975 169.92 
L 376.6725 169.92 
L 377.37 169.92 
L 378.0675 169.92 
L 378.765 169.92 
L 379.4625 169.92 
L 380.16 169.92 
L 380.8575 169.92 
L 381.555 169.92 
L 382.2525 169.92 
L 382.95 169.92 
L 383.6475 169.92 
L 384.345 169.92 
L 385.0425 169.92 
L 385.74 169.92 
L 386.4375 169.92 
L 387.135 169.92 
L 387.8325 169.92 
L 388.53 169.92 
L 389.2275 169.92 
L 389.925 169.92 
L 390.6225 169.92 
L 391.32 169.92 
L 392.0175 169.92 
L 392.715 169.92 
L 393.4125 169.92 
L 394.11 169.92 
L 394.8075 169.92 
L 395.505 169.92 
L 396.2025 169.92 
L 396.9 169.92 
L 397.5975 169.92 
L 398.295 169.92 
L 398.9925 169.92 
L 399.69 169.92 
L 400.3875 169.92 
L 401.085 169.92 
L 401.7825 169.92 
L 402.48 169.92 
L 403.1775 169.92 
L 403.875 169.92 
L 404.5725 169.92 
L 405.27 169.92 
L 405.9675 169.92 
L 406.665 169.92 
L 407.3625 169.92 
L 408.06 169.92 
L 408.7575 169.92 
L 409.455 169.92 
L 410.1525 169.92 
L 410.85 169.92 
L 411.5475 169.92 
L 412.245 169.92 
L 412.9425 169.92 
L 413.64 169.92 
L 414.3375 169.92 
L 415.035 169.92 
L 415.7325 169.92 
L 416.43 169.92 
L 417.1275 169.92 
L 417.825 169.92 
L 418.5225 169.92 
L 419.22 169.92 
L 419.9175 169.92 
L 420.615 169.92 
L 421.3125 169.92 
L 422.01 169.92 
L 422.7075 169.92 
L 423.405 169.92 
L 424.1025 169.92 
L 424.8 169.92 
L 425.4975 169.92 
L 426.195 169.92 
L 426.8925 169.92 
L 427.59 169.92 
L 428.2875 169.92 
L 428.985 169.92 
L 429.6825 169.92 
L 430.38 169.92 
L 431.0775 169.92 
L 431.775 169.92 
L 432.4725 169.92 
L 433.17 169.92 
L 433.8675 169.92 
L 434.565 169.92 
L 435.2625 169.92 
L 435.96 169.92 
L 436.6575 169.92 
L 437.355 169.92 
L 438.0525 169.92 
L 438.75 169.92 
L 439.4475 169.92 
L 440.145 169.92 
L 440.8425 169.92 
L 441.54 169.92 
L 442.2375 169.92 
L 442.935 169.92 
L 443.6325 169.92 
L 444.33 169.92 
L 445.0275 169.92 
L 445.725 169.92 
L 446.4225 169.92 
L 447.12 169.92 
L 447.8175 169.92 
L 448.515 169.92 
L 449.2125 169.92 
L 449.91 169.92 
L 450.6075 169.92 
L 451.305 169.92 
L 452.0025 169.92 
L 452.7 169.92 
L 453.3975 169.92 
L 454.095 169.92 
L 454.7925 169.92 
L 455.49 169.92 
L 456.1875 169.92 
L 456.885 169.92 
L 457.5825 169.92 
L 458.28 169.92 
L 458.9775 169.92 
L 459.675 169.92 
L 460.3725 169.92 
L 461.07 169.92 
L 461.7675 169.92 
L 462.465 169.92 
L 463.1625 169.92 
L 463.86 169.92 
L 464.5575 169.92 
L 465.255 169.92 
L 465.9525 169.92 
L 466.65 169.92 
L 467.3475 169.92 
L 468.045 169.92 
L 468.7425 169.92 
L 469.44 169.92 
L 470.1375 169.92 
L 470.835 169.92 
L 471.5325 169.92 
L 472.23 169.92 
L 472.9275 169.92 
L 473.625 169.92 
L 474.3225 169.92 
L 475.02 169.92 
L 475.7175 169.92 
L 476.415 169.92 
L 477.1125 169.92 
L 477.81 169.92 
L 478.5075 169.92 
L 479.205 169.92 
L 479.9025 169.92 
L 480.6 169.92 
L 481.2975 169.92 
L 481.995 169.92 
L 482.6925 169.92 
L 483.39 169.92 
L 484.0875 169.92 
L 484.785 169.92 
L 485.4825 169.92 
L 486.18 169.92 
L 486.8775 169.92 
L 487.575 169.92 
L 488.2725 169.92 
L 488.97 169.92 
L 489.6675 169.92 
L 490.365 169.92 
L 491.0625 169.92 
L 491.76 169.92 
L 492.4575 169.92 
L 493.155 169.92 
L 493.8525 169.92 
L 494.55 169.92 
L 495.2475 169.92 
L 495.945 169.92 
L 496.6425 169.92 
L 497.34 169.92 
L 498.0375 169.92 
L 498.735 169.92 
L 499.4325 169.92 
L 500.13 169.92 
L 500.8275 169.92 
L 501.525 169.92 
L 502.2225 169.92 
L 502.92 169.92 
L 503.6175 169.92 
L 504.315 169.92 
L 505.0125 169.92 
L 505.71 169.92 
L 506.4075 169.92 
L 507.105 169.92 
L 507.8025 169.92 
L 508.5 169.92 
L 509.1975 169.92 
L 509.895 169.92 
L 510.5925 169.92 
L 511.29 169.92 
L 511.9875 169.92 
L 512.685 169.92 
L 513.3825 169.92 
L 514.08 169.92 
L 514.7775 169.92 
L 515.475 169.92 
L 516.1725 169.92 
L 516.87 169.92 
L 517.5675 169.92 
L 518.265 169.92 
L 518.9625 169.92 
L 519.66 169.92 
L 520.3575 169.92 
L 521.055 169.92 
L 521.7525 169.92 
L 522.45 169.92 
L 523.1475 169.92 
L 523.845 169.92 
L 524.5425 169.92 
L 525.24 169.92 
L 525.9375 169.92 
L 526.635 169.92 
L 527.3325 169.92 
L 528.03 169.92 
L 528.7275 169.92 
L 529.425 169.92 
L 530.1225 169.92 
L 530.82 169.92 
L 531.5175 169.92 
L 532.215 169.92 
L 532.9125 169.92 
L 533.61 169.92 
L 534.3075 169.92 
L 535.005 169.92 
L 535.7025 169.92 
L 536.4 169.92 
L 537.0975 169.92 
L 537.795 169.92 
L 538.4925 169.92 
L 539.19 169.92 
L 539.8875 169.92 
L 540.585 169.92 
L 541.2825 169.92 
L 541.98 169.92 
L 542.6775 169.92 
L 543.375 169.92 
L 544.0725 169.92 
L 544.77 169.92 
L 545.4675 169.92 
L 546.165 169.92 
L 546.8625 169.92 
L 547.56 169.92 
L 548.2575 169.92 
L 548.955 169.92 
L 549.6525 169.92 
L 550.35 169.92 
L 551.0475 169.92 
L 551.745 169.92 
L 552.4425 169.92 
L 553.14 169.92 
L 553.8375 169.92 
L 554.535 169.92 
L 555.2325 169.92 
L 555.93 169.92 
L 556.6275 169.92 
L 557.325 169.92 
L 558.0225 169.92 
L 558.72 169.92 
L 559.4175 169.92 
L 560.115 169.92 
L 560.8125 169.92 
L 561.51 169.92 
L 562.2075 169.92 
L 562.905 169.92 
L 563.6025 169.92 
L 564.3 169.92 
L 564.9975 169.92 
L 565.695 169.92 
L 566.3925 169.92 
L 567.09 169.92 
L 567.7875 169.92 
L 568.485 169.92 
L 569.1825 169.92 
L 569.88 169.92 
L 570.5775 169.92 
L 571.275 169.92 
L 571.9725 169.92 
L 572.67 169.92 
L 573.3675 169.92 
L 574.065 169.92 
L 574.7625 169.92 
L 575.46 169.92 
L 576.1575 169.92 
L 576.855 169.92 
L 577.5525 169.92 
L 578.25 169.92 
L 578.9475 169.92 
L 579.645 169.92 
L 580.3425 169.92 
L 581.04 169.92 
L 581.7375 169.92 
L 582.435 169.92 
L 583.1325 169.92 
L 583.83 169.92 
L 584.5275 169.92 
L 585.225 169.92 
L 585.9225 169.92 
L 586.62 169.92 
L 587.3175 169.92 
L 588.015 169.92 
L 588.7125 169.92 
L 589.41 169.92 
L 590.1075 169.92 
L 590.805 169.92 
L 591.5025 169.92 
L 592.2 169.92 
L 592.8975 169.92 
L 593.595 169.92 
L 594.2925 169.92 
L 594.99 169.92 
L 595.6875 169.92 
L 596.385 169.92 
L 597.0825 169.92 
L 597.78 169.92 
L 598.4775 169.92 
L 599.175 169.92 
L 599.8725 169.92 
L 600.57 169.92 
L 601.2675 169.92 
L 601.965 169.92 
L 602.6625 169.92 
L 603.36 169.92 
L 604.0575 169.92 
L 604.755 169.92 
L 605.4525 169.92 
L 606.15 169.92 
L 606.8475 169.92 
L 607.545 169.92 
L 608.2425 169.92 
L 608.94 169.92 
L 609.6375 169.92 
L 610.335 169.92 
L 611.0325 169.92 
L 611.73 169.92 
L 612.4275 169.92 
L 613.125 169.92 
L 613.8225 169.92 
L 614.52 169.92 
L 615.2175 169.92 
L 615.915 169.92 
L 616.6125 169.92 
L 617.31 169.92 
L 618.0075 169.92 
L 618.705 169.92 
L 619.4025 169.92 
L 620.1 169.92 
L 620.7975 169.92 
L 621.495 169.92 
L 622.1925 169.92 
L 622.89 169.92 
L 623.5875 169.92 
L 624.285 169.92 
L 624.9825 169.92 
L 625.68 169.92 
L 626.3775 169.92 
L 627.075 169.92 
L 627.7725 169.92 
L 628.47 169.92 
L 629.1675 169.92 
L 629.865 169.92 
L 630.5625 169.92 
L 631.26 169.92 
L 631.9575 169.92 
L 632.655 169.92 
L 633.3525 169.92 
L 634.05 169.92 
L 634.7475 169.92 
L 635.445 169.92 
L 636.1425 169.92 
L 636.84 169.92 
L 637.5375 169.92 
L 638.235 169.92 
L 638.9325 169.92 
L 639.63 169.92 
L 640.3275 169.92 
L 641.025 169.92 
L 641.7225 169.92 
L 642.42 169.92 
L 643.1175 169.92 
L 643.815 169.92 
L 644.5125 169.92 
L 645.21 169.92 
L 645.9075 169.92 
L 646.605 169.92 
L 646.605 169.92 
L 646.605 169.92 
L 645.9075 169.929541 
L 645.21 169.95173 
L 644.5125 169.989341 
L 643.815 170.044747 
L 643.1175 170.119851 
L 642.42 170.216028 
L 641.7225 170.334083 
L 641.025 170.474216 
L 640.3275 170.636004 
L 639.63 170.818391 
L 638.9325 171.0197 
L 638.235 171.237652 
L 637.5375 171.469397 
L 636.84 171.711567 
L 636.1425 171.96033 
L 635.445 172.211461 
L 634.7475 172.460421 
L 634.05 172.702445 
L 633.3525 172.932636 
L 632.655 173.14606 
L 631.9575 173.337847 
L 631.26 173.503296 
L 630.5625 173.637969 
L 629.865 173.737793 
L 629.1675 173.799145 
L 628.47 173.818939 
L 627.7725 173.794703 
L 627.075 173.724638 
L 626.3775 173.607675 
L 625.68 173.44351 
L 624.9825 173.232637 
L 624.285 172.976349 
L 623.5875 172.676744 
L 622.89 172.336697 
L 622.1925 171.959836 
L 621.495 171.550482 
L 620.7975 171.113599 
L 620.1 170.654711 
L 619.4025 170.17982 
L 618.705 169.69531 
L 618.0075 169.207842 
L 617.31 168.724246 
L 616.6125 168.251404 
L 615.915 167.796135 
L 615.2175 167.365075 
L 614.52 166.964568 
L 613.8225 166.600548 
L 613.125 166.278439 
L 612.4275 166.003056 
L 611.73 165.778521 
L 611.0325 165.608183 
L 610.335 165.494559 
L 609.6375 165.439287 
L 608.94 165.443089 
L 608.2425 165.505757 
L 607.545 165.626151 
L 606.8475 165.802216 
L 606.15 166.031008 
L 605.4525 166.308746 
L 604.755 166.630873 
L 604.0575 166.992128 
L 603.36 167.386638 
L 602.6625 167.808013 
L 601.965 168.249455 
L 601.2675 168.703873 
L 600.57 169.164003 
L 599.8725 169.622531 
L 599.175 170.072215 
L 598.4775 170.506009 
L 597.78 170.917185 
L 597.0825 171.299439 
L 596.385 171.647001 
L 595.6875 171.954732 
L 594.99 172.218204 
L 594.2925 172.433777 
L 593.595 172.598651 
L 592.8975 172.710913 
L 592.2 172.769565 
L 591.5025 172.774528 
L 590.805 172.726644 
L 590.1075 172.627649 
L 589.41 172.480139 
L 588.7125 172.287514 
L 588.015 172.053915 
L 587.3175 171.784144 
L 586.62 171.483572 
L 585.9225 171.15804 
L 585.225 170.813753 
L 584.5275 170.457165 
L 583.83 170.094864 
L 583.1325 169.733452 
L 582.435 169.37943 
L 581.7375 169.039081 
L 581.04 168.718363 
L 580.3425 168.422805 
L 579.645 168.157415 
L 578.9475 167.926593 
L 578.25 167.734062 
L 577.5525 167.582813 
L 576.855 167.475054 
L 576.1575 167.412185 
L 575.46 167.394782 
L 574.7625 167.422599 
L 574.065 167.494584 
L 573.3675 167.608912 
L 572.67 167.763024 
L 571.9725 167.953692 
L 571.275 168.177086 
L 570.5775 168.428853 
L 569.88 168.704211 
L 569.1825 168.998039 
L 568.485 169.304982 
L 567.7875 169.619557 
L 567.09 169.936252 
L 566.3925 170.249641 
L 565.695 170.554474 
L 564.9975 170.845784 
L 564.3 171.11897 
L 563.6025 171.369884 
L 562.905 171.594898 
L 562.2075 171.790969 
L 561.51 171.955682 
L 560.8125 172.087292 
L 560.115 172.18474 
L 559.4175 172.247662 
L 558.72 172.276381 
L 558.0225 172.271892 
L 557.325 172.235819 
L 556.6275 172.170376 
L 555.93 172.078309 
L 555.2325 171.962823 
L 554.535 171.827509 
L 553.8375 171.676259 
L 553.14 171.513177 
L 552.4425 171.342486 
L 551.745 171.168432 
L 551.0475 170.995193 
L 550.35 170.826782 
L 549.6525 170.666964 
L 548.955 170.519169 
L 548.2575 170.386422 
L 547.56 170.271277 
L 546.8625 170.175756 
L 546.165 170.101316 
L 545.4675 170.048809 
L 544.77 170.01847 
L 544.0725 170.009908 
L 543.375 170.02212 
L 542.6775 170.053512 
L 541.98 170.101932 
L 541.2825 170.164723 
L 540.585 170.238778 
L 539.8875 170.320612 
L 539.19 170.406439 
L 538.4925 170.49226 
L 537.795 170.57395 
L 537.0975 170.647354 
L 536.4 170.708386 
L 535.7025 170.753122 
L 535.005 170.777893 
L 534.3075 170.779378 
L 533.61 170.754686 
L 532.9125 170.701431 
L 532.215 170.617798 
L 531.5175 170.502602 
L 530.82 170.355328 
L 530.1225 170.176162 
L 529.425 169.966012 
L 528.7275 169.726502 
L 528.03 169.459969 
L 527.3325 169.169431 
L 526.635 168.858548 
L 525.9375 168.531567 
L 525.24 168.193256 
L 524.5425 167.848827 
L 523.845 167.503848 
L 523.1475 167.164144 
L 522.45 166.835696 
L 521.7525 166.524531 
L 521.055 166.236616 
L 520.3575 165.977738 
L 519.66 165.753403 
L 518.9625 165.568724 
L 518.265 165.428318 
L 517.5675 165.336218 
L 516.87 165.295783 
L 516.1725 165.309627 
L 515.475 165.379558 
L 514.7775 165.50653 
L 514.08 165.690606 
L 513.3825 165.930948 
L 512.685 166.225809 
L 511.9875 166.572552 
L 511.29 166.967673 
L 510.5925 167.406857 
L 509.895 167.885029 
L 509.1975 168.396432 
L 508.5 168.934715 
L 507.8025 169.493029 
L 507.105 170.064135 
L 506.4075 170.640516 
L 505.71 171.214501 
L 505.0125 171.778388 
L 504.315 172.324564 
L 503.6175 172.845636 
L 502.92 173.334546 
L 502.2225 173.784688 
L 501.525 174.190018 
L 500.8275 174.545149 
L 500.13 174.84544 
L 499.4325 175.087071 
L 498.735 175.267104 
L 498.0375 175.383529 
L 497.34 175.435295 
L 496.6425 175.42232 
L 495.945 175.345492 
L 495.2475 175.20665 
L 494.55 175.008544 
L 493.8525 174.75479 
L 493.155 174.449801 
L 492.4575 174.098709 
L 491.76 173.707274 
L 491.0625 173.281786 
L 490.365 172.828951 
L 489.6675 172.355782 
L 488.97 171.869474 
L 488.2725 171.377284 
L 487.575 170.88641 
L 486.8775 170.403871 
L 486.18 169.936392 
L 485.4825 169.490293 
L 484.785 169.071392 
L 484.0875 168.684913 
L 483.39 168.335409 
L 482.6925 168.026692 
L 481.995 167.761786 
L 481.2975 167.542887 
L 480.6 167.371344 
L 479.9025 167.24765 
L 479.205 167.171456 
L 478.5075 167.141591 
L 477.81 167.156106 
L 477.1125 167.212325 
L 476.415 167.306912 
L 475.7175 167.435947 
L 475.02 167.595015 
L 474.3225 167.7793 
L 473.625 167.983684 
L 472.9275 168.202857 
L 472.23 168.431417 
L 471.5325 168.663984 
L 470.835 168.895301 
L 470.1375 169.120335 
L 469.44 169.334375 
L 468.7425 169.533115 
L 468.045 169.712734 
L 467.3475 169.869963 
L 466.65 170.002141 
L 465.9525 170.107254 
L 465.255 170.183966 
L 464.5575 170.231634 
L 463.86 170.250304 
L 463.1625 170.240702 
L 462.465 170.204203 
L 461.7675 170.142791 
L 461.07 170.059007 
L 460.3725 169.955883 
L 459.675 169.836871 
L 458.9775 169.705761 
L 458.28 169.56659 
L 457.5825 169.423555 
L 456.885 169.280912 
L 456.1875 169.142886 
L 455.49 169.013573 
L 454.7925 168.896849 
L 454.095 168.796287 
L 453.3975 168.715073 
L 452.7 168.655939 
L 452.0025 168.6211 
L 451.305 168.612204 
L 450.6075 168.630298 
L 449.91 168.675795 
L 449.2125 168.748472 
L 448.515 168.847465 
L 447.8175 168.971287 
L 447.12 169.117859 
L 446.4225 169.284548 
L 445.725 169.468223 
L 445.0275 169.66532 
L 444.33 169.871911 
L 443.6325 170.083794 
L 442.935 170.296573 
L 442.2375 170.505758 
L 441.54 170.706854 
L 440.8425 170.895465 
L 440.145 171.067381 
L 439.4475 171.218677 
L 438.75 171.345797 
L 438.0525 171.445635 
L 437.355 171.515606 
L 436.6575 171.553712 
L 435.96 171.558586 
L 435.2625 171.529535 
L 434.565 171.466566 
L 433.8675 171.370394 
L 433.17 171.242438 
L 432.4725 171.084808 
L 431.775 170.900273 
L 431.0775 170.69221 
L 430.38 170.464556 
L 429.6825 170.221729 
L 428.985 169.968554 
L 428.2875 169.710175 
L 427.59 169.451951 
L 426.8925 169.199363 
L 426.195 168.957902 
L 425.4975 168.732966 
L 424.8 168.529748 
L 424.1025 168.353138 
L 423.405 168.207618 
L 422.7075 168.09717 
L 422.01 168.025191 
L 421.3125 167.99442 
L 420.615 168.006868 
L 419.9175 168.063775 
L 419.22 168.165569 
L 418.5225 168.311842 
L 417.825 168.501348 
L 417.1275 168.732008 
L 416.43 169.000935 
L 415.7325 169.304473 
L 415.035 169.638254 
L 414.3375 169.99726 
L 413.64 170.37591 
L 412.9425 170.768146 
L 412.245 171.167537 
L 411.5475 171.567387 
L 410.85 171.96085 
L 410.1525 172.341049 
L 409.455 172.701195 
L 408.7575 173.034708 
L 408.06 173.335334 
L 407.3625 173.597259 
L 406.665 173.815209 
L 405.9675 173.984554 
L 405.27 174.101388 
L 404.5725 174.162606 
L 403.875 174.165964 
L 403.1775 174.110124 
L 402.48 173.994684 
L 401.7825 173.820194 
L 401.085 173.588149 
L 400.3875 173.300975 
L 399.69 172.961991 
L 398.9925 172.575358 
L 398.295 172.146015 
L 397.5975 171.679602 
L 396.9 171.182364 
L 396.2025 170.661054 
L 395.505 170.12282 
L 394.8075 169.57509 
L 394.11 169.025449 
L 393.4125 168.481517 
L 392.715 167.95082 
L 392.0175 167.440675 
L 391.32 166.958063 
L 390.6225 166.509522 
L 389.925 166.101042 
L 389.2275 165.737971 
L 388.53 165.42493 
L 387.8325 165.165745 
L 387.135 164.963394 
L 386.4375 164.819961 
L 385.74 164.736615 
L 385.0425 164.713602 
L 384.345 164.750249 
L 383.6475 164.844992 
L 382.95 164.995409 
L 382.2525 165.198277 
L 381.555 165.449636 
L 380.8575 165.744873 
L 380.16 166.078801 
L 379.4625 166.445766 
L 378.765 166.839751 
L 378.0675 167.254478 
L 377.37 167.683532 
L 376.6725 168.120466 
L 375.975 168.558917 
L 375.2775 168.992715 
L 374.58 169.415984 
L 373.8825 169.823244 
L 373.185 170.20949 
L 372.4875 170.570278 
L 371.79 170.901783 
L 371.0925 171.200855 
L 370.395 171.465057 
L 369.6975 171.692688 
L 369 171.882792 
L 368.3025 172.035157 
L 367.605 172.15029 
L 366.9075 172.229388 
L 366.21 172.274292 
L 365.5125 172.287425 
L 364.815 172.271726 
L 364.1175 172.230573 
L 363.42 172.167698 
L 362.7225 172.087092 
L 362.025 171.992915 
L 361.3275 171.889396 
L 360.63 171.780739 
L 359.9325 171.671025 
L 359.235 171.564127 
L 358.5375 171.463618 
L 357.84 171.372701 
L 357.1425 171.294134 
L 356.445 171.230179 
L 355.7475 171.182549 
L 355.05 171.152378 
L 354.3525 171.140201 
L 353.655 171.145941 
L 352.9575 171.168924 
L 352.26 171.207887 
L 351.5625 171.261022 
L 350.865 171.326013 
L 350.1675 171.400093 
L 349.47 171.480114 
L 348.7725 171.562616 
L 348.075 171.643916 
L 347.3775 171.720187 
L 346.68 171.787558 
L 345.9825 171.842201 
L 345.285 171.880425 
L 344.5875 171.89877 
L 343.89 171.89409 
L 343.1925 171.863634 
L 342.495 171.805124 
L 341.7975 171.716812 
L 341.1 171.597542 
L 340.4025 171.446786 
L 339.705 171.264676 
L 339.0075 171.052021 
L 338.31 170.810308 
L 337.6125 170.541691 
L 336.915 170.248964 
L 336.2175 169.935525 
L 335.52 169.605322 
L 334.8225 169.262789 
L 334.125 168.912773 
L 333.4275 168.560446 
L 332.73 168.211218 
L 332.0325 167.870637 
L 331.335 167.544283 
L 330.6375 167.237666 
L 329.94 166.956123 
L 329.2425 166.704709 
L 328.545 166.4881 
L 327.8475 166.310499 
L 327.15 166.175549 
L 326.4525 166.086253 
L 325.755 166.044911 
L 325.0575 166.053062 
L 324.36 166.111448 
L 323.6625 166.219981 
L 322.965 166.377735 
L 322.2675 166.582947 
L 321.57 166.833039 
L 320.8725 167.124649 
L 320.175 167.45368 
L 319.4775 167.815364 
L 318.78 168.204336 
L 318.0825 168.614721 
L 317.385 169.040228 
L 316.6875 169.474263 
L 315.99 169.910032 
L 315.2925 170.340662 
L 314.595 170.759317 
L 313.8975 171.159321 
L 313.2 171.534268 
L 312.5025 171.87814 
L 311.805 172.185412 
L 311.1075 172.45115 
L 310.41 172.671101 
L 309.7125 172.841766 
L 309.015 172.960467 
L 308.3175 173.025399 
L 307.62 173.035659 
L 306.9225 172.991266 
L 306.225 172.893168 
L 305.5275 172.743221 
L 304.83 172.544164 
L 304.1325 172.299572 
L 303.435 172.013795 
L 302.7375 171.691884 
L 302.04 171.339503 
L 301.3425 170.962835 
L 300.645 170.568471 
L 299.9475 170.163299 
L 299.25 169.754383 
L 298.5525 169.348842 
L 297.855 168.953728 
L 297.1575 168.575901 
L 296.46 168.221913 
L 295.7625 167.897896 
L 295.065 167.609455 
L 294.3675 167.361576 
L 293.67 167.158536 
L 292.9725 167.00384 
L 292.275 166.900155 
L 291.5775 166.849274 
L 290.88 166.852084 
L 290.1825 166.908559 
L 289.485 167.017763 
L 288.7875 167.177874 
L 288.09 167.386218 
L 287.3925 167.639322 
L 286.695 167.93298 
L 285.9975 168.262333 
L 285.3 168.621954 
L 284.6025 169.005951 
L 283.905 169.408071 
L 283.2075 169.821811 
L 282.51 170.240536 
L 281.8125 170.657594 
L 281.115 171.066432 
L 280.4175 171.460709 
L 279.72 171.834404 
L 279.0225 172.181917 
L 278.325 172.498163 
L 277.6275 172.77865 
L 276.93 173.019554 
L 276.2325 173.217773 
L 275.535 173.370974 
L 274.8375 173.477617 
L 274.14 173.536973 
L 273.4425 173.54912 
L 272.745 173.514929 
L 272.0475 173.436033 
L 271.35 173.31478 
L 270.6525 173.15418 
L 269.955 172.957832 
L 269.2575 172.729849 
L 268.56 172.474768 
L 267.8625 172.197456 
L 267.165 171.903015 
L 266.4675 171.596672 
L 265.77 171.283686 
L 265.0725 170.969239 
L 264.375 170.658341 
L 263.6775 170.355737 
L 262.98 170.065817 
L 262.2825 169.79254 
L 261.585 169.539367 
L 260.8875 169.309202 
L 260.19 169.104346 
L 259.4925 168.926468 
L 258.795 168.776583 
L 258.0975 168.655053 
L 257.4 168.561588 
L 256.7025 168.495277 
L 256.005 168.454618 
L 255.3075 168.437567 
L 254.61 168.441599 
L 253.9125 168.463774 
L 253.215 168.500812 
L 252.5175 168.549182 
L 251.82 168.605185 
L 251.1225 168.665051 
L 250.425 168.725025 
L 249.7275 168.781464 
L 249.03 168.830923 
L 248.3325 168.870242 
L 247.635 168.896623 
L 246.9375 168.907699 
L 246.24 168.901598 
L 245.5425 168.876988 
L 244.845 168.833122 
L 244.1475 168.769857 
L 243.45 168.687668 
L 242.7525 168.587651 
L 242.055 168.471501 
L 241.3575 168.341488 
L 240.66 168.200416 
L 239.9625 168.051566 
L 239.265 167.898636 
L 238.5675 167.745663 
L 237.87 167.59694 
L 237.1725 167.456931 
L 236.475 167.330168 
L 235.7775 167.221161 
L 235.08 167.134294 
L 234.3825 167.073727 
L 233.685 167.043302 
L 232.9875 167.04645 
L 232.29 167.086108 
L 231.5925 167.16464 
L 230.895 167.283776 
L 230.1975 167.444549 
L 229.5 167.647262 
L 228.8025 167.891452 
L 228.105 168.175877 
L 227.4075 168.498519 
L 226.71 168.856596 
L 226.0125 169.246594 
L 225.315 169.66431 
L 224.6175 170.104909 
L 223.92 170.562999 
L 223.2225 171.03271 
L 222.525 171.507786 
L 221.8275 171.98169 
L 221.13 172.447708 
L 220.4325 172.899066 
L 219.735 173.329041 
L 219.0375 173.731084 
L 218.34 174.098926 
L 217.6425 174.426697 
L 216.945 174.709031 
L 216.2475 174.941159 
L 215.55 175.119004 
L 214.8525 175.239253 
L 214.155 175.299426 
L 213.4575 175.297926 
L 212.76 175.234075 
L 212.0625 175.108134 
L 211.365 174.921308 
L 210.6675 174.675732 
L 209.97 174.374447 
L 209.2725 174.021352 
L 208.575 173.621149 
L 207.8775 173.179266 
L 207.18 172.701776 
L 206.4825 172.195293 
L 205.785 171.666875 
L 205.0875 171.1239 
L 204.39 170.573954 
L 203.6925 170.024701 
L 202.995 169.483762 
L 202.2975 168.958588 
L 201.6 168.456341 
L 200.9025 167.983775 
L 200.205 167.547132 
L 199.5075 167.152034 
L 198.81 166.803403 
L 198.1125 166.505377 
L 197.415 166.261252 
L 196.7175 166.073433 
L 196.02 165.943399 
L 195.3225 165.871691 
L 194.625 165.857909 
L 193.9275 165.90073 
L 193.23 165.99794 
L 192.5325 166.146482 
L 191.835 166.342521 
L 191.1375 166.581514 
L 190.44 166.858299 
L 189.7425 167.167197 
L 189.045 167.502111 
L 188.3475 167.856641 
L 187.65 168.224198 
L 186.9525 168.598127 
L 186.255 168.971818 
L 185.5575 169.33883 
L 184.86 169.692994 
L 184.1625 170.028526 
L 183.465 170.340118 
L 182.7675 170.623032 
L 182.07 170.873167 
L 181.3725 171.08713 
L 180.675 171.262281 
L 179.9775 171.396769 
L 179.28 171.489551 
L 178.5825 171.540397 
L 177.885 171.54988 
L 177.1875 171.519345 
L 176.49 171.450877 
L 175.7925 171.347241 
L 175.095 171.211818 
L 174.3975 171.048531 
L 173.7 170.861754 
L 173.0025 170.656224 
L 172.305 170.436939 
L 171.6075 170.209056 
L 170.91 169.977784 
L 170.2125 169.748284 
L 169.515 169.525564 
L 168.8175 169.314383 
L 168.12 169.119158 
L 167.4225 168.943883 
L 166.725 168.792051 
L 166.0275 168.666596 
L 165.33 168.569838 
L 164.6325 168.503444 
L 163.935 168.468409 
L 163.2375 168.465039 
L 162.54 168.492956 
L 161.8425 168.55112 
L 161.145 168.637852 
L 160.4475 168.750883 
L 159.75 168.887408 
L 159.0525 169.044151 
L 158.355 169.21744 
L 157.6575 169.403292 
L 156.96 169.597499 
L 156.2625 169.795721 
L 155.565 169.993584 
L 154.8675 170.18677 
L 154.17 170.371117 
L 153.4725 170.542702 
L 152.775 170.697932 
L 152.0775 170.833617 
L 151.38 170.947038 
L 150.6825 171.03601 
L 149.985 171.098925 
L 149.2875 171.134789 
L 148.59 171.143243 
L 147.8925 171.124571 
L 147.195 171.079695 
L 146.4975 171.010157 
L 145.8 170.918086 
L 145.1025 170.806153 
L 144.405 170.677515 
L 143.7075 170.535749 
L 143.01 170.384773 
L 142.3125 170.228765 
L 141.615 170.072071 
L 140.9175 169.919109 
L 140.22 169.774278 
L 139.5225 169.641854 
L 138.825 169.525898 
L 138.1275 169.430163 
L 137.43 169.358009 
L 136.7325 169.31232 
L 136.035 169.295437 
L 135.3375 169.309094 
L 134.64 169.354372 
L 133.9425 169.431663 
L 133.245 169.540646 
L 132.5475 169.680282 
L 131.85 169.848814 
L 131.1525 170.043794 
L 130.455 170.262116 
L 129.7575 170.500062 
L 129.06 170.753367 
L 128.3625 171.017289 
L 127.665 171.286696 
L 126.9675 171.556154 
L 126.27 171.820033 
L 125.5725 172.072604 
L 124.875 172.308158 
L 124.1775 172.521107 
L 123.48 172.706099 
L 122.7825 172.858122 
L 122.085 172.972609 
L 121.3875 173.045529 
L 120.69 173.073478 
L 119.9925 173.05375 
L 119.295 172.984409 
L 118.5975 172.864331 
L 117.9 172.693247 
L 117.2025 172.471764 
L 116.505 172.201369 
L 115.8075 171.884421 
L 115.11 171.524125 
L 114.4125 171.124492 
L 113.715 170.69028 
L 113.0175 170.226928 
L 112.32 169.74047 
L 111.6225 169.237444 
L 110.925 168.724786 
L 110.2275 168.209718 
L 109.53 167.699632 
L 108.8325 167.201967 
L 108.135 166.724086 
L 107.4375 166.273152 
L 106.74 165.856009 
L 106.0425 165.479065 
L 105.345 165.148184 
L 104.6475 164.868589 
L 103.95 164.644765 
L 103.2525 164.480391 
L 102.555 164.378269 
L 101.8575 164.340282 
L 101.16 164.367354 
L 100.4625 164.459441 
L 99.765 164.615524 
L 99.0675 164.833628 
L 98.37 165.110857 
L 97.6725 165.443437 
L 96.975 165.826783 
L 96.2775 166.255576 
L 95.58 166.723848 
L 94.8825 167.225086 
L 94.185 167.752336 
L 93.4875 168.298323 
L 92.79 168.855569 
L 92.0925 169.416515 
L 91.395 169.973644 
L 90.6975 170.519605 
L 90 171.04733 
z
" style="fill:#e0ffff;"/>
   </g>
   <g id="line2d_19">
    <path clip-path="url(#pba869b3242)" d="M 90 171.04733 
L 96.975 165.826783 
L 98.37 165.110857 
L 99.765 164.615524 
L 101.16 164.367354 
L 102.555 164.378269 
L 103.95 164.644765 
L 105.345 165.148184 
L 106.74 165.856009 
L 108.8325 167.201967 
L 114.4125 171.124492 
L 116.505 172.201369 
L 117.9 172.693247 
L 119.295 172.984409 
L 120.69 173.073478 
L 122.085 172.972609 
L 124.1775 172.521107 
L 126.9675 171.556154 
L 131.1525 170.043794 
L 133.245 169.540646 
L 135.3375 169.309094 
L 137.43 169.358009 
L 139.5225 169.641854 
L 147.8925 171.124571 
L 149.985 171.098925 
L 152.0775 170.833617 
L 154.8675 170.18677 
L 160.4475 168.750883 
L 162.54 168.492956 
L 164.6325 168.503444 
L 166.725 168.792051 
L 168.8175 169.314383 
L 175.7925 171.347241 
L 177.885 171.54988 
L 179.28 171.489551 
L 180.675 171.262281 
L 182.7675 170.623032 
L 184.86 169.692994 
L 191.1375 166.581514 
L 192.5325 166.146482 
L 193.9275 165.90073 
L 195.3225 165.871691 
L 196.7175 166.073433 
L 198.1125 166.505377 
L 199.5075 167.152034 
L 201.6 168.456341 
L 204.39 170.573954 
L 207.18 172.701776 
L 209.2725 174.021352 
L 210.6675 174.675732 
L 212.0625 175.108134 
L 213.4575 175.297926 
L 214.8525 175.239253 
L 216.2475 174.941159 
L 217.6425 174.426697 
L 219.735 173.329041 
L 222.525 171.507786 
L 226.0125 169.246594 
L 228.105 168.175877 
L 229.5 167.647262 
L 230.895 167.283776 
L 232.29 167.086108 
L 234.3825 167.073727 
L 236.475 167.330168 
L 240.66 168.200416 
L 243.45 168.687668 
L 245.5425 168.876988 
L 248.3325 168.870242 
L 256.7025 168.495277 
L 258.795 168.776583 
L 260.8875 169.309202 
L 262.98 170.065817 
L 270.6525 173.15418 
L 272.0475 173.436033 
L 273.4425 173.54912 
L 274.8375 173.477617 
L 276.2325 173.217773 
L 277.6275 172.77865 
L 279.72 171.834404 
L 282.51 170.240536 
L 285.9975 168.262333 
L 288.09 167.386218 
L 289.485 167.017763 
L 290.88 166.852084 
L 292.275 166.900155 
L 293.67 167.158536 
L 295.065 167.609455 
L 297.1575 168.575901 
L 304.1325 172.299572 
L 305.5275 172.743221 
L 306.9225 172.991266 
L 308.3175 173.025399 
L 309.7125 172.841766 
L 311.1075 172.45115 
L 312.5025 171.87814 
L 314.595 170.759317 
L 320.175 167.45368 
L 322.2675 166.582947 
L 323.6625 166.219981 
L 325.0575 166.053062 
L 326.4525 166.086253 
L 327.8475 166.310499 
L 329.94 166.956123 
L 332.0325 167.870637 
L 337.6125 170.541691 
L 339.705 171.264676 
L 341.7975 171.716812 
L 343.89 171.89409 
L 345.9825 171.842201 
L 349.47 171.480114 
L 352.9575 171.168924 
L 355.7475 171.182549 
L 358.5375 171.463618 
L 364.815 172.271726 
L 366.9075 172.229388 
L 369 171.882792 
L 371.0925 171.200855 
L 373.185 170.20949 
L 375.975 168.558917 
L 379.4625 166.445766 
L 381.555 165.449636 
L 382.95 164.995409 
L 384.345 164.750249 
L 385.74 164.736615 
L 387.135 164.963394 
L 388.53 165.42493 
L 389.925 166.101042 
L 392.0175 167.440675 
L 395.505 170.12282 
L 398.295 172.146015 
L 399.69 172.961991 
L 401.085 173.588149 
L 402.48 173.994684 
L 403.875 174.165964 
L 405.27 174.101388 
L 406.665 173.815209 
L 408.06 173.335334 
L 410.1525 172.341049 
L 416.43 169.000935 
L 418.5225 168.311842 
L 419.9175 168.063775 
L 421.3125 167.99442 
L 422.7075 168.09717 
L 424.8 168.529748 
L 427.59 169.451951 
L 431.775 170.900273 
L 433.8675 171.370394 
L 435.96 171.558586 
L 438.0525 171.445635 
L 440.145 171.067381 
L 442.935 170.296573 
L 447.12 169.117859 
L 449.2125 168.748472 
L 451.305 168.612204 
L 453.3975 168.715073 
L 456.1875 169.142886 
L 461.7675 170.142791 
L 463.86 170.250304 
L 465.9525 170.107254 
L 468.045 169.712734 
L 470.835 168.895301 
L 475.02 167.595015 
L 477.1125 167.212325 
L 478.5075 167.141591 
L 479.9025 167.24765 
L 481.2975 167.542887 
L 482.6925 168.026692 
L 484.785 169.071392 
L 486.8775 170.403871 
L 491.76 173.707274 
L 493.8525 174.75479 
L 495.2475 175.20665 
L 496.6425 175.42232 
L 498.0375 175.383529 
L 499.4325 175.087071 
L 500.8275 174.545149 
L 502.2225 173.784688 
L 504.315 172.324564 
L 511.29 166.967673 
L 512.685 166.225809 
L 514.08 165.690606 
L 515.475 165.379558 
L 516.87 165.295783 
L 518.265 165.428318 
L 519.66 165.753403 
L 521.7525 166.524531 
L 525.24 168.193256 
L 528.03 169.459969 
L 530.1225 170.176162 
L 532.215 170.617798 
L 534.3075 170.779378 
L 536.4 170.708386 
L 540.585 170.238778 
L 543.375 170.02212 
L 545.4675 170.048809 
L 547.56 170.271277 
L 550.35 170.826782 
L 555.93 172.078309 
L 558.0225 172.271892 
L 560.115 172.18474 
L 562.2075 171.790969 
L 564.3 171.11897 
L 567.09 169.936252 
L 570.5775 168.428853 
L 572.67 167.763024 
L 574.065 167.494584 
L 575.46 167.394782 
L 576.855 167.475054 
L 578.25 167.734062 
L 580.3425 168.422805 
L 582.435 169.37943 
L 587.3175 171.784144 
L 589.41 172.480139 
L 590.805 172.726644 
L 592.2 172.769565 
L 593.595 172.598651 
L 594.99 172.218204 
L 596.385 171.647001 
L 598.4775 170.506009 
L 604.755 166.630873 
L 606.15 166.031008 
L 607.545 165.626151 
L 608.94 165.443089 
L 610.335 165.494559 
L 611.73 165.778521 
L 613.125 166.278439 
L 615.2175 167.365075 
L 618.0075 169.207842 
L 621.495 171.550482 
L 623.5875 172.676744 
L 624.9825 173.232637 
L 626.3775 173.607675 
L 627.7725 173.794703 
L 629.1675 173.799145 
L 630.5625 173.637969 
L 632.655 173.14606 
L 635.445 172.211461 
L 639.63 170.818391 
L 641.7225 170.334083 
L 643.815 170.044747 
L 646.605 169.92 
L 646.605 169.92 
" style="fill:none;stroke:#008080;stroke-linecap:round;stroke-width:1.75;"/>
   </g>
   <g id="patch_3">
    <path d="M 90 270.72 
L 90 69.12 
" style="fill:none;stroke:#262626;stroke-linecap:square;stroke-linejoin:miter;stroke-width:1.25;"/>
   </g>
   <g id="patch_4">
    <path d="M 90 270.72 
L 648 270.72 
" style="fill:none;stroke:#262626;stroke-linecap:square;stroke-linejoin:miter;stroke-width:1.25;"/>
   </g>
  </g>
  <g id="axes_2">
   <g id="patch_5">
    <path d="M 90 512.64 
L 648 512.64 
L 648 311.04 
L 90 311.04 
z
" style="fill:#ffffff;"/>
   </g>
   <g id="matplotlib.axis_3">
    <g id="xtick_10">
     <g id="line2d_20">
      <g>
       <use style="fill:#262626;stroke:#262626;" x="191.454545" xlink:href="#m613b0c0c9d" y="512.64"/>
      </g>
     </g>
     <g id="text_19">
      <!-- 200 -->
      <g style="fill:#262626;" transform="translate(183.113139 532.797812)scale(0.1 -0.1)">
       <use xlink:href="#ArialMT-32"/>
       <use x="55.615234" xlink:href="#ArialMT-30"/>
       <use x="111.230469" xlink:href="#ArialMT-30"/>
      </g>
     </g>
    </g>
    <g id="xtick_11">
     <g id="line2d_21">
      <g>
       <use style="fill:#262626;stroke:#262626;" x="304.181818" xlink:href="#m613b0c0c9d" y="512.64"/>
      </g>
     </g>
     <g id="text_20">
      <!-- 400 -->
      <g style="fill:#262626;" transform="translate(295.840412 532.797812)scale(0.1 -0.1)">
       <use xlink:href="#ArialMT-34"/>
       <use x="55.615234" xlink:href="#ArialMT-30"/>
       <use x="111.230469" xlink:href="#ArialMT-30"/>
      </g>
     </g>
    </g>
    <g id="xtick_12">
     <g id="line2d_22">
      <g>
       <use style="fill:#262626;stroke:#262626;" x="416.909091" xlink:href="#m613b0c0c9d" y="512.64"/>
      </g>
     </g>
     <g id="text_21">
      <!-- 600 -->
      <g style="fill:#262626;" transform="translate(408.567685 532.797812)scale(0.1 -0.1)">
       <use xlink:href="#ArialMT-36"/>
       <use x="55.615234" xlink:href="#ArialMT-30"/>
       <use x="111.230469" xlink:href="#ArialMT-30"/>
      </g>
     </g>
    </g>
    <g id="xtick_13">
     <g id="line2d_23">
      <g>
       <use style="fill:#262626;stroke:#262626;" x="529.636364" xlink:href="#m613b0c0c9d" y="512.64"/>
      </g>
     </g>
     <g id="text_22">
      <!-- 800 -->
      <g style="fill:#262626;" transform="translate(521.294957 532.797812)scale(0.1 -0.1)">
       <use xlink:href="#ArialMT-38"/>
       <use x="55.615234" xlink:href="#ArialMT-30"/>
       <use x="111.230469" xlink:href="#ArialMT-30"/>
      </g>
     </g>
    </g>
    <g id="xtick_14">
     <g id="line2d_24">
      <g>
       <use style="fill:#262626;stroke:#262626;" x="642.363636" xlink:href="#m613b0c0c9d" y="512.64"/>
      </g>
     </g>
     <g id="text_23">
      <!-- 1000 -->
      <g style="fill:#262626;" transform="translate(631.241761 532.797812)scale(0.1 -0.1)">
       <use xlink:href="#ArialMT-31"/>
       <use x="55.615234" xlink:href="#ArialMT-30"/>
       <use x="111.230469" xlink:href="#ArialMT-30"/>
       <use x="166.845703" xlink:href="#ArialMT-30"/>
      </g>
     </g>
    </g>
   </g>
   <g id="matplotlib.axis_4">
    <g id="ytick_10">
     <g id="line2d_25">
      <g>
       <use style="fill:#262626;stroke:#262626;" x="90" xlink:href="#m8018970de0" y="512.64"/>
      </g>
     </g>
     <g id="text_24">
      <!-- 0 -->
      <g style="fill:#262626;" transform="translate(71.439063 516.218906)scale(0.1 -0.1)">
       <use xlink:href="#ArialMT-30"/>
      </g>
     </g>
    </g>
    <g id="ytick_11">
     <g id="line2d_26">
      <g>
       <use style="fill:#262626;stroke:#262626;" x="90" xlink:href="#m8018970de0" y="487.44"/>
      </g>
     </g>
     <g id="text_25">
      <!-- 5 -->
      <g style="fill:#262626;" transform="translate(71.439063 491.018906)scale(0.1 -0.1)">
       <use xlink:href="#ArialMT-35"/>
      </g>
     </g>
    </g>
    <g id="ytick_12">
     <g id="line2d_27">
      <g>
       <use style="fill:#262626;stroke:#262626;" x="90" xlink:href="#m8018970de0" y="462.24"/>
      </g>
     </g>
     <g id="text_26">
      <!-- 10 -->
      <g style="fill:#262626;" transform="translate(65.878125 465.818906)scale(0.1 -0.1)">
       <use xlink:href="#ArialMT-31"/>
       <use x="55.615234" xlink:href="#ArialMT-30"/>
      </g>
     </g>
    </g>
    <g id="ytick_13">
     <g id="line2d_28">
      <g>
       <use style="fill:#262626;stroke:#262626;" x="90" xlink:href="#m8018970de0" y="437.04"/>
      </g>
     </g>
     <g id="text_27">
      <!-- 15 -->
      <g style="fill:#262626;" transform="translate(65.878125 440.618906)scale(0.1 -0.1)">
       <use xlink:href="#ArialMT-31"/>
       <use x="55.615234" xlink:href="#ArialMT-35"/>
      </g>
     </g>
    </g>
    <g id="ytick_14">
     <g id="line2d_29">
      <g>
       <use style="fill:#262626;stroke:#262626;" x="90" xlink:href="#m8018970de0" y="411.84"/>
      </g>
     </g>
     <g id="text_28">
      <!-- 20 -->
      <g style="fill:#262626;" transform="translate(65.878125 415.418906)scale(0.1 -0.1)">
       <use xlink:href="#ArialMT-32"/>
       <use x="55.615234" xlink:href="#ArialMT-30"/>
      </g>
     </g>
    </g>
    <g id="ytick_15">
     <g id="line2d_30">
      <g>
       <use style="fill:#262626;stroke:#262626;" x="90" xlink:href="#m8018970de0" y="386.64"/>
      </g>
     </g>
     <g id="text_29">
      <!-- 25 -->
      <g style="fill:#262626;" transform="translate(65.878125 390.218906)scale(0.1 -0.1)">
       <use xlink:href="#ArialMT-32"/>
       <use x="55.615234" xlink:href="#ArialMT-35"/>
      </g>
     </g>
    </g>
    <g id="ytick_16">
     <g id="line2d_31">
      <g>
       <use style="fill:#262626;stroke:#262626;" x="90" xlink:href="#m8018970de0" y="361.44"/>
      </g>
     </g>
     <g id="text_30">
      <!-- 30 -->
      <g style="fill:#262626;" transform="translate(65.878125 365.018906)scale(0.1 -0.1)">
       <use xlink:href="#ArialMT-33"/>
       <use x="55.615234" xlink:href="#ArialMT-30"/>
      </g>
     </g>
    </g>
    <g id="ytick_17">
     <g id="line2d_32">
      <g>
       <use style="fill:#262626;stroke:#262626;" x="90" xlink:href="#m8018970de0" y="336.24"/>
      </g>
     </g>
     <g id="text_31">
      <!-- 35 -->
      <g style="fill:#262626;" transform="translate(65.878125 339.818906)scale(0.1 -0.1)">
       <use xlink:href="#ArialMT-33"/>
       <use x="55.615234" xlink:href="#ArialMT-35"/>
      </g>
     </g>
    </g>
    <g id="ytick_18">
     <g id="line2d_33">
      <g>
       <use style="fill:#262626;stroke:#262626;" x="90" xlink:href="#m8018970de0" y="311.04"/>
      </g>
     </g>
     <g id="text_32">
      <!-- 40 -->
      <g style="fill:#262626;" transform="translate(65.878125 314.618906)scale(0.1 -0.1)">
       <use xlink:href="#ArialMT-34"/>
       <use x="55.615234" xlink:href="#ArialMT-30"/>
      </g>
     </g>
    </g>
   </g>
   <g id="line2d_34">
    <path clip-path="url(#p9c90da00f9)" d="M 90 488.562059 
L 95.636364 492.871917 
L 101.272727 491.915277 
L 106.909091 490.291312 
L 112.545455 492.192009 
L 118.181818 490.692663 
L 123.818182 490.203121 
L 129.454545 491.968658 
L 135.090909 490.163889 
L 140.727273 490.392837 
L 146.363636 490.241829 
L 152 489.156296 
L 157.636364 490.240305 
L 163.272727 490.645166 
L 168.909091 488.187222 
L 174.545455 488.633986 
L 180.181818 487.313077 
L 185.818182 487.018973 
L 191.454545 487.338343 
L 197.090909 486.121391 
L 202.727273 487.201243 
L 208.363636 484.042031 
L 214 483.157918 
L 219.636364 483.169266 
L 225.272727 482.846357 
L 230.909091 480.992047 
L 236.545455 479.145187 
L 242.181818 476.443916 
L 247.818182 475.314111 
L 253.454545 475.654125 
L 259.090909 473.305387 
L 264.727273 469.316541 
L 270.363636 463.226508 
L 276 459.185057 
L 281.636364 457.614718 
L 287.272727 454.794335 
L 292.909091 445.504843 
L 298.545455 423.732573 
L 304.181818 397.596726 
L 309.818182 374.961344 
L 315.454545 359.936381 
L 321.090909 350.604229 
L 326.727273 348.320806 
L 332.363636 355.280194 
L 338 371.866917 
L 343.636364 395.340341 
L 349.272727 419.997954 
L 354.909091 443.187999 
L 360.545455 460.277658 
L 366.181818 467.98198 
L 371.818182 471.852273 
L 377.454545 475.259843 
L 383.090909 478.489151 
L 388.727273 479.074231 
L 394.363636 476.894748 
L 400 474.552455 
L 405.636364 471.950812 
L 411.272727 468.681632 
L 416.909091 461.027911 
L 422.545455 441.166731 
L 428.181818 416.729328 
L 433.818182 392.840566 
L 439.454545 373.276917 
L 445.090909 358.526684 
L 450.727273 350.201791 
L 456.363636 350.555151 
L 462 360.822412 
L 467.636364 379.751599 
L 473.272727 402.879459 
L 478.909091 427.733924 
L 484.545455 450.40347 
L 490.181818 458.450826 
L 495.818182 461.938755 
L 501.454545 465.043265 
L 507.090909 468.053386 
L 512.727273 473.465468 
L 518.363636 478.295793 
L 524 480.590013 
L 529.636364 481.097259 
L 535.272727 482.252942 
L 540.909091 484.406434 
L 546.545455 486.952771 
L 552.181818 488.643123 
L 557.818182 489.036349 
L 563.454545 489.019669 
L 569.090909 489.199902 
L 574.727273 490.838322 
L 580.363636 491.689996 
L 586 492.993746 
L 591.636364 493.911524 
L 597.272727 494.461336 
L 602.909091 495.099739 
L 608.545455 495.608991 
L 614.181818 496.429338 
L 619.818182 496.688156 
L 625.454545 496.971878 
" style="fill:none;stroke:#b22222;stroke-linecap:round;stroke-width:1.75;"/>
   </g>
   <g id="patch_6">
    <path d="M 90 512.64 
L 90 311.04 
" style="fill:none;stroke:#262626;stroke-linecap:square;stroke-linejoin:miter;stroke-width:1.25;"/>
   </g>
   <g id="patch_7">
    <path d="M 90 512.64 
L 648 512.64 
" style="fill:none;stroke:#262626;stroke-linecap:square;stroke-linejoin:miter;stroke-width:1.25;"/>
   </g>
   <g id="text_33">
    <!-- f = 970 Hz -->
    <defs>
     <path d="M 8.6875 0 
L 8.6875 45.015625 
L 0.921875 45.015625 
L 0.921875 51.859375 
L 8.6875 51.859375 
L 8.6875 57.375 
Q 8.6875 62.59375 9.625 65.140625 
Q 10.890625 68.5625 14.078125 70.671875 
Q 17.28125 72.796875 23.046875 72.796875 
Q 26.765625 72.796875 31.25 71.921875 
L 29.9375 64.265625 
Q 27.203125 64.75 24.75 64.75 
Q 20.75 64.75 19.09375 63.03125 
Q 17.4375 61.328125 17.4375 56.640625 
L 17.4375 51.859375 
L 27.546875 51.859375 
L 27.546875 45.015625 
L 17.4375 45.015625 
L 17.4375 0 
z
" id="ArialMT-66"/>
     <path id="ArialMT-20"/>
     <path d="M 52.828125 42.09375 
L 5.5625 42.09375 
L 5.5625 50.296875 
L 52.828125 50.296875 
z
M 52.828125 20.359375 
L 5.5625 20.359375 
L 5.5625 28.5625 
L 52.828125 28.5625 
z
" id="ArialMT-3d"/>
     <path d="M 5.46875 16.546875 
L 13.921875 17.328125 
Q 14.984375 11.375 18.015625 8.6875 
Q 21.046875 6 25.78125 6 
Q 29.828125 6 32.875 7.859375 
Q 35.9375 9.71875 37.890625 12.8125 
Q 39.84375 15.921875 41.15625 21.1875 
Q 42.484375 26.46875 42.484375 31.9375 
Q 42.484375 32.515625 42.4375 33.6875 
Q 39.796875 29.5 35.234375 26.875 
Q 30.671875 24.265625 25.34375 24.265625 
Q 16.453125 24.265625 10.296875 30.703125 
Q 4.15625 37.15625 4.15625 47.703125 
Q 4.15625 58.59375 10.578125 65.234375 
Q 17 71.875 26.65625 71.875 
Q 33.640625 71.875 39.421875 68.109375 
Q 45.21875 64.359375 48.21875 57.390625 
Q 51.21875 50.4375 51.21875 37.25 
Q 51.21875 23.53125 48.234375 15.40625 
Q 45.265625 7.28125 39.375 3.03125 
Q 33.5 -1.21875 25.59375 -1.21875 
Q 17.1875 -1.21875 11.859375 3.4375 
Q 6.546875 8.109375 5.46875 16.546875 
z
M 41.453125 48.140625 
Q 41.453125 55.71875 37.421875 60.15625 
Q 33.40625 64.59375 27.734375 64.59375 
Q 21.875 64.59375 17.53125 59.8125 
Q 13.1875 55.03125 13.1875 47.40625 
Q 13.1875 40.578125 17.3125 36.296875 
Q 21.4375 32.03125 27.484375 32.03125 
Q 33.59375 32.03125 37.515625 36.296875 
Q 41.453125 40.578125 41.453125 48.140625 
z
" id="ArialMT-39"/>
     <path d="M 8.015625 0 
L 8.015625 71.578125 
L 17.484375 71.578125 
L 17.484375 42.1875 
L 54.6875 42.1875 
L 54.6875 71.578125 
L 64.15625 71.578125 
L 64.15625 0 
L 54.6875 0 
L 54.6875 33.734375 
L 17.484375 33.734375 
L 17.484375 0 
z
" id="ArialMT-48"/>
     <path d="M 1.953125 0 
L 1.953125 7.125 
L 34.96875 45.015625 
Q 29.34375 44.734375 25.046875 44.734375 
L 3.90625 44.734375 
L 3.90625 51.859375 
L 46.296875 51.859375 
L 46.296875 46.046875 
L 18.21875 13.140625 
L 12.796875 7.125 
Q 18.703125 7.5625 23.875 7.5625 
L 47.859375 7.5625 
L 47.859375 0 
z
" id="ArialMT-7a"/>
    </defs>
    <g style="fill:#262626;" transform="translate(529.636364 364.542187)scale(0.12 -0.12)">
     <use xlink:href="#ArialMT-66"/>
     <use x="27.783203" xlink:href="#ArialMT-20"/>
     <use x="55.566406" xlink:href="#ArialMT-3d"/>
     <use x="113.964844" xlink:href="#ArialMT-20"/>
     <use x="141.748047" xlink:href="#ArialMT-39"/>
     <use x="197.363281" xlink:href="#ArialMT-37"/>
     <use x="252.978516" xlink:href="#ArialMT-30"/>
     <use x="308.59375" xlink:href="#ArialMT-20"/>
     <use x="336.376953" xlink:href="#ArialMT-48"/>
     <use x="408.59375" xlink:href="#ArialMT-7a"/>
    </g>
   </g>
   <g id="PathCollection_1">
    <defs>
     <path d="M 0 3.5 
C 0.928211 3.5 1.81853 3.131218 2.474874 2.474874 
C 3.131218 1.81853 3.5 0.928211 3.5 0 
C 3.5 -0.928211 3.131218 -1.81853 2.474874 -2.474874 
C 1.81853 -3.131218 0.928211 -3.5 0 -3.5 
C -0.928211 -3.5 -1.81853 -3.131218 -2.474874 -2.474874 
C -3.131218 -1.81853 -3.5 -0.928211 -3.5 0 
C -3.5 0.928211 -3.131218 1.81853 -2.474874 2.474874 
C -1.81853 3.131218 -0.928211 3.5 0 3.5 
z
" id="m44aeea9272" style="stroke:#800000;stroke-width:0.3;"/>
    </defs>
    <g clip-path="url(#p9c90da00f9)">
     <use style="fill:#800000;stroke:#800000;stroke-width:0.3;" x="625.454545" xlink:href="#m44aeea9272" y="496.971878"/>
    </g>
   </g>
  </g>
 </g>
 <defs>
  <clipPath id="pba869b3242">
   <rect height="201.6" width="558" x="90" y="69.12"/>
  </clipPath>
  <clipPath id="p9c90da00f9">
   <rect height="201.6" width="558" x="90" y="311.04"/>
  </clipPath>
 </defs>
</svg>
