<?xml version="1.0" encoding="utf-8" standalone="no"?>
<!DOCTYPE svg PUBLIC "-//W3C//DTD SVG 1.1//EN"
  "http://www.w3.org/Graphics/SVG/1.1/DTD/svg11.dtd">
<!-- Created with matplotlib (http://matplotlib.org/) -->
<svg height="576pt" version="1.1" viewBox="0 0 720 576" width="720pt" xmlns="http://www.w3.org/2000/svg" xmlns:xlink="http://www.w3.org/1999/xlink">
 <defs>
  <style type="text/css">
*{stroke-linecap:butt;stroke-linejoin:round;}
  </style>
 </defs>
 <g id="figure_1">
  <g id="patch_1">
   <path d="M 0 576 
L 720 576 
L 720 0 
L 0 0 
z
" style="fill:#ffffff;"/>
  </g>
  <g id="axes_1">
   <g id="patch_2">
    <path d="M 90 270.72 
L 648 270.72 
L 648 69.12 
L 90 69.12 
z
" style="fill:#ffffff;"/>
   </g>
   <g id="matplotlib.axis_1">
    <g id="xtick_1">
     <g id="line2d_1">
      <defs>
       <path d="M 0 0 
L 0 6 
" id="mca21bc7e22" style="stroke:#262626;"/>
      </defs>
      <g>
       <use style="fill:#262626;stroke:#262626;" x="90" xlink:href="#mca21bc7e22" y="270.72"/>
      </g>
     </g>
     <g id="text_1">
      <!-- 0 -->
      <defs>
       <path d="M 4.15625 35.296875 
Q 4.15625 48 6.765625 55.734375 
Q 9.375 63.484375 14.515625 67.671875 
Q 19.671875 71.875 27.484375 71.875 
Q 33.25 71.875 37.59375 69.546875 
Q 41.9375 67.234375 44.765625 62.859375 
Q 47.609375 58.5 49.21875 52.21875 
Q 50.828125 45.953125 50.828125 35.296875 
Q 50.828125 22.703125 48.234375 14.96875 
Q 45.65625 7.234375 40.5 3 
Q 35.359375 -1.21875 27.484375 -1.21875 
Q 17.140625 -1.21875 11.234375 6.203125 
Q 4.15625 15.140625 4.15625 35.296875 
z
M 13.1875 35.296875 
Q 13.1875 17.671875 17.3125 11.828125 
Q 21.4375 6 27.484375 6 
Q 33.546875 6 37.671875 11.859375 
Q 41.796875 17.71875 41.796875 35.296875 
Q 41.796875 52.984375 37.671875 58.78125 
Q 33.546875 64.59375 27.390625 64.59375 
Q 21.34375 64.59375 17.71875 59.46875 
Q 13.1875 52.9375 13.1875 35.296875 
z
" id="ArialMT-30"/>
      </defs>
      <g style="fill:#262626;" transform="translate(87.219531 290.877812)scale(0.1 -0.1)">
       <use xlink:href="#ArialMT-30"/>
      </g>
     </g>
    </g>
    <g id="xtick_2">
     <g id="line2d_2">
      <g>
       <use style="fill:#262626;stroke:#262626;" x="159.75" xlink:href="#mca21bc7e22" y="270.72"/>
      </g>
     </g>
     <g id="text_2">
      <!-- 100 -->
      <defs>
       <path d="M 37.25 0 
L 28.46875 0 
L 28.46875 56 
Q 25.296875 52.984375 20.140625 49.953125 
Q 14.984375 46.921875 10.890625 45.40625 
L 10.890625 53.90625 
Q 18.265625 57.375 23.78125 62.296875 
Q 29.296875 67.234375 31.59375 71.875 
L 37.25 71.875 
z
" id="ArialMT-31"/>
      </defs>
      <g style="fill:#262626;" transform="translate(151.408594 290.877812)scale(0.1 -0.1)">
       <use xlink:href="#ArialMT-31"/>
       <use x="55.615234" xlink:href="#ArialMT-30"/>
       <use x="111.230469" xlink:href="#ArialMT-30"/>
      </g>
     </g>
    </g>
    <g id="xtick_3">
     <g id="line2d_3">
      <g>
       <use style="fill:#262626;stroke:#262626;" x="229.5" xlink:href="#mca21bc7e22" y="270.72"/>
      </g>
     </g>
     <g id="text_3">
      <!-- 200 -->
      <defs>
       <path d="M 50.34375 8.453125 
L 50.34375 0 
L 3.03125 0 
Q 2.9375 3.171875 4.046875 6.109375 
Q 5.859375 10.9375 9.828125 15.625 
Q 13.8125 20.3125 21.34375 26.46875 
Q 33.015625 36.03125 37.109375 41.625 
Q 41.21875 47.21875 41.21875 52.203125 
Q 41.21875 57.421875 37.46875 61 
Q 33.734375 64.59375 27.734375 64.59375 
Q 21.390625 64.59375 17.578125 60.78125 
Q 13.765625 56.984375 13.71875 50.25 
L 4.6875 51.171875 
Q 5.609375 61.28125 11.65625 66.578125 
Q 17.71875 71.875 27.9375 71.875 
Q 38.234375 71.875 44.234375 66.15625 
Q 50.25 60.453125 50.25 52 
Q 50.25 47.703125 48.484375 43.546875 
Q 46.734375 39.40625 42.65625 34.8125 
Q 38.578125 30.21875 29.109375 22.21875 
Q 21.1875 15.578125 18.9375 13.203125 
Q 16.703125 10.84375 15.234375 8.453125 
z
" id="ArialMT-32"/>
      </defs>
      <g style="fill:#262626;" transform="translate(221.158594 290.877812)scale(0.1 -0.1)">
       <use xlink:href="#ArialMT-32"/>
       <use x="55.615234" xlink:href="#ArialMT-30"/>
       <use x="111.230469" xlink:href="#ArialMT-30"/>
      </g>
     </g>
    </g>
    <g id="xtick_4">
     <g id="line2d_4">
      <g>
       <use style="fill:#262626;stroke:#262626;" x="299.25" xlink:href="#mca21bc7e22" y="270.72"/>
      </g>
     </g>
     <g id="text_4">
      <!-- 300 -->
      <defs>
       <path d="M 4.203125 18.890625 
L 12.984375 20.0625 
Q 14.5 12.59375 18.140625 9.296875 
Q 21.78125 6 27 6 
Q 33.203125 6 37.46875 10.296875 
Q 41.75 14.59375 41.75 20.953125 
Q 41.75 27 37.796875 30.921875 
Q 33.84375 34.859375 27.734375 34.859375 
Q 25.25 34.859375 21.53125 33.890625 
L 22.515625 41.609375 
Q 23.390625 41.5 23.921875 41.5 
Q 29.546875 41.5 34.03125 44.421875 
Q 38.53125 47.359375 38.53125 53.46875 
Q 38.53125 58.296875 35.25 61.46875 
Q 31.984375 64.65625 26.8125 64.65625 
Q 21.6875 64.65625 18.265625 61.421875 
Q 14.84375 58.203125 13.875 51.765625 
L 5.078125 53.328125 
Q 6.6875 62.15625 12.390625 67.015625 
Q 18.109375 71.875 26.609375 71.875 
Q 32.46875 71.875 37.390625 69.359375 
Q 42.328125 66.84375 44.9375 62.5 
Q 47.5625 58.15625 47.5625 53.265625 
Q 47.5625 48.640625 45.0625 44.828125 
Q 42.578125 41.015625 37.703125 38.765625 
Q 44.046875 37.3125 47.5625 32.6875 
Q 51.078125 28.078125 51.078125 21.140625 
Q 51.078125 11.765625 44.234375 5.25 
Q 37.40625 -1.265625 26.953125 -1.265625 
Q 17.53125 -1.265625 11.296875 4.34375 
Q 5.078125 9.96875 4.203125 18.890625 
z
" id="ArialMT-33"/>
      </defs>
      <g style="fill:#262626;" transform="translate(290.908594 290.877812)scale(0.1 -0.1)">
       <use xlink:href="#ArialMT-33"/>
       <use x="55.615234" xlink:href="#ArialMT-30"/>
       <use x="111.230469" xlink:href="#ArialMT-30"/>
      </g>
     </g>
    </g>
    <g id="xtick_5">
     <g id="line2d_5">
      <g>
       <use style="fill:#262626;stroke:#262626;" x="369" xlink:href="#mca21bc7e22" y="270.72"/>
      </g>
     </g>
     <g id="text_5">
      <!-- 400 -->
      <defs>
       <path d="M 32.328125 0 
L 32.328125 17.140625 
L 1.265625 17.140625 
L 1.265625 25.203125 
L 33.9375 71.578125 
L 41.109375 71.578125 
L 41.109375 25.203125 
L 50.78125 25.203125 
L 50.78125 17.140625 
L 41.109375 17.140625 
L 41.109375 0 
z
M 32.328125 25.203125 
L 32.328125 57.46875 
L 9.90625 25.203125 
z
" id="ArialMT-34"/>
      </defs>
      <g style="fill:#262626;" transform="translate(360.658594 290.877812)scale(0.1 -0.1)">
       <use xlink:href="#ArialMT-34"/>
       <use x="55.615234" xlink:href="#ArialMT-30"/>
       <use x="111.230469" xlink:href="#ArialMT-30"/>
      </g>
     </g>
    </g>
    <g id="xtick_6">
     <g id="line2d_6">
      <g>
       <use style="fill:#262626;stroke:#262626;" x="438.75" xlink:href="#mca21bc7e22" y="270.72"/>
      </g>
     </g>
     <g id="text_6">
      <!-- 500 -->
      <defs>
       <path d="M 4.15625 18.75 
L 13.375 19.53125 
Q 14.40625 12.796875 18.140625 9.390625 
Q 21.875 6 27.15625 6 
Q 33.5 6 37.890625 10.78125 
Q 42.28125 15.578125 42.28125 23.484375 
Q 42.28125 31 38.0625 35.34375 
Q 33.84375 39.703125 27 39.703125 
Q 22.75 39.703125 19.328125 37.765625 
Q 15.921875 35.84375 13.96875 32.765625 
L 5.71875 33.84375 
L 12.640625 70.609375 
L 48.25 70.609375 
L 48.25 62.203125 
L 19.671875 62.203125 
L 15.828125 42.96875 
Q 22.265625 47.46875 29.34375 47.46875 
Q 38.71875 47.46875 45.15625 40.96875 
Q 51.609375 34.46875 51.609375 24.265625 
Q 51.609375 14.546875 45.953125 7.46875 
Q 39.0625 -1.21875 27.15625 -1.21875 
Q 17.390625 -1.21875 11.203125 4.25 
Q 5.03125 9.71875 4.15625 18.75 
z
" id="ArialMT-35"/>
      </defs>
      <g style="fill:#262626;" transform="translate(430.408594 290.877812)scale(0.1 -0.1)">
       <use xlink:href="#ArialMT-35"/>
       <use x="55.615234" xlink:href="#ArialMT-30"/>
       <use x="111.230469" xlink:href="#ArialMT-30"/>
      </g>
     </g>
    </g>
    <g id="xtick_7">
     <g id="line2d_7">
      <g>
       <use style="fill:#262626;stroke:#262626;" x="508.5" xlink:href="#mca21bc7e22" y="270.72"/>
      </g>
     </g>
     <g id="text_7">
      <!-- 600 -->
      <defs>
       <path d="M 49.75 54.046875 
L 41.015625 53.375 
Q 39.84375 58.546875 37.703125 60.890625 
Q 34.125 64.65625 28.90625 64.65625 
Q 24.703125 64.65625 21.53125 62.3125 
Q 17.390625 59.28125 14.984375 53.46875 
Q 12.59375 47.65625 12.5 36.921875 
Q 15.671875 41.75 20.265625 44.09375 
Q 24.859375 46.4375 29.890625 46.4375 
Q 38.671875 46.4375 44.84375 39.96875 
Q 51.03125 33.5 51.03125 23.25 
Q 51.03125 16.5 48.125 10.71875 
Q 45.21875 4.9375 40.140625 1.859375 
Q 35.0625 -1.21875 28.609375 -1.21875 
Q 17.625 -1.21875 10.6875 6.859375 
Q 3.765625 14.9375 3.765625 33.5 
Q 3.765625 54.25 11.421875 63.671875 
Q 18.109375 71.875 29.4375 71.875 
Q 37.890625 71.875 43.28125 67.140625 
Q 48.6875 62.40625 49.75 54.046875 
z
M 13.875 23.1875 
Q 13.875 18.65625 15.796875 14.5 
Q 17.71875 10.359375 21.1875 8.171875 
Q 24.65625 6 28.46875 6 
Q 34.03125 6 38.03125 10.484375 
Q 42.046875 14.984375 42.046875 22.703125 
Q 42.046875 30.125 38.078125 34.390625 
Q 34.125 38.671875 28.125 38.671875 
Q 22.171875 38.671875 18.015625 34.390625 
Q 13.875 30.125 13.875 23.1875 
z
" id="ArialMT-36"/>
      </defs>
      <g style="fill:#262626;" transform="translate(500.158594 290.877812)scale(0.1 -0.1)">
       <use xlink:href="#ArialMT-36"/>
       <use x="55.615234" xlink:href="#ArialMT-30"/>
       <use x="111.230469" xlink:href="#ArialMT-30"/>
      </g>
     </g>
    </g>
    <g id="xtick_8">
     <g id="line2d_8">
      <g>
       <use style="fill:#262626;stroke:#262626;" x="578.25" xlink:href="#mca21bc7e22" y="270.72"/>
      </g>
     </g>
     <g id="text_8">
      <!-- 700 -->
      <defs>
       <path d="M 4.734375 62.203125 
L 4.734375 70.65625 
L 51.078125 70.65625 
L 51.078125 63.8125 
Q 44.234375 56.546875 37.515625 44.484375 
Q 30.8125 32.421875 27.15625 19.671875 
Q 24.515625 10.6875 23.78125 0 
L 14.75 0 
Q 14.890625 8.453125 18.0625 20.40625 
Q 21.234375 32.375 27.171875 43.484375 
Q 33.109375 54.59375 39.796875 62.203125 
z
" id="ArialMT-37"/>
      </defs>
      <g style="fill:#262626;" transform="translate(569.908594 290.877812)scale(0.1 -0.1)">
       <use xlink:href="#ArialMT-37"/>
       <use x="55.615234" xlink:href="#ArialMT-30"/>
       <use x="111.230469" xlink:href="#ArialMT-30"/>
      </g>
     </g>
    </g>
    <g id="xtick_9">
     <g id="line2d_9">
      <g>
       <use style="fill:#262626;stroke:#262626;" x="648" xlink:href="#mca21bc7e22" y="270.72"/>
      </g>
     </g>
     <g id="text_9">
      <!-- 800 -->
      <defs>
       <path d="M 17.671875 38.8125 
Q 12.203125 40.828125 9.5625 44.53125 
Q 6.9375 48.25 6.9375 53.421875 
Q 6.9375 61.234375 12.546875 66.546875 
Q 18.171875 71.875 27.484375 71.875 
Q 36.859375 71.875 42.578125 66.421875 
Q 48.296875 60.984375 48.296875 53.171875 
Q 48.296875 48.1875 45.671875 44.5 
Q 43.0625 40.828125 37.75 38.8125 
Q 44.34375 36.671875 47.78125 31.875 
Q 51.21875 27.09375 51.21875 20.453125 
Q 51.21875 11.28125 44.71875 5.03125 
Q 38.234375 -1.21875 27.640625 -1.21875 
Q 17.046875 -1.21875 10.546875 5.046875 
Q 4.046875 11.328125 4.046875 20.703125 
Q 4.046875 27.6875 7.59375 32.390625 
Q 11.140625 37.109375 17.671875 38.8125 
z
M 15.921875 53.71875 
Q 15.921875 48.640625 19.1875 45.40625 
Q 22.46875 42.1875 27.6875 42.1875 
Q 32.765625 42.1875 36.015625 45.375 
Q 39.265625 48.578125 39.265625 53.21875 
Q 39.265625 58.0625 35.90625 61.359375 
Q 32.5625 64.65625 27.59375 64.65625 
Q 22.5625 64.65625 19.234375 61.421875 
Q 15.921875 58.203125 15.921875 53.71875 
z
M 13.09375 20.65625 
Q 13.09375 16.890625 14.875 13.375 
Q 16.65625 9.859375 20.171875 7.921875 
Q 23.6875 6 27.734375 6 
Q 34.03125 6 38.125 10.046875 
Q 42.234375 14.109375 42.234375 20.359375 
Q 42.234375 26.703125 38.015625 30.859375 
Q 33.796875 35.015625 27.4375 35.015625 
Q 21.234375 35.015625 17.15625 30.90625 
Q 13.09375 26.8125 13.09375 20.65625 
z
" id="ArialMT-38"/>
      </defs>
      <g style="fill:#262626;" transform="translate(639.658594 290.877812)scale(0.1 -0.1)">
       <use xlink:href="#ArialMT-38"/>
       <use x="55.615234" xlink:href="#ArialMT-30"/>
       <use x="111.230469" xlink:href="#ArialMT-30"/>
      </g>
     </g>
    </g>
   </g>
   <g id="matplotlib.axis_2">
    <g id="ytick_1">
     <g id="line2d_10">
      <defs>
       <path d="M 0 0 
L -6 0 
" id="m4baca14671" style="stroke:#262626;"/>
      </defs>
      <g>
       <use style="fill:#262626;stroke:#262626;" x="90" xlink:href="#m4baca14671" y="270.72"/>
      </g>
     </g>
     <g id="text_10">
      <!-- −0.20 -->
      <defs>
       <path d="M 52.828125 31.203125 
L 5.5625 31.203125 
L 5.5625 39.40625 
L 52.828125 39.40625 
z
" id="ArialMT-2212"/>
       <path d="M 9.078125 0 
L 9.078125 10.015625 
L 19.09375 10.015625 
L 19.09375 0 
z
" id="ArialMT-2e"/>
      </defs>
      <g style="fill:#262626;" transform="translate(51.698437 274.298906)scale(0.1 -0.1)">
       <use xlink:href="#ArialMT-2212"/>
       <use x="58.398438" xlink:href="#ArialMT-30"/>
       <use x="114.013672" xlink:href="#ArialMT-2e"/>
       <use x="141.796875" xlink:href="#ArialMT-32"/>
       <use x="197.412109" xlink:href="#ArialMT-30"/>
      </g>
     </g>
    </g>
    <g id="ytick_2">
     <g id="line2d_11">
      <g>
       <use style="fill:#262626;stroke:#262626;" x="90" xlink:href="#m4baca14671" y="245.52"/>
      </g>
     </g>
     <g id="text_11">
      <!-- −0.15 -->
      <g style="fill:#262626;" transform="translate(51.698437 249.098906)scale(0.1 -0.1)">
       <use xlink:href="#ArialMT-2212"/>
       <use x="58.398438" xlink:href="#ArialMT-30"/>
       <use x="114.013672" xlink:href="#ArialMT-2e"/>
       <use x="141.796875" xlink:href="#ArialMT-31"/>
       <use x="197.412109" xlink:href="#ArialMT-35"/>
      </g>
     </g>
    </g>
    <g id="ytick_3">
     <g id="line2d_12">
      <g>
       <use style="fill:#262626;stroke:#262626;" x="90" xlink:href="#m4baca14671" y="220.32"/>
      </g>
     </g>
     <g id="text_12">
      <!-- −0.10 -->
      <g style="fill:#262626;" transform="translate(51.698437 223.898906)scale(0.1 -0.1)">
       <use xlink:href="#ArialMT-2212"/>
       <use x="58.398438" xlink:href="#ArialMT-30"/>
       <use x="114.013672" xlink:href="#ArialMT-2e"/>
       <use x="141.796875" xlink:href="#ArialMT-31"/>
       <use x="197.412109" xlink:href="#ArialMT-30"/>
      </g>
     </g>
    </g>
    <g id="ytick_4">
     <g id="line2d_13">
      <g>
       <use style="fill:#262626;stroke:#262626;" x="90" xlink:href="#m4baca14671" y="195.12"/>
      </g>
     </g>
     <g id="text_13">
      <!-- −0.05 -->
      <g style="fill:#262626;" transform="translate(51.698437 198.698906)scale(0.1 -0.1)">
       <use xlink:href="#ArialMT-2212"/>
       <use x="58.398438" xlink:href="#ArialMT-30"/>
       <use x="114.013672" xlink:href="#ArialMT-2e"/>
       <use x="141.796875" xlink:href="#ArialMT-30"/>
       <use x="197.412109" xlink:href="#ArialMT-35"/>
      </g>
     </g>
    </g>
    <g id="ytick_5">
     <g id="line2d_14">
      <g>
       <use style="fill:#262626;stroke:#262626;" x="90" xlink:href="#m4baca14671" y="169.92"/>
      </g>
     </g>
     <g id="text_14">
      <!-- 0.00 -->
      <g style="fill:#262626;" transform="translate(57.539062 173.498906)scale(0.1 -0.1)">
       <use xlink:href="#ArialMT-30"/>
       <use x="55.615234" xlink:href="#ArialMT-2e"/>
       <use x="83.398438" xlink:href="#ArialMT-30"/>
       <use x="139.013672" xlink:href="#ArialMT-30"/>
      </g>
     </g>
    </g>
    <g id="ytick_6">
     <g id="line2d_15">
      <g>
       <use style="fill:#262626;stroke:#262626;" x="90" xlink:href="#m4baca14671" y="144.72"/>
      </g>
     </g>
     <g id="text_15">
      <!-- 0.05 -->
      <g style="fill:#262626;" transform="translate(57.539062 148.298906)scale(0.1 -0.1)">
       <use xlink:href="#ArialMT-30"/>
       <use x="55.615234" xlink:href="#ArialMT-2e"/>
       <use x="83.398438" xlink:href="#ArialMT-30"/>
       <use x="139.013672" xlink:href="#ArialMT-35"/>
      </g>
     </g>
    </g>
    <g id="ytick_7">
     <g id="line2d_16">
      <g>
       <use style="fill:#262626;stroke:#262626;" x="90" xlink:href="#m4baca14671" y="119.52"/>
      </g>
     </g>
     <g id="text_16">
      <!-- 0.10 -->
      <g style="fill:#262626;" transform="translate(57.539062 123.098906)scale(0.1 -0.1)">
       <use xlink:href="#ArialMT-30"/>
       <use x="55.615234" xlink:href="#ArialMT-2e"/>
       <use x="83.398438" xlink:href="#ArialMT-31"/>
       <use x="139.013672" xlink:href="#ArialMT-30"/>
      </g>
     </g>
    </g>
    <g id="ytick_8">
     <g id="line2d_17">
      <g>
       <use style="fill:#262626;stroke:#262626;" x="90" xlink:href="#m4baca14671" y="94.32"/>
      </g>
     </g>
     <g id="text_17">
      <!-- 0.15 -->
      <g style="fill:#262626;" transform="translate(57.539062 97.898906)scale(0.1 -0.1)">
       <use xlink:href="#ArialMT-30"/>
       <use x="55.615234" xlink:href="#ArialMT-2e"/>
       <use x="83.398438" xlink:href="#ArialMT-31"/>
       <use x="139.013672" xlink:href="#ArialMT-35"/>
      </g>
     </g>
    </g>
    <g id="ytick_9">
     <g id="line2d_18">
      <g>
       <use style="fill:#262626;stroke:#262626;" x="90" xlink:href="#m4baca14671" y="69.12"/>
      </g>
     </g>
     <g id="text_18">
      <!-- 0.20 -->
      <g style="fill:#262626;" transform="translate(57.539062 72.698906)scale(0.1 -0.1)">
       <use xlink:href="#ArialMT-30"/>
       <use x="55.615234" xlink:href="#ArialMT-2e"/>
       <use x="83.398438" xlink:href="#ArialMT-32"/>
       <use x="139.013672" xlink:href="#ArialMT-30"/>
      </g>
     </g>
    </g>
   </g>
   <g id="PolyCollection_1">
    <path clip-path="url(#p1c0d534858)" d="M 90 174.359003 
L 90 169.92 
L 90.6975 169.92 
L 91.395 169.92 
L 92.0925 169.92 
L 92.79 169.92 
L 93.4875 169.92 
L 94.185 169.92 
L 94.8825 169.92 
L 95.58 169.92 
L 96.2775 169.92 
L 96.975 169.92 
L 97.6725 169.92 
L 98.37 169.92 
L 99.0675 169.92 
L 99.765 169.92 
L 100.4625 169.92 
L 101.16 169.92 
L 101.8575 169.92 
L 102.555 169.92 
L 103.2525 169.92 
L 103.95 169.92 
L 104.6475 169.92 
L 105.345 169.92 
L 106.0425 169.92 
L 106.74 169.92 
L 107.4375 169.92 
L 108.135 169.92 
L 108.8325 169.92 
L 109.53 169.92 
L 110.2275 169.92 
L 110.925 169.92 
L 111.6225 169.92 
L 112.32 169.92 
L 113.0175 169.92 
L 113.715 169.92 
L 114.4125 169.92 
L 115.11 169.92 
L 115.8075 169.92 
L 116.505 169.92 
L 117.2025 169.92 
L 117.9 169.92 
L 118.5975 169.92 
L 119.295 169.92 
L 119.9925 169.92 
L 120.69 169.92 
L 121.3875 169.92 
L 122.085 169.92 
L 122.7825 169.92 
L 123.48 169.92 
L 124.1775 169.92 
L 124.875 169.92 
L 125.5725 169.92 
L 126.27 169.92 
L 126.9675 169.92 
L 127.665 169.92 
L 128.3625 169.92 
L 129.06 169.92 
L 129.7575 169.92 
L 130.455 169.92 
L 131.1525 169.92 
L 131.85 169.92 
L 132.5475 169.92 
L 133.245 169.92 
L 133.9425 169.92 
L 134.64 169.92 
L 135.3375 169.92 
L 136.035 169.92 
L 136.7325 169.92 
L 137.43 169.92 
L 138.1275 169.92 
L 138.825 169.92 
L 139.5225 169.92 
L 140.22 169.92 
L 140.9175 169.92 
L 141.615 169.92 
L 142.3125 169.92 
L 143.01 169.92 
L 143.7075 169.92 
L 144.405 169.92 
L 145.1025 169.92 
L 145.8 169.92 
L 146.4975 169.92 
L 147.195 169.92 
L 147.8925 169.92 
L 148.59 169.92 
L 149.2875 169.92 
L 149.985 169.92 
L 150.6825 169.92 
L 151.38 169.92 
L 152.0775 169.92 
L 152.775 169.92 
L 153.4725 169.92 
L 154.17 169.92 
L 154.8675 169.92 
L 155.565 169.92 
L 156.2625 169.92 
L 156.96 169.92 
L 157.6575 169.92 
L 158.355 169.92 
L 159.0525 169.92 
L 159.75 169.92 
L 160.4475 169.92 
L 161.145 169.92 
L 161.8425 169.92 
L 162.54 169.92 
L 163.2375 169.92 
L 163.935 169.92 
L 164.6325 169.92 
L 165.33 169.92 
L 166.0275 169.92 
L 166.725 169.92 
L 167.4225 169.92 
L 168.12 169.92 
L 168.8175 169.92 
L 169.515 169.92 
L 170.2125 169.92 
L 170.91 169.92 
L 171.6075 169.92 
L 172.305 169.92 
L 173.0025 169.92 
L 173.7 169.92 
L 174.3975 169.92 
L 175.095 169.92 
L 175.7925 169.92 
L 176.49 169.92 
L 177.1875 169.92 
L 177.885 169.92 
L 178.5825 169.92 
L 179.28 169.92 
L 179.9775 169.92 
L 180.675 169.92 
L 181.3725 169.92 
L 182.07 169.92 
L 182.7675 169.92 
L 183.465 169.92 
L 184.1625 169.92 
L 184.86 169.92 
L 185.5575 169.92 
L 186.255 169.92 
L 186.9525 169.92 
L 187.65 169.92 
L 188.3475 169.92 
L 189.045 169.92 
L 189.7425 169.92 
L 190.44 169.92 
L 191.1375 169.92 
L 191.835 169.92 
L 192.5325 169.92 
L 193.23 169.92 
L 193.9275 169.92 
L 194.625 169.92 
L 195.3225 169.92 
L 196.02 169.92 
L 196.7175 169.92 
L 197.415 169.92 
L 198.1125 169.92 
L 198.81 169.92 
L 199.5075 169.92 
L 200.205 169.92 
L 200.9025 169.92 
L 201.6 169.92 
L 202.2975 169.92 
L 202.995 169.92 
L 203.6925 169.92 
L 204.39 169.92 
L 205.0875 169.92 
L 205.785 169.92 
L 206.4825 169.92 
L 207.18 169.92 
L 207.8775 169.92 
L 208.575 169.92 
L 209.2725 169.92 
L 209.97 169.92 
L 210.6675 169.92 
L 211.365 169.92 
L 212.0625 169.92 
L 212.76 169.92 
L 213.4575 169.92 
L 214.155 169.92 
L 214.8525 169.92 
L 215.55 169.92 
L 216.2475 169.92 
L 216.945 169.92 
L 217.6425 169.92 
L 218.34 169.92 
L 219.0375 169.92 
L 219.735 169.92 
L 220.4325 169.92 
L 221.13 169.92 
L 221.8275 169.92 
L 222.525 169.92 
L 223.2225 169.92 
L 223.92 169.92 
L 224.6175 169.92 
L 225.315 169.92 
L 226.0125 169.92 
L 226.71 169.92 
L 227.4075 169.92 
L 228.105 169.92 
L 228.8025 169.92 
L 229.5 169.92 
L 230.1975 169.92 
L 230.895 169.92 
L 231.5925 169.92 
L 232.29 169.92 
L 232.9875 169.92 
L 233.685 169.92 
L 234.3825 169.92 
L 235.08 169.92 
L 235.7775 169.92 
L 236.475 169.92 
L 237.1725 169.92 
L 237.87 169.92 
L 238.5675 169.92 
L 239.265 169.92 
L 239.9625 169.92 
L 240.66 169.92 
L 241.3575 169.92 
L 242.055 169.92 
L 242.7525 169.92 
L 243.45 169.92 
L 244.1475 169.92 
L 244.845 169.92 
L 245.5425 169.92 
L 246.24 169.92 
L 246.9375 169.92 
L 247.635 169.92 
L 248.3325 169.92 
L 249.03 169.92 
L 249.7275 169.92 
L 250.425 169.92 
L 251.1225 169.92 
L 251.82 169.92 
L 252.5175 169.92 
L 253.215 169.92 
L 253.9125 169.92 
L 254.61 169.92 
L 255.3075 169.92 
L 256.005 169.92 
L 256.7025 169.92 
L 257.4 169.92 
L 258.0975 169.92 
L 258.795 169.92 
L 259.4925 169.92 
L 260.19 169.92 
L 260.8875 169.92 
L 261.585 169.92 
L 262.2825 169.92 
L 262.98 169.92 
L 263.6775 169.92 
L 264.375 169.92 
L 265.0725 169.92 
L 265.77 169.92 
L 266.4675 169.92 
L 267.165 169.92 
L 267.8625 169.92 
L 268.56 169.92 
L 269.2575 169.92 
L 269.955 169.92 
L 270.6525 169.92 
L 271.35 169.92 
L 272.0475 169.92 
L 272.745 169.92 
L 273.4425 169.92 
L 274.14 169.92 
L 274.8375 169.92 
L 275.535 169.92 
L 276.2325 169.92 
L 276.93 169.92 
L 277.6275 169.92 
L 278.325 169.92 
L 279.0225 169.92 
L 279.72 169.92 
L 280.4175 169.92 
L 281.115 169.92 
L 281.8125 169.92 
L 282.51 169.92 
L 283.2075 169.92 
L 283.905 169.92 
L 284.6025 169.92 
L 285.3 169.92 
L 285.9975 169.92 
L 286.695 169.92 
L 287.3925 169.92 
L 288.09 169.92 
L 288.7875 169.92 
L 289.485 169.92 
L 290.1825 169.92 
L 290.88 169.92 
L 291.5775 169.92 
L 292.275 169.92 
L 292.9725 169.92 
L 293.67 169.92 
L 294.3675 169.92 
L 295.065 169.92 
L 295.7625 169.92 
L 296.46 169.92 
L 297.1575 169.92 
L 297.855 169.92 
L 298.5525 169.92 
L 299.25 169.92 
L 299.9475 169.92 
L 300.645 169.92 
L 301.3425 169.92 
L 302.04 169.92 
L 302.7375 169.92 
L 303.435 169.92 
L 304.1325 169.92 
L 304.83 169.92 
L 305.5275 169.92 
L 306.225 169.92 
L 306.9225 169.92 
L 307.62 169.92 
L 308.3175 169.92 
L 309.015 169.92 
L 309.7125 169.92 
L 310.41 169.92 
L 311.1075 169.92 
L 311.805 169.92 
L 312.5025 169.92 
L 313.2 169.92 
L 313.8975 169.92 
L 314.595 169.92 
L 315.2925 169.92 
L 315.99 169.92 
L 316.6875 169.92 
L 317.385 169.92 
L 318.0825 169.92 
L 318.78 169.92 
L 319.4775 169.92 
L 320.175 169.92 
L 320.8725 169.92 
L 321.57 169.92 
L 322.2675 169.92 
L 322.965 169.92 
L 323.6625 169.92 
L 324.36 169.92 
L 325.0575 169.92 
L 325.755 169.92 
L 326.4525 169.92 
L 327.15 169.92 
L 327.8475 169.92 
L 328.545 169.92 
L 329.2425 169.92 
L 329.94 169.92 
L 330.6375 169.92 
L 331.335 169.92 
L 332.0325 169.92 
L 332.73 169.92 
L 333.4275 169.92 
L 334.125 169.92 
L 334.8225 169.92 
L 335.52 169.92 
L 336.2175 169.92 
L 336.915 169.92 
L 337.6125 169.92 
L 338.31 169.92 
L 339.0075 169.92 
L 339.705 169.92 
L 340.4025 169.92 
L 341.1 169.92 
L 341.7975 169.92 
L 342.495 169.92 
L 343.1925 169.92 
L 343.89 169.92 
L 344.5875 169.92 
L 345.285 169.92 
L 345.9825 169.92 
L 346.68 169.92 
L 347.3775 169.92 
L 348.075 169.92 
L 348.7725 169.92 
L 349.47 169.92 
L 350.1675 169.92 
L 350.865 169.92 
L 351.5625 169.92 
L 352.26 169.92 
L 352.9575 169.92 
L 353.655 169.92 
L 354.3525 169.92 
L 355.05 169.92 
L 355.7475 169.92 
L 356.445 169.92 
L 357.1425 169.92 
L 357.84 169.92 
L 358.5375 169.92 
L 359.235 169.92 
L 359.9325 169.92 
L 360.63 169.92 
L 361.3275 169.92 
L 362.025 169.92 
L 362.7225 169.92 
L 363.42 169.92 
L 364.1175 169.92 
L 364.815 169.92 
L 365.5125 169.92 
L 366.21 169.92 
L 366.9075 169.92 
L 367.605 169.92 
L 368.3025 169.92 
L 369 169.92 
L 369.6975 169.92 
L 370.395 169.92 
L 371.0925 169.92 
L 371.79 169.92 
L 372.4875 169.92 
L 373.185 169.92 
L 373.8825 169.92 
L 374.58 169.92 
L 375.2775 169.92 
L 375.975 169.92 
L 376.6725 169.92 
L 377.37 169.92 
L 378.0675 169.92 
L 378.765 169.92 
L 379.4625 169.92 
L 380.16 169.92 
L 380.8575 169.92 
L 381.555 169.92 
L 382.2525 169.92 
L 382.95 169.92 
L 383.6475 169.92 
L 384.345 169.92 
L 385.0425 169.92 
L 385.74 169.92 
L 386.4375 169.92 
L 387.135 169.92 
L 387.8325 169.92 
L 388.53 169.92 
L 389.2275 169.92 
L 389.925 169.92 
L 390.6225 169.92 
L 391.32 169.92 
L 392.0175 169.92 
L 392.715 169.92 
L 393.4125 169.92 
L 394.11 169.92 
L 394.8075 169.92 
L 395.505 169.92 
L 396.2025 169.92 
L 396.9 169.92 
L 397.5975 169.92 
L 398.295 169.92 
L 398.9925 169.92 
L 399.69 169.92 
L 400.3875 169.92 
L 401.085 169.92 
L 401.7825 169.92 
L 402.48 169.92 
L 403.1775 169.92 
L 403.875 169.92 
L 404.5725 169.92 
L 405.27 169.92 
L 405.9675 169.92 
L 406.665 169.92 
L 407.3625 169.92 
L 408.06 169.92 
L 408.7575 169.92 
L 409.455 169.92 
L 410.1525 169.92 
L 410.85 169.92 
L 411.5475 169.92 
L 412.245 169.92 
L 412.9425 169.92 
L 413.64 169.92 
L 414.3375 169.92 
L 415.035 169.92 
L 415.7325 169.92 
L 416.43 169.92 
L 417.1275 169.92 
L 417.825 169.92 
L 418.5225 169.92 
L 419.22 169.92 
L 419.9175 169.92 
L 420.615 169.92 
L 421.3125 169.92 
L 422.01 169.92 
L 422.7075 169.92 
L 423.405 169.92 
L 424.1025 169.92 
L 424.8 169.92 
L 425.4975 169.92 
L 426.195 169.92 
L 426.8925 169.92 
L 427.59 169.92 
L 428.2875 169.92 
L 428.985 169.92 
L 429.6825 169.92 
L 430.38 169.92 
L 431.0775 169.92 
L 431.775 169.92 
L 432.4725 169.92 
L 433.17 169.92 
L 433.8675 169.92 
L 434.565 169.92 
L 435.2625 169.92 
L 435.96 169.92 
L 436.6575 169.92 
L 437.355 169.92 
L 438.0525 169.92 
L 438.75 169.92 
L 439.4475 169.92 
L 440.145 169.92 
L 440.8425 169.92 
L 441.54 169.92 
L 442.2375 169.92 
L 442.935 169.92 
L 443.6325 169.92 
L 444.33 169.92 
L 445.0275 169.92 
L 445.725 169.92 
L 446.4225 169.92 
L 447.12 169.92 
L 447.8175 169.92 
L 448.515 169.92 
L 449.2125 169.92 
L 449.91 169.92 
L 450.6075 169.92 
L 451.305 169.92 
L 452.0025 169.92 
L 452.7 169.92 
L 453.3975 169.92 
L 454.095 169.92 
L 454.7925 169.92 
L 455.49 169.92 
L 456.1875 169.92 
L 456.885 169.92 
L 457.5825 169.92 
L 458.28 169.92 
L 458.9775 169.92 
L 459.675 169.92 
L 460.3725 169.92 
L 461.07 169.92 
L 461.7675 169.92 
L 462.465 169.92 
L 463.1625 169.92 
L 463.86 169.92 
L 464.5575 169.92 
L 465.255 169.92 
L 465.9525 169.92 
L 466.65 169.92 
L 467.3475 169.92 
L 468.045 169.92 
L 468.7425 169.92 
L 469.44 169.92 
L 470.1375 169.92 
L 470.835 169.92 
L 471.5325 169.92 
L 472.23 169.92 
L 472.9275 169.92 
L 473.625 169.92 
L 474.3225 169.92 
L 475.02 169.92 
L 475.7175 169.92 
L 476.415 169.92 
L 477.1125 169.92 
L 477.81 169.92 
L 478.5075 169.92 
L 479.205 169.92 
L 479.9025 169.92 
L 480.6 169.92 
L 481.2975 169.92 
L 481.995 169.92 
L 482.6925 169.92 
L 483.39 169.92 
L 484.0875 169.92 
L 484.785 169.92 
L 485.4825 169.92 
L 486.18 169.92 
L 486.8775 169.92 
L 487.575 169.92 
L 488.2725 169.92 
L 488.97 169.92 
L 489.6675 169.92 
L 490.365 169.92 
L 491.0625 169.92 
L 491.76 169.92 
L 492.4575 169.92 
L 493.155 169.92 
L 493.8525 169.92 
L 494.55 169.92 
L 495.2475 169.92 
L 495.945 169.92 
L 496.6425 169.92 
L 497.34 169.92 
L 498.0375 169.92 
L 498.735 169.92 
L 499.4325 169.92 
L 500.13 169.92 
L 500.8275 169.92 
L 501.525 169.92 
L 502.2225 169.92 
L 502.92 169.92 
L 503.6175 169.92 
L 504.315 169.92 
L 505.0125 169.92 
L 505.71 169.92 
L 506.4075 169.92 
L 507.105 169.92 
L 507.8025 169.92 
L 508.5 169.92 
L 509.1975 169.92 
L 509.895 169.92 
L 510.5925 169.92 
L 511.29 169.92 
L 511.9875 169.92 
L 512.685 169.92 
L 513.3825 169.92 
L 514.08 169.92 
L 514.7775 169.92 
L 515.475 169.92 
L 516.1725 169.92 
L 516.87 169.92 
L 517.5675 169.92 
L 518.265 169.92 
L 518.9625 169.92 
L 519.66 169.92 
L 520.3575 169.92 
L 521.055 169.92 
L 521.7525 169.92 
L 522.45 169.92 
L 523.1475 169.92 
L 523.845 169.92 
L 524.5425 169.92 
L 525.24 169.92 
L 525.9375 169.92 
L 526.635 169.92 
L 527.3325 169.92 
L 528.03 169.92 
L 528.7275 169.92 
L 529.425 169.92 
L 530.1225 169.92 
L 530.82 169.92 
L 531.5175 169.92 
L 532.215 169.92 
L 532.9125 169.92 
L 533.61 169.92 
L 534.3075 169.92 
L 535.005 169.92 
L 535.7025 169.92 
L 536.4 169.92 
L 537.0975 169.92 
L 537.795 169.92 
L 538.4925 169.92 
L 539.19 169.92 
L 539.8875 169.92 
L 540.585 169.92 
L 541.2825 169.92 
L 541.98 169.92 
L 542.6775 169.92 
L 543.375 169.92 
L 544.0725 169.92 
L 544.77 169.92 
L 545.4675 169.92 
L 546.165 169.92 
L 546.8625 169.92 
L 547.56 169.92 
L 548.2575 169.92 
L 548.955 169.92 
L 549.6525 169.92 
L 550.35 169.92 
L 551.0475 169.92 
L 551.745 169.92 
L 552.4425 169.92 
L 553.14 169.92 
L 553.8375 169.92 
L 554.535 169.92 
L 555.2325 169.92 
L 555.93 169.92 
L 556.6275 169.92 
L 557.325 169.92 
L 558.0225 169.92 
L 558.72 169.92 
L 559.4175 169.92 
L 560.115 169.92 
L 560.8125 169.92 
L 561.51 169.92 
L 562.2075 169.92 
L 562.905 169.92 
L 563.6025 169.92 
L 564.3 169.92 
L 564.9975 169.92 
L 565.695 169.92 
L 566.3925 169.92 
L 567.09 169.92 
L 567.7875 169.92 
L 568.485 169.92 
L 569.1825 169.92 
L 569.88 169.92 
L 570.5775 169.92 
L 571.275 169.92 
L 571.9725 169.92 
L 572.67 169.92 
L 573.3675 169.92 
L 574.065 169.92 
L 574.7625 169.92 
L 575.46 169.92 
L 576.1575 169.92 
L 576.855 169.92 
L 577.5525 169.92 
L 578.25 169.92 
L 578.9475 169.92 
L 579.645 169.92 
L 580.3425 169.92 
L 581.04 169.92 
L 581.7375 169.92 
L 582.435 169.92 
L 583.1325 169.92 
L 583.83 169.92 
L 584.5275 169.92 
L 585.225 169.92 
L 585.9225 169.92 
L 586.62 169.92 
L 587.3175 169.92 
L 588.015 169.92 
L 588.7125 169.92 
L 589.41 169.92 
L 590.1075 169.92 
L 590.805 169.92 
L 591.5025 169.92 
L 592.2 169.92 
L 592.8975 169.92 
L 593.595 169.92 
L 594.2925 169.92 
L 594.99 169.92 
L 595.6875 169.92 
L 596.385 169.92 
L 597.0825 169.92 
L 597.78 169.92 
L 598.4775 169.92 
L 599.175 169.92 
L 599.8725 169.92 
L 600.57 169.92 
L 601.2675 169.92 
L 601.965 169.92 
L 602.6625 169.92 
L 603.36 169.92 
L 604.0575 169.92 
L 604.755 169.92 
L 605.4525 169.92 
L 606.15 169.92 
L 606.8475 169.92 
L 607.545 169.92 
L 608.2425 169.92 
L 608.94 169.92 
L 609.6375 169.92 
L 610.335 169.92 
L 611.0325 169.92 
L 611.73 169.92 
L 612.4275 169.92 
L 613.125 169.92 
L 613.8225 169.92 
L 614.52 169.92 
L 615.2175 169.92 
L 615.915 169.92 
L 616.6125 169.92 
L 617.31 169.92 
L 618.0075 169.92 
L 618.705 169.92 
L 619.4025 169.92 
L 620.1 169.92 
L 620.7975 169.92 
L 621.495 169.92 
L 622.1925 169.92 
L 622.89 169.92 
L 623.5875 169.92 
L 624.285 169.92 
L 624.9825 169.92 
L 625.68 169.92 
L 626.3775 169.92 
L 627.075 169.92 
L 627.7725 169.92 
L 628.47 169.92 
L 629.1675 169.92 
L 629.865 169.92 
L 630.5625 169.92 
L 631.26 169.92 
L 631.9575 169.92 
L 632.655 169.92 
L 633.3525 169.92 
L 634.05 169.92 
L 634.7475 169.92 
L 635.445 169.92 
L 636.1425 169.92 
L 636.84 169.92 
L 637.5375 169.92 
L 638.235 169.92 
L 638.9325 169.92 
L 639.63 169.92 
L 640.3275 169.92 
L 641.025 169.92 
L 641.7225 169.92 
L 642.42 169.92 
L 643.1175 169.92 
L 643.815 169.92 
L 644.5125 169.92 
L 645.21 169.92 
L 645.9075 169.92 
L 646.605 169.92 
L 646.605 169.92 
L 646.605 169.92 
L 645.9075 169.922368 
L 645.21 169.927917 
L 644.5125 169.937434 
L 643.815 169.951674 
L 643.1175 169.971357 
L 642.42 169.997155 
L 641.7225 170.029692 
L 641.025 170.06954 
L 640.3275 170.11721 
L 639.63 170.17315 
L 638.9325 170.237741 
L 638.235 170.311294 
L 637.5375 170.394049 
L 636.84 170.486169 
L 636.1425 170.587741 
L 635.445 170.698775 
L 634.7475 170.819205 
L 634.05 170.948884 
L 633.3525 171.08759 
L 632.655 171.235028 
L 631.9575 171.390825 
L 631.26 171.554541 
L 630.5625 171.725666 
L 629.865 171.903625 
L 629.1675 172.087786 
L 628.47 172.277456 
L 627.7725 172.471894 
L 627.075 172.670312 
L 626.3775 172.87188 
L 625.68 173.075736 
L 624.9825 173.280984 
L 624.285 173.486709 
L 623.5875 173.691978 
L 622.89 173.895847 
L 622.1925 174.097368 
L 621.495 174.295595 
L 620.7975 174.489591 
L 620.1 174.678431 
L 619.4025 174.861214 
L 618.705 175.037063 
L 618.0075 175.205131 
L 617.31 175.364612 
L 616.6125 175.514737 
L 615.915 175.654785 
L 615.2175 175.784086 
L 614.52 175.902023 
L 613.8225 176.008034 
L 613.125 176.10162 
L 612.4275 176.182342 
L 611.73 176.249824 
L 611.0325 176.303757 
L 610.335 176.343896 
L 609.6375 176.370063 
L 608.94 176.382145 
L 608.2425 176.380094 
L 607.545 176.363927 
L 606.8475 176.333721 
L 606.15 176.289615 
L 605.4525 176.231805 
L 604.755 176.160542 
L 604.0575 176.076128 
L 603.36 175.978914 
L 602.6625 175.869294 
L 601.965 175.747704 
L 601.2675 175.614616 
L 600.57 175.470532 
L 599.8725 175.315983 
L 599.175 175.151524 
L 598.4775 174.977725 
L 597.78 174.795173 
L 597.0825 174.604463 
L 596.385 174.406196 
L 595.6875 174.200971 
L 594.99 173.989386 
L 594.2925 173.772033 
L 593.595 173.549491 
L 592.8975 173.322326 
L 592.2 173.091086 
L 591.5025 172.8563 
L 590.805 172.618474 
L 590.1075 172.378092 
L 589.41 172.13561 
L 588.7125 171.891457 
L 588.015 171.646035 
L 587.3175 171.399716 
L 586.62 171.152846 
L 585.9225 170.905739 
L 585.225 170.658684 
L 584.5275 170.411943 
L 583.83 170.16575 
L 583.1325 169.920319 
L 582.435 169.675838 
L 581.7375 169.432477 
L 581.04 169.19039 
L 580.3425 168.949713 
L 579.645 168.710572 
L 578.9475 168.473081 
L 578.25 168.237352 
L 577.5525 168.003491 
L 576.855 167.771602 
L 576.1575 167.541794 
L 575.46 167.314183 
L 574.7625 167.088889 
L 574.065 166.866049 
L 573.3675 166.645808 
L 572.67 166.428332 
L 571.9725 166.213803 
L 571.275 166.002423 
L 570.5775 165.794416 
L 569.88 165.59003 
L 569.1825 165.389537 
L 568.485 165.193232 
L 567.7875 165.001436 
L 567.09 164.814496 
L 566.3925 164.632781 
L 565.695 164.456684 
L 564.9975 164.286621 
L 564.3 164.123028 
L 563.6025 163.966359 
L 562.905 163.817084 
L 562.2075 163.675688 
L 561.51 163.542664 
L 560.8125 163.418515 
L 560.115 163.303745 
L 559.4175 163.19886 
L 558.72 163.104361 
L 558.0225 163.020739 
L 557.325 162.948476 
L 556.6275 162.888034 
L 555.93 162.839855 
L 555.2325 162.804356 
L 554.535 162.781923 
L 553.8375 162.772908 
L 553.14 162.777623 
L 552.4425 162.79634 
L 551.745 162.829282 
L 551.0475 162.876624 
L 550.35 162.938488 
L 549.6525 163.014937 
L 548.955 163.105978 
L 548.2575 163.211555 
L 547.56 163.33155 
L 546.8625 163.465781 
L 546.165 163.613999 
L 545.4675 163.775891 
L 544.77 163.951077 
L 544.0725 164.139111 
L 543.375 164.339485 
L 542.6775 164.551627 
L 541.98 164.774902 
L 541.2825 165.00862 
L 540.585 165.252033 
L 539.8875 165.504343 
L 539.19 165.764702 
L 538.4925 166.03222 
L 537.795 166.305966 
L 537.0975 166.584975 
L 536.4 166.868256 
L 535.7025 167.154791 
L 535.005 167.443547 
L 534.3075 167.733479 
L 533.61 168.023539 
L 532.9125 168.312677 
L 532.215 168.599854 
L 531.5175 168.884043 
L 530.82 169.16424 
L 530.1225 169.439467 
L 529.425 169.708778 
L 528.7275 169.971268 
L 528.03 170.226076 
L 527.3325 170.472392 
L 526.635 170.709462 
L 525.9375 170.93659 
L 525.24 171.153148 
L 524.5425 171.358574 
L 523.845 171.552381 
L 523.1475 171.734154 
L 522.45 171.903558 
L 521.7525 172.060336 
L 521.055 172.204313 
L 520.3575 172.335395 
L 519.66 172.453569 
L 518.9625 172.558904 
L 518.265 172.651549 
L 517.5675 172.731733 
L 516.87 172.799759 
L 516.1725 172.856005 
L 515.475 172.90092 
L 514.7775 172.935018 
L 514.08 172.958877 
L 513.3825 172.973131 
L 512.685 172.978468 
L 511.9875 172.975622 
L 511.29 172.965368 
L 510.5925 172.948517 
L 509.895 172.925908 
L 509.1975 172.898402 
L 508.5 172.866874 
L 507.8025 172.832209 
L 507.105 172.795293 
L 506.4075 172.757007 
L 505.71 172.718219 
L 505.0125 172.679779 
L 504.315 172.642512 
L 503.6175 172.607212 
L 502.92 172.574633 
L 502.2225 172.545489 
L 501.525 172.520443 
L 500.8275 172.500107 
L 500.13 172.485032 
L 499.4325 172.47571 
L 498.735 172.472565 
L 498.0375 172.475956 
L 497.34 172.486167 
L 496.6425 172.503412 
L 495.945 172.527829 
L 495.2475 172.559482 
L 494.55 172.598361 
L 493.8525 172.644379 
L 493.155 172.697377 
L 492.4575 172.757123 
L 491.76 172.823315 
L 491.0625 172.895585 
L 490.365 172.973499 
L 489.6675 173.056562 
L 488.97 173.144225 
L 488.2725 173.235884 
L 487.575 173.330889 
L 486.8775 173.428548 
L 486.18 173.528132 
L 485.4825 173.628881 
L 484.785 173.730011 
L 484.0875 173.830716 
L 483.39 173.930179 
L 482.6925 174.027578 
L 481.995 174.122086 
L 481.2975 174.212886 
L 480.6 174.29917 
L 479.9025 174.380147 
L 479.205 174.455052 
L 478.5075 174.523144 
L 477.81 174.58372 
L 477.1125 174.636113 
L 476.415 174.6797 
L 475.7175 174.713906 
L 475.02 174.738205 
L 474.3225 174.752126 
L 473.625 174.755255 
L 472.9275 174.747237 
L 472.23 174.72778 
L 471.5325 174.696652 
L 470.835 174.653685 
L 470.1375 174.598775 
L 469.44 174.531883 
L 468.7425 174.45303 
L 468.045 174.362302 
L 467.3475 174.259843 
L 466.65 174.145857 
L 465.9525 174.020602 
L 465.255 173.884391 
L 464.5575 173.737587 
L 463.86 173.580598 
L 463.1625 173.413876 
L 462.465 173.237912 
L 461.7675 173.053232 
L 461.07 172.860391 
L 460.3725 172.65997 
L 459.675 172.452573 
L 458.9775 172.23882 
L 458.28 172.019341 
L 457.5825 171.794776 
L 456.885 171.565768 
L 456.1875 171.332957 
L 455.49 171.096978 
L 454.7925 170.858459 
L 454.095 170.618011 
L 453.3975 170.37623 
L 452.7 170.133694 
L 452.0025 169.890955 
L 451.305 169.648541 
L 450.6075 169.406954 
L 449.91 169.166664 
L 449.2125 168.928111 
L 448.515 168.691705 
L 447.8175 168.457821 
L 447.12 168.226803 
L 446.4225 167.99896 
L 445.725 167.774572 
L 445.0275 167.553885 
L 444.33 167.337115 
L 443.6325 167.12445 
L 442.935 166.916051 
L 442.2375 166.712054 
L 441.54 166.512573 
L 440.8425 166.3177 
L 440.145 166.127512 
L 439.4475 165.942071 
L 438.75 165.761427 
L 438.0525 165.585621 
L 437.355 165.414691 
L 436.6575 165.248671 
L 435.96 165.087597 
L 435.2625 164.931508 
L 434.565 164.78045 
L 433.8675 164.63448 
L 433.17 164.493666 
L 432.4725 164.358091 
L 431.775 164.227853 
L 431.0775 164.10307 
L 430.38 163.983881 
L 429.6825 163.870443 
L 428.985 163.762938 
L 428.2875 163.661569 
L 427.59 163.566563 
L 426.8925 163.478169 
L 426.195 163.396657 
L 425.4975 163.32232 
L 424.8 163.255468 
L 424.1025 163.196432 
L 423.405 163.145558 
L 422.7075 163.103204 
L 422.01 163.069739 
L 421.3125 163.045543 
L 420.615 163.030998 
L 419.9175 163.026486 
L 419.22 163.032388 
L 418.5225 163.049079 
L 417.825 163.076921 
L 417.1275 163.116263 
L 416.43 163.167434 
L 415.7325 163.23074 
L 415.035 163.306458 
L 414.3375 163.394836 
L 413.64 163.496082 
L 412.9425 163.610368 
L 412.245 163.73782 
L 411.5475 163.878518 
L 410.85 164.032489 
L 410.1525 164.19971 
L 409.455 164.3801 
L 408.7575 164.573519 
L 408.06 164.779767 
L 407.3625 164.998582 
L 406.665 165.229641 
L 405.9675 165.472554 
L 405.27 165.72687 
L 404.5725 165.992075 
L 403.875 166.26759 
L 403.1775 166.552778 
L 402.48 166.846941 
L 401.7825 167.149325 
L 401.085 167.459122 
L 400.3875 167.775475 
L 399.69 168.097476 
L 398.9925 168.42418 
L 398.295 168.754599 
L 397.5975 169.087716 
L 396.9 169.422483 
L 396.2025 169.757832 
L 395.505 170.092677 
L 394.8075 170.425924 
L 394.11 170.756472 
L 393.4125 171.083226 
L 392.715 171.405098 
L 392.0175 171.721015 
L 391.32 172.029925 
L 390.6225 172.330808 
L 389.925 172.622674 
L 389.2275 172.904576 
L 388.53 173.175615 
L 387.8325 173.43494 
L 387.135 173.681761 
L 386.4375 173.915349 
L 385.74 174.135043 
L 385.0425 174.340252 
L 384.345 174.53046 
L 383.6475 174.705231 
L 382.95 174.864206 
L 382.2525 175.007113 
L 381.555 175.133762 
L 380.8575 175.244049 
L 380.16 175.337955 
L 379.4625 175.415548 
L 378.765 175.476979 
L 378.0675 175.522485 
L 377.37 175.552382 
L 376.6725 175.567066 
L 375.975 175.567009 
L 375.2775 175.552753 
L 374.58 175.524911 
L 373.8825 175.484158 
L 373.185 175.431227 
L 372.4875 175.366905 
L 371.79 175.292025 
L 371.0925 175.207462 
L 370.395 175.114125 
L 369.6975 175.012952 
L 369 174.9049 
L 368.3025 174.790943 
L 367.605 174.672062 
L 366.9075 174.549237 
L 366.21 174.423442 
L 365.5125 174.29564 
L 364.815 174.166769 
L 364.1175 174.037747 
L 363.42 173.909453 
L 362.7225 173.782733 
L 362.025 173.658383 
L 361.3275 173.537154 
L 360.63 173.419742 
L 359.9325 173.30678 
L 359.235 173.198845 
L 358.5375 173.096442 
L 357.84 173.00001 
L 357.1425 172.909917 
L 356.445 172.826458 
L 355.7475 172.749852 
L 355.05 172.680245 
L 354.3525 172.617708 
L 353.655 172.562238 
L 352.9575 172.513759 
L 352.26 172.472124 
L 351.5625 172.437117 
L 350.865 172.408456 
L 350.1675 172.385794 
L 349.47 172.368728 
L 348.7725 172.356798 
L 348.075 172.349494 
L 347.3775 172.34626 
L 346.68 172.346499 
L 345.9825 172.349581 
L 345.285 172.354844 
L 344.5875 172.361605 
L 343.89 172.369161 
L 343.1925 172.376799 
L 342.495 172.383801 
L 341.7975 172.389447 
L 341.1 172.393027 
L 340.4025 172.39384 
L 339.705 172.391206 
L 339.0075 172.384465 
L 338.31 172.37299 
L 337.6125 172.356182 
L 336.915 172.333486 
L 336.2175 172.304385 
L 335.52 172.268409 
L 334.8225 172.225139 
L 334.125 172.174206 
L 333.4275 172.115298 
L 332.73 172.048159 
L 332.0325 171.972591 
L 331.335 171.888455 
L 330.6375 171.795674 
L 329.94 171.694229 
L 329.2425 171.58416 
L 328.545 171.465567 
L 327.8475 171.338607 
L 327.15 171.203491 
L 326.4525 171.060485 
L 325.755 170.909903 
L 325.0575 170.752109 
L 324.36 170.587508 
L 323.6625 170.416548 
L 322.965 170.239713 
L 322.2675 170.057519 
L 321.57 169.870509 
L 320.8725 169.679252 
L 320.175 169.484335 
L 319.4775 169.286359 
L 318.78 169.085935 
L 318.0825 168.883682 
L 317.385 168.680216 
L 316.6875 168.476153 
L 315.99 168.272098 
L 315.2925 168.068648 
L 314.595 167.866381 
L 313.8975 167.665858 
L 313.2 167.467618 
L 312.5025 167.272172 
L 311.805 167.080005 
L 311.1075 166.891573 
L 310.41 166.707296 
L 309.7125 166.527563 
L 309.015 166.352728 
L 308.3175 166.183109 
L 307.62 166.018986 
L 306.9225 165.860605 
L 306.225 165.708177 
L 305.5275 165.561876 
L 304.83 165.421843 
L 304.1325 165.288188 
L 303.435 165.160988 
L 302.7375 165.040293 
L 302.04 164.926127 
L 301.3425 164.818489 
L 300.645 164.717359 
L 299.9475 164.622699 
L 299.25 164.534454 
L 298.5525 164.452559 
L 297.855 164.376941 
L 297.1575 164.307521 
L 296.46 164.244218 
L 295.7625 164.186952 
L 295.065 164.135649 
L 294.3675 164.09024 
L 293.67 164.050667 
L 292.9725 164.016885 
L 292.275 163.988864 
L 291.5775 163.96659 
L 290.88 163.950069 
L 290.1825 163.939327 
L 289.485 163.934411 
L 288.7875 163.935392 
L 288.09 163.942364 
L 287.3925 163.955441 
L 286.695 163.974762 
L 285.9975 164.00049 
L 285.3 164.032804 
L 284.6025 164.071909 
L 283.905 164.118022 
L 283.2075 164.171379 
L 282.51 164.23223 
L 281.8125 164.300834 
L 281.115 164.377458 
L 280.4175 164.462374 
L 279.72 164.555854 
L 279.0225 164.658167 
L 278.325 164.769577 
L 277.6275 164.890335 
L 276.93 165.020678 
L 276.2325 165.160824 
L 275.535 165.310969 
L 274.8375 165.471279 
L 274.14 165.641891 
L 273.4425 165.822906 
L 272.745 166.014386 
L 272.0475 166.21635 
L 271.35 166.428771 
L 270.6525 166.651575 
L 269.955 166.884634 
L 269.2575 167.127767 
L 268.56 167.380737 
L 267.8625 167.643248 
L 267.165 167.914948 
L 266.4675 168.195423 
L 265.77 168.4842 
L 265.0725 168.780747 
L 264.375 169.084471 
L 263.6775 169.394725 
L 262.98 169.710802 
L 262.2825 170.031945 
L 261.585 170.357342 
L 260.8875 170.686137 
L 260.19 171.017426 
L 259.4925 171.350267 
L 258.795 171.683681 
L 258.0975 172.016659 
L 257.4 172.348164 
L 256.7025 172.67714 
L 256.005 173.002517 
L 255.3075 173.323214 
L 254.61 173.638149 
L 253.9125 173.946243 
L 253.215 174.246427 
L 252.5175 174.537649 
L 251.82 174.818879 
L 251.1225 175.089119 
L 250.425 175.347403 
L 249.7275 175.592809 
L 249.03 175.824464 
L 248.3325 176.041545 
L 247.635 176.24329 
L 246.9375 176.429002 
L 246.24 176.59805 
L 245.5425 176.749879 
L 244.845 176.884008 
L 244.1475 177.000037 
L 243.45 177.09765 
L 242.7525 177.176616 
L 242.055 177.236788 
L 241.3575 177.278112 
L 240.66 177.300618 
L 239.9625 177.304428 
L 239.265 177.28975 
L 238.5675 177.256879 
L 237.87 177.206195 
L 237.1725 177.138162 
L 236.475 177.053322 
L 235.7775 176.952292 
L 235.08 176.835763 
L 234.3825 176.704492 
L 233.685 176.5593 
L 232.9875 176.401064 
L 232.29 176.230713 
L 231.5925 176.04922 
L 230.895 175.857599 
L 230.1975 175.656893 
L 229.5 175.448173 
L 228.8025 175.232528 
L 228.105 175.011057 
L 227.4075 174.784864 
L 226.71 174.555051 
L 226.0125 174.322707 
L 225.315 174.088908 
L 224.6175 173.854705 
L 223.92 173.621116 
L 223.2225 173.389127 
L 222.525 173.159679 
L 221.8275 172.933667 
L 221.13 172.711931 
L 220.4325 172.495255 
L 219.735 172.284359 
L 219.0375 172.0799 
L 218.34 171.882463 
L 217.6425 171.692564 
L 216.945 171.510644 
L 216.2475 171.337068 
L 215.55 171.172125 
L 214.8525 171.016029 
L 214.155 170.868916 
L 213.4575 170.730845 
L 212.76 170.601802 
L 212.0625 170.481702 
L 211.365 170.370388 
L 210.6675 170.267635 
L 209.97 170.173156 
L 209.2725 170.086604 
L 208.575 170.007575 
L 207.8775 169.935616 
L 207.18 169.870226 
L 206.4825 169.810863 
L 205.785 169.756951 
L 205.0875 169.707885 
L 204.39 169.663034 
L 203.6925 169.62175 
L 202.995 169.583373 
L 202.2975 169.547238 
L 201.6 169.512678 
L 200.9025 169.479034 
L 200.205 169.445657 
L 199.5075 169.411916 
L 198.81 169.377202 
L 198.1125 169.340932 
L 197.415 169.302556 
L 196.7175 169.26156 
L 196.02 169.217472 
L 195.3225 169.16986 
L 194.625 169.118343 
L 193.9275 169.062587 
L 193.23 169.00231 
L 192.5325 168.937285 
L 191.835 168.867338 
L 191.1375 168.792351 
L 190.44 168.712263 
L 189.7425 168.627068 
L 189.045 168.536813 
L 188.3475 168.4416 
L 187.65 168.341585 
L 186.9525 168.236971 
L 186.255 168.128011 
L 185.5575 168.015001 
L 184.86 167.898279 
L 184.1625 167.778223 
L 183.465 167.655244 
L 182.7675 167.529784 
L 182.07 167.40231 
L 181.3725 167.273314 
L 180.675 167.143304 
L 179.9775 167.012801 
L 179.28 166.882336 
L 178.5825 166.752443 
L 177.885 166.623657 
L 177.1875 166.496506 
L 176.49 166.371513 
L 175.7925 166.249186 
L 175.095 166.130016 
L 174.3975 166.014476 
L 173.7 165.903013 
L 173.0025 165.796049 
L 172.305 165.693977 
L 171.6075 165.597158 
L 170.91 165.50592 
L 170.2125 165.420557 
L 169.515 165.341323 
L 168.8175 165.26844 
L 168.12 165.202088 
L 167.4225 165.142414 
L 166.725 165.089523 
L 166.0275 165.043488 
L 165.33 165.004344 
L 164.6325 164.972094 
L 163.935 164.946706 
L 163.2375 164.928122 
L 162.54 164.916253 
L 161.8425 164.910986 
L 161.145 164.912188 
L 160.4475 164.919703 
L 159.75 164.933362 
L 159.0525 164.952982 
L 158.355 164.97837 
L 157.6575 165.009329 
L 156.96 165.045657 
L 156.2625 165.087154 
L 155.565 165.133624 
L 154.8675 165.184878 
L 154.17 165.240736 
L 153.4725 165.301033 
L 152.775 165.365618 
L 152.0775 165.434359 
L 151.38 165.507142 
L 150.6825 165.583878 
L 149.985 165.664498 
L 149.2875 165.748959 
L 148.59 165.837243 
L 147.8925 165.929358 
L 147.195 166.025335 
L 146.4975 166.125234 
L 145.8 166.229137 
L 145.1025 166.337149 
L 144.405 166.449397 
L 143.7075 166.56603 
L 143.01 166.687213 
L 142.3125 166.813126 
L 141.615 166.943962 
L 140.9175 167.079924 
L 140.22 167.221219 
L 139.5225 167.368059 
L 138.825 167.520653 
L 138.1275 167.679205 
L 137.43 167.843911 
L 136.7325 168.014952 
L 136.035 168.192494 
L 135.3375 168.376678 
L 134.64 168.567623 
L 133.9425 168.765417 
L 133.245 168.970114 
L 132.5475 169.181734 
L 131.85 169.400253 
L 131.1525 169.625607 
L 130.455 169.857683 
L 129.7575 170.096321 
L 129.06 170.34131 
L 128.3625 170.592384 
L 127.665 170.849226 
L 126.9675 171.111463 
L 126.27 171.378664 
L 125.5725 171.650345 
L 124.875 171.925967 
L 124.1775 172.204936 
L 123.48 172.486605 
L 122.7825 172.770276 
L 122.085 173.055203 
L 121.3875 173.340596 
L 120.69 173.62562 
L 119.9925 173.909403 
L 119.295 174.19104 
L 118.5975 174.469594 
L 117.9 174.744105 
L 117.2025 175.013593 
L 116.505 175.277063 
L 115.8075 175.533513 
L 115.11 175.781939 
L 114.4125 176.021341 
L 113.715 176.250728 
L 113.0175 176.469128 
L 112.32 176.67559 
L 111.6225 176.869192 
L 110.925 177.049049 
L 110.2275 177.214317 
L 109.53 177.3642 
L 108.8325 177.497955 
L 108.135 177.614897 
L 107.4375 177.714406 
L 106.74 177.79593 
L 106.0425 177.85899 
L 105.345 177.903184 
L 104.6475 177.928189 
L 103.95 177.933768 
L 103.2525 177.919767 
L 102.555 177.88612 
L 101.8575 177.83285 
L 101.16 177.76007 
L 100.4625 177.66798 
L 99.765 177.556873 
L 99.0675 177.427127 
L 98.37 177.279206 
L 97.6725 177.113659 
L 96.975 176.931115 
L 96.2775 176.732283 
L 95.58 176.517942 
L 94.8825 176.288943 
L 94.185 176.0462 
L 93.4875 175.790686 
L 92.79 175.523429 
L 92.0925 175.245502 
L 91.395 174.958018 
L 90.6975 174.662127 
L 90 174.359003 
z
" style="fill:#e0ffff;"/>
   </g>
   <g id="line2d_19">
    <path clip-path="url(#p1c0d534858)" d="M 90 174.359003 
L 93.4875 175.790686 
L 96.2775 176.732283 
L 99.0675 177.427127 
L 101.16 177.76007 
L 103.2525 177.919767 
L 105.345 177.903184 
L 107.4375 177.714406 
L 110.2275 177.214317 
L 113.0175 176.469128 
L 116.505 175.277063 
L 122.085 173.055203 
L 128.3625 170.592384 
L 132.5475 169.181734 
L 136.7325 168.014952 
L 140.9175 167.079924 
L 145.8 166.229137 
L 151.38 165.507142 
L 156.2625 165.087154 
L 160.4475 164.919703 
L 164.6325 164.972094 
L 168.8175 165.26844 
L 173.0025 165.796049 
L 178.5825 166.752443 
L 187.65 168.341585 
L 192.5325 168.937285 
L 197.415 169.302556 
L 208.575 170.007575 
L 212.0625 170.481702 
L 215.55 171.172125 
L 219.0375 172.0799 
L 223.92 173.621116 
L 230.895 175.857599 
L 234.3825 176.704492 
L 237.1725 177.138162 
L 239.9625 177.304428 
L 242.055 177.236788 
L 244.1475 177.000037 
L 246.9375 176.429002 
L 249.7275 175.592809 
L 252.5175 174.537649 
L 256.7025 172.67714 
L 265.77 168.4842 
L 269.2575 167.127767 
L 272.745 166.014386 
L 276.2325 165.160824 
L 279.72 164.555854 
L 283.2075 164.171379 
L 287.3925 163.955441 
L 291.5775 163.96659 
L 295.7625 164.186952 
L 299.9475 164.622699 
L 304.1325 165.288188 
L 308.3175 166.183109 
L 313.2 167.467618 
L 325.0575 170.752109 
L 328.545 171.465567 
L 332.0325 171.972591 
L 335.52 172.268409 
L 339.705 172.391206 
L 352.9575 172.513759 
L 357.1425 172.909917 
L 361.3275 173.537154 
L 372.4875 175.366905 
L 375.2775 175.552753 
L 378.0675 175.522485 
L 380.8575 175.244049 
L 383.6475 174.705231 
L 386.4375 173.915349 
L 389.2275 172.904576 
L 392.715 171.405098 
L 405.27 165.72687 
L 408.7575 164.573519 
L 411.5475 163.878518 
L 414.3375 163.394836 
L 417.1275 163.116263 
L 419.9175 163.026486 
L 423.405 163.145558 
L 426.8925 163.478169 
L 431.0775 164.10307 
L 435.96 165.087597 
L 440.8425 166.3177 
L 445.725 167.774572 
L 452.7 170.133694 
L 459.675 172.452573 
L 463.1625 173.413876 
L 466.65 174.145857 
L 469.44 174.531883 
L 472.23 174.72778 
L 475.02 174.738205 
L 478.5075 174.523144 
L 482.6925 174.027578 
L 492.4575 172.757123 
L 496.6425 172.503412 
L 500.8275 172.500107 
L 506.4075 172.757007 
L 511.9875 172.975622 
L 515.475 172.90092 
L 518.265 172.651549 
L 521.055 172.204313 
L 523.845 171.552381 
L 527.3325 170.472392 
L 531.5175 168.884043 
L 541.2825 165.00862 
L 544.77 163.951077 
L 547.56 163.33155 
L 550.35 162.938488 
L 553.14 162.777623 
L 555.93 162.839855 
L 558.72 163.104361 
L 562.2075 163.675688 
L 566.3925 164.632781 
L 571.275 166.002423 
L 577.5525 168.003491 
L 586.62 171.152846 
L 594.2925 173.772033 
L 598.4775 174.977725 
L 601.965 175.747704 
L 604.755 176.160542 
L 607.545 176.363927 
L 610.335 176.343896 
L 613.125 176.10162 
L 615.915 175.654785 
L 619.4025 174.861214 
L 624.285 173.486709 
L 630.5625 171.725666 
L 634.05 170.948884 
L 637.5375 170.394049 
L 641.025 170.06954 
L 645.21 169.927917 
L 646.605 169.92 
L 646.605 169.92 
" style="fill:none;stroke:#008080;stroke-linecap:round;stroke-width:1.75;"/>
   </g>
   <g id="patch_3">
    <path d="M 90 270.72 
L 90 69.12 
" style="fill:none;stroke:#262626;stroke-linecap:square;stroke-linejoin:miter;stroke-width:1.25;"/>
   </g>
   <g id="patch_4">
    <path d="M 90 270.72 
L 648 270.72 
" style="fill:none;stroke:#262626;stroke-linecap:square;stroke-linejoin:miter;stroke-width:1.25;"/>
   </g>
  </g>
  <g id="axes_2">
   <g id="patch_5">
    <path d="M 90 512.64 
L 648 512.64 
L 648 311.04 
L 90 311.04 
z
" style="fill:#ffffff;"/>
   </g>
   <g id="matplotlib.axis_3">
    <g id="xtick_10">
     <g id="line2d_20">
      <g>
       <use style="fill:#262626;stroke:#262626;" x="191.454545" xlink:href="#mca21bc7e22" y="512.64"/>
      </g>
     </g>
     <g id="text_19">
      <!-- 200 -->
      <g style="fill:#262626;" transform="translate(183.113139 532.797812)scale(0.1 -0.1)">
       <use xlink:href="#ArialMT-32"/>
       <use x="55.615234" xlink:href="#ArialMT-30"/>
       <use x="111.230469" xlink:href="#ArialMT-30"/>
      </g>
     </g>
    </g>
    <g id="xtick_11">
     <g id="line2d_21">
      <g>
       <use style="fill:#262626;stroke:#262626;" x="304.181818" xlink:href="#mca21bc7e22" y="512.64"/>
      </g>
     </g>
     <g id="text_20">
      <!-- 400 -->
      <g style="fill:#262626;" transform="translate(295.840412 532.797812)scale(0.1 -0.1)">
       <use xlink:href="#ArialMT-34"/>
       <use x="55.615234" xlink:href="#ArialMT-30"/>
       <use x="111.230469" xlink:href="#ArialMT-30"/>
      </g>
     </g>
    </g>
    <g id="xtick_12">
     <g id="line2d_22">
      <g>
       <use style="fill:#262626;stroke:#262626;" x="416.909091" xlink:href="#mca21bc7e22" y="512.64"/>
      </g>
     </g>
     <g id="text_21">
      <!-- 600 -->
      <g style="fill:#262626;" transform="translate(408.567685 532.797812)scale(0.1 -0.1)">
       <use xlink:href="#ArialMT-36"/>
       <use x="55.615234" xlink:href="#ArialMT-30"/>
       <use x="111.230469" xlink:href="#ArialMT-30"/>
      </g>
     </g>
    </g>
    <g id="xtick_13">
     <g id="line2d_23">
      <g>
       <use style="fill:#262626;stroke:#262626;" x="529.636364" xlink:href="#mca21bc7e22" y="512.64"/>
      </g>
     </g>
     <g id="text_22">
      <!-- 800 -->
      <g style="fill:#262626;" transform="translate(521.294957 532.797812)scale(0.1 -0.1)">
       <use xlink:href="#ArialMT-38"/>
       <use x="55.615234" xlink:href="#ArialMT-30"/>
       <use x="111.230469" xlink:href="#ArialMT-30"/>
      </g>
     </g>
    </g>
    <g id="xtick_14">
     <g id="line2d_24">
      <g>
       <use style="fill:#262626;stroke:#262626;" x="642.363636" xlink:href="#mca21bc7e22" y="512.64"/>
      </g>
     </g>
     <g id="text_23">
      <!-- 1000 -->
      <g style="fill:#262626;" transform="translate(631.241761 532.797812)scale(0.1 -0.1)">
       <use xlink:href="#ArialMT-31"/>
       <use x="55.615234" xlink:href="#ArialMT-30"/>
       <use x="111.230469" xlink:href="#ArialMT-30"/>
       <use x="166.845703" xlink:href="#ArialMT-30"/>
      </g>
     </g>
    </g>
   </g>
   <g id="matplotlib.axis_4">
    <g id="ytick_10">
     <g id="line2d_25">
      <g>
       <use style="fill:#262626;stroke:#262626;" x="90" xlink:href="#m4baca14671" y="512.64"/>
      </g>
     </g>
     <g id="text_24">
      <!-- 0 -->
      <g style="fill:#262626;" transform="translate(71.439063 516.218906)scale(0.1 -0.1)">
       <use xlink:href="#ArialMT-30"/>
      </g>
     </g>
    </g>
    <g id="ytick_11">
     <g id="line2d_26">
      <g>
       <use style="fill:#262626;stroke:#262626;" x="90" xlink:href="#m4baca14671" y="487.44"/>
      </g>
     </g>
     <g id="text_25">
      <!-- 5 -->
      <g style="fill:#262626;" transform="translate(71.439063 491.018906)scale(0.1 -0.1)">
       <use xlink:href="#ArialMT-35"/>
      </g>
     </g>
    </g>
    <g id="ytick_12">
     <g id="line2d_27">
      <g>
       <use style="fill:#262626;stroke:#262626;" x="90" xlink:href="#m4baca14671" y="462.24"/>
      </g>
     </g>
     <g id="text_26">
      <!-- 10 -->
      <g style="fill:#262626;" transform="translate(65.878125 465.818906)scale(0.1 -0.1)">
       <use xlink:href="#ArialMT-31"/>
       <use x="55.615234" xlink:href="#ArialMT-30"/>
      </g>
     </g>
    </g>
    <g id="ytick_13">
     <g id="line2d_28">
      <g>
       <use style="fill:#262626;stroke:#262626;" x="90" xlink:href="#m4baca14671" y="437.04"/>
      </g>
     </g>
     <g id="text_27">
      <!-- 15 -->
      <g style="fill:#262626;" transform="translate(65.878125 440.618906)scale(0.1 -0.1)">
       <use xlink:href="#ArialMT-31"/>
       <use x="55.615234" xlink:href="#ArialMT-35"/>
      </g>
     </g>
    </g>
    <g id="ytick_14">
     <g id="line2d_29">
      <g>
       <use style="fill:#262626;stroke:#262626;" x="90" xlink:href="#m4baca14671" y="411.84"/>
      </g>
     </g>
     <g id="text_28">
      <!-- 20 -->
      <g style="fill:#262626;" transform="translate(65.878125 415.418906)scale(0.1 -0.1)">
       <use xlink:href="#ArialMT-32"/>
       <use x="55.615234" xlink:href="#ArialMT-30"/>
      </g>
     </g>
    </g>
    <g id="ytick_15">
     <g id="line2d_30">
      <g>
       <use style="fill:#262626;stroke:#262626;" x="90" xlink:href="#m4baca14671" y="386.64"/>
      </g>
     </g>
     <g id="text_29">
      <!-- 25 -->
      <g style="fill:#262626;" transform="translate(65.878125 390.218906)scale(0.1 -0.1)">
       <use xlink:href="#ArialMT-32"/>
       <use x="55.615234" xlink:href="#ArialMT-35"/>
      </g>
     </g>
    </g>
    <g id="ytick_16">
     <g id="line2d_31">
      <g>
       <use style="fill:#262626;stroke:#262626;" x="90" xlink:href="#m4baca14671" y="361.44"/>
      </g>
     </g>
     <g id="text_30">
      <!-- 30 -->
      <g style="fill:#262626;" transform="translate(65.878125 365.018906)scale(0.1 -0.1)">
       <use xlink:href="#ArialMT-33"/>
       <use x="55.615234" xlink:href="#ArialMT-30"/>
      </g>
     </g>
    </g>
    <g id="ytick_17">
     <g id="line2d_32">
      <g>
       <use style="fill:#262626;stroke:#262626;" x="90" xlink:href="#m4baca14671" y="336.24"/>
      </g>
     </g>
     <g id="text_31">
      <!-- 35 -->
      <g style="fill:#262626;" transform="translate(65.878125 339.818906)scale(0.1 -0.1)">
       <use xlink:href="#ArialMT-33"/>
       <use x="55.615234" xlink:href="#ArialMT-35"/>
      </g>
     </g>
    </g>
    <g id="ytick_18">
     <g id="line2d_33">
      <g>
       <use style="fill:#262626;stroke:#262626;" x="90" xlink:href="#m4baca14671" y="311.04"/>
      </g>
     </g>
     <g id="text_32">
      <!-- 40 -->
      <g style="fill:#262626;" transform="translate(65.878125 314.618906)scale(0.1 -0.1)">
       <use xlink:href="#ArialMT-34"/>
       <use x="55.615234" xlink:href="#ArialMT-30"/>
      </g>
     </g>
    </g>
   </g>
   <g id="line2d_34">
    <path clip-path="url(#p2154b807b9)" d="M 90 488.562059 
L 95.636364 492.871917 
L 101.272727 491.915277 
L 106.909091 490.291312 
L 112.545455 492.192009 
L 118.181818 490.692663 
L 123.818182 490.203121 
L 129.454545 491.968658 
L 135.090909 490.163889 
L 140.727273 490.392837 
L 146.363636 490.241829 
L 152 489.156296 
L 157.636364 490.240305 
L 163.272727 490.645166 
L 168.909091 488.187222 
L 174.545455 488.633986 
L 180.181818 487.313077 
L 185.818182 487.018973 
L 191.454545 487.338343 
L 197.090909 486.121391 
L 202.727273 487.201243 
L 208.363636 484.042031 
L 214 483.157918 
" style="fill:none;stroke:#b22222;stroke-linecap:round;stroke-width:1.75;"/>
   </g>
   <g id="patch_6">
    <path d="M 90 512.64 
L 90 311.04 
" style="fill:none;stroke:#262626;stroke-linecap:square;stroke-linejoin:miter;stroke-width:1.25;"/>
   </g>
   <g id="patch_7">
    <path d="M 90 512.64 
L 648 512.64 
" style="fill:none;stroke:#262626;stroke-linecap:square;stroke-linejoin:miter;stroke-width:1.25;"/>
   </g>
   <g id="text_33">
    <!-- f = 240 Hz -->
    <defs>
     <path d="M 8.6875 0 
L 8.6875 45.015625 
L 0.921875 45.015625 
L 0.921875 51.859375 
L 8.6875 51.859375 
L 8.6875 57.375 
Q 8.6875 62.59375 9.625 65.140625 
Q 10.890625 68.5625 14.078125 70.671875 
Q 17.28125 72.796875 23.046875 72.796875 
Q 26.765625 72.796875 31.25 71.921875 
L 29.9375 64.265625 
Q 27.203125 64.75 24.75 64.75 
Q 20.75 64.75 19.09375 63.03125 
Q 17.4375 61.328125 17.4375 56.640625 
L 17.4375 51.859375 
L 27.546875 51.859375 
L 27.546875 45.015625 
L 17.4375 45.015625 
L 17.4375 0 
z
" id="ArialMT-66"/>
     <path id="ArialMT-20"/>
     <path d="M 52.828125 42.09375 
L 5.5625 42.09375 
L 5.5625 50.296875 
L 52.828125 50.296875 
z
M 52.828125 20.359375 
L 5.5625 20.359375 
L 5.5625 28.5625 
L 52.828125 28.5625 
z
" id="ArialMT-3d"/>
     <path d="M 8.015625 0 
L 8.015625 71.578125 
L 17.484375 71.578125 
L 17.484375 42.1875 
L 54.6875 42.1875 
L 54.6875 71.578125 
L 64.15625 71.578125 
L 64.15625 0 
L 54.6875 0 
L 54.6875 33.734375 
L 17.484375 33.734375 
L 17.484375 0 
z
" id="ArialMT-48"/>
     <path d="M 1.953125 0 
L 1.953125 7.125 
L 34.96875 45.015625 
Q 29.34375 44.734375 25.046875 44.734375 
L 3.90625 44.734375 
L 3.90625 51.859375 
L 46.296875 51.859375 
L 46.296875 46.046875 
L 18.21875 13.140625 
L 12.796875 7.125 
Q 18.703125 7.5625 23.875 7.5625 
L 47.859375 7.5625 
L 47.859375 0 
z
" id="ArialMT-7a"/>
    </defs>
    <g style="fill:#262626;" transform="translate(529.636364 364.542187)scale(0.12 -0.12)">
     <use xlink:href="#ArialMT-66"/>
     <use x="27.783203" xlink:href="#ArialMT-20"/>
     <use x="55.566406" xlink:href="#ArialMT-3d"/>
     <use x="113.964844" xlink:href="#ArialMT-20"/>
     <use x="141.748047" xlink:href="#ArialMT-32"/>
     <use x="197.363281" xlink:href="#ArialMT-34"/>
     <use x="252.978516" xlink:href="#ArialMT-30"/>
     <use x="308.59375" xlink:href="#ArialMT-20"/>
     <use x="336.376953" xlink:href="#ArialMT-48"/>
     <use x="408.59375" xlink:href="#ArialMT-7a"/>
    </g>
   </g>
   <g id="PathCollection_1">
    <defs>
     <path d="M 0 3.5 
C 0.928211 3.5 1.81853 3.131218 2.474874 2.474874 
C 3.131218 1.81853 3.5 0.928211 3.5 0 
C 3.5 -0.928211 3.131218 -1.81853 2.474874 -2.474874 
C 1.81853 -3.131218 0.928211 -3.5 0 -3.5 
C -0.928211 -3.5 -1.81853 -3.131218 -2.474874 -2.474874 
C -3.131218 -1.81853 -3.5 -0.928211 -3.5 0 
C -3.5 0.928211 -3.131218 1.81853 -2.474874 2.474874 
C -1.81853 3.131218 -0.928211 3.5 0 3.5 
z
" id="m2398bc90d1" style="stroke:#800000;stroke-width:0.3;"/>
    </defs>
    <g clip-path="url(#p2154b807b9)">
     <use style="fill:#800000;stroke:#800000;stroke-width:0.3;" x="214" xlink:href="#m2398bc90d1" y="483.157918"/>
    </g>
   </g>
  </g>
 </g>
 <defs>
  <clipPath id="p1c0d534858">
   <rect height="201.6" width="558" x="90" y="69.12"/>
  </clipPath>
  <clipPath id="p2154b807b9">
   <rect height="201.6" width="558" x="90" y="311.04"/>
  </clipPath>
 </defs>
</svg>
