<?xml version="1.0" encoding="utf-8" standalone="no"?>
<!DOCTYPE svg PUBLIC "-//W3C//DTD SVG 1.1//EN"
  "http://www.w3.org/Graphics/SVG/1.1/DTD/svg11.dtd">
<!-- Created with matplotlib (http://matplotlib.org/) -->
<svg height="576pt" version="1.1" viewBox="0 0 720 576" width="720pt" xmlns="http://www.w3.org/2000/svg" xmlns:xlink="http://www.w3.org/1999/xlink">
 <defs>
  <style type="text/css">
*{stroke-linecap:butt;stroke-linejoin:round;}
  </style>
 </defs>
 <g id="figure_1">
  <g id="patch_1">
   <path d="M 0 576 
L 720 576 
L 720 0 
L 0 0 
z
" style="fill:#ffffff;"/>
  </g>
  <g id="axes_1">
   <g id="patch_2">
    <path d="M 90 270.72 
L 648 270.72 
L 648 69.12 
L 90 69.12 
z
" style="fill:#ffffff;"/>
   </g>
   <g id="matplotlib.axis_1">
    <g id="xtick_1">
     <g id="line2d_1">
      <defs>
       <path d="M 0 0 
L 0 6 
" id="m5fdf9c5d52" style="stroke:#262626;"/>
      </defs>
      <g>
       <use style="fill:#262626;stroke:#262626;" x="90" xlink:href="#m5fdf9c5d52" y="270.72"/>
      </g>
     </g>
     <g id="text_1">
      <!-- 0 -->
      <defs>
       <path d="M 4.15625 35.296875 
Q 4.15625 48 6.765625 55.734375 
Q 9.375 63.484375 14.515625 67.671875 
Q 19.671875 71.875 27.484375 71.875 
Q 33.25 71.875 37.59375 69.546875 
Q 41.9375 67.234375 44.765625 62.859375 
Q 47.609375 58.5 49.21875 52.21875 
Q 50.828125 45.953125 50.828125 35.296875 
Q 50.828125 22.703125 48.234375 14.96875 
Q 45.65625 7.234375 40.5 3 
Q 35.359375 -1.21875 27.484375 -1.21875 
Q 17.140625 -1.21875 11.234375 6.203125 
Q 4.15625 15.140625 4.15625 35.296875 
z
M 13.1875 35.296875 
Q 13.1875 17.671875 17.3125 11.828125 
Q 21.4375 6 27.484375 6 
Q 33.546875 6 37.671875 11.859375 
Q 41.796875 17.71875 41.796875 35.296875 
Q 41.796875 52.984375 37.671875 58.78125 
Q 33.546875 64.59375 27.390625 64.59375 
Q 21.34375 64.59375 17.71875 59.46875 
Q 13.1875 52.9375 13.1875 35.296875 
z
" id="ArialMT-30"/>
      </defs>
      <g style="fill:#262626;" transform="translate(87.219531 290.877812)scale(0.1 -0.1)">
       <use xlink:href="#ArialMT-30"/>
      </g>
     </g>
    </g>
    <g id="xtick_2">
     <g id="line2d_2">
      <g>
       <use style="fill:#262626;stroke:#262626;" x="159.75" xlink:href="#m5fdf9c5d52" y="270.72"/>
      </g>
     </g>
     <g id="text_2">
      <!-- 100 -->
      <defs>
       <path d="M 37.25 0 
L 28.46875 0 
L 28.46875 56 
Q 25.296875 52.984375 20.140625 49.953125 
Q 14.984375 46.921875 10.890625 45.40625 
L 10.890625 53.90625 
Q 18.265625 57.375 23.78125 62.296875 
Q 29.296875 67.234375 31.59375 71.875 
L 37.25 71.875 
z
" id="ArialMT-31"/>
      </defs>
      <g style="fill:#262626;" transform="translate(151.408594 290.877812)scale(0.1 -0.1)">
       <use xlink:href="#ArialMT-31"/>
       <use x="55.615234" xlink:href="#ArialMT-30"/>
       <use x="111.230469" xlink:href="#ArialMT-30"/>
      </g>
     </g>
    </g>
    <g id="xtick_3">
     <g id="line2d_3">
      <g>
       <use style="fill:#262626;stroke:#262626;" x="229.5" xlink:href="#m5fdf9c5d52" y="270.72"/>
      </g>
     </g>
     <g id="text_3">
      <!-- 200 -->
      <defs>
       <path d="M 50.34375 8.453125 
L 50.34375 0 
L 3.03125 0 
Q 2.9375 3.171875 4.046875 6.109375 
Q 5.859375 10.9375 9.828125 15.625 
Q 13.8125 20.3125 21.34375 26.46875 
Q 33.015625 36.03125 37.109375 41.625 
Q 41.21875 47.21875 41.21875 52.203125 
Q 41.21875 57.421875 37.46875 61 
Q 33.734375 64.59375 27.734375 64.59375 
Q 21.390625 64.59375 17.578125 60.78125 
Q 13.765625 56.984375 13.71875 50.25 
L 4.6875 51.171875 
Q 5.609375 61.28125 11.65625 66.578125 
Q 17.71875 71.875 27.9375 71.875 
Q 38.234375 71.875 44.234375 66.15625 
Q 50.25 60.453125 50.25 52 
Q 50.25 47.703125 48.484375 43.546875 
Q 46.734375 39.40625 42.65625 34.8125 
Q 38.578125 30.21875 29.109375 22.21875 
Q 21.1875 15.578125 18.9375 13.203125 
Q 16.703125 10.84375 15.234375 8.453125 
z
" id="ArialMT-32"/>
      </defs>
      <g style="fill:#262626;" transform="translate(221.158594 290.877812)scale(0.1 -0.1)">
       <use xlink:href="#ArialMT-32"/>
       <use x="55.615234" xlink:href="#ArialMT-30"/>
       <use x="111.230469" xlink:href="#ArialMT-30"/>
      </g>
     </g>
    </g>
    <g id="xtick_4">
     <g id="line2d_4">
      <g>
       <use style="fill:#262626;stroke:#262626;" x="299.25" xlink:href="#m5fdf9c5d52" y="270.72"/>
      </g>
     </g>
     <g id="text_4">
      <!-- 300 -->
      <defs>
       <path d="M 4.203125 18.890625 
L 12.984375 20.0625 
Q 14.5 12.59375 18.140625 9.296875 
Q 21.78125 6 27 6 
Q 33.203125 6 37.46875 10.296875 
Q 41.75 14.59375 41.75 20.953125 
Q 41.75 27 37.796875 30.921875 
Q 33.84375 34.859375 27.734375 34.859375 
Q 25.25 34.859375 21.53125 33.890625 
L 22.515625 41.609375 
Q 23.390625 41.5 23.921875 41.5 
Q 29.546875 41.5 34.03125 44.421875 
Q 38.53125 47.359375 38.53125 53.46875 
Q 38.53125 58.296875 35.25 61.46875 
Q 31.984375 64.65625 26.8125 64.65625 
Q 21.6875 64.65625 18.265625 61.421875 
Q 14.84375 58.203125 13.875 51.765625 
L 5.078125 53.328125 
Q 6.6875 62.15625 12.390625 67.015625 
Q 18.109375 71.875 26.609375 71.875 
Q 32.46875 71.875 37.390625 69.359375 
Q 42.328125 66.84375 44.9375 62.5 
Q 47.5625 58.15625 47.5625 53.265625 
Q 47.5625 48.640625 45.0625 44.828125 
Q 42.578125 41.015625 37.703125 38.765625 
Q 44.046875 37.3125 47.5625 32.6875 
Q 51.078125 28.078125 51.078125 21.140625 
Q 51.078125 11.765625 44.234375 5.25 
Q 37.40625 -1.265625 26.953125 -1.265625 
Q 17.53125 -1.265625 11.296875 4.34375 
Q 5.078125 9.96875 4.203125 18.890625 
z
" id="ArialMT-33"/>
      </defs>
      <g style="fill:#262626;" transform="translate(290.908594 290.877812)scale(0.1 -0.1)">
       <use xlink:href="#ArialMT-33"/>
       <use x="55.615234" xlink:href="#ArialMT-30"/>
       <use x="111.230469" xlink:href="#ArialMT-30"/>
      </g>
     </g>
    </g>
    <g id="xtick_5">
     <g id="line2d_5">
      <g>
       <use style="fill:#262626;stroke:#262626;" x="369" xlink:href="#m5fdf9c5d52" y="270.72"/>
      </g>
     </g>
     <g id="text_5">
      <!-- 400 -->
      <defs>
       <path d="M 32.328125 0 
L 32.328125 17.140625 
L 1.265625 17.140625 
L 1.265625 25.203125 
L 33.9375 71.578125 
L 41.109375 71.578125 
L 41.109375 25.203125 
L 50.78125 25.203125 
L 50.78125 17.140625 
L 41.109375 17.140625 
L 41.109375 0 
z
M 32.328125 25.203125 
L 32.328125 57.46875 
L 9.90625 25.203125 
z
" id="ArialMT-34"/>
      </defs>
      <g style="fill:#262626;" transform="translate(360.658594 290.877812)scale(0.1 -0.1)">
       <use xlink:href="#ArialMT-34"/>
       <use x="55.615234" xlink:href="#ArialMT-30"/>
       <use x="111.230469" xlink:href="#ArialMT-30"/>
      </g>
     </g>
    </g>
    <g id="xtick_6">
     <g id="line2d_6">
      <g>
       <use style="fill:#262626;stroke:#262626;" x="438.75" xlink:href="#m5fdf9c5d52" y="270.72"/>
      </g>
     </g>
     <g id="text_6">
      <!-- 500 -->
      <defs>
       <path d="M 4.15625 18.75 
L 13.375 19.53125 
Q 14.40625 12.796875 18.140625 9.390625 
Q 21.875 6 27.15625 6 
Q 33.5 6 37.890625 10.78125 
Q 42.28125 15.578125 42.28125 23.484375 
Q 42.28125 31 38.0625 35.34375 
Q 33.84375 39.703125 27 39.703125 
Q 22.75 39.703125 19.328125 37.765625 
Q 15.921875 35.84375 13.96875 32.765625 
L 5.71875 33.84375 
L 12.640625 70.609375 
L 48.25 70.609375 
L 48.25 62.203125 
L 19.671875 62.203125 
L 15.828125 42.96875 
Q 22.265625 47.46875 29.34375 47.46875 
Q 38.71875 47.46875 45.15625 40.96875 
Q 51.609375 34.46875 51.609375 24.265625 
Q 51.609375 14.546875 45.953125 7.46875 
Q 39.0625 -1.21875 27.15625 -1.21875 
Q 17.390625 -1.21875 11.203125 4.25 
Q 5.03125 9.71875 4.15625 18.75 
z
" id="ArialMT-35"/>
      </defs>
      <g style="fill:#262626;" transform="translate(430.408594 290.877812)scale(0.1 -0.1)">
       <use xlink:href="#ArialMT-35"/>
       <use x="55.615234" xlink:href="#ArialMT-30"/>
       <use x="111.230469" xlink:href="#ArialMT-30"/>
      </g>
     </g>
    </g>
    <g id="xtick_7">
     <g id="line2d_7">
      <g>
       <use style="fill:#262626;stroke:#262626;" x="508.5" xlink:href="#m5fdf9c5d52" y="270.72"/>
      </g>
     </g>
     <g id="text_7">
      <!-- 600 -->
      <defs>
       <path d="M 49.75 54.046875 
L 41.015625 53.375 
Q 39.84375 58.546875 37.703125 60.890625 
Q 34.125 64.65625 28.90625 64.65625 
Q 24.703125 64.65625 21.53125 62.3125 
Q 17.390625 59.28125 14.984375 53.46875 
Q 12.59375 47.65625 12.5 36.921875 
Q 15.671875 41.75 20.265625 44.09375 
Q 24.859375 46.4375 29.890625 46.4375 
Q 38.671875 46.4375 44.84375 39.96875 
Q 51.03125 33.5 51.03125 23.25 
Q 51.03125 16.5 48.125 10.71875 
Q 45.21875 4.9375 40.140625 1.859375 
Q 35.0625 -1.21875 28.609375 -1.21875 
Q 17.625 -1.21875 10.6875 6.859375 
Q 3.765625 14.9375 3.765625 33.5 
Q 3.765625 54.25 11.421875 63.671875 
Q 18.109375 71.875 29.4375 71.875 
Q 37.890625 71.875 43.28125 67.140625 
Q 48.6875 62.40625 49.75 54.046875 
z
M 13.875 23.1875 
Q 13.875 18.65625 15.796875 14.5 
Q 17.71875 10.359375 21.1875 8.171875 
Q 24.65625 6 28.46875 6 
Q 34.03125 6 38.03125 10.484375 
Q 42.046875 14.984375 42.046875 22.703125 
Q 42.046875 30.125 38.078125 34.390625 
Q 34.125 38.671875 28.125 38.671875 
Q 22.171875 38.671875 18.015625 34.390625 
Q 13.875 30.125 13.875 23.1875 
z
" id="ArialMT-36"/>
      </defs>
      <g style="fill:#262626;" transform="translate(500.158594 290.877812)scale(0.1 -0.1)">
       <use xlink:href="#ArialMT-36"/>
       <use x="55.615234" xlink:href="#ArialMT-30"/>
       <use x="111.230469" xlink:href="#ArialMT-30"/>
      </g>
     </g>
    </g>
    <g id="xtick_8">
     <g id="line2d_8">
      <g>
       <use style="fill:#262626;stroke:#262626;" x="578.25" xlink:href="#m5fdf9c5d52" y="270.72"/>
      </g>
     </g>
     <g id="text_8">
      <!-- 700 -->
      <defs>
       <path d="M 4.734375 62.203125 
L 4.734375 70.65625 
L 51.078125 70.65625 
L 51.078125 63.8125 
Q 44.234375 56.546875 37.515625 44.484375 
Q 30.8125 32.421875 27.15625 19.671875 
Q 24.515625 10.6875 23.78125 0 
L 14.75 0 
Q 14.890625 8.453125 18.0625 20.40625 
Q 21.234375 32.375 27.171875 43.484375 
Q 33.109375 54.59375 39.796875 62.203125 
z
" id="ArialMT-37"/>
      </defs>
      <g style="fill:#262626;" transform="translate(569.908594 290.877812)scale(0.1 -0.1)">
       <use xlink:href="#ArialMT-37"/>
       <use x="55.615234" xlink:href="#ArialMT-30"/>
       <use x="111.230469" xlink:href="#ArialMT-30"/>
      </g>
     </g>
    </g>
    <g id="xtick_9">
     <g id="line2d_9">
      <g>
       <use style="fill:#262626;stroke:#262626;" x="648" xlink:href="#m5fdf9c5d52" y="270.72"/>
      </g>
     </g>
     <g id="text_9">
      <!-- 800 -->
      <defs>
       <path d="M 17.671875 38.8125 
Q 12.203125 40.828125 9.5625 44.53125 
Q 6.9375 48.25 6.9375 53.421875 
Q 6.9375 61.234375 12.546875 66.546875 
Q 18.171875 71.875 27.484375 71.875 
Q 36.859375 71.875 42.578125 66.421875 
Q 48.296875 60.984375 48.296875 53.171875 
Q 48.296875 48.1875 45.671875 44.5 
Q 43.0625 40.828125 37.75 38.8125 
Q 44.34375 36.671875 47.78125 31.875 
Q 51.21875 27.09375 51.21875 20.453125 
Q 51.21875 11.28125 44.71875 5.03125 
Q 38.234375 -1.21875 27.640625 -1.21875 
Q 17.046875 -1.21875 10.546875 5.046875 
Q 4.046875 11.328125 4.046875 20.703125 
Q 4.046875 27.6875 7.59375 32.390625 
Q 11.140625 37.109375 17.671875 38.8125 
z
M 15.921875 53.71875 
Q 15.921875 48.640625 19.1875 45.40625 
Q 22.46875 42.1875 27.6875 42.1875 
Q 32.765625 42.1875 36.015625 45.375 
Q 39.265625 48.578125 39.265625 53.21875 
Q 39.265625 58.0625 35.90625 61.359375 
Q 32.5625 64.65625 27.59375 64.65625 
Q 22.5625 64.65625 19.234375 61.421875 
Q 15.921875 58.203125 15.921875 53.71875 
z
M 13.09375 20.65625 
Q 13.09375 16.890625 14.875 13.375 
Q 16.65625 9.859375 20.171875 7.921875 
Q 23.6875 6 27.734375 6 
Q 34.03125 6 38.125 10.046875 
Q 42.234375 14.109375 42.234375 20.359375 
Q 42.234375 26.703125 38.015625 30.859375 
Q 33.796875 35.015625 27.4375 35.015625 
Q 21.234375 35.015625 17.15625 30.90625 
Q 13.09375 26.8125 13.09375 20.65625 
z
" id="ArialMT-38"/>
      </defs>
      <g style="fill:#262626;" transform="translate(639.658594 290.877812)scale(0.1 -0.1)">
       <use xlink:href="#ArialMT-38"/>
       <use x="55.615234" xlink:href="#ArialMT-30"/>
       <use x="111.230469" xlink:href="#ArialMT-30"/>
      </g>
     </g>
    </g>
   </g>
   <g id="matplotlib.axis_2">
    <g id="ytick_1">
     <g id="line2d_10">
      <defs>
       <path d="M 0 0 
L -6 0 
" id="m00b5e2421f" style="stroke:#262626;"/>
      </defs>
      <g>
       <use style="fill:#262626;stroke:#262626;" x="90" xlink:href="#m00b5e2421f" y="270.72"/>
      </g>
     </g>
     <g id="text_10">
      <!-- −0.20 -->
      <defs>
       <path d="M 52.828125 31.203125 
L 5.5625 31.203125 
L 5.5625 39.40625 
L 52.828125 39.40625 
z
" id="ArialMT-2212"/>
       <path d="M 9.078125 0 
L 9.078125 10.015625 
L 19.09375 10.015625 
L 19.09375 0 
z
" id="ArialMT-2e"/>
      </defs>
      <g style="fill:#262626;" transform="translate(51.698437 274.298906)scale(0.1 -0.1)">
       <use xlink:href="#ArialMT-2212"/>
       <use x="58.398438" xlink:href="#ArialMT-30"/>
       <use x="114.013672" xlink:href="#ArialMT-2e"/>
       <use x="141.796875" xlink:href="#ArialMT-32"/>
       <use x="197.412109" xlink:href="#ArialMT-30"/>
      </g>
     </g>
    </g>
    <g id="ytick_2">
     <g id="line2d_11">
      <g>
       <use style="fill:#262626;stroke:#262626;" x="90" xlink:href="#m00b5e2421f" y="245.52"/>
      </g>
     </g>
     <g id="text_11">
      <!-- −0.15 -->
      <g style="fill:#262626;" transform="translate(51.698437 249.098906)scale(0.1 -0.1)">
       <use xlink:href="#ArialMT-2212"/>
       <use x="58.398438" xlink:href="#ArialMT-30"/>
       <use x="114.013672" xlink:href="#ArialMT-2e"/>
       <use x="141.796875" xlink:href="#ArialMT-31"/>
       <use x="197.412109" xlink:href="#ArialMT-35"/>
      </g>
     </g>
    </g>
    <g id="ytick_3">
     <g id="line2d_12">
      <g>
       <use style="fill:#262626;stroke:#262626;" x="90" xlink:href="#m00b5e2421f" y="220.32"/>
      </g>
     </g>
     <g id="text_12">
      <!-- −0.10 -->
      <g style="fill:#262626;" transform="translate(51.698437 223.898906)scale(0.1 -0.1)">
       <use xlink:href="#ArialMT-2212"/>
       <use x="58.398438" xlink:href="#ArialMT-30"/>
       <use x="114.013672" xlink:href="#ArialMT-2e"/>
       <use x="141.796875" xlink:href="#ArialMT-31"/>
       <use x="197.412109" xlink:href="#ArialMT-30"/>
      </g>
     </g>
    </g>
    <g id="ytick_4">
     <g id="line2d_13">
      <g>
       <use style="fill:#262626;stroke:#262626;" x="90" xlink:href="#m00b5e2421f" y="195.12"/>
      </g>
     </g>
     <g id="text_13">
      <!-- −0.05 -->
      <g style="fill:#262626;" transform="translate(51.698437 198.698906)scale(0.1 -0.1)">
       <use xlink:href="#ArialMT-2212"/>
       <use x="58.398438" xlink:href="#ArialMT-30"/>
       <use x="114.013672" xlink:href="#ArialMT-2e"/>
       <use x="141.796875" xlink:href="#ArialMT-30"/>
       <use x="197.412109" xlink:href="#ArialMT-35"/>
      </g>
     </g>
    </g>
    <g id="ytick_5">
     <g id="line2d_14">
      <g>
       <use style="fill:#262626;stroke:#262626;" x="90" xlink:href="#m00b5e2421f" y="169.92"/>
      </g>
     </g>
     <g id="text_14">
      <!-- 0.00 -->
      <g style="fill:#262626;" transform="translate(57.539062 173.498906)scale(0.1 -0.1)">
       <use xlink:href="#ArialMT-30"/>
       <use x="55.615234" xlink:href="#ArialMT-2e"/>
       <use x="83.398438" xlink:href="#ArialMT-30"/>
       <use x="139.013672" xlink:href="#ArialMT-30"/>
      </g>
     </g>
    </g>
    <g id="ytick_6">
     <g id="line2d_15">
      <g>
       <use style="fill:#262626;stroke:#262626;" x="90" xlink:href="#m00b5e2421f" y="144.72"/>
      </g>
     </g>
     <g id="text_15">
      <!-- 0.05 -->
      <g style="fill:#262626;" transform="translate(57.539062 148.298906)scale(0.1 -0.1)">
       <use xlink:href="#ArialMT-30"/>
       <use x="55.615234" xlink:href="#ArialMT-2e"/>
       <use x="83.398438" xlink:href="#ArialMT-30"/>
       <use x="139.013672" xlink:href="#ArialMT-35"/>
      </g>
     </g>
    </g>
    <g id="ytick_7">
     <g id="line2d_16">
      <g>
       <use style="fill:#262626;stroke:#262626;" x="90" xlink:href="#m00b5e2421f" y="119.52"/>
      </g>
     </g>
     <g id="text_16">
      <!-- 0.10 -->
      <g style="fill:#262626;" transform="translate(57.539062 123.098906)scale(0.1 -0.1)">
       <use xlink:href="#ArialMT-30"/>
       <use x="55.615234" xlink:href="#ArialMT-2e"/>
       <use x="83.398438" xlink:href="#ArialMT-31"/>
       <use x="139.013672" xlink:href="#ArialMT-30"/>
      </g>
     </g>
    </g>
    <g id="ytick_8">
     <g id="line2d_17">
      <g>
       <use style="fill:#262626;stroke:#262626;" x="90" xlink:href="#m00b5e2421f" y="94.32"/>
      </g>
     </g>
     <g id="text_17">
      <!-- 0.15 -->
      <g style="fill:#262626;" transform="translate(57.539062 97.898906)scale(0.1 -0.1)">
       <use xlink:href="#ArialMT-30"/>
       <use x="55.615234" xlink:href="#ArialMT-2e"/>
       <use x="83.398438" xlink:href="#ArialMT-31"/>
       <use x="139.013672" xlink:href="#ArialMT-35"/>
      </g>
     </g>
    </g>
    <g id="ytick_9">
     <g id="line2d_18">
      <g>
       <use style="fill:#262626;stroke:#262626;" x="90" xlink:href="#m00b5e2421f" y="69.12"/>
      </g>
     </g>
     <g id="text_18">
      <!-- 0.20 -->
      <g style="fill:#262626;" transform="translate(57.539062 72.698906)scale(0.1 -0.1)">
       <use xlink:href="#ArialMT-30"/>
       <use x="55.615234" xlink:href="#ArialMT-2e"/>
       <use x="83.398438" xlink:href="#ArialMT-32"/>
       <use x="139.013672" xlink:href="#ArialMT-30"/>
      </g>
     </g>
    </g>
   </g>
   <g id="PolyCollection_1">
    <path clip-path="url(#pff376de117)" d="M 90 167.66349 
L 90 169.92 
L 90.6975 169.92 
L 91.395 169.92 
L 92.0925 169.92 
L 92.79 169.92 
L 93.4875 169.92 
L 94.185 169.92 
L 94.8825 169.92 
L 95.58 169.92 
L 96.2775 169.92 
L 96.975 169.92 
L 97.6725 169.92 
L 98.37 169.92 
L 99.0675 169.92 
L 99.765 169.92 
L 100.4625 169.92 
L 101.16 169.92 
L 101.8575 169.92 
L 102.555 169.92 
L 103.2525 169.92 
L 103.95 169.92 
L 104.6475 169.92 
L 105.345 169.92 
L 106.0425 169.92 
L 106.74 169.92 
L 107.4375 169.92 
L 108.135 169.92 
L 108.8325 169.92 
L 109.53 169.92 
L 110.2275 169.92 
L 110.925 169.92 
L 111.6225 169.92 
L 112.32 169.92 
L 113.0175 169.92 
L 113.715 169.92 
L 114.4125 169.92 
L 115.11 169.92 
L 115.8075 169.92 
L 116.505 169.92 
L 117.2025 169.92 
L 117.9 169.92 
L 118.5975 169.92 
L 119.295 169.92 
L 119.9925 169.92 
L 120.69 169.92 
L 121.3875 169.92 
L 122.085 169.92 
L 122.7825 169.92 
L 123.48 169.92 
L 124.1775 169.92 
L 124.875 169.92 
L 125.5725 169.92 
L 126.27 169.92 
L 126.9675 169.92 
L 127.665 169.92 
L 128.3625 169.92 
L 129.06 169.92 
L 129.7575 169.92 
L 130.455 169.92 
L 131.1525 169.92 
L 131.85 169.92 
L 132.5475 169.92 
L 133.245 169.92 
L 133.9425 169.92 
L 134.64 169.92 
L 135.3375 169.92 
L 136.035 169.92 
L 136.7325 169.92 
L 137.43 169.92 
L 138.1275 169.92 
L 138.825 169.92 
L 139.5225 169.92 
L 140.22 169.92 
L 140.9175 169.92 
L 141.615 169.92 
L 142.3125 169.92 
L 143.01 169.92 
L 143.7075 169.92 
L 144.405 169.92 
L 145.1025 169.92 
L 145.8 169.92 
L 146.4975 169.92 
L 147.195 169.92 
L 147.8925 169.92 
L 148.59 169.92 
L 149.2875 169.92 
L 149.985 169.92 
L 150.6825 169.92 
L 151.38 169.92 
L 152.0775 169.92 
L 152.775 169.92 
L 153.4725 169.92 
L 154.17 169.92 
L 154.8675 169.92 
L 155.565 169.92 
L 156.2625 169.92 
L 156.96 169.92 
L 157.6575 169.92 
L 158.355 169.92 
L 159.0525 169.92 
L 159.75 169.92 
L 160.4475 169.92 
L 161.145 169.92 
L 161.8425 169.92 
L 162.54 169.92 
L 163.2375 169.92 
L 163.935 169.92 
L 164.6325 169.92 
L 165.33 169.92 
L 166.0275 169.92 
L 166.725 169.92 
L 167.4225 169.92 
L 168.12 169.92 
L 168.8175 169.92 
L 169.515 169.92 
L 170.2125 169.92 
L 170.91 169.92 
L 171.6075 169.92 
L 172.305 169.92 
L 173.0025 169.92 
L 173.7 169.92 
L 174.3975 169.92 
L 175.095 169.92 
L 175.7925 169.92 
L 176.49 169.92 
L 177.1875 169.92 
L 177.885 169.92 
L 178.5825 169.92 
L 179.28 169.92 
L 179.9775 169.92 
L 180.675 169.92 
L 181.3725 169.92 
L 182.07 169.92 
L 182.7675 169.92 
L 183.465 169.92 
L 184.1625 169.92 
L 184.86 169.92 
L 185.5575 169.92 
L 186.255 169.92 
L 186.9525 169.92 
L 187.65 169.92 
L 188.3475 169.92 
L 189.045 169.92 
L 189.7425 169.92 
L 190.44 169.92 
L 191.1375 169.92 
L 191.835 169.92 
L 192.5325 169.92 
L 193.23 169.92 
L 193.9275 169.92 
L 194.625 169.92 
L 195.3225 169.92 
L 196.02 169.92 
L 196.7175 169.92 
L 197.415 169.92 
L 198.1125 169.92 
L 198.81 169.92 
L 199.5075 169.92 
L 200.205 169.92 
L 200.9025 169.92 
L 201.6 169.92 
L 202.2975 169.92 
L 202.995 169.92 
L 203.6925 169.92 
L 204.39 169.92 
L 205.0875 169.92 
L 205.785 169.92 
L 206.4825 169.92 
L 207.18 169.92 
L 207.8775 169.92 
L 208.575 169.92 
L 209.2725 169.92 
L 209.97 169.92 
L 210.6675 169.92 
L 211.365 169.92 
L 212.0625 169.92 
L 212.76 169.92 
L 213.4575 169.92 
L 214.155 169.92 
L 214.8525 169.92 
L 215.55 169.92 
L 216.2475 169.92 
L 216.945 169.92 
L 217.6425 169.92 
L 218.34 169.92 
L 219.0375 169.92 
L 219.735 169.92 
L 220.4325 169.92 
L 221.13 169.92 
L 221.8275 169.92 
L 222.525 169.92 
L 223.2225 169.92 
L 223.92 169.92 
L 224.6175 169.92 
L 225.315 169.92 
L 226.0125 169.92 
L 226.71 169.92 
L 227.4075 169.92 
L 228.105 169.92 
L 228.8025 169.92 
L 229.5 169.92 
L 230.1975 169.92 
L 230.895 169.92 
L 231.5925 169.92 
L 232.29 169.92 
L 232.9875 169.92 
L 233.685 169.92 
L 234.3825 169.92 
L 235.08 169.92 
L 235.7775 169.92 
L 236.475 169.92 
L 237.1725 169.92 
L 237.87 169.92 
L 238.5675 169.92 
L 239.265 169.92 
L 239.9625 169.92 
L 240.66 169.92 
L 241.3575 169.92 
L 242.055 169.92 
L 242.7525 169.92 
L 243.45 169.92 
L 244.1475 169.92 
L 244.845 169.92 
L 245.5425 169.92 
L 246.24 169.92 
L 246.9375 169.92 
L 247.635 169.92 
L 248.3325 169.92 
L 249.03 169.92 
L 249.7275 169.92 
L 250.425 169.92 
L 251.1225 169.92 
L 251.82 169.92 
L 252.5175 169.92 
L 253.215 169.92 
L 253.9125 169.92 
L 254.61 169.92 
L 255.3075 169.92 
L 256.005 169.92 
L 256.7025 169.92 
L 257.4 169.92 
L 258.0975 169.92 
L 258.795 169.92 
L 259.4925 169.92 
L 260.19 169.92 
L 260.8875 169.92 
L 261.585 169.92 
L 262.2825 169.92 
L 262.98 169.92 
L 263.6775 169.92 
L 264.375 169.92 
L 265.0725 169.92 
L 265.77 169.92 
L 266.4675 169.92 
L 267.165 169.92 
L 267.8625 169.92 
L 268.56 169.92 
L 269.2575 169.92 
L 269.955 169.92 
L 270.6525 169.92 
L 271.35 169.92 
L 272.0475 169.92 
L 272.745 169.92 
L 273.4425 169.92 
L 274.14 169.92 
L 274.8375 169.92 
L 275.535 169.92 
L 276.2325 169.92 
L 276.93 169.92 
L 277.6275 169.92 
L 278.325 169.92 
L 279.0225 169.92 
L 279.72 169.92 
L 280.4175 169.92 
L 281.115 169.92 
L 281.8125 169.92 
L 282.51 169.92 
L 283.2075 169.92 
L 283.905 169.92 
L 284.6025 169.92 
L 285.3 169.92 
L 285.9975 169.92 
L 286.695 169.92 
L 287.3925 169.92 
L 288.09 169.92 
L 288.7875 169.92 
L 289.485 169.92 
L 290.1825 169.92 
L 290.88 169.92 
L 291.5775 169.92 
L 292.275 169.92 
L 292.9725 169.92 
L 293.67 169.92 
L 294.3675 169.92 
L 295.065 169.92 
L 295.7625 169.92 
L 296.46 169.92 
L 297.1575 169.92 
L 297.855 169.92 
L 298.5525 169.92 
L 299.25 169.92 
L 299.9475 169.92 
L 300.645 169.92 
L 301.3425 169.92 
L 302.04 169.92 
L 302.7375 169.92 
L 303.435 169.92 
L 304.1325 169.92 
L 304.83 169.92 
L 305.5275 169.92 
L 306.225 169.92 
L 306.9225 169.92 
L 307.62 169.92 
L 308.3175 169.92 
L 309.015 169.92 
L 309.7125 169.92 
L 310.41 169.92 
L 311.1075 169.92 
L 311.805 169.92 
L 312.5025 169.92 
L 313.2 169.92 
L 313.8975 169.92 
L 314.595 169.92 
L 315.2925 169.92 
L 315.99 169.92 
L 316.6875 169.92 
L 317.385 169.92 
L 318.0825 169.92 
L 318.78 169.92 
L 319.4775 169.92 
L 320.175 169.92 
L 320.8725 169.92 
L 321.57 169.92 
L 322.2675 169.92 
L 322.965 169.92 
L 323.6625 169.92 
L 324.36 169.92 
L 325.0575 169.92 
L 325.755 169.92 
L 326.4525 169.92 
L 327.15 169.92 
L 327.8475 169.92 
L 328.545 169.92 
L 329.2425 169.92 
L 329.94 169.92 
L 330.6375 169.92 
L 331.335 169.92 
L 332.0325 169.92 
L 332.73 169.92 
L 333.4275 169.92 
L 334.125 169.92 
L 334.8225 169.92 
L 335.52 169.92 
L 336.2175 169.92 
L 336.915 169.92 
L 337.6125 169.92 
L 338.31 169.92 
L 339.0075 169.92 
L 339.705 169.92 
L 340.4025 169.92 
L 341.1 169.92 
L 341.7975 169.92 
L 342.495 169.92 
L 343.1925 169.92 
L 343.89 169.92 
L 344.5875 169.92 
L 345.285 169.92 
L 345.9825 169.92 
L 346.68 169.92 
L 347.3775 169.92 
L 348.075 169.92 
L 348.7725 169.92 
L 349.47 169.92 
L 350.1675 169.92 
L 350.865 169.92 
L 351.5625 169.92 
L 352.26 169.92 
L 352.9575 169.92 
L 353.655 169.92 
L 354.3525 169.92 
L 355.05 169.92 
L 355.7475 169.92 
L 356.445 169.92 
L 357.1425 169.92 
L 357.84 169.92 
L 358.5375 169.92 
L 359.235 169.92 
L 359.9325 169.92 
L 360.63 169.92 
L 361.3275 169.92 
L 362.025 169.92 
L 362.7225 169.92 
L 363.42 169.92 
L 364.1175 169.92 
L 364.815 169.92 
L 365.5125 169.92 
L 366.21 169.92 
L 366.9075 169.92 
L 367.605 169.92 
L 368.3025 169.92 
L 369 169.92 
L 369.6975 169.92 
L 370.395 169.92 
L 371.0925 169.92 
L 371.79 169.92 
L 372.4875 169.92 
L 373.185 169.92 
L 373.8825 169.92 
L 374.58 169.92 
L 375.2775 169.92 
L 375.975 169.92 
L 376.6725 169.92 
L 377.37 169.92 
L 378.0675 169.92 
L 378.765 169.92 
L 379.4625 169.92 
L 380.16 169.92 
L 380.8575 169.92 
L 381.555 169.92 
L 382.2525 169.92 
L 382.95 169.92 
L 383.6475 169.92 
L 384.345 169.92 
L 385.0425 169.92 
L 385.74 169.92 
L 386.4375 169.92 
L 387.135 169.92 
L 387.8325 169.92 
L 388.53 169.92 
L 389.2275 169.92 
L 389.925 169.92 
L 390.6225 169.92 
L 391.32 169.92 
L 392.0175 169.92 
L 392.715 169.92 
L 393.4125 169.92 
L 394.11 169.92 
L 394.8075 169.92 
L 395.505 169.92 
L 396.2025 169.92 
L 396.9 169.92 
L 397.5975 169.92 
L 398.295 169.92 
L 398.9925 169.92 
L 399.69 169.92 
L 400.3875 169.92 
L 401.085 169.92 
L 401.7825 169.92 
L 402.48 169.92 
L 403.1775 169.92 
L 403.875 169.92 
L 404.5725 169.92 
L 405.27 169.92 
L 405.9675 169.92 
L 406.665 169.92 
L 407.3625 169.92 
L 408.06 169.92 
L 408.7575 169.92 
L 409.455 169.92 
L 410.1525 169.92 
L 410.85 169.92 
L 411.5475 169.92 
L 412.245 169.92 
L 412.9425 169.92 
L 413.64 169.92 
L 414.3375 169.92 
L 415.035 169.92 
L 415.7325 169.92 
L 416.43 169.92 
L 417.1275 169.92 
L 417.825 169.92 
L 418.5225 169.92 
L 419.22 169.92 
L 419.9175 169.92 
L 420.615 169.92 
L 421.3125 169.92 
L 422.01 169.92 
L 422.7075 169.92 
L 423.405 169.92 
L 424.1025 169.92 
L 424.8 169.92 
L 425.4975 169.92 
L 426.195 169.92 
L 426.8925 169.92 
L 427.59 169.92 
L 428.2875 169.92 
L 428.985 169.92 
L 429.6825 169.92 
L 430.38 169.92 
L 431.0775 169.92 
L 431.775 169.92 
L 432.4725 169.92 
L 433.17 169.92 
L 433.8675 169.92 
L 434.565 169.92 
L 435.2625 169.92 
L 435.96 169.92 
L 436.6575 169.92 
L 437.355 169.92 
L 438.0525 169.92 
L 438.75 169.92 
L 439.4475 169.92 
L 440.145 169.92 
L 440.8425 169.92 
L 441.54 169.92 
L 442.2375 169.92 
L 442.935 169.92 
L 443.6325 169.92 
L 444.33 169.92 
L 445.0275 169.92 
L 445.725 169.92 
L 446.4225 169.92 
L 447.12 169.92 
L 447.8175 169.92 
L 448.515 169.92 
L 449.2125 169.92 
L 449.91 169.92 
L 450.6075 169.92 
L 451.305 169.92 
L 452.0025 169.92 
L 452.7 169.92 
L 453.3975 169.92 
L 454.095 169.92 
L 454.7925 169.92 
L 455.49 169.92 
L 456.1875 169.92 
L 456.885 169.92 
L 457.5825 169.92 
L 458.28 169.92 
L 458.9775 169.92 
L 459.675 169.92 
L 460.3725 169.92 
L 461.07 169.92 
L 461.7675 169.92 
L 462.465 169.92 
L 463.1625 169.92 
L 463.86 169.92 
L 464.5575 169.92 
L 465.255 169.92 
L 465.9525 169.92 
L 466.65 169.92 
L 467.3475 169.92 
L 468.045 169.92 
L 468.7425 169.92 
L 469.44 169.92 
L 470.1375 169.92 
L 470.835 169.92 
L 471.5325 169.92 
L 472.23 169.92 
L 472.9275 169.92 
L 473.625 169.92 
L 474.3225 169.92 
L 475.02 169.92 
L 475.7175 169.92 
L 476.415 169.92 
L 477.1125 169.92 
L 477.81 169.92 
L 478.5075 169.92 
L 479.205 169.92 
L 479.9025 169.92 
L 480.6 169.92 
L 481.2975 169.92 
L 481.995 169.92 
L 482.6925 169.92 
L 483.39 169.92 
L 484.0875 169.92 
L 484.785 169.92 
L 485.4825 169.92 
L 486.18 169.92 
L 486.8775 169.92 
L 487.575 169.92 
L 488.2725 169.92 
L 488.97 169.92 
L 489.6675 169.92 
L 490.365 169.92 
L 491.0625 169.92 
L 491.76 169.92 
L 492.4575 169.92 
L 493.155 169.92 
L 493.8525 169.92 
L 494.55 169.92 
L 495.2475 169.92 
L 495.945 169.92 
L 496.6425 169.92 
L 497.34 169.92 
L 498.0375 169.92 
L 498.735 169.92 
L 499.4325 169.92 
L 500.13 169.92 
L 500.8275 169.92 
L 501.525 169.92 
L 502.2225 169.92 
L 502.92 169.92 
L 503.6175 169.92 
L 504.315 169.92 
L 505.0125 169.92 
L 505.71 169.92 
L 506.4075 169.92 
L 507.105 169.92 
L 507.8025 169.92 
L 508.5 169.92 
L 509.1975 169.92 
L 509.895 169.92 
L 510.5925 169.92 
L 511.29 169.92 
L 511.9875 169.92 
L 512.685 169.92 
L 513.3825 169.92 
L 514.08 169.92 
L 514.7775 169.92 
L 515.475 169.92 
L 516.1725 169.92 
L 516.87 169.92 
L 517.5675 169.92 
L 518.265 169.92 
L 518.9625 169.92 
L 519.66 169.92 
L 520.3575 169.92 
L 521.055 169.92 
L 521.7525 169.92 
L 522.45 169.92 
L 523.1475 169.92 
L 523.845 169.92 
L 524.5425 169.92 
L 525.24 169.92 
L 525.9375 169.92 
L 526.635 169.92 
L 527.3325 169.92 
L 528.03 169.92 
L 528.7275 169.92 
L 529.425 169.92 
L 530.1225 169.92 
L 530.82 169.92 
L 531.5175 169.92 
L 532.215 169.92 
L 532.9125 169.92 
L 533.61 169.92 
L 534.3075 169.92 
L 535.005 169.92 
L 535.7025 169.92 
L 536.4 169.92 
L 537.0975 169.92 
L 537.795 169.92 
L 538.4925 169.92 
L 539.19 169.92 
L 539.8875 169.92 
L 540.585 169.92 
L 541.2825 169.92 
L 541.98 169.92 
L 542.6775 169.92 
L 543.375 169.92 
L 544.0725 169.92 
L 544.77 169.92 
L 545.4675 169.92 
L 546.165 169.92 
L 546.8625 169.92 
L 547.56 169.92 
L 548.2575 169.92 
L 548.955 169.92 
L 549.6525 169.92 
L 550.35 169.92 
L 551.0475 169.92 
L 551.745 169.92 
L 552.4425 169.92 
L 553.14 169.92 
L 553.8375 169.92 
L 554.535 169.92 
L 555.2325 169.92 
L 555.93 169.92 
L 556.6275 169.92 
L 557.325 169.92 
L 558.0225 169.92 
L 558.72 169.92 
L 559.4175 169.92 
L 560.115 169.92 
L 560.8125 169.92 
L 561.51 169.92 
L 562.2075 169.92 
L 562.905 169.92 
L 563.6025 169.92 
L 564.3 169.92 
L 564.9975 169.92 
L 565.695 169.92 
L 566.3925 169.92 
L 567.09 169.92 
L 567.7875 169.92 
L 568.485 169.92 
L 569.1825 169.92 
L 569.88 169.92 
L 570.5775 169.92 
L 571.275 169.92 
L 571.9725 169.92 
L 572.67 169.92 
L 573.3675 169.92 
L 574.065 169.92 
L 574.7625 169.92 
L 575.46 169.92 
L 576.1575 169.92 
L 576.855 169.92 
L 577.5525 169.92 
L 578.25 169.92 
L 578.9475 169.92 
L 579.645 169.92 
L 580.3425 169.92 
L 581.04 169.92 
L 581.7375 169.92 
L 582.435 169.92 
L 583.1325 169.92 
L 583.83 169.92 
L 584.5275 169.92 
L 585.225 169.92 
L 585.9225 169.92 
L 586.62 169.92 
L 587.3175 169.92 
L 588.015 169.92 
L 588.7125 169.92 
L 589.41 169.92 
L 590.1075 169.92 
L 590.805 169.92 
L 591.5025 169.92 
L 592.2 169.92 
L 592.8975 169.92 
L 593.595 169.92 
L 594.2925 169.92 
L 594.99 169.92 
L 595.6875 169.92 
L 596.385 169.92 
L 597.0825 169.92 
L 597.78 169.92 
L 598.4775 169.92 
L 599.175 169.92 
L 599.8725 169.92 
L 600.57 169.92 
L 601.2675 169.92 
L 601.965 169.92 
L 602.6625 169.92 
L 603.36 169.92 
L 604.0575 169.92 
L 604.755 169.92 
L 605.4525 169.92 
L 606.15 169.92 
L 606.8475 169.92 
L 607.545 169.92 
L 608.2425 169.92 
L 608.94 169.92 
L 609.6375 169.92 
L 610.335 169.92 
L 611.0325 169.92 
L 611.73 169.92 
L 612.4275 169.92 
L 613.125 169.92 
L 613.8225 169.92 
L 614.52 169.92 
L 615.2175 169.92 
L 615.915 169.92 
L 616.6125 169.92 
L 617.31 169.92 
L 618.0075 169.92 
L 618.705 169.92 
L 619.4025 169.92 
L 620.1 169.92 
L 620.7975 169.92 
L 621.495 169.92 
L 622.1925 169.92 
L 622.89 169.92 
L 623.5875 169.92 
L 624.285 169.92 
L 624.9825 169.92 
L 625.68 169.92 
L 626.3775 169.92 
L 627.075 169.92 
L 627.7725 169.92 
L 628.47 169.92 
L 629.1675 169.92 
L 629.865 169.92 
L 630.5625 169.92 
L 631.26 169.92 
L 631.9575 169.92 
L 632.655 169.92 
L 633.3525 169.92 
L 634.05 169.92 
L 634.7475 169.92 
L 635.445 169.92 
L 636.1425 169.92 
L 636.84 169.92 
L 637.5375 169.92 
L 638.235 169.92 
L 638.9325 169.92 
L 639.63 169.92 
L 640.3275 169.92 
L 641.025 169.92 
L 641.7225 169.92 
L 642.42 169.92 
L 643.1175 169.92 
L 643.815 169.92 
L 644.5125 169.92 
L 645.21 169.92 
L 645.9075 169.92 
L 646.605 169.92 
L 646.605 169.92 
L 646.605 169.92 
L 645.9075 169.920493 
L 645.21 169.92165 
L 644.5125 169.923636 
L 643.815 169.926609 
L 643.1175 169.930725 
L 642.42 169.936126 
L 641.7225 169.94295 
L 641.025 169.951322 
L 640.3275 169.961359 
L 639.63 169.973166 
L 638.9325 169.986834 
L 638.235 170.002444 
L 637.5375 170.020062 
L 636.84 170.039741 
L 636.1425 170.061523 
L 635.445 170.085431 
L 634.7475 170.111479 
L 634.05 170.139663 
L 633.3525 170.169968 
L 632.655 170.202363 
L 631.9575 170.236807 
L 631.26 170.273243 
L 630.5625 170.311603 
L 629.865 170.351808 
L 629.1675 170.393765 
L 628.47 170.437375 
L 627.7725 170.482527 
L 627.075 170.5291 
L 626.3775 170.57697 
L 625.68 170.626002 
L 624.9825 170.676056 
L 624.285 170.726991 
L 623.5875 170.778659 
L 622.89 170.83091 
L 622.1925 170.883594 
L 621.495 170.936561 
L 620.7975 170.98966 
L 620.1 171.042744 
L 619.4025 171.095669 
L 618.705 171.148292 
L 618.0075 171.200478 
L 617.31 171.252098 
L 616.6125 171.303026 
L 615.915 171.353148 
L 615.2175 171.402355 
L 614.52 171.450547 
L 613.8225 171.497634 
L 613.125 171.543535 
L 612.4275 171.588178 
L 611.73 171.631504 
L 611.0325 171.673462 
L 610.335 171.714012 
L 609.6375 171.753124 
L 608.94 171.79078 
L 608.2425 171.82697 
L 607.545 171.861696 
L 606.8475 171.894967 
L 606.15 171.926805 
L 605.4525 171.957237 
L 604.755 171.9863 
L 604.0575 172.014038 
L 603.36 172.040502 
L 602.6625 172.06575 
L 601.965 172.089844 
L 601.2675 172.112851 
L 600.57 172.134844 
L 599.8725 172.155895 
L 599.175 172.176083 
L 598.4775 172.195484 
L 597.78 172.214179 
L 597.0825 172.232244 
L 596.385 172.249759 
L 595.6875 172.266798 
L 594.99 172.283437 
L 594.2925 172.299744 
L 593.595 172.315788 
L 592.8975 172.331632 
L 592.2 172.347332 
L 591.5025 172.362943 
L 590.805 172.378513 
L 590.1075 172.394082 
L 589.41 172.409686 
L 588.7125 172.425356 
L 588.015 172.441115 
L 587.3175 172.456979 
L 586.62 172.472961 
L 585.9225 172.489063 
L 585.225 172.505286 
L 584.5275 172.521624 
L 583.83 172.538063 
L 583.1325 172.554588 
L 582.435 172.571178 
L 581.7375 172.587807 
L 581.04 172.604447 
L 580.3425 172.621067 
L 579.645 172.637634 
L 578.9475 172.654112 
L 578.25 172.670466 
L 577.5525 172.686659 
L 576.855 172.702656 
L 576.1575 172.718423 
L 575.46 172.733925 
L 574.7625 172.749133 
L 574.065 172.764019 
L 573.3675 172.778558 
L 572.67 172.792731 
L 571.9725 172.806521 
L 571.275 172.819918 
L 570.5775 172.832916 
L 569.88 172.845516 
L 569.1825 172.857724 
L 568.485 172.869552 
L 567.7875 172.881018 
L 567.09 172.892147 
L 566.3925 172.902971 
L 565.695 172.913526 
L 564.9975 172.923855 
L 564.3 172.934008 
L 563.6025 172.944038 
L 562.905 172.954005 
L 562.2075 172.963973 
L 561.51 172.97401 
L 560.8125 172.984188 
L 560.115 172.99458 
L 559.4175 173.005265 
L 558.72 173.01632 
L 558.0225 173.027823 
L 557.325 173.039855 
L 556.6275 173.052494 
L 555.93 173.065816 
L 555.2325 173.079895 
L 554.535 173.094804 
L 553.8375 173.110608 
L 553.14 173.12737 
L 552.4425 173.145147 
L 551.745 173.163989 
L 551.0475 173.183939 
L 550.35 173.205034 
L 549.6525 173.2273 
L 548.955 173.250757 
L 548.2575 173.275414 
L 547.56 173.301271 
L 546.8625 173.328318 
L 546.165 173.356533 
L 545.4675 173.385888 
L 544.77 173.416339 
L 544.0725 173.447837 
L 543.375 173.480318 
L 542.6775 173.513711 
L 541.98 173.547934 
L 541.2825 173.582896 
L 540.585 173.618495 
L 539.8875 173.654623 
L 539.19 173.691163 
L 538.4925 173.727991 
L 537.795 173.764977 
L 537.0975 173.801984 
L 536.4 173.838871 
L 535.7025 173.875494 
L 535.005 173.911706 
L 534.3075 173.947357 
L 533.61 173.982297 
L 532.9125 174.016377 
L 532.215 174.049449 
L 531.5175 174.081367 
L 530.82 174.11199 
L 530.1225 174.14118 
L 529.425 174.168807 
L 528.7275 174.194745 
L 528.03 174.218878 
L 527.3325 174.241098 
L 526.635 174.261306 
L 525.9375 174.279415 
L 525.24 174.295347 
L 524.5425 174.309039 
L 523.845 174.320437 
L 523.1475 174.329502 
L 522.45 174.336208 
L 521.7525 174.340542 
L 521.055 174.342505 
L 520.3575 174.342114 
L 519.66 174.339397 
L 518.9625 174.334398 
L 518.265 174.327173 
L 517.5675 174.317794 
L 516.87 174.306343 
L 516.1725 174.292916 
L 515.475 174.277622 
L 514.7775 174.260579 
L 514.08 174.241916 
L 513.3825 174.221773 
L 512.685 174.200297 
L 511.9875 174.177645 
L 511.29 174.153977 
L 510.5925 174.129461 
L 509.895 174.10427 
L 509.1975 174.078578 
L 508.5 174.052562 
L 507.8025 174.026401 
L 507.105 174.000273 
L 506.4075 173.974352 
L 505.71 173.948812 
L 505.0125 173.923821 
L 504.315 173.899545 
L 503.6175 173.876139 
L 502.92 173.853754 
L 502.2225 173.832532 
L 501.525 173.812605 
L 500.8275 173.794095 
L 500.13 173.777114 
L 499.4325 173.76176 
L 498.735 173.748122 
L 498.0375 173.736272 
L 497.34 173.726273 
L 496.6425 173.718172 
L 495.945 173.712001 
L 495.2475 173.707782 
L 494.55 173.705518 
L 493.8525 173.705203 
L 493.155 173.706814 
L 492.4575 173.710315 
L 491.76 173.715658 
L 491.0625 173.722782 
L 490.365 173.731615 
L 489.6675 173.74207 
L 488.97 173.754055 
L 488.2725 173.767462 
L 487.575 173.78218 
L 486.8775 173.798086 
L 486.18 173.81505 
L 485.4825 173.832939 
L 484.785 173.851612 
L 484.0875 173.870925 
L 483.39 173.890732 
L 482.6925 173.910884 
L 481.995 173.931231 
L 481.2975 173.951627 
L 480.6 173.971922 
L 479.9025 173.991973 
L 479.205 174.011638 
L 478.5075 174.030781 
L 477.81 174.04927 
L 477.1125 174.066981 
L 476.415 174.083796 
L 475.7175 174.099604 
L 475.02 174.114303 
L 474.3225 174.127801 
L 473.625 174.140014 
L 472.9275 174.150868 
L 472.23 174.160299 
L 471.5325 174.168255 
L 470.835 174.174692 
L 470.1375 174.179577 
L 469.44 174.18289 
L 468.7425 174.184617 
L 468.045 174.184758 
L 467.3475 174.18332 
L 466.65 174.180321 
L 465.9525 174.175787 
L 465.255 174.169754 
L 464.5575 174.162263 
L 463.86 174.153364 
L 463.1625 174.143115 
L 462.465 174.131576 
L 461.7675 174.118816 
L 461.07 174.104906 
L 460.3725 174.08992 
L 459.675 174.073936 
L 458.9775 174.057034 
L 458.28 174.039294 
L 457.5825 174.020797 
L 456.885 174.001622 
L 456.1875 173.981849 
L 455.49 173.961554 
L 454.7925 173.94081 
L 454.095 173.91969 
L 453.3975 173.898259 
L 452.7 173.87658 
L 452.0025 173.85471 
L 451.305 173.832701 
L 450.6075 173.810599 
L 449.91 173.788445 
L 449.2125 173.766274 
L 448.515 173.744113 
L 447.8175 173.721984 
L 447.12 173.699903 
L 446.4225 173.677879 
L 445.725 173.655917 
L 445.0275 173.634014 
L 444.33 173.612161 
L 443.6325 173.590348 
L 442.935 173.568557 
L 442.2375 173.546765 
L 441.54 173.524949 
L 440.8425 173.50308 
L 440.145 173.481128 
L 439.4475 173.459061 
L 438.75 173.436844 
L 438.0525 173.414444 
L 437.355 173.391827 
L 436.6575 173.368959 
L 435.96 173.345809 
L 435.2625 173.322346 
L 434.565 173.298544 
L 433.8675 173.274378 
L 433.17 173.249829 
L 432.4725 173.224881 
L 431.775 173.199522 
L 431.0775 173.173746 
L 430.38 173.147554 
L 429.6825 173.120951 
L 428.985 173.093947 
L 428.2875 173.066561 
L 427.59 173.038817 
L 426.8925 173.010744 
L 426.195 172.982379 
L 425.4975 172.953765 
L 424.8 172.924949 
L 424.1025 172.895986 
L 423.405 172.866934 
L 422.7075 172.837858 
L 422.01 172.808825 
L 421.3125 172.779908 
L 420.615 172.751183 
L 419.9175 172.722726 
L 419.22 172.694617 
L 418.5225 172.666938 
L 417.825 172.639769 
L 417.1275 172.613192 
L 416.43 172.587285 
L 415.7325 172.562126 
L 415.035 172.53779 
L 414.3375 172.514348 
L 413.64 172.491866 
L 412.9425 172.470405 
L 412.245 172.450022 
L 411.5475 172.430764 
L 410.85 172.412673 
L 410.1525 172.395781 
L 409.455 172.380115 
L 408.7575 172.365689 
L 408.06 172.35251 
L 407.3625 172.340574 
L 406.665 172.329867 
L 405.9675 172.320365 
L 405.27 172.312034 
L 404.5725 172.304829 
L 403.875 172.298695 
L 403.1775 172.293566 
L 402.48 172.289366 
L 401.7825 172.28601 
L 401.085 172.283404 
L 400.3875 172.281444 
L 399.69 172.280019 
L 398.9925 172.279011 
L 398.295 172.278292 
L 397.5975 172.277732 
L 396.9 172.277193 
L 396.2025 172.276535 
L 395.505 172.275612 
L 394.8075 172.274279 
L 394.11 172.272388 
L 393.4125 172.26979 
L 392.715 172.26634 
L 392.0175 172.261891 
L 391.32 172.256302 
L 390.6225 172.249435 
L 389.925 172.241159 
L 389.2275 172.231348 
L 388.53 172.219882 
L 387.8325 172.206652 
L 387.135 172.191557 
L 386.4375 172.174506 
L 385.74 172.155418 
L 385.0425 172.134226 
L 384.345 172.110872 
L 383.6475 172.085314 
L 382.95 172.05752 
L 382.2525 172.027474 
L 381.555 171.995172 
L 380.8575 171.960626 
L 380.16 171.92386 
L 379.4625 171.884913 
L 378.765 171.843838 
L 378.0675 171.8007 
L 377.37 171.755579 
L 376.6725 171.708567 
L 375.975 171.659769 
L 375.2775 171.609299 
L 374.58 171.557285 
L 373.8825 171.503863 
L 373.185 171.449178 
L 372.4875 171.393385 
L 371.79 171.336644 
L 371.0925 171.279122 
L 370.395 171.220991 
L 369.6975 171.162427 
L 369 171.103606 
L 368.3025 171.04471 
L 367.605 170.985917 
L 366.9075 170.927406 
L 366.21 170.869353 
L 365.5125 170.811931 
L 364.815 170.755306 
L 364.1175 170.699642 
L 363.42 170.645094 
L 362.7225 170.591808 
L 362.025 170.539924 
L 361.3275 170.489569 
L 360.63 170.440861 
L 359.9325 170.393907 
L 359.235 170.348801 
L 358.5375 170.305625 
L 357.84 170.264448 
L 357.1425 170.225324 
L 356.445 170.188296 
L 355.7475 170.15339 
L 355.05 170.12062 
L 354.3525 170.089985 
L 353.655 170.061472 
L 352.9575 170.035051 
L 352.26 170.010683 
L 351.5625 169.988313 
L 350.865 169.967875 
L 350.1675 169.949291 
L 349.47 169.932473 
L 348.7725 169.91732 
L 348.075 169.903725 
L 347.3775 169.891571 
L 346.68 169.880733 
L 345.9825 169.87108 
L 345.285 169.862477 
L 344.5875 169.854781 
L 343.89 169.84785 
L 343.1925 169.841535 
L 342.495 169.835691 
L 341.7975 169.830169 
L 341.1 169.824822 
L 340.4025 169.819506 
L 339.705 169.81408 
L 339.0075 169.808405 
L 338.31 169.80235 
L 337.6125 169.795787 
L 336.915 169.788597 
L 336.2175 169.780667 
L 335.52 169.771892 
L 334.8225 169.762177 
L 334.125 169.751435 
L 333.4275 169.739589 
L 332.73 169.726572 
L 332.0325 169.712326 
L 331.335 169.696806 
L 330.6375 169.679976 
L 329.94 169.661809 
L 329.2425 169.64229 
L 328.545 169.621415 
L 327.8475 169.599188 
L 327.15 169.575623 
L 326.4525 169.550745 
L 325.755 169.524584 
L 325.0575 169.497182 
L 324.36 169.468586 
L 323.6625 169.43885 
L 322.965 169.408036 
L 322.2675 169.376208 
L 321.57 169.343438 
L 320.8725 169.309801 
L 320.175 169.275373 
L 319.4775 169.240234 
L 318.78 169.204465 
L 318.0825 169.168149 
L 317.385 169.131365 
L 316.6875 169.094195 
L 315.99 169.056716 
L 315.2925 169.019006 
L 314.595 168.981138 
L 313.8975 168.94318 
L 313.2 168.905198 
L 312.5025 168.867252 
L 311.805 168.829398 
L 311.1075 168.791686 
L 310.41 168.754159 
L 309.7125 168.716856 
L 309.015 168.679808 
L 308.3175 168.64304 
L 307.62 168.606572 
L 306.9225 168.570417 
L 306.225 168.534582 
L 305.5275 168.499068 
L 304.83 168.46387 
L 304.1325 168.428979 
L 303.435 168.394381 
L 302.7375 168.360056 
L 302.04 168.325982 
L 301.3425 168.292133 
L 300.645 168.25848 
L 299.9475 168.224991 
L 299.25 168.191635 
L 298.5525 168.158378 
L 297.855 168.125186 
L 297.1575 168.092026 
L 296.46 168.058867 
L 295.7625 168.025677 
L 295.065 167.992429 
L 294.3675 167.959098 
L 293.67 167.925663 
L 292.9725 167.892105 
L 292.275 167.858412 
L 291.5775 167.824577 
L 290.88 167.790597 
L 290.1825 167.756474 
L 289.485 167.722219 
L 288.7875 167.687845 
L 288.09 167.653375 
L 287.3925 167.618836 
L 286.695 167.584262 
L 285.9975 167.549693 
L 285.3 167.515175 
L 284.6025 167.480759 
L 283.905 167.446503 
L 283.2075 167.412469 
L 282.51 167.378723 
L 281.8125 167.345335 
L 281.115 167.312381 
L 280.4175 167.279936 
L 279.72 167.248081 
L 279.0225 167.216894 
L 278.325 167.186459 
L 277.6275 167.156855 
L 276.93 167.128164 
L 276.2325 167.100464 
L 275.535 167.07383 
L 274.8375 167.048337 
L 274.14 167.024052 
L 273.4425 167.001039 
L 272.745 166.979357 
L 272.0475 166.959058 
L 271.35 166.940185 
L 270.6525 166.922777 
L 269.955 166.906861 
L 269.2575 166.892458 
L 268.56 166.879578 
L 267.8625 166.868222 
L 267.165 166.858381 
L 266.4675 166.850035 
L 265.77 166.843155 
L 265.0725 166.8377 
L 264.375 166.833619 
L 263.6775 166.830853 
L 262.98 166.829328 
L 262.2825 166.828965 
L 261.585 166.829673 
L 260.8875 166.831352 
L 260.19 166.833894 
L 259.4925 166.837183 
L 258.795 166.841097 
L 258.0975 166.845505 
L 257.4 166.850274 
L 256.7025 166.855263 
L 256.005 166.860329 
L 255.3075 166.865326 
L 254.61 166.870107 
L 253.9125 166.874523 
L 253.215 166.878426 
L 252.5175 166.881669 
L 251.82 166.88411 
L 251.1225 166.885609 
L 250.425 166.886029 
L 249.7275 166.885242 
L 249.03 166.883126 
L 248.3325 166.879565 
L 247.635 166.874455 
L 246.9375 166.867699 
L 246.24 166.859211 
L 245.5425 166.848917 
L 244.845 166.836754 
L 244.1475 166.822673 
L 243.45 166.806637 
L 242.7525 166.788622 
L 242.055 166.768617 
L 241.3575 166.746628 
L 240.66 166.72267 
L 239.9625 166.696778 
L 239.265 166.668995 
L 238.5675 166.639382 
L 237.87 166.608011 
L 237.1725 166.574968 
L 236.475 166.540352 
L 235.7775 166.50427 
L 235.08 166.466846 
L 234.3825 166.428211 
L 233.685 166.388504 
L 232.9875 166.347876 
L 232.29 166.306484 
L 231.5925 166.26449 
L 230.895 166.222065 
L 230.1975 166.179381 
L 229.5 166.136615 
L 228.8025 166.093945 
L 228.105 166.051548 
L 227.4075 166.009605 
L 226.71 165.968291 
L 226.0125 165.927779 
L 225.315 165.888239 
L 224.6175 165.849835 
L 223.92 165.812724 
L 223.2225 165.777057 
L 222.525 165.742974 
L 221.8275 165.710609 
L 221.13 165.680082 
L 220.4325 165.651505 
L 219.735 165.624977 
L 219.0375 165.600583 
L 218.34 165.578399 
L 217.6425 165.558483 
L 216.945 165.540883 
L 216.2475 165.525632 
L 215.55 165.512747 
L 214.8525 165.502235 
L 214.155 165.494086 
L 213.4575 165.488277 
L 212.76 165.484771 
L 212.0625 165.48352 
L 211.365 165.484462 
L 210.6675 165.487522 
L 209.97 165.492616 
L 209.2725 165.499649 
L 208.575 165.508513 
L 207.8775 165.519096 
L 207.18 165.531275 
L 206.4825 165.544921 
L 205.785 165.559898 
L 205.0875 165.576066 
L 204.39 165.593281 
L 203.6925 165.611397 
L 202.995 165.630264 
L 202.2975 165.649734 
L 201.6 165.669658 
L 200.9025 165.689889 
L 200.205 165.710284 
L 199.5075 165.7307 
L 198.81 165.751003 
L 198.1125 165.77106 
L 197.415 165.790749 
L 196.7175 165.809951 
L 196.02 165.828556 
L 195.3225 165.846464 
L 194.625 165.863582 
L 193.9275 165.879827 
L 193.23 165.895126 
L 192.5325 165.909417 
L 191.835 165.922646 
L 191.1375 165.934771 
L 190.44 165.945761 
L 189.7425 165.955595 
L 189.045 165.96426 
L 188.3475 165.971756 
L 187.65 165.978091 
L 186.9525 165.983284 
L 186.255 165.987361 
L 185.5575 165.990357 
L 184.86 165.992315 
L 184.1625 165.993284 
L 183.465 165.993323 
L 182.7675 165.992492 
L 182.07 165.990858 
L 181.3725 165.988493 
L 180.675 165.985472 
L 179.9775 165.981871 
L 179.28 165.97777 
L 178.5825 165.973248 
L 177.885 165.968385 
L 177.1875 165.96326 
L 176.49 165.957952 
L 175.7925 165.952536 
L 175.095 165.947085 
L 174.3975 165.941668 
L 173.7 165.936352 
L 173.0025 165.931197 
L 172.305 165.926259 
L 171.6075 165.921588 
L 170.91 165.91723 
L 170.2125 165.913224 
L 169.515 165.909603 
L 168.8175 165.906393 
L 168.12 165.903615 
L 167.4225 165.901282 
L 166.725 165.899403 
L 166.0275 165.897979 
L 165.33 165.897008 
L 164.6325 165.89648 
L 163.935 165.89638 
L 163.2375 165.896691 
L 162.54 165.897389 
L 161.8425 165.898449 
L 161.145 165.899839 
L 160.4475 165.90153 
L 159.75 165.903486 
L 159.0525 165.905673 
L 158.355 165.908056 
L 157.6575 165.9106 
L 156.96 165.91327 
L 156.2625 165.916032 
L 155.565 165.918857 
L 154.8675 165.921715 
L 154.17 165.924582 
L 153.4725 165.927437 
L 152.775 165.930263 
L 152.0775 165.933047 
L 151.38 165.935784 
L 150.6825 165.938471 
L 149.985 165.941114 
L 149.2875 165.943722 
L 148.59 165.946312 
L 147.8925 165.948908 
L 147.195 165.951538 
L 146.4975 165.954237 
L 145.8 165.957048 
L 145.1025 165.960016 
L 144.405 165.963196 
L 143.7075 165.966645 
L 143.01 165.970425 
L 142.3125 165.974604 
L 141.615 165.979252 
L 140.9175 165.984443 
L 140.22 165.990253 
L 139.5225 165.99676 
L 138.825 166.004044 
L 138.1275 166.012184 
L 137.43 166.021258 
L 136.7325 166.031345 
L 136.035 166.042519 
L 135.3375 166.054853 
L 134.64 166.068416 
L 133.9425 166.083273 
L 133.245 166.099481 
L 132.5475 166.117094 
L 131.85 166.136158 
L 131.1525 166.156712 
L 130.455 166.178785 
L 129.7575 166.202401 
L 129.06 166.227571 
L 128.3625 166.2543 
L 127.665 166.28258 
L 126.9675 166.312395 
L 126.27 166.343718 
L 125.5725 166.376512 
L 124.875 166.410728 
L 124.1775 166.446308 
L 123.48 166.483183 
L 122.7825 166.521276 
L 122.085 166.560497 
L 121.3875 166.600749 
L 120.69 166.641927 
L 119.9925 166.683914 
L 119.295 166.726591 
L 118.5975 166.769828 
L 117.9 166.813491 
L 117.2025 166.857439 
L 116.505 166.901531 
L 115.8075 166.945617 
L 115.11 166.98955 
L 114.4125 167.03318 
L 113.715 167.076356 
L 113.0175 167.118928 
L 112.32 167.160751 
L 111.6225 167.20168 
L 110.925 167.241576 
L 110.2275 167.280304 
L 109.53 167.317738 
L 108.8325 167.353756 
L 108.135 167.388248 
L 107.4375 167.42111 
L 106.74 167.45225 
L 106.0425 167.481586 
L 105.345 167.509049 
L 104.6475 167.534582 
L 103.95 167.558138 
L 103.2525 167.579686 
L 102.555 167.599208 
L 101.8575 167.6167 
L 101.16 167.632171 
L 100.4625 167.645644 
L 99.765 167.657158 
L 99.0675 167.666763 
L 98.37 167.674524 
L 97.6725 167.68052 
L 96.975 167.684839 
L 96.2775 167.687586 
L 95.58 167.688875 
L 94.8825 167.688829 
L 94.185 167.687585 
L 93.4875 167.685285 
L 92.79 167.682082 
L 92.0925 167.678134 
L 91.395 167.673605 
L 90.6975 167.668667 
L 90 167.66349 
z
" style="fill:#e0ffff;"/>
   </g>
   <g id="line2d_19">
    <path clip-path="url(#pff376de117)" d="M 90 167.66349 
L 100.4625 167.645644 
L 108.135 167.388248 
L 119.295 166.726591 
L 129.06 166.227571 
L 137.43 166.021258 
L 152.775 165.930263 
L 175.095 165.947085 
L 189.7425 165.955595 
L 200.9025 165.689889 
L 211.365 165.484462 
L 218.34 165.578399 
L 226.0125 165.927779 
L 242.055 166.768617 
L 249.7275 166.885242 
L 273.4425 167.001039 
L 283.905 167.446503 
L 332.0325 169.712326 
L 343.89 169.84785 
L 352.9575 170.035051 
L 359.9325 170.393907 
L 369.6975 171.162427 
L 379.4625 171.884913 
L 386.4375 172.174506 
L 394.8075 172.274279 
L 410.85 172.412673 
L 422.01 172.808825 
L 442.2375 173.546765 
L 465.255 174.169754 
L 473.625 174.140014 
L 486.8775 173.798086 
L 495.2475 173.707782 
L 502.92 173.853754 
L 521.055 174.342505 
L 528.03 174.218878 
L 537.0975 173.801984 
L 550.35 173.205034 
L 561.51 172.97401 
L 583.1325 172.554588 
L 606.8475 171.894967 
L 615.915 171.353148 
L 634.05 170.139663 
L 641.025 169.951322 
L 646.605 169.92 
L 646.605 169.92 
" style="fill:none;stroke:#008080;stroke-linecap:round;stroke-width:1.75;"/>
   </g>
   <g id="patch_3">
    <path d="M 90 270.72 
L 90 69.12 
" style="fill:none;stroke:#262626;stroke-linecap:square;stroke-linejoin:miter;stroke-width:1.25;"/>
   </g>
   <g id="patch_4">
    <path d="M 90 270.72 
L 648 270.72 
" style="fill:none;stroke:#262626;stroke-linecap:square;stroke-linejoin:miter;stroke-width:1.25;"/>
   </g>
  </g>
  <g id="axes_2">
   <g id="patch_5">
    <path d="M 90 512.64 
L 648 512.64 
L 648 311.04 
L 90 311.04 
z
" style="fill:#ffffff;"/>
   </g>
   <g id="matplotlib.axis_3">
    <g id="xtick_10">
     <g id="line2d_20">
      <g>
       <use style="fill:#262626;stroke:#262626;" x="191.454545" xlink:href="#m5fdf9c5d52" y="512.64"/>
      </g>
     </g>
     <g id="text_19">
      <!-- 200 -->
      <g style="fill:#262626;" transform="translate(183.113139 532.797812)scale(0.1 -0.1)">
       <use xlink:href="#ArialMT-32"/>
       <use x="55.615234" xlink:href="#ArialMT-30"/>
       <use x="111.230469" xlink:href="#ArialMT-30"/>
      </g>
     </g>
    </g>
    <g id="xtick_11">
     <g id="line2d_21">
      <g>
       <use style="fill:#262626;stroke:#262626;" x="304.181818" xlink:href="#m5fdf9c5d52" y="512.64"/>
      </g>
     </g>
     <g id="text_20">
      <!-- 400 -->
      <g style="fill:#262626;" transform="translate(295.840412 532.797812)scale(0.1 -0.1)">
       <use xlink:href="#ArialMT-34"/>
       <use x="55.615234" xlink:href="#ArialMT-30"/>
       <use x="111.230469" xlink:href="#ArialMT-30"/>
      </g>
     </g>
    </g>
    <g id="xtick_12">
     <g id="line2d_22">
      <g>
       <use style="fill:#262626;stroke:#262626;" x="416.909091" xlink:href="#m5fdf9c5d52" y="512.64"/>
      </g>
     </g>
     <g id="text_21">
      <!-- 600 -->
      <g style="fill:#262626;" transform="translate(408.567685 532.797812)scale(0.1 -0.1)">
       <use xlink:href="#ArialMT-36"/>
       <use x="55.615234" xlink:href="#ArialMT-30"/>
       <use x="111.230469" xlink:href="#ArialMT-30"/>
      </g>
     </g>
    </g>
    <g id="xtick_13">
     <g id="line2d_23">
      <g>
       <use style="fill:#262626;stroke:#262626;" x="529.636364" xlink:href="#m5fdf9c5d52" y="512.64"/>
      </g>
     </g>
     <g id="text_22">
      <!-- 800 -->
      <g style="fill:#262626;" transform="translate(521.294957 532.797812)scale(0.1 -0.1)">
       <use xlink:href="#ArialMT-38"/>
       <use x="55.615234" xlink:href="#ArialMT-30"/>
       <use x="111.230469" xlink:href="#ArialMT-30"/>
      </g>
     </g>
    </g>
    <g id="xtick_14">
     <g id="line2d_24">
      <g>
       <use style="fill:#262626;stroke:#262626;" x="642.363636" xlink:href="#m5fdf9c5d52" y="512.64"/>
      </g>
     </g>
     <g id="text_23">
      <!-- 1000 -->
      <g style="fill:#262626;" transform="translate(631.241761 532.797812)scale(0.1 -0.1)">
       <use xlink:href="#ArialMT-31"/>
       <use x="55.615234" xlink:href="#ArialMT-30"/>
       <use x="111.230469" xlink:href="#ArialMT-30"/>
       <use x="166.845703" xlink:href="#ArialMT-30"/>
      </g>
     </g>
    </g>
   </g>
   <g id="matplotlib.axis_4">
    <g id="ytick_10">
     <g id="line2d_25">
      <g>
       <use style="fill:#262626;stroke:#262626;" x="90" xlink:href="#m00b5e2421f" y="512.64"/>
      </g>
     </g>
     <g id="text_24">
      <!-- 0 -->
      <g style="fill:#262626;" transform="translate(71.439063 516.218906)scale(0.1 -0.1)">
       <use xlink:href="#ArialMT-30"/>
      </g>
     </g>
    </g>
    <g id="ytick_11">
     <g id="line2d_26">
      <g>
       <use style="fill:#262626;stroke:#262626;" x="90" xlink:href="#m00b5e2421f" y="487.44"/>
      </g>
     </g>
     <g id="text_25">
      <!-- 5 -->
      <g style="fill:#262626;" transform="translate(71.439063 491.018906)scale(0.1 -0.1)">
       <use xlink:href="#ArialMT-35"/>
      </g>
     </g>
    </g>
    <g id="ytick_12">
     <g id="line2d_27">
      <g>
       <use style="fill:#262626;stroke:#262626;" x="90" xlink:href="#m00b5e2421f" y="462.24"/>
      </g>
     </g>
     <g id="text_26">
      <!-- 10 -->
      <g style="fill:#262626;" transform="translate(65.878125 465.818906)scale(0.1 -0.1)">
       <use xlink:href="#ArialMT-31"/>
       <use x="55.615234" xlink:href="#ArialMT-30"/>
      </g>
     </g>
    </g>
    <g id="ytick_13">
     <g id="line2d_28">
      <g>
       <use style="fill:#262626;stroke:#262626;" x="90" xlink:href="#m00b5e2421f" y="437.04"/>
      </g>
     </g>
     <g id="text_27">
      <!-- 15 -->
      <g style="fill:#262626;" transform="translate(65.878125 440.618906)scale(0.1 -0.1)">
       <use xlink:href="#ArialMT-31"/>
       <use x="55.615234" xlink:href="#ArialMT-35"/>
      </g>
     </g>
    </g>
    <g id="ytick_14">
     <g id="line2d_29">
      <g>
       <use style="fill:#262626;stroke:#262626;" x="90" xlink:href="#m00b5e2421f" y="411.84"/>
      </g>
     </g>
     <g id="text_28">
      <!-- 20 -->
      <g style="fill:#262626;" transform="translate(65.878125 415.418906)scale(0.1 -0.1)">
       <use xlink:href="#ArialMT-32"/>
       <use x="55.615234" xlink:href="#ArialMT-30"/>
      </g>
     </g>
    </g>
    <g id="ytick_15">
     <g id="line2d_30">
      <g>
       <use style="fill:#262626;stroke:#262626;" x="90" xlink:href="#m00b5e2421f" y="386.64"/>
      </g>
     </g>
     <g id="text_29">
      <!-- 25 -->
      <g style="fill:#262626;" transform="translate(65.878125 390.218906)scale(0.1 -0.1)">
       <use xlink:href="#ArialMT-32"/>
       <use x="55.615234" xlink:href="#ArialMT-35"/>
      </g>
     </g>
    </g>
    <g id="ytick_16">
     <g id="line2d_31">
      <g>
       <use style="fill:#262626;stroke:#262626;" x="90" xlink:href="#m00b5e2421f" y="361.44"/>
      </g>
     </g>
     <g id="text_30">
      <!-- 30 -->
      <g style="fill:#262626;" transform="translate(65.878125 365.018906)scale(0.1 -0.1)">
       <use xlink:href="#ArialMT-33"/>
       <use x="55.615234" xlink:href="#ArialMT-30"/>
      </g>
     </g>
    </g>
    <g id="ytick_17">
     <g id="line2d_32">
      <g>
       <use style="fill:#262626;stroke:#262626;" x="90" xlink:href="#m00b5e2421f" y="336.24"/>
      </g>
     </g>
     <g id="text_31">
      <!-- 35 -->
      <g style="fill:#262626;" transform="translate(65.878125 339.818906)scale(0.1 -0.1)">
       <use xlink:href="#ArialMT-33"/>
       <use x="55.615234" xlink:href="#ArialMT-35"/>
      </g>
     </g>
    </g>
    <g id="ytick_18">
     <g id="line2d_33">
      <g>
       <use style="fill:#262626;stroke:#262626;" x="90" xlink:href="#m00b5e2421f" y="311.04"/>
      </g>
     </g>
     <g id="text_32">
      <!-- 40 -->
      <g style="fill:#262626;" transform="translate(65.878125 314.618906)scale(0.1 -0.1)">
       <use xlink:href="#ArialMT-34"/>
       <use x="55.615234" xlink:href="#ArialMT-30"/>
      </g>
     </g>
    </g>
   </g>
   <g id="line2d_34">
    <path clip-path="url(#pfce7a98909)" d="M 90 488.562059 
L 95.636364 492.871917 
L 101.272727 491.915277 
L 106.909091 490.291312 
" style="fill:none;stroke:#b22222;stroke-linecap:round;stroke-width:1.75;"/>
   </g>
   <g id="patch_6">
    <path d="M 90 512.64 
L 90 311.04 
" style="fill:none;stroke:#262626;stroke-linecap:square;stroke-linejoin:miter;stroke-width:1.25;"/>
   </g>
   <g id="patch_7">
    <path d="M 90 512.64 
L 648 512.64 
" style="fill:none;stroke:#262626;stroke-linecap:square;stroke-linejoin:miter;stroke-width:1.25;"/>
   </g>
   <g id="text_33">
    <!-- f = 50 Hz -->
    <defs>
     <path d="M 8.6875 0 
L 8.6875 45.015625 
L 0.921875 45.015625 
L 0.921875 51.859375 
L 8.6875 51.859375 
L 8.6875 57.375 
Q 8.6875 62.59375 9.625 65.140625 
Q 10.890625 68.5625 14.078125 70.671875 
Q 17.28125 72.796875 23.046875 72.796875 
Q 26.765625 72.796875 31.25 71.921875 
L 29.9375 64.265625 
Q 27.203125 64.75 24.75 64.75 
Q 20.75 64.75 19.09375 63.03125 
Q 17.4375 61.328125 17.4375 56.640625 
L 17.4375 51.859375 
L 27.546875 51.859375 
L 27.546875 45.015625 
L 17.4375 45.015625 
L 17.4375 0 
z
" id="ArialMT-66"/>
     <path id="ArialMT-20"/>
     <path d="M 52.828125 42.09375 
L 5.5625 42.09375 
L 5.5625 50.296875 
L 52.828125 50.296875 
z
M 52.828125 20.359375 
L 5.5625 20.359375 
L 5.5625 28.5625 
L 52.828125 28.5625 
z
" id="ArialMT-3d"/>
     <path d="M 8.015625 0 
L 8.015625 71.578125 
L 17.484375 71.578125 
L 17.484375 42.1875 
L 54.6875 42.1875 
L 54.6875 71.578125 
L 64.15625 71.578125 
L 64.15625 0 
L 54.6875 0 
L 54.6875 33.734375 
L 17.484375 33.734375 
L 17.484375 0 
z
" id="ArialMT-48"/>
     <path d="M 1.953125 0 
L 1.953125 7.125 
L 34.96875 45.015625 
Q 29.34375 44.734375 25.046875 44.734375 
L 3.90625 44.734375 
L 3.90625 51.859375 
L 46.296875 51.859375 
L 46.296875 46.046875 
L 18.21875 13.140625 
L 12.796875 7.125 
Q 18.703125 7.5625 23.875 7.5625 
L 47.859375 7.5625 
L 47.859375 0 
z
" id="ArialMT-7a"/>
    </defs>
    <g style="fill:#262626;" transform="translate(529.636364 364.542187)scale(0.12 -0.12)">
     <use xlink:href="#ArialMT-66"/>
     <use x="27.783203" xlink:href="#ArialMT-20"/>
     <use x="55.566406" xlink:href="#ArialMT-3d"/>
     <use x="113.964844" xlink:href="#ArialMT-20"/>
     <use x="141.748047" xlink:href="#ArialMT-35"/>
     <use x="197.363281" xlink:href="#ArialMT-30"/>
     <use x="252.978516" xlink:href="#ArialMT-20"/>
     <use x="280.761719" xlink:href="#ArialMT-48"/>
     <use x="352.978516" xlink:href="#ArialMT-7a"/>
    </g>
   </g>
   <g id="PathCollection_1">
    <defs>
     <path d="M 0 3.5 
C 0.928211 3.5 1.81853 3.131218 2.474874 2.474874 
C 3.131218 1.81853 3.5 0.928211 3.5 0 
C 3.5 -0.928211 3.131218 -1.81853 2.474874 -2.474874 
C 1.81853 -3.131218 0.928211 -3.5 0 -3.5 
C -0.928211 -3.5 -1.81853 -3.131218 -2.474874 -2.474874 
C -3.131218 -1.81853 -3.5 -0.928211 -3.5 0 
C -3.5 0.928211 -3.131218 1.81853 -2.474874 2.474874 
C -1.81853 3.131218 -0.928211 3.5 0 3.5 
z
" id="m98008ed28e" style="stroke:#800000;stroke-width:0.3;"/>
    </defs>
    <g clip-path="url(#pfce7a98909)">
     <use style="fill:#800000;stroke:#800000;stroke-width:0.3;" x="106.909091" xlink:href="#m98008ed28e" y="490.291312"/>
    </g>
   </g>
  </g>
 </g>
 <defs>
  <clipPath id="pff376de117">
   <rect height="201.6" width="558" x="90" y="69.12"/>
  </clipPath>
  <clipPath id="pfce7a98909">
   <rect height="201.6" width="558" x="90" y="311.04"/>
  </clipPath>
 </defs>
</svg>
