<?xml version="1.0" encoding="utf-8" standalone="no"?>
<!DOCTYPE svg PUBLIC "-//W3C//DTD SVG 1.1//EN"
  "http://www.w3.org/Graphics/SVG/1.1/DTD/svg11.dtd">
<!-- Created with matplotlib (http://matplotlib.org/) -->
<svg height="576pt" version="1.1" viewBox="0 0 720 576" width="720pt" xmlns="http://www.w3.org/2000/svg" xmlns:xlink="http://www.w3.org/1999/xlink">
 <defs>
  <style type="text/css">
*{stroke-linecap:butt;stroke-linejoin:round;}
  </style>
 </defs>
 <g id="figure_1">
  <g id="patch_1">
   <path d="M 0 576 
L 720 576 
L 720 0 
L 0 0 
z
" style="fill:#ffffff;"/>
  </g>
  <g id="axes_1">
   <g id="patch_2">
    <path d="M 90 270.72 
L 648 270.72 
L 648 69.12 
L 90 69.12 
z
" style="fill:#ffffff;"/>
   </g>
   <g id="matplotlib.axis_1">
    <g id="xtick_1">
     <g id="line2d_1">
      <defs>
       <path d="M 0 0 
L 0 6 
" id="mc38947f78d" style="stroke:#262626;"/>
      </defs>
      <g>
       <use style="fill:#262626;stroke:#262626;" x="90" xlink:href="#mc38947f78d" y="270.72"/>
      </g>
     </g>
     <g id="text_1">
      <!-- 0 -->
      <defs>
       <path d="M 4.15625 35.296875 
Q 4.15625 48 6.765625 55.734375 
Q 9.375 63.484375 14.515625 67.671875 
Q 19.671875 71.875 27.484375 71.875 
Q 33.25 71.875 37.59375 69.546875 
Q 41.9375 67.234375 44.765625 62.859375 
Q 47.609375 58.5 49.21875 52.21875 
Q 50.828125 45.953125 50.828125 35.296875 
Q 50.828125 22.703125 48.234375 14.96875 
Q 45.65625 7.234375 40.5 3 
Q 35.359375 -1.21875 27.484375 -1.21875 
Q 17.140625 -1.21875 11.234375 6.203125 
Q 4.15625 15.140625 4.15625 35.296875 
z
M 13.1875 35.296875 
Q 13.1875 17.671875 17.3125 11.828125 
Q 21.4375 6 27.484375 6 
Q 33.546875 6 37.671875 11.859375 
Q 41.796875 17.71875 41.796875 35.296875 
Q 41.796875 52.984375 37.671875 58.78125 
Q 33.546875 64.59375 27.390625 64.59375 
Q 21.34375 64.59375 17.71875 59.46875 
Q 13.1875 52.9375 13.1875 35.296875 
z
" id="ArialMT-30"/>
      </defs>
      <g style="fill:#262626;" transform="translate(87.219531 290.877812)scale(0.1 -0.1)">
       <use xlink:href="#ArialMT-30"/>
      </g>
     </g>
    </g>
    <g id="xtick_2">
     <g id="line2d_2">
      <g>
       <use style="fill:#262626;stroke:#262626;" x="159.75" xlink:href="#mc38947f78d" y="270.72"/>
      </g>
     </g>
     <g id="text_2">
      <!-- 100 -->
      <defs>
       <path d="M 37.25 0 
L 28.46875 0 
L 28.46875 56 
Q 25.296875 52.984375 20.140625 49.953125 
Q 14.984375 46.921875 10.890625 45.40625 
L 10.890625 53.90625 
Q 18.265625 57.375 23.78125 62.296875 
Q 29.296875 67.234375 31.59375 71.875 
L 37.25 71.875 
z
" id="ArialMT-31"/>
      </defs>
      <g style="fill:#262626;" transform="translate(151.408594 290.877812)scale(0.1 -0.1)">
       <use xlink:href="#ArialMT-31"/>
       <use x="55.615234" xlink:href="#ArialMT-30"/>
       <use x="111.230469" xlink:href="#ArialMT-30"/>
      </g>
     </g>
    </g>
    <g id="xtick_3">
     <g id="line2d_3">
      <g>
       <use style="fill:#262626;stroke:#262626;" x="229.5" xlink:href="#mc38947f78d" y="270.72"/>
      </g>
     </g>
     <g id="text_3">
      <!-- 200 -->
      <defs>
       <path d="M 50.34375 8.453125 
L 50.34375 0 
L 3.03125 0 
Q 2.9375 3.171875 4.046875 6.109375 
Q 5.859375 10.9375 9.828125 15.625 
Q 13.8125 20.3125 21.34375 26.46875 
Q 33.015625 36.03125 37.109375 41.625 
Q 41.21875 47.21875 41.21875 52.203125 
Q 41.21875 57.421875 37.46875 61 
Q 33.734375 64.59375 27.734375 64.59375 
Q 21.390625 64.59375 17.578125 60.78125 
Q 13.765625 56.984375 13.71875 50.25 
L 4.6875 51.171875 
Q 5.609375 61.28125 11.65625 66.578125 
Q 17.71875 71.875 27.9375 71.875 
Q 38.234375 71.875 44.234375 66.15625 
Q 50.25 60.453125 50.25 52 
Q 50.25 47.703125 48.484375 43.546875 
Q 46.734375 39.40625 42.65625 34.8125 
Q 38.578125 30.21875 29.109375 22.21875 
Q 21.1875 15.578125 18.9375 13.203125 
Q 16.703125 10.84375 15.234375 8.453125 
z
" id="ArialMT-32"/>
      </defs>
      <g style="fill:#262626;" transform="translate(221.158594 290.877812)scale(0.1 -0.1)">
       <use xlink:href="#ArialMT-32"/>
       <use x="55.615234" xlink:href="#ArialMT-30"/>
       <use x="111.230469" xlink:href="#ArialMT-30"/>
      </g>
     </g>
    </g>
    <g id="xtick_4">
     <g id="line2d_4">
      <g>
       <use style="fill:#262626;stroke:#262626;" x="299.25" xlink:href="#mc38947f78d" y="270.72"/>
      </g>
     </g>
     <g id="text_4">
      <!-- 300 -->
      <defs>
       <path d="M 4.203125 18.890625 
L 12.984375 20.0625 
Q 14.5 12.59375 18.140625 9.296875 
Q 21.78125 6 27 6 
Q 33.203125 6 37.46875 10.296875 
Q 41.75 14.59375 41.75 20.953125 
Q 41.75 27 37.796875 30.921875 
Q 33.84375 34.859375 27.734375 34.859375 
Q 25.25 34.859375 21.53125 33.890625 
L 22.515625 41.609375 
Q 23.390625 41.5 23.921875 41.5 
Q 29.546875 41.5 34.03125 44.421875 
Q 38.53125 47.359375 38.53125 53.46875 
Q 38.53125 58.296875 35.25 61.46875 
Q 31.984375 64.65625 26.8125 64.65625 
Q 21.6875 64.65625 18.265625 61.421875 
Q 14.84375 58.203125 13.875 51.765625 
L 5.078125 53.328125 
Q 6.6875 62.15625 12.390625 67.015625 
Q 18.109375 71.875 26.609375 71.875 
Q 32.46875 71.875 37.390625 69.359375 
Q 42.328125 66.84375 44.9375 62.5 
Q 47.5625 58.15625 47.5625 53.265625 
Q 47.5625 48.640625 45.0625 44.828125 
Q 42.578125 41.015625 37.703125 38.765625 
Q 44.046875 37.3125 47.5625 32.6875 
Q 51.078125 28.078125 51.078125 21.140625 
Q 51.078125 11.765625 44.234375 5.25 
Q 37.40625 -1.265625 26.953125 -1.265625 
Q 17.53125 -1.265625 11.296875 4.34375 
Q 5.078125 9.96875 4.203125 18.890625 
z
" id="ArialMT-33"/>
      </defs>
      <g style="fill:#262626;" transform="translate(290.908594 290.877812)scale(0.1 -0.1)">
       <use xlink:href="#ArialMT-33"/>
       <use x="55.615234" xlink:href="#ArialMT-30"/>
       <use x="111.230469" xlink:href="#ArialMT-30"/>
      </g>
     </g>
    </g>
    <g id="xtick_5">
     <g id="line2d_5">
      <g>
       <use style="fill:#262626;stroke:#262626;" x="369" xlink:href="#mc38947f78d" y="270.72"/>
      </g>
     </g>
     <g id="text_5">
      <!-- 400 -->
      <defs>
       <path d="M 32.328125 0 
L 32.328125 17.140625 
L 1.265625 17.140625 
L 1.265625 25.203125 
L 33.9375 71.578125 
L 41.109375 71.578125 
L 41.109375 25.203125 
L 50.78125 25.203125 
L 50.78125 17.140625 
L 41.109375 17.140625 
L 41.109375 0 
z
M 32.328125 25.203125 
L 32.328125 57.46875 
L 9.90625 25.203125 
z
" id="ArialMT-34"/>
      </defs>
      <g style="fill:#262626;" transform="translate(360.658594 290.877812)scale(0.1 -0.1)">
       <use xlink:href="#ArialMT-34"/>
       <use x="55.615234" xlink:href="#ArialMT-30"/>
       <use x="111.230469" xlink:href="#ArialMT-30"/>
      </g>
     </g>
    </g>
    <g id="xtick_6">
     <g id="line2d_6">
      <g>
       <use style="fill:#262626;stroke:#262626;" x="438.75" xlink:href="#mc38947f78d" y="270.72"/>
      </g>
     </g>
     <g id="text_6">
      <!-- 500 -->
      <defs>
       <path d="M 4.15625 18.75 
L 13.375 19.53125 
Q 14.40625 12.796875 18.140625 9.390625 
Q 21.875 6 27.15625 6 
Q 33.5 6 37.890625 10.78125 
Q 42.28125 15.578125 42.28125 23.484375 
Q 42.28125 31 38.0625 35.34375 
Q 33.84375 39.703125 27 39.703125 
Q 22.75 39.703125 19.328125 37.765625 
Q 15.921875 35.84375 13.96875 32.765625 
L 5.71875 33.84375 
L 12.640625 70.609375 
L 48.25 70.609375 
L 48.25 62.203125 
L 19.671875 62.203125 
L 15.828125 42.96875 
Q 22.265625 47.46875 29.34375 47.46875 
Q 38.71875 47.46875 45.15625 40.96875 
Q 51.609375 34.46875 51.609375 24.265625 
Q 51.609375 14.546875 45.953125 7.46875 
Q 39.0625 -1.21875 27.15625 -1.21875 
Q 17.390625 -1.21875 11.203125 4.25 
Q 5.03125 9.71875 4.15625 18.75 
z
" id="ArialMT-35"/>
      </defs>
      <g style="fill:#262626;" transform="translate(430.408594 290.877812)scale(0.1 -0.1)">
       <use xlink:href="#ArialMT-35"/>
       <use x="55.615234" xlink:href="#ArialMT-30"/>
       <use x="111.230469" xlink:href="#ArialMT-30"/>
      </g>
     </g>
    </g>
    <g id="xtick_7">
     <g id="line2d_7">
      <g>
       <use style="fill:#262626;stroke:#262626;" x="508.5" xlink:href="#mc38947f78d" y="270.72"/>
      </g>
     </g>
     <g id="text_7">
      <!-- 600 -->
      <defs>
       <path d="M 49.75 54.046875 
L 41.015625 53.375 
Q 39.84375 58.546875 37.703125 60.890625 
Q 34.125 64.65625 28.90625 64.65625 
Q 24.703125 64.65625 21.53125 62.3125 
Q 17.390625 59.28125 14.984375 53.46875 
Q 12.59375 47.65625 12.5 36.921875 
Q 15.671875 41.75 20.265625 44.09375 
Q 24.859375 46.4375 29.890625 46.4375 
Q 38.671875 46.4375 44.84375 39.96875 
Q 51.03125 33.5 51.03125 23.25 
Q 51.03125 16.5 48.125 10.71875 
Q 45.21875 4.9375 40.140625 1.859375 
Q 35.0625 -1.21875 28.609375 -1.21875 
Q 17.625 -1.21875 10.6875 6.859375 
Q 3.765625 14.9375 3.765625 33.5 
Q 3.765625 54.25 11.421875 63.671875 
Q 18.109375 71.875 29.4375 71.875 
Q 37.890625 71.875 43.28125 67.140625 
Q 48.6875 62.40625 49.75 54.046875 
z
M 13.875 23.1875 
Q 13.875 18.65625 15.796875 14.5 
Q 17.71875 10.359375 21.1875 8.171875 
Q 24.65625 6 28.46875 6 
Q 34.03125 6 38.03125 10.484375 
Q 42.046875 14.984375 42.046875 22.703125 
Q 42.046875 30.125 38.078125 34.390625 
Q 34.125 38.671875 28.125 38.671875 
Q 22.171875 38.671875 18.015625 34.390625 
Q 13.875 30.125 13.875 23.1875 
z
" id="ArialMT-36"/>
      </defs>
      <g style="fill:#262626;" transform="translate(500.158594 290.877812)scale(0.1 -0.1)">
       <use xlink:href="#ArialMT-36"/>
       <use x="55.615234" xlink:href="#ArialMT-30"/>
       <use x="111.230469" xlink:href="#ArialMT-30"/>
      </g>
     </g>
    </g>
    <g id="xtick_8">
     <g id="line2d_8">
      <g>
       <use style="fill:#262626;stroke:#262626;" x="578.25" xlink:href="#mc38947f78d" y="270.72"/>
      </g>
     </g>
     <g id="text_8">
      <!-- 700 -->
      <defs>
       <path d="M 4.734375 62.203125 
L 4.734375 70.65625 
L 51.078125 70.65625 
L 51.078125 63.8125 
Q 44.234375 56.546875 37.515625 44.484375 
Q 30.8125 32.421875 27.15625 19.671875 
Q 24.515625 10.6875 23.78125 0 
L 14.75 0 
Q 14.890625 8.453125 18.0625 20.40625 
Q 21.234375 32.375 27.171875 43.484375 
Q 33.109375 54.59375 39.796875 62.203125 
z
" id="ArialMT-37"/>
      </defs>
      <g style="fill:#262626;" transform="translate(569.908594 290.877812)scale(0.1 -0.1)">
       <use xlink:href="#ArialMT-37"/>
       <use x="55.615234" xlink:href="#ArialMT-30"/>
       <use x="111.230469" xlink:href="#ArialMT-30"/>
      </g>
     </g>
    </g>
    <g id="xtick_9">
     <g id="line2d_9">
      <g>
       <use style="fill:#262626;stroke:#262626;" x="648" xlink:href="#mc38947f78d" y="270.72"/>
      </g>
     </g>
     <g id="text_9">
      <!-- 800 -->
      <defs>
       <path d="M 17.671875 38.8125 
Q 12.203125 40.828125 9.5625 44.53125 
Q 6.9375 48.25 6.9375 53.421875 
Q 6.9375 61.234375 12.546875 66.546875 
Q 18.171875 71.875 27.484375 71.875 
Q 36.859375 71.875 42.578125 66.421875 
Q 48.296875 60.984375 48.296875 53.171875 
Q 48.296875 48.1875 45.671875 44.5 
Q 43.0625 40.828125 37.75 38.8125 
Q 44.34375 36.671875 47.78125 31.875 
Q 51.21875 27.09375 51.21875 20.453125 
Q 51.21875 11.28125 44.71875 5.03125 
Q 38.234375 -1.21875 27.640625 -1.21875 
Q 17.046875 -1.21875 10.546875 5.046875 
Q 4.046875 11.328125 4.046875 20.703125 
Q 4.046875 27.6875 7.59375 32.390625 
Q 11.140625 37.109375 17.671875 38.8125 
z
M 15.921875 53.71875 
Q 15.921875 48.640625 19.1875 45.40625 
Q 22.46875 42.1875 27.6875 42.1875 
Q 32.765625 42.1875 36.015625 45.375 
Q 39.265625 48.578125 39.265625 53.21875 
Q 39.265625 58.0625 35.90625 61.359375 
Q 32.5625 64.65625 27.59375 64.65625 
Q 22.5625 64.65625 19.234375 61.421875 
Q 15.921875 58.203125 15.921875 53.71875 
z
M 13.09375 20.65625 
Q 13.09375 16.890625 14.875 13.375 
Q 16.65625 9.859375 20.171875 7.921875 
Q 23.6875 6 27.734375 6 
Q 34.03125 6 38.125 10.046875 
Q 42.234375 14.109375 42.234375 20.359375 
Q 42.234375 26.703125 38.015625 30.859375 
Q 33.796875 35.015625 27.4375 35.015625 
Q 21.234375 35.015625 17.15625 30.90625 
Q 13.09375 26.8125 13.09375 20.65625 
z
" id="ArialMT-38"/>
      </defs>
      <g style="fill:#262626;" transform="translate(639.658594 290.877812)scale(0.1 -0.1)">
       <use xlink:href="#ArialMT-38"/>
       <use x="55.615234" xlink:href="#ArialMT-30"/>
       <use x="111.230469" xlink:href="#ArialMT-30"/>
      </g>
     </g>
    </g>
   </g>
   <g id="matplotlib.axis_2">
    <g id="ytick_1">
     <g id="line2d_10">
      <defs>
       <path d="M 0 0 
L -6 0 
" id="mb9a3e72ee4" style="stroke:#262626;"/>
      </defs>
      <g>
       <use style="fill:#262626;stroke:#262626;" x="90" xlink:href="#mb9a3e72ee4" y="270.72"/>
      </g>
     </g>
     <g id="text_10">
      <!-- −0.20 -->
      <defs>
       <path d="M 52.828125 31.203125 
L 5.5625 31.203125 
L 5.5625 39.40625 
L 52.828125 39.40625 
z
" id="ArialMT-2212"/>
       <path d="M 9.078125 0 
L 9.078125 10.015625 
L 19.09375 10.015625 
L 19.09375 0 
z
" id="ArialMT-2e"/>
      </defs>
      <g style="fill:#262626;" transform="translate(51.698437 274.298906)scale(0.1 -0.1)">
       <use xlink:href="#ArialMT-2212"/>
       <use x="58.398438" xlink:href="#ArialMT-30"/>
       <use x="114.013672" xlink:href="#ArialMT-2e"/>
       <use x="141.796875" xlink:href="#ArialMT-32"/>
       <use x="197.412109" xlink:href="#ArialMT-30"/>
      </g>
     </g>
    </g>
    <g id="ytick_2">
     <g id="line2d_11">
      <g>
       <use style="fill:#262626;stroke:#262626;" x="90" xlink:href="#mb9a3e72ee4" y="245.52"/>
      </g>
     </g>
     <g id="text_11">
      <!-- −0.15 -->
      <g style="fill:#262626;" transform="translate(51.698437 249.098906)scale(0.1 -0.1)">
       <use xlink:href="#ArialMT-2212"/>
       <use x="58.398438" xlink:href="#ArialMT-30"/>
       <use x="114.013672" xlink:href="#ArialMT-2e"/>
       <use x="141.796875" xlink:href="#ArialMT-31"/>
       <use x="197.412109" xlink:href="#ArialMT-35"/>
      </g>
     </g>
    </g>
    <g id="ytick_3">
     <g id="line2d_12">
      <g>
       <use style="fill:#262626;stroke:#262626;" x="90" xlink:href="#mb9a3e72ee4" y="220.32"/>
      </g>
     </g>
     <g id="text_12">
      <!-- −0.10 -->
      <g style="fill:#262626;" transform="translate(51.698437 223.898906)scale(0.1 -0.1)">
       <use xlink:href="#ArialMT-2212"/>
       <use x="58.398438" xlink:href="#ArialMT-30"/>
       <use x="114.013672" xlink:href="#ArialMT-2e"/>
       <use x="141.796875" xlink:href="#ArialMT-31"/>
       <use x="197.412109" xlink:href="#ArialMT-30"/>
      </g>
     </g>
    </g>
    <g id="ytick_4">
     <g id="line2d_13">
      <g>
       <use style="fill:#262626;stroke:#262626;" x="90" xlink:href="#mb9a3e72ee4" y="195.12"/>
      </g>
     </g>
     <g id="text_13">
      <!-- −0.05 -->
      <g style="fill:#262626;" transform="translate(51.698437 198.698906)scale(0.1 -0.1)">
       <use xlink:href="#ArialMT-2212"/>
       <use x="58.398438" xlink:href="#ArialMT-30"/>
       <use x="114.013672" xlink:href="#ArialMT-2e"/>
       <use x="141.796875" xlink:href="#ArialMT-30"/>
       <use x="197.412109" xlink:href="#ArialMT-35"/>
      </g>
     </g>
    </g>
    <g id="ytick_5">
     <g id="line2d_14">
      <g>
       <use style="fill:#262626;stroke:#262626;" x="90" xlink:href="#mb9a3e72ee4" y="169.92"/>
      </g>
     </g>
     <g id="text_14">
      <!-- 0.00 -->
      <g style="fill:#262626;" transform="translate(57.539062 173.498906)scale(0.1 -0.1)">
       <use xlink:href="#ArialMT-30"/>
       <use x="55.615234" xlink:href="#ArialMT-2e"/>
       <use x="83.398438" xlink:href="#ArialMT-30"/>
       <use x="139.013672" xlink:href="#ArialMT-30"/>
      </g>
     </g>
    </g>
    <g id="ytick_6">
     <g id="line2d_15">
      <g>
       <use style="fill:#262626;stroke:#262626;" x="90" xlink:href="#mb9a3e72ee4" y="144.72"/>
      </g>
     </g>
     <g id="text_15">
      <!-- 0.05 -->
      <g style="fill:#262626;" transform="translate(57.539062 148.298906)scale(0.1 -0.1)">
       <use xlink:href="#ArialMT-30"/>
       <use x="55.615234" xlink:href="#ArialMT-2e"/>
       <use x="83.398438" xlink:href="#ArialMT-30"/>
       <use x="139.013672" xlink:href="#ArialMT-35"/>
      </g>
     </g>
    </g>
    <g id="ytick_7">
     <g id="line2d_16">
      <g>
       <use style="fill:#262626;stroke:#262626;" x="90" xlink:href="#mb9a3e72ee4" y="119.52"/>
      </g>
     </g>
     <g id="text_16">
      <!-- 0.10 -->
      <g style="fill:#262626;" transform="translate(57.539062 123.098906)scale(0.1 -0.1)">
       <use xlink:href="#ArialMT-30"/>
       <use x="55.615234" xlink:href="#ArialMT-2e"/>
       <use x="83.398438" xlink:href="#ArialMT-31"/>
       <use x="139.013672" xlink:href="#ArialMT-30"/>
      </g>
     </g>
    </g>
    <g id="ytick_8">
     <g id="line2d_17">
      <g>
       <use style="fill:#262626;stroke:#262626;" x="90" xlink:href="#mb9a3e72ee4" y="94.32"/>
      </g>
     </g>
     <g id="text_17">
      <!-- 0.15 -->
      <g style="fill:#262626;" transform="translate(57.539062 97.898906)scale(0.1 -0.1)">
       <use xlink:href="#ArialMT-30"/>
       <use x="55.615234" xlink:href="#ArialMT-2e"/>
       <use x="83.398438" xlink:href="#ArialMT-31"/>
       <use x="139.013672" xlink:href="#ArialMT-35"/>
      </g>
     </g>
    </g>
    <g id="ytick_9">
     <g id="line2d_18">
      <g>
       <use style="fill:#262626;stroke:#262626;" x="90" xlink:href="#mb9a3e72ee4" y="69.12"/>
      </g>
     </g>
     <g id="text_18">
      <!-- 0.20 -->
      <g style="fill:#262626;" transform="translate(57.539062 72.698906)scale(0.1 -0.1)">
       <use xlink:href="#ArialMT-30"/>
       <use x="55.615234" xlink:href="#ArialMT-2e"/>
       <use x="83.398438" xlink:href="#ArialMT-32"/>
       <use x="139.013672" xlink:href="#ArialMT-30"/>
      </g>
     </g>
    </g>
   </g>
   <g id="PolyCollection_1">
    <path clip-path="url(#pd3106f128b)" d="M 90 174.151929 
L 90 169.92 
L 90.6975 169.92 
L 91.395 169.92 
L 92.0925 169.92 
L 92.79 169.92 
L 93.4875 169.92 
L 94.185 169.92 
L 94.8825 169.92 
L 95.58 169.92 
L 96.2775 169.92 
L 96.975 169.92 
L 97.6725 169.92 
L 98.37 169.92 
L 99.0675 169.92 
L 99.765 169.92 
L 100.4625 169.92 
L 101.16 169.92 
L 101.8575 169.92 
L 102.555 169.92 
L 103.2525 169.92 
L 103.95 169.92 
L 104.6475 169.92 
L 105.345 169.92 
L 106.0425 169.92 
L 106.74 169.92 
L 107.4375 169.92 
L 108.135 169.92 
L 108.8325 169.92 
L 109.53 169.92 
L 110.2275 169.92 
L 110.925 169.92 
L 111.6225 169.92 
L 112.32 169.92 
L 113.0175 169.92 
L 113.715 169.92 
L 114.4125 169.92 
L 115.11 169.92 
L 115.8075 169.92 
L 116.505 169.92 
L 117.2025 169.92 
L 117.9 169.92 
L 118.5975 169.92 
L 119.295 169.92 
L 119.9925 169.92 
L 120.69 169.92 
L 121.3875 169.92 
L 122.085 169.92 
L 122.7825 169.92 
L 123.48 169.92 
L 124.1775 169.92 
L 124.875 169.92 
L 125.5725 169.92 
L 126.27 169.92 
L 126.9675 169.92 
L 127.665 169.92 
L 128.3625 169.92 
L 129.06 169.92 
L 129.7575 169.92 
L 130.455 169.92 
L 131.1525 169.92 
L 131.85 169.92 
L 132.5475 169.92 
L 133.245 169.92 
L 133.9425 169.92 
L 134.64 169.92 
L 135.3375 169.92 
L 136.035 169.92 
L 136.7325 169.92 
L 137.43 169.92 
L 138.1275 169.92 
L 138.825 169.92 
L 139.5225 169.92 
L 140.22 169.92 
L 140.9175 169.92 
L 141.615 169.92 
L 142.3125 169.92 
L 143.01 169.92 
L 143.7075 169.92 
L 144.405 169.92 
L 145.1025 169.92 
L 145.8 169.92 
L 146.4975 169.92 
L 147.195 169.92 
L 147.8925 169.92 
L 148.59 169.92 
L 149.2875 169.92 
L 149.985 169.92 
L 150.6825 169.92 
L 151.38 169.92 
L 152.0775 169.92 
L 152.775 169.92 
L 153.4725 169.92 
L 154.17 169.92 
L 154.8675 169.92 
L 155.565 169.92 
L 156.2625 169.92 
L 156.96 169.92 
L 157.6575 169.92 
L 158.355 169.92 
L 159.0525 169.92 
L 159.75 169.92 
L 160.4475 169.92 
L 161.145 169.92 
L 161.8425 169.92 
L 162.54 169.92 
L 163.2375 169.92 
L 163.935 169.92 
L 164.6325 169.92 
L 165.33 169.92 
L 166.0275 169.92 
L 166.725 169.92 
L 167.4225 169.92 
L 168.12 169.92 
L 168.8175 169.92 
L 169.515 169.92 
L 170.2125 169.92 
L 170.91 169.92 
L 171.6075 169.92 
L 172.305 169.92 
L 173.0025 169.92 
L 173.7 169.92 
L 174.3975 169.92 
L 175.095 169.92 
L 175.7925 169.92 
L 176.49 169.92 
L 177.1875 169.92 
L 177.885 169.92 
L 178.5825 169.92 
L 179.28 169.92 
L 179.9775 169.92 
L 180.675 169.92 
L 181.3725 169.92 
L 182.07 169.92 
L 182.7675 169.92 
L 183.465 169.92 
L 184.1625 169.92 
L 184.86 169.92 
L 185.5575 169.92 
L 186.255 169.92 
L 186.9525 169.92 
L 187.65 169.92 
L 188.3475 169.92 
L 189.045 169.92 
L 189.7425 169.92 
L 190.44 169.92 
L 191.1375 169.92 
L 191.835 169.92 
L 192.5325 169.92 
L 193.23 169.92 
L 193.9275 169.92 
L 194.625 169.92 
L 195.3225 169.92 
L 196.02 169.92 
L 196.7175 169.92 
L 197.415 169.92 
L 198.1125 169.92 
L 198.81 169.92 
L 199.5075 169.92 
L 200.205 169.92 
L 200.9025 169.92 
L 201.6 169.92 
L 202.2975 169.92 
L 202.995 169.92 
L 203.6925 169.92 
L 204.39 169.92 
L 205.0875 169.92 
L 205.785 169.92 
L 206.4825 169.92 
L 207.18 169.92 
L 207.8775 169.92 
L 208.575 169.92 
L 209.2725 169.92 
L 209.97 169.92 
L 210.6675 169.92 
L 211.365 169.92 
L 212.0625 169.92 
L 212.76 169.92 
L 213.4575 169.92 
L 214.155 169.92 
L 214.8525 169.92 
L 215.55 169.92 
L 216.2475 169.92 
L 216.945 169.92 
L 217.6425 169.92 
L 218.34 169.92 
L 219.0375 169.92 
L 219.735 169.92 
L 220.4325 169.92 
L 221.13 169.92 
L 221.8275 169.92 
L 222.525 169.92 
L 223.2225 169.92 
L 223.92 169.92 
L 224.6175 169.92 
L 225.315 169.92 
L 226.0125 169.92 
L 226.71 169.92 
L 227.4075 169.92 
L 228.105 169.92 
L 228.8025 169.92 
L 229.5 169.92 
L 230.1975 169.92 
L 230.895 169.92 
L 231.5925 169.92 
L 232.29 169.92 
L 232.9875 169.92 
L 233.685 169.92 
L 234.3825 169.92 
L 235.08 169.92 
L 235.7775 169.92 
L 236.475 169.92 
L 237.1725 169.92 
L 237.87 169.92 
L 238.5675 169.92 
L 239.265 169.92 
L 239.9625 169.92 
L 240.66 169.92 
L 241.3575 169.92 
L 242.055 169.92 
L 242.7525 169.92 
L 243.45 169.92 
L 244.1475 169.92 
L 244.845 169.92 
L 245.5425 169.92 
L 246.24 169.92 
L 246.9375 169.92 
L 247.635 169.92 
L 248.3325 169.92 
L 249.03 169.92 
L 249.7275 169.92 
L 250.425 169.92 
L 251.1225 169.92 
L 251.82 169.92 
L 252.5175 169.92 
L 253.215 169.92 
L 253.9125 169.92 
L 254.61 169.92 
L 255.3075 169.92 
L 256.005 169.92 
L 256.7025 169.92 
L 257.4 169.92 
L 258.0975 169.92 
L 258.795 169.92 
L 259.4925 169.92 
L 260.19 169.92 
L 260.8875 169.92 
L 261.585 169.92 
L 262.2825 169.92 
L 262.98 169.92 
L 263.6775 169.92 
L 264.375 169.92 
L 265.0725 169.92 
L 265.77 169.92 
L 266.4675 169.92 
L 267.165 169.92 
L 267.8625 169.92 
L 268.56 169.92 
L 269.2575 169.92 
L 269.955 169.92 
L 270.6525 169.92 
L 271.35 169.92 
L 272.0475 169.92 
L 272.745 169.92 
L 273.4425 169.92 
L 274.14 169.92 
L 274.8375 169.92 
L 275.535 169.92 
L 276.2325 169.92 
L 276.93 169.92 
L 277.6275 169.92 
L 278.325 169.92 
L 279.0225 169.92 
L 279.72 169.92 
L 280.4175 169.92 
L 281.115 169.92 
L 281.8125 169.92 
L 282.51 169.92 
L 283.2075 169.92 
L 283.905 169.92 
L 284.6025 169.92 
L 285.3 169.92 
L 285.9975 169.92 
L 286.695 169.92 
L 287.3925 169.92 
L 288.09 169.92 
L 288.7875 169.92 
L 289.485 169.92 
L 290.1825 169.92 
L 290.88 169.92 
L 291.5775 169.92 
L 292.275 169.92 
L 292.9725 169.92 
L 293.67 169.92 
L 294.3675 169.92 
L 295.065 169.92 
L 295.7625 169.92 
L 296.46 169.92 
L 297.1575 169.92 
L 297.855 169.92 
L 298.5525 169.92 
L 299.25 169.92 
L 299.9475 169.92 
L 300.645 169.92 
L 301.3425 169.92 
L 302.04 169.92 
L 302.7375 169.92 
L 303.435 169.92 
L 304.1325 169.92 
L 304.83 169.92 
L 305.5275 169.92 
L 306.225 169.92 
L 306.9225 169.92 
L 307.62 169.92 
L 308.3175 169.92 
L 309.015 169.92 
L 309.7125 169.92 
L 310.41 169.92 
L 311.1075 169.92 
L 311.805 169.92 
L 312.5025 169.92 
L 313.2 169.92 
L 313.8975 169.92 
L 314.595 169.92 
L 315.2925 169.92 
L 315.99 169.92 
L 316.6875 169.92 
L 317.385 169.92 
L 318.0825 169.92 
L 318.78 169.92 
L 319.4775 169.92 
L 320.175 169.92 
L 320.8725 169.92 
L 321.57 169.92 
L 322.2675 169.92 
L 322.965 169.92 
L 323.6625 169.92 
L 324.36 169.92 
L 325.0575 169.92 
L 325.755 169.92 
L 326.4525 169.92 
L 327.15 169.92 
L 327.8475 169.92 
L 328.545 169.92 
L 329.2425 169.92 
L 329.94 169.92 
L 330.6375 169.92 
L 331.335 169.92 
L 332.0325 169.92 
L 332.73 169.92 
L 333.4275 169.92 
L 334.125 169.92 
L 334.8225 169.92 
L 335.52 169.92 
L 336.2175 169.92 
L 336.915 169.92 
L 337.6125 169.92 
L 338.31 169.92 
L 339.0075 169.92 
L 339.705 169.92 
L 340.4025 169.92 
L 341.1 169.92 
L 341.7975 169.92 
L 342.495 169.92 
L 343.1925 169.92 
L 343.89 169.92 
L 344.5875 169.92 
L 345.285 169.92 
L 345.9825 169.92 
L 346.68 169.92 
L 347.3775 169.92 
L 348.075 169.92 
L 348.7725 169.92 
L 349.47 169.92 
L 350.1675 169.92 
L 350.865 169.92 
L 351.5625 169.92 
L 352.26 169.92 
L 352.9575 169.92 
L 353.655 169.92 
L 354.3525 169.92 
L 355.05 169.92 
L 355.7475 169.92 
L 356.445 169.92 
L 357.1425 169.92 
L 357.84 169.92 
L 358.5375 169.92 
L 359.235 169.92 
L 359.9325 169.92 
L 360.63 169.92 
L 361.3275 169.92 
L 362.025 169.92 
L 362.7225 169.92 
L 363.42 169.92 
L 364.1175 169.92 
L 364.815 169.92 
L 365.5125 169.92 
L 366.21 169.92 
L 366.9075 169.92 
L 367.605 169.92 
L 368.3025 169.92 
L 369 169.92 
L 369.6975 169.92 
L 370.395 169.92 
L 371.0925 169.92 
L 371.79 169.92 
L 372.4875 169.92 
L 373.185 169.92 
L 373.8825 169.92 
L 374.58 169.92 
L 375.2775 169.92 
L 375.975 169.92 
L 376.6725 169.92 
L 377.37 169.92 
L 378.0675 169.92 
L 378.765 169.92 
L 379.4625 169.92 
L 380.16 169.92 
L 380.8575 169.92 
L 381.555 169.92 
L 382.2525 169.92 
L 382.95 169.92 
L 383.6475 169.92 
L 384.345 169.92 
L 385.0425 169.92 
L 385.74 169.92 
L 386.4375 169.92 
L 387.135 169.92 
L 387.8325 169.92 
L 388.53 169.92 
L 389.2275 169.92 
L 389.925 169.92 
L 390.6225 169.92 
L 391.32 169.92 
L 392.0175 169.92 
L 392.715 169.92 
L 393.4125 169.92 
L 394.11 169.92 
L 394.8075 169.92 
L 395.505 169.92 
L 396.2025 169.92 
L 396.9 169.92 
L 397.5975 169.92 
L 398.295 169.92 
L 398.9925 169.92 
L 399.69 169.92 
L 400.3875 169.92 
L 401.085 169.92 
L 401.7825 169.92 
L 402.48 169.92 
L 403.1775 169.92 
L 403.875 169.92 
L 404.5725 169.92 
L 405.27 169.92 
L 405.9675 169.92 
L 406.665 169.92 
L 407.3625 169.92 
L 408.06 169.92 
L 408.7575 169.92 
L 409.455 169.92 
L 410.1525 169.92 
L 410.85 169.92 
L 411.5475 169.92 
L 412.245 169.92 
L 412.9425 169.92 
L 413.64 169.92 
L 414.3375 169.92 
L 415.035 169.92 
L 415.7325 169.92 
L 416.43 169.92 
L 417.1275 169.92 
L 417.825 169.92 
L 418.5225 169.92 
L 419.22 169.92 
L 419.9175 169.92 
L 420.615 169.92 
L 421.3125 169.92 
L 422.01 169.92 
L 422.7075 169.92 
L 423.405 169.92 
L 424.1025 169.92 
L 424.8 169.92 
L 425.4975 169.92 
L 426.195 169.92 
L 426.8925 169.92 
L 427.59 169.92 
L 428.2875 169.92 
L 428.985 169.92 
L 429.6825 169.92 
L 430.38 169.92 
L 431.0775 169.92 
L 431.775 169.92 
L 432.4725 169.92 
L 433.17 169.92 
L 433.8675 169.92 
L 434.565 169.92 
L 435.2625 169.92 
L 435.96 169.92 
L 436.6575 169.92 
L 437.355 169.92 
L 438.0525 169.92 
L 438.75 169.92 
L 439.4475 169.92 
L 440.145 169.92 
L 440.8425 169.92 
L 441.54 169.92 
L 442.2375 169.92 
L 442.935 169.92 
L 443.6325 169.92 
L 444.33 169.92 
L 445.0275 169.92 
L 445.725 169.92 
L 446.4225 169.92 
L 447.12 169.92 
L 447.8175 169.92 
L 448.515 169.92 
L 449.2125 169.92 
L 449.91 169.92 
L 450.6075 169.92 
L 451.305 169.92 
L 452.0025 169.92 
L 452.7 169.92 
L 453.3975 169.92 
L 454.095 169.92 
L 454.7925 169.92 
L 455.49 169.92 
L 456.1875 169.92 
L 456.885 169.92 
L 457.5825 169.92 
L 458.28 169.92 
L 458.9775 169.92 
L 459.675 169.92 
L 460.3725 169.92 
L 461.07 169.92 
L 461.7675 169.92 
L 462.465 169.92 
L 463.1625 169.92 
L 463.86 169.92 
L 464.5575 169.92 
L 465.255 169.92 
L 465.9525 169.92 
L 466.65 169.92 
L 467.3475 169.92 
L 468.045 169.92 
L 468.7425 169.92 
L 469.44 169.92 
L 470.1375 169.92 
L 470.835 169.92 
L 471.5325 169.92 
L 472.23 169.92 
L 472.9275 169.92 
L 473.625 169.92 
L 474.3225 169.92 
L 475.02 169.92 
L 475.7175 169.92 
L 476.415 169.92 
L 477.1125 169.92 
L 477.81 169.92 
L 478.5075 169.92 
L 479.205 169.92 
L 479.9025 169.92 
L 480.6 169.92 
L 481.2975 169.92 
L 481.995 169.92 
L 482.6925 169.92 
L 483.39 169.92 
L 484.0875 169.92 
L 484.785 169.92 
L 485.4825 169.92 
L 486.18 169.92 
L 486.8775 169.92 
L 487.575 169.92 
L 488.2725 169.92 
L 488.97 169.92 
L 489.6675 169.92 
L 490.365 169.92 
L 491.0625 169.92 
L 491.76 169.92 
L 492.4575 169.92 
L 493.155 169.92 
L 493.8525 169.92 
L 494.55 169.92 
L 495.2475 169.92 
L 495.945 169.92 
L 496.6425 169.92 
L 497.34 169.92 
L 498.0375 169.92 
L 498.735 169.92 
L 499.4325 169.92 
L 500.13 169.92 
L 500.8275 169.92 
L 501.525 169.92 
L 502.2225 169.92 
L 502.92 169.92 
L 503.6175 169.92 
L 504.315 169.92 
L 505.0125 169.92 
L 505.71 169.92 
L 506.4075 169.92 
L 507.105 169.92 
L 507.8025 169.92 
L 508.5 169.92 
L 509.1975 169.92 
L 509.895 169.92 
L 510.5925 169.92 
L 511.29 169.92 
L 511.9875 169.92 
L 512.685 169.92 
L 513.3825 169.92 
L 514.08 169.92 
L 514.7775 169.92 
L 515.475 169.92 
L 516.1725 169.92 
L 516.87 169.92 
L 517.5675 169.92 
L 518.265 169.92 
L 518.9625 169.92 
L 519.66 169.92 
L 520.3575 169.92 
L 521.055 169.92 
L 521.7525 169.92 
L 522.45 169.92 
L 523.1475 169.92 
L 523.845 169.92 
L 524.5425 169.92 
L 525.24 169.92 
L 525.9375 169.92 
L 526.635 169.92 
L 527.3325 169.92 
L 528.03 169.92 
L 528.7275 169.92 
L 529.425 169.92 
L 530.1225 169.92 
L 530.82 169.92 
L 531.5175 169.92 
L 532.215 169.92 
L 532.9125 169.92 
L 533.61 169.92 
L 534.3075 169.92 
L 535.005 169.92 
L 535.7025 169.92 
L 536.4 169.92 
L 537.0975 169.92 
L 537.795 169.92 
L 538.4925 169.92 
L 539.19 169.92 
L 539.8875 169.92 
L 540.585 169.92 
L 541.2825 169.92 
L 541.98 169.92 
L 542.6775 169.92 
L 543.375 169.92 
L 544.0725 169.92 
L 544.77 169.92 
L 545.4675 169.92 
L 546.165 169.92 
L 546.8625 169.92 
L 547.56 169.92 
L 548.2575 169.92 
L 548.955 169.92 
L 549.6525 169.92 
L 550.35 169.92 
L 551.0475 169.92 
L 551.745 169.92 
L 552.4425 169.92 
L 553.14 169.92 
L 553.8375 169.92 
L 554.535 169.92 
L 555.2325 169.92 
L 555.93 169.92 
L 556.6275 169.92 
L 557.325 169.92 
L 558.0225 169.92 
L 558.72 169.92 
L 559.4175 169.92 
L 560.115 169.92 
L 560.8125 169.92 
L 561.51 169.92 
L 562.2075 169.92 
L 562.905 169.92 
L 563.6025 169.92 
L 564.3 169.92 
L 564.9975 169.92 
L 565.695 169.92 
L 566.3925 169.92 
L 567.09 169.92 
L 567.7875 169.92 
L 568.485 169.92 
L 569.1825 169.92 
L 569.88 169.92 
L 570.5775 169.92 
L 571.275 169.92 
L 571.9725 169.92 
L 572.67 169.92 
L 573.3675 169.92 
L 574.065 169.92 
L 574.7625 169.92 
L 575.46 169.92 
L 576.1575 169.92 
L 576.855 169.92 
L 577.5525 169.92 
L 578.25 169.92 
L 578.9475 169.92 
L 579.645 169.92 
L 580.3425 169.92 
L 581.04 169.92 
L 581.7375 169.92 
L 582.435 169.92 
L 583.1325 169.92 
L 583.83 169.92 
L 584.5275 169.92 
L 585.225 169.92 
L 585.9225 169.92 
L 586.62 169.92 
L 587.3175 169.92 
L 588.015 169.92 
L 588.7125 169.92 
L 589.41 169.92 
L 590.1075 169.92 
L 590.805 169.92 
L 591.5025 169.92 
L 592.2 169.92 
L 592.8975 169.92 
L 593.595 169.92 
L 594.2925 169.92 
L 594.99 169.92 
L 595.6875 169.92 
L 596.385 169.92 
L 597.0825 169.92 
L 597.78 169.92 
L 598.4775 169.92 
L 599.175 169.92 
L 599.8725 169.92 
L 600.57 169.92 
L 601.2675 169.92 
L 601.965 169.92 
L 602.6625 169.92 
L 603.36 169.92 
L 604.0575 169.92 
L 604.755 169.92 
L 605.4525 169.92 
L 606.15 169.92 
L 606.8475 169.92 
L 607.545 169.92 
L 608.2425 169.92 
L 608.94 169.92 
L 609.6375 169.92 
L 610.335 169.92 
L 611.0325 169.92 
L 611.73 169.92 
L 612.4275 169.92 
L 613.125 169.92 
L 613.8225 169.92 
L 614.52 169.92 
L 615.2175 169.92 
L 615.915 169.92 
L 616.6125 169.92 
L 617.31 169.92 
L 618.0075 169.92 
L 618.705 169.92 
L 619.4025 169.92 
L 620.1 169.92 
L 620.7975 169.92 
L 621.495 169.92 
L 622.1925 169.92 
L 622.89 169.92 
L 623.5875 169.92 
L 624.285 169.92 
L 624.9825 169.92 
L 625.68 169.92 
L 626.3775 169.92 
L 627.075 169.92 
L 627.7725 169.92 
L 628.47 169.92 
L 629.1675 169.92 
L 629.865 169.92 
L 630.5625 169.92 
L 631.26 169.92 
L 631.9575 169.92 
L 632.655 169.92 
L 633.3525 169.92 
L 634.05 169.92 
L 634.7475 169.92 
L 635.445 169.92 
L 636.1425 169.92 
L 636.84 169.92 
L 637.5375 169.92 
L 638.235 169.92 
L 638.9325 169.92 
L 639.63 169.92 
L 640.3275 169.92 
L 641.025 169.92 
L 641.7225 169.92 
L 642.42 169.92 
L 643.1175 169.92 
L 643.815 169.92 
L 644.5125 169.92 
L 645.21 169.92 
L 645.9075 169.92 
L 646.605 169.92 
L 646.605 169.92 
L 646.605 169.92 
L 645.9075 169.920691 
L 645.21 169.92231 
L 644.5125 169.92509 
L 643.815 169.929253 
L 643.1175 169.935013 
L 642.42 169.942573 
L 641.7225 169.952124 
L 641.025 169.963841 
L 640.3275 169.977886 
L 639.63 169.994406 
L 638.9325 170.013528 
L 638.235 170.035364 
L 637.5375 170.060006 
L 636.84 170.087528 
L 636.1425 170.117984 
L 635.445 170.151408 
L 634.7475 170.187815 
L 634.05 170.227201 
L 633.3525 170.26954 
L 632.655 170.31479 
L 631.9575 170.362888 
L 631.26 170.413753 
L 630.5625 170.467288 
L 629.865 170.523379 
L 629.1675 170.581894 
L 628.47 170.642691 
L 627.7725 170.705611 
L 627.075 170.770483 
L 626.3775 170.837129 
L 625.68 170.905357 
L 624.9825 170.974969 
L 624.285 171.045762 
L 623.5875 171.117527 
L 622.89 171.19005 
L 622.1925 171.263118 
L 621.495 171.336516 
L 620.7975 171.410032 
L 620.1 171.483453 
L 619.4025 171.556575 
L 618.705 171.629197 
L 618.0075 171.701124 
L 617.31 171.772172 
L 616.6125 171.842162 
L 615.915 171.910931 
L 615.2175 171.978321 
L 614.52 172.044192 
L 613.8225 172.108413 
L 613.125 172.170868 
L 612.4275 172.231455 
L 611.73 172.290085 
L 611.0325 172.346686 
L 610.335 172.401199 
L 609.6375 172.45358 
L 608.94 172.5038 
L 608.2425 172.551844 
L 607.545 172.597712 
L 606.8475 172.641416 
L 606.15 172.682981 
L 605.4525 172.722446 
L 604.755 172.759861 
L 604.0575 172.795286 
L 603.36 172.828789 
L 602.6625 172.860451 
L 601.965 172.890358 
L 601.2675 172.918603 
L 600.57 172.945283 
L 599.8725 172.970504 
L 599.175 172.99437 
L 598.4775 173.01699 
L 597.78 173.038473 
L 597.0825 173.058929 
L 596.385 173.078466 
L 595.6875 173.097189 
L 594.99 173.115201 
L 594.2925 173.1326 
L 593.595 173.14948 
L 592.8975 173.165928 
L 592.2 173.182024 
L 591.5025 173.197843 
L 590.805 173.213451 
L 590.1075 173.228906 
L 589.41 173.244258 
L 588.7125 173.259547 
L 588.015 173.274806 
L 587.3175 173.290058 
L 586.62 173.305319 
L 585.9225 173.320595 
L 585.225 173.335884 
L 584.5275 173.351176 
L 583.83 173.366456 
L 583.1325 173.381698 
L 582.435 173.396873 
L 581.7375 173.411946 
L 581.04 173.426877 
L 580.3425 173.441621 
L 579.645 173.456132 
L 578.9475 173.470361 
L 578.25 173.484257 
L 577.5525 173.497769 
L 576.855 173.510847 
L 576.1575 173.523443 
L 575.46 173.535509 
L 574.7625 173.547004 
L 574.065 173.557888 
L 573.3675 173.568126 
L 572.67 173.577692 
L 571.9725 173.586563 
L 571.275 173.594723 
L 570.5775 173.602166 
L 569.88 173.608892 
L 569.1825 173.61491 
L 568.485 173.620237 
L 567.7875 173.624899 
L 567.09 173.628932 
L 566.3925 173.632379 
L 565.695 173.635292 
L 564.9975 173.637732 
L 564.3 173.639769 
L 563.6025 173.641479 
L 562.905 173.642945 
L 562.2075 173.644257 
L 561.51 173.645512 
L 560.8125 173.64681 
L 560.115 173.648257 
L 559.4175 173.649959 
L 558.72 173.652028 
L 558.0225 173.654574 
L 557.325 173.657709 
L 556.6275 173.661544 
L 555.93 173.666185 
L 555.2325 173.671738 
L 554.535 173.678302 
L 553.8375 173.685972 
L 553.14 173.694836 
L 552.4425 173.704973 
L 551.745 173.716453 
L 551.0475 173.729338 
L 550.35 173.743679 
L 549.6525 173.759512 
L 548.955 173.776866 
L 548.2575 173.795752 
L 547.56 173.816171 
L 546.8625 173.838108 
L 546.165 173.861535 
L 545.4675 173.886408 
L 544.77 173.912668 
L 544.0725 173.940245 
L 543.375 173.969049 
L 542.6775 173.99898 
L 541.98 174.029922 
L 541.2825 174.061747 
L 540.585 174.094314 
L 539.8875 174.127468 
L 539.19 174.161046 
L 538.4925 174.194874 
L 537.795 174.228767 
L 537.0975 174.262534 
L 536.4 174.295978 
L 535.7025 174.328895 
L 535.005 174.361079 
L 534.3075 174.392319 
L 533.61 174.422406 
L 532.9125 174.451129 
L 532.215 174.478282 
L 531.5175 174.503659 
L 530.82 174.527063 
L 530.1225 174.5483 
L 529.425 174.567188 
L 528.7275 174.583551 
L 528.03 174.597227 
L 527.3325 174.608065 
L 526.635 174.615928 
L 525.9375 174.620692 
L 525.24 174.622253 
L 524.5425 174.620519 
L 523.845 174.615418 
L 523.1475 174.606897 
L 522.45 174.59492 
L 521.7525 174.579471 
L 521.055 174.560554 
L 520.3575 174.538193 
L 519.66 174.512431 
L 518.9625 174.483331 
L 518.265 174.450976 
L 517.5675 174.415466 
L 516.87 174.376921 
L 516.1725 174.335478 
L 515.475 174.291293 
L 514.7775 174.244533 
L 514.08 174.195385 
L 513.3825 174.144046 
L 512.685 174.090727 
L 511.9875 174.035649 
L 511.29 173.979043 
L 510.5925 173.921147 
L 509.895 173.862207 
L 509.1975 173.80247 
L 508.5 173.742191 
L 507.8025 173.681621 
L 507.105 173.621013 
L 506.4075 173.560618 
L 505.71 173.500683 
L 505.0125 173.441447 
L 504.315 173.383144 
L 503.6175 173.325999 
L 502.92 173.270226 
L 502.2225 173.216027 
L 501.525 173.163591 
L 500.8275 173.113092 
L 500.13 173.064692 
L 499.4325 173.018531 
L 498.735 172.974736 
L 498.0375 172.933414 
L 497.34 172.894654 
L 496.6425 172.858525 
L 495.945 172.825077 
L 495.2475 172.794341 
L 494.55 172.766326 
L 493.8525 172.741025 
L 493.155 172.718409 
L 492.4575 172.698429 
L 491.76 172.681022 
L 491.0625 172.666103 
L 490.365 172.653572 
L 489.6675 172.643313 
L 488.97 172.635195 
L 488.2725 172.629072 
L 487.575 172.624786 
L 486.8775 172.622169 
L 486.18 172.621042 
L 485.4825 172.621216 
L 484.785 172.622497 
L 484.0875 172.624685 
L 483.39 172.627576 
L 482.6925 172.630963 
L 481.995 172.634638 
L 481.2975 172.638394 
L 480.6 172.642026 
L 479.9025 172.645334 
L 479.205 172.64812 
L 478.5075 172.650194 
L 477.81 172.651373 
L 477.1125 172.651485 
L 476.415 172.650364 
L 475.7175 172.647859 
L 475.02 172.643827 
L 474.3225 172.63814 
L 473.625 172.630682 
L 472.9275 172.621352 
L 472.23 172.610063 
L 471.5325 172.596741 
L 470.835 172.581329 
L 470.1375 172.563782 
L 469.44 172.544073 
L 468.7425 172.522186 
L 468.045 172.498123 
L 467.3475 172.471896 
L 466.65 172.443532 
L 465.9525 172.413072 
L 465.255 172.380566 
L 464.5575 172.346076 
L 463.86 172.309677 
L 463.1625 172.271449 
L 462.465 172.231483 
L 461.7675 172.189876 
L 461.07 172.146731 
L 460.3725 172.102156 
L 459.675 172.056263 
L 458.9775 172.009168 
L 458.28 171.960985 
L 457.5825 171.911832 
L 456.885 171.861823 
L 456.1875 171.811074 
L 455.49 171.759694 
L 454.7925 171.707792 
L 454.095 171.655469 
L 453.3975 171.602823 
L 452.7 171.549944 
L 452.0025 171.496917 
L 451.305 171.443819 
L 450.6075 171.390717 
L 449.91 171.337672 
L 449.2125 171.284737 
L 448.515 171.231953 
L 447.8175 171.179356 
L 447.12 171.126971 
L 446.4225 171.074814 
L 445.725 171.022896 
L 445.0275 170.971215 
L 444.33 170.919766 
L 443.6325 170.868534 
L 442.935 170.817499 
L 442.2375 170.766634 
L 441.54 170.715908 
L 440.8425 170.665285 
L 440.145 170.614726 
L 439.4475 170.564189 
L 438.75 170.513631 
L 438.0525 170.463007 
L 437.355 170.412273 
L 436.6575 170.361385 
L 435.96 170.310304 
L 435.2625 170.25899 
L 434.565 170.207408 
L 433.8675 170.155529 
L 433.17 170.103328 
L 432.4725 170.050787 
L 431.775 169.997892 
L 431.0775 169.94464 
L 430.38 169.891033 
L 429.6825 169.837083 
L 428.985 169.782808 
L 428.2875 169.728236 
L 427.59 169.673406 
L 426.8925 169.618362 
L 426.195 169.563159 
L 425.4975 169.507859 
L 424.8 169.452534 
L 424.1025 169.397262 
L 423.405 169.34213 
L 422.7075 169.287231 
L 422.01 169.232662 
L 421.3125 169.17853 
L 420.615 169.124942 
L 419.9175 169.072011 
L 419.22 169.019851 
L 418.5225 168.968578 
L 417.825 168.91831 
L 417.1275 168.869163 
L 416.43 168.82125 
L 415.7325 168.774683 
L 415.035 168.72957 
L 414.3375 168.686012 
L 413.64 168.644106 
L 412.9425 168.60394 
L 412.245 168.565594 
L 411.5475 168.529138 
L 410.85 168.494632 
L 410.1525 168.462124 
L 409.455 168.431653 
L 408.7575 168.403241 
L 408.06 168.376899 
L 407.3625 168.352623 
L 406.665 168.330396 
L 405.9675 168.310186 
L 405.27 168.291946 
L 404.5725 168.275614 
L 403.875 168.261114 
L 403.1775 168.248354 
L 402.48 168.237231 
L 401.7825 168.227625 
L 401.085 168.219405 
L 400.3875 168.212428 
L 399.69 168.206537 
L 398.9925 168.201566 
L 398.295 168.19734 
L 397.5975 168.193674 
L 396.9 168.190378 
L 396.2025 168.187254 
L 395.505 168.184101 
L 394.8075 168.180712 
L 394.11 168.176882 
L 393.4125 168.172404 
L 392.715 168.167071 
L 392.0175 168.160683 
L 391.32 168.15304 
L 390.6225 168.14395 
L 389.925 168.133229 
L 389.2275 168.120701 
L 388.53 168.106201 
L 387.8325 168.089574 
L 387.135 168.070681 
L 386.4375 168.049394 
L 385.74 168.025603 
L 385.0425 167.999212 
L 384.345 167.970144 
L 383.6475 167.938338 
L 382.95 167.903754 
L 382.2525 167.86637 
L 381.555 167.826182 
L 380.8575 167.783207 
L 380.16 167.737482 
L 379.4625 167.689063 
L 378.765 167.638026 
L 378.0675 167.584465 
L 377.37 167.528494 
L 376.6725 167.470243 
L 375.975 167.409862 
L 375.2775 167.347515 
L 374.58 167.283381 
L 373.8825 167.217655 
L 373.185 167.150543 
L 372.4875 167.082263 
L 371.79 167.013043 
L 371.0925 166.943119 
L 370.395 166.872735 
L 369.6975 166.80214 
L 369 166.731586 
L 368.3025 166.661326 
L 367.605 166.591615 
L 366.9075 166.522705 
L 366.21 166.454846 
L 365.5125 166.388281 
L 364.815 166.323249 
L 364.1175 166.259978 
L 363.42 166.198689 
L 362.7225 166.139589 
L 362.025 166.082875 
L 361.3275 166.028727 
L 360.63 165.977313 
L 359.9325 165.928784 
L 359.235 165.883273 
L 358.5375 165.840895 
L 357.84 165.801749 
L 357.1425 165.765912 
L 356.445 165.733442 
L 355.7475 165.70438 
L 355.05 165.678744 
L 354.3525 165.656534 
L 353.655 165.637729 
L 352.9575 165.622291 
L 352.26 165.610162 
L 351.5625 165.601265 
L 350.865 165.595507 
L 350.1675 165.592779 
L 349.47 165.592954 
L 348.7725 165.595893 
L 348.075 165.601442 
L 347.3775 165.609437 
L 346.68 165.619702 
L 345.9825 165.632051 
L 345.285 165.646292 
L 344.5875 165.662224 
L 343.89 165.679646 
L 343.1925 165.698348 
L 342.495 165.718122 
L 341.7975 165.738759 
L 341.1 165.760052 
L 340.4025 165.781795 
L 339.705 165.803787 
L 339.0075 165.825833 
L 338.31 165.847746 
L 337.6125 165.869346 
L 336.915 165.890461 
L 336.2175 165.910932 
L 335.52 165.930609 
L 334.8225 165.949356 
L 334.125 165.967049 
L 333.4275 165.983578 
L 332.73 165.998845 
L 332.0325 166.012769 
L 331.335 166.025283 
L 330.6375 166.036334 
L 329.94 166.045883 
L 329.2425 166.053907 
L 328.545 166.060396 
L 327.8475 166.065355 
L 327.15 166.068803 
L 326.4525 166.07077 
L 325.755 166.071298 
L 325.0575 166.070443 
L 324.36 166.068269 
L 323.6625 166.064851 
L 322.965 166.060271 
L 322.2675 166.054621 
L 321.57 166.047998 
L 320.8725 166.040504 
L 320.175 166.032246 
L 319.4775 166.023334 
L 318.78 166.013879 
L 318.0825 166.003995 
L 317.385 165.993793 
L 316.6875 165.983384 
L 315.99 165.972877 
L 315.2925 165.962377 
L 314.595 165.951985 
L 313.8975 165.941795 
L 313.2 165.931898 
L 312.5025 165.922377 
L 311.805 165.913307 
L 311.1075 165.904756 
L 310.41 165.896784 
L 309.7125 165.889442 
L 309.015 165.882772 
L 308.3175 165.876809 
L 307.62 165.871577 
L 306.9225 165.867093 
L 306.225 165.863363 
L 305.5275 165.860388 
L 304.83 165.858159 
L 304.1325 165.85666 
L 303.435 165.855869 
L 302.7375 165.855757 
L 302.04 165.856289 
L 301.3425 165.857427 
L 300.645 165.859127 
L 299.9475 165.861344 
L 299.25 165.86403 
L 298.5525 165.867134 
L 297.855 165.870609 
L 297.1575 165.874403 
L 296.46 165.87847 
L 295.7625 165.882765 
L 295.065 165.887245 
L 294.3675 165.891873 
L 293.67 165.896616 
L 292.9725 165.901447 
L 292.275 165.906345 
L 291.5775 165.911295 
L 290.88 165.916292 
L 290.1825 165.921337 
L 289.485 165.92644 
L 288.7875 165.931619 
L 288.09 165.9369 
L 287.3925 165.942321 
L 286.695 165.947924 
L 285.9975 165.953764 
L 285.3 165.959901 
L 284.6025 165.966404 
L 283.905 165.973351 
L 283.2075 165.980825 
L 282.51 165.988916 
L 281.8125 165.99772 
L 281.115 166.007337 
L 280.4175 166.017872 
L 279.72 166.029432 
L 279.0225 166.042126 
L 278.325 166.056065 
L 277.6275 166.071359 
L 276.93 166.088117 
L 276.2325 166.106444 
L 275.535 166.126445 
L 274.8375 166.148216 
L 274.14 166.17185 
L 273.4425 166.197433 
L 272.745 166.225041 
L 272.0475 166.254744 
L 271.35 166.286598 
L 270.6525 166.320652 
L 269.955 166.356941 
L 269.2575 166.395488 
L 268.56 166.436302 
L 267.8625 166.479381 
L 267.165 166.524705 
L 266.4675 166.572244 
L 265.77 166.621949 
L 265.0725 166.673759 
L 264.375 166.727597 
L 263.6775 166.783373 
L 262.98 166.84098 
L 262.2825 166.9003 
L 261.585 166.961199 
L 260.8875 167.023533 
L 260.19 167.087144 
L 259.4925 167.151864 
L 258.795 167.217515 
L 258.0975 167.283908 
L 257.4 167.350849 
L 256.7025 167.418136 
L 256.005 167.485562 
L 255.3075 167.552916 
L 254.61 167.619985 
L 253.9125 167.686556 
L 253.215 167.752415 
L 252.5175 167.81735 
L 251.82 167.881155 
L 251.1225 167.943627 
L 250.425 168.004571 
L 249.7275 168.0638 
L 249.03 168.121136 
L 248.3325 168.176414 
L 247.635 168.22948 
L 246.9375 168.280193 
L 246.24 168.328428 
L 245.5425 168.374075 
L 244.845 168.417042 
L 244.1475 168.457254 
L 243.45 168.494654 
L 242.7525 168.529204 
L 242.055 168.560884 
L 241.3575 168.589697 
L 240.66 168.615662 
L 239.9625 168.63882 
L 239.265 168.659231 
L 238.5675 168.676973 
L 237.87 168.692145 
L 237.1725 168.704863 
L 236.475 168.715261 
L 235.7775 168.723489 
L 235.08 168.729712 
L 234.3825 168.734113 
L 233.685 168.736884 
L 232.9875 168.738232 
L 232.29 168.738373 
L 231.5925 168.737535 
L 230.895 168.735949 
L 230.1975 168.733857 
L 229.5 168.731501 
L 228.8025 168.729128 
L 228.105 168.726987 
L 227.4075 168.725322 
L 226.71 168.72438 
L 226.0125 168.7244 
L 225.315 168.725615 
L 224.6175 168.728253 
L 223.92 168.73253 
L 223.2225 168.738655 
L 222.525 168.746822 
L 221.8275 168.757213 
L 221.13 168.769994 
L 220.4325 168.785318 
L 219.735 168.80332 
L 219.0375 168.824117 
L 218.34 168.847808 
L 217.6425 168.874474 
L 216.945 168.904176 
L 216.2475 168.936955 
L 215.55 168.972835 
L 214.8525 169.011816 
L 214.155 169.053882 
L 213.4575 169.098995 
L 212.76 169.147101 
L 212.0625 169.198124 
L 211.365 169.251974 
L 210.6675 169.308541 
L 209.97 169.367702 
L 209.2725 169.429316 
L 208.575 169.49323 
L 207.8775 169.559279 
L 207.18 169.627286 
L 206.4825 169.697063 
L 205.785 169.768415 
L 205.0875 169.84114 
L 204.39 169.915031 
L 203.6925 169.989874 
L 202.995 170.065457 
L 202.2975 170.141565 
L 201.6 170.217984 
L 200.9025 170.2945 
L 200.205 170.370908 
L 199.5075 170.447002 
L 198.81 170.522586 
L 198.1125 170.597472 
L 197.415 170.671478 
L 196.7175 170.744435 
L 196.02 170.816183 
L 195.3225 170.886575 
L 194.625 170.955475 
L 193.9275 171.022763 
L 193.23 171.088329 
L 192.5325 171.152081 
L 191.835 171.21394 
L 191.1375 171.273841 
L 190.44 171.331734 
L 189.7425 171.387585 
L 189.045 171.441373 
L 188.3475 171.493092 
L 187.65 171.542749 
L 186.9525 171.590365 
L 186.255 171.635973 
L 185.5575 171.679617 
L 184.86 171.721354 
L 184.1625 171.76125 
L 183.465 171.799379 
L 182.7675 171.835825 
L 182.07 171.870678 
L 181.3725 171.904035 
L 180.675 171.935995 
L 179.9775 171.966664 
L 179.28 171.996149 
L 178.5825 172.024559 
L 177.885 172.052001 
L 177.1875 172.078585 
L 176.49 172.104416 
L 175.7925 172.129596 
L 175.095 172.154226 
L 174.3975 172.1784 
L 173.7 172.202207 
L 173.0025 172.225729 
L 172.305 172.249043 
L 171.6075 172.272216 
L 170.91 172.295309 
L 170.2125 172.318373 
L 169.515 172.341453 
L 168.8175 172.364583 
L 168.12 172.387789 
L 167.4225 172.411088 
L 166.725 172.434488 
L 166.0275 172.457991 
L 165.33 172.481589 
L 164.6325 172.505266 
L 163.935 172.529001 
L 163.2375 172.552765 
L 162.54 172.576523 
L 161.8425 172.600237 
L 161.145 172.623862 
L 160.4475 172.647352 
L 159.75 172.670658 
L 159.0525 172.693729 
L 158.355 172.716512 
L 157.6575 172.738957 
L 156.96 172.761013 
L 156.2625 172.782632 
L 155.565 172.803768 
L 154.8675 172.824381 
L 154.17 172.844433 
L 153.4725 172.863893 
L 152.775 172.882736 
L 152.0775 172.900944 
L 151.38 172.918504 
L 150.6825 172.935414 
L 149.985 172.951678 
L 149.2875 172.96731 
L 148.59 172.982331 
L 147.8925 172.996773 
L 147.195 173.010675 
L 146.4975 173.024085 
L 145.8 173.037059 
L 145.1025 173.049664 
L 144.405 173.061972 
L 143.7075 173.074062 
L 143.01 173.086022 
L 142.3125 173.097944 
L 141.615 173.109927 
L 140.9175 173.122072 
L 140.22 173.134487 
L 139.5225 173.147278 
L 138.825 173.160557 
L 138.1275 173.174434 
L 137.43 173.189017 
L 136.7325 173.204416 
L 136.035 173.220734 
L 135.3375 173.238073 
L 134.64 173.256528 
L 133.9425 173.276187 
L 133.245 173.297133 
L 132.5475 173.319438 
L 131.85 173.343166 
L 131.1525 173.36837 
L 130.455 173.395091 
L 129.7575 173.42336 
L 129.06 173.453193 
L 128.3625 173.484594 
L 127.665 173.517552 
L 126.9675 173.552043 
L 126.27 173.588027 
L 125.5725 173.625451 
L 124.875 173.664246 
L 124.1775 173.704329 
L 123.48 173.745602 
L 122.7825 173.787955 
L 122.085 173.831261 
L 121.3875 173.875383 
L 120.69 173.920171 
L 119.9925 173.965463 
L 119.295 174.011087 
L 118.5975 174.056862 
L 117.9 174.102597 
L 117.2025 174.148096 
L 116.505 174.193156 
L 115.8075 174.237571 
L 115.11 174.28113 
L 114.4125 174.323621 
L 113.715 174.364835 
L 113.0175 174.404559 
L 112.32 174.442589 
L 111.6225 174.478722 
L 110.925 174.512762 
L 110.2275 174.54452 
L 109.53 174.573818 
L 108.8325 174.600487 
L 108.135 174.624371 
L 107.4375 174.645325 
L 106.74 174.663222 
L 106.0425 174.677946 
L 105.345 174.689401 
L 104.6475 174.697507 
L 103.95 174.702202 
L 103.2525 174.703442 
L 102.555 174.701204 
L 101.8575 174.695483 
L 101.16 174.686294 
L 100.4625 174.673672 
L 99.765 174.657672 
L 99.0675 174.638368 
L 98.37 174.615853 
L 97.6725 174.590239 
L 96.975 174.561656 
L 96.2775 174.53025 
L 95.58 174.496185 
L 94.8825 174.459639 
L 94.185 174.420805 
L 93.4875 174.379887 
L 92.79 174.337101 
L 92.0925 174.292675 
L 91.395 174.246842 
L 90.6975 174.199844 
L 90 174.151929 
z
" style="fill:#e0ffff;"/>
   </g>
   <g id="line2d_19">
    <path clip-path="url(#pd3106f128b)" d="M 90 174.151929 
L 98.37 174.615853 
L 103.95 174.702202 
L 109.53 174.573818 
L 117.2025 174.148096 
L 129.7575 173.42336 
L 138.825 173.160557 
L 160.4475 172.647352 
L 184.86 171.721354 
L 192.5325 171.152081 
L 201.6 170.217984 
L 211.365 169.251974 
L 217.6425 168.874474 
L 223.92 168.73253 
L 242.7525 168.529204 
L 249.03 168.121136 
L 259.4925 167.151864 
L 267.8625 166.479381 
L 274.8375 166.148216 
L 283.905 165.973351 
L 305.5275 165.860388 
L 320.175 166.032246 
L 329.94 166.045883 
L 339.705 165.803787 
L 349.47 165.592954 
L 355.05 165.678744 
L 360.63 165.977313 
L 367.605 166.591615 
L 380.16 167.737482 
L 386.4375 168.049394 
L 394.11 168.176882 
L 407.3625 168.352623 
L 415.035 168.72957 
L 425.4975 169.507859 
L 451.305 171.443819 
L 464.5575 172.346076 
L 471.5325 172.596741 
L 479.205 172.64812 
L 492.4575 172.698429 
L 498.735 172.974736 
L 506.4075 173.560618 
L 517.5675 174.415466 
L 523.1475 174.606897 
L 528.7275 174.583551 
L 536.4 174.295978 
L 549.6525 173.759512 
L 558.72 173.652028 
L 578.25 173.484257 
L 601.2675 172.918603 
L 608.94 172.5038 
L 616.6125 171.842162 
L 633.3525 170.26954 
L 639.63 169.994406 
L 646.605 169.92 
L 646.605 169.92 
" style="fill:none;stroke:#008080;stroke-linecap:round;stroke-width:1.75;"/>
   </g>
   <g id="patch_3">
    <path d="M 90 270.72 
L 90 69.12 
" style="fill:none;stroke:#262626;stroke-linecap:square;stroke-linejoin:miter;stroke-width:1.25;"/>
   </g>
   <g id="patch_4">
    <path d="M 90 270.72 
L 648 270.72 
" style="fill:none;stroke:#262626;stroke-linecap:square;stroke-linejoin:miter;stroke-width:1.25;"/>
   </g>
  </g>
  <g id="axes_2">
   <g id="patch_5">
    <path d="M 90 512.64 
L 648 512.64 
L 648 311.04 
L 90 311.04 
z
" style="fill:#ffffff;"/>
   </g>
   <g id="matplotlib.axis_3">
    <g id="xtick_10">
     <g id="line2d_20">
      <g>
       <use style="fill:#262626;stroke:#262626;" x="191.454545" xlink:href="#mc38947f78d" y="512.64"/>
      </g>
     </g>
     <g id="text_19">
      <!-- 200 -->
      <g style="fill:#262626;" transform="translate(183.113139 532.797812)scale(0.1 -0.1)">
       <use xlink:href="#ArialMT-32"/>
       <use x="55.615234" xlink:href="#ArialMT-30"/>
       <use x="111.230469" xlink:href="#ArialMT-30"/>
      </g>
     </g>
    </g>
    <g id="xtick_11">
     <g id="line2d_21">
      <g>
       <use style="fill:#262626;stroke:#262626;" x="304.181818" xlink:href="#mc38947f78d" y="512.64"/>
      </g>
     </g>
     <g id="text_20">
      <!-- 400 -->
      <g style="fill:#262626;" transform="translate(295.840412 532.797812)scale(0.1 -0.1)">
       <use xlink:href="#ArialMT-34"/>
       <use x="55.615234" xlink:href="#ArialMT-30"/>
       <use x="111.230469" xlink:href="#ArialMT-30"/>
      </g>
     </g>
    </g>
    <g id="xtick_12">
     <g id="line2d_22">
      <g>
       <use style="fill:#262626;stroke:#262626;" x="416.909091" xlink:href="#mc38947f78d" y="512.64"/>
      </g>
     </g>
     <g id="text_21">
      <!-- 600 -->
      <g style="fill:#262626;" transform="translate(408.567685 532.797812)scale(0.1 -0.1)">
       <use xlink:href="#ArialMT-36"/>
       <use x="55.615234" xlink:href="#ArialMT-30"/>
       <use x="111.230469" xlink:href="#ArialMT-30"/>
      </g>
     </g>
    </g>
    <g id="xtick_13">
     <g id="line2d_23">
      <g>
       <use style="fill:#262626;stroke:#262626;" x="529.636364" xlink:href="#mc38947f78d" y="512.64"/>
      </g>
     </g>
     <g id="text_22">
      <!-- 800 -->
      <g style="fill:#262626;" transform="translate(521.294957 532.797812)scale(0.1 -0.1)">
       <use xlink:href="#ArialMT-38"/>
       <use x="55.615234" xlink:href="#ArialMT-30"/>
       <use x="111.230469" xlink:href="#ArialMT-30"/>
      </g>
     </g>
    </g>
    <g id="xtick_14">
     <g id="line2d_24">
      <g>
       <use style="fill:#262626;stroke:#262626;" x="642.363636" xlink:href="#mc38947f78d" y="512.64"/>
      </g>
     </g>
     <g id="text_23">
      <!-- 1000 -->
      <g style="fill:#262626;" transform="translate(631.241761 532.797812)scale(0.1 -0.1)">
       <use xlink:href="#ArialMT-31"/>
       <use x="55.615234" xlink:href="#ArialMT-30"/>
       <use x="111.230469" xlink:href="#ArialMT-30"/>
       <use x="166.845703" xlink:href="#ArialMT-30"/>
      </g>
     </g>
    </g>
   </g>
   <g id="matplotlib.axis_4">
    <g id="ytick_10">
     <g id="line2d_25">
      <g>
       <use style="fill:#262626;stroke:#262626;" x="90" xlink:href="#mb9a3e72ee4" y="512.64"/>
      </g>
     </g>
     <g id="text_24">
      <!-- 0 -->
      <g style="fill:#262626;" transform="translate(71.439063 516.218906)scale(0.1 -0.1)">
       <use xlink:href="#ArialMT-30"/>
      </g>
     </g>
    </g>
    <g id="ytick_11">
     <g id="line2d_26">
      <g>
       <use style="fill:#262626;stroke:#262626;" x="90" xlink:href="#mb9a3e72ee4" y="487.44"/>
      </g>
     </g>
     <g id="text_25">
      <!-- 5 -->
      <g style="fill:#262626;" transform="translate(71.439063 491.018906)scale(0.1 -0.1)">
       <use xlink:href="#ArialMT-35"/>
      </g>
     </g>
    </g>
    <g id="ytick_12">
     <g id="line2d_27">
      <g>
       <use style="fill:#262626;stroke:#262626;" x="90" xlink:href="#mb9a3e72ee4" y="462.24"/>
      </g>
     </g>
     <g id="text_26">
      <!-- 10 -->
      <g style="fill:#262626;" transform="translate(65.878125 465.818906)scale(0.1 -0.1)">
       <use xlink:href="#ArialMT-31"/>
       <use x="55.615234" xlink:href="#ArialMT-30"/>
      </g>
     </g>
    </g>
    <g id="ytick_13">
     <g id="line2d_28">
      <g>
       <use style="fill:#262626;stroke:#262626;" x="90" xlink:href="#mb9a3e72ee4" y="437.04"/>
      </g>
     </g>
     <g id="text_27">
      <!-- 15 -->
      <g style="fill:#262626;" transform="translate(65.878125 440.618906)scale(0.1 -0.1)">
       <use xlink:href="#ArialMT-31"/>
       <use x="55.615234" xlink:href="#ArialMT-35"/>
      </g>
     </g>
    </g>
    <g id="ytick_14">
     <g id="line2d_29">
      <g>
       <use style="fill:#262626;stroke:#262626;" x="90" xlink:href="#mb9a3e72ee4" y="411.84"/>
      </g>
     </g>
     <g id="text_28">
      <!-- 20 -->
      <g style="fill:#262626;" transform="translate(65.878125 415.418906)scale(0.1 -0.1)">
       <use xlink:href="#ArialMT-32"/>
       <use x="55.615234" xlink:href="#ArialMT-30"/>
      </g>
     </g>
    </g>
    <g id="ytick_15">
     <g id="line2d_30">
      <g>
       <use style="fill:#262626;stroke:#262626;" x="90" xlink:href="#mb9a3e72ee4" y="386.64"/>
      </g>
     </g>
     <g id="text_29">
      <!-- 25 -->
      <g style="fill:#262626;" transform="translate(65.878125 390.218906)scale(0.1 -0.1)">
       <use xlink:href="#ArialMT-32"/>
       <use x="55.615234" xlink:href="#ArialMT-35"/>
      </g>
     </g>
    </g>
    <g id="ytick_16">
     <g id="line2d_31">
      <g>
       <use style="fill:#262626;stroke:#262626;" x="90" xlink:href="#mb9a3e72ee4" y="361.44"/>
      </g>
     </g>
     <g id="text_30">
      <!-- 30 -->
      <g style="fill:#262626;" transform="translate(65.878125 365.018906)scale(0.1 -0.1)">
       <use xlink:href="#ArialMT-33"/>
       <use x="55.615234" xlink:href="#ArialMT-30"/>
      </g>
     </g>
    </g>
    <g id="ytick_17">
     <g id="line2d_32">
      <g>
       <use style="fill:#262626;stroke:#262626;" x="90" xlink:href="#mb9a3e72ee4" y="336.24"/>
      </g>
     </g>
     <g id="text_31">
      <!-- 35 -->
      <g style="fill:#262626;" transform="translate(65.878125 339.818906)scale(0.1 -0.1)">
       <use xlink:href="#ArialMT-33"/>
       <use x="55.615234" xlink:href="#ArialMT-35"/>
      </g>
     </g>
    </g>
    <g id="ytick_18">
     <g id="line2d_33">
      <g>
       <use style="fill:#262626;stroke:#262626;" x="90" xlink:href="#mb9a3e72ee4" y="311.04"/>
      </g>
     </g>
     <g id="text_32">
      <!-- 40 -->
      <g style="fill:#262626;" transform="translate(65.878125 314.618906)scale(0.1 -0.1)">
       <use xlink:href="#ArialMT-34"/>
       <use x="55.615234" xlink:href="#ArialMT-30"/>
      </g>
     </g>
    </g>
   </g>
   <g id="line2d_34">
    <path clip-path="url(#p7a740aa380)" d="M 90 488.562059 
L 95.636364 492.871917 
L 101.272727 491.915277 
L 106.909091 490.291312 
L 112.545455 492.192009 
L 118.181818 490.692663 
" style="fill:none;stroke:#b22222;stroke-linecap:round;stroke-width:1.75;"/>
   </g>
   <g id="patch_6">
    <path d="M 90 512.64 
L 90 311.04 
" style="fill:none;stroke:#262626;stroke-linecap:square;stroke-linejoin:miter;stroke-width:1.25;"/>
   </g>
   <g id="patch_7">
    <path d="M 90 512.64 
L 648 512.64 
" style="fill:none;stroke:#262626;stroke-linecap:square;stroke-linejoin:miter;stroke-width:1.25;"/>
   </g>
   <g id="text_33">
    <!-- f = 70 Hz -->
    <defs>
     <path d="M 8.6875 0 
L 8.6875 45.015625 
L 0.921875 45.015625 
L 0.921875 51.859375 
L 8.6875 51.859375 
L 8.6875 57.375 
Q 8.6875 62.59375 9.625 65.140625 
Q 10.890625 68.5625 14.078125 70.671875 
Q 17.28125 72.796875 23.046875 72.796875 
Q 26.765625 72.796875 31.25 71.921875 
L 29.9375 64.265625 
Q 27.203125 64.75 24.75 64.75 
Q 20.75 64.75 19.09375 63.03125 
Q 17.4375 61.328125 17.4375 56.640625 
L 17.4375 51.859375 
L 27.546875 51.859375 
L 27.546875 45.015625 
L 17.4375 45.015625 
L 17.4375 0 
z
" id="ArialMT-66"/>
     <path id="ArialMT-20"/>
     <path d="M 52.828125 42.09375 
L 5.5625 42.09375 
L 5.5625 50.296875 
L 52.828125 50.296875 
z
M 52.828125 20.359375 
L 5.5625 20.359375 
L 5.5625 28.5625 
L 52.828125 28.5625 
z
" id="ArialMT-3d"/>
     <path d="M 8.015625 0 
L 8.015625 71.578125 
L 17.484375 71.578125 
L 17.484375 42.1875 
L 54.6875 42.1875 
L 54.6875 71.578125 
L 64.15625 71.578125 
L 64.15625 0 
L 54.6875 0 
L 54.6875 33.734375 
L 17.484375 33.734375 
L 17.484375 0 
z
" id="ArialMT-48"/>
     <path d="M 1.953125 0 
L 1.953125 7.125 
L 34.96875 45.015625 
Q 29.34375 44.734375 25.046875 44.734375 
L 3.90625 44.734375 
L 3.90625 51.859375 
L 46.296875 51.859375 
L 46.296875 46.046875 
L 18.21875 13.140625 
L 12.796875 7.125 
Q 18.703125 7.5625 23.875 7.5625 
L 47.859375 7.5625 
L 47.859375 0 
z
" id="ArialMT-7a"/>
    </defs>
    <g style="fill:#262626;" transform="translate(529.636364 364.542187)scale(0.12 -0.12)">
     <use xlink:href="#ArialMT-66"/>
     <use x="27.783203" xlink:href="#ArialMT-20"/>
     <use x="55.566406" xlink:href="#ArialMT-3d"/>
     <use x="113.964844" xlink:href="#ArialMT-20"/>
     <use x="141.748047" xlink:href="#ArialMT-37"/>
     <use x="197.363281" xlink:href="#ArialMT-30"/>
     <use x="252.978516" xlink:href="#ArialMT-20"/>
     <use x="280.761719" xlink:href="#ArialMT-48"/>
     <use x="352.978516" xlink:href="#ArialMT-7a"/>
    </g>
   </g>
   <g id="PathCollection_1">
    <defs>
     <path d="M 0 3.5 
C 0.928211 3.5 1.81853 3.131218 2.474874 2.474874 
C 3.131218 1.81853 3.5 0.928211 3.5 0 
C 3.5 -0.928211 3.131218 -1.81853 2.474874 -2.474874 
C 1.81853 -3.131218 0.928211 -3.5 0 -3.5 
C -0.928211 -3.5 -1.81853 -3.131218 -2.474874 -2.474874 
C -3.131218 -1.81853 -3.5 -0.928211 -3.5 0 
C -3.5 0.928211 -3.131218 1.81853 -2.474874 2.474874 
C -1.81853 3.131218 -0.928211 3.5 0 3.5 
z
" id="mabf5e42d59" style="stroke:#800000;stroke-width:0.3;"/>
    </defs>
    <g clip-path="url(#p7a740aa380)">
     <use style="fill:#800000;stroke:#800000;stroke-width:0.3;" x="118.181818" xlink:href="#mabf5e42d59" y="490.692663"/>
    </g>
   </g>
  </g>
 </g>
 <defs>
  <clipPath id="pd3106f128b">
   <rect height="201.6" width="558" x="90" y="69.12"/>
  </clipPath>
  <clipPath id="p7a740aa380">
   <rect height="201.6" width="558" x="90" y="311.04"/>
  </clipPath>
 </defs>
</svg>
