<?xml version="1.0" encoding="utf-8" standalone="no"?>
<!DOCTYPE svg PUBLIC "-//W3C//DTD SVG 1.1//EN"
  "http://www.w3.org/Graphics/SVG/1.1/DTD/svg11.dtd">
<!-- Created with matplotlib (http://matplotlib.org/) -->
<svg height="576pt" version="1.1" viewBox="0 0 720 576" width="720pt" xmlns="http://www.w3.org/2000/svg" xmlns:xlink="http://www.w3.org/1999/xlink">
 <defs>
  <style type="text/css">
*{stroke-linecap:butt;stroke-linejoin:round;}
  </style>
 </defs>
 <g id="figure_1">
  <g id="patch_1">
   <path d="M 0 576 
L 720 576 
L 720 0 
L 0 0 
z
" style="fill:#ffffff;"/>
  </g>
  <g id="axes_1">
   <g id="patch_2">
    <path d="M 90 270.72 
L 648 270.72 
L 648 69.12 
L 90 69.12 
z
" style="fill:#ffffff;"/>
   </g>
   <g id="matplotlib.axis_1">
    <g id="xtick_1">
     <g id="line2d_1">
      <defs>
       <path d="M 0 0 
L 0 6 
" id="m253f7648c3" style="stroke:#262626;"/>
      </defs>
      <g>
       <use style="fill:#262626;stroke:#262626;" x="90" xlink:href="#m253f7648c3" y="270.72"/>
      </g>
     </g>
     <g id="text_1">
      <!-- 0 -->
      <defs>
       <path d="M 4.15625 35.296875 
Q 4.15625 48 6.765625 55.734375 
Q 9.375 63.484375 14.515625 67.671875 
Q 19.671875 71.875 27.484375 71.875 
Q 33.25 71.875 37.59375 69.546875 
Q 41.9375 67.234375 44.765625 62.859375 
Q 47.609375 58.5 49.21875 52.21875 
Q 50.828125 45.953125 50.828125 35.296875 
Q 50.828125 22.703125 48.234375 14.96875 
Q 45.65625 7.234375 40.5 3 
Q 35.359375 -1.21875 27.484375 -1.21875 
Q 17.140625 -1.21875 11.234375 6.203125 
Q 4.15625 15.140625 4.15625 35.296875 
z
M 13.1875 35.296875 
Q 13.1875 17.671875 17.3125 11.828125 
Q 21.4375 6 27.484375 6 
Q 33.546875 6 37.671875 11.859375 
Q 41.796875 17.71875 41.796875 35.296875 
Q 41.796875 52.984375 37.671875 58.78125 
Q 33.546875 64.59375 27.390625 64.59375 
Q 21.34375 64.59375 17.71875 59.46875 
Q 13.1875 52.9375 13.1875 35.296875 
z
" id="ArialMT-30"/>
      </defs>
      <g style="fill:#262626;" transform="translate(87.219531 290.877812)scale(0.1 -0.1)">
       <use xlink:href="#ArialMT-30"/>
      </g>
     </g>
    </g>
    <g id="xtick_2">
     <g id="line2d_2">
      <g>
       <use style="fill:#262626;stroke:#262626;" x="159.75" xlink:href="#m253f7648c3" y="270.72"/>
      </g>
     </g>
     <g id="text_2">
      <!-- 100 -->
      <defs>
       <path d="M 37.25 0 
L 28.46875 0 
L 28.46875 56 
Q 25.296875 52.984375 20.140625 49.953125 
Q 14.984375 46.921875 10.890625 45.40625 
L 10.890625 53.90625 
Q 18.265625 57.375 23.78125 62.296875 
Q 29.296875 67.234375 31.59375 71.875 
L 37.25 71.875 
z
" id="ArialMT-31"/>
      </defs>
      <g style="fill:#262626;" transform="translate(151.408594 290.877812)scale(0.1 -0.1)">
       <use xlink:href="#ArialMT-31"/>
       <use x="55.615234" xlink:href="#ArialMT-30"/>
       <use x="111.230469" xlink:href="#ArialMT-30"/>
      </g>
     </g>
    </g>
    <g id="xtick_3">
     <g id="line2d_3">
      <g>
       <use style="fill:#262626;stroke:#262626;" x="229.5" xlink:href="#m253f7648c3" y="270.72"/>
      </g>
     </g>
     <g id="text_3">
      <!-- 200 -->
      <defs>
       <path d="M 50.34375 8.453125 
L 50.34375 0 
L 3.03125 0 
Q 2.9375 3.171875 4.046875 6.109375 
Q 5.859375 10.9375 9.828125 15.625 
Q 13.8125 20.3125 21.34375 26.46875 
Q 33.015625 36.03125 37.109375 41.625 
Q 41.21875 47.21875 41.21875 52.203125 
Q 41.21875 57.421875 37.46875 61 
Q 33.734375 64.59375 27.734375 64.59375 
Q 21.390625 64.59375 17.578125 60.78125 
Q 13.765625 56.984375 13.71875 50.25 
L 4.6875 51.171875 
Q 5.609375 61.28125 11.65625 66.578125 
Q 17.71875 71.875 27.9375 71.875 
Q 38.234375 71.875 44.234375 66.15625 
Q 50.25 60.453125 50.25 52 
Q 50.25 47.703125 48.484375 43.546875 
Q 46.734375 39.40625 42.65625 34.8125 
Q 38.578125 30.21875 29.109375 22.21875 
Q 21.1875 15.578125 18.9375 13.203125 
Q 16.703125 10.84375 15.234375 8.453125 
z
" id="ArialMT-32"/>
      </defs>
      <g style="fill:#262626;" transform="translate(221.158594 290.877812)scale(0.1 -0.1)">
       <use xlink:href="#ArialMT-32"/>
       <use x="55.615234" xlink:href="#ArialMT-30"/>
       <use x="111.230469" xlink:href="#ArialMT-30"/>
      </g>
     </g>
    </g>
    <g id="xtick_4">
     <g id="line2d_4">
      <g>
       <use style="fill:#262626;stroke:#262626;" x="299.25" xlink:href="#m253f7648c3" y="270.72"/>
      </g>
     </g>
     <g id="text_4">
      <!-- 300 -->
      <defs>
       <path d="M 4.203125 18.890625 
L 12.984375 20.0625 
Q 14.5 12.59375 18.140625 9.296875 
Q 21.78125 6 27 6 
Q 33.203125 6 37.46875 10.296875 
Q 41.75 14.59375 41.75 20.953125 
Q 41.75 27 37.796875 30.921875 
Q 33.84375 34.859375 27.734375 34.859375 
Q 25.25 34.859375 21.53125 33.890625 
L 22.515625 41.609375 
Q 23.390625 41.5 23.921875 41.5 
Q 29.546875 41.5 34.03125 44.421875 
Q 38.53125 47.359375 38.53125 53.46875 
Q 38.53125 58.296875 35.25 61.46875 
Q 31.984375 64.65625 26.8125 64.65625 
Q 21.6875 64.65625 18.265625 61.421875 
Q 14.84375 58.203125 13.875 51.765625 
L 5.078125 53.328125 
Q 6.6875 62.15625 12.390625 67.015625 
Q 18.109375 71.875 26.609375 71.875 
Q 32.46875 71.875 37.390625 69.359375 
Q 42.328125 66.84375 44.9375 62.5 
Q 47.5625 58.15625 47.5625 53.265625 
Q 47.5625 48.640625 45.0625 44.828125 
Q 42.578125 41.015625 37.703125 38.765625 
Q 44.046875 37.3125 47.5625 32.6875 
Q 51.078125 28.078125 51.078125 21.140625 
Q 51.078125 11.765625 44.234375 5.25 
Q 37.40625 -1.265625 26.953125 -1.265625 
Q 17.53125 -1.265625 11.296875 4.34375 
Q 5.078125 9.96875 4.203125 18.890625 
z
" id="ArialMT-33"/>
      </defs>
      <g style="fill:#262626;" transform="translate(290.908594 290.877812)scale(0.1 -0.1)">
       <use xlink:href="#ArialMT-33"/>
       <use x="55.615234" xlink:href="#ArialMT-30"/>
       <use x="111.230469" xlink:href="#ArialMT-30"/>
      </g>
     </g>
    </g>
    <g id="xtick_5">
     <g id="line2d_5">
      <g>
       <use style="fill:#262626;stroke:#262626;" x="369" xlink:href="#m253f7648c3" y="270.72"/>
      </g>
     </g>
     <g id="text_5">
      <!-- 400 -->
      <defs>
       <path d="M 32.328125 0 
L 32.328125 17.140625 
L 1.265625 17.140625 
L 1.265625 25.203125 
L 33.9375 71.578125 
L 41.109375 71.578125 
L 41.109375 25.203125 
L 50.78125 25.203125 
L 50.78125 17.140625 
L 41.109375 17.140625 
L 41.109375 0 
z
M 32.328125 25.203125 
L 32.328125 57.46875 
L 9.90625 25.203125 
z
" id="ArialMT-34"/>
      </defs>
      <g style="fill:#262626;" transform="translate(360.658594 290.877812)scale(0.1 -0.1)">
       <use xlink:href="#ArialMT-34"/>
       <use x="55.615234" xlink:href="#ArialMT-30"/>
       <use x="111.230469" xlink:href="#ArialMT-30"/>
      </g>
     </g>
    </g>
    <g id="xtick_6">
     <g id="line2d_6">
      <g>
       <use style="fill:#262626;stroke:#262626;" x="438.75" xlink:href="#m253f7648c3" y="270.72"/>
      </g>
     </g>
     <g id="text_6">
      <!-- 500 -->
      <defs>
       <path d="M 4.15625 18.75 
L 13.375 19.53125 
Q 14.40625 12.796875 18.140625 9.390625 
Q 21.875 6 27.15625 6 
Q 33.5 6 37.890625 10.78125 
Q 42.28125 15.578125 42.28125 23.484375 
Q 42.28125 31 38.0625 35.34375 
Q 33.84375 39.703125 27 39.703125 
Q 22.75 39.703125 19.328125 37.765625 
Q 15.921875 35.84375 13.96875 32.765625 
L 5.71875 33.84375 
L 12.640625 70.609375 
L 48.25 70.609375 
L 48.25 62.203125 
L 19.671875 62.203125 
L 15.828125 42.96875 
Q 22.265625 47.46875 29.34375 47.46875 
Q 38.71875 47.46875 45.15625 40.96875 
Q 51.609375 34.46875 51.609375 24.265625 
Q 51.609375 14.546875 45.953125 7.46875 
Q 39.0625 -1.21875 27.15625 -1.21875 
Q 17.390625 -1.21875 11.203125 4.25 
Q 5.03125 9.71875 4.15625 18.75 
z
" id="ArialMT-35"/>
      </defs>
      <g style="fill:#262626;" transform="translate(430.408594 290.877812)scale(0.1 -0.1)">
       <use xlink:href="#ArialMT-35"/>
       <use x="55.615234" xlink:href="#ArialMT-30"/>
       <use x="111.230469" xlink:href="#ArialMT-30"/>
      </g>
     </g>
    </g>
    <g id="xtick_7">
     <g id="line2d_7">
      <g>
       <use style="fill:#262626;stroke:#262626;" x="508.5" xlink:href="#m253f7648c3" y="270.72"/>
      </g>
     </g>
     <g id="text_7">
      <!-- 600 -->
      <defs>
       <path d="M 49.75 54.046875 
L 41.015625 53.375 
Q 39.84375 58.546875 37.703125 60.890625 
Q 34.125 64.65625 28.90625 64.65625 
Q 24.703125 64.65625 21.53125 62.3125 
Q 17.390625 59.28125 14.984375 53.46875 
Q 12.59375 47.65625 12.5 36.921875 
Q 15.671875 41.75 20.265625 44.09375 
Q 24.859375 46.4375 29.890625 46.4375 
Q 38.671875 46.4375 44.84375 39.96875 
Q 51.03125 33.5 51.03125 23.25 
Q 51.03125 16.5 48.125 10.71875 
Q 45.21875 4.9375 40.140625 1.859375 
Q 35.0625 -1.21875 28.609375 -1.21875 
Q 17.625 -1.21875 10.6875 6.859375 
Q 3.765625 14.9375 3.765625 33.5 
Q 3.765625 54.25 11.421875 63.671875 
Q 18.109375 71.875 29.4375 71.875 
Q 37.890625 71.875 43.28125 67.140625 
Q 48.6875 62.40625 49.75 54.046875 
z
M 13.875 23.1875 
Q 13.875 18.65625 15.796875 14.5 
Q 17.71875 10.359375 21.1875 8.171875 
Q 24.65625 6 28.46875 6 
Q 34.03125 6 38.03125 10.484375 
Q 42.046875 14.984375 42.046875 22.703125 
Q 42.046875 30.125 38.078125 34.390625 
Q 34.125 38.671875 28.125 38.671875 
Q 22.171875 38.671875 18.015625 34.390625 
Q 13.875 30.125 13.875 23.1875 
z
" id="ArialMT-36"/>
      </defs>
      <g style="fill:#262626;" transform="translate(500.158594 290.877812)scale(0.1 -0.1)">
       <use xlink:href="#ArialMT-36"/>
       <use x="55.615234" xlink:href="#ArialMT-30"/>
       <use x="111.230469" xlink:href="#ArialMT-30"/>
      </g>
     </g>
    </g>
    <g id="xtick_8">
     <g id="line2d_8">
      <g>
       <use style="fill:#262626;stroke:#262626;" x="578.25" xlink:href="#m253f7648c3" y="270.72"/>
      </g>
     </g>
     <g id="text_8">
      <!-- 700 -->
      <defs>
       <path d="M 4.734375 62.203125 
L 4.734375 70.65625 
L 51.078125 70.65625 
L 51.078125 63.8125 
Q 44.234375 56.546875 37.515625 44.484375 
Q 30.8125 32.421875 27.15625 19.671875 
Q 24.515625 10.6875 23.78125 0 
L 14.75 0 
Q 14.890625 8.453125 18.0625 20.40625 
Q 21.234375 32.375 27.171875 43.484375 
Q 33.109375 54.59375 39.796875 62.203125 
z
" id="ArialMT-37"/>
      </defs>
      <g style="fill:#262626;" transform="translate(569.908594 290.877812)scale(0.1 -0.1)">
       <use xlink:href="#ArialMT-37"/>
       <use x="55.615234" xlink:href="#ArialMT-30"/>
       <use x="111.230469" xlink:href="#ArialMT-30"/>
      </g>
     </g>
    </g>
    <g id="xtick_9">
     <g id="line2d_9">
      <g>
       <use style="fill:#262626;stroke:#262626;" x="648" xlink:href="#m253f7648c3" y="270.72"/>
      </g>
     </g>
     <g id="text_9">
      <!-- 800 -->
      <defs>
       <path d="M 17.671875 38.8125 
Q 12.203125 40.828125 9.5625 44.53125 
Q 6.9375 48.25 6.9375 53.421875 
Q 6.9375 61.234375 12.546875 66.546875 
Q 18.171875 71.875 27.484375 71.875 
Q 36.859375 71.875 42.578125 66.421875 
Q 48.296875 60.984375 48.296875 53.171875 
Q 48.296875 48.1875 45.671875 44.5 
Q 43.0625 40.828125 37.75 38.8125 
Q 44.34375 36.671875 47.78125 31.875 
Q 51.21875 27.09375 51.21875 20.453125 
Q 51.21875 11.28125 44.71875 5.03125 
Q 38.234375 -1.21875 27.640625 -1.21875 
Q 17.046875 -1.21875 10.546875 5.046875 
Q 4.046875 11.328125 4.046875 20.703125 
Q 4.046875 27.6875 7.59375 32.390625 
Q 11.140625 37.109375 17.671875 38.8125 
z
M 15.921875 53.71875 
Q 15.921875 48.640625 19.1875 45.40625 
Q 22.46875 42.1875 27.6875 42.1875 
Q 32.765625 42.1875 36.015625 45.375 
Q 39.265625 48.578125 39.265625 53.21875 
Q 39.265625 58.0625 35.90625 61.359375 
Q 32.5625 64.65625 27.59375 64.65625 
Q 22.5625 64.65625 19.234375 61.421875 
Q 15.921875 58.203125 15.921875 53.71875 
z
M 13.09375 20.65625 
Q 13.09375 16.890625 14.875 13.375 
Q 16.65625 9.859375 20.171875 7.921875 
Q 23.6875 6 27.734375 6 
Q 34.03125 6 38.125 10.046875 
Q 42.234375 14.109375 42.234375 20.359375 
Q 42.234375 26.703125 38.015625 30.859375 
Q 33.796875 35.015625 27.4375 35.015625 
Q 21.234375 35.015625 17.15625 30.90625 
Q 13.09375 26.8125 13.09375 20.65625 
z
" id="ArialMT-38"/>
      </defs>
      <g style="fill:#262626;" transform="translate(639.658594 290.877812)scale(0.1 -0.1)">
       <use xlink:href="#ArialMT-38"/>
       <use x="55.615234" xlink:href="#ArialMT-30"/>
       <use x="111.230469" xlink:href="#ArialMT-30"/>
      </g>
     </g>
    </g>
   </g>
   <g id="matplotlib.axis_2">
    <g id="ytick_1">
     <g id="line2d_10">
      <defs>
       <path d="M 0 0 
L -6 0 
" id="m78f39672c7" style="stroke:#262626;"/>
      </defs>
      <g>
       <use style="fill:#262626;stroke:#262626;" x="90" xlink:href="#m78f39672c7" y="270.72"/>
      </g>
     </g>
     <g id="text_10">
      <!-- −0.20 -->
      <defs>
       <path d="M 52.828125 31.203125 
L 5.5625 31.203125 
L 5.5625 39.40625 
L 52.828125 39.40625 
z
" id="ArialMT-2212"/>
       <path d="M 9.078125 0 
L 9.078125 10.015625 
L 19.09375 10.015625 
L 19.09375 0 
z
" id="ArialMT-2e"/>
      </defs>
      <g style="fill:#262626;" transform="translate(51.698437 274.298906)scale(0.1 -0.1)">
       <use xlink:href="#ArialMT-2212"/>
       <use x="58.398438" xlink:href="#ArialMT-30"/>
       <use x="114.013672" xlink:href="#ArialMT-2e"/>
       <use x="141.796875" xlink:href="#ArialMT-32"/>
       <use x="197.412109" xlink:href="#ArialMT-30"/>
      </g>
     </g>
    </g>
    <g id="ytick_2">
     <g id="line2d_11">
      <g>
       <use style="fill:#262626;stroke:#262626;" x="90" xlink:href="#m78f39672c7" y="245.52"/>
      </g>
     </g>
     <g id="text_11">
      <!-- −0.15 -->
      <g style="fill:#262626;" transform="translate(51.698437 249.098906)scale(0.1 -0.1)">
       <use xlink:href="#ArialMT-2212"/>
       <use x="58.398438" xlink:href="#ArialMT-30"/>
       <use x="114.013672" xlink:href="#ArialMT-2e"/>
       <use x="141.796875" xlink:href="#ArialMT-31"/>
       <use x="197.412109" xlink:href="#ArialMT-35"/>
      </g>
     </g>
    </g>
    <g id="ytick_3">
     <g id="line2d_12">
      <g>
       <use style="fill:#262626;stroke:#262626;" x="90" xlink:href="#m78f39672c7" y="220.32"/>
      </g>
     </g>
     <g id="text_12">
      <!-- −0.10 -->
      <g style="fill:#262626;" transform="translate(51.698437 223.898906)scale(0.1 -0.1)">
       <use xlink:href="#ArialMT-2212"/>
       <use x="58.398438" xlink:href="#ArialMT-30"/>
       <use x="114.013672" xlink:href="#ArialMT-2e"/>
       <use x="141.796875" xlink:href="#ArialMT-31"/>
       <use x="197.412109" xlink:href="#ArialMT-30"/>
      </g>
     </g>
    </g>
    <g id="ytick_4">
     <g id="line2d_13">
      <g>
       <use style="fill:#262626;stroke:#262626;" x="90" xlink:href="#m78f39672c7" y="195.12"/>
      </g>
     </g>
     <g id="text_13">
      <!-- −0.05 -->
      <g style="fill:#262626;" transform="translate(51.698437 198.698906)scale(0.1 -0.1)">
       <use xlink:href="#ArialMT-2212"/>
       <use x="58.398438" xlink:href="#ArialMT-30"/>
       <use x="114.013672" xlink:href="#ArialMT-2e"/>
       <use x="141.796875" xlink:href="#ArialMT-30"/>
       <use x="197.412109" xlink:href="#ArialMT-35"/>
      </g>
     </g>
    </g>
    <g id="ytick_5">
     <g id="line2d_14">
      <g>
       <use style="fill:#262626;stroke:#262626;" x="90" xlink:href="#m78f39672c7" y="169.92"/>
      </g>
     </g>
     <g id="text_14">
      <!-- 0.00 -->
      <g style="fill:#262626;" transform="translate(57.539062 173.498906)scale(0.1 -0.1)">
       <use xlink:href="#ArialMT-30"/>
       <use x="55.615234" xlink:href="#ArialMT-2e"/>
       <use x="83.398438" xlink:href="#ArialMT-30"/>
       <use x="139.013672" xlink:href="#ArialMT-30"/>
      </g>
     </g>
    </g>
    <g id="ytick_6">
     <g id="line2d_15">
      <g>
       <use style="fill:#262626;stroke:#262626;" x="90" xlink:href="#m78f39672c7" y="144.72"/>
      </g>
     </g>
     <g id="text_15">
      <!-- 0.05 -->
      <g style="fill:#262626;" transform="translate(57.539062 148.298906)scale(0.1 -0.1)">
       <use xlink:href="#ArialMT-30"/>
       <use x="55.615234" xlink:href="#ArialMT-2e"/>
       <use x="83.398438" xlink:href="#ArialMT-30"/>
       <use x="139.013672" xlink:href="#ArialMT-35"/>
      </g>
     </g>
    </g>
    <g id="ytick_7">
     <g id="line2d_16">
      <g>
       <use style="fill:#262626;stroke:#262626;" x="90" xlink:href="#m78f39672c7" y="119.52"/>
      </g>
     </g>
     <g id="text_16">
      <!-- 0.10 -->
      <g style="fill:#262626;" transform="translate(57.539062 123.098906)scale(0.1 -0.1)">
       <use xlink:href="#ArialMT-30"/>
       <use x="55.615234" xlink:href="#ArialMT-2e"/>
       <use x="83.398438" xlink:href="#ArialMT-31"/>
       <use x="139.013672" xlink:href="#ArialMT-30"/>
      </g>
     </g>
    </g>
    <g id="ytick_8">
     <g id="line2d_17">
      <g>
       <use style="fill:#262626;stroke:#262626;" x="90" xlink:href="#m78f39672c7" y="94.32"/>
      </g>
     </g>
     <g id="text_17">
      <!-- 0.15 -->
      <g style="fill:#262626;" transform="translate(57.539062 97.898906)scale(0.1 -0.1)">
       <use xlink:href="#ArialMT-30"/>
       <use x="55.615234" xlink:href="#ArialMT-2e"/>
       <use x="83.398438" xlink:href="#ArialMT-31"/>
       <use x="139.013672" xlink:href="#ArialMT-35"/>
      </g>
     </g>
    </g>
    <g id="ytick_9">
     <g id="line2d_18">
      <g>
       <use style="fill:#262626;stroke:#262626;" x="90" xlink:href="#m78f39672c7" y="69.12"/>
      </g>
     </g>
     <g id="text_18">
      <!-- 0.20 -->
      <g style="fill:#262626;" transform="translate(57.539062 72.698906)scale(0.1 -0.1)">
       <use xlink:href="#ArialMT-30"/>
       <use x="55.615234" xlink:href="#ArialMT-2e"/>
       <use x="83.398438" xlink:href="#ArialMT-32"/>
       <use x="139.013672" xlink:href="#ArialMT-30"/>
      </g>
     </g>
    </g>
   </g>
   <g id="PolyCollection_1">
    <path clip-path="url(#pe4f6cfcef3)" d="M 90 169.452762 
L 90 169.92 
L 90.6975 169.92 
L 91.395 169.92 
L 92.0925 169.92 
L 92.79 169.92 
L 93.4875 169.92 
L 94.185 169.92 
L 94.8825 169.92 
L 95.58 169.92 
L 96.2775 169.92 
L 96.975 169.92 
L 97.6725 169.92 
L 98.37 169.92 
L 99.0675 169.92 
L 99.765 169.92 
L 100.4625 169.92 
L 101.16 169.92 
L 101.8575 169.92 
L 102.555 169.92 
L 103.2525 169.92 
L 103.95 169.92 
L 104.6475 169.92 
L 105.345 169.92 
L 106.0425 169.92 
L 106.74 169.92 
L 107.4375 169.92 
L 108.135 169.92 
L 108.8325 169.92 
L 109.53 169.92 
L 110.2275 169.92 
L 110.925 169.92 
L 111.6225 169.92 
L 112.32 169.92 
L 113.0175 169.92 
L 113.715 169.92 
L 114.4125 169.92 
L 115.11 169.92 
L 115.8075 169.92 
L 116.505 169.92 
L 117.2025 169.92 
L 117.9 169.92 
L 118.5975 169.92 
L 119.295 169.92 
L 119.9925 169.92 
L 120.69 169.92 
L 121.3875 169.92 
L 122.085 169.92 
L 122.7825 169.92 
L 123.48 169.92 
L 124.1775 169.92 
L 124.875 169.92 
L 125.5725 169.92 
L 126.27 169.92 
L 126.9675 169.92 
L 127.665 169.92 
L 128.3625 169.92 
L 129.06 169.92 
L 129.7575 169.92 
L 130.455 169.92 
L 131.1525 169.92 
L 131.85 169.92 
L 132.5475 169.92 
L 133.245 169.92 
L 133.9425 169.92 
L 134.64 169.92 
L 135.3375 169.92 
L 136.035 169.92 
L 136.7325 169.92 
L 137.43 169.92 
L 138.1275 169.92 
L 138.825 169.92 
L 139.5225 169.92 
L 140.22 169.92 
L 140.9175 169.92 
L 141.615 169.92 
L 142.3125 169.92 
L 143.01 169.92 
L 143.7075 169.92 
L 144.405 169.92 
L 145.1025 169.92 
L 145.8 169.92 
L 146.4975 169.92 
L 147.195 169.92 
L 147.8925 169.92 
L 148.59 169.92 
L 149.2875 169.92 
L 149.985 169.92 
L 150.6825 169.92 
L 151.38 169.92 
L 152.0775 169.92 
L 152.775 169.92 
L 153.4725 169.92 
L 154.17 169.92 
L 154.8675 169.92 
L 155.565 169.92 
L 156.2625 169.92 
L 156.96 169.92 
L 157.6575 169.92 
L 158.355 169.92 
L 159.0525 169.92 
L 159.75 169.92 
L 160.4475 169.92 
L 161.145 169.92 
L 161.8425 169.92 
L 162.54 169.92 
L 163.2375 169.92 
L 163.935 169.92 
L 164.6325 169.92 
L 165.33 169.92 
L 166.0275 169.92 
L 166.725 169.92 
L 167.4225 169.92 
L 168.12 169.92 
L 168.8175 169.92 
L 169.515 169.92 
L 170.2125 169.92 
L 170.91 169.92 
L 171.6075 169.92 
L 172.305 169.92 
L 173.0025 169.92 
L 173.7 169.92 
L 174.3975 169.92 
L 175.095 169.92 
L 175.7925 169.92 
L 176.49 169.92 
L 177.1875 169.92 
L 177.885 169.92 
L 178.5825 169.92 
L 179.28 169.92 
L 179.9775 169.92 
L 180.675 169.92 
L 181.3725 169.92 
L 182.07 169.92 
L 182.7675 169.92 
L 183.465 169.92 
L 184.1625 169.92 
L 184.86 169.92 
L 185.5575 169.92 
L 186.255 169.92 
L 186.9525 169.92 
L 187.65 169.92 
L 188.3475 169.92 
L 189.045 169.92 
L 189.7425 169.92 
L 190.44 169.92 
L 191.1375 169.92 
L 191.835 169.92 
L 192.5325 169.92 
L 193.23 169.92 
L 193.9275 169.92 
L 194.625 169.92 
L 195.3225 169.92 
L 196.02 169.92 
L 196.7175 169.92 
L 197.415 169.92 
L 198.1125 169.92 
L 198.81 169.92 
L 199.5075 169.92 
L 200.205 169.92 
L 200.9025 169.92 
L 201.6 169.92 
L 202.2975 169.92 
L 202.995 169.92 
L 203.6925 169.92 
L 204.39 169.92 
L 205.0875 169.92 
L 205.785 169.92 
L 206.4825 169.92 
L 207.18 169.92 
L 207.8775 169.92 
L 208.575 169.92 
L 209.2725 169.92 
L 209.97 169.92 
L 210.6675 169.92 
L 211.365 169.92 
L 212.0625 169.92 
L 212.76 169.92 
L 213.4575 169.92 
L 214.155 169.92 
L 214.8525 169.92 
L 215.55 169.92 
L 216.2475 169.92 
L 216.945 169.92 
L 217.6425 169.92 
L 218.34 169.92 
L 219.0375 169.92 
L 219.735 169.92 
L 220.4325 169.92 
L 221.13 169.92 
L 221.8275 169.92 
L 222.525 169.92 
L 223.2225 169.92 
L 223.92 169.92 
L 224.6175 169.92 
L 225.315 169.92 
L 226.0125 169.92 
L 226.71 169.92 
L 227.4075 169.92 
L 228.105 169.92 
L 228.8025 169.92 
L 229.5 169.92 
L 230.1975 169.92 
L 230.895 169.92 
L 231.5925 169.92 
L 232.29 169.92 
L 232.9875 169.92 
L 233.685 169.92 
L 234.3825 169.92 
L 235.08 169.92 
L 235.7775 169.92 
L 236.475 169.92 
L 237.1725 169.92 
L 237.87 169.92 
L 238.5675 169.92 
L 239.265 169.92 
L 239.9625 169.92 
L 240.66 169.92 
L 241.3575 169.92 
L 242.055 169.92 
L 242.7525 169.92 
L 243.45 169.92 
L 244.1475 169.92 
L 244.845 169.92 
L 245.5425 169.92 
L 246.24 169.92 
L 246.9375 169.92 
L 247.635 169.92 
L 248.3325 169.92 
L 249.03 169.92 
L 249.7275 169.92 
L 250.425 169.92 
L 251.1225 169.92 
L 251.82 169.92 
L 252.5175 169.92 
L 253.215 169.92 
L 253.9125 169.92 
L 254.61 169.92 
L 255.3075 169.92 
L 256.005 169.92 
L 256.7025 169.92 
L 257.4 169.92 
L 258.0975 169.92 
L 258.795 169.92 
L 259.4925 169.92 
L 260.19 169.92 
L 260.8875 169.92 
L 261.585 169.92 
L 262.2825 169.92 
L 262.98 169.92 
L 263.6775 169.92 
L 264.375 169.92 
L 265.0725 169.92 
L 265.77 169.92 
L 266.4675 169.92 
L 267.165 169.92 
L 267.8625 169.92 
L 268.56 169.92 
L 269.2575 169.92 
L 269.955 169.92 
L 270.6525 169.92 
L 271.35 169.92 
L 272.0475 169.92 
L 272.745 169.92 
L 273.4425 169.92 
L 274.14 169.92 
L 274.8375 169.92 
L 275.535 169.92 
L 276.2325 169.92 
L 276.93 169.92 
L 277.6275 169.92 
L 278.325 169.92 
L 279.0225 169.92 
L 279.72 169.92 
L 280.4175 169.92 
L 281.115 169.92 
L 281.8125 169.92 
L 282.51 169.92 
L 283.2075 169.92 
L 283.905 169.92 
L 284.6025 169.92 
L 285.3 169.92 
L 285.9975 169.92 
L 286.695 169.92 
L 287.3925 169.92 
L 288.09 169.92 
L 288.7875 169.92 
L 289.485 169.92 
L 290.1825 169.92 
L 290.88 169.92 
L 291.5775 169.92 
L 292.275 169.92 
L 292.9725 169.92 
L 293.67 169.92 
L 294.3675 169.92 
L 295.065 169.92 
L 295.7625 169.92 
L 296.46 169.92 
L 297.1575 169.92 
L 297.855 169.92 
L 298.5525 169.92 
L 299.25 169.92 
L 299.9475 169.92 
L 300.645 169.92 
L 301.3425 169.92 
L 302.04 169.92 
L 302.7375 169.92 
L 303.435 169.92 
L 304.1325 169.92 
L 304.83 169.92 
L 305.5275 169.92 
L 306.225 169.92 
L 306.9225 169.92 
L 307.62 169.92 
L 308.3175 169.92 
L 309.015 169.92 
L 309.7125 169.92 
L 310.41 169.92 
L 311.1075 169.92 
L 311.805 169.92 
L 312.5025 169.92 
L 313.2 169.92 
L 313.8975 169.92 
L 314.595 169.92 
L 315.2925 169.92 
L 315.99 169.92 
L 316.6875 169.92 
L 317.385 169.92 
L 318.0825 169.92 
L 318.78 169.92 
L 319.4775 169.92 
L 320.175 169.92 
L 320.8725 169.92 
L 321.57 169.92 
L 322.2675 169.92 
L 322.965 169.92 
L 323.6625 169.92 
L 324.36 169.92 
L 325.0575 169.92 
L 325.755 169.92 
L 326.4525 169.92 
L 327.15 169.92 
L 327.8475 169.92 
L 328.545 169.92 
L 329.2425 169.92 
L 329.94 169.92 
L 330.6375 169.92 
L 331.335 169.92 
L 332.0325 169.92 
L 332.73 169.92 
L 333.4275 169.92 
L 334.125 169.92 
L 334.8225 169.92 
L 335.52 169.92 
L 336.2175 169.92 
L 336.915 169.92 
L 337.6125 169.92 
L 338.31 169.92 
L 339.0075 169.92 
L 339.705 169.92 
L 340.4025 169.92 
L 341.1 169.92 
L 341.7975 169.92 
L 342.495 169.92 
L 343.1925 169.92 
L 343.89 169.92 
L 344.5875 169.92 
L 345.285 169.92 
L 345.9825 169.92 
L 346.68 169.92 
L 347.3775 169.92 
L 348.075 169.92 
L 348.7725 169.92 
L 349.47 169.92 
L 350.1675 169.92 
L 350.865 169.92 
L 351.5625 169.92 
L 352.26 169.92 
L 352.9575 169.92 
L 353.655 169.92 
L 354.3525 169.92 
L 355.05 169.92 
L 355.7475 169.92 
L 356.445 169.92 
L 357.1425 169.92 
L 357.84 169.92 
L 358.5375 169.92 
L 359.235 169.92 
L 359.9325 169.92 
L 360.63 169.92 
L 361.3275 169.92 
L 362.025 169.92 
L 362.7225 169.92 
L 363.42 169.92 
L 364.1175 169.92 
L 364.815 169.92 
L 365.5125 169.92 
L 366.21 169.92 
L 366.9075 169.92 
L 367.605 169.92 
L 368.3025 169.92 
L 369 169.92 
L 369.6975 169.92 
L 370.395 169.92 
L 371.0925 169.92 
L 371.79 169.92 
L 372.4875 169.92 
L 373.185 169.92 
L 373.8825 169.92 
L 374.58 169.92 
L 375.2775 169.92 
L 375.975 169.92 
L 376.6725 169.92 
L 377.37 169.92 
L 378.0675 169.92 
L 378.765 169.92 
L 379.4625 169.92 
L 380.16 169.92 
L 380.8575 169.92 
L 381.555 169.92 
L 382.2525 169.92 
L 382.95 169.92 
L 383.6475 169.92 
L 384.345 169.92 
L 385.0425 169.92 
L 385.74 169.92 
L 386.4375 169.92 
L 387.135 169.92 
L 387.8325 169.92 
L 388.53 169.92 
L 389.2275 169.92 
L 389.925 169.92 
L 390.6225 169.92 
L 391.32 169.92 
L 392.0175 169.92 
L 392.715 169.92 
L 393.4125 169.92 
L 394.11 169.92 
L 394.8075 169.92 
L 395.505 169.92 
L 396.2025 169.92 
L 396.9 169.92 
L 397.5975 169.92 
L 398.295 169.92 
L 398.9925 169.92 
L 399.69 169.92 
L 400.3875 169.92 
L 401.085 169.92 
L 401.7825 169.92 
L 402.48 169.92 
L 403.1775 169.92 
L 403.875 169.92 
L 404.5725 169.92 
L 405.27 169.92 
L 405.9675 169.92 
L 406.665 169.92 
L 407.3625 169.92 
L 408.06 169.92 
L 408.7575 169.92 
L 409.455 169.92 
L 410.1525 169.92 
L 410.85 169.92 
L 411.5475 169.92 
L 412.245 169.92 
L 412.9425 169.92 
L 413.64 169.92 
L 414.3375 169.92 
L 415.035 169.92 
L 415.7325 169.92 
L 416.43 169.92 
L 417.1275 169.92 
L 417.825 169.92 
L 418.5225 169.92 
L 419.22 169.92 
L 419.9175 169.92 
L 420.615 169.92 
L 421.3125 169.92 
L 422.01 169.92 
L 422.7075 169.92 
L 423.405 169.92 
L 424.1025 169.92 
L 424.8 169.92 
L 425.4975 169.92 
L 426.195 169.92 
L 426.8925 169.92 
L 427.59 169.92 
L 428.2875 169.92 
L 428.985 169.92 
L 429.6825 169.92 
L 430.38 169.92 
L 431.0775 169.92 
L 431.775 169.92 
L 432.4725 169.92 
L 433.17 169.92 
L 433.8675 169.92 
L 434.565 169.92 
L 435.2625 169.92 
L 435.96 169.92 
L 436.6575 169.92 
L 437.355 169.92 
L 438.0525 169.92 
L 438.75 169.92 
L 439.4475 169.92 
L 440.145 169.92 
L 440.8425 169.92 
L 441.54 169.92 
L 442.2375 169.92 
L 442.935 169.92 
L 443.6325 169.92 
L 444.33 169.92 
L 445.0275 169.92 
L 445.725 169.92 
L 446.4225 169.92 
L 447.12 169.92 
L 447.8175 169.92 
L 448.515 169.92 
L 449.2125 169.92 
L 449.91 169.92 
L 450.6075 169.92 
L 451.305 169.92 
L 452.0025 169.92 
L 452.7 169.92 
L 453.3975 169.92 
L 454.095 169.92 
L 454.7925 169.92 
L 455.49 169.92 
L 456.1875 169.92 
L 456.885 169.92 
L 457.5825 169.92 
L 458.28 169.92 
L 458.9775 169.92 
L 459.675 169.92 
L 460.3725 169.92 
L 461.07 169.92 
L 461.7675 169.92 
L 462.465 169.92 
L 463.1625 169.92 
L 463.86 169.92 
L 464.5575 169.92 
L 465.255 169.92 
L 465.9525 169.92 
L 466.65 169.92 
L 467.3475 169.92 
L 468.045 169.92 
L 468.7425 169.92 
L 469.44 169.92 
L 470.1375 169.92 
L 470.835 169.92 
L 471.5325 169.92 
L 472.23 169.92 
L 472.9275 169.92 
L 473.625 169.92 
L 474.3225 169.92 
L 475.02 169.92 
L 475.7175 169.92 
L 476.415 169.92 
L 477.1125 169.92 
L 477.81 169.92 
L 478.5075 169.92 
L 479.205 169.92 
L 479.9025 169.92 
L 480.6 169.92 
L 481.2975 169.92 
L 481.995 169.92 
L 482.6925 169.92 
L 483.39 169.92 
L 484.0875 169.92 
L 484.785 169.92 
L 485.4825 169.92 
L 486.18 169.92 
L 486.8775 169.92 
L 487.575 169.92 
L 488.2725 169.92 
L 488.97 169.92 
L 489.6675 169.92 
L 490.365 169.92 
L 491.0625 169.92 
L 491.76 169.92 
L 492.4575 169.92 
L 493.155 169.92 
L 493.8525 169.92 
L 494.55 169.92 
L 495.2475 169.92 
L 495.945 169.92 
L 496.6425 169.92 
L 497.34 169.92 
L 498.0375 169.92 
L 498.735 169.92 
L 499.4325 169.92 
L 500.13 169.92 
L 500.8275 169.92 
L 501.525 169.92 
L 502.2225 169.92 
L 502.92 169.92 
L 503.6175 169.92 
L 504.315 169.92 
L 505.0125 169.92 
L 505.71 169.92 
L 506.4075 169.92 
L 507.105 169.92 
L 507.8025 169.92 
L 508.5 169.92 
L 509.1975 169.92 
L 509.895 169.92 
L 510.5925 169.92 
L 511.29 169.92 
L 511.9875 169.92 
L 512.685 169.92 
L 513.3825 169.92 
L 514.08 169.92 
L 514.7775 169.92 
L 515.475 169.92 
L 516.1725 169.92 
L 516.87 169.92 
L 517.5675 169.92 
L 518.265 169.92 
L 518.9625 169.92 
L 519.66 169.92 
L 520.3575 169.92 
L 521.055 169.92 
L 521.7525 169.92 
L 522.45 169.92 
L 523.1475 169.92 
L 523.845 169.92 
L 524.5425 169.92 
L 525.24 169.92 
L 525.9375 169.92 
L 526.635 169.92 
L 527.3325 169.92 
L 528.03 169.92 
L 528.7275 169.92 
L 529.425 169.92 
L 530.1225 169.92 
L 530.82 169.92 
L 531.5175 169.92 
L 532.215 169.92 
L 532.9125 169.92 
L 533.61 169.92 
L 534.3075 169.92 
L 535.005 169.92 
L 535.7025 169.92 
L 536.4 169.92 
L 537.0975 169.92 
L 537.795 169.92 
L 538.4925 169.92 
L 539.19 169.92 
L 539.8875 169.92 
L 540.585 169.92 
L 541.2825 169.92 
L 541.98 169.92 
L 542.6775 169.92 
L 543.375 169.92 
L 544.0725 169.92 
L 544.77 169.92 
L 545.4675 169.92 
L 546.165 169.92 
L 546.8625 169.92 
L 547.56 169.92 
L 548.2575 169.92 
L 548.955 169.92 
L 549.6525 169.92 
L 550.35 169.92 
L 551.0475 169.92 
L 551.745 169.92 
L 552.4425 169.92 
L 553.14 169.92 
L 553.8375 169.92 
L 554.535 169.92 
L 555.2325 169.92 
L 555.93 169.92 
L 556.6275 169.92 
L 557.325 169.92 
L 558.0225 169.92 
L 558.72 169.92 
L 559.4175 169.92 
L 560.115 169.92 
L 560.8125 169.92 
L 561.51 169.92 
L 562.2075 169.92 
L 562.905 169.92 
L 563.6025 169.92 
L 564.3 169.92 
L 564.9975 169.92 
L 565.695 169.92 
L 566.3925 169.92 
L 567.09 169.92 
L 567.7875 169.92 
L 568.485 169.92 
L 569.1825 169.92 
L 569.88 169.92 
L 570.5775 169.92 
L 571.275 169.92 
L 571.9725 169.92 
L 572.67 169.92 
L 573.3675 169.92 
L 574.065 169.92 
L 574.7625 169.92 
L 575.46 169.92 
L 576.1575 169.92 
L 576.855 169.92 
L 577.5525 169.92 
L 578.25 169.92 
L 578.9475 169.92 
L 579.645 169.92 
L 580.3425 169.92 
L 581.04 169.92 
L 581.7375 169.92 
L 582.435 169.92 
L 583.1325 169.92 
L 583.83 169.92 
L 584.5275 169.92 
L 585.225 169.92 
L 585.9225 169.92 
L 586.62 169.92 
L 587.3175 169.92 
L 588.015 169.92 
L 588.7125 169.92 
L 589.41 169.92 
L 590.1075 169.92 
L 590.805 169.92 
L 591.5025 169.92 
L 592.2 169.92 
L 592.8975 169.92 
L 593.595 169.92 
L 594.2925 169.92 
L 594.99 169.92 
L 595.6875 169.92 
L 596.385 169.92 
L 597.0825 169.92 
L 597.78 169.92 
L 598.4775 169.92 
L 599.175 169.92 
L 599.8725 169.92 
L 600.57 169.92 
L 601.2675 169.92 
L 601.965 169.92 
L 602.6625 169.92 
L 603.36 169.92 
L 604.0575 169.92 
L 604.755 169.92 
L 605.4525 169.92 
L 606.15 169.92 
L 606.8475 169.92 
L 607.545 169.92 
L 608.2425 169.92 
L 608.94 169.92 
L 609.6375 169.92 
L 610.335 169.92 
L 611.0325 169.92 
L 611.73 169.92 
L 612.4275 169.92 
L 613.125 169.92 
L 613.8225 169.92 
L 614.52 169.92 
L 615.2175 169.92 
L 615.915 169.92 
L 616.6125 169.92 
L 617.31 169.92 
L 618.0075 169.92 
L 618.705 169.92 
L 619.4025 169.92 
L 620.1 169.92 
L 620.7975 169.92 
L 621.495 169.92 
L 622.1925 169.92 
L 622.89 169.92 
L 623.5875 169.92 
L 624.285 169.92 
L 624.9825 169.92 
L 625.68 169.92 
L 626.3775 169.92 
L 627.075 169.92 
L 627.7725 169.92 
L 628.47 169.92 
L 629.1675 169.92 
L 629.865 169.92 
L 630.5625 169.92 
L 631.26 169.92 
L 631.9575 169.92 
L 632.655 169.92 
L 633.3525 169.92 
L 634.05 169.92 
L 634.7475 169.92 
L 635.445 169.92 
L 636.1425 169.92 
L 636.84 169.92 
L 637.5375 169.92 
L 638.235 169.92 
L 638.9325 169.92 
L 639.63 169.92 
L 640.3275 169.92 
L 641.025 169.92 
L 641.7225 169.92 
L 642.42 169.92 
L 643.1175 169.92 
L 643.815 169.92 
L 644.5125 169.92 
L 645.21 169.92 
L 645.9075 169.92 
L 646.605 169.92 
L 646.605 169.92 
L 646.605 169.92 
L 645.9075 169.925717 
L 645.21 169.939081 
L 644.5125 169.961919 
L 643.815 169.995925 
L 643.1175 170.04264 
L 642.42 170.103428 
L 641.7225 170.179454 
L 641.025 170.27167 
L 640.3275 170.380792 
L 639.63 170.507293 
L 638.9325 170.651388 
L 638.235 170.813027 
L 637.5375 170.991891 
L 636.84 171.187389 
L 636.1425 171.398657 
L 635.445 171.624564 
L 634.7475 171.863719 
L 634.05 172.114478 
L 633.3525 172.374962 
L 632.655 172.643065 
L 631.9575 172.916481 
L 631.26 173.192716 
L 630.5625 173.469117 
L 629.865 173.742895 
L 629.1675 174.011152 
L 628.47 174.270911 
L 627.7725 174.519141 
L 627.075 174.752795 
L 626.3775 174.968836 
L 625.68 175.164273 
L 624.9825 175.33619 
L 624.285 175.481782 
L 623.5875 175.598381 
L 622.89 175.683494 
L 622.1925 175.734825 
L 621.495 175.75031 
L 620.7975 175.728139 
L 620.1 175.666781 
L 619.4025 175.565008 
L 618.705 175.421915 
L 618.0075 175.236932 
L 617.31 175.009846 
L 616.6125 174.740803 
L 615.915 174.430323 
L 615.2175 174.0793 
L 614.52 173.689005 
L 613.8225 173.261081 
L 613.125 172.79754 
L 612.4275 172.30075 
L 611.73 171.773424 
L 611.0325 171.218602 
L 610.335 170.639634 
L 609.6375 170.040153 
L 608.94 169.424052 
L 608.2425 168.795455 
L 607.545 168.158685 
L 606.8475 167.518231 
L 606.15 166.878712 
L 605.4525 166.244843 
L 604.755 165.621391 
L 604.0575 165.01314 
L 603.36 164.42485 
L 602.6625 163.861215 
L 601.965 163.326823 
L 601.2675 162.826115 
L 600.57 162.36335 
L 599.8725 161.942559 
L 599.175 161.567515 
L 598.4775 161.241695 
L 597.78 160.968246 
L 597.0825 160.749955 
L 596.385 160.589223 
L 595.6875 160.488038 
L 594.99 160.447955 
L 594.2925 160.470076 
L 593.595 160.555036 
L 592.8975 160.702992 
L 592.2 160.913619 
L 591.5025 161.186102 
L 590.805 161.519144 
L 590.1075 161.910964 
L 589.41 162.359312 
L 588.7125 162.861481 
L 588.015 163.414323 
L 587.3175 164.014273 
L 586.62 164.657373 
L 585.9225 165.339299 
L 585.225 166.055396 
L 584.5275 166.80071 
L 583.83 167.570026 
L 583.1325 168.357911 
L 582.435 169.158754 
L 581.7375 169.966808 
L 581.04 170.776239 
L 580.3425 171.581173 
L 579.645 172.375738 
L 578.9475 173.154117 
L 578.25 173.91059 
L 577.5525 174.639587 
L 576.855 175.335727 
L 576.1575 175.993867 
L 575.46 176.609143 
L 574.7625 177.177008 
L 574.065 177.693276 
L 573.3675 178.154149 
L 572.67 178.556258 
L 571.9725 178.896685 
L 571.275 179.172989 
L 570.5775 179.38323 
L 569.88 179.525982 
L 569.1825 179.600352 
L 568.485 179.605978 
L 567.7875 179.543045 
L 567.09 179.412275 
L 566.3925 179.214925 
L 565.695 178.95278 
L 564.9975 178.628134 
L 564.3 178.243776 
L 563.6025 177.802963 
L 562.905 177.309398 
L 562.2075 176.767197 
L 561.51 176.180854 
L 560.8125 175.555206 
L 560.115 174.895392 
L 559.4175 174.206812 
L 558.72 173.495078 
L 558.0225 172.765969 
L 557.325 172.025385 
L 556.6275 171.279296 
L 555.93 170.533688 
L 555.2325 169.794521 
L 554.535 169.06767 
L 553.8375 168.358882 
L 553.14 167.673726 
L 552.4425 167.017545 
L 551.745 166.39541 
L 551.0475 165.812082 
L 550.35 165.271967 
L 549.6525 164.779084 
L 548.955 164.337024 
L 548.2575 163.94893 
L 547.56 163.617462 
L 546.8625 163.344781 
L 546.165 163.132527 
L 545.4675 162.981809 
L 544.77 162.893197 
L 544.0725 162.866715 
L 543.375 162.901844 
L 542.6775 162.99753 
L 541.98 163.152189 
L 541.2825 163.363725 
L 540.585 163.629553 
L 539.8875 163.946614 
L 539.19 164.311414 
L 538.4925 164.720044 
L 537.795 165.168227 
L 537.0975 165.651347 
L 536.4 166.164497 
L 535.7025 166.702522 
L 535.005 167.260062 
L 534.3075 167.831606 
L 533.61 168.411537 
L 532.9125 168.994185 
L 532.215 169.57388 
L 531.5175 170.144998 
L 530.82 170.702017 
L 530.1225 171.239565 
L 529.425 171.752468 
L 528.7275 172.235801 
L 528.03 172.684926 
L 527.3325 173.095542 
L 526.635 173.463719 
L 525.9375 173.785938 
L 525.24 174.059121 
L 524.5425 174.28066 
L 523.845 174.448445 
L 523.1475 174.560878 
L 522.45 174.616894 
L 521.7525 174.615971 
L 521.055 174.558133 
L 520.3575 174.443954 
L 519.66 174.274555 
L 518.9625 174.05159 
L 518.265 173.777238 
L 517.5675 173.454185 
L 516.87 173.085595 
L 516.1725 172.675087 
L 515.475 172.226706 
L 514.7775 171.74488 
L 514.08 171.234389 
L 513.3825 170.700316 
L 512.685 170.148006 
L 511.9875 169.583017 
L 511.29 169.011068 
L 510.5925 168.437991 
L 509.895 167.869674 
L 509.1975 167.31201 
L 508.5 166.770843 
L 507.8025 166.251914 
L 507.105 165.760803 
L 506.4075 165.302887 
L 505.71 164.883278 
L 505.0125 164.506783 
L 504.315 164.177855 
L 503.6175 163.900548 
L 502.92 163.678479 
L 502.2225 163.514793 
L 501.525 163.412128 
L 500.8275 163.372588 
L 500.13 163.39772 
L 499.4325 163.488495 
L 498.735 163.645294 
L 498.0375 163.867899 
L 497.34 164.155491 
L 496.6425 164.50665 
L 495.945 164.919363 
L 495.2475 165.391038 
L 494.55 165.918517 
L 493.8525 166.498103 
L 493.155 167.125585 
L 492.4575 167.796271 
L 491.76 168.505023 
L 491.0625 169.246301 
L 490.365 170.014202 
L 489.6675 170.802513 
L 488.97 171.604759 
L 488.2725 172.414257 
L 487.575 173.224171 
L 486.8775 174.02757 
L 486.18 174.817487 
L 485.4825 175.586978 
L 484.785 176.329179 
L 484.0875 177.037368 
L 483.39 177.705025 
L 482.6925 178.325884 
L 481.995 178.893992 
L 481.2975 179.403761 
L 480.6 179.850019 
L 479.9025 180.228055 
L 479.205 180.533668 
L 478.5075 180.763199 
L 477.81 180.913574 
L 477.1125 180.982327 
L 476.415 180.967633 
L 475.7175 180.868326 
L 475.02 180.683911 
L 474.3225 180.414578 
L 473.625 180.061206 
L 472.9275 179.625359 
L 472.23 179.10928 
L 471.5325 178.515879 
L 470.835 177.848712 
L 470.1375 177.111961 
L 469.44 176.310402 
L 468.7425 175.449372 
L 468.045 174.534727 
L 467.3475 173.572805 
L 466.65 172.570371 
L 465.9525 171.534571 
L 465.255 170.472875 
L 464.5575 169.393019 
L 463.86 168.302946 
L 463.1625 167.210743 
L 462.465 166.12458 
L 461.7675 165.052639 
L 461.07 164.003058 
L 460.3725 162.98386 
L 459.675 162.002891 
L 458.9775 161.067755 
L 458.28 160.185757 
L 457.5825 159.36384 
L 456.885 158.60853 
L 456.1875 157.925884 
L 455.49 157.321436 
L 454.7925 156.800158 
L 454.095 156.366413 
L 453.3975 156.023923 
L 452.7 155.775734 
L 452.0025 155.624191 
L 451.305 155.570918 
L 450.6075 155.616803 
L 449.91 155.761989 
L 449.2125 156.00587 
L 448.515 156.347095 
L 447.8175 156.783575 
L 447.12 157.312499 
L 446.4225 157.930356 
L 445.725 158.632958 
L 445.0275 159.41547 
L 444.33 160.272454 
L 443.6325 161.197902 
L 442.935 162.185285 
L 442.2375 163.227604 
L 441.54 164.317445 
L 440.8425 165.447031 
L 440.145 166.608287 
L 439.4475 167.7929 
L 438.75 168.992383 
L 438.0525 170.19814 
L 437.355 171.401536 
L 436.6575 172.593959 
L 435.96 173.766887 
L 435.2625 174.911956 
L 434.565 176.021024 
L 433.8675 177.086229 
L 433.17 178.100054 
L 432.4725 179.055382 
L 431.775 179.945551 
L 431.0775 180.7644 
L 430.38 181.506322 
L 429.6825 182.166301 
L 428.985 182.739949 
L 428.2875 183.223539 
L 427.59 183.614031 
L 426.8925 183.909092 
L 426.195 184.107114 
L 425.4975 184.207219 
L 424.8 184.209267 
L 424.1025 184.113851 
L 423.405 183.92229 
L 422.7075 183.636614 
L 422.01 183.259548 
L 421.3125 182.794482 
L 420.615 182.245445 
L 419.9175 181.617068 
L 419.22 180.914547 
L 418.5225 180.143595 
L 417.825 179.310398 
L 417.1275 178.421562 
L 416.43 177.484059 
L 415.7325 176.50517 
L 415.035 175.492425 
L 414.3375 174.453545 
L 413.64 173.396377 
L 412.9425 172.328832 
L 412.245 171.258825 
L 411.5475 170.19421 
L 410.85 169.142718 
L 410.1525 168.111903 
L 409.455 167.109074 
L 408.7575 166.141248 
L 408.06 165.215096 
L 407.3625 164.336886 
L 406.665 163.512448 
L 405.9675 162.747123 
L 405.27 162.045729 
L 404.5725 161.412527 
L 403.875 160.851194 
L 403.1775 160.364798 
L 402.48 159.955779 
L 401.7825 159.625938 
L 401.085 159.376431 
L 400.3875 159.207761 
L 399.69 159.119787 
L 398.9925 159.11173 
L 398.295 159.182187 
L 397.5975 159.32915 
L 396.9 159.550028 
L 396.2025 159.84168 
L 395.505 160.200442 
L 394.8075 160.622165 
L 394.11 161.102259 
L 393.4125 161.635732 
L 392.715 162.217239 
L 392.0175 162.84113 
L 391.32 163.501502 
L 390.6225 164.192251 
L 389.925 164.907128 
L 389.2275 165.63979 
L 388.53 166.383857 
L 387.8325 167.132968 
L 387.135 167.880831 
L 386.4375 168.621281 
L 385.74 169.348326 
L 385.0425 170.056198 
L 384.345 170.7394 
L 383.6475 171.392752 
L 382.95 172.011424 
L 382.2525 172.590983 
L 381.555 173.127419 
L 380.8575 173.617178 
L 380.16 174.057183 
L 379.4625 174.44486 
L 378.765 174.778148 
L 378.0675 175.055516 
L 377.37 175.275963 
L 376.6725 175.439024 
L 375.975 175.544768 
L 375.2775 175.593784 
L 374.58 175.587175 
L 373.8825 175.526537 
L 373.185 175.413939 
L 372.4875 175.251901 
L 371.79 175.043357 
L 371.0925 174.791633 
L 370.395 174.500402 
L 369.6975 174.173651 
L 369 173.81564 
L 368.3025 173.430856 
L 367.605 173.02397 
L 366.9075 172.599792 
L 366.21 172.163222 
L 365.5125 171.719206 
L 364.815 171.272686 
L 364.1175 170.828553 
L 363.42 170.391603 
L 362.7225 169.966492 
L 362.025 169.557693 
L 361.3275 169.169454 
L 360.63 168.80576 
L 359.9325 168.470298 
L 359.235 168.166423 
L 358.5375 167.89713 
L 357.84 167.665026 
L 357.1425 167.47231 
L 356.445 167.320753 
L 355.7475 167.211687 
L 355.05 167.145992 
L 354.3525 167.12409 
L 353.655 167.145947 
L 352.9575 167.211074 
L 352.26 167.318535 
L 351.5625 167.466955 
L 350.865 167.654543 
L 350.1675 167.879103 
L 349.47 168.138062 
L 348.7725 168.428495 
L 348.075 168.747154 
L 347.3775 169.090501 
L 346.68 169.454746 
L 345.9825 169.835877 
L 345.285 170.229707 
L 344.5875 170.631912 
L 343.89 171.038071 
L 343.1925 171.443711 
L 342.495 171.84435 
L 341.7975 172.235538 
L 341.1 172.612904 
L 340.4025 172.972192 
L 339.705 173.309309 
L 339.0075 173.620356 
L 338.31 173.901673 
L 337.6125 174.149868 
L 336.915 174.361852 
L 336.2175 174.53487 
L 335.52 174.666525 
L 334.8225 174.754804 
L 334.125 174.798092 
L 333.4275 174.795196 
L 332.73 174.745351 
L 332.0325 174.64823 
L 331.335 174.503949 
L 330.6375 174.313065 
L 329.94 174.076576 
L 329.2425 173.795906 
L 328.545 173.472902 
L 327.8475 173.10981 
L 327.15 172.709262 
L 326.4525 172.274249 
L 325.755 171.808098 
L 325.0575 171.314442 
L 324.36 170.797184 
L 323.6625 170.260471 
L 322.965 169.708651 
L 322.2675 169.146236 
L 321.57 168.577864 
L 320.8725 168.008257 
L 320.175 167.442181 
L 319.4775 166.884401 
L 318.78 166.339641 
L 318.0825 165.812543 
L 317.385 165.307626 
L 316.6875 164.829245 
L 315.99 164.381553 
L 315.2925 163.968467 
L 314.595 163.593631 
L 313.8975 163.260386 
L 313.2 162.971738 
L 312.5025 162.730336 
L 311.805 162.538446 
L 311.1075 162.397932 
L 310.41 162.31024 
L 309.7125 162.276386 
L 309.015 162.296948 
L 308.3175 162.372057 
L 307.62 162.501404 
L 306.9225 162.684234 
L 306.225 162.919359 
L 305.5275 163.205167 
L 304.83 163.539634 
L 304.1325 163.920347 
L 303.435 164.344517 
L 302.7375 164.809012 
L 302.04 165.310377 
L 301.3425 165.844868 
L 300.645 166.408484 
L 299.9475 166.996998 
L 299.25 167.605998 
L 298.5525 168.230921 
L 297.855 168.867093 
L 297.1575 169.509769 
L 296.46 170.15417 
L 295.7625 170.795529 
L 295.065 171.429125 
L 294.3675 172.050325 
L 293.67 172.654621 
L 292.9725 173.237667 
L 292.275 173.795317 
L 291.5775 174.323652 
L 290.88 174.819017 
L 290.1825 175.278049 
L 289.485 175.6977 
L 288.7875 176.07526 
L 288.09 176.40838 
L 287.3925 176.695087 
L 286.695 176.933796 
L 285.9975 177.123321 
L 285.3 177.26288 
L 284.6025 177.352099 
L 283.905 177.391011 
L 283.2075 177.380047 
L 282.51 177.320035 
L 281.8125 177.212183 
L 281.115 177.058065 
L 280.4175 176.859605 
L 279.72 176.619055 
L 279.0225 176.338972 
L 278.325 176.022189 
L 277.6275 175.671792 
L 276.93 175.291085 
L 276.2325 174.883561 
L 275.535 174.452868 
L 274.8375 174.002771 
L 274.14 173.537126 
L 273.4425 173.059835 
L 272.745 172.574817 
L 272.0475 172.085968 
L 271.35 171.597131 
L 270.6525 171.11206 
L 269.955 170.634387 
L 269.2575 170.167593 
L 268.56 169.714977 
L 267.8625 169.279631 
L 267.165 168.864413 
L 266.4675 168.471926 
L 265.77 168.104497 
L 265.0725 167.764166 
L 264.375 167.452662 
L 263.6775 167.171402 
L 262.98 166.921479 
L 262.2825 166.703659 
L 261.585 166.51838 
L 260.8875 166.365752 
L 260.19 166.245566 
L 259.4925 166.157303 
L 258.795 166.100141 
L 258.0975 166.072973 
L 257.4 166.074423 
L 256.7025 166.102868 
L 256.005 166.156455 
L 255.3075 166.23313 
L 254.61 166.330662 
L 253.9125 166.446668 
L 253.215 166.578647 
L 252.5175 166.724005 
L 251.82 166.880087 
L 251.1225 167.044206 
L 250.425 167.213679 
L 249.7275 167.38585 
L 249.03 167.558126 
L 248.3325 167.728003 
L 247.635 167.893093 
L 246.9375 168.051154 
L 246.24 168.200111 
L 245.5425 168.33808 
L 244.845 168.463391 
L 244.1475 168.574602 
L 243.45 168.670516 
L 242.7525 168.750194 
L 242.055 168.812967 
L 241.3575 168.85844 
L 240.66 168.886495 
L 239.9625 168.897297 
L 239.265 168.891285 
L 238.5675 168.869174 
L 237.87 168.831937 
L 237.1725 168.780805 
L 236.475 168.717242 
L 235.7775 168.642936 
L 235.08 168.559775 
L 234.3825 168.469828 
L 233.685 168.375316 
L 232.9875 168.278595 
L 232.29 168.182119 
L 231.5925 168.088418 
L 230.895 168.000062 
L 230.1975 167.919638 
L 229.5 167.84971 
L 228.8025 167.792796 
L 228.105 167.751329 
L 227.4075 167.727634 
L 226.71 167.723892 
L 226.0125 167.742113 
L 225.315 167.784112 
L 224.6175 167.851477 
L 223.92 167.945552 
L 223.2225 168.067411 
L 222.525 168.217842 
L 221.8275 168.397329 
L 221.13 168.60604 
L 220.4325 168.843815 
L 219.735 169.11016 
L 219.0375 169.404247 
L 218.34 169.724906 
L 217.6425 170.070634 
L 216.945 170.439602 
L 216.2475 170.82966 
L 215.55 171.238354 
L 214.8525 171.662944 
L 214.155 172.100419 
L 213.4575 172.547524 
L 212.76 173.000785 
L 212.0625 173.456534 
L 211.365 173.910944 
L 210.6675 174.360059 
L 209.97 174.79983 
L 209.2725 175.22615 
L 208.575 175.63489 
L 207.8775 176.021943 
L 207.18 176.383255 
L 206.4825 176.71487 
L 205.785 177.012964 
L 205.0875 177.273887 
L 204.39 177.4942 
L 203.6925 177.670707 
L 202.995 177.800494 
L 202.2975 177.88096 
L 201.6 177.909847 
L 200.9025 177.885265 
L 200.205 177.805721 
L 199.5075 177.670141 
L 198.81 177.477882 
L 198.1125 177.228754 
L 197.415 176.923027 
L 196.7175 176.561438 
L 196.02 176.145196 
L 195.3225 175.675979 
L 194.625 175.155931 
L 193.9275 174.587651 
L 193.23 173.974181 
L 192.5325 173.318987 
L 191.835 172.625938 
L 191.1375 171.899283 
L 190.44 171.14362 
L 189.7425 170.363865 
L 189.045 169.565215 
L 188.3475 168.753114 
L 187.65 167.933207 
L 186.9525 167.111302 
L 186.255 166.29332 
L 185.5575 165.485254 
L 184.86 164.693116 
L 184.1625 163.922894 
L 183.465 163.180496 
L 182.7675 162.471712 
L 182.07 161.802153 
L 181.3725 161.177215 
L 180.675 160.602026 
L 179.9775 160.081402 
L 179.28 159.61981 
L 178.5825 159.221322 
L 177.885 158.88958 
L 177.1875 158.627765 
L 176.49 158.438562 
L 175.7925 158.324138 
L 175.095 158.286115 
L 174.3975 158.325556 
L 173.7 158.442947 
L 173.0025 158.638191 
L 172.305 158.910601 
L 171.6075 159.258903 
L 170.91 159.681238 
L 170.2125 160.175172 
L 169.515 160.737714 
L 168.8175 161.36533 
L 168.12 162.053971 
L 167.4225 162.799099 
L 166.725 163.59572 
L 166.0275 164.438419 
L 165.33 165.321402 
L 164.6325 166.238537 
L 163.935 167.1834 
L 163.2375 168.149328 
L 162.54 169.129463 
L 161.8425 170.116811 
L 161.145 171.104292 
L 160.4475 172.084799 
L 159.75 173.05125 
L 159.0525 173.996647 
L 158.355 174.914128 
L 157.6575 175.797026 
L 156.96 176.638915 
L 156.2625 177.433671 
L 155.565 178.175511 
L 154.8675 178.859049 
L 154.17 179.47933 
L 153.4725 180.031879 
L 152.775 180.512731 
L 152.0775 180.918467 
L 151.38 181.246239 
L 150.6825 181.493798 
L 149.985 181.659506 
L 149.2875 181.742356 
L 148.59 181.741978 
L 147.8925 181.658639 
L 147.195 181.49325 
L 146.4975 181.247348 
L 145.8 180.923094 
L 145.1025 180.523249 
L 144.405 180.051155 
L 143.7075 179.510707 
L 143.01 178.906321 
L 142.3125 178.2429 
L 141.615 177.525793 
L 140.9175 176.760752 
L 140.22 175.953885 
L 139.5225 175.111607 
L 138.825 174.240587 
L 138.1275 173.347692 
L 137.43 172.439936 
L 136.7325 171.524418 
L 136.035 170.608265 
L 135.3375 169.698578 
L 134.64 168.802369 
L 133.9425 167.926505 
L 133.245 167.077656 
L 132.5475 166.262237 
L 131.85 165.486356 
L 131.1525 164.755768 
L 130.455 164.075824 
L 129.7575 163.451433 
L 129.06 162.887019 
L 128.3625 162.386486 
L 127.665 161.953192 
L 126.9675 161.589917 
L 126.27 161.298843 
L 125.5725 161.081542 
L 124.875 160.93896 
L 124.1775 160.871414 
L 123.48 160.878592 
L 122.7825 160.959555 
L 122.085 161.11275 
L 121.3875 161.336027 
L 120.69 161.626653 
L 119.9925 161.981345 
L 119.295 162.396295 
L 118.5975 162.867206 
L 117.9 163.389331 
L 117.2025 163.957516 
L 116.505 164.566242 
L 115.8075 165.209681 
L 115.11 165.881739 
L 114.4125 166.576115 
L 113.715 167.286357 
L 113.0175 168.005915 
L 112.32 168.728198 
L 111.6225 169.446637 
L 110.925 170.154737 
L 110.2275 170.846134 
L 109.53 171.514655 
L 108.8325 172.154366 
L 108.135 172.759626 
L 107.4375 173.325137 
L 106.74 173.845987 
L 106.0425 174.317695 
L 105.345 174.736249 
L 104.6475 175.098139 
L 103.95 175.400391 
L 103.2525 175.640587 
L 102.555 175.81689 
L 101.8575 175.928056 
L 101.16 175.973449 
L 100.4625 175.953039 
L 99.765 175.867409 
L 99.0675 175.717743 
L 98.37 175.505819 
L 97.6725 175.233989 
L 96.975 174.905162 
L 96.2775 174.522774 
L 95.58 174.09076 
L 94.8825 173.613514 
L 94.185 173.095856 
L 93.4875 172.542983 
L 92.79 171.960425 
L 92.0925 171.353997 
L 91.395 170.729743 
L 90.6975 170.093884 
L 90 169.452762 
z
" style="fill:#e0ffff;"/>
   </g>
   <g id="line2d_19">
    <path clip-path="url(#pe4f6cfcef3)" d="M 90 169.452762 
L 93.4875 172.542983 
L 95.58 174.09076 
L 96.975 174.905162 
L 98.37 175.505819 
L 99.765 175.867409 
L 101.16 175.973449 
L 102.555 175.81689 
L 103.95 175.400391 
L 105.345 174.736249 
L 106.74 173.845987 
L 108.8325 172.154366 
L 111.6225 169.446637 
L 116.505 164.566242 
L 118.5975 162.867206 
L 119.9925 161.981345 
L 121.3875 161.336027 
L 122.7825 160.959555 
L 124.1775 160.871414 
L 125.5725 161.081542 
L 126.9675 161.589917 
L 128.3625 162.386486 
L 129.7575 163.451433 
L 131.1525 164.755768 
L 133.245 167.077656 
L 136.035 170.608265 
L 140.22 175.953885 
L 142.3125 178.2429 
L 143.7075 179.510707 
L 145.1025 180.523249 
L 146.4975 181.247348 
L 147.8925 181.658639 
L 149.2875 181.742356 
L 150.6825 181.493798 
L 152.0775 180.918467 
L 153.4725 180.031879 
L 154.8675 178.859049 
L 156.2625 177.433671 
L 158.355 174.914128 
L 161.145 171.104292 
L 165.33 165.321402 
L 167.4225 162.799099 
L 168.8175 161.36533 
L 170.2125 160.175172 
L 171.6075 159.258903 
L 173.0025 158.638191 
L 174.3975 158.325556 
L 175.7925 158.324138 
L 177.1875 158.627765 
L 178.5825 159.221322 
L 179.9775 160.081402 
L 181.3725 161.177215 
L 183.465 163.180496 
L 186.255 166.29332 
L 191.1375 171.899283 
L 193.23 173.974181 
L 195.3225 175.675979 
L 196.7175 176.561438 
L 198.1125 177.228754 
L 199.5075 177.670141 
L 200.9025 177.885265 
L 202.2975 177.88096 
L 203.6925 177.670707 
L 205.0875 177.273887 
L 207.18 176.383255 
L 209.2725 175.22615 
L 213.4575 172.547524 
L 216.945 170.439602 
L 219.0375 169.404247 
L 221.13 168.60604 
L 223.2225 168.067411 
L 225.315 167.784112 
L 227.4075 167.727634 
L 230.1975 167.919638 
L 239.265 168.891285 
L 242.055 168.812967 
L 244.845 168.463391 
L 248.3325 167.728003 
L 253.9125 166.446668 
L 256.005 166.156455 
L 258.0975 166.072973 
L 260.19 166.245566 
L 262.2825 166.703659 
L 264.375 167.452662 
L 266.4675 168.471926 
L 269.2575 170.167593 
L 277.6275 175.671792 
L 279.72 176.619055 
L 281.115 177.058065 
L 282.51 177.320035 
L 283.905 177.391011 
L 285.3 177.26288 
L 286.695 176.933796 
L 288.09 176.40838 
L 289.485 175.6977 
L 291.5775 174.323652 
L 293.67 172.654621 
L 297.1575 169.509769 
L 300.645 166.408484 
L 302.7375 164.809012 
L 304.83 163.539634 
L 306.225 162.919359 
L 307.62 162.501404 
L 309.015 162.296948 
L 310.41 162.31024 
L 311.805 162.538446 
L 313.2 162.971738 
L 314.595 163.593631 
L 316.6875 164.829245 
L 318.78 166.339641 
L 326.4525 172.274249 
L 328.545 173.472902 
L 329.94 174.076576 
L 331.335 174.503949 
L 332.73 174.745351 
L 334.125 174.798092 
L 335.52 174.666525 
L 336.915 174.361852 
L 339.0075 173.620356 
L 341.1 172.612904 
L 345.285 170.229707 
L 348.075 168.747154 
L 350.1675 167.879103 
L 352.26 167.318535 
L 353.655 167.145947 
L 355.05 167.145992 
L 356.445 167.320753 
L 357.84 167.665026 
L 359.9325 168.470298 
L 362.025 169.557693 
L 365.5125 171.719206 
L 369 173.81564 
L 371.0925 174.791633 
L 372.4875 175.251901 
L 373.8825 175.526537 
L 375.2775 175.593784 
L 376.6725 175.439024 
L 378.0675 175.055516 
L 379.4625 174.44486 
L 380.8575 173.617178 
L 382.2525 172.590983 
L 384.345 170.7394 
L 387.135 167.880831 
L 391.32 163.501502 
L 393.4125 161.635732 
L 394.8075 160.622165 
L 396.2025 159.84168 
L 397.5975 159.32915 
L 398.9925 159.11173 
L 400.3875 159.207761 
L 401.7825 159.625938 
L 403.1775 160.364798 
L 404.5725 161.412527 
L 405.9675 162.747123 
L 407.3625 164.336886 
L 409.455 167.109074 
L 412.245 171.258825 
L 416.43 177.484059 
L 418.5225 180.143595 
L 419.9175 181.617068 
L 421.3125 182.794482 
L 422.7075 183.636614 
L 424.1025 184.113851 
L 425.4975 184.207219 
L 426.8925 183.909092 
L 428.2875 183.223539 
L 429.6825 182.166301 
L 431.0775 180.7644 
L 432.4725 179.055382 
L 434.565 176.021024 
L 437.355 171.401536 
L 441.54 164.317445 
L 443.6325 161.197902 
L 445.0275 159.41547 
L 446.4225 157.930356 
L 447.8175 156.783575 
L 449.2125 156.00587 
L 450.6075 155.616803 
L 452.0025 155.624191 
L 453.3975 156.023923 
L 454.7925 156.800158 
L 456.1875 157.925884 
L 457.5825 159.36384 
L 458.9775 161.067755 
L 461.07 164.003058 
L 468.7425 175.449372 
L 470.1375 177.111961 
L 471.5325 178.515879 
L 472.9275 179.625359 
L 474.3225 180.414578 
L 475.7175 180.868326 
L 477.1125 180.982327 
L 478.5075 180.763199 
L 479.9025 180.228055 
L 481.2975 179.403761 
L 482.6925 178.325884 
L 484.785 176.329179 
L 487.575 173.224171 
L 491.76 168.505023 
L 493.8525 166.498103 
L 495.2475 165.391038 
L 496.6425 164.50665 
L 498.0375 163.867899 
L 499.4325 163.488495 
L 500.8275 163.372588 
L 502.2225 163.514793 
L 503.6175 163.900548 
L 505.0125 164.506783 
L 507.105 165.760803 
L 509.1975 167.31201 
L 515.475 172.226706 
L 517.5675 173.454185 
L 518.9625 174.05159 
L 520.3575 174.443954 
L 521.7525 174.615971 
L 523.1475 174.560878 
L 524.5425 174.28066 
L 525.9375 173.785938 
L 527.3325 173.095542 
L 529.425 171.752468 
L 532.215 169.57388 
L 537.0975 165.651347 
L 539.19 164.311414 
L 540.585 163.629553 
L 541.98 163.152189 
L 543.375 162.901844 
L 544.77 162.893197 
L 546.165 163.132527 
L 547.56 163.617462 
L 548.955 164.337024 
L 550.35 165.271967 
L 552.4425 167.017545 
L 555.2325 169.794521 
L 560.8125 175.555206 
L 562.905 177.309398 
L 564.3 178.243776 
L 565.695 178.95278 
L 567.09 179.412275 
L 568.485 179.605978 
L 569.88 179.525982 
L 571.275 179.172989 
L 572.67 178.556258 
L 574.065 177.693276 
L 575.46 176.609143 
L 577.5525 174.639587 
L 580.3425 171.581173 
L 585.225 166.055396 
L 587.3175 164.014273 
L 589.41 162.359312 
L 590.805 161.519144 
L 592.2 160.913619 
L 593.595 160.555036 
L 594.99 160.447955 
L 596.385 160.589223 
L 597.78 160.968246 
L 599.175 161.567515 
L 600.57 162.36335 
L 602.6625 163.861215 
L 605.4525 166.244843 
L 611.0325 171.218602 
L 613.125 172.79754 
L 615.2175 174.0793 
L 617.31 175.009846 
L 618.705 175.421915 
L 620.1 175.666781 
L 621.495 175.75031 
L 623.5875 175.598381 
L 625.68 175.164273 
L 628.47 174.270911 
L 637.5375 170.991891 
L 640.3275 170.380792 
L 643.1175 170.04264 
L 646.605 169.92 
L 646.605 169.92 
" style="fill:none;stroke:#008080;stroke-linecap:round;stroke-width:1.75;"/>
   </g>
   <g id="patch_3">
    <path d="M 90 270.72 
L 90 69.12 
" style="fill:none;stroke:#262626;stroke-linecap:square;stroke-linejoin:miter;stroke-width:1.25;"/>
   </g>
   <g id="patch_4">
    <path d="M 90 270.72 
L 648 270.72 
" style="fill:none;stroke:#262626;stroke-linecap:square;stroke-linejoin:miter;stroke-width:1.25;"/>
   </g>
  </g>
  <g id="axes_2">
   <g id="patch_5">
    <path d="M 90 512.64 
L 648 512.64 
L 648 311.04 
L 90 311.04 
z
" style="fill:#ffffff;"/>
   </g>
   <g id="matplotlib.axis_3">
    <g id="xtick_10">
     <g id="line2d_20">
      <g>
       <use style="fill:#262626;stroke:#262626;" x="191.454545" xlink:href="#m253f7648c3" y="512.64"/>
      </g>
     </g>
     <g id="text_19">
      <!-- 200 -->
      <g style="fill:#262626;" transform="translate(183.113139 532.797812)scale(0.1 -0.1)">
       <use xlink:href="#ArialMT-32"/>
       <use x="55.615234" xlink:href="#ArialMT-30"/>
       <use x="111.230469" xlink:href="#ArialMT-30"/>
      </g>
     </g>
    </g>
    <g id="xtick_11">
     <g id="line2d_21">
      <g>
       <use style="fill:#262626;stroke:#262626;" x="304.181818" xlink:href="#m253f7648c3" y="512.64"/>
      </g>
     </g>
     <g id="text_20">
      <!-- 400 -->
      <g style="fill:#262626;" transform="translate(295.840412 532.797812)scale(0.1 -0.1)">
       <use xlink:href="#ArialMT-34"/>
       <use x="55.615234" xlink:href="#ArialMT-30"/>
       <use x="111.230469" xlink:href="#ArialMT-30"/>
      </g>
     </g>
    </g>
    <g id="xtick_12">
     <g id="line2d_22">
      <g>
       <use style="fill:#262626;stroke:#262626;" x="416.909091" xlink:href="#m253f7648c3" y="512.64"/>
      </g>
     </g>
     <g id="text_21">
      <!-- 600 -->
      <g style="fill:#262626;" transform="translate(408.567685 532.797812)scale(0.1 -0.1)">
       <use xlink:href="#ArialMT-36"/>
       <use x="55.615234" xlink:href="#ArialMT-30"/>
       <use x="111.230469" xlink:href="#ArialMT-30"/>
      </g>
     </g>
    </g>
    <g id="xtick_13">
     <g id="line2d_23">
      <g>
       <use style="fill:#262626;stroke:#262626;" x="529.636364" xlink:href="#m253f7648c3" y="512.64"/>
      </g>
     </g>
     <g id="text_22">
      <!-- 800 -->
      <g style="fill:#262626;" transform="translate(521.294957 532.797812)scale(0.1 -0.1)">
       <use xlink:href="#ArialMT-38"/>
       <use x="55.615234" xlink:href="#ArialMT-30"/>
       <use x="111.230469" xlink:href="#ArialMT-30"/>
      </g>
     </g>
    </g>
    <g id="xtick_14">
     <g id="line2d_24">
      <g>
       <use style="fill:#262626;stroke:#262626;" x="642.363636" xlink:href="#m253f7648c3" y="512.64"/>
      </g>
     </g>
     <g id="text_23">
      <!-- 1000 -->
      <g style="fill:#262626;" transform="translate(631.241761 532.797812)scale(0.1 -0.1)">
       <use xlink:href="#ArialMT-31"/>
       <use x="55.615234" xlink:href="#ArialMT-30"/>
       <use x="111.230469" xlink:href="#ArialMT-30"/>
       <use x="166.845703" xlink:href="#ArialMT-30"/>
      </g>
     </g>
    </g>
   </g>
   <g id="matplotlib.axis_4">
    <g id="ytick_10">
     <g id="line2d_25">
      <g>
       <use style="fill:#262626;stroke:#262626;" x="90" xlink:href="#m78f39672c7" y="512.64"/>
      </g>
     </g>
     <g id="text_24">
      <!-- 0 -->
      <g style="fill:#262626;" transform="translate(71.439063 516.218906)scale(0.1 -0.1)">
       <use xlink:href="#ArialMT-30"/>
      </g>
     </g>
    </g>
    <g id="ytick_11">
     <g id="line2d_26">
      <g>
       <use style="fill:#262626;stroke:#262626;" x="90" xlink:href="#m78f39672c7" y="487.44"/>
      </g>
     </g>
     <g id="text_25">
      <!-- 5 -->
      <g style="fill:#262626;" transform="translate(71.439063 491.018906)scale(0.1 -0.1)">
       <use xlink:href="#ArialMT-35"/>
      </g>
     </g>
    </g>
    <g id="ytick_12">
     <g id="line2d_27">
      <g>
       <use style="fill:#262626;stroke:#262626;" x="90" xlink:href="#m78f39672c7" y="462.24"/>
      </g>
     </g>
     <g id="text_26">
      <!-- 10 -->
      <g style="fill:#262626;" transform="translate(65.878125 465.818906)scale(0.1 -0.1)">
       <use xlink:href="#ArialMT-31"/>
       <use x="55.615234" xlink:href="#ArialMT-30"/>
      </g>
     </g>
    </g>
    <g id="ytick_13">
     <g id="line2d_28">
      <g>
       <use style="fill:#262626;stroke:#262626;" x="90" xlink:href="#m78f39672c7" y="437.04"/>
      </g>
     </g>
     <g id="text_27">
      <!-- 15 -->
      <g style="fill:#262626;" transform="translate(65.878125 440.618906)scale(0.1 -0.1)">
       <use xlink:href="#ArialMT-31"/>
       <use x="55.615234" xlink:href="#ArialMT-35"/>
      </g>
     </g>
    </g>
    <g id="ytick_14">
     <g id="line2d_29">
      <g>
       <use style="fill:#262626;stroke:#262626;" x="90" xlink:href="#m78f39672c7" y="411.84"/>
      </g>
     </g>
     <g id="text_28">
      <!-- 20 -->
      <g style="fill:#262626;" transform="translate(65.878125 415.418906)scale(0.1 -0.1)">
       <use xlink:href="#ArialMT-32"/>
       <use x="55.615234" xlink:href="#ArialMT-30"/>
      </g>
     </g>
    </g>
    <g id="ytick_15">
     <g id="line2d_30">
      <g>
       <use style="fill:#262626;stroke:#262626;" x="90" xlink:href="#m78f39672c7" y="386.64"/>
      </g>
     </g>
     <g id="text_29">
      <!-- 25 -->
      <g style="fill:#262626;" transform="translate(65.878125 390.218906)scale(0.1 -0.1)">
       <use xlink:href="#ArialMT-32"/>
       <use x="55.615234" xlink:href="#ArialMT-35"/>
      </g>
     </g>
    </g>
    <g id="ytick_16">
     <g id="line2d_31">
      <g>
       <use style="fill:#262626;stroke:#262626;" x="90" xlink:href="#m78f39672c7" y="361.44"/>
      </g>
     </g>
     <g id="text_30">
      <!-- 30 -->
      <g style="fill:#262626;" transform="translate(65.878125 365.018906)scale(0.1 -0.1)">
       <use xlink:href="#ArialMT-33"/>
       <use x="55.615234" xlink:href="#ArialMT-30"/>
      </g>
     </g>
    </g>
    <g id="ytick_17">
     <g id="line2d_32">
      <g>
       <use style="fill:#262626;stroke:#262626;" x="90" xlink:href="#m78f39672c7" y="336.24"/>
      </g>
     </g>
     <g id="text_31">
      <!-- 35 -->
      <g style="fill:#262626;" transform="translate(65.878125 339.818906)scale(0.1 -0.1)">
       <use xlink:href="#ArialMT-33"/>
       <use x="55.615234" xlink:href="#ArialMT-35"/>
      </g>
     </g>
    </g>
    <g id="ytick_18">
     <g id="line2d_33">
      <g>
       <use style="fill:#262626;stroke:#262626;" x="90" xlink:href="#m78f39672c7" y="311.04"/>
      </g>
     </g>
     <g id="text_32">
      <!-- 40 -->
      <g style="fill:#262626;" transform="translate(65.878125 314.618906)scale(0.1 -0.1)">
       <use xlink:href="#ArialMT-34"/>
       <use x="55.615234" xlink:href="#ArialMT-30"/>
      </g>
     </g>
    </g>
   </g>
   <g id="line2d_34">
    <path clip-path="url(#pffa9dfe337)" d="M 90 488.562059 
L 95.636364 492.871917 
L 101.272727 491.915277 
L 106.909091 490.291312 
L 112.545455 492.192009 
L 118.181818 490.692663 
L 123.818182 490.203121 
L 129.454545 491.968658 
L 135.090909 490.163889 
L 140.727273 490.392837 
L 146.363636 490.241829 
L 152 489.156296 
L 157.636364 490.240305 
L 163.272727 490.645166 
L 168.909091 488.187222 
L 174.545455 488.633986 
L 180.181818 487.313077 
L 185.818182 487.018973 
L 191.454545 487.338343 
L 197.090909 486.121391 
L 202.727273 487.201243 
L 208.363636 484.042031 
L 214 483.157918 
L 219.636364 483.169266 
L 225.272727 482.846357 
L 230.909091 480.992047 
L 236.545455 479.145187 
L 242.181818 476.443916 
L 247.818182 475.314111 
L 253.454545 475.654125 
L 259.090909 473.305387 
L 264.727273 469.316541 
L 270.363636 463.226508 
L 276 459.185057 
L 281.636364 457.614718 
L 287.272727 454.794335 
L 292.909091 445.504843 
L 298.545455 423.732573 
L 304.181818 397.596726 
L 309.818182 374.961344 
L 315.454545 359.936381 
L 321.090909 350.604229 
L 326.727273 348.320806 
L 332.363636 355.280194 
L 338 371.866917 
L 343.636364 395.340341 
L 349.272727 419.997954 
L 354.909091 443.187999 
L 360.545455 460.277658 
L 366.181818 467.98198 
L 371.818182 471.852273 
L 377.454545 475.259843 
L 383.090909 478.489151 
L 388.727273 479.074231 
L 394.363636 476.894748 
L 400 474.552455 
L 405.636364 471.950812 
" style="fill:none;stroke:#b22222;stroke-linecap:round;stroke-width:1.75;"/>
   </g>
   <g id="patch_6">
    <path d="M 90 512.64 
L 90 311.04 
" style="fill:none;stroke:#262626;stroke-linecap:square;stroke-linejoin:miter;stroke-width:1.25;"/>
   </g>
   <g id="patch_7">
    <path d="M 90 512.64 
L 648 512.64 
" style="fill:none;stroke:#262626;stroke-linecap:square;stroke-linejoin:miter;stroke-width:1.25;"/>
   </g>
   <g id="text_33">
    <!-- f = 580 Hz -->
    <defs>
     <path d="M 8.6875 0 
L 8.6875 45.015625 
L 0.921875 45.015625 
L 0.921875 51.859375 
L 8.6875 51.859375 
L 8.6875 57.375 
Q 8.6875 62.59375 9.625 65.140625 
Q 10.890625 68.5625 14.078125 70.671875 
Q 17.28125 72.796875 23.046875 72.796875 
Q 26.765625 72.796875 31.25 71.921875 
L 29.9375 64.265625 
Q 27.203125 64.75 24.75 64.75 
Q 20.75 64.75 19.09375 63.03125 
Q 17.4375 61.328125 17.4375 56.640625 
L 17.4375 51.859375 
L 27.546875 51.859375 
L 27.546875 45.015625 
L 17.4375 45.015625 
L 17.4375 0 
z
" id="ArialMT-66"/>
     <path id="ArialMT-20"/>
     <path d="M 52.828125 42.09375 
L 5.5625 42.09375 
L 5.5625 50.296875 
L 52.828125 50.296875 
z
M 52.828125 20.359375 
L 5.5625 20.359375 
L 5.5625 28.5625 
L 52.828125 28.5625 
z
" id="ArialMT-3d"/>
     <path d="M 8.015625 0 
L 8.015625 71.578125 
L 17.484375 71.578125 
L 17.484375 42.1875 
L 54.6875 42.1875 
L 54.6875 71.578125 
L 64.15625 71.578125 
L 64.15625 0 
L 54.6875 0 
L 54.6875 33.734375 
L 17.484375 33.734375 
L 17.484375 0 
z
" id="ArialMT-48"/>
     <path d="M 1.953125 0 
L 1.953125 7.125 
L 34.96875 45.015625 
Q 29.34375 44.734375 25.046875 44.734375 
L 3.90625 44.734375 
L 3.90625 51.859375 
L 46.296875 51.859375 
L 46.296875 46.046875 
L 18.21875 13.140625 
L 12.796875 7.125 
Q 18.703125 7.5625 23.875 7.5625 
L 47.859375 7.5625 
L 47.859375 0 
z
" id="ArialMT-7a"/>
    </defs>
    <g style="fill:#262626;" transform="translate(529.636364 364.542187)scale(0.12 -0.12)">
     <use xlink:href="#ArialMT-66"/>
     <use x="27.783203" xlink:href="#ArialMT-20"/>
     <use x="55.566406" xlink:href="#ArialMT-3d"/>
     <use x="113.964844" xlink:href="#ArialMT-20"/>
     <use x="141.748047" xlink:href="#ArialMT-35"/>
     <use x="197.363281" xlink:href="#ArialMT-38"/>
     <use x="252.978516" xlink:href="#ArialMT-30"/>
     <use x="308.59375" xlink:href="#ArialMT-20"/>
     <use x="336.376953" xlink:href="#ArialMT-48"/>
     <use x="408.59375" xlink:href="#ArialMT-7a"/>
    </g>
   </g>
   <g id="PathCollection_1">
    <defs>
     <path d="M 0 3.5 
C 0.928211 3.5 1.81853 3.131218 2.474874 2.474874 
C 3.131218 1.81853 3.5 0.928211 3.5 0 
C 3.5 -0.928211 3.131218 -1.81853 2.474874 -2.474874 
C 1.81853 -3.131218 0.928211 -3.5 0 -3.5 
C -0.928211 -3.5 -1.81853 -3.131218 -2.474874 -2.474874 
C -3.131218 -1.81853 -3.5 -0.928211 -3.5 0 
C -3.5 0.928211 -3.131218 1.81853 -2.474874 2.474874 
C -1.81853 3.131218 -0.928211 3.5 0 3.5 
z
" id="m6785c45e52" style="stroke:#800000;stroke-width:0.3;"/>
    </defs>
    <g clip-path="url(#pffa9dfe337)">
     <use style="fill:#800000;stroke:#800000;stroke-width:0.3;" x="405.636364" xlink:href="#m6785c45e52" y="471.950812"/>
    </g>
   </g>
  </g>
 </g>
 <defs>
  <clipPath id="pe4f6cfcef3">
   <rect height="201.6" width="558" x="90" y="69.12"/>
  </clipPath>
  <clipPath id="pffa9dfe337">
   <rect height="201.6" width="558" x="90" y="311.04"/>
  </clipPath>
 </defs>
</svg>
