<?xml version="1.0" encoding="utf-8" standalone="no"?>
<!DOCTYPE svg PUBLIC "-//W3C//DTD SVG 1.1//EN"
  "http://www.w3.org/Graphics/SVG/1.1/DTD/svg11.dtd">
<!-- Created with matplotlib (http://matplotlib.org/) -->
<svg height="576pt" version="1.1" viewBox="0 0 720 576" width="720pt" xmlns="http://www.w3.org/2000/svg" xmlns:xlink="http://www.w3.org/1999/xlink">
 <defs>
  <style type="text/css">
*{stroke-linecap:butt;stroke-linejoin:round;}
  </style>
 </defs>
 <g id="figure_1">
  <g id="patch_1">
   <path d="M 0 576 
L 720 576 
L 720 0 
L 0 0 
z
" style="fill:#ffffff;"/>
  </g>
  <g id="axes_1">
   <g id="patch_2">
    <path d="M 90 270.72 
L 648 270.72 
L 648 69.12 
L 90 69.12 
z
" style="fill:#ffffff;"/>
   </g>
   <g id="matplotlib.axis_1">
    <g id="xtick_1">
     <g id="line2d_1">
      <defs>
       <path d="M 0 0 
L 0 6 
" id="mfaf1163cd3" style="stroke:#262626;"/>
      </defs>
      <g>
       <use style="fill:#262626;stroke:#262626;" x="90" xlink:href="#mfaf1163cd3" y="270.72"/>
      </g>
     </g>
     <g id="text_1">
      <!-- 0 -->
      <defs>
       <path d="M 4.15625 35.296875 
Q 4.15625 48 6.765625 55.734375 
Q 9.375 63.484375 14.515625 67.671875 
Q 19.671875 71.875 27.484375 71.875 
Q 33.25 71.875 37.59375 69.546875 
Q 41.9375 67.234375 44.765625 62.859375 
Q 47.609375 58.5 49.21875 52.21875 
Q 50.828125 45.953125 50.828125 35.296875 
Q 50.828125 22.703125 48.234375 14.96875 
Q 45.65625 7.234375 40.5 3 
Q 35.359375 -1.21875 27.484375 -1.21875 
Q 17.140625 -1.21875 11.234375 6.203125 
Q 4.15625 15.140625 4.15625 35.296875 
z
M 13.1875 35.296875 
Q 13.1875 17.671875 17.3125 11.828125 
Q 21.4375 6 27.484375 6 
Q 33.546875 6 37.671875 11.859375 
Q 41.796875 17.71875 41.796875 35.296875 
Q 41.796875 52.984375 37.671875 58.78125 
Q 33.546875 64.59375 27.390625 64.59375 
Q 21.34375 64.59375 17.71875 59.46875 
Q 13.1875 52.9375 13.1875 35.296875 
z
" id="ArialMT-30"/>
      </defs>
      <g style="fill:#262626;" transform="translate(87.219531 290.877812)scale(0.1 -0.1)">
       <use xlink:href="#ArialMT-30"/>
      </g>
     </g>
    </g>
    <g id="xtick_2">
     <g id="line2d_2">
      <g>
       <use style="fill:#262626;stroke:#262626;" x="159.75" xlink:href="#mfaf1163cd3" y="270.72"/>
      </g>
     </g>
     <g id="text_2">
      <!-- 100 -->
      <defs>
       <path d="M 37.25 0 
L 28.46875 0 
L 28.46875 56 
Q 25.296875 52.984375 20.140625 49.953125 
Q 14.984375 46.921875 10.890625 45.40625 
L 10.890625 53.90625 
Q 18.265625 57.375 23.78125 62.296875 
Q 29.296875 67.234375 31.59375 71.875 
L 37.25 71.875 
z
" id="ArialMT-31"/>
      </defs>
      <g style="fill:#262626;" transform="translate(151.408594 290.877812)scale(0.1 -0.1)">
       <use xlink:href="#ArialMT-31"/>
       <use x="55.615234" xlink:href="#ArialMT-30"/>
       <use x="111.230469" xlink:href="#ArialMT-30"/>
      </g>
     </g>
    </g>
    <g id="xtick_3">
     <g id="line2d_3">
      <g>
       <use style="fill:#262626;stroke:#262626;" x="229.5" xlink:href="#mfaf1163cd3" y="270.72"/>
      </g>
     </g>
     <g id="text_3">
      <!-- 200 -->
      <defs>
       <path d="M 50.34375 8.453125 
L 50.34375 0 
L 3.03125 0 
Q 2.9375 3.171875 4.046875 6.109375 
Q 5.859375 10.9375 9.828125 15.625 
Q 13.8125 20.3125 21.34375 26.46875 
Q 33.015625 36.03125 37.109375 41.625 
Q 41.21875 47.21875 41.21875 52.203125 
Q 41.21875 57.421875 37.46875 61 
Q 33.734375 64.59375 27.734375 64.59375 
Q 21.390625 64.59375 17.578125 60.78125 
Q 13.765625 56.984375 13.71875 50.25 
L 4.6875 51.171875 
Q 5.609375 61.28125 11.65625 66.578125 
Q 17.71875 71.875 27.9375 71.875 
Q 38.234375 71.875 44.234375 66.15625 
Q 50.25 60.453125 50.25 52 
Q 50.25 47.703125 48.484375 43.546875 
Q 46.734375 39.40625 42.65625 34.8125 
Q 38.578125 30.21875 29.109375 22.21875 
Q 21.1875 15.578125 18.9375 13.203125 
Q 16.703125 10.84375 15.234375 8.453125 
z
" id="ArialMT-32"/>
      </defs>
      <g style="fill:#262626;" transform="translate(221.158594 290.877812)scale(0.1 -0.1)">
       <use xlink:href="#ArialMT-32"/>
       <use x="55.615234" xlink:href="#ArialMT-30"/>
       <use x="111.230469" xlink:href="#ArialMT-30"/>
      </g>
     </g>
    </g>
    <g id="xtick_4">
     <g id="line2d_4">
      <g>
       <use style="fill:#262626;stroke:#262626;" x="299.25" xlink:href="#mfaf1163cd3" y="270.72"/>
      </g>
     </g>
     <g id="text_4">
      <!-- 300 -->
      <defs>
       <path d="M 4.203125 18.890625 
L 12.984375 20.0625 
Q 14.5 12.59375 18.140625 9.296875 
Q 21.78125 6 27 6 
Q 33.203125 6 37.46875 10.296875 
Q 41.75 14.59375 41.75 20.953125 
Q 41.75 27 37.796875 30.921875 
Q 33.84375 34.859375 27.734375 34.859375 
Q 25.25 34.859375 21.53125 33.890625 
L 22.515625 41.609375 
Q 23.390625 41.5 23.921875 41.5 
Q 29.546875 41.5 34.03125 44.421875 
Q 38.53125 47.359375 38.53125 53.46875 
Q 38.53125 58.296875 35.25 61.46875 
Q 31.984375 64.65625 26.8125 64.65625 
Q 21.6875 64.65625 18.265625 61.421875 
Q 14.84375 58.203125 13.875 51.765625 
L 5.078125 53.328125 
Q 6.6875 62.15625 12.390625 67.015625 
Q 18.109375 71.875 26.609375 71.875 
Q 32.46875 71.875 37.390625 69.359375 
Q 42.328125 66.84375 44.9375 62.5 
Q 47.5625 58.15625 47.5625 53.265625 
Q 47.5625 48.640625 45.0625 44.828125 
Q 42.578125 41.015625 37.703125 38.765625 
Q 44.046875 37.3125 47.5625 32.6875 
Q 51.078125 28.078125 51.078125 21.140625 
Q 51.078125 11.765625 44.234375 5.25 
Q 37.40625 -1.265625 26.953125 -1.265625 
Q 17.53125 -1.265625 11.296875 4.34375 
Q 5.078125 9.96875 4.203125 18.890625 
z
" id="ArialMT-33"/>
      </defs>
      <g style="fill:#262626;" transform="translate(290.908594 290.877812)scale(0.1 -0.1)">
       <use xlink:href="#ArialMT-33"/>
       <use x="55.615234" xlink:href="#ArialMT-30"/>
       <use x="111.230469" xlink:href="#ArialMT-30"/>
      </g>
     </g>
    </g>
    <g id="xtick_5">
     <g id="line2d_5">
      <g>
       <use style="fill:#262626;stroke:#262626;" x="369" xlink:href="#mfaf1163cd3" y="270.72"/>
      </g>
     </g>
     <g id="text_5">
      <!-- 400 -->
      <defs>
       <path d="M 32.328125 0 
L 32.328125 17.140625 
L 1.265625 17.140625 
L 1.265625 25.203125 
L 33.9375 71.578125 
L 41.109375 71.578125 
L 41.109375 25.203125 
L 50.78125 25.203125 
L 50.78125 17.140625 
L 41.109375 17.140625 
L 41.109375 0 
z
M 32.328125 25.203125 
L 32.328125 57.46875 
L 9.90625 25.203125 
z
" id="ArialMT-34"/>
      </defs>
      <g style="fill:#262626;" transform="translate(360.658594 290.877812)scale(0.1 -0.1)">
       <use xlink:href="#ArialMT-34"/>
       <use x="55.615234" xlink:href="#ArialMT-30"/>
       <use x="111.230469" xlink:href="#ArialMT-30"/>
      </g>
     </g>
    </g>
    <g id="xtick_6">
     <g id="line2d_6">
      <g>
       <use style="fill:#262626;stroke:#262626;" x="438.75" xlink:href="#mfaf1163cd3" y="270.72"/>
      </g>
     </g>
     <g id="text_6">
      <!-- 500 -->
      <defs>
       <path d="M 4.15625 18.75 
L 13.375 19.53125 
Q 14.40625 12.796875 18.140625 9.390625 
Q 21.875 6 27.15625 6 
Q 33.5 6 37.890625 10.78125 
Q 42.28125 15.578125 42.28125 23.484375 
Q 42.28125 31 38.0625 35.34375 
Q 33.84375 39.703125 27 39.703125 
Q 22.75 39.703125 19.328125 37.765625 
Q 15.921875 35.84375 13.96875 32.765625 
L 5.71875 33.84375 
L 12.640625 70.609375 
L 48.25 70.609375 
L 48.25 62.203125 
L 19.671875 62.203125 
L 15.828125 42.96875 
Q 22.265625 47.46875 29.34375 47.46875 
Q 38.71875 47.46875 45.15625 40.96875 
Q 51.609375 34.46875 51.609375 24.265625 
Q 51.609375 14.546875 45.953125 7.46875 
Q 39.0625 -1.21875 27.15625 -1.21875 
Q 17.390625 -1.21875 11.203125 4.25 
Q 5.03125 9.71875 4.15625 18.75 
z
" id="ArialMT-35"/>
      </defs>
      <g style="fill:#262626;" transform="translate(430.408594 290.877812)scale(0.1 -0.1)">
       <use xlink:href="#ArialMT-35"/>
       <use x="55.615234" xlink:href="#ArialMT-30"/>
       <use x="111.230469" xlink:href="#ArialMT-30"/>
      </g>
     </g>
    </g>
    <g id="xtick_7">
     <g id="line2d_7">
      <g>
       <use style="fill:#262626;stroke:#262626;" x="508.5" xlink:href="#mfaf1163cd3" y="270.72"/>
      </g>
     </g>
     <g id="text_7">
      <!-- 600 -->
      <defs>
       <path d="M 49.75 54.046875 
L 41.015625 53.375 
Q 39.84375 58.546875 37.703125 60.890625 
Q 34.125 64.65625 28.90625 64.65625 
Q 24.703125 64.65625 21.53125 62.3125 
Q 17.390625 59.28125 14.984375 53.46875 
Q 12.59375 47.65625 12.5 36.921875 
Q 15.671875 41.75 20.265625 44.09375 
Q 24.859375 46.4375 29.890625 46.4375 
Q 38.671875 46.4375 44.84375 39.96875 
Q 51.03125 33.5 51.03125 23.25 
Q 51.03125 16.5 48.125 10.71875 
Q 45.21875 4.9375 40.140625 1.859375 
Q 35.0625 -1.21875 28.609375 -1.21875 
Q 17.625 -1.21875 10.6875 6.859375 
Q 3.765625 14.9375 3.765625 33.5 
Q 3.765625 54.25 11.421875 63.671875 
Q 18.109375 71.875 29.4375 71.875 
Q 37.890625 71.875 43.28125 67.140625 
Q 48.6875 62.40625 49.75 54.046875 
z
M 13.875 23.1875 
Q 13.875 18.65625 15.796875 14.5 
Q 17.71875 10.359375 21.1875 8.171875 
Q 24.65625 6 28.46875 6 
Q 34.03125 6 38.03125 10.484375 
Q 42.046875 14.984375 42.046875 22.703125 
Q 42.046875 30.125 38.078125 34.390625 
Q 34.125 38.671875 28.125 38.671875 
Q 22.171875 38.671875 18.015625 34.390625 
Q 13.875 30.125 13.875 23.1875 
z
" id="ArialMT-36"/>
      </defs>
      <g style="fill:#262626;" transform="translate(500.158594 290.877812)scale(0.1 -0.1)">
       <use xlink:href="#ArialMT-36"/>
       <use x="55.615234" xlink:href="#ArialMT-30"/>
       <use x="111.230469" xlink:href="#ArialMT-30"/>
      </g>
     </g>
    </g>
    <g id="xtick_8">
     <g id="line2d_8">
      <g>
       <use style="fill:#262626;stroke:#262626;" x="578.25" xlink:href="#mfaf1163cd3" y="270.72"/>
      </g>
     </g>
     <g id="text_8">
      <!-- 700 -->
      <defs>
       <path d="M 4.734375 62.203125 
L 4.734375 70.65625 
L 51.078125 70.65625 
L 51.078125 63.8125 
Q 44.234375 56.546875 37.515625 44.484375 
Q 30.8125 32.421875 27.15625 19.671875 
Q 24.515625 10.6875 23.78125 0 
L 14.75 0 
Q 14.890625 8.453125 18.0625 20.40625 
Q 21.234375 32.375 27.171875 43.484375 
Q 33.109375 54.59375 39.796875 62.203125 
z
" id="ArialMT-37"/>
      </defs>
      <g style="fill:#262626;" transform="translate(569.908594 290.877812)scale(0.1 -0.1)">
       <use xlink:href="#ArialMT-37"/>
       <use x="55.615234" xlink:href="#ArialMT-30"/>
       <use x="111.230469" xlink:href="#ArialMT-30"/>
      </g>
     </g>
    </g>
    <g id="xtick_9">
     <g id="line2d_9">
      <g>
       <use style="fill:#262626;stroke:#262626;" x="648" xlink:href="#mfaf1163cd3" y="270.72"/>
      </g>
     </g>
     <g id="text_9">
      <!-- 800 -->
      <defs>
       <path d="M 17.671875 38.8125 
Q 12.203125 40.828125 9.5625 44.53125 
Q 6.9375 48.25 6.9375 53.421875 
Q 6.9375 61.234375 12.546875 66.546875 
Q 18.171875 71.875 27.484375 71.875 
Q 36.859375 71.875 42.578125 66.421875 
Q 48.296875 60.984375 48.296875 53.171875 
Q 48.296875 48.1875 45.671875 44.5 
Q 43.0625 40.828125 37.75 38.8125 
Q 44.34375 36.671875 47.78125 31.875 
Q 51.21875 27.09375 51.21875 20.453125 
Q 51.21875 11.28125 44.71875 5.03125 
Q 38.234375 -1.21875 27.640625 -1.21875 
Q 17.046875 -1.21875 10.546875 5.046875 
Q 4.046875 11.328125 4.046875 20.703125 
Q 4.046875 27.6875 7.59375 32.390625 
Q 11.140625 37.109375 17.671875 38.8125 
z
M 15.921875 53.71875 
Q 15.921875 48.640625 19.1875 45.40625 
Q 22.46875 42.1875 27.6875 42.1875 
Q 32.765625 42.1875 36.015625 45.375 
Q 39.265625 48.578125 39.265625 53.21875 
Q 39.265625 58.0625 35.90625 61.359375 
Q 32.5625 64.65625 27.59375 64.65625 
Q 22.5625 64.65625 19.234375 61.421875 
Q 15.921875 58.203125 15.921875 53.71875 
z
M 13.09375 20.65625 
Q 13.09375 16.890625 14.875 13.375 
Q 16.65625 9.859375 20.171875 7.921875 
Q 23.6875 6 27.734375 6 
Q 34.03125 6 38.125 10.046875 
Q 42.234375 14.109375 42.234375 20.359375 
Q 42.234375 26.703125 38.015625 30.859375 
Q 33.796875 35.015625 27.4375 35.015625 
Q 21.234375 35.015625 17.15625 30.90625 
Q 13.09375 26.8125 13.09375 20.65625 
z
" id="ArialMT-38"/>
      </defs>
      <g style="fill:#262626;" transform="translate(639.658594 290.877812)scale(0.1 -0.1)">
       <use xlink:href="#ArialMT-38"/>
       <use x="55.615234" xlink:href="#ArialMT-30"/>
       <use x="111.230469" xlink:href="#ArialMT-30"/>
      </g>
     </g>
    </g>
   </g>
   <g id="matplotlib.axis_2">
    <g id="ytick_1">
     <g id="line2d_10">
      <defs>
       <path d="M 0 0 
L -6 0 
" id="m6d52f42226" style="stroke:#262626;"/>
      </defs>
      <g>
       <use style="fill:#262626;stroke:#262626;" x="90" xlink:href="#m6d52f42226" y="270.72"/>
      </g>
     </g>
     <g id="text_10">
      <!-- −0.20 -->
      <defs>
       <path d="M 52.828125 31.203125 
L 5.5625 31.203125 
L 5.5625 39.40625 
L 52.828125 39.40625 
z
" id="ArialMT-2212"/>
       <path d="M 9.078125 0 
L 9.078125 10.015625 
L 19.09375 10.015625 
L 19.09375 0 
z
" id="ArialMT-2e"/>
      </defs>
      <g style="fill:#262626;" transform="translate(51.698437 274.298906)scale(0.1 -0.1)">
       <use xlink:href="#ArialMT-2212"/>
       <use x="58.398438" xlink:href="#ArialMT-30"/>
       <use x="114.013672" xlink:href="#ArialMT-2e"/>
       <use x="141.796875" xlink:href="#ArialMT-32"/>
       <use x="197.412109" xlink:href="#ArialMT-30"/>
      </g>
     </g>
    </g>
    <g id="ytick_2">
     <g id="line2d_11">
      <g>
       <use style="fill:#262626;stroke:#262626;" x="90" xlink:href="#m6d52f42226" y="245.52"/>
      </g>
     </g>
     <g id="text_11">
      <!-- −0.15 -->
      <g style="fill:#262626;" transform="translate(51.698437 249.098906)scale(0.1 -0.1)">
       <use xlink:href="#ArialMT-2212"/>
       <use x="58.398438" xlink:href="#ArialMT-30"/>
       <use x="114.013672" xlink:href="#ArialMT-2e"/>
       <use x="141.796875" xlink:href="#ArialMT-31"/>
       <use x="197.412109" xlink:href="#ArialMT-35"/>
      </g>
     </g>
    </g>
    <g id="ytick_3">
     <g id="line2d_12">
      <g>
       <use style="fill:#262626;stroke:#262626;" x="90" xlink:href="#m6d52f42226" y="220.32"/>
      </g>
     </g>
     <g id="text_12">
      <!-- −0.10 -->
      <g style="fill:#262626;" transform="translate(51.698437 223.898906)scale(0.1 -0.1)">
       <use xlink:href="#ArialMT-2212"/>
       <use x="58.398438" xlink:href="#ArialMT-30"/>
       <use x="114.013672" xlink:href="#ArialMT-2e"/>
       <use x="141.796875" xlink:href="#ArialMT-31"/>
       <use x="197.412109" xlink:href="#ArialMT-30"/>
      </g>
     </g>
    </g>
    <g id="ytick_4">
     <g id="line2d_13">
      <g>
       <use style="fill:#262626;stroke:#262626;" x="90" xlink:href="#m6d52f42226" y="195.12"/>
      </g>
     </g>
     <g id="text_13">
      <!-- −0.05 -->
      <g style="fill:#262626;" transform="translate(51.698437 198.698906)scale(0.1 -0.1)">
       <use xlink:href="#ArialMT-2212"/>
       <use x="58.398438" xlink:href="#ArialMT-30"/>
       <use x="114.013672" xlink:href="#ArialMT-2e"/>
       <use x="141.796875" xlink:href="#ArialMT-30"/>
       <use x="197.412109" xlink:href="#ArialMT-35"/>
      </g>
     </g>
    </g>
    <g id="ytick_5">
     <g id="line2d_14">
      <g>
       <use style="fill:#262626;stroke:#262626;" x="90" xlink:href="#m6d52f42226" y="169.92"/>
      </g>
     </g>
     <g id="text_14">
      <!-- 0.00 -->
      <g style="fill:#262626;" transform="translate(57.539062 173.498906)scale(0.1 -0.1)">
       <use xlink:href="#ArialMT-30"/>
       <use x="55.615234" xlink:href="#ArialMT-2e"/>
       <use x="83.398438" xlink:href="#ArialMT-30"/>
       <use x="139.013672" xlink:href="#ArialMT-30"/>
      </g>
     </g>
    </g>
    <g id="ytick_6">
     <g id="line2d_15">
      <g>
       <use style="fill:#262626;stroke:#262626;" x="90" xlink:href="#m6d52f42226" y="144.72"/>
      </g>
     </g>
     <g id="text_15">
      <!-- 0.05 -->
      <g style="fill:#262626;" transform="translate(57.539062 148.298906)scale(0.1 -0.1)">
       <use xlink:href="#ArialMT-30"/>
       <use x="55.615234" xlink:href="#ArialMT-2e"/>
       <use x="83.398438" xlink:href="#ArialMT-30"/>
       <use x="139.013672" xlink:href="#ArialMT-35"/>
      </g>
     </g>
    </g>
    <g id="ytick_7">
     <g id="line2d_16">
      <g>
       <use style="fill:#262626;stroke:#262626;" x="90" xlink:href="#m6d52f42226" y="119.52"/>
      </g>
     </g>
     <g id="text_16">
      <!-- 0.10 -->
      <g style="fill:#262626;" transform="translate(57.539062 123.098906)scale(0.1 -0.1)">
       <use xlink:href="#ArialMT-30"/>
       <use x="55.615234" xlink:href="#ArialMT-2e"/>
       <use x="83.398438" xlink:href="#ArialMT-31"/>
       <use x="139.013672" xlink:href="#ArialMT-30"/>
      </g>
     </g>
    </g>
    <g id="ytick_8">
     <g id="line2d_17">
      <g>
       <use style="fill:#262626;stroke:#262626;" x="90" xlink:href="#m6d52f42226" y="94.32"/>
      </g>
     </g>
     <g id="text_17">
      <!-- 0.15 -->
      <g style="fill:#262626;" transform="translate(57.539062 97.898906)scale(0.1 -0.1)">
       <use xlink:href="#ArialMT-30"/>
       <use x="55.615234" xlink:href="#ArialMT-2e"/>
       <use x="83.398438" xlink:href="#ArialMT-31"/>
       <use x="139.013672" xlink:href="#ArialMT-35"/>
      </g>
     </g>
    </g>
    <g id="ytick_9">
     <g id="line2d_18">
      <g>
       <use style="fill:#262626;stroke:#262626;" x="90" xlink:href="#m6d52f42226" y="69.12"/>
      </g>
     </g>
     <g id="text_18">
      <!-- 0.20 -->
      <g style="fill:#262626;" transform="translate(57.539062 72.698906)scale(0.1 -0.1)">
       <use xlink:href="#ArialMT-30"/>
       <use x="55.615234" xlink:href="#ArialMT-2e"/>
       <use x="83.398438" xlink:href="#ArialMT-32"/>
       <use x="139.013672" xlink:href="#ArialMT-30"/>
      </g>
     </g>
    </g>
   </g>
   <g id="PolyCollection_1">
    <path clip-path="url(#pae927e9031)" d="M 90 165.820878 
L 90 169.92 
L 90.6975 169.92 
L 91.395 169.92 
L 92.0925 169.92 
L 92.79 169.92 
L 93.4875 169.92 
L 94.185 169.92 
L 94.8825 169.92 
L 95.58 169.92 
L 96.2775 169.92 
L 96.975 169.92 
L 97.6725 169.92 
L 98.37 169.92 
L 99.0675 169.92 
L 99.765 169.92 
L 100.4625 169.92 
L 101.16 169.92 
L 101.8575 169.92 
L 102.555 169.92 
L 103.2525 169.92 
L 103.95 169.92 
L 104.6475 169.92 
L 105.345 169.92 
L 106.0425 169.92 
L 106.74 169.92 
L 107.4375 169.92 
L 108.135 169.92 
L 108.8325 169.92 
L 109.53 169.92 
L 110.2275 169.92 
L 110.925 169.92 
L 111.6225 169.92 
L 112.32 169.92 
L 113.0175 169.92 
L 113.715 169.92 
L 114.4125 169.92 
L 115.11 169.92 
L 115.8075 169.92 
L 116.505 169.92 
L 117.2025 169.92 
L 117.9 169.92 
L 118.5975 169.92 
L 119.295 169.92 
L 119.9925 169.92 
L 120.69 169.92 
L 121.3875 169.92 
L 122.085 169.92 
L 122.7825 169.92 
L 123.48 169.92 
L 124.1775 169.92 
L 124.875 169.92 
L 125.5725 169.92 
L 126.27 169.92 
L 126.9675 169.92 
L 127.665 169.92 
L 128.3625 169.92 
L 129.06 169.92 
L 129.7575 169.92 
L 130.455 169.92 
L 131.1525 169.92 
L 131.85 169.92 
L 132.5475 169.92 
L 133.245 169.92 
L 133.9425 169.92 
L 134.64 169.92 
L 135.3375 169.92 
L 136.035 169.92 
L 136.7325 169.92 
L 137.43 169.92 
L 138.1275 169.92 
L 138.825 169.92 
L 139.5225 169.92 
L 140.22 169.92 
L 140.9175 169.92 
L 141.615 169.92 
L 142.3125 169.92 
L 143.01 169.92 
L 143.7075 169.92 
L 144.405 169.92 
L 145.1025 169.92 
L 145.8 169.92 
L 146.4975 169.92 
L 147.195 169.92 
L 147.8925 169.92 
L 148.59 169.92 
L 149.2875 169.92 
L 149.985 169.92 
L 150.6825 169.92 
L 151.38 169.92 
L 152.0775 169.92 
L 152.775 169.92 
L 153.4725 169.92 
L 154.17 169.92 
L 154.8675 169.92 
L 155.565 169.92 
L 156.2625 169.92 
L 156.96 169.92 
L 157.6575 169.92 
L 158.355 169.92 
L 159.0525 169.92 
L 159.75 169.92 
L 160.4475 169.92 
L 161.145 169.92 
L 161.8425 169.92 
L 162.54 169.92 
L 163.2375 169.92 
L 163.935 169.92 
L 164.6325 169.92 
L 165.33 169.92 
L 166.0275 169.92 
L 166.725 169.92 
L 167.4225 169.92 
L 168.12 169.92 
L 168.8175 169.92 
L 169.515 169.92 
L 170.2125 169.92 
L 170.91 169.92 
L 171.6075 169.92 
L 172.305 169.92 
L 173.0025 169.92 
L 173.7 169.92 
L 174.3975 169.92 
L 175.095 169.92 
L 175.7925 169.92 
L 176.49 169.92 
L 177.1875 169.92 
L 177.885 169.92 
L 178.5825 169.92 
L 179.28 169.92 
L 179.9775 169.92 
L 180.675 169.92 
L 181.3725 169.92 
L 182.07 169.92 
L 182.7675 169.92 
L 183.465 169.92 
L 184.1625 169.92 
L 184.86 169.92 
L 185.5575 169.92 
L 186.255 169.92 
L 186.9525 169.92 
L 187.65 169.92 
L 188.3475 169.92 
L 189.045 169.92 
L 189.7425 169.92 
L 190.44 169.92 
L 191.1375 169.92 
L 191.835 169.92 
L 192.5325 169.92 
L 193.23 169.92 
L 193.9275 169.92 
L 194.625 169.92 
L 195.3225 169.92 
L 196.02 169.92 
L 196.7175 169.92 
L 197.415 169.92 
L 198.1125 169.92 
L 198.81 169.92 
L 199.5075 169.92 
L 200.205 169.92 
L 200.9025 169.92 
L 201.6 169.92 
L 202.2975 169.92 
L 202.995 169.92 
L 203.6925 169.92 
L 204.39 169.92 
L 205.0875 169.92 
L 205.785 169.92 
L 206.4825 169.92 
L 207.18 169.92 
L 207.8775 169.92 
L 208.575 169.92 
L 209.2725 169.92 
L 209.97 169.92 
L 210.6675 169.92 
L 211.365 169.92 
L 212.0625 169.92 
L 212.76 169.92 
L 213.4575 169.92 
L 214.155 169.92 
L 214.8525 169.92 
L 215.55 169.92 
L 216.2475 169.92 
L 216.945 169.92 
L 217.6425 169.92 
L 218.34 169.92 
L 219.0375 169.92 
L 219.735 169.92 
L 220.4325 169.92 
L 221.13 169.92 
L 221.8275 169.92 
L 222.525 169.92 
L 223.2225 169.92 
L 223.92 169.92 
L 224.6175 169.92 
L 225.315 169.92 
L 226.0125 169.92 
L 226.71 169.92 
L 227.4075 169.92 
L 228.105 169.92 
L 228.8025 169.92 
L 229.5 169.92 
L 230.1975 169.92 
L 230.895 169.92 
L 231.5925 169.92 
L 232.29 169.92 
L 232.9875 169.92 
L 233.685 169.92 
L 234.3825 169.92 
L 235.08 169.92 
L 235.7775 169.92 
L 236.475 169.92 
L 237.1725 169.92 
L 237.87 169.92 
L 238.5675 169.92 
L 239.265 169.92 
L 239.9625 169.92 
L 240.66 169.92 
L 241.3575 169.92 
L 242.055 169.92 
L 242.7525 169.92 
L 243.45 169.92 
L 244.1475 169.92 
L 244.845 169.92 
L 245.5425 169.92 
L 246.24 169.92 
L 246.9375 169.92 
L 247.635 169.92 
L 248.3325 169.92 
L 249.03 169.92 
L 249.7275 169.92 
L 250.425 169.92 
L 251.1225 169.92 
L 251.82 169.92 
L 252.5175 169.92 
L 253.215 169.92 
L 253.9125 169.92 
L 254.61 169.92 
L 255.3075 169.92 
L 256.005 169.92 
L 256.7025 169.92 
L 257.4 169.92 
L 258.0975 169.92 
L 258.795 169.92 
L 259.4925 169.92 
L 260.19 169.92 
L 260.8875 169.92 
L 261.585 169.92 
L 262.2825 169.92 
L 262.98 169.92 
L 263.6775 169.92 
L 264.375 169.92 
L 265.0725 169.92 
L 265.77 169.92 
L 266.4675 169.92 
L 267.165 169.92 
L 267.8625 169.92 
L 268.56 169.92 
L 269.2575 169.92 
L 269.955 169.92 
L 270.6525 169.92 
L 271.35 169.92 
L 272.0475 169.92 
L 272.745 169.92 
L 273.4425 169.92 
L 274.14 169.92 
L 274.8375 169.92 
L 275.535 169.92 
L 276.2325 169.92 
L 276.93 169.92 
L 277.6275 169.92 
L 278.325 169.92 
L 279.0225 169.92 
L 279.72 169.92 
L 280.4175 169.92 
L 281.115 169.92 
L 281.8125 169.92 
L 282.51 169.92 
L 283.2075 169.92 
L 283.905 169.92 
L 284.6025 169.92 
L 285.3 169.92 
L 285.9975 169.92 
L 286.695 169.92 
L 287.3925 169.92 
L 288.09 169.92 
L 288.7875 169.92 
L 289.485 169.92 
L 290.1825 169.92 
L 290.88 169.92 
L 291.5775 169.92 
L 292.275 169.92 
L 292.9725 169.92 
L 293.67 169.92 
L 294.3675 169.92 
L 295.065 169.92 
L 295.7625 169.92 
L 296.46 169.92 
L 297.1575 169.92 
L 297.855 169.92 
L 298.5525 169.92 
L 299.25 169.92 
L 299.9475 169.92 
L 300.645 169.92 
L 301.3425 169.92 
L 302.04 169.92 
L 302.7375 169.92 
L 303.435 169.92 
L 304.1325 169.92 
L 304.83 169.92 
L 305.5275 169.92 
L 306.225 169.92 
L 306.9225 169.92 
L 307.62 169.92 
L 308.3175 169.92 
L 309.015 169.92 
L 309.7125 169.92 
L 310.41 169.92 
L 311.1075 169.92 
L 311.805 169.92 
L 312.5025 169.92 
L 313.2 169.92 
L 313.8975 169.92 
L 314.595 169.92 
L 315.2925 169.92 
L 315.99 169.92 
L 316.6875 169.92 
L 317.385 169.92 
L 318.0825 169.92 
L 318.78 169.92 
L 319.4775 169.92 
L 320.175 169.92 
L 320.8725 169.92 
L 321.57 169.92 
L 322.2675 169.92 
L 322.965 169.92 
L 323.6625 169.92 
L 324.36 169.92 
L 325.0575 169.92 
L 325.755 169.92 
L 326.4525 169.92 
L 327.15 169.92 
L 327.8475 169.92 
L 328.545 169.92 
L 329.2425 169.92 
L 329.94 169.92 
L 330.6375 169.92 
L 331.335 169.92 
L 332.0325 169.92 
L 332.73 169.92 
L 333.4275 169.92 
L 334.125 169.92 
L 334.8225 169.92 
L 335.52 169.92 
L 336.2175 169.92 
L 336.915 169.92 
L 337.6125 169.92 
L 338.31 169.92 
L 339.0075 169.92 
L 339.705 169.92 
L 340.4025 169.92 
L 341.1 169.92 
L 341.7975 169.92 
L 342.495 169.92 
L 343.1925 169.92 
L 343.89 169.92 
L 344.5875 169.92 
L 345.285 169.92 
L 345.9825 169.92 
L 346.68 169.92 
L 347.3775 169.92 
L 348.075 169.92 
L 348.7725 169.92 
L 349.47 169.92 
L 350.1675 169.92 
L 350.865 169.92 
L 351.5625 169.92 
L 352.26 169.92 
L 352.9575 169.92 
L 353.655 169.92 
L 354.3525 169.92 
L 355.05 169.92 
L 355.7475 169.92 
L 356.445 169.92 
L 357.1425 169.92 
L 357.84 169.92 
L 358.5375 169.92 
L 359.235 169.92 
L 359.9325 169.92 
L 360.63 169.92 
L 361.3275 169.92 
L 362.025 169.92 
L 362.7225 169.92 
L 363.42 169.92 
L 364.1175 169.92 
L 364.815 169.92 
L 365.5125 169.92 
L 366.21 169.92 
L 366.9075 169.92 
L 367.605 169.92 
L 368.3025 169.92 
L 369 169.92 
L 369.6975 169.92 
L 370.395 169.92 
L 371.0925 169.92 
L 371.79 169.92 
L 372.4875 169.92 
L 373.185 169.92 
L 373.8825 169.92 
L 374.58 169.92 
L 375.2775 169.92 
L 375.975 169.92 
L 376.6725 169.92 
L 377.37 169.92 
L 378.0675 169.92 
L 378.765 169.92 
L 379.4625 169.92 
L 380.16 169.92 
L 380.8575 169.92 
L 381.555 169.92 
L 382.2525 169.92 
L 382.95 169.92 
L 383.6475 169.92 
L 384.345 169.92 
L 385.0425 169.92 
L 385.74 169.92 
L 386.4375 169.92 
L 387.135 169.92 
L 387.8325 169.92 
L 388.53 169.92 
L 389.2275 169.92 
L 389.925 169.92 
L 390.6225 169.92 
L 391.32 169.92 
L 392.0175 169.92 
L 392.715 169.92 
L 393.4125 169.92 
L 394.11 169.92 
L 394.8075 169.92 
L 395.505 169.92 
L 396.2025 169.92 
L 396.9 169.92 
L 397.5975 169.92 
L 398.295 169.92 
L 398.9925 169.92 
L 399.69 169.92 
L 400.3875 169.92 
L 401.085 169.92 
L 401.7825 169.92 
L 402.48 169.92 
L 403.1775 169.92 
L 403.875 169.92 
L 404.5725 169.92 
L 405.27 169.92 
L 405.9675 169.92 
L 406.665 169.92 
L 407.3625 169.92 
L 408.06 169.92 
L 408.7575 169.92 
L 409.455 169.92 
L 410.1525 169.92 
L 410.85 169.92 
L 411.5475 169.92 
L 412.245 169.92 
L 412.9425 169.92 
L 413.64 169.92 
L 414.3375 169.92 
L 415.035 169.92 
L 415.7325 169.92 
L 416.43 169.92 
L 417.1275 169.92 
L 417.825 169.92 
L 418.5225 169.92 
L 419.22 169.92 
L 419.9175 169.92 
L 420.615 169.92 
L 421.3125 169.92 
L 422.01 169.92 
L 422.7075 169.92 
L 423.405 169.92 
L 424.1025 169.92 
L 424.8 169.92 
L 425.4975 169.92 
L 426.195 169.92 
L 426.8925 169.92 
L 427.59 169.92 
L 428.2875 169.92 
L 428.985 169.92 
L 429.6825 169.92 
L 430.38 169.92 
L 431.0775 169.92 
L 431.775 169.92 
L 432.4725 169.92 
L 433.17 169.92 
L 433.8675 169.92 
L 434.565 169.92 
L 435.2625 169.92 
L 435.96 169.92 
L 436.6575 169.92 
L 437.355 169.92 
L 438.0525 169.92 
L 438.75 169.92 
L 439.4475 169.92 
L 440.145 169.92 
L 440.8425 169.92 
L 441.54 169.92 
L 442.2375 169.92 
L 442.935 169.92 
L 443.6325 169.92 
L 444.33 169.92 
L 445.0275 169.92 
L 445.725 169.92 
L 446.4225 169.92 
L 447.12 169.92 
L 447.8175 169.92 
L 448.515 169.92 
L 449.2125 169.92 
L 449.91 169.92 
L 450.6075 169.92 
L 451.305 169.92 
L 452.0025 169.92 
L 452.7 169.92 
L 453.3975 169.92 
L 454.095 169.92 
L 454.7925 169.92 
L 455.49 169.92 
L 456.1875 169.92 
L 456.885 169.92 
L 457.5825 169.92 
L 458.28 169.92 
L 458.9775 169.92 
L 459.675 169.92 
L 460.3725 169.92 
L 461.07 169.92 
L 461.7675 169.92 
L 462.465 169.92 
L 463.1625 169.92 
L 463.86 169.92 
L 464.5575 169.92 
L 465.255 169.92 
L 465.9525 169.92 
L 466.65 169.92 
L 467.3475 169.92 
L 468.045 169.92 
L 468.7425 169.92 
L 469.44 169.92 
L 470.1375 169.92 
L 470.835 169.92 
L 471.5325 169.92 
L 472.23 169.92 
L 472.9275 169.92 
L 473.625 169.92 
L 474.3225 169.92 
L 475.02 169.92 
L 475.7175 169.92 
L 476.415 169.92 
L 477.1125 169.92 
L 477.81 169.92 
L 478.5075 169.92 
L 479.205 169.92 
L 479.9025 169.92 
L 480.6 169.92 
L 481.2975 169.92 
L 481.995 169.92 
L 482.6925 169.92 
L 483.39 169.92 
L 484.0875 169.92 
L 484.785 169.92 
L 485.4825 169.92 
L 486.18 169.92 
L 486.8775 169.92 
L 487.575 169.92 
L 488.2725 169.92 
L 488.97 169.92 
L 489.6675 169.92 
L 490.365 169.92 
L 491.0625 169.92 
L 491.76 169.92 
L 492.4575 169.92 
L 493.155 169.92 
L 493.8525 169.92 
L 494.55 169.92 
L 495.2475 169.92 
L 495.945 169.92 
L 496.6425 169.92 
L 497.34 169.92 
L 498.0375 169.92 
L 498.735 169.92 
L 499.4325 169.92 
L 500.13 169.92 
L 500.8275 169.92 
L 501.525 169.92 
L 502.2225 169.92 
L 502.92 169.92 
L 503.6175 169.92 
L 504.315 169.92 
L 505.0125 169.92 
L 505.71 169.92 
L 506.4075 169.92 
L 507.105 169.92 
L 507.8025 169.92 
L 508.5 169.92 
L 509.1975 169.92 
L 509.895 169.92 
L 510.5925 169.92 
L 511.29 169.92 
L 511.9875 169.92 
L 512.685 169.92 
L 513.3825 169.92 
L 514.08 169.92 
L 514.7775 169.92 
L 515.475 169.92 
L 516.1725 169.92 
L 516.87 169.92 
L 517.5675 169.92 
L 518.265 169.92 
L 518.9625 169.92 
L 519.66 169.92 
L 520.3575 169.92 
L 521.055 169.92 
L 521.7525 169.92 
L 522.45 169.92 
L 523.1475 169.92 
L 523.845 169.92 
L 524.5425 169.92 
L 525.24 169.92 
L 525.9375 169.92 
L 526.635 169.92 
L 527.3325 169.92 
L 528.03 169.92 
L 528.7275 169.92 
L 529.425 169.92 
L 530.1225 169.92 
L 530.82 169.92 
L 531.5175 169.92 
L 532.215 169.92 
L 532.9125 169.92 
L 533.61 169.92 
L 534.3075 169.92 
L 535.005 169.92 
L 535.7025 169.92 
L 536.4 169.92 
L 537.0975 169.92 
L 537.795 169.92 
L 538.4925 169.92 
L 539.19 169.92 
L 539.8875 169.92 
L 540.585 169.92 
L 541.2825 169.92 
L 541.98 169.92 
L 542.6775 169.92 
L 543.375 169.92 
L 544.0725 169.92 
L 544.77 169.92 
L 545.4675 169.92 
L 546.165 169.92 
L 546.8625 169.92 
L 547.56 169.92 
L 548.2575 169.92 
L 548.955 169.92 
L 549.6525 169.92 
L 550.35 169.92 
L 551.0475 169.92 
L 551.745 169.92 
L 552.4425 169.92 
L 553.14 169.92 
L 553.8375 169.92 
L 554.535 169.92 
L 555.2325 169.92 
L 555.93 169.92 
L 556.6275 169.92 
L 557.325 169.92 
L 558.0225 169.92 
L 558.72 169.92 
L 559.4175 169.92 
L 560.115 169.92 
L 560.8125 169.92 
L 561.51 169.92 
L 562.2075 169.92 
L 562.905 169.92 
L 563.6025 169.92 
L 564.3 169.92 
L 564.9975 169.92 
L 565.695 169.92 
L 566.3925 169.92 
L 567.09 169.92 
L 567.7875 169.92 
L 568.485 169.92 
L 569.1825 169.92 
L 569.88 169.92 
L 570.5775 169.92 
L 571.275 169.92 
L 571.9725 169.92 
L 572.67 169.92 
L 573.3675 169.92 
L 574.065 169.92 
L 574.7625 169.92 
L 575.46 169.92 
L 576.1575 169.92 
L 576.855 169.92 
L 577.5525 169.92 
L 578.25 169.92 
L 578.9475 169.92 
L 579.645 169.92 
L 580.3425 169.92 
L 581.04 169.92 
L 581.7375 169.92 
L 582.435 169.92 
L 583.1325 169.92 
L 583.83 169.92 
L 584.5275 169.92 
L 585.225 169.92 
L 585.9225 169.92 
L 586.62 169.92 
L 587.3175 169.92 
L 588.015 169.92 
L 588.7125 169.92 
L 589.41 169.92 
L 590.1075 169.92 
L 590.805 169.92 
L 591.5025 169.92 
L 592.2 169.92 
L 592.8975 169.92 
L 593.595 169.92 
L 594.2925 169.92 
L 594.99 169.92 
L 595.6875 169.92 
L 596.385 169.92 
L 597.0825 169.92 
L 597.78 169.92 
L 598.4775 169.92 
L 599.175 169.92 
L 599.8725 169.92 
L 600.57 169.92 
L 601.2675 169.92 
L 601.965 169.92 
L 602.6625 169.92 
L 603.36 169.92 
L 604.0575 169.92 
L 604.755 169.92 
L 605.4525 169.92 
L 606.15 169.92 
L 606.8475 169.92 
L 607.545 169.92 
L 608.2425 169.92 
L 608.94 169.92 
L 609.6375 169.92 
L 610.335 169.92 
L 611.0325 169.92 
L 611.73 169.92 
L 612.4275 169.92 
L 613.125 169.92 
L 613.8225 169.92 
L 614.52 169.92 
L 615.2175 169.92 
L 615.915 169.92 
L 616.6125 169.92 
L 617.31 169.92 
L 618.0075 169.92 
L 618.705 169.92 
L 619.4025 169.92 
L 620.1 169.92 
L 620.7975 169.92 
L 621.495 169.92 
L 622.1925 169.92 
L 622.89 169.92 
L 623.5875 169.92 
L 624.285 169.92 
L 624.9825 169.92 
L 625.68 169.92 
L 626.3775 169.92 
L 627.075 169.92 
L 627.7725 169.92 
L 628.47 169.92 
L 629.1675 169.92 
L 629.865 169.92 
L 630.5625 169.92 
L 631.26 169.92 
L 631.9575 169.92 
L 632.655 169.92 
L 633.3525 169.92 
L 634.05 169.92 
L 634.7475 169.92 
L 635.445 169.92 
L 636.1425 169.92 
L 636.84 169.92 
L 637.5375 169.92 
L 638.235 169.92 
L 638.9325 169.92 
L 639.63 169.92 
L 640.3275 169.92 
L 641.025 169.92 
L 641.7225 169.92 
L 642.42 169.92 
L 643.1175 169.92 
L 643.815 169.92 
L 644.5125 169.92 
L 645.21 169.92 
L 645.9075 169.92 
L 646.605 169.92 
L 646.605 169.92 
L 646.605 169.92 
L 645.9075 169.920395 
L 645.21 169.92132 
L 644.5125 169.922909 
L 643.815 169.925288 
L 643.1175 169.92858 
L 642.42 169.932901 
L 641.7225 169.938361 
L 641.025 169.94506 
L 640.3275 169.953091 
L 639.63 169.962538 
L 638.9325 169.973475 
L 638.235 169.985967 
L 637.5375 170.000066 
L 636.84 170.015817 
L 636.1425 170.03325 
L 635.445 170.052387 
L 634.7475 170.073238 
L 634.05 170.0958 
L 633.3525 170.120063 
L 632.655 170.146002 
L 631.9575 170.173584 
L 631.26 170.202763 
L 630.5625 170.233488 
L 629.865 170.265693 
L 629.1675 170.299308 
L 628.47 170.334251 
L 627.7725 170.370435 
L 627.075 170.407765 
L 626.3775 170.44614 
L 625.68 170.485455 
L 624.9825 170.525599 
L 624.285 170.566457 
L 623.5875 170.607914 
L 622.89 170.64985 
L 622.1925 170.692146 
L 621.495 170.734682 
L 620.7975 170.777338 
L 620.1 170.819998 
L 619.4025 170.862547 
L 618.705 170.904872 
L 618.0075 170.946865 
L 617.31 170.988423 
L 616.6125 171.029448 
L 615.915 171.069848 
L 615.2175 171.109537 
L 614.52 171.148435 
L 613.8225 171.186471 
L 613.125 171.223582 
L 612.4275 171.25971 
L 611.73 171.294808 
L 611.0325 171.328837 
L 610.335 171.361765 
L 609.6375 171.393569 
L 608.94 171.424233 
L 608.2425 171.453753 
L 607.545 171.482129 
L 606.8475 171.509369 
L 606.15 171.535491 
L 605.4525 171.560517 
L 604.755 171.584478 
L 604.0575 171.607408 
L 603.36 171.62935 
L 602.6625 171.650349 
L 601.965 171.670455 
L 601.2675 171.689724 
L 600.57 171.708213 
L 599.8725 171.72598 
L 599.175 171.743089 
L 598.4775 171.759601 
L 597.78 171.77558 
L 597.0825 171.791088 
L 596.385 171.80619 
L 595.6875 171.820944 
L 594.99 171.835411 
L 594.2925 171.849647 
L 593.595 171.863706 
L 592.8975 171.877639 
L 592.2 171.891492 
L 591.5025 171.905308 
L 590.805 171.919125 
L 590.1075 171.932976 
L 589.41 171.946892 
L 588.7125 171.960894 
L 588.015 171.975004 
L 587.3175 171.989233 
L 586.62 172.003592 
L 585.9225 172.018083 
L 585.225 172.032708 
L 584.5275 172.04746 
L 583.83 172.06233 
L 583.1325 172.077305 
L 582.435 172.092369 
L 581.7375 172.107502 
L 581.04 172.122681 
L 580.3425 172.137881 
L 579.645 172.153076 
L 578.9475 172.168237 
L 578.25 172.183338 
L 577.5525 172.198348 
L 576.855 172.21324 
L 576.1575 172.227985 
L 575.46 172.242559 
L 574.7625 172.256935 
L 574.065 172.271092 
L 573.3675 172.285012 
L 572.67 172.298677 
L 571.9725 172.312075 
L 571.275 172.325199 
L 570.5775 172.338043 
L 569.88 172.350609 
L 569.1825 172.3629 
L 568.485 172.374928 
L 567.7875 172.386706 
L 567.09 172.398254 
L 566.3925 172.409599 
L 565.695 172.420768 
L 564.9975 172.431798 
L 564.3 172.442726 
L 563.6025 172.453597 
L 562.905 172.464458 
L 562.2075 172.47536 
L 561.51 172.486358 
L 560.8125 172.497509 
L 560.115 172.508873 
L 559.4175 172.520511 
L 558.72 172.532486 
L 558.0225 172.544861 
L 557.325 172.5577 
L 556.6275 172.571065 
L 555.93 172.585017 
L 555.2325 172.599617 
L 554.535 172.614921 
L 553.8375 172.630983 
L 553.14 172.647853 
L 552.4425 172.665577 
L 551.745 172.684194 
L 551.0475 172.70374 
L 550.35 172.724244 
L 549.6525 172.745727 
L 548.955 172.768205 
L 548.2575 172.791686 
L 547.56 172.81617 
L 546.8625 172.841648 
L 546.165 172.868106 
L 545.4675 172.895518 
L 544.77 172.923852 
L 544.0725 172.953067 
L 543.375 172.983114 
L 542.6775 173.013936 
L 541.98 173.045466 
L 541.2825 173.077634 
L 540.585 173.110357 
L 539.8875 173.143551 
L 539.19 173.177121 
L 538.4925 173.210968 
L 537.795 173.244989 
L 537.0975 173.279076 
L 536.4 173.313115 
L 535.7025 173.346992 
L 535.005 173.380589 
L 534.3075 173.413787 
L 533.61 173.446466 
L 532.9125 173.478508 
L 532.215 173.509794 
L 531.5175 173.540208 
L 530.82 173.569637 
L 530.1225 173.597971 
L 529.425 173.625107 
L 528.7275 173.650944 
L 528.03 173.675389 
L 527.3325 173.698356 
L 526.635 173.719767 
L 525.9375 173.739551 
L 525.24 173.757647 
L 524.5425 173.774003 
L 523.845 173.788578 
L 523.1475 173.801339 
L 522.45 173.812265 
L 521.7525 173.821347 
L 521.055 173.828585 
L 520.3575 173.833992 
L 519.66 173.837591 
L 518.9625 173.839416 
L 518.265 173.839513 
L 517.5675 173.837938 
L 516.87 173.834757 
L 516.1725 173.830046 
L 515.475 173.823891 
L 514.7775 173.816388 
L 514.08 173.807638 
L 513.3825 173.797754 
L 512.685 173.786852 
L 511.9875 173.775056 
L 511.29 173.762496 
L 510.5925 173.749305 
L 509.895 173.73562 
L 509.1975 173.721581 
L 508.5 173.707328 
L 507.8025 173.693003 
L 507.105 173.678749 
L 506.4075 173.664704 
L 505.71 173.651007 
L 505.0125 173.637792 
L 504.315 173.625189 
L 503.6175 173.613325 
L 502.92 173.602318 
L 502.2225 173.592281 
L 501.525 173.58332 
L 500.8275 173.575532 
L 500.13 173.569005 
L 499.4325 173.563819 
L 498.735 173.560042 
L 498.0375 173.557734 
L 497.34 173.556942 
L 496.6425 173.557705 
L 495.945 173.560049 
L 495.2475 173.56399 
L 494.55 173.569531 
L 493.8525 173.576665 
L 493.155 173.585375 
L 492.4575 173.595632 
L 491.76 173.607398 
L 491.0625 173.620622 
L 490.365 173.635248 
L 489.6675 173.651206 
L 488.97 173.66842 
L 488.2725 173.686808 
L 487.575 173.706277 
L 486.8775 173.726731 
L 486.18 173.748066 
L 485.4825 173.770173 
L 484.785 173.792942 
L 484.0875 173.816257 
L 483.39 173.84 
L 482.6925 173.864054 
L 481.995 173.888298 
L 481.2975 173.912614 
L 480.6 173.936884 
L 479.9025 173.960993 
L 479.205 173.984827 
L 478.5075 174.008278 
L 477.81 174.031239 
L 477.1125 174.053613 
L 476.415 174.075303 
L 475.7175 174.096222 
L 475.02 174.116288 
L 474.3225 174.135427 
L 473.625 174.153572 
L 472.9275 174.170663 
L 472.23 174.18665 
L 471.5325 174.20149 
L 470.835 174.215149 
L 470.1375 174.2276 
L 469.44 174.238825 
L 468.7425 174.248815 
L 468.045 174.257568 
L 467.3475 174.26509 
L 466.65 174.271396 
L 465.9525 174.276506 
L 465.255 174.280446 
L 464.5575 174.283252 
L 463.86 174.284963 
L 463.1625 174.285622 
L 462.465 174.28528 
L 461.7675 174.28399 
L 461.07 174.281809 
L 460.3725 174.278795 
L 459.675 174.275011 
L 458.9775 174.27052 
L 458.28 174.265384 
L 457.5825 174.259669 
L 456.885 174.253438 
L 456.1875 174.246752 
L 455.49 174.239674 
L 454.7925 174.23226 
L 454.095 174.224569 
L 453.3975 174.216651 
L 452.7 174.208557 
L 452.0025 174.200331 
L 451.305 174.192015 
L 450.6075 174.183645 
L 449.91 174.175253 
L 449.2125 174.166865 
L 448.515 174.158504 
L 447.8175 174.150187 
L 447.12 174.141924 
L 446.4225 174.133724 
L 445.725 174.125589 
L 445.0275 174.117515 
L 444.33 174.109498 
L 443.6325 174.101525 
L 442.935 174.093583 
L 442.2375 174.085653 
L 441.54 174.077716 
L 440.8425 174.069748 
L 440.145 174.061724 
L 439.4475 174.053617 
L 438.75 174.045401 
L 438.0525 174.037047 
L 437.355 174.028527 
L 436.6575 174.019814 
L 435.96 174.010882 
L 435.2625 174.001706 
L 434.565 173.992265 
L 433.8675 173.982537 
L 433.17 173.972507 
L 432.4725 173.962161 
L 431.775 173.95149 
L 431.0775 173.940487 
L 430.38 173.929153 
L 429.6825 173.91749 
L 428.985 173.905508 
L 428.2875 173.893219 
L 427.59 173.880642 
L 426.8925 173.8678 
L 426.195 173.854722 
L 425.4975 173.841441 
L 424.8 173.827994 
L 424.1025 173.814424 
L 423.405 173.800778 
L 422.7075 173.787106 
L 422.01 173.773462 
L 421.3125 173.759903 
L 420.615 173.746488 
L 419.9175 173.733278 
L 419.22 173.720338 
L 418.5225 173.70773 
L 417.825 173.695518 
L 417.1275 173.683768 
L 416.43 173.672541 
L 415.7325 173.661899 
L 415.035 173.651901 
L 414.3375 173.642603 
L 413.64 173.634057 
L 412.9425 173.626313 
L 412.245 173.619414 
L 411.5475 173.613397 
L 410.85 173.608296 
L 410.1525 173.604136 
L 409.455 173.600937 
L 408.7575 173.598711 
L 408.06 173.597461 
L 407.3625 173.597186 
L 406.665 173.597873 
L 405.9675 173.599502 
L 405.27 173.602046 
L 404.5725 173.605468 
L 403.875 173.609724 
L 403.1775 173.614761 
L 402.48 173.620517 
L 401.7825 173.626925 
L 401.085 173.633908 
L 400.3875 173.641384 
L 399.69 173.649263 
L 398.9925 173.657449 
L 398.295 173.665841 
L 397.5975 173.674335 
L 396.9 173.682819 
L 396.2025 173.691181 
L 395.505 173.699306 
L 394.8075 173.707074 
L 394.11 173.714369 
L 393.4125 173.72107 
L 392.715 173.727061 
L 392.0175 173.732226 
L 391.32 173.736449 
L 390.6225 173.739621 
L 389.925 173.741637 
L 389.2275 173.742394 
L 388.53 173.741797 
L 387.8325 173.739758 
L 387.135 173.736196 
L 386.4375 173.731037 
L 385.74 173.724217 
L 385.0425 173.71568 
L 384.345 173.70538 
L 383.6475 173.693283 
L 382.95 173.679363 
L 382.2525 173.663606 
L 381.555 173.646008 
L 380.8575 173.626578 
L 380.16 173.605335 
L 379.4625 173.582308 
L 378.765 173.557539 
L 378.0675 173.531081 
L 377.37 173.502995 
L 376.6725 173.473355 
L 375.975 173.442242 
L 375.2775 173.409748 
L 374.58 173.375975 
L 373.8825 173.341029 
L 373.185 173.305026 
L 372.4875 173.268089 
L 371.79 173.230344 
L 371.0925 173.191925 
L 370.395 173.152967 
L 369.6975 173.113611 
L 369 173.073996 
L 368.3025 173.034267 
L 367.605 172.994564 
L 366.9075 172.955031 
L 366.21 172.915806 
L 365.5125 172.877026 
L 364.815 172.838826 
L 364.1175 172.801333 
L 363.42 172.76467 
L 362.7225 172.728955 
L 362.025 172.694296 
L 361.3275 172.660796 
L 360.63 172.628549 
L 359.9325 172.597637 
L 359.235 172.568136 
L 358.5375 172.540111 
L 357.84 172.513615 
L 357.1425 172.488692 
L 356.445 172.465373 
L 355.7475 172.443681 
L 355.05 172.423626 
L 354.3525 172.405205 
L 353.655 172.388408 
L 352.9575 172.37321 
L 352.26 172.35958 
L 351.5625 172.347472 
L 350.865 172.336834 
L 350.1675 172.327603 
L 349.47 172.319706 
L 348.7725 172.313066 
L 348.075 172.307593 
L 347.3775 172.303195 
L 346.68 172.299771 
L 345.9825 172.297217 
L 345.285 172.295423 
L 344.5875 172.294276 
L 343.89 172.29366 
L 343.1925 172.293458 
L 342.495 172.293551 
L 341.7975 172.293822 
L 341.1 172.294153 
L 340.4025 172.294427 
L 339.705 172.294531 
L 339.0075 172.294356 
L 338.31 172.293794 
L 337.6125 172.292745 
L 336.915 172.291111 
L 336.2175 172.288803 
L 335.52 172.285737 
L 334.8225 172.281836 
L 334.125 172.27703 
L 333.4275 172.271258 
L 332.73 172.264464 
L 332.0325 172.256605 
L 331.335 172.247641 
L 330.6375 172.237544 
L 329.94 172.226293 
L 329.2425 172.213875 
L 328.545 172.200287 
L 327.8475 172.18553 
L 327.15 172.169617 
L 326.4525 172.152566 
L 325.755 172.134402 
L 325.0575 172.115156 
L 324.36 172.094867 
L 323.6625 172.073577 
L 322.965 172.051334 
L 322.2675 172.028192 
L 321.57 172.004204 
L 320.8725 171.979432 
L 320.175 171.953935 
L 319.4775 171.927778 
L 318.78 171.901024 
L 318.0825 171.873738 
L 317.385 171.845984 
L 316.6875 171.817827 
L 315.99 171.789328 
L 315.2925 171.760548 
L 314.595 171.731545 
L 313.8975 171.702373 
L 313.2 171.673084 
L 312.5025 171.643727 
L 311.805 171.614344 
L 311.1075 171.584975 
L 310.41 171.555655 
L 309.7125 171.526413 
L 309.015 171.497273 
L 308.3175 171.468257 
L 307.62 171.439379 
L 306.9225 171.410648 
L 306.225 171.38207 
L 305.5275 171.353645 
L 304.83 171.325369 
L 304.1325 171.297233 
L 303.435 171.269227 
L 302.7375 171.241333 
L 302.04 171.213534 
L 301.3425 171.185808 
L 300.645 171.158131 
L 299.9475 171.130479 
L 299.25 171.102824 
L 298.5525 171.07514 
L 297.855 171.047399 
L 297.1575 171.019574 
L 296.46 170.99164 
L 295.7625 170.963571 
L 295.065 170.935345 
L 294.3675 170.906941 
L 293.67 170.878341 
L 292.9725 170.849532 
L 292.275 170.820503 
L 291.5775 170.791246 
L 290.88 170.76176 
L 290.1825 170.732047 
L 289.485 170.702112 
L 288.7875 170.671969 
L 288.09 170.641634 
L 287.3925 170.611127 
L 286.695 170.580477 
L 285.9975 170.549715 
L 285.3 170.518877 
L 284.6025 170.488003 
L 283.905 170.45714 
L 283.2075 170.426337 
L 282.51 170.395645 
L 281.8125 170.365122 
L 281.115 170.334827 
L 280.4175 170.304819 
L 279.72 170.275164 
L 279.0225 170.245924 
L 278.325 170.217164 
L 277.6275 170.188949 
L 276.93 170.161343 
L 276.2325 170.134409 
L 275.535 170.108206 
L 274.8375 170.082794 
L 274.14 170.058227 
L 273.4425 170.034556 
L 272.745 170.011827 
L 272.0475 169.990082 
L 271.35 169.969356 
L 270.6525 169.949678 
L 269.955 169.931072 
L 269.2575 169.913553 
L 268.56 169.897131 
L 267.8625 169.881804 
L 267.165 169.867567 
L 266.4675 169.854404 
L 265.77 169.84229 
L 265.0725 169.831195 
L 264.375 169.821077 
L 263.6775 169.811887 
L 262.98 169.80357 
L 262.2825 169.79606 
L 261.585 169.789285 
L 260.8875 169.783166 
L 260.19 169.777616 
L 259.4925 169.772544 
L 258.795 169.76785 
L 258.0975 169.763433 
L 257.4 169.759184 
L 256.7025 169.754992 
L 256.005 169.750742 
L 255.3075 169.746319 
L 254.61 169.741604 
L 253.9125 169.736479 
L 253.215 169.730826 
L 252.5175 169.724528 
L 251.82 169.717471 
L 251.1225 169.709543 
L 250.425 169.700637 
L 249.7275 169.690649 
L 249.03 169.679481 
L 248.3325 169.667043 
L 247.635 169.653249 
L 246.9375 169.638024 
L 246.24 169.621299 
L 245.5425 169.603014 
L 244.845 169.58312 
L 244.1475 169.561577 
L 243.45 169.538356 
L 242.7525 169.513438 
L 242.055 169.486814 
L 241.3575 169.458488 
L 240.66 169.428474 
L 239.9625 169.396798 
L 239.265 169.363497 
L 238.5675 169.328617 
L 237.87 169.292216 
L 237.1725 169.254364 
L 236.475 169.215139 
L 235.7775 169.174628 
L 235.08 169.132928 
L 234.3825 169.090144 
L 233.685 169.046389 
L 232.9875 169.001781 
L 232.29 168.956447 
L 231.5925 168.910517 
L 230.895 168.864126 
L 230.1975 168.817412 
L 229.5 168.770515 
L 228.8025 168.723579 
L 228.105 168.676746 
L 227.4075 168.630159 
L 226.71 168.583958 
L 226.0125 168.538282 
L 225.315 168.493267 
L 224.6175 168.449042 
L 223.92 168.405735 
L 223.2225 168.363465 
L 222.525 168.322345 
L 221.8275 168.282482 
L 221.13 168.243971 
L 220.4325 168.206903 
L 219.735 168.171356 
L 219.0375 168.137399 
L 218.34 168.105092 
L 217.6425 168.074482 
L 216.945 168.045609 
L 216.2475 168.018497 
L 215.55 167.993162 
L 214.8525 167.969608 
L 214.155 167.947829 
L 213.4575 167.927806 
L 212.76 167.909511 
L 212.0625 167.892905 
L 211.365 167.877938 
L 210.6675 167.864553 
L 209.97 167.852682 
L 209.2725 167.842249 
L 208.575 167.833169 
L 207.8775 167.825353 
L 207.18 167.818703 
L 206.4825 167.813117 
L 205.785 167.808486 
L 205.0875 167.8047 
L 204.39 167.801643 
L 203.6925 167.799201 
L 202.995 167.797253 
L 202.2975 167.795683 
L 201.6 167.794371 
L 200.9025 167.793202 
L 200.205 167.79206 
L 199.5075 167.790835 
L 198.81 167.789417 
L 198.1125 167.787704 
L 197.415 167.785595 
L 196.7175 167.782999 
L 196.02 167.779829 
L 195.3225 167.776004 
L 194.625 167.771451 
L 193.9275 167.766105 
L 193.23 167.759909 
L 192.5325 167.752812 
L 191.835 167.744773 
L 191.1375 167.73576 
L 190.44 167.725748 
L 189.7425 167.71472 
L 189.045 167.702669 
L 188.3475 167.689593 
L 187.65 167.675501 
L 186.9525 167.660408 
L 186.255 167.644336 
L 185.5575 167.627313 
L 184.86 167.609375 
L 184.1625 167.590562 
L 183.465 167.57092 
L 182.7675 167.550499 
L 182.07 167.529354 
L 181.3725 167.507542 
L 180.675 167.485124 
L 179.9775 167.462161 
L 179.28 167.438718 
L 178.5825 167.414858 
L 177.885 167.390648 
L 177.1875 167.366149 
L 176.49 167.341426 
L 175.7925 167.31654 
L 175.095 167.291549 
L 174.3975 167.26651 
L 173.7 167.241475 
L 173.0025 167.216495 
L 172.305 167.191614 
L 171.6075 167.166874 
L 170.91 167.142311 
L 170.2125 167.117958 
L 169.515 167.09384 
L 168.8175 167.06998 
L 168.12 167.046395 
L 167.4225 167.023097 
L 166.725 167.000093 
L 166.0275 166.977385 
L 165.33 166.954972 
L 164.6325 166.932845 
L 163.935 166.910995 
L 163.2375 166.889408 
L 162.54 166.868066 
L 161.8425 166.846948 
L 161.145 166.826032 
L 160.4475 166.805293 
L 159.75 166.784705 
L 159.0525 166.764241 
L 158.355 166.743872 
L 157.6575 166.723573 
L 156.96 166.703315 
L 156.2625 166.683073 
L 155.565 166.662823 
L 154.8675 166.642544 
L 154.17 166.622216 
L 153.4725 166.601823 
L 152.775 166.581353 
L 152.0775 166.560796 
L 151.38 166.540148 
L 150.6825 166.519408 
L 149.985 166.498582 
L 149.2875 166.477677 
L 148.59 166.456709 
L 147.8925 166.435696 
L 147.195 166.414662 
L 146.4975 166.393637 
L 145.8 166.372654 
L 145.1025 166.351752 
L 144.405 166.330974 
L 143.7075 166.310367 
L 143.01 166.289982 
L 142.3125 166.269873 
L 141.615 166.250099 
L 140.9175 166.230717 
L 140.22 166.211791 
L 139.5225 166.193384 
L 138.825 166.17556 
L 138.1275 166.158383 
L 137.43 166.141917 
L 136.7325 166.126226 
L 136.035 166.11137 
L 135.3375 166.097408 
L 134.64 166.084397 
L 133.9425 166.072388 
L 133.245 166.06143 
L 132.5475 166.051567 
L 131.85 166.042835 
L 131.1525 166.035267 
L 130.455 166.028889 
L 129.7575 166.023718 
L 129.06 166.019767 
L 128.3625 166.01704 
L 127.665 166.015532 
L 126.9675 166.01523 
L 126.27 166.016116 
L 125.5725 166.018159 
L 124.875 166.021324 
L 124.1775 166.025563 
L 123.48 166.030825 
L 122.7825 166.037047 
L 122.085 166.04416 
L 121.3875 166.052087 
L 120.69 166.060746 
L 119.9925 166.070045 
L 119.295 166.079888 
L 118.5975 166.090175 
L 117.9 166.100799 
L 117.2025 166.11165 
L 116.505 166.122614 
L 115.8075 166.133575 
L 115.11 166.144416 
L 114.4125 166.155018 
L 113.715 166.165261 
L 113.0175 166.175029 
L 112.32 166.184204 
L 111.6225 166.192674 
L 110.925 166.200328 
L 110.2275 166.20706 
L 109.53 166.21277 
L 108.8325 166.217362 
L 108.135 166.220749 
L 107.4375 166.22285 
L 106.74 166.223592 
L 106.0425 166.22291 
L 105.345 166.220751 
L 104.6475 166.21707 
L 103.95 166.211831 
L 103.2525 166.205011 
L 102.555 166.196595 
L 101.8575 166.186581 
L 101.16 166.174979 
L 100.4625 166.161808 
L 99.765 166.147098 
L 99.0675 166.130892 
L 98.37 166.113243 
L 97.6725 166.094213 
L 96.975 166.073876 
L 96.2775 166.052315 
L 95.58 166.029623 
L 94.8825 166.005899 
L 94.185 165.981252 
L 93.4875 165.955798 
L 92.79 165.92966 
L 92.0925 165.902964 
L 91.395 165.875844 
L 90.6975 165.848436 
L 90 165.820878 
z
" style="fill:#e0ffff;"/>
   </g>
   <g id="line2d_19">
    <path clip-path="url(#pae927e9031)" d="M 90 165.820878 
L 101.8575 166.186581 
L 110.2275 166.20706 
L 133.9425 166.072388 
L 146.4975 166.393637 
L 196.02 167.779829 
L 214.8525 167.969608 
L 222.525 168.322345 
L 246.24 169.621299 
L 256.005 169.750742 
L 270.6525 169.949678 
L 281.8125 170.365122 
L 322.2675 172.028192 
L 332.73 172.264464 
L 360.63 172.628549 
L 386.4375 173.731037 
L 395.505 173.699306 
L 411.5475 173.613397 
L 425.4975 173.841441 
L 446.4225 174.133724 
L 466.65 174.271396 
L 476.415 174.075303 
L 495.945 173.560049 
L 505.0125 173.637792 
L 520.3575 173.833992 
L 528.03 173.675389 
L 539.19 173.177121 
L 551.0475 172.70374 
L 564.3 172.442726 
L 590.805 171.919125 
L 607.545 171.482129 
L 618.0075 170.946865 
L 633.3525 170.120063 
L 641.7225 169.938361 
L 646.605 169.92 
L 646.605 169.92 
" style="fill:none;stroke:#008080;stroke-linecap:round;stroke-width:1.75;"/>
   </g>
   <g id="patch_3">
    <path d="M 90 270.72 
L 90 69.12 
" style="fill:none;stroke:#262626;stroke-linecap:square;stroke-linejoin:miter;stroke-width:1.25;"/>
   </g>
   <g id="patch_4">
    <path d="M 90 270.72 
L 648 270.72 
" style="fill:none;stroke:#262626;stroke-linecap:square;stroke-linejoin:miter;stroke-width:1.25;"/>
   </g>
  </g>
  <g id="axes_2">
   <g id="patch_5">
    <path d="M 90 512.64 
L 648 512.64 
L 648 311.04 
L 90 311.04 
z
" style="fill:#ffffff;"/>
   </g>
   <g id="matplotlib.axis_3">
    <g id="xtick_10">
     <g id="line2d_20">
      <g>
       <use style="fill:#262626;stroke:#262626;" x="191.454545" xlink:href="#mfaf1163cd3" y="512.64"/>
      </g>
     </g>
     <g id="text_19">
      <!-- 200 -->
      <g style="fill:#262626;" transform="translate(183.113139 532.797812)scale(0.1 -0.1)">
       <use xlink:href="#ArialMT-32"/>
       <use x="55.615234" xlink:href="#ArialMT-30"/>
       <use x="111.230469" xlink:href="#ArialMT-30"/>
      </g>
     </g>
    </g>
    <g id="xtick_11">
     <g id="line2d_21">
      <g>
       <use style="fill:#262626;stroke:#262626;" x="304.181818" xlink:href="#mfaf1163cd3" y="512.64"/>
      </g>
     </g>
     <g id="text_20">
      <!-- 400 -->
      <g style="fill:#262626;" transform="translate(295.840412 532.797812)scale(0.1 -0.1)">
       <use xlink:href="#ArialMT-34"/>
       <use x="55.615234" xlink:href="#ArialMT-30"/>
       <use x="111.230469" xlink:href="#ArialMT-30"/>
      </g>
     </g>
    </g>
    <g id="xtick_12">
     <g id="line2d_22">
      <g>
       <use style="fill:#262626;stroke:#262626;" x="416.909091" xlink:href="#mfaf1163cd3" y="512.64"/>
      </g>
     </g>
     <g id="text_21">
      <!-- 600 -->
      <g style="fill:#262626;" transform="translate(408.567685 532.797812)scale(0.1 -0.1)">
       <use xlink:href="#ArialMT-36"/>
       <use x="55.615234" xlink:href="#ArialMT-30"/>
       <use x="111.230469" xlink:href="#ArialMT-30"/>
      </g>
     </g>
    </g>
    <g id="xtick_13">
     <g id="line2d_23">
      <g>
       <use style="fill:#262626;stroke:#262626;" x="529.636364" xlink:href="#mfaf1163cd3" y="512.64"/>
      </g>
     </g>
     <g id="text_22">
      <!-- 800 -->
      <g style="fill:#262626;" transform="translate(521.294957 532.797812)scale(0.1 -0.1)">
       <use xlink:href="#ArialMT-38"/>
       <use x="55.615234" xlink:href="#ArialMT-30"/>
       <use x="111.230469" xlink:href="#ArialMT-30"/>
      </g>
     </g>
    </g>
    <g id="xtick_14">
     <g id="line2d_24">
      <g>
       <use style="fill:#262626;stroke:#262626;" x="642.363636" xlink:href="#mfaf1163cd3" y="512.64"/>
      </g>
     </g>
     <g id="text_23">
      <!-- 1000 -->
      <g style="fill:#262626;" transform="translate(631.241761 532.797812)scale(0.1 -0.1)">
       <use xlink:href="#ArialMT-31"/>
       <use x="55.615234" xlink:href="#ArialMT-30"/>
       <use x="111.230469" xlink:href="#ArialMT-30"/>
       <use x="166.845703" xlink:href="#ArialMT-30"/>
      </g>
     </g>
    </g>
   </g>
   <g id="matplotlib.axis_4">
    <g id="ytick_10">
     <g id="line2d_25">
      <g>
       <use style="fill:#262626;stroke:#262626;" x="90" xlink:href="#m6d52f42226" y="512.64"/>
      </g>
     </g>
     <g id="text_24">
      <!-- 0 -->
      <g style="fill:#262626;" transform="translate(71.439063 516.218906)scale(0.1 -0.1)">
       <use xlink:href="#ArialMT-30"/>
      </g>
     </g>
    </g>
    <g id="ytick_11">
     <g id="line2d_26">
      <g>
       <use style="fill:#262626;stroke:#262626;" x="90" xlink:href="#m6d52f42226" y="487.44"/>
      </g>
     </g>
     <g id="text_25">
      <!-- 5 -->
      <g style="fill:#262626;" transform="translate(71.439063 491.018906)scale(0.1 -0.1)">
       <use xlink:href="#ArialMT-35"/>
      </g>
     </g>
    </g>
    <g id="ytick_12">
     <g id="line2d_27">
      <g>
       <use style="fill:#262626;stroke:#262626;" x="90" xlink:href="#m6d52f42226" y="462.24"/>
      </g>
     </g>
     <g id="text_26">
      <!-- 10 -->
      <g style="fill:#262626;" transform="translate(65.878125 465.818906)scale(0.1 -0.1)">
       <use xlink:href="#ArialMT-31"/>
       <use x="55.615234" xlink:href="#ArialMT-30"/>
      </g>
     </g>
    </g>
    <g id="ytick_13">
     <g id="line2d_28">
      <g>
       <use style="fill:#262626;stroke:#262626;" x="90" xlink:href="#m6d52f42226" y="437.04"/>
      </g>
     </g>
     <g id="text_27">
      <!-- 15 -->
      <g style="fill:#262626;" transform="translate(65.878125 440.618906)scale(0.1 -0.1)">
       <use xlink:href="#ArialMT-31"/>
       <use x="55.615234" xlink:href="#ArialMT-35"/>
      </g>
     </g>
    </g>
    <g id="ytick_14">
     <g id="line2d_29">
      <g>
       <use style="fill:#262626;stroke:#262626;" x="90" xlink:href="#m6d52f42226" y="411.84"/>
      </g>
     </g>
     <g id="text_28">
      <!-- 20 -->
      <g style="fill:#262626;" transform="translate(65.878125 415.418906)scale(0.1 -0.1)">
       <use xlink:href="#ArialMT-32"/>
       <use x="55.615234" xlink:href="#ArialMT-30"/>
      </g>
     </g>
    </g>
    <g id="ytick_15">
     <g id="line2d_30">
      <g>
       <use style="fill:#262626;stroke:#262626;" x="90" xlink:href="#m6d52f42226" y="386.64"/>
      </g>
     </g>
     <g id="text_29">
      <!-- 25 -->
      <g style="fill:#262626;" transform="translate(65.878125 390.218906)scale(0.1 -0.1)">
       <use xlink:href="#ArialMT-32"/>
       <use x="55.615234" xlink:href="#ArialMT-35"/>
      </g>
     </g>
    </g>
    <g id="ytick_16">
     <g id="line2d_31">
      <g>
       <use style="fill:#262626;stroke:#262626;" x="90" xlink:href="#m6d52f42226" y="361.44"/>
      </g>
     </g>
     <g id="text_30">
      <!-- 30 -->
      <g style="fill:#262626;" transform="translate(65.878125 365.018906)scale(0.1 -0.1)">
       <use xlink:href="#ArialMT-33"/>
       <use x="55.615234" xlink:href="#ArialMT-30"/>
      </g>
     </g>
    </g>
    <g id="ytick_17">
     <g id="line2d_32">
      <g>
       <use style="fill:#262626;stroke:#262626;" x="90" xlink:href="#m6d52f42226" y="336.24"/>
      </g>
     </g>
     <g id="text_31">
      <!-- 35 -->
      <g style="fill:#262626;" transform="translate(65.878125 339.818906)scale(0.1 -0.1)">
       <use xlink:href="#ArialMT-33"/>
       <use x="55.615234" xlink:href="#ArialMT-35"/>
      </g>
     </g>
    </g>
    <g id="ytick_18">
     <g id="line2d_33">
      <g>
       <use style="fill:#262626;stroke:#262626;" x="90" xlink:href="#m6d52f42226" y="311.04"/>
      </g>
     </g>
     <g id="text_32">
      <!-- 40 -->
      <g style="fill:#262626;" transform="translate(65.878125 314.618906)scale(0.1 -0.1)">
       <use xlink:href="#ArialMT-34"/>
       <use x="55.615234" xlink:href="#ArialMT-30"/>
      </g>
     </g>
    </g>
   </g>
   <g id="line2d_34">
    <path clip-path="url(#pc56c2c0a54)" d="M 90 488.562059 
L 95.636364 492.871917 
L 101.272727 491.915277 
" style="fill:none;stroke:#b22222;stroke-linecap:round;stroke-width:1.75;"/>
   </g>
   <g id="patch_6">
    <path d="M 90 512.64 
L 90 311.04 
" style="fill:none;stroke:#262626;stroke-linecap:square;stroke-linejoin:miter;stroke-width:1.25;"/>
   </g>
   <g id="patch_7">
    <path d="M 90 512.64 
L 648 512.64 
" style="fill:none;stroke:#262626;stroke-linecap:square;stroke-linejoin:miter;stroke-width:1.25;"/>
   </g>
   <g id="text_33">
    <!-- f = 40 Hz -->
    <defs>
     <path d="M 8.6875 0 
L 8.6875 45.015625 
L 0.921875 45.015625 
L 0.921875 51.859375 
L 8.6875 51.859375 
L 8.6875 57.375 
Q 8.6875 62.59375 9.625 65.140625 
Q 10.890625 68.5625 14.078125 70.671875 
Q 17.28125 72.796875 23.046875 72.796875 
Q 26.765625 72.796875 31.25 71.921875 
L 29.9375 64.265625 
Q 27.203125 64.75 24.75 64.75 
Q 20.75 64.75 19.09375 63.03125 
Q 17.4375 61.328125 17.4375 56.640625 
L 17.4375 51.859375 
L 27.546875 51.859375 
L 27.546875 45.015625 
L 17.4375 45.015625 
L 17.4375 0 
z
" id="ArialMT-66"/>
     <path id="ArialMT-20"/>
     <path d="M 52.828125 42.09375 
L 5.5625 42.09375 
L 5.5625 50.296875 
L 52.828125 50.296875 
z
M 52.828125 20.359375 
L 5.5625 20.359375 
L 5.5625 28.5625 
L 52.828125 28.5625 
z
" id="ArialMT-3d"/>
     <path d="M 8.015625 0 
L 8.015625 71.578125 
L 17.484375 71.578125 
L 17.484375 42.1875 
L 54.6875 42.1875 
L 54.6875 71.578125 
L 64.15625 71.578125 
L 64.15625 0 
L 54.6875 0 
L 54.6875 33.734375 
L 17.484375 33.734375 
L 17.484375 0 
z
" id="ArialMT-48"/>
     <path d="M 1.953125 0 
L 1.953125 7.125 
L 34.96875 45.015625 
Q 29.34375 44.734375 25.046875 44.734375 
L 3.90625 44.734375 
L 3.90625 51.859375 
L 46.296875 51.859375 
L 46.296875 46.046875 
L 18.21875 13.140625 
L 12.796875 7.125 
Q 18.703125 7.5625 23.875 7.5625 
L 47.859375 7.5625 
L 47.859375 0 
z
" id="ArialMT-7a"/>
    </defs>
    <g style="fill:#262626;" transform="translate(529.636364 364.542187)scale(0.12 -0.12)">
     <use xlink:href="#ArialMT-66"/>
     <use x="27.783203" xlink:href="#ArialMT-20"/>
     <use x="55.566406" xlink:href="#ArialMT-3d"/>
     <use x="113.964844" xlink:href="#ArialMT-20"/>
     <use x="141.748047" xlink:href="#ArialMT-34"/>
     <use x="197.363281" xlink:href="#ArialMT-30"/>
     <use x="252.978516" xlink:href="#ArialMT-20"/>
     <use x="280.761719" xlink:href="#ArialMT-48"/>
     <use x="352.978516" xlink:href="#ArialMT-7a"/>
    </g>
   </g>
   <g id="PathCollection_1">
    <defs>
     <path d="M 0 3.5 
C 0.928211 3.5 1.81853 3.131218 2.474874 2.474874 
C 3.131218 1.81853 3.5 0.928211 3.5 0 
C 3.5 -0.928211 3.131218 -1.81853 2.474874 -2.474874 
C 1.81853 -3.131218 0.928211 -3.5 0 -3.5 
C -0.928211 -3.5 -1.81853 -3.131218 -2.474874 -2.474874 
C -3.131218 -1.81853 -3.5 -0.928211 -3.5 0 
C -3.5 0.928211 -3.131218 1.81853 -2.474874 2.474874 
C -1.81853 3.131218 -0.928211 3.5 0 3.5 
z
" id="mb179cd5fb9" style="stroke:#800000;stroke-width:0.3;"/>
    </defs>
    <g clip-path="url(#pc56c2c0a54)">
     <use style="fill:#800000;stroke:#800000;stroke-width:0.3;" x="101.272727" xlink:href="#mb179cd5fb9" y="491.915277"/>
    </g>
   </g>
  </g>
 </g>
 <defs>
  <clipPath id="pae927e9031">
   <rect height="201.6" width="558" x="90" y="69.12"/>
  </clipPath>
  <clipPath id="pc56c2c0a54">
   <rect height="201.6" width="558" x="90" y="311.04"/>
  </clipPath>
 </defs>
</svg>
