<?xml version="1.0" encoding="utf-8" standalone="no"?>
<!DOCTYPE svg PUBLIC "-//W3C//DTD SVG 1.1//EN"
  "http://www.w3.org/Graphics/SVG/1.1/DTD/svg11.dtd">
<!-- Created with matplotlib (http://matplotlib.org/) -->
<svg height="576pt" version="1.1" viewBox="0 0 720 576" width="720pt" xmlns="http://www.w3.org/2000/svg" xmlns:xlink="http://www.w3.org/1999/xlink">
 <defs>
  <style type="text/css">
*{stroke-linecap:butt;stroke-linejoin:round;}
  </style>
 </defs>
 <g id="figure_1">
  <g id="patch_1">
   <path d="M 0 576 
L 720 576 
L 720 0 
L 0 0 
z
" style="fill:#ffffff;"/>
  </g>
  <g id="axes_1">
   <g id="patch_2">
    <path d="M 90 270.72 
L 648 270.72 
L 648 69.12 
L 90 69.12 
z
" style="fill:#ffffff;"/>
   </g>
   <g id="matplotlib.axis_1">
    <g id="xtick_1">
     <g id="line2d_1">
      <defs>
       <path d="M 0 0 
L 0 6 
" id="me6d71da8d9" style="stroke:#262626;"/>
      </defs>
      <g>
       <use style="fill:#262626;stroke:#262626;" x="90" xlink:href="#me6d71da8d9" y="270.72"/>
      </g>
     </g>
     <g id="text_1">
      <!-- 0 -->
      <defs>
       <path d="M 4.15625 35.296875 
Q 4.15625 48 6.765625 55.734375 
Q 9.375 63.484375 14.515625 67.671875 
Q 19.671875 71.875 27.484375 71.875 
Q 33.25 71.875 37.59375 69.546875 
Q 41.9375 67.234375 44.765625 62.859375 
Q 47.609375 58.5 49.21875 52.21875 
Q 50.828125 45.953125 50.828125 35.296875 
Q 50.828125 22.703125 48.234375 14.96875 
Q 45.65625 7.234375 40.5 3 
Q 35.359375 -1.21875 27.484375 -1.21875 
Q 17.140625 -1.21875 11.234375 6.203125 
Q 4.15625 15.140625 4.15625 35.296875 
z
M 13.1875 35.296875 
Q 13.1875 17.671875 17.3125 11.828125 
Q 21.4375 6 27.484375 6 
Q 33.546875 6 37.671875 11.859375 
Q 41.796875 17.71875 41.796875 35.296875 
Q 41.796875 52.984375 37.671875 58.78125 
Q 33.546875 64.59375 27.390625 64.59375 
Q 21.34375 64.59375 17.71875 59.46875 
Q 13.1875 52.9375 13.1875 35.296875 
z
" id="ArialMT-30"/>
      </defs>
      <g style="fill:#262626;" transform="translate(87.219531 290.877812)scale(0.1 -0.1)">
       <use xlink:href="#ArialMT-30"/>
      </g>
     </g>
    </g>
    <g id="xtick_2">
     <g id="line2d_2">
      <g>
       <use style="fill:#262626;stroke:#262626;" x="159.75" xlink:href="#me6d71da8d9" y="270.72"/>
      </g>
     </g>
     <g id="text_2">
      <!-- 100 -->
      <defs>
       <path d="M 37.25 0 
L 28.46875 0 
L 28.46875 56 
Q 25.296875 52.984375 20.140625 49.953125 
Q 14.984375 46.921875 10.890625 45.40625 
L 10.890625 53.90625 
Q 18.265625 57.375 23.78125 62.296875 
Q 29.296875 67.234375 31.59375 71.875 
L 37.25 71.875 
z
" id="ArialMT-31"/>
      </defs>
      <g style="fill:#262626;" transform="translate(151.408594 290.877812)scale(0.1 -0.1)">
       <use xlink:href="#ArialMT-31"/>
       <use x="55.615234" xlink:href="#ArialMT-30"/>
       <use x="111.230469" xlink:href="#ArialMT-30"/>
      </g>
     </g>
    </g>
    <g id="xtick_3">
     <g id="line2d_3">
      <g>
       <use style="fill:#262626;stroke:#262626;" x="229.5" xlink:href="#me6d71da8d9" y="270.72"/>
      </g>
     </g>
     <g id="text_3">
      <!-- 200 -->
      <defs>
       <path d="M 50.34375 8.453125 
L 50.34375 0 
L 3.03125 0 
Q 2.9375 3.171875 4.046875 6.109375 
Q 5.859375 10.9375 9.828125 15.625 
Q 13.8125 20.3125 21.34375 26.46875 
Q 33.015625 36.03125 37.109375 41.625 
Q 41.21875 47.21875 41.21875 52.203125 
Q 41.21875 57.421875 37.46875 61 
Q 33.734375 64.59375 27.734375 64.59375 
Q 21.390625 64.59375 17.578125 60.78125 
Q 13.765625 56.984375 13.71875 50.25 
L 4.6875 51.171875 
Q 5.609375 61.28125 11.65625 66.578125 
Q 17.71875 71.875 27.9375 71.875 
Q 38.234375 71.875 44.234375 66.15625 
Q 50.25 60.453125 50.25 52 
Q 50.25 47.703125 48.484375 43.546875 
Q 46.734375 39.40625 42.65625 34.8125 
Q 38.578125 30.21875 29.109375 22.21875 
Q 21.1875 15.578125 18.9375 13.203125 
Q 16.703125 10.84375 15.234375 8.453125 
z
" id="ArialMT-32"/>
      </defs>
      <g style="fill:#262626;" transform="translate(221.158594 290.877812)scale(0.1 -0.1)">
       <use xlink:href="#ArialMT-32"/>
       <use x="55.615234" xlink:href="#ArialMT-30"/>
       <use x="111.230469" xlink:href="#ArialMT-30"/>
      </g>
     </g>
    </g>
    <g id="xtick_4">
     <g id="line2d_4">
      <g>
       <use style="fill:#262626;stroke:#262626;" x="299.25" xlink:href="#me6d71da8d9" y="270.72"/>
      </g>
     </g>
     <g id="text_4">
      <!-- 300 -->
      <defs>
       <path d="M 4.203125 18.890625 
L 12.984375 20.0625 
Q 14.5 12.59375 18.140625 9.296875 
Q 21.78125 6 27 6 
Q 33.203125 6 37.46875 10.296875 
Q 41.75 14.59375 41.75 20.953125 
Q 41.75 27 37.796875 30.921875 
Q 33.84375 34.859375 27.734375 34.859375 
Q 25.25 34.859375 21.53125 33.890625 
L 22.515625 41.609375 
Q 23.390625 41.5 23.921875 41.5 
Q 29.546875 41.5 34.03125 44.421875 
Q 38.53125 47.359375 38.53125 53.46875 
Q 38.53125 58.296875 35.25 61.46875 
Q 31.984375 64.65625 26.8125 64.65625 
Q 21.6875 64.65625 18.265625 61.421875 
Q 14.84375 58.203125 13.875 51.765625 
L 5.078125 53.328125 
Q 6.6875 62.15625 12.390625 67.015625 
Q 18.109375 71.875 26.609375 71.875 
Q 32.46875 71.875 37.390625 69.359375 
Q 42.328125 66.84375 44.9375 62.5 
Q 47.5625 58.15625 47.5625 53.265625 
Q 47.5625 48.640625 45.0625 44.828125 
Q 42.578125 41.015625 37.703125 38.765625 
Q 44.046875 37.3125 47.5625 32.6875 
Q 51.078125 28.078125 51.078125 21.140625 
Q 51.078125 11.765625 44.234375 5.25 
Q 37.40625 -1.265625 26.953125 -1.265625 
Q 17.53125 -1.265625 11.296875 4.34375 
Q 5.078125 9.96875 4.203125 18.890625 
z
" id="ArialMT-33"/>
      </defs>
      <g style="fill:#262626;" transform="translate(290.908594 290.877812)scale(0.1 -0.1)">
       <use xlink:href="#ArialMT-33"/>
       <use x="55.615234" xlink:href="#ArialMT-30"/>
       <use x="111.230469" xlink:href="#ArialMT-30"/>
      </g>
     </g>
    </g>
    <g id="xtick_5">
     <g id="line2d_5">
      <g>
       <use style="fill:#262626;stroke:#262626;" x="369" xlink:href="#me6d71da8d9" y="270.72"/>
      </g>
     </g>
     <g id="text_5">
      <!-- 400 -->
      <defs>
       <path d="M 32.328125 0 
L 32.328125 17.140625 
L 1.265625 17.140625 
L 1.265625 25.203125 
L 33.9375 71.578125 
L 41.109375 71.578125 
L 41.109375 25.203125 
L 50.78125 25.203125 
L 50.78125 17.140625 
L 41.109375 17.140625 
L 41.109375 0 
z
M 32.328125 25.203125 
L 32.328125 57.46875 
L 9.90625 25.203125 
z
" id="ArialMT-34"/>
      </defs>
      <g style="fill:#262626;" transform="translate(360.658594 290.877812)scale(0.1 -0.1)">
       <use xlink:href="#ArialMT-34"/>
       <use x="55.615234" xlink:href="#ArialMT-30"/>
       <use x="111.230469" xlink:href="#ArialMT-30"/>
      </g>
     </g>
    </g>
    <g id="xtick_6">
     <g id="line2d_6">
      <g>
       <use style="fill:#262626;stroke:#262626;" x="438.75" xlink:href="#me6d71da8d9" y="270.72"/>
      </g>
     </g>
     <g id="text_6">
      <!-- 500 -->
      <defs>
       <path d="M 4.15625 18.75 
L 13.375 19.53125 
Q 14.40625 12.796875 18.140625 9.390625 
Q 21.875 6 27.15625 6 
Q 33.5 6 37.890625 10.78125 
Q 42.28125 15.578125 42.28125 23.484375 
Q 42.28125 31 38.0625 35.34375 
Q 33.84375 39.703125 27 39.703125 
Q 22.75 39.703125 19.328125 37.765625 
Q 15.921875 35.84375 13.96875 32.765625 
L 5.71875 33.84375 
L 12.640625 70.609375 
L 48.25 70.609375 
L 48.25 62.203125 
L 19.671875 62.203125 
L 15.828125 42.96875 
Q 22.265625 47.46875 29.34375 47.46875 
Q 38.71875 47.46875 45.15625 40.96875 
Q 51.609375 34.46875 51.609375 24.265625 
Q 51.609375 14.546875 45.953125 7.46875 
Q 39.0625 -1.21875 27.15625 -1.21875 
Q 17.390625 -1.21875 11.203125 4.25 
Q 5.03125 9.71875 4.15625 18.75 
z
" id="ArialMT-35"/>
      </defs>
      <g style="fill:#262626;" transform="translate(430.408594 290.877812)scale(0.1 -0.1)">
       <use xlink:href="#ArialMT-35"/>
       <use x="55.615234" xlink:href="#ArialMT-30"/>
       <use x="111.230469" xlink:href="#ArialMT-30"/>
      </g>
     </g>
    </g>
    <g id="xtick_7">
     <g id="line2d_7">
      <g>
       <use style="fill:#262626;stroke:#262626;" x="508.5" xlink:href="#me6d71da8d9" y="270.72"/>
      </g>
     </g>
     <g id="text_7">
      <!-- 600 -->
      <defs>
       <path d="M 49.75 54.046875 
L 41.015625 53.375 
Q 39.84375 58.546875 37.703125 60.890625 
Q 34.125 64.65625 28.90625 64.65625 
Q 24.703125 64.65625 21.53125 62.3125 
Q 17.390625 59.28125 14.984375 53.46875 
Q 12.59375 47.65625 12.5 36.921875 
Q 15.671875 41.75 20.265625 44.09375 
Q 24.859375 46.4375 29.890625 46.4375 
Q 38.671875 46.4375 44.84375 39.96875 
Q 51.03125 33.5 51.03125 23.25 
Q 51.03125 16.5 48.125 10.71875 
Q 45.21875 4.9375 40.140625 1.859375 
Q 35.0625 -1.21875 28.609375 -1.21875 
Q 17.625 -1.21875 10.6875 6.859375 
Q 3.765625 14.9375 3.765625 33.5 
Q 3.765625 54.25 11.421875 63.671875 
Q 18.109375 71.875 29.4375 71.875 
Q 37.890625 71.875 43.28125 67.140625 
Q 48.6875 62.40625 49.75 54.046875 
z
M 13.875 23.1875 
Q 13.875 18.65625 15.796875 14.5 
Q 17.71875 10.359375 21.1875 8.171875 
Q 24.65625 6 28.46875 6 
Q 34.03125 6 38.03125 10.484375 
Q 42.046875 14.984375 42.046875 22.703125 
Q 42.046875 30.125 38.078125 34.390625 
Q 34.125 38.671875 28.125 38.671875 
Q 22.171875 38.671875 18.015625 34.390625 
Q 13.875 30.125 13.875 23.1875 
z
" id="ArialMT-36"/>
      </defs>
      <g style="fill:#262626;" transform="translate(500.158594 290.877812)scale(0.1 -0.1)">
       <use xlink:href="#ArialMT-36"/>
       <use x="55.615234" xlink:href="#ArialMT-30"/>
       <use x="111.230469" xlink:href="#ArialMT-30"/>
      </g>
     </g>
    </g>
    <g id="xtick_8">
     <g id="line2d_8">
      <g>
       <use style="fill:#262626;stroke:#262626;" x="578.25" xlink:href="#me6d71da8d9" y="270.72"/>
      </g>
     </g>
     <g id="text_8">
      <!-- 700 -->
      <defs>
       <path d="M 4.734375 62.203125 
L 4.734375 70.65625 
L 51.078125 70.65625 
L 51.078125 63.8125 
Q 44.234375 56.546875 37.515625 44.484375 
Q 30.8125 32.421875 27.15625 19.671875 
Q 24.515625 10.6875 23.78125 0 
L 14.75 0 
Q 14.890625 8.453125 18.0625 20.40625 
Q 21.234375 32.375 27.171875 43.484375 
Q 33.109375 54.59375 39.796875 62.203125 
z
" id="ArialMT-37"/>
      </defs>
      <g style="fill:#262626;" transform="translate(569.908594 290.877812)scale(0.1 -0.1)">
       <use xlink:href="#ArialMT-37"/>
       <use x="55.615234" xlink:href="#ArialMT-30"/>
       <use x="111.230469" xlink:href="#ArialMT-30"/>
      </g>
     </g>
    </g>
    <g id="xtick_9">
     <g id="line2d_9">
      <g>
       <use style="fill:#262626;stroke:#262626;" x="648" xlink:href="#me6d71da8d9" y="270.72"/>
      </g>
     </g>
     <g id="text_9">
      <!-- 800 -->
      <defs>
       <path d="M 17.671875 38.8125 
Q 12.203125 40.828125 9.5625 44.53125 
Q 6.9375 48.25 6.9375 53.421875 
Q 6.9375 61.234375 12.546875 66.546875 
Q 18.171875 71.875 27.484375 71.875 
Q 36.859375 71.875 42.578125 66.421875 
Q 48.296875 60.984375 48.296875 53.171875 
Q 48.296875 48.1875 45.671875 44.5 
Q 43.0625 40.828125 37.75 38.8125 
Q 44.34375 36.671875 47.78125 31.875 
Q 51.21875 27.09375 51.21875 20.453125 
Q 51.21875 11.28125 44.71875 5.03125 
Q 38.234375 -1.21875 27.640625 -1.21875 
Q 17.046875 -1.21875 10.546875 5.046875 
Q 4.046875 11.328125 4.046875 20.703125 
Q 4.046875 27.6875 7.59375 32.390625 
Q 11.140625 37.109375 17.671875 38.8125 
z
M 15.921875 53.71875 
Q 15.921875 48.640625 19.1875 45.40625 
Q 22.46875 42.1875 27.6875 42.1875 
Q 32.765625 42.1875 36.015625 45.375 
Q 39.265625 48.578125 39.265625 53.21875 
Q 39.265625 58.0625 35.90625 61.359375 
Q 32.5625 64.65625 27.59375 64.65625 
Q 22.5625 64.65625 19.234375 61.421875 
Q 15.921875 58.203125 15.921875 53.71875 
z
M 13.09375 20.65625 
Q 13.09375 16.890625 14.875 13.375 
Q 16.65625 9.859375 20.171875 7.921875 
Q 23.6875 6 27.734375 6 
Q 34.03125 6 38.125 10.046875 
Q 42.234375 14.109375 42.234375 20.359375 
Q 42.234375 26.703125 38.015625 30.859375 
Q 33.796875 35.015625 27.4375 35.015625 
Q 21.234375 35.015625 17.15625 30.90625 
Q 13.09375 26.8125 13.09375 20.65625 
z
" id="ArialMT-38"/>
      </defs>
      <g style="fill:#262626;" transform="translate(639.658594 290.877812)scale(0.1 -0.1)">
       <use xlink:href="#ArialMT-38"/>
       <use x="55.615234" xlink:href="#ArialMT-30"/>
       <use x="111.230469" xlink:href="#ArialMT-30"/>
      </g>
     </g>
    </g>
   </g>
   <g id="matplotlib.axis_2">
    <g id="ytick_1">
     <g id="line2d_10">
      <defs>
       <path d="M 0 0 
L -6 0 
" id="m5f9f768fe6" style="stroke:#262626;"/>
      </defs>
      <g>
       <use style="fill:#262626;stroke:#262626;" x="90" xlink:href="#m5f9f768fe6" y="270.72"/>
      </g>
     </g>
     <g id="text_10">
      <!-- −0.20 -->
      <defs>
       <path d="M 52.828125 31.203125 
L 5.5625 31.203125 
L 5.5625 39.40625 
L 52.828125 39.40625 
z
" id="ArialMT-2212"/>
       <path d="M 9.078125 0 
L 9.078125 10.015625 
L 19.09375 10.015625 
L 19.09375 0 
z
" id="ArialMT-2e"/>
      </defs>
      <g style="fill:#262626;" transform="translate(51.698437 274.298906)scale(0.1 -0.1)">
       <use xlink:href="#ArialMT-2212"/>
       <use x="58.398438" xlink:href="#ArialMT-30"/>
       <use x="114.013672" xlink:href="#ArialMT-2e"/>
       <use x="141.796875" xlink:href="#ArialMT-32"/>
       <use x="197.412109" xlink:href="#ArialMT-30"/>
      </g>
     </g>
    </g>
    <g id="ytick_2">
     <g id="line2d_11">
      <g>
       <use style="fill:#262626;stroke:#262626;" x="90" xlink:href="#m5f9f768fe6" y="245.52"/>
      </g>
     </g>
     <g id="text_11">
      <!-- −0.15 -->
      <g style="fill:#262626;" transform="translate(51.698437 249.098906)scale(0.1 -0.1)">
       <use xlink:href="#ArialMT-2212"/>
       <use x="58.398438" xlink:href="#ArialMT-30"/>
       <use x="114.013672" xlink:href="#ArialMT-2e"/>
       <use x="141.796875" xlink:href="#ArialMT-31"/>
       <use x="197.412109" xlink:href="#ArialMT-35"/>
      </g>
     </g>
    </g>
    <g id="ytick_3">
     <g id="line2d_12">
      <g>
       <use style="fill:#262626;stroke:#262626;" x="90" xlink:href="#m5f9f768fe6" y="220.32"/>
      </g>
     </g>
     <g id="text_12">
      <!-- −0.10 -->
      <g style="fill:#262626;" transform="translate(51.698437 223.898906)scale(0.1 -0.1)">
       <use xlink:href="#ArialMT-2212"/>
       <use x="58.398438" xlink:href="#ArialMT-30"/>
       <use x="114.013672" xlink:href="#ArialMT-2e"/>
       <use x="141.796875" xlink:href="#ArialMT-31"/>
       <use x="197.412109" xlink:href="#ArialMT-30"/>
      </g>
     </g>
    </g>
    <g id="ytick_4">
     <g id="line2d_13">
      <g>
       <use style="fill:#262626;stroke:#262626;" x="90" xlink:href="#m5f9f768fe6" y="195.12"/>
      </g>
     </g>
     <g id="text_13">
      <!-- −0.05 -->
      <g style="fill:#262626;" transform="translate(51.698437 198.698906)scale(0.1 -0.1)">
       <use xlink:href="#ArialMT-2212"/>
       <use x="58.398438" xlink:href="#ArialMT-30"/>
       <use x="114.013672" xlink:href="#ArialMT-2e"/>
       <use x="141.796875" xlink:href="#ArialMT-30"/>
       <use x="197.412109" xlink:href="#ArialMT-35"/>
      </g>
     </g>
    </g>
    <g id="ytick_5">
     <g id="line2d_14">
      <g>
       <use style="fill:#262626;stroke:#262626;" x="90" xlink:href="#m5f9f768fe6" y="169.92"/>
      </g>
     </g>
     <g id="text_14">
      <!-- 0.00 -->
      <g style="fill:#262626;" transform="translate(57.539062 173.498906)scale(0.1 -0.1)">
       <use xlink:href="#ArialMT-30"/>
       <use x="55.615234" xlink:href="#ArialMT-2e"/>
       <use x="83.398438" xlink:href="#ArialMT-30"/>
       <use x="139.013672" xlink:href="#ArialMT-30"/>
      </g>
     </g>
    </g>
    <g id="ytick_6">
     <g id="line2d_15">
      <g>
       <use style="fill:#262626;stroke:#262626;" x="90" xlink:href="#m5f9f768fe6" y="144.72"/>
      </g>
     </g>
     <g id="text_15">
      <!-- 0.05 -->
      <g style="fill:#262626;" transform="translate(57.539062 148.298906)scale(0.1 -0.1)">
       <use xlink:href="#ArialMT-30"/>
       <use x="55.615234" xlink:href="#ArialMT-2e"/>
       <use x="83.398438" xlink:href="#ArialMT-30"/>
       <use x="139.013672" xlink:href="#ArialMT-35"/>
      </g>
     </g>
    </g>
    <g id="ytick_7">
     <g id="line2d_16">
      <g>
       <use style="fill:#262626;stroke:#262626;" x="90" xlink:href="#m5f9f768fe6" y="119.52"/>
      </g>
     </g>
     <g id="text_16">
      <!-- 0.10 -->
      <g style="fill:#262626;" transform="translate(57.539062 123.098906)scale(0.1 -0.1)">
       <use xlink:href="#ArialMT-30"/>
       <use x="55.615234" xlink:href="#ArialMT-2e"/>
       <use x="83.398438" xlink:href="#ArialMT-31"/>
       <use x="139.013672" xlink:href="#ArialMT-30"/>
      </g>
     </g>
    </g>
    <g id="ytick_8">
     <g id="line2d_17">
      <g>
       <use style="fill:#262626;stroke:#262626;" x="90" xlink:href="#m5f9f768fe6" y="94.32"/>
      </g>
     </g>
     <g id="text_17">
      <!-- 0.15 -->
      <g style="fill:#262626;" transform="translate(57.539062 97.898906)scale(0.1 -0.1)">
       <use xlink:href="#ArialMT-30"/>
       <use x="55.615234" xlink:href="#ArialMT-2e"/>
       <use x="83.398438" xlink:href="#ArialMT-31"/>
       <use x="139.013672" xlink:href="#ArialMT-35"/>
      </g>
     </g>
    </g>
    <g id="ytick_9">
     <g id="line2d_18">
      <g>
       <use style="fill:#262626;stroke:#262626;" x="90" xlink:href="#m5f9f768fe6" y="69.12"/>
      </g>
     </g>
     <g id="text_18">
      <!-- 0.20 -->
      <g style="fill:#262626;" transform="translate(57.539062 72.698906)scale(0.1 -0.1)">
       <use xlink:href="#ArialMT-30"/>
       <use x="55.615234" xlink:href="#ArialMT-2e"/>
       <use x="83.398438" xlink:href="#ArialMT-32"/>
       <use x="139.013672" xlink:href="#ArialMT-30"/>
      </g>
     </g>
    </g>
   </g>
   <g id="PolyCollection_1">
    <path clip-path="url(#pafe5369dc0)" d="M 90 177.433501 
L 90 169.92 
L 90.6975 169.92 
L 91.395 169.92 
L 92.0925 169.92 
L 92.79 169.92 
L 93.4875 169.92 
L 94.185 169.92 
L 94.8825 169.92 
L 95.58 169.92 
L 96.2775 169.92 
L 96.975 169.92 
L 97.6725 169.92 
L 98.37 169.92 
L 99.0675 169.92 
L 99.765 169.92 
L 100.4625 169.92 
L 101.16 169.92 
L 101.8575 169.92 
L 102.555 169.92 
L 103.2525 169.92 
L 103.95 169.92 
L 104.6475 169.92 
L 105.345 169.92 
L 106.0425 169.92 
L 106.74 169.92 
L 107.4375 169.92 
L 108.135 169.92 
L 108.8325 169.92 
L 109.53 169.92 
L 110.2275 169.92 
L 110.925 169.92 
L 111.6225 169.92 
L 112.32 169.92 
L 113.0175 169.92 
L 113.715 169.92 
L 114.4125 169.92 
L 115.11 169.92 
L 115.8075 169.92 
L 116.505 169.92 
L 117.2025 169.92 
L 117.9 169.92 
L 118.5975 169.92 
L 119.295 169.92 
L 119.9925 169.92 
L 120.69 169.92 
L 121.3875 169.92 
L 122.085 169.92 
L 122.7825 169.92 
L 123.48 169.92 
L 124.1775 169.92 
L 124.875 169.92 
L 125.5725 169.92 
L 126.27 169.92 
L 126.9675 169.92 
L 127.665 169.92 
L 128.3625 169.92 
L 129.06 169.92 
L 129.7575 169.92 
L 130.455 169.92 
L 131.1525 169.92 
L 131.85 169.92 
L 132.5475 169.92 
L 133.245 169.92 
L 133.9425 169.92 
L 134.64 169.92 
L 135.3375 169.92 
L 136.035 169.92 
L 136.7325 169.92 
L 137.43 169.92 
L 138.1275 169.92 
L 138.825 169.92 
L 139.5225 169.92 
L 140.22 169.92 
L 140.9175 169.92 
L 141.615 169.92 
L 142.3125 169.92 
L 143.01 169.92 
L 143.7075 169.92 
L 144.405 169.92 
L 145.1025 169.92 
L 145.8 169.92 
L 146.4975 169.92 
L 147.195 169.92 
L 147.8925 169.92 
L 148.59 169.92 
L 149.2875 169.92 
L 149.985 169.92 
L 150.6825 169.92 
L 151.38 169.92 
L 152.0775 169.92 
L 152.775 169.92 
L 153.4725 169.92 
L 154.17 169.92 
L 154.8675 169.92 
L 155.565 169.92 
L 156.2625 169.92 
L 156.96 169.92 
L 157.6575 169.92 
L 158.355 169.92 
L 159.0525 169.92 
L 159.75 169.92 
L 160.4475 169.92 
L 161.145 169.92 
L 161.8425 169.92 
L 162.54 169.92 
L 163.2375 169.92 
L 163.935 169.92 
L 164.6325 169.92 
L 165.33 169.92 
L 166.0275 169.92 
L 166.725 169.92 
L 167.4225 169.92 
L 168.12 169.92 
L 168.8175 169.92 
L 169.515 169.92 
L 170.2125 169.92 
L 170.91 169.92 
L 171.6075 169.92 
L 172.305 169.92 
L 173.0025 169.92 
L 173.7 169.92 
L 174.3975 169.92 
L 175.095 169.92 
L 175.7925 169.92 
L 176.49 169.92 
L 177.1875 169.92 
L 177.885 169.92 
L 178.5825 169.92 
L 179.28 169.92 
L 179.9775 169.92 
L 180.675 169.92 
L 181.3725 169.92 
L 182.07 169.92 
L 182.7675 169.92 
L 183.465 169.92 
L 184.1625 169.92 
L 184.86 169.92 
L 185.5575 169.92 
L 186.255 169.92 
L 186.9525 169.92 
L 187.65 169.92 
L 188.3475 169.92 
L 189.045 169.92 
L 189.7425 169.92 
L 190.44 169.92 
L 191.1375 169.92 
L 191.835 169.92 
L 192.5325 169.92 
L 193.23 169.92 
L 193.9275 169.92 
L 194.625 169.92 
L 195.3225 169.92 
L 196.02 169.92 
L 196.7175 169.92 
L 197.415 169.92 
L 198.1125 169.92 
L 198.81 169.92 
L 199.5075 169.92 
L 200.205 169.92 
L 200.9025 169.92 
L 201.6 169.92 
L 202.2975 169.92 
L 202.995 169.92 
L 203.6925 169.92 
L 204.39 169.92 
L 205.0875 169.92 
L 205.785 169.92 
L 206.4825 169.92 
L 207.18 169.92 
L 207.8775 169.92 
L 208.575 169.92 
L 209.2725 169.92 
L 209.97 169.92 
L 210.6675 169.92 
L 211.365 169.92 
L 212.0625 169.92 
L 212.76 169.92 
L 213.4575 169.92 
L 214.155 169.92 
L 214.8525 169.92 
L 215.55 169.92 
L 216.2475 169.92 
L 216.945 169.92 
L 217.6425 169.92 
L 218.34 169.92 
L 219.0375 169.92 
L 219.735 169.92 
L 220.4325 169.92 
L 221.13 169.92 
L 221.8275 169.92 
L 222.525 169.92 
L 223.2225 169.92 
L 223.92 169.92 
L 224.6175 169.92 
L 225.315 169.92 
L 226.0125 169.92 
L 226.71 169.92 
L 227.4075 169.92 
L 228.105 169.92 
L 228.8025 169.92 
L 229.5 169.92 
L 230.1975 169.92 
L 230.895 169.92 
L 231.5925 169.92 
L 232.29 169.92 
L 232.9875 169.92 
L 233.685 169.92 
L 234.3825 169.92 
L 235.08 169.92 
L 235.7775 169.92 
L 236.475 169.92 
L 237.1725 169.92 
L 237.87 169.92 
L 238.5675 169.92 
L 239.265 169.92 
L 239.9625 169.92 
L 240.66 169.92 
L 241.3575 169.92 
L 242.055 169.92 
L 242.7525 169.92 
L 243.45 169.92 
L 244.1475 169.92 
L 244.845 169.92 
L 245.5425 169.92 
L 246.24 169.92 
L 246.9375 169.92 
L 247.635 169.92 
L 248.3325 169.92 
L 249.03 169.92 
L 249.7275 169.92 
L 250.425 169.92 
L 251.1225 169.92 
L 251.82 169.92 
L 252.5175 169.92 
L 253.215 169.92 
L 253.9125 169.92 
L 254.61 169.92 
L 255.3075 169.92 
L 256.005 169.92 
L 256.7025 169.92 
L 257.4 169.92 
L 258.0975 169.92 
L 258.795 169.92 
L 259.4925 169.92 
L 260.19 169.92 
L 260.8875 169.92 
L 261.585 169.92 
L 262.2825 169.92 
L 262.98 169.92 
L 263.6775 169.92 
L 264.375 169.92 
L 265.0725 169.92 
L 265.77 169.92 
L 266.4675 169.92 
L 267.165 169.92 
L 267.8625 169.92 
L 268.56 169.92 
L 269.2575 169.92 
L 269.955 169.92 
L 270.6525 169.92 
L 271.35 169.92 
L 272.0475 169.92 
L 272.745 169.92 
L 273.4425 169.92 
L 274.14 169.92 
L 274.8375 169.92 
L 275.535 169.92 
L 276.2325 169.92 
L 276.93 169.92 
L 277.6275 169.92 
L 278.325 169.92 
L 279.0225 169.92 
L 279.72 169.92 
L 280.4175 169.92 
L 281.115 169.92 
L 281.8125 169.92 
L 282.51 169.92 
L 283.2075 169.92 
L 283.905 169.92 
L 284.6025 169.92 
L 285.3 169.92 
L 285.9975 169.92 
L 286.695 169.92 
L 287.3925 169.92 
L 288.09 169.92 
L 288.7875 169.92 
L 289.485 169.92 
L 290.1825 169.92 
L 290.88 169.92 
L 291.5775 169.92 
L 292.275 169.92 
L 292.9725 169.92 
L 293.67 169.92 
L 294.3675 169.92 
L 295.065 169.92 
L 295.7625 169.92 
L 296.46 169.92 
L 297.1575 169.92 
L 297.855 169.92 
L 298.5525 169.92 
L 299.25 169.92 
L 299.9475 169.92 
L 300.645 169.92 
L 301.3425 169.92 
L 302.04 169.92 
L 302.7375 169.92 
L 303.435 169.92 
L 304.1325 169.92 
L 304.83 169.92 
L 305.5275 169.92 
L 306.225 169.92 
L 306.9225 169.92 
L 307.62 169.92 
L 308.3175 169.92 
L 309.015 169.92 
L 309.7125 169.92 
L 310.41 169.92 
L 311.1075 169.92 
L 311.805 169.92 
L 312.5025 169.92 
L 313.2 169.92 
L 313.8975 169.92 
L 314.595 169.92 
L 315.2925 169.92 
L 315.99 169.92 
L 316.6875 169.92 
L 317.385 169.92 
L 318.0825 169.92 
L 318.78 169.92 
L 319.4775 169.92 
L 320.175 169.92 
L 320.8725 169.92 
L 321.57 169.92 
L 322.2675 169.92 
L 322.965 169.92 
L 323.6625 169.92 
L 324.36 169.92 
L 325.0575 169.92 
L 325.755 169.92 
L 326.4525 169.92 
L 327.15 169.92 
L 327.8475 169.92 
L 328.545 169.92 
L 329.2425 169.92 
L 329.94 169.92 
L 330.6375 169.92 
L 331.335 169.92 
L 332.0325 169.92 
L 332.73 169.92 
L 333.4275 169.92 
L 334.125 169.92 
L 334.8225 169.92 
L 335.52 169.92 
L 336.2175 169.92 
L 336.915 169.92 
L 337.6125 169.92 
L 338.31 169.92 
L 339.0075 169.92 
L 339.705 169.92 
L 340.4025 169.92 
L 341.1 169.92 
L 341.7975 169.92 
L 342.495 169.92 
L 343.1925 169.92 
L 343.89 169.92 
L 344.5875 169.92 
L 345.285 169.92 
L 345.9825 169.92 
L 346.68 169.92 
L 347.3775 169.92 
L 348.075 169.92 
L 348.7725 169.92 
L 349.47 169.92 
L 350.1675 169.92 
L 350.865 169.92 
L 351.5625 169.92 
L 352.26 169.92 
L 352.9575 169.92 
L 353.655 169.92 
L 354.3525 169.92 
L 355.05 169.92 
L 355.7475 169.92 
L 356.445 169.92 
L 357.1425 169.92 
L 357.84 169.92 
L 358.5375 169.92 
L 359.235 169.92 
L 359.9325 169.92 
L 360.63 169.92 
L 361.3275 169.92 
L 362.025 169.92 
L 362.7225 169.92 
L 363.42 169.92 
L 364.1175 169.92 
L 364.815 169.92 
L 365.5125 169.92 
L 366.21 169.92 
L 366.9075 169.92 
L 367.605 169.92 
L 368.3025 169.92 
L 369 169.92 
L 369.6975 169.92 
L 370.395 169.92 
L 371.0925 169.92 
L 371.79 169.92 
L 372.4875 169.92 
L 373.185 169.92 
L 373.8825 169.92 
L 374.58 169.92 
L 375.2775 169.92 
L 375.975 169.92 
L 376.6725 169.92 
L 377.37 169.92 
L 378.0675 169.92 
L 378.765 169.92 
L 379.4625 169.92 
L 380.16 169.92 
L 380.8575 169.92 
L 381.555 169.92 
L 382.2525 169.92 
L 382.95 169.92 
L 383.6475 169.92 
L 384.345 169.92 
L 385.0425 169.92 
L 385.74 169.92 
L 386.4375 169.92 
L 387.135 169.92 
L 387.8325 169.92 
L 388.53 169.92 
L 389.2275 169.92 
L 389.925 169.92 
L 390.6225 169.92 
L 391.32 169.92 
L 392.0175 169.92 
L 392.715 169.92 
L 393.4125 169.92 
L 394.11 169.92 
L 394.8075 169.92 
L 395.505 169.92 
L 396.2025 169.92 
L 396.9 169.92 
L 397.5975 169.92 
L 398.295 169.92 
L 398.9925 169.92 
L 399.69 169.92 
L 400.3875 169.92 
L 401.085 169.92 
L 401.7825 169.92 
L 402.48 169.92 
L 403.1775 169.92 
L 403.875 169.92 
L 404.5725 169.92 
L 405.27 169.92 
L 405.9675 169.92 
L 406.665 169.92 
L 407.3625 169.92 
L 408.06 169.92 
L 408.7575 169.92 
L 409.455 169.92 
L 410.1525 169.92 
L 410.85 169.92 
L 411.5475 169.92 
L 412.245 169.92 
L 412.9425 169.92 
L 413.64 169.92 
L 414.3375 169.92 
L 415.035 169.92 
L 415.7325 169.92 
L 416.43 169.92 
L 417.1275 169.92 
L 417.825 169.92 
L 418.5225 169.92 
L 419.22 169.92 
L 419.9175 169.92 
L 420.615 169.92 
L 421.3125 169.92 
L 422.01 169.92 
L 422.7075 169.92 
L 423.405 169.92 
L 424.1025 169.92 
L 424.8 169.92 
L 425.4975 169.92 
L 426.195 169.92 
L 426.8925 169.92 
L 427.59 169.92 
L 428.2875 169.92 
L 428.985 169.92 
L 429.6825 169.92 
L 430.38 169.92 
L 431.0775 169.92 
L 431.775 169.92 
L 432.4725 169.92 
L 433.17 169.92 
L 433.8675 169.92 
L 434.565 169.92 
L 435.2625 169.92 
L 435.96 169.92 
L 436.6575 169.92 
L 437.355 169.92 
L 438.0525 169.92 
L 438.75 169.92 
L 439.4475 169.92 
L 440.145 169.92 
L 440.8425 169.92 
L 441.54 169.92 
L 442.2375 169.92 
L 442.935 169.92 
L 443.6325 169.92 
L 444.33 169.92 
L 445.0275 169.92 
L 445.725 169.92 
L 446.4225 169.92 
L 447.12 169.92 
L 447.8175 169.92 
L 448.515 169.92 
L 449.2125 169.92 
L 449.91 169.92 
L 450.6075 169.92 
L 451.305 169.92 
L 452.0025 169.92 
L 452.7 169.92 
L 453.3975 169.92 
L 454.095 169.92 
L 454.7925 169.92 
L 455.49 169.92 
L 456.1875 169.92 
L 456.885 169.92 
L 457.5825 169.92 
L 458.28 169.92 
L 458.9775 169.92 
L 459.675 169.92 
L 460.3725 169.92 
L 461.07 169.92 
L 461.7675 169.92 
L 462.465 169.92 
L 463.1625 169.92 
L 463.86 169.92 
L 464.5575 169.92 
L 465.255 169.92 
L 465.9525 169.92 
L 466.65 169.92 
L 467.3475 169.92 
L 468.045 169.92 
L 468.7425 169.92 
L 469.44 169.92 
L 470.1375 169.92 
L 470.835 169.92 
L 471.5325 169.92 
L 472.23 169.92 
L 472.9275 169.92 
L 473.625 169.92 
L 474.3225 169.92 
L 475.02 169.92 
L 475.7175 169.92 
L 476.415 169.92 
L 477.1125 169.92 
L 477.81 169.92 
L 478.5075 169.92 
L 479.205 169.92 
L 479.9025 169.92 
L 480.6 169.92 
L 481.2975 169.92 
L 481.995 169.92 
L 482.6925 169.92 
L 483.39 169.92 
L 484.0875 169.92 
L 484.785 169.92 
L 485.4825 169.92 
L 486.18 169.92 
L 486.8775 169.92 
L 487.575 169.92 
L 488.2725 169.92 
L 488.97 169.92 
L 489.6675 169.92 
L 490.365 169.92 
L 491.0625 169.92 
L 491.76 169.92 
L 492.4575 169.92 
L 493.155 169.92 
L 493.8525 169.92 
L 494.55 169.92 
L 495.2475 169.92 
L 495.945 169.92 
L 496.6425 169.92 
L 497.34 169.92 
L 498.0375 169.92 
L 498.735 169.92 
L 499.4325 169.92 
L 500.13 169.92 
L 500.8275 169.92 
L 501.525 169.92 
L 502.2225 169.92 
L 502.92 169.92 
L 503.6175 169.92 
L 504.315 169.92 
L 505.0125 169.92 
L 505.71 169.92 
L 506.4075 169.92 
L 507.105 169.92 
L 507.8025 169.92 
L 508.5 169.92 
L 509.1975 169.92 
L 509.895 169.92 
L 510.5925 169.92 
L 511.29 169.92 
L 511.9875 169.92 
L 512.685 169.92 
L 513.3825 169.92 
L 514.08 169.92 
L 514.7775 169.92 
L 515.475 169.92 
L 516.1725 169.92 
L 516.87 169.92 
L 517.5675 169.92 
L 518.265 169.92 
L 518.9625 169.92 
L 519.66 169.92 
L 520.3575 169.92 
L 521.055 169.92 
L 521.7525 169.92 
L 522.45 169.92 
L 523.1475 169.92 
L 523.845 169.92 
L 524.5425 169.92 
L 525.24 169.92 
L 525.9375 169.92 
L 526.635 169.92 
L 527.3325 169.92 
L 528.03 169.92 
L 528.7275 169.92 
L 529.425 169.92 
L 530.1225 169.92 
L 530.82 169.92 
L 531.5175 169.92 
L 532.215 169.92 
L 532.9125 169.92 
L 533.61 169.92 
L 534.3075 169.92 
L 535.005 169.92 
L 535.7025 169.92 
L 536.4 169.92 
L 537.0975 169.92 
L 537.795 169.92 
L 538.4925 169.92 
L 539.19 169.92 
L 539.8875 169.92 
L 540.585 169.92 
L 541.2825 169.92 
L 541.98 169.92 
L 542.6775 169.92 
L 543.375 169.92 
L 544.0725 169.92 
L 544.77 169.92 
L 545.4675 169.92 
L 546.165 169.92 
L 546.8625 169.92 
L 547.56 169.92 
L 548.2575 169.92 
L 548.955 169.92 
L 549.6525 169.92 
L 550.35 169.92 
L 551.0475 169.92 
L 551.745 169.92 
L 552.4425 169.92 
L 553.14 169.92 
L 553.8375 169.92 
L 554.535 169.92 
L 555.2325 169.92 
L 555.93 169.92 
L 556.6275 169.92 
L 557.325 169.92 
L 558.0225 169.92 
L 558.72 169.92 
L 559.4175 169.92 
L 560.115 169.92 
L 560.8125 169.92 
L 561.51 169.92 
L 562.2075 169.92 
L 562.905 169.92 
L 563.6025 169.92 
L 564.3 169.92 
L 564.9975 169.92 
L 565.695 169.92 
L 566.3925 169.92 
L 567.09 169.92 
L 567.7875 169.92 
L 568.485 169.92 
L 569.1825 169.92 
L 569.88 169.92 
L 570.5775 169.92 
L 571.275 169.92 
L 571.9725 169.92 
L 572.67 169.92 
L 573.3675 169.92 
L 574.065 169.92 
L 574.7625 169.92 
L 575.46 169.92 
L 576.1575 169.92 
L 576.855 169.92 
L 577.5525 169.92 
L 578.25 169.92 
L 578.9475 169.92 
L 579.645 169.92 
L 580.3425 169.92 
L 581.04 169.92 
L 581.7375 169.92 
L 582.435 169.92 
L 583.1325 169.92 
L 583.83 169.92 
L 584.5275 169.92 
L 585.225 169.92 
L 585.9225 169.92 
L 586.62 169.92 
L 587.3175 169.92 
L 588.015 169.92 
L 588.7125 169.92 
L 589.41 169.92 
L 590.1075 169.92 
L 590.805 169.92 
L 591.5025 169.92 
L 592.2 169.92 
L 592.8975 169.92 
L 593.595 169.92 
L 594.2925 169.92 
L 594.99 169.92 
L 595.6875 169.92 
L 596.385 169.92 
L 597.0825 169.92 
L 597.78 169.92 
L 598.4775 169.92 
L 599.175 169.92 
L 599.8725 169.92 
L 600.57 169.92 
L 601.2675 169.92 
L 601.965 169.92 
L 602.6625 169.92 
L 603.36 169.92 
L 604.0575 169.92 
L 604.755 169.92 
L 605.4525 169.92 
L 606.15 169.92 
L 606.8475 169.92 
L 607.545 169.92 
L 608.2425 169.92 
L 608.94 169.92 
L 609.6375 169.92 
L 610.335 169.92 
L 611.0325 169.92 
L 611.73 169.92 
L 612.4275 169.92 
L 613.125 169.92 
L 613.8225 169.92 
L 614.52 169.92 
L 615.2175 169.92 
L 615.915 169.92 
L 616.6125 169.92 
L 617.31 169.92 
L 618.0075 169.92 
L 618.705 169.92 
L 619.4025 169.92 
L 620.1 169.92 
L 620.7975 169.92 
L 621.495 169.92 
L 622.1925 169.92 
L 622.89 169.92 
L 623.5875 169.92 
L 624.285 169.92 
L 624.9825 169.92 
L 625.68 169.92 
L 626.3775 169.92 
L 627.075 169.92 
L 627.7725 169.92 
L 628.47 169.92 
L 629.1675 169.92 
L 629.865 169.92 
L 630.5625 169.92 
L 631.26 169.92 
L 631.9575 169.92 
L 632.655 169.92 
L 633.3525 169.92 
L 634.05 169.92 
L 634.7475 169.92 
L 635.445 169.92 
L 636.1425 169.92 
L 636.84 169.92 
L 637.5375 169.92 
L 638.235 169.92 
L 638.9325 169.92 
L 639.63 169.92 
L 640.3275 169.92 
L 641.025 169.92 
L 641.7225 169.92 
L 642.42 169.92 
L 643.1175 169.92 
L 643.815 169.92 
L 644.5125 169.92 
L 645.21 169.92 
L 645.9075 169.92 
L 646.605 169.92 
L 646.605 169.92 
L 646.605 169.92 
L 645.9075 169.926208 
L 645.21 169.940714 
L 644.5125 169.965483 
L 643.815 170.002324 
L 643.1175 170.052867 
L 642.42 170.118533 
L 641.7225 170.200508 
L 641.025 170.299729 
L 640.3275 170.416859 
L 639.63 170.552277 
L 638.9325 170.706064 
L 638.235 170.877996 
L 637.5375 171.067539 
L 636.84 171.273852 
L 636.1425 171.495783 
L 635.445 171.731884 
L 634.7475 171.980418 
L 634.05 172.239371 
L 633.3525 172.506475 
L 632.655 172.779224 
L 631.9575 173.054904 
L 631.26 173.330614 
L 630.5625 173.6033 
L 629.865 173.869787 
L 629.1675 174.126812 
L 628.47 174.371058 
L 627.7725 174.599194 
L 627.075 174.807914 
L 626.3775 174.993972 
L 625.68 175.154221 
L 624.9825 175.285654 
L 624.285 175.385439 
L 623.5875 175.450957 
L 622.89 175.479835 
L 622.1925 175.469979 
L 621.495 175.419607 
L 620.7975 175.327273 
L 620.1 175.191896 
L 619.4025 175.012775 
L 618.705 174.789616 
L 618.0075 174.522536 
L 617.31 174.212083 
L 616.6125 173.859232 
L 615.915 173.465395 
L 615.2175 173.032413 
L 614.52 172.56255 
L 613.8225 172.058481 
L 613.125 171.523277 
L 612.4275 170.960384 
L 611.73 170.373598 
L 611.0325 169.767037 
L 610.335 169.145109 
L 609.6375 168.512478 
L 608.94 167.874021 
L 608.2425 167.23479 
L 607.545 166.599969 
L 606.8475 165.974823 
L 606.15 165.364657 
L 605.4525 164.774762 
L 604.755 164.210367 
L 604.0575 163.676591 
L 603.36 163.178393 
L 602.6625 162.720521 
L 601.965 162.307466 
L 601.2675 161.943418 
L 600.57 161.632219 
L 599.8725 161.377326 
L 599.175 161.181768 
L 598.4775 161.048115 
L 597.78 160.978447 
L 597.0825 160.974325 
L 596.385 161.036771 
L 595.6875 161.166251 
L 594.99 161.362659 
L 594.2925 161.625315 
L 593.595 161.952958 
L 592.8975 162.34375 
L 592.2 162.795287 
L 591.5025 163.304612 
L 590.805 163.868233 
L 590.1075 164.482146 
L 589.41 165.141871 
L 588.7125 165.842478 
L 588.015 166.57863 
L 587.3175 167.344625 
L 586.62 168.134445 
L 585.9225 168.9418 
L 585.225 169.76019 
L 584.5275 170.582952 
L 583.83 171.403325 
L 583.1325 172.214502 
L 582.435 173.009699 
L 581.7375 173.78221 
L 581.04 174.525467 
L 580.3425 175.233105 
L 579.645 175.899017 
L 578.9475 176.517412 
L 578.25 177.082871 
L 577.5525 177.590396 
L 576.855 178.035461 
L 576.1575 178.414057 
L 575.46 178.722732 
L 574.7625 178.958623 
L 574.065 179.119492 
L 573.3675 179.203748 
L 572.67 179.210468 
L 571.9725 179.13941 
L 571.275 178.991018 
L 570.5775 178.766427 
L 569.88 178.467458 
L 569.1825 178.096603 
L 568.485 177.657008 
L 567.7875 177.152454 
L 567.09 176.587321 
L 566.3925 175.966556 
L 565.695 175.295631 
L 564.9975 174.580498 
L 564.3 173.827536 
L 563.6025 173.043498 
L 562.905 172.235448 
L 562.2075 171.410705 
L 561.51 170.576772 
L 560.8125 169.741269 
L 560.115 168.911869 
L 559.4175 168.096221 
L 558.72 167.301884 
L 558.0225 166.536256 
L 557.325 165.806503 
L 556.6275 165.119495 
L 555.93 164.481736 
L 555.2325 163.899305 
L 554.535 163.377794 
L 553.8375 162.922257 
L 553.14 162.537155 
L 552.4425 162.226312 
L 551.745 161.992876 
L 551.0475 161.839286 
L 550.35 161.767239 
L 549.6525 161.777676 
L 548.955 161.870762 
L 548.2575 162.045882 
L 547.56 162.30164 
L 546.8625 162.635865 
L 546.165 163.045627 
L 545.4675 163.527259 
L 544.77 164.076384 
L 544.0725 164.68795 
L 543.375 165.356275 
L 542.6775 166.075091 
L 541.98 166.8376 
L 541.2825 167.636536 
L 540.585 168.464222 
L 539.8875 169.312646 
L 539.19 170.17353 
L 538.4925 171.038405 
L 537.795 171.898686 
L 537.0975 172.74576 
L 536.4 173.571058 
L 535.7025 174.366137 
L 535.005 175.122766 
L 534.3075 175.832998 
L 533.61 176.489252 
L 532.9125 177.084386 
L 532.215 177.611766 
L 531.5175 178.065337 
L 530.82 178.439683 
L 530.1225 178.730085 
L 529.425 178.932569 
L 528.7275 179.043957 
L 528.03 179.0619 
L 527.3325 178.98491 
L 526.635 178.812383 
L 525.9375 178.544615 
L 525.24 178.182807 
L 524.5425 177.729065 
L 523.845 177.186392 
L 523.1475 176.558667 
L 522.45 175.85062 
L 521.7525 175.067799 
L 521.055 174.216528 
L 520.3575 173.303855 
L 519.66 172.337497 
L 518.9625 171.325779 
L 518.265 170.27756 
L 517.5675 169.20216 
L 516.87 168.109281 
L 516.1725 167.008923 
L 515.475 165.911292 
L 514.7775 164.826714 
L 514.08 163.765538 
L 513.3825 162.738047 
L 512.685 161.75436 
L 511.9875 160.824337 
L 511.29 159.957492 
L 510.5925 159.162897 
L 509.895 158.449097 
L 509.1975 157.824027 
L 508.5 157.294933 
L 507.8025 156.868297 
L 507.105 156.54977 
L 506.4075 156.344114 
L 505.71 156.255145 
L 505.0125 156.285688 
L 504.315 156.437541 
L 503.6175 156.711449 
L 502.92 157.107078 
L 502.2225 157.623012 
L 501.525 158.256748 
L 500.8275 159.004709 
L 500.13 159.862259 
L 499.4325 160.823734 
L 498.735 161.88248 
L 498.0375 163.030898 
L 497.34 164.260502 
L 496.6425 165.561981 
L 495.945 166.925273 
L 495.2475 168.339646 
L 494.55 169.793778 
L 493.8525 171.275856 
L 493.155 172.773669 
L 492.4575 174.274714 
L 491.76 175.766297 
L 491.0625 177.235644 
L 490.365 178.670009 
L 489.6675 180.056787 
L 488.97 181.383623 
L 488.2725 182.638524 
L 487.575 183.80996 
L 486.8775 184.886978 
L 486.18 185.859293 
L 485.4825 186.717389 
L 484.785 187.452608 
L 484.0875 188.057232 
L 483.39 188.524559 
L 482.6925 188.848971 
L 481.995 189.025993 
L 481.2975 189.052342 
L 480.6 188.925966 
L 479.9025 188.646076 
L 479.205 188.213163 
L 478.5075 187.629007 
L 477.81 186.89667 
L 477.1125 186.020488 
L 476.415 185.006043 
L 475.7175 183.860126 
L 475.02 182.590691 
L 474.3225 181.206798 
L 473.625 179.718548 
L 472.9275 178.137001 
L 472.23 176.474098 
L 471.5325 174.742562 
L 470.835 172.9558 
L 470.1375 171.127793 
L 469.44 169.272984 
L 468.7425 167.406164 
L 468.045 165.542341 
L 467.3475 163.696624 
L 466.65 161.884093 
L 465.9525 160.119671 
L 465.255 158.417999 
L 464.5575 156.79331 
L 463.86 155.259309 
L 463.1625 153.829049 
L 462.465 152.514822 
L 461.7675 151.328048 
L 461.07 150.279171 
L 460.3725 149.377573 
L 459.675 148.631477 
L 458.9775 148.04788 
L 458.28 147.632481 
L 457.5825 147.389628 
L 456.885 147.322272 
L 456.1875 147.431935 
L 455.49 147.718684 
L 454.7925 148.181131 
L 454.095 148.816426 
L 453.3975 149.620282 
L 452.7 150.586995 
L 452.0025 151.70949 
L 451.305 152.97937 
L 450.6075 154.386979 
L 449.91 155.92148 
L 449.2125 157.570936 
L 448.515 159.322406 
L 447.8175 161.16205 
L 447.12 163.075238 
L 446.4225 165.046674 
L 445.725 167.060514 
L 445.0275 169.100505 
L 444.33 171.150112 
L 443.6325 173.192661 
L 442.935 175.211476 
L 442.2375 177.190021 
L 441.54 179.112038 
L 440.8425 180.961684 
L 440.145 182.72367 
L 439.4475 184.383388 
L 438.75 185.927039 
L 438.0525 187.34175 
L 437.355 188.615687 
L 436.6575 189.738162 
L 435.96 190.69972 
L 435.2625 191.492231 
L 434.565 192.108955 
L 433.8675 192.544611 
L 433.17 192.795423 
L 432.4725 192.859157 
L 431.775 192.735144 
L 431.0775 192.424291 
L 430.38 191.92908 
L 429.6825 191.25355 
L 428.985 190.403266 
L 428.2875 189.385277 
L 427.59 188.208064 
L 426.8925 186.881466 
L 426.195 185.416602 
L 425.4975 183.825783 
L 424.8 182.122406 
L 424.1025 180.320846 
L 423.405 178.436331 
L 422.7075 176.484822 
L 422.01 174.48287 
L 421.3125 172.447483 
L 420.615 170.395975 
L 419.9175 168.345826 
L 419.22 166.314525 
L 418.5225 164.319427 
L 417.825 162.377598 
L 417.1275 160.505671 
L 416.43 158.719702 
L 415.7325 157.035029 
L 415.035 155.466138 
L 414.3375 154.026539 
L 413.64 152.728646 
L 412.9425 151.583664 
L 412.245 150.601495 
L 411.5475 149.790645 
L 410.85 149.158151 
L 410.1525 148.70951 
L 409.455 148.448636 
L 408.7575 148.377817 
L 408.06 148.497692 
L 407.3625 148.807242 
L 406.665 149.303793 
L 405.9675 149.983039 
L 405.27 150.839071 
L 404.5725 151.864426 
L 403.875 153.050148 
L 403.1775 154.385861 
L 402.48 155.859857 
L 401.7825 157.459193 
L 401.085 159.169799 
L 400.3875 160.976603 
L 399.69 162.863653 
L 398.9925 164.814258 
L 398.295 166.811129 
L 397.5975 168.83653 
L 396.9 170.87243 
L 396.2025 172.900662 
L 395.505 174.903078 
L 394.8075 176.861712 
L 394.11 178.758932 
L 393.4125 180.5776 
L 392.715 182.301224 
L 392.0175 183.9141 
L 391.32 185.401455 
L 390.6225 186.749581 
L 389.925 187.945954 
L 389.2275 188.979354 
L 388.53 189.839961 
L 387.8325 190.519454 
L 387.135 191.011081 
L 386.4375 191.30973 
L 385.74 191.411977 
L 385.0425 191.316126 
L 384.345 191.022225 
L 383.6475 190.532076 
L 382.95 189.849226 
L 382.2525 188.978941 
L 381.555 187.928171 
L 380.8575 186.705491 
L 380.16 185.321035 
L 379.4625 183.786414 
L 378.765 182.11462 
L 378.0675 180.319921 
L 377.37 178.417735 
L 376.6725 176.424507 
L 375.975 174.357568 
L 375.2775 172.234983 
L 374.58 170.075404 
L 373.8825 167.897901 
L 373.185 165.721807 
L 372.4875 163.56654 
L 371.79 161.451442 
L 371.0925 159.395607 
L 370.395 157.417712 
L 369.6975 155.535852 
L 369 153.767383 
L 368.3025 152.128763 
L 367.605 150.635407 
L 366.9075 149.301546 
L 366.21 148.140098 
L 365.5125 147.162547 
L 364.815 146.378841 
L 364.1175 145.797293 
L 363.42 145.424502 
L 362.7225 145.265287 
L 362.025 145.322636 
L 361.3275 145.59767 
L 360.63 146.089627 
L 359.9325 146.795853 
L 359.235 147.711819 
L 358.5375 148.831151 
L 357.84 150.145671 
L 357.1425 151.645465 
L 356.445 153.318952 
L 355.7475 155.15298 
L 355.05 157.13293 
L 354.3525 159.242833 
L 353.655 161.465502 
L 352.9575 163.782672 
L 352.26 166.175151 
L 351.5625 168.622983 
L 350.865 171.105612 
L 350.1675 173.602055 
L 349.47 176.091082 
L 348.7725 178.551397 
L 348.075 180.961815 
L 347.3775 183.30145 
L 346.68 185.549891 
L 345.9825 187.68738 
L 345.285 189.694984 
L 344.5875 191.554762 
L 343.89 193.249919 
L 343.1925 194.764961 
L 342.495 196.085828 
L 341.7975 197.200022 
L 341.1 198.096725 
L 340.4025 198.766893 
L 339.705 199.203345 
L 339.0075 199.400836 
L 338.31 199.356102 
L 337.6125 199.067907 
L 336.915 198.537057 
L 336.2175 197.766404 
L 335.52 196.760832 
L 334.8225 195.527226 
L 334.125 194.074422 
L 333.4275 192.41314 
L 332.73 190.555903 
L 332.0325 188.516942 
L 331.335 186.312077 
L 330.6375 183.958599 
L 329.94 181.475122 
L 329.2425 178.881438 
L 328.545 176.198354 
L 327.8475 173.447519 
L 327.15 170.651247 
L 326.4525 167.832333 
L 325.755 165.013861 
L 325.0575 162.219013 
L 324.36 159.470873 
L 323.6625 156.792238 
L 322.965 154.205416 
L 322.2675 151.732046 
L 321.57 149.392912 
L 320.8725 147.207761 
L 320.175 145.195141 
L 319.4775 143.372235 
L 318.78 141.754718 
L 318.0825 140.356615 
L 317.385 139.190183 
L 316.6875 138.265803 
L 315.99 137.591881 
L 315.2925 137.174778 
L 314.595 137.018749 
L 313.8975 137.125899 
L 313.2 137.496161 
L 312.5025 138.127291 
L 311.805 139.01488 
L 311.1075 140.152382 
L 310.41 141.531169 
L 309.7125 143.140592 
L 309.015 144.96807 
L 308.3175 146.999185 
L 307.62 149.217802 
L 306.9225 151.6062 
L 306.225 154.145212 
L 305.5275 156.814388 
L 304.83 159.592159 
L 304.1325 162.456015 
L 303.435 165.382694 
L 302.7375 168.348373 
L 302.04 171.328865 
L 301.3425 174.299824 
L 300.645 177.236945 
L 299.9475 180.116167 
L 299.25 182.913878 
L 298.5525 185.607112 
L 297.855 188.17374 
L 297.1575 190.592658 
L 296.46 192.843966 
L 295.7625 194.909135 
L 295.065 196.771165 
L 294.3675 198.414729 
L 293.67 199.826301 
L 292.9725 200.994277 
L 292.275 201.909069 
L 291.5775 202.563192 
L 290.88 202.951326 
L 290.1825 203.070363 
L 289.485 202.919436 
L 288.7875 202.499931 
L 288.09 201.81547 
L 287.3925 200.871892 
L 286.695 199.677196 
L 285.9975 198.241484 
L 285.3 196.57687 
L 284.6025 194.697386 
L 283.905 192.618859 
L 283.2075 190.358783 
L 282.51 187.936172 
L 281.8125 185.371397 
L 281.115 182.686021 
L 280.4175 179.90261 
L 279.72 177.04455 
L 279.0225 174.135846 
L 278.325 171.200918 
L 277.6275 168.2644 
L 276.93 165.350926 
L 276.2325 162.484926 
L 275.535 159.690413 
L 274.8375 156.99079 
L 274.14 154.408638 
L 273.4425 151.965537 
L 272.745 149.681874 
L 272.0475 147.576673 
L 271.35 145.667434 
L 270.6525 143.969982 
L 269.955 142.498334 
L 269.2575 141.264578 
L 268.56 140.278772 
L 267.8625 139.548854 
L 267.165 139.080579 
L 266.4675 138.877466 
L 265.77 138.940771 
L 265.0725 139.269473 
L 264.375 139.860284 
L 263.6775 140.707675 
L 262.98 141.803926 
L 262.2825 143.139191 
L 261.585 144.701579 
L 260.8875 146.477258 
L 260.19 148.450574 
L 259.4925 150.604183 
L 258.795 152.919198 
L 258.0975 155.375355 
L 257.4 157.951184 
L 256.7025 160.624192 
L 256.005 163.371058 
L 255.3075 166.167831 
L 254.61 168.990138 
L 253.9125 171.813392 
L 253.215 174.613005 
L 252.5175 177.364597 
L 251.82 180.044207 
L 251.1225 182.628501 
L 250.425 185.094973 
L 249.7275 187.422138 
L 249.03 189.589717 
L 248.3325 191.578816 
L 247.635 193.372086 
L 246.9375 194.953878 
L 246.24 196.310374 
L 245.5425 197.429711 
L 244.845 198.302084 
L 244.1475 198.919832 
L 243.45 199.277507 
L 242.7525 199.37192 
L 242.055 199.202175 
L 241.3575 198.769674 
L 240.66 198.07811 
L 239.9625 197.133436 
L 239.265 195.943817 
L 238.5675 194.519559 
L 237.87 192.873028 
L 237.1725 191.018537 
L 236.475 188.97223 
L 235.7775 186.751945 
L 235.08 184.377057 
L 234.3825 181.868318 
L 233.685 179.247673 
L 232.9875 176.53808 
L 232.29 173.763302 
L 231.5925 170.947712 
L 230.895 168.116079 
L 230.1975 165.293352 
L 229.5 162.504451 
L 228.8025 159.774042 
L 228.105 157.126334 
L 227.4075 154.584858 
L 226.71 152.172271 
L 226.0125 149.910154 
L 225.315 147.818824 
L 224.6175 145.917157 
L 223.92 144.222422 
L 223.2225 142.750129 
L 222.525 141.513889 
L 221.8275 140.525297 
L 221.13 139.793825 
L 220.4325 139.326735 
L 219.735 139.129016 
L 219.0375 139.203331 
L 218.34 139.549994 
L 217.6425 140.166957 
L 216.945 141.049828 
L 216.2475 142.1919 
L 215.55 143.584203 
L 214.8525 145.215579 
L 214.155 147.072773 
L 213.4575 149.140537 
L 212.76 151.401765 
L 212.0625 153.837626 
L 211.365 156.427731 
L 210.6675 159.150297 
L 209.97 161.982335 
L 209.2725 164.899842 
L 208.575 167.878005 
L 207.8775 170.891413 
L 207.18 173.914271 
L 206.4825 176.920622 
L 205.785 179.884567 
L 205.0875 182.780487 
L 204.39 185.583263 
L 203.6925 188.268493 
L 202.995 190.812701 
L 202.2975 193.193538 
L 201.6 195.389979 
L 200.9025 197.382504 
L 200.205 199.153265 
L 199.5075 200.686247 
L 198.81 201.967408 
L 198.1125 202.984799 
L 197.415 203.728676 
L 196.7175 204.191583 
L 196.02 204.368428 
L 195.3225 204.256524 
L 194.625 203.855622 
L 193.9275 203.167918 
L 193.23 202.198041 
L 192.5325 200.953016 
L 191.835 199.442214 
L 191.1375 197.677276 
L 190.44 195.67202 
L 189.7425 193.442329 
L 189.045 191.006022 
L 188.3475 188.382704 
L 187.65 185.59361 
L 186.9525 182.661426 
L 186.255 179.610099 
L 185.5575 176.464642 
L 184.86 173.25092 
L 184.1625 169.995439 
L 183.465 166.72512 
L 182.7675 163.467077 
L 182.07 160.248383 
L 181.3725 157.095851 
L 180.675 154.035798 
L 179.9775 151.093832 
L 179.28 148.29463 
L 178.5825 145.661731 
L 177.885 143.217336 
L 177.1875 140.982121 
L 176.49 138.975058 
L 175.7925 137.213258 
L 175.095 135.71182 
L 174.3975 134.483704 
L 173.7 133.539619 
L 173.0025 132.88793 
L 172.305 132.534587 
L 171.6075 132.483068 
L 170.91 132.734351 
L 170.2125 133.286902 
L 169.515 134.136681 
L 168.8175 135.277181 
L 168.12 136.699472 
L 167.4225 138.392279 
L 166.725 140.342072 
L 166.0275 142.533176 
L 165.33 144.947902 
L 164.6325 147.566694 
L 163.935 150.368289 
L 163.2375 153.329896 
L 162.54 156.427382 
L 161.8425 159.635476 
L 161.145 162.927978 
L 160.4475 166.27798 
L 159.75 169.658086 
L 159.0525 173.040643 
L 158.355 176.397974 
L 157.6575 179.702605 
L 156.96 182.927497 
L 156.2625 186.046272 
L 155.565 189.033431 
L 154.8675 191.86457 
L 154.17 194.516583 
L 153.4725 196.967853 
L 152.775 199.198434 
L 152.0775 201.190216 
L 151.38 202.927079 
L 150.6825 204.395023 
L 149.985 205.582288 
L 149.2875 206.479447 
L 148.59 207.079489 
L 147.8925 207.377872 
L 147.195 207.372562 
L 146.4975 207.064049 
L 145.8 206.455339 
L 145.1025 205.551928 
L 144.405 204.361756 
L 143.7075 202.895135 
L 143.01 201.164667 
L 142.3125 199.185127 
L 141.615 196.973345 
L 140.9175 194.548062 
L 140.22 191.929768 
L 139.5225 189.140529 
L 138.825 186.203801 
L 138.1275 183.144234 
L 137.43 179.987459 
L 136.7325 176.759873 
L 136.035 173.48842 
L 135.3375 170.200359 
L 134.64 166.923035 
L 133.9425 163.683653 
L 133.245 160.509045 
L 132.5475 157.425446 
L 131.85 154.458274 
L 131.1525 151.631917 
L 130.455 148.969528 
L 129.7575 146.492835 
L 129.06 144.221955 
L 128.3625 142.175229 
L 127.665 140.369071 
L 126.9675 138.817832 
L 126.27 137.53368 
L 125.5725 136.526502 
L 124.875 135.803825 
L 124.1775 135.370756 
L 123.48 135.22994 
L 122.7825 135.381546 
L 122.085 135.823268 
L 121.3875 136.550346 
L 120.69 137.555617 
L 119.9925 138.829574 
L 119.295 140.360453 
L 118.5975 142.134338 
L 117.9 144.135282 
L 117.2025 146.345446 
L 116.505 148.745255 
L 115.8075 151.313566 
L 115.11 154.027855 
L 114.4125 156.864405 
L 113.715 159.798517 
L 113.0175 162.804718 
L 112.32 165.856982 
L 111.6225 168.92895 
L 110.925 171.99416 
L 110.2275 175.026273 
L 109.53 177.999293 
L 108.8325 180.887795 
L 108.135 183.667138 
L 107.4375 186.313676 
L 106.74 188.804959 
L 106.0425 191.119922 
L 105.345 193.239066 
L 104.6475 195.144619 
L 103.95 196.820689 
L 103.2525 198.253399 
L 102.555 199.430996 
L 101.8575 200.343957 
L 101.16 200.985063 
L 100.4625 201.349456 
L 99.765 201.434685 
L 99.0675 201.240714 
L 98.37 200.769926 
L 97.6725 200.027096 
L 96.975 199.019349 
L 96.2775 197.756094 
L 95.58 196.248939 
L 94.8825 194.511591 
L 94.185 192.559733 
L 93.4875 190.410889 
L 92.79 188.084268 
L 92.0925 185.600599 
L 91.395 182.981948 
L 90.6975 180.251529 
L 90 177.433501 
z
" style="fill:#e0ffff;"/>
   </g>
   <g id="line2d_19">
    <path clip-path="url(#pafe5369dc0)" d="M 90 177.433501 
L 92.0925 185.600599 
L 93.4875 190.410889 
L 94.8825 194.511591 
L 96.2775 197.756094 
L 96.975 199.019349 
L 97.6725 200.027096 
L 98.37 200.769926 
L 99.0675 201.240714 
L 99.765 201.434685 
L 100.4625 201.349456 
L 101.16 200.985063 
L 101.8575 200.343957 
L 102.555 199.430996 
L 103.2525 198.253399 
L 104.6475 195.144619 
L 106.0425 191.119922 
L 107.4375 186.313676 
L 109.53 177.999293 
L 116.505 148.745255 
L 117.9 144.135282 
L 119.295 140.360453 
L 120.69 137.555617 
L 121.3875 136.550346 
L 122.085 135.823268 
L 122.7825 135.381546 
L 123.48 135.22994 
L 124.1775 135.370756 
L 124.875 135.803825 
L 125.5725 136.526502 
L 126.27 137.53368 
L 126.9675 138.817832 
L 128.3625 142.175229 
L 129.7575 146.492835 
L 131.1525 151.631917 
L 133.245 160.509045 
L 140.22 191.929768 
L 141.615 196.973345 
L 143.01 201.164667 
L 144.405 204.361756 
L 145.1025 205.551928 
L 145.8 206.455339 
L 146.4975 207.064049 
L 147.195 207.372562 
L 147.8925 207.377872 
L 148.59 207.079489 
L 149.2875 206.479447 
L 149.985 205.582288 
L 150.6825 204.395023 
L 151.38 202.927079 
L 152.775 199.198434 
L 154.17 194.516583 
L 155.565 189.033431 
L 157.6575 179.702605 
L 163.935 150.368289 
L 165.33 144.947902 
L 166.725 140.342072 
L 168.12 136.699472 
L 168.8175 135.277181 
L 169.515 134.136681 
L 170.2125 133.286902 
L 170.91 132.734351 
L 171.6075 132.483068 
L 172.305 132.534587 
L 173.0025 132.88793 
L 173.7 133.539619 
L 174.3975 134.483704 
L 175.095 135.71182 
L 176.49 138.975058 
L 177.885 143.217336 
L 179.28 148.29463 
L 181.3725 157.095851 
L 188.3475 188.382704 
L 189.7425 193.442329 
L 191.1375 197.677276 
L 192.5325 200.953016 
L 193.23 202.198041 
L 193.9275 203.167918 
L 194.625 203.855622 
L 195.3225 204.256524 
L 196.02 204.368428 
L 196.7175 204.191583 
L 197.415 203.728676 
L 198.1125 202.984799 
L 198.81 201.967408 
L 199.5075 200.686247 
L 200.9025 197.382504 
L 202.2975 193.193538 
L 203.6925 188.268493 
L 205.785 179.884567 
L 211.365 156.427731 
L 212.76 151.401765 
L 214.155 147.072773 
L 215.55 143.584203 
L 216.2475 142.1919 
L 216.945 141.049828 
L 217.6425 140.166957 
L 218.34 139.549994 
L 219.0375 139.203331 
L 219.735 139.129016 
L 220.4325 139.326735 
L 221.13 139.793825 
L 221.8275 140.525297 
L 222.525 141.513889 
L 223.2225 142.750129 
L 224.6175 145.917157 
L 226.0125 149.910154 
L 227.4075 154.584858 
L 229.5 162.504451 
L 235.08 184.377057 
L 236.475 188.97223 
L 237.87 192.873028 
L 239.265 195.943817 
L 239.9625 197.133436 
L 240.66 198.07811 
L 241.3575 198.769674 
L 242.055 199.202175 
L 242.7525 199.37192 
L 243.45 199.277507 
L 244.1475 198.919832 
L 244.845 198.302084 
L 245.5425 197.429711 
L 246.24 196.310374 
L 247.635 193.372086 
L 249.03 189.589717 
L 250.425 185.094973 
L 252.5175 177.364597 
L 258.795 152.919198 
L 260.19 148.450574 
L 261.585 144.701579 
L 262.98 141.803926 
L 263.6775 140.707675 
L 264.375 139.860284 
L 265.0725 139.269473 
L 265.77 138.940771 
L 266.4675 138.877466 
L 267.165 139.080579 
L 267.8625 139.548854 
L 268.56 140.278772 
L 269.2575 141.264578 
L 269.955 142.498334 
L 271.35 145.667434 
L 272.745 149.681874 
L 274.14 154.408638 
L 276.2325 162.484926 
L 282.51 187.936172 
L 283.905 192.618859 
L 285.3 196.57687 
L 286.695 199.677196 
L 287.3925 200.871892 
L 288.09 201.81547 
L 288.7875 202.499931 
L 289.485 202.919436 
L 290.1825 203.070363 
L 290.88 202.951326 
L 291.5775 202.563192 
L 292.275 201.909069 
L 292.9725 200.994277 
L 293.67 199.826301 
L 295.065 196.771165 
L 296.46 192.843966 
L 297.855 188.17374 
L 299.9475 180.116167 
L 306.9225 151.6062 
L 308.3175 146.999185 
L 309.7125 143.140592 
L 311.1075 140.152382 
L 311.805 139.01488 
L 312.5025 138.127291 
L 313.2 137.496161 
L 313.8975 137.125899 
L 314.595 137.018749 
L 315.2925 137.174778 
L 315.99 137.591881 
L 316.6875 138.265803 
L 317.385 139.190183 
L 318.0825 140.356615 
L 319.4775 143.372235 
L 320.8725 147.207761 
L 322.2675 151.732046 
L 324.36 159.470873 
L 330.6375 183.958599 
L 332.0325 188.516942 
L 333.4275 192.41314 
L 334.8225 195.527226 
L 335.52 196.760832 
L 336.2175 197.766404 
L 336.915 198.537057 
L 337.6125 199.067907 
L 338.31 199.356102 
L 339.0075 199.400836 
L 339.705 199.203345 
L 340.4025 198.766893 
L 341.1 198.096725 
L 341.7975 197.200022 
L 343.1925 194.764961 
L 344.5875 191.554762 
L 345.9825 187.68738 
L 348.075 180.961815 
L 355.05 157.13293 
L 356.445 153.318952 
L 357.84 150.145671 
L 359.235 147.711819 
L 359.9325 146.795853 
L 360.63 146.089627 
L 361.3275 145.59767 
L 362.025 145.322636 
L 362.7225 145.265287 
L 363.42 145.424502 
L 364.1175 145.797293 
L 364.815 146.378841 
L 365.5125 147.162547 
L 366.9075 149.301546 
L 368.3025 152.128763 
L 369.6975 155.535852 
L 371.79 161.451442 
L 378.0675 180.319921 
L 379.4625 183.786414 
L 380.8575 186.705491 
L 382.2525 188.978941 
L 382.95 189.849226 
L 383.6475 190.532076 
L 384.345 191.022225 
L 385.0425 191.316126 
L 385.74 191.411977 
L 386.4375 191.30973 
L 387.135 191.011081 
L 387.8325 190.519454 
L 388.53 189.839961 
L 389.925 187.945954 
L 391.32 185.401455 
L 392.715 182.301224 
L 394.8075 176.861712 
L 401.7825 157.459193 
L 403.1775 154.385861 
L 404.5725 151.864426 
L 405.9675 149.983039 
L 406.665 149.303793 
L 407.3625 148.807242 
L 408.06 148.497692 
L 408.7575 148.377817 
L 409.455 148.448636 
L 410.1525 148.70951 
L 410.85 149.158151 
L 411.5475 149.790645 
L 412.245 150.601495 
L 413.64 152.728646 
L 415.035 155.466138 
L 416.43 158.719702 
L 418.5225 164.319427 
L 424.8 182.122406 
L 426.195 185.416602 
L 427.59 188.208064 
L 428.985 190.403266 
L 430.38 191.92908 
L 431.0775 192.424291 
L 431.775 192.735144 
L 432.4725 192.859157 
L 433.17 192.795423 
L 433.8675 192.544611 
L 434.565 192.108955 
L 435.2625 191.492231 
L 435.96 190.69972 
L 437.355 188.615687 
L 438.75 185.927039 
L 440.145 182.72367 
L 442.2375 177.190021 
L 449.2125 157.570936 
L 450.6075 154.386979 
L 452.0025 151.70949 
L 453.3975 149.620282 
L 454.7925 148.181131 
L 455.49 147.718684 
L 456.1875 147.431935 
L 456.885 147.322272 
L 457.5825 147.389628 
L 458.28 147.632481 
L 458.9775 148.04788 
L 459.675 148.631477 
L 461.07 150.279171 
L 462.465 152.514822 
L 463.86 155.259309 
L 465.9525 160.119671 
L 468.7425 167.406164 
L 472.23 176.474098 
L 474.3225 181.206798 
L 475.7175 183.860126 
L 477.1125 186.020488 
L 478.5075 187.629007 
L 479.205 188.213163 
L 479.9025 188.646076 
L 480.6 188.925966 
L 481.2975 189.052342 
L 481.995 189.025993 
L 482.6925 188.848971 
L 483.39 188.524559 
L 484.0875 188.057232 
L 485.4825 186.717389 
L 486.8775 184.886978 
L 488.2725 182.638524 
L 490.365 178.670009 
L 493.8525 171.275856 
L 496.6425 165.561981 
L 498.735 161.88248 
L 500.13 159.862259 
L 501.525 158.256748 
L 502.92 157.107078 
L 504.315 156.437541 
L 505.0125 156.285688 
L 505.71 156.255145 
L 506.4075 156.344114 
L 507.8025 156.868297 
L 509.1975 157.824027 
L 510.5925 159.162897 
L 511.9875 160.824337 
L 514.08 163.765538 
L 521.055 174.216528 
L 522.45 175.85062 
L 523.845 177.186392 
L 525.24 178.182807 
L 526.635 178.812383 
L 528.03 179.0619 
L 529.425 178.932569 
L 530.82 178.439683 
L 532.215 177.611766 
L 533.61 176.489252 
L 535.005 175.122766 
L 537.0975 172.74576 
L 542.6775 166.075091 
L 544.77 164.076384 
L 546.165 163.045627 
L 547.56 162.30164 
L 548.955 161.870762 
L 550.35 161.767239 
L 551.745 161.992876 
L 553.14 162.537155 
L 554.535 163.377794 
L 555.93 164.481736 
L 558.0225 166.536256 
L 560.8125 169.741269 
L 564.3 173.827536 
L 566.3925 175.966556 
L 567.7875 177.152454 
L 569.1825 178.096603 
L 570.5775 178.766427 
L 571.9725 179.13941 
L 573.3675 179.203748 
L 574.7625 178.958623 
L 576.1575 178.414057 
L 577.5525 177.590396 
L 578.9475 176.517412 
L 581.04 174.525467 
L 583.83 171.403325 
L 588.015 166.57863 
L 590.1075 164.482146 
L 591.5025 163.304612 
L 592.8975 162.34375 
L 594.2925 161.625315 
L 595.6875 161.166251 
L 597.0825 160.974325 
L 598.4775 161.048115 
L 599.8725 161.377326 
L 601.2675 161.943418 
L 602.6625 162.720521 
L 604.755 164.210367 
L 607.545 166.599969 
L 612.4275 170.960384 
L 614.52 172.56255 
L 616.6125 173.859232 
L 618.0075 174.522536 
L 619.4025 175.012775 
L 620.7975 175.327273 
L 622.1925 175.469979 
L 623.5875 175.450957 
L 625.68 175.154221 
L 627.7725 174.599194 
L 630.5625 173.6033 
L 636.1425 171.495783 
L 638.9325 170.706064 
L 641.7225 170.200508 
L 644.5125 169.965483 
L 646.605 169.92 
L 646.605 169.92 
" style="fill:none;stroke:#008080;stroke-linecap:round;stroke-width:1.75;"/>
   </g>
   <g id="patch_3">
    <path d="M 90 270.72 
L 90 69.12 
" style="fill:none;stroke:#262626;stroke-linecap:square;stroke-linejoin:miter;stroke-width:1.25;"/>
   </g>
   <g id="patch_4">
    <path d="M 90 270.72 
L 648 270.72 
" style="fill:none;stroke:#262626;stroke-linecap:square;stroke-linejoin:miter;stroke-width:1.25;"/>
   </g>
  </g>
  <g id="axes_2">
   <g id="patch_5">
    <path d="M 90 512.64 
L 648 512.64 
L 648 311.04 
L 90 311.04 
z
" style="fill:#ffffff;"/>
   </g>
   <g id="matplotlib.axis_3">
    <g id="xtick_10">
     <g id="line2d_20">
      <g>
       <use style="fill:#262626;stroke:#262626;" x="191.454545" xlink:href="#me6d71da8d9" y="512.64"/>
      </g>
     </g>
     <g id="text_19">
      <!-- 200 -->
      <g style="fill:#262626;" transform="translate(183.113139 532.797812)scale(0.1 -0.1)">
       <use xlink:href="#ArialMT-32"/>
       <use x="55.615234" xlink:href="#ArialMT-30"/>
       <use x="111.230469" xlink:href="#ArialMT-30"/>
      </g>
     </g>
    </g>
    <g id="xtick_11">
     <g id="line2d_21">
      <g>
       <use style="fill:#262626;stroke:#262626;" x="304.181818" xlink:href="#me6d71da8d9" y="512.64"/>
      </g>
     </g>
     <g id="text_20">
      <!-- 400 -->
      <g style="fill:#262626;" transform="translate(295.840412 532.797812)scale(0.1 -0.1)">
       <use xlink:href="#ArialMT-34"/>
       <use x="55.615234" xlink:href="#ArialMT-30"/>
       <use x="111.230469" xlink:href="#ArialMT-30"/>
      </g>
     </g>
    </g>
    <g id="xtick_12">
     <g id="line2d_22">
      <g>
       <use style="fill:#262626;stroke:#262626;" x="416.909091" xlink:href="#me6d71da8d9" y="512.64"/>
      </g>
     </g>
     <g id="text_21">
      <!-- 600 -->
      <g style="fill:#262626;" transform="translate(408.567685 532.797812)scale(0.1 -0.1)">
       <use xlink:href="#ArialMT-36"/>
       <use x="55.615234" xlink:href="#ArialMT-30"/>
       <use x="111.230469" xlink:href="#ArialMT-30"/>
      </g>
     </g>
    </g>
    <g id="xtick_13">
     <g id="line2d_23">
      <g>
       <use style="fill:#262626;stroke:#262626;" x="529.636364" xlink:href="#me6d71da8d9" y="512.64"/>
      </g>
     </g>
     <g id="text_22">
      <!-- 800 -->
      <g style="fill:#262626;" transform="translate(521.294957 532.797812)scale(0.1 -0.1)">
       <use xlink:href="#ArialMT-38"/>
       <use x="55.615234" xlink:href="#ArialMT-30"/>
       <use x="111.230469" xlink:href="#ArialMT-30"/>
      </g>
     </g>
    </g>
    <g id="xtick_14">
     <g id="line2d_24">
      <g>
       <use style="fill:#262626;stroke:#262626;" x="642.363636" xlink:href="#me6d71da8d9" y="512.64"/>
      </g>
     </g>
     <g id="text_23">
      <!-- 1000 -->
      <g style="fill:#262626;" transform="translate(631.241761 532.797812)scale(0.1 -0.1)">
       <use xlink:href="#ArialMT-31"/>
       <use x="55.615234" xlink:href="#ArialMT-30"/>
       <use x="111.230469" xlink:href="#ArialMT-30"/>
       <use x="166.845703" xlink:href="#ArialMT-30"/>
      </g>
     </g>
    </g>
   </g>
   <g id="matplotlib.axis_4">
    <g id="ytick_10">
     <g id="line2d_25">
      <g>
       <use style="fill:#262626;stroke:#262626;" x="90" xlink:href="#m5f9f768fe6" y="512.64"/>
      </g>
     </g>
     <g id="text_24">
      <!-- 0 -->
      <g style="fill:#262626;" transform="translate(71.439063 516.218906)scale(0.1 -0.1)">
       <use xlink:href="#ArialMT-30"/>
      </g>
     </g>
    </g>
    <g id="ytick_11">
     <g id="line2d_26">
      <g>
       <use style="fill:#262626;stroke:#262626;" x="90" xlink:href="#m5f9f768fe6" y="487.44"/>
      </g>
     </g>
     <g id="text_25">
      <!-- 5 -->
      <g style="fill:#262626;" transform="translate(71.439063 491.018906)scale(0.1 -0.1)">
       <use xlink:href="#ArialMT-35"/>
      </g>
     </g>
    </g>
    <g id="ytick_12">
     <g id="line2d_27">
      <g>
       <use style="fill:#262626;stroke:#262626;" x="90" xlink:href="#m5f9f768fe6" y="462.24"/>
      </g>
     </g>
     <g id="text_26">
      <!-- 10 -->
      <g style="fill:#262626;" transform="translate(65.878125 465.818906)scale(0.1 -0.1)">
       <use xlink:href="#ArialMT-31"/>
       <use x="55.615234" xlink:href="#ArialMT-30"/>
      </g>
     </g>
    </g>
    <g id="ytick_13">
     <g id="line2d_28">
      <g>
       <use style="fill:#262626;stroke:#262626;" x="90" xlink:href="#m5f9f768fe6" y="437.04"/>
      </g>
     </g>
     <g id="text_27">
      <!-- 15 -->
      <g style="fill:#262626;" transform="translate(65.878125 440.618906)scale(0.1 -0.1)">
       <use xlink:href="#ArialMT-31"/>
       <use x="55.615234" xlink:href="#ArialMT-35"/>
      </g>
     </g>
    </g>
    <g id="ytick_14">
     <g id="line2d_29">
      <g>
       <use style="fill:#262626;stroke:#262626;" x="90" xlink:href="#m5f9f768fe6" y="411.84"/>
      </g>
     </g>
     <g id="text_28">
      <!-- 20 -->
      <g style="fill:#262626;" transform="translate(65.878125 415.418906)scale(0.1 -0.1)">
       <use xlink:href="#ArialMT-32"/>
       <use x="55.615234" xlink:href="#ArialMT-30"/>
      </g>
     </g>
    </g>
    <g id="ytick_15">
     <g id="line2d_30">
      <g>
       <use style="fill:#262626;stroke:#262626;" x="90" xlink:href="#m5f9f768fe6" y="386.64"/>
      </g>
     </g>
     <g id="text_29">
      <!-- 25 -->
      <g style="fill:#262626;" transform="translate(65.878125 390.218906)scale(0.1 -0.1)">
       <use xlink:href="#ArialMT-32"/>
       <use x="55.615234" xlink:href="#ArialMT-35"/>
      </g>
     </g>
    </g>
    <g id="ytick_16">
     <g id="line2d_31">
      <g>
       <use style="fill:#262626;stroke:#262626;" x="90" xlink:href="#m5f9f768fe6" y="361.44"/>
      </g>
     </g>
     <g id="text_30">
      <!-- 30 -->
      <g style="fill:#262626;" transform="translate(65.878125 365.018906)scale(0.1 -0.1)">
       <use xlink:href="#ArialMT-33"/>
       <use x="55.615234" xlink:href="#ArialMT-30"/>
      </g>
     </g>
    </g>
    <g id="ytick_17">
     <g id="line2d_32">
      <g>
       <use style="fill:#262626;stroke:#262626;" x="90" xlink:href="#m5f9f768fe6" y="336.24"/>
      </g>
     </g>
     <g id="text_31">
      <!-- 35 -->
      <g style="fill:#262626;" transform="translate(65.878125 339.818906)scale(0.1 -0.1)">
       <use xlink:href="#ArialMT-33"/>
       <use x="55.615234" xlink:href="#ArialMT-35"/>
      </g>
     </g>
    </g>
    <g id="ytick_18">
     <g id="line2d_33">
      <g>
       <use style="fill:#262626;stroke:#262626;" x="90" xlink:href="#m5f9f768fe6" y="311.04"/>
      </g>
     </g>
     <g id="text_32">
      <!-- 40 -->
      <g style="fill:#262626;" transform="translate(65.878125 314.618906)scale(0.1 -0.1)">
       <use xlink:href="#ArialMT-34"/>
       <use x="55.615234" xlink:href="#ArialMT-30"/>
      </g>
     </g>
    </g>
   </g>
   <g id="line2d_34">
    <path clip-path="url(#p339f61aa1a)" d="M 90 488.562059 
L 95.636364 492.871917 
L 101.272727 491.915277 
L 106.909091 490.291312 
L 112.545455 492.192009 
L 118.181818 490.692663 
L 123.818182 490.203121 
L 129.454545 491.968658 
L 135.090909 490.163889 
L 140.727273 490.392837 
L 146.363636 490.241829 
L 152 489.156296 
L 157.636364 490.240305 
L 163.272727 490.645166 
L 168.909091 488.187222 
L 174.545455 488.633986 
L 180.181818 487.313077 
L 185.818182 487.018973 
L 191.454545 487.338343 
L 197.090909 486.121391 
L 202.727273 487.201243 
L 208.363636 484.042031 
L 214 483.157918 
L 219.636364 483.169266 
L 225.272727 482.846357 
L 230.909091 480.992047 
L 236.545455 479.145187 
L 242.181818 476.443916 
L 247.818182 475.314111 
L 253.454545 475.654125 
L 259.090909 473.305387 
L 264.727273 469.316541 
L 270.363636 463.226508 
L 276 459.185057 
L 281.636364 457.614718 
L 287.272727 454.794335 
L 292.909091 445.504843 
L 298.545455 423.732573 
L 304.181818 397.596726 
L 309.818182 374.961344 
L 315.454545 359.936381 
L 321.090909 350.604229 
L 326.727273 348.320806 
L 332.363636 355.280194 
L 338 371.866917 
L 343.636364 395.340341 
L 349.272727 419.997954 
L 354.909091 443.187999 
L 360.545455 460.277658 
L 366.181818 467.98198 
L 371.818182 471.852273 
L 377.454545 475.259843 
L 383.090909 478.489151 
L 388.727273 479.074231 
L 394.363636 476.894748 
L 400 474.552455 
L 405.636364 471.950812 
L 411.272727 468.681632 
L 416.909091 461.027911 
L 422.545455 441.166731 
L 428.181818 416.729328 
L 433.818182 392.840566 
" style="fill:none;stroke:#b22222;stroke-linecap:round;stroke-width:1.75;"/>
   </g>
   <g id="patch_6">
    <path d="M 90 512.64 
L 90 311.04 
" style="fill:none;stroke:#262626;stroke-linecap:square;stroke-linejoin:miter;stroke-width:1.25;"/>
   </g>
   <g id="patch_7">
    <path d="M 90 512.64 
L 648 512.64 
" style="fill:none;stroke:#262626;stroke-linecap:square;stroke-linejoin:miter;stroke-width:1.25;"/>
   </g>
   <g id="text_33">
    <!-- f = 630 Hz -->
    <defs>
     <path d="M 8.6875 0 
L 8.6875 45.015625 
L 0.921875 45.015625 
L 0.921875 51.859375 
L 8.6875 51.859375 
L 8.6875 57.375 
Q 8.6875 62.59375 9.625 65.140625 
Q 10.890625 68.5625 14.078125 70.671875 
Q 17.28125 72.796875 23.046875 72.796875 
Q 26.765625 72.796875 31.25 71.921875 
L 29.9375 64.265625 
Q 27.203125 64.75 24.75 64.75 
Q 20.75 64.75 19.09375 63.03125 
Q 17.4375 61.328125 17.4375 56.640625 
L 17.4375 51.859375 
L 27.546875 51.859375 
L 27.546875 45.015625 
L 17.4375 45.015625 
L 17.4375 0 
z
" id="ArialMT-66"/>
     <path id="ArialMT-20"/>
     <path d="M 52.828125 42.09375 
L 5.5625 42.09375 
L 5.5625 50.296875 
L 52.828125 50.296875 
z
M 52.828125 20.359375 
L 5.5625 20.359375 
L 5.5625 28.5625 
L 52.828125 28.5625 
z
" id="ArialMT-3d"/>
     <path d="M 8.015625 0 
L 8.015625 71.578125 
L 17.484375 71.578125 
L 17.484375 42.1875 
L 54.6875 42.1875 
L 54.6875 71.578125 
L 64.15625 71.578125 
L 64.15625 0 
L 54.6875 0 
L 54.6875 33.734375 
L 17.484375 33.734375 
L 17.484375 0 
z
" id="ArialMT-48"/>
     <path d="M 1.953125 0 
L 1.953125 7.125 
L 34.96875 45.015625 
Q 29.34375 44.734375 25.046875 44.734375 
L 3.90625 44.734375 
L 3.90625 51.859375 
L 46.296875 51.859375 
L 46.296875 46.046875 
L 18.21875 13.140625 
L 12.796875 7.125 
Q 18.703125 7.5625 23.875 7.5625 
L 47.859375 7.5625 
L 47.859375 0 
z
" id="ArialMT-7a"/>
    </defs>
    <g style="fill:#262626;" transform="translate(529.636364 364.542187)scale(0.12 -0.12)">
     <use xlink:href="#ArialMT-66"/>
     <use x="27.783203" xlink:href="#ArialMT-20"/>
     <use x="55.566406" xlink:href="#ArialMT-3d"/>
     <use x="113.964844" xlink:href="#ArialMT-20"/>
     <use x="141.748047" xlink:href="#ArialMT-36"/>
     <use x="197.363281" xlink:href="#ArialMT-33"/>
     <use x="252.978516" xlink:href="#ArialMT-30"/>
     <use x="308.59375" xlink:href="#ArialMT-20"/>
     <use x="336.376953" xlink:href="#ArialMT-48"/>
     <use x="408.59375" xlink:href="#ArialMT-7a"/>
    </g>
   </g>
   <g id="PathCollection_1">
    <defs>
     <path d="M 0 3.5 
C 0.928211 3.5 1.81853 3.131218 2.474874 2.474874 
C 3.131218 1.81853 3.5 0.928211 3.5 0 
C 3.5 -0.928211 3.131218 -1.81853 2.474874 -2.474874 
C 1.81853 -3.131218 0.928211 -3.5 0 -3.5 
C -0.928211 -3.5 -1.81853 -3.131218 -2.474874 -2.474874 
C -3.131218 -1.81853 -3.5 -0.928211 -3.5 0 
C -3.5 0.928211 -3.131218 1.81853 -2.474874 2.474874 
C -1.81853 3.131218 -0.928211 3.5 0 3.5 
z
" id="m123bcbc3e7" style="stroke:#800000;stroke-width:0.3;"/>
    </defs>
    <g clip-path="url(#p339f61aa1a)">
     <use style="fill:#800000;stroke:#800000;stroke-width:0.3;" x="433.818182" xlink:href="#m123bcbc3e7" y="392.840566"/>
    </g>
   </g>
  </g>
 </g>
 <defs>
  <clipPath id="pafe5369dc0">
   <rect height="201.6" width="558" x="90" y="69.12"/>
  </clipPath>
  <clipPath id="p339f61aa1a">
   <rect height="201.6" width="558" x="90" y="311.04"/>
  </clipPath>
 </defs>
</svg>
