<?xml version="1.0" encoding="utf-8" standalone="no"?>
<!DOCTYPE svg PUBLIC "-//W3C//DTD SVG 1.1//EN"
  "http://www.w3.org/Graphics/SVG/1.1/DTD/svg11.dtd">
<!-- Created with matplotlib (http://matplotlib.org/) -->
<svg height="576pt" version="1.1" viewBox="0 0 720 576" width="720pt" xmlns="http://www.w3.org/2000/svg" xmlns:xlink="http://www.w3.org/1999/xlink">
 <defs>
  <style type="text/css">
*{stroke-linecap:butt;stroke-linejoin:round;}
  </style>
 </defs>
 <g id="figure_1">
  <g id="patch_1">
   <path d="M 0 576 
L 720 576 
L 720 0 
L 0 0 
z
" style="fill:#ffffff;"/>
  </g>
  <g id="axes_1">
   <g id="patch_2">
    <path d="M 90 270.72 
L 648 270.72 
L 648 69.12 
L 90 69.12 
z
" style="fill:#ffffff;"/>
   </g>
   <g id="matplotlib.axis_1">
    <g id="xtick_1">
     <g id="line2d_1">
      <defs>
       <path d="M 0 0 
L 0 6 
" id="m5c19605a67" style="stroke:#262626;"/>
      </defs>
      <g>
       <use style="fill:#262626;stroke:#262626;" x="90" xlink:href="#m5c19605a67" y="270.72"/>
      </g>
     </g>
     <g id="text_1">
      <!-- 0 -->
      <defs>
       <path d="M 4.15625 35.296875 
Q 4.15625 48 6.765625 55.734375 
Q 9.375 63.484375 14.515625 67.671875 
Q 19.671875 71.875 27.484375 71.875 
Q 33.25 71.875 37.59375 69.546875 
Q 41.9375 67.234375 44.765625 62.859375 
Q 47.609375 58.5 49.21875 52.21875 
Q 50.828125 45.953125 50.828125 35.296875 
Q 50.828125 22.703125 48.234375 14.96875 
Q 45.65625 7.234375 40.5 3 
Q 35.359375 -1.21875 27.484375 -1.21875 
Q 17.140625 -1.21875 11.234375 6.203125 
Q 4.15625 15.140625 4.15625 35.296875 
z
M 13.1875 35.296875 
Q 13.1875 17.671875 17.3125 11.828125 
Q 21.4375 6 27.484375 6 
Q 33.546875 6 37.671875 11.859375 
Q 41.796875 17.71875 41.796875 35.296875 
Q 41.796875 52.984375 37.671875 58.78125 
Q 33.546875 64.59375 27.390625 64.59375 
Q 21.34375 64.59375 17.71875 59.46875 
Q 13.1875 52.9375 13.1875 35.296875 
z
" id="ArialMT-30"/>
      </defs>
      <g style="fill:#262626;" transform="translate(87.219531 290.877812)scale(0.1 -0.1)">
       <use xlink:href="#ArialMT-30"/>
      </g>
     </g>
    </g>
    <g id="xtick_2">
     <g id="line2d_2">
      <g>
       <use style="fill:#262626;stroke:#262626;" x="159.75" xlink:href="#m5c19605a67" y="270.72"/>
      </g>
     </g>
     <g id="text_2">
      <!-- 100 -->
      <defs>
       <path d="M 37.25 0 
L 28.46875 0 
L 28.46875 56 
Q 25.296875 52.984375 20.140625 49.953125 
Q 14.984375 46.921875 10.890625 45.40625 
L 10.890625 53.90625 
Q 18.265625 57.375 23.78125 62.296875 
Q 29.296875 67.234375 31.59375 71.875 
L 37.25 71.875 
z
" id="ArialMT-31"/>
      </defs>
      <g style="fill:#262626;" transform="translate(151.408594 290.877812)scale(0.1 -0.1)">
       <use xlink:href="#ArialMT-31"/>
       <use x="55.615234" xlink:href="#ArialMT-30"/>
       <use x="111.230469" xlink:href="#ArialMT-30"/>
      </g>
     </g>
    </g>
    <g id="xtick_3">
     <g id="line2d_3">
      <g>
       <use style="fill:#262626;stroke:#262626;" x="229.5" xlink:href="#m5c19605a67" y="270.72"/>
      </g>
     </g>
     <g id="text_3">
      <!-- 200 -->
      <defs>
       <path d="M 50.34375 8.453125 
L 50.34375 0 
L 3.03125 0 
Q 2.9375 3.171875 4.046875 6.109375 
Q 5.859375 10.9375 9.828125 15.625 
Q 13.8125 20.3125 21.34375 26.46875 
Q 33.015625 36.03125 37.109375 41.625 
Q 41.21875 47.21875 41.21875 52.203125 
Q 41.21875 57.421875 37.46875 61 
Q 33.734375 64.59375 27.734375 64.59375 
Q 21.390625 64.59375 17.578125 60.78125 
Q 13.765625 56.984375 13.71875 50.25 
L 4.6875 51.171875 
Q 5.609375 61.28125 11.65625 66.578125 
Q 17.71875 71.875 27.9375 71.875 
Q 38.234375 71.875 44.234375 66.15625 
Q 50.25 60.453125 50.25 52 
Q 50.25 47.703125 48.484375 43.546875 
Q 46.734375 39.40625 42.65625 34.8125 
Q 38.578125 30.21875 29.109375 22.21875 
Q 21.1875 15.578125 18.9375 13.203125 
Q 16.703125 10.84375 15.234375 8.453125 
z
" id="ArialMT-32"/>
      </defs>
      <g style="fill:#262626;" transform="translate(221.158594 290.877812)scale(0.1 -0.1)">
       <use xlink:href="#ArialMT-32"/>
       <use x="55.615234" xlink:href="#ArialMT-30"/>
       <use x="111.230469" xlink:href="#ArialMT-30"/>
      </g>
     </g>
    </g>
    <g id="xtick_4">
     <g id="line2d_4">
      <g>
       <use style="fill:#262626;stroke:#262626;" x="299.25" xlink:href="#m5c19605a67" y="270.72"/>
      </g>
     </g>
     <g id="text_4">
      <!-- 300 -->
      <defs>
       <path d="M 4.203125 18.890625 
L 12.984375 20.0625 
Q 14.5 12.59375 18.140625 9.296875 
Q 21.78125 6 27 6 
Q 33.203125 6 37.46875 10.296875 
Q 41.75 14.59375 41.75 20.953125 
Q 41.75 27 37.796875 30.921875 
Q 33.84375 34.859375 27.734375 34.859375 
Q 25.25 34.859375 21.53125 33.890625 
L 22.515625 41.609375 
Q 23.390625 41.5 23.921875 41.5 
Q 29.546875 41.5 34.03125 44.421875 
Q 38.53125 47.359375 38.53125 53.46875 
Q 38.53125 58.296875 35.25 61.46875 
Q 31.984375 64.65625 26.8125 64.65625 
Q 21.6875 64.65625 18.265625 61.421875 
Q 14.84375 58.203125 13.875 51.765625 
L 5.078125 53.328125 
Q 6.6875 62.15625 12.390625 67.015625 
Q 18.109375 71.875 26.609375 71.875 
Q 32.46875 71.875 37.390625 69.359375 
Q 42.328125 66.84375 44.9375 62.5 
Q 47.5625 58.15625 47.5625 53.265625 
Q 47.5625 48.640625 45.0625 44.828125 
Q 42.578125 41.015625 37.703125 38.765625 
Q 44.046875 37.3125 47.5625 32.6875 
Q 51.078125 28.078125 51.078125 21.140625 
Q 51.078125 11.765625 44.234375 5.25 
Q 37.40625 -1.265625 26.953125 -1.265625 
Q 17.53125 -1.265625 11.296875 4.34375 
Q 5.078125 9.96875 4.203125 18.890625 
z
" id="ArialMT-33"/>
      </defs>
      <g style="fill:#262626;" transform="translate(290.908594 290.877812)scale(0.1 -0.1)">
       <use xlink:href="#ArialMT-33"/>
       <use x="55.615234" xlink:href="#ArialMT-30"/>
       <use x="111.230469" xlink:href="#ArialMT-30"/>
      </g>
     </g>
    </g>
    <g id="xtick_5">
     <g id="line2d_5">
      <g>
       <use style="fill:#262626;stroke:#262626;" x="369" xlink:href="#m5c19605a67" y="270.72"/>
      </g>
     </g>
     <g id="text_5">
      <!-- 400 -->
      <defs>
       <path d="M 32.328125 0 
L 32.328125 17.140625 
L 1.265625 17.140625 
L 1.265625 25.203125 
L 33.9375 71.578125 
L 41.109375 71.578125 
L 41.109375 25.203125 
L 50.78125 25.203125 
L 50.78125 17.140625 
L 41.109375 17.140625 
L 41.109375 0 
z
M 32.328125 25.203125 
L 32.328125 57.46875 
L 9.90625 25.203125 
z
" id="ArialMT-34"/>
      </defs>
      <g style="fill:#262626;" transform="translate(360.658594 290.877812)scale(0.1 -0.1)">
       <use xlink:href="#ArialMT-34"/>
       <use x="55.615234" xlink:href="#ArialMT-30"/>
       <use x="111.230469" xlink:href="#ArialMT-30"/>
      </g>
     </g>
    </g>
    <g id="xtick_6">
     <g id="line2d_6">
      <g>
       <use style="fill:#262626;stroke:#262626;" x="438.75" xlink:href="#m5c19605a67" y="270.72"/>
      </g>
     </g>
     <g id="text_6">
      <!-- 500 -->
      <defs>
       <path d="M 4.15625 18.75 
L 13.375 19.53125 
Q 14.40625 12.796875 18.140625 9.390625 
Q 21.875 6 27.15625 6 
Q 33.5 6 37.890625 10.78125 
Q 42.28125 15.578125 42.28125 23.484375 
Q 42.28125 31 38.0625 35.34375 
Q 33.84375 39.703125 27 39.703125 
Q 22.75 39.703125 19.328125 37.765625 
Q 15.921875 35.84375 13.96875 32.765625 
L 5.71875 33.84375 
L 12.640625 70.609375 
L 48.25 70.609375 
L 48.25 62.203125 
L 19.671875 62.203125 
L 15.828125 42.96875 
Q 22.265625 47.46875 29.34375 47.46875 
Q 38.71875 47.46875 45.15625 40.96875 
Q 51.609375 34.46875 51.609375 24.265625 
Q 51.609375 14.546875 45.953125 7.46875 
Q 39.0625 -1.21875 27.15625 -1.21875 
Q 17.390625 -1.21875 11.203125 4.25 
Q 5.03125 9.71875 4.15625 18.75 
z
" id="ArialMT-35"/>
      </defs>
      <g style="fill:#262626;" transform="translate(430.408594 290.877812)scale(0.1 -0.1)">
       <use xlink:href="#ArialMT-35"/>
       <use x="55.615234" xlink:href="#ArialMT-30"/>
       <use x="111.230469" xlink:href="#ArialMT-30"/>
      </g>
     </g>
    </g>
    <g id="xtick_7">
     <g id="line2d_7">
      <g>
       <use style="fill:#262626;stroke:#262626;" x="508.5" xlink:href="#m5c19605a67" y="270.72"/>
      </g>
     </g>
     <g id="text_7">
      <!-- 600 -->
      <defs>
       <path d="M 49.75 54.046875 
L 41.015625 53.375 
Q 39.84375 58.546875 37.703125 60.890625 
Q 34.125 64.65625 28.90625 64.65625 
Q 24.703125 64.65625 21.53125 62.3125 
Q 17.390625 59.28125 14.984375 53.46875 
Q 12.59375 47.65625 12.5 36.921875 
Q 15.671875 41.75 20.265625 44.09375 
Q 24.859375 46.4375 29.890625 46.4375 
Q 38.671875 46.4375 44.84375 39.96875 
Q 51.03125 33.5 51.03125 23.25 
Q 51.03125 16.5 48.125 10.71875 
Q 45.21875 4.9375 40.140625 1.859375 
Q 35.0625 -1.21875 28.609375 -1.21875 
Q 17.625 -1.21875 10.6875 6.859375 
Q 3.765625 14.9375 3.765625 33.5 
Q 3.765625 54.25 11.421875 63.671875 
Q 18.109375 71.875 29.4375 71.875 
Q 37.890625 71.875 43.28125 67.140625 
Q 48.6875 62.40625 49.75 54.046875 
z
M 13.875 23.1875 
Q 13.875 18.65625 15.796875 14.5 
Q 17.71875 10.359375 21.1875 8.171875 
Q 24.65625 6 28.46875 6 
Q 34.03125 6 38.03125 10.484375 
Q 42.046875 14.984375 42.046875 22.703125 
Q 42.046875 30.125 38.078125 34.390625 
Q 34.125 38.671875 28.125 38.671875 
Q 22.171875 38.671875 18.015625 34.390625 
Q 13.875 30.125 13.875 23.1875 
z
" id="ArialMT-36"/>
      </defs>
      <g style="fill:#262626;" transform="translate(500.158594 290.877812)scale(0.1 -0.1)">
       <use xlink:href="#ArialMT-36"/>
       <use x="55.615234" xlink:href="#ArialMT-30"/>
       <use x="111.230469" xlink:href="#ArialMT-30"/>
      </g>
     </g>
    </g>
    <g id="xtick_8">
     <g id="line2d_8">
      <g>
       <use style="fill:#262626;stroke:#262626;" x="578.25" xlink:href="#m5c19605a67" y="270.72"/>
      </g>
     </g>
     <g id="text_8">
      <!-- 700 -->
      <defs>
       <path d="M 4.734375 62.203125 
L 4.734375 70.65625 
L 51.078125 70.65625 
L 51.078125 63.8125 
Q 44.234375 56.546875 37.515625 44.484375 
Q 30.8125 32.421875 27.15625 19.671875 
Q 24.515625 10.6875 23.78125 0 
L 14.75 0 
Q 14.890625 8.453125 18.0625 20.40625 
Q 21.234375 32.375 27.171875 43.484375 
Q 33.109375 54.59375 39.796875 62.203125 
z
" id="ArialMT-37"/>
      </defs>
      <g style="fill:#262626;" transform="translate(569.908594 290.877812)scale(0.1 -0.1)">
       <use xlink:href="#ArialMT-37"/>
       <use x="55.615234" xlink:href="#ArialMT-30"/>
       <use x="111.230469" xlink:href="#ArialMT-30"/>
      </g>
     </g>
    </g>
    <g id="xtick_9">
     <g id="line2d_9">
      <g>
       <use style="fill:#262626;stroke:#262626;" x="648" xlink:href="#m5c19605a67" y="270.72"/>
      </g>
     </g>
     <g id="text_9">
      <!-- 800 -->
      <defs>
       <path d="M 17.671875 38.8125 
Q 12.203125 40.828125 9.5625 44.53125 
Q 6.9375 48.25 6.9375 53.421875 
Q 6.9375 61.234375 12.546875 66.546875 
Q 18.171875 71.875 27.484375 71.875 
Q 36.859375 71.875 42.578125 66.421875 
Q 48.296875 60.984375 48.296875 53.171875 
Q 48.296875 48.1875 45.671875 44.5 
Q 43.0625 40.828125 37.75 38.8125 
Q 44.34375 36.671875 47.78125 31.875 
Q 51.21875 27.09375 51.21875 20.453125 
Q 51.21875 11.28125 44.71875 5.03125 
Q 38.234375 -1.21875 27.640625 -1.21875 
Q 17.046875 -1.21875 10.546875 5.046875 
Q 4.046875 11.328125 4.046875 20.703125 
Q 4.046875 27.6875 7.59375 32.390625 
Q 11.140625 37.109375 17.671875 38.8125 
z
M 15.921875 53.71875 
Q 15.921875 48.640625 19.1875 45.40625 
Q 22.46875 42.1875 27.6875 42.1875 
Q 32.765625 42.1875 36.015625 45.375 
Q 39.265625 48.578125 39.265625 53.21875 
Q 39.265625 58.0625 35.90625 61.359375 
Q 32.5625 64.65625 27.59375 64.65625 
Q 22.5625 64.65625 19.234375 61.421875 
Q 15.921875 58.203125 15.921875 53.71875 
z
M 13.09375 20.65625 
Q 13.09375 16.890625 14.875 13.375 
Q 16.65625 9.859375 20.171875 7.921875 
Q 23.6875 6 27.734375 6 
Q 34.03125 6 38.125 10.046875 
Q 42.234375 14.109375 42.234375 20.359375 
Q 42.234375 26.703125 38.015625 30.859375 
Q 33.796875 35.015625 27.4375 35.015625 
Q 21.234375 35.015625 17.15625 30.90625 
Q 13.09375 26.8125 13.09375 20.65625 
z
" id="ArialMT-38"/>
      </defs>
      <g style="fill:#262626;" transform="translate(639.658594 290.877812)scale(0.1 -0.1)">
       <use xlink:href="#ArialMT-38"/>
       <use x="55.615234" xlink:href="#ArialMT-30"/>
       <use x="111.230469" xlink:href="#ArialMT-30"/>
      </g>
     </g>
    </g>
   </g>
   <g id="matplotlib.axis_2">
    <g id="ytick_1">
     <g id="line2d_10">
      <defs>
       <path d="M 0 0 
L -6 0 
" id="mb35f0be6c1" style="stroke:#262626;"/>
      </defs>
      <g>
       <use style="fill:#262626;stroke:#262626;" x="90" xlink:href="#mb35f0be6c1" y="270.72"/>
      </g>
     </g>
     <g id="text_10">
      <!-- −0.20 -->
      <defs>
       <path d="M 52.828125 31.203125 
L 5.5625 31.203125 
L 5.5625 39.40625 
L 52.828125 39.40625 
z
" id="ArialMT-2212"/>
       <path d="M 9.078125 0 
L 9.078125 10.015625 
L 19.09375 10.015625 
L 19.09375 0 
z
" id="ArialMT-2e"/>
      </defs>
      <g style="fill:#262626;" transform="translate(51.698437 274.298906)scale(0.1 -0.1)">
       <use xlink:href="#ArialMT-2212"/>
       <use x="58.398438" xlink:href="#ArialMT-30"/>
       <use x="114.013672" xlink:href="#ArialMT-2e"/>
       <use x="141.796875" xlink:href="#ArialMT-32"/>
       <use x="197.412109" xlink:href="#ArialMT-30"/>
      </g>
     </g>
    </g>
    <g id="ytick_2">
     <g id="line2d_11">
      <g>
       <use style="fill:#262626;stroke:#262626;" x="90" xlink:href="#mb35f0be6c1" y="245.52"/>
      </g>
     </g>
     <g id="text_11">
      <!-- −0.15 -->
      <g style="fill:#262626;" transform="translate(51.698437 249.098906)scale(0.1 -0.1)">
       <use xlink:href="#ArialMT-2212"/>
       <use x="58.398438" xlink:href="#ArialMT-30"/>
       <use x="114.013672" xlink:href="#ArialMT-2e"/>
       <use x="141.796875" xlink:href="#ArialMT-31"/>
       <use x="197.412109" xlink:href="#ArialMT-35"/>
      </g>
     </g>
    </g>
    <g id="ytick_3">
     <g id="line2d_12">
      <g>
       <use style="fill:#262626;stroke:#262626;" x="90" xlink:href="#mb35f0be6c1" y="220.32"/>
      </g>
     </g>
     <g id="text_12">
      <!-- −0.10 -->
      <g style="fill:#262626;" transform="translate(51.698437 223.898906)scale(0.1 -0.1)">
       <use xlink:href="#ArialMT-2212"/>
       <use x="58.398438" xlink:href="#ArialMT-30"/>
       <use x="114.013672" xlink:href="#ArialMT-2e"/>
       <use x="141.796875" xlink:href="#ArialMT-31"/>
       <use x="197.412109" xlink:href="#ArialMT-30"/>
      </g>
     </g>
    </g>
    <g id="ytick_4">
     <g id="line2d_13">
      <g>
       <use style="fill:#262626;stroke:#262626;" x="90" xlink:href="#mb35f0be6c1" y="195.12"/>
      </g>
     </g>
     <g id="text_13">
      <!-- −0.05 -->
      <g style="fill:#262626;" transform="translate(51.698437 198.698906)scale(0.1 -0.1)">
       <use xlink:href="#ArialMT-2212"/>
       <use x="58.398438" xlink:href="#ArialMT-30"/>
       <use x="114.013672" xlink:href="#ArialMT-2e"/>
       <use x="141.796875" xlink:href="#ArialMT-30"/>
       <use x="197.412109" xlink:href="#ArialMT-35"/>
      </g>
     </g>
    </g>
    <g id="ytick_5">
     <g id="line2d_14">
      <g>
       <use style="fill:#262626;stroke:#262626;" x="90" xlink:href="#mb35f0be6c1" y="169.92"/>
      </g>
     </g>
     <g id="text_14">
      <!-- 0.00 -->
      <g style="fill:#262626;" transform="translate(57.539062 173.498906)scale(0.1 -0.1)">
       <use xlink:href="#ArialMT-30"/>
       <use x="55.615234" xlink:href="#ArialMT-2e"/>
       <use x="83.398438" xlink:href="#ArialMT-30"/>
       <use x="139.013672" xlink:href="#ArialMT-30"/>
      </g>
     </g>
    </g>
    <g id="ytick_6">
     <g id="line2d_15">
      <g>
       <use style="fill:#262626;stroke:#262626;" x="90" xlink:href="#mb35f0be6c1" y="144.72"/>
      </g>
     </g>
     <g id="text_15">
      <!-- 0.05 -->
      <g style="fill:#262626;" transform="translate(57.539062 148.298906)scale(0.1 -0.1)">
       <use xlink:href="#ArialMT-30"/>
       <use x="55.615234" xlink:href="#ArialMT-2e"/>
       <use x="83.398438" xlink:href="#ArialMT-30"/>
       <use x="139.013672" xlink:href="#ArialMT-35"/>
      </g>
     </g>
    </g>
    <g id="ytick_7">
     <g id="line2d_16">
      <g>
       <use style="fill:#262626;stroke:#262626;" x="90" xlink:href="#mb35f0be6c1" y="119.52"/>
      </g>
     </g>
     <g id="text_16">
      <!-- 0.10 -->
      <g style="fill:#262626;" transform="translate(57.539062 123.098906)scale(0.1 -0.1)">
       <use xlink:href="#ArialMT-30"/>
       <use x="55.615234" xlink:href="#ArialMT-2e"/>
       <use x="83.398438" xlink:href="#ArialMT-31"/>
       <use x="139.013672" xlink:href="#ArialMT-30"/>
      </g>
     </g>
    </g>
    <g id="ytick_8">
     <g id="line2d_17">
      <g>
       <use style="fill:#262626;stroke:#262626;" x="90" xlink:href="#mb35f0be6c1" y="94.32"/>
      </g>
     </g>
     <g id="text_17">
      <!-- 0.15 -->
      <g style="fill:#262626;" transform="translate(57.539062 97.898906)scale(0.1 -0.1)">
       <use xlink:href="#ArialMT-30"/>
       <use x="55.615234" xlink:href="#ArialMT-2e"/>
       <use x="83.398438" xlink:href="#ArialMT-31"/>
       <use x="139.013672" xlink:href="#ArialMT-35"/>
      </g>
     </g>
    </g>
    <g id="ytick_9">
     <g id="line2d_18">
      <g>
       <use style="fill:#262626;stroke:#262626;" x="90" xlink:href="#mb35f0be6c1" y="69.12"/>
      </g>
     </g>
     <g id="text_18">
      <!-- 0.20 -->
      <g style="fill:#262626;" transform="translate(57.539062 72.698906)scale(0.1 -0.1)">
       <use xlink:href="#ArialMT-30"/>
       <use x="55.615234" xlink:href="#ArialMT-2e"/>
       <use x="83.398438" xlink:href="#ArialMT-32"/>
       <use x="139.013672" xlink:href="#ArialMT-30"/>
      </g>
     </g>
    </g>
   </g>
   <g id="PolyCollection_1">
    <path clip-path="url(#p37de959a04)" d="M 90 168.783513 
L 90 169.92 
L 90.6975 169.92 
L 91.395 169.92 
L 92.0925 169.92 
L 92.79 169.92 
L 93.4875 169.92 
L 94.185 169.92 
L 94.8825 169.92 
L 95.58 169.92 
L 96.2775 169.92 
L 96.975 169.92 
L 97.6725 169.92 
L 98.37 169.92 
L 99.0675 169.92 
L 99.765 169.92 
L 100.4625 169.92 
L 101.16 169.92 
L 101.8575 169.92 
L 102.555 169.92 
L 103.2525 169.92 
L 103.95 169.92 
L 104.6475 169.92 
L 105.345 169.92 
L 106.0425 169.92 
L 106.74 169.92 
L 107.4375 169.92 
L 108.135 169.92 
L 108.8325 169.92 
L 109.53 169.92 
L 110.2275 169.92 
L 110.925 169.92 
L 111.6225 169.92 
L 112.32 169.92 
L 113.0175 169.92 
L 113.715 169.92 
L 114.4125 169.92 
L 115.11 169.92 
L 115.8075 169.92 
L 116.505 169.92 
L 117.2025 169.92 
L 117.9 169.92 
L 118.5975 169.92 
L 119.295 169.92 
L 119.9925 169.92 
L 120.69 169.92 
L 121.3875 169.92 
L 122.085 169.92 
L 122.7825 169.92 
L 123.48 169.92 
L 124.1775 169.92 
L 124.875 169.92 
L 125.5725 169.92 
L 126.27 169.92 
L 126.9675 169.92 
L 127.665 169.92 
L 128.3625 169.92 
L 129.06 169.92 
L 129.7575 169.92 
L 130.455 169.92 
L 131.1525 169.92 
L 131.85 169.92 
L 132.5475 169.92 
L 133.245 169.92 
L 133.9425 169.92 
L 134.64 169.92 
L 135.3375 169.92 
L 136.035 169.92 
L 136.7325 169.92 
L 137.43 169.92 
L 138.1275 169.92 
L 138.825 169.92 
L 139.5225 169.92 
L 140.22 169.92 
L 140.9175 169.92 
L 141.615 169.92 
L 142.3125 169.92 
L 143.01 169.92 
L 143.7075 169.92 
L 144.405 169.92 
L 145.1025 169.92 
L 145.8 169.92 
L 146.4975 169.92 
L 147.195 169.92 
L 147.8925 169.92 
L 148.59 169.92 
L 149.2875 169.92 
L 149.985 169.92 
L 150.6825 169.92 
L 151.38 169.92 
L 152.0775 169.92 
L 152.775 169.92 
L 153.4725 169.92 
L 154.17 169.92 
L 154.8675 169.92 
L 155.565 169.92 
L 156.2625 169.92 
L 156.96 169.92 
L 157.6575 169.92 
L 158.355 169.92 
L 159.0525 169.92 
L 159.75 169.92 
L 160.4475 169.92 
L 161.145 169.92 
L 161.8425 169.92 
L 162.54 169.92 
L 163.2375 169.92 
L 163.935 169.92 
L 164.6325 169.92 
L 165.33 169.92 
L 166.0275 169.92 
L 166.725 169.92 
L 167.4225 169.92 
L 168.12 169.92 
L 168.8175 169.92 
L 169.515 169.92 
L 170.2125 169.92 
L 170.91 169.92 
L 171.6075 169.92 
L 172.305 169.92 
L 173.0025 169.92 
L 173.7 169.92 
L 174.3975 169.92 
L 175.095 169.92 
L 175.7925 169.92 
L 176.49 169.92 
L 177.1875 169.92 
L 177.885 169.92 
L 178.5825 169.92 
L 179.28 169.92 
L 179.9775 169.92 
L 180.675 169.92 
L 181.3725 169.92 
L 182.07 169.92 
L 182.7675 169.92 
L 183.465 169.92 
L 184.1625 169.92 
L 184.86 169.92 
L 185.5575 169.92 
L 186.255 169.92 
L 186.9525 169.92 
L 187.65 169.92 
L 188.3475 169.92 
L 189.045 169.92 
L 189.7425 169.92 
L 190.44 169.92 
L 191.1375 169.92 
L 191.835 169.92 
L 192.5325 169.92 
L 193.23 169.92 
L 193.9275 169.92 
L 194.625 169.92 
L 195.3225 169.92 
L 196.02 169.92 
L 196.7175 169.92 
L 197.415 169.92 
L 198.1125 169.92 
L 198.81 169.92 
L 199.5075 169.92 
L 200.205 169.92 
L 200.9025 169.92 
L 201.6 169.92 
L 202.2975 169.92 
L 202.995 169.92 
L 203.6925 169.92 
L 204.39 169.92 
L 205.0875 169.92 
L 205.785 169.92 
L 206.4825 169.92 
L 207.18 169.92 
L 207.8775 169.92 
L 208.575 169.92 
L 209.2725 169.92 
L 209.97 169.92 
L 210.6675 169.92 
L 211.365 169.92 
L 212.0625 169.92 
L 212.76 169.92 
L 213.4575 169.92 
L 214.155 169.92 
L 214.8525 169.92 
L 215.55 169.92 
L 216.2475 169.92 
L 216.945 169.92 
L 217.6425 169.92 
L 218.34 169.92 
L 219.0375 169.92 
L 219.735 169.92 
L 220.4325 169.92 
L 221.13 169.92 
L 221.8275 169.92 
L 222.525 169.92 
L 223.2225 169.92 
L 223.92 169.92 
L 224.6175 169.92 
L 225.315 169.92 
L 226.0125 169.92 
L 226.71 169.92 
L 227.4075 169.92 
L 228.105 169.92 
L 228.8025 169.92 
L 229.5 169.92 
L 230.1975 169.92 
L 230.895 169.92 
L 231.5925 169.92 
L 232.29 169.92 
L 232.9875 169.92 
L 233.685 169.92 
L 234.3825 169.92 
L 235.08 169.92 
L 235.7775 169.92 
L 236.475 169.92 
L 237.1725 169.92 
L 237.87 169.92 
L 238.5675 169.92 
L 239.265 169.92 
L 239.9625 169.92 
L 240.66 169.92 
L 241.3575 169.92 
L 242.055 169.92 
L 242.7525 169.92 
L 243.45 169.92 
L 244.1475 169.92 
L 244.845 169.92 
L 245.5425 169.92 
L 246.24 169.92 
L 246.9375 169.92 
L 247.635 169.92 
L 248.3325 169.92 
L 249.03 169.92 
L 249.7275 169.92 
L 250.425 169.92 
L 251.1225 169.92 
L 251.82 169.92 
L 252.5175 169.92 
L 253.215 169.92 
L 253.9125 169.92 
L 254.61 169.92 
L 255.3075 169.92 
L 256.005 169.92 
L 256.7025 169.92 
L 257.4 169.92 
L 258.0975 169.92 
L 258.795 169.92 
L 259.4925 169.92 
L 260.19 169.92 
L 260.8875 169.92 
L 261.585 169.92 
L 262.2825 169.92 
L 262.98 169.92 
L 263.6775 169.92 
L 264.375 169.92 
L 265.0725 169.92 
L 265.77 169.92 
L 266.4675 169.92 
L 267.165 169.92 
L 267.8625 169.92 
L 268.56 169.92 
L 269.2575 169.92 
L 269.955 169.92 
L 270.6525 169.92 
L 271.35 169.92 
L 272.0475 169.92 
L 272.745 169.92 
L 273.4425 169.92 
L 274.14 169.92 
L 274.8375 169.92 
L 275.535 169.92 
L 276.2325 169.92 
L 276.93 169.92 
L 277.6275 169.92 
L 278.325 169.92 
L 279.0225 169.92 
L 279.72 169.92 
L 280.4175 169.92 
L 281.115 169.92 
L 281.8125 169.92 
L 282.51 169.92 
L 283.2075 169.92 
L 283.905 169.92 
L 284.6025 169.92 
L 285.3 169.92 
L 285.9975 169.92 
L 286.695 169.92 
L 287.3925 169.92 
L 288.09 169.92 
L 288.7875 169.92 
L 289.485 169.92 
L 290.1825 169.92 
L 290.88 169.92 
L 291.5775 169.92 
L 292.275 169.92 
L 292.9725 169.92 
L 293.67 169.92 
L 294.3675 169.92 
L 295.065 169.92 
L 295.7625 169.92 
L 296.46 169.92 
L 297.1575 169.92 
L 297.855 169.92 
L 298.5525 169.92 
L 299.25 169.92 
L 299.9475 169.92 
L 300.645 169.92 
L 301.3425 169.92 
L 302.04 169.92 
L 302.7375 169.92 
L 303.435 169.92 
L 304.1325 169.92 
L 304.83 169.92 
L 305.5275 169.92 
L 306.225 169.92 
L 306.9225 169.92 
L 307.62 169.92 
L 308.3175 169.92 
L 309.015 169.92 
L 309.7125 169.92 
L 310.41 169.92 
L 311.1075 169.92 
L 311.805 169.92 
L 312.5025 169.92 
L 313.2 169.92 
L 313.8975 169.92 
L 314.595 169.92 
L 315.2925 169.92 
L 315.99 169.92 
L 316.6875 169.92 
L 317.385 169.92 
L 318.0825 169.92 
L 318.78 169.92 
L 319.4775 169.92 
L 320.175 169.92 
L 320.8725 169.92 
L 321.57 169.92 
L 322.2675 169.92 
L 322.965 169.92 
L 323.6625 169.92 
L 324.36 169.92 
L 325.0575 169.92 
L 325.755 169.92 
L 326.4525 169.92 
L 327.15 169.92 
L 327.8475 169.92 
L 328.545 169.92 
L 329.2425 169.92 
L 329.94 169.92 
L 330.6375 169.92 
L 331.335 169.92 
L 332.0325 169.92 
L 332.73 169.92 
L 333.4275 169.92 
L 334.125 169.92 
L 334.8225 169.92 
L 335.52 169.92 
L 336.2175 169.92 
L 336.915 169.92 
L 337.6125 169.92 
L 338.31 169.92 
L 339.0075 169.92 
L 339.705 169.92 
L 340.4025 169.92 
L 341.1 169.92 
L 341.7975 169.92 
L 342.495 169.92 
L 343.1925 169.92 
L 343.89 169.92 
L 344.5875 169.92 
L 345.285 169.92 
L 345.9825 169.92 
L 346.68 169.92 
L 347.3775 169.92 
L 348.075 169.92 
L 348.7725 169.92 
L 349.47 169.92 
L 350.1675 169.92 
L 350.865 169.92 
L 351.5625 169.92 
L 352.26 169.92 
L 352.9575 169.92 
L 353.655 169.92 
L 354.3525 169.92 
L 355.05 169.92 
L 355.7475 169.92 
L 356.445 169.92 
L 357.1425 169.92 
L 357.84 169.92 
L 358.5375 169.92 
L 359.235 169.92 
L 359.9325 169.92 
L 360.63 169.92 
L 361.3275 169.92 
L 362.025 169.92 
L 362.7225 169.92 
L 363.42 169.92 
L 364.1175 169.92 
L 364.815 169.92 
L 365.5125 169.92 
L 366.21 169.92 
L 366.9075 169.92 
L 367.605 169.92 
L 368.3025 169.92 
L 369 169.92 
L 369.6975 169.92 
L 370.395 169.92 
L 371.0925 169.92 
L 371.79 169.92 
L 372.4875 169.92 
L 373.185 169.92 
L 373.8825 169.92 
L 374.58 169.92 
L 375.2775 169.92 
L 375.975 169.92 
L 376.6725 169.92 
L 377.37 169.92 
L 378.0675 169.92 
L 378.765 169.92 
L 379.4625 169.92 
L 380.16 169.92 
L 380.8575 169.92 
L 381.555 169.92 
L 382.2525 169.92 
L 382.95 169.92 
L 383.6475 169.92 
L 384.345 169.92 
L 385.0425 169.92 
L 385.74 169.92 
L 386.4375 169.92 
L 387.135 169.92 
L 387.8325 169.92 
L 388.53 169.92 
L 389.2275 169.92 
L 389.925 169.92 
L 390.6225 169.92 
L 391.32 169.92 
L 392.0175 169.92 
L 392.715 169.92 
L 393.4125 169.92 
L 394.11 169.92 
L 394.8075 169.92 
L 395.505 169.92 
L 396.2025 169.92 
L 396.9 169.92 
L 397.5975 169.92 
L 398.295 169.92 
L 398.9925 169.92 
L 399.69 169.92 
L 400.3875 169.92 
L 401.085 169.92 
L 401.7825 169.92 
L 402.48 169.92 
L 403.1775 169.92 
L 403.875 169.92 
L 404.5725 169.92 
L 405.27 169.92 
L 405.9675 169.92 
L 406.665 169.92 
L 407.3625 169.92 
L 408.06 169.92 
L 408.7575 169.92 
L 409.455 169.92 
L 410.1525 169.92 
L 410.85 169.92 
L 411.5475 169.92 
L 412.245 169.92 
L 412.9425 169.92 
L 413.64 169.92 
L 414.3375 169.92 
L 415.035 169.92 
L 415.7325 169.92 
L 416.43 169.92 
L 417.1275 169.92 
L 417.825 169.92 
L 418.5225 169.92 
L 419.22 169.92 
L 419.9175 169.92 
L 420.615 169.92 
L 421.3125 169.92 
L 422.01 169.92 
L 422.7075 169.92 
L 423.405 169.92 
L 424.1025 169.92 
L 424.8 169.92 
L 425.4975 169.92 
L 426.195 169.92 
L 426.8925 169.92 
L 427.59 169.92 
L 428.2875 169.92 
L 428.985 169.92 
L 429.6825 169.92 
L 430.38 169.92 
L 431.0775 169.92 
L 431.775 169.92 
L 432.4725 169.92 
L 433.17 169.92 
L 433.8675 169.92 
L 434.565 169.92 
L 435.2625 169.92 
L 435.96 169.92 
L 436.6575 169.92 
L 437.355 169.92 
L 438.0525 169.92 
L 438.75 169.92 
L 439.4475 169.92 
L 440.145 169.92 
L 440.8425 169.92 
L 441.54 169.92 
L 442.2375 169.92 
L 442.935 169.92 
L 443.6325 169.92 
L 444.33 169.92 
L 445.0275 169.92 
L 445.725 169.92 
L 446.4225 169.92 
L 447.12 169.92 
L 447.8175 169.92 
L 448.515 169.92 
L 449.2125 169.92 
L 449.91 169.92 
L 450.6075 169.92 
L 451.305 169.92 
L 452.0025 169.92 
L 452.7 169.92 
L 453.3975 169.92 
L 454.095 169.92 
L 454.7925 169.92 
L 455.49 169.92 
L 456.1875 169.92 
L 456.885 169.92 
L 457.5825 169.92 
L 458.28 169.92 
L 458.9775 169.92 
L 459.675 169.92 
L 460.3725 169.92 
L 461.07 169.92 
L 461.7675 169.92 
L 462.465 169.92 
L 463.1625 169.92 
L 463.86 169.92 
L 464.5575 169.92 
L 465.255 169.92 
L 465.9525 169.92 
L 466.65 169.92 
L 467.3475 169.92 
L 468.045 169.92 
L 468.7425 169.92 
L 469.44 169.92 
L 470.1375 169.92 
L 470.835 169.92 
L 471.5325 169.92 
L 472.23 169.92 
L 472.9275 169.92 
L 473.625 169.92 
L 474.3225 169.92 
L 475.02 169.92 
L 475.7175 169.92 
L 476.415 169.92 
L 477.1125 169.92 
L 477.81 169.92 
L 478.5075 169.92 
L 479.205 169.92 
L 479.9025 169.92 
L 480.6 169.92 
L 481.2975 169.92 
L 481.995 169.92 
L 482.6925 169.92 
L 483.39 169.92 
L 484.0875 169.92 
L 484.785 169.92 
L 485.4825 169.92 
L 486.18 169.92 
L 486.8775 169.92 
L 487.575 169.92 
L 488.2725 169.92 
L 488.97 169.92 
L 489.6675 169.92 
L 490.365 169.92 
L 491.0625 169.92 
L 491.76 169.92 
L 492.4575 169.92 
L 493.155 169.92 
L 493.8525 169.92 
L 494.55 169.92 
L 495.2475 169.92 
L 495.945 169.92 
L 496.6425 169.92 
L 497.34 169.92 
L 498.0375 169.92 
L 498.735 169.92 
L 499.4325 169.92 
L 500.13 169.92 
L 500.8275 169.92 
L 501.525 169.92 
L 502.2225 169.92 
L 502.92 169.92 
L 503.6175 169.92 
L 504.315 169.92 
L 505.0125 169.92 
L 505.71 169.92 
L 506.4075 169.92 
L 507.105 169.92 
L 507.8025 169.92 
L 508.5 169.92 
L 509.1975 169.92 
L 509.895 169.92 
L 510.5925 169.92 
L 511.29 169.92 
L 511.9875 169.92 
L 512.685 169.92 
L 513.3825 169.92 
L 514.08 169.92 
L 514.7775 169.92 
L 515.475 169.92 
L 516.1725 169.92 
L 516.87 169.92 
L 517.5675 169.92 
L 518.265 169.92 
L 518.9625 169.92 
L 519.66 169.92 
L 520.3575 169.92 
L 521.055 169.92 
L 521.7525 169.92 
L 522.45 169.92 
L 523.1475 169.92 
L 523.845 169.92 
L 524.5425 169.92 
L 525.24 169.92 
L 525.9375 169.92 
L 526.635 169.92 
L 527.3325 169.92 
L 528.03 169.92 
L 528.7275 169.92 
L 529.425 169.92 
L 530.1225 169.92 
L 530.82 169.92 
L 531.5175 169.92 
L 532.215 169.92 
L 532.9125 169.92 
L 533.61 169.92 
L 534.3075 169.92 
L 535.005 169.92 
L 535.7025 169.92 
L 536.4 169.92 
L 537.0975 169.92 
L 537.795 169.92 
L 538.4925 169.92 
L 539.19 169.92 
L 539.8875 169.92 
L 540.585 169.92 
L 541.2825 169.92 
L 541.98 169.92 
L 542.6775 169.92 
L 543.375 169.92 
L 544.0725 169.92 
L 544.77 169.92 
L 545.4675 169.92 
L 546.165 169.92 
L 546.8625 169.92 
L 547.56 169.92 
L 548.2575 169.92 
L 548.955 169.92 
L 549.6525 169.92 
L 550.35 169.92 
L 551.0475 169.92 
L 551.745 169.92 
L 552.4425 169.92 
L 553.14 169.92 
L 553.8375 169.92 
L 554.535 169.92 
L 555.2325 169.92 
L 555.93 169.92 
L 556.6275 169.92 
L 557.325 169.92 
L 558.0225 169.92 
L 558.72 169.92 
L 559.4175 169.92 
L 560.115 169.92 
L 560.8125 169.92 
L 561.51 169.92 
L 562.2075 169.92 
L 562.905 169.92 
L 563.6025 169.92 
L 564.3 169.92 
L 564.9975 169.92 
L 565.695 169.92 
L 566.3925 169.92 
L 567.09 169.92 
L 567.7875 169.92 
L 568.485 169.92 
L 569.1825 169.92 
L 569.88 169.92 
L 570.5775 169.92 
L 571.275 169.92 
L 571.9725 169.92 
L 572.67 169.92 
L 573.3675 169.92 
L 574.065 169.92 
L 574.7625 169.92 
L 575.46 169.92 
L 576.1575 169.92 
L 576.855 169.92 
L 577.5525 169.92 
L 578.25 169.92 
L 578.9475 169.92 
L 579.645 169.92 
L 580.3425 169.92 
L 581.04 169.92 
L 581.7375 169.92 
L 582.435 169.92 
L 583.1325 169.92 
L 583.83 169.92 
L 584.5275 169.92 
L 585.225 169.92 
L 585.9225 169.92 
L 586.62 169.92 
L 587.3175 169.92 
L 588.015 169.92 
L 588.7125 169.92 
L 589.41 169.92 
L 590.1075 169.92 
L 590.805 169.92 
L 591.5025 169.92 
L 592.2 169.92 
L 592.8975 169.92 
L 593.595 169.92 
L 594.2925 169.92 
L 594.99 169.92 
L 595.6875 169.92 
L 596.385 169.92 
L 597.0825 169.92 
L 597.78 169.92 
L 598.4775 169.92 
L 599.175 169.92 
L 599.8725 169.92 
L 600.57 169.92 
L 601.2675 169.92 
L 601.965 169.92 
L 602.6625 169.92 
L 603.36 169.92 
L 604.0575 169.92 
L 604.755 169.92 
L 605.4525 169.92 
L 606.15 169.92 
L 606.8475 169.92 
L 607.545 169.92 
L 608.2425 169.92 
L 608.94 169.92 
L 609.6375 169.92 
L 610.335 169.92 
L 611.0325 169.92 
L 611.73 169.92 
L 612.4275 169.92 
L 613.125 169.92 
L 613.8225 169.92 
L 614.52 169.92 
L 615.2175 169.92 
L 615.915 169.92 
L 616.6125 169.92 
L 617.31 169.92 
L 618.0075 169.92 
L 618.705 169.92 
L 619.4025 169.92 
L 620.1 169.92 
L 620.7975 169.92 
L 621.495 169.92 
L 622.1925 169.92 
L 622.89 169.92 
L 623.5875 169.92 
L 624.285 169.92 
L 624.9825 169.92 
L 625.68 169.92 
L 626.3775 169.92 
L 627.075 169.92 
L 627.7725 169.92 
L 628.47 169.92 
L 629.1675 169.92 
L 629.865 169.92 
L 630.5625 169.92 
L 631.26 169.92 
L 631.9575 169.92 
L 632.655 169.92 
L 633.3525 169.92 
L 634.05 169.92 
L 634.7475 169.92 
L 635.445 169.92 
L 636.1425 169.92 
L 636.84 169.92 
L 637.5375 169.92 
L 638.235 169.92 
L 638.9325 169.92 
L 639.63 169.92 
L 640.3275 169.92 
L 641.025 169.92 
L 641.7225 169.92 
L 642.42 169.92 
L 643.1175 169.92 
L 643.815 169.92 
L 644.5125 169.92 
L 645.21 169.92 
L 645.9075 169.92 
L 646.605 169.92 
L 646.605 169.92 
L 646.605 169.92 
L 645.9075 169.920296 
L 645.21 169.92099 
L 644.5125 169.922181 
L 643.815 169.923966 
L 643.1175 169.926435 
L 642.42 169.929676 
L 641.7225 169.933771 
L 641.025 169.938796 
L 640.3275 169.94482 
L 639.63 169.951907 
L 638.9325 169.960111 
L 638.235 169.969482 
L 637.5375 169.98006 
L 636.84 169.991876 
L 636.1425 170.004956 
L 635.445 170.019315 
L 634.7475 170.03496 
L 634.05 170.051891 
L 633.3525 170.070099 
L 632.655 170.089566 
L 631.9575 170.110268 
L 631.26 170.132171 
L 630.5625 170.155236 
L 629.865 170.179414 
L 629.1675 170.204653 
L 628.47 170.230893 
L 627.7725 170.258067 
L 627.075 170.286106 
L 626.3775 170.314935 
L 625.68 170.344473 
L 624.9825 170.374639 
L 624.285 170.405348 
L 623.5875 170.436512 
L 622.89 170.468043 
L 622.1925 170.499851 
L 621.495 170.531848 
L 620.7975 170.563944 
L 620.1 170.596052 
L 619.4025 170.628085 
L 618.705 170.659961 
L 618.0075 170.691599 
L 617.31 170.722921 
L 616.6125 170.753855 
L 615.915 170.784332 
L 615.2175 170.814287 
L 614.52 170.843663 
L 613.8225 170.872405 
L 613.125 170.900466 
L 612.4275 170.927804 
L 611.73 170.954384 
L 611.0325 170.980176 
L 610.335 171.005158 
L 609.6375 171.029312 
L 608.94 171.052627 
L 608.2425 171.0751 
L 607.545 171.09673 
L 606.8475 171.117526 
L 606.15 171.1375 
L 605.4525 171.156669 
L 604.755 171.175056 
L 604.0575 171.192688 
L 603.36 171.209596 
L 602.6625 171.225816 
L 601.965 171.241385 
L 601.2675 171.256343 
L 600.57 171.270736 
L 599.8725 171.284606 
L 599.175 171.298001 
L 598.4775 171.310968 
L 597.78 171.323554 
L 597.0825 171.335808 
L 596.385 171.347775 
L 595.6875 171.359503 
L 594.99 171.371034 
L 594.2925 171.382413 
L 593.595 171.393679 
L 592.8975 171.404871 
L 592.2 171.416024 
L 591.5025 171.427169 
L 590.805 171.438336 
L 590.1075 171.449551 
L 589.41 171.460834 
L 588.7125 171.472203 
L 588.015 171.483674 
L 587.3175 171.495257 
L 586.62 171.506958 
L 585.9225 171.518781 
L 585.225 171.530725 
L 584.5275 171.542787 
L 583.83 171.554959 
L 583.1325 171.567233 
L 582.435 171.579596 
L 581.7375 171.592033 
L 581.04 171.604527 
L 580.3425 171.61706 
L 579.645 171.629612 
L 578.9475 171.642163 
L 578.25 171.654691 
L 577.5525 171.667175 
L 576.855 171.679593 
L 576.1575 171.691925 
L 575.46 171.704152 
L 574.7625 171.716256 
L 574.065 171.728219 
L 573.3675 171.740028 
L 572.67 171.75167 
L 571.9725 171.763138 
L 571.275 171.774423 
L 570.5775 171.785524 
L 569.88 171.796441 
L 569.1825 171.807176 
L 568.485 171.817739 
L 567.7875 171.82814 
L 567.09 171.838395 
L 566.3925 171.848521 
L 565.695 171.858541 
L 564.9975 171.868482 
L 564.3 171.878373 
L 563.6025 171.888247 
L 562.905 171.898138 
L 562.2075 171.908087 
L 561.51 171.918133 
L 560.8125 171.92832 
L 560.115 171.938693 
L 559.4175 171.949297 
L 558.72 171.960181 
L 558.0225 171.971391 
L 557.325 171.982975 
L 556.6275 171.99498 
L 555.93 172.007453 
L 555.2325 172.020438 
L 554.535 172.033978 
L 553.8375 172.048114 
L 553.14 172.062882 
L 552.4425 172.078318 
L 551.745 172.094452 
L 551.0475 172.111311 
L 550.35 172.128915 
L 549.6525 172.147281 
L 548.955 172.166422 
L 548.2575 172.186344 
L 547.56 172.207046 
L 546.8625 172.228523 
L 546.165 172.250763 
L 545.4675 172.273749 
L 544.77 172.297455 
L 544.0725 172.321852 
L 543.375 172.346903 
L 542.6775 172.372565 
L 541.98 172.398789 
L 541.2825 172.425522 
L 540.585 172.452703 
L 539.8875 172.480268 
L 539.19 172.508147 
L 538.4925 172.536266 
L 537.795 172.564548 
L 537.0975 172.592912 
L 536.4 172.621273 
L 535.7025 172.649545 
L 535.005 172.677642 
L 534.3075 172.705472 
L 533.61 172.732949 
L 532.9125 172.759981 
L 532.215 172.786482 
L 531.5175 172.812363 
L 530.82 172.837542 
L 530.1225 172.861935 
L 529.425 172.885464 
L 528.7275 172.908056 
L 528.03 172.92964 
L 527.3325 172.950152 
L 526.635 172.969534 
L 525.9375 172.987732 
L 525.24 173.004701 
L 524.5425 173.020403 
L 523.845 173.034805 
L 523.1475 173.047885 
L 522.45 173.059626 
L 521.7525 173.070021 
L 521.055 173.079071 
L 520.3575 173.086785 
L 519.66 173.093181 
L 518.9625 173.098284 
L 518.265 173.102127 
L 517.5675 173.104754 
L 516.87 173.106214 
L 516.1725 173.106564 
L 515.475 173.105868 
L 514.7775 173.104197 
L 514.08 173.101628 
L 513.3825 173.098245 
L 512.685 173.094135 
L 511.9875 173.089391 
L 511.29 173.08411 
L 510.5925 173.078391 
L 509.895 173.072337 
L 509.1975 173.066053 
L 508.5 173.059644 
L 507.8025 173.053216 
L 507.105 173.046875 
L 506.4075 173.040726 
L 505.71 173.034871 
L 505.0125 173.029413 
L 504.315 173.024447 
L 503.6175 173.020069 
L 502.92 173.016367 
L 502.2225 173.013426 
L 501.525 173.011325 
L 500.8275 173.010136 
L 500.13 173.009926 
L 499.4325 173.010753 
L 498.735 173.01267 
L 498.0375 173.01572 
L 497.34 173.01994 
L 496.6425 173.025358 
L 495.945 173.031994 
L 495.2475 173.039859 
L 494.55 173.048955 
L 493.8525 173.059279 
L 493.155 173.070816 
L 492.4575 173.083546 
L 491.76 173.097438 
L 491.0625 173.112456 
L 490.365 173.128557 
L 489.6675 173.145689 
L 488.97 173.163795 
L 488.2725 173.182814 
L 487.575 173.202676 
L 486.8775 173.223308 
L 486.18 173.244633 
L 485.4825 173.266571 
L 484.785 173.289037 
L 484.0875 173.311945 
L 483.39 173.335208 
L 482.6925 173.358736 
L 481.995 173.382441 
L 481.2975 173.406233 
L 480.6 173.430024 
L 479.9025 173.453728 
L 479.205 173.47726 
L 478.5075 173.500538 
L 477.81 173.523484 
L 477.1125 173.546022 
L 476.415 173.568083 
L 475.7175 173.5896 
L 475.02 173.610512 
L 474.3225 173.630763 
L 473.625 173.650304 
L 472.9275 173.66909 
L 472.23 173.687082 
L 471.5325 173.704249 
L 470.835 173.720566 
L 470.1375 173.736011 
L 469.44 173.750573 
L 468.7425 173.764243 
L 468.045 173.777021 
L 467.3475 173.788912 
L 466.65 173.799925 
L 465.9525 173.810075 
L 465.255 173.819385 
L 464.5575 173.827878 
L 463.86 173.835584 
L 463.1625 173.842537 
L 462.465 173.848774 
L 461.7675 173.854334 
L 461.07 173.85926 
L 460.3725 173.863596 
L 459.675 173.867388 
L 458.9775 173.870684 
L 458.28 173.87353 
L 457.5825 173.875976 
L 456.885 173.878067 
L 456.1875 173.879852 
L 455.49 173.881375 
L 454.7925 173.882679 
L 454.095 173.883807 
L 453.3975 173.884799 
L 452.7 173.88569 
L 452.0025 173.886514 
L 451.305 173.887303 
L 450.6075 173.888082 
L 449.91 173.888876 
L 449.2125 173.889705 
L 448.515 173.890585 
L 447.8175 173.891528 
L 447.12 173.892543 
L 446.4225 173.893635 
L 445.725 173.894806 
L 445.0275 173.896052 
L 444.33 173.897371 
L 443.6325 173.898752 
L 442.935 173.900185 
L 442.2375 173.901657 
L 441.54 173.903152 
L 440.8425 173.904652 
L 440.145 173.906138 
L 439.4475 173.907591 
L 438.75 173.908989 
L 438.0525 173.910312 
L 437.355 173.911537 
L 436.6575 173.912645 
L 435.96 173.913616 
L 435.2625 173.91443 
L 434.565 173.915072 
L 433.8675 173.915525 
L 433.17 173.915777 
L 432.4725 173.915818 
L 431.775 173.91564 
L 431.0775 173.91524 
L 430.38 173.914615 
L 429.6825 173.913769 
L 428.985 173.912708 
L 428.2875 173.91144 
L 427.59 173.909981 
L 426.8925 173.908346 
L 426.195 173.906558 
L 425.4975 173.90464 
L 424.8 173.902621 
L 424.1025 173.900532 
L 423.405 173.898408 
L 422.7075 173.896286 
L 422.01 173.894207 
L 421.3125 173.892213 
L 420.615 173.890347 
L 419.9175 173.888657 
L 419.22 173.887188 
L 418.5225 173.88599 
L 417.825 173.885108 
L 417.1275 173.884592 
L 416.43 173.884487 
L 415.7325 173.884841 
L 415.035 173.885696 
L 414.3375 173.887094 
L 413.64 173.889075 
L 412.9425 173.891675 
L 412.245 173.894927 
L 411.5475 173.898858 
L 410.85 173.903492 
L 410.1525 173.90885 
L 409.455 173.914945 
L 408.7575 173.921787 
L 408.06 173.929378 
L 407.3625 173.937715 
L 406.665 173.946791 
L 405.9675 173.956589 
L 405.27 173.967089 
L 404.5725 173.978264 
L 403.875 173.990079 
L 403.1775 174.002496 
L 402.48 174.015468 
L 401.7825 174.028943 
L 401.085 174.042866 
L 400.3875 174.057173 
L 399.69 174.071797 
L 398.9925 174.086667 
L 398.295 174.101707 
L 397.5975 174.116837 
L 396.9 174.131975 
L 396.2025 174.147036 
L 395.505 174.161933 
L 394.8075 174.176578 
L 394.11 174.190883 
L 393.4125 174.204756 
L 392.715 174.218112 
L 392.0175 174.230861 
L 391.32 174.242919 
L 390.6225 174.254202 
L 389.925 174.264632 
L 389.2275 174.274131 
L 388.53 174.282629 
L 387.8325 174.290059 
L 387.135 174.296359 
L 386.4375 174.301475 
L 385.74 174.305357 
L 385.0425 174.307965 
L 384.345 174.309263 
L 383.6475 174.309225 
L 382.95 174.307831 
L 382.2525 174.305071 
L 381.555 174.300941 
L 380.8575 174.295448 
L 380.16 174.288605 
L 379.4625 174.280435 
L 378.765 174.270968 
L 378.0675 174.260243 
L 377.37 174.248306 
L 376.6725 174.235211 
L 375.975 174.221019 
L 375.2775 174.205799 
L 374.58 174.189626 
L 373.8825 174.17258 
L 373.185 174.154747 
L 372.4875 174.136218 
L 371.79 174.117088 
L 371.0925 174.097456 
L 370.395 174.077423 
L 369.6975 174.057094 
L 369 174.036574 
L 368.3025 174.015969 
L 367.605 173.995386 
L 366.9075 173.97493 
L 366.21 173.954705 
L 365.5125 173.934813 
L 364.815 173.915354 
L 364.1175 173.896424 
L 363.42 173.878115 
L 362.7225 173.860513 
L 362.025 173.843699 
L 361.3275 173.827751 
L 360.63 173.812737 
L 359.9325 173.798721 
L 359.235 173.785756 
L 358.5375 173.773892 
L 357.84 173.763169 
L 357.1425 173.753618 
L 356.445 173.745263 
L 355.7475 173.738121 
L 355.05 173.732197 
L 354.3525 173.72749 
L 353.655 173.723993 
L 352.9575 173.721685 
L 352.26 173.720544 
L 351.5625 173.720534 
L 350.865 173.721616 
L 350.1675 173.723743 
L 349.47 173.72686 
L 348.7725 173.730908 
L 348.075 173.735821 
L 347.3775 173.741528 
L 346.68 173.747954 
L 345.9825 173.75502 
L 345.285 173.762644 
L 344.5875 173.77074 
L 343.89 173.779223 
L 343.1925 173.788004 
L 342.495 173.796993 
L 341.7975 173.806103 
L 341.1 173.815243 
L 340.4025 173.824329 
L 339.705 173.833273 
L 339.0075 173.841994 
L 338.31 173.850412 
L 337.6125 173.858449 
L 336.915 173.866035 
L 336.2175 173.8731 
L 335.52 173.879582 
L 334.8225 173.885423 
L 334.125 173.890571 
L 333.4275 173.894979 
L 332.73 173.898605 
L 332.0325 173.901417 
L 331.335 173.903384 
L 330.6375 173.904486 
L 329.94 173.904705 
L 329.2425 173.904033 
L 328.545 173.902466 
L 327.8475 173.900006 
L 327.15 173.89666 
L 326.4525 173.892444 
L 325.755 173.887374 
L 325.0575 173.881475 
L 324.36 173.874774 
L 323.6625 173.867303 
L 322.965 173.859098 
L 322.2675 173.850198 
L 321.57 173.840644 
L 320.8725 173.830481 
L 320.175 173.819753 
L 319.4775 173.808507 
L 318.78 173.796793 
L 318.0825 173.784656 
L 317.385 173.772146 
L 316.6875 173.75931 
L 315.99 173.746193 
L 315.2925 173.732841 
L 314.595 173.719297 
L 313.8975 173.705602 
L 313.2 173.691793 
L 312.5025 173.677906 
L 311.805 173.663974 
L 311.1075 173.650024 
L 310.41 173.636084 
L 309.7125 173.622174 
L 309.015 173.608313 
L 308.3175 173.594515 
L 307.62 173.580791 
L 306.9225 173.567148 
L 306.225 173.553589 
L 305.5275 173.540115 
L 304.83 173.52672 
L 304.1325 173.5134 
L 303.435 173.500144 
L 302.7375 173.48694 
L 302.04 173.473774 
L 301.3425 173.46063 
L 300.645 173.447489 
L 299.9475 173.434331 
L 299.25 173.421137 
L 298.5525 173.407886 
L 297.855 173.394557 
L 297.1575 173.381129 
L 296.46 173.367582 
L 295.7625 173.353898 
L 295.065 173.340058 
L 294.3675 173.326047 
L 293.67 173.311851 
L 292.9725 173.29746 
L 292.275 173.282864 
L 291.5775 173.268058 
L 290.88 173.25304 
L 290.1825 173.237812 
L 289.485 173.222376 
L 288.7875 173.206743 
L 288.09 173.190924 
L 287.3925 173.174935 
L 286.695 173.158795 
L 285.9975 173.142528 
L 285.3 173.12616 
L 284.6025 173.109722 
L 283.905 173.093248 
L 283.2075 173.076773 
L 282.51 173.060337 
L 281.8125 173.043981 
L 281.115 173.02775 
L 280.4175 173.011688 
L 279.72 172.995843 
L 279.0225 172.980262 
L 278.325 172.964994 
L 277.6275 172.950085 
L 276.93 172.935585 
L 276.2325 172.921539 
L 275.535 172.907992 
L 274.8375 172.894988 
L 274.14 172.882567 
L 273.4425 172.870768 
L 272.745 172.859624 
L 272.0475 172.849167 
L 271.35 172.839421 
L 270.6525 172.830411 
L 269.955 172.822151 
L 269.2575 172.814655 
L 268.56 172.807927 
L 267.8625 172.801968 
L 267.165 172.796772 
L 266.4675 172.792328 
L 265.77 172.788618 
L 265.0725 172.785616 
L 264.375 172.783293 
L 263.6775 172.781612 
L 262.98 172.78053 
L 262.2825 172.779998 
L 261.585 172.779963 
L 260.8875 172.780363 
L 260.19 172.781136 
L 259.4925 172.78221 
L 258.795 172.783513 
L 258.0975 172.784967 
L 257.4 172.786491 
L 256.7025 172.788002 
L 256.005 172.789412 
L 255.3075 172.790636 
L 254.61 172.791585 
L 253.9125 172.792169 
L 253.215 172.792301 
L 252.5175 172.791892 
L 251.82 172.790856 
L 251.1225 172.789109 
L 250.425 172.786571 
L 249.7275 172.783165 
L 249.03 172.778815 
L 248.3325 172.773454 
L 247.635 172.767019 
L 246.9375 172.759452 
L 246.24 172.7507 
L 245.5425 172.74072 
L 244.845 172.729474 
L 244.1475 172.716932 
L 243.45 172.703071 
L 242.7525 172.687877 
L 242.055 172.671343 
L 241.3575 172.653473 
L 240.66 172.634275 
L 239.9625 172.613769 
L 239.265 172.591981 
L 238.5675 172.568948 
L 237.87 172.544711 
L 237.1725 172.519323 
L 236.475 172.49284 
L 235.7775 172.46533 
L 235.08 172.436863 
L 234.3825 172.407517 
L 233.685 172.377378 
L 232.9875 172.346533 
L 232.29 172.315077 
L 231.5925 172.283106 
L 230.895 172.250722 
L 230.1975 172.218027 
L 229.5 172.185127 
L 228.8025 172.152128 
L 228.105 172.119136 
L 227.4075 172.086257 
L 226.71 172.053598 
L 226.0125 172.021261 
L 225.315 171.989347 
L 224.6175 171.957954 
L 223.92 171.927175 
L 223.2225 171.897102 
L 222.525 171.867816 
L 221.8275 171.839398 
L 221.13 171.811921 
L 220.4325 171.785449 
L 219.735 171.760043 
L 219.0375 171.735753 
L 218.34 171.712623 
L 217.6425 171.69069 
L 216.945 171.669982 
L 216.2475 171.650517 
L 215.55 171.632307 
L 214.8525 171.615355 
L 214.155 171.599655 
L 213.4575 171.585194 
L 212.76 171.571949 
L 212.0625 171.559892 
L 211.365 171.548986 
L 210.6675 171.539186 
L 209.97 171.530442 
L 209.2725 171.522696 
L 208.575 171.515886 
L 207.8775 171.509944 
L 207.18 171.504796 
L 206.4825 171.500365 
L 205.785 171.496572 
L 205.0875 171.493331 
L 204.39 171.490557 
L 203.6925 171.488164 
L 202.995 171.486061 
L 202.2975 171.484161 
L 201.6 171.482375 
L 200.9025 171.480615 
L 200.205 171.478796 
L 199.5075 171.476833 
L 198.81 171.474646 
L 198.1125 171.472156 
L 197.415 171.469291 
L 196.7175 171.465979 
L 196.02 171.462156 
L 195.3225 171.457762 
L 194.625 171.452742 
L 193.9275 171.447046 
L 193.23 171.440633 
L 192.5325 171.433463 
L 191.835 171.425507 
L 191.1375 171.41674 
L 190.44 171.407142 
L 189.7425 171.396703 
L 189.045 171.385414 
L 188.3475 171.373277 
L 187.65 171.360297 
L 186.9525 171.346485 
L 186.255 171.331858 
L 185.5575 171.316436 
L 184.86 171.300247 
L 184.1625 171.283319 
L 183.465 171.265689 
L 182.7675 171.247392 
L 182.07 171.228471 
L 181.3725 171.208967 
L 180.675 171.188925 
L 179.9775 171.168394 
L 179.28 171.147419 
L 178.5825 171.126049 
L 177.885 171.104332 
L 177.1875 171.082317 
L 176.49 171.060049 
L 175.7925 171.037576 
L 175.095 171.01494 
L 174.3975 170.992184 
L 173.7 170.969347 
L 173.0025 170.946467 
L 172.305 170.923576 
L 171.6075 170.900707 
L 170.91 170.877885 
L 170.2125 170.855135 
L 169.515 170.832476 
L 168.8175 170.809926 
L 168.12 170.787496 
L 167.4225 170.765195 
L 166.725 170.743029 
L 166.0275 170.720999 
L 165.33 170.699103 
L 164.6325 170.677336 
L 163.935 170.65569 
L 163.2375 170.634154 
L 162.54 170.612715 
L 161.8425 170.591357 
L 161.145 170.570064 
L 160.4475 170.548816 
L 159.75 170.527594 
L 159.0525 170.506377 
L 158.355 170.485144 
L 157.6575 170.463876 
L 156.96 170.442551 
L 156.2625 170.42115 
L 155.565 170.399655 
L 154.8675 170.37805 
L 154.17 170.35632 
L 153.4725 170.334454 
L 152.775 170.31244 
L 152.0775 170.290274 
L 151.38 170.26795 
L 150.6825 170.245469 
L 149.985 170.222834 
L 149.2875 170.200051 
L 148.59 170.177132 
L 147.8925 170.15409 
L 147.195 170.130944 
L 146.4975 170.107715 
L 145.8 170.084428 
L 145.1025 170.061112 
L 144.405 170.0378 
L 143.7075 170.014527 
L 143.01 169.99133 
L 142.3125 169.968251 
L 141.615 169.945332 
L 140.9175 169.922619 
L 140.22 169.900158 
L 139.5225 169.877995 
L 138.825 169.85618 
L 138.1275 169.83476 
L 137.43 169.813783 
L 136.7325 169.793297 
L 136.035 169.773348 
L 135.3375 169.753979 
L 134.64 169.735233 
L 133.9425 169.717149 
L 133.245 169.699763 
L 132.5475 169.683108 
L 131.85 169.667211 
L 131.1525 169.652098 
L 130.455 169.637787 
L 129.7575 169.624292 
L 129.06 169.611623 
L 128.3625 169.599782 
L 127.665 169.588766 
L 126.9675 169.578566 
L 126.27 169.569167 
L 125.5725 169.560548 
L 124.875 169.552682 
L 124.1775 169.545533 
L 123.48 169.539063 
L 122.7825 169.533226 
L 122.085 169.527969 
L 121.3875 169.523236 
L 120.69 169.518964 
L 119.9925 169.515086 
L 119.295 169.51153 
L 118.5975 169.50822 
L 117.9 169.505077 
L 117.2025 169.502019 
L 116.505 169.498961 
L 115.8075 169.495816 
L 115.11 169.492496 
L 114.4125 169.488913 
L 113.715 169.484977 
L 113.0175 169.4806 
L 112.32 169.475697 
L 111.6225 169.470181 
L 110.925 169.463971 
L 110.2275 169.456987 
L 109.53 169.449154 
L 108.8325 169.440402 
L 108.135 169.430664 
L 107.4375 169.41988 
L 106.74 169.407996 
L 106.0425 169.394965 
L 105.345 169.380744 
L 104.6475 169.365302 
L 103.95 169.348611 
L 103.2525 169.330654 
L 102.555 169.311421 
L 101.8575 169.29091 
L 101.16 169.269128 
L 100.4625 169.246089 
L 99.765 169.221818 
L 99.0675 169.196346 
L 98.37 169.169711 
L 97.6725 169.141963 
L 96.975 169.113155 
L 96.2775 169.08335 
L 95.58 169.052618 
L 94.8825 169.021033 
L 94.185 168.988677 
L 93.4875 168.955637 
L 92.79 168.922004 
L 92.0925 168.887875 
L 91.395 168.853348 
L 90.6975 168.818526 
L 90 168.783513 
z
" style="fill:#e0ffff;"/>
   </g>
   <g id="line2d_19">
    <path clip-path="url(#p37de959a04)" d="M 90 168.783513 
L 102.555 169.311421 
L 112.32 169.475697 
L 134.64 169.735233 
L 157.6575 170.463876 
L 193.23 171.440633 
L 220.4325 171.785449 
L 249.03 172.778815 
L 284.6025 173.109722 
L 317.385 173.772146 
L 330.6375 173.904486 
L 343.89 173.779223 
L 355.7475 173.738121 
L 366.21 173.954705 
L 381.555 174.300941 
L 390.6225 174.254202 
L 419.9175 173.888657 
L 458.28 173.87353 
L 470.835 173.720566 
L 484.785 173.289037 
L 495.945 173.031994 
L 506.4075 173.040726 
L 521.7525 173.070021 
L 530.82 172.837542 
L 557.325 171.982975 
L 611.0325 170.980176 
L 642.42 169.929676 
L 646.605 169.92 
L 646.605 169.92 
" style="fill:none;stroke:#008080;stroke-linecap:round;stroke-width:1.75;"/>
   </g>
   <g id="patch_3">
    <path d="M 90 270.72 
L 90 69.12 
" style="fill:none;stroke:#262626;stroke-linecap:square;stroke-linejoin:miter;stroke-width:1.25;"/>
   </g>
   <g id="patch_4">
    <path d="M 90 270.72 
L 648 270.72 
" style="fill:none;stroke:#262626;stroke-linecap:square;stroke-linejoin:miter;stroke-width:1.25;"/>
   </g>
  </g>
  <g id="axes_2">
   <g id="patch_5">
    <path d="M 90 512.64 
L 648 512.64 
L 648 311.04 
L 90 311.04 
z
" style="fill:#ffffff;"/>
   </g>
   <g id="matplotlib.axis_3">
    <g id="xtick_10">
     <g id="line2d_20">
      <g>
       <use style="fill:#262626;stroke:#262626;" x="191.454545" xlink:href="#m5c19605a67" y="512.64"/>
      </g>
     </g>
     <g id="text_19">
      <!-- 200 -->
      <g style="fill:#262626;" transform="translate(183.113139 532.797812)scale(0.1 -0.1)">
       <use xlink:href="#ArialMT-32"/>
       <use x="55.615234" xlink:href="#ArialMT-30"/>
       <use x="111.230469" xlink:href="#ArialMT-30"/>
      </g>
     </g>
    </g>
    <g id="xtick_11">
     <g id="line2d_21">
      <g>
       <use style="fill:#262626;stroke:#262626;" x="304.181818" xlink:href="#m5c19605a67" y="512.64"/>
      </g>
     </g>
     <g id="text_20">
      <!-- 400 -->
      <g style="fill:#262626;" transform="translate(295.840412 532.797812)scale(0.1 -0.1)">
       <use xlink:href="#ArialMT-34"/>
       <use x="55.615234" xlink:href="#ArialMT-30"/>
       <use x="111.230469" xlink:href="#ArialMT-30"/>
      </g>
     </g>
    </g>
    <g id="xtick_12">
     <g id="line2d_22">
      <g>
       <use style="fill:#262626;stroke:#262626;" x="416.909091" xlink:href="#m5c19605a67" y="512.64"/>
      </g>
     </g>
     <g id="text_21">
      <!-- 600 -->
      <g style="fill:#262626;" transform="translate(408.567685 532.797812)scale(0.1 -0.1)">
       <use xlink:href="#ArialMT-36"/>
       <use x="55.615234" xlink:href="#ArialMT-30"/>
       <use x="111.230469" xlink:href="#ArialMT-30"/>
      </g>
     </g>
    </g>
    <g id="xtick_13">
     <g id="line2d_23">
      <g>
       <use style="fill:#262626;stroke:#262626;" x="529.636364" xlink:href="#m5c19605a67" y="512.64"/>
      </g>
     </g>
     <g id="text_22">
      <!-- 800 -->
      <g style="fill:#262626;" transform="translate(521.294957 532.797812)scale(0.1 -0.1)">
       <use xlink:href="#ArialMT-38"/>
       <use x="55.615234" xlink:href="#ArialMT-30"/>
       <use x="111.230469" xlink:href="#ArialMT-30"/>
      </g>
     </g>
    </g>
    <g id="xtick_14">
     <g id="line2d_24">
      <g>
       <use style="fill:#262626;stroke:#262626;" x="642.363636" xlink:href="#m5c19605a67" y="512.64"/>
      </g>
     </g>
     <g id="text_23">
      <!-- 1000 -->
      <g style="fill:#262626;" transform="translate(631.241761 532.797812)scale(0.1 -0.1)">
       <use xlink:href="#ArialMT-31"/>
       <use x="55.615234" xlink:href="#ArialMT-30"/>
       <use x="111.230469" xlink:href="#ArialMT-30"/>
       <use x="166.845703" xlink:href="#ArialMT-30"/>
      </g>
     </g>
    </g>
   </g>
   <g id="matplotlib.axis_4">
    <g id="ytick_10">
     <g id="line2d_25">
      <g>
       <use style="fill:#262626;stroke:#262626;" x="90" xlink:href="#mb35f0be6c1" y="512.64"/>
      </g>
     </g>
     <g id="text_24">
      <!-- 0 -->
      <g style="fill:#262626;" transform="translate(71.439063 516.218906)scale(0.1 -0.1)">
       <use xlink:href="#ArialMT-30"/>
      </g>
     </g>
    </g>
    <g id="ytick_11">
     <g id="line2d_26">
      <g>
       <use style="fill:#262626;stroke:#262626;" x="90" xlink:href="#mb35f0be6c1" y="487.44"/>
      </g>
     </g>
     <g id="text_25">
      <!-- 5 -->
      <g style="fill:#262626;" transform="translate(71.439063 491.018906)scale(0.1 -0.1)">
       <use xlink:href="#ArialMT-35"/>
      </g>
     </g>
    </g>
    <g id="ytick_12">
     <g id="line2d_27">
      <g>
       <use style="fill:#262626;stroke:#262626;" x="90" xlink:href="#mb35f0be6c1" y="462.24"/>
      </g>
     </g>
     <g id="text_26">
      <!-- 10 -->
      <g style="fill:#262626;" transform="translate(65.878125 465.818906)scale(0.1 -0.1)">
       <use xlink:href="#ArialMT-31"/>
       <use x="55.615234" xlink:href="#ArialMT-30"/>
      </g>
     </g>
    </g>
    <g id="ytick_13">
     <g id="line2d_28">
      <g>
       <use style="fill:#262626;stroke:#262626;" x="90" xlink:href="#mb35f0be6c1" y="437.04"/>
      </g>
     </g>
     <g id="text_27">
      <!-- 15 -->
      <g style="fill:#262626;" transform="translate(65.878125 440.618906)scale(0.1 -0.1)">
       <use xlink:href="#ArialMT-31"/>
       <use x="55.615234" xlink:href="#ArialMT-35"/>
      </g>
     </g>
    </g>
    <g id="ytick_14">
     <g id="line2d_29">
      <g>
       <use style="fill:#262626;stroke:#262626;" x="90" xlink:href="#mb35f0be6c1" y="411.84"/>
      </g>
     </g>
     <g id="text_28">
      <!-- 20 -->
      <g style="fill:#262626;" transform="translate(65.878125 415.418906)scale(0.1 -0.1)">
       <use xlink:href="#ArialMT-32"/>
       <use x="55.615234" xlink:href="#ArialMT-30"/>
      </g>
     </g>
    </g>
    <g id="ytick_15">
     <g id="line2d_30">
      <g>
       <use style="fill:#262626;stroke:#262626;" x="90" xlink:href="#mb35f0be6c1" y="386.64"/>
      </g>
     </g>
     <g id="text_29">
      <!-- 25 -->
      <g style="fill:#262626;" transform="translate(65.878125 390.218906)scale(0.1 -0.1)">
       <use xlink:href="#ArialMT-32"/>
       <use x="55.615234" xlink:href="#ArialMT-35"/>
      </g>
     </g>
    </g>
    <g id="ytick_16">
     <g id="line2d_31">
      <g>
       <use style="fill:#262626;stroke:#262626;" x="90" xlink:href="#mb35f0be6c1" y="361.44"/>
      </g>
     </g>
     <g id="text_30">
      <!-- 30 -->
      <g style="fill:#262626;" transform="translate(65.878125 365.018906)scale(0.1 -0.1)">
       <use xlink:href="#ArialMT-33"/>
       <use x="55.615234" xlink:href="#ArialMT-30"/>
      </g>
     </g>
    </g>
    <g id="ytick_17">
     <g id="line2d_32">
      <g>
       <use style="fill:#262626;stroke:#262626;" x="90" xlink:href="#mb35f0be6c1" y="336.24"/>
      </g>
     </g>
     <g id="text_31">
      <!-- 35 -->
      <g style="fill:#262626;" transform="translate(65.878125 339.818906)scale(0.1 -0.1)">
       <use xlink:href="#ArialMT-33"/>
       <use x="55.615234" xlink:href="#ArialMT-35"/>
      </g>
     </g>
    </g>
    <g id="ytick_18">
     <g id="line2d_33">
      <g>
       <use style="fill:#262626;stroke:#262626;" x="90" xlink:href="#mb35f0be6c1" y="311.04"/>
      </g>
     </g>
     <g id="text_32">
      <!-- 40 -->
      <g style="fill:#262626;" transform="translate(65.878125 314.618906)scale(0.1 -0.1)">
       <use xlink:href="#ArialMT-34"/>
       <use x="55.615234" xlink:href="#ArialMT-30"/>
      </g>
     </g>
    </g>
   </g>
   <g id="line2d_34">
    <path clip-path="url(#p26cd7b3c1f)" d="M 90 488.562059 
L 95.636364 492.871917 
" style="fill:none;stroke:#b22222;stroke-linecap:round;stroke-width:1.75;"/>
   </g>
   <g id="patch_6">
    <path d="M 90 512.64 
L 90 311.04 
" style="fill:none;stroke:#262626;stroke-linecap:square;stroke-linejoin:miter;stroke-width:1.25;"/>
   </g>
   <g id="patch_7">
    <path d="M 90 512.64 
L 648 512.64 
" style="fill:none;stroke:#262626;stroke-linecap:square;stroke-linejoin:miter;stroke-width:1.25;"/>
   </g>
   <g id="text_33">
    <!-- f = 30 Hz -->
    <defs>
     <path d="M 8.6875 0 
L 8.6875 45.015625 
L 0.921875 45.015625 
L 0.921875 51.859375 
L 8.6875 51.859375 
L 8.6875 57.375 
Q 8.6875 62.59375 9.625 65.140625 
Q 10.890625 68.5625 14.078125 70.671875 
Q 17.28125 72.796875 23.046875 72.796875 
Q 26.765625 72.796875 31.25 71.921875 
L 29.9375 64.265625 
Q 27.203125 64.75 24.75 64.75 
Q 20.75 64.75 19.09375 63.03125 
Q 17.4375 61.328125 17.4375 56.640625 
L 17.4375 51.859375 
L 27.546875 51.859375 
L 27.546875 45.015625 
L 17.4375 45.015625 
L 17.4375 0 
z
" id="ArialMT-66"/>
     <path id="ArialMT-20"/>
     <path d="M 52.828125 42.09375 
L 5.5625 42.09375 
L 5.5625 50.296875 
L 52.828125 50.296875 
z
M 52.828125 20.359375 
L 5.5625 20.359375 
L 5.5625 28.5625 
L 52.828125 28.5625 
z
" id="ArialMT-3d"/>
     <path d="M 8.015625 0 
L 8.015625 71.578125 
L 17.484375 71.578125 
L 17.484375 42.1875 
L 54.6875 42.1875 
L 54.6875 71.578125 
L 64.15625 71.578125 
L 64.15625 0 
L 54.6875 0 
L 54.6875 33.734375 
L 17.484375 33.734375 
L 17.484375 0 
z
" id="ArialMT-48"/>
     <path d="M 1.953125 0 
L 1.953125 7.125 
L 34.96875 45.015625 
Q 29.34375 44.734375 25.046875 44.734375 
L 3.90625 44.734375 
L 3.90625 51.859375 
L 46.296875 51.859375 
L 46.296875 46.046875 
L 18.21875 13.140625 
L 12.796875 7.125 
Q 18.703125 7.5625 23.875 7.5625 
L 47.859375 7.5625 
L 47.859375 0 
z
" id="ArialMT-7a"/>
    </defs>
    <g style="fill:#262626;" transform="translate(529.636364 364.542187)scale(0.12 -0.12)">
     <use xlink:href="#ArialMT-66"/>
     <use x="27.783203" xlink:href="#ArialMT-20"/>
     <use x="55.566406" xlink:href="#ArialMT-3d"/>
     <use x="113.964844" xlink:href="#ArialMT-20"/>
     <use x="141.748047" xlink:href="#ArialMT-33"/>
     <use x="197.363281" xlink:href="#ArialMT-30"/>
     <use x="252.978516" xlink:href="#ArialMT-20"/>
     <use x="280.761719" xlink:href="#ArialMT-48"/>
     <use x="352.978516" xlink:href="#ArialMT-7a"/>
    </g>
   </g>
   <g id="PathCollection_1">
    <defs>
     <path d="M 0 3.5 
C 0.928211 3.5 1.81853 3.131218 2.474874 2.474874 
C 3.131218 1.81853 3.5 0.928211 3.5 0 
C 3.5 -0.928211 3.131218 -1.81853 2.474874 -2.474874 
C 1.81853 -3.131218 0.928211 -3.5 0 -3.5 
C -0.928211 -3.5 -1.81853 -3.131218 -2.474874 -2.474874 
C -3.131218 -1.81853 -3.5 -0.928211 -3.5 0 
C -3.5 0.928211 -3.131218 1.81853 -2.474874 2.474874 
C -1.81853 3.131218 -0.928211 3.5 0 3.5 
z
" id="m9410daed67" style="stroke:#800000;stroke-width:0.3;"/>
    </defs>
    <g clip-path="url(#p26cd7b3c1f)">
     <use style="fill:#800000;stroke:#800000;stroke-width:0.3;" x="95.636364" xlink:href="#m9410daed67" y="492.871917"/>
    </g>
   </g>
  </g>
 </g>
 <defs>
  <clipPath id="p37de959a04">
   <rect height="201.6" width="558" x="90" y="69.12"/>
  </clipPath>
  <clipPath id="p26cd7b3c1f">
   <rect height="201.6" width="558" x="90" y="311.04"/>
  </clipPath>
 </defs>
</svg>
