<?xml version="1.0" encoding="utf-8" standalone="no"?>
<!DOCTYPE svg PUBLIC "-//W3C//DTD SVG 1.1//EN"
  "http://www.w3.org/Graphics/SVG/1.1/DTD/svg11.dtd">
<!-- Created with matplotlib (http://matplotlib.org/) -->
<svg height="576pt" version="1.1" viewBox="0 0 720 576" width="720pt" xmlns="http://www.w3.org/2000/svg" xmlns:xlink="http://www.w3.org/1999/xlink">
 <defs>
  <style type="text/css">
*{stroke-linecap:butt;stroke-linejoin:round;}
  </style>
 </defs>
 <g id="figure_1">
  <g id="patch_1">
   <path d="M 0 576 
L 720 576 
L 720 0 
L 0 0 
z
" style="fill:#ffffff;"/>
  </g>
  <g id="axes_1">
   <g id="patch_2">
    <path d="M 90 270.72 
L 648 270.72 
L 648 69.12 
L 90 69.12 
z
" style="fill:#ffffff;"/>
   </g>
   <g id="matplotlib.axis_1">
    <g id="xtick_1">
     <g id="line2d_1">
      <defs>
       <path d="M 0 0 
L 0 6 
" id="m8115a877a0" style="stroke:#262626;"/>
      </defs>
      <g>
       <use style="fill:#262626;stroke:#262626;" x="90" xlink:href="#m8115a877a0" y="270.72"/>
      </g>
     </g>
     <g id="text_1">
      <!-- 0 -->
      <defs>
       <path d="M 4.15625 35.296875 
Q 4.15625 48 6.765625 55.734375 
Q 9.375 63.484375 14.515625 67.671875 
Q 19.671875 71.875 27.484375 71.875 
Q 33.25 71.875 37.59375 69.546875 
Q 41.9375 67.234375 44.765625 62.859375 
Q 47.609375 58.5 49.21875 52.21875 
Q 50.828125 45.953125 50.828125 35.296875 
Q 50.828125 22.703125 48.234375 14.96875 
Q 45.65625 7.234375 40.5 3 
Q 35.359375 -1.21875 27.484375 -1.21875 
Q 17.140625 -1.21875 11.234375 6.203125 
Q 4.15625 15.140625 4.15625 35.296875 
z
M 13.1875 35.296875 
Q 13.1875 17.671875 17.3125 11.828125 
Q 21.4375 6 27.484375 6 
Q 33.546875 6 37.671875 11.859375 
Q 41.796875 17.71875 41.796875 35.296875 
Q 41.796875 52.984375 37.671875 58.78125 
Q 33.546875 64.59375 27.390625 64.59375 
Q 21.34375 64.59375 17.71875 59.46875 
Q 13.1875 52.9375 13.1875 35.296875 
z
" id="ArialMT-30"/>
      </defs>
      <g style="fill:#262626;" transform="translate(87.219531 290.877812)scale(0.1 -0.1)">
       <use xlink:href="#ArialMT-30"/>
      </g>
     </g>
    </g>
    <g id="xtick_2">
     <g id="line2d_2">
      <g>
       <use style="fill:#262626;stroke:#262626;" x="159.75" xlink:href="#m8115a877a0" y="270.72"/>
      </g>
     </g>
     <g id="text_2">
      <!-- 100 -->
      <defs>
       <path d="M 37.25 0 
L 28.46875 0 
L 28.46875 56 
Q 25.296875 52.984375 20.140625 49.953125 
Q 14.984375 46.921875 10.890625 45.40625 
L 10.890625 53.90625 
Q 18.265625 57.375 23.78125 62.296875 
Q 29.296875 67.234375 31.59375 71.875 
L 37.25 71.875 
z
" id="ArialMT-31"/>
      </defs>
      <g style="fill:#262626;" transform="translate(151.408594 290.877812)scale(0.1 -0.1)">
       <use xlink:href="#ArialMT-31"/>
       <use x="55.615234" xlink:href="#ArialMT-30"/>
       <use x="111.230469" xlink:href="#ArialMT-30"/>
      </g>
     </g>
    </g>
    <g id="xtick_3">
     <g id="line2d_3">
      <g>
       <use style="fill:#262626;stroke:#262626;" x="229.5" xlink:href="#m8115a877a0" y="270.72"/>
      </g>
     </g>
     <g id="text_3">
      <!-- 200 -->
      <defs>
       <path d="M 50.34375 8.453125 
L 50.34375 0 
L 3.03125 0 
Q 2.9375 3.171875 4.046875 6.109375 
Q 5.859375 10.9375 9.828125 15.625 
Q 13.8125 20.3125 21.34375 26.46875 
Q 33.015625 36.03125 37.109375 41.625 
Q 41.21875 47.21875 41.21875 52.203125 
Q 41.21875 57.421875 37.46875 61 
Q 33.734375 64.59375 27.734375 64.59375 
Q 21.390625 64.59375 17.578125 60.78125 
Q 13.765625 56.984375 13.71875 50.25 
L 4.6875 51.171875 
Q 5.609375 61.28125 11.65625 66.578125 
Q 17.71875 71.875 27.9375 71.875 
Q 38.234375 71.875 44.234375 66.15625 
Q 50.25 60.453125 50.25 52 
Q 50.25 47.703125 48.484375 43.546875 
Q 46.734375 39.40625 42.65625 34.8125 
Q 38.578125 30.21875 29.109375 22.21875 
Q 21.1875 15.578125 18.9375 13.203125 
Q 16.703125 10.84375 15.234375 8.453125 
z
" id="ArialMT-32"/>
      </defs>
      <g style="fill:#262626;" transform="translate(221.158594 290.877812)scale(0.1 -0.1)">
       <use xlink:href="#ArialMT-32"/>
       <use x="55.615234" xlink:href="#ArialMT-30"/>
       <use x="111.230469" xlink:href="#ArialMT-30"/>
      </g>
     </g>
    </g>
    <g id="xtick_4">
     <g id="line2d_4">
      <g>
       <use style="fill:#262626;stroke:#262626;" x="299.25" xlink:href="#m8115a877a0" y="270.72"/>
      </g>
     </g>
     <g id="text_4">
      <!-- 300 -->
      <defs>
       <path d="M 4.203125 18.890625 
L 12.984375 20.0625 
Q 14.5 12.59375 18.140625 9.296875 
Q 21.78125 6 27 6 
Q 33.203125 6 37.46875 10.296875 
Q 41.75 14.59375 41.75 20.953125 
Q 41.75 27 37.796875 30.921875 
Q 33.84375 34.859375 27.734375 34.859375 
Q 25.25 34.859375 21.53125 33.890625 
L 22.515625 41.609375 
Q 23.390625 41.5 23.921875 41.5 
Q 29.546875 41.5 34.03125 44.421875 
Q 38.53125 47.359375 38.53125 53.46875 
Q 38.53125 58.296875 35.25 61.46875 
Q 31.984375 64.65625 26.8125 64.65625 
Q 21.6875 64.65625 18.265625 61.421875 
Q 14.84375 58.203125 13.875 51.765625 
L 5.078125 53.328125 
Q 6.6875 62.15625 12.390625 67.015625 
Q 18.109375 71.875 26.609375 71.875 
Q 32.46875 71.875 37.390625 69.359375 
Q 42.328125 66.84375 44.9375 62.5 
Q 47.5625 58.15625 47.5625 53.265625 
Q 47.5625 48.640625 45.0625 44.828125 
Q 42.578125 41.015625 37.703125 38.765625 
Q 44.046875 37.3125 47.5625 32.6875 
Q 51.078125 28.078125 51.078125 21.140625 
Q 51.078125 11.765625 44.234375 5.25 
Q 37.40625 -1.265625 26.953125 -1.265625 
Q 17.53125 -1.265625 11.296875 4.34375 
Q 5.078125 9.96875 4.203125 18.890625 
z
" id="ArialMT-33"/>
      </defs>
      <g style="fill:#262626;" transform="translate(290.908594 290.877812)scale(0.1 -0.1)">
       <use xlink:href="#ArialMT-33"/>
       <use x="55.615234" xlink:href="#ArialMT-30"/>
       <use x="111.230469" xlink:href="#ArialMT-30"/>
      </g>
     </g>
    </g>
    <g id="xtick_5">
     <g id="line2d_5">
      <g>
       <use style="fill:#262626;stroke:#262626;" x="369" xlink:href="#m8115a877a0" y="270.72"/>
      </g>
     </g>
     <g id="text_5">
      <!-- 400 -->
      <defs>
       <path d="M 32.328125 0 
L 32.328125 17.140625 
L 1.265625 17.140625 
L 1.265625 25.203125 
L 33.9375 71.578125 
L 41.109375 71.578125 
L 41.109375 25.203125 
L 50.78125 25.203125 
L 50.78125 17.140625 
L 41.109375 17.140625 
L 41.109375 0 
z
M 32.328125 25.203125 
L 32.328125 57.46875 
L 9.90625 25.203125 
z
" id="ArialMT-34"/>
      </defs>
      <g style="fill:#262626;" transform="translate(360.658594 290.877812)scale(0.1 -0.1)">
       <use xlink:href="#ArialMT-34"/>
       <use x="55.615234" xlink:href="#ArialMT-30"/>
       <use x="111.230469" xlink:href="#ArialMT-30"/>
      </g>
     </g>
    </g>
    <g id="xtick_6">
     <g id="line2d_6">
      <g>
       <use style="fill:#262626;stroke:#262626;" x="438.75" xlink:href="#m8115a877a0" y="270.72"/>
      </g>
     </g>
     <g id="text_6">
      <!-- 500 -->
      <defs>
       <path d="M 4.15625 18.75 
L 13.375 19.53125 
Q 14.40625 12.796875 18.140625 9.390625 
Q 21.875 6 27.15625 6 
Q 33.5 6 37.890625 10.78125 
Q 42.28125 15.578125 42.28125 23.484375 
Q 42.28125 31 38.0625 35.34375 
Q 33.84375 39.703125 27 39.703125 
Q 22.75 39.703125 19.328125 37.765625 
Q 15.921875 35.84375 13.96875 32.765625 
L 5.71875 33.84375 
L 12.640625 70.609375 
L 48.25 70.609375 
L 48.25 62.203125 
L 19.671875 62.203125 
L 15.828125 42.96875 
Q 22.265625 47.46875 29.34375 47.46875 
Q 38.71875 47.46875 45.15625 40.96875 
Q 51.609375 34.46875 51.609375 24.265625 
Q 51.609375 14.546875 45.953125 7.46875 
Q 39.0625 -1.21875 27.15625 -1.21875 
Q 17.390625 -1.21875 11.203125 4.25 
Q 5.03125 9.71875 4.15625 18.75 
z
" id="ArialMT-35"/>
      </defs>
      <g style="fill:#262626;" transform="translate(430.408594 290.877812)scale(0.1 -0.1)">
       <use xlink:href="#ArialMT-35"/>
       <use x="55.615234" xlink:href="#ArialMT-30"/>
       <use x="111.230469" xlink:href="#ArialMT-30"/>
      </g>
     </g>
    </g>
    <g id="xtick_7">
     <g id="line2d_7">
      <g>
       <use style="fill:#262626;stroke:#262626;" x="508.5" xlink:href="#m8115a877a0" y="270.72"/>
      </g>
     </g>
     <g id="text_7">
      <!-- 600 -->
      <defs>
       <path d="M 49.75 54.046875 
L 41.015625 53.375 
Q 39.84375 58.546875 37.703125 60.890625 
Q 34.125 64.65625 28.90625 64.65625 
Q 24.703125 64.65625 21.53125 62.3125 
Q 17.390625 59.28125 14.984375 53.46875 
Q 12.59375 47.65625 12.5 36.921875 
Q 15.671875 41.75 20.265625 44.09375 
Q 24.859375 46.4375 29.890625 46.4375 
Q 38.671875 46.4375 44.84375 39.96875 
Q 51.03125 33.5 51.03125 23.25 
Q 51.03125 16.5 48.125 10.71875 
Q 45.21875 4.9375 40.140625 1.859375 
Q 35.0625 -1.21875 28.609375 -1.21875 
Q 17.625 -1.21875 10.6875 6.859375 
Q 3.765625 14.9375 3.765625 33.5 
Q 3.765625 54.25 11.421875 63.671875 
Q 18.109375 71.875 29.4375 71.875 
Q 37.890625 71.875 43.28125 67.140625 
Q 48.6875 62.40625 49.75 54.046875 
z
M 13.875 23.1875 
Q 13.875 18.65625 15.796875 14.5 
Q 17.71875 10.359375 21.1875 8.171875 
Q 24.65625 6 28.46875 6 
Q 34.03125 6 38.03125 10.484375 
Q 42.046875 14.984375 42.046875 22.703125 
Q 42.046875 30.125 38.078125 34.390625 
Q 34.125 38.671875 28.125 38.671875 
Q 22.171875 38.671875 18.015625 34.390625 
Q 13.875 30.125 13.875 23.1875 
z
" id="ArialMT-36"/>
      </defs>
      <g style="fill:#262626;" transform="translate(500.158594 290.877812)scale(0.1 -0.1)">
       <use xlink:href="#ArialMT-36"/>
       <use x="55.615234" xlink:href="#ArialMT-30"/>
       <use x="111.230469" xlink:href="#ArialMT-30"/>
      </g>
     </g>
    </g>
    <g id="xtick_8">
     <g id="line2d_8">
      <g>
       <use style="fill:#262626;stroke:#262626;" x="578.25" xlink:href="#m8115a877a0" y="270.72"/>
      </g>
     </g>
     <g id="text_8">
      <!-- 700 -->
      <defs>
       <path d="M 4.734375 62.203125 
L 4.734375 70.65625 
L 51.078125 70.65625 
L 51.078125 63.8125 
Q 44.234375 56.546875 37.515625 44.484375 
Q 30.8125 32.421875 27.15625 19.671875 
Q 24.515625 10.6875 23.78125 0 
L 14.75 0 
Q 14.890625 8.453125 18.0625 20.40625 
Q 21.234375 32.375 27.171875 43.484375 
Q 33.109375 54.59375 39.796875 62.203125 
z
" id="ArialMT-37"/>
      </defs>
      <g style="fill:#262626;" transform="translate(569.908594 290.877812)scale(0.1 -0.1)">
       <use xlink:href="#ArialMT-37"/>
       <use x="55.615234" xlink:href="#ArialMT-30"/>
       <use x="111.230469" xlink:href="#ArialMT-30"/>
      </g>
     </g>
    </g>
    <g id="xtick_9">
     <g id="line2d_9">
      <g>
       <use style="fill:#262626;stroke:#262626;" x="648" xlink:href="#m8115a877a0" y="270.72"/>
      </g>
     </g>
     <g id="text_9">
      <!-- 800 -->
      <defs>
       <path d="M 17.671875 38.8125 
Q 12.203125 40.828125 9.5625 44.53125 
Q 6.9375 48.25 6.9375 53.421875 
Q 6.9375 61.234375 12.546875 66.546875 
Q 18.171875 71.875 27.484375 71.875 
Q 36.859375 71.875 42.578125 66.421875 
Q 48.296875 60.984375 48.296875 53.171875 
Q 48.296875 48.1875 45.671875 44.5 
Q 43.0625 40.828125 37.75 38.8125 
Q 44.34375 36.671875 47.78125 31.875 
Q 51.21875 27.09375 51.21875 20.453125 
Q 51.21875 11.28125 44.71875 5.03125 
Q 38.234375 -1.21875 27.640625 -1.21875 
Q 17.046875 -1.21875 10.546875 5.046875 
Q 4.046875 11.328125 4.046875 20.703125 
Q 4.046875 27.6875 7.59375 32.390625 
Q 11.140625 37.109375 17.671875 38.8125 
z
M 15.921875 53.71875 
Q 15.921875 48.640625 19.1875 45.40625 
Q 22.46875 42.1875 27.6875 42.1875 
Q 32.765625 42.1875 36.015625 45.375 
Q 39.265625 48.578125 39.265625 53.21875 
Q 39.265625 58.0625 35.90625 61.359375 
Q 32.5625 64.65625 27.59375 64.65625 
Q 22.5625 64.65625 19.234375 61.421875 
Q 15.921875 58.203125 15.921875 53.71875 
z
M 13.09375 20.65625 
Q 13.09375 16.890625 14.875 13.375 
Q 16.65625 9.859375 20.171875 7.921875 
Q 23.6875 6 27.734375 6 
Q 34.03125 6 38.125 10.046875 
Q 42.234375 14.109375 42.234375 20.359375 
Q 42.234375 26.703125 38.015625 30.859375 
Q 33.796875 35.015625 27.4375 35.015625 
Q 21.234375 35.015625 17.15625 30.90625 
Q 13.09375 26.8125 13.09375 20.65625 
z
" id="ArialMT-38"/>
      </defs>
      <g style="fill:#262626;" transform="translate(639.658594 290.877812)scale(0.1 -0.1)">
       <use xlink:href="#ArialMT-38"/>
       <use x="55.615234" xlink:href="#ArialMT-30"/>
       <use x="111.230469" xlink:href="#ArialMT-30"/>
      </g>
     </g>
    </g>
   </g>
   <g id="matplotlib.axis_2">
    <g id="ytick_1">
     <g id="line2d_10">
      <defs>
       <path d="M 0 0 
L -6 0 
" id="md78a8b8600" style="stroke:#262626;"/>
      </defs>
      <g>
       <use style="fill:#262626;stroke:#262626;" x="90" xlink:href="#md78a8b8600" y="270.72"/>
      </g>
     </g>
     <g id="text_10">
      <!-- −0.20 -->
      <defs>
       <path d="M 52.828125 31.203125 
L 5.5625 31.203125 
L 5.5625 39.40625 
L 52.828125 39.40625 
z
" id="ArialMT-2212"/>
       <path d="M 9.078125 0 
L 9.078125 10.015625 
L 19.09375 10.015625 
L 19.09375 0 
z
" id="ArialMT-2e"/>
      </defs>
      <g style="fill:#262626;" transform="translate(51.698437 274.298906)scale(0.1 -0.1)">
       <use xlink:href="#ArialMT-2212"/>
       <use x="58.398438" xlink:href="#ArialMT-30"/>
       <use x="114.013672" xlink:href="#ArialMT-2e"/>
       <use x="141.796875" xlink:href="#ArialMT-32"/>
       <use x="197.412109" xlink:href="#ArialMT-30"/>
      </g>
     </g>
    </g>
    <g id="ytick_2">
     <g id="line2d_11">
      <g>
       <use style="fill:#262626;stroke:#262626;" x="90" xlink:href="#md78a8b8600" y="245.52"/>
      </g>
     </g>
     <g id="text_11">
      <!-- −0.15 -->
      <g style="fill:#262626;" transform="translate(51.698437 249.098906)scale(0.1 -0.1)">
       <use xlink:href="#ArialMT-2212"/>
       <use x="58.398438" xlink:href="#ArialMT-30"/>
       <use x="114.013672" xlink:href="#ArialMT-2e"/>
       <use x="141.796875" xlink:href="#ArialMT-31"/>
       <use x="197.412109" xlink:href="#ArialMT-35"/>
      </g>
     </g>
    </g>
    <g id="ytick_3">
     <g id="line2d_12">
      <g>
       <use style="fill:#262626;stroke:#262626;" x="90" xlink:href="#md78a8b8600" y="220.32"/>
      </g>
     </g>
     <g id="text_12">
      <!-- −0.10 -->
      <g style="fill:#262626;" transform="translate(51.698437 223.898906)scale(0.1 -0.1)">
       <use xlink:href="#ArialMT-2212"/>
       <use x="58.398438" xlink:href="#ArialMT-30"/>
       <use x="114.013672" xlink:href="#ArialMT-2e"/>
       <use x="141.796875" xlink:href="#ArialMT-31"/>
       <use x="197.412109" xlink:href="#ArialMT-30"/>
      </g>
     </g>
    </g>
    <g id="ytick_4">
     <g id="line2d_13">
      <g>
       <use style="fill:#262626;stroke:#262626;" x="90" xlink:href="#md78a8b8600" y="195.12"/>
      </g>
     </g>
     <g id="text_13">
      <!-- −0.05 -->
      <g style="fill:#262626;" transform="translate(51.698437 198.698906)scale(0.1 -0.1)">
       <use xlink:href="#ArialMT-2212"/>
       <use x="58.398438" xlink:href="#ArialMT-30"/>
       <use x="114.013672" xlink:href="#ArialMT-2e"/>
       <use x="141.796875" xlink:href="#ArialMT-30"/>
       <use x="197.412109" xlink:href="#ArialMT-35"/>
      </g>
     </g>
    </g>
    <g id="ytick_5">
     <g id="line2d_14">
      <g>
       <use style="fill:#262626;stroke:#262626;" x="90" xlink:href="#md78a8b8600" y="169.92"/>
      </g>
     </g>
     <g id="text_14">
      <!-- 0.00 -->
      <g style="fill:#262626;" transform="translate(57.539062 173.498906)scale(0.1 -0.1)">
       <use xlink:href="#ArialMT-30"/>
       <use x="55.615234" xlink:href="#ArialMT-2e"/>
       <use x="83.398438" xlink:href="#ArialMT-30"/>
       <use x="139.013672" xlink:href="#ArialMT-30"/>
      </g>
     </g>
    </g>
    <g id="ytick_6">
     <g id="line2d_15">
      <g>
       <use style="fill:#262626;stroke:#262626;" x="90" xlink:href="#md78a8b8600" y="144.72"/>
      </g>
     </g>
     <g id="text_15">
      <!-- 0.05 -->
      <g style="fill:#262626;" transform="translate(57.539062 148.298906)scale(0.1 -0.1)">
       <use xlink:href="#ArialMT-30"/>
       <use x="55.615234" xlink:href="#ArialMT-2e"/>
       <use x="83.398438" xlink:href="#ArialMT-30"/>
       <use x="139.013672" xlink:href="#ArialMT-35"/>
      </g>
     </g>
    </g>
    <g id="ytick_7">
     <g id="line2d_16">
      <g>
       <use style="fill:#262626;stroke:#262626;" x="90" xlink:href="#md78a8b8600" y="119.52"/>
      </g>
     </g>
     <g id="text_16">
      <!-- 0.10 -->
      <g style="fill:#262626;" transform="translate(57.539062 123.098906)scale(0.1 -0.1)">
       <use xlink:href="#ArialMT-30"/>
       <use x="55.615234" xlink:href="#ArialMT-2e"/>
       <use x="83.398438" xlink:href="#ArialMT-31"/>
       <use x="139.013672" xlink:href="#ArialMT-30"/>
      </g>
     </g>
    </g>
    <g id="ytick_8">
     <g id="line2d_17">
      <g>
       <use style="fill:#262626;stroke:#262626;" x="90" xlink:href="#md78a8b8600" y="94.32"/>
      </g>
     </g>
     <g id="text_17">
      <!-- 0.15 -->
      <g style="fill:#262626;" transform="translate(57.539062 97.898906)scale(0.1 -0.1)">
       <use xlink:href="#ArialMT-30"/>
       <use x="55.615234" xlink:href="#ArialMT-2e"/>
       <use x="83.398438" xlink:href="#ArialMT-31"/>
       <use x="139.013672" xlink:href="#ArialMT-35"/>
      </g>
     </g>
    </g>
    <g id="ytick_9">
     <g id="line2d_18">
      <g>
       <use style="fill:#262626;stroke:#262626;" x="90" xlink:href="#md78a8b8600" y="69.12"/>
      </g>
     </g>
     <g id="text_18">
      <!-- 0.20 -->
      <g style="fill:#262626;" transform="translate(57.539062 72.698906)scale(0.1 -0.1)">
       <use xlink:href="#ArialMT-30"/>
       <use x="55.615234" xlink:href="#ArialMT-2e"/>
       <use x="83.398438" xlink:href="#ArialMT-32"/>
       <use x="139.013672" xlink:href="#ArialMT-30"/>
      </g>
     </g>
    </g>
   </g>
   <g id="PolyCollection_1">
    <path clip-path="url(#pdeb0260378)" d="M 90 172.085562 
L 90 169.92 
L 90.6975 169.92 
L 91.395 169.92 
L 92.0925 169.92 
L 92.79 169.92 
L 93.4875 169.92 
L 94.185 169.92 
L 94.8825 169.92 
L 95.58 169.92 
L 96.2775 169.92 
L 96.975 169.92 
L 97.6725 169.92 
L 98.37 169.92 
L 99.0675 169.92 
L 99.765 169.92 
L 100.4625 169.92 
L 101.16 169.92 
L 101.8575 169.92 
L 102.555 169.92 
L 103.2525 169.92 
L 103.95 169.92 
L 104.6475 169.92 
L 105.345 169.92 
L 106.0425 169.92 
L 106.74 169.92 
L 107.4375 169.92 
L 108.135 169.92 
L 108.8325 169.92 
L 109.53 169.92 
L 110.2275 169.92 
L 110.925 169.92 
L 111.6225 169.92 
L 112.32 169.92 
L 113.0175 169.92 
L 113.715 169.92 
L 114.4125 169.92 
L 115.11 169.92 
L 115.8075 169.92 
L 116.505 169.92 
L 117.2025 169.92 
L 117.9 169.92 
L 118.5975 169.92 
L 119.295 169.92 
L 119.9925 169.92 
L 120.69 169.92 
L 121.3875 169.92 
L 122.085 169.92 
L 122.7825 169.92 
L 123.48 169.92 
L 124.1775 169.92 
L 124.875 169.92 
L 125.5725 169.92 
L 126.27 169.92 
L 126.9675 169.92 
L 127.665 169.92 
L 128.3625 169.92 
L 129.06 169.92 
L 129.7575 169.92 
L 130.455 169.92 
L 131.1525 169.92 
L 131.85 169.92 
L 132.5475 169.92 
L 133.245 169.92 
L 133.9425 169.92 
L 134.64 169.92 
L 135.3375 169.92 
L 136.035 169.92 
L 136.7325 169.92 
L 137.43 169.92 
L 138.1275 169.92 
L 138.825 169.92 
L 139.5225 169.92 
L 140.22 169.92 
L 140.9175 169.92 
L 141.615 169.92 
L 142.3125 169.92 
L 143.01 169.92 
L 143.7075 169.92 
L 144.405 169.92 
L 145.1025 169.92 
L 145.8 169.92 
L 146.4975 169.92 
L 147.195 169.92 
L 147.8925 169.92 
L 148.59 169.92 
L 149.2875 169.92 
L 149.985 169.92 
L 150.6825 169.92 
L 151.38 169.92 
L 152.0775 169.92 
L 152.775 169.92 
L 153.4725 169.92 
L 154.17 169.92 
L 154.8675 169.92 
L 155.565 169.92 
L 156.2625 169.92 
L 156.96 169.92 
L 157.6575 169.92 
L 158.355 169.92 
L 159.0525 169.92 
L 159.75 169.92 
L 160.4475 169.92 
L 161.145 169.92 
L 161.8425 169.92 
L 162.54 169.92 
L 163.2375 169.92 
L 163.935 169.92 
L 164.6325 169.92 
L 165.33 169.92 
L 166.0275 169.92 
L 166.725 169.92 
L 167.4225 169.92 
L 168.12 169.92 
L 168.8175 169.92 
L 169.515 169.92 
L 170.2125 169.92 
L 170.91 169.92 
L 171.6075 169.92 
L 172.305 169.92 
L 173.0025 169.92 
L 173.7 169.92 
L 174.3975 169.92 
L 175.095 169.92 
L 175.7925 169.92 
L 176.49 169.92 
L 177.1875 169.92 
L 177.885 169.92 
L 178.5825 169.92 
L 179.28 169.92 
L 179.9775 169.92 
L 180.675 169.92 
L 181.3725 169.92 
L 182.07 169.92 
L 182.7675 169.92 
L 183.465 169.92 
L 184.1625 169.92 
L 184.86 169.92 
L 185.5575 169.92 
L 186.255 169.92 
L 186.9525 169.92 
L 187.65 169.92 
L 188.3475 169.92 
L 189.045 169.92 
L 189.7425 169.92 
L 190.44 169.92 
L 191.1375 169.92 
L 191.835 169.92 
L 192.5325 169.92 
L 193.23 169.92 
L 193.9275 169.92 
L 194.625 169.92 
L 195.3225 169.92 
L 196.02 169.92 
L 196.7175 169.92 
L 197.415 169.92 
L 198.1125 169.92 
L 198.81 169.92 
L 199.5075 169.92 
L 200.205 169.92 
L 200.9025 169.92 
L 201.6 169.92 
L 202.2975 169.92 
L 202.995 169.92 
L 203.6925 169.92 
L 204.39 169.92 
L 205.0875 169.92 
L 205.785 169.92 
L 206.4825 169.92 
L 207.18 169.92 
L 207.8775 169.92 
L 208.575 169.92 
L 209.2725 169.92 
L 209.97 169.92 
L 210.6675 169.92 
L 211.365 169.92 
L 212.0625 169.92 
L 212.76 169.92 
L 213.4575 169.92 
L 214.155 169.92 
L 214.8525 169.92 
L 215.55 169.92 
L 216.2475 169.92 
L 216.945 169.92 
L 217.6425 169.92 
L 218.34 169.92 
L 219.0375 169.92 
L 219.735 169.92 
L 220.4325 169.92 
L 221.13 169.92 
L 221.8275 169.92 
L 222.525 169.92 
L 223.2225 169.92 
L 223.92 169.92 
L 224.6175 169.92 
L 225.315 169.92 
L 226.0125 169.92 
L 226.71 169.92 
L 227.4075 169.92 
L 228.105 169.92 
L 228.8025 169.92 
L 229.5 169.92 
L 230.1975 169.92 
L 230.895 169.92 
L 231.5925 169.92 
L 232.29 169.92 
L 232.9875 169.92 
L 233.685 169.92 
L 234.3825 169.92 
L 235.08 169.92 
L 235.7775 169.92 
L 236.475 169.92 
L 237.1725 169.92 
L 237.87 169.92 
L 238.5675 169.92 
L 239.265 169.92 
L 239.9625 169.92 
L 240.66 169.92 
L 241.3575 169.92 
L 242.055 169.92 
L 242.7525 169.92 
L 243.45 169.92 
L 244.1475 169.92 
L 244.845 169.92 
L 245.5425 169.92 
L 246.24 169.92 
L 246.9375 169.92 
L 247.635 169.92 
L 248.3325 169.92 
L 249.03 169.92 
L 249.7275 169.92 
L 250.425 169.92 
L 251.1225 169.92 
L 251.82 169.92 
L 252.5175 169.92 
L 253.215 169.92 
L 253.9125 169.92 
L 254.61 169.92 
L 255.3075 169.92 
L 256.005 169.92 
L 256.7025 169.92 
L 257.4 169.92 
L 258.0975 169.92 
L 258.795 169.92 
L 259.4925 169.92 
L 260.19 169.92 
L 260.8875 169.92 
L 261.585 169.92 
L 262.2825 169.92 
L 262.98 169.92 
L 263.6775 169.92 
L 264.375 169.92 
L 265.0725 169.92 
L 265.77 169.92 
L 266.4675 169.92 
L 267.165 169.92 
L 267.8625 169.92 
L 268.56 169.92 
L 269.2575 169.92 
L 269.955 169.92 
L 270.6525 169.92 
L 271.35 169.92 
L 272.0475 169.92 
L 272.745 169.92 
L 273.4425 169.92 
L 274.14 169.92 
L 274.8375 169.92 
L 275.535 169.92 
L 276.2325 169.92 
L 276.93 169.92 
L 277.6275 169.92 
L 278.325 169.92 
L 279.0225 169.92 
L 279.72 169.92 
L 280.4175 169.92 
L 281.115 169.92 
L 281.8125 169.92 
L 282.51 169.92 
L 283.2075 169.92 
L 283.905 169.92 
L 284.6025 169.92 
L 285.3 169.92 
L 285.9975 169.92 
L 286.695 169.92 
L 287.3925 169.92 
L 288.09 169.92 
L 288.7875 169.92 
L 289.485 169.92 
L 290.1825 169.92 
L 290.88 169.92 
L 291.5775 169.92 
L 292.275 169.92 
L 292.9725 169.92 
L 293.67 169.92 
L 294.3675 169.92 
L 295.065 169.92 
L 295.7625 169.92 
L 296.46 169.92 
L 297.1575 169.92 
L 297.855 169.92 
L 298.5525 169.92 
L 299.25 169.92 
L 299.9475 169.92 
L 300.645 169.92 
L 301.3425 169.92 
L 302.04 169.92 
L 302.7375 169.92 
L 303.435 169.92 
L 304.1325 169.92 
L 304.83 169.92 
L 305.5275 169.92 
L 306.225 169.92 
L 306.9225 169.92 
L 307.62 169.92 
L 308.3175 169.92 
L 309.015 169.92 
L 309.7125 169.92 
L 310.41 169.92 
L 311.1075 169.92 
L 311.805 169.92 
L 312.5025 169.92 
L 313.2 169.92 
L 313.8975 169.92 
L 314.595 169.92 
L 315.2925 169.92 
L 315.99 169.92 
L 316.6875 169.92 
L 317.385 169.92 
L 318.0825 169.92 
L 318.78 169.92 
L 319.4775 169.92 
L 320.175 169.92 
L 320.8725 169.92 
L 321.57 169.92 
L 322.2675 169.92 
L 322.965 169.92 
L 323.6625 169.92 
L 324.36 169.92 
L 325.0575 169.92 
L 325.755 169.92 
L 326.4525 169.92 
L 327.15 169.92 
L 327.8475 169.92 
L 328.545 169.92 
L 329.2425 169.92 
L 329.94 169.92 
L 330.6375 169.92 
L 331.335 169.92 
L 332.0325 169.92 
L 332.73 169.92 
L 333.4275 169.92 
L 334.125 169.92 
L 334.8225 169.92 
L 335.52 169.92 
L 336.2175 169.92 
L 336.915 169.92 
L 337.6125 169.92 
L 338.31 169.92 
L 339.0075 169.92 
L 339.705 169.92 
L 340.4025 169.92 
L 341.1 169.92 
L 341.7975 169.92 
L 342.495 169.92 
L 343.1925 169.92 
L 343.89 169.92 
L 344.5875 169.92 
L 345.285 169.92 
L 345.9825 169.92 
L 346.68 169.92 
L 347.3775 169.92 
L 348.075 169.92 
L 348.7725 169.92 
L 349.47 169.92 
L 350.1675 169.92 
L 350.865 169.92 
L 351.5625 169.92 
L 352.26 169.92 
L 352.9575 169.92 
L 353.655 169.92 
L 354.3525 169.92 
L 355.05 169.92 
L 355.7475 169.92 
L 356.445 169.92 
L 357.1425 169.92 
L 357.84 169.92 
L 358.5375 169.92 
L 359.235 169.92 
L 359.9325 169.92 
L 360.63 169.92 
L 361.3275 169.92 
L 362.025 169.92 
L 362.7225 169.92 
L 363.42 169.92 
L 364.1175 169.92 
L 364.815 169.92 
L 365.5125 169.92 
L 366.21 169.92 
L 366.9075 169.92 
L 367.605 169.92 
L 368.3025 169.92 
L 369 169.92 
L 369.6975 169.92 
L 370.395 169.92 
L 371.0925 169.92 
L 371.79 169.92 
L 372.4875 169.92 
L 373.185 169.92 
L 373.8825 169.92 
L 374.58 169.92 
L 375.2775 169.92 
L 375.975 169.92 
L 376.6725 169.92 
L 377.37 169.92 
L 378.0675 169.92 
L 378.765 169.92 
L 379.4625 169.92 
L 380.16 169.92 
L 380.8575 169.92 
L 381.555 169.92 
L 382.2525 169.92 
L 382.95 169.92 
L 383.6475 169.92 
L 384.345 169.92 
L 385.0425 169.92 
L 385.74 169.92 
L 386.4375 169.92 
L 387.135 169.92 
L 387.8325 169.92 
L 388.53 169.92 
L 389.2275 169.92 
L 389.925 169.92 
L 390.6225 169.92 
L 391.32 169.92 
L 392.0175 169.92 
L 392.715 169.92 
L 393.4125 169.92 
L 394.11 169.92 
L 394.8075 169.92 
L 395.505 169.92 
L 396.2025 169.92 
L 396.9 169.92 
L 397.5975 169.92 
L 398.295 169.92 
L 398.9925 169.92 
L 399.69 169.92 
L 400.3875 169.92 
L 401.085 169.92 
L 401.7825 169.92 
L 402.48 169.92 
L 403.1775 169.92 
L 403.875 169.92 
L 404.5725 169.92 
L 405.27 169.92 
L 405.9675 169.92 
L 406.665 169.92 
L 407.3625 169.92 
L 408.06 169.92 
L 408.7575 169.92 
L 409.455 169.92 
L 410.1525 169.92 
L 410.85 169.92 
L 411.5475 169.92 
L 412.245 169.92 
L 412.9425 169.92 
L 413.64 169.92 
L 414.3375 169.92 
L 415.035 169.92 
L 415.7325 169.92 
L 416.43 169.92 
L 417.1275 169.92 
L 417.825 169.92 
L 418.5225 169.92 
L 419.22 169.92 
L 419.9175 169.92 
L 420.615 169.92 
L 421.3125 169.92 
L 422.01 169.92 
L 422.7075 169.92 
L 423.405 169.92 
L 424.1025 169.92 
L 424.8 169.92 
L 425.4975 169.92 
L 426.195 169.92 
L 426.8925 169.92 
L 427.59 169.92 
L 428.2875 169.92 
L 428.985 169.92 
L 429.6825 169.92 
L 430.38 169.92 
L 431.0775 169.92 
L 431.775 169.92 
L 432.4725 169.92 
L 433.17 169.92 
L 433.8675 169.92 
L 434.565 169.92 
L 435.2625 169.92 
L 435.96 169.92 
L 436.6575 169.92 
L 437.355 169.92 
L 438.0525 169.92 
L 438.75 169.92 
L 439.4475 169.92 
L 440.145 169.92 
L 440.8425 169.92 
L 441.54 169.92 
L 442.2375 169.92 
L 442.935 169.92 
L 443.6325 169.92 
L 444.33 169.92 
L 445.0275 169.92 
L 445.725 169.92 
L 446.4225 169.92 
L 447.12 169.92 
L 447.8175 169.92 
L 448.515 169.92 
L 449.2125 169.92 
L 449.91 169.92 
L 450.6075 169.92 
L 451.305 169.92 
L 452.0025 169.92 
L 452.7 169.92 
L 453.3975 169.92 
L 454.095 169.92 
L 454.7925 169.92 
L 455.49 169.92 
L 456.1875 169.92 
L 456.885 169.92 
L 457.5825 169.92 
L 458.28 169.92 
L 458.9775 169.92 
L 459.675 169.92 
L 460.3725 169.92 
L 461.07 169.92 
L 461.7675 169.92 
L 462.465 169.92 
L 463.1625 169.92 
L 463.86 169.92 
L 464.5575 169.92 
L 465.255 169.92 
L 465.9525 169.92 
L 466.65 169.92 
L 467.3475 169.92 
L 468.045 169.92 
L 468.7425 169.92 
L 469.44 169.92 
L 470.1375 169.92 
L 470.835 169.92 
L 471.5325 169.92 
L 472.23 169.92 
L 472.9275 169.92 
L 473.625 169.92 
L 474.3225 169.92 
L 475.02 169.92 
L 475.7175 169.92 
L 476.415 169.92 
L 477.1125 169.92 
L 477.81 169.92 
L 478.5075 169.92 
L 479.205 169.92 
L 479.9025 169.92 
L 480.6 169.92 
L 481.2975 169.92 
L 481.995 169.92 
L 482.6925 169.92 
L 483.39 169.92 
L 484.0875 169.92 
L 484.785 169.92 
L 485.4825 169.92 
L 486.18 169.92 
L 486.8775 169.92 
L 487.575 169.92 
L 488.2725 169.92 
L 488.97 169.92 
L 489.6675 169.92 
L 490.365 169.92 
L 491.0625 169.92 
L 491.76 169.92 
L 492.4575 169.92 
L 493.155 169.92 
L 493.8525 169.92 
L 494.55 169.92 
L 495.2475 169.92 
L 495.945 169.92 
L 496.6425 169.92 
L 497.34 169.92 
L 498.0375 169.92 
L 498.735 169.92 
L 499.4325 169.92 
L 500.13 169.92 
L 500.8275 169.92 
L 501.525 169.92 
L 502.2225 169.92 
L 502.92 169.92 
L 503.6175 169.92 
L 504.315 169.92 
L 505.0125 169.92 
L 505.71 169.92 
L 506.4075 169.92 
L 507.105 169.92 
L 507.8025 169.92 
L 508.5 169.92 
L 509.1975 169.92 
L 509.895 169.92 
L 510.5925 169.92 
L 511.29 169.92 
L 511.9875 169.92 
L 512.685 169.92 
L 513.3825 169.92 
L 514.08 169.92 
L 514.7775 169.92 
L 515.475 169.92 
L 516.1725 169.92 
L 516.87 169.92 
L 517.5675 169.92 
L 518.265 169.92 
L 518.9625 169.92 
L 519.66 169.92 
L 520.3575 169.92 
L 521.055 169.92 
L 521.7525 169.92 
L 522.45 169.92 
L 523.1475 169.92 
L 523.845 169.92 
L 524.5425 169.92 
L 525.24 169.92 
L 525.9375 169.92 
L 526.635 169.92 
L 527.3325 169.92 
L 528.03 169.92 
L 528.7275 169.92 
L 529.425 169.92 
L 530.1225 169.92 
L 530.82 169.92 
L 531.5175 169.92 
L 532.215 169.92 
L 532.9125 169.92 
L 533.61 169.92 
L 534.3075 169.92 
L 535.005 169.92 
L 535.7025 169.92 
L 536.4 169.92 
L 537.0975 169.92 
L 537.795 169.92 
L 538.4925 169.92 
L 539.19 169.92 
L 539.8875 169.92 
L 540.585 169.92 
L 541.2825 169.92 
L 541.98 169.92 
L 542.6775 169.92 
L 543.375 169.92 
L 544.0725 169.92 
L 544.77 169.92 
L 545.4675 169.92 
L 546.165 169.92 
L 546.8625 169.92 
L 547.56 169.92 
L 548.2575 169.92 
L 548.955 169.92 
L 549.6525 169.92 
L 550.35 169.92 
L 551.0475 169.92 
L 551.745 169.92 
L 552.4425 169.92 
L 553.14 169.92 
L 553.8375 169.92 
L 554.535 169.92 
L 555.2325 169.92 
L 555.93 169.92 
L 556.6275 169.92 
L 557.325 169.92 
L 558.0225 169.92 
L 558.72 169.92 
L 559.4175 169.92 
L 560.115 169.92 
L 560.8125 169.92 
L 561.51 169.92 
L 562.2075 169.92 
L 562.905 169.92 
L 563.6025 169.92 
L 564.3 169.92 
L 564.9975 169.92 
L 565.695 169.92 
L 566.3925 169.92 
L 567.09 169.92 
L 567.7875 169.92 
L 568.485 169.92 
L 569.1825 169.92 
L 569.88 169.92 
L 570.5775 169.92 
L 571.275 169.92 
L 571.9725 169.92 
L 572.67 169.92 
L 573.3675 169.92 
L 574.065 169.92 
L 574.7625 169.92 
L 575.46 169.92 
L 576.1575 169.92 
L 576.855 169.92 
L 577.5525 169.92 
L 578.25 169.92 
L 578.9475 169.92 
L 579.645 169.92 
L 580.3425 169.92 
L 581.04 169.92 
L 581.7375 169.92 
L 582.435 169.92 
L 583.1325 169.92 
L 583.83 169.92 
L 584.5275 169.92 
L 585.225 169.92 
L 585.9225 169.92 
L 586.62 169.92 
L 587.3175 169.92 
L 588.015 169.92 
L 588.7125 169.92 
L 589.41 169.92 
L 590.1075 169.92 
L 590.805 169.92 
L 591.5025 169.92 
L 592.2 169.92 
L 592.8975 169.92 
L 593.595 169.92 
L 594.2925 169.92 
L 594.99 169.92 
L 595.6875 169.92 
L 596.385 169.92 
L 597.0825 169.92 
L 597.78 169.92 
L 598.4775 169.92 
L 599.175 169.92 
L 599.8725 169.92 
L 600.57 169.92 
L 601.2675 169.92 
L 601.965 169.92 
L 602.6625 169.92 
L 603.36 169.92 
L 604.0575 169.92 
L 604.755 169.92 
L 605.4525 169.92 
L 606.15 169.92 
L 606.8475 169.92 
L 607.545 169.92 
L 608.2425 169.92 
L 608.94 169.92 
L 609.6375 169.92 
L 610.335 169.92 
L 611.0325 169.92 
L 611.73 169.92 
L 612.4275 169.92 
L 613.125 169.92 
L 613.8225 169.92 
L 614.52 169.92 
L 615.2175 169.92 
L 615.915 169.92 
L 616.6125 169.92 
L 617.31 169.92 
L 618.0075 169.92 
L 618.705 169.92 
L 619.4025 169.92 
L 620.1 169.92 
L 620.7975 169.92 
L 621.495 169.92 
L 622.1925 169.92 
L 622.89 169.92 
L 623.5875 169.92 
L 624.285 169.92 
L 624.9825 169.92 
L 625.68 169.92 
L 626.3775 169.92 
L 627.075 169.92 
L 627.7725 169.92 
L 628.47 169.92 
L 629.1675 169.92 
L 629.865 169.92 
L 630.5625 169.92 
L 631.26 169.92 
L 631.9575 169.92 
L 632.655 169.92 
L 633.3525 169.92 
L 634.05 169.92 
L 634.7475 169.92 
L 635.445 169.92 
L 636.1425 169.92 
L 636.84 169.92 
L 637.5375 169.92 
L 638.235 169.92 
L 638.9325 169.92 
L 639.63 169.92 
L 640.3275 169.92 
L 641.025 169.92 
L 641.7225 169.92 
L 642.42 169.92 
L 643.1175 169.92 
L 643.815 169.92 
L 644.5125 169.92 
L 645.21 169.92 
L 645.9075 169.92 
L 646.605 169.92 
L 646.605 169.92 
L 646.605 169.92 
L 645.9075 169.929053 
L 645.21 169.950121 
L 644.5125 169.98588 
L 643.815 170.038646 
L 643.1175 170.110321 
L 642.42 170.202341 
L 641.7225 170.315628 
L 641.025 170.450567 
L 640.3275 170.606974 
L 639.63 170.784093 
L 638.9325 170.980594 
L 638.235 171.194584 
L 637.5375 171.423632 
L 636.84 171.664804 
L 636.1425 171.91471 
L 635.445 172.169553 
L 634.7475 172.4252 
L 634.05 172.677246 
L 633.3525 172.9211 
L 632.655 173.152062 
L 631.9575 173.36541 
L 631.26 173.556494 
L 630.5625 173.720818 
L 629.865 173.854135 
L 629.1675 173.952525 
L 628.47 174.012485 
L 627.7725 174.030997 
L 627.075 174.005598 
L 626.3775 173.934442 
L 625.68 173.816347 
L 624.9825 173.650835 
L 624.285 173.438159 
L 623.5875 173.179321 
L 622.89 172.876071 
L 622.1925 172.530898 
L 621.495 172.147009 
L 620.7975 171.728291 
L 620.1 171.279266 
L 619.4025 170.80503 
L 618.705 170.311184 
L 618.0075 169.803756 
L 617.31 169.289111 
L 616.6125 168.773859 
L 615.915 168.264754 
L 615.2175 167.768593 
L 614.52 167.292105 
L 613.8225 166.841851 
L 613.125 166.424116 
L 612.4275 166.044808 
L 611.73 165.709361 
L 611.0325 165.422647 
L 610.335 165.188892 
L 609.6375 165.011602 
L 608.94 164.893507 
L 608.2425 164.836503 
L 607.545 164.841621 
L 606.8475 164.909 
L 606.15 165.037878 
L 605.4525 165.226595 
L 604.755 165.472615 
L 604.0575 165.772554 
L 603.36 166.122229 
L 602.6625 166.516716 
L 601.965 166.950421 
L 601.2675 167.417161 
L 600.57 167.91026 
L 599.8725 168.422641 
L 599.175 168.94694 
L 598.4775 169.475612 
L 597.78 170.001051 
L 597.0825 170.5157 
L 596.385 171.012172 
L 595.6875 171.483361 
L 594.99 171.92255 
L 594.2925 172.323515 
L 593.595 172.680623 
L 592.8975 172.988915 
L 592.2 173.244183 
L 591.5025 173.443036 
L 590.805 173.582951 
L 590.1075 173.662308 
L 589.41 173.680416 
L 588.7125 173.637523 
L 588.015 173.534809 
L 587.3175 173.374365 
L 586.62 173.159158 
L 585.9225 172.892985 
L 585.225 172.58041 
L 584.5275 172.22669 
L 583.83 171.837693 
L 583.1325 171.419801 
L 582.435 170.979814 
L 581.7375 170.524836 
L 581.04 170.062169 
L 580.3425 169.599194 
L 579.645 169.143256 
L 578.9475 168.701552 
L 578.25 168.281018 
L 577.5525 167.888222 
L 576.855 167.52926 
L 576.1575 167.209672 
L 575.46 166.934348 
L 574.7625 166.707466 
L 574.065 166.532422 
L 573.3675 166.411789 
L 572.67 166.347279 
L 571.9725 166.339724 
L 571.275 166.38907 
L 570.5775 166.494382 
L 569.88 166.65387 
L 569.1825 166.864921 
L 568.485 167.124151 
L 567.7875 167.427462 
L 567.09 167.770113 
L 566.3925 168.146806 
L 565.695 168.551769 
L 564.9975 168.978855 
L 564.3 169.421642 
L 563.6025 169.87354 
L 562.905 170.327895 
L 562.2075 170.778093 
L 561.51 171.217668 
L 560.8125 171.640403 
L 560.115 172.04042 
L 559.4175 172.412275 
L 558.72 172.751033 
L 558.0225 173.052344 
L 557.325 173.312499 
L 556.6275 173.528485 
L 555.93 173.698013 
L 555.2325 173.819553 
L 554.535 173.892335 
L 553.8375 173.916357 
L 553.14 173.892363 
L 552.4425 173.821821 
L 551.745 173.706882 
L 551.0475 173.550331 
L 550.35 173.355529 
L 549.6525 173.126341 
L 548.955 172.867065 
L 548.2575 172.582345 
L 547.56 172.277084 
L 546.8625 171.956358 
L 546.165 171.625322 
L 545.4675 171.289118 
L 544.77 170.952787 
L 544.0725 170.621179 
L 543.375 170.298877 
L 542.6775 169.990119 
L 541.98 169.69873 
L 541.2825 169.428062 
L 540.585 169.18095 
L 539.8875 168.959664 
L 539.19 168.765892 
L 538.4925 168.600715 
L 537.795 168.464607 
L 537.0975 168.357439 
L 536.4 168.278501 
L 535.7025 168.226528 
L 535.005 168.199741 
L 534.3075 168.195897 
L 533.61 168.212345 
L 532.9125 168.246092 
L 532.215 168.293875 
L 531.5175 168.352236 
L 530.82 168.417601 
L 530.1225 168.486361 
L 529.425 168.554955 
L 528.7275 168.619947 
L 528.03 168.678104 
L 527.3325 168.72647 
L 526.635 168.762431 
L 525.9375 168.783776 
L 525.24 168.788745 
L 524.5425 168.776079 
L 523.845 168.745045 
L 523.1475 168.69546 
L 522.45 168.627704 
L 521.7525 168.542716 
L 521.055 168.441984 
L 520.3575 168.32752 
L 519.66 168.201827 
L 518.9625 168.067853 
L 518.265 167.928937 
L 517.5675 167.788747 
L 516.87 167.65121 
L 516.1725 167.520434 
L 515.475 167.400629 
L 514.7775 167.296018 
L 514.08 167.210757 
L 513.3825 167.148841 
L 512.685 167.114025 
L 511.9875 167.109736 
L 511.29 167.139001 
L 510.5925 167.204369 
L 509.895 167.30785 
L 509.1975 167.45086 
L 508.5 167.63417 
L 507.8025 167.857876 
L 507.105 168.121373 
L 506.4075 168.423341 
L 505.71 168.76175 
L 505.0125 169.133869 
L 504.315 169.536296 
L 503.6175 169.964991 
L 502.92 170.415332 
L 502.2225 170.88217 
L 501.525 171.359904 
L 500.8275 171.842561 
L 500.13 172.323882 
L 499.4325 172.797418 
L 498.735 173.256629 
L 498.0375 173.694986 
L 497.34 174.106076 
L 496.6425 174.483707 
L 495.945 174.822008 
L 495.2475 175.115528 
L 494.55 175.35933 
L 493.8525 175.549076 
L 493.155 175.681107 
L 492.4575 175.752509 
L 491.76 175.76117 
L 491.0625 175.705826 
L 490.365 175.586093 
L 489.6675 175.402485 
L 488.97 175.156418 
L 488.2725 174.8502 
L 487.575 174.48701 
L 486.8775 174.070857 
L 486.18 173.60653 
L 485.4825 173.099536 
L 484.785 172.556021 
L 484.0875 171.982688 
L 483.39 171.386701 
L 482.6925 170.775578 
L 481.995 170.157088 
L 481.2975 169.539133 
L 480.6 168.929635 
L 479.9025 168.336415 
L 479.205 167.767082 
L 478.5075 167.228914 
L 477.81 166.728754 
L 477.1125 166.272909 
L 476.415 165.86705 
L 475.7175 165.516133 
L 475.02 165.224325 
L 474.3225 164.994941 
L 473.625 164.830394 
L 472.9275 164.732167 
L 472.23 164.700786 
L 471.5325 164.735821 
L 470.835 164.835889 
L 470.1375 164.998685 
L 469.44 165.221015 
L 468.7425 165.498854 
L 468.045 165.827406 
L 467.3475 166.20118 
L 466.65 166.614085 
L 465.9525 167.059517 
L 465.255 167.530468 
L 464.5575 168.019635 
L 463.86 168.519533 
L 463.1625 169.022611 
L 462.465 169.521369 
L 461.7675 170.008471 
L 461.07 170.476861 
L 460.3725 170.919863 
L 459.675 171.331286 
L 458.9775 171.705513 
L 458.28 172.037583 
L 457.5825 172.323261 
L 456.885 172.559098 
L 456.1875 172.742474 
L 455.49 172.871633 
L 454.7925 172.945696 
L 454.095 172.964669 
L 453.3975 172.929433 
L 452.7 172.841713 
L 452.0025 172.704046 
L 451.305 172.519729 
L 450.6075 172.292753 
L 449.91 172.027735 
L 449.2125 171.729831 
L 448.515 171.404648 
L 447.8175 171.058147 
L 447.12 170.696538 
L 446.4225 170.326179 
L 445.725 169.953471 
L 445.0275 169.584749 
L 444.33 169.226179 
L 443.6325 168.883663 
L 442.935 168.562742 
L 442.2375 168.268509 
L 441.54 168.005534 
L 440.8425 167.777795 
L 440.145 167.588619 
L 439.4475 167.440637 
L 438.75 167.335752 
L 438.0525 167.275115 
L 437.355 167.259123 
L 436.6575 167.287418 
L 435.96 167.358907 
L 435.2625 167.471797 
L 434.565 167.623629 
L 433.8675 167.811338 
L 433.17 168.031311 
L 432.4725 168.279461 
L 431.775 168.551303 
L 431.0775 168.842042 
L 430.38 169.146658 
L 429.6825 169.459999 
L 428.985 169.776875 
L 428.2875 170.092145 
L 427.59 170.400814 
L 426.8925 170.698113 
L 426.195 170.979581 
L 425.4975 171.241141 
L 424.8 171.479165 
L 424.1025 171.69053 
L 423.405 171.872666 
L 422.7075 172.023596 
L 422.01 172.141954 
L 421.3125 172.227005 
L 420.615 172.278642 
L 419.9175 172.29738 
L 419.22 172.284334 
L 418.5225 172.241182 
L 417.825 172.170129 
L 417.1275 172.073849 
L 416.43 171.955428 
L 415.7325 171.818296 
L 415.035 171.666152 
L 414.3375 171.502886 
L 413.64 171.332497 
L 412.9425 171.159012 
L 412.245 170.986403 
L 411.5475 170.818503 
L 410.85 170.658934 
L 410.1525 170.511025 
L 409.455 170.377753 
L 408.7575 170.261677 
L 408.06 170.16489 
L 407.3625 170.088972 
L 406.665 170.034965 
L 405.9675 170.003343 
L 405.27 169.994007 
L 404.5725 170.006285 
L 403.875 170.038946 
L 403.1775 170.090221 
L 402.48 170.157837 
L 401.7825 170.239068 
L 401.085 170.330783 
L 400.3875 170.42951 
L 399.69 170.531509 
L 398.9925 170.632845 
L 398.295 170.729472 
L 397.5975 170.817313 
L 396.9 170.892349 
L 396.2025 170.950703 
L 395.505 170.988723 
L 394.8075 171.003068 
L 394.11 170.990777 
L 393.4125 170.949348 
L 392.715 170.87679 
L 392.0175 170.771688 
L 391.32 170.63324 
L 390.6225 170.461293 
L 389.925 170.256365 
L 389.2275 170.019654 
L 388.53 169.753037 
L 387.8325 169.459057 
L 387.135 169.140891 
L 386.4375 168.802316 
L 385.74 168.447655 
L 385.0425 168.081716 
L 384.345 167.709726 
L 383.6475 167.337243 
L 382.95 166.970075 
L 382.2525 166.614186 
L 381.555 166.275595 
L 380.8575 165.96028 
L 380.16 165.674073 
L 379.4625 165.422562 
L 378.765 165.21099 
L 378.0675 165.044162 
L 377.37 164.926355 
L 376.6725 164.861237 
L 375.975 164.851793 
L 375.2775 164.900263 
L 374.58 165.008091 
L 373.8825 165.175882 
L 373.185 165.403382 
L 372.4875 165.689455 
L 371.79 166.032093 
L 371.0925 166.428428 
L 370.395 166.874756 
L 369.6975 167.366587 
L 369 167.898695 
L 368.3025 168.465187 
L 367.605 169.059583 
L 366.9075 169.674904 
L 366.21 170.303769 
L 365.5125 170.938501 
L 364.815 171.571237 
L 364.1175 172.194041 
L 363.42 172.799023 
L 362.7225 173.378454 
L 362.025 173.92488 
L 361.3275 174.431236 
L 360.63 174.890949 
L 359.9325 175.29804 
L 359.235 175.64721 
L 358.5375 175.933929 
L 357.84 176.154494 
L 357.1425 176.306096 
L 356.445 176.386857 
L 355.7475 176.395859 
L 355.05 176.333164 
L 354.3525 176.199807 
L 353.655 175.997784 
L 352.9575 175.730024 
L 352.26 175.400341 
L 351.5625 175.013378 
L 350.865 174.57454 
L 350.1675 174.089906 
L 349.47 173.566143 
L 348.7725 173.010405 
L 348.075 172.430223 
L 347.3775 171.833392 
L 346.68 171.227858 
L 345.9825 170.621598 
L 345.285 170.022501 
L 344.5875 169.438252 
L 343.89 168.876223 
L 343.1925 168.343364 
L 342.495 167.846101 
L 341.7975 167.390251 
L 341.1 166.980941 
L 340.4025 166.622532 
L 339.705 166.318574 
L 339.0075 166.071753 
L 338.31 165.883867 
L 337.6125 165.75581 
L 336.915 165.687571 
L 336.2175 165.678247 
L 335.52 165.726075 
L 334.8225 165.828465 
L 334.125 165.982063 
L 333.4275 166.182808 
L 332.73 166.426015 
L 332.0325 166.706454 
L 331.335 167.018449 
L 330.6375 167.35597 
L 329.94 167.712741 
L 329.2425 168.082343 
L 328.545 168.458324 
L 327.8475 168.834302 
L 327.15 169.204067 
L 326.4525 169.561686 
L 325.755 169.901588 
L 325.0575 170.218656 
L 324.36 170.508298 
L 323.6625 170.766519 
L 322.965 170.989974 
L 322.2675 171.176011 
L 321.57 171.322705 
L 320.8725 171.428873 
L 320.175 171.494084 
L 319.4775 171.518648 
L 318.78 171.503596 
L 318.0825 171.450649 
L 317.385 171.362175 
L 316.6875 171.241131 
L 315.99 171.091001 
L 315.2925 170.915724 
L 314.595 170.719614 
L 313.8975 170.507274 
L 313.2 170.283508 
L 312.5025 170.053228 
L 311.805 169.821365 
L 311.1075 169.592775 
L 310.41 169.372151 
L 309.7125 169.163939 
L 309.015 168.97226 
L 308.3175 168.800835 
L 307.62 168.652924 
L 306.9225 168.531269 
L 306.225 168.438052 
L 305.5275 168.37486 
L 304.83 168.342663 
L 304.1325 168.341803 
L 303.435 168.371996 
L 302.7375 168.432346 
L 302.04 168.521369 
L 301.3425 168.637027 
L 300.645 168.776775 
L 299.9475 168.937614 
L 299.25 169.116158 
L 298.5525 169.3087 
L 297.855 169.511288 
L 297.1575 169.719808 
L 296.46 169.930062 
L 295.7625 170.137857 
L 295.065 170.339083 
L 294.3675 170.529799 
L 293.67 170.706308 
L 292.9725 170.865231 
L 292.275 171.003576 
L 291.5775 171.118791 
L 290.88 171.208824 
L 290.1825 171.272154 
L 289.485 171.307829 
L 288.7875 171.315485 
L 288.09 171.295348 
L 287.3925 171.24824 
L 286.695 171.175558 
L 285.9975 171.07925 
L 285.3 170.96178 
L 284.6025 170.826078 
L 283.905 170.675488 
L 283.2075 170.513699 
L 282.51 170.344677 
L 281.8125 170.172587 
L 281.115 170.001709 
L 280.4175 169.836356 
L 279.72 169.680785 
L 279.0225 169.539114 
L 278.325 169.415235 
L 277.6275 169.312735 
L 276.93 169.234817 
L 276.2325 169.184236 
L 275.535 169.16323 
L 274.8375 169.173471 
L 274.14 169.216021 
L 273.4425 169.291298 
L 272.745 169.399057 
L 272.0475 169.538378 
L 271.35 169.707674 
L 270.6525 169.9047 
L 269.955 170.126586 
L 269.2575 170.369875 
L 268.56 170.630571 
L 267.8625 170.904207 
L 267.165 171.185908 
L 266.4675 171.470476 
L 265.77 171.752474 
L 265.0725 172.02632 
L 264.375 172.286378 
L 263.6775 172.527063 
L 262.98 172.742936 
L 262.2825 172.928806 
L 261.585 173.079822 
L 260.8875 173.191568 
L 260.19 173.260146 
L 259.4925 173.282256 
L 258.795 173.255264 
L 258.0975 173.177264 
L 257.4 173.047123 
L 256.7025 172.864515 
L 256.005 172.62995 
L 255.3075 172.344778 
L 254.61 172.011187 
L 253.9125 171.632182 
L 253.215 171.211558 
L 252.5175 170.75385 
L 251.82 170.264277 
L 251.1225 169.748674 
L 250.425 169.213408 
L 249.7275 168.665292 
L 249.03 168.111481 
L 248.3325 167.559375 
L 247.635 167.016502 
L 246.9375 166.490409 
L 246.24 165.988544 
L 245.5425 165.518145 
L 244.845 165.086129 
L 244.1475 164.698976 
L 243.45 164.362638 
L 242.7525 164.082436 
L 242.055 163.862976 
L 241.3575 163.708077 
L 240.66 163.620703 
L 239.9625 163.602915 
L 239.265 163.655833 
L 238.5675 163.779612 
L 237.87 163.973435 
L 237.1725 164.23552 
L 236.475 164.563137 
L 235.7775 164.952652 
L 235.08 165.399568 
L 234.3825 165.898594 
L 233.685 166.443716 
L 232.9875 167.028287 
L 232.29 167.645121 
L 231.5925 168.286596 
L 230.895 168.944767 
L 230.1975 169.611479 
L 229.5 170.278489 
L 228.8025 170.937581 
L 228.105 171.580687 
L 227.4075 172.200005 
L 226.71 172.788107 
L 226.0125 173.338048 
L 225.315 173.843459 
L 224.6175 174.298642 
L 223.92 174.698641 
L 223.2225 175.039312 
L 222.525 175.317374 
L 221.8275 175.530449 
L 221.13 175.677085 
L 220.4325 175.75677 
L 219.735 175.769926 
L 219.0375 175.717891 
L 218.34 175.602886 
L 217.6425 175.427969 
L 216.945 175.19698 
L 216.2475 174.914465 
L 215.55 174.585602 
L 214.8525 174.216109 
L 214.155 173.812149 
L 213.4575 173.380224 
L 212.76 172.927075 
L 212.0625 172.459569 
L 211.365 171.98459 
L 210.6675 171.508935 
L 209.97 171.039206 
L 209.2725 170.581711 
L 208.575 170.142371 
L 207.8775 169.726633 
L 207.18 169.339397 
L 206.4825 168.984944 
L 205.785 168.666886 
L 205.0875 168.388123 
L 204.39 168.150808 
L 203.6925 167.956336 
L 202.995 167.805337 
L 202.2975 167.697683 
L 201.6 167.632515 
L 200.9025 167.608273 
L 200.205 167.622743 
L 199.5075 167.673114 
L 198.81 167.75604 
L 198.1125 167.867721 
L 197.415 168.003973 
L 196.7175 168.160323 
L 196.02 168.332096 
L 195.3225 168.514504 
L 194.625 168.70274 
L 193.9275 168.892071 
L 193.23 169.077924 
L 192.5325 169.255967 
L 191.835 169.422195 
L 191.1375 169.572991 
L 190.44 169.705198 
L 189.7425 169.816164 
L 189.045 169.90379 
L 188.3475 169.96656 
L 187.65 170.003561 
L 186.9525 170.014492 
L 186.255 169.999662 
L 185.5575 169.959972 
L 184.86 169.896893 
L 184.1625 169.812426 
L 183.465 169.709056 
L 182.7675 169.589695 
L 182.07 169.457623 
L 181.3725 169.31641 
L 180.675 169.169845 
L 179.9775 169.021855 
L 179.28 168.876425 
L 178.5825 168.737508 
L 177.885 168.608951 
L 177.1875 168.49441 
L 176.49 168.397273 
L 175.7925 168.320591 
L 175.095 168.267015 
L 174.3975 168.238733 
L 173.7 168.237428 
L 173.0025 168.264237 
L 172.305 168.319723 
L 171.6075 168.40386 
L 170.91 168.516023 
L 170.2125 168.655001 
L 169.515 168.819008 
L 168.8175 169.005716 
L 168.12 169.212292 
L 167.4225 169.435448 
L 166.725 169.6715 
L 166.0275 169.916434 
L 165.33 170.165977 
L 164.6325 170.415683 
L 163.935 170.661006 
L 163.2375 170.897397 
L 162.54 171.12038 
L 161.8425 171.325646 
L 161.145 171.509133 
L 160.4475 171.667112 
L 159.75 171.796253 
L 159.0525 171.893704 
L 158.355 171.957146 
L 157.6575 171.984844 
L 156.96 171.975695 
L 156.2625 171.929251 
L 155.565 171.845746 
L 154.8675 171.726095 
L 154.17 171.571898 
L 153.4725 171.385414 
L 152.775 171.169536 
L 152.0775 170.927751 
L 151.38 170.664082 
L 150.6825 170.383033 
L 149.985 170.089509 
L 149.2875 169.788741 
L 148.59 169.486198 
L 147.8925 169.187492 
L 147.195 168.898286 
L 146.4975 168.624193 
L 145.8 168.370676 
L 145.1025 168.142954 
L 144.405 167.945904 
L 143.7075 167.783972 
L 143.01 167.661091 
L 142.3125 167.5806 
L 141.615 167.54518 
L 140.9175 167.556797 
L 140.22 167.616657 
L 139.5225 167.72517 
L 138.825 167.881931 
L 138.1275 168.085714 
L 137.43 168.334477 
L 136.7325 168.625385 
L 136.035 168.954838 
L 135.3375 169.318527 
L 134.64 169.711483 
L 133.9425 170.128156 
L 133.245 170.562491 
L 132.5475 171.008021 
L 131.85 171.457962 
L 131.1525 171.905323 
L 130.455 172.343006 
L 129.7575 172.763927 
L 129.06 173.161122 
L 128.3625 173.52786 
L 127.665 173.857754 
L 126.9675 174.144865 
L 126.27 174.383797 
L 125.5725 174.569794 
L 124.875 174.698814 
L 124.1775 174.767606 
L 123.48 174.773763 
L 122.7825 174.715772 
L 122.085 174.593046 
L 121.3875 174.405936 
L 120.69 174.155743 
L 119.9925 173.844698 
L 119.295 173.475942 
L 118.5975 173.053482 
L 117.9 172.582139 
L 117.2025 172.06748 
L 116.505 171.515738 
L 115.8075 170.933725 
L 115.11 170.328735 
L 114.4125 169.708432 
L 113.715 169.080744 
L 113.0175 168.453744 
L 112.32 167.835532 
L 111.6225 167.234115 
L 110.925 166.657292 
L 110.2275 166.112536 
L 109.53 165.606888 
L 108.8325 165.146853 
L 108.135 164.738304 
L 107.4375 164.386403 
L 106.74 164.09552 
L 106.0425 163.869179 
L 105.345 163.710009 
L 104.6475 163.619706 
L 103.95 163.59902 
L 103.2525 163.647744 
L 102.555 163.764729 
L 101.8575 163.947904 
L 101.16 164.194319 
L 100.4625 164.500192 
L 99.765 164.860974 
L 99.0675 165.271428 
L 98.37 165.725707 
L 97.6725 166.217454 
L 96.975 166.7399 
L 96.2775 167.285968 
L 95.58 167.848387 
L 94.8825 168.4198 
L 94.185 168.992874 
L 93.4875 169.560413 
L 92.79 170.115465 
L 92.0925 170.651414 
L 91.395 171.162085 
L 90.6975 171.641821 
L 90 172.085562 
z
" style="fill:#e0ffff;"/>
   </g>
   <g id="line2d_19">
    <path clip-path="url(#pdeb0260378)" d="M 90 172.085562 
L 92.0925 170.651414 
L 95.58 167.848387 
L 98.37 165.725707 
L 99.765 164.860974 
L 101.16 164.194319 
L 102.555 163.764729 
L 103.95 163.59902 
L 105.345 163.710009 
L 106.74 164.09552 
L 108.135 164.738304 
L 109.53 165.606888 
L 111.6225 167.234115 
L 117.9 172.582139 
L 119.295 173.475942 
L 120.69 174.155743 
L 122.085 174.593046 
L 123.48 174.773763 
L 124.875 174.698814 
L 126.27 174.383797 
L 127.665 173.857754 
L 129.7575 172.763927 
L 136.7325 168.625385 
L 138.1275 168.085714 
L 139.5225 167.72517 
L 140.9175 167.556797 
L 142.3125 167.5806 
L 143.7075 167.783972 
L 145.8 168.370676 
L 148.59 169.486198 
L 152.0775 170.927751 
L 154.17 171.571898 
L 156.2625 171.929251 
L 157.6575 171.984844 
L 159.75 171.796253 
L 161.8425 171.325646 
L 164.6325 170.415683 
L 168.8175 169.005716 
L 170.91 168.516023 
L 173.0025 168.264237 
L 175.095 168.267015 
L 177.1875 168.49441 
L 180.675 169.169845 
L 184.1625 169.812426 
L 186.255 169.999662 
L 188.3475 169.96656 
L 190.44 169.705198 
L 193.23 169.077924 
L 198.1125 167.867721 
L 200.205 167.622743 
L 201.6 167.632515 
L 202.995 167.805337 
L 204.39 168.150808 
L 205.785 168.666886 
L 207.8775 169.726633 
L 210.6675 171.508935 
L 214.155 173.812149 
L 216.2475 174.914465 
L 217.6425 175.427969 
L 219.0375 175.717891 
L 220.4325 175.75677 
L 221.8275 175.530449 
L 223.2225 175.039312 
L 224.6175 174.298642 
L 226.0125 173.338048 
L 228.105 171.580687 
L 234.3825 165.898594 
L 235.7775 164.952652 
L 237.1725 164.23552 
L 238.5675 163.779612 
L 239.9625 163.602915 
L 241.3575 163.708077 
L 242.7525 164.082436 
L 244.1475 164.698976 
L 245.5425 165.518145 
L 247.635 167.016502 
L 252.5175 170.75385 
L 254.61 172.011187 
L 256.005 172.62995 
L 257.4 173.047123 
L 258.795 173.255264 
L 260.19 173.260146 
L 261.585 173.079822 
L 263.6775 172.527063 
L 266.4675 171.470476 
L 269.955 170.126586 
L 272.0475 169.538378 
L 274.14 169.216021 
L 276.2325 169.184236 
L 278.325 169.415235 
L 281.115 170.001709 
L 285.3 170.96178 
L 287.3925 171.24824 
L 289.485 171.307829 
L 291.5775 171.118791 
L 293.67 170.706308 
L 297.1575 169.719808 
L 300.645 168.776775 
L 302.7375 168.432346 
L 304.83 168.342663 
L 306.9225 168.531269 
L 309.015 168.97226 
L 311.805 169.821365 
L 315.2925 170.915724 
L 317.385 171.362175 
L 319.4775 171.518648 
L 320.8725 171.428873 
L 322.2675 171.176011 
L 324.36 170.508298 
L 326.4525 169.561686 
L 332.73 166.426015 
L 334.125 165.982063 
L 335.52 165.726075 
L 336.915 165.687571 
L 338.31 165.883867 
L 339.705 166.318574 
L 341.1 166.980941 
L 342.495 167.846101 
L 344.5875 169.438252 
L 350.865 174.57454 
L 352.26 175.400341 
L 353.655 175.997784 
L 355.05 176.333164 
L 356.445 176.386857 
L 357.84 176.154494 
L 359.235 175.64721 
L 360.63 174.890949 
L 362.025 173.92488 
L 364.1175 172.194041 
L 369 167.898695 
L 371.0925 166.428428 
L 372.4875 165.689455 
L 373.8825 165.175882 
L 375.2775 164.900263 
L 376.6725 164.861237 
L 378.0675 165.044162 
L 379.4625 165.422562 
L 381.555 166.275595 
L 385.0425 168.081716 
L 387.8325 169.459057 
L 389.925 170.256365 
L 392.0175 170.771688 
L 394.11 170.990777 
L 396.2025 170.950703 
L 398.9925 170.632845 
L 403.1775 170.090221 
L 405.27 169.994007 
L 407.3625 170.088972 
L 409.455 170.377753 
L 412.245 170.986403 
L 416.43 171.955428 
L 418.5225 172.241182 
L 420.615 172.278642 
L 422.7075 172.023596 
L 424.8 171.479165 
L 426.8925 170.698113 
L 433.8675 167.811338 
L 435.96 167.358907 
L 437.355 167.259123 
L 438.75 167.335752 
L 440.145 167.588619 
L 442.2375 168.268509 
L 444.33 169.226179 
L 449.91 172.027735 
L 452.0025 172.704046 
L 453.3975 172.929433 
L 454.7925 172.945696 
L 456.1875 172.742474 
L 457.5825 172.323261 
L 458.9775 171.705513 
L 461.07 170.476861 
L 464.5575 168.019635 
L 466.65 166.614085 
L 468.7425 165.498854 
L 470.1375 164.998685 
L 471.5325 164.735821 
L 472.9275 164.732167 
L 474.3225 164.994941 
L 475.7175 165.516133 
L 477.1125 166.272909 
L 479.205 167.767082 
L 481.995 170.157088 
L 484.785 172.556021 
L 486.8775 174.070857 
L 488.2725 174.8502 
L 489.6675 175.402485 
L 491.0625 175.705826 
L 492.4575 175.752509 
L 493.8525 175.549076 
L 495.2475 175.115528 
L 496.6425 174.483707 
L 498.735 173.256629 
L 505.71 168.76175 
L 507.8025 167.857876 
L 509.1975 167.45086 
L 510.5925 167.204369 
L 512.685 167.114025 
L 514.7775 167.296018 
L 518.265 167.928937 
L 521.7525 168.542716 
L 524.5425 168.776079 
L 527.3325 168.72647 
L 535.7025 168.226528 
L 537.795 168.464607 
L 539.8875 168.959664 
L 541.98 169.69873 
L 544.77 170.952787 
L 548.955 172.867065 
L 551.0475 173.550331 
L 552.4425 173.821821 
L 553.8375 173.916357 
L 555.2325 173.819553 
L 556.6275 173.528485 
L 558.0225 173.052344 
L 560.115 172.04042 
L 562.905 170.327895 
L 566.3925 168.146806 
L 568.485 167.124151 
L 569.88 166.65387 
L 571.275 166.38907 
L 572.67 166.347279 
L 574.065 166.532422 
L 575.46 166.934348 
L 576.855 167.52926 
L 578.9475 168.701552 
L 585.225 172.58041 
L 586.62 173.159158 
L 588.015 173.534809 
L 589.41 173.680416 
L 590.805 173.582951 
L 592.2 173.244183 
L 593.595 172.680623 
L 594.99 171.92255 
L 597.0825 170.5157 
L 602.6625 166.516716 
L 604.0575 165.772554 
L 605.4525 165.226595 
L 606.8475 164.909 
L 608.2425 164.836503 
L 609.6375 165.011602 
L 611.0325 165.422647 
L 612.4275 166.044808 
L 614.52 167.292105 
L 618.0075 169.803756 
L 620.7975 171.728291 
L 622.89 172.876071 
L 624.285 173.438159 
L 625.68 173.816347 
L 627.075 174.005598 
L 628.47 174.012485 
L 629.865 173.854135 
L 631.9575 173.36541 
L 634.7475 172.4252 
L 638.9325 170.980594 
L 641.025 170.450567 
L 643.1175 170.110321 
L 645.9075 169.929053 
L 646.605 169.92 
L 646.605 169.92 
" style="fill:none;stroke:#008080;stroke-linecap:round;stroke-width:1.75;"/>
   </g>
   <g id="patch_3">
    <path d="M 90 270.72 
L 90 69.12 
" style="fill:none;stroke:#262626;stroke-linecap:square;stroke-linejoin:miter;stroke-width:1.25;"/>
   </g>
   <g id="patch_4">
    <path d="M 90 270.72 
L 648 270.72 
" style="fill:none;stroke:#262626;stroke-linecap:square;stroke-linejoin:miter;stroke-width:1.25;"/>
   </g>
  </g>
  <g id="axes_2">
   <g id="patch_5">
    <path d="M 90 512.64 
L 648 512.64 
L 648 311.04 
L 90 311.04 
z
" style="fill:#ffffff;"/>
   </g>
   <g id="matplotlib.axis_3">
    <g id="xtick_10">
     <g id="line2d_20">
      <g>
       <use style="fill:#262626;stroke:#262626;" x="191.454545" xlink:href="#m8115a877a0" y="512.64"/>
      </g>
     </g>
     <g id="text_19">
      <!-- 200 -->
      <g style="fill:#262626;" transform="translate(183.113139 532.797812)scale(0.1 -0.1)">
       <use xlink:href="#ArialMT-32"/>
       <use x="55.615234" xlink:href="#ArialMT-30"/>
       <use x="111.230469" xlink:href="#ArialMT-30"/>
      </g>
     </g>
    </g>
    <g id="xtick_11">
     <g id="line2d_21">
      <g>
       <use style="fill:#262626;stroke:#262626;" x="304.181818" xlink:href="#m8115a877a0" y="512.64"/>
      </g>
     </g>
     <g id="text_20">
      <!-- 400 -->
      <g style="fill:#262626;" transform="translate(295.840412 532.797812)scale(0.1 -0.1)">
       <use xlink:href="#ArialMT-34"/>
       <use x="55.615234" xlink:href="#ArialMT-30"/>
       <use x="111.230469" xlink:href="#ArialMT-30"/>
      </g>
     </g>
    </g>
    <g id="xtick_12">
     <g id="line2d_22">
      <g>
       <use style="fill:#262626;stroke:#262626;" x="416.909091" xlink:href="#m8115a877a0" y="512.64"/>
      </g>
     </g>
     <g id="text_21">
      <!-- 600 -->
      <g style="fill:#262626;" transform="translate(408.567685 532.797812)scale(0.1 -0.1)">
       <use xlink:href="#ArialMT-36"/>
       <use x="55.615234" xlink:href="#ArialMT-30"/>
       <use x="111.230469" xlink:href="#ArialMT-30"/>
      </g>
     </g>
    </g>
    <g id="xtick_13">
     <g id="line2d_23">
      <g>
       <use style="fill:#262626;stroke:#262626;" x="529.636364" xlink:href="#m8115a877a0" y="512.64"/>
      </g>
     </g>
     <g id="text_22">
      <!-- 800 -->
      <g style="fill:#262626;" transform="translate(521.294957 532.797812)scale(0.1 -0.1)">
       <use xlink:href="#ArialMT-38"/>
       <use x="55.615234" xlink:href="#ArialMT-30"/>
       <use x="111.230469" xlink:href="#ArialMT-30"/>
      </g>
     </g>
    </g>
    <g id="xtick_14">
     <g id="line2d_24">
      <g>
       <use style="fill:#262626;stroke:#262626;" x="642.363636" xlink:href="#m8115a877a0" y="512.64"/>
      </g>
     </g>
     <g id="text_23">
      <!-- 1000 -->
      <g style="fill:#262626;" transform="translate(631.241761 532.797812)scale(0.1 -0.1)">
       <use xlink:href="#ArialMT-31"/>
       <use x="55.615234" xlink:href="#ArialMT-30"/>
       <use x="111.230469" xlink:href="#ArialMT-30"/>
       <use x="166.845703" xlink:href="#ArialMT-30"/>
      </g>
     </g>
    </g>
   </g>
   <g id="matplotlib.axis_4">
    <g id="ytick_10">
     <g id="line2d_25">
      <g>
       <use style="fill:#262626;stroke:#262626;" x="90" xlink:href="#md78a8b8600" y="512.64"/>
      </g>
     </g>
     <g id="text_24">
      <!-- 0 -->
      <g style="fill:#262626;" transform="translate(71.439063 516.218906)scale(0.1 -0.1)">
       <use xlink:href="#ArialMT-30"/>
      </g>
     </g>
    </g>
    <g id="ytick_11">
     <g id="line2d_26">
      <g>
       <use style="fill:#262626;stroke:#262626;" x="90" xlink:href="#md78a8b8600" y="487.44"/>
      </g>
     </g>
     <g id="text_25">
      <!-- 5 -->
      <g style="fill:#262626;" transform="translate(71.439063 491.018906)scale(0.1 -0.1)">
       <use xlink:href="#ArialMT-35"/>
      </g>
     </g>
    </g>
    <g id="ytick_12">
     <g id="line2d_27">
      <g>
       <use style="fill:#262626;stroke:#262626;" x="90" xlink:href="#md78a8b8600" y="462.24"/>
      </g>
     </g>
     <g id="text_26">
      <!-- 10 -->
      <g style="fill:#262626;" transform="translate(65.878125 465.818906)scale(0.1 -0.1)">
       <use xlink:href="#ArialMT-31"/>
       <use x="55.615234" xlink:href="#ArialMT-30"/>
      </g>
     </g>
    </g>
    <g id="ytick_13">
     <g id="line2d_28">
      <g>
       <use style="fill:#262626;stroke:#262626;" x="90" xlink:href="#md78a8b8600" y="437.04"/>
      </g>
     </g>
     <g id="text_27">
      <!-- 15 -->
      <g style="fill:#262626;" transform="translate(65.878125 440.618906)scale(0.1 -0.1)">
       <use xlink:href="#ArialMT-31"/>
       <use x="55.615234" xlink:href="#ArialMT-35"/>
      </g>
     </g>
    </g>
    <g id="ytick_14">
     <g id="line2d_29">
      <g>
       <use style="fill:#262626;stroke:#262626;" x="90" xlink:href="#md78a8b8600" y="411.84"/>
      </g>
     </g>
     <g id="text_28">
      <!-- 20 -->
      <g style="fill:#262626;" transform="translate(65.878125 415.418906)scale(0.1 -0.1)">
       <use xlink:href="#ArialMT-32"/>
       <use x="55.615234" xlink:href="#ArialMT-30"/>
      </g>
     </g>
    </g>
    <g id="ytick_15">
     <g id="line2d_30">
      <g>
       <use style="fill:#262626;stroke:#262626;" x="90" xlink:href="#md78a8b8600" y="386.64"/>
      </g>
     </g>
     <g id="text_29">
      <!-- 25 -->
      <g style="fill:#262626;" transform="translate(65.878125 390.218906)scale(0.1 -0.1)">
       <use xlink:href="#ArialMT-32"/>
       <use x="55.615234" xlink:href="#ArialMT-35"/>
      </g>
     </g>
    </g>
    <g id="ytick_16">
     <g id="line2d_31">
      <g>
       <use style="fill:#262626;stroke:#262626;" x="90" xlink:href="#md78a8b8600" y="361.44"/>
      </g>
     </g>
     <g id="text_30">
      <!-- 30 -->
      <g style="fill:#262626;" transform="translate(65.878125 365.018906)scale(0.1 -0.1)">
       <use xlink:href="#ArialMT-33"/>
       <use x="55.615234" xlink:href="#ArialMT-30"/>
      </g>
     </g>
    </g>
    <g id="ytick_17">
     <g id="line2d_32">
      <g>
       <use style="fill:#262626;stroke:#262626;" x="90" xlink:href="#md78a8b8600" y="336.24"/>
      </g>
     </g>
     <g id="text_31">
      <!-- 35 -->
      <g style="fill:#262626;" transform="translate(65.878125 339.818906)scale(0.1 -0.1)">
       <use xlink:href="#ArialMT-33"/>
       <use x="55.615234" xlink:href="#ArialMT-35"/>
      </g>
     </g>
    </g>
    <g id="ytick_18">
     <g id="line2d_33">
      <g>
       <use style="fill:#262626;stroke:#262626;" x="90" xlink:href="#md78a8b8600" y="311.04"/>
      </g>
     </g>
     <g id="text_32">
      <!-- 40 -->
      <g style="fill:#262626;" transform="translate(65.878125 314.618906)scale(0.1 -0.1)">
       <use xlink:href="#ArialMT-34"/>
       <use x="55.615234" xlink:href="#ArialMT-30"/>
      </g>
     </g>
    </g>
   </g>
   <g id="line2d_34">
    <path clip-path="url(#p29a9803fc1)" d="M 90 488.562059 
L 95.636364 492.871917 
L 101.272727 491.915277 
L 106.909091 490.291312 
L 112.545455 492.192009 
L 118.181818 490.692663 
L 123.818182 490.203121 
L 129.454545 491.968658 
L 135.090909 490.163889 
L 140.727273 490.392837 
L 146.363636 490.241829 
L 152 489.156296 
L 157.636364 490.240305 
L 163.272727 490.645166 
L 168.909091 488.187222 
L 174.545455 488.633986 
L 180.181818 487.313077 
L 185.818182 487.018973 
L 191.454545 487.338343 
L 197.090909 486.121391 
L 202.727273 487.201243 
L 208.363636 484.042031 
L 214 483.157918 
L 219.636364 483.169266 
L 225.272727 482.846357 
L 230.909091 480.992047 
L 236.545455 479.145187 
L 242.181818 476.443916 
L 247.818182 475.314111 
L 253.454545 475.654125 
L 259.090909 473.305387 
L 264.727273 469.316541 
L 270.363636 463.226508 
L 276 459.185057 
L 281.636364 457.614718 
L 287.272727 454.794335 
L 292.909091 445.504843 
L 298.545455 423.732573 
L 304.181818 397.596726 
L 309.818182 374.961344 
L 315.454545 359.936381 
L 321.090909 350.604229 
L 326.727273 348.320806 
L 332.363636 355.280194 
L 338 371.866917 
L 343.636364 395.340341 
L 349.272727 419.997954 
L 354.909091 443.187999 
L 360.545455 460.277658 
L 366.181818 467.98198 
L 371.818182 471.852273 
L 377.454545 475.259843 
L 383.090909 478.489151 
L 388.727273 479.074231 
L 394.363636 476.894748 
L 400 474.552455 
L 405.636364 471.950812 
L 411.272727 468.681632 
L 416.909091 461.027911 
L 422.545455 441.166731 
L 428.181818 416.729328 
L 433.818182 392.840566 
L 439.454545 373.276917 
L 445.090909 358.526684 
L 450.727273 350.201791 
L 456.363636 350.555151 
L 462 360.822412 
L 467.636364 379.751599 
L 473.272727 402.879459 
L 478.909091 427.733924 
L 484.545455 450.40347 
L 490.181818 458.450826 
L 495.818182 461.938755 
L 501.454545 465.043265 
L 507.090909 468.053386 
L 512.727273 473.465468 
L 518.363636 478.295793 
L 524 480.590013 
L 529.636364 481.097259 
L 535.272727 482.252942 
L 540.909091 484.406434 
L 546.545455 486.952771 
L 552.181818 488.643123 
L 557.818182 489.036349 
L 563.454545 489.019669 
L 569.090909 489.199902 
L 574.727273 490.838322 
L 580.363636 491.689996 
L 586 492.993746 
L 591.636364 493.911524 
L 597.272727 494.461336 
" style="fill:none;stroke:#b22222;stroke-linecap:round;stroke-width:1.75;"/>
   </g>
   <g id="patch_6">
    <path d="M 90 512.64 
L 90 311.04 
" style="fill:none;stroke:#262626;stroke-linecap:square;stroke-linejoin:miter;stroke-width:1.25;"/>
   </g>
   <g id="patch_7">
    <path d="M 90 512.64 
L 648 512.64 
" style="fill:none;stroke:#262626;stroke-linecap:square;stroke-linejoin:miter;stroke-width:1.25;"/>
   </g>
   <g id="text_33">
    <!-- f = 920 Hz -->
    <defs>
     <path d="M 8.6875 0 
L 8.6875 45.015625 
L 0.921875 45.015625 
L 0.921875 51.859375 
L 8.6875 51.859375 
L 8.6875 57.375 
Q 8.6875 62.59375 9.625 65.140625 
Q 10.890625 68.5625 14.078125 70.671875 
Q 17.28125 72.796875 23.046875 72.796875 
Q 26.765625 72.796875 31.25 71.921875 
L 29.9375 64.265625 
Q 27.203125 64.75 24.75 64.75 
Q 20.75 64.75 19.09375 63.03125 
Q 17.4375 61.328125 17.4375 56.640625 
L 17.4375 51.859375 
L 27.546875 51.859375 
L 27.546875 45.015625 
L 17.4375 45.015625 
L 17.4375 0 
z
" id="ArialMT-66"/>
     <path id="ArialMT-20"/>
     <path d="M 52.828125 42.09375 
L 5.5625 42.09375 
L 5.5625 50.296875 
L 52.828125 50.296875 
z
M 52.828125 20.359375 
L 5.5625 20.359375 
L 5.5625 28.5625 
L 52.828125 28.5625 
z
" id="ArialMT-3d"/>
     <path d="M 5.46875 16.546875 
L 13.921875 17.328125 
Q 14.984375 11.375 18.015625 8.6875 
Q 21.046875 6 25.78125 6 
Q 29.828125 6 32.875 7.859375 
Q 35.9375 9.71875 37.890625 12.8125 
Q 39.84375 15.921875 41.15625 21.1875 
Q 42.484375 26.46875 42.484375 31.9375 
Q 42.484375 32.515625 42.4375 33.6875 
Q 39.796875 29.5 35.234375 26.875 
Q 30.671875 24.265625 25.34375 24.265625 
Q 16.453125 24.265625 10.296875 30.703125 
Q 4.15625 37.15625 4.15625 47.703125 
Q 4.15625 58.59375 10.578125 65.234375 
Q 17 71.875 26.65625 71.875 
Q 33.640625 71.875 39.421875 68.109375 
Q 45.21875 64.359375 48.21875 57.390625 
Q 51.21875 50.4375 51.21875 37.25 
Q 51.21875 23.53125 48.234375 15.40625 
Q 45.265625 7.28125 39.375 3.03125 
Q 33.5 -1.21875 25.59375 -1.21875 
Q 17.1875 -1.21875 11.859375 3.4375 
Q 6.546875 8.109375 5.46875 16.546875 
z
M 41.453125 48.140625 
Q 41.453125 55.71875 37.421875 60.15625 
Q 33.40625 64.59375 27.734375 64.59375 
Q 21.875 64.59375 17.53125 59.8125 
Q 13.1875 55.03125 13.1875 47.40625 
Q 13.1875 40.578125 17.3125 36.296875 
Q 21.4375 32.03125 27.484375 32.03125 
Q 33.59375 32.03125 37.515625 36.296875 
Q 41.453125 40.578125 41.453125 48.140625 
z
" id="ArialMT-39"/>
     <path d="M 8.015625 0 
L 8.015625 71.578125 
L 17.484375 71.578125 
L 17.484375 42.1875 
L 54.6875 42.1875 
L 54.6875 71.578125 
L 64.15625 71.578125 
L 64.15625 0 
L 54.6875 0 
L 54.6875 33.734375 
L 17.484375 33.734375 
L 17.484375 0 
z
" id="ArialMT-48"/>
     <path d="M 1.953125 0 
L 1.953125 7.125 
L 34.96875 45.015625 
Q 29.34375 44.734375 25.046875 44.734375 
L 3.90625 44.734375 
L 3.90625 51.859375 
L 46.296875 51.859375 
L 46.296875 46.046875 
L 18.21875 13.140625 
L 12.796875 7.125 
Q 18.703125 7.5625 23.875 7.5625 
L 47.859375 7.5625 
L 47.859375 0 
z
" id="ArialMT-7a"/>
    </defs>
    <g style="fill:#262626;" transform="translate(529.636364 364.542187)scale(0.12 -0.12)">
     <use xlink:href="#ArialMT-66"/>
     <use x="27.783203" xlink:href="#ArialMT-20"/>
     <use x="55.566406" xlink:href="#ArialMT-3d"/>
     <use x="113.964844" xlink:href="#ArialMT-20"/>
     <use x="141.748047" xlink:href="#ArialMT-39"/>
     <use x="197.363281" xlink:href="#ArialMT-32"/>
     <use x="252.978516" xlink:href="#ArialMT-30"/>
     <use x="308.59375" xlink:href="#ArialMT-20"/>
     <use x="336.376953" xlink:href="#ArialMT-48"/>
     <use x="408.59375" xlink:href="#ArialMT-7a"/>
    </g>
   </g>
   <g id="PathCollection_1">
    <defs>
     <path d="M 0 3.5 
C 0.928211 3.5 1.81853 3.131218 2.474874 2.474874 
C 3.131218 1.81853 3.5 0.928211 3.5 0 
C 3.5 -0.928211 3.131218 -1.81853 2.474874 -2.474874 
C 1.81853 -3.131218 0.928211 -3.5 0 -3.5 
C -0.928211 -3.5 -1.81853 -3.131218 -2.474874 -2.474874 
C -3.131218 -1.81853 -3.5 -0.928211 -3.5 0 
C -3.5 0.928211 -3.131218 1.81853 -2.474874 2.474874 
C -1.81853 3.131218 -0.928211 3.5 0 3.5 
z
" id="mb927a0a682" style="stroke:#800000;stroke-width:0.3;"/>
    </defs>
    <g clip-path="url(#p29a9803fc1)">
     <use style="fill:#800000;stroke:#800000;stroke-width:0.3;" x="597.272727" xlink:href="#mb927a0a682" y="494.461336"/>
    </g>
   </g>
  </g>
 </g>
 <defs>
  <clipPath id="pdeb0260378">
   <rect height="201.6" width="558" x="90" y="69.12"/>
  </clipPath>
  <clipPath id="p29a9803fc1">
   <rect height="201.6" width="558" x="90" y="311.04"/>
  </clipPath>
 </defs>
</svg>
