<?xml version="1.0" encoding="utf-8" standalone="no"?>
<!DOCTYPE svg PUBLIC "-//W3C//DTD SVG 1.1//EN"
  "http://www.w3.org/Graphics/SVG/1.1/DTD/svg11.dtd">
<!-- Created with matplotlib (http://matplotlib.org/) -->
<svg height="576pt" version="1.1" viewBox="0 0 720 576" width="720pt" xmlns="http://www.w3.org/2000/svg" xmlns:xlink="http://www.w3.org/1999/xlink">
 <defs>
  <style type="text/css">
*{stroke-linecap:butt;stroke-linejoin:round;}
  </style>
 </defs>
 <g id="figure_1">
  <g id="patch_1">
   <path d="M 0 576 
L 720 576 
L 720 0 
L 0 0 
z
" style="fill:#ffffff;"/>
  </g>
  <g id="axes_1">
   <g id="patch_2">
    <path d="M 90 270.72 
L 648 270.72 
L 648 69.12 
L 90 69.12 
z
" style="fill:#ffffff;"/>
   </g>
   <g id="matplotlib.axis_1">
    <g id="xtick_1">
     <g id="line2d_1">
      <defs>
       <path d="M 0 0 
L 0 6 
" id="m5005b5959b" style="stroke:#262626;"/>
      </defs>
      <g>
       <use style="fill:#262626;stroke:#262626;" x="90" xlink:href="#m5005b5959b" y="270.72"/>
      </g>
     </g>
     <g id="text_1">
      <!-- 0 -->
      <defs>
       <path d="M 4.15625 35.296875 
Q 4.15625 48 6.765625 55.734375 
Q 9.375 63.484375 14.515625 67.671875 
Q 19.671875 71.875 27.484375 71.875 
Q 33.25 71.875 37.59375 69.546875 
Q 41.9375 67.234375 44.765625 62.859375 
Q 47.609375 58.5 49.21875 52.21875 
Q 50.828125 45.953125 50.828125 35.296875 
Q 50.828125 22.703125 48.234375 14.96875 
Q 45.65625 7.234375 40.5 3 
Q 35.359375 -1.21875 27.484375 -1.21875 
Q 17.140625 -1.21875 11.234375 6.203125 
Q 4.15625 15.140625 4.15625 35.296875 
z
M 13.1875 35.296875 
Q 13.1875 17.671875 17.3125 11.828125 
Q 21.4375 6 27.484375 6 
Q 33.546875 6 37.671875 11.859375 
Q 41.796875 17.71875 41.796875 35.296875 
Q 41.796875 52.984375 37.671875 58.78125 
Q 33.546875 64.59375 27.390625 64.59375 
Q 21.34375 64.59375 17.71875 59.46875 
Q 13.1875 52.9375 13.1875 35.296875 
z
" id="ArialMT-30"/>
      </defs>
      <g style="fill:#262626;" transform="translate(87.219531 290.877812)scale(0.1 -0.1)">
       <use xlink:href="#ArialMT-30"/>
      </g>
     </g>
    </g>
    <g id="xtick_2">
     <g id="line2d_2">
      <g>
       <use style="fill:#262626;stroke:#262626;" x="159.75" xlink:href="#m5005b5959b" y="270.72"/>
      </g>
     </g>
     <g id="text_2">
      <!-- 100 -->
      <defs>
       <path d="M 37.25 0 
L 28.46875 0 
L 28.46875 56 
Q 25.296875 52.984375 20.140625 49.953125 
Q 14.984375 46.921875 10.890625 45.40625 
L 10.890625 53.90625 
Q 18.265625 57.375 23.78125 62.296875 
Q 29.296875 67.234375 31.59375 71.875 
L 37.25 71.875 
z
" id="ArialMT-31"/>
      </defs>
      <g style="fill:#262626;" transform="translate(151.408594 290.877812)scale(0.1 -0.1)">
       <use xlink:href="#ArialMT-31"/>
       <use x="55.615234" xlink:href="#ArialMT-30"/>
       <use x="111.230469" xlink:href="#ArialMT-30"/>
      </g>
     </g>
    </g>
    <g id="xtick_3">
     <g id="line2d_3">
      <g>
       <use style="fill:#262626;stroke:#262626;" x="229.5" xlink:href="#m5005b5959b" y="270.72"/>
      </g>
     </g>
     <g id="text_3">
      <!-- 200 -->
      <defs>
       <path d="M 50.34375 8.453125 
L 50.34375 0 
L 3.03125 0 
Q 2.9375 3.171875 4.046875 6.109375 
Q 5.859375 10.9375 9.828125 15.625 
Q 13.8125 20.3125 21.34375 26.46875 
Q 33.015625 36.03125 37.109375 41.625 
Q 41.21875 47.21875 41.21875 52.203125 
Q 41.21875 57.421875 37.46875 61 
Q 33.734375 64.59375 27.734375 64.59375 
Q 21.390625 64.59375 17.578125 60.78125 
Q 13.765625 56.984375 13.71875 50.25 
L 4.6875 51.171875 
Q 5.609375 61.28125 11.65625 66.578125 
Q 17.71875 71.875 27.9375 71.875 
Q 38.234375 71.875 44.234375 66.15625 
Q 50.25 60.453125 50.25 52 
Q 50.25 47.703125 48.484375 43.546875 
Q 46.734375 39.40625 42.65625 34.8125 
Q 38.578125 30.21875 29.109375 22.21875 
Q 21.1875 15.578125 18.9375 13.203125 
Q 16.703125 10.84375 15.234375 8.453125 
z
" id="ArialMT-32"/>
      </defs>
      <g style="fill:#262626;" transform="translate(221.158594 290.877812)scale(0.1 -0.1)">
       <use xlink:href="#ArialMT-32"/>
       <use x="55.615234" xlink:href="#ArialMT-30"/>
       <use x="111.230469" xlink:href="#ArialMT-30"/>
      </g>
     </g>
    </g>
    <g id="xtick_4">
     <g id="line2d_4">
      <g>
       <use style="fill:#262626;stroke:#262626;" x="299.25" xlink:href="#m5005b5959b" y="270.72"/>
      </g>
     </g>
     <g id="text_4">
      <!-- 300 -->
      <defs>
       <path d="M 4.203125 18.890625 
L 12.984375 20.0625 
Q 14.5 12.59375 18.140625 9.296875 
Q 21.78125 6 27 6 
Q 33.203125 6 37.46875 10.296875 
Q 41.75 14.59375 41.75 20.953125 
Q 41.75 27 37.796875 30.921875 
Q 33.84375 34.859375 27.734375 34.859375 
Q 25.25 34.859375 21.53125 33.890625 
L 22.515625 41.609375 
Q 23.390625 41.5 23.921875 41.5 
Q 29.546875 41.5 34.03125 44.421875 
Q 38.53125 47.359375 38.53125 53.46875 
Q 38.53125 58.296875 35.25 61.46875 
Q 31.984375 64.65625 26.8125 64.65625 
Q 21.6875 64.65625 18.265625 61.421875 
Q 14.84375 58.203125 13.875 51.765625 
L 5.078125 53.328125 
Q 6.6875 62.15625 12.390625 67.015625 
Q 18.109375 71.875 26.609375 71.875 
Q 32.46875 71.875 37.390625 69.359375 
Q 42.328125 66.84375 44.9375 62.5 
Q 47.5625 58.15625 47.5625 53.265625 
Q 47.5625 48.640625 45.0625 44.828125 
Q 42.578125 41.015625 37.703125 38.765625 
Q 44.046875 37.3125 47.5625 32.6875 
Q 51.078125 28.078125 51.078125 21.140625 
Q 51.078125 11.765625 44.234375 5.25 
Q 37.40625 -1.265625 26.953125 -1.265625 
Q 17.53125 -1.265625 11.296875 4.34375 
Q 5.078125 9.96875 4.203125 18.890625 
z
" id="ArialMT-33"/>
      </defs>
      <g style="fill:#262626;" transform="translate(290.908594 290.877812)scale(0.1 -0.1)">
       <use xlink:href="#ArialMT-33"/>
       <use x="55.615234" xlink:href="#ArialMT-30"/>
       <use x="111.230469" xlink:href="#ArialMT-30"/>
      </g>
     </g>
    </g>
    <g id="xtick_5">
     <g id="line2d_5">
      <g>
       <use style="fill:#262626;stroke:#262626;" x="369" xlink:href="#m5005b5959b" y="270.72"/>
      </g>
     </g>
     <g id="text_5">
      <!-- 400 -->
      <defs>
       <path d="M 32.328125 0 
L 32.328125 17.140625 
L 1.265625 17.140625 
L 1.265625 25.203125 
L 33.9375 71.578125 
L 41.109375 71.578125 
L 41.109375 25.203125 
L 50.78125 25.203125 
L 50.78125 17.140625 
L 41.109375 17.140625 
L 41.109375 0 
z
M 32.328125 25.203125 
L 32.328125 57.46875 
L 9.90625 25.203125 
z
" id="ArialMT-34"/>
      </defs>
      <g style="fill:#262626;" transform="translate(360.658594 290.877812)scale(0.1 -0.1)">
       <use xlink:href="#ArialMT-34"/>
       <use x="55.615234" xlink:href="#ArialMT-30"/>
       <use x="111.230469" xlink:href="#ArialMT-30"/>
      </g>
     </g>
    </g>
    <g id="xtick_6">
     <g id="line2d_6">
      <g>
       <use style="fill:#262626;stroke:#262626;" x="438.75" xlink:href="#m5005b5959b" y="270.72"/>
      </g>
     </g>
     <g id="text_6">
      <!-- 500 -->
      <defs>
       <path d="M 4.15625 18.75 
L 13.375 19.53125 
Q 14.40625 12.796875 18.140625 9.390625 
Q 21.875 6 27.15625 6 
Q 33.5 6 37.890625 10.78125 
Q 42.28125 15.578125 42.28125 23.484375 
Q 42.28125 31 38.0625 35.34375 
Q 33.84375 39.703125 27 39.703125 
Q 22.75 39.703125 19.328125 37.765625 
Q 15.921875 35.84375 13.96875 32.765625 
L 5.71875 33.84375 
L 12.640625 70.609375 
L 48.25 70.609375 
L 48.25 62.203125 
L 19.671875 62.203125 
L 15.828125 42.96875 
Q 22.265625 47.46875 29.34375 47.46875 
Q 38.71875 47.46875 45.15625 40.96875 
Q 51.609375 34.46875 51.609375 24.265625 
Q 51.609375 14.546875 45.953125 7.46875 
Q 39.0625 -1.21875 27.15625 -1.21875 
Q 17.390625 -1.21875 11.203125 4.25 
Q 5.03125 9.71875 4.15625 18.75 
z
" id="ArialMT-35"/>
      </defs>
      <g style="fill:#262626;" transform="translate(430.408594 290.877812)scale(0.1 -0.1)">
       <use xlink:href="#ArialMT-35"/>
       <use x="55.615234" xlink:href="#ArialMT-30"/>
       <use x="111.230469" xlink:href="#ArialMT-30"/>
      </g>
     </g>
    </g>
    <g id="xtick_7">
     <g id="line2d_7">
      <g>
       <use style="fill:#262626;stroke:#262626;" x="508.5" xlink:href="#m5005b5959b" y="270.72"/>
      </g>
     </g>
     <g id="text_7">
      <!-- 600 -->
      <defs>
       <path d="M 49.75 54.046875 
L 41.015625 53.375 
Q 39.84375 58.546875 37.703125 60.890625 
Q 34.125 64.65625 28.90625 64.65625 
Q 24.703125 64.65625 21.53125 62.3125 
Q 17.390625 59.28125 14.984375 53.46875 
Q 12.59375 47.65625 12.5 36.921875 
Q 15.671875 41.75 20.265625 44.09375 
Q 24.859375 46.4375 29.890625 46.4375 
Q 38.671875 46.4375 44.84375 39.96875 
Q 51.03125 33.5 51.03125 23.25 
Q 51.03125 16.5 48.125 10.71875 
Q 45.21875 4.9375 40.140625 1.859375 
Q 35.0625 -1.21875 28.609375 -1.21875 
Q 17.625 -1.21875 10.6875 6.859375 
Q 3.765625 14.9375 3.765625 33.5 
Q 3.765625 54.25 11.421875 63.671875 
Q 18.109375 71.875 29.4375 71.875 
Q 37.890625 71.875 43.28125 67.140625 
Q 48.6875 62.40625 49.75 54.046875 
z
M 13.875 23.1875 
Q 13.875 18.65625 15.796875 14.5 
Q 17.71875 10.359375 21.1875 8.171875 
Q 24.65625 6 28.46875 6 
Q 34.03125 6 38.03125 10.484375 
Q 42.046875 14.984375 42.046875 22.703125 
Q 42.046875 30.125 38.078125 34.390625 
Q 34.125 38.671875 28.125 38.671875 
Q 22.171875 38.671875 18.015625 34.390625 
Q 13.875 30.125 13.875 23.1875 
z
" id="ArialMT-36"/>
      </defs>
      <g style="fill:#262626;" transform="translate(500.158594 290.877812)scale(0.1 -0.1)">
       <use xlink:href="#ArialMT-36"/>
       <use x="55.615234" xlink:href="#ArialMT-30"/>
       <use x="111.230469" xlink:href="#ArialMT-30"/>
      </g>
     </g>
    </g>
    <g id="xtick_8">
     <g id="line2d_8">
      <g>
       <use style="fill:#262626;stroke:#262626;" x="578.25" xlink:href="#m5005b5959b" y="270.72"/>
      </g>
     </g>
     <g id="text_8">
      <!-- 700 -->
      <defs>
       <path d="M 4.734375 62.203125 
L 4.734375 70.65625 
L 51.078125 70.65625 
L 51.078125 63.8125 
Q 44.234375 56.546875 37.515625 44.484375 
Q 30.8125 32.421875 27.15625 19.671875 
Q 24.515625 10.6875 23.78125 0 
L 14.75 0 
Q 14.890625 8.453125 18.0625 20.40625 
Q 21.234375 32.375 27.171875 43.484375 
Q 33.109375 54.59375 39.796875 62.203125 
z
" id="ArialMT-37"/>
      </defs>
      <g style="fill:#262626;" transform="translate(569.908594 290.877812)scale(0.1 -0.1)">
       <use xlink:href="#ArialMT-37"/>
       <use x="55.615234" xlink:href="#ArialMT-30"/>
       <use x="111.230469" xlink:href="#ArialMT-30"/>
      </g>
     </g>
    </g>
    <g id="xtick_9">
     <g id="line2d_9">
      <g>
       <use style="fill:#262626;stroke:#262626;" x="648" xlink:href="#m5005b5959b" y="270.72"/>
      </g>
     </g>
     <g id="text_9">
      <!-- 800 -->
      <defs>
       <path d="M 17.671875 38.8125 
Q 12.203125 40.828125 9.5625 44.53125 
Q 6.9375 48.25 6.9375 53.421875 
Q 6.9375 61.234375 12.546875 66.546875 
Q 18.171875 71.875 27.484375 71.875 
Q 36.859375 71.875 42.578125 66.421875 
Q 48.296875 60.984375 48.296875 53.171875 
Q 48.296875 48.1875 45.671875 44.5 
Q 43.0625 40.828125 37.75 38.8125 
Q 44.34375 36.671875 47.78125 31.875 
Q 51.21875 27.09375 51.21875 20.453125 
Q 51.21875 11.28125 44.71875 5.03125 
Q 38.234375 -1.21875 27.640625 -1.21875 
Q 17.046875 -1.21875 10.546875 5.046875 
Q 4.046875 11.328125 4.046875 20.703125 
Q 4.046875 27.6875 7.59375 32.390625 
Q 11.140625 37.109375 17.671875 38.8125 
z
M 15.921875 53.71875 
Q 15.921875 48.640625 19.1875 45.40625 
Q 22.46875 42.1875 27.6875 42.1875 
Q 32.765625 42.1875 36.015625 45.375 
Q 39.265625 48.578125 39.265625 53.21875 
Q 39.265625 58.0625 35.90625 61.359375 
Q 32.5625 64.65625 27.59375 64.65625 
Q 22.5625 64.65625 19.234375 61.421875 
Q 15.921875 58.203125 15.921875 53.71875 
z
M 13.09375 20.65625 
Q 13.09375 16.890625 14.875 13.375 
Q 16.65625 9.859375 20.171875 7.921875 
Q 23.6875 6 27.734375 6 
Q 34.03125 6 38.125 10.046875 
Q 42.234375 14.109375 42.234375 20.359375 
Q 42.234375 26.703125 38.015625 30.859375 
Q 33.796875 35.015625 27.4375 35.015625 
Q 21.234375 35.015625 17.15625 30.90625 
Q 13.09375 26.8125 13.09375 20.65625 
z
" id="ArialMT-38"/>
      </defs>
      <g style="fill:#262626;" transform="translate(639.658594 290.877812)scale(0.1 -0.1)">
       <use xlink:href="#ArialMT-38"/>
       <use x="55.615234" xlink:href="#ArialMT-30"/>
       <use x="111.230469" xlink:href="#ArialMT-30"/>
      </g>
     </g>
    </g>
   </g>
   <g id="matplotlib.axis_2">
    <g id="ytick_1">
     <g id="line2d_10">
      <defs>
       <path d="M 0 0 
L -6 0 
" id="m77adfbb8dd" style="stroke:#262626;"/>
      </defs>
      <g>
       <use style="fill:#262626;stroke:#262626;" x="90" xlink:href="#m77adfbb8dd" y="270.72"/>
      </g>
     </g>
     <g id="text_10">
      <!-- −0.20 -->
      <defs>
       <path d="M 52.828125 31.203125 
L 5.5625 31.203125 
L 5.5625 39.40625 
L 52.828125 39.40625 
z
" id="ArialMT-2212"/>
       <path d="M 9.078125 0 
L 9.078125 10.015625 
L 19.09375 10.015625 
L 19.09375 0 
z
" id="ArialMT-2e"/>
      </defs>
      <g style="fill:#262626;" transform="translate(51.698437 274.298906)scale(0.1 -0.1)">
       <use xlink:href="#ArialMT-2212"/>
       <use x="58.398438" xlink:href="#ArialMT-30"/>
       <use x="114.013672" xlink:href="#ArialMT-2e"/>
       <use x="141.796875" xlink:href="#ArialMT-32"/>
       <use x="197.412109" xlink:href="#ArialMT-30"/>
      </g>
     </g>
    </g>
    <g id="ytick_2">
     <g id="line2d_11">
      <g>
       <use style="fill:#262626;stroke:#262626;" x="90" xlink:href="#m77adfbb8dd" y="245.52"/>
      </g>
     </g>
     <g id="text_11">
      <!-- −0.15 -->
      <g style="fill:#262626;" transform="translate(51.698437 249.098906)scale(0.1 -0.1)">
       <use xlink:href="#ArialMT-2212"/>
       <use x="58.398438" xlink:href="#ArialMT-30"/>
       <use x="114.013672" xlink:href="#ArialMT-2e"/>
       <use x="141.796875" xlink:href="#ArialMT-31"/>
       <use x="197.412109" xlink:href="#ArialMT-35"/>
      </g>
     </g>
    </g>
    <g id="ytick_3">
     <g id="line2d_12">
      <g>
       <use style="fill:#262626;stroke:#262626;" x="90" xlink:href="#m77adfbb8dd" y="220.32"/>
      </g>
     </g>
     <g id="text_12">
      <!-- −0.10 -->
      <g style="fill:#262626;" transform="translate(51.698437 223.898906)scale(0.1 -0.1)">
       <use xlink:href="#ArialMT-2212"/>
       <use x="58.398438" xlink:href="#ArialMT-30"/>
       <use x="114.013672" xlink:href="#ArialMT-2e"/>
       <use x="141.796875" xlink:href="#ArialMT-31"/>
       <use x="197.412109" xlink:href="#ArialMT-30"/>
      </g>
     </g>
    </g>
    <g id="ytick_4">
     <g id="line2d_13">
      <g>
       <use style="fill:#262626;stroke:#262626;" x="90" xlink:href="#m77adfbb8dd" y="195.12"/>
      </g>
     </g>
     <g id="text_13">
      <!-- −0.05 -->
      <g style="fill:#262626;" transform="translate(51.698437 198.698906)scale(0.1 -0.1)">
       <use xlink:href="#ArialMT-2212"/>
       <use x="58.398438" xlink:href="#ArialMT-30"/>
       <use x="114.013672" xlink:href="#ArialMT-2e"/>
       <use x="141.796875" xlink:href="#ArialMT-30"/>
       <use x="197.412109" xlink:href="#ArialMT-35"/>
      </g>
     </g>
    </g>
    <g id="ytick_5">
     <g id="line2d_14">
      <g>
       <use style="fill:#262626;stroke:#262626;" x="90" xlink:href="#m77adfbb8dd" y="169.92"/>
      </g>
     </g>
     <g id="text_14">
      <!-- 0.00 -->
      <g style="fill:#262626;" transform="translate(57.539062 173.498906)scale(0.1 -0.1)">
       <use xlink:href="#ArialMT-30"/>
       <use x="55.615234" xlink:href="#ArialMT-2e"/>
       <use x="83.398438" xlink:href="#ArialMT-30"/>
       <use x="139.013672" xlink:href="#ArialMT-30"/>
      </g>
     </g>
    </g>
    <g id="ytick_6">
     <g id="line2d_15">
      <g>
       <use style="fill:#262626;stroke:#262626;" x="90" xlink:href="#m77adfbb8dd" y="144.72"/>
      </g>
     </g>
     <g id="text_15">
      <!-- 0.05 -->
      <g style="fill:#262626;" transform="translate(57.539062 148.298906)scale(0.1 -0.1)">
       <use xlink:href="#ArialMT-30"/>
       <use x="55.615234" xlink:href="#ArialMT-2e"/>
       <use x="83.398438" xlink:href="#ArialMT-30"/>
       <use x="139.013672" xlink:href="#ArialMT-35"/>
      </g>
     </g>
    </g>
    <g id="ytick_7">
     <g id="line2d_16">
      <g>
       <use style="fill:#262626;stroke:#262626;" x="90" xlink:href="#m77adfbb8dd" y="119.52"/>
      </g>
     </g>
     <g id="text_16">
      <!-- 0.10 -->
      <g style="fill:#262626;" transform="translate(57.539062 123.098906)scale(0.1 -0.1)">
       <use xlink:href="#ArialMT-30"/>
       <use x="55.615234" xlink:href="#ArialMT-2e"/>
       <use x="83.398438" xlink:href="#ArialMT-31"/>
       <use x="139.013672" xlink:href="#ArialMT-30"/>
      </g>
     </g>
    </g>
    <g id="ytick_8">
     <g id="line2d_17">
      <g>
       <use style="fill:#262626;stroke:#262626;" x="90" xlink:href="#m77adfbb8dd" y="94.32"/>
      </g>
     </g>
     <g id="text_17">
      <!-- 0.15 -->
      <g style="fill:#262626;" transform="translate(57.539062 97.898906)scale(0.1 -0.1)">
       <use xlink:href="#ArialMT-30"/>
       <use x="55.615234" xlink:href="#ArialMT-2e"/>
       <use x="83.398438" xlink:href="#ArialMT-31"/>
       <use x="139.013672" xlink:href="#ArialMT-35"/>
      </g>
     </g>
    </g>
    <g id="ytick_9">
     <g id="line2d_18">
      <g>
       <use style="fill:#262626;stroke:#262626;" x="90" xlink:href="#m77adfbb8dd" y="69.12"/>
      </g>
     </g>
     <g id="text_18">
      <!-- 0.20 -->
      <g style="fill:#262626;" transform="translate(57.539062 72.698906)scale(0.1 -0.1)">
       <use xlink:href="#ArialMT-30"/>
       <use x="55.615234" xlink:href="#ArialMT-2e"/>
       <use x="83.398438" xlink:href="#ArialMT-32"/>
       <use x="139.013672" xlink:href="#ArialMT-30"/>
      </g>
     </g>
    </g>
   </g>
   <g id="PolyCollection_1">
    <path clip-path="url(#p41de91cf73)" d="M 90 173.535289 
L 90 169.92 
L 90.6975 169.92 
L 91.395 169.92 
L 92.0925 169.92 
L 92.79 169.92 
L 93.4875 169.92 
L 94.185 169.92 
L 94.8825 169.92 
L 95.58 169.92 
L 96.2775 169.92 
L 96.975 169.92 
L 97.6725 169.92 
L 98.37 169.92 
L 99.0675 169.92 
L 99.765 169.92 
L 100.4625 169.92 
L 101.16 169.92 
L 101.8575 169.92 
L 102.555 169.92 
L 103.2525 169.92 
L 103.95 169.92 
L 104.6475 169.92 
L 105.345 169.92 
L 106.0425 169.92 
L 106.74 169.92 
L 107.4375 169.92 
L 108.135 169.92 
L 108.8325 169.92 
L 109.53 169.92 
L 110.2275 169.92 
L 110.925 169.92 
L 111.6225 169.92 
L 112.32 169.92 
L 113.0175 169.92 
L 113.715 169.92 
L 114.4125 169.92 
L 115.11 169.92 
L 115.8075 169.92 
L 116.505 169.92 
L 117.2025 169.92 
L 117.9 169.92 
L 118.5975 169.92 
L 119.295 169.92 
L 119.9925 169.92 
L 120.69 169.92 
L 121.3875 169.92 
L 122.085 169.92 
L 122.7825 169.92 
L 123.48 169.92 
L 124.1775 169.92 
L 124.875 169.92 
L 125.5725 169.92 
L 126.27 169.92 
L 126.9675 169.92 
L 127.665 169.92 
L 128.3625 169.92 
L 129.06 169.92 
L 129.7575 169.92 
L 130.455 169.92 
L 131.1525 169.92 
L 131.85 169.92 
L 132.5475 169.92 
L 133.245 169.92 
L 133.9425 169.92 
L 134.64 169.92 
L 135.3375 169.92 
L 136.035 169.92 
L 136.7325 169.92 
L 137.43 169.92 
L 138.1275 169.92 
L 138.825 169.92 
L 139.5225 169.92 
L 140.22 169.92 
L 140.9175 169.92 
L 141.615 169.92 
L 142.3125 169.92 
L 143.01 169.92 
L 143.7075 169.92 
L 144.405 169.92 
L 145.1025 169.92 
L 145.8 169.92 
L 146.4975 169.92 
L 147.195 169.92 
L 147.8925 169.92 
L 148.59 169.92 
L 149.2875 169.92 
L 149.985 169.92 
L 150.6825 169.92 
L 151.38 169.92 
L 152.0775 169.92 
L 152.775 169.92 
L 153.4725 169.92 
L 154.17 169.92 
L 154.8675 169.92 
L 155.565 169.92 
L 156.2625 169.92 
L 156.96 169.92 
L 157.6575 169.92 
L 158.355 169.92 
L 159.0525 169.92 
L 159.75 169.92 
L 160.4475 169.92 
L 161.145 169.92 
L 161.8425 169.92 
L 162.54 169.92 
L 163.2375 169.92 
L 163.935 169.92 
L 164.6325 169.92 
L 165.33 169.92 
L 166.0275 169.92 
L 166.725 169.92 
L 167.4225 169.92 
L 168.12 169.92 
L 168.8175 169.92 
L 169.515 169.92 
L 170.2125 169.92 
L 170.91 169.92 
L 171.6075 169.92 
L 172.305 169.92 
L 173.0025 169.92 
L 173.7 169.92 
L 174.3975 169.92 
L 175.095 169.92 
L 175.7925 169.92 
L 176.49 169.92 
L 177.1875 169.92 
L 177.885 169.92 
L 178.5825 169.92 
L 179.28 169.92 
L 179.9775 169.92 
L 180.675 169.92 
L 181.3725 169.92 
L 182.07 169.92 
L 182.7675 169.92 
L 183.465 169.92 
L 184.1625 169.92 
L 184.86 169.92 
L 185.5575 169.92 
L 186.255 169.92 
L 186.9525 169.92 
L 187.65 169.92 
L 188.3475 169.92 
L 189.045 169.92 
L 189.7425 169.92 
L 190.44 169.92 
L 191.1375 169.92 
L 191.835 169.92 
L 192.5325 169.92 
L 193.23 169.92 
L 193.9275 169.92 
L 194.625 169.92 
L 195.3225 169.92 
L 196.02 169.92 
L 196.7175 169.92 
L 197.415 169.92 
L 198.1125 169.92 
L 198.81 169.92 
L 199.5075 169.92 
L 200.205 169.92 
L 200.9025 169.92 
L 201.6 169.92 
L 202.2975 169.92 
L 202.995 169.92 
L 203.6925 169.92 
L 204.39 169.92 
L 205.0875 169.92 
L 205.785 169.92 
L 206.4825 169.92 
L 207.18 169.92 
L 207.8775 169.92 
L 208.575 169.92 
L 209.2725 169.92 
L 209.97 169.92 
L 210.6675 169.92 
L 211.365 169.92 
L 212.0625 169.92 
L 212.76 169.92 
L 213.4575 169.92 
L 214.155 169.92 
L 214.8525 169.92 
L 215.55 169.92 
L 216.2475 169.92 
L 216.945 169.92 
L 217.6425 169.92 
L 218.34 169.92 
L 219.0375 169.92 
L 219.735 169.92 
L 220.4325 169.92 
L 221.13 169.92 
L 221.8275 169.92 
L 222.525 169.92 
L 223.2225 169.92 
L 223.92 169.92 
L 224.6175 169.92 
L 225.315 169.92 
L 226.0125 169.92 
L 226.71 169.92 
L 227.4075 169.92 
L 228.105 169.92 
L 228.8025 169.92 
L 229.5 169.92 
L 230.1975 169.92 
L 230.895 169.92 
L 231.5925 169.92 
L 232.29 169.92 
L 232.9875 169.92 
L 233.685 169.92 
L 234.3825 169.92 
L 235.08 169.92 
L 235.7775 169.92 
L 236.475 169.92 
L 237.1725 169.92 
L 237.87 169.92 
L 238.5675 169.92 
L 239.265 169.92 
L 239.9625 169.92 
L 240.66 169.92 
L 241.3575 169.92 
L 242.055 169.92 
L 242.7525 169.92 
L 243.45 169.92 
L 244.1475 169.92 
L 244.845 169.92 
L 245.5425 169.92 
L 246.24 169.92 
L 246.9375 169.92 
L 247.635 169.92 
L 248.3325 169.92 
L 249.03 169.92 
L 249.7275 169.92 
L 250.425 169.92 
L 251.1225 169.92 
L 251.82 169.92 
L 252.5175 169.92 
L 253.215 169.92 
L 253.9125 169.92 
L 254.61 169.92 
L 255.3075 169.92 
L 256.005 169.92 
L 256.7025 169.92 
L 257.4 169.92 
L 258.0975 169.92 
L 258.795 169.92 
L 259.4925 169.92 
L 260.19 169.92 
L 260.8875 169.92 
L 261.585 169.92 
L 262.2825 169.92 
L 262.98 169.92 
L 263.6775 169.92 
L 264.375 169.92 
L 265.0725 169.92 
L 265.77 169.92 
L 266.4675 169.92 
L 267.165 169.92 
L 267.8625 169.92 
L 268.56 169.92 
L 269.2575 169.92 
L 269.955 169.92 
L 270.6525 169.92 
L 271.35 169.92 
L 272.0475 169.92 
L 272.745 169.92 
L 273.4425 169.92 
L 274.14 169.92 
L 274.8375 169.92 
L 275.535 169.92 
L 276.2325 169.92 
L 276.93 169.92 
L 277.6275 169.92 
L 278.325 169.92 
L 279.0225 169.92 
L 279.72 169.92 
L 280.4175 169.92 
L 281.115 169.92 
L 281.8125 169.92 
L 282.51 169.92 
L 283.2075 169.92 
L 283.905 169.92 
L 284.6025 169.92 
L 285.3 169.92 
L 285.9975 169.92 
L 286.695 169.92 
L 287.3925 169.92 
L 288.09 169.92 
L 288.7875 169.92 
L 289.485 169.92 
L 290.1825 169.92 
L 290.88 169.92 
L 291.5775 169.92 
L 292.275 169.92 
L 292.9725 169.92 
L 293.67 169.92 
L 294.3675 169.92 
L 295.065 169.92 
L 295.7625 169.92 
L 296.46 169.92 
L 297.1575 169.92 
L 297.855 169.92 
L 298.5525 169.92 
L 299.25 169.92 
L 299.9475 169.92 
L 300.645 169.92 
L 301.3425 169.92 
L 302.04 169.92 
L 302.7375 169.92 
L 303.435 169.92 
L 304.1325 169.92 
L 304.83 169.92 
L 305.5275 169.92 
L 306.225 169.92 
L 306.9225 169.92 
L 307.62 169.92 
L 308.3175 169.92 
L 309.015 169.92 
L 309.7125 169.92 
L 310.41 169.92 
L 311.1075 169.92 
L 311.805 169.92 
L 312.5025 169.92 
L 313.2 169.92 
L 313.8975 169.92 
L 314.595 169.92 
L 315.2925 169.92 
L 315.99 169.92 
L 316.6875 169.92 
L 317.385 169.92 
L 318.0825 169.92 
L 318.78 169.92 
L 319.4775 169.92 
L 320.175 169.92 
L 320.8725 169.92 
L 321.57 169.92 
L 322.2675 169.92 
L 322.965 169.92 
L 323.6625 169.92 
L 324.36 169.92 
L 325.0575 169.92 
L 325.755 169.92 
L 326.4525 169.92 
L 327.15 169.92 
L 327.8475 169.92 
L 328.545 169.92 
L 329.2425 169.92 
L 329.94 169.92 
L 330.6375 169.92 
L 331.335 169.92 
L 332.0325 169.92 
L 332.73 169.92 
L 333.4275 169.92 
L 334.125 169.92 
L 334.8225 169.92 
L 335.52 169.92 
L 336.2175 169.92 
L 336.915 169.92 
L 337.6125 169.92 
L 338.31 169.92 
L 339.0075 169.92 
L 339.705 169.92 
L 340.4025 169.92 
L 341.1 169.92 
L 341.7975 169.92 
L 342.495 169.92 
L 343.1925 169.92 
L 343.89 169.92 
L 344.5875 169.92 
L 345.285 169.92 
L 345.9825 169.92 
L 346.68 169.92 
L 347.3775 169.92 
L 348.075 169.92 
L 348.7725 169.92 
L 349.47 169.92 
L 350.1675 169.92 
L 350.865 169.92 
L 351.5625 169.92 
L 352.26 169.92 
L 352.9575 169.92 
L 353.655 169.92 
L 354.3525 169.92 
L 355.05 169.92 
L 355.7475 169.92 
L 356.445 169.92 
L 357.1425 169.92 
L 357.84 169.92 
L 358.5375 169.92 
L 359.235 169.92 
L 359.9325 169.92 
L 360.63 169.92 
L 361.3275 169.92 
L 362.025 169.92 
L 362.7225 169.92 
L 363.42 169.92 
L 364.1175 169.92 
L 364.815 169.92 
L 365.5125 169.92 
L 366.21 169.92 
L 366.9075 169.92 
L 367.605 169.92 
L 368.3025 169.92 
L 369 169.92 
L 369.6975 169.92 
L 370.395 169.92 
L 371.0925 169.92 
L 371.79 169.92 
L 372.4875 169.92 
L 373.185 169.92 
L 373.8825 169.92 
L 374.58 169.92 
L 375.2775 169.92 
L 375.975 169.92 
L 376.6725 169.92 
L 377.37 169.92 
L 378.0675 169.92 
L 378.765 169.92 
L 379.4625 169.92 
L 380.16 169.92 
L 380.8575 169.92 
L 381.555 169.92 
L 382.2525 169.92 
L 382.95 169.92 
L 383.6475 169.92 
L 384.345 169.92 
L 385.0425 169.92 
L 385.74 169.92 
L 386.4375 169.92 
L 387.135 169.92 
L 387.8325 169.92 
L 388.53 169.92 
L 389.2275 169.92 
L 389.925 169.92 
L 390.6225 169.92 
L 391.32 169.92 
L 392.0175 169.92 
L 392.715 169.92 
L 393.4125 169.92 
L 394.11 169.92 
L 394.8075 169.92 
L 395.505 169.92 
L 396.2025 169.92 
L 396.9 169.92 
L 397.5975 169.92 
L 398.295 169.92 
L 398.9925 169.92 
L 399.69 169.92 
L 400.3875 169.92 
L 401.085 169.92 
L 401.7825 169.92 
L 402.48 169.92 
L 403.1775 169.92 
L 403.875 169.92 
L 404.5725 169.92 
L 405.27 169.92 
L 405.9675 169.92 
L 406.665 169.92 
L 407.3625 169.92 
L 408.06 169.92 
L 408.7575 169.92 
L 409.455 169.92 
L 410.1525 169.92 
L 410.85 169.92 
L 411.5475 169.92 
L 412.245 169.92 
L 412.9425 169.92 
L 413.64 169.92 
L 414.3375 169.92 
L 415.035 169.92 
L 415.7325 169.92 
L 416.43 169.92 
L 417.1275 169.92 
L 417.825 169.92 
L 418.5225 169.92 
L 419.22 169.92 
L 419.9175 169.92 
L 420.615 169.92 
L 421.3125 169.92 
L 422.01 169.92 
L 422.7075 169.92 
L 423.405 169.92 
L 424.1025 169.92 
L 424.8 169.92 
L 425.4975 169.92 
L 426.195 169.92 
L 426.8925 169.92 
L 427.59 169.92 
L 428.2875 169.92 
L 428.985 169.92 
L 429.6825 169.92 
L 430.38 169.92 
L 431.0775 169.92 
L 431.775 169.92 
L 432.4725 169.92 
L 433.17 169.92 
L 433.8675 169.92 
L 434.565 169.92 
L 435.2625 169.92 
L 435.96 169.92 
L 436.6575 169.92 
L 437.355 169.92 
L 438.0525 169.92 
L 438.75 169.92 
L 439.4475 169.92 
L 440.145 169.92 
L 440.8425 169.92 
L 441.54 169.92 
L 442.2375 169.92 
L 442.935 169.92 
L 443.6325 169.92 
L 444.33 169.92 
L 445.0275 169.92 
L 445.725 169.92 
L 446.4225 169.92 
L 447.12 169.92 
L 447.8175 169.92 
L 448.515 169.92 
L 449.2125 169.92 
L 449.91 169.92 
L 450.6075 169.92 
L 451.305 169.92 
L 452.0025 169.92 
L 452.7 169.92 
L 453.3975 169.92 
L 454.095 169.92 
L 454.7925 169.92 
L 455.49 169.92 
L 456.1875 169.92 
L 456.885 169.92 
L 457.5825 169.92 
L 458.28 169.92 
L 458.9775 169.92 
L 459.675 169.92 
L 460.3725 169.92 
L 461.07 169.92 
L 461.7675 169.92 
L 462.465 169.92 
L 463.1625 169.92 
L 463.86 169.92 
L 464.5575 169.92 
L 465.255 169.92 
L 465.9525 169.92 
L 466.65 169.92 
L 467.3475 169.92 
L 468.045 169.92 
L 468.7425 169.92 
L 469.44 169.92 
L 470.1375 169.92 
L 470.835 169.92 
L 471.5325 169.92 
L 472.23 169.92 
L 472.9275 169.92 
L 473.625 169.92 
L 474.3225 169.92 
L 475.02 169.92 
L 475.7175 169.92 
L 476.415 169.92 
L 477.1125 169.92 
L 477.81 169.92 
L 478.5075 169.92 
L 479.205 169.92 
L 479.9025 169.92 
L 480.6 169.92 
L 481.2975 169.92 
L 481.995 169.92 
L 482.6925 169.92 
L 483.39 169.92 
L 484.0875 169.92 
L 484.785 169.92 
L 485.4825 169.92 
L 486.18 169.92 
L 486.8775 169.92 
L 487.575 169.92 
L 488.2725 169.92 
L 488.97 169.92 
L 489.6675 169.92 
L 490.365 169.92 
L 491.0625 169.92 
L 491.76 169.92 
L 492.4575 169.92 
L 493.155 169.92 
L 493.8525 169.92 
L 494.55 169.92 
L 495.2475 169.92 
L 495.945 169.92 
L 496.6425 169.92 
L 497.34 169.92 
L 498.0375 169.92 
L 498.735 169.92 
L 499.4325 169.92 
L 500.13 169.92 
L 500.8275 169.92 
L 501.525 169.92 
L 502.2225 169.92 
L 502.92 169.92 
L 503.6175 169.92 
L 504.315 169.92 
L 505.0125 169.92 
L 505.71 169.92 
L 506.4075 169.92 
L 507.105 169.92 
L 507.8025 169.92 
L 508.5 169.92 
L 509.1975 169.92 
L 509.895 169.92 
L 510.5925 169.92 
L 511.29 169.92 
L 511.9875 169.92 
L 512.685 169.92 
L 513.3825 169.92 
L 514.08 169.92 
L 514.7775 169.92 
L 515.475 169.92 
L 516.1725 169.92 
L 516.87 169.92 
L 517.5675 169.92 
L 518.265 169.92 
L 518.9625 169.92 
L 519.66 169.92 
L 520.3575 169.92 
L 521.055 169.92 
L 521.7525 169.92 
L 522.45 169.92 
L 523.1475 169.92 
L 523.845 169.92 
L 524.5425 169.92 
L 525.24 169.92 
L 525.9375 169.92 
L 526.635 169.92 
L 527.3325 169.92 
L 528.03 169.92 
L 528.7275 169.92 
L 529.425 169.92 
L 530.1225 169.92 
L 530.82 169.92 
L 531.5175 169.92 
L 532.215 169.92 
L 532.9125 169.92 
L 533.61 169.92 
L 534.3075 169.92 
L 535.005 169.92 
L 535.7025 169.92 
L 536.4 169.92 
L 537.0975 169.92 
L 537.795 169.92 
L 538.4925 169.92 
L 539.19 169.92 
L 539.8875 169.92 
L 540.585 169.92 
L 541.2825 169.92 
L 541.98 169.92 
L 542.6775 169.92 
L 543.375 169.92 
L 544.0725 169.92 
L 544.77 169.92 
L 545.4675 169.92 
L 546.165 169.92 
L 546.8625 169.92 
L 547.56 169.92 
L 548.2575 169.92 
L 548.955 169.92 
L 549.6525 169.92 
L 550.35 169.92 
L 551.0475 169.92 
L 551.745 169.92 
L 552.4425 169.92 
L 553.14 169.92 
L 553.8375 169.92 
L 554.535 169.92 
L 555.2325 169.92 
L 555.93 169.92 
L 556.6275 169.92 
L 557.325 169.92 
L 558.0225 169.92 
L 558.72 169.92 
L 559.4175 169.92 
L 560.115 169.92 
L 560.8125 169.92 
L 561.51 169.92 
L 562.2075 169.92 
L 562.905 169.92 
L 563.6025 169.92 
L 564.3 169.92 
L 564.9975 169.92 
L 565.695 169.92 
L 566.3925 169.92 
L 567.09 169.92 
L 567.7875 169.92 
L 568.485 169.92 
L 569.1825 169.92 
L 569.88 169.92 
L 570.5775 169.92 
L 571.275 169.92 
L 571.9725 169.92 
L 572.67 169.92 
L 573.3675 169.92 
L 574.065 169.92 
L 574.7625 169.92 
L 575.46 169.92 
L 576.1575 169.92 
L 576.855 169.92 
L 577.5525 169.92 
L 578.25 169.92 
L 578.9475 169.92 
L 579.645 169.92 
L 580.3425 169.92 
L 581.04 169.92 
L 581.7375 169.92 
L 582.435 169.92 
L 583.1325 169.92 
L 583.83 169.92 
L 584.5275 169.92 
L 585.225 169.92 
L 585.9225 169.92 
L 586.62 169.92 
L 587.3175 169.92 
L 588.015 169.92 
L 588.7125 169.92 
L 589.41 169.92 
L 590.1075 169.92 
L 590.805 169.92 
L 591.5025 169.92 
L 592.2 169.92 
L 592.8975 169.92 
L 593.595 169.92 
L 594.2925 169.92 
L 594.99 169.92 
L 595.6875 169.92 
L 596.385 169.92 
L 597.0825 169.92 
L 597.78 169.92 
L 598.4775 169.92 
L 599.175 169.92 
L 599.8725 169.92 
L 600.57 169.92 
L 601.2675 169.92 
L 601.965 169.92 
L 602.6625 169.92 
L 603.36 169.92 
L 604.0575 169.92 
L 604.755 169.92 
L 605.4525 169.92 
L 606.15 169.92 
L 606.8475 169.92 
L 607.545 169.92 
L 608.2425 169.92 
L 608.94 169.92 
L 609.6375 169.92 
L 610.335 169.92 
L 611.0325 169.92 
L 611.73 169.92 
L 612.4275 169.92 
L 613.125 169.92 
L 613.8225 169.92 
L 614.52 169.92 
L 615.2175 169.92 
L 615.915 169.92 
L 616.6125 169.92 
L 617.31 169.92 
L 618.0075 169.92 
L 618.705 169.92 
L 619.4025 169.92 
L 620.1 169.92 
L 620.7975 169.92 
L 621.495 169.92 
L 622.1925 169.92 
L 622.89 169.92 
L 623.5875 169.92 
L 624.285 169.92 
L 624.9825 169.92 
L 625.68 169.92 
L 626.3775 169.92 
L 627.075 169.92 
L 627.7725 169.92 
L 628.47 169.92 
L 629.1675 169.92 
L 629.865 169.92 
L 630.5625 169.92 
L 631.26 169.92 
L 631.9575 169.92 
L 632.655 169.92 
L 633.3525 169.92 
L 634.05 169.92 
L 634.7475 169.92 
L 635.445 169.92 
L 636.1425 169.92 
L 636.84 169.92 
L 637.5375 169.92 
L 638.235 169.92 
L 638.9325 169.92 
L 639.63 169.92 
L 640.3275 169.92 
L 641.025 169.92 
L 641.7225 169.92 
L 642.42 169.92 
L 643.1175 169.92 
L 643.815 169.92 
L 644.5125 169.92 
L 645.21 169.92 
L 645.9075 169.92 
L 646.605 169.92 
L 646.605 169.92 
L 646.605 169.92 
L 645.9075 169.924831 
L 645.21 169.936135 
L 644.5125 169.955476 
L 643.815 169.984324 
L 643.1175 170.024038 
L 642.42 170.075845 
L 641.7225 170.140829 
L 641.025 170.219914 
L 640.3275 170.313855 
L 639.63 170.423221 
L 638.9325 170.548392 
L 638.235 170.689547 
L 637.5375 170.84666 
L 636.84 171.019498 
L 636.1425 171.207616 
L 635.445 171.410362 
L 634.7475 171.626873 
L 634.05 171.856087 
L 633.3525 172.096743 
L 632.655 172.347393 
L 631.9575 172.606412 
L 631.26 172.872009 
L 630.5625 173.14224 
L 629.865 173.415027 
L 629.1675 173.688169 
L 628.47 173.959368 
L 627.7725 174.226239 
L 627.075 174.486338 
L 626.3775 174.73718 
L 625.68 174.976261 
L 624.9825 175.201079 
L 624.285 175.409159 
L 623.5875 175.598073 
L 622.89 175.765466 
L 622.1925 175.909074 
L 621.495 176.026748 
L 620.7975 176.116474 
L 620.1 176.176394 
L 619.4025 176.204825 
L 618.705 176.200275 
L 618.0075 176.161461 
L 617.31 176.087323 
L 616.6125 175.977038 
L 615.915 175.830029 
L 615.2175 175.645979 
L 614.52 175.424833 
L 613.8225 175.166806 
L 613.125 174.872387 
L 612.4275 174.542339 
L 611.73 174.177696 
L 611.0325 173.779764 
L 610.335 173.350111 
L 609.6375 172.890562 
L 608.94 172.403188 
L 608.2425 171.890295 
L 607.545 171.35441 
L 606.8475 170.798265 
L 606.15 170.224779 
L 605.4525 169.637041 
L 604.755 169.038288 
L 604.0575 168.431885 
L 603.36 167.821299 
L 602.6625 167.210079 
L 601.965 166.60183 
L 601.2675 166.000187 
L 600.57 165.40879 
L 599.8725 164.83126 
L 599.175 164.271171 
L 598.4775 163.732028 
L 597.78 163.217236 
L 597.0825 162.730084 
L 596.385 162.273714 
L 595.6875 161.851102 
L 594.99 161.465038 
L 594.2925 161.118102 
L 593.595 160.812649 
L 592.8975 160.550791 
L 592.2 160.334382 
L 591.5025 160.165002 
L 590.805 160.04395 
L 590.1075 159.972234 
L 589.41 159.950562 
L 588.7125 159.979335 
L 588.015 160.058652 
L 587.3175 160.188301 
L 586.62 160.367765 
L 585.9225 160.596225 
L 585.225 160.872568 
L 584.5275 161.195391 
L 583.83 161.563012 
L 583.1325 161.973487 
L 582.435 162.424617 
L 581.7375 162.913967 
L 581.04 163.438885 
L 580.3425 163.996515 
L 579.645 164.583822 
L 578.9475 165.197611 
L 578.25 165.834549 
L 577.5525 166.491186 
L 576.855 167.163982 
L 576.1575 167.849327 
L 575.46 168.543567 
L 574.7625 169.243028 
L 574.065 169.944037 
L 573.3675 170.64295 
L 572.67 171.33617 
L 571.9725 172.020173 
L 571.275 172.69153 
L 570.5775 173.346921 
L 569.88 173.983164 
L 569.1825 174.597225 
L 568.485 175.186237 
L 567.7875 175.747518 
L 567.09 176.278581 
L 566.3925 176.777148 
L 565.695 177.241159 
L 564.9975 177.66878 
L 564.3 178.058413 
L 563.6025 178.408695 
L 562.905 178.718507 
L 562.2075 178.986969 
L 561.51 179.213447 
L 560.8125 179.397542 
L 560.115 179.539092 
L 559.4175 179.638164 
L 558.72 179.695048 
L 558.0225 179.710245 
L 557.325 179.684463 
L 556.6275 179.618599 
L 555.93 179.513732 
L 555.2325 179.371107 
L 554.535 179.192123 
L 553.8375 178.978315 
L 553.14 178.731342 
L 552.4425 178.452973 
L 551.745 178.145064 
L 551.0475 177.809551 
L 550.35 177.448427 
L 549.6525 177.063732 
L 548.955 176.657534 
L 548.2575 176.231917 
L 547.56 175.788965 
L 546.8625 175.330749 
L 546.165 174.859316 
L 545.4675 174.376676 
L 544.77 173.884792 
L 544.0725 173.38557 
L 543.375 172.880851 
L 542.6775 172.372405 
L 541.98 171.861922 
L 541.2825 171.351012 
L 540.585 170.841197 
L 539.8875 170.333911 
L 539.19 169.830499 
L 538.4925 169.332216 
L 537.795 168.840231 
L 537.0975 168.355626 
L 536.4 167.8794 
L 535.7025 167.412477 
L 535.005 166.955705 
L 534.3075 166.509869 
L 533.61 166.075688 
L 532.9125 165.653834 
L 532.215 165.244927 
L 531.5175 164.849552 
L 530.82 164.468263 
L 530.1225 164.101589 
L 529.425 163.750046 
L 528.7275 163.414141 
L 528.03 163.094379 
L 527.3325 162.791275 
L 526.635 162.505351 
L 525.9375 162.23715 
L 525.24 161.987236 
L 524.5425 161.756199 
L 523.845 161.544658 
L 523.1475 161.353261 
L 522.45 161.18269 
L 521.7525 161.033657 
L 521.055 160.906903 
L 520.3575 160.803197 
L 519.66 160.723333 
L 518.9625 160.668121 
L 518.265 160.638387 
L 517.5675 160.634961 
L 516.87 160.658671 
L 516.1725 160.710335 
L 515.475 160.790751 
L 514.7775 160.900685 
L 514.08 161.040859 
L 513.3825 161.211944 
L 512.685 161.414542 
L 511.9875 161.649177 
L 511.29 161.916282 
L 510.5925 162.216184 
L 509.895 162.549093 
L 509.1975 162.915091 
L 508.5 163.314115 
L 507.8025 163.745951 
L 507.105 164.210221 
L 506.4075 164.706371 
L 505.71 165.233666 
L 505.0125 165.791178 
L 504.315 166.377782 
L 503.6175 166.992149 
L 502.92 167.632745 
L 502.2225 168.297824 
L 501.525 168.985432 
L 500.8275 169.693405 
L 500.13 170.419373 
L 499.4325 171.160765 
L 498.735 171.914814 
L 498.0375 172.678567 
L 497.34 173.448895 
L 496.6425 174.222503 
L 495.945 174.995947 
L 495.2475 175.765648 
L 494.55 176.527909 
L 493.8525 177.278932 
L 493.155 178.014845 
L 492.4575 178.731714 
L 491.76 179.425575 
L 491.0625 180.092452 
L 490.365 180.728384 
L 489.6675 181.32945 
L 488.97 181.891797 
L 488.2725 182.411664 
L 487.575 182.88541 
L 486.8775 183.309543 
L 486.18 183.68074 
L 485.4825 183.995881 
L 484.785 184.252068 
L 484.0875 184.446654 
L 483.39 184.577264 
L 482.6925 184.641818 
L 481.995 184.638551 
L 481.2975 184.566033 
L 480.6 184.423187 
L 479.9025 184.209302 
L 479.205 183.924049 
L 478.5075 183.567489 
L 477.81 183.140084 
L 477.1125 182.642702 
L 476.415 182.076619 
L 475.7175 181.443521 
L 475.02 180.745504 
L 474.3225 179.985065 
L 473.625 179.165097 
L 472.9275 178.28888 
L 472.23 177.360063 
L 471.5325 176.382654 
L 470.835 175.360999 
L 470.1375 174.299761 
L 469.44 173.203896 
L 468.7425 172.07863 
L 468.045 170.92943 
L 467.3475 169.761974 
L 466.65 168.58212 
L 465.9525 167.395872 
L 465.255 166.209349 
L 464.5575 165.028746 
L 463.86 163.860299 
L 463.1625 162.710247 
L 462.465 161.584798 
L 461.7675 160.490086 
L 461.07 159.43214 
L 460.3725 158.416838 
L 459.675 157.44988 
L 458.9775 156.536747 
L 458.28 155.682665 
L 457.5825 154.892577 
L 456.885 154.171106 
L 456.1875 153.522529 
L 455.49 152.950747 
L 454.7925 152.45926 
L 454.095 152.051143 
L 453.3975 151.729029 
L 452.7 151.495085 
L 452.0025 151.351002 
L 451.305 151.29798 
L 450.6075 151.33672 
L 449.91 151.46742 
L 449.2125 151.689767 
L 448.515 152.002943 
L 447.8175 152.405625 
L 447.12 152.895995 
L 446.4225 153.471745 
L 445.725 154.130094 
L 445.0275 154.867804 
L 444.33 155.681195 
L 443.6325 156.566171 
L 442.935 157.518241 
L 442.2375 158.532548 
L 441.54 159.603893 
L 440.8425 160.726773 
L 440.145 161.895406 
L 439.4475 163.103773 
L 438.75 164.345646 
L 438.0525 165.61463 
L 437.355 166.904197 
L 436.6575 168.207728 
L 435.96 169.518549 
L 435.2625 170.82997 
L 434.565 172.135324 
L 433.8675 173.428006 
L 433.17 174.701508 
L 432.4725 175.94946 
L 431.775 177.165659 
L 431.0775 178.344111 
L 430.38 179.479057 
L 429.6825 180.565008 
L 428.985 181.596771 
L 428.2875 182.56948 
L 427.59 183.478615 
L 426.8925 184.320027 
L 426.195 185.08996 
L 425.4975 185.785064 
L 424.8 186.40241 
L 424.1025 186.939505 
L 423.405 187.394296 
L 422.7075 187.765178 
L 422.01 188.050998 
L 421.3125 188.251055 
L 420.615 188.365097 
L 419.9175 188.393315 
L 419.22 188.336338 
L 418.5225 188.195221 
L 417.825 187.971432 
L 417.1275 187.666838 
L 416.43 187.283688 
L 415.7325 186.824596 
L 415.035 186.292517 
L 414.3375 185.690725 
L 413.64 185.022792 
L 412.9425 184.292561 
L 412.245 183.504121 
L 411.5475 182.66178 
L 410.85 181.770034 
L 410.1525 180.833546 
L 409.455 179.857111 
L 408.7575 178.845633 
L 408.06 177.804093 
L 407.3625 176.737524 
L 406.665 175.65098 
L 405.9675 174.549516 
L 405.27 173.438155 
L 404.5725 172.321866 
L 403.875 171.205545 
L 403.1775 170.093983 
L 402.48 168.991855 
L 401.7825 167.903692 
L 401.085 166.833869 
L 400.3875 165.786585 
L 399.69 164.765851 
L 398.9925 163.775473 
L 398.295 162.819044 
L 397.5975 161.899934 
L 396.9 161.021278 
L 396.2025 160.185976 
L 395.505 159.396684 
L 394.8075 158.655809 
L 394.11 157.965516 
L 393.4125 157.327716 
L 392.715 156.744076 
L 392.0175 156.216021 
L 391.32 155.744731 
L 390.6225 155.331155 
L 389.925 154.976007 
L 389.2275 154.679783 
L 388.53 154.44276 
L 387.8325 154.265007 
L 387.135 154.146396 
L 386.4375 154.086605 
L 385.74 154.085133 
L 385.0425 154.141307 
L 384.345 154.254291 
L 383.6475 154.423094 
L 382.95 154.646585 
L 382.2525 154.923494 
L 381.555 155.252427 
L 380.8575 155.63187 
L 380.16 156.060201 
L 379.4625 156.535695 
L 378.765 157.05653 
L 378.0675 157.620795 
L 377.37 158.226498 
L 376.6725 158.871565 
L 375.975 159.553851 
L 375.2775 160.271141 
L 374.58 161.021155 
L 373.8825 161.80155 
L 373.185 162.609923 
L 372.4875 163.443814 
L 371.79 164.300708 
L 371.0925 165.178035 
L 370.395 166.073176 
L 369.6975 166.98346 
L 369 167.906165 
L 368.3025 168.838523 
L 367.605 169.777722 
L 366.9075 170.720904 
L 366.21 171.665167 
L 365.5125 172.607573 
L 364.815 173.545147 
L 364.1175 174.474878 
L 363.42 175.393729 
L 362.7225 176.298639 
L 362.025 177.186525 
L 361.3275 178.054296 
L 360.63 178.898851 
L 359.9325 179.717094 
L 359.235 180.505939 
L 358.5375 181.262322 
L 357.84 181.983208 
L 357.1425 182.665604 
L 356.445 183.306572 
L 355.7475 183.903238 
L 355.05 184.452812 
L 354.3525 184.952593 
L 353.655 185.399993 
L 352.9575 185.792543 
L 352.26 186.127915 
L 351.5625 186.403936 
L 350.865 186.6186 
L 350.1675 186.770089 
L 349.47 186.856786 
L 348.7725 186.877289 
L 348.075 186.830429 
L 347.3775 186.715284 
L 346.68 186.531189 
L 345.9825 186.277754 
L 345.285 185.954873 
L 344.5875 185.562734 
L 343.89 185.101834 
L 343.1925 184.572979 
L 342.495 183.977298 
L 341.7975 183.316244 
L 341.1 182.591598 
L 340.4025 181.805473 
L 339.705 180.960309 
L 339.0075 180.058875 
L 338.31 179.104263 
L 337.6125 178.099879 
L 336.915 177.049439 
L 336.2175 175.956953 
L 335.52 174.826718 
L 334.8225 173.663295 
L 334.125 172.4715 
L 333.4275 171.256379 
L 332.73 170.02319 
L 332.0325 168.777375 
L 331.335 167.524544 
L 330.6375 166.270437 
L 329.94 165.020907 
L 329.2425 163.781882 
L 328.545 162.559338 
L 327.8475 161.359269 
L 327.15 160.187651 
L 326.4525 159.050409 
L 325.755 157.953386 
L 325.0575 156.902308 
L 324.36 155.902749 
L 323.6625 154.960097 
L 322.965 154.079525 
L 322.2675 153.265954 
L 321.57 152.524023 
L 320.8725 151.858058 
L 320.175 151.272047 
L 319.4775 150.769606 
L 318.78 150.35396 
L 318.0825 150.027913 
L 317.385 149.793833 
L 316.6875 149.653628 
L 315.99 149.608733 
L 315.2925 149.660094 
L 314.595 149.808158 
L 313.8975 150.052864 
L 313.2 150.39364 
L 312.5025 150.829399 
L 311.805 151.358541 
L 311.1075 151.978955 
L 310.41 152.688032 
L 309.7125 153.48267 
L 309.015 154.359289 
L 308.3175 155.313849 
L 307.62 156.341871 
L 306.9225 157.438456 
L 306.225 158.59831 
L 305.5275 159.815777 
L 304.83 161.084865 
L 304.1325 162.399278 
L 303.435 163.752453 
L 302.7375 165.137597 
L 302.04 166.547721 
L 301.3425 167.975683 
L 300.645 169.414226 
L 299.9475 170.856022 
L 299.25 172.293711 
L 298.5525 173.719946 
L 297.855 175.127433 
L 297.1575 176.508973 
L 296.46 177.857504 
L 295.7625 179.166144 
L 295.065 180.428227 
L 294.3675 181.637344 
L 293.67 182.787375 
L 292.9725 183.872533 
L 292.275 184.887388 
L 291.5775 185.826901 
L 290.88 186.686453 
L 290.1825 187.461871 
L 289.485 188.149449 
L 288.7875 188.745969 
L 288.09 189.248715 
L 287.3925 189.655493 
L 286.695 189.964634 
L 285.9975 190.175008 
L 285.3 190.286021 
L 284.6025 190.297623 
L 283.905 190.210297 
L 283.2075 190.02506 
L 282.51 189.74345 
L 281.8125 189.367512 
L 281.115 188.899788 
L 280.4175 188.343293 
L 279.72 187.701496 
L 279.0225 186.978298 
L 278.325 186.178002 
L 277.6275 185.305286 
L 276.93 184.365174 
L 276.2325 183.363002 
L 275.535 182.304384 
L 274.8375 181.195178 
L 274.14 180.041449 
L 273.4425 178.849429 
L 272.745 177.625484 
L 272.0475 176.376075 
L 271.35 175.107714 
L 270.6525 173.826936 
L 269.955 172.540251 
L 269.2575 171.254114 
L 268.56 169.974888 
L 267.8625 168.708807 
L 267.165 167.461943 
L 266.4675 166.240176 
L 265.77 165.049162 
L 265.0725 163.894307 
L 264.375 162.780736 
L 263.6775 161.713276 
L 262.98 160.696429 
L 262.2825 159.734353 
L 261.585 158.83085 
L 260.8875 157.989346 
L 260.19 157.212885 
L 259.4925 156.504117 
L 258.795 155.865291 
L 258.0975 155.298254 
L 257.4 154.80445 
L 256.7025 154.384921 
L 256.005 154.040308 
L 255.3075 153.770865 
L 254.61 153.576461 
L 253.9125 153.456591 
L 253.215 153.410395 
L 252.5175 153.436666 
L 251.82 153.533872 
L 251.1225 153.700169 
L 250.425 153.933424 
L 249.7275 154.231236 
L 249.03 154.590955 
L 248.3325 155.009705 
L 247.635 155.484408 
L 246.9375 156.011809 
L 246.24 156.588497 
L 245.5425 157.21093 
L 244.845 157.875457 
L 244.1475 158.578348 
L 243.45 159.315806 
L 242.7525 160.083999 
L 242.055 160.879079 
L 241.3575 161.6972 
L 240.66 162.534539 
L 239.9625 163.387318 
L 239.265 164.251815 
L 238.5675 165.124388 
L 237.87 166.001481 
L 237.1725 166.879646 
L 236.475 167.755548 
L 235.7775 168.625979 
L 235.08 169.487865 
L 234.3825 170.338276 
L 233.685 171.174428 
L 232.9875 171.993691 
L 232.29 172.793592 
L 231.5925 173.571814 
L 230.895 174.326199 
L 230.1975 175.054747 
L 229.5 175.755611 
L 228.8025 176.427102 
L 228.105 177.067678 
L 227.4075 177.67594 
L 226.71 178.250634 
L 226.0125 178.790637 
L 225.315 179.294956 
L 224.6175 179.76272 
L 223.92 180.193172 
L 223.2225 180.585668 
L 222.525 180.939662 
L 221.8275 181.254708 
L 221.13 181.530446 
L 220.4325 181.766604 
L 219.735 181.962984 
L 219.0375 182.119465 
L 218.34 182.235993 
L 217.6425 182.31258 
L 216.945 182.349299 
L 216.2475 182.346285 
L 215.55 182.303728 
L 214.8525 182.221875 
L 214.155 182.101031 
L 213.4575 181.941557 
L 212.76 181.743871 
L 212.0625 181.508453 
L 211.365 181.235843 
L 210.6675 180.926647 
L 209.97 180.58154 
L 209.2725 180.201269 
L 208.575 179.786656 
L 207.8775 179.338607 
L 207.18 178.858112 
L 206.4825 178.346252 
L 205.785 177.804202 
L 205.0875 177.233239 
L 204.39 176.63474 
L 203.6925 176.010193 
L 202.995 175.361197 
L 202.2975 174.689462 
L 201.6 173.996816 
L 200.9025 173.285205 
L 200.205 172.556693 
L 199.5075 171.81346 
L 198.81 171.057803 
L 198.1125 170.292135 
L 197.415 169.518975 
L 196.7175 168.740952 
L 196.02 167.96079 
L 195.3225 167.18131 
L 194.625 166.405414 
L 193.9275 165.636079 
L 193.23 164.876346 
L 192.5325 164.129306 
L 191.835 163.398092 
L 191.1375 162.685858 
L 190.44 161.995769 
L 189.7425 161.330983 
L 189.045 160.694635 
L 188.3475 160.089817 
L 187.65 159.519564 
L 186.9525 158.986833 
L 186.255 158.494483 
L 185.5575 158.04526 
L 184.86 157.641772 
L 184.1625 157.286475 
L 183.465 156.981655 
L 182.7675 156.729403 
L 182.07 156.531605 
L 181.3725 156.389922 
L 180.675 156.305773 
L 179.9775 156.280322 
L 179.28 156.314464 
L 178.5825 156.408812 
L 177.885 156.563686 
L 177.1875 156.779106 
L 176.49 157.054782 
L 175.7925 157.39011 
L 175.095 157.784169 
L 174.3975 158.235717 
L 173.7 158.743192 
L 173.0025 159.304717 
L 172.305 159.918103 
L 171.6075 160.580854 
L 170.91 161.29018 
L 170.2125 162.043005 
L 169.515 162.835981 
L 168.8175 163.665504 
L 168.12 164.527729 
L 167.4225 165.418594 
L 166.725 166.333836 
L 166.0275 167.269013 
L 165.33 168.219533 
L 164.6325 169.180677 
L 163.935 170.147622 
L 163.2375 171.115477 
L 162.54 172.0793 
L 161.8425 173.03414 
L 161.145 173.975057 
L 160.4475 174.897153 
L 159.75 175.795609 
L 159.0525 176.665707 
L 158.355 177.502862 
L 157.6575 178.30265 
L 156.96 179.060841 
L 156.2625 179.773418 
L 155.565 180.436608 
L 154.8675 181.046904 
L 154.17 181.601092 
L 153.4725 182.096264 
L 152.775 182.529846 
L 152.0775 182.899609 
L 151.38 183.203684 
L 150.6825 183.44058 
L 149.985 183.609187 
L 149.2875 183.708788 
L 148.59 183.739062 
L 147.8925 183.700087 
L 147.195 183.592339 
L 146.4975 183.416691 
L 145.8 183.174405 
L 145.1025 182.867125 
L 144.405 182.496866 
L 143.7075 182.066001 
L 143.01 181.577244 
L 142.3125 181.033633 
L 141.615 180.438512 
L 140.9175 179.795505 
L 140.22 179.108493 
L 139.5225 178.38159 
L 138.825 177.619117 
L 138.1275 176.825569 
L 137.43 176.005587 
L 136.7325 175.163932 
L 136.035 174.305446 
L 135.3375 173.435029 
L 134.64 172.557599 
L 133.9425 171.678068 
L 133.245 170.801304 
L 132.5475 169.932104 
L 131.85 169.075163 
L 131.1525 168.235042 
L 130.455 167.416145 
L 129.7575 166.622686 
L 129.06 165.85867 
L 128.3625 165.127863 
L 127.665 164.433775 
L 126.9675 163.779638 
L 126.27 163.168389 
L 125.5725 162.602655 
L 124.875 162.084738 
L 124.1775 161.616607 
L 123.48 161.199889 
L 122.7825 160.835863 
L 122.085 160.525458 
L 121.3875 160.269249 
L 120.69 160.067466 
L 119.9925 159.919992 
L 119.295 159.826374 
L 118.5975 159.78583 
L 117.9 159.797261 
L 117.2025 159.859267 
L 116.505 159.970161 
L 115.8075 160.127985 
L 115.11 160.330534 
L 114.4125 160.575373 
L 113.715 160.859858 
L 113.0175 161.181167 
L 112.32 161.536314 
L 111.6225 161.922182 
L 110.925 162.335547 
L 110.2275 162.773102 
L 109.53 163.231485 
L 108.8325 163.707303 
L 108.135 164.197161 
L 107.4375 164.697686 
L 106.74 165.20555 
L 106.0425 165.717497 
L 105.345 166.230362 
L 104.6475 166.741094 
L 103.95 167.246779 
L 103.2525 167.744653 
L 102.555 168.232123 
L 101.8575 168.70678 
L 101.16 169.166416 
L 100.4625 169.609027 
L 99.765 170.032832 
L 99.0675 170.436273 
L 98.37 170.818024 
L 97.6725 171.17699 
L 96.975 171.512314 
L 96.2775 171.823368 
L 95.58 172.109757 
L 94.8825 172.371309 
L 94.185 172.608068 
L 93.4875 172.820288 
L 92.79 173.00842 
L 92.0925 173.173101 
L 91.395 173.315139 
L 90.6975 173.4355 
L 90 173.535289 
z
" style="fill:#e0ffff;"/>
   </g>
   <g id="line2d_19">
    <path clip-path="url(#p41de91cf73)" d="M 90 173.535289 
L 92.0925 173.173101 
L 94.185 172.608068 
L 96.2775 171.823368 
L 98.37 170.818024 
L 101.16 169.166416 
L 104.6475 166.741094 
L 110.2275 162.773102 
L 112.32 161.536314 
L 114.4125 160.575373 
L 115.8075 160.127985 
L 117.2025 159.859267 
L 118.5975 159.78583 
L 119.9925 159.919992 
L 121.3875 160.269249 
L 122.7825 160.835863 
L 124.1775 161.616607 
L 125.5725 162.602655 
L 127.665 164.433775 
L 129.7575 166.622686 
L 132.5475 169.932104 
L 138.825 177.619117 
L 140.9175 179.795505 
L 143.01 181.577244 
L 144.405 182.496866 
L 145.8 183.174405 
L 147.195 183.592339 
L 148.59 183.739062 
L 149.985 183.609187 
L 151.38 183.203684 
L 152.775 182.529846 
L 154.17 181.601092 
L 155.565 180.436608 
L 157.6575 178.30265 
L 159.75 175.795609 
L 162.54 172.0793 
L 168.12 164.527729 
L 170.2125 162.043005 
L 172.305 159.918103 
L 173.7 158.743192 
L 175.095 157.784169 
L 176.49 157.054782 
L 177.885 156.563686 
L 179.28 156.314464 
L 180.675 156.305773 
L 182.07 156.531605 
L 183.465 156.981655 
L 184.86 157.641772 
L 186.255 158.494483 
L 188.3475 160.089817 
L 190.44 161.995769 
L 193.23 164.876346 
L 202.995 175.361197 
L 205.0875 177.233239 
L 207.18 178.858112 
L 209.2725 180.201269 
L 211.365 181.235843 
L 213.4575 181.941557 
L 214.8525 182.221875 
L 216.2475 182.346285 
L 217.6425 182.31258 
L 219.0375 182.119465 
L 220.4325 181.766604 
L 221.8275 181.254708 
L 223.92 180.193172 
L 226.0125 178.790637 
L 228.105 177.067678 
L 230.1975 175.054747 
L 232.9875 171.993691 
L 236.475 167.755548 
L 242.055 160.879079 
L 244.1475 158.578348 
L 246.24 156.588497 
L 247.635 155.484408 
L 249.03 154.590955 
L 250.425 153.933424 
L 251.82 153.533872 
L 253.215 153.410395 
L 254.61 153.576461 
L 256.005 154.040308 
L 257.4 154.80445 
L 258.795 155.865291 
L 260.19 157.212885 
L 261.585 158.83085 
L 263.6775 161.713276 
L 265.77 165.049162 
L 268.56 169.974888 
L 274.14 180.041449 
L 276.2325 183.363002 
L 278.325 186.178002 
L 279.72 187.701496 
L 281.115 188.899788 
L 282.51 189.74345 
L 283.905 190.210297 
L 285.3 190.286021 
L 286.695 189.964634 
L 288.09 189.248715 
L 289.485 188.149449 
L 290.88 186.686453 
L 292.275 184.887388 
L 293.67 182.787375 
L 295.7625 179.166144 
L 298.5525 173.719946 
L 304.83 161.084865 
L 306.9225 157.438456 
L 308.3175 155.313849 
L 309.7125 153.48267 
L 311.1075 151.978955 
L 312.5025 150.829399 
L 313.8975 150.052864 
L 315.2925 149.660094 
L 316.6875 149.653628 
L 318.0825 150.027913 
L 319.4775 150.769606 
L 320.8725 151.858058 
L 322.2675 153.265954 
L 323.6625 154.960097 
L 325.755 157.953386 
L 327.8475 161.359269 
L 332.0325 168.777375 
L 335.52 174.826718 
L 337.6125 178.099879 
L 339.705 180.960309 
L 341.1 182.591598 
L 342.495 183.977298 
L 343.89 185.101834 
L 345.285 185.954873 
L 346.68 186.531189 
L 348.075 186.830429 
L 349.47 186.856786 
L 350.865 186.6186 
L 352.26 186.127915 
L 353.655 185.399993 
L 355.05 184.452812 
L 357.1425 182.665604 
L 359.235 180.505939 
L 362.025 177.186525 
L 365.5125 172.607573 
L 371.79 164.300708 
L 374.58 161.021155 
L 376.6725 158.871565 
L 378.765 157.05653 
L 380.8575 155.63187 
L 382.2525 154.923494 
L 383.6475 154.423094 
L 385.0425 154.141307 
L 386.4375 154.086605 
L 387.8325 154.265007 
L 389.2275 154.679783 
L 390.6225 155.331155 
L 392.0175 156.216021 
L 393.4125 157.327716 
L 394.8075 158.655809 
L 396.9 161.021278 
L 398.9925 163.775473 
L 401.7825 167.903692 
L 410.1525 180.833546 
L 412.245 183.504121 
L 413.64 185.022792 
L 415.035 186.292517 
L 416.43 187.283688 
L 417.825 187.971432 
L 419.22 188.336338 
L 420.615 188.365097 
L 422.01 188.050998 
L 423.405 187.394296 
L 424.8 186.40241 
L 426.195 185.08996 
L 427.59 183.478615 
L 428.985 181.596771 
L 431.0775 178.344111 
L 433.8675 173.428006 
L 440.8425 160.726773 
L 442.935 157.518241 
L 444.33 155.681195 
L 445.725 154.130094 
L 447.12 152.895995 
L 448.515 152.002943 
L 449.91 151.46742 
L 451.305 151.29798 
L 452.7 151.495085 
L 454.095 152.051143 
L 455.49 152.950747 
L 456.885 154.171106 
L 458.28 155.682665 
L 460.3725 158.416838 
L 462.465 161.584798 
L 465.9525 167.395872 
L 470.1375 174.299761 
L 472.23 177.360063 
L 474.3225 179.985065 
L 475.7175 181.443521 
L 477.1125 182.642702 
L 478.5075 183.567489 
L 479.9025 184.209302 
L 481.2975 184.566033 
L 482.6925 184.641818 
L 484.0875 184.446654 
L 485.4825 183.995881 
L 486.8775 183.309543 
L 488.2725 182.411664 
L 490.365 180.728384 
L 492.4575 178.731714 
L 495.945 174.995947 
L 500.8275 169.693405 
L 503.6175 166.992149 
L 505.71 165.233666 
L 507.8025 163.745951 
L 509.895 162.549093 
L 511.9875 161.649177 
L 514.08 161.040859 
L 516.1725 160.710335 
L 518.265 160.638387 
L 520.3575 160.803197 
L 522.45 161.18269 
L 524.5425 161.756199 
L 527.3325 162.791275 
L 530.1225 164.101589 
L 532.9125 165.653834 
L 536.4 167.8794 
L 540.585 170.841197 
L 546.8625 175.330749 
L 549.6525 177.063732 
L 551.745 178.145064 
L 553.8375 178.978315 
L 555.93 179.513732 
L 557.325 179.684463 
L 558.72 179.695048 
L 560.115 179.539092 
L 561.51 179.213447 
L 562.905 178.718507 
L 564.9975 177.66878 
L 567.09 176.278581 
L 569.1825 174.597225 
L 571.9725 172.020173 
L 579.645 164.583822 
L 581.7375 162.913967 
L 583.83 161.563012 
L 585.225 160.872568 
L 586.62 160.367765 
L 588.015 160.058652 
L 589.41 159.950562 
L 590.805 160.04395 
L 592.2 160.334382 
L 593.595 160.812649 
L 594.99 161.465038 
L 597.0825 162.730084 
L 599.175 164.271171 
L 602.6625 167.210079 
L 607.545 171.35441 
L 609.6375 172.890562 
L 611.73 174.177696 
L 613.8225 175.166806 
L 615.915 175.830029 
L 618.0075 176.161461 
L 620.1 176.176394 
L 622.1925 175.909074 
L 624.285 175.409159 
L 627.075 174.486338 
L 636.1425 171.207616 
L 638.9325 170.548392 
L 641.7225 170.140829 
L 644.5125 169.955476 
L 646.605 169.92 
L 646.605 169.92 
" style="fill:none;stroke:#008080;stroke-linecap:round;stroke-width:1.75;"/>
   </g>
   <g id="patch_3">
    <path d="M 90 270.72 
L 90 69.12 
" style="fill:none;stroke:#262626;stroke-linecap:square;stroke-linejoin:miter;stroke-width:1.25;"/>
   </g>
   <g id="patch_4">
    <path d="M 90 270.72 
L 648 270.72 
" style="fill:none;stroke:#262626;stroke-linecap:square;stroke-linejoin:miter;stroke-width:1.25;"/>
   </g>
  </g>
  <g id="axes_2">
   <g id="patch_5">
    <path d="M 90 512.64 
L 648 512.64 
L 648 311.04 
L 90 311.04 
z
" style="fill:#ffffff;"/>
   </g>
   <g id="matplotlib.axis_3">
    <g id="xtick_10">
     <g id="line2d_20">
      <g>
       <use style="fill:#262626;stroke:#262626;" x="191.454545" xlink:href="#m5005b5959b" y="512.64"/>
      </g>
     </g>
     <g id="text_19">
      <!-- 200 -->
      <g style="fill:#262626;" transform="translate(183.113139 532.797812)scale(0.1 -0.1)">
       <use xlink:href="#ArialMT-32"/>
       <use x="55.615234" xlink:href="#ArialMT-30"/>
       <use x="111.230469" xlink:href="#ArialMT-30"/>
      </g>
     </g>
    </g>
    <g id="xtick_11">
     <g id="line2d_21">
      <g>
       <use style="fill:#262626;stroke:#262626;" x="304.181818" xlink:href="#m5005b5959b" y="512.64"/>
      </g>
     </g>
     <g id="text_20">
      <!-- 400 -->
      <g style="fill:#262626;" transform="translate(295.840412 532.797812)scale(0.1 -0.1)">
       <use xlink:href="#ArialMT-34"/>
       <use x="55.615234" xlink:href="#ArialMT-30"/>
       <use x="111.230469" xlink:href="#ArialMT-30"/>
      </g>
     </g>
    </g>
    <g id="xtick_12">
     <g id="line2d_22">
      <g>
       <use style="fill:#262626;stroke:#262626;" x="416.909091" xlink:href="#m5005b5959b" y="512.64"/>
      </g>
     </g>
     <g id="text_21">
      <!-- 600 -->
      <g style="fill:#262626;" transform="translate(408.567685 532.797812)scale(0.1 -0.1)">
       <use xlink:href="#ArialMT-36"/>
       <use x="55.615234" xlink:href="#ArialMT-30"/>
       <use x="111.230469" xlink:href="#ArialMT-30"/>
      </g>
     </g>
    </g>
    <g id="xtick_13">
     <g id="line2d_23">
      <g>
       <use style="fill:#262626;stroke:#262626;" x="529.636364" xlink:href="#m5005b5959b" y="512.64"/>
      </g>
     </g>
     <g id="text_22">
      <!-- 800 -->
      <g style="fill:#262626;" transform="translate(521.294957 532.797812)scale(0.1 -0.1)">
       <use xlink:href="#ArialMT-38"/>
       <use x="55.615234" xlink:href="#ArialMT-30"/>
       <use x="111.230469" xlink:href="#ArialMT-30"/>
      </g>
     </g>
    </g>
    <g id="xtick_14">
     <g id="line2d_24">
      <g>
       <use style="fill:#262626;stroke:#262626;" x="642.363636" xlink:href="#m5005b5959b" y="512.64"/>
      </g>
     </g>
     <g id="text_23">
      <!-- 1000 -->
      <g style="fill:#262626;" transform="translate(631.241761 532.797812)scale(0.1 -0.1)">
       <use xlink:href="#ArialMT-31"/>
       <use x="55.615234" xlink:href="#ArialMT-30"/>
       <use x="111.230469" xlink:href="#ArialMT-30"/>
       <use x="166.845703" xlink:href="#ArialMT-30"/>
      </g>
     </g>
    </g>
   </g>
   <g id="matplotlib.axis_4">
    <g id="ytick_10">
     <g id="line2d_25">
      <g>
       <use style="fill:#262626;stroke:#262626;" x="90" xlink:href="#m77adfbb8dd" y="512.64"/>
      </g>
     </g>
     <g id="text_24">
      <!-- 0 -->
      <g style="fill:#262626;" transform="translate(71.439063 516.218906)scale(0.1 -0.1)">
       <use xlink:href="#ArialMT-30"/>
      </g>
     </g>
    </g>
    <g id="ytick_11">
     <g id="line2d_26">
      <g>
       <use style="fill:#262626;stroke:#262626;" x="90" xlink:href="#m77adfbb8dd" y="487.44"/>
      </g>
     </g>
     <g id="text_25">
      <!-- 5 -->
      <g style="fill:#262626;" transform="translate(71.439063 491.018906)scale(0.1 -0.1)">
       <use xlink:href="#ArialMT-35"/>
      </g>
     </g>
    </g>
    <g id="ytick_12">
     <g id="line2d_27">
      <g>
       <use style="fill:#262626;stroke:#262626;" x="90" xlink:href="#m77adfbb8dd" y="462.24"/>
      </g>
     </g>
     <g id="text_26">
      <!-- 10 -->
      <g style="fill:#262626;" transform="translate(65.878125 465.818906)scale(0.1 -0.1)">
       <use xlink:href="#ArialMT-31"/>
       <use x="55.615234" xlink:href="#ArialMT-30"/>
      </g>
     </g>
    </g>
    <g id="ytick_13">
     <g id="line2d_28">
      <g>
       <use style="fill:#262626;stroke:#262626;" x="90" xlink:href="#m77adfbb8dd" y="437.04"/>
      </g>
     </g>
     <g id="text_27">
      <!-- 15 -->
      <g style="fill:#262626;" transform="translate(65.878125 440.618906)scale(0.1 -0.1)">
       <use xlink:href="#ArialMT-31"/>
       <use x="55.615234" xlink:href="#ArialMT-35"/>
      </g>
     </g>
    </g>
    <g id="ytick_14">
     <g id="line2d_29">
      <g>
       <use style="fill:#262626;stroke:#262626;" x="90" xlink:href="#m77adfbb8dd" y="411.84"/>
      </g>
     </g>
     <g id="text_28">
      <!-- 20 -->
      <g style="fill:#262626;" transform="translate(65.878125 415.418906)scale(0.1 -0.1)">
       <use xlink:href="#ArialMT-32"/>
       <use x="55.615234" xlink:href="#ArialMT-30"/>
      </g>
     </g>
    </g>
    <g id="ytick_15">
     <g id="line2d_30">
      <g>
       <use style="fill:#262626;stroke:#262626;" x="90" xlink:href="#m77adfbb8dd" y="386.64"/>
      </g>
     </g>
     <g id="text_29">
      <!-- 25 -->
      <g style="fill:#262626;" transform="translate(65.878125 390.218906)scale(0.1 -0.1)">
       <use xlink:href="#ArialMT-32"/>
       <use x="55.615234" xlink:href="#ArialMT-35"/>
      </g>
     </g>
    </g>
    <g id="ytick_16">
     <g id="line2d_31">
      <g>
       <use style="fill:#262626;stroke:#262626;" x="90" xlink:href="#m77adfbb8dd" y="361.44"/>
      </g>
     </g>
     <g id="text_30">
      <!-- 30 -->
      <g style="fill:#262626;" transform="translate(65.878125 365.018906)scale(0.1 -0.1)">
       <use xlink:href="#ArialMT-33"/>
       <use x="55.615234" xlink:href="#ArialMT-30"/>
      </g>
     </g>
    </g>
    <g id="ytick_17">
     <g id="line2d_32">
      <g>
       <use style="fill:#262626;stroke:#262626;" x="90" xlink:href="#m77adfbb8dd" y="336.24"/>
      </g>
     </g>
     <g id="text_31">
      <!-- 35 -->
      <g style="fill:#262626;" transform="translate(65.878125 339.818906)scale(0.1 -0.1)">
       <use xlink:href="#ArialMT-33"/>
       <use x="55.615234" xlink:href="#ArialMT-35"/>
      </g>
     </g>
    </g>
    <g id="ytick_18">
     <g id="line2d_33">
      <g>
       <use style="fill:#262626;stroke:#262626;" x="90" xlink:href="#m77adfbb8dd" y="311.04"/>
      </g>
     </g>
     <g id="text_32">
      <!-- 40 -->
      <g style="fill:#262626;" transform="translate(65.878125 314.618906)scale(0.1 -0.1)">
       <use xlink:href="#ArialMT-34"/>
       <use x="55.615234" xlink:href="#ArialMT-30"/>
      </g>
     </g>
    </g>
   </g>
   <g id="line2d_34">
    <path clip-path="url(#p307c38f514)" d="M 90 488.562059 
L 95.636364 492.871917 
L 101.272727 491.915277 
L 106.909091 490.291312 
L 112.545455 492.192009 
L 118.181818 490.692663 
L 123.818182 490.203121 
L 129.454545 491.968658 
L 135.090909 490.163889 
L 140.727273 490.392837 
L 146.363636 490.241829 
L 152 489.156296 
L 157.636364 490.240305 
L 163.272727 490.645166 
L 168.909091 488.187222 
L 174.545455 488.633986 
L 180.181818 487.313077 
L 185.818182 487.018973 
L 191.454545 487.338343 
L 197.090909 486.121391 
L 202.727273 487.201243 
L 208.363636 484.042031 
L 214 483.157918 
L 219.636364 483.169266 
L 225.272727 482.846357 
L 230.909091 480.992047 
L 236.545455 479.145187 
L 242.181818 476.443916 
L 247.818182 475.314111 
L 253.454545 475.654125 
L 259.090909 473.305387 
L 264.727273 469.316541 
L 270.363636 463.226508 
L 276 459.185057 
L 281.636364 457.614718 
L 287.272727 454.794335 
L 292.909091 445.504843 
L 298.545455 423.732573 
L 304.181818 397.596726 
L 309.818182 374.961344 
L 315.454545 359.936381 
L 321.090909 350.604229 
L 326.727273 348.320806 
L 332.363636 355.280194 
L 338 371.866917 
L 343.636364 395.340341 
L 349.272727 419.997954 
L 354.909091 443.187999 
" style="fill:none;stroke:#b22222;stroke-linecap:round;stroke-width:1.75;"/>
   </g>
   <g id="patch_6">
    <path d="M 90 512.64 
L 90 311.04 
" style="fill:none;stroke:#262626;stroke-linecap:square;stroke-linejoin:miter;stroke-width:1.25;"/>
   </g>
   <g id="patch_7">
    <path d="M 90 512.64 
L 648 512.64 
" style="fill:none;stroke:#262626;stroke-linecap:square;stroke-linejoin:miter;stroke-width:1.25;"/>
   </g>
   <g id="text_33">
    <!-- f = 490 Hz -->
    <defs>
     <path d="M 8.6875 0 
L 8.6875 45.015625 
L 0.921875 45.015625 
L 0.921875 51.859375 
L 8.6875 51.859375 
L 8.6875 57.375 
Q 8.6875 62.59375 9.625 65.140625 
Q 10.890625 68.5625 14.078125 70.671875 
Q 17.28125 72.796875 23.046875 72.796875 
Q 26.765625 72.796875 31.25 71.921875 
L 29.9375 64.265625 
Q 27.203125 64.75 24.75 64.75 
Q 20.75 64.75 19.09375 63.03125 
Q 17.4375 61.328125 17.4375 56.640625 
L 17.4375 51.859375 
L 27.546875 51.859375 
L 27.546875 45.015625 
L 17.4375 45.015625 
L 17.4375 0 
z
" id="ArialMT-66"/>
     <path id="ArialMT-20"/>
     <path d="M 52.828125 42.09375 
L 5.5625 42.09375 
L 5.5625 50.296875 
L 52.828125 50.296875 
z
M 52.828125 20.359375 
L 5.5625 20.359375 
L 5.5625 28.5625 
L 52.828125 28.5625 
z
" id="ArialMT-3d"/>
     <path d="M 5.46875 16.546875 
L 13.921875 17.328125 
Q 14.984375 11.375 18.015625 8.6875 
Q 21.046875 6 25.78125 6 
Q 29.828125 6 32.875 7.859375 
Q 35.9375 9.71875 37.890625 12.8125 
Q 39.84375 15.921875 41.15625 21.1875 
Q 42.484375 26.46875 42.484375 31.9375 
Q 42.484375 32.515625 42.4375 33.6875 
Q 39.796875 29.5 35.234375 26.875 
Q 30.671875 24.265625 25.34375 24.265625 
Q 16.453125 24.265625 10.296875 30.703125 
Q 4.15625 37.15625 4.15625 47.703125 
Q 4.15625 58.59375 10.578125 65.234375 
Q 17 71.875 26.65625 71.875 
Q 33.640625 71.875 39.421875 68.109375 
Q 45.21875 64.359375 48.21875 57.390625 
Q 51.21875 50.4375 51.21875 37.25 
Q 51.21875 23.53125 48.234375 15.40625 
Q 45.265625 7.28125 39.375 3.03125 
Q 33.5 -1.21875 25.59375 -1.21875 
Q 17.1875 -1.21875 11.859375 3.4375 
Q 6.546875 8.109375 5.46875 16.546875 
z
M 41.453125 48.140625 
Q 41.453125 55.71875 37.421875 60.15625 
Q 33.40625 64.59375 27.734375 64.59375 
Q 21.875 64.59375 17.53125 59.8125 
Q 13.1875 55.03125 13.1875 47.40625 
Q 13.1875 40.578125 17.3125 36.296875 
Q 21.4375 32.03125 27.484375 32.03125 
Q 33.59375 32.03125 37.515625 36.296875 
Q 41.453125 40.578125 41.453125 48.140625 
z
" id="ArialMT-39"/>
     <path d="M 8.015625 0 
L 8.015625 71.578125 
L 17.484375 71.578125 
L 17.484375 42.1875 
L 54.6875 42.1875 
L 54.6875 71.578125 
L 64.15625 71.578125 
L 64.15625 0 
L 54.6875 0 
L 54.6875 33.734375 
L 17.484375 33.734375 
L 17.484375 0 
z
" id="ArialMT-48"/>
     <path d="M 1.953125 0 
L 1.953125 7.125 
L 34.96875 45.015625 
Q 29.34375 44.734375 25.046875 44.734375 
L 3.90625 44.734375 
L 3.90625 51.859375 
L 46.296875 51.859375 
L 46.296875 46.046875 
L 18.21875 13.140625 
L 12.796875 7.125 
Q 18.703125 7.5625 23.875 7.5625 
L 47.859375 7.5625 
L 47.859375 0 
z
" id="ArialMT-7a"/>
    </defs>
    <g style="fill:#262626;" transform="translate(529.636364 364.542187)scale(0.12 -0.12)">
     <use xlink:href="#ArialMT-66"/>
     <use x="27.783203" xlink:href="#ArialMT-20"/>
     <use x="55.566406" xlink:href="#ArialMT-3d"/>
     <use x="113.964844" xlink:href="#ArialMT-20"/>
     <use x="141.748047" xlink:href="#ArialMT-34"/>
     <use x="197.363281" xlink:href="#ArialMT-39"/>
     <use x="252.978516" xlink:href="#ArialMT-30"/>
     <use x="308.59375" xlink:href="#ArialMT-20"/>
     <use x="336.376953" xlink:href="#ArialMT-48"/>
     <use x="408.59375" xlink:href="#ArialMT-7a"/>
    </g>
   </g>
   <g id="PathCollection_1">
    <defs>
     <path d="M 0 3.5 
C 0.928211 3.5 1.81853 3.131218 2.474874 2.474874 
C 3.131218 1.81853 3.5 0.928211 3.5 0 
C 3.5 -0.928211 3.131218 -1.81853 2.474874 -2.474874 
C 1.81853 -3.131218 0.928211 -3.5 0 -3.5 
C -0.928211 -3.5 -1.81853 -3.131218 -2.474874 -2.474874 
C -3.131218 -1.81853 -3.5 -0.928211 -3.5 0 
C -3.5 0.928211 -3.131218 1.81853 -2.474874 2.474874 
C -1.81853 3.131218 -0.928211 3.5 0 3.5 
z
" id="me2de602e7d" style="stroke:#800000;stroke-width:0.3;"/>
    </defs>
    <g clip-path="url(#p307c38f514)">
     <use style="fill:#800000;stroke:#800000;stroke-width:0.3;" x="354.909091" xlink:href="#me2de602e7d" y="443.187999"/>
    </g>
   </g>
  </g>
 </g>
 <defs>
  <clipPath id="p41de91cf73">
   <rect height="201.6" width="558" x="90" y="69.12"/>
  </clipPath>
  <clipPath id="p307c38f514">
   <rect height="201.6" width="558" x="90" y="311.04"/>
  </clipPath>
 </defs>
</svg>
