<?xml version="1.0" encoding="utf-8" standalone="no"?>
<!DOCTYPE svg PUBLIC "-//W3C//DTD SVG 1.1//EN"
  "http://www.w3.org/Graphics/SVG/1.1/DTD/svg11.dtd">
<!-- Created with matplotlib (http://matplotlib.org/) -->
<svg height="576pt" version="1.1" viewBox="0 0 720 576" width="720pt" xmlns="http://www.w3.org/2000/svg" xmlns:xlink="http://www.w3.org/1999/xlink">
 <defs>
  <style type="text/css">
*{stroke-linecap:butt;stroke-linejoin:round;}
  </style>
 </defs>
 <g id="figure_1">
  <g id="patch_1">
   <path d="M 0 576 
L 720 576 
L 720 0 
L 0 0 
z
" style="fill:#ffffff;"/>
  </g>
  <g id="axes_1">
   <g id="patch_2">
    <path d="M 90 270.72 
L 648 270.72 
L 648 69.12 
L 90 69.12 
z
" style="fill:#ffffff;"/>
   </g>
   <g id="matplotlib.axis_1">
    <g id="xtick_1">
     <g id="line2d_1">
      <defs>
       <path d="M 0 0 
L 0 6 
" id="m3ce5d9b22f" style="stroke:#262626;"/>
      </defs>
      <g>
       <use style="fill:#262626;stroke:#262626;" x="90" xlink:href="#m3ce5d9b22f" y="270.72"/>
      </g>
     </g>
     <g id="text_1">
      <!-- 0 -->
      <defs>
       <path d="M 4.15625 35.296875 
Q 4.15625 48 6.765625 55.734375 
Q 9.375 63.484375 14.515625 67.671875 
Q 19.671875 71.875 27.484375 71.875 
Q 33.25 71.875 37.59375 69.546875 
Q 41.9375 67.234375 44.765625 62.859375 
Q 47.609375 58.5 49.21875 52.21875 
Q 50.828125 45.953125 50.828125 35.296875 
Q 50.828125 22.703125 48.234375 14.96875 
Q 45.65625 7.234375 40.5 3 
Q 35.359375 -1.21875 27.484375 -1.21875 
Q 17.140625 -1.21875 11.234375 6.203125 
Q 4.15625 15.140625 4.15625 35.296875 
z
M 13.1875 35.296875 
Q 13.1875 17.671875 17.3125 11.828125 
Q 21.4375 6 27.484375 6 
Q 33.546875 6 37.671875 11.859375 
Q 41.796875 17.71875 41.796875 35.296875 
Q 41.796875 52.984375 37.671875 58.78125 
Q 33.546875 64.59375 27.390625 64.59375 
Q 21.34375 64.59375 17.71875 59.46875 
Q 13.1875 52.9375 13.1875 35.296875 
z
" id="ArialMT-30"/>
      </defs>
      <g style="fill:#262626;" transform="translate(87.219531 290.877812)scale(0.1 -0.1)">
       <use xlink:href="#ArialMT-30"/>
      </g>
     </g>
    </g>
    <g id="xtick_2">
     <g id="line2d_2">
      <g>
       <use style="fill:#262626;stroke:#262626;" x="159.75" xlink:href="#m3ce5d9b22f" y="270.72"/>
      </g>
     </g>
     <g id="text_2">
      <!-- 100 -->
      <defs>
       <path d="M 37.25 0 
L 28.46875 0 
L 28.46875 56 
Q 25.296875 52.984375 20.140625 49.953125 
Q 14.984375 46.921875 10.890625 45.40625 
L 10.890625 53.90625 
Q 18.265625 57.375 23.78125 62.296875 
Q 29.296875 67.234375 31.59375 71.875 
L 37.25 71.875 
z
" id="ArialMT-31"/>
      </defs>
      <g style="fill:#262626;" transform="translate(151.408594 290.877812)scale(0.1 -0.1)">
       <use xlink:href="#ArialMT-31"/>
       <use x="55.615234" xlink:href="#ArialMT-30"/>
       <use x="111.230469" xlink:href="#ArialMT-30"/>
      </g>
     </g>
    </g>
    <g id="xtick_3">
     <g id="line2d_3">
      <g>
       <use style="fill:#262626;stroke:#262626;" x="229.5" xlink:href="#m3ce5d9b22f" y="270.72"/>
      </g>
     </g>
     <g id="text_3">
      <!-- 200 -->
      <defs>
       <path d="M 50.34375 8.453125 
L 50.34375 0 
L 3.03125 0 
Q 2.9375 3.171875 4.046875 6.109375 
Q 5.859375 10.9375 9.828125 15.625 
Q 13.8125 20.3125 21.34375 26.46875 
Q 33.015625 36.03125 37.109375 41.625 
Q 41.21875 47.21875 41.21875 52.203125 
Q 41.21875 57.421875 37.46875 61 
Q 33.734375 64.59375 27.734375 64.59375 
Q 21.390625 64.59375 17.578125 60.78125 
Q 13.765625 56.984375 13.71875 50.25 
L 4.6875 51.171875 
Q 5.609375 61.28125 11.65625 66.578125 
Q 17.71875 71.875 27.9375 71.875 
Q 38.234375 71.875 44.234375 66.15625 
Q 50.25 60.453125 50.25 52 
Q 50.25 47.703125 48.484375 43.546875 
Q 46.734375 39.40625 42.65625 34.8125 
Q 38.578125 30.21875 29.109375 22.21875 
Q 21.1875 15.578125 18.9375 13.203125 
Q 16.703125 10.84375 15.234375 8.453125 
z
" id="ArialMT-32"/>
      </defs>
      <g style="fill:#262626;" transform="translate(221.158594 290.877812)scale(0.1 -0.1)">
       <use xlink:href="#ArialMT-32"/>
       <use x="55.615234" xlink:href="#ArialMT-30"/>
       <use x="111.230469" xlink:href="#ArialMT-30"/>
      </g>
     </g>
    </g>
    <g id="xtick_4">
     <g id="line2d_4">
      <g>
       <use style="fill:#262626;stroke:#262626;" x="299.25" xlink:href="#m3ce5d9b22f" y="270.72"/>
      </g>
     </g>
     <g id="text_4">
      <!-- 300 -->
      <defs>
       <path d="M 4.203125 18.890625 
L 12.984375 20.0625 
Q 14.5 12.59375 18.140625 9.296875 
Q 21.78125 6 27 6 
Q 33.203125 6 37.46875 10.296875 
Q 41.75 14.59375 41.75 20.953125 
Q 41.75 27 37.796875 30.921875 
Q 33.84375 34.859375 27.734375 34.859375 
Q 25.25 34.859375 21.53125 33.890625 
L 22.515625 41.609375 
Q 23.390625 41.5 23.921875 41.5 
Q 29.546875 41.5 34.03125 44.421875 
Q 38.53125 47.359375 38.53125 53.46875 
Q 38.53125 58.296875 35.25 61.46875 
Q 31.984375 64.65625 26.8125 64.65625 
Q 21.6875 64.65625 18.265625 61.421875 
Q 14.84375 58.203125 13.875 51.765625 
L 5.078125 53.328125 
Q 6.6875 62.15625 12.390625 67.015625 
Q 18.109375 71.875 26.609375 71.875 
Q 32.46875 71.875 37.390625 69.359375 
Q 42.328125 66.84375 44.9375 62.5 
Q 47.5625 58.15625 47.5625 53.265625 
Q 47.5625 48.640625 45.0625 44.828125 
Q 42.578125 41.015625 37.703125 38.765625 
Q 44.046875 37.3125 47.5625 32.6875 
Q 51.078125 28.078125 51.078125 21.140625 
Q 51.078125 11.765625 44.234375 5.25 
Q 37.40625 -1.265625 26.953125 -1.265625 
Q 17.53125 -1.265625 11.296875 4.34375 
Q 5.078125 9.96875 4.203125 18.890625 
z
" id="ArialMT-33"/>
      </defs>
      <g style="fill:#262626;" transform="translate(290.908594 290.877812)scale(0.1 -0.1)">
       <use xlink:href="#ArialMT-33"/>
       <use x="55.615234" xlink:href="#ArialMT-30"/>
       <use x="111.230469" xlink:href="#ArialMT-30"/>
      </g>
     </g>
    </g>
    <g id="xtick_5">
     <g id="line2d_5">
      <g>
       <use style="fill:#262626;stroke:#262626;" x="369" xlink:href="#m3ce5d9b22f" y="270.72"/>
      </g>
     </g>
     <g id="text_5">
      <!-- 400 -->
      <defs>
       <path d="M 32.328125 0 
L 32.328125 17.140625 
L 1.265625 17.140625 
L 1.265625 25.203125 
L 33.9375 71.578125 
L 41.109375 71.578125 
L 41.109375 25.203125 
L 50.78125 25.203125 
L 50.78125 17.140625 
L 41.109375 17.140625 
L 41.109375 0 
z
M 32.328125 25.203125 
L 32.328125 57.46875 
L 9.90625 25.203125 
z
" id="ArialMT-34"/>
      </defs>
      <g style="fill:#262626;" transform="translate(360.658594 290.877812)scale(0.1 -0.1)">
       <use xlink:href="#ArialMT-34"/>
       <use x="55.615234" xlink:href="#ArialMT-30"/>
       <use x="111.230469" xlink:href="#ArialMT-30"/>
      </g>
     </g>
    </g>
    <g id="xtick_6">
     <g id="line2d_6">
      <g>
       <use style="fill:#262626;stroke:#262626;" x="438.75" xlink:href="#m3ce5d9b22f" y="270.72"/>
      </g>
     </g>
     <g id="text_6">
      <!-- 500 -->
      <defs>
       <path d="M 4.15625 18.75 
L 13.375 19.53125 
Q 14.40625 12.796875 18.140625 9.390625 
Q 21.875 6 27.15625 6 
Q 33.5 6 37.890625 10.78125 
Q 42.28125 15.578125 42.28125 23.484375 
Q 42.28125 31 38.0625 35.34375 
Q 33.84375 39.703125 27 39.703125 
Q 22.75 39.703125 19.328125 37.765625 
Q 15.921875 35.84375 13.96875 32.765625 
L 5.71875 33.84375 
L 12.640625 70.609375 
L 48.25 70.609375 
L 48.25 62.203125 
L 19.671875 62.203125 
L 15.828125 42.96875 
Q 22.265625 47.46875 29.34375 47.46875 
Q 38.71875 47.46875 45.15625 40.96875 
Q 51.609375 34.46875 51.609375 24.265625 
Q 51.609375 14.546875 45.953125 7.46875 
Q 39.0625 -1.21875 27.15625 -1.21875 
Q 17.390625 -1.21875 11.203125 4.25 
Q 5.03125 9.71875 4.15625 18.75 
z
" id="ArialMT-35"/>
      </defs>
      <g style="fill:#262626;" transform="translate(430.408594 290.877812)scale(0.1 -0.1)">
       <use xlink:href="#ArialMT-35"/>
       <use x="55.615234" xlink:href="#ArialMT-30"/>
       <use x="111.230469" xlink:href="#ArialMT-30"/>
      </g>
     </g>
    </g>
    <g id="xtick_7">
     <g id="line2d_7">
      <g>
       <use style="fill:#262626;stroke:#262626;" x="508.5" xlink:href="#m3ce5d9b22f" y="270.72"/>
      </g>
     </g>
     <g id="text_7">
      <!-- 600 -->
      <defs>
       <path d="M 49.75 54.046875 
L 41.015625 53.375 
Q 39.84375 58.546875 37.703125 60.890625 
Q 34.125 64.65625 28.90625 64.65625 
Q 24.703125 64.65625 21.53125 62.3125 
Q 17.390625 59.28125 14.984375 53.46875 
Q 12.59375 47.65625 12.5 36.921875 
Q 15.671875 41.75 20.265625 44.09375 
Q 24.859375 46.4375 29.890625 46.4375 
Q 38.671875 46.4375 44.84375 39.96875 
Q 51.03125 33.5 51.03125 23.25 
Q 51.03125 16.5 48.125 10.71875 
Q 45.21875 4.9375 40.140625 1.859375 
Q 35.0625 -1.21875 28.609375 -1.21875 
Q 17.625 -1.21875 10.6875 6.859375 
Q 3.765625 14.9375 3.765625 33.5 
Q 3.765625 54.25 11.421875 63.671875 
Q 18.109375 71.875 29.4375 71.875 
Q 37.890625 71.875 43.28125 67.140625 
Q 48.6875 62.40625 49.75 54.046875 
z
M 13.875 23.1875 
Q 13.875 18.65625 15.796875 14.5 
Q 17.71875 10.359375 21.1875 8.171875 
Q 24.65625 6 28.46875 6 
Q 34.03125 6 38.03125 10.484375 
Q 42.046875 14.984375 42.046875 22.703125 
Q 42.046875 30.125 38.078125 34.390625 
Q 34.125 38.671875 28.125 38.671875 
Q 22.171875 38.671875 18.015625 34.390625 
Q 13.875 30.125 13.875 23.1875 
z
" id="ArialMT-36"/>
      </defs>
      <g style="fill:#262626;" transform="translate(500.158594 290.877812)scale(0.1 -0.1)">
       <use xlink:href="#ArialMT-36"/>
       <use x="55.615234" xlink:href="#ArialMT-30"/>
       <use x="111.230469" xlink:href="#ArialMT-30"/>
      </g>
     </g>
    </g>
    <g id="xtick_8">
     <g id="line2d_8">
      <g>
       <use style="fill:#262626;stroke:#262626;" x="578.25" xlink:href="#m3ce5d9b22f" y="270.72"/>
      </g>
     </g>
     <g id="text_8">
      <!-- 700 -->
      <defs>
       <path d="M 4.734375 62.203125 
L 4.734375 70.65625 
L 51.078125 70.65625 
L 51.078125 63.8125 
Q 44.234375 56.546875 37.515625 44.484375 
Q 30.8125 32.421875 27.15625 19.671875 
Q 24.515625 10.6875 23.78125 0 
L 14.75 0 
Q 14.890625 8.453125 18.0625 20.40625 
Q 21.234375 32.375 27.171875 43.484375 
Q 33.109375 54.59375 39.796875 62.203125 
z
" id="ArialMT-37"/>
      </defs>
      <g style="fill:#262626;" transform="translate(569.908594 290.877812)scale(0.1 -0.1)">
       <use xlink:href="#ArialMT-37"/>
       <use x="55.615234" xlink:href="#ArialMT-30"/>
       <use x="111.230469" xlink:href="#ArialMT-30"/>
      </g>
     </g>
    </g>
    <g id="xtick_9">
     <g id="line2d_9">
      <g>
       <use style="fill:#262626;stroke:#262626;" x="648" xlink:href="#m3ce5d9b22f" y="270.72"/>
      </g>
     </g>
     <g id="text_9">
      <!-- 800 -->
      <defs>
       <path d="M 17.671875 38.8125 
Q 12.203125 40.828125 9.5625 44.53125 
Q 6.9375 48.25 6.9375 53.421875 
Q 6.9375 61.234375 12.546875 66.546875 
Q 18.171875 71.875 27.484375 71.875 
Q 36.859375 71.875 42.578125 66.421875 
Q 48.296875 60.984375 48.296875 53.171875 
Q 48.296875 48.1875 45.671875 44.5 
Q 43.0625 40.828125 37.75 38.8125 
Q 44.34375 36.671875 47.78125 31.875 
Q 51.21875 27.09375 51.21875 20.453125 
Q 51.21875 11.28125 44.71875 5.03125 
Q 38.234375 -1.21875 27.640625 -1.21875 
Q 17.046875 -1.21875 10.546875 5.046875 
Q 4.046875 11.328125 4.046875 20.703125 
Q 4.046875 27.6875 7.59375 32.390625 
Q 11.140625 37.109375 17.671875 38.8125 
z
M 15.921875 53.71875 
Q 15.921875 48.640625 19.1875 45.40625 
Q 22.46875 42.1875 27.6875 42.1875 
Q 32.765625 42.1875 36.015625 45.375 
Q 39.265625 48.578125 39.265625 53.21875 
Q 39.265625 58.0625 35.90625 61.359375 
Q 32.5625 64.65625 27.59375 64.65625 
Q 22.5625 64.65625 19.234375 61.421875 
Q 15.921875 58.203125 15.921875 53.71875 
z
M 13.09375 20.65625 
Q 13.09375 16.890625 14.875 13.375 
Q 16.65625 9.859375 20.171875 7.921875 
Q 23.6875 6 27.734375 6 
Q 34.03125 6 38.125 10.046875 
Q 42.234375 14.109375 42.234375 20.359375 
Q 42.234375 26.703125 38.015625 30.859375 
Q 33.796875 35.015625 27.4375 35.015625 
Q 21.234375 35.015625 17.15625 30.90625 
Q 13.09375 26.8125 13.09375 20.65625 
z
" id="ArialMT-38"/>
      </defs>
      <g style="fill:#262626;" transform="translate(639.658594 290.877812)scale(0.1 -0.1)">
       <use xlink:href="#ArialMT-38"/>
       <use x="55.615234" xlink:href="#ArialMT-30"/>
       <use x="111.230469" xlink:href="#ArialMT-30"/>
      </g>
     </g>
    </g>
   </g>
   <g id="matplotlib.axis_2">
    <g id="ytick_1">
     <g id="line2d_10">
      <defs>
       <path d="M 0 0 
L -6 0 
" id="md984959651" style="stroke:#262626;"/>
      </defs>
      <g>
       <use style="fill:#262626;stroke:#262626;" x="90" xlink:href="#md984959651" y="270.72"/>
      </g>
     </g>
     <g id="text_10">
      <!-- −0.20 -->
      <defs>
       <path d="M 52.828125 31.203125 
L 5.5625 31.203125 
L 5.5625 39.40625 
L 52.828125 39.40625 
z
" id="ArialMT-2212"/>
       <path d="M 9.078125 0 
L 9.078125 10.015625 
L 19.09375 10.015625 
L 19.09375 0 
z
" id="ArialMT-2e"/>
      </defs>
      <g style="fill:#262626;" transform="translate(51.698437 274.298906)scale(0.1 -0.1)">
       <use xlink:href="#ArialMT-2212"/>
       <use x="58.398438" xlink:href="#ArialMT-30"/>
       <use x="114.013672" xlink:href="#ArialMT-2e"/>
       <use x="141.796875" xlink:href="#ArialMT-32"/>
       <use x="197.412109" xlink:href="#ArialMT-30"/>
      </g>
     </g>
    </g>
    <g id="ytick_2">
     <g id="line2d_11">
      <g>
       <use style="fill:#262626;stroke:#262626;" x="90" xlink:href="#md984959651" y="245.52"/>
      </g>
     </g>
     <g id="text_11">
      <!-- −0.15 -->
      <g style="fill:#262626;" transform="translate(51.698437 249.098906)scale(0.1 -0.1)">
       <use xlink:href="#ArialMT-2212"/>
       <use x="58.398438" xlink:href="#ArialMT-30"/>
       <use x="114.013672" xlink:href="#ArialMT-2e"/>
       <use x="141.796875" xlink:href="#ArialMT-31"/>
       <use x="197.412109" xlink:href="#ArialMT-35"/>
      </g>
     </g>
    </g>
    <g id="ytick_3">
     <g id="line2d_12">
      <g>
       <use style="fill:#262626;stroke:#262626;" x="90" xlink:href="#md984959651" y="220.32"/>
      </g>
     </g>
     <g id="text_12">
      <!-- −0.10 -->
      <g style="fill:#262626;" transform="translate(51.698437 223.898906)scale(0.1 -0.1)">
       <use xlink:href="#ArialMT-2212"/>
       <use x="58.398438" xlink:href="#ArialMT-30"/>
       <use x="114.013672" xlink:href="#ArialMT-2e"/>
       <use x="141.796875" xlink:href="#ArialMT-31"/>
       <use x="197.412109" xlink:href="#ArialMT-30"/>
      </g>
     </g>
    </g>
    <g id="ytick_4">
     <g id="line2d_13">
      <g>
       <use style="fill:#262626;stroke:#262626;" x="90" xlink:href="#md984959651" y="195.12"/>
      </g>
     </g>
     <g id="text_13">
      <!-- −0.05 -->
      <g style="fill:#262626;" transform="translate(51.698437 198.698906)scale(0.1 -0.1)">
       <use xlink:href="#ArialMT-2212"/>
       <use x="58.398438" xlink:href="#ArialMT-30"/>
       <use x="114.013672" xlink:href="#ArialMT-2e"/>
       <use x="141.796875" xlink:href="#ArialMT-30"/>
       <use x="197.412109" xlink:href="#ArialMT-35"/>
      </g>
     </g>
    </g>
    <g id="ytick_5">
     <g id="line2d_14">
      <g>
       <use style="fill:#262626;stroke:#262626;" x="90" xlink:href="#md984959651" y="169.92"/>
      </g>
     </g>
     <g id="text_14">
      <!-- 0.00 -->
      <g style="fill:#262626;" transform="translate(57.539062 173.498906)scale(0.1 -0.1)">
       <use xlink:href="#ArialMT-30"/>
       <use x="55.615234" xlink:href="#ArialMT-2e"/>
       <use x="83.398438" xlink:href="#ArialMT-30"/>
       <use x="139.013672" xlink:href="#ArialMT-30"/>
      </g>
     </g>
    </g>
    <g id="ytick_6">
     <g id="line2d_15">
      <g>
       <use style="fill:#262626;stroke:#262626;" x="90" xlink:href="#md984959651" y="144.72"/>
      </g>
     </g>
     <g id="text_15">
      <!-- 0.05 -->
      <g style="fill:#262626;" transform="translate(57.539062 148.298906)scale(0.1 -0.1)">
       <use xlink:href="#ArialMT-30"/>
       <use x="55.615234" xlink:href="#ArialMT-2e"/>
       <use x="83.398438" xlink:href="#ArialMT-30"/>
       <use x="139.013672" xlink:href="#ArialMT-35"/>
      </g>
     </g>
    </g>
    <g id="ytick_7">
     <g id="line2d_16">
      <g>
       <use style="fill:#262626;stroke:#262626;" x="90" xlink:href="#md984959651" y="119.52"/>
      </g>
     </g>
     <g id="text_16">
      <!-- 0.10 -->
      <g style="fill:#262626;" transform="translate(57.539062 123.098906)scale(0.1 -0.1)">
       <use xlink:href="#ArialMT-30"/>
       <use x="55.615234" xlink:href="#ArialMT-2e"/>
       <use x="83.398438" xlink:href="#ArialMT-31"/>
       <use x="139.013672" xlink:href="#ArialMT-30"/>
      </g>
     </g>
    </g>
    <g id="ytick_8">
     <g id="line2d_17">
      <g>
       <use style="fill:#262626;stroke:#262626;" x="90" xlink:href="#md984959651" y="94.32"/>
      </g>
     </g>
     <g id="text_17">
      <!-- 0.15 -->
      <g style="fill:#262626;" transform="translate(57.539062 97.898906)scale(0.1 -0.1)">
       <use xlink:href="#ArialMT-30"/>
       <use x="55.615234" xlink:href="#ArialMT-2e"/>
       <use x="83.398438" xlink:href="#ArialMT-31"/>
       <use x="139.013672" xlink:href="#ArialMT-35"/>
      </g>
     </g>
    </g>
    <g id="ytick_9">
     <g id="line2d_18">
      <g>
       <use style="fill:#262626;stroke:#262626;" x="90" xlink:href="#md984959651" y="69.12"/>
      </g>
     </g>
     <g id="text_18">
      <!-- 0.20 -->
      <g style="fill:#262626;" transform="translate(57.539062 72.698906)scale(0.1 -0.1)">
       <use xlink:href="#ArialMT-30"/>
       <use x="55.615234" xlink:href="#ArialMT-2e"/>
       <use x="83.398438" xlink:href="#ArialMT-32"/>
       <use x="139.013672" xlink:href="#ArialMT-30"/>
      </g>
     </g>
    </g>
   </g>
   <g id="PolyCollection_1">
    <path clip-path="url(#pa0f9d2b7b3)" d="M 90 169.925048 
L 90 169.92 
L 90.6975 169.92 
L 91.395 169.92 
L 92.0925 169.92 
L 92.79 169.92 
L 93.4875 169.92 
L 94.185 169.92 
L 94.8825 169.92 
L 95.58 169.92 
L 96.2775 169.92 
L 96.975 169.92 
L 97.6725 169.92 
L 98.37 169.92 
L 99.0675 169.92 
L 99.765 169.92 
L 100.4625 169.92 
L 101.16 169.92 
L 101.8575 169.92 
L 102.555 169.92 
L 103.2525 169.92 
L 103.95 169.92 
L 104.6475 169.92 
L 105.345 169.92 
L 106.0425 169.92 
L 106.74 169.92 
L 107.4375 169.92 
L 108.135 169.92 
L 108.8325 169.92 
L 109.53 169.92 
L 110.2275 169.92 
L 110.925 169.92 
L 111.6225 169.92 
L 112.32 169.92 
L 113.0175 169.92 
L 113.715 169.92 
L 114.4125 169.92 
L 115.11 169.92 
L 115.8075 169.92 
L 116.505 169.92 
L 117.2025 169.92 
L 117.9 169.92 
L 118.5975 169.92 
L 119.295 169.92 
L 119.9925 169.92 
L 120.69 169.92 
L 121.3875 169.92 
L 122.085 169.92 
L 122.7825 169.92 
L 123.48 169.92 
L 124.1775 169.92 
L 124.875 169.92 
L 125.5725 169.92 
L 126.27 169.92 
L 126.9675 169.92 
L 127.665 169.92 
L 128.3625 169.92 
L 129.06 169.92 
L 129.7575 169.92 
L 130.455 169.92 
L 131.1525 169.92 
L 131.85 169.92 
L 132.5475 169.92 
L 133.245 169.92 
L 133.9425 169.92 
L 134.64 169.92 
L 135.3375 169.92 
L 136.035 169.92 
L 136.7325 169.92 
L 137.43 169.92 
L 138.1275 169.92 
L 138.825 169.92 
L 139.5225 169.92 
L 140.22 169.92 
L 140.9175 169.92 
L 141.615 169.92 
L 142.3125 169.92 
L 143.01 169.92 
L 143.7075 169.92 
L 144.405 169.92 
L 145.1025 169.92 
L 145.8 169.92 
L 146.4975 169.92 
L 147.195 169.92 
L 147.8925 169.92 
L 148.59 169.92 
L 149.2875 169.92 
L 149.985 169.92 
L 150.6825 169.92 
L 151.38 169.92 
L 152.0775 169.92 
L 152.775 169.92 
L 153.4725 169.92 
L 154.17 169.92 
L 154.8675 169.92 
L 155.565 169.92 
L 156.2625 169.92 
L 156.96 169.92 
L 157.6575 169.92 
L 158.355 169.92 
L 159.0525 169.92 
L 159.75 169.92 
L 160.4475 169.92 
L 161.145 169.92 
L 161.8425 169.92 
L 162.54 169.92 
L 163.2375 169.92 
L 163.935 169.92 
L 164.6325 169.92 
L 165.33 169.92 
L 166.0275 169.92 
L 166.725 169.92 
L 167.4225 169.92 
L 168.12 169.92 
L 168.8175 169.92 
L 169.515 169.92 
L 170.2125 169.92 
L 170.91 169.92 
L 171.6075 169.92 
L 172.305 169.92 
L 173.0025 169.92 
L 173.7 169.92 
L 174.3975 169.92 
L 175.095 169.92 
L 175.7925 169.92 
L 176.49 169.92 
L 177.1875 169.92 
L 177.885 169.92 
L 178.5825 169.92 
L 179.28 169.92 
L 179.9775 169.92 
L 180.675 169.92 
L 181.3725 169.92 
L 182.07 169.92 
L 182.7675 169.92 
L 183.465 169.92 
L 184.1625 169.92 
L 184.86 169.92 
L 185.5575 169.92 
L 186.255 169.92 
L 186.9525 169.92 
L 187.65 169.92 
L 188.3475 169.92 
L 189.045 169.92 
L 189.7425 169.92 
L 190.44 169.92 
L 191.1375 169.92 
L 191.835 169.92 
L 192.5325 169.92 
L 193.23 169.92 
L 193.9275 169.92 
L 194.625 169.92 
L 195.3225 169.92 
L 196.02 169.92 
L 196.7175 169.92 
L 197.415 169.92 
L 198.1125 169.92 
L 198.81 169.92 
L 199.5075 169.92 
L 200.205 169.92 
L 200.9025 169.92 
L 201.6 169.92 
L 202.2975 169.92 
L 202.995 169.92 
L 203.6925 169.92 
L 204.39 169.92 
L 205.0875 169.92 
L 205.785 169.92 
L 206.4825 169.92 
L 207.18 169.92 
L 207.8775 169.92 
L 208.575 169.92 
L 209.2725 169.92 
L 209.97 169.92 
L 210.6675 169.92 
L 211.365 169.92 
L 212.0625 169.92 
L 212.76 169.92 
L 213.4575 169.92 
L 214.155 169.92 
L 214.8525 169.92 
L 215.55 169.92 
L 216.2475 169.92 
L 216.945 169.92 
L 217.6425 169.92 
L 218.34 169.92 
L 219.0375 169.92 
L 219.735 169.92 
L 220.4325 169.92 
L 221.13 169.92 
L 221.8275 169.92 
L 222.525 169.92 
L 223.2225 169.92 
L 223.92 169.92 
L 224.6175 169.92 
L 225.315 169.92 
L 226.0125 169.92 
L 226.71 169.92 
L 227.4075 169.92 
L 228.105 169.92 
L 228.8025 169.92 
L 229.5 169.92 
L 230.1975 169.92 
L 230.895 169.92 
L 231.5925 169.92 
L 232.29 169.92 
L 232.9875 169.92 
L 233.685 169.92 
L 234.3825 169.92 
L 235.08 169.92 
L 235.7775 169.92 
L 236.475 169.92 
L 237.1725 169.92 
L 237.87 169.92 
L 238.5675 169.92 
L 239.265 169.92 
L 239.9625 169.92 
L 240.66 169.92 
L 241.3575 169.92 
L 242.055 169.92 
L 242.7525 169.92 
L 243.45 169.92 
L 244.1475 169.92 
L 244.845 169.92 
L 245.5425 169.92 
L 246.24 169.92 
L 246.9375 169.92 
L 247.635 169.92 
L 248.3325 169.92 
L 249.03 169.92 
L 249.7275 169.92 
L 250.425 169.92 
L 251.1225 169.92 
L 251.82 169.92 
L 252.5175 169.92 
L 253.215 169.92 
L 253.9125 169.92 
L 254.61 169.92 
L 255.3075 169.92 
L 256.005 169.92 
L 256.7025 169.92 
L 257.4 169.92 
L 258.0975 169.92 
L 258.795 169.92 
L 259.4925 169.92 
L 260.19 169.92 
L 260.8875 169.92 
L 261.585 169.92 
L 262.2825 169.92 
L 262.98 169.92 
L 263.6775 169.92 
L 264.375 169.92 
L 265.0725 169.92 
L 265.77 169.92 
L 266.4675 169.92 
L 267.165 169.92 
L 267.8625 169.92 
L 268.56 169.92 
L 269.2575 169.92 
L 269.955 169.92 
L 270.6525 169.92 
L 271.35 169.92 
L 272.0475 169.92 
L 272.745 169.92 
L 273.4425 169.92 
L 274.14 169.92 
L 274.8375 169.92 
L 275.535 169.92 
L 276.2325 169.92 
L 276.93 169.92 
L 277.6275 169.92 
L 278.325 169.92 
L 279.0225 169.92 
L 279.72 169.92 
L 280.4175 169.92 
L 281.115 169.92 
L 281.8125 169.92 
L 282.51 169.92 
L 283.2075 169.92 
L 283.905 169.92 
L 284.6025 169.92 
L 285.3 169.92 
L 285.9975 169.92 
L 286.695 169.92 
L 287.3925 169.92 
L 288.09 169.92 
L 288.7875 169.92 
L 289.485 169.92 
L 290.1825 169.92 
L 290.88 169.92 
L 291.5775 169.92 
L 292.275 169.92 
L 292.9725 169.92 
L 293.67 169.92 
L 294.3675 169.92 
L 295.065 169.92 
L 295.7625 169.92 
L 296.46 169.92 
L 297.1575 169.92 
L 297.855 169.92 
L 298.5525 169.92 
L 299.25 169.92 
L 299.9475 169.92 
L 300.645 169.92 
L 301.3425 169.92 
L 302.04 169.92 
L 302.7375 169.92 
L 303.435 169.92 
L 304.1325 169.92 
L 304.83 169.92 
L 305.5275 169.92 
L 306.225 169.92 
L 306.9225 169.92 
L 307.62 169.92 
L 308.3175 169.92 
L 309.015 169.92 
L 309.7125 169.92 
L 310.41 169.92 
L 311.1075 169.92 
L 311.805 169.92 
L 312.5025 169.92 
L 313.2 169.92 
L 313.8975 169.92 
L 314.595 169.92 
L 315.2925 169.92 
L 315.99 169.92 
L 316.6875 169.92 
L 317.385 169.92 
L 318.0825 169.92 
L 318.78 169.92 
L 319.4775 169.92 
L 320.175 169.92 
L 320.8725 169.92 
L 321.57 169.92 
L 322.2675 169.92 
L 322.965 169.92 
L 323.6625 169.92 
L 324.36 169.92 
L 325.0575 169.92 
L 325.755 169.92 
L 326.4525 169.92 
L 327.15 169.92 
L 327.8475 169.92 
L 328.545 169.92 
L 329.2425 169.92 
L 329.94 169.92 
L 330.6375 169.92 
L 331.335 169.92 
L 332.0325 169.92 
L 332.73 169.92 
L 333.4275 169.92 
L 334.125 169.92 
L 334.8225 169.92 
L 335.52 169.92 
L 336.2175 169.92 
L 336.915 169.92 
L 337.6125 169.92 
L 338.31 169.92 
L 339.0075 169.92 
L 339.705 169.92 
L 340.4025 169.92 
L 341.1 169.92 
L 341.7975 169.92 
L 342.495 169.92 
L 343.1925 169.92 
L 343.89 169.92 
L 344.5875 169.92 
L 345.285 169.92 
L 345.9825 169.92 
L 346.68 169.92 
L 347.3775 169.92 
L 348.075 169.92 
L 348.7725 169.92 
L 349.47 169.92 
L 350.1675 169.92 
L 350.865 169.92 
L 351.5625 169.92 
L 352.26 169.92 
L 352.9575 169.92 
L 353.655 169.92 
L 354.3525 169.92 
L 355.05 169.92 
L 355.7475 169.92 
L 356.445 169.92 
L 357.1425 169.92 
L 357.84 169.92 
L 358.5375 169.92 
L 359.235 169.92 
L 359.9325 169.92 
L 360.63 169.92 
L 361.3275 169.92 
L 362.025 169.92 
L 362.7225 169.92 
L 363.42 169.92 
L 364.1175 169.92 
L 364.815 169.92 
L 365.5125 169.92 
L 366.21 169.92 
L 366.9075 169.92 
L 367.605 169.92 
L 368.3025 169.92 
L 369 169.92 
L 369.6975 169.92 
L 370.395 169.92 
L 371.0925 169.92 
L 371.79 169.92 
L 372.4875 169.92 
L 373.185 169.92 
L 373.8825 169.92 
L 374.58 169.92 
L 375.2775 169.92 
L 375.975 169.92 
L 376.6725 169.92 
L 377.37 169.92 
L 378.0675 169.92 
L 378.765 169.92 
L 379.4625 169.92 
L 380.16 169.92 
L 380.8575 169.92 
L 381.555 169.92 
L 382.2525 169.92 
L 382.95 169.92 
L 383.6475 169.92 
L 384.345 169.92 
L 385.0425 169.92 
L 385.74 169.92 
L 386.4375 169.92 
L 387.135 169.92 
L 387.8325 169.92 
L 388.53 169.92 
L 389.2275 169.92 
L 389.925 169.92 
L 390.6225 169.92 
L 391.32 169.92 
L 392.0175 169.92 
L 392.715 169.92 
L 393.4125 169.92 
L 394.11 169.92 
L 394.8075 169.92 
L 395.505 169.92 
L 396.2025 169.92 
L 396.9 169.92 
L 397.5975 169.92 
L 398.295 169.92 
L 398.9925 169.92 
L 399.69 169.92 
L 400.3875 169.92 
L 401.085 169.92 
L 401.7825 169.92 
L 402.48 169.92 
L 403.1775 169.92 
L 403.875 169.92 
L 404.5725 169.92 
L 405.27 169.92 
L 405.9675 169.92 
L 406.665 169.92 
L 407.3625 169.92 
L 408.06 169.92 
L 408.7575 169.92 
L 409.455 169.92 
L 410.1525 169.92 
L 410.85 169.92 
L 411.5475 169.92 
L 412.245 169.92 
L 412.9425 169.92 
L 413.64 169.92 
L 414.3375 169.92 
L 415.035 169.92 
L 415.7325 169.92 
L 416.43 169.92 
L 417.1275 169.92 
L 417.825 169.92 
L 418.5225 169.92 
L 419.22 169.92 
L 419.9175 169.92 
L 420.615 169.92 
L 421.3125 169.92 
L 422.01 169.92 
L 422.7075 169.92 
L 423.405 169.92 
L 424.1025 169.92 
L 424.8 169.92 
L 425.4975 169.92 
L 426.195 169.92 
L 426.8925 169.92 
L 427.59 169.92 
L 428.2875 169.92 
L 428.985 169.92 
L 429.6825 169.92 
L 430.38 169.92 
L 431.0775 169.92 
L 431.775 169.92 
L 432.4725 169.92 
L 433.17 169.92 
L 433.8675 169.92 
L 434.565 169.92 
L 435.2625 169.92 
L 435.96 169.92 
L 436.6575 169.92 
L 437.355 169.92 
L 438.0525 169.92 
L 438.75 169.92 
L 439.4475 169.92 
L 440.145 169.92 
L 440.8425 169.92 
L 441.54 169.92 
L 442.2375 169.92 
L 442.935 169.92 
L 443.6325 169.92 
L 444.33 169.92 
L 445.0275 169.92 
L 445.725 169.92 
L 446.4225 169.92 
L 447.12 169.92 
L 447.8175 169.92 
L 448.515 169.92 
L 449.2125 169.92 
L 449.91 169.92 
L 450.6075 169.92 
L 451.305 169.92 
L 452.0025 169.92 
L 452.7 169.92 
L 453.3975 169.92 
L 454.095 169.92 
L 454.7925 169.92 
L 455.49 169.92 
L 456.1875 169.92 
L 456.885 169.92 
L 457.5825 169.92 
L 458.28 169.92 
L 458.9775 169.92 
L 459.675 169.92 
L 460.3725 169.92 
L 461.07 169.92 
L 461.7675 169.92 
L 462.465 169.92 
L 463.1625 169.92 
L 463.86 169.92 
L 464.5575 169.92 
L 465.255 169.92 
L 465.9525 169.92 
L 466.65 169.92 
L 467.3475 169.92 
L 468.045 169.92 
L 468.7425 169.92 
L 469.44 169.92 
L 470.1375 169.92 
L 470.835 169.92 
L 471.5325 169.92 
L 472.23 169.92 
L 472.9275 169.92 
L 473.625 169.92 
L 474.3225 169.92 
L 475.02 169.92 
L 475.7175 169.92 
L 476.415 169.92 
L 477.1125 169.92 
L 477.81 169.92 
L 478.5075 169.92 
L 479.205 169.92 
L 479.9025 169.92 
L 480.6 169.92 
L 481.2975 169.92 
L 481.995 169.92 
L 482.6925 169.92 
L 483.39 169.92 
L 484.0875 169.92 
L 484.785 169.92 
L 485.4825 169.92 
L 486.18 169.92 
L 486.8775 169.92 
L 487.575 169.92 
L 488.2725 169.92 
L 488.97 169.92 
L 489.6675 169.92 
L 490.365 169.92 
L 491.0625 169.92 
L 491.76 169.92 
L 492.4575 169.92 
L 493.155 169.92 
L 493.8525 169.92 
L 494.55 169.92 
L 495.2475 169.92 
L 495.945 169.92 
L 496.6425 169.92 
L 497.34 169.92 
L 498.0375 169.92 
L 498.735 169.92 
L 499.4325 169.92 
L 500.13 169.92 
L 500.8275 169.92 
L 501.525 169.92 
L 502.2225 169.92 
L 502.92 169.92 
L 503.6175 169.92 
L 504.315 169.92 
L 505.0125 169.92 
L 505.71 169.92 
L 506.4075 169.92 
L 507.105 169.92 
L 507.8025 169.92 
L 508.5 169.92 
L 509.1975 169.92 
L 509.895 169.92 
L 510.5925 169.92 
L 511.29 169.92 
L 511.9875 169.92 
L 512.685 169.92 
L 513.3825 169.92 
L 514.08 169.92 
L 514.7775 169.92 
L 515.475 169.92 
L 516.1725 169.92 
L 516.87 169.92 
L 517.5675 169.92 
L 518.265 169.92 
L 518.9625 169.92 
L 519.66 169.92 
L 520.3575 169.92 
L 521.055 169.92 
L 521.7525 169.92 
L 522.45 169.92 
L 523.1475 169.92 
L 523.845 169.92 
L 524.5425 169.92 
L 525.24 169.92 
L 525.9375 169.92 
L 526.635 169.92 
L 527.3325 169.92 
L 528.03 169.92 
L 528.7275 169.92 
L 529.425 169.92 
L 530.1225 169.92 
L 530.82 169.92 
L 531.5175 169.92 
L 532.215 169.92 
L 532.9125 169.92 
L 533.61 169.92 
L 534.3075 169.92 
L 535.005 169.92 
L 535.7025 169.92 
L 536.4 169.92 
L 537.0975 169.92 
L 537.795 169.92 
L 538.4925 169.92 
L 539.19 169.92 
L 539.8875 169.92 
L 540.585 169.92 
L 541.2825 169.92 
L 541.98 169.92 
L 542.6775 169.92 
L 543.375 169.92 
L 544.0725 169.92 
L 544.77 169.92 
L 545.4675 169.92 
L 546.165 169.92 
L 546.8625 169.92 
L 547.56 169.92 
L 548.2575 169.92 
L 548.955 169.92 
L 549.6525 169.92 
L 550.35 169.92 
L 551.0475 169.92 
L 551.745 169.92 
L 552.4425 169.92 
L 553.14 169.92 
L 553.8375 169.92 
L 554.535 169.92 
L 555.2325 169.92 
L 555.93 169.92 
L 556.6275 169.92 
L 557.325 169.92 
L 558.0225 169.92 
L 558.72 169.92 
L 559.4175 169.92 
L 560.115 169.92 
L 560.8125 169.92 
L 561.51 169.92 
L 562.2075 169.92 
L 562.905 169.92 
L 563.6025 169.92 
L 564.3 169.92 
L 564.9975 169.92 
L 565.695 169.92 
L 566.3925 169.92 
L 567.09 169.92 
L 567.7875 169.92 
L 568.485 169.92 
L 569.1825 169.92 
L 569.88 169.92 
L 570.5775 169.92 
L 571.275 169.92 
L 571.9725 169.92 
L 572.67 169.92 
L 573.3675 169.92 
L 574.065 169.92 
L 574.7625 169.92 
L 575.46 169.92 
L 576.1575 169.92 
L 576.855 169.92 
L 577.5525 169.92 
L 578.25 169.92 
L 578.9475 169.92 
L 579.645 169.92 
L 580.3425 169.92 
L 581.04 169.92 
L 581.7375 169.92 
L 582.435 169.92 
L 583.1325 169.92 
L 583.83 169.92 
L 584.5275 169.92 
L 585.225 169.92 
L 585.9225 169.92 
L 586.62 169.92 
L 587.3175 169.92 
L 588.015 169.92 
L 588.7125 169.92 
L 589.41 169.92 
L 590.1075 169.92 
L 590.805 169.92 
L 591.5025 169.92 
L 592.2 169.92 
L 592.8975 169.92 
L 593.595 169.92 
L 594.2925 169.92 
L 594.99 169.92 
L 595.6875 169.92 
L 596.385 169.92 
L 597.0825 169.92 
L 597.78 169.92 
L 598.4775 169.92 
L 599.175 169.92 
L 599.8725 169.92 
L 600.57 169.92 
L 601.2675 169.92 
L 601.965 169.92 
L 602.6625 169.92 
L 603.36 169.92 
L 604.0575 169.92 
L 604.755 169.92 
L 605.4525 169.92 
L 606.15 169.92 
L 606.8475 169.92 
L 607.545 169.92 
L 608.2425 169.92 
L 608.94 169.92 
L 609.6375 169.92 
L 610.335 169.92 
L 611.0325 169.92 
L 611.73 169.92 
L 612.4275 169.92 
L 613.125 169.92 
L 613.8225 169.92 
L 614.52 169.92 
L 615.2175 169.92 
L 615.915 169.92 
L 616.6125 169.92 
L 617.31 169.92 
L 618.0075 169.92 
L 618.705 169.92 
L 619.4025 169.92 
L 620.1 169.92 
L 620.7975 169.92 
L 621.495 169.92 
L 622.1925 169.92 
L 622.89 169.92 
L 623.5875 169.92 
L 624.285 169.92 
L 624.9825 169.92 
L 625.68 169.92 
L 626.3775 169.92 
L 627.075 169.92 
L 627.7725 169.92 
L 628.47 169.92 
L 629.1675 169.92 
L 629.865 169.92 
L 630.5625 169.92 
L 631.26 169.92 
L 631.9575 169.92 
L 632.655 169.92 
L 633.3525 169.92 
L 634.05 169.92 
L 634.7475 169.92 
L 635.445 169.92 
L 636.1425 169.92 
L 636.84 169.92 
L 637.5375 169.92 
L 638.235 169.92 
L 638.9325 169.92 
L 639.63 169.92 
L 640.3275 169.92 
L 641.025 169.92 
L 641.7225 169.92 
L 642.42 169.92 
L 643.1175 169.92 
L 643.815 169.92 
L 644.5125 169.92 
L 645.21 169.92 
L 645.9075 169.92 
L 646.605 169.92 
L 646.605 169.92 
L 646.605 169.92 
L 645.9075 169.922171 
L 645.21 169.927257 
L 644.5125 169.935983 
L 643.815 169.949043 
L 643.1175 169.967096 
L 642.42 169.990763 
L 641.7225 170.020623 
L 641.025 170.057202 
L 640.3275 170.100977 
L 639.63 170.152366 
L 638.9325 170.211729 
L 638.235 170.279362 
L 637.5375 170.355496 
L 636.84 170.440295 
L 636.1425 170.533855 
L 635.445 170.636202 
L 634.7475 170.747291 
L 634.05 170.867011 
L 633.3525 170.995179 
L 632.655 171.131545 
L 631.9575 171.275793 
L 631.26 171.427545 
L 630.5625 171.58636 
L 629.865 171.751738 
L 629.1675 171.923127 
L 628.47 172.099922 
L 627.7725 172.281473 
L 627.075 172.467087 
L 626.3775 172.656034 
L 625.68 172.847554 
L 624.9825 173.040856 
L 624.285 173.235132 
L 623.5875 173.429556 
L 622.89 173.623291 
L 622.1925 173.815496 
L 621.495 174.005332 
L 620.7975 174.191964 
L 620.1 174.374572 
L 619.4025 174.552351 
L 618.705 174.724517 
L 618.0075 174.890316 
L 617.31 175.049023 
L 616.6125 175.199951 
L 615.915 175.34245 
L 615.2175 175.475917 
L 614.52 175.599792 
L 613.8225 175.713567 
L 613.125 175.816785 
L 612.4275 175.909042 
L 611.73 175.989991 
L 611.0325 176.05934 
L 610.335 176.116854 
L 609.6375 176.162357 
L 608.94 176.195728 
L 608.2425 176.216905 
L 607.545 176.225878 
L 606.8475 176.222693 
L 606.15 176.207449 
L 605.4525 176.180291 
L 604.755 176.141416 
L 604.0575 176.091061 
L 603.36 176.029508 
L 602.6625 175.957074 
L 601.965 175.874112 
L 601.2675 175.781006 
L 600.57 175.678166 
L 599.8725 175.566025 
L 599.175 175.445034 
L 598.4775 175.315662 
L 597.78 175.178386 
L 597.0825 175.03369 
L 596.385 174.882062 
L 595.6875 174.72399 
L 594.99 174.559957 
L 594.2925 174.390439 
L 593.595 174.215901 
L 592.8975 174.036794 
L 592.2 173.853553 
L 591.5025 173.666597 
L 590.805 173.476321 
L 590.1075 173.283099 
L 589.41 173.087282 
L 588.7125 172.889197 
L 588.015 172.689144 
L 587.3175 172.487399 
L 586.62 172.284212 
L 585.9225 172.079806 
L 585.225 171.874384 
L 584.5275 171.668119 
L 583.83 171.461169 
L 583.1325 171.253664 
L 582.435 171.045722 
L 581.7375 170.837439 
L 581.04 170.628899 
L 580.3425 170.420174 
L 579.645 170.211325 
L 578.9475 170.002408 
L 578.25 169.793473 
L 577.5525 169.584571 
L 576.855 169.375752 
L 576.1575 169.167075 
L 575.46 168.9586 
L 574.7625 168.750403 
L 574.065 168.542569 
L 573.3675 168.335199 
L 572.67 168.128411 
L 571.9725 167.922342 
L 571.275 167.71715 
L 570.5775 167.513016 
L 569.88 167.310144 
L 569.1825 167.108764 
L 568.485 166.90913 
L 567.7875 166.711522 
L 567.09 166.516245 
L 566.3925 166.32363 
L 565.695 166.134032 
L 564.9975 165.947829 
L 564.3 165.765422 
L 563.6025 165.587231 
L 562.905 165.413694 
L 562.2075 165.245266 
L 561.51 165.082413 
L 560.8125 164.925612 
L 560.115 164.775349 
L 559.4175 164.63211 
L 558.72 164.496383 
L 558.0225 164.368651 
L 557.325 164.249391 
L 556.6275 164.139067 
L 555.93 164.038128 
L 555.2325 163.947002 
L 554.535 163.866095 
L 553.8375 163.795786 
L 553.14 163.73642 
L 552.4425 163.688309 
L 551.745 163.651726 
L 551.0475 163.626902 
L 550.35 163.614024 
L 549.6525 163.613228 
L 548.955 163.624605 
L 548.2575 163.648188 
L 547.56 163.683961 
L 546.8625 163.731848 
L 546.165 163.791719 
L 545.4675 163.863388 
L 544.77 163.946607 
L 544.0725 164.041077 
L 543.375 164.146438 
L 542.6775 164.262277 
L 541.98 164.388128 
L 541.2825 164.523471 
L 540.585 164.66774 
L 539.8875 164.820321 
L 539.19 164.980559 
L 538.4925 165.147758 
L 537.795 165.321188 
L 537.0975 165.500088 
L 536.4 165.683671 
L 535.7025 165.871129 
L 535.005 166.061637 
L 534.3075 166.254359 
L 533.61 166.448456 
L 532.9125 166.643086 
L 532.215 166.837414 
L 531.5175 167.030618 
L 530.82 167.22189 
L 530.1225 167.410447 
L 529.425 167.595531 
L 528.7275 167.77642 
L 528.03 167.952427 
L 527.3325 168.122911 
L 526.635 168.287276 
L 525.9375 168.444978 
L 525.24 168.595529 
L 524.5425 168.738498 
L 523.845 168.873518 
L 523.1475 169.000285 
L 522.45 169.11856 
L 521.7525 169.228175 
L 521.055 169.329029 
L 520.3575 169.42109 
L 519.66 169.504398 
L 518.9625 169.57906 
L 518.265 169.645253 
L 517.5675 169.703219 
L 516.87 169.753267 
L 516.1725 169.795766 
L 515.475 169.831147 
L 514.7775 169.859894 
L 514.08 169.882545 
L 513.3825 169.899685 
L 512.685 169.911943 
L 511.9875 169.919986 
L 511.29 169.924512 
L 510.5925 169.926251 
L 509.895 169.925951 
L 509.1975 169.924377 
L 508.5 169.922304 
L 507.8025 169.920512 
L 507.105 169.919776 
L 506.4075 169.920867 
L 505.71 169.924537 
L 505.0125 169.931521 
L 504.315 169.942526 
L 503.6175 169.95823 
L 502.92 169.979271 
L 502.2225 170.006248 
L 501.525 170.03971 
L 500.8275 170.080159 
L 500.13 170.128039 
L 499.4325 170.183737 
L 498.735 170.247578 
L 498.0375 170.319824 
L 497.34 170.400668 
L 496.6425 170.490239 
L 495.945 170.588592 
L 495.2475 170.695718 
L 494.55 170.811533 
L 493.8525 170.935888 
L 493.155 171.068562 
L 492.4575 171.209271 
L 491.76 171.357664 
L 491.0625 171.513327 
L 490.365 171.675787 
L 489.6675 171.844515 
L 488.97 172.018931 
L 488.2725 172.198403 
L 487.575 172.382259 
L 486.8775 172.569784 
L 486.18 172.76023 
L 485.4825 172.952822 
L 484.785 173.146757 
L 484.0875 173.341217 
L 483.39 173.535368 
L 482.6925 173.728373 
L 481.995 173.91939 
L 481.2975 174.107581 
L 480.6 174.292119 
L 479.9025 174.472191 
L 479.205 174.647004 
L 478.5075 174.815789 
L 477.81 174.977807 
L 477.1125 175.132354 
L 476.415 175.278762 
L 475.7175 175.416407 
L 475.02 175.544708 
L 474.3225 175.663134 
L 473.625 175.771204 
L 472.9275 175.86849 
L 472.23 175.954618 
L 471.5325 176.029272 
L 470.835 176.092191 
L 470.1375 176.143172 
L 469.44 176.182069 
L 468.7425 176.208793 
L 468.045 176.22331 
L 467.3475 176.225643 
L 466.65 176.215865 
L 465.9525 176.194101 
L 465.255 176.160525 
L 464.5575 176.115355 
L 463.86 176.058855 
L 463.1625 175.991325 
L 462.465 175.913103 
L 461.7675 175.824559 
L 461.07 175.726091 
L 460.3725 175.618122 
L 459.675 175.501097 
L 458.9775 175.375477 
L 458.28 175.241733 
L 457.5825 175.100349 
L 456.885 174.951812 
L 456.1875 174.796609 
L 455.49 174.635226 
L 454.7925 174.468143 
L 454.095 174.29583 
L 453.3975 174.118744 
L 452.7 173.93733 
L 452.0025 173.752012 
L 451.305 173.563197 
L 450.6075 173.371269 
L 449.91 173.17659 
L 449.2125 172.979497 
L 448.515 172.780303 
L 447.8175 172.579295 
L 447.12 172.376734 
L 446.4225 172.172856 
L 445.725 171.967872 
L 445.0275 171.76197 
L 444.33 171.555313 
L 443.6325 171.348045 
L 442.935 171.140289 
L 442.2375 170.93215 
L 441.54 170.723717 
L 440.8425 170.515068 
L 440.145 170.306268 
L 439.4475 170.097375 
L 438.75 169.888442 
L 438.0525 169.679519 
L 437.355 169.470656 
L 436.6575 169.261907 
L 435.96 169.053332 
L 435.2625 168.844999 
L 434.565 168.636988 
L 433.8675 168.429394 
L 433.17 168.222325 
L 432.4725 168.015911 
L 431.775 167.810299 
L 431.0775 167.60566 
L 430.38 167.402188 
L 429.6825 167.2001 
L 428.985 166.999639 
L 428.2875 166.801074 
L 427.59 166.604698 
L 426.8925 166.41083 
L 426.195 166.219815 
L 425.4975 166.032021 
L 424.8 165.847838 
L 424.1025 165.667677 
L 423.405 165.491969 
L 422.7075 165.321161 
L 422.01 165.155715 
L 421.3125 164.996104 
L 420.615 164.842809 
L 419.9175 164.696317 
L 419.22 164.557115 
L 418.5225 164.425689 
L 417.825 164.30252 
L 417.1275 164.188078 
L 416.43 164.082818 
L 415.7325 163.98718 
L 415.035 163.901579 
L 414.3375 163.826408 
L 413.64 163.762027 
L 412.9425 163.708764 
L 412.245 163.66691 
L 411.5475 163.636715 
L 410.85 163.618387 
L 410.1525 163.612085 
L 409.455 163.617921 
L 408.7575 163.635955 
L 408.06 163.666193 
L 407.3625 163.708586 
L 406.665 163.76303 
L 405.9675 163.829363 
L 405.27 163.907366 
L 404.5725 163.996763 
L 403.875 164.097222 
L 403.1775 164.208353 
L 402.48 164.329714 
L 401.7825 164.46081 
L 401.085 164.601095 
L 400.3875 164.749977 
L 399.69 164.906818 
L 398.9925 165.070942 
L 398.295 165.241632 
L 397.5975 165.418142 
L 396.9 165.599695 
L 396.2025 165.785493 
L 395.505 165.974717 
L 394.8075 166.166537 
L 394.11 166.360113 
L 393.4125 166.554605 
L 392.715 166.749173 
L 392.0175 166.94299 
L 391.32 167.135239 
L 390.6225 167.325125 
L 389.925 167.511879 
L 389.2275 167.694762 
L 388.53 167.873071 
L 387.8325 168.046142 
L 387.135 168.213359 
L 386.4375 168.374154 
L 385.74 168.528012 
L 385.0425 168.674477 
L 384.345 168.813152 
L 383.6475 168.943704 
L 382.95 169.065864 
L 382.2525 169.179432 
L 381.555 169.284276 
L 380.8575 169.380333 
L 380.16 169.467611 
L 379.4625 169.546185 
L 378.765 169.616201 
L 378.0675 169.677872 
L 377.37 169.731477 
L 376.6725 169.777358 
L 375.975 169.815917 
L 375.2775 169.847616 
L 374.58 169.872968 
L 373.8825 169.892538 
L 373.185 169.906935 
L 372.4875 169.916808 
L 371.79 169.922845 
L 371.0925 169.925759 
L 370.395 169.926292 
L 369.6975 169.925201 
L 369 169.923258 
L 368.3025 169.921242 
L 367.605 169.91993 
L 366.9075 169.920096 
L 366.21 169.922501 
L 365.5125 169.92789 
L 364.815 169.936981 
L 364.1175 169.950468 
L 363.42 169.969006 
L 362.7225 169.993214 
L 362.025 170.023663 
L 361.3275 170.060877 
L 360.63 170.105328 
L 359.9325 170.157428 
L 359.235 170.217532 
L 358.5375 170.285929 
L 357.84 170.362845 
L 357.1425 170.448438 
L 356.445 170.542796 
L 355.7475 170.645941 
L 355.05 170.75782 
L 354.3525 170.878317 
L 353.655 171.007241 
L 352.9575 171.144338 
L 352.26 171.289285 
L 351.5625 171.441698 
L 350.865 171.601131 
L 350.1675 171.767079 
L 349.47 171.938985 
L 348.7725 172.11624 
L 348.075 172.29819 
L 347.3775 172.484137 
L 346.68 172.673351 
L 345.9825 172.865065 
L 345.285 173.05849 
L 344.5875 173.252814 
L 343.89 173.447209 
L 343.1925 173.64084 
L 342.495 173.832864 
L 341.7975 174.022443 
L 341.1 174.208744 
L 340.4025 174.390945 
L 339.705 174.568246 
L 339.0075 174.739864 
L 338.31 174.905047 
L 337.6125 175.063075 
L 336.915 175.213263 
L 336.2175 175.354966 
L 335.52 175.487583 
L 334.8225 175.61056 
L 334.125 175.723394 
L 333.4275 175.825631 
L 332.73 175.916873 
L 332.0325 175.996779 
L 331.335 176.06506 
L 330.6375 176.121489 
L 329.94 176.165893 
L 329.2425 176.198158 
L 328.545 176.218224 
L 327.8475 176.22609 
L 327.15 176.221804 
L 326.4525 176.205469 
L 325.755 176.177238 
L 325.0575 176.137308 
L 324.36 176.085923 
L 323.6625 176.023367 
L 322.965 175.949961 
L 322.2675 175.866061 
L 321.57 175.772053 
L 320.8725 175.668349 
L 320.175 175.555384 
L 319.4775 175.433613 
L 318.78 175.303502 
L 318.0825 175.165531 
L 317.385 175.020184 
L 316.6875 174.867951 
L 315.99 174.709317 
L 315.2925 174.544766 
L 314.595 174.374773 
L 313.8975 174.1998 
L 313.2 174.0203 
L 312.5025 173.836705 
L 311.805 173.64943 
L 311.1075 173.458871 
L 310.41 173.265399 
L 309.7125 173.069363 
L 309.015 172.871087 
L 308.3175 172.67087 
L 307.62 172.468984 
L 306.9225 172.265677 
L 306.225 172.061171 
L 305.5275 171.855665 
L 304.83 171.649332 
L 304.1325 171.442326 
L 303.435 171.234777 
L 302.7375 171.0268 
L 302.04 170.81849 
L 301.3425 170.609931 
L 300.645 170.401192 
L 299.9475 170.192335 
L 299.25 169.983414 
L 298.5525 169.77448 
L 297.855 169.565583 
L 297.1575 169.356775 
L 296.46 169.148113 
L 295.7625 168.939661 
L 295.065 168.731493 
L 294.3675 168.523697 
L 293.67 168.316374 
L 292.9725 168.109645 
L 292.275 167.903649 
L 291.5775 167.698545 
L 290.88 167.494517 
L 290.1825 167.291772 
L 289.485 167.09054 
L 288.7875 166.891078 
L 288.09 166.693668 
L 287.3925 166.498619 
L 286.695 166.306264 
L 285.9975 166.116958 
L 285.3 165.931084 
L 284.6025 165.749042 
L 283.905 165.571256 
L 283.2075 165.398164 
L 282.51 165.230223 
L 281.8125 165.067901 
L 281.115 164.911675 
L 280.4175 164.76203 
L 279.72 164.619454 
L 279.0225 164.484433 
L 278.325 164.357452 
L 277.6275 164.238986 
L 276.93 164.129496 
L 276.2325 164.029432 
L 275.535 163.939218 
L 274.8375 163.85926 
L 274.14 163.789931 
L 273.4425 163.731576 
L 272.745 163.684503 
L 272.0475 163.64898 
L 271.35 163.625236 
L 270.6525 163.61345 
L 269.955 163.613759 
L 269.2575 163.626244 
L 268.56 163.650937 
L 267.8625 163.687815 
L 267.165 163.736798 
L 266.4675 163.79775 
L 265.77 163.87048 
L 265.0725 163.954736 
L 264.375 164.050211 
L 263.6775 164.156543 
L 262.98 164.273312 
L 262.2825 164.400047 
L 261.585 164.536226 
L 260.8875 164.681277 
L 260.19 164.834582 
L 259.4925 164.995482 
L 258.795 165.163278 
L 258.0975 165.337238 
L 257.4 165.516596 
L 256.7025 165.700565 
L 256.005 165.888334 
L 255.3075 166.079078 
L 254.61 166.27196 
L 253.9125 166.46614 
L 253.215 166.660777 
L 252.5175 166.855037 
L 251.82 167.048098 
L 251.1225 167.239156 
L 250.425 167.427427 
L 249.7275 167.61216 
L 249.03 167.792632 
L 248.3325 167.968163 
L 247.635 168.138115 
L 246.9375 168.301896 
L 246.24 168.458967 
L 245.5425 168.608845 
L 244.845 168.751106 
L 244.1475 168.885388 
L 243.45 169.011391 
L 242.7525 169.128885 
L 242.055 169.237707 
L 241.3575 169.337761 
L 240.66 169.429024 
L 239.9625 169.51154 
L 239.265 169.585424 
L 238.5675 169.650858 
L 237.87 169.708091 
L 237.1725 169.757436 
L 236.475 169.79927 
L 235.7775 169.834026 
L 235.08 169.862196 
L 234.3825 169.884321 
L 233.685 169.900991 
L 232.9875 169.912838 
L 232.29 169.920532 
L 231.5925 169.924775 
L 230.895 169.926297 
L 230.1975 169.925849 
L 229.5 169.924197 
L 228.8025 169.922118 
L 228.105 169.92039 
L 227.4075 169.919789 
L 226.71 169.921083 
L 226.0125 169.925024 
L 225.315 169.932345 
L 224.6175 169.94375 
L 223.92 169.959913 
L 223.2225 169.98147 
L 222.525 170.009014 
L 221.8275 170.043092 
L 221.13 170.084198 
L 220.4325 170.132774 
L 219.735 170.1892 
L 219.0375 170.253796 
L 218.34 170.326816 
L 217.6425 170.408449 
L 216.945 170.498817 
L 216.2475 170.597969 
L 215.55 170.705889 
L 214.8525 170.822488 
L 214.155 170.947609 
L 213.4575 171.081027 
L 212.76 171.22245 
L 212.0625 171.371521 
L 211.365 171.527822 
L 210.6675 171.690875 
L 209.97 171.860145 
L 209.2725 172.035047 
L 208.575 172.214947 
L 207.8775 172.399166 
L 207.18 172.586988 
L 206.4825 172.777662 
L 205.785 172.970409 
L 205.0875 173.164426 
L 204.39 173.358892 
L 203.6925 173.552974 
L 202.995 173.745833 
L 202.2975 173.936627 
L 201.6 174.124521 
L 200.9025 174.308686 
L 200.205 174.488313 
L 199.5075 174.662609 
L 198.81 174.830809 
L 198.1125 174.992176 
L 197.415 175.14601 
L 196.7175 175.291647 
L 196.02 175.428465 
L 195.3225 175.55589 
L 194.625 175.673393 
L 193.9275 175.7805 
L 193.23 175.876786 
L 192.5325 175.961883 
L 191.835 176.03548 
L 191.1375 176.097321 
L 190.44 176.147209 
L 189.7425 176.185002 
L 189.045 176.210617 
L 188.3475 176.224025 
L 187.65 176.225253 
L 186.9525 176.214379 
L 186.255 176.191534 
L 185.5575 176.156894 
L 184.86 176.110683 
L 184.1625 176.053167 
L 183.465 175.984651 
L 182.7675 175.905474 
L 182.07 175.816011 
L 181.3725 175.716662 
L 180.675 175.607851 
L 179.9775 175.490026 
L 179.28 175.363646 
L 178.5825 175.229188 
L 177.885 175.087134 
L 177.1875 174.93797 
L 176.49 174.782186 
L 175.7925 174.620265 
L 175.095 174.452687 
L 174.3975 174.279921 
L 173.7 174.102424 
L 173.0025 173.920638 
L 172.305 173.734986 
L 171.6075 173.545872 
L 170.91 173.353679 
L 170.2125 173.158767 
L 169.515 172.961471 
L 168.8175 172.7621 
L 168.12 172.56094 
L 167.4225 172.35825 
L 166.725 172.154263 
L 166.0275 171.949189 
L 165.33 171.743212 
L 164.6325 171.536494 
L 163.935 171.329177 
L 163.2375 171.121382 
L 162.54 170.913212 
L 161.8425 170.704757 
L 161.145 170.496091 
L 160.4475 170.287281 
L 159.75 170.078382 
L 159.0525 169.869448 
L 158.355 169.660528 
L 157.6575 169.451673 
L 156.96 169.242937 
L 156.2625 169.034381 
L 155.565 168.826074 
L 154.8675 168.618097 
L 154.17 168.410546 
L 153.4725 168.203531 
L 152.775 167.997183 
L 152.0775 167.791652 
L 151.38 167.587111 
L 150.6825 167.383756 
L 149.985 167.181805 
L 149.2875 166.981505 
L 148.59 166.783126 
L 147.8925 166.586965 
L 147.195 166.393342 
L 146.4975 166.202604 
L 145.8 166.015122 
L 145.1025 165.831287 
L 144.405 165.651513 
L 143.7075 165.476231 
L 143.01 165.305892 
L 142.3125 165.140957 
L 141.615 164.9819 
L 140.9175 164.829203 
L 140.22 164.683353 
L 139.5225 164.544838 
L 138.825 164.414144 
L 138.1275 164.291749 
L 137.43 164.178122 
L 136.7325 164.07372 
L 136.035 163.978977 
L 135.3375 163.894309 
L 134.64 163.820104 
L 133.9425 163.756721 
L 133.245 163.704483 
L 132.5475 163.66368 
L 131.85 163.634556 
L 131.1525 163.617315 
L 130.455 163.612113 
L 129.7575 163.619056 
L 129.06 163.6382 
L 128.3625 163.669546 
L 127.665 163.71304 
L 126.9675 163.768572 
L 126.27 163.835976 
L 125.5725 163.915027 
L 124.875 164.005444 
L 124.1775 164.10689 
L 123.48 164.21897 
L 122.7825 164.341237 
L 122.085 164.473192 
L 121.3875 164.614284 
L 120.69 164.763916 
L 119.9925 164.921448 
L 119.295 165.086199 
L 118.5975 165.257449 
L 117.9 165.43445 
L 117.2025 165.616423 
L 116.505 165.802566 
L 115.8075 165.992061 
L 115.11 166.184075 
L 114.4125 166.377769 
L 113.715 166.572302 
L 113.0175 166.766837 
L 112.32 166.960544 
L 111.6225 167.15261 
L 110.925 167.342244 
L 110.2275 167.528676 
L 109.53 167.711172 
L 108.8325 167.889031 
L 108.135 168.061595 
L 107.4375 168.22825 
L 106.74 168.388435 
L 106.0425 168.541639 
L 105.345 168.687411 
L 104.6475 168.825361 
L 103.95 168.955159 
L 103.2525 169.076546 
L 102.555 169.189325 
L 101.8575 169.293372 
L 101.16 169.38863 
L 100.4625 169.475112 
L 99.765 169.552901 
L 99.0675 169.622148 
L 98.37 169.683074 
L 97.6725 169.735962 
L 96.975 169.781159 
L 96.2775 169.819075 
L 95.58 169.850175 
L 94.8825 169.874977 
L 94.185 169.894051 
L 93.4875 169.908009 
L 92.79 169.917505 
L 92.0925 169.923228 
L 91.395 169.925895 
L 90.6975 169.926248 
L 90 169.925048 
z
" style="fill:#e0ffff;"/>
   </g>
   <g id="line2d_19">
    <path clip-path="url(#pa0f9d2b7b3)" d="M 90 169.925048 
L 95.58 169.850175 
L 99.765 169.552901 
L 103.2525 169.076546 
L 106.74 168.388435 
L 110.925 167.342244 
L 120.69 164.763916 
L 124.1775 164.10689 
L 126.9675 163.768572 
L 129.7575 163.619056 
L 132.5475 163.66368 
L 136.035 163.978977 
L 139.5225 164.544838 
L 143.7075 165.476231 
L 149.2875 166.981505 
L 161.145 170.496091 
L 172.305 173.734986 
L 177.1875 174.93797 
L 180.675 175.607851 
L 184.1625 176.053167 
L 186.9525 176.214379 
L 189.7425 176.185002 
L 192.5325 175.961883 
L 196.02 175.428465 
L 199.5075 174.662609 
L 205.0875 173.164426 
L 211.365 171.527822 
L 214.8525 170.822488 
L 218.34 170.326816 
L 221.8275 170.043092 
L 226.0125 169.925024 
L 237.1725 169.757436 
L 240.66 169.429024 
L 244.1475 168.885388 
L 248.3325 167.968163 
L 253.9125 166.46614 
L 259.4925 164.995482 
L 262.98 164.273312 
L 266.4675 163.79775 
L 269.2575 163.626244 
L 272.0475 163.64898 
L 274.8375 163.85926 
L 278.325 164.357452 
L 282.51 165.230223 
L 287.3925 166.498619 
L 296.46 169.148113 
L 312.5025 173.836705 
L 317.385 175.020184 
L 320.8725 175.668349 
L 324.36 176.085923 
L 327.15 176.221804 
L 329.94 176.165893 
L 332.73 175.916873 
L 336.2175 175.354966 
L 339.705 174.568246 
L 345.9825 172.865065 
L 351.5625 171.441698 
L 355.05 170.75782 
L 358.5375 170.285929 
L 362.025 170.023663 
L 366.9075 169.920096 
L 375.975 169.815917 
L 379.4625 169.546185 
L 382.95 169.065864 
L 386.4375 168.374154 
L 391.32 167.135239 
L 400.3875 164.749977 
L 403.875 164.097222 
L 406.665 163.76303 
L 409.455 163.617921 
L 412.245 163.66691 
L 415.7325 163.98718 
L 419.22 164.557115 
L 423.405 165.491969 
L 428.985 166.999639 
L 440.8425 170.515068 
L 452.0025 173.752012 
L 456.885 174.951812 
L 460.3725 175.618122 
L 463.86 176.058855 
L 466.65 176.215865 
L 469.44 176.182069 
L 472.23 175.954618 
L 475.7175 175.416407 
L 479.205 174.647004 
L 484.785 173.146757 
L 491.0625 171.513327 
L 494.55 170.811533 
L 498.0375 170.319824 
L 501.525 170.03971 
L 505.71 169.924537 
L 516.1725 169.795766 
L 519.66 169.504398 
L 523.1475 169.000285 
L 526.635 168.287276 
L 531.5175 167.030618 
L 539.8875 164.820321 
L 543.375 164.146438 
L 546.8625 163.731848 
L 549.6525 163.613228 
L 552.4425 163.688309 
L 555.93 164.038128 
L 559.4175 164.63211 
L 563.6025 165.587231 
L 569.1825 167.108764 
L 582.435 171.045722 
L 592.2 173.853553 
L 597.0825 175.03369 
L 600.57 175.678166 
L 604.0575 176.091061 
L 606.8475 176.222693 
L 609.6375 176.162357 
L 612.4275 175.909042 
L 615.915 175.34245 
L 620.1 174.374572 
L 633.3525 170.995179 
L 636.84 170.440295 
L 640.3275 170.100977 
L 644.5125 169.935983 
L 646.605 169.92 
L 646.605 169.92 
" style="fill:none;stroke:#008080;stroke-linecap:round;stroke-width:1.75;"/>
   </g>
   <g id="patch_3">
    <path d="M 90 270.72 
L 90 69.12 
" style="fill:none;stroke:#262626;stroke-linecap:square;stroke-linejoin:miter;stroke-width:1.25;"/>
   </g>
   <g id="patch_4">
    <path d="M 90 270.72 
L 648 270.72 
" style="fill:none;stroke:#262626;stroke-linecap:square;stroke-linejoin:miter;stroke-width:1.25;"/>
   </g>
  </g>
  <g id="axes_2">
   <g id="patch_5">
    <path d="M 90 512.64 
L 648 512.64 
L 648 311.04 
L 90 311.04 
z
" style="fill:#ffffff;"/>
   </g>
   <g id="matplotlib.axis_3">
    <g id="xtick_10">
     <g id="line2d_20">
      <g>
       <use style="fill:#262626;stroke:#262626;" x="191.454545" xlink:href="#m3ce5d9b22f" y="512.64"/>
      </g>
     </g>
     <g id="text_19">
      <!-- 200 -->
      <g style="fill:#262626;" transform="translate(183.113139 532.797812)scale(0.1 -0.1)">
       <use xlink:href="#ArialMT-32"/>
       <use x="55.615234" xlink:href="#ArialMT-30"/>
       <use x="111.230469" xlink:href="#ArialMT-30"/>
      </g>
     </g>
    </g>
    <g id="xtick_11">
     <g id="line2d_21">
      <g>
       <use style="fill:#262626;stroke:#262626;" x="304.181818" xlink:href="#m3ce5d9b22f" y="512.64"/>
      </g>
     </g>
     <g id="text_20">
      <!-- 400 -->
      <g style="fill:#262626;" transform="translate(295.840412 532.797812)scale(0.1 -0.1)">
       <use xlink:href="#ArialMT-34"/>
       <use x="55.615234" xlink:href="#ArialMT-30"/>
       <use x="111.230469" xlink:href="#ArialMT-30"/>
      </g>
     </g>
    </g>
    <g id="xtick_12">
     <g id="line2d_22">
      <g>
       <use style="fill:#262626;stroke:#262626;" x="416.909091" xlink:href="#m3ce5d9b22f" y="512.64"/>
      </g>
     </g>
     <g id="text_21">
      <!-- 600 -->
      <g style="fill:#262626;" transform="translate(408.567685 532.797812)scale(0.1 -0.1)">
       <use xlink:href="#ArialMT-36"/>
       <use x="55.615234" xlink:href="#ArialMT-30"/>
       <use x="111.230469" xlink:href="#ArialMT-30"/>
      </g>
     </g>
    </g>
    <g id="xtick_13">
     <g id="line2d_23">
      <g>
       <use style="fill:#262626;stroke:#262626;" x="529.636364" xlink:href="#m3ce5d9b22f" y="512.64"/>
      </g>
     </g>
     <g id="text_22">
      <!-- 800 -->
      <g style="fill:#262626;" transform="translate(521.294957 532.797812)scale(0.1 -0.1)">
       <use xlink:href="#ArialMT-38"/>
       <use x="55.615234" xlink:href="#ArialMT-30"/>
       <use x="111.230469" xlink:href="#ArialMT-30"/>
      </g>
     </g>
    </g>
    <g id="xtick_14">
     <g id="line2d_24">
      <g>
       <use style="fill:#262626;stroke:#262626;" x="642.363636" xlink:href="#m3ce5d9b22f" y="512.64"/>
      </g>
     </g>
     <g id="text_23">
      <!-- 1000 -->
      <g style="fill:#262626;" transform="translate(631.241761 532.797812)scale(0.1 -0.1)">
       <use xlink:href="#ArialMT-31"/>
       <use x="55.615234" xlink:href="#ArialMT-30"/>
       <use x="111.230469" xlink:href="#ArialMT-30"/>
       <use x="166.845703" xlink:href="#ArialMT-30"/>
      </g>
     </g>
    </g>
   </g>
   <g id="matplotlib.axis_4">
    <g id="ytick_10">
     <g id="line2d_25">
      <g>
       <use style="fill:#262626;stroke:#262626;" x="90" xlink:href="#md984959651" y="512.64"/>
      </g>
     </g>
     <g id="text_24">
      <!-- 0 -->
      <g style="fill:#262626;" transform="translate(71.439063 516.218906)scale(0.1 -0.1)">
       <use xlink:href="#ArialMT-30"/>
      </g>
     </g>
    </g>
    <g id="ytick_11">
     <g id="line2d_26">
      <g>
       <use style="fill:#262626;stroke:#262626;" x="90" xlink:href="#md984959651" y="487.44"/>
      </g>
     </g>
     <g id="text_25">
      <!-- 5 -->
      <g style="fill:#262626;" transform="translate(71.439063 491.018906)scale(0.1 -0.1)">
       <use xlink:href="#ArialMT-35"/>
      </g>
     </g>
    </g>
    <g id="ytick_12">
     <g id="line2d_27">
      <g>
       <use style="fill:#262626;stroke:#262626;" x="90" xlink:href="#md984959651" y="462.24"/>
      </g>
     </g>
     <g id="text_26">
      <!-- 10 -->
      <g style="fill:#262626;" transform="translate(65.878125 465.818906)scale(0.1 -0.1)">
       <use xlink:href="#ArialMT-31"/>
       <use x="55.615234" xlink:href="#ArialMT-30"/>
      </g>
     </g>
    </g>
    <g id="ytick_13">
     <g id="line2d_28">
      <g>
       <use style="fill:#262626;stroke:#262626;" x="90" xlink:href="#md984959651" y="437.04"/>
      </g>
     </g>
     <g id="text_27">
      <!-- 15 -->
      <g style="fill:#262626;" transform="translate(65.878125 440.618906)scale(0.1 -0.1)">
       <use xlink:href="#ArialMT-31"/>
       <use x="55.615234" xlink:href="#ArialMT-35"/>
      </g>
     </g>
    </g>
    <g id="ytick_14">
     <g id="line2d_29">
      <g>
       <use style="fill:#262626;stroke:#262626;" x="90" xlink:href="#md984959651" y="411.84"/>
      </g>
     </g>
     <g id="text_28">
      <!-- 20 -->
      <g style="fill:#262626;" transform="translate(65.878125 415.418906)scale(0.1 -0.1)">
       <use xlink:href="#ArialMT-32"/>
       <use x="55.615234" xlink:href="#ArialMT-30"/>
      </g>
     </g>
    </g>
    <g id="ytick_15">
     <g id="line2d_30">
      <g>
       <use style="fill:#262626;stroke:#262626;" x="90" xlink:href="#md984959651" y="386.64"/>
      </g>
     </g>
     <g id="text_29">
      <!-- 25 -->
      <g style="fill:#262626;" transform="translate(65.878125 390.218906)scale(0.1 -0.1)">
       <use xlink:href="#ArialMT-32"/>
       <use x="55.615234" xlink:href="#ArialMT-35"/>
      </g>
     </g>
    </g>
    <g id="ytick_16">
     <g id="line2d_31">
      <g>
       <use style="fill:#262626;stroke:#262626;" x="90" xlink:href="#md984959651" y="361.44"/>
      </g>
     </g>
     <g id="text_30">
      <!-- 30 -->
      <g style="fill:#262626;" transform="translate(65.878125 365.018906)scale(0.1 -0.1)">
       <use xlink:href="#ArialMT-33"/>
       <use x="55.615234" xlink:href="#ArialMT-30"/>
      </g>
     </g>
    </g>
    <g id="ytick_17">
     <g id="line2d_32">
      <g>
       <use style="fill:#262626;stroke:#262626;" x="90" xlink:href="#md984959651" y="336.24"/>
      </g>
     </g>
     <g id="text_31">
      <!-- 35 -->
      <g style="fill:#262626;" transform="translate(65.878125 339.818906)scale(0.1 -0.1)">
       <use xlink:href="#ArialMT-33"/>
       <use x="55.615234" xlink:href="#ArialMT-35"/>
      </g>
     </g>
    </g>
    <g id="ytick_18">
     <g id="line2d_33">
      <g>
       <use style="fill:#262626;stroke:#262626;" x="90" xlink:href="#md984959651" y="311.04"/>
      </g>
     </g>
     <g id="text_32">
      <!-- 40 -->
      <g style="fill:#262626;" transform="translate(65.878125 314.618906)scale(0.1 -0.1)">
       <use xlink:href="#ArialMT-34"/>
       <use x="55.615234" xlink:href="#ArialMT-30"/>
      </g>
     </g>
    </g>
   </g>
   <g id="line2d_34">
    <path clip-path="url(#pb44a3d4ed8)" d="M 90 488.562059 
L 95.636364 492.871917 
L 101.272727 491.915277 
L 106.909091 490.291312 
L 112.545455 492.192009 
L 118.181818 490.692663 
L 123.818182 490.203121 
L 129.454545 491.968658 
L 135.090909 490.163889 
L 140.727273 490.392837 
L 146.363636 490.241829 
L 152 489.156296 
L 157.636364 490.240305 
L 163.272727 490.645166 
L 168.909091 488.187222 
L 174.545455 488.633986 
L 180.181818 487.313077 
L 185.818182 487.018973 
L 191.454545 487.338343 
L 197.090909 486.121391 
L 202.727273 487.201243 
" style="fill:none;stroke:#b22222;stroke-linecap:round;stroke-width:1.75;"/>
   </g>
   <g id="patch_6">
    <path d="M 90 512.64 
L 90 311.04 
" style="fill:none;stroke:#262626;stroke-linecap:square;stroke-linejoin:miter;stroke-width:1.25;"/>
   </g>
   <g id="patch_7">
    <path d="M 90 512.64 
L 648 512.64 
" style="fill:none;stroke:#262626;stroke-linecap:square;stroke-linejoin:miter;stroke-width:1.25;"/>
   </g>
   <g id="text_33">
    <!-- f = 220 Hz -->
    <defs>
     <path d="M 8.6875 0 
L 8.6875 45.015625 
L 0.921875 45.015625 
L 0.921875 51.859375 
L 8.6875 51.859375 
L 8.6875 57.375 
Q 8.6875 62.59375 9.625 65.140625 
Q 10.890625 68.5625 14.078125 70.671875 
Q 17.28125 72.796875 23.046875 72.796875 
Q 26.765625 72.796875 31.25 71.921875 
L 29.9375 64.265625 
Q 27.203125 64.75 24.75 64.75 
Q 20.75 64.75 19.09375 63.03125 
Q 17.4375 61.328125 17.4375 56.640625 
L 17.4375 51.859375 
L 27.546875 51.859375 
L 27.546875 45.015625 
L 17.4375 45.015625 
L 17.4375 0 
z
" id="ArialMT-66"/>
     <path id="ArialMT-20"/>
     <path d="M 52.828125 42.09375 
L 5.5625 42.09375 
L 5.5625 50.296875 
L 52.828125 50.296875 
z
M 52.828125 20.359375 
L 5.5625 20.359375 
L 5.5625 28.5625 
L 52.828125 28.5625 
z
" id="ArialMT-3d"/>
     <path d="M 8.015625 0 
L 8.015625 71.578125 
L 17.484375 71.578125 
L 17.484375 42.1875 
L 54.6875 42.1875 
L 54.6875 71.578125 
L 64.15625 71.578125 
L 64.15625 0 
L 54.6875 0 
L 54.6875 33.734375 
L 17.484375 33.734375 
L 17.484375 0 
z
" id="ArialMT-48"/>
     <path d="M 1.953125 0 
L 1.953125 7.125 
L 34.96875 45.015625 
Q 29.34375 44.734375 25.046875 44.734375 
L 3.90625 44.734375 
L 3.90625 51.859375 
L 46.296875 51.859375 
L 46.296875 46.046875 
L 18.21875 13.140625 
L 12.796875 7.125 
Q 18.703125 7.5625 23.875 7.5625 
L 47.859375 7.5625 
L 47.859375 0 
z
" id="ArialMT-7a"/>
    </defs>
    <g style="fill:#262626;" transform="translate(529.636364 364.542187)scale(0.12 -0.12)">
     <use xlink:href="#ArialMT-66"/>
     <use x="27.783203" xlink:href="#ArialMT-20"/>
     <use x="55.566406" xlink:href="#ArialMT-3d"/>
     <use x="113.964844" xlink:href="#ArialMT-20"/>
     <use x="141.748047" xlink:href="#ArialMT-32"/>
     <use x="197.363281" xlink:href="#ArialMT-32"/>
     <use x="252.978516" xlink:href="#ArialMT-30"/>
     <use x="308.59375" xlink:href="#ArialMT-20"/>
     <use x="336.376953" xlink:href="#ArialMT-48"/>
     <use x="408.59375" xlink:href="#ArialMT-7a"/>
    </g>
   </g>
   <g id="PathCollection_1">
    <defs>
     <path d="M 0 3.5 
C 0.928211 3.5 1.81853 3.131218 2.474874 2.474874 
C 3.131218 1.81853 3.5 0.928211 3.5 0 
C 3.5 -0.928211 3.131218 -1.81853 2.474874 -2.474874 
C 1.81853 -3.131218 0.928211 -3.5 0 -3.5 
C -0.928211 -3.5 -1.81853 -3.131218 -2.474874 -2.474874 
C -3.131218 -1.81853 -3.5 -0.928211 -3.5 0 
C -3.5 0.928211 -3.131218 1.81853 -2.474874 2.474874 
C -1.81853 3.131218 -0.928211 3.5 0 3.5 
z
" id="ma935871661" style="stroke:#800000;stroke-width:0.3;"/>
    </defs>
    <g clip-path="url(#pb44a3d4ed8)">
     <use style="fill:#800000;stroke:#800000;stroke-width:0.3;" x="202.727273" xlink:href="#ma935871661" y="487.201243"/>
    </g>
   </g>
  </g>
 </g>
 <defs>
  <clipPath id="pa0f9d2b7b3">
   <rect height="201.6" width="558" x="90" y="69.12"/>
  </clipPath>
  <clipPath id="pb44a3d4ed8">
   <rect height="201.6" width="558" x="90" y="311.04"/>
  </clipPath>
 </defs>
</svg>
