<?xml version="1.0" encoding="utf-8" standalone="no"?>
<!DOCTYPE svg PUBLIC "-//W3C//DTD SVG 1.1//EN"
  "http://www.w3.org/Graphics/SVG/1.1/DTD/svg11.dtd">
<!-- Created with matplotlib (http://matplotlib.org/) -->
<svg height="576pt" version="1.1" viewBox="0 0 720 576" width="720pt" xmlns="http://www.w3.org/2000/svg" xmlns:xlink="http://www.w3.org/1999/xlink">
 <defs>
  <style type="text/css">
*{stroke-linecap:butt;stroke-linejoin:round;}
  </style>
 </defs>
 <g id="figure_1">
  <g id="patch_1">
   <path d="M 0 576 
L 720 576 
L 720 0 
L 0 0 
z
" style="fill:#ffffff;"/>
  </g>
  <g id="axes_1">
   <g id="patch_2">
    <path d="M 90 270.72 
L 648 270.72 
L 648 69.12 
L 90 69.12 
z
" style="fill:#ffffff;"/>
   </g>
   <g id="matplotlib.axis_1">
    <g id="xtick_1">
     <g id="line2d_1">
      <defs>
       <path d="M 0 0 
L 0 6 
" id="mc4b0fa1ba0" style="stroke:#262626;"/>
      </defs>
      <g>
       <use style="fill:#262626;stroke:#262626;" x="90" xlink:href="#mc4b0fa1ba0" y="270.72"/>
      </g>
     </g>
     <g id="text_1">
      <!-- 0 -->
      <defs>
       <path d="M 4.15625 35.296875 
Q 4.15625 48 6.765625 55.734375 
Q 9.375 63.484375 14.515625 67.671875 
Q 19.671875 71.875 27.484375 71.875 
Q 33.25 71.875 37.59375 69.546875 
Q 41.9375 67.234375 44.765625 62.859375 
Q 47.609375 58.5 49.21875 52.21875 
Q 50.828125 45.953125 50.828125 35.296875 
Q 50.828125 22.703125 48.234375 14.96875 
Q 45.65625 7.234375 40.5 3 
Q 35.359375 -1.21875 27.484375 -1.21875 
Q 17.140625 -1.21875 11.234375 6.203125 
Q 4.15625 15.140625 4.15625 35.296875 
z
M 13.1875 35.296875 
Q 13.1875 17.671875 17.3125 11.828125 
Q 21.4375 6 27.484375 6 
Q 33.546875 6 37.671875 11.859375 
Q 41.796875 17.71875 41.796875 35.296875 
Q 41.796875 52.984375 37.671875 58.78125 
Q 33.546875 64.59375 27.390625 64.59375 
Q 21.34375 64.59375 17.71875 59.46875 
Q 13.1875 52.9375 13.1875 35.296875 
z
" id="ArialMT-30"/>
      </defs>
      <g style="fill:#262626;" transform="translate(87.219531 290.877812)scale(0.1 -0.1)">
       <use xlink:href="#ArialMT-30"/>
      </g>
     </g>
    </g>
    <g id="xtick_2">
     <g id="line2d_2">
      <g>
       <use style="fill:#262626;stroke:#262626;" x="159.75" xlink:href="#mc4b0fa1ba0" y="270.72"/>
      </g>
     </g>
     <g id="text_2">
      <!-- 100 -->
      <defs>
       <path d="M 37.25 0 
L 28.46875 0 
L 28.46875 56 
Q 25.296875 52.984375 20.140625 49.953125 
Q 14.984375 46.921875 10.890625 45.40625 
L 10.890625 53.90625 
Q 18.265625 57.375 23.78125 62.296875 
Q 29.296875 67.234375 31.59375 71.875 
L 37.25 71.875 
z
" id="ArialMT-31"/>
      </defs>
      <g style="fill:#262626;" transform="translate(151.408594 290.877812)scale(0.1 -0.1)">
       <use xlink:href="#ArialMT-31"/>
       <use x="55.615234" xlink:href="#ArialMT-30"/>
       <use x="111.230469" xlink:href="#ArialMT-30"/>
      </g>
     </g>
    </g>
    <g id="xtick_3">
     <g id="line2d_3">
      <g>
       <use style="fill:#262626;stroke:#262626;" x="229.5" xlink:href="#mc4b0fa1ba0" y="270.72"/>
      </g>
     </g>
     <g id="text_3">
      <!-- 200 -->
      <defs>
       <path d="M 50.34375 8.453125 
L 50.34375 0 
L 3.03125 0 
Q 2.9375 3.171875 4.046875 6.109375 
Q 5.859375 10.9375 9.828125 15.625 
Q 13.8125 20.3125 21.34375 26.46875 
Q 33.015625 36.03125 37.109375 41.625 
Q 41.21875 47.21875 41.21875 52.203125 
Q 41.21875 57.421875 37.46875 61 
Q 33.734375 64.59375 27.734375 64.59375 
Q 21.390625 64.59375 17.578125 60.78125 
Q 13.765625 56.984375 13.71875 50.25 
L 4.6875 51.171875 
Q 5.609375 61.28125 11.65625 66.578125 
Q 17.71875 71.875 27.9375 71.875 
Q 38.234375 71.875 44.234375 66.15625 
Q 50.25 60.453125 50.25 52 
Q 50.25 47.703125 48.484375 43.546875 
Q 46.734375 39.40625 42.65625 34.8125 
Q 38.578125 30.21875 29.109375 22.21875 
Q 21.1875 15.578125 18.9375 13.203125 
Q 16.703125 10.84375 15.234375 8.453125 
z
" id="ArialMT-32"/>
      </defs>
      <g style="fill:#262626;" transform="translate(221.158594 290.877812)scale(0.1 -0.1)">
       <use xlink:href="#ArialMT-32"/>
       <use x="55.615234" xlink:href="#ArialMT-30"/>
       <use x="111.230469" xlink:href="#ArialMT-30"/>
      </g>
     </g>
    </g>
    <g id="xtick_4">
     <g id="line2d_4">
      <g>
       <use style="fill:#262626;stroke:#262626;" x="299.25" xlink:href="#mc4b0fa1ba0" y="270.72"/>
      </g>
     </g>
     <g id="text_4">
      <!-- 300 -->
      <defs>
       <path d="M 4.203125 18.890625 
L 12.984375 20.0625 
Q 14.5 12.59375 18.140625 9.296875 
Q 21.78125 6 27 6 
Q 33.203125 6 37.46875 10.296875 
Q 41.75 14.59375 41.75 20.953125 
Q 41.75 27 37.796875 30.921875 
Q 33.84375 34.859375 27.734375 34.859375 
Q 25.25 34.859375 21.53125 33.890625 
L 22.515625 41.609375 
Q 23.390625 41.5 23.921875 41.5 
Q 29.546875 41.5 34.03125 44.421875 
Q 38.53125 47.359375 38.53125 53.46875 
Q 38.53125 58.296875 35.25 61.46875 
Q 31.984375 64.65625 26.8125 64.65625 
Q 21.6875 64.65625 18.265625 61.421875 
Q 14.84375 58.203125 13.875 51.765625 
L 5.078125 53.328125 
Q 6.6875 62.15625 12.390625 67.015625 
Q 18.109375 71.875 26.609375 71.875 
Q 32.46875 71.875 37.390625 69.359375 
Q 42.328125 66.84375 44.9375 62.5 
Q 47.5625 58.15625 47.5625 53.265625 
Q 47.5625 48.640625 45.0625 44.828125 
Q 42.578125 41.015625 37.703125 38.765625 
Q 44.046875 37.3125 47.5625 32.6875 
Q 51.078125 28.078125 51.078125 21.140625 
Q 51.078125 11.765625 44.234375 5.25 
Q 37.40625 -1.265625 26.953125 -1.265625 
Q 17.53125 -1.265625 11.296875 4.34375 
Q 5.078125 9.96875 4.203125 18.890625 
z
" id="ArialMT-33"/>
      </defs>
      <g style="fill:#262626;" transform="translate(290.908594 290.877812)scale(0.1 -0.1)">
       <use xlink:href="#ArialMT-33"/>
       <use x="55.615234" xlink:href="#ArialMT-30"/>
       <use x="111.230469" xlink:href="#ArialMT-30"/>
      </g>
     </g>
    </g>
    <g id="xtick_5">
     <g id="line2d_5">
      <g>
       <use style="fill:#262626;stroke:#262626;" x="369" xlink:href="#mc4b0fa1ba0" y="270.72"/>
      </g>
     </g>
     <g id="text_5">
      <!-- 400 -->
      <defs>
       <path d="M 32.328125 0 
L 32.328125 17.140625 
L 1.265625 17.140625 
L 1.265625 25.203125 
L 33.9375 71.578125 
L 41.109375 71.578125 
L 41.109375 25.203125 
L 50.78125 25.203125 
L 50.78125 17.140625 
L 41.109375 17.140625 
L 41.109375 0 
z
M 32.328125 25.203125 
L 32.328125 57.46875 
L 9.90625 25.203125 
z
" id="ArialMT-34"/>
      </defs>
      <g style="fill:#262626;" transform="translate(360.658594 290.877812)scale(0.1 -0.1)">
       <use xlink:href="#ArialMT-34"/>
       <use x="55.615234" xlink:href="#ArialMT-30"/>
       <use x="111.230469" xlink:href="#ArialMT-30"/>
      </g>
     </g>
    </g>
    <g id="xtick_6">
     <g id="line2d_6">
      <g>
       <use style="fill:#262626;stroke:#262626;" x="438.75" xlink:href="#mc4b0fa1ba0" y="270.72"/>
      </g>
     </g>
     <g id="text_6">
      <!-- 500 -->
      <defs>
       <path d="M 4.15625 18.75 
L 13.375 19.53125 
Q 14.40625 12.796875 18.140625 9.390625 
Q 21.875 6 27.15625 6 
Q 33.5 6 37.890625 10.78125 
Q 42.28125 15.578125 42.28125 23.484375 
Q 42.28125 31 38.0625 35.34375 
Q 33.84375 39.703125 27 39.703125 
Q 22.75 39.703125 19.328125 37.765625 
Q 15.921875 35.84375 13.96875 32.765625 
L 5.71875 33.84375 
L 12.640625 70.609375 
L 48.25 70.609375 
L 48.25 62.203125 
L 19.671875 62.203125 
L 15.828125 42.96875 
Q 22.265625 47.46875 29.34375 47.46875 
Q 38.71875 47.46875 45.15625 40.96875 
Q 51.609375 34.46875 51.609375 24.265625 
Q 51.609375 14.546875 45.953125 7.46875 
Q 39.0625 -1.21875 27.15625 -1.21875 
Q 17.390625 -1.21875 11.203125 4.25 
Q 5.03125 9.71875 4.15625 18.75 
z
" id="ArialMT-35"/>
      </defs>
      <g style="fill:#262626;" transform="translate(430.408594 290.877812)scale(0.1 -0.1)">
       <use xlink:href="#ArialMT-35"/>
       <use x="55.615234" xlink:href="#ArialMT-30"/>
       <use x="111.230469" xlink:href="#ArialMT-30"/>
      </g>
     </g>
    </g>
    <g id="xtick_7">
     <g id="line2d_7">
      <g>
       <use style="fill:#262626;stroke:#262626;" x="508.5" xlink:href="#mc4b0fa1ba0" y="270.72"/>
      </g>
     </g>
     <g id="text_7">
      <!-- 600 -->
      <defs>
       <path d="M 49.75 54.046875 
L 41.015625 53.375 
Q 39.84375 58.546875 37.703125 60.890625 
Q 34.125 64.65625 28.90625 64.65625 
Q 24.703125 64.65625 21.53125 62.3125 
Q 17.390625 59.28125 14.984375 53.46875 
Q 12.59375 47.65625 12.5 36.921875 
Q 15.671875 41.75 20.265625 44.09375 
Q 24.859375 46.4375 29.890625 46.4375 
Q 38.671875 46.4375 44.84375 39.96875 
Q 51.03125 33.5 51.03125 23.25 
Q 51.03125 16.5 48.125 10.71875 
Q 45.21875 4.9375 40.140625 1.859375 
Q 35.0625 -1.21875 28.609375 -1.21875 
Q 17.625 -1.21875 10.6875 6.859375 
Q 3.765625 14.9375 3.765625 33.5 
Q 3.765625 54.25 11.421875 63.671875 
Q 18.109375 71.875 29.4375 71.875 
Q 37.890625 71.875 43.28125 67.140625 
Q 48.6875 62.40625 49.75 54.046875 
z
M 13.875 23.1875 
Q 13.875 18.65625 15.796875 14.5 
Q 17.71875 10.359375 21.1875 8.171875 
Q 24.65625 6 28.46875 6 
Q 34.03125 6 38.03125 10.484375 
Q 42.046875 14.984375 42.046875 22.703125 
Q 42.046875 30.125 38.078125 34.390625 
Q 34.125 38.671875 28.125 38.671875 
Q 22.171875 38.671875 18.015625 34.390625 
Q 13.875 30.125 13.875 23.1875 
z
" id="ArialMT-36"/>
      </defs>
      <g style="fill:#262626;" transform="translate(500.158594 290.877812)scale(0.1 -0.1)">
       <use xlink:href="#ArialMT-36"/>
       <use x="55.615234" xlink:href="#ArialMT-30"/>
       <use x="111.230469" xlink:href="#ArialMT-30"/>
      </g>
     </g>
    </g>
    <g id="xtick_8">
     <g id="line2d_8">
      <g>
       <use style="fill:#262626;stroke:#262626;" x="578.25" xlink:href="#mc4b0fa1ba0" y="270.72"/>
      </g>
     </g>
     <g id="text_8">
      <!-- 700 -->
      <defs>
       <path d="M 4.734375 62.203125 
L 4.734375 70.65625 
L 51.078125 70.65625 
L 51.078125 63.8125 
Q 44.234375 56.546875 37.515625 44.484375 
Q 30.8125 32.421875 27.15625 19.671875 
Q 24.515625 10.6875 23.78125 0 
L 14.75 0 
Q 14.890625 8.453125 18.0625 20.40625 
Q 21.234375 32.375 27.171875 43.484375 
Q 33.109375 54.59375 39.796875 62.203125 
z
" id="ArialMT-37"/>
      </defs>
      <g style="fill:#262626;" transform="translate(569.908594 290.877812)scale(0.1 -0.1)">
       <use xlink:href="#ArialMT-37"/>
       <use x="55.615234" xlink:href="#ArialMT-30"/>
       <use x="111.230469" xlink:href="#ArialMT-30"/>
      </g>
     </g>
    </g>
    <g id="xtick_9">
     <g id="line2d_9">
      <g>
       <use style="fill:#262626;stroke:#262626;" x="648" xlink:href="#mc4b0fa1ba0" y="270.72"/>
      </g>
     </g>
     <g id="text_9">
      <!-- 800 -->
      <defs>
       <path d="M 17.671875 38.8125 
Q 12.203125 40.828125 9.5625 44.53125 
Q 6.9375 48.25 6.9375 53.421875 
Q 6.9375 61.234375 12.546875 66.546875 
Q 18.171875 71.875 27.484375 71.875 
Q 36.859375 71.875 42.578125 66.421875 
Q 48.296875 60.984375 48.296875 53.171875 
Q 48.296875 48.1875 45.671875 44.5 
Q 43.0625 40.828125 37.75 38.8125 
Q 44.34375 36.671875 47.78125 31.875 
Q 51.21875 27.09375 51.21875 20.453125 
Q 51.21875 11.28125 44.71875 5.03125 
Q 38.234375 -1.21875 27.640625 -1.21875 
Q 17.046875 -1.21875 10.546875 5.046875 
Q 4.046875 11.328125 4.046875 20.703125 
Q 4.046875 27.6875 7.59375 32.390625 
Q 11.140625 37.109375 17.671875 38.8125 
z
M 15.921875 53.71875 
Q 15.921875 48.640625 19.1875 45.40625 
Q 22.46875 42.1875 27.6875 42.1875 
Q 32.765625 42.1875 36.015625 45.375 
Q 39.265625 48.578125 39.265625 53.21875 
Q 39.265625 58.0625 35.90625 61.359375 
Q 32.5625 64.65625 27.59375 64.65625 
Q 22.5625 64.65625 19.234375 61.421875 
Q 15.921875 58.203125 15.921875 53.71875 
z
M 13.09375 20.65625 
Q 13.09375 16.890625 14.875 13.375 
Q 16.65625 9.859375 20.171875 7.921875 
Q 23.6875 6 27.734375 6 
Q 34.03125 6 38.125 10.046875 
Q 42.234375 14.109375 42.234375 20.359375 
Q 42.234375 26.703125 38.015625 30.859375 
Q 33.796875 35.015625 27.4375 35.015625 
Q 21.234375 35.015625 17.15625 30.90625 
Q 13.09375 26.8125 13.09375 20.65625 
z
" id="ArialMT-38"/>
      </defs>
      <g style="fill:#262626;" transform="translate(639.658594 290.877812)scale(0.1 -0.1)">
       <use xlink:href="#ArialMT-38"/>
       <use x="55.615234" xlink:href="#ArialMT-30"/>
       <use x="111.230469" xlink:href="#ArialMT-30"/>
      </g>
     </g>
    </g>
   </g>
   <g id="matplotlib.axis_2">
    <g id="ytick_1">
     <g id="line2d_10">
      <defs>
       <path d="M 0 0 
L -6 0 
" id="ma5aec8956c" style="stroke:#262626;"/>
      </defs>
      <g>
       <use style="fill:#262626;stroke:#262626;" x="90" xlink:href="#ma5aec8956c" y="270.72"/>
      </g>
     </g>
     <g id="text_10">
      <!-- −0.20 -->
      <defs>
       <path d="M 52.828125 31.203125 
L 5.5625 31.203125 
L 5.5625 39.40625 
L 52.828125 39.40625 
z
" id="ArialMT-2212"/>
       <path d="M 9.078125 0 
L 9.078125 10.015625 
L 19.09375 10.015625 
L 19.09375 0 
z
" id="ArialMT-2e"/>
      </defs>
      <g style="fill:#262626;" transform="translate(51.698437 274.298906)scale(0.1 -0.1)">
       <use xlink:href="#ArialMT-2212"/>
       <use x="58.398438" xlink:href="#ArialMT-30"/>
       <use x="114.013672" xlink:href="#ArialMT-2e"/>
       <use x="141.796875" xlink:href="#ArialMT-32"/>
       <use x="197.412109" xlink:href="#ArialMT-30"/>
      </g>
     </g>
    </g>
    <g id="ytick_2">
     <g id="line2d_11">
      <g>
       <use style="fill:#262626;stroke:#262626;" x="90" xlink:href="#ma5aec8956c" y="245.52"/>
      </g>
     </g>
     <g id="text_11">
      <!-- −0.15 -->
      <g style="fill:#262626;" transform="translate(51.698437 249.098906)scale(0.1 -0.1)">
       <use xlink:href="#ArialMT-2212"/>
       <use x="58.398438" xlink:href="#ArialMT-30"/>
       <use x="114.013672" xlink:href="#ArialMT-2e"/>
       <use x="141.796875" xlink:href="#ArialMT-31"/>
       <use x="197.412109" xlink:href="#ArialMT-35"/>
      </g>
     </g>
    </g>
    <g id="ytick_3">
     <g id="line2d_12">
      <g>
       <use style="fill:#262626;stroke:#262626;" x="90" xlink:href="#ma5aec8956c" y="220.32"/>
      </g>
     </g>
     <g id="text_12">
      <!-- −0.10 -->
      <g style="fill:#262626;" transform="translate(51.698437 223.898906)scale(0.1 -0.1)">
       <use xlink:href="#ArialMT-2212"/>
       <use x="58.398438" xlink:href="#ArialMT-30"/>
       <use x="114.013672" xlink:href="#ArialMT-2e"/>
       <use x="141.796875" xlink:href="#ArialMT-31"/>
       <use x="197.412109" xlink:href="#ArialMT-30"/>
      </g>
     </g>
    </g>
    <g id="ytick_4">
     <g id="line2d_13">
      <g>
       <use style="fill:#262626;stroke:#262626;" x="90" xlink:href="#ma5aec8956c" y="195.12"/>
      </g>
     </g>
     <g id="text_13">
      <!-- −0.05 -->
      <g style="fill:#262626;" transform="translate(51.698437 198.698906)scale(0.1 -0.1)">
       <use xlink:href="#ArialMT-2212"/>
       <use x="58.398438" xlink:href="#ArialMT-30"/>
       <use x="114.013672" xlink:href="#ArialMT-2e"/>
       <use x="141.796875" xlink:href="#ArialMT-30"/>
       <use x="197.412109" xlink:href="#ArialMT-35"/>
      </g>
     </g>
    </g>
    <g id="ytick_5">
     <g id="line2d_14">
      <g>
       <use style="fill:#262626;stroke:#262626;" x="90" xlink:href="#ma5aec8956c" y="169.92"/>
      </g>
     </g>
     <g id="text_14">
      <!-- 0.00 -->
      <g style="fill:#262626;" transform="translate(57.539062 173.498906)scale(0.1 -0.1)">
       <use xlink:href="#ArialMT-30"/>
       <use x="55.615234" xlink:href="#ArialMT-2e"/>
       <use x="83.398438" xlink:href="#ArialMT-30"/>
       <use x="139.013672" xlink:href="#ArialMT-30"/>
      </g>
     </g>
    </g>
    <g id="ytick_6">
     <g id="line2d_15">
      <g>
       <use style="fill:#262626;stroke:#262626;" x="90" xlink:href="#ma5aec8956c" y="144.72"/>
      </g>
     </g>
     <g id="text_15">
      <!-- 0.05 -->
      <g style="fill:#262626;" transform="translate(57.539062 148.298906)scale(0.1 -0.1)">
       <use xlink:href="#ArialMT-30"/>
       <use x="55.615234" xlink:href="#ArialMT-2e"/>
       <use x="83.398438" xlink:href="#ArialMT-30"/>
       <use x="139.013672" xlink:href="#ArialMT-35"/>
      </g>
     </g>
    </g>
    <g id="ytick_7">
     <g id="line2d_16">
      <g>
       <use style="fill:#262626;stroke:#262626;" x="90" xlink:href="#ma5aec8956c" y="119.52"/>
      </g>
     </g>
     <g id="text_16">
      <!-- 0.10 -->
      <g style="fill:#262626;" transform="translate(57.539062 123.098906)scale(0.1 -0.1)">
       <use xlink:href="#ArialMT-30"/>
       <use x="55.615234" xlink:href="#ArialMT-2e"/>
       <use x="83.398438" xlink:href="#ArialMT-31"/>
       <use x="139.013672" xlink:href="#ArialMT-30"/>
      </g>
     </g>
    </g>
    <g id="ytick_8">
     <g id="line2d_17">
      <g>
       <use style="fill:#262626;stroke:#262626;" x="90" xlink:href="#ma5aec8956c" y="94.32"/>
      </g>
     </g>
     <g id="text_17">
      <!-- 0.15 -->
      <g style="fill:#262626;" transform="translate(57.539062 97.898906)scale(0.1 -0.1)">
       <use xlink:href="#ArialMT-30"/>
       <use x="55.615234" xlink:href="#ArialMT-2e"/>
       <use x="83.398438" xlink:href="#ArialMT-31"/>
       <use x="139.013672" xlink:href="#ArialMT-35"/>
      </g>
     </g>
    </g>
    <g id="ytick_9">
     <g id="line2d_18">
      <g>
       <use style="fill:#262626;stroke:#262626;" x="90" xlink:href="#ma5aec8956c" y="69.12"/>
      </g>
     </g>
     <g id="text_18">
      <!-- 0.20 -->
      <g style="fill:#262626;" transform="translate(57.539062 72.698906)scale(0.1 -0.1)">
       <use xlink:href="#ArialMT-30"/>
       <use x="55.615234" xlink:href="#ArialMT-2e"/>
       <use x="83.398438" xlink:href="#ArialMT-32"/>
       <use x="139.013672" xlink:href="#ArialMT-30"/>
      </g>
     </g>
    </g>
   </g>
   <g id="PolyCollection_1">
    <path clip-path="url(#pe5fec0fbd2)" d="M 90 173.969603 
L 90 169.92 
L 90.6975 169.92 
L 91.395 169.92 
L 92.0925 169.92 
L 92.79 169.92 
L 93.4875 169.92 
L 94.185 169.92 
L 94.8825 169.92 
L 95.58 169.92 
L 96.2775 169.92 
L 96.975 169.92 
L 97.6725 169.92 
L 98.37 169.92 
L 99.0675 169.92 
L 99.765 169.92 
L 100.4625 169.92 
L 101.16 169.92 
L 101.8575 169.92 
L 102.555 169.92 
L 103.2525 169.92 
L 103.95 169.92 
L 104.6475 169.92 
L 105.345 169.92 
L 106.0425 169.92 
L 106.74 169.92 
L 107.4375 169.92 
L 108.135 169.92 
L 108.8325 169.92 
L 109.53 169.92 
L 110.2275 169.92 
L 110.925 169.92 
L 111.6225 169.92 
L 112.32 169.92 
L 113.0175 169.92 
L 113.715 169.92 
L 114.4125 169.92 
L 115.11 169.92 
L 115.8075 169.92 
L 116.505 169.92 
L 117.2025 169.92 
L 117.9 169.92 
L 118.5975 169.92 
L 119.295 169.92 
L 119.9925 169.92 
L 120.69 169.92 
L 121.3875 169.92 
L 122.085 169.92 
L 122.7825 169.92 
L 123.48 169.92 
L 124.1775 169.92 
L 124.875 169.92 
L 125.5725 169.92 
L 126.27 169.92 
L 126.9675 169.92 
L 127.665 169.92 
L 128.3625 169.92 
L 129.06 169.92 
L 129.7575 169.92 
L 130.455 169.92 
L 131.1525 169.92 
L 131.85 169.92 
L 132.5475 169.92 
L 133.245 169.92 
L 133.9425 169.92 
L 134.64 169.92 
L 135.3375 169.92 
L 136.035 169.92 
L 136.7325 169.92 
L 137.43 169.92 
L 138.1275 169.92 
L 138.825 169.92 
L 139.5225 169.92 
L 140.22 169.92 
L 140.9175 169.92 
L 141.615 169.92 
L 142.3125 169.92 
L 143.01 169.92 
L 143.7075 169.92 
L 144.405 169.92 
L 145.1025 169.92 
L 145.8 169.92 
L 146.4975 169.92 
L 147.195 169.92 
L 147.8925 169.92 
L 148.59 169.92 
L 149.2875 169.92 
L 149.985 169.92 
L 150.6825 169.92 
L 151.38 169.92 
L 152.0775 169.92 
L 152.775 169.92 
L 153.4725 169.92 
L 154.17 169.92 
L 154.8675 169.92 
L 155.565 169.92 
L 156.2625 169.92 
L 156.96 169.92 
L 157.6575 169.92 
L 158.355 169.92 
L 159.0525 169.92 
L 159.75 169.92 
L 160.4475 169.92 
L 161.145 169.92 
L 161.8425 169.92 
L 162.54 169.92 
L 163.2375 169.92 
L 163.935 169.92 
L 164.6325 169.92 
L 165.33 169.92 
L 166.0275 169.92 
L 166.725 169.92 
L 167.4225 169.92 
L 168.12 169.92 
L 168.8175 169.92 
L 169.515 169.92 
L 170.2125 169.92 
L 170.91 169.92 
L 171.6075 169.92 
L 172.305 169.92 
L 173.0025 169.92 
L 173.7 169.92 
L 174.3975 169.92 
L 175.095 169.92 
L 175.7925 169.92 
L 176.49 169.92 
L 177.1875 169.92 
L 177.885 169.92 
L 178.5825 169.92 
L 179.28 169.92 
L 179.9775 169.92 
L 180.675 169.92 
L 181.3725 169.92 
L 182.07 169.92 
L 182.7675 169.92 
L 183.465 169.92 
L 184.1625 169.92 
L 184.86 169.92 
L 185.5575 169.92 
L 186.255 169.92 
L 186.9525 169.92 
L 187.65 169.92 
L 188.3475 169.92 
L 189.045 169.92 
L 189.7425 169.92 
L 190.44 169.92 
L 191.1375 169.92 
L 191.835 169.92 
L 192.5325 169.92 
L 193.23 169.92 
L 193.9275 169.92 
L 194.625 169.92 
L 195.3225 169.92 
L 196.02 169.92 
L 196.7175 169.92 
L 197.415 169.92 
L 198.1125 169.92 
L 198.81 169.92 
L 199.5075 169.92 
L 200.205 169.92 
L 200.9025 169.92 
L 201.6 169.92 
L 202.2975 169.92 
L 202.995 169.92 
L 203.6925 169.92 
L 204.39 169.92 
L 205.0875 169.92 
L 205.785 169.92 
L 206.4825 169.92 
L 207.18 169.92 
L 207.8775 169.92 
L 208.575 169.92 
L 209.2725 169.92 
L 209.97 169.92 
L 210.6675 169.92 
L 211.365 169.92 
L 212.0625 169.92 
L 212.76 169.92 
L 213.4575 169.92 
L 214.155 169.92 
L 214.8525 169.92 
L 215.55 169.92 
L 216.2475 169.92 
L 216.945 169.92 
L 217.6425 169.92 
L 218.34 169.92 
L 219.0375 169.92 
L 219.735 169.92 
L 220.4325 169.92 
L 221.13 169.92 
L 221.8275 169.92 
L 222.525 169.92 
L 223.2225 169.92 
L 223.92 169.92 
L 224.6175 169.92 
L 225.315 169.92 
L 226.0125 169.92 
L 226.71 169.92 
L 227.4075 169.92 
L 228.105 169.92 
L 228.8025 169.92 
L 229.5 169.92 
L 230.1975 169.92 
L 230.895 169.92 
L 231.5925 169.92 
L 232.29 169.92 
L 232.9875 169.92 
L 233.685 169.92 
L 234.3825 169.92 
L 235.08 169.92 
L 235.7775 169.92 
L 236.475 169.92 
L 237.1725 169.92 
L 237.87 169.92 
L 238.5675 169.92 
L 239.265 169.92 
L 239.9625 169.92 
L 240.66 169.92 
L 241.3575 169.92 
L 242.055 169.92 
L 242.7525 169.92 
L 243.45 169.92 
L 244.1475 169.92 
L 244.845 169.92 
L 245.5425 169.92 
L 246.24 169.92 
L 246.9375 169.92 
L 247.635 169.92 
L 248.3325 169.92 
L 249.03 169.92 
L 249.7275 169.92 
L 250.425 169.92 
L 251.1225 169.92 
L 251.82 169.92 
L 252.5175 169.92 
L 253.215 169.92 
L 253.9125 169.92 
L 254.61 169.92 
L 255.3075 169.92 
L 256.005 169.92 
L 256.7025 169.92 
L 257.4 169.92 
L 258.0975 169.92 
L 258.795 169.92 
L 259.4925 169.92 
L 260.19 169.92 
L 260.8875 169.92 
L 261.585 169.92 
L 262.2825 169.92 
L 262.98 169.92 
L 263.6775 169.92 
L 264.375 169.92 
L 265.0725 169.92 
L 265.77 169.92 
L 266.4675 169.92 
L 267.165 169.92 
L 267.8625 169.92 
L 268.56 169.92 
L 269.2575 169.92 
L 269.955 169.92 
L 270.6525 169.92 
L 271.35 169.92 
L 272.0475 169.92 
L 272.745 169.92 
L 273.4425 169.92 
L 274.14 169.92 
L 274.8375 169.92 
L 275.535 169.92 
L 276.2325 169.92 
L 276.93 169.92 
L 277.6275 169.92 
L 278.325 169.92 
L 279.0225 169.92 
L 279.72 169.92 
L 280.4175 169.92 
L 281.115 169.92 
L 281.8125 169.92 
L 282.51 169.92 
L 283.2075 169.92 
L 283.905 169.92 
L 284.6025 169.92 
L 285.3 169.92 
L 285.9975 169.92 
L 286.695 169.92 
L 287.3925 169.92 
L 288.09 169.92 
L 288.7875 169.92 
L 289.485 169.92 
L 290.1825 169.92 
L 290.88 169.92 
L 291.5775 169.92 
L 292.275 169.92 
L 292.9725 169.92 
L 293.67 169.92 
L 294.3675 169.92 
L 295.065 169.92 
L 295.7625 169.92 
L 296.46 169.92 
L 297.1575 169.92 
L 297.855 169.92 
L 298.5525 169.92 
L 299.25 169.92 
L 299.9475 169.92 
L 300.645 169.92 
L 301.3425 169.92 
L 302.04 169.92 
L 302.7375 169.92 
L 303.435 169.92 
L 304.1325 169.92 
L 304.83 169.92 
L 305.5275 169.92 
L 306.225 169.92 
L 306.9225 169.92 
L 307.62 169.92 
L 308.3175 169.92 
L 309.015 169.92 
L 309.7125 169.92 
L 310.41 169.92 
L 311.1075 169.92 
L 311.805 169.92 
L 312.5025 169.92 
L 313.2 169.92 
L 313.8975 169.92 
L 314.595 169.92 
L 315.2925 169.92 
L 315.99 169.92 
L 316.6875 169.92 
L 317.385 169.92 
L 318.0825 169.92 
L 318.78 169.92 
L 319.4775 169.92 
L 320.175 169.92 
L 320.8725 169.92 
L 321.57 169.92 
L 322.2675 169.92 
L 322.965 169.92 
L 323.6625 169.92 
L 324.36 169.92 
L 325.0575 169.92 
L 325.755 169.92 
L 326.4525 169.92 
L 327.15 169.92 
L 327.8475 169.92 
L 328.545 169.92 
L 329.2425 169.92 
L 329.94 169.92 
L 330.6375 169.92 
L 331.335 169.92 
L 332.0325 169.92 
L 332.73 169.92 
L 333.4275 169.92 
L 334.125 169.92 
L 334.8225 169.92 
L 335.52 169.92 
L 336.2175 169.92 
L 336.915 169.92 
L 337.6125 169.92 
L 338.31 169.92 
L 339.0075 169.92 
L 339.705 169.92 
L 340.4025 169.92 
L 341.1 169.92 
L 341.7975 169.92 
L 342.495 169.92 
L 343.1925 169.92 
L 343.89 169.92 
L 344.5875 169.92 
L 345.285 169.92 
L 345.9825 169.92 
L 346.68 169.92 
L 347.3775 169.92 
L 348.075 169.92 
L 348.7725 169.92 
L 349.47 169.92 
L 350.1675 169.92 
L 350.865 169.92 
L 351.5625 169.92 
L 352.26 169.92 
L 352.9575 169.92 
L 353.655 169.92 
L 354.3525 169.92 
L 355.05 169.92 
L 355.7475 169.92 
L 356.445 169.92 
L 357.1425 169.92 
L 357.84 169.92 
L 358.5375 169.92 
L 359.235 169.92 
L 359.9325 169.92 
L 360.63 169.92 
L 361.3275 169.92 
L 362.025 169.92 
L 362.7225 169.92 
L 363.42 169.92 
L 364.1175 169.92 
L 364.815 169.92 
L 365.5125 169.92 
L 366.21 169.92 
L 366.9075 169.92 
L 367.605 169.92 
L 368.3025 169.92 
L 369 169.92 
L 369.6975 169.92 
L 370.395 169.92 
L 371.0925 169.92 
L 371.79 169.92 
L 372.4875 169.92 
L 373.185 169.92 
L 373.8825 169.92 
L 374.58 169.92 
L 375.2775 169.92 
L 375.975 169.92 
L 376.6725 169.92 
L 377.37 169.92 
L 378.0675 169.92 
L 378.765 169.92 
L 379.4625 169.92 
L 380.16 169.92 
L 380.8575 169.92 
L 381.555 169.92 
L 382.2525 169.92 
L 382.95 169.92 
L 383.6475 169.92 
L 384.345 169.92 
L 385.0425 169.92 
L 385.74 169.92 
L 386.4375 169.92 
L 387.135 169.92 
L 387.8325 169.92 
L 388.53 169.92 
L 389.2275 169.92 
L 389.925 169.92 
L 390.6225 169.92 
L 391.32 169.92 
L 392.0175 169.92 
L 392.715 169.92 
L 393.4125 169.92 
L 394.11 169.92 
L 394.8075 169.92 
L 395.505 169.92 
L 396.2025 169.92 
L 396.9 169.92 
L 397.5975 169.92 
L 398.295 169.92 
L 398.9925 169.92 
L 399.69 169.92 
L 400.3875 169.92 
L 401.085 169.92 
L 401.7825 169.92 
L 402.48 169.92 
L 403.1775 169.92 
L 403.875 169.92 
L 404.5725 169.92 
L 405.27 169.92 
L 405.9675 169.92 
L 406.665 169.92 
L 407.3625 169.92 
L 408.06 169.92 
L 408.7575 169.92 
L 409.455 169.92 
L 410.1525 169.92 
L 410.85 169.92 
L 411.5475 169.92 
L 412.245 169.92 
L 412.9425 169.92 
L 413.64 169.92 
L 414.3375 169.92 
L 415.035 169.92 
L 415.7325 169.92 
L 416.43 169.92 
L 417.1275 169.92 
L 417.825 169.92 
L 418.5225 169.92 
L 419.22 169.92 
L 419.9175 169.92 
L 420.615 169.92 
L 421.3125 169.92 
L 422.01 169.92 
L 422.7075 169.92 
L 423.405 169.92 
L 424.1025 169.92 
L 424.8 169.92 
L 425.4975 169.92 
L 426.195 169.92 
L 426.8925 169.92 
L 427.59 169.92 
L 428.2875 169.92 
L 428.985 169.92 
L 429.6825 169.92 
L 430.38 169.92 
L 431.0775 169.92 
L 431.775 169.92 
L 432.4725 169.92 
L 433.17 169.92 
L 433.8675 169.92 
L 434.565 169.92 
L 435.2625 169.92 
L 435.96 169.92 
L 436.6575 169.92 
L 437.355 169.92 
L 438.0525 169.92 
L 438.75 169.92 
L 439.4475 169.92 
L 440.145 169.92 
L 440.8425 169.92 
L 441.54 169.92 
L 442.2375 169.92 
L 442.935 169.92 
L 443.6325 169.92 
L 444.33 169.92 
L 445.0275 169.92 
L 445.725 169.92 
L 446.4225 169.92 
L 447.12 169.92 
L 447.8175 169.92 
L 448.515 169.92 
L 449.2125 169.92 
L 449.91 169.92 
L 450.6075 169.92 
L 451.305 169.92 
L 452.0025 169.92 
L 452.7 169.92 
L 453.3975 169.92 
L 454.095 169.92 
L 454.7925 169.92 
L 455.49 169.92 
L 456.1875 169.92 
L 456.885 169.92 
L 457.5825 169.92 
L 458.28 169.92 
L 458.9775 169.92 
L 459.675 169.92 
L 460.3725 169.92 
L 461.07 169.92 
L 461.7675 169.92 
L 462.465 169.92 
L 463.1625 169.92 
L 463.86 169.92 
L 464.5575 169.92 
L 465.255 169.92 
L 465.9525 169.92 
L 466.65 169.92 
L 467.3475 169.92 
L 468.045 169.92 
L 468.7425 169.92 
L 469.44 169.92 
L 470.1375 169.92 
L 470.835 169.92 
L 471.5325 169.92 
L 472.23 169.92 
L 472.9275 169.92 
L 473.625 169.92 
L 474.3225 169.92 
L 475.02 169.92 
L 475.7175 169.92 
L 476.415 169.92 
L 477.1125 169.92 
L 477.81 169.92 
L 478.5075 169.92 
L 479.205 169.92 
L 479.9025 169.92 
L 480.6 169.92 
L 481.2975 169.92 
L 481.995 169.92 
L 482.6925 169.92 
L 483.39 169.92 
L 484.0875 169.92 
L 484.785 169.92 
L 485.4825 169.92 
L 486.18 169.92 
L 486.8775 169.92 
L 487.575 169.92 
L 488.2725 169.92 
L 488.97 169.92 
L 489.6675 169.92 
L 490.365 169.92 
L 491.0625 169.92 
L 491.76 169.92 
L 492.4575 169.92 
L 493.155 169.92 
L 493.8525 169.92 
L 494.55 169.92 
L 495.2475 169.92 
L 495.945 169.92 
L 496.6425 169.92 
L 497.34 169.92 
L 498.0375 169.92 
L 498.735 169.92 
L 499.4325 169.92 
L 500.13 169.92 
L 500.8275 169.92 
L 501.525 169.92 
L 502.2225 169.92 
L 502.92 169.92 
L 503.6175 169.92 
L 504.315 169.92 
L 505.0125 169.92 
L 505.71 169.92 
L 506.4075 169.92 
L 507.105 169.92 
L 507.8025 169.92 
L 508.5 169.92 
L 509.1975 169.92 
L 509.895 169.92 
L 510.5925 169.92 
L 511.29 169.92 
L 511.9875 169.92 
L 512.685 169.92 
L 513.3825 169.92 
L 514.08 169.92 
L 514.7775 169.92 
L 515.475 169.92 
L 516.1725 169.92 
L 516.87 169.92 
L 517.5675 169.92 
L 518.265 169.92 
L 518.9625 169.92 
L 519.66 169.92 
L 520.3575 169.92 
L 521.055 169.92 
L 521.7525 169.92 
L 522.45 169.92 
L 523.1475 169.92 
L 523.845 169.92 
L 524.5425 169.92 
L 525.24 169.92 
L 525.9375 169.92 
L 526.635 169.92 
L 527.3325 169.92 
L 528.03 169.92 
L 528.7275 169.92 
L 529.425 169.92 
L 530.1225 169.92 
L 530.82 169.92 
L 531.5175 169.92 
L 532.215 169.92 
L 532.9125 169.92 
L 533.61 169.92 
L 534.3075 169.92 
L 535.005 169.92 
L 535.7025 169.92 
L 536.4 169.92 
L 537.0975 169.92 
L 537.795 169.92 
L 538.4925 169.92 
L 539.19 169.92 
L 539.8875 169.92 
L 540.585 169.92 
L 541.2825 169.92 
L 541.98 169.92 
L 542.6775 169.92 
L 543.375 169.92 
L 544.0725 169.92 
L 544.77 169.92 
L 545.4675 169.92 
L 546.165 169.92 
L 546.8625 169.92 
L 547.56 169.92 
L 548.2575 169.92 
L 548.955 169.92 
L 549.6525 169.92 
L 550.35 169.92 
L 551.0475 169.92 
L 551.745 169.92 
L 552.4425 169.92 
L 553.14 169.92 
L 553.8375 169.92 
L 554.535 169.92 
L 555.2325 169.92 
L 555.93 169.92 
L 556.6275 169.92 
L 557.325 169.92 
L 558.0225 169.92 
L 558.72 169.92 
L 559.4175 169.92 
L 560.115 169.92 
L 560.8125 169.92 
L 561.51 169.92 
L 562.2075 169.92 
L 562.905 169.92 
L 563.6025 169.92 
L 564.3 169.92 
L 564.9975 169.92 
L 565.695 169.92 
L 566.3925 169.92 
L 567.09 169.92 
L 567.7875 169.92 
L 568.485 169.92 
L 569.1825 169.92 
L 569.88 169.92 
L 570.5775 169.92 
L 571.275 169.92 
L 571.9725 169.92 
L 572.67 169.92 
L 573.3675 169.92 
L 574.065 169.92 
L 574.7625 169.92 
L 575.46 169.92 
L 576.1575 169.92 
L 576.855 169.92 
L 577.5525 169.92 
L 578.25 169.92 
L 578.9475 169.92 
L 579.645 169.92 
L 580.3425 169.92 
L 581.04 169.92 
L 581.7375 169.92 
L 582.435 169.92 
L 583.1325 169.92 
L 583.83 169.92 
L 584.5275 169.92 
L 585.225 169.92 
L 585.9225 169.92 
L 586.62 169.92 
L 587.3175 169.92 
L 588.015 169.92 
L 588.7125 169.92 
L 589.41 169.92 
L 590.1075 169.92 
L 590.805 169.92 
L 591.5025 169.92 
L 592.2 169.92 
L 592.8975 169.92 
L 593.595 169.92 
L 594.2925 169.92 
L 594.99 169.92 
L 595.6875 169.92 
L 596.385 169.92 
L 597.0825 169.92 
L 597.78 169.92 
L 598.4775 169.92 
L 599.175 169.92 
L 599.8725 169.92 
L 600.57 169.92 
L 601.2675 169.92 
L 601.965 169.92 
L 602.6625 169.92 
L 603.36 169.92 
L 604.0575 169.92 
L 604.755 169.92 
L 605.4525 169.92 
L 606.15 169.92 
L 606.8475 169.92 
L 607.545 169.92 
L 608.2425 169.92 
L 608.94 169.92 
L 609.6375 169.92 
L 610.335 169.92 
L 611.0325 169.92 
L 611.73 169.92 
L 612.4275 169.92 
L 613.125 169.92 
L 613.8225 169.92 
L 614.52 169.92 
L 615.2175 169.92 
L 615.915 169.92 
L 616.6125 169.92 
L 617.31 169.92 
L 618.0075 169.92 
L 618.705 169.92 
L 619.4025 169.92 
L 620.1 169.92 
L 620.7975 169.92 
L 621.495 169.92 
L 622.1925 169.92 
L 622.89 169.92 
L 623.5875 169.92 
L 624.285 169.92 
L 624.9825 169.92 
L 625.68 169.92 
L 626.3775 169.92 
L 627.075 169.92 
L 627.7725 169.92 
L 628.47 169.92 
L 629.1675 169.92 
L 629.865 169.92 
L 630.5625 169.92 
L 631.26 169.92 
L 631.9575 169.92 
L 632.655 169.92 
L 633.3525 169.92 
L 634.05 169.92 
L 634.7475 169.92 
L 635.445 169.92 
L 636.1425 169.92 
L 636.84 169.92 
L 637.5375 169.92 
L 638.235 169.92 
L 638.9325 169.92 
L 639.63 169.92 
L 640.3275 169.92 
L 641.025 169.92 
L 641.7225 169.92 
L 642.42 169.92 
L 643.1175 169.92 
L 643.815 169.92 
L 644.5125 169.92 
L 645.21 169.92 
L 645.9075 169.92 
L 646.605 169.92 
L 646.605 169.92 
L 646.605 169.92 
L 645.9075 169.921184 
L 645.21 169.92396 
L 644.5125 169.928724 
L 643.815 169.935857 
L 643.1175 169.945726 
L 642.42 169.958675 
L 641.7225 169.975029 
L 641.025 169.995086 
L 640.3275 170.01912 
L 639.63 170.047376 
L 638.9325 170.08007 
L 638.235 170.117384 
L 637.5375 170.15947 
L 636.84 170.206447 
L 636.1425 170.258398 
L 635.445 170.315372 
L 634.7475 170.377384 
L 634.05 170.444414 
L 633.3525 170.516407 
L 632.655 170.593273 
L 631.9575 170.674893 
L 631.26 170.761111 
L 630.5625 170.851744 
L 629.865 170.946579 
L 629.1675 171.045373 
L 628.47 171.147862 
L 627.7725 171.253755 
L 627.075 171.362739 
L 626.3775 171.474486 
L 625.68 171.588647 
L 624.9825 171.704863 
L 624.285 171.82276 
L 623.5875 171.941958 
L 622.89 172.06207 
L 622.1925 172.182706 
L 621.495 172.303477 
L 620.7975 172.423992 
L 620.1 172.543869 
L 619.4025 172.662732 
L 618.705 172.780215 
L 618.0075 172.895963 
L 617.31 173.009636 
L 616.6125 173.12091 
L 615.915 173.229481 
L 615.2175 173.335063 
L 614.52 173.437392 
L 613.8225 173.536227 
L 613.125 173.631351 
L 612.4275 173.722571 
L 611.73 173.80972 
L 611.0325 173.892657 
L 610.335 173.971267 
L 609.6375 174.045462 
L 608.94 174.115178 
L 608.2425 174.180378 
L 607.545 174.241051 
L 606.8475 174.297208 
L 606.15 174.348885 
L 605.4525 174.396137 
L 604.755 174.439044 
L 604.0575 174.477702 
L 603.36 174.512226 
L 602.6625 174.542746 
L 601.965 174.569408 
L 601.2675 174.592367 
L 600.57 174.611791 
L 599.8725 174.627857 
L 599.175 174.640744 
L 598.4775 174.65064 
L 597.78 174.657733 
L 597.0825 174.662212 
L 596.385 174.664264 
L 595.6875 174.664073 
L 594.99 174.661817 
L 594.2925 174.657671 
L 593.595 174.651796 
L 592.8975 174.644349 
L 592.2 174.635472 
L 591.5025 174.625297 
L 590.805 174.613944 
L 590.1075 174.601518 
L 589.41 174.58811 
L 588.7125 174.573798 
L 588.015 174.558643 
L 587.3175 174.542693 
L 586.62 174.525982 
L 585.9225 174.508526 
L 585.225 174.490332 
L 584.5275 174.47139 
L 583.83 174.45168 
L 583.1325 174.431169 
L 582.435 174.409816 
L 581.7375 174.387567 
L 581.04 174.364365 
L 580.3425 174.340142 
L 579.645 174.314827 
L 578.9475 174.288347 
L 578.25 174.260624 
L 577.5525 174.231583 
L 576.855 174.201147 
L 576.1575 174.169245 
L 575.46 174.135809 
L 574.7625 174.100776 
L 574.065 174.064092 
L 573.3675 174.025712 
L 572.67 173.985599 
L 571.9725 173.943731 
L 571.275 173.900094 
L 570.5775 173.854691 
L 569.88 173.807536 
L 569.1825 173.75866 
L 568.485 173.708107 
L 567.7875 173.655939 
L 567.09 173.602231 
L 566.3925 173.547075 
L 565.695 173.490577 
L 564.9975 173.432858 
L 564.3 173.374054 
L 563.6025 173.314314 
L 562.905 173.253799 
L 562.2075 173.192681 
L 561.51 173.131143 
L 560.8125 173.069376 
L 560.115 173.007577 
L 559.4175 172.945951 
L 558.72 172.884704 
L 558.0225 172.824045 
L 557.325 172.764184 
L 556.6275 172.705327 
L 555.93 172.647677 
L 555.2325 172.591432 
L 554.535 172.536779 
L 553.8375 172.483898 
L 553.14 172.432955 
L 552.4425 172.384104 
L 551.745 172.337481 
L 551.0475 172.293207 
L 550.35 172.251384 
L 549.6525 172.21209 
L 548.955 172.175387 
L 548.2575 172.14131 
L 547.56 172.109872 
L 546.8625 172.08106 
L 546.165 172.054838 
L 545.4675 172.031143 
L 544.77 172.009887 
L 544.0725 171.990955 
L 543.375 171.974209 
L 542.6775 171.959484 
L 541.98 171.946593 
L 541.2825 171.935323 
L 540.585 171.92544 
L 539.8875 171.916692 
L 539.19 171.908803 
L 538.4925 171.901484 
L 537.795 171.894426 
L 537.0975 171.887311 
L 536.4 171.879807 
L 535.7025 171.871573 
L 535.005 171.862263 
L 534.3075 171.851526 
L 533.61 171.839009 
L 532.9125 171.824362 
L 532.215 171.807237 
L 531.5175 171.787295 
L 530.82 171.764205 
L 530.1225 171.737649 
L 529.425 171.707322 
L 528.7275 171.672938 
L 528.03 171.634231 
L 527.3325 171.590954 
L 526.635 171.542888 
L 525.9375 171.489838 
L 525.24 171.431638 
L 524.5425 171.36815 
L 523.845 171.299269 
L 523.1475 171.224921 
L 522.45 171.145068 
L 521.7525 171.059702 
L 521.055 170.968852 
L 520.3575 170.872584 
L 519.66 170.770994 
L 518.9625 170.664216 
L 518.265 170.552418 
L 517.5675 170.4358 
L 516.87 170.314595 
L 516.1725 170.189068 
L 515.475 170.059512 
L 514.7775 169.92625 
L 514.08 169.789627 
L 513.3825 169.650017 
L 512.685 169.507811 
L 511.9875 169.363422 
L 511.29 169.217277 
L 510.5925 169.06982 
L 509.895 168.921502 
L 509.1975 168.772784 
L 508.5 168.624131 
L 507.8025 168.476012 
L 507.105 168.328892 
L 506.4075 168.183232 
L 505.71 168.039489 
L 505.0125 167.898104 
L 504.315 167.759511 
L 503.6175 167.624125 
L 502.92 167.492342 
L 502.2225 167.364538 
L 501.525 167.241065 
L 500.8275 167.122251 
L 500.13 167.008394 
L 499.4325 166.899765 
L 498.735 166.796602 
L 498.0375 166.699112 
L 497.34 166.607469 
L 496.6425 166.521812 
L 495.945 166.442245 
L 495.2475 166.368838 
L 494.55 166.301626 
L 493.8525 166.240607 
L 493.155 166.185747 
L 492.4575 166.136977 
L 491.76 166.094195 
L 491.0625 166.057268 
L 490.365 166.026032 
L 489.6675 166.000295 
L 488.97 165.979837 
L 488.2725 165.964414 
L 487.575 165.95376 
L 486.8775 165.947587 
L 486.18 165.945588 
L 485.4825 165.947443 
L 484.785 165.952818 
L 484.0875 165.961368 
L 483.39 165.972741 
L 482.6925 165.986579 
L 481.995 166.002524 
L 481.2975 166.020215 
L 480.6 166.039298 
L 479.9025 166.059422 
L 479.205 166.080245 
L 478.5075 166.101436 
L 477.81 166.122675 
L 477.1125 166.143659 
L 476.415 166.1641 
L 475.7175 166.183731 
L 475.02 166.202302 
L 474.3225 166.219587 
L 473.625 166.235382 
L 472.9275 166.249507 
L 472.23 166.261807 
L 471.5325 166.27215 
L 470.835 166.280432 
L 470.1375 166.286573 
L 469.44 166.290519 
L 468.7425 166.292242 
L 468.045 166.291737 
L 467.3475 166.289023 
L 466.65 166.284143 
L 465.9525 166.277162 
L 465.255 166.268164 
L 464.5575 166.257254 
L 463.86 166.244553 
L 463.1625 166.2302 
L 462.465 166.214346 
L 461.7675 166.197157 
L 461.07 166.178806 
L 460.3725 166.159478 
L 459.675 166.139362 
L 458.9775 166.118654 
L 458.28 166.097549 
L 457.5825 166.076245 
L 456.885 166.054939 
L 456.1875 166.033823 
L 455.49 166.013086 
L 454.7925 165.992908 
L 454.095 165.973461 
L 453.3975 165.954911 
L 452.7 165.937408 
L 452.0025 165.921093 
L 451.305 165.906092 
L 450.6075 165.892519 
L 449.91 165.880472 
L 449.2125 165.870035 
L 448.515 165.861275 
L 447.8175 165.854244 
L 447.12 165.84898 
L 446.4225 165.845504 
L 445.725 165.843823 
L 445.0275 165.84393 
L 444.33 165.845804 
L 443.6325 165.849412 
L 442.935 165.854709 
L 442.2375 165.861639 
L 441.54 165.870138 
L 440.8425 165.880133 
L 440.145 165.891546 
L 439.4475 165.904292 
L 438.75 165.918286 
L 438.0525 165.933437 
L 437.355 165.949658 
L 436.6575 165.966861 
L 435.96 165.984961 
L 435.2625 166.00388 
L 434.565 166.023543 
L 433.8675 166.043884 
L 433.17 166.064846 
L 432.4725 166.086382 
L 431.775 166.108456 
L 431.0775 166.131045 
L 430.38 166.154137 
L 429.6825 166.177735 
L 428.985 166.201858 
L 428.2875 166.226536 
L 427.59 166.251816 
L 426.8925 166.277761 
L 426.195 166.304445 
L 425.4975 166.331961 
L 424.8 166.360411 
L 424.1025 166.389914 
L 423.405 166.420599 
L 422.7075 166.452607 
L 422.01 166.486089 
L 421.3125 166.521204 
L 420.615 166.558119 
L 419.9175 166.597007 
L 419.22 166.638044 
L 418.5225 166.681409 
L 417.825 166.72728 
L 417.1275 166.775833 
L 416.43 166.827244 
L 415.7325 166.881678 
L 415.035 166.939298 
L 414.3375 167.000252 
L 413.64 167.06468 
L 412.9425 167.132708 
L 412.245 167.204446 
L 411.5475 167.279987 
L 410.85 167.359405 
L 410.1525 167.442755 
L 409.455 167.530071 
L 408.7575 167.621361 
L 408.06 167.716613 
L 407.3625 167.815789 
L 406.665 167.918825 
L 405.9675 168.025631 
L 405.27 168.136094 
L 404.5725 168.250071 
L 403.875 168.367397 
L 403.1775 168.487877 
L 402.48 168.611296 
L 401.7825 168.737412 
L 401.085 168.865961 
L 400.3875 168.996657 
L 399.69 169.129195 
L 398.9925 169.263249 
L 398.295 169.398479 
L 397.5975 169.534529 
L 396.9 169.67103 
L 396.2025 169.807604 
L 395.505 169.943865 
L 394.8075 170.079419 
L 394.11 170.213874 
L 393.4125 170.346835 
L 392.715 170.477909 
L 392.0175 170.60671 
L 391.32 170.732861 
L 390.6225 170.855992 
L 389.925 170.975751 
L 389.2275 171.091798 
L 388.53 171.203815 
L 387.8325 171.311503 
L 387.135 171.414586 
L 386.4375 171.512814 
L 385.74 171.605964 
L 385.0425 171.693842 
L 384.345 171.776285 
L 383.6475 171.85316 
L 382.95 171.92437 
L 382.2525 171.989848 
L 381.555 172.049566 
L 380.8575 172.103527 
L 380.16 172.151771 
L 379.4625 172.194372 
L 378.765 172.23144 
L 378.0675 172.263117 
L 377.37 172.28958 
L 376.6725 172.311034 
L 375.975 172.32772 
L 375.2775 172.339903 
L 374.58 172.347878 
L 373.8825 172.351964 
L 373.185 172.352502 
L 372.4875 172.349855 
L 371.79 172.344402 
L 371.0925 172.336539 
L 370.395 172.326674 
L 369.6975 172.315223 
L 369 172.30261 
L 368.3025 172.289261 
L 367.605 172.275606 
L 366.9075 172.262068 
L 366.21 172.249067 
L 365.5125 172.237014 
L 364.815 172.226308 
L 364.1175 172.217334 
L 363.42 172.210461 
L 362.7225 172.206038 
L 362.025 172.20439 
L 361.3275 172.205821 
L 360.63 172.210607 
L 359.9325 172.218995 
L 359.235 172.231205 
L 358.5375 172.247423 
L 357.84 172.267804 
L 357.1425 172.292469 
L 356.445 172.321506 
L 355.7475 172.354967 
L 355.05 172.392871 
L 354.3525 172.435202 
L 353.655 172.481908 
L 352.9575 172.532907 
L 352.26 172.588081 
L 351.5625 172.647281 
L 350.865 172.710329 
L 350.1675 172.777017 
L 349.47 172.847109 
L 348.7725 172.920346 
L 348.075 172.996444 
L 347.3775 173.075098 
L 346.68 173.155985 
L 345.9825 173.238767 
L 345.285 173.32309 
L 344.5875 173.40859 
L 343.89 173.494896 
L 343.1925 173.58163 
L 342.495 173.668412 
L 341.7975 173.754861 
L 341.1 173.840599 
L 340.4025 173.925254 
L 339.705 174.00846 
L 339.0075 174.089863 
L 338.31 174.169119 
L 337.6125 174.245902 
L 336.915 174.319899 
L 336.2175 174.390818 
L 335.52 174.458387 
L 334.8225 174.522354 
L 334.125 174.582492 
L 333.4275 174.638597 
L 332.73 174.69049 
L 332.0325 174.738018 
L 331.335 174.781053 
L 330.6375 174.819494 
L 329.94 174.853267 
L 329.2425 174.882324 
L 328.545 174.90664 
L 327.8475 174.926217 
L 327.15 174.941083 
L 326.4525 174.951285 
L 325.755 174.956895 
L 325.0575 174.958004 
L 324.36 174.954724 
L 323.6625 174.947183 
L 322.965 174.935524 
L 322.2675 174.919906 
L 321.57 174.900499 
L 320.8725 174.877483 
L 320.175 174.851047 
L 319.4775 174.821385 
L 318.78 174.788697 
L 318.0825 174.753182 
L 317.385 174.715043 
L 316.6875 174.674478 
L 315.99 174.631683 
L 315.2925 174.586851 
L 314.595 174.540163 
L 313.8975 174.491796 
L 313.2 174.441917 
L 312.5025 174.390679 
L 311.805 174.338227 
L 311.1075 174.28469 
L 310.41 174.230185 
L 309.7125 174.174814 
L 309.015 174.118665 
L 308.3175 174.061811 
L 307.62 174.00431 
L 306.9225 173.946207 
L 306.225 173.88753 
L 305.5275 173.828295 
L 304.83 173.768504 
L 304.1325 173.708147 
L 303.435 173.647203 
L 302.7375 173.585641 
L 302.04 173.523419 
L 301.3425 173.460489 
L 300.645 173.396795 
L 299.9475 173.332279 
L 299.25 173.266876 
L 298.5525 173.200522 
L 297.855 173.133152 
L 297.1575 173.064701 
L 296.46 172.995108 
L 295.7625 172.924317 
L 295.065 172.852278 
L 294.3675 172.778948 
L 293.67 172.704292 
L 292.9725 172.628286 
L 292.275 172.550918 
L 291.5775 172.472188 
L 290.88 172.392108 
L 290.1825 172.310705 
L 289.485 172.22802 
L 288.7875 172.14411 
L 288.09 172.059046 
L 287.3925 171.972916 
L 286.695 171.885821 
L 285.9975 171.797878 
L 285.3 171.709221 
L 284.6025 171.619993 
L 283.905 171.530355 
L 283.2075 171.440476 
L 282.51 171.35054 
L 281.8125 171.260737 
L 281.115 171.171267 
L 280.4175 171.082337 
L 279.72 170.99416 
L 279.0225 170.90695 
L 278.325 170.820924 
L 277.6275 170.736298 
L 276.93 170.653287 
L 276.2325 170.572099 
L 275.535 170.492938 
L 274.8375 170.415998 
L 274.14 170.341464 
L 273.4425 170.269508 
L 272.745 170.200287 
L 272.0475 170.133944 
L 271.35 170.070602 
L 270.6525 170.010368 
L 269.955 169.953324 
L 269.2575 169.899534 
L 268.56 169.849036 
L 267.8625 169.801846 
L 267.165 169.757954 
L 266.4675 169.717326 
L 265.77 169.6799 
L 265.0725 169.64559 
L 264.375 169.614284 
L 263.6775 169.585844 
L 262.98 169.560107 
L 262.2825 169.536885 
L 261.585 169.515969 
L 260.8875 169.497126 
L 260.19 169.480101 
L 259.4925 169.464623 
L 258.795 169.4504 
L 258.0975 169.437128 
L 257.4 169.424486 
L 256.7025 169.412144 
L 256.005 169.399763 
L 255.3075 169.386995 
L 254.61 169.373492 
L 253.9125 169.358901 
L 253.215 169.342872 
L 252.5175 169.32506 
L 251.82 169.305126 
L 251.1225 169.282738 
L 250.425 169.257581 
L 249.7275 169.22935 
L 249.03 169.197761 
L 248.3325 169.162548 
L 247.635 169.123466 
L 246.9375 169.080295 
L 246.24 169.032843 
L 245.5425 168.980943 
L 244.845 168.92446 
L 244.1475 168.863288 
L 243.45 168.797354 
L 242.7525 168.72662 
L 242.055 168.65108 
L 241.3575 168.570763 
L 240.66 168.485731 
L 239.9625 168.396085 
L 239.265 168.301956 
L 238.5675 168.203511 
L 237.87 168.100949 
L 237.1725 167.994503 
L 236.475 167.884436 
L 235.7775 167.771037 
L 235.08 167.654628 
L 234.3825 167.535552 
L 233.685 167.414178 
L 232.9875 167.290895 
L 232.29 167.166112 
L 231.5925 167.040251 
L 230.895 166.91375 
L 230.1975 166.787057 
L 229.5 166.660626 
L 228.8025 166.534917 
L 228.105 166.41039 
L 227.4075 166.287503 
L 226.71 166.166713 
L 226.0125 166.048464 
L 225.315 165.933193 
L 224.6175 165.821322 
L 223.92 165.713257 
L 223.2225 165.609386 
L 222.525 165.510074 
L 221.8275 165.415663 
L 221.13 165.326469 
L 220.4325 165.24278 
L 219.735 165.164854 
L 219.0375 165.09292 
L 218.34 165.027171 
L 217.6425 164.967769 
L 216.945 164.914841 
L 216.2475 164.868479 
L 215.55 164.828739 
L 214.8525 164.795643 
L 214.155 164.769178 
L 213.4575 164.749295 
L 212.76 164.735913 
L 212.0625 164.728916 
L 211.365 164.728159 
L 210.6675 164.733464 
L 209.97 164.744626 
L 209.2725 164.761412 
L 208.575 164.783566 
L 207.8775 164.810808 
L 207.18 164.842838 
L 206.4825 164.879336 
L 205.785 164.919971 
L 205.0875 164.964394 
L 204.39 165.01225 
L 203.6925 165.063174 
L 202.995 165.116797 
L 202.2975 165.172748 
L 201.6 165.230657 
L 200.9025 165.290156 
L 200.205 165.350885 
L 199.5075 165.412489 
L 198.81 165.474628 
L 198.1125 165.53697 
L 197.415 165.599202 
L 196.7175 165.661026 
L 196.02 165.722163 
L 195.3225 165.782355 
L 194.625 165.841364 
L 193.9275 165.898978 
L 193.23 165.955004 
L 192.5325 166.009279 
L 191.835 166.061661 
L 191.1375 166.112035 
L 190.44 166.160312 
L 189.7425 166.206427 
L 189.045 166.250342 
L 188.3475 166.292042 
L 187.65 166.331536 
L 186.9525 166.368857 
L 186.255 166.404058 
L 185.5575 166.437214 
L 184.86 166.468418 
L 184.1625 166.497782 
L 183.465 166.525432 
L 182.7675 166.55151 
L 182.07 166.576168 
L 181.3725 166.59957 
L 180.675 166.621888 
L 179.9775 166.6433 
L 179.28 166.663989 
L 178.5825 166.684141 
L 177.885 166.703939 
L 177.1875 166.723568 
L 176.49 166.74321 
L 175.7925 166.763038 
L 175.095 166.783221 
L 174.3975 166.803921 
L 173.7 166.825287 
L 173.0025 166.84746 
L 172.305 166.870565 
L 171.6075 166.894718 
L 170.91 166.920019 
L 170.2125 166.946554 
L 169.515 166.974393 
L 168.8175 167.003591 
L 168.12 167.034189 
L 167.4225 167.066211 
L 166.725 167.099667 
L 166.0275 167.13455 
L 165.33 167.170844 
L 164.6325 167.208513 
L 163.935 167.247515 
L 163.2375 167.287792 
L 162.54 167.329279 
L 161.8425 167.371899 
L 161.145 167.41557 
L 160.4475 167.460202 
L 159.75 167.505702 
L 159.0525 167.551974 
L 158.355 167.598918 
L 157.6575 167.646437 
L 156.96 167.694435 
L 156.2625 167.742819 
L 155.565 167.7915 
L 154.8675 167.840397 
L 154.17 167.889436 
L 153.4725 167.938553 
L 152.775 167.987693 
L 152.0775 168.036813 
L 151.38 168.085882 
L 150.6825 168.134884 
L 149.985 168.183816 
L 149.2875 168.232687 
L 148.59 168.281525 
L 147.8925 168.330371 
L 147.195 168.37928 
L 146.4975 168.428323 
L 145.8 168.477586 
L 145.1025 168.527167 
L 144.405 168.577179 
L 143.7075 168.627748 
L 143.01 168.679008 
L 142.3125 168.731107 
L 141.615 168.784198 
L 140.9175 168.838445 
L 140.22 168.894015 
L 139.5225 168.951079 
L 138.825 169.009812 
L 138.1275 169.070388 
L 137.43 169.13298 
L 136.7325 169.197756 
L 136.035 169.26488 
L 135.3375 169.334507 
L 134.64 169.406784 
L 133.9425 169.481845 
L 133.245 169.559811 
L 132.5475 169.64079 
L 131.85 169.724868 
L 131.1525 169.812117 
L 130.455 169.902588 
L 129.7575 169.996308 
L 129.06 170.093285 
L 128.3625 170.193501 
L 127.665 170.296915 
L 126.9675 170.403459 
L 126.27 170.513041 
L 125.5725 170.625543 
L 124.875 170.740821 
L 124.1775 170.858705 
L 123.48 170.979002 
L 122.7825 171.10149 
L 122.085 171.225928 
L 121.3875 171.35205 
L 120.69 171.479568 
L 119.9925 171.608177 
L 119.295 171.737552 
L 118.5975 171.86735 
L 117.9 171.997218 
L 117.2025 172.126786 
L 116.505 172.255679 
L 115.8075 172.38351 
L 115.11 172.50989 
L 114.4125 172.634428 
L 113.715 172.756732 
L 113.0175 172.876413 
L 112.32 172.993088 
L 111.6225 173.106385 
L 110.925 173.215939 
L 110.2275 173.321403 
L 109.53 173.422443 
L 108.8325 173.518746 
L 108.135 173.610021 
L 107.4375 173.695997 
L 106.74 173.776433 
L 106.0425 173.851114 
L 105.345 173.919852 
L 104.6475 173.982493 
L 103.95 174.038913 
L 103.2525 174.089024 
L 102.555 174.132768 
L 101.8575 174.170126 
L 101.16 174.201111 
L 100.4625 174.225772 
L 99.765 174.244195 
L 99.0675 174.256497 
L 98.37 174.262832 
L 97.6725 174.263386 
L 96.975 174.258376 
L 96.2775 174.248052 
L 95.58 174.23269 
L 94.8825 174.212595 
L 94.185 174.188096 
L 93.4875 174.159545 
L 92.79 174.127314 
L 92.0925 174.091793 
L 91.395 174.053388 
L 90.6975 174.012516 
L 90 173.969603 
z
" style="fill:#e0ffff;"/>
   </g>
   <g id="line2d_19">
    <path clip-path="url(#pe5fec0fbd2)" d="M 90 173.969603 
L 96.2775 174.248052 
L 100.4625 174.225772 
L 104.6475 173.982493 
L 108.8325 173.518746 
L 113.715 172.756732 
L 130.455 169.902588 
L 136.7325 169.197756 
L 145.1025 168.527167 
L 166.725 167.099667 
L 175.7925 166.763038 
L 187.65 166.331536 
L 194.625 165.841364 
L 207.8775 164.810808 
L 212.0625 164.728916 
L 216.2475 164.868479 
L 220.4325 165.24278 
L 225.315 165.933193 
L 242.7525 168.72662 
L 247.635 169.123466 
L 253.215 169.342872 
L 267.165 169.757954 
L 272.745 170.200287 
L 279.72 170.99416 
L 295.7625 172.924317 
L 306.9225 173.946207 
L 317.385 174.715043 
L 323.6625 174.947183 
L 328.545 174.90664 
L 333.4275 174.638597 
L 339.0075 174.089863 
L 353.655 172.481908 
L 358.5375 172.247423 
L 364.1175 172.217334 
L 377.37 172.28958 
L 381.555 172.049566 
L 385.74 171.605964 
L 390.6225 170.855992 
L 398.295 169.398479 
L 405.27 168.136094 
L 410.85 167.359405 
L 416.43 166.827244 
L 423.405 166.420599 
L 435.2625 166.00388 
L 445.0275 165.84393 
L 452.7 165.937408 
L 470.1375 166.286573 
L 477.81 166.122675 
L 486.8775 165.947587 
L 491.76 166.094195 
L 495.945 166.442245 
L 500.13 167.008394 
L 505.0125 167.898104 
L 519.66 170.770994 
L 523.845 171.299269 
L 528.7275 171.672938 
L 534.3075 171.851526 
L 548.955 172.175387 
L 555.93 172.647677 
L 574.7625 174.100776 
L 583.83 174.45168 
L 594.99 174.661817 
L 601.2675 174.592367 
L 606.15 174.348885 
L 611.0325 173.892657 
L 616.6125 173.12091 
L 634.05 170.444414 
L 638.9325 170.08007 
L 644.5125 169.928724 
L 646.605 169.92 
L 646.605 169.92 
" style="fill:none;stroke:#008080;stroke-linecap:round;stroke-width:1.75;"/>
   </g>
   <g id="patch_3">
    <path d="M 90 270.72 
L 90 69.12 
" style="fill:none;stroke:#262626;stroke-linecap:square;stroke-linejoin:miter;stroke-width:1.25;"/>
   </g>
   <g id="patch_4">
    <path d="M 90 270.72 
L 648 270.72 
" style="fill:none;stroke:#262626;stroke-linecap:square;stroke-linejoin:miter;stroke-width:1.25;"/>
   </g>
  </g>
  <g id="axes_2">
   <g id="patch_5">
    <path d="M 90 512.64 
L 648 512.64 
L 648 311.04 
L 90 311.04 
z
" style="fill:#ffffff;"/>
   </g>
   <g id="matplotlib.axis_3">
    <g id="xtick_10">
     <g id="line2d_20">
      <g>
       <use style="fill:#262626;stroke:#262626;" x="191.454545" xlink:href="#mc4b0fa1ba0" y="512.64"/>
      </g>
     </g>
     <g id="text_19">
      <!-- 200 -->
      <g style="fill:#262626;" transform="translate(183.113139 532.797812)scale(0.1 -0.1)">
       <use xlink:href="#ArialMT-32"/>
       <use x="55.615234" xlink:href="#ArialMT-30"/>
       <use x="111.230469" xlink:href="#ArialMT-30"/>
      </g>
     </g>
    </g>
    <g id="xtick_11">
     <g id="line2d_21">
      <g>
       <use style="fill:#262626;stroke:#262626;" x="304.181818" xlink:href="#mc4b0fa1ba0" y="512.64"/>
      </g>
     </g>
     <g id="text_20">
      <!-- 400 -->
      <g style="fill:#262626;" transform="translate(295.840412 532.797812)scale(0.1 -0.1)">
       <use xlink:href="#ArialMT-34"/>
       <use x="55.615234" xlink:href="#ArialMT-30"/>
       <use x="111.230469" xlink:href="#ArialMT-30"/>
      </g>
     </g>
    </g>
    <g id="xtick_12">
     <g id="line2d_22">
      <g>
       <use style="fill:#262626;stroke:#262626;" x="416.909091" xlink:href="#mc4b0fa1ba0" y="512.64"/>
      </g>
     </g>
     <g id="text_21">
      <!-- 600 -->
      <g style="fill:#262626;" transform="translate(408.567685 532.797812)scale(0.1 -0.1)">
       <use xlink:href="#ArialMT-36"/>
       <use x="55.615234" xlink:href="#ArialMT-30"/>
       <use x="111.230469" xlink:href="#ArialMT-30"/>
      </g>
     </g>
    </g>
    <g id="xtick_13">
     <g id="line2d_23">
      <g>
       <use style="fill:#262626;stroke:#262626;" x="529.636364" xlink:href="#mc4b0fa1ba0" y="512.64"/>
      </g>
     </g>
     <g id="text_22">
      <!-- 800 -->
      <g style="fill:#262626;" transform="translate(521.294957 532.797812)scale(0.1 -0.1)">
       <use xlink:href="#ArialMT-38"/>
       <use x="55.615234" xlink:href="#ArialMT-30"/>
       <use x="111.230469" xlink:href="#ArialMT-30"/>
      </g>
     </g>
    </g>
    <g id="xtick_14">
     <g id="line2d_24">
      <g>
       <use style="fill:#262626;stroke:#262626;" x="642.363636" xlink:href="#mc4b0fa1ba0" y="512.64"/>
      </g>
     </g>
     <g id="text_23">
      <!-- 1000 -->
      <g style="fill:#262626;" transform="translate(631.241761 532.797812)scale(0.1 -0.1)">
       <use xlink:href="#ArialMT-31"/>
       <use x="55.615234" xlink:href="#ArialMT-30"/>
       <use x="111.230469" xlink:href="#ArialMT-30"/>
       <use x="166.845703" xlink:href="#ArialMT-30"/>
      </g>
     </g>
    </g>
   </g>
   <g id="matplotlib.axis_4">
    <g id="ytick_10">
     <g id="line2d_25">
      <g>
       <use style="fill:#262626;stroke:#262626;" x="90" xlink:href="#ma5aec8956c" y="512.64"/>
      </g>
     </g>
     <g id="text_24">
      <!-- 0 -->
      <g style="fill:#262626;" transform="translate(71.439063 516.218906)scale(0.1 -0.1)">
       <use xlink:href="#ArialMT-30"/>
      </g>
     </g>
    </g>
    <g id="ytick_11">
     <g id="line2d_26">
      <g>
       <use style="fill:#262626;stroke:#262626;" x="90" xlink:href="#ma5aec8956c" y="487.44"/>
      </g>
     </g>
     <g id="text_25">
      <!-- 5 -->
      <g style="fill:#262626;" transform="translate(71.439063 491.018906)scale(0.1 -0.1)">
       <use xlink:href="#ArialMT-35"/>
      </g>
     </g>
    </g>
    <g id="ytick_12">
     <g id="line2d_27">
      <g>
       <use style="fill:#262626;stroke:#262626;" x="90" xlink:href="#ma5aec8956c" y="462.24"/>
      </g>
     </g>
     <g id="text_26">
      <!-- 10 -->
      <g style="fill:#262626;" transform="translate(65.878125 465.818906)scale(0.1 -0.1)">
       <use xlink:href="#ArialMT-31"/>
       <use x="55.615234" xlink:href="#ArialMT-30"/>
      </g>
     </g>
    </g>
    <g id="ytick_13">
     <g id="line2d_28">
      <g>
       <use style="fill:#262626;stroke:#262626;" x="90" xlink:href="#ma5aec8956c" y="437.04"/>
      </g>
     </g>
     <g id="text_27">
      <!-- 15 -->
      <g style="fill:#262626;" transform="translate(65.878125 440.618906)scale(0.1 -0.1)">
       <use xlink:href="#ArialMT-31"/>
       <use x="55.615234" xlink:href="#ArialMT-35"/>
      </g>
     </g>
    </g>
    <g id="ytick_14">
     <g id="line2d_29">
      <g>
       <use style="fill:#262626;stroke:#262626;" x="90" xlink:href="#ma5aec8956c" y="411.84"/>
      </g>
     </g>
     <g id="text_28">
      <!-- 20 -->
      <g style="fill:#262626;" transform="translate(65.878125 415.418906)scale(0.1 -0.1)">
       <use xlink:href="#ArialMT-32"/>
       <use x="55.615234" xlink:href="#ArialMT-30"/>
      </g>
     </g>
    </g>
    <g id="ytick_15">
     <g id="line2d_30">
      <g>
       <use style="fill:#262626;stroke:#262626;" x="90" xlink:href="#ma5aec8956c" y="386.64"/>
      </g>
     </g>
     <g id="text_29">
      <!-- 25 -->
      <g style="fill:#262626;" transform="translate(65.878125 390.218906)scale(0.1 -0.1)">
       <use xlink:href="#ArialMT-32"/>
       <use x="55.615234" xlink:href="#ArialMT-35"/>
      </g>
     </g>
    </g>
    <g id="ytick_16">
     <g id="line2d_31">
      <g>
       <use style="fill:#262626;stroke:#262626;" x="90" xlink:href="#ma5aec8956c" y="361.44"/>
      </g>
     </g>
     <g id="text_30">
      <!-- 30 -->
      <g style="fill:#262626;" transform="translate(65.878125 365.018906)scale(0.1 -0.1)">
       <use xlink:href="#ArialMT-33"/>
       <use x="55.615234" xlink:href="#ArialMT-30"/>
      </g>
     </g>
    </g>
    <g id="ytick_17">
     <g id="line2d_32">
      <g>
       <use style="fill:#262626;stroke:#262626;" x="90" xlink:href="#ma5aec8956c" y="336.24"/>
      </g>
     </g>
     <g id="text_31">
      <!-- 35 -->
      <g style="fill:#262626;" transform="translate(65.878125 339.818906)scale(0.1 -0.1)">
       <use xlink:href="#ArialMT-33"/>
       <use x="55.615234" xlink:href="#ArialMT-35"/>
      </g>
     </g>
    </g>
    <g id="ytick_18">
     <g id="line2d_33">
      <g>
       <use style="fill:#262626;stroke:#262626;" x="90" xlink:href="#ma5aec8956c" y="311.04"/>
      </g>
     </g>
     <g id="text_32">
      <!-- 40 -->
      <g style="fill:#262626;" transform="translate(65.878125 314.618906)scale(0.1 -0.1)">
       <use xlink:href="#ArialMT-34"/>
       <use x="55.615234" xlink:href="#ArialMT-30"/>
      </g>
     </g>
    </g>
   </g>
   <g id="line2d_34">
    <path clip-path="url(#p6d33b29eb8)" d="M 90 488.562059 
L 95.636364 492.871917 
L 101.272727 491.915277 
L 106.909091 490.291312 
L 112.545455 492.192009 
L 118.181818 490.692663 
L 123.818182 490.203121 
L 129.454545 491.968658 
L 135.090909 490.163889 
L 140.727273 490.392837 
L 146.363636 490.241829 
" style="fill:none;stroke:#b22222;stroke-linecap:round;stroke-width:1.75;"/>
   </g>
   <g id="patch_6">
    <path d="M 90 512.64 
L 90 311.04 
" style="fill:none;stroke:#262626;stroke-linecap:square;stroke-linejoin:miter;stroke-width:1.25;"/>
   </g>
   <g id="patch_7">
    <path d="M 90 512.64 
L 648 512.64 
" style="fill:none;stroke:#262626;stroke-linecap:square;stroke-linejoin:miter;stroke-width:1.25;"/>
   </g>
   <g id="text_33">
    <!-- f = 120 Hz -->
    <defs>
     <path d="M 8.6875 0 
L 8.6875 45.015625 
L 0.921875 45.015625 
L 0.921875 51.859375 
L 8.6875 51.859375 
L 8.6875 57.375 
Q 8.6875 62.59375 9.625 65.140625 
Q 10.890625 68.5625 14.078125 70.671875 
Q 17.28125 72.796875 23.046875 72.796875 
Q 26.765625 72.796875 31.25 71.921875 
L 29.9375 64.265625 
Q 27.203125 64.75 24.75 64.75 
Q 20.75 64.75 19.09375 63.03125 
Q 17.4375 61.328125 17.4375 56.640625 
L 17.4375 51.859375 
L 27.546875 51.859375 
L 27.546875 45.015625 
L 17.4375 45.015625 
L 17.4375 0 
z
" id="ArialMT-66"/>
     <path id="ArialMT-20"/>
     <path d="M 52.828125 42.09375 
L 5.5625 42.09375 
L 5.5625 50.296875 
L 52.828125 50.296875 
z
M 52.828125 20.359375 
L 5.5625 20.359375 
L 5.5625 28.5625 
L 52.828125 28.5625 
z
" id="ArialMT-3d"/>
     <path d="M 8.015625 0 
L 8.015625 71.578125 
L 17.484375 71.578125 
L 17.484375 42.1875 
L 54.6875 42.1875 
L 54.6875 71.578125 
L 64.15625 71.578125 
L 64.15625 0 
L 54.6875 0 
L 54.6875 33.734375 
L 17.484375 33.734375 
L 17.484375 0 
z
" id="ArialMT-48"/>
     <path d="M 1.953125 0 
L 1.953125 7.125 
L 34.96875 45.015625 
Q 29.34375 44.734375 25.046875 44.734375 
L 3.90625 44.734375 
L 3.90625 51.859375 
L 46.296875 51.859375 
L 46.296875 46.046875 
L 18.21875 13.140625 
L 12.796875 7.125 
Q 18.703125 7.5625 23.875 7.5625 
L 47.859375 7.5625 
L 47.859375 0 
z
" id="ArialMT-7a"/>
    </defs>
    <g style="fill:#262626;" transform="translate(529.636364 364.542187)scale(0.12 -0.12)">
     <use xlink:href="#ArialMT-66"/>
     <use x="27.783203" xlink:href="#ArialMT-20"/>
     <use x="55.566406" xlink:href="#ArialMT-3d"/>
     <use x="113.964844" xlink:href="#ArialMT-20"/>
     <use x="141.748047" xlink:href="#ArialMT-31"/>
     <use x="197.363281" xlink:href="#ArialMT-32"/>
     <use x="252.978516" xlink:href="#ArialMT-30"/>
     <use x="308.59375" xlink:href="#ArialMT-20"/>
     <use x="336.376953" xlink:href="#ArialMT-48"/>
     <use x="408.59375" xlink:href="#ArialMT-7a"/>
    </g>
   </g>
   <g id="PathCollection_1">
    <defs>
     <path d="M 0 3.5 
C 0.928211 3.5 1.81853 3.131218 2.474874 2.474874 
C 3.131218 1.81853 3.5 0.928211 3.5 0 
C 3.5 -0.928211 3.131218 -1.81853 2.474874 -2.474874 
C 1.81853 -3.131218 0.928211 -3.5 0 -3.5 
C -0.928211 -3.5 -1.81853 -3.131218 -2.474874 -2.474874 
C -3.131218 -1.81853 -3.5 -0.928211 -3.5 0 
C -3.5 0.928211 -3.131218 1.81853 -2.474874 2.474874 
C -1.81853 3.131218 -0.928211 3.5 0 3.5 
z
" id="m73a609b1e2" style="stroke:#800000;stroke-width:0.3;"/>
    </defs>
    <g clip-path="url(#p6d33b29eb8)">
     <use style="fill:#800000;stroke:#800000;stroke-width:0.3;" x="146.363636" xlink:href="#m73a609b1e2" y="490.241829"/>
    </g>
   </g>
  </g>
 </g>
 <defs>
  <clipPath id="pe5fec0fbd2">
   <rect height="201.6" width="558" x="90" y="69.12"/>
  </clipPath>
  <clipPath id="p6d33b29eb8">
   <rect height="201.6" width="558" x="90" y="311.04"/>
  </clipPath>
 </defs>
</svg>
