<?xml version="1.0" encoding="utf-8" standalone="no"?>
<!DOCTYPE svg PUBLIC "-//W3C//DTD SVG 1.1//EN"
  "http://www.w3.org/Graphics/SVG/1.1/DTD/svg11.dtd">
<!-- Created with matplotlib (http://matplotlib.org/) -->
<svg height="576pt" version="1.1" viewBox="0 0 720 576" width="720pt" xmlns="http://www.w3.org/2000/svg" xmlns:xlink="http://www.w3.org/1999/xlink">
 <defs>
  <style type="text/css">
*{stroke-linecap:butt;stroke-linejoin:round;}
  </style>
 </defs>
 <g id="figure_1">
  <g id="patch_1">
   <path d="M 0 576 
L 720 576 
L 720 0 
L 0 0 
z
" style="fill:#ffffff;"/>
  </g>
  <g id="axes_1">
   <g id="patch_2">
    <path d="M 90 270.72 
L 648 270.72 
L 648 69.12 
L 90 69.12 
z
" style="fill:#ffffff;"/>
   </g>
   <g id="matplotlib.axis_1">
    <g id="xtick_1">
     <g id="line2d_1">
      <defs>
       <path d="M 0 0 
L 0 6 
" id="m160babaf46" style="stroke:#262626;"/>
      </defs>
      <g>
       <use style="fill:#262626;stroke:#262626;" x="90" xlink:href="#m160babaf46" y="270.72"/>
      </g>
     </g>
     <g id="text_1">
      <!-- 0 -->
      <defs>
       <path d="M 4.15625 35.296875 
Q 4.15625 48 6.765625 55.734375 
Q 9.375 63.484375 14.515625 67.671875 
Q 19.671875 71.875 27.484375 71.875 
Q 33.25 71.875 37.59375 69.546875 
Q 41.9375 67.234375 44.765625 62.859375 
Q 47.609375 58.5 49.21875 52.21875 
Q 50.828125 45.953125 50.828125 35.296875 
Q 50.828125 22.703125 48.234375 14.96875 
Q 45.65625 7.234375 40.5 3 
Q 35.359375 -1.21875 27.484375 -1.21875 
Q 17.140625 -1.21875 11.234375 6.203125 
Q 4.15625 15.140625 4.15625 35.296875 
z
M 13.1875 35.296875 
Q 13.1875 17.671875 17.3125 11.828125 
Q 21.4375 6 27.484375 6 
Q 33.546875 6 37.671875 11.859375 
Q 41.796875 17.71875 41.796875 35.296875 
Q 41.796875 52.984375 37.671875 58.78125 
Q 33.546875 64.59375 27.390625 64.59375 
Q 21.34375 64.59375 17.71875 59.46875 
Q 13.1875 52.9375 13.1875 35.296875 
z
" id="ArialMT-30"/>
      </defs>
      <g style="fill:#262626;" transform="translate(87.219531 290.877812)scale(0.1 -0.1)">
       <use xlink:href="#ArialMT-30"/>
      </g>
     </g>
    </g>
    <g id="xtick_2">
     <g id="line2d_2">
      <g>
       <use style="fill:#262626;stroke:#262626;" x="159.75" xlink:href="#m160babaf46" y="270.72"/>
      </g>
     </g>
     <g id="text_2">
      <!-- 100 -->
      <defs>
       <path d="M 37.25 0 
L 28.46875 0 
L 28.46875 56 
Q 25.296875 52.984375 20.140625 49.953125 
Q 14.984375 46.921875 10.890625 45.40625 
L 10.890625 53.90625 
Q 18.265625 57.375 23.78125 62.296875 
Q 29.296875 67.234375 31.59375 71.875 
L 37.25 71.875 
z
" id="ArialMT-31"/>
      </defs>
      <g style="fill:#262626;" transform="translate(151.408594 290.877812)scale(0.1 -0.1)">
       <use xlink:href="#ArialMT-31"/>
       <use x="55.615234" xlink:href="#ArialMT-30"/>
       <use x="111.230469" xlink:href="#ArialMT-30"/>
      </g>
     </g>
    </g>
    <g id="xtick_3">
     <g id="line2d_3">
      <g>
       <use style="fill:#262626;stroke:#262626;" x="229.5" xlink:href="#m160babaf46" y="270.72"/>
      </g>
     </g>
     <g id="text_3">
      <!-- 200 -->
      <defs>
       <path d="M 50.34375 8.453125 
L 50.34375 0 
L 3.03125 0 
Q 2.9375 3.171875 4.046875 6.109375 
Q 5.859375 10.9375 9.828125 15.625 
Q 13.8125 20.3125 21.34375 26.46875 
Q 33.015625 36.03125 37.109375 41.625 
Q 41.21875 47.21875 41.21875 52.203125 
Q 41.21875 57.421875 37.46875 61 
Q 33.734375 64.59375 27.734375 64.59375 
Q 21.390625 64.59375 17.578125 60.78125 
Q 13.765625 56.984375 13.71875 50.25 
L 4.6875 51.171875 
Q 5.609375 61.28125 11.65625 66.578125 
Q 17.71875 71.875 27.9375 71.875 
Q 38.234375 71.875 44.234375 66.15625 
Q 50.25 60.453125 50.25 52 
Q 50.25 47.703125 48.484375 43.546875 
Q 46.734375 39.40625 42.65625 34.8125 
Q 38.578125 30.21875 29.109375 22.21875 
Q 21.1875 15.578125 18.9375 13.203125 
Q 16.703125 10.84375 15.234375 8.453125 
z
" id="ArialMT-32"/>
      </defs>
      <g style="fill:#262626;" transform="translate(221.158594 290.877812)scale(0.1 -0.1)">
       <use xlink:href="#ArialMT-32"/>
       <use x="55.615234" xlink:href="#ArialMT-30"/>
       <use x="111.230469" xlink:href="#ArialMT-30"/>
      </g>
     </g>
    </g>
    <g id="xtick_4">
     <g id="line2d_4">
      <g>
       <use style="fill:#262626;stroke:#262626;" x="299.25" xlink:href="#m160babaf46" y="270.72"/>
      </g>
     </g>
     <g id="text_4">
      <!-- 300 -->
      <defs>
       <path d="M 4.203125 18.890625 
L 12.984375 20.0625 
Q 14.5 12.59375 18.140625 9.296875 
Q 21.78125 6 27 6 
Q 33.203125 6 37.46875 10.296875 
Q 41.75 14.59375 41.75 20.953125 
Q 41.75 27 37.796875 30.921875 
Q 33.84375 34.859375 27.734375 34.859375 
Q 25.25 34.859375 21.53125 33.890625 
L 22.515625 41.609375 
Q 23.390625 41.5 23.921875 41.5 
Q 29.546875 41.5 34.03125 44.421875 
Q 38.53125 47.359375 38.53125 53.46875 
Q 38.53125 58.296875 35.25 61.46875 
Q 31.984375 64.65625 26.8125 64.65625 
Q 21.6875 64.65625 18.265625 61.421875 
Q 14.84375 58.203125 13.875 51.765625 
L 5.078125 53.328125 
Q 6.6875 62.15625 12.390625 67.015625 
Q 18.109375 71.875 26.609375 71.875 
Q 32.46875 71.875 37.390625 69.359375 
Q 42.328125 66.84375 44.9375 62.5 
Q 47.5625 58.15625 47.5625 53.265625 
Q 47.5625 48.640625 45.0625 44.828125 
Q 42.578125 41.015625 37.703125 38.765625 
Q 44.046875 37.3125 47.5625 32.6875 
Q 51.078125 28.078125 51.078125 21.140625 
Q 51.078125 11.765625 44.234375 5.25 
Q 37.40625 -1.265625 26.953125 -1.265625 
Q 17.53125 -1.265625 11.296875 4.34375 
Q 5.078125 9.96875 4.203125 18.890625 
z
" id="ArialMT-33"/>
      </defs>
      <g style="fill:#262626;" transform="translate(290.908594 290.877812)scale(0.1 -0.1)">
       <use xlink:href="#ArialMT-33"/>
       <use x="55.615234" xlink:href="#ArialMT-30"/>
       <use x="111.230469" xlink:href="#ArialMT-30"/>
      </g>
     </g>
    </g>
    <g id="xtick_5">
     <g id="line2d_5">
      <g>
       <use style="fill:#262626;stroke:#262626;" x="369" xlink:href="#m160babaf46" y="270.72"/>
      </g>
     </g>
     <g id="text_5">
      <!-- 400 -->
      <defs>
       <path d="M 32.328125 0 
L 32.328125 17.140625 
L 1.265625 17.140625 
L 1.265625 25.203125 
L 33.9375 71.578125 
L 41.109375 71.578125 
L 41.109375 25.203125 
L 50.78125 25.203125 
L 50.78125 17.140625 
L 41.109375 17.140625 
L 41.109375 0 
z
M 32.328125 25.203125 
L 32.328125 57.46875 
L 9.90625 25.203125 
z
" id="ArialMT-34"/>
      </defs>
      <g style="fill:#262626;" transform="translate(360.658594 290.877812)scale(0.1 -0.1)">
       <use xlink:href="#ArialMT-34"/>
       <use x="55.615234" xlink:href="#ArialMT-30"/>
       <use x="111.230469" xlink:href="#ArialMT-30"/>
      </g>
     </g>
    </g>
    <g id="xtick_6">
     <g id="line2d_6">
      <g>
       <use style="fill:#262626;stroke:#262626;" x="438.75" xlink:href="#m160babaf46" y="270.72"/>
      </g>
     </g>
     <g id="text_6">
      <!-- 500 -->
      <defs>
       <path d="M 4.15625 18.75 
L 13.375 19.53125 
Q 14.40625 12.796875 18.140625 9.390625 
Q 21.875 6 27.15625 6 
Q 33.5 6 37.890625 10.78125 
Q 42.28125 15.578125 42.28125 23.484375 
Q 42.28125 31 38.0625 35.34375 
Q 33.84375 39.703125 27 39.703125 
Q 22.75 39.703125 19.328125 37.765625 
Q 15.921875 35.84375 13.96875 32.765625 
L 5.71875 33.84375 
L 12.640625 70.609375 
L 48.25 70.609375 
L 48.25 62.203125 
L 19.671875 62.203125 
L 15.828125 42.96875 
Q 22.265625 47.46875 29.34375 47.46875 
Q 38.71875 47.46875 45.15625 40.96875 
Q 51.609375 34.46875 51.609375 24.265625 
Q 51.609375 14.546875 45.953125 7.46875 
Q 39.0625 -1.21875 27.15625 -1.21875 
Q 17.390625 -1.21875 11.203125 4.25 
Q 5.03125 9.71875 4.15625 18.75 
z
" id="ArialMT-35"/>
      </defs>
      <g style="fill:#262626;" transform="translate(430.408594 290.877812)scale(0.1 -0.1)">
       <use xlink:href="#ArialMT-35"/>
       <use x="55.615234" xlink:href="#ArialMT-30"/>
       <use x="111.230469" xlink:href="#ArialMT-30"/>
      </g>
     </g>
    </g>
    <g id="xtick_7">
     <g id="line2d_7">
      <g>
       <use style="fill:#262626;stroke:#262626;" x="508.5" xlink:href="#m160babaf46" y="270.72"/>
      </g>
     </g>
     <g id="text_7">
      <!-- 600 -->
      <defs>
       <path d="M 49.75 54.046875 
L 41.015625 53.375 
Q 39.84375 58.546875 37.703125 60.890625 
Q 34.125 64.65625 28.90625 64.65625 
Q 24.703125 64.65625 21.53125 62.3125 
Q 17.390625 59.28125 14.984375 53.46875 
Q 12.59375 47.65625 12.5 36.921875 
Q 15.671875 41.75 20.265625 44.09375 
Q 24.859375 46.4375 29.890625 46.4375 
Q 38.671875 46.4375 44.84375 39.96875 
Q 51.03125 33.5 51.03125 23.25 
Q 51.03125 16.5 48.125 10.71875 
Q 45.21875 4.9375 40.140625 1.859375 
Q 35.0625 -1.21875 28.609375 -1.21875 
Q 17.625 -1.21875 10.6875 6.859375 
Q 3.765625 14.9375 3.765625 33.5 
Q 3.765625 54.25 11.421875 63.671875 
Q 18.109375 71.875 29.4375 71.875 
Q 37.890625 71.875 43.28125 67.140625 
Q 48.6875 62.40625 49.75 54.046875 
z
M 13.875 23.1875 
Q 13.875 18.65625 15.796875 14.5 
Q 17.71875 10.359375 21.1875 8.171875 
Q 24.65625 6 28.46875 6 
Q 34.03125 6 38.03125 10.484375 
Q 42.046875 14.984375 42.046875 22.703125 
Q 42.046875 30.125 38.078125 34.390625 
Q 34.125 38.671875 28.125 38.671875 
Q 22.171875 38.671875 18.015625 34.390625 
Q 13.875 30.125 13.875 23.1875 
z
" id="ArialMT-36"/>
      </defs>
      <g style="fill:#262626;" transform="translate(500.158594 290.877812)scale(0.1 -0.1)">
       <use xlink:href="#ArialMT-36"/>
       <use x="55.615234" xlink:href="#ArialMT-30"/>
       <use x="111.230469" xlink:href="#ArialMT-30"/>
      </g>
     </g>
    </g>
    <g id="xtick_8">
     <g id="line2d_8">
      <g>
       <use style="fill:#262626;stroke:#262626;" x="578.25" xlink:href="#m160babaf46" y="270.72"/>
      </g>
     </g>
     <g id="text_8">
      <!-- 700 -->
      <defs>
       <path d="M 4.734375 62.203125 
L 4.734375 70.65625 
L 51.078125 70.65625 
L 51.078125 63.8125 
Q 44.234375 56.546875 37.515625 44.484375 
Q 30.8125 32.421875 27.15625 19.671875 
Q 24.515625 10.6875 23.78125 0 
L 14.75 0 
Q 14.890625 8.453125 18.0625 20.40625 
Q 21.234375 32.375 27.171875 43.484375 
Q 33.109375 54.59375 39.796875 62.203125 
z
" id="ArialMT-37"/>
      </defs>
      <g style="fill:#262626;" transform="translate(569.908594 290.877812)scale(0.1 -0.1)">
       <use xlink:href="#ArialMT-37"/>
       <use x="55.615234" xlink:href="#ArialMT-30"/>
       <use x="111.230469" xlink:href="#ArialMT-30"/>
      </g>
     </g>
    </g>
    <g id="xtick_9">
     <g id="line2d_9">
      <g>
       <use style="fill:#262626;stroke:#262626;" x="648" xlink:href="#m160babaf46" y="270.72"/>
      </g>
     </g>
     <g id="text_9">
      <!-- 800 -->
      <defs>
       <path d="M 17.671875 38.8125 
Q 12.203125 40.828125 9.5625 44.53125 
Q 6.9375 48.25 6.9375 53.421875 
Q 6.9375 61.234375 12.546875 66.546875 
Q 18.171875 71.875 27.484375 71.875 
Q 36.859375 71.875 42.578125 66.421875 
Q 48.296875 60.984375 48.296875 53.171875 
Q 48.296875 48.1875 45.671875 44.5 
Q 43.0625 40.828125 37.75 38.8125 
Q 44.34375 36.671875 47.78125 31.875 
Q 51.21875 27.09375 51.21875 20.453125 
Q 51.21875 11.28125 44.71875 5.03125 
Q 38.234375 -1.21875 27.640625 -1.21875 
Q 17.046875 -1.21875 10.546875 5.046875 
Q 4.046875 11.328125 4.046875 20.703125 
Q 4.046875 27.6875 7.59375 32.390625 
Q 11.140625 37.109375 17.671875 38.8125 
z
M 15.921875 53.71875 
Q 15.921875 48.640625 19.1875 45.40625 
Q 22.46875 42.1875 27.6875 42.1875 
Q 32.765625 42.1875 36.015625 45.375 
Q 39.265625 48.578125 39.265625 53.21875 
Q 39.265625 58.0625 35.90625 61.359375 
Q 32.5625 64.65625 27.59375 64.65625 
Q 22.5625 64.65625 19.234375 61.421875 
Q 15.921875 58.203125 15.921875 53.71875 
z
M 13.09375 20.65625 
Q 13.09375 16.890625 14.875 13.375 
Q 16.65625 9.859375 20.171875 7.921875 
Q 23.6875 6 27.734375 6 
Q 34.03125 6 38.125 10.046875 
Q 42.234375 14.109375 42.234375 20.359375 
Q 42.234375 26.703125 38.015625 30.859375 
Q 33.796875 35.015625 27.4375 35.015625 
Q 21.234375 35.015625 17.15625 30.90625 
Q 13.09375 26.8125 13.09375 20.65625 
z
" id="ArialMT-38"/>
      </defs>
      <g style="fill:#262626;" transform="translate(639.658594 290.877812)scale(0.1 -0.1)">
       <use xlink:href="#ArialMT-38"/>
       <use x="55.615234" xlink:href="#ArialMT-30"/>
       <use x="111.230469" xlink:href="#ArialMT-30"/>
      </g>
     </g>
    </g>
   </g>
   <g id="matplotlib.axis_2">
    <g id="ytick_1">
     <g id="line2d_10">
      <defs>
       <path d="M 0 0 
L -6 0 
" id="mb5d5fb993f" style="stroke:#262626;"/>
      </defs>
      <g>
       <use style="fill:#262626;stroke:#262626;" x="90" xlink:href="#mb5d5fb993f" y="270.72"/>
      </g>
     </g>
     <g id="text_10">
      <!-- −0.20 -->
      <defs>
       <path d="M 52.828125 31.203125 
L 5.5625 31.203125 
L 5.5625 39.40625 
L 52.828125 39.40625 
z
" id="ArialMT-2212"/>
       <path d="M 9.078125 0 
L 9.078125 10.015625 
L 19.09375 10.015625 
L 19.09375 0 
z
" id="ArialMT-2e"/>
      </defs>
      <g style="fill:#262626;" transform="translate(51.698437 274.298906)scale(0.1 -0.1)">
       <use xlink:href="#ArialMT-2212"/>
       <use x="58.398438" xlink:href="#ArialMT-30"/>
       <use x="114.013672" xlink:href="#ArialMT-2e"/>
       <use x="141.796875" xlink:href="#ArialMT-32"/>
       <use x="197.412109" xlink:href="#ArialMT-30"/>
      </g>
     </g>
    </g>
    <g id="ytick_2">
     <g id="line2d_11">
      <g>
       <use style="fill:#262626;stroke:#262626;" x="90" xlink:href="#mb5d5fb993f" y="245.52"/>
      </g>
     </g>
     <g id="text_11">
      <!-- −0.15 -->
      <g style="fill:#262626;" transform="translate(51.698437 249.098906)scale(0.1 -0.1)">
       <use xlink:href="#ArialMT-2212"/>
       <use x="58.398438" xlink:href="#ArialMT-30"/>
       <use x="114.013672" xlink:href="#ArialMT-2e"/>
       <use x="141.796875" xlink:href="#ArialMT-31"/>
       <use x="197.412109" xlink:href="#ArialMT-35"/>
      </g>
     </g>
    </g>
    <g id="ytick_3">
     <g id="line2d_12">
      <g>
       <use style="fill:#262626;stroke:#262626;" x="90" xlink:href="#mb5d5fb993f" y="220.32"/>
      </g>
     </g>
     <g id="text_12">
      <!-- −0.10 -->
      <g style="fill:#262626;" transform="translate(51.698437 223.898906)scale(0.1 -0.1)">
       <use xlink:href="#ArialMT-2212"/>
       <use x="58.398438" xlink:href="#ArialMT-30"/>
       <use x="114.013672" xlink:href="#ArialMT-2e"/>
       <use x="141.796875" xlink:href="#ArialMT-31"/>
       <use x="197.412109" xlink:href="#ArialMT-30"/>
      </g>
     </g>
    </g>
    <g id="ytick_4">
     <g id="line2d_13">
      <g>
       <use style="fill:#262626;stroke:#262626;" x="90" xlink:href="#mb5d5fb993f" y="195.12"/>
      </g>
     </g>
     <g id="text_13">
      <!-- −0.05 -->
      <g style="fill:#262626;" transform="translate(51.698437 198.698906)scale(0.1 -0.1)">
       <use xlink:href="#ArialMT-2212"/>
       <use x="58.398438" xlink:href="#ArialMT-30"/>
       <use x="114.013672" xlink:href="#ArialMT-2e"/>
       <use x="141.796875" xlink:href="#ArialMT-30"/>
       <use x="197.412109" xlink:href="#ArialMT-35"/>
      </g>
     </g>
    </g>
    <g id="ytick_5">
     <g id="line2d_14">
      <g>
       <use style="fill:#262626;stroke:#262626;" x="90" xlink:href="#mb5d5fb993f" y="169.92"/>
      </g>
     </g>
     <g id="text_14">
      <!-- 0.00 -->
      <g style="fill:#262626;" transform="translate(57.539062 173.498906)scale(0.1 -0.1)">
       <use xlink:href="#ArialMT-30"/>
       <use x="55.615234" xlink:href="#ArialMT-2e"/>
       <use x="83.398438" xlink:href="#ArialMT-30"/>
       <use x="139.013672" xlink:href="#ArialMT-30"/>
      </g>
     </g>
    </g>
    <g id="ytick_6">
     <g id="line2d_15">
      <g>
       <use style="fill:#262626;stroke:#262626;" x="90" xlink:href="#mb5d5fb993f" y="144.72"/>
      </g>
     </g>
     <g id="text_15">
      <!-- 0.05 -->
      <g style="fill:#262626;" transform="translate(57.539062 148.298906)scale(0.1 -0.1)">
       <use xlink:href="#ArialMT-30"/>
       <use x="55.615234" xlink:href="#ArialMT-2e"/>
       <use x="83.398438" xlink:href="#ArialMT-30"/>
       <use x="139.013672" xlink:href="#ArialMT-35"/>
      </g>
     </g>
    </g>
    <g id="ytick_7">
     <g id="line2d_16">
      <g>
       <use style="fill:#262626;stroke:#262626;" x="90" xlink:href="#mb5d5fb993f" y="119.52"/>
      </g>
     </g>
     <g id="text_16">
      <!-- 0.10 -->
      <g style="fill:#262626;" transform="translate(57.539062 123.098906)scale(0.1 -0.1)">
       <use xlink:href="#ArialMT-30"/>
       <use x="55.615234" xlink:href="#ArialMT-2e"/>
       <use x="83.398438" xlink:href="#ArialMT-31"/>
       <use x="139.013672" xlink:href="#ArialMT-30"/>
      </g>
     </g>
    </g>
    <g id="ytick_8">
     <g id="line2d_17">
      <g>
       <use style="fill:#262626;stroke:#262626;" x="90" xlink:href="#mb5d5fb993f" y="94.32"/>
      </g>
     </g>
     <g id="text_17">
      <!-- 0.15 -->
      <g style="fill:#262626;" transform="translate(57.539062 97.898906)scale(0.1 -0.1)">
       <use xlink:href="#ArialMT-30"/>
       <use x="55.615234" xlink:href="#ArialMT-2e"/>
       <use x="83.398438" xlink:href="#ArialMT-31"/>
       <use x="139.013672" xlink:href="#ArialMT-35"/>
      </g>
     </g>
    </g>
    <g id="ytick_9">
     <g id="line2d_18">
      <g>
       <use style="fill:#262626;stroke:#262626;" x="90" xlink:href="#mb5d5fb993f" y="69.12"/>
      </g>
     </g>
     <g id="text_18">
      <!-- 0.20 -->
      <g style="fill:#262626;" transform="translate(57.539062 72.698906)scale(0.1 -0.1)">
       <use xlink:href="#ArialMT-30"/>
       <use x="55.615234" xlink:href="#ArialMT-2e"/>
       <use x="83.398438" xlink:href="#ArialMT-32"/>
       <use x="139.013672" xlink:href="#ArialMT-30"/>
      </g>
     </g>
    </g>
   </g>
   <g id="PolyCollection_1">
    <path clip-path="url(#p67a8d98dfb)" d="M 90 173.419843 
L 90 169.92 
L 90.6975 169.92 
L 91.395 169.92 
L 92.0925 169.92 
L 92.79 169.92 
L 93.4875 169.92 
L 94.185 169.92 
L 94.8825 169.92 
L 95.58 169.92 
L 96.2775 169.92 
L 96.975 169.92 
L 97.6725 169.92 
L 98.37 169.92 
L 99.0675 169.92 
L 99.765 169.92 
L 100.4625 169.92 
L 101.16 169.92 
L 101.8575 169.92 
L 102.555 169.92 
L 103.2525 169.92 
L 103.95 169.92 
L 104.6475 169.92 
L 105.345 169.92 
L 106.0425 169.92 
L 106.74 169.92 
L 107.4375 169.92 
L 108.135 169.92 
L 108.8325 169.92 
L 109.53 169.92 
L 110.2275 169.92 
L 110.925 169.92 
L 111.6225 169.92 
L 112.32 169.92 
L 113.0175 169.92 
L 113.715 169.92 
L 114.4125 169.92 
L 115.11 169.92 
L 115.8075 169.92 
L 116.505 169.92 
L 117.2025 169.92 
L 117.9 169.92 
L 118.5975 169.92 
L 119.295 169.92 
L 119.9925 169.92 
L 120.69 169.92 
L 121.3875 169.92 
L 122.085 169.92 
L 122.7825 169.92 
L 123.48 169.92 
L 124.1775 169.92 
L 124.875 169.92 
L 125.5725 169.92 
L 126.27 169.92 
L 126.9675 169.92 
L 127.665 169.92 
L 128.3625 169.92 
L 129.06 169.92 
L 129.7575 169.92 
L 130.455 169.92 
L 131.1525 169.92 
L 131.85 169.92 
L 132.5475 169.92 
L 133.245 169.92 
L 133.9425 169.92 
L 134.64 169.92 
L 135.3375 169.92 
L 136.035 169.92 
L 136.7325 169.92 
L 137.43 169.92 
L 138.1275 169.92 
L 138.825 169.92 
L 139.5225 169.92 
L 140.22 169.92 
L 140.9175 169.92 
L 141.615 169.92 
L 142.3125 169.92 
L 143.01 169.92 
L 143.7075 169.92 
L 144.405 169.92 
L 145.1025 169.92 
L 145.8 169.92 
L 146.4975 169.92 
L 147.195 169.92 
L 147.8925 169.92 
L 148.59 169.92 
L 149.2875 169.92 
L 149.985 169.92 
L 150.6825 169.92 
L 151.38 169.92 
L 152.0775 169.92 
L 152.775 169.92 
L 153.4725 169.92 
L 154.17 169.92 
L 154.8675 169.92 
L 155.565 169.92 
L 156.2625 169.92 
L 156.96 169.92 
L 157.6575 169.92 
L 158.355 169.92 
L 159.0525 169.92 
L 159.75 169.92 
L 160.4475 169.92 
L 161.145 169.92 
L 161.8425 169.92 
L 162.54 169.92 
L 163.2375 169.92 
L 163.935 169.92 
L 164.6325 169.92 
L 165.33 169.92 
L 166.0275 169.92 
L 166.725 169.92 
L 167.4225 169.92 
L 168.12 169.92 
L 168.8175 169.92 
L 169.515 169.92 
L 170.2125 169.92 
L 170.91 169.92 
L 171.6075 169.92 
L 172.305 169.92 
L 173.0025 169.92 
L 173.7 169.92 
L 174.3975 169.92 
L 175.095 169.92 
L 175.7925 169.92 
L 176.49 169.92 
L 177.1875 169.92 
L 177.885 169.92 
L 178.5825 169.92 
L 179.28 169.92 
L 179.9775 169.92 
L 180.675 169.92 
L 181.3725 169.92 
L 182.07 169.92 
L 182.7675 169.92 
L 183.465 169.92 
L 184.1625 169.92 
L 184.86 169.92 
L 185.5575 169.92 
L 186.255 169.92 
L 186.9525 169.92 
L 187.65 169.92 
L 188.3475 169.92 
L 189.045 169.92 
L 189.7425 169.92 
L 190.44 169.92 
L 191.1375 169.92 
L 191.835 169.92 
L 192.5325 169.92 
L 193.23 169.92 
L 193.9275 169.92 
L 194.625 169.92 
L 195.3225 169.92 
L 196.02 169.92 
L 196.7175 169.92 
L 197.415 169.92 
L 198.1125 169.92 
L 198.81 169.92 
L 199.5075 169.92 
L 200.205 169.92 
L 200.9025 169.92 
L 201.6 169.92 
L 202.2975 169.92 
L 202.995 169.92 
L 203.6925 169.92 
L 204.39 169.92 
L 205.0875 169.92 
L 205.785 169.92 
L 206.4825 169.92 
L 207.18 169.92 
L 207.8775 169.92 
L 208.575 169.92 
L 209.2725 169.92 
L 209.97 169.92 
L 210.6675 169.92 
L 211.365 169.92 
L 212.0625 169.92 
L 212.76 169.92 
L 213.4575 169.92 
L 214.155 169.92 
L 214.8525 169.92 
L 215.55 169.92 
L 216.2475 169.92 
L 216.945 169.92 
L 217.6425 169.92 
L 218.34 169.92 
L 219.0375 169.92 
L 219.735 169.92 
L 220.4325 169.92 
L 221.13 169.92 
L 221.8275 169.92 
L 222.525 169.92 
L 223.2225 169.92 
L 223.92 169.92 
L 224.6175 169.92 
L 225.315 169.92 
L 226.0125 169.92 
L 226.71 169.92 
L 227.4075 169.92 
L 228.105 169.92 
L 228.8025 169.92 
L 229.5 169.92 
L 230.1975 169.92 
L 230.895 169.92 
L 231.5925 169.92 
L 232.29 169.92 
L 232.9875 169.92 
L 233.685 169.92 
L 234.3825 169.92 
L 235.08 169.92 
L 235.7775 169.92 
L 236.475 169.92 
L 237.1725 169.92 
L 237.87 169.92 
L 238.5675 169.92 
L 239.265 169.92 
L 239.9625 169.92 
L 240.66 169.92 
L 241.3575 169.92 
L 242.055 169.92 
L 242.7525 169.92 
L 243.45 169.92 
L 244.1475 169.92 
L 244.845 169.92 
L 245.5425 169.92 
L 246.24 169.92 
L 246.9375 169.92 
L 247.635 169.92 
L 248.3325 169.92 
L 249.03 169.92 
L 249.7275 169.92 
L 250.425 169.92 
L 251.1225 169.92 
L 251.82 169.92 
L 252.5175 169.92 
L 253.215 169.92 
L 253.9125 169.92 
L 254.61 169.92 
L 255.3075 169.92 
L 256.005 169.92 
L 256.7025 169.92 
L 257.4 169.92 
L 258.0975 169.92 
L 258.795 169.92 
L 259.4925 169.92 
L 260.19 169.92 
L 260.8875 169.92 
L 261.585 169.92 
L 262.2825 169.92 
L 262.98 169.92 
L 263.6775 169.92 
L 264.375 169.92 
L 265.0725 169.92 
L 265.77 169.92 
L 266.4675 169.92 
L 267.165 169.92 
L 267.8625 169.92 
L 268.56 169.92 
L 269.2575 169.92 
L 269.955 169.92 
L 270.6525 169.92 
L 271.35 169.92 
L 272.0475 169.92 
L 272.745 169.92 
L 273.4425 169.92 
L 274.14 169.92 
L 274.8375 169.92 
L 275.535 169.92 
L 276.2325 169.92 
L 276.93 169.92 
L 277.6275 169.92 
L 278.325 169.92 
L 279.0225 169.92 
L 279.72 169.92 
L 280.4175 169.92 
L 281.115 169.92 
L 281.8125 169.92 
L 282.51 169.92 
L 283.2075 169.92 
L 283.905 169.92 
L 284.6025 169.92 
L 285.3 169.92 
L 285.9975 169.92 
L 286.695 169.92 
L 287.3925 169.92 
L 288.09 169.92 
L 288.7875 169.92 
L 289.485 169.92 
L 290.1825 169.92 
L 290.88 169.92 
L 291.5775 169.92 
L 292.275 169.92 
L 292.9725 169.92 
L 293.67 169.92 
L 294.3675 169.92 
L 295.065 169.92 
L 295.7625 169.92 
L 296.46 169.92 
L 297.1575 169.92 
L 297.855 169.92 
L 298.5525 169.92 
L 299.25 169.92 
L 299.9475 169.92 
L 300.645 169.92 
L 301.3425 169.92 
L 302.04 169.92 
L 302.7375 169.92 
L 303.435 169.92 
L 304.1325 169.92 
L 304.83 169.92 
L 305.5275 169.92 
L 306.225 169.92 
L 306.9225 169.92 
L 307.62 169.92 
L 308.3175 169.92 
L 309.015 169.92 
L 309.7125 169.92 
L 310.41 169.92 
L 311.1075 169.92 
L 311.805 169.92 
L 312.5025 169.92 
L 313.2 169.92 
L 313.8975 169.92 
L 314.595 169.92 
L 315.2925 169.92 
L 315.99 169.92 
L 316.6875 169.92 
L 317.385 169.92 
L 318.0825 169.92 
L 318.78 169.92 
L 319.4775 169.92 
L 320.175 169.92 
L 320.8725 169.92 
L 321.57 169.92 
L 322.2675 169.92 
L 322.965 169.92 
L 323.6625 169.92 
L 324.36 169.92 
L 325.0575 169.92 
L 325.755 169.92 
L 326.4525 169.92 
L 327.15 169.92 
L 327.8475 169.92 
L 328.545 169.92 
L 329.2425 169.92 
L 329.94 169.92 
L 330.6375 169.92 
L 331.335 169.92 
L 332.0325 169.92 
L 332.73 169.92 
L 333.4275 169.92 
L 334.125 169.92 
L 334.8225 169.92 
L 335.52 169.92 
L 336.2175 169.92 
L 336.915 169.92 
L 337.6125 169.92 
L 338.31 169.92 
L 339.0075 169.92 
L 339.705 169.92 
L 340.4025 169.92 
L 341.1 169.92 
L 341.7975 169.92 
L 342.495 169.92 
L 343.1925 169.92 
L 343.89 169.92 
L 344.5875 169.92 
L 345.285 169.92 
L 345.9825 169.92 
L 346.68 169.92 
L 347.3775 169.92 
L 348.075 169.92 
L 348.7725 169.92 
L 349.47 169.92 
L 350.1675 169.92 
L 350.865 169.92 
L 351.5625 169.92 
L 352.26 169.92 
L 352.9575 169.92 
L 353.655 169.92 
L 354.3525 169.92 
L 355.05 169.92 
L 355.7475 169.92 
L 356.445 169.92 
L 357.1425 169.92 
L 357.84 169.92 
L 358.5375 169.92 
L 359.235 169.92 
L 359.9325 169.92 
L 360.63 169.92 
L 361.3275 169.92 
L 362.025 169.92 
L 362.7225 169.92 
L 363.42 169.92 
L 364.1175 169.92 
L 364.815 169.92 
L 365.5125 169.92 
L 366.21 169.92 
L 366.9075 169.92 
L 367.605 169.92 
L 368.3025 169.92 
L 369 169.92 
L 369.6975 169.92 
L 370.395 169.92 
L 371.0925 169.92 
L 371.79 169.92 
L 372.4875 169.92 
L 373.185 169.92 
L 373.8825 169.92 
L 374.58 169.92 
L 375.2775 169.92 
L 375.975 169.92 
L 376.6725 169.92 
L 377.37 169.92 
L 378.0675 169.92 
L 378.765 169.92 
L 379.4625 169.92 
L 380.16 169.92 
L 380.8575 169.92 
L 381.555 169.92 
L 382.2525 169.92 
L 382.95 169.92 
L 383.6475 169.92 
L 384.345 169.92 
L 385.0425 169.92 
L 385.74 169.92 
L 386.4375 169.92 
L 387.135 169.92 
L 387.8325 169.92 
L 388.53 169.92 
L 389.2275 169.92 
L 389.925 169.92 
L 390.6225 169.92 
L 391.32 169.92 
L 392.0175 169.92 
L 392.715 169.92 
L 393.4125 169.92 
L 394.11 169.92 
L 394.8075 169.92 
L 395.505 169.92 
L 396.2025 169.92 
L 396.9 169.92 
L 397.5975 169.92 
L 398.295 169.92 
L 398.9925 169.92 
L 399.69 169.92 
L 400.3875 169.92 
L 401.085 169.92 
L 401.7825 169.92 
L 402.48 169.92 
L 403.1775 169.92 
L 403.875 169.92 
L 404.5725 169.92 
L 405.27 169.92 
L 405.9675 169.92 
L 406.665 169.92 
L 407.3625 169.92 
L 408.06 169.92 
L 408.7575 169.92 
L 409.455 169.92 
L 410.1525 169.92 
L 410.85 169.92 
L 411.5475 169.92 
L 412.245 169.92 
L 412.9425 169.92 
L 413.64 169.92 
L 414.3375 169.92 
L 415.035 169.92 
L 415.7325 169.92 
L 416.43 169.92 
L 417.1275 169.92 
L 417.825 169.92 
L 418.5225 169.92 
L 419.22 169.92 
L 419.9175 169.92 
L 420.615 169.92 
L 421.3125 169.92 
L 422.01 169.92 
L 422.7075 169.92 
L 423.405 169.92 
L 424.1025 169.92 
L 424.8 169.92 
L 425.4975 169.92 
L 426.195 169.92 
L 426.8925 169.92 
L 427.59 169.92 
L 428.2875 169.92 
L 428.985 169.92 
L 429.6825 169.92 
L 430.38 169.92 
L 431.0775 169.92 
L 431.775 169.92 
L 432.4725 169.92 
L 433.17 169.92 
L 433.8675 169.92 
L 434.565 169.92 
L 435.2625 169.92 
L 435.96 169.92 
L 436.6575 169.92 
L 437.355 169.92 
L 438.0525 169.92 
L 438.75 169.92 
L 439.4475 169.92 
L 440.145 169.92 
L 440.8425 169.92 
L 441.54 169.92 
L 442.2375 169.92 
L 442.935 169.92 
L 443.6325 169.92 
L 444.33 169.92 
L 445.0275 169.92 
L 445.725 169.92 
L 446.4225 169.92 
L 447.12 169.92 
L 447.8175 169.92 
L 448.515 169.92 
L 449.2125 169.92 
L 449.91 169.92 
L 450.6075 169.92 
L 451.305 169.92 
L 452.0025 169.92 
L 452.7 169.92 
L 453.3975 169.92 
L 454.095 169.92 
L 454.7925 169.92 
L 455.49 169.92 
L 456.1875 169.92 
L 456.885 169.92 
L 457.5825 169.92 
L 458.28 169.92 
L 458.9775 169.92 
L 459.675 169.92 
L 460.3725 169.92 
L 461.07 169.92 
L 461.7675 169.92 
L 462.465 169.92 
L 463.1625 169.92 
L 463.86 169.92 
L 464.5575 169.92 
L 465.255 169.92 
L 465.9525 169.92 
L 466.65 169.92 
L 467.3475 169.92 
L 468.045 169.92 
L 468.7425 169.92 
L 469.44 169.92 
L 470.1375 169.92 
L 470.835 169.92 
L 471.5325 169.92 
L 472.23 169.92 
L 472.9275 169.92 
L 473.625 169.92 
L 474.3225 169.92 
L 475.02 169.92 
L 475.7175 169.92 
L 476.415 169.92 
L 477.1125 169.92 
L 477.81 169.92 
L 478.5075 169.92 
L 479.205 169.92 
L 479.9025 169.92 
L 480.6 169.92 
L 481.2975 169.92 
L 481.995 169.92 
L 482.6925 169.92 
L 483.39 169.92 
L 484.0875 169.92 
L 484.785 169.92 
L 485.4825 169.92 
L 486.18 169.92 
L 486.8775 169.92 
L 487.575 169.92 
L 488.2725 169.92 
L 488.97 169.92 
L 489.6675 169.92 
L 490.365 169.92 
L 491.0625 169.92 
L 491.76 169.92 
L 492.4575 169.92 
L 493.155 169.92 
L 493.8525 169.92 
L 494.55 169.92 
L 495.2475 169.92 
L 495.945 169.92 
L 496.6425 169.92 
L 497.34 169.92 
L 498.0375 169.92 
L 498.735 169.92 
L 499.4325 169.92 
L 500.13 169.92 
L 500.8275 169.92 
L 501.525 169.92 
L 502.2225 169.92 
L 502.92 169.92 
L 503.6175 169.92 
L 504.315 169.92 
L 505.0125 169.92 
L 505.71 169.92 
L 506.4075 169.92 
L 507.105 169.92 
L 507.8025 169.92 
L 508.5 169.92 
L 509.1975 169.92 
L 509.895 169.92 
L 510.5925 169.92 
L 511.29 169.92 
L 511.9875 169.92 
L 512.685 169.92 
L 513.3825 169.92 
L 514.08 169.92 
L 514.7775 169.92 
L 515.475 169.92 
L 516.1725 169.92 
L 516.87 169.92 
L 517.5675 169.92 
L 518.265 169.92 
L 518.9625 169.92 
L 519.66 169.92 
L 520.3575 169.92 
L 521.055 169.92 
L 521.7525 169.92 
L 522.45 169.92 
L 523.1475 169.92 
L 523.845 169.92 
L 524.5425 169.92 
L 525.24 169.92 
L 525.9375 169.92 
L 526.635 169.92 
L 527.3325 169.92 
L 528.03 169.92 
L 528.7275 169.92 
L 529.425 169.92 
L 530.1225 169.92 
L 530.82 169.92 
L 531.5175 169.92 
L 532.215 169.92 
L 532.9125 169.92 
L 533.61 169.92 
L 534.3075 169.92 
L 535.005 169.92 
L 535.7025 169.92 
L 536.4 169.92 
L 537.0975 169.92 
L 537.795 169.92 
L 538.4925 169.92 
L 539.19 169.92 
L 539.8875 169.92 
L 540.585 169.92 
L 541.2825 169.92 
L 541.98 169.92 
L 542.6775 169.92 
L 543.375 169.92 
L 544.0725 169.92 
L 544.77 169.92 
L 545.4675 169.92 
L 546.165 169.92 
L 546.8625 169.92 
L 547.56 169.92 
L 548.2575 169.92 
L 548.955 169.92 
L 549.6525 169.92 
L 550.35 169.92 
L 551.0475 169.92 
L 551.745 169.92 
L 552.4425 169.92 
L 553.14 169.92 
L 553.8375 169.92 
L 554.535 169.92 
L 555.2325 169.92 
L 555.93 169.92 
L 556.6275 169.92 
L 557.325 169.92 
L 558.0225 169.92 
L 558.72 169.92 
L 559.4175 169.92 
L 560.115 169.92 
L 560.8125 169.92 
L 561.51 169.92 
L 562.2075 169.92 
L 562.905 169.92 
L 563.6025 169.92 
L 564.3 169.92 
L 564.9975 169.92 
L 565.695 169.92 
L 566.3925 169.92 
L 567.09 169.92 
L 567.7875 169.92 
L 568.485 169.92 
L 569.1825 169.92 
L 569.88 169.92 
L 570.5775 169.92 
L 571.275 169.92 
L 571.9725 169.92 
L 572.67 169.92 
L 573.3675 169.92 
L 574.065 169.92 
L 574.7625 169.92 
L 575.46 169.92 
L 576.1575 169.92 
L 576.855 169.92 
L 577.5525 169.92 
L 578.25 169.92 
L 578.9475 169.92 
L 579.645 169.92 
L 580.3425 169.92 
L 581.04 169.92 
L 581.7375 169.92 
L 582.435 169.92 
L 583.1325 169.92 
L 583.83 169.92 
L 584.5275 169.92 
L 585.225 169.92 
L 585.9225 169.92 
L 586.62 169.92 
L 587.3175 169.92 
L 588.015 169.92 
L 588.7125 169.92 
L 589.41 169.92 
L 590.1075 169.92 
L 590.805 169.92 
L 591.5025 169.92 
L 592.2 169.92 
L 592.8975 169.92 
L 593.595 169.92 
L 594.2925 169.92 
L 594.99 169.92 
L 595.6875 169.92 
L 596.385 169.92 
L 597.0825 169.92 
L 597.78 169.92 
L 598.4775 169.92 
L 599.175 169.92 
L 599.8725 169.92 
L 600.57 169.92 
L 601.2675 169.92 
L 601.965 169.92 
L 602.6625 169.92 
L 603.36 169.92 
L 604.0575 169.92 
L 604.755 169.92 
L 605.4525 169.92 
L 606.15 169.92 
L 606.8475 169.92 
L 607.545 169.92 
L 608.2425 169.92 
L 608.94 169.92 
L 609.6375 169.92 
L 610.335 169.92 
L 611.0325 169.92 
L 611.73 169.92 
L 612.4275 169.92 
L 613.125 169.92 
L 613.8225 169.92 
L 614.52 169.92 
L 615.2175 169.92 
L 615.915 169.92 
L 616.6125 169.92 
L 617.31 169.92 
L 618.0075 169.92 
L 618.705 169.92 
L 619.4025 169.92 
L 620.1 169.92 
L 620.7975 169.92 
L 621.495 169.92 
L 622.1925 169.92 
L 622.89 169.92 
L 623.5875 169.92 
L 624.285 169.92 
L 624.9825 169.92 
L 625.68 169.92 
L 626.3775 169.92 
L 627.075 169.92 
L 627.7725 169.92 
L 628.47 169.92 
L 629.1675 169.92 
L 629.865 169.92 
L 630.5625 169.92 
L 631.26 169.92 
L 631.9575 169.92 
L 632.655 169.92 
L 633.3525 169.92 
L 634.05 169.92 
L 634.7475 169.92 
L 635.445 169.92 
L 636.1425 169.92 
L 636.84 169.92 
L 637.5375 169.92 
L 638.235 169.92 
L 638.9325 169.92 
L 639.63 169.92 
L 640.3275 169.92 
L 641.025 169.92 
L 641.7225 169.92 
L 642.42 169.92 
L 643.1175 169.92 
L 643.815 169.92 
L 644.5125 169.92 
L 645.21 169.92 
L 645.9075 169.92 
L 646.605 169.92 
L 646.605 169.92 
L 646.605 169.92 
L 645.9075 169.921283 
L 645.21 169.92429 
L 644.5125 169.92945 
L 643.815 169.937177 
L 643.1175 169.947867 
L 642.42 169.961892 
L 641.7225 169.979603 
L 641.025 170.001323 
L 640.3275 170.027348 
L 639.63 170.057941 
L 638.9325 170.093333 
L 638.235 170.133723 
L 637.5375 170.179272 
L 636.84 170.230106 
L 636.1425 170.286312 
L 635.445 170.347942 
L 634.7475 170.415008 
L 634.05 170.487485 
L 633.3525 170.565309 
L 632.655 170.648382 
L 631.9575 170.736566 
L 631.26 170.829691 
L 630.5625 170.927553 
L 629.865 171.029917 
L 629.1675 171.136514 
L 628.47 171.247053 
L 627.7725 171.361212 
L 627.075 171.478649 
L 626.3775 171.599001 
L 625.68 171.721884 
L 624.9825 171.846903 
L 624.285 171.973649 
L 623.5875 172.101701 
L 622.89 172.230636 
L 622.1925 172.360024 
L 621.495 172.489436 
L 620.7975 172.618446 
L 620.1 172.746632 
L 619.4025 172.87358 
L 618.705 172.998888 
L 618.0075 173.122166 
L 617.31 173.243041 
L 616.6125 173.361155 
L 615.915 173.476174 
L 615.2175 173.587783 
L 614.52 173.695691 
L 613.8225 173.799632 
L 613.125 173.899367 
L 612.4275 173.994683 
L 611.73 174.085395 
L 611.0325 174.171347 
L 610.335 174.252411 
L 609.6375 174.328489 
L 608.94 174.399509 
L 608.2425 174.465428 
L 607.545 174.526233 
L 606.8475 174.581933 
L 606.15 174.632567 
L 605.4525 174.678193 
L 604.755 174.718897 
L 604.0575 174.754783 
L 603.36 174.785975 
L 602.6625 174.812615 
L 601.965 174.83486 
L 601.2675 174.85288 
L 600.57 174.866858 
L 599.8725 174.876986 
L 599.175 174.883462 
L 598.4775 174.886489 
L 597.78 174.886274 
L 597.0825 174.883023 
L 596.385 174.876942 
L 595.6875 174.868233 
L 594.99 174.857093 
L 594.2925 174.843712 
L 593.595 174.82827 
L 592.8975 174.810938 
L 592.2 174.791876 
L 591.5025 174.771231 
L 590.805 174.749134 
L 590.1075 174.725705 
L 589.41 174.701046 
L 588.7125 174.675245 
L 588.015 174.648374 
L 587.3175 174.620489 
L 586.62 174.591629 
L 585.9225 174.56182 
L 585.225 174.531071 
L 584.5275 174.499377 
L 583.83 174.466722 
L 583.1325 174.433074 
L 582.435 174.398394 
L 581.7375 174.36263 
L 581.04 174.325722 
L 580.3425 174.287605 
L 579.645 174.248207 
L 578.9475 174.207453 
L 578.25 174.165266 
L 577.5525 174.121568 
L 576.855 174.076284 
L 576.1575 174.029341 
L 575.46 173.980671 
L 574.7625 173.930214 
L 574.065 173.877917 
L 573.3675 173.823736 
L 572.67 173.76764 
L 571.9725 173.709609 
L 571.275 173.649637 
L 570.5775 173.587732 
L 569.88 173.523916 
L 569.1825 173.458231 
L 568.485 173.390732 
L 567.7875 173.321491 
L 567.09 173.250598 
L 566.3925 173.17816 
L 565.695 173.104299 
L 564.9975 173.029154 
L 564.3 172.952879 
L 563.6025 172.875644 
L 562.905 172.797629 
L 562.2075 172.71903 
L 561.51 172.640052 
L 560.8125 172.560909 
L 560.115 172.481824 
L 559.4175 172.403024 
L 558.72 172.324742 
L 558.0225 172.247211 
L 557.325 172.170665 
L 556.6275 172.095335 
L 555.93 172.02145 
L 555.2325 171.949228 
L 554.535 171.878881 
L 553.8375 171.81061 
L 553.14 171.744603 
L 552.4425 171.681031 
L 551.745 171.620049 
L 551.0475 171.561795 
L 550.35 171.506382 
L 549.6525 171.453906 
L 548.955 171.404435 
L 548.2575 171.358013 
L 547.56 171.314661 
L 546.8625 171.274369 
L 546.165 171.237102 
L 545.4675 171.202796 
L 544.77 171.171361 
L 544.0725 171.142678 
L 543.375 171.116598 
L 542.6775 171.092947 
L 541.98 171.071526 
L 541.2825 171.052109 
L 540.585 171.034445 
L 539.8875 171.018261 
L 539.19 171.003265 
L 538.4925 170.989143 
L 537.795 170.975566 
L 537.0975 170.96219 
L 536.4 170.948658 
L 535.7025 170.934603 
L 535.005 170.919652 
L 534.3075 170.903426 
L 533.61 170.885547 
L 532.9125 170.865637 
L 532.215 170.843322 
L 531.5175 170.818235 
L 530.82 170.790022 
L 530.1225 170.758338 
L 529.425 170.722858 
L 528.7275 170.683274 
L 528.03 170.639298 
L 527.3325 170.59067 
L 526.635 170.537151 
L 525.9375 170.478536 
L 525.24 170.414646 
L 524.5425 170.345337 
L 523.845 170.270498 
L 523.1475 170.190055 
L 522.45 170.103966 
L 521.7525 170.012231 
L 521.055 169.914885 
L 520.3575 169.812002 
L 519.66 169.703692 
L 518.9625 169.590107 
L 518.265 169.471431 
L 517.5675 169.347889 
L 516.87 169.219737 
L 516.1725 169.087268 
L 515.475 168.950805 
L 514.7775 168.810703 
L 514.08 168.667344 
L 513.3825 168.521136 
L 512.685 168.372511 
L 511.9875 168.221921 
L 511.29 168.069835 
L 510.5925 167.91674 
L 509.895 167.76313 
L 509.1975 167.609511 
L 508.5 167.456392 
L 507.8025 167.304286 
L 507.105 167.153702 
L 506.4075 167.005145 
L 505.71 166.859114 
L 505.0125 166.716093 
L 504.315 166.576555 
L 503.6175 166.440954 
L 502.92 166.309722 
L 502.2225 166.183271 
L 501.525 166.061985 
L 500.8275 165.946221 
L 500.13 165.836305 
L 499.4325 165.73253 
L 498.735 165.635158 
L 498.0375 165.544412 
L 497.34 165.460482 
L 496.6425 165.383517 
L 495.945 165.313629 
L 495.2475 165.250895 
L 494.55 165.195347 
L 493.8525 165.146985 
L 493.155 165.105767 
L 492.4575 165.071615 
L 491.76 165.044416 
L 491.0625 165.02402 
L 490.365 165.010246 
L 489.6675 165.00288 
L 488.97 165.001679 
L 488.2725 165.006373 
L 487.575 165.016665 
L 486.8775 165.032237 
L 486.18 165.052751 
L 485.4825 165.077852 
L 484.785 165.107168 
L 484.0875 165.140318 
L 483.39 165.176913 
L 482.6925 165.216556 
L 481.995 165.258849 
L 481.2975 165.303392 
L 480.6 165.349792 
L 479.9025 165.397659 
L 479.205 165.446612 
L 478.5075 165.496281 
L 477.81 165.546312 
L 477.1125 165.596364 
L 476.415 165.646116 
L 475.7175 165.695266 
L 475.02 165.743534 
L 474.3225 165.790665 
L 473.625 165.836427 
L 472.9275 165.880613 
L 472.23 165.923045 
L 471.5325 165.963571 
L 470.835 166.002066 
L 470.1375 166.038433 
L 469.44 166.072604 
L 468.7425 166.104536 
L 468.045 166.134214 
L 467.3475 166.16165 
L 466.65 166.186879 
L 465.9525 166.20996 
L 465.255 166.230977 
L 464.5575 166.25003 
L 463.86 166.267243 
L 463.1625 166.282755 
L 462.465 166.296721 
L 461.7675 166.309309 
L 461.07 166.320699 
L 460.3725 166.331081 
L 459.675 166.340649 
L 458.9775 166.349606 
L 458.28 166.358155 
L 457.5825 166.3665 
L 456.885 166.374844 
L 456.1875 166.383386 
L 455.49 166.392321 
L 454.7925 166.401835 
L 454.095 166.412105 
L 453.3975 166.423299 
L 452.7 166.435572 
L 452.0025 166.449066 
L 451.305 166.463908 
L 450.6075 166.480212 
L 449.91 166.498074 
L 449.2125 166.517573 
L 448.515 166.538775 
L 447.8175 166.561724 
L 447.12 166.586453 
L 446.4225 166.612972 
L 445.725 166.641281 
L 445.0275 166.671361 
L 444.33 166.703178 
L 443.6325 166.736688 
L 442.935 166.77183 
L 442.2375 166.808534 
L 441.54 166.846719 
L 440.8425 166.886298 
L 440.145 166.927173 
L 439.4475 166.969245 
L 438.75 167.012408 
L 438.0525 167.056556 
L 437.355 167.101583 
L 436.6575 167.147382 
L 435.96 167.193854 
L 435.2625 167.240901 
L 434.565 167.288433 
L 433.8675 167.336369 
L 433.17 167.384636 
L 432.4725 167.433175 
L 431.775 167.481935 
L 431.0775 167.530882 
L 430.38 167.579994 
L 429.6825 167.629265 
L 428.985 167.678705 
L 428.2875 167.728338 
L 427.59 167.778206 
L 426.8925 167.828366 
L 426.195 167.878893 
L 425.4975 167.929874 
L 424.8 167.981416 
L 424.1025 168.033635 
L 423.405 168.086664 
L 422.7075 168.140647 
L 422.01 168.195739 
L 421.3125 168.252104 
L 420.615 168.309916 
L 419.9175 168.369353 
L 419.22 168.430597 
L 418.5225 168.493835 
L 417.825 168.559251 
L 417.1275 168.627029 
L 416.43 168.69735 
L 415.7325 168.770388 
L 415.035 168.846308 
L 414.3375 168.925265 
L 413.64 169.007402 
L 412.9425 169.092848 
L 412.245 169.181714 
L 411.5475 169.274093 
L 410.85 169.370058 
L 410.1525 169.469661 
L 409.455 169.572929 
L 408.7575 169.679866 
L 408.06 169.790449 
L 407.3625 169.904629 
L 406.665 170.02233 
L 405.9675 170.143447 
L 405.27 170.267849 
L 404.5725 170.395374 
L 403.875 170.525833 
L 403.1775 170.659012 
L 402.48 170.794666 
L 401.7825 170.932528 
L 401.085 171.072304 
L 400.3875 171.213677 
L 399.69 171.356309 
L 398.9925 171.49984 
L 398.295 171.643895 
L 397.5975 171.788082 
L 396.9 171.931995 
L 396.2025 172.075218 
L 395.505 172.217326 
L 394.8075 172.357889 
L 394.11 172.496475 
L 393.4125 172.632651 
L 392.715 172.765988 
L 392.0175 172.896063 
L 391.32 173.022463 
L 390.6225 173.144785 
L 389.925 173.262644 
L 389.2275 173.37567 
L 388.53 173.483515 
L 387.8325 173.585855 
L 387.135 173.682389 
L 386.4375 173.772846 
L 385.74 173.856985 
L 385.0425 173.934596 
L 384.345 174.005502 
L 383.6475 174.069564 
L 382.95 174.126677 
L 382.2525 174.176773 
L 381.555 174.219823 
L 380.8575 174.255836 
L 380.16 174.28486 
L 379.4625 174.30698 
L 378.765 174.322321 
L 378.0675 174.331044 
L 377.37 174.333346 
L 376.6725 174.329459 
L 375.975 174.319651 
L 375.2775 174.304218 
L 374.58 174.283489 
L 373.8825 174.257818 
L 373.185 174.227586 
L 372.4875 174.193196 
L 371.79 174.15507 
L 371.0925 174.113648 
L 370.395 174.069383 
L 369.6975 174.022739 
L 369 173.974187 
L 368.3025 173.924203 
L 367.605 173.873262 
L 366.9075 173.821839 
L 366.21 173.7704 
L 365.5125 173.719404 
L 364.815 173.669299 
L 364.1175 173.620514 
L 363.42 173.573463 
L 362.7225 173.528537 
L 362.025 173.486105 
L 361.3275 173.446508 
L 360.63 173.410059 
L 359.9325 173.377041 
L 359.235 173.347705 
L 358.5375 173.322267 
L 357.84 173.300909 
L 357.1425 173.283775 
L 356.445 173.270975 
L 355.7475 173.262579 
L 355.05 173.25862 
L 354.3525 173.259094 
L 353.655 173.26396 
L 352.9575 173.27314 
L 352.26 173.28652 
L 351.5625 173.303952 
L 350.865 173.325255 
L 350.1675 173.350216 
L 349.47 173.378594 
L 348.7725 173.410119 
L 348.075 173.444495 
L 347.3775 173.481407 
L 346.68 173.520515 
L 345.9825 173.561464 
L 345.285 173.603885 
L 344.5875 173.647396 
L 343.89 173.691605 
L 343.1925 173.736116 
L 342.495 173.780529 
L 341.7975 173.824444 
L 341.1 173.867464 
L 340.4025 173.909198 
L 339.705 173.949262 
L 339.0075 173.987285 
L 338.31 174.022908 
L 337.6125 174.055789 
L 336.915 174.085604 
L 336.2175 174.112048 
L 335.52 174.134841 
L 334.8225 174.153723 
L 334.125 174.168462 
L 333.4275 174.17885 
L 332.73 174.184709 
L 332.0325 174.185886 
L 331.335 174.182259 
L 330.6375 174.173733 
L 329.94 174.160241 
L 329.2425 174.141747 
L 328.545 174.118241 
L 327.8475 174.089741 
L 327.15 174.056291 
L 326.4525 174.01796 
L 325.755 173.974841 
L 325.0575 173.927051 
L 324.36 173.874726 
L 323.6625 173.818023 
L 322.965 173.757114 
L 322.2675 173.692187 
L 321.57 173.623445 
L 320.8725 173.5511 
L 320.175 173.475375 
L 319.4775 173.396496 
L 318.78 173.314698 
L 318.0825 173.230216 
L 317.385 173.143284 
L 316.6875 173.054138 
L 315.99 172.963008 
L 315.2925 172.870117 
L 314.595 172.775682 
L 313.8975 172.679912 
L 313.2 172.583004 
L 312.5025 172.485143 
L 311.805 172.386502 
L 311.1075 172.287238 
L 310.41 172.187496 
L 309.7125 172.087403 
L 309.015 171.987071 
L 308.3175 171.886595 
L 307.62 171.786056 
L 306.9225 171.685517 
L 306.225 171.585026 
L 305.5275 171.484616 
L 304.83 171.384304 
L 304.1325 171.284096 
L 303.435 171.183983 
L 302.7375 171.083947 
L 302.04 170.983957 
L 301.3425 170.883977 
L 300.645 170.78396 
L 299.9475 170.683856 
L 299.25 170.583611 
L 298.5525 170.483167 
L 297.855 170.382468 
L 297.1575 170.281456 
L 296.46 170.18008 
L 295.7625 170.078291 
L 295.065 169.976046 
L 294.3675 169.873311 
L 293.67 169.770062 
L 292.9725 169.666284 
L 292.275 169.561975 
L 291.5775 169.457146 
L 290.88 169.351821 
L 290.1825 169.246041 
L 289.485 169.139861 
L 288.7875 169.033351 
L 288.09 168.926601 
L 287.3925 168.819713 
L 286.695 168.712807 
L 285.9975 168.606021 
L 285.3 168.499505 
L 284.6025 168.393425 
L 283.905 168.287962 
L 283.2075 168.183309 
L 282.51 168.07967 
L 281.8125 167.97726 
L 281.115 167.876302 
L 280.4175 167.777027 
L 279.72 167.67967 
L 279.0225 167.58447 
L 278.325 167.491666 
L 277.6275 167.401497 
L 276.93 167.314199 
L 276.2325 167.230003 
L 275.535 167.149132 
L 274.8375 167.071799 
L 274.14 166.998207 
L 273.4425 166.928543 
L 272.745 166.86298 
L 272.0475 166.801671 
L 271.35 166.744752 
L 270.6525 166.692335 
L 269.955 166.644511 
L 269.2575 166.601345 
L 268.56 166.562879 
L 267.8625 166.529125 
L 267.165 166.50007 
L 266.4675 166.475672 
L 265.77 166.455861 
L 265.0725 166.440538 
L 264.375 166.429575 
L 263.6775 166.422818 
L 262.98 166.420083 
L 262.2825 166.42116 
L 261.585 166.425814 
L 260.8875 166.433783 
L 260.19 166.444785 
L 259.4925 166.458515 
L 258.795 166.474649 
L 258.0975 166.492845 
L 257.4 166.512747 
L 256.7025 166.533986 
L 256.005 166.556183 
L 255.3075 166.578951 
L 254.61 166.601899 
L 253.9125 166.624634 
L 253.215 166.646764 
L 252.5175 166.667903 
L 251.82 166.687669 
L 251.1225 166.705693 
L 250.425 166.721616 
L 249.7275 166.735098 
L 249.03 166.745815 
L 248.3325 166.753465 
L 247.635 166.757772 
L 246.9375 166.758482 
L 246.24 166.755372 
L 245.5425 166.748248 
L 244.845 166.73695 
L 244.1475 166.721349 
L 243.45 166.701353 
L 242.7525 166.676904 
L 242.055 166.647984 
L 241.3575 166.614609 
L 240.66 166.576834 
L 239.9625 166.534752 
L 239.265 166.488493 
L 238.5675 166.438223 
L 237.87 166.384144 
L 237.1725 166.326494 
L 236.475 166.265544 
L 235.7775 166.201594 
L 235.08 166.134978 
L 234.3825 166.066054 
L 233.685 165.995208 
L 232.9875 165.922847 
L 232.29 165.849398 
L 231.5925 165.775307 
L 230.895 165.701033 
L 230.1975 165.627045 
L 229.5 165.553822 
L 228.8025 165.481847 
L 228.105 165.411602 
L 227.4075 165.343571 
L 226.71 165.27823 
L 226.0125 165.216046 
L 225.315 165.157475 
L 224.6175 165.10296 
L 223.92 165.052922 
L 223.2225 165.007765 
L 222.525 164.967867 
L 221.8275 164.933581 
L 221.13 164.905231 
L 220.4325 164.88311 
L 219.735 164.86748 
L 219.0375 164.858568 
L 218.34 164.856564 
L 217.6425 164.861624 
L 216.945 164.873864 
L 216.2475 164.893363 
L 215.55 164.920162 
L 214.8525 164.954261 
L 214.155 164.995623 
L 213.4575 165.044175 
L 212.76 165.099804 
L 212.0625 165.162363 
L 211.365 165.23167 
L 210.6675 165.307508 
L 209.97 165.389631 
L 209.2725 165.477763 
L 208.575 165.5716 
L 207.8775 165.670814 
L 207.18 165.775054 
L 206.4825 165.88395 
L 205.785 165.997115 
L 205.0875 166.114146 
L 204.39 166.234633 
L 203.6925 166.358154 
L 202.995 166.484282 
L 202.2975 166.612591 
L 201.6 166.742651 
L 200.9025 166.87404 
L 200.205 167.006339 
L 199.5075 167.139139 
L 198.81 167.272045 
L 198.1125 167.404672 
L 197.415 167.536654 
L 196.7175 167.667644 
L 196.02 167.797314 
L 195.3225 167.925359 
L 194.625 168.051497 
L 193.9275 168.175472 
L 193.23 168.297053 
L 192.5325 168.416037 
L 191.835 168.532249 
L 191.1375 168.64554 
L 190.44 168.75579 
L 189.7425 168.862907 
L 189.045 168.966827 
L 188.3475 169.067513 
L 187.65 169.164953 
L 186.9525 169.259161 
L 186.255 169.350174 
L 185.5575 169.438055 
L 184.86 169.522883 
L 184.1625 169.604761 
L 183.465 169.683807 
L 182.7675 169.760156 
L 182.07 169.833954 
L 181.3725 169.905363 
L 180.675 169.974551 
L 179.9775 170.041695 
L 179.28 170.106976 
L 178.5825 170.170579 
L 177.885 170.23269 
L 177.1875 170.293491 
L 176.49 170.353165 
L 175.7925 170.411887 
L 175.095 170.469826 
L 174.3975 170.527142 
L 173.7 170.583984 
L 173.0025 170.640493 
L 172.305 170.696792 
L 171.6075 170.752994 
L 170.91 170.809196 
L 170.2125 170.865479 
L 169.515 170.921909 
L 168.8175 170.978536 
L 168.12 171.035391 
L 167.4225 171.092494 
L 166.725 171.149843 
L 166.0275 171.207425 
L 165.33 171.265209 
L 164.6325 171.323154 
L 163.935 171.381201 
L 163.2375 171.439282 
L 162.54 171.497318 
L 161.8425 171.555222 
L 161.145 171.612895 
L 160.4475 171.670237 
L 159.75 171.727139 
L 159.0525 171.783492 
L 158.355 171.839186 
L 157.6575 171.894108 
L 156.96 171.948152 
L 156.2625 172.001213 
L 155.565 172.053193 
L 154.8675 172.104002 
L 154.17 172.153556 
L 153.4725 172.201786 
L 152.775 172.24863 
L 152.0775 172.294042 
L 151.38 172.337989 
L 150.6825 172.380452 
L 149.985 172.421429 
L 149.2875 172.460934 
L 148.59 172.498996 
L 147.8925 172.535663 
L 147.195 172.570998 
L 146.4975 172.605081 
L 145.8 172.638008 
L 145.1025 172.669892 
L 144.405 172.700858 
L 143.7075 172.731047 
L 143.01 172.760612 
L 142.3125 172.789718 
L 141.615 172.818538 
L 140.9175 172.847256 
L 140.22 172.876061 
L 139.5225 172.905146 
L 138.825 172.934708 
L 138.1275 172.964943 
L 137.43 172.996049 
L 136.7325 173.028216 
L 136.035 173.061632 
L 135.3375 173.096475 
L 134.64 173.132914 
L 133.9425 173.171104 
L 133.245 173.211187 
L 132.5475 173.25329 
L 131.85 173.297519 
L 131.1525 173.343963 
L 130.455 173.392688 
L 129.7575 173.443737 
L 129.06 173.497129 
L 128.3625 173.552858 
L 127.665 173.610891 
L 126.9675 173.671168 
L 126.27 173.733603 
L 125.5725 173.798081 
L 124.875 173.864459 
L 124.1775 173.932568 
L 123.48 174.00221 
L 122.7825 174.073162 
L 122.085 174.145175 
L 121.3875 174.217976 
L 120.69 174.29127 
L 119.9925 174.364739 
L 119.295 174.438048 
L 118.5975 174.510841 
L 117.9 174.582751 
L 117.2025 174.653395 
L 116.505 174.722381 
L 115.8075 174.789311 
L 115.11 174.853778 
L 114.4125 174.915376 
L 113.715 174.973701 
L 113.0175 175.028348 
L 112.32 175.078924 
L 111.6225 175.125042 
L 110.925 175.16633 
L 110.2275 175.20243 
L 109.53 175.233003 
L 108.8325 175.257731 
L 108.135 175.276319 
L 107.4375 175.2885 
L 106.74 175.294032 
L 106.0425 175.292706 
L 105.345 175.284345 
L 104.6475 175.268805 
L 103.95 175.245977 
L 103.2525 175.215791 
L 102.555 175.178213 
L 101.8575 175.133245 
L 101.16 175.080931 
L 100.4625 175.021352 
L 99.765 174.954627 
L 99.0675 174.880914 
L 98.37 174.800409 
L 97.6725 174.713341 
L 96.975 174.619978 
L 96.2775 174.520618 
L 95.58 174.415593 
L 94.8825 174.305265 
L 94.185 174.19002 
L 93.4875 174.070272 
L 92.79 173.946456 
L 92.0925 173.819028 
L 91.395 173.688458 
L 90.6975 173.555231 
L 90 173.419843 
z
" style="fill:#e0ffff;"/>
   </g>
   <g id="line2d_19">
    <path clip-path="url(#p67a8d98dfb)" d="M 90 173.419843 
L 95.58 174.415593 
L 99.765 174.954627 
L 103.95 175.245977 
L 108.135 175.276319 
L 112.32 175.078924 
L 117.9 174.582751 
L 130.455 173.392688 
L 138.1275 172.964943 
L 153.4725 172.201786 
L 164.6325 171.323154 
L 184.1625 169.604761 
L 189.7425 168.862907 
L 196.02 167.797314 
L 208.575 165.5716 
L 212.76 165.099804 
L 216.945 164.873864 
L 221.13 164.905231 
L 225.315 165.157475 
L 232.29 165.849398 
L 239.265 166.488493 
L 244.1475 166.721349 
L 249.7275 166.735098 
L 267.165 166.50007 
L 272.0475 166.801671 
L 277.6275 167.401497 
L 285.3 168.499505 
L 306.225 171.585026 
L 319.4775 173.396496 
L 325.0575 173.927051 
L 329.94 174.160241 
L 334.8225 174.153723 
L 340.4025 173.909198 
L 352.26 173.28652 
L 357.1425 173.283775 
L 362.7225 173.528537 
L 376.6725 174.329459 
L 380.8575 174.255836 
L 385.0425 173.934596 
L 389.2275 173.37567 
L 394.11 172.496475 
L 408.7575 169.679866 
L 414.3375 168.925265 
L 420.615 168.309916 
L 432.4725 167.433175 
L 444.33 166.703178 
L 452.0025 166.449066 
L 471.5325 165.963571 
L 489.6675 165.00288 
L 493.8525 165.146985 
L 498.0375 165.544412 
L 502.2225 166.183271 
L 507.8025 167.304286 
L 517.5675 169.347889 
L 522.45 170.103966 
L 526.635 170.537151 
L 531.5175 170.818235 
L 540.585 171.034445 
L 547.56 171.314661 
L 553.8375 171.81061 
L 563.6025 172.875644 
L 571.9725 173.709609 
L 579.645 174.248207 
L 589.41 174.701046 
L 597.78 174.886274 
L 603.36 174.785975 
L 608.2425 174.465428 
L 613.125 173.899367 
L 618.705 172.998888 
L 631.26 170.829691 
L 636.1425 170.286312 
L 641.025 170.001323 
L 646.605 169.92 
L 646.605 169.92 
" style="fill:none;stroke:#008080;stroke-linecap:round;stroke-width:1.75;"/>
   </g>
   <g id="patch_3">
    <path d="M 90 270.72 
L 90 69.12 
" style="fill:none;stroke:#262626;stroke-linecap:square;stroke-linejoin:miter;stroke-width:1.25;"/>
   </g>
   <g id="patch_4">
    <path d="M 90 270.72 
L 648 270.72 
" style="fill:none;stroke:#262626;stroke-linecap:square;stroke-linejoin:miter;stroke-width:1.25;"/>
   </g>
  </g>
  <g id="axes_2">
   <g id="patch_5">
    <path d="M 90 512.64 
L 648 512.64 
L 648 311.04 
L 90 311.04 
z
" style="fill:#ffffff;"/>
   </g>
   <g id="matplotlib.axis_3">
    <g id="xtick_10">
     <g id="line2d_20">
      <g>
       <use style="fill:#262626;stroke:#262626;" x="191.454545" xlink:href="#m160babaf46" y="512.64"/>
      </g>
     </g>
     <g id="text_19">
      <!-- 200 -->
      <g style="fill:#262626;" transform="translate(183.113139 532.797812)scale(0.1 -0.1)">
       <use xlink:href="#ArialMT-32"/>
       <use x="55.615234" xlink:href="#ArialMT-30"/>
       <use x="111.230469" xlink:href="#ArialMT-30"/>
      </g>
     </g>
    </g>
    <g id="xtick_11">
     <g id="line2d_21">
      <g>
       <use style="fill:#262626;stroke:#262626;" x="304.181818" xlink:href="#m160babaf46" y="512.64"/>
      </g>
     </g>
     <g id="text_20">
      <!-- 400 -->
      <g style="fill:#262626;" transform="translate(295.840412 532.797812)scale(0.1 -0.1)">
       <use xlink:href="#ArialMT-34"/>
       <use x="55.615234" xlink:href="#ArialMT-30"/>
       <use x="111.230469" xlink:href="#ArialMT-30"/>
      </g>
     </g>
    </g>
    <g id="xtick_12">
     <g id="line2d_22">
      <g>
       <use style="fill:#262626;stroke:#262626;" x="416.909091" xlink:href="#m160babaf46" y="512.64"/>
      </g>
     </g>
     <g id="text_21">
      <!-- 600 -->
      <g style="fill:#262626;" transform="translate(408.567685 532.797812)scale(0.1 -0.1)">
       <use xlink:href="#ArialMT-36"/>
       <use x="55.615234" xlink:href="#ArialMT-30"/>
       <use x="111.230469" xlink:href="#ArialMT-30"/>
      </g>
     </g>
    </g>
    <g id="xtick_13">
     <g id="line2d_23">
      <g>
       <use style="fill:#262626;stroke:#262626;" x="529.636364" xlink:href="#m160babaf46" y="512.64"/>
      </g>
     </g>
     <g id="text_22">
      <!-- 800 -->
      <g style="fill:#262626;" transform="translate(521.294957 532.797812)scale(0.1 -0.1)">
       <use xlink:href="#ArialMT-38"/>
       <use x="55.615234" xlink:href="#ArialMT-30"/>
       <use x="111.230469" xlink:href="#ArialMT-30"/>
      </g>
     </g>
    </g>
    <g id="xtick_14">
     <g id="line2d_24">
      <g>
       <use style="fill:#262626;stroke:#262626;" x="642.363636" xlink:href="#m160babaf46" y="512.64"/>
      </g>
     </g>
     <g id="text_23">
      <!-- 1000 -->
      <g style="fill:#262626;" transform="translate(631.241761 532.797812)scale(0.1 -0.1)">
       <use xlink:href="#ArialMT-31"/>
       <use x="55.615234" xlink:href="#ArialMT-30"/>
       <use x="111.230469" xlink:href="#ArialMT-30"/>
       <use x="166.845703" xlink:href="#ArialMT-30"/>
      </g>
     </g>
    </g>
   </g>
   <g id="matplotlib.axis_4">
    <g id="ytick_10">
     <g id="line2d_25">
      <g>
       <use style="fill:#262626;stroke:#262626;" x="90" xlink:href="#mb5d5fb993f" y="512.64"/>
      </g>
     </g>
     <g id="text_24">
      <!-- 0 -->
      <g style="fill:#262626;" transform="translate(71.439063 516.218906)scale(0.1 -0.1)">
       <use xlink:href="#ArialMT-30"/>
      </g>
     </g>
    </g>
    <g id="ytick_11">
     <g id="line2d_26">
      <g>
       <use style="fill:#262626;stroke:#262626;" x="90" xlink:href="#mb5d5fb993f" y="487.44"/>
      </g>
     </g>
     <g id="text_25">
      <!-- 5 -->
      <g style="fill:#262626;" transform="translate(71.439063 491.018906)scale(0.1 -0.1)">
       <use xlink:href="#ArialMT-35"/>
      </g>
     </g>
    </g>
    <g id="ytick_12">
     <g id="line2d_27">
      <g>
       <use style="fill:#262626;stroke:#262626;" x="90" xlink:href="#mb5d5fb993f" y="462.24"/>
      </g>
     </g>
     <g id="text_26">
      <!-- 10 -->
      <g style="fill:#262626;" transform="translate(65.878125 465.818906)scale(0.1 -0.1)">
       <use xlink:href="#ArialMT-31"/>
       <use x="55.615234" xlink:href="#ArialMT-30"/>
      </g>
     </g>
    </g>
    <g id="ytick_13">
     <g id="line2d_28">
      <g>
       <use style="fill:#262626;stroke:#262626;" x="90" xlink:href="#mb5d5fb993f" y="437.04"/>
      </g>
     </g>
     <g id="text_27">
      <!-- 15 -->
      <g style="fill:#262626;" transform="translate(65.878125 440.618906)scale(0.1 -0.1)">
       <use xlink:href="#ArialMT-31"/>
       <use x="55.615234" xlink:href="#ArialMT-35"/>
      </g>
     </g>
    </g>
    <g id="ytick_14">
     <g id="line2d_29">
      <g>
       <use style="fill:#262626;stroke:#262626;" x="90" xlink:href="#mb5d5fb993f" y="411.84"/>
      </g>
     </g>
     <g id="text_28">
      <!-- 20 -->
      <g style="fill:#262626;" transform="translate(65.878125 415.418906)scale(0.1 -0.1)">
       <use xlink:href="#ArialMT-32"/>
       <use x="55.615234" xlink:href="#ArialMT-30"/>
      </g>
     </g>
    </g>
    <g id="ytick_15">
     <g id="line2d_30">
      <g>
       <use style="fill:#262626;stroke:#262626;" x="90" xlink:href="#mb5d5fb993f" y="386.64"/>
      </g>
     </g>
     <g id="text_29">
      <!-- 25 -->
      <g style="fill:#262626;" transform="translate(65.878125 390.218906)scale(0.1 -0.1)">
       <use xlink:href="#ArialMT-32"/>
       <use x="55.615234" xlink:href="#ArialMT-35"/>
      </g>
     </g>
    </g>
    <g id="ytick_16">
     <g id="line2d_31">
      <g>
       <use style="fill:#262626;stroke:#262626;" x="90" xlink:href="#mb5d5fb993f" y="361.44"/>
      </g>
     </g>
     <g id="text_30">
      <!-- 30 -->
      <g style="fill:#262626;" transform="translate(65.878125 365.018906)scale(0.1 -0.1)">
       <use xlink:href="#ArialMT-33"/>
       <use x="55.615234" xlink:href="#ArialMT-30"/>
      </g>
     </g>
    </g>
    <g id="ytick_17">
     <g id="line2d_32">
      <g>
       <use style="fill:#262626;stroke:#262626;" x="90" xlink:href="#mb5d5fb993f" y="336.24"/>
      </g>
     </g>
     <g id="text_31">
      <!-- 35 -->
      <g style="fill:#262626;" transform="translate(65.878125 339.818906)scale(0.1 -0.1)">
       <use xlink:href="#ArialMT-33"/>
       <use x="55.615234" xlink:href="#ArialMT-35"/>
      </g>
     </g>
    </g>
    <g id="ytick_18">
     <g id="line2d_33">
      <g>
       <use style="fill:#262626;stroke:#262626;" x="90" xlink:href="#mb5d5fb993f" y="311.04"/>
      </g>
     </g>
     <g id="text_32">
      <!-- 40 -->
      <g style="fill:#262626;" transform="translate(65.878125 314.618906)scale(0.1 -0.1)">
       <use xlink:href="#ArialMT-34"/>
       <use x="55.615234" xlink:href="#ArialMT-30"/>
      </g>
     </g>
    </g>
   </g>
   <g id="line2d_34">
    <path clip-path="url(#p618a2a0411)" d="M 90 488.562059 
L 95.636364 492.871917 
L 101.272727 491.915277 
L 106.909091 490.291312 
L 112.545455 492.192009 
L 118.181818 490.692663 
L 123.818182 490.203121 
L 129.454545 491.968658 
L 135.090909 490.163889 
L 140.727273 490.392837 
L 146.363636 490.241829 
L 152 489.156296 
" style="fill:none;stroke:#b22222;stroke-linecap:round;stroke-width:1.75;"/>
   </g>
   <g id="patch_6">
    <path d="M 90 512.64 
L 90 311.04 
" style="fill:none;stroke:#262626;stroke-linecap:square;stroke-linejoin:miter;stroke-width:1.25;"/>
   </g>
   <g id="patch_7">
    <path d="M 90 512.64 
L 648 512.64 
" style="fill:none;stroke:#262626;stroke-linecap:square;stroke-linejoin:miter;stroke-width:1.25;"/>
   </g>
   <g id="text_33">
    <!-- f = 130 Hz -->
    <defs>
     <path d="M 8.6875 0 
L 8.6875 45.015625 
L 0.921875 45.015625 
L 0.921875 51.859375 
L 8.6875 51.859375 
L 8.6875 57.375 
Q 8.6875 62.59375 9.625 65.140625 
Q 10.890625 68.5625 14.078125 70.671875 
Q 17.28125 72.796875 23.046875 72.796875 
Q 26.765625 72.796875 31.25 71.921875 
L 29.9375 64.265625 
Q 27.203125 64.75 24.75 64.75 
Q 20.75 64.75 19.09375 63.03125 
Q 17.4375 61.328125 17.4375 56.640625 
L 17.4375 51.859375 
L 27.546875 51.859375 
L 27.546875 45.015625 
L 17.4375 45.015625 
L 17.4375 0 
z
" id="ArialMT-66"/>
     <path id="ArialMT-20"/>
     <path d="M 52.828125 42.09375 
L 5.5625 42.09375 
L 5.5625 50.296875 
L 52.828125 50.296875 
z
M 52.828125 20.359375 
L 5.5625 20.359375 
L 5.5625 28.5625 
L 52.828125 28.5625 
z
" id="ArialMT-3d"/>
     <path d="M 8.015625 0 
L 8.015625 71.578125 
L 17.484375 71.578125 
L 17.484375 42.1875 
L 54.6875 42.1875 
L 54.6875 71.578125 
L 64.15625 71.578125 
L 64.15625 0 
L 54.6875 0 
L 54.6875 33.734375 
L 17.484375 33.734375 
L 17.484375 0 
z
" id="ArialMT-48"/>
     <path d="M 1.953125 0 
L 1.953125 7.125 
L 34.96875 45.015625 
Q 29.34375 44.734375 25.046875 44.734375 
L 3.90625 44.734375 
L 3.90625 51.859375 
L 46.296875 51.859375 
L 46.296875 46.046875 
L 18.21875 13.140625 
L 12.796875 7.125 
Q 18.703125 7.5625 23.875 7.5625 
L 47.859375 7.5625 
L 47.859375 0 
z
" id="ArialMT-7a"/>
    </defs>
    <g style="fill:#262626;" transform="translate(529.636364 364.542187)scale(0.12 -0.12)">
     <use xlink:href="#ArialMT-66"/>
     <use x="27.783203" xlink:href="#ArialMT-20"/>
     <use x="55.566406" xlink:href="#ArialMT-3d"/>
     <use x="113.964844" xlink:href="#ArialMT-20"/>
     <use x="141.748047" xlink:href="#ArialMT-31"/>
     <use x="197.363281" xlink:href="#ArialMT-33"/>
     <use x="252.978516" xlink:href="#ArialMT-30"/>
     <use x="308.59375" xlink:href="#ArialMT-20"/>
     <use x="336.376953" xlink:href="#ArialMT-48"/>
     <use x="408.59375" xlink:href="#ArialMT-7a"/>
    </g>
   </g>
   <g id="PathCollection_1">
    <defs>
     <path d="M 0 3.5 
C 0.928211 3.5 1.81853 3.131218 2.474874 2.474874 
C 3.131218 1.81853 3.5 0.928211 3.5 0 
C 3.5 -0.928211 3.131218 -1.81853 2.474874 -2.474874 
C 1.81853 -3.131218 0.928211 -3.5 0 -3.5 
C -0.928211 -3.5 -1.81853 -3.131218 -2.474874 -2.474874 
C -3.131218 -1.81853 -3.5 -0.928211 -3.5 0 
C -3.5 0.928211 -3.131218 1.81853 -2.474874 2.474874 
C -1.81853 3.131218 -0.928211 3.5 0 3.5 
z
" id="m6c05b10e40" style="stroke:#800000;stroke-width:0.3;"/>
    </defs>
    <g clip-path="url(#p618a2a0411)">
     <use style="fill:#800000;stroke:#800000;stroke-width:0.3;" x="152" xlink:href="#m6c05b10e40" y="489.156296"/>
    </g>
   </g>
  </g>
 </g>
 <defs>
  <clipPath id="p67a8d98dfb">
   <rect height="201.6" width="558" x="90" y="69.12"/>
  </clipPath>
  <clipPath id="p618a2a0411">
   <rect height="201.6" width="558" x="90" y="311.04"/>
  </clipPath>
 </defs>
</svg>
