<?xml version="1.0" encoding="utf-8" standalone="no"?>
<!DOCTYPE svg PUBLIC "-//W3C//DTD SVG 1.1//EN"
  "http://www.w3.org/Graphics/SVG/1.1/DTD/svg11.dtd">
<!-- Created with matplotlib (http://matplotlib.org/) -->
<svg height="576pt" version="1.1" viewBox="0 0 720 576" width="720pt" xmlns="http://www.w3.org/2000/svg" xmlns:xlink="http://www.w3.org/1999/xlink">
 <defs>
  <style type="text/css">
*{stroke-linecap:butt;stroke-linejoin:round;}
  </style>
 </defs>
 <g id="figure_1">
  <g id="patch_1">
   <path d="M 0 576 
L 720 576 
L 720 0 
L 0 0 
z
" style="fill:#ffffff;"/>
  </g>
  <g id="axes_1">
   <g id="patch_2">
    <path d="M 90 270.72 
L 648 270.72 
L 648 69.12 
L 90 69.12 
z
" style="fill:#ffffff;"/>
   </g>
   <g id="matplotlib.axis_1">
    <g id="xtick_1">
     <g id="line2d_1">
      <defs>
       <path d="M 0 0 
L 0 6 
" id="m81633e13ab" style="stroke:#262626;"/>
      </defs>
      <g>
       <use style="fill:#262626;stroke:#262626;" x="90" xlink:href="#m81633e13ab" y="270.72"/>
      </g>
     </g>
     <g id="text_1">
      <!-- 0 -->
      <defs>
       <path d="M 4.15625 35.296875 
Q 4.15625 48 6.765625 55.734375 
Q 9.375 63.484375 14.515625 67.671875 
Q 19.671875 71.875 27.484375 71.875 
Q 33.25 71.875 37.59375 69.546875 
Q 41.9375 67.234375 44.765625 62.859375 
Q 47.609375 58.5 49.21875 52.21875 
Q 50.828125 45.953125 50.828125 35.296875 
Q 50.828125 22.703125 48.234375 14.96875 
Q 45.65625 7.234375 40.5 3 
Q 35.359375 -1.21875 27.484375 -1.21875 
Q 17.140625 -1.21875 11.234375 6.203125 
Q 4.15625 15.140625 4.15625 35.296875 
z
M 13.1875 35.296875 
Q 13.1875 17.671875 17.3125 11.828125 
Q 21.4375 6 27.484375 6 
Q 33.546875 6 37.671875 11.859375 
Q 41.796875 17.71875 41.796875 35.296875 
Q 41.796875 52.984375 37.671875 58.78125 
Q 33.546875 64.59375 27.390625 64.59375 
Q 21.34375 64.59375 17.71875 59.46875 
Q 13.1875 52.9375 13.1875 35.296875 
z
" id="ArialMT-30"/>
      </defs>
      <g style="fill:#262626;" transform="translate(87.219531 290.877812)scale(0.1 -0.1)">
       <use xlink:href="#ArialMT-30"/>
      </g>
     </g>
    </g>
    <g id="xtick_2">
     <g id="line2d_2">
      <g>
       <use style="fill:#262626;stroke:#262626;" x="159.75" xlink:href="#m81633e13ab" y="270.72"/>
      </g>
     </g>
     <g id="text_2">
      <!-- 100 -->
      <defs>
       <path d="M 37.25 0 
L 28.46875 0 
L 28.46875 56 
Q 25.296875 52.984375 20.140625 49.953125 
Q 14.984375 46.921875 10.890625 45.40625 
L 10.890625 53.90625 
Q 18.265625 57.375 23.78125 62.296875 
Q 29.296875 67.234375 31.59375 71.875 
L 37.25 71.875 
z
" id="ArialMT-31"/>
      </defs>
      <g style="fill:#262626;" transform="translate(151.408594 290.877812)scale(0.1 -0.1)">
       <use xlink:href="#ArialMT-31"/>
       <use x="55.615234" xlink:href="#ArialMT-30"/>
       <use x="111.230469" xlink:href="#ArialMT-30"/>
      </g>
     </g>
    </g>
    <g id="xtick_3">
     <g id="line2d_3">
      <g>
       <use style="fill:#262626;stroke:#262626;" x="229.5" xlink:href="#m81633e13ab" y="270.72"/>
      </g>
     </g>
     <g id="text_3">
      <!-- 200 -->
      <defs>
       <path d="M 50.34375 8.453125 
L 50.34375 0 
L 3.03125 0 
Q 2.9375 3.171875 4.046875 6.109375 
Q 5.859375 10.9375 9.828125 15.625 
Q 13.8125 20.3125 21.34375 26.46875 
Q 33.015625 36.03125 37.109375 41.625 
Q 41.21875 47.21875 41.21875 52.203125 
Q 41.21875 57.421875 37.46875 61 
Q 33.734375 64.59375 27.734375 64.59375 
Q 21.390625 64.59375 17.578125 60.78125 
Q 13.765625 56.984375 13.71875 50.25 
L 4.6875 51.171875 
Q 5.609375 61.28125 11.65625 66.578125 
Q 17.71875 71.875 27.9375 71.875 
Q 38.234375 71.875 44.234375 66.15625 
Q 50.25 60.453125 50.25 52 
Q 50.25 47.703125 48.484375 43.546875 
Q 46.734375 39.40625 42.65625 34.8125 
Q 38.578125 30.21875 29.109375 22.21875 
Q 21.1875 15.578125 18.9375 13.203125 
Q 16.703125 10.84375 15.234375 8.453125 
z
" id="ArialMT-32"/>
      </defs>
      <g style="fill:#262626;" transform="translate(221.158594 290.877812)scale(0.1 -0.1)">
       <use xlink:href="#ArialMT-32"/>
       <use x="55.615234" xlink:href="#ArialMT-30"/>
       <use x="111.230469" xlink:href="#ArialMT-30"/>
      </g>
     </g>
    </g>
    <g id="xtick_4">
     <g id="line2d_4">
      <g>
       <use style="fill:#262626;stroke:#262626;" x="299.25" xlink:href="#m81633e13ab" y="270.72"/>
      </g>
     </g>
     <g id="text_4">
      <!-- 300 -->
      <defs>
       <path d="M 4.203125 18.890625 
L 12.984375 20.0625 
Q 14.5 12.59375 18.140625 9.296875 
Q 21.78125 6 27 6 
Q 33.203125 6 37.46875 10.296875 
Q 41.75 14.59375 41.75 20.953125 
Q 41.75 27 37.796875 30.921875 
Q 33.84375 34.859375 27.734375 34.859375 
Q 25.25 34.859375 21.53125 33.890625 
L 22.515625 41.609375 
Q 23.390625 41.5 23.921875 41.5 
Q 29.546875 41.5 34.03125 44.421875 
Q 38.53125 47.359375 38.53125 53.46875 
Q 38.53125 58.296875 35.25 61.46875 
Q 31.984375 64.65625 26.8125 64.65625 
Q 21.6875 64.65625 18.265625 61.421875 
Q 14.84375 58.203125 13.875 51.765625 
L 5.078125 53.328125 
Q 6.6875 62.15625 12.390625 67.015625 
Q 18.109375 71.875 26.609375 71.875 
Q 32.46875 71.875 37.390625 69.359375 
Q 42.328125 66.84375 44.9375 62.5 
Q 47.5625 58.15625 47.5625 53.265625 
Q 47.5625 48.640625 45.0625 44.828125 
Q 42.578125 41.015625 37.703125 38.765625 
Q 44.046875 37.3125 47.5625 32.6875 
Q 51.078125 28.078125 51.078125 21.140625 
Q 51.078125 11.765625 44.234375 5.25 
Q 37.40625 -1.265625 26.953125 -1.265625 
Q 17.53125 -1.265625 11.296875 4.34375 
Q 5.078125 9.96875 4.203125 18.890625 
z
" id="ArialMT-33"/>
      </defs>
      <g style="fill:#262626;" transform="translate(290.908594 290.877812)scale(0.1 -0.1)">
       <use xlink:href="#ArialMT-33"/>
       <use x="55.615234" xlink:href="#ArialMT-30"/>
       <use x="111.230469" xlink:href="#ArialMT-30"/>
      </g>
     </g>
    </g>
    <g id="xtick_5">
     <g id="line2d_5">
      <g>
       <use style="fill:#262626;stroke:#262626;" x="369" xlink:href="#m81633e13ab" y="270.72"/>
      </g>
     </g>
     <g id="text_5">
      <!-- 400 -->
      <defs>
       <path d="M 32.328125 0 
L 32.328125 17.140625 
L 1.265625 17.140625 
L 1.265625 25.203125 
L 33.9375 71.578125 
L 41.109375 71.578125 
L 41.109375 25.203125 
L 50.78125 25.203125 
L 50.78125 17.140625 
L 41.109375 17.140625 
L 41.109375 0 
z
M 32.328125 25.203125 
L 32.328125 57.46875 
L 9.90625 25.203125 
z
" id="ArialMT-34"/>
      </defs>
      <g style="fill:#262626;" transform="translate(360.658594 290.877812)scale(0.1 -0.1)">
       <use xlink:href="#ArialMT-34"/>
       <use x="55.615234" xlink:href="#ArialMT-30"/>
       <use x="111.230469" xlink:href="#ArialMT-30"/>
      </g>
     </g>
    </g>
    <g id="xtick_6">
     <g id="line2d_6">
      <g>
       <use style="fill:#262626;stroke:#262626;" x="438.75" xlink:href="#m81633e13ab" y="270.72"/>
      </g>
     </g>
     <g id="text_6">
      <!-- 500 -->
      <defs>
       <path d="M 4.15625 18.75 
L 13.375 19.53125 
Q 14.40625 12.796875 18.140625 9.390625 
Q 21.875 6 27.15625 6 
Q 33.5 6 37.890625 10.78125 
Q 42.28125 15.578125 42.28125 23.484375 
Q 42.28125 31 38.0625 35.34375 
Q 33.84375 39.703125 27 39.703125 
Q 22.75 39.703125 19.328125 37.765625 
Q 15.921875 35.84375 13.96875 32.765625 
L 5.71875 33.84375 
L 12.640625 70.609375 
L 48.25 70.609375 
L 48.25 62.203125 
L 19.671875 62.203125 
L 15.828125 42.96875 
Q 22.265625 47.46875 29.34375 47.46875 
Q 38.71875 47.46875 45.15625 40.96875 
Q 51.609375 34.46875 51.609375 24.265625 
Q 51.609375 14.546875 45.953125 7.46875 
Q 39.0625 -1.21875 27.15625 -1.21875 
Q 17.390625 -1.21875 11.203125 4.25 
Q 5.03125 9.71875 4.15625 18.75 
z
" id="ArialMT-35"/>
      </defs>
      <g style="fill:#262626;" transform="translate(430.408594 290.877812)scale(0.1 -0.1)">
       <use xlink:href="#ArialMT-35"/>
       <use x="55.615234" xlink:href="#ArialMT-30"/>
       <use x="111.230469" xlink:href="#ArialMT-30"/>
      </g>
     </g>
    </g>
    <g id="xtick_7">
     <g id="line2d_7">
      <g>
       <use style="fill:#262626;stroke:#262626;" x="508.5" xlink:href="#m81633e13ab" y="270.72"/>
      </g>
     </g>
     <g id="text_7">
      <!-- 600 -->
      <defs>
       <path d="M 49.75 54.046875 
L 41.015625 53.375 
Q 39.84375 58.546875 37.703125 60.890625 
Q 34.125 64.65625 28.90625 64.65625 
Q 24.703125 64.65625 21.53125 62.3125 
Q 17.390625 59.28125 14.984375 53.46875 
Q 12.59375 47.65625 12.5 36.921875 
Q 15.671875 41.75 20.265625 44.09375 
Q 24.859375 46.4375 29.890625 46.4375 
Q 38.671875 46.4375 44.84375 39.96875 
Q 51.03125 33.5 51.03125 23.25 
Q 51.03125 16.5 48.125 10.71875 
Q 45.21875 4.9375 40.140625 1.859375 
Q 35.0625 -1.21875 28.609375 -1.21875 
Q 17.625 -1.21875 10.6875 6.859375 
Q 3.765625 14.9375 3.765625 33.5 
Q 3.765625 54.25 11.421875 63.671875 
Q 18.109375 71.875 29.4375 71.875 
Q 37.890625 71.875 43.28125 67.140625 
Q 48.6875 62.40625 49.75 54.046875 
z
M 13.875 23.1875 
Q 13.875 18.65625 15.796875 14.5 
Q 17.71875 10.359375 21.1875 8.171875 
Q 24.65625 6 28.46875 6 
Q 34.03125 6 38.03125 10.484375 
Q 42.046875 14.984375 42.046875 22.703125 
Q 42.046875 30.125 38.078125 34.390625 
Q 34.125 38.671875 28.125 38.671875 
Q 22.171875 38.671875 18.015625 34.390625 
Q 13.875 30.125 13.875 23.1875 
z
" id="ArialMT-36"/>
      </defs>
      <g style="fill:#262626;" transform="translate(500.158594 290.877812)scale(0.1 -0.1)">
       <use xlink:href="#ArialMT-36"/>
       <use x="55.615234" xlink:href="#ArialMT-30"/>
       <use x="111.230469" xlink:href="#ArialMT-30"/>
      </g>
     </g>
    </g>
    <g id="xtick_8">
     <g id="line2d_8">
      <g>
       <use style="fill:#262626;stroke:#262626;" x="578.25" xlink:href="#m81633e13ab" y="270.72"/>
      </g>
     </g>
     <g id="text_8">
      <!-- 700 -->
      <defs>
       <path d="M 4.734375 62.203125 
L 4.734375 70.65625 
L 51.078125 70.65625 
L 51.078125 63.8125 
Q 44.234375 56.546875 37.515625 44.484375 
Q 30.8125 32.421875 27.15625 19.671875 
Q 24.515625 10.6875 23.78125 0 
L 14.75 0 
Q 14.890625 8.453125 18.0625 20.40625 
Q 21.234375 32.375 27.171875 43.484375 
Q 33.109375 54.59375 39.796875 62.203125 
z
" id="ArialMT-37"/>
      </defs>
      <g style="fill:#262626;" transform="translate(569.908594 290.877812)scale(0.1 -0.1)">
       <use xlink:href="#ArialMT-37"/>
       <use x="55.615234" xlink:href="#ArialMT-30"/>
       <use x="111.230469" xlink:href="#ArialMT-30"/>
      </g>
     </g>
    </g>
    <g id="xtick_9">
     <g id="line2d_9">
      <g>
       <use style="fill:#262626;stroke:#262626;" x="648" xlink:href="#m81633e13ab" y="270.72"/>
      </g>
     </g>
     <g id="text_9">
      <!-- 800 -->
      <defs>
       <path d="M 17.671875 38.8125 
Q 12.203125 40.828125 9.5625 44.53125 
Q 6.9375 48.25 6.9375 53.421875 
Q 6.9375 61.234375 12.546875 66.546875 
Q 18.171875 71.875 27.484375 71.875 
Q 36.859375 71.875 42.578125 66.421875 
Q 48.296875 60.984375 48.296875 53.171875 
Q 48.296875 48.1875 45.671875 44.5 
Q 43.0625 40.828125 37.75 38.8125 
Q 44.34375 36.671875 47.78125 31.875 
Q 51.21875 27.09375 51.21875 20.453125 
Q 51.21875 11.28125 44.71875 5.03125 
Q 38.234375 -1.21875 27.640625 -1.21875 
Q 17.046875 -1.21875 10.546875 5.046875 
Q 4.046875 11.328125 4.046875 20.703125 
Q 4.046875 27.6875 7.59375 32.390625 
Q 11.140625 37.109375 17.671875 38.8125 
z
M 15.921875 53.71875 
Q 15.921875 48.640625 19.1875 45.40625 
Q 22.46875 42.1875 27.6875 42.1875 
Q 32.765625 42.1875 36.015625 45.375 
Q 39.265625 48.578125 39.265625 53.21875 
Q 39.265625 58.0625 35.90625 61.359375 
Q 32.5625 64.65625 27.59375 64.65625 
Q 22.5625 64.65625 19.234375 61.421875 
Q 15.921875 58.203125 15.921875 53.71875 
z
M 13.09375 20.65625 
Q 13.09375 16.890625 14.875 13.375 
Q 16.65625 9.859375 20.171875 7.921875 
Q 23.6875 6 27.734375 6 
Q 34.03125 6 38.125 10.046875 
Q 42.234375 14.109375 42.234375 20.359375 
Q 42.234375 26.703125 38.015625 30.859375 
Q 33.796875 35.015625 27.4375 35.015625 
Q 21.234375 35.015625 17.15625 30.90625 
Q 13.09375 26.8125 13.09375 20.65625 
z
" id="ArialMT-38"/>
      </defs>
      <g style="fill:#262626;" transform="translate(639.658594 290.877812)scale(0.1 -0.1)">
       <use xlink:href="#ArialMT-38"/>
       <use x="55.615234" xlink:href="#ArialMT-30"/>
       <use x="111.230469" xlink:href="#ArialMT-30"/>
      </g>
     </g>
    </g>
   </g>
   <g id="matplotlib.axis_2">
    <g id="ytick_1">
     <g id="line2d_10">
      <defs>
       <path d="M 0 0 
L -6 0 
" id="m281314781f" style="stroke:#262626;"/>
      </defs>
      <g>
       <use style="fill:#262626;stroke:#262626;" x="90" xlink:href="#m281314781f" y="270.72"/>
      </g>
     </g>
     <g id="text_10">
      <!-- −0.20 -->
      <defs>
       <path d="M 52.828125 31.203125 
L 5.5625 31.203125 
L 5.5625 39.40625 
L 52.828125 39.40625 
z
" id="ArialMT-2212"/>
       <path d="M 9.078125 0 
L 9.078125 10.015625 
L 19.09375 10.015625 
L 19.09375 0 
z
" id="ArialMT-2e"/>
      </defs>
      <g style="fill:#262626;" transform="translate(51.698437 274.298906)scale(0.1 -0.1)">
       <use xlink:href="#ArialMT-2212"/>
       <use x="58.398438" xlink:href="#ArialMT-30"/>
       <use x="114.013672" xlink:href="#ArialMT-2e"/>
       <use x="141.796875" xlink:href="#ArialMT-32"/>
       <use x="197.412109" xlink:href="#ArialMT-30"/>
      </g>
     </g>
    </g>
    <g id="ytick_2">
     <g id="line2d_11">
      <g>
       <use style="fill:#262626;stroke:#262626;" x="90" xlink:href="#m281314781f" y="245.52"/>
      </g>
     </g>
     <g id="text_11">
      <!-- −0.15 -->
      <g style="fill:#262626;" transform="translate(51.698437 249.098906)scale(0.1 -0.1)">
       <use xlink:href="#ArialMT-2212"/>
       <use x="58.398438" xlink:href="#ArialMT-30"/>
       <use x="114.013672" xlink:href="#ArialMT-2e"/>
       <use x="141.796875" xlink:href="#ArialMT-31"/>
       <use x="197.412109" xlink:href="#ArialMT-35"/>
      </g>
     </g>
    </g>
    <g id="ytick_3">
     <g id="line2d_12">
      <g>
       <use style="fill:#262626;stroke:#262626;" x="90" xlink:href="#m281314781f" y="220.32"/>
      </g>
     </g>
     <g id="text_12">
      <!-- −0.10 -->
      <g style="fill:#262626;" transform="translate(51.698437 223.898906)scale(0.1 -0.1)">
       <use xlink:href="#ArialMT-2212"/>
       <use x="58.398438" xlink:href="#ArialMT-30"/>
       <use x="114.013672" xlink:href="#ArialMT-2e"/>
       <use x="141.796875" xlink:href="#ArialMT-31"/>
       <use x="197.412109" xlink:href="#ArialMT-30"/>
      </g>
     </g>
    </g>
    <g id="ytick_4">
     <g id="line2d_13">
      <g>
       <use style="fill:#262626;stroke:#262626;" x="90" xlink:href="#m281314781f" y="195.12"/>
      </g>
     </g>
     <g id="text_13">
      <!-- −0.05 -->
      <g style="fill:#262626;" transform="translate(51.698437 198.698906)scale(0.1 -0.1)">
       <use xlink:href="#ArialMT-2212"/>
       <use x="58.398438" xlink:href="#ArialMT-30"/>
       <use x="114.013672" xlink:href="#ArialMT-2e"/>
       <use x="141.796875" xlink:href="#ArialMT-30"/>
       <use x="197.412109" xlink:href="#ArialMT-35"/>
      </g>
     </g>
    </g>
    <g id="ytick_5">
     <g id="line2d_14">
      <g>
       <use style="fill:#262626;stroke:#262626;" x="90" xlink:href="#m281314781f" y="169.92"/>
      </g>
     </g>
     <g id="text_14">
      <!-- 0.00 -->
      <g style="fill:#262626;" transform="translate(57.539062 173.498906)scale(0.1 -0.1)">
       <use xlink:href="#ArialMT-30"/>
       <use x="55.615234" xlink:href="#ArialMT-2e"/>
       <use x="83.398438" xlink:href="#ArialMT-30"/>
       <use x="139.013672" xlink:href="#ArialMT-30"/>
      </g>
     </g>
    </g>
    <g id="ytick_6">
     <g id="line2d_15">
      <g>
       <use style="fill:#262626;stroke:#262626;" x="90" xlink:href="#m281314781f" y="144.72"/>
      </g>
     </g>
     <g id="text_15">
      <!-- 0.05 -->
      <g style="fill:#262626;" transform="translate(57.539062 148.298906)scale(0.1 -0.1)">
       <use xlink:href="#ArialMT-30"/>
       <use x="55.615234" xlink:href="#ArialMT-2e"/>
       <use x="83.398438" xlink:href="#ArialMT-30"/>
       <use x="139.013672" xlink:href="#ArialMT-35"/>
      </g>
     </g>
    </g>
    <g id="ytick_7">
     <g id="line2d_16">
      <g>
       <use style="fill:#262626;stroke:#262626;" x="90" xlink:href="#m281314781f" y="119.52"/>
      </g>
     </g>
     <g id="text_16">
      <!-- 0.10 -->
      <g style="fill:#262626;" transform="translate(57.539062 123.098906)scale(0.1 -0.1)">
       <use xlink:href="#ArialMT-30"/>
       <use x="55.615234" xlink:href="#ArialMT-2e"/>
       <use x="83.398438" xlink:href="#ArialMT-31"/>
       <use x="139.013672" xlink:href="#ArialMT-30"/>
      </g>
     </g>
    </g>
    <g id="ytick_8">
     <g id="line2d_17">
      <g>
       <use style="fill:#262626;stroke:#262626;" x="90" xlink:href="#m281314781f" y="94.32"/>
      </g>
     </g>
     <g id="text_17">
      <!-- 0.15 -->
      <g style="fill:#262626;" transform="translate(57.539062 97.898906)scale(0.1 -0.1)">
       <use xlink:href="#ArialMT-30"/>
       <use x="55.615234" xlink:href="#ArialMT-2e"/>
       <use x="83.398438" xlink:href="#ArialMT-31"/>
       <use x="139.013672" xlink:href="#ArialMT-35"/>
      </g>
     </g>
    </g>
    <g id="ytick_9">
     <g id="line2d_18">
      <g>
       <use style="fill:#262626;stroke:#262626;" x="90" xlink:href="#m281314781f" y="69.12"/>
      </g>
     </g>
     <g id="text_18">
      <!-- 0.20 -->
      <g style="fill:#262626;" transform="translate(57.539062 72.698906)scale(0.1 -0.1)">
       <use xlink:href="#ArialMT-30"/>
       <use x="55.615234" xlink:href="#ArialMT-2e"/>
       <use x="83.398438" xlink:href="#ArialMT-32"/>
       <use x="139.013672" xlink:href="#ArialMT-30"/>
      </g>
     </g>
    </g>
   </g>
   <g id="PolyCollection_1">
    <path clip-path="url(#pf084e4b59a)" d="M 90 170.186866 
L 90 169.92 
L 90.6975 169.92 
L 91.395 169.92 
L 92.0925 169.92 
L 92.79 169.92 
L 93.4875 169.92 
L 94.185 169.92 
L 94.8825 169.92 
L 95.58 169.92 
L 96.2775 169.92 
L 96.975 169.92 
L 97.6725 169.92 
L 98.37 169.92 
L 99.0675 169.92 
L 99.765 169.92 
L 100.4625 169.92 
L 101.16 169.92 
L 101.8575 169.92 
L 102.555 169.92 
L 103.2525 169.92 
L 103.95 169.92 
L 104.6475 169.92 
L 105.345 169.92 
L 106.0425 169.92 
L 106.74 169.92 
L 107.4375 169.92 
L 108.135 169.92 
L 108.8325 169.92 
L 109.53 169.92 
L 110.2275 169.92 
L 110.925 169.92 
L 111.6225 169.92 
L 112.32 169.92 
L 113.0175 169.92 
L 113.715 169.92 
L 114.4125 169.92 
L 115.11 169.92 
L 115.8075 169.92 
L 116.505 169.92 
L 117.2025 169.92 
L 117.9 169.92 
L 118.5975 169.92 
L 119.295 169.92 
L 119.9925 169.92 
L 120.69 169.92 
L 121.3875 169.92 
L 122.085 169.92 
L 122.7825 169.92 
L 123.48 169.92 
L 124.1775 169.92 
L 124.875 169.92 
L 125.5725 169.92 
L 126.27 169.92 
L 126.9675 169.92 
L 127.665 169.92 
L 128.3625 169.92 
L 129.06 169.92 
L 129.7575 169.92 
L 130.455 169.92 
L 131.1525 169.92 
L 131.85 169.92 
L 132.5475 169.92 
L 133.245 169.92 
L 133.9425 169.92 
L 134.64 169.92 
L 135.3375 169.92 
L 136.035 169.92 
L 136.7325 169.92 
L 137.43 169.92 
L 138.1275 169.92 
L 138.825 169.92 
L 139.5225 169.92 
L 140.22 169.92 
L 140.9175 169.92 
L 141.615 169.92 
L 142.3125 169.92 
L 143.01 169.92 
L 143.7075 169.92 
L 144.405 169.92 
L 145.1025 169.92 
L 145.8 169.92 
L 146.4975 169.92 
L 147.195 169.92 
L 147.8925 169.92 
L 148.59 169.92 
L 149.2875 169.92 
L 149.985 169.92 
L 150.6825 169.92 
L 151.38 169.92 
L 152.0775 169.92 
L 152.775 169.92 
L 153.4725 169.92 
L 154.17 169.92 
L 154.8675 169.92 
L 155.565 169.92 
L 156.2625 169.92 
L 156.96 169.92 
L 157.6575 169.92 
L 158.355 169.92 
L 159.0525 169.92 
L 159.75 169.92 
L 160.4475 169.92 
L 161.145 169.92 
L 161.8425 169.92 
L 162.54 169.92 
L 163.2375 169.92 
L 163.935 169.92 
L 164.6325 169.92 
L 165.33 169.92 
L 166.0275 169.92 
L 166.725 169.92 
L 167.4225 169.92 
L 168.12 169.92 
L 168.8175 169.92 
L 169.515 169.92 
L 170.2125 169.92 
L 170.91 169.92 
L 171.6075 169.92 
L 172.305 169.92 
L 173.0025 169.92 
L 173.7 169.92 
L 174.3975 169.92 
L 175.095 169.92 
L 175.7925 169.92 
L 176.49 169.92 
L 177.1875 169.92 
L 177.885 169.92 
L 178.5825 169.92 
L 179.28 169.92 
L 179.9775 169.92 
L 180.675 169.92 
L 181.3725 169.92 
L 182.07 169.92 
L 182.7675 169.92 
L 183.465 169.92 
L 184.1625 169.92 
L 184.86 169.92 
L 185.5575 169.92 
L 186.255 169.92 
L 186.9525 169.92 
L 187.65 169.92 
L 188.3475 169.92 
L 189.045 169.92 
L 189.7425 169.92 
L 190.44 169.92 
L 191.1375 169.92 
L 191.835 169.92 
L 192.5325 169.92 
L 193.23 169.92 
L 193.9275 169.92 
L 194.625 169.92 
L 195.3225 169.92 
L 196.02 169.92 
L 196.7175 169.92 
L 197.415 169.92 
L 198.1125 169.92 
L 198.81 169.92 
L 199.5075 169.92 
L 200.205 169.92 
L 200.9025 169.92 
L 201.6 169.92 
L 202.2975 169.92 
L 202.995 169.92 
L 203.6925 169.92 
L 204.39 169.92 
L 205.0875 169.92 
L 205.785 169.92 
L 206.4825 169.92 
L 207.18 169.92 
L 207.8775 169.92 
L 208.575 169.92 
L 209.2725 169.92 
L 209.97 169.92 
L 210.6675 169.92 
L 211.365 169.92 
L 212.0625 169.92 
L 212.76 169.92 
L 213.4575 169.92 
L 214.155 169.92 
L 214.8525 169.92 
L 215.55 169.92 
L 216.2475 169.92 
L 216.945 169.92 
L 217.6425 169.92 
L 218.34 169.92 
L 219.0375 169.92 
L 219.735 169.92 
L 220.4325 169.92 
L 221.13 169.92 
L 221.8275 169.92 
L 222.525 169.92 
L 223.2225 169.92 
L 223.92 169.92 
L 224.6175 169.92 
L 225.315 169.92 
L 226.0125 169.92 
L 226.71 169.92 
L 227.4075 169.92 
L 228.105 169.92 
L 228.8025 169.92 
L 229.5 169.92 
L 230.1975 169.92 
L 230.895 169.92 
L 231.5925 169.92 
L 232.29 169.92 
L 232.9875 169.92 
L 233.685 169.92 
L 234.3825 169.92 
L 235.08 169.92 
L 235.7775 169.92 
L 236.475 169.92 
L 237.1725 169.92 
L 237.87 169.92 
L 238.5675 169.92 
L 239.265 169.92 
L 239.9625 169.92 
L 240.66 169.92 
L 241.3575 169.92 
L 242.055 169.92 
L 242.7525 169.92 
L 243.45 169.92 
L 244.1475 169.92 
L 244.845 169.92 
L 245.5425 169.92 
L 246.24 169.92 
L 246.9375 169.92 
L 247.635 169.92 
L 248.3325 169.92 
L 249.03 169.92 
L 249.7275 169.92 
L 250.425 169.92 
L 251.1225 169.92 
L 251.82 169.92 
L 252.5175 169.92 
L 253.215 169.92 
L 253.9125 169.92 
L 254.61 169.92 
L 255.3075 169.92 
L 256.005 169.92 
L 256.7025 169.92 
L 257.4 169.92 
L 258.0975 169.92 
L 258.795 169.92 
L 259.4925 169.92 
L 260.19 169.92 
L 260.8875 169.92 
L 261.585 169.92 
L 262.2825 169.92 
L 262.98 169.92 
L 263.6775 169.92 
L 264.375 169.92 
L 265.0725 169.92 
L 265.77 169.92 
L 266.4675 169.92 
L 267.165 169.92 
L 267.8625 169.92 
L 268.56 169.92 
L 269.2575 169.92 
L 269.955 169.92 
L 270.6525 169.92 
L 271.35 169.92 
L 272.0475 169.92 
L 272.745 169.92 
L 273.4425 169.92 
L 274.14 169.92 
L 274.8375 169.92 
L 275.535 169.92 
L 276.2325 169.92 
L 276.93 169.92 
L 277.6275 169.92 
L 278.325 169.92 
L 279.0225 169.92 
L 279.72 169.92 
L 280.4175 169.92 
L 281.115 169.92 
L 281.8125 169.92 
L 282.51 169.92 
L 283.2075 169.92 
L 283.905 169.92 
L 284.6025 169.92 
L 285.3 169.92 
L 285.9975 169.92 
L 286.695 169.92 
L 287.3925 169.92 
L 288.09 169.92 
L 288.7875 169.92 
L 289.485 169.92 
L 290.1825 169.92 
L 290.88 169.92 
L 291.5775 169.92 
L 292.275 169.92 
L 292.9725 169.92 
L 293.67 169.92 
L 294.3675 169.92 
L 295.065 169.92 
L 295.7625 169.92 
L 296.46 169.92 
L 297.1575 169.92 
L 297.855 169.92 
L 298.5525 169.92 
L 299.25 169.92 
L 299.9475 169.92 
L 300.645 169.92 
L 301.3425 169.92 
L 302.04 169.92 
L 302.7375 169.92 
L 303.435 169.92 
L 304.1325 169.92 
L 304.83 169.92 
L 305.5275 169.92 
L 306.225 169.92 
L 306.9225 169.92 
L 307.62 169.92 
L 308.3175 169.92 
L 309.015 169.92 
L 309.7125 169.92 
L 310.41 169.92 
L 311.1075 169.92 
L 311.805 169.92 
L 312.5025 169.92 
L 313.2 169.92 
L 313.8975 169.92 
L 314.595 169.92 
L 315.2925 169.92 
L 315.99 169.92 
L 316.6875 169.92 
L 317.385 169.92 
L 318.0825 169.92 
L 318.78 169.92 
L 319.4775 169.92 
L 320.175 169.92 
L 320.8725 169.92 
L 321.57 169.92 
L 322.2675 169.92 
L 322.965 169.92 
L 323.6625 169.92 
L 324.36 169.92 
L 325.0575 169.92 
L 325.755 169.92 
L 326.4525 169.92 
L 327.15 169.92 
L 327.8475 169.92 
L 328.545 169.92 
L 329.2425 169.92 
L 329.94 169.92 
L 330.6375 169.92 
L 331.335 169.92 
L 332.0325 169.92 
L 332.73 169.92 
L 333.4275 169.92 
L 334.125 169.92 
L 334.8225 169.92 
L 335.52 169.92 
L 336.2175 169.92 
L 336.915 169.92 
L 337.6125 169.92 
L 338.31 169.92 
L 339.0075 169.92 
L 339.705 169.92 
L 340.4025 169.92 
L 341.1 169.92 
L 341.7975 169.92 
L 342.495 169.92 
L 343.1925 169.92 
L 343.89 169.92 
L 344.5875 169.92 
L 345.285 169.92 
L 345.9825 169.92 
L 346.68 169.92 
L 347.3775 169.92 
L 348.075 169.92 
L 348.7725 169.92 
L 349.47 169.92 
L 350.1675 169.92 
L 350.865 169.92 
L 351.5625 169.92 
L 352.26 169.92 
L 352.9575 169.92 
L 353.655 169.92 
L 354.3525 169.92 
L 355.05 169.92 
L 355.7475 169.92 
L 356.445 169.92 
L 357.1425 169.92 
L 357.84 169.92 
L 358.5375 169.92 
L 359.235 169.92 
L 359.9325 169.92 
L 360.63 169.92 
L 361.3275 169.92 
L 362.025 169.92 
L 362.7225 169.92 
L 363.42 169.92 
L 364.1175 169.92 
L 364.815 169.92 
L 365.5125 169.92 
L 366.21 169.92 
L 366.9075 169.92 
L 367.605 169.92 
L 368.3025 169.92 
L 369 169.92 
L 369.6975 169.92 
L 370.395 169.92 
L 371.0925 169.92 
L 371.79 169.92 
L 372.4875 169.92 
L 373.185 169.92 
L 373.8825 169.92 
L 374.58 169.92 
L 375.2775 169.92 
L 375.975 169.92 
L 376.6725 169.92 
L 377.37 169.92 
L 378.0675 169.92 
L 378.765 169.92 
L 379.4625 169.92 
L 380.16 169.92 
L 380.8575 169.92 
L 381.555 169.92 
L 382.2525 169.92 
L 382.95 169.92 
L 383.6475 169.92 
L 384.345 169.92 
L 385.0425 169.92 
L 385.74 169.92 
L 386.4375 169.92 
L 387.135 169.92 
L 387.8325 169.92 
L 388.53 169.92 
L 389.2275 169.92 
L 389.925 169.92 
L 390.6225 169.92 
L 391.32 169.92 
L 392.0175 169.92 
L 392.715 169.92 
L 393.4125 169.92 
L 394.11 169.92 
L 394.8075 169.92 
L 395.505 169.92 
L 396.2025 169.92 
L 396.9 169.92 
L 397.5975 169.92 
L 398.295 169.92 
L 398.9925 169.92 
L 399.69 169.92 
L 400.3875 169.92 
L 401.085 169.92 
L 401.7825 169.92 
L 402.48 169.92 
L 403.1775 169.92 
L 403.875 169.92 
L 404.5725 169.92 
L 405.27 169.92 
L 405.9675 169.92 
L 406.665 169.92 
L 407.3625 169.92 
L 408.06 169.92 
L 408.7575 169.92 
L 409.455 169.92 
L 410.1525 169.92 
L 410.85 169.92 
L 411.5475 169.92 
L 412.245 169.92 
L 412.9425 169.92 
L 413.64 169.92 
L 414.3375 169.92 
L 415.035 169.92 
L 415.7325 169.92 
L 416.43 169.92 
L 417.1275 169.92 
L 417.825 169.92 
L 418.5225 169.92 
L 419.22 169.92 
L 419.9175 169.92 
L 420.615 169.92 
L 421.3125 169.92 
L 422.01 169.92 
L 422.7075 169.92 
L 423.405 169.92 
L 424.1025 169.92 
L 424.8 169.92 
L 425.4975 169.92 
L 426.195 169.92 
L 426.8925 169.92 
L 427.59 169.92 
L 428.2875 169.92 
L 428.985 169.92 
L 429.6825 169.92 
L 430.38 169.92 
L 431.0775 169.92 
L 431.775 169.92 
L 432.4725 169.92 
L 433.17 169.92 
L 433.8675 169.92 
L 434.565 169.92 
L 435.2625 169.92 
L 435.96 169.92 
L 436.6575 169.92 
L 437.355 169.92 
L 438.0525 169.92 
L 438.75 169.92 
L 439.4475 169.92 
L 440.145 169.92 
L 440.8425 169.92 
L 441.54 169.92 
L 442.2375 169.92 
L 442.935 169.92 
L 443.6325 169.92 
L 444.33 169.92 
L 445.0275 169.92 
L 445.725 169.92 
L 446.4225 169.92 
L 447.12 169.92 
L 447.8175 169.92 
L 448.515 169.92 
L 449.2125 169.92 
L 449.91 169.92 
L 450.6075 169.92 
L 451.305 169.92 
L 452.0025 169.92 
L 452.7 169.92 
L 453.3975 169.92 
L 454.095 169.92 
L 454.7925 169.92 
L 455.49 169.92 
L 456.1875 169.92 
L 456.885 169.92 
L 457.5825 169.92 
L 458.28 169.92 
L 458.9775 169.92 
L 459.675 169.92 
L 460.3725 169.92 
L 461.07 169.92 
L 461.7675 169.92 
L 462.465 169.92 
L 463.1625 169.92 
L 463.86 169.92 
L 464.5575 169.92 
L 465.255 169.92 
L 465.9525 169.92 
L 466.65 169.92 
L 467.3475 169.92 
L 468.045 169.92 
L 468.7425 169.92 
L 469.44 169.92 
L 470.1375 169.92 
L 470.835 169.92 
L 471.5325 169.92 
L 472.23 169.92 
L 472.9275 169.92 
L 473.625 169.92 
L 474.3225 169.92 
L 475.02 169.92 
L 475.7175 169.92 
L 476.415 169.92 
L 477.1125 169.92 
L 477.81 169.92 
L 478.5075 169.92 
L 479.205 169.92 
L 479.9025 169.92 
L 480.6 169.92 
L 481.2975 169.92 
L 481.995 169.92 
L 482.6925 169.92 
L 483.39 169.92 
L 484.0875 169.92 
L 484.785 169.92 
L 485.4825 169.92 
L 486.18 169.92 
L 486.8775 169.92 
L 487.575 169.92 
L 488.2725 169.92 
L 488.97 169.92 
L 489.6675 169.92 
L 490.365 169.92 
L 491.0625 169.92 
L 491.76 169.92 
L 492.4575 169.92 
L 493.155 169.92 
L 493.8525 169.92 
L 494.55 169.92 
L 495.2475 169.92 
L 495.945 169.92 
L 496.6425 169.92 
L 497.34 169.92 
L 498.0375 169.92 
L 498.735 169.92 
L 499.4325 169.92 
L 500.13 169.92 
L 500.8275 169.92 
L 501.525 169.92 
L 502.2225 169.92 
L 502.92 169.92 
L 503.6175 169.92 
L 504.315 169.92 
L 505.0125 169.92 
L 505.71 169.92 
L 506.4075 169.92 
L 507.105 169.92 
L 507.8025 169.92 
L 508.5 169.92 
L 509.1975 169.92 
L 509.895 169.92 
L 510.5925 169.92 
L 511.29 169.92 
L 511.9875 169.92 
L 512.685 169.92 
L 513.3825 169.92 
L 514.08 169.92 
L 514.7775 169.92 
L 515.475 169.92 
L 516.1725 169.92 
L 516.87 169.92 
L 517.5675 169.92 
L 518.265 169.92 
L 518.9625 169.92 
L 519.66 169.92 
L 520.3575 169.92 
L 521.055 169.92 
L 521.7525 169.92 
L 522.45 169.92 
L 523.1475 169.92 
L 523.845 169.92 
L 524.5425 169.92 
L 525.24 169.92 
L 525.9375 169.92 
L 526.635 169.92 
L 527.3325 169.92 
L 528.03 169.92 
L 528.7275 169.92 
L 529.425 169.92 
L 530.1225 169.92 
L 530.82 169.92 
L 531.5175 169.92 
L 532.215 169.92 
L 532.9125 169.92 
L 533.61 169.92 
L 534.3075 169.92 
L 535.005 169.92 
L 535.7025 169.92 
L 536.4 169.92 
L 537.0975 169.92 
L 537.795 169.92 
L 538.4925 169.92 
L 539.19 169.92 
L 539.8875 169.92 
L 540.585 169.92 
L 541.2825 169.92 
L 541.98 169.92 
L 542.6775 169.92 
L 543.375 169.92 
L 544.0725 169.92 
L 544.77 169.92 
L 545.4675 169.92 
L 546.165 169.92 
L 546.8625 169.92 
L 547.56 169.92 
L 548.2575 169.92 
L 548.955 169.92 
L 549.6525 169.92 
L 550.35 169.92 
L 551.0475 169.92 
L 551.745 169.92 
L 552.4425 169.92 
L 553.14 169.92 
L 553.8375 169.92 
L 554.535 169.92 
L 555.2325 169.92 
L 555.93 169.92 
L 556.6275 169.92 
L 557.325 169.92 
L 558.0225 169.92 
L 558.72 169.92 
L 559.4175 169.92 
L 560.115 169.92 
L 560.8125 169.92 
L 561.51 169.92 
L 562.2075 169.92 
L 562.905 169.92 
L 563.6025 169.92 
L 564.3 169.92 
L 564.9975 169.92 
L 565.695 169.92 
L 566.3925 169.92 
L 567.09 169.92 
L 567.7875 169.92 
L 568.485 169.92 
L 569.1825 169.92 
L 569.88 169.92 
L 570.5775 169.92 
L 571.275 169.92 
L 571.9725 169.92 
L 572.67 169.92 
L 573.3675 169.92 
L 574.065 169.92 
L 574.7625 169.92 
L 575.46 169.92 
L 576.1575 169.92 
L 576.855 169.92 
L 577.5525 169.92 
L 578.25 169.92 
L 578.9475 169.92 
L 579.645 169.92 
L 580.3425 169.92 
L 581.04 169.92 
L 581.7375 169.92 
L 582.435 169.92 
L 583.1325 169.92 
L 583.83 169.92 
L 584.5275 169.92 
L 585.225 169.92 
L 585.9225 169.92 
L 586.62 169.92 
L 587.3175 169.92 
L 588.015 169.92 
L 588.7125 169.92 
L 589.41 169.92 
L 590.1075 169.92 
L 590.805 169.92 
L 591.5025 169.92 
L 592.2 169.92 
L 592.8975 169.92 
L 593.595 169.92 
L 594.2925 169.92 
L 594.99 169.92 
L 595.6875 169.92 
L 596.385 169.92 
L 597.0825 169.92 
L 597.78 169.92 
L 598.4775 169.92 
L 599.175 169.92 
L 599.8725 169.92 
L 600.57 169.92 
L 601.2675 169.92 
L 601.965 169.92 
L 602.6625 169.92 
L 603.36 169.92 
L 604.0575 169.92 
L 604.755 169.92 
L 605.4525 169.92 
L 606.15 169.92 
L 606.8475 169.92 
L 607.545 169.92 
L 608.2425 169.92 
L 608.94 169.92 
L 609.6375 169.92 
L 610.335 169.92 
L 611.0325 169.92 
L 611.73 169.92 
L 612.4275 169.92 
L 613.125 169.92 
L 613.8225 169.92 
L 614.52 169.92 
L 615.2175 169.92 
L 615.915 169.92 
L 616.6125 169.92 
L 617.31 169.92 
L 618.0075 169.92 
L 618.705 169.92 
L 619.4025 169.92 
L 620.1 169.92 
L 620.7975 169.92 
L 621.495 169.92 
L 622.1925 169.92 
L 622.89 169.92 
L 623.5875 169.92 
L 624.285 169.92 
L 624.9825 169.92 
L 625.68 169.92 
L 626.3775 169.92 
L 627.075 169.92 
L 627.7725 169.92 
L 628.47 169.92 
L 629.1675 169.92 
L 629.865 169.92 
L 630.5625 169.92 
L 631.26 169.92 
L 631.9575 169.92 
L 632.655 169.92 
L 633.3525 169.92 
L 634.05 169.92 
L 634.7475 169.92 
L 635.445 169.92 
L 636.1425 169.92 
L 636.84 169.92 
L 637.5375 169.92 
L 638.235 169.92 
L 638.9325 169.92 
L 639.63 169.92 
L 640.3275 169.92 
L 641.025 169.92 
L 641.7225 169.92 
L 642.42 169.92 
L 643.1175 169.92 
L 643.815 169.92 
L 644.5125 169.92 
L 645.21 169.92 
L 645.9075 169.92 
L 646.605 169.92 
L 646.605 169.92 
L 646.605 169.92 
L 645.9075 169.927877 
L 645.21 169.946243 
L 644.5125 169.977502 
L 643.815 170.023797 
L 643.1175 170.08697 
L 642.42 170.168521 
L 641.7225 170.269569 
L 641.025 170.390827 
L 640.3275 170.532578 
L 639.63 170.694657 
L 638.9325 170.87645 
L 638.235 171.076882 
L 637.5375 171.294433 
L 636.84 171.527146 
L 636.1425 171.77265 
L 635.445 172.028188 
L 634.7475 172.29065 
L 634.05 172.556615 
L 633.3525 172.822399 
L 632.655 173.084103 
L 631.9575 173.337671 
L 631.26 173.578949 
L 630.5625 173.803749 
L 629.865 174.007908 
L 629.1675 174.18736 
L 628.47 174.338193 
L 627.7725 174.456721 
L 627.075 174.539537 
L 626.3775 174.583583 
L 625.68 174.586194 
L 624.9825 174.545159 
L 624.285 174.45876 
L 623.5875 174.325813 
L 622.89 174.145703 
L 622.1925 173.918406 
L 621.495 173.644509 
L 620.7975 173.325217 
L 620.1 172.962359 
L 619.4025 172.558374 
L 618.705 172.116297 
L 618.0075 171.63974 
L 617.31 171.132849 
L 616.6125 170.600271 
L 615.915 170.047103 
L 615.2175 169.478837 
L 614.52 168.901296 
L 613.8225 168.320571 
L 613.125 167.742944 
L 612.4275 167.174817 
L 611.73 166.622628 
L 611.0325 166.092775 
L 610.335 165.59153 
L 609.6375 165.124961 
L 608.94 164.698849 
L 608.2425 164.318613 
L 607.545 163.989232 
L 606.8475 163.715178 
L 606.15 163.500352 
L 605.4525 163.34802 
L 604.755 163.26077 
L 604.0575 163.240462 
L 603.36 163.288199 
L 602.6625 163.404295 
L 601.965 163.588267 
L 601.2675 163.838823 
L 600.57 164.153866 
L 599.8725 164.530516 
L 599.175 164.965123 
L 598.4775 165.45331 
L 597.78 165.990016 
L 597.0825 166.569546 
L 596.385 167.185632 
L 595.6875 167.831508 
L 594.99 168.499981 
L 594.2925 169.183519 
L 593.595 169.874334 
L 592.8975 170.564478 
L 592.2 171.245935 
L 591.5025 171.910722 
L 590.805 172.550985 
L 590.1075 173.159093 
L 589.41 173.72774 
L 588.7125 174.250031 
L 588.015 174.719574 
L 587.3175 175.130561 
L 586.62 175.477848 
L 585.9225 175.757016 
L 585.225 175.964442 
L 584.5275 176.097341 
L 583.83 176.153813 
L 583.1325 176.132872 
L 582.435 176.034468 
L 581.7375 175.859491 
L 581.04 175.609772 
L 580.3425 175.288069 
L 579.645 174.898036 
L 578.9475 174.44419 
L 578.25 173.931862 
L 577.5525 173.367137 
L 576.855 172.756786 
L 576.1575 172.10819 
L 575.46 171.429251 
L 574.7625 170.728303 
L 574.065 170.014013 
L 573.3675 169.295276 
L 572.67 168.581108 
L 571.9725 167.880537 
L 571.275 167.202495 
L 570.5775 166.555705 
L 569.88 165.948576 
L 569.1825 165.389094 
L 568.485 164.884725 
L 567.7875 164.44232 
L 567.09 164.068022 
L 566.3925 163.767194 
L 565.695 163.544341 
L 564.9975 163.403053 
L 564.3 163.345951 
L 563.6025 163.374652 
L 562.905 163.489739 
L 562.2075 163.690747 
L 561.51 163.976164 
L 560.8125 164.343436 
L 560.115 164.788994 
L 559.4175 165.30829 
L 558.72 165.895844 
L 558.0225 166.545301 
L 557.325 167.249505 
L 556.6275 168.000578 
L 555.93 168.790007 
L 555.2325 169.608745 
L 554.535 170.447314 
L 553.8375 171.295913 
L 553.14 172.144538 
L 552.4425 172.983094 
L 551.745 173.801516 
L 551.0475 174.589893 
L 550.35 175.33858 
L 549.6525 176.038316 
L 548.955 176.680338 
L 548.2575 177.256483 
L 547.56 177.759293 
L 546.8625 178.182101 
L 546.165 178.519118 
L 545.4675 178.765501 
L 544.77 178.91742 
L 544.0725 178.972104 
L 543.375 178.927881 
L 542.6775 178.784199 
L 541.98 178.541642 
L 541.2825 178.201926 
L 540.585 177.767883 
L 539.8875 177.243434 
L 539.19 176.63355 
L 538.4925 175.944193 
L 537.795 175.182255 
L 537.0975 174.355481 
L 536.4 173.472382 
L 535.7025 172.54214 
L 535.005 171.574503 
L 534.3075 170.579676 
L 533.61 169.568205 
L 532.9125 168.55086 
L 532.215 167.538506 
L 531.5175 166.541985 
L 530.82 165.571991 
L 530.1225 164.638949 
L 529.425 163.752893 
L 528.7275 162.923358 
L 528.03 162.159265 
L 527.3325 161.468827 
L 526.635 160.859452 
L 525.9375 160.337658 
L 525.24 159.909009 
L 524.5425 159.578042 
L 523.845 159.348226 
L 523.1475 159.221923 
L 522.45 159.20036 
L 521.7525 159.283625 
L 521.055 159.470661 
L 520.3575 159.759289 
L 519.66 160.146232 
L 518.9625 160.627157 
L 518.265 161.196728 
L 517.5675 161.848672 
L 516.87 162.575853 
L 516.1725 163.370354 
L 515.475 164.223575 
L 514.7775 165.126332 
L 514.08 166.068961 
L 513.3825 167.041435 
L 512.685 168.033474 
L 511.9875 169.03467 
L 511.29 170.034596 
L 510.5925 171.022933 
L 509.895 171.989578 
L 509.1975 172.924764 
L 508.5 173.819162 
L 507.8025 174.663983 
L 507.105 175.451078 
L 506.4075 176.173017 
L 505.71 176.823173 
L 505.0125 177.395785 
L 504.315 177.886016 
L 503.6175 178.289998 
L 502.92 178.604864 
L 502.2225 178.828773 
L 501.525 178.960914 
L 500.8275 179.001506 
L 500.13 178.951784 
L 499.4325 178.813964 
L 498.735 178.591216 
L 498.0375 178.287605 
L 497.34 177.908034 
L 496.6425 177.458178 
L 495.945 176.944405 
L 495.2475 176.373688 
L 494.55 175.753522 
L 493.8525 175.091819 
L 493.155 174.396815 
L 492.4575 173.676964 
L 491.76 172.940838 
L 491.0625 172.197019 
L 490.365 171.453999 
L 489.6675 170.72008 
L 488.97 170.003278 
L 488.2725 169.311231 
L 487.575 168.651113 
L 486.8775 168.029557 
L 486.18 167.452585 
L 485.4825 166.925544 
L 484.785 166.453052 
L 484.0875 166.038961 
L 483.39 165.686316 
L 482.6925 165.397342 
L 481.995 165.173423 
L 481.2975 165.015108 
L 480.6 164.922119 
L 479.9025 164.89337 
L 479.205 164.926997 
L 478.5075 165.020398 
L 477.81 165.170283 
L 477.1125 165.372724 
L 476.415 165.623226 
L 475.7175 165.916791 
L 475.02 166.247995 
L 474.3225 166.611068 
L 473.625 166.999976 
L 472.9275 167.408503 
L 472.23 167.830339 
L 471.5325 168.259168 
L 470.835 168.688744 
L 470.1375 169.112979 
L 469.44 169.526022 
L 468.7425 169.922326 
L 468.045 170.296723 
L 467.3475 170.644484 
L 466.65 170.961373 
L 465.9525 171.243696 
L 465.255 171.488342 
L 464.5575 171.692812 
L 463.86 171.855241 
L 463.1625 171.974415 
L 462.465 172.04977 
L 461.7675 172.081393 
L 461.07 172.070004 
L 460.3725 172.016935 
L 459.675 171.924101 
L 458.9775 171.793962 
L 458.28 171.629475 
L 457.5825 171.43405 
L 456.885 171.211484 
L 456.1875 170.965908 
L 455.49 170.701718 
L 454.7925 170.423507 
L 454.095 170.135996 
L 453.3975 169.843965 
L 452.7 169.552179 
L 452.0025 169.265325 
L 451.305 168.987936 
L 450.6075 168.724335 
L 449.91 168.478571 
L 449.2125 168.254365 
L 448.515 168.055056 
L 447.8175 167.883564 
L 447.12 167.742345 
L 446.4225 167.633367 
L 445.725 167.558084 
L 445.0275 167.517419 
L 444.33 167.511764 
L 443.6325 167.540973 
L 442.935 167.604375 
L 442.2375 167.700789 
L 441.54 167.828547 
L 440.8425 167.985527 
L 440.145 168.169185 
L 439.4475 168.376605 
L 438.75 168.604541 
L 438.0525 168.849471 
L 437.355 169.107655 
L 436.6575 169.375193 
L 435.96 169.648086 
L 435.2625 169.922298 
L 434.565 170.193816 
L 433.8675 170.458716 
L 433.17 170.71322 
L 432.4725 170.953751 
L 431.775 171.176991 
L 431.0775 171.379928 
L 430.38 171.5599 
L 429.6825 171.714638 
L 428.985 171.842294 
L 428.2875 171.94147 
L 427.59 172.011237 
L 426.8925 172.05115 
L 426.195 172.061247 
L 425.4975 172.042051 
L 424.8 171.994559 
L 424.1025 171.920224 
L 423.405 171.820931 
L 422.7075 171.698965 
L 422.01 171.556975 
L 421.3125 171.397929 
L 420.615 171.225071 
L 419.9175 171.041862 
L 419.22 170.851928 
L 418.5225 170.659001 
L 417.825 170.466859 
L 417.1275 170.279261 
L 416.43 170.09989 
L 415.7325 169.93229 
L 415.035 169.779808 
L 414.3375 169.645536 
L 413.64 169.532259 
L 412.9425 169.442409 
L 412.245 169.378015 
L 411.5475 169.340675 
L 410.85 169.331515 
L 410.1525 169.351171 
L 409.455 169.399769 
L 408.7575 169.476917 
L 408.06 169.581699 
L 407.3625 169.712689 
L 406.665 169.867957 
L 405.9675 170.045095 
L 405.27 170.241248 
L 404.5725 170.453145 
L 403.875 170.677147 
L 403.1775 170.909296 
L 402.48 171.145368 
L 401.7825 171.380936 
L 401.085 171.61143 
L 400.3875 171.832208 
L 399.69 172.038625 
L 398.9925 172.2261 
L 398.295 172.390192 
L 397.5975 172.526666 
L 396.9 172.631566 
L 396.2025 172.701276 
L 395.505 172.732587 
L 394.8075 172.722751 
L 394.11 172.669535 
L 393.4125 172.571265 
L 392.715 172.426871 
L 392.0175 172.235908 
L 391.32 171.998588 
L 390.6225 171.715792 
L 389.925 171.389073 
L 389.2275 171.020653 
L 388.53 170.613416 
L 387.8325 170.170875 
L 387.135 169.697152 
L 386.4375 169.196929 
L 385.74 168.675405 
L 385.0425 168.13824 
L 384.345 167.591486 
L 383.6475 167.041524 
L 382.95 166.494984 
L 382.2525 165.958666 
L 381.555 165.439454 
L 380.8575 164.944235 
L 380.16 164.479802 
L 379.4625 164.052771 
L 378.765 163.669493 
L 378.0675 163.335963 
L 377.37 163.057741 
L 376.6725 162.839871 
L 375.975 162.686805 
L 375.2775 162.602339 
L 374.58 162.589547 
L 373.8825 162.650734 
L 373.185 162.787387 
L 372.4875 163.000143 
L 371.79 163.288764 
L 371.0925 163.652123 
L 370.395 164.0882 
L 369.6975 164.59409 
L 369 165.166025 
L 368.3025 165.799398 
L 367.605 166.488809 
L 366.9075 167.22811 
L 366.21 168.010472 
L 365.5125 168.82845 
L 364.815 169.674061 
L 364.1175 170.538875 
L 363.42 171.414098 
L 362.7225 172.29068 
L 362.025 173.15941 
L 361.3275 174.011022 
L 360.63 174.836305 
L 359.9325 175.626209 
L 359.235 176.371951 
L 358.5375 177.065122 
L 357.84 177.697787 
L 357.1425 178.262583 
L 356.445 178.752808 
L 355.7475 179.162509 
L 355.05 179.486557 
L 354.3525 179.720711 
L 353.655 179.861678 
L 352.9575 179.907162 
L 352.26 179.855893 
L 351.5625 179.707656 
L 350.865 179.463299 
L 350.1675 179.124734 
L 349.47 178.694919 
L 348.7725 178.177837 
L 348.075 177.578456 
L 347.3775 176.902677 
L 346.68 176.157272 
L 345.9825 175.349816 
L 345.285 174.488602 
L 344.5875 173.58255 
L 343.89 172.641109 
L 343.1925 171.674155 
L 342.495 170.691873 
L 341.7975 169.70465 
L 341.1 168.72295 
L 340.4025 167.7572 
L 339.705 166.81767 
L 339.0075 165.914352 
L 338.31 165.05685 
L 337.6125 164.254265 
L 336.915 163.515089 
L 336.2175 162.847113 
L 335.52 162.25733 
L 334.8225 161.751856 
L 334.125 161.335859 
L 333.4275 161.013499 
L 332.73 160.787878 
L 332.0325 160.661006 
L 331.335 160.633775 
L 330.6375 160.70595 
L 329.94 160.876172 
L 329.2425 161.141973 
L 328.545 161.499807 
L 327.8475 161.94509 
L 327.15 162.472253 
L 326.4525 163.07481 
L 325.755 163.745436 
L 325.0575 164.476047 
L 324.36 165.257901 
L 323.6625 166.0817 
L 322.965 166.937695 
L 322.2675 167.815807 
L 321.57 168.705742 
L 320.8725 169.597113 
L 320.175 170.479561 
L 319.4775 171.342877 
L 318.78 172.177122 
L 318.0825 172.972742 
L 317.385 173.720681 
L 316.6875 174.412487 
L 315.99 175.040405 
L 315.2925 175.597473 
L 314.595 176.077598 
L 313.8975 176.475628 
L 313.2 176.787407 
L 312.5025 177.009822 
L 311.805 177.140841 
L 311.1075 177.179526 
L 310.41 177.126047 
L 309.7125 176.981673 
L 309.015 176.748755 
L 308.3175 176.430692 
L 307.62 176.031889 
L 306.9225 175.557699 
L 306.225 175.014359 
L 305.5275 174.408909 
L 304.83 173.749106 
L 304.1325 173.043331 
L 303.435 172.300484 
L 302.7375 171.529875 
L 302.04 170.741114 
L 301.3425 169.943993 
L 300.645 169.148369 
L 299.9475 168.364045 
L 299.25 167.600653 
L 298.5525 166.86754 
L 297.855 166.173657 
L 297.1575 165.527451 
L 296.46 164.93677 
L 295.7625 164.408769 
L 295.065 163.949827 
L 294.3675 163.565475 
L 293.67 163.260329 
L 292.9725 163.038047 
L 292.275 162.90128 
L 291.5775 162.851649 
L 290.88 162.889732 
L 290.1825 163.015056 
L 289.485 163.226112 
L 288.7875 163.520375 
L 288.09 163.894339 
L 287.3925 164.343565 
L 286.695 164.862735 
L 285.9975 165.445722 
L 285.3 166.085667 
L 284.6025 166.77506 
L 283.905 167.505838 
L 283.2075 168.26948 
L 282.51 169.057112 
L 281.8125 169.859612 
L 281.115 170.667722 
L 280.4175 171.472155 
L 279.72 172.263709 
L 279.0225 173.033371 
L 278.325 173.772425 
L 277.6275 174.472551 
L 276.93 175.125922 
L 276.2325 175.72529 
L 275.535 176.264071 
L 274.8375 176.736414 
L 274.14 177.137266 
L 273.4425 177.462424 
L 272.745 177.708578 
L 272.0475 177.873344 
L 271.35 177.95528 
L 270.6525 177.953898 
L 269.955 177.86966 
L 269.2575 177.703963 
L 268.56 177.459113 
L 267.8625 177.138292 
L 267.165 176.745508 
L 266.4675 176.285539 
L 265.77 175.763873 
L 265.0725 175.186631 
L 264.375 174.56049 
L 263.6775 173.892597 
L 262.98 173.190481 
L 262.2825 172.461959 
L 261.585 171.715039 
L 260.8875 170.957826 
L 260.19 170.198424 
L 259.4925 169.44484 
L 258.795 168.704892 
L 258.0975 167.98612 
L 257.4 167.295702 
L 256.7025 166.640372 
L 256.005 166.026352 
L 255.3075 165.459283 
L 254.61 164.94417 
L 253.9125 164.485334 
L 253.215 164.086372 
L 252.5175 163.750128 
L 251.82 163.478676 
L 251.1225 163.273306 
L 250.425 163.134525 
L 249.7275 163.062071 
L 249.03 163.05493 
L 248.3325 163.111364 
L 247.635 163.228949 
L 246.9375 163.40462 
L 246.24 163.634727 
L 245.5425 163.915088 
L 244.845 164.241059 
L 244.1475 164.607603 
L 243.45 165.009359 
L 242.7525 165.440722 
L 242.055 165.895921 
L 241.3575 166.369094 
L 240.66 166.854367 
L 239.9625 167.345932 
L 239.265 167.838118 
L 238.5675 168.325463 
L 237.87 168.802779 
L 237.1725 169.265215 
L 236.475 169.708308 
L 235.7775 170.128034 
L 235.08 170.520851 
L 234.3825 170.883726 
L 233.685 171.21417 
L 232.9875 171.510247 
L 232.29 171.77059 
L 231.5925 171.994396 
L 230.895 172.181424 
L 230.1975 172.331977 
L 229.5 172.446881 
L 228.8025 172.527455 
L 228.105 172.575472 
L 227.4075 172.593121 
L 226.71 172.582955 
L 226.0125 172.547842 
L 225.315 172.490908 
L 224.6175 172.415477 
L 223.92 172.325012 
L 223.2225 172.223052 
L 222.525 172.113152 
L 221.8275 171.998819 
L 221.13 171.883456 
L 220.4325 171.770303 
L 219.735 171.662385 
L 219.0375 171.562464 
L 218.34 171.472991 
L 217.6425 171.396073 
L 216.945 171.333437 
L 216.2475 171.286404 
L 215.55 171.255872 
L 214.8525 171.242303 
L 214.155 171.245719 
L 213.4575 171.265705 
L 212.76 171.301416 
L 212.0625 171.351601 
L 211.365 171.414619 
L 210.6675 171.488476 
L 209.97 171.570855 
L 209.2725 171.659165 
L 208.575 171.750583 
L 207.8775 171.842101 
L 207.18 171.93059 
L 206.4825 172.012846 
L 205.785 172.085652 
L 205.0875 172.145838 
L 204.39 172.190335 
L 203.6925 172.216237 
L 202.995 172.220851 
L 202.2975 172.201754 
L 201.6 172.156837 
L 200.9025 172.084354 
L 200.205 171.982956 
L 199.5075 171.851729 
L 198.81 171.690219 
L 198.1125 171.498448 
L 197.415 171.276936 
L 196.7175 171.026698 
L 196.02 170.749247 
L 195.3225 170.446583 
L 194.625 170.121173 
L 193.9275 169.775932 
L 193.23 169.414188 
L 192.5325 169.039641 
L 191.835 168.656323 
L 191.1375 168.268545 
L 190.44 167.880842 
L 189.7425 167.497912 
L 189.045 167.124555 
L 188.3475 166.765605 
L 187.65 166.425862 
L 186.9525 166.110028 
L 186.255 165.822631 
L 185.5575 165.567965 
L 184.86 165.350022 
L 184.1625 165.17243 
L 183.465 165.038394 
L 182.7675 164.950646 
L 182.07 164.911395 
L 181.3725 164.922287 
L 180.675 164.984368 
L 179.9775 165.098063 
L 179.28 165.263153 
L 178.5825 165.478765 
L 177.885 165.743374 
L 177.1875 166.054809 
L 176.49 166.410265 
L 175.7925 166.806336 
L 175.095 167.239042 
L 174.3975 167.703873 
L 173.7 168.195838 
L 173.0025 168.709522 
L 172.305 169.239151 
L 171.6075 169.778654 
L 170.91 170.321745 
L 170.2125 170.861995 
L 169.515 171.392914 
L 168.8175 171.908036 
L 168.12 172.400996 
L 167.4225 172.865621 
L 166.725 173.296006 
L 166.0275 173.686598 
L 165.33 174.032267 
L 164.6325 174.328382 
L 163.935 174.570875 
L 163.2375 174.7563 
L 162.54 174.881886 
L 161.8425 174.945584 
L 161.145 174.946097 
L 160.4475 174.88291 
L 159.75 174.756308 
L 159.0525 174.567377 
L 158.355 174.318006 
L 157.6575 174.010871 
L 156.96 173.64941 
L 156.2625 173.237788 
L 155.565 172.780855 
L 154.8675 172.284094 
L 154.17 171.753555 
L 153.4725 171.195787 
L 152.775 170.617763 
L 152.0775 170.026794 
L 151.38 169.430443 
L 150.6825 168.836429 
L 149.985 168.252535 
L 149.2875 167.686508 
L 148.59 167.145961 
L 147.8925 166.638277 
L 147.195 166.170513 
L 146.4975 165.749305 
L 145.8 165.380782 
L 145.1025 165.070482 
L 144.405 164.823277 
L 143.7075 164.643301 
L 143.01 164.533895 
L 142.3125 164.49755 
L 141.615 164.535869 
L 140.9175 164.649537 
L 140.22 164.838301 
L 139.5225 165.100962 
L 138.825 165.435378 
L 138.1275 165.838485 
L 137.43 166.306315 
L 136.7325 166.834043 
L 136.035 167.416034 
L 135.3375 168.045901 
L 134.64 168.716578 
L 133.9425 169.420397 
L 133.245 170.149176 
L 132.5475 170.894314 
L 131.85 171.646891 
L 131.1525 172.397771 
L 130.455 173.137716 
L 129.7575 173.85749 
L 129.06 174.547977 
L 128.3625 175.200289 
L 127.665 175.80588 
L 126.9675 176.356645 
L 126.27 176.84503 
L 125.5725 177.264123 
L 124.875 177.607747 
L 124.1775 177.870538 
L 123.48 178.04802 
L 122.7825 178.136665 
L 122.085 178.133943 
L 121.3875 178.038366 
L 120.69 177.849511 
L 119.9925 177.568037 
L 119.295 177.195684 
L 118.5975 176.735268 
L 117.9 176.19065 
L 117.2025 175.566706 
L 116.505 174.869273 
L 115.8075 174.105095 
L 115.11 173.281743 
L 114.4125 172.407542 
L 113.715 171.491474 
L 113.0175 170.543081 
L 112.32 169.572359 
L 111.6225 168.589643 
L 110.925 167.605494 
L 110.2275 166.630576 
L 109.53 165.675534 
L 108.8325 164.750873 
L 108.135 163.866837 
L 107.4375 163.033289 
L 106.74 162.259598 
L 106.0425 161.554527 
L 105.345 160.926133 
L 104.6475 160.381674 
L 103.95 159.927517 
L 103.2525 159.569068 
L 102.555 159.310707 
L 101.8575 159.155731 
L 101.16 159.106319 
L 100.4625 159.163499 
L 99.765 159.327139 
L 99.0675 159.595942 
L 98.37 159.967461 
L 97.6725 160.438126 
L 96.975 161.003278 
L 96.2775 161.657226 
L 95.58 162.393308 
L 94.8825 163.203965 
L 94.185 164.080829 
L 93.4875 165.014815 
L 92.79 165.996221 
L 92.0925 167.014845 
L 91.395 168.060094 
L 90.6975 169.121104 
L 90 170.186866 
z
" style="fill:#e0ffff;"/>
   </g>
   <g id="line2d_19">
    <path clip-path="url(#pf084e4b59a)" d="M 90 170.186866 
L 93.4875 165.014815 
L 95.58 162.393308 
L 96.975 161.003278 
L 98.37 159.967461 
L 99.765 159.327139 
L 101.16 159.106319 
L 102.555 159.310707 
L 103.95 159.927517 
L 105.345 160.926133 
L 106.74 162.259598 
L 108.135 163.866837 
L 110.2275 166.630576 
L 115.11 173.281743 
L 116.505 174.869273 
L 117.9 176.19065 
L 119.295 177.195684 
L 120.69 177.849511 
L 122.085 178.133943 
L 123.48 178.04802 
L 124.875 177.607747 
L 126.27 176.84503 
L 127.665 175.80588 
L 129.7575 173.85749 
L 136.035 167.416034 
L 137.43 166.306315 
L 138.825 165.435378 
L 140.22 164.838301 
L 141.615 164.535869 
L 143.01 164.533895 
L 144.405 164.823277 
L 145.8 165.380782 
L 147.195 166.170513 
L 149.2875 167.686508 
L 156.2625 173.237788 
L 157.6575 174.010871 
L 159.0525 174.567377 
L 160.4475 174.88291 
L 161.8425 174.945584 
L 163.2375 174.7563 
L 164.6325 174.328382 
L 166.0275 173.686598 
L 168.12 172.400996 
L 170.91 170.321745 
L 174.3975 167.703873 
L 176.49 166.410265 
L 177.885 165.743374 
L 179.28 165.263153 
L 180.675 164.984368 
L 182.07 164.911395 
L 183.465 165.038394 
L 184.86 165.350022 
L 186.9525 166.110028 
L 189.045 167.124555 
L 196.02 170.749247 
L 198.1125 171.498448 
L 200.205 171.982956 
L 202.2975 172.201754 
L 204.39 172.190335 
L 207.18 171.93059 
L 212.76 171.301416 
L 215.55 171.255872 
L 218.34 171.472991 
L 222.525 172.113152 
L 225.315 172.490908 
L 227.4075 172.593121 
L 229.5 172.446881 
L 231.5925 171.994396 
L 233.685 171.21417 
L 235.7775 170.128034 
L 238.5675 168.325463 
L 243.45 165.009359 
L 245.5425 163.915088 
L 246.9375 163.40462 
L 248.3325 163.111364 
L 249.7275 163.062071 
L 251.1225 163.273306 
L 252.5175 163.750128 
L 253.9125 164.485334 
L 255.3075 165.459283 
L 257.4 167.295702 
L 260.19 170.198424 
L 263.6775 173.892597 
L 265.77 175.763873 
L 267.165 176.745508 
L 268.56 177.459113 
L 269.955 177.86966 
L 271.35 177.95528 
L 272.745 177.708578 
L 274.14 177.137266 
L 275.535 176.264071 
L 276.93 175.125922 
L 279.0225 173.033371 
L 285.9975 165.445722 
L 287.3925 164.343565 
L 288.7875 163.520375 
L 290.1825 163.015056 
L 291.5775 162.851649 
L 292.9725 163.038047 
L 294.3675 163.565475 
L 295.7625 164.408769 
L 297.1575 165.527451 
L 299.25 167.600653 
L 305.5275 174.408909 
L 306.9225 175.557699 
L 308.3175 176.430692 
L 309.7125 176.981673 
L 311.1075 177.179526 
L 312.5025 177.009822 
L 313.8975 176.475628 
L 315.2925 175.597473 
L 316.6875 174.412487 
L 318.0825 172.972742 
L 320.175 170.479561 
L 325.0575 164.476047 
L 326.4525 163.07481 
L 327.8475 161.94509 
L 329.2425 161.141973 
L 330.6375 160.70595 
L 332.0325 160.661006 
L 333.4275 161.013499 
L 334.8225 161.751856 
L 336.2175 162.847113 
L 337.6125 164.254265 
L 339.705 166.81767 
L 343.89 172.641109 
L 345.9825 175.349816 
L 347.3775 176.902677 
L 348.7725 178.177837 
L 350.1675 179.124734 
L 351.5625 179.707656 
L 352.9575 179.907162 
L 354.3525 179.720711 
L 355.7475 179.162509 
L 357.1425 178.262583 
L 358.5375 177.065122 
L 360.63 174.836305 
L 364.1175 170.538875 
L 366.9075 167.22811 
L 369 165.166025 
L 370.395 164.0882 
L 371.79 163.288764 
L 373.185 162.787387 
L 374.58 162.589547 
L 375.975 162.686805 
L 377.37 163.057741 
L 378.765 163.669493 
L 380.8575 164.944235 
L 383.6475 167.041524 
L 387.135 169.697152 
L 389.2275 171.020653 
L 390.6225 171.715792 
L 392.0175 172.235908 
L 393.4125 172.571265 
L 394.8075 172.722751 
L 396.2025 172.701276 
L 398.295 172.390192 
L 400.3875 171.832208 
L 407.3625 169.712689 
L 409.455 169.399769 
L 411.5475 169.340675 
L 413.64 169.532259 
L 415.7325 169.93229 
L 419.9175 171.041862 
L 422.7075 171.698965 
L 424.8 171.994559 
L 426.8925 172.05115 
L 428.985 171.842294 
L 431.0775 171.379928 
L 433.8675 170.458716 
L 440.145 168.169185 
L 442.2375 167.700789 
L 444.33 167.511764 
L 446.4225 167.633367 
L 448.515 168.055056 
L 450.6075 168.724335 
L 454.7925 170.423507 
L 457.5825 171.43405 
L 459.675 171.924101 
L 461.07 172.070004 
L 462.465 172.04977 
L 463.86 171.855241 
L 465.255 171.488342 
L 467.3475 170.644484 
L 469.44 169.526022 
L 475.7175 165.916791 
L 477.1125 165.372724 
L 478.5075 165.020398 
L 479.9025 164.89337 
L 481.2975 165.015108 
L 482.6925 165.397342 
L 484.0875 166.038961 
L 485.4825 166.925544 
L 486.8775 168.029557 
L 488.97 170.003278 
L 495.2475 176.373688 
L 496.6425 177.458178 
L 498.0375 178.287605 
L 499.4325 178.813964 
L 500.8275 179.001506 
L 502.2225 178.828773 
L 503.6175 178.289998 
L 505.0125 177.395785 
L 506.4075 176.173017 
L 507.8025 174.663983 
L 509.895 171.989578 
L 516.1725 163.370354 
L 517.5675 161.848672 
L 518.9625 160.627157 
L 520.3575 159.759289 
L 521.7525 159.283625 
L 523.1475 159.221923 
L 524.5425 159.578042 
L 525.9375 160.337658 
L 527.3325 161.468827 
L 528.7275 162.923358 
L 530.82 165.571991 
L 537.795 175.182255 
L 539.19 176.63355 
L 540.585 177.767883 
L 541.98 178.541642 
L 543.375 178.927881 
L 544.77 178.91742 
L 546.165 178.519118 
L 547.56 177.759293 
L 548.955 176.680338 
L 550.35 175.33858 
L 552.4425 172.983094 
L 557.325 167.249505 
L 558.72 165.895844 
L 560.115 164.788994 
L 561.51 163.976164 
L 562.905 163.489739 
L 564.3 163.345951 
L 565.695 163.544341 
L 567.09 164.068022 
L 568.485 164.884725 
L 569.88 165.948576 
L 571.9725 167.880537 
L 577.5525 173.367137 
L 578.9475 174.44419 
L 580.3425 175.288069 
L 581.7375 175.859491 
L 583.1325 176.132872 
L 584.5275 176.097341 
L 585.9225 175.757016 
L 587.3175 175.130561 
L 588.7125 174.250031 
L 590.805 172.550985 
L 593.595 169.874334 
L 597.0825 166.569546 
L 599.175 164.965123 
L 600.57 164.153866 
L 601.965 163.588267 
L 603.36 163.288199 
L 604.755 163.26077 
L 606.15 163.500352 
L 607.545 163.989232 
L 608.94 164.698849 
L 611.0325 166.092775 
L 613.8225 168.320571 
L 617.31 171.132849 
L 619.4025 172.558374 
L 621.495 173.644509 
L 622.89 174.145703 
L 624.285 174.45876 
L 625.68 174.586194 
L 627.075 174.539537 
L 629.1675 174.18736 
L 631.26 173.578949 
L 636.1425 171.77265 
L 638.9325 170.87645 
L 641.025 170.390827 
L 643.1175 170.08697 
L 645.9075 169.927877 
L 646.605 169.92 
L 646.605 169.92 
" style="fill:none;stroke:#008080;stroke-linecap:round;stroke-width:1.75;"/>
   </g>
   <g id="patch_3">
    <path d="M 90 270.72 
L 90 69.12 
" style="fill:none;stroke:#262626;stroke-linecap:square;stroke-linejoin:miter;stroke-width:1.25;"/>
   </g>
   <g id="patch_4">
    <path d="M 90 270.72 
L 648 270.72 
" style="fill:none;stroke:#262626;stroke-linecap:square;stroke-linejoin:miter;stroke-width:1.25;"/>
   </g>
  </g>
  <g id="axes_2">
   <g id="patch_5">
    <path d="M 90 512.64 
L 648 512.64 
L 648 311.04 
L 90 311.04 
z
" style="fill:#ffffff;"/>
   </g>
   <g id="matplotlib.axis_3">
    <g id="xtick_10">
     <g id="line2d_20">
      <g>
       <use style="fill:#262626;stroke:#262626;" x="191.454545" xlink:href="#m81633e13ab" y="512.64"/>
      </g>
     </g>
     <g id="text_19">
      <!-- 200 -->
      <g style="fill:#262626;" transform="translate(183.113139 532.797812)scale(0.1 -0.1)">
       <use xlink:href="#ArialMT-32"/>
       <use x="55.615234" xlink:href="#ArialMT-30"/>
       <use x="111.230469" xlink:href="#ArialMT-30"/>
      </g>
     </g>
    </g>
    <g id="xtick_11">
     <g id="line2d_21">
      <g>
       <use style="fill:#262626;stroke:#262626;" x="304.181818" xlink:href="#m81633e13ab" y="512.64"/>
      </g>
     </g>
     <g id="text_20">
      <!-- 400 -->
      <g style="fill:#262626;" transform="translate(295.840412 532.797812)scale(0.1 -0.1)">
       <use xlink:href="#ArialMT-34"/>
       <use x="55.615234" xlink:href="#ArialMT-30"/>
       <use x="111.230469" xlink:href="#ArialMT-30"/>
      </g>
     </g>
    </g>
    <g id="xtick_12">
     <g id="line2d_22">
      <g>
       <use style="fill:#262626;stroke:#262626;" x="416.909091" xlink:href="#m81633e13ab" y="512.64"/>
      </g>
     </g>
     <g id="text_21">
      <!-- 600 -->
      <g style="fill:#262626;" transform="translate(408.567685 532.797812)scale(0.1 -0.1)">
       <use xlink:href="#ArialMT-36"/>
       <use x="55.615234" xlink:href="#ArialMT-30"/>
       <use x="111.230469" xlink:href="#ArialMT-30"/>
      </g>
     </g>
    </g>
    <g id="xtick_13">
     <g id="line2d_23">
      <g>
       <use style="fill:#262626;stroke:#262626;" x="529.636364" xlink:href="#m81633e13ab" y="512.64"/>
      </g>
     </g>
     <g id="text_22">
      <!-- 800 -->
      <g style="fill:#262626;" transform="translate(521.294957 532.797812)scale(0.1 -0.1)">
       <use xlink:href="#ArialMT-38"/>
       <use x="55.615234" xlink:href="#ArialMT-30"/>
       <use x="111.230469" xlink:href="#ArialMT-30"/>
      </g>
     </g>
    </g>
    <g id="xtick_14">
     <g id="line2d_24">
      <g>
       <use style="fill:#262626;stroke:#262626;" x="642.363636" xlink:href="#m81633e13ab" y="512.64"/>
      </g>
     </g>
     <g id="text_23">
      <!-- 1000 -->
      <g style="fill:#262626;" transform="translate(631.241761 532.797812)scale(0.1 -0.1)">
       <use xlink:href="#ArialMT-31"/>
       <use x="55.615234" xlink:href="#ArialMT-30"/>
       <use x="111.230469" xlink:href="#ArialMT-30"/>
       <use x="166.845703" xlink:href="#ArialMT-30"/>
      </g>
     </g>
    </g>
   </g>
   <g id="matplotlib.axis_4">
    <g id="ytick_10">
     <g id="line2d_25">
      <g>
       <use style="fill:#262626;stroke:#262626;" x="90" xlink:href="#m281314781f" y="512.64"/>
      </g>
     </g>
     <g id="text_24">
      <!-- 0 -->
      <g style="fill:#262626;" transform="translate(71.439063 516.218906)scale(0.1 -0.1)">
       <use xlink:href="#ArialMT-30"/>
      </g>
     </g>
    </g>
    <g id="ytick_11">
     <g id="line2d_26">
      <g>
       <use style="fill:#262626;stroke:#262626;" x="90" xlink:href="#m281314781f" y="487.44"/>
      </g>
     </g>
     <g id="text_25">
      <!-- 5 -->
      <g style="fill:#262626;" transform="translate(71.439063 491.018906)scale(0.1 -0.1)">
       <use xlink:href="#ArialMT-35"/>
      </g>
     </g>
    </g>
    <g id="ytick_12">
     <g id="line2d_27">
      <g>
       <use style="fill:#262626;stroke:#262626;" x="90" xlink:href="#m281314781f" y="462.24"/>
      </g>
     </g>
     <g id="text_26">
      <!-- 10 -->
      <g style="fill:#262626;" transform="translate(65.878125 465.818906)scale(0.1 -0.1)">
       <use xlink:href="#ArialMT-31"/>
       <use x="55.615234" xlink:href="#ArialMT-30"/>
      </g>
     </g>
    </g>
    <g id="ytick_13">
     <g id="line2d_28">
      <g>
       <use style="fill:#262626;stroke:#262626;" x="90" xlink:href="#m281314781f" y="437.04"/>
      </g>
     </g>
     <g id="text_27">
      <!-- 15 -->
      <g style="fill:#262626;" transform="translate(65.878125 440.618906)scale(0.1 -0.1)">
       <use xlink:href="#ArialMT-31"/>
       <use x="55.615234" xlink:href="#ArialMT-35"/>
      </g>
     </g>
    </g>
    <g id="ytick_14">
     <g id="line2d_29">
      <g>
       <use style="fill:#262626;stroke:#262626;" x="90" xlink:href="#m281314781f" y="411.84"/>
      </g>
     </g>
     <g id="text_28">
      <!-- 20 -->
      <g style="fill:#262626;" transform="translate(65.878125 415.418906)scale(0.1 -0.1)">
       <use xlink:href="#ArialMT-32"/>
       <use x="55.615234" xlink:href="#ArialMT-30"/>
      </g>
     </g>
    </g>
    <g id="ytick_15">
     <g id="line2d_30">
      <g>
       <use style="fill:#262626;stroke:#262626;" x="90" xlink:href="#m281314781f" y="386.64"/>
      </g>
     </g>
     <g id="text_29">
      <!-- 25 -->
      <g style="fill:#262626;" transform="translate(65.878125 390.218906)scale(0.1 -0.1)">
       <use xlink:href="#ArialMT-32"/>
       <use x="55.615234" xlink:href="#ArialMT-35"/>
      </g>
     </g>
    </g>
    <g id="ytick_16">
     <g id="line2d_31">
      <g>
       <use style="fill:#262626;stroke:#262626;" x="90" xlink:href="#m281314781f" y="361.44"/>
      </g>
     </g>
     <g id="text_30">
      <!-- 30 -->
      <g style="fill:#262626;" transform="translate(65.878125 365.018906)scale(0.1 -0.1)">
       <use xlink:href="#ArialMT-33"/>
       <use x="55.615234" xlink:href="#ArialMT-30"/>
      </g>
     </g>
    </g>
    <g id="ytick_17">
     <g id="line2d_32">
      <g>
       <use style="fill:#262626;stroke:#262626;" x="90" xlink:href="#m281314781f" y="336.24"/>
      </g>
     </g>
     <g id="text_31">
      <!-- 35 -->
      <g style="fill:#262626;" transform="translate(65.878125 339.818906)scale(0.1 -0.1)">
       <use xlink:href="#ArialMT-33"/>
       <use x="55.615234" xlink:href="#ArialMT-35"/>
      </g>
     </g>
    </g>
    <g id="ytick_18">
     <g id="line2d_33">
      <g>
       <use style="fill:#262626;stroke:#262626;" x="90" xlink:href="#m281314781f" y="311.04"/>
      </g>
     </g>
     <g id="text_32">
      <!-- 40 -->
      <g style="fill:#262626;" transform="translate(65.878125 314.618906)scale(0.1 -0.1)">
       <use xlink:href="#ArialMT-34"/>
       <use x="55.615234" xlink:href="#ArialMT-30"/>
      </g>
     </g>
    </g>
   </g>
   <g id="line2d_34">
    <path clip-path="url(#pac4d3d9dd3)" d="M 90 488.562059 
L 95.636364 492.871917 
L 101.272727 491.915277 
L 106.909091 490.291312 
L 112.545455 492.192009 
L 118.181818 490.692663 
L 123.818182 490.203121 
L 129.454545 491.968658 
L 135.090909 490.163889 
L 140.727273 490.392837 
L 146.363636 490.241829 
L 152 489.156296 
L 157.636364 490.240305 
L 163.272727 490.645166 
L 168.909091 488.187222 
L 174.545455 488.633986 
L 180.181818 487.313077 
L 185.818182 487.018973 
L 191.454545 487.338343 
L 197.090909 486.121391 
L 202.727273 487.201243 
L 208.363636 484.042031 
L 214 483.157918 
L 219.636364 483.169266 
L 225.272727 482.846357 
L 230.909091 480.992047 
L 236.545455 479.145187 
L 242.181818 476.443916 
L 247.818182 475.314111 
L 253.454545 475.654125 
L 259.090909 473.305387 
L 264.727273 469.316541 
L 270.363636 463.226508 
L 276 459.185057 
L 281.636364 457.614718 
L 287.272727 454.794335 
L 292.909091 445.504843 
L 298.545455 423.732573 
L 304.181818 397.596726 
L 309.818182 374.961344 
L 315.454545 359.936381 
L 321.090909 350.604229 
L 326.727273 348.320806 
L 332.363636 355.280194 
L 338 371.866917 
L 343.636364 395.340341 
L 349.272727 419.997954 
L 354.909091 443.187999 
L 360.545455 460.277658 
L 366.181818 467.98198 
L 371.818182 471.852273 
L 377.454545 475.259843 
L 383.090909 478.489151 
L 388.727273 479.074231 
L 394.363636 476.894748 
L 400 474.552455 
L 405.636364 471.950812 
L 411.272727 468.681632 
L 416.909091 461.027911 
L 422.545455 441.166731 
L 428.181818 416.729328 
L 433.818182 392.840566 
L 439.454545 373.276917 
L 445.090909 358.526684 
L 450.727273 350.201791 
L 456.363636 350.555151 
L 462 360.822412 
L 467.636364 379.751599 
L 473.272727 402.879459 
L 478.909091 427.733924 
L 484.545455 450.40347 
L 490.181818 458.450826 
L 495.818182 461.938755 
L 501.454545 465.043265 
L 507.090909 468.053386 
L 512.727273 473.465468 
L 518.363636 478.295793 
L 524 480.590013 
L 529.636364 481.097259 
" style="fill:none;stroke:#b22222;stroke-linecap:round;stroke-width:1.75;"/>
   </g>
   <g id="patch_6">
    <path d="M 90 512.64 
L 90 311.04 
" style="fill:none;stroke:#262626;stroke-linecap:square;stroke-linejoin:miter;stroke-width:1.25;"/>
   </g>
   <g id="patch_7">
    <path d="M 90 512.64 
L 648 512.64 
" style="fill:none;stroke:#262626;stroke-linecap:square;stroke-linejoin:miter;stroke-width:1.25;"/>
   </g>
   <g id="text_33">
    <!-- f = 800 Hz -->
    <defs>
     <path d="M 8.6875 0 
L 8.6875 45.015625 
L 0.921875 45.015625 
L 0.921875 51.859375 
L 8.6875 51.859375 
L 8.6875 57.375 
Q 8.6875 62.59375 9.625 65.140625 
Q 10.890625 68.5625 14.078125 70.671875 
Q 17.28125 72.796875 23.046875 72.796875 
Q 26.765625 72.796875 31.25 71.921875 
L 29.9375 64.265625 
Q 27.203125 64.75 24.75 64.75 
Q 20.75 64.75 19.09375 63.03125 
Q 17.4375 61.328125 17.4375 56.640625 
L 17.4375 51.859375 
L 27.546875 51.859375 
L 27.546875 45.015625 
L 17.4375 45.015625 
L 17.4375 0 
z
" id="ArialMT-66"/>
     <path id="ArialMT-20"/>
     <path d="M 52.828125 42.09375 
L 5.5625 42.09375 
L 5.5625 50.296875 
L 52.828125 50.296875 
z
M 52.828125 20.359375 
L 5.5625 20.359375 
L 5.5625 28.5625 
L 52.828125 28.5625 
z
" id="ArialMT-3d"/>
     <path d="M 8.015625 0 
L 8.015625 71.578125 
L 17.484375 71.578125 
L 17.484375 42.1875 
L 54.6875 42.1875 
L 54.6875 71.578125 
L 64.15625 71.578125 
L 64.15625 0 
L 54.6875 0 
L 54.6875 33.734375 
L 17.484375 33.734375 
L 17.484375 0 
z
" id="ArialMT-48"/>
     <path d="M 1.953125 0 
L 1.953125 7.125 
L 34.96875 45.015625 
Q 29.34375 44.734375 25.046875 44.734375 
L 3.90625 44.734375 
L 3.90625 51.859375 
L 46.296875 51.859375 
L 46.296875 46.046875 
L 18.21875 13.140625 
L 12.796875 7.125 
Q 18.703125 7.5625 23.875 7.5625 
L 47.859375 7.5625 
L 47.859375 0 
z
" id="ArialMT-7a"/>
    </defs>
    <g style="fill:#262626;" transform="translate(529.636364 364.542187)scale(0.12 -0.12)">
     <use xlink:href="#ArialMT-66"/>
     <use x="27.783203" xlink:href="#ArialMT-20"/>
     <use x="55.566406" xlink:href="#ArialMT-3d"/>
     <use x="113.964844" xlink:href="#ArialMT-20"/>
     <use x="141.748047" xlink:href="#ArialMT-38"/>
     <use x="197.363281" xlink:href="#ArialMT-30"/>
     <use x="252.978516" xlink:href="#ArialMT-30"/>
     <use x="308.59375" xlink:href="#ArialMT-20"/>
     <use x="336.376953" xlink:href="#ArialMT-48"/>
     <use x="408.59375" xlink:href="#ArialMT-7a"/>
    </g>
   </g>
   <g id="PathCollection_1">
    <defs>
     <path d="M 0 3.5 
C 0.928211 3.5 1.81853 3.131218 2.474874 2.474874 
C 3.131218 1.81853 3.5 0.928211 3.5 0 
C 3.5 -0.928211 3.131218 -1.81853 2.474874 -2.474874 
C 1.81853 -3.131218 0.928211 -3.5 0 -3.5 
C -0.928211 -3.5 -1.81853 -3.131218 -2.474874 -2.474874 
C -3.131218 -1.81853 -3.5 -0.928211 -3.5 0 
C -3.5 0.928211 -3.131218 1.81853 -2.474874 2.474874 
C -1.81853 3.131218 -0.928211 3.5 0 3.5 
z
" id="mfd9f2f8d93" style="stroke:#800000;stroke-width:0.3;"/>
    </defs>
    <g clip-path="url(#pac4d3d9dd3)">
     <use style="fill:#800000;stroke:#800000;stroke-width:0.3;" x="529.636364" xlink:href="#mfd9f2f8d93" y="481.097259"/>
    </g>
   </g>
  </g>
 </g>
 <defs>
  <clipPath id="pf084e4b59a">
   <rect height="201.6" width="558" x="90" y="69.12"/>
  </clipPath>
  <clipPath id="pac4d3d9dd3">
   <rect height="201.6" width="558" x="90" y="311.04"/>
  </clipPath>
 </defs>
</svg>
