<?xml version="1.0" encoding="utf-8" standalone="no"?>
<!DOCTYPE svg PUBLIC "-//W3C//DTD SVG 1.1//EN"
  "http://www.w3.org/Graphics/SVG/1.1/DTD/svg11.dtd">
<!-- Created with matplotlib (http://matplotlib.org/) -->
<svg height="576pt" version="1.1" viewBox="0 0 720 576" width="720pt" xmlns="http://www.w3.org/2000/svg" xmlns:xlink="http://www.w3.org/1999/xlink">
 <defs>
  <style type="text/css">
*{stroke-linecap:butt;stroke-linejoin:round;}
  </style>
 </defs>
 <g id="figure_1">
  <g id="patch_1">
   <path d="M 0 576 
L 720 576 
L 720 0 
L 0 0 
z
" style="fill:#ffffff;"/>
  </g>
  <g id="axes_1">
   <g id="patch_2">
    <path d="M 90 270.72 
L 648 270.72 
L 648 69.12 
L 90 69.12 
z
" style="fill:#ffffff;"/>
   </g>
   <g id="matplotlib.axis_1">
    <g id="xtick_1">
     <g id="line2d_1">
      <defs>
       <path d="M 0 0 
L 0 6 
" id="m873063cff1" style="stroke:#262626;"/>
      </defs>
      <g>
       <use style="fill:#262626;stroke:#262626;" x="90" xlink:href="#m873063cff1" y="270.72"/>
      </g>
     </g>
     <g id="text_1">
      <!-- 0 -->
      <defs>
       <path d="M 4.15625 35.296875 
Q 4.15625 48 6.765625 55.734375 
Q 9.375 63.484375 14.515625 67.671875 
Q 19.671875 71.875 27.484375 71.875 
Q 33.25 71.875 37.59375 69.546875 
Q 41.9375 67.234375 44.765625 62.859375 
Q 47.609375 58.5 49.21875 52.21875 
Q 50.828125 45.953125 50.828125 35.296875 
Q 50.828125 22.703125 48.234375 14.96875 
Q 45.65625 7.234375 40.5 3 
Q 35.359375 -1.21875 27.484375 -1.21875 
Q 17.140625 -1.21875 11.234375 6.203125 
Q 4.15625 15.140625 4.15625 35.296875 
z
M 13.1875 35.296875 
Q 13.1875 17.671875 17.3125 11.828125 
Q 21.4375 6 27.484375 6 
Q 33.546875 6 37.671875 11.859375 
Q 41.796875 17.71875 41.796875 35.296875 
Q 41.796875 52.984375 37.671875 58.78125 
Q 33.546875 64.59375 27.390625 64.59375 
Q 21.34375 64.59375 17.71875 59.46875 
Q 13.1875 52.9375 13.1875 35.296875 
z
" id="ArialMT-30"/>
      </defs>
      <g style="fill:#262626;" transform="translate(87.219531 290.877812)scale(0.1 -0.1)">
       <use xlink:href="#ArialMT-30"/>
      </g>
     </g>
    </g>
    <g id="xtick_2">
     <g id="line2d_2">
      <g>
       <use style="fill:#262626;stroke:#262626;" x="159.75" xlink:href="#m873063cff1" y="270.72"/>
      </g>
     </g>
     <g id="text_2">
      <!-- 100 -->
      <defs>
       <path d="M 37.25 0 
L 28.46875 0 
L 28.46875 56 
Q 25.296875 52.984375 20.140625 49.953125 
Q 14.984375 46.921875 10.890625 45.40625 
L 10.890625 53.90625 
Q 18.265625 57.375 23.78125 62.296875 
Q 29.296875 67.234375 31.59375 71.875 
L 37.25 71.875 
z
" id="ArialMT-31"/>
      </defs>
      <g style="fill:#262626;" transform="translate(151.408594 290.877812)scale(0.1 -0.1)">
       <use xlink:href="#ArialMT-31"/>
       <use x="55.615234" xlink:href="#ArialMT-30"/>
       <use x="111.230469" xlink:href="#ArialMT-30"/>
      </g>
     </g>
    </g>
    <g id="xtick_3">
     <g id="line2d_3">
      <g>
       <use style="fill:#262626;stroke:#262626;" x="229.5" xlink:href="#m873063cff1" y="270.72"/>
      </g>
     </g>
     <g id="text_3">
      <!-- 200 -->
      <defs>
       <path d="M 50.34375 8.453125 
L 50.34375 0 
L 3.03125 0 
Q 2.9375 3.171875 4.046875 6.109375 
Q 5.859375 10.9375 9.828125 15.625 
Q 13.8125 20.3125 21.34375 26.46875 
Q 33.015625 36.03125 37.109375 41.625 
Q 41.21875 47.21875 41.21875 52.203125 
Q 41.21875 57.421875 37.46875 61 
Q 33.734375 64.59375 27.734375 64.59375 
Q 21.390625 64.59375 17.578125 60.78125 
Q 13.765625 56.984375 13.71875 50.25 
L 4.6875 51.171875 
Q 5.609375 61.28125 11.65625 66.578125 
Q 17.71875 71.875 27.9375 71.875 
Q 38.234375 71.875 44.234375 66.15625 
Q 50.25 60.453125 50.25 52 
Q 50.25 47.703125 48.484375 43.546875 
Q 46.734375 39.40625 42.65625 34.8125 
Q 38.578125 30.21875 29.109375 22.21875 
Q 21.1875 15.578125 18.9375 13.203125 
Q 16.703125 10.84375 15.234375 8.453125 
z
" id="ArialMT-32"/>
      </defs>
      <g style="fill:#262626;" transform="translate(221.158594 290.877812)scale(0.1 -0.1)">
       <use xlink:href="#ArialMT-32"/>
       <use x="55.615234" xlink:href="#ArialMT-30"/>
       <use x="111.230469" xlink:href="#ArialMT-30"/>
      </g>
     </g>
    </g>
    <g id="xtick_4">
     <g id="line2d_4">
      <g>
       <use style="fill:#262626;stroke:#262626;" x="299.25" xlink:href="#m873063cff1" y="270.72"/>
      </g>
     </g>
     <g id="text_4">
      <!-- 300 -->
      <defs>
       <path d="M 4.203125 18.890625 
L 12.984375 20.0625 
Q 14.5 12.59375 18.140625 9.296875 
Q 21.78125 6 27 6 
Q 33.203125 6 37.46875 10.296875 
Q 41.75 14.59375 41.75 20.953125 
Q 41.75 27 37.796875 30.921875 
Q 33.84375 34.859375 27.734375 34.859375 
Q 25.25 34.859375 21.53125 33.890625 
L 22.515625 41.609375 
Q 23.390625 41.5 23.921875 41.5 
Q 29.546875 41.5 34.03125 44.421875 
Q 38.53125 47.359375 38.53125 53.46875 
Q 38.53125 58.296875 35.25 61.46875 
Q 31.984375 64.65625 26.8125 64.65625 
Q 21.6875 64.65625 18.265625 61.421875 
Q 14.84375 58.203125 13.875 51.765625 
L 5.078125 53.328125 
Q 6.6875 62.15625 12.390625 67.015625 
Q 18.109375 71.875 26.609375 71.875 
Q 32.46875 71.875 37.390625 69.359375 
Q 42.328125 66.84375 44.9375 62.5 
Q 47.5625 58.15625 47.5625 53.265625 
Q 47.5625 48.640625 45.0625 44.828125 
Q 42.578125 41.015625 37.703125 38.765625 
Q 44.046875 37.3125 47.5625 32.6875 
Q 51.078125 28.078125 51.078125 21.140625 
Q 51.078125 11.765625 44.234375 5.25 
Q 37.40625 -1.265625 26.953125 -1.265625 
Q 17.53125 -1.265625 11.296875 4.34375 
Q 5.078125 9.96875 4.203125 18.890625 
z
" id="ArialMT-33"/>
      </defs>
      <g style="fill:#262626;" transform="translate(290.908594 290.877812)scale(0.1 -0.1)">
       <use xlink:href="#ArialMT-33"/>
       <use x="55.615234" xlink:href="#ArialMT-30"/>
       <use x="111.230469" xlink:href="#ArialMT-30"/>
      </g>
     </g>
    </g>
    <g id="xtick_5">
     <g id="line2d_5">
      <g>
       <use style="fill:#262626;stroke:#262626;" x="369" xlink:href="#m873063cff1" y="270.72"/>
      </g>
     </g>
     <g id="text_5">
      <!-- 400 -->
      <defs>
       <path d="M 32.328125 0 
L 32.328125 17.140625 
L 1.265625 17.140625 
L 1.265625 25.203125 
L 33.9375 71.578125 
L 41.109375 71.578125 
L 41.109375 25.203125 
L 50.78125 25.203125 
L 50.78125 17.140625 
L 41.109375 17.140625 
L 41.109375 0 
z
M 32.328125 25.203125 
L 32.328125 57.46875 
L 9.90625 25.203125 
z
" id="ArialMT-34"/>
      </defs>
      <g style="fill:#262626;" transform="translate(360.658594 290.877812)scale(0.1 -0.1)">
       <use xlink:href="#ArialMT-34"/>
       <use x="55.615234" xlink:href="#ArialMT-30"/>
       <use x="111.230469" xlink:href="#ArialMT-30"/>
      </g>
     </g>
    </g>
    <g id="xtick_6">
     <g id="line2d_6">
      <g>
       <use style="fill:#262626;stroke:#262626;" x="438.75" xlink:href="#m873063cff1" y="270.72"/>
      </g>
     </g>
     <g id="text_6">
      <!-- 500 -->
      <defs>
       <path d="M 4.15625 18.75 
L 13.375 19.53125 
Q 14.40625 12.796875 18.140625 9.390625 
Q 21.875 6 27.15625 6 
Q 33.5 6 37.890625 10.78125 
Q 42.28125 15.578125 42.28125 23.484375 
Q 42.28125 31 38.0625 35.34375 
Q 33.84375 39.703125 27 39.703125 
Q 22.75 39.703125 19.328125 37.765625 
Q 15.921875 35.84375 13.96875 32.765625 
L 5.71875 33.84375 
L 12.640625 70.609375 
L 48.25 70.609375 
L 48.25 62.203125 
L 19.671875 62.203125 
L 15.828125 42.96875 
Q 22.265625 47.46875 29.34375 47.46875 
Q 38.71875 47.46875 45.15625 40.96875 
Q 51.609375 34.46875 51.609375 24.265625 
Q 51.609375 14.546875 45.953125 7.46875 
Q 39.0625 -1.21875 27.15625 -1.21875 
Q 17.390625 -1.21875 11.203125 4.25 
Q 5.03125 9.71875 4.15625 18.75 
z
" id="ArialMT-35"/>
      </defs>
      <g style="fill:#262626;" transform="translate(430.408594 290.877812)scale(0.1 -0.1)">
       <use xlink:href="#ArialMT-35"/>
       <use x="55.615234" xlink:href="#ArialMT-30"/>
       <use x="111.230469" xlink:href="#ArialMT-30"/>
      </g>
     </g>
    </g>
    <g id="xtick_7">
     <g id="line2d_7">
      <g>
       <use style="fill:#262626;stroke:#262626;" x="508.5" xlink:href="#m873063cff1" y="270.72"/>
      </g>
     </g>
     <g id="text_7">
      <!-- 600 -->
      <defs>
       <path d="M 49.75 54.046875 
L 41.015625 53.375 
Q 39.84375 58.546875 37.703125 60.890625 
Q 34.125 64.65625 28.90625 64.65625 
Q 24.703125 64.65625 21.53125 62.3125 
Q 17.390625 59.28125 14.984375 53.46875 
Q 12.59375 47.65625 12.5 36.921875 
Q 15.671875 41.75 20.265625 44.09375 
Q 24.859375 46.4375 29.890625 46.4375 
Q 38.671875 46.4375 44.84375 39.96875 
Q 51.03125 33.5 51.03125 23.25 
Q 51.03125 16.5 48.125 10.71875 
Q 45.21875 4.9375 40.140625 1.859375 
Q 35.0625 -1.21875 28.609375 -1.21875 
Q 17.625 -1.21875 10.6875 6.859375 
Q 3.765625 14.9375 3.765625 33.5 
Q 3.765625 54.25 11.421875 63.671875 
Q 18.109375 71.875 29.4375 71.875 
Q 37.890625 71.875 43.28125 67.140625 
Q 48.6875 62.40625 49.75 54.046875 
z
M 13.875 23.1875 
Q 13.875 18.65625 15.796875 14.5 
Q 17.71875 10.359375 21.1875 8.171875 
Q 24.65625 6 28.46875 6 
Q 34.03125 6 38.03125 10.484375 
Q 42.046875 14.984375 42.046875 22.703125 
Q 42.046875 30.125 38.078125 34.390625 
Q 34.125 38.671875 28.125 38.671875 
Q 22.171875 38.671875 18.015625 34.390625 
Q 13.875 30.125 13.875 23.1875 
z
" id="ArialMT-36"/>
      </defs>
      <g style="fill:#262626;" transform="translate(500.158594 290.877812)scale(0.1 -0.1)">
       <use xlink:href="#ArialMT-36"/>
       <use x="55.615234" xlink:href="#ArialMT-30"/>
       <use x="111.230469" xlink:href="#ArialMT-30"/>
      </g>
     </g>
    </g>
    <g id="xtick_8">
     <g id="line2d_8">
      <g>
       <use style="fill:#262626;stroke:#262626;" x="578.25" xlink:href="#m873063cff1" y="270.72"/>
      </g>
     </g>
     <g id="text_8">
      <!-- 700 -->
      <defs>
       <path d="M 4.734375 62.203125 
L 4.734375 70.65625 
L 51.078125 70.65625 
L 51.078125 63.8125 
Q 44.234375 56.546875 37.515625 44.484375 
Q 30.8125 32.421875 27.15625 19.671875 
Q 24.515625 10.6875 23.78125 0 
L 14.75 0 
Q 14.890625 8.453125 18.0625 20.40625 
Q 21.234375 32.375 27.171875 43.484375 
Q 33.109375 54.59375 39.796875 62.203125 
z
" id="ArialMT-37"/>
      </defs>
      <g style="fill:#262626;" transform="translate(569.908594 290.877812)scale(0.1 -0.1)">
       <use xlink:href="#ArialMT-37"/>
       <use x="55.615234" xlink:href="#ArialMT-30"/>
       <use x="111.230469" xlink:href="#ArialMT-30"/>
      </g>
     </g>
    </g>
    <g id="xtick_9">
     <g id="line2d_9">
      <g>
       <use style="fill:#262626;stroke:#262626;" x="648" xlink:href="#m873063cff1" y="270.72"/>
      </g>
     </g>
     <g id="text_9">
      <!-- 800 -->
      <defs>
       <path d="M 17.671875 38.8125 
Q 12.203125 40.828125 9.5625 44.53125 
Q 6.9375 48.25 6.9375 53.421875 
Q 6.9375 61.234375 12.546875 66.546875 
Q 18.171875 71.875 27.484375 71.875 
Q 36.859375 71.875 42.578125 66.421875 
Q 48.296875 60.984375 48.296875 53.171875 
Q 48.296875 48.1875 45.671875 44.5 
Q 43.0625 40.828125 37.75 38.8125 
Q 44.34375 36.671875 47.78125 31.875 
Q 51.21875 27.09375 51.21875 20.453125 
Q 51.21875 11.28125 44.71875 5.03125 
Q 38.234375 -1.21875 27.640625 -1.21875 
Q 17.046875 -1.21875 10.546875 5.046875 
Q 4.046875 11.328125 4.046875 20.703125 
Q 4.046875 27.6875 7.59375 32.390625 
Q 11.140625 37.109375 17.671875 38.8125 
z
M 15.921875 53.71875 
Q 15.921875 48.640625 19.1875 45.40625 
Q 22.46875 42.1875 27.6875 42.1875 
Q 32.765625 42.1875 36.015625 45.375 
Q 39.265625 48.578125 39.265625 53.21875 
Q 39.265625 58.0625 35.90625 61.359375 
Q 32.5625 64.65625 27.59375 64.65625 
Q 22.5625 64.65625 19.234375 61.421875 
Q 15.921875 58.203125 15.921875 53.71875 
z
M 13.09375 20.65625 
Q 13.09375 16.890625 14.875 13.375 
Q 16.65625 9.859375 20.171875 7.921875 
Q 23.6875 6 27.734375 6 
Q 34.03125 6 38.125 10.046875 
Q 42.234375 14.109375 42.234375 20.359375 
Q 42.234375 26.703125 38.015625 30.859375 
Q 33.796875 35.015625 27.4375 35.015625 
Q 21.234375 35.015625 17.15625 30.90625 
Q 13.09375 26.8125 13.09375 20.65625 
z
" id="ArialMT-38"/>
      </defs>
      <g style="fill:#262626;" transform="translate(639.658594 290.877812)scale(0.1 -0.1)">
       <use xlink:href="#ArialMT-38"/>
       <use x="55.615234" xlink:href="#ArialMT-30"/>
       <use x="111.230469" xlink:href="#ArialMT-30"/>
      </g>
     </g>
    </g>
   </g>
   <g id="matplotlib.axis_2">
    <g id="ytick_1">
     <g id="line2d_10">
      <defs>
       <path d="M 0 0 
L -6 0 
" id="m754436a952" style="stroke:#262626;"/>
      </defs>
      <g>
       <use style="fill:#262626;stroke:#262626;" x="90" xlink:href="#m754436a952" y="270.72"/>
      </g>
     </g>
     <g id="text_10">
      <!-- −0.20 -->
      <defs>
       <path d="M 52.828125 31.203125 
L 5.5625 31.203125 
L 5.5625 39.40625 
L 52.828125 39.40625 
z
" id="ArialMT-2212"/>
       <path d="M 9.078125 0 
L 9.078125 10.015625 
L 19.09375 10.015625 
L 19.09375 0 
z
" id="ArialMT-2e"/>
      </defs>
      <g style="fill:#262626;" transform="translate(51.698437 274.298906)scale(0.1 -0.1)">
       <use xlink:href="#ArialMT-2212"/>
       <use x="58.398438" xlink:href="#ArialMT-30"/>
       <use x="114.013672" xlink:href="#ArialMT-2e"/>
       <use x="141.796875" xlink:href="#ArialMT-32"/>
       <use x="197.412109" xlink:href="#ArialMT-30"/>
      </g>
     </g>
    </g>
    <g id="ytick_2">
     <g id="line2d_11">
      <g>
       <use style="fill:#262626;stroke:#262626;" x="90" xlink:href="#m754436a952" y="245.52"/>
      </g>
     </g>
     <g id="text_11">
      <!-- −0.15 -->
      <g style="fill:#262626;" transform="translate(51.698437 249.098906)scale(0.1 -0.1)">
       <use xlink:href="#ArialMT-2212"/>
       <use x="58.398438" xlink:href="#ArialMT-30"/>
       <use x="114.013672" xlink:href="#ArialMT-2e"/>
       <use x="141.796875" xlink:href="#ArialMT-31"/>
       <use x="197.412109" xlink:href="#ArialMT-35"/>
      </g>
     </g>
    </g>
    <g id="ytick_3">
     <g id="line2d_12">
      <g>
       <use style="fill:#262626;stroke:#262626;" x="90" xlink:href="#m754436a952" y="220.32"/>
      </g>
     </g>
     <g id="text_12">
      <!-- −0.10 -->
      <g style="fill:#262626;" transform="translate(51.698437 223.898906)scale(0.1 -0.1)">
       <use xlink:href="#ArialMT-2212"/>
       <use x="58.398438" xlink:href="#ArialMT-30"/>
       <use x="114.013672" xlink:href="#ArialMT-2e"/>
       <use x="141.796875" xlink:href="#ArialMT-31"/>
       <use x="197.412109" xlink:href="#ArialMT-30"/>
      </g>
     </g>
    </g>
    <g id="ytick_4">
     <g id="line2d_13">
      <g>
       <use style="fill:#262626;stroke:#262626;" x="90" xlink:href="#m754436a952" y="195.12"/>
      </g>
     </g>
     <g id="text_13">
      <!-- −0.05 -->
      <g style="fill:#262626;" transform="translate(51.698437 198.698906)scale(0.1 -0.1)">
       <use xlink:href="#ArialMT-2212"/>
       <use x="58.398438" xlink:href="#ArialMT-30"/>
       <use x="114.013672" xlink:href="#ArialMT-2e"/>
       <use x="141.796875" xlink:href="#ArialMT-30"/>
       <use x="197.412109" xlink:href="#ArialMT-35"/>
      </g>
     </g>
    </g>
    <g id="ytick_5">
     <g id="line2d_14">
      <g>
       <use style="fill:#262626;stroke:#262626;" x="90" xlink:href="#m754436a952" y="169.92"/>
      </g>
     </g>
     <g id="text_14">
      <!-- 0.00 -->
      <g style="fill:#262626;" transform="translate(57.539062 173.498906)scale(0.1 -0.1)">
       <use xlink:href="#ArialMT-30"/>
       <use x="55.615234" xlink:href="#ArialMT-2e"/>
       <use x="83.398438" xlink:href="#ArialMT-30"/>
       <use x="139.013672" xlink:href="#ArialMT-30"/>
      </g>
     </g>
    </g>
    <g id="ytick_6">
     <g id="line2d_15">
      <g>
       <use style="fill:#262626;stroke:#262626;" x="90" xlink:href="#m754436a952" y="144.72"/>
      </g>
     </g>
     <g id="text_15">
      <!-- 0.05 -->
      <g style="fill:#262626;" transform="translate(57.539062 148.298906)scale(0.1 -0.1)">
       <use xlink:href="#ArialMT-30"/>
       <use x="55.615234" xlink:href="#ArialMT-2e"/>
       <use x="83.398438" xlink:href="#ArialMT-30"/>
       <use x="139.013672" xlink:href="#ArialMT-35"/>
      </g>
     </g>
    </g>
    <g id="ytick_7">
     <g id="line2d_16">
      <g>
       <use style="fill:#262626;stroke:#262626;" x="90" xlink:href="#m754436a952" y="119.52"/>
      </g>
     </g>
     <g id="text_16">
      <!-- 0.10 -->
      <g style="fill:#262626;" transform="translate(57.539062 123.098906)scale(0.1 -0.1)">
       <use xlink:href="#ArialMT-30"/>
       <use x="55.615234" xlink:href="#ArialMT-2e"/>
       <use x="83.398438" xlink:href="#ArialMT-31"/>
       <use x="139.013672" xlink:href="#ArialMT-30"/>
      </g>
     </g>
    </g>
    <g id="ytick_8">
     <g id="line2d_17">
      <g>
       <use style="fill:#262626;stroke:#262626;" x="90" xlink:href="#m754436a952" y="94.32"/>
      </g>
     </g>
     <g id="text_17">
      <!-- 0.15 -->
      <g style="fill:#262626;" transform="translate(57.539062 97.898906)scale(0.1 -0.1)">
       <use xlink:href="#ArialMT-30"/>
       <use x="55.615234" xlink:href="#ArialMT-2e"/>
       <use x="83.398438" xlink:href="#ArialMT-31"/>
       <use x="139.013672" xlink:href="#ArialMT-35"/>
      </g>
     </g>
    </g>
    <g id="ytick_9">
     <g id="line2d_18">
      <g>
       <use style="fill:#262626;stroke:#262626;" x="90" xlink:href="#m754436a952" y="69.12"/>
      </g>
     </g>
     <g id="text_18">
      <!-- 0.20 -->
      <g style="fill:#262626;" transform="translate(57.539062 72.698906)scale(0.1 -0.1)">
       <use xlink:href="#ArialMT-30"/>
       <use x="55.615234" xlink:href="#ArialMT-2e"/>
       <use x="83.398438" xlink:href="#ArialMT-32"/>
       <use x="139.013672" xlink:href="#ArialMT-30"/>
      </g>
     </g>
    </g>
   </g>
   <g id="PolyCollection_1">
    <path clip-path="url(#pa3f0c7df8b)" d="M 90 159.703869 
L 90 169.92 
L 90.6975 169.92 
L 91.395 169.92 
L 92.0925 169.92 
L 92.79 169.92 
L 93.4875 169.92 
L 94.185 169.92 
L 94.8825 169.92 
L 95.58 169.92 
L 96.2775 169.92 
L 96.975 169.92 
L 97.6725 169.92 
L 98.37 169.92 
L 99.0675 169.92 
L 99.765 169.92 
L 100.4625 169.92 
L 101.16 169.92 
L 101.8575 169.92 
L 102.555 169.92 
L 103.2525 169.92 
L 103.95 169.92 
L 104.6475 169.92 
L 105.345 169.92 
L 106.0425 169.92 
L 106.74 169.92 
L 107.4375 169.92 
L 108.135 169.92 
L 108.8325 169.92 
L 109.53 169.92 
L 110.2275 169.92 
L 110.925 169.92 
L 111.6225 169.92 
L 112.32 169.92 
L 113.0175 169.92 
L 113.715 169.92 
L 114.4125 169.92 
L 115.11 169.92 
L 115.8075 169.92 
L 116.505 169.92 
L 117.2025 169.92 
L 117.9 169.92 
L 118.5975 169.92 
L 119.295 169.92 
L 119.9925 169.92 
L 120.69 169.92 
L 121.3875 169.92 
L 122.085 169.92 
L 122.7825 169.92 
L 123.48 169.92 
L 124.1775 169.92 
L 124.875 169.92 
L 125.5725 169.92 
L 126.27 169.92 
L 126.9675 169.92 
L 127.665 169.92 
L 128.3625 169.92 
L 129.06 169.92 
L 129.7575 169.92 
L 130.455 169.92 
L 131.1525 169.92 
L 131.85 169.92 
L 132.5475 169.92 
L 133.245 169.92 
L 133.9425 169.92 
L 134.64 169.92 
L 135.3375 169.92 
L 136.035 169.92 
L 136.7325 169.92 
L 137.43 169.92 
L 138.1275 169.92 
L 138.825 169.92 
L 139.5225 169.92 
L 140.22 169.92 
L 140.9175 169.92 
L 141.615 169.92 
L 142.3125 169.92 
L 143.01 169.92 
L 143.7075 169.92 
L 144.405 169.92 
L 145.1025 169.92 
L 145.8 169.92 
L 146.4975 169.92 
L 147.195 169.92 
L 147.8925 169.92 
L 148.59 169.92 
L 149.2875 169.92 
L 149.985 169.92 
L 150.6825 169.92 
L 151.38 169.92 
L 152.0775 169.92 
L 152.775 169.92 
L 153.4725 169.92 
L 154.17 169.92 
L 154.8675 169.92 
L 155.565 169.92 
L 156.2625 169.92 
L 156.96 169.92 
L 157.6575 169.92 
L 158.355 169.92 
L 159.0525 169.92 
L 159.75 169.92 
L 160.4475 169.92 
L 161.145 169.92 
L 161.8425 169.92 
L 162.54 169.92 
L 163.2375 169.92 
L 163.935 169.92 
L 164.6325 169.92 
L 165.33 169.92 
L 166.0275 169.92 
L 166.725 169.92 
L 167.4225 169.92 
L 168.12 169.92 
L 168.8175 169.92 
L 169.515 169.92 
L 170.2125 169.92 
L 170.91 169.92 
L 171.6075 169.92 
L 172.305 169.92 
L 173.0025 169.92 
L 173.7 169.92 
L 174.3975 169.92 
L 175.095 169.92 
L 175.7925 169.92 
L 176.49 169.92 
L 177.1875 169.92 
L 177.885 169.92 
L 178.5825 169.92 
L 179.28 169.92 
L 179.9775 169.92 
L 180.675 169.92 
L 181.3725 169.92 
L 182.07 169.92 
L 182.7675 169.92 
L 183.465 169.92 
L 184.1625 169.92 
L 184.86 169.92 
L 185.5575 169.92 
L 186.255 169.92 
L 186.9525 169.92 
L 187.65 169.92 
L 188.3475 169.92 
L 189.045 169.92 
L 189.7425 169.92 
L 190.44 169.92 
L 191.1375 169.92 
L 191.835 169.92 
L 192.5325 169.92 
L 193.23 169.92 
L 193.9275 169.92 
L 194.625 169.92 
L 195.3225 169.92 
L 196.02 169.92 
L 196.7175 169.92 
L 197.415 169.92 
L 198.1125 169.92 
L 198.81 169.92 
L 199.5075 169.92 
L 200.205 169.92 
L 200.9025 169.92 
L 201.6 169.92 
L 202.2975 169.92 
L 202.995 169.92 
L 203.6925 169.92 
L 204.39 169.92 
L 205.0875 169.92 
L 205.785 169.92 
L 206.4825 169.92 
L 207.18 169.92 
L 207.8775 169.92 
L 208.575 169.92 
L 209.2725 169.92 
L 209.97 169.92 
L 210.6675 169.92 
L 211.365 169.92 
L 212.0625 169.92 
L 212.76 169.92 
L 213.4575 169.92 
L 214.155 169.92 
L 214.8525 169.92 
L 215.55 169.92 
L 216.2475 169.92 
L 216.945 169.92 
L 217.6425 169.92 
L 218.34 169.92 
L 219.0375 169.92 
L 219.735 169.92 
L 220.4325 169.92 
L 221.13 169.92 
L 221.8275 169.92 
L 222.525 169.92 
L 223.2225 169.92 
L 223.92 169.92 
L 224.6175 169.92 
L 225.315 169.92 
L 226.0125 169.92 
L 226.71 169.92 
L 227.4075 169.92 
L 228.105 169.92 
L 228.8025 169.92 
L 229.5 169.92 
L 230.1975 169.92 
L 230.895 169.92 
L 231.5925 169.92 
L 232.29 169.92 
L 232.9875 169.92 
L 233.685 169.92 
L 234.3825 169.92 
L 235.08 169.92 
L 235.7775 169.92 
L 236.475 169.92 
L 237.1725 169.92 
L 237.87 169.92 
L 238.5675 169.92 
L 239.265 169.92 
L 239.9625 169.92 
L 240.66 169.92 
L 241.3575 169.92 
L 242.055 169.92 
L 242.7525 169.92 
L 243.45 169.92 
L 244.1475 169.92 
L 244.845 169.92 
L 245.5425 169.92 
L 246.24 169.92 
L 246.9375 169.92 
L 247.635 169.92 
L 248.3325 169.92 
L 249.03 169.92 
L 249.7275 169.92 
L 250.425 169.92 
L 251.1225 169.92 
L 251.82 169.92 
L 252.5175 169.92 
L 253.215 169.92 
L 253.9125 169.92 
L 254.61 169.92 
L 255.3075 169.92 
L 256.005 169.92 
L 256.7025 169.92 
L 257.4 169.92 
L 258.0975 169.92 
L 258.795 169.92 
L 259.4925 169.92 
L 260.19 169.92 
L 260.8875 169.92 
L 261.585 169.92 
L 262.2825 169.92 
L 262.98 169.92 
L 263.6775 169.92 
L 264.375 169.92 
L 265.0725 169.92 
L 265.77 169.92 
L 266.4675 169.92 
L 267.165 169.92 
L 267.8625 169.92 
L 268.56 169.92 
L 269.2575 169.92 
L 269.955 169.92 
L 270.6525 169.92 
L 271.35 169.92 
L 272.0475 169.92 
L 272.745 169.92 
L 273.4425 169.92 
L 274.14 169.92 
L 274.8375 169.92 
L 275.535 169.92 
L 276.2325 169.92 
L 276.93 169.92 
L 277.6275 169.92 
L 278.325 169.92 
L 279.0225 169.92 
L 279.72 169.92 
L 280.4175 169.92 
L 281.115 169.92 
L 281.8125 169.92 
L 282.51 169.92 
L 283.2075 169.92 
L 283.905 169.92 
L 284.6025 169.92 
L 285.3 169.92 
L 285.9975 169.92 
L 286.695 169.92 
L 287.3925 169.92 
L 288.09 169.92 
L 288.7875 169.92 
L 289.485 169.92 
L 290.1825 169.92 
L 290.88 169.92 
L 291.5775 169.92 
L 292.275 169.92 
L 292.9725 169.92 
L 293.67 169.92 
L 294.3675 169.92 
L 295.065 169.92 
L 295.7625 169.92 
L 296.46 169.92 
L 297.1575 169.92 
L 297.855 169.92 
L 298.5525 169.92 
L 299.25 169.92 
L 299.9475 169.92 
L 300.645 169.92 
L 301.3425 169.92 
L 302.04 169.92 
L 302.7375 169.92 
L 303.435 169.92 
L 304.1325 169.92 
L 304.83 169.92 
L 305.5275 169.92 
L 306.225 169.92 
L 306.9225 169.92 
L 307.62 169.92 
L 308.3175 169.92 
L 309.015 169.92 
L 309.7125 169.92 
L 310.41 169.92 
L 311.1075 169.92 
L 311.805 169.92 
L 312.5025 169.92 
L 313.2 169.92 
L 313.8975 169.92 
L 314.595 169.92 
L 315.2925 169.92 
L 315.99 169.92 
L 316.6875 169.92 
L 317.385 169.92 
L 318.0825 169.92 
L 318.78 169.92 
L 319.4775 169.92 
L 320.175 169.92 
L 320.8725 169.92 
L 321.57 169.92 
L 322.2675 169.92 
L 322.965 169.92 
L 323.6625 169.92 
L 324.36 169.92 
L 325.0575 169.92 
L 325.755 169.92 
L 326.4525 169.92 
L 327.15 169.92 
L 327.8475 169.92 
L 328.545 169.92 
L 329.2425 169.92 
L 329.94 169.92 
L 330.6375 169.92 
L 331.335 169.92 
L 332.0325 169.92 
L 332.73 169.92 
L 333.4275 169.92 
L 334.125 169.92 
L 334.8225 169.92 
L 335.52 169.92 
L 336.2175 169.92 
L 336.915 169.92 
L 337.6125 169.92 
L 338.31 169.92 
L 339.0075 169.92 
L 339.705 169.92 
L 340.4025 169.92 
L 341.1 169.92 
L 341.7975 169.92 
L 342.495 169.92 
L 343.1925 169.92 
L 343.89 169.92 
L 344.5875 169.92 
L 345.285 169.92 
L 345.9825 169.92 
L 346.68 169.92 
L 347.3775 169.92 
L 348.075 169.92 
L 348.7725 169.92 
L 349.47 169.92 
L 350.1675 169.92 
L 350.865 169.92 
L 351.5625 169.92 
L 352.26 169.92 
L 352.9575 169.92 
L 353.655 169.92 
L 354.3525 169.92 
L 355.05 169.92 
L 355.7475 169.92 
L 356.445 169.92 
L 357.1425 169.92 
L 357.84 169.92 
L 358.5375 169.92 
L 359.235 169.92 
L 359.9325 169.92 
L 360.63 169.92 
L 361.3275 169.92 
L 362.025 169.92 
L 362.7225 169.92 
L 363.42 169.92 
L 364.1175 169.92 
L 364.815 169.92 
L 365.5125 169.92 
L 366.21 169.92 
L 366.9075 169.92 
L 367.605 169.92 
L 368.3025 169.92 
L 369 169.92 
L 369.6975 169.92 
L 370.395 169.92 
L 371.0925 169.92 
L 371.79 169.92 
L 372.4875 169.92 
L 373.185 169.92 
L 373.8825 169.92 
L 374.58 169.92 
L 375.2775 169.92 
L 375.975 169.92 
L 376.6725 169.92 
L 377.37 169.92 
L 378.0675 169.92 
L 378.765 169.92 
L 379.4625 169.92 
L 380.16 169.92 
L 380.8575 169.92 
L 381.555 169.92 
L 382.2525 169.92 
L 382.95 169.92 
L 383.6475 169.92 
L 384.345 169.92 
L 385.0425 169.92 
L 385.74 169.92 
L 386.4375 169.92 
L 387.135 169.92 
L 387.8325 169.92 
L 388.53 169.92 
L 389.2275 169.92 
L 389.925 169.92 
L 390.6225 169.92 
L 391.32 169.92 
L 392.0175 169.92 
L 392.715 169.92 
L 393.4125 169.92 
L 394.11 169.92 
L 394.8075 169.92 
L 395.505 169.92 
L 396.2025 169.92 
L 396.9 169.92 
L 397.5975 169.92 
L 398.295 169.92 
L 398.9925 169.92 
L 399.69 169.92 
L 400.3875 169.92 
L 401.085 169.92 
L 401.7825 169.92 
L 402.48 169.92 
L 403.1775 169.92 
L 403.875 169.92 
L 404.5725 169.92 
L 405.27 169.92 
L 405.9675 169.92 
L 406.665 169.92 
L 407.3625 169.92 
L 408.06 169.92 
L 408.7575 169.92 
L 409.455 169.92 
L 410.1525 169.92 
L 410.85 169.92 
L 411.5475 169.92 
L 412.245 169.92 
L 412.9425 169.92 
L 413.64 169.92 
L 414.3375 169.92 
L 415.035 169.92 
L 415.7325 169.92 
L 416.43 169.92 
L 417.1275 169.92 
L 417.825 169.92 
L 418.5225 169.92 
L 419.22 169.92 
L 419.9175 169.92 
L 420.615 169.92 
L 421.3125 169.92 
L 422.01 169.92 
L 422.7075 169.92 
L 423.405 169.92 
L 424.1025 169.92 
L 424.8 169.92 
L 425.4975 169.92 
L 426.195 169.92 
L 426.8925 169.92 
L 427.59 169.92 
L 428.2875 169.92 
L 428.985 169.92 
L 429.6825 169.92 
L 430.38 169.92 
L 431.0775 169.92 
L 431.775 169.92 
L 432.4725 169.92 
L 433.17 169.92 
L 433.8675 169.92 
L 434.565 169.92 
L 435.2625 169.92 
L 435.96 169.92 
L 436.6575 169.92 
L 437.355 169.92 
L 438.0525 169.92 
L 438.75 169.92 
L 439.4475 169.92 
L 440.145 169.92 
L 440.8425 169.92 
L 441.54 169.92 
L 442.2375 169.92 
L 442.935 169.92 
L 443.6325 169.92 
L 444.33 169.92 
L 445.0275 169.92 
L 445.725 169.92 
L 446.4225 169.92 
L 447.12 169.92 
L 447.8175 169.92 
L 448.515 169.92 
L 449.2125 169.92 
L 449.91 169.92 
L 450.6075 169.92 
L 451.305 169.92 
L 452.0025 169.92 
L 452.7 169.92 
L 453.3975 169.92 
L 454.095 169.92 
L 454.7925 169.92 
L 455.49 169.92 
L 456.1875 169.92 
L 456.885 169.92 
L 457.5825 169.92 
L 458.28 169.92 
L 458.9775 169.92 
L 459.675 169.92 
L 460.3725 169.92 
L 461.07 169.92 
L 461.7675 169.92 
L 462.465 169.92 
L 463.1625 169.92 
L 463.86 169.92 
L 464.5575 169.92 
L 465.255 169.92 
L 465.9525 169.92 
L 466.65 169.92 
L 467.3475 169.92 
L 468.045 169.92 
L 468.7425 169.92 
L 469.44 169.92 
L 470.1375 169.92 
L 470.835 169.92 
L 471.5325 169.92 
L 472.23 169.92 
L 472.9275 169.92 
L 473.625 169.92 
L 474.3225 169.92 
L 475.02 169.92 
L 475.7175 169.92 
L 476.415 169.92 
L 477.1125 169.92 
L 477.81 169.92 
L 478.5075 169.92 
L 479.205 169.92 
L 479.9025 169.92 
L 480.6 169.92 
L 481.2975 169.92 
L 481.995 169.92 
L 482.6925 169.92 
L 483.39 169.92 
L 484.0875 169.92 
L 484.785 169.92 
L 485.4825 169.92 
L 486.18 169.92 
L 486.8775 169.92 
L 487.575 169.92 
L 488.2725 169.92 
L 488.97 169.92 
L 489.6675 169.92 
L 490.365 169.92 
L 491.0625 169.92 
L 491.76 169.92 
L 492.4575 169.92 
L 493.155 169.92 
L 493.8525 169.92 
L 494.55 169.92 
L 495.2475 169.92 
L 495.945 169.92 
L 496.6425 169.92 
L 497.34 169.92 
L 498.0375 169.92 
L 498.735 169.92 
L 499.4325 169.92 
L 500.13 169.92 
L 500.8275 169.92 
L 501.525 169.92 
L 502.2225 169.92 
L 502.92 169.92 
L 503.6175 169.92 
L 504.315 169.92 
L 505.0125 169.92 
L 505.71 169.92 
L 506.4075 169.92 
L 507.105 169.92 
L 507.8025 169.92 
L 508.5 169.92 
L 509.1975 169.92 
L 509.895 169.92 
L 510.5925 169.92 
L 511.29 169.92 
L 511.9875 169.92 
L 512.685 169.92 
L 513.3825 169.92 
L 514.08 169.92 
L 514.7775 169.92 
L 515.475 169.92 
L 516.1725 169.92 
L 516.87 169.92 
L 517.5675 169.92 
L 518.265 169.92 
L 518.9625 169.92 
L 519.66 169.92 
L 520.3575 169.92 
L 521.055 169.92 
L 521.7525 169.92 
L 522.45 169.92 
L 523.1475 169.92 
L 523.845 169.92 
L 524.5425 169.92 
L 525.24 169.92 
L 525.9375 169.92 
L 526.635 169.92 
L 527.3325 169.92 
L 528.03 169.92 
L 528.7275 169.92 
L 529.425 169.92 
L 530.1225 169.92 
L 530.82 169.92 
L 531.5175 169.92 
L 532.215 169.92 
L 532.9125 169.92 
L 533.61 169.92 
L 534.3075 169.92 
L 535.005 169.92 
L 535.7025 169.92 
L 536.4 169.92 
L 537.0975 169.92 
L 537.795 169.92 
L 538.4925 169.92 
L 539.19 169.92 
L 539.8875 169.92 
L 540.585 169.92 
L 541.2825 169.92 
L 541.98 169.92 
L 542.6775 169.92 
L 543.375 169.92 
L 544.0725 169.92 
L 544.77 169.92 
L 545.4675 169.92 
L 546.165 169.92 
L 546.8625 169.92 
L 547.56 169.92 
L 548.2575 169.92 
L 548.955 169.92 
L 549.6525 169.92 
L 550.35 169.92 
L 551.0475 169.92 
L 551.745 169.92 
L 552.4425 169.92 
L 553.14 169.92 
L 553.8375 169.92 
L 554.535 169.92 
L 555.2325 169.92 
L 555.93 169.92 
L 556.6275 169.92 
L 557.325 169.92 
L 558.0225 169.92 
L 558.72 169.92 
L 559.4175 169.92 
L 560.115 169.92 
L 560.8125 169.92 
L 561.51 169.92 
L 562.2075 169.92 
L 562.905 169.92 
L 563.6025 169.92 
L 564.3 169.92 
L 564.9975 169.92 
L 565.695 169.92 
L 566.3925 169.92 
L 567.09 169.92 
L 567.7875 169.92 
L 568.485 169.92 
L 569.1825 169.92 
L 569.88 169.92 
L 570.5775 169.92 
L 571.275 169.92 
L 571.9725 169.92 
L 572.67 169.92 
L 573.3675 169.92 
L 574.065 169.92 
L 574.7625 169.92 
L 575.46 169.92 
L 576.1575 169.92 
L 576.855 169.92 
L 577.5525 169.92 
L 578.25 169.92 
L 578.9475 169.92 
L 579.645 169.92 
L 580.3425 169.92 
L 581.04 169.92 
L 581.7375 169.92 
L 582.435 169.92 
L 583.1325 169.92 
L 583.83 169.92 
L 584.5275 169.92 
L 585.225 169.92 
L 585.9225 169.92 
L 586.62 169.92 
L 587.3175 169.92 
L 588.015 169.92 
L 588.7125 169.92 
L 589.41 169.92 
L 590.1075 169.92 
L 590.805 169.92 
L 591.5025 169.92 
L 592.2 169.92 
L 592.8975 169.92 
L 593.595 169.92 
L 594.2925 169.92 
L 594.99 169.92 
L 595.6875 169.92 
L 596.385 169.92 
L 597.0825 169.92 
L 597.78 169.92 
L 598.4775 169.92 
L 599.175 169.92 
L 599.8725 169.92 
L 600.57 169.92 
L 601.2675 169.92 
L 601.965 169.92 
L 602.6625 169.92 
L 603.36 169.92 
L 604.0575 169.92 
L 604.755 169.92 
L 605.4525 169.92 
L 606.15 169.92 
L 606.8475 169.92 
L 607.545 169.92 
L 608.2425 169.92 
L 608.94 169.92 
L 609.6375 169.92 
L 610.335 169.92 
L 611.0325 169.92 
L 611.73 169.92 
L 612.4275 169.92 
L 613.125 169.92 
L 613.8225 169.92 
L 614.52 169.92 
L 615.2175 169.92 
L 615.915 169.92 
L 616.6125 169.92 
L 617.31 169.92 
L 618.0075 169.92 
L 618.705 169.92 
L 619.4025 169.92 
L 620.1 169.92 
L 620.7975 169.92 
L 621.495 169.92 
L 622.1925 169.92 
L 622.89 169.92 
L 623.5875 169.92 
L 624.285 169.92 
L 624.9825 169.92 
L 625.68 169.92 
L 626.3775 169.92 
L 627.075 169.92 
L 627.7725 169.92 
L 628.47 169.92 
L 629.1675 169.92 
L 629.865 169.92 
L 630.5625 169.92 
L 631.26 169.92 
L 631.9575 169.92 
L 632.655 169.92 
L 633.3525 169.92 
L 634.05 169.92 
L 634.7475 169.92 
L 635.445 169.92 
L 636.1425 169.92 
L 636.84 169.92 
L 637.5375 169.92 
L 638.235 169.92 
L 638.9325 169.92 
L 639.63 169.92 
L 640.3275 169.92 
L 641.025 169.92 
L 641.7225 169.92 
L 642.42 169.92 
L 643.1175 169.92 
L 643.815 169.92 
L 644.5125 169.92 
L 645.21 169.92 
L 645.9075 169.92 
L 646.605 169.92 
L 646.605 169.92 
L 646.605 169.92 
L 645.9075 169.923649 
L 645.21 169.932196 
L 644.5125 169.946838 
L 643.815 169.968718 
L 643.1175 169.998907 
L 642.42 170.038394 
L 641.7225 170.08808 
L 641.025 170.148763 
L 640.3275 170.221135 
L 639.63 170.305772 
L 638.9325 170.403127 
L 638.235 170.513526 
L 637.5375 170.637162 
L 636.84 170.774094 
L 636.1425 170.924242 
L 635.445 171.087386 
L 634.7475 171.263171 
L 634.05 171.4511 
L 633.3525 171.650543 
L 632.655 171.860738 
L 631.9575 172.080795 
L 631.26 172.309704 
L 630.5625 172.546337 
L 629.865 172.789462 
L 629.1675 173.037746 
L 628.47 173.289765 
L 627.7725 173.544019 
L 627.075 173.798937 
L 626.3775 174.052889 
L 625.68 174.304202 
L 624.9825 174.551168 
L 624.285 174.792058 
L 623.5875 175.025135 
L 622.89 175.248668 
L 622.1925 175.460941 
L 621.495 175.66027 
L 620.7975 175.845014 
L 620.1 176.013584 
L 619.4025 176.164463 
L 618.705 176.296208 
L 618.0075 176.407468 
L 617.31 176.49699 
L 616.6125 176.56363 
L 615.915 176.606364 
L 615.2175 176.624289 
L 614.52 176.616639 
L 613.8225 176.582783 
L 613.125 176.522234 
L 612.4275 176.434655 
L 611.73 176.319854 
L 611.0325 176.177795 
L 610.335 176.008593 
L 609.6375 175.812516 
L 608.94 175.589981 
L 608.2425 175.341556 
L 607.545 175.067951 
L 606.8475 174.770017 
L 606.15 174.448743 
L 605.4525 174.105242 
L 604.755 173.740751 
L 604.0575 173.356621 
L 603.36 172.954308 
L 602.6625 172.535362 
L 601.965 172.101421 
L 601.2675 171.654198 
L 600.57 171.195471 
L 599.8725 170.727074 
L 599.175 170.250882 
L 598.4775 169.768804 
L 597.78 169.282768 
L 597.0825 168.794714 
L 596.385 168.306579 
L 595.6875 167.820288 
L 594.99 167.337743 
L 594.2925 166.860814 
L 593.595 166.391328 
L 592.8975 165.931059 
L 592.2 165.481725 
L 591.5025 165.04497 
L 590.805 164.622366 
L 590.1075 164.215403 
L 589.41 163.825482 
L 588.7125 163.45391 
L 588.015 163.1019 
L 587.3175 162.770561 
L 586.62 162.460902 
L 585.9225 162.173824 
L 585.225 161.910124 
L 584.5275 161.670492 
L 583.83 161.455512 
L 583.1325 161.265666 
L 582.435 161.101329 
L 581.7375 160.962781 
L 581.04 160.850203 
L 580.3425 160.763683 
L 579.645 160.70322 
L 578.9475 160.668731 
L 578.25 160.660052 
L 577.5525 160.676946 
L 576.855 160.719107 
L 576.1575 160.786169 
L 575.46 160.877706 
L 574.7625 160.993244 
L 574.065 161.132262 
L 573.3675 161.2942 
L 572.67 161.478464 
L 571.9725 161.684432 
L 571.275 161.911456 
L 570.5775 162.15887 
L 569.88 162.425995 
L 569.1825 162.712137 
L 568.485 163.016597 
L 567.7875 163.338671 
L 567.09 163.677649 
L 566.3925 164.032824 
L 565.695 164.403488 
L 564.9975 164.788934 
L 564.3 165.188457 
L 563.6025 165.601351 
L 562.905 166.026912 
L 562.2075 166.464436 
L 561.51 166.913213 
L 560.8125 167.37253 
L 560.115 167.841666 
L 559.4175 168.319889 
L 558.72 168.806453 
L 558.0225 169.300596 
L 557.325 169.801533 
L 556.6275 170.308457 
L 555.93 170.820532 
L 555.2325 171.336889 
L 554.535 171.856626 
L 553.8375 172.378799 
L 553.14 172.902426 
L 552.4425 173.426476 
L 551.745 173.949872 
L 551.0475 174.47149 
L 550.35 174.990151 
L 549.6525 175.504625 
L 548.955 176.013631 
L 548.2575 176.515832 
L 547.56 177.009842 
L 546.8625 177.494222 
L 546.165 177.967486 
L 545.4675 178.428104 
L 544.77 178.874501 
L 544.0725 179.305067 
L 543.375 179.71816 
L 542.6775 180.112111 
L 541.98 180.485232 
L 541.2825 180.835822 
L 540.585 181.162178 
L 539.8875 181.462599 
L 539.19 181.735401 
L 538.4925 181.978921 
L 537.795 182.191531 
L 537.0975 182.371647 
L 536.4 182.517741 
L 535.7025 182.628352 
L 535.005 182.702094 
L 534.3075 182.737675 
L 533.61 182.733899 
L 532.9125 182.689685 
L 532.215 182.604073 
L 531.5175 182.476237 
L 530.82 182.305496 
L 530.1225 182.091321 
L 529.425 181.833347 
L 528.7275 181.53138 
L 528.03 181.185406 
L 527.3325 180.795595 
L 526.635 180.362312 
L 525.9375 179.886118 
L 525.24 179.367774 
L 524.5425 178.808247 
L 523.845 178.208708 
L 523.1475 177.570536 
L 522.45 176.895312 
L 521.7525 176.184824 
L 521.055 175.441056 
L 520.3575 174.66619 
L 519.66 173.862596 
L 518.9625 173.032826 
L 518.265 172.179605 
L 517.5675 171.30582 
L 516.87 170.414514 
L 516.1725 169.508868 
L 515.475 168.592189 
L 514.7775 167.667899 
L 514.08 166.739518 
L 513.3825 165.810647 
L 512.685 164.88495 
L 511.9875 163.966142 
L 511.29 163.057965 
L 510.5925 162.164172 
L 509.895 161.28851 
L 509.1975 160.434697 
L 508.5 159.606406 
L 507.8025 158.807245 
L 507.105 158.040737 
L 506.4075 157.310304 
L 505.71 156.619243 
L 505.0125 155.970715 
L 504.315 155.367723 
L 503.6175 154.813099 
L 502.92 154.309484 
L 502.2225 153.859318 
L 501.525 153.464821 
L 500.8275 153.127986 
L 500.13 152.850564 
L 499.4325 152.634054 
L 498.735 152.479698 
L 498.0375 152.388469 
L 497.34 152.361065 
L 496.6425 152.397911 
L 495.945 152.499149 
L 495.2475 152.664641 
L 494.55 152.893965 
L 493.8525 153.186424 
L 493.155 153.54104 
L 492.4575 153.956569 
L 491.76 154.431497 
L 491.0625 154.964055 
L 490.365 155.552227 
L 489.6675 156.193756 
L 488.97 156.886162 
L 488.2725 157.62675 
L 487.575 158.412625 
L 486.8775 159.240708 
L 486.18 160.107751 
L 485.4825 161.010353 
L 484.785 161.944977 
L 484.0875 162.90797 
L 483.39 163.895579 
L 482.6925 164.903969 
L 481.995 165.929243 
L 481.2975 166.96746 
L 480.6 168.014655 
L 479.9025 169.066856 
L 479.205 170.120104 
L 478.5075 171.170469 
L 477.81 172.21407 
L 477.1125 173.247089 
L 476.415 174.26579 
L 475.7175 175.266535 
L 475.02 176.245794 
L 474.3225 177.200165 
L 473.625 178.126383 
L 472.9275 179.021335 
L 472.23 179.882066 
L 471.5325 180.705795 
L 470.835 181.489917 
L 470.1375 182.232018 
L 469.44 182.929875 
L 468.7425 183.581462 
L 468.045 184.184957 
L 467.3475 184.738744 
L 466.65 185.241413 
L 465.9525 185.691762 
L 465.255 186.088793 
L 464.5575 186.431719 
L 463.86 186.719951 
L 463.1625 186.953103 
L 462.465 187.130983 
L 461.7675 187.253589 
L 461.07 187.321104 
L 460.3725 187.33389 
L 459.675 187.292479 
L 458.9775 187.197567 
L 458.28 187.050007 
L 457.5825 186.850798 
L 456.885 186.601079 
L 456.1875 186.302118 
L 455.49 185.955307 
L 454.7925 185.562149 
L 454.095 185.12425 
L 453.3975 184.643313 
L 452.7 184.121127 
L 452.0025 183.559557 
L 451.305 182.960542 
L 450.6075 182.32608 
L 449.91 181.658224 
L 449.2125 180.959077 
L 448.515 180.230779 
L 447.8175 179.475509 
L 447.12 178.695472 
L 446.4225 177.892898 
L 445.725 177.070035 
L 445.0275 176.229144 
L 444.33 175.372499 
L 443.6325 174.502378 
L 442.935 173.621063 
L 442.2375 172.730837 
L 441.54 171.833981 
L 440.8425 170.93277 
L 440.145 170.029474 
L 439.4475 169.126357 
L 438.75 168.225669 
L 438.0525 167.329654 
L 437.355 166.440539 
L 436.6575 165.560541 
L 435.96 164.69186 
L 435.2625 163.836681 
L 434.565 162.99717 
L 433.8675 162.175472 
L 433.17 161.373714 
L 432.4725 160.593996 
L 431.775 159.838394 
L 431.0775 159.108953 
L 430.38 158.407687 
L 429.6825 157.736575 
L 428.985 157.097556 
L 428.2875 156.492524 
L 427.59 155.923329 
L 426.8925 155.391762 
L 426.195 154.89956 
L 425.4975 154.448393 
L 424.8 154.039861 
L 424.1025 153.675486 
L 423.405 153.356706 
L 422.7075 153.08487 
L 422.01 152.861227 
L 421.3125 152.686919 
L 420.615 152.562977 
L 419.9175 152.49031 
L 419.22 152.469698 
L 418.5225 152.501786 
L 417.825 152.587074 
L 417.1275 152.725911 
L 416.43 152.918492 
L 415.7325 153.164843 
L 415.035 153.464823 
L 414.3375 153.818116 
L 413.64 154.224221 
L 412.9425 154.682456 
L 412.245 155.19195 
L 411.5475 155.751637 
L 410.85 156.360262 
L 410.1525 157.016372 
L 409.455 157.718321 
L 408.7575 158.464269 
L 408.06 159.252185 
L 407.3625 160.079846 
L 406.665 160.944849 
L 405.9675 161.844607 
L 405.27 162.776362 
L 404.5725 163.73719 
L 403.875 164.72401 
L 403.1775 165.733592 
L 402.48 166.762572 
L 401.7825 167.807457 
L 401.085 168.864645 
L 400.3875 169.930434 
L 399.69 171.001036 
L 398.9925 172.072598 
L 398.295 173.141211 
L 397.5975 174.202931 
L 396.9 175.253796 
L 396.2025 176.289841 
L 395.505 177.307121 
L 394.8075 178.301724 
L 394.11 179.269794 
L 393.4125 180.207545 
L 392.715 181.111285 
L 392.0175 181.977429 
L 391.32 182.802521 
L 390.6225 183.58325 
L 389.925 184.316465 
L 389.2275 184.999196 
L 388.53 185.628664 
L 387.8325 186.202303 
L 387.135 186.717765 
L 386.4375 187.172941 
L 385.74 187.565966 
L 385.0425 187.895235 
L 384.345 188.159409 
L 383.6475 188.35742 
L 382.95 188.488486 
L 382.2525 188.552105 
L 381.555 188.548066 
L 380.8575 188.476449 
L 380.16 188.337622 
L 379.4625 188.132245 
L 378.765 187.861263 
L 378.0675 187.525901 
L 377.37 187.127662 
L 376.6725 186.668316 
L 375.975 186.149892 
L 375.2775 185.57467 
L 374.58 184.945163 
L 373.8825 184.264111 
L 373.185 183.534464 
L 372.4875 182.759365 
L 371.79 181.942137 
L 371.0925 181.086263 
L 370.395 180.19537 
L 369.6975 179.27321 
L 369 178.32364 
L 368.3025 177.350602 
L 367.605 176.358107 
L 366.9075 175.350209 
L 366.21 174.33099 
L 365.5125 173.304534 
L 364.815 172.274915 
L 364.1175 171.24617 
L 363.42 170.222284 
L 362.7225 169.207171 
L 362.025 168.204654 
L 361.3275 167.218449 
L 360.63 166.252149 
L 359.9325 165.309206 
L 359.235 164.392922 
L 358.5375 163.50643 
L 357.84 162.652684 
L 357.1425 161.834449 
L 356.445 161.054289 
L 355.7475 160.314562 
L 355.05 159.617408 
L 354.3525 158.964749 
L 353.655 158.35828 
L 352.9575 157.79947 
L 352.26 157.289557 
L 351.5625 156.829549 
L 350.865 156.420227 
L 350.1675 156.062143 
L 349.47 155.755629 
L 348.7725 155.500796 
L 348.075 155.297545 
L 347.3775 155.145571 
L 346.68 155.044371 
L 345.9825 154.993253 
L 345.285 154.991348 
L 344.5875 155.037614 
L 343.89 155.130855 
L 343.1925 155.269724 
L 342.495 155.452743 
L 341.7975 155.678307 
L 341.1 155.944705 
L 340.4025 156.250123 
L 339.705 156.592664 
L 339.0075 156.970358 
L 338.31 157.381172 
L 337.6125 157.823027 
L 336.915 158.293805 
L 336.2175 158.791361 
L 335.52 159.313538 
L 334.8225 159.858172 
L 334.125 160.423105 
L 333.4275 161.006194 
L 332.73 161.605317 
L 332.0325 162.218386 
L 331.335 162.843346 
L 330.6375 163.478189 
L 329.94 164.120956 
L 329.2425 164.769741 
L 328.545 165.422696 
L 327.8475 166.078035 
L 327.15 166.734035 
L 326.4525 167.389037 
L 325.755 168.041451 
L 325.0575 168.689751 
L 324.36 169.332479 
L 323.6625 169.96824 
L 322.965 170.595708 
L 322.2675 171.213613 
L 321.57 171.820751 
L 320.8725 172.415973 
L 320.175 172.998185 
L 319.4775 173.566345 
L 318.78 174.119461 
L 318.0825 174.656585 
L 317.385 175.176814 
L 316.6875 175.679283 
L 315.99 176.163162 
L 315.2925 176.627658 
L 314.595 177.072005 
L 313.8975 177.49547 
L 313.2 177.897342 
L 312.5025 178.276939 
L 311.805 178.633602 
L 311.1075 178.966692 
L 310.41 179.275595 
L 309.7125 179.55972 
L 309.015 179.818498 
L 308.3175 180.051385 
L 307.62 180.257862 
L 306.9225 180.437438 
L 306.225 180.589653 
L 305.5275 180.714077 
L 304.83 180.81032 
L 304.1325 180.878029 
L 303.435 180.916897 
L 302.7375 180.926662 
L 302.04 180.907116 
L 301.3425 180.858108 
L 300.645 180.779548 
L 299.9475 180.671413 
L 299.25 180.533749 
L 298.5525 180.366679 
L 297.855 180.170407 
L 297.1575 179.945221 
L 296.46 179.691495 
L 295.7625 179.409699 
L 295.065 179.100396 
L 294.3675 178.764249 
L 293.67 178.402019 
L 292.9725 178.014573 
L 292.275 177.602878 
L 291.5775 177.168009 
L 290.88 176.711141 
L 290.1825 176.233555 
L 289.485 175.736631 
L 288.7875 175.22185 
L 288.09 174.690786 
L 287.3925 174.145106 
L 286.695 173.586565 
L 285.9975 173.016997 
L 285.3 172.438311 
L 284.6025 171.852484 
L 283.905 171.261552 
L 283.2075 170.667604 
L 282.51 170.072769 
L 281.8125 169.479211 
L 281.115 168.889112 
L 280.4175 168.304671 
L 279.72 167.728082 
L 279.0225 167.161532 
L 278.325 166.607185 
L 277.6275 166.067169 
L 276.93 165.543567 
L 276.2325 165.038406 
L 275.535 164.553642 
L 274.8375 164.09115 
L 274.14 163.652714 
L 273.4425 163.240015 
L 272.745 162.854622 
L 272.0475 162.49798 
L 271.35 162.171403 
L 270.6525 161.876065 
L 269.955 161.612992 
L 269.2575 161.383056 
L 268.56 161.186967 
L 267.8625 161.025273 
L 267.165 160.898351 
L 266.4675 160.806406 
L 265.77 160.749469 
L 265.0725 160.727399 
L 264.375 160.739879 
L 263.6775 160.786422 
L 262.98 160.866371 
L 262.2825 160.978903 
L 261.585 161.123036 
L 260.8875 161.297634 
L 260.19 161.501414 
L 259.4925 161.732952 
L 258.795 161.990698 
L 258.0975 162.272979 
L 257.4 162.578015 
L 256.7025 162.903927 
L 256.005 163.248752 
L 255.3075 163.610454 
L 254.61 163.986937 
L 253.9125 164.376061 
L 253.215 164.775651 
L 252.5175 165.183518 
L 251.82 165.597465 
L 251.1225 166.015309 
L 250.425 166.43489 
L 249.7275 166.854086 
L 249.03 167.270826 
L 248.3325 167.683105 
L 247.635 168.088993 
L 246.9375 168.486651 
L 246.24 168.874337 
L 245.5425 169.250422 
L 244.845 169.613394 
L 244.1475 169.961871 
L 243.45 170.294605 
L 242.7525 170.61049 
L 242.055 170.908569 
L 241.3575 171.188035 
L 240.66 171.448234 
L 239.9625 171.68867 
L 239.265 171.909004 
L 238.5675 172.109052 
L 237.87 172.288785 
L 237.1725 172.448326 
L 236.475 172.587944 
L 235.7775 172.708051 
L 235.08 172.809196 
L 234.3825 172.892055 
L 233.685 172.957425 
L 232.9875 173.006216 
L 232.29 173.039438 
L 231.5925 173.058193 
L 230.895 173.063662 
L 230.1975 173.057095 
L 229.5 173.039797 
L 228.8025 173.01312 
L 228.105 172.978442 
L 227.4075 172.937163 
L 226.71 172.890687 
L 226.0125 172.840411 
L 225.315 172.787711 
L 224.6175 172.733931 
L 223.92 172.680371 
L 223.2225 172.628276 
L 222.525 172.578826 
L 221.8275 172.53312 
L 221.13 172.492175 
L 220.4325 172.456913 
L 219.735 172.428153 
L 219.0375 172.406604 
L 218.34 172.392863 
L 217.6425 172.387405 
L 216.945 172.390583 
L 216.2475 172.402623 
L 215.55 172.423626 
L 214.8525 172.453564 
L 214.155 172.492281 
L 213.4575 172.539499 
L 212.76 172.594816 
L 212.0625 172.657712 
L 211.365 172.727554 
L 210.6675 172.803604 
L 209.97 172.88502 
L 209.2725 172.970872 
L 208.575 173.060144 
L 207.8775 173.151744 
L 207.18 173.244518 
L 206.4825 173.337256 
L 205.785 173.428705 
L 205.0875 173.517579 
L 204.39 173.602572 
L 203.6925 173.682368 
L 202.995 173.755655 
L 202.2975 173.821134 
L 201.6 173.87753 
L 200.9025 173.923609 
L 200.205 173.958181 
L 199.5075 173.980117 
L 198.81 173.988357 
L 198.1125 173.981919 
L 197.415 173.959905 
L 196.7175 173.921518 
L 196.02 173.86606 
L 195.3225 173.792942 
L 194.625 173.701693 
L 193.9275 173.591959 
L 193.23 173.46351 
L 192.5325 173.316244 
L 191.835 173.150186 
L 191.1375 172.96549 
L 190.44 172.762437 
L 189.7425 172.541439 
L 189.045 172.303029 
L 188.3475 172.047867 
L 187.65 171.776725 
L 186.9525 171.490494 
L 186.255 171.190167 
L 185.5575 170.87684 
L 184.86 170.551703 
L 184.1625 170.216027 
L 183.465 169.871165 
L 182.7675 169.518533 
L 182.07 169.159607 
L 181.3725 168.795911 
L 180.675 168.429005 
L 179.9775 168.060479 
L 179.28 167.691939 
L 178.5825 167.324998 
L 177.885 166.961263 
L 177.1875 166.602331 
L 176.49 166.249773 
L 175.7925 165.905127 
L 175.095 165.569887 
L 174.3975 165.245498 
L 173.7 164.933343 
L 173.0025 164.634739 
L 172.305 164.350927 
L 171.6075 164.08307 
L 170.91 163.832243 
L 170.2125 163.599428 
L 169.515 163.385515 
L 168.8175 163.191293 
L 168.12 163.017452 
L 167.4225 162.864578 
L 166.725 162.733153 
L 166.0275 162.623558 
L 165.33 162.536069 
L 164.6325 162.470861 
L 163.935 162.428011 
L 163.2375 162.407501 
L 162.54 162.409218 
L 161.8425 162.432963 
L 161.145 162.478451 
L 160.4475 162.545323 
L 159.75 162.633143 
L 159.0525 162.741409 
L 158.355 162.869561 
L 157.6575 163.016982 
L 156.96 163.183009 
L 156.2625 163.366937 
L 155.565 163.568028 
L 154.8675 163.785515 
L 154.17 164.01861 
L 153.4725 164.266511 
L 152.775 164.528405 
L 152.0775 164.803477 
L 151.38 165.090912 
L 150.6825 165.389904 
L 149.985 165.699656 
L 149.2875 166.019385 
L 148.59 166.348328 
L 147.8925 166.685741 
L 147.195 167.030903 
L 146.4975 167.383118 
L 145.8 167.741714 
L 145.1025 168.106044 
L 144.405 168.475489 
L 143.7075 168.84945 
L 143.01 169.227354 
L 142.3125 169.608648 
L 141.615 169.992797 
L 140.9175 170.37928 
L 140.22 170.76759 
L 139.5225 171.157228 
L 138.825 171.547698 
L 138.1275 171.938507 
L 137.43 172.329153 
L 136.7325 172.71913 
L 136.035 173.107915 
L 135.3375 173.494969 
L 134.64 173.879729 
L 133.9425 174.261606 
L 133.245 174.639981 
L 132.5475 175.0142 
L 131.85 175.383569 
L 131.1525 175.747355 
L 130.455 176.104781 
L 129.7575 176.455025 
L 129.06 176.797218 
L 128.3625 177.130443 
L 127.665 177.453736 
L 126.9675 177.766086 
L 126.27 178.066436 
L 125.5725 178.353685 
L 124.875 178.626695 
L 124.1775 178.884287 
L 123.48 179.125251 
L 122.7825 179.348352 
L 122.085 179.55233 
L 121.3875 179.735912 
L 120.69 179.897818 
L 119.9925 180.036767 
L 119.295 180.151489 
L 118.5975 180.240729 
L 117.9 180.30326 
L 117.2025 180.337894 
L 116.505 180.343487 
L 115.8075 180.318954 
L 115.11 180.263277 
L 114.4125 180.175517 
L 113.715 180.054824 
L 113.0175 179.900444 
L 112.32 179.711737 
L 111.6225 179.488179 
L 110.925 179.229374 
L 110.2275 178.935066 
L 109.53 178.605142 
L 108.8325 178.239644 
L 108.135 177.838773 
L 107.4375 177.402898 
L 106.74 176.932559 
L 106.0425 176.42847 
L 105.345 175.891527 
L 104.6475 175.322804 
L 103.95 174.723559 
L 103.2525 174.09523 
L 102.555 173.439437 
L 101.8575 172.757976 
L 101.16 172.052818 
L 100.4625 171.326102 
L 99.765 170.580129 
L 99.0675 169.817355 
L 98.37 169.040382 
L 97.6725 168.251947 
L 96.975 167.454914 
L 96.2775 166.652257 
L 95.58 165.847052 
L 94.8825 165.04246 
L 94.185 164.241713 
L 93.4875 163.448099 
L 92.79 162.664944 
L 92.0925 161.895598 
L 91.395 161.143414 
L 90.6975 160.411734 
L 90 159.703869 
z
" style="fill:#e0ffff;"/>
   </g>
   <g id="line2d_19">
    <path clip-path="url(#pa3f0c7df8b)" d="M 90 159.703869 
L 92.79 162.664944 
L 101.8575 172.757976 
L 103.95 174.723559 
L 106.0425 176.42847 
L 108.135 177.838773 
L 110.2275 178.935066 
L 112.32 179.711737 
L 114.4125 180.175517 
L 116.505 180.343487 
L 118.5975 180.240729 
L 120.69 179.897818 
L 122.7825 179.348352 
L 125.5725 178.353685 
L 128.3625 177.130443 
L 132.5475 175.0142 
L 139.5225 171.157228 
L 146.4975 167.383118 
L 150.6825 165.389904 
L 153.4725 164.266511 
L 156.2625 163.366937 
L 159.0525 162.741409 
L 161.145 162.478451 
L 163.2375 162.407501 
L 165.33 162.536069 
L 167.4225 162.864578 
L 169.515 163.385515 
L 172.305 164.350927 
L 175.095 165.569887 
L 179.28 167.691939 
L 184.86 170.551703 
L 187.65 171.776725 
L 190.44 172.762437 
L 193.23 173.46351 
L 196.02 173.86606 
L 198.81 173.988357 
L 201.6 173.87753 
L 205.785 173.428705 
L 212.76 172.594816 
L 216.2475 172.402623 
L 219.735 172.428153 
L 224.6175 172.733931 
L 230.1975 173.057095 
L 232.9875 173.006216 
L 235.7775 172.708051 
L 237.87 172.288785 
L 239.9625 171.68867 
L 242.7525 170.61049 
L 245.5425 169.250422 
L 249.03 167.270826 
L 255.3075 163.610454 
L 258.0975 162.272979 
L 260.19 161.501414 
L 262.2825 160.978903 
L 264.375 160.739879 
L 266.4675 160.806406 
L 268.56 161.186967 
L 270.6525 161.876065 
L 272.745 162.854622 
L 274.8375 164.09115 
L 277.6275 166.067169 
L 281.115 168.889112 
L 288.09 174.690786 
L 290.88 176.711141 
L 292.9725 178.014573 
L 295.065 179.100396 
L 297.1575 179.945221 
L 299.25 180.533749 
L 301.3425 180.858108 
L 303.435 180.916897 
L 305.5275 180.714077 
L 307.62 180.257862 
L 309.7125 179.55972 
L 311.805 178.633602 
L 313.8975 177.49547 
L 316.6875 175.679283 
L 319.4775 173.566345 
L 322.965 170.595708 
L 327.8475 166.078035 
L 332.73 161.605317 
L 335.52 159.313538 
L 337.6125 157.823027 
L 339.705 156.592664 
L 341.7975 155.678307 
L 343.1925 155.269724 
L 344.5875 155.037614 
L 345.9825 154.993253 
L 347.3775 155.145571 
L 348.7725 155.500796 
L 350.1675 156.062143 
L 351.5625 156.829549 
L 352.9575 157.79947 
L 355.05 159.617408 
L 357.1425 161.834449 
L 359.235 164.392922 
L 362.025 168.204654 
L 371.0925 181.086263 
L 373.185 183.534464 
L 375.2775 185.57467 
L 376.6725 186.668316 
L 378.0675 187.525901 
L 379.4625 188.132245 
L 380.8575 188.476449 
L 382.2525 188.552105 
L 383.6475 188.35742 
L 385.0425 187.895235 
L 386.4375 187.172941 
L 387.8325 186.202303 
L 389.2275 184.999196 
L 391.32 182.802521 
L 393.4125 180.207545 
L 396.2025 176.289841 
L 401.7825 167.807457 
L 405.27 162.776362 
L 407.3625 160.079846 
L 409.455 157.718321 
L 411.5475 155.751637 
L 412.9425 154.682456 
L 414.3375 153.818116 
L 415.7325 153.164843 
L 417.1275 152.725911 
L 418.5225 152.501786 
L 419.9175 152.49031 
L 421.3125 152.686919 
L 422.7075 153.08487 
L 424.1025 153.675486 
L 425.4975 154.448393 
L 427.59 155.923329 
L 429.6825 157.736575 
L 431.775 159.838394 
L 434.565 162.99717 
L 438.0525 167.329654 
L 445.725 177.070035 
L 448.515 180.230779 
L 450.6075 182.32608 
L 452.7 184.121127 
L 454.7925 185.562149 
L 456.1875 186.302118 
L 457.5825 186.850798 
L 458.9775 187.197567 
L 460.3725 187.33389 
L 461.7675 187.253589 
L 463.1625 186.953103 
L 464.5575 186.431719 
L 465.9525 185.691762 
L 467.3475 184.738744 
L 468.7425 183.581462 
L 470.835 181.489917 
L 472.9275 179.021335 
L 475.7175 175.266535 
L 479.205 170.120104 
L 484.0875 162.90797 
L 486.8775 159.240708 
L 488.97 156.886162 
L 491.0625 154.964055 
L 492.4575 153.956569 
L 493.8525 153.186424 
L 495.2475 152.664641 
L 496.6425 152.397911 
L 498.0375 152.388469 
L 499.4325 152.634054 
L 500.8275 153.127986 
L 502.2225 153.859318 
L 503.6175 154.813099 
L 505.0125 155.970715 
L 507.105 158.040737 
L 509.1975 160.434697 
L 511.9875 163.966142 
L 518.9625 173.032826 
L 521.7525 176.184824 
L 523.845 178.208708 
L 525.9375 179.886118 
L 528.03 181.185406 
L 529.425 181.833347 
L 530.82 182.305496 
L 532.215 182.604073 
L 533.61 182.733899 
L 535.005 182.702094 
L 537.0975 182.371647 
L 539.19 181.735401 
L 541.2825 180.835822 
L 543.375 179.71816 
L 546.165 177.967486 
L 549.6525 175.504625 
L 560.8125 167.37253 
L 564.3 165.188457 
L 567.09 163.677649 
L 569.88 162.425995 
L 571.9725 161.684432 
L 574.065 161.132262 
L 576.1575 160.786169 
L 578.25 160.660052 
L 580.3425 160.763683 
L 582.435 161.101329 
L 584.5275 161.670492 
L 586.62 162.460902 
L 588.7125 163.45391 
L 591.5025 165.04497 
L 594.99 167.337743 
L 602.6625 172.535362 
L 605.4525 174.105242 
L 607.545 175.067951 
L 609.6375 175.812516 
L 611.73 176.319854 
L 613.8225 176.582783 
L 615.915 176.606364 
L 618.0075 176.407468 
L 620.1 176.013584 
L 622.89 175.248668 
L 627.075 173.798937 
L 632.655 171.860738 
L 636.1425 170.924242 
L 638.9325 170.403127 
L 641.7225 170.08808 
L 645.21 169.932196 
L 646.605 169.92 
L 646.605 169.92 
" style="fill:none;stroke:#008080;stroke-linecap:round;stroke-width:1.75;"/>
   </g>
   <g id="patch_3">
    <path d="M 90 270.72 
L 90 69.12 
" style="fill:none;stroke:#262626;stroke-linecap:square;stroke-linejoin:miter;stroke-width:1.25;"/>
   </g>
   <g id="patch_4">
    <path d="M 90 270.72 
L 648 270.72 
" style="fill:none;stroke:#262626;stroke-linecap:square;stroke-linejoin:miter;stroke-width:1.25;"/>
   </g>
  </g>
  <g id="axes_2">
   <g id="patch_5">
    <path d="M 90 512.64 
L 648 512.64 
L 648 311.04 
L 90 311.04 
z
" style="fill:#ffffff;"/>
   </g>
   <g id="matplotlib.axis_3">
    <g id="xtick_10">
     <g id="line2d_20">
      <g>
       <use style="fill:#262626;stroke:#262626;" x="191.454545" xlink:href="#m873063cff1" y="512.64"/>
      </g>
     </g>
     <g id="text_19">
      <!-- 200 -->
      <g style="fill:#262626;" transform="translate(183.113139 532.797812)scale(0.1 -0.1)">
       <use xlink:href="#ArialMT-32"/>
       <use x="55.615234" xlink:href="#ArialMT-30"/>
       <use x="111.230469" xlink:href="#ArialMT-30"/>
      </g>
     </g>
    </g>
    <g id="xtick_11">
     <g id="line2d_21">
      <g>
       <use style="fill:#262626;stroke:#262626;" x="304.181818" xlink:href="#m873063cff1" y="512.64"/>
      </g>
     </g>
     <g id="text_20">
      <!-- 400 -->
      <g style="fill:#262626;" transform="translate(295.840412 532.797812)scale(0.1 -0.1)">
       <use xlink:href="#ArialMT-34"/>
       <use x="55.615234" xlink:href="#ArialMT-30"/>
       <use x="111.230469" xlink:href="#ArialMT-30"/>
      </g>
     </g>
    </g>
    <g id="xtick_12">
     <g id="line2d_22">
      <g>
       <use style="fill:#262626;stroke:#262626;" x="416.909091" xlink:href="#m873063cff1" y="512.64"/>
      </g>
     </g>
     <g id="text_21">
      <!-- 600 -->
      <g style="fill:#262626;" transform="translate(408.567685 532.797812)scale(0.1 -0.1)">
       <use xlink:href="#ArialMT-36"/>
       <use x="55.615234" xlink:href="#ArialMT-30"/>
       <use x="111.230469" xlink:href="#ArialMT-30"/>
      </g>
     </g>
    </g>
    <g id="xtick_13">
     <g id="line2d_23">
      <g>
       <use style="fill:#262626;stroke:#262626;" x="529.636364" xlink:href="#m873063cff1" y="512.64"/>
      </g>
     </g>
     <g id="text_22">
      <!-- 800 -->
      <g style="fill:#262626;" transform="translate(521.294957 532.797812)scale(0.1 -0.1)">
       <use xlink:href="#ArialMT-38"/>
       <use x="55.615234" xlink:href="#ArialMT-30"/>
       <use x="111.230469" xlink:href="#ArialMT-30"/>
      </g>
     </g>
    </g>
    <g id="xtick_14">
     <g id="line2d_24">
      <g>
       <use style="fill:#262626;stroke:#262626;" x="642.363636" xlink:href="#m873063cff1" y="512.64"/>
      </g>
     </g>
     <g id="text_23">
      <!-- 1000 -->
      <g style="fill:#262626;" transform="translate(631.241761 532.797812)scale(0.1 -0.1)">
       <use xlink:href="#ArialMT-31"/>
       <use x="55.615234" xlink:href="#ArialMT-30"/>
       <use x="111.230469" xlink:href="#ArialMT-30"/>
       <use x="166.845703" xlink:href="#ArialMT-30"/>
      </g>
     </g>
    </g>
   </g>
   <g id="matplotlib.axis_4">
    <g id="ytick_10">
     <g id="line2d_25">
      <g>
       <use style="fill:#262626;stroke:#262626;" x="90" xlink:href="#m754436a952" y="512.64"/>
      </g>
     </g>
     <g id="text_24">
      <!-- 0 -->
      <g style="fill:#262626;" transform="translate(71.439063 516.218906)scale(0.1 -0.1)">
       <use xlink:href="#ArialMT-30"/>
      </g>
     </g>
    </g>
    <g id="ytick_11">
     <g id="line2d_26">
      <g>
       <use style="fill:#262626;stroke:#262626;" x="90" xlink:href="#m754436a952" y="487.44"/>
      </g>
     </g>
     <g id="text_25">
      <!-- 5 -->
      <g style="fill:#262626;" transform="translate(71.439063 491.018906)scale(0.1 -0.1)">
       <use xlink:href="#ArialMT-35"/>
      </g>
     </g>
    </g>
    <g id="ytick_12">
     <g id="line2d_27">
      <g>
       <use style="fill:#262626;stroke:#262626;" x="90" xlink:href="#m754436a952" y="462.24"/>
      </g>
     </g>
     <g id="text_26">
      <!-- 10 -->
      <g style="fill:#262626;" transform="translate(65.878125 465.818906)scale(0.1 -0.1)">
       <use xlink:href="#ArialMT-31"/>
       <use x="55.615234" xlink:href="#ArialMT-30"/>
      </g>
     </g>
    </g>
    <g id="ytick_13">
     <g id="line2d_28">
      <g>
       <use style="fill:#262626;stroke:#262626;" x="90" xlink:href="#m754436a952" y="437.04"/>
      </g>
     </g>
     <g id="text_27">
      <!-- 15 -->
      <g style="fill:#262626;" transform="translate(65.878125 440.618906)scale(0.1 -0.1)">
       <use xlink:href="#ArialMT-31"/>
       <use x="55.615234" xlink:href="#ArialMT-35"/>
      </g>
     </g>
    </g>
    <g id="ytick_14">
     <g id="line2d_29">
      <g>
       <use style="fill:#262626;stroke:#262626;" x="90" xlink:href="#m754436a952" y="411.84"/>
      </g>
     </g>
     <g id="text_28">
      <!-- 20 -->
      <g style="fill:#262626;" transform="translate(65.878125 415.418906)scale(0.1 -0.1)">
       <use xlink:href="#ArialMT-32"/>
       <use x="55.615234" xlink:href="#ArialMT-30"/>
      </g>
     </g>
    </g>
    <g id="ytick_15">
     <g id="line2d_30">
      <g>
       <use style="fill:#262626;stroke:#262626;" x="90" xlink:href="#m754436a952" y="386.64"/>
      </g>
     </g>
     <g id="text_29">
      <!-- 25 -->
      <g style="fill:#262626;" transform="translate(65.878125 390.218906)scale(0.1 -0.1)">
       <use xlink:href="#ArialMT-32"/>
       <use x="55.615234" xlink:href="#ArialMT-35"/>
      </g>
     </g>
    </g>
    <g id="ytick_16">
     <g id="line2d_31">
      <g>
       <use style="fill:#262626;stroke:#262626;" x="90" xlink:href="#m754436a952" y="361.44"/>
      </g>
     </g>
     <g id="text_30">
      <!-- 30 -->
      <g style="fill:#262626;" transform="translate(65.878125 365.018906)scale(0.1 -0.1)">
       <use xlink:href="#ArialMT-33"/>
       <use x="55.615234" xlink:href="#ArialMT-30"/>
      </g>
     </g>
    </g>
    <g id="ytick_17">
     <g id="line2d_32">
      <g>
       <use style="fill:#262626;stroke:#262626;" x="90" xlink:href="#m754436a952" y="336.24"/>
      </g>
     </g>
     <g id="text_31">
      <!-- 35 -->
      <g style="fill:#262626;" transform="translate(65.878125 339.818906)scale(0.1 -0.1)">
       <use xlink:href="#ArialMT-33"/>
       <use x="55.615234" xlink:href="#ArialMT-35"/>
      </g>
     </g>
    </g>
    <g id="ytick_18">
     <g id="line2d_33">
      <g>
       <use style="fill:#262626;stroke:#262626;" x="90" xlink:href="#m754436a952" y="311.04"/>
      </g>
     </g>
     <g id="text_32">
      <!-- 40 -->
      <g style="fill:#262626;" transform="translate(65.878125 314.618906)scale(0.1 -0.1)">
       <use xlink:href="#ArialMT-34"/>
       <use x="55.615234" xlink:href="#ArialMT-30"/>
      </g>
     </g>
    </g>
   </g>
   <g id="line2d_34">
    <path clip-path="url(#p6191c9a1c1)" d="M 90 488.562059 
L 95.636364 492.871917 
L 101.272727 491.915277 
L 106.909091 490.291312 
L 112.545455 492.192009 
L 118.181818 490.692663 
L 123.818182 490.203121 
L 129.454545 491.968658 
L 135.090909 490.163889 
L 140.727273 490.392837 
L 146.363636 490.241829 
L 152 489.156296 
L 157.636364 490.240305 
L 163.272727 490.645166 
L 168.909091 488.187222 
L 174.545455 488.633986 
L 180.181818 487.313077 
L 185.818182 487.018973 
L 191.454545 487.338343 
L 197.090909 486.121391 
L 202.727273 487.201243 
L 208.363636 484.042031 
L 214 483.157918 
L 219.636364 483.169266 
L 225.272727 482.846357 
L 230.909091 480.992047 
L 236.545455 479.145187 
L 242.181818 476.443916 
L 247.818182 475.314111 
L 253.454545 475.654125 
L 259.090909 473.305387 
L 264.727273 469.316541 
L 270.363636 463.226508 
L 276 459.185057 
L 281.636364 457.614718 
L 287.272727 454.794335 
" style="fill:none;stroke:#b22222;stroke-linecap:round;stroke-width:1.75;"/>
   </g>
   <g id="patch_6">
    <path d="M 90 512.64 
L 90 311.04 
" style="fill:none;stroke:#262626;stroke-linecap:square;stroke-linejoin:miter;stroke-width:1.25;"/>
   </g>
   <g id="patch_7">
    <path d="M 90 512.64 
L 648 512.64 
" style="fill:none;stroke:#262626;stroke-linecap:square;stroke-linejoin:miter;stroke-width:1.25;"/>
   </g>
   <g id="text_33">
    <!-- f = 370 Hz -->
    <defs>
     <path d="M 8.6875 0 
L 8.6875 45.015625 
L 0.921875 45.015625 
L 0.921875 51.859375 
L 8.6875 51.859375 
L 8.6875 57.375 
Q 8.6875 62.59375 9.625 65.140625 
Q 10.890625 68.5625 14.078125 70.671875 
Q 17.28125 72.796875 23.046875 72.796875 
Q 26.765625 72.796875 31.25 71.921875 
L 29.9375 64.265625 
Q 27.203125 64.75 24.75 64.75 
Q 20.75 64.75 19.09375 63.03125 
Q 17.4375 61.328125 17.4375 56.640625 
L 17.4375 51.859375 
L 27.546875 51.859375 
L 27.546875 45.015625 
L 17.4375 45.015625 
L 17.4375 0 
z
" id="ArialMT-66"/>
     <path id="ArialMT-20"/>
     <path d="M 52.828125 42.09375 
L 5.5625 42.09375 
L 5.5625 50.296875 
L 52.828125 50.296875 
z
M 52.828125 20.359375 
L 5.5625 20.359375 
L 5.5625 28.5625 
L 52.828125 28.5625 
z
" id="ArialMT-3d"/>
     <path d="M 8.015625 0 
L 8.015625 71.578125 
L 17.484375 71.578125 
L 17.484375 42.1875 
L 54.6875 42.1875 
L 54.6875 71.578125 
L 64.15625 71.578125 
L 64.15625 0 
L 54.6875 0 
L 54.6875 33.734375 
L 17.484375 33.734375 
L 17.484375 0 
z
" id="ArialMT-48"/>
     <path d="M 1.953125 0 
L 1.953125 7.125 
L 34.96875 45.015625 
Q 29.34375 44.734375 25.046875 44.734375 
L 3.90625 44.734375 
L 3.90625 51.859375 
L 46.296875 51.859375 
L 46.296875 46.046875 
L 18.21875 13.140625 
L 12.796875 7.125 
Q 18.703125 7.5625 23.875 7.5625 
L 47.859375 7.5625 
L 47.859375 0 
z
" id="ArialMT-7a"/>
    </defs>
    <g style="fill:#262626;" transform="translate(529.636364 364.542187)scale(0.12 -0.12)">
     <use xlink:href="#ArialMT-66"/>
     <use x="27.783203" xlink:href="#ArialMT-20"/>
     <use x="55.566406" xlink:href="#ArialMT-3d"/>
     <use x="113.964844" xlink:href="#ArialMT-20"/>
     <use x="141.748047" xlink:href="#ArialMT-33"/>
     <use x="197.363281" xlink:href="#ArialMT-37"/>
     <use x="252.978516" xlink:href="#ArialMT-30"/>
     <use x="308.59375" xlink:href="#ArialMT-20"/>
     <use x="336.376953" xlink:href="#ArialMT-48"/>
     <use x="408.59375" xlink:href="#ArialMT-7a"/>
    </g>
   </g>
   <g id="PathCollection_1">
    <defs>
     <path d="M 0 3.5 
C 0.928211 3.5 1.81853 3.131218 2.474874 2.474874 
C 3.131218 1.81853 3.5 0.928211 3.5 0 
C 3.5 -0.928211 3.131218 -1.81853 2.474874 -2.474874 
C 1.81853 -3.131218 0.928211 -3.5 0 -3.5 
C -0.928211 -3.5 -1.81853 -3.131218 -2.474874 -2.474874 
C -3.131218 -1.81853 -3.5 -0.928211 -3.5 0 
C -3.5 0.928211 -3.131218 1.81853 -2.474874 2.474874 
C -1.81853 3.131218 -0.928211 3.5 0 3.5 
z
" id="m74055ac214" style="stroke:#800000;stroke-width:0.3;"/>
    </defs>
    <g clip-path="url(#p6191c9a1c1)">
     <use style="fill:#800000;stroke:#800000;stroke-width:0.3;" x="287.272727" xlink:href="#m74055ac214" y="454.794335"/>
    </g>
   </g>
  </g>
 </g>
 <defs>
  <clipPath id="pa3f0c7df8b">
   <rect height="201.6" width="558" x="90" y="69.12"/>
  </clipPath>
  <clipPath id="p6191c9a1c1">
   <rect height="201.6" width="558" x="90" y="311.04"/>
  </clipPath>
 </defs>
</svg>
