<?xml version="1.0" encoding="utf-8" standalone="no"?>
<!DOCTYPE svg PUBLIC "-//W3C//DTD SVG 1.1//EN"
  "http://www.w3.org/Graphics/SVG/1.1/DTD/svg11.dtd">
<!-- Created with matplotlib (http://matplotlib.org/) -->
<svg height="576pt" version="1.1" viewBox="0 0 720 576" width="720pt" xmlns="http://www.w3.org/2000/svg" xmlns:xlink="http://www.w3.org/1999/xlink">
 <defs>
  <style type="text/css">
*{stroke-linecap:butt;stroke-linejoin:round;}
  </style>
 </defs>
 <g id="figure_1">
  <g id="patch_1">
   <path d="M 0 576 
L 720 576 
L 720 0 
L 0 0 
z
" style="fill:#ffffff;"/>
  </g>
  <g id="axes_1">
   <g id="patch_2">
    <path d="M 90 270.72 
L 648 270.72 
L 648 69.12 
L 90 69.12 
z
" style="fill:#ffffff;"/>
   </g>
   <g id="matplotlib.axis_1">
    <g id="xtick_1">
     <g id="line2d_1">
      <defs>
       <path d="M 0 0 
L 0 6 
" id="mc942df240a" style="stroke:#262626;"/>
      </defs>
      <g>
       <use style="fill:#262626;stroke:#262626;" x="90" xlink:href="#mc942df240a" y="270.72"/>
      </g>
     </g>
     <g id="text_1">
      <!-- 0 -->
      <defs>
       <path d="M 4.15625 35.296875 
Q 4.15625 48 6.765625 55.734375 
Q 9.375 63.484375 14.515625 67.671875 
Q 19.671875 71.875 27.484375 71.875 
Q 33.25 71.875 37.59375 69.546875 
Q 41.9375 67.234375 44.765625 62.859375 
Q 47.609375 58.5 49.21875 52.21875 
Q 50.828125 45.953125 50.828125 35.296875 
Q 50.828125 22.703125 48.234375 14.96875 
Q 45.65625 7.234375 40.5 3 
Q 35.359375 -1.21875 27.484375 -1.21875 
Q 17.140625 -1.21875 11.234375 6.203125 
Q 4.15625 15.140625 4.15625 35.296875 
z
M 13.1875 35.296875 
Q 13.1875 17.671875 17.3125 11.828125 
Q 21.4375 6 27.484375 6 
Q 33.546875 6 37.671875 11.859375 
Q 41.796875 17.71875 41.796875 35.296875 
Q 41.796875 52.984375 37.671875 58.78125 
Q 33.546875 64.59375 27.390625 64.59375 
Q 21.34375 64.59375 17.71875 59.46875 
Q 13.1875 52.9375 13.1875 35.296875 
z
" id="ArialMT-30"/>
      </defs>
      <g style="fill:#262626;" transform="translate(87.219531 290.877812)scale(0.1 -0.1)">
       <use xlink:href="#ArialMT-30"/>
      </g>
     </g>
    </g>
    <g id="xtick_2">
     <g id="line2d_2">
      <g>
       <use style="fill:#262626;stroke:#262626;" x="159.75" xlink:href="#mc942df240a" y="270.72"/>
      </g>
     </g>
     <g id="text_2">
      <!-- 100 -->
      <defs>
       <path d="M 37.25 0 
L 28.46875 0 
L 28.46875 56 
Q 25.296875 52.984375 20.140625 49.953125 
Q 14.984375 46.921875 10.890625 45.40625 
L 10.890625 53.90625 
Q 18.265625 57.375 23.78125 62.296875 
Q 29.296875 67.234375 31.59375 71.875 
L 37.25 71.875 
z
" id="ArialMT-31"/>
      </defs>
      <g style="fill:#262626;" transform="translate(151.408594 290.877812)scale(0.1 -0.1)">
       <use xlink:href="#ArialMT-31"/>
       <use x="55.615234" xlink:href="#ArialMT-30"/>
       <use x="111.230469" xlink:href="#ArialMT-30"/>
      </g>
     </g>
    </g>
    <g id="xtick_3">
     <g id="line2d_3">
      <g>
       <use style="fill:#262626;stroke:#262626;" x="229.5" xlink:href="#mc942df240a" y="270.72"/>
      </g>
     </g>
     <g id="text_3">
      <!-- 200 -->
      <defs>
       <path d="M 50.34375 8.453125 
L 50.34375 0 
L 3.03125 0 
Q 2.9375 3.171875 4.046875 6.109375 
Q 5.859375 10.9375 9.828125 15.625 
Q 13.8125 20.3125 21.34375 26.46875 
Q 33.015625 36.03125 37.109375 41.625 
Q 41.21875 47.21875 41.21875 52.203125 
Q 41.21875 57.421875 37.46875 61 
Q 33.734375 64.59375 27.734375 64.59375 
Q 21.390625 64.59375 17.578125 60.78125 
Q 13.765625 56.984375 13.71875 50.25 
L 4.6875 51.171875 
Q 5.609375 61.28125 11.65625 66.578125 
Q 17.71875 71.875 27.9375 71.875 
Q 38.234375 71.875 44.234375 66.15625 
Q 50.25 60.453125 50.25 52 
Q 50.25 47.703125 48.484375 43.546875 
Q 46.734375 39.40625 42.65625 34.8125 
Q 38.578125 30.21875 29.109375 22.21875 
Q 21.1875 15.578125 18.9375 13.203125 
Q 16.703125 10.84375 15.234375 8.453125 
z
" id="ArialMT-32"/>
      </defs>
      <g style="fill:#262626;" transform="translate(221.158594 290.877812)scale(0.1 -0.1)">
       <use xlink:href="#ArialMT-32"/>
       <use x="55.615234" xlink:href="#ArialMT-30"/>
       <use x="111.230469" xlink:href="#ArialMT-30"/>
      </g>
     </g>
    </g>
    <g id="xtick_4">
     <g id="line2d_4">
      <g>
       <use style="fill:#262626;stroke:#262626;" x="299.25" xlink:href="#mc942df240a" y="270.72"/>
      </g>
     </g>
     <g id="text_4">
      <!-- 300 -->
      <defs>
       <path d="M 4.203125 18.890625 
L 12.984375 20.0625 
Q 14.5 12.59375 18.140625 9.296875 
Q 21.78125 6 27 6 
Q 33.203125 6 37.46875 10.296875 
Q 41.75 14.59375 41.75 20.953125 
Q 41.75 27 37.796875 30.921875 
Q 33.84375 34.859375 27.734375 34.859375 
Q 25.25 34.859375 21.53125 33.890625 
L 22.515625 41.609375 
Q 23.390625 41.5 23.921875 41.5 
Q 29.546875 41.5 34.03125 44.421875 
Q 38.53125 47.359375 38.53125 53.46875 
Q 38.53125 58.296875 35.25 61.46875 
Q 31.984375 64.65625 26.8125 64.65625 
Q 21.6875 64.65625 18.265625 61.421875 
Q 14.84375 58.203125 13.875 51.765625 
L 5.078125 53.328125 
Q 6.6875 62.15625 12.390625 67.015625 
Q 18.109375 71.875 26.609375 71.875 
Q 32.46875 71.875 37.390625 69.359375 
Q 42.328125 66.84375 44.9375 62.5 
Q 47.5625 58.15625 47.5625 53.265625 
Q 47.5625 48.640625 45.0625 44.828125 
Q 42.578125 41.015625 37.703125 38.765625 
Q 44.046875 37.3125 47.5625 32.6875 
Q 51.078125 28.078125 51.078125 21.140625 
Q 51.078125 11.765625 44.234375 5.25 
Q 37.40625 -1.265625 26.953125 -1.265625 
Q 17.53125 -1.265625 11.296875 4.34375 
Q 5.078125 9.96875 4.203125 18.890625 
z
" id="ArialMT-33"/>
      </defs>
      <g style="fill:#262626;" transform="translate(290.908594 290.877812)scale(0.1 -0.1)">
       <use xlink:href="#ArialMT-33"/>
       <use x="55.615234" xlink:href="#ArialMT-30"/>
       <use x="111.230469" xlink:href="#ArialMT-30"/>
      </g>
     </g>
    </g>
    <g id="xtick_5">
     <g id="line2d_5">
      <g>
       <use style="fill:#262626;stroke:#262626;" x="369" xlink:href="#mc942df240a" y="270.72"/>
      </g>
     </g>
     <g id="text_5">
      <!-- 400 -->
      <defs>
       <path d="M 32.328125 0 
L 32.328125 17.140625 
L 1.265625 17.140625 
L 1.265625 25.203125 
L 33.9375 71.578125 
L 41.109375 71.578125 
L 41.109375 25.203125 
L 50.78125 25.203125 
L 50.78125 17.140625 
L 41.109375 17.140625 
L 41.109375 0 
z
M 32.328125 25.203125 
L 32.328125 57.46875 
L 9.90625 25.203125 
z
" id="ArialMT-34"/>
      </defs>
      <g style="fill:#262626;" transform="translate(360.658594 290.877812)scale(0.1 -0.1)">
       <use xlink:href="#ArialMT-34"/>
       <use x="55.615234" xlink:href="#ArialMT-30"/>
       <use x="111.230469" xlink:href="#ArialMT-30"/>
      </g>
     </g>
    </g>
    <g id="xtick_6">
     <g id="line2d_6">
      <g>
       <use style="fill:#262626;stroke:#262626;" x="438.75" xlink:href="#mc942df240a" y="270.72"/>
      </g>
     </g>
     <g id="text_6">
      <!-- 500 -->
      <defs>
       <path d="M 4.15625 18.75 
L 13.375 19.53125 
Q 14.40625 12.796875 18.140625 9.390625 
Q 21.875 6 27.15625 6 
Q 33.5 6 37.890625 10.78125 
Q 42.28125 15.578125 42.28125 23.484375 
Q 42.28125 31 38.0625 35.34375 
Q 33.84375 39.703125 27 39.703125 
Q 22.75 39.703125 19.328125 37.765625 
Q 15.921875 35.84375 13.96875 32.765625 
L 5.71875 33.84375 
L 12.640625 70.609375 
L 48.25 70.609375 
L 48.25 62.203125 
L 19.671875 62.203125 
L 15.828125 42.96875 
Q 22.265625 47.46875 29.34375 47.46875 
Q 38.71875 47.46875 45.15625 40.96875 
Q 51.609375 34.46875 51.609375 24.265625 
Q 51.609375 14.546875 45.953125 7.46875 
Q 39.0625 -1.21875 27.15625 -1.21875 
Q 17.390625 -1.21875 11.203125 4.25 
Q 5.03125 9.71875 4.15625 18.75 
z
" id="ArialMT-35"/>
      </defs>
      <g style="fill:#262626;" transform="translate(430.408594 290.877812)scale(0.1 -0.1)">
       <use xlink:href="#ArialMT-35"/>
       <use x="55.615234" xlink:href="#ArialMT-30"/>
       <use x="111.230469" xlink:href="#ArialMT-30"/>
      </g>
     </g>
    </g>
    <g id="xtick_7">
     <g id="line2d_7">
      <g>
       <use style="fill:#262626;stroke:#262626;" x="508.5" xlink:href="#mc942df240a" y="270.72"/>
      </g>
     </g>
     <g id="text_7">
      <!-- 600 -->
      <defs>
       <path d="M 49.75 54.046875 
L 41.015625 53.375 
Q 39.84375 58.546875 37.703125 60.890625 
Q 34.125 64.65625 28.90625 64.65625 
Q 24.703125 64.65625 21.53125 62.3125 
Q 17.390625 59.28125 14.984375 53.46875 
Q 12.59375 47.65625 12.5 36.921875 
Q 15.671875 41.75 20.265625 44.09375 
Q 24.859375 46.4375 29.890625 46.4375 
Q 38.671875 46.4375 44.84375 39.96875 
Q 51.03125 33.5 51.03125 23.25 
Q 51.03125 16.5 48.125 10.71875 
Q 45.21875 4.9375 40.140625 1.859375 
Q 35.0625 -1.21875 28.609375 -1.21875 
Q 17.625 -1.21875 10.6875 6.859375 
Q 3.765625 14.9375 3.765625 33.5 
Q 3.765625 54.25 11.421875 63.671875 
Q 18.109375 71.875 29.4375 71.875 
Q 37.890625 71.875 43.28125 67.140625 
Q 48.6875 62.40625 49.75 54.046875 
z
M 13.875 23.1875 
Q 13.875 18.65625 15.796875 14.5 
Q 17.71875 10.359375 21.1875 8.171875 
Q 24.65625 6 28.46875 6 
Q 34.03125 6 38.03125 10.484375 
Q 42.046875 14.984375 42.046875 22.703125 
Q 42.046875 30.125 38.078125 34.390625 
Q 34.125 38.671875 28.125 38.671875 
Q 22.171875 38.671875 18.015625 34.390625 
Q 13.875 30.125 13.875 23.1875 
z
" id="ArialMT-36"/>
      </defs>
      <g style="fill:#262626;" transform="translate(500.158594 290.877812)scale(0.1 -0.1)">
       <use xlink:href="#ArialMT-36"/>
       <use x="55.615234" xlink:href="#ArialMT-30"/>
       <use x="111.230469" xlink:href="#ArialMT-30"/>
      </g>
     </g>
    </g>
    <g id="xtick_8">
     <g id="line2d_8">
      <g>
       <use style="fill:#262626;stroke:#262626;" x="578.25" xlink:href="#mc942df240a" y="270.72"/>
      </g>
     </g>
     <g id="text_8">
      <!-- 700 -->
      <defs>
       <path d="M 4.734375 62.203125 
L 4.734375 70.65625 
L 51.078125 70.65625 
L 51.078125 63.8125 
Q 44.234375 56.546875 37.515625 44.484375 
Q 30.8125 32.421875 27.15625 19.671875 
Q 24.515625 10.6875 23.78125 0 
L 14.75 0 
Q 14.890625 8.453125 18.0625 20.40625 
Q 21.234375 32.375 27.171875 43.484375 
Q 33.109375 54.59375 39.796875 62.203125 
z
" id="ArialMT-37"/>
      </defs>
      <g style="fill:#262626;" transform="translate(569.908594 290.877812)scale(0.1 -0.1)">
       <use xlink:href="#ArialMT-37"/>
       <use x="55.615234" xlink:href="#ArialMT-30"/>
       <use x="111.230469" xlink:href="#ArialMT-30"/>
      </g>
     </g>
    </g>
    <g id="xtick_9">
     <g id="line2d_9">
      <g>
       <use style="fill:#262626;stroke:#262626;" x="648" xlink:href="#mc942df240a" y="270.72"/>
      </g>
     </g>
     <g id="text_9">
      <!-- 800 -->
      <defs>
       <path d="M 17.671875 38.8125 
Q 12.203125 40.828125 9.5625 44.53125 
Q 6.9375 48.25 6.9375 53.421875 
Q 6.9375 61.234375 12.546875 66.546875 
Q 18.171875 71.875 27.484375 71.875 
Q 36.859375 71.875 42.578125 66.421875 
Q 48.296875 60.984375 48.296875 53.171875 
Q 48.296875 48.1875 45.671875 44.5 
Q 43.0625 40.828125 37.75 38.8125 
Q 44.34375 36.671875 47.78125 31.875 
Q 51.21875 27.09375 51.21875 20.453125 
Q 51.21875 11.28125 44.71875 5.03125 
Q 38.234375 -1.21875 27.640625 -1.21875 
Q 17.046875 -1.21875 10.546875 5.046875 
Q 4.046875 11.328125 4.046875 20.703125 
Q 4.046875 27.6875 7.59375 32.390625 
Q 11.140625 37.109375 17.671875 38.8125 
z
M 15.921875 53.71875 
Q 15.921875 48.640625 19.1875 45.40625 
Q 22.46875 42.1875 27.6875 42.1875 
Q 32.765625 42.1875 36.015625 45.375 
Q 39.265625 48.578125 39.265625 53.21875 
Q 39.265625 58.0625 35.90625 61.359375 
Q 32.5625 64.65625 27.59375 64.65625 
Q 22.5625 64.65625 19.234375 61.421875 
Q 15.921875 58.203125 15.921875 53.71875 
z
M 13.09375 20.65625 
Q 13.09375 16.890625 14.875 13.375 
Q 16.65625 9.859375 20.171875 7.921875 
Q 23.6875 6 27.734375 6 
Q 34.03125 6 38.125 10.046875 
Q 42.234375 14.109375 42.234375 20.359375 
Q 42.234375 26.703125 38.015625 30.859375 
Q 33.796875 35.015625 27.4375 35.015625 
Q 21.234375 35.015625 17.15625 30.90625 
Q 13.09375 26.8125 13.09375 20.65625 
z
" id="ArialMT-38"/>
      </defs>
      <g style="fill:#262626;" transform="translate(639.658594 290.877812)scale(0.1 -0.1)">
       <use xlink:href="#ArialMT-38"/>
       <use x="55.615234" xlink:href="#ArialMT-30"/>
       <use x="111.230469" xlink:href="#ArialMT-30"/>
      </g>
     </g>
    </g>
   </g>
   <g id="matplotlib.axis_2">
    <g id="ytick_1">
     <g id="line2d_10">
      <defs>
       <path d="M 0 0 
L -6 0 
" id="m69a61bbfdf" style="stroke:#262626;"/>
      </defs>
      <g>
       <use style="fill:#262626;stroke:#262626;" x="90" xlink:href="#m69a61bbfdf" y="270.72"/>
      </g>
     </g>
     <g id="text_10">
      <!-- −0.20 -->
      <defs>
       <path d="M 52.828125 31.203125 
L 5.5625 31.203125 
L 5.5625 39.40625 
L 52.828125 39.40625 
z
" id="ArialMT-2212"/>
       <path d="M 9.078125 0 
L 9.078125 10.015625 
L 19.09375 10.015625 
L 19.09375 0 
z
" id="ArialMT-2e"/>
      </defs>
      <g style="fill:#262626;" transform="translate(51.698437 274.298906)scale(0.1 -0.1)">
       <use xlink:href="#ArialMT-2212"/>
       <use x="58.398438" xlink:href="#ArialMT-30"/>
       <use x="114.013672" xlink:href="#ArialMT-2e"/>
       <use x="141.796875" xlink:href="#ArialMT-32"/>
       <use x="197.412109" xlink:href="#ArialMT-30"/>
      </g>
     </g>
    </g>
    <g id="ytick_2">
     <g id="line2d_11">
      <g>
       <use style="fill:#262626;stroke:#262626;" x="90" xlink:href="#m69a61bbfdf" y="245.52"/>
      </g>
     </g>
     <g id="text_11">
      <!-- −0.15 -->
      <g style="fill:#262626;" transform="translate(51.698437 249.098906)scale(0.1 -0.1)">
       <use xlink:href="#ArialMT-2212"/>
       <use x="58.398438" xlink:href="#ArialMT-30"/>
       <use x="114.013672" xlink:href="#ArialMT-2e"/>
       <use x="141.796875" xlink:href="#ArialMT-31"/>
       <use x="197.412109" xlink:href="#ArialMT-35"/>
      </g>
     </g>
    </g>
    <g id="ytick_3">
     <g id="line2d_12">
      <g>
       <use style="fill:#262626;stroke:#262626;" x="90" xlink:href="#m69a61bbfdf" y="220.32"/>
      </g>
     </g>
     <g id="text_12">
      <!-- −0.10 -->
      <g style="fill:#262626;" transform="translate(51.698437 223.898906)scale(0.1 -0.1)">
       <use xlink:href="#ArialMT-2212"/>
       <use x="58.398438" xlink:href="#ArialMT-30"/>
       <use x="114.013672" xlink:href="#ArialMT-2e"/>
       <use x="141.796875" xlink:href="#ArialMT-31"/>
       <use x="197.412109" xlink:href="#ArialMT-30"/>
      </g>
     </g>
    </g>
    <g id="ytick_4">
     <g id="line2d_13">
      <g>
       <use style="fill:#262626;stroke:#262626;" x="90" xlink:href="#m69a61bbfdf" y="195.12"/>
      </g>
     </g>
     <g id="text_13">
      <!-- −0.05 -->
      <g style="fill:#262626;" transform="translate(51.698437 198.698906)scale(0.1 -0.1)">
       <use xlink:href="#ArialMT-2212"/>
       <use x="58.398438" xlink:href="#ArialMT-30"/>
       <use x="114.013672" xlink:href="#ArialMT-2e"/>
       <use x="141.796875" xlink:href="#ArialMT-30"/>
       <use x="197.412109" xlink:href="#ArialMT-35"/>
      </g>
     </g>
    </g>
    <g id="ytick_5">
     <g id="line2d_14">
      <g>
       <use style="fill:#262626;stroke:#262626;" x="90" xlink:href="#m69a61bbfdf" y="169.92"/>
      </g>
     </g>
     <g id="text_14">
      <!-- 0.00 -->
      <g style="fill:#262626;" transform="translate(57.539062 173.498906)scale(0.1 -0.1)">
       <use xlink:href="#ArialMT-30"/>
       <use x="55.615234" xlink:href="#ArialMT-2e"/>
       <use x="83.398438" xlink:href="#ArialMT-30"/>
       <use x="139.013672" xlink:href="#ArialMT-30"/>
      </g>
     </g>
    </g>
    <g id="ytick_6">
     <g id="line2d_15">
      <g>
       <use style="fill:#262626;stroke:#262626;" x="90" xlink:href="#m69a61bbfdf" y="144.72"/>
      </g>
     </g>
     <g id="text_15">
      <!-- 0.05 -->
      <g style="fill:#262626;" transform="translate(57.539062 148.298906)scale(0.1 -0.1)">
       <use xlink:href="#ArialMT-30"/>
       <use x="55.615234" xlink:href="#ArialMT-2e"/>
       <use x="83.398438" xlink:href="#ArialMT-30"/>
       <use x="139.013672" xlink:href="#ArialMT-35"/>
      </g>
     </g>
    </g>
    <g id="ytick_7">
     <g id="line2d_16">
      <g>
       <use style="fill:#262626;stroke:#262626;" x="90" xlink:href="#m69a61bbfdf" y="119.52"/>
      </g>
     </g>
     <g id="text_16">
      <!-- 0.10 -->
      <g style="fill:#262626;" transform="translate(57.539062 123.098906)scale(0.1 -0.1)">
       <use xlink:href="#ArialMT-30"/>
       <use x="55.615234" xlink:href="#ArialMT-2e"/>
       <use x="83.398438" xlink:href="#ArialMT-31"/>
       <use x="139.013672" xlink:href="#ArialMT-30"/>
      </g>
     </g>
    </g>
    <g id="ytick_8">
     <g id="line2d_17">
      <g>
       <use style="fill:#262626;stroke:#262626;" x="90" xlink:href="#m69a61bbfdf" y="94.32"/>
      </g>
     </g>
     <g id="text_17">
      <!-- 0.15 -->
      <g style="fill:#262626;" transform="translate(57.539062 97.898906)scale(0.1 -0.1)">
       <use xlink:href="#ArialMT-30"/>
       <use x="55.615234" xlink:href="#ArialMT-2e"/>
       <use x="83.398438" xlink:href="#ArialMT-31"/>
       <use x="139.013672" xlink:href="#ArialMT-35"/>
      </g>
     </g>
    </g>
    <g id="ytick_9">
     <g id="line2d_18">
      <g>
       <use style="fill:#262626;stroke:#262626;" x="90" xlink:href="#m69a61bbfdf" y="69.12"/>
      </g>
     </g>
     <g id="text_18">
      <!-- 0.20 -->
      <g style="fill:#262626;" transform="translate(57.539062 72.698906)scale(0.1 -0.1)">
       <use xlink:href="#ArialMT-30"/>
       <use x="55.615234" xlink:href="#ArialMT-2e"/>
       <use x="83.398438" xlink:href="#ArialMT-32"/>
       <use x="139.013672" xlink:href="#ArialMT-30"/>
      </g>
     </g>
    </g>
   </g>
   <g id="PolyCollection_1">
    <path clip-path="url(#p01151446c4)" d="M 90 166.030769 
L 90 169.92 
L 90.6975 169.92 
L 91.395 169.92 
L 92.0925 169.92 
L 92.79 169.92 
L 93.4875 169.92 
L 94.185 169.92 
L 94.8825 169.92 
L 95.58 169.92 
L 96.2775 169.92 
L 96.975 169.92 
L 97.6725 169.92 
L 98.37 169.92 
L 99.0675 169.92 
L 99.765 169.92 
L 100.4625 169.92 
L 101.16 169.92 
L 101.8575 169.92 
L 102.555 169.92 
L 103.2525 169.92 
L 103.95 169.92 
L 104.6475 169.92 
L 105.345 169.92 
L 106.0425 169.92 
L 106.74 169.92 
L 107.4375 169.92 
L 108.135 169.92 
L 108.8325 169.92 
L 109.53 169.92 
L 110.2275 169.92 
L 110.925 169.92 
L 111.6225 169.92 
L 112.32 169.92 
L 113.0175 169.92 
L 113.715 169.92 
L 114.4125 169.92 
L 115.11 169.92 
L 115.8075 169.92 
L 116.505 169.92 
L 117.2025 169.92 
L 117.9 169.92 
L 118.5975 169.92 
L 119.295 169.92 
L 119.9925 169.92 
L 120.69 169.92 
L 121.3875 169.92 
L 122.085 169.92 
L 122.7825 169.92 
L 123.48 169.92 
L 124.1775 169.92 
L 124.875 169.92 
L 125.5725 169.92 
L 126.27 169.92 
L 126.9675 169.92 
L 127.665 169.92 
L 128.3625 169.92 
L 129.06 169.92 
L 129.7575 169.92 
L 130.455 169.92 
L 131.1525 169.92 
L 131.85 169.92 
L 132.5475 169.92 
L 133.245 169.92 
L 133.9425 169.92 
L 134.64 169.92 
L 135.3375 169.92 
L 136.035 169.92 
L 136.7325 169.92 
L 137.43 169.92 
L 138.1275 169.92 
L 138.825 169.92 
L 139.5225 169.92 
L 140.22 169.92 
L 140.9175 169.92 
L 141.615 169.92 
L 142.3125 169.92 
L 143.01 169.92 
L 143.7075 169.92 
L 144.405 169.92 
L 145.1025 169.92 
L 145.8 169.92 
L 146.4975 169.92 
L 147.195 169.92 
L 147.8925 169.92 
L 148.59 169.92 
L 149.2875 169.92 
L 149.985 169.92 
L 150.6825 169.92 
L 151.38 169.92 
L 152.0775 169.92 
L 152.775 169.92 
L 153.4725 169.92 
L 154.17 169.92 
L 154.8675 169.92 
L 155.565 169.92 
L 156.2625 169.92 
L 156.96 169.92 
L 157.6575 169.92 
L 158.355 169.92 
L 159.0525 169.92 
L 159.75 169.92 
L 160.4475 169.92 
L 161.145 169.92 
L 161.8425 169.92 
L 162.54 169.92 
L 163.2375 169.92 
L 163.935 169.92 
L 164.6325 169.92 
L 165.33 169.92 
L 166.0275 169.92 
L 166.725 169.92 
L 167.4225 169.92 
L 168.12 169.92 
L 168.8175 169.92 
L 169.515 169.92 
L 170.2125 169.92 
L 170.91 169.92 
L 171.6075 169.92 
L 172.305 169.92 
L 173.0025 169.92 
L 173.7 169.92 
L 174.3975 169.92 
L 175.095 169.92 
L 175.7925 169.92 
L 176.49 169.92 
L 177.1875 169.92 
L 177.885 169.92 
L 178.5825 169.92 
L 179.28 169.92 
L 179.9775 169.92 
L 180.675 169.92 
L 181.3725 169.92 
L 182.07 169.92 
L 182.7675 169.92 
L 183.465 169.92 
L 184.1625 169.92 
L 184.86 169.92 
L 185.5575 169.92 
L 186.255 169.92 
L 186.9525 169.92 
L 187.65 169.92 
L 188.3475 169.92 
L 189.045 169.92 
L 189.7425 169.92 
L 190.44 169.92 
L 191.1375 169.92 
L 191.835 169.92 
L 192.5325 169.92 
L 193.23 169.92 
L 193.9275 169.92 
L 194.625 169.92 
L 195.3225 169.92 
L 196.02 169.92 
L 196.7175 169.92 
L 197.415 169.92 
L 198.1125 169.92 
L 198.81 169.92 
L 199.5075 169.92 
L 200.205 169.92 
L 200.9025 169.92 
L 201.6 169.92 
L 202.2975 169.92 
L 202.995 169.92 
L 203.6925 169.92 
L 204.39 169.92 
L 205.0875 169.92 
L 205.785 169.92 
L 206.4825 169.92 
L 207.18 169.92 
L 207.8775 169.92 
L 208.575 169.92 
L 209.2725 169.92 
L 209.97 169.92 
L 210.6675 169.92 
L 211.365 169.92 
L 212.0625 169.92 
L 212.76 169.92 
L 213.4575 169.92 
L 214.155 169.92 
L 214.8525 169.92 
L 215.55 169.92 
L 216.2475 169.92 
L 216.945 169.92 
L 217.6425 169.92 
L 218.34 169.92 
L 219.0375 169.92 
L 219.735 169.92 
L 220.4325 169.92 
L 221.13 169.92 
L 221.8275 169.92 
L 222.525 169.92 
L 223.2225 169.92 
L 223.92 169.92 
L 224.6175 169.92 
L 225.315 169.92 
L 226.0125 169.92 
L 226.71 169.92 
L 227.4075 169.92 
L 228.105 169.92 
L 228.8025 169.92 
L 229.5 169.92 
L 230.1975 169.92 
L 230.895 169.92 
L 231.5925 169.92 
L 232.29 169.92 
L 232.9875 169.92 
L 233.685 169.92 
L 234.3825 169.92 
L 235.08 169.92 
L 235.7775 169.92 
L 236.475 169.92 
L 237.1725 169.92 
L 237.87 169.92 
L 238.5675 169.92 
L 239.265 169.92 
L 239.9625 169.92 
L 240.66 169.92 
L 241.3575 169.92 
L 242.055 169.92 
L 242.7525 169.92 
L 243.45 169.92 
L 244.1475 169.92 
L 244.845 169.92 
L 245.5425 169.92 
L 246.24 169.92 
L 246.9375 169.92 
L 247.635 169.92 
L 248.3325 169.92 
L 249.03 169.92 
L 249.7275 169.92 
L 250.425 169.92 
L 251.1225 169.92 
L 251.82 169.92 
L 252.5175 169.92 
L 253.215 169.92 
L 253.9125 169.92 
L 254.61 169.92 
L 255.3075 169.92 
L 256.005 169.92 
L 256.7025 169.92 
L 257.4 169.92 
L 258.0975 169.92 
L 258.795 169.92 
L 259.4925 169.92 
L 260.19 169.92 
L 260.8875 169.92 
L 261.585 169.92 
L 262.2825 169.92 
L 262.98 169.92 
L 263.6775 169.92 
L 264.375 169.92 
L 265.0725 169.92 
L 265.77 169.92 
L 266.4675 169.92 
L 267.165 169.92 
L 267.8625 169.92 
L 268.56 169.92 
L 269.2575 169.92 
L 269.955 169.92 
L 270.6525 169.92 
L 271.35 169.92 
L 272.0475 169.92 
L 272.745 169.92 
L 273.4425 169.92 
L 274.14 169.92 
L 274.8375 169.92 
L 275.535 169.92 
L 276.2325 169.92 
L 276.93 169.92 
L 277.6275 169.92 
L 278.325 169.92 
L 279.0225 169.92 
L 279.72 169.92 
L 280.4175 169.92 
L 281.115 169.92 
L 281.8125 169.92 
L 282.51 169.92 
L 283.2075 169.92 
L 283.905 169.92 
L 284.6025 169.92 
L 285.3 169.92 
L 285.9975 169.92 
L 286.695 169.92 
L 287.3925 169.92 
L 288.09 169.92 
L 288.7875 169.92 
L 289.485 169.92 
L 290.1825 169.92 
L 290.88 169.92 
L 291.5775 169.92 
L 292.275 169.92 
L 292.9725 169.92 
L 293.67 169.92 
L 294.3675 169.92 
L 295.065 169.92 
L 295.7625 169.92 
L 296.46 169.92 
L 297.1575 169.92 
L 297.855 169.92 
L 298.5525 169.92 
L 299.25 169.92 
L 299.9475 169.92 
L 300.645 169.92 
L 301.3425 169.92 
L 302.04 169.92 
L 302.7375 169.92 
L 303.435 169.92 
L 304.1325 169.92 
L 304.83 169.92 
L 305.5275 169.92 
L 306.225 169.92 
L 306.9225 169.92 
L 307.62 169.92 
L 308.3175 169.92 
L 309.015 169.92 
L 309.7125 169.92 
L 310.41 169.92 
L 311.1075 169.92 
L 311.805 169.92 
L 312.5025 169.92 
L 313.2 169.92 
L 313.8975 169.92 
L 314.595 169.92 
L 315.2925 169.92 
L 315.99 169.92 
L 316.6875 169.92 
L 317.385 169.92 
L 318.0825 169.92 
L 318.78 169.92 
L 319.4775 169.92 
L 320.175 169.92 
L 320.8725 169.92 
L 321.57 169.92 
L 322.2675 169.92 
L 322.965 169.92 
L 323.6625 169.92 
L 324.36 169.92 
L 325.0575 169.92 
L 325.755 169.92 
L 326.4525 169.92 
L 327.15 169.92 
L 327.8475 169.92 
L 328.545 169.92 
L 329.2425 169.92 
L 329.94 169.92 
L 330.6375 169.92 
L 331.335 169.92 
L 332.0325 169.92 
L 332.73 169.92 
L 333.4275 169.92 
L 334.125 169.92 
L 334.8225 169.92 
L 335.52 169.92 
L 336.2175 169.92 
L 336.915 169.92 
L 337.6125 169.92 
L 338.31 169.92 
L 339.0075 169.92 
L 339.705 169.92 
L 340.4025 169.92 
L 341.1 169.92 
L 341.7975 169.92 
L 342.495 169.92 
L 343.1925 169.92 
L 343.89 169.92 
L 344.5875 169.92 
L 345.285 169.92 
L 345.9825 169.92 
L 346.68 169.92 
L 347.3775 169.92 
L 348.075 169.92 
L 348.7725 169.92 
L 349.47 169.92 
L 350.1675 169.92 
L 350.865 169.92 
L 351.5625 169.92 
L 352.26 169.92 
L 352.9575 169.92 
L 353.655 169.92 
L 354.3525 169.92 
L 355.05 169.92 
L 355.7475 169.92 
L 356.445 169.92 
L 357.1425 169.92 
L 357.84 169.92 
L 358.5375 169.92 
L 359.235 169.92 
L 359.9325 169.92 
L 360.63 169.92 
L 361.3275 169.92 
L 362.025 169.92 
L 362.7225 169.92 
L 363.42 169.92 
L 364.1175 169.92 
L 364.815 169.92 
L 365.5125 169.92 
L 366.21 169.92 
L 366.9075 169.92 
L 367.605 169.92 
L 368.3025 169.92 
L 369 169.92 
L 369.6975 169.92 
L 370.395 169.92 
L 371.0925 169.92 
L 371.79 169.92 
L 372.4875 169.92 
L 373.185 169.92 
L 373.8825 169.92 
L 374.58 169.92 
L 375.2775 169.92 
L 375.975 169.92 
L 376.6725 169.92 
L 377.37 169.92 
L 378.0675 169.92 
L 378.765 169.92 
L 379.4625 169.92 
L 380.16 169.92 
L 380.8575 169.92 
L 381.555 169.92 
L 382.2525 169.92 
L 382.95 169.92 
L 383.6475 169.92 
L 384.345 169.92 
L 385.0425 169.92 
L 385.74 169.92 
L 386.4375 169.92 
L 387.135 169.92 
L 387.8325 169.92 
L 388.53 169.92 
L 389.2275 169.92 
L 389.925 169.92 
L 390.6225 169.92 
L 391.32 169.92 
L 392.0175 169.92 
L 392.715 169.92 
L 393.4125 169.92 
L 394.11 169.92 
L 394.8075 169.92 
L 395.505 169.92 
L 396.2025 169.92 
L 396.9 169.92 
L 397.5975 169.92 
L 398.295 169.92 
L 398.9925 169.92 
L 399.69 169.92 
L 400.3875 169.92 
L 401.085 169.92 
L 401.7825 169.92 
L 402.48 169.92 
L 403.1775 169.92 
L 403.875 169.92 
L 404.5725 169.92 
L 405.27 169.92 
L 405.9675 169.92 
L 406.665 169.92 
L 407.3625 169.92 
L 408.06 169.92 
L 408.7575 169.92 
L 409.455 169.92 
L 410.1525 169.92 
L 410.85 169.92 
L 411.5475 169.92 
L 412.245 169.92 
L 412.9425 169.92 
L 413.64 169.92 
L 414.3375 169.92 
L 415.035 169.92 
L 415.7325 169.92 
L 416.43 169.92 
L 417.1275 169.92 
L 417.825 169.92 
L 418.5225 169.92 
L 419.22 169.92 
L 419.9175 169.92 
L 420.615 169.92 
L 421.3125 169.92 
L 422.01 169.92 
L 422.7075 169.92 
L 423.405 169.92 
L 424.1025 169.92 
L 424.8 169.92 
L 425.4975 169.92 
L 426.195 169.92 
L 426.8925 169.92 
L 427.59 169.92 
L 428.2875 169.92 
L 428.985 169.92 
L 429.6825 169.92 
L 430.38 169.92 
L 431.0775 169.92 
L 431.775 169.92 
L 432.4725 169.92 
L 433.17 169.92 
L 433.8675 169.92 
L 434.565 169.92 
L 435.2625 169.92 
L 435.96 169.92 
L 436.6575 169.92 
L 437.355 169.92 
L 438.0525 169.92 
L 438.75 169.92 
L 439.4475 169.92 
L 440.145 169.92 
L 440.8425 169.92 
L 441.54 169.92 
L 442.2375 169.92 
L 442.935 169.92 
L 443.6325 169.92 
L 444.33 169.92 
L 445.0275 169.92 
L 445.725 169.92 
L 446.4225 169.92 
L 447.12 169.92 
L 447.8175 169.92 
L 448.515 169.92 
L 449.2125 169.92 
L 449.91 169.92 
L 450.6075 169.92 
L 451.305 169.92 
L 452.0025 169.92 
L 452.7 169.92 
L 453.3975 169.92 
L 454.095 169.92 
L 454.7925 169.92 
L 455.49 169.92 
L 456.1875 169.92 
L 456.885 169.92 
L 457.5825 169.92 
L 458.28 169.92 
L 458.9775 169.92 
L 459.675 169.92 
L 460.3725 169.92 
L 461.07 169.92 
L 461.7675 169.92 
L 462.465 169.92 
L 463.1625 169.92 
L 463.86 169.92 
L 464.5575 169.92 
L 465.255 169.92 
L 465.9525 169.92 
L 466.65 169.92 
L 467.3475 169.92 
L 468.045 169.92 
L 468.7425 169.92 
L 469.44 169.92 
L 470.1375 169.92 
L 470.835 169.92 
L 471.5325 169.92 
L 472.23 169.92 
L 472.9275 169.92 
L 473.625 169.92 
L 474.3225 169.92 
L 475.02 169.92 
L 475.7175 169.92 
L 476.415 169.92 
L 477.1125 169.92 
L 477.81 169.92 
L 478.5075 169.92 
L 479.205 169.92 
L 479.9025 169.92 
L 480.6 169.92 
L 481.2975 169.92 
L 481.995 169.92 
L 482.6925 169.92 
L 483.39 169.92 
L 484.0875 169.92 
L 484.785 169.92 
L 485.4825 169.92 
L 486.18 169.92 
L 486.8775 169.92 
L 487.575 169.92 
L 488.2725 169.92 
L 488.97 169.92 
L 489.6675 169.92 
L 490.365 169.92 
L 491.0625 169.92 
L 491.76 169.92 
L 492.4575 169.92 
L 493.155 169.92 
L 493.8525 169.92 
L 494.55 169.92 
L 495.2475 169.92 
L 495.945 169.92 
L 496.6425 169.92 
L 497.34 169.92 
L 498.0375 169.92 
L 498.735 169.92 
L 499.4325 169.92 
L 500.13 169.92 
L 500.8275 169.92 
L 501.525 169.92 
L 502.2225 169.92 
L 502.92 169.92 
L 503.6175 169.92 
L 504.315 169.92 
L 505.0125 169.92 
L 505.71 169.92 
L 506.4075 169.92 
L 507.105 169.92 
L 507.8025 169.92 
L 508.5 169.92 
L 509.1975 169.92 
L 509.895 169.92 
L 510.5925 169.92 
L 511.29 169.92 
L 511.9875 169.92 
L 512.685 169.92 
L 513.3825 169.92 
L 514.08 169.92 
L 514.7775 169.92 
L 515.475 169.92 
L 516.1725 169.92 
L 516.87 169.92 
L 517.5675 169.92 
L 518.265 169.92 
L 518.9625 169.92 
L 519.66 169.92 
L 520.3575 169.92 
L 521.055 169.92 
L 521.7525 169.92 
L 522.45 169.92 
L 523.1475 169.92 
L 523.845 169.92 
L 524.5425 169.92 
L 525.24 169.92 
L 525.9375 169.92 
L 526.635 169.92 
L 527.3325 169.92 
L 528.03 169.92 
L 528.7275 169.92 
L 529.425 169.92 
L 530.1225 169.92 
L 530.82 169.92 
L 531.5175 169.92 
L 532.215 169.92 
L 532.9125 169.92 
L 533.61 169.92 
L 534.3075 169.92 
L 535.005 169.92 
L 535.7025 169.92 
L 536.4 169.92 
L 537.0975 169.92 
L 537.795 169.92 
L 538.4925 169.92 
L 539.19 169.92 
L 539.8875 169.92 
L 540.585 169.92 
L 541.2825 169.92 
L 541.98 169.92 
L 542.6775 169.92 
L 543.375 169.92 
L 544.0725 169.92 
L 544.77 169.92 
L 545.4675 169.92 
L 546.165 169.92 
L 546.8625 169.92 
L 547.56 169.92 
L 548.2575 169.92 
L 548.955 169.92 
L 549.6525 169.92 
L 550.35 169.92 
L 551.0475 169.92 
L 551.745 169.92 
L 552.4425 169.92 
L 553.14 169.92 
L 553.8375 169.92 
L 554.535 169.92 
L 555.2325 169.92 
L 555.93 169.92 
L 556.6275 169.92 
L 557.325 169.92 
L 558.0225 169.92 
L 558.72 169.92 
L 559.4175 169.92 
L 560.115 169.92 
L 560.8125 169.92 
L 561.51 169.92 
L 562.2075 169.92 
L 562.905 169.92 
L 563.6025 169.92 
L 564.3 169.92 
L 564.9975 169.92 
L 565.695 169.92 
L 566.3925 169.92 
L 567.09 169.92 
L 567.7875 169.92 
L 568.485 169.92 
L 569.1825 169.92 
L 569.88 169.92 
L 570.5775 169.92 
L 571.275 169.92 
L 571.9725 169.92 
L 572.67 169.92 
L 573.3675 169.92 
L 574.065 169.92 
L 574.7625 169.92 
L 575.46 169.92 
L 576.1575 169.92 
L 576.855 169.92 
L 577.5525 169.92 
L 578.25 169.92 
L 578.9475 169.92 
L 579.645 169.92 
L 580.3425 169.92 
L 581.04 169.92 
L 581.7375 169.92 
L 582.435 169.92 
L 583.1325 169.92 
L 583.83 169.92 
L 584.5275 169.92 
L 585.225 169.92 
L 585.9225 169.92 
L 586.62 169.92 
L 587.3175 169.92 
L 588.015 169.92 
L 588.7125 169.92 
L 589.41 169.92 
L 590.1075 169.92 
L 590.805 169.92 
L 591.5025 169.92 
L 592.2 169.92 
L 592.8975 169.92 
L 593.595 169.92 
L 594.2925 169.92 
L 594.99 169.92 
L 595.6875 169.92 
L 596.385 169.92 
L 597.0825 169.92 
L 597.78 169.92 
L 598.4775 169.92 
L 599.175 169.92 
L 599.8725 169.92 
L 600.57 169.92 
L 601.2675 169.92 
L 601.965 169.92 
L 602.6625 169.92 
L 603.36 169.92 
L 604.0575 169.92 
L 604.755 169.92 
L 605.4525 169.92 
L 606.15 169.92 
L 606.8475 169.92 
L 607.545 169.92 
L 608.2425 169.92 
L 608.94 169.92 
L 609.6375 169.92 
L 610.335 169.92 
L 611.0325 169.92 
L 611.73 169.92 
L 612.4275 169.92 
L 613.125 169.92 
L 613.8225 169.92 
L 614.52 169.92 
L 615.2175 169.92 
L 615.915 169.92 
L 616.6125 169.92 
L 617.31 169.92 
L 618.0075 169.92 
L 618.705 169.92 
L 619.4025 169.92 
L 620.1 169.92 
L 620.7975 169.92 
L 621.495 169.92 
L 622.1925 169.92 
L 622.89 169.92 
L 623.5875 169.92 
L 624.285 169.92 
L 624.9825 169.92 
L 625.68 169.92 
L 626.3775 169.92 
L 627.075 169.92 
L 627.7725 169.92 
L 628.47 169.92 
L 629.1675 169.92 
L 629.865 169.92 
L 630.5625 169.92 
L 631.26 169.92 
L 631.9575 169.92 
L 632.655 169.92 
L 633.3525 169.92 
L 634.05 169.92 
L 634.7475 169.92 
L 635.445 169.92 
L 636.1425 169.92 
L 636.84 169.92 
L 637.5375 169.92 
L 638.235 169.92 
L 638.9325 169.92 
L 639.63 169.92 
L 640.3275 169.92 
L 641.025 169.92 
L 641.7225 169.92 
L 642.42 169.92 
L 643.1175 169.92 
L 643.815 169.92 
L 644.5125 169.92 
L 645.21 169.92 
L 645.9075 169.92 
L 646.605 169.92 
L 646.605 169.92 
L 646.605 169.92 
L 645.9075 169.927289 
L 645.21 169.944296 
L 644.5125 169.973278 
L 643.815 170.016272 
L 643.1175 170.075061 
L 642.42 170.151137 
L 641.7225 170.245671 
L 641.025 170.359486 
L 640.3275 170.493035 
L 639.63 170.646387 
L 638.9325 170.819213 
L 638.235 171.010785 
L 637.5375 171.219975 
L 636.84 171.445262 
L 636.1425 171.684744 
L 635.445 171.936157 
L 634.7475 172.196902 
L 634.05 172.464069 
L 633.3525 172.734475 
L 632.655 173.0047 
L 631.9575 173.271135 
L 631.26 173.530021 
L 630.5625 173.777505 
L 629.865 174.009686 
L 629.1675 174.222674 
L 628.47 174.412641 
L 627.7725 174.575875 
L 627.075 174.708837 
L 626.3775 174.808212 
L 625.68 174.870962 
L 624.9825 174.894375 
L 624.285 174.876108 
L 623.5875 174.814231 
L 622.89 174.707266 
L 622.1925 174.554216 
L 621.495 174.354594 
L 620.7975 174.108444 
L 620.1 173.816357 
L 619.4025 173.479476 
L 618.705 173.099502 
L 618.0075 172.678684 
L 617.31 172.219814 
L 616.6125 171.726198 
L 615.915 171.201641 
L 615.2175 170.650406 
L 614.52 170.07718 
L 613.8225 169.487029 
L 613.125 168.885348 
L 612.4275 168.277805 
L 611.73 167.670284 
L 611.0325 167.068819 
L 610.335 166.479532 
L 609.6375 165.908562 
L 608.94 165.361999 
L 608.2425 164.845807 
L 607.545 164.365762 
L 606.8475 163.927378 
L 606.15 163.53584 
L 605.4525 163.195941 
L 604.755 162.912021 
L 604.0575 162.687906 
L 603.36 162.526861 
L 602.6625 162.431539 
L 601.965 162.403946 
L 601.2675 162.445401 
L 600.57 162.556514 
L 599.8725 162.737166 
L 599.175 162.9865 
L 598.4775 163.302914 
L 597.78 163.684072 
L 597.0825 164.126917 
L 596.385 164.627692 
L 595.6875 165.181971 
L 594.99 165.7847 
L 594.2925 166.430241 
L 593.595 167.112428 
L 592.8975 167.824625 
L 592.2 168.559794 
L 591.5025 169.310567 
L 590.805 170.069319 
L 590.1075 170.828254 
L 589.41 171.579484 
L 588.7125 172.315115 
L 588.015 173.027335 
L 587.3175 173.708498 
L 586.62 174.351214 
L 585.9225 174.948428 
L 585.225 175.493506 
L 584.5275 175.980309 
L 583.83 176.403269 
L 583.1325 176.757455 
L 582.435 177.038634 
L 581.7375 177.243326 
L 581.04 177.368852 
L 580.3425 177.41337 
L 579.645 177.375903 
L 578.9475 177.256365 
L 578.25 177.055566 
L 577.5525 176.775213 
L 576.855 176.417905 
L 576.1575 175.987109 
L 575.46 175.487134 
L 574.7625 174.923092 
L 574.065 174.300847 
L 573.3675 173.626964 
L 572.67 172.908639 
L 571.9725 172.153627 
L 571.275 171.370166 
L 570.5775 170.566885 
L 569.88 169.752719 
L 569.1825 168.936809 
L 568.485 168.128407 
L 567.7875 167.336772 
L 567.09 166.571069 
L 566.3925 165.840269 
L 565.695 165.153044 
L 564.9975 164.51767 
L 564.3 163.941934 
L 563.6025 163.43304 
L 562.905 162.997524 
L 562.2075 162.641174 
L 561.51 162.368961 
L 560.8125 162.184973 
L 560.115 162.092363 
L 559.4175 162.093299 
L 558.72 162.188936 
L 558.0225 162.379389 
L 557.325 162.663718 
L 556.6275 163.039933 
L 555.93 163.504998 
L 555.2325 164.054856 
L 554.535 164.684461 
L 553.8375 165.387824 
L 553.14 166.158065 
L 552.4425 166.98748 
L 551.745 167.867615 
L 551.0475 168.789351 
L 550.35 169.742995 
L 549.6525 170.718378 
L 548.955 171.70496 
L 548.2575 172.691942 
L 547.56 173.66838 
L 546.8625 174.623299 
L 546.165 175.545814 
L 545.4675 176.425246 
L 544.77 177.251244 
L 544.0725 178.013894 
L 543.375 178.703835 
L 542.6775 179.312365 
L 541.98 179.831539 
L 541.2825 180.254268 
L 540.585 180.574397 
L 539.8875 180.786789 
L 539.19 180.887384 
L 538.4925 180.873261 
L 537.795 180.742675 
L 537.0975 180.495093 
L 536.4 180.131212 
L 535.7025 179.652965 
L 535.005 179.063512 
L 534.3075 178.367223 
L 533.61 177.569645 
L 532.9125 176.677451 
L 532.215 175.698389 
L 531.5175 174.641208 
L 530.82 173.515577 
L 530.1225 172.331995 
L 529.425 171.101688 
L 528.7275 169.836501 
L 528.03 168.548778 
L 527.3325 167.251246 
L 526.635 165.956875 
L 525.9375 164.678759 
L 525.24 163.429969 
L 524.5425 162.223429 
L 523.845 161.071772 
L 523.1475 159.987214 
L 522.45 158.98142 
L 521.7525 158.065379 
L 521.055 157.249289 
L 520.3575 156.542441 
L 519.66 155.95312 
L 518.9625 155.488508 
L 518.265 155.154601 
L 517.5675 154.956145 
L 516.87 154.896566 
L 516.1725 154.977935 
L 515.475 155.20093 
L 514.7775 155.564822 
L 514.08 156.067468 
L 513.3825 156.705328 
L 512.685 157.473484 
L 511.9875 158.365684 
L 511.29 159.374397 
L 510.5925 160.490878 
L 509.895 161.705249 
L 509.1975 163.006593 
L 508.5 164.383054 
L 507.8025 165.821955 
L 507.105 167.30992 
L 506.4075 168.833 
L 505.71 170.376819 
L 505.0125 171.926706 
L 504.315 173.46785 
L 503.6175 174.985444 
L 502.92 176.464831 
L 502.2225 177.89166 
L 501.525 179.252023 
L 500.8275 180.532602 
L 500.13 181.720804 
L 499.4325 182.80489 
L 498.735 183.774095 
L 498.0375 184.618743 
L 497.34 185.330346 
L 496.6425 185.901693 
L 495.945 186.32693 
L 495.2475 186.601617 
L 494.55 186.722784 
L 493.8525 186.68896 
L 493.155 186.500197 
L 492.4575 186.158068 
L 491.76 185.665658 
L 491.0625 185.027538 
L 490.365 184.249722 
L 489.6675 183.339606 
L 488.97 182.305902 
L 488.2725 181.158549 
L 487.575 179.90862 
L 486.8775 178.568205 
L 486.18 177.150298 
L 485.4825 175.668666 
L 484.785 174.137708 
L 484.0875 172.572316 
L 483.39 170.987721 
L 482.6925 169.399344 
L 481.995 167.822635 
L 481.2975 166.272926 
L 480.6 164.765267 
L 479.9025 163.314281 
L 479.205 161.934012 
L 478.5075 160.637785 
L 477.81 159.438072 
L 477.1125 158.346363 
L 476.415 157.373053 
L 475.7175 156.527335 
L 475.02 155.817109 
L 474.3225 155.248898 
L 473.625 154.82779 
L 472.9275 154.557381 
L 472.23 154.439741 
L 471.5325 154.475396 
L 470.835 154.663322 
L 470.1375 155.000957 
L 469.44 155.484229 
L 468.7425 156.107602 
L 468.045 156.864128 
L 467.3475 157.745524 
L 466.65 158.742261 
L 465.9525 159.843655 
L 465.255 161.037985 
L 464.5575 162.312614 
L 463.86 163.654116 
L 463.1625 165.04842 
L 462.465 166.48095 
L 461.7675 167.936782 
L 461.07 169.400794 
L 460.3725 170.857824 
L 459.675 172.292825 
L 458.9775 173.69102 
L 458.28 175.038058 
L 457.5825 176.320155 
L 456.885 177.524244 
L 456.1875 178.638099 
L 455.49 179.65047 
L 454.7925 180.551191 
L 454.095 181.331287 
L 453.3975 181.983064 
L 452.7 182.500188 
L 452.0025 182.877746 
L 451.305 183.112298 
L 450.6075 183.201906 
L 449.91 183.146157 
L 449.2125 182.946161 
L 448.515 182.604539 
L 447.8175 182.12539 
L 447.12 181.514251 
L 446.4225 180.778033 
L 445.725 179.924948 
L 445.0275 178.964424 
L 444.33 177.906999 
L 443.6325 176.764214 
L 442.935 175.548491 
L 442.2375 174.273 
L 441.54 172.95152 
L 440.8425 171.598298 
L 440.145 170.227893 
L 439.4475 168.855031 
L 438.75 167.494447 
L 438.0525 166.160728 
L 437.355 164.868168 
L 436.6575 163.630612 
L 435.96 162.461317 
L 435.2625 161.37281 
L 434.565 160.37676 
L 433.8675 159.483859 
L 433.17 158.703707 
L 432.4725 158.044715 
L 431.775 157.51402 
L 431.0775 157.117409 
L 430.38 156.859261 
L 429.6825 156.742503 
L 428.985 156.768581 
L 428.2875 156.937445 
L 427.59 157.247551 
L 426.8925 157.69588 
L 426.195 158.277968 
L 425.4975 158.987956 
L 424.8 159.818651 
L 424.1025 160.761602 
L 423.405 161.807187 
L 422.7075 162.944718 
L 422.01 164.162547 
L 421.3125 165.448193 
L 420.615 166.788467 
L 419.9175 168.169612 
L 419.22 169.577446 
L 418.5225 170.997504 
L 417.825 172.415196 
L 417.1275 173.815949 
L 416.43 175.185362 
L 415.7325 176.509351 
L 415.035 177.774297 
L 414.3375 178.967182 
L 413.64 180.075724 
L 412.9425 181.088499 
L 412.245 181.995061 
L 411.5475 182.786046 
L 410.85 183.453264 
L 410.1525 183.989783 
L 409.455 184.389997 
L 408.7575 184.649682 
L 408.06 184.766034 
L 407.3625 184.737698 
L 406.665 184.564778 
L 405.9675 184.248829 
L 405.27 183.792845 
L 404.5725 183.20122 
L 403.875 182.479702 
L 403.1775 181.63533 
L 402.48 180.676361 
L 401.7825 179.612183 
L 401.085 178.453215 
L 400.3875 177.210802 
L 399.69 175.897093 
L 398.9925 174.524918 
L 398.295 173.107658 
L 397.5975 171.659104 
L 396.9 170.193322 
L 396.2025 168.724505 
L 395.505 167.266831 
L 394.8075 165.834323 
L 394.11 164.440705 
L 393.4125 163.099268 
L 392.715 161.822736 
L 392.0175 160.623143 
L 391.32 159.511713 
L 390.6225 158.498755 
L 389.925 157.593559 
L 389.2275 156.804313 
L 388.53 156.138022 
L 387.8325 155.600451 
L 387.135 155.196067 
L 386.4375 154.928005 
L 385.74 154.798048 
L 385.0425 154.806612 
L 384.345 154.952752 
L 383.6475 155.234183 
L 382.95 155.647312 
L 382.2525 156.187278 
L 381.555 156.848017 
L 380.8575 157.622325 
L 380.16 158.501944 
L 379.4625 159.477651 
L 378.765 160.539356 
L 378.0675 161.676216 
L 377.37 162.876743 
L 376.6725 164.12893 
L 375.975 165.420376 
L 375.2775 166.738411 
L 374.58 168.07023 
L 373.8825 169.403019 
L 373.185 170.724088 
L 372.4875 172.020997 
L 371.79 173.281676 
L 371.0925 174.494547 
L 370.395 175.648636 
L 369.6975 176.733675 
L 369 177.740201 
L 368.3025 178.65964 
L 367.605 179.484391 
L 366.9075 180.207885 
L 366.21 180.824645 
L 365.5125 181.330327 
L 364.815 181.721752 
L 364.1175 181.996925 
L 363.42 182.15504 
L 362.7225 182.196475 
L 362.025 182.122773 
L 361.3275 181.936611 
L 360.63 181.641761 
L 359.9325 181.243031 
L 359.235 180.74621 
L 358.5375 180.157989 
L 357.84 179.48588 
L 357.1425 178.738133 
L 356.445 177.923633 
L 355.7475 177.051805 
L 355.05 176.132502 
L 354.3525 175.175902 
L 353.655 174.192395 
L 352.9575 173.19247 
L 352.26 172.186603 
L 351.5625 171.18515 
L 350.865 170.198239 
L 350.1675 169.235662 
L 349.47 168.306784 
L 348.7725 167.420445 
L 348.075 166.584873 
L 347.3775 165.807611 
L 346.68 165.095445 
L 345.9825 164.454341 
L 345.285 163.889395 
L 344.5875 163.404794 
L 343.89 163.003785 
L 343.1925 162.688652 
L 342.495 162.460709 
L 341.7975 162.320302 
L 341.1 162.26682 
L 340.4025 162.298715 
L 339.705 162.41354 
L 339.0075 162.607984 
L 338.31 162.877925 
L 337.6125 163.218489 
L 336.915 163.624117 
L 336.2175 164.088635 
L 335.52 164.605333 
L 334.8225 165.167052 
L 334.125 165.766265 
L 333.4275 166.39517 
L 332.73 167.045784 
L 332.0325 167.710031 
L 331.335 168.379835 
L 330.6375 169.047215 
L 329.94 169.704368 
L 329.2425 170.343755 
L 328.545 170.958187 
L 327.8475 171.540895 
L 327.15 172.085602 
L 326.4525 172.586589 
L 325.755 173.038747 
L 325.0575 173.437629 
L 324.36 173.77949 
L 323.6625 174.061316 
L 322.965 174.280852 
L 322.2675 174.436611 
L 321.57 174.527883 
L 320.8725 174.554728 
L 320.175 174.517969 
L 319.4775 174.419163 
L 318.78 174.260577 
L 318.0825 174.045151 
L 317.385 173.776451 
L 316.6875 173.458621 
L 315.99 173.096324 
L 315.2925 172.694681 
L 314.595 172.259204 
L 313.8975 171.795726 
L 313.2 171.31033 
L 312.5025 170.809271 
L 311.805 170.298901 
L 311.1075 169.785596 
L 310.41 169.275678 
L 309.7125 168.775341 
L 309.015 168.290583 
L 308.3175 167.827137 
L 307.62 167.390406 
L 306.9225 166.985404 
L 306.225 166.616707 
L 305.5275 166.288398 
L 304.83 166.004031 
L 304.1325 165.766596 
L 303.435 165.578489 
L 302.7375 165.441494 
L 302.04 165.356772 
L 301.3425 165.324852 
L 300.645 165.345637 
L 299.9475 165.418413 
L 299.25 165.541867 
L 298.5525 165.714109 
L 297.855 165.932704 
L 297.1575 166.194711 
L 296.46 166.496721 
L 295.7625 166.834907 
L 295.065 167.205075 
L 294.3675 167.602722 
L 293.67 168.023088 
L 292.9725 168.461224 
L 292.275 168.912048 
L 291.5775 169.370412 
L 290.88 169.831163 
L 290.1825 170.289205 
L 289.485 170.739559 
L 288.7875 171.177422 
L 288.09 171.59822 
L 287.3925 171.997664 
L 286.695 172.371791 
L 285.9975 172.717011 
L 285.3 173.030143 
L 284.6025 173.308447 
L 283.905 173.549648 
L 283.2075 173.75196 
L 282.51 173.914093 
L 281.8125 174.035265 
L 281.115 174.1152 
L 280.4175 174.154121 
L 279.72 174.152741 
L 279.0225 174.11224 
L 278.325 174.034246 
L 277.6275 173.920801 
L 276.93 173.774329 
L 276.2325 173.597597 
L 275.535 173.393672 
L 274.8375 173.165874 
L 274.14 172.917731 
L 273.4425 172.652921 
L 272.745 172.375229 
L 272.0475 172.088487 
L 271.35 171.796525 
L 270.6525 171.503117 
L 269.955 171.211932 
L 269.2575 170.926486 
L 268.56 170.650093 
L 267.8625 170.385826 
L 267.165 170.136475 
L 266.4675 169.904517 
L 265.77 169.692079 
L 265.0725 169.500922 
L 264.375 169.332414 
L 263.6775 169.187523 
L 262.98 169.066803 
L 262.2825 168.970396 
L 261.585 168.898037 
L 260.8875 168.849057 
L 260.19 168.822408 
L 259.4925 168.816674 
L 258.795 168.830106 
L 258.0975 168.860645 
L 257.4 168.905961 
L 256.7025 168.963494 
L 256.005 169.030491 
L 255.3075 169.104055 
L 254.61 169.181191 
L 253.9125 169.258854 
L 253.215 169.334001 
L 252.5175 169.40364 
L 251.82 169.464875 
L 251.1225 169.514963 
L 250.425 169.55135 
L 249.7275 169.571723 
L 249.03 169.574047 
L 248.3325 169.556603 
L 247.635 169.518018 
L 246.9375 169.4573 
L 246.24 169.373851 
L 245.5425 169.267494 
L 244.845 169.13848 
L 244.1475 168.987493 
L 243.45 168.815653 
L 242.7525 168.624506 
L 242.055 168.416014 
L 241.3575 168.192535 
L 240.66 167.956797 
L 239.9625 167.711872 
L 239.265 167.461134 
L 238.5675 167.208226 
L 237.87 166.957007 
L 237.1725 166.711509 
L 236.475 166.475883 
L 235.7775 166.254344 
L 235.08 166.051113 
L 234.3825 165.870359 
L 233.685 165.716143 
L 232.9875 165.592354 
L 232.29 165.502658 
L 231.5925 165.450434 
L 230.895 165.438726 
L 230.1975 165.470192 
L 229.5 165.547052 
L 228.8025 165.671054 
L 228.105 165.843429 
L 227.4075 166.064865 
L 226.71 166.335476 
L 226.0125 166.65479 
L 225.315 167.021729 
L 224.6175 167.434613 
L 223.92 167.891153 
L 223.2225 168.388468 
L 222.525 168.923099 
L 221.8275 169.491035 
L 221.13 170.087745 
L 220.4325 170.708214 
L 219.735 171.346992 
L 219.0375 171.998243 
L 218.34 172.655805 
L 217.6425 173.313249 
L 216.945 173.963948 
L 216.2475 174.601147 
L 215.55 175.218035 
L 214.8525 175.807821 
L 214.155 176.363814 
L 213.4575 176.879494 
L 212.76 177.348596 
L 212.0625 177.765178 
L 211.365 178.123699 
L 210.6675 178.419089 
L 209.97 178.646811 
L 209.2725 178.802928 
L 208.575 178.884153 
L 207.8775 178.887901 
L 207.18 178.812331 
L 206.4825 178.656383 
L 205.785 178.419798 
L 205.0875 178.103145 
L 204.39 177.707825 
L 203.6925 177.236071 
L 202.995 176.690944 
L 202.2975 176.07631 
L 201.6 175.396815 
L 200.9025 174.657849 
L 200.205 173.865502 
L 199.5075 173.026509 
L 198.81 172.14819 
L 198.1125 171.238384 
L 197.415 170.305371 
L 196.7175 169.357792 
L 196.02 168.404567 
L 195.3225 167.454798 
L 194.625 166.517685 
L 193.9275 165.602424 
L 193.23 164.71811 
L 192.5325 163.873647 
L 191.835 163.077646 
L 191.1375 162.338333 
L 190.44 161.663458 
L 189.7425 161.060207 
L 189.045 160.535123 
L 188.3475 160.094027 
L 187.65 159.741949 
L 186.9525 159.48307 
L 186.255 159.320662 
L 185.5575 159.257052 
L 184.86 159.29358 
L 184.1625 159.430582 
L 183.465 159.667369 
L 182.7675 160.002229 
L 182.07 160.432435 
L 181.3725 160.954259 
L 180.675 161.563006 
L 179.9775 162.253054 
L 179.28 163.017901 
L 178.5825 163.850229 
L 177.885 164.741972 
L 177.1875 165.684395 
L 176.49 166.668176 
L 175.7925 167.683507 
L 175.095 168.720184 
L 174.3975 169.767718 
L 173.7 170.815439 
L 173.0025 171.852608 
L 172.305 172.868532 
L 171.6075 173.852673 
L 170.91 174.79476 
L 170.2125 175.684906 
L 169.515 176.513707 
L 168.8175 177.272349 
L 168.12 177.952706 
L 167.4225 178.547428 
L 166.725 179.050026 
L 166.0275 179.454947 
L 165.33 179.75764 
L 164.6325 179.954608 
L 163.935 180.043454 
L 163.2375 180.022916 
L 162.54 179.892886 
L 161.8425 179.654417 
L 161.145 179.309724 
L 160.4475 178.862165 
L 159.75 178.316214 
L 159.0525 177.67742 
L 158.355 176.952356 
L 157.6575 176.148556 
L 156.96 175.274439 
L 156.2625 174.339227 
L 155.565 173.352852 
L 154.8675 172.325853 
L 154.17 171.269268 
L 153.4725 170.194522 
L 152.775 169.113304 
L 152.0775 168.037446 
L 151.38 166.978797 
L 150.6825 165.949096 
L 149.985 164.959847 
L 149.2875 164.022193 
L 148.59 163.146794 
L 147.8925 162.343714 
L 147.195 161.622303 
L 146.4975 160.991098 
L 145.8 160.457721 
L 145.1025 160.028795 
L 144.405 159.709866 
L 143.7075 159.505332 
L 143.01 159.418395 
L 142.3125 159.45101 
L 141.615 159.603864 
L 140.9175 159.876353 
L 140.22 160.26658 
L 139.5225 160.771369 
L 138.825 161.386289 
L 138.1275 162.105687 
L 137.43 162.922745 
L 136.7325 163.829543 
L 136.035 164.817132 
L 135.3375 165.875623 
L 134.64 166.994286 
L 133.9425 168.161656 
L 133.245 169.36565 
L 132.5475 170.59369 
L 131.85 171.83283 
L 131.1525 173.069893 
L 130.455 174.291609 
L 129.7575 175.484751 
L 129.06 176.636274 
L 128.3625 177.73346 
L 127.665 178.764046 
L 126.9675 179.716361 
L 126.27 180.579453 
L 125.5725 181.343205 
L 124.875 181.998453 
L 124.1775 182.537082 
L 123.48 182.952125 
L 122.7825 183.237838 
L 122.085 183.389774 
L 121.3875 183.404834 
L 120.69 183.281312 
L 119.9925 183.018921 
L 119.295 182.618808 
L 118.5975 182.083548 
L 117.9 181.417131 
L 117.2025 180.624929 
L 116.505 179.713649 
L 115.8075 178.691276 
L 115.11 177.566995 
L 114.4125 176.351106 
L 113.715 175.054927 
L 113.0175 173.690681 
L 112.32 172.271381 
L 111.6225 170.810695 
L 110.925 169.322816 
L 110.2275 167.822318 
L 109.53 166.324008 
L 108.8325 164.842778 
L 108.135 163.393452 
L 107.4375 161.990638 
L 106.74 160.648573 
L 106.0425 159.380982 
L 105.345 158.200929 
L 104.6475 157.12069 
L 103.95 156.151615 
L 103.2525 155.304015 
L 102.555 154.587051 
L 101.8575 154.008635 
L 101.16 153.575344 
L 100.4625 153.292349 
L 99.765 153.163357 
L 99.0675 153.190566 
L 98.37 153.374638 
L 97.6725 153.714685 
L 96.975 154.208272 
L 96.2775 154.851438 
L 95.58 155.638729 
L 94.8825 156.563245 
L 94.185 157.616712 
L 93.4875 158.789551 
L 92.79 160.070979 
L 92.0925 161.449106 
L 91.395 162.911058 
L 90.6975 164.4431 
L 90 166.030769 
z
" style="fill:#e0ffff;"/>
   </g>
   <g id="line2d_19">
    <path clip-path="url(#p01151446c4)" d="M 90 166.030769 
L 92.0925 161.449106 
L 93.4875 158.789551 
L 94.8825 156.563245 
L 96.2775 154.851438 
L 97.6725 153.714685 
L 98.37 153.374638 
L 99.0675 153.190566 
L 99.765 153.163357 
L 100.4625 153.292349 
L 101.16 153.575344 
L 101.8575 154.008635 
L 103.2525 155.304015 
L 104.6475 157.12069 
L 106.0425 159.380982 
L 108.135 163.393452 
L 114.4125 176.351106 
L 115.8075 178.691276 
L 117.2025 180.624929 
L 118.5975 182.083548 
L 119.9925 183.018921 
L 120.69 183.281312 
L 121.3875 183.404834 
L 122.085 183.389774 
L 122.7825 183.237838 
L 123.48 182.952125 
L 124.875 181.998453 
L 126.27 180.579453 
L 127.665 178.764046 
L 129.7575 175.484751 
L 136.035 164.817132 
L 137.43 162.922745 
L 138.825 161.386289 
L 140.22 160.26658 
L 141.615 159.603864 
L 142.3125 159.45101 
L 143.01 159.418395 
L 143.7075 159.505332 
L 145.1025 160.028795 
L 146.4975 160.991098 
L 147.8925 162.343714 
L 149.2875 164.022193 
L 151.38 166.978797 
L 156.96 175.274439 
L 158.355 176.952356 
L 159.75 178.316214 
L 161.145 179.309724 
L 162.54 179.892886 
L 163.935 180.043454 
L 165.33 179.75764 
L 166.725 179.050026 
L 168.12 177.952706 
L 169.515 176.513707 
L 170.91 174.79476 
L 173.0025 171.852608 
L 177.885 164.741972 
L 179.28 163.017901 
L 180.675 161.563006 
L 182.07 160.432435 
L 183.465 159.667369 
L 184.86 159.29358 
L 186.255 159.320662 
L 187.65 159.741949 
L 189.045 160.535123 
L 190.44 161.663458 
L 191.835 163.077646 
L 193.9275 165.602424 
L 200.9025 174.657849 
L 202.2975 176.07631 
L 203.6925 177.236071 
L 205.0875 178.103145 
L 206.4825 178.656383 
L 207.8775 178.887901 
L 209.2725 178.802928 
L 210.6675 178.419089 
L 212.0625 177.765178 
L 213.4575 176.879494 
L 215.55 175.218035 
L 219.0375 171.998243 
L 221.8275 169.491035 
L 223.92 167.891153 
L 225.315 167.021729 
L 226.71 166.335476 
L 228.105 165.843429 
L 229.5 165.547052 
L 230.895 165.438726 
L 232.29 165.502658 
L 234.3825 165.870359 
L 236.475 166.475883 
L 244.1475 168.987493 
L 246.24 169.373851 
L 248.3325 169.556603 
L 250.425 169.55135 
L 253.9125 169.258854 
L 258.0975 168.860645 
L 260.8875 168.849057 
L 262.98 169.066803 
L 265.0725 169.500922 
L 267.165 170.136475 
L 269.955 171.211932 
L 274.8375 173.165874 
L 276.93 173.774329 
L 279.0225 174.11224 
L 280.4175 174.154121 
L 281.8125 174.035265 
L 283.2075 173.75196 
L 285.3 173.030143 
L 287.3925 171.997664 
L 290.1825 170.289205 
L 295.065 167.205075 
L 297.1575 166.194711 
L 298.5525 165.714109 
L 299.9475 165.418413 
L 301.3425 165.324852 
L 302.7375 165.441494 
L 304.1325 165.766596 
L 305.5275 166.288398 
L 307.62 167.390406 
L 309.7125 168.775341 
L 315.2925 172.694681 
L 317.385 173.776451 
L 318.78 174.260577 
L 320.175 174.517969 
L 321.57 174.527883 
L 322.965 174.280852 
L 324.36 173.77949 
L 325.755 173.038747 
L 327.15 172.085602 
L 329.2425 170.343755 
L 336.2175 164.088635 
L 337.6125 163.218489 
L 339.0075 162.607984 
L 340.4025 162.298715 
L 341.7975 162.320302 
L 343.1925 162.688652 
L 344.5875 163.404794 
L 345.9825 164.454341 
L 347.3775 165.807611 
L 348.7725 167.420445 
L 350.865 170.198239 
L 356.445 177.923633 
L 357.84 179.48588 
L 359.235 180.74621 
L 360.63 181.641761 
L 362.025 182.122773 
L 362.7225 182.196475 
L 363.42 182.15504 
L 364.1175 181.996925 
L 365.5125 181.330327 
L 366.9075 180.207885 
L 368.3025 178.65964 
L 369.6975 176.733675 
L 371.79 173.281676 
L 374.58 168.07023 
L 377.37 162.876743 
L 379.4625 159.477651 
L 380.8575 157.622325 
L 382.2525 156.187278 
L 383.6475 155.234183 
L 384.345 154.952752 
L 385.0425 154.806612 
L 385.74 154.798048 
L 386.4375 154.928005 
L 387.135 155.196067 
L 387.8325 155.600451 
L 389.2275 156.804313 
L 390.6225 158.498755 
L 392.0175 160.623143 
L 394.11 164.440705 
L 396.9 170.193322 
L 399.69 175.897093 
L 401.7825 179.612183 
L 403.1775 181.63533 
L 404.5725 183.20122 
L 405.9675 184.248829 
L 406.665 184.564778 
L 407.3625 184.737698 
L 408.06 184.766034 
L 408.7575 184.649682 
L 409.455 184.389997 
L 410.1525 183.989783 
L 411.5475 182.786046 
L 412.9425 181.088499 
L 414.3375 178.967182 
L 416.43 175.185362 
L 422.7075 162.944718 
L 424.1025 160.761602 
L 425.4975 158.987956 
L 426.8925 157.69588 
L 427.59 157.247551 
L 428.2875 156.937445 
L 428.985 156.768581 
L 429.6825 156.742503 
L 430.38 156.859261 
L 431.0775 157.117409 
L 431.775 157.51402 
L 433.17 158.703707 
L 434.565 160.37676 
L 435.96 162.461317 
L 438.0525 166.160728 
L 443.6325 176.764214 
L 445.0275 178.964424 
L 446.4225 180.778033 
L 447.8175 182.12539 
L 448.515 182.604539 
L 449.2125 182.946161 
L 449.91 183.146157 
L 450.6075 183.201906 
L 451.305 183.112298 
L 452.0025 182.877746 
L 452.7 182.500188 
L 454.095 181.331287 
L 455.49 179.65047 
L 456.885 177.524244 
L 458.9775 173.69102 
L 462.465 166.48095 
L 464.5575 162.312614 
L 465.9525 159.843655 
L 467.3475 157.745524 
L 468.7425 156.107602 
L 470.1375 155.000957 
L 470.835 154.663322 
L 471.5325 154.475396 
L 472.23 154.439741 
L 472.9275 154.557381 
L 473.625 154.82779 
L 474.3225 155.248898 
L 475.7175 156.527335 
L 477.1125 158.346363 
L 478.5075 160.637785 
L 479.9025 163.314281 
L 481.995 167.822635 
L 486.18 177.150298 
L 488.2725 181.158549 
L 489.6675 183.339606 
L 491.0625 185.027538 
L 492.4575 186.158068 
L 493.155 186.500197 
L 493.8525 186.68896 
L 494.55 186.722784 
L 495.2475 186.601617 
L 495.945 186.32693 
L 496.6425 185.901693 
L 498.0375 184.618743 
L 499.4325 182.80489 
L 500.8275 180.532602 
L 502.92 176.464831 
L 506.4075 168.833 
L 509.1975 163.006593 
L 510.5925 160.490878 
L 511.9875 158.365684 
L 513.3825 156.705328 
L 514.7775 155.564822 
L 515.475 155.20093 
L 516.1725 154.977935 
L 516.87 154.896566 
L 517.5675 154.956145 
L 518.265 155.154601 
L 518.9625 155.488508 
L 520.3575 156.542441 
L 521.7525 158.065379 
L 523.1475 159.987214 
L 525.24 163.429969 
L 532.215 175.698389 
L 533.61 177.569645 
L 535.005 179.063512 
L 536.4 180.131212 
L 537.795 180.742675 
L 538.4925 180.873261 
L 539.19 180.887384 
L 540.585 180.574397 
L 541.98 179.831539 
L 543.375 178.703835 
L 544.77 177.251244 
L 546.8625 174.623299 
L 553.14 166.158065 
L 554.535 164.684461 
L 555.93 163.504998 
L 557.325 162.663718 
L 558.72 162.188936 
L 560.115 162.092363 
L 561.51 162.368961 
L 562.905 162.997524 
L 564.3 163.941934 
L 565.695 165.153044 
L 567.7875 167.336772 
L 574.065 174.300847 
L 575.46 175.487134 
L 576.855 176.417905 
L 578.25 177.055566 
L 579.645 177.375903 
L 581.04 177.368852 
L 582.435 177.038634 
L 583.83 176.403269 
L 585.225 175.493506 
L 586.62 174.351214 
L 588.7125 172.315115 
L 594.99 165.7847 
L 596.385 164.627692 
L 597.78 163.684072 
L 599.175 162.9865 
L 600.57 162.556514 
L 601.965 162.403946 
L 603.36 162.526861 
L 604.755 162.912021 
L 606.15 163.53584 
L 607.545 164.365762 
L 609.6375 165.908562 
L 613.125 168.885348 
L 615.915 171.201641 
L 618.0075 172.678684 
L 620.1 173.816357 
L 621.495 174.354594 
L 622.89 174.707266 
L 624.285 174.876108 
L 625.68 174.870962 
L 627.7725 174.575875 
L 629.865 174.009686 
L 633.3525 172.734475 
L 637.5375 171.219975 
L 640.3275 170.493035 
L 642.42 170.151137 
L 645.21 169.944296 
L 646.605 169.92 
L 646.605 169.92 
" style="fill:none;stroke:#008080;stroke-linecap:round;stroke-width:1.75;"/>
   </g>
   <g id="patch_3">
    <path d="M 90 270.72 
L 90 69.12 
" style="fill:none;stroke:#262626;stroke-linecap:square;stroke-linejoin:miter;stroke-width:1.25;"/>
   </g>
   <g id="patch_4">
    <path d="M 90 270.72 
L 648 270.72 
" style="fill:none;stroke:#262626;stroke-linecap:square;stroke-linejoin:miter;stroke-width:1.25;"/>
   </g>
  </g>
  <g id="axes_2">
   <g id="patch_5">
    <path d="M 90 512.64 
L 648 512.64 
L 648 311.04 
L 90 311.04 
z
" style="fill:#ffffff;"/>
   </g>
   <g id="matplotlib.axis_3">
    <g id="xtick_10">
     <g id="line2d_20">
      <g>
       <use style="fill:#262626;stroke:#262626;" x="191.454545" xlink:href="#mc942df240a" y="512.64"/>
      </g>
     </g>
     <g id="text_19">
      <!-- 200 -->
      <g style="fill:#262626;" transform="translate(183.113139 532.797812)scale(0.1 -0.1)">
       <use xlink:href="#ArialMT-32"/>
       <use x="55.615234" xlink:href="#ArialMT-30"/>
       <use x="111.230469" xlink:href="#ArialMT-30"/>
      </g>
     </g>
    </g>
    <g id="xtick_11">
     <g id="line2d_21">
      <g>
       <use style="fill:#262626;stroke:#262626;" x="304.181818" xlink:href="#mc942df240a" y="512.64"/>
      </g>
     </g>
     <g id="text_20">
      <!-- 400 -->
      <g style="fill:#262626;" transform="translate(295.840412 532.797812)scale(0.1 -0.1)">
       <use xlink:href="#ArialMT-34"/>
       <use x="55.615234" xlink:href="#ArialMT-30"/>
       <use x="111.230469" xlink:href="#ArialMT-30"/>
      </g>
     </g>
    </g>
    <g id="xtick_12">
     <g id="line2d_22">
      <g>
       <use style="fill:#262626;stroke:#262626;" x="416.909091" xlink:href="#mc942df240a" y="512.64"/>
      </g>
     </g>
     <g id="text_21">
      <!-- 600 -->
      <g style="fill:#262626;" transform="translate(408.567685 532.797812)scale(0.1 -0.1)">
       <use xlink:href="#ArialMT-36"/>
       <use x="55.615234" xlink:href="#ArialMT-30"/>
       <use x="111.230469" xlink:href="#ArialMT-30"/>
      </g>
     </g>
    </g>
    <g id="xtick_13">
     <g id="line2d_23">
      <g>
       <use style="fill:#262626;stroke:#262626;" x="529.636364" xlink:href="#mc942df240a" y="512.64"/>
      </g>
     </g>
     <g id="text_22">
      <!-- 800 -->
      <g style="fill:#262626;" transform="translate(521.294957 532.797812)scale(0.1 -0.1)">
       <use xlink:href="#ArialMT-38"/>
       <use x="55.615234" xlink:href="#ArialMT-30"/>
       <use x="111.230469" xlink:href="#ArialMT-30"/>
      </g>
     </g>
    </g>
    <g id="xtick_14">
     <g id="line2d_24">
      <g>
       <use style="fill:#262626;stroke:#262626;" x="642.363636" xlink:href="#mc942df240a" y="512.64"/>
      </g>
     </g>
     <g id="text_23">
      <!-- 1000 -->
      <g style="fill:#262626;" transform="translate(631.241761 532.797812)scale(0.1 -0.1)">
       <use xlink:href="#ArialMT-31"/>
       <use x="55.615234" xlink:href="#ArialMT-30"/>
       <use x="111.230469" xlink:href="#ArialMT-30"/>
       <use x="166.845703" xlink:href="#ArialMT-30"/>
      </g>
     </g>
    </g>
   </g>
   <g id="matplotlib.axis_4">
    <g id="ytick_10">
     <g id="line2d_25">
      <g>
       <use style="fill:#262626;stroke:#262626;" x="90" xlink:href="#m69a61bbfdf" y="512.64"/>
      </g>
     </g>
     <g id="text_24">
      <!-- 0 -->
      <g style="fill:#262626;" transform="translate(71.439063 516.218906)scale(0.1 -0.1)">
       <use xlink:href="#ArialMT-30"/>
      </g>
     </g>
    </g>
    <g id="ytick_11">
     <g id="line2d_26">
      <g>
       <use style="fill:#262626;stroke:#262626;" x="90" xlink:href="#m69a61bbfdf" y="487.44"/>
      </g>
     </g>
     <g id="text_25">
      <!-- 5 -->
      <g style="fill:#262626;" transform="translate(71.439063 491.018906)scale(0.1 -0.1)">
       <use xlink:href="#ArialMT-35"/>
      </g>
     </g>
    </g>
    <g id="ytick_12">
     <g id="line2d_27">
      <g>
       <use style="fill:#262626;stroke:#262626;" x="90" xlink:href="#m69a61bbfdf" y="462.24"/>
      </g>
     </g>
     <g id="text_26">
      <!-- 10 -->
      <g style="fill:#262626;" transform="translate(65.878125 465.818906)scale(0.1 -0.1)">
       <use xlink:href="#ArialMT-31"/>
       <use x="55.615234" xlink:href="#ArialMT-30"/>
      </g>
     </g>
    </g>
    <g id="ytick_13">
     <g id="line2d_28">
      <g>
       <use style="fill:#262626;stroke:#262626;" x="90" xlink:href="#m69a61bbfdf" y="437.04"/>
      </g>
     </g>
     <g id="text_27">
      <!-- 15 -->
      <g style="fill:#262626;" transform="translate(65.878125 440.618906)scale(0.1 -0.1)">
       <use xlink:href="#ArialMT-31"/>
       <use x="55.615234" xlink:href="#ArialMT-35"/>
      </g>
     </g>
    </g>
    <g id="ytick_14">
     <g id="line2d_29">
      <g>
       <use style="fill:#262626;stroke:#262626;" x="90" xlink:href="#m69a61bbfdf" y="411.84"/>
      </g>
     </g>
     <g id="text_28">
      <!-- 20 -->
      <g style="fill:#262626;" transform="translate(65.878125 415.418906)scale(0.1 -0.1)">
       <use xlink:href="#ArialMT-32"/>
       <use x="55.615234" xlink:href="#ArialMT-30"/>
      </g>
     </g>
    </g>
    <g id="ytick_15">
     <g id="line2d_30">
      <g>
       <use style="fill:#262626;stroke:#262626;" x="90" xlink:href="#m69a61bbfdf" y="386.64"/>
      </g>
     </g>
     <g id="text_29">
      <!-- 25 -->
      <g style="fill:#262626;" transform="translate(65.878125 390.218906)scale(0.1 -0.1)">
       <use xlink:href="#ArialMT-32"/>
       <use x="55.615234" xlink:href="#ArialMT-35"/>
      </g>
     </g>
    </g>
    <g id="ytick_16">
     <g id="line2d_31">
      <g>
       <use style="fill:#262626;stroke:#262626;" x="90" xlink:href="#m69a61bbfdf" y="361.44"/>
      </g>
     </g>
     <g id="text_30">
      <!-- 30 -->
      <g style="fill:#262626;" transform="translate(65.878125 365.018906)scale(0.1 -0.1)">
       <use xlink:href="#ArialMT-33"/>
       <use x="55.615234" xlink:href="#ArialMT-30"/>
      </g>
     </g>
    </g>
    <g id="ytick_17">
     <g id="line2d_32">
      <g>
       <use style="fill:#262626;stroke:#262626;" x="90" xlink:href="#m69a61bbfdf" y="336.24"/>
      </g>
     </g>
     <g id="text_31">
      <!-- 35 -->
      <g style="fill:#262626;" transform="translate(65.878125 339.818906)scale(0.1 -0.1)">
       <use xlink:href="#ArialMT-33"/>
       <use x="55.615234" xlink:href="#ArialMT-35"/>
      </g>
     </g>
    </g>
    <g id="ytick_18">
     <g id="line2d_33">
      <g>
       <use style="fill:#262626;stroke:#262626;" x="90" xlink:href="#m69a61bbfdf" y="311.04"/>
      </g>
     </g>
     <g id="text_32">
      <!-- 40 -->
      <g style="fill:#262626;" transform="translate(65.878125 314.618906)scale(0.1 -0.1)">
       <use xlink:href="#ArialMT-34"/>
       <use x="55.615234" xlink:href="#ArialMT-30"/>
      </g>
     </g>
    </g>
   </g>
   <g id="line2d_34">
    <path clip-path="url(#pf28ba1aabb)" d="M 90 488.562059 
L 95.636364 492.871917 
L 101.272727 491.915277 
L 106.909091 490.291312 
L 112.545455 492.192009 
L 118.181818 490.692663 
L 123.818182 490.203121 
L 129.454545 491.968658 
L 135.090909 490.163889 
L 140.727273 490.392837 
L 146.363636 490.241829 
L 152 489.156296 
L 157.636364 490.240305 
L 163.272727 490.645166 
L 168.909091 488.187222 
L 174.545455 488.633986 
L 180.181818 487.313077 
L 185.818182 487.018973 
L 191.454545 487.338343 
L 197.090909 486.121391 
L 202.727273 487.201243 
L 208.363636 484.042031 
L 214 483.157918 
L 219.636364 483.169266 
L 225.272727 482.846357 
L 230.909091 480.992047 
L 236.545455 479.145187 
L 242.181818 476.443916 
L 247.818182 475.314111 
L 253.454545 475.654125 
L 259.090909 473.305387 
L 264.727273 469.316541 
L 270.363636 463.226508 
L 276 459.185057 
L 281.636364 457.614718 
L 287.272727 454.794335 
L 292.909091 445.504843 
L 298.545455 423.732573 
L 304.181818 397.596726 
L 309.818182 374.961344 
L 315.454545 359.936381 
L 321.090909 350.604229 
L 326.727273 348.320806 
L 332.363636 355.280194 
L 338 371.866917 
L 343.636364 395.340341 
L 349.272727 419.997954 
L 354.909091 443.187999 
L 360.545455 460.277658 
L 366.181818 467.98198 
L 371.818182 471.852273 
L 377.454545 475.259843 
L 383.090909 478.489151 
L 388.727273 479.074231 
L 394.363636 476.894748 
L 400 474.552455 
L 405.636364 471.950812 
L 411.272727 468.681632 
L 416.909091 461.027911 
L 422.545455 441.166731 
L 428.181818 416.729328 
L 433.818182 392.840566 
L 439.454545 373.276917 
L 445.090909 358.526684 
L 450.727273 350.201791 
L 456.363636 350.555151 
L 462 360.822412 
L 467.636364 379.751599 
L 473.272727 402.879459 
L 478.909091 427.733924 
L 484.545455 450.40347 
L 490.181818 458.450826 
L 495.818182 461.938755 
" style="fill:none;stroke:#b22222;stroke-linecap:round;stroke-width:1.75;"/>
   </g>
   <g id="patch_6">
    <path d="M 90 512.64 
L 90 311.04 
" style="fill:none;stroke:#262626;stroke-linecap:square;stroke-linejoin:miter;stroke-width:1.25;"/>
   </g>
   <g id="patch_7">
    <path d="M 90 512.64 
L 648 512.64 
" style="fill:none;stroke:#262626;stroke-linecap:square;stroke-linejoin:miter;stroke-width:1.25;"/>
   </g>
   <g id="text_33">
    <!-- f = 740 Hz -->
    <defs>
     <path d="M 8.6875 0 
L 8.6875 45.015625 
L 0.921875 45.015625 
L 0.921875 51.859375 
L 8.6875 51.859375 
L 8.6875 57.375 
Q 8.6875 62.59375 9.625 65.140625 
Q 10.890625 68.5625 14.078125 70.671875 
Q 17.28125 72.796875 23.046875 72.796875 
Q 26.765625 72.796875 31.25 71.921875 
L 29.9375 64.265625 
Q 27.203125 64.75 24.75 64.75 
Q 20.75 64.75 19.09375 63.03125 
Q 17.4375 61.328125 17.4375 56.640625 
L 17.4375 51.859375 
L 27.546875 51.859375 
L 27.546875 45.015625 
L 17.4375 45.015625 
L 17.4375 0 
z
" id="ArialMT-66"/>
     <path id="ArialMT-20"/>
     <path d="M 52.828125 42.09375 
L 5.5625 42.09375 
L 5.5625 50.296875 
L 52.828125 50.296875 
z
M 52.828125 20.359375 
L 5.5625 20.359375 
L 5.5625 28.5625 
L 52.828125 28.5625 
z
" id="ArialMT-3d"/>
     <path d="M 8.015625 0 
L 8.015625 71.578125 
L 17.484375 71.578125 
L 17.484375 42.1875 
L 54.6875 42.1875 
L 54.6875 71.578125 
L 64.15625 71.578125 
L 64.15625 0 
L 54.6875 0 
L 54.6875 33.734375 
L 17.484375 33.734375 
L 17.484375 0 
z
" id="ArialMT-48"/>
     <path d="M 1.953125 0 
L 1.953125 7.125 
L 34.96875 45.015625 
Q 29.34375 44.734375 25.046875 44.734375 
L 3.90625 44.734375 
L 3.90625 51.859375 
L 46.296875 51.859375 
L 46.296875 46.046875 
L 18.21875 13.140625 
L 12.796875 7.125 
Q 18.703125 7.5625 23.875 7.5625 
L 47.859375 7.5625 
L 47.859375 0 
z
" id="ArialMT-7a"/>
    </defs>
    <g style="fill:#262626;" transform="translate(529.636364 364.542187)scale(0.12 -0.12)">
     <use xlink:href="#ArialMT-66"/>
     <use x="27.783203" xlink:href="#ArialMT-20"/>
     <use x="55.566406" xlink:href="#ArialMT-3d"/>
     <use x="113.964844" xlink:href="#ArialMT-20"/>
     <use x="141.748047" xlink:href="#ArialMT-37"/>
     <use x="197.363281" xlink:href="#ArialMT-34"/>
     <use x="252.978516" xlink:href="#ArialMT-30"/>
     <use x="308.59375" xlink:href="#ArialMT-20"/>
     <use x="336.376953" xlink:href="#ArialMT-48"/>
     <use x="408.59375" xlink:href="#ArialMT-7a"/>
    </g>
   </g>
   <g id="PathCollection_1">
    <defs>
     <path d="M 0 3.5 
C 0.928211 3.5 1.81853 3.131218 2.474874 2.474874 
C 3.131218 1.81853 3.5 0.928211 3.5 0 
C 3.5 -0.928211 3.131218 -1.81853 2.474874 -2.474874 
C 1.81853 -3.131218 0.928211 -3.5 0 -3.5 
C -0.928211 -3.5 -1.81853 -3.131218 -2.474874 -2.474874 
C -3.131218 -1.81853 -3.5 -0.928211 -3.5 0 
C -3.5 0.928211 -3.131218 1.81853 -2.474874 2.474874 
C -1.81853 3.131218 -0.928211 3.5 0 3.5 
z
" id="m00429e9050" style="stroke:#800000;stroke-width:0.3;"/>
    </defs>
    <g clip-path="url(#pf28ba1aabb)">
     <use style="fill:#800000;stroke:#800000;stroke-width:0.3;" x="495.818182" xlink:href="#m00429e9050" y="461.938755"/>
    </g>
   </g>
  </g>
 </g>
 <defs>
  <clipPath id="p01151446c4">
   <rect height="201.6" width="558" x="90" y="69.12"/>
  </clipPath>
  <clipPath id="pf28ba1aabb">
   <rect height="201.6" width="558" x="90" y="311.04"/>
  </clipPath>
 </defs>
</svg>
