<?xml version="1.0" encoding="utf-8" standalone="no"?>
<!DOCTYPE svg PUBLIC "-//W3C//DTD SVG 1.1//EN"
  "http://www.w3.org/Graphics/SVG/1.1/DTD/svg11.dtd">
<!-- Created with matplotlib (http://matplotlib.org/) -->
<svg height="576pt" version="1.1" viewBox="0 0 720 576" width="720pt" xmlns="http://www.w3.org/2000/svg" xmlns:xlink="http://www.w3.org/1999/xlink">
 <defs>
  <style type="text/css">
*{stroke-linecap:butt;stroke-linejoin:round;}
  </style>
 </defs>
 <g id="figure_1">
  <g id="patch_1">
   <path d="M 0 576 
L 720 576 
L 720 0 
L 0 0 
z
" style="fill:#ffffff;"/>
  </g>
  <g id="axes_1">
   <g id="patch_2">
    <path d="M 90 270.72 
L 648 270.72 
L 648 69.12 
L 90 69.12 
z
" style="fill:#ffffff;"/>
   </g>
   <g id="matplotlib.axis_1">
    <g id="xtick_1">
     <g id="line2d_1">
      <defs>
       <path d="M 0 0 
L 0 6 
" id="m324938ca8e" style="stroke:#262626;"/>
      </defs>
      <g>
       <use style="fill:#262626;stroke:#262626;" x="90" xlink:href="#m324938ca8e" y="270.72"/>
      </g>
     </g>
     <g id="text_1">
      <!-- 0 -->
      <defs>
       <path d="M 4.15625 35.296875 
Q 4.15625 48 6.765625 55.734375 
Q 9.375 63.484375 14.515625 67.671875 
Q 19.671875 71.875 27.484375 71.875 
Q 33.25 71.875 37.59375 69.546875 
Q 41.9375 67.234375 44.765625 62.859375 
Q 47.609375 58.5 49.21875 52.21875 
Q 50.828125 45.953125 50.828125 35.296875 
Q 50.828125 22.703125 48.234375 14.96875 
Q 45.65625 7.234375 40.5 3 
Q 35.359375 -1.21875 27.484375 -1.21875 
Q 17.140625 -1.21875 11.234375 6.203125 
Q 4.15625 15.140625 4.15625 35.296875 
z
M 13.1875 35.296875 
Q 13.1875 17.671875 17.3125 11.828125 
Q 21.4375 6 27.484375 6 
Q 33.546875 6 37.671875 11.859375 
Q 41.796875 17.71875 41.796875 35.296875 
Q 41.796875 52.984375 37.671875 58.78125 
Q 33.546875 64.59375 27.390625 64.59375 
Q 21.34375 64.59375 17.71875 59.46875 
Q 13.1875 52.9375 13.1875 35.296875 
z
" id="ArialMT-30"/>
      </defs>
      <g style="fill:#262626;" transform="translate(87.219531 290.877812)scale(0.1 -0.1)">
       <use xlink:href="#ArialMT-30"/>
      </g>
     </g>
    </g>
    <g id="xtick_2">
     <g id="line2d_2">
      <g>
       <use style="fill:#262626;stroke:#262626;" x="159.75" xlink:href="#m324938ca8e" y="270.72"/>
      </g>
     </g>
     <g id="text_2">
      <!-- 100 -->
      <defs>
       <path d="M 37.25 0 
L 28.46875 0 
L 28.46875 56 
Q 25.296875 52.984375 20.140625 49.953125 
Q 14.984375 46.921875 10.890625 45.40625 
L 10.890625 53.90625 
Q 18.265625 57.375 23.78125 62.296875 
Q 29.296875 67.234375 31.59375 71.875 
L 37.25 71.875 
z
" id="ArialMT-31"/>
      </defs>
      <g style="fill:#262626;" transform="translate(151.408594 290.877812)scale(0.1 -0.1)">
       <use xlink:href="#ArialMT-31"/>
       <use x="55.615234" xlink:href="#ArialMT-30"/>
       <use x="111.230469" xlink:href="#ArialMT-30"/>
      </g>
     </g>
    </g>
    <g id="xtick_3">
     <g id="line2d_3">
      <g>
       <use style="fill:#262626;stroke:#262626;" x="229.5" xlink:href="#m324938ca8e" y="270.72"/>
      </g>
     </g>
     <g id="text_3">
      <!-- 200 -->
      <defs>
       <path d="M 50.34375 8.453125 
L 50.34375 0 
L 3.03125 0 
Q 2.9375 3.171875 4.046875 6.109375 
Q 5.859375 10.9375 9.828125 15.625 
Q 13.8125 20.3125 21.34375 26.46875 
Q 33.015625 36.03125 37.109375 41.625 
Q 41.21875 47.21875 41.21875 52.203125 
Q 41.21875 57.421875 37.46875 61 
Q 33.734375 64.59375 27.734375 64.59375 
Q 21.390625 64.59375 17.578125 60.78125 
Q 13.765625 56.984375 13.71875 50.25 
L 4.6875 51.171875 
Q 5.609375 61.28125 11.65625 66.578125 
Q 17.71875 71.875 27.9375 71.875 
Q 38.234375 71.875 44.234375 66.15625 
Q 50.25 60.453125 50.25 52 
Q 50.25 47.703125 48.484375 43.546875 
Q 46.734375 39.40625 42.65625 34.8125 
Q 38.578125 30.21875 29.109375 22.21875 
Q 21.1875 15.578125 18.9375 13.203125 
Q 16.703125 10.84375 15.234375 8.453125 
z
" id="ArialMT-32"/>
      </defs>
      <g style="fill:#262626;" transform="translate(221.158594 290.877812)scale(0.1 -0.1)">
       <use xlink:href="#ArialMT-32"/>
       <use x="55.615234" xlink:href="#ArialMT-30"/>
       <use x="111.230469" xlink:href="#ArialMT-30"/>
      </g>
     </g>
    </g>
    <g id="xtick_4">
     <g id="line2d_4">
      <g>
       <use style="fill:#262626;stroke:#262626;" x="299.25" xlink:href="#m324938ca8e" y="270.72"/>
      </g>
     </g>
     <g id="text_4">
      <!-- 300 -->
      <defs>
       <path d="M 4.203125 18.890625 
L 12.984375 20.0625 
Q 14.5 12.59375 18.140625 9.296875 
Q 21.78125 6 27 6 
Q 33.203125 6 37.46875 10.296875 
Q 41.75 14.59375 41.75 20.953125 
Q 41.75 27 37.796875 30.921875 
Q 33.84375 34.859375 27.734375 34.859375 
Q 25.25 34.859375 21.53125 33.890625 
L 22.515625 41.609375 
Q 23.390625 41.5 23.921875 41.5 
Q 29.546875 41.5 34.03125 44.421875 
Q 38.53125 47.359375 38.53125 53.46875 
Q 38.53125 58.296875 35.25 61.46875 
Q 31.984375 64.65625 26.8125 64.65625 
Q 21.6875 64.65625 18.265625 61.421875 
Q 14.84375 58.203125 13.875 51.765625 
L 5.078125 53.328125 
Q 6.6875 62.15625 12.390625 67.015625 
Q 18.109375 71.875 26.609375 71.875 
Q 32.46875 71.875 37.390625 69.359375 
Q 42.328125 66.84375 44.9375 62.5 
Q 47.5625 58.15625 47.5625 53.265625 
Q 47.5625 48.640625 45.0625 44.828125 
Q 42.578125 41.015625 37.703125 38.765625 
Q 44.046875 37.3125 47.5625 32.6875 
Q 51.078125 28.078125 51.078125 21.140625 
Q 51.078125 11.765625 44.234375 5.25 
Q 37.40625 -1.265625 26.953125 -1.265625 
Q 17.53125 -1.265625 11.296875 4.34375 
Q 5.078125 9.96875 4.203125 18.890625 
z
" id="ArialMT-33"/>
      </defs>
      <g style="fill:#262626;" transform="translate(290.908594 290.877812)scale(0.1 -0.1)">
       <use xlink:href="#ArialMT-33"/>
       <use x="55.615234" xlink:href="#ArialMT-30"/>
       <use x="111.230469" xlink:href="#ArialMT-30"/>
      </g>
     </g>
    </g>
    <g id="xtick_5">
     <g id="line2d_5">
      <g>
       <use style="fill:#262626;stroke:#262626;" x="369" xlink:href="#m324938ca8e" y="270.72"/>
      </g>
     </g>
     <g id="text_5">
      <!-- 400 -->
      <defs>
       <path d="M 32.328125 0 
L 32.328125 17.140625 
L 1.265625 17.140625 
L 1.265625 25.203125 
L 33.9375 71.578125 
L 41.109375 71.578125 
L 41.109375 25.203125 
L 50.78125 25.203125 
L 50.78125 17.140625 
L 41.109375 17.140625 
L 41.109375 0 
z
M 32.328125 25.203125 
L 32.328125 57.46875 
L 9.90625 25.203125 
z
" id="ArialMT-34"/>
      </defs>
      <g style="fill:#262626;" transform="translate(360.658594 290.877812)scale(0.1 -0.1)">
       <use xlink:href="#ArialMT-34"/>
       <use x="55.615234" xlink:href="#ArialMT-30"/>
       <use x="111.230469" xlink:href="#ArialMT-30"/>
      </g>
     </g>
    </g>
    <g id="xtick_6">
     <g id="line2d_6">
      <g>
       <use style="fill:#262626;stroke:#262626;" x="438.75" xlink:href="#m324938ca8e" y="270.72"/>
      </g>
     </g>
     <g id="text_6">
      <!-- 500 -->
      <defs>
       <path d="M 4.15625 18.75 
L 13.375 19.53125 
Q 14.40625 12.796875 18.140625 9.390625 
Q 21.875 6 27.15625 6 
Q 33.5 6 37.890625 10.78125 
Q 42.28125 15.578125 42.28125 23.484375 
Q 42.28125 31 38.0625 35.34375 
Q 33.84375 39.703125 27 39.703125 
Q 22.75 39.703125 19.328125 37.765625 
Q 15.921875 35.84375 13.96875 32.765625 
L 5.71875 33.84375 
L 12.640625 70.609375 
L 48.25 70.609375 
L 48.25 62.203125 
L 19.671875 62.203125 
L 15.828125 42.96875 
Q 22.265625 47.46875 29.34375 47.46875 
Q 38.71875 47.46875 45.15625 40.96875 
Q 51.609375 34.46875 51.609375 24.265625 
Q 51.609375 14.546875 45.953125 7.46875 
Q 39.0625 -1.21875 27.15625 -1.21875 
Q 17.390625 -1.21875 11.203125 4.25 
Q 5.03125 9.71875 4.15625 18.75 
z
" id="ArialMT-35"/>
      </defs>
      <g style="fill:#262626;" transform="translate(430.408594 290.877812)scale(0.1 -0.1)">
       <use xlink:href="#ArialMT-35"/>
       <use x="55.615234" xlink:href="#ArialMT-30"/>
       <use x="111.230469" xlink:href="#ArialMT-30"/>
      </g>
     </g>
    </g>
    <g id="xtick_7">
     <g id="line2d_7">
      <g>
       <use style="fill:#262626;stroke:#262626;" x="508.5" xlink:href="#m324938ca8e" y="270.72"/>
      </g>
     </g>
     <g id="text_7">
      <!-- 600 -->
      <defs>
       <path d="M 49.75 54.046875 
L 41.015625 53.375 
Q 39.84375 58.546875 37.703125 60.890625 
Q 34.125 64.65625 28.90625 64.65625 
Q 24.703125 64.65625 21.53125 62.3125 
Q 17.390625 59.28125 14.984375 53.46875 
Q 12.59375 47.65625 12.5 36.921875 
Q 15.671875 41.75 20.265625 44.09375 
Q 24.859375 46.4375 29.890625 46.4375 
Q 38.671875 46.4375 44.84375 39.96875 
Q 51.03125 33.5 51.03125 23.25 
Q 51.03125 16.5 48.125 10.71875 
Q 45.21875 4.9375 40.140625 1.859375 
Q 35.0625 -1.21875 28.609375 -1.21875 
Q 17.625 -1.21875 10.6875 6.859375 
Q 3.765625 14.9375 3.765625 33.5 
Q 3.765625 54.25 11.421875 63.671875 
Q 18.109375 71.875 29.4375 71.875 
Q 37.890625 71.875 43.28125 67.140625 
Q 48.6875 62.40625 49.75 54.046875 
z
M 13.875 23.1875 
Q 13.875 18.65625 15.796875 14.5 
Q 17.71875 10.359375 21.1875 8.171875 
Q 24.65625 6 28.46875 6 
Q 34.03125 6 38.03125 10.484375 
Q 42.046875 14.984375 42.046875 22.703125 
Q 42.046875 30.125 38.078125 34.390625 
Q 34.125 38.671875 28.125 38.671875 
Q 22.171875 38.671875 18.015625 34.390625 
Q 13.875 30.125 13.875 23.1875 
z
" id="ArialMT-36"/>
      </defs>
      <g style="fill:#262626;" transform="translate(500.158594 290.877812)scale(0.1 -0.1)">
       <use xlink:href="#ArialMT-36"/>
       <use x="55.615234" xlink:href="#ArialMT-30"/>
       <use x="111.230469" xlink:href="#ArialMT-30"/>
      </g>
     </g>
    </g>
    <g id="xtick_8">
     <g id="line2d_8">
      <g>
       <use style="fill:#262626;stroke:#262626;" x="578.25" xlink:href="#m324938ca8e" y="270.72"/>
      </g>
     </g>
     <g id="text_8">
      <!-- 700 -->
      <defs>
       <path d="M 4.734375 62.203125 
L 4.734375 70.65625 
L 51.078125 70.65625 
L 51.078125 63.8125 
Q 44.234375 56.546875 37.515625 44.484375 
Q 30.8125 32.421875 27.15625 19.671875 
Q 24.515625 10.6875 23.78125 0 
L 14.75 0 
Q 14.890625 8.453125 18.0625 20.40625 
Q 21.234375 32.375 27.171875 43.484375 
Q 33.109375 54.59375 39.796875 62.203125 
z
" id="ArialMT-37"/>
      </defs>
      <g style="fill:#262626;" transform="translate(569.908594 290.877812)scale(0.1 -0.1)">
       <use xlink:href="#ArialMT-37"/>
       <use x="55.615234" xlink:href="#ArialMT-30"/>
       <use x="111.230469" xlink:href="#ArialMT-30"/>
      </g>
     </g>
    </g>
    <g id="xtick_9">
     <g id="line2d_9">
      <g>
       <use style="fill:#262626;stroke:#262626;" x="648" xlink:href="#m324938ca8e" y="270.72"/>
      </g>
     </g>
     <g id="text_9">
      <!-- 800 -->
      <defs>
       <path d="M 17.671875 38.8125 
Q 12.203125 40.828125 9.5625 44.53125 
Q 6.9375 48.25 6.9375 53.421875 
Q 6.9375 61.234375 12.546875 66.546875 
Q 18.171875 71.875 27.484375 71.875 
Q 36.859375 71.875 42.578125 66.421875 
Q 48.296875 60.984375 48.296875 53.171875 
Q 48.296875 48.1875 45.671875 44.5 
Q 43.0625 40.828125 37.75 38.8125 
Q 44.34375 36.671875 47.78125 31.875 
Q 51.21875 27.09375 51.21875 20.453125 
Q 51.21875 11.28125 44.71875 5.03125 
Q 38.234375 -1.21875 27.640625 -1.21875 
Q 17.046875 -1.21875 10.546875 5.046875 
Q 4.046875 11.328125 4.046875 20.703125 
Q 4.046875 27.6875 7.59375 32.390625 
Q 11.140625 37.109375 17.671875 38.8125 
z
M 15.921875 53.71875 
Q 15.921875 48.640625 19.1875 45.40625 
Q 22.46875 42.1875 27.6875 42.1875 
Q 32.765625 42.1875 36.015625 45.375 
Q 39.265625 48.578125 39.265625 53.21875 
Q 39.265625 58.0625 35.90625 61.359375 
Q 32.5625 64.65625 27.59375 64.65625 
Q 22.5625 64.65625 19.234375 61.421875 
Q 15.921875 58.203125 15.921875 53.71875 
z
M 13.09375 20.65625 
Q 13.09375 16.890625 14.875 13.375 
Q 16.65625 9.859375 20.171875 7.921875 
Q 23.6875 6 27.734375 6 
Q 34.03125 6 38.125 10.046875 
Q 42.234375 14.109375 42.234375 20.359375 
Q 42.234375 26.703125 38.015625 30.859375 
Q 33.796875 35.015625 27.4375 35.015625 
Q 21.234375 35.015625 17.15625 30.90625 
Q 13.09375 26.8125 13.09375 20.65625 
z
" id="ArialMT-38"/>
      </defs>
      <g style="fill:#262626;" transform="translate(639.658594 290.877812)scale(0.1 -0.1)">
       <use xlink:href="#ArialMT-38"/>
       <use x="55.615234" xlink:href="#ArialMT-30"/>
       <use x="111.230469" xlink:href="#ArialMT-30"/>
      </g>
     </g>
    </g>
   </g>
   <g id="matplotlib.axis_2">
    <g id="ytick_1">
     <g id="line2d_10">
      <defs>
       <path d="M 0 0 
L -6 0 
" id="m13d2eb9786" style="stroke:#262626;"/>
      </defs>
      <g>
       <use style="fill:#262626;stroke:#262626;" x="90" xlink:href="#m13d2eb9786" y="270.72"/>
      </g>
     </g>
     <g id="text_10">
      <!-- −0.20 -->
      <defs>
       <path d="M 52.828125 31.203125 
L 5.5625 31.203125 
L 5.5625 39.40625 
L 52.828125 39.40625 
z
" id="ArialMT-2212"/>
       <path d="M 9.078125 0 
L 9.078125 10.015625 
L 19.09375 10.015625 
L 19.09375 0 
z
" id="ArialMT-2e"/>
      </defs>
      <g style="fill:#262626;" transform="translate(51.698437 274.298906)scale(0.1 -0.1)">
       <use xlink:href="#ArialMT-2212"/>
       <use x="58.398438" xlink:href="#ArialMT-30"/>
       <use x="114.013672" xlink:href="#ArialMT-2e"/>
       <use x="141.796875" xlink:href="#ArialMT-32"/>
       <use x="197.412109" xlink:href="#ArialMT-30"/>
      </g>
     </g>
    </g>
    <g id="ytick_2">
     <g id="line2d_11">
      <g>
       <use style="fill:#262626;stroke:#262626;" x="90" xlink:href="#m13d2eb9786" y="245.52"/>
      </g>
     </g>
     <g id="text_11">
      <!-- −0.15 -->
      <g style="fill:#262626;" transform="translate(51.698437 249.098906)scale(0.1 -0.1)">
       <use xlink:href="#ArialMT-2212"/>
       <use x="58.398438" xlink:href="#ArialMT-30"/>
       <use x="114.013672" xlink:href="#ArialMT-2e"/>
       <use x="141.796875" xlink:href="#ArialMT-31"/>
       <use x="197.412109" xlink:href="#ArialMT-35"/>
      </g>
     </g>
    </g>
    <g id="ytick_3">
     <g id="line2d_12">
      <g>
       <use style="fill:#262626;stroke:#262626;" x="90" xlink:href="#m13d2eb9786" y="220.32"/>
      </g>
     </g>
     <g id="text_12">
      <!-- −0.10 -->
      <g style="fill:#262626;" transform="translate(51.698437 223.898906)scale(0.1 -0.1)">
       <use xlink:href="#ArialMT-2212"/>
       <use x="58.398438" xlink:href="#ArialMT-30"/>
       <use x="114.013672" xlink:href="#ArialMT-2e"/>
       <use x="141.796875" xlink:href="#ArialMT-31"/>
       <use x="197.412109" xlink:href="#ArialMT-30"/>
      </g>
     </g>
    </g>
    <g id="ytick_4">
     <g id="line2d_13">
      <g>
       <use style="fill:#262626;stroke:#262626;" x="90" xlink:href="#m13d2eb9786" y="195.12"/>
      </g>
     </g>
     <g id="text_13">
      <!-- −0.05 -->
      <g style="fill:#262626;" transform="translate(51.698437 198.698906)scale(0.1 -0.1)">
       <use xlink:href="#ArialMT-2212"/>
       <use x="58.398438" xlink:href="#ArialMT-30"/>
       <use x="114.013672" xlink:href="#ArialMT-2e"/>
       <use x="141.796875" xlink:href="#ArialMT-30"/>
       <use x="197.412109" xlink:href="#ArialMT-35"/>
      </g>
     </g>
    </g>
    <g id="ytick_5">
     <g id="line2d_14">
      <g>
       <use style="fill:#262626;stroke:#262626;" x="90" xlink:href="#m13d2eb9786" y="169.92"/>
      </g>
     </g>
     <g id="text_14">
      <!-- 0.00 -->
      <g style="fill:#262626;" transform="translate(57.539062 173.498906)scale(0.1 -0.1)">
       <use xlink:href="#ArialMT-30"/>
       <use x="55.615234" xlink:href="#ArialMT-2e"/>
       <use x="83.398438" xlink:href="#ArialMT-30"/>
       <use x="139.013672" xlink:href="#ArialMT-30"/>
      </g>
     </g>
    </g>
    <g id="ytick_6">
     <g id="line2d_15">
      <g>
       <use style="fill:#262626;stroke:#262626;" x="90" xlink:href="#m13d2eb9786" y="144.72"/>
      </g>
     </g>
     <g id="text_15">
      <!-- 0.05 -->
      <g style="fill:#262626;" transform="translate(57.539062 148.298906)scale(0.1 -0.1)">
       <use xlink:href="#ArialMT-30"/>
       <use x="55.615234" xlink:href="#ArialMT-2e"/>
       <use x="83.398438" xlink:href="#ArialMT-30"/>
       <use x="139.013672" xlink:href="#ArialMT-35"/>
      </g>
     </g>
    </g>
    <g id="ytick_7">
     <g id="line2d_16">
      <g>
       <use style="fill:#262626;stroke:#262626;" x="90" xlink:href="#m13d2eb9786" y="119.52"/>
      </g>
     </g>
     <g id="text_16">
      <!-- 0.10 -->
      <g style="fill:#262626;" transform="translate(57.539062 123.098906)scale(0.1 -0.1)">
       <use xlink:href="#ArialMT-30"/>
       <use x="55.615234" xlink:href="#ArialMT-2e"/>
       <use x="83.398438" xlink:href="#ArialMT-31"/>
       <use x="139.013672" xlink:href="#ArialMT-30"/>
      </g>
     </g>
    </g>
    <g id="ytick_8">
     <g id="line2d_17">
      <g>
       <use style="fill:#262626;stroke:#262626;" x="90" xlink:href="#m13d2eb9786" y="94.32"/>
      </g>
     </g>
     <g id="text_17">
      <!-- 0.15 -->
      <g style="fill:#262626;" transform="translate(57.539062 97.898906)scale(0.1 -0.1)">
       <use xlink:href="#ArialMT-30"/>
       <use x="55.615234" xlink:href="#ArialMT-2e"/>
       <use x="83.398438" xlink:href="#ArialMT-31"/>
       <use x="139.013672" xlink:href="#ArialMT-35"/>
      </g>
     </g>
    </g>
    <g id="ytick_9">
     <g id="line2d_18">
      <g>
       <use style="fill:#262626;stroke:#262626;" x="90" xlink:href="#m13d2eb9786" y="69.12"/>
      </g>
     </g>
     <g id="text_18">
      <!-- 0.20 -->
      <g style="fill:#262626;" transform="translate(57.539062 72.698906)scale(0.1 -0.1)">
       <use xlink:href="#ArialMT-30"/>
       <use x="55.615234" xlink:href="#ArialMT-2e"/>
       <use x="83.398438" xlink:href="#ArialMT-32"/>
       <use x="139.013672" xlink:href="#ArialMT-30"/>
      </g>
     </g>
    </g>
   </g>
   <g id="PolyCollection_1">
    <path clip-path="url(#pdf18d78bd1)" d="M 90 170.500724 
L 90 169.92 
L 90.6975 169.92 
L 91.395 169.92 
L 92.0925 169.92 
L 92.79 169.92 
L 93.4875 169.92 
L 94.185 169.92 
L 94.8825 169.92 
L 95.58 169.92 
L 96.2775 169.92 
L 96.975 169.92 
L 97.6725 169.92 
L 98.37 169.92 
L 99.0675 169.92 
L 99.765 169.92 
L 100.4625 169.92 
L 101.16 169.92 
L 101.8575 169.92 
L 102.555 169.92 
L 103.2525 169.92 
L 103.95 169.92 
L 104.6475 169.92 
L 105.345 169.92 
L 106.0425 169.92 
L 106.74 169.92 
L 107.4375 169.92 
L 108.135 169.92 
L 108.8325 169.92 
L 109.53 169.92 
L 110.2275 169.92 
L 110.925 169.92 
L 111.6225 169.92 
L 112.32 169.92 
L 113.0175 169.92 
L 113.715 169.92 
L 114.4125 169.92 
L 115.11 169.92 
L 115.8075 169.92 
L 116.505 169.92 
L 117.2025 169.92 
L 117.9 169.92 
L 118.5975 169.92 
L 119.295 169.92 
L 119.9925 169.92 
L 120.69 169.92 
L 121.3875 169.92 
L 122.085 169.92 
L 122.7825 169.92 
L 123.48 169.92 
L 124.1775 169.92 
L 124.875 169.92 
L 125.5725 169.92 
L 126.27 169.92 
L 126.9675 169.92 
L 127.665 169.92 
L 128.3625 169.92 
L 129.06 169.92 
L 129.7575 169.92 
L 130.455 169.92 
L 131.1525 169.92 
L 131.85 169.92 
L 132.5475 169.92 
L 133.245 169.92 
L 133.9425 169.92 
L 134.64 169.92 
L 135.3375 169.92 
L 136.035 169.92 
L 136.7325 169.92 
L 137.43 169.92 
L 138.1275 169.92 
L 138.825 169.92 
L 139.5225 169.92 
L 140.22 169.92 
L 140.9175 169.92 
L 141.615 169.92 
L 142.3125 169.92 
L 143.01 169.92 
L 143.7075 169.92 
L 144.405 169.92 
L 145.1025 169.92 
L 145.8 169.92 
L 146.4975 169.92 
L 147.195 169.92 
L 147.8925 169.92 
L 148.59 169.92 
L 149.2875 169.92 
L 149.985 169.92 
L 150.6825 169.92 
L 151.38 169.92 
L 152.0775 169.92 
L 152.775 169.92 
L 153.4725 169.92 
L 154.17 169.92 
L 154.8675 169.92 
L 155.565 169.92 
L 156.2625 169.92 
L 156.96 169.92 
L 157.6575 169.92 
L 158.355 169.92 
L 159.0525 169.92 
L 159.75 169.92 
L 160.4475 169.92 
L 161.145 169.92 
L 161.8425 169.92 
L 162.54 169.92 
L 163.2375 169.92 
L 163.935 169.92 
L 164.6325 169.92 
L 165.33 169.92 
L 166.0275 169.92 
L 166.725 169.92 
L 167.4225 169.92 
L 168.12 169.92 
L 168.8175 169.92 
L 169.515 169.92 
L 170.2125 169.92 
L 170.91 169.92 
L 171.6075 169.92 
L 172.305 169.92 
L 173.0025 169.92 
L 173.7 169.92 
L 174.3975 169.92 
L 175.095 169.92 
L 175.7925 169.92 
L 176.49 169.92 
L 177.1875 169.92 
L 177.885 169.92 
L 178.5825 169.92 
L 179.28 169.92 
L 179.9775 169.92 
L 180.675 169.92 
L 181.3725 169.92 
L 182.07 169.92 
L 182.7675 169.92 
L 183.465 169.92 
L 184.1625 169.92 
L 184.86 169.92 
L 185.5575 169.92 
L 186.255 169.92 
L 186.9525 169.92 
L 187.65 169.92 
L 188.3475 169.92 
L 189.045 169.92 
L 189.7425 169.92 
L 190.44 169.92 
L 191.1375 169.92 
L 191.835 169.92 
L 192.5325 169.92 
L 193.23 169.92 
L 193.9275 169.92 
L 194.625 169.92 
L 195.3225 169.92 
L 196.02 169.92 
L 196.7175 169.92 
L 197.415 169.92 
L 198.1125 169.92 
L 198.81 169.92 
L 199.5075 169.92 
L 200.205 169.92 
L 200.9025 169.92 
L 201.6 169.92 
L 202.2975 169.92 
L 202.995 169.92 
L 203.6925 169.92 
L 204.39 169.92 
L 205.0875 169.92 
L 205.785 169.92 
L 206.4825 169.92 
L 207.18 169.92 
L 207.8775 169.92 
L 208.575 169.92 
L 209.2725 169.92 
L 209.97 169.92 
L 210.6675 169.92 
L 211.365 169.92 
L 212.0625 169.92 
L 212.76 169.92 
L 213.4575 169.92 
L 214.155 169.92 
L 214.8525 169.92 
L 215.55 169.92 
L 216.2475 169.92 
L 216.945 169.92 
L 217.6425 169.92 
L 218.34 169.92 
L 219.0375 169.92 
L 219.735 169.92 
L 220.4325 169.92 
L 221.13 169.92 
L 221.8275 169.92 
L 222.525 169.92 
L 223.2225 169.92 
L 223.92 169.92 
L 224.6175 169.92 
L 225.315 169.92 
L 226.0125 169.92 
L 226.71 169.92 
L 227.4075 169.92 
L 228.105 169.92 
L 228.8025 169.92 
L 229.5 169.92 
L 230.1975 169.92 
L 230.895 169.92 
L 231.5925 169.92 
L 232.29 169.92 
L 232.9875 169.92 
L 233.685 169.92 
L 234.3825 169.92 
L 235.08 169.92 
L 235.7775 169.92 
L 236.475 169.92 
L 237.1725 169.92 
L 237.87 169.92 
L 238.5675 169.92 
L 239.265 169.92 
L 239.9625 169.92 
L 240.66 169.92 
L 241.3575 169.92 
L 242.055 169.92 
L 242.7525 169.92 
L 243.45 169.92 
L 244.1475 169.92 
L 244.845 169.92 
L 245.5425 169.92 
L 246.24 169.92 
L 246.9375 169.92 
L 247.635 169.92 
L 248.3325 169.92 
L 249.03 169.92 
L 249.7275 169.92 
L 250.425 169.92 
L 251.1225 169.92 
L 251.82 169.92 
L 252.5175 169.92 
L 253.215 169.92 
L 253.9125 169.92 
L 254.61 169.92 
L 255.3075 169.92 
L 256.005 169.92 
L 256.7025 169.92 
L 257.4 169.92 
L 258.0975 169.92 
L 258.795 169.92 
L 259.4925 169.92 
L 260.19 169.92 
L 260.8875 169.92 
L 261.585 169.92 
L 262.2825 169.92 
L 262.98 169.92 
L 263.6775 169.92 
L 264.375 169.92 
L 265.0725 169.92 
L 265.77 169.92 
L 266.4675 169.92 
L 267.165 169.92 
L 267.8625 169.92 
L 268.56 169.92 
L 269.2575 169.92 
L 269.955 169.92 
L 270.6525 169.92 
L 271.35 169.92 
L 272.0475 169.92 
L 272.745 169.92 
L 273.4425 169.92 
L 274.14 169.92 
L 274.8375 169.92 
L 275.535 169.92 
L 276.2325 169.92 
L 276.93 169.92 
L 277.6275 169.92 
L 278.325 169.92 
L 279.0225 169.92 
L 279.72 169.92 
L 280.4175 169.92 
L 281.115 169.92 
L 281.8125 169.92 
L 282.51 169.92 
L 283.2075 169.92 
L 283.905 169.92 
L 284.6025 169.92 
L 285.3 169.92 
L 285.9975 169.92 
L 286.695 169.92 
L 287.3925 169.92 
L 288.09 169.92 
L 288.7875 169.92 
L 289.485 169.92 
L 290.1825 169.92 
L 290.88 169.92 
L 291.5775 169.92 
L 292.275 169.92 
L 292.9725 169.92 
L 293.67 169.92 
L 294.3675 169.92 
L 295.065 169.92 
L 295.7625 169.92 
L 296.46 169.92 
L 297.1575 169.92 
L 297.855 169.92 
L 298.5525 169.92 
L 299.25 169.92 
L 299.9475 169.92 
L 300.645 169.92 
L 301.3425 169.92 
L 302.04 169.92 
L 302.7375 169.92 
L 303.435 169.92 
L 304.1325 169.92 
L 304.83 169.92 
L 305.5275 169.92 
L 306.225 169.92 
L 306.9225 169.92 
L 307.62 169.92 
L 308.3175 169.92 
L 309.015 169.92 
L 309.7125 169.92 
L 310.41 169.92 
L 311.1075 169.92 
L 311.805 169.92 
L 312.5025 169.92 
L 313.2 169.92 
L 313.8975 169.92 
L 314.595 169.92 
L 315.2925 169.92 
L 315.99 169.92 
L 316.6875 169.92 
L 317.385 169.92 
L 318.0825 169.92 
L 318.78 169.92 
L 319.4775 169.92 
L 320.175 169.92 
L 320.8725 169.92 
L 321.57 169.92 
L 322.2675 169.92 
L 322.965 169.92 
L 323.6625 169.92 
L 324.36 169.92 
L 325.0575 169.92 
L 325.755 169.92 
L 326.4525 169.92 
L 327.15 169.92 
L 327.8475 169.92 
L 328.545 169.92 
L 329.2425 169.92 
L 329.94 169.92 
L 330.6375 169.92 
L 331.335 169.92 
L 332.0325 169.92 
L 332.73 169.92 
L 333.4275 169.92 
L 334.125 169.92 
L 334.8225 169.92 
L 335.52 169.92 
L 336.2175 169.92 
L 336.915 169.92 
L 337.6125 169.92 
L 338.31 169.92 
L 339.0075 169.92 
L 339.705 169.92 
L 340.4025 169.92 
L 341.1 169.92 
L 341.7975 169.92 
L 342.495 169.92 
L 343.1925 169.92 
L 343.89 169.92 
L 344.5875 169.92 
L 345.285 169.92 
L 345.9825 169.92 
L 346.68 169.92 
L 347.3775 169.92 
L 348.075 169.92 
L 348.7725 169.92 
L 349.47 169.92 
L 350.1675 169.92 
L 350.865 169.92 
L 351.5625 169.92 
L 352.26 169.92 
L 352.9575 169.92 
L 353.655 169.92 
L 354.3525 169.92 
L 355.05 169.92 
L 355.7475 169.92 
L 356.445 169.92 
L 357.1425 169.92 
L 357.84 169.92 
L 358.5375 169.92 
L 359.235 169.92 
L 359.9325 169.92 
L 360.63 169.92 
L 361.3275 169.92 
L 362.025 169.92 
L 362.7225 169.92 
L 363.42 169.92 
L 364.1175 169.92 
L 364.815 169.92 
L 365.5125 169.92 
L 366.21 169.92 
L 366.9075 169.92 
L 367.605 169.92 
L 368.3025 169.92 
L 369 169.92 
L 369.6975 169.92 
L 370.395 169.92 
L 371.0925 169.92 
L 371.79 169.92 
L 372.4875 169.92 
L 373.185 169.92 
L 373.8825 169.92 
L 374.58 169.92 
L 375.2775 169.92 
L 375.975 169.92 
L 376.6725 169.92 
L 377.37 169.92 
L 378.0675 169.92 
L 378.765 169.92 
L 379.4625 169.92 
L 380.16 169.92 
L 380.8575 169.92 
L 381.555 169.92 
L 382.2525 169.92 
L 382.95 169.92 
L 383.6475 169.92 
L 384.345 169.92 
L 385.0425 169.92 
L 385.74 169.92 
L 386.4375 169.92 
L 387.135 169.92 
L 387.8325 169.92 
L 388.53 169.92 
L 389.2275 169.92 
L 389.925 169.92 
L 390.6225 169.92 
L 391.32 169.92 
L 392.0175 169.92 
L 392.715 169.92 
L 393.4125 169.92 
L 394.11 169.92 
L 394.8075 169.92 
L 395.505 169.92 
L 396.2025 169.92 
L 396.9 169.92 
L 397.5975 169.92 
L 398.295 169.92 
L 398.9925 169.92 
L 399.69 169.92 
L 400.3875 169.92 
L 401.085 169.92 
L 401.7825 169.92 
L 402.48 169.92 
L 403.1775 169.92 
L 403.875 169.92 
L 404.5725 169.92 
L 405.27 169.92 
L 405.9675 169.92 
L 406.665 169.92 
L 407.3625 169.92 
L 408.06 169.92 
L 408.7575 169.92 
L 409.455 169.92 
L 410.1525 169.92 
L 410.85 169.92 
L 411.5475 169.92 
L 412.245 169.92 
L 412.9425 169.92 
L 413.64 169.92 
L 414.3375 169.92 
L 415.035 169.92 
L 415.7325 169.92 
L 416.43 169.92 
L 417.1275 169.92 
L 417.825 169.92 
L 418.5225 169.92 
L 419.22 169.92 
L 419.9175 169.92 
L 420.615 169.92 
L 421.3125 169.92 
L 422.01 169.92 
L 422.7075 169.92 
L 423.405 169.92 
L 424.1025 169.92 
L 424.8 169.92 
L 425.4975 169.92 
L 426.195 169.92 
L 426.8925 169.92 
L 427.59 169.92 
L 428.2875 169.92 
L 428.985 169.92 
L 429.6825 169.92 
L 430.38 169.92 
L 431.0775 169.92 
L 431.775 169.92 
L 432.4725 169.92 
L 433.17 169.92 
L 433.8675 169.92 
L 434.565 169.92 
L 435.2625 169.92 
L 435.96 169.92 
L 436.6575 169.92 
L 437.355 169.92 
L 438.0525 169.92 
L 438.75 169.92 
L 439.4475 169.92 
L 440.145 169.92 
L 440.8425 169.92 
L 441.54 169.92 
L 442.2375 169.92 
L 442.935 169.92 
L 443.6325 169.92 
L 444.33 169.92 
L 445.0275 169.92 
L 445.725 169.92 
L 446.4225 169.92 
L 447.12 169.92 
L 447.8175 169.92 
L 448.515 169.92 
L 449.2125 169.92 
L 449.91 169.92 
L 450.6075 169.92 
L 451.305 169.92 
L 452.0025 169.92 
L 452.7 169.92 
L 453.3975 169.92 
L 454.095 169.92 
L 454.7925 169.92 
L 455.49 169.92 
L 456.1875 169.92 
L 456.885 169.92 
L 457.5825 169.92 
L 458.28 169.92 
L 458.9775 169.92 
L 459.675 169.92 
L 460.3725 169.92 
L 461.07 169.92 
L 461.7675 169.92 
L 462.465 169.92 
L 463.1625 169.92 
L 463.86 169.92 
L 464.5575 169.92 
L 465.255 169.92 
L 465.9525 169.92 
L 466.65 169.92 
L 467.3475 169.92 
L 468.045 169.92 
L 468.7425 169.92 
L 469.44 169.92 
L 470.1375 169.92 
L 470.835 169.92 
L 471.5325 169.92 
L 472.23 169.92 
L 472.9275 169.92 
L 473.625 169.92 
L 474.3225 169.92 
L 475.02 169.92 
L 475.7175 169.92 
L 476.415 169.92 
L 477.1125 169.92 
L 477.81 169.92 
L 478.5075 169.92 
L 479.205 169.92 
L 479.9025 169.92 
L 480.6 169.92 
L 481.2975 169.92 
L 481.995 169.92 
L 482.6925 169.92 
L 483.39 169.92 
L 484.0875 169.92 
L 484.785 169.92 
L 485.4825 169.92 
L 486.18 169.92 
L 486.8775 169.92 
L 487.575 169.92 
L 488.2725 169.92 
L 488.97 169.92 
L 489.6675 169.92 
L 490.365 169.92 
L 491.0625 169.92 
L 491.76 169.92 
L 492.4575 169.92 
L 493.155 169.92 
L 493.8525 169.92 
L 494.55 169.92 
L 495.2475 169.92 
L 495.945 169.92 
L 496.6425 169.92 
L 497.34 169.92 
L 498.0375 169.92 
L 498.735 169.92 
L 499.4325 169.92 
L 500.13 169.92 
L 500.8275 169.92 
L 501.525 169.92 
L 502.2225 169.92 
L 502.92 169.92 
L 503.6175 169.92 
L 504.315 169.92 
L 505.0125 169.92 
L 505.71 169.92 
L 506.4075 169.92 
L 507.105 169.92 
L 507.8025 169.92 
L 508.5 169.92 
L 509.1975 169.92 
L 509.895 169.92 
L 510.5925 169.92 
L 511.29 169.92 
L 511.9875 169.92 
L 512.685 169.92 
L 513.3825 169.92 
L 514.08 169.92 
L 514.7775 169.92 
L 515.475 169.92 
L 516.1725 169.92 
L 516.87 169.92 
L 517.5675 169.92 
L 518.265 169.92 
L 518.9625 169.92 
L 519.66 169.92 
L 520.3575 169.92 
L 521.055 169.92 
L 521.7525 169.92 
L 522.45 169.92 
L 523.1475 169.92 
L 523.845 169.92 
L 524.5425 169.92 
L 525.24 169.92 
L 525.9375 169.92 
L 526.635 169.92 
L 527.3325 169.92 
L 528.03 169.92 
L 528.7275 169.92 
L 529.425 169.92 
L 530.1225 169.92 
L 530.82 169.92 
L 531.5175 169.92 
L 532.215 169.92 
L 532.9125 169.92 
L 533.61 169.92 
L 534.3075 169.92 
L 535.005 169.92 
L 535.7025 169.92 
L 536.4 169.92 
L 537.0975 169.92 
L 537.795 169.92 
L 538.4925 169.92 
L 539.19 169.92 
L 539.8875 169.92 
L 540.585 169.92 
L 541.2825 169.92 
L 541.98 169.92 
L 542.6775 169.92 
L 543.375 169.92 
L 544.0725 169.92 
L 544.77 169.92 
L 545.4675 169.92 
L 546.165 169.92 
L 546.8625 169.92 
L 547.56 169.92 
L 548.2575 169.92 
L 548.955 169.92 
L 549.6525 169.92 
L 550.35 169.92 
L 551.0475 169.92 
L 551.745 169.92 
L 552.4425 169.92 
L 553.14 169.92 
L 553.8375 169.92 
L 554.535 169.92 
L 555.2325 169.92 
L 555.93 169.92 
L 556.6275 169.92 
L 557.325 169.92 
L 558.0225 169.92 
L 558.72 169.92 
L 559.4175 169.92 
L 560.115 169.92 
L 560.8125 169.92 
L 561.51 169.92 
L 562.2075 169.92 
L 562.905 169.92 
L 563.6025 169.92 
L 564.3 169.92 
L 564.9975 169.92 
L 565.695 169.92 
L 566.3925 169.92 
L 567.09 169.92 
L 567.7875 169.92 
L 568.485 169.92 
L 569.1825 169.92 
L 569.88 169.92 
L 570.5775 169.92 
L 571.275 169.92 
L 571.9725 169.92 
L 572.67 169.92 
L 573.3675 169.92 
L 574.065 169.92 
L 574.7625 169.92 
L 575.46 169.92 
L 576.1575 169.92 
L 576.855 169.92 
L 577.5525 169.92 
L 578.25 169.92 
L 578.9475 169.92 
L 579.645 169.92 
L 580.3425 169.92 
L 581.04 169.92 
L 581.7375 169.92 
L 582.435 169.92 
L 583.1325 169.92 
L 583.83 169.92 
L 584.5275 169.92 
L 585.225 169.92 
L 585.9225 169.92 
L 586.62 169.92 
L 587.3175 169.92 
L 588.015 169.92 
L 588.7125 169.92 
L 589.41 169.92 
L 590.1075 169.92 
L 590.805 169.92 
L 591.5025 169.92 
L 592.2 169.92 
L 592.8975 169.92 
L 593.595 169.92 
L 594.2925 169.92 
L 594.99 169.92 
L 595.6875 169.92 
L 596.385 169.92 
L 597.0825 169.92 
L 597.78 169.92 
L 598.4775 169.92 
L 599.175 169.92 
L 599.8725 169.92 
L 600.57 169.92 
L 601.2675 169.92 
L 601.965 169.92 
L 602.6625 169.92 
L 603.36 169.92 
L 604.0575 169.92 
L 604.755 169.92 
L 605.4525 169.92 
L 606.15 169.92 
L 606.8475 169.92 
L 607.545 169.92 
L 608.2425 169.92 
L 608.94 169.92 
L 609.6375 169.92 
L 610.335 169.92 
L 611.0325 169.92 
L 611.73 169.92 
L 612.4275 169.92 
L 613.125 169.92 
L 613.8225 169.92 
L 614.52 169.92 
L 615.2175 169.92 
L 615.915 169.92 
L 616.6125 169.92 
L 617.31 169.92 
L 618.0075 169.92 
L 618.705 169.92 
L 619.4025 169.92 
L 620.1 169.92 
L 620.7975 169.92 
L 621.495 169.92 
L 622.1925 169.92 
L 622.89 169.92 
L 623.5875 169.92 
L 624.285 169.92 
L 624.9825 169.92 
L 625.68 169.92 
L 626.3775 169.92 
L 627.075 169.92 
L 627.7725 169.92 
L 628.47 169.92 
L 629.1675 169.92 
L 629.865 169.92 
L 630.5625 169.92 
L 631.26 169.92 
L 631.9575 169.92 
L 632.655 169.92 
L 633.3525 169.92 
L 634.05 169.92 
L 634.7475 169.92 
L 635.445 169.92 
L 636.1425 169.92 
L 636.84 169.92 
L 637.5375 169.92 
L 638.235 169.92 
L 638.9325 169.92 
L 639.63 169.92 
L 640.3275 169.92 
L 641.025 169.92 
L 641.7225 169.92 
L 642.42 169.92 
L 643.1175 169.92 
L 643.815 169.92 
L 644.5125 169.92 
L 645.21 169.92 
L 645.9075 169.92 
L 646.605 169.92 
L 646.605 169.92 
L 646.605 169.92 
L 645.9075 169.925225 
L 645.21 169.937445 
L 644.5125 169.958344 
L 643.815 169.989492 
L 643.1175 170.032334 
L 642.42 170.088163 
L 641.7225 170.158105 
L 641.025 170.243105 
L 640.3275 170.343908 
L 639.63 170.461053 
L 638.9325 170.594859 
L 638.235 170.745415 
L 637.5375 170.91258 
L 636.84 171.095977 
L 636.1425 171.29499 
L 635.445 171.50877 
L 634.7475 171.736235 
L 634.05 171.976079 
L 633.3525 172.226781 
L 632.655 172.486613 
L 631.9575 172.753657 
L 631.26 173.025819 
L 630.5625 173.300846 
L 629.865 173.576345 
L 629.1675 173.849805 
L 628.47 174.118619 
L 627.7725 174.380106 
L 627.075 174.631539 
L 626.3775 174.870168 
L 625.68 175.093244 
L 624.9825 175.298052 
L 624.285 175.481932 
L 623.5875 175.642308 
L 622.89 175.776711 
L 622.1925 175.88281 
L 621.495 175.958434 
L 620.7975 176.001593 
L 620.1 176.010505 
L 619.4025 175.983613 
L 618.705 175.919609 
L 618.0075 175.817444 
L 617.31 175.676351 
L 616.6125 175.495852 
L 615.915 175.275773 
L 615.2175 175.016248 
L 614.52 174.717729 
L 613.8225 174.380984 
L 613.125 174.007102 
L 612.4275 173.597486 
L 611.73 173.153852 
L 611.0325 172.678219 
L 610.335 172.172896 
L 609.6375 171.640474 
L 608.94 171.083806 
L 608.2425 170.50599 
L 607.545 169.910351 
L 606.8475 169.300412 
L 606.15 168.679879 
L 605.4525 168.052606 
L 604.755 167.422573 
L 604.0575 166.793854 
L 603.36 166.170589 
L 602.6625 165.556949 
L 601.965 164.95711 
L 601.2675 164.375218 
L 600.57 163.815356 
L 599.8725 163.281515 
L 599.175 162.777559 
L 598.4775 162.3072 
L 597.78 161.873962 
L 597.0825 161.481156 
L 596.385 161.131854 
L 595.6875 160.828861 
L 594.99 160.574693 
L 594.2925 160.371557 
L 593.595 160.221328 
L 592.8975 160.125537 
L 592.2 160.085354 
L 591.5025 160.101579 
L 590.805 160.174632 
L 590.1075 160.304548 
L 589.41 160.490972 
L 588.7125 160.733166 
L 588.015 161.030004 
L 587.3175 161.379985 
L 586.62 161.781238 
L 585.9225 162.231536 
L 585.225 162.728312 
L 584.5275 163.268673 
L 583.83 163.849423 
L 583.1325 164.467084 
L 582.435 165.117923 
L 581.7375 165.797973 
L 581.04 166.503067 
L 580.3425 167.228866 
L 579.645 167.970888 
L 578.9475 168.724542 
L 578.25 169.485163 
L 577.5525 170.248041 
L 576.855 171.008459 
L 576.1575 171.761724 
L 575.46 172.503202 
L 574.7625 173.228351 
L 574.065 173.932753 
L 573.3675 174.612143 
L 572.67 175.262444 
L 571.9725 175.87979 
L 571.275 176.460557 
L 570.5775 177.001384 
L 569.88 177.499198 
L 569.1825 177.951234 
L 568.485 178.355052 
L 567.7875 178.708551 
L 567.09 179.009985 
L 566.3925 179.25797 
L 565.695 179.451493 
L 564.9975 179.589911 
L 564.3 179.67296 
L 563.6025 179.700747 
L 562.905 179.673747 
L 562.2075 179.592797 
L 561.51 179.459084 
L 560.8125 179.274135 
L 560.115 179.039797 
L 559.4175 178.758224 
L 558.72 178.431857 
L 558.0225 178.063398 
L 557.325 177.655791 
L 556.6275 177.212195 
L 555.93 176.735958 
L 555.2325 176.230588 
L 554.535 175.699725 
L 553.8375 175.147115 
L 553.14 174.576573 
L 552.4425 173.991963 
L 551.745 173.397157 
L 551.0475 172.796017 
L 550.35 172.192358 
L 549.6525 171.589921 
L 548.955 170.992352 
L 548.2575 170.403169 
L 547.56 169.82574 
L 546.8625 169.263265 
L 546.165 168.718747 
L 545.4675 168.19498 
L 544.77 167.694529 
L 544.0725 167.219715 
L 543.375 166.772607 
L 542.6775 166.355006 
L 541.98 165.968442 
L 541.2825 165.61417 
L 540.585 165.293162 
L 539.8875 165.006113 
L 539.19 164.75344 
L 538.4925 164.53529 
L 537.795 164.351542 
L 537.0975 164.201824 
L 536.4 164.085516 
L 535.7025 164.001769 
L 535.005 163.94952 
L 534.3075 163.927505 
L 533.61 163.934284 
L 532.9125 163.968252 
L 532.215 164.027666 
L 531.5175 164.110665 
L 530.82 164.215291 
L 530.1225 164.339513 
L 529.425 164.481247 
L 528.7275 164.638382 
L 528.03 164.808799 
L 527.3325 164.990398 
L 526.635 165.181113 
L 525.9375 165.378937 
L 525.24 165.58194 
L 524.5425 165.788285 
L 523.845 165.996248 
L 523.1475 166.204231 
L 522.45 166.410778 
L 521.7525 166.614582 
L 521.055 166.814498 
L 520.3575 167.009552 
L 519.66 167.198942 
L 518.9625 167.382045 
L 518.265 167.55842 
L 517.5675 167.727802 
L 516.87 167.890105 
L 516.1725 168.045411 
L 515.475 168.193971 
L 514.7775 168.336191 
L 514.08 168.47262 
L 513.3825 168.603945 
L 512.685 168.73097 
L 511.9875 168.854605 
L 511.29 168.975849 
L 510.5925 169.095774 
L 509.895 169.215502 
L 509.1975 169.336194 
L 508.5 169.459022 
L 507.8025 169.585159 
L 507.105 169.715749 
L 506.4075 169.851898 
L 505.71 169.994647 
L 505.0125 170.144958 
L 504.315 170.303696 
L 503.6175 170.471609 
L 502.92 170.649317 
L 502.2225 170.837295 
L 501.525 171.035863 
L 500.8275 171.245172 
L 500.13 171.465195 
L 499.4325 171.695724 
L 498.735 171.936358 
L 498.0375 172.186505 
L 497.34 172.445379 
L 496.6425 172.712001 
L 495.945 172.985203 
L 495.2475 173.263631 
L 494.55 173.545756 
L 493.8525 173.82988 
L 493.155 174.11415 
L 492.4575 174.396573 
L 491.76 174.675027 
L 491.0625 174.947281 
L 490.365 175.211013 
L 489.6675 175.463831 
L 488.97 175.703294 
L 488.2725 175.926932 
L 487.575 176.132272 
L 486.8775 176.316863 
L 486.18 176.478296 
L 485.4825 176.614229 
L 484.785 176.722416 
L 484.0875 176.800727 
L 483.39 176.847172 
L 482.6925 176.859925 
L 481.995 176.837345 
L 481.2975 176.777997 
L 480.6 176.680673 
L 479.9025 176.544405 
L 479.205 176.368487 
L 478.5075 176.152485 
L 477.81 175.896251 
L 477.1125 175.599931 
L 476.415 175.263975 
L 475.7175 174.889139 
L 475.02 174.476488 
L 474.3225 174.027398 
L 473.625 173.54355 
L 472.9275 173.026929 
L 472.23 172.479809 
L 471.5325 171.90475 
L 470.835 171.304577 
L 470.1375 170.682373 
L 469.44 170.041453 
L 468.7425 169.385346 
L 468.045 168.717775 
L 467.3475 168.042631 
L 466.65 167.363946 
L 465.9525 166.685865 
L 465.255 166.01262 
L 464.5575 165.348496 
L 463.86 164.697801 
L 463.1625 164.064837 
L 462.465 163.453863 
L 461.7675 162.869067 
L 461.07 162.314533 
L 460.3725 161.794206 
L 459.675 161.311865 
L 458.9775 160.871092 
L 458.28 160.475241 
L 457.5825 160.127412 
L 456.885 159.830426 
L 456.1875 159.586798 
L 455.49 159.39872 
L 454.7925 159.268035 
L 454.095 159.196226 
L 453.3975 159.184396 
L 452.7 159.233262 
L 452.0025 159.343139 
L 451.305 159.513942 
L 450.6075 159.745175 
L 449.91 160.035937 
L 449.2125 160.384923 
L 448.515 160.790431 
L 447.8175 161.250369 
L 447.12 161.762269 
L 446.4225 162.323303 
L 445.725 162.930299 
L 445.0275 163.579765 
L 444.33 164.267906 
L 443.6325 164.990655 
L 442.935 165.743701 
L 442.2375 166.522513 
L 441.54 167.322376 
L 440.8425 168.138423 
L 440.145 168.965668 
L 439.4475 169.799043 
L 438.75 170.633429 
L 438.0525 171.463698 
L 437.355 172.284745 
L 436.6575 173.091527 
L 435.96 173.879095 
L 435.2625 174.642632 
L 434.565 175.377487 
L 433.8675 176.079205 
L 433.17 176.74356 
L 432.4725 177.366585 
L 431.775 177.944599 
L 431.0775 178.47423 
L 430.38 178.952442 
L 429.6825 179.376553 
L 428.985 179.744252 
L 428.2875 180.053616 
L 427.59 180.303118 
L 426.8925 180.491641 
L 426.195 180.618481 
L 425.4975 180.683348 
L 424.8 180.686368 
L 424.1025 180.62808 
L 423.405 180.509425 
L 422.7075 180.331741 
L 422.01 180.096748 
L 421.3125 179.806533 
L 420.615 179.46353 
L 419.9175 179.070503 
L 419.22 178.63052 
L 418.5225 178.14693 
L 417.825 177.623333 
L 417.1275 177.063554 
L 416.43 176.47161 
L 415.7325 175.851683 
L 415.035 175.208082 
L 414.3375 174.545214 
L 413.64 173.867549 
L 412.9425 173.179586 
L 412.245 172.485821 
L 411.5475 171.790711 
L 410.85 171.098645 
L 410.1525 170.413909 
L 409.455 169.740659 
L 408.7575 169.082889 
L 408.06 168.444408 
L 407.3625 167.828807 
L 406.665 167.239445 
L 405.9675 166.679418 
L 405.27 166.15155 
L 404.5725 165.658369 
L 403.875 165.202095 
L 403.1775 164.784632 
L 402.48 164.407555 
L 401.7825 164.072109 
L 401.085 163.779203 
L 400.3875 163.529412 
L 399.69 163.322976 
L 398.9925 163.159814 
L 398.295 163.039521 
L 397.5975 162.961387 
L 396.9 162.924408 
L 396.2025 162.927299 
L 395.505 162.968515 
L 394.8075 163.046268 
L 394.11 163.15855 
L 393.4125 163.303152 
L 392.715 163.477692 
L 392.0175 163.679641 
L 391.32 163.906342 
L 390.6225 164.155045 
L 389.925 164.422929 
L 389.2275 164.707129 
L 388.53 165.004765 
L 387.8325 165.312967 
L 387.135 165.628902 
L 386.4375 165.949798 
L 385.74 166.272969 
L 385.0425 166.595837 
L 384.345 166.915953 
L 383.6475 167.231018 
L 382.95 167.538901 
L 382.2525 167.837651 
L 381.555 168.125517 
L 380.8575 168.400956 
L 380.16 168.662641 
L 379.4625 168.909472 
L 378.765 169.140579 
L 378.0675 169.355321 
L 377.37 169.553291 
L 376.6725 169.734312 
L 375.975 169.898431 
L 375.2775 170.04591 
L 374.58 170.177224 
L 373.8825 170.293041 
L 373.185 170.394214 
L 372.4875 170.481767 
L 371.79 170.556872 
L 371.0925 170.620839 
L 370.395 170.675092 
L 369.6975 170.721149 
L 369 170.760602 
L 368.3025 170.795093 
L 367.605 170.826297 
L 366.9075 170.855892 
L 366.21 170.885543 
L 365.5125 170.916878 
L 364.815 170.951465 
L 364.1175 170.990793 
L 363.42 171.03625 
L 362.7225 171.089108 
L 362.025 171.150502 
L 361.3275 171.221413 
L 360.63 171.302658 
L 359.9325 171.394876 
L 359.235 171.498515 
L 358.5375 171.613825 
L 357.84 171.740853 
L 357.1425 171.879438 
L 356.445 172.029205 
L 355.7475 172.189573 
L 355.05 172.359751 
L 354.3525 172.538746 
L 353.655 172.725371 
L 352.9575 172.91825 
L 352.26 173.115835 
L 351.5625 173.316415 
L 350.865 173.518134 
L 350.1675 173.719005 
L 349.47 173.916934 
L 348.7725 174.109733 
L 348.075 174.295148 
L 347.3775 174.470876 
L 346.68 174.634591 
L 345.9825 174.783969 
L 345.285 174.916706 
L 344.5875 175.030551 
L 343.89 175.123324 
L 343.1925 175.192941 
L 342.495 175.237438 
L 341.7975 175.254995 
L 341.1 175.243957 
L 340.4025 175.202851 
L 339.705 175.130409 
L 339.0075 175.025587 
L 338.31 174.887575 
L 337.6125 174.715814 
L 336.915 174.51001 
L 336.2175 174.270138 
L 335.52 173.996456 
L 334.8225 173.689501 
L 334.125 173.350102 
L 333.4275 172.97937 
L 332.73 172.578702 
L 332.0325 172.149771 
L 331.335 171.694522 
L 330.6375 171.215159 
L 329.94 170.714135 
L 329.2425 170.194133 
L 328.545 169.658053 
L 327.8475 169.108989 
L 327.15 168.55021 
L 326.4525 167.985137 
L 325.755 167.417318 
L 325.0575 166.8504 
L 324.36 166.288105 
L 323.6625 165.734199 
L 322.965 165.192466 
L 322.2675 164.666676 
L 321.57 164.160555 
L 320.8725 163.67776 
L 320.175 163.221843 
L 319.4775 162.796228 
L 318.78 162.404179 
L 318.0825 162.048776 
L 317.385 161.732885 
L 316.6875 161.459138 
L 315.99 161.229907 
L 315.2925 161.047286 
L 314.595 160.91307 
L 313.8975 160.828739 
L 313.2 160.795442 
L 312.5025 160.81399 
L 311.805 160.884842 
L 311.1075 161.008101 
L 310.41 161.183511 
L 309.7125 161.410452 
L 309.015 161.687947 
L 308.3175 162.014665 
L 307.62 162.388928 
L 306.9225 162.808721 
L 306.225 163.271706 
L 305.5275 163.775236 
L 304.83 164.316377 
L 304.1325 164.891922 
L 303.435 165.49842 
L 302.7375 166.132195 
L 302.04 166.789375 
L 301.3425 167.465922 
L 300.645 168.157654 
L 299.9475 168.860284 
L 299.25 169.569444 
L 298.5525 170.280721 
L 297.855 170.989688 
L 297.1575 171.691934 
L 296.46 172.3831 
L 295.7625 173.058908 
L 295.065 173.715192 
L 294.3675 174.347929 
L 293.67 174.953269 
L 292.9725 175.527558 
L 292.275 176.06737 
L 291.5775 176.569527 
L 290.88 177.031121 
L 290.1825 177.449537 
L 289.485 177.822467 
L 288.7875 178.147928 
L 288.09 178.424273 
L 287.3925 178.650201 
L 286.695 178.824764 
L 285.9975 178.947373 
L 285.3 179.017796 
L 284.6025 179.03616 
L 283.905 179.002948 
L 283.2075 178.918985 
L 282.51 178.785439 
L 281.8125 178.603799 
L 281.115 178.375869 
L 280.4175 178.103742 
L 279.72 177.789792 
L 279.0225 177.436643 
L 278.325 177.04715 
L 277.6275 176.624379 
L 276.93 176.171572 
L 276.2325 175.692128 
L 275.535 175.189571 
L 274.8375 174.667522 
L 274.14 174.129671 
L 273.4425 173.579746 
L 272.745 173.021484 
L 272.0475 172.458606 
L 271.35 171.89478 
L 270.6525 171.333603 
L 269.955 170.778566 
L 269.2575 170.233035 
L 268.56 169.700222 
L 267.8625 169.183167 
L 267.165 168.684714 
L 266.4675 168.207491 
L 265.77 167.7539 
L 265.0725 167.326095 
L 264.375 166.925973 
L 263.6775 166.555168 
L 262.98 166.215036 
L 262.2825 165.906657 
L 261.585 165.63083 
L 260.8875 165.388073 
L 260.19 165.178627 
L 259.4925 165.002459 
L 258.795 164.859273 
L 258.0975 164.748517 
L 257.4 164.669395 
L 256.7025 164.620882 
L 256.005 164.601741 
L 255.3075 164.610536 
L 254.61 164.645657 
L 253.9125 164.705335 
L 253.215 164.787666 
L 252.5175 164.890634 
L 251.82 165.012131 
L 251.1225 165.149985 
L 250.425 165.30198 
L 249.7275 165.465879 
L 249.03 165.639453 
L 248.3325 165.820498 
L 247.635 166.00686 
L 246.9375 166.196457 
L 246.24 166.387298 
L 245.5425 166.577503 
L 244.845 166.765322 
L 244.1475 166.949147 
L 243.45 167.127531 
L 242.7525 167.299198 
L 242.055 167.463054 
L 241.3575 167.618196 
L 240.66 167.763916 
L 239.9625 167.899709 
L 239.265 168.025271 
L 238.5675 168.140499 
L 237.87 168.245492 
L 237.1725 168.34054 
L 236.475 168.426124 
L 235.7775 168.502901 
L 235.08 168.571695 
L 234.3825 168.633487 
L 233.685 168.689394 
L 232.9875 168.74066 
L 232.29 168.788633 
L 231.5925 168.834749 
L 230.895 168.880512 
L 230.1975 168.927472 
L 229.5 168.977205 
L 228.8025 169.031292 
L 228.105 169.091294 
L 227.4075 169.158733 
L 226.71 169.235073 
L 226.0125 169.321691 
L 225.315 169.419866 
L 224.6175 169.530753 
L 223.92 169.655368 
L 223.2225 169.794569 
L 222.525 169.949042 
L 221.8275 170.119289 
L 221.13 170.305611 
L 220.4325 170.508103 
L 219.735 170.726643 
L 219.0375 170.960889 
L 218.34 171.210271 
L 217.6425 171.473995 
L 216.945 171.751042 
L 216.2475 172.04017 
L 215.55 172.339921 
L 214.8525 172.648631 
L 214.155 172.964439 
L 213.4575 173.285297 
L 212.76 173.608991 
L 212.0625 173.933151 
L 211.365 174.255275 
L 210.6675 174.572744 
L 209.97 174.882851 
L 209.2725 175.182818 
L 208.575 175.469821 
L 207.8775 175.741019 
L 207.18 175.993577 
L 206.4825 176.224691 
L 205.785 176.431621 
L 205.0875 176.611709 
L 204.39 176.762412 
L 203.6925 176.881327 
L 202.995 176.966212 
L 202.2975 177.015016 
L 201.6 177.025898 
L 200.9025 176.997251 
L 200.205 176.92772 
L 199.5075 176.816221 
L 198.81 176.661959 
L 198.1125 176.464438 
L 197.415 176.223478 
L 196.7175 175.939219 
L 196.02 175.61213 
L 195.3225 175.243013 
L 194.625 174.833004 
L 193.9275 174.383572 
L 193.23 173.896513 
L 192.5325 173.373944 
L 191.835 172.818293 
L 191.1375 172.232289 
L 190.44 171.618939 
L 189.7425 170.981519 
L 189.045 170.323549 
L 188.3475 169.648772 
L 187.65 168.961129 
L 186.9525 168.264731 
L 186.255 167.563833 
L 185.5575 166.862804 
L 184.86 166.166095 
L 184.1625 165.478207 
L 183.465 164.803658 
L 182.7675 164.146951 
L 182.07 163.512539 
L 181.3725 162.904791 
L 180.675 162.327959 
L 179.9775 161.786146 
L 179.28 161.283273 
L 178.5825 160.823051 
L 177.885 160.408945 
L 177.1875 160.044152 
L 176.49 159.731575 
L 175.7925 159.473792 
L 175.095 159.273044 
L 174.3975 159.131208 
L 173.7 159.049783 
L 173.0025 159.029877 
L 172.305 159.072193 
L 171.6075 159.177025 
L 170.91 159.344248 
L 170.2125 159.57332 
L 169.515 159.863281 
L 168.8175 160.212759 
L 168.12 160.619977 
L 167.4225 161.08276 
L 166.725 161.598555 
L 166.0275 162.164443 
L 165.33 162.777158 
L 164.6325 163.433112 
L 163.935 164.128418 
L 163.2375 164.858913 
L 162.54 165.620194 
L 161.8425 166.407642 
L 161.145 167.216457 
L 160.4475 168.041695 
L 159.75 168.878294 
L 159.0525 169.721119 
L 158.355 170.564993 
L 157.6575 171.404733 
L 156.96 172.235191 
L 156.2625 173.051284 
L 155.565 173.848037 
L 154.8675 174.62061 
L 154.17 175.364337 
L 153.4725 176.074758 
L 152.775 176.747646 
L 152.0775 177.379041 
L 151.38 177.965273 
L 150.6825 178.502989 
L 149.985 178.989171 
L 149.2875 179.421163 
L 148.59 179.796678 
L 147.8925 180.113823 
L 147.195 180.371098 
L 146.4975 180.567413 
L 145.8 180.702089 
L 145.1025 180.77486 
L 144.405 180.785871 
L 143.7075 180.735674 
L 143.01 180.625221 
L 142.3125 180.455853 
L 141.615 180.229285 
L 140.9175 179.947593 
L 140.22 179.613193 
L 139.5225 179.22882 
L 138.825 178.797506 
L 138.1275 178.322554 
L 137.43 177.80751 
L 136.7325 177.256137 
L 136.035 176.67238 
L 135.3375 176.060342 
L 134.64 175.424244 
L 133.9425 174.768399 
L 133.245 174.097177 
L 132.5475 173.414972 
L 131.85 172.726169 
L 131.1525 172.035112 
L 130.455 171.346075 
L 129.7575 170.66323 
L 129.06 169.990616 
L 128.3625 169.332117 
L 127.665 168.691431 
L 126.9675 168.072047 
L 126.27 167.477224 
L 125.5725 166.909974 
L 124.875 166.373039 
L 124.1775 165.868879 
L 123.48 165.399661 
L 122.7825 164.967246 
L 122.085 164.573185 
L 121.3875 164.218712 
L 120.69 163.904744 
L 119.9925 163.631883 
L 119.295 163.400415 
L 118.5975 163.21032 
L 117.9 163.061282 
L 117.2025 162.952695 
L 116.505 162.88368 
L 115.8075 162.853098 
L 115.11 162.859568 
L 114.4125 162.901488 
L 113.715 162.977052 
L 113.0175 163.084272 
L 112.32 163.221004 
L 111.6225 163.384969 
L 110.925 163.573776 
L 110.2275 163.784952 
L 109.53 164.015963 
L 108.8325 164.264239 
L 108.135 164.527199 
L 107.4375 164.802278 
L 106.74 165.086946 
L 106.0425 165.378735 
L 105.345 165.675257 
L 104.6475 165.974225 
L 103.95 166.273473 
L 103.2525 166.570971 
L 102.555 166.864844 
L 101.8575 167.153381 
L 101.16 167.435046 
L 100.4625 167.708492 
L 99.765 167.972565 
L 99.0675 168.226309 
L 98.37 168.468968 
L 97.6725 168.699988 
L 96.975 168.919015 
L 96.2775 169.125889 
L 95.58 169.320643 
L 94.8825 169.503489 
L 94.185 169.674813 
L 93.4875 169.835158 
L 92.79 169.985217 
L 92.0925 170.125815 
L 91.395 170.257893 
L 90.6975 170.382489 
L 90 170.500724 
z
" style="fill:#e0ffff;"/>
   </g>
   <g id="line2d_19">
    <path clip-path="url(#pdf18d78bd1)" d="M 90 170.500724 
L 93.4875 169.835158 
L 96.2775 169.125889 
L 99.0675 168.226309 
L 102.555 166.864844 
L 109.53 164.015963 
L 111.6225 163.384969 
L 113.715 162.977052 
L 115.8075 162.853098 
L 117.2025 162.952695 
L 118.5975 163.21032 
L 119.9925 163.631883 
L 121.3875 164.218712 
L 123.48 165.399661 
L 125.5725 166.909974 
L 127.665 168.691431 
L 131.1525 172.035112 
L 135.3375 176.060342 
L 137.43 177.80751 
L 139.5225 179.22882 
L 140.9175 179.947593 
L 142.3125 180.455853 
L 143.7075 180.735674 
L 145.1025 180.77486 
L 146.4975 180.567413 
L 147.8925 180.113823 
L 149.2875 179.421163 
L 150.6825 178.502989 
L 152.0775 177.379041 
L 154.17 175.364337 
L 156.96 172.235191 
L 163.2375 164.858913 
L 165.33 162.777158 
L 167.4225 161.08276 
L 168.8175 160.212759 
L 170.2125 159.57332 
L 171.6075 159.177025 
L 173.0025 159.029877 
L 174.3975 159.131208 
L 175.7925 159.473792 
L 177.1875 160.044152 
L 178.5825 160.823051 
L 180.675 162.327959 
L 182.7675 164.146951 
L 186.255 167.563833 
L 190.44 171.618939 
L 192.5325 173.373944 
L 194.625 174.833004 
L 196.7175 175.939219 
L 198.1125 176.464438 
L 199.5075 176.816221 
L 200.9025 176.997251 
L 202.2975 177.015016 
L 204.39 176.762412 
L 206.4825 176.224691 
L 208.575 175.469821 
L 212.0625 173.933151 
L 216.945 171.751042 
L 219.735 170.726643 
L 222.525 169.949042 
L 225.315 169.419866 
L 228.8025 169.031292 
L 237.87 168.245492 
L 241.3575 167.618196 
L 245.5425 166.577503 
L 251.1225 165.149985 
L 253.9125 164.705335 
L 256.005 164.601741 
L 258.0975 164.748517 
L 260.19 165.178627 
L 262.2825 165.906657 
L 264.375 166.925973 
L 266.4675 168.207491 
L 269.2575 170.233035 
L 276.93 176.171572 
L 279.0225 177.436643 
L 281.115 178.375869 
L 282.51 178.785439 
L 283.905 179.002948 
L 285.3 179.017796 
L 286.695 178.824764 
L 288.09 178.424273 
L 289.485 177.822467 
L 290.88 177.031121 
L 292.9725 175.527558 
L 295.065 173.715192 
L 297.855 170.989688 
L 302.7375 166.132195 
L 304.83 164.316377 
L 306.9225 162.808721 
L 308.3175 162.014665 
L 309.7125 161.410452 
L 311.1075 161.008101 
L 312.5025 160.81399 
L 313.8975 160.828739 
L 315.2925 161.047286 
L 316.6875 161.459138 
L 318.0825 162.048776 
L 320.175 163.221843 
L 322.2675 164.666676 
L 325.755 167.417318 
L 329.94 170.714135 
L 332.0325 172.149771 
L 334.125 173.350102 
L 336.2175 174.270138 
L 338.31 174.887575 
L 340.4025 175.202851 
L 342.495 175.237438 
L 344.5875 175.030551 
L 347.3775 174.470876 
L 351.5625 173.316415 
L 355.7475 172.189573 
L 359.235 171.498515 
L 362.7225 171.089108 
L 367.605 170.826297 
L 371.79 170.556872 
L 374.58 170.177224 
L 377.37 169.553291 
L 380.16 168.662641 
L 382.95 167.538901 
L 391.32 163.906342 
L 393.4125 163.303152 
L 395.505 162.968515 
L 396.9 162.924408 
L 398.295 163.039521 
L 399.69 163.322976 
L 401.085 163.779203 
L 402.48 164.407555 
L 404.5725 165.658369 
L 406.665 167.239445 
L 409.455 169.740659 
L 417.1275 177.063554 
L 419.22 178.63052 
L 420.615 179.46353 
L 422.01 180.096748 
L 423.405 180.509425 
L 424.8 180.686368 
L 426.195 180.618481 
L 427.59 180.303118 
L 428.985 179.744252 
L 430.38 178.952442 
L 431.775 177.944599 
L 433.8675 176.079205 
L 435.96 173.879095 
L 439.4475 169.799043 
L 442.935 165.743701 
L 445.0275 163.579765 
L 447.12 161.762269 
L 448.515 160.790431 
L 449.91 160.035937 
L 451.305 159.513942 
L 452.7 159.233262 
L 454.095 159.196226 
L 455.49 159.39872 
L 456.885 159.830426 
L 458.28 160.475241 
L 459.675 161.311865 
L 461.7675 162.869067 
L 464.5575 165.348496 
L 471.5325 171.90475 
L 473.625 173.54355 
L 475.7175 174.889139 
L 477.81 175.896251 
L 479.205 176.368487 
L 480.6 176.680673 
L 481.995 176.837345 
L 484.0875 176.800727 
L 486.18 176.478296 
L 488.2725 175.926932 
L 491.0625 174.947281 
L 500.8275 171.245172 
L 504.315 170.303696 
L 508.5 169.459022 
L 516.87 167.890105 
L 521.055 166.814498 
L 529.425 164.481247 
L 532.215 164.027666 
L 534.3075 163.927505 
L 536.4 164.085516 
L 538.4925 164.53529 
L 540.585 165.293162 
L 542.6775 166.355006 
L 544.77 167.694529 
L 547.56 169.82574 
L 556.6275 177.212195 
L 558.72 178.431857 
L 560.115 179.039797 
L 561.51 179.459084 
L 562.905 179.673747 
L 564.3 179.67296 
L 565.695 179.451493 
L 567.09 179.009985 
L 568.485 178.355052 
L 569.88 177.499198 
L 571.9725 175.87979 
L 574.065 173.932753 
L 576.855 171.008459 
L 581.7375 165.797973 
L 583.83 163.849423 
L 585.9225 162.231536 
L 587.3175 161.379985 
L 588.7125 160.733166 
L 590.1075 160.304548 
L 591.5025 160.101579 
L 592.8975 160.125537 
L 594.2925 160.371557 
L 595.6875 160.828861 
L 597.0825 161.481156 
L 599.175 162.777559 
L 601.2675 164.375218 
L 604.755 167.422573 
L 608.94 171.083806 
L 611.0325 172.678219 
L 613.125 174.007102 
L 615.2175 175.016248 
L 617.31 175.676351 
L 618.705 175.919609 
L 620.7975 176.001593 
L 622.89 175.776711 
L 624.9825 175.298052 
L 627.7725 174.380106 
L 636.84 171.095977 
L 639.63 170.461053 
L 642.42 170.088163 
L 645.21 169.937445 
L 646.605 169.92 
L 646.605 169.92 
" style="fill:none;stroke:#008080;stroke-linecap:round;stroke-width:1.75;"/>
   </g>
   <g id="patch_3">
    <path d="M 90 270.72 
L 90 69.12 
" style="fill:none;stroke:#262626;stroke-linecap:square;stroke-linejoin:miter;stroke-width:1.25;"/>
   </g>
   <g id="patch_4">
    <path d="M 90 270.72 
L 648 270.72 
" style="fill:none;stroke:#262626;stroke-linecap:square;stroke-linejoin:miter;stroke-width:1.25;"/>
   </g>
  </g>
  <g id="axes_2">
   <g id="patch_5">
    <path d="M 90 512.64 
L 648 512.64 
L 648 311.04 
L 90 311.04 
z
" style="fill:#ffffff;"/>
   </g>
   <g id="matplotlib.axis_3">
    <g id="xtick_10">
     <g id="line2d_20">
      <g>
       <use style="fill:#262626;stroke:#262626;" x="191.454545" xlink:href="#m324938ca8e" y="512.64"/>
      </g>
     </g>
     <g id="text_19">
      <!-- 200 -->
      <g style="fill:#262626;" transform="translate(183.113139 532.797812)scale(0.1 -0.1)">
       <use xlink:href="#ArialMT-32"/>
       <use x="55.615234" xlink:href="#ArialMT-30"/>
       <use x="111.230469" xlink:href="#ArialMT-30"/>
      </g>
     </g>
    </g>
    <g id="xtick_11">
     <g id="line2d_21">
      <g>
       <use style="fill:#262626;stroke:#262626;" x="304.181818" xlink:href="#m324938ca8e" y="512.64"/>
      </g>
     </g>
     <g id="text_20">
      <!-- 400 -->
      <g style="fill:#262626;" transform="translate(295.840412 532.797812)scale(0.1 -0.1)">
       <use xlink:href="#ArialMT-34"/>
       <use x="55.615234" xlink:href="#ArialMT-30"/>
       <use x="111.230469" xlink:href="#ArialMT-30"/>
      </g>
     </g>
    </g>
    <g id="xtick_12">
     <g id="line2d_22">
      <g>
       <use style="fill:#262626;stroke:#262626;" x="416.909091" xlink:href="#m324938ca8e" y="512.64"/>
      </g>
     </g>
     <g id="text_21">
      <!-- 600 -->
      <g style="fill:#262626;" transform="translate(408.567685 532.797812)scale(0.1 -0.1)">
       <use xlink:href="#ArialMT-36"/>
       <use x="55.615234" xlink:href="#ArialMT-30"/>
       <use x="111.230469" xlink:href="#ArialMT-30"/>
      </g>
     </g>
    </g>
    <g id="xtick_13">
     <g id="line2d_23">
      <g>
       <use style="fill:#262626;stroke:#262626;" x="529.636364" xlink:href="#m324938ca8e" y="512.64"/>
      </g>
     </g>
     <g id="text_22">
      <!-- 800 -->
      <g style="fill:#262626;" transform="translate(521.294957 532.797812)scale(0.1 -0.1)">
       <use xlink:href="#ArialMT-38"/>
       <use x="55.615234" xlink:href="#ArialMT-30"/>
       <use x="111.230469" xlink:href="#ArialMT-30"/>
      </g>
     </g>
    </g>
    <g id="xtick_14">
     <g id="line2d_24">
      <g>
       <use style="fill:#262626;stroke:#262626;" x="642.363636" xlink:href="#m324938ca8e" y="512.64"/>
      </g>
     </g>
     <g id="text_23">
      <!-- 1000 -->
      <g style="fill:#262626;" transform="translate(631.241761 532.797812)scale(0.1 -0.1)">
       <use xlink:href="#ArialMT-31"/>
       <use x="55.615234" xlink:href="#ArialMT-30"/>
       <use x="111.230469" xlink:href="#ArialMT-30"/>
       <use x="166.845703" xlink:href="#ArialMT-30"/>
      </g>
     </g>
    </g>
   </g>
   <g id="matplotlib.axis_4">
    <g id="ytick_10">
     <g id="line2d_25">
      <g>
       <use style="fill:#262626;stroke:#262626;" x="90" xlink:href="#m13d2eb9786" y="512.64"/>
      </g>
     </g>
     <g id="text_24">
      <!-- 0 -->
      <g style="fill:#262626;" transform="translate(71.439063 516.218906)scale(0.1 -0.1)">
       <use xlink:href="#ArialMT-30"/>
      </g>
     </g>
    </g>
    <g id="ytick_11">
     <g id="line2d_26">
      <g>
       <use style="fill:#262626;stroke:#262626;" x="90" xlink:href="#m13d2eb9786" y="487.44"/>
      </g>
     </g>
     <g id="text_25">
      <!-- 5 -->
      <g style="fill:#262626;" transform="translate(71.439063 491.018906)scale(0.1 -0.1)">
       <use xlink:href="#ArialMT-35"/>
      </g>
     </g>
    </g>
    <g id="ytick_12">
     <g id="line2d_27">
      <g>
       <use style="fill:#262626;stroke:#262626;" x="90" xlink:href="#m13d2eb9786" y="462.24"/>
      </g>
     </g>
     <g id="text_26">
      <!-- 10 -->
      <g style="fill:#262626;" transform="translate(65.878125 465.818906)scale(0.1 -0.1)">
       <use xlink:href="#ArialMT-31"/>
       <use x="55.615234" xlink:href="#ArialMT-30"/>
      </g>
     </g>
    </g>
    <g id="ytick_13">
     <g id="line2d_28">
      <g>
       <use style="fill:#262626;stroke:#262626;" x="90" xlink:href="#m13d2eb9786" y="437.04"/>
      </g>
     </g>
     <g id="text_27">
      <!-- 15 -->
      <g style="fill:#262626;" transform="translate(65.878125 440.618906)scale(0.1 -0.1)">
       <use xlink:href="#ArialMT-31"/>
       <use x="55.615234" xlink:href="#ArialMT-35"/>
      </g>
     </g>
    </g>
    <g id="ytick_14">
     <g id="line2d_29">
      <g>
       <use style="fill:#262626;stroke:#262626;" x="90" xlink:href="#m13d2eb9786" y="411.84"/>
      </g>
     </g>
     <g id="text_28">
      <!-- 20 -->
      <g style="fill:#262626;" transform="translate(65.878125 415.418906)scale(0.1 -0.1)">
       <use xlink:href="#ArialMT-32"/>
       <use x="55.615234" xlink:href="#ArialMT-30"/>
      </g>
     </g>
    </g>
    <g id="ytick_15">
     <g id="line2d_30">
      <g>
       <use style="fill:#262626;stroke:#262626;" x="90" xlink:href="#m13d2eb9786" y="386.64"/>
      </g>
     </g>
     <g id="text_29">
      <!-- 25 -->
      <g style="fill:#262626;" transform="translate(65.878125 390.218906)scale(0.1 -0.1)">
       <use xlink:href="#ArialMT-32"/>
       <use x="55.615234" xlink:href="#ArialMT-35"/>
      </g>
     </g>
    </g>
    <g id="ytick_16">
     <g id="line2d_31">
      <g>
       <use style="fill:#262626;stroke:#262626;" x="90" xlink:href="#m13d2eb9786" y="361.44"/>
      </g>
     </g>
     <g id="text_30">
      <!-- 30 -->
      <g style="fill:#262626;" transform="translate(65.878125 365.018906)scale(0.1 -0.1)">
       <use xlink:href="#ArialMT-33"/>
       <use x="55.615234" xlink:href="#ArialMT-30"/>
      </g>
     </g>
    </g>
    <g id="ytick_17">
     <g id="line2d_32">
      <g>
       <use style="fill:#262626;stroke:#262626;" x="90" xlink:href="#m13d2eb9786" y="336.24"/>
      </g>
     </g>
     <g id="text_31">
      <!-- 35 -->
      <g style="fill:#262626;" transform="translate(65.878125 339.818906)scale(0.1 -0.1)">
       <use xlink:href="#ArialMT-33"/>
       <use x="55.615234" xlink:href="#ArialMT-35"/>
      </g>
     </g>
    </g>
    <g id="ytick_18">
     <g id="line2d_33">
      <g>
       <use style="fill:#262626;stroke:#262626;" x="90" xlink:href="#m13d2eb9786" y="311.04"/>
      </g>
     </g>
     <g id="text_32">
      <!-- 40 -->
      <g style="fill:#262626;" transform="translate(65.878125 314.618906)scale(0.1 -0.1)">
       <use xlink:href="#ArialMT-34"/>
       <use x="55.615234" xlink:href="#ArialMT-30"/>
      </g>
     </g>
    </g>
   </g>
   <g id="line2d_34">
    <path clip-path="url(#pef8bea4180)" d="M 90 488.562059 
L 95.636364 492.871917 
L 101.272727 491.915277 
L 106.909091 490.291312 
L 112.545455 492.192009 
L 118.181818 490.692663 
L 123.818182 490.203121 
L 129.454545 491.968658 
L 135.090909 490.163889 
L 140.727273 490.392837 
L 146.363636 490.241829 
L 152 489.156296 
L 157.636364 490.240305 
L 163.272727 490.645166 
L 168.909091 488.187222 
L 174.545455 488.633986 
L 180.181818 487.313077 
L 185.818182 487.018973 
L 191.454545 487.338343 
L 197.090909 486.121391 
L 202.727273 487.201243 
L 208.363636 484.042031 
L 214 483.157918 
L 219.636364 483.169266 
L 225.272727 482.846357 
L 230.909091 480.992047 
L 236.545455 479.145187 
L 242.181818 476.443916 
L 247.818182 475.314111 
L 253.454545 475.654125 
L 259.090909 473.305387 
L 264.727273 469.316541 
L 270.363636 463.226508 
L 276 459.185057 
L 281.636364 457.614718 
L 287.272727 454.794335 
L 292.909091 445.504843 
L 298.545455 423.732573 
L 304.181818 397.596726 
L 309.818182 374.961344 
L 315.454545 359.936381 
L 321.090909 350.604229 
L 326.727273 348.320806 
L 332.363636 355.280194 
L 338 371.866917 
L 343.636364 395.340341 
L 349.272727 419.997954 
L 354.909091 443.187999 
L 360.545455 460.277658 
L 366.181818 467.98198 
L 371.818182 471.852273 
L 377.454545 475.259843 
" style="fill:none;stroke:#b22222;stroke-linecap:round;stroke-width:1.75;"/>
   </g>
   <g id="patch_6">
    <path d="M 90 512.64 
L 90 311.04 
" style="fill:none;stroke:#262626;stroke-linecap:square;stroke-linejoin:miter;stroke-width:1.25;"/>
   </g>
   <g id="patch_7">
    <path d="M 90 512.64 
L 648 512.64 
" style="fill:none;stroke:#262626;stroke-linecap:square;stroke-linejoin:miter;stroke-width:1.25;"/>
   </g>
   <g id="text_33">
    <!-- f = 530 Hz -->
    <defs>
     <path d="M 8.6875 0 
L 8.6875 45.015625 
L 0.921875 45.015625 
L 0.921875 51.859375 
L 8.6875 51.859375 
L 8.6875 57.375 
Q 8.6875 62.59375 9.625 65.140625 
Q 10.890625 68.5625 14.078125 70.671875 
Q 17.28125 72.796875 23.046875 72.796875 
Q 26.765625 72.796875 31.25 71.921875 
L 29.9375 64.265625 
Q 27.203125 64.75 24.75 64.75 
Q 20.75 64.75 19.09375 63.03125 
Q 17.4375 61.328125 17.4375 56.640625 
L 17.4375 51.859375 
L 27.546875 51.859375 
L 27.546875 45.015625 
L 17.4375 45.015625 
L 17.4375 0 
z
" id="ArialMT-66"/>
     <path id="ArialMT-20"/>
     <path d="M 52.828125 42.09375 
L 5.5625 42.09375 
L 5.5625 50.296875 
L 52.828125 50.296875 
z
M 52.828125 20.359375 
L 5.5625 20.359375 
L 5.5625 28.5625 
L 52.828125 28.5625 
z
" id="ArialMT-3d"/>
     <path d="M 8.015625 0 
L 8.015625 71.578125 
L 17.484375 71.578125 
L 17.484375 42.1875 
L 54.6875 42.1875 
L 54.6875 71.578125 
L 64.15625 71.578125 
L 64.15625 0 
L 54.6875 0 
L 54.6875 33.734375 
L 17.484375 33.734375 
L 17.484375 0 
z
" id="ArialMT-48"/>
     <path d="M 1.953125 0 
L 1.953125 7.125 
L 34.96875 45.015625 
Q 29.34375 44.734375 25.046875 44.734375 
L 3.90625 44.734375 
L 3.90625 51.859375 
L 46.296875 51.859375 
L 46.296875 46.046875 
L 18.21875 13.140625 
L 12.796875 7.125 
Q 18.703125 7.5625 23.875 7.5625 
L 47.859375 7.5625 
L 47.859375 0 
z
" id="ArialMT-7a"/>
    </defs>
    <g style="fill:#262626;" transform="translate(529.636364 364.542187)scale(0.12 -0.12)">
     <use xlink:href="#ArialMT-66"/>
     <use x="27.783203" xlink:href="#ArialMT-20"/>
     <use x="55.566406" xlink:href="#ArialMT-3d"/>
     <use x="113.964844" xlink:href="#ArialMT-20"/>
     <use x="141.748047" xlink:href="#ArialMT-35"/>
     <use x="197.363281" xlink:href="#ArialMT-33"/>
     <use x="252.978516" xlink:href="#ArialMT-30"/>
     <use x="308.59375" xlink:href="#ArialMT-20"/>
     <use x="336.376953" xlink:href="#ArialMT-48"/>
     <use x="408.59375" xlink:href="#ArialMT-7a"/>
    </g>
   </g>
   <g id="PathCollection_1">
    <defs>
     <path d="M 0 3.5 
C 0.928211 3.5 1.81853 3.131218 2.474874 2.474874 
C 3.131218 1.81853 3.5 0.928211 3.5 0 
C 3.5 -0.928211 3.131218 -1.81853 2.474874 -2.474874 
C 1.81853 -3.131218 0.928211 -3.5 0 -3.5 
C -0.928211 -3.5 -1.81853 -3.131218 -2.474874 -2.474874 
C -3.131218 -1.81853 -3.5 -0.928211 -3.5 0 
C -3.5 0.928211 -3.131218 1.81853 -2.474874 2.474874 
C -1.81853 3.131218 -0.928211 3.5 0 3.5 
z
" id="m62946c40ea" style="stroke:#800000;stroke-width:0.3;"/>
    </defs>
    <g clip-path="url(#pef8bea4180)">
     <use style="fill:#800000;stroke:#800000;stroke-width:0.3;" x="377.454545" xlink:href="#m62946c40ea" y="475.259843"/>
    </g>
   </g>
  </g>
 </g>
 <defs>
  <clipPath id="pdf18d78bd1">
   <rect height="201.6" width="558" x="90" y="69.12"/>
  </clipPath>
  <clipPath id="pef8bea4180">
   <rect height="201.6" width="558" x="90" y="311.04"/>
  </clipPath>
 </defs>
</svg>
