<?xml version="1.0" encoding="utf-8" standalone="no"?>
<!DOCTYPE svg PUBLIC "-//W3C//DTD SVG 1.1//EN"
  "http://www.w3.org/Graphics/SVG/1.1/DTD/svg11.dtd">
<!-- Created with matplotlib (http://matplotlib.org/) -->
<svg height="576pt" version="1.1" viewBox="0 0 720 576" width="720pt" xmlns="http://www.w3.org/2000/svg" xmlns:xlink="http://www.w3.org/1999/xlink">
 <defs>
  <style type="text/css">
*{stroke-linecap:butt;stroke-linejoin:round;}
  </style>
 </defs>
 <g id="figure_1">
  <g id="patch_1">
   <path d="M 0 576 
L 720 576 
L 720 0 
L 0 0 
z
" style="fill:#ffffff;"/>
  </g>
  <g id="axes_1">
   <g id="patch_2">
    <path d="M 90 270.72 
L 648 270.72 
L 648 69.12 
L 90 69.12 
z
" style="fill:#ffffff;"/>
   </g>
   <g id="matplotlib.axis_1">
    <g id="xtick_1">
     <g id="line2d_1">
      <defs>
       <path d="M 0 0 
L 0 6 
" id="m0223af0f22" style="stroke:#262626;"/>
      </defs>
      <g>
       <use style="fill:#262626;stroke:#262626;" x="90" xlink:href="#m0223af0f22" y="270.72"/>
      </g>
     </g>
     <g id="text_1">
      <!-- 0 -->
      <defs>
       <path d="M 4.15625 35.296875 
Q 4.15625 48 6.765625 55.734375 
Q 9.375 63.484375 14.515625 67.671875 
Q 19.671875 71.875 27.484375 71.875 
Q 33.25 71.875 37.59375 69.546875 
Q 41.9375 67.234375 44.765625 62.859375 
Q 47.609375 58.5 49.21875 52.21875 
Q 50.828125 45.953125 50.828125 35.296875 
Q 50.828125 22.703125 48.234375 14.96875 
Q 45.65625 7.234375 40.5 3 
Q 35.359375 -1.21875 27.484375 -1.21875 
Q 17.140625 -1.21875 11.234375 6.203125 
Q 4.15625 15.140625 4.15625 35.296875 
z
M 13.1875 35.296875 
Q 13.1875 17.671875 17.3125 11.828125 
Q 21.4375 6 27.484375 6 
Q 33.546875 6 37.671875 11.859375 
Q 41.796875 17.71875 41.796875 35.296875 
Q 41.796875 52.984375 37.671875 58.78125 
Q 33.546875 64.59375 27.390625 64.59375 
Q 21.34375 64.59375 17.71875 59.46875 
Q 13.1875 52.9375 13.1875 35.296875 
z
" id="ArialMT-30"/>
      </defs>
      <g style="fill:#262626;" transform="translate(87.219531 290.877812)scale(0.1 -0.1)">
       <use xlink:href="#ArialMT-30"/>
      </g>
     </g>
    </g>
    <g id="xtick_2">
     <g id="line2d_2">
      <g>
       <use style="fill:#262626;stroke:#262626;" x="159.75" xlink:href="#m0223af0f22" y="270.72"/>
      </g>
     </g>
     <g id="text_2">
      <!-- 100 -->
      <defs>
       <path d="M 37.25 0 
L 28.46875 0 
L 28.46875 56 
Q 25.296875 52.984375 20.140625 49.953125 
Q 14.984375 46.921875 10.890625 45.40625 
L 10.890625 53.90625 
Q 18.265625 57.375 23.78125 62.296875 
Q 29.296875 67.234375 31.59375 71.875 
L 37.25 71.875 
z
" id="ArialMT-31"/>
      </defs>
      <g style="fill:#262626;" transform="translate(151.408594 290.877812)scale(0.1 -0.1)">
       <use xlink:href="#ArialMT-31"/>
       <use x="55.615234" xlink:href="#ArialMT-30"/>
       <use x="111.230469" xlink:href="#ArialMT-30"/>
      </g>
     </g>
    </g>
    <g id="xtick_3">
     <g id="line2d_3">
      <g>
       <use style="fill:#262626;stroke:#262626;" x="229.5" xlink:href="#m0223af0f22" y="270.72"/>
      </g>
     </g>
     <g id="text_3">
      <!-- 200 -->
      <defs>
       <path d="M 50.34375 8.453125 
L 50.34375 0 
L 3.03125 0 
Q 2.9375 3.171875 4.046875 6.109375 
Q 5.859375 10.9375 9.828125 15.625 
Q 13.8125 20.3125 21.34375 26.46875 
Q 33.015625 36.03125 37.109375 41.625 
Q 41.21875 47.21875 41.21875 52.203125 
Q 41.21875 57.421875 37.46875 61 
Q 33.734375 64.59375 27.734375 64.59375 
Q 21.390625 64.59375 17.578125 60.78125 
Q 13.765625 56.984375 13.71875 50.25 
L 4.6875 51.171875 
Q 5.609375 61.28125 11.65625 66.578125 
Q 17.71875 71.875 27.9375 71.875 
Q 38.234375 71.875 44.234375 66.15625 
Q 50.25 60.453125 50.25 52 
Q 50.25 47.703125 48.484375 43.546875 
Q 46.734375 39.40625 42.65625 34.8125 
Q 38.578125 30.21875 29.109375 22.21875 
Q 21.1875 15.578125 18.9375 13.203125 
Q 16.703125 10.84375 15.234375 8.453125 
z
" id="ArialMT-32"/>
      </defs>
      <g style="fill:#262626;" transform="translate(221.158594 290.877812)scale(0.1 -0.1)">
       <use xlink:href="#ArialMT-32"/>
       <use x="55.615234" xlink:href="#ArialMT-30"/>
       <use x="111.230469" xlink:href="#ArialMT-30"/>
      </g>
     </g>
    </g>
    <g id="xtick_4">
     <g id="line2d_4">
      <g>
       <use style="fill:#262626;stroke:#262626;" x="299.25" xlink:href="#m0223af0f22" y="270.72"/>
      </g>
     </g>
     <g id="text_4">
      <!-- 300 -->
      <defs>
       <path d="M 4.203125 18.890625 
L 12.984375 20.0625 
Q 14.5 12.59375 18.140625 9.296875 
Q 21.78125 6 27 6 
Q 33.203125 6 37.46875 10.296875 
Q 41.75 14.59375 41.75 20.953125 
Q 41.75 27 37.796875 30.921875 
Q 33.84375 34.859375 27.734375 34.859375 
Q 25.25 34.859375 21.53125 33.890625 
L 22.515625 41.609375 
Q 23.390625 41.5 23.921875 41.5 
Q 29.546875 41.5 34.03125 44.421875 
Q 38.53125 47.359375 38.53125 53.46875 
Q 38.53125 58.296875 35.25 61.46875 
Q 31.984375 64.65625 26.8125 64.65625 
Q 21.6875 64.65625 18.265625 61.421875 
Q 14.84375 58.203125 13.875 51.765625 
L 5.078125 53.328125 
Q 6.6875 62.15625 12.390625 67.015625 
Q 18.109375 71.875 26.609375 71.875 
Q 32.46875 71.875 37.390625 69.359375 
Q 42.328125 66.84375 44.9375 62.5 
Q 47.5625 58.15625 47.5625 53.265625 
Q 47.5625 48.640625 45.0625 44.828125 
Q 42.578125 41.015625 37.703125 38.765625 
Q 44.046875 37.3125 47.5625 32.6875 
Q 51.078125 28.078125 51.078125 21.140625 
Q 51.078125 11.765625 44.234375 5.25 
Q 37.40625 -1.265625 26.953125 -1.265625 
Q 17.53125 -1.265625 11.296875 4.34375 
Q 5.078125 9.96875 4.203125 18.890625 
z
" id="ArialMT-33"/>
      </defs>
      <g style="fill:#262626;" transform="translate(290.908594 290.877812)scale(0.1 -0.1)">
       <use xlink:href="#ArialMT-33"/>
       <use x="55.615234" xlink:href="#ArialMT-30"/>
       <use x="111.230469" xlink:href="#ArialMT-30"/>
      </g>
     </g>
    </g>
    <g id="xtick_5">
     <g id="line2d_5">
      <g>
       <use style="fill:#262626;stroke:#262626;" x="369" xlink:href="#m0223af0f22" y="270.72"/>
      </g>
     </g>
     <g id="text_5">
      <!-- 400 -->
      <defs>
       <path d="M 32.328125 0 
L 32.328125 17.140625 
L 1.265625 17.140625 
L 1.265625 25.203125 
L 33.9375 71.578125 
L 41.109375 71.578125 
L 41.109375 25.203125 
L 50.78125 25.203125 
L 50.78125 17.140625 
L 41.109375 17.140625 
L 41.109375 0 
z
M 32.328125 25.203125 
L 32.328125 57.46875 
L 9.90625 25.203125 
z
" id="ArialMT-34"/>
      </defs>
      <g style="fill:#262626;" transform="translate(360.658594 290.877812)scale(0.1 -0.1)">
       <use xlink:href="#ArialMT-34"/>
       <use x="55.615234" xlink:href="#ArialMT-30"/>
       <use x="111.230469" xlink:href="#ArialMT-30"/>
      </g>
     </g>
    </g>
    <g id="xtick_6">
     <g id="line2d_6">
      <g>
       <use style="fill:#262626;stroke:#262626;" x="438.75" xlink:href="#m0223af0f22" y="270.72"/>
      </g>
     </g>
     <g id="text_6">
      <!-- 500 -->
      <defs>
       <path d="M 4.15625 18.75 
L 13.375 19.53125 
Q 14.40625 12.796875 18.140625 9.390625 
Q 21.875 6 27.15625 6 
Q 33.5 6 37.890625 10.78125 
Q 42.28125 15.578125 42.28125 23.484375 
Q 42.28125 31 38.0625 35.34375 
Q 33.84375 39.703125 27 39.703125 
Q 22.75 39.703125 19.328125 37.765625 
Q 15.921875 35.84375 13.96875 32.765625 
L 5.71875 33.84375 
L 12.640625 70.609375 
L 48.25 70.609375 
L 48.25 62.203125 
L 19.671875 62.203125 
L 15.828125 42.96875 
Q 22.265625 47.46875 29.34375 47.46875 
Q 38.71875 47.46875 45.15625 40.96875 
Q 51.609375 34.46875 51.609375 24.265625 
Q 51.609375 14.546875 45.953125 7.46875 
Q 39.0625 -1.21875 27.15625 -1.21875 
Q 17.390625 -1.21875 11.203125 4.25 
Q 5.03125 9.71875 4.15625 18.75 
z
" id="ArialMT-35"/>
      </defs>
      <g style="fill:#262626;" transform="translate(430.408594 290.877812)scale(0.1 -0.1)">
       <use xlink:href="#ArialMT-35"/>
       <use x="55.615234" xlink:href="#ArialMT-30"/>
       <use x="111.230469" xlink:href="#ArialMT-30"/>
      </g>
     </g>
    </g>
    <g id="xtick_7">
     <g id="line2d_7">
      <g>
       <use style="fill:#262626;stroke:#262626;" x="508.5" xlink:href="#m0223af0f22" y="270.72"/>
      </g>
     </g>
     <g id="text_7">
      <!-- 600 -->
      <defs>
       <path d="M 49.75 54.046875 
L 41.015625 53.375 
Q 39.84375 58.546875 37.703125 60.890625 
Q 34.125 64.65625 28.90625 64.65625 
Q 24.703125 64.65625 21.53125 62.3125 
Q 17.390625 59.28125 14.984375 53.46875 
Q 12.59375 47.65625 12.5 36.921875 
Q 15.671875 41.75 20.265625 44.09375 
Q 24.859375 46.4375 29.890625 46.4375 
Q 38.671875 46.4375 44.84375 39.96875 
Q 51.03125 33.5 51.03125 23.25 
Q 51.03125 16.5 48.125 10.71875 
Q 45.21875 4.9375 40.140625 1.859375 
Q 35.0625 -1.21875 28.609375 -1.21875 
Q 17.625 -1.21875 10.6875 6.859375 
Q 3.765625 14.9375 3.765625 33.5 
Q 3.765625 54.25 11.421875 63.671875 
Q 18.109375 71.875 29.4375 71.875 
Q 37.890625 71.875 43.28125 67.140625 
Q 48.6875 62.40625 49.75 54.046875 
z
M 13.875 23.1875 
Q 13.875 18.65625 15.796875 14.5 
Q 17.71875 10.359375 21.1875 8.171875 
Q 24.65625 6 28.46875 6 
Q 34.03125 6 38.03125 10.484375 
Q 42.046875 14.984375 42.046875 22.703125 
Q 42.046875 30.125 38.078125 34.390625 
Q 34.125 38.671875 28.125 38.671875 
Q 22.171875 38.671875 18.015625 34.390625 
Q 13.875 30.125 13.875 23.1875 
z
" id="ArialMT-36"/>
      </defs>
      <g style="fill:#262626;" transform="translate(500.158594 290.877812)scale(0.1 -0.1)">
       <use xlink:href="#ArialMT-36"/>
       <use x="55.615234" xlink:href="#ArialMT-30"/>
       <use x="111.230469" xlink:href="#ArialMT-30"/>
      </g>
     </g>
    </g>
    <g id="xtick_8">
     <g id="line2d_8">
      <g>
       <use style="fill:#262626;stroke:#262626;" x="578.25" xlink:href="#m0223af0f22" y="270.72"/>
      </g>
     </g>
     <g id="text_8">
      <!-- 700 -->
      <defs>
       <path d="M 4.734375 62.203125 
L 4.734375 70.65625 
L 51.078125 70.65625 
L 51.078125 63.8125 
Q 44.234375 56.546875 37.515625 44.484375 
Q 30.8125 32.421875 27.15625 19.671875 
Q 24.515625 10.6875 23.78125 0 
L 14.75 0 
Q 14.890625 8.453125 18.0625 20.40625 
Q 21.234375 32.375 27.171875 43.484375 
Q 33.109375 54.59375 39.796875 62.203125 
z
" id="ArialMT-37"/>
      </defs>
      <g style="fill:#262626;" transform="translate(569.908594 290.877812)scale(0.1 -0.1)">
       <use xlink:href="#ArialMT-37"/>
       <use x="55.615234" xlink:href="#ArialMT-30"/>
       <use x="111.230469" xlink:href="#ArialMT-30"/>
      </g>
     </g>
    </g>
    <g id="xtick_9">
     <g id="line2d_9">
      <g>
       <use style="fill:#262626;stroke:#262626;" x="648" xlink:href="#m0223af0f22" y="270.72"/>
      </g>
     </g>
     <g id="text_9">
      <!-- 800 -->
      <defs>
       <path d="M 17.671875 38.8125 
Q 12.203125 40.828125 9.5625 44.53125 
Q 6.9375 48.25 6.9375 53.421875 
Q 6.9375 61.234375 12.546875 66.546875 
Q 18.171875 71.875 27.484375 71.875 
Q 36.859375 71.875 42.578125 66.421875 
Q 48.296875 60.984375 48.296875 53.171875 
Q 48.296875 48.1875 45.671875 44.5 
Q 43.0625 40.828125 37.75 38.8125 
Q 44.34375 36.671875 47.78125 31.875 
Q 51.21875 27.09375 51.21875 20.453125 
Q 51.21875 11.28125 44.71875 5.03125 
Q 38.234375 -1.21875 27.640625 -1.21875 
Q 17.046875 -1.21875 10.546875 5.046875 
Q 4.046875 11.328125 4.046875 20.703125 
Q 4.046875 27.6875 7.59375 32.390625 
Q 11.140625 37.109375 17.671875 38.8125 
z
M 15.921875 53.71875 
Q 15.921875 48.640625 19.1875 45.40625 
Q 22.46875 42.1875 27.6875 42.1875 
Q 32.765625 42.1875 36.015625 45.375 
Q 39.265625 48.578125 39.265625 53.21875 
Q 39.265625 58.0625 35.90625 61.359375 
Q 32.5625 64.65625 27.59375 64.65625 
Q 22.5625 64.65625 19.234375 61.421875 
Q 15.921875 58.203125 15.921875 53.71875 
z
M 13.09375 20.65625 
Q 13.09375 16.890625 14.875 13.375 
Q 16.65625 9.859375 20.171875 7.921875 
Q 23.6875 6 27.734375 6 
Q 34.03125 6 38.125 10.046875 
Q 42.234375 14.109375 42.234375 20.359375 
Q 42.234375 26.703125 38.015625 30.859375 
Q 33.796875 35.015625 27.4375 35.015625 
Q 21.234375 35.015625 17.15625 30.90625 
Q 13.09375 26.8125 13.09375 20.65625 
z
" id="ArialMT-38"/>
      </defs>
      <g style="fill:#262626;" transform="translate(639.658594 290.877812)scale(0.1 -0.1)">
       <use xlink:href="#ArialMT-38"/>
       <use x="55.615234" xlink:href="#ArialMT-30"/>
       <use x="111.230469" xlink:href="#ArialMT-30"/>
      </g>
     </g>
    </g>
   </g>
   <g id="matplotlib.axis_2">
    <g id="ytick_1">
     <g id="line2d_10">
      <defs>
       <path d="M 0 0 
L -6 0 
" id="mf26dc63f75" style="stroke:#262626;"/>
      </defs>
      <g>
       <use style="fill:#262626;stroke:#262626;" x="90" xlink:href="#mf26dc63f75" y="270.72"/>
      </g>
     </g>
     <g id="text_10">
      <!-- −0.20 -->
      <defs>
       <path d="M 52.828125 31.203125 
L 5.5625 31.203125 
L 5.5625 39.40625 
L 52.828125 39.40625 
z
" id="ArialMT-2212"/>
       <path d="M 9.078125 0 
L 9.078125 10.015625 
L 19.09375 10.015625 
L 19.09375 0 
z
" id="ArialMT-2e"/>
      </defs>
      <g style="fill:#262626;" transform="translate(51.698437 274.298906)scale(0.1 -0.1)">
       <use xlink:href="#ArialMT-2212"/>
       <use x="58.398438" xlink:href="#ArialMT-30"/>
       <use x="114.013672" xlink:href="#ArialMT-2e"/>
       <use x="141.796875" xlink:href="#ArialMT-32"/>
       <use x="197.412109" xlink:href="#ArialMT-30"/>
      </g>
     </g>
    </g>
    <g id="ytick_2">
     <g id="line2d_11">
      <g>
       <use style="fill:#262626;stroke:#262626;" x="90" xlink:href="#mf26dc63f75" y="245.52"/>
      </g>
     </g>
     <g id="text_11">
      <!-- −0.15 -->
      <g style="fill:#262626;" transform="translate(51.698437 249.098906)scale(0.1 -0.1)">
       <use xlink:href="#ArialMT-2212"/>
       <use x="58.398438" xlink:href="#ArialMT-30"/>
       <use x="114.013672" xlink:href="#ArialMT-2e"/>
       <use x="141.796875" xlink:href="#ArialMT-31"/>
       <use x="197.412109" xlink:href="#ArialMT-35"/>
      </g>
     </g>
    </g>
    <g id="ytick_3">
     <g id="line2d_12">
      <g>
       <use style="fill:#262626;stroke:#262626;" x="90" xlink:href="#mf26dc63f75" y="220.32"/>
      </g>
     </g>
     <g id="text_12">
      <!-- −0.10 -->
      <g style="fill:#262626;" transform="translate(51.698437 223.898906)scale(0.1 -0.1)">
       <use xlink:href="#ArialMT-2212"/>
       <use x="58.398438" xlink:href="#ArialMT-30"/>
       <use x="114.013672" xlink:href="#ArialMT-2e"/>
       <use x="141.796875" xlink:href="#ArialMT-31"/>
       <use x="197.412109" xlink:href="#ArialMT-30"/>
      </g>
     </g>
    </g>
    <g id="ytick_4">
     <g id="line2d_13">
      <g>
       <use style="fill:#262626;stroke:#262626;" x="90" xlink:href="#mf26dc63f75" y="195.12"/>
      </g>
     </g>
     <g id="text_13">
      <!-- −0.05 -->
      <g style="fill:#262626;" transform="translate(51.698437 198.698906)scale(0.1 -0.1)">
       <use xlink:href="#ArialMT-2212"/>
       <use x="58.398438" xlink:href="#ArialMT-30"/>
       <use x="114.013672" xlink:href="#ArialMT-2e"/>
       <use x="141.796875" xlink:href="#ArialMT-30"/>
       <use x="197.412109" xlink:href="#ArialMT-35"/>
      </g>
     </g>
    </g>
    <g id="ytick_5">
     <g id="line2d_14">
      <g>
       <use style="fill:#262626;stroke:#262626;" x="90" xlink:href="#mf26dc63f75" y="169.92"/>
      </g>
     </g>
     <g id="text_14">
      <!-- 0.00 -->
      <g style="fill:#262626;" transform="translate(57.539062 173.498906)scale(0.1 -0.1)">
       <use xlink:href="#ArialMT-30"/>
       <use x="55.615234" xlink:href="#ArialMT-2e"/>
       <use x="83.398438" xlink:href="#ArialMT-30"/>
       <use x="139.013672" xlink:href="#ArialMT-30"/>
      </g>
     </g>
    </g>
    <g id="ytick_6">
     <g id="line2d_15">
      <g>
       <use style="fill:#262626;stroke:#262626;" x="90" xlink:href="#mf26dc63f75" y="144.72"/>
      </g>
     </g>
     <g id="text_15">
      <!-- 0.05 -->
      <g style="fill:#262626;" transform="translate(57.539062 148.298906)scale(0.1 -0.1)">
       <use xlink:href="#ArialMT-30"/>
       <use x="55.615234" xlink:href="#ArialMT-2e"/>
       <use x="83.398438" xlink:href="#ArialMT-30"/>
       <use x="139.013672" xlink:href="#ArialMT-35"/>
      </g>
     </g>
    </g>
    <g id="ytick_7">
     <g id="line2d_16">
      <g>
       <use style="fill:#262626;stroke:#262626;" x="90" xlink:href="#mf26dc63f75" y="119.52"/>
      </g>
     </g>
     <g id="text_16">
      <!-- 0.10 -->
      <g style="fill:#262626;" transform="translate(57.539062 123.098906)scale(0.1 -0.1)">
       <use xlink:href="#ArialMT-30"/>
       <use x="55.615234" xlink:href="#ArialMT-2e"/>
       <use x="83.398438" xlink:href="#ArialMT-31"/>
       <use x="139.013672" xlink:href="#ArialMT-30"/>
      </g>
     </g>
    </g>
    <g id="ytick_8">
     <g id="line2d_17">
      <g>
       <use style="fill:#262626;stroke:#262626;" x="90" xlink:href="#mf26dc63f75" y="94.32"/>
      </g>
     </g>
     <g id="text_17">
      <!-- 0.15 -->
      <g style="fill:#262626;" transform="translate(57.539062 97.898906)scale(0.1 -0.1)">
       <use xlink:href="#ArialMT-30"/>
       <use x="55.615234" xlink:href="#ArialMT-2e"/>
       <use x="83.398438" xlink:href="#ArialMT-31"/>
       <use x="139.013672" xlink:href="#ArialMT-35"/>
      </g>
     </g>
    </g>
    <g id="ytick_9">
     <g id="line2d_18">
      <g>
       <use style="fill:#262626;stroke:#262626;" x="90" xlink:href="#mf26dc63f75" y="69.12"/>
      </g>
     </g>
     <g id="text_18">
      <!-- 0.20 -->
      <g style="fill:#262626;" transform="translate(57.539062 72.698906)scale(0.1 -0.1)">
       <use xlink:href="#ArialMT-30"/>
       <use x="55.615234" xlink:href="#ArialMT-2e"/>
       <use x="83.398438" xlink:href="#ArialMT-32"/>
       <use x="139.013672" xlink:href="#ArialMT-30"/>
      </g>
     </g>
    </g>
   </g>
   <g id="PolyCollection_1">
    <path clip-path="url(#pa156820f73)" d="M 90 165.748518 
L 90 169.92 
L 90.6975 169.92 
L 91.395 169.92 
L 92.0925 169.92 
L 92.79 169.92 
L 93.4875 169.92 
L 94.185 169.92 
L 94.8825 169.92 
L 95.58 169.92 
L 96.2775 169.92 
L 96.975 169.92 
L 97.6725 169.92 
L 98.37 169.92 
L 99.0675 169.92 
L 99.765 169.92 
L 100.4625 169.92 
L 101.16 169.92 
L 101.8575 169.92 
L 102.555 169.92 
L 103.2525 169.92 
L 103.95 169.92 
L 104.6475 169.92 
L 105.345 169.92 
L 106.0425 169.92 
L 106.74 169.92 
L 107.4375 169.92 
L 108.135 169.92 
L 108.8325 169.92 
L 109.53 169.92 
L 110.2275 169.92 
L 110.925 169.92 
L 111.6225 169.92 
L 112.32 169.92 
L 113.0175 169.92 
L 113.715 169.92 
L 114.4125 169.92 
L 115.11 169.92 
L 115.8075 169.92 
L 116.505 169.92 
L 117.2025 169.92 
L 117.9 169.92 
L 118.5975 169.92 
L 119.295 169.92 
L 119.9925 169.92 
L 120.69 169.92 
L 121.3875 169.92 
L 122.085 169.92 
L 122.7825 169.92 
L 123.48 169.92 
L 124.1775 169.92 
L 124.875 169.92 
L 125.5725 169.92 
L 126.27 169.92 
L 126.9675 169.92 
L 127.665 169.92 
L 128.3625 169.92 
L 129.06 169.92 
L 129.7575 169.92 
L 130.455 169.92 
L 131.1525 169.92 
L 131.85 169.92 
L 132.5475 169.92 
L 133.245 169.92 
L 133.9425 169.92 
L 134.64 169.92 
L 135.3375 169.92 
L 136.035 169.92 
L 136.7325 169.92 
L 137.43 169.92 
L 138.1275 169.92 
L 138.825 169.92 
L 139.5225 169.92 
L 140.22 169.92 
L 140.9175 169.92 
L 141.615 169.92 
L 142.3125 169.92 
L 143.01 169.92 
L 143.7075 169.92 
L 144.405 169.92 
L 145.1025 169.92 
L 145.8 169.92 
L 146.4975 169.92 
L 147.195 169.92 
L 147.8925 169.92 
L 148.59 169.92 
L 149.2875 169.92 
L 149.985 169.92 
L 150.6825 169.92 
L 151.38 169.92 
L 152.0775 169.92 
L 152.775 169.92 
L 153.4725 169.92 
L 154.17 169.92 
L 154.8675 169.92 
L 155.565 169.92 
L 156.2625 169.92 
L 156.96 169.92 
L 157.6575 169.92 
L 158.355 169.92 
L 159.0525 169.92 
L 159.75 169.92 
L 160.4475 169.92 
L 161.145 169.92 
L 161.8425 169.92 
L 162.54 169.92 
L 163.2375 169.92 
L 163.935 169.92 
L 164.6325 169.92 
L 165.33 169.92 
L 166.0275 169.92 
L 166.725 169.92 
L 167.4225 169.92 
L 168.12 169.92 
L 168.8175 169.92 
L 169.515 169.92 
L 170.2125 169.92 
L 170.91 169.92 
L 171.6075 169.92 
L 172.305 169.92 
L 173.0025 169.92 
L 173.7 169.92 
L 174.3975 169.92 
L 175.095 169.92 
L 175.7925 169.92 
L 176.49 169.92 
L 177.1875 169.92 
L 177.885 169.92 
L 178.5825 169.92 
L 179.28 169.92 
L 179.9775 169.92 
L 180.675 169.92 
L 181.3725 169.92 
L 182.07 169.92 
L 182.7675 169.92 
L 183.465 169.92 
L 184.1625 169.92 
L 184.86 169.92 
L 185.5575 169.92 
L 186.255 169.92 
L 186.9525 169.92 
L 187.65 169.92 
L 188.3475 169.92 
L 189.045 169.92 
L 189.7425 169.92 
L 190.44 169.92 
L 191.1375 169.92 
L 191.835 169.92 
L 192.5325 169.92 
L 193.23 169.92 
L 193.9275 169.92 
L 194.625 169.92 
L 195.3225 169.92 
L 196.02 169.92 
L 196.7175 169.92 
L 197.415 169.92 
L 198.1125 169.92 
L 198.81 169.92 
L 199.5075 169.92 
L 200.205 169.92 
L 200.9025 169.92 
L 201.6 169.92 
L 202.2975 169.92 
L 202.995 169.92 
L 203.6925 169.92 
L 204.39 169.92 
L 205.0875 169.92 
L 205.785 169.92 
L 206.4825 169.92 
L 207.18 169.92 
L 207.8775 169.92 
L 208.575 169.92 
L 209.2725 169.92 
L 209.97 169.92 
L 210.6675 169.92 
L 211.365 169.92 
L 212.0625 169.92 
L 212.76 169.92 
L 213.4575 169.92 
L 214.155 169.92 
L 214.8525 169.92 
L 215.55 169.92 
L 216.2475 169.92 
L 216.945 169.92 
L 217.6425 169.92 
L 218.34 169.92 
L 219.0375 169.92 
L 219.735 169.92 
L 220.4325 169.92 
L 221.13 169.92 
L 221.8275 169.92 
L 222.525 169.92 
L 223.2225 169.92 
L 223.92 169.92 
L 224.6175 169.92 
L 225.315 169.92 
L 226.0125 169.92 
L 226.71 169.92 
L 227.4075 169.92 
L 228.105 169.92 
L 228.8025 169.92 
L 229.5 169.92 
L 230.1975 169.92 
L 230.895 169.92 
L 231.5925 169.92 
L 232.29 169.92 
L 232.9875 169.92 
L 233.685 169.92 
L 234.3825 169.92 
L 235.08 169.92 
L 235.7775 169.92 
L 236.475 169.92 
L 237.1725 169.92 
L 237.87 169.92 
L 238.5675 169.92 
L 239.265 169.92 
L 239.9625 169.92 
L 240.66 169.92 
L 241.3575 169.92 
L 242.055 169.92 
L 242.7525 169.92 
L 243.45 169.92 
L 244.1475 169.92 
L 244.845 169.92 
L 245.5425 169.92 
L 246.24 169.92 
L 246.9375 169.92 
L 247.635 169.92 
L 248.3325 169.92 
L 249.03 169.92 
L 249.7275 169.92 
L 250.425 169.92 
L 251.1225 169.92 
L 251.82 169.92 
L 252.5175 169.92 
L 253.215 169.92 
L 253.9125 169.92 
L 254.61 169.92 
L 255.3075 169.92 
L 256.005 169.92 
L 256.7025 169.92 
L 257.4 169.92 
L 258.0975 169.92 
L 258.795 169.92 
L 259.4925 169.92 
L 260.19 169.92 
L 260.8875 169.92 
L 261.585 169.92 
L 262.2825 169.92 
L 262.98 169.92 
L 263.6775 169.92 
L 264.375 169.92 
L 265.0725 169.92 
L 265.77 169.92 
L 266.4675 169.92 
L 267.165 169.92 
L 267.8625 169.92 
L 268.56 169.92 
L 269.2575 169.92 
L 269.955 169.92 
L 270.6525 169.92 
L 271.35 169.92 
L 272.0475 169.92 
L 272.745 169.92 
L 273.4425 169.92 
L 274.14 169.92 
L 274.8375 169.92 
L 275.535 169.92 
L 276.2325 169.92 
L 276.93 169.92 
L 277.6275 169.92 
L 278.325 169.92 
L 279.0225 169.92 
L 279.72 169.92 
L 280.4175 169.92 
L 281.115 169.92 
L 281.8125 169.92 
L 282.51 169.92 
L 283.2075 169.92 
L 283.905 169.92 
L 284.6025 169.92 
L 285.3 169.92 
L 285.9975 169.92 
L 286.695 169.92 
L 287.3925 169.92 
L 288.09 169.92 
L 288.7875 169.92 
L 289.485 169.92 
L 290.1825 169.92 
L 290.88 169.92 
L 291.5775 169.92 
L 292.275 169.92 
L 292.9725 169.92 
L 293.67 169.92 
L 294.3675 169.92 
L 295.065 169.92 
L 295.7625 169.92 
L 296.46 169.92 
L 297.1575 169.92 
L 297.855 169.92 
L 298.5525 169.92 
L 299.25 169.92 
L 299.9475 169.92 
L 300.645 169.92 
L 301.3425 169.92 
L 302.04 169.92 
L 302.7375 169.92 
L 303.435 169.92 
L 304.1325 169.92 
L 304.83 169.92 
L 305.5275 169.92 
L 306.225 169.92 
L 306.9225 169.92 
L 307.62 169.92 
L 308.3175 169.92 
L 309.015 169.92 
L 309.7125 169.92 
L 310.41 169.92 
L 311.1075 169.92 
L 311.805 169.92 
L 312.5025 169.92 
L 313.2 169.92 
L 313.8975 169.92 
L 314.595 169.92 
L 315.2925 169.92 
L 315.99 169.92 
L 316.6875 169.92 
L 317.385 169.92 
L 318.0825 169.92 
L 318.78 169.92 
L 319.4775 169.92 
L 320.175 169.92 
L 320.8725 169.92 
L 321.57 169.92 
L 322.2675 169.92 
L 322.965 169.92 
L 323.6625 169.92 
L 324.36 169.92 
L 325.0575 169.92 
L 325.755 169.92 
L 326.4525 169.92 
L 327.15 169.92 
L 327.8475 169.92 
L 328.545 169.92 
L 329.2425 169.92 
L 329.94 169.92 
L 330.6375 169.92 
L 331.335 169.92 
L 332.0325 169.92 
L 332.73 169.92 
L 333.4275 169.92 
L 334.125 169.92 
L 334.8225 169.92 
L 335.52 169.92 
L 336.2175 169.92 
L 336.915 169.92 
L 337.6125 169.92 
L 338.31 169.92 
L 339.0075 169.92 
L 339.705 169.92 
L 340.4025 169.92 
L 341.1 169.92 
L 341.7975 169.92 
L 342.495 169.92 
L 343.1925 169.92 
L 343.89 169.92 
L 344.5875 169.92 
L 345.285 169.92 
L 345.9825 169.92 
L 346.68 169.92 
L 347.3775 169.92 
L 348.075 169.92 
L 348.7725 169.92 
L 349.47 169.92 
L 350.1675 169.92 
L 350.865 169.92 
L 351.5625 169.92 
L 352.26 169.92 
L 352.9575 169.92 
L 353.655 169.92 
L 354.3525 169.92 
L 355.05 169.92 
L 355.7475 169.92 
L 356.445 169.92 
L 357.1425 169.92 
L 357.84 169.92 
L 358.5375 169.92 
L 359.235 169.92 
L 359.9325 169.92 
L 360.63 169.92 
L 361.3275 169.92 
L 362.025 169.92 
L 362.7225 169.92 
L 363.42 169.92 
L 364.1175 169.92 
L 364.815 169.92 
L 365.5125 169.92 
L 366.21 169.92 
L 366.9075 169.92 
L 367.605 169.92 
L 368.3025 169.92 
L 369 169.92 
L 369.6975 169.92 
L 370.395 169.92 
L 371.0925 169.92 
L 371.79 169.92 
L 372.4875 169.92 
L 373.185 169.92 
L 373.8825 169.92 
L 374.58 169.92 
L 375.2775 169.92 
L 375.975 169.92 
L 376.6725 169.92 
L 377.37 169.92 
L 378.0675 169.92 
L 378.765 169.92 
L 379.4625 169.92 
L 380.16 169.92 
L 380.8575 169.92 
L 381.555 169.92 
L 382.2525 169.92 
L 382.95 169.92 
L 383.6475 169.92 
L 384.345 169.92 
L 385.0425 169.92 
L 385.74 169.92 
L 386.4375 169.92 
L 387.135 169.92 
L 387.8325 169.92 
L 388.53 169.92 
L 389.2275 169.92 
L 389.925 169.92 
L 390.6225 169.92 
L 391.32 169.92 
L 392.0175 169.92 
L 392.715 169.92 
L 393.4125 169.92 
L 394.11 169.92 
L 394.8075 169.92 
L 395.505 169.92 
L 396.2025 169.92 
L 396.9 169.92 
L 397.5975 169.92 
L 398.295 169.92 
L 398.9925 169.92 
L 399.69 169.92 
L 400.3875 169.92 
L 401.085 169.92 
L 401.7825 169.92 
L 402.48 169.92 
L 403.1775 169.92 
L 403.875 169.92 
L 404.5725 169.92 
L 405.27 169.92 
L 405.9675 169.92 
L 406.665 169.92 
L 407.3625 169.92 
L 408.06 169.92 
L 408.7575 169.92 
L 409.455 169.92 
L 410.1525 169.92 
L 410.85 169.92 
L 411.5475 169.92 
L 412.245 169.92 
L 412.9425 169.92 
L 413.64 169.92 
L 414.3375 169.92 
L 415.035 169.92 
L 415.7325 169.92 
L 416.43 169.92 
L 417.1275 169.92 
L 417.825 169.92 
L 418.5225 169.92 
L 419.22 169.92 
L 419.9175 169.92 
L 420.615 169.92 
L 421.3125 169.92 
L 422.01 169.92 
L 422.7075 169.92 
L 423.405 169.92 
L 424.1025 169.92 
L 424.8 169.92 
L 425.4975 169.92 
L 426.195 169.92 
L 426.8925 169.92 
L 427.59 169.92 
L 428.2875 169.92 
L 428.985 169.92 
L 429.6825 169.92 
L 430.38 169.92 
L 431.0775 169.92 
L 431.775 169.92 
L 432.4725 169.92 
L 433.17 169.92 
L 433.8675 169.92 
L 434.565 169.92 
L 435.2625 169.92 
L 435.96 169.92 
L 436.6575 169.92 
L 437.355 169.92 
L 438.0525 169.92 
L 438.75 169.92 
L 439.4475 169.92 
L 440.145 169.92 
L 440.8425 169.92 
L 441.54 169.92 
L 442.2375 169.92 
L 442.935 169.92 
L 443.6325 169.92 
L 444.33 169.92 
L 445.0275 169.92 
L 445.725 169.92 
L 446.4225 169.92 
L 447.12 169.92 
L 447.8175 169.92 
L 448.515 169.92 
L 449.2125 169.92 
L 449.91 169.92 
L 450.6075 169.92 
L 451.305 169.92 
L 452.0025 169.92 
L 452.7 169.92 
L 453.3975 169.92 
L 454.095 169.92 
L 454.7925 169.92 
L 455.49 169.92 
L 456.1875 169.92 
L 456.885 169.92 
L 457.5825 169.92 
L 458.28 169.92 
L 458.9775 169.92 
L 459.675 169.92 
L 460.3725 169.92 
L 461.07 169.92 
L 461.7675 169.92 
L 462.465 169.92 
L 463.1625 169.92 
L 463.86 169.92 
L 464.5575 169.92 
L 465.255 169.92 
L 465.9525 169.92 
L 466.65 169.92 
L 467.3475 169.92 
L 468.045 169.92 
L 468.7425 169.92 
L 469.44 169.92 
L 470.1375 169.92 
L 470.835 169.92 
L 471.5325 169.92 
L 472.23 169.92 
L 472.9275 169.92 
L 473.625 169.92 
L 474.3225 169.92 
L 475.02 169.92 
L 475.7175 169.92 
L 476.415 169.92 
L 477.1125 169.92 
L 477.81 169.92 
L 478.5075 169.92 
L 479.205 169.92 
L 479.9025 169.92 
L 480.6 169.92 
L 481.2975 169.92 
L 481.995 169.92 
L 482.6925 169.92 
L 483.39 169.92 
L 484.0875 169.92 
L 484.785 169.92 
L 485.4825 169.92 
L 486.18 169.92 
L 486.8775 169.92 
L 487.575 169.92 
L 488.2725 169.92 
L 488.97 169.92 
L 489.6675 169.92 
L 490.365 169.92 
L 491.0625 169.92 
L 491.76 169.92 
L 492.4575 169.92 
L 493.155 169.92 
L 493.8525 169.92 
L 494.55 169.92 
L 495.2475 169.92 
L 495.945 169.92 
L 496.6425 169.92 
L 497.34 169.92 
L 498.0375 169.92 
L 498.735 169.92 
L 499.4325 169.92 
L 500.13 169.92 
L 500.8275 169.92 
L 501.525 169.92 
L 502.2225 169.92 
L 502.92 169.92 
L 503.6175 169.92 
L 504.315 169.92 
L 505.0125 169.92 
L 505.71 169.92 
L 506.4075 169.92 
L 507.105 169.92 
L 507.8025 169.92 
L 508.5 169.92 
L 509.1975 169.92 
L 509.895 169.92 
L 510.5925 169.92 
L 511.29 169.92 
L 511.9875 169.92 
L 512.685 169.92 
L 513.3825 169.92 
L 514.08 169.92 
L 514.7775 169.92 
L 515.475 169.92 
L 516.1725 169.92 
L 516.87 169.92 
L 517.5675 169.92 
L 518.265 169.92 
L 518.9625 169.92 
L 519.66 169.92 
L 520.3575 169.92 
L 521.055 169.92 
L 521.7525 169.92 
L 522.45 169.92 
L 523.1475 169.92 
L 523.845 169.92 
L 524.5425 169.92 
L 525.24 169.92 
L 525.9375 169.92 
L 526.635 169.92 
L 527.3325 169.92 
L 528.03 169.92 
L 528.7275 169.92 
L 529.425 169.92 
L 530.1225 169.92 
L 530.82 169.92 
L 531.5175 169.92 
L 532.215 169.92 
L 532.9125 169.92 
L 533.61 169.92 
L 534.3075 169.92 
L 535.005 169.92 
L 535.7025 169.92 
L 536.4 169.92 
L 537.0975 169.92 
L 537.795 169.92 
L 538.4925 169.92 
L 539.19 169.92 
L 539.8875 169.92 
L 540.585 169.92 
L 541.2825 169.92 
L 541.98 169.92 
L 542.6775 169.92 
L 543.375 169.92 
L 544.0725 169.92 
L 544.77 169.92 
L 545.4675 169.92 
L 546.165 169.92 
L 546.8625 169.92 
L 547.56 169.92 
L 548.2575 169.92 
L 548.955 169.92 
L 549.6525 169.92 
L 550.35 169.92 
L 551.0475 169.92 
L 551.745 169.92 
L 552.4425 169.92 
L 553.14 169.92 
L 553.8375 169.92 
L 554.535 169.92 
L 555.2325 169.92 
L 555.93 169.92 
L 556.6275 169.92 
L 557.325 169.92 
L 558.0225 169.92 
L 558.72 169.92 
L 559.4175 169.92 
L 560.115 169.92 
L 560.8125 169.92 
L 561.51 169.92 
L 562.2075 169.92 
L 562.905 169.92 
L 563.6025 169.92 
L 564.3 169.92 
L 564.9975 169.92 
L 565.695 169.92 
L 566.3925 169.92 
L 567.09 169.92 
L 567.7875 169.92 
L 568.485 169.92 
L 569.1825 169.92 
L 569.88 169.92 
L 570.5775 169.92 
L 571.275 169.92 
L 571.9725 169.92 
L 572.67 169.92 
L 573.3675 169.92 
L 574.065 169.92 
L 574.7625 169.92 
L 575.46 169.92 
L 576.1575 169.92 
L 576.855 169.92 
L 577.5525 169.92 
L 578.25 169.92 
L 578.9475 169.92 
L 579.645 169.92 
L 580.3425 169.92 
L 581.04 169.92 
L 581.7375 169.92 
L 582.435 169.92 
L 583.1325 169.92 
L 583.83 169.92 
L 584.5275 169.92 
L 585.225 169.92 
L 585.9225 169.92 
L 586.62 169.92 
L 587.3175 169.92 
L 588.015 169.92 
L 588.7125 169.92 
L 589.41 169.92 
L 590.1075 169.92 
L 590.805 169.92 
L 591.5025 169.92 
L 592.2 169.92 
L 592.8975 169.92 
L 593.595 169.92 
L 594.2925 169.92 
L 594.99 169.92 
L 595.6875 169.92 
L 596.385 169.92 
L 597.0825 169.92 
L 597.78 169.92 
L 598.4775 169.92 
L 599.175 169.92 
L 599.8725 169.92 
L 600.57 169.92 
L 601.2675 169.92 
L 601.965 169.92 
L 602.6625 169.92 
L 603.36 169.92 
L 604.0575 169.92 
L 604.755 169.92 
L 605.4525 169.92 
L 606.15 169.92 
L 606.8475 169.92 
L 607.545 169.92 
L 608.2425 169.92 
L 608.94 169.92 
L 609.6375 169.92 
L 610.335 169.92 
L 611.0325 169.92 
L 611.73 169.92 
L 612.4275 169.92 
L 613.125 169.92 
L 613.8225 169.92 
L 614.52 169.92 
L 615.2175 169.92 
L 615.915 169.92 
L 616.6125 169.92 
L 617.31 169.92 
L 618.0075 169.92 
L 618.705 169.92 
L 619.4025 169.92 
L 620.1 169.92 
L 620.7975 169.92 
L 621.495 169.92 
L 622.1925 169.92 
L 622.89 169.92 
L 623.5875 169.92 
L 624.285 169.92 
L 624.9825 169.92 
L 625.68 169.92 
L 626.3775 169.92 
L 627.075 169.92 
L 627.7725 169.92 
L 628.47 169.92 
L 629.1675 169.92 
L 629.865 169.92 
L 630.5625 169.92 
L 631.26 169.92 
L 631.9575 169.92 
L 632.655 169.92 
L 633.3525 169.92 
L 634.05 169.92 
L 634.7475 169.92 
L 635.445 169.92 
L 636.1425 169.92 
L 636.84 169.92 
L 637.5375 169.92 
L 638.235 169.92 
L 638.9325 169.92 
L 639.63 169.92 
L 640.3275 169.92 
L 641.025 169.92 
L 641.7225 169.92 
L 642.42 169.92 
L 643.1175 169.92 
L 643.815 169.92 
L 644.5125 169.92 
L 645.21 169.92 
L 645.9075 169.92 
L 646.605 169.92 
L 646.605 169.92 
L 646.605 169.92 
L 645.9075 169.928269 
L 645.21 169.947539 
L 644.5125 169.980305 
L 643.815 170.028777 
L 643.1175 170.094826 
L 642.42 170.17994 
L 641.7225 170.285189 
L 641.025 170.411191 
L 640.3275 170.558092 
L 639.63 170.725552 
L 638.9325 170.912734 
L 638.235 171.118311 
L 637.5375 171.340477 
L 636.84 171.576962 
L 636.1425 171.825065 
L 635.445 172.081686 
L 634.7475 172.343372 
L 634.05 172.606362 
L 633.3525 172.86665 
L 632.655 173.120039 
L 631.9575 173.362214 
L 631.26 173.588803 
L 630.5625 173.795454 
L 629.865 173.977905 
L 629.1675 174.132056 
L 628.47 174.254042 
L 627.7725 174.340302 
L 627.075 174.387642 
L 626.3775 174.393301 
L 625.68 174.355001 
L 624.9825 174.271005 
L 624.285 174.14015 
L 623.5875 173.961891 
L 622.89 173.73632 
L 622.1925 173.464185 
L 621.495 173.146898 
L 620.7975 172.786535 
L 620.1 172.385818 
L 619.4025 171.948098 
L 618.705 171.47732 
L 618.0075 170.977987 
L 617.31 170.455104 
L 616.6125 169.914124 
L 615.915 169.360881 
L 615.2175 168.801518 
L 614.52 168.24241 
L 613.8225 167.690081 
L 613.125 167.151117 
L 612.4275 166.632078 
L 611.73 166.139409 
L 611.0325 165.679352 
L 610.335 165.257855 
L 609.6375 164.880487 
L 608.94 164.552362 
L 608.2425 164.278056 
L 607.545 164.061541 
L 606.8475 163.906122 
L 606.15 163.814381 
L 605.4525 163.788137 
L 604.755 163.828403 
L 604.0575 163.93537 
L 603.36 164.108386 
L 602.6625 164.345958 
L 601.965 164.645761 
L 601.2675 165.004655 
L 600.57 165.418721 
L 599.8725 165.883299 
L 599.175 166.393047 
L 598.4775 166.941996 
L 597.78 167.523631 
L 597.0825 168.130963 
L 596.385 168.756621 
L 595.6875 169.392943 
L 594.99 170.032076 
L 594.2925 170.666074 
L 593.595 171.287004 
L 592.8975 171.88705 
L 592.2 172.458618 
L 591.5025 172.994431 
L 590.805 173.487636 
L 590.1075 173.931891 
L 589.41 174.321453 
L 588.7125 174.651258 
L 588.015 174.916995 
L 587.3175 175.11516 
L 586.62 175.243117 
L 585.9225 175.299129 
L 585.225 175.282393 
L 584.5275 175.193052 
L 583.83 175.0322 
L 583.1325 174.801873 
L 582.435 174.505027 
L 581.7375 174.145502 
L 581.04 173.727982 
L 580.3425 173.257931 
L 579.645 172.741528 
L 578.9475 172.185589 
L 578.25 171.59748 
L 577.5525 170.985024 
L 576.855 170.356396 
L 576.1575 169.720023 
L 575.46 169.084468 
L 574.7625 168.458325 
L 574.065 167.850098 
L 573.3675 167.268094 
L 572.67 166.720315 
L 571.9725 166.214346 
L 571.275 165.757255 
L 570.5775 165.355504 
L 569.88 165.014853 
L 569.1825 164.740291 
L 568.485 164.53596 
L 567.7875 164.405104 
L 567.09 164.350017 
L 566.3925 164.372018 
L 565.695 164.471422 
L 564.9975 164.64754 
L 564.3 164.89868 
L 563.6025 165.222168 
L 562.905 165.614379 
L 562.2075 166.070783 
L 561.51 166.585999 
L 560.8125 167.153866 
L 560.115 167.767516 
L 559.4175 168.419466 
L 558.72 169.10171 
L 558.0225 169.805822 
L 557.325 170.523065 
L 556.6275 171.2445 
L 555.93 171.961103 
L 555.2325 172.663878 
L 554.535 173.343977 
L 553.8375 173.992805 
L 553.14 174.602138 
L 552.4425 175.164224 
L 551.745 175.671879 
L 551.0475 176.118586 
L 550.35 176.498569 
L 549.6525 176.806871 
L 548.955 177.039414 
L 548.2575 177.193049 
L 547.56 177.265598 
L 546.8625 177.255874 
L 546.165 177.163698 
L 545.4675 176.989898 
L 544.77 176.736296 
L 544.0725 176.40568 
L 543.375 176.00177 
L 542.6775 175.529162 
L 541.98 174.993274 
L 541.2825 174.400268 
L 540.585 173.756973 
L 539.8875 173.070796 
L 539.19 172.349626 
L 538.4925 171.60173 
L 537.795 170.835653 
L 537.0975 170.060103 
L 536.4 169.283847 
L 535.7025 168.515598 
L 535.005 167.763907 
L 534.3075 167.037058 
L 533.61 166.342968 
L 532.9125 165.689092 
L 532.215 165.082331 
L 531.5175 164.528955 
L 530.82 164.034533 
L 530.1225 163.603864 
L 529.425 163.240934 
L 528.7275 162.948872 
L 528.03 162.729922 
L 527.3325 162.585426 
L 526.635 162.515823 
L 525.9375 162.520651 
L 525.24 162.59857 
L 524.5425 162.747392 
L 523.845 162.964118 
L 523.1475 163.244997 
L 522.45 163.585579 
L 521.7525 163.980787 
L 521.055 164.424996 
L 520.3575 164.91211 
L 519.66 165.435651 
L 518.9625 165.988853 
L 518.265 166.564753 
L 517.5675 167.156286 
L 516.87 167.756378 
L 516.1725 168.358043 
L 515.475 168.954467 
L 514.7775 169.5391 
L 514.08 170.105733 
L 513.3825 170.648574 
L 512.685 171.162317 
L 511.9875 171.642197 
L 511.29 172.084045 
L 510.5925 172.484329 
L 509.895 172.840183 
L 509.1975 173.14943 
L 508.5 173.410593 
L 507.8025 173.622895 
L 507.105 173.786252 
L 506.4075 173.901252 
L 505.71 173.969128 
L 505.0125 173.991718 
L 504.315 173.971421 
L 503.6175 173.911147 
L 502.92 173.814252 
L 502.2225 173.684479 
L 501.525 173.525883 
L 500.8275 173.342765 
L 500.13 173.13959 
L 499.4325 172.920919 
L 498.735 172.691326 
L 498.0375 172.45533 
L 497.34 172.217319 
L 496.6425 171.981483 
L 495.945 171.751753 
L 495.2475 171.531736 
L 494.55 171.324671 
L 493.8525 171.13338 
L 493.155 170.960229 
L 492.4575 170.807104 
L 491.76 170.675384 
L 491.0625 170.565936 
L 490.365 170.479106 
L 489.6675 170.41473 
L 488.97 170.372145 
L 488.2725 170.350212 
L 487.575 170.34735 
L 486.8775 170.361569 
L 486.18 170.390519 
L 485.4825 170.431539 
L 484.785 170.48171 
L 484.0875 170.537921 
L 483.39 170.596923 
L 482.6925 170.655403 
L 481.995 170.710041 
L 481.2975 170.757582 
L 480.6 170.794895 
L 479.9025 170.819041 
L 479.205 170.827326 
L 478.5075 170.817358 
L 477.81 170.787097 
L 477.1125 170.734897 
L 476.415 170.659541 
L 475.7175 170.560275 
L 475.02 170.436825 
L 474.3225 170.28941 
L 473.625 170.118752 
L 472.9275 169.926065 
L 472.23 169.713049 
L 471.5325 169.481865 
L 470.835 169.235108 
L 470.1375 168.975769 
L 469.44 168.707193 
L 468.7425 168.43303 
L 468.045 168.157173 
L 467.3475 167.883707 
L 466.65 167.616833 
L 465.9525 167.36081 
L 465.255 167.11988 
L 464.5575 166.8982 
L 463.86 166.699768 
L 463.1625 166.528362 
L 462.465 166.387467 
L 461.7675 166.280214 
L 461.07 166.209326 
L 460.3725 166.177059 
L 459.675 166.185162 
L 458.9775 166.234838 
L 458.28 166.326707 
L 457.5825 166.460792 
L 456.885 166.636501 
L 456.1875 166.852624 
L 455.49 167.107336 
L 454.7925 167.398218 
L 454.095 167.722274 
L 453.3975 168.075968 
L 452.7 168.455265 
L 452.0025 168.855682 
L 451.305 169.272344 
L 450.6075 169.700047 
L 449.91 170.133333 
L 449.2125 170.56656 
L 448.515 170.993982 
L 447.8175 171.409834 
L 447.12 171.808409 
L 446.4225 172.184146 
L 445.725 172.531711 
L 445.0275 172.846078 
L 444.33 173.122604 
L 443.6325 173.357104 
L 442.935 173.545917 
L 442.2375 173.685965 
L 441.54 173.774808 
L 440.8425 173.810685 
L 440.145 173.792555 
L 439.4475 173.720116 
L 438.75 173.593821 
L 438.0525 173.414888 
L 437.355 173.185286 
L 436.6575 172.907723 
L 435.96 172.585616 
L 435.2625 172.223054 
L 434.565 171.824749 
L 433.8675 171.395977 
L 433.17 170.942514 
L 432.4725 170.470562 
L 431.775 169.986665 
L 431.0775 169.497624 
L 430.38 169.010409 
L 429.6825 168.532057 
L 428.985 168.06958 
L 428.2875 167.629866 
L 427.59 167.219583 
L 426.8925 166.845081 
L 426.195 166.512303 
L 425.4975 166.226697 
L 424.8 165.993133 
L 424.1025 165.815832 
L 423.405 165.698294 
L 422.7075 165.643248 
L 422.01 165.652602 
L 421.3125 165.727402 
L 420.615 165.867817 
L 419.9175 166.073116 
L 419.22 166.341673 
L 418.5225 166.670977 
L 417.825 167.057653 
L 417.1275 167.497498 
L 416.43 167.985531 
L 415.7325 168.516047 
L 415.035 169.082685 
L 414.3375 169.678508 
L 413.64 170.296088 
L 412.9425 170.927596 
L 412.245 171.564908 
L 411.5475 172.199702 
L 410.85 172.823574 
L 410.1525 173.42814 
L 409.455 174.00515 
L 408.7575 174.5466 
L 408.06 175.044836 
L 407.3625 175.492658 
L 406.665 175.883419 
L 405.9675 176.211116 
L 405.27 176.470476 
L 404.5725 176.657029 
L 403.875 176.767171 
L 403.1775 176.798224 
L 402.48 176.748472 
L 401.7825 176.617195 
L 401.085 176.404684 
L 400.3875 176.112246 
L 399.69 175.742195 
L 398.9925 175.297829 
L 398.295 174.783397 
L 397.5975 174.204049 
L 396.9 173.565779 
L 396.2025 172.875352 
L 395.505 172.140224 
L 394.8075 171.368456 
L 394.11 170.56861 
L 393.4125 169.749649 
L 392.715 168.920822 
L 392.0175 168.091556 
L 391.32 167.271335 
L 390.6225 166.469583 
L 389.925 165.69555 
L 389.2275 164.95819 
L 388.53 164.26606 
L 387.8325 163.627202 
L 387.135 163.049053 
L 386.4375 162.538347 
L 385.74 162.101032 
L 385.0425 161.7422 
L 384.345 161.466023 
L 383.6475 161.275699 
L 382.95 161.173419 
L 382.2525 161.16034 
L 381.555 161.236569 
L 380.8575 161.401169 
L 380.16 161.652174 
L 379.4625 161.986609 
L 378.765 162.400539 
L 378.0675 162.889114 
L 377.37 163.446637 
L 376.6725 164.066638 
L 375.975 164.741951 
L 375.2775 165.464816 
L 374.58 166.226967 
L 373.8825 167.019746 
L 373.185 167.834207 
L 372.4875 168.661227 
L 371.79 169.491624 
L 371.0925 170.316266 
L 370.395 171.126187 
L 369.6975 171.912691 
L 369 172.667462 
L 368.3025 173.382658 
L 367.605 174.051006 
L 366.9075 174.665884 
L 366.21 175.221399 
L 365.5125 175.712444 
L 364.815 176.13476 
L 364.1175 176.484974 
L 363.42 176.760629 
L 362.7225 176.9602 
L 362.025 177.083107 
L 361.3275 177.1297 
L 360.63 177.101245 
L 359.9325 176.99989 
L 359.235 176.828627 
L 358.5375 176.591239 
L 357.84 176.292235 
L 357.1425 175.936781 
L 356.445 175.530623 
L 355.7475 175.08 
L 355.05 174.591555 
L 354.3525 174.07224 
L 353.655 173.529217 
L 352.9575 172.969763 
L 352.26 172.401171 
L 351.5625 171.830649 
L 350.865 171.265231 
L 350.1675 170.711683 
L 349.47 170.176418 
L 348.7725 169.665419 
L 348.075 169.184166 
L 347.3775 168.737574 
L 346.68 168.329936 
L 345.9825 167.964878 
L 345.285 167.64533 
L 344.5875 167.373494 
L 343.89 167.150836 
L 343.1925 166.97808 
L 342.495 166.85522 
L 341.7975 166.781532 
L 341.1 166.755609 
L 340.4025 166.775392 
L 339.705 166.838222 
L 339.0075 166.940891 
L 338.31 167.079705 
L 337.6125 167.250548 
L 336.915 167.448962 
L 336.2175 167.670212 
L 335.52 167.909376 
L 334.8225 168.161417 
L 334.125 168.421269 
L 333.4275 168.683914 
L 332.73 168.94446 
L 332.0325 169.198215 
L 331.335 169.440756 
L 330.6375 169.667997 
L 329.94 169.876243 
L 329.2425 170.062244 
L 328.545 170.223235 
L 327.8475 170.356978 
L 327.15 170.461779 
L 326.4525 170.536513 
L 325.755 170.580628 
L 325.0575 170.594144 
L 324.36 170.577644 
L 323.6625 170.532253 
L 322.965 170.459612 
L 322.2675 170.36184 
L 321.57 170.241492 
L 320.8725 170.10151 
L 320.175 169.945165 
L 319.4775 169.775998 
L 318.78 169.597759 
L 318.0825 169.414332 
L 317.385 169.229675 
L 316.6875 169.047744 
L 315.99 168.872427 
L 315.2925 168.707479 
L 314.595 168.556452 
L 313.8975 168.422638 
L 313.2 168.309011 
L 312.5025 168.218179 
L 311.805 168.152335 
L 311.1075 168.113223 
L 310.41 168.102108 
L 309.7125 168.119753 
L 309.015 168.166405 
L 308.3175 168.241792 
L 307.62 168.345127 
L 306.9225 168.47512 
L 306.225 168.629995 
L 305.5275 168.807528 
L 304.83 169.005072 
L 304.1325 169.21961 
L 303.435 169.447801 
L 302.7375 169.686035 
L 302.04 169.930492 
L 301.3425 170.17721 
L 300.645 170.422146 
L 299.9475 170.661249 
L 299.25 170.890523 
L 298.5525 171.106102 
L 297.855 171.304308 
L 297.1575 171.481724 
L 296.46 171.635244 
L 295.7625 171.762136 
L 295.065 171.860089 
L 294.3675 171.927254 
L 293.67 171.962282 
L 292.9725 171.964352 
L 292.275 171.93319 
L 291.5775 171.869083 
L 290.88 171.772874 
L 290.1825 171.645966 
L 289.485 171.490295 
L 288.7875 171.308314 
L 288.09 171.102955 
L 287.3925 170.877589 
L 286.695 170.635979 
L 285.9975 170.382223 
L 285.3 170.12069 
L 284.6025 169.85596 
L 283.905 169.592745 
L 283.2075 169.335823 
L 282.51 169.089956 
L 281.8125 168.859817 
L 281.115 168.64991 
L 280.4175 168.464501 
L 279.72 168.30754 
L 279.0225 168.182595 
L 278.325 168.092788 
L 277.6275 168.04074 
L 276.93 168.028516 
L 276.2325 168.057584 
L 275.535 168.128781 
L 274.8375 168.242287 
L 274.14 168.397608 
L 273.4425 168.593572 
L 272.745 168.828329 
L 272.0475 169.099372 
L 271.35 169.403554 
L 270.6525 169.737129 
L 269.955 170.095788 
L 269.2575 170.474721 
L 268.56 170.868671 
L 267.8625 171.272005 
L 267.165 171.678789 
L 266.4675 172.082871 
L 265.77 172.477963 
L 265.0725 172.857731 
L 264.375 173.215888 
L 263.6775 173.546284 
L 262.98 173.842996 
L 262.2825 174.10042 
L 261.585 174.313354 
L 260.8875 174.477086 
L 260.19 174.587464 
L 259.4925 174.640969 
L 258.795 174.634777 
L 258.0975 174.56681 
L 257.4 174.435785 
L 256.7025 174.241239 
L 256.005 173.983558 
L 255.3075 173.663986 
L 254.61 173.284624 
L 253.9125 172.848417 
L 253.215 172.359131 
L 252.5175 171.821317 
L 251.82 171.240263 
L 251.1225 170.621939 
L 250.425 169.972926 
L 249.7275 169.300343 
L 249.03 168.61176 
L 248.3325 167.915105 
L 247.635 167.218571 
L 246.9375 166.530506 
L 246.24 165.859315 
L 245.5425 165.213345 
L 244.845 164.600782 
L 244.1475 164.029542 
L 243.45 163.507163 
L 242.7525 163.040708 
L 242.055 162.636669 
L 241.3575 162.300873 
L 240.66 162.038404 
L 239.9625 161.853531 
L 239.265 161.749643 
L 238.5675 161.729197 
L 237.87 161.793679 
L 237.1725 161.943575 
L 236.475 162.178358 
L 235.7775 162.496481 
L 235.08 162.89539 
L 234.3825 163.371549 
L 233.685 163.920475 
L 232.9875 164.536785 
L 232.29 165.21426 
L 231.5925 165.945911 
L 230.895 166.724069 
L 230.1975 167.540467 
L 229.5 168.386343 
L 228.8025 169.252545 
L 228.105 170.129641 
L 227.4075 171.008035 
L 226.71 171.878081 
L 226.0125 172.730205 
L 225.315 173.555018 
L 224.6175 174.343436 
L 223.92 175.086785 
L 223.2225 175.776916 
L 222.525 176.406296 
L 221.8275 176.968108 
L 221.13 177.456327 
L 220.4325 177.865799 
L 219.735 178.192301 
L 219.0375 178.43259 
L 218.34 178.58444 
L 217.6425 178.646673 
L 216.945 178.619162 
L 216.2475 178.502835 
L 215.55 178.299658 
L 214.8525 178.012607 
L 214.155 177.645627 
L 213.4575 177.203577 
L 212.76 176.692169 
L 212.0625 176.117891 
L 211.365 175.487919 
L 210.6675 174.810032 
L 209.97 174.092503 
L 209.2725 173.343997 
L 208.575 172.573462 
L 207.8775 171.790011 
L 207.18 171.002813 
L 206.4825 170.220971 
L 205.785 169.453415 
L 205.0875 168.70879 
L 204.39 167.995347 
L 203.6925 167.320846 
L 202.995 166.692465 
L 202.2975 166.116712 
L 201.6 165.599349 
L 200.9025 165.145334 
L 200.205 164.758758 
L 199.5075 164.44281 
L 198.81 164.199745 
L 198.1125 164.030866 
L 197.415 163.93652 
L 196.7175 163.916105 
L 196.02 163.968092 
L 195.3225 164.090057 
L 194.625 164.278723 
L 193.9275 164.530016 
L 193.23 164.839131 
L 192.5325 165.200604 
L 191.835 165.608392 
L 191.1375 166.055965 
L 190.44 166.536397 
L 189.7425 167.042467 
L 189.045 167.566755 
L 188.3475 168.101749 
L 187.65 168.639945 
L 186.9525 169.17395 
L 186.255 169.696576 
L 185.5575 170.200939 
L 184.86 170.680543 
L 184.1625 171.129367 
L 183.465 171.541936 
L 182.7675 171.913389 
L 182.07 172.239535 
L 181.3725 172.516901 
L 180.675 172.742767 
L 179.9775 172.915192 
L 179.28 173.033029 
L 178.5825 173.095926 
L 177.885 173.104318 
L 177.1875 173.05941 
L 176.49 172.963146 
L 175.7925 172.818167 
L 175.095 172.627766 
L 174.3975 172.395827 
L 173.7 172.126762 
L 173.0025 171.825438 
L 172.305 171.497101 
L 171.6075 171.147293 
L 170.91 170.781768 
L 170.2125 170.406405 
L 169.515 170.027121 
L 168.8175 169.649787 
L 168.12 169.280138 
L 167.4225 168.923697 
L 166.725 168.585696 
L 166.0275 168.271002 
L 165.33 167.984054 
L 164.6325 167.728805 
L 163.935 167.508669 
L 163.2375 167.326483 
L 162.54 167.184471 
L 161.8425 167.084223 
L 161.145 167.02668 
L 160.4475 167.012132 
L 159.75 167.040224 
L 159.0525 167.109971 
L 158.355 167.219784 
L 157.6575 167.367504 
L 156.96 167.550441 
L 156.2625 167.765428 
L 155.565 168.008873 
L 154.8675 168.276822 
L 154.17 168.565027 
L 153.4725 168.869011 
L 152.775 169.184148 
L 152.0775 169.505729 
L 151.38 169.829041 
L 150.6825 170.149438 
L 149.985 170.462415 
L 149.2875 170.763671 
L 148.59 171.049178 
L 147.8925 171.315238 
L 147.195 171.558535 
L 146.4975 171.776184 
L 145.8 171.965765 
L 145.1025 172.125361 
L 144.405 172.253575 
L 143.7075 172.349545 
L 143.01 172.412953 
L 142.3125 172.444015 
L 141.615 172.443477 
L 140.9175 172.412587 
L 140.22 172.353068 
L 139.5225 172.267086 
L 138.825 172.157202 
L 138.1275 172.026324 
L 137.43 171.877654 
L 136.7325 171.714626 
L 136.035 171.540846 
L 135.3375 171.360024 
L 134.64 171.17591 
L 133.9425 170.992225 
L 133.245 170.812597 
L 132.5475 170.640495 
L 131.85 170.479167 
L 131.1525 170.331586 
L 130.455 170.200391 
L 129.7575 170.087847 
L 129.06 169.995799 
L 128.3625 169.925642 
L 127.665 169.878292 
L 126.9675 169.85417 
L 126.27 169.853194 
L 125.5725 169.874777 
L 124.875 169.917833 
L 124.1775 169.980797 
L 123.48 170.061651 
L 122.7825 170.15795 
L 122.085 170.266871 
L 121.3875 170.385255 
L 120.69 170.509662 
L 119.9925 170.636432 
L 119.295 170.761743 
L 118.5975 170.881685 
L 117.9 170.992325 
L 117.2025 171.089777 
L 116.505 171.170276 
L 115.8075 171.230246 
L 115.11 171.266368 
L 114.4125 171.275648 
L 113.715 171.255472 
L 113.0175 171.203665 
L 112.32 171.118542 
L 111.6225 170.998947 
L 110.925 170.844287 
L 110.2275 170.654563 
L 109.53 170.430382 
L 108.8325 170.172969 
L 108.135 169.884163 
L 107.4375 169.566405 
L 106.74 169.22272 
L 106.0425 168.856686 
L 105.345 168.472392 
L 104.6475 168.074391 
L 103.95 167.667647 
L 103.2525 167.257464 
L 102.555 166.849426 
L 101.8575 166.449312 
L 101.16 166.063021 
L 100.4625 165.696488 
L 99.765 165.355594 
L 99.0675 165.046085 
L 98.37 164.773484 
L 97.6725 164.543 
L 96.975 164.359456 
L 96.2775 164.227201 
L 95.58 164.150042 
L 94.8825 164.131177 
L 94.185 164.173134 
L 93.4875 164.277721 
L 92.79 164.445983 
L 92.0925 164.678172 
L 91.395 164.973723 
L 90.6975 165.331244 
L 90 165.748518 
z
" style="fill:#e0ffff;"/>
   </g>
   <g id="line2d_19">
    <path clip-path="url(#pa156820f73)" d="M 90 165.748518 
L 91.395 164.973723 
L 92.79 164.445983 
L 94.185 164.173134 
L 95.58 164.150042 
L 96.975 164.359456 
L 98.37 164.773484 
L 100.4625 165.696488 
L 103.2525 167.257464 
L 106.74 169.22272 
L 108.8325 170.172969 
L 110.925 170.844287 
L 113.0175 171.203665 
L 115.11 171.266368 
L 117.2025 171.089777 
L 120.69 170.509662 
L 124.1775 169.980797 
L 126.27 169.853194 
L 128.3625 169.925642 
L 130.455 170.200391 
L 133.245 170.812597 
L 138.825 172.157202 
L 140.9175 172.412587 
L 143.01 172.412953 
L 145.1025 172.125361 
L 147.195 171.558535 
L 149.2875 170.763671 
L 156.96 167.550441 
L 159.0525 167.109971 
L 160.4475 167.012132 
L 161.8425 167.084223 
L 163.2375 167.326483 
L 165.33 167.984054 
L 167.4225 168.923697 
L 174.3975 172.395827 
L 175.7925 172.818167 
L 177.1875 173.05941 
L 178.5825 173.095926 
L 179.9775 172.915192 
L 181.3725 172.516901 
L 182.7675 171.913389 
L 184.86 170.680543 
L 187.65 168.639945 
L 191.1375 166.055965 
L 193.23 164.839131 
L 194.625 164.278723 
L 196.02 163.968092 
L 197.415 163.93652 
L 198.81 164.199745 
L 200.205 164.758758 
L 201.6 165.599349 
L 202.995 166.692465 
L 205.0875 168.70879 
L 208.575 172.573462 
L 210.6675 174.810032 
L 212.76 176.692169 
L 214.155 177.645627 
L 215.55 178.299658 
L 216.945 178.619162 
L 218.34 178.58444 
L 219.735 178.192301 
L 221.13 177.456327 
L 222.525 176.406296 
L 223.92 175.086785 
L 226.0125 172.730205 
L 232.29 165.21426 
L 233.685 163.920475 
L 235.08 162.89539 
L 236.475 162.178358 
L 237.87 161.793679 
L 239.265 161.749643 
L 240.66 162.038404 
L 242.055 162.636669 
L 243.45 163.507163 
L 244.845 164.600782 
L 246.9375 166.530506 
L 251.82 171.240263 
L 253.9125 172.848417 
L 255.3075 173.663986 
L 256.7025 174.241239 
L 258.0975 174.56681 
L 259.4925 174.640969 
L 260.8875 174.477086 
L 262.2825 174.10042 
L 264.375 173.215888 
L 267.165 171.678789 
L 270.6525 169.737129 
L 272.745 168.828329 
L 274.14 168.397608 
L 275.535 168.128781 
L 276.93 168.028516 
L 278.325 168.092788 
L 280.4175 168.464501 
L 282.51 169.089956 
L 289.485 171.490295 
L 291.5775 171.869083 
L 293.67 171.962282 
L 295.7625 171.762136 
L 297.855 171.304308 
L 300.645 170.422146 
L 305.5275 168.807528 
L 307.62 168.345127 
L 309.7125 168.119753 
L 311.805 168.152335 
L 313.8975 168.422638 
L 316.6875 169.047744 
L 321.57 170.241492 
L 323.6625 170.532253 
L 325.755 170.580628 
L 327.8475 170.356978 
L 329.94 169.876243 
L 332.73 168.94446 
L 336.915 167.448962 
L 339.0075 166.940891 
L 340.4025 166.775392 
L 341.7975 166.781532 
L 343.1925 166.97808 
L 344.5875 167.373494 
L 345.9825 167.964878 
L 348.075 169.184166 
L 350.1675 170.711683 
L 355.7475 175.08 
L 357.1425 175.936781 
L 358.5375 176.591239 
L 359.9325 176.99989 
L 361.3275 177.1297 
L 362.7225 176.9602 
L 364.1175 176.484974 
L 365.5125 175.712444 
L 366.9075 174.665884 
L 368.3025 173.382658 
L 370.395 171.126187 
L 375.975 164.741951 
L 377.37 163.446637 
L 378.765 162.400539 
L 380.16 161.652174 
L 381.555 161.236569 
L 382.95 161.173419 
L 384.345 161.466023 
L 385.74 162.101032 
L 387.135 163.049053 
L 388.53 164.26606 
L 390.6225 166.469583 
L 396.9 173.565779 
L 398.295 174.783397 
L 399.69 175.742195 
L 401.085 176.404684 
L 402.48 176.748472 
L 403.875 176.767171 
L 405.27 176.470476 
L 406.665 175.883419 
L 408.06 175.044836 
L 410.1525 173.42814 
L 417.1275 167.497498 
L 418.5225 166.670977 
L 419.9175 166.073116 
L 421.3125 165.727402 
L 422.7075 165.643248 
L 424.1025 165.815832 
L 425.4975 166.226697 
L 426.8925 166.845081 
L 428.985 168.06958 
L 435.96 172.585616 
L 437.355 173.185286 
L 438.75 173.593821 
L 440.145 173.792555 
L 441.54 173.774808 
L 442.935 173.545917 
L 444.33 173.122604 
L 446.4225 172.184146 
L 449.2125 170.56656 
L 453.3975 168.075968 
L 455.49 167.107336 
L 457.5825 166.460792 
L 458.9775 166.234838 
L 460.3725 166.177059 
L 461.7675 166.280214 
L 463.86 166.699768 
L 465.9525 167.36081 
L 473.625 170.118752 
L 475.7175 170.560275 
L 477.81 170.787097 
L 479.9025 170.819041 
L 483.39 170.596923 
L 487.575 170.34735 
L 489.6675 170.41473 
L 491.76 170.675384 
L 493.8525 171.13338 
L 496.6425 171.981483 
L 501.525 173.525883 
L 503.6175 173.911147 
L 505.0125 173.991718 
L 506.4075 173.901252 
L 507.8025 173.622895 
L 509.1975 173.14943 
L 510.5925 172.484329 
L 512.685 171.162317 
L 514.7775 169.5391 
L 520.3575 164.91211 
L 522.45 163.585579 
L 523.845 162.964118 
L 525.24 162.59857 
L 526.635 162.515823 
L 528.03 162.729922 
L 529.425 163.240934 
L 530.82 164.034533 
L 532.215 165.082331 
L 534.3075 167.037058 
L 537.0975 170.060103 
L 539.8875 173.070796 
L 541.98 174.993274 
L 543.375 176.00177 
L 544.77 176.736296 
L 546.165 177.163698 
L 547.56 177.265598 
L 548.955 177.039414 
L 550.35 176.498569 
L 551.745 175.671879 
L 553.14 174.602138 
L 555.2325 172.663878 
L 560.8125 167.153866 
L 562.2075 166.070783 
L 563.6025 165.222168 
L 564.9975 164.64754 
L 566.3925 164.372018 
L 567.7875 164.405104 
L 569.1825 164.740291 
L 570.5775 165.355504 
L 571.9725 166.214346 
L 574.065 167.850098 
L 580.3425 173.257931 
L 581.7375 174.145502 
L 583.1325 174.801873 
L 584.5275 175.193052 
L 585.9225 175.299129 
L 587.3175 175.11516 
L 588.7125 174.651258 
L 590.1075 173.931891 
L 591.5025 172.994431 
L 593.595 171.287004 
L 599.175 166.393047 
L 600.57 165.418721 
L 601.965 164.645761 
L 603.36 164.108386 
L 604.755 163.828403 
L 606.15 163.814381 
L 607.545 164.061541 
L 608.94 164.552362 
L 610.335 165.257855 
L 612.4275 166.632078 
L 615.915 169.360881 
L 618.705 171.47732 
L 620.7975 172.786535 
L 622.1925 173.464185 
L 623.5875 173.961891 
L 624.9825 174.271005 
L 626.3775 174.393301 
L 627.7725 174.340302 
L 629.865 173.977905 
L 631.9575 173.362214 
L 640.3275 170.558092 
L 642.42 170.17994 
L 645.21 169.947539 
L 646.605 169.92 
L 646.605 169.92 
" style="fill:none;stroke:#008080;stroke-linecap:round;stroke-width:1.75;"/>
   </g>
   <g id="patch_3">
    <path d="M 90 270.72 
L 90 69.12 
" style="fill:none;stroke:#262626;stroke-linecap:square;stroke-linejoin:miter;stroke-width:1.25;"/>
   </g>
   <g id="patch_4">
    <path d="M 90 270.72 
L 648 270.72 
" style="fill:none;stroke:#262626;stroke-linecap:square;stroke-linejoin:miter;stroke-width:1.25;"/>
   </g>
  </g>
  <g id="axes_2">
   <g id="patch_5">
    <path d="M 90 512.64 
L 648 512.64 
L 648 311.04 
L 90 311.04 
z
" style="fill:#ffffff;"/>
   </g>
   <g id="matplotlib.axis_3">
    <g id="xtick_10">
     <g id="line2d_20">
      <g>
       <use style="fill:#262626;stroke:#262626;" x="191.454545" xlink:href="#m0223af0f22" y="512.64"/>
      </g>
     </g>
     <g id="text_19">
      <!-- 200 -->
      <g style="fill:#262626;" transform="translate(183.113139 532.797812)scale(0.1 -0.1)">
       <use xlink:href="#ArialMT-32"/>
       <use x="55.615234" xlink:href="#ArialMT-30"/>
       <use x="111.230469" xlink:href="#ArialMT-30"/>
      </g>
     </g>
    </g>
    <g id="xtick_11">
     <g id="line2d_21">
      <g>
       <use style="fill:#262626;stroke:#262626;" x="304.181818" xlink:href="#m0223af0f22" y="512.64"/>
      </g>
     </g>
     <g id="text_20">
      <!-- 400 -->
      <g style="fill:#262626;" transform="translate(295.840412 532.797812)scale(0.1 -0.1)">
       <use xlink:href="#ArialMT-34"/>
       <use x="55.615234" xlink:href="#ArialMT-30"/>
       <use x="111.230469" xlink:href="#ArialMT-30"/>
      </g>
     </g>
    </g>
    <g id="xtick_12">
     <g id="line2d_22">
      <g>
       <use style="fill:#262626;stroke:#262626;" x="416.909091" xlink:href="#m0223af0f22" y="512.64"/>
      </g>
     </g>
     <g id="text_21">
      <!-- 600 -->
      <g style="fill:#262626;" transform="translate(408.567685 532.797812)scale(0.1 -0.1)">
       <use xlink:href="#ArialMT-36"/>
       <use x="55.615234" xlink:href="#ArialMT-30"/>
       <use x="111.230469" xlink:href="#ArialMT-30"/>
      </g>
     </g>
    </g>
    <g id="xtick_13">
     <g id="line2d_23">
      <g>
       <use style="fill:#262626;stroke:#262626;" x="529.636364" xlink:href="#m0223af0f22" y="512.64"/>
      </g>
     </g>
     <g id="text_22">
      <!-- 800 -->
      <g style="fill:#262626;" transform="translate(521.294957 532.797812)scale(0.1 -0.1)">
       <use xlink:href="#ArialMT-38"/>
       <use x="55.615234" xlink:href="#ArialMT-30"/>
       <use x="111.230469" xlink:href="#ArialMT-30"/>
      </g>
     </g>
    </g>
    <g id="xtick_14">
     <g id="line2d_24">
      <g>
       <use style="fill:#262626;stroke:#262626;" x="642.363636" xlink:href="#m0223af0f22" y="512.64"/>
      </g>
     </g>
     <g id="text_23">
      <!-- 1000 -->
      <g style="fill:#262626;" transform="translate(631.241761 532.797812)scale(0.1 -0.1)">
       <use xlink:href="#ArialMT-31"/>
       <use x="55.615234" xlink:href="#ArialMT-30"/>
       <use x="111.230469" xlink:href="#ArialMT-30"/>
       <use x="166.845703" xlink:href="#ArialMT-30"/>
      </g>
     </g>
    </g>
   </g>
   <g id="matplotlib.axis_4">
    <g id="ytick_10">
     <g id="line2d_25">
      <g>
       <use style="fill:#262626;stroke:#262626;" x="90" xlink:href="#mf26dc63f75" y="512.64"/>
      </g>
     </g>
     <g id="text_24">
      <!-- 0 -->
      <g style="fill:#262626;" transform="translate(71.439063 516.218906)scale(0.1 -0.1)">
       <use xlink:href="#ArialMT-30"/>
      </g>
     </g>
    </g>
    <g id="ytick_11">
     <g id="line2d_26">
      <g>
       <use style="fill:#262626;stroke:#262626;" x="90" xlink:href="#mf26dc63f75" y="487.44"/>
      </g>
     </g>
     <g id="text_25">
      <!-- 5 -->
      <g style="fill:#262626;" transform="translate(71.439063 491.018906)scale(0.1 -0.1)">
       <use xlink:href="#ArialMT-35"/>
      </g>
     </g>
    </g>
    <g id="ytick_12">
     <g id="line2d_27">
      <g>
       <use style="fill:#262626;stroke:#262626;" x="90" xlink:href="#mf26dc63f75" y="462.24"/>
      </g>
     </g>
     <g id="text_26">
      <!-- 10 -->
      <g style="fill:#262626;" transform="translate(65.878125 465.818906)scale(0.1 -0.1)">
       <use xlink:href="#ArialMT-31"/>
       <use x="55.615234" xlink:href="#ArialMT-30"/>
      </g>
     </g>
    </g>
    <g id="ytick_13">
     <g id="line2d_28">
      <g>
       <use style="fill:#262626;stroke:#262626;" x="90" xlink:href="#mf26dc63f75" y="437.04"/>
      </g>
     </g>
     <g id="text_27">
      <!-- 15 -->
      <g style="fill:#262626;" transform="translate(65.878125 440.618906)scale(0.1 -0.1)">
       <use xlink:href="#ArialMT-31"/>
       <use x="55.615234" xlink:href="#ArialMT-35"/>
      </g>
     </g>
    </g>
    <g id="ytick_14">
     <g id="line2d_29">
      <g>
       <use style="fill:#262626;stroke:#262626;" x="90" xlink:href="#mf26dc63f75" y="411.84"/>
      </g>
     </g>
     <g id="text_28">
      <!-- 20 -->
      <g style="fill:#262626;" transform="translate(65.878125 415.418906)scale(0.1 -0.1)">
       <use xlink:href="#ArialMT-32"/>
       <use x="55.615234" xlink:href="#ArialMT-30"/>
      </g>
     </g>
    </g>
    <g id="ytick_15">
     <g id="line2d_30">
      <g>
       <use style="fill:#262626;stroke:#262626;" x="90" xlink:href="#mf26dc63f75" y="386.64"/>
      </g>
     </g>
     <g id="text_29">
      <!-- 25 -->
      <g style="fill:#262626;" transform="translate(65.878125 390.218906)scale(0.1 -0.1)">
       <use xlink:href="#ArialMT-32"/>
       <use x="55.615234" xlink:href="#ArialMT-35"/>
      </g>
     </g>
    </g>
    <g id="ytick_16">
     <g id="line2d_31">
      <g>
       <use style="fill:#262626;stroke:#262626;" x="90" xlink:href="#mf26dc63f75" y="361.44"/>
      </g>
     </g>
     <g id="text_30">
      <!-- 30 -->
      <g style="fill:#262626;" transform="translate(65.878125 365.018906)scale(0.1 -0.1)">
       <use xlink:href="#ArialMT-33"/>
       <use x="55.615234" xlink:href="#ArialMT-30"/>
      </g>
     </g>
    </g>
    <g id="ytick_17">
     <g id="line2d_32">
      <g>
       <use style="fill:#262626;stroke:#262626;" x="90" xlink:href="#mf26dc63f75" y="336.24"/>
      </g>
     </g>
     <g id="text_31">
      <!-- 35 -->
      <g style="fill:#262626;" transform="translate(65.878125 339.818906)scale(0.1 -0.1)">
       <use xlink:href="#ArialMT-33"/>
       <use x="55.615234" xlink:href="#ArialMT-35"/>
      </g>
     </g>
    </g>
    <g id="ytick_18">
     <g id="line2d_33">
      <g>
       <use style="fill:#262626;stroke:#262626;" x="90" xlink:href="#mf26dc63f75" y="311.04"/>
      </g>
     </g>
     <g id="text_32">
      <!-- 40 -->
      <g style="fill:#262626;" transform="translate(65.878125 314.618906)scale(0.1 -0.1)">
       <use xlink:href="#ArialMT-34"/>
       <use x="55.615234" xlink:href="#ArialMT-30"/>
      </g>
     </g>
    </g>
   </g>
   <g id="line2d_34">
    <path clip-path="url(#pbb511671d2)" d="M 90 488.562059 
L 95.636364 492.871917 
L 101.272727 491.915277 
L 106.909091 490.291312 
L 112.545455 492.192009 
L 118.181818 490.692663 
L 123.818182 490.203121 
L 129.454545 491.968658 
L 135.090909 490.163889 
L 140.727273 490.392837 
L 146.363636 490.241829 
L 152 489.156296 
L 157.636364 490.240305 
L 163.272727 490.645166 
L 168.909091 488.187222 
L 174.545455 488.633986 
L 180.181818 487.313077 
L 185.818182 487.018973 
L 191.454545 487.338343 
L 197.090909 486.121391 
L 202.727273 487.201243 
L 208.363636 484.042031 
L 214 483.157918 
L 219.636364 483.169266 
L 225.272727 482.846357 
L 230.909091 480.992047 
L 236.545455 479.145187 
L 242.181818 476.443916 
L 247.818182 475.314111 
L 253.454545 475.654125 
L 259.090909 473.305387 
L 264.727273 469.316541 
L 270.363636 463.226508 
L 276 459.185057 
L 281.636364 457.614718 
L 287.272727 454.794335 
L 292.909091 445.504843 
L 298.545455 423.732573 
L 304.181818 397.596726 
L 309.818182 374.961344 
L 315.454545 359.936381 
L 321.090909 350.604229 
L 326.727273 348.320806 
L 332.363636 355.280194 
L 338 371.866917 
L 343.636364 395.340341 
L 349.272727 419.997954 
L 354.909091 443.187999 
L 360.545455 460.277658 
L 366.181818 467.98198 
L 371.818182 471.852273 
L 377.454545 475.259843 
L 383.090909 478.489151 
L 388.727273 479.074231 
L 394.363636 476.894748 
L 400 474.552455 
L 405.636364 471.950812 
L 411.272727 468.681632 
L 416.909091 461.027911 
L 422.545455 441.166731 
L 428.181818 416.729328 
L 433.818182 392.840566 
L 439.454545 373.276917 
L 445.090909 358.526684 
L 450.727273 350.201791 
L 456.363636 350.555151 
L 462 360.822412 
L 467.636364 379.751599 
L 473.272727 402.879459 
L 478.909091 427.733924 
L 484.545455 450.40347 
L 490.181818 458.450826 
L 495.818182 461.938755 
L 501.454545 465.043265 
L 507.090909 468.053386 
L 512.727273 473.465468 
L 518.363636 478.295793 
L 524 480.590013 
L 529.636364 481.097259 
L 535.272727 482.252942 
L 540.909091 484.406434 
L 546.545455 486.952771 
L 552.181818 488.643123 
" style="fill:none;stroke:#b22222;stroke-linecap:round;stroke-width:1.75;"/>
   </g>
   <g id="patch_6">
    <path d="M 90 512.64 
L 90 311.04 
" style="fill:none;stroke:#262626;stroke-linecap:square;stroke-linejoin:miter;stroke-width:1.25;"/>
   </g>
   <g id="patch_7">
    <path d="M 90 512.64 
L 648 512.64 
" style="fill:none;stroke:#262626;stroke-linecap:square;stroke-linejoin:miter;stroke-width:1.25;"/>
   </g>
   <g id="text_33">
    <!-- f = 840 Hz -->
    <defs>
     <path d="M 8.6875 0 
L 8.6875 45.015625 
L 0.921875 45.015625 
L 0.921875 51.859375 
L 8.6875 51.859375 
L 8.6875 57.375 
Q 8.6875 62.59375 9.625 65.140625 
Q 10.890625 68.5625 14.078125 70.671875 
Q 17.28125 72.796875 23.046875 72.796875 
Q 26.765625 72.796875 31.25 71.921875 
L 29.9375 64.265625 
Q 27.203125 64.75 24.75 64.75 
Q 20.75 64.75 19.09375 63.03125 
Q 17.4375 61.328125 17.4375 56.640625 
L 17.4375 51.859375 
L 27.546875 51.859375 
L 27.546875 45.015625 
L 17.4375 45.015625 
L 17.4375 0 
z
" id="ArialMT-66"/>
     <path id="ArialMT-20"/>
     <path d="M 52.828125 42.09375 
L 5.5625 42.09375 
L 5.5625 50.296875 
L 52.828125 50.296875 
z
M 52.828125 20.359375 
L 5.5625 20.359375 
L 5.5625 28.5625 
L 52.828125 28.5625 
z
" id="ArialMT-3d"/>
     <path d="M 8.015625 0 
L 8.015625 71.578125 
L 17.484375 71.578125 
L 17.484375 42.1875 
L 54.6875 42.1875 
L 54.6875 71.578125 
L 64.15625 71.578125 
L 64.15625 0 
L 54.6875 0 
L 54.6875 33.734375 
L 17.484375 33.734375 
L 17.484375 0 
z
" id="ArialMT-48"/>
     <path d="M 1.953125 0 
L 1.953125 7.125 
L 34.96875 45.015625 
Q 29.34375 44.734375 25.046875 44.734375 
L 3.90625 44.734375 
L 3.90625 51.859375 
L 46.296875 51.859375 
L 46.296875 46.046875 
L 18.21875 13.140625 
L 12.796875 7.125 
Q 18.703125 7.5625 23.875 7.5625 
L 47.859375 7.5625 
L 47.859375 0 
z
" id="ArialMT-7a"/>
    </defs>
    <g style="fill:#262626;" transform="translate(529.636364 364.542187)scale(0.12 -0.12)">
     <use xlink:href="#ArialMT-66"/>
     <use x="27.783203" xlink:href="#ArialMT-20"/>
     <use x="55.566406" xlink:href="#ArialMT-3d"/>
     <use x="113.964844" xlink:href="#ArialMT-20"/>
     <use x="141.748047" xlink:href="#ArialMT-38"/>
     <use x="197.363281" xlink:href="#ArialMT-34"/>
     <use x="252.978516" xlink:href="#ArialMT-30"/>
     <use x="308.59375" xlink:href="#ArialMT-20"/>
     <use x="336.376953" xlink:href="#ArialMT-48"/>
     <use x="408.59375" xlink:href="#ArialMT-7a"/>
    </g>
   </g>
   <g id="PathCollection_1">
    <defs>
     <path d="M 0 3.5 
C 0.928211 3.5 1.81853 3.131218 2.474874 2.474874 
C 3.131218 1.81853 3.5 0.928211 3.5 0 
C 3.5 -0.928211 3.131218 -1.81853 2.474874 -2.474874 
C 1.81853 -3.131218 0.928211 -3.5 0 -3.5 
C -0.928211 -3.5 -1.81853 -3.131218 -2.474874 -2.474874 
C -3.131218 -1.81853 -3.5 -0.928211 -3.5 0 
C -3.5 0.928211 -3.131218 1.81853 -2.474874 2.474874 
C -1.81853 3.131218 -0.928211 3.5 0 3.5 
z
" id="mf601a9e0c6" style="stroke:#800000;stroke-width:0.3;"/>
    </defs>
    <g clip-path="url(#pbb511671d2)">
     <use style="fill:#800000;stroke:#800000;stroke-width:0.3;" x="552.181818" xlink:href="#mf601a9e0c6" y="488.643123"/>
    </g>
   </g>
  </g>
 </g>
 <defs>
  <clipPath id="pa156820f73">
   <rect height="201.6" width="558" x="90" y="69.12"/>
  </clipPath>
  <clipPath id="pbb511671d2">
   <rect height="201.6" width="558" x="90" y="311.04"/>
  </clipPath>
 </defs>
</svg>
