<?xml version="1.0" encoding="utf-8" standalone="no"?>
<!DOCTYPE svg PUBLIC "-//W3C//DTD SVG 1.1//EN"
  "http://www.w3.org/Graphics/SVG/1.1/DTD/svg11.dtd">
<!-- Created with matplotlib (http://matplotlib.org/) -->
<svg height="576pt" version="1.1" viewBox="0 0 720 576" width="720pt" xmlns="http://www.w3.org/2000/svg" xmlns:xlink="http://www.w3.org/1999/xlink">
 <defs>
  <style type="text/css">
*{stroke-linecap:butt;stroke-linejoin:round;}
  </style>
 </defs>
 <g id="figure_1">
  <g id="patch_1">
   <path d="M 0 576 
L 720 576 
L 720 0 
L 0 0 
z
" style="fill:#ffffff;"/>
  </g>
  <g id="axes_1">
   <g id="patch_2">
    <path d="M 90 270.72 
L 648 270.72 
L 648 69.12 
L 90 69.12 
z
" style="fill:#ffffff;"/>
   </g>
   <g id="matplotlib.axis_1">
    <g id="xtick_1">
     <g id="line2d_1">
      <defs>
       <path d="M 0 0 
L 0 6 
" id="m914076b275" style="stroke:#262626;"/>
      </defs>
      <g>
       <use style="fill:#262626;stroke:#262626;" x="90" xlink:href="#m914076b275" y="270.72"/>
      </g>
     </g>
     <g id="text_1">
      <!-- 0 -->
      <defs>
       <path d="M 4.15625 35.296875 
Q 4.15625 48 6.765625 55.734375 
Q 9.375 63.484375 14.515625 67.671875 
Q 19.671875 71.875 27.484375 71.875 
Q 33.25 71.875 37.59375 69.546875 
Q 41.9375 67.234375 44.765625 62.859375 
Q 47.609375 58.5 49.21875 52.21875 
Q 50.828125 45.953125 50.828125 35.296875 
Q 50.828125 22.703125 48.234375 14.96875 
Q 45.65625 7.234375 40.5 3 
Q 35.359375 -1.21875 27.484375 -1.21875 
Q 17.140625 -1.21875 11.234375 6.203125 
Q 4.15625 15.140625 4.15625 35.296875 
z
M 13.1875 35.296875 
Q 13.1875 17.671875 17.3125 11.828125 
Q 21.4375 6 27.484375 6 
Q 33.546875 6 37.671875 11.859375 
Q 41.796875 17.71875 41.796875 35.296875 
Q 41.796875 52.984375 37.671875 58.78125 
Q 33.546875 64.59375 27.390625 64.59375 
Q 21.34375 64.59375 17.71875 59.46875 
Q 13.1875 52.9375 13.1875 35.296875 
z
" id="ArialMT-30"/>
      </defs>
      <g style="fill:#262626;" transform="translate(87.219531 290.877812)scale(0.1 -0.1)">
       <use xlink:href="#ArialMT-30"/>
      </g>
     </g>
    </g>
    <g id="xtick_2">
     <g id="line2d_2">
      <g>
       <use style="fill:#262626;stroke:#262626;" x="159.75" xlink:href="#m914076b275" y="270.72"/>
      </g>
     </g>
     <g id="text_2">
      <!-- 100 -->
      <defs>
       <path d="M 37.25 0 
L 28.46875 0 
L 28.46875 56 
Q 25.296875 52.984375 20.140625 49.953125 
Q 14.984375 46.921875 10.890625 45.40625 
L 10.890625 53.90625 
Q 18.265625 57.375 23.78125 62.296875 
Q 29.296875 67.234375 31.59375 71.875 
L 37.25 71.875 
z
" id="ArialMT-31"/>
      </defs>
      <g style="fill:#262626;" transform="translate(151.408594 290.877812)scale(0.1 -0.1)">
       <use xlink:href="#ArialMT-31"/>
       <use x="55.615234" xlink:href="#ArialMT-30"/>
       <use x="111.230469" xlink:href="#ArialMT-30"/>
      </g>
     </g>
    </g>
    <g id="xtick_3">
     <g id="line2d_3">
      <g>
       <use style="fill:#262626;stroke:#262626;" x="229.5" xlink:href="#m914076b275" y="270.72"/>
      </g>
     </g>
     <g id="text_3">
      <!-- 200 -->
      <defs>
       <path d="M 50.34375 8.453125 
L 50.34375 0 
L 3.03125 0 
Q 2.9375 3.171875 4.046875 6.109375 
Q 5.859375 10.9375 9.828125 15.625 
Q 13.8125 20.3125 21.34375 26.46875 
Q 33.015625 36.03125 37.109375 41.625 
Q 41.21875 47.21875 41.21875 52.203125 
Q 41.21875 57.421875 37.46875 61 
Q 33.734375 64.59375 27.734375 64.59375 
Q 21.390625 64.59375 17.578125 60.78125 
Q 13.765625 56.984375 13.71875 50.25 
L 4.6875 51.171875 
Q 5.609375 61.28125 11.65625 66.578125 
Q 17.71875 71.875 27.9375 71.875 
Q 38.234375 71.875 44.234375 66.15625 
Q 50.25 60.453125 50.25 52 
Q 50.25 47.703125 48.484375 43.546875 
Q 46.734375 39.40625 42.65625 34.8125 
Q 38.578125 30.21875 29.109375 22.21875 
Q 21.1875 15.578125 18.9375 13.203125 
Q 16.703125 10.84375 15.234375 8.453125 
z
" id="ArialMT-32"/>
      </defs>
      <g style="fill:#262626;" transform="translate(221.158594 290.877812)scale(0.1 -0.1)">
       <use xlink:href="#ArialMT-32"/>
       <use x="55.615234" xlink:href="#ArialMT-30"/>
       <use x="111.230469" xlink:href="#ArialMT-30"/>
      </g>
     </g>
    </g>
    <g id="xtick_4">
     <g id="line2d_4">
      <g>
       <use style="fill:#262626;stroke:#262626;" x="299.25" xlink:href="#m914076b275" y="270.72"/>
      </g>
     </g>
     <g id="text_4">
      <!-- 300 -->
      <defs>
       <path d="M 4.203125 18.890625 
L 12.984375 20.0625 
Q 14.5 12.59375 18.140625 9.296875 
Q 21.78125 6 27 6 
Q 33.203125 6 37.46875 10.296875 
Q 41.75 14.59375 41.75 20.953125 
Q 41.75 27 37.796875 30.921875 
Q 33.84375 34.859375 27.734375 34.859375 
Q 25.25 34.859375 21.53125 33.890625 
L 22.515625 41.609375 
Q 23.390625 41.5 23.921875 41.5 
Q 29.546875 41.5 34.03125 44.421875 
Q 38.53125 47.359375 38.53125 53.46875 
Q 38.53125 58.296875 35.25 61.46875 
Q 31.984375 64.65625 26.8125 64.65625 
Q 21.6875 64.65625 18.265625 61.421875 
Q 14.84375 58.203125 13.875 51.765625 
L 5.078125 53.328125 
Q 6.6875 62.15625 12.390625 67.015625 
Q 18.109375 71.875 26.609375 71.875 
Q 32.46875 71.875 37.390625 69.359375 
Q 42.328125 66.84375 44.9375 62.5 
Q 47.5625 58.15625 47.5625 53.265625 
Q 47.5625 48.640625 45.0625 44.828125 
Q 42.578125 41.015625 37.703125 38.765625 
Q 44.046875 37.3125 47.5625 32.6875 
Q 51.078125 28.078125 51.078125 21.140625 
Q 51.078125 11.765625 44.234375 5.25 
Q 37.40625 -1.265625 26.953125 -1.265625 
Q 17.53125 -1.265625 11.296875 4.34375 
Q 5.078125 9.96875 4.203125 18.890625 
z
" id="ArialMT-33"/>
      </defs>
      <g style="fill:#262626;" transform="translate(290.908594 290.877812)scale(0.1 -0.1)">
       <use xlink:href="#ArialMT-33"/>
       <use x="55.615234" xlink:href="#ArialMT-30"/>
       <use x="111.230469" xlink:href="#ArialMT-30"/>
      </g>
     </g>
    </g>
    <g id="xtick_5">
     <g id="line2d_5">
      <g>
       <use style="fill:#262626;stroke:#262626;" x="369" xlink:href="#m914076b275" y="270.72"/>
      </g>
     </g>
     <g id="text_5">
      <!-- 400 -->
      <defs>
       <path d="M 32.328125 0 
L 32.328125 17.140625 
L 1.265625 17.140625 
L 1.265625 25.203125 
L 33.9375 71.578125 
L 41.109375 71.578125 
L 41.109375 25.203125 
L 50.78125 25.203125 
L 50.78125 17.140625 
L 41.109375 17.140625 
L 41.109375 0 
z
M 32.328125 25.203125 
L 32.328125 57.46875 
L 9.90625 25.203125 
z
" id="ArialMT-34"/>
      </defs>
      <g style="fill:#262626;" transform="translate(360.658594 290.877812)scale(0.1 -0.1)">
       <use xlink:href="#ArialMT-34"/>
       <use x="55.615234" xlink:href="#ArialMT-30"/>
       <use x="111.230469" xlink:href="#ArialMT-30"/>
      </g>
     </g>
    </g>
    <g id="xtick_6">
     <g id="line2d_6">
      <g>
       <use style="fill:#262626;stroke:#262626;" x="438.75" xlink:href="#m914076b275" y="270.72"/>
      </g>
     </g>
     <g id="text_6">
      <!-- 500 -->
      <defs>
       <path d="M 4.15625 18.75 
L 13.375 19.53125 
Q 14.40625 12.796875 18.140625 9.390625 
Q 21.875 6 27.15625 6 
Q 33.5 6 37.890625 10.78125 
Q 42.28125 15.578125 42.28125 23.484375 
Q 42.28125 31 38.0625 35.34375 
Q 33.84375 39.703125 27 39.703125 
Q 22.75 39.703125 19.328125 37.765625 
Q 15.921875 35.84375 13.96875 32.765625 
L 5.71875 33.84375 
L 12.640625 70.609375 
L 48.25 70.609375 
L 48.25 62.203125 
L 19.671875 62.203125 
L 15.828125 42.96875 
Q 22.265625 47.46875 29.34375 47.46875 
Q 38.71875 47.46875 45.15625 40.96875 
Q 51.609375 34.46875 51.609375 24.265625 
Q 51.609375 14.546875 45.953125 7.46875 
Q 39.0625 -1.21875 27.15625 -1.21875 
Q 17.390625 -1.21875 11.203125 4.25 
Q 5.03125 9.71875 4.15625 18.75 
z
" id="ArialMT-35"/>
      </defs>
      <g style="fill:#262626;" transform="translate(430.408594 290.877812)scale(0.1 -0.1)">
       <use xlink:href="#ArialMT-35"/>
       <use x="55.615234" xlink:href="#ArialMT-30"/>
       <use x="111.230469" xlink:href="#ArialMT-30"/>
      </g>
     </g>
    </g>
    <g id="xtick_7">
     <g id="line2d_7">
      <g>
       <use style="fill:#262626;stroke:#262626;" x="508.5" xlink:href="#m914076b275" y="270.72"/>
      </g>
     </g>
     <g id="text_7">
      <!-- 600 -->
      <defs>
       <path d="M 49.75 54.046875 
L 41.015625 53.375 
Q 39.84375 58.546875 37.703125 60.890625 
Q 34.125 64.65625 28.90625 64.65625 
Q 24.703125 64.65625 21.53125 62.3125 
Q 17.390625 59.28125 14.984375 53.46875 
Q 12.59375 47.65625 12.5 36.921875 
Q 15.671875 41.75 20.265625 44.09375 
Q 24.859375 46.4375 29.890625 46.4375 
Q 38.671875 46.4375 44.84375 39.96875 
Q 51.03125 33.5 51.03125 23.25 
Q 51.03125 16.5 48.125 10.71875 
Q 45.21875 4.9375 40.140625 1.859375 
Q 35.0625 -1.21875 28.609375 -1.21875 
Q 17.625 -1.21875 10.6875 6.859375 
Q 3.765625 14.9375 3.765625 33.5 
Q 3.765625 54.25 11.421875 63.671875 
Q 18.109375 71.875 29.4375 71.875 
Q 37.890625 71.875 43.28125 67.140625 
Q 48.6875 62.40625 49.75 54.046875 
z
M 13.875 23.1875 
Q 13.875 18.65625 15.796875 14.5 
Q 17.71875 10.359375 21.1875 8.171875 
Q 24.65625 6 28.46875 6 
Q 34.03125 6 38.03125 10.484375 
Q 42.046875 14.984375 42.046875 22.703125 
Q 42.046875 30.125 38.078125 34.390625 
Q 34.125 38.671875 28.125 38.671875 
Q 22.171875 38.671875 18.015625 34.390625 
Q 13.875 30.125 13.875 23.1875 
z
" id="ArialMT-36"/>
      </defs>
      <g style="fill:#262626;" transform="translate(500.158594 290.877812)scale(0.1 -0.1)">
       <use xlink:href="#ArialMT-36"/>
       <use x="55.615234" xlink:href="#ArialMT-30"/>
       <use x="111.230469" xlink:href="#ArialMT-30"/>
      </g>
     </g>
    </g>
    <g id="xtick_8">
     <g id="line2d_8">
      <g>
       <use style="fill:#262626;stroke:#262626;" x="578.25" xlink:href="#m914076b275" y="270.72"/>
      </g>
     </g>
     <g id="text_8">
      <!-- 700 -->
      <defs>
       <path d="M 4.734375 62.203125 
L 4.734375 70.65625 
L 51.078125 70.65625 
L 51.078125 63.8125 
Q 44.234375 56.546875 37.515625 44.484375 
Q 30.8125 32.421875 27.15625 19.671875 
Q 24.515625 10.6875 23.78125 0 
L 14.75 0 
Q 14.890625 8.453125 18.0625 20.40625 
Q 21.234375 32.375 27.171875 43.484375 
Q 33.109375 54.59375 39.796875 62.203125 
z
" id="ArialMT-37"/>
      </defs>
      <g style="fill:#262626;" transform="translate(569.908594 290.877812)scale(0.1 -0.1)">
       <use xlink:href="#ArialMT-37"/>
       <use x="55.615234" xlink:href="#ArialMT-30"/>
       <use x="111.230469" xlink:href="#ArialMT-30"/>
      </g>
     </g>
    </g>
    <g id="xtick_9">
     <g id="line2d_9">
      <g>
       <use style="fill:#262626;stroke:#262626;" x="648" xlink:href="#m914076b275" y="270.72"/>
      </g>
     </g>
     <g id="text_9">
      <!-- 800 -->
      <defs>
       <path d="M 17.671875 38.8125 
Q 12.203125 40.828125 9.5625 44.53125 
Q 6.9375 48.25 6.9375 53.421875 
Q 6.9375 61.234375 12.546875 66.546875 
Q 18.171875 71.875 27.484375 71.875 
Q 36.859375 71.875 42.578125 66.421875 
Q 48.296875 60.984375 48.296875 53.171875 
Q 48.296875 48.1875 45.671875 44.5 
Q 43.0625 40.828125 37.75 38.8125 
Q 44.34375 36.671875 47.78125 31.875 
Q 51.21875 27.09375 51.21875 20.453125 
Q 51.21875 11.28125 44.71875 5.03125 
Q 38.234375 -1.21875 27.640625 -1.21875 
Q 17.046875 -1.21875 10.546875 5.046875 
Q 4.046875 11.328125 4.046875 20.703125 
Q 4.046875 27.6875 7.59375 32.390625 
Q 11.140625 37.109375 17.671875 38.8125 
z
M 15.921875 53.71875 
Q 15.921875 48.640625 19.1875 45.40625 
Q 22.46875 42.1875 27.6875 42.1875 
Q 32.765625 42.1875 36.015625 45.375 
Q 39.265625 48.578125 39.265625 53.21875 
Q 39.265625 58.0625 35.90625 61.359375 
Q 32.5625 64.65625 27.59375 64.65625 
Q 22.5625 64.65625 19.234375 61.421875 
Q 15.921875 58.203125 15.921875 53.71875 
z
M 13.09375 20.65625 
Q 13.09375 16.890625 14.875 13.375 
Q 16.65625 9.859375 20.171875 7.921875 
Q 23.6875 6 27.734375 6 
Q 34.03125 6 38.125 10.046875 
Q 42.234375 14.109375 42.234375 20.359375 
Q 42.234375 26.703125 38.015625 30.859375 
Q 33.796875 35.015625 27.4375 35.015625 
Q 21.234375 35.015625 17.15625 30.90625 
Q 13.09375 26.8125 13.09375 20.65625 
z
" id="ArialMT-38"/>
      </defs>
      <g style="fill:#262626;" transform="translate(639.658594 290.877812)scale(0.1 -0.1)">
       <use xlink:href="#ArialMT-38"/>
       <use x="55.615234" xlink:href="#ArialMT-30"/>
       <use x="111.230469" xlink:href="#ArialMT-30"/>
      </g>
     </g>
    </g>
   </g>
   <g id="matplotlib.axis_2">
    <g id="ytick_1">
     <g id="line2d_10">
      <defs>
       <path d="M 0 0 
L -6 0 
" id="m8da0288fb3" style="stroke:#262626;"/>
      </defs>
      <g>
       <use style="fill:#262626;stroke:#262626;" x="90" xlink:href="#m8da0288fb3" y="270.72"/>
      </g>
     </g>
     <g id="text_10">
      <!-- −0.20 -->
      <defs>
       <path d="M 52.828125 31.203125 
L 5.5625 31.203125 
L 5.5625 39.40625 
L 52.828125 39.40625 
z
" id="ArialMT-2212"/>
       <path d="M 9.078125 0 
L 9.078125 10.015625 
L 19.09375 10.015625 
L 19.09375 0 
z
" id="ArialMT-2e"/>
      </defs>
      <g style="fill:#262626;" transform="translate(51.698437 274.298906)scale(0.1 -0.1)">
       <use xlink:href="#ArialMT-2212"/>
       <use x="58.398438" xlink:href="#ArialMT-30"/>
       <use x="114.013672" xlink:href="#ArialMT-2e"/>
       <use x="141.796875" xlink:href="#ArialMT-32"/>
       <use x="197.412109" xlink:href="#ArialMT-30"/>
      </g>
     </g>
    </g>
    <g id="ytick_2">
     <g id="line2d_11">
      <g>
       <use style="fill:#262626;stroke:#262626;" x="90" xlink:href="#m8da0288fb3" y="245.52"/>
      </g>
     </g>
     <g id="text_11">
      <!-- −0.15 -->
      <g style="fill:#262626;" transform="translate(51.698437 249.098906)scale(0.1 -0.1)">
       <use xlink:href="#ArialMT-2212"/>
       <use x="58.398438" xlink:href="#ArialMT-30"/>
       <use x="114.013672" xlink:href="#ArialMT-2e"/>
       <use x="141.796875" xlink:href="#ArialMT-31"/>
       <use x="197.412109" xlink:href="#ArialMT-35"/>
      </g>
     </g>
    </g>
    <g id="ytick_3">
     <g id="line2d_12">
      <g>
       <use style="fill:#262626;stroke:#262626;" x="90" xlink:href="#m8da0288fb3" y="220.32"/>
      </g>
     </g>
     <g id="text_12">
      <!-- −0.10 -->
      <g style="fill:#262626;" transform="translate(51.698437 223.898906)scale(0.1 -0.1)">
       <use xlink:href="#ArialMT-2212"/>
       <use x="58.398438" xlink:href="#ArialMT-30"/>
       <use x="114.013672" xlink:href="#ArialMT-2e"/>
       <use x="141.796875" xlink:href="#ArialMT-31"/>
       <use x="197.412109" xlink:href="#ArialMT-30"/>
      </g>
     </g>
    </g>
    <g id="ytick_4">
     <g id="line2d_13">
      <g>
       <use style="fill:#262626;stroke:#262626;" x="90" xlink:href="#m8da0288fb3" y="195.12"/>
      </g>
     </g>
     <g id="text_13">
      <!-- −0.05 -->
      <g style="fill:#262626;" transform="translate(51.698437 198.698906)scale(0.1 -0.1)">
       <use xlink:href="#ArialMT-2212"/>
       <use x="58.398438" xlink:href="#ArialMT-30"/>
       <use x="114.013672" xlink:href="#ArialMT-2e"/>
       <use x="141.796875" xlink:href="#ArialMT-30"/>
       <use x="197.412109" xlink:href="#ArialMT-35"/>
      </g>
     </g>
    </g>
    <g id="ytick_5">
     <g id="line2d_14">
      <g>
       <use style="fill:#262626;stroke:#262626;" x="90" xlink:href="#m8da0288fb3" y="169.92"/>
      </g>
     </g>
     <g id="text_14">
      <!-- 0.00 -->
      <g style="fill:#262626;" transform="translate(57.539062 173.498906)scale(0.1 -0.1)">
       <use xlink:href="#ArialMT-30"/>
       <use x="55.615234" xlink:href="#ArialMT-2e"/>
       <use x="83.398438" xlink:href="#ArialMT-30"/>
       <use x="139.013672" xlink:href="#ArialMT-30"/>
      </g>
     </g>
    </g>
    <g id="ytick_6">
     <g id="line2d_15">
      <g>
       <use style="fill:#262626;stroke:#262626;" x="90" xlink:href="#m8da0288fb3" y="144.72"/>
      </g>
     </g>
     <g id="text_15">
      <!-- 0.05 -->
      <g style="fill:#262626;" transform="translate(57.539062 148.298906)scale(0.1 -0.1)">
       <use xlink:href="#ArialMT-30"/>
       <use x="55.615234" xlink:href="#ArialMT-2e"/>
       <use x="83.398438" xlink:href="#ArialMT-30"/>
       <use x="139.013672" xlink:href="#ArialMT-35"/>
      </g>
     </g>
    </g>
    <g id="ytick_7">
     <g id="line2d_16">
      <g>
       <use style="fill:#262626;stroke:#262626;" x="90" xlink:href="#m8da0288fb3" y="119.52"/>
      </g>
     </g>
     <g id="text_16">
      <!-- 0.10 -->
      <g style="fill:#262626;" transform="translate(57.539062 123.098906)scale(0.1 -0.1)">
       <use xlink:href="#ArialMT-30"/>
       <use x="55.615234" xlink:href="#ArialMT-2e"/>
       <use x="83.398438" xlink:href="#ArialMT-31"/>
       <use x="139.013672" xlink:href="#ArialMT-30"/>
      </g>
     </g>
    </g>
    <g id="ytick_8">
     <g id="line2d_17">
      <g>
       <use style="fill:#262626;stroke:#262626;" x="90" xlink:href="#m8da0288fb3" y="94.32"/>
      </g>
     </g>
     <g id="text_17">
      <!-- 0.15 -->
      <g style="fill:#262626;" transform="translate(57.539062 97.898906)scale(0.1 -0.1)">
       <use xlink:href="#ArialMT-30"/>
       <use x="55.615234" xlink:href="#ArialMT-2e"/>
       <use x="83.398438" xlink:href="#ArialMT-31"/>
       <use x="139.013672" xlink:href="#ArialMT-35"/>
      </g>
     </g>
    </g>
    <g id="ytick_9">
     <g id="line2d_18">
      <g>
       <use style="fill:#262626;stroke:#262626;" x="90" xlink:href="#m8da0288fb3" y="69.12"/>
      </g>
     </g>
     <g id="text_18">
      <!-- 0.20 -->
      <g style="fill:#262626;" transform="translate(57.539062 72.698906)scale(0.1 -0.1)">
       <use xlink:href="#ArialMT-30"/>
       <use x="55.615234" xlink:href="#ArialMT-2e"/>
       <use x="83.398438" xlink:href="#ArialMT-32"/>
       <use x="139.013672" xlink:href="#ArialMT-30"/>
      </g>
     </g>
    </g>
   </g>
   <g id="PolyCollection_1">
    <path clip-path="url(#pcc238d0dde)" d="M 90 151.313982 
L 90 169.92 
L 90.6975 169.92 
L 91.395 169.92 
L 92.0925 169.92 
L 92.79 169.92 
L 93.4875 169.92 
L 94.185 169.92 
L 94.8825 169.92 
L 95.58 169.92 
L 96.2775 169.92 
L 96.975 169.92 
L 97.6725 169.92 
L 98.37 169.92 
L 99.0675 169.92 
L 99.765 169.92 
L 100.4625 169.92 
L 101.16 169.92 
L 101.8575 169.92 
L 102.555 169.92 
L 103.2525 169.92 
L 103.95 169.92 
L 104.6475 169.92 
L 105.345 169.92 
L 106.0425 169.92 
L 106.74 169.92 
L 107.4375 169.92 
L 108.135 169.92 
L 108.8325 169.92 
L 109.53 169.92 
L 110.2275 169.92 
L 110.925 169.92 
L 111.6225 169.92 
L 112.32 169.92 
L 113.0175 169.92 
L 113.715 169.92 
L 114.4125 169.92 
L 115.11 169.92 
L 115.8075 169.92 
L 116.505 169.92 
L 117.2025 169.92 
L 117.9 169.92 
L 118.5975 169.92 
L 119.295 169.92 
L 119.9925 169.92 
L 120.69 169.92 
L 121.3875 169.92 
L 122.085 169.92 
L 122.7825 169.92 
L 123.48 169.92 
L 124.1775 169.92 
L 124.875 169.92 
L 125.5725 169.92 
L 126.27 169.92 
L 126.9675 169.92 
L 127.665 169.92 
L 128.3625 169.92 
L 129.06 169.92 
L 129.7575 169.92 
L 130.455 169.92 
L 131.1525 169.92 
L 131.85 169.92 
L 132.5475 169.92 
L 133.245 169.92 
L 133.9425 169.92 
L 134.64 169.92 
L 135.3375 169.92 
L 136.035 169.92 
L 136.7325 169.92 
L 137.43 169.92 
L 138.1275 169.92 
L 138.825 169.92 
L 139.5225 169.92 
L 140.22 169.92 
L 140.9175 169.92 
L 141.615 169.92 
L 142.3125 169.92 
L 143.01 169.92 
L 143.7075 169.92 
L 144.405 169.92 
L 145.1025 169.92 
L 145.8 169.92 
L 146.4975 169.92 
L 147.195 169.92 
L 147.8925 169.92 
L 148.59 169.92 
L 149.2875 169.92 
L 149.985 169.92 
L 150.6825 169.92 
L 151.38 169.92 
L 152.0775 169.92 
L 152.775 169.92 
L 153.4725 169.92 
L 154.17 169.92 
L 154.8675 169.92 
L 155.565 169.92 
L 156.2625 169.92 
L 156.96 169.92 
L 157.6575 169.92 
L 158.355 169.92 
L 159.0525 169.92 
L 159.75 169.92 
L 160.4475 169.92 
L 161.145 169.92 
L 161.8425 169.92 
L 162.54 169.92 
L 163.2375 169.92 
L 163.935 169.92 
L 164.6325 169.92 
L 165.33 169.92 
L 166.0275 169.92 
L 166.725 169.92 
L 167.4225 169.92 
L 168.12 169.92 
L 168.8175 169.92 
L 169.515 169.92 
L 170.2125 169.92 
L 170.91 169.92 
L 171.6075 169.92 
L 172.305 169.92 
L 173.0025 169.92 
L 173.7 169.92 
L 174.3975 169.92 
L 175.095 169.92 
L 175.7925 169.92 
L 176.49 169.92 
L 177.1875 169.92 
L 177.885 169.92 
L 178.5825 169.92 
L 179.28 169.92 
L 179.9775 169.92 
L 180.675 169.92 
L 181.3725 169.92 
L 182.07 169.92 
L 182.7675 169.92 
L 183.465 169.92 
L 184.1625 169.92 
L 184.86 169.92 
L 185.5575 169.92 
L 186.255 169.92 
L 186.9525 169.92 
L 187.65 169.92 
L 188.3475 169.92 
L 189.045 169.92 
L 189.7425 169.92 
L 190.44 169.92 
L 191.1375 169.92 
L 191.835 169.92 
L 192.5325 169.92 
L 193.23 169.92 
L 193.9275 169.92 
L 194.625 169.92 
L 195.3225 169.92 
L 196.02 169.92 
L 196.7175 169.92 
L 197.415 169.92 
L 198.1125 169.92 
L 198.81 169.92 
L 199.5075 169.92 
L 200.205 169.92 
L 200.9025 169.92 
L 201.6 169.92 
L 202.2975 169.92 
L 202.995 169.92 
L 203.6925 169.92 
L 204.39 169.92 
L 205.0875 169.92 
L 205.785 169.92 
L 206.4825 169.92 
L 207.18 169.92 
L 207.8775 169.92 
L 208.575 169.92 
L 209.2725 169.92 
L 209.97 169.92 
L 210.6675 169.92 
L 211.365 169.92 
L 212.0625 169.92 
L 212.76 169.92 
L 213.4575 169.92 
L 214.155 169.92 
L 214.8525 169.92 
L 215.55 169.92 
L 216.2475 169.92 
L 216.945 169.92 
L 217.6425 169.92 
L 218.34 169.92 
L 219.0375 169.92 
L 219.735 169.92 
L 220.4325 169.92 
L 221.13 169.92 
L 221.8275 169.92 
L 222.525 169.92 
L 223.2225 169.92 
L 223.92 169.92 
L 224.6175 169.92 
L 225.315 169.92 
L 226.0125 169.92 
L 226.71 169.92 
L 227.4075 169.92 
L 228.105 169.92 
L 228.8025 169.92 
L 229.5 169.92 
L 230.1975 169.92 
L 230.895 169.92 
L 231.5925 169.92 
L 232.29 169.92 
L 232.9875 169.92 
L 233.685 169.92 
L 234.3825 169.92 
L 235.08 169.92 
L 235.7775 169.92 
L 236.475 169.92 
L 237.1725 169.92 
L 237.87 169.92 
L 238.5675 169.92 
L 239.265 169.92 
L 239.9625 169.92 
L 240.66 169.92 
L 241.3575 169.92 
L 242.055 169.92 
L 242.7525 169.92 
L 243.45 169.92 
L 244.1475 169.92 
L 244.845 169.92 
L 245.5425 169.92 
L 246.24 169.92 
L 246.9375 169.92 
L 247.635 169.92 
L 248.3325 169.92 
L 249.03 169.92 
L 249.7275 169.92 
L 250.425 169.92 
L 251.1225 169.92 
L 251.82 169.92 
L 252.5175 169.92 
L 253.215 169.92 
L 253.9125 169.92 
L 254.61 169.92 
L 255.3075 169.92 
L 256.005 169.92 
L 256.7025 169.92 
L 257.4 169.92 
L 258.0975 169.92 
L 258.795 169.92 
L 259.4925 169.92 
L 260.19 169.92 
L 260.8875 169.92 
L 261.585 169.92 
L 262.2825 169.92 
L 262.98 169.92 
L 263.6775 169.92 
L 264.375 169.92 
L 265.0725 169.92 
L 265.77 169.92 
L 266.4675 169.92 
L 267.165 169.92 
L 267.8625 169.92 
L 268.56 169.92 
L 269.2575 169.92 
L 269.955 169.92 
L 270.6525 169.92 
L 271.35 169.92 
L 272.0475 169.92 
L 272.745 169.92 
L 273.4425 169.92 
L 274.14 169.92 
L 274.8375 169.92 
L 275.535 169.92 
L 276.2325 169.92 
L 276.93 169.92 
L 277.6275 169.92 
L 278.325 169.92 
L 279.0225 169.92 
L 279.72 169.92 
L 280.4175 169.92 
L 281.115 169.92 
L 281.8125 169.92 
L 282.51 169.92 
L 283.2075 169.92 
L 283.905 169.92 
L 284.6025 169.92 
L 285.3 169.92 
L 285.9975 169.92 
L 286.695 169.92 
L 287.3925 169.92 
L 288.09 169.92 
L 288.7875 169.92 
L 289.485 169.92 
L 290.1825 169.92 
L 290.88 169.92 
L 291.5775 169.92 
L 292.275 169.92 
L 292.9725 169.92 
L 293.67 169.92 
L 294.3675 169.92 
L 295.065 169.92 
L 295.7625 169.92 
L 296.46 169.92 
L 297.1575 169.92 
L 297.855 169.92 
L 298.5525 169.92 
L 299.25 169.92 
L 299.9475 169.92 
L 300.645 169.92 
L 301.3425 169.92 
L 302.04 169.92 
L 302.7375 169.92 
L 303.435 169.92 
L 304.1325 169.92 
L 304.83 169.92 
L 305.5275 169.92 
L 306.225 169.92 
L 306.9225 169.92 
L 307.62 169.92 
L 308.3175 169.92 
L 309.015 169.92 
L 309.7125 169.92 
L 310.41 169.92 
L 311.1075 169.92 
L 311.805 169.92 
L 312.5025 169.92 
L 313.2 169.92 
L 313.8975 169.92 
L 314.595 169.92 
L 315.2925 169.92 
L 315.99 169.92 
L 316.6875 169.92 
L 317.385 169.92 
L 318.0825 169.92 
L 318.78 169.92 
L 319.4775 169.92 
L 320.175 169.92 
L 320.8725 169.92 
L 321.57 169.92 
L 322.2675 169.92 
L 322.965 169.92 
L 323.6625 169.92 
L 324.36 169.92 
L 325.0575 169.92 
L 325.755 169.92 
L 326.4525 169.92 
L 327.15 169.92 
L 327.8475 169.92 
L 328.545 169.92 
L 329.2425 169.92 
L 329.94 169.92 
L 330.6375 169.92 
L 331.335 169.92 
L 332.0325 169.92 
L 332.73 169.92 
L 333.4275 169.92 
L 334.125 169.92 
L 334.8225 169.92 
L 335.52 169.92 
L 336.2175 169.92 
L 336.915 169.92 
L 337.6125 169.92 
L 338.31 169.92 
L 339.0075 169.92 
L 339.705 169.92 
L 340.4025 169.92 
L 341.1 169.92 
L 341.7975 169.92 
L 342.495 169.92 
L 343.1925 169.92 
L 343.89 169.92 
L 344.5875 169.92 
L 345.285 169.92 
L 345.9825 169.92 
L 346.68 169.92 
L 347.3775 169.92 
L 348.075 169.92 
L 348.7725 169.92 
L 349.47 169.92 
L 350.1675 169.92 
L 350.865 169.92 
L 351.5625 169.92 
L 352.26 169.92 
L 352.9575 169.92 
L 353.655 169.92 
L 354.3525 169.92 
L 355.05 169.92 
L 355.7475 169.92 
L 356.445 169.92 
L 357.1425 169.92 
L 357.84 169.92 
L 358.5375 169.92 
L 359.235 169.92 
L 359.9325 169.92 
L 360.63 169.92 
L 361.3275 169.92 
L 362.025 169.92 
L 362.7225 169.92 
L 363.42 169.92 
L 364.1175 169.92 
L 364.815 169.92 
L 365.5125 169.92 
L 366.21 169.92 
L 366.9075 169.92 
L 367.605 169.92 
L 368.3025 169.92 
L 369 169.92 
L 369.6975 169.92 
L 370.395 169.92 
L 371.0925 169.92 
L 371.79 169.92 
L 372.4875 169.92 
L 373.185 169.92 
L 373.8825 169.92 
L 374.58 169.92 
L 375.2775 169.92 
L 375.975 169.92 
L 376.6725 169.92 
L 377.37 169.92 
L 378.0675 169.92 
L 378.765 169.92 
L 379.4625 169.92 
L 380.16 169.92 
L 380.8575 169.92 
L 381.555 169.92 
L 382.2525 169.92 
L 382.95 169.92 
L 383.6475 169.92 
L 384.345 169.92 
L 385.0425 169.92 
L 385.74 169.92 
L 386.4375 169.92 
L 387.135 169.92 
L 387.8325 169.92 
L 388.53 169.92 
L 389.2275 169.92 
L 389.925 169.92 
L 390.6225 169.92 
L 391.32 169.92 
L 392.0175 169.92 
L 392.715 169.92 
L 393.4125 169.92 
L 394.11 169.92 
L 394.8075 169.92 
L 395.505 169.92 
L 396.2025 169.92 
L 396.9 169.92 
L 397.5975 169.92 
L 398.295 169.92 
L 398.9925 169.92 
L 399.69 169.92 
L 400.3875 169.92 
L 401.085 169.92 
L 401.7825 169.92 
L 402.48 169.92 
L 403.1775 169.92 
L 403.875 169.92 
L 404.5725 169.92 
L 405.27 169.92 
L 405.9675 169.92 
L 406.665 169.92 
L 407.3625 169.92 
L 408.06 169.92 
L 408.7575 169.92 
L 409.455 169.92 
L 410.1525 169.92 
L 410.85 169.92 
L 411.5475 169.92 
L 412.245 169.92 
L 412.9425 169.92 
L 413.64 169.92 
L 414.3375 169.92 
L 415.035 169.92 
L 415.7325 169.92 
L 416.43 169.92 
L 417.1275 169.92 
L 417.825 169.92 
L 418.5225 169.92 
L 419.22 169.92 
L 419.9175 169.92 
L 420.615 169.92 
L 421.3125 169.92 
L 422.01 169.92 
L 422.7075 169.92 
L 423.405 169.92 
L 424.1025 169.92 
L 424.8 169.92 
L 425.4975 169.92 
L 426.195 169.92 
L 426.8925 169.92 
L 427.59 169.92 
L 428.2875 169.92 
L 428.985 169.92 
L 429.6825 169.92 
L 430.38 169.92 
L 431.0775 169.92 
L 431.775 169.92 
L 432.4725 169.92 
L 433.17 169.92 
L 433.8675 169.92 
L 434.565 169.92 
L 435.2625 169.92 
L 435.96 169.92 
L 436.6575 169.92 
L 437.355 169.92 
L 438.0525 169.92 
L 438.75 169.92 
L 439.4475 169.92 
L 440.145 169.92 
L 440.8425 169.92 
L 441.54 169.92 
L 442.2375 169.92 
L 442.935 169.92 
L 443.6325 169.92 
L 444.33 169.92 
L 445.0275 169.92 
L 445.725 169.92 
L 446.4225 169.92 
L 447.12 169.92 
L 447.8175 169.92 
L 448.515 169.92 
L 449.2125 169.92 
L 449.91 169.92 
L 450.6075 169.92 
L 451.305 169.92 
L 452.0025 169.92 
L 452.7 169.92 
L 453.3975 169.92 
L 454.095 169.92 
L 454.7925 169.92 
L 455.49 169.92 
L 456.1875 169.92 
L 456.885 169.92 
L 457.5825 169.92 
L 458.28 169.92 
L 458.9775 169.92 
L 459.675 169.92 
L 460.3725 169.92 
L 461.07 169.92 
L 461.7675 169.92 
L 462.465 169.92 
L 463.1625 169.92 
L 463.86 169.92 
L 464.5575 169.92 
L 465.255 169.92 
L 465.9525 169.92 
L 466.65 169.92 
L 467.3475 169.92 
L 468.045 169.92 
L 468.7425 169.92 
L 469.44 169.92 
L 470.1375 169.92 
L 470.835 169.92 
L 471.5325 169.92 
L 472.23 169.92 
L 472.9275 169.92 
L 473.625 169.92 
L 474.3225 169.92 
L 475.02 169.92 
L 475.7175 169.92 
L 476.415 169.92 
L 477.1125 169.92 
L 477.81 169.92 
L 478.5075 169.92 
L 479.205 169.92 
L 479.9025 169.92 
L 480.6 169.92 
L 481.2975 169.92 
L 481.995 169.92 
L 482.6925 169.92 
L 483.39 169.92 
L 484.0875 169.92 
L 484.785 169.92 
L 485.4825 169.92 
L 486.18 169.92 
L 486.8775 169.92 
L 487.575 169.92 
L 488.2725 169.92 
L 488.97 169.92 
L 489.6675 169.92 
L 490.365 169.92 
L 491.0625 169.92 
L 491.76 169.92 
L 492.4575 169.92 
L 493.155 169.92 
L 493.8525 169.92 
L 494.55 169.92 
L 495.2475 169.92 
L 495.945 169.92 
L 496.6425 169.92 
L 497.34 169.92 
L 498.0375 169.92 
L 498.735 169.92 
L 499.4325 169.92 
L 500.13 169.92 
L 500.8275 169.92 
L 501.525 169.92 
L 502.2225 169.92 
L 502.92 169.92 
L 503.6175 169.92 
L 504.315 169.92 
L 505.0125 169.92 
L 505.71 169.92 
L 506.4075 169.92 
L 507.105 169.92 
L 507.8025 169.92 
L 508.5 169.92 
L 509.1975 169.92 
L 509.895 169.92 
L 510.5925 169.92 
L 511.29 169.92 
L 511.9875 169.92 
L 512.685 169.92 
L 513.3825 169.92 
L 514.08 169.92 
L 514.7775 169.92 
L 515.475 169.92 
L 516.1725 169.92 
L 516.87 169.92 
L 517.5675 169.92 
L 518.265 169.92 
L 518.9625 169.92 
L 519.66 169.92 
L 520.3575 169.92 
L 521.055 169.92 
L 521.7525 169.92 
L 522.45 169.92 
L 523.1475 169.92 
L 523.845 169.92 
L 524.5425 169.92 
L 525.24 169.92 
L 525.9375 169.92 
L 526.635 169.92 
L 527.3325 169.92 
L 528.03 169.92 
L 528.7275 169.92 
L 529.425 169.92 
L 530.1225 169.92 
L 530.82 169.92 
L 531.5175 169.92 
L 532.215 169.92 
L 532.9125 169.92 
L 533.61 169.92 
L 534.3075 169.92 
L 535.005 169.92 
L 535.7025 169.92 
L 536.4 169.92 
L 537.0975 169.92 
L 537.795 169.92 
L 538.4925 169.92 
L 539.19 169.92 
L 539.8875 169.92 
L 540.585 169.92 
L 541.2825 169.92 
L 541.98 169.92 
L 542.6775 169.92 
L 543.375 169.92 
L 544.0725 169.92 
L 544.77 169.92 
L 545.4675 169.92 
L 546.165 169.92 
L 546.8625 169.92 
L 547.56 169.92 
L 548.2575 169.92 
L 548.955 169.92 
L 549.6525 169.92 
L 550.35 169.92 
L 551.0475 169.92 
L 551.745 169.92 
L 552.4425 169.92 
L 553.14 169.92 
L 553.8375 169.92 
L 554.535 169.92 
L 555.2325 169.92 
L 555.93 169.92 
L 556.6275 169.92 
L 557.325 169.92 
L 558.0225 169.92 
L 558.72 169.92 
L 559.4175 169.92 
L 560.115 169.92 
L 560.8125 169.92 
L 561.51 169.92 
L 562.2075 169.92 
L 562.905 169.92 
L 563.6025 169.92 
L 564.3 169.92 
L 564.9975 169.92 
L 565.695 169.92 
L 566.3925 169.92 
L 567.09 169.92 
L 567.7875 169.92 
L 568.485 169.92 
L 569.1825 169.92 
L 569.88 169.92 
L 570.5775 169.92 
L 571.275 169.92 
L 571.9725 169.92 
L 572.67 169.92 
L 573.3675 169.92 
L 574.065 169.92 
L 574.7625 169.92 
L 575.46 169.92 
L 576.1575 169.92 
L 576.855 169.92 
L 577.5525 169.92 
L 578.25 169.92 
L 578.9475 169.92 
L 579.645 169.92 
L 580.3425 169.92 
L 581.04 169.92 
L 581.7375 169.92 
L 582.435 169.92 
L 583.1325 169.92 
L 583.83 169.92 
L 584.5275 169.92 
L 585.225 169.92 
L 585.9225 169.92 
L 586.62 169.92 
L 587.3175 169.92 
L 588.015 169.92 
L 588.7125 169.92 
L 589.41 169.92 
L 590.1075 169.92 
L 590.805 169.92 
L 591.5025 169.92 
L 592.2 169.92 
L 592.8975 169.92 
L 593.595 169.92 
L 594.2925 169.92 
L 594.99 169.92 
L 595.6875 169.92 
L 596.385 169.92 
L 597.0825 169.92 
L 597.78 169.92 
L 598.4775 169.92 
L 599.175 169.92 
L 599.8725 169.92 
L 600.57 169.92 
L 601.2675 169.92 
L 601.965 169.92 
L 602.6625 169.92 
L 603.36 169.92 
L 604.0575 169.92 
L 604.755 169.92 
L 605.4525 169.92 
L 606.15 169.92 
L 606.8475 169.92 
L 607.545 169.92 
L 608.2425 169.92 
L 608.94 169.92 
L 609.6375 169.92 
L 610.335 169.92 
L 611.0325 169.92 
L 611.73 169.92 
L 612.4275 169.92 
L 613.125 169.92 
L 613.8225 169.92 
L 614.52 169.92 
L 615.2175 169.92 
L 615.915 169.92 
L 616.6125 169.92 
L 617.31 169.92 
L 618.0075 169.92 
L 618.705 169.92 
L 619.4025 169.92 
L 620.1 169.92 
L 620.7975 169.92 
L 621.495 169.92 
L 622.1925 169.92 
L 622.89 169.92 
L 623.5875 169.92 
L 624.285 169.92 
L 624.9825 169.92 
L 625.68 169.92 
L 626.3775 169.92 
L 627.075 169.92 
L 627.7725 169.92 
L 628.47 169.92 
L 629.1675 169.92 
L 629.865 169.92 
L 630.5625 169.92 
L 631.26 169.92 
L 631.9575 169.92 
L 632.655 169.92 
L 633.3525 169.92 
L 634.05 169.92 
L 634.7475 169.92 
L 635.445 169.92 
L 636.1425 169.92 
L 636.84 169.92 
L 637.5375 169.92 
L 638.235 169.92 
L 638.9325 169.92 
L 639.63 169.92 
L 640.3275 169.92 
L 641.025 169.92 
L 641.7225 169.92 
L 642.42 169.92 
L 643.1175 169.92 
L 643.815 169.92 
L 644.5125 169.92 
L 645.21 169.92 
L 645.9075 169.92 
L 646.605 169.92 
L 646.605 169.92 
L 646.605 169.92 
L 645.9075 169.921663 
L 645.21 169.925564 
L 644.5125 169.932261 
L 643.815 169.942289 
L 643.1175 169.956161 
L 642.42 169.974358 
L 641.7225 169.99733 
L 641.025 170.025489 
L 640.3275 170.059208 
L 639.63 170.098817 
L 638.9325 170.144597 
L 638.235 170.196785 
L 637.5375 170.255562 
L 636.84 170.321058 
L 636.1425 170.393348 
L 635.445 170.47245 
L 634.7475 170.558323 
L 634.05 170.65087 
L 633.3525 170.749932 
L 632.655 170.855293 
L 631.9575 170.966676 
L 631.26 171.083748 
L 630.5625 171.206118 
L 629.865 171.333336 
L 629.1675 171.464901 
L 628.47 171.600258 
L 627.7725 171.738803 
L 627.075 171.879882 
L 626.3775 172.022799 
L 625.68 172.166814 
L 624.9825 172.311152 
L 624.285 172.455003 
L 623.5875 172.597525 
L 622.89 172.737854 
L 622.1925 172.875101 
L 621.495 173.008363 
L 620.7975 173.136725 
L 620.1 173.259265 
L 619.4025 173.375059 
L 618.705 173.483187 
L 618.0075 173.58274 
L 617.31 173.672819 
L 616.6125 173.752549 
L 615.915 173.821077 
L 615.2175 173.877581 
L 614.52 173.921276 
L 613.8225 173.951414 
L 613.125 173.967297 
L 612.4275 173.968273 
L 611.73 173.953748 
L 611.0325 173.923187 
L 610.335 173.876117 
L 609.6375 173.812134 
L 608.94 173.730906 
L 608.2425 173.632174 
L 607.545 173.515758 
L 606.8475 173.381558 
L 606.15 173.229558 
L 605.4525 173.059826 
L 604.755 172.872516 
L 604.0575 172.667872 
L 603.36 172.446224 
L 602.6625 172.207993 
L 601.965 171.953688 
L 601.2675 171.683907 
L 600.57 171.399335 
L 599.8725 171.100745 
L 599.175 170.788991 
L 598.4775 170.465013 
L 597.78 170.129828 
L 597.0825 169.78453 
L 596.385 169.430288 
L 595.6875 169.068337 
L 594.99 168.699978 
L 594.2925 168.326574 
L 593.595 167.94954 
L 592.8975 167.570341 
L 592.2 167.190489 
L 591.5025 166.811531 
L 590.805 166.435047 
L 590.1075 166.062641 
L 589.41 165.695936 
L 588.7125 165.336567 
L 588.015 164.986173 
L 587.3175 164.646389 
L 586.62 164.318842 
L 585.9225 164.00514 
L 585.225 163.706864 
L 584.5275 163.425566 
L 583.83 163.162755 
L 583.1325 162.919893 
L 582.435 162.69839 
L 581.7375 162.499589 
L 581.04 162.32477 
L 580.3425 162.175132 
L 579.645 162.051794 
L 578.9475 161.955788 
L 578.25 161.88805 
L 577.5525 161.849413 
L 576.855 161.84061 
L 576.1575 161.86226 
L 575.46 161.914866 
L 574.7625 161.998815 
L 574.065 162.11437 
L 573.3675 162.261666 
L 572.67 162.440713 
L 571.9725 162.651388 
L 571.275 162.893436 
L 570.5775 163.166469 
L 569.88 163.469966 
L 569.1825 163.80327 
L 568.485 164.165593 
L 567.7875 164.556014 
L 567.09 164.973483 
L 566.3925 165.416821 
L 565.695 165.884726 
L 564.9975 166.375773 
L 564.3 166.888421 
L 563.6025 167.421017 
L 562.905 167.9718 
L 562.2075 168.538908 
L 561.51 169.120384 
L 560.8125 169.714183 
L 560.115 170.318176 
L 559.4175 170.930165 
L 558.72 171.547882 
L 558.0225 172.169005 
L 557.325 172.791161 
L 556.6275 173.411939 
L 555.93 174.028897 
L 555.2325 174.639575 
L 554.535 175.2415 
L 553.8375 175.832198 
L 553.14 176.409206 
L 552.4425 176.970081 
L 551.745 177.512407 
L 551.0475 178.033812 
L 550.35 178.531972 
L 549.6525 179.004623 
L 548.955 179.449572 
L 548.2575 179.864708 
L 547.56 180.248007 
L 546.8625 180.597547 
L 546.165 180.91151 
L 545.4675 181.1882 
L 544.77 181.426044 
L 544.0725 181.623601 
L 543.375 181.779572 
L 542.6775 181.892805 
L 541.98 181.962304 
L 541.2825 181.987231 
L 540.585 181.966913 
L 539.8875 181.900849 
L 539.19 181.788711 
L 538.4925 181.630348 
L 537.795 181.425789 
L 537.0975 181.175246 
L 536.4 180.879115 
L 535.7025 180.537974 
L 535.005 180.152587 
L 534.3075 179.723899 
L 533.61 179.253038 
L 532.9125 178.741309 
L 532.215 178.190194 
L 531.5175 177.601347 
L 530.82 176.976586 
L 530.1225 176.317895 
L 529.425 175.62741 
L 528.7275 174.907417 
L 528.03 174.160344 
L 527.3325 173.388751 
L 526.635 172.595323 
L 525.9375 171.782861 
L 525.24 170.95427 
L 524.5425 170.112549 
L 523.845 169.260784 
L 523.1475 168.402132 
L 522.45 167.539811 
L 521.7525 166.677087 
L 521.055 165.817264 
L 520.3575 164.96367 
L 519.66 164.119642 
L 518.9625 163.288517 
L 518.265 162.473616 
L 517.5675 161.67823 
L 516.87 160.905611 
L 516.1725 160.158954 
L 515.475 159.441385 
L 514.7775 158.755951 
L 514.08 158.105605 
L 513.3825 157.493191 
L 512.685 156.921438 
L 511.9875 156.392941 
L 511.29 155.910156 
L 510.5925 155.475383 
L 509.895 155.090761 
L 509.1975 154.758255 
L 508.5 154.479647 
L 507.8025 154.256527 
L 507.105 154.090286 
L 506.4075 153.982108 
L 505.71 153.932965 
L 505.0125 153.943608 
L 504.315 154.014565 
L 503.6175 154.146135 
L 502.92 154.338387 
L 502.2225 154.591155 
L 501.525 154.904038 
L 500.8275 155.276399 
L 500.13 155.707367 
L 499.4325 156.195834 
L 498.735 156.740464 
L 498.0375 157.339689 
L 497.34 157.991718 
L 496.6425 158.69454 
L 495.945 159.445931 
L 495.2475 160.243459 
L 494.55 161.084495 
L 493.8525 161.966216 
L 493.155 162.885621 
L 492.4575 163.839537 
L 491.76 164.82463 
L 491.0625 165.837419 
L 490.365 166.874284 
L 489.6675 167.931484 
L 488.97 169.005167 
L 488.2725 170.091387 
L 487.575 171.186114 
L 486.8775 172.285254 
L 486.18 173.384661 
L 485.4825 174.480154 
L 484.785 175.567532 
L 484.0875 176.642591 
L 483.39 177.701142 
L 482.6925 178.739022 
L 481.995 179.752117 
L 481.2975 180.736374 
L 480.6 181.687816 
L 479.9025 182.602564 
L 479.205 183.476846 
L 478.5075 184.307017 
L 477.81 185.089573 
L 477.1125 185.821164 
L 476.415 186.498609 
L 475.7175 187.118912 
L 475.02 187.679271 
L 474.3225 188.177092 
L 473.625 188.610002 
L 472.9275 188.975859 
L 472.23 189.272759 
L 471.5325 189.499052 
L 470.835 189.653341 
L 470.1375 189.734499 
L 469.44 189.741667 
L 468.7425 189.674264 
L 468.045 189.531992 
L 467.3475 189.314835 
L 466.65 189.023063 
L 465.9525 188.657237 
L 465.255 188.218201 
L 464.5575 187.707088 
L 463.86 187.125314 
L 463.1625 186.474576 
L 462.465 185.756845 
L 461.7675 184.974365 
L 461.07 184.129641 
L 460.3725 183.225435 
L 459.675 182.264755 
L 458.9775 181.250847 
L 458.28 180.187181 
L 457.5825 179.077444 
L 456.885 177.925522 
L 456.1875 176.735491 
L 455.49 175.511599 
L 454.7925 174.258253 
L 454.095 172.980002 
L 453.3975 171.681523 
L 452.7 170.367598 
L 452.0025 169.043105 
L 451.305 167.712991 
L 450.6075 166.38226 
L 449.91 165.05595 
L 449.2125 163.739117 
L 448.515 162.436813 
L 447.8175 161.154069 
L 447.12 159.895874 
L 446.4225 158.667155 
L 445.725 157.47276 
L 445.0275 156.317436 
L 444.33 155.205814 
L 443.6325 154.142386 
L 442.935 153.131491 
L 442.2375 152.177293 
L 441.54 151.283768 
L 440.8425 150.454686 
L 440.145 149.693595 
L 439.4475 149.003806 
L 438.75 148.388379 
L 438.0525 147.850111 
L 437.355 147.391522 
L 436.6575 147.014842 
L 435.96 146.722005 
L 435.2625 146.514637 
L 434.565 146.39405 
L 433.8675 146.361231 
L 433.17 146.416841 
L 432.4725 146.561206 
L 431.775 146.794319 
L 431.0775 147.115832 
L 430.38 147.525062 
L 429.6825 148.020986 
L 428.985 148.602245 
L 428.2875 149.267147 
L 427.59 150.013673 
L 426.8925 150.83948 
L 426.195 151.741913 
L 425.4975 152.718005 
L 424.8 153.764495 
L 424.1025 154.877835 
L 423.405 156.054202 
L 422.7075 157.28951 
L 422.01 158.579428 
L 421.3125 159.91939 
L 420.615 161.304616 
L 419.9175 162.730125 
L 419.22 164.190755 
L 418.5225 165.681183 
L 417.825 167.19594 
L 417.1275 168.729438 
L 416.43 170.275982 
L 415.7325 171.829798 
L 415.035 173.385054 
L 414.3375 174.935878 
L 413.64 176.476383 
L 412.9425 178.000689 
L 412.245 179.502946 
L 411.5475 180.977355 
L 410.85 182.418193 
L 410.1525 183.819831 
L 409.455 185.176761 
L 408.7575 186.483613 
L 408.06 187.735181 
L 407.3625 188.926439 
L 406.665 190.052565 
L 405.9675 191.108956 
L 405.27 192.091252 
L 404.5725 192.995351 
L 403.875 193.817426 
L 403.1775 194.553941 
L 402.48 195.201666 
L 401.7825 195.757692 
L 401.085 196.219444 
L 400.3875 196.584689 
L 399.69 196.851551 
L 398.9925 197.018515 
L 398.295 197.084441 
L 397.5975 197.048563 
L 396.9 196.910501 
L 396.2025 196.670256 
L 395.505 196.328221 
L 394.8075 195.885174 
L 394.11 195.342283 
L 393.4125 194.701099 
L 392.715 193.963551 
L 392.0175 193.131948 
L 391.32 192.208963 
L 390.6225 191.197631 
L 389.925 190.101336 
L 389.2275 188.9238 
L 388.53 187.669073 
L 387.8325 186.341515 
L 387.135 184.945785 
L 386.4375 183.486823 
L 385.74 181.969831 
L 385.0425 180.400258 
L 384.345 178.783775 
L 383.6475 177.126262 
L 382.95 175.433779 
L 382.2525 173.71255 
L 381.555 171.968934 
L 380.8575 170.209408 
L 380.16 168.440537 
L 379.4625 166.668955 
L 378.765 164.901334 
L 378.0675 163.144365 
L 377.37 161.404727 
L 376.6725 159.689065 
L 375.975 158.003965 
L 375.2775 156.355925 
L 374.58 154.751335 
L 373.8825 153.196448 
L 373.185 151.697358 
L 372.4875 150.259973 
L 371.79 148.889996 
L 371.0925 147.592901 
L 370.395 146.373909 
L 369.6975 145.237968 
L 369 144.189737 
L 368.3025 143.233559 
L 367.605 142.37345 
L 366.9075 141.613081 
L 366.21 140.95576 
L 365.5125 140.404419 
L 364.815 139.961603 
L 364.1175 139.629457 
L 363.42 139.409715 
L 362.7225 139.303694 
L 362.025 139.312287 
L 361.3275 139.435956 
L 360.63 139.674729 
L 359.9325 140.0282 
L 359.235 140.495525 
L 358.5375 141.075428 
L 357.84 141.766199 
L 357.1425 142.565704 
L 356.445 143.471385 
L 355.7475 144.480276 
L 355.05 145.589004 
L 354.3525 146.793806 
L 353.655 148.09054 
L 352.9575 149.474698 
L 352.26 150.941423 
L 351.5625 152.485526 
L 350.865 154.101503 
L 350.1675 155.783557 
L 349.47 157.525616 
L 348.7725 159.321356 
L 348.075 161.164226 
L 347.3775 163.047469 
L 346.68 164.964149 
L 345.9825 166.907172 
L 345.285 168.869322 
L 344.5875 170.843276 
L 343.89 172.82164 
L 343.1925 174.796975 
L 342.495 176.76182 
L 341.7975 178.708729 
L 341.1 180.63029 
L 340.4025 182.519161 
L 339.705 184.368093 
L 339.0075 186.169961 
L 338.31 187.917789 
L 337.6125 189.604778 
L 336.915 191.224334 
L 336.2175 192.770091 
L 335.52 194.23594 
L 334.8225 195.616048 
L 334.125 196.904884 
L 333.4275 198.097243 
L 332.73 199.188263 
L 332.0325 200.173448 
L 331.335 201.048682 
L 330.6375 201.810254 
L 329.94 202.454864 
L 329.2425 202.979645 
L 328.545 203.38217 
L 327.8475 203.660466 
L 327.15 203.813022 
L 326.4525 203.838797 
L 325.755 203.737224 
L 325.0575 203.508217 
L 324.36 203.152169 
L 323.6625 202.669957 
L 322.965 202.062937 
L 322.2675 201.33294 
L 321.57 200.482269 
L 320.8725 199.513694 
L 320.175 198.430437 
L 319.4775 197.236166 
L 318.78 195.934982 
L 318.0825 194.531404 
L 317.385 193.030354 
L 316.6875 191.437142 
L 315.99 189.757441 
L 315.2925 187.997273 
L 314.595 186.162985 
L 313.8975 184.261227 
L 313.2 182.298926 
L 312.5025 180.283262 
L 311.805 178.221643 
L 311.1075 176.121673 
L 310.41 173.991131 
L 309.7125 171.837937 
L 309.015 169.670123 
L 308.3175 167.495803 
L 307.62 165.323147 
L 306.9225 163.160343 
L 306.225 161.015572 
L 305.5275 158.896972 
L 304.83 156.812613 
L 304.1325 154.77046 
L 303.435 152.778348 
L 302.7375 150.843947 
L 302.04 148.974736 
L 301.3425 147.177973 
L 300.645 145.460666 
L 299.9475 143.829547 
L 299.25 142.291044 
L 298.5525 140.851256 
L 297.855 139.515931 
L 297.1575 138.290441 
L 296.46 137.17976 
L 295.7625 136.188446 
L 295.065 135.32062 
L 294.3675 134.579951 
L 293.67 133.969639 
L 292.9725 133.492404 
L 292.275 133.15047 
L 291.5775 132.94556 
L 290.88 132.878883 
L 290.1825 132.951131 
L 289.485 133.162474 
L 288.7875 133.512557 
L 288.09 134.000501 
L 287.3925 134.624904 
L 286.695 135.383844 
L 285.9975 136.274884 
L 285.3 137.295083 
L 284.6025 138.441003 
L 283.905 139.708719 
L 283.2075 141.093837 
L 282.51 142.591504 
L 281.8125 144.196429 
L 281.115 145.9029 
L 280.4175 147.704801 
L 279.72 149.595643 
L 279.0225 151.568576 
L 278.325 153.616423 
L 277.6275 155.731702 
L 276.93 157.906653 
L 276.2325 160.133268 
L 275.535 162.40332 
L 274.8375 164.708393 
L 274.14 167.039916 
L 273.4425 169.38919 
L 272.745 171.747423 
L 272.0475 174.105767 
L 271.35 176.455343 
L 270.6525 178.787282 
L 269.955 181.092753 
L 269.2575 183.363002 
L 268.56 185.589379 
L 267.8625 187.763378 
L 267.165 189.876663 
L 266.4675 191.921103 
L 265.77 193.888806 
L 265.0725 195.772144 
L 264.375 197.563786 
L 263.6775 199.256727 
L 262.98 200.844313 
L 262.2825 202.320269 
L 261.585 203.678723 
L 260.8875 204.914231 
L 260.19 206.021795 
L 259.4925 206.996887 
L 258.795 207.835466 
L 258.0975 208.533994 
L 257.4 209.089451 
L 256.7025 209.499349 
L 256.005 209.761742 
L 255.3075 209.875235 
L 254.61 209.83899 
L 253.9125 209.652731 
L 253.215 209.316749 
L 252.5175 208.831899 
L 251.82 208.199598 
L 251.1225 207.421827 
L 250.425 206.501117 
L 249.7275 205.440546 
L 249.03 204.24373 
L 248.3325 202.914805 
L 247.635 201.458419 
L 246.9375 199.87971 
L 246.24 198.184294 
L 245.5425 196.378239 
L 244.845 194.46805 
L 244.1475 192.460638 
L 243.45 190.363301 
L 242.7525 188.183694 
L 242.055 185.929804 
L 241.3575 183.609916 
L 240.66 181.232588 
L 239.9625 178.806615 
L 239.265 176.340999 
L 238.5675 173.844916 
L 237.87 171.327677 
L 237.1725 168.798701 
L 236.475 166.267471 
L 235.7775 163.743505 
L 235.08 161.236318 
L 234.3825 158.755386 
L 233.685 156.310109 
L 232.9875 153.909777 
L 232.29 151.563532 
L 231.5925 149.280339 
L 230.895 147.068944 
L 230.1975 144.937846 
L 229.5 142.895263 
L 228.8025 140.949097 
L 228.105 139.106909 
L 227.4075 137.375886 
L 226.71 135.762813 
L 226.0125 134.274047 
L 225.315 132.915493 
L 224.6175 131.692579 
L 223.92 130.610236 
L 223.2225 129.672874 
L 222.525 128.884371 
L 221.8275 128.248052 
L 221.13 127.766675 
L 220.4325 127.442423 
L 219.735 127.27689 
L 219.0375 127.271078 
L 218.34 127.425387 
L 217.6425 127.739617 
L 216.945 128.212962 
L 216.2475 128.844017 
L 215.55 129.630778 
L 214.8525 130.57065 
L 214.155 131.660456 
L 213.4575 132.896444 
L 212.76 134.274305 
L 212.0625 135.789185 
L 211.365 137.435702 
L 210.6675 139.207965 
L 209.97 141.099597 
L 209.2725 143.103755 
L 208.575 145.213159 
L 207.8775 147.420113 
L 207.18 149.716539 
L 206.4825 152.094 
L 205.785 154.543738 
L 205.0875 157.056702 
L 204.39 159.623582 
L 203.6925 162.234843 
L 202.995 164.880765 
L 202.2975 167.551472 
L 201.6 170.236976 
L 200.9025 172.927209 
L 200.205 175.612063 
L 199.5075 178.281431 
L 198.81 180.925237 
L 198.1125 183.533485 
L 197.415 186.096288 
L 196.7175 188.603909 
L 196.02 191.046798 
L 195.3225 193.415629 
L 194.625 195.701334 
L 193.9275 197.89514 
L 193.23 199.9886 
L 192.5325 201.973627 
L 191.835 203.842527 
L 191.1375 205.588026 
L 190.44 207.203298 
L 189.7425 208.681996 
L 189.045 210.018272 
L 188.3475 211.206804 
L 187.65 212.242814 
L 186.9525 213.122088 
L 186.255 213.840996 
L 185.5575 214.396503 
L 184.86 214.786182 
L 184.1625 215.008227 
L 183.465 215.061461 
L 182.7675 214.945338 
L 182.07 214.659951 
L 181.3725 214.206027 
L 180.675 213.584934 
L 179.9775 212.798668 
L 179.28 211.849855 
L 178.5825 210.741735 
L 177.885 209.478158 
L 177.1875 208.063562 
L 176.49 206.502969 
L 175.7925 204.801955 
L 175.095 202.96664 
L 174.3975 201.00366 
L 173.7 198.920143 
L 173.0025 196.72369 
L 172.305 194.422336 
L 171.6075 192.024532 
L 170.91 189.539104 
L 170.2125 186.97523 
L 169.515 184.342396 
L 168.8175 181.650369 
L 168.12 178.909158 
L 167.4225 176.128974 
L 166.725 173.320196 
L 166.0275 170.493329 
L 165.33 167.658969 
L 164.6325 164.827755 
L 163.935 162.01034 
L 163.2375 159.21734 
L 162.54 156.459303 
L 161.8425 153.746662 
L 161.145 151.0897 
L 160.4475 148.498508 
L 159.75 145.982951 
L 159.0525 143.552623 
L 158.355 141.216819 
L 157.6575 138.984492 
L 156.96 136.864223 
L 156.2625 134.864187 
L 155.565 132.992121 
L 154.8675 131.255293 
L 154.17 129.660475 
L 153.4725 128.21392 
L 152.775 126.921328 
L 152.0775 125.787835 
L 151.38 124.817985 
L 150.6825 124.015712 
L 149.985 123.384329 
L 149.2875 122.92651 
L 148.59 122.644282 
L 147.8925 122.539011 
L 147.195 122.611403 
L 146.4975 122.861494 
L 145.8 123.288652 
L 145.1025 123.891577 
L 144.405 124.668306 
L 143.7075 125.616216 
L 143.01 126.732038 
L 142.3125 128.011863 
L 141.615 129.45116 
L 140.9175 131.044788 
L 140.22 132.787017 
L 139.5225 134.67155 
L 138.825 136.69154 
L 138.1275 138.839622 
L 137.43 141.107935 
L 136.7325 143.488152 
L 136.035 145.971512 
L 135.3375 148.548851 
L 134.64 151.210636 
L 133.9425 153.947 
L 133.245 156.74778 
L 132.5475 159.602554 
L 131.85 162.500678 
L 131.1525 165.431331 
L 130.455 168.38355 
L 129.7575 171.346272 
L 129.06 174.308379 
L 128.3625 177.258736 
L 127.665 180.186237 
L 126.9675 183.079841 
L 126.27 185.928619 
L 125.5725 188.721793 
L 124.875 191.448779 
L 124.1775 194.099222 
L 123.48 196.663043 
L 122.7825 199.130471 
L 122.085 201.492082 
L 121.3875 203.738838 
L 120.69 205.862117 
L 119.9925 207.853751 
L 119.295 209.706053 
L 118.5975 211.41185 
L 117.9 212.964507 
L 117.2025 214.357959 
L 116.505 215.586728 
L 115.8075 216.645949 
L 115.11 217.531387 
L 114.4125 218.239456 
L 113.715 218.767231 
L 113.0175 219.112462 
L 112.32 219.273581 
L 111.6225 219.249712 
L 110.925 219.040675 
L 110.2275 218.646983 
L 109.53 218.069848 
L 108.8325 217.311173 
L 108.135 216.373547 
L 107.4375 215.260235 
L 106.74 213.97517 
L 106.0425 212.522935 
L 105.345 210.908749 
L 104.6475 209.138448 
L 103.95 207.218465 
L 103.2525 205.155804 
L 102.555 202.958015 
L 101.8575 200.633169 
L 101.16 198.189824 
L 100.4625 195.636999 
L 99.765 192.984135 
L 99.0675 190.241062 
L 98.37 187.417966 
L 97.6725 184.525344 
L 96.975 181.573972 
L 96.2775 178.574861 
L 95.58 175.539216 
L 94.8825 172.478394 
L 94.185 169.403865 
L 93.4875 166.327162 
L 92.79 163.259844 
L 92.0925 160.21345 
L 91.395 157.199454 
L 90.6975 154.229225 
L 90 151.313982 
z
" style="fill:#e0ffff;"/>
   </g>
   <g id="line2d_19">
    <path clip-path="url(#pcc238d0dde)" d="M 90 151.313982 
L 93.4875 166.327162 
L 98.37 187.417966 
L 100.4625 195.636999 
L 102.555 202.958015 
L 103.95 207.218465 
L 105.345 210.908749 
L 106.74 213.97517 
L 108.135 216.373547 
L 109.53 218.069848 
L 110.2275 218.646983 
L 110.925 219.040675 
L 111.6225 219.249712 
L 112.32 219.273581 
L 113.0175 219.112462 
L 113.715 218.767231 
L 114.4125 218.239456 
L 115.11 217.531387 
L 116.505 215.586728 
L 117.9 212.964507 
L 119.295 209.706053 
L 120.69 205.862117 
L 122.085 201.492082 
L 124.1775 194.099222 
L 126.9675 183.079841 
L 135.3375 148.548851 
L 137.43 141.107935 
L 139.5225 134.67155 
L 140.9175 131.044788 
L 142.3125 128.011863 
L 143.7075 125.616216 
L 145.1025 123.891577 
L 145.8 123.288652 
L 146.4975 122.861494 
L 147.195 122.611403 
L 147.8925 122.539011 
L 148.59 122.644282 
L 149.2875 122.92651 
L 149.985 123.384329 
L 150.6825 124.015712 
L 152.0775 125.787835 
L 153.4725 128.21392 
L 154.8675 131.255293 
L 156.2625 134.864187 
L 157.6575 138.984492 
L 159.75 145.982951 
L 162.54 156.459303 
L 171.6075 192.024532 
L 173.7 198.920143 
L 175.095 202.96664 
L 176.49 206.502969 
L 177.885 209.478158 
L 179.28 211.849855 
L 180.675 213.584934 
L 181.3725 214.206027 
L 182.07 214.659951 
L 182.7675 214.945338 
L 183.465 215.061461 
L 184.1625 215.008227 
L 184.86 214.786182 
L 185.5575 214.396503 
L 186.255 213.840996 
L 186.9525 213.122088 
L 188.3475 211.206804 
L 189.7425 208.681996 
L 191.1375 205.588026 
L 192.5325 201.973627 
L 194.625 195.701334 
L 196.7175 188.603909 
L 199.5075 178.281431 
L 205.785 154.543738 
L 207.8775 147.420113 
L 209.97 141.099597 
L 211.365 137.435702 
L 212.76 134.274305 
L 214.155 131.660456 
L 215.55 129.630778 
L 216.945 128.212962 
L 217.6425 127.739617 
L 218.34 127.425387 
L 219.0375 127.271078 
L 219.735 127.27689 
L 220.4325 127.442423 
L 221.13 127.766675 
L 221.8275 128.248052 
L 222.525 128.884371 
L 223.92 130.610236 
L 225.315 132.915493 
L 226.71 135.762813 
L 228.105 139.106909 
L 230.1975 144.937846 
L 232.29 151.563532 
L 235.08 161.236318 
L 242.055 185.929804 
L 244.1475 192.460638 
L 246.24 198.184294 
L 247.635 201.458419 
L 249.03 204.24373 
L 250.425 206.501117 
L 251.82 208.199598 
L 253.215 209.316749 
L 253.9125 209.652731 
L 254.61 209.83899 
L 255.3075 209.875235 
L 256.005 209.761742 
L 256.7025 209.499349 
L 257.4 209.089451 
L 258.0975 208.533994 
L 259.4925 206.996887 
L 260.8875 204.914231 
L 262.2825 202.320269 
L 263.6775 199.256727 
L 265.77 193.888806 
L 267.8625 187.763378 
L 270.6525 178.787282 
L 277.6275 155.731702 
L 279.72 149.595643 
L 281.8125 144.196429 
L 283.2075 141.093837 
L 284.6025 138.441003 
L 285.9975 136.274884 
L 287.3925 134.624904 
L 288.7875 133.512557 
L 289.485 133.162474 
L 290.1825 132.951131 
L 290.88 132.878883 
L 291.5775 132.94556 
L 292.275 133.15047 
L 292.9725 133.492404 
L 294.3675 134.579951 
L 295.7625 136.188446 
L 297.1575 138.290441 
L 298.5525 140.851256 
L 299.9475 143.829547 
L 302.04 148.974736 
L 304.1325 154.77046 
L 307.62 165.323147 
L 312.5025 180.283262 
L 314.595 186.162985 
L 316.6875 191.437142 
L 318.0825 194.531404 
L 319.4775 197.236166 
L 320.8725 199.513694 
L 322.2675 201.33294 
L 323.6625 202.669957 
L 325.0575 203.508217 
L 325.755 203.737224 
L 326.4525 203.838797 
L 327.15 203.813022 
L 327.8475 203.660466 
L 328.545 203.38217 
L 329.94 202.454864 
L 331.335 201.048682 
L 332.73 199.188263 
L 334.125 196.904884 
L 335.52 194.23594 
L 337.6125 189.604778 
L 339.705 184.368093 
L 342.495 176.76182 
L 348.7725 159.321356 
L 350.865 154.101503 
L 352.9575 149.474698 
L 354.3525 146.793806 
L 355.7475 144.480276 
L 357.1425 142.565704 
L 358.5375 141.075428 
L 359.9325 140.0282 
L 361.3275 139.435956 
L 362.025 139.312287 
L 362.7225 139.303694 
L 363.42 139.409715 
L 364.815 139.961603 
L 366.21 140.95576 
L 367.605 142.37345 
L 369 144.189737 
L 370.395 146.373909 
L 371.79 148.889996 
L 373.8825 153.196448 
L 375.975 158.003965 
L 379.4625 166.668955 
L 384.345 178.783775 
L 386.4375 183.486823 
L 388.53 187.669073 
L 389.925 190.101336 
L 391.32 192.208963 
L 392.715 193.963551 
L 394.11 195.342283 
L 395.505 196.328221 
L 396.9 196.910501 
L 398.295 197.084441 
L 399.69 196.851551 
L 401.085 196.219444 
L 402.48 195.201666 
L 403.875 193.817426 
L 405.27 192.091252 
L 406.665 190.052565 
L 408.7575 186.483613 
L 410.85 182.418193 
L 413.64 176.476383 
L 420.615 161.304616 
L 422.7075 157.28951 
L 424.8 153.764495 
L 426.195 151.741913 
L 427.59 150.013673 
L 428.985 148.602245 
L 430.38 147.525062 
L 431.775 146.794319 
L 433.17 146.416841 
L 434.565 146.39405 
L 435.96 146.722005 
L 437.355 147.391522 
L 438.75 148.388379 
L 440.145 149.693595 
L 441.54 151.283768 
L 443.6325 154.142386 
L 445.725 157.47276 
L 448.515 162.436813 
L 456.885 177.925522 
L 458.9775 181.250847 
L 461.07 184.129641 
L 462.465 185.756845 
L 463.86 187.125314 
L 465.255 188.218201 
L 466.65 189.023063 
L 468.045 189.531992 
L 469.44 189.741667 
L 470.835 189.653341 
L 472.23 189.272759 
L 473.625 188.610002 
L 475.02 187.679271 
L 476.415 186.498609 
L 477.81 185.089573 
L 479.9025 182.602564 
L 481.995 179.752117 
L 484.785 175.567532 
L 491.76 164.82463 
L 493.8525 161.966216 
L 495.945 159.445931 
L 498.0375 157.339689 
L 499.4325 156.195834 
L 500.8275 155.276399 
L 502.2225 154.591155 
L 503.6175 154.146135 
L 505.0125 153.943608 
L 506.4075 153.982108 
L 507.8025 154.256527 
L 509.1975 154.758255 
L 510.5925 155.475383 
L 511.9875 156.392941 
L 514.08 158.105605 
L 516.1725 160.158954 
L 518.9625 163.288517 
L 523.845 169.260784 
L 527.3325 173.388751 
L 530.1225 176.317895 
L 532.215 178.190194 
L 534.3075 179.723899 
L 535.7025 180.537974 
L 537.0975 181.175246 
L 538.4925 181.630348 
L 539.8875 181.900849 
L 541.2825 181.987231 
L 542.6775 181.892805 
L 544.0725 181.623601 
L 545.4675 181.1882 
L 547.56 180.248007 
L 549.6525 179.004623 
L 551.745 177.512407 
L 554.535 175.2415 
L 564.3 166.888421 
L 567.09 164.973483 
L 569.1825 163.80327 
L 571.275 162.893436 
L 573.3675 162.261666 
L 575.46 161.914866 
L 577.5525 161.849413 
L 579.645 162.051794 
L 581.7375 162.499589 
L 583.83 163.162755 
L 586.62 164.318842 
L 590.1075 166.062641 
L 599.175 170.788991 
L 601.965 171.953688 
L 604.755 172.872516 
L 607.545 173.515758 
L 610.335 173.876117 
L 613.125 173.967297 
L 615.915 173.821077 
L 619.4025 173.375059 
L 624.285 172.455003 
L 631.9575 170.966676 
L 636.1425 170.393348 
L 640.3275 170.059208 
L 645.21 169.925564 
L 646.605 169.92 
L 646.605 169.92 
" style="fill:none;stroke:#008080;stroke-linecap:round;stroke-width:1.75;"/>
   </g>
   <g id="patch_3">
    <path d="M 90 270.72 
L 90 69.12 
" style="fill:none;stroke:#262626;stroke-linecap:square;stroke-linejoin:miter;stroke-width:1.25;"/>
   </g>
   <g id="patch_4">
    <path d="M 90 270.72 
L 648 270.72 
" style="fill:none;stroke:#262626;stroke-linecap:square;stroke-linejoin:miter;stroke-width:1.25;"/>
   </g>
  </g>
  <g id="axes_2">
   <g id="patch_5">
    <path d="M 90 512.64 
L 648 512.64 
L 648 311.04 
L 90 311.04 
z
" style="fill:#ffffff;"/>
   </g>
   <g id="matplotlib.axis_3">
    <g id="xtick_10">
     <g id="line2d_20">
      <g>
       <use style="fill:#262626;stroke:#262626;" x="190.44" xlink:href="#m914076b275" y="512.64"/>
      </g>
     </g>
     <g id="text_19">
      <!-- 200 -->
      <g style="fill:#262626;" transform="translate(182.098594 532.797812)scale(0.1 -0.1)">
       <use xlink:href="#ArialMT-32"/>
       <use x="55.615234" xlink:href="#ArialMT-30"/>
       <use x="111.230469" xlink:href="#ArialMT-30"/>
      </g>
     </g>
    </g>
    <g id="xtick_11">
     <g id="line2d_21">
      <g>
       <use style="fill:#262626;stroke:#262626;" x="302.04" xlink:href="#m914076b275" y="512.64"/>
      </g>
     </g>
     <g id="text_20">
      <!-- 400 -->
      <g style="fill:#262626;" transform="translate(293.698594 532.797812)scale(0.1 -0.1)">
       <use xlink:href="#ArialMT-34"/>
       <use x="55.615234" xlink:href="#ArialMT-30"/>
       <use x="111.230469" xlink:href="#ArialMT-30"/>
      </g>
     </g>
    </g>
    <g id="xtick_12">
     <g id="line2d_22">
      <g>
       <use style="fill:#262626;stroke:#262626;" x="413.64" xlink:href="#m914076b275" y="512.64"/>
      </g>
     </g>
     <g id="text_21">
      <!-- 600 -->
      <g style="fill:#262626;" transform="translate(405.298594 532.797812)scale(0.1 -0.1)">
       <use xlink:href="#ArialMT-36"/>
       <use x="55.615234" xlink:href="#ArialMT-30"/>
       <use x="111.230469" xlink:href="#ArialMT-30"/>
      </g>
     </g>
    </g>
    <g id="xtick_13">
     <g id="line2d_23">
      <g>
       <use style="fill:#262626;stroke:#262626;" x="525.24" xlink:href="#m914076b275" y="512.64"/>
      </g>
     </g>
     <g id="text_22">
      <!-- 800 -->
      <g style="fill:#262626;" transform="translate(516.898594 532.797812)scale(0.1 -0.1)">
       <use xlink:href="#ArialMT-38"/>
       <use x="55.615234" xlink:href="#ArialMT-30"/>
       <use x="111.230469" xlink:href="#ArialMT-30"/>
      </g>
     </g>
    </g>
    <g id="xtick_14">
     <g id="line2d_24">
      <g>
       <use style="fill:#262626;stroke:#262626;" x="636.84" xlink:href="#m914076b275" y="512.64"/>
      </g>
     </g>
     <g id="text_23">
      <!-- 1000 -->
      <g style="fill:#262626;" transform="translate(625.718125 532.797812)scale(0.1 -0.1)">
       <use xlink:href="#ArialMT-31"/>
       <use x="55.615234" xlink:href="#ArialMT-30"/>
       <use x="111.230469" xlink:href="#ArialMT-30"/>
       <use x="166.845703" xlink:href="#ArialMT-30"/>
      </g>
     </g>
    </g>
    <g id="text_24">
     <!-- Frequency [Hz] -->
     <defs>
      <path d="M 8.203125 0 
L 8.203125 71.578125 
L 56.5 71.578125 
L 56.5 63.140625 
L 17.671875 63.140625 
L 17.671875 40.96875 
L 51.265625 40.96875 
L 51.265625 32.515625 
L 17.671875 32.515625 
L 17.671875 0 
z
" id="ArialMT-46"/>
      <path d="M 6.5 0 
L 6.5 51.859375 
L 14.40625 51.859375 
L 14.40625 44 
Q 17.4375 49.515625 20 51.265625 
Q 22.5625 53.03125 25.640625 53.03125 
Q 30.078125 53.03125 34.671875 50.203125 
L 31.640625 42.046875 
Q 28.421875 43.953125 25.203125 43.953125 
Q 22.3125 43.953125 20.015625 42.21875 
Q 17.71875 40.484375 16.75 37.40625 
Q 15.28125 32.71875 15.28125 27.15625 
L 15.28125 0 
z
" id="ArialMT-72"/>
      <path d="M 42.09375 16.703125 
L 51.171875 15.578125 
Q 49.03125 7.625 43.21875 3.21875 
Q 37.40625 -1.171875 28.375 -1.171875 
Q 17 -1.171875 10.328125 5.828125 
Q 3.65625 12.84375 3.65625 25.484375 
Q 3.65625 38.578125 10.390625 45.796875 
Q 17.140625 53.03125 27.875 53.03125 
Q 38.28125 53.03125 44.875 45.953125 
Q 51.46875 38.875 51.46875 26.03125 
Q 51.46875 25.25 51.421875 23.6875 
L 12.75 23.6875 
Q 13.234375 15.140625 17.578125 10.59375 
Q 21.921875 6.0625 28.421875 6.0625 
Q 33.25 6.0625 36.671875 8.59375 
Q 40.09375 11.140625 42.09375 16.703125 
z
M 13.234375 30.90625 
L 42.1875 30.90625 
Q 41.609375 37.453125 38.875 40.71875 
Q 34.671875 45.796875 27.984375 45.796875 
Q 21.921875 45.796875 17.796875 41.75 
Q 13.671875 37.703125 13.234375 30.90625 
z
" id="ArialMT-65"/>
      <path d="M 39.65625 -19.875 
L 39.65625 5.515625 
Q 37.59375 2.640625 33.90625 0.734375 
Q 30.21875 -1.171875 26.078125 -1.171875 
Q 16.84375 -1.171875 10.171875 6.203125 
Q 3.515625 13.578125 3.515625 26.421875 
Q 3.515625 34.234375 6.21875 40.421875 
Q 8.9375 46.625 14.078125 49.828125 
Q 19.234375 53.03125 25.390625 53.03125 
Q 35.015625 53.03125 40.53125 44.921875 
L 40.53125 51.859375 
L 48.4375 51.859375 
L 48.4375 -19.875 
z
M 12.546875 26.078125 
Q 12.546875 16.0625 16.75 11.0625 
Q 20.953125 6.0625 26.8125 6.0625 
Q 32.421875 6.0625 36.46875 10.8125 
Q 40.53125 15.578125 40.53125 25.296875 
Q 40.53125 35.640625 36.25 40.859375 
Q 31.984375 46.09375 26.21875 46.09375 
Q 20.515625 46.09375 16.53125 41.234375 
Q 12.546875 36.375 12.546875 26.078125 
z
" id="ArialMT-71"/>
      <path d="M 40.578125 0 
L 40.578125 7.625 
Q 34.515625 -1.171875 24.125 -1.171875 
Q 19.53125 -1.171875 15.546875 0.578125 
Q 11.578125 2.34375 9.640625 5 
Q 7.71875 7.671875 6.9375 11.53125 
Q 6.390625 14.109375 6.390625 19.734375 
L 6.390625 51.859375 
L 15.1875 51.859375 
L 15.1875 23.09375 
Q 15.1875 16.21875 15.71875 13.8125 
Q 16.546875 10.359375 19.234375 8.375 
Q 21.921875 6.390625 25.875 6.390625 
Q 29.828125 6.390625 33.296875 8.421875 
Q 36.765625 10.453125 38.203125 13.9375 
Q 39.65625 17.4375 39.65625 24.078125 
L 39.65625 51.859375 
L 48.4375 51.859375 
L 48.4375 0 
z
" id="ArialMT-75"/>
      <path d="M 6.59375 0 
L 6.59375 51.859375 
L 14.5 51.859375 
L 14.5 44.484375 
Q 20.21875 53.03125 31 53.03125 
Q 35.6875 53.03125 39.625 51.34375 
Q 43.5625 49.65625 45.515625 46.921875 
Q 47.46875 44.1875 48.25 40.4375 
Q 48.734375 37.984375 48.734375 31.890625 
L 48.734375 0 
L 39.9375 0 
L 39.9375 31.546875 
Q 39.9375 36.921875 38.90625 39.578125 
Q 37.890625 42.234375 35.28125 43.8125 
Q 32.671875 45.40625 29.15625 45.40625 
Q 23.53125 45.40625 19.453125 41.84375 
Q 15.375 38.28125 15.375 28.328125 
L 15.375 0 
z
" id="ArialMT-6e"/>
      <path d="M 40.4375 19 
L 49.078125 17.875 
Q 47.65625 8.9375 41.8125 3.875 
Q 35.984375 -1.171875 27.484375 -1.171875 
Q 16.84375 -1.171875 10.375 5.78125 
Q 3.90625 12.75 3.90625 25.734375 
Q 3.90625 34.125 6.6875 40.421875 
Q 9.46875 46.734375 15.15625 49.875 
Q 20.84375 53.03125 27.546875 53.03125 
Q 35.984375 53.03125 41.359375 48.75 
Q 46.734375 44.484375 48.25 36.625 
L 39.703125 35.296875 
Q 38.484375 40.53125 35.375 43.15625 
Q 32.28125 45.796875 27.875 45.796875 
Q 21.234375 45.796875 17.078125 41.03125 
Q 12.9375 36.28125 12.9375 25.984375 
Q 12.9375 15.53125 16.9375 10.796875 
Q 20.953125 6.0625 27.390625 6.0625 
Q 32.5625 6.0625 36.03125 9.234375 
Q 39.5 12.40625 40.4375 19 
z
" id="ArialMT-63"/>
      <path d="M 6.203125 -19.96875 
L 5.21875 -11.71875 
Q 8.109375 -12.5 10.25 -12.5 
Q 13.1875 -12.5 14.9375 -11.515625 
Q 16.703125 -10.546875 17.828125 -8.796875 
Q 18.65625 -7.46875 20.515625 -2.25 
Q 20.75 -1.515625 21.296875 -0.09375 
L 1.609375 51.859375 
L 11.078125 51.859375 
L 21.875 21.828125 
Q 23.96875 16.109375 25.640625 9.8125 
Q 27.15625 15.875 29.25 21.625 
L 40.328125 51.859375 
L 49.125 51.859375 
L 29.390625 -0.875 
Q 26.21875 -9.421875 24.46875 -12.640625 
Q 22.125 -17 19.09375 -19.015625 
Q 16.0625 -21.046875 11.859375 -21.046875 
Q 9.328125 -21.046875 6.203125 -19.96875 
z
" id="ArialMT-79"/>
      <path id="ArialMT-20"/>
      <path d="M 6.78125 -19.875 
L 6.78125 71.578125 
L 26.171875 71.578125 
L 26.171875 64.3125 
L 15.578125 64.3125 
L 15.578125 -12.59375 
L 26.171875 -12.59375 
L 26.171875 -19.875 
z
" id="ArialMT-5b"/>
      <path d="M 8.015625 0 
L 8.015625 71.578125 
L 17.484375 71.578125 
L 17.484375 42.1875 
L 54.6875 42.1875 
L 54.6875 71.578125 
L 64.15625 71.578125 
L 64.15625 0 
L 54.6875 0 
L 54.6875 33.734375 
L 17.484375 33.734375 
L 17.484375 0 
z
" id="ArialMT-48"/>
      <path d="M 1.953125 0 
L 1.953125 7.125 
L 34.96875 45.015625 
Q 29.34375 44.734375 25.046875 44.734375 
L 3.90625 44.734375 
L 3.90625 51.859375 
L 46.296875 51.859375 
L 46.296875 46.046875 
L 18.21875 13.140625 
L 12.796875 7.125 
Q 18.703125 7.5625 23.875 7.5625 
L 47.859375 7.5625 
L 47.859375 0 
z
" id="ArialMT-7a"/>
      <path d="M 21.296875 -19.875 
L 1.90625 -19.875 
L 1.90625 -12.59375 
L 12.5 -12.59375 
L 12.5 64.3125 
L 1.90625 64.3125 
L 1.90625 71.578125 
L 21.296875 71.578125 
z
" id="ArialMT-5d"/>
     </defs>
     <g style="fill:#262626;" transform="translate(331.710859 546.658906)scale(0.11 -0.11)">
      <use xlink:href="#ArialMT-46"/>
      <use x="61.083984" xlink:href="#ArialMT-72"/>
      <use x="94.384766" xlink:href="#ArialMT-65"/>
      <use x="150" xlink:href="#ArialMT-71"/>
      <use x="205.615234" xlink:href="#ArialMT-75"/>
      <use x="261.230469" xlink:href="#ArialMT-65"/>
      <use x="316.845703" xlink:href="#ArialMT-6e"/>
      <use x="372.460938" xlink:href="#ArialMT-63"/>
      <use x="422.460938" xlink:href="#ArialMT-79"/>
      <use x="472.460938" xlink:href="#ArialMT-20"/>
      <use x="500.244141" xlink:href="#ArialMT-5b"/>
      <use x="528.027344" xlink:href="#ArialMT-48"/>
      <use x="600.244141" xlink:href="#ArialMT-7a"/>
      <use x="650.244141" xlink:href="#ArialMT-5d"/>
     </g>
    </g>
   </g>
   <g id="matplotlib.axis_4">
    <g id="ytick_10">
     <g id="line2d_25">
      <g>
       <use style="fill:#262626;stroke:#262626;" x="90" xlink:href="#m8da0288fb3" y="512.64"/>
      </g>
     </g>
     <g id="text_25">
      <!-- 0 -->
      <g style="fill:#262626;" transform="translate(71.439063 516.218906)scale(0.1 -0.1)">
       <use xlink:href="#ArialMT-30"/>
      </g>
     </g>
    </g>
    <g id="ytick_11">
     <g id="line2d_26">
      <g>
       <use style="fill:#262626;stroke:#262626;" x="90" xlink:href="#m8da0288fb3" y="483.84"/>
      </g>
     </g>
     <g id="text_26">
      <!-- 10 -->
      <g style="fill:#262626;" transform="translate(65.878125 487.418906)scale(0.1 -0.1)">
       <use xlink:href="#ArialMT-31"/>
       <use x="55.615234" xlink:href="#ArialMT-30"/>
      </g>
     </g>
    </g>
    <g id="ytick_12">
     <g id="line2d_27">
      <g>
       <use style="fill:#262626;stroke:#262626;" x="90" xlink:href="#m8da0288fb3" y="455.04"/>
      </g>
     </g>
     <g id="text_27">
      <!-- 20 -->
      <g style="fill:#262626;" transform="translate(65.878125 458.618906)scale(0.1 -0.1)">
       <use xlink:href="#ArialMT-32"/>
       <use x="55.615234" xlink:href="#ArialMT-30"/>
      </g>
     </g>
    </g>
    <g id="ytick_13">
     <g id="line2d_28">
      <g>
       <use style="fill:#262626;stroke:#262626;" x="90" xlink:href="#m8da0288fb3" y="426.24"/>
      </g>
     </g>
     <g id="text_28">
      <!-- 30 -->
      <g style="fill:#262626;" transform="translate(65.878125 429.818906)scale(0.1 -0.1)">
       <use xlink:href="#ArialMT-33"/>
       <use x="55.615234" xlink:href="#ArialMT-30"/>
      </g>
     </g>
    </g>
    <g id="ytick_14">
     <g id="line2d_29">
      <g>
       <use style="fill:#262626;stroke:#262626;" x="90" xlink:href="#m8da0288fb3" y="397.44"/>
      </g>
     </g>
     <g id="text_29">
      <!-- 40 -->
      <g style="fill:#262626;" transform="translate(65.878125 401.018906)scale(0.1 -0.1)">
       <use xlink:href="#ArialMT-34"/>
       <use x="55.615234" xlink:href="#ArialMT-30"/>
      </g>
     </g>
    </g>
    <g id="ytick_15">
     <g id="line2d_30">
      <g>
       <use style="fill:#262626;stroke:#262626;" x="90" xlink:href="#m8da0288fb3" y="368.64"/>
      </g>
     </g>
     <g id="text_30">
      <!-- 50 -->
      <g style="fill:#262626;" transform="translate(65.878125 372.218906)scale(0.1 -0.1)">
       <use xlink:href="#ArialMT-35"/>
       <use x="55.615234" xlink:href="#ArialMT-30"/>
      </g>
     </g>
    </g>
    <g id="ytick_16">
     <g id="line2d_31">
      <g>
       <use style="fill:#262626;stroke:#262626;" x="90" xlink:href="#m8da0288fb3" y="339.84"/>
      </g>
     </g>
     <g id="text_31">
      <!-- 60 -->
      <g style="fill:#262626;" transform="translate(65.878125 343.418906)scale(0.1 -0.1)">
       <use xlink:href="#ArialMT-36"/>
       <use x="55.615234" xlink:href="#ArialMT-30"/>
      </g>
     </g>
    </g>
    <g id="ytick_17">
     <g id="line2d_32">
      <g>
       <use style="fill:#262626;stroke:#262626;" x="90" xlink:href="#m8da0288fb3" y="311.04"/>
      </g>
     </g>
     <g id="text_32">
      <!-- 70 -->
      <g style="fill:#262626;" transform="translate(65.878125 314.618906)scale(0.1 -0.1)">
       <use xlink:href="#ArialMT-37"/>
       <use x="55.615234" xlink:href="#ArialMT-30"/>
      </g>
     </g>
    </g>
    <g id="text_33">
     <!-- Magnitude -->
     <defs>
      <path d="M 7.421875 0 
L 7.421875 71.578125 
L 21.6875 71.578125 
L 38.625 20.90625 
Q 40.96875 13.8125 42.046875 10.296875 
Q 43.265625 14.203125 45.84375 21.78125 
L 62.984375 71.578125 
L 75.734375 71.578125 
L 75.734375 0 
L 66.609375 0 
L 66.609375 59.90625 
L 45.796875 0 
L 37.25 0 
L 16.546875 60.9375 
L 16.546875 0 
z
" id="ArialMT-4d"/>
      <path d="M 40.4375 6.390625 
Q 35.546875 2.25 31.03125 0.53125 
Q 26.515625 -1.171875 21.34375 -1.171875 
Q 12.796875 -1.171875 8.203125 3 
Q 3.609375 7.171875 3.609375 13.671875 
Q 3.609375 17.484375 5.34375 20.625 
Q 7.078125 23.78125 9.890625 25.6875 
Q 12.703125 27.59375 16.21875 28.5625 
Q 18.796875 29.25 24.03125 29.890625 
Q 34.671875 31.15625 39.703125 32.90625 
Q 39.75 34.71875 39.75 35.203125 
Q 39.75 40.578125 37.25 42.78125 
Q 33.890625 45.75 27.25 45.75 
Q 21.046875 45.75 18.09375 43.578125 
Q 15.140625 41.40625 13.71875 35.890625 
L 5.125 37.0625 
Q 6.296875 42.578125 8.984375 45.96875 
Q 11.671875 49.359375 16.75 51.1875 
Q 21.828125 53.03125 28.515625 53.03125 
Q 35.15625 53.03125 39.296875 51.46875 
Q 43.453125 49.90625 45.40625 47.53125 
Q 47.359375 45.171875 48.140625 41.546875 
Q 48.578125 39.3125 48.578125 33.453125 
L 48.578125 21.734375 
Q 48.578125 9.46875 49.140625 6.21875 
Q 49.703125 2.984375 51.375 0 
L 42.1875 0 
Q 40.828125 2.734375 40.4375 6.390625 
z
M 39.703125 26.03125 
Q 34.90625 24.078125 25.34375 22.703125 
Q 19.921875 21.921875 17.671875 20.9375 
Q 15.4375 19.96875 14.203125 18.09375 
Q 12.984375 16.21875 12.984375 13.921875 
Q 12.984375 10.40625 15.640625 8.0625 
Q 18.3125 5.71875 23.4375 5.71875 
Q 28.515625 5.71875 32.46875 7.9375 
Q 36.421875 10.15625 38.28125 14.015625 
Q 39.703125 17 39.703125 22.796875 
z
" id="ArialMT-61"/>
      <path d="M 4.984375 -4.296875 
L 13.53125 -5.5625 
Q 14.0625 -9.515625 16.5 -11.328125 
Q 19.78125 -13.765625 25.4375 -13.765625 
Q 31.546875 -13.765625 34.859375 -11.328125 
Q 38.1875 -8.890625 39.359375 -4.5 
Q 40.046875 -1.8125 39.984375 6.78125 
Q 34.234375 0 25.640625 0 
Q 14.9375 0 9.078125 7.71875 
Q 3.21875 15.4375 3.21875 26.21875 
Q 3.21875 33.640625 5.90625 39.90625 
Q 8.59375 46.1875 13.6875 49.609375 
Q 18.796875 53.03125 25.6875 53.03125 
Q 34.859375 53.03125 40.828125 45.609375 
L 40.828125 51.859375 
L 48.921875 51.859375 
L 48.921875 7.03125 
Q 48.921875 -5.078125 46.453125 -10.125 
Q 44 -15.1875 38.640625 -18.109375 
Q 33.296875 -21.046875 25.484375 -21.046875 
Q 16.21875 -21.046875 10.5 -16.875 
Q 4.78125 -12.703125 4.984375 -4.296875 
z
M 12.25 26.859375 
Q 12.25 16.65625 16.296875 11.96875 
Q 20.359375 7.28125 26.46875 7.28125 
Q 32.515625 7.28125 36.609375 11.9375 
Q 40.71875 16.609375 40.71875 26.5625 
Q 40.71875 36.078125 36.5 40.90625 
Q 32.28125 45.75 26.3125 45.75 
Q 20.453125 45.75 16.34375 40.984375 
Q 12.25 36.234375 12.25 26.859375 
z
" id="ArialMT-67"/>
      <path d="M 6.640625 61.46875 
L 6.640625 71.578125 
L 15.4375 71.578125 
L 15.4375 61.46875 
z
M 6.640625 0 
L 6.640625 51.859375 
L 15.4375 51.859375 
L 15.4375 0 
z
" id="ArialMT-69"/>
      <path d="M 25.78125 7.859375 
L 27.046875 0.09375 
Q 23.34375 -0.6875 20.40625 -0.6875 
Q 15.625 -0.6875 12.984375 0.828125 
Q 10.359375 2.34375 9.28125 4.8125 
Q 8.203125 7.28125 8.203125 15.1875 
L 8.203125 45.015625 
L 1.765625 45.015625 
L 1.765625 51.859375 
L 8.203125 51.859375 
L 8.203125 64.703125 
L 16.9375 69.96875 
L 16.9375 51.859375 
L 25.78125 51.859375 
L 25.78125 45.015625 
L 16.9375 45.015625 
L 16.9375 14.703125 
Q 16.9375 10.9375 17.40625 9.859375 
Q 17.875 8.796875 18.921875 8.15625 
Q 19.96875 7.515625 21.921875 7.515625 
Q 23.390625 7.515625 25.78125 7.859375 
z
" id="ArialMT-74"/>
      <path d="M 40.234375 0 
L 40.234375 6.546875 
Q 35.296875 -1.171875 25.734375 -1.171875 
Q 19.53125 -1.171875 14.328125 2.25 
Q 9.125 5.671875 6.265625 11.796875 
Q 3.421875 17.921875 3.421875 25.875 
Q 3.421875 33.640625 6 39.96875 
Q 8.59375 46.296875 13.765625 49.65625 
Q 18.953125 53.03125 25.34375 53.03125 
Q 30.03125 53.03125 33.6875 51.046875 
Q 37.359375 49.078125 39.65625 45.90625 
L 39.65625 71.578125 
L 48.390625 71.578125 
L 48.390625 0 
z
M 12.453125 25.875 
Q 12.453125 15.921875 16.640625 10.984375 
Q 20.84375 6.0625 26.5625 6.0625 
Q 32.328125 6.0625 36.34375 10.765625 
Q 40.375 15.484375 40.375 25.140625 
Q 40.375 35.796875 36.265625 40.765625 
Q 32.171875 45.75 26.171875 45.75 
Q 20.3125 45.75 16.375 40.96875 
Q 12.453125 36.1875 12.453125 25.875 
z
" id="ArialMT-64"/>
     </defs>
     <g style="fill:#262626;" transform="translate(59.562969 437.522422)rotate(-90)scale(0.11 -0.11)">
      <use xlink:href="#ArialMT-4d"/>
      <use x="83.300781" xlink:href="#ArialMT-61"/>
      <use x="138.916016" xlink:href="#ArialMT-67"/>
      <use x="194.53125" xlink:href="#ArialMT-6e"/>
      <use x="250.146484" xlink:href="#ArialMT-69"/>
      <use x="272.363281" xlink:href="#ArialMT-74"/>
      <use x="300.146484" xlink:href="#ArialMT-75"/>
      <use x="355.761719" xlink:href="#ArialMT-64"/>
      <use x="411.376953" xlink:href="#ArialMT-65"/>
     </g>
    </g>
   </g>
   <g id="line2d_33">
    <path clip-path="url(#pf76937b4ed)" d="M 90 495.208 
L 101.16 496.246355 
L 112.32 497.676438 
L 123.48 496.773624 
L 134.64 495.319457 
L 145.8 494.970857 
L 156.96 496.496469 
L 168.12 493.948302 
L 179.28 491.922563 
L 190.44 492.701338 
L 201.6 493.08264 
L 212.76 488.265624 
L 223.92 486.884007 
L 235.08 484.919609 
L 246.24 481.076037 
L 257.4 476.781513 
L 268.56 466.885099 
L 279.72 461.735001 
L 290.88 446.632864 
L 302.04 392.641353 
L 313.2 347.842084 
" style="fill:none;stroke:#b22222;stroke-linecap:round;stroke-width:1.75;"/>
   </g>
   <g id="line2d_34">
    <path clip-path="url(#pf76937b4ed)" d="M 324.36 512.64 
L 324.36 311.04 
" style="fill:none;stroke:#778899;stroke-linecap:round;stroke-width:1.75;"/>
   </g>
   <g id="patch_6">
    <path d="M 90 512.64 
L 90 311.04 
" style="fill:none;stroke:#262626;stroke-linecap:square;stroke-linejoin:miter;stroke-width:1.25;"/>
   </g>
   <g id="patch_7">
    <path d="M 90 512.64 
L 648 512.64 
" style="fill:none;stroke:#262626;stroke-linecap:square;stroke-linejoin:miter;stroke-width:1.25;"/>
   </g>
   <g id="text_34">
    <!-- A4 = 440 Hz -->
    <defs>
     <path d="M -0.140625 0 
L 27.34375 71.578125 
L 37.546875 71.578125 
L 66.84375 0 
L 56.0625 0 
L 47.703125 21.6875 
L 17.78125 21.6875 
L 9.90625 0 
z
M 20.515625 29.390625 
L 44.78125 29.390625 
L 37.3125 49.21875 
Q 33.890625 58.25 32.234375 64.0625 
Q 30.859375 57.171875 28.375 50.390625 
z
" id="ArialMT-41"/>
     <path d="M 52.828125 42.09375 
L 5.5625 42.09375 
L 5.5625 50.296875 
L 52.828125 50.296875 
z
M 52.828125 20.359375 
L 5.5625 20.359375 
L 5.5625 28.5625 
L 52.828125 28.5625 
z
" id="ArialMT-3d"/>
    </defs>
    <g style="fill:#262626;" transform="translate(257.4 371.742188)scale(0.12 -0.12)">
     <use xlink:href="#ArialMT-41"/>
     <use x="66.699219" xlink:href="#ArialMT-34"/>
     <use x="122.314453" xlink:href="#ArialMT-20"/>
     <use x="150.097656" xlink:href="#ArialMT-3d"/>
     <use x="208.496094" xlink:href="#ArialMT-20"/>
     <use x="236.279297" xlink:href="#ArialMT-34"/>
     <use x="291.894531" xlink:href="#ArialMT-34"/>
     <use x="347.509766" xlink:href="#ArialMT-30"/>
     <use x="403.125" xlink:href="#ArialMT-20"/>
     <use x="430.908203" xlink:href="#ArialMT-48"/>
     <use x="503.125" xlink:href="#ArialMT-7a"/>
    </g>
   </g>
   <g id="text_35">
    <!-- f = 420 Hz -->
    <defs>
     <path d="M 8.6875 0 
L 8.6875 45.015625 
L 0.921875 45.015625 
L 0.921875 51.859375 
L 8.6875 51.859375 
L 8.6875 57.375 
Q 8.6875 62.59375 9.625 65.140625 
Q 10.890625 68.5625 14.078125 70.671875 
Q 17.28125 72.796875 23.046875 72.796875 
Q 26.765625 72.796875 31.25 71.921875 
L 29.9375 64.265625 
Q 27.203125 64.75 24.75 64.75 
Q 20.75 64.75 19.09375 63.03125 
Q 17.4375 61.328125 17.4375 56.640625 
L 17.4375 51.859375 
L 27.546875 51.859375 
L 27.546875 45.015625 
L 17.4375 45.015625 
L 17.4375 0 
z
" id="ArialMT-66"/>
    </defs>
    <g style="fill:#262626;" transform="translate(317.664 345.184272)scale(0.12 -0.12)">
     <use xlink:href="#ArialMT-66"/>
     <use x="27.783203" xlink:href="#ArialMT-20"/>
     <use x="55.566406" xlink:href="#ArialMT-3d"/>
     <use x="113.964844" xlink:href="#ArialMT-20"/>
     <use x="141.748047" xlink:href="#ArialMT-34"/>
     <use x="197.363281" xlink:href="#ArialMT-32"/>
     <use x="252.978516" xlink:href="#ArialMT-30"/>
     <use x="308.59375" xlink:href="#ArialMT-20"/>
     <use x="336.376953" xlink:href="#ArialMT-48"/>
     <use x="408.59375" xlink:href="#ArialMT-7a"/>
    </g>
   </g>
   <g id="PathCollection_1">
    <defs>
     <path d="M 0 3.5 
C 0.928211 3.5 1.81853 3.131218 2.474874 2.474874 
C 3.131218 1.81853 3.5 0.928211 3.5 0 
C 3.5 -0.928211 3.131218 -1.81853 2.474874 -2.474874 
C 1.81853 -3.131218 0.928211 -3.5 0 -3.5 
C -0.928211 -3.5 -1.81853 -3.131218 -2.474874 -2.474874 
C -3.131218 -1.81853 -3.5 -0.928211 -3.5 0 
C -3.5 0.928211 -3.131218 1.81853 -2.474874 2.474874 
C -1.81853 3.131218 -0.928211 3.5 0 3.5 
z
" id="m20bae1ccc3" style="stroke:#800000;stroke-width:0.3;"/>
    </defs>
    <g clip-path="url(#pf76937b4ed)">
     <use style="fill:#800000;stroke:#800000;stroke-width:0.3;" x="313.2" xlink:href="#m20bae1ccc3" y="347.842084"/>
    </g>
   </g>
  </g>
 </g>
 <defs>
  <clipPath id="pcc238d0dde">
   <rect height="201.6" width="558" x="90" y="69.12"/>
  </clipPath>
  <clipPath id="pf76937b4ed">
   <rect height="201.6" width="558" x="90" y="311.04"/>
  </clipPath>
 </defs>
</svg>
