<?xml version="1.0" encoding="utf-8" standalone="no"?>
<!DOCTYPE svg PUBLIC "-//W3C//DTD SVG 1.1//EN"
  "http://www.w3.org/Graphics/SVG/1.1/DTD/svg11.dtd">
<!-- Created with matplotlib (http://matplotlib.org/) -->
<svg height="576pt" version="1.1" viewBox="0 0 720 576" width="720pt" xmlns="http://www.w3.org/2000/svg" xmlns:xlink="http://www.w3.org/1999/xlink">
 <defs>
  <style type="text/css">
*{stroke-linecap:butt;stroke-linejoin:round;}
  </style>
 </defs>
 <g id="figure_1">
  <g id="patch_1">
   <path d="M 0 576 
L 720 576 
L 720 0 
L 0 0 
z
" style="fill:#ffffff;"/>
  </g>
  <g id="axes_1">
   <g id="patch_2">
    <path d="M 90 270.72 
L 648 270.72 
L 648 69.12 
L 90 69.12 
z
" style="fill:#ffffff;"/>
   </g>
   <g id="matplotlib.axis_1">
    <g id="xtick_1">
     <g id="line2d_1">
      <defs>
       <path d="M 0 0 
L 0 6 
" id="m87a59592ab" style="stroke:#262626;"/>
      </defs>
      <g>
       <use style="fill:#262626;stroke:#262626;" x="90" xlink:href="#m87a59592ab" y="270.72"/>
      </g>
     </g>
     <g id="text_1">
      <!-- 0 -->
      <defs>
       <path d="M 4.15625 35.296875 
Q 4.15625 48 6.765625 55.734375 
Q 9.375 63.484375 14.515625 67.671875 
Q 19.671875 71.875 27.484375 71.875 
Q 33.25 71.875 37.59375 69.546875 
Q 41.9375 67.234375 44.765625 62.859375 
Q 47.609375 58.5 49.21875 52.21875 
Q 50.828125 45.953125 50.828125 35.296875 
Q 50.828125 22.703125 48.234375 14.96875 
Q 45.65625 7.234375 40.5 3 
Q 35.359375 -1.21875 27.484375 -1.21875 
Q 17.140625 -1.21875 11.234375 6.203125 
Q 4.15625 15.140625 4.15625 35.296875 
z
M 13.1875 35.296875 
Q 13.1875 17.671875 17.3125 11.828125 
Q 21.4375 6 27.484375 6 
Q 33.546875 6 37.671875 11.859375 
Q 41.796875 17.71875 41.796875 35.296875 
Q 41.796875 52.984375 37.671875 58.78125 
Q 33.546875 64.59375 27.390625 64.59375 
Q 21.34375 64.59375 17.71875 59.46875 
Q 13.1875 52.9375 13.1875 35.296875 
z
" id="ArialMT-30"/>
      </defs>
      <g style="fill:#262626;" transform="translate(87.219531 290.877812)scale(0.1 -0.1)">
       <use xlink:href="#ArialMT-30"/>
      </g>
     </g>
    </g>
    <g id="xtick_2">
     <g id="line2d_2">
      <g>
       <use style="fill:#262626;stroke:#262626;" x="198.984375" xlink:href="#m87a59592ab" y="270.72"/>
      </g>
     </g>
     <g id="text_2">
      <!-- 200 -->
      <defs>
       <path d="M 50.34375 8.453125 
L 50.34375 0 
L 3.03125 0 
Q 2.9375 3.171875 4.046875 6.109375 
Q 5.859375 10.9375 9.828125 15.625 
Q 13.8125 20.3125 21.34375 26.46875 
Q 33.015625 36.03125 37.109375 41.625 
Q 41.21875 47.21875 41.21875 52.203125 
Q 41.21875 57.421875 37.46875 61 
Q 33.734375 64.59375 27.734375 64.59375 
Q 21.390625 64.59375 17.578125 60.78125 
Q 13.765625 56.984375 13.71875 50.25 
L 4.6875 51.171875 
Q 5.609375 61.28125 11.65625 66.578125 
Q 17.71875 71.875 27.9375 71.875 
Q 38.234375 71.875 44.234375 66.15625 
Q 50.25 60.453125 50.25 52 
Q 50.25 47.703125 48.484375 43.546875 
Q 46.734375 39.40625 42.65625 34.8125 
Q 38.578125 30.21875 29.109375 22.21875 
Q 21.1875 15.578125 18.9375 13.203125 
Q 16.703125 10.84375 15.234375 8.453125 
z
" id="ArialMT-32"/>
      </defs>
      <g style="fill:#262626;" transform="translate(190.642969 290.877812)scale(0.1 -0.1)">
       <use xlink:href="#ArialMT-32"/>
       <use x="55.615234" xlink:href="#ArialMT-30"/>
       <use x="111.230469" xlink:href="#ArialMT-30"/>
      </g>
     </g>
    </g>
    <g id="xtick_3">
     <g id="line2d_3">
      <g>
       <use style="fill:#262626;stroke:#262626;" x="307.96875" xlink:href="#m87a59592ab" y="270.72"/>
      </g>
     </g>
     <g id="text_3">
      <!-- 400 -->
      <defs>
       <path d="M 32.328125 0 
L 32.328125 17.140625 
L 1.265625 17.140625 
L 1.265625 25.203125 
L 33.9375 71.578125 
L 41.109375 71.578125 
L 41.109375 25.203125 
L 50.78125 25.203125 
L 50.78125 17.140625 
L 41.109375 17.140625 
L 41.109375 0 
z
M 32.328125 25.203125 
L 32.328125 57.46875 
L 9.90625 25.203125 
z
" id="ArialMT-34"/>
      </defs>
      <g style="fill:#262626;" transform="translate(299.627344 290.877812)scale(0.1 -0.1)">
       <use xlink:href="#ArialMT-34"/>
       <use x="55.615234" xlink:href="#ArialMT-30"/>
       <use x="111.230469" xlink:href="#ArialMT-30"/>
      </g>
     </g>
    </g>
    <g id="xtick_4">
     <g id="line2d_4">
      <g>
       <use style="fill:#262626;stroke:#262626;" x="416.953125" xlink:href="#m87a59592ab" y="270.72"/>
      </g>
     </g>
     <g id="text_4">
      <!-- 600 -->
      <defs>
       <path d="M 49.75 54.046875 
L 41.015625 53.375 
Q 39.84375 58.546875 37.703125 60.890625 
Q 34.125 64.65625 28.90625 64.65625 
Q 24.703125 64.65625 21.53125 62.3125 
Q 17.390625 59.28125 14.984375 53.46875 
Q 12.59375 47.65625 12.5 36.921875 
Q 15.671875 41.75 20.265625 44.09375 
Q 24.859375 46.4375 29.890625 46.4375 
Q 38.671875 46.4375 44.84375 39.96875 
Q 51.03125 33.5 51.03125 23.25 
Q 51.03125 16.5 48.125 10.71875 
Q 45.21875 4.9375 40.140625 1.859375 
Q 35.0625 -1.21875 28.609375 -1.21875 
Q 17.625 -1.21875 10.6875 6.859375 
Q 3.765625 14.9375 3.765625 33.5 
Q 3.765625 54.25 11.421875 63.671875 
Q 18.109375 71.875 29.4375 71.875 
Q 37.890625 71.875 43.28125 67.140625 
Q 48.6875 62.40625 49.75 54.046875 
z
M 13.875 23.1875 
Q 13.875 18.65625 15.796875 14.5 
Q 17.71875 10.359375 21.1875 8.171875 
Q 24.65625 6 28.46875 6 
Q 34.03125 6 38.03125 10.484375 
Q 42.046875 14.984375 42.046875 22.703125 
Q 42.046875 30.125 38.078125 34.390625 
Q 34.125 38.671875 28.125 38.671875 
Q 22.171875 38.671875 18.015625 34.390625 
Q 13.875 30.125 13.875 23.1875 
z
" id="ArialMT-36"/>
      </defs>
      <g style="fill:#262626;" transform="translate(408.611719 290.877812)scale(0.1 -0.1)">
       <use xlink:href="#ArialMT-36"/>
       <use x="55.615234" xlink:href="#ArialMT-30"/>
       <use x="111.230469" xlink:href="#ArialMT-30"/>
      </g>
     </g>
    </g>
    <g id="xtick_5">
     <g id="line2d_5">
      <g>
       <use style="fill:#262626;stroke:#262626;" x="525.9375" xlink:href="#m87a59592ab" y="270.72"/>
      </g>
     </g>
     <g id="text_5">
      <!-- 800 -->
      <defs>
       <path d="M 17.671875 38.8125 
Q 12.203125 40.828125 9.5625 44.53125 
Q 6.9375 48.25 6.9375 53.421875 
Q 6.9375 61.234375 12.546875 66.546875 
Q 18.171875 71.875 27.484375 71.875 
Q 36.859375 71.875 42.578125 66.421875 
Q 48.296875 60.984375 48.296875 53.171875 
Q 48.296875 48.1875 45.671875 44.5 
Q 43.0625 40.828125 37.75 38.8125 
Q 44.34375 36.671875 47.78125 31.875 
Q 51.21875 27.09375 51.21875 20.453125 
Q 51.21875 11.28125 44.71875 5.03125 
Q 38.234375 -1.21875 27.640625 -1.21875 
Q 17.046875 -1.21875 10.546875 5.046875 
Q 4.046875 11.328125 4.046875 20.703125 
Q 4.046875 27.6875 7.59375 32.390625 
Q 11.140625 37.109375 17.671875 38.8125 
z
M 15.921875 53.71875 
Q 15.921875 48.640625 19.1875 45.40625 
Q 22.46875 42.1875 27.6875 42.1875 
Q 32.765625 42.1875 36.015625 45.375 
Q 39.265625 48.578125 39.265625 53.21875 
Q 39.265625 58.0625 35.90625 61.359375 
Q 32.5625 64.65625 27.59375 64.65625 
Q 22.5625 64.65625 19.234375 61.421875 
Q 15.921875 58.203125 15.921875 53.71875 
z
M 13.09375 20.65625 
Q 13.09375 16.890625 14.875 13.375 
Q 16.65625 9.859375 20.171875 7.921875 
Q 23.6875 6 27.734375 6 
Q 34.03125 6 38.125 10.046875 
Q 42.234375 14.109375 42.234375 20.359375 
Q 42.234375 26.703125 38.015625 30.859375 
Q 33.796875 35.015625 27.4375 35.015625 
Q 21.234375 35.015625 17.15625 30.90625 
Q 13.09375 26.8125 13.09375 20.65625 
z
" id="ArialMT-38"/>
      </defs>
      <g style="fill:#262626;" transform="translate(517.596094 290.877812)scale(0.1 -0.1)">
       <use xlink:href="#ArialMT-38"/>
       <use x="55.615234" xlink:href="#ArialMT-30"/>
       <use x="111.230469" xlink:href="#ArialMT-30"/>
      </g>
     </g>
    </g>
    <g id="xtick_6">
     <g id="line2d_6">
      <g>
       <use style="fill:#262626;stroke:#262626;" x="634.921875" xlink:href="#m87a59592ab" y="270.72"/>
      </g>
     </g>
     <g id="text_6">
      <!-- 1000 -->
      <defs>
       <path d="M 37.25 0 
L 28.46875 0 
L 28.46875 56 
Q 25.296875 52.984375 20.140625 49.953125 
Q 14.984375 46.921875 10.890625 45.40625 
L 10.890625 53.90625 
Q 18.265625 57.375 23.78125 62.296875 
Q 29.296875 67.234375 31.59375 71.875 
L 37.25 71.875 
z
" id="ArialMT-31"/>
      </defs>
      <g style="fill:#262626;" transform="translate(623.8 290.877812)scale(0.1 -0.1)">
       <use xlink:href="#ArialMT-31"/>
       <use x="55.615234" xlink:href="#ArialMT-30"/>
       <use x="111.230469" xlink:href="#ArialMT-30"/>
       <use x="166.845703" xlink:href="#ArialMT-30"/>
      </g>
     </g>
    </g>
   </g>
   <g id="matplotlib.axis_2">
    <g id="ytick_1">
     <g id="line2d_7">
      <defs>
       <path d="M 0 0 
L -6 0 
" id="ma71046f308" style="stroke:#262626;"/>
      </defs>
      <g>
       <use style="fill:#262626;stroke:#262626;" x="90" xlink:href="#ma71046f308" y="270.72"/>
      </g>
     </g>
     <g id="text_7">
      <!-- −0.6 -->
      <defs>
       <path d="M 52.828125 31.203125 
L 5.5625 31.203125 
L 5.5625 39.40625 
L 52.828125 39.40625 
z
" id="ArialMT-2212"/>
       <path d="M 9.078125 0 
L 9.078125 10.015625 
L 19.09375 10.015625 
L 19.09375 0 
z
" id="ArialMT-2e"/>
      </defs>
      <g style="fill:#262626;" transform="translate(57.259375 274.298906)scale(0.1 -0.1)">
       <use xlink:href="#ArialMT-2212"/>
       <use x="58.398438" xlink:href="#ArialMT-30"/>
       <use x="114.013672" xlink:href="#ArialMT-2e"/>
       <use x="141.796875" xlink:href="#ArialMT-36"/>
      </g>
     </g>
    </g>
    <g id="ytick_2">
     <g id="line2d_8">
      <g>
       <use style="fill:#262626;stroke:#262626;" x="90" xlink:href="#ma71046f308" y="237.12"/>
      </g>
     </g>
     <g id="text_8">
      <!-- −0.4 -->
      <g style="fill:#262626;" transform="translate(57.259375 240.698906)scale(0.1 -0.1)">
       <use xlink:href="#ArialMT-2212"/>
       <use x="58.398438" xlink:href="#ArialMT-30"/>
       <use x="114.013672" xlink:href="#ArialMT-2e"/>
       <use x="141.796875" xlink:href="#ArialMT-34"/>
      </g>
     </g>
    </g>
    <g id="ytick_3">
     <g id="line2d_9">
      <g>
       <use style="fill:#262626;stroke:#262626;" x="90" xlink:href="#ma71046f308" y="203.52"/>
      </g>
     </g>
     <g id="text_9">
      <!-- −0.2 -->
      <g style="fill:#262626;" transform="translate(57.259375 207.098906)scale(0.1 -0.1)">
       <use xlink:href="#ArialMT-2212"/>
       <use x="58.398438" xlink:href="#ArialMT-30"/>
       <use x="114.013672" xlink:href="#ArialMT-2e"/>
       <use x="141.796875" xlink:href="#ArialMT-32"/>
      </g>
     </g>
    </g>
    <g id="ytick_4">
     <g id="line2d_10">
      <g>
       <use style="fill:#262626;stroke:#262626;" x="90" xlink:href="#ma71046f308" y="169.92"/>
      </g>
     </g>
     <g id="text_10">
      <!-- 0.0 -->
      <g style="fill:#262626;" transform="translate(63.1 173.498906)scale(0.1 -0.1)">
       <use xlink:href="#ArialMT-30"/>
       <use x="55.615234" xlink:href="#ArialMT-2e"/>
       <use x="83.398438" xlink:href="#ArialMT-30"/>
      </g>
     </g>
    </g>
    <g id="ytick_5">
     <g id="line2d_11">
      <g>
       <use style="fill:#262626;stroke:#262626;" x="90" xlink:href="#ma71046f308" y="136.32"/>
      </g>
     </g>
     <g id="text_11">
      <!-- 0.2 -->
      <g style="fill:#262626;" transform="translate(63.1 139.898906)scale(0.1 -0.1)">
       <use xlink:href="#ArialMT-30"/>
       <use x="55.615234" xlink:href="#ArialMT-2e"/>
       <use x="83.398438" xlink:href="#ArialMT-32"/>
      </g>
     </g>
    </g>
    <g id="ytick_6">
     <g id="line2d_12">
      <g>
       <use style="fill:#262626;stroke:#262626;" x="90" xlink:href="#ma71046f308" y="102.72"/>
      </g>
     </g>
     <g id="text_12">
      <!-- 0.4 -->
      <g style="fill:#262626;" transform="translate(63.1 106.298906)scale(0.1 -0.1)">
       <use xlink:href="#ArialMT-30"/>
       <use x="55.615234" xlink:href="#ArialMT-2e"/>
       <use x="83.398438" xlink:href="#ArialMT-34"/>
      </g>
     </g>
    </g>
    <g id="ytick_7">
     <g id="line2d_13">
      <g>
       <use style="fill:#262626;stroke:#262626;" x="90" xlink:href="#ma71046f308" y="69.12"/>
      </g>
     </g>
     <g id="text_13">
      <!-- 0.6 -->
      <g style="fill:#262626;" transform="translate(63.1 72.698906)scale(0.1 -0.1)">
       <use xlink:href="#ArialMT-30"/>
       <use x="55.615234" xlink:href="#ArialMT-2e"/>
       <use x="83.398438" xlink:href="#ArialMT-36"/>
      </g>
     </g>
    </g>
   </g>
   <g id="line2d_14">
    <path clip-path="url(#p357719338a)" d="M 90 189.79207 
L 90.544922 184.639482 
L 91.089844 181.122393 
L 91.634766 180.35335 
L 92.179688 182.434893 
L 92.724609 186.751787 
L 93.814453 196.600664 
L 94.359375 199.692217 
L 94.904297 201.014971 
L 95.449219 200.533037 
L 95.994141 198.774492 
L 97.083984 194.14998 
L 97.628906 193.637285 
L 98.173828 194.703691 
L 98.71875 196.82625 
L 99.263672 199.912676 
L 99.808594 202.132646 
L 100.353516 201.42 
L 100.898438 197.769609 
L 101.443359 192.227373 
L 102.533203 177.477129 
L 103.078125 172.232256 
L 103.623047 170.03792 
L 104.167969 170.448076 
L 104.712891 172.104082 
L 105.802734 176.677324 
L 106.347656 177.379717 
L 106.892578 176.113359 
L 107.4375 173.293535 
L 109.072266 160.137773 
L 109.617188 157.189775 
L 110.162109 155.984941 
L 110.707031 155.349199 
L 111.251953 155.36458 
L 111.796875 155.251787 
L 112.341797 154.559648 
L 112.886719 152.021807 
L 113.976562 143.459795 
L 114.521484 139.0096 
L 115.066406 136.748613 
L 115.611328 135.97957 
L 116.15625 136.866533 
L 116.701172 138.512285 
L 117.246094 140.527178 
L 117.791016 141.214189 
L 118.335938 140.029863 
L 118.880859 136.589678 
L 119.970703 124.269609 
L 120.515625 117.461016 
L 121.060547 113.323564 
L 121.605469 113.210771 
L 122.150391 117.845537 
L 122.695312 126.494707 
L 124.330078 161.08626 
L 124.875 169.658525 
L 125.419922 175.046953 
L 125.964844 177.718096 
L 126.509766 177.994951 
L 127.054688 177.307939 
L 127.599609 177.697588 
L 128.144531 179.835527 
L 129.234375 187.187578 
L 129.779297 190.991777 
L 130.324219 193.380937 
L 130.869141 193.909014 
L 131.414062 192.006914 
L 131.958984 186.890215 
L 132.503906 179.502275 
L 133.59375 159.609697 
L 135.228516 125.761553 
L 135.773438 116.435625 
L 136.318359 109.411699 
L 136.863281 104.556475 
L 137.408203 102.685137 
L 137.953125 102.823564 
L 140.132812 107.494219 
L 140.677734 110.114092 
L 141.222656 115.143633 
L 141.767578 123.044268 
L 143.947266 164.649492 
L 144.492188 171.622148 
L 145.037109 175.600664 
L 145.582031 175.933916 
L 146.126953 172.545 
L 146.671875 166.418291 
L 147.761719 152.026934 
L 148.306641 147.479326 
L 148.851562 146.64876 
L 149.396484 149.499346 
L 150.486328 160.722246 
L 151.03125 164.61873 
L 151.576172 164.967363 
L 152.121094 161.660479 
L 153.210938 150.658037 
L 153.755859 146.905107 
L 154.300781 145.7054 
L 154.845703 147.156328 
L 155.390625 150.094072 
L 155.935547 153.785479 
L 156.480469 156.55916 
L 157.025391 157.584551 
L 157.570312 155.974687 
L 158.115234 151.329668 
L 159.205078 139.081377 
L 159.75 135.753984 
L 160.294922 136.820391 
L 160.839844 142.254961 
L 161.384766 150.606768 
L 163.019531 180.337969 
L 163.564453 186.331377 
L 164.109375 189.140947 
L 164.654297 190.443193 
L 165.199219 191.284014 
L 165.744141 193.134844 
L 166.289062 197.092852 
L 167.378906 209.679521 
L 167.923828 216.667559 
L 168.46875 222.153398 
L 169.013672 224.20418 
L 169.558594 222.189287 
L 170.103516 215.62166 
L 171.193359 192.206865 
L 172.283203 168.751055 
L 172.828125 162.193682 
L 173.373047 159.814775 
L 173.917969 161.03499 
L 175.552734 170.822344 
L 176.097656 171.206865 
L 176.642578 169.176592 
L 177.1875 165.198076 
L 178.277344 154.595537 
L 178.822266 151.652666 
L 179.367188 151.750078 
L 179.912109 155.072344 
L 181.546875 172.350176 
L 182.091797 174.847002 
L 182.636719 174.4471 
L 183.181641 171.094072 
L 185.361328 150.088945 
L 185.90625 148.586748 
L 186.451172 150.140215 
L 186.996094 153.672686 
L 188.085938 162.075762 
L 188.630859 165.418535 
L 189.175781 166.936113 
L 189.720703 166.413164 
L 190.810547 163.162676 
L 191.355469 163.249834 
L 191.900391 164.803301 
L 193.535156 174.51375 
L 194.080078 176.149248 
L 194.625 176.169756 
L 195.169922 174.180498 
L 196.804688 160.999102 
L 197.349609 159.281572 
L 197.894531 160.230059 
L 198.439453 163.557451 
L 199.529297 174.283037 
L 200.074219 179.958574 
L 200.619141 183.88582 
L 201.164062 186.121172 
L 201.708984 185.992998 
L 202.253906 185.172686 
L 202.798828 184.767656 
L 203.34375 186.823564 
L 203.888672 191.899248 
L 204.433594 199.574297 
L 206.068359 226.936846 
L 206.613281 229.202959 
L 207.158203 224.937334 
L 207.703125 213.934893 
L 208.792969 178.343584 
L 209.882812 139.460771 
L 210.427734 124.669512 
L 210.972656 115.297441 
L 211.517578 111.826494 
L 212.0625 112.800615 
L 212.607422 115.963945 
L 214.242188 127.961016 
L 215.332031 134.051836 
L 215.876953 136.302568 
L 216.421875 139.055742 
L 216.966797 143.454668 
L 217.511719 150.186357 
L 218.056641 158.958574 
L 219.691406 191.914629 
L 220.236328 199.440996 
L 220.78125 202.645342 
L 221.326172 202.373613 
L 221.871094 199.379473 
L 222.960938 191.207109 
L 223.505859 189.038408 
L 224.050781 188.484697 
L 225.685547 189.771562 
L 226.230469 188.987139 
L 226.775391 185.449541 
L 227.320312 178.80501 
L 229.5 143.290605 
L 230.044922 141.39876 
L 230.589844 144.592852 
L 231.134766 151.698809 
L 232.224609 168.284502 
L 232.769531 174.252275 
L 233.314453 177.933428 
L 233.859375 180.671221 
L 234.404297 182.665605 
L 235.494141 185.634111 
L 236.039062 187.674639 
L 237.128906 193.380937 
L 237.673828 195.047197 
L 238.21875 194.129473 
L 238.763672 190.386797 
L 239.308594 183.680742 
L 240.943359 157.307695 
L 241.488281 152.242266 
L 242.033203 151.319414 
L 242.578125 154.682695 
L 244.757812 178.405107 
L 245.302734 179.979082 
L 245.847656 178.948564 
L 246.392578 175.923662 
L 248.027344 163.096025 
L 248.572266 160.230059 
L 249.117188 159.414873 
L 249.662109 159.942949 
L 250.751953 163.818926 
L 251.841797 166.531084 
L 252.386719 168.669023 
L 252.931641 172.129717 
L 253.476562 176.400469 
L 254.566406 189.463945 
L 255.111328 199.061602 
L 256.201172 225.624346 
L 257.291016 253.14583 
L 257.835938 262.994707 
L 258.380859 267.737139 
L 258.925781 267.485918 
L 259.470703 262.169268 
L 261.650391 231.346025 
L 262.195312 227.782793 
L 263.830078 222.138018 
L 264.375 218.60042 
L 264.919922 213.873369 
L 266.554688 196.810869 
L 267.099609 194.580645 
L 267.644531 195.63167 
L 268.189453 198.948809 
L 268.734375 203.055498 
L 269.279297 205.931719 
L 269.824219 206.495684 
L 270.369141 203.542559 
L 270.914062 197.221025 
L 273.09375 165.936357 
L 273.638672 161.86043 
L 274.183594 159.727617 
L 275.273438 157.912676 
L 275.818359 155.841387 
L 276.363281 152.021807 
L 277.998047 135.051592 
L 278.542969 130.673174 
L 279.087891 127.961016 
L 279.632812 127.140703 
L 280.177734 129.191484 
L 280.722656 133.231523 
L 281.8125 143.546953 
L 282.357422 147.06917 
L 282.902344 147.535723 
L 283.447266 145.310625 
L 284.537109 136.733232 
L 285.082031 134.174883 
L 285.626953 133.672441 
L 286.171875 136.153887 
L 286.716797 141.896074 
L 288.896484 171.683672 
L 289.441406 173.38582 
L 289.986328 171.032549 
L 290.53125 165.56209 
L 291.621094 151.934648 
L 292.166016 147.894609 
L 292.710938 147.499834 
L 293.255859 150.329912 
L 293.800781 156.092607 
L 294.890625 173.08333 
L 295.980469 190.899492 
L 296.525391 195.857256 
L 297.070312 197.031328 
L 297.615234 193.934648 
L 298.160156 186.833818 
L 300.884766 138.994219 
L 303.064453 112.457109 
L 304.154297 105.06917 
L 304.699219 101.823809 
L 305.244141 99.301348 
L 305.789062 97.973467 
L 306.333984 99.562822 
L 306.878906 104.705156 
L 307.423828 113.728594 
L 308.513672 139.060869 
L 309.603516 166.254229 
L 310.693359 189.479326 
L 311.783203 209.064287 
L 312.873047 225.306475 
L 313.962891 238.195635 
L 314.507812 241.861406 
L 315.052734 242.604814 
L 315.597656 240.364336 
L 316.142578 234.904131 
L 316.6875 227.223955 
L 317.777344 207.346758 
L 318.867188 187.674639 
L 319.957031 173.232012 
L 322.681641 140.752764 
L 323.226562 139.701738 
L 323.771484 141.332109 
L 324.316406 146.197588 
L 324.861328 153.852129 
L 326.496094 180.978838 
L 327.041016 186.085283 
L 327.585938 187.956621 
L 328.130859 186.454424 
L 330.310547 170.991533 
L 330.855469 168.663896 
L 331.400391 168.084551 
L 331.945312 168.925371 
L 332.490234 171.242754 
L 334.125 181.517168 
L 334.669922 183.260332 
L 335.214844 183.567949 
L 335.759766 182.229814 
L 337.394531 176.164629 
L 337.939453 175.575029 
L 338.484375 174.775225 
L 339.029297 173.713945 
L 339.574219 170.796709 
L 340.119141 165.541582 
L 340.664062 157.271807 
L 342.84375 117.148271 
L 343.388672 112.359697 
L 343.933594 111.862383 
L 344.478516 115.169268 
L 345.023438 121.818926 
L 346.113281 139.963213 
L 347.748047 166.233721 
L 348.837891 180.373857 
L 349.927734 191.10457 
L 350.472656 194.965166 
L 351.017578 197.169756 
L 351.5625 197.646562 
L 352.107422 195.421465 
L 352.652344 191.39168 
L 353.742188 179.717607 
L 354.287109 175.482744 
L 354.832031 173.006426 
L 355.376953 173.08333 
L 355.921875 174.467607 
L 357.556641 182.357988 
L 359.191406 190.150957 
L 360.28125 193.411699 
L 360.826172 194.498613 
L 361.371094 196.780107 
L 362.460938 201.953203 
L 363.005859 203.127275 
L 363.550781 203.414385 
L 364.095703 202.522295 
L 364.640625 200.902178 
L 365.185547 198.261797 
L 365.730469 194.329424 
L 366.275391 188.823076 
L 367.365234 174.949541 
L 368.455078 160.993975 
L 369 155.826006 
L 369.544922 152.903643 
L 370.634766 148.755937 
L 371.179688 145.720781 
L 371.724609 141.34749 
L 372.814453 128.289141 
L 374.449219 105.499834 
L 374.994141 99.670488 
L 375.539062 95.979082 
L 376.083984 95.210039 
L 376.628906 98.3221 
L 377.173828 103.987383 
L 377.71875 111.149736 
L 378.263672 116.666338 
L 378.808594 119.886064 
L 379.353516 119.988604 
L 379.898438 117.84041 
L 380.443359 114.292559 
L 382.078125 98.696367 
L 382.623047 95.866289 
L 383.167969 95.702227 
L 383.712891 99.311602 
L 384.257812 106.012529 
L 385.347656 125.576982 
L 386.4375 144.926104 
L 386.982422 151.991045 
L 387.527344 156.425859 
L 388.072266 159.107256 
L 388.617188 160.148027 
L 389.162109 159.619951 
L 389.707031 158.40999 
L 390.251953 155.83626 
L 390.796875 152.124346 
L 391.341797 147.571611 
L 392.431641 135.625811 
L 393.521484 120.88582 
L 395.15625 96.138018 
L 395.701172 90.539385 
L 396.246094 86.601885 
L 396.791016 85.458574 
L 397.335938 86.499346 
L 397.880859 89.365312 
L 398.425781 94.358965 
L 398.970703 101.454668 
L 400.060547 121.624102 
L 401.150391 147.243486 
L 403.330078 205.142168 
L 403.875 216.047197 
L 404.419922 223.460771 
L 404.964844 228.367266 
L 407.144531 241.815264 
L 407.689453 244.747881 
L 408.234375 246.737139 
L 408.779297 246.311602 
L 409.324219 243.60457 
L 409.869141 237.893145 
L 410.958984 220.948564 
L 412.048828 202.26082 
L 412.59375 194.729326 
L 413.138672 189.628008 
L 413.683594 187.279863 
L 414.228516 187.813066 
L 414.773438 190.555986 
L 415.318359 195.129229 
L 416.408203 205.695879 
L 416.953125 208.484941 
L 417.498047 209.566729 
L 418.042969 208.720781 
L 419.677734 201.630205 
L 420.222656 200.071611 
L 420.767578 199.358965 
L 421.3125 199.748613 
L 421.857422 200.845781 
L 422.402344 201.35335 
L 422.947266 200.327959 
L 424.037109 195.185625 
L 425.126953 190.309893 
L 425.671875 189.202471 
L 426.216797 189.428057 
L 426.761719 190.909746 
L 428.396484 197.826006 
L 428.941406 196.375078 
L 429.486328 191.796709 
L 430.03125 184.219072 
L 431.121094 164.916094 
L 432.755859 135.600176 
L 433.845703 119.763018 
L 434.390625 114.400225 
L 434.935547 110.534502 
L 435.480469 108.981035 
L 436.025391 109.888506 
L 436.570312 113.344072 
L 437.115234 119.255449 
L 437.660156 127.550859 
L 439.839844 170.381426 
L 440.384766 176.544023 
L 440.929688 179.932939 
L 441.474609 180.89168 
L 442.019531 180.06624 
L 443.109375 176.000566 
L 443.654297 173.872881 
L 444.199219 172.201494 
L 444.744141 171.012041 
L 445.289062 170.371172 
L 445.833984 170.991533 
L 446.378906 172.483477 
L 447.46875 176.964434 
L 449.103516 182.768145 
L 449.648438 185.97249 
L 450.193359 190.899492 
L 451.828125 209.489824 
L 452.917969 218.631182 
L 453.462891 221.76375 
L 454.007812 223.706865 
L 454.552734 223.578691 
L 455.097656 221.368975 
L 455.642578 217.057207 
L 456.732422 206.239336 
L 457.277344 202.1429 
L 457.822266 199.661455 
L 458.367188 198.466875 
L 458.912109 198.733477 
L 460.001953 200.430498 
L 460.546875 200.266436 
L 461.091797 198.333574 
L 461.636719 194.370439 
L 462.181641 187.269609 
L 462.726562 178.625566 
L 464.361328 146.930742 
L 464.90625 139.189043 
L 465.451172 135.231035 
L 465.996094 134.938799 
L 466.541016 138.214922 
L 468.175781 153.549639 
L 468.720703 156.620684 
L 469.265625 157.707598 
L 469.810547 156.600176 
L 470.355469 152.970293 
L 471.990234 138.543047 
L 472.535156 136.825518 
L 473.080078 137.394609 
L 473.625 139.737627 
L 474.169922 142.624102 
L 476.894531 162.055254 
L 477.984375 166.905352 
L 479.619141 172.591143 
L 480.164062 173.185869 
L 480.708984 172.07332 
L 481.253906 169.166338 
L 481.798828 164.931475 
L 484.523438 136.056475 
L 485.613281 122.008623 
L 487.792969 90.072832 
L 488.337891 86.617266 
L 488.882812 87.088945 
L 489.427734 89.524248 
L 490.517578 100.783037 
L 493.242188 136.733232 
L 494.876953 158.584307 
L 497.056641 190.914873 
L 498.146484 206.844316 
L 498.691406 212.002031 
L 499.236328 213.852861 
L 499.78125 213.222246 
L 500.326172 209.453936 
L 500.871094 203.911699 
L 503.595703 167.946123 
L 504.140625 164.951982 
L 504.685547 163.967607 
L 505.230469 164.475176 
L 505.775391 165.567217 
L 506.320312 166.054277 
L 506.865234 166.956621 
L 507.410156 168.561357 
L 507.955078 170.827471 
L 509.044922 178.763994 
L 510.134766 187.377275 
L 510.679688 191.089189 
L 511.224609 193.565508 
L 511.769531 195.385576 
L 512.314453 196.211016 
L 512.859375 196.359697 
L 513.404297 195.847002 
L 513.949219 195.062578 
L 514.494141 195.031816 
L 515.039062 196.303301 
L 515.583984 198.938555 
L 516.673828 206.454668 
L 519.943359 230.730791 
L 520.488281 233.504473 
L 521.033203 233.69417 
L 521.578125 230.587236 
L 522.123047 224.532305 
L 523.212891 207.433916 
L 524.847656 181.747881 
L 525.392578 175.057207 
L 525.9375 169.92 
L 526.482422 167.382158 
L 527.027344 167.812822 
L 527.572266 170.540361 
L 528.662109 179.117754 
L 530.841797 198.0721 
L 531.386719 201.348223 
L 531.931641 202.660723 
L 532.476562 202.31209 
L 533.021484 200.46126 
L 534.65625 191.207109 
L 535.201172 189.622881 
L 535.746094 188.469316 
L 536.291016 187.987383 
L 536.835938 186.93123 
L 537.380859 184.644609 
L 539.015625 174.877764 
L 539.560547 173.708818 
L 540.105469 174.221514 
L 540.650391 176.374834 
L 541.195312 180.594316 
L 541.740234 186.095537 
L 542.830078 199.794756 
L 543.375 204.829424 
L 543.919922 207.136553 
L 544.464844 206.229082 
L 545.009766 202.809404 
L 546.099609 192.319658 
L 547.189453 182.639971 
L 547.734375 180.11751 
L 548.279297 180.276445 
L 548.824219 183.003984 
L 549.914062 192.627275 
L 550.458984 195.662432 
L 551.003906 194.995928 
L 551.548828 190.49959 
L 552.09375 182.27083 
L 553.183594 159.030352 
L 554.273438 134.395342 
L 554.818359 125.76668 
L 555.363281 120.573076 
L 555.908203 118.999102 
L 556.453125 119.752764 
L 558.087891 128.981279 
L 558.632812 130.104082 
L 559.177734 128.535234 
L 559.722656 125.274492 
L 560.8125 117.071367 
L 561.357422 114.210527 
L 561.902344 112.82625 
L 562.447266 112.380205 
L 562.992188 112.610918 
L 564.626953 115.543535 
L 565.716797 119.614336 
L 566.261719 122.459795 
L 567.351562 130.252764 
L 569.53125 147.956133 
L 571.166016 160.978594 
L 571.710938 165.151934 
L 572.255859 168.238359 
L 572.800781 169.725176 
L 573.345703 169.791826 
L 573.890625 168.42293 
L 574.435547 165.151934 
L 574.980469 159.784014 
L 575.525391 151.755205 
L 576.615234 129.740068 
L 577.705078 107.227617 
L 578.794922 90.411211 
L 579.339844 84.638262 
L 579.884766 81.064775 
L 580.429688 79.234453 
L 580.974609 80.126543 
L 581.519531 82.310625 
L 583.154297 90.800859 
L 583.699219 94.799883 
L 584.244141 100.413896 
L 584.789062 108.124834 
L 585.333984 119.111895 
L 586.423828 147.325518 
L 587.513672 176.892656 
L 588.058594 189.361406 
L 588.603516 198.953936 
L 589.148438 205.147295 
L 589.693359 208.33626 
L 590.238281 209.24373 
L 590.783203 208.515703 
L 591.873047 205.808672 
L 592.417969 204.747393 
L 592.962891 203.932207 
L 593.507812 202.527422 
L 594.052734 199.615312 
L 594.597656 194.780596 
L 595.6875 182.383623 
L 596.232422 177.907793 
L 596.777344 176.200518 
L 597.322266 176.723467 
L 597.867188 178.482012 
L 598.957031 183.747393 
L 600.591797 193.011797 
L 601.136719 195.04207 
L 601.681641 196.359697 
L 602.226562 197.236406 
L 602.771484 197.513262 
L 603.316406 198.338701 
L 604.40625 200.927812 
L 606.041016 205.839434 
L 607.130859 208.607988 
L 607.675781 211.222734 
L 608.220703 214.811602 
L 609.310547 227.177812 
L 610.400391 239.149248 
L 610.945312 242.425371 
L 611.490234 244.040361 
L 612.035156 243.035479 
L 612.580078 240.02083 
L 613.125 234.04793 
L 613.669922 225.788408 
L 615.849609 183.603838 
L 616.394531 177.210527 
L 616.939453 172.416826 
L 617.484375 169.668779 
L 618.029297 168.797197 
L 618.574219 169.935381 
L 619.664062 174.918779 
L 620.208984 177.297686 
L 620.753906 178.969072 
L 621.298828 181.235186 
L 621.84375 184.654863 
L 622.933594 193.791094 
L 624.023438 203.357988 
L 624.568359 206.746904 
L 625.113281 208.433672 
L 625.658203 208.618242 
L 626.203125 206.859697 
L 626.748047 203.593828 
L 627.292969 198.759111 
L 628.927734 181.281328 
L 629.472656 177.231035 
L 630.017578 175.380205 
L 630.5625 175.913408 
L 631.107422 178.743486 
L 632.197266 188.24373 
L 632.742188 193.042559 
L 633.287109 196.52376 
L 633.832031 198.036211 
L 634.376953 197.574785 
L 634.921875 194.785723 
L 635.466797 190.202227 
L 636.556641 177.564287 
L 637.101562 172.432207 
L 637.646484 170.078936 
L 638.191406 170.904375 
L 638.736328 174.339434 
L 640.371094 188.546221 
L 640.916016 189.751055 
L 641.460938 188.079668 
L 642.005859 182.921953 
L 643.095703 166.397783 
L 644.185547 150.934893 
L 644.730469 145.085039 
L 645.820312 136.728105 
L 646.365234 134.06209 
L 646.910156 132.498369 
L 647.455078 132.544512 
L 647.455078 132.544512 
" style="fill:none;stroke:#4c72b0;stroke-linecap:round;stroke-width:1.75;"/>
   </g>
   <g id="patch_3">
    <path d="M 90 270.72 
L 90 69.12 
" style="fill:none;stroke:#262626;stroke-linecap:square;stroke-linejoin:miter;stroke-width:1.25;"/>
   </g>
   <g id="patch_4">
    <path d="M 90 270.72 
L 648 270.72 
" style="fill:none;stroke:#262626;stroke-linecap:square;stroke-linejoin:miter;stroke-width:1.25;"/>
   </g>
  </g>
  <g id="axes_2">
   <g id="patch_5">
    <path d="M 90 512.64 
L 648 512.64 
L 648 311.04 
L 90 311.04 
z
" style="fill:#ffffff;"/>
   </g>
   <g id="matplotlib.axis_3">
    <g id="xtick_7">
     <g id="line2d_15">
      <g>
       <use style="fill:#262626;stroke:#262626;" x="218.197478" xlink:href="#m87a59592ab" y="512.64"/>
      </g>
     </g>
     <g id="text_14">
      <!-- $\mathdefault{10^{2}}$ -->
      <g style="fill:#262626;" transform="translate(210.347478 535.9525)scale(0.1 -0.1)">
       <use transform="translate(0 0.99375)" xlink:href="#ArialMT-31"/>
       <use transform="translate(55.615234 0.99375)" xlink:href="#ArialMT-30"/>
       <use transform="translate(112.972813 70.6875)scale(0.7)" xlink:href="#ArialMT-32"/>
      </g>
     </g>
    </g>
    <g id="xtick_8">
     <g id="line2d_16">
      <g>
       <use style="fill:#262626;stroke:#262626;" x="401.606604" xlink:href="#m87a59592ab" y="512.64"/>
      </g>
     </g>
     <g id="text_15">
      <!-- $\mathdefault{10^{3}}$ -->
      <defs>
       <path d="M 4.203125 18.890625 
L 12.984375 20.0625 
Q 14.5 12.59375 18.140625 9.296875 
Q 21.78125 6 27 6 
Q 33.203125 6 37.46875 10.296875 
Q 41.75 14.59375 41.75 20.953125 
Q 41.75 27 37.796875 30.921875 
Q 33.84375 34.859375 27.734375 34.859375 
Q 25.25 34.859375 21.53125 33.890625 
L 22.515625 41.609375 
Q 23.390625 41.5 23.921875 41.5 
Q 29.546875 41.5 34.03125 44.421875 
Q 38.53125 47.359375 38.53125 53.46875 
Q 38.53125 58.296875 35.25 61.46875 
Q 31.984375 64.65625 26.8125 64.65625 
Q 21.6875 64.65625 18.265625 61.421875 
Q 14.84375 58.203125 13.875 51.765625 
L 5.078125 53.328125 
Q 6.6875 62.15625 12.390625 67.015625 
Q 18.109375 71.875 26.609375 71.875 
Q 32.46875 71.875 37.390625 69.359375 
Q 42.328125 66.84375 44.9375 62.5 
Q 47.5625 58.15625 47.5625 53.265625 
Q 47.5625 48.640625 45.0625 44.828125 
Q 42.578125 41.015625 37.703125 38.765625 
Q 44.046875 37.3125 47.5625 32.6875 
Q 51.078125 28.078125 51.078125 21.140625 
Q 51.078125 11.765625 44.234375 5.25 
Q 37.40625 -1.265625 26.953125 -1.265625 
Q 17.53125 -1.265625 11.296875 4.34375 
Q 5.078125 9.96875 4.203125 18.890625 
z
" id="ArialMT-33"/>
      </defs>
      <g style="fill:#262626;" transform="translate(393.756604 535.9525)scale(0.1 -0.1)">
       <use transform="translate(0 0.99375)" xlink:href="#ArialMT-31"/>
       <use transform="translate(55.615234 0.99375)" xlink:href="#ArialMT-30"/>
       <use transform="translate(112.972813 70.6875)scale(0.7)" xlink:href="#ArialMT-33"/>
      </g>
     </g>
    </g>
    <g id="xtick_9">
     <g id="line2d_17">
      <g>
       <use style="fill:#262626;stroke:#262626;" x="585.01573" xlink:href="#m87a59592ab" y="512.64"/>
      </g>
     </g>
     <g id="text_16">
      <!-- $\mathdefault{10^{4}}$ -->
      <g style="fill:#262626;" transform="translate(577.16573 535.8525)scale(0.1 -0.1)">
       <use transform="translate(0 0.201563)" xlink:href="#ArialMT-31"/>
       <use transform="translate(55.615234 0.201563)" xlink:href="#ArialMT-30"/>
       <use transform="translate(112.972813 69.895313)scale(0.7)" xlink:href="#ArialMT-34"/>
      </g>
     </g>
    </g>
    <g id="xtick_10">
     <g id="line2d_18">
      <defs>
       <path d="M 0 0 
L 0 3 
" id="m4b540ec4e8" style="stroke:#262626;stroke-width:0.5;"/>
      </defs>
      <g>
       <use style="fill:#262626;stroke:#262626;stroke-width:0.5;" x="90" xlink:href="#m4b540ec4e8" y="512.64"/>
      </g>
     </g>
    </g>
    <g id="xtick_11">
     <g id="line2d_19">
      <g>
       <use style="fill:#262626;stroke:#262626;stroke-width:0.5;" x="122.296744" xlink:href="#m4b540ec4e8" y="512.64"/>
      </g>
     </g>
    </g>
    <g id="xtick_12">
     <g id="line2d_20">
      <g>
       <use style="fill:#262626;stroke:#262626;stroke-width:0.5;" x="145.211648" xlink:href="#m4b540ec4e8" y="512.64"/>
      </g>
     </g>
    </g>
    <g id="xtick_13">
     <g id="line2d_21">
      <g>
       <use style="fill:#262626;stroke:#262626;stroke-width:0.5;" x="162.985829" xlink:href="#m4b540ec4e8" y="512.64"/>
      </g>
     </g>
    </g>
    <g id="xtick_14">
     <g id="line2d_22">
      <g>
       <use style="fill:#262626;stroke:#262626;stroke-width:0.5;" x="177.508392" xlink:href="#m4b540ec4e8" y="512.64"/>
      </g>
     </g>
    </g>
    <g id="xtick_15">
     <g id="line2d_23">
      <g>
       <use style="fill:#262626;stroke:#262626;stroke-width:0.5;" x="189.787045" xlink:href="#m4b540ec4e8" y="512.64"/>
      </g>
     </g>
    </g>
    <g id="xtick_16">
     <g id="line2d_24">
      <g>
       <use style="fill:#262626;stroke:#262626;stroke-width:0.5;" x="200.423297" xlink:href="#m4b540ec4e8" y="512.64"/>
      </g>
     </g>
    </g>
    <g id="xtick_17">
     <g id="line2d_25">
      <g>
       <use style="fill:#262626;stroke:#262626;stroke-width:0.5;" x="209.805136" xlink:href="#m4b540ec4e8" y="512.64"/>
      </g>
     </g>
    </g>
    <g id="xtick_18">
     <g id="line2d_26">
      <g>
       <use style="fill:#262626;stroke:#262626;stroke-width:0.5;" x="273.409126" xlink:href="#m4b540ec4e8" y="512.64"/>
      </g>
     </g>
    </g>
    <g id="xtick_19">
     <g id="line2d_27">
      <g>
       <use style="fill:#262626;stroke:#262626;stroke-width:0.5;" x="305.70587" xlink:href="#m4b540ec4e8" y="512.64"/>
      </g>
     </g>
    </g>
    <g id="xtick_20">
     <g id="line2d_28">
      <g>
       <use style="fill:#262626;stroke:#262626;stroke-width:0.5;" x="328.620775" xlink:href="#m4b540ec4e8" y="512.64"/>
      </g>
     </g>
    </g>
    <g id="xtick_21">
     <g id="line2d_29">
      <g>
       <use style="fill:#262626;stroke:#262626;stroke-width:0.5;" x="346.394955" xlink:href="#m4b540ec4e8" y="512.64"/>
      </g>
     </g>
    </g>
    <g id="xtick_22">
     <g id="line2d_30">
      <g>
       <use style="fill:#262626;stroke:#262626;stroke-width:0.5;" x="360.917518" xlink:href="#m4b540ec4e8" y="512.64"/>
      </g>
     </g>
    </g>
    <g id="xtick_23">
     <g id="line2d_31">
      <g>
       <use style="fill:#262626;stroke:#262626;stroke-width:0.5;" x="373.196171" xlink:href="#m4b540ec4e8" y="512.64"/>
      </g>
     </g>
    </g>
    <g id="xtick_24">
     <g id="line2d_32">
      <g>
       <use style="fill:#262626;stroke:#262626;stroke-width:0.5;" x="383.832423" xlink:href="#m4b540ec4e8" y="512.64"/>
      </g>
     </g>
    </g>
    <g id="xtick_25">
     <g id="line2d_33">
      <g>
       <use style="fill:#262626;stroke:#262626;stroke-width:0.5;" x="393.214262" xlink:href="#m4b540ec4e8" y="512.64"/>
      </g>
     </g>
    </g>
    <g id="xtick_26">
     <g id="line2d_34">
      <g>
       <use style="fill:#262626;stroke:#262626;stroke-width:0.5;" x="456.818252" xlink:href="#m4b540ec4e8" y="512.64"/>
      </g>
     </g>
    </g>
    <g id="xtick_27">
     <g id="line2d_35">
      <g>
       <use style="fill:#262626;stroke:#262626;stroke-width:0.5;" x="489.114996" xlink:href="#m4b540ec4e8" y="512.64"/>
      </g>
     </g>
    </g>
    <g id="xtick_28">
     <g id="line2d_36">
      <g>
       <use style="fill:#262626;stroke:#262626;stroke-width:0.5;" x="512.029901" xlink:href="#m4b540ec4e8" y="512.64"/>
      </g>
     </g>
    </g>
    <g id="xtick_29">
     <g id="line2d_37">
      <g>
       <use style="fill:#262626;stroke:#262626;stroke-width:0.5;" x="529.804081" xlink:href="#m4b540ec4e8" y="512.64"/>
      </g>
     </g>
    </g>
    <g id="xtick_30">
     <g id="line2d_38">
      <g>
       <use style="fill:#262626;stroke:#262626;stroke-width:0.5;" x="544.326645" xlink:href="#m4b540ec4e8" y="512.64"/>
      </g>
     </g>
    </g>
    <g id="xtick_31">
     <g id="line2d_39">
      <g>
       <use style="fill:#262626;stroke:#262626;stroke-width:0.5;" x="556.605297" xlink:href="#m4b540ec4e8" y="512.64"/>
      </g>
     </g>
    </g>
    <g id="xtick_32">
     <g id="line2d_40">
      <g>
       <use style="fill:#262626;stroke:#262626;stroke-width:0.5;" x="567.241549" xlink:href="#m4b540ec4e8" y="512.64"/>
      </g>
     </g>
    </g>
    <g id="xtick_33">
     <g id="line2d_41">
      <g>
       <use style="fill:#262626;stroke:#262626;stroke-width:0.5;" x="576.623389" xlink:href="#m4b540ec4e8" y="512.64"/>
      </g>
     </g>
    </g>
    <g id="xtick_34">
     <g id="line2d_42">
      <g>
       <use style="fill:#262626;stroke:#262626;stroke-width:0.5;" x="640.227378" xlink:href="#m4b540ec4e8" y="512.64"/>
      </g>
     </g>
    </g>
   </g>
   <g id="matplotlib.axis_4">
    <g id="ytick_8">
     <g id="line2d_43">
      <g>
       <use style="fill:#262626;stroke:#262626;" x="90" xlink:href="#ma71046f308" y="512.64"/>
      </g>
     </g>
     <g id="text_17">
      <!-- $\mathdefault{10^{-5}}$ -->
      <defs>
       <path d="M 4.15625 18.75 
L 13.375 19.53125 
Q 14.40625 12.796875 18.140625 9.390625 
Q 21.875 6 27.15625 6 
Q 33.5 6 37.890625 10.78125 
Q 42.28125 15.578125 42.28125 23.484375 
Q 42.28125 31 38.0625 35.34375 
Q 33.84375 39.703125 27 39.703125 
Q 22.75 39.703125 19.328125 37.765625 
Q 15.921875 35.84375 13.96875 32.765625 
L 5.71875 33.84375 
L 12.640625 70.609375 
L 48.25 70.609375 
L 48.25 62.203125 
L 19.671875 62.203125 
L 15.828125 42.96875 
Q 22.265625 47.46875 29.34375 47.46875 
Q 38.71875 47.46875 45.15625 40.96875 
Q 51.609375 34.46875 51.609375 24.265625 
Q 51.609375 14.546875 45.953125 7.46875 
Q 39.0625 -1.21875 27.15625 -1.21875 
Q 17.390625 -1.21875 11.203125 4.25 
Q 5.03125 9.71875 4.15625 18.75 
z
" id="ArialMT-35"/>
      </defs>
      <g style="fill:#262626;" transform="translate(57.2 517.74625)scale(0.1 -0.1)">
       <use transform="translate(0 0.879688)" xlink:href="#ArialMT-31"/>
       <use transform="translate(55.615234 0.879688)" xlink:href="#ArialMT-30"/>
       <use transform="translate(112.972813 70.573438)scale(0.7)" xlink:href="#ArialMT-2212"/>
       <use transform="translate(153.851719 70.573438)scale(0.7)" xlink:href="#ArialMT-35"/>
      </g>
     </g>
    </g>
    <g id="ytick_9">
     <g id="line2d_44">
      <g>
       <use style="fill:#262626;stroke:#262626;" x="90" xlink:href="#ma71046f308" y="465.767507"/>
      </g>
     </g>
     <g id="text_18">
      <!-- $\mathdefault{10^{-4}}$ -->
      <g style="fill:#262626;" transform="translate(57.2 470.873757)scale(0.1 -0.1)">
       <use transform="translate(0 0.201563)" xlink:href="#ArialMT-31"/>
       <use transform="translate(55.615234 0.201563)" xlink:href="#ArialMT-30"/>
       <use transform="translate(112.972813 69.895313)scale(0.7)" xlink:href="#ArialMT-2212"/>
       <use transform="translate(153.851719 69.895313)scale(0.7)" xlink:href="#ArialMT-34"/>
      </g>
     </g>
    </g>
    <g id="ytick_10">
     <g id="line2d_45">
      <g>
       <use style="fill:#262626;stroke:#262626;" x="90" xlink:href="#ma71046f308" y="418.895013"/>
      </g>
     </g>
     <g id="text_19">
      <!-- $\mathdefault{10^{-3}}$ -->
      <g style="fill:#262626;" transform="translate(57.2 424.051263)scale(0.1 -0.1)">
       <use transform="translate(0 0.99375)" xlink:href="#ArialMT-31"/>
       <use transform="translate(55.615234 0.99375)" xlink:href="#ArialMT-30"/>
       <use transform="translate(112.972813 70.6875)scale(0.7)" xlink:href="#ArialMT-2212"/>
       <use transform="translate(153.851719 70.6875)scale(0.7)" xlink:href="#ArialMT-33"/>
      </g>
     </g>
    </g>
    <g id="ytick_11">
     <g id="line2d_46">
      <g>
       <use style="fill:#262626;stroke:#262626;" x="90" xlink:href="#ma71046f308" y="372.02252"/>
      </g>
     </g>
     <g id="text_20">
      <!-- $\mathdefault{10^{-2}}$ -->
      <g style="fill:#262626;" transform="translate(57.2 377.17877)scale(0.1 -0.1)">
       <use transform="translate(0 0.99375)" xlink:href="#ArialMT-31"/>
       <use transform="translate(55.615234 0.99375)" xlink:href="#ArialMT-30"/>
       <use transform="translate(112.972813 70.6875)scale(0.7)" xlink:href="#ArialMT-2212"/>
       <use transform="translate(153.851719 70.6875)scale(0.7)" xlink:href="#ArialMT-32"/>
      </g>
     </g>
    </g>
    <g id="ytick_12">
     <g id="line2d_47">
      <g>
       <use style="fill:#262626;stroke:#262626;" x="90" xlink:href="#ma71046f308" y="325.150026"/>
      </g>
     </g>
     <g id="text_21">
      <!-- $\mathdefault{10^{-1}}$ -->
      <g style="fill:#262626;" transform="translate(57.2 330.306276)scale(0.1 -0.1)">
       <use transform="translate(0 0.99375)" xlink:href="#ArialMT-31"/>
       <use transform="translate(55.615234 0.99375)" xlink:href="#ArialMT-30"/>
       <use transform="translate(112.972813 70.6875)scale(0.7)" xlink:href="#ArialMT-2212"/>
       <use transform="translate(153.851719 70.6875)scale(0.7)" xlink:href="#ArialMT-31"/>
      </g>
     </g>
    </g>
    <g id="ytick_13">
     <g id="line2d_48">
      <defs>
       <path d="M 0 0 
L -3 0 
" id="m26a4dcea7c" style="stroke:#262626;stroke-width:0.5;"/>
      </defs>
      <g>
       <use style="fill:#262626;stroke:#262626;stroke-width:0.5;" x="90" xlink:href="#m26a4dcea7c" y="498.529974"/>
      </g>
     </g>
    </g>
    <g id="ytick_14">
     <g id="line2d_49">
      <g>
       <use style="fill:#262626;stroke:#262626;stroke-width:0.5;" x="90" xlink:href="#m26a4dcea7c" y="490.276137"/>
      </g>
     </g>
    </g>
    <g id="ytick_15">
     <g id="line2d_50">
      <g>
       <use style="fill:#262626;stroke:#262626;stroke-width:0.5;" x="90" xlink:href="#m26a4dcea7c" y="484.419947"/>
      </g>
     </g>
    </g>
    <g id="ytick_16">
     <g id="line2d_51">
      <g>
       <use style="fill:#262626;stroke:#262626;stroke-width:0.5;" x="90" xlink:href="#m26a4dcea7c" y="479.877533"/>
      </g>
     </g>
    </g>
    <g id="ytick_17">
     <g id="line2d_52">
      <g>
       <use style="fill:#262626;stroke:#262626;stroke-width:0.5;" x="90" xlink:href="#m26a4dcea7c" y="476.166111"/>
      </g>
     </g>
    </g>
    <g id="ytick_18">
     <g id="line2d_53">
      <g>
       <use style="fill:#262626;stroke:#262626;stroke-width:0.5;" x="90" xlink:href="#m26a4dcea7c" y="473.028148"/>
      </g>
     </g>
    </g>
    <g id="ytick_19">
     <g id="line2d_54">
      <g>
       <use style="fill:#262626;stroke:#262626;stroke-width:0.5;" x="90" xlink:href="#m26a4dcea7c" y="470.309921"/>
      </g>
     </g>
    </g>
    <g id="ytick_20">
     <g id="line2d_55">
      <g>
       <use style="fill:#262626;stroke:#262626;stroke-width:0.5;" x="90" xlink:href="#m26a4dcea7c" y="467.912274"/>
      </g>
     </g>
    </g>
    <g id="ytick_21">
     <g id="line2d_56">
      <g>
       <use style="fill:#262626;stroke:#262626;stroke-width:0.5;" x="90" xlink:href="#m26a4dcea7c" y="451.65748"/>
      </g>
     </g>
    </g>
    <g id="ytick_22">
     <g id="line2d_57">
      <g>
       <use style="fill:#262626;stroke:#262626;stroke-width:0.5;" x="90" xlink:href="#m26a4dcea7c" y="443.403644"/>
      </g>
     </g>
    </g>
    <g id="ytick_23">
     <g id="line2d_58">
      <g>
       <use style="fill:#262626;stroke:#262626;stroke-width:0.5;" x="90" xlink:href="#m26a4dcea7c" y="437.547454"/>
      </g>
     </g>
    </g>
    <g id="ytick_24">
     <g id="line2d_59">
      <g>
       <use style="fill:#262626;stroke:#262626;stroke-width:0.5;" x="90" xlink:href="#m26a4dcea7c" y="433.00504"/>
      </g>
     </g>
    </g>
    <g id="ytick_25">
     <g id="line2d_60">
      <g>
       <use style="fill:#262626;stroke:#262626;stroke-width:0.5;" x="90" xlink:href="#m26a4dcea7c" y="429.293617"/>
      </g>
     </g>
    </g>
    <g id="ytick_26">
     <g id="line2d_61">
      <g>
       <use style="fill:#262626;stroke:#262626;stroke-width:0.5;" x="90" xlink:href="#m26a4dcea7c" y="426.155654"/>
      </g>
     </g>
    </g>
    <g id="ytick_27">
     <g id="line2d_62">
      <g>
       <use style="fill:#262626;stroke:#262626;stroke-width:0.5;" x="90" xlink:href="#m26a4dcea7c" y="423.437427"/>
      </g>
     </g>
    </g>
    <g id="ytick_28">
     <g id="line2d_63">
      <g>
       <use style="fill:#262626;stroke:#262626;stroke-width:0.5;" x="90" xlink:href="#m26a4dcea7c" y="421.039781"/>
      </g>
     </g>
    </g>
    <g id="ytick_29">
     <g id="line2d_64">
      <g>
       <use style="fill:#262626;stroke:#262626;stroke-width:0.5;" x="90" xlink:href="#m26a4dcea7c" y="404.784987"/>
      </g>
     </g>
    </g>
    <g id="ytick_30">
     <g id="line2d_65">
      <g>
       <use style="fill:#262626;stroke:#262626;stroke-width:0.5;" x="90" xlink:href="#m26a4dcea7c" y="396.53115"/>
      </g>
     </g>
    </g>
    <g id="ytick_31">
     <g id="line2d_66">
      <g>
       <use style="fill:#262626;stroke:#262626;stroke-width:0.5;" x="90" xlink:href="#m26a4dcea7c" y="390.67496"/>
      </g>
     </g>
    </g>
    <g id="ytick_32">
     <g id="line2d_67">
      <g>
       <use style="fill:#262626;stroke:#262626;stroke-width:0.5;" x="90" xlink:href="#m26a4dcea7c" y="386.132546"/>
      </g>
     </g>
    </g>
    <g id="ytick_33">
     <g id="line2d_68">
      <g>
       <use style="fill:#262626;stroke:#262626;stroke-width:0.5;" x="90" xlink:href="#m26a4dcea7c" y="382.421124"/>
      </g>
     </g>
    </g>
    <g id="ytick_34">
     <g id="line2d_69">
      <g>
       <use style="fill:#262626;stroke:#262626;stroke-width:0.5;" x="90" xlink:href="#m26a4dcea7c" y="379.283161"/>
      </g>
     </g>
    </g>
    <g id="ytick_35">
     <g id="line2d_70">
      <g>
       <use style="fill:#262626;stroke:#262626;stroke-width:0.5;" x="90" xlink:href="#m26a4dcea7c" y="376.564934"/>
      </g>
     </g>
    </g>
    <g id="ytick_36">
     <g id="line2d_71">
      <g>
       <use style="fill:#262626;stroke:#262626;stroke-width:0.5;" x="90" xlink:href="#m26a4dcea7c" y="374.167288"/>
      </g>
     </g>
    </g>
    <g id="ytick_37">
     <g id="line2d_72">
      <g>
       <use style="fill:#262626;stroke:#262626;stroke-width:0.5;" x="90" xlink:href="#m26a4dcea7c" y="357.912493"/>
      </g>
     </g>
    </g>
    <g id="ytick_38">
     <g id="line2d_73">
      <g>
       <use style="fill:#262626;stroke:#262626;stroke-width:0.5;" x="90" xlink:href="#m26a4dcea7c" y="349.658657"/>
      </g>
     </g>
    </g>
    <g id="ytick_39">
     <g id="line2d_74">
      <g>
       <use style="fill:#262626;stroke:#262626;stroke-width:0.5;" x="90" xlink:href="#m26a4dcea7c" y="343.802467"/>
      </g>
     </g>
    </g>
    <g id="ytick_40">
     <g id="line2d_75">
      <g>
       <use style="fill:#262626;stroke:#262626;stroke-width:0.5;" x="90" xlink:href="#m26a4dcea7c" y="339.260053"/>
      </g>
     </g>
    </g>
    <g id="ytick_41">
     <g id="line2d_76">
      <g>
       <use style="fill:#262626;stroke:#262626;stroke-width:0.5;" x="90" xlink:href="#m26a4dcea7c" y="335.548631"/>
      </g>
     </g>
    </g>
    <g id="ytick_42">
     <g id="line2d_77">
      <g>
       <use style="fill:#262626;stroke:#262626;stroke-width:0.5;" x="90" xlink:href="#m26a4dcea7c" y="332.410668"/>
      </g>
     </g>
    </g>
    <g id="ytick_43">
     <g id="line2d_78">
      <g>
       <use style="fill:#262626;stroke:#262626;stroke-width:0.5;" x="90" xlink:href="#m26a4dcea7c" y="329.69244"/>
      </g>
     </g>
    </g>
    <g id="ytick_44">
     <g id="line2d_79">
      <g>
       <use style="fill:#262626;stroke:#262626;stroke-width:0.5;" x="90" xlink:href="#m26a4dcea7c" y="327.294794"/>
      </g>
     </g>
    </g>
    <g id="ytick_45">
     <g id="line2d_80">
      <g>
       <use style="fill:#262626;stroke:#262626;stroke-width:0.5;" x="90" xlink:href="#m26a4dcea7c" y="311.04"/>
      </g>
     </g>
    </g>
   </g>
   <g id="line2d_81">
    <path clip-path="url(#p737bda6f5f)" d="M -1 386.957908 
L 151.095164 386.950904 
L 206.306812 366.540427 
L 238.603556 352.407354 
L 261.518461 362.912831 
L 279.292642 349.131954 
L 293.815205 336.704245 
L 306.093857 357.81495 
L 316.730109 351.556952 
L 326.111949 360.625585 
L 334.50429 366.758145 
L 342.096086 342.679991 
L 349.026853 345.671942 
L 355.402541 375.178766 
L 361.305505 368.717123 
L 366.801034 404.938252 
L 371.941758 377.539582 
L 376.770725 358.39256 
L 381.323597 348.045869 
L 385.630245 404.379285 
L 389.715939 367.808739 
L 393.602249 361.608106 
L 397.307735 396.678325 
L 400.848476 381.57495 
L 404.238502 342.391971 
L 407.490119 359.576068 
L 410.614189 384.945608 
L 413.620341 404.948933 
L 416.517154 371.189469 
L 419.312303 372.172932 
L 422.012683 338.975768 
L 424.624509 352.37613 
L 427.153406 378.700148 
L 429.604479 376.107758 
L 431.982374 380.897996 
L 434.291335 377.62005 
L 436.535246 355.43113 
L 440.841893 408.970179 
L 442.910933 416.998165 
L 444.927587 413.385571 
L 446.894442 384.030671 
L 448.813898 361.115557 
L 450.688186 350.583576 
L 452.519383 380.096678 
L 454.309426 377.607157 
L 456.060125 411.461796 
L 457.773171 429.186151 
L 459.45015 398.908814 
L 461.09255 366.249691 
L 462.701768 402.055263 
L 464.279118 395.688996 
L 465.825838 407.381544 
L 467.343094 403.56375 
L 468.83199 398.673003 
L 470.293564 360.114603 
L 471.728802 392.093898 
L 473.138637 405.882098 
L 474.523951 413.019498 
L 475.885584 410.466518 
L 477.224331 408.888148 
L 478.540949 418.229077 
L 479.836157 384.507271 
L 481.110642 403.458029 
L 482.365055 405.213101 
L 483.600019 404.815341 
L 484.816127 405.770244 
L 486.013948 398.146954 
L 487.194022 378.19485 
L 488.356869 434.832239 
L 489.502983 427.719019 
L 490.63284 414.182299 
L 491.746894 405.785132 
L 492.845581 394.304033 
L 493.92932 370.345674 
L 494.998512 376.109264 
L 496.053541 402.960581 
L 497.094779 411.222663 
L 498.122582 413.745798 
L 499.137291 403.344306 
L 500.139235 423.208206 
L 501.128734 384.481314 
L 502.10609 423.657798 
L 503.0716 429.872917 
L 504.025546 420.104713 
L 504.968203 412.498809 
L 505.899834 409.525132 
L 506.820695 394.53833 
L 507.731032 366.573583 
L 508.631082 377.34332 
L 509.521075 391.005342 
L 510.401234 396.831129 
L 511.271773 407.386111 
L 512.132901 420.847058 
L 512.984819 405.713286 
L 513.827722 396.312237 
L 514.661799 407.532837 
L 515.487232 413.099588 
L 516.304198 411.148207 
L 517.112871 406.052091 
L 517.913416 421.250789 
L 518.705996 417.576862 
L 519.490766 403.040277 
L 520.26788 413.09636 
L 521.037486 428.336587 
L 521.799727 439.436095 
L 522.554743 424.586489 
L 523.302669 436.573165 
L 524.043638 411.347481 
L 524.777778 412.227198 
L 525.505212 419.770594 
L 526.226064 430.010281 
L 526.940451 424.666117 
L 527.648487 431.533269 
L 528.350285 427.277221 
L 529.045954 436.068122 
L 529.7356 416.979707 
L 530.419326 431.517001 
L 531.097232 433.494414 
L 531.769418 420.921559 
L 532.435979 428.250415 
L 533.097009 433.400679 
L 533.752597 444.452227 
L 534.402834 432.884727 
L 535.047806 439.161109 
L 535.687597 433.728301 
L 536.32229 434.164333 
L 536.951966 435.682355 
L 537.576703 433.095345 
L 538.196578 437.037415 
L 538.811667 414.802382 
L 539.422042 432.144665 
L 540.628938 437.437033 
L 541.225596 436.765622 
L 541.817819 437.212586 
L 542.405671 438.119012 
L 542.989216 430.16098 
L 543.568517 436.017918 
L 544.143636 434.449667 
L 544.714632 433.465734 
L 545.281563 434.985583 
L 545.844488 437.464278 
L 546.403463 432.487097 
L 546.958543 431.789226 
L 547.509781 419.55365 
L 548.05723 435.47121 
L 548.600942 437.189285 
L 549.140969 439.781438 
L 549.677358 438.690166 
L 550.21016 438.644598 
L 550.739422 438.208686 
L 551.78751 424.697652 
L 552.821987 438.205096 
L 553.8432 436.243399 
L 554.348939 439.068047 
L 554.851487 434.902472 
L 555.350884 428.336324 
L 555.847169 439.933961 
L 556.340382 438.276531 
L 556.830559 439.620221 
L 557.317739 439.558151 
L 557.801956 438.868782 
L 558.283248 438.818025 
L 558.76165 439.391786 
L 559.237195 441.491596 
L 559.709918 437.74481 
L 560.179852 439.162198 
L 560.647029 439.395216 
L 561.111483 437.524266 
L 561.573244 439.299745 
L 562.032344 436.546858 
L 562.488812 424.257071 
L 563.393976 441.245323 
L 563.84273 441.212322 
L 564.28897 442.669738 
L 564.732723 443.6652 
L 565.612882 436.823652 
L 566.049341 448.052398 
L 566.483422 445.903467 
L 566.91515 438.355032 
L 567.34455 440.545619 
L 567.771648 441.208988 
L 568.196468 441.53986 
L 568.619034 442.279526 
L 569.039371 440.203904 
L 569.457501 439.606226 
L 569.873447 438.511677 
L 570.287233 439.306256 
L 570.69888 445.548472 
L 571.515847 440.324189 
L 571.921209 439.727855 
L 572.32452 438.91438 
L 572.725798 445.712709 
L 573.125065 443.506706 
L 573.52234 438.856983 
L 573.917644 444.480319 
L 574.310996 445.130667 
L 574.702415 443.695087 
L 575.091919 441.405096 
L 575.479529 441.926297 
L 575.865261 442.850991 
L 576.249135 444.844424 
L 576.631167 443.648859 
L 577.011376 448.651385 
L 577.389778 441.108691 
L 577.766391 443.989319 
L 578.141232 445.406286 
L 578.514318 445.669374 
L 578.885664 444.697373 
L 579.255287 443.296911 
L 579.623202 442.429097 
L 579.989426 447.343861 
L 580.353974 440.810778 
L 580.716861 444.772383 
L 581.078102 446.760118 
L 581.437713 444.470366 
L 581.795707 443.78813 
L 582.152099 444.460625 
L 582.860136 446.947638 
L 583.211808 445.261155 
L 583.561934 444.713076 
L 583.910528 443.610627 
L 584.603172 446.243178 
L 584.947248 444.570405 
L 585.630974 445.609134 
L 585.970649 444.145156 
L 586.308881 446.772374 
L 586.645683 445.760948 
L 586.981067 446.878313 
L 587.315045 449.060856 
L 587.647628 445.228901 
L 588.308657 445.509334 
L 588.637126 445.944574 
L 589.290028 445.819702 
L 589.614483 444.392557 
L 589.937621 447.284286 
L 590.259454 447.526059 
L 590.579992 445.9525 
L 590.899246 446.442683 
L 591.217224 448.073522 
L 591.533939 446.034856 
L 591.849399 447.739094 
L 592.163614 447.140455 
L 592.476596 447.695186 
L 592.788352 448.887918 
L 593.098892 449.593428 
L 593.408227 447.477956 
L 593.716365 447.17582 
L 594.023315 448.137712 
L 594.329088 447.595138 
L 594.633691 447.569896 
L 594.937133 447.800626 
L 595.540572 450.226195 
L 595.840586 449.859085 
L 596.139474 447.264175 
L 596.437245 451.224385 
L 596.733906 446.944631 
L 597.029467 446.90403 
L 597.323936 450.139369 
L 597.617319 448.670455 
L 597.909626 453.684673 
L 598.200864 448.719886 
L 598.491042 446.567291 
L 598.780166 448.914763 
L 599.068244 445.306289 
L 599.355284 448.989224 
L 599.641294 446.895274 
L 599.92628 448.470626 
L 600.493212 446.8093 
L 600.775172 449.098351 
L 601.336115 447.244392 
L 601.615112 449.410833 
L 602.170191 447.48543 
L 602.446287 447.708931 
L 602.995624 449.82344 
L 603.541199 447.633288 
L 604.083062 449.43777 
L 604.352617 448.457538 
L 604.621264 451.694711 
L 604.889007 449.329851 
L 605.155853 449.074053 
L 605.421809 447.877801 
L 605.686879 449.449158 
L 605.95107 450.344089 
L 606.214388 448.347388 
L 606.476838 451.370638 
L 606.738427 450.94474 
L 606.999159 449.823445 
L 607.25904 451.620775 
L 607.518076 450.600303 
L 607.776273 451.804677 
L 608.290169 450.947885 
L 608.545879 451.448809 
L 608.80077 450.079068 
L 609.054849 451.058956 
L 609.308119 450.215126 
L 609.560587 451.460166 
L 609.812258 450.966578 
L 610.063135 452.124427 
L 610.313225 451.456584 
L 610.562532 451.108989 
L 610.811062 451.375706 
L 611.058818 449.409789 
L 611.305806 452.093938 
L 611.797496 448.960047 
L 612.042208 451.055797 
L 612.28617 451.946806 
L 612.529387 451.214873 
L 612.771864 449.189373 
L 613.013605 451.976247 
L 613.494897 451.287303 
L 613.734457 451.526232 
L 613.973298 451.933116 
L 614.211426 451.570565 
L 614.448843 451.608535 
L 614.685555 449.244723 
L 614.921566 451.45641 
L 615.15688 451.172739 
L 615.3915 450.683175 
L 615.625431 449.588588 
L 615.858678 450.464461 
L 616.091243 452.546028 
L 616.323131 451.848767 
L 616.554347 452.136964 
L 616.784892 452.701611 
L 617.014773 451.066643 
L 617.472553 451.906111 
L 617.700461 451.821833 
L 617.927718 449.315926 
L 618.380296 451.572703 
L 618.605625 451.784107 
L 618.830318 452.886911 
L 619.054379 450.283443 
L 619.277811 449.10581 
L 619.944372 455.15219 
L 620.165325 450.143765 
L 620.385667 455.530948 
L 620.605401 451.919244 
L 620.824531 450.659839 
L 621.043059 451.573098 
L 621.478326 454.872501 
L 621.911227 451.181475 
L 622.126798 453.86473 
L 622.341787 452.448205 
L 622.556198 451.991242 
L 622.770034 452.610144 
L 623.195989 452.434742 
L 623.408116 450.151731 
L 623.61968 452.733278 
L 623.830683 452.245602 
L 624.041128 455.406293 
L 624.251019 452.037152 
L 624.460358 453.199036 
L 624.669149 453.286582 
L 625.498881 452.525908 
L 625.704971 452.721108 
L 626.115557 453.377973 
L 626.320059 453.526126 
L 626.727495 451.839063 
L 626.930435 452.911738 
L 627.132858 455.665429 
L 627.334768 453.147353 
L 627.73706 453.239872 
L 628.13733 453.574385 
L 628.336713 453.109086 
L 628.535599 453.382761 
L 628.733989 451.499291 
L 629.129293 453.50532 
L 629.326211 453.712086 
L 629.522644 454.74336 
L 629.718594 450.842984 
L 629.914063 456.579016 
L 630.109054 453.432104 
L 630.303568 453.16142 
L 630.497608 453.221552 
L 630.691177 453.407947 
L 631.07691 454.564313 
L 631.269078 455.772379 
L 631.460783 451.498728 
L 631.652028 453.574882 
L 632.033146 453.037181 
L 632.223024 456.576941 
L 632.41245 453.781403 
L 632.601426 455.801174 
L 632.789956 451.594744 
L 632.97804 454.876679 
L 633.165681 451.284912 
L 633.352881 453.399497 
L 633.539642 453.520852 
L 633.911856 453.586866 
L 634.097312 453.827145 
L 634.282338 452.17882 
L 634.466935 456.638543 
L 634.651105 454.229823 
L 634.83485 453.870505 
L 635.018173 453.799973 
L 635.383557 454.090915 
L 635.565622 454.044593 
L 635.928509 453.289319 
L 636.109335 453.392918 
L 636.289751 451.240272 
L 636.469759 455.303 
L 637.007355 450.066663 
L 637.185751 453.7104 
L 637.363748 454.135554 
L 637.541348 451.608945 
L 637.895364 456.900671 
L 638.071784 450.631354 
L 638.423456 461.35445 
L 638.598712 451.961299 
L 639.122176 455.179691 
L 639.295903 452.656125 
L 639.469251 454.539448 
L 639.642223 455.129333 
L 639.81482 454.789941 
L 639.987044 453.065411 
L 640.330379 456.765259 
L 640.67224 453.169532 
L 640.842622 457.499382 
L 641.012641 454.100877 
L 641.182297 453.983728 
L 641.351593 453.41034 
L 641.520529 455.681311 
L 641.689108 448.134377 
L 641.857331 455.069303 
L 642.0252 453.780495 
L 642.192715 457.309691 
L 642.359879 453.896195 
L 642.526693 457.940646 
L 642.693158 454.392152 
L 642.859276 454.116225 
L 643.025049 454.313963 
L 643.190477 456.898129 
L 643.520306 454.915776 
L 644.012502 454.530143 
L 644.175894 454.569616 
L 644.501676 454.257688 
L 644.664069 453.458221 
L 644.987864 455.616358 
L 645.310349 454.321706 
L 645.471103 454.224649 
L 645.791641 454.708765 
L 645.951427 454.519092 
L 646.110894 453.414865 
L 646.428873 455.345596 
L 646.587387 454.72418 
L 646.745587 454.612452 
L 647.21831 454.782049 
L 647.375263 454.79868 
L 647.688244 455.195702 
L 647.844274 455.405116 
L 647.844274 455.405116 
" style="fill:none;stroke:#b22222;stroke-linecap:round;stroke-width:1.75;"/>
   </g>
   <g id="patch_6">
    <path d="M 90 512.64 
L 90 311.04 
" style="fill:none;stroke:#262626;stroke-linecap:square;stroke-linejoin:miter;stroke-width:1.25;"/>
   </g>
   <g id="patch_7">
    <path d="M 90 512.64 
L 648 512.64 
" style="fill:none;stroke:#262626;stroke-linecap:square;stroke-linejoin:miter;stroke-width:1.25;"/>
   </g>
  </g>
 </g>
 <defs>
  <clipPath id="p357719338a">
   <rect height="201.6" width="558" x="90" y="69.12"/>
  </clipPath>
  <clipPath id="p737bda6f5f">
   <rect height="201.6" width="558" x="90" y="311.04"/>
  </clipPath>
 </defs>
</svg>
