<?xml version="1.0" encoding="utf-8" standalone="no"?>
<!DOCTYPE svg PUBLIC "-//W3C//DTD SVG 1.1//EN"
  "http://www.w3.org/Graphics/SVG/1.1/DTD/svg11.dtd">
<!-- Created with matplotlib (http://matplotlib.org/) -->
<svg height="576pt" version="1.1" viewBox="0 0 720 576" width="720pt" xmlns="http://www.w3.org/2000/svg" xmlns:xlink="http://www.w3.org/1999/xlink">
 <defs>
  <style type="text/css">
*{stroke-linecap:butt;stroke-linejoin:round;}
  </style>
 </defs>
 <g id="figure_1">
  <g id="patch_1">
   <path d="M 0 576 
L 720 576 
L 720 0 
L 0 0 
z
" style="fill:#ffffff;"/>
  </g>
  <g id="axes_1">
   <g id="patch_2">
    <path d="M 90 270.72 
L 648 270.72 
L 648 69.12 
L 90 69.12 
z
" style="fill:#ffffff;"/>
   </g>
   <g id="matplotlib.axis_1">
    <g id="xtick_1">
     <g id="line2d_1">
      <defs>
       <path d="M 0 0 
L 0 6 
" id="mf1143829c6" style="stroke:#262626;"/>
      </defs>
      <g>
       <use style="fill:#262626;stroke:#262626;" x="90" xlink:href="#mf1143829c6" y="270.72"/>
      </g>
     </g>
     <g id="text_1">
      <!-- 0 -->
      <defs>
       <path d="M 4.15625 35.296875 
Q 4.15625 48 6.765625 55.734375 
Q 9.375 63.484375 14.515625 67.671875 
Q 19.671875 71.875 27.484375 71.875 
Q 33.25 71.875 37.59375 69.546875 
Q 41.9375 67.234375 44.765625 62.859375 
Q 47.609375 58.5 49.21875 52.21875 
Q 50.828125 45.953125 50.828125 35.296875 
Q 50.828125 22.703125 48.234375 14.96875 
Q 45.65625 7.234375 40.5 3 
Q 35.359375 -1.21875 27.484375 -1.21875 
Q 17.140625 -1.21875 11.234375 6.203125 
Q 4.15625 15.140625 4.15625 35.296875 
z
M 13.1875 35.296875 
Q 13.1875 17.671875 17.3125 11.828125 
Q 21.4375 6 27.484375 6 
Q 33.546875 6 37.671875 11.859375 
Q 41.796875 17.71875 41.796875 35.296875 
Q 41.796875 52.984375 37.671875 58.78125 
Q 33.546875 64.59375 27.390625 64.59375 
Q 21.34375 64.59375 17.71875 59.46875 
Q 13.1875 52.9375 13.1875 35.296875 
z
" id="ArialMT-30"/>
      </defs>
      <g style="fill:#262626;" transform="translate(87.219531 290.877812)scale(0.1 -0.1)">
       <use xlink:href="#ArialMT-30"/>
      </g>
     </g>
    </g>
    <g id="xtick_2">
     <g id="line2d_2">
      <g>
       <use style="fill:#262626;stroke:#262626;" x="198.984375" xlink:href="#mf1143829c6" y="270.72"/>
      </g>
     </g>
     <g id="text_2">
      <!-- 200 -->
      <defs>
       <path d="M 50.34375 8.453125 
L 50.34375 0 
L 3.03125 0 
Q 2.9375 3.171875 4.046875 6.109375 
Q 5.859375 10.9375 9.828125 15.625 
Q 13.8125 20.3125 21.34375 26.46875 
Q 33.015625 36.03125 37.109375 41.625 
Q 41.21875 47.21875 41.21875 52.203125 
Q 41.21875 57.421875 37.46875 61 
Q 33.734375 64.59375 27.734375 64.59375 
Q 21.390625 64.59375 17.578125 60.78125 
Q 13.765625 56.984375 13.71875 50.25 
L 4.6875 51.171875 
Q 5.609375 61.28125 11.65625 66.578125 
Q 17.71875 71.875 27.9375 71.875 
Q 38.234375 71.875 44.234375 66.15625 
Q 50.25 60.453125 50.25 52 
Q 50.25 47.703125 48.484375 43.546875 
Q 46.734375 39.40625 42.65625 34.8125 
Q 38.578125 30.21875 29.109375 22.21875 
Q 21.1875 15.578125 18.9375 13.203125 
Q 16.703125 10.84375 15.234375 8.453125 
z
" id="ArialMT-32"/>
      </defs>
      <g style="fill:#262626;" transform="translate(190.642969 290.877812)scale(0.1 -0.1)">
       <use xlink:href="#ArialMT-32"/>
       <use x="55.615234" xlink:href="#ArialMT-30"/>
       <use x="111.230469" xlink:href="#ArialMT-30"/>
      </g>
     </g>
    </g>
    <g id="xtick_3">
     <g id="line2d_3">
      <g>
       <use style="fill:#262626;stroke:#262626;" x="307.96875" xlink:href="#mf1143829c6" y="270.72"/>
      </g>
     </g>
     <g id="text_3">
      <!-- 400 -->
      <defs>
       <path d="M 32.328125 0 
L 32.328125 17.140625 
L 1.265625 17.140625 
L 1.265625 25.203125 
L 33.9375 71.578125 
L 41.109375 71.578125 
L 41.109375 25.203125 
L 50.78125 25.203125 
L 50.78125 17.140625 
L 41.109375 17.140625 
L 41.109375 0 
z
M 32.328125 25.203125 
L 32.328125 57.46875 
L 9.90625 25.203125 
z
" id="ArialMT-34"/>
      </defs>
      <g style="fill:#262626;" transform="translate(299.627344 290.877812)scale(0.1 -0.1)">
       <use xlink:href="#ArialMT-34"/>
       <use x="55.615234" xlink:href="#ArialMT-30"/>
       <use x="111.230469" xlink:href="#ArialMT-30"/>
      </g>
     </g>
    </g>
    <g id="xtick_4">
     <g id="line2d_4">
      <g>
       <use style="fill:#262626;stroke:#262626;" x="416.953125" xlink:href="#mf1143829c6" y="270.72"/>
      </g>
     </g>
     <g id="text_4">
      <!-- 600 -->
      <defs>
       <path d="M 49.75 54.046875 
L 41.015625 53.375 
Q 39.84375 58.546875 37.703125 60.890625 
Q 34.125 64.65625 28.90625 64.65625 
Q 24.703125 64.65625 21.53125 62.3125 
Q 17.390625 59.28125 14.984375 53.46875 
Q 12.59375 47.65625 12.5 36.921875 
Q 15.671875 41.75 20.265625 44.09375 
Q 24.859375 46.4375 29.890625 46.4375 
Q 38.671875 46.4375 44.84375 39.96875 
Q 51.03125 33.5 51.03125 23.25 
Q 51.03125 16.5 48.125 10.71875 
Q 45.21875 4.9375 40.140625 1.859375 
Q 35.0625 -1.21875 28.609375 -1.21875 
Q 17.625 -1.21875 10.6875 6.859375 
Q 3.765625 14.9375 3.765625 33.5 
Q 3.765625 54.25 11.421875 63.671875 
Q 18.109375 71.875 29.4375 71.875 
Q 37.890625 71.875 43.28125 67.140625 
Q 48.6875 62.40625 49.75 54.046875 
z
M 13.875 23.1875 
Q 13.875 18.65625 15.796875 14.5 
Q 17.71875 10.359375 21.1875 8.171875 
Q 24.65625 6 28.46875 6 
Q 34.03125 6 38.03125 10.484375 
Q 42.046875 14.984375 42.046875 22.703125 
Q 42.046875 30.125 38.078125 34.390625 
Q 34.125 38.671875 28.125 38.671875 
Q 22.171875 38.671875 18.015625 34.390625 
Q 13.875 30.125 13.875 23.1875 
z
" id="ArialMT-36"/>
      </defs>
      <g style="fill:#262626;" transform="translate(408.611719 290.877812)scale(0.1 -0.1)">
       <use xlink:href="#ArialMT-36"/>
       <use x="55.615234" xlink:href="#ArialMT-30"/>
       <use x="111.230469" xlink:href="#ArialMT-30"/>
      </g>
     </g>
    </g>
    <g id="xtick_5">
     <g id="line2d_5">
      <g>
       <use style="fill:#262626;stroke:#262626;" x="525.9375" xlink:href="#mf1143829c6" y="270.72"/>
      </g>
     </g>
     <g id="text_5">
      <!-- 800 -->
      <defs>
       <path d="M 17.671875 38.8125 
Q 12.203125 40.828125 9.5625 44.53125 
Q 6.9375 48.25 6.9375 53.421875 
Q 6.9375 61.234375 12.546875 66.546875 
Q 18.171875 71.875 27.484375 71.875 
Q 36.859375 71.875 42.578125 66.421875 
Q 48.296875 60.984375 48.296875 53.171875 
Q 48.296875 48.1875 45.671875 44.5 
Q 43.0625 40.828125 37.75 38.8125 
Q 44.34375 36.671875 47.78125 31.875 
Q 51.21875 27.09375 51.21875 20.453125 
Q 51.21875 11.28125 44.71875 5.03125 
Q 38.234375 -1.21875 27.640625 -1.21875 
Q 17.046875 -1.21875 10.546875 5.046875 
Q 4.046875 11.328125 4.046875 20.703125 
Q 4.046875 27.6875 7.59375 32.390625 
Q 11.140625 37.109375 17.671875 38.8125 
z
M 15.921875 53.71875 
Q 15.921875 48.640625 19.1875 45.40625 
Q 22.46875 42.1875 27.6875 42.1875 
Q 32.765625 42.1875 36.015625 45.375 
Q 39.265625 48.578125 39.265625 53.21875 
Q 39.265625 58.0625 35.90625 61.359375 
Q 32.5625 64.65625 27.59375 64.65625 
Q 22.5625 64.65625 19.234375 61.421875 
Q 15.921875 58.203125 15.921875 53.71875 
z
M 13.09375 20.65625 
Q 13.09375 16.890625 14.875 13.375 
Q 16.65625 9.859375 20.171875 7.921875 
Q 23.6875 6 27.734375 6 
Q 34.03125 6 38.125 10.046875 
Q 42.234375 14.109375 42.234375 20.359375 
Q 42.234375 26.703125 38.015625 30.859375 
Q 33.796875 35.015625 27.4375 35.015625 
Q 21.234375 35.015625 17.15625 30.90625 
Q 13.09375 26.8125 13.09375 20.65625 
z
" id="ArialMT-38"/>
      </defs>
      <g style="fill:#262626;" transform="translate(517.596094 290.877812)scale(0.1 -0.1)">
       <use xlink:href="#ArialMT-38"/>
       <use x="55.615234" xlink:href="#ArialMT-30"/>
       <use x="111.230469" xlink:href="#ArialMT-30"/>
      </g>
     </g>
    </g>
    <g id="xtick_6">
     <g id="line2d_6">
      <g>
       <use style="fill:#262626;stroke:#262626;" x="634.921875" xlink:href="#mf1143829c6" y="270.72"/>
      </g>
     </g>
     <g id="text_6">
      <!-- 1000 -->
      <defs>
       <path d="M 37.25 0 
L 28.46875 0 
L 28.46875 56 
Q 25.296875 52.984375 20.140625 49.953125 
Q 14.984375 46.921875 10.890625 45.40625 
L 10.890625 53.90625 
Q 18.265625 57.375 23.78125 62.296875 
Q 29.296875 67.234375 31.59375 71.875 
L 37.25 71.875 
z
" id="ArialMT-31"/>
      </defs>
      <g style="fill:#262626;" transform="translate(623.8 290.877812)scale(0.1 -0.1)">
       <use xlink:href="#ArialMT-31"/>
       <use x="55.615234" xlink:href="#ArialMT-30"/>
       <use x="111.230469" xlink:href="#ArialMT-30"/>
       <use x="166.845703" xlink:href="#ArialMT-30"/>
      </g>
     </g>
    </g>
   </g>
   <g id="matplotlib.axis_2">
    <g id="ytick_1">
     <g id="line2d_7">
      <defs>
       <path d="M 0 0 
L -6 0 
" id="m470753a53d" style="stroke:#262626;"/>
      </defs>
      <g>
       <use style="fill:#262626;stroke:#262626;" x="90" xlink:href="#m470753a53d" y="270.72"/>
      </g>
     </g>
     <g id="text_7">
      <!-- −0.6 -->
      <defs>
       <path d="M 52.828125 31.203125 
L 5.5625 31.203125 
L 5.5625 39.40625 
L 52.828125 39.40625 
z
" id="ArialMT-2212"/>
       <path d="M 9.078125 0 
L 9.078125 10.015625 
L 19.09375 10.015625 
L 19.09375 0 
z
" id="ArialMT-2e"/>
      </defs>
      <g style="fill:#262626;" transform="translate(57.259375 274.298906)scale(0.1 -0.1)">
       <use xlink:href="#ArialMT-2212"/>
       <use x="58.398438" xlink:href="#ArialMT-30"/>
       <use x="114.013672" xlink:href="#ArialMT-2e"/>
       <use x="141.796875" xlink:href="#ArialMT-36"/>
      </g>
     </g>
    </g>
    <g id="ytick_2">
     <g id="line2d_8">
      <g>
       <use style="fill:#262626;stroke:#262626;" x="90" xlink:href="#m470753a53d" y="237.12"/>
      </g>
     </g>
     <g id="text_8">
      <!-- −0.4 -->
      <g style="fill:#262626;" transform="translate(57.259375 240.698906)scale(0.1 -0.1)">
       <use xlink:href="#ArialMT-2212"/>
       <use x="58.398438" xlink:href="#ArialMT-30"/>
       <use x="114.013672" xlink:href="#ArialMT-2e"/>
       <use x="141.796875" xlink:href="#ArialMT-34"/>
      </g>
     </g>
    </g>
    <g id="ytick_3">
     <g id="line2d_9">
      <g>
       <use style="fill:#262626;stroke:#262626;" x="90" xlink:href="#m470753a53d" y="203.52"/>
      </g>
     </g>
     <g id="text_9">
      <!-- −0.2 -->
      <g style="fill:#262626;" transform="translate(57.259375 207.098906)scale(0.1 -0.1)">
       <use xlink:href="#ArialMT-2212"/>
       <use x="58.398438" xlink:href="#ArialMT-30"/>
       <use x="114.013672" xlink:href="#ArialMT-2e"/>
       <use x="141.796875" xlink:href="#ArialMT-32"/>
      </g>
     </g>
    </g>
    <g id="ytick_4">
     <g id="line2d_10">
      <g>
       <use style="fill:#262626;stroke:#262626;" x="90" xlink:href="#m470753a53d" y="169.92"/>
      </g>
     </g>
     <g id="text_10">
      <!-- 0.0 -->
      <g style="fill:#262626;" transform="translate(63.1 173.498906)scale(0.1 -0.1)">
       <use xlink:href="#ArialMT-30"/>
       <use x="55.615234" xlink:href="#ArialMT-2e"/>
       <use x="83.398438" xlink:href="#ArialMT-30"/>
      </g>
     </g>
    </g>
    <g id="ytick_5">
     <g id="line2d_11">
      <g>
       <use style="fill:#262626;stroke:#262626;" x="90" xlink:href="#m470753a53d" y="136.32"/>
      </g>
     </g>
     <g id="text_11">
      <!-- 0.2 -->
      <g style="fill:#262626;" transform="translate(63.1 139.898906)scale(0.1 -0.1)">
       <use xlink:href="#ArialMT-30"/>
       <use x="55.615234" xlink:href="#ArialMT-2e"/>
       <use x="83.398438" xlink:href="#ArialMT-32"/>
      </g>
     </g>
    </g>
    <g id="ytick_6">
     <g id="line2d_12">
      <g>
       <use style="fill:#262626;stroke:#262626;" x="90" xlink:href="#m470753a53d" y="102.72"/>
      </g>
     </g>
     <g id="text_12">
      <!-- 0.4 -->
      <g style="fill:#262626;" transform="translate(63.1 106.298906)scale(0.1 -0.1)">
       <use xlink:href="#ArialMT-30"/>
       <use x="55.615234" xlink:href="#ArialMT-2e"/>
       <use x="83.398438" xlink:href="#ArialMT-34"/>
      </g>
     </g>
    </g>
    <g id="ytick_7">
     <g id="line2d_13">
      <g>
       <use style="fill:#262626;stroke:#262626;" x="90" xlink:href="#m470753a53d" y="69.12"/>
      </g>
     </g>
     <g id="text_13">
      <!-- 0.6 -->
      <g style="fill:#262626;" transform="translate(63.1 72.698906)scale(0.1 -0.1)">
       <use xlink:href="#ArialMT-30"/>
       <use x="55.615234" xlink:href="#ArialMT-2e"/>
       <use x="83.398438" xlink:href="#ArialMT-36"/>
      </g>
     </g>
    </g>
   </g>
   <g id="line2d_14">
    <path clip-path="url(#p0294ba71b6)" d="M 90 179.153643 
L 91.634766 177.897539 
L 94.359375 174.149736 
L 94.904297 173.729326 
L 95.449219 173.067949 
L 95.994141 172.765459 
L 96.539062 172.66292 
L 97.628906 172.801348 
L 98.71875 173.544756 
L 100.353516 175.785234 
L 100.898438 176.702959 
L 101.443359 176.979814 
L 101.988281 178.200029 
L 102.533203 178.87166 
L 103.078125 179.768877 
L 103.623047 180.358477 
L 104.712891 182.106768 
L 105.257812 182.768145 
L 105.802734 183.762773 
L 106.347656 184.075518 
L 106.892578 184.752275 
L 107.982422 185.55208 
L 109.072266 185.72127 
L 109.617188 185.593096 
L 110.162109 185.582842 
L 111.251953 184.649736 
L 111.796875 184.29085 
L 112.341797 183.64998 
L 112.886719 183.234697 
L 115.066406 180.942949 
L 117.791016 178.487139 
L 119.425781 177.871904 
L 119.970703 178.251299 
L 120.515625 178.276934 
L 121.605469 178.738359 
L 123.240234 180.466143 
L 123.785156 181.435137 
L 124.330078 181.937578 
L 124.875 182.727129 
L 125.964844 183.860186 
L 127.054688 184.193437 
L 127.599609 183.942217 
L 128.144531 183.870439 
L 128.689453 183.409014 
L 129.234375 182.798906 
L 129.779297 181.686357 
L 130.324219 180.855791 
L 131.958984 176.251787 
L 133.048828 172.821855 
L 134.138672 169.663652 
L 135.228516 166.5721 
L 135.773438 165.300615 
L 136.318359 164.36751 
L 136.863281 163.906084 
L 137.408203 163.244707 
L 137.953125 163.080645 
L 138.498047 163.208818 
L 139.587891 164.172686 
L 140.132812 164.844316 
L 141.222656 166.618242 
L 145.037109 173.754961 
L 145.582031 174.539385 
L 147.216797 177.84627 
L 148.306641 179.445879 
L 148.851562 180.276445 
L 149.396484 180.84041 
L 149.941406 181.209551 
L 150.486328 181.947832 
L 151.03125 182.019609 
L 151.576172 182.352861 
L 152.121094 182.3221 
L 152.666016 182.501543 
L 153.755859 182.470781 
L 154.845703 182.363115 
L 155.935547 182.357988 
L 156.480469 182.158037 
L 157.025391 182.142656 
L 158.115234 181.911943 
L 158.660156 182.055498 
L 159.205078 181.906816 
L 160.839844 182.44002 
L 161.384766 182.429766 
L 164.654297 183.983232 
L 165.199219 184.224199 
L 165.744141 184.834307 
L 167.378906 184.875322 
L 167.923828 184.762529 
L 169.558594 183.573076 
L 171.193359 181.07625 
L 173.917969 176.190264 
L 174.462891 175.098223 
L 175.552734 173.493486 
L 176.642578 172.61165 
L 177.1875 172.032305 
L 178.277344 171.65291 
L 178.822266 171.170977 
L 179.912109 170.699297 
L 180.457031 170.217363 
L 181.546875 169.771318 
L 182.091797 169.561113 
L 184.816406 165.618486 
L 185.361328 165.008379 
L 185.90625 164.100908 
L 186.996094 162.88582 
L 187.541016 162.70125 
L 188.630859 162.670488 
L 189.175781 163.060137 
L 189.720703 163.106279 
L 191.355469 164.003496 
L 191.900391 164.449541 
L 196.259766 170.284014 
L 197.349609 171.904131 
L 197.894531 172.509111 
L 198.439453 173.349932 
L 199.529297 174.04207 
L 201.164062 174.318926 
L 203.34375 173.026934 
L 203.888672 172.324541 
L 204.433594 172.104082 
L 204.978516 171.447832 
L 206.068359 170.62752 
L 206.613281 169.832842 
L 207.158203 169.530352 
L 207.703125 168.6075 
L 210.427734 166.838701 
L 210.972656 166.613115 
L 212.0625 166.792559 
L 212.607422 166.910479 
L 213.152344 167.366777 
L 213.697266 167.982012 
L 214.242188 168.42293 
L 216.421875 171.437578 
L 217.511719 172.59627 
L 218.056641 173.073076 
L 219.146484 173.565264 
L 219.691406 173.493486 
L 220.236328 173.196123 
L 220.78125 172.750078 
L 222.416016 169.832842 
L 224.050781 165.049395 
L 226.230469 157.928057 
L 226.775391 156.379717 
L 227.865234 154.041826 
L 228.410156 153.518877 
L 228.955078 152.770342 
L 230.044922 152.298662 
L 230.589844 152.539629 
L 231.679688 153.400957 
L 232.224609 153.74959 
L 232.769531 154.426348 
L 233.314453 155.472246 
L 233.859375 156.118242 
L 235.494141 158.922686 
L 236.039062 160.214678 
L 236.583984 160.942705 
L 240.943359 168.797197 
L 243.123047 170.607012 
L 245.302734 171.447832 
L 245.847656 171.483721 
L 246.392578 171.673418 
L 246.9375 171.519609 
L 247.482422 171.765703 
L 248.027344 171.642656 
L 248.572266 171.376055 
L 249.117188 171.678545 
L 250.207031 171.304277 
L 251.841797 171.46834 
L 253.476562 172.232256 
L 254.566406 173.155107 
L 255.111328 173.539629 
L 255.65625 174.21126 
L 256.746094 174.795732 
L 257.291016 175.277666 
L 257.835938 175.605791 
L 258.925781 175.831377 
L 260.015625 175.400713 
L 260.560547 174.821367 
L 261.105469 174.534258 
L 261.650391 173.580645 
L 262.740234 172.411699 
L 263.830078 170.586504 
L 264.375 169.858477 
L 264.919922 168.72542 
L 266.554688 166.223467 
L 267.644531 165.233965 
L 268.189453 164.823809 
L 268.734375 164.654619 
L 269.824219 164.500811 
L 270.369141 164.321367 
L 270.914062 164.454668 
L 272.003906 164.070146 
L 273.09375 163.40877 
L 274.728516 161.537432 
L 275.273438 160.794023 
L 275.818359 159.794268 
L 276.363281 159.399492 
L 276.908203 158.533037 
L 278.542969 157.128252 
L 279.087891 157.025713 
L 280.177734 156.641191 
L 280.722656 156.589922 
L 281.267578 156.959062 
L 281.8125 156.866777 
L 282.902344 157.523027 
L 283.447266 158.169023 
L 283.992188 158.630449 
L 284.537109 159.337969 
L 287.261719 164.059893 
L 287.806641 164.72127 
L 288.896484 166.500322 
L 289.986328 168.084551 
L 290.53125 168.458818 
L 291.076172 169.320146 
L 291.621094 169.268877 
L 292.166016 169.725176 
L 292.710938 169.991777 
L 293.255859 170.017412 
L 293.800781 170.237871 
L 294.345703 170.10457 
L 294.890625 169.612383 
L 295.980469 169.38167 
L 297.070312 168.879229 
L 297.615234 168.453691 
L 299.25 166.731035 
L 299.794922 166.556719 
L 300.339844 165.93123 
L 300.884766 165.608232 
L 303.609375 165.09041 
L 304.154297 165.362139 
L 304.699219 166.013262 
L 305.244141 166.156816 
L 307.423828 169.07918 
L 307.96875 170.160967 
L 308.513672 170.617266 
L 309.058594 171.627275 
L 309.603516 172.011797 
L 310.148438 172.719316 
L 310.693359 173.160234 
L 311.238281 173.283281 
L 312.328125 173.190996 
L 312.873047 172.606523 
L 313.962891 170.965898 
L 314.507812 169.827715 
L 316.142578 165.182695 
L 317.777344 160.31209 
L 318.867188 157.702471 
L 319.957031 156.102861 
L 321.046875 154.964678 
L 322.136719 154.52376 
L 322.681641 154.59041 
L 323.771484 155.313311 
L 324.316406 155.708086 
L 326.496094 158.917559 
L 327.041016 160.045488 
L 327.585938 160.886309 
L 328.675781 163.331865 
L 329.220703 164.331621 
L 329.765625 165.715898 
L 330.310547 166.649004 
L 330.855469 167.992266 
L 331.945312 169.591875 
L 332.490234 170.617266 
L 334.125 172.683428 
L 334.669922 173.303789 
L 335.214844 173.688311 
L 335.759766 174.365068 
L 338.484375 175.790361 
L 340.119141 175.790361 
L 340.664062 176.097979 
L 341.208984 175.969805 
L 341.753906 176.026201 
L 342.298828 176.303057 
L 342.84375 176.359453 
L 343.388672 176.636309 
L 343.933594 176.656816 
L 344.478516 176.969561 
L 346.113281 178.605059 
L 347.203125 179.979082 
L 348.292969 180.999346 
L 349.382812 182.163164 
L 351.5625 182.998857 
L 352.652344 182.870684 
L 354.287109 181.486406 
L 357.011719 177.225908 
L 357.556641 176.590166 
L 358.101562 176.149248 
L 358.646484 175.318682 
L 359.191406 175.293047 
L 359.736328 174.995684 
L 360.28125 175.046953 
L 360.826172 174.718828 
L 361.916016 174.862383 
L 362.460938 174.821367 
L 363.005859 174.949541 
L 363.550781 174.354814 
L 364.640625 173.513994 
L 365.185547 173.38582 
L 366.275391 171.960527 
L 366.820312 171.617021 
L 367.910156 170.535234 
L 368.455078 170.242998 
L 369 169.181719 
L 369.544922 169.089434 
L 371.724609 167.905107 
L 372.269531 167.700029 
L 372.814453 167.961504 
L 373.904297 168.120439 
L 374.449219 168.42293 
L 374.994141 168.899736 
L 376.083984 170.294268 
L 379.353516 175.805742 
L 380.988281 178.507646 
L 381.533203 179.266436 
L 382.078125 180.250811 
L 383.167969 181.358232 
L 383.712891 182.040117 
L 384.802734 182.983477 
L 385.347656 183.086016 
L 385.892578 183.055254 
L 386.4375 183.244951 
L 386.982422 183.28084 
L 387.527344 182.952715 
L 389.162109 182.393877 
L 390.251953 181.717119 
L 392.431641 180.081621 
L 394.066406 179.753496 
L 394.611328 179.722734 
L 395.15625 179.876543 
L 397.335938 181.624834 
L 398.425781 183.470537 
L 399.515625 185.203447 
L 400.060547 186.474932 
L 401.695312 189.346025 
L 402.240234 189.822832 
L 402.785156 190.453447 
L 403.330078 190.550859 
L 404.419922 189.894609 
L 404.964844 189.438311 
L 405.509766 188.525713 
L 407.144531 184.808672 
L 408.234375 181.711992 
L 409.324219 178.902422 
L 409.869141 177.810381 
L 410.414062 176.451738 
L 412.048828 173.760088 
L 412.59375 173.047441 
L 413.138672 172.580889 
L 413.683594 172.647539 
L 414.228516 172.375811 
L 414.773438 172.375811 
L 415.863281 172.857744 
L 416.408203 173.539629 
L 416.953125 173.90877 
L 417.498047 175.067461 
L 419.132812 177.707842 
L 420.767578 181.465898 
L 422.402344 184.742021 
L 422.947266 185.700762 
L 423.492188 186.987627 
L 424.037109 187.592607 
L 425.126953 189.617754 
L 427.306641 192.176104 
L 428.396484 193.042559 
L 429.486328 193.416826 
L 430.03125 193.170732 
L 431.121094 193.575762 
L 432.210938 193.350176 
L 432.755859 193.668047 
L 433.300781 193.457842 
L 434.935547 193.765459 
L 436.025391 194.355059 
L 436.570312 195.006182 
L 437.115234 195.313799 
L 439.294922 198.056719 
L 439.839844 198.697588 
L 440.929688 200.286943 
L 441.474609 200.625322 
L 442.019531 201.240557 
L 443.109375 201.850664 
L 443.654297 201.825029 
L 445.289062 200.661211 
L 449.103516 194.421709 
L 449.648438 193.909014 
L 450.738281 193.155352 
L 451.283203 192.637529 
L 452.917969 192.29915 
L 453.462891 191.955645 
L 454.552734 191.858232 
L 455.097656 191.442949 
L 455.642578 191.242998 
L 456.732422 190.284258 
L 457.822266 189.392168 
L 458.912109 188.238604 
L 459.457031 187.700273 
L 460.001953 187.479814 
L 460.546875 186.567217 
L 461.636719 185.546953 
L 462.181641 184.936846 
L 463.271484 183.93709 
L 463.816406 183.475664 
L 464.361328 183.219316 
L 464.90625 183.332109 
L 465.451172 182.968096 
L 466.541016 183.137285 
L 467.630859 183.962725 
L 468.175781 184.608721 
L 468.720703 184.993242 
L 469.265625 185.639238 
L 473.625 192.627275 
L 474.714844 193.693682 
L 475.259766 194.462725 
L 477.439453 195.636797 
L 477.984375 195.770098 
L 478.529297 195.570146 
L 479.074219 195.493242 
L 479.619141 195.031816 
L 480.164062 195.016436 
L 480.708984 194.647295 
L 481.253906 193.816729 
L 481.798828 193.401445 
L 482.34375 192.83748 
L 482.888672 192.576006 
L 483.978516 191.350664 
L 484.523438 191.207109 
L 485.613281 190.361162 
L 486.158203 190.125322 
L 486.703125 190.14583 
L 487.248047 190.043291 
L 488.337891 190.643145 
L 488.882812 191.191729 
L 490.517578 193.560381 
L 492.152344 196.498125 
L 493.242188 198.266924 
L 493.787109 198.984697 
L 494.876953 199.471758 
L 495.421875 199.415361 
L 495.966797 198.902666 
L 496.511719 198.113115 
L 497.056641 197.615801 
L 498.691406 193.683428 
L 499.236328 192.411943 
L 499.78125 190.791826 
L 500.326172 189.520342 
L 501.416016 186.290361 
L 503.050781 182.583574 
L 504.685547 179.809893 
L 505.775391 178.851152 
L 506.320312 178.789629 
L 506.865234 178.425615 
L 507.410156 178.794756 
L 507.955078 178.794756 
L 509.044922 179.856035 
L 509.589844 180.450762 
L 511.224609 182.983477 
L 512.314453 185.152178 
L 512.859375 185.613604 
L 513.404297 186.741533 
L 513.949219 187.536211 
L 515.039062 189.458818 
L 515.583984 189.96126 
L 517.21875 192.396562 
L 517.763672 192.914385 
L 518.308594 193.606523 
L 518.853516 193.688555 
L 519.398438 194.43709 
L 519.943359 194.401201 
L 520.488281 194.513994 
L 521.578125 194.355059 
L 523.212891 194.196123 
L 523.757812 193.996172 
L 524.302734 193.996172 
L 525.392578 193.765459 
L 525.9375 193.755205 
L 527.027344 194.426836 
L 528.117188 194.698564 
L 529.207031 195.503496 
L 533.021484 199.938311 
L 534.111328 200.661211 
L 534.65625 200.768877 
L 535.201172 200.635576 
L 536.291016 199.661455 
L 537.380859 198.302812 
L 538.470703 196.154619 
L 540.105469 193.647539 
L 540.650391 192.617021 
L 544.464844 189.171709 
L 546.644531 187.392656 
L 547.189453 186.946611 
L 548.279297 185.78792 
L 548.824219 185.362383 
L 554.818359 177.338701 
L 556.998047 175.764727 
L 557.542969 175.559648 
L 558.087891 175.662187 
L 558.632812 175.564775 
L 559.177734 175.969805 
L 559.722656 176.092852 
L 562.447266 178.702471 
L 562.992188 179.533037 
L 563.537109 180.102129 
L 564.082031 181.030107 
L 564.626953 181.424883 
L 565.171875 182.260576 
L 566.261719 183.250078 
L 566.806641 183.773027 
L 568.986328 184.762529 
L 569.53125 184.762529 
L 571.166016 184.295977 
L 571.710938 183.962725 
L 572.255859 183.7679 
L 572.800781 183.234697 
L 573.890625 182.532305 
L 574.435547 181.886309 
L 574.980469 181.609453 
L 576.070312 180.399492 
L 576.615234 180.214922 
L 577.705078 179.081865 
L 578.794922 178.538408 
L 579.339844 178.538408 
L 579.884766 178.702471 
L 581.519531 180.36873 
L 583.154297 183.193682 
L 583.699219 183.896074 
L 584.244141 185.018877 
L 585.333984 186.341631 
L 586.423828 186.956865 
L 586.96875 186.597979 
L 587.513672 186.521074 
L 589.148438 184.352373 
L 591.328125 179.363848 
L 592.962891 174.693193 
L 594.597656 170.196855 
L 596.232422 166.777178 
L 597.867188 164.977617 
L 598.412109 164.880205 
L 598.957031 164.664873 
L 599.501953 164.741777 
L 600.046875 165.203203 
L 600.591797 165.341631 
L 601.681641 166.45418 
L 602.771484 167.787187 
L 603.316406 168.146074 
L 603.861328 169.253496 
L 604.951172 170.786455 
L 606.041016 172.560381 
L 606.585938 173.175615 
L 607.675781 175.108477 
L 609.855469 177.574541 
L 610.945312 178.389727 
L 612.035156 178.799883 
L 612.580078 178.717852 
L 613.669922 178.846025 
L 614.214844 178.651201 
L 614.759766 178.661455 
L 616.394531 178.343584 
L 616.939453 177.994951 
L 617.484375 178.102617 
L 618.029297 177.902666 
L 618.574219 178.066729 
L 619.119141 178.102617 
L 619.664062 178.307695 
L 620.208984 178.810137 
L 620.753906 178.948564 
L 624.023438 183.783281 
L 625.113281 185.003496 
L 625.658203 184.854814 
L 626.203125 185.208574 
L 626.748047 185.06502 
L 627.837891 184.336992 
L 628.382812 183.470537 
L 628.927734 182.942461 
L 629.472656 182.193926 
L 630.5625 180.481523 
L 631.107422 179.88167 
L 632.742188 177.389971 
L 633.287109 177.041338 
L 634.376953 175.657061 
L 634.921875 175.395586 
L 636.011719 174.524004 
L 636.556641 174.298418 
L 637.646484 173.421709 
L 638.191406 173.221758 
L 638.736328 172.498857 
L 639.826172 171.852861 
L 642.005859 169.648271 
L 642.550781 168.776689 
L 643.640625 167.889727 
L 644.185547 166.818193 
L 646.365234 163.875322 
L 646.910156 162.93709 
L 647.455078 162.598711 
L 647.455078 162.598711 
" style="fill:none;stroke:#4c72b0;stroke-linecap:round;stroke-width:1.75;"/>
   </g>
   <g id="patch_3">
    <path d="M 90 270.72 
L 90 69.12 
" style="fill:none;stroke:#262626;stroke-linecap:square;stroke-linejoin:miter;stroke-width:1.25;"/>
   </g>
   <g id="patch_4">
    <path d="M 90 270.72 
L 648 270.72 
" style="fill:none;stroke:#262626;stroke-linecap:square;stroke-linejoin:miter;stroke-width:1.25;"/>
   </g>
  </g>
  <g id="axes_2">
   <g id="patch_5">
    <path d="M 90 512.64 
L 648 512.64 
L 648 311.04 
L 90 311.04 
z
" style="fill:#ffffff;"/>
   </g>
   <g id="matplotlib.axis_3">
    <g id="xtick_7">
     <g id="line2d_15">
      <g>
       <use style="fill:#262626;stroke:#262626;" x="218.197478" xlink:href="#mf1143829c6" y="512.64"/>
      </g>
     </g>
     <g id="text_14">
      <!-- $\mathdefault{10^{2}}$ -->
      <g style="fill:#262626;" transform="translate(210.347478 535.9525)scale(0.1 -0.1)">
       <use transform="translate(0 0.99375)" xlink:href="#ArialMT-31"/>
       <use transform="translate(55.615234 0.99375)" xlink:href="#ArialMT-30"/>
       <use transform="translate(112.972813 70.6875)scale(0.7)" xlink:href="#ArialMT-32"/>
      </g>
     </g>
    </g>
    <g id="xtick_8">
     <g id="line2d_16">
      <g>
       <use style="fill:#262626;stroke:#262626;" x="401.606604" xlink:href="#mf1143829c6" y="512.64"/>
      </g>
     </g>
     <g id="text_15">
      <!-- $\mathdefault{10^{3}}$ -->
      <defs>
       <path d="M 4.203125 18.890625 
L 12.984375 20.0625 
Q 14.5 12.59375 18.140625 9.296875 
Q 21.78125 6 27 6 
Q 33.203125 6 37.46875 10.296875 
Q 41.75 14.59375 41.75 20.953125 
Q 41.75 27 37.796875 30.921875 
Q 33.84375 34.859375 27.734375 34.859375 
Q 25.25 34.859375 21.53125 33.890625 
L 22.515625 41.609375 
Q 23.390625 41.5 23.921875 41.5 
Q 29.546875 41.5 34.03125 44.421875 
Q 38.53125 47.359375 38.53125 53.46875 
Q 38.53125 58.296875 35.25 61.46875 
Q 31.984375 64.65625 26.8125 64.65625 
Q 21.6875 64.65625 18.265625 61.421875 
Q 14.84375 58.203125 13.875 51.765625 
L 5.078125 53.328125 
Q 6.6875 62.15625 12.390625 67.015625 
Q 18.109375 71.875 26.609375 71.875 
Q 32.46875 71.875 37.390625 69.359375 
Q 42.328125 66.84375 44.9375 62.5 
Q 47.5625 58.15625 47.5625 53.265625 
Q 47.5625 48.640625 45.0625 44.828125 
Q 42.578125 41.015625 37.703125 38.765625 
Q 44.046875 37.3125 47.5625 32.6875 
Q 51.078125 28.078125 51.078125 21.140625 
Q 51.078125 11.765625 44.234375 5.25 
Q 37.40625 -1.265625 26.953125 -1.265625 
Q 17.53125 -1.265625 11.296875 4.34375 
Q 5.078125 9.96875 4.203125 18.890625 
z
" id="ArialMT-33"/>
      </defs>
      <g style="fill:#262626;" transform="translate(393.756604 535.9525)scale(0.1 -0.1)">
       <use transform="translate(0 0.99375)" xlink:href="#ArialMT-31"/>
       <use transform="translate(55.615234 0.99375)" xlink:href="#ArialMT-30"/>
       <use transform="translate(112.972813 70.6875)scale(0.7)" xlink:href="#ArialMT-33"/>
      </g>
     </g>
    </g>
    <g id="xtick_9">
     <g id="line2d_17">
      <g>
       <use style="fill:#262626;stroke:#262626;" x="585.01573" xlink:href="#mf1143829c6" y="512.64"/>
      </g>
     </g>
     <g id="text_16">
      <!-- $\mathdefault{10^{4}}$ -->
      <g style="fill:#262626;" transform="translate(577.16573 535.8525)scale(0.1 -0.1)">
       <use transform="translate(0 0.201563)" xlink:href="#ArialMT-31"/>
       <use transform="translate(55.615234 0.201563)" xlink:href="#ArialMT-30"/>
       <use transform="translate(112.972813 69.895313)scale(0.7)" xlink:href="#ArialMT-34"/>
      </g>
     </g>
    </g>
    <g id="xtick_10">
     <g id="line2d_18">
      <defs>
       <path d="M 0 0 
L 0 3 
" id="mbda9726cbc" style="stroke:#262626;stroke-width:0.5;"/>
      </defs>
      <g>
       <use style="fill:#262626;stroke:#262626;stroke-width:0.5;" x="90" xlink:href="#mbda9726cbc" y="512.64"/>
      </g>
     </g>
    </g>
    <g id="xtick_11">
     <g id="line2d_19">
      <g>
       <use style="fill:#262626;stroke:#262626;stroke-width:0.5;" x="122.296744" xlink:href="#mbda9726cbc" y="512.64"/>
      </g>
     </g>
    </g>
    <g id="xtick_12">
     <g id="line2d_20">
      <g>
       <use style="fill:#262626;stroke:#262626;stroke-width:0.5;" x="145.211648" xlink:href="#mbda9726cbc" y="512.64"/>
      </g>
     </g>
    </g>
    <g id="xtick_13">
     <g id="line2d_21">
      <g>
       <use style="fill:#262626;stroke:#262626;stroke-width:0.5;" x="162.985829" xlink:href="#mbda9726cbc" y="512.64"/>
      </g>
     </g>
    </g>
    <g id="xtick_14">
     <g id="line2d_22">
      <g>
       <use style="fill:#262626;stroke:#262626;stroke-width:0.5;" x="177.508392" xlink:href="#mbda9726cbc" y="512.64"/>
      </g>
     </g>
    </g>
    <g id="xtick_15">
     <g id="line2d_23">
      <g>
       <use style="fill:#262626;stroke:#262626;stroke-width:0.5;" x="189.787045" xlink:href="#mbda9726cbc" y="512.64"/>
      </g>
     </g>
    </g>
    <g id="xtick_16">
     <g id="line2d_24">
      <g>
       <use style="fill:#262626;stroke:#262626;stroke-width:0.5;" x="200.423297" xlink:href="#mbda9726cbc" y="512.64"/>
      </g>
     </g>
    </g>
    <g id="xtick_17">
     <g id="line2d_25">
      <g>
       <use style="fill:#262626;stroke:#262626;stroke-width:0.5;" x="209.805136" xlink:href="#mbda9726cbc" y="512.64"/>
      </g>
     </g>
    </g>
    <g id="xtick_18">
     <g id="line2d_26">
      <g>
       <use style="fill:#262626;stroke:#262626;stroke-width:0.5;" x="273.409126" xlink:href="#mbda9726cbc" y="512.64"/>
      </g>
     </g>
    </g>
    <g id="xtick_19">
     <g id="line2d_27">
      <g>
       <use style="fill:#262626;stroke:#262626;stroke-width:0.5;" x="305.70587" xlink:href="#mbda9726cbc" y="512.64"/>
      </g>
     </g>
    </g>
    <g id="xtick_20">
     <g id="line2d_28">
      <g>
       <use style="fill:#262626;stroke:#262626;stroke-width:0.5;" x="328.620775" xlink:href="#mbda9726cbc" y="512.64"/>
      </g>
     </g>
    </g>
    <g id="xtick_21">
     <g id="line2d_29">
      <g>
       <use style="fill:#262626;stroke:#262626;stroke-width:0.5;" x="346.394955" xlink:href="#mbda9726cbc" y="512.64"/>
      </g>
     </g>
    </g>
    <g id="xtick_22">
     <g id="line2d_30">
      <g>
       <use style="fill:#262626;stroke:#262626;stroke-width:0.5;" x="360.917518" xlink:href="#mbda9726cbc" y="512.64"/>
      </g>
     </g>
    </g>
    <g id="xtick_23">
     <g id="line2d_31">
      <g>
       <use style="fill:#262626;stroke:#262626;stroke-width:0.5;" x="373.196171" xlink:href="#mbda9726cbc" y="512.64"/>
      </g>
     </g>
    </g>
    <g id="xtick_24">
     <g id="line2d_32">
      <g>
       <use style="fill:#262626;stroke:#262626;stroke-width:0.5;" x="383.832423" xlink:href="#mbda9726cbc" y="512.64"/>
      </g>
     </g>
    </g>
    <g id="xtick_25">
     <g id="line2d_33">
      <g>
       <use style="fill:#262626;stroke:#262626;stroke-width:0.5;" x="393.214262" xlink:href="#mbda9726cbc" y="512.64"/>
      </g>
     </g>
    </g>
    <g id="xtick_26">
     <g id="line2d_34">
      <g>
       <use style="fill:#262626;stroke:#262626;stroke-width:0.5;" x="456.818252" xlink:href="#mbda9726cbc" y="512.64"/>
      </g>
     </g>
    </g>
    <g id="xtick_27">
     <g id="line2d_35">
      <g>
       <use style="fill:#262626;stroke:#262626;stroke-width:0.5;" x="489.114996" xlink:href="#mbda9726cbc" y="512.64"/>
      </g>
     </g>
    </g>
    <g id="xtick_28">
     <g id="line2d_36">
      <g>
       <use style="fill:#262626;stroke:#262626;stroke-width:0.5;" x="512.029901" xlink:href="#mbda9726cbc" y="512.64"/>
      </g>
     </g>
    </g>
    <g id="xtick_29">
     <g id="line2d_37">
      <g>
       <use style="fill:#262626;stroke:#262626;stroke-width:0.5;" x="529.804081" xlink:href="#mbda9726cbc" y="512.64"/>
      </g>
     </g>
    </g>
    <g id="xtick_30">
     <g id="line2d_38">
      <g>
       <use style="fill:#262626;stroke:#262626;stroke-width:0.5;" x="544.326645" xlink:href="#mbda9726cbc" y="512.64"/>
      </g>
     </g>
    </g>
    <g id="xtick_31">
     <g id="line2d_39">
      <g>
       <use style="fill:#262626;stroke:#262626;stroke-width:0.5;" x="556.605297" xlink:href="#mbda9726cbc" y="512.64"/>
      </g>
     </g>
    </g>
    <g id="xtick_32">
     <g id="line2d_40">
      <g>
       <use style="fill:#262626;stroke:#262626;stroke-width:0.5;" x="567.241549" xlink:href="#mbda9726cbc" y="512.64"/>
      </g>
     </g>
    </g>
    <g id="xtick_33">
     <g id="line2d_41">
      <g>
       <use style="fill:#262626;stroke:#262626;stroke-width:0.5;" x="576.623389" xlink:href="#mbda9726cbc" y="512.64"/>
      </g>
     </g>
    </g>
    <g id="xtick_34">
     <g id="line2d_42">
      <g>
       <use style="fill:#262626;stroke:#262626;stroke-width:0.5;" x="640.227378" xlink:href="#mbda9726cbc" y="512.64"/>
      </g>
     </g>
    </g>
   </g>
   <g id="matplotlib.axis_4">
    <g id="ytick_8">
     <g id="line2d_43">
      <g>
       <use style="fill:#262626;stroke:#262626;" x="90" xlink:href="#m470753a53d" y="512.64"/>
      </g>
     </g>
     <g id="text_17">
      <!-- $\mathdefault{10^{-5}}$ -->
      <defs>
       <path d="M 4.15625 18.75 
L 13.375 19.53125 
Q 14.40625 12.796875 18.140625 9.390625 
Q 21.875 6 27.15625 6 
Q 33.5 6 37.890625 10.78125 
Q 42.28125 15.578125 42.28125 23.484375 
Q 42.28125 31 38.0625 35.34375 
Q 33.84375 39.703125 27 39.703125 
Q 22.75 39.703125 19.328125 37.765625 
Q 15.921875 35.84375 13.96875 32.765625 
L 5.71875 33.84375 
L 12.640625 70.609375 
L 48.25 70.609375 
L 48.25 62.203125 
L 19.671875 62.203125 
L 15.828125 42.96875 
Q 22.265625 47.46875 29.34375 47.46875 
Q 38.71875 47.46875 45.15625 40.96875 
Q 51.609375 34.46875 51.609375 24.265625 
Q 51.609375 14.546875 45.953125 7.46875 
Q 39.0625 -1.21875 27.15625 -1.21875 
Q 17.390625 -1.21875 11.203125 4.25 
Q 5.03125 9.71875 4.15625 18.75 
z
" id="ArialMT-35"/>
      </defs>
      <g style="fill:#262626;" transform="translate(57.2 517.74625)scale(0.1 -0.1)">
       <use transform="translate(0 0.879688)" xlink:href="#ArialMT-31"/>
       <use transform="translate(55.615234 0.879688)" xlink:href="#ArialMT-30"/>
       <use transform="translate(112.972813 70.573438)scale(0.7)" xlink:href="#ArialMT-2212"/>
       <use transform="translate(153.851719 70.573438)scale(0.7)" xlink:href="#ArialMT-35"/>
      </g>
     </g>
    </g>
    <g id="ytick_9">
     <g id="line2d_44">
      <g>
       <use style="fill:#262626;stroke:#262626;" x="90" xlink:href="#m470753a53d" y="465.767507"/>
      </g>
     </g>
     <g id="text_18">
      <!-- $\mathdefault{10^{-4}}$ -->
      <g style="fill:#262626;" transform="translate(57.2 470.873757)scale(0.1 -0.1)">
       <use transform="translate(0 0.201563)" xlink:href="#ArialMT-31"/>
       <use transform="translate(55.615234 0.201563)" xlink:href="#ArialMT-30"/>
       <use transform="translate(112.972813 69.895313)scale(0.7)" xlink:href="#ArialMT-2212"/>
       <use transform="translate(153.851719 69.895313)scale(0.7)" xlink:href="#ArialMT-34"/>
      </g>
     </g>
    </g>
    <g id="ytick_10">
     <g id="line2d_45">
      <g>
       <use style="fill:#262626;stroke:#262626;" x="90" xlink:href="#m470753a53d" y="418.895013"/>
      </g>
     </g>
     <g id="text_19">
      <!-- $\mathdefault{10^{-3}}$ -->
      <g style="fill:#262626;" transform="translate(57.2 424.051263)scale(0.1 -0.1)">
       <use transform="translate(0 0.99375)" xlink:href="#ArialMT-31"/>
       <use transform="translate(55.615234 0.99375)" xlink:href="#ArialMT-30"/>
       <use transform="translate(112.972813 70.6875)scale(0.7)" xlink:href="#ArialMT-2212"/>
       <use transform="translate(153.851719 70.6875)scale(0.7)" xlink:href="#ArialMT-33"/>
      </g>
     </g>
    </g>
    <g id="ytick_11">
     <g id="line2d_46">
      <g>
       <use style="fill:#262626;stroke:#262626;" x="90" xlink:href="#m470753a53d" y="372.02252"/>
      </g>
     </g>
     <g id="text_20">
      <!-- $\mathdefault{10^{-2}}$ -->
      <g style="fill:#262626;" transform="translate(57.2 377.17877)scale(0.1 -0.1)">
       <use transform="translate(0 0.99375)" xlink:href="#ArialMT-31"/>
       <use transform="translate(55.615234 0.99375)" xlink:href="#ArialMT-30"/>
       <use transform="translate(112.972813 70.6875)scale(0.7)" xlink:href="#ArialMT-2212"/>
       <use transform="translate(153.851719 70.6875)scale(0.7)" xlink:href="#ArialMT-32"/>
      </g>
     </g>
    </g>
    <g id="ytick_12">
     <g id="line2d_47">
      <g>
       <use style="fill:#262626;stroke:#262626;" x="90" xlink:href="#m470753a53d" y="325.150026"/>
      </g>
     </g>
     <g id="text_21">
      <!-- $\mathdefault{10^{-1}}$ -->
      <g style="fill:#262626;" transform="translate(57.2 330.306276)scale(0.1 -0.1)">
       <use transform="translate(0 0.99375)" xlink:href="#ArialMT-31"/>
       <use transform="translate(55.615234 0.99375)" xlink:href="#ArialMT-30"/>
       <use transform="translate(112.972813 70.6875)scale(0.7)" xlink:href="#ArialMT-2212"/>
       <use transform="translate(153.851719 70.6875)scale(0.7)" xlink:href="#ArialMT-31"/>
      </g>
     </g>
    </g>
    <g id="ytick_13">
     <g id="line2d_48">
      <defs>
       <path d="M 0 0 
L -3 0 
" id="mac185cf8d3" style="stroke:#262626;stroke-width:0.5;"/>
      </defs>
      <g>
       <use style="fill:#262626;stroke:#262626;stroke-width:0.5;" x="90" xlink:href="#mac185cf8d3" y="498.529974"/>
      </g>
     </g>
    </g>
    <g id="ytick_14">
     <g id="line2d_49">
      <g>
       <use style="fill:#262626;stroke:#262626;stroke-width:0.5;" x="90" xlink:href="#mac185cf8d3" y="490.276137"/>
      </g>
     </g>
    </g>
    <g id="ytick_15">
     <g id="line2d_50">
      <g>
       <use style="fill:#262626;stroke:#262626;stroke-width:0.5;" x="90" xlink:href="#mac185cf8d3" y="484.419947"/>
      </g>
     </g>
    </g>
    <g id="ytick_16">
     <g id="line2d_51">
      <g>
       <use style="fill:#262626;stroke:#262626;stroke-width:0.5;" x="90" xlink:href="#mac185cf8d3" y="479.877533"/>
      </g>
     </g>
    </g>
    <g id="ytick_17">
     <g id="line2d_52">
      <g>
       <use style="fill:#262626;stroke:#262626;stroke-width:0.5;" x="90" xlink:href="#mac185cf8d3" y="476.166111"/>
      </g>
     </g>
    </g>
    <g id="ytick_18">
     <g id="line2d_53">
      <g>
       <use style="fill:#262626;stroke:#262626;stroke-width:0.5;" x="90" xlink:href="#mac185cf8d3" y="473.028148"/>
      </g>
     </g>
    </g>
    <g id="ytick_19">
     <g id="line2d_54">
      <g>
       <use style="fill:#262626;stroke:#262626;stroke-width:0.5;" x="90" xlink:href="#mac185cf8d3" y="470.309921"/>
      </g>
     </g>
    </g>
    <g id="ytick_20">
     <g id="line2d_55">
      <g>
       <use style="fill:#262626;stroke:#262626;stroke-width:0.5;" x="90" xlink:href="#mac185cf8d3" y="467.912274"/>
      </g>
     </g>
    </g>
    <g id="ytick_21">
     <g id="line2d_56">
      <g>
       <use style="fill:#262626;stroke:#262626;stroke-width:0.5;" x="90" xlink:href="#mac185cf8d3" y="451.65748"/>
      </g>
     </g>
    </g>
    <g id="ytick_22">
     <g id="line2d_57">
      <g>
       <use style="fill:#262626;stroke:#262626;stroke-width:0.5;" x="90" xlink:href="#mac185cf8d3" y="443.403644"/>
      </g>
     </g>
    </g>
    <g id="ytick_23">
     <g id="line2d_58">
      <g>
       <use style="fill:#262626;stroke:#262626;stroke-width:0.5;" x="90" xlink:href="#mac185cf8d3" y="437.547454"/>
      </g>
     </g>
    </g>
    <g id="ytick_24">
     <g id="line2d_59">
      <g>
       <use style="fill:#262626;stroke:#262626;stroke-width:0.5;" x="90" xlink:href="#mac185cf8d3" y="433.00504"/>
      </g>
     </g>
    </g>
    <g id="ytick_25">
     <g id="line2d_60">
      <g>
       <use style="fill:#262626;stroke:#262626;stroke-width:0.5;" x="90" xlink:href="#mac185cf8d3" y="429.293617"/>
      </g>
     </g>
    </g>
    <g id="ytick_26">
     <g id="line2d_61">
      <g>
       <use style="fill:#262626;stroke:#262626;stroke-width:0.5;" x="90" xlink:href="#mac185cf8d3" y="426.155654"/>
      </g>
     </g>
    </g>
    <g id="ytick_27">
     <g id="line2d_62">
      <g>
       <use style="fill:#262626;stroke:#262626;stroke-width:0.5;" x="90" xlink:href="#mac185cf8d3" y="423.437427"/>
      </g>
     </g>
    </g>
    <g id="ytick_28">
     <g id="line2d_63">
      <g>
       <use style="fill:#262626;stroke:#262626;stroke-width:0.5;" x="90" xlink:href="#mac185cf8d3" y="421.039781"/>
      </g>
     </g>
    </g>
    <g id="ytick_29">
     <g id="line2d_64">
      <g>
       <use style="fill:#262626;stroke:#262626;stroke-width:0.5;" x="90" xlink:href="#mac185cf8d3" y="404.784987"/>
      </g>
     </g>
    </g>
    <g id="ytick_30">
     <g id="line2d_65">
      <g>
       <use style="fill:#262626;stroke:#262626;stroke-width:0.5;" x="90" xlink:href="#mac185cf8d3" y="396.53115"/>
      </g>
     </g>
    </g>
    <g id="ytick_31">
     <g id="line2d_66">
      <g>
       <use style="fill:#262626;stroke:#262626;stroke-width:0.5;" x="90" xlink:href="#mac185cf8d3" y="390.67496"/>
      </g>
     </g>
    </g>
    <g id="ytick_32">
     <g id="line2d_67">
      <g>
       <use style="fill:#262626;stroke:#262626;stroke-width:0.5;" x="90" xlink:href="#mac185cf8d3" y="386.132546"/>
      </g>
     </g>
    </g>
    <g id="ytick_33">
     <g id="line2d_68">
      <g>
       <use style="fill:#262626;stroke:#262626;stroke-width:0.5;" x="90" xlink:href="#mac185cf8d3" y="382.421124"/>
      </g>
     </g>
    </g>
    <g id="ytick_34">
     <g id="line2d_69">
      <g>
       <use style="fill:#262626;stroke:#262626;stroke-width:0.5;" x="90" xlink:href="#mac185cf8d3" y="379.283161"/>
      </g>
     </g>
    </g>
    <g id="ytick_35">
     <g id="line2d_70">
      <g>
       <use style="fill:#262626;stroke:#262626;stroke-width:0.5;" x="90" xlink:href="#mac185cf8d3" y="376.564934"/>
      </g>
     </g>
    </g>
    <g id="ytick_36">
     <g id="line2d_71">
      <g>
       <use style="fill:#262626;stroke:#262626;stroke-width:0.5;" x="90" xlink:href="#mac185cf8d3" y="374.167288"/>
      </g>
     </g>
    </g>
    <g id="ytick_37">
     <g id="line2d_72">
      <g>
       <use style="fill:#262626;stroke:#262626;stroke-width:0.5;" x="90" xlink:href="#mac185cf8d3" y="357.912493"/>
      </g>
     </g>
    </g>
    <g id="ytick_38">
     <g id="line2d_73">
      <g>
       <use style="fill:#262626;stroke:#262626;stroke-width:0.5;" x="90" xlink:href="#mac185cf8d3" y="349.658657"/>
      </g>
     </g>
    </g>
    <g id="ytick_39">
     <g id="line2d_74">
      <g>
       <use style="fill:#262626;stroke:#262626;stroke-width:0.5;" x="90" xlink:href="#mac185cf8d3" y="343.802467"/>
      </g>
     </g>
    </g>
    <g id="ytick_40">
     <g id="line2d_75">
      <g>
       <use style="fill:#262626;stroke:#262626;stroke-width:0.5;" x="90" xlink:href="#mac185cf8d3" y="339.260053"/>
      </g>
     </g>
    </g>
    <g id="ytick_41">
     <g id="line2d_76">
      <g>
       <use style="fill:#262626;stroke:#262626;stroke-width:0.5;" x="90" xlink:href="#mac185cf8d3" y="335.548631"/>
      </g>
     </g>
    </g>
    <g id="ytick_42">
     <g id="line2d_77">
      <g>
       <use style="fill:#262626;stroke:#262626;stroke-width:0.5;" x="90" xlink:href="#mac185cf8d3" y="332.410668"/>
      </g>
     </g>
    </g>
    <g id="ytick_43">
     <g id="line2d_78">
      <g>
       <use style="fill:#262626;stroke:#262626;stroke-width:0.5;" x="90" xlink:href="#mac185cf8d3" y="329.69244"/>
      </g>
     </g>
    </g>
    <g id="ytick_44">
     <g id="line2d_79">
      <g>
       <use style="fill:#262626;stroke:#262626;stroke-width:0.5;" x="90" xlink:href="#mac185cf8d3" y="327.294794"/>
      </g>
     </g>
    </g>
    <g id="ytick_45">
     <g id="line2d_80">
      <g>
       <use style="fill:#262626;stroke:#262626;stroke-width:0.5;" x="90" xlink:href="#mac185cf8d3" y="311.04"/>
      </g>
     </g>
    </g>
   </g>
   <g id="line2d_81">
    <path clip-path="url(#pead9a38191)" d="M -1 347.739406 
L 151.095164 347.745452 
L 206.306812 363.596757 
L 238.603556 386.558038 
L 261.518461 394.280438 
L 279.292642 412.709406 
L 293.815205 378.938174 
L 306.093857 404.034135 
L 316.730109 406.467699 
L 326.111949 408.418811 
L 334.50429 413.670545 
L 342.096086 410.354817 
L 349.026853 357.380419 
L 355.402541 408.432278 
L 361.305505 414.815238 
L 366.801034 417.294349 
L 371.941758 422.762907 
L 376.770725 421.063661 
L 381.323597 398.967399 
L 385.630245 432.384674 
L 389.715939 440.035649 
L 393.602249 438.143441 
L 397.307735 425.065897 
L 400.848476 411.173348 
L 404.238502 375.8174 
L 407.490119 392.71823 
L 410.614189 406.16469 
L 413.620341 408.760345 
L 416.517154 410.662345 
L 419.312303 403.151355 
L 422.012683 378.66085 
L 427.153406 411.117988 
L 429.604479 425.770862 
L 431.982374 428.426741 
L 434.291335 426.976102 
L 436.535246 438.085992 
L 438.717672 427.86671 
L 440.841893 434.120073 
L 442.910933 449.049676 
L 444.927587 446.262562 
L 446.894442 448.636431 
L 448.813898 426.030073 
L 450.688186 402.406348 
L 452.519383 422.57269 
L 454.309426 427.128553 
L 456.060125 431.099499 
L 457.773171 430.927587 
L 459.45015 433.255392 
L 461.09255 440.539784 
L 462.701768 438.832701 
L 464.279118 437.475586 
L 465.825838 439.793144 
L 467.343094 442.367227 
L 468.83199 442.839358 
L 470.293564 430.75559 
L 471.728802 436.716584 
L 473.138637 439.282362 
L 474.523951 441.372167 
L 475.885584 442.014728 
L 477.224331 443.946868 
L 478.540949 447.536346 
L 479.836157 443.218694 
L 481.110642 442.748231 
L 482.365055 444.765749 
L 483.600019 445.3378 
L 484.816127 446.652768 
L 486.013948 444.970863 
L 487.194022 427.199454 
L 488.356869 446.217795 
L 489.502983 446.206852 
L 490.63284 448.412614 
L 491.746894 445.745867 
L 492.845581 449.528748 
L 493.92932 447.0558 
L 494.998512 453.398743 
L 497.094779 448.346995 
L 498.122582 447.297042 
L 499.137291 451.739385 
L 500.139235 449.289288 
L 503.0716 452.323068 
L 504.025546 452.660684 
L 504.968203 449.622084 
L 505.899834 449.616138 
L 506.820695 452.443282 
L 507.731032 453.330434 
L 508.631082 450.383055 
L 511.271773 454.30176 
L 512.132901 452.163054 
L 512.984819 457.662531 
L 513.827722 451.152896 
L 514.661799 454.719942 
L 515.487232 451.1944 
L 516.304198 451.227503 
L 517.112871 457.715888 
L 517.913416 454.658926 
L 518.705996 456.03538 
L 519.490766 454.858775 
L 520.26788 452.927496 
L 521.037486 456.838932 
L 521.799727 457.525269 
L 522.554743 457.060516 
L 523.302669 456.949862 
L 524.043638 455.187974 
L 524.777778 455.577482 
L 525.505212 458.057031 
L 526.226064 456.380623 
L 526.940451 455.393959 
L 527.648487 455.589699 
L 528.350285 458.023814 
L 529.7356 454.229618 
L 530.419326 456.650134 
L 531.097232 460.420492 
L 531.769418 454.630325 
L 532.435979 462.531625 
L 533.097009 461.884808 
L 533.752597 460.233789 
L 534.402834 461.401418 
L 535.047806 459.293356 
L 535.687597 460.547781 
L 536.32229 458.303614 
L 536.951966 457.571562 
L 537.576703 462.762421 
L 538.196578 454.462262 
L 538.811667 457.745371 
L 539.422042 458.039942 
L 540.027776 463.450658 
L 540.628938 458.767455 
L 541.225596 458.45353 
L 541.817819 459.431565 
L 542.405671 464.349573 
L 542.989216 462.24802 
L 543.568517 461.708242 
L 544.143636 462.681171 
L 544.714632 459.980194 
L 545.281563 462.435409 
L 545.844488 459.603777 
L 546.958543 469.911254 
L 547.509781 463.606584 
L 548.05723 460.418099 
L 548.600942 460.294784 
L 549.140969 461.513871 
L 549.677358 464.803121 
L 550.21016 464.844623 
L 550.739422 464.693218 
L 551.26519 459.98873 
L 551.78751 461.992219 
L 552.306428 461.257693 
L 552.821987 464.882775 
L 553.8432 462.602493 
L 554.348939 464.704321 
L 554.851487 464.144445 
L 555.350884 464.717479 
L 555.847169 470.240933 
L 556.340382 465.867809 
L 556.830559 472.243213 
L 557.317739 462.420621 
L 557.801956 464.373287 
L 558.283248 465.066978 
L 558.76165 466.125708 
L 559.237195 465.915129 
L 559.709918 461.347933 
L 560.179852 459.214966 
L 560.647029 467.764039 
L 561.573244 469.235015 
L 562.032344 467.991231 
L 562.488812 465.137164 
L 562.94268 464.289165 
L 563.393976 465.739061 
L 563.84273 468.371794 
L 564.28897 461.62121 
L 564.732723 467.774967 
L 565.174019 465.362793 
L 565.612882 466.055889 
L 566.049341 464.593183 
L 566.483422 466.046157 
L 567.34455 470.670316 
L 567.771648 467.37393 
L 568.196468 467.47023 
L 568.619034 466.105171 
L 569.457501 468.525191 
L 569.873447 463.951195 
L 570.69888 470.632695 
L 571.108411 464.619381 
L 571.515847 467.441419 
L 571.921209 468.144997 
L 572.32452 471.933072 
L 572.725798 470.887448 
L 573.125065 470.427231 
L 573.52234 468.342125 
L 573.917644 473.225091 
L 574.310996 463.271053 
L 574.702415 474.525181 
L 575.091919 466.230821 
L 575.479529 466.912417 
L 575.865261 462.351875 
L 576.249135 478.414112 
L 576.631167 473.443446 
L 577.011376 475.211162 
L 577.389778 465.777737 
L 577.766391 477.374909 
L 578.141232 466.480376 
L 578.514318 473.209132 
L 578.885664 471.975963 
L 579.255287 467.252283 
L 579.623202 466.610233 
L 579.989426 467.755607 
L 580.353974 467.586347 
L 580.716861 469.737607 
L 581.078102 466.969634 
L 581.437713 465.756641 
L 581.795707 465.29085 
L 582.152099 485.102443 
L 582.506904 465.428358 
L 582.860136 465.024519 
L 583.211808 474.77818 
L 583.561934 472.136341 
L 583.910528 467.278025 
L 584.257603 465.821404 
L 584.603172 466.640001 
L 584.947248 473.910371 
L 585.289845 471.811958 
L 585.630974 468.00576 
L 585.970649 474.988023 
L 586.645683 466.018185 
L 586.981067 477.614724 
L 587.315045 468.318568 
L 587.647628 475.53256 
L 587.978828 469.914049 
L 588.308657 471.711777 
L 588.637126 471.406064 
L 588.964246 480.800477 
L 589.290028 466.268438 
L 589.614483 470.671004 
L 589.937621 476.89108 
L 590.259454 471.304925 
L 590.579992 476.353145 
L 590.899246 471.725325 
L 591.217224 488.715364 
L 591.533939 469.497649 
L 591.849399 471.214211 
L 592.163614 474.825211 
L 592.476596 474.226765 
L 592.788352 468.830389 
L 593.098892 470.124294 
L 593.408227 476.178961 
L 593.716365 470.134855 
L 594.329088 474.843424 
L 594.633691 470.913711 
L 594.937133 468.685448 
L 595.239424 474.426408 
L 596.139474 467.101552 
L 596.437245 477.439654 
L 596.733906 476.551548 
L 597.029467 482.86502 
L 597.323936 473.388389 
L 597.617319 471.749203 
L 597.909626 474.107219 
L 598.200864 473.319765 
L 598.491042 478.087673 
L 598.780166 469.395001 
L 599.068244 472.783502 
L 599.355284 473.986821 
L 599.641294 478.752058 
L 599.92628 471.735153 
L 600.21025 472.816759 
L 600.493212 479.888237 
L 600.775172 474.550062 
L 601.056137 479.083416 
L 601.336115 476.265116 
L 601.615112 476.469056 
L 601.893135 472.544167 
L 602.170191 472.46158 
L 602.446287 480.405072 
L 602.721429 471.581369 
L 602.995624 476.590972 
L 603.268878 476.85909 
L 603.541199 476.287692 
L 603.812591 475.098781 
L 604.083062 476.883357 
L 604.352617 475.379567 
L 604.621264 478.973445 
L 604.889007 471.850488 
L 605.155853 479.707452 
L 605.421809 479.592931 
L 605.686879 477.048267 
L 605.95107 482.837372 
L 606.214388 473.401625 
L 606.476838 474.737027 
L 606.738427 480.098317 
L 606.999159 475.170623 
L 607.25904 478.537426 
L 607.518076 472.085639 
L 607.776273 479.301272 
L 608.033635 482.014982 
L 608.290169 476.562213 
L 608.545879 481.645405 
L 608.80077 474.621389 
L 609.054849 473.257137 
L 609.308119 475.796577 
L 609.560587 475.903722 
L 609.812258 466.364262 
L 610.063135 478.795713 
L 610.313225 478.037779 
L 610.562532 479.838191 
L 610.811062 474.460361 
L 611.058818 484.752555 
L 611.305806 472.416886 
L 611.55203 486.410883 
L 611.797496 475.305295 
L 612.042208 478.720365 
L 612.28617 477.86933 
L 612.529387 483.968118 
L 612.771864 471.241942 
L 613.013605 472.739205 
L 613.254614 475.527162 
L 613.494897 479.938295 
L 613.734457 467.482374 
L 613.973298 477.349708 
L 614.685555 471.98306 
L 614.921566 477.746492 
L 615.15688 472.351166 
L 615.625431 481.011237 
L 615.858678 476.353806 
L 616.091243 474.972541 
L 616.323131 471.81692 
L 616.554347 479.733853 
L 616.784892 482.699531 
L 617.014773 474.882695 
L 617.700461 476.757122 
L 617.927718 477.079679 
L 618.154329 474.705145 
L 618.380296 475.971311 
L 618.605625 482.345746 
L 619.054379 474.588972 
L 619.277811 472.978509 
L 619.500618 477.123525 
L 619.722804 465.478398 
L 619.944372 476.981414 
L 620.165325 469.199234 
L 620.385667 478.877919 
L 620.605401 478.89068 
L 620.824531 488.648878 
L 621.043059 476.216875 
L 621.26099 479.927453 
L 621.911227 473.025917 
L 622.126798 483.137589 
L 622.341787 472.85857 
L 622.556198 475.147018 
L 622.770034 483.123206 
L 622.983296 476.452508 
L 623.195989 473.713779 
L 623.408116 486.156293 
L 623.61968 472.738917 
L 623.830683 484.143594 
L 624.041128 488.349293 
L 624.251019 472.574758 
L 624.460358 472.773043 
L 624.669149 472.721275 
L 624.877394 470.614199 
L 625.085096 482.766066 
L 625.292257 474.697513 
L 625.498881 472.115409 
L 625.704971 476.353482 
L 626.115557 477.457321 
L 626.320059 476.218045 
L 626.524038 472.391038 
L 626.727495 480.735037 
L 626.930435 473.02311 
L 627.334768 484.028916 
L 627.937446 475.223457 
L 628.336713 480.182866 
L 628.535599 480.414385 
L 628.733989 496.380658 
L 628.931886 480.443906 
L 629.129293 483.891892 
L 629.326211 472.629765 
L 629.522644 478.914712 
L 629.718594 472.459664 
L 629.914063 505.648915 
L 630.303568 475.707381 
L 630.497608 486.457046 
L 630.884277 474.785031 
L 631.07691 472.89997 
L 631.269078 475.201717 
L 631.460783 475.323394 
L 631.652028 473.798179 
L 631.842815 481.694846 
L 632.033146 474.506041 
L 632.223024 482.957019 
L 632.41245 479.100633 
L 632.601426 482.953287 
L 632.789956 481.384285 
L 632.97804 481.964571 
L 633.165681 480.537654 
L 633.352881 489.463888 
L 633.539642 478.262712 
L 633.725966 481.56793 
L 633.911856 479.364517 
L 634.097312 491.399044 
L 634.466935 481.061978 
L 634.651105 469.554082 
L 634.83485 484.426168 
L 635.018173 475.307837 
L 635.201074 479.684312 
L 635.383557 495.820884 
L 635.565622 475.361827 
L 635.747272 482.921596 
L 635.928509 474.791653 
L 636.109335 485.313016 
L 636.289751 483.730746 
L 636.469759 475.361583 
L 636.649361 474.475662 
L 637.007355 495.457453 
L 637.185751 481.38588 
L 637.363748 495.100108 
L 637.718553 484.096894 
L 637.895364 497.062905 
L 638.071784 469.862354 
L 638.247814 477.0858 
L 638.598712 478.272452 
L 638.773582 473.811949 
L 638.94807 477.42241 
L 639.122176 476.975771 
L 639.295903 478.426077 
L 639.469251 471.877591 
L 639.642223 478.737936 
L 639.81482 479.193538 
L 640.158897 467.196395 
L 640.330379 474.062862 
L 640.501493 470.251872 
L 640.842622 481.680355 
L 641.012641 472.592723 
L 641.351593 486.731456 
L 641.520529 471.133777 
L 641.689108 471.866266 
L 641.857331 495.019796 
L 642.0252 488.391126 
L 642.192715 496.226962 
L 642.359879 477.165816 
L 642.526693 478.875581 
L 642.693158 473.27905 
L 642.859276 482.895833 
L 643.025049 474.482761 
L 643.190477 479.082817 
L 643.355562 491.213154 
L 643.520306 477.507379 
L 643.684709 479.007122 
L 643.848774 493.516462 
L 644.012502 477.198026 
L 644.175894 494.489837 
L 644.338952 479.212887 
L 644.501676 485.997407 
L 644.664069 473.996961 
L 644.987864 487.813484 
L 645.14927 486.144696 
L 645.471103 474.981551 
L 645.631533 477.432426 
L 645.791641 484.937831 
L 645.951427 469.880078 
L 646.110894 479.836796 
L 646.270042 482.511078 
L 646.428873 482.641985 
L 646.587387 478.915402 
L 646.745587 484.833149 
L 646.903473 480.619736 
L 647.061047 480.993205 
L 647.21831 479.186752 
L 647.375263 480.696372 
L 647.531907 480.333551 
L 647.688244 482.500015 
L 647.844274 482.62805 
L 647.844274 482.62805 
" style="fill:none;stroke:#b22222;stroke-linecap:round;stroke-width:1.75;"/>
   </g>
   <g id="patch_6">
    <path d="M 90 512.64 
L 90 311.04 
" style="fill:none;stroke:#262626;stroke-linecap:square;stroke-linejoin:miter;stroke-width:1.25;"/>
   </g>
   <g id="patch_7">
    <path d="M 90 512.64 
L 648 512.64 
" style="fill:none;stroke:#262626;stroke-linecap:square;stroke-linejoin:miter;stroke-width:1.25;"/>
   </g>
  </g>
 </g>
 <defs>
  <clipPath id="p0294ba71b6">
   <rect height="201.6" width="558" x="90" y="69.12"/>
  </clipPath>
  <clipPath id="pead9a38191">
   <rect height="201.6" width="558" x="90" y="311.04"/>
  </clipPath>
 </defs>
</svg>
