<?xml version="1.0" encoding="utf-8" standalone="no"?>
<!DOCTYPE svg PUBLIC "-//W3C//DTD SVG 1.1//EN"
  "http://www.w3.org/Graphics/SVG/1.1/DTD/svg11.dtd">
<!-- Created with matplotlib (http://matplotlib.org/) -->
<svg height="576pt" version="1.1" viewBox="0 0 720 576" width="720pt" xmlns="http://www.w3.org/2000/svg" xmlns:xlink="http://www.w3.org/1999/xlink">
 <defs>
  <style type="text/css">
*{stroke-linecap:butt;stroke-linejoin:round;}
  </style>
 </defs>
 <g id="figure_1">
  <g id="patch_1">
   <path d="M 0 576 
L 720 576 
L 720 0 
L 0 0 
z
" style="fill:#ffffff;"/>
  </g>
  <g id="axes_1">
   <g id="patch_2">
    <path d="M 90 270.72 
L 648 270.72 
L 648 69.12 
L 90 69.12 
z
" style="fill:#ffffff;"/>
   </g>
   <g id="matplotlib.axis_1">
    <g id="xtick_1">
     <g id="line2d_1">
      <defs>
       <path d="M 0 0 
L 0 6 
" id="m1f00e9c243" style="stroke:#262626;"/>
      </defs>
      <g>
       <use style="fill:#262626;stroke:#262626;" x="90" xlink:href="#m1f00e9c243" y="270.72"/>
      </g>
     </g>
     <g id="text_1">
      <!-- 0 -->
      <defs>
       <path d="M 4.15625 35.296875 
Q 4.15625 48 6.765625 55.734375 
Q 9.375 63.484375 14.515625 67.671875 
Q 19.671875 71.875 27.484375 71.875 
Q 33.25 71.875 37.59375 69.546875 
Q 41.9375 67.234375 44.765625 62.859375 
Q 47.609375 58.5 49.21875 52.21875 
Q 50.828125 45.953125 50.828125 35.296875 
Q 50.828125 22.703125 48.234375 14.96875 
Q 45.65625 7.234375 40.5 3 
Q 35.359375 -1.21875 27.484375 -1.21875 
Q 17.140625 -1.21875 11.234375 6.203125 
Q 4.15625 15.140625 4.15625 35.296875 
z
M 13.1875 35.296875 
Q 13.1875 17.671875 17.3125 11.828125 
Q 21.4375 6 27.484375 6 
Q 33.546875 6 37.671875 11.859375 
Q 41.796875 17.71875 41.796875 35.296875 
Q 41.796875 52.984375 37.671875 58.78125 
Q 33.546875 64.59375 27.390625 64.59375 
Q 21.34375 64.59375 17.71875 59.46875 
Q 13.1875 52.9375 13.1875 35.296875 
z
" id="ArialMT-30"/>
      </defs>
      <g style="fill:#262626;" transform="translate(87.219531 290.877812)scale(0.1 -0.1)">
       <use xlink:href="#ArialMT-30"/>
      </g>
     </g>
    </g>
    <g id="xtick_2">
     <g id="line2d_2">
      <g>
       <use style="fill:#262626;stroke:#262626;" x="198.984375" xlink:href="#m1f00e9c243" y="270.72"/>
      </g>
     </g>
     <g id="text_2">
      <!-- 200 -->
      <defs>
       <path d="M 50.34375 8.453125 
L 50.34375 0 
L 3.03125 0 
Q 2.9375 3.171875 4.046875 6.109375 
Q 5.859375 10.9375 9.828125 15.625 
Q 13.8125 20.3125 21.34375 26.46875 
Q 33.015625 36.03125 37.109375 41.625 
Q 41.21875 47.21875 41.21875 52.203125 
Q 41.21875 57.421875 37.46875 61 
Q 33.734375 64.59375 27.734375 64.59375 
Q 21.390625 64.59375 17.578125 60.78125 
Q 13.765625 56.984375 13.71875 50.25 
L 4.6875 51.171875 
Q 5.609375 61.28125 11.65625 66.578125 
Q 17.71875 71.875 27.9375 71.875 
Q 38.234375 71.875 44.234375 66.15625 
Q 50.25 60.453125 50.25 52 
Q 50.25 47.703125 48.484375 43.546875 
Q 46.734375 39.40625 42.65625 34.8125 
Q 38.578125 30.21875 29.109375 22.21875 
Q 21.1875 15.578125 18.9375 13.203125 
Q 16.703125 10.84375 15.234375 8.453125 
z
" id="ArialMT-32"/>
      </defs>
      <g style="fill:#262626;" transform="translate(190.642969 290.877812)scale(0.1 -0.1)">
       <use xlink:href="#ArialMT-32"/>
       <use x="55.615234" xlink:href="#ArialMT-30"/>
       <use x="111.230469" xlink:href="#ArialMT-30"/>
      </g>
     </g>
    </g>
    <g id="xtick_3">
     <g id="line2d_3">
      <g>
       <use style="fill:#262626;stroke:#262626;" x="307.96875" xlink:href="#m1f00e9c243" y="270.72"/>
      </g>
     </g>
     <g id="text_3">
      <!-- 400 -->
      <defs>
       <path d="M 32.328125 0 
L 32.328125 17.140625 
L 1.265625 17.140625 
L 1.265625 25.203125 
L 33.9375 71.578125 
L 41.109375 71.578125 
L 41.109375 25.203125 
L 50.78125 25.203125 
L 50.78125 17.140625 
L 41.109375 17.140625 
L 41.109375 0 
z
M 32.328125 25.203125 
L 32.328125 57.46875 
L 9.90625 25.203125 
z
" id="ArialMT-34"/>
      </defs>
      <g style="fill:#262626;" transform="translate(299.627344 290.877812)scale(0.1 -0.1)">
       <use xlink:href="#ArialMT-34"/>
       <use x="55.615234" xlink:href="#ArialMT-30"/>
       <use x="111.230469" xlink:href="#ArialMT-30"/>
      </g>
     </g>
    </g>
    <g id="xtick_4">
     <g id="line2d_4">
      <g>
       <use style="fill:#262626;stroke:#262626;" x="416.953125" xlink:href="#m1f00e9c243" y="270.72"/>
      </g>
     </g>
     <g id="text_4">
      <!-- 600 -->
      <defs>
       <path d="M 49.75 54.046875 
L 41.015625 53.375 
Q 39.84375 58.546875 37.703125 60.890625 
Q 34.125 64.65625 28.90625 64.65625 
Q 24.703125 64.65625 21.53125 62.3125 
Q 17.390625 59.28125 14.984375 53.46875 
Q 12.59375 47.65625 12.5 36.921875 
Q 15.671875 41.75 20.265625 44.09375 
Q 24.859375 46.4375 29.890625 46.4375 
Q 38.671875 46.4375 44.84375 39.96875 
Q 51.03125 33.5 51.03125 23.25 
Q 51.03125 16.5 48.125 10.71875 
Q 45.21875 4.9375 40.140625 1.859375 
Q 35.0625 -1.21875 28.609375 -1.21875 
Q 17.625 -1.21875 10.6875 6.859375 
Q 3.765625 14.9375 3.765625 33.5 
Q 3.765625 54.25 11.421875 63.671875 
Q 18.109375 71.875 29.4375 71.875 
Q 37.890625 71.875 43.28125 67.140625 
Q 48.6875 62.40625 49.75 54.046875 
z
M 13.875 23.1875 
Q 13.875 18.65625 15.796875 14.5 
Q 17.71875 10.359375 21.1875 8.171875 
Q 24.65625 6 28.46875 6 
Q 34.03125 6 38.03125 10.484375 
Q 42.046875 14.984375 42.046875 22.703125 
Q 42.046875 30.125 38.078125 34.390625 
Q 34.125 38.671875 28.125 38.671875 
Q 22.171875 38.671875 18.015625 34.390625 
Q 13.875 30.125 13.875 23.1875 
z
" id="ArialMT-36"/>
      </defs>
      <g style="fill:#262626;" transform="translate(408.611719 290.877812)scale(0.1 -0.1)">
       <use xlink:href="#ArialMT-36"/>
       <use x="55.615234" xlink:href="#ArialMT-30"/>
       <use x="111.230469" xlink:href="#ArialMT-30"/>
      </g>
     </g>
    </g>
    <g id="xtick_5">
     <g id="line2d_5">
      <g>
       <use style="fill:#262626;stroke:#262626;" x="525.9375" xlink:href="#m1f00e9c243" y="270.72"/>
      </g>
     </g>
     <g id="text_5">
      <!-- 800 -->
      <defs>
       <path d="M 17.671875 38.8125 
Q 12.203125 40.828125 9.5625 44.53125 
Q 6.9375 48.25 6.9375 53.421875 
Q 6.9375 61.234375 12.546875 66.546875 
Q 18.171875 71.875 27.484375 71.875 
Q 36.859375 71.875 42.578125 66.421875 
Q 48.296875 60.984375 48.296875 53.171875 
Q 48.296875 48.1875 45.671875 44.5 
Q 43.0625 40.828125 37.75 38.8125 
Q 44.34375 36.671875 47.78125 31.875 
Q 51.21875 27.09375 51.21875 20.453125 
Q 51.21875 11.28125 44.71875 5.03125 
Q 38.234375 -1.21875 27.640625 -1.21875 
Q 17.046875 -1.21875 10.546875 5.046875 
Q 4.046875 11.328125 4.046875 20.703125 
Q 4.046875 27.6875 7.59375 32.390625 
Q 11.140625 37.109375 17.671875 38.8125 
z
M 15.921875 53.71875 
Q 15.921875 48.640625 19.1875 45.40625 
Q 22.46875 42.1875 27.6875 42.1875 
Q 32.765625 42.1875 36.015625 45.375 
Q 39.265625 48.578125 39.265625 53.21875 
Q 39.265625 58.0625 35.90625 61.359375 
Q 32.5625 64.65625 27.59375 64.65625 
Q 22.5625 64.65625 19.234375 61.421875 
Q 15.921875 58.203125 15.921875 53.71875 
z
M 13.09375 20.65625 
Q 13.09375 16.890625 14.875 13.375 
Q 16.65625 9.859375 20.171875 7.921875 
Q 23.6875 6 27.734375 6 
Q 34.03125 6 38.125 10.046875 
Q 42.234375 14.109375 42.234375 20.359375 
Q 42.234375 26.703125 38.015625 30.859375 
Q 33.796875 35.015625 27.4375 35.015625 
Q 21.234375 35.015625 17.15625 30.90625 
Q 13.09375 26.8125 13.09375 20.65625 
z
" id="ArialMT-38"/>
      </defs>
      <g style="fill:#262626;" transform="translate(517.596094 290.877812)scale(0.1 -0.1)">
       <use xlink:href="#ArialMT-38"/>
       <use x="55.615234" xlink:href="#ArialMT-30"/>
       <use x="111.230469" xlink:href="#ArialMT-30"/>
      </g>
     </g>
    </g>
    <g id="xtick_6">
     <g id="line2d_6">
      <g>
       <use style="fill:#262626;stroke:#262626;" x="634.921875" xlink:href="#m1f00e9c243" y="270.72"/>
      </g>
     </g>
     <g id="text_6">
      <!-- 1000 -->
      <defs>
       <path d="M 37.25 0 
L 28.46875 0 
L 28.46875 56 
Q 25.296875 52.984375 20.140625 49.953125 
Q 14.984375 46.921875 10.890625 45.40625 
L 10.890625 53.90625 
Q 18.265625 57.375 23.78125 62.296875 
Q 29.296875 67.234375 31.59375 71.875 
L 37.25 71.875 
z
" id="ArialMT-31"/>
      </defs>
      <g style="fill:#262626;" transform="translate(623.8 290.877812)scale(0.1 -0.1)">
       <use xlink:href="#ArialMT-31"/>
       <use x="55.615234" xlink:href="#ArialMT-30"/>
       <use x="111.230469" xlink:href="#ArialMT-30"/>
       <use x="166.845703" xlink:href="#ArialMT-30"/>
      </g>
     </g>
    </g>
   </g>
   <g id="matplotlib.axis_2">
    <g id="ytick_1">
     <g id="line2d_7">
      <defs>
       <path d="M 0 0 
L -6 0 
" id="m29c6004aac" style="stroke:#262626;"/>
      </defs>
      <g>
       <use style="fill:#262626;stroke:#262626;" x="90" xlink:href="#m29c6004aac" y="270.72"/>
      </g>
     </g>
     <g id="text_7">
      <!-- −0.6 -->
      <defs>
       <path d="M 52.828125 31.203125 
L 5.5625 31.203125 
L 5.5625 39.40625 
L 52.828125 39.40625 
z
" id="ArialMT-2212"/>
       <path d="M 9.078125 0 
L 9.078125 10.015625 
L 19.09375 10.015625 
L 19.09375 0 
z
" id="ArialMT-2e"/>
      </defs>
      <g style="fill:#262626;" transform="translate(57.259375 274.298906)scale(0.1 -0.1)">
       <use xlink:href="#ArialMT-2212"/>
       <use x="58.398438" xlink:href="#ArialMT-30"/>
       <use x="114.013672" xlink:href="#ArialMT-2e"/>
       <use x="141.796875" xlink:href="#ArialMT-36"/>
      </g>
     </g>
    </g>
    <g id="ytick_2">
     <g id="line2d_8">
      <g>
       <use style="fill:#262626;stroke:#262626;" x="90" xlink:href="#m29c6004aac" y="237.12"/>
      </g>
     </g>
     <g id="text_8">
      <!-- −0.4 -->
      <g style="fill:#262626;" transform="translate(57.259375 240.698906)scale(0.1 -0.1)">
       <use xlink:href="#ArialMT-2212"/>
       <use x="58.398438" xlink:href="#ArialMT-30"/>
       <use x="114.013672" xlink:href="#ArialMT-2e"/>
       <use x="141.796875" xlink:href="#ArialMT-34"/>
      </g>
     </g>
    </g>
    <g id="ytick_3">
     <g id="line2d_9">
      <g>
       <use style="fill:#262626;stroke:#262626;" x="90" xlink:href="#m29c6004aac" y="203.52"/>
      </g>
     </g>
     <g id="text_9">
      <!-- −0.2 -->
      <g style="fill:#262626;" transform="translate(57.259375 207.098906)scale(0.1 -0.1)">
       <use xlink:href="#ArialMT-2212"/>
       <use x="58.398438" xlink:href="#ArialMT-30"/>
       <use x="114.013672" xlink:href="#ArialMT-2e"/>
       <use x="141.796875" xlink:href="#ArialMT-32"/>
      </g>
     </g>
    </g>
    <g id="ytick_4">
     <g id="line2d_10">
      <g>
       <use style="fill:#262626;stroke:#262626;" x="90" xlink:href="#m29c6004aac" y="169.92"/>
      </g>
     </g>
     <g id="text_10">
      <!-- 0.0 -->
      <g style="fill:#262626;" transform="translate(63.1 173.498906)scale(0.1 -0.1)">
       <use xlink:href="#ArialMT-30"/>
       <use x="55.615234" xlink:href="#ArialMT-2e"/>
       <use x="83.398438" xlink:href="#ArialMT-30"/>
      </g>
     </g>
    </g>
    <g id="ytick_5">
     <g id="line2d_11">
      <g>
       <use style="fill:#262626;stroke:#262626;" x="90" xlink:href="#m29c6004aac" y="136.32"/>
      </g>
     </g>
     <g id="text_11">
      <!-- 0.2 -->
      <g style="fill:#262626;" transform="translate(63.1 139.898906)scale(0.1 -0.1)">
       <use xlink:href="#ArialMT-30"/>
       <use x="55.615234" xlink:href="#ArialMT-2e"/>
       <use x="83.398438" xlink:href="#ArialMT-32"/>
      </g>
     </g>
    </g>
    <g id="ytick_6">
     <g id="line2d_12">
      <g>
       <use style="fill:#262626;stroke:#262626;" x="90" xlink:href="#m29c6004aac" y="102.72"/>
      </g>
     </g>
     <g id="text_12">
      <!-- 0.4 -->
      <g style="fill:#262626;" transform="translate(63.1 106.298906)scale(0.1 -0.1)">
       <use xlink:href="#ArialMT-30"/>
       <use x="55.615234" xlink:href="#ArialMT-2e"/>
       <use x="83.398438" xlink:href="#ArialMT-34"/>
      </g>
     </g>
    </g>
    <g id="ytick_7">
     <g id="line2d_13">
      <g>
       <use style="fill:#262626;stroke:#262626;" x="90" xlink:href="#m29c6004aac" y="69.12"/>
      </g>
     </g>
     <g id="text_13">
      <!-- 0.6 -->
      <g style="fill:#262626;" transform="translate(63.1 72.698906)scale(0.1 -0.1)">
       <use xlink:href="#ArialMT-30"/>
       <use x="55.615234" xlink:href="#ArialMT-2e"/>
       <use x="83.398438" xlink:href="#ArialMT-36"/>
      </g>
     </g>
    </g>
   </g>
   <g id="line2d_14">
    <path clip-path="url(#p1a23b666df)" d="M 90 166.161943 
L 90.544922 166.295244 
L 92.724609 168.54085 
L 93.269531 169.017656 
L 93.814453 169.714922 
L 95.449219 171.027422 
L 95.994141 171.329912 
L 96.539062 171.8221 
L 97.083984 172.037432 
L 97.628906 172.016924 
L 98.173828 172.129717 
L 99.808594 171.540117 
L 100.353516 171.150469 
L 100.898438 170.607012 
L 101.443359 170.278887 
L 102.533203 168.920244 
L 103.078125 168.920244 
L 103.623047 168.474199 
L 104.167969 168.381914 
L 104.712891 168.463945 
L 105.802734 168.879229 
L 106.347656 169.417559 
L 106.892578 170.314775 
L 107.4375 170.986406 
L 109.072266 174.098467 
L 109.617188 175.298174 
L 110.162109 176.06209 
L 111.251953 178.241045 
L 112.886719 180.671221 
L 113.431641 181.265947 
L 114.521484 181.845293 
L 115.066406 181.706865 
L 116.15625 180.983965 
L 117.791016 178.810137 
L 118.335938 177.907793 
L 122.695312 168.735674 
L 123.240234 167.992266 
L 123.785156 166.920732 
L 125.419922 164.593096 
L 128.144531 162.34749 
L 128.689453 162.450029 
L 129.779297 162.526934 
L 130.324219 162.696123 
L 132.503906 165.249346 
L 133.048828 166.04915 
L 134.138672 168.06917 
L 134.683594 168.925371 
L 135.773438 170.022539 
L 136.318359 170.263506 
L 136.863281 171.119707 
L 137.953125 171.452959 
L 138.498047 171.222246 
L 139.042969 171.340166 
L 140.132812 171.160723 
L 140.677734 170.837725 
L 141.222656 170.678789 
L 141.767578 170.253252 
L 142.857422 169.98665 
L 143.402344 170.10457 
L 144.492188 170.094316 
L 145.582031 170.873613 
L 146.126953 171.760576 
L 146.671875 172.150225 
L 148.306641 174.764971 
L 148.851562 175.980059 
L 151.03125 179.215166 
L 152.121094 180.737871 
L 153.755859 181.96834 
L 154.300781 181.983721 
L 154.845703 182.199053 
L 155.390625 182.117021 
L 156.480469 181.727373 
L 157.025391 181.363359 
L 158.115234 180.240557 
L 158.660156 180.035479 
L 160.294922 178.599932 
L 160.839844 178.066729 
L 161.384766 177.764238 
L 161.929688 177.169512 
L 162.474609 176.918291 
L 163.019531 176.872148 
L 164.109375 176.328691 
L 164.654297 176.200518 
L 165.199219 175.744219 
L 165.744141 175.528887 
L 167.378906 174.529131 
L 167.923828 174.236895 
L 168.46875 173.724199 
L 169.558594 171.981035 
L 170.648438 170.453203 
L 171.738281 168.761309 
L 172.283203 167.894854 
L 172.828125 167.325762 
L 173.373047 166.341387 
L 174.462891 164.982744 
L 175.007812 164.070146 
L 175.552734 163.726641 
L 176.642578 162.168047 
L 177.732422 161.20418 
L 178.822266 160.337725 
L 179.367188 160.491533 
L 179.912109 160.096758 
L 180.457031 160.132646 
L 181.001953 160.332598 
L 182.091797 161.117021 
L 182.636719 161.163164 
L 183.181641 161.901445 
L 184.816406 163.29085 
L 185.361328 164.121416 
L 186.451172 164.859697 
L 186.996094 165.659502 
L 187.541016 165.736406 
L 188.630859 166.679766 
L 189.175781 166.746416 
L 189.720703 167.089922 
L 190.265625 166.946367 
L 191.900391 166.018389 
L 192.445312 165.782549 
L 192.990234 165.136553 
L 194.080078 164.454668 
L 194.625 163.926592 
L 195.169922 163.690752 
L 195.714844 163.603594 
L 196.259766 163.65999 
L 196.804688 163.870195 
L 197.349609 163.880449 
L 198.984375 165.844072 
L 200.074219 167.53084 
L 201.164062 169.473955 
L 201.708984 170.69417 
L 202.253906 171.411943 
L 202.798828 172.944902 
L 205.523438 176.851641 
L 206.068359 177.225908 
L 206.613281 177.328447 
L 207.703125 177.046465 
L 208.248047 176.651689 
L 209.882812 174.590654 
L 214.787109 164.982744 
L 215.876953 163.321611 
L 216.421875 162.183428 
L 216.966797 161.598955 
L 217.511719 160.640215 
L 218.056641 159.932695 
L 218.601562 159.025225 
L 219.691406 157.979326 
L 220.78125 157.702471 
L 221.326172 157.779375 
L 221.871094 158.1075 
L 222.416016 158.17415 
L 226.230469 163.013994 
L 226.775391 163.998369 
L 227.320312 164.372637 
L 228.410156 165.536455 
L 229.5 166.131182 
L 231.134766 166.259355 
L 232.224609 165.382646 
L 233.314453 164.593096 
L 233.859375 164.516191 
L 234.949219 163.65999 
L 235.494141 163.690752 
L 236.039062 163.588213 
L 237.673828 164.680254 
L 239.853516 167.402666 
L 240.398438 168.55623 
L 240.943359 169.340654 
L 242.033203 171.319658 
L 242.578125 171.914385 
L 244.212891 174.262529 
L 244.757812 174.682939 
L 245.302734 175.267412 
L 245.847656 175.585283 
L 246.392578 175.687822 
L 246.9375 175.969805 
L 248.027344 175.87752 
L 248.572266 175.487871 
L 249.117188 175.267412 
L 249.662109 174.862383 
L 250.751953 173.606279 
L 251.296875 173.308916 
L 252.931641 171.663164 
L 253.476562 171.401689 
L 254.566406 170.591631 
L 255.111328 170.540361 
L 256.201172 170.166094 
L 257.291016 169.663652 
L 257.835938 169.304766 
L 258.380859 169.099687 
L 260.015625 167.520586 
L 261.105469 166.177324 
L 263.285156 163.567705 
L 264.375 162.260332 
L 265.464844 160.619707 
L 266.009766 159.768633 
L 266.554688 159.168779 
L 267.644531 157.107744 
L 268.734375 155.723467 
L 269.279297 155.056963 
L 269.824219 154.780107 
L 270.369141 154.252031 
L 270.914062 153.882891 
L 271.458984 153.959795 
L 273.09375 153.800859 
L 275.273438 154.769854 
L 275.818359 155.323564 
L 276.363281 155.646562 
L 276.908203 156.456621 
L 277.998047 157.410234 
L 278.542969 157.897295 
L 279.087891 158.630449 
L 280.177734 159.230303 
L 280.722656 159.691729 
L 281.267578 159.48665 
L 281.8125 159.440508 
L 282.357422 159.230303 
L 286.716797 156.318193 
L 287.261719 156.08748 
L 288.896484 156.507891 
L 289.441406 157.046221 
L 289.986328 157.415361 
L 291.621094 159.625078 
L 293.800781 164.152178 
L 295.980469 168.351152 
L 297.070312 169.945635 
L 298.160156 170.45833 
L 298.705078 170.586504 
L 299.794922 170.330156 
L 300.339844 169.858477 
L 302.519531 166.63875 
L 303.609375 164.741777 
L 306.333984 159.701982 
L 307.423828 157.369219 
L 308.513672 155.410723 
L 309.058594 154.252031 
L 310.148438 152.79085 
L 310.693359 151.89876 
L 311.238281 151.878252 
L 311.783203 151.247637 
L 312.873047 151.057939 
L 313.417969 151.396318 
L 313.962891 151.473223 
L 316.142578 153.385576 
L 318.322266 156.687334 
L 319.957031 158.620195 
L 320.501953 158.804766 
L 321.046875 159.189287 
L 322.136719 159.276445 
L 323.226562 158.809893 
L 323.771484 158.845781 
L 324.316406 158.092119 
L 325.40625 157.323076 
L 325.951172 157.128252 
L 326.496094 157.123125 
L 327.041016 156.759111 
L 328.130859 156.964189 
L 330.310547 158.543291 
L 330.855469 159.394365 
L 331.400391 160.004473 
L 332.490234 161.916826 
L 333.035156 162.573076 
L 334.125 164.726396 
L 336.849609 168.381914 
L 337.394531 168.704912 
L 337.939453 169.274004 
L 338.484375 169.468828 
L 340.119141 169.509844 
L 340.664062 169.186846 
L 341.208984 168.617754 
L 341.753906 168.366533 
L 342.84375 167.248857 
L 343.388672 167.182207 
L 343.933594 166.551592 
L 344.478516 166.469561 
L 345.568359 165.721025 
L 346.658203 165.777422 
L 348.837891 164.582842 
L 349.382812 164.085527 
L 350.472656 163.485674 
L 351.5625 162.34749 
L 352.652344 161.511797 
L 353.742188 160.491533 
L 354.287109 160.02498 
L 357.011719 156.764238 
L 357.556641 155.764482 
L 360.28125 152.129473 
L 361.916016 150.791338 
L 362.460938 150.370928 
L 363.005859 150.140215 
L 363.550781 149.699297 
L 364.095703 149.668535 
L 364.640625 149.150713 
L 365.185547 149.478838 
L 366.275391 149.69417 
L 368.455078 151.488604 
L 369.544922 152.821611 
L 371.179688 154.359697 
L 371.724609 154.534014 
L 372.269531 155.021074 
L 372.814453 155.149248 
L 373.359375 154.969805 
L 374.449219 154.867266 
L 376.628906 153.242021 
L 377.173828 153.139482 
L 377.71875 152.344805 
L 378.263672 152.447344 
L 378.808594 152.206377 
L 379.353516 152.155107 
L 380.443359 152.31917 
L 380.988281 152.816484 
L 381.533203 153.088213 
L 382.623047 154.267412 
L 383.167969 155.067217 
L 384.257812 157.225664 
L 388.072266 165.449297 
L 388.617188 166.300371 
L 389.162109 166.848955 
L 390.251953 167.561602 
L 390.796875 167.705156 
L 391.341797 167.289873 
L 391.886719 167.269365 
L 392.431641 166.582354 
L 394.611328 164.526445 
L 395.15625 163.618975 
L 395.701172 163.060137 
L 396.246094 161.763018 
L 396.791016 161.096514 
L 397.880859 159.194414 
L 398.425781 157.75374 
L 398.970703 156.907793 
L 400.060547 154.718584 
L 400.605469 154.077715 
L 401.150391 152.919023 
L 402.785156 150.919512 
L 403.330078 150.381182 
L 403.875 150.29915 
L 404.964844 149.745439 
L 405.509766 150.253008 
L 406.599609 150.857988 
L 407.144531 151.570635 
L 407.689453 151.975664 
L 408.234375 152.765215 
L 409.324219 154.651934 
L 409.869141 155.477373 
L 410.414062 155.984941 
L 410.958984 156.86165 
L 411.503906 157.369219 
L 412.59375 157.912676 
L 413.683594 158.384355 
L 414.228516 158.317705 
L 416.953125 157.041094 
L 417.498047 156.74373 
L 418.587891 156.764238 
L 419.677734 156.753984 
L 420.222656 157.133379 
L 420.767578 157.159014 
L 421.3125 157.902422 
L 421.857422 158.338213 
L 422.402344 158.94832 
L 423.492188 160.727373 
L 424.582031 162.578203 
L 428.396484 169.658525 
L 430.03125 171.001787 
L 430.576172 171.258135 
L 431.121094 171.386309 
L 431.666016 171.376055 
L 432.210938 170.832598 
L 432.755859 170.842852 
L 433.845703 170.355791 
L 434.390625 170.186602 
L 434.935547 169.632891 
L 435.480469 169.73543 
L 436.025391 169.284258 
L 436.570312 169.222734 
L 437.115234 169.3304 
L 438.75 168.387041 
L 439.294922 168.602373 
L 440.929688 167.71541 
L 441.474609 167.710283 
L 442.564453 167.166826 
L 443.109375 166.946367 
L 443.654297 166.459307 
L 444.199219 166.233721 
L 445.289062 165.269854 
L 446.923828 163.552324 
L 448.558594 161.260576 
L 449.648438 159.907061 
L 450.738281 158.57918 
L 451.283203 158.092119 
L 451.828125 157.312822 
L 452.373047 156.810381 
L 453.462891 155.595293 
L 454.007812 155.359453 
L 454.552734 154.841631 
L 456.732422 154.046953 
L 458.367188 154.764727 
L 460.001953 156.082354 
L 460.546875 156.805254 
L 461.091797 157.733232 
L 462.181641 158.620195 
L 462.726562 159.255937 
L 463.271484 159.527666 
L 463.816406 160.112139 
L 464.361328 159.901934 
L 464.90625 160.081377 
L 465.451172 160.537676 
L 465.996094 159.830156 
L 466.541016 159.855791 
L 467.630859 159.455889 
L 469.265625 158.338213 
L 469.810547 158.363848 
L 470.355469 157.979326 
L 471.445312 157.902422 
L 471.990234 157.907549 
L 472.535156 158.220293 
L 473.625 159.250811 
L 474.169922 159.845537 
L 475.259766 161.527178 
L 477.439453 166.623369 
L 479.074219 170.735186 
L 481.253906 173.724199 
L 481.798828 174.221514 
L 482.888672 174.826494 
L 483.433594 174.708574 
L 483.978516 174.713701 
L 484.523438 174.529131 
L 485.068359 174.190752 
L 486.158203 173.14998 
L 486.703125 172.396318 
L 487.248047 171.842607 
L 488.337891 170.063555 
L 493.242188 161.757891 
L 493.787109 161.255449 
L 494.332031 160.460771 
L 494.876953 160.112139 
L 495.421875 159.502031 
L 495.966797 159.225176 
L 496.511719 159.138018 
L 497.601562 159.261064 
L 499.236328 160.963213 
L 501.960938 164.562334 
L 503.050781 166.008135 
L 503.595703 166.254229 
L 504.140625 166.807939 
L 505.230469 167.013018 
L 505.775391 167.315508 
L 506.320312 167.192461 
L 506.865234 166.838701 
L 507.410156 166.684893 
L 507.955078 166.408037 
L 509.044922 166.249102 
L 510.134766 165.854326 
L 510.679688 165.685137 
L 511.769531 165.710771 
L 512.314453 166.023516 
L 512.859375 166.136309 
L 513.949219 167.146318 
L 515.039062 168.402422 
L 516.128906 170.412187 
L 517.21875 172.668047 
L 517.763672 173.79085 
L 518.308594 175.22127 
L 520.488281 179.184404 
L 521.033203 179.466387 
L 522.123047 180.337969 
L 522.667969 180.348223 
L 523.757812 180.512285 
L 524.302734 180.573809 
L 524.847656 180.286699 
L 525.392578 180.414873 
L 525.9375 180.399492 
L 526.482422 180.076494 
L 528.662109 179.486895 
L 529.751953 178.943437 
L 530.296875 179.030596 
L 531.386719 178.594805 
L 532.476562 178.646074 
L 534.65625 178.343584 
L 535.746094 177.379717 
L 536.291016 176.872148 
L 536.835938 176.708086 
L 537.380859 175.851885 
L 537.925781 175.636553 
L 539.015625 174.226641 
L 540.105469 173.196123 
L 541.195312 171.893877 
L 542.285156 170.817217 
L 542.830078 169.822588 
L 543.375 169.238115 
L 543.919922 168.463945 
L 544.464844 167.920488 
L 545.009766 167.11043 
L 547.189453 164.813555 
L 547.734375 164.654619 
L 548.279297 164.275225 
L 548.824219 164.193193 
L 549.369141 164.352129 
L 549.914062 164.152178 
L 550.458984 164.808428 
L 551.003906 164.987871 
L 553.183594 167.300127 
L 553.728516 167.864092 
L 554.273438 167.925615 
L 554.818359 168.781816 
L 555.363281 169.012529 
L 556.453125 169.243242 
L 556.998047 169.07918 
L 557.542969 169.191973 
L 558.087891 169.048418 
L 558.632812 168.740801 
L 559.177734 168.586992 
L 559.722656 168.105059 
L 560.267578 167.792314 
L 560.8125 167.289873 
L 561.357422 167.238604 
L 562.992188 166.177324 
L 564.626953 166.326006 
L 566.261719 168.294756 
L 566.806641 169.156084 
L 568.986328 173.754961 
L 569.53125 175.016191 
L 570.621094 176.815752 
L 571.166016 178.010332 
L 571.710938 178.497393 
L 572.255859 179.358721 
L 572.800781 179.871416 
L 573.345703 180.578936 
L 574.435547 181.096758 
L 575.525391 181.404375 
L 576.070312 181.255693 
L 578.25 179.635576 
L 579.339844 178.374346 
L 580.974609 175.549395 
L 582.609375 172.263018 
L 583.699219 169.894365 
L 584.244141 168.684404 
L 584.789062 167.776934 
L 585.333984 166.592607 
L 586.96875 164.213701 
L 588.058594 163.326738 
L 588.603516 163.17293 
L 589.148438 163.142168 
L 589.693359 163.460039 
L 590.238281 163.926592 
L 590.783203 164.177812 
L 592.417969 166.40291 
L 592.962891 167.05916 
L 593.507812 167.915361 
L 594.052734 168.197344 
L 594.597656 168.915117 
L 595.142578 169.335527 
L 596.232422 169.776445 
L 596.777344 169.771318 
L 597.322266 169.98665 
L 597.867188 169.422686 
L 598.412109 169.612383 
L 598.957031 169.258623 
L 600.046875 168.822832 
L 601.136719 167.966631 
L 602.226562 167.325762 
L 603.861328 166.654131 
L 604.40625 166.895098 
L 604.951172 166.982256 
L 605.496094 167.279619 
L 606.041016 167.997393 
L 606.585938 168.469072 
L 607.675781 170.545488 
L 609.855469 174.903398 
L 610.400391 175.70833 
L 610.945312 176.882402 
L 612.580078 178.984453 
L 614.214844 180.645586 
L 614.759766 180.855791 
L 615.304688 180.871172 
L 615.849609 181.235186 
L 618.029297 180.727617 
L 618.574219 180.322588 
L 619.664062 179.953447 
L 620.208984 179.538164 
L 621.298828 179.230547 
L 621.84375 178.948564 
L 622.388672 179.030596 
L 623.478516 178.769121 
L 624.023438 178.825518 
L 624.568359 178.497393 
L 625.658203 178.225664 
L 626.203125 177.851396 
L 626.748047 177.661699 
L 628.382812 176.523516 
L 630.5625 174.467607 
L 631.107422 173.544756 
L 631.652344 172.84749 
L 632.197266 172.498857 
L 632.742188 171.514482 
L 633.832031 170.248125 
L 634.376953 169.622637 
L 634.921875 168.802324 
L 635.466797 168.269121 
L 636.556641 166.510576 
L 637.101562 165.967119 
L 637.646484 165.14168 
L 639.28125 163.59334 
L 640.371094 163.096025 
L 641.460938 163.131914 
L 642.005859 163.501055 
L 642.550781 163.701006 
L 644.185547 164.97249 
L 645.275391 165.515947 
L 645.820312 165.690264 
L 646.910156 166.264482 
L 647.455078 166.259355 
L 647.455078 166.259355 
" style="fill:none;stroke:#4c72b0;stroke-linecap:round;stroke-width:1.75;"/>
   </g>
   <g id="patch_3">
    <path d="M 90 270.72 
L 90 69.12 
" style="fill:none;stroke:#262626;stroke-linecap:square;stroke-linejoin:miter;stroke-width:1.25;"/>
   </g>
   <g id="patch_4">
    <path d="M 90 270.72 
L 648 270.72 
" style="fill:none;stroke:#262626;stroke-linecap:square;stroke-linejoin:miter;stroke-width:1.25;"/>
   </g>
  </g>
  <g id="axes_2">
   <g id="patch_5">
    <path d="M 90 512.64 
L 648 512.64 
L 648 311.04 
L 90 311.04 
z
" style="fill:#ffffff;"/>
   </g>
   <g id="matplotlib.axis_3">
    <g id="xtick_7">
     <g id="line2d_15">
      <g>
       <use style="fill:#262626;stroke:#262626;" x="218.197478" xlink:href="#m1f00e9c243" y="512.64"/>
      </g>
     </g>
     <g id="text_14">
      <!-- $\mathdefault{10^{2}}$ -->
      <g style="fill:#262626;" transform="translate(210.347478 535.9525)scale(0.1 -0.1)">
       <use transform="translate(0 0.99375)" xlink:href="#ArialMT-31"/>
       <use transform="translate(55.615234 0.99375)" xlink:href="#ArialMT-30"/>
       <use transform="translate(112.972813 70.6875)scale(0.7)" xlink:href="#ArialMT-32"/>
      </g>
     </g>
    </g>
    <g id="xtick_8">
     <g id="line2d_16">
      <g>
       <use style="fill:#262626;stroke:#262626;" x="401.606604" xlink:href="#m1f00e9c243" y="512.64"/>
      </g>
     </g>
     <g id="text_15">
      <!-- $\mathdefault{10^{3}}$ -->
      <defs>
       <path d="M 4.203125 18.890625 
L 12.984375 20.0625 
Q 14.5 12.59375 18.140625 9.296875 
Q 21.78125 6 27 6 
Q 33.203125 6 37.46875 10.296875 
Q 41.75 14.59375 41.75 20.953125 
Q 41.75 27 37.796875 30.921875 
Q 33.84375 34.859375 27.734375 34.859375 
Q 25.25 34.859375 21.53125 33.890625 
L 22.515625 41.609375 
Q 23.390625 41.5 23.921875 41.5 
Q 29.546875 41.5 34.03125 44.421875 
Q 38.53125 47.359375 38.53125 53.46875 
Q 38.53125 58.296875 35.25 61.46875 
Q 31.984375 64.65625 26.8125 64.65625 
Q 21.6875 64.65625 18.265625 61.421875 
Q 14.84375 58.203125 13.875 51.765625 
L 5.078125 53.328125 
Q 6.6875 62.15625 12.390625 67.015625 
Q 18.109375 71.875 26.609375 71.875 
Q 32.46875 71.875 37.390625 69.359375 
Q 42.328125 66.84375 44.9375 62.5 
Q 47.5625 58.15625 47.5625 53.265625 
Q 47.5625 48.640625 45.0625 44.828125 
Q 42.578125 41.015625 37.703125 38.765625 
Q 44.046875 37.3125 47.5625 32.6875 
Q 51.078125 28.078125 51.078125 21.140625 
Q 51.078125 11.765625 44.234375 5.25 
Q 37.40625 -1.265625 26.953125 -1.265625 
Q 17.53125 -1.265625 11.296875 4.34375 
Q 5.078125 9.96875 4.203125 18.890625 
z
" id="ArialMT-33"/>
      </defs>
      <g style="fill:#262626;" transform="translate(393.756604 535.9525)scale(0.1 -0.1)">
       <use transform="translate(0 0.99375)" xlink:href="#ArialMT-31"/>
       <use transform="translate(55.615234 0.99375)" xlink:href="#ArialMT-30"/>
       <use transform="translate(112.972813 70.6875)scale(0.7)" xlink:href="#ArialMT-33"/>
      </g>
     </g>
    </g>
    <g id="xtick_9">
     <g id="line2d_17">
      <g>
       <use style="fill:#262626;stroke:#262626;" x="585.01573" xlink:href="#m1f00e9c243" y="512.64"/>
      </g>
     </g>
     <g id="text_16">
      <!-- $\mathdefault{10^{4}}$ -->
      <g style="fill:#262626;" transform="translate(577.16573 535.8525)scale(0.1 -0.1)">
       <use transform="translate(0 0.201563)" xlink:href="#ArialMT-31"/>
       <use transform="translate(55.615234 0.201563)" xlink:href="#ArialMT-30"/>
       <use transform="translate(112.972813 69.895313)scale(0.7)" xlink:href="#ArialMT-34"/>
      </g>
     </g>
    </g>
    <g id="xtick_10">
     <g id="line2d_18">
      <defs>
       <path d="M 0 0 
L 0 3 
" id="m1e0628f291" style="stroke:#262626;stroke-width:0.5;"/>
      </defs>
      <g>
       <use style="fill:#262626;stroke:#262626;stroke-width:0.5;" x="90" xlink:href="#m1e0628f291" y="512.64"/>
      </g>
     </g>
    </g>
    <g id="xtick_11">
     <g id="line2d_19">
      <g>
       <use style="fill:#262626;stroke:#262626;stroke-width:0.5;" x="122.296744" xlink:href="#m1e0628f291" y="512.64"/>
      </g>
     </g>
    </g>
    <g id="xtick_12">
     <g id="line2d_20">
      <g>
       <use style="fill:#262626;stroke:#262626;stroke-width:0.5;" x="145.211648" xlink:href="#m1e0628f291" y="512.64"/>
      </g>
     </g>
    </g>
    <g id="xtick_13">
     <g id="line2d_21">
      <g>
       <use style="fill:#262626;stroke:#262626;stroke-width:0.5;" x="162.985829" xlink:href="#m1e0628f291" y="512.64"/>
      </g>
     </g>
    </g>
    <g id="xtick_14">
     <g id="line2d_22">
      <g>
       <use style="fill:#262626;stroke:#262626;stroke-width:0.5;" x="177.508392" xlink:href="#m1e0628f291" y="512.64"/>
      </g>
     </g>
    </g>
    <g id="xtick_15">
     <g id="line2d_23">
      <g>
       <use style="fill:#262626;stroke:#262626;stroke-width:0.5;" x="189.787045" xlink:href="#m1e0628f291" y="512.64"/>
      </g>
     </g>
    </g>
    <g id="xtick_16">
     <g id="line2d_24">
      <g>
       <use style="fill:#262626;stroke:#262626;stroke-width:0.5;" x="200.423297" xlink:href="#m1e0628f291" y="512.64"/>
      </g>
     </g>
    </g>
    <g id="xtick_17">
     <g id="line2d_25">
      <g>
       <use style="fill:#262626;stroke:#262626;stroke-width:0.5;" x="209.805136" xlink:href="#m1e0628f291" y="512.64"/>
      </g>
     </g>
    </g>
    <g id="xtick_18">
     <g id="line2d_26">
      <g>
       <use style="fill:#262626;stroke:#262626;stroke-width:0.5;" x="273.409126" xlink:href="#m1e0628f291" y="512.64"/>
      </g>
     </g>
    </g>
    <g id="xtick_19">
     <g id="line2d_27">
      <g>
       <use style="fill:#262626;stroke:#262626;stroke-width:0.5;" x="305.70587" xlink:href="#m1e0628f291" y="512.64"/>
      </g>
     </g>
    </g>
    <g id="xtick_20">
     <g id="line2d_28">
      <g>
       <use style="fill:#262626;stroke:#262626;stroke-width:0.5;" x="328.620775" xlink:href="#m1e0628f291" y="512.64"/>
      </g>
     </g>
    </g>
    <g id="xtick_21">
     <g id="line2d_29">
      <g>
       <use style="fill:#262626;stroke:#262626;stroke-width:0.5;" x="346.394955" xlink:href="#m1e0628f291" y="512.64"/>
      </g>
     </g>
    </g>
    <g id="xtick_22">
     <g id="line2d_30">
      <g>
       <use style="fill:#262626;stroke:#262626;stroke-width:0.5;" x="360.917518" xlink:href="#m1e0628f291" y="512.64"/>
      </g>
     </g>
    </g>
    <g id="xtick_23">
     <g id="line2d_31">
      <g>
       <use style="fill:#262626;stroke:#262626;stroke-width:0.5;" x="373.196171" xlink:href="#m1e0628f291" y="512.64"/>
      </g>
     </g>
    </g>
    <g id="xtick_24">
     <g id="line2d_32">
      <g>
       <use style="fill:#262626;stroke:#262626;stroke-width:0.5;" x="383.832423" xlink:href="#m1e0628f291" y="512.64"/>
      </g>
     </g>
    </g>
    <g id="xtick_25">
     <g id="line2d_33">
      <g>
       <use style="fill:#262626;stroke:#262626;stroke-width:0.5;" x="393.214262" xlink:href="#m1e0628f291" y="512.64"/>
      </g>
     </g>
    </g>
    <g id="xtick_26">
     <g id="line2d_34">
      <g>
       <use style="fill:#262626;stroke:#262626;stroke-width:0.5;" x="456.818252" xlink:href="#m1e0628f291" y="512.64"/>
      </g>
     </g>
    </g>
    <g id="xtick_27">
     <g id="line2d_35">
      <g>
       <use style="fill:#262626;stroke:#262626;stroke-width:0.5;" x="489.114996" xlink:href="#m1e0628f291" y="512.64"/>
      </g>
     </g>
    </g>
    <g id="xtick_28">
     <g id="line2d_36">
      <g>
       <use style="fill:#262626;stroke:#262626;stroke-width:0.5;" x="512.029901" xlink:href="#m1e0628f291" y="512.64"/>
      </g>
     </g>
    </g>
    <g id="xtick_29">
     <g id="line2d_37">
      <g>
       <use style="fill:#262626;stroke:#262626;stroke-width:0.5;" x="529.804081" xlink:href="#m1e0628f291" y="512.64"/>
      </g>
     </g>
    </g>
    <g id="xtick_30">
     <g id="line2d_38">
      <g>
       <use style="fill:#262626;stroke:#262626;stroke-width:0.5;" x="544.326645" xlink:href="#m1e0628f291" y="512.64"/>
      </g>
     </g>
    </g>
    <g id="xtick_31">
     <g id="line2d_39">
      <g>
       <use style="fill:#262626;stroke:#262626;stroke-width:0.5;" x="556.605297" xlink:href="#m1e0628f291" y="512.64"/>
      </g>
     </g>
    </g>
    <g id="xtick_32">
     <g id="line2d_40">
      <g>
       <use style="fill:#262626;stroke:#262626;stroke-width:0.5;" x="567.241549" xlink:href="#m1e0628f291" y="512.64"/>
      </g>
     </g>
    </g>
    <g id="xtick_33">
     <g id="line2d_41">
      <g>
       <use style="fill:#262626;stroke:#262626;stroke-width:0.5;" x="576.623389" xlink:href="#m1e0628f291" y="512.64"/>
      </g>
     </g>
    </g>
    <g id="xtick_34">
     <g id="line2d_42">
      <g>
       <use style="fill:#262626;stroke:#262626;stroke-width:0.5;" x="640.227378" xlink:href="#m1e0628f291" y="512.64"/>
      </g>
     </g>
    </g>
   </g>
   <g id="matplotlib.axis_4">
    <g id="ytick_8">
     <g id="line2d_43">
      <g>
       <use style="fill:#262626;stroke:#262626;" x="90" xlink:href="#m29c6004aac" y="512.64"/>
      </g>
     </g>
     <g id="text_17">
      <!-- $\mathdefault{10^{-5}}$ -->
      <defs>
       <path d="M 4.15625 18.75 
L 13.375 19.53125 
Q 14.40625 12.796875 18.140625 9.390625 
Q 21.875 6 27.15625 6 
Q 33.5 6 37.890625 10.78125 
Q 42.28125 15.578125 42.28125 23.484375 
Q 42.28125 31 38.0625 35.34375 
Q 33.84375 39.703125 27 39.703125 
Q 22.75 39.703125 19.328125 37.765625 
Q 15.921875 35.84375 13.96875 32.765625 
L 5.71875 33.84375 
L 12.640625 70.609375 
L 48.25 70.609375 
L 48.25 62.203125 
L 19.671875 62.203125 
L 15.828125 42.96875 
Q 22.265625 47.46875 29.34375 47.46875 
Q 38.71875 47.46875 45.15625 40.96875 
Q 51.609375 34.46875 51.609375 24.265625 
Q 51.609375 14.546875 45.953125 7.46875 
Q 39.0625 -1.21875 27.15625 -1.21875 
Q 17.390625 -1.21875 11.203125 4.25 
Q 5.03125 9.71875 4.15625 18.75 
z
" id="ArialMT-35"/>
      </defs>
      <g style="fill:#262626;" transform="translate(57.2 517.74625)scale(0.1 -0.1)">
       <use transform="translate(0 0.879688)" xlink:href="#ArialMT-31"/>
       <use transform="translate(55.615234 0.879688)" xlink:href="#ArialMT-30"/>
       <use transform="translate(112.972813 70.573438)scale(0.7)" xlink:href="#ArialMT-2212"/>
       <use transform="translate(153.851719 70.573438)scale(0.7)" xlink:href="#ArialMT-35"/>
      </g>
     </g>
    </g>
    <g id="ytick_9">
     <g id="line2d_44">
      <g>
       <use style="fill:#262626;stroke:#262626;" x="90" xlink:href="#m29c6004aac" y="465.767507"/>
      </g>
     </g>
     <g id="text_18">
      <!-- $\mathdefault{10^{-4}}$ -->
      <g style="fill:#262626;" transform="translate(57.2 470.873757)scale(0.1 -0.1)">
       <use transform="translate(0 0.201563)" xlink:href="#ArialMT-31"/>
       <use transform="translate(55.615234 0.201563)" xlink:href="#ArialMT-30"/>
       <use transform="translate(112.972813 69.895313)scale(0.7)" xlink:href="#ArialMT-2212"/>
       <use transform="translate(153.851719 69.895313)scale(0.7)" xlink:href="#ArialMT-34"/>
      </g>
     </g>
    </g>
    <g id="ytick_10">
     <g id="line2d_45">
      <g>
       <use style="fill:#262626;stroke:#262626;" x="90" xlink:href="#m29c6004aac" y="418.895013"/>
      </g>
     </g>
     <g id="text_19">
      <!-- $\mathdefault{10^{-3}}$ -->
      <g style="fill:#262626;" transform="translate(57.2 424.051263)scale(0.1 -0.1)">
       <use transform="translate(0 0.99375)" xlink:href="#ArialMT-31"/>
       <use transform="translate(55.615234 0.99375)" xlink:href="#ArialMT-30"/>
       <use transform="translate(112.972813 70.6875)scale(0.7)" xlink:href="#ArialMT-2212"/>
       <use transform="translate(153.851719 70.6875)scale(0.7)" xlink:href="#ArialMT-33"/>
      </g>
     </g>
    </g>
    <g id="ytick_11">
     <g id="line2d_46">
      <g>
       <use style="fill:#262626;stroke:#262626;" x="90" xlink:href="#m29c6004aac" y="372.02252"/>
      </g>
     </g>
     <g id="text_20">
      <!-- $\mathdefault{10^{-2}}$ -->
      <g style="fill:#262626;" transform="translate(57.2 377.17877)scale(0.1 -0.1)">
       <use transform="translate(0 0.99375)" xlink:href="#ArialMT-31"/>
       <use transform="translate(55.615234 0.99375)" xlink:href="#ArialMT-30"/>
       <use transform="translate(112.972813 70.6875)scale(0.7)" xlink:href="#ArialMT-2212"/>
       <use transform="translate(153.851719 70.6875)scale(0.7)" xlink:href="#ArialMT-32"/>
      </g>
     </g>
    </g>
    <g id="ytick_12">
     <g id="line2d_47">
      <g>
       <use style="fill:#262626;stroke:#262626;" x="90" xlink:href="#m29c6004aac" y="325.150026"/>
      </g>
     </g>
     <g id="text_21">
      <!-- $\mathdefault{10^{-1}}$ -->
      <g style="fill:#262626;" transform="translate(57.2 330.306276)scale(0.1 -0.1)">
       <use transform="translate(0 0.99375)" xlink:href="#ArialMT-31"/>
       <use transform="translate(55.615234 0.99375)" xlink:href="#ArialMT-30"/>
       <use transform="translate(112.972813 70.6875)scale(0.7)" xlink:href="#ArialMT-2212"/>
       <use transform="translate(153.851719 70.6875)scale(0.7)" xlink:href="#ArialMT-31"/>
      </g>
     </g>
    </g>
    <g id="ytick_13">
     <g id="line2d_48">
      <defs>
       <path d="M 0 0 
L -3 0 
" id="m59a3a4c63d" style="stroke:#262626;stroke-width:0.5;"/>
      </defs>
      <g>
       <use style="fill:#262626;stroke:#262626;stroke-width:0.5;" x="90" xlink:href="#m59a3a4c63d" y="498.529974"/>
      </g>
     </g>
    </g>
    <g id="ytick_14">
     <g id="line2d_49">
      <g>
       <use style="fill:#262626;stroke:#262626;stroke-width:0.5;" x="90" xlink:href="#m59a3a4c63d" y="490.276137"/>
      </g>
     </g>
    </g>
    <g id="ytick_15">
     <g id="line2d_50">
      <g>
       <use style="fill:#262626;stroke:#262626;stroke-width:0.5;" x="90" xlink:href="#m59a3a4c63d" y="484.419947"/>
      </g>
     </g>
    </g>
    <g id="ytick_16">
     <g id="line2d_51">
      <g>
       <use style="fill:#262626;stroke:#262626;stroke-width:0.5;" x="90" xlink:href="#m59a3a4c63d" y="479.877533"/>
      </g>
     </g>
    </g>
    <g id="ytick_17">
     <g id="line2d_52">
      <g>
       <use style="fill:#262626;stroke:#262626;stroke-width:0.5;" x="90" xlink:href="#m59a3a4c63d" y="476.166111"/>
      </g>
     </g>
    </g>
    <g id="ytick_18">
     <g id="line2d_53">
      <g>
       <use style="fill:#262626;stroke:#262626;stroke-width:0.5;" x="90" xlink:href="#m59a3a4c63d" y="473.028148"/>
      </g>
     </g>
    </g>
    <g id="ytick_19">
     <g id="line2d_54">
      <g>
       <use style="fill:#262626;stroke:#262626;stroke-width:0.5;" x="90" xlink:href="#m59a3a4c63d" y="470.309921"/>
      </g>
     </g>
    </g>
    <g id="ytick_20">
     <g id="line2d_55">
      <g>
       <use style="fill:#262626;stroke:#262626;stroke-width:0.5;" x="90" xlink:href="#m59a3a4c63d" y="467.912274"/>
      </g>
     </g>
    </g>
    <g id="ytick_21">
     <g id="line2d_56">
      <g>
       <use style="fill:#262626;stroke:#262626;stroke-width:0.5;" x="90" xlink:href="#m59a3a4c63d" y="451.65748"/>
      </g>
     </g>
    </g>
    <g id="ytick_22">
     <g id="line2d_57">
      <g>
       <use style="fill:#262626;stroke:#262626;stroke-width:0.5;" x="90" xlink:href="#m59a3a4c63d" y="443.403644"/>
      </g>
     </g>
    </g>
    <g id="ytick_23">
     <g id="line2d_58">
      <g>
       <use style="fill:#262626;stroke:#262626;stroke-width:0.5;" x="90" xlink:href="#m59a3a4c63d" y="437.547454"/>
      </g>
     </g>
    </g>
    <g id="ytick_24">
     <g id="line2d_59">
      <g>
       <use style="fill:#262626;stroke:#262626;stroke-width:0.5;" x="90" xlink:href="#m59a3a4c63d" y="433.00504"/>
      </g>
     </g>
    </g>
    <g id="ytick_25">
     <g id="line2d_60">
      <g>
       <use style="fill:#262626;stroke:#262626;stroke-width:0.5;" x="90" xlink:href="#m59a3a4c63d" y="429.293617"/>
      </g>
     </g>
    </g>
    <g id="ytick_26">
     <g id="line2d_61">
      <g>
       <use style="fill:#262626;stroke:#262626;stroke-width:0.5;" x="90" xlink:href="#m59a3a4c63d" y="426.155654"/>
      </g>
     </g>
    </g>
    <g id="ytick_27">
     <g id="line2d_62">
      <g>
       <use style="fill:#262626;stroke:#262626;stroke-width:0.5;" x="90" xlink:href="#m59a3a4c63d" y="423.437427"/>
      </g>
     </g>
    </g>
    <g id="ytick_28">
     <g id="line2d_63">
      <g>
       <use style="fill:#262626;stroke:#262626;stroke-width:0.5;" x="90" xlink:href="#m59a3a4c63d" y="421.039781"/>
      </g>
     </g>
    </g>
    <g id="ytick_29">
     <g id="line2d_64">
      <g>
       <use style="fill:#262626;stroke:#262626;stroke-width:0.5;" x="90" xlink:href="#m59a3a4c63d" y="404.784987"/>
      </g>
     </g>
    </g>
    <g id="ytick_30">
     <g id="line2d_65">
      <g>
       <use style="fill:#262626;stroke:#262626;stroke-width:0.5;" x="90" xlink:href="#m59a3a4c63d" y="396.53115"/>
      </g>
     </g>
    </g>
    <g id="ytick_31">
     <g id="line2d_66">
      <g>
       <use style="fill:#262626;stroke:#262626;stroke-width:0.5;" x="90" xlink:href="#m59a3a4c63d" y="390.67496"/>
      </g>
     </g>
    </g>
    <g id="ytick_32">
     <g id="line2d_67">
      <g>
       <use style="fill:#262626;stroke:#262626;stroke-width:0.5;" x="90" xlink:href="#m59a3a4c63d" y="386.132546"/>
      </g>
     </g>
    </g>
    <g id="ytick_33">
     <g id="line2d_68">
      <g>
       <use style="fill:#262626;stroke:#262626;stroke-width:0.5;" x="90" xlink:href="#m59a3a4c63d" y="382.421124"/>
      </g>
     </g>
    </g>
    <g id="ytick_34">
     <g id="line2d_69">
      <g>
       <use style="fill:#262626;stroke:#262626;stroke-width:0.5;" x="90" xlink:href="#m59a3a4c63d" y="379.283161"/>
      </g>
     </g>
    </g>
    <g id="ytick_35">
     <g id="line2d_70">
      <g>
       <use style="fill:#262626;stroke:#262626;stroke-width:0.5;" x="90" xlink:href="#m59a3a4c63d" y="376.564934"/>
      </g>
     </g>
    </g>
    <g id="ytick_36">
     <g id="line2d_71">
      <g>
       <use style="fill:#262626;stroke:#262626;stroke-width:0.5;" x="90" xlink:href="#m59a3a4c63d" y="374.167288"/>
      </g>
     </g>
    </g>
    <g id="ytick_37">
     <g id="line2d_72">
      <g>
       <use style="fill:#262626;stroke:#262626;stroke-width:0.5;" x="90" xlink:href="#m59a3a4c63d" y="357.912493"/>
      </g>
     </g>
    </g>
    <g id="ytick_38">
     <g id="line2d_73">
      <g>
       <use style="fill:#262626;stroke:#262626;stroke-width:0.5;" x="90" xlink:href="#m59a3a4c63d" y="349.658657"/>
      </g>
     </g>
    </g>
    <g id="ytick_39">
     <g id="line2d_74">
      <g>
       <use style="fill:#262626;stroke:#262626;stroke-width:0.5;" x="90" xlink:href="#m59a3a4c63d" y="343.802467"/>
      </g>
     </g>
    </g>
    <g id="ytick_40">
     <g id="line2d_75">
      <g>
       <use style="fill:#262626;stroke:#262626;stroke-width:0.5;" x="90" xlink:href="#m59a3a4c63d" y="339.260053"/>
      </g>
     </g>
    </g>
    <g id="ytick_41">
     <g id="line2d_76">
      <g>
       <use style="fill:#262626;stroke:#262626;stroke-width:0.5;" x="90" xlink:href="#m59a3a4c63d" y="335.548631"/>
      </g>
     </g>
    </g>
    <g id="ytick_42">
     <g id="line2d_77">
      <g>
       <use style="fill:#262626;stroke:#262626;stroke-width:0.5;" x="90" xlink:href="#m59a3a4c63d" y="332.410668"/>
      </g>
     </g>
    </g>
    <g id="ytick_43">
     <g id="line2d_78">
      <g>
       <use style="fill:#262626;stroke:#262626;stroke-width:0.5;" x="90" xlink:href="#m59a3a4c63d" y="329.69244"/>
      </g>
     </g>
    </g>
    <g id="ytick_44">
     <g id="line2d_79">
      <g>
       <use style="fill:#262626;stroke:#262626;stroke-width:0.5;" x="90" xlink:href="#m59a3a4c63d" y="327.294794"/>
      </g>
     </g>
    </g>
    <g id="ytick_45">
     <g id="line2d_80">
      <g>
       <use style="fill:#262626;stroke:#262626;stroke-width:0.5;" x="90" xlink:href="#m59a3a4c63d" y="311.04"/>
      </g>
     </g>
    </g>
   </g>
   <g id="line2d_81">
    <path clip-path="url(#pf179e35a27)" d="M -1 356.428603 
L 151.095164 356.428883 
L 206.306812 389.723468 
L 238.603556 404.03891 
L 261.518461 412.853268 
L 279.292642 420.556375 
L 293.815205 374.747445 
L 306.093857 428.971635 
L 316.730109 435.846649 
L 326.111949 430.765037 
L 334.50429 425.217695 
L 342.096086 415.88256 
L 349.026853 357.572446 
L 355.402541 413.47791 
L 361.305505 423.564379 
L 366.801034 428.465124 
L 371.941758 428.9792 
L 376.770725 432.930192 
L 381.323597 400.494772 
L 385.630245 419.571551 
L 389.715939 423.863787 
L 393.602249 422.724665 
L 397.307735 418.462846 
L 400.848476 411.144478 
L 404.238502 380.776881 
L 407.490119 400.088322 
L 410.614189 415.855858 
L 413.620341 419.695635 
L 416.517154 416.059048 
L 419.312303 405.802303 
L 422.012683 379.727846 
L 424.624509 396.754944 
L 427.153406 418.103199 
L 429.604479 428.203467 
L 431.982374 433.404677 
L 434.291335 436.829534 
L 436.535246 422.291036 
L 438.717672 417.794642 
L 440.841893 430.468653 
L 442.910933 437.438478 
L 444.927587 437.34917 
L 446.894442 435.436598 
L 448.813898 420.117192 
L 450.688186 413.43816 
L 452.519383 437.986742 
L 454.309426 445.909452 
L 456.060125 457.744577 
L 457.773171 462.684322 
L 459.45015 464.35252 
L 461.09255 443.584163 
L 462.701768 462.406476 
L 464.279118 470.312132 
L 465.825838 466.432121 
L 467.343094 485.078459 
L 468.83199 471.795373 
L 470.293564 439.883158 
L 471.728802 473.264833 
L 473.138637 479.211244 
L 474.523951 474.206986 
L 475.885584 473.450026 
L 477.224331 474.556503 
L 478.540949 467.613429 
L 479.836157 463.652514 
L 481.110642 499.030879 
L 482.365055 494.657796 
L 483.600019 480.6528 
L 484.816127 471.425578 
L 486.013948 477.631669 
L 487.194022 439.513539 
L 488.356869 482.112227 
L 489.502983 489.622685 
L 490.63284 502.531015 
L 491.746894 495.561525 
L 492.845581 491.813388 
L 493.92932 499.063864 
L 494.998512 474.190298 
L 496.053541 486.588447 
L 497.094779 482.486369 
L 498.122582 501.455188 
L 499.137291 493.475788 
L 500.139235 506.442287 
L 501.128734 454.382526 
L 503.0716 531.594932 
L 504.025546 494.587866 
L 504.968203 493.110093 
L 505.899834 497.403528 
L 506.820695 498.818063 
L 507.731032 555.46947 
L 508.631082 512.481768 
L 509.521075 499.183686 
L 510.401234 504.49109 
L 511.271773 502.323554 
L 512.132901 520.733662 
L 512.984819 494.582855 
L 513.827722 499.883064 
L 514.661799 515.792765 
L 515.487232 515.410155 
L 516.304198 508.651414 
L 517.913416 487.566691 
L 518.705996 499.912515 
L 519.490766 497.619338 
L 520.26788 496.293007 
L 521.037486 487.560774 
L 521.799727 508.100011 
L 522.554743 509.147444 
L 523.302669 501.120509 
L 524.043638 508.578707 
L 524.777778 489.950788 
L 525.505212 496.033703 
L 526.226064 507.635632 
L 526.940451 499.119718 
L 527.648487 498.924318 
L 528.350285 530.38323 
L 529.045954 509.196941 
L 529.7356 503.634535 
L 530.419326 489.549431 
L 531.097232 490.214576 
L 531.769418 498.987212 
L 532.435979 531.916665 
L 533.097009 509.399599 
L 533.752597 507.222909 
L 534.402834 531.880863 
L 535.047806 513.681842 
L 535.687597 500.224356 
L 536.32229 495.01917 
L 536.951966 512.241453 
L 537.576703 520.627999 
L 538.196578 502.633835 
L 538.811667 494.83853 
L 539.422042 497.331027 
L 540.027776 501.179808 
L 540.628938 483.885485 
L 541.225596 496.044024 
L 541.817819 517.208646 
L 542.405671 493.569966 
L 542.989216 512.213041 
L 543.568517 521.452612 
L 544.143636 490.967978 
L 544.714632 500.402789 
L 545.281563 500.917356 
L 545.844488 501.919992 
L 546.403463 492.260627 
L 547.509781 524.163923 
L 548.05723 514.862263 
L 548.600942 489.707526 
L 549.140969 492.105359 
L 549.677358 534.713114 
L 550.21016 504.900429 
L 550.739422 487.981135 
L 551.26519 487.659581 
L 551.78751 514.411451 
L 552.306428 499.405413 
L 552.821987 498.240553 
L 553.33423 514.782945 
L 553.8432 488.570875 
L 554.348939 498.913996 
L 554.851487 513.618287 
L 555.350884 485.354857 
L 555.847169 518.574975 
L 556.340382 491.480436 
L 556.830559 512.258351 
L 557.317739 546.15315 
L 557.801956 514.391966 
L 558.283248 503.457247 
L 559.237195 510.414578 
L 559.709918 500.699078 
L 560.179852 516.334952 
L 560.647029 492.82752 
L 561.111483 497.780749 
L 561.573244 496.136445 
L 562.032344 500.090654 
L 562.488812 493.927133 
L 562.94268 513.38163 
L 563.84273 489.046203 
L 564.28897 503.431292 
L 564.732723 499.125537 
L 565.174019 508.008013 
L 565.612882 505.180912 
L 566.049341 490.785375 
L 566.483422 498.113122 
L 566.91515 498.51683 
L 567.34455 481.543882 
L 567.771648 499.836369 
L 568.196468 508.688582 
L 568.619034 502.207408 
L 569.039371 484.072897 
L 569.457501 501.120956 
L 569.873447 507.864596 
L 570.287233 494.243622 
L 570.69888 499.901755 
L 571.108411 522.087362 
L 571.515847 485.812158 
L 571.921209 490.862877 
L 572.32452 503.859957 
L 572.725798 493.839954 
L 573.125065 495.861686 
L 573.52234 491.05732 
L 573.917644 505.181188 
L 574.310996 500.59874 
L 574.702415 488.902071 
L 575.091919 506.4326 
L 575.479529 517.309909 
L 575.865261 487.98634 
L 576.249135 509.441347 
L 576.631167 522.618505 
L 577.011376 504.212715 
L 577.389778 508.095035 
L 577.766391 489.357651 
L 578.141232 494.924745 
L 578.514318 523.491956 
L 578.885664 525.407006 
L 579.255287 490.95272 
L 579.623202 490.73908 
L 580.353974 525.808902 
L 580.716861 502.748665 
L 581.078102 544.890391 
L 581.437713 522.159133 
L 581.795707 489.767751 
L 582.152099 501.506626 
L 582.506904 495.085626 
L 582.860136 511.142777 
L 583.211808 512.795015 
L 583.561934 507.962367 
L 583.910528 518.531098 
L 584.257603 505.340219 
L 584.603172 516.441881 
L 584.947248 532.441985 
L 585.289845 502.812595 
L 585.970649 492.676148 
L 586.308881 497.353923 
L 586.645683 498.069055 
L 586.981067 497.580284 
L 587.315045 493.062522 
L 587.647628 492.67871 
L 587.978828 492.471003 
L 588.308657 534.929709 
L 588.637126 510.652554 
L 588.964246 499.509436 
L 589.290028 502.092809 
L 589.614483 509.186071 
L 589.937621 504.815263 
L 590.259454 493.096149 
L 590.899246 523.916941 
L 591.217224 501.991937 
L 591.533939 508.817018 
L 591.849399 500.39859 
L 592.163614 495.274109 
L 592.476596 494.479722 
L 592.788352 501.195406 
L 593.098892 497.116463 
L 593.408227 531.642766 
L 593.716365 493.299122 
L 594.023315 510.485717 
L 594.329088 510.921823 
L 594.633691 508.175156 
L 595.239424 495.398226 
L 595.540572 506.310955 
L 595.840586 507.744123 
L 596.139474 501.237274 
L 596.437245 507.015353 
L 596.733906 508.72101 
L 597.029467 491.099458 
L 597.323936 500.50675 
L 597.617319 500.289141 
L 597.909626 492.174438 
L 598.200864 495.203408 
L 598.491042 488.435039 
L 598.780166 505.777941 
L 599.068244 494.740387 
L 599.355284 528.710292 
L 599.641294 494.240257 
L 599.92628 522.82951 
L 600.21025 494.922478 
L 600.493212 493.748751 
L 600.775172 496.367945 
L 601.056137 490.111001 
L 601.336115 493.79229 
L 601.615112 499.96555 
L 602.170191 517.67335 
L 602.446287 496.453025 
L 602.721429 500.271494 
L 602.995624 508.033945 
L 603.268878 500.199296 
L 603.541199 512.110762 
L 603.812591 494.089919 
L 604.083062 520.115884 
L 604.352617 508.776499 
L 604.621264 492.149801 
L 604.889007 502.694208 
L 605.155853 547.176286 
L 605.421809 520.360255 
L 605.686879 514.928618 
L 605.95107 493.906698 
L 606.214388 487.869268 
L 606.476838 518.643751 
L 606.738427 489.300333 
L 607.25904 525.527191 
L 607.518076 498.052465 
L 607.776273 488.000789 
L 608.290169 513.117607 
L 608.545879 493.264037 
L 608.80077 500.309919 
L 609.054849 498.270899 
L 609.308119 505.851826 
L 609.560587 504.960195 
L 609.812258 538.41352 
L 610.063135 493.16972 
L 610.313225 493.428149 
L 610.562532 530.213593 
L 610.811062 484.863373 
L 611.058818 513.066111 
L 611.55203 499.327441 
L 611.797496 514.898505 
L 612.042208 513.343581 
L 612.28617 525.207964 
L 612.529387 520.541589 
L 612.771864 497.403774 
L 613.013605 495.727963 
L 613.254614 521.213599 
L 613.494897 518.095579 
L 613.734457 506.641054 
L 613.973298 486.837272 
L 614.211426 509.969432 
L 614.448843 513.989547 
L 614.685555 512.766701 
L 614.921566 534.004604 
L 615.15688 494.976548 
L 615.3915 496.952425 
L 615.625431 517.84189 
L 615.858678 495.605356 
L 616.091243 511.291538 
L 616.323131 507.989945 
L 616.554347 481.495747 
L 616.784892 486.41158 
L 617.014773 497.375167 
L 617.243992 500.455599 
L 617.472553 508.310756 
L 617.700461 486.361166 
L 617.927718 497.526746 
L 618.154329 525.985681 
L 618.380296 487.387889 
L 618.605625 503.452051 
L 618.830318 489.682847 
L 619.054379 550.465538 
L 619.277811 503.621929 
L 619.500618 515.186472 
L 619.722804 512.209405 
L 619.944372 497.703626 
L 620.165325 513.133721 
L 620.385667 486.383795 
L 620.824531 504.698154 
L 621.043059 498.068135 
L 621.26099 509.34871 
L 621.478326 489.569006 
L 621.911227 509.56947 
L 622.126798 506.354368 
L 622.341787 517.918827 
L 622.556198 500.829925 
L 622.770034 513.683893 
L 622.983296 485.37861 
L 623.195989 515.327491 
L 623.408116 506.294647 
L 623.61968 504.710638 
L 623.830683 500.710514 
L 624.041128 521.795943 
L 624.251019 488.246648 
L 624.669149 501.877518 
L 624.877394 522.617457 
L 625.085096 507.674767 
L 625.292257 503.853913 
L 625.498881 508.940524 
L 625.704971 519.223299 
L 625.910528 498.613778 
L 626.115557 501.794232 
L 626.320059 499.227629 
L 626.524038 488.200101 
L 626.727495 525.039356 
L 626.930435 484.639549 
L 627.132858 499.632815 
L 627.334768 500.489253 
L 627.536168 507.175602 
L 627.73706 489.339482 
L 627.937446 487.9358 
L 628.13733 494.236497 
L 628.336713 505.970637 
L 628.535599 541.16818 
L 628.733989 488.030889 
L 628.931886 495.829272 
L 629.129293 508.431728 
L 629.718594 491.987647 
L 629.914063 555.568429 
L 630.109054 518.235087 
L 630.497608 491.598745 
L 630.691177 492.540396 
L 630.884277 497.432326 
L 631.07691 548.616247 
L 631.269078 508.173694 
L 631.652028 498.773691 
L 631.842815 508.702154 
L 632.223024 490.92525 
L 632.41245 519.274019 
L 632.601426 492.257806 
L 632.789956 489.619739 
L 632.97804 513.100555 
L 633.165681 496.54038 
L 633.352881 510.102571 
L 633.539642 506.636555 
L 633.725966 523.833368 
L 633.911856 486.598275 
L 634.282338 502.278626 
L 634.466935 486.040173 
L 634.651105 521.685705 
L 635.018173 504.340528 
L 635.201074 501.199936 
L 635.383557 491.411522 
L 635.747272 519.279794 
L 635.928509 497.463873 
L 636.109335 515.395098 
L 636.469759 496.96786 
L 636.649361 502.193413 
L 636.828559 494.737164 
L 637.007355 492.738968 
L 637.363748 511.432353 
L 637.541348 483.914842 
L 637.718553 489.750049 
L 637.895364 487.215374 
L 638.071784 489.431963 
L 638.247814 488.699633 
L 638.423456 523.537026 
L 638.598712 514.485043 
L 638.94807 490.877479 
L 639.122176 494.377698 
L 639.295903 493.254746 
L 639.469251 499.69547 
L 639.642223 501.339629 
L 639.81482 493.799593 
L 639.987044 534.349689 
L 640.158897 499.156356 
L 640.330379 497.425938 
L 640.501493 502.141368 
L 640.67224 512.695178 
L 640.842622 509.364445 
L 641.012641 519.191547 
L 641.182297 499.221251 
L 641.351593 526.72576 
L 641.520529 498.794942 
L 641.689108 533.01076 
L 641.857331 480.954487 
L 642.192715 516.294589 
L 642.359879 516.21911 
L 642.859276 483.382465 
L 643.025049 494.854444 
L 643.190477 514.214133 
L 643.355562 497.051414 
L 643.520306 538.924228 
L 643.848774 487.045931 
L 644.012502 505.937929 
L 644.175894 508.344503 
L 644.338952 512.501862 
L 644.501676 495.482629 
L 644.664069 500.011423 
L 644.826131 501.17205 
L 644.987864 519.642962 
L 645.14927 499.958974 
L 645.310349 521.521712 
L 645.631533 498.072878 
L 645.791641 498.673864 
L 645.951427 501.828194 
L 646.110894 525.965305 
L 646.270042 526.657012 
L 646.428873 494.386259 
L 646.587387 531.650849 
L 646.745587 491.017229 
L 646.903473 549.240803 
L 647.061047 505.067358 
L 647.21831 564.245664 
L 647.375263 514.546445 
L 647.531907 521.513206 
L 647.844274 513.763669 
L 647.844274 513.763669 
" style="fill:none;stroke:#b22222;stroke-linecap:round;stroke-width:1.75;"/>
   </g>
   <g id="patch_6">
    <path d="M 90 512.64 
L 90 311.04 
" style="fill:none;stroke:#262626;stroke-linecap:square;stroke-linejoin:miter;stroke-width:1.25;"/>
   </g>
   <g id="patch_7">
    <path d="M 90 512.64 
L 648 512.64 
" style="fill:none;stroke:#262626;stroke-linecap:square;stroke-linejoin:miter;stroke-width:1.25;"/>
   </g>
  </g>
 </g>
 <defs>
  <clipPath id="p1a23b666df">
   <rect height="201.6" width="558" x="90" y="69.12"/>
  </clipPath>
  <clipPath id="pf179e35a27">
   <rect height="201.6" width="558" x="90" y="311.04"/>
  </clipPath>
 </defs>
</svg>
