<?xml version="1.0" encoding="utf-8" standalone="no"?>
<!DOCTYPE svg PUBLIC "-//W3C//DTD SVG 1.1//EN"
  "http://www.w3.org/Graphics/SVG/1.1/DTD/svg11.dtd">
<!-- Created with matplotlib (http://matplotlib.org/) -->
<svg height="576pt" version="1.1" viewBox="0 0 720 576" width="720pt" xmlns="http://www.w3.org/2000/svg" xmlns:xlink="http://www.w3.org/1999/xlink">
 <defs>
  <style type="text/css">
*{stroke-linecap:butt;stroke-linejoin:round;}
  </style>
 </defs>
 <g id="figure_1">
  <g id="patch_1">
   <path d="M 0 576 
L 720 576 
L 720 0 
L 0 0 
z
" style="fill:#ffffff;"/>
  </g>
  <g id="axes_1">
   <g id="patch_2">
    <path d="M 90 270.72 
L 648 270.72 
L 648 69.12 
L 90 69.12 
z
" style="fill:#ffffff;"/>
   </g>
   <g id="matplotlib.axis_1">
    <g id="xtick_1">
     <g id="line2d_1">
      <defs>
       <path d="M 0 0 
L 0 6 
" id="m1868b8fd3c" style="stroke:#262626;"/>
      </defs>
      <g>
       <use style="fill:#262626;stroke:#262626;" x="90" xlink:href="#m1868b8fd3c" y="270.72"/>
      </g>
     </g>
     <g id="text_1">
      <!-- 0 -->
      <defs>
       <path d="M 4.15625 35.296875 
Q 4.15625 48 6.765625 55.734375 
Q 9.375 63.484375 14.515625 67.671875 
Q 19.671875 71.875 27.484375 71.875 
Q 33.25 71.875 37.59375 69.546875 
Q 41.9375 67.234375 44.765625 62.859375 
Q 47.609375 58.5 49.21875 52.21875 
Q 50.828125 45.953125 50.828125 35.296875 
Q 50.828125 22.703125 48.234375 14.96875 
Q 45.65625 7.234375 40.5 3 
Q 35.359375 -1.21875 27.484375 -1.21875 
Q 17.140625 -1.21875 11.234375 6.203125 
Q 4.15625 15.140625 4.15625 35.296875 
z
M 13.1875 35.296875 
Q 13.1875 17.671875 17.3125 11.828125 
Q 21.4375 6 27.484375 6 
Q 33.546875 6 37.671875 11.859375 
Q 41.796875 17.71875 41.796875 35.296875 
Q 41.796875 52.984375 37.671875 58.78125 
Q 33.546875 64.59375 27.390625 64.59375 
Q 21.34375 64.59375 17.71875 59.46875 
Q 13.1875 52.9375 13.1875 35.296875 
z
" id="ArialMT-30"/>
      </defs>
      <g style="fill:#262626;" transform="translate(87.219531 290.877812)scale(0.1 -0.1)">
       <use xlink:href="#ArialMT-30"/>
      </g>
     </g>
    </g>
    <g id="xtick_2">
     <g id="line2d_2">
      <g>
       <use style="fill:#262626;stroke:#262626;" x="198.984375" xlink:href="#m1868b8fd3c" y="270.72"/>
      </g>
     </g>
     <g id="text_2">
      <!-- 200 -->
      <defs>
       <path d="M 50.34375 8.453125 
L 50.34375 0 
L 3.03125 0 
Q 2.9375 3.171875 4.046875 6.109375 
Q 5.859375 10.9375 9.828125 15.625 
Q 13.8125 20.3125 21.34375 26.46875 
Q 33.015625 36.03125 37.109375 41.625 
Q 41.21875 47.21875 41.21875 52.203125 
Q 41.21875 57.421875 37.46875 61 
Q 33.734375 64.59375 27.734375 64.59375 
Q 21.390625 64.59375 17.578125 60.78125 
Q 13.765625 56.984375 13.71875 50.25 
L 4.6875 51.171875 
Q 5.609375 61.28125 11.65625 66.578125 
Q 17.71875 71.875 27.9375 71.875 
Q 38.234375 71.875 44.234375 66.15625 
Q 50.25 60.453125 50.25 52 
Q 50.25 47.703125 48.484375 43.546875 
Q 46.734375 39.40625 42.65625 34.8125 
Q 38.578125 30.21875 29.109375 22.21875 
Q 21.1875 15.578125 18.9375 13.203125 
Q 16.703125 10.84375 15.234375 8.453125 
z
" id="ArialMT-32"/>
      </defs>
      <g style="fill:#262626;" transform="translate(190.642969 290.877812)scale(0.1 -0.1)">
       <use xlink:href="#ArialMT-32"/>
       <use x="55.615234" xlink:href="#ArialMT-30"/>
       <use x="111.230469" xlink:href="#ArialMT-30"/>
      </g>
     </g>
    </g>
    <g id="xtick_3">
     <g id="line2d_3">
      <g>
       <use style="fill:#262626;stroke:#262626;" x="307.96875" xlink:href="#m1868b8fd3c" y="270.72"/>
      </g>
     </g>
     <g id="text_3">
      <!-- 400 -->
      <defs>
       <path d="M 32.328125 0 
L 32.328125 17.140625 
L 1.265625 17.140625 
L 1.265625 25.203125 
L 33.9375 71.578125 
L 41.109375 71.578125 
L 41.109375 25.203125 
L 50.78125 25.203125 
L 50.78125 17.140625 
L 41.109375 17.140625 
L 41.109375 0 
z
M 32.328125 25.203125 
L 32.328125 57.46875 
L 9.90625 25.203125 
z
" id="ArialMT-34"/>
      </defs>
      <g style="fill:#262626;" transform="translate(299.627344 290.877812)scale(0.1 -0.1)">
       <use xlink:href="#ArialMT-34"/>
       <use x="55.615234" xlink:href="#ArialMT-30"/>
       <use x="111.230469" xlink:href="#ArialMT-30"/>
      </g>
     </g>
    </g>
    <g id="xtick_4">
     <g id="line2d_4">
      <g>
       <use style="fill:#262626;stroke:#262626;" x="416.953125" xlink:href="#m1868b8fd3c" y="270.72"/>
      </g>
     </g>
     <g id="text_4">
      <!-- 600 -->
      <defs>
       <path d="M 49.75 54.046875 
L 41.015625 53.375 
Q 39.84375 58.546875 37.703125 60.890625 
Q 34.125 64.65625 28.90625 64.65625 
Q 24.703125 64.65625 21.53125 62.3125 
Q 17.390625 59.28125 14.984375 53.46875 
Q 12.59375 47.65625 12.5 36.921875 
Q 15.671875 41.75 20.265625 44.09375 
Q 24.859375 46.4375 29.890625 46.4375 
Q 38.671875 46.4375 44.84375 39.96875 
Q 51.03125 33.5 51.03125 23.25 
Q 51.03125 16.5 48.125 10.71875 
Q 45.21875 4.9375 40.140625 1.859375 
Q 35.0625 -1.21875 28.609375 -1.21875 
Q 17.625 -1.21875 10.6875 6.859375 
Q 3.765625 14.9375 3.765625 33.5 
Q 3.765625 54.25 11.421875 63.671875 
Q 18.109375 71.875 29.4375 71.875 
Q 37.890625 71.875 43.28125 67.140625 
Q 48.6875 62.40625 49.75 54.046875 
z
M 13.875 23.1875 
Q 13.875 18.65625 15.796875 14.5 
Q 17.71875 10.359375 21.1875 8.171875 
Q 24.65625 6 28.46875 6 
Q 34.03125 6 38.03125 10.484375 
Q 42.046875 14.984375 42.046875 22.703125 
Q 42.046875 30.125 38.078125 34.390625 
Q 34.125 38.671875 28.125 38.671875 
Q 22.171875 38.671875 18.015625 34.390625 
Q 13.875 30.125 13.875 23.1875 
z
" id="ArialMT-36"/>
      </defs>
      <g style="fill:#262626;" transform="translate(408.611719 290.877812)scale(0.1 -0.1)">
       <use xlink:href="#ArialMT-36"/>
       <use x="55.615234" xlink:href="#ArialMT-30"/>
       <use x="111.230469" xlink:href="#ArialMT-30"/>
      </g>
     </g>
    </g>
    <g id="xtick_5">
     <g id="line2d_5">
      <g>
       <use style="fill:#262626;stroke:#262626;" x="525.9375" xlink:href="#m1868b8fd3c" y="270.72"/>
      </g>
     </g>
     <g id="text_5">
      <!-- 800 -->
      <defs>
       <path d="M 17.671875 38.8125 
Q 12.203125 40.828125 9.5625 44.53125 
Q 6.9375 48.25 6.9375 53.421875 
Q 6.9375 61.234375 12.546875 66.546875 
Q 18.171875 71.875 27.484375 71.875 
Q 36.859375 71.875 42.578125 66.421875 
Q 48.296875 60.984375 48.296875 53.171875 
Q 48.296875 48.1875 45.671875 44.5 
Q 43.0625 40.828125 37.75 38.8125 
Q 44.34375 36.671875 47.78125 31.875 
Q 51.21875 27.09375 51.21875 20.453125 
Q 51.21875 11.28125 44.71875 5.03125 
Q 38.234375 -1.21875 27.640625 -1.21875 
Q 17.046875 -1.21875 10.546875 5.046875 
Q 4.046875 11.328125 4.046875 20.703125 
Q 4.046875 27.6875 7.59375 32.390625 
Q 11.140625 37.109375 17.671875 38.8125 
z
M 15.921875 53.71875 
Q 15.921875 48.640625 19.1875 45.40625 
Q 22.46875 42.1875 27.6875 42.1875 
Q 32.765625 42.1875 36.015625 45.375 
Q 39.265625 48.578125 39.265625 53.21875 
Q 39.265625 58.0625 35.90625 61.359375 
Q 32.5625 64.65625 27.59375 64.65625 
Q 22.5625 64.65625 19.234375 61.421875 
Q 15.921875 58.203125 15.921875 53.71875 
z
M 13.09375 20.65625 
Q 13.09375 16.890625 14.875 13.375 
Q 16.65625 9.859375 20.171875 7.921875 
Q 23.6875 6 27.734375 6 
Q 34.03125 6 38.125 10.046875 
Q 42.234375 14.109375 42.234375 20.359375 
Q 42.234375 26.703125 38.015625 30.859375 
Q 33.796875 35.015625 27.4375 35.015625 
Q 21.234375 35.015625 17.15625 30.90625 
Q 13.09375 26.8125 13.09375 20.65625 
z
" id="ArialMT-38"/>
      </defs>
      <g style="fill:#262626;" transform="translate(517.596094 290.877812)scale(0.1 -0.1)">
       <use xlink:href="#ArialMT-38"/>
       <use x="55.615234" xlink:href="#ArialMT-30"/>
       <use x="111.230469" xlink:href="#ArialMT-30"/>
      </g>
     </g>
    </g>
    <g id="xtick_6">
     <g id="line2d_6">
      <g>
       <use style="fill:#262626;stroke:#262626;" x="634.921875" xlink:href="#m1868b8fd3c" y="270.72"/>
      </g>
     </g>
     <g id="text_6">
      <!-- 1000 -->
      <defs>
       <path d="M 37.25 0 
L 28.46875 0 
L 28.46875 56 
Q 25.296875 52.984375 20.140625 49.953125 
Q 14.984375 46.921875 10.890625 45.40625 
L 10.890625 53.90625 
Q 18.265625 57.375 23.78125 62.296875 
Q 29.296875 67.234375 31.59375 71.875 
L 37.25 71.875 
z
" id="ArialMT-31"/>
      </defs>
      <g style="fill:#262626;" transform="translate(623.8 290.877812)scale(0.1 -0.1)">
       <use xlink:href="#ArialMT-31"/>
       <use x="55.615234" xlink:href="#ArialMT-30"/>
       <use x="111.230469" xlink:href="#ArialMT-30"/>
       <use x="166.845703" xlink:href="#ArialMT-30"/>
      </g>
     </g>
    </g>
   </g>
   <g id="matplotlib.axis_2">
    <g id="ytick_1">
     <g id="line2d_7">
      <defs>
       <path d="M 0 0 
L -6 0 
" id="m5e95b93193" style="stroke:#262626;"/>
      </defs>
      <g>
       <use style="fill:#262626;stroke:#262626;" x="90" xlink:href="#m5e95b93193" y="270.72"/>
      </g>
     </g>
     <g id="text_7">
      <!-- −0.6 -->
      <defs>
       <path d="M 52.828125 31.203125 
L 5.5625 31.203125 
L 5.5625 39.40625 
L 52.828125 39.40625 
z
" id="ArialMT-2212"/>
       <path d="M 9.078125 0 
L 9.078125 10.015625 
L 19.09375 10.015625 
L 19.09375 0 
z
" id="ArialMT-2e"/>
      </defs>
      <g style="fill:#262626;" transform="translate(57.259375 274.298906)scale(0.1 -0.1)">
       <use xlink:href="#ArialMT-2212"/>
       <use x="58.398438" xlink:href="#ArialMT-30"/>
       <use x="114.013672" xlink:href="#ArialMT-2e"/>
       <use x="141.796875" xlink:href="#ArialMT-36"/>
      </g>
     </g>
    </g>
    <g id="ytick_2">
     <g id="line2d_8">
      <g>
       <use style="fill:#262626;stroke:#262626;" x="90" xlink:href="#m5e95b93193" y="237.12"/>
      </g>
     </g>
     <g id="text_8">
      <!-- −0.4 -->
      <g style="fill:#262626;" transform="translate(57.259375 240.698906)scale(0.1 -0.1)">
       <use xlink:href="#ArialMT-2212"/>
       <use x="58.398438" xlink:href="#ArialMT-30"/>
       <use x="114.013672" xlink:href="#ArialMT-2e"/>
       <use x="141.796875" xlink:href="#ArialMT-34"/>
      </g>
     </g>
    </g>
    <g id="ytick_3">
     <g id="line2d_9">
      <g>
       <use style="fill:#262626;stroke:#262626;" x="90" xlink:href="#m5e95b93193" y="203.52"/>
      </g>
     </g>
     <g id="text_9">
      <!-- −0.2 -->
      <g style="fill:#262626;" transform="translate(57.259375 207.098906)scale(0.1 -0.1)">
       <use xlink:href="#ArialMT-2212"/>
       <use x="58.398438" xlink:href="#ArialMT-30"/>
       <use x="114.013672" xlink:href="#ArialMT-2e"/>
       <use x="141.796875" xlink:href="#ArialMT-32"/>
      </g>
     </g>
    </g>
    <g id="ytick_4">
     <g id="line2d_10">
      <g>
       <use style="fill:#262626;stroke:#262626;" x="90" xlink:href="#m5e95b93193" y="169.92"/>
      </g>
     </g>
     <g id="text_10">
      <!-- 0.0 -->
      <g style="fill:#262626;" transform="translate(63.1 173.498906)scale(0.1 -0.1)">
       <use xlink:href="#ArialMT-30"/>
       <use x="55.615234" xlink:href="#ArialMT-2e"/>
       <use x="83.398438" xlink:href="#ArialMT-30"/>
      </g>
     </g>
    </g>
    <g id="ytick_5">
     <g id="line2d_11">
      <g>
       <use style="fill:#262626;stroke:#262626;" x="90" xlink:href="#m5e95b93193" y="136.32"/>
      </g>
     </g>
     <g id="text_11">
      <!-- 0.2 -->
      <g style="fill:#262626;" transform="translate(63.1 139.898906)scale(0.1 -0.1)">
       <use xlink:href="#ArialMT-30"/>
       <use x="55.615234" xlink:href="#ArialMT-2e"/>
       <use x="83.398438" xlink:href="#ArialMT-32"/>
      </g>
     </g>
    </g>
    <g id="ytick_6">
     <g id="line2d_12">
      <g>
       <use style="fill:#262626;stroke:#262626;" x="90" xlink:href="#m5e95b93193" y="102.72"/>
      </g>
     </g>
     <g id="text_12">
      <!-- 0.4 -->
      <g style="fill:#262626;" transform="translate(63.1 106.298906)scale(0.1 -0.1)">
       <use xlink:href="#ArialMT-30"/>
       <use x="55.615234" xlink:href="#ArialMT-2e"/>
       <use x="83.398438" xlink:href="#ArialMT-34"/>
      </g>
     </g>
    </g>
    <g id="ytick_7">
     <g id="line2d_13">
      <g>
       <use style="fill:#262626;stroke:#262626;" x="90" xlink:href="#m5e95b93193" y="69.12"/>
      </g>
     </g>
     <g id="text_13">
      <!-- 0.6 -->
      <g style="fill:#262626;" transform="translate(63.1 72.698906)scale(0.1 -0.1)">
       <use xlink:href="#ArialMT-30"/>
       <use x="55.615234" xlink:href="#ArialMT-2e"/>
       <use x="83.398438" xlink:href="#ArialMT-36"/>
      </g>
     </g>
    </g>
   </g>
   <g id="line2d_14">
    <path clip-path="url(#pa34af3efc8)" d="M 90 166.474687 
L 90.544922 166.356768 
L 91.089844 166.495195 
L 91.634766 166.423418 
L 92.724609 165.828691 
L 93.814453 164.931475 
L 95.994141 163.024248 
L 97.083984 162.639727 
L 98.71875 163.536943 
L 99.263672 164.182939 
L 101.443359 168.038408 
L 102.533203 170.494219 
L 105.257812 176.021074 
L 106.347656 177.287432 
L 106.892578 178.056475 
L 107.982422 178.835771 
L 109.072266 179.133135 
L 110.707031 178.80501 
L 112.341797 177.625811 
L 113.431641 176.251787 
L 114.521484 174.677812 
L 118.880859 165.541582 
L 119.970703 163.649736 
L 120.515625 163.137041 
L 121.060547 162.22957 
L 122.695312 161.342607 
L 123.240234 161.604082 
L 123.785156 161.670732 
L 125.964844 163.96248 
L 126.509766 164.188066 
L 127.054688 164.910967 
L 127.599609 165.439043 
L 128.144531 165.587725 
L 128.689453 166.305498 
L 129.234375 166.187578 
L 129.779297 166.495195 
L 130.324219 166.361895 
L 130.869141 166.515703 
L 132.503906 166.120928 
L 135.228516 163.803545 
L 136.318359 162.880693 
L 136.863281 162.783281 
L 137.408203 162.332109 
L 137.953125 162.619219 
L 138.498047 162.665361 
L 139.042969 163.219072 
L 139.587891 163.536943 
L 140.132812 164.223955 
L 140.677734 165.146807 
L 141.222656 165.792803 
L 141.767578 166.833574 
L 142.3125 167.607744 
L 142.857422 168.848467 
L 146.126953 174.370195 
L 147.216797 175.390459 
L 147.761719 176.082598 
L 148.851562 176.590166 
L 149.396484 176.790117 
L 149.941406 176.805498 
L 151.576172 176.24666 
L 152.666016 175.70833 
L 153.210938 175.70833 
L 154.300781 175.016191 
L 155.935547 175.011064 
L 156.480469 175.057207 
L 157.025391 174.672686 
L 158.115234 174.754717 
L 159.75 174.067705 
L 160.839844 173.447344 
L 161.384766 172.862871 
L 161.929688 172.509111 
L 163.019531 171.606768 
L 163.564453 171.242754 
L 164.109375 170.530107 
L 165.744141 168.992021 
L 167.378906 167.130937 
L 168.46875 165.546709 
L 169.013672 164.982744 
L 170.103516 163.131914 
L 170.648438 162.603838 
L 171.738281 161.178545 
L 172.828125 160.219805 
L 174.462891 159.584062 
L 175.552734 159.42 
L 176.097656 159.758379 
L 176.642578 159.681475 
L 178.822266 161.219561 
L 181.001953 163.065264 
L 182.091797 163.352373 
L 182.636719 163.126787 
L 183.726562 162.860186 
L 185.361328 161.614336 
L 186.451172 160.388994 
L 186.996094 160.163408 
L 188.085938 159.394365 
L 188.630859 159.666094 
L 189.175781 159.553301 
L 190.265625 160.107012 
L 191.355469 161.373369 
L 191.900391 162.224443 
L 192.990234 164.300859 
L 194.080078 166.633623 
L 196.804688 172.227129 
L 198.439453 174.81624 
L 200.074219 176.78499 
L 201.708984 177.548906 
L 202.798828 177.543779 
L 203.888672 177.010576 
L 205.523438 175.267412 
L 206.068359 174.544512 
L 206.613281 173.570391 
L 207.158203 172.929521 
L 208.792969 169.694414 
L 211.517578 164.331621 
L 213.152344 162.619219 
L 214.242188 162.16292 
L 214.787109 162.296221 
L 215.332031 162.244951 
L 215.876953 162.783281 
L 216.421875 162.849932 
L 217.511719 164.090654 
L 218.056641 164.290605 
L 219.691406 166.03377 
L 220.78125 166.930986 
L 221.326172 167.182207 
L 222.416016 168.171709 
L 223.505859 168.299883 
L 224.595703 167.935869 
L 225.140625 167.366777 
L 226.230469 166.63875 
L 227.320312 165.418535 
L 227.865234 165.177568 
L 228.410156 164.562334 
L 229.5 164.19832 
L 230.044922 164.331621 
L 231.134766 164.967363 
L 232.224609 166.090166 
L 233.314453 167.802568 
L 234.404297 169.945635 
L 235.494141 172.201494 
L 236.583984 174.313799 
L 237.673828 175.821123 
L 238.21875 176.938799 
L 240.398438 179.240801 
L 241.488281 179.666338 
L 242.033203 179.871416 
L 242.578125 179.825273 
L 243.123047 180.214922 
L 244.212891 179.871416 
L 244.757812 179.94832 
L 245.302734 179.876543 
L 245.847656 179.927812 
L 246.392578 179.799639 
L 246.9375 180.014971 
L 247.482422 180.014971 
L 248.027344 179.809893 
L 248.572266 179.994463 
L 249.117188 179.902178 
L 249.662109 179.922686 
L 251.296875 179.1075 
L 251.841797 179.102373 
L 252.386719 178.861406 
L 252.931641 178.743486 
L 254.021484 178.107744 
L 254.566406 178.041094 
L 255.111328 177.37459 
L 255.65625 177.313066 
L 256.746094 176.4825 
L 257.291016 176.200518 
L 257.835938 175.375078 
L 258.380859 174.929033 
L 258.925781 173.929277 
L 260.015625 172.714189 
L 260.560547 171.714434 
L 262.740234 168.827959 
L 263.285156 168.156328 
L 263.830078 167.920488 
L 264.375 167.34627 
L 264.919922 167.115557 
L 265.464844 166.700273 
L 266.009766 166.443926 
L 266.554688 166.469561 
L 267.099609 166.269609 
L 268.189453 166.52083 
L 268.734375 166.895098 
L 269.279297 167.11043 
L 269.824219 167.448809 
L 270.369141 168.110186 
L 272.548828 169.156084 
L 273.09375 169.104814 
L 273.638672 169.191973 
L 274.728516 169.058672 
L 275.818359 168.381914 
L 276.363281 168.346025 
L 277.453125 167.418047 
L 277.998047 167.212969 
L 278.542969 166.772051 
L 279.632812 166.33626 
L 280.177734 165.859453 
L 280.722656 166.490068 
L 281.267578 166.320879 
L 282.902344 167.653887 
L 283.447266 168.628008 
L 284.537109 170.099443 
L 287.806641 176.477373 
L 288.351562 177.2054 
L 288.896484 178.543535 
L 290.53125 181.071123 
L 292.166016 182.870684 
L 293.255859 183.829424 
L 293.800781 183.814043 
L 294.345703 184.060137 
L 294.890625 184.039629 
L 295.435547 183.665361 
L 295.980469 183.598711 
L 296.525391 182.906572 
L 297.070312 182.86043 
L 298.705078 180.230303 
L 299.25 178.994707 
L 299.794922 178.164141 
L 300.339844 176.764482 
L 301.429688 174.729082 
L 301.974609 173.283281 
L 303.064453 171.70418 
L 303.609375 170.719805 
L 304.699219 169.535479 
L 305.244141 169.397051 
L 305.789062 168.899736 
L 306.333984 169.022783 
L 306.878906 168.694658 
L 307.423828 168.833086 
L 307.96875 168.740801 
L 309.058594 169.402178 
L 310.693359 170.678789 
L 311.238281 171.550371 
L 312.328125 172.560381 
L 312.873047 173.139727 
L 314.507812 173.785723 
L 315.052734 173.872881 
L 316.142578 173.375566 
L 317.777344 172.237383 
L 318.867188 171.058184 
L 319.412109 170.648027 
L 320.501953 169.581621 
L 321.046875 169.391924 
L 321.591797 169.555986 
L 322.136719 169.191973 
L 322.681641 169.663652 
L 323.226562 169.976396 
L 323.771484 170.519854 
L 325.40625 172.811602 
L 325.951172 174.077959 
L 326.496094 174.929033 
L 327.585938 177.266924 
L 328.675781 179.097246 
L 329.765625 180.84041 
L 330.310547 181.240312 
L 331.400391 182.511797 
L 331.945312 183.065508 
L 333.035156 183.562822 
L 333.580078 183.393633 
L 334.669922 183.608965 
L 335.214844 183.793535 
L 335.759766 183.655107 
L 338.484375 183.93709 
L 339.029297 183.81917 
L 339.574219 183.870439 
L 340.119141 184.080645 
L 340.664062 183.834551 
L 341.753906 183.75252 
L 342.298828 183.706377 
L 344.478516 182.921953 
L 345.023438 182.839922 
L 346.113281 182.265703 
L 346.658203 182.132402 
L 348.837891 181.019854 
L 352.107422 177.19002 
L 353.197266 175.713457 
L 354.832031 173.349932 
L 356.466797 171.345293 
L 358.101562 170.073809 
L 358.646484 170.227617 
L 359.191406 170.032793 
L 360.826172 170.837725 
L 361.371094 171.11458 
L 362.460938 171.986162 
L 363.550781 172.570635 
L 364.095703 173.021807 
L 365.730469 173.283281 
L 366.820312 173.078203 
L 367.365234 172.391191 
L 367.910156 172.165605 
L 368.455078 171.750322 
L 369 170.965898 
L 369.544922 170.432695 
L 370.089844 170.058428 
L 371.179688 169.048418 
L 372.814453 168.72542 
L 373.359375 169.038164 
L 373.904297 169.658525 
L 374.449219 170.048174 
L 376.083984 172.591143 
L 382.623047 185.218828 
L 383.167969 185.921221 
L 383.712891 186.321123 
L 384.257812 187.105547 
L 384.802734 187.274736 
L 385.347656 187.956621 
L 385.892578 188.382158 
L 386.982422 188.659014 
L 387.527344 188.71541 
L 388.617188 188.05916 
L 390.796875 184.890703 
L 391.886719 182.557939 
L 392.431641 181.727373 
L 392.976562 180.097002 
L 394.066406 177.779619 
L 395.701172 174.836748 
L 397.335938 173.098711 
L 398.425781 172.591143 
L 399.515625 172.668047 
L 401.150391 174.067705 
L 401.695312 174.682939 
L 402.240234 175.067461 
L 403.330078 176.256914 
L 403.875 176.790117 
L 404.419922 177.113115 
L 404.964844 177.584795 
L 405.509766 177.72835 
L 406.054688 178.09749 
L 407.689453 177.451494 
L 408.779297 176.53377 
L 409.869141 175.539141 
L 410.414062 174.795732 
L 410.958984 174.452227 
L 411.503906 173.801104 
L 413.138672 172.416826 
L 414.773438 172.709062 
L 416.408203 174.318926 
L 418.042969 176.544023 
L 418.587891 177.759111 
L 419.132812 178.533281 
L 420.222656 180.917314 
L 421.3125 182.99373 
L 423.492188 185.470049 
L 424.582031 185.987871 
L 425.126953 186.018633 
L 426.216797 186.331377 
L 426.761719 186.700518 
L 427.306641 186.56209 
L 427.851562 186.782549 
L 429.486328 186.813311 
L 430.03125 187.018389 
L 430.576172 187.095293 
L 431.121094 186.992754 
L 432.755859 187.028643 
L 434.390625 186.721025 
L 436.570312 186.644121 
L 438.205078 185.598223 
L 439.294922 184.916338 
L 440.929688 183.029619 
L 441.474609 182.675859 
L 442.564453 181.327471 
L 443.109375 180.578936 
L 443.654297 180.055986 
L 444.744141 178.610186 
L 445.833984 177.102861 
L 446.923828 175.431475 
L 448.013672 173.872881 
L 449.648438 172.837236 
L 450.193359 172.66292 
L 452.373047 172.468096 
L 452.917969 172.914141 
L 455.642578 173.985674 
L 456.732422 174.288164 
L 458.367188 173.985674 
L 458.912109 173.370439 
L 459.457031 173.124346 
L 462.181641 170.52498 
L 462.726562 170.191729 
L 463.816406 170.099443 
L 464.361328 169.704668 
L 464.90625 170.007158 
L 465.451172 170.002031 
L 467.630859 172.257891 
L 468.175781 173.426836 
L 469.265625 175.22127 
L 469.810547 176.487627 
L 470.355469 177.415605 
L 470.900391 178.681963 
L 473.625 183.332109 
L 474.169922 184.05501 
L 474.714844 185.290605 
L 477.439453 188.828203 
L 477.984375 189.012773 
L 478.529297 189.479326 
L 479.074219 189.397295 
L 479.619141 189.458818 
L 480.164062 189.279375 
L 481.253906 188.171953 
L 482.34375 186.767168 
L 482.888672 185.664873 
L 483.433594 184.885576 
L 483.978516 183.532061 
L 484.523438 182.501543 
L 485.068359 181.081377 
L 487.792969 176.000566 
L 488.337891 174.995684 
L 488.882812 174.5804 
L 489.427734 173.939531 
L 490.517578 173.539629 
L 491.0625 173.416582 
L 492.152344 173.749834 
L 493.242188 174.677812 
L 494.332031 176.072344 
L 494.876953 176.641436 
L 495.421875 177.425859 
L 495.966797 177.759111 
L 496.511719 177.877031 
L 497.056641 178.394854 
L 497.601562 178.323076 
L 498.146484 178.405107 
L 498.691406 178.256426 
L 500.326172 177.005449 
L 500.871094 176.190264 
L 501.416016 175.728838 
L 502.505859 174.344561 
L 503.050781 173.816484 
L 504.140625 173.108965 
L 504.685547 172.42708 
L 505.230469 172.24251 
L 505.775391 171.909258 
L 506.320312 171.929766 
L 507.410156 172.319414 
L 508.5 173.38582 
L 509.044922 174.185625 
L 511.769531 179.399736 
L 513.949219 182.33748 
L 516.128906 184.378008 
L 517.763672 185.188066 
L 518.308594 185.311113 
L 518.853516 185.644365 
L 519.398438 185.449541 
L 519.943359 185.60335 
L 520.488281 185.977617 
L 521.578125 185.808428 
L 522.667969 185.711016 
L 523.212891 185.813555 
L 523.757812 185.78792 
L 524.847656 185.229082 
L 525.392578 185.475176 
L 525.9375 185.408525 
L 526.482422 185.126543 
L 527.027344 185.126543 
L 528.117188 184.665117 
L 529.207031 184.413896 
L 530.296875 183.834551 
L 530.841797 183.291094 
L 531.386719 183.137285 
L 534.111328 180.630205 
L 534.65625 180.081621 
L 535.746094 178.476885 
L 539.560547 172.637285 
L 540.105469 172.298906 
L 540.650391 171.637529 
L 541.195312 171.222246 
L 541.740234 170.986406 
L 542.285156 170.530107 
L 542.830078 170.704424 
L 543.375 170.248125 
L 545.009766 170.817217 
L 546.644531 171.801592 
L 548.824219 171.88875 
L 549.914062 171.422197 
L 552.09375 169.489336 
L 553.183594 168.222979 
L 553.728516 167.525713 
L 554.273438 167.048906 
L 554.818359 166.746416 
L 555.363281 166.295244 
L 556.453125 166.182451 
L 556.998047 166.408037 
L 557.542969 166.792559 
L 558.632812 168.074297 
L 559.177734 168.566484 
L 560.267578 170.530107 
L 560.8125 171.196611 
L 561.902344 173.293535 
L 562.447266 174.267656 
L 562.992188 175.482744 
L 563.537109 176.303057 
L 564.082031 177.497637 
L 564.626953 178.082109 
L 565.171875 179.456133 
L 567.351562 182.973223 
L 568.441406 184.152422 
L 568.986328 184.931719 
L 570.076172 185.608477 
L 570.621094 185.834062 
L 571.710938 185.73665 
L 572.800781 185.106035 
L 573.890625 183.93709 
L 576.070312 180.358477 
L 579.339844 173.847246 
L 579.884766 173.062822 
L 580.429688 172.514238 
L 580.974609 171.801592 
L 581.519531 171.427324 
L 582.064453 171.227373 
L 582.609375 171.160723 
L 583.154297 171.222246 
L 584.244141 171.581133 
L 585.333984 172.739824 
L 585.878906 173.43709 
L 586.96875 174.390703 
L 587.513672 175.05208 
L 588.603516 175.851885 
L 589.148438 175.862139 
L 589.693359 175.990312 
L 590.238281 175.8929 
L 590.783203 175.446855 
L 591.328125 175.246904 
L 591.873047 174.74959 
L 592.417969 174.5804 
L 592.962891 174.09334 
L 594.052734 172.801348 
L 595.142578 171.499102 
L 596.777344 169.996904 
L 597.322266 169.930254 
L 597.867188 169.602129 
L 598.412109 169.750811 
L 598.957031 170.078936 
L 600.046875 171.365801 
L 602.226562 175.149492 
L 603.316406 177.410479 
L 604.951172 179.907305 
L 605.496094 180.95833 
L 608.220703 184.362627 
L 610.945312 186.51082 
L 611.490234 186.674883 
L 612.035156 187.387529 
L 612.580078 187.561846 
L 613.669922 188.34627 
L 614.214844 188.438555 
L 614.759766 188.807695 
L 615.304688 188.971758 
L 616.394531 189.756182 
L 617.484375 190.074053 
L 618.029297 190.550859 
L 618.574219 190.443193 
L 619.664062 190.612383 
L 620.208984 190.597002 
L 620.753906 190.709795 
L 621.84375 190.49959 
L 622.388672 190.309893 
L 622.933594 190.530352 
L 623.478516 190.361162 
L 624.023438 189.951006 
L 625.113281 189.346025 
L 625.658203 188.47957 
L 626.203125 188.264238 
L 627.837891 186.044268 
L 628.927734 184.813799 
L 630.017578 182.988604 
L 632.197266 180.261064 
L 632.742188 179.64583 
L 633.287109 179.240801 
L 633.832031 179.112627 
L 634.376953 179.133135 
L 634.921875 178.984453 
L 636.556641 179.220293 
L 637.646484 179.707354 
L 638.736328 179.589434 
L 639.28125 179.825273 
L 641.460938 179.061357 
L 643.640625 176.528643 
L 645.275391 174.077959 
L 646.910156 172.473223 
L 647.455078 172.222002 
L 647.455078 172.222002 
" style="fill:none;stroke:#4c72b0;stroke-linecap:round;stroke-width:1.75;"/>
   </g>
   <g id="patch_3">
    <path d="M 90 270.72 
L 90 69.12 
" style="fill:none;stroke:#262626;stroke-linecap:square;stroke-linejoin:miter;stroke-width:1.25;"/>
   </g>
   <g id="patch_4">
    <path d="M 90 270.72 
L 648 270.72 
" style="fill:none;stroke:#262626;stroke-linecap:square;stroke-linejoin:miter;stroke-width:1.25;"/>
   </g>
  </g>
  <g id="axes_2">
   <g id="patch_5">
    <path d="M 90 512.64 
L 648 512.64 
L 648 311.04 
L 90 311.04 
z
" style="fill:#ffffff;"/>
   </g>
   <g id="matplotlib.axis_3">
    <g id="xtick_7">
     <g id="line2d_15">
      <g>
       <use style="fill:#262626;stroke:#262626;" x="218.197478" xlink:href="#m1868b8fd3c" y="512.64"/>
      </g>
     </g>
     <g id="text_14">
      <!-- $\mathdefault{10^{2}}$ -->
      <g style="fill:#262626;" transform="translate(210.347478 535.9525)scale(0.1 -0.1)">
       <use transform="translate(0 0.99375)" xlink:href="#ArialMT-31"/>
       <use transform="translate(55.615234 0.99375)" xlink:href="#ArialMT-30"/>
       <use transform="translate(112.972813 70.6875)scale(0.7)" xlink:href="#ArialMT-32"/>
      </g>
     </g>
    </g>
    <g id="xtick_8">
     <g id="line2d_16">
      <g>
       <use style="fill:#262626;stroke:#262626;" x="401.606604" xlink:href="#m1868b8fd3c" y="512.64"/>
      </g>
     </g>
     <g id="text_15">
      <!-- $\mathdefault{10^{3}}$ -->
      <defs>
       <path d="M 4.203125 18.890625 
L 12.984375 20.0625 
Q 14.5 12.59375 18.140625 9.296875 
Q 21.78125 6 27 6 
Q 33.203125 6 37.46875 10.296875 
Q 41.75 14.59375 41.75 20.953125 
Q 41.75 27 37.796875 30.921875 
Q 33.84375 34.859375 27.734375 34.859375 
Q 25.25 34.859375 21.53125 33.890625 
L 22.515625 41.609375 
Q 23.390625 41.5 23.921875 41.5 
Q 29.546875 41.5 34.03125 44.421875 
Q 38.53125 47.359375 38.53125 53.46875 
Q 38.53125 58.296875 35.25 61.46875 
Q 31.984375 64.65625 26.8125 64.65625 
Q 21.6875 64.65625 18.265625 61.421875 
Q 14.84375 58.203125 13.875 51.765625 
L 5.078125 53.328125 
Q 6.6875 62.15625 12.390625 67.015625 
Q 18.109375 71.875 26.609375 71.875 
Q 32.46875 71.875 37.390625 69.359375 
Q 42.328125 66.84375 44.9375 62.5 
Q 47.5625 58.15625 47.5625 53.265625 
Q 47.5625 48.640625 45.0625 44.828125 
Q 42.578125 41.015625 37.703125 38.765625 
Q 44.046875 37.3125 47.5625 32.6875 
Q 51.078125 28.078125 51.078125 21.140625 
Q 51.078125 11.765625 44.234375 5.25 
Q 37.40625 -1.265625 26.953125 -1.265625 
Q 17.53125 -1.265625 11.296875 4.34375 
Q 5.078125 9.96875 4.203125 18.890625 
z
" id="ArialMT-33"/>
      </defs>
      <g style="fill:#262626;" transform="translate(393.756604 535.9525)scale(0.1 -0.1)">
       <use transform="translate(0 0.99375)" xlink:href="#ArialMT-31"/>
       <use transform="translate(55.615234 0.99375)" xlink:href="#ArialMT-30"/>
       <use transform="translate(112.972813 70.6875)scale(0.7)" xlink:href="#ArialMT-33"/>
      </g>
     </g>
    </g>
    <g id="xtick_9">
     <g id="line2d_17">
      <g>
       <use style="fill:#262626;stroke:#262626;" x="585.01573" xlink:href="#m1868b8fd3c" y="512.64"/>
      </g>
     </g>
     <g id="text_16">
      <!-- $\mathdefault{10^{4}}$ -->
      <g style="fill:#262626;" transform="translate(577.16573 535.8525)scale(0.1 -0.1)">
       <use transform="translate(0 0.201563)" xlink:href="#ArialMT-31"/>
       <use transform="translate(55.615234 0.201563)" xlink:href="#ArialMT-30"/>
       <use transform="translate(112.972813 69.895313)scale(0.7)" xlink:href="#ArialMT-34"/>
      </g>
     </g>
    </g>
    <g id="xtick_10">
     <g id="line2d_18">
      <defs>
       <path d="M 0 0 
L 0 3 
" id="mac0aad6dd0" style="stroke:#262626;stroke-width:0.5;"/>
      </defs>
      <g>
       <use style="fill:#262626;stroke:#262626;stroke-width:0.5;" x="90" xlink:href="#mac0aad6dd0" y="512.64"/>
      </g>
     </g>
    </g>
    <g id="xtick_11">
     <g id="line2d_19">
      <g>
       <use style="fill:#262626;stroke:#262626;stroke-width:0.5;" x="122.296744" xlink:href="#mac0aad6dd0" y="512.64"/>
      </g>
     </g>
    </g>
    <g id="xtick_12">
     <g id="line2d_20">
      <g>
       <use style="fill:#262626;stroke:#262626;stroke-width:0.5;" x="145.211648" xlink:href="#mac0aad6dd0" y="512.64"/>
      </g>
     </g>
    </g>
    <g id="xtick_13">
     <g id="line2d_21">
      <g>
       <use style="fill:#262626;stroke:#262626;stroke-width:0.5;" x="162.985829" xlink:href="#mac0aad6dd0" y="512.64"/>
      </g>
     </g>
    </g>
    <g id="xtick_14">
     <g id="line2d_22">
      <g>
       <use style="fill:#262626;stroke:#262626;stroke-width:0.5;" x="177.508392" xlink:href="#mac0aad6dd0" y="512.64"/>
      </g>
     </g>
    </g>
    <g id="xtick_15">
     <g id="line2d_23">
      <g>
       <use style="fill:#262626;stroke:#262626;stroke-width:0.5;" x="189.787045" xlink:href="#mac0aad6dd0" y="512.64"/>
      </g>
     </g>
    </g>
    <g id="xtick_16">
     <g id="line2d_24">
      <g>
       <use style="fill:#262626;stroke:#262626;stroke-width:0.5;" x="200.423297" xlink:href="#mac0aad6dd0" y="512.64"/>
      </g>
     </g>
    </g>
    <g id="xtick_17">
     <g id="line2d_25">
      <g>
       <use style="fill:#262626;stroke:#262626;stroke-width:0.5;" x="209.805136" xlink:href="#mac0aad6dd0" y="512.64"/>
      </g>
     </g>
    </g>
    <g id="xtick_18">
     <g id="line2d_26">
      <g>
       <use style="fill:#262626;stroke:#262626;stroke-width:0.5;" x="273.409126" xlink:href="#mac0aad6dd0" y="512.64"/>
      </g>
     </g>
    </g>
    <g id="xtick_19">
     <g id="line2d_27">
      <g>
       <use style="fill:#262626;stroke:#262626;stroke-width:0.5;" x="305.70587" xlink:href="#mac0aad6dd0" y="512.64"/>
      </g>
     </g>
    </g>
    <g id="xtick_20">
     <g id="line2d_28">
      <g>
       <use style="fill:#262626;stroke:#262626;stroke-width:0.5;" x="328.620775" xlink:href="#mac0aad6dd0" y="512.64"/>
      </g>
     </g>
    </g>
    <g id="xtick_21">
     <g id="line2d_29">
      <g>
       <use style="fill:#262626;stroke:#262626;stroke-width:0.5;" x="346.394955" xlink:href="#mac0aad6dd0" y="512.64"/>
      </g>
     </g>
    </g>
    <g id="xtick_22">
     <g id="line2d_30">
      <g>
       <use style="fill:#262626;stroke:#262626;stroke-width:0.5;" x="360.917518" xlink:href="#mac0aad6dd0" y="512.64"/>
      </g>
     </g>
    </g>
    <g id="xtick_23">
     <g id="line2d_31">
      <g>
       <use style="fill:#262626;stroke:#262626;stroke-width:0.5;" x="373.196171" xlink:href="#mac0aad6dd0" y="512.64"/>
      </g>
     </g>
    </g>
    <g id="xtick_24">
     <g id="line2d_32">
      <g>
       <use style="fill:#262626;stroke:#262626;stroke-width:0.5;" x="383.832423" xlink:href="#mac0aad6dd0" y="512.64"/>
      </g>
     </g>
    </g>
    <g id="xtick_25">
     <g id="line2d_33">
      <g>
       <use style="fill:#262626;stroke:#262626;stroke-width:0.5;" x="393.214262" xlink:href="#mac0aad6dd0" y="512.64"/>
      </g>
     </g>
    </g>
    <g id="xtick_26">
     <g id="line2d_34">
      <g>
       <use style="fill:#262626;stroke:#262626;stroke-width:0.5;" x="456.818252" xlink:href="#mac0aad6dd0" y="512.64"/>
      </g>
     </g>
    </g>
    <g id="xtick_27">
     <g id="line2d_35">
      <g>
       <use style="fill:#262626;stroke:#262626;stroke-width:0.5;" x="489.114996" xlink:href="#mac0aad6dd0" y="512.64"/>
      </g>
     </g>
    </g>
    <g id="xtick_28">
     <g id="line2d_36">
      <g>
       <use style="fill:#262626;stroke:#262626;stroke-width:0.5;" x="512.029901" xlink:href="#mac0aad6dd0" y="512.64"/>
      </g>
     </g>
    </g>
    <g id="xtick_29">
     <g id="line2d_37">
      <g>
       <use style="fill:#262626;stroke:#262626;stroke-width:0.5;" x="529.804081" xlink:href="#mac0aad6dd0" y="512.64"/>
      </g>
     </g>
    </g>
    <g id="xtick_30">
     <g id="line2d_38">
      <g>
       <use style="fill:#262626;stroke:#262626;stroke-width:0.5;" x="544.326645" xlink:href="#mac0aad6dd0" y="512.64"/>
      </g>
     </g>
    </g>
    <g id="xtick_31">
     <g id="line2d_39">
      <g>
       <use style="fill:#262626;stroke:#262626;stroke-width:0.5;" x="556.605297" xlink:href="#mac0aad6dd0" y="512.64"/>
      </g>
     </g>
    </g>
    <g id="xtick_32">
     <g id="line2d_40">
      <g>
       <use style="fill:#262626;stroke:#262626;stroke-width:0.5;" x="567.241549" xlink:href="#mac0aad6dd0" y="512.64"/>
      </g>
     </g>
    </g>
    <g id="xtick_33">
     <g id="line2d_41">
      <g>
       <use style="fill:#262626;stroke:#262626;stroke-width:0.5;" x="576.623389" xlink:href="#mac0aad6dd0" y="512.64"/>
      </g>
     </g>
    </g>
    <g id="xtick_34">
     <g id="line2d_42">
      <g>
       <use style="fill:#262626;stroke:#262626;stroke-width:0.5;" x="640.227378" xlink:href="#mac0aad6dd0" y="512.64"/>
      </g>
     </g>
    </g>
   </g>
   <g id="matplotlib.axis_4">
    <g id="ytick_8">
     <g id="line2d_43">
      <g>
       <use style="fill:#262626;stroke:#262626;" x="90" xlink:href="#m5e95b93193" y="512.64"/>
      </g>
     </g>
     <g id="text_17">
      <!-- $\mathdefault{10^{-5}}$ -->
      <defs>
       <path d="M 4.15625 18.75 
L 13.375 19.53125 
Q 14.40625 12.796875 18.140625 9.390625 
Q 21.875 6 27.15625 6 
Q 33.5 6 37.890625 10.78125 
Q 42.28125 15.578125 42.28125 23.484375 
Q 42.28125 31 38.0625 35.34375 
Q 33.84375 39.703125 27 39.703125 
Q 22.75 39.703125 19.328125 37.765625 
Q 15.921875 35.84375 13.96875 32.765625 
L 5.71875 33.84375 
L 12.640625 70.609375 
L 48.25 70.609375 
L 48.25 62.203125 
L 19.671875 62.203125 
L 15.828125 42.96875 
Q 22.265625 47.46875 29.34375 47.46875 
Q 38.71875 47.46875 45.15625 40.96875 
Q 51.609375 34.46875 51.609375 24.265625 
Q 51.609375 14.546875 45.953125 7.46875 
Q 39.0625 -1.21875 27.15625 -1.21875 
Q 17.390625 -1.21875 11.203125 4.25 
Q 5.03125 9.71875 4.15625 18.75 
z
" id="ArialMT-35"/>
      </defs>
      <g style="fill:#262626;" transform="translate(57.2 517.74625)scale(0.1 -0.1)">
       <use transform="translate(0 0.879688)" xlink:href="#ArialMT-31"/>
       <use transform="translate(55.615234 0.879688)" xlink:href="#ArialMT-30"/>
       <use transform="translate(112.972813 70.573438)scale(0.7)" xlink:href="#ArialMT-2212"/>
       <use transform="translate(153.851719 70.573438)scale(0.7)" xlink:href="#ArialMT-35"/>
      </g>
     </g>
    </g>
    <g id="ytick_9">
     <g id="line2d_44">
      <g>
       <use style="fill:#262626;stroke:#262626;" x="90" xlink:href="#m5e95b93193" y="465.767507"/>
      </g>
     </g>
     <g id="text_18">
      <!-- $\mathdefault{10^{-4}}$ -->
      <g style="fill:#262626;" transform="translate(57.2 470.873757)scale(0.1 -0.1)">
       <use transform="translate(0 0.201563)" xlink:href="#ArialMT-31"/>
       <use transform="translate(55.615234 0.201563)" xlink:href="#ArialMT-30"/>
       <use transform="translate(112.972813 69.895313)scale(0.7)" xlink:href="#ArialMT-2212"/>
       <use transform="translate(153.851719 69.895313)scale(0.7)" xlink:href="#ArialMT-34"/>
      </g>
     </g>
    </g>
    <g id="ytick_10">
     <g id="line2d_45">
      <g>
       <use style="fill:#262626;stroke:#262626;" x="90" xlink:href="#m5e95b93193" y="418.895013"/>
      </g>
     </g>
     <g id="text_19">
      <!-- $\mathdefault{10^{-3}}$ -->
      <g style="fill:#262626;" transform="translate(57.2 424.051263)scale(0.1 -0.1)">
       <use transform="translate(0 0.99375)" xlink:href="#ArialMT-31"/>
       <use transform="translate(55.615234 0.99375)" xlink:href="#ArialMT-30"/>
       <use transform="translate(112.972813 70.6875)scale(0.7)" xlink:href="#ArialMT-2212"/>
       <use transform="translate(153.851719 70.6875)scale(0.7)" xlink:href="#ArialMT-33"/>
      </g>
     </g>
    </g>
    <g id="ytick_11">
     <g id="line2d_46">
      <g>
       <use style="fill:#262626;stroke:#262626;" x="90" xlink:href="#m5e95b93193" y="372.02252"/>
      </g>
     </g>
     <g id="text_20">
      <!-- $\mathdefault{10^{-2}}$ -->
      <g style="fill:#262626;" transform="translate(57.2 377.17877)scale(0.1 -0.1)">
       <use transform="translate(0 0.99375)" xlink:href="#ArialMT-31"/>
       <use transform="translate(55.615234 0.99375)" xlink:href="#ArialMT-30"/>
       <use transform="translate(112.972813 70.6875)scale(0.7)" xlink:href="#ArialMT-2212"/>
       <use transform="translate(153.851719 70.6875)scale(0.7)" xlink:href="#ArialMT-32"/>
      </g>
     </g>
    </g>
    <g id="ytick_12">
     <g id="line2d_47">
      <g>
       <use style="fill:#262626;stroke:#262626;" x="90" xlink:href="#m5e95b93193" y="325.150026"/>
      </g>
     </g>
     <g id="text_21">
      <!-- $\mathdefault{10^{-1}}$ -->
      <g style="fill:#262626;" transform="translate(57.2 330.306276)scale(0.1 -0.1)">
       <use transform="translate(0 0.99375)" xlink:href="#ArialMT-31"/>
       <use transform="translate(55.615234 0.99375)" xlink:href="#ArialMT-30"/>
       <use transform="translate(112.972813 70.6875)scale(0.7)" xlink:href="#ArialMT-2212"/>
       <use transform="translate(153.851719 70.6875)scale(0.7)" xlink:href="#ArialMT-31"/>
      </g>
     </g>
    </g>
    <g id="ytick_13">
     <g id="line2d_48">
      <defs>
       <path d="M 0 0 
L -3 0 
" id="m884dceec8c" style="stroke:#262626;stroke-width:0.5;"/>
      </defs>
      <g>
       <use style="fill:#262626;stroke:#262626;stroke-width:0.5;" x="90" xlink:href="#m884dceec8c" y="498.529974"/>
      </g>
     </g>
    </g>
    <g id="ytick_14">
     <g id="line2d_49">
      <g>
       <use style="fill:#262626;stroke:#262626;stroke-width:0.5;" x="90" xlink:href="#m884dceec8c" y="490.276137"/>
      </g>
     </g>
    </g>
    <g id="ytick_15">
     <g id="line2d_50">
      <g>
       <use style="fill:#262626;stroke:#262626;stroke-width:0.5;" x="90" xlink:href="#m884dceec8c" y="484.419947"/>
      </g>
     </g>
    </g>
    <g id="ytick_16">
     <g id="line2d_51">
      <g>
       <use style="fill:#262626;stroke:#262626;stroke-width:0.5;" x="90" xlink:href="#m884dceec8c" y="479.877533"/>
      </g>
     </g>
    </g>
    <g id="ytick_17">
     <g id="line2d_52">
      <g>
       <use style="fill:#262626;stroke:#262626;stroke-width:0.5;" x="90" xlink:href="#m884dceec8c" y="476.166111"/>
      </g>
     </g>
    </g>
    <g id="ytick_18">
     <g id="line2d_53">
      <g>
       <use style="fill:#262626;stroke:#262626;stroke-width:0.5;" x="90" xlink:href="#m884dceec8c" y="473.028148"/>
      </g>
     </g>
    </g>
    <g id="ytick_19">
     <g id="line2d_54">
      <g>
       <use style="fill:#262626;stroke:#262626;stroke-width:0.5;" x="90" xlink:href="#m884dceec8c" y="470.309921"/>
      </g>
     </g>
    </g>
    <g id="ytick_20">
     <g id="line2d_55">
      <g>
       <use style="fill:#262626;stroke:#262626;stroke-width:0.5;" x="90" xlink:href="#m884dceec8c" y="467.912274"/>
      </g>
     </g>
    </g>
    <g id="ytick_21">
     <g id="line2d_56">
      <g>
       <use style="fill:#262626;stroke:#262626;stroke-width:0.5;" x="90" xlink:href="#m884dceec8c" y="451.65748"/>
      </g>
     </g>
    </g>
    <g id="ytick_22">
     <g id="line2d_57">
      <g>
       <use style="fill:#262626;stroke:#262626;stroke-width:0.5;" x="90" xlink:href="#m884dceec8c" y="443.403644"/>
      </g>
     </g>
    </g>
    <g id="ytick_23">
     <g id="line2d_58">
      <g>
       <use style="fill:#262626;stroke:#262626;stroke-width:0.5;" x="90" xlink:href="#m884dceec8c" y="437.547454"/>
      </g>
     </g>
    </g>
    <g id="ytick_24">
     <g id="line2d_59">
      <g>
       <use style="fill:#262626;stroke:#262626;stroke-width:0.5;" x="90" xlink:href="#m884dceec8c" y="433.00504"/>
      </g>
     </g>
    </g>
    <g id="ytick_25">
     <g id="line2d_60">
      <g>
       <use style="fill:#262626;stroke:#262626;stroke-width:0.5;" x="90" xlink:href="#m884dceec8c" y="429.293617"/>
      </g>
     </g>
    </g>
    <g id="ytick_26">
     <g id="line2d_61">
      <g>
       <use style="fill:#262626;stroke:#262626;stroke-width:0.5;" x="90" xlink:href="#m884dceec8c" y="426.155654"/>
      </g>
     </g>
    </g>
    <g id="ytick_27">
     <g id="line2d_62">
      <g>
       <use style="fill:#262626;stroke:#262626;stroke-width:0.5;" x="90" xlink:href="#m884dceec8c" y="423.437427"/>
      </g>
     </g>
    </g>
    <g id="ytick_28">
     <g id="line2d_63">
      <g>
       <use style="fill:#262626;stroke:#262626;stroke-width:0.5;" x="90" xlink:href="#m884dceec8c" y="421.039781"/>
      </g>
     </g>
    </g>
    <g id="ytick_29">
     <g id="line2d_64">
      <g>
       <use style="fill:#262626;stroke:#262626;stroke-width:0.5;" x="90" xlink:href="#m884dceec8c" y="404.784987"/>
      </g>
     </g>
    </g>
    <g id="ytick_30">
     <g id="line2d_65">
      <g>
       <use style="fill:#262626;stroke:#262626;stroke-width:0.5;" x="90" xlink:href="#m884dceec8c" y="396.53115"/>
      </g>
     </g>
    </g>
    <g id="ytick_31">
     <g id="line2d_66">
      <g>
       <use style="fill:#262626;stroke:#262626;stroke-width:0.5;" x="90" xlink:href="#m884dceec8c" y="390.67496"/>
      </g>
     </g>
    </g>
    <g id="ytick_32">
     <g id="line2d_67">
      <g>
       <use style="fill:#262626;stroke:#262626;stroke-width:0.5;" x="90" xlink:href="#m884dceec8c" y="386.132546"/>
      </g>
     </g>
    </g>
    <g id="ytick_33">
     <g id="line2d_68">
      <g>
       <use style="fill:#262626;stroke:#262626;stroke-width:0.5;" x="90" xlink:href="#m884dceec8c" y="382.421124"/>
      </g>
     </g>
    </g>
    <g id="ytick_34">
     <g id="line2d_69">
      <g>
       <use style="fill:#262626;stroke:#262626;stroke-width:0.5;" x="90" xlink:href="#m884dceec8c" y="379.283161"/>
      </g>
     </g>
    </g>
    <g id="ytick_35">
     <g id="line2d_70">
      <g>
       <use style="fill:#262626;stroke:#262626;stroke-width:0.5;" x="90" xlink:href="#m884dceec8c" y="376.564934"/>
      </g>
     </g>
    </g>
    <g id="ytick_36">
     <g id="line2d_71">
      <g>
       <use style="fill:#262626;stroke:#262626;stroke-width:0.5;" x="90" xlink:href="#m884dceec8c" y="374.167288"/>
      </g>
     </g>
    </g>
    <g id="ytick_37">
     <g id="line2d_72">
      <g>
       <use style="fill:#262626;stroke:#262626;stroke-width:0.5;" x="90" xlink:href="#m884dceec8c" y="357.912493"/>
      </g>
     </g>
    </g>
    <g id="ytick_38">
     <g id="line2d_73">
      <g>
       <use style="fill:#262626;stroke:#262626;stroke-width:0.5;" x="90" xlink:href="#m884dceec8c" y="349.658657"/>
      </g>
     </g>
    </g>
    <g id="ytick_39">
     <g id="line2d_74">
      <g>
       <use style="fill:#262626;stroke:#262626;stroke-width:0.5;" x="90" xlink:href="#m884dceec8c" y="343.802467"/>
      </g>
     </g>
    </g>
    <g id="ytick_40">
     <g id="line2d_75">
      <g>
       <use style="fill:#262626;stroke:#262626;stroke-width:0.5;" x="90" xlink:href="#m884dceec8c" y="339.260053"/>
      </g>
     </g>
    </g>
    <g id="ytick_41">
     <g id="line2d_76">
      <g>
       <use style="fill:#262626;stroke:#262626;stroke-width:0.5;" x="90" xlink:href="#m884dceec8c" y="335.548631"/>
      </g>
     </g>
    </g>
    <g id="ytick_42">
     <g id="line2d_77">
      <g>
       <use style="fill:#262626;stroke:#262626;stroke-width:0.5;" x="90" xlink:href="#m884dceec8c" y="332.410668"/>
      </g>
     </g>
    </g>
    <g id="ytick_43">
     <g id="line2d_78">
      <g>
       <use style="fill:#262626;stroke:#262626;stroke-width:0.5;" x="90" xlink:href="#m884dceec8c" y="329.69244"/>
      </g>
     </g>
    </g>
    <g id="ytick_44">
     <g id="line2d_79">
      <g>
       <use style="fill:#262626;stroke:#262626;stroke-width:0.5;" x="90" xlink:href="#m884dceec8c" y="327.294794"/>
      </g>
     </g>
    </g>
    <g id="ytick_45">
     <g id="line2d_80">
      <g>
       <use style="fill:#262626;stroke:#262626;stroke-width:0.5;" x="90" xlink:href="#m884dceec8c" y="311.04"/>
      </g>
     </g>
    </g>
   </g>
   <g id="line2d_81">
    <path clip-path="url(#p45fe458385)" d="M -1 363.340209 
L 151.095164 363.351699 
L 206.306812 380.697232 
L 238.603556 383.071271 
L 261.518461 391.994919 
L 279.292642 391.373076 
L 293.815205 374.980708 
L 306.093857 402.972467 
L 316.730109 403.243026 
L 326.111949 406.239789 
L 334.50429 412.434505 
L 342.096086 410.95793 
L 349.026853 357.824231 
L 355.402541 405.583715 
L 361.305505 410.544683 
L 366.801034 416.401742 
L 371.941758 414.625846 
L 376.770725 413.749686 
L 381.323597 394.001947 
L 385.630245 418.268085 
L 389.715939 418.991347 
L 393.602249 415.533031 
L 397.307735 412.459048 
L 400.848476 405.23446 
L 404.238502 378.971037 
L 407.490119 406.774676 
L 410.614189 423.773762 
L 413.620341 429.73357 
L 416.517154 418.763627 
L 419.312303 410.743799 
L 422.012683 382.108419 
L 424.624509 397.203555 
L 427.153406 416.299309 
L 429.604479 422.414316 
L 431.982374 430.939936 
L 434.291335 423.756462 
L 436.535246 409.935878 
L 438.717672 417.706696 
L 440.841893 452.920601 
L 442.910933 464.102361 
L 444.927587 439.032141 
L 446.894442 439.245159 
L 448.813898 421.928994 
L 450.688186 413.578829 
L 452.519383 441.078633 
L 454.309426 447.65696 
L 456.060125 463.873614 
L 459.45015 449.743816 
L 461.09255 433.244188 
L 462.701768 453.632359 
L 465.825838 472.909632 
L 467.343094 466.172903 
L 468.83199 500.582434 
L 470.293564 449.879544 
L 471.728802 467.591424 
L 473.138637 483.12961 
L 474.523951 480.826322 
L 475.885584 475.885973 
L 477.224331 473.788497 
L 478.540949 466.28809 
L 479.836157 477.776877 
L 481.110642 476.931954 
L 482.365055 466.774749 
L 483.600019 478.485179 
L 484.816127 475.592786 
L 486.013948 488.500899 
L 487.194022 448.656782 
L 488.356869 469.423451 
L 489.502983 471.973646 
L 490.63284 474.983428 
L 491.746894 470.109216 
L 492.845581 482.774192 
L 493.92932 471.255526 
L 496.053541 476.576651 
L 497.094779 476.320073 
L 498.122582 470.877728 
L 499.137291 469.366801 
L 500.139235 480.148207 
L 501.128734 460.869799 
L 502.10609 476.86352 
L 503.0716 469.828496 
L 504.025546 486.277369 
L 504.968203 478.432619 
L 505.899834 473.136922 
L 506.820695 473.025839 
L 507.731032 479.310059 
L 508.631082 473.810083 
L 509.521075 475.744093 
L 510.401234 481.57 
L 511.271773 489.360512 
L 512.132901 502.595831 
L 512.984819 479.08729 
L 513.827722 469.137606 
L 514.661799 483.040405 
L 515.487232 474.304237 
L 516.304198 476.107684 
L 517.112871 470.733919 
L 518.705996 481.454815 
L 519.490766 469.782905 
L 520.26788 476.895227 
L 521.799727 482.513045 
L 522.554743 489.65709 
L 523.302669 471.435304 
L 524.043638 486.534067 
L 524.777778 492.363525 
L 525.505212 482.266291 
L 526.226064 481.036152 
L 526.940451 471.993281 
L 527.648487 490.105468 
L 528.350285 472.815746 
L 529.045954 491.227544 
L 529.7356 476.534217 
L 530.419326 477.868015 
L 531.097232 480.557296 
L 531.769418 480.300994 
L 532.435979 490.143839 
L 533.097009 474.316933 
L 533.752597 482.602599 
L 534.402834 485.510019 
L 535.047806 493.102044 
L 535.687597 471.888911 
L 536.32229 488.265951 
L 536.951966 485.033239 
L 537.576703 475.675526 
L 538.196578 481.155235 
L 538.811667 485.58097 
L 539.422042 495.084024 
L 540.027776 495.470359 
L 540.628938 468.193327 
L 541.225596 491.55864 
L 541.817819 491.31603 
L 542.405671 482.17673 
L 542.989216 486.389548 
L 543.568517 485.851744 
L 544.143636 479.172576 
L 544.714632 479.874177 
L 545.281563 487.445477 
L 545.844488 482.568362 
L 546.403463 493.487501 
L 546.958543 477.779415 
L 547.509781 480.219309 
L 548.05723 487.561883 
L 548.600942 485.227586 
L 549.140969 489.033776 
L 549.677358 485.716741 
L 550.21016 478.39964 
L 550.739422 497.384218 
L 551.26519 490.65089 
L 551.78751 477.423135 
L 552.306428 487.618343 
L 553.33423 476.676631 
L 553.8432 495.188074 
L 554.348939 485.461035 
L 554.851487 491.512176 
L 555.350884 500.976376 
L 555.847169 504.537504 
L 556.340382 504.177837 
L 556.830559 491.351971 
L 557.317739 486.813256 
L 557.801956 479.437097 
L 558.283248 481.422819 
L 558.76165 477.227306 
L 559.709918 492.249659 
L 560.179852 484.892551 
L 560.647029 503.488668 
L 561.111483 480.161626 
L 561.573244 487.539887 
L 562.032344 485.688953 
L 562.488812 477.446697 
L 562.94268 487.183163 
L 563.393976 483.161528 
L 563.84273 491.301546 
L 564.732723 477.524736 
L 565.174019 489.189306 
L 565.612882 489.189742 
L 566.049341 481.820458 
L 566.483422 498.325925 
L 566.91515 488.116529 
L 567.34455 498.290108 
L 567.771648 492.147542 
L 568.196468 476.608167 
L 568.619034 500.898761 
L 569.039371 483.490912 
L 569.457501 485.440712 
L 569.873447 484.929503 
L 570.69888 490.157382 
L 571.108411 474.372565 
L 571.515847 496.005801 
L 571.921209 508.820137 
L 572.32452 483.516498 
L 572.725798 488.247543 
L 573.125065 488.98387 
L 573.52234 495.313903 
L 573.917644 493.384501 
L 574.310996 505.924183 
L 574.702415 485.817339 
L 575.091919 494.239276 
L 575.479529 489.186825 
L 575.865261 488.565645 
L 576.249135 491.727535 
L 576.631167 480.366646 
L 577.011376 493.268151 
L 577.389778 483.783381 
L 577.766391 485.090942 
L 578.141232 486.881523 
L 578.514318 499.120557 
L 578.885664 481.626937 
L 579.255287 481.743121 
L 579.623202 478.633961 
L 579.989426 478.714941 
L 580.353974 492.019788 
L 580.716861 494.261494 
L 581.437713 514.365032 
L 581.795707 516.243363 
L 582.152099 513.130446 
L 582.506904 476.748698 
L 582.860136 497.17108 
L 583.211808 492.56171 
L 583.561934 499.929991 
L 583.910528 504.113174 
L 584.257603 492.689049 
L 584.603172 489.241148 
L 584.947248 497.017118 
L 585.289845 496.133051 
L 585.630974 490.996057 
L 585.970649 481.80615 
L 586.308881 484.378762 
L 586.645683 499.0811 
L 586.981067 497.710678 
L 587.315045 494.967434 
L 587.978828 516.407002 
L 588.308657 492.599934 
L 588.637126 483.646347 
L 588.964246 485.150491 
L 589.290028 499.741795 
L 589.614483 502.452947 
L 589.937621 481.72252 
L 590.259454 506.391063 
L 590.579992 510.117008 
L 590.899246 483.136359 
L 591.217224 501.960364 
L 591.533939 485.740941 
L 591.849399 497.530576 
L 592.163614 495.716102 
L 592.476596 508.366629 
L 592.788352 480.422423 
L 593.408227 485.845371 
L 593.716365 500.647652 
L 594.023315 492.959483 
L 594.329088 496.875842 
L 594.633691 485.815813 
L 594.937133 511.719344 
L 595.239424 504.207195 
L 595.540572 483.285609 
L 595.840586 504.358343 
L 596.139474 493.931394 
L 596.437245 489.458966 
L 596.733906 491.283134 
L 597.029467 494.711093 
L 597.323936 487.214712 
L 597.617319 487.581746 
L 597.909626 496.120851 
L 598.200864 487.582097 
L 598.491042 502.891646 
L 598.780166 482.241878 
L 599.355284 507.617204 
L 599.641294 488.887177 
L 599.92628 485.450095 
L 600.21025 498.75458 
L 600.493212 491.184447 
L 600.775172 495.688982 
L 601.056137 483.799485 
L 601.336115 513.055094 
L 601.893135 489.303404 
L 602.170191 486.852059 
L 602.446287 511.541713 
L 602.721429 499.967625 
L 602.995624 503.153523 
L 603.268878 486.045184 
L 603.541199 482.112573 
L 603.812591 485.942456 
L 604.083062 505.060448 
L 604.352617 487.665903 
L 604.621264 513.865782 
L 604.889007 480.701079 
L 605.155853 522.666377 
L 605.421809 490.730758 
L 605.686879 486.020627 
L 605.95107 491.035756 
L 606.214388 510.051216 
L 606.476838 484.491611 
L 606.738427 495.843606 
L 606.999159 492.793177 
L 607.25904 480.654491 
L 607.518076 485.774978 
L 607.776273 494.174437 
L 608.033635 510.590853 
L 608.290169 517.258399 
L 608.545879 513.93162 
L 608.80077 488.184327 
L 609.054849 486.29401 
L 609.308119 502.861338 
L 609.560587 497.087739 
L 609.812258 536.550717 
L 610.063135 482.439683 
L 610.313225 504.724119 
L 610.562532 498.952958 
L 610.811062 488.562815 
L 611.058818 489.093034 
L 611.305806 501.289722 
L 611.55203 490.633156 
L 611.797496 495.31153 
L 612.042208 487.909801 
L 612.28617 489.748339 
L 612.529387 501.00315 
L 612.771864 490.81087 
L 613.013605 491.20737 
L 613.254614 492.431136 
L 613.494897 504.78386 
L 613.973298 484.487488 
L 614.211426 498.666233 
L 614.448843 520.348262 
L 614.685555 489.526976 
L 614.921566 509.255505 
L 615.15688 490.633711 
L 615.3915 499.961203 
L 615.625431 498.718615 
L 615.858678 477.42068 
L 616.091243 494.420288 
L 616.323131 493.510253 
L 616.554347 498.866584 
L 616.784892 495.618561 
L 617.014773 498.234761 
L 617.243992 487.888809 
L 617.472553 483.768582 
L 617.700461 505.625734 
L 617.927718 511.58493 
L 618.154329 486.170418 
L 618.380296 510.995869 
L 618.605625 500.051043 
L 618.830318 513.230754 
L 619.054379 484.782956 
L 619.277811 507.381914 
L 619.500618 490.539233 
L 619.944372 515.025545 
L 620.165325 487.796723 
L 620.385667 520.969924 
L 620.605401 498.751826 
L 620.824531 504.423111 
L 621.043059 499.666936 
L 621.26099 500.232536 
L 621.478326 497.997594 
L 621.69507 489.39078 
L 621.911227 511.195244 
L 622.126798 497.416748 
L 622.341787 497.83475 
L 622.556198 503.309897 
L 622.770034 500.61574 
L 622.983296 507.115421 
L 623.195989 498.499257 
L 623.408116 513.908464 
L 623.830683 485.60067 
L 624.041128 488.057132 
L 624.251019 497.551673 
L 624.669149 483.471396 
L 624.877394 492.080443 
L 625.085096 490.90525 
L 625.498881 507.197284 
L 625.704971 505.772164 
L 625.910528 519.287515 
L 626.320059 490.462031 
L 626.524038 486.058425 
L 626.727495 485.727186 
L 626.930435 505.422462 
L 627.132858 482.357584 
L 627.334768 499.81443 
L 627.536168 491.23116 
L 627.73706 489.377041 
L 627.937446 495.992699 
L 628.336713 475.629053 
L 628.535599 506.739698 
L 628.733989 486.87379 
L 628.931886 513.965189 
L 629.129293 504.367007 
L 629.326211 486.295092 
L 629.522644 507.977086 
L 629.718594 488.314392 
L 629.914063 487.409395 
L 630.109054 495.191716 
L 630.303568 488.213109 
L 630.497608 486.915027 
L 630.691177 491.977049 
L 630.884277 488.025507 
L 631.07691 489.659324 
L 631.269078 489.886444 
L 631.460783 479.102274 
L 631.842815 502.213297 
L 632.033146 502.647307 
L 632.223024 494.360684 
L 632.41245 511.571188 
L 632.601426 483.850774 
L 632.97804 513.877806 
L 633.352881 488.64784 
L 633.539642 480.39285 
L 633.725966 483.79058 
L 634.097312 504.367569 
L 634.282338 488.378245 
L 634.466935 485.701697 
L 634.651105 487.344308 
L 634.83485 498.24835 
L 635.018173 525.541655 
L 635.201074 496.385836 
L 635.383557 491.43207 
L 635.565622 517.413948 
L 635.928509 489.713142 
L 636.109335 521.06128 
L 636.289751 491.510741 
L 636.469759 489.301139 
L 636.649361 494.627979 
L 636.828559 494.054089 
L 637.007355 483.863786 
L 637.185751 503.435373 
L 637.363748 504.692232 
L 637.541348 484.625399 
L 637.718553 501.067319 
L 637.895364 493.979549 
L 638.071784 502.343786 
L 638.247814 500.522329 
L 638.423456 533.829598 
L 638.598712 496.881371 
L 638.773582 490.666694 
L 638.94807 506.373149 
L 639.122176 490.069798 
L 639.81482 511.955943 
L 639.987044 491.609465 
L 640.158897 538.513386 
L 640.501493 493.081741 
L 640.67224 503.290627 
L 640.842622 488.573359 
L 641.012641 495.06926 
L 641.182297 489.230118 
L 641.520529 504.600791 
L 641.689108 484.135879 
L 641.857331 495.852424 
L 642.0252 498.168577 
L 642.192715 493.590341 
L 642.359879 505.374836 
L 642.526693 492.262642 
L 642.859276 489.43239 
L 643.025049 481.230201 
L 643.190477 510.175059 
L 643.355562 476.276648 
L 643.520306 514.553438 
L 643.684709 488.251667 
L 643.848774 496.78999 
L 644.012502 521.613258 
L 644.175894 496.7537 
L 644.338952 496.86738 
L 644.501676 488.692267 
L 644.664069 504.101838 
L 644.826131 503.84497 
L 644.987864 497.259149 
L 645.14927 526.627938 
L 645.310349 491.212322 
L 645.631533 521.020505 
L 645.951427 499.035384 
L 646.110894 487.912227 
L 646.270042 492.171767 
L 646.428873 491.516698 
L 646.587387 526.840176 
L 646.745587 498.073633 
L 646.903473 505.815507 
L 647.061047 505.037406 
L 647.21831 499.386165 
L 647.375263 503.867269 
L 647.531907 525.145792 
L 647.844274 499.946583 
L 647.844274 499.946583 
" style="fill:none;stroke:#b22222;stroke-linecap:round;stroke-width:1.75;"/>
   </g>
   <g id="patch_6">
    <path d="M 90 512.64 
L 90 311.04 
" style="fill:none;stroke:#262626;stroke-linecap:square;stroke-linejoin:miter;stroke-width:1.25;"/>
   </g>
   <g id="patch_7">
    <path d="M 90 512.64 
L 648 512.64 
" style="fill:none;stroke:#262626;stroke-linecap:square;stroke-linejoin:miter;stroke-width:1.25;"/>
   </g>
  </g>
 </g>
 <defs>
  <clipPath id="pa34af3efc8">
   <rect height="201.6" width="558" x="90" y="69.12"/>
  </clipPath>
  <clipPath id="p45fe458385">
   <rect height="201.6" width="558" x="90" y="311.04"/>
  </clipPath>
 </defs>
</svg>
