<?xml version="1.0" encoding="utf-8" standalone="no"?>
<!DOCTYPE svg PUBLIC "-//W3C//DTD SVG 1.1//EN"
  "http://www.w3.org/Graphics/SVG/1.1/DTD/svg11.dtd">
<!-- Created with matplotlib (http://matplotlib.org/) -->
<svg height="576pt" version="1.1" viewBox="0 0 720 576" width="720pt" xmlns="http://www.w3.org/2000/svg" xmlns:xlink="http://www.w3.org/1999/xlink">
 <defs>
  <style type="text/css">
*{stroke-linecap:butt;stroke-linejoin:round;}
  </style>
 </defs>
 <g id="figure_1">
  <g id="patch_1">
   <path d="M 0 576 
L 720 576 
L 720 0 
L 0 0 
z
" style="fill:#ffffff;"/>
  </g>
  <g id="axes_1">
   <g id="patch_2">
    <path d="M 90 270.72 
L 648 270.72 
L 648 69.12 
L 90 69.12 
z
" style="fill:#ffffff;"/>
   </g>
   <g id="matplotlib.axis_1">
    <g id="xtick_1">
     <g id="line2d_1">
      <defs>
       <path d="M 0 0 
L 0 6 
" id="m1006352c89" style="stroke:#262626;"/>
      </defs>
      <g>
       <use style="fill:#262626;stroke:#262626;" x="90" xlink:href="#m1006352c89" y="270.72"/>
      </g>
     </g>
     <g id="text_1">
      <!-- 0 -->
      <defs>
       <path d="M 4.15625 35.296875 
Q 4.15625 48 6.765625 55.734375 
Q 9.375 63.484375 14.515625 67.671875 
Q 19.671875 71.875 27.484375 71.875 
Q 33.25 71.875 37.59375 69.546875 
Q 41.9375 67.234375 44.765625 62.859375 
Q 47.609375 58.5 49.21875 52.21875 
Q 50.828125 45.953125 50.828125 35.296875 
Q 50.828125 22.703125 48.234375 14.96875 
Q 45.65625 7.234375 40.5 3 
Q 35.359375 -1.21875 27.484375 -1.21875 
Q 17.140625 -1.21875 11.234375 6.203125 
Q 4.15625 15.140625 4.15625 35.296875 
z
M 13.1875 35.296875 
Q 13.1875 17.671875 17.3125 11.828125 
Q 21.4375 6 27.484375 6 
Q 33.546875 6 37.671875 11.859375 
Q 41.796875 17.71875 41.796875 35.296875 
Q 41.796875 52.984375 37.671875 58.78125 
Q 33.546875 64.59375 27.390625 64.59375 
Q 21.34375 64.59375 17.71875 59.46875 
Q 13.1875 52.9375 13.1875 35.296875 
z
" id="ArialMT-30"/>
      </defs>
      <g style="fill:#262626;" transform="translate(87.219531 290.877812)scale(0.1 -0.1)">
       <use xlink:href="#ArialMT-30"/>
      </g>
     </g>
    </g>
    <g id="xtick_2">
     <g id="line2d_2">
      <g>
       <use style="fill:#262626;stroke:#262626;" x="198.984375" xlink:href="#m1006352c89" y="270.72"/>
      </g>
     </g>
     <g id="text_2">
      <!-- 200 -->
      <defs>
       <path d="M 50.34375 8.453125 
L 50.34375 0 
L 3.03125 0 
Q 2.9375 3.171875 4.046875 6.109375 
Q 5.859375 10.9375 9.828125 15.625 
Q 13.8125 20.3125 21.34375 26.46875 
Q 33.015625 36.03125 37.109375 41.625 
Q 41.21875 47.21875 41.21875 52.203125 
Q 41.21875 57.421875 37.46875 61 
Q 33.734375 64.59375 27.734375 64.59375 
Q 21.390625 64.59375 17.578125 60.78125 
Q 13.765625 56.984375 13.71875 50.25 
L 4.6875 51.171875 
Q 5.609375 61.28125 11.65625 66.578125 
Q 17.71875 71.875 27.9375 71.875 
Q 38.234375 71.875 44.234375 66.15625 
Q 50.25 60.453125 50.25 52 
Q 50.25 47.703125 48.484375 43.546875 
Q 46.734375 39.40625 42.65625 34.8125 
Q 38.578125 30.21875 29.109375 22.21875 
Q 21.1875 15.578125 18.9375 13.203125 
Q 16.703125 10.84375 15.234375 8.453125 
z
" id="ArialMT-32"/>
      </defs>
      <g style="fill:#262626;" transform="translate(190.642969 290.877812)scale(0.1 -0.1)">
       <use xlink:href="#ArialMT-32"/>
       <use x="55.615234" xlink:href="#ArialMT-30"/>
       <use x="111.230469" xlink:href="#ArialMT-30"/>
      </g>
     </g>
    </g>
    <g id="xtick_3">
     <g id="line2d_3">
      <g>
       <use style="fill:#262626;stroke:#262626;" x="307.96875" xlink:href="#m1006352c89" y="270.72"/>
      </g>
     </g>
     <g id="text_3">
      <!-- 400 -->
      <defs>
       <path d="M 32.328125 0 
L 32.328125 17.140625 
L 1.265625 17.140625 
L 1.265625 25.203125 
L 33.9375 71.578125 
L 41.109375 71.578125 
L 41.109375 25.203125 
L 50.78125 25.203125 
L 50.78125 17.140625 
L 41.109375 17.140625 
L 41.109375 0 
z
M 32.328125 25.203125 
L 32.328125 57.46875 
L 9.90625 25.203125 
z
" id="ArialMT-34"/>
      </defs>
      <g style="fill:#262626;" transform="translate(299.627344 290.877812)scale(0.1 -0.1)">
       <use xlink:href="#ArialMT-34"/>
       <use x="55.615234" xlink:href="#ArialMT-30"/>
       <use x="111.230469" xlink:href="#ArialMT-30"/>
      </g>
     </g>
    </g>
    <g id="xtick_4">
     <g id="line2d_4">
      <g>
       <use style="fill:#262626;stroke:#262626;" x="416.953125" xlink:href="#m1006352c89" y="270.72"/>
      </g>
     </g>
     <g id="text_4">
      <!-- 600 -->
      <defs>
       <path d="M 49.75 54.046875 
L 41.015625 53.375 
Q 39.84375 58.546875 37.703125 60.890625 
Q 34.125 64.65625 28.90625 64.65625 
Q 24.703125 64.65625 21.53125 62.3125 
Q 17.390625 59.28125 14.984375 53.46875 
Q 12.59375 47.65625 12.5 36.921875 
Q 15.671875 41.75 20.265625 44.09375 
Q 24.859375 46.4375 29.890625 46.4375 
Q 38.671875 46.4375 44.84375 39.96875 
Q 51.03125 33.5 51.03125 23.25 
Q 51.03125 16.5 48.125 10.71875 
Q 45.21875 4.9375 40.140625 1.859375 
Q 35.0625 -1.21875 28.609375 -1.21875 
Q 17.625 -1.21875 10.6875 6.859375 
Q 3.765625 14.9375 3.765625 33.5 
Q 3.765625 54.25 11.421875 63.671875 
Q 18.109375 71.875 29.4375 71.875 
Q 37.890625 71.875 43.28125 67.140625 
Q 48.6875 62.40625 49.75 54.046875 
z
M 13.875 23.1875 
Q 13.875 18.65625 15.796875 14.5 
Q 17.71875 10.359375 21.1875 8.171875 
Q 24.65625 6 28.46875 6 
Q 34.03125 6 38.03125 10.484375 
Q 42.046875 14.984375 42.046875 22.703125 
Q 42.046875 30.125 38.078125 34.390625 
Q 34.125 38.671875 28.125 38.671875 
Q 22.171875 38.671875 18.015625 34.390625 
Q 13.875 30.125 13.875 23.1875 
z
" id="ArialMT-36"/>
      </defs>
      <g style="fill:#262626;" transform="translate(408.611719 290.877812)scale(0.1 -0.1)">
       <use xlink:href="#ArialMT-36"/>
       <use x="55.615234" xlink:href="#ArialMT-30"/>
       <use x="111.230469" xlink:href="#ArialMT-30"/>
      </g>
     </g>
    </g>
    <g id="xtick_5">
     <g id="line2d_5">
      <g>
       <use style="fill:#262626;stroke:#262626;" x="525.9375" xlink:href="#m1006352c89" y="270.72"/>
      </g>
     </g>
     <g id="text_5">
      <!-- 800 -->
      <defs>
       <path d="M 17.671875 38.8125 
Q 12.203125 40.828125 9.5625 44.53125 
Q 6.9375 48.25 6.9375 53.421875 
Q 6.9375 61.234375 12.546875 66.546875 
Q 18.171875 71.875 27.484375 71.875 
Q 36.859375 71.875 42.578125 66.421875 
Q 48.296875 60.984375 48.296875 53.171875 
Q 48.296875 48.1875 45.671875 44.5 
Q 43.0625 40.828125 37.75 38.8125 
Q 44.34375 36.671875 47.78125 31.875 
Q 51.21875 27.09375 51.21875 20.453125 
Q 51.21875 11.28125 44.71875 5.03125 
Q 38.234375 -1.21875 27.640625 -1.21875 
Q 17.046875 -1.21875 10.546875 5.046875 
Q 4.046875 11.328125 4.046875 20.703125 
Q 4.046875 27.6875 7.59375 32.390625 
Q 11.140625 37.109375 17.671875 38.8125 
z
M 15.921875 53.71875 
Q 15.921875 48.640625 19.1875 45.40625 
Q 22.46875 42.1875 27.6875 42.1875 
Q 32.765625 42.1875 36.015625 45.375 
Q 39.265625 48.578125 39.265625 53.21875 
Q 39.265625 58.0625 35.90625 61.359375 
Q 32.5625 64.65625 27.59375 64.65625 
Q 22.5625 64.65625 19.234375 61.421875 
Q 15.921875 58.203125 15.921875 53.71875 
z
M 13.09375 20.65625 
Q 13.09375 16.890625 14.875 13.375 
Q 16.65625 9.859375 20.171875 7.921875 
Q 23.6875 6 27.734375 6 
Q 34.03125 6 38.125 10.046875 
Q 42.234375 14.109375 42.234375 20.359375 
Q 42.234375 26.703125 38.015625 30.859375 
Q 33.796875 35.015625 27.4375 35.015625 
Q 21.234375 35.015625 17.15625 30.90625 
Q 13.09375 26.8125 13.09375 20.65625 
z
" id="ArialMT-38"/>
      </defs>
      <g style="fill:#262626;" transform="translate(517.596094 290.877812)scale(0.1 -0.1)">
       <use xlink:href="#ArialMT-38"/>
       <use x="55.615234" xlink:href="#ArialMT-30"/>
       <use x="111.230469" xlink:href="#ArialMT-30"/>
      </g>
     </g>
    </g>
    <g id="xtick_6">
     <g id="line2d_6">
      <g>
       <use style="fill:#262626;stroke:#262626;" x="634.921875" xlink:href="#m1006352c89" y="270.72"/>
      </g>
     </g>
     <g id="text_6">
      <!-- 1000 -->
      <defs>
       <path d="M 37.25 0 
L 28.46875 0 
L 28.46875 56 
Q 25.296875 52.984375 20.140625 49.953125 
Q 14.984375 46.921875 10.890625 45.40625 
L 10.890625 53.90625 
Q 18.265625 57.375 23.78125 62.296875 
Q 29.296875 67.234375 31.59375 71.875 
L 37.25 71.875 
z
" id="ArialMT-31"/>
      </defs>
      <g style="fill:#262626;" transform="translate(623.8 290.877812)scale(0.1 -0.1)">
       <use xlink:href="#ArialMT-31"/>
       <use x="55.615234" xlink:href="#ArialMT-30"/>
       <use x="111.230469" xlink:href="#ArialMT-30"/>
       <use x="166.845703" xlink:href="#ArialMT-30"/>
      </g>
     </g>
    </g>
   </g>
   <g id="matplotlib.axis_2">
    <g id="ytick_1">
     <g id="line2d_7">
      <defs>
       <path d="M 0 0 
L -6 0 
" id="m9e2736ef0f" style="stroke:#262626;"/>
      </defs>
      <g>
       <use style="fill:#262626;stroke:#262626;" x="90" xlink:href="#m9e2736ef0f" y="270.72"/>
      </g>
     </g>
     <g id="text_7">
      <!-- −0.6 -->
      <defs>
       <path d="M 52.828125 31.203125 
L 5.5625 31.203125 
L 5.5625 39.40625 
L 52.828125 39.40625 
z
" id="ArialMT-2212"/>
       <path d="M 9.078125 0 
L 9.078125 10.015625 
L 19.09375 10.015625 
L 19.09375 0 
z
" id="ArialMT-2e"/>
      </defs>
      <g style="fill:#262626;" transform="translate(57.259375 274.298906)scale(0.1 -0.1)">
       <use xlink:href="#ArialMT-2212"/>
       <use x="58.398438" xlink:href="#ArialMT-30"/>
       <use x="114.013672" xlink:href="#ArialMT-2e"/>
       <use x="141.796875" xlink:href="#ArialMT-36"/>
      </g>
     </g>
    </g>
    <g id="ytick_2">
     <g id="line2d_8">
      <g>
       <use style="fill:#262626;stroke:#262626;" x="90" xlink:href="#m9e2736ef0f" y="237.12"/>
      </g>
     </g>
     <g id="text_8">
      <!-- −0.4 -->
      <g style="fill:#262626;" transform="translate(57.259375 240.698906)scale(0.1 -0.1)">
       <use xlink:href="#ArialMT-2212"/>
       <use x="58.398438" xlink:href="#ArialMT-30"/>
       <use x="114.013672" xlink:href="#ArialMT-2e"/>
       <use x="141.796875" xlink:href="#ArialMT-34"/>
      </g>
     </g>
    </g>
    <g id="ytick_3">
     <g id="line2d_9">
      <g>
       <use style="fill:#262626;stroke:#262626;" x="90" xlink:href="#m9e2736ef0f" y="203.52"/>
      </g>
     </g>
     <g id="text_9">
      <!-- −0.2 -->
      <g style="fill:#262626;" transform="translate(57.259375 207.098906)scale(0.1 -0.1)">
       <use xlink:href="#ArialMT-2212"/>
       <use x="58.398438" xlink:href="#ArialMT-30"/>
       <use x="114.013672" xlink:href="#ArialMT-2e"/>
       <use x="141.796875" xlink:href="#ArialMT-32"/>
      </g>
     </g>
    </g>
    <g id="ytick_4">
     <g id="line2d_10">
      <g>
       <use style="fill:#262626;stroke:#262626;" x="90" xlink:href="#m9e2736ef0f" y="169.92"/>
      </g>
     </g>
     <g id="text_10">
      <!-- 0.0 -->
      <g style="fill:#262626;" transform="translate(63.1 173.498906)scale(0.1 -0.1)">
       <use xlink:href="#ArialMT-30"/>
       <use x="55.615234" xlink:href="#ArialMT-2e"/>
       <use x="83.398438" xlink:href="#ArialMT-30"/>
      </g>
     </g>
    </g>
    <g id="ytick_5">
     <g id="line2d_11">
      <g>
       <use style="fill:#262626;stroke:#262626;" x="90" xlink:href="#m9e2736ef0f" y="136.32"/>
      </g>
     </g>
     <g id="text_11">
      <!-- 0.2 -->
      <g style="fill:#262626;" transform="translate(63.1 139.898906)scale(0.1 -0.1)">
       <use xlink:href="#ArialMT-30"/>
       <use x="55.615234" xlink:href="#ArialMT-2e"/>
       <use x="83.398438" xlink:href="#ArialMT-32"/>
      </g>
     </g>
    </g>
    <g id="ytick_6">
     <g id="line2d_12">
      <g>
       <use style="fill:#262626;stroke:#262626;" x="90" xlink:href="#m9e2736ef0f" y="102.72"/>
      </g>
     </g>
     <g id="text_12">
      <!-- 0.4 -->
      <g style="fill:#262626;" transform="translate(63.1 106.298906)scale(0.1 -0.1)">
       <use xlink:href="#ArialMT-30"/>
       <use x="55.615234" xlink:href="#ArialMT-2e"/>
       <use x="83.398438" xlink:href="#ArialMT-34"/>
      </g>
     </g>
    </g>
    <g id="ytick_7">
     <g id="line2d_13">
      <g>
       <use style="fill:#262626;stroke:#262626;" x="90" xlink:href="#m9e2736ef0f" y="69.12"/>
      </g>
     </g>
     <g id="text_13">
      <!-- 0.6 -->
      <g style="fill:#262626;" transform="translate(63.1 72.698906)scale(0.1 -0.1)">
       <use xlink:href="#ArialMT-30"/>
       <use x="55.615234" xlink:href="#ArialMT-2e"/>
       <use x="83.398438" xlink:href="#ArialMT-36"/>
      </g>
     </g>
    </g>
   </g>
   <g id="line2d_14">
    <path clip-path="url(#pf87aed82f1)" d="M 90 157.312822 
L 91.089844 155.041582 
L 91.634766 153.559893 
L 92.724609 151.457842 
L 93.814453 149.960771 
L 94.359375 149.76082 
L 94.904297 149.330156 
L 95.994141 149.089189 
L 97.628906 149.181475 
L 98.173828 148.945635 
L 98.71875 149.442949 
L 100.353516 150.099199 
L 101.988281 149.437822 
L 102.533203 149.565996 
L 104.167969 148.227861 
L 105.257812 148.597002 
L 105.802734 148.412432 
L 106.892578 148.38167 
L 107.4375 148.555986 
L 107.982422 148.586748 
L 109.072266 149.6429 
L 109.617188 149.858232 
L 110.162109 150.211992 
L 111.251953 151.89876 
L 111.796875 152.344805 
L 112.341797 153.21126 
L 115.066406 154.528887 
L 116.15625 154.359697 
L 116.701172 153.93416 
L 118.335938 153.539385 
L 118.880859 153.324053 
L 119.425781 152.862627 
L 119.970703 152.919023 
L 120.515625 153.113848 
L 122.150391 154.344316 
L 122.695312 154.749346 
L 124.330078 156.543779 
L 127.054688 160.640215 
L 128.144531 161.947588 
L 128.689453 162.875566 
L 129.234375 163.347246 
L 130.324219 164.562334 
L 131.414062 165.085283 
L 131.958984 164.987871 
L 132.503906 164.685381 
L 133.048828 163.988115 
L 133.59375 163.495928 
L 134.138672 162.383379 
L 134.683594 161.532305 
L 136.863281 156.466875 
L 138.498047 151.867998 
L 139.587891 148.02791 
L 141.767578 141.716631 
L 143.947266 137.1075 
L 144.492188 136.302568 
L 145.037109 135.733477 
L 145.582031 135.605303 
L 146.126953 135.769365 
L 146.671875 135.430986 
L 148.851562 135.795 
L 149.396484 136.533281 
L 149.941406 136.840898 
L 150.486328 137.010088 
L 151.576172 137.99959 
L 152.121094 138.291826 
L 152.666016 138.896807 
L 154.845703 140.383623 
L 155.390625 140.424639 
L 157.025391 141.511553 
L 158.115234 141.978105 
L 159.75 143.203447 
L 160.294922 143.90584 
L 160.839844 144.285234 
L 161.384766 145.156816 
L 162.474609 146.459062 
L 163.564453 148.248369 
L 164.654297 149.376299 
L 165.199219 150.012041 
L 165.744141 150.924639 
L 167.378906 152.878008 
L 167.923828 153.231768 
L 168.46875 153.847002 
L 169.558594 154.687822 
L 170.103516 155.43123 
L 170.648438 156.400225 
L 171.738281 157.707598 
L 172.283203 158.656084 
L 175.007812 162.024492 
L 175.552734 162.608965 
L 176.097656 162.896074 
L 176.642578 162.860186 
L 177.1875 163.080645 
L 177.732422 162.967852 
L 178.822266 161.696367 
L 179.367188 161.142656 
L 179.912109 160.271074 
L 180.457031 159.11751 
L 181.001953 158.245928 
L 181.546875 156.753984 
L 182.091797 155.636309 
L 183.181641 152.447344 
L 184.271484 150.135088 
L 185.361328 148.02791 
L 186.451172 146.500078 
L 187.541016 145.495195 
L 188.630859 145.069658 
L 189.175781 144.956865 
L 189.720703 145.182451 
L 190.810547 145.04915 
L 191.355469 145.249102 
L 191.900391 145.044023 
L 192.990234 145.751543 
L 193.535156 145.669512 
L 195.169922 144.618486 
L 195.714844 144.782549 
L 196.259766 144.505693 
L 197.349609 144.603105 
L 197.894531 144.485186 
L 198.439453 144.86458 
L 198.984375 145.064531 
L 199.529297 145.474687 
L 200.074219 145.607988 
L 200.619141 146.166826 
L 201.164062 146.341143 
L 201.708984 146.817949 
L 202.253906 147.545977 
L 203.888672 148.61751 
L 204.433594 148.49959 
L 204.978516 148.745684 
L 206.068359 148.750811 
L 206.613281 149.063555 
L 209.337891 149.842852 
L 209.882812 149.596758 
L 210.427734 149.478838 
L 211.517578 149.555742 
L 212.607422 150.370928 
L 213.152344 150.345293 
L 214.242188 150.688799 
L 215.876953 152.380693 
L 216.421875 152.703691 
L 216.966797 153.185625 
L 218.056641 155.113359 
L 218.601562 156.651445 
L 219.146484 157.128252 
L 220.236328 159.409746 
L 221.326172 161.311846 
L 222.416016 162.501299 
L 222.960938 162.296221 
L 224.050781 163.029375 
L 225.140625 162.424395 
L 226.230469 161.429766 
L 226.775391 160.265947 
L 227.320312 159.681475 
L 227.865234 158.76375 
L 228.410156 157.605059 
L 229.5 154.421221 
L 231.134766 149.653154 
L 233.859375 140.306719 
L 235.494141 135.55916 
L 236.583984 133.831377 
L 237.673828 132.472734 
L 238.21875 132.026689 
L 238.763672 131.836992 
L 239.308594 131.816484 
L 239.853516 132.006182 
L 240.398438 132.672686 
L 240.943359 133.128984 
L 241.488281 133.369951 
L 243.123047 135.44124 
L 243.667969 135.723223 
L 244.212891 136.543535 
L 245.302734 137.840654 
L 246.392578 139.199297 
L 247.482422 139.7325 
L 248.572266 140.834795 
L 249.662109 141.624346 
L 250.207031 141.834551 
L 251.841797 144.239092 
L 252.386719 144.956865 
L 252.931641 145.864336 
L 254.021484 147.115312 
L 254.566406 148.109941 
L 255.111328 149.39168 
L 256.201172 150.965654 
L 256.746094 151.114336 
L 257.291016 151.61165 
L 257.835938 152.288408 
L 258.380859 152.452471 
L 258.925781 152.852373 
L 260.015625 154.123857 
L 261.105469 155.800371 
L 261.650391 156.784746 
L 262.195312 157.138506 
L 263.285156 158.866289 
L 263.830078 160.26082 
L 264.919922 162.311602 
L 265.464844 162.680742 
L 266.009766 163.767656 
L 267.644531 165.756914 
L 268.189453 166.115801 
L 269.279297 165.992754 
L 269.824219 165.787676 
L 270.369141 165.833818 
L 270.914062 165.62874 
L 271.458984 165.182695 
L 273.09375 162.260332 
L 274.183594 160.445391 
L 274.728516 158.886797 
L 275.818359 157.389727 
L 276.363281 156.13875 
L 276.908203 155.215898 
L 277.453125 154.062334 
L 277.998047 153.242021 
L 278.542969 152.826738 
L 279.087891 152.657549 
L 279.632812 152.329424 
L 280.722656 152.38582 
L 281.267578 152.631914 
L 281.8125 152.447344 
L 282.357422 152.488359 
L 282.902344 152.278154 
L 283.992188 152.442217 
L 284.537109 152.314043 
L 285.082031 152.370439 
L 285.626953 151.852617 
L 286.171875 152.190996 
L 286.716797 152.114092 
L 287.261719 151.739824 
L 287.806641 151.586016 
L 288.351562 151.180986 
L 289.986328 150.960527 
L 290.53125 150.611895 
L 291.076172 150.724687 
L 291.621094 151.165605 
L 292.166016 151.960283 
L 292.710938 151.775713 
L 293.255859 152.196123 
L 293.800781 152.452471 
L 294.345703 153.457354 
L 295.435547 154.451982 
L 295.980469 154.226396 
L 296.525391 154.477617 
L 297.070312 155.190264 
L 297.615234 155.636309 
L 298.160156 155.795244 
L 300.884766 155.590166 
L 301.429688 155.702959 
L 301.974609 155.508135 
L 302.519531 155.06209 
L 303.064453 154.913408 
L 304.154297 155.400469 
L 304.699219 155.467119 
L 305.789062 156.19002 
L 306.333984 156.784746 
L 306.878906 157.107744 
L 309.058594 161.060625 
L 309.603516 161.757891 
L 311.783203 165.526201 
L 312.328125 165.813311 
L 312.873047 166.469561 
L 313.417969 166.787432 
L 313.962891 166.643877 
L 314.507812 166.895098 
L 315.052734 166.864336 
L 315.597656 167.069414 
L 316.142578 166.495195 
L 318.322266 165.187822 
L 319.957031 161.901445 
L 321.046875 159.122637 
L 321.591797 157.328203 
L 322.136719 155.938799 
L 324.316406 149.002031 
L 325.40625 146.41292 
L 326.496094 143.06502 
L 327.585938 140.342607 
L 328.130859 139.558184 
L 328.675781 138.553301 
L 329.220703 137.799639 
L 329.765625 137.384355 
L 330.310547 137.153643 
L 330.855469 136.733232 
L 331.400391 136.471758 
L 331.945312 137.010088 
L 333.035156 137.184404 
L 333.580078 137.251055 
L 334.125 137.6971 
L 334.669922 138.337969 
L 335.214844 138.589189 
L 336.849609 139.809404 
L 337.939453 140.722002 
L 339.029297 141.224443 
L 340.119141 142.434404 
L 340.664062 142.654863 
L 341.753906 144.049395 
L 342.84375 145.664385 
L 343.933594 146.83333 
L 344.478516 147.048662 
L 345.023438 147.581865 
L 345.568359 148.438066 
L 346.658203 149.514727 
L 347.748047 150.196611 
L 348.292969 150.77083 
L 348.837891 151.165605 
L 349.927734 152.457598 
L 350.472656 152.985674 
L 351.017578 153.718828 
L 351.5625 154.226396 
L 352.107422 155.18001 
L 352.652344 155.677324 
L 354.832031 159.040605 
L 355.376953 159.835283 
L 356.466797 162.168047 
L 357.556641 164.106035 
L 358.101562 164.716143 
L 359.736328 166.951494 
L 360.28125 167.253984 
L 360.826172 167.387285 
L 361.916016 166.859209 
L 362.460938 166.238848 
L 364.095703 163.075518 
L 365.730469 159.553301 
L 366.275391 157.728105 
L 366.820312 156.61043 
L 367.365234 155.097979 
L 369 152.247393 
L 370.089844 151.119463 
L 370.634766 151.093828 
L 371.179688 150.483721 
L 371.724609 150.540117 
L 372.269531 150.765703 
L 372.814453 151.150225 
L 373.359375 151.201494 
L 373.904297 151.442461 
L 375.539062 151.339922 
L 376.083984 151.00667 
L 377.71875 149.565996 
L 378.263672 148.925127 
L 378.808594 149.396807 
L 379.353516 148.21248 
L 379.898438 148.191973 
L 380.443359 148.694414 
L 380.988281 147.648516 
L 381.533203 146.961504 
L 382.078125 147.428057 
L 382.623047 147.520342 
L 383.167969 147.417803 
L 385.347656 149.160967 
L 385.892578 149.842852 
L 386.4375 150.719561 
L 386.982422 151.00667 
L 388.072266 152.349932 
L 389.707031 153.088213 
L 390.251953 153.559893 
L 391.341797 153.898271 
L 391.886719 153.498369 
L 392.431641 154.031572 
L 392.976562 153.600908 
L 393.521484 153.001055 
L 394.066406 153.057451 
L 395.15625 152.683184 
L 396.246094 152.92415 
L 397.335938 153.524004 
L 397.880859 153.488115 
L 398.425781 154.364824 
L 400.060547 156.015703 
L 400.605469 157.487139 
L 401.150391 157.830645 
L 401.695312 158.599687 
L 402.785156 160.865801 
L 403.875 162.46541 
L 404.419922 164.024004 
L 405.509766 165.613359 
L 406.054688 166.079912 
L 406.599609 166.982256 
L 407.144531 166.997637 
L 408.234375 167.725664 
L 408.779297 166.966875 
L 409.324219 166.905352 
L 409.869141 166.028643 
L 410.414062 165.439043 
L 410.958984 164.613604 
L 412.59375 160.958086 
L 413.683594 158.004961 
L 414.228516 156.477129 
L 415.863281 150.873369 
L 416.408203 149.109697 
L 416.953125 147.817705 
L 418.042969 144.264727 
L 419.132812 141.988359 
L 420.222656 140.281084 
L 420.767578 139.209551 
L 421.3125 139.26082 
L 422.402344 139.02498 
L 422.947266 139.399248 
L 424.037109 139.599199 
L 425.126953 140.03499 
L 425.671875 140.117021 
L 426.216797 140.352861 
L 426.761719 140.296465 
L 427.851562 140.845049 
L 428.941406 140.957842 
L 429.486328 141.58333 
L 430.576172 142.126787 
L 431.121094 142.9471 
L 431.666016 142.854814 
L 432.755859 143.685381 
L 433.845703 144.818437 
L 434.390625 145.156816 
L 435.480469 146.828203 
L 439.294922 152.693437 
L 440.384766 153.964922 
L 440.929688 154.339189 
L 442.564453 155.851641 
L 444.199219 157.061602 
L 444.744141 157.917803 
L 445.289062 159.148271 
L 445.833984 159.84041 
L 446.378906 160.983721 
L 447.46875 162.711504 
L 449.103516 166.10042 
L 450.738281 169.022783 
L 451.828125 169.991777 
L 452.373047 170.396807 
L 454.007812 169.981523 
L 454.552734 169.468828 
L 456.732422 166.008135 
L 457.822266 162.793535 
L 458.912109 161.050371 
L 459.457031 159.399492 
L 460.001953 158.722734 
L 460.546875 157.610186 
L 461.091797 156.959062 
L 461.636719 156.907793 
L 462.726562 156.277178 
L 463.816406 155.979814 
L 464.361328 156.220781 
L 465.451172 156.184893 
L 466.541016 155.856768 
L 467.085938 155.733721 
L 467.630859 155.764482 
L 468.175781 155.615801 
L 468.720703 155.12874 
L 469.265625 154.795488 
L 469.810547 154.123857 
L 470.355469 153.898271 
L 470.900391 153.86751 
L 471.445312 153.39583 
L 471.990234 153.590654 
L 472.535156 153.27791 
L 473.080078 153.098467 
L 473.625 153.231768 
L 474.169922 153.5804 
L 475.259766 153.98543 
L 475.804688 154.293047 
L 476.349609 154.282793 
L 479.619141 156.764238 
L 480.164062 156.907793 
L 480.708984 157.492266 
L 481.253906 157.712725 
L 482.34375 157.292314 
L 482.888672 156.851396 
L 483.978516 156.851396 
L 484.523438 156.661699 
L 485.068359 156.702715 
L 485.613281 156.866777 
L 486.703125 156.25667 
L 488.337891 157.03084 
L 488.882812 157.112871 
L 489.972656 157.651201 
L 490.517578 158.420244 
L 491.0625 159.430254 
L 491.607422 159.89168 
L 492.697266 161.286211 
L 493.242188 162.09627 
L 493.787109 163.362627 
L 494.876953 164.844316 
L 495.421875 165.3929 
L 497.601562 169.135576 
L 498.691406 170.278887 
L 499.236328 170.796709 
L 499.78125 171.519609 
L 500.326172 171.868242 
L 501.416016 171.2325 
L 501.960938 170.417314 
L 502.505859 170.119951 
L 504.140625 167.607744 
L 505.775391 162.711504 
L 506.865234 158.943193 
L 507.955078 156.0721 
L 509.589844 150.65291 
L 511.769531 145.156816 
L 512.859375 143.423906 
L 513.404297 143.054766 
L 513.949219 142.536943 
L 515.039062 142.111406 
L 516.128906 142.295977 
L 516.673828 141.849932 
L 517.21875 142.029375 
L 517.763672 141.972979 
L 518.308594 141.788408 
L 518.853516 142.285723 
L 521.033203 143.536699 
L 521.578125 143.982744 
L 522.667969 145.192705 
L 523.212891 145.505449 
L 523.757812 146.320635 
L 524.302734 146.628252 
L 524.847656 147.233232 
L 525.392578 148.074053 
L 525.9375 148.504717 
L 527.572266 150.970781 
L 528.117188 151.703936 
L 529.207031 152.683184 
L 531.386719 155.41585 
L 533.566406 156.666826 
L 534.65625 157.507646 
L 535.746094 159.173906 
L 536.291016 159.932695 
L 536.835938 160.353105 
L 537.380859 161.101641 
L 537.925781 162.193682 
L 538.470703 162.849932 
L 542.830078 171.41707 
L 543.375 171.714434 
L 543.919922 172.165605 
L 544.464844 172.355303 
L 545.554688 172.447588 
L 546.099609 172.155352 
L 546.644531 171.647783 
L 547.189453 170.81209 
L 547.734375 170.309648 
L 548.824219 168.340898 
L 549.914062 165.674883 
L 550.458984 164.659746 
L 551.003906 163.906084 
L 552.09375 161.737383 
L 553.728516 159.876299 
L 555.908203 158.179277 
L 556.453125 158.445879 
L 556.998047 158.261309 
L 557.542969 157.769121 
L 558.087891 158.004961 
L 558.632812 157.846025 
L 559.177734 157.558916 
L 560.8125 157.092363 
L 561.357422 156.769365 
L 561.902344 157.046221 
L 563.537109 156.507891 
L 564.626953 156.487383 
L 565.171875 156.328447 
L 566.261719 156.379717 
L 567.896484 156.923174 
L 568.441406 157.056475 
L 568.986328 157.548662 
L 570.076172 158.179277 
L 571.166016 158.574053 
L 571.710938 158.399736 
L 572.255859 158.57918 
L 572.800781 158.927812 
L 573.890625 159.189287 
L 574.435547 159.132891 
L 574.980469 159.507158 
L 576.070312 159.794268 
L 576.615234 159.466143 
L 578.25 159.214922 
L 579.339844 159.399492 
L 579.884766 159.835283 
L 580.429688 159.932695 
L 580.974609 160.153154 
L 583.699219 162.624346 
L 584.244141 163.972734 
L 584.789062 164.598223 
L 585.878906 166.16707 
L 586.423828 167.433428 
L 586.96875 168.202471 
L 589.693359 173.303789 
L 590.238281 174.154863 
L 590.783203 174.606035 
L 591.328125 175.492998 
L 591.873047 175.990312 
L 592.417969 175.94417 
L 592.962891 176.149248 
L 593.507812 175.995439 
L 594.052734 175.436602 
L 595.6875 173.021807 
L 596.777344 170.407061 
L 597.322266 169.289385 
L 602.771484 153.4471 
L 604.40625 150.452959 
L 604.951172 149.689043 
L 605.496094 149.304521 
L 606.041016 148.648271 
L 606.585938 148.540605 
L 607.130859 147.997148 
L 608.220703 147.915117 
L 608.765625 147.679277 
L 609.855469 147.699785 
L 610.400391 147.622881 
L 611.490234 147.986895 
L 612.580078 147.720293 
L 613.669922 148.709795 
L 614.214844 149.304521 
L 614.759766 149.499346 
L 616.394531 151.498857 
L 616.939453 152.560137 
L 619.119141 155.508135 
L 619.664062 156.687334 
L 620.208984 157.405107 
L 620.753906 158.368975 
L 621.298828 158.856035 
L 622.388672 160.168535 
L 622.933594 160.54793 
L 624.568359 162.660234 
L 625.658203 163.147295 
L 626.203125 163.762529 
L 626.748047 163.89583 
L 627.292969 164.454668 
L 627.837891 164.757158 
L 628.382812 165.433916 
L 628.927734 166.40291 
L 629.472656 167.705156 
L 630.017578 168.689531 
L 631.652344 172.616777 
L 632.742188 175.467363 
L 633.287109 176.66707 
L 633.832031 177.595049 
L 634.376953 178.840898 
L 634.921875 179.768877 
L 635.466797 180.47127 
L 636.556641 181.358232 
L 637.101562 181.445391 
L 637.646484 181.204424 
L 638.191406 181.31209 
L 639.28125 180.553301 
L 639.826172 179.912432 
L 640.371094 178.707598 
L 641.460938 176.918291 
L 642.550781 174.959795 
L 643.095703 174.180498 
L 643.640625 173.1346 
L 644.185547 172.334795 
L 644.730469 171.786211 
L 645.275391 171.627275 
L 645.820312 171.319658 
L 646.910156 171.04793 
L 647.455078 170.6429 
L 647.455078 170.6429 
" style="fill:none;stroke:#4c72b0;stroke-linecap:round;stroke-width:1.75;"/>
   </g>
   <g id="patch_3">
    <path d="M 90 270.72 
L 90 69.12 
" style="fill:none;stroke:#262626;stroke-linecap:square;stroke-linejoin:miter;stroke-width:1.25;"/>
   </g>
   <g id="patch_4">
    <path d="M 90 270.72 
L 648 270.72 
" style="fill:none;stroke:#262626;stroke-linecap:square;stroke-linejoin:miter;stroke-width:1.25;"/>
   </g>
  </g>
  <g id="axes_2">
   <g id="patch_5">
    <path d="M 90 512.64 
L 648 512.64 
L 648 311.04 
L 90 311.04 
z
" style="fill:#ffffff;"/>
   </g>
   <g id="matplotlib.axis_3">
    <g id="xtick_7">
     <g id="line2d_15">
      <g>
       <use style="fill:#262626;stroke:#262626;" x="218.197478" xlink:href="#m1006352c89" y="512.64"/>
      </g>
     </g>
     <g id="text_14">
      <!-- $\mathdefault{10^{2}}$ -->
      <g style="fill:#262626;" transform="translate(210.347478 535.9525)scale(0.1 -0.1)">
       <use transform="translate(0 0.99375)" xlink:href="#ArialMT-31"/>
       <use transform="translate(55.615234 0.99375)" xlink:href="#ArialMT-30"/>
       <use transform="translate(112.972813 70.6875)scale(0.7)" xlink:href="#ArialMT-32"/>
      </g>
     </g>
    </g>
    <g id="xtick_8">
     <g id="line2d_16">
      <g>
       <use style="fill:#262626;stroke:#262626;" x="401.606604" xlink:href="#m1006352c89" y="512.64"/>
      </g>
     </g>
     <g id="text_15">
      <!-- $\mathdefault{10^{3}}$ -->
      <defs>
       <path d="M 4.203125 18.890625 
L 12.984375 20.0625 
Q 14.5 12.59375 18.140625 9.296875 
Q 21.78125 6 27 6 
Q 33.203125 6 37.46875 10.296875 
Q 41.75 14.59375 41.75 20.953125 
Q 41.75 27 37.796875 30.921875 
Q 33.84375 34.859375 27.734375 34.859375 
Q 25.25 34.859375 21.53125 33.890625 
L 22.515625 41.609375 
Q 23.390625 41.5 23.921875 41.5 
Q 29.546875 41.5 34.03125 44.421875 
Q 38.53125 47.359375 38.53125 53.46875 
Q 38.53125 58.296875 35.25 61.46875 
Q 31.984375 64.65625 26.8125 64.65625 
Q 21.6875 64.65625 18.265625 61.421875 
Q 14.84375 58.203125 13.875 51.765625 
L 5.078125 53.328125 
Q 6.6875 62.15625 12.390625 67.015625 
Q 18.109375 71.875 26.609375 71.875 
Q 32.46875 71.875 37.390625 69.359375 
Q 42.328125 66.84375 44.9375 62.5 
Q 47.5625 58.15625 47.5625 53.265625 
Q 47.5625 48.640625 45.0625 44.828125 
Q 42.578125 41.015625 37.703125 38.765625 
Q 44.046875 37.3125 47.5625 32.6875 
Q 51.078125 28.078125 51.078125 21.140625 
Q 51.078125 11.765625 44.234375 5.25 
Q 37.40625 -1.265625 26.953125 -1.265625 
Q 17.53125 -1.265625 11.296875 4.34375 
Q 5.078125 9.96875 4.203125 18.890625 
z
" id="ArialMT-33"/>
      </defs>
      <g style="fill:#262626;" transform="translate(393.756604 535.9525)scale(0.1 -0.1)">
       <use transform="translate(0 0.99375)" xlink:href="#ArialMT-31"/>
       <use transform="translate(55.615234 0.99375)" xlink:href="#ArialMT-30"/>
       <use transform="translate(112.972813 70.6875)scale(0.7)" xlink:href="#ArialMT-33"/>
      </g>
     </g>
    </g>
    <g id="xtick_9">
     <g id="line2d_17">
      <g>
       <use style="fill:#262626;stroke:#262626;" x="585.01573" xlink:href="#m1006352c89" y="512.64"/>
      </g>
     </g>
     <g id="text_16">
      <!-- $\mathdefault{10^{4}}$ -->
      <g style="fill:#262626;" transform="translate(577.16573 535.8525)scale(0.1 -0.1)">
       <use transform="translate(0 0.201563)" xlink:href="#ArialMT-31"/>
       <use transform="translate(55.615234 0.201563)" xlink:href="#ArialMT-30"/>
       <use transform="translate(112.972813 69.895313)scale(0.7)" xlink:href="#ArialMT-34"/>
      </g>
     </g>
    </g>
    <g id="xtick_10">
     <g id="line2d_18">
      <defs>
       <path d="M 0 0 
L 0 3 
" id="m66d0e73cfa" style="stroke:#262626;stroke-width:0.5;"/>
      </defs>
      <g>
       <use style="fill:#262626;stroke:#262626;stroke-width:0.5;" x="90" xlink:href="#m66d0e73cfa" y="512.64"/>
      </g>
     </g>
    </g>
    <g id="xtick_11">
     <g id="line2d_19">
      <g>
       <use style="fill:#262626;stroke:#262626;stroke-width:0.5;" x="122.296744" xlink:href="#m66d0e73cfa" y="512.64"/>
      </g>
     </g>
    </g>
    <g id="xtick_12">
     <g id="line2d_20">
      <g>
       <use style="fill:#262626;stroke:#262626;stroke-width:0.5;" x="145.211648" xlink:href="#m66d0e73cfa" y="512.64"/>
      </g>
     </g>
    </g>
    <g id="xtick_13">
     <g id="line2d_21">
      <g>
       <use style="fill:#262626;stroke:#262626;stroke-width:0.5;" x="162.985829" xlink:href="#m66d0e73cfa" y="512.64"/>
      </g>
     </g>
    </g>
    <g id="xtick_14">
     <g id="line2d_22">
      <g>
       <use style="fill:#262626;stroke:#262626;stroke-width:0.5;" x="177.508392" xlink:href="#m66d0e73cfa" y="512.64"/>
      </g>
     </g>
    </g>
    <g id="xtick_15">
     <g id="line2d_23">
      <g>
       <use style="fill:#262626;stroke:#262626;stroke-width:0.5;" x="189.787045" xlink:href="#m66d0e73cfa" y="512.64"/>
      </g>
     </g>
    </g>
    <g id="xtick_16">
     <g id="line2d_24">
      <g>
       <use style="fill:#262626;stroke:#262626;stroke-width:0.5;" x="200.423297" xlink:href="#m66d0e73cfa" y="512.64"/>
      </g>
     </g>
    </g>
    <g id="xtick_17">
     <g id="line2d_25">
      <g>
       <use style="fill:#262626;stroke:#262626;stroke-width:0.5;" x="209.805136" xlink:href="#m66d0e73cfa" y="512.64"/>
      </g>
     </g>
    </g>
    <g id="xtick_18">
     <g id="line2d_26">
      <g>
       <use style="fill:#262626;stroke:#262626;stroke-width:0.5;" x="273.409126" xlink:href="#m66d0e73cfa" y="512.64"/>
      </g>
     </g>
    </g>
    <g id="xtick_19">
     <g id="line2d_27">
      <g>
       <use style="fill:#262626;stroke:#262626;stroke-width:0.5;" x="305.70587" xlink:href="#m66d0e73cfa" y="512.64"/>
      </g>
     </g>
    </g>
    <g id="xtick_20">
     <g id="line2d_28">
      <g>
       <use style="fill:#262626;stroke:#262626;stroke-width:0.5;" x="328.620775" xlink:href="#m66d0e73cfa" y="512.64"/>
      </g>
     </g>
    </g>
    <g id="xtick_21">
     <g id="line2d_29">
      <g>
       <use style="fill:#262626;stroke:#262626;stroke-width:0.5;" x="346.394955" xlink:href="#m66d0e73cfa" y="512.64"/>
      </g>
     </g>
    </g>
    <g id="xtick_22">
     <g id="line2d_30">
      <g>
       <use style="fill:#262626;stroke:#262626;stroke-width:0.5;" x="360.917518" xlink:href="#m66d0e73cfa" y="512.64"/>
      </g>
     </g>
    </g>
    <g id="xtick_23">
     <g id="line2d_31">
      <g>
       <use style="fill:#262626;stroke:#262626;stroke-width:0.5;" x="373.196171" xlink:href="#m66d0e73cfa" y="512.64"/>
      </g>
     </g>
    </g>
    <g id="xtick_24">
     <g id="line2d_32">
      <g>
       <use style="fill:#262626;stroke:#262626;stroke-width:0.5;" x="383.832423" xlink:href="#m66d0e73cfa" y="512.64"/>
      </g>
     </g>
    </g>
    <g id="xtick_25">
     <g id="line2d_33">
      <g>
       <use style="fill:#262626;stroke:#262626;stroke-width:0.5;" x="393.214262" xlink:href="#m66d0e73cfa" y="512.64"/>
      </g>
     </g>
    </g>
    <g id="xtick_26">
     <g id="line2d_34">
      <g>
       <use style="fill:#262626;stroke:#262626;stroke-width:0.5;" x="456.818252" xlink:href="#m66d0e73cfa" y="512.64"/>
      </g>
     </g>
    </g>
    <g id="xtick_27">
     <g id="line2d_35">
      <g>
       <use style="fill:#262626;stroke:#262626;stroke-width:0.5;" x="489.114996" xlink:href="#m66d0e73cfa" y="512.64"/>
      </g>
     </g>
    </g>
    <g id="xtick_28">
     <g id="line2d_36">
      <g>
       <use style="fill:#262626;stroke:#262626;stroke-width:0.5;" x="512.029901" xlink:href="#m66d0e73cfa" y="512.64"/>
      </g>
     </g>
    </g>
    <g id="xtick_29">
     <g id="line2d_37">
      <g>
       <use style="fill:#262626;stroke:#262626;stroke-width:0.5;" x="529.804081" xlink:href="#m66d0e73cfa" y="512.64"/>
      </g>
     </g>
    </g>
    <g id="xtick_30">
     <g id="line2d_38">
      <g>
       <use style="fill:#262626;stroke:#262626;stroke-width:0.5;" x="544.326645" xlink:href="#m66d0e73cfa" y="512.64"/>
      </g>
     </g>
    </g>
    <g id="xtick_31">
     <g id="line2d_39">
      <g>
       <use style="fill:#262626;stroke:#262626;stroke-width:0.5;" x="556.605297" xlink:href="#m66d0e73cfa" y="512.64"/>
      </g>
     </g>
    </g>
    <g id="xtick_32">
     <g id="line2d_40">
      <g>
       <use style="fill:#262626;stroke:#262626;stroke-width:0.5;" x="567.241549" xlink:href="#m66d0e73cfa" y="512.64"/>
      </g>
     </g>
    </g>
    <g id="xtick_33">
     <g id="line2d_41">
      <g>
       <use style="fill:#262626;stroke:#262626;stroke-width:0.5;" x="576.623389" xlink:href="#m66d0e73cfa" y="512.64"/>
      </g>
     </g>
    </g>
    <g id="xtick_34">
     <g id="line2d_42">
      <g>
       <use style="fill:#262626;stroke:#262626;stroke-width:0.5;" x="640.227378" xlink:href="#m66d0e73cfa" y="512.64"/>
      </g>
     </g>
    </g>
   </g>
   <g id="matplotlib.axis_4">
    <g id="ytick_8">
     <g id="line2d_43">
      <g>
       <use style="fill:#262626;stroke:#262626;" x="90" xlink:href="#m9e2736ef0f" y="512.64"/>
      </g>
     </g>
     <g id="text_17">
      <!-- $\mathdefault{10^{-5}}$ -->
      <defs>
       <path d="M 4.15625 18.75 
L 13.375 19.53125 
Q 14.40625 12.796875 18.140625 9.390625 
Q 21.875 6 27.15625 6 
Q 33.5 6 37.890625 10.78125 
Q 42.28125 15.578125 42.28125 23.484375 
Q 42.28125 31 38.0625 35.34375 
Q 33.84375 39.703125 27 39.703125 
Q 22.75 39.703125 19.328125 37.765625 
Q 15.921875 35.84375 13.96875 32.765625 
L 5.71875 33.84375 
L 12.640625 70.609375 
L 48.25 70.609375 
L 48.25 62.203125 
L 19.671875 62.203125 
L 15.828125 42.96875 
Q 22.265625 47.46875 29.34375 47.46875 
Q 38.71875 47.46875 45.15625 40.96875 
Q 51.609375 34.46875 51.609375 24.265625 
Q 51.609375 14.546875 45.953125 7.46875 
Q 39.0625 -1.21875 27.15625 -1.21875 
Q 17.390625 -1.21875 11.203125 4.25 
Q 5.03125 9.71875 4.15625 18.75 
z
" id="ArialMT-35"/>
      </defs>
      <g style="fill:#262626;" transform="translate(57.2 517.74625)scale(0.1 -0.1)">
       <use transform="translate(0 0.879688)" xlink:href="#ArialMT-31"/>
       <use transform="translate(55.615234 0.879688)" xlink:href="#ArialMT-30"/>
       <use transform="translate(112.972813 70.573438)scale(0.7)" xlink:href="#ArialMT-2212"/>
       <use transform="translate(153.851719 70.573438)scale(0.7)" xlink:href="#ArialMT-35"/>
      </g>
     </g>
    </g>
    <g id="ytick_9">
     <g id="line2d_44">
      <g>
       <use style="fill:#262626;stroke:#262626;" x="90" xlink:href="#m9e2736ef0f" y="465.767507"/>
      </g>
     </g>
     <g id="text_18">
      <!-- $\mathdefault{10^{-4}}$ -->
      <g style="fill:#262626;" transform="translate(57.2 470.873757)scale(0.1 -0.1)">
       <use transform="translate(0 0.201563)" xlink:href="#ArialMT-31"/>
       <use transform="translate(55.615234 0.201563)" xlink:href="#ArialMT-30"/>
       <use transform="translate(112.972813 69.895313)scale(0.7)" xlink:href="#ArialMT-2212"/>
       <use transform="translate(153.851719 69.895313)scale(0.7)" xlink:href="#ArialMT-34"/>
      </g>
     </g>
    </g>
    <g id="ytick_10">
     <g id="line2d_45">
      <g>
       <use style="fill:#262626;stroke:#262626;" x="90" xlink:href="#m9e2736ef0f" y="418.895013"/>
      </g>
     </g>
     <g id="text_19">
      <!-- $\mathdefault{10^{-3}}$ -->
      <g style="fill:#262626;" transform="translate(57.2 424.051263)scale(0.1 -0.1)">
       <use transform="translate(0 0.99375)" xlink:href="#ArialMT-31"/>
       <use transform="translate(55.615234 0.99375)" xlink:href="#ArialMT-30"/>
       <use transform="translate(112.972813 70.6875)scale(0.7)" xlink:href="#ArialMT-2212"/>
       <use transform="translate(153.851719 70.6875)scale(0.7)" xlink:href="#ArialMT-33"/>
      </g>
     </g>
    </g>
    <g id="ytick_11">
     <g id="line2d_46">
      <g>
       <use style="fill:#262626;stroke:#262626;" x="90" xlink:href="#m9e2736ef0f" y="372.02252"/>
      </g>
     </g>
     <g id="text_20">
      <!-- $\mathdefault{10^{-2}}$ -->
      <g style="fill:#262626;" transform="translate(57.2 377.17877)scale(0.1 -0.1)">
       <use transform="translate(0 0.99375)" xlink:href="#ArialMT-31"/>
       <use transform="translate(55.615234 0.99375)" xlink:href="#ArialMT-30"/>
       <use transform="translate(112.972813 70.6875)scale(0.7)" xlink:href="#ArialMT-2212"/>
       <use transform="translate(153.851719 70.6875)scale(0.7)" xlink:href="#ArialMT-32"/>
      </g>
     </g>
    </g>
    <g id="ytick_12">
     <g id="line2d_47">
      <g>
       <use style="fill:#262626;stroke:#262626;" x="90" xlink:href="#m9e2736ef0f" y="325.150026"/>
      </g>
     </g>
     <g id="text_21">
      <!-- $\mathdefault{10^{-1}}$ -->
      <g style="fill:#262626;" transform="translate(57.2 330.306276)scale(0.1 -0.1)">
       <use transform="translate(0 0.99375)" xlink:href="#ArialMT-31"/>
       <use transform="translate(55.615234 0.99375)" xlink:href="#ArialMT-30"/>
       <use transform="translate(112.972813 70.6875)scale(0.7)" xlink:href="#ArialMT-2212"/>
       <use transform="translate(153.851719 70.6875)scale(0.7)" xlink:href="#ArialMT-31"/>
      </g>
     </g>
    </g>
    <g id="ytick_13">
     <g id="line2d_48">
      <defs>
       <path d="M 0 0 
L -3 0 
" id="m4d0a7f1dff" style="stroke:#262626;stroke-width:0.5;"/>
      </defs>
      <g>
       <use style="fill:#262626;stroke:#262626;stroke-width:0.5;" x="90" xlink:href="#m4d0a7f1dff" y="498.529974"/>
      </g>
     </g>
    </g>
    <g id="ytick_14">
     <g id="line2d_49">
      <g>
       <use style="fill:#262626;stroke:#262626;stroke-width:0.5;" x="90" xlink:href="#m4d0a7f1dff" y="490.276137"/>
      </g>
     </g>
    </g>
    <g id="ytick_15">
     <g id="line2d_50">
      <g>
       <use style="fill:#262626;stroke:#262626;stroke-width:0.5;" x="90" xlink:href="#m4d0a7f1dff" y="484.419947"/>
      </g>
     </g>
    </g>
    <g id="ytick_16">
     <g id="line2d_51">
      <g>
       <use style="fill:#262626;stroke:#262626;stroke-width:0.5;" x="90" xlink:href="#m4d0a7f1dff" y="479.877533"/>
      </g>
     </g>
    </g>
    <g id="ytick_17">
     <g id="line2d_52">
      <g>
       <use style="fill:#262626;stroke:#262626;stroke-width:0.5;" x="90" xlink:href="#m4d0a7f1dff" y="476.166111"/>
      </g>
     </g>
    </g>
    <g id="ytick_18">
     <g id="line2d_53">
      <g>
       <use style="fill:#262626;stroke:#262626;stroke-width:0.5;" x="90" xlink:href="#m4d0a7f1dff" y="473.028148"/>
      </g>
     </g>
    </g>
    <g id="ytick_19">
     <g id="line2d_54">
      <g>
       <use style="fill:#262626;stroke:#262626;stroke-width:0.5;" x="90" xlink:href="#m4d0a7f1dff" y="470.309921"/>
      </g>
     </g>
    </g>
    <g id="ytick_20">
     <g id="line2d_55">
      <g>
       <use style="fill:#262626;stroke:#262626;stroke-width:0.5;" x="90" xlink:href="#m4d0a7f1dff" y="467.912274"/>
      </g>
     </g>
    </g>
    <g id="ytick_21">
     <g id="line2d_56">
      <g>
       <use style="fill:#262626;stroke:#262626;stroke-width:0.5;" x="90" xlink:href="#m4d0a7f1dff" y="451.65748"/>
      </g>
     </g>
    </g>
    <g id="ytick_22">
     <g id="line2d_57">
      <g>
       <use style="fill:#262626;stroke:#262626;stroke-width:0.5;" x="90" xlink:href="#m4d0a7f1dff" y="443.403644"/>
      </g>
     </g>
    </g>
    <g id="ytick_23">
     <g id="line2d_58">
      <g>
       <use style="fill:#262626;stroke:#262626;stroke-width:0.5;" x="90" xlink:href="#m4d0a7f1dff" y="437.547454"/>
      </g>
     </g>
    </g>
    <g id="ytick_24">
     <g id="line2d_59">
      <g>
       <use style="fill:#262626;stroke:#262626;stroke-width:0.5;" x="90" xlink:href="#m4d0a7f1dff" y="433.00504"/>
      </g>
     </g>
    </g>
    <g id="ytick_25">
     <g id="line2d_60">
      <g>
       <use style="fill:#262626;stroke:#262626;stroke-width:0.5;" x="90" xlink:href="#m4d0a7f1dff" y="429.293617"/>
      </g>
     </g>
    </g>
    <g id="ytick_26">
     <g id="line2d_61">
      <g>
       <use style="fill:#262626;stroke:#262626;stroke-width:0.5;" x="90" xlink:href="#m4d0a7f1dff" y="426.155654"/>
      </g>
     </g>
    </g>
    <g id="ytick_27">
     <g id="line2d_62">
      <g>
       <use style="fill:#262626;stroke:#262626;stroke-width:0.5;" x="90" xlink:href="#m4d0a7f1dff" y="423.437427"/>
      </g>
     </g>
    </g>
    <g id="ytick_28">
     <g id="line2d_63">
      <g>
       <use style="fill:#262626;stroke:#262626;stroke-width:0.5;" x="90" xlink:href="#m4d0a7f1dff" y="421.039781"/>
      </g>
     </g>
    </g>
    <g id="ytick_29">
     <g id="line2d_64">
      <g>
       <use style="fill:#262626;stroke:#262626;stroke-width:0.5;" x="90" xlink:href="#m4d0a7f1dff" y="404.784987"/>
      </g>
     </g>
    </g>
    <g id="ytick_30">
     <g id="line2d_65">
      <g>
       <use style="fill:#262626;stroke:#262626;stroke-width:0.5;" x="90" xlink:href="#m4d0a7f1dff" y="396.53115"/>
      </g>
     </g>
    </g>
    <g id="ytick_31">
     <g id="line2d_66">
      <g>
       <use style="fill:#262626;stroke:#262626;stroke-width:0.5;" x="90" xlink:href="#m4d0a7f1dff" y="390.67496"/>
      </g>
     </g>
    </g>
    <g id="ytick_32">
     <g id="line2d_67">
      <g>
       <use style="fill:#262626;stroke:#262626;stroke-width:0.5;" x="90" xlink:href="#m4d0a7f1dff" y="386.132546"/>
      </g>
     </g>
    </g>
    <g id="ytick_33">
     <g id="line2d_68">
      <g>
       <use style="fill:#262626;stroke:#262626;stroke-width:0.5;" x="90" xlink:href="#m4d0a7f1dff" y="382.421124"/>
      </g>
     </g>
    </g>
    <g id="ytick_34">
     <g id="line2d_69">
      <g>
       <use style="fill:#262626;stroke:#262626;stroke-width:0.5;" x="90" xlink:href="#m4d0a7f1dff" y="379.283161"/>
      </g>
     </g>
    </g>
    <g id="ytick_35">
     <g id="line2d_70">
      <g>
       <use style="fill:#262626;stroke:#262626;stroke-width:0.5;" x="90" xlink:href="#m4d0a7f1dff" y="376.564934"/>
      </g>
     </g>
    </g>
    <g id="ytick_36">
     <g id="line2d_71">
      <g>
       <use style="fill:#262626;stroke:#262626;stroke-width:0.5;" x="90" xlink:href="#m4d0a7f1dff" y="374.167288"/>
      </g>
     </g>
    </g>
    <g id="ytick_37">
     <g id="line2d_72">
      <g>
       <use style="fill:#262626;stroke:#262626;stroke-width:0.5;" x="90" xlink:href="#m4d0a7f1dff" y="357.912493"/>
      </g>
     </g>
    </g>
    <g id="ytick_38">
     <g id="line2d_73">
      <g>
       <use style="fill:#262626;stroke:#262626;stroke-width:0.5;" x="90" xlink:href="#m4d0a7f1dff" y="349.658657"/>
      </g>
     </g>
    </g>
    <g id="ytick_39">
     <g id="line2d_74">
      <g>
       <use style="fill:#262626;stroke:#262626;stroke-width:0.5;" x="90" xlink:href="#m4d0a7f1dff" y="343.802467"/>
      </g>
     </g>
    </g>
    <g id="ytick_40">
     <g id="line2d_75">
      <g>
       <use style="fill:#262626;stroke:#262626;stroke-width:0.5;" x="90" xlink:href="#m4d0a7f1dff" y="339.260053"/>
      </g>
     </g>
    </g>
    <g id="ytick_41">
     <g id="line2d_76">
      <g>
       <use style="fill:#262626;stroke:#262626;stroke-width:0.5;" x="90" xlink:href="#m4d0a7f1dff" y="335.548631"/>
      </g>
     </g>
    </g>
    <g id="ytick_42">
     <g id="line2d_77">
      <g>
       <use style="fill:#262626;stroke:#262626;stroke-width:0.5;" x="90" xlink:href="#m4d0a7f1dff" y="332.410668"/>
      </g>
     </g>
    </g>
    <g id="ytick_43">
     <g id="line2d_78">
      <g>
       <use style="fill:#262626;stroke:#262626;stroke-width:0.5;" x="90" xlink:href="#m4d0a7f1dff" y="329.69244"/>
      </g>
     </g>
    </g>
    <g id="ytick_44">
     <g id="line2d_79">
      <g>
       <use style="fill:#262626;stroke:#262626;stroke-width:0.5;" x="90" xlink:href="#m4d0a7f1dff" y="327.294794"/>
      </g>
     </g>
    </g>
    <g id="ytick_45">
     <g id="line2d_80">
      <g>
       <use style="fill:#262626;stroke:#262626;stroke-width:0.5;" x="90" xlink:href="#m4d0a7f1dff" y="311.04"/>
      </g>
     </g>
    </g>
   </g>
   <g id="line2d_81">
    <path clip-path="url(#p52ae7ef5cc)" d="M -1 365.241503 
L 151.095164 365.272967 
L 206.306812 373.845658 
L 238.603556 384.689389 
L 261.518461 395.379765 
L 279.292642 395.530873 
L 293.815205 369.17416 
L 306.093857 394.24671 
L 316.730109 395.77447 
L 326.111949 403.042146 
L 334.50429 397.346414 
L 342.096086 391.975418 
L 349.026853 348.904737 
L 355.402541 408.314819 
L 361.305505 421.58634 
L 366.801034 423.364044 
L 371.941758 417.577678 
L 376.770725 413.361924 
L 381.323597 382.616423 
L 385.630245 408.461744 
L 389.715939 408.663745 
L 393.602249 423.048185 
L 397.307735 414.025898 
L 400.848476 399.592142 
L 404.238502 372.889681 
L 407.490119 401.825393 
L 413.620341 441.039844 
L 416.517154 449.627694 
L 419.312303 425.26085 
L 422.012683 398.057712 
L 424.624509 413.098846 
L 427.153406 434.551542 
L 429.604479 430.302439 
L 431.982374 418.56692 
L 434.291335 417.382783 
L 436.535246 401.249799 
L 438.717672 406.733301 
L 440.841893 444.938336 
L 442.910933 448.858167 
L 444.927587 440.12677 
L 446.894442 455.420667 
L 448.813898 427.390069 
L 450.688186 403.706038 
L 452.519383 432.018552 
L 454.309426 434.785654 
L 456.060125 435.798385 
L 457.773171 438.383844 
L 459.45015 445.22046 
L 461.09255 438.500792 
L 462.701768 432.649032 
L 464.279118 441.385647 
L 465.825838 458.625817 
L 467.343094 444.755808 
L 468.83199 446.613018 
L 470.293564 444.284707 
L 471.728802 453.600116 
L 473.138637 448.885156 
L 474.523951 448.019332 
L 475.885584 446.704272 
L 477.224331 450.597149 
L 478.540949 457.398133 
L 479.836157 447.040894 
L 481.110642 439.342808 
L 482.365055 457.000712 
L 483.600019 446.240447 
L 484.816127 456.631631 
L 486.013948 451.91091 
L 487.194022 448.643455 
L 488.356869 502.482879 
L 489.502983 446.387857 
L 490.63284 468.532747 
L 491.746894 452.807525 
L 492.845581 449.545127 
L 493.92932 455.447009 
L 494.998512 454.194343 
L 496.053541 457.004327 
L 497.094779 453.644873 
L 498.122582 449.359428 
L 499.137291 459.732656 
L 500.139235 446.219914 
L 502.10609 455.413662 
L 503.0716 461.452393 
L 504.025546 450.893244 
L 504.968203 455.775685 
L 505.899834 455.348855 
L 506.820695 456.077612 
L 507.731032 456.536293 
L 508.631082 459.156052 
L 509.521075 450.582846 
L 510.401234 460.534908 
L 511.271773 453.209059 
L 512.132901 460.698795 
L 512.984819 453.318818 
L 513.827722 458.654604 
L 514.661799 462.346643 
L 515.487232 457.359686 
L 516.304198 458.000799 
L 517.112871 477.74735 
L 517.913416 467.728536 
L 518.705996 450.603435 
L 519.490766 454.485944 
L 520.26788 455.607663 
L 521.037486 469.788642 
L 521.799727 469.88837 
L 522.554743 457.061657 
L 523.302669 456.658281 
L 524.043638 474.905978 
L 524.777778 470.43828 
L 525.505212 467.521247 
L 526.226064 466.518009 
L 526.940451 458.515307 
L 527.648487 460.229928 
L 528.350285 466.431986 
L 529.045954 470.469339 
L 529.7356 461.979923 
L 530.419326 456.026025 
L 531.097232 472.062052 
L 531.769418 470.128495 
L 532.435979 470.940369 
L 533.097009 463.103758 
L 533.752597 468.947522 
L 534.402834 468.913895 
L 535.047806 478.825571 
L 535.687597 458.285282 
L 536.32229 466.195848 
L 536.951966 457.448886 
L 537.576703 465.704215 
L 538.196578 471.684515 
L 538.811667 474.576925 
L 539.422042 464.127891 
L 540.027776 465.768812 
L 540.628938 468.533235 
L 541.225596 460.004557 
L 541.817819 469.243504 
L 542.405671 460.947974 
L 542.989216 462.618793 
L 543.568517 475.413723 
L 544.143636 471.524017 
L 544.714632 462.780156 
L 545.844488 471.861008 
L 546.403463 467.450665 
L 546.958543 462.065837 
L 547.509781 461.198346 
L 548.05723 468.846156 
L 548.600942 468.864231 
L 549.140969 477.500646 
L 549.677358 462.523556 
L 550.21016 459.253367 
L 550.739422 475.223269 
L 551.26519 467.27735 
L 551.78751 463.771949 
L 552.306428 469.95752 
L 552.821987 462.449731 
L 554.348939 470.318636 
L 554.851487 475.166867 
L 555.350884 468.609246 
L 555.847169 482.141719 
L 556.340382 465.303193 
L 556.830559 467.258777 
L 557.317739 479.092906 
L 557.801956 456.835325 
L 558.283248 477.022391 
L 559.237195 462.880558 
L 559.709918 470.496519 
L 560.179852 472.122208 
L 561.111483 461.773517 
L 561.573244 473.168503 
L 562.032344 491.97927 
L 562.488812 460.778585 
L 562.94268 470.251836 
L 563.393976 490.430817 
L 563.84273 477.293838 
L 564.28897 502.158 
L 564.732723 477.558519 
L 565.174019 468.780321 
L 565.612882 468.865805 
L 566.049341 484.921857 
L 566.483422 470.53671 
L 566.91515 473.901334 
L 567.34455 483.102074 
L 567.771648 466.932628 
L 568.196468 473.516254 
L 568.619034 469.393661 
L 569.039371 473.443341 
L 569.457501 470.240888 
L 569.873447 473.931586 
L 570.69888 466.170625 
L 571.108411 487.677825 
L 571.515847 468.009316 
L 571.921209 461.243769 
L 572.32452 468.368302 
L 572.725798 480.399508 
L 573.125065 476.477191 
L 573.52234 486.612566 
L 573.917644 468.999222 
L 574.310996 467.408819 
L 574.702415 466.404926 
L 575.091919 471.614641 
L 575.479529 468.581405 
L 575.865261 491.584424 
L 576.249135 469.740323 
L 576.631167 471.076076 
L 577.011376 495.631848 
L 577.389778 466.169624 
L 577.766391 481.821518 
L 578.141232 484.364837 
L 578.514318 471.895819 
L 578.885664 471.18607 
L 579.255287 477.461099 
L 579.623202 470.382068 
L 579.989426 477.437935 
L 580.353974 495.743874 
L 580.716861 466.929369 
L 581.078102 475.658764 
L 581.437713 474.851732 
L 581.795707 481.392455 
L 582.152099 470.79791 
L 582.506904 476.044819 
L 582.860136 468.711825 
L 583.211808 488.537934 
L 583.561934 480.109624 
L 583.910528 476.719905 
L 584.257603 486.495981 
L 584.603172 476.920391 
L 584.947248 470.778934 
L 585.289845 474.228606 
L 585.630974 475.613706 
L 585.970649 487.670525 
L 586.308881 471.947544 
L 586.645683 493.114027 
L 586.981067 473.742526 
L 587.315045 473.535243 
L 587.647628 477.332252 
L 587.978828 472.619792 
L 588.308657 473.870691 
L 588.637126 488.16101 
L 588.964246 485.408845 
L 589.290028 476.510198 
L 589.937621 478.244061 
L 590.259454 472.236118 
L 590.579992 469.622714 
L 590.899246 477.117248 
L 591.217224 475.418865 
L 591.533939 471.341696 
L 591.849399 495.611619 
L 592.476596 476.175293 
L 592.788352 483.894225 
L 593.408227 477.450481 
L 594.023315 483.42978 
L 594.329088 477.243355 
L 594.633691 484.001578 
L 594.937133 486.036916 
L 595.239424 482.631507 
L 595.540572 470.663992 
L 595.840586 475.359747 
L 596.139474 486.232686 
L 596.437245 480.99907 
L 596.733906 469.776779 
L 597.029467 475.249426 
L 597.323936 488.456993 
L 597.617319 462.889667 
L 597.909626 484.791809 
L 598.200864 476.770501 
L 598.491042 493.459769 
L 598.780166 465.373294 
L 599.068244 484.14569 
L 599.355284 473.442919 
L 599.641294 499.480228 
L 599.92628 472.44232 
L 600.21025 470.836232 
L 600.493212 478.805404 
L 601.056137 470.278875 
L 601.336115 467.362147 
L 601.615112 503.538614 
L 601.893135 471.72397 
L 602.170191 505.783164 
L 602.446287 468.903997 
L 602.721429 487.246762 
L 602.995624 486.727287 
L 603.268878 480.426578 
L 603.541199 477.830561 
L 603.812591 476.631544 
L 604.083062 478.645537 
L 604.352617 478.563063 
L 604.621264 475.357139 
L 604.889007 569.800638 
L 605.155853 476.971437 
L 605.421809 494.862333 
L 605.686879 472.973782 
L 605.95107 476.122071 
L 606.214388 473.658554 
L 606.476838 482.59835 
L 606.999159 481.058611 
L 607.25904 475.916896 
L 607.518076 475.376905 
L 607.776273 484.130933 
L 608.033635 475.359737 
L 608.290169 482.498178 
L 608.545879 473.502023 
L 608.80077 483.328692 
L 609.054849 468.407019 
L 609.308119 473.006862 
L 609.560587 475.387299 
L 609.812258 482.818121 
L 610.063135 484.983834 
L 610.313225 502.569121 
L 610.562532 477.541172 
L 610.811062 483.750055 
L 611.058818 477.390427 
L 611.55203 481.782685 
L 611.797496 492.774171 
L 612.042208 485.82934 
L 612.28617 485.193719 
L 612.529387 472.242769 
L 612.771864 481.65362 
L 613.013605 496.867379 
L 613.254614 469.488374 
L 613.494897 492.751646 
L 613.734457 484.676699 
L 613.973298 495.370307 
L 614.211426 473.100728 
L 614.448843 484.662142 
L 614.685555 483.629299 
L 614.921566 488.679459 
L 615.15688 474.739283 
L 615.3915 483.205901 
L 615.625431 472.728122 
L 615.858678 487.139672 
L 616.091243 476.872888 
L 616.323131 484.246142 
L 616.554347 481.300745 
L 616.784892 492.282833 
L 617.014773 480.149881 
L 617.243992 482.313751 
L 617.472553 479.586746 
L 617.700461 495.255619 
L 617.927718 474.02204 
L 618.154329 486.465611 
L 618.380296 485.311052 
L 618.605625 485.469136 
L 618.830318 478.129031 
L 619.054379 485.485857 
L 619.277811 472.54742 
L 619.500618 484.989502 
L 619.722804 481.823835 
L 619.944372 492.734712 
L 620.165325 474.825652 
L 620.385667 479.226001 
L 620.605401 477.129341 
L 620.824531 477.538919 
L 621.043059 502.374265 
L 621.26099 465.708602 
L 621.478326 496.79229 
L 621.69507 478.340157 
L 621.911227 487.395951 
L 622.126798 473.781459 
L 622.341787 472.019807 
L 622.770034 483.057309 
L 622.983296 496.052898 
L 623.195989 494.643762 
L 623.408116 479.644876 
L 623.61968 503.982552 
L 623.830683 480.057148 
L 624.041128 481.447794 
L 624.251019 487.864351 
L 624.460358 480.19872 
L 624.669149 480.059585 
L 624.877394 477.899532 
L 625.085096 489.649437 
L 625.292257 483.167144 
L 625.498881 483.809079 
L 625.704971 490.1478 
L 625.910528 487.270107 
L 626.115557 481.850271 
L 626.320059 481.487862 
L 626.524038 494.202089 
L 626.727495 484.643378 
L 626.930435 484.681147 
L 627.132858 481.882119 
L 627.334768 482.094037 
L 627.536168 489.583716 
L 627.73706 480.784431 
L 627.937446 491.007217 
L 628.13733 474.598734 
L 628.535599 484.98782 
L 628.931886 487.484465 
L 629.129293 493.705729 
L 629.326211 475.608223 
L 629.522644 495.975816 
L 629.914063 479.651885 
L 630.109054 496.251476 
L 630.303568 479.400598 
L 630.497608 483.89521 
L 630.691177 482.732047 
L 630.884277 489.85727 
L 631.07691 474.074093 
L 631.269078 485.593303 
L 631.460783 482.088226 
L 631.652028 473.163869 
L 631.842815 485.367947 
L 632.033146 482.716121 
L 632.223024 476.183014 
L 632.41245 490.322078 
L 632.601426 479.436821 
L 632.789956 480.675612 
L 632.97804 474.355384 
L 633.165681 474.342318 
L 633.352881 487.871794 
L 633.539642 488.977311 
L 633.911856 483.004176 
L 634.097312 502.143381 
L 634.466935 470.803557 
L 634.651105 484.532435 
L 635.018173 494.614139 
L 635.201074 477.1905 
L 635.383557 490.229962 
L 635.747272 472.377485 
L 635.928509 485.860428 
L 636.289751 476.021777 
L 636.469759 480.480409 
L 636.649361 479.180048 
L 636.828559 488.990183 
L 637.007355 486.709729 
L 637.185751 487.856276 
L 637.541348 503.173949 
L 637.718553 489.333825 
L 637.895364 490.97449 
L 638.071784 489.453049 
L 638.247814 484.916223 
L 638.423456 486.992517 
L 638.598712 486.62215 
L 638.773582 484.252859 
L 638.94807 476.471721 
L 639.122176 485.015213 
L 639.295903 479.414814 
L 639.469251 486.132927 
L 639.642223 479.33988 
L 639.81482 478.818267 
L 639.987044 481.641264 
L 640.158897 478.449846 
L 640.330379 479.574384 
L 640.501493 478.200627 
L 640.67224 483.743865 
L 640.842622 477.828577 
L 641.012641 483.807891 
L 641.182297 481.161578 
L 641.351593 475.966458 
L 641.520529 505.448001 
L 641.857331 482.24465 
L 642.0252 482.221977 
L 642.359879 475.880909 
L 642.526693 485.935816 
L 642.693158 480.036024 
L 642.859276 480.45052 
L 643.025049 489.024361 
L 643.190477 485.49418 
L 643.355562 487.557015 
L 643.520306 487.329784 
L 643.684709 495.228428 
L 643.848774 482.266203 
L 644.012502 485.645505 
L 644.175894 486.254445 
L 644.338952 495.053796 
L 644.987864 477.82321 
L 645.14927 481.571688 
L 645.310349 488.117709 
L 645.471103 485.045841 
L 645.631533 488.610651 
L 645.791641 496.726655 
L 645.951427 487.95448 
L 646.110894 503.590862 
L 646.270042 482.93091 
L 646.428873 483.778702 
L 646.587387 479.026737 
L 646.745587 479.756584 
L 646.903473 479.924542 
L 647.061047 479.120156 
L 647.21831 499.920819 
L 647.375263 502.333251 
L 647.531907 478.142802 
L 647.688244 511.012854 
L 647.844274 491.788747 
L 647.844274 491.788747 
" style="fill:none;stroke:#b22222;stroke-linecap:round;stroke-width:1.75;"/>
   </g>
   <g id="patch_6">
    <path d="M 90 512.64 
L 90 311.04 
" style="fill:none;stroke:#262626;stroke-linecap:square;stroke-linejoin:miter;stroke-width:1.25;"/>
   </g>
   <g id="patch_7">
    <path d="M 90 512.64 
L 648 512.64 
" style="fill:none;stroke:#262626;stroke-linecap:square;stroke-linejoin:miter;stroke-width:1.25;"/>
   </g>
  </g>
 </g>
 <defs>
  <clipPath id="pf87aed82f1">
   <rect height="201.6" width="558" x="90" y="69.12"/>
  </clipPath>
  <clipPath id="p52ae7ef5cc">
   <rect height="201.6" width="558" x="90" y="311.04"/>
  </clipPath>
 </defs>
</svg>
