<?xml version="1.0" encoding="utf-8" standalone="no"?>
<!DOCTYPE svg PUBLIC "-//W3C//DTD SVG 1.1//EN"
  "http://www.w3.org/Graphics/SVG/1.1/DTD/svg11.dtd">
<!-- Created with matplotlib (http://matplotlib.org/) -->
<svg height="576pt" version="1.1" viewBox="0 0 720 576" width="720pt" xmlns="http://www.w3.org/2000/svg" xmlns:xlink="http://www.w3.org/1999/xlink">
 <defs>
  <style type="text/css">
*{stroke-linecap:butt;stroke-linejoin:round;}
  </style>
 </defs>
 <g id="figure_1">
  <g id="patch_1">
   <path d="M 0 576 
L 720 576 
L 720 0 
L 0 0 
z
" style="fill:#ffffff;"/>
  </g>
  <g id="axes_1">
   <g id="patch_2">
    <path d="M 90 270.72 
L 648 270.72 
L 648 69.12 
L 90 69.12 
z
" style="fill:#ffffff;"/>
   </g>
   <g id="matplotlib.axis_1">
    <g id="xtick_1">
     <g id="line2d_1">
      <defs>
       <path d="M 0 0 
L 0 6 
" id="m815f942a84" style="stroke:#262626;"/>
      </defs>
      <g>
       <use style="fill:#262626;stroke:#262626;" x="90" xlink:href="#m815f942a84" y="270.72"/>
      </g>
     </g>
     <g id="text_1">
      <!-- 0 -->
      <defs>
       <path d="M 4.15625 35.296875 
Q 4.15625 48 6.765625 55.734375 
Q 9.375 63.484375 14.515625 67.671875 
Q 19.671875 71.875 27.484375 71.875 
Q 33.25 71.875 37.59375 69.546875 
Q 41.9375 67.234375 44.765625 62.859375 
Q 47.609375 58.5 49.21875 52.21875 
Q 50.828125 45.953125 50.828125 35.296875 
Q 50.828125 22.703125 48.234375 14.96875 
Q 45.65625 7.234375 40.5 3 
Q 35.359375 -1.21875 27.484375 -1.21875 
Q 17.140625 -1.21875 11.234375 6.203125 
Q 4.15625 15.140625 4.15625 35.296875 
z
M 13.1875 35.296875 
Q 13.1875 17.671875 17.3125 11.828125 
Q 21.4375 6 27.484375 6 
Q 33.546875 6 37.671875 11.859375 
Q 41.796875 17.71875 41.796875 35.296875 
Q 41.796875 52.984375 37.671875 58.78125 
Q 33.546875 64.59375 27.390625 64.59375 
Q 21.34375 64.59375 17.71875 59.46875 
Q 13.1875 52.9375 13.1875 35.296875 
z
" id="ArialMT-30"/>
      </defs>
      <g style="fill:#262626;" transform="translate(87.219531 290.877812)scale(0.1 -0.1)">
       <use xlink:href="#ArialMT-30"/>
      </g>
     </g>
    </g>
    <g id="xtick_2">
     <g id="line2d_2">
      <g>
       <use style="fill:#262626;stroke:#262626;" x="198.984375" xlink:href="#m815f942a84" y="270.72"/>
      </g>
     </g>
     <g id="text_2">
      <!-- 200 -->
      <defs>
       <path d="M 50.34375 8.453125 
L 50.34375 0 
L 3.03125 0 
Q 2.9375 3.171875 4.046875 6.109375 
Q 5.859375 10.9375 9.828125 15.625 
Q 13.8125 20.3125 21.34375 26.46875 
Q 33.015625 36.03125 37.109375 41.625 
Q 41.21875 47.21875 41.21875 52.203125 
Q 41.21875 57.421875 37.46875 61 
Q 33.734375 64.59375 27.734375 64.59375 
Q 21.390625 64.59375 17.578125 60.78125 
Q 13.765625 56.984375 13.71875 50.25 
L 4.6875 51.171875 
Q 5.609375 61.28125 11.65625 66.578125 
Q 17.71875 71.875 27.9375 71.875 
Q 38.234375 71.875 44.234375 66.15625 
Q 50.25 60.453125 50.25 52 
Q 50.25 47.703125 48.484375 43.546875 
Q 46.734375 39.40625 42.65625 34.8125 
Q 38.578125 30.21875 29.109375 22.21875 
Q 21.1875 15.578125 18.9375 13.203125 
Q 16.703125 10.84375 15.234375 8.453125 
z
" id="ArialMT-32"/>
      </defs>
      <g style="fill:#262626;" transform="translate(190.642969 290.877812)scale(0.1 -0.1)">
       <use xlink:href="#ArialMT-32"/>
       <use x="55.615234" xlink:href="#ArialMT-30"/>
       <use x="111.230469" xlink:href="#ArialMT-30"/>
      </g>
     </g>
    </g>
    <g id="xtick_3">
     <g id="line2d_3">
      <g>
       <use style="fill:#262626;stroke:#262626;" x="307.96875" xlink:href="#m815f942a84" y="270.72"/>
      </g>
     </g>
     <g id="text_3">
      <!-- 400 -->
      <defs>
       <path d="M 32.328125 0 
L 32.328125 17.140625 
L 1.265625 17.140625 
L 1.265625 25.203125 
L 33.9375 71.578125 
L 41.109375 71.578125 
L 41.109375 25.203125 
L 50.78125 25.203125 
L 50.78125 17.140625 
L 41.109375 17.140625 
L 41.109375 0 
z
M 32.328125 25.203125 
L 32.328125 57.46875 
L 9.90625 25.203125 
z
" id="ArialMT-34"/>
      </defs>
      <g style="fill:#262626;" transform="translate(299.627344 290.877812)scale(0.1 -0.1)">
       <use xlink:href="#ArialMT-34"/>
       <use x="55.615234" xlink:href="#ArialMT-30"/>
       <use x="111.230469" xlink:href="#ArialMT-30"/>
      </g>
     </g>
    </g>
    <g id="xtick_4">
     <g id="line2d_4">
      <g>
       <use style="fill:#262626;stroke:#262626;" x="416.953125" xlink:href="#m815f942a84" y="270.72"/>
      </g>
     </g>
     <g id="text_4">
      <!-- 600 -->
      <defs>
       <path d="M 49.75 54.046875 
L 41.015625 53.375 
Q 39.84375 58.546875 37.703125 60.890625 
Q 34.125 64.65625 28.90625 64.65625 
Q 24.703125 64.65625 21.53125 62.3125 
Q 17.390625 59.28125 14.984375 53.46875 
Q 12.59375 47.65625 12.5 36.921875 
Q 15.671875 41.75 20.265625 44.09375 
Q 24.859375 46.4375 29.890625 46.4375 
Q 38.671875 46.4375 44.84375 39.96875 
Q 51.03125 33.5 51.03125 23.25 
Q 51.03125 16.5 48.125 10.71875 
Q 45.21875 4.9375 40.140625 1.859375 
Q 35.0625 -1.21875 28.609375 -1.21875 
Q 17.625 -1.21875 10.6875 6.859375 
Q 3.765625 14.9375 3.765625 33.5 
Q 3.765625 54.25 11.421875 63.671875 
Q 18.109375 71.875 29.4375 71.875 
Q 37.890625 71.875 43.28125 67.140625 
Q 48.6875 62.40625 49.75 54.046875 
z
M 13.875 23.1875 
Q 13.875 18.65625 15.796875 14.5 
Q 17.71875 10.359375 21.1875 8.171875 
Q 24.65625 6 28.46875 6 
Q 34.03125 6 38.03125 10.484375 
Q 42.046875 14.984375 42.046875 22.703125 
Q 42.046875 30.125 38.078125 34.390625 
Q 34.125 38.671875 28.125 38.671875 
Q 22.171875 38.671875 18.015625 34.390625 
Q 13.875 30.125 13.875 23.1875 
z
" id="ArialMT-36"/>
      </defs>
      <g style="fill:#262626;" transform="translate(408.611719 290.877812)scale(0.1 -0.1)">
       <use xlink:href="#ArialMT-36"/>
       <use x="55.615234" xlink:href="#ArialMT-30"/>
       <use x="111.230469" xlink:href="#ArialMT-30"/>
      </g>
     </g>
    </g>
    <g id="xtick_5">
     <g id="line2d_5">
      <g>
       <use style="fill:#262626;stroke:#262626;" x="525.9375" xlink:href="#m815f942a84" y="270.72"/>
      </g>
     </g>
     <g id="text_5">
      <!-- 800 -->
      <defs>
       <path d="M 17.671875 38.8125 
Q 12.203125 40.828125 9.5625 44.53125 
Q 6.9375 48.25 6.9375 53.421875 
Q 6.9375 61.234375 12.546875 66.546875 
Q 18.171875 71.875 27.484375 71.875 
Q 36.859375 71.875 42.578125 66.421875 
Q 48.296875 60.984375 48.296875 53.171875 
Q 48.296875 48.1875 45.671875 44.5 
Q 43.0625 40.828125 37.75 38.8125 
Q 44.34375 36.671875 47.78125 31.875 
Q 51.21875 27.09375 51.21875 20.453125 
Q 51.21875 11.28125 44.71875 5.03125 
Q 38.234375 -1.21875 27.640625 -1.21875 
Q 17.046875 -1.21875 10.546875 5.046875 
Q 4.046875 11.328125 4.046875 20.703125 
Q 4.046875 27.6875 7.59375 32.390625 
Q 11.140625 37.109375 17.671875 38.8125 
z
M 15.921875 53.71875 
Q 15.921875 48.640625 19.1875 45.40625 
Q 22.46875 42.1875 27.6875 42.1875 
Q 32.765625 42.1875 36.015625 45.375 
Q 39.265625 48.578125 39.265625 53.21875 
Q 39.265625 58.0625 35.90625 61.359375 
Q 32.5625 64.65625 27.59375 64.65625 
Q 22.5625 64.65625 19.234375 61.421875 
Q 15.921875 58.203125 15.921875 53.71875 
z
M 13.09375 20.65625 
Q 13.09375 16.890625 14.875 13.375 
Q 16.65625 9.859375 20.171875 7.921875 
Q 23.6875 6 27.734375 6 
Q 34.03125 6 38.125 10.046875 
Q 42.234375 14.109375 42.234375 20.359375 
Q 42.234375 26.703125 38.015625 30.859375 
Q 33.796875 35.015625 27.4375 35.015625 
Q 21.234375 35.015625 17.15625 30.90625 
Q 13.09375 26.8125 13.09375 20.65625 
z
" id="ArialMT-38"/>
      </defs>
      <g style="fill:#262626;" transform="translate(517.596094 290.877812)scale(0.1 -0.1)">
       <use xlink:href="#ArialMT-38"/>
       <use x="55.615234" xlink:href="#ArialMT-30"/>
       <use x="111.230469" xlink:href="#ArialMT-30"/>
      </g>
     </g>
    </g>
    <g id="xtick_6">
     <g id="line2d_6">
      <g>
       <use style="fill:#262626;stroke:#262626;" x="634.921875" xlink:href="#m815f942a84" y="270.72"/>
      </g>
     </g>
     <g id="text_6">
      <!-- 1000 -->
      <defs>
       <path d="M 37.25 0 
L 28.46875 0 
L 28.46875 56 
Q 25.296875 52.984375 20.140625 49.953125 
Q 14.984375 46.921875 10.890625 45.40625 
L 10.890625 53.90625 
Q 18.265625 57.375 23.78125 62.296875 
Q 29.296875 67.234375 31.59375 71.875 
L 37.25 71.875 
z
" id="ArialMT-31"/>
      </defs>
      <g style="fill:#262626;" transform="translate(623.8 290.877812)scale(0.1 -0.1)">
       <use xlink:href="#ArialMT-31"/>
       <use x="55.615234" xlink:href="#ArialMT-30"/>
       <use x="111.230469" xlink:href="#ArialMT-30"/>
       <use x="166.845703" xlink:href="#ArialMT-30"/>
      </g>
     </g>
    </g>
   </g>
   <g id="matplotlib.axis_2">
    <g id="ytick_1">
     <g id="line2d_7">
      <defs>
       <path d="M 0 0 
L -6 0 
" id="mdd531e5d81" style="stroke:#262626;"/>
      </defs>
      <g>
       <use style="fill:#262626;stroke:#262626;" x="90" xlink:href="#mdd531e5d81" y="270.72"/>
      </g>
     </g>
     <g id="text_7">
      <!-- −0.6 -->
      <defs>
       <path d="M 52.828125 31.203125 
L 5.5625 31.203125 
L 5.5625 39.40625 
L 52.828125 39.40625 
z
" id="ArialMT-2212"/>
       <path d="M 9.078125 0 
L 9.078125 10.015625 
L 19.09375 10.015625 
L 19.09375 0 
z
" id="ArialMT-2e"/>
      </defs>
      <g style="fill:#262626;" transform="translate(57.259375 274.298906)scale(0.1 -0.1)">
       <use xlink:href="#ArialMT-2212"/>
       <use x="58.398438" xlink:href="#ArialMT-30"/>
       <use x="114.013672" xlink:href="#ArialMT-2e"/>
       <use x="141.796875" xlink:href="#ArialMT-36"/>
      </g>
     </g>
    </g>
    <g id="ytick_2">
     <g id="line2d_8">
      <g>
       <use style="fill:#262626;stroke:#262626;" x="90" xlink:href="#mdd531e5d81" y="237.12"/>
      </g>
     </g>
     <g id="text_8">
      <!-- −0.4 -->
      <g style="fill:#262626;" transform="translate(57.259375 240.698906)scale(0.1 -0.1)">
       <use xlink:href="#ArialMT-2212"/>
       <use x="58.398438" xlink:href="#ArialMT-30"/>
       <use x="114.013672" xlink:href="#ArialMT-2e"/>
       <use x="141.796875" xlink:href="#ArialMT-34"/>
      </g>
     </g>
    </g>
    <g id="ytick_3">
     <g id="line2d_9">
      <g>
       <use style="fill:#262626;stroke:#262626;" x="90" xlink:href="#mdd531e5d81" y="203.52"/>
      </g>
     </g>
     <g id="text_9">
      <!-- −0.2 -->
      <g style="fill:#262626;" transform="translate(57.259375 207.098906)scale(0.1 -0.1)">
       <use xlink:href="#ArialMT-2212"/>
       <use x="58.398438" xlink:href="#ArialMT-30"/>
       <use x="114.013672" xlink:href="#ArialMT-2e"/>
       <use x="141.796875" xlink:href="#ArialMT-32"/>
      </g>
     </g>
    </g>
    <g id="ytick_4">
     <g id="line2d_10">
      <g>
       <use style="fill:#262626;stroke:#262626;" x="90" xlink:href="#mdd531e5d81" y="169.92"/>
      </g>
     </g>
     <g id="text_10">
      <!-- 0.0 -->
      <g style="fill:#262626;" transform="translate(63.1 173.498906)scale(0.1 -0.1)">
       <use xlink:href="#ArialMT-30"/>
       <use x="55.615234" xlink:href="#ArialMT-2e"/>
       <use x="83.398438" xlink:href="#ArialMT-30"/>
      </g>
     </g>
    </g>
    <g id="ytick_5">
     <g id="line2d_11">
      <g>
       <use style="fill:#262626;stroke:#262626;" x="90" xlink:href="#mdd531e5d81" y="136.32"/>
      </g>
     </g>
     <g id="text_11">
      <!-- 0.2 -->
      <g style="fill:#262626;" transform="translate(63.1 139.898906)scale(0.1 -0.1)">
       <use xlink:href="#ArialMT-30"/>
       <use x="55.615234" xlink:href="#ArialMT-2e"/>
       <use x="83.398438" xlink:href="#ArialMT-32"/>
      </g>
     </g>
    </g>
    <g id="ytick_6">
     <g id="line2d_12">
      <g>
       <use style="fill:#262626;stroke:#262626;" x="90" xlink:href="#mdd531e5d81" y="102.72"/>
      </g>
     </g>
     <g id="text_12">
      <!-- 0.4 -->
      <g style="fill:#262626;" transform="translate(63.1 106.298906)scale(0.1 -0.1)">
       <use xlink:href="#ArialMT-30"/>
       <use x="55.615234" xlink:href="#ArialMT-2e"/>
       <use x="83.398438" xlink:href="#ArialMT-34"/>
      </g>
     </g>
    </g>
    <g id="ytick_7">
     <g id="line2d_13">
      <g>
       <use style="fill:#262626;stroke:#262626;" x="90" xlink:href="#mdd531e5d81" y="69.12"/>
      </g>
     </g>
     <g id="text_13">
      <!-- 0.6 -->
      <g style="fill:#262626;" transform="translate(63.1 72.698906)scale(0.1 -0.1)">
       <use xlink:href="#ArialMT-30"/>
       <use x="55.615234" xlink:href="#ArialMT-2e"/>
       <use x="83.398438" xlink:href="#ArialMT-36"/>
      </g>
     </g>
    </g>
   </g>
   <g id="line2d_14">
    <path clip-path="url(#pb882afbc30)" d="M 90 170.658281 
L 90.544922 170.335283 
L 91.089844 170.309648 
L 91.634766 169.996904 
L 92.179688 169.427812 
L 92.724609 169.02791 
L 93.269531 168.956133 
L 93.814453 168.699785 
L 94.359375 168.181963 
L 94.904297 167.864092 
L 95.994141 166.889971 
L 96.539062 166.854082 
L 97.083984 166.438799 
L 97.628906 166.413164 
L 98.173828 166.254229 
L 98.71875 166.254229 
L 99.263672 166.484941 
L 99.808594 166.433672 
L 100.353516 166.613115 
L 100.898438 167.289873 
L 101.443359 167.705156 
L 101.988281 168.356279 
L 103.078125 168.920244 
L 105.257812 170.601885 
L 106.892578 171.170977 
L 107.4375 171.699053 
L 108.527344 171.719561 
L 109.617188 172.150225 
L 110.162109 172.647539 
L 110.707031 172.796221 
L 111.251953 173.108965 
L 111.796875 172.878252 
L 112.341797 173.242266 
L 112.886719 173.31917 
L 115.066406 174.923906 
L 116.701172 176.503008 
L 117.246094 176.83626 
L 118.335938 177.989824 
L 118.880859 178.661455 
L 119.425781 178.963945 
L 119.970703 179.589434 
L 122.695312 184.460039 
L 124.330078 188.105303 
L 125.419922 190.289385 
L 125.964844 190.504717 
L 127.054688 191.478838 
L 127.599609 191.207109 
L 128.144531 190.597002 
L 128.689453 190.432939 
L 129.234375 189.992021 
L 129.779297 189.335771 
L 130.869141 187.331133 
L 131.414062 186.685137 
L 133.048828 182.711748 
L 134.138672 179.338213 
L 135.228516 175.8929 
L 135.773438 174.493242 
L 136.318359 172.401445 
L 137.408203 169.781572 
L 138.498047 168.064043 
L 139.042969 167.869219 
L 139.587891 166.833574 
L 140.132812 166.310625 
L 140.677734 166.33626 
L 141.222656 166.192705 
L 141.767578 166.238848 
L 142.3125 165.777422 
L 143.402344 165.587725 
L 145.582031 166.008135 
L 147.216797 167.079668 
L 149.941406 170.786455 
L 150.486328 171.094072 
L 152.121094 172.919268 
L 152.666016 173.795977 
L 154.845703 175.867266 
L 155.935547 177.164385 
L 157.025391 178.492266 
L 157.570312 178.840898 
L 158.115234 179.779131 
L 159.75 181.85042 
L 160.294922 182.234941 
L 162.474609 184.870195 
L 165.744141 191.976152 
L 166.289062 193.61165 
L 167.378906 195.929033 
L 168.46875 197.78499 
L 169.013672 198.933428 
L 169.558594 199.425615 
L 170.103516 199.656328 
L 171.193359 199.851152 
L 172.828125 198.830889 
L 175.552734 194.821611 
L 176.097656 194.093584 
L 177.1875 192.104326 
L 177.732422 191.478838 
L 178.277344 191.099443 
L 179.367188 189.884355 
L 179.912109 189.474199 
L 180.457031 189.376787 
L 181.001953 188.756426 
L 182.091797 188.295 
L 183.181641 187.295244 
L 183.726562 186.992754 
L 184.271484 186.423662 
L 184.816406 186.254473 
L 185.361328 185.741777 
L 186.996094 183.865312 
L 188.630859 182.209307 
L 189.720703 182.096514 
L 191.355469 182.291338 
L 191.900391 182.629717 
L 192.445312 182.798906 
L 192.990234 183.424395 
L 193.535156 183.773027 
L 194.080078 183.680742 
L 194.625 184.193437 
L 195.169922 184.495928 
L 195.714844 184.998369 
L 197.349609 185.326494 
L 197.894531 185.377764 
L 198.439453 185.628984 
L 198.984375 185.541826 
L 199.529297 185.24959 
L 200.074219 184.813799 
L 200.619141 184.926592 
L 201.164062 184.875322 
L 201.708984 184.695879 
L 202.253906 184.721514 
L 202.798828 184.936846 
L 203.34375 184.501055 
L 203.888672 184.936846 
L 204.433594 185.111162 
L 204.978516 185.008623 
L 205.523438 185.157305 
L 206.068359 185.587969 
L 206.613281 185.726396 
L 207.158203 186.100664 
L 207.703125 186.808184 
L 208.248047 186.649248 
L 208.792969 186.972246 
L 209.882812 188.023271 
L 210.972656 189.90999 
L 212.0625 191.530107 
L 212.607422 192.606768 
L 213.152344 194.006426 
L 213.697266 194.995928 
L 214.242188 196.323809 
L 216.421875 200.307451 
L 217.511719 201.23543 
L 218.601562 201.435381 
L 219.146484 201.461016 
L 220.236328 200.625322 
L 220.78125 199.763994 
L 221.326172 198.430986 
L 222.416016 196.47249 
L 224.595703 191.068682 
L 225.685547 188.064287 
L 228.410156 180.507158 
L 230.044922 177.482256 
L 232.769531 174.272783 
L 233.859375 173.293535 
L 235.494141 171.899004 
L 237.673828 170.924883 
L 238.21875 170.924883 
L 239.308594 171.622148 
L 239.853516 171.827227 
L 240.398438 172.196367 
L 240.943359 173.088457 
L 242.033203 174.390703 
L 242.578125 174.524004 
L 243.667969 175.185381 
L 244.212891 176.021074 
L 245.847656 177.061846 
L 247.482422 178.543535 
L 248.027344 179.251055 
L 249.117188 180.107256 
L 250.207031 181.650469 
L 251.296875 183.039873 
L 251.841797 183.439775 
L 252.386719 184.019121 
L 252.931641 184.352373 
L 255.65625 189.120439 
L 257.291016 192.883623 
L 258.380859 194.965166 
L 258.925781 196.575029 
L 260.560547 199.717852 
L 261.650391 200.840654 
L 262.195312 201.435381 
L 262.740234 201.778887 
L 263.285156 201.640459 
L 264.375 200.717607 
L 265.464844 198.74373 
L 266.009766 197.554277 
L 266.554688 196.744219 
L 267.644531 194.749834 
L 268.189453 193.985918 
L 268.734375 193.027178 
L 269.279297 192.411943 
L 269.824219 191.355791 
L 270.914062 190.130449 
L 271.458984 189.894609 
L 274.183594 187.479814 
L 275.273438 186.51082 
L 275.818359 186.32625 
L 277.453125 184.77791 
L 277.998047 184.480547 
L 279.632812 182.86043 
L 280.177734 182.142656 
L 280.722656 181.891436 
L 281.8125 181.645342 
L 282.357422 181.368486 
L 282.902344 181.31209 
L 283.447266 181.455645 
L 283.992188 181.414629 
L 285.626953 181.640215 
L 286.171875 182.260576 
L 287.261719 182.727129 
L 287.806641 182.634844 
L 288.351562 183.219316 
L 288.896484 183.086016 
L 289.441406 183.326982 
L 289.986328 183.393633 
L 290.53125 183.844805 
L 292.166016 183.11165 
L 292.710938 182.962969 
L 293.255859 183.086016 
L 293.800781 182.660479 
L 294.345703 182.850176 
L 294.890625 182.911699 
L 295.435547 182.711748 
L 295.980469 182.286211 
L 296.525391 182.532305 
L 297.615234 182.670732 
L 298.705078 182.557939 
L 299.25 182.757891 
L 299.794922 183.209062 
L 300.339844 183.501299 
L 300.884766 184.213945 
L 301.429688 184.198564 
L 301.974609 184.649736 
L 302.519531 185.695635 
L 303.609375 186.997881 
L 304.154297 187.956621 
L 304.699219 189.207598 
L 305.244141 190.115068 
L 305.789062 191.453203 
L 307.423828 194.452471 
L 307.96875 195.09334 
L 308.513672 196.041826 
L 309.603516 196.980059 
L 310.148438 197.313311 
L 310.693359 198.082354 
L 311.238281 198.077227 
L 312.328125 197.713213 
L 312.873047 196.836504 
L 313.417969 196.28792 
L 314.507812 193.888506 
L 315.052734 192.411943 
L 315.597656 191.401934 
L 316.6875 188.018145 
L 319.412109 179.835527 
L 321.046875 175.744219 
L 323.771484 171.150469 
L 324.861328 169.704668 
L 325.40625 168.817705 
L 325.951172 168.648516 
L 327.041016 167.494951 
L 327.585938 167.11043 
L 328.130859 167.212969 
L 328.675781 166.925859 
L 329.220703 166.859209 
L 329.765625 166.674639 
L 330.855469 166.925859 
L 333.580078 169.371416 
L 334.669922 170.371172 
L 335.214844 170.853105 
L 335.759766 171.729814 
L 336.849609 172.293779 
L 337.394531 173.155107 
L 340.119141 175.185381 
L 341.208984 175.328936 
L 341.753906 176.164629 
L 342.298828 176.251787 
L 342.84375 176.820879 
L 343.933594 177.231035 
L 344.478516 177.856523 
L 345.023438 178.835771 
L 345.568359 180.050859 
L 346.658203 181.512041 
L 348.292969 185.885332 
L 349.382812 188.428301 
L 350.472656 190.884111 
L 351.017578 192.263262 
L 351.5625 192.899004 
L 353.197266 195.488115 
L 354.287109 195.559893 
L 354.832031 195.006182 
L 355.376953 194.893389 
L 355.921875 194.498613 
L 356.466797 193.924395 
L 358.101562 191.371172 
L 358.646484 190.125322 
L 359.191406 189.310137 
L 359.736328 188.797441 
L 360.28125 188.556475 
L 360.826172 187.777178 
L 361.916016 186.890215 
L 362.460938 186.100664 
L 363.550781 185.280352 
L 364.095703 185.162432 
L 364.640625 184.398516 
L 365.185547 183.998613 
L 365.730469 183.849932 
L 366.275391 183.22957 
L 367.365234 182.722002 
L 368.455078 181.742754 
L 370.089844 179.932939 
L 370.634766 178.933184 
L 371.179688 178.292314 
L 372.269531 177.579668 
L 372.814453 177.077227 
L 373.359375 176.749102 
L 374.449219 176.661943 
L 375.539062 176.949053 
L 376.628906 177.646318 
L 377.173828 177.584795 
L 377.71875 177.656572 
L 378.263672 178.041094 
L 378.808594 178.676836 
L 379.898438 178.282061 
L 380.443359 178.666582 
L 380.988281 179.271562 
L 382.078125 179.989336 
L 382.623047 179.691973 
L 384.257812 180.163652 
L 384.802734 180.42 
L 385.892578 180.102129 
L 386.982422 179.368975 
L 387.527344 179.251055 
L 388.072266 179.435625 
L 388.617188 178.820391 
L 389.162109 178.405107 
L 389.707031 178.512773 
L 390.251953 178.743486 
L 390.796875 178.738359 
L 391.886719 179.251055 
L 393.521484 180.948076 
L 394.066406 181.43001 
L 394.611328 182.332354 
L 395.701172 183.644854 
L 396.246094 184.854814 
L 397.335938 187.818193 
L 397.880859 188.556475 
L 400.060547 192.647783 
L 400.605469 193.196367 
L 401.695312 194.631914 
L 402.240234 195.006182 
L 402.785156 195.201006 
L 403.330078 194.960039 
L 403.875 194.442217 
L 404.419922 194.339678 
L 406.054688 191.673662 
L 407.689453 187.361895 
L 408.779297 185.049639 
L 409.869141 181.901689 
L 410.414062 180.77376 
L 410.958984 178.92293 
L 414.228516 172.257891 
L 416.408203 169.238115 
L 416.953125 168.217852 
L 417.498047 167.571855 
L 418.042969 166.464434 
L 418.587891 165.86458 
L 419.677734 164.900713 
L 420.222656 164.808428 
L 420.767578 164.24959 
L 421.3125 164.157305 
L 421.857422 164.470049 
L 422.402344 164.644365 
L 422.947266 164.946855 
L 423.492188 164.885332 
L 424.037109 165.32625 
L 424.582031 166.228594 
L 428.941406 171.160723 
L 429.486328 171.965654 
L 430.03125 172.068193 
L 431.121094 173.067949 
L 431.666016 172.755205 
L 432.210938 172.96541 
L 432.755859 173.370439 
L 433.300781 173.990801 
L 434.935547 174.86751 
L 436.025391 176.087725 
L 436.570312 176.374834 
L 438.75 180.445635 
L 442.564453 190.340654 
L 443.109375 191.62752 
L 443.654297 192.432451 
L 444.199219 193.027178 
L 445.289062 194.637041 
L 445.833984 194.821611 
L 446.378906 195.139482 
L 446.923828 195.067705 
L 447.46875 195.190752 
L 448.013672 194.878008 
L 449.648438 193.063066 
L 450.738281 191.078936 
L 451.828125 190.150957 
L 452.373047 189.479326 
L 452.917969 188.279619 
L 454.552734 186.726152 
L 455.097656 186.567217 
L 455.642578 185.793047 
L 456.1875 185.495684 
L 456.732422 185.362383 
L 457.822266 184.393389 
L 458.367188 184.193437 
L 458.912109 183.870439 
L 459.457031 183.157793 
L 461.636719 181.132646 
L 462.181641 181.060869 
L 462.726562 181.445391 
L 464.361328 179.297197 
L 465.451172 179.897051 
L 465.996094 179.256182 
L 467.630859 178.507646 
L 468.175781 178.297441 
L 468.720703 177.615557 
L 469.810547 178.548662 
L 470.900391 178.605059 
L 471.445312 178.758867 
L 471.990234 179.338213 
L 473.080078 178.943437 
L 473.625 179.507402 
L 474.169922 179.440752 
L 474.714844 179.99959 
L 475.804688 179.368975 
L 476.349609 179.312578 
L 476.894531 179.481768 
L 477.439453 179.445879 
L 477.984375 179.1075 
L 478.529297 178.615312 
L 479.074219 178.681963 
L 479.619141 178.897295 
L 480.164062 178.856279 
L 480.708984 178.302568 
L 481.253906 178.282061 
L 481.798828 179.533037 
L 482.34375 179.430498 
L 482.888672 178.63582 
L 483.433594 178.851152 
L 483.978516 179.748369 
L 484.523438 180.071367 
L 485.068359 179.809893 
L 485.613281 180.138018 
L 487.248047 182.158037 
L 488.337891 185.01375 
L 488.882812 186.080156 
L 489.972656 187.531084 
L 490.517578 188.925615 
L 491.0625 190.899492 
L 491.607422 192.268389 
L 492.152344 193.093828 
L 492.697266 192.760576 
L 493.242188 193.375811 
L 493.787109 194.826738 
L 494.332031 194.867754 
L 494.876953 194.534502 
L 495.421875 194.55501 
L 495.966797 195.359941 
L 496.511719 194.92415 
L 497.056641 194.078203 
L 498.146484 192.88875 
L 499.236328 189.812578 
L 499.78125 189.094805 
L 500.326172 188.069414 
L 501.416016 184.034502 
L 503.050781 179.574053 
L 504.140625 176.24666 
L 504.685547 174.775225 
L 506.320312 171.919512 
L 506.865234 171.401689 
L 508.5 168.007646 
L 509.589844 167.054033 
L 510.679688 165.567217 
L 511.224609 165.049395 
L 511.769531 165.121172 
L 512.314453 164.957109 
L 512.859375 164.136797 
L 513.404297 163.654863 
L 513.949219 164.244463 
L 514.494141 164.382891 
L 515.583984 164.326494 
L 516.673828 165.198076 
L 517.21875 165.300615 
L 517.763672 164.982744 
L 518.308594 165.854326 
L 518.853516 167.248857 
L 519.398438 167.171953 
L 519.943359 167.392412 
L 521.033203 168.279375 
L 521.578125 168.571611 
L 522.123047 169.191973 
L 523.212891 170.068682 
L 523.757812 169.85335 
L 525.392578 169.689287 
L 525.9375 169.80208 
L 526.482422 170.504473 
L 527.027344 170.724932 
L 527.572266 170.555742 
L 528.117188 171.037676 
L 528.662109 172.842363 
L 529.207031 173.939531 
L 529.751953 174.083086 
L 530.841797 177.036211 
L 531.386719 178.953691 
L 532.476562 181.629961 
L 533.021484 183.578203 
L 535.201172 188.064287 
L 535.746094 188.8846 
L 536.291016 189.161455 
L 536.835938 189.65877 
L 537.380859 189.827959 
L 537.925781 190.304766 
L 538.470703 190.494463 
L 539.015625 189.263994 
L 539.560547 188.925615 
L 540.105469 188.771807 
L 540.650391 188.848711 
L 541.195312 188.418047 
L 541.740234 187.320879 
L 542.285156 186.659502 
L 542.830078 186.285234 
L 543.919922 185.24959 
L 544.464844 185.229082 
L 545.009766 184.906084 
L 545.554688 183.193682 
L 546.099609 182.655352 
L 547.189453 182.460527 
L 547.734375 181.711992 
L 548.279297 180.553301 
L 548.824219 180.220049 
L 549.369141 180.476396 
L 549.914062 180.179033 
L 550.458984 178.651201 
L 551.003906 177.712969 
L 551.548828 177.159258 
L 552.09375 177.015703 
L 552.638672 176.749102 
L 553.183594 176.01082 
L 553.728516 174.949541 
L 554.818359 174.334307 
L 555.363281 173.631914 
L 555.908203 173.508867 
L 556.453125 173.032061 
L 556.998047 172.109209 
L 558.087891 171.816973 
L 558.632812 172.298906 
L 559.177734 172.088701 
L 559.722656 172.068193 
L 560.267578 172.160479 
L 561.357422 173.047441 
L 562.447266 172.888506 
L 562.992188 172.955156 
L 564.082031 173.606279 
L 564.626953 173.637041 
L 565.171875 173.160234 
L 565.716797 173.688311 
L 566.261719 173.888262 
L 566.806641 173.903643 
L 567.351562 173.596025 
L 567.896484 173.483232 
L 568.986328 172.673174 
L 569.53125 172.950029 
L 570.621094 172.037432 
L 571.710938 172.07332 
L 572.255859 170.888994 
L 572.800781 171.11458 
L 573.345703 171.191484 
L 573.890625 170.709551 
L 574.435547 170.432695 
L 575.525391 172.668047 
L 576.070312 172.78084 
L 576.615234 172.49373 
L 577.160156 172.586016 
L 578.25 174.857256 
L 578.794922 175.328936 
L 579.884766 177.169512 
L 580.974609 179.327959 
L 581.519531 179.968828 
L 582.064453 179.989336 
L 584.789062 186.618486 
L 585.333984 187.720781 
L 585.878906 188.069414 
L 586.423828 188.771807 
L 587.513672 189.115312 
L 588.058594 188.269365 
L 588.603516 187.792559 
L 589.148438 187.679766 
L 589.693359 186.997881 
L 590.238281 185.910967 
L 591.328125 182.768145 
L 592.417969 181.117266 
L 593.507812 178.194902 
L 594.052734 177.461748 
L 594.597656 176.256914 
L 595.142578 173.785723 
L 595.6875 173.006426 
L 596.232422 172.488604 
L 596.777344 170.981279 
L 597.322266 168.453691 
L 597.867188 167.976885 
L 598.412109 168.105059 
L 598.957031 166.864336 
L 600.046875 162.916582 
L 600.591797 162.593584 
L 601.136719 161.69124 
L 601.681641 160.460771 
L 602.771484 159.240557 
L 603.861328 157.692217 
L 604.40625 157.456377 
L 604.951172 156.61043 
L 605.496094 156.472002 
L 606.041016 156.882158 
L 607.130859 156.415605 
L 607.675781 157.041094 
L 608.220703 158.702227 
L 608.765625 158.794512 
L 609.310547 158.686846 
L 609.855469 159.619951 
L 610.400391 161.224687 
L 610.945312 162.080889 
L 611.490234 161.988604 
L 612.035156 162.706377 
L 612.580078 163.967607 
L 613.125 163.921465 
L 613.669922 163.085771 
L 614.214844 163.567705 
L 614.759766 164.347002 
L 615.849609 164.705889 
L 616.394531 165.172441 
L 616.939453 164.644365 
L 617.484375 164.78792 
L 618.029297 165.126299 
L 619.119141 166.649004 
L 619.664062 167.115557 
L 620.208984 168.25374 
L 620.753906 169.92 
L 621.298828 170.586504 
L 621.84375 171.857988 
L 622.388672 173.73958 
L 622.933594 175.05208 
L 623.478516 175.569902 
L 624.568359 179.086992 
L 625.113281 179.876543 
L 625.658203 180.209795 
L 626.203125 181.553057 
L 627.292969 183.496172 
L 627.837891 184.075518 
L 628.382812 184.42415 
L 628.927734 185.43416 
L 629.472656 186.044268 
L 630.017578 186.116045 
L 631.107422 187.10042 
L 631.652344 186.967119 
L 632.197266 186.454424 
L 633.287109 186.423662 
L 633.832031 186.167314 
L 634.376953 185.126543 
L 634.921875 184.521562 
L 635.466797 185.193193 
L 636.011719 184.454912 
L 636.556641 183.086016 
L 637.101562 183.239824 
L 637.646484 183.762773 
L 638.191406 183.639727 
L 638.736328 182.891191 
L 639.28125 182.911699 
L 639.826172 182.527178 
L 641.460938 179.789385 
L 642.005859 179.989336 
L 642.550781 179.902178 
L 643.640625 178.3846 
L 644.185547 177.938555 
L 644.730469 177.251543 
L 645.275391 176.810625 
L 645.820312 175.887773 
L 646.365234 174.529131 
L 646.910156 173.985674 
L 647.455078 174.226641 
L 647.455078 174.226641 
" style="fill:none;stroke:#4c72b0;stroke-linecap:round;stroke-width:1.75;"/>
   </g>
   <g id="patch_3">
    <path d="M 90 270.72 
L 90 69.12 
" style="fill:none;stroke:#262626;stroke-linecap:square;stroke-linejoin:miter;stroke-width:1.25;"/>
   </g>
   <g id="patch_4">
    <path d="M 90 270.72 
L 648 270.72 
" style="fill:none;stroke:#262626;stroke-linecap:square;stroke-linejoin:miter;stroke-width:1.25;"/>
   </g>
  </g>
  <g id="axes_2">
   <g id="patch_5">
    <path d="M 90 512.64 
L 648 512.64 
L 648 311.04 
L 90 311.04 
z
" style="fill:#ffffff;"/>
   </g>
   <g id="matplotlib.axis_3">
    <g id="xtick_7">
     <g id="line2d_15">
      <g>
       <use style="fill:#262626;stroke:#262626;" x="218.197478" xlink:href="#m815f942a84" y="512.64"/>
      </g>
     </g>
     <g id="text_14">
      <!-- $\mathdefault{10^{2}}$ -->
      <g style="fill:#262626;" transform="translate(210.347478 535.9525)scale(0.1 -0.1)">
       <use transform="translate(0 0.99375)" xlink:href="#ArialMT-31"/>
       <use transform="translate(55.615234 0.99375)" xlink:href="#ArialMT-30"/>
       <use transform="translate(112.972813 70.6875)scale(0.7)" xlink:href="#ArialMT-32"/>
      </g>
     </g>
    </g>
    <g id="xtick_8">
     <g id="line2d_16">
      <g>
       <use style="fill:#262626;stroke:#262626;" x="401.606604" xlink:href="#m815f942a84" y="512.64"/>
      </g>
     </g>
     <g id="text_15">
      <!-- $\mathdefault{10^{3}}$ -->
      <defs>
       <path d="M 4.203125 18.890625 
L 12.984375 20.0625 
Q 14.5 12.59375 18.140625 9.296875 
Q 21.78125 6 27 6 
Q 33.203125 6 37.46875 10.296875 
Q 41.75 14.59375 41.75 20.953125 
Q 41.75 27 37.796875 30.921875 
Q 33.84375 34.859375 27.734375 34.859375 
Q 25.25 34.859375 21.53125 33.890625 
L 22.515625 41.609375 
Q 23.390625 41.5 23.921875 41.5 
Q 29.546875 41.5 34.03125 44.421875 
Q 38.53125 47.359375 38.53125 53.46875 
Q 38.53125 58.296875 35.25 61.46875 
Q 31.984375 64.65625 26.8125 64.65625 
Q 21.6875 64.65625 18.265625 61.421875 
Q 14.84375 58.203125 13.875 51.765625 
L 5.078125 53.328125 
Q 6.6875 62.15625 12.390625 67.015625 
Q 18.109375 71.875 26.609375 71.875 
Q 32.46875 71.875 37.390625 69.359375 
Q 42.328125 66.84375 44.9375 62.5 
Q 47.5625 58.15625 47.5625 53.265625 
Q 47.5625 48.640625 45.0625 44.828125 
Q 42.578125 41.015625 37.703125 38.765625 
Q 44.046875 37.3125 47.5625 32.6875 
Q 51.078125 28.078125 51.078125 21.140625 
Q 51.078125 11.765625 44.234375 5.25 
Q 37.40625 -1.265625 26.953125 -1.265625 
Q 17.53125 -1.265625 11.296875 4.34375 
Q 5.078125 9.96875 4.203125 18.890625 
z
" id="ArialMT-33"/>
      </defs>
      <g style="fill:#262626;" transform="translate(393.756604 535.9525)scale(0.1 -0.1)">
       <use transform="translate(0 0.99375)" xlink:href="#ArialMT-31"/>
       <use transform="translate(55.615234 0.99375)" xlink:href="#ArialMT-30"/>
       <use transform="translate(112.972813 70.6875)scale(0.7)" xlink:href="#ArialMT-33"/>
      </g>
     </g>
    </g>
    <g id="xtick_9">
     <g id="line2d_17">
      <g>
       <use style="fill:#262626;stroke:#262626;" x="585.01573" xlink:href="#m815f942a84" y="512.64"/>
      </g>
     </g>
     <g id="text_16">
      <!-- $\mathdefault{10^{4}}$ -->
      <g style="fill:#262626;" transform="translate(577.16573 535.8525)scale(0.1 -0.1)">
       <use transform="translate(0 0.201563)" xlink:href="#ArialMT-31"/>
       <use transform="translate(55.615234 0.201563)" xlink:href="#ArialMT-30"/>
       <use transform="translate(112.972813 69.895313)scale(0.7)" xlink:href="#ArialMT-34"/>
      </g>
     </g>
    </g>
    <g id="xtick_10">
     <g id="line2d_18">
      <defs>
       <path d="M 0 0 
L 0 3 
" id="m6f1d9483e2" style="stroke:#262626;stroke-width:0.5;"/>
      </defs>
      <g>
       <use style="fill:#262626;stroke:#262626;stroke-width:0.5;" x="90" xlink:href="#m6f1d9483e2" y="512.64"/>
      </g>
     </g>
    </g>
    <g id="xtick_11">
     <g id="line2d_19">
      <g>
       <use style="fill:#262626;stroke:#262626;stroke-width:0.5;" x="122.296744" xlink:href="#m6f1d9483e2" y="512.64"/>
      </g>
     </g>
    </g>
    <g id="xtick_12">
     <g id="line2d_20">
      <g>
       <use style="fill:#262626;stroke:#262626;stroke-width:0.5;" x="145.211648" xlink:href="#m6f1d9483e2" y="512.64"/>
      </g>
     </g>
    </g>
    <g id="xtick_13">
     <g id="line2d_21">
      <g>
       <use style="fill:#262626;stroke:#262626;stroke-width:0.5;" x="162.985829" xlink:href="#m6f1d9483e2" y="512.64"/>
      </g>
     </g>
    </g>
    <g id="xtick_14">
     <g id="line2d_22">
      <g>
       <use style="fill:#262626;stroke:#262626;stroke-width:0.5;" x="177.508392" xlink:href="#m6f1d9483e2" y="512.64"/>
      </g>
     </g>
    </g>
    <g id="xtick_15">
     <g id="line2d_23">
      <g>
       <use style="fill:#262626;stroke:#262626;stroke-width:0.5;" x="189.787045" xlink:href="#m6f1d9483e2" y="512.64"/>
      </g>
     </g>
    </g>
    <g id="xtick_16">
     <g id="line2d_24">
      <g>
       <use style="fill:#262626;stroke:#262626;stroke-width:0.5;" x="200.423297" xlink:href="#m6f1d9483e2" y="512.64"/>
      </g>
     </g>
    </g>
    <g id="xtick_17">
     <g id="line2d_25">
      <g>
       <use style="fill:#262626;stroke:#262626;stroke-width:0.5;" x="209.805136" xlink:href="#m6f1d9483e2" y="512.64"/>
      </g>
     </g>
    </g>
    <g id="xtick_18">
     <g id="line2d_26">
      <g>
       <use style="fill:#262626;stroke:#262626;stroke-width:0.5;" x="273.409126" xlink:href="#m6f1d9483e2" y="512.64"/>
      </g>
     </g>
    </g>
    <g id="xtick_19">
     <g id="line2d_27">
      <g>
       <use style="fill:#262626;stroke:#262626;stroke-width:0.5;" x="305.70587" xlink:href="#m6f1d9483e2" y="512.64"/>
      </g>
     </g>
    </g>
    <g id="xtick_20">
     <g id="line2d_28">
      <g>
       <use style="fill:#262626;stroke:#262626;stroke-width:0.5;" x="328.620775" xlink:href="#m6f1d9483e2" y="512.64"/>
      </g>
     </g>
    </g>
    <g id="xtick_21">
     <g id="line2d_29">
      <g>
       <use style="fill:#262626;stroke:#262626;stroke-width:0.5;" x="346.394955" xlink:href="#m6f1d9483e2" y="512.64"/>
      </g>
     </g>
    </g>
    <g id="xtick_22">
     <g id="line2d_30">
      <g>
       <use style="fill:#262626;stroke:#262626;stroke-width:0.5;" x="360.917518" xlink:href="#m6f1d9483e2" y="512.64"/>
      </g>
     </g>
    </g>
    <g id="xtick_23">
     <g id="line2d_31">
      <g>
       <use style="fill:#262626;stroke:#262626;stroke-width:0.5;" x="373.196171" xlink:href="#m6f1d9483e2" y="512.64"/>
      </g>
     </g>
    </g>
    <g id="xtick_24">
     <g id="line2d_32">
      <g>
       <use style="fill:#262626;stroke:#262626;stroke-width:0.5;" x="383.832423" xlink:href="#m6f1d9483e2" y="512.64"/>
      </g>
     </g>
    </g>
    <g id="xtick_25">
     <g id="line2d_33">
      <g>
       <use style="fill:#262626;stroke:#262626;stroke-width:0.5;" x="393.214262" xlink:href="#m6f1d9483e2" y="512.64"/>
      </g>
     </g>
    </g>
    <g id="xtick_26">
     <g id="line2d_34">
      <g>
       <use style="fill:#262626;stroke:#262626;stroke-width:0.5;" x="456.818252" xlink:href="#m6f1d9483e2" y="512.64"/>
      </g>
     </g>
    </g>
    <g id="xtick_27">
     <g id="line2d_35">
      <g>
       <use style="fill:#262626;stroke:#262626;stroke-width:0.5;" x="489.114996" xlink:href="#m6f1d9483e2" y="512.64"/>
      </g>
     </g>
    </g>
    <g id="xtick_28">
     <g id="line2d_36">
      <g>
       <use style="fill:#262626;stroke:#262626;stroke-width:0.5;" x="512.029901" xlink:href="#m6f1d9483e2" y="512.64"/>
      </g>
     </g>
    </g>
    <g id="xtick_29">
     <g id="line2d_37">
      <g>
       <use style="fill:#262626;stroke:#262626;stroke-width:0.5;" x="529.804081" xlink:href="#m6f1d9483e2" y="512.64"/>
      </g>
     </g>
    </g>
    <g id="xtick_30">
     <g id="line2d_38">
      <g>
       <use style="fill:#262626;stroke:#262626;stroke-width:0.5;" x="544.326645" xlink:href="#m6f1d9483e2" y="512.64"/>
      </g>
     </g>
    </g>
    <g id="xtick_31">
     <g id="line2d_39">
      <g>
       <use style="fill:#262626;stroke:#262626;stroke-width:0.5;" x="556.605297" xlink:href="#m6f1d9483e2" y="512.64"/>
      </g>
     </g>
    </g>
    <g id="xtick_32">
     <g id="line2d_40">
      <g>
       <use style="fill:#262626;stroke:#262626;stroke-width:0.5;" x="567.241549" xlink:href="#m6f1d9483e2" y="512.64"/>
      </g>
     </g>
    </g>
    <g id="xtick_33">
     <g id="line2d_41">
      <g>
       <use style="fill:#262626;stroke:#262626;stroke-width:0.5;" x="576.623389" xlink:href="#m6f1d9483e2" y="512.64"/>
      </g>
     </g>
    </g>
    <g id="xtick_34">
     <g id="line2d_42">
      <g>
       <use style="fill:#262626;stroke:#262626;stroke-width:0.5;" x="640.227378" xlink:href="#m6f1d9483e2" y="512.64"/>
      </g>
     </g>
    </g>
   </g>
   <g id="matplotlib.axis_4">
    <g id="ytick_8">
     <g id="line2d_43">
      <g>
       <use style="fill:#262626;stroke:#262626;" x="90" xlink:href="#mdd531e5d81" y="512.64"/>
      </g>
     </g>
     <g id="text_17">
      <!-- $\mathdefault{10^{-5}}$ -->
      <defs>
       <path d="M 4.15625 18.75 
L 13.375 19.53125 
Q 14.40625 12.796875 18.140625 9.390625 
Q 21.875 6 27.15625 6 
Q 33.5 6 37.890625 10.78125 
Q 42.28125 15.578125 42.28125 23.484375 
Q 42.28125 31 38.0625 35.34375 
Q 33.84375 39.703125 27 39.703125 
Q 22.75 39.703125 19.328125 37.765625 
Q 15.921875 35.84375 13.96875 32.765625 
L 5.71875 33.84375 
L 12.640625 70.609375 
L 48.25 70.609375 
L 48.25 62.203125 
L 19.671875 62.203125 
L 15.828125 42.96875 
Q 22.265625 47.46875 29.34375 47.46875 
Q 38.71875 47.46875 45.15625 40.96875 
Q 51.609375 34.46875 51.609375 24.265625 
Q 51.609375 14.546875 45.953125 7.46875 
Q 39.0625 -1.21875 27.15625 -1.21875 
Q 17.390625 -1.21875 11.203125 4.25 
Q 5.03125 9.71875 4.15625 18.75 
z
" id="ArialMT-35"/>
      </defs>
      <g style="fill:#262626;" transform="translate(57.2 517.74625)scale(0.1 -0.1)">
       <use transform="translate(0 0.879688)" xlink:href="#ArialMT-31"/>
       <use transform="translate(55.615234 0.879688)" xlink:href="#ArialMT-30"/>
       <use transform="translate(112.972813 70.573438)scale(0.7)" xlink:href="#ArialMT-2212"/>
       <use transform="translate(153.851719 70.573438)scale(0.7)" xlink:href="#ArialMT-35"/>
      </g>
     </g>
    </g>
    <g id="ytick_9">
     <g id="line2d_44">
      <g>
       <use style="fill:#262626;stroke:#262626;" x="90" xlink:href="#mdd531e5d81" y="465.767507"/>
      </g>
     </g>
     <g id="text_18">
      <!-- $\mathdefault{10^{-4}}$ -->
      <g style="fill:#262626;" transform="translate(57.2 470.873757)scale(0.1 -0.1)">
       <use transform="translate(0 0.201563)" xlink:href="#ArialMT-31"/>
       <use transform="translate(55.615234 0.201563)" xlink:href="#ArialMT-30"/>
       <use transform="translate(112.972813 69.895313)scale(0.7)" xlink:href="#ArialMT-2212"/>
       <use transform="translate(153.851719 69.895313)scale(0.7)" xlink:href="#ArialMT-34"/>
      </g>
     </g>
    </g>
    <g id="ytick_10">
     <g id="line2d_45">
      <g>
       <use style="fill:#262626;stroke:#262626;" x="90" xlink:href="#mdd531e5d81" y="418.895013"/>
      </g>
     </g>
     <g id="text_19">
      <!-- $\mathdefault{10^{-3}}$ -->
      <g style="fill:#262626;" transform="translate(57.2 424.051263)scale(0.1 -0.1)">
       <use transform="translate(0 0.99375)" xlink:href="#ArialMT-31"/>
       <use transform="translate(55.615234 0.99375)" xlink:href="#ArialMT-30"/>
       <use transform="translate(112.972813 70.6875)scale(0.7)" xlink:href="#ArialMT-2212"/>
       <use transform="translate(153.851719 70.6875)scale(0.7)" xlink:href="#ArialMT-33"/>
      </g>
     </g>
    </g>
    <g id="ytick_11">
     <g id="line2d_46">
      <g>
       <use style="fill:#262626;stroke:#262626;" x="90" xlink:href="#mdd531e5d81" y="372.02252"/>
      </g>
     </g>
     <g id="text_20">
      <!-- $\mathdefault{10^{-2}}$ -->
      <g style="fill:#262626;" transform="translate(57.2 377.17877)scale(0.1 -0.1)">
       <use transform="translate(0 0.99375)" xlink:href="#ArialMT-31"/>
       <use transform="translate(55.615234 0.99375)" xlink:href="#ArialMT-30"/>
       <use transform="translate(112.972813 70.6875)scale(0.7)" xlink:href="#ArialMT-2212"/>
       <use transform="translate(153.851719 70.6875)scale(0.7)" xlink:href="#ArialMT-32"/>
      </g>
     </g>
    </g>
    <g id="ytick_12">
     <g id="line2d_47">
      <g>
       <use style="fill:#262626;stroke:#262626;" x="90" xlink:href="#mdd531e5d81" y="325.150026"/>
      </g>
     </g>
     <g id="text_21">
      <!-- $\mathdefault{10^{-1}}$ -->
      <g style="fill:#262626;" transform="translate(57.2 330.306276)scale(0.1 -0.1)">
       <use transform="translate(0 0.99375)" xlink:href="#ArialMT-31"/>
       <use transform="translate(55.615234 0.99375)" xlink:href="#ArialMT-30"/>
       <use transform="translate(112.972813 70.6875)scale(0.7)" xlink:href="#ArialMT-2212"/>
       <use transform="translate(153.851719 70.6875)scale(0.7)" xlink:href="#ArialMT-31"/>
      </g>
     </g>
    </g>
    <g id="ytick_13">
     <g id="line2d_48">
      <defs>
       <path d="M 0 0 
L -3 0 
" id="m1f7f7f826d" style="stroke:#262626;stroke-width:0.5;"/>
      </defs>
      <g>
       <use style="fill:#262626;stroke:#262626;stroke-width:0.5;" x="90" xlink:href="#m1f7f7f826d" y="498.529974"/>
      </g>
     </g>
    </g>
    <g id="ytick_14">
     <g id="line2d_49">
      <g>
       <use style="fill:#262626;stroke:#262626;stroke-width:0.5;" x="90" xlink:href="#m1f7f7f826d" y="490.276137"/>
      </g>
     </g>
    </g>
    <g id="ytick_15">
     <g id="line2d_50">
      <g>
       <use style="fill:#262626;stroke:#262626;stroke-width:0.5;" x="90" xlink:href="#m1f7f7f826d" y="484.419947"/>
      </g>
     </g>
    </g>
    <g id="ytick_16">
     <g id="line2d_51">
      <g>
       <use style="fill:#262626;stroke:#262626;stroke-width:0.5;" x="90" xlink:href="#m1f7f7f826d" y="479.877533"/>
      </g>
     </g>
    </g>
    <g id="ytick_17">
     <g id="line2d_52">
      <g>
       <use style="fill:#262626;stroke:#262626;stroke-width:0.5;" x="90" xlink:href="#m1f7f7f826d" y="476.166111"/>
      </g>
     </g>
    </g>
    <g id="ytick_18">
     <g id="line2d_53">
      <g>
       <use style="fill:#262626;stroke:#262626;stroke-width:0.5;" x="90" xlink:href="#m1f7f7f826d" y="473.028148"/>
      </g>
     </g>
    </g>
    <g id="ytick_19">
     <g id="line2d_54">
      <g>
       <use style="fill:#262626;stroke:#262626;stroke-width:0.5;" x="90" xlink:href="#m1f7f7f826d" y="470.309921"/>
      </g>
     </g>
    </g>
    <g id="ytick_20">
     <g id="line2d_55">
      <g>
       <use style="fill:#262626;stroke:#262626;stroke-width:0.5;" x="90" xlink:href="#m1f7f7f826d" y="467.912274"/>
      </g>
     </g>
    </g>
    <g id="ytick_21">
     <g id="line2d_56">
      <g>
       <use style="fill:#262626;stroke:#262626;stroke-width:0.5;" x="90" xlink:href="#m1f7f7f826d" y="451.65748"/>
      </g>
     </g>
    </g>
    <g id="ytick_22">
     <g id="line2d_57">
      <g>
       <use style="fill:#262626;stroke:#262626;stroke-width:0.5;" x="90" xlink:href="#m1f7f7f826d" y="443.403644"/>
      </g>
     </g>
    </g>
    <g id="ytick_23">
     <g id="line2d_58">
      <g>
       <use style="fill:#262626;stroke:#262626;stroke-width:0.5;" x="90" xlink:href="#m1f7f7f826d" y="437.547454"/>
      </g>
     </g>
    </g>
    <g id="ytick_24">
     <g id="line2d_59">
      <g>
       <use style="fill:#262626;stroke:#262626;stroke-width:0.5;" x="90" xlink:href="#m1f7f7f826d" y="433.00504"/>
      </g>
     </g>
    </g>
    <g id="ytick_25">
     <g id="line2d_60">
      <g>
       <use style="fill:#262626;stroke:#262626;stroke-width:0.5;" x="90" xlink:href="#m1f7f7f826d" y="429.293617"/>
      </g>
     </g>
    </g>
    <g id="ytick_26">
     <g id="line2d_61">
      <g>
       <use style="fill:#262626;stroke:#262626;stroke-width:0.5;" x="90" xlink:href="#m1f7f7f826d" y="426.155654"/>
      </g>
     </g>
    </g>
    <g id="ytick_27">
     <g id="line2d_62">
      <g>
       <use style="fill:#262626;stroke:#262626;stroke-width:0.5;" x="90" xlink:href="#m1f7f7f826d" y="423.437427"/>
      </g>
     </g>
    </g>
    <g id="ytick_28">
     <g id="line2d_63">
      <g>
       <use style="fill:#262626;stroke:#262626;stroke-width:0.5;" x="90" xlink:href="#m1f7f7f826d" y="421.039781"/>
      </g>
     </g>
    </g>
    <g id="ytick_29">
     <g id="line2d_64">
      <g>
       <use style="fill:#262626;stroke:#262626;stroke-width:0.5;" x="90" xlink:href="#m1f7f7f826d" y="404.784987"/>
      </g>
     </g>
    </g>
    <g id="ytick_30">
     <g id="line2d_65">
      <g>
       <use style="fill:#262626;stroke:#262626;stroke-width:0.5;" x="90" xlink:href="#m1f7f7f826d" y="396.53115"/>
      </g>
     </g>
    </g>
    <g id="ytick_31">
     <g id="line2d_66">
      <g>
       <use style="fill:#262626;stroke:#262626;stroke-width:0.5;" x="90" xlink:href="#m1f7f7f826d" y="390.67496"/>
      </g>
     </g>
    </g>
    <g id="ytick_32">
     <g id="line2d_67">
      <g>
       <use style="fill:#262626;stroke:#262626;stroke-width:0.5;" x="90" xlink:href="#m1f7f7f826d" y="386.132546"/>
      </g>
     </g>
    </g>
    <g id="ytick_33">
     <g id="line2d_68">
      <g>
       <use style="fill:#262626;stroke:#262626;stroke-width:0.5;" x="90" xlink:href="#m1f7f7f826d" y="382.421124"/>
      </g>
     </g>
    </g>
    <g id="ytick_34">
     <g id="line2d_69">
      <g>
       <use style="fill:#262626;stroke:#262626;stroke-width:0.5;" x="90" xlink:href="#m1f7f7f826d" y="379.283161"/>
      </g>
     </g>
    </g>
    <g id="ytick_35">
     <g id="line2d_70">
      <g>
       <use style="fill:#262626;stroke:#262626;stroke-width:0.5;" x="90" xlink:href="#m1f7f7f826d" y="376.564934"/>
      </g>
     </g>
    </g>
    <g id="ytick_36">
     <g id="line2d_71">
      <g>
       <use style="fill:#262626;stroke:#262626;stroke-width:0.5;" x="90" xlink:href="#m1f7f7f826d" y="374.167288"/>
      </g>
     </g>
    </g>
    <g id="ytick_37">
     <g id="line2d_72">
      <g>
       <use style="fill:#262626;stroke:#262626;stroke-width:0.5;" x="90" xlink:href="#m1f7f7f826d" y="357.912493"/>
      </g>
     </g>
    </g>
    <g id="ytick_38">
     <g id="line2d_73">
      <g>
       <use style="fill:#262626;stroke:#262626;stroke-width:0.5;" x="90" xlink:href="#m1f7f7f826d" y="349.658657"/>
      </g>
     </g>
    </g>
    <g id="ytick_39">
     <g id="line2d_74">
      <g>
       <use style="fill:#262626;stroke:#262626;stroke-width:0.5;" x="90" xlink:href="#m1f7f7f826d" y="343.802467"/>
      </g>
     </g>
    </g>
    <g id="ytick_40">
     <g id="line2d_75">
      <g>
       <use style="fill:#262626;stroke:#262626;stroke-width:0.5;" x="90" xlink:href="#m1f7f7f826d" y="339.260053"/>
      </g>
     </g>
    </g>
    <g id="ytick_41">
     <g id="line2d_76">
      <g>
       <use style="fill:#262626;stroke:#262626;stroke-width:0.5;" x="90" xlink:href="#m1f7f7f826d" y="335.548631"/>
      </g>
     </g>
    </g>
    <g id="ytick_42">
     <g id="line2d_77">
      <g>
       <use style="fill:#262626;stroke:#262626;stroke-width:0.5;" x="90" xlink:href="#m1f7f7f826d" y="332.410668"/>
      </g>
     </g>
    </g>
    <g id="ytick_43">
     <g id="line2d_78">
      <g>
       <use style="fill:#262626;stroke:#262626;stroke-width:0.5;" x="90" xlink:href="#m1f7f7f826d" y="329.69244"/>
      </g>
     </g>
    </g>
    <g id="ytick_44">
     <g id="line2d_79">
      <g>
       <use style="fill:#262626;stroke:#262626;stroke-width:0.5;" x="90" xlink:href="#m1f7f7f826d" y="327.294794"/>
      </g>
     </g>
    </g>
    <g id="ytick_45">
     <g id="line2d_80">
      <g>
       <use style="fill:#262626;stroke:#262626;stroke-width:0.5;" x="90" xlink:href="#m1f7f7f826d" y="311.04"/>
      </g>
     </g>
    </g>
   </g>
   <g id="line2d_81">
    <path clip-path="url(#pa260b9045b)" d="M -1 363.260808 
L 151.095164 363.284397 
L 206.306812 371.639383 
L 238.603556 412.361492 
L 261.518461 403.580404 
L 279.292642 407.537981 
L 293.815205 368.096828 
L 306.093857 407.058872 
L 316.730109 412.358768 
L 326.111949 407.355757 
L 334.50429 407.515898 
L 342.096086 396.777361 
L 349.026853 349.060906 
L 355.402541 401.438859 
L 361.305505 414.947671 
L 366.801034 427.811053 
L 371.941758 429.717242 
L 376.770725 417.488306 
L 381.323597 380.258547 
L 385.630245 413.795782 
L 389.715939 434.765427 
L 393.602249 427.880021 
L 397.307735 417.427829 
L 400.848476 411.614494 
L 404.238502 376.413393 
L 407.490119 396.716473 
L 410.614189 409.548969 
L 413.620341 415.895226 
L 416.517154 420.208574 
L 419.312303 421.996072 
L 422.012683 396.213803 
L 424.624509 419.076544 
L 427.153406 444.950436 
L 429.604479 438.100432 
L 431.982374 429.047057 
L 434.291335 448.74712 
L 436.535246 408.503624 
L 438.717672 403.889739 
L 440.841893 431.13403 
L 442.910933 440.024606 
L 444.927587 443.867268 
L 446.894442 436.336898 
L 448.813898 427.363679 
L 450.688186 411.043391 
L 452.519383 440.514939 
L 454.309426 440.958809 
L 456.060125 460.79027 
L 457.773171 457.542512 
L 459.45015 437.071028 
L 461.09255 454.185083 
L 462.701768 442.479845 
L 464.279118 441.948349 
L 465.825838 448.262784 
L 467.343094 458.627895 
L 468.83199 462.931434 
L 470.293564 470.9736 
L 471.728802 450.549126 
L 473.138637 460.44219 
L 474.523951 474.917425 
L 475.885584 455.748148 
L 477.224331 448.751119 
L 478.540949 453.159318 
L 479.836157 459.259637 
L 481.110642 453.394016 
L 482.365055 446.403514 
L 483.600019 454.793275 
L 484.816127 484.233629 
L 486.013948 458.784821 
L 487.194022 466.690866 
L 488.356869 445.775231 
L 489.502983 473.879515 
L 490.63284 474.126499 
L 491.746894 466.357054 
L 492.845581 453.019295 
L 493.92932 462.746831 
L 494.998512 459.91122 
L 496.053541 461.19753 
L 497.094779 459.195653 
L 498.122582 481.531063 
L 499.137291 465.53693 
L 500.139235 475.165609 
L 501.128734 477.37787 
L 502.10609 487.429105 
L 503.0716 473.452707 
L 504.025546 484.152403 
L 504.968203 463.039249 
L 505.899834 466.765865 
L 506.820695 494.526055 
L 507.731032 476.895991 
L 508.631082 490.774216 
L 509.521075 480.281262 
L 510.401234 488.709827 
L 511.271773 463.670815 
L 512.132901 466.877653 
L 512.984819 489.948744 
L 513.827722 476.672364 
L 514.661799 479.419576 
L 515.487232 471.398795 
L 516.304198 518.141313 
L 517.112871 473.981114 
L 517.913416 500.668718 
L 518.705996 486.556692 
L 519.490766 477.313961 
L 520.26788 465.947687 
L 521.037486 496.817012 
L 521.799727 489.458982 
L 522.554743 475.639805 
L 523.302669 479.227854 
L 524.043638 481.421315 
L 524.777778 476.290295 
L 525.505212 483.350262 
L 526.226064 487.186687 
L 527.648487 472.680785 
L 528.350285 482.920845 
L 529.045954 480.982159 
L 529.7356 492.864272 
L 530.419326 498.927849 
L 531.097232 473.926753 
L 531.769418 477.33993 
L 532.435979 469.877389 
L 533.097009 501.938589 
L 533.752597 466.959791 
L 534.402834 469.991873 
L 535.047806 482.457435 
L 535.687597 465.550748 
L 536.32229 464.166508 
L 536.951966 455.914197 
L 537.576703 484.263392 
L 538.196578 495.511491 
L 538.811667 514.419806 
L 539.422042 493.073502 
L 540.027776 514.470806 
L 540.628938 488.922342 
L 541.225596 497.882576 
L 541.817819 489.297793 
L 542.405671 472.788662 
L 542.989216 473.12998 
L 543.568517 475.239988 
L 544.143636 487.069583 
L 544.714632 481.091013 
L 545.281563 472.033077 
L 545.844488 487.549611 
L 546.403463 478.475767 
L 546.958543 496.456892 
L 547.509781 485.049636 
L 548.05723 485.952808 
L 548.600942 481.544148 
L 549.140969 469.416766 
L 549.677358 464.670606 
L 550.21016 493.485221 
L 550.739422 479.992725 
L 551.26519 476.745386 
L 551.78751 477.365904 
L 552.306428 486.852494 
L 552.821987 475.796912 
L 553.33423 487.715953 
L 554.348939 471.077235 
L 554.851487 496.685236 
L 555.350884 491.740225 
L 555.847169 478.754051 
L 556.340382 502.925255 
L 556.830559 489.986832 
L 557.317739 480.922318 
L 557.801956 475.596284 
L 558.283248 477.018779 
L 558.76165 471.56993 
L 559.237195 486.599239 
L 559.709918 535.300791 
L 560.179852 487.902919 
L 560.647029 491.38745 
L 561.111483 486.59261 
L 561.573244 490.873655 
L 562.032344 478.063021 
L 562.488812 474.22226 
L 562.94268 477.79636 
L 563.393976 484.731356 
L 563.84273 506.296872 
L 564.28897 458.341184 
L 564.732723 483.260477 
L 565.174019 474.909419 
L 565.612882 472.006996 
L 566.049341 462.101494 
L 566.483422 480.849421 
L 566.91515 491.235224 
L 567.34455 485.915614 
L 567.771648 495.485388 
L 568.196468 492.414742 
L 568.619034 478.55372 
L 569.039371 481.80653 
L 569.457501 467.243985 
L 569.873447 465.755439 
L 570.287233 454.782518 
L 570.69888 454.276099 
L 571.108411 494.187571 
L 571.515847 481.104341 
L 571.921209 473.814871 
L 572.32452 473.200936 
L 572.725798 472.098374 
L 573.125065 483.249772 
L 573.52234 484.726046 
L 573.917644 479.229232 
L 574.702415 482.691452 
L 575.091919 496.780121 
L 575.479529 503.204777 
L 575.865261 516.066672 
L 576.249135 511.601753 
L 576.631167 482.755047 
L 577.011376 480.630436 
L 577.389778 492.696426 
L 577.766391 484.083834 
L 578.141232 492.458431 
L 578.885664 513.194559 
L 579.255287 475.373253 
L 579.989426 486.69915 
L 580.353974 470.525337 
L 580.716861 548.313774 
L 581.078102 500.897045 
L 581.437713 543.308261 
L 581.795707 495.122407 
L 582.152099 493.753913 
L 582.506904 463.651548 
L 582.860136 462.742972 
L 583.211808 473.458333 
L 583.561934 488.062125 
L 583.910528 471.242586 
L 584.257603 467.320761 
L 584.947248 492.856384 
L 585.289845 474.748958 
L 585.630974 492.648065 
L 585.970649 478.923918 
L 586.308881 475.839016 
L 586.645683 464.336191 
L 586.981067 457.966482 
L 587.315045 448.62132 
L 587.978828 470.945846 
L 588.308657 472.922798 
L 588.637126 458.024103 
L 588.964246 461.427652 
L 589.290028 475.058482 
L 589.614483 466.808181 
L 589.937621 498.4782 
L 590.259454 471.113812 
L 590.579992 491.765353 
L 590.899246 472.248331 
L 591.217224 465.542652 
L 591.533939 468.131916 
L 592.163614 495.842596 
L 592.476596 490.904347 
L 592.788352 477.384883 
L 593.098892 485.157933 
L 593.408227 485.546664 
L 593.716365 476.730043 
L 594.023315 498.239121 
L 594.633691 479.373088 
L 594.937133 500.986469 
L 595.239424 480.284728 
L 595.540572 481.590392 
L 595.840586 503.562467 
L 596.139474 478.167962 
L 596.733906 466.914115 
L 597.029467 481.924934 
L 597.323936 478.390484 
L 597.617319 464.241683 
L 597.909626 459.77511 
L 598.200864 457.402005 
L 598.491042 481.501907 
L 598.780166 481.146663 
L 599.068244 472.444734 
L 599.355284 475.51765 
L 599.641294 485.869982 
L 599.92628 511.167465 
L 600.21025 487.81984 
L 600.775172 471.998299 
L 601.056137 497.731236 
L 601.615112 470.559846 
L 601.893135 466.241162 
L 602.170191 465.06654 
L 602.446287 477.153296 
L 602.721429 481.424927 
L 602.995624 515.781878 
L 603.268878 529.855453 
L 603.541199 489.642107 
L 603.812591 487.621268 
L 604.083062 474.114346 
L 604.352617 476.726442 
L 604.621264 505.809927 
L 604.889007 480.513429 
L 605.155853 495.549788 
L 605.421809 487.404882 
L 605.686879 489.542678 
L 605.95107 494.265826 
L 606.476838 488.300385 
L 606.738427 491.873307 
L 606.999159 498.330218 
L 607.25904 490.621979 
L 607.518076 511.224557 
L 607.776273 504.927945 
L 608.033635 521.188456 
L 608.290169 493.129605 
L 608.545879 520.757936 
L 609.054849 480.203452 
L 609.308119 498.007934 
L 609.560587 481.613422 
L 609.812258 486.46871 
L 610.063135 508.82535 
L 610.313225 485.790235 
L 610.562532 497.962266 
L 610.811062 516.953598 
L 611.058818 517.73146 
L 611.305806 501.95403 
L 611.55203 512.988754 
L 611.797496 477.864899 
L 612.28617 511.20247 
L 612.529387 530.107905 
L 612.771864 491.136535 
L 613.013605 490.515748 
L 613.254614 481.969644 
L 613.494897 502.489235 
L 613.734457 494.445751 
L 613.973298 501.086261 
L 614.448843 473.958218 
L 614.685555 477.514769 
L 615.15688 469.015924 
L 615.3915 482.860502 
L 615.625431 508.924977 
L 616.091243 475.111944 
L 616.554347 516.983431 
L 616.784892 488.431786 
L 617.014773 495.13295 
L 617.243992 481.285496 
L 617.472553 491.110918 
L 617.700461 508.279259 
L 617.927718 492.033042 
L 618.154329 494.331206 
L 618.380296 490.325969 
L 618.605625 528.312137 
L 618.830318 493.216543 
L 619.054379 490.51763 
L 619.277811 500.631212 
L 619.500618 500.090172 
L 619.722804 516.454957 
L 619.944372 493.731966 
L 620.165325 490.912155 
L 620.385667 512.90448 
L 620.605401 494.200985 
L 620.824531 504.247072 
L 621.043059 501.75021 
L 621.26099 545.123357 
L 621.478326 497.640089 
L 621.69507 527.103784 
L 621.911227 492.957815 
L 622.126798 503.425757 
L 622.556198 485.880507 
L 622.770034 505.38313 
L 622.983296 482.298905 
L 623.195989 500.714993 
L 623.61968 490.565254 
L 623.830683 493.99456 
L 624.041128 482.112831 
L 624.251019 529.995259 
L 624.460358 495.911419 
L 624.669149 485.186315 
L 625.085096 510.045236 
L 625.292257 509.744995 
L 625.498881 485.265882 
L 625.704971 496.35436 
L 625.910528 482.629826 
L 626.320059 514.614634 
L 626.524038 485.797152 
L 626.727495 502.895134 
L 626.930435 502.149222 
L 627.132858 489.483802 
L 627.334768 491.061159 
L 627.536168 482.674127 
L 627.73706 495.248381 
L 627.937446 487.15198 
L 628.13733 513.779995 
L 628.336713 500.924302 
L 628.535599 509.866757 
L 628.733989 508.992062 
L 628.931886 519.196256 
L 629.129293 494.691805 
L 629.326211 492.268936 
L 629.522644 502.569467 
L 629.718594 498.752518 
L 629.914063 490.306718 
L 630.109054 501.668664 
L 630.303568 488.108408 
L 630.497608 509.429847 
L 630.691177 505.083326 
L 630.884277 496.029783 
L 631.07691 478.95319 
L 631.269078 508.322644 
L 631.460783 493.633439 
L 631.652028 503.744335 
L 631.842815 502.364245 
L 632.033146 495.218996 
L 632.223024 481.45987 
L 632.41245 493.380255 
L 632.601426 529.31678 
L 632.97804 493.20306 
L 633.165681 493.304008 
L 633.352881 499.154178 
L 633.539642 509.955127 
L 633.725966 490.441017 
L 633.911856 482.659998 
L 634.097312 485.5545 
L 634.466935 510.314998 
L 634.651105 487.411233 
L 634.83485 497.59738 
L 635.018173 483.617453 
L 635.201074 486.748249 
L 635.383557 503.81504 
L 635.565622 491.738632 
L 635.747272 492.133583 
L 635.928509 496.943716 
L 636.109335 492.339071 
L 636.289751 515.924543 
L 636.469759 504.157313 
L 636.649361 514.243397 
L 636.828559 496.467106 
L 637.007355 494.072051 
L 637.185751 518.539302 
L 637.541348 485.908982 
L 637.718553 506.595209 
L 637.895364 499.761809 
L 638.071784 510.771407 
L 638.247814 497.418719 
L 638.423456 552.350765 
L 638.773582 492.695862 
L 638.94807 482.735113 
L 639.122176 509.086051 
L 639.295903 490.488837 
L 639.469251 490.406147 
L 639.642223 511.77101 
L 639.81482 517.739358 
L 639.987044 489.496949 
L 640.158897 481.56693 
L 640.330379 501.280057 
L 640.501493 496.317566 
L 640.67224 517.125045 
L 641.012641 488.986452 
L 641.182297 487.99029 
L 641.351593 492.913214 
L 641.520529 484.948051 
L 641.689108 521.075211 
L 641.857331 495.29265 
L 642.0252 501.68609 
L 642.192715 491.255828 
L 642.359879 520.342467 
L 642.526693 491.050524 
L 642.693158 509.220143 
L 642.859276 501.183892 
L 643.025049 505.043715 
L 643.190477 501.838241 
L 643.355562 505.579462 
L 643.520306 490.550737 
L 643.848774 480.604687 
L 644.012502 501.79803 
L 644.175894 564.582998 
L 644.338952 493.537266 
L 644.664069 487.205891 
L 644.826131 506.069317 
L 644.987864 487.40375 
L 645.14927 482.878952 
L 645.310349 513.665469 
L 645.631533 490.451842 
L 645.791641 497.059072 
L 645.951427 537.366091 
L 646.110894 506.714371 
L 646.270042 498.85144 
L 646.587387 509.868619 
L 646.745587 501.35173 
L 646.903473 521.683358 
L 647.061047 527.368943 
L 647.21831 495.094419 
L 647.375263 493.601073 
L 647.531907 535.716078 
L 647.688244 512.648503 
L 647.844274 506.974107 
L 647.844274 506.974107 
" style="fill:none;stroke:#b22222;stroke-linecap:round;stroke-width:1.75;"/>
   </g>
   <g id="patch_6">
    <path d="M 90 512.64 
L 90 311.04 
" style="fill:none;stroke:#262626;stroke-linecap:square;stroke-linejoin:miter;stroke-width:1.25;"/>
   </g>
   <g id="patch_7">
    <path d="M 90 512.64 
L 648 512.64 
" style="fill:none;stroke:#262626;stroke-linecap:square;stroke-linejoin:miter;stroke-width:1.25;"/>
   </g>
  </g>
 </g>
 <defs>
  <clipPath id="pb882afbc30">
   <rect height="201.6" width="558" x="90" y="69.12"/>
  </clipPath>
  <clipPath id="pa260b9045b">
   <rect height="201.6" width="558" x="90" y="311.04"/>
  </clipPath>
 </defs>
</svg>
