<?xml version="1.0" encoding="utf-8" standalone="no"?>
<!DOCTYPE svg PUBLIC "-//W3C//DTD SVG 1.1//EN"
  "http://www.w3.org/Graphics/SVG/1.1/DTD/svg11.dtd">
<!-- Created with matplotlib (http://matplotlib.org/) -->
<svg height="576pt" version="1.1" viewBox="0 0 720 576" width="720pt" xmlns="http://www.w3.org/2000/svg" xmlns:xlink="http://www.w3.org/1999/xlink">
 <defs>
  <style type="text/css">
*{stroke-linecap:butt;stroke-linejoin:round;}
  </style>
 </defs>
 <g id="figure_1">
  <g id="patch_1">
   <path d="M 0 576 
L 720 576 
L 720 0 
L 0 0 
z
" style="fill:#ffffff;"/>
  </g>
  <g id="axes_1">
   <g id="patch_2">
    <path d="M 90 270.72 
L 648 270.72 
L 648 69.12 
L 90 69.12 
z
" style="fill:#ffffff;"/>
   </g>
   <g id="matplotlib.axis_1">
    <g id="xtick_1">
     <g id="line2d_1">
      <defs>
       <path d="M 0 0 
L 0 6 
" id="m2f59ef84f8" style="stroke:#262626;"/>
      </defs>
      <g>
       <use style="fill:#262626;stroke:#262626;" x="90" xlink:href="#m2f59ef84f8" y="270.72"/>
      </g>
     </g>
     <g id="text_1">
      <!-- 0 -->
      <defs>
       <path d="M 4.15625 35.296875 
Q 4.15625 48 6.765625 55.734375 
Q 9.375 63.484375 14.515625 67.671875 
Q 19.671875 71.875 27.484375 71.875 
Q 33.25 71.875 37.59375 69.546875 
Q 41.9375 67.234375 44.765625 62.859375 
Q 47.609375 58.5 49.21875 52.21875 
Q 50.828125 45.953125 50.828125 35.296875 
Q 50.828125 22.703125 48.234375 14.96875 
Q 45.65625 7.234375 40.5 3 
Q 35.359375 -1.21875 27.484375 -1.21875 
Q 17.140625 -1.21875 11.234375 6.203125 
Q 4.15625 15.140625 4.15625 35.296875 
z
M 13.1875 35.296875 
Q 13.1875 17.671875 17.3125 11.828125 
Q 21.4375 6 27.484375 6 
Q 33.546875 6 37.671875 11.859375 
Q 41.796875 17.71875 41.796875 35.296875 
Q 41.796875 52.984375 37.671875 58.78125 
Q 33.546875 64.59375 27.390625 64.59375 
Q 21.34375 64.59375 17.71875 59.46875 
Q 13.1875 52.9375 13.1875 35.296875 
z
" id="ArialMT-30"/>
      </defs>
      <g style="fill:#262626;" transform="translate(87.219531 290.877812)scale(0.1 -0.1)">
       <use xlink:href="#ArialMT-30"/>
      </g>
     </g>
    </g>
    <g id="xtick_2">
     <g id="line2d_2">
      <g>
       <use style="fill:#262626;stroke:#262626;" x="198.984375" xlink:href="#m2f59ef84f8" y="270.72"/>
      </g>
     </g>
     <g id="text_2">
      <!-- 200 -->
      <defs>
       <path d="M 50.34375 8.453125 
L 50.34375 0 
L 3.03125 0 
Q 2.9375 3.171875 4.046875 6.109375 
Q 5.859375 10.9375 9.828125 15.625 
Q 13.8125 20.3125 21.34375 26.46875 
Q 33.015625 36.03125 37.109375 41.625 
Q 41.21875 47.21875 41.21875 52.203125 
Q 41.21875 57.421875 37.46875 61 
Q 33.734375 64.59375 27.734375 64.59375 
Q 21.390625 64.59375 17.578125 60.78125 
Q 13.765625 56.984375 13.71875 50.25 
L 4.6875 51.171875 
Q 5.609375 61.28125 11.65625 66.578125 
Q 17.71875 71.875 27.9375 71.875 
Q 38.234375 71.875 44.234375 66.15625 
Q 50.25 60.453125 50.25 52 
Q 50.25 47.703125 48.484375 43.546875 
Q 46.734375 39.40625 42.65625 34.8125 
Q 38.578125 30.21875 29.109375 22.21875 
Q 21.1875 15.578125 18.9375 13.203125 
Q 16.703125 10.84375 15.234375 8.453125 
z
" id="ArialMT-32"/>
      </defs>
      <g style="fill:#262626;" transform="translate(190.642969 290.877812)scale(0.1 -0.1)">
       <use xlink:href="#ArialMT-32"/>
       <use x="55.615234" xlink:href="#ArialMT-30"/>
       <use x="111.230469" xlink:href="#ArialMT-30"/>
      </g>
     </g>
    </g>
    <g id="xtick_3">
     <g id="line2d_3">
      <g>
       <use style="fill:#262626;stroke:#262626;" x="307.96875" xlink:href="#m2f59ef84f8" y="270.72"/>
      </g>
     </g>
     <g id="text_3">
      <!-- 400 -->
      <defs>
       <path d="M 32.328125 0 
L 32.328125 17.140625 
L 1.265625 17.140625 
L 1.265625 25.203125 
L 33.9375 71.578125 
L 41.109375 71.578125 
L 41.109375 25.203125 
L 50.78125 25.203125 
L 50.78125 17.140625 
L 41.109375 17.140625 
L 41.109375 0 
z
M 32.328125 25.203125 
L 32.328125 57.46875 
L 9.90625 25.203125 
z
" id="ArialMT-34"/>
      </defs>
      <g style="fill:#262626;" transform="translate(299.627344 290.877812)scale(0.1 -0.1)">
       <use xlink:href="#ArialMT-34"/>
       <use x="55.615234" xlink:href="#ArialMT-30"/>
       <use x="111.230469" xlink:href="#ArialMT-30"/>
      </g>
     </g>
    </g>
    <g id="xtick_4">
     <g id="line2d_4">
      <g>
       <use style="fill:#262626;stroke:#262626;" x="416.953125" xlink:href="#m2f59ef84f8" y="270.72"/>
      </g>
     </g>
     <g id="text_4">
      <!-- 600 -->
      <defs>
       <path d="M 49.75 54.046875 
L 41.015625 53.375 
Q 39.84375 58.546875 37.703125 60.890625 
Q 34.125 64.65625 28.90625 64.65625 
Q 24.703125 64.65625 21.53125 62.3125 
Q 17.390625 59.28125 14.984375 53.46875 
Q 12.59375 47.65625 12.5 36.921875 
Q 15.671875 41.75 20.265625 44.09375 
Q 24.859375 46.4375 29.890625 46.4375 
Q 38.671875 46.4375 44.84375 39.96875 
Q 51.03125 33.5 51.03125 23.25 
Q 51.03125 16.5 48.125 10.71875 
Q 45.21875 4.9375 40.140625 1.859375 
Q 35.0625 -1.21875 28.609375 -1.21875 
Q 17.625 -1.21875 10.6875 6.859375 
Q 3.765625 14.9375 3.765625 33.5 
Q 3.765625 54.25 11.421875 63.671875 
Q 18.109375 71.875 29.4375 71.875 
Q 37.890625 71.875 43.28125 67.140625 
Q 48.6875 62.40625 49.75 54.046875 
z
M 13.875 23.1875 
Q 13.875 18.65625 15.796875 14.5 
Q 17.71875 10.359375 21.1875 8.171875 
Q 24.65625 6 28.46875 6 
Q 34.03125 6 38.03125 10.484375 
Q 42.046875 14.984375 42.046875 22.703125 
Q 42.046875 30.125 38.078125 34.390625 
Q 34.125 38.671875 28.125 38.671875 
Q 22.171875 38.671875 18.015625 34.390625 
Q 13.875 30.125 13.875 23.1875 
z
" id="ArialMT-36"/>
      </defs>
      <g style="fill:#262626;" transform="translate(408.611719 290.877812)scale(0.1 -0.1)">
       <use xlink:href="#ArialMT-36"/>
       <use x="55.615234" xlink:href="#ArialMT-30"/>
       <use x="111.230469" xlink:href="#ArialMT-30"/>
      </g>
     </g>
    </g>
    <g id="xtick_5">
     <g id="line2d_5">
      <g>
       <use style="fill:#262626;stroke:#262626;" x="525.9375" xlink:href="#m2f59ef84f8" y="270.72"/>
      </g>
     </g>
     <g id="text_5">
      <!-- 800 -->
      <defs>
       <path d="M 17.671875 38.8125 
Q 12.203125 40.828125 9.5625 44.53125 
Q 6.9375 48.25 6.9375 53.421875 
Q 6.9375 61.234375 12.546875 66.546875 
Q 18.171875 71.875 27.484375 71.875 
Q 36.859375 71.875 42.578125 66.421875 
Q 48.296875 60.984375 48.296875 53.171875 
Q 48.296875 48.1875 45.671875 44.5 
Q 43.0625 40.828125 37.75 38.8125 
Q 44.34375 36.671875 47.78125 31.875 
Q 51.21875 27.09375 51.21875 20.453125 
Q 51.21875 11.28125 44.71875 5.03125 
Q 38.234375 -1.21875 27.640625 -1.21875 
Q 17.046875 -1.21875 10.546875 5.046875 
Q 4.046875 11.328125 4.046875 20.703125 
Q 4.046875 27.6875 7.59375 32.390625 
Q 11.140625 37.109375 17.671875 38.8125 
z
M 15.921875 53.71875 
Q 15.921875 48.640625 19.1875 45.40625 
Q 22.46875 42.1875 27.6875 42.1875 
Q 32.765625 42.1875 36.015625 45.375 
Q 39.265625 48.578125 39.265625 53.21875 
Q 39.265625 58.0625 35.90625 61.359375 
Q 32.5625 64.65625 27.59375 64.65625 
Q 22.5625 64.65625 19.234375 61.421875 
Q 15.921875 58.203125 15.921875 53.71875 
z
M 13.09375 20.65625 
Q 13.09375 16.890625 14.875 13.375 
Q 16.65625 9.859375 20.171875 7.921875 
Q 23.6875 6 27.734375 6 
Q 34.03125 6 38.125 10.046875 
Q 42.234375 14.109375 42.234375 20.359375 
Q 42.234375 26.703125 38.015625 30.859375 
Q 33.796875 35.015625 27.4375 35.015625 
Q 21.234375 35.015625 17.15625 30.90625 
Q 13.09375 26.8125 13.09375 20.65625 
z
" id="ArialMT-38"/>
      </defs>
      <g style="fill:#262626;" transform="translate(517.596094 290.877812)scale(0.1 -0.1)">
       <use xlink:href="#ArialMT-38"/>
       <use x="55.615234" xlink:href="#ArialMT-30"/>
       <use x="111.230469" xlink:href="#ArialMT-30"/>
      </g>
     </g>
    </g>
    <g id="xtick_6">
     <g id="line2d_6">
      <g>
       <use style="fill:#262626;stroke:#262626;" x="634.921875" xlink:href="#m2f59ef84f8" y="270.72"/>
      </g>
     </g>
     <g id="text_6">
      <!-- 1000 -->
      <defs>
       <path d="M 37.25 0 
L 28.46875 0 
L 28.46875 56 
Q 25.296875 52.984375 20.140625 49.953125 
Q 14.984375 46.921875 10.890625 45.40625 
L 10.890625 53.90625 
Q 18.265625 57.375 23.78125 62.296875 
Q 29.296875 67.234375 31.59375 71.875 
L 37.25 71.875 
z
" id="ArialMT-31"/>
      </defs>
      <g style="fill:#262626;" transform="translate(623.8 290.877812)scale(0.1 -0.1)">
       <use xlink:href="#ArialMT-31"/>
       <use x="55.615234" xlink:href="#ArialMT-30"/>
       <use x="111.230469" xlink:href="#ArialMT-30"/>
       <use x="166.845703" xlink:href="#ArialMT-30"/>
      </g>
     </g>
    </g>
   </g>
   <g id="matplotlib.axis_2">
    <g id="ytick_1">
     <g id="line2d_7">
      <defs>
       <path d="M 0 0 
L -6 0 
" id="mcb2d3e6c87" style="stroke:#262626;"/>
      </defs>
      <g>
       <use style="fill:#262626;stroke:#262626;" x="90" xlink:href="#mcb2d3e6c87" y="270.72"/>
      </g>
     </g>
     <g id="text_7">
      <!-- −0.6 -->
      <defs>
       <path d="M 52.828125 31.203125 
L 5.5625 31.203125 
L 5.5625 39.40625 
L 52.828125 39.40625 
z
" id="ArialMT-2212"/>
       <path d="M 9.078125 0 
L 9.078125 10.015625 
L 19.09375 10.015625 
L 19.09375 0 
z
" id="ArialMT-2e"/>
      </defs>
      <g style="fill:#262626;" transform="translate(57.259375 274.298906)scale(0.1 -0.1)">
       <use xlink:href="#ArialMT-2212"/>
       <use x="58.398438" xlink:href="#ArialMT-30"/>
       <use x="114.013672" xlink:href="#ArialMT-2e"/>
       <use x="141.796875" xlink:href="#ArialMT-36"/>
      </g>
     </g>
    </g>
    <g id="ytick_2">
     <g id="line2d_8">
      <g>
       <use style="fill:#262626;stroke:#262626;" x="90" xlink:href="#mcb2d3e6c87" y="237.12"/>
      </g>
     </g>
     <g id="text_8">
      <!-- −0.4 -->
      <g style="fill:#262626;" transform="translate(57.259375 240.698906)scale(0.1 -0.1)">
       <use xlink:href="#ArialMT-2212"/>
       <use x="58.398438" xlink:href="#ArialMT-30"/>
       <use x="114.013672" xlink:href="#ArialMT-2e"/>
       <use x="141.796875" xlink:href="#ArialMT-34"/>
      </g>
     </g>
    </g>
    <g id="ytick_3">
     <g id="line2d_9">
      <g>
       <use style="fill:#262626;stroke:#262626;" x="90" xlink:href="#mcb2d3e6c87" y="203.52"/>
      </g>
     </g>
     <g id="text_9">
      <!-- −0.2 -->
      <g style="fill:#262626;" transform="translate(57.259375 207.098906)scale(0.1 -0.1)">
       <use xlink:href="#ArialMT-2212"/>
       <use x="58.398438" xlink:href="#ArialMT-30"/>
       <use x="114.013672" xlink:href="#ArialMT-2e"/>
       <use x="141.796875" xlink:href="#ArialMT-32"/>
      </g>
     </g>
    </g>
    <g id="ytick_4">
     <g id="line2d_10">
      <g>
       <use style="fill:#262626;stroke:#262626;" x="90" xlink:href="#mcb2d3e6c87" y="169.92"/>
      </g>
     </g>
     <g id="text_10">
      <!-- 0.0 -->
      <g style="fill:#262626;" transform="translate(63.1 173.498906)scale(0.1 -0.1)">
       <use xlink:href="#ArialMT-30"/>
       <use x="55.615234" xlink:href="#ArialMT-2e"/>
       <use x="83.398438" xlink:href="#ArialMT-30"/>
      </g>
     </g>
    </g>
    <g id="ytick_5">
     <g id="line2d_11">
      <g>
       <use style="fill:#262626;stroke:#262626;" x="90" xlink:href="#mcb2d3e6c87" y="136.32"/>
      </g>
     </g>
     <g id="text_11">
      <!-- 0.2 -->
      <g style="fill:#262626;" transform="translate(63.1 139.898906)scale(0.1 -0.1)">
       <use xlink:href="#ArialMT-30"/>
       <use x="55.615234" xlink:href="#ArialMT-2e"/>
       <use x="83.398438" xlink:href="#ArialMT-32"/>
      </g>
     </g>
    </g>
    <g id="ytick_6">
     <g id="line2d_12">
      <g>
       <use style="fill:#262626;stroke:#262626;" x="90" xlink:href="#mcb2d3e6c87" y="102.72"/>
      </g>
     </g>
     <g id="text_12">
      <!-- 0.4 -->
      <g style="fill:#262626;" transform="translate(63.1 106.298906)scale(0.1 -0.1)">
       <use xlink:href="#ArialMT-30"/>
       <use x="55.615234" xlink:href="#ArialMT-2e"/>
       <use x="83.398438" xlink:href="#ArialMT-34"/>
      </g>
     </g>
    </g>
    <g id="ytick_7">
     <g id="line2d_13">
      <g>
       <use style="fill:#262626;stroke:#262626;" x="90" xlink:href="#mcb2d3e6c87" y="69.12"/>
      </g>
     </g>
     <g id="text_13">
      <!-- 0.6 -->
      <g style="fill:#262626;" transform="translate(63.1 72.698906)scale(0.1 -0.1)">
       <use xlink:href="#ArialMT-30"/>
       <use x="55.615234" xlink:href="#ArialMT-2e"/>
       <use x="83.398438" xlink:href="#ArialMT-36"/>
      </g>
     </g>
    </g>
   </g>
   <g id="line2d_14">
    <path clip-path="url(#pbc7a48c83c)" d="M 90 172.278398 
L 90.544922 172.565508 
L 91.089844 172.555254 
L 91.634766 171.863115 
L 93.269531 170.468584 
L 93.814453 170.34041 
L 94.904297 169.791826 
L 95.449219 169.576494 
L 95.994141 169.109941 
L 96.539062 169.176592 
L 97.083984 169.125322 
L 97.628906 168.945879 
L 98.173828 168.407549 
L 98.71875 168.622881 
L 99.808594 169.786699 
L 100.353516 169.930254 
L 101.988281 172.057939 
L 102.533203 172.627031 
L 104.167969 175.636553 
L 104.712891 175.908281 
L 107.4375 181.481279 
L 107.982422 182.286211 
L 109.072266 184.403643 
L 109.617188 184.731768 
L 110.707031 186.02376 
L 111.251953 186.946611 
L 111.796875 186.91585 
L 112.886719 187.464434 
L 113.976562 187.490068 
L 114.521484 187.013262 
L 115.066406 186.91585 
L 115.611328 186.56209 
L 117.246094 184.203691 
L 118.880859 180.48665 
L 121.060547 174.847002 
L 121.605469 172.996172 
L 122.695312 170.586504 
L 123.785156 167.782061 
L 124.330078 166.925859 
L 124.875 166.356768 
L 125.964844 164.613604 
L 127.054688 163.511309 
L 127.599609 163.439531 
L 128.144531 162.880693 
L 129.234375 162.383379 
L 130.324219 161.650225 
L 130.869141 161.332354 
L 131.958984 160.96834 
L 133.048828 160.071123 
L 133.59375 160.060869 
L 134.138672 159.778887 
L 134.683594 159.35335 
L 135.228516 158.671465 
L 137.408203 158.430498 
L 137.953125 158.886797 
L 138.498047 159.635332 
L 139.042969 159.84041 
L 139.587891 159.804521 
L 140.132812 160.527422 
L 140.677734 161.747637 
L 141.222656 162.480791 
L 141.767578 162.916582 
L 142.3125 163.675371 
L 143.402344 166.295244 
L 143.947266 166.772051 
L 145.037109 168.802324 
L 145.582031 170.258379 
L 146.671875 171.765703 
L 147.761719 174.390703 
L 151.03125 181.61458 
L 151.576172 182.178545 
L 152.121094 183.244951 
L 152.666016 183.972979 
L 153.210938 184.96248 
L 154.300781 186.100664 
L 155.390625 187.090166 
L 155.935547 187.649004 
L 156.480469 187.413164 
L 157.025391 187.326006 
L 157.570312 187.654131 
L 158.115234 187.541338 
L 158.660156 187.5721 
L 159.75 187.961748 
L 160.294922 187.766924 
L 160.839844 187.843828 
L 161.384766 188.048906 
L 161.929688 187.987383 
L 164.654297 186.68001 
L 166.289062 185.577715 
L 166.833984 184.526689 
L 167.378906 184.285723 
L 169.013672 182.486162 
L 169.558594 181.891436 
L 170.103516 181.004473 
L 171.193359 179.979082 
L 171.738281 179.563799 
L 172.283203 178.948564 
L 172.828125 178.640947 
L 173.373047 178.476885 
L 174.462891 178.476885 
L 175.007812 178.143633 
L 175.552734 178.159014 
L 176.642578 177.723223 
L 177.1875 177.302812 
L 177.732422 177.200273 
L 178.277344 177.466875 
L 178.822266 177.200273 
L 179.367188 177.220781 
L 180.457031 176.877275 
L 181.001953 176.472246 
L 181.546875 175.898027 
L 182.091797 175.646807 
L 182.636719 175.211016 
L 183.181641 174.929033 
L 184.271484 173.821611 
L 184.816406 172.688555 
L 185.361328 172.314287 
L 185.90625 172.196367 
L 188.630859 170.207109 
L 189.175781 170.376299 
L 190.810547 170.232744 
L 191.355469 170.986406 
L 191.900391 171.309404 
L 192.445312 171.934893 
L 194.080078 173.226885 
L 194.625 174.324053 
L 195.169922 175.016191 
L 195.714844 175.498125 
L 196.259766 175.728838 
L 196.804688 176.349199 
L 197.349609 176.646562 
L 198.439453 179.081865 
L 198.984375 179.979082 
L 199.529297 180.261064 
L 200.619141 182.065752 
L 203.34375 185.910967 
L 204.433594 187.136309 
L 204.978516 187.45418 
L 206.068359 187.500322 
L 206.613281 187.259355 
L 207.703125 186.439043 
L 208.792969 184.736895 
L 210.427734 181.373613 
L 210.972656 179.471514 
L 211.517578 178.076982 
L 213.697266 171.340166 
L 214.242188 170.022539 
L 214.787109 169.161211 
L 216.421875 165.879961 
L 217.511719 165.362139 
L 218.056641 164.516191 
L 219.146484 163.398516 
L 219.691406 163.178057 
L 220.236328 162.501299 
L 220.78125 162.250078 
L 221.871094 161.050371 
L 222.416016 160.563311 
L 224.050781 158.317705 
L 224.595703 156.907793 
L 225.140625 155.938799 
L 225.685547 155.472246 
L 226.230469 155.359453 
L 226.775391 154.82625 
L 227.320312 154.072588 
L 229.5 154.862139 
L 230.044922 154.616045 
L 232.769531 157.041094 
L 233.314453 157.794756 
L 233.859375 158.333086 
L 234.404297 159.594316 
L 234.949219 160.563311 
L 235.494141 161.234941 
L 236.583984 163.147295 
L 237.128906 163.952227 
L 239.308594 168.65877 
L 239.853516 169.427812 
L 241.488281 172.473223 
L 242.033203 173.960039 
L 242.578125 174.877764 
L 243.123047 175.564775 
L 243.667969 176.046709 
L 246.9375 181.117266 
L 247.482422 181.265947 
L 249.117188 182.645098 
L 249.662109 182.711748 
L 250.751953 183.16292 
L 251.841797 183.188555 
L 252.386719 182.870684 
L 253.476562 182.752764 
L 254.021484 182.460527 
L 254.566406 181.870928 
L 255.111328 181.578691 
L 257.291016 179.938066 
L 260.015625 176.256914 
L 260.560547 175.605791 
L 261.105469 175.23665 
L 262.740234 173.288408 
L 263.285156 172.883379 
L 264.375 172.488604 
L 264.919922 172.288652 
L 265.464844 172.211748 
L 266.009766 171.775957 
L 267.099609 170.750566 
L 267.644531 170.93001 
L 268.734375 170.109697 
L 270.369141 170.150713 
L 270.914062 170.242998 
L 272.003906 169.755937 
L 272.548828 169.581621 
L 273.09375 169.191973 
L 273.638672 169.048418 
L 274.183594 168.161455 
L 274.728516 167.946123 
L 275.273438 167.535967 
L 275.818359 166.900225 
L 276.363281 166.75667 
L 276.908203 166.290117 
L 277.453125 166.03377 
L 277.998047 165.546709 
L 278.542969 165.674883 
L 279.087891 165.382646 
L 279.632812 164.910967 
L 280.177734 164.859697 
L 281.267578 164.495684 
L 281.8125 164.951982 
L 282.902344 165.203203 
L 283.992188 165.654375 
L 285.082031 166.52083 
L 285.626953 166.915605 
L 286.171875 167.033525 
L 286.716797 167.858965 
L 287.806641 168.807451 
L 288.896484 170.325029 
L 289.986328 172.155352 
L 291.621094 174.69832 
L 292.166016 176.12874 
L 292.710938 176.723467 
L 293.800781 178.820391 
L 294.890625 180.609697 
L 295.435547 180.978838 
L 295.980469 181.54793 
L 296.525391 181.758135 
L 297.070312 181.660723 
L 297.615234 182.163164 
L 298.160156 182.306719 
L 298.705078 181.973467 
L 300.339844 180.199541 
L 300.884766 179.307451 
L 301.974609 178.066729 
L 302.519531 176.138994 
L 304.154297 172.268145 
L 304.699219 170.022539 
L 306.878906 163.824053 
L 307.423828 162.629473 
L 308.513672 160.91707 
L 309.603516 158.835527 
L 310.693359 157.707598 
L 311.238281 157.476885 
L 312.328125 155.610674 
L 313.417969 155.41585 
L 315.052734 153.903398 
L 315.597656 153.831621 
L 316.142578 153.544512 
L 316.6875 152.406328 
L 317.777344 151.298906 
L 318.322266 151.278398 
L 318.867188 151.011797 
L 319.412109 151.00667 
L 319.957031 150.852861 
L 321.046875 150.135088 
L 321.591797 150.211992 
L 322.136719 150.437578 
L 323.226562 150.237627 
L 324.316406 150.540117 
L 324.861328 151.591143 
L 325.40625 152.375566 
L 325.951172 153.482988 
L 327.041016 154.862139 
L 328.130859 156.72835 
L 329.765625 159.327715 
L 330.855469 161.409258 
L 331.945312 164.413652 
L 333.035156 165.823564 
L 334.125 168.181963 
L 335.759766 171.001787 
L 336.304688 171.504229 
L 337.394531 174.180498 
L 338.484375 175.328936 
L 339.029297 175.482744 
L 339.574219 176.292803 
L 340.119141 176.687578 
L 340.664062 176.754229 
L 341.753906 177.430986 
L 342.298828 177.400225 
L 342.84375 177.943682 
L 343.388672 178.702471 
L 343.933594 178.656328 
L 344.478516 179.143389 
L 345.023438 178.774248 
L 345.568359 179.163896 
L 346.113281 179.117754 
L 346.658203 178.917803 
L 347.203125 179.020342 
L 347.748047 178.153887 
L 348.837891 177.051592 
L 349.382812 177.005449 
L 349.927734 176.66707 
L 351.017578 175.067461 
L 352.107422 174.016436 
L 352.652344 172.744951 
L 353.742188 171.201738 
L 354.832031 170.565996 
L 355.376953 169.909746 
L 355.921875 169.699541 
L 356.466797 169.207354 
L 357.011719 169.120195 
L 358.101562 168.653643 
L 358.646484 168.992021 
L 359.191406 169.084307 
L 359.736328 168.879229 
L 360.28125 168.930498 
L 361.371094 170.022539 
L 361.916016 169.653398 
L 362.460938 169.622637 
L 363.550781 170.084062 
L 364.640625 169.56624 
L 365.185547 169.063799 
L 365.730469 168.997148 
L 366.820312 167.489824 
L 367.365234 167.233477 
L 368.455078 166.023516 
L 369 165.09041 
L 369.544922 165.018633 
L 370.089844 164.321367 
L 371.179688 164.305986 
L 371.724609 163.47542 
L 372.269531 163.608721 
L 372.814453 164.034258 
L 373.359375 163.460039 
L 373.904297 163.270342 
L 374.449219 163.449785 
L 374.994141 164.044512 
L 376.628906 165.413408 
L 378.808594 167.356523 
L 381.533203 171.591387 
L 382.078125 172.19124 
L 382.623047 173.042314 
L 383.712891 174.944414 
L 384.257812 175.549395 
L 384.802734 176.979814 
L 387.527344 181.655596 
L 388.072266 182.414385 
L 388.617188 183.434648 
L 389.162109 183.491045 
L 389.707031 183.865312 
L 390.251953 183.716631 
L 390.796875 183.998613 
L 391.341797 183.783281 
L 391.886719 183.127031 
L 392.431641 182.670732 
L 392.976562 181.819658 
L 394.066406 179.517656 
L 395.15625 176.554277 
L 396.791016 172.098955 
L 397.880859 169.889238 
L 398.970703 167.83333 
L 400.605469 164.762285 
L 401.150391 164.577715 
L 401.695312 163.931719 
L 402.240234 163.044756 
L 403.330078 162.132158 
L 403.875 161.901445 
L 404.419922 161.178545 
L 404.964844 160.183916 
L 405.509766 160.086504 
L 406.054688 159.30208 
L 406.599609 158.189531 
L 407.144531 157.646074 
L 407.689453 157.271807 
L 408.779297 155.267168 
L 409.324219 154.52376 
L 410.414062 154.077715 
L 411.503906 153.052324 
L 412.048828 152.852373 
L 412.59375 152.396074 
L 413.138672 152.38582 
L 416.408203 154.631426 
L 416.953125 154.887773 
L 418.042969 156.523271 
L 418.587891 157.297441 
L 419.677734 159.440508 
L 420.767578 160.240312 
L 421.857422 162.321855 
L 422.402344 163.562578 
L 422.947266 164.0804 
L 423.492188 165.013506 
L 424.037109 166.561846 
L 426.216797 169.786699 
L 427.306641 171.786211 
L 427.851562 172.591143 
L 429.486328 176.103105 
L 430.576172 177.261797 
L 431.121094 178.128252 
L 433.300781 180.179033 
L 434.390625 181.178789 
L 435.480469 181.517168 
L 436.025391 181.711992 
L 436.570312 181.66585 
L 437.115234 181.901689 
L 437.660156 181.778643 
L 438.205078 181.404375 
L 438.75 181.399248 
L 439.294922 180.558428 
L 439.839844 180.445635 
L 440.384766 180.143145 
L 440.929688 179.681719 
L 442.564453 177.425859 
L 443.109375 177.313066 
L 443.654297 176.574785 
L 444.199219 175.513506 
L 444.744141 174.877764 
L 445.289062 174.744463 
L 446.378906 173.62166 
L 446.923828 173.919023 
L 448.013672 173.026934 
L 448.558594 172.457842 
L 449.648438 172.380937 
L 450.193359 172.145098 
L 451.283203 171.401689 
L 451.828125 171.524736 
L 452.373047 171.473467 
L 452.917969 171.560625 
L 454.007812 170.750566 
L 454.552734 170.653154 
L 455.097656 170.858232 
L 455.642578 170.043047 
L 456.1875 169.489336 
L 456.732422 169.473955 
L 457.822266 168.915117 
L 458.367188 168.06917 
L 459.457031 167.248857 
L 460.546875 166.864336 
L 461.091797 166.500322 
L 461.636719 166.310625 
L 462.181641 165.905596 
L 462.726562 165.715898 
L 463.816406 166.054277 
L 464.361328 165.469805 
L 464.90625 165.157061 
L 465.451172 165.480059 
L 465.996094 164.951982 
L 466.541016 165.044268 
L 467.085938 164.875078 
L 467.630859 164.834062 
L 468.175781 165.116045 
L 469.265625 166.136309 
L 469.810547 165.762041 
L 470.355469 166.233721 
L 470.900391 166.536211 
L 471.990234 168.151201 
L 472.535156 169.581621 
L 473.625 171.099199 
L 474.169922 172.345049 
L 474.714844 173.062822 
L 475.259766 174.052324 
L 475.804688 174.734209 
L 476.894531 177.646318 
L 477.439453 178.492266 
L 479.074219 180.240557 
L 480.708984 181.993975 
L 481.253906 182.014482 
L 481.798828 182.214434 
L 482.34375 182.634844 
L 482.888672 182.199053 
L 483.433594 181.512041 
L 483.978516 181.424883 
L 484.523438 180.804521 
L 486.703125 176.318437 
L 487.792969 174.385576 
L 489.972656 169.822588 
L 492.697266 164.60335 
L 493.787109 162.285967 
L 494.332031 161.737383 
L 494.876953 160.978594 
L 495.966797 158.927812 
L 496.511719 158.34334 
L 497.056641 157.3846 
L 497.601562 156.800127 
L 498.146484 156.656572 
L 499.236328 155.277422 
L 499.78125 154.841631 
L 500.326172 153.980303 
L 501.416016 152.934404 
L 502.505859 152.406328 
L 504.140625 151.257891 
L 504.685547 151.19124 
L 505.230469 151.288652 
L 505.775391 151.088701 
L 506.320312 150.473467 
L 506.865234 150.642656 
L 507.410156 151.129717 
L 507.955078 151.775713 
L 508.5 152.042314 
L 509.589844 153.242021 
L 510.134766 153.477861 
L 510.679688 154.005937 
L 511.769531 155.477373 
L 513.404297 158.589434 
L 514.494141 160.296709 
L 515.583984 163.034502 
L 516.673828 164.78792 
L 517.21875 166.16707 
L 518.308594 167.587236 
L 519.398438 169.427812 
L 520.488281 171.340166 
L 521.033203 172.503984 
L 521.578125 173.180742 
L 522.667969 173.862627 
L 523.757812 175.610918 
L 524.847656 176.938799 
L 525.392578 177.928301 
L 527.027344 179.425371 
L 528.117188 179.871416 
L 528.662109 179.973955 
L 529.207031 180.737871 
L 529.751953 180.691729 
L 530.296875 179.656084 
L 530.841797 179.517656 
L 531.386719 179.717607 
L 531.931641 179.650957 
L 532.476562 178.984453 
L 533.021484 179.010088 
L 534.65625 177.123369 
L 535.201172 176.292803 
L 535.746094 175.908281 
L 537.380859 173.744707 
L 537.925781 173.170488 
L 538.470703 172.380937 
L 539.015625 171.996416 
L 539.560547 171.427324 
L 541.195312 170.755693 
L 541.740234 170.514727 
L 542.285156 170.073809 
L 542.830078 170.114824 
L 543.375 170.791582 
L 543.919922 171.201738 
L 545.009766 171.478594 
L 545.554688 170.976152 
L 546.099609 170.842852 
L 546.644531 170.545488 
L 547.734375 170.386553 
L 548.279297 169.92 
L 548.824219 169.638018 
L 549.914062 168.776689 
L 552.638672 166.951494 
L 553.183594 166.397783 
L 553.728516 166.090166 
L 554.273438 166.290117 
L 554.818359 166.21834 
L 555.908203 165.474932 
L 556.453125 165.44417 
L 556.998047 165.79793 
L 558.087891 165.649248 
L 558.632812 165.823564 
L 559.177734 165.674883 
L 559.722656 165.941484 
L 561.357422 167.612871 
L 561.902344 167.889727 
L 562.447266 168.766436 
L 562.992188 169.350908 
L 563.537109 169.135576 
L 564.082031 170.5096 
L 564.626953 170.976152 
L 565.171875 171.28377 
L 566.806641 174.51375 
L 567.351562 175.026445 
L 567.896484 175.8929 
L 568.986328 178.748613 
L 569.53125 179.548418 
L 570.076172 180.768633 
L 570.621094 182.33748 
L 572.800781 185.78792 
L 573.345703 186.341631 
L 574.435547 186.285234 
L 576.070312 185.572588 
L 577.160156 183.157793 
L 578.25 181.337725 
L 579.884766 178.000078 
L 583.699219 170.771074 
L 584.789062 169.299639 
L 585.333984 167.910234 
L 589.148438 163.270342 
L 589.693359 162.152666 
L 590.238281 161.655352 
L 591.328125 159.671221 
L 591.873047 159.291826 
L 592.962891 158.138262 
L 593.507812 157.681963 
L 594.052734 157.435869 
L 594.597656 157.010332 
L 595.6875 155.923418 
L 596.232422 155.841387 
L 598.412109 156.405352 
L 598.957031 156.769365 
L 599.501953 156.994951 
L 600.046875 157.09749 
L 601.136719 158.086992 
L 602.771484 160.31209 
L 604.40625 162.337236 
L 604.951172 163.275469 
L 605.496094 164.541826 
L 608.220703 169.345781 
L 609.310547 171.755449 
L 609.855469 172.698809 
L 610.945312 174.86751 
L 613.125 177.830889 
L 614.759766 180.922441 
L 615.304688 181.301836 
L 615.849609 182.542559 
L 616.394531 182.527178 
L 617.484375 183.726885 
L 618.029297 184.316484 
L 619.119141 185.664873 
L 620.208984 186.521074 
L 620.753906 186.454424 
L 621.298828 186.09041 
L 621.84375 186.249346 
L 622.388672 186.551836 
L 622.933594 186.423662 
L 623.478516 185.746904 
L 624.023438 185.55208 
L 624.568359 185.095781 
L 625.113281 184.875322 
L 625.658203 184.460039 
L 626.203125 184.224199 
L 626.748047 183.603838 
L 627.292969 183.219316 
L 627.837891 182.347734 
L 628.382812 181.963213 
L 628.927734 181.071123 
L 629.472656 180.650713 
L 631.107422 180.030352 
L 631.652344 179.558672 
L 632.197266 179.245928 
L 632.742188 178.646074 
L 633.287109 178.594805 
L 634.376953 178.928057 
L 634.921875 178.92293 
L 635.466797 178.681963 
L 636.011719 178.892168 
L 636.556641 178.630693 
L 637.101562 178.558916 
L 637.646484 178.051348 
L 638.191406 177.902666 
L 639.28125 176.749102 
L 640.371094 176.379961 
L 640.916016 176.031328 
L 641.460938 175.544268 
L 642.550781 174.175371 
L 643.095703 174.288164 
L 643.640625 173.965166 
L 644.185547 173.888262 
L 645.275391 173.38582 
L 646.910156 172.621904 
L 647.455078 172.632158 
L 647.455078 172.632158 
" style="fill:none;stroke:#4c72b0;stroke-linecap:round;stroke-width:1.75;"/>
   </g>
   <g id="patch_3">
    <path d="M 90 270.72 
L 90 69.12 
" style="fill:none;stroke:#262626;stroke-linecap:square;stroke-linejoin:miter;stroke-width:1.25;"/>
   </g>
   <g id="patch_4">
    <path d="M 90 270.72 
L 648 270.72 
" style="fill:none;stroke:#262626;stroke-linecap:square;stroke-linejoin:miter;stroke-width:1.25;"/>
   </g>
  </g>
  <g id="axes_2">
   <g id="patch_5">
    <path d="M 90 512.64 
L 648 512.64 
L 648 311.04 
L 90 311.04 
z
" style="fill:#ffffff;"/>
   </g>
   <g id="matplotlib.axis_3">
    <g id="xtick_7">
     <g id="line2d_15">
      <g>
       <use style="fill:#262626;stroke:#262626;" x="218.197478" xlink:href="#m2f59ef84f8" y="512.64"/>
      </g>
     </g>
     <g id="text_14">
      <!-- $\mathdefault{10^{2}}$ -->
      <g style="fill:#262626;" transform="translate(210.347478 535.9525)scale(0.1 -0.1)">
       <use transform="translate(0 0.99375)" xlink:href="#ArialMT-31"/>
       <use transform="translate(55.615234 0.99375)" xlink:href="#ArialMT-30"/>
       <use transform="translate(112.972813 70.6875)scale(0.7)" xlink:href="#ArialMT-32"/>
      </g>
     </g>
    </g>
    <g id="xtick_8">
     <g id="line2d_16">
      <g>
       <use style="fill:#262626;stroke:#262626;" x="401.606604" xlink:href="#m2f59ef84f8" y="512.64"/>
      </g>
     </g>
     <g id="text_15">
      <!-- $\mathdefault{10^{3}}$ -->
      <defs>
       <path d="M 4.203125 18.890625 
L 12.984375 20.0625 
Q 14.5 12.59375 18.140625 9.296875 
Q 21.78125 6 27 6 
Q 33.203125 6 37.46875 10.296875 
Q 41.75 14.59375 41.75 20.953125 
Q 41.75 27 37.796875 30.921875 
Q 33.84375 34.859375 27.734375 34.859375 
Q 25.25 34.859375 21.53125 33.890625 
L 22.515625 41.609375 
Q 23.390625 41.5 23.921875 41.5 
Q 29.546875 41.5 34.03125 44.421875 
Q 38.53125 47.359375 38.53125 53.46875 
Q 38.53125 58.296875 35.25 61.46875 
Q 31.984375 64.65625 26.8125 64.65625 
Q 21.6875 64.65625 18.265625 61.421875 
Q 14.84375 58.203125 13.875 51.765625 
L 5.078125 53.328125 
Q 6.6875 62.15625 12.390625 67.015625 
Q 18.109375 71.875 26.609375 71.875 
Q 32.46875 71.875 37.390625 69.359375 
Q 42.328125 66.84375 44.9375 62.5 
Q 47.5625 58.15625 47.5625 53.265625 
Q 47.5625 48.640625 45.0625 44.828125 
Q 42.578125 41.015625 37.703125 38.765625 
Q 44.046875 37.3125 47.5625 32.6875 
Q 51.078125 28.078125 51.078125 21.140625 
Q 51.078125 11.765625 44.234375 5.25 
Q 37.40625 -1.265625 26.953125 -1.265625 
Q 17.53125 -1.265625 11.296875 4.34375 
Q 5.078125 9.96875 4.203125 18.890625 
z
" id="ArialMT-33"/>
      </defs>
      <g style="fill:#262626;" transform="translate(393.756604 535.9525)scale(0.1 -0.1)">
       <use transform="translate(0 0.99375)" xlink:href="#ArialMT-31"/>
       <use transform="translate(55.615234 0.99375)" xlink:href="#ArialMT-30"/>
       <use transform="translate(112.972813 70.6875)scale(0.7)" xlink:href="#ArialMT-33"/>
      </g>
     </g>
    </g>
    <g id="xtick_9">
     <g id="line2d_17">
      <g>
       <use style="fill:#262626;stroke:#262626;" x="585.01573" xlink:href="#m2f59ef84f8" y="512.64"/>
      </g>
     </g>
     <g id="text_16">
      <!-- $\mathdefault{10^{4}}$ -->
      <g style="fill:#262626;" transform="translate(577.16573 535.8525)scale(0.1 -0.1)">
       <use transform="translate(0 0.201563)" xlink:href="#ArialMT-31"/>
       <use transform="translate(55.615234 0.201563)" xlink:href="#ArialMT-30"/>
       <use transform="translate(112.972813 69.895313)scale(0.7)" xlink:href="#ArialMT-34"/>
      </g>
     </g>
    </g>
    <g id="xtick_10">
     <g id="line2d_18">
      <defs>
       <path d="M 0 0 
L 0 3 
" id="m189d18a267" style="stroke:#262626;stroke-width:0.5;"/>
      </defs>
      <g>
       <use style="fill:#262626;stroke:#262626;stroke-width:0.5;" x="90" xlink:href="#m189d18a267" y="512.64"/>
      </g>
     </g>
    </g>
    <g id="xtick_11">
     <g id="line2d_19">
      <g>
       <use style="fill:#262626;stroke:#262626;stroke-width:0.5;" x="122.296744" xlink:href="#m189d18a267" y="512.64"/>
      </g>
     </g>
    </g>
    <g id="xtick_12">
     <g id="line2d_20">
      <g>
       <use style="fill:#262626;stroke:#262626;stroke-width:0.5;" x="145.211648" xlink:href="#m189d18a267" y="512.64"/>
      </g>
     </g>
    </g>
    <g id="xtick_13">
     <g id="line2d_21">
      <g>
       <use style="fill:#262626;stroke:#262626;stroke-width:0.5;" x="162.985829" xlink:href="#m189d18a267" y="512.64"/>
      </g>
     </g>
    </g>
    <g id="xtick_14">
     <g id="line2d_22">
      <g>
       <use style="fill:#262626;stroke:#262626;stroke-width:0.5;" x="177.508392" xlink:href="#m189d18a267" y="512.64"/>
      </g>
     </g>
    </g>
    <g id="xtick_15">
     <g id="line2d_23">
      <g>
       <use style="fill:#262626;stroke:#262626;stroke-width:0.5;" x="189.787045" xlink:href="#m189d18a267" y="512.64"/>
      </g>
     </g>
    </g>
    <g id="xtick_16">
     <g id="line2d_24">
      <g>
       <use style="fill:#262626;stroke:#262626;stroke-width:0.5;" x="200.423297" xlink:href="#m189d18a267" y="512.64"/>
      </g>
     </g>
    </g>
    <g id="xtick_17">
     <g id="line2d_25">
      <g>
       <use style="fill:#262626;stroke:#262626;stroke-width:0.5;" x="209.805136" xlink:href="#m189d18a267" y="512.64"/>
      </g>
     </g>
    </g>
    <g id="xtick_18">
     <g id="line2d_26">
      <g>
       <use style="fill:#262626;stroke:#262626;stroke-width:0.5;" x="273.409126" xlink:href="#m189d18a267" y="512.64"/>
      </g>
     </g>
    </g>
    <g id="xtick_19">
     <g id="line2d_27">
      <g>
       <use style="fill:#262626;stroke:#262626;stroke-width:0.5;" x="305.70587" xlink:href="#m189d18a267" y="512.64"/>
      </g>
     </g>
    </g>
    <g id="xtick_20">
     <g id="line2d_28">
      <g>
       <use style="fill:#262626;stroke:#262626;stroke-width:0.5;" x="328.620775" xlink:href="#m189d18a267" y="512.64"/>
      </g>
     </g>
    </g>
    <g id="xtick_21">
     <g id="line2d_29">
      <g>
       <use style="fill:#262626;stroke:#262626;stroke-width:0.5;" x="346.394955" xlink:href="#m189d18a267" y="512.64"/>
      </g>
     </g>
    </g>
    <g id="xtick_22">
     <g id="line2d_30">
      <g>
       <use style="fill:#262626;stroke:#262626;stroke-width:0.5;" x="360.917518" xlink:href="#m189d18a267" y="512.64"/>
      </g>
     </g>
    </g>
    <g id="xtick_23">
     <g id="line2d_31">
      <g>
       <use style="fill:#262626;stroke:#262626;stroke-width:0.5;" x="373.196171" xlink:href="#m189d18a267" y="512.64"/>
      </g>
     </g>
    </g>
    <g id="xtick_24">
     <g id="line2d_32">
      <g>
       <use style="fill:#262626;stroke:#262626;stroke-width:0.5;" x="383.832423" xlink:href="#m189d18a267" y="512.64"/>
      </g>
     </g>
    </g>
    <g id="xtick_25">
     <g id="line2d_33">
      <g>
       <use style="fill:#262626;stroke:#262626;stroke-width:0.5;" x="393.214262" xlink:href="#m189d18a267" y="512.64"/>
      </g>
     </g>
    </g>
    <g id="xtick_26">
     <g id="line2d_34">
      <g>
       <use style="fill:#262626;stroke:#262626;stroke-width:0.5;" x="456.818252" xlink:href="#m189d18a267" y="512.64"/>
      </g>
     </g>
    </g>
    <g id="xtick_27">
     <g id="line2d_35">
      <g>
       <use style="fill:#262626;stroke:#262626;stroke-width:0.5;" x="489.114996" xlink:href="#m189d18a267" y="512.64"/>
      </g>
     </g>
    </g>
    <g id="xtick_28">
     <g id="line2d_36">
      <g>
       <use style="fill:#262626;stroke:#262626;stroke-width:0.5;" x="512.029901" xlink:href="#m189d18a267" y="512.64"/>
      </g>
     </g>
    </g>
    <g id="xtick_29">
     <g id="line2d_37">
      <g>
       <use style="fill:#262626;stroke:#262626;stroke-width:0.5;" x="529.804081" xlink:href="#m189d18a267" y="512.64"/>
      </g>
     </g>
    </g>
    <g id="xtick_30">
     <g id="line2d_38">
      <g>
       <use style="fill:#262626;stroke:#262626;stroke-width:0.5;" x="544.326645" xlink:href="#m189d18a267" y="512.64"/>
      </g>
     </g>
    </g>
    <g id="xtick_31">
     <g id="line2d_39">
      <g>
       <use style="fill:#262626;stroke:#262626;stroke-width:0.5;" x="556.605297" xlink:href="#m189d18a267" y="512.64"/>
      </g>
     </g>
    </g>
    <g id="xtick_32">
     <g id="line2d_40">
      <g>
       <use style="fill:#262626;stroke:#262626;stroke-width:0.5;" x="567.241549" xlink:href="#m189d18a267" y="512.64"/>
      </g>
     </g>
    </g>
    <g id="xtick_33">
     <g id="line2d_41">
      <g>
       <use style="fill:#262626;stroke:#262626;stroke-width:0.5;" x="576.623389" xlink:href="#m189d18a267" y="512.64"/>
      </g>
     </g>
    </g>
    <g id="xtick_34">
     <g id="line2d_42">
      <g>
       <use style="fill:#262626;stroke:#262626;stroke-width:0.5;" x="640.227378" xlink:href="#m189d18a267" y="512.64"/>
      </g>
     </g>
    </g>
   </g>
   <g id="matplotlib.axis_4">
    <g id="ytick_8">
     <g id="line2d_43">
      <g>
       <use style="fill:#262626;stroke:#262626;" x="90" xlink:href="#mcb2d3e6c87" y="512.64"/>
      </g>
     </g>
     <g id="text_17">
      <!-- $\mathdefault{10^{-5}}$ -->
      <defs>
       <path d="M 4.15625 18.75 
L 13.375 19.53125 
Q 14.40625 12.796875 18.140625 9.390625 
Q 21.875 6 27.15625 6 
Q 33.5 6 37.890625 10.78125 
Q 42.28125 15.578125 42.28125 23.484375 
Q 42.28125 31 38.0625 35.34375 
Q 33.84375 39.703125 27 39.703125 
Q 22.75 39.703125 19.328125 37.765625 
Q 15.921875 35.84375 13.96875 32.765625 
L 5.71875 33.84375 
L 12.640625 70.609375 
L 48.25 70.609375 
L 48.25 62.203125 
L 19.671875 62.203125 
L 15.828125 42.96875 
Q 22.265625 47.46875 29.34375 47.46875 
Q 38.71875 47.46875 45.15625 40.96875 
Q 51.609375 34.46875 51.609375 24.265625 
Q 51.609375 14.546875 45.953125 7.46875 
Q 39.0625 -1.21875 27.15625 -1.21875 
Q 17.390625 -1.21875 11.203125 4.25 
Q 5.03125 9.71875 4.15625 18.75 
z
" id="ArialMT-35"/>
      </defs>
      <g style="fill:#262626;" transform="translate(57.2 517.74625)scale(0.1 -0.1)">
       <use transform="translate(0 0.879688)" xlink:href="#ArialMT-31"/>
       <use transform="translate(55.615234 0.879688)" xlink:href="#ArialMT-30"/>
       <use transform="translate(112.972813 70.573438)scale(0.7)" xlink:href="#ArialMT-2212"/>
       <use transform="translate(153.851719 70.573438)scale(0.7)" xlink:href="#ArialMT-35"/>
      </g>
     </g>
    </g>
    <g id="ytick_9">
     <g id="line2d_44">
      <g>
       <use style="fill:#262626;stroke:#262626;" x="90" xlink:href="#mcb2d3e6c87" y="465.767507"/>
      </g>
     </g>
     <g id="text_18">
      <!-- $\mathdefault{10^{-4}}$ -->
      <g style="fill:#262626;" transform="translate(57.2 470.873757)scale(0.1 -0.1)">
       <use transform="translate(0 0.201563)" xlink:href="#ArialMT-31"/>
       <use transform="translate(55.615234 0.201563)" xlink:href="#ArialMT-30"/>
       <use transform="translate(112.972813 69.895313)scale(0.7)" xlink:href="#ArialMT-2212"/>
       <use transform="translate(153.851719 69.895313)scale(0.7)" xlink:href="#ArialMT-34"/>
      </g>
     </g>
    </g>
    <g id="ytick_10">
     <g id="line2d_45">
      <g>
       <use style="fill:#262626;stroke:#262626;" x="90" xlink:href="#mcb2d3e6c87" y="418.895013"/>
      </g>
     </g>
     <g id="text_19">
      <!-- $\mathdefault{10^{-3}}$ -->
      <g style="fill:#262626;" transform="translate(57.2 424.051263)scale(0.1 -0.1)">
       <use transform="translate(0 0.99375)" xlink:href="#ArialMT-31"/>
       <use transform="translate(55.615234 0.99375)" xlink:href="#ArialMT-30"/>
       <use transform="translate(112.972813 70.6875)scale(0.7)" xlink:href="#ArialMT-2212"/>
       <use transform="translate(153.851719 70.6875)scale(0.7)" xlink:href="#ArialMT-33"/>
      </g>
     </g>
    </g>
    <g id="ytick_11">
     <g id="line2d_46">
      <g>
       <use style="fill:#262626;stroke:#262626;" x="90" xlink:href="#mcb2d3e6c87" y="372.02252"/>
      </g>
     </g>
     <g id="text_20">
      <!-- $\mathdefault{10^{-2}}$ -->
      <g style="fill:#262626;" transform="translate(57.2 377.17877)scale(0.1 -0.1)">
       <use transform="translate(0 0.99375)" xlink:href="#ArialMT-31"/>
       <use transform="translate(55.615234 0.99375)" xlink:href="#ArialMT-30"/>
       <use transform="translate(112.972813 70.6875)scale(0.7)" xlink:href="#ArialMT-2212"/>
       <use transform="translate(153.851719 70.6875)scale(0.7)" xlink:href="#ArialMT-32"/>
      </g>
     </g>
    </g>
    <g id="ytick_12">
     <g id="line2d_47">
      <g>
       <use style="fill:#262626;stroke:#262626;" x="90" xlink:href="#mcb2d3e6c87" y="325.150026"/>
      </g>
     </g>
     <g id="text_21">
      <!-- $\mathdefault{10^{-1}}$ -->
      <g style="fill:#262626;" transform="translate(57.2 330.306276)scale(0.1 -0.1)">
       <use transform="translate(0 0.99375)" xlink:href="#ArialMT-31"/>
       <use transform="translate(55.615234 0.99375)" xlink:href="#ArialMT-30"/>
       <use transform="translate(112.972813 70.6875)scale(0.7)" xlink:href="#ArialMT-2212"/>
       <use transform="translate(153.851719 70.6875)scale(0.7)" xlink:href="#ArialMT-31"/>
      </g>
     </g>
    </g>
    <g id="ytick_13">
     <g id="line2d_48">
      <defs>
       <path d="M 0 0 
L -3 0 
" id="m972af1bee6" style="stroke:#262626;stroke-width:0.5;"/>
      </defs>
      <g>
       <use style="fill:#262626;stroke:#262626;stroke-width:0.5;" x="90" xlink:href="#m972af1bee6" y="498.529974"/>
      </g>
     </g>
    </g>
    <g id="ytick_14">
     <g id="line2d_49">
      <g>
       <use style="fill:#262626;stroke:#262626;stroke-width:0.5;" x="90" xlink:href="#m972af1bee6" y="490.276137"/>
      </g>
     </g>
    </g>
    <g id="ytick_15">
     <g id="line2d_50">
      <g>
       <use style="fill:#262626;stroke:#262626;stroke-width:0.5;" x="90" xlink:href="#m972af1bee6" y="484.419947"/>
      </g>
     </g>
    </g>
    <g id="ytick_16">
     <g id="line2d_51">
      <g>
       <use style="fill:#262626;stroke:#262626;stroke-width:0.5;" x="90" xlink:href="#m972af1bee6" y="479.877533"/>
      </g>
     </g>
    </g>
    <g id="ytick_17">
     <g id="line2d_52">
      <g>
       <use style="fill:#262626;stroke:#262626;stroke-width:0.5;" x="90" xlink:href="#m972af1bee6" y="476.166111"/>
      </g>
     </g>
    </g>
    <g id="ytick_18">
     <g id="line2d_53">
      <g>
       <use style="fill:#262626;stroke:#262626;stroke-width:0.5;" x="90" xlink:href="#m972af1bee6" y="473.028148"/>
      </g>
     </g>
    </g>
    <g id="ytick_19">
     <g id="line2d_54">
      <g>
       <use style="fill:#262626;stroke:#262626;stroke-width:0.5;" x="90" xlink:href="#m972af1bee6" y="470.309921"/>
      </g>
     </g>
    </g>
    <g id="ytick_20">
     <g id="line2d_55">
      <g>
       <use style="fill:#262626;stroke:#262626;stroke-width:0.5;" x="90" xlink:href="#m972af1bee6" y="467.912274"/>
      </g>
     </g>
    </g>
    <g id="ytick_21">
     <g id="line2d_56">
      <g>
       <use style="fill:#262626;stroke:#262626;stroke-width:0.5;" x="90" xlink:href="#m972af1bee6" y="451.65748"/>
      </g>
     </g>
    </g>
    <g id="ytick_22">
     <g id="line2d_57">
      <g>
       <use style="fill:#262626;stroke:#262626;stroke-width:0.5;" x="90" xlink:href="#m972af1bee6" y="443.403644"/>
      </g>
     </g>
    </g>
    <g id="ytick_23">
     <g id="line2d_58">
      <g>
       <use style="fill:#262626;stroke:#262626;stroke-width:0.5;" x="90" xlink:href="#m972af1bee6" y="437.547454"/>
      </g>
     </g>
    </g>
    <g id="ytick_24">
     <g id="line2d_59">
      <g>
       <use style="fill:#262626;stroke:#262626;stroke-width:0.5;" x="90" xlink:href="#m972af1bee6" y="433.00504"/>
      </g>
     </g>
    </g>
    <g id="ytick_25">
     <g id="line2d_60">
      <g>
       <use style="fill:#262626;stroke:#262626;stroke-width:0.5;" x="90" xlink:href="#m972af1bee6" y="429.293617"/>
      </g>
     </g>
    </g>
    <g id="ytick_26">
     <g id="line2d_61">
      <g>
       <use style="fill:#262626;stroke:#262626;stroke-width:0.5;" x="90" xlink:href="#m972af1bee6" y="426.155654"/>
      </g>
     </g>
    </g>
    <g id="ytick_27">
     <g id="line2d_62">
      <g>
       <use style="fill:#262626;stroke:#262626;stroke-width:0.5;" x="90" xlink:href="#m972af1bee6" y="423.437427"/>
      </g>
     </g>
    </g>
    <g id="ytick_28">
     <g id="line2d_63">
      <g>
       <use style="fill:#262626;stroke:#262626;stroke-width:0.5;" x="90" xlink:href="#m972af1bee6" y="421.039781"/>
      </g>
     </g>
    </g>
    <g id="ytick_29">
     <g id="line2d_64">
      <g>
       <use style="fill:#262626;stroke:#262626;stroke-width:0.5;" x="90" xlink:href="#m972af1bee6" y="404.784987"/>
      </g>
     </g>
    </g>
    <g id="ytick_30">
     <g id="line2d_65">
      <g>
       <use style="fill:#262626;stroke:#262626;stroke-width:0.5;" x="90" xlink:href="#m972af1bee6" y="396.53115"/>
      </g>
     </g>
    </g>
    <g id="ytick_31">
     <g id="line2d_66">
      <g>
       <use style="fill:#262626;stroke:#262626;stroke-width:0.5;" x="90" xlink:href="#m972af1bee6" y="390.67496"/>
      </g>
     </g>
    </g>
    <g id="ytick_32">
     <g id="line2d_67">
      <g>
       <use style="fill:#262626;stroke:#262626;stroke-width:0.5;" x="90" xlink:href="#m972af1bee6" y="386.132546"/>
      </g>
     </g>
    </g>
    <g id="ytick_33">
     <g id="line2d_68">
      <g>
       <use style="fill:#262626;stroke:#262626;stroke-width:0.5;" x="90" xlink:href="#m972af1bee6" y="382.421124"/>
      </g>
     </g>
    </g>
    <g id="ytick_34">
     <g id="line2d_69">
      <g>
       <use style="fill:#262626;stroke:#262626;stroke-width:0.5;" x="90" xlink:href="#m972af1bee6" y="379.283161"/>
      </g>
     </g>
    </g>
    <g id="ytick_35">
     <g id="line2d_70">
      <g>
       <use style="fill:#262626;stroke:#262626;stroke-width:0.5;" x="90" xlink:href="#m972af1bee6" y="376.564934"/>
      </g>
     </g>
    </g>
    <g id="ytick_36">
     <g id="line2d_71">
      <g>
       <use style="fill:#262626;stroke:#262626;stroke-width:0.5;" x="90" xlink:href="#m972af1bee6" y="374.167288"/>
      </g>
     </g>
    </g>
    <g id="ytick_37">
     <g id="line2d_72">
      <g>
       <use style="fill:#262626;stroke:#262626;stroke-width:0.5;" x="90" xlink:href="#m972af1bee6" y="357.912493"/>
      </g>
     </g>
    </g>
    <g id="ytick_38">
     <g id="line2d_73">
      <g>
       <use style="fill:#262626;stroke:#262626;stroke-width:0.5;" x="90" xlink:href="#m972af1bee6" y="349.658657"/>
      </g>
     </g>
    </g>
    <g id="ytick_39">
     <g id="line2d_74">
      <g>
       <use style="fill:#262626;stroke:#262626;stroke-width:0.5;" x="90" xlink:href="#m972af1bee6" y="343.802467"/>
      </g>
     </g>
    </g>
    <g id="ytick_40">
     <g id="line2d_75">
      <g>
       <use style="fill:#262626;stroke:#262626;stroke-width:0.5;" x="90" xlink:href="#m972af1bee6" y="339.260053"/>
      </g>
     </g>
    </g>
    <g id="ytick_41">
     <g id="line2d_76">
      <g>
       <use style="fill:#262626;stroke:#262626;stroke-width:0.5;" x="90" xlink:href="#m972af1bee6" y="335.548631"/>
      </g>
     </g>
    </g>
    <g id="ytick_42">
     <g id="line2d_77">
      <g>
       <use style="fill:#262626;stroke:#262626;stroke-width:0.5;" x="90" xlink:href="#m972af1bee6" y="332.410668"/>
      </g>
     </g>
    </g>
    <g id="ytick_43">
     <g id="line2d_78">
      <g>
       <use style="fill:#262626;stroke:#262626;stroke-width:0.5;" x="90" xlink:href="#m972af1bee6" y="329.69244"/>
      </g>
     </g>
    </g>
    <g id="ytick_44">
     <g id="line2d_79">
      <g>
       <use style="fill:#262626;stroke:#262626;stroke-width:0.5;" x="90" xlink:href="#m972af1bee6" y="327.294794"/>
      </g>
     </g>
    </g>
    <g id="ytick_45">
     <g id="line2d_80">
      <g>
       <use style="fill:#262626;stroke:#262626;stroke-width:0.5;" x="90" xlink:href="#m972af1bee6" y="311.04"/>
      </g>
     </g>
    </g>
   </g>
   <g id="line2d_81">
    <path clip-path="url(#pc461bb8499)" d="M -1 370.305619 
L 151.095164 370.298294 
L 206.306812 385.98885 
L 238.603556 396.888041 
L 261.518461 410.075625 
L 279.292642 407.286116 
L 293.815205 360.629527 
L 306.093857 433.021947 
L 316.730109 430.380272 
L 326.111949 420.8351 
L 334.50429 409.97482 
L 342.096086 402.068793 
L 349.026853 348.786824 
L 355.402541 397.078302 
L 361.305505 406.33778 
L 366.801034 420.039384 
L 371.941758 413.884 
L 376.770725 410.539648 
L 381.323597 377.828598 
L 385.630245 425.181845 
L 389.715939 451.995917 
L 393.602249 444.82796 
L 397.307735 431.047861 
L 400.848476 425.751396 
L 404.238502 383.76072 
L 407.490119 410.876156 
L 410.614189 439.38059 
L 413.620341 425.870914 
L 416.517154 442.077114 
L 419.312303 429.646962 
L 422.012683 409.240293 
L 424.624509 415.504039 
L 427.153406 436.672692 
L 429.604479 430.286626 
L 431.982374 450.047087 
L 434.291335 434.166205 
L 436.535246 413.360177 
L 438.717672 414.505177 
L 440.841893 443.511117 
L 442.910933 425.679529 
L 444.927587 433.079587 
L 446.894442 448.207011 
L 448.813898 442.453185 
L 450.688186 417.235031 
L 452.519383 445.353873 
L 454.309426 437.439099 
L 456.060125 452.110456 
L 457.773171 487.171238 
L 459.45015 452.872311 
L 461.09255 446.089368 
L 462.701768 468.30337 
L 464.279118 453.890991 
L 465.825838 451.986779 
L 467.343094 472.050188 
L 468.83199 471.16424 
L 470.293564 455.589833 
L 471.728802 474.410791 
L 473.138637 472.3983 
L 474.523951 482.663639 
L 475.885584 468.350718 
L 477.224331 456.596162 
L 478.540949 457.780505 
L 479.836157 447.005554 
L 481.110642 490.78946 
L 482.365055 458.297483 
L 483.600019 477.426222 
L 484.816127 471.423939 
L 486.013948 481.526868 
L 487.194022 513.403094 
L 488.356869 470.802127 
L 489.502983 482.198311 
L 490.63284 480.763211 
L 491.746894 483.221871 
L 492.845581 485.990258 
L 493.92932 476.192547 
L 494.998512 491.291845 
L 496.053541 481.993971 
L 497.094779 487.642029 
L 498.122582 492.315082 
L 499.137291 472.488715 
L 500.139235 481.533395 
L 501.128734 474.573689 
L 502.10609 477.312557 
L 503.0716 501.814038 
L 504.025546 503.293654 
L 504.968203 467.661416 
L 505.899834 511.293736 
L 506.820695 480.452509 
L 507.731032 501.762844 
L 508.631082 484.210554 
L 509.521075 477.403247 
L 510.401234 466.365501 
L 511.271773 447.199257 
L 512.984819 518.192989 
L 513.827722 471.983753 
L 514.661799 504.921087 
L 515.487232 463.028034 
L 516.304198 487.635004 
L 517.112871 505.669324 
L 517.913416 477.13051 
L 518.705996 465.869966 
L 519.490766 467.785258 
L 520.26788 467.284022 
L 521.037486 513.691757 
L 521.799727 477.279096 
L 522.554743 466.317245 
L 523.302669 477.256863 
L 524.043638 480.923462 
L 524.777778 510.110079 
L 525.505212 473.812677 
L 526.226064 483.65181 
L 526.940451 489.664534 
L 527.648487 497.909216 
L 528.350285 467.202401 
L 529.045954 503.679884 
L 529.7356 469.608089 
L 530.419326 490.50018 
L 531.097232 479.197032 
L 531.769418 476.989644 
L 532.435979 518.618951 
L 533.097009 480.348818 
L 533.752597 478.967377 
L 534.402834 508.733114 
L 535.047806 486.107292 
L 535.687597 475.081543 
L 536.32229 471.891145 
L 536.951966 464.911541 
L 537.576703 501.837822 
L 538.196578 465.72855 
L 538.811667 489.251176 
L 539.422042 465.266993 
L 540.027776 474.967693 
L 540.628938 476.104231 
L 541.225596 474.556633 
L 541.817819 497.406404 
L 542.405671 479.528542 
L 542.989216 479.487584 
L 543.568517 472.071929 
L 544.143636 480.829534 
L 544.714632 478.912525 
L 545.844488 467.576064 
L 546.403463 485.471758 
L 546.958543 474.227911 
L 548.05723 482.685731 
L 548.600942 486.394842 
L 549.140969 483.914314 
L 549.677358 496.800258 
L 550.21016 473.36075 
L 550.739422 499.377148 
L 551.26519 470.650749 
L 551.78751 483.143533 
L 552.821987 477.773143 
L 553.33423 468.91326 
L 553.8432 491.373556 
L 554.348939 490.047488 
L 554.851487 483.209483 
L 555.350884 483.311563 
L 555.847169 468.312328 
L 556.340382 487.544039 
L 556.830559 487.957785 
L 557.317739 497.527082 
L 557.801956 503.562195 
L 558.283248 490.556118 
L 558.76165 494.225393 
L 559.237195 476.181264 
L 559.709918 486.327214 
L 560.179852 499.250424 
L 561.111483 487.323726 
L 561.573244 485.83802 
L 562.032344 557.128354 
L 562.488812 487.457768 
L 562.94268 502.758631 
L 563.393976 485.795216 
L 563.84273 519.366071 
L 564.28897 480.793217 
L 564.732723 483.430826 
L 565.612882 470.933497 
L 566.049341 483.412222 
L 566.483422 469.559322 
L 566.91515 468.712588 
L 567.34455 476.484209 
L 567.771648 502.893573 
L 568.196468 482.228173 
L 569.039371 468.761244 
L 569.457501 491.620069 
L 569.873447 473.037165 
L 570.287233 479.564756 
L 570.69888 495.237037 
L 571.108411 472.850849 
L 571.515847 490.88713 
L 571.921209 486.054227 
L 572.32452 485.499664 
L 572.725798 489.610829 
L 573.125065 468.28879 
L 573.52234 517.031699 
L 573.917644 472.751439 
L 574.310996 476.466315 
L 574.702415 484.058662 
L 575.091919 508.794308 
L 575.479529 500.87057 
L 575.865261 510.974796 
L 576.249135 490.985854 
L 576.631167 487.586959 
L 577.011376 480.37384 
L 577.389778 503.459921 
L 577.766391 485.136723 
L 578.141232 476.026057 
L 578.514318 474.698077 
L 578.885664 486.309582 
L 579.255287 473.207635 
L 579.623202 499.580258 
L 579.989426 487.50243 
L 580.353974 480.364969 
L 580.716861 487.68411 
L 581.078102 506.275766 
L 581.437713 488.840539 
L 581.795707 495.038615 
L 582.152099 479.957575 
L 582.506904 494.306333 
L 583.211808 487.202932 
L 583.561934 489.737537 
L 583.910528 539.373867 
L 584.257603 501.419982 
L 584.603172 491.059567 
L 584.947248 472.089515 
L 585.289845 473.063226 
L 585.630974 492.288288 
L 585.970649 494.861713 
L 586.308881 468.26769 
L 586.645683 477.308837 
L 586.981067 517.780827 
L 587.315045 467.118957 
L 587.647628 460.838505 
L 587.978828 489.494012 
L 588.308657 473.754005 
L 588.637126 477.248622 
L 588.964246 475.518142 
L 589.290028 476.451696 
L 589.614483 486.009485 
L 589.937621 490.513725 
L 590.259454 476.242113 
L 590.579992 487.61747 
L 590.899246 486.992757 
L 591.217224 502.58008 
L 591.533939 483.713004 
L 591.849399 490.735738 
L 592.163614 504.431868 
L 592.476596 492.716482 
L 592.788352 488.204161 
L 593.098892 495.322632 
L 593.408227 492.075518 
L 593.716365 486.744371 
L 594.023315 511.900708 
L 594.633691 499.503992 
L 594.937133 483.131675 
L 595.239424 491.915521 
L 595.540572 489.748276 
L 595.840586 495.481353 
L 596.437245 480.270408 
L 596.733906 503.063859 
L 597.029467 469.762435 
L 597.323936 473.31118 
L 597.909626 502.229257 
L 598.200864 480.696021 
L 598.491042 479.257559 
L 598.780166 480.160085 
L 599.068244 512.54384 
L 599.355284 503.223707 
L 599.92628 475.371696 
L 600.21025 481.980249 
L 600.775172 487.597704 
L 601.056137 474.813217 
L 601.336115 467.776768 
L 601.893135 481.524968 
L 602.170191 495.428533 
L 602.721429 486.127581 
L 602.995624 484.873751 
L 603.268878 515.585938 
L 603.541199 483.031282 
L 603.812591 496.957063 
L 604.083062 500.291501 
L 604.352617 489.349469 
L 604.621264 497.061917 
L 604.889007 492.52944 
L 605.155853 481.522301 
L 605.421809 514.982419 
L 605.95107 489.853294 
L 606.214388 491.592831 
L 606.476838 491.665215 
L 606.738427 480.748341 
L 606.999159 516.046621 
L 607.25904 478.802986 
L 607.518076 493.413081 
L 607.776273 494.7905 
L 608.033635 522.671515 
L 608.290169 537.656102 
L 608.545879 501.418848 
L 608.80077 493.862802 
L 609.054849 494.379918 
L 609.308119 503.420755 
L 609.560587 499.298667 
L 609.812258 504.481434 
L 610.063135 495.255944 
L 610.562532 488.247547 
L 610.811062 505.632591 
L 611.058818 486.574736 
L 611.305806 509.708723 
L 611.55203 479.094325 
L 611.797496 521.647462 
L 612.042208 481.558507 
L 612.529387 524.112623 
L 612.771864 521.804282 
L 613.013605 481.622107 
L 613.254614 503.368204 
L 613.494897 487.42863 
L 613.734457 498.251338 
L 613.973298 502.988482 
L 614.211426 485.457762 
L 614.448843 490.921727 
L 614.685555 502.835635 
L 614.921566 476.448551 
L 615.3915 511.232421 
L 615.625431 508.971503 
L 615.858678 491.928902 
L 616.091243 526.953461 
L 616.323131 497.997101 
L 616.554347 504.139705 
L 616.784892 489.992562 
L 617.472553 511.708885 
L 617.700461 509.077844 
L 617.927718 497.87919 
L 618.380296 516.022733 
L 618.605625 511.068055 
L 618.830318 486.723269 
L 619.054379 481.542688 
L 619.277811 534.164232 
L 619.500618 504.70574 
L 619.722804 506.593465 
L 619.944372 523.138816 
L 620.165325 508.427363 
L 620.385667 507.098503 
L 620.605401 506.957225 
L 620.824531 532.570395 
L 621.043059 500.791564 
L 621.26099 496.830409 
L 621.478326 510.855038 
L 621.69507 496.649637 
L 621.911227 494.27505 
L 622.126798 489.640946 
L 622.341787 489.571371 
L 622.556198 483.451824 
L 622.770034 493.775662 
L 622.983296 491.198643 
L 623.195989 510.807206 
L 623.61968 481.873955 
L 623.830683 481.969008 
L 624.251019 496.916501 
L 624.460358 500.195401 
L 624.877394 488.392838 
L 625.085096 530.001648 
L 625.292257 494.862068 
L 625.704971 521.183181 
L 625.910528 491.294669 
L 626.115557 492.444031 
L 626.320059 499.489846 
L 626.524038 498.653653 
L 626.727495 485.312003 
L 626.930435 480.850212 
L 627.132858 497.439501 
L 627.536168 505.953879 
L 627.73706 501.823908 
L 627.937446 502.614104 
L 628.13733 498.474468 
L 628.336713 511.456626 
L 628.535599 504.158478 
L 628.733989 483.498438 
L 628.931886 522.18171 
L 629.129293 493.152094 
L 629.326211 490.962189 
L 629.522644 494.677545 
L 629.718594 487.587546 
L 629.914063 485.801578 
L 630.109054 497.688021 
L 630.303568 490.834764 
L 630.497608 501.891303 
L 630.884277 488.910123 
L 631.07691 510.154495 
L 631.269078 489.320342 
L 631.460783 500.732348 
L 631.652028 492.980189 
L 631.842815 510.283072 
L 632.033146 490.432904 
L 632.223024 523.665636 
L 632.41245 514.671374 
L 632.601426 491.818657 
L 632.789956 491.064023 
L 633.165681 519.905571 
L 633.539642 503.128584 
L 633.725966 498.786372 
L 633.911856 486.93856 
L 634.097312 502.047636 
L 634.282338 499.920662 
L 634.466935 490.911135 
L 634.651105 497.362004 
L 634.83485 508.520318 
L 635.018173 489.050431 
L 635.383557 497.744011 
L 635.747272 521.653893 
L 635.928509 500.084674 
L 636.109335 557.915204 
L 636.289751 490.823264 
L 636.469759 493.588384 
L 636.649361 481.684302 
L 636.828559 480.022895 
L 637.007355 507.208759 
L 637.185751 491.01238 
L 637.363748 526.581654 
L 637.541348 496.301821 
L 637.718553 491.433749 
L 637.895364 492.372357 
L 638.071784 491.47733 
L 638.247814 495.506413 
L 638.423456 489.588566 
L 638.598712 497.267793 
L 638.773582 484.026784 
L 638.94807 484.904573 
L 639.122176 494.861266 
L 639.295903 498.044029 
L 639.469251 521.558645 
L 639.642223 495.727728 
L 639.987044 523.583651 
L 640.330379 497.605767 
L 640.501493 501.908898 
L 640.67224 486.726176 
L 640.842622 502.369479 
L 641.012641 494.366837 
L 641.182297 504.731855 
L 641.520529 501.044064 
L 641.689108 495.471418 
L 641.857331 494.210644 
L 642.0252 514.283691 
L 642.192715 490.846703 
L 642.359879 492.112992 
L 642.526693 494.833183 
L 642.693158 493.284959 
L 642.859276 488.542516 
L 643.025049 503.361238 
L 643.190477 543.55445 
L 643.355562 519.898861 
L 643.684709 503.706017 
L 643.848774 506.369091 
L 644.175894 494.469938 
L 644.338952 492.247604 
L 644.501676 522.266826 
L 644.664069 487.708232 
L 644.826131 510.850813 
L 644.987864 495.018639 
L 645.14927 500.73615 
L 645.310349 487.896513 
L 645.471103 529.231927 
L 645.631533 534.789268 
L 645.791641 487.675014 
L 645.951427 516.640916 
L 646.110894 518.549064 
L 646.270042 502.939982 
L 646.428873 513.348905 
L 646.587387 497.957188 
L 646.903473 520.021023 
L 647.061047 497.141158 
L 647.21831 540.506161 
L 647.375263 542.486548 
L 647.688244 493.791893 
L 647.844274 494.72648 
L 647.844274 494.72648 
" style="fill:none;stroke:#b22222;stroke-linecap:round;stroke-width:1.75;"/>
   </g>
   <g id="patch_6">
    <path d="M 90 512.64 
L 90 311.04 
" style="fill:none;stroke:#262626;stroke-linecap:square;stroke-linejoin:miter;stroke-width:1.25;"/>
   </g>
   <g id="patch_7">
    <path d="M 90 512.64 
L 648 512.64 
" style="fill:none;stroke:#262626;stroke-linecap:square;stroke-linejoin:miter;stroke-width:1.25;"/>
   </g>
  </g>
 </g>
 <defs>
  <clipPath id="pbc7a48c83c">
   <rect height="201.6" width="558" x="90" y="69.12"/>
  </clipPath>
  <clipPath id="pc461bb8499">
   <rect height="201.6" width="558" x="90" y="311.04"/>
  </clipPath>
 </defs>
</svg>
