<?xml version="1.0" encoding="utf-8" standalone="no"?>
<!DOCTYPE svg PUBLIC "-//W3C//DTD SVG 1.1//EN"
  "http://www.w3.org/Graphics/SVG/1.1/DTD/svg11.dtd">
<!-- Created with matplotlib (http://matplotlib.org/) -->
<svg height="576pt" version="1.1" viewBox="0 0 720 576" width="720pt" xmlns="http://www.w3.org/2000/svg" xmlns:xlink="http://www.w3.org/1999/xlink">
 <defs>
  <style type="text/css">
*{stroke-linecap:butt;stroke-linejoin:round;}
  </style>
 </defs>
 <g id="figure_1">
  <g id="patch_1">
   <path d="M 0 576 
L 720 576 
L 720 0 
L 0 0 
z
" style="fill:#ffffff;"/>
  </g>
  <g id="axes_1">
   <g id="patch_2">
    <path d="M 90 270.72 
L 648 270.72 
L 648 69.12 
L 90 69.12 
z
" style="fill:#ffffff;"/>
   </g>
   <g id="matplotlib.axis_1">
    <g id="xtick_1">
     <g id="line2d_1">
      <defs>
       <path d="M 0 0 
L 0 6 
" id="mf0ce9dc29e" style="stroke:#262626;"/>
      </defs>
      <g>
       <use style="fill:#262626;stroke:#262626;" x="90" xlink:href="#mf0ce9dc29e" y="270.72"/>
      </g>
     </g>
     <g id="text_1">
      <!-- 0 -->
      <defs>
       <path d="M 4.15625 35.296875 
Q 4.15625 48 6.765625 55.734375 
Q 9.375 63.484375 14.515625 67.671875 
Q 19.671875 71.875 27.484375 71.875 
Q 33.25 71.875 37.59375 69.546875 
Q 41.9375 67.234375 44.765625 62.859375 
Q 47.609375 58.5 49.21875 52.21875 
Q 50.828125 45.953125 50.828125 35.296875 
Q 50.828125 22.703125 48.234375 14.96875 
Q 45.65625 7.234375 40.5 3 
Q 35.359375 -1.21875 27.484375 -1.21875 
Q 17.140625 -1.21875 11.234375 6.203125 
Q 4.15625 15.140625 4.15625 35.296875 
z
M 13.1875 35.296875 
Q 13.1875 17.671875 17.3125 11.828125 
Q 21.4375 6 27.484375 6 
Q 33.546875 6 37.671875 11.859375 
Q 41.796875 17.71875 41.796875 35.296875 
Q 41.796875 52.984375 37.671875 58.78125 
Q 33.546875 64.59375 27.390625 64.59375 
Q 21.34375 64.59375 17.71875 59.46875 
Q 13.1875 52.9375 13.1875 35.296875 
z
" id="ArialMT-30"/>
      </defs>
      <g style="fill:#262626;" transform="translate(87.219531 290.877812)scale(0.1 -0.1)">
       <use xlink:href="#ArialMT-30"/>
      </g>
     </g>
    </g>
    <g id="xtick_2">
     <g id="line2d_2">
      <g>
       <use style="fill:#262626;stroke:#262626;" x="198.984375" xlink:href="#mf0ce9dc29e" y="270.72"/>
      </g>
     </g>
     <g id="text_2">
      <!-- 200 -->
      <defs>
       <path d="M 50.34375 8.453125 
L 50.34375 0 
L 3.03125 0 
Q 2.9375 3.171875 4.046875 6.109375 
Q 5.859375 10.9375 9.828125 15.625 
Q 13.8125 20.3125 21.34375 26.46875 
Q 33.015625 36.03125 37.109375 41.625 
Q 41.21875 47.21875 41.21875 52.203125 
Q 41.21875 57.421875 37.46875 61 
Q 33.734375 64.59375 27.734375 64.59375 
Q 21.390625 64.59375 17.578125 60.78125 
Q 13.765625 56.984375 13.71875 50.25 
L 4.6875 51.171875 
Q 5.609375 61.28125 11.65625 66.578125 
Q 17.71875 71.875 27.9375 71.875 
Q 38.234375 71.875 44.234375 66.15625 
Q 50.25 60.453125 50.25 52 
Q 50.25 47.703125 48.484375 43.546875 
Q 46.734375 39.40625 42.65625 34.8125 
Q 38.578125 30.21875 29.109375 22.21875 
Q 21.1875 15.578125 18.9375 13.203125 
Q 16.703125 10.84375 15.234375 8.453125 
z
" id="ArialMT-32"/>
      </defs>
      <g style="fill:#262626;" transform="translate(190.642969 290.877812)scale(0.1 -0.1)">
       <use xlink:href="#ArialMT-32"/>
       <use x="55.615234" xlink:href="#ArialMT-30"/>
       <use x="111.230469" xlink:href="#ArialMT-30"/>
      </g>
     </g>
    </g>
    <g id="xtick_3">
     <g id="line2d_3">
      <g>
       <use style="fill:#262626;stroke:#262626;" x="307.96875" xlink:href="#mf0ce9dc29e" y="270.72"/>
      </g>
     </g>
     <g id="text_3">
      <!-- 400 -->
      <defs>
       <path d="M 32.328125 0 
L 32.328125 17.140625 
L 1.265625 17.140625 
L 1.265625 25.203125 
L 33.9375 71.578125 
L 41.109375 71.578125 
L 41.109375 25.203125 
L 50.78125 25.203125 
L 50.78125 17.140625 
L 41.109375 17.140625 
L 41.109375 0 
z
M 32.328125 25.203125 
L 32.328125 57.46875 
L 9.90625 25.203125 
z
" id="ArialMT-34"/>
      </defs>
      <g style="fill:#262626;" transform="translate(299.627344 290.877812)scale(0.1 -0.1)">
       <use xlink:href="#ArialMT-34"/>
       <use x="55.615234" xlink:href="#ArialMT-30"/>
       <use x="111.230469" xlink:href="#ArialMT-30"/>
      </g>
     </g>
    </g>
    <g id="xtick_4">
     <g id="line2d_4">
      <g>
       <use style="fill:#262626;stroke:#262626;" x="416.953125" xlink:href="#mf0ce9dc29e" y="270.72"/>
      </g>
     </g>
     <g id="text_4">
      <!-- 600 -->
      <defs>
       <path d="M 49.75 54.046875 
L 41.015625 53.375 
Q 39.84375 58.546875 37.703125 60.890625 
Q 34.125 64.65625 28.90625 64.65625 
Q 24.703125 64.65625 21.53125 62.3125 
Q 17.390625 59.28125 14.984375 53.46875 
Q 12.59375 47.65625 12.5 36.921875 
Q 15.671875 41.75 20.265625 44.09375 
Q 24.859375 46.4375 29.890625 46.4375 
Q 38.671875 46.4375 44.84375 39.96875 
Q 51.03125 33.5 51.03125 23.25 
Q 51.03125 16.5 48.125 10.71875 
Q 45.21875 4.9375 40.140625 1.859375 
Q 35.0625 -1.21875 28.609375 -1.21875 
Q 17.625 -1.21875 10.6875 6.859375 
Q 3.765625 14.9375 3.765625 33.5 
Q 3.765625 54.25 11.421875 63.671875 
Q 18.109375 71.875 29.4375 71.875 
Q 37.890625 71.875 43.28125 67.140625 
Q 48.6875 62.40625 49.75 54.046875 
z
M 13.875 23.1875 
Q 13.875 18.65625 15.796875 14.5 
Q 17.71875 10.359375 21.1875 8.171875 
Q 24.65625 6 28.46875 6 
Q 34.03125 6 38.03125 10.484375 
Q 42.046875 14.984375 42.046875 22.703125 
Q 42.046875 30.125 38.078125 34.390625 
Q 34.125 38.671875 28.125 38.671875 
Q 22.171875 38.671875 18.015625 34.390625 
Q 13.875 30.125 13.875 23.1875 
z
" id="ArialMT-36"/>
      </defs>
      <g style="fill:#262626;" transform="translate(408.611719 290.877812)scale(0.1 -0.1)">
       <use xlink:href="#ArialMT-36"/>
       <use x="55.615234" xlink:href="#ArialMT-30"/>
       <use x="111.230469" xlink:href="#ArialMT-30"/>
      </g>
     </g>
    </g>
    <g id="xtick_5">
     <g id="line2d_5">
      <g>
       <use style="fill:#262626;stroke:#262626;" x="525.9375" xlink:href="#mf0ce9dc29e" y="270.72"/>
      </g>
     </g>
     <g id="text_5">
      <!-- 800 -->
      <defs>
       <path d="M 17.671875 38.8125 
Q 12.203125 40.828125 9.5625 44.53125 
Q 6.9375 48.25 6.9375 53.421875 
Q 6.9375 61.234375 12.546875 66.546875 
Q 18.171875 71.875 27.484375 71.875 
Q 36.859375 71.875 42.578125 66.421875 
Q 48.296875 60.984375 48.296875 53.171875 
Q 48.296875 48.1875 45.671875 44.5 
Q 43.0625 40.828125 37.75 38.8125 
Q 44.34375 36.671875 47.78125 31.875 
Q 51.21875 27.09375 51.21875 20.453125 
Q 51.21875 11.28125 44.71875 5.03125 
Q 38.234375 -1.21875 27.640625 -1.21875 
Q 17.046875 -1.21875 10.546875 5.046875 
Q 4.046875 11.328125 4.046875 20.703125 
Q 4.046875 27.6875 7.59375 32.390625 
Q 11.140625 37.109375 17.671875 38.8125 
z
M 15.921875 53.71875 
Q 15.921875 48.640625 19.1875 45.40625 
Q 22.46875 42.1875 27.6875 42.1875 
Q 32.765625 42.1875 36.015625 45.375 
Q 39.265625 48.578125 39.265625 53.21875 
Q 39.265625 58.0625 35.90625 61.359375 
Q 32.5625 64.65625 27.59375 64.65625 
Q 22.5625 64.65625 19.234375 61.421875 
Q 15.921875 58.203125 15.921875 53.71875 
z
M 13.09375 20.65625 
Q 13.09375 16.890625 14.875 13.375 
Q 16.65625 9.859375 20.171875 7.921875 
Q 23.6875 6 27.734375 6 
Q 34.03125 6 38.125 10.046875 
Q 42.234375 14.109375 42.234375 20.359375 
Q 42.234375 26.703125 38.015625 30.859375 
Q 33.796875 35.015625 27.4375 35.015625 
Q 21.234375 35.015625 17.15625 30.90625 
Q 13.09375 26.8125 13.09375 20.65625 
z
" id="ArialMT-38"/>
      </defs>
      <g style="fill:#262626;" transform="translate(517.596094 290.877812)scale(0.1 -0.1)">
       <use xlink:href="#ArialMT-38"/>
       <use x="55.615234" xlink:href="#ArialMT-30"/>
       <use x="111.230469" xlink:href="#ArialMT-30"/>
      </g>
     </g>
    </g>
    <g id="xtick_6">
     <g id="line2d_6">
      <g>
       <use style="fill:#262626;stroke:#262626;" x="634.921875" xlink:href="#mf0ce9dc29e" y="270.72"/>
      </g>
     </g>
     <g id="text_6">
      <!-- 1000 -->
      <defs>
       <path d="M 37.25 0 
L 28.46875 0 
L 28.46875 56 
Q 25.296875 52.984375 20.140625 49.953125 
Q 14.984375 46.921875 10.890625 45.40625 
L 10.890625 53.90625 
Q 18.265625 57.375 23.78125 62.296875 
Q 29.296875 67.234375 31.59375 71.875 
L 37.25 71.875 
z
" id="ArialMT-31"/>
      </defs>
      <g style="fill:#262626;" transform="translate(623.8 290.877812)scale(0.1 -0.1)">
       <use xlink:href="#ArialMT-31"/>
       <use x="55.615234" xlink:href="#ArialMT-30"/>
       <use x="111.230469" xlink:href="#ArialMT-30"/>
       <use x="166.845703" xlink:href="#ArialMT-30"/>
      </g>
     </g>
    </g>
   </g>
   <g id="matplotlib.axis_2">
    <g id="ytick_1">
     <g id="line2d_7">
      <defs>
       <path d="M 0 0 
L -6 0 
" id="ma694341695" style="stroke:#262626;"/>
      </defs>
      <g>
       <use style="fill:#262626;stroke:#262626;" x="90" xlink:href="#ma694341695" y="270.72"/>
      </g>
     </g>
     <g id="text_7">
      <!-- −0.6 -->
      <defs>
       <path d="M 52.828125 31.203125 
L 5.5625 31.203125 
L 5.5625 39.40625 
L 52.828125 39.40625 
z
" id="ArialMT-2212"/>
       <path d="M 9.078125 0 
L 9.078125 10.015625 
L 19.09375 10.015625 
L 19.09375 0 
z
" id="ArialMT-2e"/>
      </defs>
      <g style="fill:#262626;" transform="translate(57.259375 274.298906)scale(0.1 -0.1)">
       <use xlink:href="#ArialMT-2212"/>
       <use x="58.398438" xlink:href="#ArialMT-30"/>
       <use x="114.013672" xlink:href="#ArialMT-2e"/>
       <use x="141.796875" xlink:href="#ArialMT-36"/>
      </g>
     </g>
    </g>
    <g id="ytick_2">
     <g id="line2d_8">
      <g>
       <use style="fill:#262626;stroke:#262626;" x="90" xlink:href="#ma694341695" y="237.12"/>
      </g>
     </g>
     <g id="text_8">
      <!-- −0.4 -->
      <g style="fill:#262626;" transform="translate(57.259375 240.698906)scale(0.1 -0.1)">
       <use xlink:href="#ArialMT-2212"/>
       <use x="58.398438" xlink:href="#ArialMT-30"/>
       <use x="114.013672" xlink:href="#ArialMT-2e"/>
       <use x="141.796875" xlink:href="#ArialMT-34"/>
      </g>
     </g>
    </g>
    <g id="ytick_3">
     <g id="line2d_9">
      <g>
       <use style="fill:#262626;stroke:#262626;" x="90" xlink:href="#ma694341695" y="203.52"/>
      </g>
     </g>
     <g id="text_9">
      <!-- −0.2 -->
      <g style="fill:#262626;" transform="translate(57.259375 207.098906)scale(0.1 -0.1)">
       <use xlink:href="#ArialMT-2212"/>
       <use x="58.398438" xlink:href="#ArialMT-30"/>
       <use x="114.013672" xlink:href="#ArialMT-2e"/>
       <use x="141.796875" xlink:href="#ArialMT-32"/>
      </g>
     </g>
    </g>
    <g id="ytick_4">
     <g id="line2d_10">
      <g>
       <use style="fill:#262626;stroke:#262626;" x="90" xlink:href="#ma694341695" y="169.92"/>
      </g>
     </g>
     <g id="text_10">
      <!-- 0.0 -->
      <g style="fill:#262626;" transform="translate(63.1 173.498906)scale(0.1 -0.1)">
       <use xlink:href="#ArialMT-30"/>
       <use x="55.615234" xlink:href="#ArialMT-2e"/>
       <use x="83.398438" xlink:href="#ArialMT-30"/>
      </g>
     </g>
    </g>
    <g id="ytick_5">
     <g id="line2d_11">
      <g>
       <use style="fill:#262626;stroke:#262626;" x="90" xlink:href="#ma694341695" y="136.32"/>
      </g>
     </g>
     <g id="text_11">
      <!-- 0.2 -->
      <g style="fill:#262626;" transform="translate(63.1 139.898906)scale(0.1 -0.1)">
       <use xlink:href="#ArialMT-30"/>
       <use x="55.615234" xlink:href="#ArialMT-2e"/>
       <use x="83.398438" xlink:href="#ArialMT-32"/>
      </g>
     </g>
    </g>
    <g id="ytick_6">
     <g id="line2d_12">
      <g>
       <use style="fill:#262626;stroke:#262626;" x="90" xlink:href="#ma694341695" y="102.72"/>
      </g>
     </g>
     <g id="text_12">
      <!-- 0.4 -->
      <g style="fill:#262626;" transform="translate(63.1 106.298906)scale(0.1 -0.1)">
       <use xlink:href="#ArialMT-30"/>
       <use x="55.615234" xlink:href="#ArialMT-2e"/>
       <use x="83.398438" xlink:href="#ArialMT-34"/>
      </g>
     </g>
    </g>
    <g id="ytick_7">
     <g id="line2d_13">
      <g>
       <use style="fill:#262626;stroke:#262626;" x="90" xlink:href="#ma694341695" y="69.12"/>
      </g>
     </g>
     <g id="text_13">
      <!-- 0.6 -->
      <g style="fill:#262626;" transform="translate(63.1 72.698906)scale(0.1 -0.1)">
       <use xlink:href="#ArialMT-30"/>
       <use x="55.615234" xlink:href="#ArialMT-2e"/>
       <use x="83.398438" xlink:href="#ArialMT-36"/>
      </g>
     </g>
    </g>
   </g>
   <g id="line2d_14">
    <path clip-path="url(#pff3bc15da1)" d="M 90 139.983721 
L 90.544922 140.481035 
L 91.634766 142.090898 
L 92.179688 143.070146 
L 94.904297 150.581133 
L 98.71875 162.460283 
L 100.353516 165.838945 
L 101.988281 168.053789 
L 103.078125 168.684404 
L 104.712891 168.730547 
L 106.892578 167.720537 
L 107.4375 167.253984 
L 107.982422 167.043779 
L 108.527344 167.105303 
L 109.072266 166.669512 
L 111.251953 167.653887 
L 112.341797 168.566484 
L 112.886719 169.238115 
L 115.066406 172.750078 
L 115.611328 174.201006 
L 116.701172 176.503008 
L 117.246094 177.738604 
L 118.880859 180.384111 
L 120.515625 182.240068 
L 121.060547 182.522051 
L 121.605469 182.568193 
L 122.150391 182.368242 
L 122.695312 182.342607 
L 124.330078 180.445635 
L 125.964844 177.528398 
L 131.958984 163.378008 
L 133.048828 161.593828 
L 134.138672 160.224932 
L 134.683594 160.02498 
L 135.228516 159.53792 
L 135.773438 159.594316 
L 137.408203 160.204424 
L 137.953125 160.645342 
L 141.222656 164.85457 
L 142.857422 167.602617 
L 145.582031 172.129717 
L 146.126953 173.396074 
L 146.671875 173.842119 
L 147.216797 174.770098 
L 148.851562 176.677324 
L 149.941406 177.364336 
L 151.03125 177.718096 
L 152.121094 177.528398 
L 152.666016 177.000322 
L 153.755859 176.513262 
L 154.845703 175.303301 
L 159.75 169.089434 
L 160.294922 168.976641 
L 161.384766 168.125566 
L 164.654297 168.42293 
L 165.744141 169.104814 
L 166.833984 169.022783 
L 168.46875 169.022783 
L 169.013672 168.663896 
L 170.648438 166.5721 
L 172.283203 163.080645 
L 177.1875 149.304521 
L 177.732422 148.007402 
L 178.822266 146.023271 
L 179.912109 145.013262 
L 180.457031 144.736406 
L 181.001953 144.597979 
L 181.546875 144.685137 
L 182.636719 145.392656 
L 183.181641 146.048906 
L 184.271484 147.981768 
L 184.816406 149.135332 
L 186.451172 153.652178 
L 189.175781 162.198809 
L 190.265625 165.382646 
L 191.355469 168.099932 
L 191.900391 169.294512 
L 192.445312 170.084062 
L 192.990234 171.145342 
L 193.535156 171.658037 
L 194.080078 172.411699 
L 195.714844 173.308916 
L 196.259766 173.349932 
L 196.804688 173.108965 
L 197.894531 173.124346 
L 198.439453 172.970537 
L 199.529297 172.027178 
L 200.619141 171.83748 
L 201.164062 171.642656 
L 202.253906 171.622148 
L 202.798828 171.591387 
L 203.34375 172.180986 
L 203.888672 172.365557 
L 204.433594 172.975664 
L 206.068359 175.667314 
L 206.613281 176.805498 
L 207.158203 178.282061 
L 208.248047 180.532793 
L 209.882812 183.962725 
L 210.972656 185.716143 
L 212.0625 186.961992 
L 212.607422 187.397783 
L 214.242188 187.746416 
L 215.876953 186.382646 
L 216.421875 185.418779 
L 217.511719 183.849932 
L 220.236328 177.502764 
L 221.326172 174.595781 
L 222.960938 170.555742 
L 225.140625 166.561846 
L 225.685547 165.905596 
L 226.230469 165.531328 
L 226.775391 164.921221 
L 227.865234 164.475176 
L 229.5 165.239092 
L 230.044922 165.531328 
L 230.589844 166.161943 
L 231.134766 166.551592 
L 232.769531 168.566484 
L 233.314453 169.44832 
L 233.859375 169.950762 
L 237.673828 175.857012 
L 238.21875 176.292803 
L 239.308594 178.087236 
L 240.943359 180.281572 
L 241.488281 180.77376 
L 242.033203 181.02498 
L 242.578125 181.409502 
L 243.123047 181.440264 
L 243.667969 181.301836 
L 244.212891 181.045488 
L 244.757812 180.989092 
L 246.9375 179.358721 
L 248.572266 177.472002 
L 249.117188 176.564531 
L 250.207031 175.621172 
L 250.751953 174.795732 
L 251.841797 173.713945 
L 252.386719 173.580645 
L 253.476562 172.796221 
L 254.021484 172.529619 
L 254.566406 172.698809 
L 255.111328 172.606523 
L 258.380859 174.339434 
L 258.925781 174.052324 
L 259.470703 174.257402 
L 260.015625 174.27791 
L 260.560547 173.965166 
L 261.650391 172.873125 
L 262.195312 172.196367 
L 263.285156 170.366045 
L 265.464844 164.72127 
L 269.279297 153.524004 
L 269.824219 152.472979 
L 270.369141 150.960527 
L 271.458984 149.309648 
L 272.548828 148.591875 
L 273.09375 148.356035 
L 274.183594 148.26375 
L 275.818359 150.524736 
L 276.363281 151.627031 
L 277.453125 154.410967 
L 282.902344 171.391436 
L 284.537109 174.821367 
L 285.626953 176.354326 
L 286.716797 177.313066 
L 287.261719 177.302812 
L 287.806641 177.518145 
L 288.351562 177.307939 
L 288.896484 177.584795 
L 291.076172 176.585039 
L 291.621094 176.190264 
L 292.166016 175.933916 
L 293.800781 175.610918 
L 294.345703 175.539141 
L 295.435547 176.159502 
L 295.980469 176.672197 
L 297.070312 178.33333 
L 298.160156 180.112383 
L 298.705078 181.517168 
L 299.25 182.429766 
L 301.974609 188.207842 
L 302.519531 188.879473 
L 303.609375 190.561113 
L 305.244141 191.730059 
L 305.789062 191.87874 
L 306.878906 191.386553 
L 307.423828 191.125078 
L 307.96875 190.632891 
L 308.513672 189.915117 
L 309.603516 187.977129 
L 310.693359 185.490557 
L 311.783203 182.988604 
L 313.962891 176.882402 
L 314.507812 175.462236 
L 315.052734 174.385576 
L 316.142578 171.909258 
L 316.6875 170.960771 
L 317.232422 170.350664 
L 317.777344 169.92 
L 318.322266 169.140703 
L 319.412109 168.766436 
L 319.957031 168.530596 
L 321.591797 168.802324 
L 323.771484 170.591631 
L 324.861328 172.022051 
L 326.496094 174.46248 
L 328.130859 176.564531 
L 329.220703 178.466631 
L 331.400391 181.906816 
L 331.945312 182.511797 
L 332.490234 183.285967 
L 334.669922 184.988115 
L 335.214844 185.208574 
L 335.759766 185.018877 
L 336.304688 185.136797 
L 337.394531 184.536943 
L 337.939453 184.12166 
L 339.574219 182.15291 
L 340.119141 181.271074 
L 340.664062 180.619951 
L 342.298828 177.928301 
L 342.84375 177.118242 
L 343.388672 176.651689 
L 345.023438 174.841875 
L 345.568359 175.077715 
L 346.113281 174.785479 
L 346.658203 174.954668 
L 347.203125 174.949541 
L 347.748047 175.431475 
L 348.292969 175.626299 
L 351.017578 177.338701 
L 351.5625 177.538652 
L 352.107422 177.579668 
L 352.652344 177.436113 
L 353.742188 176.646562 
L 354.287109 175.580156 
L 354.832031 174.826494 
L 355.921875 172.293779 
L 358.646484 164.285479 
L 361.371094 156.805254 
L 363.005859 152.949785 
L 364.095703 151.550127 
L 365.185547 150.873369 
L 365.730469 150.781084 
L 366.275391 151.134844 
L 366.820312 151.298906 
L 368.455078 154.10335 
L 370.089844 158.025469 
L 371.179688 161.373369 
L 372.269531 164.900713 
L 374.449219 171.370928 
L 375.539062 174.118975 
L 376.628906 176.544023 
L 377.173828 177.379717 
L 378.808594 179.010088 
L 379.353516 179.271562 
L 380.443359 179.348467 
L 380.988281 179.179277 
L 381.533203 179.15877 
L 382.623047 178.246172 
L 383.167969 178.076982 
L 383.712891 177.436113 
L 384.802734 176.897783 
L 385.347656 176.820879 
L 386.4375 176.995195 
L 387.527344 177.856523 
L 389.162109 180.030352 
L 392.431641 186.818437 
L 392.976562 188.325762 
L 393.521484 189.151201 
L 394.611328 191.114824 
L 395.15625 191.832598 
L 395.701172 192.893877 
L 396.246094 193.36043 
L 396.791016 194.026934 
L 397.880859 194.31917 
L 398.425781 194.20125 
L 398.970703 194.2679 
L 400.605469 192.678545 
L 401.695312 190.935381 
L 403.330078 187.479814 
L 403.875 185.78792 
L 404.964844 183.429521 
L 406.054688 180.430254 
L 407.144531 177.72835 
L 408.779297 174.318926 
L 409.869141 173.042314 
L 410.958984 171.919512 
L 411.503906 171.750322 
L 412.048828 171.729814 
L 412.59375 171.519609 
L 413.683594 172.016924 
L 414.228516 172.027178 
L 415.863281 173.544756 
L 416.408203 174.380449 
L 416.953125 174.836748 
L 418.587891 177.287432 
L 420.767578 181.132646 
L 421.3125 182.378496 
L 422.402344 183.998613 
L 424.037109 186.27498 
L 424.582031 186.56209 
L 426.216797 187.94124 
L 426.761719 187.777178 
L 427.306641 188.218096 
L 428.941406 187.736162 
L 429.486328 187.582354 
L 430.576172 186.474932 
L 431.121094 186.054521 
L 431.666016 185.141924 
L 432.210938 184.449785 
L 432.755859 183.947344 
L 433.300781 183.193682 
L 433.845703 182.711748 
L 435.480469 180.84041 
L 436.025391 180.491777 
L 436.570312 180.481523 
L 437.115234 180.163652 
L 438.205078 179.902178 
L 439.294922 180.261064 
L 440.929688 181.317217 
L 441.474609 181.563311 
L 442.019531 182.08626 
L 443.109375 182.399004 
L 443.654297 182.3221 
L 444.199219 182.378496 
L 444.744141 182.040117 
L 445.289062 181.271074 
L 445.833984 181.014727 
L 446.378906 180.373857 
L 446.923828 179.425371 
L 449.648438 172.842363 
L 451.828125 165.905596 
L 453.462891 161.414385 
L 454.552734 158.338213 
L 455.097656 157.492266 
L 456.1875 155.36458 
L 456.732422 154.7596 
L 457.277344 154.364824 
L 457.822266 154.185381 
L 458.367188 154.564775 
L 460.546875 157.389727 
L 461.636719 160.26082 
L 463.271484 164.921221 
L 464.90625 170.212236 
L 465.996094 173.411455 
L 467.630859 178.159014 
L 468.175781 179.071611 
L 468.720703 180.440508 
L 469.265625 181.081377 
L 469.810547 181.906816 
L 471.445312 182.99373 
L 471.990234 183.121904 
L 474.169922 182.127275 
L 474.714844 181.49666 
L 475.804688 180.901934 
L 476.349609 180.47127 
L 476.894531 180.240557 
L 477.439453 180.358477 
L 477.984375 180.076494 
L 478.529297 180.091875 
L 479.074219 180.425127 
L 481.253906 182.947588 
L 482.888672 185.813555 
L 483.978516 188.115557 
L 484.523438 189.058916 
L 485.068359 190.38167 
L 487.248047 194.180742 
L 488.337891 195.86751 
L 488.882812 196.328936 
L 489.972656 196.805742 
L 490.517578 196.882646 
L 491.0625 196.703203 
L 491.607422 196.692949 
L 492.152344 195.877764 
L 492.697266 195.339434 
L 493.242188 194.544756 
L 495.421875 189.776689 
L 498.691406 180.860918 
L 499.236328 179.799639 
L 500.326172 177.231035 
L 500.871094 176.051836 
L 501.416016 175.17 
L 503.595703 172.724443 
L 505.775391 172.457842 
L 506.320312 172.627031 
L 506.865234 173.021807 
L 507.955078 173.462725 
L 509.044922 174.195879 
L 509.589844 174.739336 
L 510.679688 176.241533 
L 511.769531 177.595049 
L 516.128906 184.434404 
L 516.673828 184.701006 
L 517.21875 185.567461 
L 517.763672 186.069902 
L 518.308594 186.244219 
L 518.853516 186.767168 
L 519.398438 186.762041 
L 520.488281 186.27498 
L 521.033203 185.998125 
L 522.123047 185.029131 
L 523.212891 183.403887 
L 527.027344 177.384844 
L 527.572266 176.574785 
L 528.117188 176.24666 
L 528.662109 175.733965 
L 529.207031 175.569902 
L 529.751953 175.8929 
L 530.296875 175.528887 
L 530.841797 175.739092 
L 531.386719 176.277422 
L 531.931641 176.585039 
L 532.476562 177.02083 
L 533.021484 177.61043 
L 533.566406 177.897539 
L 534.111328 177.907793 
L 534.65625 178.287187 
L 535.201172 178.39998 
L 535.746094 178.722979 
L 536.291016 178.45125 
L 536.835938 178.45125 
L 538.470703 176.672197 
L 540.105469 173.093584 
L 541.195312 169.755937 
L 542.830078 164.546953 
L 544.464844 159.045732 
L 547.189453 151.432207 
L 547.734375 150.811846 
L 548.824219 149.094316 
L 549.914062 148.92 
L 550.458984 149.032793 
L 551.003906 149.335283 
L 551.548828 149.940264 
L 552.09375 151.052812 
L 552.638672 151.744951 
L 553.728516 154.093096 
L 554.273438 155.333818 
L 555.908203 160.137773 
L 556.453125 161.593828 
L 556.998047 163.803545 
L 559.177734 170.032793 
L 560.267578 172.545 
L 560.8125 173.616533 
L 561.902344 175.036699 
L 562.447266 175.744219 
L 564.082031 176.328691 
L 564.626953 175.928789 
L 565.171875 175.882646 
L 565.716797 175.698076 
L 566.261719 175.303301 
L 566.806641 174.718828 
L 567.351562 174.708574 
L 567.896484 174.006182 
L 568.441406 173.903643 
L 569.53125 173.211504 
L 571.166016 174.09334 
L 572.255859 175.036699 
L 574.435547 178.184648 
L 574.980469 179.097246 
L 577.160156 183.783281 
L 577.705078 184.654863 
L 578.794922 186.905596 
L 580.429688 189.315264 
L 580.974609 189.72542 
L 581.519531 190.422686 
L 582.609375 190.550859 
L 583.699219 190.274004 
L 585.333984 188.141191 
L 585.878906 187.059404 
L 586.423828 186.367266 
L 591.328125 173.519121 
L 591.873047 172.570635 
L 592.417969 171.206865 
L 592.962891 170.160967 
L 594.597656 168.053789 
L 595.6875 167.305254 
L 596.777344 166.982256 
L 598.412109 166.864336 
L 598.957031 166.884844 
L 600.046875 167.423174 
L 601.136719 168.412676 
L 602.226562 169.955889 
L 603.861328 172.66292 
L 604.951172 174.862383 
L 606.041016 176.615801 
L 607.130859 178.435869 
L 607.675781 179.179277 
L 608.220703 180.168779 
L 609.855469 181.742754 
L 610.400391 181.619707 
L 610.945312 181.886309 
L 611.490234 181.870928 
L 612.580078 181.476152 
L 615.304688 178.343584 
L 616.394531 176.779863 
L 616.939453 175.687822 
L 617.484375 175.046953 
L 618.029297 174.175371 
L 619.119141 173.14998 
L 619.664062 172.59627 
L 620.208984 172.227129 
L 620.753906 172.186113 
L 621.298828 171.899004 
L 621.84375 171.996416 
L 622.388672 172.36043 
L 622.933594 172.42708 
L 623.478516 172.714189 
L 624.023438 173.457598 
L 624.568359 173.606279 
L 625.658203 174.708574 
L 626.203125 175.062334 
L 627.292969 175.492998 
L 627.837891 175.462236 
L 628.382812 175.59041 
L 629.472656 174.739336 
L 630.017578 174.108721 
L 631.107422 172.30916 
L 632.742188 168.417803 
L 636.556641 156.343828 
L 638.191406 151.263018 
L 640.371094 147.058916 
L 640.916016 146.459062 
L 641.460938 146.248857 
L 642.005859 146.325762 
L 642.550781 146.202715 
L 643.095703 146.643633 
L 644.730469 148.781572 
L 645.820312 151.278398 
L 646.365234 152.662676 
L 646.910156 154.559648 
L 647.455078 155.918291 
L 647.455078 155.918291 
" style="fill:none;stroke:#4c72b0;stroke-linecap:round;stroke-width:1.75;"/>
   </g>
   <g id="patch_3">
    <path d="M 90 270.72 
L 90 69.12 
" style="fill:none;stroke:#262626;stroke-linecap:square;stroke-linejoin:miter;stroke-width:1.25;"/>
   </g>
   <g id="patch_4">
    <path d="M 90 270.72 
L 648 270.72 
" style="fill:none;stroke:#262626;stroke-linecap:square;stroke-linejoin:miter;stroke-width:1.25;"/>
   </g>
  </g>
  <g id="axes_2">
   <g id="patch_5">
    <path d="M 90 512.64 
L 648 512.64 
L 648 311.04 
L 90 311.04 
z
" style="fill:#ffffff;"/>
   </g>
   <g id="matplotlib.axis_3">
    <g id="xtick_7">
     <g id="line2d_15">
      <g>
       <use style="fill:#262626;stroke:#262626;" x="218.197478" xlink:href="#mf0ce9dc29e" y="512.64"/>
      </g>
     </g>
     <g id="text_14">
      <!-- $\mathdefault{10^{2}}$ -->
      <g style="fill:#262626;" transform="translate(210.347478 535.9525)scale(0.1 -0.1)">
       <use transform="translate(0 0.99375)" xlink:href="#ArialMT-31"/>
       <use transform="translate(55.615234 0.99375)" xlink:href="#ArialMT-30"/>
       <use transform="translate(112.972813 70.6875)scale(0.7)" xlink:href="#ArialMT-32"/>
      </g>
     </g>
    </g>
    <g id="xtick_8">
     <g id="line2d_16">
      <g>
       <use style="fill:#262626;stroke:#262626;" x="401.606604" xlink:href="#mf0ce9dc29e" y="512.64"/>
      </g>
     </g>
     <g id="text_15">
      <!-- $\mathdefault{10^{3}}$ -->
      <defs>
       <path d="M 4.203125 18.890625 
L 12.984375 20.0625 
Q 14.5 12.59375 18.140625 9.296875 
Q 21.78125 6 27 6 
Q 33.203125 6 37.46875 10.296875 
Q 41.75 14.59375 41.75 20.953125 
Q 41.75 27 37.796875 30.921875 
Q 33.84375 34.859375 27.734375 34.859375 
Q 25.25 34.859375 21.53125 33.890625 
L 22.515625 41.609375 
Q 23.390625 41.5 23.921875 41.5 
Q 29.546875 41.5 34.03125 44.421875 
Q 38.53125 47.359375 38.53125 53.46875 
Q 38.53125 58.296875 35.25 61.46875 
Q 31.984375 64.65625 26.8125 64.65625 
Q 21.6875 64.65625 18.265625 61.421875 
Q 14.84375 58.203125 13.875 51.765625 
L 5.078125 53.328125 
Q 6.6875 62.15625 12.390625 67.015625 
Q 18.109375 71.875 26.609375 71.875 
Q 32.46875 71.875 37.390625 69.359375 
Q 42.328125 66.84375 44.9375 62.5 
Q 47.5625 58.15625 47.5625 53.265625 
Q 47.5625 48.640625 45.0625 44.828125 
Q 42.578125 41.015625 37.703125 38.765625 
Q 44.046875 37.3125 47.5625 32.6875 
Q 51.078125 28.078125 51.078125 21.140625 
Q 51.078125 11.765625 44.234375 5.25 
Q 37.40625 -1.265625 26.953125 -1.265625 
Q 17.53125 -1.265625 11.296875 4.34375 
Q 5.078125 9.96875 4.203125 18.890625 
z
" id="ArialMT-33"/>
      </defs>
      <g style="fill:#262626;" transform="translate(393.756604 535.9525)scale(0.1 -0.1)">
       <use transform="translate(0 0.99375)" xlink:href="#ArialMT-31"/>
       <use transform="translate(55.615234 0.99375)" xlink:href="#ArialMT-30"/>
       <use transform="translate(112.972813 70.6875)scale(0.7)" xlink:href="#ArialMT-33"/>
      </g>
     </g>
    </g>
    <g id="xtick_9">
     <g id="line2d_17">
      <g>
       <use style="fill:#262626;stroke:#262626;" x="585.01573" xlink:href="#mf0ce9dc29e" y="512.64"/>
      </g>
     </g>
     <g id="text_16">
      <!-- $\mathdefault{10^{4}}$ -->
      <g style="fill:#262626;" transform="translate(577.16573 535.8525)scale(0.1 -0.1)">
       <use transform="translate(0 0.201563)" xlink:href="#ArialMT-31"/>
       <use transform="translate(55.615234 0.201563)" xlink:href="#ArialMT-30"/>
       <use transform="translate(112.972813 69.895313)scale(0.7)" xlink:href="#ArialMT-34"/>
      </g>
     </g>
    </g>
    <g id="xtick_10">
     <g id="line2d_18">
      <defs>
       <path d="M 0 0 
L 0 3 
" id="me51faed651" style="stroke:#262626;stroke-width:0.5;"/>
      </defs>
      <g>
       <use style="fill:#262626;stroke:#262626;stroke-width:0.5;" x="90" xlink:href="#me51faed651" y="512.64"/>
      </g>
     </g>
    </g>
    <g id="xtick_11">
     <g id="line2d_19">
      <g>
       <use style="fill:#262626;stroke:#262626;stroke-width:0.5;" x="122.296744" xlink:href="#me51faed651" y="512.64"/>
      </g>
     </g>
    </g>
    <g id="xtick_12">
     <g id="line2d_20">
      <g>
       <use style="fill:#262626;stroke:#262626;stroke-width:0.5;" x="145.211648" xlink:href="#me51faed651" y="512.64"/>
      </g>
     </g>
    </g>
    <g id="xtick_13">
     <g id="line2d_21">
      <g>
       <use style="fill:#262626;stroke:#262626;stroke-width:0.5;" x="162.985829" xlink:href="#me51faed651" y="512.64"/>
      </g>
     </g>
    </g>
    <g id="xtick_14">
     <g id="line2d_22">
      <g>
       <use style="fill:#262626;stroke:#262626;stroke-width:0.5;" x="177.508392" xlink:href="#me51faed651" y="512.64"/>
      </g>
     </g>
    </g>
    <g id="xtick_15">
     <g id="line2d_23">
      <g>
       <use style="fill:#262626;stroke:#262626;stroke-width:0.5;" x="189.787045" xlink:href="#me51faed651" y="512.64"/>
      </g>
     </g>
    </g>
    <g id="xtick_16">
     <g id="line2d_24">
      <g>
       <use style="fill:#262626;stroke:#262626;stroke-width:0.5;" x="200.423297" xlink:href="#me51faed651" y="512.64"/>
      </g>
     </g>
    </g>
    <g id="xtick_17">
     <g id="line2d_25">
      <g>
       <use style="fill:#262626;stroke:#262626;stroke-width:0.5;" x="209.805136" xlink:href="#me51faed651" y="512.64"/>
      </g>
     </g>
    </g>
    <g id="xtick_18">
     <g id="line2d_26">
      <g>
       <use style="fill:#262626;stroke:#262626;stroke-width:0.5;" x="273.409126" xlink:href="#me51faed651" y="512.64"/>
      </g>
     </g>
    </g>
    <g id="xtick_19">
     <g id="line2d_27">
      <g>
       <use style="fill:#262626;stroke:#262626;stroke-width:0.5;" x="305.70587" xlink:href="#me51faed651" y="512.64"/>
      </g>
     </g>
    </g>
    <g id="xtick_20">
     <g id="line2d_28">
      <g>
       <use style="fill:#262626;stroke:#262626;stroke-width:0.5;" x="328.620775" xlink:href="#me51faed651" y="512.64"/>
      </g>
     </g>
    </g>
    <g id="xtick_21">
     <g id="line2d_29">
      <g>
       <use style="fill:#262626;stroke:#262626;stroke-width:0.5;" x="346.394955" xlink:href="#me51faed651" y="512.64"/>
      </g>
     </g>
    </g>
    <g id="xtick_22">
     <g id="line2d_30">
      <g>
       <use style="fill:#262626;stroke:#262626;stroke-width:0.5;" x="360.917518" xlink:href="#me51faed651" y="512.64"/>
      </g>
     </g>
    </g>
    <g id="xtick_23">
     <g id="line2d_31">
      <g>
       <use style="fill:#262626;stroke:#262626;stroke-width:0.5;" x="373.196171" xlink:href="#me51faed651" y="512.64"/>
      </g>
     </g>
    </g>
    <g id="xtick_24">
     <g id="line2d_32">
      <g>
       <use style="fill:#262626;stroke:#262626;stroke-width:0.5;" x="383.832423" xlink:href="#me51faed651" y="512.64"/>
      </g>
     </g>
    </g>
    <g id="xtick_25">
     <g id="line2d_33">
      <g>
       <use style="fill:#262626;stroke:#262626;stroke-width:0.5;" x="393.214262" xlink:href="#me51faed651" y="512.64"/>
      </g>
     </g>
    </g>
    <g id="xtick_26">
     <g id="line2d_34">
      <g>
       <use style="fill:#262626;stroke:#262626;stroke-width:0.5;" x="456.818252" xlink:href="#me51faed651" y="512.64"/>
      </g>
     </g>
    </g>
    <g id="xtick_27">
     <g id="line2d_35">
      <g>
       <use style="fill:#262626;stroke:#262626;stroke-width:0.5;" x="489.114996" xlink:href="#me51faed651" y="512.64"/>
      </g>
     </g>
    </g>
    <g id="xtick_28">
     <g id="line2d_36">
      <g>
       <use style="fill:#262626;stroke:#262626;stroke-width:0.5;" x="512.029901" xlink:href="#me51faed651" y="512.64"/>
      </g>
     </g>
    </g>
    <g id="xtick_29">
     <g id="line2d_37">
      <g>
       <use style="fill:#262626;stroke:#262626;stroke-width:0.5;" x="529.804081" xlink:href="#me51faed651" y="512.64"/>
      </g>
     </g>
    </g>
    <g id="xtick_30">
     <g id="line2d_38">
      <g>
       <use style="fill:#262626;stroke:#262626;stroke-width:0.5;" x="544.326645" xlink:href="#me51faed651" y="512.64"/>
      </g>
     </g>
    </g>
    <g id="xtick_31">
     <g id="line2d_39">
      <g>
       <use style="fill:#262626;stroke:#262626;stroke-width:0.5;" x="556.605297" xlink:href="#me51faed651" y="512.64"/>
      </g>
     </g>
    </g>
    <g id="xtick_32">
     <g id="line2d_40">
      <g>
       <use style="fill:#262626;stroke:#262626;stroke-width:0.5;" x="567.241549" xlink:href="#me51faed651" y="512.64"/>
      </g>
     </g>
    </g>
    <g id="xtick_33">
     <g id="line2d_41">
      <g>
       <use style="fill:#262626;stroke:#262626;stroke-width:0.5;" x="576.623389" xlink:href="#me51faed651" y="512.64"/>
      </g>
     </g>
    </g>
    <g id="xtick_34">
     <g id="line2d_42">
      <g>
       <use style="fill:#262626;stroke:#262626;stroke-width:0.5;" x="640.227378" xlink:href="#me51faed651" y="512.64"/>
      </g>
     </g>
    </g>
   </g>
   <g id="matplotlib.axis_4">
    <g id="ytick_8">
     <g id="line2d_43">
      <g>
       <use style="fill:#262626;stroke:#262626;" x="90" xlink:href="#ma694341695" y="512.64"/>
      </g>
     </g>
     <g id="text_17">
      <!-- $\mathdefault{10^{-5}}$ -->
      <defs>
       <path d="M 4.15625 18.75 
L 13.375 19.53125 
Q 14.40625 12.796875 18.140625 9.390625 
Q 21.875 6 27.15625 6 
Q 33.5 6 37.890625 10.78125 
Q 42.28125 15.578125 42.28125 23.484375 
Q 42.28125 31 38.0625 35.34375 
Q 33.84375 39.703125 27 39.703125 
Q 22.75 39.703125 19.328125 37.765625 
Q 15.921875 35.84375 13.96875 32.765625 
L 5.71875 33.84375 
L 12.640625 70.609375 
L 48.25 70.609375 
L 48.25 62.203125 
L 19.671875 62.203125 
L 15.828125 42.96875 
Q 22.265625 47.46875 29.34375 47.46875 
Q 38.71875 47.46875 45.15625 40.96875 
Q 51.609375 34.46875 51.609375 24.265625 
Q 51.609375 14.546875 45.953125 7.46875 
Q 39.0625 -1.21875 27.15625 -1.21875 
Q 17.390625 -1.21875 11.203125 4.25 
Q 5.03125 9.71875 4.15625 18.75 
z
" id="ArialMT-35"/>
      </defs>
      <g style="fill:#262626;" transform="translate(57.2 517.74625)scale(0.1 -0.1)">
       <use transform="translate(0 0.879688)" xlink:href="#ArialMT-31"/>
       <use transform="translate(55.615234 0.879688)" xlink:href="#ArialMT-30"/>
       <use transform="translate(112.972813 70.573438)scale(0.7)" xlink:href="#ArialMT-2212"/>
       <use transform="translate(153.851719 70.573438)scale(0.7)" xlink:href="#ArialMT-35"/>
      </g>
     </g>
    </g>
    <g id="ytick_9">
     <g id="line2d_44">
      <g>
       <use style="fill:#262626;stroke:#262626;" x="90" xlink:href="#ma694341695" y="465.767507"/>
      </g>
     </g>
     <g id="text_18">
      <!-- $\mathdefault{10^{-4}}$ -->
      <g style="fill:#262626;" transform="translate(57.2 470.873757)scale(0.1 -0.1)">
       <use transform="translate(0 0.201563)" xlink:href="#ArialMT-31"/>
       <use transform="translate(55.615234 0.201563)" xlink:href="#ArialMT-30"/>
       <use transform="translate(112.972813 69.895313)scale(0.7)" xlink:href="#ArialMT-2212"/>
       <use transform="translate(153.851719 69.895313)scale(0.7)" xlink:href="#ArialMT-34"/>
      </g>
     </g>
    </g>
    <g id="ytick_10">
     <g id="line2d_45">
      <g>
       <use style="fill:#262626;stroke:#262626;" x="90" xlink:href="#ma694341695" y="418.895013"/>
      </g>
     </g>
     <g id="text_19">
      <!-- $\mathdefault{10^{-3}}$ -->
      <g style="fill:#262626;" transform="translate(57.2 424.051263)scale(0.1 -0.1)">
       <use transform="translate(0 0.99375)" xlink:href="#ArialMT-31"/>
       <use transform="translate(55.615234 0.99375)" xlink:href="#ArialMT-30"/>
       <use transform="translate(112.972813 70.6875)scale(0.7)" xlink:href="#ArialMT-2212"/>
       <use transform="translate(153.851719 70.6875)scale(0.7)" xlink:href="#ArialMT-33"/>
      </g>
     </g>
    </g>
    <g id="ytick_11">
     <g id="line2d_46">
      <g>
       <use style="fill:#262626;stroke:#262626;" x="90" xlink:href="#ma694341695" y="372.02252"/>
      </g>
     </g>
     <g id="text_20">
      <!-- $\mathdefault{10^{-2}}$ -->
      <g style="fill:#262626;" transform="translate(57.2 377.17877)scale(0.1 -0.1)">
       <use transform="translate(0 0.99375)" xlink:href="#ArialMT-31"/>
       <use transform="translate(55.615234 0.99375)" xlink:href="#ArialMT-30"/>
       <use transform="translate(112.972813 70.6875)scale(0.7)" xlink:href="#ArialMT-2212"/>
       <use transform="translate(153.851719 70.6875)scale(0.7)" xlink:href="#ArialMT-32"/>
      </g>
     </g>
    </g>
    <g id="ytick_12">
     <g id="line2d_47">
      <g>
       <use style="fill:#262626;stroke:#262626;" x="90" xlink:href="#ma694341695" y="325.150026"/>
      </g>
     </g>
     <g id="text_21">
      <!-- $\mathdefault{10^{-1}}$ -->
      <g style="fill:#262626;" transform="translate(57.2 330.306276)scale(0.1 -0.1)">
       <use transform="translate(0 0.99375)" xlink:href="#ArialMT-31"/>
       <use transform="translate(55.615234 0.99375)" xlink:href="#ArialMT-30"/>
       <use transform="translate(112.972813 70.6875)scale(0.7)" xlink:href="#ArialMT-2212"/>
       <use transform="translate(153.851719 70.6875)scale(0.7)" xlink:href="#ArialMT-31"/>
      </g>
     </g>
    </g>
    <g id="ytick_13">
     <g id="line2d_48">
      <defs>
       <path d="M 0 0 
L -3 0 
" id="m89de4def66" style="stroke:#262626;stroke-width:0.5;"/>
      </defs>
      <g>
       <use style="fill:#262626;stroke:#262626;stroke-width:0.5;" x="90" xlink:href="#m89de4def66" y="498.529974"/>
      </g>
     </g>
    </g>
    <g id="ytick_14">
     <g id="line2d_49">
      <g>
       <use style="fill:#262626;stroke:#262626;stroke-width:0.5;" x="90" xlink:href="#m89de4def66" y="490.276137"/>
      </g>
     </g>
    </g>
    <g id="ytick_15">
     <g id="line2d_50">
      <g>
       <use style="fill:#262626;stroke:#262626;stroke-width:0.5;" x="90" xlink:href="#m89de4def66" y="484.419947"/>
      </g>
     </g>
    </g>
    <g id="ytick_16">
     <g id="line2d_51">
      <g>
       <use style="fill:#262626;stroke:#262626;stroke-width:0.5;" x="90" xlink:href="#m89de4def66" y="479.877533"/>
      </g>
     </g>
    </g>
    <g id="ytick_17">
     <g id="line2d_52">
      <g>
       <use style="fill:#262626;stroke:#262626;stroke-width:0.5;" x="90" xlink:href="#m89de4def66" y="476.166111"/>
      </g>
     </g>
    </g>
    <g id="ytick_18">
     <g id="line2d_53">
      <g>
       <use style="fill:#262626;stroke:#262626;stroke-width:0.5;" x="90" xlink:href="#m89de4def66" y="473.028148"/>
      </g>
     </g>
    </g>
    <g id="ytick_19">
     <g id="line2d_54">
      <g>
       <use style="fill:#262626;stroke:#262626;stroke-width:0.5;" x="90" xlink:href="#m89de4def66" y="470.309921"/>
      </g>
     </g>
    </g>
    <g id="ytick_20">
     <g id="line2d_55">
      <g>
       <use style="fill:#262626;stroke:#262626;stroke-width:0.5;" x="90" xlink:href="#m89de4def66" y="467.912274"/>
      </g>
     </g>
    </g>
    <g id="ytick_21">
     <g id="line2d_56">
      <g>
       <use style="fill:#262626;stroke:#262626;stroke-width:0.5;" x="90" xlink:href="#m89de4def66" y="451.65748"/>
      </g>
     </g>
    </g>
    <g id="ytick_22">
     <g id="line2d_57">
      <g>
       <use style="fill:#262626;stroke:#262626;stroke-width:0.5;" x="90" xlink:href="#m89de4def66" y="443.403644"/>
      </g>
     </g>
    </g>
    <g id="ytick_23">
     <g id="line2d_58">
      <g>
       <use style="fill:#262626;stroke:#262626;stroke-width:0.5;" x="90" xlink:href="#m89de4def66" y="437.547454"/>
      </g>
     </g>
    </g>
    <g id="ytick_24">
     <g id="line2d_59">
      <g>
       <use style="fill:#262626;stroke:#262626;stroke-width:0.5;" x="90" xlink:href="#m89de4def66" y="433.00504"/>
      </g>
     </g>
    </g>
    <g id="ytick_25">
     <g id="line2d_60">
      <g>
       <use style="fill:#262626;stroke:#262626;stroke-width:0.5;" x="90" xlink:href="#m89de4def66" y="429.293617"/>
      </g>
     </g>
    </g>
    <g id="ytick_26">
     <g id="line2d_61">
      <g>
       <use style="fill:#262626;stroke:#262626;stroke-width:0.5;" x="90" xlink:href="#m89de4def66" y="426.155654"/>
      </g>
     </g>
    </g>
    <g id="ytick_27">
     <g id="line2d_62">
      <g>
       <use style="fill:#262626;stroke:#262626;stroke-width:0.5;" x="90" xlink:href="#m89de4def66" y="423.437427"/>
      </g>
     </g>
    </g>
    <g id="ytick_28">
     <g id="line2d_63">
      <g>
       <use style="fill:#262626;stroke:#262626;stroke-width:0.5;" x="90" xlink:href="#m89de4def66" y="421.039781"/>
      </g>
     </g>
    </g>
    <g id="ytick_29">
     <g id="line2d_64">
      <g>
       <use style="fill:#262626;stroke:#262626;stroke-width:0.5;" x="90" xlink:href="#m89de4def66" y="404.784987"/>
      </g>
     </g>
    </g>
    <g id="ytick_30">
     <g id="line2d_65">
      <g>
       <use style="fill:#262626;stroke:#262626;stroke-width:0.5;" x="90" xlink:href="#m89de4def66" y="396.53115"/>
      </g>
     </g>
    </g>
    <g id="ytick_31">
     <g id="line2d_66">
      <g>
       <use style="fill:#262626;stroke:#262626;stroke-width:0.5;" x="90" xlink:href="#m89de4def66" y="390.67496"/>
      </g>
     </g>
    </g>
    <g id="ytick_32">
     <g id="line2d_67">
      <g>
       <use style="fill:#262626;stroke:#262626;stroke-width:0.5;" x="90" xlink:href="#m89de4def66" y="386.132546"/>
      </g>
     </g>
    </g>
    <g id="ytick_33">
     <g id="line2d_68">
      <g>
       <use style="fill:#262626;stroke:#262626;stroke-width:0.5;" x="90" xlink:href="#m89de4def66" y="382.421124"/>
      </g>
     </g>
    </g>
    <g id="ytick_34">
     <g id="line2d_69">
      <g>
       <use style="fill:#262626;stroke:#262626;stroke-width:0.5;" x="90" xlink:href="#m89de4def66" y="379.283161"/>
      </g>
     </g>
    </g>
    <g id="ytick_35">
     <g id="line2d_70">
      <g>
       <use style="fill:#262626;stroke:#262626;stroke-width:0.5;" x="90" xlink:href="#m89de4def66" y="376.564934"/>
      </g>
     </g>
    </g>
    <g id="ytick_36">
     <g id="line2d_71">
      <g>
       <use style="fill:#262626;stroke:#262626;stroke-width:0.5;" x="90" xlink:href="#m89de4def66" y="374.167288"/>
      </g>
     </g>
    </g>
    <g id="ytick_37">
     <g id="line2d_72">
      <g>
       <use style="fill:#262626;stroke:#262626;stroke-width:0.5;" x="90" xlink:href="#m89de4def66" y="357.912493"/>
      </g>
     </g>
    </g>
    <g id="ytick_38">
     <g id="line2d_73">
      <g>
       <use style="fill:#262626;stroke:#262626;stroke-width:0.5;" x="90" xlink:href="#m89de4def66" y="349.658657"/>
      </g>
     </g>
    </g>
    <g id="ytick_39">
     <g id="line2d_74">
      <g>
       <use style="fill:#262626;stroke:#262626;stroke-width:0.5;" x="90" xlink:href="#m89de4def66" y="343.802467"/>
      </g>
     </g>
    </g>
    <g id="ytick_40">
     <g id="line2d_75">
      <g>
       <use style="fill:#262626;stroke:#262626;stroke-width:0.5;" x="90" xlink:href="#m89de4def66" y="339.260053"/>
      </g>
     </g>
    </g>
    <g id="ytick_41">
     <g id="line2d_76">
      <g>
       <use style="fill:#262626;stroke:#262626;stroke-width:0.5;" x="90" xlink:href="#m89de4def66" y="335.548631"/>
      </g>
     </g>
    </g>
    <g id="ytick_42">
     <g id="line2d_77">
      <g>
       <use style="fill:#262626;stroke:#262626;stroke-width:0.5;" x="90" xlink:href="#m89de4def66" y="332.410668"/>
      </g>
     </g>
    </g>
    <g id="ytick_43">
     <g id="line2d_78">
      <g>
       <use style="fill:#262626;stroke:#262626;stroke-width:0.5;" x="90" xlink:href="#m89de4def66" y="329.69244"/>
      </g>
     </g>
    </g>
    <g id="ytick_44">
     <g id="line2d_79">
      <g>
       <use style="fill:#262626;stroke:#262626;stroke-width:0.5;" x="90" xlink:href="#m89de4def66" y="327.294794"/>
      </g>
     </g>
    </g>
    <g id="ytick_45">
     <g id="line2d_80">
      <g>
       <use style="fill:#262626;stroke:#262626;stroke-width:0.5;" x="90" xlink:href="#m89de4def66" y="311.04"/>
      </g>
     </g>
    </g>
   </g>
   <g id="line2d_81">
    <path clip-path="url(#p300797c3c7)" d="M -1 361.058432 
L 151.095164 361.059771 
L 206.306812 386.720351 
L 238.603556 411.469904 
L 261.518461 395.554043 
L 279.292642 400.352823 
L 293.815205 352.085826 
L 306.093857 414.330457 
L 316.730109 417.51492 
L 326.111949 417.061738 
L 334.50429 413.510756 
L 342.096086 403.007753 
L 349.026853 350.961452 
L 355.402541 400.478478 
L 361.305505 415.873886 
L 366.801034 432.297945 
L 371.941758 427.210973 
L 376.770725 443.771158 
L 381.323597 391.538693 
L 385.630245 420.033025 
L 389.715939 423.830382 
L 393.602249 415.891553 
L 397.307735 410.09787 
L 400.848476 397.136113 
L 404.238502 361.351722 
L 407.490119 385.560594 
L 410.614189 401.537706 
L 413.620341 409.327755 
L 416.517154 420.180859 
L 419.312303 437.153118 
L 422.012683 398.971125 
L 424.624509 396.677905 
L 427.153406 408.669414 
L 429.604479 414.281825 
L 431.982374 417.748355 
L 434.291335 414.544984 
L 436.535246 408.974829 
L 438.717672 426.475365 
L 440.841893 428.466538 
L 442.910933 438.069275 
L 444.927587 424.613078 
L 446.894442 430.61164 
L 448.813898 424.036829 
L 450.688186 444.672293 
L 452.519383 434.630139 
L 454.309426 434.371281 
L 456.060125 433.770221 
L 457.773171 436.495001 
L 459.45015 436.236825 
L 461.09255 439.125281 
L 462.701768 441.551602 
L 464.279118 441.021808 
L 465.825838 442.093383 
L 467.343094 440.768904 
L 468.83199 440.39321 
L 470.293564 428.285888 
L 471.728802 450.339304 
L 473.138637 442.019638 
L 474.523951 441.174005 
L 475.885584 444.088066 
L 477.224331 443.420867 
L 478.540949 441.732243 
L 479.836157 450.189162 
L 481.110642 444.870018 
L 482.365055 447.814947 
L 483.600019 440.221996 
L 484.816127 444.143702 
L 486.013948 444.945328 
L 487.194022 446.915453 
L 488.356869 443.608347 
L 489.502983 447.004424 
L 490.63284 452.681108 
L 491.746894 445.650537 
L 492.845581 449.685412 
L 493.92932 449.871936 
L 494.998512 449.8392 
L 496.053541 448.216204 
L 498.122582 447.828923 
L 499.137291 449.663647 
L 500.139235 450.301664 
L 501.128734 458.481805 
L 502.10609 447.732526 
L 503.0716 451.954017 
L 504.025546 450.039358 
L 504.968203 454.124707 
L 505.899834 462.523236 
L 506.820695 454.680457 
L 507.731032 450.38337 
L 508.631082 453.609471 
L 509.521075 451.266016 
L 510.401234 453.12057 
L 511.271773 451.041387 
L 512.132901 453.933555 
L 512.984819 453.782061 
L 513.827722 451.667992 
L 514.661799 455.005828 
L 515.487232 452.944613 
L 516.304198 454.996191 
L 517.112871 451.990295 
L 517.913416 459.150956 
L 518.705996 455.650488 
L 519.490766 454.124766 
L 521.037486 454.871133 
L 521.799727 456.364958 
L 522.554743 454.880032 
L 523.302669 455.045937 
L 524.043638 458.197107 
L 524.777778 456.541006 
L 525.505212 456.940826 
L 526.226064 460.179613 
L 526.940451 455.82535 
L 527.648487 455.757396 
L 528.350285 457.499909 
L 529.045954 457.838611 
L 529.7356 458.606323 
L 530.419326 458.478085 
L 531.097232 458.043178 
L 531.769418 455.44096 
L 532.435979 458.698538 
L 533.097009 459.034248 
L 533.752597 459.033269 
L 534.402834 460.922349 
L 535.047806 460.532817 
L 535.687597 458.866028 
L 536.32229 461.462558 
L 536.951966 456.958468 
L 537.576703 461.234581 
L 538.196578 463.001829 
L 538.811667 462.981822 
L 539.422042 459.204365 
L 540.027776 459.644979 
L 540.628938 460.371732 
L 541.225596 458.503058 
L 541.817819 465.768008 
L 542.405671 459.49629 
L 542.989216 461.866316 
L 543.568517 462.549031 
L 544.143636 460.992533 
L 544.714632 462.626878 
L 545.281563 462.770781 
L 545.844488 464.286454 
L 546.403463 460.830007 
L 546.958543 461.495392 
L 547.509781 464.792751 
L 548.05723 464.687708 
L 548.600942 459.336183 
L 549.140969 459.608744 
L 549.677358 466.946899 
L 550.21016 464.899905 
L 551.26519 459.119354 
L 551.78751 464.479831 
L 552.306428 464.229934 
L 552.821987 460.661106 
L 553.33423 463.516719 
L 553.8432 464.403458 
L 554.348939 460.963092 
L 554.851487 464.506798 
L 555.350884 462.770865 
L 555.847169 463.385947 
L 556.340382 461.662034 
L 556.830559 461.520313 
L 557.317739 464.659611 
L 557.801956 463.187803 
L 558.283248 464.129809 
L 558.76165 462.091605 
L 559.237195 472.413701 
L 559.709918 470.102934 
L 560.179852 464.602208 
L 560.647029 475.606744 
L 561.111483 467.726541 
L 561.573244 463.906928 
L 562.032344 467.562354 
L 562.488812 461.704627 
L 562.94268 462.731356 
L 563.393976 468.99603 
L 563.84273 463.128154 
L 564.28897 468.652968 
L 564.732723 464.948157 
L 565.174019 464.642508 
L 565.612882 466.249385 
L 566.049341 466.554284 
L 566.483422 465.012584 
L 566.91515 472.047605 
L 567.34455 467.475702 
L 567.771648 468.955273 
L 568.196468 467.13867 
L 568.619034 466.800545 
L 569.039371 468.803357 
L 569.457501 465.955678 
L 569.873447 470.817014 
L 570.287233 466.462004 
L 570.69888 467.34662 
L 571.108411 467.130421 
L 571.515847 463.538346 
L 571.921209 469.208944 
L 572.32452 466.502953 
L 572.725798 472.358772 
L 573.125065 464.273882 
L 573.52234 470.766111 
L 573.917644 472.145959 
L 574.310996 469.400472 
L 574.702415 459.839878 
L 575.091919 463.646035 
L 575.479529 475.49636 
L 575.865261 468.381935 
L 576.249135 467.836846 
L 576.631167 472.713855 
L 577.011376 470.043935 
L 577.389778 465.40303 
L 577.766391 465.269863 
L 578.141232 464.572722 
L 578.514318 469.451913 
L 578.885664 467.615285 
L 579.255287 474.601331 
L 579.989426 468.16744 
L 580.353974 467.92692 
L 580.716861 465.994132 
L 581.078102 471.745002 
L 581.437713 470.545971 
L 581.795707 470.056914 
L 582.506904 464.701442 
L 583.211808 475.212131 
L 583.561934 470.688503 
L 583.910528 470.368823 
L 584.257603 470.268901 
L 584.603172 467.167417 
L 584.947248 467.078289 
L 585.289845 472.778497 
L 585.630974 473.478687 
L 585.970649 465.216327 
L 586.308881 475.155539 
L 586.645683 470.078699 
L 586.981067 483.929974 
L 587.315045 470.111294 
L 587.647628 470.587487 
L 587.978828 468.68215 
L 588.308657 470.810255 
L 588.964246 477.887114 
L 589.290028 473.543284 
L 589.614483 473.465573 
L 589.937621 469.654917 
L 590.259454 472.18717 
L 590.579992 472.19933 
L 590.899246 466.912498 
L 591.217224 476.475934 
L 591.533939 471.210768 
L 591.849399 479.505851 
L 592.163614 474.004591 
L 592.476596 477.648889 
L 592.788352 473.644602 
L 593.098892 479.849798 
L 593.408227 474.192121 
L 593.716365 474.615869 
L 594.023315 470.793897 
L 594.329088 469.26079 
L 594.633691 480.855564 
L 594.937133 472.497383 
L 595.239424 470.626246 
L 595.540572 476.170735 
L 595.840586 471.909603 
L 596.139474 471.060623 
L 596.437245 472.835058 
L 596.733906 476.792476 
L 597.029467 466.133868 
L 597.323936 477.038532 
L 597.617319 473.315091 
L 597.909626 478.955764 
L 598.200864 473.010077 
L 598.491042 476.132094 
L 598.780166 470.522847 
L 599.355284 481.786122 
L 599.641294 477.078819 
L 599.92628 475.616235 
L 600.21025 476.307321 
L 600.493212 473.940422 
L 600.775172 470.434115 
L 601.056137 475.373305 
L 601.336115 475.079634 
L 601.615112 473.769452 
L 601.893135 473.253206 
L 602.170191 478.080034 
L 602.446287 471.010461 
L 602.721429 476.260774 
L 602.995624 476.169531 
L 603.268878 475.533814 
L 603.812591 467.07928 
L 604.083062 476.543307 
L 604.621264 473.253041 
L 604.889007 473.289759 
L 605.155853 472.345292 
L 605.421809 477.519652 
L 605.686879 475.526358 
L 605.95107 474.502457 
L 606.476838 473.710862 
L 606.738427 474.571716 
L 606.999159 478.216131 
L 607.776273 470.95294 
L 608.033635 478.082376 
L 608.290169 478.995857 
L 608.545879 478.682607 
L 608.80077 465.772968 
L 609.054849 471.902289 
L 609.308119 469.967516 
L 609.560587 470.671122 
L 609.812258 468.569536 
L 610.063135 473.785073 
L 610.313225 475.655875 
L 610.562532 476.19817 
L 610.811062 475.091611 
L 611.058818 466.120129 
L 611.305806 467.399854 
L 611.55203 484.889418 
L 611.797496 477.755 
L 612.042208 483.337874 
L 612.28617 471.84354 
L 612.529387 473.518635 
L 612.771864 480.640641 
L 613.013605 477.881697 
L 613.254614 470.380584 
L 613.494897 480.413022 
L 613.734457 474.914643 
L 613.973298 475.78768 
L 614.211426 479.416118 
L 614.448843 475.465963 
L 614.685555 474.440265 
L 614.921566 472.670775 
L 615.15688 481.421452 
L 615.625431 468.164957 
L 615.858678 480.32045 
L 616.091243 471.779194 
L 616.323131 475.354423 
L 616.554347 488.067225 
L 616.784892 485.360448 
L 617.014773 477.878489 
L 617.243992 481.902204 
L 617.472553 474.605029 
L 617.700461 485.469731 
L 617.927718 475.938699 
L 618.154329 476.66602 
L 618.380296 472.27951 
L 618.605625 475.172742 
L 618.830318 464.655717 
L 619.054379 477.550128 
L 619.277811 469.705963 
L 619.500618 474.868984 
L 619.722804 477.113026 
L 619.944372 489.358684 
L 620.165325 473.762021 
L 620.385667 475.1625 
L 620.605401 484.350442 
L 620.824531 486.784351 
L 621.26099 473.177278 
L 621.478326 481.04151 
L 621.69507 480.894456 
L 621.911227 477.133059 
L 622.126798 478.841511 
L 622.341787 475.052381 
L 622.556198 479.392739 
L 622.770034 480.452174 
L 622.983296 484.531748 
L 623.195989 471.256502 
L 623.408116 471.969201 
L 623.830683 488.788452 
L 624.041128 479.123422 
L 624.251019 480.921491 
L 624.460358 476.853567 
L 624.669149 470.082552 
L 624.877394 470.949169 
L 625.085096 466.13433 
L 625.292257 488.265451 
L 625.498881 476.392843 
L 625.704971 482.230004 
L 625.910528 479.115546 
L 626.115557 481.274937 
L 626.320059 486.884413 
L 626.524038 481.579922 
L 626.727495 488.965791 
L 626.930435 475.104467 
L 627.132858 487.649214 
L 627.334768 482.331338 
L 627.536168 481.282629 
L 627.73706 479.127575 
L 627.937446 485.74032 
L 628.13733 472.96033 
L 628.336713 485.220893 
L 628.535599 485.334343 
L 628.733989 481.29499 
L 628.931886 471.490039 
L 629.129293 475.478839 
L 629.326211 474.844276 
L 629.522644 482.338447 
L 629.718594 482.153008 
L 629.914063 480.781324 
L 630.109054 483.827219 
L 630.303568 476.397872 
L 630.497608 486.645918 
L 630.691177 478.95693 
L 630.884277 477.23765 
L 631.07691 480.708934 
L 631.460783 473.632634 
L 631.652028 485.447995 
L 631.842815 475.487572 
L 632.033146 484.922733 
L 632.223024 477.191894 
L 632.41245 477.814747 
L 632.789956 483.283257 
L 632.97804 494.453361 
L 633.165681 478.415434 
L 633.352881 478.127182 
L 633.539642 477.566937 
L 633.725966 494.863828 
L 633.911856 480.237329 
L 634.097312 480.824478 
L 634.282338 480.341868 
L 634.466935 476.100768 
L 634.651105 475.294673 
L 634.83485 476.03831 
L 635.018173 478.66005 
L 635.201074 482.890527 
L 635.383557 481.545013 
L 635.565622 487.083372 
L 635.747272 483.910299 
L 635.928509 476.199274 
L 636.109335 476.039188 
L 636.289751 485.315573 
L 636.469759 477.990258 
L 636.649361 479.413073 
L 636.828559 472.461733 
L 637.007355 472.723706 
L 637.185751 478.145319 
L 637.363748 491.550539 
L 637.541348 478.045632 
L 637.718553 479.019406 
L 637.895364 485.799784 
L 638.071784 473.074116 
L 638.247814 490.021987 
L 638.423456 481.319053 
L 638.598712 478.430893 
L 638.773582 477.908313 
L 638.94807 485.927747 
L 639.122176 485.816189 
L 639.295903 473.157348 
L 639.469251 484.201551 
L 639.642223 488.016513 
L 639.81482 478.503708 
L 639.987044 486.440223 
L 640.158897 473.390604 
L 640.330379 482.17692 
L 640.501493 479.20453 
L 640.67224 479.296616 
L 640.842622 486.197276 
L 641.012641 473.783186 
L 641.182297 473.701543 
L 641.520529 487.212157 
L 641.689108 477.590854 
L 641.857331 478.632952 
L 642.0252 476.482336 
L 642.192715 483.993851 
L 642.359879 480.457249 
L 642.526693 495.28273 
L 642.693158 480.959559 
L 642.859276 477.413071 
L 643.025049 477.025356 
L 643.190477 474.543238 
L 643.355562 483.030126 
L 643.520306 480.610222 
L 643.684709 483.907576 
L 643.848774 482.235672 
L 644.012502 487.033504 
L 644.175894 480.352443 
L 644.338952 478.29695 
L 644.501676 472.123584 
L 644.664069 483.198264 
L 644.826131 474.54887 
L 644.987864 481.541619 
L 645.14927 474.073731 
L 645.310349 487.698449 
L 645.471103 479.175753 
L 645.631533 482.166346 
L 645.791641 491.486801 
L 645.951427 476.423598 
L 646.110894 475.740621 
L 646.270042 477.139878 
L 646.428873 472.055845 
L 646.587387 476.516231 
L 646.903473 478.650838 
L 647.061047 477.260953 
L 647.375263 481.893362 
L 647.531907 480.36844 
L 647.688244 480.399376 
L 647.844274 487.404724 
L 647.844274 487.404724 
" style="fill:none;stroke:#b22222;stroke-linecap:round;stroke-width:1.75;"/>
   </g>
   <g id="patch_6">
    <path d="M 90 512.64 
L 90 311.04 
" style="fill:none;stroke:#262626;stroke-linecap:square;stroke-linejoin:miter;stroke-width:1.25;"/>
   </g>
   <g id="patch_7">
    <path d="M 90 512.64 
L 648 512.64 
" style="fill:none;stroke:#262626;stroke-linecap:square;stroke-linejoin:miter;stroke-width:1.25;"/>
   </g>
  </g>
 </g>
 <defs>
  <clipPath id="pff3bc15da1">
   <rect height="201.6" width="558" x="90" y="69.12"/>
  </clipPath>
  <clipPath id="p300797c3c7">
   <rect height="201.6" width="558" x="90" y="311.04"/>
  </clipPath>
 </defs>
</svg>
