<?xml version="1.0" encoding="utf-8" standalone="no"?>
<!DOCTYPE svg PUBLIC "-//W3C//DTD SVG 1.1//EN"
  "http://www.w3.org/Graphics/SVG/1.1/DTD/svg11.dtd">
<!-- Created with matplotlib (http://matplotlib.org/) -->
<svg height="576pt" version="1.1" viewBox="0 0 720 576" width="720pt" xmlns="http://www.w3.org/2000/svg" xmlns:xlink="http://www.w3.org/1999/xlink">
 <defs>
  <style type="text/css">
*{stroke-linecap:butt;stroke-linejoin:round;}
  </style>
 </defs>
 <g id="figure_1">
  <g id="patch_1">
   <path d="M 0 576 
L 720 576 
L 720 0 
L 0 0 
z
" style="fill:#ffffff;"/>
  </g>
  <g id="axes_1">
   <g id="patch_2">
    <path d="M 90 270.72 
L 648 270.72 
L 648 69.12 
L 90 69.12 
z
" style="fill:#ffffff;"/>
   </g>
   <g id="matplotlib.axis_1">
    <g id="xtick_1">
     <g id="line2d_1">
      <defs>
       <path d="M 0 0 
L 0 6 
" id="mfe337c6ce5" style="stroke:#262626;"/>
      </defs>
      <g>
       <use style="fill:#262626;stroke:#262626;" x="90" xlink:href="#mfe337c6ce5" y="270.72"/>
      </g>
     </g>
     <g id="text_1">
      <!-- 0 -->
      <defs>
       <path d="M 4.15625 35.296875 
Q 4.15625 48 6.765625 55.734375 
Q 9.375 63.484375 14.515625 67.671875 
Q 19.671875 71.875 27.484375 71.875 
Q 33.25 71.875 37.59375 69.546875 
Q 41.9375 67.234375 44.765625 62.859375 
Q 47.609375 58.5 49.21875 52.21875 
Q 50.828125 45.953125 50.828125 35.296875 
Q 50.828125 22.703125 48.234375 14.96875 
Q 45.65625 7.234375 40.5 3 
Q 35.359375 -1.21875 27.484375 -1.21875 
Q 17.140625 -1.21875 11.234375 6.203125 
Q 4.15625 15.140625 4.15625 35.296875 
z
M 13.1875 35.296875 
Q 13.1875 17.671875 17.3125 11.828125 
Q 21.4375 6 27.484375 6 
Q 33.546875 6 37.671875 11.859375 
Q 41.796875 17.71875 41.796875 35.296875 
Q 41.796875 52.984375 37.671875 58.78125 
Q 33.546875 64.59375 27.390625 64.59375 
Q 21.34375 64.59375 17.71875 59.46875 
Q 13.1875 52.9375 13.1875 35.296875 
z
" id="ArialMT-30"/>
      </defs>
      <g style="fill:#262626;" transform="translate(87.219531 290.877812)scale(0.1 -0.1)">
       <use xlink:href="#ArialMT-30"/>
      </g>
     </g>
    </g>
    <g id="xtick_2">
     <g id="line2d_2">
      <g>
       <use style="fill:#262626;stroke:#262626;" x="198.984375" xlink:href="#mfe337c6ce5" y="270.72"/>
      </g>
     </g>
     <g id="text_2">
      <!-- 200 -->
      <defs>
       <path d="M 50.34375 8.453125 
L 50.34375 0 
L 3.03125 0 
Q 2.9375 3.171875 4.046875 6.109375 
Q 5.859375 10.9375 9.828125 15.625 
Q 13.8125 20.3125 21.34375 26.46875 
Q 33.015625 36.03125 37.109375 41.625 
Q 41.21875 47.21875 41.21875 52.203125 
Q 41.21875 57.421875 37.46875 61 
Q 33.734375 64.59375 27.734375 64.59375 
Q 21.390625 64.59375 17.578125 60.78125 
Q 13.765625 56.984375 13.71875 50.25 
L 4.6875 51.171875 
Q 5.609375 61.28125 11.65625 66.578125 
Q 17.71875 71.875 27.9375 71.875 
Q 38.234375 71.875 44.234375 66.15625 
Q 50.25 60.453125 50.25 52 
Q 50.25 47.703125 48.484375 43.546875 
Q 46.734375 39.40625 42.65625 34.8125 
Q 38.578125 30.21875 29.109375 22.21875 
Q 21.1875 15.578125 18.9375 13.203125 
Q 16.703125 10.84375 15.234375 8.453125 
z
" id="ArialMT-32"/>
      </defs>
      <g style="fill:#262626;" transform="translate(190.642969 290.877812)scale(0.1 -0.1)">
       <use xlink:href="#ArialMT-32"/>
       <use x="55.615234" xlink:href="#ArialMT-30"/>
       <use x="111.230469" xlink:href="#ArialMT-30"/>
      </g>
     </g>
    </g>
    <g id="xtick_3">
     <g id="line2d_3">
      <g>
       <use style="fill:#262626;stroke:#262626;" x="307.96875" xlink:href="#mfe337c6ce5" y="270.72"/>
      </g>
     </g>
     <g id="text_3">
      <!-- 400 -->
      <defs>
       <path d="M 32.328125 0 
L 32.328125 17.140625 
L 1.265625 17.140625 
L 1.265625 25.203125 
L 33.9375 71.578125 
L 41.109375 71.578125 
L 41.109375 25.203125 
L 50.78125 25.203125 
L 50.78125 17.140625 
L 41.109375 17.140625 
L 41.109375 0 
z
M 32.328125 25.203125 
L 32.328125 57.46875 
L 9.90625 25.203125 
z
" id="ArialMT-34"/>
      </defs>
      <g style="fill:#262626;" transform="translate(299.627344 290.877812)scale(0.1 -0.1)">
       <use xlink:href="#ArialMT-34"/>
       <use x="55.615234" xlink:href="#ArialMT-30"/>
       <use x="111.230469" xlink:href="#ArialMT-30"/>
      </g>
     </g>
    </g>
    <g id="xtick_4">
     <g id="line2d_4">
      <g>
       <use style="fill:#262626;stroke:#262626;" x="416.953125" xlink:href="#mfe337c6ce5" y="270.72"/>
      </g>
     </g>
     <g id="text_4">
      <!-- 600 -->
      <defs>
       <path d="M 49.75 54.046875 
L 41.015625 53.375 
Q 39.84375 58.546875 37.703125 60.890625 
Q 34.125 64.65625 28.90625 64.65625 
Q 24.703125 64.65625 21.53125 62.3125 
Q 17.390625 59.28125 14.984375 53.46875 
Q 12.59375 47.65625 12.5 36.921875 
Q 15.671875 41.75 20.265625 44.09375 
Q 24.859375 46.4375 29.890625 46.4375 
Q 38.671875 46.4375 44.84375 39.96875 
Q 51.03125 33.5 51.03125 23.25 
Q 51.03125 16.5 48.125 10.71875 
Q 45.21875 4.9375 40.140625 1.859375 
Q 35.0625 -1.21875 28.609375 -1.21875 
Q 17.625 -1.21875 10.6875 6.859375 
Q 3.765625 14.9375 3.765625 33.5 
Q 3.765625 54.25 11.421875 63.671875 
Q 18.109375 71.875 29.4375 71.875 
Q 37.890625 71.875 43.28125 67.140625 
Q 48.6875 62.40625 49.75 54.046875 
z
M 13.875 23.1875 
Q 13.875 18.65625 15.796875 14.5 
Q 17.71875 10.359375 21.1875 8.171875 
Q 24.65625 6 28.46875 6 
Q 34.03125 6 38.03125 10.484375 
Q 42.046875 14.984375 42.046875 22.703125 
Q 42.046875 30.125 38.078125 34.390625 
Q 34.125 38.671875 28.125 38.671875 
Q 22.171875 38.671875 18.015625 34.390625 
Q 13.875 30.125 13.875 23.1875 
z
" id="ArialMT-36"/>
      </defs>
      <g style="fill:#262626;" transform="translate(408.611719 290.877812)scale(0.1 -0.1)">
       <use xlink:href="#ArialMT-36"/>
       <use x="55.615234" xlink:href="#ArialMT-30"/>
       <use x="111.230469" xlink:href="#ArialMT-30"/>
      </g>
     </g>
    </g>
    <g id="xtick_5">
     <g id="line2d_5">
      <g>
       <use style="fill:#262626;stroke:#262626;" x="525.9375" xlink:href="#mfe337c6ce5" y="270.72"/>
      </g>
     </g>
     <g id="text_5">
      <!-- 800 -->
      <defs>
       <path d="M 17.671875 38.8125 
Q 12.203125 40.828125 9.5625 44.53125 
Q 6.9375 48.25 6.9375 53.421875 
Q 6.9375 61.234375 12.546875 66.546875 
Q 18.171875 71.875 27.484375 71.875 
Q 36.859375 71.875 42.578125 66.421875 
Q 48.296875 60.984375 48.296875 53.171875 
Q 48.296875 48.1875 45.671875 44.5 
Q 43.0625 40.828125 37.75 38.8125 
Q 44.34375 36.671875 47.78125 31.875 
Q 51.21875 27.09375 51.21875 20.453125 
Q 51.21875 11.28125 44.71875 5.03125 
Q 38.234375 -1.21875 27.640625 -1.21875 
Q 17.046875 -1.21875 10.546875 5.046875 
Q 4.046875 11.328125 4.046875 20.703125 
Q 4.046875 27.6875 7.59375 32.390625 
Q 11.140625 37.109375 17.671875 38.8125 
z
M 15.921875 53.71875 
Q 15.921875 48.640625 19.1875 45.40625 
Q 22.46875 42.1875 27.6875 42.1875 
Q 32.765625 42.1875 36.015625 45.375 
Q 39.265625 48.578125 39.265625 53.21875 
Q 39.265625 58.0625 35.90625 61.359375 
Q 32.5625 64.65625 27.59375 64.65625 
Q 22.5625 64.65625 19.234375 61.421875 
Q 15.921875 58.203125 15.921875 53.71875 
z
M 13.09375 20.65625 
Q 13.09375 16.890625 14.875 13.375 
Q 16.65625 9.859375 20.171875 7.921875 
Q 23.6875 6 27.734375 6 
Q 34.03125 6 38.125 10.046875 
Q 42.234375 14.109375 42.234375 20.359375 
Q 42.234375 26.703125 38.015625 30.859375 
Q 33.796875 35.015625 27.4375 35.015625 
Q 21.234375 35.015625 17.15625 30.90625 
Q 13.09375 26.8125 13.09375 20.65625 
z
" id="ArialMT-38"/>
      </defs>
      <g style="fill:#262626;" transform="translate(517.596094 290.877812)scale(0.1 -0.1)">
       <use xlink:href="#ArialMT-38"/>
       <use x="55.615234" xlink:href="#ArialMT-30"/>
       <use x="111.230469" xlink:href="#ArialMT-30"/>
      </g>
     </g>
    </g>
    <g id="xtick_6">
     <g id="line2d_6">
      <g>
       <use style="fill:#262626;stroke:#262626;" x="634.921875" xlink:href="#mfe337c6ce5" y="270.72"/>
      </g>
     </g>
     <g id="text_6">
      <!-- 1000 -->
      <defs>
       <path d="M 37.25 0 
L 28.46875 0 
L 28.46875 56 
Q 25.296875 52.984375 20.140625 49.953125 
Q 14.984375 46.921875 10.890625 45.40625 
L 10.890625 53.90625 
Q 18.265625 57.375 23.78125 62.296875 
Q 29.296875 67.234375 31.59375 71.875 
L 37.25 71.875 
z
" id="ArialMT-31"/>
      </defs>
      <g style="fill:#262626;" transform="translate(623.8 290.877812)scale(0.1 -0.1)">
       <use xlink:href="#ArialMT-31"/>
       <use x="55.615234" xlink:href="#ArialMT-30"/>
       <use x="111.230469" xlink:href="#ArialMT-30"/>
       <use x="166.845703" xlink:href="#ArialMT-30"/>
      </g>
     </g>
    </g>
   </g>
   <g id="matplotlib.axis_2">
    <g id="ytick_1">
     <g id="line2d_7">
      <defs>
       <path d="M 0 0 
L -6 0 
" id="mf61b47d1b1" style="stroke:#262626;"/>
      </defs>
      <g>
       <use style="fill:#262626;stroke:#262626;" x="90" xlink:href="#mf61b47d1b1" y="270.72"/>
      </g>
     </g>
     <g id="text_7">
      <!-- −0.6 -->
      <defs>
       <path d="M 52.828125 31.203125 
L 5.5625 31.203125 
L 5.5625 39.40625 
L 52.828125 39.40625 
z
" id="ArialMT-2212"/>
       <path d="M 9.078125 0 
L 9.078125 10.015625 
L 19.09375 10.015625 
L 19.09375 0 
z
" id="ArialMT-2e"/>
      </defs>
      <g style="fill:#262626;" transform="translate(57.259375 274.298906)scale(0.1 -0.1)">
       <use xlink:href="#ArialMT-2212"/>
       <use x="58.398438" xlink:href="#ArialMT-30"/>
       <use x="114.013672" xlink:href="#ArialMT-2e"/>
       <use x="141.796875" xlink:href="#ArialMT-36"/>
      </g>
     </g>
    </g>
    <g id="ytick_2">
     <g id="line2d_8">
      <g>
       <use style="fill:#262626;stroke:#262626;" x="90" xlink:href="#mf61b47d1b1" y="237.12"/>
      </g>
     </g>
     <g id="text_8">
      <!-- −0.4 -->
      <g style="fill:#262626;" transform="translate(57.259375 240.698906)scale(0.1 -0.1)">
       <use xlink:href="#ArialMT-2212"/>
       <use x="58.398438" xlink:href="#ArialMT-30"/>
       <use x="114.013672" xlink:href="#ArialMT-2e"/>
       <use x="141.796875" xlink:href="#ArialMT-34"/>
      </g>
     </g>
    </g>
    <g id="ytick_3">
     <g id="line2d_9">
      <g>
       <use style="fill:#262626;stroke:#262626;" x="90" xlink:href="#mf61b47d1b1" y="203.52"/>
      </g>
     </g>
     <g id="text_9">
      <!-- −0.2 -->
      <g style="fill:#262626;" transform="translate(57.259375 207.098906)scale(0.1 -0.1)">
       <use xlink:href="#ArialMT-2212"/>
       <use x="58.398438" xlink:href="#ArialMT-30"/>
       <use x="114.013672" xlink:href="#ArialMT-2e"/>
       <use x="141.796875" xlink:href="#ArialMT-32"/>
      </g>
     </g>
    </g>
    <g id="ytick_4">
     <g id="line2d_10">
      <g>
       <use style="fill:#262626;stroke:#262626;" x="90" xlink:href="#mf61b47d1b1" y="169.92"/>
      </g>
     </g>
     <g id="text_10">
      <!-- 0.0 -->
      <g style="fill:#262626;" transform="translate(63.1 173.498906)scale(0.1 -0.1)">
       <use xlink:href="#ArialMT-30"/>
       <use x="55.615234" xlink:href="#ArialMT-2e"/>
       <use x="83.398438" xlink:href="#ArialMT-30"/>
      </g>
     </g>
    </g>
    <g id="ytick_5">
     <g id="line2d_11">
      <g>
       <use style="fill:#262626;stroke:#262626;" x="90" xlink:href="#mf61b47d1b1" y="136.32"/>
      </g>
     </g>
     <g id="text_11">
      <!-- 0.2 -->
      <g style="fill:#262626;" transform="translate(63.1 139.898906)scale(0.1 -0.1)">
       <use xlink:href="#ArialMT-30"/>
       <use x="55.615234" xlink:href="#ArialMT-2e"/>
       <use x="83.398438" xlink:href="#ArialMT-32"/>
      </g>
     </g>
    </g>
    <g id="ytick_6">
     <g id="line2d_12">
      <g>
       <use style="fill:#262626;stroke:#262626;" x="90" xlink:href="#mf61b47d1b1" y="102.72"/>
      </g>
     </g>
     <g id="text_12">
      <!-- 0.4 -->
      <g style="fill:#262626;" transform="translate(63.1 106.298906)scale(0.1 -0.1)">
       <use xlink:href="#ArialMT-30"/>
       <use x="55.615234" xlink:href="#ArialMT-2e"/>
       <use x="83.398438" xlink:href="#ArialMT-34"/>
      </g>
     </g>
    </g>
    <g id="ytick_7">
     <g id="line2d_13">
      <g>
       <use style="fill:#262626;stroke:#262626;" x="90" xlink:href="#mf61b47d1b1" y="69.12"/>
      </g>
     </g>
     <g id="text_13">
      <!-- 0.6 -->
      <g style="fill:#262626;" transform="translate(63.1 72.698906)scale(0.1 -0.1)">
       <use xlink:href="#ArialMT-30"/>
       <use x="55.615234" xlink:href="#ArialMT-2e"/>
       <use x="83.398438" xlink:href="#ArialMT-36"/>
      </g>
     </g>
    </g>
   </g>
   <g id="line2d_14">
    <path clip-path="url(#p16777a6c06)" d="M 90 195.15999 
L 90.544922 196.657061 
L 91.089844 197.779863 
L 91.634766 198.220781 
L 92.179688 198.159258 
L 92.724609 197.815752 
L 93.814453 194.303789 
L 95.449219 187.900225 
L 95.994141 186.485186 
L 97.628906 183.901201 
L 98.173828 182.824541 
L 98.71875 181.296709 
L 99.263672 179.117754 
L 101.443359 167.018145 
L 102.533203 162.757646 
L 103.623047 159.312334 
L 104.712891 156.220781 
L 105.257812 154.626299 
L 105.802734 153.657305 
L 106.347656 153.072832 
L 106.892578 152.724199 
L 107.982422 153.206133 
L 109.072266 155.672197 
L 109.617188 157.138506 
L 110.707031 159.189287 
L 111.796875 159.84041 
L 112.341797 159.609697 
L 113.431641 158.953447 
L 113.976562 158.840654 
L 114.521484 159.014971 
L 115.611328 159.742998 
L 116.15625 160.122393 
L 116.701172 160.78377 
L 117.246094 162.024492 
L 118.335938 163.54207 
L 118.880859 163.865068 
L 119.425781 163.193437 
L 119.970703 162.152666 
L 121.060547 157.712725 
L 122.150391 150.422197 
L 124.330078 131.775469 
L 124.875 128.755693 
L 125.419922 126.494707 
L 125.964844 125.525713 
L 126.509766 125.336016 
L 127.054688 126.438311 
L 127.599609 127.796953 
L 129.779297 135.092607 
L 131.414062 142.295977 
L 133.048828 150.422197 
L 134.138672 155.646562 
L 134.683594 157.169268 
L 135.228516 158.117754 
L 135.773438 158.276689 
L 136.863281 157.492266 
L 137.408203 157.497393 
L 137.953125 158.748369 
L 138.498047 160.460771 
L 139.587891 166.438799 
L 140.677734 172.488604 
L 141.222656 174.400957 
L 141.767578 175.733965 
L 142.3125 175.77498 
L 142.857422 175.313555 
L 143.402344 174.467607 
L 143.947266 172.84749 
L 145.582031 169.38167 
L 146.126953 168.684404 
L 146.671875 168.586992 
L 147.216797 168.274248 
L 147.761719 168.299883 
L 148.306641 167.710283 
L 149.396484 167.187334 
L 149.941406 166.305498 
L 150.486328 165.79793 
L 151.03125 164.97249 
L 152.121094 164.562334 
L 152.666016 164.998125 
L 153.210938 165.674883 
L 154.300781 168.376787 
L 154.845703 170.319902 
L 155.390625 172.719316 
L 155.935547 175.739092 
L 158.115234 190.104814 
L 158.660156 192.801592 
L 159.205078 194.90877 
L 160.294922 197.887529 
L 160.839844 199.076982 
L 161.929688 200.52791 
L 162.474609 201.071367 
L 163.019531 201.168779 
L 163.564453 200.88167 
L 164.654297 199.615312 
L 165.199219 198.446367 
L 166.289062 197.118486 
L 166.833984 196.610918 
L 167.378906 196.903154 
L 167.923828 197.687578 
L 169.013672 201.625078 
L 169.558594 203.629717 
L 170.103516 204.855059 
L 170.648438 205.096025 
L 171.193359 204.142412 
L 172.283203 198.923174 
L 174.462891 184.89583 
L 175.552734 180.727617 
L 176.097656 179.543291 
L 176.642578 178.866533 
L 177.1875 178.620439 
L 177.732422 179.015215 
L 178.822266 182.347734 
L 180.457031 190.191973 
L 181.001953 192.46834 
L 182.091797 195.21126 
L 182.636719 195.518877 
L 183.181641 195.344561 
L 183.726562 195.011309 
L 184.271484 193.944902 
L 184.816406 193.288652 
L 185.361328 192.406816 
L 186.996094 190.530352 
L 187.541016 189.986895 
L 188.085938 189.048662 
L 189.175781 186.336504 
L 191.355469 177.425859 
L 195.169922 161.122148 
L 196.804688 154.964678 
L 197.894531 152.729326 
L 198.439453 152.862627 
L 198.984375 153.293291 
L 200.074219 155.831133 
L 201.164062 158.148516 
L 201.708984 158.789385 
L 202.798828 158.779131 
L 203.888672 157.881914 
L 205.523438 157.066729 
L 206.068359 157.446123 
L 206.613281 158.574053 
L 207.158203 160.209551 
L 208.248047 164.090654 
L 208.792969 165.93123 
L 209.337891 167.289873 
L 209.882812 167.920488 
L 210.427734 167.787187 
L 210.972656 167.054033 
L 212.0625 162.737139 
L 212.607422 159.830156 
L 214.242188 147.715166 
L 215.332031 139.727373 
L 216.421875 134.164629 
L 217.511719 130.462969 
L 218.601562 128.427568 
L 219.146484 128.407061 
L 219.691406 128.62752 
L 220.236328 130.07332 
L 220.78125 132.011309 
L 221.326172 134.405596 
L 223.505859 146.36165 
L 224.595703 150.206865 
L 225.140625 151.375811 
L 226.230469 152.785723 
L 226.775391 152.775469 
L 227.865234 153.805986 
L 228.955078 157.205156 
L 231.134766 169.545732 
L 232.224609 173.396074 
L 233.314453 174.493242 
L 233.859375 174.190752 
L 235.494141 172.652666 
L 236.039062 172.401445 
L 236.583984 171.94002 
L 237.128906 172.037432 
L 237.673828 171.986162 
L 238.21875 172.201494 
L 238.763672 172.201494 
L 239.308594 171.699053 
L 240.398438 168.976641 
L 242.033203 164.172686 
L 242.578125 163.131914 
L 243.123047 162.644854 
L 243.667969 162.506426 
L 244.212891 163.080645 
L 244.757812 164.239336 
L 245.847656 167.756426 
L 247.482422 174.903398 
L 249.117188 183.367998 
L 251.841797 197.754229 
L 252.386719 199.564043 
L 252.931641 200.1075 
L 253.476562 199.748613 
L 254.021484 198.928301 
L 255.65625 195.826494 
L 256.201172 195.344561 
L 256.746094 195.677812 
L 257.291016 196.17 
L 258.380859 198.200273 
L 259.470703 201.020098 
L 260.560547 203.845049 
L 261.105469 205.137041 
L 261.650391 205.526689 
L 262.195312 204.906328 
L 262.740234 203.973223 
L 263.830078 198.482256 
L 264.919922 191.150713 
L 266.009766 183.34749 
L 266.554688 180.819902 
L 267.099609 179.169023 
L 267.644531 178.810137 
L 268.189453 179.199785 
L 268.734375 179.866289 
L 270.369141 183.39876 
L 273.638672 191.740312 
L 274.183594 192.591387 
L 275.273438 193.298906 
L 275.818359 193.355303 
L 276.363281 193.134844 
L 276.908203 193.211748 
L 277.453125 192.396562 
L 277.998047 191.945391 
L 279.632812 189.238359 
L 280.177734 188.47957 
L 280.722656 187.505449 
L 281.8125 184.3575 
L 282.902344 179.661211 
L 284.537109 171.340166 
L 287.261719 158.902178 
L 287.806641 156.871904 
L 288.351562 155.282549 
L 288.896484 154.098223 
L 289.441406 153.939287 
L 289.986328 154.323809 
L 290.53125 155.087725 
L 291.076172 156.092607 
L 291.621094 156.671953 
L 292.166016 157.476885 
L 292.710938 157.92293 
L 293.255859 157.743486 
L 294.345703 155.969561 
L 294.890625 154.580156 
L 295.435547 153.508623 
L 295.980469 152.836992 
L 296.525391 153.083086 
L 297.070312 154.431475 
L 297.615234 156.384844 
L 298.705078 161.839922 
L 299.25 164.705889 
L 299.794922 166.869463 
L 300.339844 168.00252 
L 300.884766 168.279375 
L 301.429688 167.664141 
L 301.974609 166.848955 
L 303.064453 163.839434 
L 304.154297 159.927568 
L 304.699219 157.492266 
L 305.789062 151.601396 
L 308.513672 132.201006 
L 309.058594 129.201738 
L 309.603516 127.550859 
L 310.148438 126.833086 
L 310.693359 127.243242 
L 311.238281 128.535234 
L 312.873047 135.687334 
L 313.962891 139.414629 
L 315.597656 143.100908 
L 317.777344 146.612871 
L 318.322266 147.699785 
L 319.412109 151.529619 
L 320.501953 156.625811 
L 321.591797 162.598711 
L 322.681641 167.694902 
L 323.771484 169.935381 
L 324.316406 170.504473 
L 326.496094 171.432451 
L 327.041016 172.098955 
L 327.585938 173.25252 
L 328.675781 174.693193 
L 329.220703 174.795732 
L 329.765625 174.359941 
L 330.310547 172.842363 
L 330.855469 170.924883 
L 331.945312 166.069658 
L 332.490234 164.19832 
L 333.035156 162.942217 
L 333.580078 162.409014 
L 334.125 162.224443 
L 335.759766 162.34749 
L 336.304688 162.214189 
L 336.849609 162.614092 
L 337.394531 163.244707 
L 338.484375 166.99251 
L 339.029297 169.97127 
L 340.119141 177.91292 
L 341.208984 186.228838 
L 341.753906 189.54085 
L 342.298828 191.899248 
L 342.84375 193.370684 
L 343.388672 194.380693 
L 344.478516 194.852373 
L 346.658203 193.96541 
L 347.203125 193.386064 
L 347.748047 193.514238 
L 348.292969 193.985918 
L 348.837891 194.842119 
L 349.927734 198.774492 
L 351.017578 203.650225 
L 351.5625 205.603594 
L 352.107422 206.839189 
L 352.652344 207.362139 
L 353.197266 207.254473 
L 353.742188 206.029131 
L 354.287109 203.952715 
L 354.832031 201.076494 
L 357.011719 187.202959 
L 357.556641 185.059893 
L 358.101562 183.414141 
L 358.646484 182.501543 
L 359.191406 182.045244 
L 359.736328 181.958086 
L 360.826172 182.250322 
L 361.916016 183.332109 
L 362.460938 184.434404 
L 363.550781 187.33626 
L 365.185547 190.991777 
L 365.730469 192.217119 
L 366.275391 192.975908 
L 366.820312 193.186113 
L 367.910156 193.283525 
L 368.455078 192.94002 
L 369.544922 192.591387 
L 370.089844 192.581133 
L 370.634766 192.11458 
L 371.179688 192.012041 
L 371.724609 191.565996 
L 372.269531 190.766191 
L 372.814453 189.628008 
L 373.359375 187.966875 
L 374.994141 180.517412 
L 377.173828 168.504961 
L 377.71875 165.254473 
L 378.808594 160.655596 
L 379.353516 159.204668 
L 379.898438 158.630449 
L 380.443359 158.589434 
L 381.533203 159.727617 
L 382.078125 160.163408 
L 382.623047 160.327471 
L 383.167969 159.871172 
L 383.712891 158.871416 
L 385.347656 154.64168 
L 385.892578 153.621416 
L 386.4375 152.995928 
L 386.982422 153.047197 
L 387.527344 154.113604 
L 388.617188 158.307451 
L 389.162109 161.070879 
L 390.251953 165.013506 
L 390.796875 166.418291 
L 391.886719 168.233232 
L 392.976562 169.135576 
L 394.066406 169.412432 
L 395.15625 167.966631 
L 395.701172 166.126055 
L 396.246094 163.516436 
L 396.791016 160.183916 
L 399.515625 138.261064 
L 400.060547 135.354082 
L 400.605469 133.585283 
L 401.150391 132.841875 
L 401.695312 133.021318 
L 402.785156 135.625811 
L 403.330078 137.199785 
L 404.419922 139.388994 
L 404.964844 140.081133 
L 405.509766 140.188799 
L 406.054688 140.716875 
L 407.144531 141.142412 
L 408.234375 142.793291 
L 408.779297 144.162187 
L 409.324219 146.007891 
L 409.869141 148.294512 
L 410.958984 154.293047 
L 412.59375 161.137529 
L 414.228516 164.957109 
L 417.498047 175.621172 
L 418.587891 177.615557 
L 419.132812 177.682207 
L 419.677734 177.528398 
L 420.767578 176.385088 
L 421.3125 175.528887 
L 421.857422 175.046953 
L 422.402344 173.97542 
L 422.947266 173.185869 
L 423.492188 171.899004 
L 424.582031 168.064043 
L 425.671875 164.680254 
L 426.216797 163.285723 
L 427.306641 162.393633 
L 427.851562 162.608965 
L 428.396484 163.316484 
L 428.941406 164.285479 
L 430.03125 168.766436 
L 430.576172 171.765703 
L 432.210938 184.254961 
L 432.755859 188.038652 
L 433.845703 193.263018 
L 434.390625 194.529375 
L 434.935547 195.021562 
L 435.480469 195.016436 
L 436.025391 194.50374 
L 437.115234 192.806719 
L 437.660156 192.160723 
L 438.205078 192.119707 
L 438.75 193.150225 
L 439.294922 194.544756 
L 439.839844 196.600664 
L 441.474609 204.009111 
L 442.019531 206.290605 
L 443.109375 209.418047 
L 443.654297 210.166582 
L 444.199219 210.176836 
L 444.744141 209.561602 
L 445.289062 208.305498 
L 446.378906 203.839922 
L 448.013672 194.847246 
L 448.558594 192.119707 
L 449.648438 188.443682 
L 450.738281 186.398027 
L 451.828125 185.741777 
L 452.373047 186.064775 
L 453.462891 186.879961 
L 454.552734 188.515459 
L 456.732422 192.970781 
L 457.277344 194.452471 
L 457.822266 195.298418 
L 458.367188 195.770098 
L 458.912109 195.970049 
L 459.457031 195.539385 
L 460.546875 195.139482 
L 461.091797 195.313799 
L 462.726562 197.24666 
L 463.271484 197.595293 
L 463.816406 197.262041 
L 464.90625 194.55501 
L 465.996094 188.238604 
L 468.175781 173.724199 
L 468.720703 171.206865 
L 469.265625 169.345781 
L 469.810547 168.18709 
L 470.355469 167.659014 
L 470.900391 167.489824 
L 471.445312 167.156572 
L 471.990234 166.490068 
L 473.080078 163.96248 
L 475.259766 158.076738 
L 476.349609 156.277178 
L 476.894531 155.579912 
L 477.439453 155.303057 
L 477.984375 155.164629 
L 479.074219 156.107988 
L 479.619141 157.282061 
L 480.708984 160.460771 
L 481.253906 162.301348 
L 481.798828 163.65999 
L 484.523438 172.165605 
L 485.068359 172.765459 
L 485.613281 172.970537 
L 486.158203 171.914385 
L 486.703125 170.355791 
L 487.248047 168.171709 
L 487.792969 165.095537 
L 488.882812 156.266924 
L 490.517578 142.875322 
L 491.0625 139.635088 
L 491.607422 137.76375 
L 492.152344 136.943437 
L 492.697266 137.256182 
L 493.787109 138.681475 
L 494.332031 139.07625 
L 494.876953 138.860918 
L 495.966797 137.035723 
L 497.056641 135.02083 
L 497.601562 134.892656 
L 498.146484 135.466875 
L 498.691406 136.80501 
L 499.78125 141.255205 
L 500.326172 143.598223 
L 500.871094 145.290117 
L 501.960938 147.715166 
L 502.505859 148.638018 
L 503.050781 149.817217 
L 504.140625 153.785479 
L 506.320312 164.372637 
L 507.410156 167.874346 
L 509.044922 171.83748 
L 509.589844 173.032061 
L 510.679688 174.636797 
L 511.224609 175.395586 
L 512.859375 175.559648 
L 513.404297 174.662432 
L 513.949219 173.462725 
L 515.039062 169.925127 
L 516.673828 163.813799 
L 517.763672 160.014727 
L 518.308594 158.568926 
L 518.853516 157.892168 
L 519.398438 157.63582 
L 519.943359 158.086992 
L 520.488281 159.425127 
L 521.033203 161.86043 
L 522.123047 169.786699 
L 523.757812 182.27083 
L 524.302734 185.054766 
L 524.847656 186.803057 
L 525.392578 188.043779 
L 525.9375 188.387285 
L 526.482422 187.725908 
L 527.027344 187.423418 
L 527.572266 186.905596 
L 528.117188 186.813311 
L 528.662109 186.879961 
L 529.207031 187.310625 
L 529.751953 188.59749 
L 530.296875 190.38167 
L 533.021484 201.77376 
L 534.65625 207.37752 
L 535.201172 208.151689 
L 535.746094 208.310625 
L 536.291016 207.828691 
L 537.380859 204.383379 
L 540.650391 190.202227 
L 541.195312 188.36165 
L 542.285156 185.97249 
L 542.830078 185.003496 
L 543.375 184.480547 
L 543.919922 184.316484 
L 544.464844 184.470293 
L 545.554688 186.018633 
L 546.644531 188.469316 
L 547.189453 189.648516 
L 548.279297 191.196855 
L 548.824219 191.483965 
L 550.458984 191.34041 
L 551.003906 191.724932 
L 551.548828 192.601641 
L 552.638672 195.954668 
L 553.183594 197.928545 
L 553.728516 199.343584 
L 554.273438 199.799883 
L 554.818359 199.584551 
L 555.908203 195.713701 
L 558.632812 179.594561 
L 559.722656 175.549395 
L 560.267578 174.406084 
L 560.8125 173.601152 
L 561.902344 171.211992 
L 562.992188 168.043535 
L 564.082031 164.48543 
L 565.171875 161.178545 
L 565.716797 159.989092 
L 566.261719 159.132891 
L 567.351562 156.989824 
L 567.896484 155.959307 
L 568.986328 154.467363 
L 569.53125 154.005937 
L 570.621094 154.05208 
L 571.166016 154.692949 
L 571.710938 155.523516 
L 572.255859 157.200029 
L 573.345703 161.86043 
L 575.525391 173.032061 
L 576.070312 174.708574 
L 576.615234 175.477617 
L 577.160156 175.318682 
L 577.705078 173.565264 
L 578.25 170.899248 
L 579.339844 163.260088 
L 580.429688 155.379961 
L 581.519531 150.160723 
L 582.609375 147.130693 
L 583.154297 146.146318 
L 584.244141 142.721514 
L 584.789062 141.055254 
L 585.878906 138.440508 
L 586.423828 137.804766 
L 587.513672 136.307695 
L 588.058594 136.061602 
L 588.603516 136.117998 
L 589.148438 136.471758 
L 589.693359 137.004961 
L 590.238281 137.717607 
L 591.328125 139.870928 
L 592.962891 143.680254 
L 594.597656 148.80208 
L 595.142578 150.719561 
L 596.777344 157.938311 
L 598.412109 164.741777 
L 598.957031 166.592607 
L 599.501953 168.84334 
L 600.591797 171.924639 
L 601.136719 172.893633 
L 602.226562 175.334062 
L 602.771484 176.272295 
L 603.316406 177.472002 
L 604.40625 178.558916 
L 604.951172 178.205156 
L 605.496094 177.174639 
L 606.585938 172.442461 
L 608.220703 163.403643 
L 609.310547 158.512529 
L 609.855469 157.194902 
L 610.400391 156.692461 
L 610.945312 157.369219 
L 611.490234 159.06624 
L 612.580078 164.659746 
L 614.214844 175.733965 
L 615.304688 181.240312 
L 615.849609 183.209062 
L 616.394531 184.526689 
L 616.939453 185.259844 
L 617.484375 185.326494 
L 618.029297 185.270098 
L 618.574219 184.798418 
L 619.119141 185.003496 
L 619.664062 184.911211 
L 620.208984 185.675127 
L 620.753906 186.777422 
L 621.84375 190.525225 
L 623.478516 198.149004 
L 624.568359 202.440264 
L 625.658203 206.049639 
L 626.203125 207.331377 
L 627.292969 208.633623 
L 627.837891 208.243975 
L 628.382812 207.500566 
L 629.472656 204.491045 
L 630.5625 199.548662 
L 632.742188 188.817949 
L 633.287109 187.505449 
L 633.832031 186.756914 
L 634.921875 186.936357 
L 635.466797 187.449053 
L 636.556641 188.054033 
L 637.646484 188.238604 
L 638.191406 188.033525 
L 638.736328 187.582354 
L 639.28125 187.58748 
L 639.826172 187.279863 
L 640.371094 187.510576 
L 641.460938 189.592119 
L 643.640625 197.615801 
L 644.185547 199.066729 
L 644.730469 199.80501 
L 645.275391 199.820391 
L 645.820312 199.707598 
L 646.365234 198.425859 
L 646.910156 196.800615 
L 647.455078 194.472979 
L 647.455078 194.472979 
" style="fill:none;stroke:#4c72b0;stroke-linecap:round;stroke-width:1.75;"/>
   </g>
   <g id="patch_3">
    <path d="M 90 270.72 
L 90 69.12 
" style="fill:none;stroke:#262626;stroke-linecap:square;stroke-linejoin:miter;stroke-width:1.25;"/>
   </g>
   <g id="patch_4">
    <path d="M 90 270.72 
L 648 270.72 
" style="fill:none;stroke:#262626;stroke-linecap:square;stroke-linejoin:miter;stroke-width:1.25;"/>
   </g>
  </g>
  <g id="axes_2">
   <g id="patch_5">
    <path d="M 90 512.64 
L 648 512.64 
L 648 311.04 
L 90 311.04 
z
" style="fill:#ffffff;"/>
   </g>
   <g id="matplotlib.axis_3">
    <g id="xtick_7">
     <g id="line2d_15">
      <g>
       <use style="fill:#262626;stroke:#262626;" x="218.197478" xlink:href="#mfe337c6ce5" y="512.64"/>
      </g>
     </g>
     <g id="text_14">
      <!-- $\mathdefault{10^{2}}$ -->
      <g style="fill:#262626;" transform="translate(210.347478 535.9525)scale(0.1 -0.1)">
       <use transform="translate(0 0.99375)" xlink:href="#ArialMT-31"/>
       <use transform="translate(55.615234 0.99375)" xlink:href="#ArialMT-30"/>
       <use transform="translate(112.972813 70.6875)scale(0.7)" xlink:href="#ArialMT-32"/>
      </g>
     </g>
    </g>
    <g id="xtick_8">
     <g id="line2d_16">
      <g>
       <use style="fill:#262626;stroke:#262626;" x="401.606604" xlink:href="#mfe337c6ce5" y="512.64"/>
      </g>
     </g>
     <g id="text_15">
      <!-- $\mathdefault{10^{3}}$ -->
      <defs>
       <path d="M 4.203125 18.890625 
L 12.984375 20.0625 
Q 14.5 12.59375 18.140625 9.296875 
Q 21.78125 6 27 6 
Q 33.203125 6 37.46875 10.296875 
Q 41.75 14.59375 41.75 20.953125 
Q 41.75 27 37.796875 30.921875 
Q 33.84375 34.859375 27.734375 34.859375 
Q 25.25 34.859375 21.53125 33.890625 
L 22.515625 41.609375 
Q 23.390625 41.5 23.921875 41.5 
Q 29.546875 41.5 34.03125 44.421875 
Q 38.53125 47.359375 38.53125 53.46875 
Q 38.53125 58.296875 35.25 61.46875 
Q 31.984375 64.65625 26.8125 64.65625 
Q 21.6875 64.65625 18.265625 61.421875 
Q 14.84375 58.203125 13.875 51.765625 
L 5.078125 53.328125 
Q 6.6875 62.15625 12.390625 67.015625 
Q 18.109375 71.875 26.609375 71.875 
Q 32.46875 71.875 37.390625 69.359375 
Q 42.328125 66.84375 44.9375 62.5 
Q 47.5625 58.15625 47.5625 53.265625 
Q 47.5625 48.640625 45.0625 44.828125 
Q 42.578125 41.015625 37.703125 38.765625 
Q 44.046875 37.3125 47.5625 32.6875 
Q 51.078125 28.078125 51.078125 21.140625 
Q 51.078125 11.765625 44.234375 5.25 
Q 37.40625 -1.265625 26.953125 -1.265625 
Q 17.53125 -1.265625 11.296875 4.34375 
Q 5.078125 9.96875 4.203125 18.890625 
z
" id="ArialMT-33"/>
      </defs>
      <g style="fill:#262626;" transform="translate(393.756604 535.9525)scale(0.1 -0.1)">
       <use transform="translate(0 0.99375)" xlink:href="#ArialMT-31"/>
       <use transform="translate(55.615234 0.99375)" xlink:href="#ArialMT-30"/>
       <use transform="translate(112.972813 70.6875)scale(0.7)" xlink:href="#ArialMT-33"/>
      </g>
     </g>
    </g>
    <g id="xtick_9">
     <g id="line2d_17">
      <g>
       <use style="fill:#262626;stroke:#262626;" x="585.01573" xlink:href="#mfe337c6ce5" y="512.64"/>
      </g>
     </g>
     <g id="text_16">
      <!-- $\mathdefault{10^{4}}$ -->
      <g style="fill:#262626;" transform="translate(577.16573 535.8525)scale(0.1 -0.1)">
       <use transform="translate(0 0.201563)" xlink:href="#ArialMT-31"/>
       <use transform="translate(55.615234 0.201563)" xlink:href="#ArialMT-30"/>
       <use transform="translate(112.972813 69.895313)scale(0.7)" xlink:href="#ArialMT-34"/>
      </g>
     </g>
    </g>
    <g id="xtick_10">
     <g id="line2d_18">
      <defs>
       <path d="M 0 0 
L 0 3 
" id="m11503f7bac" style="stroke:#262626;stroke-width:0.5;"/>
      </defs>
      <g>
       <use style="fill:#262626;stroke:#262626;stroke-width:0.5;" x="90" xlink:href="#m11503f7bac" y="512.64"/>
      </g>
     </g>
    </g>
    <g id="xtick_11">
     <g id="line2d_19">
      <g>
       <use style="fill:#262626;stroke:#262626;stroke-width:0.5;" x="122.296744" xlink:href="#m11503f7bac" y="512.64"/>
      </g>
     </g>
    </g>
    <g id="xtick_12">
     <g id="line2d_20">
      <g>
       <use style="fill:#262626;stroke:#262626;stroke-width:0.5;" x="145.211648" xlink:href="#m11503f7bac" y="512.64"/>
      </g>
     </g>
    </g>
    <g id="xtick_13">
     <g id="line2d_21">
      <g>
       <use style="fill:#262626;stroke:#262626;stroke-width:0.5;" x="162.985829" xlink:href="#m11503f7bac" y="512.64"/>
      </g>
     </g>
    </g>
    <g id="xtick_14">
     <g id="line2d_22">
      <g>
       <use style="fill:#262626;stroke:#262626;stroke-width:0.5;" x="177.508392" xlink:href="#m11503f7bac" y="512.64"/>
      </g>
     </g>
    </g>
    <g id="xtick_15">
     <g id="line2d_23">
      <g>
       <use style="fill:#262626;stroke:#262626;stroke-width:0.5;" x="189.787045" xlink:href="#m11503f7bac" y="512.64"/>
      </g>
     </g>
    </g>
    <g id="xtick_16">
     <g id="line2d_24">
      <g>
       <use style="fill:#262626;stroke:#262626;stroke-width:0.5;" x="200.423297" xlink:href="#m11503f7bac" y="512.64"/>
      </g>
     </g>
    </g>
    <g id="xtick_17">
     <g id="line2d_25">
      <g>
       <use style="fill:#262626;stroke:#262626;stroke-width:0.5;" x="209.805136" xlink:href="#m11503f7bac" y="512.64"/>
      </g>
     </g>
    </g>
    <g id="xtick_18">
     <g id="line2d_26">
      <g>
       <use style="fill:#262626;stroke:#262626;stroke-width:0.5;" x="273.409126" xlink:href="#m11503f7bac" y="512.64"/>
      </g>
     </g>
    </g>
    <g id="xtick_19">
     <g id="line2d_27">
      <g>
       <use style="fill:#262626;stroke:#262626;stroke-width:0.5;" x="305.70587" xlink:href="#m11503f7bac" y="512.64"/>
      </g>
     </g>
    </g>
    <g id="xtick_20">
     <g id="line2d_28">
      <g>
       <use style="fill:#262626;stroke:#262626;stroke-width:0.5;" x="328.620775" xlink:href="#m11503f7bac" y="512.64"/>
      </g>
     </g>
    </g>
    <g id="xtick_21">
     <g id="line2d_29">
      <g>
       <use style="fill:#262626;stroke:#262626;stroke-width:0.5;" x="346.394955" xlink:href="#m11503f7bac" y="512.64"/>
      </g>
     </g>
    </g>
    <g id="xtick_22">
     <g id="line2d_30">
      <g>
       <use style="fill:#262626;stroke:#262626;stroke-width:0.5;" x="360.917518" xlink:href="#m11503f7bac" y="512.64"/>
      </g>
     </g>
    </g>
    <g id="xtick_23">
     <g id="line2d_31">
      <g>
       <use style="fill:#262626;stroke:#262626;stroke-width:0.5;" x="373.196171" xlink:href="#m11503f7bac" y="512.64"/>
      </g>
     </g>
    </g>
    <g id="xtick_24">
     <g id="line2d_32">
      <g>
       <use style="fill:#262626;stroke:#262626;stroke-width:0.5;" x="383.832423" xlink:href="#m11503f7bac" y="512.64"/>
      </g>
     </g>
    </g>
    <g id="xtick_25">
     <g id="line2d_33">
      <g>
       <use style="fill:#262626;stroke:#262626;stroke-width:0.5;" x="393.214262" xlink:href="#m11503f7bac" y="512.64"/>
      </g>
     </g>
    </g>
    <g id="xtick_26">
     <g id="line2d_34">
      <g>
       <use style="fill:#262626;stroke:#262626;stroke-width:0.5;" x="456.818252" xlink:href="#m11503f7bac" y="512.64"/>
      </g>
     </g>
    </g>
    <g id="xtick_27">
     <g id="line2d_35">
      <g>
       <use style="fill:#262626;stroke:#262626;stroke-width:0.5;" x="489.114996" xlink:href="#m11503f7bac" y="512.64"/>
      </g>
     </g>
    </g>
    <g id="xtick_28">
     <g id="line2d_36">
      <g>
       <use style="fill:#262626;stroke:#262626;stroke-width:0.5;" x="512.029901" xlink:href="#m11503f7bac" y="512.64"/>
      </g>
     </g>
    </g>
    <g id="xtick_29">
     <g id="line2d_37">
      <g>
       <use style="fill:#262626;stroke:#262626;stroke-width:0.5;" x="529.804081" xlink:href="#m11503f7bac" y="512.64"/>
      </g>
     </g>
    </g>
    <g id="xtick_30">
     <g id="line2d_38">
      <g>
       <use style="fill:#262626;stroke:#262626;stroke-width:0.5;" x="544.326645" xlink:href="#m11503f7bac" y="512.64"/>
      </g>
     </g>
    </g>
    <g id="xtick_31">
     <g id="line2d_39">
      <g>
       <use style="fill:#262626;stroke:#262626;stroke-width:0.5;" x="556.605297" xlink:href="#m11503f7bac" y="512.64"/>
      </g>
     </g>
    </g>
    <g id="xtick_32">
     <g id="line2d_40">
      <g>
       <use style="fill:#262626;stroke:#262626;stroke-width:0.5;" x="567.241549" xlink:href="#m11503f7bac" y="512.64"/>
      </g>
     </g>
    </g>
    <g id="xtick_33">
     <g id="line2d_41">
      <g>
       <use style="fill:#262626;stroke:#262626;stroke-width:0.5;" x="576.623389" xlink:href="#m11503f7bac" y="512.64"/>
      </g>
     </g>
    </g>
    <g id="xtick_34">
     <g id="line2d_42">
      <g>
       <use style="fill:#262626;stroke:#262626;stroke-width:0.5;" x="640.227378" xlink:href="#m11503f7bac" y="512.64"/>
      </g>
     </g>
    </g>
   </g>
   <g id="matplotlib.axis_4">
    <g id="ytick_8">
     <g id="line2d_43">
      <g>
       <use style="fill:#262626;stroke:#262626;" x="90" xlink:href="#mf61b47d1b1" y="512.64"/>
      </g>
     </g>
     <g id="text_17">
      <!-- $\mathdefault{10^{-5}}$ -->
      <defs>
       <path d="M 4.15625 18.75 
L 13.375 19.53125 
Q 14.40625 12.796875 18.140625 9.390625 
Q 21.875 6 27.15625 6 
Q 33.5 6 37.890625 10.78125 
Q 42.28125 15.578125 42.28125 23.484375 
Q 42.28125 31 38.0625 35.34375 
Q 33.84375 39.703125 27 39.703125 
Q 22.75 39.703125 19.328125 37.765625 
Q 15.921875 35.84375 13.96875 32.765625 
L 5.71875 33.84375 
L 12.640625 70.609375 
L 48.25 70.609375 
L 48.25 62.203125 
L 19.671875 62.203125 
L 15.828125 42.96875 
Q 22.265625 47.46875 29.34375 47.46875 
Q 38.71875 47.46875 45.15625 40.96875 
Q 51.609375 34.46875 51.609375 24.265625 
Q 51.609375 14.546875 45.953125 7.46875 
Q 39.0625 -1.21875 27.15625 -1.21875 
Q 17.390625 -1.21875 11.203125 4.25 
Q 5.03125 9.71875 4.15625 18.75 
z
" id="ArialMT-35"/>
      </defs>
      <g style="fill:#262626;" transform="translate(57.2 517.74625)scale(0.1 -0.1)">
       <use transform="translate(0 0.879688)" xlink:href="#ArialMT-31"/>
       <use transform="translate(55.615234 0.879688)" xlink:href="#ArialMT-30"/>
       <use transform="translate(112.972813 70.573438)scale(0.7)" xlink:href="#ArialMT-2212"/>
       <use transform="translate(153.851719 70.573438)scale(0.7)" xlink:href="#ArialMT-35"/>
      </g>
     </g>
    </g>
    <g id="ytick_9">
     <g id="line2d_44">
      <g>
       <use style="fill:#262626;stroke:#262626;" x="90" xlink:href="#mf61b47d1b1" y="465.767507"/>
      </g>
     </g>
     <g id="text_18">
      <!-- $\mathdefault{10^{-4}}$ -->
      <g style="fill:#262626;" transform="translate(57.2 470.873757)scale(0.1 -0.1)">
       <use transform="translate(0 0.201563)" xlink:href="#ArialMT-31"/>
       <use transform="translate(55.615234 0.201563)" xlink:href="#ArialMT-30"/>
       <use transform="translate(112.972813 69.895313)scale(0.7)" xlink:href="#ArialMT-2212"/>
       <use transform="translate(153.851719 69.895313)scale(0.7)" xlink:href="#ArialMT-34"/>
      </g>
     </g>
    </g>
    <g id="ytick_10">
     <g id="line2d_45">
      <g>
       <use style="fill:#262626;stroke:#262626;" x="90" xlink:href="#mf61b47d1b1" y="418.895013"/>
      </g>
     </g>
     <g id="text_19">
      <!-- $\mathdefault{10^{-3}}$ -->
      <g style="fill:#262626;" transform="translate(57.2 424.051263)scale(0.1 -0.1)">
       <use transform="translate(0 0.99375)" xlink:href="#ArialMT-31"/>
       <use transform="translate(55.615234 0.99375)" xlink:href="#ArialMT-30"/>
       <use transform="translate(112.972813 70.6875)scale(0.7)" xlink:href="#ArialMT-2212"/>
       <use transform="translate(153.851719 70.6875)scale(0.7)" xlink:href="#ArialMT-33"/>
      </g>
     </g>
    </g>
    <g id="ytick_11">
     <g id="line2d_46">
      <g>
       <use style="fill:#262626;stroke:#262626;" x="90" xlink:href="#mf61b47d1b1" y="372.02252"/>
      </g>
     </g>
     <g id="text_20">
      <!-- $\mathdefault{10^{-2}}$ -->
      <g style="fill:#262626;" transform="translate(57.2 377.17877)scale(0.1 -0.1)">
       <use transform="translate(0 0.99375)" xlink:href="#ArialMT-31"/>
       <use transform="translate(55.615234 0.99375)" xlink:href="#ArialMT-30"/>
       <use transform="translate(112.972813 70.6875)scale(0.7)" xlink:href="#ArialMT-2212"/>
       <use transform="translate(153.851719 70.6875)scale(0.7)" xlink:href="#ArialMT-32"/>
      </g>
     </g>
    </g>
    <g id="ytick_12">
     <g id="line2d_47">
      <g>
       <use style="fill:#262626;stroke:#262626;" x="90" xlink:href="#mf61b47d1b1" y="325.150026"/>
      </g>
     </g>
     <g id="text_21">
      <!-- $\mathdefault{10^{-1}}$ -->
      <g style="fill:#262626;" transform="translate(57.2 330.306276)scale(0.1 -0.1)">
       <use transform="translate(0 0.99375)" xlink:href="#ArialMT-31"/>
       <use transform="translate(55.615234 0.99375)" xlink:href="#ArialMT-30"/>
       <use transform="translate(112.972813 70.6875)scale(0.7)" xlink:href="#ArialMT-2212"/>
       <use transform="translate(153.851719 70.6875)scale(0.7)" xlink:href="#ArialMT-31"/>
      </g>
     </g>
    </g>
    <g id="ytick_13">
     <g id="line2d_48">
      <defs>
       <path d="M 0 0 
L -3 0 
" id="m41221eb276" style="stroke:#262626;stroke-width:0.5;"/>
      </defs>
      <g>
       <use style="fill:#262626;stroke:#262626;stroke-width:0.5;" x="90" xlink:href="#m41221eb276" y="498.529974"/>
      </g>
     </g>
    </g>
    <g id="ytick_14">
     <g id="line2d_49">
      <g>
       <use style="fill:#262626;stroke:#262626;stroke-width:0.5;" x="90" xlink:href="#m41221eb276" y="490.276137"/>
      </g>
     </g>
    </g>
    <g id="ytick_15">
     <g id="line2d_50">
      <g>
       <use style="fill:#262626;stroke:#262626;stroke-width:0.5;" x="90" xlink:href="#m41221eb276" y="484.419947"/>
      </g>
     </g>
    </g>
    <g id="ytick_16">
     <g id="line2d_51">
      <g>
       <use style="fill:#262626;stroke:#262626;stroke-width:0.5;" x="90" xlink:href="#m41221eb276" y="479.877533"/>
      </g>
     </g>
    </g>
    <g id="ytick_17">
     <g id="line2d_52">
      <g>
       <use style="fill:#262626;stroke:#262626;stroke-width:0.5;" x="90" xlink:href="#m41221eb276" y="476.166111"/>
      </g>
     </g>
    </g>
    <g id="ytick_18">
     <g id="line2d_53">
      <g>
       <use style="fill:#262626;stroke:#262626;stroke-width:0.5;" x="90" xlink:href="#m41221eb276" y="473.028148"/>
      </g>
     </g>
    </g>
    <g id="ytick_19">
     <g id="line2d_54">
      <g>
       <use style="fill:#262626;stroke:#262626;stroke-width:0.5;" x="90" xlink:href="#m41221eb276" y="470.309921"/>
      </g>
     </g>
    </g>
    <g id="ytick_20">
     <g id="line2d_55">
      <g>
       <use style="fill:#262626;stroke:#262626;stroke-width:0.5;" x="90" xlink:href="#m41221eb276" y="467.912274"/>
      </g>
     </g>
    </g>
    <g id="ytick_21">
     <g id="line2d_56">
      <g>
       <use style="fill:#262626;stroke:#262626;stroke-width:0.5;" x="90" xlink:href="#m41221eb276" y="451.65748"/>
      </g>
     </g>
    </g>
    <g id="ytick_22">
     <g id="line2d_57">
      <g>
       <use style="fill:#262626;stroke:#262626;stroke-width:0.5;" x="90" xlink:href="#m41221eb276" y="443.403644"/>
      </g>
     </g>
    </g>
    <g id="ytick_23">
     <g id="line2d_58">
      <g>
       <use style="fill:#262626;stroke:#262626;stroke-width:0.5;" x="90" xlink:href="#m41221eb276" y="437.547454"/>
      </g>
     </g>
    </g>
    <g id="ytick_24">
     <g id="line2d_59">
      <g>
       <use style="fill:#262626;stroke:#262626;stroke-width:0.5;" x="90" xlink:href="#m41221eb276" y="433.00504"/>
      </g>
     </g>
    </g>
    <g id="ytick_25">
     <g id="line2d_60">
      <g>
       <use style="fill:#262626;stroke:#262626;stroke-width:0.5;" x="90" xlink:href="#m41221eb276" y="429.293617"/>
      </g>
     </g>
    </g>
    <g id="ytick_26">
     <g id="line2d_61">
      <g>
       <use style="fill:#262626;stroke:#262626;stroke-width:0.5;" x="90" xlink:href="#m41221eb276" y="426.155654"/>
      </g>
     </g>
    </g>
    <g id="ytick_27">
     <g id="line2d_62">
      <g>
       <use style="fill:#262626;stroke:#262626;stroke-width:0.5;" x="90" xlink:href="#m41221eb276" y="423.437427"/>
      </g>
     </g>
    </g>
    <g id="ytick_28">
     <g id="line2d_63">
      <g>
       <use style="fill:#262626;stroke:#262626;stroke-width:0.5;" x="90" xlink:href="#m41221eb276" y="421.039781"/>
      </g>
     </g>
    </g>
    <g id="ytick_29">
     <g id="line2d_64">
      <g>
       <use style="fill:#262626;stroke:#262626;stroke-width:0.5;" x="90" xlink:href="#m41221eb276" y="404.784987"/>
      </g>
     </g>
    </g>
    <g id="ytick_30">
     <g id="line2d_65">
      <g>
       <use style="fill:#262626;stroke:#262626;stroke-width:0.5;" x="90" xlink:href="#m41221eb276" y="396.53115"/>
      </g>
     </g>
    </g>
    <g id="ytick_31">
     <g id="line2d_66">
      <g>
       <use style="fill:#262626;stroke:#262626;stroke-width:0.5;" x="90" xlink:href="#m41221eb276" y="390.67496"/>
      </g>
     </g>
    </g>
    <g id="ytick_32">
     <g id="line2d_67">
      <g>
       <use style="fill:#262626;stroke:#262626;stroke-width:0.5;" x="90" xlink:href="#m41221eb276" y="386.132546"/>
      </g>
     </g>
    </g>
    <g id="ytick_33">
     <g id="line2d_68">
      <g>
       <use style="fill:#262626;stroke:#262626;stroke-width:0.5;" x="90" xlink:href="#m41221eb276" y="382.421124"/>
      </g>
     </g>
    </g>
    <g id="ytick_34">
     <g id="line2d_69">
      <g>
       <use style="fill:#262626;stroke:#262626;stroke-width:0.5;" x="90" xlink:href="#m41221eb276" y="379.283161"/>
      </g>
     </g>
    </g>
    <g id="ytick_35">
     <g id="line2d_70">
      <g>
       <use style="fill:#262626;stroke:#262626;stroke-width:0.5;" x="90" xlink:href="#m41221eb276" y="376.564934"/>
      </g>
     </g>
    </g>
    <g id="ytick_36">
     <g id="line2d_71">
      <g>
       <use style="fill:#262626;stroke:#262626;stroke-width:0.5;" x="90" xlink:href="#m41221eb276" y="374.167288"/>
      </g>
     </g>
    </g>
    <g id="ytick_37">
     <g id="line2d_72">
      <g>
       <use style="fill:#262626;stroke:#262626;stroke-width:0.5;" x="90" xlink:href="#m41221eb276" y="357.912493"/>
      </g>
     </g>
    </g>
    <g id="ytick_38">
     <g id="line2d_73">
      <g>
       <use style="fill:#262626;stroke:#262626;stroke-width:0.5;" x="90" xlink:href="#m41221eb276" y="349.658657"/>
      </g>
     </g>
    </g>
    <g id="ytick_39">
     <g id="line2d_74">
      <g>
       <use style="fill:#262626;stroke:#262626;stroke-width:0.5;" x="90" xlink:href="#m41221eb276" y="343.802467"/>
      </g>
     </g>
    </g>
    <g id="ytick_40">
     <g id="line2d_75">
      <g>
       <use style="fill:#262626;stroke:#262626;stroke-width:0.5;" x="90" xlink:href="#m41221eb276" y="339.260053"/>
      </g>
     </g>
    </g>
    <g id="ytick_41">
     <g id="line2d_76">
      <g>
       <use style="fill:#262626;stroke:#262626;stroke-width:0.5;" x="90" xlink:href="#m41221eb276" y="335.548631"/>
      </g>
     </g>
    </g>
    <g id="ytick_42">
     <g id="line2d_77">
      <g>
       <use style="fill:#262626;stroke:#262626;stroke-width:0.5;" x="90" xlink:href="#m41221eb276" y="332.410668"/>
      </g>
     </g>
    </g>
    <g id="ytick_43">
     <g id="line2d_78">
      <g>
       <use style="fill:#262626;stroke:#262626;stroke-width:0.5;" x="90" xlink:href="#m41221eb276" y="329.69244"/>
      </g>
     </g>
    </g>
    <g id="ytick_44">
     <g id="line2d_79">
      <g>
       <use style="fill:#262626;stroke:#262626;stroke-width:0.5;" x="90" xlink:href="#m41221eb276" y="327.294794"/>
      </g>
     </g>
    </g>
    <g id="ytick_45">
     <g id="line2d_80">
      <g>
       <use style="fill:#262626;stroke:#262626;stroke-width:0.5;" x="90" xlink:href="#m41221eb276" y="311.04"/>
      </g>
     </g>
    </g>
   </g>
   <g id="line2d_81">
    <path clip-path="url(#pcc2eb10054)" d="M -1 393.019276 
L 151.095164 393.040997 
L 206.306812 411.692253 
L 238.603556 392.221005 
L 261.518461 404.410063 
L 279.292642 394.13271 
L 293.815205 331.48284 
L 306.093857 399.981641 
L 316.730109 407.903806 
L 326.111949 410.967885 
L 334.50429 419.291022 
L 342.096086 418.370089 
L 349.026853 412.647158 
L 355.402541 427.441077 
L 366.801034 421.331537 
L 371.941758 426.764174 
L 376.770725 431.610011 
L 381.323597 379.397459 
L 385.630245 396.21066 
L 389.715939 399.464018 
L 393.602249 396.593916 
L 397.307735 391.106316 
L 400.848476 380.95704 
L 404.238502 348.361057 
L 407.490119 374.909174 
L 410.614189 393.624475 
L 413.620341 405.022862 
L 416.517154 414.574432 
L 419.312303 418.878171 
L 422.012683 391.085897 
L 424.624509 400.087591 
L 427.153406 414.894529 
L 431.982374 427.494508 
L 434.291335 428.509534 
L 436.535246 423.630244 
L 438.717672 410.077858 
L 440.841893 420.111463 
L 442.910933 419.622855 
L 444.927587 415.005397 
L 446.894442 405.508183 
L 450.688186 372.241028 
L 452.519383 402.061442 
L 454.309426 413.14214 
L 456.060125 418.798321 
L 457.773171 422.521483 
L 459.45015 417.401178 
L 461.09255 396.153042 
L 462.701768 451.698131 
L 464.279118 447.939598 
L 465.825838 441.584549 
L 467.343094 429.683297 
L 468.83199 412.931672 
L 470.293564 375.77796 
L 471.728802 402.28613 
L 473.138637 416.54905 
L 474.523951 423.605221 
L 475.885584 428.178099 
L 477.224331 430.769253 
L 478.540949 422.482301 
L 479.836157 426.641778 
L 481.110642 446.443338 
L 482.365055 448.476465 
L 483.600019 447.045287 
L 484.816127 448.614482 
L 486.013948 457.43809 
L 487.194022 456.218521 
L 488.356869 444.596165 
L 489.502983 445.407372 
L 490.63284 442.379517 
L 491.746894 436.908254 
L 492.845581 424.805322 
L 493.92932 398.69913 
L 494.998512 401.947521 
L 496.053541 420.961131 
L 497.094779 429.365818 
L 498.122582 434.018398 
L 499.137291 433.364368 
L 500.139235 440.162173 
L 501.128734 406.632412 
L 502.10609 447.31369 
L 503.0716 449.35214 
L 504.025546 452.994354 
L 504.968203 470.849473 
L 505.899834 444.310801 
L 506.820695 454.332246 
L 507.731032 440.959199 
L 508.631082 445.073149 
L 509.521075 440.345824 
L 510.401234 422.681586 
L 511.271773 417.186607 
L 512.132901 432.259318 
L 512.984819 421.664601 
L 513.827722 423.112516 
L 514.661799 449.603033 
L 515.487232 462.919618 
L 516.304198 458.655037 
L 517.112871 455.973831 
L 517.913416 452.087121 
L 518.705996 433.740866 
L 519.490766 456.753107 
L 520.26788 472.28932 
L 521.037486 467.866647 
L 521.799727 469.241051 
L 522.554743 463.937768 
L 523.302669 461.50422 
L 524.043638 439.737453 
L 524.777778 469.365106 
L 525.505212 483.971844 
L 526.226064 483.346131 
L 526.940451 476.952055 
L 527.648487 479.357898 
L 528.350285 471.691271 
L 529.045954 451.225443 
L 529.7356 470.639351 
L 530.419326 503.876796 
L 531.097232 482.474602 
L 531.769418 478.510061 
L 532.435979 488.21925 
L 533.752597 457.439139 
L 534.402834 456.027313 
L 535.047806 474.455058 
L 535.687597 469.934826 
L 536.32229 470.256807 
L 536.951966 474.228254 
L 537.576703 465.908247 
L 538.196578 460.865921 
L 538.811667 441.477197 
L 539.422042 490.65826 
L 540.027776 492.26454 
L 540.628938 489.214435 
L 541.225596 507.621672 
L 541.817819 497.215668 
L 542.405671 495.091833 
L 542.989216 464.994168 
L 543.568517 472.914226 
L 544.143636 487.893697 
L 544.714632 488.119928 
L 545.281563 478.024745 
L 545.844488 476.321651 
L 546.403463 478.444854 
L 546.958543 489.61251 
L 547.509781 459.900912 
L 548.05723 478.191992 
L 548.600942 486.973352 
L 549.140969 484.100934 
L 549.677358 483.315836 
L 550.21016 479.013997 
L 551.26519 464.575244 
L 551.78751 496.159926 
L 552.306428 535.221583 
L 552.821987 493.964979 
L 553.33423 500.357796 
L 553.8432 484.986258 
L 554.348939 499.54935 
L 554.851487 497.259252 
L 555.350884 497.468292 
L 556.340382 502.091085 
L 556.830559 480.525266 
L 557.317739 501.517775 
L 557.801956 495.398601 
L 558.283248 491.832624 
L 558.76165 489.478651 
L 559.237195 502.726789 
L 559.709918 497.505091 
L 560.179852 485.308228 
L 560.647029 510.227231 
L 561.111483 499.840866 
L 561.573244 496.317727 
L 562.032344 499.993558 
L 562.488812 467.233831 
L 562.94268 462.861586 
L 563.393976 478.198548 
L 563.84273 489.43434 
L 564.28897 487.138795 
L 564.732723 491.227221 
L 565.174019 491.477777 
L 565.612882 488.066987 
L 566.049341 492.642097 
L 566.483422 501.290733 
L 566.91515 499.160904 
L 567.34455 484.819418 
L 567.771648 491.958237 
L 568.196468 507.374762 
L 569.039371 489.967653 
L 569.457501 489.822034 
L 569.873447 489.876689 
L 570.287233 481.269844 
L 570.69888 503.548593 
L 571.108411 483.750495 
L 571.921209 502.42377 
L 572.32452 480.878546 
L 572.725798 490.572752 
L 573.125065 493.978166 
L 573.52234 494.32391 
L 573.917644 506.033124 
L 574.310996 489.978807 
L 574.702415 494.899113 
L 575.091919 487.08839 
L 575.479529 490.387235 
L 575.865261 483.458609 
L 576.249135 480.891539 
L 576.631167 496.129573 
L 577.389778 481.53061 
L 577.766391 493.937426 
L 578.141232 498.182765 
L 578.514318 501.076865 
L 578.885664 488.100926 
L 579.255287 503.139106 
L 579.623202 537.54095 
L 580.353974 484.546004 
L 580.716861 539.46601 
L 581.078102 494.881558 
L 581.437713 488.023697 
L 581.795707 488.247352 
L 582.152099 503.617672 
L 582.860136 499.593007 
L 583.211808 493.684682 
L 583.561934 523.932803 
L 583.910528 496.599757 
L 584.257603 490.798036 
L 584.603172 507.149855 
L 584.947248 502.893839 
L 585.289845 520.802031 
L 585.630974 495.396126 
L 585.970649 498.841494 
L 586.308881 496.101377 
L 586.645683 488.427769 
L 586.981067 508.941027 
L 587.315045 505.365851 
L 587.647628 499.941879 
L 587.978828 508.205902 
L 588.308657 504.065402 
L 588.637126 494.49699 
L 588.964246 497.265142 
L 589.290028 497.852002 
L 589.614483 491.113127 
L 589.937621 539.00646 
L 590.259454 530.983252 
L 590.579992 491.98976 
L 590.899246 494.584873 
L 591.217224 491.456573 
L 591.533939 519.967511 
L 591.849399 523.848969 
L 592.163614 505.137333 
L 592.788352 497.038364 
L 593.098892 527.565401 
L 593.408227 503.716313 
L 593.716365 493.771635 
L 594.023315 504.373658 
L 594.329088 486.384906 
L 594.633691 484.699726 
L 594.937133 499.565625 
L 595.239424 490.745776 
L 595.540572 486.995912 
L 595.840586 509.541246 
L 596.139474 561.335029 
L 596.437245 496.287122 
L 596.733906 510.866173 
L 597.029467 502.963527 
L 597.323936 499.575578 
L 597.617319 490.365313 
L 597.909626 492.61527 
L 598.200864 503.624404 
L 598.491042 501.689343 
L 598.780166 511.620046 
L 599.068244 514.364835 
L 599.641294 491.751832 
L 599.92628 516.998644 
L 600.21025 518.321414 
L 600.493212 514.080971 
L 601.056137 509.063517 
L 601.336115 502.046589 
L 601.615112 498.210716 
L 601.893135 514.773169 
L 602.170191 489.94367 
L 602.446287 508.35021 
L 602.721429 502.733135 
L 602.995624 526.210516 
L 603.268878 493.773765 
L 603.541199 490.228442 
L 603.812591 503.307694 
L 604.083062 502.141255 
L 604.352617 509.618317 
L 604.621264 492.186041 
L 604.889007 498.713872 
L 605.155853 515.804751 
L 605.421809 503.877809 
L 605.686879 505.170689 
L 605.95107 491.070049 
L 606.214388 531.146448 
L 606.476838 497.812012 
L 606.738427 491.348773 
L 606.999159 521.329619 
L 607.25904 525.328742 
L 607.518076 485.064728 
L 607.776273 503.962653 
L 608.033635 500.824894 
L 608.290169 509.710419 
L 608.545879 493.340627 
L 608.80077 509.570511 
L 609.054849 518.306576 
L 609.308119 509.106201 
L 609.560587 515.543793 
L 609.812258 493.724219 
L 610.063135 494.381893 
L 610.313225 509.321989 
L 610.562532 493.973356 
L 610.811062 491.688303 
L 611.058818 514.309227 
L 611.305806 501.155008 
L 611.55203 500.000765 
L 611.797496 511.037272 
L 612.042208 500.798302 
L 612.28617 499.430632 
L 612.529387 502.819363 
L 612.771864 497.692011 
L 613.013605 495.628827 
L 613.254614 508.369522 
L 613.494897 503.15529 
L 613.734457 520.790411 
L 613.973298 492.439688 
L 614.211426 498.719929 
L 614.448843 510.788186 
L 614.685555 508.063034 
L 614.921566 546.769438 
L 615.3915 490.222372 
L 615.625431 516.187115 
L 615.858678 502.066376 
L 616.323131 519.676474 
L 616.554347 518.871321 
L 616.784892 507.88293 
L 617.014773 507.819177 
L 617.243992 509.331675 
L 617.472553 504.386818 
L 617.700461 518.25772 
L 617.927718 560.47504 
L 618.154329 541.544032 
L 618.380296 494.246439 
L 618.605625 492.705892 
L 618.830318 489.805152 
L 619.054379 494.254014 
L 619.277811 490.965451 
L 619.500618 502.878647 
L 619.722804 498.515651 
L 619.944372 485.135905 
L 620.165325 484.82314 
L 620.385667 477.60855 
L 620.605401 518.248496 
L 620.824531 512.878945 
L 621.043059 488.031426 
L 621.478326 515.963035 
L 621.69507 498.600439 
L 621.911227 492.089475 
L 622.126798 495.020119 
L 622.341787 511.178135 
L 622.556198 509.194444 
L 622.770034 510.76907 
L 622.983296 500.17844 
L 623.195989 496.716664 
L 623.408116 509.024201 
L 623.830683 490.831412 
L 624.251019 523.123666 
L 624.460358 510.094939 
L 624.669149 523.558651 
L 625.085096 488.95263 
L 625.292257 508.250074 
L 625.498881 498.958361 
L 625.704971 518.692872 
L 625.910528 492.32306 
L 626.115557 498.757199 
L 626.320059 511.21447 
L 626.727495 500.319263 
L 626.930435 506.80112 
L 627.132858 503.853753 
L 627.334768 518.3787 
L 627.536168 514.092817 
L 627.73706 518.802928 
L 627.937446 520.858973 
L 628.13733 500.786878 
L 628.336713 497.950718 
L 628.535599 488.888295 
L 628.931886 487.458146 
L 629.129293 501.145725 
L 629.326211 504.362387 
L 629.522644 488.801149 
L 629.718594 503.134649 
L 629.914063 497.012513 
L 630.109054 496.873095 
L 630.497608 486.714893 
L 630.691177 513.791849 
L 630.884277 498.002378 
L 631.269078 522.30206 
L 631.460783 486.557236 
L 631.652028 520.8142 
L 631.842815 516.277437 
L 632.033146 499.390041 
L 632.223024 506.343586 
L 632.41245 496.189947 
L 632.601426 507.609839 
L 632.97804 478.298912 
L 633.352881 530.291246 
L 633.725966 484.066128 
L 633.911856 502.1626 
L 634.097312 538.282589 
L 634.282338 523.709557 
L 634.466935 497.884648 
L 634.651105 500.692633 
L 634.83485 499.59098 
L 635.201074 493.706359 
L 635.383557 481.3654 
L 635.565622 484.54139 
L 635.747272 502.621142 
L 635.928509 544.819012 
L 636.109335 500.654475 
L 636.289751 494.674842 
L 636.469759 494.5069 
L 636.649361 494.757487 
L 637.007355 499.335182 
L 637.185751 508.452479 
L 637.363748 477.826155 
L 637.718553 502.56306 
L 637.895364 496.682389 
L 638.247814 505.276092 
L 638.423456 493.505641 
L 638.598712 499.980549 
L 638.773582 481.104999 
L 638.94807 487.656914 
L 639.122176 498.509027 
L 639.469251 487.751201 
L 639.642223 499.578563 
L 639.81482 488.239665 
L 639.987044 490.112922 
L 640.158897 498.669423 
L 640.330379 495.746348 
L 640.501493 527.563739 
L 640.67224 499.319427 
L 640.842622 526.532905 
L 641.012641 488.442378 
L 641.182297 499.455413 
L 641.351593 491.483426 
L 641.689108 507.098943 
L 641.857331 503.243015 
L 642.0252 515.821046 
L 642.192715 481.030889 
L 642.359879 487.043752 
L 642.526693 500.659814 
L 642.693158 490.790075 
L 642.859276 494.590272 
L 643.355562 489.821194 
L 643.520306 481.883191 
L 643.684709 517.839191 
L 644.012502 493.189921 
L 644.175894 498.152135 
L 644.338952 514.470985 
L 644.501676 504.71316 
L 644.664069 534.85096 
L 644.826131 520.254101 
L 644.987864 553.116602 
L 645.14927 506.41798 
L 645.310349 535.097754 
L 645.471103 501.963834 
L 645.631533 512.417503 
L 645.791641 498.707728 
L 645.951427 503.539616 
L 646.110894 487.593826 
L 646.428873 542.53586 
L 646.587387 529.965272 
L 646.745587 499.824577 
L 646.903473 502.963823 
L 647.061047 527.644074 
L 647.21831 522.772025 
L 647.375263 507.120402 
L 647.531907 517.990268 
L 647.688244 510.142455 
L 647.844274 520.019888 
L 647.844274 520.019888 
" style="fill:none;stroke:#b22222;stroke-linecap:round;stroke-width:1.75;"/>
   </g>
   <g id="patch_6">
    <path d="M 90 512.64 
L 90 311.04 
" style="fill:none;stroke:#262626;stroke-linecap:square;stroke-linejoin:miter;stroke-width:1.25;"/>
   </g>
   <g id="patch_7">
    <path d="M 90 512.64 
L 648 512.64 
" style="fill:none;stroke:#262626;stroke-linecap:square;stroke-linejoin:miter;stroke-width:1.25;"/>
   </g>
  </g>
 </g>
 <defs>
  <clipPath id="p16777a6c06">
   <rect height="201.6" width="558" x="90" y="69.12"/>
  </clipPath>
  <clipPath id="pcc2eb10054">
   <rect height="201.6" width="558" x="90" y="311.04"/>
  </clipPath>
 </defs>
</svg>
