<?xml version="1.0" encoding="utf-8" standalone="no"?>
<!DOCTYPE svg PUBLIC "-//W3C//DTD SVG 1.1//EN"
  "http://www.w3.org/Graphics/SVG/1.1/DTD/svg11.dtd">
<!-- Created with matplotlib (http://matplotlib.org/) -->
<svg height="576pt" version="1.1" viewBox="0 0 720 576" width="720pt" xmlns="http://www.w3.org/2000/svg" xmlns:xlink="http://www.w3.org/1999/xlink">
 <defs>
  <style type="text/css">
*{stroke-linecap:butt;stroke-linejoin:round;}
  </style>
 </defs>
 <g id="figure_1">
  <g id="patch_1">
   <path d="M 0 576 
L 720 576 
L 720 0 
L 0 0 
z
" style="fill:#ffffff;"/>
  </g>
  <g id="axes_1">
   <g id="patch_2">
    <path d="M 90 270.72 
L 648 270.72 
L 648 69.12 
L 90 69.12 
z
" style="fill:#ffffff;"/>
   </g>
   <g id="matplotlib.axis_1">
    <g id="xtick_1">
     <g id="line2d_1">
      <defs>
       <path d="M 0 0 
L 0 6 
" id="me3f68958f5" style="stroke:#262626;"/>
      </defs>
      <g>
       <use style="fill:#262626;stroke:#262626;" x="90" xlink:href="#me3f68958f5" y="270.72"/>
      </g>
     </g>
     <g id="text_1">
      <!-- 0 -->
      <defs>
       <path d="M 4.15625 35.296875 
Q 4.15625 48 6.765625 55.734375 
Q 9.375 63.484375 14.515625 67.671875 
Q 19.671875 71.875 27.484375 71.875 
Q 33.25 71.875 37.59375 69.546875 
Q 41.9375 67.234375 44.765625 62.859375 
Q 47.609375 58.5 49.21875 52.21875 
Q 50.828125 45.953125 50.828125 35.296875 
Q 50.828125 22.703125 48.234375 14.96875 
Q 45.65625 7.234375 40.5 3 
Q 35.359375 -1.21875 27.484375 -1.21875 
Q 17.140625 -1.21875 11.234375 6.203125 
Q 4.15625 15.140625 4.15625 35.296875 
z
M 13.1875 35.296875 
Q 13.1875 17.671875 17.3125 11.828125 
Q 21.4375 6 27.484375 6 
Q 33.546875 6 37.671875 11.859375 
Q 41.796875 17.71875 41.796875 35.296875 
Q 41.796875 52.984375 37.671875 58.78125 
Q 33.546875 64.59375 27.390625 64.59375 
Q 21.34375 64.59375 17.71875 59.46875 
Q 13.1875 52.9375 13.1875 35.296875 
z
" id="ArialMT-30"/>
      </defs>
      <g style="fill:#262626;" transform="translate(87.219531 290.877812)scale(0.1 -0.1)">
       <use xlink:href="#ArialMT-30"/>
      </g>
     </g>
    </g>
    <g id="xtick_2">
     <g id="line2d_2">
      <g>
       <use style="fill:#262626;stroke:#262626;" x="198.984375" xlink:href="#me3f68958f5" y="270.72"/>
      </g>
     </g>
     <g id="text_2">
      <!-- 200 -->
      <defs>
       <path d="M 50.34375 8.453125 
L 50.34375 0 
L 3.03125 0 
Q 2.9375 3.171875 4.046875 6.109375 
Q 5.859375 10.9375 9.828125 15.625 
Q 13.8125 20.3125 21.34375 26.46875 
Q 33.015625 36.03125 37.109375 41.625 
Q 41.21875 47.21875 41.21875 52.203125 
Q 41.21875 57.421875 37.46875 61 
Q 33.734375 64.59375 27.734375 64.59375 
Q 21.390625 64.59375 17.578125 60.78125 
Q 13.765625 56.984375 13.71875 50.25 
L 4.6875 51.171875 
Q 5.609375 61.28125 11.65625 66.578125 
Q 17.71875 71.875 27.9375 71.875 
Q 38.234375 71.875 44.234375 66.15625 
Q 50.25 60.453125 50.25 52 
Q 50.25 47.703125 48.484375 43.546875 
Q 46.734375 39.40625 42.65625 34.8125 
Q 38.578125 30.21875 29.109375 22.21875 
Q 21.1875 15.578125 18.9375 13.203125 
Q 16.703125 10.84375 15.234375 8.453125 
z
" id="ArialMT-32"/>
      </defs>
      <g style="fill:#262626;" transform="translate(190.642969 290.877812)scale(0.1 -0.1)">
       <use xlink:href="#ArialMT-32"/>
       <use x="55.615234" xlink:href="#ArialMT-30"/>
       <use x="111.230469" xlink:href="#ArialMT-30"/>
      </g>
     </g>
    </g>
    <g id="xtick_3">
     <g id="line2d_3">
      <g>
       <use style="fill:#262626;stroke:#262626;" x="307.96875" xlink:href="#me3f68958f5" y="270.72"/>
      </g>
     </g>
     <g id="text_3">
      <!-- 400 -->
      <defs>
       <path d="M 32.328125 0 
L 32.328125 17.140625 
L 1.265625 17.140625 
L 1.265625 25.203125 
L 33.9375 71.578125 
L 41.109375 71.578125 
L 41.109375 25.203125 
L 50.78125 25.203125 
L 50.78125 17.140625 
L 41.109375 17.140625 
L 41.109375 0 
z
M 32.328125 25.203125 
L 32.328125 57.46875 
L 9.90625 25.203125 
z
" id="ArialMT-34"/>
      </defs>
      <g style="fill:#262626;" transform="translate(299.627344 290.877812)scale(0.1 -0.1)">
       <use xlink:href="#ArialMT-34"/>
       <use x="55.615234" xlink:href="#ArialMT-30"/>
       <use x="111.230469" xlink:href="#ArialMT-30"/>
      </g>
     </g>
    </g>
    <g id="xtick_4">
     <g id="line2d_4">
      <g>
       <use style="fill:#262626;stroke:#262626;" x="416.953125" xlink:href="#me3f68958f5" y="270.72"/>
      </g>
     </g>
     <g id="text_4">
      <!-- 600 -->
      <defs>
       <path d="M 49.75 54.046875 
L 41.015625 53.375 
Q 39.84375 58.546875 37.703125 60.890625 
Q 34.125 64.65625 28.90625 64.65625 
Q 24.703125 64.65625 21.53125 62.3125 
Q 17.390625 59.28125 14.984375 53.46875 
Q 12.59375 47.65625 12.5 36.921875 
Q 15.671875 41.75 20.265625 44.09375 
Q 24.859375 46.4375 29.890625 46.4375 
Q 38.671875 46.4375 44.84375 39.96875 
Q 51.03125 33.5 51.03125 23.25 
Q 51.03125 16.5 48.125 10.71875 
Q 45.21875 4.9375 40.140625 1.859375 
Q 35.0625 -1.21875 28.609375 -1.21875 
Q 17.625 -1.21875 10.6875 6.859375 
Q 3.765625 14.9375 3.765625 33.5 
Q 3.765625 54.25 11.421875 63.671875 
Q 18.109375 71.875 29.4375 71.875 
Q 37.890625 71.875 43.28125 67.140625 
Q 48.6875 62.40625 49.75 54.046875 
z
M 13.875 23.1875 
Q 13.875 18.65625 15.796875 14.5 
Q 17.71875 10.359375 21.1875 8.171875 
Q 24.65625 6 28.46875 6 
Q 34.03125 6 38.03125 10.484375 
Q 42.046875 14.984375 42.046875 22.703125 
Q 42.046875 30.125 38.078125 34.390625 
Q 34.125 38.671875 28.125 38.671875 
Q 22.171875 38.671875 18.015625 34.390625 
Q 13.875 30.125 13.875 23.1875 
z
" id="ArialMT-36"/>
      </defs>
      <g style="fill:#262626;" transform="translate(408.611719 290.877812)scale(0.1 -0.1)">
       <use xlink:href="#ArialMT-36"/>
       <use x="55.615234" xlink:href="#ArialMT-30"/>
       <use x="111.230469" xlink:href="#ArialMT-30"/>
      </g>
     </g>
    </g>
    <g id="xtick_5">
     <g id="line2d_5">
      <g>
       <use style="fill:#262626;stroke:#262626;" x="525.9375" xlink:href="#me3f68958f5" y="270.72"/>
      </g>
     </g>
     <g id="text_5">
      <!-- 800 -->
      <defs>
       <path d="M 17.671875 38.8125 
Q 12.203125 40.828125 9.5625 44.53125 
Q 6.9375 48.25 6.9375 53.421875 
Q 6.9375 61.234375 12.546875 66.546875 
Q 18.171875 71.875 27.484375 71.875 
Q 36.859375 71.875 42.578125 66.421875 
Q 48.296875 60.984375 48.296875 53.171875 
Q 48.296875 48.1875 45.671875 44.5 
Q 43.0625 40.828125 37.75 38.8125 
Q 44.34375 36.671875 47.78125 31.875 
Q 51.21875 27.09375 51.21875 20.453125 
Q 51.21875 11.28125 44.71875 5.03125 
Q 38.234375 -1.21875 27.640625 -1.21875 
Q 17.046875 -1.21875 10.546875 5.046875 
Q 4.046875 11.328125 4.046875 20.703125 
Q 4.046875 27.6875 7.59375 32.390625 
Q 11.140625 37.109375 17.671875 38.8125 
z
M 15.921875 53.71875 
Q 15.921875 48.640625 19.1875 45.40625 
Q 22.46875 42.1875 27.6875 42.1875 
Q 32.765625 42.1875 36.015625 45.375 
Q 39.265625 48.578125 39.265625 53.21875 
Q 39.265625 58.0625 35.90625 61.359375 
Q 32.5625 64.65625 27.59375 64.65625 
Q 22.5625 64.65625 19.234375 61.421875 
Q 15.921875 58.203125 15.921875 53.71875 
z
M 13.09375 20.65625 
Q 13.09375 16.890625 14.875 13.375 
Q 16.65625 9.859375 20.171875 7.921875 
Q 23.6875 6 27.734375 6 
Q 34.03125 6 38.125 10.046875 
Q 42.234375 14.109375 42.234375 20.359375 
Q 42.234375 26.703125 38.015625 30.859375 
Q 33.796875 35.015625 27.4375 35.015625 
Q 21.234375 35.015625 17.15625 30.90625 
Q 13.09375 26.8125 13.09375 20.65625 
z
" id="ArialMT-38"/>
      </defs>
      <g style="fill:#262626;" transform="translate(517.596094 290.877812)scale(0.1 -0.1)">
       <use xlink:href="#ArialMT-38"/>
       <use x="55.615234" xlink:href="#ArialMT-30"/>
       <use x="111.230469" xlink:href="#ArialMT-30"/>
      </g>
     </g>
    </g>
    <g id="xtick_6">
     <g id="line2d_6">
      <g>
       <use style="fill:#262626;stroke:#262626;" x="634.921875" xlink:href="#me3f68958f5" y="270.72"/>
      </g>
     </g>
     <g id="text_6">
      <!-- 1000 -->
      <defs>
       <path d="M 37.25 0 
L 28.46875 0 
L 28.46875 56 
Q 25.296875 52.984375 20.140625 49.953125 
Q 14.984375 46.921875 10.890625 45.40625 
L 10.890625 53.90625 
Q 18.265625 57.375 23.78125 62.296875 
Q 29.296875 67.234375 31.59375 71.875 
L 37.25 71.875 
z
" id="ArialMT-31"/>
      </defs>
      <g style="fill:#262626;" transform="translate(623.8 290.877812)scale(0.1 -0.1)">
       <use xlink:href="#ArialMT-31"/>
       <use x="55.615234" xlink:href="#ArialMT-30"/>
       <use x="111.230469" xlink:href="#ArialMT-30"/>
       <use x="166.845703" xlink:href="#ArialMT-30"/>
      </g>
     </g>
    </g>
   </g>
   <g id="matplotlib.axis_2">
    <g id="ytick_1">
     <g id="line2d_7">
      <defs>
       <path d="M 0 0 
L -6 0 
" id="md301f3caa2" style="stroke:#262626;"/>
      </defs>
      <g>
       <use style="fill:#262626;stroke:#262626;" x="90" xlink:href="#md301f3caa2" y="270.72"/>
      </g>
     </g>
     <g id="text_7">
      <!-- −0.6 -->
      <defs>
       <path d="M 52.828125 31.203125 
L 5.5625 31.203125 
L 5.5625 39.40625 
L 52.828125 39.40625 
z
" id="ArialMT-2212"/>
       <path d="M 9.078125 0 
L 9.078125 10.015625 
L 19.09375 10.015625 
L 19.09375 0 
z
" id="ArialMT-2e"/>
      </defs>
      <g style="fill:#262626;" transform="translate(57.259375 274.298906)scale(0.1 -0.1)">
       <use xlink:href="#ArialMT-2212"/>
       <use x="58.398438" xlink:href="#ArialMT-30"/>
       <use x="114.013672" xlink:href="#ArialMT-2e"/>
       <use x="141.796875" xlink:href="#ArialMT-36"/>
      </g>
     </g>
    </g>
    <g id="ytick_2">
     <g id="line2d_8">
      <g>
       <use style="fill:#262626;stroke:#262626;" x="90" xlink:href="#md301f3caa2" y="237.12"/>
      </g>
     </g>
     <g id="text_8">
      <!-- −0.4 -->
      <g style="fill:#262626;" transform="translate(57.259375 240.698906)scale(0.1 -0.1)">
       <use xlink:href="#ArialMT-2212"/>
       <use x="58.398438" xlink:href="#ArialMT-30"/>
       <use x="114.013672" xlink:href="#ArialMT-2e"/>
       <use x="141.796875" xlink:href="#ArialMT-34"/>
      </g>
     </g>
    </g>
    <g id="ytick_3">
     <g id="line2d_9">
      <g>
       <use style="fill:#262626;stroke:#262626;" x="90" xlink:href="#md301f3caa2" y="203.52"/>
      </g>
     </g>
     <g id="text_9">
      <!-- −0.2 -->
      <g style="fill:#262626;" transform="translate(57.259375 207.098906)scale(0.1 -0.1)">
       <use xlink:href="#ArialMT-2212"/>
       <use x="58.398438" xlink:href="#ArialMT-30"/>
       <use x="114.013672" xlink:href="#ArialMT-2e"/>
       <use x="141.796875" xlink:href="#ArialMT-32"/>
      </g>
     </g>
    </g>
    <g id="ytick_4">
     <g id="line2d_10">
      <g>
       <use style="fill:#262626;stroke:#262626;" x="90" xlink:href="#md301f3caa2" y="169.92"/>
      </g>
     </g>
     <g id="text_10">
      <!-- 0.0 -->
      <g style="fill:#262626;" transform="translate(63.1 173.498906)scale(0.1 -0.1)">
       <use xlink:href="#ArialMT-30"/>
       <use x="55.615234" xlink:href="#ArialMT-2e"/>
       <use x="83.398438" xlink:href="#ArialMT-30"/>
      </g>
     </g>
    </g>
    <g id="ytick_5">
     <g id="line2d_11">
      <g>
       <use style="fill:#262626;stroke:#262626;" x="90" xlink:href="#md301f3caa2" y="136.32"/>
      </g>
     </g>
     <g id="text_11">
      <!-- 0.2 -->
      <g style="fill:#262626;" transform="translate(63.1 139.898906)scale(0.1 -0.1)">
       <use xlink:href="#ArialMT-30"/>
       <use x="55.615234" xlink:href="#ArialMT-2e"/>
       <use x="83.398438" xlink:href="#ArialMT-32"/>
      </g>
     </g>
    </g>
    <g id="ytick_6">
     <g id="line2d_12">
      <g>
       <use style="fill:#262626;stroke:#262626;" x="90" xlink:href="#md301f3caa2" y="102.72"/>
      </g>
     </g>
     <g id="text_12">
      <!-- 0.4 -->
      <g style="fill:#262626;" transform="translate(63.1 106.298906)scale(0.1 -0.1)">
       <use xlink:href="#ArialMT-30"/>
       <use x="55.615234" xlink:href="#ArialMT-2e"/>
       <use x="83.398438" xlink:href="#ArialMT-34"/>
      </g>
     </g>
    </g>
    <g id="ytick_7">
     <g id="line2d_13">
      <g>
       <use style="fill:#262626;stroke:#262626;" x="90" xlink:href="#md301f3caa2" y="69.12"/>
      </g>
     </g>
     <g id="text_13">
      <!-- 0.6 -->
      <g style="fill:#262626;" transform="translate(63.1 72.698906)scale(0.1 -0.1)">
       <use xlink:href="#ArialMT-30"/>
       <use x="55.615234" xlink:href="#ArialMT-2e"/>
       <use x="83.398438" xlink:href="#ArialMT-36"/>
      </g>
     </g>
    </g>
   </g>
   <g id="line2d_14">
    <path clip-path="url(#p44f6fa2a19)" d="M 90 171.258135 
L 92.179688 155.36458 
L 93.269531 150.099199 
L 94.359375 147.838213 
L 94.904297 147.827959 
L 95.449219 148.514971 
L 95.994141 149.62752 
L 98.173828 156.456621 
L 99.263672 158.979082 
L 99.808594 159.850664 
L 100.353516 160.040361 
L 100.898438 160.635088 
L 101.443359 161.522051 
L 103.623047 165.91585 
L 104.167969 166.854082 
L 104.712891 166.746416 
L 105.257812 165.972246 
L 105.802734 164.741777 
L 109.072266 153.970049 
L 110.162109 151.298906 
L 110.707031 149.935137 
L 113.431641 145.464434 
L 113.976562 144.68001 
L 115.066406 142.419023 
L 115.611328 140.732256 
L 116.15625 138.455889 
L 117.791016 129.816973 
L 118.335938 127.361162 
L 118.880859 126.340898 
L 119.425781 125.566729 
L 119.970703 125.961504 
L 120.515625 127.038164 
L 121.060547 128.653154 
L 122.150391 132.929033 
L 123.240234 138.871172 
L 124.330078 146.582109 
L 126.509766 165.37752 
L 127.054688 169.017656 
L 127.599609 171.724687 
L 128.144531 173.057695 
L 128.689453 172.534746 
L 129.234375 170.765947 
L 131.414062 159.179033 
L 131.958984 157.851152 
L 132.503906 156.969316 
L 133.59375 157.307695 
L 134.683594 158.840654 
L 135.228516 159.225176 
L 135.773438 160.004473 
L 136.318359 160.132646 
L 136.863281 160.107012 
L 138.498047 159.158525 
L 139.042969 158.902178 
L 139.587891 158.958574 
L 140.132812 159.143145 
L 141.767578 160.107012 
L 142.857422 161.209307 
L 143.402344 161.537432 
L 145.037109 163.613848 
L 146.126953 165.844072 
L 147.216797 169.981523 
L 148.306641 174.811113 
L 149.396484 181.02498 
L 150.486328 186.080156 
L 151.03125 187.582354 
L 154.845703 195.257402 
L 155.935547 197.015947 
L 156.480469 197.323564 
L 157.025391 197.231279 
L 157.570312 196.375078 
L 158.660156 192.176104 
L 160.839844 179.486895 
L 161.384766 177.574541 
L 161.929688 176.713213 
L 163.019531 177.472002 
L 163.564453 178.912676 
L 164.109375 180.009844 
L 166.289062 186.049395 
L 167.378906 187.930986 
L 168.46875 188.971758 
L 169.558594 189.381914 
L 170.103516 189.699785 
L 171.193359 189.510088 
L 171.738281 189.058916 
L 172.828125 187.58748 
L 173.373047 187.105547 
L 173.917969 187.069658 
L 174.462891 187.377275 
L 175.007812 187.869463 
L 175.552734 189.202471 
L 176.097656 190.227861 
L 177.1875 191.453203 
L 177.732422 190.832842 
L 178.277344 189.940752 
L 178.822266 188.633379 
L 180.457031 181.522295 
L 181.546875 174.539385 
L 182.636719 167.013018 
L 183.726562 159.983965 
L 184.271484 157.159014 
L 184.816406 155.205645 
L 185.90625 153.554766 
L 186.451172 153.529131 
L 186.996094 153.836748 
L 188.085938 155.272295 
L 189.175781 156.753984 
L 189.720703 157.200029 
L 190.810547 158.609941 
L 192.445312 163.29085 
L 194.080078 168.064043 
L 195.169922 169.622637 
L 195.714844 169.632891 
L 196.259766 169.258623 
L 196.804688 168.684404 
L 197.349609 167.751299 
L 198.439453 164.60335 
L 200.074219 159.199541 
L 200.619141 157.769121 
L 201.164062 156.882158 
L 202.253906 155.795244 
L 202.798828 155.461992 
L 203.888672 154.451982 
L 204.433594 153.570146 
L 204.978516 152.221758 
L 205.523438 150.576006 
L 206.068359 148.545732 
L 208.792969 136.220537 
L 210.972656 129.170977 
L 211.517578 128.017412 
L 212.0625 127.309893 
L 212.607422 127.514971 
L 213.152344 128.637773 
L 213.697266 131.011553 
L 214.242188 134.590166 
L 215.332031 144.331377 
L 216.966797 161.040117 
L 217.511719 165.587725 
L 218.056641 168.925371 
L 218.601562 171.068437 
L 219.146484 172.032305 
L 219.691406 171.909258 
L 220.236328 170.827471 
L 221.871094 166.10042 
L 222.416016 164.628984 
L 222.960938 163.952227 
L 223.505859 163.65999 
L 224.050781 163.634355 
L 225.140625 164.0804 
L 225.685547 164.393145 
L 226.230469 164.331621 
L 226.775391 164.06502 
L 227.320312 163.567705 
L 227.865234 162.685869 
L 228.410156 162.142412 
L 228.955078 161.906572 
L 229.5 161.952715 
L 230.044922 162.496172 
L 231.134766 164.24959 
L 231.679688 164.962236 
L 232.224609 165.336504 
L 232.769531 165.028887 
L 233.314453 164.55208 
L 233.859375 163.772783 
L 234.404297 163.362627 
L 235.494141 163.654863 
L 236.039062 164.587969 
L 237.128906 167.720537 
L 240.398438 181.742754 
L 243.123047 189.751055 
L 245.847656 201.23543 
L 246.392578 203.004229 
L 246.9375 204.209062 
L 247.482422 204.542314 
L 248.027344 204.475664 
L 248.572266 203.50667 
L 249.117188 201.825029 
L 249.662109 199.471758 
L 251.296875 190.812334 
L 251.841797 188.551348 
L 252.931641 185.813555 
L 254.021484 185.418779 
L 254.566406 185.78792 
L 255.65625 187.264482 
L 257.291016 190.14583 
L 257.835938 191.284014 
L 258.925781 193.867998 
L 259.470703 194.734453 
L 260.560547 195.303545 
L 261.650391 195.257402 
L 262.195312 194.893389 
L 262.740234 194.1346 
L 263.285156 193.637285 
L 264.375 192.442705 
L 264.919922 192.509355 
L 265.464844 192.893877 
L 267.099609 196.559648 
L 267.644531 198.036211 
L 268.189453 199.03084 
L 268.734375 199.487139 
L 269.279297 199.420488 
L 269.824219 198.436113 
L 270.369141 196.790361 
L 271.458984 191.289141 
L 273.638672 177.91292 
L 274.728516 172.252764 
L 275.818359 166.915605 
L 276.363281 164.418779 
L 276.908203 162.450029 
L 277.453125 161.178545 
L 277.998047 160.19417 
L 278.542969 159.619951 
L 279.087891 159.481523 
L 279.632812 159.568682 
L 280.177734 159.789141 
L 281.8125 161.804033 
L 282.357422 162.6346 
L 283.447266 165.403154 
L 284.537109 169.135576 
L 285.626953 172.975664 
L 286.171875 174.426592 
L 286.716797 174.888018 
L 287.261719 174.682939 
L 287.806641 173.795977 
L 288.896484 170.181475 
L 289.441406 168.269121 
L 289.986328 166.884844 
L 290.53125 165.967119 
L 291.621094 165.305742 
L 292.166016 165.075029 
L 292.710938 165.233965 
L 293.255859 164.521318 
L 294.345703 162.557695 
L 295.980469 158.625322 
L 297.615234 155.210771 
L 298.705078 151.591143 
L 299.25 149.5096 
L 300.339844 142.900957 
L 301.429688 134.897783 
L 302.519531 128.786455 
L 303.064453 127.238115 
L 303.609375 127.084307 
L 304.154297 128.068682 
L 304.699219 130.180986 
L 305.244141 133.595537 
L 306.333984 142.675371 
L 307.96875 158.399736 
L 308.513672 162.629473 
L 309.058594 165.9825 
L 309.603516 168.407549 
L 310.148438 169.407305 
L 310.693359 169.80208 
L 311.238281 169.832842 
L 311.783203 169.1971 
L 312.328125 169.44832 
L 314.507812 168.879229 
L 315.597656 168.417803 
L 316.142578 167.874346 
L 316.6875 167.505205 
L 317.777344 165.490312 
L 318.867188 164.60335 
L 319.412109 164.541826 
L 319.957031 165.044268 
L 320.501953 165.803057 
L 321.046875 166.361895 
L 321.591797 167.448809 
L 322.681641 167.423174 
L 323.771484 165.398027 
L 324.316406 163.972734 
L 325.951172 162.532061 
L 327.041016 164.593096 
L 328.130859 168.387041 
L 328.675781 170.612139 
L 330.855469 176.805498 
L 332.490234 179.871416 
L 333.580078 183.58333 
L 334.125 186.300615 
L 336.304688 199.389727 
L 336.849609 201.707109 
L 337.394531 203.481035 
L 337.939453 204.578203 
L 338.484375 205.188311 
L 339.029297 205.193437 
L 339.574219 204.58333 
L 340.119141 203.727129 
L 341.208984 200.148516 
L 343.933594 189.42293 
L 344.478516 188.115557 
L 345.023438 187.341387 
L 345.568359 186.905596 
L 346.113281 187.095293 
L 347.748047 189.592119 
L 348.837891 191.87874 
L 349.927734 193.919268 
L 351.017578 196.021318 
L 351.5625 196.380205 
L 352.107422 196.554521 
L 352.652344 195.908525 
L 354.287109 192.760576 
L 354.832031 192.170977 
L 355.376953 191.863359 
L 355.921875 192.58626 
L 356.466797 193.709062 
L 358.101562 198.748857 
L 358.646484 200.404863 
L 359.191406 201.594316 
L 359.736328 202.173662 
L 360.28125 202.030107 
L 360.826172 201.261064 
L 361.371094 200.030596 
L 363.550781 191.22249 
L 364.640625 185.398271 
L 366.820312 173.590898 
L 368.455078 167.125811 
L 369 165.459551 
L 370.089844 162.93709 
L 370.634766 161.650225 
L 371.179688 160.922197 
L 371.724609 160.450518 
L 372.269531 160.670977 
L 372.814453 161.404131 
L 373.904297 164.608477 
L 376.083984 172.601396 
L 376.628906 173.765215 
L 377.173828 174.544512 
L 378.263672 174.600908 
L 379.353516 173.534502 
L 379.898438 172.816729 
L 380.988281 171.914385 
L 381.533203 171.627275 
L 382.078125 170.940264 
L 382.623047 170.519854 
L 383.712891 168.730547 
L 384.257812 168.105059 
L 384.802734 167.013018 
L 385.347656 166.736162 
L 386.4375 165.946611 
L 386.982422 165.577471 
L 387.527344 165.034014 
L 388.072266 164.895586 
L 388.617188 164.075273 
L 389.162109 163.629229 
L 389.707031 161.665605 
L 390.251953 158.81502 
L 390.796875 155.190264 
L 391.886719 145.310625 
L 392.976562 135.282305 
L 394.066406 129.063311 
L 394.611328 128.396807 
L 395.15625 128.87874 
L 395.701172 130.668047 
L 396.246094 133.369951 
L 400.060547 159.65584 
L 401.150391 164.454668 
L 402.240234 168.130693 
L 402.785156 169.730303 
L 403.330078 170.955645 
L 403.875 171.581133 
L 404.419922 171.9554 
L 404.964844 171.724687 
L 406.054688 170.078936 
L 407.144531 168.13582 
L 407.689453 167.264238 
L 408.779297 167.043779 
L 409.324219 167.356523 
L 409.869141 167.469316 
L 410.414062 167.735918 
L 411.503906 168.776689 
L 412.048828 169.089434 
L 412.59375 169.248369 
L 413.683594 167.633379 
L 414.228516 166.582354 
L 414.773438 165.080156 
L 415.863281 163.213945 
L 416.408203 163.090898 
L 416.953125 163.444658 
L 417.498047 164.36751 
L 420.222656 170.555742 
L 421.3125 171.550371 
L 421.857422 171.786211 
L 422.947266 173.298662 
L 423.492188 174.723955 
L 424.582031 179.71248 
L 425.671875 185.608477 
L 427.306641 195.46248 
L 428.396484 200.650957 
L 428.941406 202.445391 
L 429.486328 203.527178 
L 430.03125 204.321855 
L 430.576172 204.239824 
L 431.666016 203.055498 
L 432.210938 201.989092 
L 433.300781 198.887285 
L 434.390625 194.616533 
L 434.935547 191.93001 
L 436.025391 188.320635 
L 436.570312 187.300371 
L 437.115234 186.879961 
L 437.660156 187.202959 
L 438.205078 188.069414 
L 438.75 189.228105 
L 439.839844 192.006914 
L 440.384766 193.278398 
L 440.929688 194.257646 
L 441.474609 194.734453 
L 442.019531 194.965166 
L 442.564453 194.79085 
L 443.109375 194.288408 
L 443.654297 193.406572 
L 445.289062 191.806963 
L 446.378906 191.909502 
L 446.923828 192.355547 
L 448.013672 193.924395 
L 449.103516 196.564775 
L 450.193359 200.394609 
L 450.738281 201.727617 
L 451.283203 202.435137 
L 451.828125 202.255693 
L 452.373047 201.502031 
L 452.917969 199.912676 
L 454.007812 195.559893 
L 458.367188 176.446611 
L 460.001953 166.956621 
L 460.546875 163.598467 
L 461.091797 161.127275 
L 461.636719 159.630205 
L 462.181641 158.784258 
L 462.726562 158.794512 
L 463.271484 159.204668 
L 463.816406 159.84041 
L 465.451172 162.480791 
L 466.541016 164.654619 
L 467.085938 166.038896 
L 468.720703 168.730547 
L 469.265625 169.309893 
L 469.810547 169.545732 
L 470.355469 169.981523 
L 470.900391 170.186602 
L 471.990234 169.720049 
L 473.080078 168.171709 
L 474.169922 165.536455 
L 475.259766 163.757402 
L 475.804688 163.362627 
L 476.349609 163.213945 
L 476.894531 163.378008 
L 477.439453 164.567461 
L 479.074219 167.002764 
L 479.619141 166.592607 
L 480.164062 165.56209 
L 480.708984 163.198564 
L 481.253906 159.666094 
L 482.34375 149.704424 
L 483.433594 138.025225 
L 483.978516 133.303301 
L 484.523438 129.678545 
L 485.068359 127.294512 
L 485.613281 125.95125 
L 486.158203 125.710283 
L 486.703125 126.238359 
L 487.248047 127.150957 
L 488.337891 130.975664 
L 489.427734 136.646074 
L 490.517578 143.382891 
L 493.242188 160.132646 
L 494.332031 164.352129 
L 494.876953 165.054521 
L 495.421875 165.146807 
L 495.966797 164.752031 
L 498.146484 162.152666 
L 498.691406 162.106523 
L 499.78125 163.30623 
L 500.326172 164.126543 
L 500.871094 164.659746 
L 501.416016 165.592852 
L 501.960938 165.480059 
L 502.505859 165.182695 
L 503.050781 164.464922 
L 505.230469 160.209551 
L 505.775391 159.635332 
L 506.320312 159.625078 
L 506.865234 159.250811 
L 507.955078 159.635332 
L 508.5 160.214678 
L 509.044922 160.978594 
L 509.589844 161.475908 
L 510.134766 162.496172 
L 510.679688 163.013994 
L 511.224609 163.30623 
L 512.314453 163.403643 
L 512.859375 163.178057 
L 513.404297 163.624102 
L 513.949219 164.43416 
L 514.494141 165.618486 
L 515.039062 167.41292 
L 516.128906 172.72957 
L 519.398438 190.089434 
L 520.488281 194.678057 
L 521.578125 197.918291 
L 522.123047 198.779619 
L 522.667969 199.128252 
L 523.212891 198.748857 
L 523.757812 197.697832 
L 524.847656 192.970781 
L 526.482422 185.352129 
L 527.027344 183.737139 
L 527.572266 183.157793 
L 528.117188 183.275713 
L 528.662109 183.7679 
L 529.207031 184.47542 
L 530.841797 187.064531 
L 531.931641 188.489824 
L 532.476562 188.920488 
L 533.566406 188.935869 
L 535.201172 187.664385 
L 536.291016 186.244219 
L 537.380859 185.505937 
L 537.925781 185.834062 
L 538.470703 186.638994 
L 539.560547 189.72542 
L 540.650391 194.067949 
L 541.195312 195.647051 
L 541.740234 196.385332 
L 542.285156 196.580156 
L 542.830078 196.569902 
L 543.375 195.86751 
L 543.919922 195.472734 
L 544.464844 194.801104 
L 546.099609 191.735186 
L 547.189453 188.484697 
L 548.279297 184.065264 
L 549.369141 177.851396 
L 551.003906 167.043779 
L 552.09375 161.219561 
L 552.638672 159.461016 
L 553.183594 158.220293 
L 553.728516 157.640947 
L 555.363281 158.230547 
L 556.453125 158.635576 
L 556.998047 158.789385 
L 557.542969 159.250811 
L 558.087891 160.107012 
L 559.177734 162.58333 
L 560.267578 165.715898 
L 561.357422 168.335771 
L 561.902344 168.84334 
L 562.447266 168.663896 
L 562.992188 168.012773 
L 563.537109 166.577227 
L 565.171875 161.168291 
L 565.716797 160.214678 
L 566.261719 160.19417 
L 566.806641 161.065752 
L 567.351562 162.639727 
L 568.986328 168.166582 
L 569.53125 169.140703 
L 570.076172 169.689287 
L 570.621094 169.340654 
L 571.166016 167.843584 
L 571.710938 165.464678 
L 572.255859 162.152666 
L 576.070312 132.118975 
L 577.160156 127.581621 
L 577.705078 126.37166 
L 578.25 125.592363 
L 578.794922 125.925615 
L 579.339844 126.653643 
L 579.884766 127.704668 
L 580.974609 132.657305 
L 581.519531 135.918047 
L 583.699219 152.457598 
L 584.789062 157.763994 
L 585.333984 159.030352 
L 585.878906 159.72249 
L 586.96875 159.696855 
L 587.513672 159.430254 
L 588.058594 159.522539 
L 588.603516 159.968584 
L 589.148438 160.583818 
L 590.783203 163.29085 
L 591.873047 164.73665 
L 592.417969 164.823809 
L 592.962891 164.741777 
L 594.052734 162.834551 
L 595.142578 160.501787 
L 595.6875 160.045488 
L 596.232422 159.322588 
L 596.777344 158.876543 
L 597.322266 158.876543 
L 597.867188 159.312334 
L 598.412109 159.476396 
L 598.957031 159.517412 
L 600.046875 159.968584 
L 600.591797 159.953203 
L 601.136719 159.794268 
L 601.681641 159.753252 
L 602.226562 159.527666 
L 602.771484 159.071367 
L 603.861328 159.476396 
L 605.496094 161.783525 
L 606.585938 164.111162 
L 607.675781 167.83333 
L 608.765625 173.298662 
L 610.400391 183.952471 
L 610.945312 187.490068 
L 612.035156 192.857988 
L 612.580078 194.842119 
L 613.125 195.775225 
L 613.669922 196.308428 
L 614.214844 196.159746 
L 615.304688 193.560381 
L 616.939453 187.843828 
L 618.029297 184.501055 
L 618.574219 183.285967 
L 619.119141 182.373369 
L 619.664062 182.193926 
L 620.208984 182.316973 
L 621.298828 184.147295 
L 621.84375 185.557207 
L 622.388672 186.618486 
L 623.478516 187.264482 
L 624.023438 186.869707 
L 626.203125 183.46541 
L 627.292969 183.178301 
L 627.837891 183.214189 
L 628.927734 183.844805 
L 630.017578 185.362383 
L 631.107422 187.87459 
L 632.197266 190.571367 
L 633.287109 192.422197 
L 634.376953 193.498857 
L 636.011719 194.052568 
L 636.556641 193.714189 
L 637.101562 193.186113 
L 637.646484 192.11458 
L 638.191406 190.720049 
L 639.28125 186.480059 
L 640.371094 180.491777 
L 642.005859 169.755937 
L 642.550781 166.997637 
L 643.640625 162.747393 
L 644.185547 161.901445 
L 644.730469 160.506914 
L 645.275391 159.496904 
L 646.365234 156.502764 
L 647.455078 154.657061 
L 647.455078 154.657061 
" style="fill:none;stroke:#4c72b0;stroke-linecap:round;stroke-width:1.75;"/>
   </g>
   <g id="patch_3">
    <path d="M 90 270.72 
L 90 69.12 
" style="fill:none;stroke:#262626;stroke-linecap:square;stroke-linejoin:miter;stroke-width:1.25;"/>
   </g>
   <g id="patch_4">
    <path d="M 90 270.72 
L 648 270.72 
" style="fill:none;stroke:#262626;stroke-linecap:square;stroke-linejoin:miter;stroke-width:1.25;"/>
   </g>
  </g>
  <g id="axes_2">
   <g id="patch_5">
    <path d="M 90 512.64 
L 648 512.64 
L 648 311.04 
L 90 311.04 
z
" style="fill:#ffffff;"/>
   </g>
   <g id="matplotlib.axis_3">
    <g id="xtick_7">
     <g id="line2d_15">
      <g>
       <use style="fill:#262626;stroke:#262626;" x="218.197478" xlink:href="#me3f68958f5" y="512.64"/>
      </g>
     </g>
     <g id="text_14">
      <!-- $\mathdefault{10^{2}}$ -->
      <g style="fill:#262626;" transform="translate(210.347478 535.9525)scale(0.1 -0.1)">
       <use transform="translate(0 0.99375)" xlink:href="#ArialMT-31"/>
       <use transform="translate(55.615234 0.99375)" xlink:href="#ArialMT-30"/>
       <use transform="translate(112.972813 70.6875)scale(0.7)" xlink:href="#ArialMT-32"/>
      </g>
     </g>
    </g>
    <g id="xtick_8">
     <g id="line2d_16">
      <g>
       <use style="fill:#262626;stroke:#262626;" x="401.606604" xlink:href="#me3f68958f5" y="512.64"/>
      </g>
     </g>
     <g id="text_15">
      <!-- $\mathdefault{10^{3}}$ -->
      <defs>
       <path d="M 4.203125 18.890625 
L 12.984375 20.0625 
Q 14.5 12.59375 18.140625 9.296875 
Q 21.78125 6 27 6 
Q 33.203125 6 37.46875 10.296875 
Q 41.75 14.59375 41.75 20.953125 
Q 41.75 27 37.796875 30.921875 
Q 33.84375 34.859375 27.734375 34.859375 
Q 25.25 34.859375 21.53125 33.890625 
L 22.515625 41.609375 
Q 23.390625 41.5 23.921875 41.5 
Q 29.546875 41.5 34.03125 44.421875 
Q 38.53125 47.359375 38.53125 53.46875 
Q 38.53125 58.296875 35.25 61.46875 
Q 31.984375 64.65625 26.8125 64.65625 
Q 21.6875 64.65625 18.265625 61.421875 
Q 14.84375 58.203125 13.875 51.765625 
L 5.078125 53.328125 
Q 6.6875 62.15625 12.390625 67.015625 
Q 18.109375 71.875 26.609375 71.875 
Q 32.46875 71.875 37.390625 69.359375 
Q 42.328125 66.84375 44.9375 62.5 
Q 47.5625 58.15625 47.5625 53.265625 
Q 47.5625 48.640625 45.0625 44.828125 
Q 42.578125 41.015625 37.703125 38.765625 
Q 44.046875 37.3125 47.5625 32.6875 
Q 51.078125 28.078125 51.078125 21.140625 
Q 51.078125 11.765625 44.234375 5.25 
Q 37.40625 -1.265625 26.953125 -1.265625 
Q 17.53125 -1.265625 11.296875 4.34375 
Q 5.078125 9.96875 4.203125 18.890625 
z
" id="ArialMT-33"/>
      </defs>
      <g style="fill:#262626;" transform="translate(393.756604 535.9525)scale(0.1 -0.1)">
       <use transform="translate(0 0.99375)" xlink:href="#ArialMT-31"/>
       <use transform="translate(55.615234 0.99375)" xlink:href="#ArialMT-30"/>
       <use transform="translate(112.972813 70.6875)scale(0.7)" xlink:href="#ArialMT-33"/>
      </g>
     </g>
    </g>
    <g id="xtick_9">
     <g id="line2d_17">
      <g>
       <use style="fill:#262626;stroke:#262626;" x="585.01573" xlink:href="#me3f68958f5" y="512.64"/>
      </g>
     </g>
     <g id="text_16">
      <!-- $\mathdefault{10^{4}}$ -->
      <g style="fill:#262626;" transform="translate(577.16573 535.8525)scale(0.1 -0.1)">
       <use transform="translate(0 0.201563)" xlink:href="#ArialMT-31"/>
       <use transform="translate(55.615234 0.201563)" xlink:href="#ArialMT-30"/>
       <use transform="translate(112.972813 69.895313)scale(0.7)" xlink:href="#ArialMT-34"/>
      </g>
     </g>
    </g>
    <g id="xtick_10">
     <g id="line2d_18">
      <defs>
       <path d="M 0 0 
L 0 3 
" id="m000353d9fb" style="stroke:#262626;stroke-width:0.5;"/>
      </defs>
      <g>
       <use style="fill:#262626;stroke:#262626;stroke-width:0.5;" x="90" xlink:href="#m000353d9fb" y="512.64"/>
      </g>
     </g>
    </g>
    <g id="xtick_11">
     <g id="line2d_19">
      <g>
       <use style="fill:#262626;stroke:#262626;stroke-width:0.5;" x="122.296744" xlink:href="#m000353d9fb" y="512.64"/>
      </g>
     </g>
    </g>
    <g id="xtick_12">
     <g id="line2d_20">
      <g>
       <use style="fill:#262626;stroke:#262626;stroke-width:0.5;" x="145.211648" xlink:href="#m000353d9fb" y="512.64"/>
      </g>
     </g>
    </g>
    <g id="xtick_13">
     <g id="line2d_21">
      <g>
       <use style="fill:#262626;stroke:#262626;stroke-width:0.5;" x="162.985829" xlink:href="#m000353d9fb" y="512.64"/>
      </g>
     </g>
    </g>
    <g id="xtick_14">
     <g id="line2d_22">
      <g>
       <use style="fill:#262626;stroke:#262626;stroke-width:0.5;" x="177.508392" xlink:href="#m000353d9fb" y="512.64"/>
      </g>
     </g>
    </g>
    <g id="xtick_15">
     <g id="line2d_23">
      <g>
       <use style="fill:#262626;stroke:#262626;stroke-width:0.5;" x="189.787045" xlink:href="#m000353d9fb" y="512.64"/>
      </g>
     </g>
    </g>
    <g id="xtick_16">
     <g id="line2d_24">
      <g>
       <use style="fill:#262626;stroke:#262626;stroke-width:0.5;" x="200.423297" xlink:href="#m000353d9fb" y="512.64"/>
      </g>
     </g>
    </g>
    <g id="xtick_17">
     <g id="line2d_25">
      <g>
       <use style="fill:#262626;stroke:#262626;stroke-width:0.5;" x="209.805136" xlink:href="#m000353d9fb" y="512.64"/>
      </g>
     </g>
    </g>
    <g id="xtick_18">
     <g id="line2d_26">
      <g>
       <use style="fill:#262626;stroke:#262626;stroke-width:0.5;" x="273.409126" xlink:href="#m000353d9fb" y="512.64"/>
      </g>
     </g>
    </g>
    <g id="xtick_19">
     <g id="line2d_27">
      <g>
       <use style="fill:#262626;stroke:#262626;stroke-width:0.5;" x="305.70587" xlink:href="#m000353d9fb" y="512.64"/>
      </g>
     </g>
    </g>
    <g id="xtick_20">
     <g id="line2d_28">
      <g>
       <use style="fill:#262626;stroke:#262626;stroke-width:0.5;" x="328.620775" xlink:href="#m000353d9fb" y="512.64"/>
      </g>
     </g>
    </g>
    <g id="xtick_21">
     <g id="line2d_29">
      <g>
       <use style="fill:#262626;stroke:#262626;stroke-width:0.5;" x="346.394955" xlink:href="#m000353d9fb" y="512.64"/>
      </g>
     </g>
    </g>
    <g id="xtick_22">
     <g id="line2d_30">
      <g>
       <use style="fill:#262626;stroke:#262626;stroke-width:0.5;" x="360.917518" xlink:href="#m000353d9fb" y="512.64"/>
      </g>
     </g>
    </g>
    <g id="xtick_23">
     <g id="line2d_31">
      <g>
       <use style="fill:#262626;stroke:#262626;stroke-width:0.5;" x="373.196171" xlink:href="#m000353d9fb" y="512.64"/>
      </g>
     </g>
    </g>
    <g id="xtick_24">
     <g id="line2d_32">
      <g>
       <use style="fill:#262626;stroke:#262626;stroke-width:0.5;" x="383.832423" xlink:href="#m000353d9fb" y="512.64"/>
      </g>
     </g>
    </g>
    <g id="xtick_25">
     <g id="line2d_33">
      <g>
       <use style="fill:#262626;stroke:#262626;stroke-width:0.5;" x="393.214262" xlink:href="#m000353d9fb" y="512.64"/>
      </g>
     </g>
    </g>
    <g id="xtick_26">
     <g id="line2d_34">
      <g>
       <use style="fill:#262626;stroke:#262626;stroke-width:0.5;" x="456.818252" xlink:href="#m000353d9fb" y="512.64"/>
      </g>
     </g>
    </g>
    <g id="xtick_27">
     <g id="line2d_35">
      <g>
       <use style="fill:#262626;stroke:#262626;stroke-width:0.5;" x="489.114996" xlink:href="#m000353d9fb" y="512.64"/>
      </g>
     </g>
    </g>
    <g id="xtick_28">
     <g id="line2d_36">
      <g>
       <use style="fill:#262626;stroke:#262626;stroke-width:0.5;" x="512.029901" xlink:href="#m000353d9fb" y="512.64"/>
      </g>
     </g>
    </g>
    <g id="xtick_29">
     <g id="line2d_37">
      <g>
       <use style="fill:#262626;stroke:#262626;stroke-width:0.5;" x="529.804081" xlink:href="#m000353d9fb" y="512.64"/>
      </g>
     </g>
    </g>
    <g id="xtick_30">
     <g id="line2d_38">
      <g>
       <use style="fill:#262626;stroke:#262626;stroke-width:0.5;" x="544.326645" xlink:href="#m000353d9fb" y="512.64"/>
      </g>
     </g>
    </g>
    <g id="xtick_31">
     <g id="line2d_39">
      <g>
       <use style="fill:#262626;stroke:#262626;stroke-width:0.5;" x="556.605297" xlink:href="#m000353d9fb" y="512.64"/>
      </g>
     </g>
    </g>
    <g id="xtick_32">
     <g id="line2d_40">
      <g>
       <use style="fill:#262626;stroke:#262626;stroke-width:0.5;" x="567.241549" xlink:href="#m000353d9fb" y="512.64"/>
      </g>
     </g>
    </g>
    <g id="xtick_33">
     <g id="line2d_41">
      <g>
       <use style="fill:#262626;stroke:#262626;stroke-width:0.5;" x="576.623389" xlink:href="#m000353d9fb" y="512.64"/>
      </g>
     </g>
    </g>
    <g id="xtick_34">
     <g id="line2d_42">
      <g>
       <use style="fill:#262626;stroke:#262626;stroke-width:0.5;" x="640.227378" xlink:href="#m000353d9fb" y="512.64"/>
      </g>
     </g>
    </g>
   </g>
   <g id="matplotlib.axis_4">
    <g id="ytick_8">
     <g id="line2d_43">
      <g>
       <use style="fill:#262626;stroke:#262626;" x="90" xlink:href="#md301f3caa2" y="512.64"/>
      </g>
     </g>
     <g id="text_17">
      <!-- $\mathdefault{10^{-5}}$ -->
      <defs>
       <path d="M 4.15625 18.75 
L 13.375 19.53125 
Q 14.40625 12.796875 18.140625 9.390625 
Q 21.875 6 27.15625 6 
Q 33.5 6 37.890625 10.78125 
Q 42.28125 15.578125 42.28125 23.484375 
Q 42.28125 31 38.0625 35.34375 
Q 33.84375 39.703125 27 39.703125 
Q 22.75 39.703125 19.328125 37.765625 
Q 15.921875 35.84375 13.96875 32.765625 
L 5.71875 33.84375 
L 12.640625 70.609375 
L 48.25 70.609375 
L 48.25 62.203125 
L 19.671875 62.203125 
L 15.828125 42.96875 
Q 22.265625 47.46875 29.34375 47.46875 
Q 38.71875 47.46875 45.15625 40.96875 
Q 51.609375 34.46875 51.609375 24.265625 
Q 51.609375 14.546875 45.953125 7.46875 
Q 39.0625 -1.21875 27.15625 -1.21875 
Q 17.390625 -1.21875 11.203125 4.25 
Q 5.03125 9.71875 4.15625 18.75 
z
" id="ArialMT-35"/>
      </defs>
      <g style="fill:#262626;" transform="translate(57.2 517.74625)scale(0.1 -0.1)">
       <use transform="translate(0 0.879688)" xlink:href="#ArialMT-31"/>
       <use transform="translate(55.615234 0.879688)" xlink:href="#ArialMT-30"/>
       <use transform="translate(112.972813 70.573438)scale(0.7)" xlink:href="#ArialMT-2212"/>
       <use transform="translate(153.851719 70.573438)scale(0.7)" xlink:href="#ArialMT-35"/>
      </g>
     </g>
    </g>
    <g id="ytick_9">
     <g id="line2d_44">
      <g>
       <use style="fill:#262626;stroke:#262626;" x="90" xlink:href="#md301f3caa2" y="465.767507"/>
      </g>
     </g>
     <g id="text_18">
      <!-- $\mathdefault{10^{-4}}$ -->
      <g style="fill:#262626;" transform="translate(57.2 470.873757)scale(0.1 -0.1)">
       <use transform="translate(0 0.201563)" xlink:href="#ArialMT-31"/>
       <use transform="translate(55.615234 0.201563)" xlink:href="#ArialMT-30"/>
       <use transform="translate(112.972813 69.895313)scale(0.7)" xlink:href="#ArialMT-2212"/>
       <use transform="translate(153.851719 69.895313)scale(0.7)" xlink:href="#ArialMT-34"/>
      </g>
     </g>
    </g>
    <g id="ytick_10">
     <g id="line2d_45">
      <g>
       <use style="fill:#262626;stroke:#262626;" x="90" xlink:href="#md301f3caa2" y="418.895013"/>
      </g>
     </g>
     <g id="text_19">
      <!-- $\mathdefault{10^{-3}}$ -->
      <g style="fill:#262626;" transform="translate(57.2 424.051263)scale(0.1 -0.1)">
       <use transform="translate(0 0.99375)" xlink:href="#ArialMT-31"/>
       <use transform="translate(55.615234 0.99375)" xlink:href="#ArialMT-30"/>
       <use transform="translate(112.972813 70.6875)scale(0.7)" xlink:href="#ArialMT-2212"/>
       <use transform="translate(153.851719 70.6875)scale(0.7)" xlink:href="#ArialMT-33"/>
      </g>
     </g>
    </g>
    <g id="ytick_11">
     <g id="line2d_46">
      <g>
       <use style="fill:#262626;stroke:#262626;" x="90" xlink:href="#md301f3caa2" y="372.02252"/>
      </g>
     </g>
     <g id="text_20">
      <!-- $\mathdefault{10^{-2}}$ -->
      <g style="fill:#262626;" transform="translate(57.2 377.17877)scale(0.1 -0.1)">
       <use transform="translate(0 0.99375)" xlink:href="#ArialMT-31"/>
       <use transform="translate(55.615234 0.99375)" xlink:href="#ArialMT-30"/>
       <use transform="translate(112.972813 70.6875)scale(0.7)" xlink:href="#ArialMT-2212"/>
       <use transform="translate(153.851719 70.6875)scale(0.7)" xlink:href="#ArialMT-32"/>
      </g>
     </g>
    </g>
    <g id="ytick_12">
     <g id="line2d_47">
      <g>
       <use style="fill:#262626;stroke:#262626;" x="90" xlink:href="#md301f3caa2" y="325.150026"/>
      </g>
     </g>
     <g id="text_21">
      <!-- $\mathdefault{10^{-1}}$ -->
      <g style="fill:#262626;" transform="translate(57.2 330.306276)scale(0.1 -0.1)">
       <use transform="translate(0 0.99375)" xlink:href="#ArialMT-31"/>
       <use transform="translate(55.615234 0.99375)" xlink:href="#ArialMT-30"/>
       <use transform="translate(112.972813 70.6875)scale(0.7)" xlink:href="#ArialMT-2212"/>
       <use transform="translate(153.851719 70.6875)scale(0.7)" xlink:href="#ArialMT-31"/>
      </g>
     </g>
    </g>
    <g id="ytick_13">
     <g id="line2d_48">
      <defs>
       <path d="M 0 0 
L -3 0 
" id="m22b9aa86aa" style="stroke:#262626;stroke-width:0.5;"/>
      </defs>
      <g>
       <use style="fill:#262626;stroke:#262626;stroke-width:0.5;" x="90" xlink:href="#m22b9aa86aa" y="498.529974"/>
      </g>
     </g>
    </g>
    <g id="ytick_14">
     <g id="line2d_49">
      <g>
       <use style="fill:#262626;stroke:#262626;stroke-width:0.5;" x="90" xlink:href="#m22b9aa86aa" y="490.276137"/>
      </g>
     </g>
    </g>
    <g id="ytick_15">
     <g id="line2d_50">
      <g>
       <use style="fill:#262626;stroke:#262626;stroke-width:0.5;" x="90" xlink:href="#m22b9aa86aa" y="484.419947"/>
      </g>
     </g>
    </g>
    <g id="ytick_16">
     <g id="line2d_51">
      <g>
       <use style="fill:#262626;stroke:#262626;stroke-width:0.5;" x="90" xlink:href="#m22b9aa86aa" y="479.877533"/>
      </g>
     </g>
    </g>
    <g id="ytick_17">
     <g id="line2d_52">
      <g>
       <use style="fill:#262626;stroke:#262626;stroke-width:0.5;" x="90" xlink:href="#m22b9aa86aa" y="476.166111"/>
      </g>
     </g>
    </g>
    <g id="ytick_18">
     <g id="line2d_53">
      <g>
       <use style="fill:#262626;stroke:#262626;stroke-width:0.5;" x="90" xlink:href="#m22b9aa86aa" y="473.028148"/>
      </g>
     </g>
    </g>
    <g id="ytick_19">
     <g id="line2d_54">
      <g>
       <use style="fill:#262626;stroke:#262626;stroke-width:0.5;" x="90" xlink:href="#m22b9aa86aa" y="470.309921"/>
      </g>
     </g>
    </g>
    <g id="ytick_20">
     <g id="line2d_55">
      <g>
       <use style="fill:#262626;stroke:#262626;stroke-width:0.5;" x="90" xlink:href="#m22b9aa86aa" y="467.912274"/>
      </g>
     </g>
    </g>
    <g id="ytick_21">
     <g id="line2d_56">
      <g>
       <use style="fill:#262626;stroke:#262626;stroke-width:0.5;" x="90" xlink:href="#m22b9aa86aa" y="451.65748"/>
      </g>
     </g>
    </g>
    <g id="ytick_22">
     <g id="line2d_57">
      <g>
       <use style="fill:#262626;stroke:#262626;stroke-width:0.5;" x="90" xlink:href="#m22b9aa86aa" y="443.403644"/>
      </g>
     </g>
    </g>
    <g id="ytick_23">
     <g id="line2d_58">
      <g>
       <use style="fill:#262626;stroke:#262626;stroke-width:0.5;" x="90" xlink:href="#m22b9aa86aa" y="437.547454"/>
      </g>
     </g>
    </g>
    <g id="ytick_24">
     <g id="line2d_59">
      <g>
       <use style="fill:#262626;stroke:#262626;stroke-width:0.5;" x="90" xlink:href="#m22b9aa86aa" y="433.00504"/>
      </g>
     </g>
    </g>
    <g id="ytick_25">
     <g id="line2d_60">
      <g>
       <use style="fill:#262626;stroke:#262626;stroke-width:0.5;" x="90" xlink:href="#m22b9aa86aa" y="429.293617"/>
      </g>
     </g>
    </g>
    <g id="ytick_26">
     <g id="line2d_61">
      <g>
       <use style="fill:#262626;stroke:#262626;stroke-width:0.5;" x="90" xlink:href="#m22b9aa86aa" y="426.155654"/>
      </g>
     </g>
    </g>
    <g id="ytick_27">
     <g id="line2d_62">
      <g>
       <use style="fill:#262626;stroke:#262626;stroke-width:0.5;" x="90" xlink:href="#m22b9aa86aa" y="423.437427"/>
      </g>
     </g>
    </g>
    <g id="ytick_28">
     <g id="line2d_63">
      <g>
       <use style="fill:#262626;stroke:#262626;stroke-width:0.5;" x="90" xlink:href="#m22b9aa86aa" y="421.039781"/>
      </g>
     </g>
    </g>
    <g id="ytick_29">
     <g id="line2d_64">
      <g>
       <use style="fill:#262626;stroke:#262626;stroke-width:0.5;" x="90" xlink:href="#m22b9aa86aa" y="404.784987"/>
      </g>
     </g>
    </g>
    <g id="ytick_30">
     <g id="line2d_65">
      <g>
       <use style="fill:#262626;stroke:#262626;stroke-width:0.5;" x="90" xlink:href="#m22b9aa86aa" y="396.53115"/>
      </g>
     </g>
    </g>
    <g id="ytick_31">
     <g id="line2d_66">
      <g>
       <use style="fill:#262626;stroke:#262626;stroke-width:0.5;" x="90" xlink:href="#m22b9aa86aa" y="390.67496"/>
      </g>
     </g>
    </g>
    <g id="ytick_32">
     <g id="line2d_67">
      <g>
       <use style="fill:#262626;stroke:#262626;stroke-width:0.5;" x="90" xlink:href="#m22b9aa86aa" y="386.132546"/>
      </g>
     </g>
    </g>
    <g id="ytick_33">
     <g id="line2d_68">
      <g>
       <use style="fill:#262626;stroke:#262626;stroke-width:0.5;" x="90" xlink:href="#m22b9aa86aa" y="382.421124"/>
      </g>
     </g>
    </g>
    <g id="ytick_34">
     <g id="line2d_69">
      <g>
       <use style="fill:#262626;stroke:#262626;stroke-width:0.5;" x="90" xlink:href="#m22b9aa86aa" y="379.283161"/>
      </g>
     </g>
    </g>
    <g id="ytick_35">
     <g id="line2d_70">
      <g>
       <use style="fill:#262626;stroke:#262626;stroke-width:0.5;" x="90" xlink:href="#m22b9aa86aa" y="376.564934"/>
      </g>
     </g>
    </g>
    <g id="ytick_36">
     <g id="line2d_71">
      <g>
       <use style="fill:#262626;stroke:#262626;stroke-width:0.5;" x="90" xlink:href="#m22b9aa86aa" y="374.167288"/>
      </g>
     </g>
    </g>
    <g id="ytick_37">
     <g id="line2d_72">
      <g>
       <use style="fill:#262626;stroke:#262626;stroke-width:0.5;" x="90" xlink:href="#m22b9aa86aa" y="357.912493"/>
      </g>
     </g>
    </g>
    <g id="ytick_38">
     <g id="line2d_73">
      <g>
       <use style="fill:#262626;stroke:#262626;stroke-width:0.5;" x="90" xlink:href="#m22b9aa86aa" y="349.658657"/>
      </g>
     </g>
    </g>
    <g id="ytick_39">
     <g id="line2d_74">
      <g>
       <use style="fill:#262626;stroke:#262626;stroke-width:0.5;" x="90" xlink:href="#m22b9aa86aa" y="343.802467"/>
      </g>
     </g>
    </g>
    <g id="ytick_40">
     <g id="line2d_75">
      <g>
       <use style="fill:#262626;stroke:#262626;stroke-width:0.5;" x="90" xlink:href="#m22b9aa86aa" y="339.260053"/>
      </g>
     </g>
    </g>
    <g id="ytick_41">
     <g id="line2d_76">
      <g>
       <use style="fill:#262626;stroke:#262626;stroke-width:0.5;" x="90" xlink:href="#m22b9aa86aa" y="335.548631"/>
      </g>
     </g>
    </g>
    <g id="ytick_42">
     <g id="line2d_77">
      <g>
       <use style="fill:#262626;stroke:#262626;stroke-width:0.5;" x="90" xlink:href="#m22b9aa86aa" y="332.410668"/>
      </g>
     </g>
    </g>
    <g id="ytick_43">
     <g id="line2d_78">
      <g>
       <use style="fill:#262626;stroke:#262626;stroke-width:0.5;" x="90" xlink:href="#m22b9aa86aa" y="329.69244"/>
      </g>
     </g>
    </g>
    <g id="ytick_44">
     <g id="line2d_79">
      <g>
       <use style="fill:#262626;stroke:#262626;stroke-width:0.5;" x="90" xlink:href="#m22b9aa86aa" y="327.294794"/>
      </g>
     </g>
    </g>
    <g id="ytick_45">
     <g id="line2d_80">
      <g>
       <use style="fill:#262626;stroke:#262626;stroke-width:0.5;" x="90" xlink:href="#m22b9aa86aa" y="311.04"/>
      </g>
     </g>
    </g>
   </g>
   <g id="line2d_81">
    <path clip-path="url(#pb0e126dce2)" d="M -1 366.618908 
L 151.095164 366.60086 
L 206.306812 412.809926 
L 238.603556 395.726109 
L 261.518461 418.445713 
L 279.292642 402.775043 
L 293.815205 334.079429 
L 306.093857 394.352122 
L 316.730109 404.261998 
L 326.111949 419.107788 
L 334.50429 413.985269 
L 342.096086 420.248974 
L 349.026853 395.560278 
L 355.402541 424.343593 
L 361.305505 416.388215 
L 366.801034 416.263175 
L 371.941758 413.02743 
L 376.770725 406.034134 
L 381.323597 372.154674 
L 385.630245 407.107009 
L 389.715939 406.447898 
L 393.602249 401.16633 
L 397.307735 394.358401 
L 400.848476 382.635946 
L 404.238502 348.985406 
L 407.490119 373.141877 
L 410.614189 390.473924 
L 413.620341 400.653931 
L 416.517154 406.966681 
L 419.312303 415.496251 
L 422.012683 410.776597 
L 424.624509 414.047736 
L 427.153406 415.272557 
L 429.604479 417.721457 
L 431.982374 417.867977 
L 434.291335 411.034004 
L 436.535246 393.222782 
L 438.717672 396.40705 
L 440.841893 414.931311 
L 442.910933 417.344005 
L 444.927587 411.859338 
L 446.894442 402.793135 
L 448.813898 382.994607 
L 450.688186 368.456564 
L 452.519383 396.899463 
L 454.309426 408.148861 
L 456.060125 416.366533 
L 457.773171 425.047698 
L 459.45015 442.727209 
L 461.09255 389.624141 
L 462.701768 422.938845 
L 465.825838 437.100364 
L 467.343094 458.42085 
L 468.83199 438.766728 
L 470.293564 381.037815 
L 471.728802 406.692744 
L 473.138637 417.224674 
L 474.523951 422.91076 
L 475.885584 427.439192 
L 477.224331 430.808552 
L 478.540949 444.92151 
L 479.836157 418.314822 
L 481.110642 426.591733 
L 482.365055 430.947851 
L 483.600019 431.682533 
L 484.816127 431.783721 
L 486.013948 430.215539 
L 487.194022 441.999255 
L 488.356869 433.761912 
L 489.502983 434.777987 
L 490.63284 432.140033 
L 491.746894 429.23008 
L 492.845581 421.338033 
L 493.92932 398.664028 
L 494.998512 401.382462 
L 496.053541 420.211965 
L 497.094779 428.431239 
L 498.122582 431.112696 
L 499.137291 430.746607 
L 500.139235 433.940891 
L 501.128734 410.360782 
L 502.10609 446.77629 
L 503.0716 443.254256 
L 504.025546 441.483801 
L 504.968203 437.388217 
L 505.899834 454.388074 
L 506.820695 459.711281 
L 507.731032 429.380715 
L 508.631082 436.290284 
L 509.521075 438.000391 
L 510.401234 425.483606 
L 511.271773 426.903384 
L 512.132901 439.443269 
L 512.984819 432.67365 
L 513.827722 438.078621 
L 514.661799 463.741169 
L 515.487232 461.557809 
L 516.304198 464.483985 
L 517.112871 463.027511 
L 517.913416 472.758292 
L 518.705996 440.753384 
L 519.490766 435.116571 
L 520.26788 443.599736 
L 521.037486 449.219862 
L 521.799727 452.598353 
L 522.554743 450.94885 
L 523.302669 452.98486 
L 524.043638 454.31033 
L 524.777778 448.497951 
L 525.505212 449.625256 
L 526.226064 452.299937 
L 526.940451 452.282783 
L 527.648487 453.652881 
L 528.350285 450.042756 
L 529.045954 447.33748 
L 529.7356 449.684267 
L 530.419326 451.521769 
L 531.097232 457.169343 
L 531.769418 453.727531 
L 533.097009 461.870588 
L 533.752597 456.939616 
L 534.402834 446.794395 
L 535.047806 453.041148 
L 535.687597 454.635498 
L 536.951966 458.675359 
L 537.576703 464.131869 
L 538.196578 461.204943 
L 538.811667 432.893756 
L 539.422042 449.180588 
L 540.027776 451.837956 
L 540.628938 452.753851 
L 541.225596 457.58005 
L 541.817819 454.50437 
L 542.989216 460.201346 
L 543.568517 455.250968 
L 544.143636 455.306179 
L 544.714632 457.88505 
L 545.281563 456.607133 
L 545.844488 461.675561 
L 546.403463 459.760897 
L 546.958543 458.66961 
L 547.509781 446.94858 
L 548.05723 459.141051 
L 548.600942 456.997251 
L 549.140969 457.937369 
L 549.677358 456.821494 
L 550.21016 459.682393 
L 550.739422 458.125657 
L 551.78751 461.958994 
L 552.306428 460.918969 
L 552.821987 457.398271 
L 553.33423 465.371021 
L 553.8432 459.7778 
L 554.348939 456.955186 
L 555.350884 460.565114 
L 555.847169 458.043715 
L 556.340382 459.876144 
L 556.830559 465.638562 
L 557.317739 465.349384 
L 557.801956 463.969999 
L 558.283248 460.397926 
L 558.76165 464.09819 
L 559.237195 459.346936 
L 560.179852 461.788354 
L 560.647029 464.680276 
L 561.111483 464.228797 
L 561.573244 462.707536 
L 562.032344 467.140545 
L 562.488812 457.9485 
L 562.94268 461.097821 
L 563.393976 461.661952 
L 563.84273 459.563498 
L 564.28897 464.462616 
L 564.732723 461.821516 
L 565.174019 461.679823 
L 565.612882 463.625002 
L 566.049341 466.897248 
L 566.483422 465.82481 
L 566.91515 464.002036 
L 567.34455 462.787398 
L 567.771648 459.628701 
L 568.196468 460.832667 
L 568.619034 463.334201 
L 569.039371 465.059491 
L 569.457501 464.367249 
L 569.873447 458.50164 
L 570.287233 463.58124 
L 570.69888 462.540403 
L 571.108411 463.314065 
L 571.515847 466.187008 
L 572.32452 462.832536 
L 572.725798 467.937867 
L 573.125065 462.681096 
L 573.52234 466.079225 
L 573.917644 466.26712 
L 574.310996 464.789288 
L 574.702415 467.046257 
L 575.091919 463.517693 
L 575.479529 467.138332 
L 575.865261 467.898363 
L 576.249135 465.91793 
L 576.631167 466.429849 
L 577.011376 470.685874 
L 577.389778 465.847219 
L 577.766391 468.572446 
L 578.141232 466.038053 
L 578.514318 468.823865 
L 578.885664 467.304483 
L 579.623202 468.45495 
L 579.989426 467.988022 
L 580.353974 468.559038 
L 580.716861 466.067433 
L 581.078102 473.154821 
L 581.437713 469.402971 
L 581.795707 469.379622 
L 582.152099 466.73255 
L 582.860136 466.745802 
L 583.211808 476.131731 
L 583.561934 465.697862 
L 583.910528 467.069522 
L 584.257603 476.021425 
L 584.603172 471.103035 
L 584.947248 464.479042 
L 585.289845 465.817747 
L 585.630974 464.287712 
L 585.970649 466.908935 
L 586.308881 467.517607 
L 586.645683 468.490175 
L 586.981067 475.631342 
L 587.315045 471.237453 
L 587.647628 469.379637 
L 587.978828 468.600725 
L 588.308657 469.295865 
L 588.637126 468.36104 
L 588.964246 476.373578 
L 589.290028 466.959621 
L 589.614483 474.06584 
L 590.259454 471.996614 
L 590.579992 478.149897 
L 591.217224 467.764361 
L 591.849399 477.502026 
L 592.163614 469.48765 
L 592.476596 465.304162 
L 592.788352 466.957032 
L 593.098892 476.334264 
L 593.408227 475.071433 
L 593.716365 468.613895 
L 594.023315 478.157659 
L 594.329088 476.454137 
L 594.633691 473.955988 
L 594.937133 476.423191 
L 595.239424 468.205267 
L 595.540572 470.7091 
L 595.840586 468.931101 
L 596.139474 470.530809 
L 596.437245 477.008256 
L 597.029467 469.45622 
L 597.323936 474.581739 
L 597.617319 474.91437 
L 597.909626 476.74967 
L 598.200864 467.360118 
L 598.491042 475.87269 
L 598.780166 469.346364 
L 599.068244 472.384027 
L 599.355284 469.20574 
L 599.641294 471.424559 
L 599.92628 466.98509 
L 600.21025 473.697388 
L 600.493212 475.172628 
L 600.775172 474.985114 
L 601.056137 472.865801 
L 601.336115 469.008654 
L 601.615112 471.665067 
L 601.893135 468.299572 
L 602.170191 473.927558 
L 602.446287 470.027605 
L 602.721429 472.933373 
L 603.268878 470.033476 
L 603.541199 471.65079 
L 603.812591 476.695665 
L 604.083062 476.181351 
L 604.352617 472.77256 
L 604.621264 475.446506 
L 604.889007 473.423382 
L 605.155853 477.158965 
L 605.421809 470.459638 
L 605.686879 473.454039 
L 605.95107 466.509518 
L 606.214388 474.503265 
L 606.476838 476.34639 
L 606.738427 474.686815 
L 606.999159 473.962447 
L 607.25904 478.865925 
L 607.518076 471.260084 
L 607.776273 473.419905 
L 608.033635 473.872118 
L 608.290169 468.907724 
L 608.545879 479.807204 
L 608.80077 468.657703 
L 609.054849 475.535012 
L 609.308119 469.256109 
L 609.560587 471.426305 
L 609.812258 470.927335 
L 610.313225 481.310042 
L 610.562532 479.432235 
L 610.811062 468.448589 
L 611.058818 474.169933 
L 611.305806 466.3483 
L 611.797496 485.242424 
L 612.042208 474.046149 
L 612.28617 476.146532 
L 612.529387 469.662583 
L 612.771864 484.231125 
L 613.254614 471.938776 
L 613.494897 475.022996 
L 613.734457 471.767172 
L 614.211426 480.548999 
L 614.448843 487.90708 
L 614.685555 476.354417 
L 614.921566 483.892932 
L 615.15688 470.54855 
L 615.3915 472.799603 
L 615.625431 473.476171 
L 615.858678 472.758615 
L 616.091243 490.98295 
L 616.323131 471.76739 
L 616.554347 470.988713 
L 617.014773 471.391553 
L 617.243992 480.133133 
L 617.472553 470.801819 
L 617.700461 475.507599 
L 617.927718 475.995062 
L 618.154329 476.052077 
L 618.380296 472.730257 
L 618.605625 478.011757 
L 618.830318 477.098416 
L 619.054379 480.040394 
L 619.500618 475.786097 
L 619.722804 475.602971 
L 619.944372 481.483507 
L 620.165325 472.681281 
L 620.385667 476.044862 
L 620.824531 469.796793 
L 621.043059 478.119409 
L 621.26099 471.116618 
L 621.69507 491.540973 
L 621.911227 479.067364 
L 622.126798 473.645181 
L 622.341787 477.833711 
L 622.556198 474.788263 
L 622.770034 478.184757 
L 622.983296 473.434683 
L 623.408116 484.508614 
L 623.61968 474.153282 
L 623.830683 489.599774 
L 624.041128 481.449769 
L 624.251019 483.039839 
L 624.460358 475.859011 
L 624.669149 479.297928 
L 624.877394 487.338074 
L 625.085096 481.269076 
L 625.292257 486.790334 
L 625.498881 468.102702 
L 625.910528 483.75311 
L 626.115557 469.501298 
L 626.320059 475.417118 
L 626.524038 476.885157 
L 626.727495 474.848822 
L 626.930435 471.168749 
L 627.132858 489.492439 
L 627.536168 471.217757 
L 627.73706 472.027217 
L 627.937446 479.043249 
L 628.13733 472.981886 
L 628.336713 485.844602 
L 628.535599 481.238672 
L 628.733989 479.811734 
L 628.931886 473.521558 
L 629.129293 472.641996 
L 629.326211 476.112457 
L 629.522644 476.100394 
L 629.718594 482.301044 
L 629.914063 475.129269 
L 630.109054 479.152762 
L 630.303568 474.831077 
L 630.497608 479.675958 
L 630.691177 472.956708 
L 630.884277 472.900888 
L 631.07691 474.639112 
L 631.460783 472.745626 
L 631.652028 478.123537 
L 631.842815 475.907796 
L 632.033146 476.386815 
L 632.223024 484.619362 
L 632.97804 468.241182 
L 633.165681 466.052874 
L 633.352881 474.847871 
L 633.539642 472.81843 
L 633.725966 476.881777 
L 633.911856 469.936727 
L 634.097312 474.834958 
L 634.282338 471.259344 
L 634.651105 484.84987 
L 634.83485 474.258671 
L 635.018173 473.027407 
L 635.201074 473.223567 
L 635.383557 484.544344 
L 635.565622 471.758631 
L 635.747272 475.81265 
L 635.928509 468.469998 
L 636.469759 487.312341 
L 636.828559 471.171604 
L 637.007355 469.012914 
L 637.185751 469.050119 
L 637.363748 473.713809 
L 637.541348 470.798884 
L 637.718553 473.988601 
L 637.895364 468.558373 
L 638.071784 482.564998 
L 638.247814 469.744218 
L 638.598712 477.706436 
L 638.94807 471.773908 
L 639.122176 478.507482 
L 639.295903 489.667397 
L 639.469251 473.110815 
L 639.642223 471.294366 
L 639.81482 476.575978 
L 639.987044 474.000561 
L 640.158897 480.247945 
L 640.330379 468.438669 
L 640.501493 484.23569 
L 640.67224 482.712616 
L 640.842622 471.576755 
L 641.012641 481.633186 
L 641.182297 480.666991 
L 641.351593 491.169235 
L 641.520529 473.283084 
L 641.857331 481.244941 
L 642.0252 472.555332 
L 642.192715 481.854434 
L 642.359879 468.858685 
L 642.526693 476.751038 
L 642.693158 477.527343 
L 642.859276 473.890251 
L 643.025049 483.694719 
L 643.190477 476.030048 
L 643.355562 483.95163 
L 643.520306 479.202212 
L 643.684709 481.227084 
L 643.848774 479.208926 
L 644.012502 475.65903 
L 644.175894 485.370535 
L 644.338952 479.400677 
L 644.501676 485.560801 
L 644.664069 473.095551 
L 644.826131 478.001125 
L 644.987864 479.333238 
L 645.14927 478.059326 
L 645.310349 481.875626 
L 645.471103 477.960082 
L 645.631533 488.34618 
L 645.791641 474.14151 
L 645.951427 481.643171 
L 646.110894 480.175409 
L 646.270042 475.171737 
L 646.428873 474.516382 
L 646.587387 478.464942 
L 646.745587 479.234443 
L 646.903473 478.932176 
L 647.061047 480.197077 
L 647.21831 475.145667 
L 647.375263 477.084155 
L 647.531907 472.962533 
L 647.688244 478.380097 
L 647.844274 476.155258 
L 647.844274 476.155258 
" style="fill:none;stroke:#b22222;stroke-linecap:round;stroke-width:1.75;"/>
   </g>
   <g id="patch_6">
    <path d="M 90 512.64 
L 90 311.04 
" style="fill:none;stroke:#262626;stroke-linecap:square;stroke-linejoin:miter;stroke-width:1.25;"/>
   </g>
   <g id="patch_7">
    <path d="M 90 512.64 
L 648 512.64 
" style="fill:none;stroke:#262626;stroke-linecap:square;stroke-linejoin:miter;stroke-width:1.25;"/>
   </g>
  </g>
 </g>
 <defs>
  <clipPath id="p44f6fa2a19">
   <rect height="201.6" width="558" x="90" y="69.12"/>
  </clipPath>
  <clipPath id="pb0e126dce2">
   <rect height="201.6" width="558" x="90" y="311.04"/>
  </clipPath>
 </defs>
</svg>
