<?xml version="1.0" encoding="utf-8" standalone="no"?>
<!DOCTYPE svg PUBLIC "-//W3C//DTD SVG 1.1//EN"
  "http://www.w3.org/Graphics/SVG/1.1/DTD/svg11.dtd">
<!-- Created with matplotlib (http://matplotlib.org/) -->
<svg height="576pt" version="1.1" viewBox="0 0 720 576" width="720pt" xmlns="http://www.w3.org/2000/svg" xmlns:xlink="http://www.w3.org/1999/xlink">
 <defs>
  <style type="text/css">
*{stroke-linecap:butt;stroke-linejoin:round;}
  </style>
 </defs>
 <g id="figure_1">
  <g id="patch_1">
   <path d="M 0 576 
L 720 576 
L 720 0 
L 0 0 
z
" style="fill:#ffffff;"/>
  </g>
  <g id="axes_1">
   <g id="patch_2">
    <path d="M 90 270.72 
L 648 270.72 
L 648 69.12 
L 90 69.12 
z
" style="fill:#ffffff;"/>
   </g>
   <g id="matplotlib.axis_1">
    <g id="xtick_1">
     <g id="line2d_1">
      <defs>
       <path d="M 0 0 
L 0 6 
" id="m7a22751b8d" style="stroke:#262626;"/>
      </defs>
      <g>
       <use style="fill:#262626;stroke:#262626;" x="90" xlink:href="#m7a22751b8d" y="270.72"/>
      </g>
     </g>
     <g id="text_1">
      <!-- 0 -->
      <defs>
       <path d="M 4.15625 35.296875 
Q 4.15625 48 6.765625 55.734375 
Q 9.375 63.484375 14.515625 67.671875 
Q 19.671875 71.875 27.484375 71.875 
Q 33.25 71.875 37.59375 69.546875 
Q 41.9375 67.234375 44.765625 62.859375 
Q 47.609375 58.5 49.21875 52.21875 
Q 50.828125 45.953125 50.828125 35.296875 
Q 50.828125 22.703125 48.234375 14.96875 
Q 45.65625 7.234375 40.5 3 
Q 35.359375 -1.21875 27.484375 -1.21875 
Q 17.140625 -1.21875 11.234375 6.203125 
Q 4.15625 15.140625 4.15625 35.296875 
z
M 13.1875 35.296875 
Q 13.1875 17.671875 17.3125 11.828125 
Q 21.4375 6 27.484375 6 
Q 33.546875 6 37.671875 11.859375 
Q 41.796875 17.71875 41.796875 35.296875 
Q 41.796875 52.984375 37.671875 58.78125 
Q 33.546875 64.59375 27.390625 64.59375 
Q 21.34375 64.59375 17.71875 59.46875 
Q 13.1875 52.9375 13.1875 35.296875 
z
" id="ArialMT-30"/>
      </defs>
      <g style="fill:#262626;" transform="translate(87.219531 290.877812)scale(0.1 -0.1)">
       <use xlink:href="#ArialMT-30"/>
      </g>
     </g>
    </g>
    <g id="xtick_2">
     <g id="line2d_2">
      <g>
       <use style="fill:#262626;stroke:#262626;" x="198.984375" xlink:href="#m7a22751b8d" y="270.72"/>
      </g>
     </g>
     <g id="text_2">
      <!-- 200 -->
      <defs>
       <path d="M 50.34375 8.453125 
L 50.34375 0 
L 3.03125 0 
Q 2.9375 3.171875 4.046875 6.109375 
Q 5.859375 10.9375 9.828125 15.625 
Q 13.8125 20.3125 21.34375 26.46875 
Q 33.015625 36.03125 37.109375 41.625 
Q 41.21875 47.21875 41.21875 52.203125 
Q 41.21875 57.421875 37.46875 61 
Q 33.734375 64.59375 27.734375 64.59375 
Q 21.390625 64.59375 17.578125 60.78125 
Q 13.765625 56.984375 13.71875 50.25 
L 4.6875 51.171875 
Q 5.609375 61.28125 11.65625 66.578125 
Q 17.71875 71.875 27.9375 71.875 
Q 38.234375 71.875 44.234375 66.15625 
Q 50.25 60.453125 50.25 52 
Q 50.25 47.703125 48.484375 43.546875 
Q 46.734375 39.40625 42.65625 34.8125 
Q 38.578125 30.21875 29.109375 22.21875 
Q 21.1875 15.578125 18.9375 13.203125 
Q 16.703125 10.84375 15.234375 8.453125 
z
" id="ArialMT-32"/>
      </defs>
      <g style="fill:#262626;" transform="translate(190.642969 290.877812)scale(0.1 -0.1)">
       <use xlink:href="#ArialMT-32"/>
       <use x="55.615234" xlink:href="#ArialMT-30"/>
       <use x="111.230469" xlink:href="#ArialMT-30"/>
      </g>
     </g>
    </g>
    <g id="xtick_3">
     <g id="line2d_3">
      <g>
       <use style="fill:#262626;stroke:#262626;" x="307.96875" xlink:href="#m7a22751b8d" y="270.72"/>
      </g>
     </g>
     <g id="text_3">
      <!-- 400 -->
      <defs>
       <path d="M 32.328125 0 
L 32.328125 17.140625 
L 1.265625 17.140625 
L 1.265625 25.203125 
L 33.9375 71.578125 
L 41.109375 71.578125 
L 41.109375 25.203125 
L 50.78125 25.203125 
L 50.78125 17.140625 
L 41.109375 17.140625 
L 41.109375 0 
z
M 32.328125 25.203125 
L 32.328125 57.46875 
L 9.90625 25.203125 
z
" id="ArialMT-34"/>
      </defs>
      <g style="fill:#262626;" transform="translate(299.627344 290.877812)scale(0.1 -0.1)">
       <use xlink:href="#ArialMT-34"/>
       <use x="55.615234" xlink:href="#ArialMT-30"/>
       <use x="111.230469" xlink:href="#ArialMT-30"/>
      </g>
     </g>
    </g>
    <g id="xtick_4">
     <g id="line2d_4">
      <g>
       <use style="fill:#262626;stroke:#262626;" x="416.953125" xlink:href="#m7a22751b8d" y="270.72"/>
      </g>
     </g>
     <g id="text_4">
      <!-- 600 -->
      <defs>
       <path d="M 49.75 54.046875 
L 41.015625 53.375 
Q 39.84375 58.546875 37.703125 60.890625 
Q 34.125 64.65625 28.90625 64.65625 
Q 24.703125 64.65625 21.53125 62.3125 
Q 17.390625 59.28125 14.984375 53.46875 
Q 12.59375 47.65625 12.5 36.921875 
Q 15.671875 41.75 20.265625 44.09375 
Q 24.859375 46.4375 29.890625 46.4375 
Q 38.671875 46.4375 44.84375 39.96875 
Q 51.03125 33.5 51.03125 23.25 
Q 51.03125 16.5 48.125 10.71875 
Q 45.21875 4.9375 40.140625 1.859375 
Q 35.0625 -1.21875 28.609375 -1.21875 
Q 17.625 -1.21875 10.6875 6.859375 
Q 3.765625 14.9375 3.765625 33.5 
Q 3.765625 54.25 11.421875 63.671875 
Q 18.109375 71.875 29.4375 71.875 
Q 37.890625 71.875 43.28125 67.140625 
Q 48.6875 62.40625 49.75 54.046875 
z
M 13.875 23.1875 
Q 13.875 18.65625 15.796875 14.5 
Q 17.71875 10.359375 21.1875 8.171875 
Q 24.65625 6 28.46875 6 
Q 34.03125 6 38.03125 10.484375 
Q 42.046875 14.984375 42.046875 22.703125 
Q 42.046875 30.125 38.078125 34.390625 
Q 34.125 38.671875 28.125 38.671875 
Q 22.171875 38.671875 18.015625 34.390625 
Q 13.875 30.125 13.875 23.1875 
z
" id="ArialMT-36"/>
      </defs>
      <g style="fill:#262626;" transform="translate(408.611719 290.877812)scale(0.1 -0.1)">
       <use xlink:href="#ArialMT-36"/>
       <use x="55.615234" xlink:href="#ArialMT-30"/>
       <use x="111.230469" xlink:href="#ArialMT-30"/>
      </g>
     </g>
    </g>
    <g id="xtick_5">
     <g id="line2d_5">
      <g>
       <use style="fill:#262626;stroke:#262626;" x="525.9375" xlink:href="#m7a22751b8d" y="270.72"/>
      </g>
     </g>
     <g id="text_5">
      <!-- 800 -->
      <defs>
       <path d="M 17.671875 38.8125 
Q 12.203125 40.828125 9.5625 44.53125 
Q 6.9375 48.25 6.9375 53.421875 
Q 6.9375 61.234375 12.546875 66.546875 
Q 18.171875 71.875 27.484375 71.875 
Q 36.859375 71.875 42.578125 66.421875 
Q 48.296875 60.984375 48.296875 53.171875 
Q 48.296875 48.1875 45.671875 44.5 
Q 43.0625 40.828125 37.75 38.8125 
Q 44.34375 36.671875 47.78125 31.875 
Q 51.21875 27.09375 51.21875 20.453125 
Q 51.21875 11.28125 44.71875 5.03125 
Q 38.234375 -1.21875 27.640625 -1.21875 
Q 17.046875 -1.21875 10.546875 5.046875 
Q 4.046875 11.328125 4.046875 20.703125 
Q 4.046875 27.6875 7.59375 32.390625 
Q 11.140625 37.109375 17.671875 38.8125 
z
M 15.921875 53.71875 
Q 15.921875 48.640625 19.1875 45.40625 
Q 22.46875 42.1875 27.6875 42.1875 
Q 32.765625 42.1875 36.015625 45.375 
Q 39.265625 48.578125 39.265625 53.21875 
Q 39.265625 58.0625 35.90625 61.359375 
Q 32.5625 64.65625 27.59375 64.65625 
Q 22.5625 64.65625 19.234375 61.421875 
Q 15.921875 58.203125 15.921875 53.71875 
z
M 13.09375 20.65625 
Q 13.09375 16.890625 14.875 13.375 
Q 16.65625 9.859375 20.171875 7.921875 
Q 23.6875 6 27.734375 6 
Q 34.03125 6 38.125 10.046875 
Q 42.234375 14.109375 42.234375 20.359375 
Q 42.234375 26.703125 38.015625 30.859375 
Q 33.796875 35.015625 27.4375 35.015625 
Q 21.234375 35.015625 17.15625 30.90625 
Q 13.09375 26.8125 13.09375 20.65625 
z
" id="ArialMT-38"/>
      </defs>
      <g style="fill:#262626;" transform="translate(517.596094 290.877812)scale(0.1 -0.1)">
       <use xlink:href="#ArialMT-38"/>
       <use x="55.615234" xlink:href="#ArialMT-30"/>
       <use x="111.230469" xlink:href="#ArialMT-30"/>
      </g>
     </g>
    </g>
    <g id="xtick_6">
     <g id="line2d_6">
      <g>
       <use style="fill:#262626;stroke:#262626;" x="634.921875" xlink:href="#m7a22751b8d" y="270.72"/>
      </g>
     </g>
     <g id="text_6">
      <!-- 1000 -->
      <defs>
       <path d="M 37.25 0 
L 28.46875 0 
L 28.46875 56 
Q 25.296875 52.984375 20.140625 49.953125 
Q 14.984375 46.921875 10.890625 45.40625 
L 10.890625 53.90625 
Q 18.265625 57.375 23.78125 62.296875 
Q 29.296875 67.234375 31.59375 71.875 
L 37.25 71.875 
z
" id="ArialMT-31"/>
      </defs>
      <g style="fill:#262626;" transform="translate(623.8 290.877812)scale(0.1 -0.1)">
       <use xlink:href="#ArialMT-31"/>
       <use x="55.615234" xlink:href="#ArialMT-30"/>
       <use x="111.230469" xlink:href="#ArialMT-30"/>
       <use x="166.845703" xlink:href="#ArialMT-30"/>
      </g>
     </g>
    </g>
   </g>
   <g id="matplotlib.axis_2">
    <g id="ytick_1">
     <g id="line2d_7">
      <defs>
       <path d="M 0 0 
L -6 0 
" id="mcbb8668870" style="stroke:#262626;"/>
      </defs>
      <g>
       <use style="fill:#262626;stroke:#262626;" x="90" xlink:href="#mcbb8668870" y="270.72"/>
      </g>
     </g>
     <g id="text_7">
      <!-- −0.6 -->
      <defs>
       <path d="M 52.828125 31.203125 
L 5.5625 31.203125 
L 5.5625 39.40625 
L 52.828125 39.40625 
z
" id="ArialMT-2212"/>
       <path d="M 9.078125 0 
L 9.078125 10.015625 
L 19.09375 10.015625 
L 19.09375 0 
z
" id="ArialMT-2e"/>
      </defs>
      <g style="fill:#262626;" transform="translate(57.259375 274.298906)scale(0.1 -0.1)">
       <use xlink:href="#ArialMT-2212"/>
       <use x="58.398438" xlink:href="#ArialMT-30"/>
       <use x="114.013672" xlink:href="#ArialMT-2e"/>
       <use x="141.796875" xlink:href="#ArialMT-36"/>
      </g>
     </g>
    </g>
    <g id="ytick_2">
     <g id="line2d_8">
      <g>
       <use style="fill:#262626;stroke:#262626;" x="90" xlink:href="#mcbb8668870" y="237.12"/>
      </g>
     </g>
     <g id="text_8">
      <!-- −0.4 -->
      <g style="fill:#262626;" transform="translate(57.259375 240.698906)scale(0.1 -0.1)">
       <use xlink:href="#ArialMT-2212"/>
       <use x="58.398438" xlink:href="#ArialMT-30"/>
       <use x="114.013672" xlink:href="#ArialMT-2e"/>
       <use x="141.796875" xlink:href="#ArialMT-34"/>
      </g>
     </g>
    </g>
    <g id="ytick_3">
     <g id="line2d_9">
      <g>
       <use style="fill:#262626;stroke:#262626;" x="90" xlink:href="#mcbb8668870" y="203.52"/>
      </g>
     </g>
     <g id="text_9">
      <!-- −0.2 -->
      <g style="fill:#262626;" transform="translate(57.259375 207.098906)scale(0.1 -0.1)">
       <use xlink:href="#ArialMT-2212"/>
       <use x="58.398438" xlink:href="#ArialMT-30"/>
       <use x="114.013672" xlink:href="#ArialMT-2e"/>
       <use x="141.796875" xlink:href="#ArialMT-32"/>
      </g>
     </g>
    </g>
    <g id="ytick_4">
     <g id="line2d_10">
      <g>
       <use style="fill:#262626;stroke:#262626;" x="90" xlink:href="#mcbb8668870" y="169.92"/>
      </g>
     </g>
     <g id="text_10">
      <!-- 0.0 -->
      <g style="fill:#262626;" transform="translate(63.1 173.498906)scale(0.1 -0.1)">
       <use xlink:href="#ArialMT-30"/>
       <use x="55.615234" xlink:href="#ArialMT-2e"/>
       <use x="83.398438" xlink:href="#ArialMT-30"/>
      </g>
     </g>
    </g>
    <g id="ytick_5">
     <g id="line2d_11">
      <g>
       <use style="fill:#262626;stroke:#262626;" x="90" xlink:href="#mcbb8668870" y="136.32"/>
      </g>
     </g>
     <g id="text_11">
      <!-- 0.2 -->
      <g style="fill:#262626;" transform="translate(63.1 139.898906)scale(0.1 -0.1)">
       <use xlink:href="#ArialMT-30"/>
       <use x="55.615234" xlink:href="#ArialMT-2e"/>
       <use x="83.398438" xlink:href="#ArialMT-32"/>
      </g>
     </g>
    </g>
    <g id="ytick_6">
     <g id="line2d_12">
      <g>
       <use style="fill:#262626;stroke:#262626;" x="90" xlink:href="#mcbb8668870" y="102.72"/>
      </g>
     </g>
     <g id="text_12">
      <!-- 0.4 -->
      <g style="fill:#262626;" transform="translate(63.1 106.298906)scale(0.1 -0.1)">
       <use xlink:href="#ArialMT-30"/>
       <use x="55.615234" xlink:href="#ArialMT-2e"/>
       <use x="83.398438" xlink:href="#ArialMT-34"/>
      </g>
     </g>
    </g>
    <g id="ytick_7">
     <g id="line2d_13">
      <g>
       <use style="fill:#262626;stroke:#262626;" x="90" xlink:href="#mcbb8668870" y="69.12"/>
      </g>
     </g>
     <g id="text_13">
      <!-- 0.6 -->
      <g style="fill:#262626;" transform="translate(63.1 72.698906)scale(0.1 -0.1)">
       <use xlink:href="#ArialMT-30"/>
       <use x="55.615234" xlink:href="#ArialMT-2e"/>
       <use x="83.398438" xlink:href="#ArialMT-36"/>
      </g>
     </g>
    </g>
   </g>
   <g id="line2d_14">
    <path clip-path="url(#p21cbe45810)" d="M 90 150.688799 
L 90.544922 148.571367 
L 91.634766 146.079668 
L 92.179688 145.736162 
L 92.724609 146.146318 
L 93.269531 147.351152 
L 94.359375 151.642412 
L 96.539062 162.060381 
L 97.083984 163.731768 
L 97.628906 165.044268 
L 98.173828 165.91585 
L 98.71875 166.438799 
L 99.263672 166.643877 
L 99.808594 166.438799 
L 100.353516 165.879961 
L 101.443359 164.116289 
L 101.988281 163.188311 
L 103.078125 162.045 
L 104.167969 162.706377 
L 104.712891 163.203691 
L 106.892578 166.679766 
L 107.4375 167.197588 
L 108.527344 167.782061 
L 109.072266 167.377031 
L 109.617188 167.233477 
L 111.251953 164.300859 
L 112.341797 161.178545 
L 113.431641 157.984453 
L 113.976562 156.759111 
L 114.521484 156.169512 
L 115.066406 156.405352 
L 115.611328 157.651201 
L 116.15625 159.450762 
L 117.246094 165.172441 
L 117.791016 168.366533 
L 118.335938 170.863359 
L 119.425781 174.831621 
L 120.515625 177.102861 
L 121.060547 177.502764 
L 121.605469 177.692461 
L 122.150391 177.538652 
L 123.785156 175.949297 
L 124.875 174.549639 
L 125.419922 173.995928 
L 126.509766 173.708818 
L 127.054688 173.944658 
L 128.144531 175.369951 
L 128.689453 176.436357 
L 129.234375 176.933672 
L 129.779297 177.697588 
L 130.869141 177.938555 
L 131.414062 177.836016 
L 132.503906 178.415361 
L 133.048828 179.133135 
L 134.138672 182.081133 
L 136.318359 188.894854 
L 136.863281 190.156084 
L 137.408203 190.92 
L 137.953125 190.73543 
L 138.498047 190.053545 
L 139.042969 189.074297 
L 141.222656 183.844805 
L 141.767578 182.74251 
L 142.857422 181.435137 
L 143.402344 181.973467 
L 143.947266 183.014238 
L 144.492188 184.665117 
L 145.037109 187.146562 
L 147.761719 204.132158 
L 148.306641 206.326494 
L 148.851562 207.664629 
L 149.396484 208.238848 
L 149.941406 208.10042 
L 150.486328 207.249346 
L 151.03125 205.434404 
L 151.576172 203.081133 
L 152.666016 196.077715 
L 154.300781 184.162676 
L 155.390625 176.949053 
L 156.480469 171.391436 
L 157.570312 167.474443 
L 158.115234 166.279863 
L 158.660156 165.387773 
L 159.205078 164.900713 
L 159.75 164.798174 
L 160.294922 165.064775 
L 160.839844 165.105791 
L 161.384766 165.905596 
L 161.929688 166.479814 
L 163.019531 168.42293 
L 163.564453 169.61751 
L 164.109375 171.432451 
L 164.654297 172.724443 
L 166.289062 177.461748 
L 166.833984 178.830645 
L 167.923828 180.953203 
L 169.013672 181.624834 
L 169.558594 181.476152 
L 170.103516 180.512285 
L 170.648438 180.189287 
L 172.283203 177.405352 
L 174.462891 172.032305 
L 175.552734 170.114824 
L 177.1875 168.181963 
L 177.732422 167.05916 
L 178.277344 165.654375 
L 178.822266 163.485674 
L 181.546875 150.058184 
L 182.091797 148.156084 
L 182.636719 146.741045 
L 183.181641 146.197588 
L 183.726562 146.161699 
L 184.271484 147.079424 
L 184.816406 148.309893 
L 185.361328 149.965898 
L 186.996094 156.507891 
L 187.541016 158.717607 
L 188.630859 161.968096 
L 189.175781 163.311357 
L 190.265625 164.531572 
L 190.810547 164.60335 
L 192.445312 162.890947 
L 192.990234 161.932207 
L 193.535156 161.880937 
L 194.625 161.465654 
L 195.169922 161.57332 
L 195.714844 161.563066 
L 196.259766 162.147539 
L 197.349609 163.834307 
L 197.894531 165.044268 
L 198.439453 165.961992 
L 198.984375 167.17708 
L 199.529297 168.007646 
L 200.074219 168.007646 
L 200.619141 167.756426 
L 201.164062 166.951494 
L 201.708984 165.62874 
L 202.798828 161.891191 
L 203.888672 157.697344 
L 204.978516 154.795488 
L 205.523438 154.282793 
L 206.068359 154.64168 
L 206.613281 155.451738 
L 207.158203 156.789873 
L 207.703125 158.486895 
L 210.972656 171.581133 
L 211.517578 172.647539 
L 212.0625 173.25252 
L 212.607422 173.488359 
L 213.697266 172.775713 
L 214.242188 172.186113 
L 214.787109 171.878496 
L 215.332031 171.406816 
L 215.876953 171.155596 
L 216.966797 171.18123 
L 219.146484 172.837236 
L 219.691406 173.01668 
L 220.236328 172.909014 
L 220.78125 172.437334 
L 222.416016 172.232256 
L 222.960938 172.678301 
L 224.050781 174.436846 
L 225.140625 177.333574 
L 226.775391 182.911699 
L 227.320312 184.993242 
L 228.410156 187.813066 
L 228.955078 188.238604 
L 229.5 188.202715 
L 230.044922 187.295244 
L 231.134766 183.957598 
L 232.224609 180.35335 
L 233.314453 177.984697 
L 234.404297 177.348955 
L 234.949219 178.194902 
L 235.494141 179.384355 
L 236.039062 181.501787 
L 237.128906 187.387529 
L 239.308594 201.055986 
L 239.853516 203.532305 
L 240.398438 205.30623 
L 240.943359 206.126543 
L 241.488281 206.034258 
L 242.033203 204.998613 
L 243.123047 201.025225 
L 244.757812 192.04793 
L 245.847656 185.926348 
L 246.9375 178.963945 
L 248.572266 170.473711 
L 249.117188 168.274248 
L 250.751953 164.752031 
L 251.296875 163.808672 
L 251.841797 163.511309 
L 252.386719 163.618975 
L 252.931641 163.347246 
L 254.021484 164.557207 
L 254.566406 165.536455 
L 256.201172 169.673906 
L 257.291016 173.580645 
L 258.925781 178.80501 
L 260.015625 180.496904 
L 260.560547 180.343096 
L 261.105469 180.025225 
L 261.650391 179.553545 
L 263.830078 175.857012 
L 264.919922 174.298418 
L 266.009766 173.401201 
L 266.554688 172.914141 
L 267.099609 172.760332 
L 268.189453 171.247881 
L 268.734375 169.966143 
L 269.824219 166.408037 
L 270.914062 161.178545 
L 272.548828 152.606279 
L 273.09375 149.622393 
L 273.638672 147.648516 
L 274.183594 146.248857 
L 274.728516 146.038652 
L 275.273438 146.387285 
L 275.818359 147.258867 
L 276.908203 150.191484 
L 277.998047 153.903398 
L 279.087891 157.343584 
L 280.177734 160.271074 
L 280.722656 161.639971 
L 281.267578 162.480791 
L 282.357422 163.372881 
L 283.447266 162.614092 
L 284.537109 160.983721 
L 285.082031 160.004473 
L 285.626953 159.286699 
L 286.171875 159.261064 
L 286.716797 159.825029 
L 287.806641 162.588457 
L 289.441406 167.207842 
L 290.53125 168.689531 
L 291.621094 168.274248 
L 292.166016 167.453936 
L 292.710938 166.331133 
L 293.800781 162.849932 
L 294.890625 158.799639 
L 295.980469 155.769609 
L 296.525391 154.733965 
L 297.070312 154.252031 
L 297.615234 154.436602 
L 298.160156 155.29793 
L 298.705078 156.800127 
L 299.794922 161.224687 
L 300.884766 165.91585 
L 301.429688 167.664141 
L 302.519531 169.73543 
L 303.064453 169.694414 
L 303.609375 169.940508 
L 304.699219 170.002031 
L 305.789062 170.76082 
L 306.333984 171.288896 
L 306.878906 171.191484 
L 307.423828 171.555498 
L 307.96875 171.519609 
L 308.513672 171.647783 
L 309.603516 171.529863 
L 310.148438 171.796465 
L 310.693359 171.41707 
L 311.238281 171.28377 
L 313.417969 168.940752 
L 314.507812 169.407305 
L 315.597656 171.740068 
L 316.6875 175.687822 
L 318.867188 184.788164 
L 319.412109 186.003252 
L 319.957031 186.439043 
L 320.501953 186.454424 
L 321.046875 185.752031 
L 321.591797 184.742021 
L 322.136719 183.265459 
L 324.316406 176.036455 
L 324.861328 174.672686 
L 325.40625 173.913896 
L 325.951172 173.939531 
L 326.496094 174.81624 
L 327.041016 176.43123 
L 328.130859 181.558184 
L 330.855469 198.082354 
L 331.400391 200.625322 
L 331.945312 202.132646 
L 332.490234 203.081133 
L 333.035156 203.060625 
L 333.580078 202.773516 
L 334.669922 199.758867 
L 336.304688 192.41707 
L 340.119141 170.950518 
L 341.753906 165.110918 
L 342.84375 162.485918 
L 343.388672 161.516924 
L 343.933594 160.896562 
L 345.023438 160.322344 
L 345.568359 160.635088 
L 346.113281 161.414385 
L 346.658203 162.690996 
L 347.748047 166.372148 
L 348.837891 171.037676 
L 349.382812 172.939775 
L 349.927734 174.262529 
L 350.472656 175.185381 
L 351.017578 175.713457 
L 351.5625 175.733965 
L 352.107422 175.995439 
L 353.197266 175.349443 
L 354.287109 173.960039 
L 355.921875 172.66292 
L 356.466797 172.627031 
L 357.011719 172.462969 
L 358.646484 172.734697 
L 359.191406 172.170732 
L 359.736328 171.273516 
L 360.28125 169.945635 
L 361.371094 165.403154 
L 364.095703 150.781084 
L 364.640625 148.622637 
L 365.730469 146.248857 
L 366.275391 145.628496 
L 366.820312 145.484941 
L 367.910156 146.351396 
L 369 149.39168 
L 371.724609 157.994707 
L 372.269531 158.917559 
L 372.814453 159.476396 
L 373.359375 159.461016 
L 373.904297 159.148271 
L 374.449219 158.538164 
L 375.539062 156.646318 
L 376.083984 156.364336 
L 376.628906 155.892656 
L 377.173828 156.036211 
L 377.71875 156.615557 
L 378.263672 157.512773 
L 379.353516 160.61458 
L 380.988281 164.85457 
L 381.533203 165.885088 
L 382.078125 166.52083 
L 382.623047 166.930986 
L 383.167969 166.326006 
L 383.712891 165.474932 
L 384.257812 163.71126 
L 385.892578 156.851396 
L 386.4375 154.769854 
L 387.527344 152.719072 
L 388.072266 152.237139 
L 389.162109 153.088213 
L 390.796875 157.317949 
L 391.341797 159.286699 
L 392.976562 163.485674 
L 393.521484 164.352129 
L 394.611328 165.357012 
L 395.701172 165.86458 
L 396.246094 166.346514 
L 396.791016 166.623369 
L 397.880859 167.797441 
L 398.970703 169.161211 
L 399.515625 169.827715 
L 400.060547 170.171221 
L 401.150391 169.520098 
L 403.875 165.003252 
L 404.964844 164.690508 
L 405.509766 164.880205 
L 406.054688 165.44417 
L 406.599609 166.505449 
L 407.144531 168.023027 
L 408.779297 175.159746 
L 409.869141 180.640459 
L 410.414062 182.522051 
L 410.958984 183.506426 
L 411.503906 184.070391 
L 412.048828 183.737139 
L 412.59375 182.942461 
L 413.683594 180.061113 
L 415.318359 173.780596 
L 415.863281 172.386064 
L 416.408203 171.304277 
L 416.953125 170.724932 
L 417.498047 171.04793 
L 418.042969 172.196367 
L 418.587891 173.73958 
L 419.677734 178.497393 
L 421.3125 188.310381 
L 422.402344 194.642168 
L 422.947266 197.06209 
L 423.492188 198.805254 
L 424.037109 199.902422 
L 424.582031 200.456133 
L 425.126953 200.492021 
L 425.671875 200.169023 
L 426.761719 197.041582 
L 427.306641 195.308672 
L 430.03125 181.978594 
L 430.576172 179.466387 
L 431.666016 173.570391 
L 433.300781 165.669756 
L 434.935547 160.696611 
L 435.480469 159.727617 
L 436.570312 159.163652 
L 437.660156 160.753008 
L 438.205078 162.019365 
L 439.294922 165.623613 
L 440.384766 169.817461 
L 441.474609 173.165361 
L 442.019531 174.047197 
L 442.564453 174.559893 
L 443.109375 174.595781 
L 443.654297 173.754961 
L 445.289062 172.165605 
L 445.833984 172.170732 
L 446.923828 173.226885 
L 448.013672 174.682939 
L 448.558594 174.69832 
L 449.103516 175.062334 
L 450.193359 174.175371 
L 451.283203 172.047686 
L 451.828125 170.704424 
L 452.373047 168.848467 
L 453.462891 163.844561 
L 455.097656 155.333818 
L 456.1875 150.11458 
L 456.732422 148.104814 
L 457.277344 146.735918 
L 457.822266 145.818193 
L 458.367188 145.551592 
L 458.912109 146.351396 
L 459.457031 147.428057 
L 460.001953 149.396807 
L 460.546875 150.755449 
L 461.091797 152.580645 
L 461.636719 153.913652 
L 462.181641 154.949297 
L 462.726562 156.251543 
L 464.361328 158.374102 
L 464.90625 158.261309 
L 465.451172 157.856279 
L 467.085938 155.262041 
L 467.630859 154.441729 
L 468.175781 154.451982 
L 468.720703 154.867266 
L 469.265625 155.810625 
L 470.355469 159.461016 
L 471.445312 163.59334 
L 472.535156 166.408037 
L 473.080078 166.895098 
L 473.625 166.920732 
L 474.169922 166.464434 
L 475.259766 163.59334 
L 477.439453 156.507891 
L 478.529297 153.877764 
L 479.074219 153.15999 
L 479.619141 152.934404 
L 480.164062 153.272783 
L 480.708984 154.216143 
L 481.253906 155.405596 
L 482.34375 158.543291 
L 483.433594 160.563311 
L 484.523438 161.301592 
L 485.068359 161.470781 
L 485.613281 161.932207 
L 486.158203 162.742266 
L 486.703125 163.854814 
L 487.248047 164.408525 
L 488.337891 166.679766 
L 488.882812 167.315508 
L 489.427734 168.54085 
L 490.517578 169.827715 
L 491.0625 170.053301 
L 491.607422 170.068682 
L 492.152344 169.514971 
L 495.421875 163.301104 
L 495.966797 162.685869 
L 496.511719 162.34749 
L 497.056641 162.721758 
L 497.601562 163.521562 
L 498.146484 165.095537 
L 499.236328 169.776445 
L 500.871094 177.789873 
L 501.416016 180.425127 
L 501.960938 181.773516 
L 502.505859 182.701494 
L 503.050781 183.11165 
L 503.595703 182.74251 
L 504.140625 181.522295 
L 506.865234 172.386064 
L 507.410156 171.129961 
L 507.955078 170.212236 
L 508.5 169.740557 
L 509.044922 169.771318 
L 509.589844 170.601885 
L 510.134766 171.709307 
L 510.679688 173.852373 
L 511.769531 179.57918 
L 513.404297 189.392168 
L 514.494141 194.637041 
L 515.039062 196.451982 
L 515.583984 197.503008 
L 516.128906 198.118242 
L 516.673828 198.554033 
L 517.21875 198.297686 
L 517.763672 197.697832 
L 518.853516 195.636797 
L 519.943359 192.376055 
L 521.578125 184.465166 
L 523.212891 175.575029 
L 524.302734 170.166094 
L 525.9375 162.665361 
L 527.027344 159.281572 
L 527.572266 158.574053 
L 528.117188 158.620195 
L 528.662109 159.378984 
L 529.751953 162.137285 
L 530.296875 164.464922 
L 531.931641 169.279131 
L 532.476562 170.381426 
L 533.566406 171.288896 
L 535.201172 170.858232 
L 536.291016 171.258135 
L 536.835938 171.632402 
L 538.470703 173.698564 
L 539.015625 174.011309 
L 539.560547 174.180498 
L 540.105469 174.647051 
L 540.650391 174.81624 
L 541.195312 175.10335 
L 541.740234 175.021318 
L 542.285156 174.682939 
L 542.830078 173.524248 
L 543.375 171.970781 
L 544.464844 167.325762 
L 546.644531 155.308184 
L 547.734375 150.329912 
L 548.279297 148.166338 
L 548.824219 147.0179 
L 549.369141 146.248857 
L 549.914062 146.274492 
L 550.458984 146.571855 
L 551.003906 147.161455 
L 551.548828 148.591875 
L 552.09375 149.617266 
L 552.638672 151.673174 
L 554.273438 155.379961 
L 554.818359 155.964434 
L 555.363281 156.000322 
L 555.908203 155.53377 
L 558.087891 152.139727 
L 558.632812 151.955156 
L 559.177734 151.944902 
L 560.267578 153.349687 
L 562.447266 160.101885 
L 562.992188 162.198809 
L 563.537109 163.808672 
L 564.082031 164.726396 
L 564.626953 165.167314 
L 565.171875 164.864824 
L 565.716797 163.839434 
L 566.261719 162.034746 
L 566.806641 160.737627 
L 567.896484 157.200029 
L 568.441406 155.682451 
L 569.53125 153.575273 
L 570.621094 152.565264 
L 571.166016 153.047197 
L 571.710938 153.288164 
L 572.255859 153.729082 
L 572.800781 154.431475 
L 574.435547 155.713213 
L 574.980469 156.574541 
L 575.525391 156.948809 
L 576.070312 157.692217 
L 577.160156 158.88167 
L 577.705078 159.435381 
L 578.794922 161.522051 
L 580.974609 166.807939 
L 581.519531 167.761553 
L 582.064453 168.30501 
L 583.154297 168.151201 
L 583.699219 167.387285 
L 584.244141 166.264482 
L 586.423828 160.281328 
L 586.96875 159.045732 
L 587.513672 158.363848 
L 588.058594 158.486895 
L 588.603516 159.225176 
L 589.148438 160.599199 
L 590.238281 164.654619 
L 592.962891 177.584795 
L 593.507812 179.220293 
L 594.052734 180.06624 
L 594.597656 180.153398 
L 595.142578 179.691973 
L 595.6875 178.615312 
L 596.777344 175.657061 
L 598.412109 169.740557 
L 598.957031 168.228105 
L 599.501953 167.233477 
L 600.046875 166.792559 
L 600.591797 167.038652 
L 601.136719 167.961504 
L 602.226562 171.83748 
L 603.316406 176.795244 
L 605.496094 188.146318 
L 606.585938 192.873369 
L 607.130859 194.488359 
L 607.675781 195.647051 
L 608.220703 196.293047 
L 608.765625 196.400713 
L 609.310547 196.021318 
L 609.855469 195.800859 
L 610.945312 194.560137 
L 611.490234 193.222002 
L 612.035156 191.571123 
L 613.125 186.91585 
L 614.214844 180.748125 
L 616.394531 167.023271 
L 616.939453 164.244463 
L 617.484375 162.142412 
L 618.029297 160.54793 
L 618.574219 159.77376 
L 619.664062 159.814775 
L 620.208984 160.788896 
L 620.753906 161.327227 
L 624.023438 168.258867 
L 625.113281 169.335527 
L 625.658203 169.191973 
L 626.748047 169.304766 
L 627.292969 169.494463 
L 628.382812 170.258379 
L 629.472656 172.098955 
L 630.5625 174.452227 
L 631.652344 175.94417 
L 632.742188 176.12874 
L 633.287109 175.795488 
L 633.832031 175.180254 
L 634.376953 174.231768 
L 634.921875 172.821855 
L 635.466797 171.04793 
L 636.011719 168.858721 
L 637.101562 163.101152 
L 638.736328 153.283037 
L 639.28125 150.524736 
L 639.826172 148.858477 
L 640.371094 147.72542 
L 641.460938 147.930498 
L 643.095703 150.658037 
L 643.640625 151.89876 
L 645.275391 154.621172 
L 645.820312 155.072344 
L 646.365234 155.144121 
L 647.455078 153.970049 
L 647.455078 153.970049 
" style="fill:none;stroke:#4c72b0;stroke-linecap:round;stroke-width:1.75;"/>
   </g>
   <g id="patch_3">
    <path d="M 90 270.72 
L 90 69.12 
" style="fill:none;stroke:#262626;stroke-linecap:square;stroke-linejoin:miter;stroke-width:1.25;"/>
   </g>
   <g id="patch_4">
    <path d="M 90 270.72 
L 648 270.72 
" style="fill:none;stroke:#262626;stroke-linecap:square;stroke-linejoin:miter;stroke-width:1.25;"/>
   </g>
  </g>
  <g id="axes_2">
   <g id="patch_5">
    <path d="M 90 512.64 
L 648 512.64 
L 648 311.04 
L 90 311.04 
z
" style="fill:#ffffff;"/>
   </g>
   <g id="matplotlib.axis_3">
    <g id="xtick_7">
     <g id="line2d_15">
      <g>
       <use style="fill:#262626;stroke:#262626;" x="218.197478" xlink:href="#m7a22751b8d" y="512.64"/>
      </g>
     </g>
     <g id="text_14">
      <!-- $\mathdefault{10^{2}}$ -->
      <g style="fill:#262626;" transform="translate(210.347478 535.9525)scale(0.1 -0.1)">
       <use transform="translate(0 0.99375)" xlink:href="#ArialMT-31"/>
       <use transform="translate(55.615234 0.99375)" xlink:href="#ArialMT-30"/>
       <use transform="translate(112.972813 70.6875)scale(0.7)" xlink:href="#ArialMT-32"/>
      </g>
     </g>
    </g>
    <g id="xtick_8">
     <g id="line2d_16">
      <g>
       <use style="fill:#262626;stroke:#262626;" x="401.606604" xlink:href="#m7a22751b8d" y="512.64"/>
      </g>
     </g>
     <g id="text_15">
      <!-- $\mathdefault{10^{3}}$ -->
      <defs>
       <path d="M 4.203125 18.890625 
L 12.984375 20.0625 
Q 14.5 12.59375 18.140625 9.296875 
Q 21.78125 6 27 6 
Q 33.203125 6 37.46875 10.296875 
Q 41.75 14.59375 41.75 20.953125 
Q 41.75 27 37.796875 30.921875 
Q 33.84375 34.859375 27.734375 34.859375 
Q 25.25 34.859375 21.53125 33.890625 
L 22.515625 41.609375 
Q 23.390625 41.5 23.921875 41.5 
Q 29.546875 41.5 34.03125 44.421875 
Q 38.53125 47.359375 38.53125 53.46875 
Q 38.53125 58.296875 35.25 61.46875 
Q 31.984375 64.65625 26.8125 64.65625 
Q 21.6875 64.65625 18.265625 61.421875 
Q 14.84375 58.203125 13.875 51.765625 
L 5.078125 53.328125 
Q 6.6875 62.15625 12.390625 67.015625 
Q 18.109375 71.875 26.609375 71.875 
Q 32.46875 71.875 37.390625 69.359375 
Q 42.328125 66.84375 44.9375 62.5 
Q 47.5625 58.15625 47.5625 53.265625 
Q 47.5625 48.640625 45.0625 44.828125 
Q 42.578125 41.015625 37.703125 38.765625 
Q 44.046875 37.3125 47.5625 32.6875 
Q 51.078125 28.078125 51.078125 21.140625 
Q 51.078125 11.765625 44.234375 5.25 
Q 37.40625 -1.265625 26.953125 -1.265625 
Q 17.53125 -1.265625 11.296875 4.34375 
Q 5.078125 9.96875 4.203125 18.890625 
z
" id="ArialMT-33"/>
      </defs>
      <g style="fill:#262626;" transform="translate(393.756604 535.9525)scale(0.1 -0.1)">
       <use transform="translate(0 0.99375)" xlink:href="#ArialMT-31"/>
       <use transform="translate(55.615234 0.99375)" xlink:href="#ArialMT-30"/>
       <use transform="translate(112.972813 70.6875)scale(0.7)" xlink:href="#ArialMT-33"/>
      </g>
     </g>
    </g>
    <g id="xtick_9">
     <g id="line2d_17">
      <g>
       <use style="fill:#262626;stroke:#262626;" x="585.01573" xlink:href="#m7a22751b8d" y="512.64"/>
      </g>
     </g>
     <g id="text_16">
      <!-- $\mathdefault{10^{4}}$ -->
      <g style="fill:#262626;" transform="translate(577.16573 535.8525)scale(0.1 -0.1)">
       <use transform="translate(0 0.201563)" xlink:href="#ArialMT-31"/>
       <use transform="translate(55.615234 0.201563)" xlink:href="#ArialMT-30"/>
       <use transform="translate(112.972813 69.895313)scale(0.7)" xlink:href="#ArialMT-34"/>
      </g>
     </g>
    </g>
    <g id="xtick_10">
     <g id="line2d_18">
      <defs>
       <path d="M 0 0 
L 0 3 
" id="ma688a4187f" style="stroke:#262626;stroke-width:0.5;"/>
      </defs>
      <g>
       <use style="fill:#262626;stroke:#262626;stroke-width:0.5;" x="90" xlink:href="#ma688a4187f" y="512.64"/>
      </g>
     </g>
    </g>
    <g id="xtick_11">
     <g id="line2d_19">
      <g>
       <use style="fill:#262626;stroke:#262626;stroke-width:0.5;" x="122.296744" xlink:href="#ma688a4187f" y="512.64"/>
      </g>
     </g>
    </g>
    <g id="xtick_12">
     <g id="line2d_20">
      <g>
       <use style="fill:#262626;stroke:#262626;stroke-width:0.5;" x="145.211648" xlink:href="#ma688a4187f" y="512.64"/>
      </g>
     </g>
    </g>
    <g id="xtick_13">
     <g id="line2d_21">
      <g>
       <use style="fill:#262626;stroke:#262626;stroke-width:0.5;" x="162.985829" xlink:href="#ma688a4187f" y="512.64"/>
      </g>
     </g>
    </g>
    <g id="xtick_14">
     <g id="line2d_22">
      <g>
       <use style="fill:#262626;stroke:#262626;stroke-width:0.5;" x="177.508392" xlink:href="#ma688a4187f" y="512.64"/>
      </g>
     </g>
    </g>
    <g id="xtick_15">
     <g id="line2d_23">
      <g>
       <use style="fill:#262626;stroke:#262626;stroke-width:0.5;" x="189.787045" xlink:href="#ma688a4187f" y="512.64"/>
      </g>
     </g>
    </g>
    <g id="xtick_16">
     <g id="line2d_24">
      <g>
       <use style="fill:#262626;stroke:#262626;stroke-width:0.5;" x="200.423297" xlink:href="#ma688a4187f" y="512.64"/>
      </g>
     </g>
    </g>
    <g id="xtick_17">
     <g id="line2d_25">
      <g>
       <use style="fill:#262626;stroke:#262626;stroke-width:0.5;" x="209.805136" xlink:href="#ma688a4187f" y="512.64"/>
      </g>
     </g>
    </g>
    <g id="xtick_18">
     <g id="line2d_26">
      <g>
       <use style="fill:#262626;stroke:#262626;stroke-width:0.5;" x="273.409126" xlink:href="#ma688a4187f" y="512.64"/>
      </g>
     </g>
    </g>
    <g id="xtick_19">
     <g id="line2d_27">
      <g>
       <use style="fill:#262626;stroke:#262626;stroke-width:0.5;" x="305.70587" xlink:href="#ma688a4187f" y="512.64"/>
      </g>
     </g>
    </g>
    <g id="xtick_20">
     <g id="line2d_28">
      <g>
       <use style="fill:#262626;stroke:#262626;stroke-width:0.5;" x="328.620775" xlink:href="#ma688a4187f" y="512.64"/>
      </g>
     </g>
    </g>
    <g id="xtick_21">
     <g id="line2d_29">
      <g>
       <use style="fill:#262626;stroke:#262626;stroke-width:0.5;" x="346.394955" xlink:href="#ma688a4187f" y="512.64"/>
      </g>
     </g>
    </g>
    <g id="xtick_22">
     <g id="line2d_30">
      <g>
       <use style="fill:#262626;stroke:#262626;stroke-width:0.5;" x="360.917518" xlink:href="#ma688a4187f" y="512.64"/>
      </g>
     </g>
    </g>
    <g id="xtick_23">
     <g id="line2d_31">
      <g>
       <use style="fill:#262626;stroke:#262626;stroke-width:0.5;" x="373.196171" xlink:href="#ma688a4187f" y="512.64"/>
      </g>
     </g>
    </g>
    <g id="xtick_24">
     <g id="line2d_32">
      <g>
       <use style="fill:#262626;stroke:#262626;stroke-width:0.5;" x="383.832423" xlink:href="#ma688a4187f" y="512.64"/>
      </g>
     </g>
    </g>
    <g id="xtick_25">
     <g id="line2d_33">
      <g>
       <use style="fill:#262626;stroke:#262626;stroke-width:0.5;" x="393.214262" xlink:href="#ma688a4187f" y="512.64"/>
      </g>
     </g>
    </g>
    <g id="xtick_26">
     <g id="line2d_34">
      <g>
       <use style="fill:#262626;stroke:#262626;stroke-width:0.5;" x="456.818252" xlink:href="#ma688a4187f" y="512.64"/>
      </g>
     </g>
    </g>
    <g id="xtick_27">
     <g id="line2d_35">
      <g>
       <use style="fill:#262626;stroke:#262626;stroke-width:0.5;" x="489.114996" xlink:href="#ma688a4187f" y="512.64"/>
      </g>
     </g>
    </g>
    <g id="xtick_28">
     <g id="line2d_36">
      <g>
       <use style="fill:#262626;stroke:#262626;stroke-width:0.5;" x="512.029901" xlink:href="#ma688a4187f" y="512.64"/>
      </g>
     </g>
    </g>
    <g id="xtick_29">
     <g id="line2d_37">
      <g>
       <use style="fill:#262626;stroke:#262626;stroke-width:0.5;" x="529.804081" xlink:href="#ma688a4187f" y="512.64"/>
      </g>
     </g>
    </g>
    <g id="xtick_30">
     <g id="line2d_38">
      <g>
       <use style="fill:#262626;stroke:#262626;stroke-width:0.5;" x="544.326645" xlink:href="#ma688a4187f" y="512.64"/>
      </g>
     </g>
    </g>
    <g id="xtick_31">
     <g id="line2d_39">
      <g>
       <use style="fill:#262626;stroke:#262626;stroke-width:0.5;" x="556.605297" xlink:href="#ma688a4187f" y="512.64"/>
      </g>
     </g>
    </g>
    <g id="xtick_32">
     <g id="line2d_40">
      <g>
       <use style="fill:#262626;stroke:#262626;stroke-width:0.5;" x="567.241549" xlink:href="#ma688a4187f" y="512.64"/>
      </g>
     </g>
    </g>
    <g id="xtick_33">
     <g id="line2d_41">
      <g>
       <use style="fill:#262626;stroke:#262626;stroke-width:0.5;" x="576.623389" xlink:href="#ma688a4187f" y="512.64"/>
      </g>
     </g>
    </g>
    <g id="xtick_34">
     <g id="line2d_42">
      <g>
       <use style="fill:#262626;stroke:#262626;stroke-width:0.5;" x="640.227378" xlink:href="#ma688a4187f" y="512.64"/>
      </g>
     </g>
    </g>
   </g>
   <g id="matplotlib.axis_4">
    <g id="ytick_8">
     <g id="line2d_43">
      <g>
       <use style="fill:#262626;stroke:#262626;" x="90" xlink:href="#mcbb8668870" y="512.64"/>
      </g>
     </g>
     <g id="text_17">
      <!-- $\mathdefault{10^{-5}}$ -->
      <defs>
       <path d="M 4.15625 18.75 
L 13.375 19.53125 
Q 14.40625 12.796875 18.140625 9.390625 
Q 21.875 6 27.15625 6 
Q 33.5 6 37.890625 10.78125 
Q 42.28125 15.578125 42.28125 23.484375 
Q 42.28125 31 38.0625 35.34375 
Q 33.84375 39.703125 27 39.703125 
Q 22.75 39.703125 19.328125 37.765625 
Q 15.921875 35.84375 13.96875 32.765625 
L 5.71875 33.84375 
L 12.640625 70.609375 
L 48.25 70.609375 
L 48.25 62.203125 
L 19.671875 62.203125 
L 15.828125 42.96875 
Q 22.265625 47.46875 29.34375 47.46875 
Q 38.71875 47.46875 45.15625 40.96875 
Q 51.609375 34.46875 51.609375 24.265625 
Q 51.609375 14.546875 45.953125 7.46875 
Q 39.0625 -1.21875 27.15625 -1.21875 
Q 17.390625 -1.21875 11.203125 4.25 
Q 5.03125 9.71875 4.15625 18.75 
z
" id="ArialMT-35"/>
      </defs>
      <g style="fill:#262626;" transform="translate(57.2 517.74625)scale(0.1 -0.1)">
       <use transform="translate(0 0.879688)" xlink:href="#ArialMT-31"/>
       <use transform="translate(55.615234 0.879688)" xlink:href="#ArialMT-30"/>
       <use transform="translate(112.972813 70.573438)scale(0.7)" xlink:href="#ArialMT-2212"/>
       <use transform="translate(153.851719 70.573438)scale(0.7)" xlink:href="#ArialMT-35"/>
      </g>
     </g>
    </g>
    <g id="ytick_9">
     <g id="line2d_44">
      <g>
       <use style="fill:#262626;stroke:#262626;" x="90" xlink:href="#mcbb8668870" y="465.767507"/>
      </g>
     </g>
     <g id="text_18">
      <!-- $\mathdefault{10^{-4}}$ -->
      <g style="fill:#262626;" transform="translate(57.2 470.873757)scale(0.1 -0.1)">
       <use transform="translate(0 0.201563)" xlink:href="#ArialMT-31"/>
       <use transform="translate(55.615234 0.201563)" xlink:href="#ArialMT-30"/>
       <use transform="translate(112.972813 69.895313)scale(0.7)" xlink:href="#ArialMT-2212"/>
       <use transform="translate(153.851719 69.895313)scale(0.7)" xlink:href="#ArialMT-34"/>
      </g>
     </g>
    </g>
    <g id="ytick_10">
     <g id="line2d_45">
      <g>
       <use style="fill:#262626;stroke:#262626;" x="90" xlink:href="#mcbb8668870" y="418.895013"/>
      </g>
     </g>
     <g id="text_19">
      <!-- $\mathdefault{10^{-3}}$ -->
      <g style="fill:#262626;" transform="translate(57.2 424.051263)scale(0.1 -0.1)">
       <use transform="translate(0 0.99375)" xlink:href="#ArialMT-31"/>
       <use transform="translate(55.615234 0.99375)" xlink:href="#ArialMT-30"/>
       <use transform="translate(112.972813 70.6875)scale(0.7)" xlink:href="#ArialMT-2212"/>
       <use transform="translate(153.851719 70.6875)scale(0.7)" xlink:href="#ArialMT-33"/>
      </g>
     </g>
    </g>
    <g id="ytick_11">
     <g id="line2d_46">
      <g>
       <use style="fill:#262626;stroke:#262626;" x="90" xlink:href="#mcbb8668870" y="372.02252"/>
      </g>
     </g>
     <g id="text_20">
      <!-- $\mathdefault{10^{-2}}$ -->
      <g style="fill:#262626;" transform="translate(57.2 377.17877)scale(0.1 -0.1)">
       <use transform="translate(0 0.99375)" xlink:href="#ArialMT-31"/>
       <use transform="translate(55.615234 0.99375)" xlink:href="#ArialMT-30"/>
       <use transform="translate(112.972813 70.6875)scale(0.7)" xlink:href="#ArialMT-2212"/>
       <use transform="translate(153.851719 70.6875)scale(0.7)" xlink:href="#ArialMT-32"/>
      </g>
     </g>
    </g>
    <g id="ytick_12">
     <g id="line2d_47">
      <g>
       <use style="fill:#262626;stroke:#262626;" x="90" xlink:href="#mcbb8668870" y="325.150026"/>
      </g>
     </g>
     <g id="text_21">
      <!-- $\mathdefault{10^{-1}}$ -->
      <g style="fill:#262626;" transform="translate(57.2 330.306276)scale(0.1 -0.1)">
       <use transform="translate(0 0.99375)" xlink:href="#ArialMT-31"/>
       <use transform="translate(55.615234 0.99375)" xlink:href="#ArialMT-30"/>
       <use transform="translate(112.972813 70.6875)scale(0.7)" xlink:href="#ArialMT-2212"/>
       <use transform="translate(153.851719 70.6875)scale(0.7)" xlink:href="#ArialMT-31"/>
      </g>
     </g>
    </g>
    <g id="ytick_13">
     <g id="line2d_48">
      <defs>
       <path d="M 0 0 
L -3 0 
" id="m9134d19d56" style="stroke:#262626;stroke-width:0.5;"/>
      </defs>
      <g>
       <use style="fill:#262626;stroke:#262626;stroke-width:0.5;" x="90" xlink:href="#m9134d19d56" y="498.529974"/>
      </g>
     </g>
    </g>
    <g id="ytick_14">
     <g id="line2d_49">
      <g>
       <use style="fill:#262626;stroke:#262626;stroke-width:0.5;" x="90" xlink:href="#m9134d19d56" y="490.276137"/>
      </g>
     </g>
    </g>
    <g id="ytick_15">
     <g id="line2d_50">
      <g>
       <use style="fill:#262626;stroke:#262626;stroke-width:0.5;" x="90" xlink:href="#m9134d19d56" y="484.419947"/>
      </g>
     </g>
    </g>
    <g id="ytick_16">
     <g id="line2d_51">
      <g>
       <use style="fill:#262626;stroke:#262626;stroke-width:0.5;" x="90" xlink:href="#m9134d19d56" y="479.877533"/>
      </g>
     </g>
    </g>
    <g id="ytick_17">
     <g id="line2d_52">
      <g>
       <use style="fill:#262626;stroke:#262626;stroke-width:0.5;" x="90" xlink:href="#m9134d19d56" y="476.166111"/>
      </g>
     </g>
    </g>
    <g id="ytick_18">
     <g id="line2d_53">
      <g>
       <use style="fill:#262626;stroke:#262626;stroke-width:0.5;" x="90" xlink:href="#m9134d19d56" y="473.028148"/>
      </g>
     </g>
    </g>
    <g id="ytick_19">
     <g id="line2d_54">
      <g>
       <use style="fill:#262626;stroke:#262626;stroke-width:0.5;" x="90" xlink:href="#m9134d19d56" y="470.309921"/>
      </g>
     </g>
    </g>
    <g id="ytick_20">
     <g id="line2d_55">
      <g>
       <use style="fill:#262626;stroke:#262626;stroke-width:0.5;" x="90" xlink:href="#m9134d19d56" y="467.912274"/>
      </g>
     </g>
    </g>
    <g id="ytick_21">
     <g id="line2d_56">
      <g>
       <use style="fill:#262626;stroke:#262626;stroke-width:0.5;" x="90" xlink:href="#m9134d19d56" y="451.65748"/>
      </g>
     </g>
    </g>
    <g id="ytick_22">
     <g id="line2d_57">
      <g>
       <use style="fill:#262626;stroke:#262626;stroke-width:0.5;" x="90" xlink:href="#m9134d19d56" y="443.403644"/>
      </g>
     </g>
    </g>
    <g id="ytick_23">
     <g id="line2d_58">
      <g>
       <use style="fill:#262626;stroke:#262626;stroke-width:0.5;" x="90" xlink:href="#m9134d19d56" y="437.547454"/>
      </g>
     </g>
    </g>
    <g id="ytick_24">
     <g id="line2d_59">
      <g>
       <use style="fill:#262626;stroke:#262626;stroke-width:0.5;" x="90" xlink:href="#m9134d19d56" y="433.00504"/>
      </g>
     </g>
    </g>
    <g id="ytick_25">
     <g id="line2d_60">
      <g>
       <use style="fill:#262626;stroke:#262626;stroke-width:0.5;" x="90" xlink:href="#m9134d19d56" y="429.293617"/>
      </g>
     </g>
    </g>
    <g id="ytick_26">
     <g id="line2d_61">
      <g>
       <use style="fill:#262626;stroke:#262626;stroke-width:0.5;" x="90" xlink:href="#m9134d19d56" y="426.155654"/>
      </g>
     </g>
    </g>
    <g id="ytick_27">
     <g id="line2d_62">
      <g>
       <use style="fill:#262626;stroke:#262626;stroke-width:0.5;" x="90" xlink:href="#m9134d19d56" y="423.437427"/>
      </g>
     </g>
    </g>
    <g id="ytick_28">
     <g id="line2d_63">
      <g>
       <use style="fill:#262626;stroke:#262626;stroke-width:0.5;" x="90" xlink:href="#m9134d19d56" y="421.039781"/>
      </g>
     </g>
    </g>
    <g id="ytick_29">
     <g id="line2d_64">
      <g>
       <use style="fill:#262626;stroke:#262626;stroke-width:0.5;" x="90" xlink:href="#m9134d19d56" y="404.784987"/>
      </g>
     </g>
    </g>
    <g id="ytick_30">
     <g id="line2d_65">
      <g>
       <use style="fill:#262626;stroke:#262626;stroke-width:0.5;" x="90" xlink:href="#m9134d19d56" y="396.53115"/>
      </g>
     </g>
    </g>
    <g id="ytick_31">
     <g id="line2d_66">
      <g>
       <use style="fill:#262626;stroke:#262626;stroke-width:0.5;" x="90" xlink:href="#m9134d19d56" y="390.67496"/>
      </g>
     </g>
    </g>
    <g id="ytick_32">
     <g id="line2d_67">
      <g>
       <use style="fill:#262626;stroke:#262626;stroke-width:0.5;" x="90" xlink:href="#m9134d19d56" y="386.132546"/>
      </g>
     </g>
    </g>
    <g id="ytick_33">
     <g id="line2d_68">
      <g>
       <use style="fill:#262626;stroke:#262626;stroke-width:0.5;" x="90" xlink:href="#m9134d19d56" y="382.421124"/>
      </g>
     </g>
    </g>
    <g id="ytick_34">
     <g id="line2d_69">
      <g>
       <use style="fill:#262626;stroke:#262626;stroke-width:0.5;" x="90" xlink:href="#m9134d19d56" y="379.283161"/>
      </g>
     </g>
    </g>
    <g id="ytick_35">
     <g id="line2d_70">
      <g>
       <use style="fill:#262626;stroke:#262626;stroke-width:0.5;" x="90" xlink:href="#m9134d19d56" y="376.564934"/>
      </g>
     </g>
    </g>
    <g id="ytick_36">
     <g id="line2d_71">
      <g>
       <use style="fill:#262626;stroke:#262626;stroke-width:0.5;" x="90" xlink:href="#m9134d19d56" y="374.167288"/>
      </g>
     </g>
    </g>
    <g id="ytick_37">
     <g id="line2d_72">
      <g>
       <use style="fill:#262626;stroke:#262626;stroke-width:0.5;" x="90" xlink:href="#m9134d19d56" y="357.912493"/>
      </g>
     </g>
    </g>
    <g id="ytick_38">
     <g id="line2d_73">
      <g>
       <use style="fill:#262626;stroke:#262626;stroke-width:0.5;" x="90" xlink:href="#m9134d19d56" y="349.658657"/>
      </g>
     </g>
    </g>
    <g id="ytick_39">
     <g id="line2d_74">
      <g>
       <use style="fill:#262626;stroke:#262626;stroke-width:0.5;" x="90" xlink:href="#m9134d19d56" y="343.802467"/>
      </g>
     </g>
    </g>
    <g id="ytick_40">
     <g id="line2d_75">
      <g>
       <use style="fill:#262626;stroke:#262626;stroke-width:0.5;" x="90" xlink:href="#m9134d19d56" y="339.260053"/>
      </g>
     </g>
    </g>
    <g id="ytick_41">
     <g id="line2d_76">
      <g>
       <use style="fill:#262626;stroke:#262626;stroke-width:0.5;" x="90" xlink:href="#m9134d19d56" y="335.548631"/>
      </g>
     </g>
    </g>
    <g id="ytick_42">
     <g id="line2d_77">
      <g>
       <use style="fill:#262626;stroke:#262626;stroke-width:0.5;" x="90" xlink:href="#m9134d19d56" y="332.410668"/>
      </g>
     </g>
    </g>
    <g id="ytick_43">
     <g id="line2d_78">
      <g>
       <use style="fill:#262626;stroke:#262626;stroke-width:0.5;" x="90" xlink:href="#m9134d19d56" y="329.69244"/>
      </g>
     </g>
    </g>
    <g id="ytick_44">
     <g id="line2d_79">
      <g>
       <use style="fill:#262626;stroke:#262626;stroke-width:0.5;" x="90" xlink:href="#m9134d19d56" y="327.294794"/>
      </g>
     </g>
    </g>
    <g id="ytick_45">
     <g id="line2d_80">
      <g>
       <use style="fill:#262626;stroke:#262626;stroke-width:0.5;" x="90" xlink:href="#m9134d19d56" y="311.04"/>
      </g>
     </g>
    </g>
   </g>
   <g id="line2d_81">
    <path clip-path="url(#p68562f22d8)" d="M -1 376.324249 
L 151.095164 376.306218 
L 206.306812 390.441909 
L 238.603556 393.686685 
L 261.518461 398.290448 
L 279.292642 399.29058 
L 293.815205 343.406219 
L 306.093857 417.501794 
L 316.730109 421.830695 
L 326.111949 426.076332 
L 334.50429 425.074832 
L 342.096086 421.778107 
L 349.026853 378.637213 
L 355.402541 423.28796 
L 361.305505 427.454024 
L 366.801034 424.270433 
L 371.941758 419.671876 
L 376.770725 411.150499 
L 381.323597 370.050528 
L 385.630245 401.865841 
L 389.715939 408.109082 
L 393.602249 405.855412 
L 397.307735 400.660218 
L 400.848476 389.660424 
L 404.238502 357.593024 
L 407.490119 381.299907 
L 410.614189 398.782942 
L 413.620341 407.715461 
L 416.517154 409.945002 
L 419.312303 402.892061 
L 422.012683 374.311525 
L 424.624509 384.312064 
L 427.153406 399.366247 
L 429.604479 404.414672 
L 431.982374 403.645365 
L 434.291335 398.231004 
L 436.535246 377.716491 
L 438.717672 380.570347 
L 440.841893 401.145928 
L 442.910933 407.147066 
L 444.927587 406.660662 
L 446.894442 402.179981 
L 448.813898 385.452476 
L 450.688186 374.359349 
L 452.519383 402.494167 
L 454.309426 413.7037 
L 456.060125 421.143911 
L 459.45015 437.98545 
L 461.09255 398.290793 
L 462.701768 424.755121 
L 464.279118 425.832272 
L 465.825838 424.761958 
L 467.343094 420.867976 
L 468.83199 413.111791 
L 470.293564 376.165263 
L 471.728802 409.147514 
L 473.138637 427.931613 
L 474.523951 440.234148 
L 475.885584 440.026767 
L 477.224331 435.86622 
L 478.540949 423.370713 
L 479.836157 420.746904 
L 481.110642 444.650735 
L 482.365055 456.456458 
L 483.600019 460.967485 
L 484.816127 461.241326 
L 486.013948 465.520922 
L 487.194022 411.595055 
L 488.356869 457.06412 
L 489.502983 461.852064 
L 490.63284 464.899587 
L 491.746894 463.133477 
L 492.845581 457.311603 
L 493.92932 433.486602 
L 494.998512 457.679074 
L 496.053541 475.971116 
L 497.094779 498.358983 
L 498.122582 496.00779 
L 499.137291 497.808862 
L 500.139235 477.491214 
L 501.128734 440.280144 
L 502.10609 475.884224 
L 503.0716 486.170053 
L 504.025546 492.278331 
L 504.968203 478.869991 
L 505.899834 470.066501 
L 506.820695 458.994701 
L 507.731032 456.088732 
L 508.631082 471.810542 
L 509.521075 463.249892 
L 510.401234 442.354504 
L 511.271773 437.102072 
L 512.132901 463.601529 
L 513.827722 430.314738 
L 514.661799 451.329915 
L 515.487232 457.027711 
L 516.304198 460.237252 
L 517.112871 459.549452 
L 517.913416 456.070239 
L 518.705996 436.68012 
L 519.490766 461.15408 
L 520.26788 478.177803 
L 521.037486 478.571404 
L 521.799727 481.323862 
L 522.554743 479.122726 
L 523.302669 479.212184 
L 524.043638 452.17224 
L 524.777778 475.662692 
L 525.505212 491.94556 
L 526.226064 484.244696 
L 526.940451 487.645786 
L 527.648487 480.353072 
L 528.350285 477.041047 
L 529.045954 461.097975 
L 530.419326 524.052869 
L 531.097232 512.651969 
L 531.769418 496.193837 
L 532.435979 516.165344 
L 533.097009 487.13615 
L 533.752597 471.730947 
L 534.402834 462.614895 
L 535.047806 495.190632 
L 535.687597 483.108488 
L 536.32229 477.683735 
L 536.951966 483.634984 
L 537.576703 483.724357 
L 538.196578 471.524033 
L 538.811667 443.477596 
L 539.422042 497.938738 
L 540.027776 497.739238 
L 540.628938 502.68565 
L 541.225596 492.227678 
L 541.817819 494.363837 
L 542.405671 500.301649 
L 542.989216 476.628703 
L 543.568517 496.903925 
L 544.143636 495.137558 
L 544.714632 494.445267 
L 545.281563 494.69497 
L 545.844488 486.615285 
L 546.403463 484.011952 
L 546.958543 488.334249 
L 547.509781 472.45325 
L 548.05723 486.085344 
L 548.600942 493.649864 
L 549.140969 505.545862 
L 549.677358 501.26568 
L 550.21016 488.356401 
L 550.739422 521.704483 
L 551.26519 495.00088 
L 551.78751 493.974257 
L 552.306428 504.647274 
L 552.821987 494.367645 
L 553.33423 497.869319 
L 553.8432 515.911512 
L 554.348939 524.459426 
L 554.851487 487.053601 
L 555.350884 502.576432 
L 555.847169 496.445996 
L 556.340382 501.09727 
L 557.317739 486.008623 
L 557.801956 509.162506 
L 558.283248 497.410297 
L 558.76165 501.883213 
L 559.237195 498.587955 
L 559.709918 513.313949 
L 560.179852 489.425403 
L 560.647029 482.690088 
L 561.111483 501.867914 
L 561.573244 496.984965 
L 562.032344 488.341126 
L 562.94268 500.134295 
L 563.393976 503.199358 
L 563.84273 500.861793 
L 564.28897 490.369329 
L 564.732723 485.76873 
L 565.174019 508.243402 
L 565.612882 519.242487 
L 566.049341 486.203745 
L 566.483422 518.949816 
L 567.34455 492.738351 
L 567.771648 516.580904 
L 568.196468 510.524761 
L 568.619034 501.517196 
L 569.039371 516.178663 
L 569.457501 495.816421 
L 569.873447 496.093699 
L 570.287233 497.304321 
L 570.69888 492.272599 
L 571.108411 490.73722 
L 571.515847 509.203753 
L 571.921209 493.420405 
L 572.32452 491.236891 
L 572.725798 506.966538 
L 573.125065 492.43176 
L 573.52234 491.580104 
L 573.917644 499.246992 
L 574.702415 492.840192 
L 575.091919 511.451031 
L 575.479529 505.592912 
L 575.865261 511.984763 
L 576.249135 509.94958 
L 576.631167 507.042969 
L 577.011376 499.13184 
L 577.389778 510.227035 
L 577.766391 492.994316 
L 578.141232 492.616325 
L 578.514318 502.976754 
L 578.885664 497.544666 
L 579.255287 504.736053 
L 579.623202 515.249963 
L 579.989426 502.530476 
L 580.353974 500.423753 
L 580.716861 534.423791 
L 581.078102 495.591858 
L 581.437713 494.968713 
L 581.795707 489.884674 
L 582.152099 519.913617 
L 582.506904 509.744791 
L 582.860136 504.765768 
L 583.211808 495.901009 
L 583.561934 515.78967 
L 583.910528 481.474836 
L 584.257603 533.34432 
L 584.603172 495.72867 
L 584.947248 492.627304 
L 585.289845 493.673978 
L 585.630974 512.765111 
L 585.970649 501.741728 
L 586.308881 525.20992 
L 586.645683 521.164052 
L 586.981067 507.061134 
L 587.315045 504.301671 
L 587.647628 498.526359 
L 587.978828 504.305836 
L 588.308657 501.407105 
L 588.637126 489.234145 
L 588.964246 494.115305 
L 589.290028 505.442873 
L 589.614483 492.934922 
L 590.259454 504.463863 
L 590.579992 488.830839 
L 590.899246 524.956682 
L 591.217224 505.473172 
L 591.849399 488.528717 
L 592.163614 497.382521 
L 592.788352 491.548938 
L 593.098892 490.7573 
L 593.716365 522.757272 
L 594.023315 497.783159 
L 594.633691 516.363408 
L 594.937133 497.661369 
L 595.540572 507.500184 
L 595.840586 508.390306 
L 596.139474 500.976394 
L 596.437245 506.762696 
L 596.733906 522.112279 
L 597.029467 500.935703 
L 597.323936 502.726443 
L 597.617319 508.96501 
L 597.909626 489.286442 
L 598.200864 520.907763 
L 598.491042 491.671074 
L 598.780166 491.610679 
L 599.068244 494.272139 
L 599.355284 483.707954 
L 599.92628 513.533213 
L 600.21025 519.899784 
L 600.493212 514.843918 
L 600.775172 539.453879 
L 601.056137 516.304362 
L 601.336115 511.475348 
L 601.615112 501.006239 
L 601.893135 507.240986 
L 602.170191 490.463278 
L 602.721429 503.982589 
L 602.995624 486.906237 
L 603.268878 517.03347 
L 603.541199 520.792465 
L 603.812591 512.302702 
L 604.083062 512.137436 
L 604.352617 501.698351 
L 604.621264 509.026773 
L 604.889007 525.822318 
L 605.155853 492.852232 
L 605.686879 497.334694 
L 605.95107 505.901148 
L 606.214388 507.980919 
L 606.476838 499.249218 
L 606.738427 518.439834 
L 606.999159 500.970694 
L 607.25904 498.774222 
L 607.518076 520.352508 
L 607.776273 494.088592 
L 608.033635 516.613822 
L 608.290169 505.302948 
L 608.80077 526.862585 
L 609.054849 493.152855 
L 609.308119 492.703648 
L 609.560587 507.52258 
L 609.812258 501.860233 
L 610.063135 510.413659 
L 610.313225 492.053555 
L 610.562532 491.478298 
L 610.811062 498.036369 
L 611.305806 492.443641 
L 611.55203 507.344781 
L 611.797496 487.763136 
L 612.042208 519.735551 
L 612.771864 486.476032 
L 613.013605 484.518244 
L 613.494897 515.186867 
L 613.734457 486.948403 
L 613.973298 496.322729 
L 614.211426 497.989066 
L 614.448843 523.803146 
L 614.685555 515.589159 
L 614.921566 515.041981 
L 615.15688 523.481824 
L 615.3915 488.703834 
L 615.625431 505.390149 
L 615.858678 511.898415 
L 616.091243 503.762389 
L 616.323131 501.92524 
L 616.554347 504.28771 
L 616.784892 493.132967 
L 617.014773 491.285211 
L 617.243992 499.567341 
L 617.472553 500.735766 
L 617.700461 499.751187 
L 617.927718 502.098613 
L 618.154329 515.255296 
L 618.380296 498.002986 
L 618.605625 502.206607 
L 618.830318 496.006648 
L 619.054379 501.483219 
L 619.277811 503.070443 
L 619.500618 491.932579 
L 619.722804 521.552709 
L 619.944372 492.716575 
L 620.165325 494.334955 
L 620.385667 511.780497 
L 620.605401 513.222792 
L 620.824531 487.069523 
L 621.26099 496.663428 
L 621.478326 511.784768 
L 621.69507 513.783966 
L 621.911227 483.970854 
L 622.126798 510.401086 
L 622.341787 489.264122 
L 622.556198 512.460973 
L 622.770034 494.542924 
L 622.983296 508.111515 
L 623.195989 491.397047 
L 623.408116 515.480955 
L 623.61968 493.006757 
L 623.830683 502.474133 
L 624.041128 505.005426 
L 624.251019 499.302204 
L 624.460358 507.982639 
L 624.669149 500.959406 
L 624.877394 507.906833 
L 625.085096 502.518914 
L 625.292257 522.507075 
L 625.498881 489.092136 
L 625.704971 501.533242 
L 625.910528 503.686878 
L 626.115557 501.569859 
L 626.320059 497.737204 
L 626.524038 527.982376 
L 626.727495 484.70458 
L 626.930435 505.330633 
L 627.132858 499.345479 
L 627.334768 520.529225 
L 627.536168 482.03133 
L 627.73706 515.692023 
L 627.937446 487.433406 
L 628.13733 543.702226 
L 628.336713 497.143744 
L 628.733989 514.57549 
L 629.129293 490.58623 
L 629.326211 489.050937 
L 629.522644 501.070978 
L 629.718594 501.348928 
L 629.914063 499.972016 
L 630.109054 519.588895 
L 630.303568 512.553058 
L 630.497608 493.48302 
L 630.691177 492.851909 
L 631.07691 506.062269 
L 631.269078 487.98656 
L 631.460783 517.686919 
L 631.652028 493.829497 
L 631.842815 494.581164 
L 632.033146 480.45681 
L 632.41245 522.179857 
L 632.789956 481.960274 
L 632.97804 500.108578 
L 633.165681 477.576138 
L 633.352881 499.353041 
L 633.539642 501.952722 
L 633.725966 488.835866 
L 633.911856 519.23232 
L 634.097312 500.318735 
L 634.466935 487.083115 
L 634.651105 493.060715 
L 634.83485 507.039783 
L 635.018173 509.064761 
L 635.201074 498.440314 
L 635.383557 531.003046 
L 635.747272 486.463755 
L 635.928509 506.556432 
L 636.109335 506.833949 
L 636.289751 491.167342 
L 636.649361 520.643236 
L 637.007355 483.032635 
L 637.185751 533.400552 
L 637.363748 490.962445 
L 637.541348 529.993506 
L 637.718553 497.464702 
L 638.071784 521.058832 
L 638.247814 491.182048 
L 638.423456 489.339053 
L 638.773582 507.435561 
L 638.94807 503.605721 
L 639.122176 492.706414 
L 639.295903 504.825592 
L 639.469251 499.321495 
L 639.642223 554.185684 
L 639.81482 497.651141 
L 639.987044 491.681875 
L 640.158897 511.575163 
L 640.501493 491.587211 
L 640.67224 528.694333 
L 641.012641 492.285445 
L 641.182297 481.255021 
L 641.351593 493.489551 
L 641.520529 531.120145 
L 641.689108 527.417273 
L 642.0252 486.319223 
L 642.359879 494.413098 
L 642.526693 504.814125 
L 642.693158 479.79585 
L 642.859276 496.891021 
L 643.025049 483.082666 
L 643.190477 511.54453 
L 643.355562 508.270377 
L 643.520306 501.575688 
L 643.848774 502.665717 
L 644.012502 488.631664 
L 644.175894 488.570897 
L 644.338952 494.081855 
L 644.501676 528.234957 
L 644.664069 526.794127 
L 644.826131 496.498148 
L 644.987864 503.320928 
L 645.14927 478.659266 
L 645.471103 539.555332 
L 645.791641 503.362385 
L 645.951427 508.552982 
L 646.110894 506.899709 
L 646.270042 518.166414 
L 646.587387 501.171638 
L 646.745587 497.209483 
L 647.21831 520.363104 
L 647.375263 507.539916 
L 647.531907 528.243723 
L 647.688244 503.542888 
L 647.844274 516.23739 
L 647.844274 516.23739 
" style="fill:none;stroke:#b22222;stroke-linecap:round;stroke-width:1.75;"/>
   </g>
   <g id="patch_6">
    <path d="M 90 512.64 
L 90 311.04 
" style="fill:none;stroke:#262626;stroke-linecap:square;stroke-linejoin:miter;stroke-width:1.25;"/>
   </g>
   <g id="patch_7">
    <path d="M 90 512.64 
L 648 512.64 
" style="fill:none;stroke:#262626;stroke-linecap:square;stroke-linejoin:miter;stroke-width:1.25;"/>
   </g>
  </g>
 </g>
 <defs>
  <clipPath id="p21cbe45810">
   <rect height="201.6" width="558" x="90" y="69.12"/>
  </clipPath>
  <clipPath id="p68562f22d8">
   <rect height="201.6" width="558" x="90" y="311.04"/>
  </clipPath>
 </defs>
</svg>
