<?xml version="1.0" encoding="utf-8" standalone="no"?>
<!DOCTYPE svg PUBLIC "-//W3C//DTD SVG 1.1//EN"
  "http://www.w3.org/Graphics/SVG/1.1/DTD/svg11.dtd">
<!-- Created with matplotlib (http://matplotlib.org/) -->
<svg height="576pt" version="1.1" viewBox="0 0 720 576" width="720pt" xmlns="http://www.w3.org/2000/svg" xmlns:xlink="http://www.w3.org/1999/xlink">
 <defs>
  <style type="text/css">
*{stroke-linecap:butt;stroke-linejoin:round;}
  </style>
 </defs>
 <g id="figure_1">
  <g id="patch_1">
   <path d="M 0 576 
L 720 576 
L 720 0 
L 0 0 
z
" style="fill:#ffffff;"/>
  </g>
  <g id="axes_1">
   <g id="patch_2">
    <path d="M 90 270.72 
L 648 270.72 
L 648 69.12 
L 90 69.12 
z
" style="fill:#ffffff;"/>
   </g>
   <g id="matplotlib.axis_1">
    <g id="xtick_1">
     <g id="line2d_1">
      <defs>
       <path d="M 0 0 
L 0 6 
" id="m55c1f5a671" style="stroke:#262626;"/>
      </defs>
      <g>
       <use style="fill:#262626;stroke:#262626;" x="90" xlink:href="#m55c1f5a671" y="270.72"/>
      </g>
     </g>
     <g id="text_1">
      <!-- 0 -->
      <defs>
       <path d="M 4.15625 35.296875 
Q 4.15625 48 6.765625 55.734375 
Q 9.375 63.484375 14.515625 67.671875 
Q 19.671875 71.875 27.484375 71.875 
Q 33.25 71.875 37.59375 69.546875 
Q 41.9375 67.234375 44.765625 62.859375 
Q 47.609375 58.5 49.21875 52.21875 
Q 50.828125 45.953125 50.828125 35.296875 
Q 50.828125 22.703125 48.234375 14.96875 
Q 45.65625 7.234375 40.5 3 
Q 35.359375 -1.21875 27.484375 -1.21875 
Q 17.140625 -1.21875 11.234375 6.203125 
Q 4.15625 15.140625 4.15625 35.296875 
z
M 13.1875 35.296875 
Q 13.1875 17.671875 17.3125 11.828125 
Q 21.4375 6 27.484375 6 
Q 33.546875 6 37.671875 11.859375 
Q 41.796875 17.71875 41.796875 35.296875 
Q 41.796875 52.984375 37.671875 58.78125 
Q 33.546875 64.59375 27.390625 64.59375 
Q 21.34375 64.59375 17.71875 59.46875 
Q 13.1875 52.9375 13.1875 35.296875 
z
" id="ArialMT-30"/>
      </defs>
      <g style="fill:#262626;" transform="translate(87.219531 290.877812)scale(0.1 -0.1)">
       <use xlink:href="#ArialMT-30"/>
      </g>
     </g>
    </g>
    <g id="xtick_2">
     <g id="line2d_2">
      <g>
       <use style="fill:#262626;stroke:#262626;" x="198.984375" xlink:href="#m55c1f5a671" y="270.72"/>
      </g>
     </g>
     <g id="text_2">
      <!-- 200 -->
      <defs>
       <path d="M 50.34375 8.453125 
L 50.34375 0 
L 3.03125 0 
Q 2.9375 3.171875 4.046875 6.109375 
Q 5.859375 10.9375 9.828125 15.625 
Q 13.8125 20.3125 21.34375 26.46875 
Q 33.015625 36.03125 37.109375 41.625 
Q 41.21875 47.21875 41.21875 52.203125 
Q 41.21875 57.421875 37.46875 61 
Q 33.734375 64.59375 27.734375 64.59375 
Q 21.390625 64.59375 17.578125 60.78125 
Q 13.765625 56.984375 13.71875 50.25 
L 4.6875 51.171875 
Q 5.609375 61.28125 11.65625 66.578125 
Q 17.71875 71.875 27.9375 71.875 
Q 38.234375 71.875 44.234375 66.15625 
Q 50.25 60.453125 50.25 52 
Q 50.25 47.703125 48.484375 43.546875 
Q 46.734375 39.40625 42.65625 34.8125 
Q 38.578125 30.21875 29.109375 22.21875 
Q 21.1875 15.578125 18.9375 13.203125 
Q 16.703125 10.84375 15.234375 8.453125 
z
" id="ArialMT-32"/>
      </defs>
      <g style="fill:#262626;" transform="translate(190.642969 290.877812)scale(0.1 -0.1)">
       <use xlink:href="#ArialMT-32"/>
       <use x="55.615234" xlink:href="#ArialMT-30"/>
       <use x="111.230469" xlink:href="#ArialMT-30"/>
      </g>
     </g>
    </g>
    <g id="xtick_3">
     <g id="line2d_3">
      <g>
       <use style="fill:#262626;stroke:#262626;" x="307.96875" xlink:href="#m55c1f5a671" y="270.72"/>
      </g>
     </g>
     <g id="text_3">
      <!-- 400 -->
      <defs>
       <path d="M 32.328125 0 
L 32.328125 17.140625 
L 1.265625 17.140625 
L 1.265625 25.203125 
L 33.9375 71.578125 
L 41.109375 71.578125 
L 41.109375 25.203125 
L 50.78125 25.203125 
L 50.78125 17.140625 
L 41.109375 17.140625 
L 41.109375 0 
z
M 32.328125 25.203125 
L 32.328125 57.46875 
L 9.90625 25.203125 
z
" id="ArialMT-34"/>
      </defs>
      <g style="fill:#262626;" transform="translate(299.627344 290.877812)scale(0.1 -0.1)">
       <use xlink:href="#ArialMT-34"/>
       <use x="55.615234" xlink:href="#ArialMT-30"/>
       <use x="111.230469" xlink:href="#ArialMT-30"/>
      </g>
     </g>
    </g>
    <g id="xtick_4">
     <g id="line2d_4">
      <g>
       <use style="fill:#262626;stroke:#262626;" x="416.953125" xlink:href="#m55c1f5a671" y="270.72"/>
      </g>
     </g>
     <g id="text_4">
      <!-- 600 -->
      <defs>
       <path d="M 49.75 54.046875 
L 41.015625 53.375 
Q 39.84375 58.546875 37.703125 60.890625 
Q 34.125 64.65625 28.90625 64.65625 
Q 24.703125 64.65625 21.53125 62.3125 
Q 17.390625 59.28125 14.984375 53.46875 
Q 12.59375 47.65625 12.5 36.921875 
Q 15.671875 41.75 20.265625 44.09375 
Q 24.859375 46.4375 29.890625 46.4375 
Q 38.671875 46.4375 44.84375 39.96875 
Q 51.03125 33.5 51.03125 23.25 
Q 51.03125 16.5 48.125 10.71875 
Q 45.21875 4.9375 40.140625 1.859375 
Q 35.0625 -1.21875 28.609375 -1.21875 
Q 17.625 -1.21875 10.6875 6.859375 
Q 3.765625 14.9375 3.765625 33.5 
Q 3.765625 54.25 11.421875 63.671875 
Q 18.109375 71.875 29.4375 71.875 
Q 37.890625 71.875 43.28125 67.140625 
Q 48.6875 62.40625 49.75 54.046875 
z
M 13.875 23.1875 
Q 13.875 18.65625 15.796875 14.5 
Q 17.71875 10.359375 21.1875 8.171875 
Q 24.65625 6 28.46875 6 
Q 34.03125 6 38.03125 10.484375 
Q 42.046875 14.984375 42.046875 22.703125 
Q 42.046875 30.125 38.078125 34.390625 
Q 34.125 38.671875 28.125 38.671875 
Q 22.171875 38.671875 18.015625 34.390625 
Q 13.875 30.125 13.875 23.1875 
z
" id="ArialMT-36"/>
      </defs>
      <g style="fill:#262626;" transform="translate(408.611719 290.877812)scale(0.1 -0.1)">
       <use xlink:href="#ArialMT-36"/>
       <use x="55.615234" xlink:href="#ArialMT-30"/>
       <use x="111.230469" xlink:href="#ArialMT-30"/>
      </g>
     </g>
    </g>
    <g id="xtick_5">
     <g id="line2d_5">
      <g>
       <use style="fill:#262626;stroke:#262626;" x="525.9375" xlink:href="#m55c1f5a671" y="270.72"/>
      </g>
     </g>
     <g id="text_5">
      <!-- 800 -->
      <defs>
       <path d="M 17.671875 38.8125 
Q 12.203125 40.828125 9.5625 44.53125 
Q 6.9375 48.25 6.9375 53.421875 
Q 6.9375 61.234375 12.546875 66.546875 
Q 18.171875 71.875 27.484375 71.875 
Q 36.859375 71.875 42.578125 66.421875 
Q 48.296875 60.984375 48.296875 53.171875 
Q 48.296875 48.1875 45.671875 44.5 
Q 43.0625 40.828125 37.75 38.8125 
Q 44.34375 36.671875 47.78125 31.875 
Q 51.21875 27.09375 51.21875 20.453125 
Q 51.21875 11.28125 44.71875 5.03125 
Q 38.234375 -1.21875 27.640625 -1.21875 
Q 17.046875 -1.21875 10.546875 5.046875 
Q 4.046875 11.328125 4.046875 20.703125 
Q 4.046875 27.6875 7.59375 32.390625 
Q 11.140625 37.109375 17.671875 38.8125 
z
M 15.921875 53.71875 
Q 15.921875 48.640625 19.1875 45.40625 
Q 22.46875 42.1875 27.6875 42.1875 
Q 32.765625 42.1875 36.015625 45.375 
Q 39.265625 48.578125 39.265625 53.21875 
Q 39.265625 58.0625 35.90625 61.359375 
Q 32.5625 64.65625 27.59375 64.65625 
Q 22.5625 64.65625 19.234375 61.421875 
Q 15.921875 58.203125 15.921875 53.71875 
z
M 13.09375 20.65625 
Q 13.09375 16.890625 14.875 13.375 
Q 16.65625 9.859375 20.171875 7.921875 
Q 23.6875 6 27.734375 6 
Q 34.03125 6 38.125 10.046875 
Q 42.234375 14.109375 42.234375 20.359375 
Q 42.234375 26.703125 38.015625 30.859375 
Q 33.796875 35.015625 27.4375 35.015625 
Q 21.234375 35.015625 17.15625 30.90625 
Q 13.09375 26.8125 13.09375 20.65625 
z
" id="ArialMT-38"/>
      </defs>
      <g style="fill:#262626;" transform="translate(517.596094 290.877812)scale(0.1 -0.1)">
       <use xlink:href="#ArialMT-38"/>
       <use x="55.615234" xlink:href="#ArialMT-30"/>
       <use x="111.230469" xlink:href="#ArialMT-30"/>
      </g>
     </g>
    </g>
    <g id="xtick_6">
     <g id="line2d_6">
      <g>
       <use style="fill:#262626;stroke:#262626;" x="634.921875" xlink:href="#m55c1f5a671" y="270.72"/>
      </g>
     </g>
     <g id="text_6">
      <!-- 1000 -->
      <defs>
       <path d="M 37.25 0 
L 28.46875 0 
L 28.46875 56 
Q 25.296875 52.984375 20.140625 49.953125 
Q 14.984375 46.921875 10.890625 45.40625 
L 10.890625 53.90625 
Q 18.265625 57.375 23.78125 62.296875 
Q 29.296875 67.234375 31.59375 71.875 
L 37.25 71.875 
z
" id="ArialMT-31"/>
      </defs>
      <g style="fill:#262626;" transform="translate(623.8 290.877812)scale(0.1 -0.1)">
       <use xlink:href="#ArialMT-31"/>
       <use x="55.615234" xlink:href="#ArialMT-30"/>
       <use x="111.230469" xlink:href="#ArialMT-30"/>
       <use x="166.845703" xlink:href="#ArialMT-30"/>
      </g>
     </g>
    </g>
   </g>
   <g id="matplotlib.axis_2">
    <g id="ytick_1">
     <g id="line2d_7">
      <defs>
       <path d="M 0 0 
L -6 0 
" id="m735b7b70c1" style="stroke:#262626;"/>
      </defs>
      <g>
       <use style="fill:#262626;stroke:#262626;" x="90" xlink:href="#m735b7b70c1" y="270.72"/>
      </g>
     </g>
     <g id="text_7">
      <!-- −0.6 -->
      <defs>
       <path d="M 52.828125 31.203125 
L 5.5625 31.203125 
L 5.5625 39.40625 
L 52.828125 39.40625 
z
" id="ArialMT-2212"/>
       <path d="M 9.078125 0 
L 9.078125 10.015625 
L 19.09375 10.015625 
L 19.09375 0 
z
" id="ArialMT-2e"/>
      </defs>
      <g style="fill:#262626;" transform="translate(57.259375 274.298906)scale(0.1 -0.1)">
       <use xlink:href="#ArialMT-2212"/>
       <use x="58.398438" xlink:href="#ArialMT-30"/>
       <use x="114.013672" xlink:href="#ArialMT-2e"/>
       <use x="141.796875" xlink:href="#ArialMT-36"/>
      </g>
     </g>
    </g>
    <g id="ytick_2">
     <g id="line2d_8">
      <g>
       <use style="fill:#262626;stroke:#262626;" x="90" xlink:href="#m735b7b70c1" y="237.12"/>
      </g>
     </g>
     <g id="text_8">
      <!-- −0.4 -->
      <g style="fill:#262626;" transform="translate(57.259375 240.698906)scale(0.1 -0.1)">
       <use xlink:href="#ArialMT-2212"/>
       <use x="58.398438" xlink:href="#ArialMT-30"/>
       <use x="114.013672" xlink:href="#ArialMT-2e"/>
       <use x="141.796875" xlink:href="#ArialMT-34"/>
      </g>
     </g>
    </g>
    <g id="ytick_3">
     <g id="line2d_9">
      <g>
       <use style="fill:#262626;stroke:#262626;" x="90" xlink:href="#m735b7b70c1" y="203.52"/>
      </g>
     </g>
     <g id="text_9">
      <!-- −0.2 -->
      <g style="fill:#262626;" transform="translate(57.259375 207.098906)scale(0.1 -0.1)">
       <use xlink:href="#ArialMT-2212"/>
       <use x="58.398438" xlink:href="#ArialMT-30"/>
       <use x="114.013672" xlink:href="#ArialMT-2e"/>
       <use x="141.796875" xlink:href="#ArialMT-32"/>
      </g>
     </g>
    </g>
    <g id="ytick_4">
     <g id="line2d_10">
      <g>
       <use style="fill:#262626;stroke:#262626;" x="90" xlink:href="#m735b7b70c1" y="169.92"/>
      </g>
     </g>
     <g id="text_10">
      <!-- 0.0 -->
      <g style="fill:#262626;" transform="translate(63.1 173.498906)scale(0.1 -0.1)">
       <use xlink:href="#ArialMT-30"/>
       <use x="55.615234" xlink:href="#ArialMT-2e"/>
       <use x="83.398438" xlink:href="#ArialMT-30"/>
      </g>
     </g>
    </g>
    <g id="ytick_5">
     <g id="line2d_11">
      <g>
       <use style="fill:#262626;stroke:#262626;" x="90" xlink:href="#m735b7b70c1" y="136.32"/>
      </g>
     </g>
     <g id="text_11">
      <!-- 0.2 -->
      <g style="fill:#262626;" transform="translate(63.1 139.898906)scale(0.1 -0.1)">
       <use xlink:href="#ArialMT-30"/>
       <use x="55.615234" xlink:href="#ArialMT-2e"/>
       <use x="83.398438" xlink:href="#ArialMT-32"/>
      </g>
     </g>
    </g>
    <g id="ytick_6">
     <g id="line2d_12">
      <g>
       <use style="fill:#262626;stroke:#262626;" x="90" xlink:href="#m735b7b70c1" y="102.72"/>
      </g>
     </g>
     <g id="text_12">
      <!-- 0.4 -->
      <g style="fill:#262626;" transform="translate(63.1 106.298906)scale(0.1 -0.1)">
       <use xlink:href="#ArialMT-30"/>
       <use x="55.615234" xlink:href="#ArialMT-2e"/>
       <use x="83.398438" xlink:href="#ArialMT-34"/>
      </g>
     </g>
    </g>
    <g id="ytick_7">
     <g id="line2d_13">
      <g>
       <use style="fill:#262626;stroke:#262626;" x="90" xlink:href="#m735b7b70c1" y="69.12"/>
      </g>
     </g>
     <g id="text_13">
      <!-- 0.6 -->
      <g style="fill:#262626;" transform="translate(63.1 72.698906)scale(0.1 -0.1)">
       <use xlink:href="#ArialMT-30"/>
       <use x="55.615234" xlink:href="#ArialMT-2e"/>
       <use x="83.398438" xlink:href="#ArialMT-36"/>
      </g>
     </g>
    </g>
   </g>
   <g id="line2d_14">
    <path clip-path="url(#p5c39028c45)" d="M 90 170.432695 
L 90.544922 170.796709 
L 91.089844 170.822344 
L 91.634766 171.627275 
L 92.179688 172.037432 
L 92.724609 172.61165 
L 93.269531 173.365312 
L 94.359375 175.257158 
L 96.539062 178.492266 
L 97.083984 179.389482 
L 97.628906 180.050859 
L 98.71875 180.912187 
L 99.808594 181.030107 
L 100.353516 180.481523 
L 101.443359 178.379473 
L 103.623047 171.852861 
L 104.167969 170.519854 
L 104.712891 169.817461 
L 105.257812 169.304766 
L 105.802734 169.397051 
L 106.892578 170.945391 
L 107.4375 172.401445 
L 109.072266 178.789629 
L 110.162109 184.285723 
L 111.796875 191.494219 
L 112.341797 193.139971 
L 112.886719 193.893633 
L 113.431641 193.775713 
L 113.976562 193.49373 
L 115.066406 190.612383 
L 116.701172 185.577715 
L 117.246094 183.798662 
L 117.791016 182.706621 
L 118.335938 181.091631 
L 119.425781 178.558916 
L 119.970703 177.220781 
L 121.605469 174.242021 
L 122.150391 173.79085 
L 122.695312 173.165361 
L 123.240234 172.970537 
L 124.330078 172.396318 
L 125.964844 171.745195 
L 126.509766 171.591387 
L 127.054688 171.719561 
L 127.599609 171.473467 
L 128.144531 171.83748 
L 128.689453 172.339922 
L 129.234375 172.627031 
L 130.869141 174.923906 
L 133.048828 177.897539 
L 133.59375 178.358965 
L 134.138672 178.548662 
L 134.683594 178.5179 
L 135.228516 178.112871 
L 135.773438 177.37459 
L 139.042969 170.960771 
L 139.587891 170.135332 
L 140.132812 169.591875 
L 141.222656 168.202471 
L 142.857422 164.516191 
L 143.947266 161.942461 
L 144.492188 160.983721 
L 145.582031 160.081377 
L 146.126953 160.471025 
L 146.671875 161.117021 
L 147.216797 162.142412 
L 149.396484 167.310381 
L 149.941406 168.294756 
L 151.03125 169.479082 
L 151.576172 169.714922 
L 152.121094 169.709795 
L 153.210938 169.191973 
L 153.755859 168.802324 
L 154.845703 167.571855 
L 156.480469 165.910723 
L 157.025391 165.644121 
L 157.570312 165.715898 
L 158.660156 166.551592 
L 161.929688 172.673174 
L 163.019531 174.493242 
L 164.109375 174.831621 
L 164.654297 174.652178 
L 165.199219 174.036943 
L 165.744141 172.960283 
L 166.833984 169.827715 
L 168.46875 162.906328 
L 169.558594 158.384355 
L 170.103516 156.543779 
L 170.648438 155.251787 
L 171.193359 154.334062 
L 171.738281 154.062334 
L 172.283203 154.190508 
L 172.828125 154.093096 
L 173.917969 155.18001 
L 176.642578 159.48665 
L 177.1875 160.071123 
L 177.732422 160.85042 
L 179.367188 162.16292 
L 179.912109 162.378252 
L 180.457031 163.019121 
L 181.001953 163.193437 
L 182.091797 163.890703 
L 182.636719 164.106035 
L 183.181641 164.500811 
L 183.726562 165.034014 
L 184.271484 165.351885 
L 185.361328 166.464434 
L 185.90625 167.192461 
L 186.996094 169.49959 
L 189.175781 174.288164 
L 190.265625 175.534014 
L 190.810547 175.246904 
L 191.355469 174.69832 
L 191.900391 173.990801 
L 194.080078 169.21248 
L 194.625 167.602617 
L 196.259766 163.572832 
L 197.349609 162.388506 
L 197.894531 162.58333 
L 198.439453 163.624102 
L 198.984375 165.300615 
L 200.074219 170.145586 
L 201.708984 178.353838 
L 202.253906 180.768633 
L 203.34375 184.378008 
L 204.433594 186.146807 
L 204.978516 186.44417 
L 205.523438 186.218584 
L 206.068359 186.249346 
L 206.613281 185.695635 
L 207.703125 183.373125 
L 208.792969 180.609697 
L 211.517578 174.303545 
L 212.607422 172.180986 
L 213.152344 171.488848 
L 213.697266 170.52498 
L 215.332031 168.935625 
L 216.966797 167.966631 
L 217.511719 167.505205 
L 218.056641 167.407793 
L 218.601562 167.146318 
L 219.691406 167.074541 
L 220.78125 167.935869 
L 221.871094 169.92 
L 222.960938 172.647539 
L 224.050781 174.498369 
L 225.140625 175.005937 
L 225.685547 174.734209 
L 226.230469 174.32918 
L 226.775391 173.508867 
L 227.320312 173.139727 
L 229.5 170.853105 
L 230.589844 169.85335 
L 231.679688 167.848711 
L 232.224609 166.541338 
L 233.859375 161.686113 
L 234.949219 159.050859 
L 235.494141 158.17415 
L 236.039062 157.599932 
L 236.583984 157.312822 
L 237.128906 157.425615 
L 237.673828 157.743486 
L 238.21875 158.230547 
L 238.763672 158.912432 
L 239.853516 160.96834 
L 240.943359 163.454912 
L 241.488281 164.526445 
L 242.578125 166.346514 
L 243.123047 166.33626 
L 243.667969 166.525957 
L 244.212891 166.469561 
L 245.847656 165.116045 
L 246.9375 163.752275 
L 248.027344 163.049883 
L 248.572266 163.096025 
L 249.117188 162.890947 
L 249.662109 163.42415 
L 250.207031 163.557451 
L 250.751953 164.546953 
L 251.296875 165.136553 
L 252.931641 168.981768 
L 254.021484 171.663164 
L 254.566406 172.72957 
L 255.65625 173.43709 
L 256.201172 173.221758 
L 256.746094 172.42708 
L 257.835938 169.858477 
L 259.470703 164.029131 
L 260.560547 159.794268 
L 261.650391 156.277178 
L 262.195312 154.87752 
L 262.740234 153.913652 
L 263.285156 153.308672 
L 263.830078 152.929277 
L 264.375 152.785723 
L 264.919922 153.067705 
L 267.099609 155.338945 
L 267.644531 156.046465 
L 268.734375 157.133379 
L 269.279297 157.794756 
L 270.369141 159.532793 
L 272.003906 161.08626 
L 272.548828 161.240068 
L 274.728516 161.234941 
L 275.273438 161.706621 
L 275.818359 162.34749 
L 276.363281 163.244707 
L 279.632812 169.98665 
L 281.267578 172.627031 
L 281.8125 173.098711 
L 282.357422 173.821611 
L 282.902344 173.754961 
L 283.447266 173.293535 
L 283.992188 172.468096 
L 284.537109 171.170977 
L 285.082031 169.458574 
L 286.171875 165.331377 
L 287.261719 161.906572 
L 287.806641 160.594072 
L 288.351562 159.968584 
L 288.896484 160.189043 
L 289.441406 160.78377 
L 289.986328 161.947588 
L 291.076172 165.736406 
L 292.166016 170.422441 
L 294.345703 179.902178 
L 295.435547 183.152666 
L 295.980469 184.029375 
L 297.070312 184.788164 
L 298.160156 184.29085 
L 299.794922 181.409502 
L 301.974609 176.051836 
L 302.519531 174.667559 
L 303.609375 172.565508 
L 305.244141 170.412187 
L 305.789062 170.012285 
L 306.333984 169.125322 
L 306.878906 168.48958 
L 307.423828 167.202715 
L 309.058594 164.875078 
L 309.603516 164.505937 
L 310.148438 164.285479 
L 310.693359 164.567461 
L 311.238281 165.157061 
L 313.962891 170.545488 
L 315.052734 171.58626 
L 315.597656 171.611895 
L 316.142578 171.806719 
L 317.232422 172.016924 
L 318.867188 172.550127 
L 319.412109 172.632158 
L 319.957031 172.550127 
L 321.046875 172.032305 
L 321.591797 171.273516 
L 322.681641 168.858721 
L 324.861328 162.947344 
L 325.40625 161.224687 
L 326.496094 158.71248 
L 327.041016 157.63582 
L 328.130859 156.318193 
L 329.220703 156.502764 
L 329.765625 157.03084 
L 330.855469 158.738115 
L 331.400391 160.055742 
L 331.945312 160.727373 
L 332.490234 161.86043 
L 334.669922 163.936846 
L 335.214844 164.439287 
L 335.759766 164.270098 
L 336.304688 164.259844 
L 337.394531 163.547197 
L 338.484375 162.265459 
L 339.574219 161.378496 
L 340.119141 160.845293 
L 340.664062 160.937578 
L 341.208984 161.33748 
L 341.753906 161.563066 
L 342.84375 163.388262 
L 345.023438 169.366289 
L 346.113281 171.227373 
L 346.658203 171.801592 
L 347.203125 171.960527 
L 347.748047 171.9554 
L 348.292969 171.155596 
L 348.837891 170.063555 
L 349.927734 166.997637 
L 351.017578 162.75252 
L 352.107422 158.717607 
L 353.197266 155.60042 
L 354.287109 153.554766 
L 354.832031 152.749834 
L 355.376953 152.155107 
L 355.921875 151.36043 
L 356.466797 151.063066 
L 357.556641 151.201494 
L 358.646484 152.631914 
L 359.191406 153.964922 
L 361.371094 157.076982 
L 361.916016 157.507646 
L 362.460938 157.630693 
L 363.005859 157.92293 
L 363.550781 157.876787 
L 364.095703 158.010088 
L 364.640625 158.512529 
L 365.185547 158.732988 
L 366.820312 160.0096 
L 367.365234 160.635088 
L 367.910156 161.014482 
L 369 162.619219 
L 370.089844 165.233965 
L 372.269531 171.29915 
L 373.359375 172.970537 
L 373.904297 173.185869 
L 374.449219 172.975664 
L 375.539062 171.042803 
L 376.083984 169.479082 
L 377.173828 165.685137 
L 378.808594 160.235186 
L 379.353516 159.225176 
L 379.898438 158.471514 
L 380.443359 158.507402 
L 380.988281 158.968828 
L 381.533203 160.101885 
L 382.078125 161.547686 
L 383.167969 165.556963 
L 386.4375 179.030596 
L 387.527344 182.024736 
L 388.072266 183.183428 
L 388.617188 184.080645 
L 389.162109 184.008867 
L 389.707031 183.721758 
L 390.251953 183.080889 
L 393.521484 176.969561 
L 395.15625 175.093096 
L 396.246094 173.498613 
L 397.335938 170.955645 
L 398.425781 167.910234 
L 398.970703 167.007891 
L 399.515625 165.756914 
L 400.060547 164.97249 
L 400.605469 164.705889 
L 401.150391 164.716143 
L 401.695312 164.875078 
L 402.785156 165.987627 
L 403.330078 166.792559 
L 404.419922 167.935869 
L 405.509766 169.509844 
L 409.869141 174.052324 
L 410.958984 174.939287 
L 411.503906 174.811113 
L 412.048828 175.005937 
L 412.59375 174.621416 
L 413.683594 173.119219 
L 414.228516 172.001543 
L 417.498047 162.480791 
L 418.587891 160.460771 
L 419.132812 159.778887 
L 419.677734 159.332842 
L 420.222656 159.204668 
L 421.3125 159.47127 
L 422.947266 161.547686 
L 423.492188 162.239824 
L 424.037109 163.311357 
L 425.671875 165.741533 
L 426.216797 166.044023 
L 426.761719 166.541338 
L 427.306641 166.418291 
L 427.851562 166.561846 
L 428.396484 165.946611 
L 428.941406 165.74666 
L 430.03125 164.521318 
L 431.121094 163.731768 
L 431.666016 163.639482 
L 432.755859 164.039385 
L 433.300781 164.536699 
L 434.390625 166.782305 
L 436.570312 173.426836 
L 437.115234 174.754717 
L 437.660156 175.672441 
L 438.205078 176.056963 
L 438.75 175.959551 
L 439.294922 175.477617 
L 440.384766 173.560137 
L 440.929688 172.570635 
L 442.019531 169.822588 
L 442.564453 168.402422 
L 443.109375 166.377275 
L 443.654297 164.90584 
L 445.289062 159.435381 
L 446.378906 156.564287 
L 446.923828 155.83626 
L 447.46875 155.60042 
L 448.013672 155.518389 
L 448.558594 155.913164 
L 449.103516 156.082354 
L 449.648438 156.72835 
L 450.738281 157.507646 
L 451.283203 157.928057 
L 452.373047 159.250811 
L 452.917969 159.578936 
L 453.462891 160.363359 
L 455.097656 161.763018 
L 455.642578 161.988604 
L 456.732422 162.086016 
L 457.277344 161.932207 
L 458.367188 162.203936 
L 458.912109 162.624346 
L 460.001953 163.967607 
L 460.546875 165.556963 
L 461.091797 166.797686 
L 461.636719 168.335771 
L 462.181641 170.294268 
L 462.726562 171.601641 
L 463.271484 173.590898 
L 464.361328 175.928789 
L 464.90625 176.487627 
L 465.451172 176.692705 
L 465.996094 175.94417 
L 466.541016 175.005937 
L 467.085938 173.662676 
L 468.175781 170.166094 
L 468.720703 168.00252 
L 469.810547 164.546953 
L 470.900391 162.003984 
L 471.990234 161.055498 
L 473.080078 162.065508 
L 473.625 162.675615 
L 474.714844 165.777422 
L 475.804688 170.335283 
L 476.349609 173.180742 
L 476.894531 175.328936 
L 477.439453 178.123125 
L 478.529297 181.947832 
L 479.074219 183.250078 
L 479.619141 184.249834 
L 480.708984 184.752275 
L 481.253906 184.726641 
L 481.798828 184.275469 
L 482.34375 184.234453 
L 482.888672 183.685869 
L 483.433594 183.608965 
L 484.523438 183.045 
L 485.068359 182.609209 
L 486.703125 179.94832 
L 488.337891 175.559648 
L 489.427734 172.550127 
L 490.517578 170.319902 
L 491.607422 168.617754 
L 492.152344 168.402422 
L 492.697266 167.782061 
L 493.242188 168.06917 
L 493.787109 167.940996 
L 494.332031 168.289629 
L 496.511719 170.135332 
L 497.056641 170.883867 
L 497.601562 171.176104 
L 499.78125 174.21126 
L 500.871094 175.980059 
L 501.960938 177.564287 
L 502.505859 178.21541 
L 503.050781 178.3846 
L 503.595703 178.292314 
L 504.140625 178.03084 
L 504.685547 177.328447 
L 505.775391 175.077715 
L 509.589844 164.834062 
L 510.134766 163.670244 
L 510.679688 162.808916 
L 511.769531 161.793779 
L 512.314453 162.075762 
L 512.859375 162.214189 
L 513.404297 162.829424 
L 513.949219 163.859941 
L 515.583984 166.269609 
L 516.128906 167.366777 
L 516.673828 168.043535 
L 517.21875 168.899736 
L 517.763672 169.44832 
L 518.853516 170.171221 
L 519.398438 169.97127 
L 519.943359 169.561113 
L 520.488281 168.997148 
L 521.033203 167.987139 
L 522.667969 165.844072 
L 523.212891 165.93123 
L 523.757812 166.367021 
L 524.302734 167.24373 
L 525.392578 169.68416 
L 526.482422 172.791094 
L 527.027344 174.154863 
L 529.751953 179.420244 
L 530.296875 179.563799 
L 531.386719 179.533037 
L 531.931641 178.87166 
L 532.476562 177.907793 
L 534.111328 172.703936 
L 536.291016 165.372393 
L 536.835938 163.639482 
L 537.380859 162.814043 
L 538.470703 160.455645 
L 539.015625 160.117266 
L 539.560547 159.461016 
L 540.105469 159.42 
L 540.650391 159.53792 
L 541.195312 159.496904 
L 541.740234 159.758379 
L 542.285156 160.332598 
L 542.830078 161.265703 
L 543.375 161.568193 
L 543.919922 162.260332 
L 544.464844 163.188311 
L 545.009766 163.536943 
L 546.099609 164.593096 
L 546.644531 164.977617 
L 547.189453 164.998125 
L 547.734375 164.762285 
L 548.279297 164.680254 
L 548.824219 164.264971 
L 549.369141 164.13167 
L 550.458984 164.331621 
L 551.548828 166.003008 
L 552.638672 169.520098 
L 553.183594 171.237627 
L 554.273438 175.108477 
L 555.363281 177.784746 
L 555.908203 178.394854 
L 556.453125 178.784502 
L 556.998047 178.63582 
L 557.542969 178.164141 
L 558.087891 177.436113 
L 558.632812 176.513262 
L 560.267578 172.345049 
L 562.447266 165.254473 
L 563.537109 163.603594 
L 564.082031 163.680498 
L 564.626953 164.259844 
L 565.171875 165.346758 
L 565.716797 166.87459 
L 566.261719 168.858721 
L 567.896484 176.031328 
L 569.53125 181.235186 
L 570.076172 182.491289 
L 570.621094 183.383379 
L 571.166016 184.706133 
L 572.800781 186.490312 
L 573.345703 186.772295 
L 573.890625 187.254229 
L 574.435547 187.45418 
L 576.070312 187.213213 
L 577.705078 184.567705 
L 578.794922 181.927324 
L 582.064453 173.549883 
L 583.154297 171.950273 
L 583.699219 171.591387 
L 584.244141 171.042803 
L 585.878906 170.427568 
L 586.423828 170.637773 
L 586.96875 170.504473 
L 587.513672 170.637773 
L 588.058594 170.899248 
L 589.148438 171.857988 
L 590.238281 173.631914 
L 590.783203 174.949541 
L 591.328125 175.836504 
L 591.873047 177.0721 
L 592.962891 178.420488 
L 593.507812 179.568926 
L 594.052734 179.897051 
L 594.597656 180.440508 
L 595.142578 180.563555 
L 595.6875 180.496904 
L 596.232422 180.189287 
L 597.322266 178.353838 
L 600.046875 170.483965 
L 600.591797 168.986895 
L 602.226562 165.623613 
L 602.771484 165.116045 
L 603.316406 164.229082 
L 603.861328 163.900957 
L 604.951172 163.803545 
L 606.041016 165.418535 
L 608.220703 169.714922 
L 608.765625 170.442949 
L 609.855469 170.417314 
L 610.945312 169.120195 
L 612.035156 167.566729 
L 613.125 166.45418 
L 614.214844 166.315752 
L 614.759766 166.408037 
L 615.304688 166.797686 
L 615.849609 167.34627 
L 616.394531 168.130693 
L 617.484375 170.453203 
L 619.664062 176.420977 
L 620.208984 177.789873 
L 620.753906 178.774248 
L 621.298828 179.497148 
L 621.84375 179.820146 
L 622.388672 179.768877 
L 622.933594 179.322832 
L 623.478516 178.671709 
L 624.568359 176.354326 
L 626.203125 171.70418 
L 627.837891 166.510576 
L 628.927734 164.070146 
L 630.017578 161.660479 
L 631.652344 159.599443 
L 632.197266 159.522539 
L 633.287109 159.89168 
L 633.832031 160.214678 
L 634.376953 160.778643 
L 634.921875 161.547686 
L 635.466797 162.644854 
L 636.011719 163.090898 
L 636.556641 163.875322 
L 637.101562 164.100908 
L 637.646484 164.0804 
L 638.736328 163.17293 
L 639.28125 162.6346 
L 639.826172 162.275713 
L 640.371094 161.763018 
L 640.916016 161.968096 
L 642.005859 163.193437 
L 643.095703 165.480059 
L 644.185547 168.84334 
L 644.730469 170.314775 
L 645.275391 172.109209 
L 646.365234 174.63167 
L 647.455078 176.877275 
L 647.455078 176.877275 
" style="fill:none;stroke:#4c72b0;stroke-linecap:round;stroke-width:1.75;"/>
   </g>
   <g id="patch_3">
    <path d="M 90 270.72 
L 90 69.12 
" style="fill:none;stroke:#262626;stroke-linecap:square;stroke-linejoin:miter;stroke-width:1.25;"/>
   </g>
   <g id="patch_4">
    <path d="M 90 270.72 
L 648 270.72 
" style="fill:none;stroke:#262626;stroke-linecap:square;stroke-linejoin:miter;stroke-width:1.25;"/>
   </g>
  </g>
  <g id="axes_2">
   <g id="patch_5">
    <path d="M 90 512.64 
L 648 512.64 
L 648 311.04 
L 90 311.04 
z
" style="fill:#ffffff;"/>
   </g>
   <g id="matplotlib.axis_3">
    <g id="xtick_7">
     <g id="line2d_15">
      <g>
       <use style="fill:#262626;stroke:#262626;" x="218.197478" xlink:href="#m55c1f5a671" y="512.64"/>
      </g>
     </g>
     <g id="text_14">
      <!-- $\mathdefault{10^{2}}$ -->
      <g style="fill:#262626;" transform="translate(210.347478 535.9525)scale(0.1 -0.1)">
       <use transform="translate(0 0.99375)" xlink:href="#ArialMT-31"/>
       <use transform="translate(55.615234 0.99375)" xlink:href="#ArialMT-30"/>
       <use transform="translate(112.972813 70.6875)scale(0.7)" xlink:href="#ArialMT-32"/>
      </g>
     </g>
    </g>
    <g id="xtick_8">
     <g id="line2d_16">
      <g>
       <use style="fill:#262626;stroke:#262626;" x="401.606604" xlink:href="#m55c1f5a671" y="512.64"/>
      </g>
     </g>
     <g id="text_15">
      <!-- $\mathdefault{10^{3}}$ -->
      <defs>
       <path d="M 4.203125 18.890625 
L 12.984375 20.0625 
Q 14.5 12.59375 18.140625 9.296875 
Q 21.78125 6 27 6 
Q 33.203125 6 37.46875 10.296875 
Q 41.75 14.59375 41.75 20.953125 
Q 41.75 27 37.796875 30.921875 
Q 33.84375 34.859375 27.734375 34.859375 
Q 25.25 34.859375 21.53125 33.890625 
L 22.515625 41.609375 
Q 23.390625 41.5 23.921875 41.5 
Q 29.546875 41.5 34.03125 44.421875 
Q 38.53125 47.359375 38.53125 53.46875 
Q 38.53125 58.296875 35.25 61.46875 
Q 31.984375 64.65625 26.8125 64.65625 
Q 21.6875 64.65625 18.265625 61.421875 
Q 14.84375 58.203125 13.875 51.765625 
L 5.078125 53.328125 
Q 6.6875 62.15625 12.390625 67.015625 
Q 18.109375 71.875 26.609375 71.875 
Q 32.46875 71.875 37.390625 69.359375 
Q 42.328125 66.84375 44.9375 62.5 
Q 47.5625 58.15625 47.5625 53.265625 
Q 47.5625 48.640625 45.0625 44.828125 
Q 42.578125 41.015625 37.703125 38.765625 
Q 44.046875 37.3125 47.5625 32.6875 
Q 51.078125 28.078125 51.078125 21.140625 
Q 51.078125 11.765625 44.234375 5.25 
Q 37.40625 -1.265625 26.953125 -1.265625 
Q 17.53125 -1.265625 11.296875 4.34375 
Q 5.078125 9.96875 4.203125 18.890625 
z
" id="ArialMT-33"/>
      </defs>
      <g style="fill:#262626;" transform="translate(393.756604 535.9525)scale(0.1 -0.1)">
       <use transform="translate(0 0.99375)" xlink:href="#ArialMT-31"/>
       <use transform="translate(55.615234 0.99375)" xlink:href="#ArialMT-30"/>
       <use transform="translate(112.972813 70.6875)scale(0.7)" xlink:href="#ArialMT-33"/>
      </g>
     </g>
    </g>
    <g id="xtick_9">
     <g id="line2d_17">
      <g>
       <use style="fill:#262626;stroke:#262626;" x="585.01573" xlink:href="#m55c1f5a671" y="512.64"/>
      </g>
     </g>
     <g id="text_16">
      <!-- $\mathdefault{10^{4}}$ -->
      <g style="fill:#262626;" transform="translate(577.16573 535.8525)scale(0.1 -0.1)">
       <use transform="translate(0 0.201563)" xlink:href="#ArialMT-31"/>
       <use transform="translate(55.615234 0.201563)" xlink:href="#ArialMT-30"/>
       <use transform="translate(112.972813 69.895313)scale(0.7)" xlink:href="#ArialMT-34"/>
      </g>
     </g>
    </g>
    <g id="xtick_10">
     <g id="line2d_18">
      <defs>
       <path d="M 0 0 
L 0 3 
" id="me57169d220" style="stroke:#262626;stroke-width:0.5;"/>
      </defs>
      <g>
       <use style="fill:#262626;stroke:#262626;stroke-width:0.5;" x="90" xlink:href="#me57169d220" y="512.64"/>
      </g>
     </g>
    </g>
    <g id="xtick_11">
     <g id="line2d_19">
      <g>
       <use style="fill:#262626;stroke:#262626;stroke-width:0.5;" x="122.296744" xlink:href="#me57169d220" y="512.64"/>
      </g>
     </g>
    </g>
    <g id="xtick_12">
     <g id="line2d_20">
      <g>
       <use style="fill:#262626;stroke:#262626;stroke-width:0.5;" x="145.211648" xlink:href="#me57169d220" y="512.64"/>
      </g>
     </g>
    </g>
    <g id="xtick_13">
     <g id="line2d_21">
      <g>
       <use style="fill:#262626;stroke:#262626;stroke-width:0.5;" x="162.985829" xlink:href="#me57169d220" y="512.64"/>
      </g>
     </g>
    </g>
    <g id="xtick_14">
     <g id="line2d_22">
      <g>
       <use style="fill:#262626;stroke:#262626;stroke-width:0.5;" x="177.508392" xlink:href="#me57169d220" y="512.64"/>
      </g>
     </g>
    </g>
    <g id="xtick_15">
     <g id="line2d_23">
      <g>
       <use style="fill:#262626;stroke:#262626;stroke-width:0.5;" x="189.787045" xlink:href="#me57169d220" y="512.64"/>
      </g>
     </g>
    </g>
    <g id="xtick_16">
     <g id="line2d_24">
      <g>
       <use style="fill:#262626;stroke:#262626;stroke-width:0.5;" x="200.423297" xlink:href="#me57169d220" y="512.64"/>
      </g>
     </g>
    </g>
    <g id="xtick_17">
     <g id="line2d_25">
      <g>
       <use style="fill:#262626;stroke:#262626;stroke-width:0.5;" x="209.805136" xlink:href="#me57169d220" y="512.64"/>
      </g>
     </g>
    </g>
    <g id="xtick_18">
     <g id="line2d_26">
      <g>
       <use style="fill:#262626;stroke:#262626;stroke-width:0.5;" x="273.409126" xlink:href="#me57169d220" y="512.64"/>
      </g>
     </g>
    </g>
    <g id="xtick_19">
     <g id="line2d_27">
      <g>
       <use style="fill:#262626;stroke:#262626;stroke-width:0.5;" x="305.70587" xlink:href="#me57169d220" y="512.64"/>
      </g>
     </g>
    </g>
    <g id="xtick_20">
     <g id="line2d_28">
      <g>
       <use style="fill:#262626;stroke:#262626;stroke-width:0.5;" x="328.620775" xlink:href="#me57169d220" y="512.64"/>
      </g>
     </g>
    </g>
    <g id="xtick_21">
     <g id="line2d_29">
      <g>
       <use style="fill:#262626;stroke:#262626;stroke-width:0.5;" x="346.394955" xlink:href="#me57169d220" y="512.64"/>
      </g>
     </g>
    </g>
    <g id="xtick_22">
     <g id="line2d_30">
      <g>
       <use style="fill:#262626;stroke:#262626;stroke-width:0.5;" x="360.917518" xlink:href="#me57169d220" y="512.64"/>
      </g>
     </g>
    </g>
    <g id="xtick_23">
     <g id="line2d_31">
      <g>
       <use style="fill:#262626;stroke:#262626;stroke-width:0.5;" x="373.196171" xlink:href="#me57169d220" y="512.64"/>
      </g>
     </g>
    </g>
    <g id="xtick_24">
     <g id="line2d_32">
      <g>
       <use style="fill:#262626;stroke:#262626;stroke-width:0.5;" x="383.832423" xlink:href="#me57169d220" y="512.64"/>
      </g>
     </g>
    </g>
    <g id="xtick_25">
     <g id="line2d_33">
      <g>
       <use style="fill:#262626;stroke:#262626;stroke-width:0.5;" x="393.214262" xlink:href="#me57169d220" y="512.64"/>
      </g>
     </g>
    </g>
    <g id="xtick_26">
     <g id="line2d_34">
      <g>
       <use style="fill:#262626;stroke:#262626;stroke-width:0.5;" x="456.818252" xlink:href="#me57169d220" y="512.64"/>
      </g>
     </g>
    </g>
    <g id="xtick_27">
     <g id="line2d_35">
      <g>
       <use style="fill:#262626;stroke:#262626;stroke-width:0.5;" x="489.114996" xlink:href="#me57169d220" y="512.64"/>
      </g>
     </g>
    </g>
    <g id="xtick_28">
     <g id="line2d_36">
      <g>
       <use style="fill:#262626;stroke:#262626;stroke-width:0.5;" x="512.029901" xlink:href="#me57169d220" y="512.64"/>
      </g>
     </g>
    </g>
    <g id="xtick_29">
     <g id="line2d_37">
      <g>
       <use style="fill:#262626;stroke:#262626;stroke-width:0.5;" x="529.804081" xlink:href="#me57169d220" y="512.64"/>
      </g>
     </g>
    </g>
    <g id="xtick_30">
     <g id="line2d_38">
      <g>
       <use style="fill:#262626;stroke:#262626;stroke-width:0.5;" x="544.326645" xlink:href="#me57169d220" y="512.64"/>
      </g>
     </g>
    </g>
    <g id="xtick_31">
     <g id="line2d_39">
      <g>
       <use style="fill:#262626;stroke:#262626;stroke-width:0.5;" x="556.605297" xlink:href="#me57169d220" y="512.64"/>
      </g>
     </g>
    </g>
    <g id="xtick_32">
     <g id="line2d_40">
      <g>
       <use style="fill:#262626;stroke:#262626;stroke-width:0.5;" x="567.241549" xlink:href="#me57169d220" y="512.64"/>
      </g>
     </g>
    </g>
    <g id="xtick_33">
     <g id="line2d_41">
      <g>
       <use style="fill:#262626;stroke:#262626;stroke-width:0.5;" x="576.623389" xlink:href="#me57169d220" y="512.64"/>
      </g>
     </g>
    </g>
    <g id="xtick_34">
     <g id="line2d_42">
      <g>
       <use style="fill:#262626;stroke:#262626;stroke-width:0.5;" x="640.227378" xlink:href="#me57169d220" y="512.64"/>
      </g>
     </g>
    </g>
   </g>
   <g id="matplotlib.axis_4">
    <g id="ytick_8">
     <g id="line2d_43">
      <g>
       <use style="fill:#262626;stroke:#262626;" x="90" xlink:href="#m735b7b70c1" y="512.64"/>
      </g>
     </g>
     <g id="text_17">
      <!-- $\mathdefault{10^{-5}}$ -->
      <defs>
       <path d="M 4.15625 18.75 
L 13.375 19.53125 
Q 14.40625 12.796875 18.140625 9.390625 
Q 21.875 6 27.15625 6 
Q 33.5 6 37.890625 10.78125 
Q 42.28125 15.578125 42.28125 23.484375 
Q 42.28125 31 38.0625 35.34375 
Q 33.84375 39.703125 27 39.703125 
Q 22.75 39.703125 19.328125 37.765625 
Q 15.921875 35.84375 13.96875 32.765625 
L 5.71875 33.84375 
L 12.640625 70.609375 
L 48.25 70.609375 
L 48.25 62.203125 
L 19.671875 62.203125 
L 15.828125 42.96875 
Q 22.265625 47.46875 29.34375 47.46875 
Q 38.71875 47.46875 45.15625 40.96875 
Q 51.609375 34.46875 51.609375 24.265625 
Q 51.609375 14.546875 45.953125 7.46875 
Q 39.0625 -1.21875 27.15625 -1.21875 
Q 17.390625 -1.21875 11.203125 4.25 
Q 5.03125 9.71875 4.15625 18.75 
z
" id="ArialMT-35"/>
      </defs>
      <g style="fill:#262626;" transform="translate(57.2 517.74625)scale(0.1 -0.1)">
       <use transform="translate(0 0.879688)" xlink:href="#ArialMT-31"/>
       <use transform="translate(55.615234 0.879688)" xlink:href="#ArialMT-30"/>
       <use transform="translate(112.972813 70.573438)scale(0.7)" xlink:href="#ArialMT-2212"/>
       <use transform="translate(153.851719 70.573438)scale(0.7)" xlink:href="#ArialMT-35"/>
      </g>
     </g>
    </g>
    <g id="ytick_9">
     <g id="line2d_44">
      <g>
       <use style="fill:#262626;stroke:#262626;" x="90" xlink:href="#m735b7b70c1" y="465.767507"/>
      </g>
     </g>
     <g id="text_18">
      <!-- $\mathdefault{10^{-4}}$ -->
      <g style="fill:#262626;" transform="translate(57.2 470.873757)scale(0.1 -0.1)">
       <use transform="translate(0 0.201563)" xlink:href="#ArialMT-31"/>
       <use transform="translate(55.615234 0.201563)" xlink:href="#ArialMT-30"/>
       <use transform="translate(112.972813 69.895313)scale(0.7)" xlink:href="#ArialMT-2212"/>
       <use transform="translate(153.851719 69.895313)scale(0.7)" xlink:href="#ArialMT-34"/>
      </g>
     </g>
    </g>
    <g id="ytick_10">
     <g id="line2d_45">
      <g>
       <use style="fill:#262626;stroke:#262626;" x="90" xlink:href="#m735b7b70c1" y="418.895013"/>
      </g>
     </g>
     <g id="text_19">
      <!-- $\mathdefault{10^{-3}}$ -->
      <g style="fill:#262626;" transform="translate(57.2 424.051263)scale(0.1 -0.1)">
       <use transform="translate(0 0.99375)" xlink:href="#ArialMT-31"/>
       <use transform="translate(55.615234 0.99375)" xlink:href="#ArialMT-30"/>
       <use transform="translate(112.972813 70.6875)scale(0.7)" xlink:href="#ArialMT-2212"/>
       <use transform="translate(153.851719 70.6875)scale(0.7)" xlink:href="#ArialMT-33"/>
      </g>
     </g>
    </g>
    <g id="ytick_11">
     <g id="line2d_46">
      <g>
       <use style="fill:#262626;stroke:#262626;" x="90" xlink:href="#m735b7b70c1" y="372.02252"/>
      </g>
     </g>
     <g id="text_20">
      <!-- $\mathdefault{10^{-2}}$ -->
      <g style="fill:#262626;" transform="translate(57.2 377.17877)scale(0.1 -0.1)">
       <use transform="translate(0 0.99375)" xlink:href="#ArialMT-31"/>
       <use transform="translate(55.615234 0.99375)" xlink:href="#ArialMT-30"/>
       <use transform="translate(112.972813 70.6875)scale(0.7)" xlink:href="#ArialMT-2212"/>
       <use transform="translate(153.851719 70.6875)scale(0.7)" xlink:href="#ArialMT-32"/>
      </g>
     </g>
    </g>
    <g id="ytick_12">
     <g id="line2d_47">
      <g>
       <use style="fill:#262626;stroke:#262626;" x="90" xlink:href="#m735b7b70c1" y="325.150026"/>
      </g>
     </g>
     <g id="text_21">
      <!-- $\mathdefault{10^{-1}}$ -->
      <g style="fill:#262626;" transform="translate(57.2 330.306276)scale(0.1 -0.1)">
       <use transform="translate(0 0.99375)" xlink:href="#ArialMT-31"/>
       <use transform="translate(55.615234 0.99375)" xlink:href="#ArialMT-30"/>
       <use transform="translate(112.972813 70.6875)scale(0.7)" xlink:href="#ArialMT-2212"/>
       <use transform="translate(153.851719 70.6875)scale(0.7)" xlink:href="#ArialMT-31"/>
      </g>
     </g>
    </g>
    <g id="ytick_13">
     <g id="line2d_48">
      <defs>
       <path d="M 0 0 
L -3 0 
" id="m945df61096" style="stroke:#262626;stroke-width:0.5;"/>
      </defs>
      <g>
       <use style="fill:#262626;stroke:#262626;stroke-width:0.5;" x="90" xlink:href="#m945df61096" y="498.529974"/>
      </g>
     </g>
    </g>
    <g id="ytick_14">
     <g id="line2d_49">
      <g>
       <use style="fill:#262626;stroke:#262626;stroke-width:0.5;" x="90" xlink:href="#m945df61096" y="490.276137"/>
      </g>
     </g>
    </g>
    <g id="ytick_15">
     <g id="line2d_50">
      <g>
       <use style="fill:#262626;stroke:#262626;stroke-width:0.5;" x="90" xlink:href="#m945df61096" y="484.419947"/>
      </g>
     </g>
    </g>
    <g id="ytick_16">
     <g id="line2d_51">
      <g>
       <use style="fill:#262626;stroke:#262626;stroke-width:0.5;" x="90" xlink:href="#m945df61096" y="479.877533"/>
      </g>
     </g>
    </g>
    <g id="ytick_17">
     <g id="line2d_52">
      <g>
       <use style="fill:#262626;stroke:#262626;stroke-width:0.5;" x="90" xlink:href="#m945df61096" y="476.166111"/>
      </g>
     </g>
    </g>
    <g id="ytick_18">
     <g id="line2d_53">
      <g>
       <use style="fill:#262626;stroke:#262626;stroke-width:0.5;" x="90" xlink:href="#m945df61096" y="473.028148"/>
      </g>
     </g>
    </g>
    <g id="ytick_19">
     <g id="line2d_54">
      <g>
       <use style="fill:#262626;stroke:#262626;stroke-width:0.5;" x="90" xlink:href="#m945df61096" y="470.309921"/>
      </g>
     </g>
    </g>
    <g id="ytick_20">
     <g id="line2d_55">
      <g>
       <use style="fill:#262626;stroke:#262626;stroke-width:0.5;" x="90" xlink:href="#m945df61096" y="467.912274"/>
      </g>
     </g>
    </g>
    <g id="ytick_21">
     <g id="line2d_56">
      <g>
       <use style="fill:#262626;stroke:#262626;stroke-width:0.5;" x="90" xlink:href="#m945df61096" y="451.65748"/>
      </g>
     </g>
    </g>
    <g id="ytick_22">
     <g id="line2d_57">
      <g>
       <use style="fill:#262626;stroke:#262626;stroke-width:0.5;" x="90" xlink:href="#m945df61096" y="443.403644"/>
      </g>
     </g>
    </g>
    <g id="ytick_23">
     <g id="line2d_58">
      <g>
       <use style="fill:#262626;stroke:#262626;stroke-width:0.5;" x="90" xlink:href="#m945df61096" y="437.547454"/>
      </g>
     </g>
    </g>
    <g id="ytick_24">
     <g id="line2d_59">
      <g>
       <use style="fill:#262626;stroke:#262626;stroke-width:0.5;" x="90" xlink:href="#m945df61096" y="433.00504"/>
      </g>
     </g>
    </g>
    <g id="ytick_25">
     <g id="line2d_60">
      <g>
       <use style="fill:#262626;stroke:#262626;stroke-width:0.5;" x="90" xlink:href="#m945df61096" y="429.293617"/>
      </g>
     </g>
    </g>
    <g id="ytick_26">
     <g id="line2d_61">
      <g>
       <use style="fill:#262626;stroke:#262626;stroke-width:0.5;" x="90" xlink:href="#m945df61096" y="426.155654"/>
      </g>
     </g>
    </g>
    <g id="ytick_27">
     <g id="line2d_62">
      <g>
       <use style="fill:#262626;stroke:#262626;stroke-width:0.5;" x="90" xlink:href="#m945df61096" y="423.437427"/>
      </g>
     </g>
    </g>
    <g id="ytick_28">
     <g id="line2d_63">
      <g>
       <use style="fill:#262626;stroke:#262626;stroke-width:0.5;" x="90" xlink:href="#m945df61096" y="421.039781"/>
      </g>
     </g>
    </g>
    <g id="ytick_29">
     <g id="line2d_64">
      <g>
       <use style="fill:#262626;stroke:#262626;stroke-width:0.5;" x="90" xlink:href="#m945df61096" y="404.784987"/>
      </g>
     </g>
    </g>
    <g id="ytick_30">
     <g id="line2d_65">
      <g>
       <use style="fill:#262626;stroke:#262626;stroke-width:0.5;" x="90" xlink:href="#m945df61096" y="396.53115"/>
      </g>
     </g>
    </g>
    <g id="ytick_31">
     <g id="line2d_66">
      <g>
       <use style="fill:#262626;stroke:#262626;stroke-width:0.5;" x="90" xlink:href="#m945df61096" y="390.67496"/>
      </g>
     </g>
    </g>
    <g id="ytick_32">
     <g id="line2d_67">
      <g>
       <use style="fill:#262626;stroke:#262626;stroke-width:0.5;" x="90" xlink:href="#m945df61096" y="386.132546"/>
      </g>
     </g>
    </g>
    <g id="ytick_33">
     <g id="line2d_68">
      <g>
       <use style="fill:#262626;stroke:#262626;stroke-width:0.5;" x="90" xlink:href="#m945df61096" y="382.421124"/>
      </g>
     </g>
    </g>
    <g id="ytick_34">
     <g id="line2d_69">
      <g>
       <use style="fill:#262626;stroke:#262626;stroke-width:0.5;" x="90" xlink:href="#m945df61096" y="379.283161"/>
      </g>
     </g>
    </g>
    <g id="ytick_35">
     <g id="line2d_70">
      <g>
       <use style="fill:#262626;stroke:#262626;stroke-width:0.5;" x="90" xlink:href="#m945df61096" y="376.564934"/>
      </g>
     </g>
    </g>
    <g id="ytick_36">
     <g id="line2d_71">
      <g>
       <use style="fill:#262626;stroke:#262626;stroke-width:0.5;" x="90" xlink:href="#m945df61096" y="374.167288"/>
      </g>
     </g>
    </g>
    <g id="ytick_37">
     <g id="line2d_72">
      <g>
       <use style="fill:#262626;stroke:#262626;stroke-width:0.5;" x="90" xlink:href="#m945df61096" y="357.912493"/>
      </g>
     </g>
    </g>
    <g id="ytick_38">
     <g id="line2d_73">
      <g>
       <use style="fill:#262626;stroke:#262626;stroke-width:0.5;" x="90" xlink:href="#m945df61096" y="349.658657"/>
      </g>
     </g>
    </g>
    <g id="ytick_39">
     <g id="line2d_74">
      <g>
       <use style="fill:#262626;stroke:#262626;stroke-width:0.5;" x="90" xlink:href="#m945df61096" y="343.802467"/>
      </g>
     </g>
    </g>
    <g id="ytick_40">
     <g id="line2d_75">
      <g>
       <use style="fill:#262626;stroke:#262626;stroke-width:0.5;" x="90" xlink:href="#m945df61096" y="339.260053"/>
      </g>
     </g>
    </g>
    <g id="ytick_41">
     <g id="line2d_76">
      <g>
       <use style="fill:#262626;stroke:#262626;stroke-width:0.5;" x="90" xlink:href="#m945df61096" y="335.548631"/>
      </g>
     </g>
    </g>
    <g id="ytick_42">
     <g id="line2d_77">
      <g>
       <use style="fill:#262626;stroke:#262626;stroke-width:0.5;" x="90" xlink:href="#m945df61096" y="332.410668"/>
      </g>
     </g>
    </g>
    <g id="ytick_43">
     <g id="line2d_78">
      <g>
       <use style="fill:#262626;stroke:#262626;stroke-width:0.5;" x="90" xlink:href="#m945df61096" y="329.69244"/>
      </g>
     </g>
    </g>
    <g id="ytick_44">
     <g id="line2d_79">
      <g>
       <use style="fill:#262626;stroke:#262626;stroke-width:0.5;" x="90" xlink:href="#m945df61096" y="327.294794"/>
      </g>
     </g>
    </g>
    <g id="ytick_45">
     <g id="line2d_80">
      <g>
       <use style="fill:#262626;stroke:#262626;stroke-width:0.5;" x="90" xlink:href="#m945df61096" y="311.04"/>
      </g>
     </g>
    </g>
   </g>
   <g id="line2d_81">
    <path clip-path="url(#p167c2c118f)" d="M -1 371.480702 
L 151.095164 371.465888 
L 206.306812 433.748812 
L 238.603556 408.728002 
L 261.518461 406.272787 
L 279.292642 403.801229 
L 293.815205 359.808117 
L 306.093857 428.011674 
L 316.730109 437.477503 
L 326.111949 443.108025 
L 334.50429 429.837321 
L 342.096086 420.132702 
L 349.026853 370.630151 
L 355.402541 414.707476 
L 361.305505 418.32335 
L 366.801034 429.256781 
L 371.941758 427.095914 
L 376.770725 415.825591 
L 381.323597 385.083673 
L 385.630245 413.883288 
L 389.715939 423.191319 
L 393.602249 415.431519 
L 397.307735 407.23144 
L 400.848476 397.218472 
L 404.238502 364.317494 
L 407.490119 386.991801 
L 410.614189 403.750442 
L 413.620341 413.126835 
L 416.517154 415.271325 
L 419.312303 408.651785 
L 422.012683 377.168432 
L 424.624509 387.313307 
L 427.153406 401.668426 
L 429.604479 407.444116 
L 431.982374 407.772237 
L 434.291335 402.760214 
L 436.535246 387.826039 
L 438.717672 402.524452 
L 440.841893 440.455195 
L 442.910933 437.511999 
L 444.927587 422.308585 
L 446.894442 410.425868 
L 448.813898 390.155749 
L 450.688186 376.822621 
L 452.519383 404.539129 
L 454.309426 415.407151 
L 456.060125 424.648382 
L 457.773171 431.567815 
L 459.45015 452.881506 
L 461.09255 404.88197 
L 462.701768 430.309358 
L 464.279118 436.845714 
L 467.343094 444.826812 
L 468.83199 439.000291 
L 470.293564 402.174302 
L 471.728802 434.234139 
L 474.523951 448.200949 
L 475.885584 451.430115 
L 477.224331 457.680424 
L 478.540949 449.917904 
L 479.836157 427.217406 
L 481.110642 438.80197 
L 482.365055 440.482437 
L 483.600019 441.514238 
L 484.816127 449.191509 
L 486.013948 446.668314 
L 487.194022 423.162768 
L 488.356869 445.805134 
L 489.502983 447.183137 
L 490.63284 446.452749 
L 491.746894 443.84041 
L 492.845581 443.429655 
L 493.92932 424.139553 
L 494.998512 442.710938 
L 496.053541 473.316992 
L 497.094779 469.236878 
L 498.122582 464.740537 
L 499.137291 457.517211 
L 500.139235 463.04428 
L 501.128734 426.560068 
L 502.10609 465.80377 
L 503.0716 462.937801 
L 504.025546 462.557349 
L 504.968203 460.957562 
L 505.899834 466.588167 
L 506.820695 474.632463 
L 507.731032 468.666967 
L 508.631082 459.167765 
L 509.521075 457.661086 
L 510.401234 451.264204 
L 511.271773 462.701041 
L 512.132901 453.905561 
L 512.984819 437.435185 
L 513.827722 440.041255 
L 514.661799 464.18503 
L 515.487232 468.916395 
L 516.304198 478.327473 
L 517.112871 472.388542 
L 517.913416 471.276155 
L 518.705996 451.357508 
L 519.490766 466.587339 
L 520.26788 471.826952 
L 521.037486 475.665605 
L 521.799727 472.425257 
L 522.554743 474.370715 
L 523.302669 475.709506 
L 524.043638 471.758008 
L 524.777778 470.475013 
L 525.505212 469.793681 
L 526.226064 470.911133 
L 526.940451 474.392345 
L 527.648487 467.947843 
L 528.350285 476.806859 
L 529.045954 467.189691 
L 529.7356 480.692385 
L 530.419326 480.161793 
L 531.097232 473.720454 
L 531.769418 471.345872 
L 532.435979 473.014157 
L 533.097009 472.981301 
L 533.752597 467.391003 
L 534.402834 479.46449 
L 535.047806 472.216119 
L 535.687597 476.980893 
L 536.32229 474.011715 
L 536.951966 476.700159 
L 537.576703 473.011538 
L 538.196578 474.066256 
L 538.811667 483.09913 
L 539.422042 482.471185 
L 540.027776 477.246759 
L 540.628938 476.998188 
L 541.225596 476.890387 
L 541.817819 472.768161 
L 542.405671 474.983604 
L 542.989216 487.783882 
L 543.568517 480.913551 
L 544.143636 489.834279 
L 544.714632 489.771704 
L 545.281563 472.019769 
L 545.844488 478.78866 
L 546.403463 491.260849 
L 546.958543 477.601824 
L 547.509781 497.55352 
L 548.05723 482.101865 
L 548.600942 473.562691 
L 549.140969 481.132362 
L 549.677358 477.179091 
L 550.21016 481.770931 
L 550.739422 479.962708 
L 551.26519 488.658916 
L 551.78751 487.429427 
L 552.306428 482.725801 
L 553.33423 484.394017 
L 553.8432 480.252849 
L 554.348939 481.67082 
L 554.851487 490.537699 
L 555.350884 479.374106 
L 555.847169 478.431591 
L 556.340382 483.50257 
L 556.830559 478.342298 
L 557.317739 487.733221 
L 557.801956 493.823193 
L 558.283248 473.741662 
L 558.76165 487.950864 
L 559.237195 482.390494 
L 559.709918 478.515092 
L 560.179852 482.735995 
L 560.647029 479.60575 
L 561.111483 480.096595 
L 561.573244 494.805325 
L 562.032344 486.962485 
L 562.488812 500.959818 
L 562.94268 484.013234 
L 563.393976 486.250417 
L 563.84273 496.924855 
L 564.28897 490.201703 
L 564.732723 480.188892 
L 565.174019 480.652292 
L 565.612882 481.917143 
L 566.049341 491.139676 
L 566.483422 490.175409 
L 566.91515 487.117211 
L 567.34455 491.805425 
L 567.771648 490.321805 
L 568.196468 480.193076 
L 568.619034 481.593878 
L 569.039371 479.508234 
L 569.457501 499.984889 
L 569.873447 477.965246 
L 570.287233 478.621008 
L 570.69888 482.263925 
L 571.108411 482.261548 
L 571.515847 485.533811 
L 571.921209 498.996815 
L 572.725798 474.67221 
L 573.917644 488.022126 
L 574.310996 477.551313 
L 574.702415 484.622837 
L 575.091919 480.135051 
L 575.479529 489.302768 
L 575.865261 494.954555 
L 576.249135 480.125849 
L 576.631167 479.659824 
L 577.011376 481.627059 
L 577.389778 489.764577 
L 577.766391 485.397052 
L 578.141232 484.392063 
L 578.514318 477.934002 
L 578.885664 496.127119 
L 579.255287 493.982286 
L 579.623202 494.30009 
L 579.989426 475.838812 
L 580.353974 485.920143 
L 580.716861 489.528136 
L 581.078102 483.246558 
L 581.437713 489.400463 
L 581.795707 483.114505 
L 582.152099 492.289918 
L 582.506904 493.254397 
L 582.860136 497.858584 
L 583.211808 489.17689 
L 583.561934 485.59023 
L 583.910528 479.980173 
L 584.257603 496.042594 
L 584.603172 479.804814 
L 584.947248 498.783726 
L 585.289845 487.977395 
L 585.630974 486.829563 
L 585.970649 496.026999 
L 586.645683 480.975731 
L 586.981067 486.215883 
L 587.315045 502.784373 
L 587.647628 481.968962 
L 587.978828 486.600341 
L 588.308657 486.511217 
L 588.637126 479.65724 
L 588.964246 494.909186 
L 589.290028 501.046185 
L 589.614483 487.210502 
L 589.937621 491.71336 
L 590.259454 490.711263 
L 590.579992 487.868695 
L 590.899246 490.484178 
L 591.217224 485.721519 
L 591.533939 490.92426 
L 591.849399 505.252307 
L 592.163614 498.412854 
L 592.476596 507.015713 
L 593.098892 486.417044 
L 593.408227 513.66733 
L 593.716365 491.852718 
L 594.023315 491.749864 
L 594.329088 495.431601 
L 594.633691 520.937858 
L 594.937133 478.7218 
L 595.239424 527.355764 
L 595.540572 486.244566 
L 595.840586 485.832221 
L 596.139474 489.227933 
L 596.437245 484.285993 
L 596.733906 491.441172 
L 597.029467 482.958546 
L 597.323936 484.20971 
L 597.617319 484.440699 
L 597.909626 495.403645 
L 598.200864 493.875131 
L 598.491042 487.892981 
L 598.780166 492.995278 
L 599.068244 480.839473 
L 599.641294 509.616798 
L 599.92628 501.0473 
L 600.21025 479.600154 
L 600.493212 495.260102 
L 600.775172 488.808736 
L 601.056137 500.013452 
L 601.336115 490.368974 
L 601.615112 499.729102 
L 601.893135 505.208557 
L 602.170191 482.430512 
L 602.446287 492.108146 
L 602.721429 491.262638 
L 602.995624 501.802463 
L 603.268878 495.643133 
L 603.541199 493.667244 
L 603.812591 481.100332 
L 604.083062 485.071968 
L 604.352617 493.761603 
L 604.621264 495.726375 
L 604.889007 489.314433 
L 605.155853 492.640293 
L 605.421809 484.530622 
L 605.686879 504.997377 
L 605.95107 489.819692 
L 606.214388 494.079764 
L 606.476838 485.138845 
L 606.738427 485.293753 
L 606.999159 488.012208 
L 607.518076 500.119072 
L 607.776273 514.234545 
L 608.033635 481.784935 
L 608.545879 495.808077 
L 608.80077 495.376307 
L 609.054849 490.308646 
L 609.308119 489.330341 
L 609.560587 491.448068 
L 609.812258 492.010628 
L 610.063135 508.104022 
L 610.313225 487.426078 
L 610.562532 487.093673 
L 610.811062 494.04728 
L 611.058818 497.743982 
L 611.305806 481.744397 
L 611.55203 484.972821 
L 612.042208 495.170123 
L 612.28617 490.120971 
L 612.529387 494.20857 
L 613.013605 489.146515 
L 613.254614 489.416783 
L 613.494897 483.497925 
L 613.734457 502.414638 
L 613.973298 495.924785 
L 614.211426 482.566327 
L 614.448843 503.823691 
L 614.685555 500.247792 
L 614.921566 484.330142 
L 615.15688 490.28558 
L 615.3915 508.901781 
L 615.858678 487.34863 
L 616.091243 488.381589 
L 616.554347 502.419297 
L 616.784892 496.477456 
L 617.014773 497.101504 
L 617.243992 504.551083 
L 617.472553 517.905682 
L 617.700461 516.318355 
L 617.927718 482.894428 
L 618.154329 475.602323 
L 618.380296 482.738211 
L 618.605625 493.976306 
L 618.830318 483.505546 
L 619.054379 488.87656 
L 619.277811 490.878686 
L 619.500618 488.181961 
L 619.722804 489.972002 
L 619.944372 481.623643 
L 620.165325 484.844603 
L 620.385667 492.346478 
L 620.605401 511.459522 
L 620.824531 481.166382 
L 621.043059 486.997961 
L 621.26099 486.724876 
L 621.478326 509.609533 
L 621.69507 489.694262 
L 621.911227 530.841049 
L 622.341787 480.629792 
L 622.556198 496.784617 
L 622.770034 486.329116 
L 622.983296 496.0865 
L 623.195989 484.292837 
L 623.408116 492.44666 
L 623.61968 491.262259 
L 623.830683 491.020704 
L 624.041128 497.055845 
L 624.251019 495.17382 
L 624.460358 516.193058 
L 624.669149 486.650987 
L 624.877394 493.504649 
L 625.085096 488.775162 
L 625.292257 503.244775 
L 625.498881 492.894556 
L 625.704971 494.08554 
L 625.910528 505.986574 
L 626.115557 493.311496 
L 626.320059 494.319434 
L 626.524038 493.05954 
L 626.727495 491.015 
L 626.930435 506.627641 
L 627.132858 502.165074 
L 627.334768 487.054995 
L 627.536168 510.318985 
L 627.73706 495.347522 
L 627.937446 522.066331 
L 628.13733 504.636575 
L 628.336713 503.970357 
L 628.535599 487.965311 
L 628.733989 507.147591 
L 628.931886 494.126763 
L 629.129293 493.687324 
L 629.326211 503.448291 
L 629.718594 483.187317 
L 629.914063 508.535622 
L 630.109054 513.368718 
L 630.303568 487.865793 
L 630.497608 478.246645 
L 630.691177 478.689828 
L 630.884277 480.830589 
L 631.07691 501.365687 
L 631.269078 485.643859 
L 631.460783 481.449896 
L 631.652028 485.774717 
L 631.842815 498.994206 
L 632.033146 494.897264 
L 632.223024 486.918702 
L 632.41245 514.44422 
L 632.601426 483.211973 
L 632.789956 495.721187 
L 632.97804 495.235748 
L 633.165681 502.01111 
L 633.352881 499.39511 
L 633.539642 495.091137 
L 633.725966 484.863836 
L 633.911856 524.65219 
L 634.097312 482.873497 
L 634.282338 481.955197 
L 634.466935 485.098195 
L 634.651105 494.758019 
L 634.83485 491.444644 
L 635.018173 503.261534 
L 635.201074 482.585589 
L 635.383557 492.932094 
L 635.565622 484.438271 
L 635.747272 508.619628 
L 635.928509 492.622429 
L 636.109335 489.357334 
L 636.289751 490.115928 
L 636.649361 506.13283 
L 636.828559 500.664029 
L 637.007355 483.560729 
L 637.185751 490.865844 
L 637.363748 492.875155 
L 637.541348 496.405433 
L 637.718553 492.238683 
L 637.895364 510.154185 
L 638.071784 486.519984 
L 638.247814 501.110449 
L 638.423456 487.464541 
L 638.598712 493.821565 
L 638.773582 494.214923 
L 638.94807 475.174507 
L 639.122176 483.780923 
L 639.295903 521.656118 
L 639.469251 474.344696 
L 639.642223 508.117174 
L 639.987044 475.958572 
L 640.158897 485.677511 
L 640.330379 503.655234 
L 640.501493 484.884302 
L 640.67224 490.737389 
L 640.842622 521.160824 
L 641.012641 487.832294 
L 641.182297 477.164554 
L 641.351593 498.758512 
L 641.520529 500.757537 
L 641.689108 481.744238 
L 641.857331 480.659128 
L 642.0252 487.433354 
L 642.192715 486.412196 
L 642.359879 482.299035 
L 642.526693 497.277884 
L 642.693158 484.903189 
L 643.025049 519.593469 
L 643.190477 487.365141 
L 643.355562 499.540322 
L 643.520306 502.996415 
L 643.684709 484.764526 
L 643.848774 492.478725 
L 644.012502 506.833702 
L 644.175894 496.185124 
L 644.338952 512.5194 
L 644.501676 489.22367 
L 644.664069 485.064773 
L 644.826131 485.687132 
L 644.987864 487.779891 
L 645.14927 494.922329 
L 645.310349 489.499743 
L 645.471103 492.697632 
L 645.791641 487.451965 
L 645.951427 497.966321 
L 646.270042 502.046335 
L 646.428873 500.676496 
L 646.587387 488.318704 
L 646.745587 496.936777 
L 646.903473 491.108959 
L 647.21831 500.717476 
L 647.531907 487.651952 
L 647.688244 488.216965 
L 647.844274 504.136612 
L 647.844274 504.136612 
" style="fill:none;stroke:#b22222;stroke-linecap:round;stroke-width:1.75;"/>
   </g>
   <g id="patch_6">
    <path d="M 90 512.64 
L 90 311.04 
" style="fill:none;stroke:#262626;stroke-linecap:square;stroke-linejoin:miter;stroke-width:1.25;"/>
   </g>
   <g id="patch_7">
    <path d="M 90 512.64 
L 648 512.64 
" style="fill:none;stroke:#262626;stroke-linecap:square;stroke-linejoin:miter;stroke-width:1.25;"/>
   </g>
  </g>
 </g>
 <defs>
  <clipPath id="p5c39028c45">
   <rect height="201.6" width="558" x="90" y="69.12"/>
  </clipPath>
  <clipPath id="p167c2c118f">
   <rect height="201.6" width="558" x="90" y="311.04"/>
  </clipPath>
 </defs>
</svg>
