<?xml version="1.0" encoding="utf-8" standalone="no"?>
<!DOCTYPE svg PUBLIC "-//W3C//DTD SVG 1.1//EN"
  "http://www.w3.org/Graphics/SVG/1.1/DTD/svg11.dtd">
<!-- Created with matplotlib (http://matplotlib.org/) -->
<svg height="576pt" version="1.1" viewBox="0 0 720 576" width="720pt" xmlns="http://www.w3.org/2000/svg" xmlns:xlink="http://www.w3.org/1999/xlink">
 <defs>
  <style type="text/css">
*{stroke-linecap:butt;stroke-linejoin:round;}
  </style>
 </defs>
 <g id="figure_1">
  <g id="patch_1">
   <path d="M 0 576 
L 720 576 
L 720 0 
L 0 0 
z
" style="fill:#ffffff;"/>
  </g>
  <g id="axes_1">
   <g id="patch_2">
    <path d="M 90 270.72 
L 648 270.72 
L 648 69.12 
L 90 69.12 
z
" style="fill:#ffffff;"/>
   </g>
   <g id="matplotlib.axis_1">
    <g id="xtick_1">
     <g id="line2d_1">
      <defs>
       <path d="M 0 0 
L 0 6 
" id="ma41821e2d7" style="stroke:#262626;"/>
      </defs>
      <g>
       <use style="fill:#262626;stroke:#262626;" x="90" xlink:href="#ma41821e2d7" y="270.72"/>
      </g>
     </g>
     <g id="text_1">
      <!-- 0 -->
      <defs>
       <path d="M 4.15625 35.296875 
Q 4.15625 48 6.765625 55.734375 
Q 9.375 63.484375 14.515625 67.671875 
Q 19.671875 71.875 27.484375 71.875 
Q 33.25 71.875 37.59375 69.546875 
Q 41.9375 67.234375 44.765625 62.859375 
Q 47.609375 58.5 49.21875 52.21875 
Q 50.828125 45.953125 50.828125 35.296875 
Q 50.828125 22.703125 48.234375 14.96875 
Q 45.65625 7.234375 40.5 3 
Q 35.359375 -1.21875 27.484375 -1.21875 
Q 17.140625 -1.21875 11.234375 6.203125 
Q 4.15625 15.140625 4.15625 35.296875 
z
M 13.1875 35.296875 
Q 13.1875 17.671875 17.3125 11.828125 
Q 21.4375 6 27.484375 6 
Q 33.546875 6 37.671875 11.859375 
Q 41.796875 17.71875 41.796875 35.296875 
Q 41.796875 52.984375 37.671875 58.78125 
Q 33.546875 64.59375 27.390625 64.59375 
Q 21.34375 64.59375 17.71875 59.46875 
Q 13.1875 52.9375 13.1875 35.296875 
z
" id="ArialMT-30"/>
      </defs>
      <g style="fill:#262626;" transform="translate(87.219531 290.877812)scale(0.1 -0.1)">
       <use xlink:href="#ArialMT-30"/>
      </g>
     </g>
    </g>
    <g id="xtick_2">
     <g id="line2d_2">
      <g>
       <use style="fill:#262626;stroke:#262626;" x="198.984375" xlink:href="#ma41821e2d7" y="270.72"/>
      </g>
     </g>
     <g id="text_2">
      <!-- 200 -->
      <defs>
       <path d="M 50.34375 8.453125 
L 50.34375 0 
L 3.03125 0 
Q 2.9375 3.171875 4.046875 6.109375 
Q 5.859375 10.9375 9.828125 15.625 
Q 13.8125 20.3125 21.34375 26.46875 
Q 33.015625 36.03125 37.109375 41.625 
Q 41.21875 47.21875 41.21875 52.203125 
Q 41.21875 57.421875 37.46875 61 
Q 33.734375 64.59375 27.734375 64.59375 
Q 21.390625 64.59375 17.578125 60.78125 
Q 13.765625 56.984375 13.71875 50.25 
L 4.6875 51.171875 
Q 5.609375 61.28125 11.65625 66.578125 
Q 17.71875 71.875 27.9375 71.875 
Q 38.234375 71.875 44.234375 66.15625 
Q 50.25 60.453125 50.25 52 
Q 50.25 47.703125 48.484375 43.546875 
Q 46.734375 39.40625 42.65625 34.8125 
Q 38.578125 30.21875 29.109375 22.21875 
Q 21.1875 15.578125 18.9375 13.203125 
Q 16.703125 10.84375 15.234375 8.453125 
z
" id="ArialMT-32"/>
      </defs>
      <g style="fill:#262626;" transform="translate(190.642969 290.877812)scale(0.1 -0.1)">
       <use xlink:href="#ArialMT-32"/>
       <use x="55.615234" xlink:href="#ArialMT-30"/>
       <use x="111.230469" xlink:href="#ArialMT-30"/>
      </g>
     </g>
    </g>
    <g id="xtick_3">
     <g id="line2d_3">
      <g>
       <use style="fill:#262626;stroke:#262626;" x="307.96875" xlink:href="#ma41821e2d7" y="270.72"/>
      </g>
     </g>
     <g id="text_3">
      <!-- 400 -->
      <defs>
       <path d="M 32.328125 0 
L 32.328125 17.140625 
L 1.265625 17.140625 
L 1.265625 25.203125 
L 33.9375 71.578125 
L 41.109375 71.578125 
L 41.109375 25.203125 
L 50.78125 25.203125 
L 50.78125 17.140625 
L 41.109375 17.140625 
L 41.109375 0 
z
M 32.328125 25.203125 
L 32.328125 57.46875 
L 9.90625 25.203125 
z
" id="ArialMT-34"/>
      </defs>
      <g style="fill:#262626;" transform="translate(299.627344 290.877812)scale(0.1 -0.1)">
       <use xlink:href="#ArialMT-34"/>
       <use x="55.615234" xlink:href="#ArialMT-30"/>
       <use x="111.230469" xlink:href="#ArialMT-30"/>
      </g>
     </g>
    </g>
    <g id="xtick_4">
     <g id="line2d_4">
      <g>
       <use style="fill:#262626;stroke:#262626;" x="416.953125" xlink:href="#ma41821e2d7" y="270.72"/>
      </g>
     </g>
     <g id="text_4">
      <!-- 600 -->
      <defs>
       <path d="M 49.75 54.046875 
L 41.015625 53.375 
Q 39.84375 58.546875 37.703125 60.890625 
Q 34.125 64.65625 28.90625 64.65625 
Q 24.703125 64.65625 21.53125 62.3125 
Q 17.390625 59.28125 14.984375 53.46875 
Q 12.59375 47.65625 12.5 36.921875 
Q 15.671875 41.75 20.265625 44.09375 
Q 24.859375 46.4375 29.890625 46.4375 
Q 38.671875 46.4375 44.84375 39.96875 
Q 51.03125 33.5 51.03125 23.25 
Q 51.03125 16.5 48.125 10.71875 
Q 45.21875 4.9375 40.140625 1.859375 
Q 35.0625 -1.21875 28.609375 -1.21875 
Q 17.625 -1.21875 10.6875 6.859375 
Q 3.765625 14.9375 3.765625 33.5 
Q 3.765625 54.25 11.421875 63.671875 
Q 18.109375 71.875 29.4375 71.875 
Q 37.890625 71.875 43.28125 67.140625 
Q 48.6875 62.40625 49.75 54.046875 
z
M 13.875 23.1875 
Q 13.875 18.65625 15.796875 14.5 
Q 17.71875 10.359375 21.1875 8.171875 
Q 24.65625 6 28.46875 6 
Q 34.03125 6 38.03125 10.484375 
Q 42.046875 14.984375 42.046875 22.703125 
Q 42.046875 30.125 38.078125 34.390625 
Q 34.125 38.671875 28.125 38.671875 
Q 22.171875 38.671875 18.015625 34.390625 
Q 13.875 30.125 13.875 23.1875 
z
" id="ArialMT-36"/>
      </defs>
      <g style="fill:#262626;" transform="translate(408.611719 290.877812)scale(0.1 -0.1)">
       <use xlink:href="#ArialMT-36"/>
       <use x="55.615234" xlink:href="#ArialMT-30"/>
       <use x="111.230469" xlink:href="#ArialMT-30"/>
      </g>
     </g>
    </g>
    <g id="xtick_5">
     <g id="line2d_5">
      <g>
       <use style="fill:#262626;stroke:#262626;" x="525.9375" xlink:href="#ma41821e2d7" y="270.72"/>
      </g>
     </g>
     <g id="text_5">
      <!-- 800 -->
      <defs>
       <path d="M 17.671875 38.8125 
Q 12.203125 40.828125 9.5625 44.53125 
Q 6.9375 48.25 6.9375 53.421875 
Q 6.9375 61.234375 12.546875 66.546875 
Q 18.171875 71.875 27.484375 71.875 
Q 36.859375 71.875 42.578125 66.421875 
Q 48.296875 60.984375 48.296875 53.171875 
Q 48.296875 48.1875 45.671875 44.5 
Q 43.0625 40.828125 37.75 38.8125 
Q 44.34375 36.671875 47.78125 31.875 
Q 51.21875 27.09375 51.21875 20.453125 
Q 51.21875 11.28125 44.71875 5.03125 
Q 38.234375 -1.21875 27.640625 -1.21875 
Q 17.046875 -1.21875 10.546875 5.046875 
Q 4.046875 11.328125 4.046875 20.703125 
Q 4.046875 27.6875 7.59375 32.390625 
Q 11.140625 37.109375 17.671875 38.8125 
z
M 15.921875 53.71875 
Q 15.921875 48.640625 19.1875 45.40625 
Q 22.46875 42.1875 27.6875 42.1875 
Q 32.765625 42.1875 36.015625 45.375 
Q 39.265625 48.578125 39.265625 53.21875 
Q 39.265625 58.0625 35.90625 61.359375 
Q 32.5625 64.65625 27.59375 64.65625 
Q 22.5625 64.65625 19.234375 61.421875 
Q 15.921875 58.203125 15.921875 53.71875 
z
M 13.09375 20.65625 
Q 13.09375 16.890625 14.875 13.375 
Q 16.65625 9.859375 20.171875 7.921875 
Q 23.6875 6 27.734375 6 
Q 34.03125 6 38.125 10.046875 
Q 42.234375 14.109375 42.234375 20.359375 
Q 42.234375 26.703125 38.015625 30.859375 
Q 33.796875 35.015625 27.4375 35.015625 
Q 21.234375 35.015625 17.15625 30.90625 
Q 13.09375 26.8125 13.09375 20.65625 
z
" id="ArialMT-38"/>
      </defs>
      <g style="fill:#262626;" transform="translate(517.596094 290.877812)scale(0.1 -0.1)">
       <use xlink:href="#ArialMT-38"/>
       <use x="55.615234" xlink:href="#ArialMT-30"/>
       <use x="111.230469" xlink:href="#ArialMT-30"/>
      </g>
     </g>
    </g>
    <g id="xtick_6">
     <g id="line2d_6">
      <g>
       <use style="fill:#262626;stroke:#262626;" x="634.921875" xlink:href="#ma41821e2d7" y="270.72"/>
      </g>
     </g>
     <g id="text_6">
      <!-- 1000 -->
      <defs>
       <path d="M 37.25 0 
L 28.46875 0 
L 28.46875 56 
Q 25.296875 52.984375 20.140625 49.953125 
Q 14.984375 46.921875 10.890625 45.40625 
L 10.890625 53.90625 
Q 18.265625 57.375 23.78125 62.296875 
Q 29.296875 67.234375 31.59375 71.875 
L 37.25 71.875 
z
" id="ArialMT-31"/>
      </defs>
      <g style="fill:#262626;" transform="translate(623.8 290.877812)scale(0.1 -0.1)">
       <use xlink:href="#ArialMT-31"/>
       <use x="55.615234" xlink:href="#ArialMT-30"/>
       <use x="111.230469" xlink:href="#ArialMT-30"/>
       <use x="166.845703" xlink:href="#ArialMT-30"/>
      </g>
     </g>
    </g>
   </g>
   <g id="matplotlib.axis_2">
    <g id="ytick_1">
     <g id="line2d_7">
      <defs>
       <path d="M 0 0 
L -6 0 
" id="m0b9ba00db1" style="stroke:#262626;"/>
      </defs>
      <g>
       <use style="fill:#262626;stroke:#262626;" x="90" xlink:href="#m0b9ba00db1" y="270.72"/>
      </g>
     </g>
     <g id="text_7">
      <!-- −0.6 -->
      <defs>
       <path d="M 52.828125 31.203125 
L 5.5625 31.203125 
L 5.5625 39.40625 
L 52.828125 39.40625 
z
" id="ArialMT-2212"/>
       <path d="M 9.078125 0 
L 9.078125 10.015625 
L 19.09375 10.015625 
L 19.09375 0 
z
" id="ArialMT-2e"/>
      </defs>
      <g style="fill:#262626;" transform="translate(57.259375 274.298906)scale(0.1 -0.1)">
       <use xlink:href="#ArialMT-2212"/>
       <use x="58.398438" xlink:href="#ArialMT-30"/>
       <use x="114.013672" xlink:href="#ArialMT-2e"/>
       <use x="141.796875" xlink:href="#ArialMT-36"/>
      </g>
     </g>
    </g>
    <g id="ytick_2">
     <g id="line2d_8">
      <g>
       <use style="fill:#262626;stroke:#262626;" x="90" xlink:href="#m0b9ba00db1" y="237.12"/>
      </g>
     </g>
     <g id="text_8">
      <!-- −0.4 -->
      <g style="fill:#262626;" transform="translate(57.259375 240.698906)scale(0.1 -0.1)">
       <use xlink:href="#ArialMT-2212"/>
       <use x="58.398438" xlink:href="#ArialMT-30"/>
       <use x="114.013672" xlink:href="#ArialMT-2e"/>
       <use x="141.796875" xlink:href="#ArialMT-34"/>
      </g>
     </g>
    </g>
    <g id="ytick_3">
     <g id="line2d_9">
      <g>
       <use style="fill:#262626;stroke:#262626;" x="90" xlink:href="#m0b9ba00db1" y="203.52"/>
      </g>
     </g>
     <g id="text_9">
      <!-- −0.2 -->
      <g style="fill:#262626;" transform="translate(57.259375 207.098906)scale(0.1 -0.1)">
       <use xlink:href="#ArialMT-2212"/>
       <use x="58.398438" xlink:href="#ArialMT-30"/>
       <use x="114.013672" xlink:href="#ArialMT-2e"/>
       <use x="141.796875" xlink:href="#ArialMT-32"/>
      </g>
     </g>
    </g>
    <g id="ytick_4">
     <g id="line2d_10">
      <g>
       <use style="fill:#262626;stroke:#262626;" x="90" xlink:href="#m0b9ba00db1" y="169.92"/>
      </g>
     </g>
     <g id="text_10">
      <!-- 0.0 -->
      <g style="fill:#262626;" transform="translate(63.1 173.498906)scale(0.1 -0.1)">
       <use xlink:href="#ArialMT-30"/>
       <use x="55.615234" xlink:href="#ArialMT-2e"/>
       <use x="83.398438" xlink:href="#ArialMT-30"/>
      </g>
     </g>
    </g>
    <g id="ytick_5">
     <g id="line2d_11">
      <g>
       <use style="fill:#262626;stroke:#262626;" x="90" xlink:href="#m0b9ba00db1" y="136.32"/>
      </g>
     </g>
     <g id="text_11">
      <!-- 0.2 -->
      <g style="fill:#262626;" transform="translate(63.1 139.898906)scale(0.1 -0.1)">
       <use xlink:href="#ArialMT-30"/>
       <use x="55.615234" xlink:href="#ArialMT-2e"/>
       <use x="83.398438" xlink:href="#ArialMT-32"/>
      </g>
     </g>
    </g>
    <g id="ytick_6">
     <g id="line2d_12">
      <g>
       <use style="fill:#262626;stroke:#262626;" x="90" xlink:href="#m0b9ba00db1" y="102.72"/>
      </g>
     </g>
     <g id="text_12">
      <!-- 0.4 -->
      <g style="fill:#262626;" transform="translate(63.1 106.298906)scale(0.1 -0.1)">
       <use xlink:href="#ArialMT-30"/>
       <use x="55.615234" xlink:href="#ArialMT-2e"/>
       <use x="83.398438" xlink:href="#ArialMT-34"/>
      </g>
     </g>
    </g>
    <g id="ytick_7">
     <g id="line2d_13">
      <g>
       <use style="fill:#262626;stroke:#262626;" x="90" xlink:href="#m0b9ba00db1" y="69.12"/>
      </g>
     </g>
     <g id="text_13">
      <!-- 0.6 -->
      <g style="fill:#262626;" transform="translate(63.1 72.698906)scale(0.1 -0.1)">
       <use xlink:href="#ArialMT-30"/>
       <use x="55.615234" xlink:href="#ArialMT-2e"/>
       <use x="83.398438" xlink:href="#ArialMT-36"/>
      </g>
     </g>
    </g>
   </g>
   <g id="line2d_14">
    <path clip-path="url(#p6fdfdc77b4)" d="M 90 172.462969 
L 90.544922 171.688799 
L 91.089844 171.186357 
L 92.724609 170.284014 
L 93.269531 169.945635 
L 94.359375 169.125322 
L 94.904297 168.720293 
L 95.994141 168.566484 
L 97.083984 169.730303 
L 98.173828 172.36043 
L 99.263672 176.241533 
L 100.353516 179.8304 
L 100.898438 181.137773 
L 101.443359 182.004229 
L 101.988281 182.363115 
L 103.078125 182.132402 
L 104.712891 179.307451 
L 109.072266 168.443437 
L 109.617188 167.284746 
L 111.796875 164.777666 
L 112.341797 164.526445 
L 112.886719 163.941973 
L 113.431641 162.988359 
L 113.976562 162.526934 
L 115.066406 160.999102 
L 116.15625 160.31209 
L 116.701172 160.327471 
L 117.246094 160.635088 
L 117.791016 161.137529 
L 118.335938 161.875811 
L 119.425781 164.680254 
L 119.970703 166.310625 
L 121.605469 172.545 
L 122.695312 175.841631 
L 123.240234 176.713213 
L 124.330078 177.836016 
L 124.875 177.856523 
L 125.964844 178.14876 
L 127.054688 179.025469 
L 127.599609 179.17415 
L 128.689453 179.989336 
L 129.234375 179.76375 
L 129.779297 179.732988 
L 130.869141 178.205156 
L 132.503906 174.349687 
L 133.59375 171.560625 
L 134.138672 169.884111 
L 134.683594 168.72542 
L 135.228516 166.99251 
L 137.408203 162.357744 
L 138.498047 160.794023 
L 140.132812 159.127764 
L 140.677734 158.789385 
L 142.3125 158.707354 
L 142.857422 159.055986 
L 143.402344 159.932695 
L 143.947266 160.296709 
L 146.671875 167.033525 
L 148.851562 172.545 
L 149.941406 174.63167 
L 150.486328 175.385332 
L 151.576172 176.221025 
L 152.121094 176.056963 
L 152.666016 175.17 
L 153.210938 173.867754 
L 153.755859 172.134844 
L 154.845703 167.843584 
L 155.935547 162.373125 
L 157.570312 156.133623 
L 158.660156 153.882891 
L 159.205078 153.498369 
L 159.75 153.477861 
L 160.294922 153.621416 
L 161.384766 155.144121 
L 162.474609 157.123125 
L 164.109375 159.825029 
L 164.654297 160.824785 
L 165.199219 161.419512 
L 165.744141 162.434648 
L 166.289062 163.137041 
L 166.833984 164.444414 
L 167.378906 165.398027 
L 170.648438 173.344805 
L 173.373047 177.472002 
L 175.007812 179.112627 
L 176.097656 178.763994 
L 177.732422 176.472246 
L 178.822266 174.344561 
L 179.367188 173.498613 
L 179.912109 172.975664 
L 180.457031 172.170732 
L 181.001953 171.673418 
L 181.546875 170.991533 
L 182.091797 170.632646 
L 183.181641 169.207354 
L 183.726562 167.910234 
L 184.816406 165.9825 
L 185.361328 164.793047 
L 185.90625 163.880449 
L 186.451172 163.680498 
L 186.996094 163.731768 
L 187.541016 163.972734 
L 188.630859 166.013262 
L 190.265625 171.083818 
L 190.810547 172.555254 
L 191.355469 174.508623 
L 192.445312 176.892656 
L 192.990234 178.138506 
L 193.535156 178.492266 
L 194.080078 179.169023 
L 194.625 178.984453 
L 195.169922 178.651201 
L 195.714844 177.969316 
L 196.804688 175.718584 
L 197.894531 173.001299 
L 200.619141 167.223223 
L 201.164062 166.156816 
L 203.34375 163.244707 
L 203.888672 162.706377 
L 204.433594 161.86043 
L 205.523438 159.866045 
L 207.158203 156.830889 
L 207.703125 156.369463 
L 208.248047 156.133623 
L 208.792969 156.497637 
L 209.337891 157.302568 
L 210.427734 160.353105 
L 211.517578 164.188066 
L 212.607422 167.418047 
L 213.697266 169.581621 
L 214.787109 171.514482 
L 215.332031 172.211748 
L 216.421875 173.965166 
L 218.056641 176.743975 
L 219.146484 177.671953 
L 220.236328 178.03084 
L 220.78125 178.000078 
L 221.326172 177.61043 
L 221.871094 177.384844 
L 222.416016 176.800371 
L 223.505859 175.093096 
L 224.595703 172.437334 
L 226.230469 168.274248 
L 227.865234 164.418779 
L 228.955078 162.439775 
L 229.5 161.491289 
L 230.044922 160.286455 
L 231.679688 157.579424 
L 232.769531 156.620684 
L 233.314453 156.461748 
L 233.859375 156.595049 
L 234.949219 157.394854 
L 236.039062 158.538164 
L 236.583984 159.317461 
L 238.21875 163.147295 
L 241.488281 173.314043 
L 242.033203 174.421465 
L 242.578125 175.262285 
L 243.123047 175.246904 
L 243.667969 175.057207 
L 244.212891 174.129229 
L 244.757812 172.765459 
L 245.847656 169.099687 
L 248.572266 157.538408 
L 249.117188 156.005449 
L 250.207031 154.011064 
L 250.751953 153.298418 
L 251.296875 153.457354 
L 251.841797 153.334307 
L 254.021484 154.400713 
L 254.566406 154.795488 
L 255.111328 155.677324 
L 255.65625 156.133623 
L 258.925781 162.88582 
L 259.470703 163.685625 
L 260.015625 165.126299 
L 261.650391 168.243486 
L 263.830078 174.057451 
L 264.919922 176.169756 
L 265.464844 176.800371 
L 266.554688 177.041338 
L 268.189453 175.585283 
L 268.734375 174.98543 
L 271.458984 173.529375 
L 272.003906 172.873125 
L 272.548828 172.442461 
L 274.183594 169.191973 
L 275.273438 166.197832 
L 276.908203 163.029375 
L 277.453125 162.285967 
L 277.998047 161.829668 
L 278.542969 161.814287 
L 279.087891 162.142412 
L 279.632812 162.814043 
L 280.177734 163.972734 
L 283.447266 173.596025 
L 283.992188 175.113604 
L 285.082031 176.877275 
L 285.626953 177.333574 
L 286.171875 177.518145 
L 286.716797 177.497637 
L 287.261719 177.02083 
L 287.806641 176.385088 
L 288.896484 174.298418 
L 289.441406 172.688555 
L 290.53125 170.530107 
L 291.621094 168.797197 
L 293.800781 166.351641 
L 294.345703 165.346758 
L 295.980469 161.08626 
L 296.525391 159.373857 
L 298.160156 155.764482 
L 299.25 155.369707 
L 299.794922 155.71834 
L 300.884766 157.261553 
L 304.154297 164.136797 
L 304.699219 165.085283 
L 305.789062 167.443682 
L 307.96875 171.576006 
L 309.058594 173.754961 
L 310.148438 175.636553 
L 310.693359 176.231279 
L 311.238281 177.118242 
L 312.328125 177.287432 
L 312.873047 176.979814 
L 313.962891 175.59041 
L 315.052734 174.083086 
L 315.597656 172.950029 
L 316.142578 172.170732 
L 318.322266 167.336016 
L 321.046875 160.809404 
L 321.591797 160.096758 
L 322.136719 159.081621 
L 323.226562 157.866533 
L 323.771484 157.389727 
L 324.316406 156.569414 
L 325.951172 155.764482 
L 327.041016 155.677324 
L 327.585938 156.154131 
L 328.130859 156.841143 
L 329.220703 159.071367 
L 333.580078 173.708818 
L 334.125 174.5804 
L 334.669922 175.011064 
L 335.214844 174.616289 
L 335.759766 173.657549 
L 336.304688 172.288652 
L 337.939453 166.423418 
L 339.029297 162.562822 
L 339.574219 160.778643 
L 340.119141 159.65584 
L 340.664062 158.148516 
L 342.84375 153.688066 
L 343.933594 152.847246 
L 344.478516 152.708818 
L 345.023438 152.847246 
L 345.568359 153.124102 
L 346.658203 154.554521 
L 347.203125 155.492754 
L 347.748047 156.149004 
L 348.292969 157.128252 
L 348.837891 157.599932 
L 350.472656 159.758379 
L 351.017578 160.655596 
L 352.107422 163.342119 
L 352.652344 165.387773 
L 353.742188 168.710039 
L 354.287109 170.658281 
L 354.832031 171.555498 
L 355.921875 173.703691 
L 356.466797 174.293291 
L 357.556641 174.93416 
L 358.101562 174.918779 
L 358.646484 175.077715 
L 359.191406 175.021318 
L 359.736328 175.11873 
L 360.28125 174.980303 
L 360.826172 175.180254 
L 362.460938 174.677812 
L 363.005859 174.457354 
L 363.550781 173.893389 
L 364.640625 172.339922 
L 367.365234 164.839189 
L 367.910156 163.198564 
L 369 161.870684 
L 369.544922 161.50667 
L 370.089844 161.711748 
L 370.634766 161.655352 
L 372.269531 164.362383 
L 373.359375 167.392412 
L 375.539062 174.549639 
L 376.083984 175.692949 
L 376.628906 176.446611 
L 377.173828 176.995195 
L 377.71875 177.015703 
L 378.808594 176.108232 
L 379.353516 174.964922 
L 381.533203 172.555254 
L 382.078125 172.432207 
L 382.623047 172.037432 
L 383.167969 171.401689 
L 384.257812 169.68416 
L 384.802734 168.520342 
L 386.982422 162.367998 
L 388.072266 159.363604 
L 389.162109 157.338457 
L 389.707031 156.605303 
L 390.796875 155.913164 
L 391.886719 156.943682 
L 392.431641 157.492266 
L 395.701172 162.998613 
L 397.335938 166.023516 
L 399.515625 171.734941 
L 400.060547 172.806475 
L 400.605469 174.149736 
L 401.150391 174.903398 
L 401.695312 175.908281 
L 403.330078 177.461748 
L 404.419922 177.836016 
L 406.054688 177.102861 
L 406.599609 176.467119 
L 407.689453 174.534258 
L 409.869141 169.484209 
L 410.414062 167.992266 
L 411.503906 165.833818 
L 412.048828 164.223955 
L 412.59375 163.634355 
L 413.138672 162.409014 
L 414.773438 159.794268 
L 415.318359 159.086748 
L 415.863281 158.184404 
L 416.953125 156.989824 
L 418.042969 156.051592 
L 418.587891 155.795244 
L 419.132812 155.723467 
L 419.677734 156.061846 
L 420.222656 157.194902 
L 421.3125 160.455645 
L 424.037109 171.975908 
L 425.126953 174.570146 
L 425.671875 174.964922 
L 426.216797 175.139238 
L 426.761719 174.872637 
L 427.306641 174.406084 
L 428.941406 170.719805 
L 429.486328 169.468828 
L 430.576172 166.269609 
L 432.210938 160.794023 
L 433.300781 157.605059 
L 433.845703 156.507891 
L 434.935547 155.426104 
L 435.480469 155.118486 
L 437.115234 155.226152 
L 437.660156 155.354326 
L 438.205078 155.308184 
L 439.839844 155.964434 
L 440.384766 156.528398 
L 441.474609 158.199785 
L 443.109375 162.316729 
L 445.289062 168.648516 
L 446.378906 171.493975 
L 448.558594 174.15999 
L 449.648438 174.795732 
L 450.193359 175.482744 
L 450.738281 175.862139 
L 451.828125 177.113115 
L 452.373047 177.784746 
L 452.917969 178.184648 
L 453.462891 178.297441 
L 454.007812 177.959062 
L 454.552734 177.466875 
L 455.097656 176.677324 
L 456.732422 173.360186 
L 457.822266 170.689043 
L 460.546875 163.957354 
L 461.636719 162.783281 
L 462.181641 162.855059 
L 462.726562 163.562578 
L 463.271484 164.628984 
L 464.90625 169.935381 
L 465.996094 173.585771 
L 466.541016 175.195635 
L 467.085938 175.995439 
L 467.630859 177.077227 
L 468.175781 177.620684 
L 468.720703 178.005205 
L 469.810547 178.317949 
L 470.355469 178.138506 
L 470.900391 178.287187 
L 471.445312 178.256426 
L 473.080078 177.67708 
L 474.169922 176.964434 
L 474.714844 176.308184 
L 475.259766 175.359697 
L 476.894531 170.971025 
L 479.619141 162.747393 
L 480.708984 161.224687 
L 481.253906 160.753008 
L 482.34375 160.455645 
L 482.888672 160.676104 
L 483.433594 160.711992 
L 483.978516 161.101641 
L 484.523438 161.229814 
L 485.068359 161.783525 
L 485.613281 162.598711 
L 486.158203 163.183184 
L 486.703125 163.993242 
L 487.248047 165.059648 
L 487.792969 166.510576 
L 488.882812 168.868975 
L 493.242188 178.928057 
L 494.332031 180.712236 
L 494.876953 180.978838 
L 495.421875 181.506914 
L 496.511719 181.686357 
L 497.056641 181.481279 
L 498.146484 180.481523 
L 499.236328 179.004961 
L 500.326172 176.949053 
L 503.050781 170.730059 
L 505.775391 166.956621 
L 506.865234 164.72127 
L 507.955078 162.039873 
L 509.044922 159.47127 
L 509.589844 158.825273 
L 510.134766 158.620195 
L 510.679688 158.994463 
L 511.769531 161.117021 
L 512.859375 164.782793 
L 514.494141 170.904375 
L 515.039062 172.760332 
L 517.21875 178.005205 
L 517.763672 178.758867 
L 518.308594 179.179277 
L 519.398438 178.815264 
L 519.943359 178.092363 
L 521.033203 175.436602 
L 523.757812 167.069414 
L 524.847656 164.357256 
L 525.9375 162.537187 
L 528.117188 160.327471 
L 528.662109 159.922441 
L 529.207031 159.768633 
L 530.296875 159.132891 
L 531.386719 159.450762 
L 531.931641 159.835283 
L 532.476562 160.373613 
L 533.566406 162.639727 
L 535.746094 169.340654 
L 536.291016 170.960771 
L 536.835938 171.622148 
L 537.380859 172.811602 
L 537.925781 173.447344 
L 539.560547 176.369707 
L 540.105469 177.102861 
L 541.195312 179.379229 
L 542.285156 181.296709 
L 542.830078 181.696611 
L 543.375 182.316973 
L 543.919922 182.711748 
L 545.009766 183.168047 
L 545.554688 183.050127 
L 546.099609 183.193682 
L 546.644531 182.957842 
L 547.734375 181.409502 
L 549.369141 176.913164 
L 550.458984 172.914141 
L 551.548828 169.720049 
L 552.09375 168.740801 
L 552.638672 168.023027 
L 553.183594 167.869219 
L 553.728516 168.18709 
L 554.273438 168.935625 
L 555.363281 171.186357 
L 556.998047 175.631426 
L 557.542969 177.056719 
L 559.177734 179.984209 
L 560.8125 181.522295 
L 561.357422 181.691484 
L 561.902344 182.286211 
L 562.447266 182.645098 
L 563.537109 183.788408 
L 564.082031 183.870439 
L 564.626953 184.213945 
L 565.171875 183.578203 
L 565.716797 183.383379 
L 566.806641 180.978838 
L 569.53125 172.857744 
L 570.076172 171.447832 
L 572.800781 166.387529 
L 573.345703 165.68001 
L 573.890625 165.341631 
L 574.980469 165.039141 
L 575.525391 165.018633 
L 576.070312 165.505693 
L 576.615234 165.792803 
L 577.160156 166.377275 
L 577.705078 166.720781 
L 579.339844 168.971514 
L 580.429688 171.191484 
L 581.519531 174.134355 
L 582.064453 175.318682 
L 582.609375 176.826006 
L 585.333984 182.404131 
L 585.878906 183.46541 
L 587.513672 185.526445 
L 588.058594 185.869951 
L 588.603516 185.859697 
L 589.693359 184.880449 
L 590.783203 182.839922 
L 591.873047 180.481523 
L 592.962891 178.717852 
L 595.142578 176.60042 
L 596.232422 174.549639 
L 597.322266 171.509355 
L 598.957031 166.131182 
L 599.501953 165.116045 
L 600.046875 163.767656 
L 600.591797 163.213945 
L 601.681641 162.419268 
L 602.771484 163.40877 
L 603.316406 164.152178 
L 604.40625 166.731035 
L 606.041016 172.078447 
L 607.675781 177.866777 
L 608.220703 179.451006 
L 609.310547 181.594072 
L 609.855469 182.029863 
L 610.400391 182.050371 
L 610.945312 181.717119 
L 611.490234 181.055742 
L 612.580078 178.835771 
L 615.304688 171.386309 
L 615.849609 170.27376 
L 616.394531 169.494463 
L 616.939453 168.448564 
L 617.484375 167.787187 
L 618.574219 165.721025 
L 619.119141 164.475176 
L 620.753906 161.891191 
L 621.298828 161.188799 
L 621.84375 160.814531 
L 622.388672 161.342607 
L 622.933594 161.711748 
L 625.658203 166.613115 
L 626.203125 167.89998 
L 626.748047 168.802324 
L 627.292969 170.073809 
L 628.382812 172.155352 
L 631.652344 178.820391 
L 633.287109 181.1429 
L 633.832031 182.117021 
L 634.376953 183.455156 
L 635.466797 185.152178 
L 636.556641 186.690264 
L 637.101562 187.156816 
L 637.646484 186.987627 
L 638.191406 186.618486 
L 638.736328 185.741777 
L 639.826172 183.142412 
L 643.095703 172.468096 
L 643.640625 171.319658 
L 644.185547 170.745439 
L 644.730469 170.596758 
L 645.275391 170.837725 
L 645.820312 171.488848 
L 647.455078 174.257402 
L 647.455078 174.257402 
" style="fill:none;stroke:#4c72b0;stroke-linecap:round;stroke-width:1.75;"/>
   </g>
   <g id="patch_3">
    <path d="M 90 270.72 
L 90 69.12 
" style="fill:none;stroke:#262626;stroke-linecap:square;stroke-linejoin:miter;stroke-width:1.25;"/>
   </g>
   <g id="patch_4">
    <path d="M 90 270.72 
L 648 270.72 
" style="fill:none;stroke:#262626;stroke-linecap:square;stroke-linejoin:miter;stroke-width:1.25;"/>
   </g>
  </g>
  <g id="axes_2">
   <g id="patch_5">
    <path d="M 90 512.64 
L 648 512.64 
L 648 311.04 
L 90 311.04 
z
" style="fill:#ffffff;"/>
   </g>
   <g id="matplotlib.axis_3">
    <g id="xtick_7">
     <g id="line2d_15">
      <g>
       <use style="fill:#262626;stroke:#262626;" x="218.197478" xlink:href="#ma41821e2d7" y="512.64"/>
      </g>
     </g>
     <g id="text_14">
      <!-- $\mathdefault{10^{2}}$ -->
      <g style="fill:#262626;" transform="translate(210.347478 535.9525)scale(0.1 -0.1)">
       <use transform="translate(0 0.99375)" xlink:href="#ArialMT-31"/>
       <use transform="translate(55.615234 0.99375)" xlink:href="#ArialMT-30"/>
       <use transform="translate(112.972813 70.6875)scale(0.7)" xlink:href="#ArialMT-32"/>
      </g>
     </g>
    </g>
    <g id="xtick_8">
     <g id="line2d_16">
      <g>
       <use style="fill:#262626;stroke:#262626;" x="401.606604" xlink:href="#ma41821e2d7" y="512.64"/>
      </g>
     </g>
     <g id="text_15">
      <!-- $\mathdefault{10^{3}}$ -->
      <defs>
       <path d="M 4.203125 18.890625 
L 12.984375 20.0625 
Q 14.5 12.59375 18.140625 9.296875 
Q 21.78125 6 27 6 
Q 33.203125 6 37.46875 10.296875 
Q 41.75 14.59375 41.75 20.953125 
Q 41.75 27 37.796875 30.921875 
Q 33.84375 34.859375 27.734375 34.859375 
Q 25.25 34.859375 21.53125 33.890625 
L 22.515625 41.609375 
Q 23.390625 41.5 23.921875 41.5 
Q 29.546875 41.5 34.03125 44.421875 
Q 38.53125 47.359375 38.53125 53.46875 
Q 38.53125 58.296875 35.25 61.46875 
Q 31.984375 64.65625 26.8125 64.65625 
Q 21.6875 64.65625 18.265625 61.421875 
Q 14.84375 58.203125 13.875 51.765625 
L 5.078125 53.328125 
Q 6.6875 62.15625 12.390625 67.015625 
Q 18.109375 71.875 26.609375 71.875 
Q 32.46875 71.875 37.390625 69.359375 
Q 42.328125 66.84375 44.9375 62.5 
Q 47.5625 58.15625 47.5625 53.265625 
Q 47.5625 48.640625 45.0625 44.828125 
Q 42.578125 41.015625 37.703125 38.765625 
Q 44.046875 37.3125 47.5625 32.6875 
Q 51.078125 28.078125 51.078125 21.140625 
Q 51.078125 11.765625 44.234375 5.25 
Q 37.40625 -1.265625 26.953125 -1.265625 
Q 17.53125 -1.265625 11.296875 4.34375 
Q 5.078125 9.96875 4.203125 18.890625 
z
" id="ArialMT-33"/>
      </defs>
      <g style="fill:#262626;" transform="translate(393.756604 535.9525)scale(0.1 -0.1)">
       <use transform="translate(0 0.99375)" xlink:href="#ArialMT-31"/>
       <use transform="translate(55.615234 0.99375)" xlink:href="#ArialMT-30"/>
       <use transform="translate(112.972813 70.6875)scale(0.7)" xlink:href="#ArialMT-33"/>
      </g>
     </g>
    </g>
    <g id="xtick_9">
     <g id="line2d_17">
      <g>
       <use style="fill:#262626;stroke:#262626;" x="585.01573" xlink:href="#ma41821e2d7" y="512.64"/>
      </g>
     </g>
     <g id="text_16">
      <!-- $\mathdefault{10^{4}}$ -->
      <g style="fill:#262626;" transform="translate(577.16573 535.8525)scale(0.1 -0.1)">
       <use transform="translate(0 0.201563)" xlink:href="#ArialMT-31"/>
       <use transform="translate(55.615234 0.201563)" xlink:href="#ArialMT-30"/>
       <use transform="translate(112.972813 69.895313)scale(0.7)" xlink:href="#ArialMT-34"/>
      </g>
     </g>
    </g>
    <g id="xtick_10">
     <g id="line2d_18">
      <defs>
       <path d="M 0 0 
L 0 3 
" id="mc30a1a0fc0" style="stroke:#262626;stroke-width:0.5;"/>
      </defs>
      <g>
       <use style="fill:#262626;stroke:#262626;stroke-width:0.5;" x="90" xlink:href="#mc30a1a0fc0" y="512.64"/>
      </g>
     </g>
    </g>
    <g id="xtick_11">
     <g id="line2d_19">
      <g>
       <use style="fill:#262626;stroke:#262626;stroke-width:0.5;" x="122.296744" xlink:href="#mc30a1a0fc0" y="512.64"/>
      </g>
     </g>
    </g>
    <g id="xtick_12">
     <g id="line2d_20">
      <g>
       <use style="fill:#262626;stroke:#262626;stroke-width:0.5;" x="145.211648" xlink:href="#mc30a1a0fc0" y="512.64"/>
      </g>
     </g>
    </g>
    <g id="xtick_13">
     <g id="line2d_21">
      <g>
       <use style="fill:#262626;stroke:#262626;stroke-width:0.5;" x="162.985829" xlink:href="#mc30a1a0fc0" y="512.64"/>
      </g>
     </g>
    </g>
    <g id="xtick_14">
     <g id="line2d_22">
      <g>
       <use style="fill:#262626;stroke:#262626;stroke-width:0.5;" x="177.508392" xlink:href="#mc30a1a0fc0" y="512.64"/>
      </g>
     </g>
    </g>
    <g id="xtick_15">
     <g id="line2d_23">
      <g>
       <use style="fill:#262626;stroke:#262626;stroke-width:0.5;" x="189.787045" xlink:href="#mc30a1a0fc0" y="512.64"/>
      </g>
     </g>
    </g>
    <g id="xtick_16">
     <g id="line2d_24">
      <g>
       <use style="fill:#262626;stroke:#262626;stroke-width:0.5;" x="200.423297" xlink:href="#mc30a1a0fc0" y="512.64"/>
      </g>
     </g>
    </g>
    <g id="xtick_17">
     <g id="line2d_25">
      <g>
       <use style="fill:#262626;stroke:#262626;stroke-width:0.5;" x="209.805136" xlink:href="#mc30a1a0fc0" y="512.64"/>
      </g>
     </g>
    </g>
    <g id="xtick_18">
     <g id="line2d_26">
      <g>
       <use style="fill:#262626;stroke:#262626;stroke-width:0.5;" x="273.409126" xlink:href="#mc30a1a0fc0" y="512.64"/>
      </g>
     </g>
    </g>
    <g id="xtick_19">
     <g id="line2d_27">
      <g>
       <use style="fill:#262626;stroke:#262626;stroke-width:0.5;" x="305.70587" xlink:href="#mc30a1a0fc0" y="512.64"/>
      </g>
     </g>
    </g>
    <g id="xtick_20">
     <g id="line2d_28">
      <g>
       <use style="fill:#262626;stroke:#262626;stroke-width:0.5;" x="328.620775" xlink:href="#mc30a1a0fc0" y="512.64"/>
      </g>
     </g>
    </g>
    <g id="xtick_21">
     <g id="line2d_29">
      <g>
       <use style="fill:#262626;stroke:#262626;stroke-width:0.5;" x="346.394955" xlink:href="#mc30a1a0fc0" y="512.64"/>
      </g>
     </g>
    </g>
    <g id="xtick_22">
     <g id="line2d_30">
      <g>
       <use style="fill:#262626;stroke:#262626;stroke-width:0.5;" x="360.917518" xlink:href="#mc30a1a0fc0" y="512.64"/>
      </g>
     </g>
    </g>
    <g id="xtick_23">
     <g id="line2d_31">
      <g>
       <use style="fill:#262626;stroke:#262626;stroke-width:0.5;" x="373.196171" xlink:href="#mc30a1a0fc0" y="512.64"/>
      </g>
     </g>
    </g>
    <g id="xtick_24">
     <g id="line2d_32">
      <g>
       <use style="fill:#262626;stroke:#262626;stroke-width:0.5;" x="383.832423" xlink:href="#mc30a1a0fc0" y="512.64"/>
      </g>
     </g>
    </g>
    <g id="xtick_25">
     <g id="line2d_33">
      <g>
       <use style="fill:#262626;stroke:#262626;stroke-width:0.5;" x="393.214262" xlink:href="#mc30a1a0fc0" y="512.64"/>
      </g>
     </g>
    </g>
    <g id="xtick_26">
     <g id="line2d_34">
      <g>
       <use style="fill:#262626;stroke:#262626;stroke-width:0.5;" x="456.818252" xlink:href="#mc30a1a0fc0" y="512.64"/>
      </g>
     </g>
    </g>
    <g id="xtick_27">
     <g id="line2d_35">
      <g>
       <use style="fill:#262626;stroke:#262626;stroke-width:0.5;" x="489.114996" xlink:href="#mc30a1a0fc0" y="512.64"/>
      </g>
     </g>
    </g>
    <g id="xtick_28">
     <g id="line2d_36">
      <g>
       <use style="fill:#262626;stroke:#262626;stroke-width:0.5;" x="512.029901" xlink:href="#mc30a1a0fc0" y="512.64"/>
      </g>
     </g>
    </g>
    <g id="xtick_29">
     <g id="line2d_37">
      <g>
       <use style="fill:#262626;stroke:#262626;stroke-width:0.5;" x="529.804081" xlink:href="#mc30a1a0fc0" y="512.64"/>
      </g>
     </g>
    </g>
    <g id="xtick_30">
     <g id="line2d_38">
      <g>
       <use style="fill:#262626;stroke:#262626;stroke-width:0.5;" x="544.326645" xlink:href="#mc30a1a0fc0" y="512.64"/>
      </g>
     </g>
    </g>
    <g id="xtick_31">
     <g id="line2d_39">
      <g>
       <use style="fill:#262626;stroke:#262626;stroke-width:0.5;" x="556.605297" xlink:href="#mc30a1a0fc0" y="512.64"/>
      </g>
     </g>
    </g>
    <g id="xtick_32">
     <g id="line2d_40">
      <g>
       <use style="fill:#262626;stroke:#262626;stroke-width:0.5;" x="567.241549" xlink:href="#mc30a1a0fc0" y="512.64"/>
      </g>
     </g>
    </g>
    <g id="xtick_33">
     <g id="line2d_41">
      <g>
       <use style="fill:#262626;stroke:#262626;stroke-width:0.5;" x="576.623389" xlink:href="#mc30a1a0fc0" y="512.64"/>
      </g>
     </g>
    </g>
    <g id="xtick_34">
     <g id="line2d_42">
      <g>
       <use style="fill:#262626;stroke:#262626;stroke-width:0.5;" x="640.227378" xlink:href="#mc30a1a0fc0" y="512.64"/>
      </g>
     </g>
    </g>
   </g>
   <g id="matplotlib.axis_4">
    <g id="ytick_8">
     <g id="line2d_43">
      <g>
       <use style="fill:#262626;stroke:#262626;" x="90" xlink:href="#m0b9ba00db1" y="512.64"/>
      </g>
     </g>
     <g id="text_17">
      <!-- $\mathdefault{10^{-5}}$ -->
      <defs>
       <path d="M 4.15625 18.75 
L 13.375 19.53125 
Q 14.40625 12.796875 18.140625 9.390625 
Q 21.875 6 27.15625 6 
Q 33.5 6 37.890625 10.78125 
Q 42.28125 15.578125 42.28125 23.484375 
Q 42.28125 31 38.0625 35.34375 
Q 33.84375 39.703125 27 39.703125 
Q 22.75 39.703125 19.328125 37.765625 
Q 15.921875 35.84375 13.96875 32.765625 
L 5.71875 33.84375 
L 12.640625 70.609375 
L 48.25 70.609375 
L 48.25 62.203125 
L 19.671875 62.203125 
L 15.828125 42.96875 
Q 22.265625 47.46875 29.34375 47.46875 
Q 38.71875 47.46875 45.15625 40.96875 
Q 51.609375 34.46875 51.609375 24.265625 
Q 51.609375 14.546875 45.953125 7.46875 
Q 39.0625 -1.21875 27.15625 -1.21875 
Q 17.390625 -1.21875 11.203125 4.25 
Q 5.03125 9.71875 4.15625 18.75 
z
" id="ArialMT-35"/>
      </defs>
      <g style="fill:#262626;" transform="translate(57.2 517.74625)scale(0.1 -0.1)">
       <use transform="translate(0 0.879688)" xlink:href="#ArialMT-31"/>
       <use transform="translate(55.615234 0.879688)" xlink:href="#ArialMT-30"/>
       <use transform="translate(112.972813 70.573438)scale(0.7)" xlink:href="#ArialMT-2212"/>
       <use transform="translate(153.851719 70.573438)scale(0.7)" xlink:href="#ArialMT-35"/>
      </g>
     </g>
    </g>
    <g id="ytick_9">
     <g id="line2d_44">
      <g>
       <use style="fill:#262626;stroke:#262626;" x="90" xlink:href="#m0b9ba00db1" y="465.767507"/>
      </g>
     </g>
     <g id="text_18">
      <!-- $\mathdefault{10^{-4}}$ -->
      <g style="fill:#262626;" transform="translate(57.2 470.873757)scale(0.1 -0.1)">
       <use transform="translate(0 0.201563)" xlink:href="#ArialMT-31"/>
       <use transform="translate(55.615234 0.201563)" xlink:href="#ArialMT-30"/>
       <use transform="translate(112.972813 69.895313)scale(0.7)" xlink:href="#ArialMT-2212"/>
       <use transform="translate(153.851719 69.895313)scale(0.7)" xlink:href="#ArialMT-34"/>
      </g>
     </g>
    </g>
    <g id="ytick_10">
     <g id="line2d_45">
      <g>
       <use style="fill:#262626;stroke:#262626;" x="90" xlink:href="#m0b9ba00db1" y="418.895013"/>
      </g>
     </g>
     <g id="text_19">
      <!-- $\mathdefault{10^{-3}}$ -->
      <g style="fill:#262626;" transform="translate(57.2 424.051263)scale(0.1 -0.1)">
       <use transform="translate(0 0.99375)" xlink:href="#ArialMT-31"/>
       <use transform="translate(55.615234 0.99375)" xlink:href="#ArialMT-30"/>
       <use transform="translate(112.972813 70.6875)scale(0.7)" xlink:href="#ArialMT-2212"/>
       <use transform="translate(153.851719 70.6875)scale(0.7)" xlink:href="#ArialMT-33"/>
      </g>
     </g>
    </g>
    <g id="ytick_11">
     <g id="line2d_46">
      <g>
       <use style="fill:#262626;stroke:#262626;" x="90" xlink:href="#m0b9ba00db1" y="372.02252"/>
      </g>
     </g>
     <g id="text_20">
      <!-- $\mathdefault{10^{-2}}$ -->
      <g style="fill:#262626;" transform="translate(57.2 377.17877)scale(0.1 -0.1)">
       <use transform="translate(0 0.99375)" xlink:href="#ArialMT-31"/>
       <use transform="translate(55.615234 0.99375)" xlink:href="#ArialMT-30"/>
       <use transform="translate(112.972813 70.6875)scale(0.7)" xlink:href="#ArialMT-2212"/>
       <use transform="translate(153.851719 70.6875)scale(0.7)" xlink:href="#ArialMT-32"/>
      </g>
     </g>
    </g>
    <g id="ytick_12">
     <g id="line2d_47">
      <g>
       <use style="fill:#262626;stroke:#262626;" x="90" xlink:href="#m0b9ba00db1" y="325.150026"/>
      </g>
     </g>
     <g id="text_21">
      <!-- $\mathdefault{10^{-1}}$ -->
      <g style="fill:#262626;" transform="translate(57.2 330.306276)scale(0.1 -0.1)">
       <use transform="translate(0 0.99375)" xlink:href="#ArialMT-31"/>
       <use transform="translate(55.615234 0.99375)" xlink:href="#ArialMT-30"/>
       <use transform="translate(112.972813 70.6875)scale(0.7)" xlink:href="#ArialMT-2212"/>
       <use transform="translate(153.851719 70.6875)scale(0.7)" xlink:href="#ArialMT-31"/>
      </g>
     </g>
    </g>
    <g id="ytick_13">
     <g id="line2d_48">
      <defs>
       <path d="M 0 0 
L -3 0 
" id="md4e8d1999c" style="stroke:#262626;stroke-width:0.5;"/>
      </defs>
      <g>
       <use style="fill:#262626;stroke:#262626;stroke-width:0.5;" x="90" xlink:href="#md4e8d1999c" y="498.529974"/>
      </g>
     </g>
    </g>
    <g id="ytick_14">
     <g id="line2d_49">
      <g>
       <use style="fill:#262626;stroke:#262626;stroke-width:0.5;" x="90" xlink:href="#md4e8d1999c" y="490.276137"/>
      </g>
     </g>
    </g>
    <g id="ytick_15">
     <g id="line2d_50">
      <g>
       <use style="fill:#262626;stroke:#262626;stroke-width:0.5;" x="90" xlink:href="#md4e8d1999c" y="484.419947"/>
      </g>
     </g>
    </g>
    <g id="ytick_16">
     <g id="line2d_51">
      <g>
       <use style="fill:#262626;stroke:#262626;stroke-width:0.5;" x="90" xlink:href="#md4e8d1999c" y="479.877533"/>
      </g>
     </g>
    </g>
    <g id="ytick_17">
     <g id="line2d_52">
      <g>
       <use style="fill:#262626;stroke:#262626;stroke-width:0.5;" x="90" xlink:href="#md4e8d1999c" y="476.166111"/>
      </g>
     </g>
    </g>
    <g id="ytick_18">
     <g id="line2d_53">
      <g>
       <use style="fill:#262626;stroke:#262626;stroke-width:0.5;" x="90" xlink:href="#md4e8d1999c" y="473.028148"/>
      </g>
     </g>
    </g>
    <g id="ytick_19">
     <g id="line2d_54">
      <g>
       <use style="fill:#262626;stroke:#262626;stroke-width:0.5;" x="90" xlink:href="#md4e8d1999c" y="470.309921"/>
      </g>
     </g>
    </g>
    <g id="ytick_20">
     <g id="line2d_55">
      <g>
       <use style="fill:#262626;stroke:#262626;stroke-width:0.5;" x="90" xlink:href="#md4e8d1999c" y="467.912274"/>
      </g>
     </g>
    </g>
    <g id="ytick_21">
     <g id="line2d_56">
      <g>
       <use style="fill:#262626;stroke:#262626;stroke-width:0.5;" x="90" xlink:href="#md4e8d1999c" y="451.65748"/>
      </g>
     </g>
    </g>
    <g id="ytick_22">
     <g id="line2d_57">
      <g>
       <use style="fill:#262626;stroke:#262626;stroke-width:0.5;" x="90" xlink:href="#md4e8d1999c" y="443.403644"/>
      </g>
     </g>
    </g>
    <g id="ytick_23">
     <g id="line2d_58">
      <g>
       <use style="fill:#262626;stroke:#262626;stroke-width:0.5;" x="90" xlink:href="#md4e8d1999c" y="437.547454"/>
      </g>
     </g>
    </g>
    <g id="ytick_24">
     <g id="line2d_59">
      <g>
       <use style="fill:#262626;stroke:#262626;stroke-width:0.5;" x="90" xlink:href="#md4e8d1999c" y="433.00504"/>
      </g>
     </g>
    </g>
    <g id="ytick_25">
     <g id="line2d_60">
      <g>
       <use style="fill:#262626;stroke:#262626;stroke-width:0.5;" x="90" xlink:href="#md4e8d1999c" y="429.293617"/>
      </g>
     </g>
    </g>
    <g id="ytick_26">
     <g id="line2d_61">
      <g>
       <use style="fill:#262626;stroke:#262626;stroke-width:0.5;" x="90" xlink:href="#md4e8d1999c" y="426.155654"/>
      </g>
     </g>
    </g>
    <g id="ytick_27">
     <g id="line2d_62">
      <g>
       <use style="fill:#262626;stroke:#262626;stroke-width:0.5;" x="90" xlink:href="#md4e8d1999c" y="423.437427"/>
      </g>
     </g>
    </g>
    <g id="ytick_28">
     <g id="line2d_63">
      <g>
       <use style="fill:#262626;stroke:#262626;stroke-width:0.5;" x="90" xlink:href="#md4e8d1999c" y="421.039781"/>
      </g>
     </g>
    </g>
    <g id="ytick_29">
     <g id="line2d_64">
      <g>
       <use style="fill:#262626;stroke:#262626;stroke-width:0.5;" x="90" xlink:href="#md4e8d1999c" y="404.784987"/>
      </g>
     </g>
    </g>
    <g id="ytick_30">
     <g id="line2d_65">
      <g>
       <use style="fill:#262626;stroke:#262626;stroke-width:0.5;" x="90" xlink:href="#md4e8d1999c" y="396.53115"/>
      </g>
     </g>
    </g>
    <g id="ytick_31">
     <g id="line2d_66">
      <g>
       <use style="fill:#262626;stroke:#262626;stroke-width:0.5;" x="90" xlink:href="#md4e8d1999c" y="390.67496"/>
      </g>
     </g>
    </g>
    <g id="ytick_32">
     <g id="line2d_67">
      <g>
       <use style="fill:#262626;stroke:#262626;stroke-width:0.5;" x="90" xlink:href="#md4e8d1999c" y="386.132546"/>
      </g>
     </g>
    </g>
    <g id="ytick_33">
     <g id="line2d_68">
      <g>
       <use style="fill:#262626;stroke:#262626;stroke-width:0.5;" x="90" xlink:href="#md4e8d1999c" y="382.421124"/>
      </g>
     </g>
    </g>
    <g id="ytick_34">
     <g id="line2d_69">
      <g>
       <use style="fill:#262626;stroke:#262626;stroke-width:0.5;" x="90" xlink:href="#md4e8d1999c" y="379.283161"/>
      </g>
     </g>
    </g>
    <g id="ytick_35">
     <g id="line2d_70">
      <g>
       <use style="fill:#262626;stroke:#262626;stroke-width:0.5;" x="90" xlink:href="#md4e8d1999c" y="376.564934"/>
      </g>
     </g>
    </g>
    <g id="ytick_36">
     <g id="line2d_71">
      <g>
       <use style="fill:#262626;stroke:#262626;stroke-width:0.5;" x="90" xlink:href="#md4e8d1999c" y="374.167288"/>
      </g>
     </g>
    </g>
    <g id="ytick_37">
     <g id="line2d_72">
      <g>
       <use style="fill:#262626;stroke:#262626;stroke-width:0.5;" x="90" xlink:href="#md4e8d1999c" y="357.912493"/>
      </g>
     </g>
    </g>
    <g id="ytick_38">
     <g id="line2d_73">
      <g>
       <use style="fill:#262626;stroke:#262626;stroke-width:0.5;" x="90" xlink:href="#md4e8d1999c" y="349.658657"/>
      </g>
     </g>
    </g>
    <g id="ytick_39">
     <g id="line2d_74">
      <g>
       <use style="fill:#262626;stroke:#262626;stroke-width:0.5;" x="90" xlink:href="#md4e8d1999c" y="343.802467"/>
      </g>
     </g>
    </g>
    <g id="ytick_40">
     <g id="line2d_75">
      <g>
       <use style="fill:#262626;stroke:#262626;stroke-width:0.5;" x="90" xlink:href="#md4e8d1999c" y="339.260053"/>
      </g>
     </g>
    </g>
    <g id="ytick_41">
     <g id="line2d_76">
      <g>
       <use style="fill:#262626;stroke:#262626;stroke-width:0.5;" x="90" xlink:href="#md4e8d1999c" y="335.548631"/>
      </g>
     </g>
    </g>
    <g id="ytick_42">
     <g id="line2d_77">
      <g>
       <use style="fill:#262626;stroke:#262626;stroke-width:0.5;" x="90" xlink:href="#md4e8d1999c" y="332.410668"/>
      </g>
     </g>
    </g>
    <g id="ytick_43">
     <g id="line2d_78">
      <g>
       <use style="fill:#262626;stroke:#262626;stroke-width:0.5;" x="90" xlink:href="#md4e8d1999c" y="329.69244"/>
      </g>
     </g>
    </g>
    <g id="ytick_44">
     <g id="line2d_79">
      <g>
       <use style="fill:#262626;stroke:#262626;stroke-width:0.5;" x="90" xlink:href="#md4e8d1999c" y="327.294794"/>
      </g>
     </g>
    </g>
    <g id="ytick_45">
     <g id="line2d_80">
      <g>
       <use style="fill:#262626;stroke:#262626;stroke-width:0.5;" x="90" xlink:href="#md4e8d1999c" y="311.04"/>
      </g>
     </g>
    </g>
   </g>
   <g id="line2d_81">
    <path clip-path="url(#pe1673d7179)" d="M -1 368.981013 
L 151.095164 368.964261 
L 206.306812 392.295524 
L 238.603556 412.135017 
L 261.518461 419.713477 
L 279.292642 422.640301 
L 293.815205 374.473005 
L 306.093857 426.832205 
L 316.730109 421.244105 
L 326.111949 431.474434 
L 334.50429 422.746222 
L 342.096086 419.74831 
L 349.026853 370.197022 
L 355.402541 413.559774 
L 361.305505 419.541094 
L 366.801034 421.364804 
L 371.941758 426.474442 
L 376.770725 433.274329 
L 381.323597 396.143806 
L 385.630245 403.062298 
L 389.715939 404.766361 
L 393.602249 402.904447 
L 397.307735 397.641586 
L 400.848476 386.401457 
L 404.238502 354.009828 
L 407.490119 379.491702 
L 410.614189 398.252803 
L 413.620341 408.722466 
L 416.517154 415.848943 
L 419.312303 424.348692 
L 422.012683 407.061358 
L 424.624509 422.906996 
L 427.153406 426.01938 
L 429.604479 427.090899 
L 431.982374 428.494395 
L 434.291335 416.601276 
L 436.535246 394.064042 
L 438.717672 396.409695 
L 440.841893 418.283924 
L 442.910933 428.542854 
L 444.927587 434.739962 
L 446.894442 431.922351 
L 448.813898 409.428126 
L 450.688186 397.847895 
L 452.519383 417.543197 
L 454.309426 425.241086 
L 456.060125 429.859193 
L 457.773171 431.591646 
L 459.45015 427.999902 
L 461.09255 423.039921 
L 462.701768 442.027937 
L 464.279118 439.360491 
L 465.825838 437.465626 
L 467.343094 432.686255 
L 468.83199 426.498802 
L 470.293564 392.94751 
L 471.728802 428.845639 
L 474.523951 490.277717 
L 475.885584 480.94278 
L 477.224331 455.379052 
L 478.540949 434.03951 
L 479.836157 432.517797 
L 481.110642 454.843657 
L 482.365055 464.248986 
L 483.600019 486.895635 
L 484.816127 483.33278 
L 486.013948 472.069354 
L 487.194022 427.116616 
L 488.356869 472.024017 
L 489.502983 472.019734 
L 490.63284 463.481301 
L 491.746894 458.337066 
L 492.845581 448.296033 
L 493.92932 421.480384 
L 494.998512 426.435319 
L 496.053541 445.449823 
L 498.122582 461.077244 
L 499.137291 471.676829 
L 500.139235 467.443621 
L 501.128734 428.016021 
L 502.10609 469.347526 
L 503.0716 475.16844 
L 504.025546 485.092725 
L 504.968203 488.345444 
L 505.899834 474.684124 
L 506.820695 470.080247 
L 507.731032 463.849234 
L 508.631082 477.855519 
L 509.521075 476.507984 
L 510.401234 479.666716 
L 511.271773 489.18532 
L 512.132901 470.803275 
L 512.984819 448.512246 
L 513.827722 432.315922 
L 514.661799 456.387514 
L 515.487232 460.960525 
L 516.304198 468.186181 
L 517.112871 467.654514 
L 517.913416 469.099409 
L 518.705996 459.327067 
L 519.490766 490.76775 
L 520.26788 487.995296 
L 521.037486 476.175927 
L 521.799727 476.848018 
L 522.554743 492.737696 
L 523.302669 497.94072 
L 524.043638 477.003337 
L 524.777778 483.809813 
L 525.505212 468.739846 
L 526.226064 477.833092 
L 526.940451 480.75025 
L 527.648487 482.480115 
L 528.350285 495.256074 
L 529.045954 478.284912 
L 529.7356 474.070025 
L 530.419326 474.434739 
L 531.097232 486.479696 
L 531.769418 493.640157 
L 532.435979 484.06243 
L 533.097009 492.270853 
L 533.752597 484.920248 
L 534.402834 493.554184 
L 535.047806 492.709367 
L 535.687597 492.210091 
L 536.32229 499.483532 
L 536.951966 490.059034 
L 537.576703 499.642794 
L 538.196578 487.117473 
L 538.811667 488.492603 
L 539.422042 479.720986 
L 540.027776 507.130945 
L 540.628938 498.225965 
L 541.225596 493.416026 
L 541.817819 484.25953 
L 542.405671 494.051496 
L 542.989216 480.811345 
L 543.568517 495.058301 
L 544.143636 485.467145 
L 544.714632 496.787101 
L 545.844488 481.452672 
L 546.403463 488.788442 
L 546.958543 491.177894 
L 547.509781 478.878775 
L 548.05723 477.980067 
L 548.600942 488.915939 
L 549.140969 494.063598 
L 549.677358 484.756602 
L 550.21016 488.012135 
L 550.739422 495.242123 
L 551.26519 495.345589 
L 551.78751 492.187975 
L 552.306428 516.288517 
L 552.821987 498.273938 
L 553.33423 488.066267 
L 553.8432 509.059526 
L 554.348939 491.546223 
L 554.851487 514.865665 
L 555.350884 475.933635 
L 556.340382 512.324692 
L 556.830559 489.833218 
L 557.317739 493.031661 
L 557.801956 506.526282 
L 558.283248 493.835402 
L 558.76165 489.594133 
L 559.237195 490.374924 
L 559.709918 494.730463 
L 560.179852 501.818292 
L 560.647029 495.401865 
L 561.111483 506.072776 
L 561.573244 495.577992 
L 562.032344 495.461223 
L 562.488812 489.226201 
L 562.94268 505.741509 
L 563.393976 493.9626 
L 564.28897 504.187758 
L 564.732723 496.535275 
L 565.174019 510.510818 
L 565.612882 508.146563 
L 566.049341 533.438467 
L 566.483422 505.023513 
L 566.91515 489.498192 
L 567.34455 496.338831 
L 567.771648 517.040191 
L 568.196468 491.163898 
L 568.619034 507.624116 
L 569.039371 505.890281 
L 569.457501 492.789474 
L 569.873447 508.785464 
L 570.287233 497.407694 
L 570.69888 505.41649 
L 571.108411 488.604065 
L 571.515847 497.27537 
L 571.921209 521.145138 
L 572.32452 507.367744 
L 572.725798 519.149227 
L 573.125065 516.860649 
L 573.52234 500.525327 
L 573.917644 518.647361 
L 574.310996 495.904453 
L 574.702415 533.060114 
L 575.091919 495.955031 
L 575.479529 491.656248 
L 575.865261 491.759423 
L 576.249135 505.334384 
L 576.631167 505.951743 
L 577.011376 494.558398 
L 577.389778 496.436267 
L 577.766391 494.999427 
L 578.141232 485.426619 
L 578.514318 496.495778 
L 578.885664 493.001998 
L 579.255287 492.782769 
L 579.623202 503.846516 
L 579.989426 541.365216 
L 581.078102 488.752215 
L 581.437713 490.868793 
L 581.795707 499.166449 
L 582.152099 499.316593 
L 582.506904 500.055682 
L 582.860136 505.603056 
L 583.211808 492.157794 
L 583.561934 491.299159 
L 583.910528 491.27004 
L 584.603172 526.4532 
L 584.947248 495.012402 
L 585.289845 519.065358 
L 585.630974 508.669096 
L 585.970649 512.983882 
L 586.308881 499.597794 
L 586.645683 495.456128 
L 586.981067 486.133227 
L 587.315045 490.308795 
L 587.647628 496.191772 
L 587.978828 487.876885 
L 588.308657 504.277034 
L 588.637126 505.926066 
L 588.964246 502.44898 
L 589.290028 491.490751 
L 589.614483 504.243784 
L 590.259454 494.587592 
L 590.579992 499.515408 
L 590.899246 511.169823 
L 591.217224 530.432042 
L 591.533939 499.239899 
L 591.849399 500.854287 
L 592.163614 509.593798 
L 592.788352 488.333635 
L 593.098892 496.898933 
L 593.408227 521.022987 
L 594.329088 495.067228 
L 594.633691 496.100612 
L 594.937133 501.368207 
L 595.239424 520.553713 
L 595.540572 508.525811 
L 595.840586 508.162119 
L 596.139474 493.835155 
L 596.437245 498.77536 
L 596.733906 496.184644 
L 597.029467 526.843356 
L 597.323936 493.151543 
L 597.617319 516.044192 
L 598.200864 498.747791 
L 598.491042 511.149165 
L 598.780166 513.332925 
L 599.068244 507.477218 
L 599.355284 511.87995 
L 599.641294 503.174093 
L 599.92628 507.423398 
L 600.21025 503.177579 
L 600.493212 508.485189 
L 600.775172 493.749703 
L 601.056137 510.210948 
L 601.336115 508.015202 
L 601.615112 500.889191 
L 601.893135 501.664325 
L 602.170191 504.699132 
L 602.446287 520.049029 
L 602.995624 491.924057 
L 603.268878 505.672589 
L 603.541199 495.753435 
L 603.812591 506.271269 
L 604.083062 501.719982 
L 604.352617 532.163099 
L 604.621264 512.59176 
L 604.889007 508.968248 
L 605.155853 521.26488 
L 605.421809 489.47413 
L 605.686879 531.991796 
L 605.95107 522.457903 
L 606.214388 496.520652 
L 606.738427 508.092565 
L 606.999159 513.280406 
L 607.25904 497.205306 
L 607.518076 528.351815 
L 608.033635 493.089488 
L 608.290169 509.46823 
L 608.545879 494.649325 
L 608.80077 508.385315 
L 609.054849 489.88646 
L 609.308119 505.27463 
L 609.560587 495.402811 
L 609.812258 495.781564 
L 610.063135 510.089137 
L 610.562532 487.227473 
L 610.811062 509.616683 
L 611.058818 498.46939 
L 611.305806 500.849181 
L 611.55203 519.768971 
L 611.797496 504.583102 
L 612.042208 501.500514 
L 612.28617 503.441264 
L 612.529387 531.948815 
L 613.013605 512.273543 
L 613.494897 504.886266 
L 613.734457 501.866993 
L 613.973298 497.012428 
L 614.211426 487.105614 
L 614.448843 491.181588 
L 614.685555 507.085381 
L 614.921566 494.367977 
L 615.15688 495.852275 
L 615.3915 494.730571 
L 615.625431 481.29031 
L 615.858678 499.912297 
L 616.323131 489.9872 
L 616.554347 494.613347 
L 617.014773 514.915474 
L 617.243992 499.624594 
L 617.472553 568.011102 
L 617.700461 512.884842 
L 617.927718 519.409021 
L 618.143201 577 
M 618.163543 577 
L 618.380296 507.042541 
L 618.605625 520.434289 
L 618.830318 495.539572 
L 619.054379 502.776124 
L 619.277811 518.622294 
L 619.500618 506.90319 
L 619.722804 503.869147 
L 619.944372 495.766137 
L 620.165325 525.526055 
L 620.385667 487.370857 
L 620.605401 488.261956 
L 620.824531 501.679791 
L 621.043059 499.927689 
L 621.26099 504.91227 
L 621.478326 505.482659 
L 621.69507 508.858023 
L 621.911227 503.379473 
L 622.126798 504.62259 
L 622.341787 489.715758 
L 622.556198 499.491923 
L 622.983296 503.97998 
L 623.195989 492.825354 
L 623.408116 557.451092 
L 623.61968 521.449013 
L 623.830683 545.573537 
L 624.041128 497.41323 
L 624.460358 490.348861 
L 624.669149 500.487564 
L 625.085096 488.469921 
L 625.292257 496.466472 
L 625.498881 491.97731 
L 625.910528 507.276394 
L 626.115557 491.785253 
L 626.320059 503.784726 
L 626.524038 493.737223 
L 626.727495 513.077571 
L 626.930435 498.523615 
L 627.132858 524.203276 
L 627.334768 500.894985 
L 627.536168 514.239572 
L 627.73706 488.117083 
L 627.937446 484.084707 
L 628.13733 487.572663 
L 628.336713 503.744493 
L 628.535599 498.710162 
L 628.733989 509.194559 
L 628.931886 513.352333 
L 629.129293 497.108001 
L 629.326211 499.500987 
L 629.522644 497.335281 
L 629.718594 515.441953 
L 629.914063 522.557707 
L 630.109054 507.414942 
L 630.303568 522.617964 
L 630.691177 494.717184 
L 630.884277 519.113002 
L 631.07691 513.017764 
L 631.269078 514.318827 
L 631.460783 483.7039 
L 631.652028 529.730376 
L 631.842815 491.7064 
L 632.033146 508.154338 
L 632.223024 486.932635 
L 632.41245 500.775122 
L 632.601426 506.462423 
L 632.789956 506.311048 
L 632.97804 501.477207 
L 633.165681 485.973658 
L 633.352881 502.791085 
L 633.539642 500.449369 
L 633.725966 515.704064 
L 634.097312 483.377574 
L 634.282338 496.867893 
L 634.466935 496.431029 
L 634.83485 511.041434 
L 635.018173 527.175239 
L 635.201074 503.877331 
L 635.383557 506.090739 
L 635.747272 485.604097 
L 635.928509 498.212272 
L 636.109335 492.884673 
L 636.289751 516.800196 
L 636.828559 481.417445 
L 637.007355 497.637769 
L 637.185751 486.147707 
L 637.363748 502.736782 
L 637.541348 488.178378 
L 637.718553 506.539646 
L 637.895364 508.527189 
L 638.071784 484.743042 
L 638.247814 499.930511 
L 638.423456 504.488832 
L 638.598712 493.16551 
L 639.295903 510.863162 
L 639.469251 488.821967 
L 639.642223 520.920524 
L 639.81482 517.04633 
L 639.987044 504.386918 
L 640.158897 503.863288 
L 640.330379 501.30669 
L 640.501493 506.54696 
L 640.842622 490.456186 
L 641.012641 504.047234 
L 641.182297 497.095306 
L 641.351593 507.28096 
L 641.520529 502.065955 
L 641.689108 487.015534 
L 641.857331 504.688225 
L 642.0252 505.269134 
L 642.192715 511.699727 
L 642.359879 486.934354 
L 642.693158 508.306281 
L 642.859276 485.410437 
L 643.025049 490.13005 
L 643.190477 510.47829 
L 643.355562 498.869863 
L 643.520306 519.540431 
L 643.684709 497.460022 
L 644.012502 487.717291 
L 644.175894 488.278289 
L 644.501676 531.184269 
L 644.826131 495.423927 
L 644.987864 486.287849 
L 645.310349 528.104124 
L 645.471103 494.14976 
L 645.631533 511.728381 
L 645.791641 496.977779 
L 645.951427 499.129901 
L 646.428873 537.398122 
L 646.587387 493.693941 
L 646.745587 536.331593 
L 646.903473 510.757465 
L 647.061047 513.04241 
L 647.21831 502.781322 
L 647.375263 506.812156 
L 647.531907 527.87796 
L 647.688244 528.532906 
L 647.844274 503.303833 
L 647.844274 503.303833 
" style="fill:none;stroke:#b22222;stroke-linecap:round;stroke-width:1.75;"/>
   </g>
   <g id="patch_6">
    <path d="M 90 512.64 
L 90 311.04 
" style="fill:none;stroke:#262626;stroke-linecap:square;stroke-linejoin:miter;stroke-width:1.25;"/>
   </g>
   <g id="patch_7">
    <path d="M 90 512.64 
L 648 512.64 
" style="fill:none;stroke:#262626;stroke-linecap:square;stroke-linejoin:miter;stroke-width:1.25;"/>
   </g>
  </g>
 </g>
 <defs>
  <clipPath id="p6fdfdc77b4">
   <rect height="201.6" width="558" x="90" y="69.12"/>
  </clipPath>
  <clipPath id="pe1673d7179">
   <rect height="201.6" width="558" x="90" y="311.04"/>
  </clipPath>
 </defs>
</svg>
