<?xml version="1.0" encoding="utf-8" standalone="no"?>
<!DOCTYPE svg PUBLIC "-//W3C//DTD SVG 1.1//EN"
  "http://www.w3.org/Graphics/SVG/1.1/DTD/svg11.dtd">
<!-- Created with matplotlib (http://matplotlib.org/) -->
<svg height="576pt" version="1.1" viewBox="0 0 720 576" width="720pt" xmlns="http://www.w3.org/2000/svg" xmlns:xlink="http://www.w3.org/1999/xlink">
 <defs>
  <style type="text/css">
*{stroke-linecap:butt;stroke-linejoin:round;}
  </style>
 </defs>
 <g id="figure_1">
  <g id="patch_1">
   <path d="M 0 576 
L 720 576 
L 720 0 
L 0 0 
z
" style="fill:#ffffff;"/>
  </g>
  <g id="axes_1">
   <g id="patch_2">
    <path d="M 90 270.72 
L 648 270.72 
L 648 69.12 
L 90 69.12 
z
" style="fill:#ffffff;"/>
   </g>
   <g id="matplotlib.axis_1">
    <g id="xtick_1">
     <g id="line2d_1">
      <defs>
       <path d="M 0 0 
L 0 6 
" id="m515c588431" style="stroke:#262626;"/>
      </defs>
      <g>
       <use style="fill:#262626;stroke:#262626;" x="90" xlink:href="#m515c588431" y="270.72"/>
      </g>
     </g>
     <g id="text_1">
      <!-- 0 -->
      <defs>
       <path d="M 4.15625 35.296875 
Q 4.15625 48 6.765625 55.734375 
Q 9.375 63.484375 14.515625 67.671875 
Q 19.671875 71.875 27.484375 71.875 
Q 33.25 71.875 37.59375 69.546875 
Q 41.9375 67.234375 44.765625 62.859375 
Q 47.609375 58.5 49.21875 52.21875 
Q 50.828125 45.953125 50.828125 35.296875 
Q 50.828125 22.703125 48.234375 14.96875 
Q 45.65625 7.234375 40.5 3 
Q 35.359375 -1.21875 27.484375 -1.21875 
Q 17.140625 -1.21875 11.234375 6.203125 
Q 4.15625 15.140625 4.15625 35.296875 
z
M 13.1875 35.296875 
Q 13.1875 17.671875 17.3125 11.828125 
Q 21.4375 6 27.484375 6 
Q 33.546875 6 37.671875 11.859375 
Q 41.796875 17.71875 41.796875 35.296875 
Q 41.796875 52.984375 37.671875 58.78125 
Q 33.546875 64.59375 27.390625 64.59375 
Q 21.34375 64.59375 17.71875 59.46875 
Q 13.1875 52.9375 13.1875 35.296875 
z
" id="ArialMT-30"/>
      </defs>
      <g style="fill:#262626;" transform="translate(87.219531 290.877812)scale(0.1 -0.1)">
       <use xlink:href="#ArialMT-30"/>
      </g>
     </g>
    </g>
    <g id="xtick_2">
     <g id="line2d_2">
      <g>
       <use style="fill:#262626;stroke:#262626;" x="198.984375" xlink:href="#m515c588431" y="270.72"/>
      </g>
     </g>
     <g id="text_2">
      <!-- 200 -->
      <defs>
       <path d="M 50.34375 8.453125 
L 50.34375 0 
L 3.03125 0 
Q 2.9375 3.171875 4.046875 6.109375 
Q 5.859375 10.9375 9.828125 15.625 
Q 13.8125 20.3125 21.34375 26.46875 
Q 33.015625 36.03125 37.109375 41.625 
Q 41.21875 47.21875 41.21875 52.203125 
Q 41.21875 57.421875 37.46875 61 
Q 33.734375 64.59375 27.734375 64.59375 
Q 21.390625 64.59375 17.578125 60.78125 
Q 13.765625 56.984375 13.71875 50.25 
L 4.6875 51.171875 
Q 5.609375 61.28125 11.65625 66.578125 
Q 17.71875 71.875 27.9375 71.875 
Q 38.234375 71.875 44.234375 66.15625 
Q 50.25 60.453125 50.25 52 
Q 50.25 47.703125 48.484375 43.546875 
Q 46.734375 39.40625 42.65625 34.8125 
Q 38.578125 30.21875 29.109375 22.21875 
Q 21.1875 15.578125 18.9375 13.203125 
Q 16.703125 10.84375 15.234375 8.453125 
z
" id="ArialMT-32"/>
      </defs>
      <g style="fill:#262626;" transform="translate(190.642969 290.877812)scale(0.1 -0.1)">
       <use xlink:href="#ArialMT-32"/>
       <use x="55.615234" xlink:href="#ArialMT-30"/>
       <use x="111.230469" xlink:href="#ArialMT-30"/>
      </g>
     </g>
    </g>
    <g id="xtick_3">
     <g id="line2d_3">
      <g>
       <use style="fill:#262626;stroke:#262626;" x="307.96875" xlink:href="#m515c588431" y="270.72"/>
      </g>
     </g>
     <g id="text_3">
      <!-- 400 -->
      <defs>
       <path d="M 32.328125 0 
L 32.328125 17.140625 
L 1.265625 17.140625 
L 1.265625 25.203125 
L 33.9375 71.578125 
L 41.109375 71.578125 
L 41.109375 25.203125 
L 50.78125 25.203125 
L 50.78125 17.140625 
L 41.109375 17.140625 
L 41.109375 0 
z
M 32.328125 25.203125 
L 32.328125 57.46875 
L 9.90625 25.203125 
z
" id="ArialMT-34"/>
      </defs>
      <g style="fill:#262626;" transform="translate(299.627344 290.877812)scale(0.1 -0.1)">
       <use xlink:href="#ArialMT-34"/>
       <use x="55.615234" xlink:href="#ArialMT-30"/>
       <use x="111.230469" xlink:href="#ArialMT-30"/>
      </g>
     </g>
    </g>
    <g id="xtick_4">
     <g id="line2d_4">
      <g>
       <use style="fill:#262626;stroke:#262626;" x="416.953125" xlink:href="#m515c588431" y="270.72"/>
      </g>
     </g>
     <g id="text_4">
      <!-- 600 -->
      <defs>
       <path d="M 49.75 54.046875 
L 41.015625 53.375 
Q 39.84375 58.546875 37.703125 60.890625 
Q 34.125 64.65625 28.90625 64.65625 
Q 24.703125 64.65625 21.53125 62.3125 
Q 17.390625 59.28125 14.984375 53.46875 
Q 12.59375 47.65625 12.5 36.921875 
Q 15.671875 41.75 20.265625 44.09375 
Q 24.859375 46.4375 29.890625 46.4375 
Q 38.671875 46.4375 44.84375 39.96875 
Q 51.03125 33.5 51.03125 23.25 
Q 51.03125 16.5 48.125 10.71875 
Q 45.21875 4.9375 40.140625 1.859375 
Q 35.0625 -1.21875 28.609375 -1.21875 
Q 17.625 -1.21875 10.6875 6.859375 
Q 3.765625 14.9375 3.765625 33.5 
Q 3.765625 54.25 11.421875 63.671875 
Q 18.109375 71.875 29.4375 71.875 
Q 37.890625 71.875 43.28125 67.140625 
Q 48.6875 62.40625 49.75 54.046875 
z
M 13.875 23.1875 
Q 13.875 18.65625 15.796875 14.5 
Q 17.71875 10.359375 21.1875 8.171875 
Q 24.65625 6 28.46875 6 
Q 34.03125 6 38.03125 10.484375 
Q 42.046875 14.984375 42.046875 22.703125 
Q 42.046875 30.125 38.078125 34.390625 
Q 34.125 38.671875 28.125 38.671875 
Q 22.171875 38.671875 18.015625 34.390625 
Q 13.875 30.125 13.875 23.1875 
z
" id="ArialMT-36"/>
      </defs>
      <g style="fill:#262626;" transform="translate(408.611719 290.877812)scale(0.1 -0.1)">
       <use xlink:href="#ArialMT-36"/>
       <use x="55.615234" xlink:href="#ArialMT-30"/>
       <use x="111.230469" xlink:href="#ArialMT-30"/>
      </g>
     </g>
    </g>
    <g id="xtick_5">
     <g id="line2d_5">
      <g>
       <use style="fill:#262626;stroke:#262626;" x="525.9375" xlink:href="#m515c588431" y="270.72"/>
      </g>
     </g>
     <g id="text_5">
      <!-- 800 -->
      <defs>
       <path d="M 17.671875 38.8125 
Q 12.203125 40.828125 9.5625 44.53125 
Q 6.9375 48.25 6.9375 53.421875 
Q 6.9375 61.234375 12.546875 66.546875 
Q 18.171875 71.875 27.484375 71.875 
Q 36.859375 71.875 42.578125 66.421875 
Q 48.296875 60.984375 48.296875 53.171875 
Q 48.296875 48.1875 45.671875 44.5 
Q 43.0625 40.828125 37.75 38.8125 
Q 44.34375 36.671875 47.78125 31.875 
Q 51.21875 27.09375 51.21875 20.453125 
Q 51.21875 11.28125 44.71875 5.03125 
Q 38.234375 -1.21875 27.640625 -1.21875 
Q 17.046875 -1.21875 10.546875 5.046875 
Q 4.046875 11.328125 4.046875 20.703125 
Q 4.046875 27.6875 7.59375 32.390625 
Q 11.140625 37.109375 17.671875 38.8125 
z
M 15.921875 53.71875 
Q 15.921875 48.640625 19.1875 45.40625 
Q 22.46875 42.1875 27.6875 42.1875 
Q 32.765625 42.1875 36.015625 45.375 
Q 39.265625 48.578125 39.265625 53.21875 
Q 39.265625 58.0625 35.90625 61.359375 
Q 32.5625 64.65625 27.59375 64.65625 
Q 22.5625 64.65625 19.234375 61.421875 
Q 15.921875 58.203125 15.921875 53.71875 
z
M 13.09375 20.65625 
Q 13.09375 16.890625 14.875 13.375 
Q 16.65625 9.859375 20.171875 7.921875 
Q 23.6875 6 27.734375 6 
Q 34.03125 6 38.125 10.046875 
Q 42.234375 14.109375 42.234375 20.359375 
Q 42.234375 26.703125 38.015625 30.859375 
Q 33.796875 35.015625 27.4375 35.015625 
Q 21.234375 35.015625 17.15625 30.90625 
Q 13.09375 26.8125 13.09375 20.65625 
z
" id="ArialMT-38"/>
      </defs>
      <g style="fill:#262626;" transform="translate(517.596094 290.877812)scale(0.1 -0.1)">
       <use xlink:href="#ArialMT-38"/>
       <use x="55.615234" xlink:href="#ArialMT-30"/>
       <use x="111.230469" xlink:href="#ArialMT-30"/>
      </g>
     </g>
    </g>
    <g id="xtick_6">
     <g id="line2d_6">
      <g>
       <use style="fill:#262626;stroke:#262626;" x="634.921875" xlink:href="#m515c588431" y="270.72"/>
      </g>
     </g>
     <g id="text_6">
      <!-- 1000 -->
      <defs>
       <path d="M 37.25 0 
L 28.46875 0 
L 28.46875 56 
Q 25.296875 52.984375 20.140625 49.953125 
Q 14.984375 46.921875 10.890625 45.40625 
L 10.890625 53.90625 
Q 18.265625 57.375 23.78125 62.296875 
Q 29.296875 67.234375 31.59375 71.875 
L 37.25 71.875 
z
" id="ArialMT-31"/>
      </defs>
      <g style="fill:#262626;" transform="translate(623.8 290.877812)scale(0.1 -0.1)">
       <use xlink:href="#ArialMT-31"/>
       <use x="55.615234" xlink:href="#ArialMT-30"/>
       <use x="111.230469" xlink:href="#ArialMT-30"/>
       <use x="166.845703" xlink:href="#ArialMT-30"/>
      </g>
     </g>
    </g>
   </g>
   <g id="matplotlib.axis_2">
    <g id="ytick_1">
     <g id="line2d_7">
      <defs>
       <path d="M 0 0 
L -6 0 
" id="m714a2f9fed" style="stroke:#262626;"/>
      </defs>
      <g>
       <use style="fill:#262626;stroke:#262626;" x="90" xlink:href="#m714a2f9fed" y="270.72"/>
      </g>
     </g>
     <g id="text_7">
      <!-- −0.6 -->
      <defs>
       <path d="M 52.828125 31.203125 
L 5.5625 31.203125 
L 5.5625 39.40625 
L 52.828125 39.40625 
z
" id="ArialMT-2212"/>
       <path d="M 9.078125 0 
L 9.078125 10.015625 
L 19.09375 10.015625 
L 19.09375 0 
z
" id="ArialMT-2e"/>
      </defs>
      <g style="fill:#262626;" transform="translate(57.259375 274.298906)scale(0.1 -0.1)">
       <use xlink:href="#ArialMT-2212"/>
       <use x="58.398438" xlink:href="#ArialMT-30"/>
       <use x="114.013672" xlink:href="#ArialMT-2e"/>
       <use x="141.796875" xlink:href="#ArialMT-36"/>
      </g>
     </g>
    </g>
    <g id="ytick_2">
     <g id="line2d_8">
      <g>
       <use style="fill:#262626;stroke:#262626;" x="90" xlink:href="#m714a2f9fed" y="237.12"/>
      </g>
     </g>
     <g id="text_8">
      <!-- −0.4 -->
      <g style="fill:#262626;" transform="translate(57.259375 240.698906)scale(0.1 -0.1)">
       <use xlink:href="#ArialMT-2212"/>
       <use x="58.398438" xlink:href="#ArialMT-30"/>
       <use x="114.013672" xlink:href="#ArialMT-2e"/>
       <use x="141.796875" xlink:href="#ArialMT-34"/>
      </g>
     </g>
    </g>
    <g id="ytick_3">
     <g id="line2d_9">
      <g>
       <use style="fill:#262626;stroke:#262626;" x="90" xlink:href="#m714a2f9fed" y="203.52"/>
      </g>
     </g>
     <g id="text_9">
      <!-- −0.2 -->
      <g style="fill:#262626;" transform="translate(57.259375 207.098906)scale(0.1 -0.1)">
       <use xlink:href="#ArialMT-2212"/>
       <use x="58.398438" xlink:href="#ArialMT-30"/>
       <use x="114.013672" xlink:href="#ArialMT-2e"/>
       <use x="141.796875" xlink:href="#ArialMT-32"/>
      </g>
     </g>
    </g>
    <g id="ytick_4">
     <g id="line2d_10">
      <g>
       <use style="fill:#262626;stroke:#262626;" x="90" xlink:href="#m714a2f9fed" y="169.92"/>
      </g>
     </g>
     <g id="text_10">
      <!-- 0.0 -->
      <g style="fill:#262626;" transform="translate(63.1 173.498906)scale(0.1 -0.1)">
       <use xlink:href="#ArialMT-30"/>
       <use x="55.615234" xlink:href="#ArialMT-2e"/>
       <use x="83.398438" xlink:href="#ArialMT-30"/>
      </g>
     </g>
    </g>
    <g id="ytick_5">
     <g id="line2d_11">
      <g>
       <use style="fill:#262626;stroke:#262626;" x="90" xlink:href="#m714a2f9fed" y="136.32"/>
      </g>
     </g>
     <g id="text_11">
      <!-- 0.2 -->
      <g style="fill:#262626;" transform="translate(63.1 139.898906)scale(0.1 -0.1)">
       <use xlink:href="#ArialMT-30"/>
       <use x="55.615234" xlink:href="#ArialMT-2e"/>
       <use x="83.398438" xlink:href="#ArialMT-32"/>
      </g>
     </g>
    </g>
    <g id="ytick_6">
     <g id="line2d_12">
      <g>
       <use style="fill:#262626;stroke:#262626;" x="90" xlink:href="#m714a2f9fed" y="102.72"/>
      </g>
     </g>
     <g id="text_12">
      <!-- 0.4 -->
      <g style="fill:#262626;" transform="translate(63.1 106.298906)scale(0.1 -0.1)">
       <use xlink:href="#ArialMT-30"/>
       <use x="55.615234" xlink:href="#ArialMT-2e"/>
       <use x="83.398438" xlink:href="#ArialMT-34"/>
      </g>
     </g>
    </g>
    <g id="ytick_7">
     <g id="line2d_13">
      <g>
       <use style="fill:#262626;stroke:#262626;" x="90" xlink:href="#m714a2f9fed" y="69.12"/>
      </g>
     </g>
     <g id="text_13">
      <!-- 0.6 -->
      <g style="fill:#262626;" transform="translate(63.1 72.698906)scale(0.1 -0.1)">
       <use xlink:href="#ArialMT-30"/>
       <use x="55.615234" xlink:href="#ArialMT-2e"/>
       <use x="83.398438" xlink:href="#ArialMT-36"/>
      </g>
     </g>
    </g>
   </g>
   <g id="line2d_14">
    <path clip-path="url(#p002b6c35d3)" d="M 90 175.805742 
L 93.269531 167.197588 
L 94.359375 165.080156 
L 94.904297 164.398271 
L 95.449219 163.454912 
L 95.994141 163.413896 
L 96.539062 163.039629 
L 97.083984 162.988359 
L 97.628906 162.716631 
L 98.71875 162.470537 
L 99.808594 162.362871 
L 100.353516 162.685869 
L 100.898438 162.706377 
L 101.443359 163.05501 
L 101.988281 163.665117 
L 103.078125 165.664629 
L 104.712891 169.837969 
L 105.802734 172.791094 
L 107.4375 175.23665 
L 108.527344 176.544023 
L 109.072266 177.056719 
L 109.617188 177.830889 
L 110.162109 178.374346 
L 110.707031 179.220293 
L 111.251953 179.661211 
L 111.796875 180.553301 
L 112.886719 181.7325 
L 113.976562 181.865801 
L 114.521484 181.235186 
L 115.611328 179.266436 
L 116.701172 176.436357 
L 117.791016 173.273027 
L 119.425781 167.407793 
L 120.515625 163.870195 
L 121.605469 160.942705 
L 122.150391 159.855791 
L 122.695312 159.517412 
L 123.240234 158.917559 
L 123.785156 158.973955 
L 124.875 160.286455 
L 125.964844 162.957598 
L 127.054688 165.803057 
L 128.144531 168.833086 
L 129.234375 170.971025 
L 129.779297 171.329912 
L 130.324219 171.873369 
L 131.414062 172.027178 
L 131.958984 172.632158 
L 132.503906 172.785967 
L 133.048828 173.08333 
L 134.138672 173.226885 
L 135.773438 172.791094 
L 136.863281 171.555498 
L 138.498047 168.827959 
L 139.042969 167.628252 
L 141.222656 164.029131 
L 141.767578 163.552324 
L 142.857422 161.383623 
L 146.671875 153.826494 
L 147.216797 153.27791 
L 147.761719 152.92415 
L 148.851562 153.467607 
L 149.941406 155.24666 
L 152.121094 162.34749 
L 154.845703 173.283281 
L 156.480469 178.071855 
L 157.570312 179.609941 
L 158.660156 179.235674 
L 159.205078 178.471758 
L 160.294922 176.174883 
L 161.929688 171.606768 
L 163.564453 168.848467 
L 165.199219 167.602617 
L 165.744141 167.751299 
L 166.289062 167.464189 
L 167.378906 167.628252 
L 167.923828 167.705156 
L 170.103516 168.797197 
L 170.648438 169.704668 
L 171.738281 171.012041 
L 173.917969 175.395586 
L 174.462891 176.774736 
L 176.097656 179.604814 
L 177.1875 180.850664 
L 178.277344 181.409502 
L 178.822266 180.983965 
L 179.367188 180.717363 
L 179.912109 180.11751 
L 181.001953 178.235918 
L 183.181641 172.760332 
L 183.726562 171.078691 
L 184.816406 168.920244 
L 185.361328 167.869219 
L 187.541016 165.280107 
L 188.085938 164.85457 
L 189.175781 163.316484 
L 189.720703 162.721758 
L 190.265625 162.296221 
L 191.355469 161.906572 
L 191.900391 162.003984 
L 192.990234 162.993486 
L 194.080078 164.798174 
L 194.625 166.515703 
L 195.169922 167.64876 
L 197.894531 171.775957 
L 198.984375 173.242266 
L 200.619141 175.974932 
L 201.164062 177.164385 
L 201.708984 178.010332 
L 202.253906 179.286943 
L 202.798828 179.968828 
L 203.34375 181.004473 
L 203.888672 181.301836 
L 204.433594 181.96834 
L 205.523438 182.065752 
L 206.068359 181.819658 
L 207.158203 180.296953 
L 208.248047 178.194902 
L 208.792969 176.733721 
L 209.882812 173.14998 
L 212.0625 165.167314 
L 212.607422 163.12166 
L 213.152344 161.578447 
L 213.697266 160.481279 
L 214.242188 159.640459 
L 214.787109 159.240557 
L 215.876953 159.809648 
L 216.966797 161.619463 
L 218.056641 164.01375 
L 219.146484 166.16707 
L 220.236328 168.233232 
L 221.326172 169.812334 
L 221.871094 170.448076 
L 222.416016 170.868486 
L 223.505859 172.268145 
L 225.685547 173.995928 
L 226.230469 173.903643 
L 227.865234 173.067949 
L 229.5 170.935137 
L 232.769531 166.525957 
L 233.859375 164.429033 
L 237.128906 156.246416 
L 238.763672 153.488115 
L 239.308594 153.09334 
L 239.853516 153.047197 
L 240.398438 152.836992 
L 242.033203 155.241533 
L 242.578125 156.502764 
L 244.212891 162.762773 
L 245.302734 167.848711 
L 246.392578 172.842363 
L 247.482422 176.841387 
L 248.027344 178.328203 
L 248.572266 179.261309 
L 249.117188 179.779131 
L 249.662109 179.907305 
L 250.207031 179.727861 
L 251.296875 178.189775 
L 251.841797 177.287432 
L 252.386719 175.836504 
L 254.566406 171.77083 
L 255.65625 170.540361 
L 256.201172 169.832842 
L 258.380859 168.099932 
L 258.925781 167.776934 
L 260.015625 167.653887 
L 261.105469 167.925615 
L 261.650391 168.258867 
L 262.195312 168.802324 
L 264.919922 173.119219 
L 266.009766 175.631426 
L 266.554688 176.395342 
L 267.099609 177.871904 
L 267.644531 178.676836 
L 268.189453 179.850908 
L 269.279297 181.306963 
L 269.824219 181.773516 
L 270.914062 181.383867 
L 271.458984 180.763506 
L 272.548828 178.851152 
L 275.273438 172.734697 
L 276.908203 170.160967 
L 277.453125 169.022783 
L 277.998047 168.315264 
L 279.087891 166.131182 
L 279.632812 165.305742 
L 280.177734 164.213701 
L 280.722656 163.378008 
L 281.8125 162.301348 
L 282.357422 162.132158 
L 282.902344 162.209062 
L 283.447266 162.906328 
L 283.992188 163.285723 
L 284.537109 164.100908 
L 285.082031 164.644365 
L 287.806641 168.412676 
L 289.986328 171.063311 
L 290.53125 172.139971 
L 291.076172 172.888506 
L 294.345703 179.46126 
L 295.435547 180.932695 
L 295.980469 181.240312 
L 297.070312 182.250322 
L 298.160156 182.470781 
L 298.705078 181.835039 
L 299.794922 179.799639 
L 300.884766 176.292803 
L 303.609375 165.603105 
L 304.154297 163.870195 
L 304.699219 162.532061 
L 305.244141 161.491289 
L 305.789062 161.009355 
L 306.333984 160.717119 
L 306.878906 160.747881 
L 308.513672 162.091143 
L 309.058594 162.619219 
L 309.603516 163.3575 
L 310.148438 164.36751 
L 311.238281 165.721025 
L 312.873047 168.028154 
L 314.507812 170.801836 
L 315.052734 171.617021 
L 316.142578 172.698809 
L 317.232422 172.980791 
L 317.777344 172.760332 
L 318.322266 172.796221 
L 318.867188 172.252764 
L 319.412109 172.001543 
L 319.957031 171.934893 
L 321.046875 171.094072 
L 321.591797 170.853105 
L 322.136719 170.145586 
L 322.681641 170.053301 
L 324.861328 166.679766 
L 325.951172 163.644609 
L 330.310547 153.016436 
L 331.400391 151.375811 
L 331.945312 151.247637 
L 332.490234 151.293779 
L 333.580078 152.67293 
L 334.669922 155.795244 
L 336.304688 162.849932 
L 337.939453 170.437822 
L 339.029297 174.283037 
L 340.119141 176.856768 
L 340.664062 177.338701 
L 341.208984 177.528398 
L 341.753906 177.415605 
L 342.298828 176.974687 
L 343.933594 174.852129 
L 347.203125 170.043047 
L 347.748047 169.258623 
L 348.292969 168.751055 
L 348.837891 168.012773 
L 349.927734 167.238604 
L 350.472656 167.043779 
L 351.5625 167.171953 
L 352.652344 167.525713 
L 353.197266 167.689775 
L 353.742188 168.012773 
L 354.287109 168.679277 
L 354.832031 169.150957 
L 355.921875 170.847979 
L 357.011719 173.032061 
L 358.646484 177.430986 
L 359.736328 179.861162 
L 360.28125 180.650713 
L 361.371094 181.594072 
L 361.916016 181.168535 
L 362.460938 180.927568 
L 364.095703 179.143389 
L 365.185547 177.287432 
L 365.730469 176.815752 
L 367.910156 172.950029 
L 368.455078 171.816973 
L 369 170.355791 
L 370.089844 168.064043 
L 370.634766 166.772051 
L 372.269531 163.931719 
L 373.359375 163.460039 
L 373.904297 163.444658 
L 374.449219 163.680498 
L 375.539062 164.654619 
L 376.083984 164.839189 
L 377.173828 165.951738 
L 378.808594 167.669268 
L 379.898438 169.274004 
L 383.712891 175.252031 
L 385.892578 179.46126 
L 387.527344 183.16292 
L 388.072266 184.075518 
L 388.617188 184.767656 
L 389.162109 185.244463 
L 389.707031 185.382891 
L 390.796875 184.244707 
L 391.886719 181.460771 
L 393.521484 175.549395 
L 394.611328 171.324785 
L 395.15625 169.468828 
L 396.246094 166.633623 
L 396.791016 165.644121 
L 397.335938 165.02376 
L 398.425781 164.264971 
L 400.060547 164.141924 
L 400.605469 164.331621 
L 401.150391 164.731523 
L 402.785156 166.633623 
L 404.419922 169.648271 
L 404.964844 170.87874 
L 406.054688 172.550127 
L 406.599609 173.006426 
L 407.144531 173.657549 
L 407.689453 173.749834 
L 409.869141 174.841875 
L 410.958984 175.087969 
L 412.048828 175.159746 
L 412.59375 174.877764 
L 413.138672 174.811113 
L 414.228516 173.995928 
L 414.773438 173.344805 
L 415.863281 171.432451 
L 416.953125 169.438066 
L 419.132812 163.742021 
L 421.857422 156.149004 
L 422.947266 153.929033 
L 423.492188 153.077959 
L 424.037109 153.083086 
L 424.582031 153.272783 
L 425.126953 154.021318 
L 425.671875 155.272295 
L 426.761719 159.261064 
L 428.396484 166.525957 
L 429.486328 171.253008 
L 430.576172 174.923906 
L 431.666016 177.364336 
L 432.755859 178.671709 
L 433.300781 178.610186 
L 433.845703 178.897295 
L 434.390625 178.661455 
L 435.480469 177.718096 
L 436.025391 176.856768 
L 436.570312 176.282549 
L 438.205078 173.795977 
L 438.75 173.078203 
L 439.294922 172.170732 
L 439.839844 171.714434 
L 440.384766 171.068437 
L 440.929688 170.909502 
L 441.474609 170.145586 
L 442.019531 170.15584 
L 443.109375 169.14583 
L 443.654297 169.084307 
L 444.199219 168.786943 
L 445.289062 168.751055 
L 445.833984 169.084307 
L 446.378906 169.56624 
L 447.46875 171.463213 
L 450.738281 179.635576 
L 451.828125 181.542803 
L 452.917969 182.429766 
L 454.007812 182.845049 
L 454.552734 182.516924 
L 455.642578 182.055498 
L 456.1875 181.737627 
L 457.277344 180.696855 
L 458.367188 178.707598 
L 460.001953 174.826494 
L 461.636719 170.565996 
L 462.181641 169.525225 
L 463.816406 167.315508 
L 464.90625 166.515703 
L 465.996094 166.074785 
L 466.541016 165.833818 
L 467.085938 166.156816 
L 467.630859 166.346514 
L 468.175781 166.669512 
L 468.720703 167.448809 
L 469.810547 168.520342 
L 470.355469 169.279131 
L 470.900391 169.755937 
L 472.535156 171.734941 
L 473.080078 172.12459 
L 475.259766 175.626299 
L 476.894531 179.051104 
L 477.439453 180.819902 
L 477.984375 181.952959 
L 478.529297 183.870439 
L 479.619141 186.695391 
L 480.164062 187.607988 
L 480.708984 188.233477 
L 481.253906 188.156572 
L 481.798828 187.936113 
L 482.888672 185.987871 
L 484.523438 180.671221 
L 485.613281 176.943926 
L 486.158203 175.272539 
L 488.882812 168.951006 
L 489.427734 167.925615 
L 489.972656 167.182207 
L 491.0625 166.40291 
L 491.607422 166.408037 
L 492.152344 166.628496 
L 492.697266 167.064287 
L 493.787109 168.653643 
L 495.966797 172.421953 
L 497.601562 174.411211 
L 498.146484 175.282793 
L 499.78125 176.943926 
L 500.326172 177.215654 
L 500.871094 177.682207 
L 501.416016 177.974443 
L 501.960938 178.446123 
L 502.505859 178.656328 
L 503.050781 179.138262 
L 503.595703 179.066484 
L 504.140625 179.184404 
L 504.685547 178.958818 
L 505.230469 179.092119 
L 505.775391 178.466631 
L 506.320312 178.261553 
L 507.410156 176.713213 
L 507.955078 175.969805 
L 509.589844 172.878252 
L 511.224609 168.289629 
L 512.859375 162.16292 
L 513.949219 158.784258 
L 514.494141 157.615312 
L 515.039062 157.051348 
L 515.583984 156.86165 
L 516.128906 157.292314 
L 516.673828 158.143389 
L 517.21875 159.373857 
L 518.853516 164.895586 
L 519.943359 169.668779 
L 522.123047 177.836016 
L 523.212891 180.989092 
L 524.302734 182.988604 
L 525.392578 183.747393 
L 525.9375 183.434648 
L 526.482422 183.552568 
L 527.027344 182.747637 
L 527.572266 182.158037 
L 528.117188 181.404375 
L 529.751953 179.902178 
L 530.841797 178.92293 
L 531.386719 178.133379 
L 532.476562 177.169512 
L 533.566406 175.8929 
L 534.111328 175.375078 
L 534.65625 174.616289 
L 535.201172 174.062578 
L 535.746094 173.913896 
L 536.291016 173.544756 
L 536.835938 173.698564 
L 537.925781 175.134111 
L 541.740234 183.639727 
L 542.285156 184.742021 
L 542.830078 185.311113 
L 543.919922 186.823564 
L 545.554688 188.515459 
L 546.099609 188.864092 
L 546.644531 188.853838 
L 547.189453 188.966631 
L 548.279297 188.069414 
L 548.824219 187.16707 
L 553.183594 177.928301 
L 554.273438 175.733965 
L 555.363281 173.831865 
L 556.453125 172.903887 
L 557.542969 172.468096 
L 558.087891 172.668047 
L 559.177734 172.775713 
L 560.267578 173.534502 
L 562.447266 175.226396 
L 562.992188 175.862139 
L 563.537109 176.087725 
L 564.626953 176.923418 
L 565.171875 177.19002 
L 565.716797 177.779619 
L 566.261719 178.205156 
L 567.351562 180.389238 
L 568.986328 185.798174 
L 570.621094 191.145586 
L 571.710938 192.806719 
L 572.255859 193.293779 
L 572.800781 193.355303 
L 573.890625 192.314531 
L 574.980469 190.509844 
L 576.615234 186.315996 
L 579.884766 175.964678 
L 580.974609 173.365312 
L 582.609375 171.360674 
L 583.154297 171.29915 
L 583.699219 171.555498 
L 584.789062 172.514238 
L 585.878906 174.011309 
L 586.423828 174.600908 
L 587.513672 176.251787 
L 588.603516 177.395098 
L 589.693359 178.512773 
L 591.328125 180.30208 
L 592.417969 181.609453 
L 593.507812 182.496416 
L 594.597656 182.988604 
L 595.142578 182.891191 
L 595.6875 182.99373 
L 596.232422 182.886064 
L 596.777344 183.080889 
L 597.867188 183.039873 
L 598.957031 182.732256 
L 599.501953 182.183672 
L 600.591797 180.250811 
L 601.681641 177.149004 
L 602.771484 173.20125 
L 603.316406 170.6429 
L 604.40625 166.695146 
L 604.951172 164.490557 
L 606.041016 161.737383 
L 607.130859 160.594072 
L 607.675781 160.629961 
L 608.220703 160.927324 
L 608.765625 161.757891 
L 609.855469 164.413652 
L 611.490234 170.453203 
L 612.580078 175.005937 
L 613.669922 178.912676 
L 614.759766 182.260576 
L 615.304688 183.367998 
L 615.849609 184.213945 
L 616.394531 184.618975 
L 616.939453 184.839434 
L 618.574219 184.65999 
L 619.119141 184.398516 
L 619.664062 183.901201 
L 620.208984 183.829424 
L 621.84375 182.773271 
L 622.388672 182.178545 
L 622.933594 181.788896 
L 624.023438 179.968828 
L 624.568359 178.728105 
L 625.113281 178.092363 
L 626.203125 176.513262 
L 626.748047 176.190264 
L 627.292969 176.005693 
L 627.837891 176.021074 
L 630.017578 178.507646 
L 632.197266 181.691484 
L 633.287109 183.716631 
L 634.376953 186.034014 
L 634.921875 187.151689 
L 636.011719 188.848711 
L 637.101562 190.109941 
L 638.191406 190.535479 
L 639.28125 190.135576 
L 640.371094 189.197344 
L 641.460938 187.515703 
L 643.640625 182.347734 
L 644.185547 181.019854 
L 645.820312 177.836016 
L 646.365234 176.677324 
L 646.910156 175.862139 
L 647.455078 174.841875 
L 647.455078 174.841875 
" style="fill:none;stroke:#4c72b0;stroke-linecap:round;stroke-width:1.75;"/>
   </g>
   <g id="patch_3">
    <path d="M 90 270.72 
L 90 69.12 
" style="fill:none;stroke:#262626;stroke-linecap:square;stroke-linejoin:miter;stroke-width:1.25;"/>
   </g>
   <g id="patch_4">
    <path d="M 90 270.72 
L 648 270.72 
" style="fill:none;stroke:#262626;stroke-linecap:square;stroke-linejoin:miter;stroke-width:1.25;"/>
   </g>
  </g>
  <g id="axes_2">
   <g id="patch_5">
    <path d="M 90 512.64 
L 648 512.64 
L 648 311.04 
L 90 311.04 
z
" style="fill:#ffffff;"/>
   </g>
   <g id="matplotlib.axis_3">
    <g id="xtick_7">
     <g id="line2d_15">
      <g>
       <use style="fill:#262626;stroke:#262626;" x="218.197478" xlink:href="#m515c588431" y="512.64"/>
      </g>
     </g>
     <g id="text_14">
      <!-- $\mathdefault{10^{2}}$ -->
      <g style="fill:#262626;" transform="translate(210.347478 535.9525)scale(0.1 -0.1)">
       <use transform="translate(0 0.99375)" xlink:href="#ArialMT-31"/>
       <use transform="translate(55.615234 0.99375)" xlink:href="#ArialMT-30"/>
       <use transform="translate(112.972813 70.6875)scale(0.7)" xlink:href="#ArialMT-32"/>
      </g>
     </g>
    </g>
    <g id="xtick_8">
     <g id="line2d_16">
      <g>
       <use style="fill:#262626;stroke:#262626;" x="401.606604" xlink:href="#m515c588431" y="512.64"/>
      </g>
     </g>
     <g id="text_15">
      <!-- $\mathdefault{10^{3}}$ -->
      <defs>
       <path d="M 4.203125 18.890625 
L 12.984375 20.0625 
Q 14.5 12.59375 18.140625 9.296875 
Q 21.78125 6 27 6 
Q 33.203125 6 37.46875 10.296875 
Q 41.75 14.59375 41.75 20.953125 
Q 41.75 27 37.796875 30.921875 
Q 33.84375 34.859375 27.734375 34.859375 
Q 25.25 34.859375 21.53125 33.890625 
L 22.515625 41.609375 
Q 23.390625 41.5 23.921875 41.5 
Q 29.546875 41.5 34.03125 44.421875 
Q 38.53125 47.359375 38.53125 53.46875 
Q 38.53125 58.296875 35.25 61.46875 
Q 31.984375 64.65625 26.8125 64.65625 
Q 21.6875 64.65625 18.265625 61.421875 
Q 14.84375 58.203125 13.875 51.765625 
L 5.078125 53.328125 
Q 6.6875 62.15625 12.390625 67.015625 
Q 18.109375 71.875 26.609375 71.875 
Q 32.46875 71.875 37.390625 69.359375 
Q 42.328125 66.84375 44.9375 62.5 
Q 47.5625 58.15625 47.5625 53.265625 
Q 47.5625 48.640625 45.0625 44.828125 
Q 42.578125 41.015625 37.703125 38.765625 
Q 44.046875 37.3125 47.5625 32.6875 
Q 51.078125 28.078125 51.078125 21.140625 
Q 51.078125 11.765625 44.234375 5.25 
Q 37.40625 -1.265625 26.953125 -1.265625 
Q 17.53125 -1.265625 11.296875 4.34375 
Q 5.078125 9.96875 4.203125 18.890625 
z
" id="ArialMT-33"/>
      </defs>
      <g style="fill:#262626;" transform="translate(393.756604 535.9525)scale(0.1 -0.1)">
       <use transform="translate(0 0.99375)" xlink:href="#ArialMT-31"/>
       <use transform="translate(55.615234 0.99375)" xlink:href="#ArialMT-30"/>
       <use transform="translate(112.972813 70.6875)scale(0.7)" xlink:href="#ArialMT-33"/>
      </g>
     </g>
    </g>
    <g id="xtick_9">
     <g id="line2d_17">
      <g>
       <use style="fill:#262626;stroke:#262626;" x="585.01573" xlink:href="#m515c588431" y="512.64"/>
      </g>
     </g>
     <g id="text_16">
      <!-- $\mathdefault{10^{4}}$ -->
      <g style="fill:#262626;" transform="translate(577.16573 535.8525)scale(0.1 -0.1)">
       <use transform="translate(0 0.201563)" xlink:href="#ArialMT-31"/>
       <use transform="translate(55.615234 0.201563)" xlink:href="#ArialMT-30"/>
       <use transform="translate(112.972813 69.895313)scale(0.7)" xlink:href="#ArialMT-34"/>
      </g>
     </g>
    </g>
    <g id="xtick_10">
     <g id="line2d_18">
      <defs>
       <path d="M 0 0 
L 0 3 
" id="m8c69e10587" style="stroke:#262626;stroke-width:0.5;"/>
      </defs>
      <g>
       <use style="fill:#262626;stroke:#262626;stroke-width:0.5;" x="90" xlink:href="#m8c69e10587" y="512.64"/>
      </g>
     </g>
    </g>
    <g id="xtick_11">
     <g id="line2d_19">
      <g>
       <use style="fill:#262626;stroke:#262626;stroke-width:0.5;" x="122.296744" xlink:href="#m8c69e10587" y="512.64"/>
      </g>
     </g>
    </g>
    <g id="xtick_12">
     <g id="line2d_20">
      <g>
       <use style="fill:#262626;stroke:#262626;stroke-width:0.5;" x="145.211648" xlink:href="#m8c69e10587" y="512.64"/>
      </g>
     </g>
    </g>
    <g id="xtick_13">
     <g id="line2d_21">
      <g>
       <use style="fill:#262626;stroke:#262626;stroke-width:0.5;" x="162.985829" xlink:href="#m8c69e10587" y="512.64"/>
      </g>
     </g>
    </g>
    <g id="xtick_14">
     <g id="line2d_22">
      <g>
       <use style="fill:#262626;stroke:#262626;stroke-width:0.5;" x="177.508392" xlink:href="#m8c69e10587" y="512.64"/>
      </g>
     </g>
    </g>
    <g id="xtick_15">
     <g id="line2d_23">
      <g>
       <use style="fill:#262626;stroke:#262626;stroke-width:0.5;" x="189.787045" xlink:href="#m8c69e10587" y="512.64"/>
      </g>
     </g>
    </g>
    <g id="xtick_16">
     <g id="line2d_24">
      <g>
       <use style="fill:#262626;stroke:#262626;stroke-width:0.5;" x="200.423297" xlink:href="#m8c69e10587" y="512.64"/>
      </g>
     </g>
    </g>
    <g id="xtick_17">
     <g id="line2d_25">
      <g>
       <use style="fill:#262626;stroke:#262626;stroke-width:0.5;" x="209.805136" xlink:href="#m8c69e10587" y="512.64"/>
      </g>
     </g>
    </g>
    <g id="xtick_18">
     <g id="line2d_26">
      <g>
       <use style="fill:#262626;stroke:#262626;stroke-width:0.5;" x="273.409126" xlink:href="#m8c69e10587" y="512.64"/>
      </g>
     </g>
    </g>
    <g id="xtick_19">
     <g id="line2d_27">
      <g>
       <use style="fill:#262626;stroke:#262626;stroke-width:0.5;" x="305.70587" xlink:href="#m8c69e10587" y="512.64"/>
      </g>
     </g>
    </g>
    <g id="xtick_20">
     <g id="line2d_28">
      <g>
       <use style="fill:#262626;stroke:#262626;stroke-width:0.5;" x="328.620775" xlink:href="#m8c69e10587" y="512.64"/>
      </g>
     </g>
    </g>
    <g id="xtick_21">
     <g id="line2d_29">
      <g>
       <use style="fill:#262626;stroke:#262626;stroke-width:0.5;" x="346.394955" xlink:href="#m8c69e10587" y="512.64"/>
      </g>
     </g>
    </g>
    <g id="xtick_22">
     <g id="line2d_30">
      <g>
       <use style="fill:#262626;stroke:#262626;stroke-width:0.5;" x="360.917518" xlink:href="#m8c69e10587" y="512.64"/>
      </g>
     </g>
    </g>
    <g id="xtick_23">
     <g id="line2d_31">
      <g>
       <use style="fill:#262626;stroke:#262626;stroke-width:0.5;" x="373.196171" xlink:href="#m8c69e10587" y="512.64"/>
      </g>
     </g>
    </g>
    <g id="xtick_24">
     <g id="line2d_32">
      <g>
       <use style="fill:#262626;stroke:#262626;stroke-width:0.5;" x="383.832423" xlink:href="#m8c69e10587" y="512.64"/>
      </g>
     </g>
    </g>
    <g id="xtick_25">
     <g id="line2d_33">
      <g>
       <use style="fill:#262626;stroke:#262626;stroke-width:0.5;" x="393.214262" xlink:href="#m8c69e10587" y="512.64"/>
      </g>
     </g>
    </g>
    <g id="xtick_26">
     <g id="line2d_34">
      <g>
       <use style="fill:#262626;stroke:#262626;stroke-width:0.5;" x="456.818252" xlink:href="#m8c69e10587" y="512.64"/>
      </g>
     </g>
    </g>
    <g id="xtick_27">
     <g id="line2d_35">
      <g>
       <use style="fill:#262626;stroke:#262626;stroke-width:0.5;" x="489.114996" xlink:href="#m8c69e10587" y="512.64"/>
      </g>
     </g>
    </g>
    <g id="xtick_28">
     <g id="line2d_36">
      <g>
       <use style="fill:#262626;stroke:#262626;stroke-width:0.5;" x="512.029901" xlink:href="#m8c69e10587" y="512.64"/>
      </g>
     </g>
    </g>
    <g id="xtick_29">
     <g id="line2d_37">
      <g>
       <use style="fill:#262626;stroke:#262626;stroke-width:0.5;" x="529.804081" xlink:href="#m8c69e10587" y="512.64"/>
      </g>
     </g>
    </g>
    <g id="xtick_30">
     <g id="line2d_38">
      <g>
       <use style="fill:#262626;stroke:#262626;stroke-width:0.5;" x="544.326645" xlink:href="#m8c69e10587" y="512.64"/>
      </g>
     </g>
    </g>
    <g id="xtick_31">
     <g id="line2d_39">
      <g>
       <use style="fill:#262626;stroke:#262626;stroke-width:0.5;" x="556.605297" xlink:href="#m8c69e10587" y="512.64"/>
      </g>
     </g>
    </g>
    <g id="xtick_32">
     <g id="line2d_40">
      <g>
       <use style="fill:#262626;stroke:#262626;stroke-width:0.5;" x="567.241549" xlink:href="#m8c69e10587" y="512.64"/>
      </g>
     </g>
    </g>
    <g id="xtick_33">
     <g id="line2d_41">
      <g>
       <use style="fill:#262626;stroke:#262626;stroke-width:0.5;" x="576.623389" xlink:href="#m8c69e10587" y="512.64"/>
      </g>
     </g>
    </g>
    <g id="xtick_34">
     <g id="line2d_42">
      <g>
       <use style="fill:#262626;stroke:#262626;stroke-width:0.5;" x="640.227378" xlink:href="#m8c69e10587" y="512.64"/>
      </g>
     </g>
    </g>
   </g>
   <g id="matplotlib.axis_4">
    <g id="ytick_8">
     <g id="line2d_43">
      <g>
       <use style="fill:#262626;stroke:#262626;" x="90" xlink:href="#m714a2f9fed" y="512.64"/>
      </g>
     </g>
     <g id="text_17">
      <!-- $\mathdefault{10^{-5}}$ -->
      <defs>
       <path d="M 4.15625 18.75 
L 13.375 19.53125 
Q 14.40625 12.796875 18.140625 9.390625 
Q 21.875 6 27.15625 6 
Q 33.5 6 37.890625 10.78125 
Q 42.28125 15.578125 42.28125 23.484375 
Q 42.28125 31 38.0625 35.34375 
Q 33.84375 39.703125 27 39.703125 
Q 22.75 39.703125 19.328125 37.765625 
Q 15.921875 35.84375 13.96875 32.765625 
L 5.71875 33.84375 
L 12.640625 70.609375 
L 48.25 70.609375 
L 48.25 62.203125 
L 19.671875 62.203125 
L 15.828125 42.96875 
Q 22.265625 47.46875 29.34375 47.46875 
Q 38.71875 47.46875 45.15625 40.96875 
Q 51.609375 34.46875 51.609375 24.265625 
Q 51.609375 14.546875 45.953125 7.46875 
Q 39.0625 -1.21875 27.15625 -1.21875 
Q 17.390625 -1.21875 11.203125 4.25 
Q 5.03125 9.71875 4.15625 18.75 
z
" id="ArialMT-35"/>
      </defs>
      <g style="fill:#262626;" transform="translate(57.2 517.74625)scale(0.1 -0.1)">
       <use transform="translate(0 0.879688)" xlink:href="#ArialMT-31"/>
       <use transform="translate(55.615234 0.879688)" xlink:href="#ArialMT-30"/>
       <use transform="translate(112.972813 70.573438)scale(0.7)" xlink:href="#ArialMT-2212"/>
       <use transform="translate(153.851719 70.573438)scale(0.7)" xlink:href="#ArialMT-35"/>
      </g>
     </g>
    </g>
    <g id="ytick_9">
     <g id="line2d_44">
      <g>
       <use style="fill:#262626;stroke:#262626;" x="90" xlink:href="#m714a2f9fed" y="465.767507"/>
      </g>
     </g>
     <g id="text_18">
      <!-- $\mathdefault{10^{-4}}$ -->
      <g style="fill:#262626;" transform="translate(57.2 470.873757)scale(0.1 -0.1)">
       <use transform="translate(0 0.201563)" xlink:href="#ArialMT-31"/>
       <use transform="translate(55.615234 0.201563)" xlink:href="#ArialMT-30"/>
       <use transform="translate(112.972813 69.895313)scale(0.7)" xlink:href="#ArialMT-2212"/>
       <use transform="translate(153.851719 69.895313)scale(0.7)" xlink:href="#ArialMT-34"/>
      </g>
     </g>
    </g>
    <g id="ytick_10">
     <g id="line2d_45">
      <g>
       <use style="fill:#262626;stroke:#262626;" x="90" xlink:href="#m714a2f9fed" y="418.895013"/>
      </g>
     </g>
     <g id="text_19">
      <!-- $\mathdefault{10^{-3}}$ -->
      <g style="fill:#262626;" transform="translate(57.2 424.051263)scale(0.1 -0.1)">
       <use transform="translate(0 0.99375)" xlink:href="#ArialMT-31"/>
       <use transform="translate(55.615234 0.99375)" xlink:href="#ArialMT-30"/>
       <use transform="translate(112.972813 70.6875)scale(0.7)" xlink:href="#ArialMT-2212"/>
       <use transform="translate(153.851719 70.6875)scale(0.7)" xlink:href="#ArialMT-33"/>
      </g>
     </g>
    </g>
    <g id="ytick_11">
     <g id="line2d_46">
      <g>
       <use style="fill:#262626;stroke:#262626;" x="90" xlink:href="#m714a2f9fed" y="372.02252"/>
      </g>
     </g>
     <g id="text_20">
      <!-- $\mathdefault{10^{-2}}$ -->
      <g style="fill:#262626;" transform="translate(57.2 377.17877)scale(0.1 -0.1)">
       <use transform="translate(0 0.99375)" xlink:href="#ArialMT-31"/>
       <use transform="translate(55.615234 0.99375)" xlink:href="#ArialMT-30"/>
       <use transform="translate(112.972813 70.6875)scale(0.7)" xlink:href="#ArialMT-2212"/>
       <use transform="translate(153.851719 70.6875)scale(0.7)" xlink:href="#ArialMT-32"/>
      </g>
     </g>
    </g>
    <g id="ytick_12">
     <g id="line2d_47">
      <g>
       <use style="fill:#262626;stroke:#262626;" x="90" xlink:href="#m714a2f9fed" y="325.150026"/>
      </g>
     </g>
     <g id="text_21">
      <!-- $\mathdefault{10^{-1}}$ -->
      <g style="fill:#262626;" transform="translate(57.2 330.306276)scale(0.1 -0.1)">
       <use transform="translate(0 0.99375)" xlink:href="#ArialMT-31"/>
       <use transform="translate(55.615234 0.99375)" xlink:href="#ArialMT-30"/>
       <use transform="translate(112.972813 70.6875)scale(0.7)" xlink:href="#ArialMT-2212"/>
       <use transform="translate(153.851719 70.6875)scale(0.7)" xlink:href="#ArialMT-31"/>
      </g>
     </g>
    </g>
    <g id="ytick_13">
     <g id="line2d_48">
      <defs>
       <path d="M 0 0 
L -3 0 
" id="mb3fb9b2359" style="stroke:#262626;stroke-width:0.5;"/>
      </defs>
      <g>
       <use style="fill:#262626;stroke:#262626;stroke-width:0.5;" x="90" xlink:href="#mb3fb9b2359" y="498.529974"/>
      </g>
     </g>
    </g>
    <g id="ytick_14">
     <g id="line2d_49">
      <g>
       <use style="fill:#262626;stroke:#262626;stroke-width:0.5;" x="90" xlink:href="#mb3fb9b2359" y="490.276137"/>
      </g>
     </g>
    </g>
    <g id="ytick_15">
     <g id="line2d_50">
      <g>
       <use style="fill:#262626;stroke:#262626;stroke-width:0.5;" x="90" xlink:href="#mb3fb9b2359" y="484.419947"/>
      </g>
     </g>
    </g>
    <g id="ytick_16">
     <g id="line2d_51">
      <g>
       <use style="fill:#262626;stroke:#262626;stroke-width:0.5;" x="90" xlink:href="#mb3fb9b2359" y="479.877533"/>
      </g>
     </g>
    </g>
    <g id="ytick_17">
     <g id="line2d_52">
      <g>
       <use style="fill:#262626;stroke:#262626;stroke-width:0.5;" x="90" xlink:href="#mb3fb9b2359" y="476.166111"/>
      </g>
     </g>
    </g>
    <g id="ytick_18">
     <g id="line2d_53">
      <g>
       <use style="fill:#262626;stroke:#262626;stroke-width:0.5;" x="90" xlink:href="#mb3fb9b2359" y="473.028148"/>
      </g>
     </g>
    </g>
    <g id="ytick_19">
     <g id="line2d_54">
      <g>
       <use style="fill:#262626;stroke:#262626;stroke-width:0.5;" x="90" xlink:href="#mb3fb9b2359" y="470.309921"/>
      </g>
     </g>
    </g>
    <g id="ytick_20">
     <g id="line2d_55">
      <g>
       <use style="fill:#262626;stroke:#262626;stroke-width:0.5;" x="90" xlink:href="#mb3fb9b2359" y="467.912274"/>
      </g>
     </g>
    </g>
    <g id="ytick_21">
     <g id="line2d_56">
      <g>
       <use style="fill:#262626;stroke:#262626;stroke-width:0.5;" x="90" xlink:href="#mb3fb9b2359" y="451.65748"/>
      </g>
     </g>
    </g>
    <g id="ytick_22">
     <g id="line2d_57">
      <g>
       <use style="fill:#262626;stroke:#262626;stroke-width:0.5;" x="90" xlink:href="#mb3fb9b2359" y="443.403644"/>
      </g>
     </g>
    </g>
    <g id="ytick_23">
     <g id="line2d_58">
      <g>
       <use style="fill:#262626;stroke:#262626;stroke-width:0.5;" x="90" xlink:href="#mb3fb9b2359" y="437.547454"/>
      </g>
     </g>
    </g>
    <g id="ytick_24">
     <g id="line2d_59">
      <g>
       <use style="fill:#262626;stroke:#262626;stroke-width:0.5;" x="90" xlink:href="#mb3fb9b2359" y="433.00504"/>
      </g>
     </g>
    </g>
    <g id="ytick_25">
     <g id="line2d_60">
      <g>
       <use style="fill:#262626;stroke:#262626;stroke-width:0.5;" x="90" xlink:href="#mb3fb9b2359" y="429.293617"/>
      </g>
     </g>
    </g>
    <g id="ytick_26">
     <g id="line2d_61">
      <g>
       <use style="fill:#262626;stroke:#262626;stroke-width:0.5;" x="90" xlink:href="#mb3fb9b2359" y="426.155654"/>
      </g>
     </g>
    </g>
    <g id="ytick_27">
     <g id="line2d_62">
      <g>
       <use style="fill:#262626;stroke:#262626;stroke-width:0.5;" x="90" xlink:href="#mb3fb9b2359" y="423.437427"/>
      </g>
     </g>
    </g>
    <g id="ytick_28">
     <g id="line2d_63">
      <g>
       <use style="fill:#262626;stroke:#262626;stroke-width:0.5;" x="90" xlink:href="#mb3fb9b2359" y="421.039781"/>
      </g>
     </g>
    </g>
    <g id="ytick_29">
     <g id="line2d_64">
      <g>
       <use style="fill:#262626;stroke:#262626;stroke-width:0.5;" x="90" xlink:href="#mb3fb9b2359" y="404.784987"/>
      </g>
     </g>
    </g>
    <g id="ytick_30">
     <g id="line2d_65">
      <g>
       <use style="fill:#262626;stroke:#262626;stroke-width:0.5;" x="90" xlink:href="#mb3fb9b2359" y="396.53115"/>
      </g>
     </g>
    </g>
    <g id="ytick_31">
     <g id="line2d_66">
      <g>
       <use style="fill:#262626;stroke:#262626;stroke-width:0.5;" x="90" xlink:href="#mb3fb9b2359" y="390.67496"/>
      </g>
     </g>
    </g>
    <g id="ytick_32">
     <g id="line2d_67">
      <g>
       <use style="fill:#262626;stroke:#262626;stroke-width:0.5;" x="90" xlink:href="#mb3fb9b2359" y="386.132546"/>
      </g>
     </g>
    </g>
    <g id="ytick_33">
     <g id="line2d_68">
      <g>
       <use style="fill:#262626;stroke:#262626;stroke-width:0.5;" x="90" xlink:href="#mb3fb9b2359" y="382.421124"/>
      </g>
     </g>
    </g>
    <g id="ytick_34">
     <g id="line2d_69">
      <g>
       <use style="fill:#262626;stroke:#262626;stroke-width:0.5;" x="90" xlink:href="#mb3fb9b2359" y="379.283161"/>
      </g>
     </g>
    </g>
    <g id="ytick_35">
     <g id="line2d_70">
      <g>
       <use style="fill:#262626;stroke:#262626;stroke-width:0.5;" x="90" xlink:href="#mb3fb9b2359" y="376.564934"/>
      </g>
     </g>
    </g>
    <g id="ytick_36">
     <g id="line2d_71">
      <g>
       <use style="fill:#262626;stroke:#262626;stroke-width:0.5;" x="90" xlink:href="#mb3fb9b2359" y="374.167288"/>
      </g>
     </g>
    </g>
    <g id="ytick_37">
     <g id="line2d_72">
      <g>
       <use style="fill:#262626;stroke:#262626;stroke-width:0.5;" x="90" xlink:href="#mb3fb9b2359" y="357.912493"/>
      </g>
     </g>
    </g>
    <g id="ytick_38">
     <g id="line2d_73">
      <g>
       <use style="fill:#262626;stroke:#262626;stroke-width:0.5;" x="90" xlink:href="#mb3fb9b2359" y="349.658657"/>
      </g>
     </g>
    </g>
    <g id="ytick_39">
     <g id="line2d_74">
      <g>
       <use style="fill:#262626;stroke:#262626;stroke-width:0.5;" x="90" xlink:href="#mb3fb9b2359" y="343.802467"/>
      </g>
     </g>
    </g>
    <g id="ytick_40">
     <g id="line2d_75">
      <g>
       <use style="fill:#262626;stroke:#262626;stroke-width:0.5;" x="90" xlink:href="#mb3fb9b2359" y="339.260053"/>
      </g>
     </g>
    </g>
    <g id="ytick_41">
     <g id="line2d_76">
      <g>
       <use style="fill:#262626;stroke:#262626;stroke-width:0.5;" x="90" xlink:href="#mb3fb9b2359" y="335.548631"/>
      </g>
     </g>
    </g>
    <g id="ytick_42">
     <g id="line2d_77">
      <g>
       <use style="fill:#262626;stroke:#262626;stroke-width:0.5;" x="90" xlink:href="#mb3fb9b2359" y="332.410668"/>
      </g>
     </g>
    </g>
    <g id="ytick_43">
     <g id="line2d_78">
      <g>
       <use style="fill:#262626;stroke:#262626;stroke-width:0.5;" x="90" xlink:href="#mb3fb9b2359" y="329.69244"/>
      </g>
     </g>
    </g>
    <g id="ytick_44">
     <g id="line2d_79">
      <g>
       <use style="fill:#262626;stroke:#262626;stroke-width:0.5;" x="90" xlink:href="#mb3fb9b2359" y="327.294794"/>
      </g>
     </g>
    </g>
    <g id="ytick_45">
     <g id="line2d_80">
      <g>
       <use style="fill:#262626;stroke:#262626;stroke-width:0.5;" x="90" xlink:href="#mb3fb9b2359" y="311.04"/>
      </g>
     </g>
    </g>
   </g>
   <g id="line2d_81">
    <path clip-path="url(#p73eabcad03)" d="M -1 366.654527 
L 151.095164 366.657533 
L 206.306812 381.004965 
L 238.603556 389.925271 
L 261.518461 412.662321 
L 279.292642 399.32346 
L 293.815205 371.140124 
L 306.093857 406.719939 
L 316.730109 409.812204 
L 334.50429 407.804711 
L 342.096086 405.50524 
L 349.026853 369.251054 
L 355.402541 424.008637 
L 361.305505 424.335514 
L 366.801034 422.066156 
L 371.941758 414.920524 
L 376.770725 412.021899 
L 381.323597 381.116248 
L 385.630245 410.359502 
L 389.715939 410.323758 
L 393.602249 408.364705 
L 397.307735 401.522459 
L 400.848476 389.025395 
L 404.238502 355.634052 
L 407.490119 379.776294 
L 410.614189 395.845981 
L 413.620341 406.4424 
L 416.517154 407.717383 
L 419.312303 406.578771 
L 422.012683 386.586824 
L 424.624509 404.911063 
L 427.153406 425.151612 
L 429.604479 430.544997 
L 431.982374 425.276033 
L 434.291335 417.282964 
L 436.535246 396.766238 
L 438.717672 398.459973 
L 440.841893 418.053726 
L 442.910933 425.634851 
L 444.927587 425.491108 
L 446.894442 420.39742 
L 448.813898 404.014656 
L 450.688186 391.370686 
L 452.519383 419.992785 
L 454.309426 430.038566 
L 456.060125 436.258753 
L 457.773171 440.24809 
L 459.45015 446.843021 
L 461.09255 434.786159 
L 462.701768 466.752445 
L 464.279118 466.558346 
L 465.825838 466.176634 
L 467.343094 479.775832 
L 468.83199 468.235075 
L 470.293564 406.723445 
L 471.728802 434.702162 
L 473.138637 445.453209 
L 474.523951 454.709328 
L 475.885584 458.222614 
L 477.224331 458.350601 
L 478.540949 489.010529 
L 479.836157 446.513679 
L 481.110642 450.017542 
L 482.365055 447.345446 
L 483.600019 457.037881 
L 484.816127 459.497838 
L 486.013948 467.029267 
L 487.194022 447.273049 
L 488.356869 456.240043 
L 489.502983 460.515779 
L 490.63284 457.854039 
L 491.746894 452.760847 
L 492.845581 443.909029 
L 493.92932 422.379326 
L 494.998512 428.836077 
L 496.053541 446.822186 
L 497.094779 455.860743 
L 498.122582 461.72092 
L 499.137291 461.24599 
L 500.139235 460.315223 
L 501.128734 454.486586 
L 502.10609 479.771283 
L 503.0716 488.368339 
L 504.025546 490.674601 
L 504.968203 474.312153 
L 505.899834 467.663758 
L 506.820695 458.675197 
L 507.731032 473.750091 
L 508.631082 503.711271 
L 509.521075 481.507814 
L 510.401234 477.527229 
L 511.271773 499.59607 
L 512.132901 474.021306 
L 512.984819 462.397849 
L 513.827722 455.711418 
L 514.661799 497.142108 
L 515.487232 510.291669 
L 516.304198 484.293882 
L 517.112871 498.165866 
L 517.913416 488.094527 
L 518.705996 470.855308 
L 519.490766 518.086628 
L 520.26788 499.787434 
L 521.037486 512.152956 
L 521.799727 482.629692 
L 522.554743 486.057358 
L 523.302669 514.532922 
L 524.043638 477.710654 
L 524.777778 512.086995 
L 525.505212 496.301075 
L 526.226064 522.570391 
L 526.940451 487.282636 
L 527.648487 526.072141 
L 528.350285 514.984757 
L 529.045954 492.694942 
L 529.7356 483.355045 
L 530.419326 503.26695 
L 531.097232 482.772574 
L 531.769418 507.169872 
L 532.435979 513.378464 
L 533.097009 478.275351 
L 533.752597 474.166859 
L 534.402834 492.531988 
L 535.047806 500.604798 
L 535.687597 491.540116 
L 536.951966 527.036755 
L 537.576703 494.718175 
L 538.196578 488.872778 
L 538.811667 473.13057 
L 539.422042 518.223785 
L 540.027776 486.001524 
L 540.628938 498.581811 
L 541.225596 498.002458 
L 541.817819 498.659648 
L 542.405671 495.806293 
L 542.989216 504.349677 
L 543.568517 495.576677 
L 544.143636 496.814176 
L 544.714632 508.382749 
L 545.281563 501.252564 
L 545.844488 497.163701 
L 546.403463 483.711068 
L 546.958543 510.150349 
L 547.509781 469.075756 
L 548.05723 493.703874 
L 548.600942 497.303384 
L 549.140969 483.895614 
L 549.677358 486.968304 
L 550.21016 492.632014 
L 550.739422 495.324214 
L 551.26519 484.461242 
L 551.78751 492.956285 
L 552.306428 522.072201 
L 553.33423 486.604523 
L 553.8432 506.588917 
L 554.348939 487.713102 
L 554.851487 505.891718 
L 555.350884 508.194577 
L 556.340382 490.524532 
L 556.830559 513.90312 
L 557.317739 500.414165 
L 557.801956 493.241009 
L 558.283248 494.931377 
L 558.76165 497.372443 
L 559.237195 513.242783 
L 559.709918 496.978897 
L 560.179852 489.558667 
L 560.647029 498.375563 
L 561.111483 492.441741 
L 561.573244 504.864654 
L 562.032344 488.940007 
L 562.488812 480.429594 
L 562.94268 505.884831 
L 563.393976 498.522438 
L 563.84273 504.827204 
L 564.732723 507.691822 
L 565.174019 493.192387 
L 565.612882 492.914264 
L 566.049341 490.928533 
L 566.483422 485.338101 
L 566.91515 498.604011 
L 567.34455 496.950091 
L 567.771648 498.155269 
L 568.196468 505.778072 
L 568.619034 503.379062 
L 569.457501 522.780377 
L 570.287233 491.232931 
L 570.69888 504.55418 
L 571.108411 504.663094 
L 571.515847 513.404821 
L 571.921209 528.781854 
L 572.32452 504.128975 
L 572.725798 508.841019 
L 573.125065 507.468498 
L 573.52234 500.407696 
L 573.917644 502.202845 
L 574.310996 499.782262 
L 575.091919 502.74331 
L 575.479529 515.538027 
L 575.865261 489.904837 
L 576.249135 500.86938 
L 576.631167 517.412907 
L 577.011376 507.244881 
L 577.389778 501.571521 
L 577.766391 508.268388 
L 578.141232 526.856017 
L 578.514318 499.283386 
L 578.885664 514.531732 
L 579.255287 497.025094 
L 579.623202 522.649111 
L 579.989426 506.02629 
L 580.353974 495.599754 
L 580.716861 497.600458 
L 581.078102 512.485244 
L 581.437713 489.720473 
L 581.795707 489.517666 
L 582.152099 492.75116 
L 582.506904 493.347034 
L 583.211808 505.317256 
L 583.561934 492.95876 
L 583.910528 500.045355 
L 584.603172 506.482527 
L 584.947248 493.498242 
L 585.289845 500.518389 
L 585.630974 510.803602 
L 585.970649 504.653128 
L 586.308881 540.734896 
L 586.645683 505.944566 
L 586.981067 515.441684 
L 587.315045 491.485246 
L 587.647628 524.084005 
L 587.978828 506.809118 
L 588.308657 497.502449 
L 588.637126 501.341788 
L 588.964246 501.101478 
L 589.290028 496.975564 
L 589.614483 518.065558 
L 589.937621 497.833789 
L 590.259454 536.338855 
L 590.579992 493.861602 
L 590.899246 495.985436 
L 591.217224 495.346724 
L 591.533939 509.404363 
L 591.849399 515.984621 
L 592.163614 486.771887 
L 592.476596 498.860078 
L 592.788352 504.956189 
L 593.098892 499.09475 
L 593.408227 522.476728 
L 593.716365 522.203579 
L 594.023315 509.527431 
L 594.329088 518.112625 
L 594.937133 504.387961 
L 595.239424 512.002523 
L 595.540572 541.544991 
L 595.840586 492.335997 
L 596.437245 498.603099 
L 596.733906 495.787744 
L 597.029467 501.186885 
L 597.323936 512.053592 
L 597.617319 510.733118 
L 597.909626 516.566004 
L 598.200864 527.665175 
L 598.491042 489.959382 
L 598.780166 494.760919 
L 599.068244 505.144837 
L 599.355284 496.824062 
L 599.92628 488.13657 
L 600.21025 523.086306 
L 600.493212 534.531506 
L 601.056137 484.07587 
L 601.336115 505.890955 
L 601.615112 495.11071 
L 601.893135 507.23666 
L 602.170191 511.470502 
L 602.446287 523.124001 
L 602.721429 508.229103 
L 602.995624 526.442399 
L 603.268878 495.031694 
L 603.541199 521.928106 
L 603.812591 501.804443 
L 604.083062 519.870483 
L 604.352617 529.446193 
L 604.621264 501.535437 
L 604.889007 542.741598 
L 605.155853 495.98727 
L 605.421809 497.465606 
L 605.686879 518.883827 
L 605.95107 512.645707 
L 606.214388 492.19452 
L 606.476838 491.527277 
L 606.738427 501.77262 
L 606.999159 523.65823 
L 607.25904 507.003075 
L 607.518076 505.723117 
L 608.033635 522.822644 
L 608.290169 500.377596 
L 608.545879 490.974225 
L 608.80077 509.11654 
L 609.054849 546.035483 
L 609.308119 507.931408 
L 609.812258 484.157941 
L 610.063135 503.271198 
L 610.313225 512.355858 
L 610.562532 503.131058 
L 610.811062 481.904618 
L 611.058818 531.240984 
L 611.305806 488.371065 
L 611.55203 492.500346 
L 611.797496 502.225284 
L 612.042208 485.825962 
L 612.28617 512.771442 
L 612.529387 522.381271 
L 612.771864 511.915992 
L 613.013605 488.109407 
L 613.254614 499.782152 
L 613.494897 503.09617 
L 613.734457 503.909069 
L 613.973298 492.350861 
L 614.211426 499.418406 
L 614.448843 493.75994 
L 614.685555 520.746509 
L 614.921566 494.286376 
L 615.15688 542.835219 
L 615.3915 490.842977 
L 615.625431 515.893346 
L 615.858678 488.04997 
L 616.091243 489.851691 
L 616.323131 501.434903 
L 616.554347 504.531964 
L 617.014773 481.985811 
L 617.243992 499.426491 
L 617.472553 500.403684 
L 617.700461 498.338391 
L 617.927718 486.816245 
L 618.154329 492.811543 
L 618.380296 518.752498 
L 618.605625 496.890022 
L 618.830318 502.888119 
L 619.054379 512.764971 
L 619.277811 489.865112 
L 619.500618 507.875115 
L 619.722804 493.790662 
L 619.944372 509.606439 
L 620.385667 490.336097 
L 620.605401 494.48066 
L 620.824531 521.162223 
L 621.043059 531.214103 
L 621.26099 509.752072 
L 621.478326 505.897033 
L 621.69507 509.149811 
L 621.911227 494.722249 
L 622.341787 533.362441 
L 622.770034 491.825058 
L 622.983296 509.605579 
L 623.195989 497.802336 
L 623.408116 520.537211 
L 624.041128 491.414899 
L 624.460358 518.526314 
L 624.669149 501.402756 
L 624.877394 499.41108 
L 625.085096 493.015127 
L 625.292257 495.63046 
L 625.498881 502.85256 
L 625.704971 516.084334 
L 625.910528 510.671058 
L 626.115557 528.195907 
L 626.320059 516.457235 
L 626.524038 491.459483 
L 626.727495 507.877227 
L 626.930435 511.656911 
L 627.334768 488.556037 
L 627.536168 515.38036 
L 627.73706 495.377223 
L 627.937446 509.243622 
L 628.13733 490.080564 
L 628.336713 502.074641 
L 628.535599 488.092202 
L 628.733989 499.412696 
L 628.931886 496.643051 
L 629.326211 508.593665 
L 629.522644 505.379399 
L 629.718594 518.36406 
L 629.914063 491.290027 
L 630.109054 516.648433 
L 630.303568 523.499314 
L 630.497608 507.539009 
L 630.691177 503.275644 
L 630.884277 495.797425 
L 631.07691 493.754539 
L 631.269078 498.761654 
L 631.460783 490.82784 
L 631.842815 513.647264 
L 632.033146 514.633453 
L 632.789956 484.437139 
L 632.97804 504.070345 
L 633.165681 489.001127 
L 633.352881 513.061236 
L 633.539642 496.434286 
L 633.725966 490.330378 
L 633.911856 501.34177 
L 634.097312 502.184148 
L 634.282338 512.013117 
L 634.466935 490.661343 
L 634.651105 501.314255 
L 634.83485 493.567379 
L 635.018173 495.277599 
L 635.201074 495.751802 
L 635.383557 525.733702 
L 635.747272 501.666885 
L 636.109335 514.004757 
L 636.289751 490.607851 
L 636.469759 497.117211 
L 636.649361 498.490766 
L 636.828559 496.876762 
L 637.007355 510.466372 
L 637.185751 492.301447 
L 637.541348 499.440259 
L 637.718553 509.36321 
L 637.895364 512.13306 
L 638.071784 510.609484 
L 638.423456 492.220543 
L 638.773582 517.325339 
L 638.94807 498.094912 
L 639.122176 501.370573 
L 639.295903 491.907086 
L 639.469251 560.824307 
L 639.642223 485.809546 
L 639.81482 493.977255 
L 639.987044 493.028575 
L 640.330379 504.828834 
L 640.67224 499.336702 
L 640.842622 523.473402 
L 641.012641 484.910054 
L 641.182297 508.923113 
L 641.351593 505.824379 
L 641.520529 507.055503 
L 641.689108 485.48487 
L 641.857331 506.448427 
L 642.0252 504.934848 
L 642.192715 480.971448 
L 642.359879 485.607394 
L 642.526693 498.892668 
L 642.693158 494.703378 
L 642.859276 485.618241 
L 643.025049 493.652653 
L 643.190477 480.197404 
L 643.355562 498.060309 
L 643.520306 499.205665 
L 643.684709 497.506368 
L 643.848774 513.071461 
L 644.012502 499.540827 
L 644.175894 502.575172 
L 644.338952 509.209996 
L 644.664069 500.319426 
L 644.826131 498.391323 
L 644.987864 503.765494 
L 645.14927 524.48644 
L 645.310349 496.793642 
L 645.471103 498.213931 
L 645.631533 503.829211 
L 645.791641 525.213271 
L 645.951427 490.90483 
L 646.270042 513.655081 
L 646.587387 490.523654 
L 646.745587 505.517846 
L 646.903473 509.390489 
L 647.061047 507.90929 
L 647.21831 508.203246 
L 647.375263 491.935039 
L 647.531907 492.538092 
L 647.688244 496.304719 
L 647.844274 511.396983 
L 647.844274 511.396983 
" style="fill:none;stroke:#b22222;stroke-linecap:round;stroke-width:1.75;"/>
   </g>
   <g id="patch_6">
    <path d="M 90 512.64 
L 90 311.04 
" style="fill:none;stroke:#262626;stroke-linecap:square;stroke-linejoin:miter;stroke-width:1.25;"/>
   </g>
   <g id="patch_7">
    <path d="M 90 512.64 
L 648 512.64 
" style="fill:none;stroke:#262626;stroke-linecap:square;stroke-linejoin:miter;stroke-width:1.25;"/>
   </g>
  </g>
 </g>
 <defs>
  <clipPath id="p002b6c35d3">
   <rect height="201.6" width="558" x="90" y="69.12"/>
  </clipPath>
  <clipPath id="p73eabcad03">
   <rect height="201.6" width="558" x="90" y="311.04"/>
  </clipPath>
 </defs>
</svg>
