<?xml version="1.0" encoding="utf-8" standalone="no"?>
<!DOCTYPE svg PUBLIC "-//W3C//DTD SVG 1.1//EN"
  "http://www.w3.org/Graphics/SVG/1.1/DTD/svg11.dtd">
<!-- Created with matplotlib (http://matplotlib.org/) -->
<svg height="576pt" version="1.1" viewBox="0 0 720 576" width="720pt" xmlns="http://www.w3.org/2000/svg" xmlns:xlink="http://www.w3.org/1999/xlink">
 <defs>
  <style type="text/css">
*{stroke-linecap:butt;stroke-linejoin:round;}
  </style>
 </defs>
 <g id="figure_1">
  <g id="patch_1">
   <path d="M 0 576 
L 720 576 
L 720 0 
L 0 0 
z
" style="fill:#ffffff;"/>
  </g>
  <g id="axes_1">
   <g id="patch_2">
    <path d="M 90 270.72 
L 648 270.72 
L 648 69.12 
L 90 69.12 
z
" style="fill:#ffffff;"/>
   </g>
   <g id="matplotlib.axis_1">
    <g id="xtick_1">
     <g id="line2d_1">
      <defs>
       <path d="M 0 0 
L 0 6 
" id="me312e17f1a" style="stroke:#262626;"/>
      </defs>
      <g>
       <use style="fill:#262626;stroke:#262626;" x="90" xlink:href="#me312e17f1a" y="270.72"/>
      </g>
     </g>
     <g id="text_1">
      <!-- 0 -->
      <defs>
       <path d="M 4.15625 35.296875 
Q 4.15625 48 6.765625 55.734375 
Q 9.375 63.484375 14.515625 67.671875 
Q 19.671875 71.875 27.484375 71.875 
Q 33.25 71.875 37.59375 69.546875 
Q 41.9375 67.234375 44.765625 62.859375 
Q 47.609375 58.5 49.21875 52.21875 
Q 50.828125 45.953125 50.828125 35.296875 
Q 50.828125 22.703125 48.234375 14.96875 
Q 45.65625 7.234375 40.5 3 
Q 35.359375 -1.21875 27.484375 -1.21875 
Q 17.140625 -1.21875 11.234375 6.203125 
Q 4.15625 15.140625 4.15625 35.296875 
z
M 13.1875 35.296875 
Q 13.1875 17.671875 17.3125 11.828125 
Q 21.4375 6 27.484375 6 
Q 33.546875 6 37.671875 11.859375 
Q 41.796875 17.71875 41.796875 35.296875 
Q 41.796875 52.984375 37.671875 58.78125 
Q 33.546875 64.59375 27.390625 64.59375 
Q 21.34375 64.59375 17.71875 59.46875 
Q 13.1875 52.9375 13.1875 35.296875 
z
" id="ArialMT-30"/>
      </defs>
      <g style="fill:#262626;" transform="translate(87.219531 290.877812)scale(0.1 -0.1)">
       <use xlink:href="#ArialMT-30"/>
      </g>
     </g>
    </g>
    <g id="xtick_2">
     <g id="line2d_2">
      <g>
       <use style="fill:#262626;stroke:#262626;" x="198.984375" xlink:href="#me312e17f1a" y="270.72"/>
      </g>
     </g>
     <g id="text_2">
      <!-- 200 -->
      <defs>
       <path d="M 50.34375 8.453125 
L 50.34375 0 
L 3.03125 0 
Q 2.9375 3.171875 4.046875 6.109375 
Q 5.859375 10.9375 9.828125 15.625 
Q 13.8125 20.3125 21.34375 26.46875 
Q 33.015625 36.03125 37.109375 41.625 
Q 41.21875 47.21875 41.21875 52.203125 
Q 41.21875 57.421875 37.46875 61 
Q 33.734375 64.59375 27.734375 64.59375 
Q 21.390625 64.59375 17.578125 60.78125 
Q 13.765625 56.984375 13.71875 50.25 
L 4.6875 51.171875 
Q 5.609375 61.28125 11.65625 66.578125 
Q 17.71875 71.875 27.9375 71.875 
Q 38.234375 71.875 44.234375 66.15625 
Q 50.25 60.453125 50.25 52 
Q 50.25 47.703125 48.484375 43.546875 
Q 46.734375 39.40625 42.65625 34.8125 
Q 38.578125 30.21875 29.109375 22.21875 
Q 21.1875 15.578125 18.9375 13.203125 
Q 16.703125 10.84375 15.234375 8.453125 
z
" id="ArialMT-32"/>
      </defs>
      <g style="fill:#262626;" transform="translate(190.642969 290.877812)scale(0.1 -0.1)">
       <use xlink:href="#ArialMT-32"/>
       <use x="55.615234" xlink:href="#ArialMT-30"/>
       <use x="111.230469" xlink:href="#ArialMT-30"/>
      </g>
     </g>
    </g>
    <g id="xtick_3">
     <g id="line2d_3">
      <g>
       <use style="fill:#262626;stroke:#262626;" x="307.96875" xlink:href="#me312e17f1a" y="270.72"/>
      </g>
     </g>
     <g id="text_3">
      <!-- 400 -->
      <defs>
       <path d="M 32.328125 0 
L 32.328125 17.140625 
L 1.265625 17.140625 
L 1.265625 25.203125 
L 33.9375 71.578125 
L 41.109375 71.578125 
L 41.109375 25.203125 
L 50.78125 25.203125 
L 50.78125 17.140625 
L 41.109375 17.140625 
L 41.109375 0 
z
M 32.328125 25.203125 
L 32.328125 57.46875 
L 9.90625 25.203125 
z
" id="ArialMT-34"/>
      </defs>
      <g style="fill:#262626;" transform="translate(299.627344 290.877812)scale(0.1 -0.1)">
       <use xlink:href="#ArialMT-34"/>
       <use x="55.615234" xlink:href="#ArialMT-30"/>
       <use x="111.230469" xlink:href="#ArialMT-30"/>
      </g>
     </g>
    </g>
    <g id="xtick_4">
     <g id="line2d_4">
      <g>
       <use style="fill:#262626;stroke:#262626;" x="416.953125" xlink:href="#me312e17f1a" y="270.72"/>
      </g>
     </g>
     <g id="text_4">
      <!-- 600 -->
      <defs>
       <path d="M 49.75 54.046875 
L 41.015625 53.375 
Q 39.84375 58.546875 37.703125 60.890625 
Q 34.125 64.65625 28.90625 64.65625 
Q 24.703125 64.65625 21.53125 62.3125 
Q 17.390625 59.28125 14.984375 53.46875 
Q 12.59375 47.65625 12.5 36.921875 
Q 15.671875 41.75 20.265625 44.09375 
Q 24.859375 46.4375 29.890625 46.4375 
Q 38.671875 46.4375 44.84375 39.96875 
Q 51.03125 33.5 51.03125 23.25 
Q 51.03125 16.5 48.125 10.71875 
Q 45.21875 4.9375 40.140625 1.859375 
Q 35.0625 -1.21875 28.609375 -1.21875 
Q 17.625 -1.21875 10.6875 6.859375 
Q 3.765625 14.9375 3.765625 33.5 
Q 3.765625 54.25 11.421875 63.671875 
Q 18.109375 71.875 29.4375 71.875 
Q 37.890625 71.875 43.28125 67.140625 
Q 48.6875 62.40625 49.75 54.046875 
z
M 13.875 23.1875 
Q 13.875 18.65625 15.796875 14.5 
Q 17.71875 10.359375 21.1875 8.171875 
Q 24.65625 6 28.46875 6 
Q 34.03125 6 38.03125 10.484375 
Q 42.046875 14.984375 42.046875 22.703125 
Q 42.046875 30.125 38.078125 34.390625 
Q 34.125 38.671875 28.125 38.671875 
Q 22.171875 38.671875 18.015625 34.390625 
Q 13.875 30.125 13.875 23.1875 
z
" id="ArialMT-36"/>
      </defs>
      <g style="fill:#262626;" transform="translate(408.611719 290.877812)scale(0.1 -0.1)">
       <use xlink:href="#ArialMT-36"/>
       <use x="55.615234" xlink:href="#ArialMT-30"/>
       <use x="111.230469" xlink:href="#ArialMT-30"/>
      </g>
     </g>
    </g>
    <g id="xtick_5">
     <g id="line2d_5">
      <g>
       <use style="fill:#262626;stroke:#262626;" x="525.9375" xlink:href="#me312e17f1a" y="270.72"/>
      </g>
     </g>
     <g id="text_5">
      <!-- 800 -->
      <defs>
       <path d="M 17.671875 38.8125 
Q 12.203125 40.828125 9.5625 44.53125 
Q 6.9375 48.25 6.9375 53.421875 
Q 6.9375 61.234375 12.546875 66.546875 
Q 18.171875 71.875 27.484375 71.875 
Q 36.859375 71.875 42.578125 66.421875 
Q 48.296875 60.984375 48.296875 53.171875 
Q 48.296875 48.1875 45.671875 44.5 
Q 43.0625 40.828125 37.75 38.8125 
Q 44.34375 36.671875 47.78125 31.875 
Q 51.21875 27.09375 51.21875 20.453125 
Q 51.21875 11.28125 44.71875 5.03125 
Q 38.234375 -1.21875 27.640625 -1.21875 
Q 17.046875 -1.21875 10.546875 5.046875 
Q 4.046875 11.328125 4.046875 20.703125 
Q 4.046875 27.6875 7.59375 32.390625 
Q 11.140625 37.109375 17.671875 38.8125 
z
M 15.921875 53.71875 
Q 15.921875 48.640625 19.1875 45.40625 
Q 22.46875 42.1875 27.6875 42.1875 
Q 32.765625 42.1875 36.015625 45.375 
Q 39.265625 48.578125 39.265625 53.21875 
Q 39.265625 58.0625 35.90625 61.359375 
Q 32.5625 64.65625 27.59375 64.65625 
Q 22.5625 64.65625 19.234375 61.421875 
Q 15.921875 58.203125 15.921875 53.71875 
z
M 13.09375 20.65625 
Q 13.09375 16.890625 14.875 13.375 
Q 16.65625 9.859375 20.171875 7.921875 
Q 23.6875 6 27.734375 6 
Q 34.03125 6 38.125 10.046875 
Q 42.234375 14.109375 42.234375 20.359375 
Q 42.234375 26.703125 38.015625 30.859375 
Q 33.796875 35.015625 27.4375 35.015625 
Q 21.234375 35.015625 17.15625 30.90625 
Q 13.09375 26.8125 13.09375 20.65625 
z
" id="ArialMT-38"/>
      </defs>
      <g style="fill:#262626;" transform="translate(517.596094 290.877812)scale(0.1 -0.1)">
       <use xlink:href="#ArialMT-38"/>
       <use x="55.615234" xlink:href="#ArialMT-30"/>
       <use x="111.230469" xlink:href="#ArialMT-30"/>
      </g>
     </g>
    </g>
    <g id="xtick_6">
     <g id="line2d_6">
      <g>
       <use style="fill:#262626;stroke:#262626;" x="634.921875" xlink:href="#me312e17f1a" y="270.72"/>
      </g>
     </g>
     <g id="text_6">
      <!-- 1000 -->
      <defs>
       <path d="M 37.25 0 
L 28.46875 0 
L 28.46875 56 
Q 25.296875 52.984375 20.140625 49.953125 
Q 14.984375 46.921875 10.890625 45.40625 
L 10.890625 53.90625 
Q 18.265625 57.375 23.78125 62.296875 
Q 29.296875 67.234375 31.59375 71.875 
L 37.25 71.875 
z
" id="ArialMT-31"/>
      </defs>
      <g style="fill:#262626;" transform="translate(623.8 290.877812)scale(0.1 -0.1)">
       <use xlink:href="#ArialMT-31"/>
       <use x="55.615234" xlink:href="#ArialMT-30"/>
       <use x="111.230469" xlink:href="#ArialMT-30"/>
       <use x="166.845703" xlink:href="#ArialMT-30"/>
      </g>
     </g>
    </g>
   </g>
   <g id="matplotlib.axis_2">
    <g id="ytick_1">
     <g id="line2d_7">
      <defs>
       <path d="M 0 0 
L -6 0 
" id="mff8d5ed9f9" style="stroke:#262626;"/>
      </defs>
      <g>
       <use style="fill:#262626;stroke:#262626;" x="90" xlink:href="#mff8d5ed9f9" y="270.72"/>
      </g>
     </g>
     <g id="text_7">
      <!-- −0.6 -->
      <defs>
       <path d="M 52.828125 31.203125 
L 5.5625 31.203125 
L 5.5625 39.40625 
L 52.828125 39.40625 
z
" id="ArialMT-2212"/>
       <path d="M 9.078125 0 
L 9.078125 10.015625 
L 19.09375 10.015625 
L 19.09375 0 
z
" id="ArialMT-2e"/>
      </defs>
      <g style="fill:#262626;" transform="translate(57.259375 274.298906)scale(0.1 -0.1)">
       <use xlink:href="#ArialMT-2212"/>
       <use x="58.398438" xlink:href="#ArialMT-30"/>
       <use x="114.013672" xlink:href="#ArialMT-2e"/>
       <use x="141.796875" xlink:href="#ArialMT-36"/>
      </g>
     </g>
    </g>
    <g id="ytick_2">
     <g id="line2d_8">
      <g>
       <use style="fill:#262626;stroke:#262626;" x="90" xlink:href="#mff8d5ed9f9" y="237.12"/>
      </g>
     </g>
     <g id="text_8">
      <!-- −0.4 -->
      <g style="fill:#262626;" transform="translate(57.259375 240.698906)scale(0.1 -0.1)">
       <use xlink:href="#ArialMT-2212"/>
       <use x="58.398438" xlink:href="#ArialMT-30"/>
       <use x="114.013672" xlink:href="#ArialMT-2e"/>
       <use x="141.796875" xlink:href="#ArialMT-34"/>
      </g>
     </g>
    </g>
    <g id="ytick_3">
     <g id="line2d_9">
      <g>
       <use style="fill:#262626;stroke:#262626;" x="90" xlink:href="#mff8d5ed9f9" y="203.52"/>
      </g>
     </g>
     <g id="text_9">
      <!-- −0.2 -->
      <g style="fill:#262626;" transform="translate(57.259375 207.098906)scale(0.1 -0.1)">
       <use xlink:href="#ArialMT-2212"/>
       <use x="58.398438" xlink:href="#ArialMT-30"/>
       <use x="114.013672" xlink:href="#ArialMT-2e"/>
       <use x="141.796875" xlink:href="#ArialMT-32"/>
      </g>
     </g>
    </g>
    <g id="ytick_4">
     <g id="line2d_10">
      <g>
       <use style="fill:#262626;stroke:#262626;" x="90" xlink:href="#mff8d5ed9f9" y="169.92"/>
      </g>
     </g>
     <g id="text_10">
      <!-- 0.0 -->
      <g style="fill:#262626;" transform="translate(63.1 173.498906)scale(0.1 -0.1)">
       <use xlink:href="#ArialMT-30"/>
       <use x="55.615234" xlink:href="#ArialMT-2e"/>
       <use x="83.398438" xlink:href="#ArialMT-30"/>
      </g>
     </g>
    </g>
    <g id="ytick_5">
     <g id="line2d_11">
      <g>
       <use style="fill:#262626;stroke:#262626;" x="90" xlink:href="#mff8d5ed9f9" y="136.32"/>
      </g>
     </g>
     <g id="text_11">
      <!-- 0.2 -->
      <g style="fill:#262626;" transform="translate(63.1 139.898906)scale(0.1 -0.1)">
       <use xlink:href="#ArialMT-30"/>
       <use x="55.615234" xlink:href="#ArialMT-2e"/>
       <use x="83.398438" xlink:href="#ArialMT-32"/>
      </g>
     </g>
    </g>
    <g id="ytick_6">
     <g id="line2d_12">
      <g>
       <use style="fill:#262626;stroke:#262626;" x="90" xlink:href="#mff8d5ed9f9" y="102.72"/>
      </g>
     </g>
     <g id="text_12">
      <!-- 0.4 -->
      <g style="fill:#262626;" transform="translate(63.1 106.298906)scale(0.1 -0.1)">
       <use xlink:href="#ArialMT-30"/>
       <use x="55.615234" xlink:href="#ArialMT-2e"/>
       <use x="83.398438" xlink:href="#ArialMT-34"/>
      </g>
     </g>
    </g>
    <g id="ytick_7">
     <g id="line2d_13">
      <g>
       <use style="fill:#262626;stroke:#262626;" x="90" xlink:href="#mff8d5ed9f9" y="69.12"/>
      </g>
     </g>
     <g id="text_13">
      <!-- 0.6 -->
      <g style="fill:#262626;" transform="translate(63.1 72.698906)scale(0.1 -0.1)">
       <use xlink:href="#ArialMT-30"/>
       <use x="55.615234" xlink:href="#ArialMT-2e"/>
       <use x="83.398438" xlink:href="#ArialMT-36"/>
      </g>
     </g>
    </g>
   </g>
   <g id="line2d_14">
    <path clip-path="url(#pb7bdc41927)" d="M 90 174.385576 
L 90.544922 173.862627 
L 91.089844 173.529375 
L 91.634766 173.457598 
L 92.179688 173.744707 
L 94.359375 175.40584 
L 94.904297 175.749346 
L 95.994141 175.749346 
L 97.083984 175.421221 
L 97.628906 175.564775 
L 98.173828 175.369951 
L 98.71875 175.887773 
L 99.808594 177.446367 
L 101.443359 181.840166 
L 101.988281 183.34749 
L 103.078125 186.895342 
L 104.167969 189.745928 
L 105.257812 191.709551 
L 105.802734 192.473467 
L 106.347656 192.745195 
L 106.892578 192.709307 
L 107.982422 191.827471 
L 109.617188 188.520586 
L 110.707031 185.475176 
L 111.796875 181.96834 
L 112.886719 177.928301 
L 113.976562 174.939287 
L 115.066406 172.770586 
L 115.611328 172.145098 
L 116.15625 171.765703 
L 117.246094 171.857988 
L 117.791016 172.001543 
L 118.335938 171.950273 
L 118.880859 172.386064 
L 119.425781 172.391191 
L 119.970703 172.509111 
L 121.060547 173.575518 
L 122.150391 174.862383 
L 122.695312 175.364824 
L 123.240234 176.308184 
L 123.785156 176.764482 
L 124.875 178.071855 
L 125.419922 178.497393 
L 127.054688 178.979326 
L 128.144531 179.261309 
L 128.689453 179.820146 
L 129.234375 179.99959 
L 130.869141 181.747881 
L 131.958984 181.927324 
L 132.503906 181.804277 
L 133.048828 180.886553 
L 133.59375 180.317461 
L 134.138672 178.953691 
L 135.228516 175.395586 
L 136.863281 168.925371 
L 138.498047 162.357744 
L 139.042969 160.650469 
L 140.132812 157.969072 
L 140.677734 157.328203 
L 141.222656 156.97957 
L 141.767578 156.994951 
L 142.3125 157.456377 
L 142.857422 158.425371 
L 143.402344 159.814775 
L 145.037109 165.439043 
L 147.216797 173.524248 
L 148.306641 176.585039 
L 148.851562 177.55916 
L 149.396484 178.174395 
L 150.486328 179.122881 
L 151.03125 179.271562 
L 151.576172 179.861162 
L 152.121094 179.907305 
L 152.666016 180.455889 
L 153.755859 180.23543 
L 154.300781 179.774004 
L 154.845703 179.004961 
L 155.390625 178.589678 
L 157.570312 174.913652 
L 159.205078 172.878252 
L 159.75 172.550127 
L 160.294922 171.919512 
L 160.839844 171.786211 
L 161.384766 171.324785 
L 162.474609 171.237627 
L 163.564453 172.047686 
L 164.109375 172.652666 
L 166.289062 176.154375 
L 166.833984 177.389971 
L 167.378906 178.317949 
L 169.013672 181.753008 
L 170.648438 184.178057 
L 171.738281 184.972734 
L 172.828125 184.562578 
L 173.373047 184.213945 
L 174.462891 183.070635 
L 175.552734 181.773516 
L 177.1875 178.456377 
L 179.367188 172.416826 
L 180.457031 170.125078 
L 181.001953 169.356035 
L 182.091797 168.79207 
L 183.726562 169.571367 
L 184.271484 169.945635 
L 185.361328 170.094316 
L 185.90625 169.791826 
L 186.996094 169.550859 
L 187.541016 169.033037 
L 188.085938 168.863848 
L 188.630859 168.504961 
L 189.175781 168.474199 
L 190.265625 169.007402 
L 190.810547 169.755937 
L 191.900391 171.863115 
L 193.535156 176.554277 
L 195.169922 181.235186 
L 196.259766 183.624346 
L 197.349609 185.521318 
L 197.894531 186.20833 
L 198.439453 186.664629 
L 198.984375 186.741533 
L 199.529297 186.556963 
L 200.074219 186.182695 
L 200.619141 185.157305 
L 201.708984 181.881182 
L 202.798828 178.292314 
L 203.888672 174.626543 
L 205.523438 170.371172 
L 206.613281 168.105059 
L 208.792969 165.695391 
L 209.882812 165.187822 
L 210.427734 165.116045 
L 210.972656 165.654375 
L 211.517578 165.546709 
L 212.0625 166.131182 
L 212.607422 166.443926 
L 213.697266 167.602617 
L 215.332031 169.038164 
L 215.876953 169.361162 
L 216.421875 169.479082 
L 217.511719 170.248125 
L 218.056641 170.319902 
L 218.601562 171.04793 
L 219.146484 171.411943 
L 219.691406 171.929766 
L 220.236328 172.744951 
L 220.78125 173.278154 
L 221.326172 174.349687 
L 222.416016 175.621172 
L 222.960938 176.12874 
L 224.050781 175.933916 
L 224.595703 175.421221 
L 225.685547 173.457598 
L 227.865234 165.910723 
L 230.589844 154.549395 
L 231.679688 151.07332 
L 232.224609 149.919756 
L 232.769531 149.268633 
L 233.314453 149.150713 
L 233.859375 149.714678 
L 234.404297 150.529863 
L 238.763672 163.536943 
L 240.943359 168.838213 
L 242.578125 171.658037 
L 243.667969 172.49373 
L 244.212891 172.673174 
L 244.757812 172.719316 
L 245.302734 172.186113 
L 245.847656 172.232256 
L 246.392578 171.576006 
L 246.9375 171.242754 
L 249.117188 168.263994 
L 251.841797 164.55208 
L 252.931641 164.008623 
L 253.476562 164.116289 
L 254.566406 163.788164 
L 255.111328 164.24959 
L 255.65625 164.429033 
L 256.201172 165.136553 
L 256.746094 165.649248 
L 257.835938 167.612871 
L 260.560547 173.698564 
L 262.195312 175.954424 
L 262.740234 176.53377 
L 263.285156 176.877275 
L 263.830078 177.472002 
L 264.919922 177.769365 
L 265.464844 177.825762 
L 266.554688 176.620928 
L 267.644531 174.39583 
L 269.279297 169.807207 
L 270.369141 166.674639 
L 271.458984 164.505937 
L 272.548828 163.280596 
L 273.09375 163.12166 
L 273.638672 162.7679 
L 274.183594 162.675615 
L 275.273438 162.834551 
L 276.363281 162.81917 
L 277.453125 162.260332 
L 279.087891 160.701738 
L 279.632812 160.517168 
L 280.177734 160.168535 
L 280.722656 160.240312 
L 282.357422 161.798906 
L 282.902344 162.475664 
L 285.082031 166.715654 
L 287.261719 172.914141 
L 287.806641 174.800859 
L 288.896484 177.595049 
L 289.986328 179.368975 
L 291.076172 179.066484 
L 292.710938 176.108232 
L 293.800781 172.842363 
L 294.345703 171.576006 
L 294.890625 169.807207 
L 295.980469 166.920732 
L 297.615234 162.619219 
L 298.705078 160.363359 
L 300.339844 158.15877 
L 301.429688 157.528154 
L 301.974609 157.856279 
L 302.519531 157.953691 
L 303.609375 158.88167 
L 304.699219 159.430254 
L 305.244141 159.784014 
L 305.789062 160.332598 
L 306.333984 160.409502 
L 306.878906 160.624834 
L 307.423828 160.573564 
L 307.96875 160.932451 
L 308.513672 160.927324 
L 309.603516 161.522051 
L 310.693359 162.962725 
L 311.783203 164.941729 
L 313.417969 168.033281 
L 314.507812 169.207354 
L 315.052734 169.248369 
L 315.597656 169.427812 
L 316.142578 169.120195 
L 317.232422 168.079424 
L 317.777344 166.848955 
L 318.867188 163.198564 
L 319.957031 158.64583 
L 321.046875 153.185625 
L 322.136719 148.248369 
L 323.226562 145.392656 
L 323.771484 144.413408 
L 324.316406 144.075029 
L 324.861328 143.880205 
L 325.951172 144.649248 
L 326.496094 145.45418 
L 327.585938 147.525469 
L 329.765625 153.918779 
L 330.310547 155.769609 
L 332.490234 161.178545 
L 333.580078 163.434404 
L 335.214844 165.592852 
L 335.759766 166.059404 
L 336.304688 166.04915 
L 336.849609 166.259355 
L 337.394531 166.069658 
L 337.939453 165.705645 
L 339.574219 164.018877 
L 340.119141 163.706133 
L 341.208984 162.219316 
L 341.753906 161.634844 
L 343.388672 159.425127 
L 344.478516 158.230547 
L 345.023438 157.963945 
L 346.113281 157.943437 
L 347.203125 158.938066 
L 347.748047 159.650713 
L 349.382812 162.58333 
L 350.472656 164.264971 
L 351.5625 166.367021 
L 352.107422 167.24373 
L 353.197266 169.581621 
L 355.376953 173.334551 
L 355.921875 173.657549 
L 357.011719 173.596025 
L 357.556641 173.283281 
L 358.101562 172.760332 
L 359.191406 170.560869 
L 360.826172 165.685137 
L 362.460938 161.932207 
L 363.550781 160.604326 
L 364.095703 160.594072 
L 365.185547 160.178789 
L 365.730469 160.12752 
L 366.275391 159.850664 
L 366.820312 159.901934 
L 367.910156 159.040605 
L 368.455078 158.389482 
L 369.544922 157.897295 
L 370.634766 157.379473 
L 371.179688 157.3846 
L 372.269531 157.56917 
L 372.814453 157.471758 
L 373.904297 157.651201 
L 375.539062 159.609697 
L 377.173828 164.464922 
L 379.898438 173.62166 
L 380.988281 175.703203 
L 381.533203 176.138994 
L 382.078125 176.385088 
L 382.623047 176.256914 
L 383.167969 175.939043 
L 384.257812 174.549639 
L 384.802734 173.678057 
L 386.982422 168.243486 
L 390.251953 159.77376 
L 390.796875 158.866289 
L 391.886719 157.497393 
L 392.431641 157.574297 
L 392.976562 157.251299 
L 394.066406 157.661455 
L 394.611328 157.825518 
L 395.15625 158.184404 
L 395.701172 158.34334 
L 396.791016 157.98958 
L 397.880859 157.728105 
L 398.970703 158.210039 
L 399.515625 158.163896 
L 400.605469 159.163652 
L 402.240234 161.091387 
L 402.785156 161.778398 
L 406.054688 168.30501 
L 407.144531 169.863604 
L 407.689453 170.145586 
L 408.234375 169.550859 
L 408.779297 168.776689 
L 409.324219 167.371904 
L 409.869141 165.592852 
L 411.503906 158.784258 
L 412.59375 153.406084 
L 413.138672 151.442461 
L 413.683594 149.03792 
L 414.773438 145.607988 
L 415.318359 144.300615 
L 415.863281 143.326494 
L 416.408203 142.89583 
L 416.953125 142.798418 
L 418.042969 143.78792 
L 418.587891 144.582598 
L 419.132812 145.802812 
L 419.677734 146.653887 
L 422.402344 153.898271 
L 424.582031 159.922441 
L 425.126953 161.168291 
L 426.216797 163.162676 
L 426.761719 163.460039 
L 427.306641 163.977861 
L 427.851562 163.849687 
L 428.396484 164.398271 
L 428.941406 164.408525 
L 429.486328 164.628984 
L 430.03125 164.562334 
L 430.576172 164.634111 
L 431.121094 164.19832 
L 432.755859 162.024492 
L 433.300781 160.973467 
L 434.935547 158.594561 
L 436.025391 157.666582 
L 436.570312 157.599932 
L 437.115234 157.307695 
L 437.660156 157.425615 
L 438.205078 157.3846 
L 438.75 157.733232 
L 439.294922 158.363848 
L 439.839844 158.671465 
L 440.384766 159.317461 
L 442.019531 162.014238 
L 443.654297 165.157061 
L 445.833984 170.27376 
L 446.923828 172.488604 
L 447.46875 172.991045 
L 448.013672 173.237139 
L 448.558594 173.139727 
L 449.103516 172.688555 
L 449.648438 171.637529 
L 451.828125 166.531084 
L 452.373047 165.398027 
L 452.917969 164.700762 
L 453.462891 163.762529 
L 455.097656 162.009111 
L 455.642578 161.593828 
L 456.1875 160.978594 
L 456.732422 160.619707 
L 457.277344 160.019854 
L 458.367188 159.30208 
L 459.457031 159.250811 
L 460.001953 159.030352 
L 460.546875 159.076494 
L 461.636719 158.389482 
L 462.726562 157.584551 
L 463.271484 157.005205 
L 464.361328 156.266924 
L 464.90625 156.220781 
L 465.451172 156.333574 
L 465.996094 156.620684 
L 466.541016 157.307695 
L 467.085938 158.76375 
L 467.630859 159.681475 
L 469.265625 164.798174 
L 470.355469 168.807451 
L 471.445312 172.19124 
L 471.990234 173.483232 
L 472.535156 174.467607 
L 473.625 175.600664 
L 474.169922 175.841631 
L 475.259766 175.662187 
L 475.804688 175.282793 
L 476.349609 174.759844 
L 476.894531 173.616533 
L 477.439453 172.770586 
L 477.984375 171.560625 
L 481.253906 161.834795 
L 482.34375 160.414629 
L 483.433594 159.558428 
L 483.978516 159.42 
L 484.523438 159.148271 
L 485.068359 159.020098 
L 486.703125 158.271562 
L 487.792969 158.517656 
L 488.337891 158.307451 
L 488.882812 158.594561 
L 489.972656 158.681719 
L 490.517578 158.425371 
L 492.152344 158.379229 
L 492.697266 158.804766 
L 493.787109 160.276201 
L 494.332031 161.3221 
L 495.966797 166.04915 
L 497.056641 168.966387 
L 497.601562 169.945635 
L 498.146484 171.196611 
L 498.691406 171.611895 
L 499.78125 171.699053 
L 500.326172 170.986406 
L 500.871094 169.98665 
L 501.416016 168.438311 
L 503.050781 161.896318 
L 505.230469 152.339678 
L 506.320312 148.750811 
L 507.410156 146.305254 
L 508.5 145.295244 
L 509.044922 145.326006 
L 509.589844 145.074785 
L 510.134766 145.797686 
L 510.679688 146.310381 
L 512.314453 150.2325 
L 513.404297 153.416338 
L 513.949219 155.06209 
L 515.039062 157.471758 
L 515.583984 159.255937 
L 516.673828 161.332354 
L 517.21875 162.619219 
L 518.853516 165.551836 
L 520.488281 166.900225 
L 521.578125 167.084795 
L 522.667969 166.633623 
L 523.212891 165.869707 
L 523.757812 165.346758 
L 524.847656 163.803545 
L 525.392578 163.347246 
L 525.9375 162.183428 
L 526.482422 161.855303 
L 527.027344 161.08626 
L 528.117188 160.317217 
L 530.296875 160.61458 
L 530.841797 160.717119 
L 531.386719 161.255449 
L 532.476562 161.527178 
L 533.566406 163.049883 
L 534.65625 165.439043 
L 536.835938 172.206621 
L 537.925781 174.805986 
L 538.470703 175.334062 
L 539.560547 175.621172 
L 540.105469 175.40584 
L 541.740234 173.580645 
L 545.009766 168.115312 
L 545.554688 167.002764 
L 547.734375 164.321367 
L 548.824219 163.906084 
L 549.914062 163.670244 
L 550.458984 163.854814 
L 551.548828 163.506182 
L 552.09375 163.183184 
L 553.183594 162.152666 
L 553.728516 161.598955 
L 554.273438 160.824785 
L 554.818359 160.527422 
L 555.363281 159.686602 
L 555.908203 159.194414 
L 556.998047 159.102129 
L 557.542969 159.553301 
L 558.087891 160.368486 
L 559.177734 163.142168 
L 560.267578 166.269609 
L 560.8125 168.105059 
L 561.357422 169.279131 
L 561.902344 171.155596 
L 562.992188 173.816484 
L 564.082031 176.651689 
L 565.171875 179.04085 
L 565.716797 179.891924 
L 566.261719 180.30208 
L 566.806641 180.425127 
L 567.351562 180.194414 
L 567.896484 179.384355 
L 568.986328 176.892656 
L 570.621094 172.442461 
L 571.710938 169.80208 
L 572.255859 168.822832 
L 572.800781 167.484697 
L 574.435547 164.844316 
L 575.525391 163.577959 
L 576.070312 163.613848 
L 577.160156 163.378008 
L 577.705078 163.485674 
L 579.339844 162.834551 
L 579.884766 162.511553 
L 580.974609 161.563066 
L 582.064453 160.660723 
L 582.609375 160.424883 
L 583.154297 160.337725 
L 583.699219 160.588945 
L 584.244141 160.96834 
L 585.333984 162.696123 
L 585.878906 163.731768 
L 586.96875 166.725908 
L 589.148438 172.991045 
L 590.238281 175.011064 
L 591.328125 175.154619 
L 592.417969 173.421709 
L 593.507812 170.232744 
L 594.597656 166.320879 
L 597.867188 152.79085 
L 598.957031 149.663408 
L 599.501953 148.940508 
L 600.591797 148.176592 
L 602.226562 149.186602 
L 602.771484 149.904375 
L 604.40625 152.903643 
L 604.951172 154.149492 
L 605.496094 154.898027 
L 607.675781 160.568437 
L 609.855469 164.967363 
L 610.945312 166.951494 
L 611.490234 167.71541 
L 612.580078 168.761309 
L 613.125 168.638262 
L 614.214844 168.007646 
L 615.304688 166.531084 
L 615.849609 165.618486 
L 617.484375 163.936846 
L 618.574219 163.480547 
L 619.119141 163.039629 
L 619.664062 162.834551 
L 620.208984 162.09627 
L 620.753906 161.814287 
L 621.298828 161.229814 
L 622.933594 160.250566 
L 623.478516 160.471025 
L 624.023438 160.978594 
L 624.568359 161.97835 
L 625.658203 164.31624 
L 626.748047 167.700029 
L 627.837891 170.663408 
L 628.382812 172.011797 
L 629.472656 173.872881 
L 630.017578 174.56502 
L 630.5625 175.067461 
L 631.107422 175.262285 
L 631.652344 175.22127 
L 632.742188 174.606035 
L 633.287109 174.011309 
L 634.921875 171.504229 
L 635.466797 170.565996 
L 636.556641 168.37166 
L 637.646484 166.669512 
L 638.191406 166.141436 
L 638.736328 165.336504 
L 639.28125 164.97249 
L 639.826172 164.808428 
L 641.460938 164.839189 
L 642.550781 164.72127 
L 643.640625 163.393389 
L 644.185547 162.51668 
L 645.820312 159.307207 
L 646.365234 158.533037 
L 646.910156 157.994707 
L 647.455078 157.63582 
L 647.455078 157.63582 
" style="fill:none;stroke:#4c72b0;stroke-linecap:round;stroke-width:1.75;"/>
   </g>
   <g id="patch_3">
    <path d="M 90 270.72 
L 90 69.12 
" style="fill:none;stroke:#262626;stroke-linecap:square;stroke-linejoin:miter;stroke-width:1.25;"/>
   </g>
   <g id="patch_4">
    <path d="M 90 270.72 
L 648 270.72 
" style="fill:none;stroke:#262626;stroke-linecap:square;stroke-linejoin:miter;stroke-width:1.25;"/>
   </g>
  </g>
  <g id="axes_2">
   <g id="patch_5">
    <path d="M 90 512.64 
L 648 512.64 
L 648 311.04 
L 90 311.04 
z
" style="fill:#ffffff;"/>
   </g>
   <g id="matplotlib.axis_3">
    <g id="xtick_7">
     <g id="line2d_15">
      <g>
       <use style="fill:#262626;stroke:#262626;" x="218.197478" xlink:href="#me312e17f1a" y="512.64"/>
      </g>
     </g>
     <g id="text_14">
      <!-- $\mathdefault{10^{2}}$ -->
      <g style="fill:#262626;" transform="translate(210.347478 535.9525)scale(0.1 -0.1)">
       <use transform="translate(0 0.99375)" xlink:href="#ArialMT-31"/>
       <use transform="translate(55.615234 0.99375)" xlink:href="#ArialMT-30"/>
       <use transform="translate(112.972813 70.6875)scale(0.7)" xlink:href="#ArialMT-32"/>
      </g>
     </g>
    </g>
    <g id="xtick_8">
     <g id="line2d_16">
      <g>
       <use style="fill:#262626;stroke:#262626;" x="401.606604" xlink:href="#me312e17f1a" y="512.64"/>
      </g>
     </g>
     <g id="text_15">
      <!-- $\mathdefault{10^{3}}$ -->
      <defs>
       <path d="M 4.203125 18.890625 
L 12.984375 20.0625 
Q 14.5 12.59375 18.140625 9.296875 
Q 21.78125 6 27 6 
Q 33.203125 6 37.46875 10.296875 
Q 41.75 14.59375 41.75 20.953125 
Q 41.75 27 37.796875 30.921875 
Q 33.84375 34.859375 27.734375 34.859375 
Q 25.25 34.859375 21.53125 33.890625 
L 22.515625 41.609375 
Q 23.390625 41.5 23.921875 41.5 
Q 29.546875 41.5 34.03125 44.421875 
Q 38.53125 47.359375 38.53125 53.46875 
Q 38.53125 58.296875 35.25 61.46875 
Q 31.984375 64.65625 26.8125 64.65625 
Q 21.6875 64.65625 18.265625 61.421875 
Q 14.84375 58.203125 13.875 51.765625 
L 5.078125 53.328125 
Q 6.6875 62.15625 12.390625 67.015625 
Q 18.109375 71.875 26.609375 71.875 
Q 32.46875 71.875 37.390625 69.359375 
Q 42.328125 66.84375 44.9375 62.5 
Q 47.5625 58.15625 47.5625 53.265625 
Q 47.5625 48.640625 45.0625 44.828125 
Q 42.578125 41.015625 37.703125 38.765625 
Q 44.046875 37.3125 47.5625 32.6875 
Q 51.078125 28.078125 51.078125 21.140625 
Q 51.078125 11.765625 44.234375 5.25 
Q 37.40625 -1.265625 26.953125 -1.265625 
Q 17.53125 -1.265625 11.296875 4.34375 
Q 5.078125 9.96875 4.203125 18.890625 
z
" id="ArialMT-33"/>
      </defs>
      <g style="fill:#262626;" transform="translate(393.756604 535.9525)scale(0.1 -0.1)">
       <use transform="translate(0 0.99375)" xlink:href="#ArialMT-31"/>
       <use transform="translate(55.615234 0.99375)" xlink:href="#ArialMT-30"/>
       <use transform="translate(112.972813 70.6875)scale(0.7)" xlink:href="#ArialMT-33"/>
      </g>
     </g>
    </g>
    <g id="xtick_9">
     <g id="line2d_17">
      <g>
       <use style="fill:#262626;stroke:#262626;" x="585.01573" xlink:href="#me312e17f1a" y="512.64"/>
      </g>
     </g>
     <g id="text_16">
      <!-- $\mathdefault{10^{4}}$ -->
      <g style="fill:#262626;" transform="translate(577.16573 535.8525)scale(0.1 -0.1)">
       <use transform="translate(0 0.201563)" xlink:href="#ArialMT-31"/>
       <use transform="translate(55.615234 0.201563)" xlink:href="#ArialMT-30"/>
       <use transform="translate(112.972813 69.895313)scale(0.7)" xlink:href="#ArialMT-34"/>
      </g>
     </g>
    </g>
    <g id="xtick_10">
     <g id="line2d_18">
      <defs>
       <path d="M 0 0 
L 0 3 
" id="m0dc37b5e7a" style="stroke:#262626;stroke-width:0.5;"/>
      </defs>
      <g>
       <use style="fill:#262626;stroke:#262626;stroke-width:0.5;" x="90" xlink:href="#m0dc37b5e7a" y="512.64"/>
      </g>
     </g>
    </g>
    <g id="xtick_11">
     <g id="line2d_19">
      <g>
       <use style="fill:#262626;stroke:#262626;stroke-width:0.5;" x="122.296744" xlink:href="#m0dc37b5e7a" y="512.64"/>
      </g>
     </g>
    </g>
    <g id="xtick_12">
     <g id="line2d_20">
      <g>
       <use style="fill:#262626;stroke:#262626;stroke-width:0.5;" x="145.211648" xlink:href="#m0dc37b5e7a" y="512.64"/>
      </g>
     </g>
    </g>
    <g id="xtick_13">
     <g id="line2d_21">
      <g>
       <use style="fill:#262626;stroke:#262626;stroke-width:0.5;" x="162.985829" xlink:href="#m0dc37b5e7a" y="512.64"/>
      </g>
     </g>
    </g>
    <g id="xtick_14">
     <g id="line2d_22">
      <g>
       <use style="fill:#262626;stroke:#262626;stroke-width:0.5;" x="177.508392" xlink:href="#m0dc37b5e7a" y="512.64"/>
      </g>
     </g>
    </g>
    <g id="xtick_15">
     <g id="line2d_23">
      <g>
       <use style="fill:#262626;stroke:#262626;stroke-width:0.5;" x="189.787045" xlink:href="#m0dc37b5e7a" y="512.64"/>
      </g>
     </g>
    </g>
    <g id="xtick_16">
     <g id="line2d_24">
      <g>
       <use style="fill:#262626;stroke:#262626;stroke-width:0.5;" x="200.423297" xlink:href="#m0dc37b5e7a" y="512.64"/>
      </g>
     </g>
    </g>
    <g id="xtick_17">
     <g id="line2d_25">
      <g>
       <use style="fill:#262626;stroke:#262626;stroke-width:0.5;" x="209.805136" xlink:href="#m0dc37b5e7a" y="512.64"/>
      </g>
     </g>
    </g>
    <g id="xtick_18">
     <g id="line2d_26">
      <g>
       <use style="fill:#262626;stroke:#262626;stroke-width:0.5;" x="273.409126" xlink:href="#m0dc37b5e7a" y="512.64"/>
      </g>
     </g>
    </g>
    <g id="xtick_19">
     <g id="line2d_27">
      <g>
       <use style="fill:#262626;stroke:#262626;stroke-width:0.5;" x="305.70587" xlink:href="#m0dc37b5e7a" y="512.64"/>
      </g>
     </g>
    </g>
    <g id="xtick_20">
     <g id="line2d_28">
      <g>
       <use style="fill:#262626;stroke:#262626;stroke-width:0.5;" x="328.620775" xlink:href="#m0dc37b5e7a" y="512.64"/>
      </g>
     </g>
    </g>
    <g id="xtick_21">
     <g id="line2d_29">
      <g>
       <use style="fill:#262626;stroke:#262626;stroke-width:0.5;" x="346.394955" xlink:href="#m0dc37b5e7a" y="512.64"/>
      </g>
     </g>
    </g>
    <g id="xtick_22">
     <g id="line2d_30">
      <g>
       <use style="fill:#262626;stroke:#262626;stroke-width:0.5;" x="360.917518" xlink:href="#m0dc37b5e7a" y="512.64"/>
      </g>
     </g>
    </g>
    <g id="xtick_23">
     <g id="line2d_31">
      <g>
       <use style="fill:#262626;stroke:#262626;stroke-width:0.5;" x="373.196171" xlink:href="#m0dc37b5e7a" y="512.64"/>
      </g>
     </g>
    </g>
    <g id="xtick_24">
     <g id="line2d_32">
      <g>
       <use style="fill:#262626;stroke:#262626;stroke-width:0.5;" x="383.832423" xlink:href="#m0dc37b5e7a" y="512.64"/>
      </g>
     </g>
    </g>
    <g id="xtick_25">
     <g id="line2d_33">
      <g>
       <use style="fill:#262626;stroke:#262626;stroke-width:0.5;" x="393.214262" xlink:href="#m0dc37b5e7a" y="512.64"/>
      </g>
     </g>
    </g>
    <g id="xtick_26">
     <g id="line2d_34">
      <g>
       <use style="fill:#262626;stroke:#262626;stroke-width:0.5;" x="456.818252" xlink:href="#m0dc37b5e7a" y="512.64"/>
      </g>
     </g>
    </g>
    <g id="xtick_27">
     <g id="line2d_35">
      <g>
       <use style="fill:#262626;stroke:#262626;stroke-width:0.5;" x="489.114996" xlink:href="#m0dc37b5e7a" y="512.64"/>
      </g>
     </g>
    </g>
    <g id="xtick_28">
     <g id="line2d_36">
      <g>
       <use style="fill:#262626;stroke:#262626;stroke-width:0.5;" x="512.029901" xlink:href="#m0dc37b5e7a" y="512.64"/>
      </g>
     </g>
    </g>
    <g id="xtick_29">
     <g id="line2d_37">
      <g>
       <use style="fill:#262626;stroke:#262626;stroke-width:0.5;" x="529.804081" xlink:href="#m0dc37b5e7a" y="512.64"/>
      </g>
     </g>
    </g>
    <g id="xtick_30">
     <g id="line2d_38">
      <g>
       <use style="fill:#262626;stroke:#262626;stroke-width:0.5;" x="544.326645" xlink:href="#m0dc37b5e7a" y="512.64"/>
      </g>
     </g>
    </g>
    <g id="xtick_31">
     <g id="line2d_39">
      <g>
       <use style="fill:#262626;stroke:#262626;stroke-width:0.5;" x="556.605297" xlink:href="#m0dc37b5e7a" y="512.64"/>
      </g>
     </g>
    </g>
    <g id="xtick_32">
     <g id="line2d_40">
      <g>
       <use style="fill:#262626;stroke:#262626;stroke-width:0.5;" x="567.241549" xlink:href="#m0dc37b5e7a" y="512.64"/>
      </g>
     </g>
    </g>
    <g id="xtick_33">
     <g id="line2d_41">
      <g>
       <use style="fill:#262626;stroke:#262626;stroke-width:0.5;" x="576.623389" xlink:href="#m0dc37b5e7a" y="512.64"/>
      </g>
     </g>
    </g>
    <g id="xtick_34">
     <g id="line2d_42">
      <g>
       <use style="fill:#262626;stroke:#262626;stroke-width:0.5;" x="640.227378" xlink:href="#m0dc37b5e7a" y="512.64"/>
      </g>
     </g>
    </g>
   </g>
   <g id="matplotlib.axis_4">
    <g id="ytick_8">
     <g id="line2d_43">
      <g>
       <use style="fill:#262626;stroke:#262626;" x="90" xlink:href="#mff8d5ed9f9" y="512.64"/>
      </g>
     </g>
     <g id="text_17">
      <!-- $\mathdefault{10^{-5}}$ -->
      <defs>
       <path d="M 4.15625 18.75 
L 13.375 19.53125 
Q 14.40625 12.796875 18.140625 9.390625 
Q 21.875 6 27.15625 6 
Q 33.5 6 37.890625 10.78125 
Q 42.28125 15.578125 42.28125 23.484375 
Q 42.28125 31 38.0625 35.34375 
Q 33.84375 39.703125 27 39.703125 
Q 22.75 39.703125 19.328125 37.765625 
Q 15.921875 35.84375 13.96875 32.765625 
L 5.71875 33.84375 
L 12.640625 70.609375 
L 48.25 70.609375 
L 48.25 62.203125 
L 19.671875 62.203125 
L 15.828125 42.96875 
Q 22.265625 47.46875 29.34375 47.46875 
Q 38.71875 47.46875 45.15625 40.96875 
Q 51.609375 34.46875 51.609375 24.265625 
Q 51.609375 14.546875 45.953125 7.46875 
Q 39.0625 -1.21875 27.15625 -1.21875 
Q 17.390625 -1.21875 11.203125 4.25 
Q 5.03125 9.71875 4.15625 18.75 
z
" id="ArialMT-35"/>
      </defs>
      <g style="fill:#262626;" transform="translate(57.2 517.74625)scale(0.1 -0.1)">
       <use transform="translate(0 0.879688)" xlink:href="#ArialMT-31"/>
       <use transform="translate(55.615234 0.879688)" xlink:href="#ArialMT-30"/>
       <use transform="translate(112.972813 70.573438)scale(0.7)" xlink:href="#ArialMT-2212"/>
       <use transform="translate(153.851719 70.573438)scale(0.7)" xlink:href="#ArialMT-35"/>
      </g>
     </g>
    </g>
    <g id="ytick_9">
     <g id="line2d_44">
      <g>
       <use style="fill:#262626;stroke:#262626;" x="90" xlink:href="#mff8d5ed9f9" y="465.767507"/>
      </g>
     </g>
     <g id="text_18">
      <!-- $\mathdefault{10^{-4}}$ -->
      <g style="fill:#262626;" transform="translate(57.2 470.873757)scale(0.1 -0.1)">
       <use transform="translate(0 0.201563)" xlink:href="#ArialMT-31"/>
       <use transform="translate(55.615234 0.201563)" xlink:href="#ArialMT-30"/>
       <use transform="translate(112.972813 69.895313)scale(0.7)" xlink:href="#ArialMT-2212"/>
       <use transform="translate(153.851719 69.895313)scale(0.7)" xlink:href="#ArialMT-34"/>
      </g>
     </g>
    </g>
    <g id="ytick_10">
     <g id="line2d_45">
      <g>
       <use style="fill:#262626;stroke:#262626;" x="90" xlink:href="#mff8d5ed9f9" y="418.895013"/>
      </g>
     </g>
     <g id="text_19">
      <!-- $\mathdefault{10^{-3}}$ -->
      <g style="fill:#262626;" transform="translate(57.2 424.051263)scale(0.1 -0.1)">
       <use transform="translate(0 0.99375)" xlink:href="#ArialMT-31"/>
       <use transform="translate(55.615234 0.99375)" xlink:href="#ArialMT-30"/>
       <use transform="translate(112.972813 70.6875)scale(0.7)" xlink:href="#ArialMT-2212"/>
       <use transform="translate(153.851719 70.6875)scale(0.7)" xlink:href="#ArialMT-33"/>
      </g>
     </g>
    </g>
    <g id="ytick_11">
     <g id="line2d_46">
      <g>
       <use style="fill:#262626;stroke:#262626;" x="90" xlink:href="#mff8d5ed9f9" y="372.02252"/>
      </g>
     </g>
     <g id="text_20">
      <!-- $\mathdefault{10^{-2}}$ -->
      <g style="fill:#262626;" transform="translate(57.2 377.17877)scale(0.1 -0.1)">
       <use transform="translate(0 0.99375)" xlink:href="#ArialMT-31"/>
       <use transform="translate(55.615234 0.99375)" xlink:href="#ArialMT-30"/>
       <use transform="translate(112.972813 70.6875)scale(0.7)" xlink:href="#ArialMT-2212"/>
       <use transform="translate(153.851719 70.6875)scale(0.7)" xlink:href="#ArialMT-32"/>
      </g>
     </g>
    </g>
    <g id="ytick_12">
     <g id="line2d_47">
      <g>
       <use style="fill:#262626;stroke:#262626;" x="90" xlink:href="#mff8d5ed9f9" y="325.150026"/>
      </g>
     </g>
     <g id="text_21">
      <!-- $\mathdefault{10^{-1}}$ -->
      <g style="fill:#262626;" transform="translate(57.2 330.306276)scale(0.1 -0.1)">
       <use transform="translate(0 0.99375)" xlink:href="#ArialMT-31"/>
       <use transform="translate(55.615234 0.99375)" xlink:href="#ArialMT-30"/>
       <use transform="translate(112.972813 70.6875)scale(0.7)" xlink:href="#ArialMT-2212"/>
       <use transform="translate(153.851719 70.6875)scale(0.7)" xlink:href="#ArialMT-31"/>
      </g>
     </g>
    </g>
    <g id="ytick_13">
     <g id="line2d_48">
      <defs>
       <path d="M 0 0 
L -3 0 
" id="m145f40e33d" style="stroke:#262626;stroke-width:0.5;"/>
      </defs>
      <g>
       <use style="fill:#262626;stroke:#262626;stroke-width:0.5;" x="90" xlink:href="#m145f40e33d" y="498.529974"/>
      </g>
     </g>
    </g>
    <g id="ytick_14">
     <g id="line2d_49">
      <g>
       <use style="fill:#262626;stroke:#262626;stroke-width:0.5;" x="90" xlink:href="#m145f40e33d" y="490.276137"/>
      </g>
     </g>
    </g>
    <g id="ytick_15">
     <g id="line2d_50">
      <g>
       <use style="fill:#262626;stroke:#262626;stroke-width:0.5;" x="90" xlink:href="#m145f40e33d" y="484.419947"/>
      </g>
     </g>
    </g>
    <g id="ytick_16">
     <g id="line2d_51">
      <g>
       <use style="fill:#262626;stroke:#262626;stroke-width:0.5;" x="90" xlink:href="#m145f40e33d" y="479.877533"/>
      </g>
     </g>
    </g>
    <g id="ytick_17">
     <g id="line2d_52">
      <g>
       <use style="fill:#262626;stroke:#262626;stroke-width:0.5;" x="90" xlink:href="#m145f40e33d" y="476.166111"/>
      </g>
     </g>
    </g>
    <g id="ytick_18">
     <g id="line2d_53">
      <g>
       <use style="fill:#262626;stroke:#262626;stroke-width:0.5;" x="90" xlink:href="#m145f40e33d" y="473.028148"/>
      </g>
     </g>
    </g>
    <g id="ytick_19">
     <g id="line2d_54">
      <g>
       <use style="fill:#262626;stroke:#262626;stroke-width:0.5;" x="90" xlink:href="#m145f40e33d" y="470.309921"/>
      </g>
     </g>
    </g>
    <g id="ytick_20">
     <g id="line2d_55">
      <g>
       <use style="fill:#262626;stroke:#262626;stroke-width:0.5;" x="90" xlink:href="#m145f40e33d" y="467.912274"/>
      </g>
     </g>
    </g>
    <g id="ytick_21">
     <g id="line2d_56">
      <g>
       <use style="fill:#262626;stroke:#262626;stroke-width:0.5;" x="90" xlink:href="#m145f40e33d" y="451.65748"/>
      </g>
     </g>
    </g>
    <g id="ytick_22">
     <g id="line2d_57">
      <g>
       <use style="fill:#262626;stroke:#262626;stroke-width:0.5;" x="90" xlink:href="#m145f40e33d" y="443.403644"/>
      </g>
     </g>
    </g>
    <g id="ytick_23">
     <g id="line2d_58">
      <g>
       <use style="fill:#262626;stroke:#262626;stroke-width:0.5;" x="90" xlink:href="#m145f40e33d" y="437.547454"/>
      </g>
     </g>
    </g>
    <g id="ytick_24">
     <g id="line2d_59">
      <g>
       <use style="fill:#262626;stroke:#262626;stroke-width:0.5;" x="90" xlink:href="#m145f40e33d" y="433.00504"/>
      </g>
     </g>
    </g>
    <g id="ytick_25">
     <g id="line2d_60">
      <g>
       <use style="fill:#262626;stroke:#262626;stroke-width:0.5;" x="90" xlink:href="#m145f40e33d" y="429.293617"/>
      </g>
     </g>
    </g>
    <g id="ytick_26">
     <g id="line2d_61">
      <g>
       <use style="fill:#262626;stroke:#262626;stroke-width:0.5;" x="90" xlink:href="#m145f40e33d" y="426.155654"/>
      </g>
     </g>
    </g>
    <g id="ytick_27">
     <g id="line2d_62">
      <g>
       <use style="fill:#262626;stroke:#262626;stroke-width:0.5;" x="90" xlink:href="#m145f40e33d" y="423.437427"/>
      </g>
     </g>
    </g>
    <g id="ytick_28">
     <g id="line2d_63">
      <g>
       <use style="fill:#262626;stroke:#262626;stroke-width:0.5;" x="90" xlink:href="#m145f40e33d" y="421.039781"/>
      </g>
     </g>
    </g>
    <g id="ytick_29">
     <g id="line2d_64">
      <g>
       <use style="fill:#262626;stroke:#262626;stroke-width:0.5;" x="90" xlink:href="#m145f40e33d" y="404.784987"/>
      </g>
     </g>
    </g>
    <g id="ytick_30">
     <g id="line2d_65">
      <g>
       <use style="fill:#262626;stroke:#262626;stroke-width:0.5;" x="90" xlink:href="#m145f40e33d" y="396.53115"/>
      </g>
     </g>
    </g>
    <g id="ytick_31">
     <g id="line2d_66">
      <g>
       <use style="fill:#262626;stroke:#262626;stroke-width:0.5;" x="90" xlink:href="#m145f40e33d" y="390.67496"/>
      </g>
     </g>
    </g>
    <g id="ytick_32">
     <g id="line2d_67">
      <g>
       <use style="fill:#262626;stroke:#262626;stroke-width:0.5;" x="90" xlink:href="#m145f40e33d" y="386.132546"/>
      </g>
     </g>
    </g>
    <g id="ytick_33">
     <g id="line2d_68">
      <g>
       <use style="fill:#262626;stroke:#262626;stroke-width:0.5;" x="90" xlink:href="#m145f40e33d" y="382.421124"/>
      </g>
     </g>
    </g>
    <g id="ytick_34">
     <g id="line2d_69">
      <g>
       <use style="fill:#262626;stroke:#262626;stroke-width:0.5;" x="90" xlink:href="#m145f40e33d" y="379.283161"/>
      </g>
     </g>
    </g>
    <g id="ytick_35">
     <g id="line2d_70">
      <g>
       <use style="fill:#262626;stroke:#262626;stroke-width:0.5;" x="90" xlink:href="#m145f40e33d" y="376.564934"/>
      </g>
     </g>
    </g>
    <g id="ytick_36">
     <g id="line2d_71">
      <g>
       <use style="fill:#262626;stroke:#262626;stroke-width:0.5;" x="90" xlink:href="#m145f40e33d" y="374.167288"/>
      </g>
     </g>
    </g>
    <g id="ytick_37">
     <g id="line2d_72">
      <g>
       <use style="fill:#262626;stroke:#262626;stroke-width:0.5;" x="90" xlink:href="#m145f40e33d" y="357.912493"/>
      </g>
     </g>
    </g>
    <g id="ytick_38">
     <g id="line2d_73">
      <g>
       <use style="fill:#262626;stroke:#262626;stroke-width:0.5;" x="90" xlink:href="#m145f40e33d" y="349.658657"/>
      </g>
     </g>
    </g>
    <g id="ytick_39">
     <g id="line2d_74">
      <g>
       <use style="fill:#262626;stroke:#262626;stroke-width:0.5;" x="90" xlink:href="#m145f40e33d" y="343.802467"/>
      </g>
     </g>
    </g>
    <g id="ytick_40">
     <g id="line2d_75">
      <g>
       <use style="fill:#262626;stroke:#262626;stroke-width:0.5;" x="90" xlink:href="#m145f40e33d" y="339.260053"/>
      </g>
     </g>
    </g>
    <g id="ytick_41">
     <g id="line2d_76">
      <g>
       <use style="fill:#262626;stroke:#262626;stroke-width:0.5;" x="90" xlink:href="#m145f40e33d" y="335.548631"/>
      </g>
     </g>
    </g>
    <g id="ytick_42">
     <g id="line2d_77">
      <g>
       <use style="fill:#262626;stroke:#262626;stroke-width:0.5;" x="90" xlink:href="#m145f40e33d" y="332.410668"/>
      </g>
     </g>
    </g>
    <g id="ytick_43">
     <g id="line2d_78">
      <g>
       <use style="fill:#262626;stroke:#262626;stroke-width:0.5;" x="90" xlink:href="#m145f40e33d" y="329.69244"/>
      </g>
     </g>
    </g>
    <g id="ytick_44">
     <g id="line2d_79">
      <g>
       <use style="fill:#262626;stroke:#262626;stroke-width:0.5;" x="90" xlink:href="#m145f40e33d" y="327.294794"/>
      </g>
     </g>
    </g>
    <g id="ytick_45">
     <g id="line2d_80">
      <g>
       <use style="fill:#262626;stroke:#262626;stroke-width:0.5;" x="90" xlink:href="#m145f40e33d" y="311.04"/>
      </g>
     </g>
    </g>
   </g>
   <g id="line2d_81">
    <path clip-path="url(#pf3689a3a69)" d="M -1 358.783162 
L 151.095164 358.784374 
L 206.306812 379.909885 
L 238.603556 390.215466 
L 261.518461 390.928508 
L 279.292642 395.69206 
L 293.815205 366.338975 
L 306.093857 404.409326 
L 316.730109 407.328333 
L 326.111949 412.222477 
L 334.50429 409.273468 
L 342.096086 407.349322 
L 349.026853 371.750381 
L 355.402541 412.380827 
L 361.305505 418.307747 
L 366.801034 418.158801 
L 371.941758 415.442953 
L 376.770725 408.31844 
L 381.323597 377.193383 
L 385.630245 423.490674 
L 389.715939 437.522026 
L 393.602249 424.953977 
L 397.307735 409.953142 
L 400.848476 394.837099 
L 404.238502 357.8159 
L 407.490119 378.837542 
L 410.614189 392.801935 
L 413.620341 399.882815 
L 416.517154 401.382191 
L 419.312303 398.755629 
L 422.012683 380.396016 
L 424.624509 406.027141 
L 427.153406 437.076752 
L 429.604479 434.344265 
L 431.982374 430.598041 
L 434.291335 421.538311 
L 436.535246 400.220425 
L 438.717672 397.68647 
L 440.841893 414.854221 
L 442.910933 418.061539 
L 444.927587 418.989778 
L 446.894442 412.996191 
L 448.813898 397.720201 
L 450.688186 386.49621 
L 452.519383 414.360211 
L 454.309426 424.044437 
L 456.060125 429.704942 
L 457.773171 433.62865 
L 459.45015 430.332648 
L 461.09255 453.39254 
L 462.701768 441.666553 
L 464.279118 439.238978 
L 465.825838 438.44385 
L 468.83199 433.38926 
L 470.293564 408.65884 
L 471.728802 453.49461 
L 473.138637 450.396417 
L 474.523951 446.629474 
L 475.885584 444.335643 
L 477.224331 444.823676 
L 478.540949 443.837046 
L 479.836157 450.910844 
L 481.110642 451.37865 
L 482.365055 456.999719 
L 483.600019 447.944238 
L 484.816127 452.937141 
L 486.013948 449.768938 
L 487.194022 435.278246 
L 488.356869 443.60108 
L 490.63284 446.731595 
L 491.746894 444.101829 
L 492.845581 442.92594 
L 493.92932 425.085613 
L 494.998512 430.617101 
L 496.053541 445.320469 
L 498.122582 451.031421 
L 499.137291 449.249459 
L 500.139235 448.264358 
L 501.128734 430.883186 
L 502.10609 454.171657 
L 503.0716 452.860107 
L 504.025546 452.79704 
L 504.968203 451.17891 
L 505.899834 459.645877 
L 506.820695 456.934811 
L 507.731032 449.527991 
L 508.631082 451.856381 
L 509.521075 456.054747 
L 510.401234 457.71536 
L 511.271773 455.343053 
L 512.132901 455.350123 
L 512.984819 445.628541 
L 513.827722 433.53878 
L 514.661799 448.54541 
L 515.487232 451.70886 
L 516.304198 452.105484 
L 517.112871 458.337281 
L 517.913416 457.094755 
L 518.705996 463.978106 
L 519.490766 452.744965 
L 520.26788 454.098786 
L 521.037486 457.984753 
L 521.799727 452.836114 
L 522.554743 455.902932 
L 523.302669 452.731381 
L 524.043638 451.334412 
L 524.777778 458.102247 
L 525.505212 456.302698 
L 526.226064 458.943042 
L 527.648487 457.404612 
L 528.350285 457.398995 
L 529.045954 455.797863 
L 529.7356 457.585556 
L 530.419326 459.696177 
L 531.097232 459.576328 
L 531.769418 458.975367 
L 532.435979 462.847174 
L 533.097009 463.072686 
L 533.752597 464.825423 
L 534.402834 453.346195 
L 535.047806 458.120128 
L 535.687597 455.996702 
L 536.951966 459.432162 
L 537.576703 459.490683 
L 538.196578 461.75775 
L 538.811667 469.199605 
L 539.422042 460.52685 
L 540.027776 462.652752 
L 540.628938 461.310498 
L 541.225596 463.748638 
L 541.817819 461.212303 
L 542.405671 460.99573 
L 542.989216 459.164189 
L 543.568517 461.212536 
L 544.143636 460.41653 
L 544.714632 464.697123 
L 545.281563 464.217727 
L 545.844488 463.936705 
L 546.403463 458.714936 
L 546.958543 461.183349 
L 547.509781 459.944788 
L 548.05723 466.112924 
L 549.140969 460.468555 
L 549.677358 466.528393 
L 550.21016 462.960757 
L 550.739422 463.196169 
L 551.26519 463.19627 
L 551.78751 465.339986 
L 552.306428 464.141023 
L 552.821987 463.717663 
L 553.33423 464.470216 
L 553.8432 463.637631 
L 554.348939 464.663263 
L 554.851487 469.012965 
L 555.350884 462.405457 
L 555.847169 464.659776 
L 556.340382 461.933318 
L 556.830559 461.523726 
L 557.317739 465.561372 
L 557.801956 460.222043 
L 558.283248 461.639044 
L 558.76165 462.661411 
L 559.237195 463.398694 
L 559.709918 468.408337 
L 560.179852 469.448017 
L 560.647029 467.558515 
L 561.111483 464.7893 
L 561.573244 468.805277 
L 562.032344 467.138475 
L 562.488812 469.002983 
L 562.94268 467.091559 
L 563.393976 463.498165 
L 563.84273 468.14561 
L 564.28897 462.667517 
L 564.732723 469.798907 
L 565.174019 462.669842 
L 565.612882 467.61119 
L 566.049341 468.430944 
L 566.483422 467.97181 
L 567.34455 466.349847 
L 567.771648 468.170247 
L 568.196468 468.117672 
L 568.619034 467.108464 
L 569.039371 465.745734 
L 569.457501 470.097825 
L 569.873447 463.804754 
L 570.287233 473.721542 
L 570.69888 465.469419 
L 571.108411 468.525388 
L 571.515847 470.344542 
L 571.921209 470.583185 
L 572.32452 473.117024 
L 572.725798 469.199073 
L 573.125065 472.419709 
L 573.52234 472.260895 
L 573.917644 468.265539 
L 574.310996 468.453041 
L 574.702415 466.395662 
L 575.091919 469.291201 
L 575.865261 466.32889 
L 576.249135 464.207265 
L 576.631167 470.572517 
L 577.011376 469.831893 
L 577.389778 472.484604 
L 577.766391 462.452069 
L 578.141232 469.178647 
L 578.514318 465.795474 
L 578.885664 468.909256 
L 579.255287 465.172218 
L 579.623202 474.133413 
L 579.989426 468.494908 
L 580.353974 465.296948 
L 581.078102 473.64161 
L 581.437713 472.586906 
L 581.795707 469.869717 
L 582.152099 470.835024 
L 582.506904 476.012101 
L 582.860136 471.926378 
L 583.211808 470.651568 
L 583.561934 468.413473 
L 583.910528 472.581176 
L 584.257603 470.714812 
L 584.603172 470.974024 
L 584.947248 465.094809 
L 585.289845 470.197667 
L 585.630974 472.744344 
L 585.970649 469.61308 
L 586.308881 469.436288 
L 586.645683 474.340479 
L 586.981067 471.269916 
L 587.315045 471.980569 
L 587.647628 472.103024 
L 587.978828 475.003321 
L 588.637126 469.4016 
L 588.964246 474.654381 
L 589.290028 482.843918 
L 589.614483 469.278293 
L 589.937621 481.58 
L 590.259454 467.764924 
L 590.579992 472.489378 
L 590.899246 470.944645 
L 591.217224 475.825189 
L 591.849399 467.759543 
L 592.163614 469.923618 
L 592.476596 476.067182 
L 592.788352 470.962607 
L 593.098892 468.437456 
L 593.408227 481.010606 
L 593.716365 470.631268 
L 594.023315 476.490893 
L 594.329088 478.17401 
L 594.633691 470.716693 
L 594.937133 468.815454 
L 595.239424 471.01332 
L 595.840586 478.322238 
L 596.437245 470.174417 
L 596.733906 469.019461 
L 597.029467 478.77653 
L 597.323936 471.706442 
L 597.617319 474.546319 
L 597.909626 473.793066 
L 598.200864 472.656534 
L 598.780166 480.012739 
L 599.068244 475.041046 
L 599.355284 473.699926 
L 599.641294 480.902305 
L 599.92628 469.120871 
L 600.21025 476.446026 
L 600.493212 469.92808 
L 600.775172 471.036058 
L 601.056137 477.896177 
L 601.336115 471.066802 
L 601.615112 472.670646 
L 601.893135 471.945557 
L 602.170191 472.61099 
L 602.446287 472.210441 
L 602.721429 472.175673 
L 602.995624 474.795859 
L 603.268878 468.217874 
L 603.541199 481.565809 
L 603.812591 475.586135 
L 604.083062 472.630921 
L 604.352617 487.501434 
L 604.889007 473.0907 
L 605.421809 471.344004 
L 605.686879 480.74461 
L 605.95107 472.660986 
L 606.214388 473.925704 
L 606.476838 472.825587 
L 606.738427 476.790544 
L 606.999159 477.719124 
L 607.25904 472.349542 
L 607.518076 472.628976 
L 607.776273 473.556746 
L 608.033635 480.338058 
L 608.290169 471.716497 
L 608.545879 474.920395 
L 608.80077 474.990017 
L 609.054849 470.616572 
L 609.308119 476.116386 
L 609.560587 473.333052 
L 609.812258 474.81088 
L 610.063135 470.019082 
L 610.313225 475.353618 
L 610.562532 473.170128 
L 611.058818 484.582566 
L 611.305806 474.651365 
L 611.55203 473.797126 
L 611.797496 480.752386 
L 612.042208 477.760832 
L 612.28617 479.231795 
L 612.529387 476.185388 
L 612.771864 482.286998 
L 613.013605 474.276313 
L 613.254614 476.044403 
L 613.494897 476.515896 
L 613.734457 471.197428 
L 614.211426 478.56795 
L 614.448843 473.04422 
L 614.685555 476.132707 
L 614.921566 486.325043 
L 615.15688 475.622278 
L 615.3915 483.47675 
L 615.625431 478.113743 
L 615.858678 476.268345 
L 616.091243 483.537511 
L 616.323131 475.468337 
L 616.554347 474.944238 
L 616.784892 475.132008 
L 617.014773 474.225727 
L 617.472553 478.95846 
L 617.700461 474.543125 
L 618.154329 480.324148 
L 618.380296 476.497285 
L 618.830318 482.030116 
L 619.054379 479.034955 
L 619.277811 479.330501 
L 619.500618 471.394308 
L 619.722804 480.221406 
L 619.944372 470.568183 
L 620.165325 475.075299 
L 620.385667 490.895973 
L 620.605401 473.190594 
L 620.824531 477.970736 
L 621.043059 479.348814 
L 621.26099 479.295311 
L 621.478326 480.069259 
L 621.69507 490.027696 
L 621.911227 473.900217 
L 622.126798 477.317676 
L 622.341787 476.641648 
L 622.556198 470.680559 
L 622.983296 478.722994 
L 623.195989 474.729871 
L 623.408116 476.461966 
L 623.61968 483.850602 
L 624.041128 482.926019 
L 624.251019 475.841804 
L 624.460358 487.296623 
L 624.669149 469.002142 
L 624.877394 468.615865 
L 625.085096 477.491134 
L 625.292257 476.593495 
L 625.498881 476.635748 
L 625.704971 471.300884 
L 625.910528 473.77619 
L 626.115557 480.878949 
L 626.320059 481.557075 
L 626.524038 472.07103 
L 626.727495 477.624893 
L 626.930435 478.772222 
L 627.132858 484.910366 
L 627.334768 473.303667 
L 627.73706 476.020185 
L 627.937446 484.897078 
L 628.13733 481.017173 
L 628.336713 482.442832 
L 628.535599 480.908146 
L 628.733989 475.695826 
L 628.931886 476.760407 
L 629.129293 474.877703 
L 629.326211 484.325876 
L 629.522644 479.037281 
L 629.718594 477.641015 
L 629.914063 471.635666 
L 630.109054 476.357439 
L 630.303568 470.715042 
L 630.497608 483.926853 
L 630.884277 474.408442 
L 631.07691 479.568178 
L 631.269078 471.977586 
L 631.460783 477.583143 
L 631.652028 472.494565 
L 631.842815 489.264378 
L 632.033146 480.073731 
L 632.223024 479.447097 
L 632.41245 483.804006 
L 632.601426 483.174462 
L 632.789956 485.480554 
L 633.352881 472.470864 
L 633.539642 474.098034 
L 633.725966 493.03894 
L 633.911856 471.976339 
L 634.097312 479.812907 
L 634.282338 498.043468 
L 634.466935 473.25214 
L 634.651105 472.678869 
L 634.83485 476.318945 
L 635.018173 469.860795 
L 635.201074 478.099001 
L 635.383557 472.959537 
L 635.565622 478.730844 
L 635.747272 479.239986 
L 635.928509 474.535696 
L 636.109335 474.358172 
L 636.289751 476.4687 
L 636.469759 472.963554 
L 636.649361 479.187647 
L 636.828559 477.222368 
L 637.007355 478.859843 
L 637.185751 486.609692 
L 637.363748 476.06743 
L 637.541348 480.265485 
L 637.718553 470.393354 
L 637.895364 478.879109 
L 638.071784 475.618733 
L 638.247814 483.411389 
L 638.423456 475.65542 
L 638.94807 486.768778 
L 639.122176 472.434445 
L 639.295903 482.817098 
L 639.469251 481.430919 
L 639.81482 472.188698 
L 639.987044 473.20578 
L 640.158897 480.440939 
L 640.330379 482.80725 
L 640.501493 475.819583 
L 640.67224 485.676132 
L 640.842622 487.262644 
L 641.012641 487.028581 
L 641.182297 477.145452 
L 641.351593 485.460116 
L 641.520529 474.548443 
L 641.689108 473.89759 
L 642.192715 489.076667 
L 642.359879 479.430041 
L 642.526693 481.211212 
L 642.693158 487.929114 
L 642.859276 476.951045 
L 643.025049 474.836055 
L 643.355562 484.332713 
L 643.520306 484.817526 
L 643.684709 478.790513 
L 643.848774 480.029835 
L 644.012502 474.476683 
L 644.338952 482.628103 
L 644.501676 473.571745 
L 644.664069 473.283684 
L 644.826131 484.353264 
L 644.987864 474.85297 
L 645.14927 472.249921 
L 645.310349 487.174773 
L 645.631533 473.134379 
L 645.791641 482.241954 
L 645.951427 483.782492 
L 646.110894 477.441127 
L 646.270042 485.029451 
L 646.428873 476.29172 
L 646.587387 485.0684 
L 646.745587 474.825066 
L 646.903473 480.104445 
L 647.061047 473.965786 
L 647.21831 484.474433 
L 647.375263 474.802477 
L 647.531907 481.321496 
L 647.688244 478.777793 
L 647.844274 479.966776 
L 647.844274 479.966776 
" style="fill:none;stroke:#b22222;stroke-linecap:round;stroke-width:1.75;"/>
   </g>
   <g id="patch_6">
    <path d="M 90 512.64 
L 90 311.04 
" style="fill:none;stroke:#262626;stroke-linecap:square;stroke-linejoin:miter;stroke-width:1.25;"/>
   </g>
   <g id="patch_7">
    <path d="M 90 512.64 
L 648 512.64 
" style="fill:none;stroke:#262626;stroke-linecap:square;stroke-linejoin:miter;stroke-width:1.25;"/>
   </g>
  </g>
 </g>
 <defs>
  <clipPath id="pb7bdc41927">
   <rect height="201.6" width="558" x="90" y="69.12"/>
  </clipPath>
  <clipPath id="pf3689a3a69">
   <rect height="201.6" width="558" x="90" y="311.04"/>
  </clipPath>
 </defs>
</svg>
