<?xml version="1.0" encoding="utf-8" standalone="no"?>
<!DOCTYPE svg PUBLIC "-//W3C//DTD SVG 1.1//EN"
  "http://www.w3.org/Graphics/SVG/1.1/DTD/svg11.dtd">
<!-- Created with matplotlib (http://matplotlib.org/) -->
<svg height="576pt" version="1.1" viewBox="0 0 720 576" width="720pt" xmlns="http://www.w3.org/2000/svg" xmlns:xlink="http://www.w3.org/1999/xlink">
 <defs>
  <style type="text/css">
*{stroke-linecap:butt;stroke-linejoin:round;}
  </style>
 </defs>
 <g id="figure_1">
  <g id="patch_1">
   <path d="M 0 576 
L 720 576 
L 720 0 
L 0 0 
z
" style="fill:#ffffff;"/>
  </g>
  <g id="axes_1">
   <g id="patch_2">
    <path d="M 90 270.72 
L 648 270.72 
L 648 69.12 
L 90 69.12 
z
" style="fill:#ffffff;"/>
   </g>
   <g id="matplotlib.axis_1">
    <g id="xtick_1">
     <g id="line2d_1">
      <defs>
       <path d="M 0 0 
L 0 6 
" id="m5d02b132fa" style="stroke:#262626;"/>
      </defs>
      <g>
       <use style="fill:#262626;stroke:#262626;" x="90" xlink:href="#m5d02b132fa" y="270.72"/>
      </g>
     </g>
     <g id="text_1">
      <!-- 0 -->
      <defs>
       <path d="M 4.15625 35.296875 
Q 4.15625 48 6.765625 55.734375 
Q 9.375 63.484375 14.515625 67.671875 
Q 19.671875 71.875 27.484375 71.875 
Q 33.25 71.875 37.59375 69.546875 
Q 41.9375 67.234375 44.765625 62.859375 
Q 47.609375 58.5 49.21875 52.21875 
Q 50.828125 45.953125 50.828125 35.296875 
Q 50.828125 22.703125 48.234375 14.96875 
Q 45.65625 7.234375 40.5 3 
Q 35.359375 -1.21875 27.484375 -1.21875 
Q 17.140625 -1.21875 11.234375 6.203125 
Q 4.15625 15.140625 4.15625 35.296875 
z
M 13.1875 35.296875 
Q 13.1875 17.671875 17.3125 11.828125 
Q 21.4375 6 27.484375 6 
Q 33.546875 6 37.671875 11.859375 
Q 41.796875 17.71875 41.796875 35.296875 
Q 41.796875 52.984375 37.671875 58.78125 
Q 33.546875 64.59375 27.390625 64.59375 
Q 21.34375 64.59375 17.71875 59.46875 
Q 13.1875 52.9375 13.1875 35.296875 
z
" id="ArialMT-30"/>
      </defs>
      <g style="fill:#262626;" transform="translate(87.219531 290.877812)scale(0.1 -0.1)">
       <use xlink:href="#ArialMT-30"/>
      </g>
     </g>
    </g>
    <g id="xtick_2">
     <g id="line2d_2">
      <g>
       <use style="fill:#262626;stroke:#262626;" x="198.984375" xlink:href="#m5d02b132fa" y="270.72"/>
      </g>
     </g>
     <g id="text_2">
      <!-- 200 -->
      <defs>
       <path d="M 50.34375 8.453125 
L 50.34375 0 
L 3.03125 0 
Q 2.9375 3.171875 4.046875 6.109375 
Q 5.859375 10.9375 9.828125 15.625 
Q 13.8125 20.3125 21.34375 26.46875 
Q 33.015625 36.03125 37.109375 41.625 
Q 41.21875 47.21875 41.21875 52.203125 
Q 41.21875 57.421875 37.46875 61 
Q 33.734375 64.59375 27.734375 64.59375 
Q 21.390625 64.59375 17.578125 60.78125 
Q 13.765625 56.984375 13.71875 50.25 
L 4.6875 51.171875 
Q 5.609375 61.28125 11.65625 66.578125 
Q 17.71875 71.875 27.9375 71.875 
Q 38.234375 71.875 44.234375 66.15625 
Q 50.25 60.453125 50.25 52 
Q 50.25 47.703125 48.484375 43.546875 
Q 46.734375 39.40625 42.65625 34.8125 
Q 38.578125 30.21875 29.109375 22.21875 
Q 21.1875 15.578125 18.9375 13.203125 
Q 16.703125 10.84375 15.234375 8.453125 
z
" id="ArialMT-32"/>
      </defs>
      <g style="fill:#262626;" transform="translate(190.642969 290.877812)scale(0.1 -0.1)">
       <use xlink:href="#ArialMT-32"/>
       <use x="55.615234" xlink:href="#ArialMT-30"/>
       <use x="111.230469" xlink:href="#ArialMT-30"/>
      </g>
     </g>
    </g>
    <g id="xtick_3">
     <g id="line2d_3">
      <g>
       <use style="fill:#262626;stroke:#262626;" x="307.96875" xlink:href="#m5d02b132fa" y="270.72"/>
      </g>
     </g>
     <g id="text_3">
      <!-- 400 -->
      <defs>
       <path d="M 32.328125 0 
L 32.328125 17.140625 
L 1.265625 17.140625 
L 1.265625 25.203125 
L 33.9375 71.578125 
L 41.109375 71.578125 
L 41.109375 25.203125 
L 50.78125 25.203125 
L 50.78125 17.140625 
L 41.109375 17.140625 
L 41.109375 0 
z
M 32.328125 25.203125 
L 32.328125 57.46875 
L 9.90625 25.203125 
z
" id="ArialMT-34"/>
      </defs>
      <g style="fill:#262626;" transform="translate(299.627344 290.877812)scale(0.1 -0.1)">
       <use xlink:href="#ArialMT-34"/>
       <use x="55.615234" xlink:href="#ArialMT-30"/>
       <use x="111.230469" xlink:href="#ArialMT-30"/>
      </g>
     </g>
    </g>
    <g id="xtick_4">
     <g id="line2d_4">
      <g>
       <use style="fill:#262626;stroke:#262626;" x="416.953125" xlink:href="#m5d02b132fa" y="270.72"/>
      </g>
     </g>
     <g id="text_4">
      <!-- 600 -->
      <defs>
       <path d="M 49.75 54.046875 
L 41.015625 53.375 
Q 39.84375 58.546875 37.703125 60.890625 
Q 34.125 64.65625 28.90625 64.65625 
Q 24.703125 64.65625 21.53125 62.3125 
Q 17.390625 59.28125 14.984375 53.46875 
Q 12.59375 47.65625 12.5 36.921875 
Q 15.671875 41.75 20.265625 44.09375 
Q 24.859375 46.4375 29.890625 46.4375 
Q 38.671875 46.4375 44.84375 39.96875 
Q 51.03125 33.5 51.03125 23.25 
Q 51.03125 16.5 48.125 10.71875 
Q 45.21875 4.9375 40.140625 1.859375 
Q 35.0625 -1.21875 28.609375 -1.21875 
Q 17.625 -1.21875 10.6875 6.859375 
Q 3.765625 14.9375 3.765625 33.5 
Q 3.765625 54.25 11.421875 63.671875 
Q 18.109375 71.875 29.4375 71.875 
Q 37.890625 71.875 43.28125 67.140625 
Q 48.6875 62.40625 49.75 54.046875 
z
M 13.875 23.1875 
Q 13.875 18.65625 15.796875 14.5 
Q 17.71875 10.359375 21.1875 8.171875 
Q 24.65625 6 28.46875 6 
Q 34.03125 6 38.03125 10.484375 
Q 42.046875 14.984375 42.046875 22.703125 
Q 42.046875 30.125 38.078125 34.390625 
Q 34.125 38.671875 28.125 38.671875 
Q 22.171875 38.671875 18.015625 34.390625 
Q 13.875 30.125 13.875 23.1875 
z
" id="ArialMT-36"/>
      </defs>
      <g style="fill:#262626;" transform="translate(408.611719 290.877812)scale(0.1 -0.1)">
       <use xlink:href="#ArialMT-36"/>
       <use x="55.615234" xlink:href="#ArialMT-30"/>
       <use x="111.230469" xlink:href="#ArialMT-30"/>
      </g>
     </g>
    </g>
    <g id="xtick_5">
     <g id="line2d_5">
      <g>
       <use style="fill:#262626;stroke:#262626;" x="525.9375" xlink:href="#m5d02b132fa" y="270.72"/>
      </g>
     </g>
     <g id="text_5">
      <!-- 800 -->
      <defs>
       <path d="M 17.671875 38.8125 
Q 12.203125 40.828125 9.5625 44.53125 
Q 6.9375 48.25 6.9375 53.421875 
Q 6.9375 61.234375 12.546875 66.546875 
Q 18.171875 71.875 27.484375 71.875 
Q 36.859375 71.875 42.578125 66.421875 
Q 48.296875 60.984375 48.296875 53.171875 
Q 48.296875 48.1875 45.671875 44.5 
Q 43.0625 40.828125 37.75 38.8125 
Q 44.34375 36.671875 47.78125 31.875 
Q 51.21875 27.09375 51.21875 20.453125 
Q 51.21875 11.28125 44.71875 5.03125 
Q 38.234375 -1.21875 27.640625 -1.21875 
Q 17.046875 -1.21875 10.546875 5.046875 
Q 4.046875 11.328125 4.046875 20.703125 
Q 4.046875 27.6875 7.59375 32.390625 
Q 11.140625 37.109375 17.671875 38.8125 
z
M 15.921875 53.71875 
Q 15.921875 48.640625 19.1875 45.40625 
Q 22.46875 42.1875 27.6875 42.1875 
Q 32.765625 42.1875 36.015625 45.375 
Q 39.265625 48.578125 39.265625 53.21875 
Q 39.265625 58.0625 35.90625 61.359375 
Q 32.5625 64.65625 27.59375 64.65625 
Q 22.5625 64.65625 19.234375 61.421875 
Q 15.921875 58.203125 15.921875 53.71875 
z
M 13.09375 20.65625 
Q 13.09375 16.890625 14.875 13.375 
Q 16.65625 9.859375 20.171875 7.921875 
Q 23.6875 6 27.734375 6 
Q 34.03125 6 38.125 10.046875 
Q 42.234375 14.109375 42.234375 20.359375 
Q 42.234375 26.703125 38.015625 30.859375 
Q 33.796875 35.015625 27.4375 35.015625 
Q 21.234375 35.015625 17.15625 30.90625 
Q 13.09375 26.8125 13.09375 20.65625 
z
" id="ArialMT-38"/>
      </defs>
      <g style="fill:#262626;" transform="translate(517.596094 290.877812)scale(0.1 -0.1)">
       <use xlink:href="#ArialMT-38"/>
       <use x="55.615234" xlink:href="#ArialMT-30"/>
       <use x="111.230469" xlink:href="#ArialMT-30"/>
      </g>
     </g>
    </g>
    <g id="xtick_6">
     <g id="line2d_6">
      <g>
       <use style="fill:#262626;stroke:#262626;" x="634.921875" xlink:href="#m5d02b132fa" y="270.72"/>
      </g>
     </g>
     <g id="text_6">
      <!-- 1000 -->
      <defs>
       <path d="M 37.25 0 
L 28.46875 0 
L 28.46875 56 
Q 25.296875 52.984375 20.140625 49.953125 
Q 14.984375 46.921875 10.890625 45.40625 
L 10.890625 53.90625 
Q 18.265625 57.375 23.78125 62.296875 
Q 29.296875 67.234375 31.59375 71.875 
L 37.25 71.875 
z
" id="ArialMT-31"/>
      </defs>
      <g style="fill:#262626;" transform="translate(623.8 290.877812)scale(0.1 -0.1)">
       <use xlink:href="#ArialMT-31"/>
       <use x="55.615234" xlink:href="#ArialMT-30"/>
       <use x="111.230469" xlink:href="#ArialMT-30"/>
       <use x="166.845703" xlink:href="#ArialMT-30"/>
      </g>
     </g>
    </g>
   </g>
   <g id="matplotlib.axis_2">
    <g id="ytick_1">
     <g id="line2d_7">
      <defs>
       <path d="M 0 0 
L -6 0 
" id="m3650bc7835" style="stroke:#262626;"/>
      </defs>
      <g>
       <use style="fill:#262626;stroke:#262626;" x="90" xlink:href="#m3650bc7835" y="270.72"/>
      </g>
     </g>
     <g id="text_7">
      <!-- −0.6 -->
      <defs>
       <path d="M 52.828125 31.203125 
L 5.5625 31.203125 
L 5.5625 39.40625 
L 52.828125 39.40625 
z
" id="ArialMT-2212"/>
       <path d="M 9.078125 0 
L 9.078125 10.015625 
L 19.09375 10.015625 
L 19.09375 0 
z
" id="ArialMT-2e"/>
      </defs>
      <g style="fill:#262626;" transform="translate(57.259375 274.298906)scale(0.1 -0.1)">
       <use xlink:href="#ArialMT-2212"/>
       <use x="58.398438" xlink:href="#ArialMT-30"/>
       <use x="114.013672" xlink:href="#ArialMT-2e"/>
       <use x="141.796875" xlink:href="#ArialMT-36"/>
      </g>
     </g>
    </g>
    <g id="ytick_2">
     <g id="line2d_8">
      <g>
       <use style="fill:#262626;stroke:#262626;" x="90" xlink:href="#m3650bc7835" y="237.12"/>
      </g>
     </g>
     <g id="text_8">
      <!-- −0.4 -->
      <g style="fill:#262626;" transform="translate(57.259375 240.698906)scale(0.1 -0.1)">
       <use xlink:href="#ArialMT-2212"/>
       <use x="58.398438" xlink:href="#ArialMT-30"/>
       <use x="114.013672" xlink:href="#ArialMT-2e"/>
       <use x="141.796875" xlink:href="#ArialMT-34"/>
      </g>
     </g>
    </g>
    <g id="ytick_3">
     <g id="line2d_9">
      <g>
       <use style="fill:#262626;stroke:#262626;" x="90" xlink:href="#m3650bc7835" y="203.52"/>
      </g>
     </g>
     <g id="text_9">
      <!-- −0.2 -->
      <g style="fill:#262626;" transform="translate(57.259375 207.098906)scale(0.1 -0.1)">
       <use xlink:href="#ArialMT-2212"/>
       <use x="58.398438" xlink:href="#ArialMT-30"/>
       <use x="114.013672" xlink:href="#ArialMT-2e"/>
       <use x="141.796875" xlink:href="#ArialMT-32"/>
      </g>
     </g>
    </g>
    <g id="ytick_4">
     <g id="line2d_10">
      <g>
       <use style="fill:#262626;stroke:#262626;" x="90" xlink:href="#m3650bc7835" y="169.92"/>
      </g>
     </g>
     <g id="text_10">
      <!-- 0.0 -->
      <g style="fill:#262626;" transform="translate(63.1 173.498906)scale(0.1 -0.1)">
       <use xlink:href="#ArialMT-30"/>
       <use x="55.615234" xlink:href="#ArialMT-2e"/>
       <use x="83.398438" xlink:href="#ArialMT-30"/>
      </g>
     </g>
    </g>
    <g id="ytick_5">
     <g id="line2d_11">
      <g>
       <use style="fill:#262626;stroke:#262626;" x="90" xlink:href="#m3650bc7835" y="136.32"/>
      </g>
     </g>
     <g id="text_11">
      <!-- 0.2 -->
      <g style="fill:#262626;" transform="translate(63.1 139.898906)scale(0.1 -0.1)">
       <use xlink:href="#ArialMT-30"/>
       <use x="55.615234" xlink:href="#ArialMT-2e"/>
       <use x="83.398438" xlink:href="#ArialMT-32"/>
      </g>
     </g>
    </g>
    <g id="ytick_6">
     <g id="line2d_12">
      <g>
       <use style="fill:#262626;stroke:#262626;" x="90" xlink:href="#m3650bc7835" y="102.72"/>
      </g>
     </g>
     <g id="text_12">
      <!-- 0.4 -->
      <g style="fill:#262626;" transform="translate(63.1 106.298906)scale(0.1 -0.1)">
       <use xlink:href="#ArialMT-30"/>
       <use x="55.615234" xlink:href="#ArialMT-2e"/>
       <use x="83.398438" xlink:href="#ArialMT-34"/>
      </g>
     </g>
    </g>
    <g id="ytick_7">
     <g id="line2d_13">
      <g>
       <use style="fill:#262626;stroke:#262626;" x="90" xlink:href="#m3650bc7835" y="69.12"/>
      </g>
     </g>
     <g id="text_13">
      <!-- 0.6 -->
      <g style="fill:#262626;" transform="translate(63.1 72.698906)scale(0.1 -0.1)">
       <use xlink:href="#ArialMT-30"/>
       <use x="55.615234" xlink:href="#ArialMT-2e"/>
       <use x="83.398438" xlink:href="#ArialMT-36"/>
      </g>
     </g>
    </g>
   </g>
   <g id="line2d_14">
    <path clip-path="url(#pef01898747)" d="M 90 177.564287 
L 91.089844 179.768877 
L 92.179688 181.465898 
L 92.724609 181.568437 
L 93.269531 181.896562 
L 93.814453 181.542803 
L 94.904297 180.009844 
L 95.449219 178.907549 
L 97.083984 173.616533 
L 97.628906 171.319658 
L 98.71875 167.83333 
L 99.263672 165.79793 
L 100.898438 161.363115 
L 101.443359 160.342852 
L 102.533203 158.774004 
L 103.078125 158.517656 
L 103.623047 158.512529 
L 104.167969 158.630449 
L 104.712891 159.691729 
L 105.257812 160.296709 
L 106.347656 163.30623 
L 107.4375 166.807939 
L 109.072266 172.206621 
L 109.617188 173.724199 
L 110.707031 175.810869 
L 111.251953 176.426104 
L 111.796875 176.354326 
L 112.341797 176.559404 
L 112.886719 176.097979 
L 114.521484 174.165117 
L 116.15625 171.637529 
L 116.701172 171.18123 
L 119.425781 165.956865 
L 121.060547 161.224687 
L 122.150391 157.835771 
L 123.240234 155.051836 
L 123.785156 153.872637 
L 124.330078 153.324053 
L 124.875 152.570391 
L 125.419922 152.170488 
L 125.964844 152.032061 
L 126.509766 152.232012 
L 127.054688 152.847246 
L 128.144531 155.164629 
L 129.234375 158.317705 
L 130.324219 162.34749 
L 131.414062 165.433916 
L 132.503906 167.474443 
L 133.048828 167.976885 
L 133.59375 168.06917 
L 134.683594 167.817949 
L 136.318359 165.721025 
L 139.042969 160.758135 
L 140.132812 159.553301 
L 140.677734 159.47127 
L 141.222656 159.53792 
L 142.3125 160.553057 
L 143.402344 163.075518 
L 146.126953 169.473955 
L 147.216797 171.160723 
L 148.306641 172.037432 
L 148.851562 172.165605 
L 149.396484 172.452715 
L 150.486328 172.627031 
L 151.03125 172.437334 
L 151.576172 172.473223 
L 152.121094 172.170732 
L 152.666016 172.201494 
L 153.210938 172.032305 
L 153.755859 172.083574 
L 154.300781 171.755449 
L 154.845703 171.852861 
L 155.390625 172.104082 
L 155.935547 172.216875 
L 157.025391 173.67293 
L 159.205078 177.287432 
L 160.294922 177.702715 
L 160.839844 177.113115 
L 161.384766 176.215898 
L 161.929688 175.041826 
L 163.019531 171.847734 
L 164.109375 168.479326 
L 164.654297 166.833574 
L 165.744141 164.716143 
L 166.289062 163.772783 
L 166.833984 163.331865 
L 167.378906 163.075518 
L 167.923828 163.142168 
L 168.46875 163.398516 
L 169.013672 163.808672 
L 170.103516 165.223711 
L 172.283203 168.238359 
L 172.828125 168.735674 
L 174.462891 169.627764 
L 175.007812 169.555986 
L 176.097656 169.699541 
L 176.642578 169.950762 
L 178.277344 171.432451 
L 179.912109 174.385576 
L 181.546875 178.722979 
L 183.181641 182.537432 
L 183.726562 183.311602 
L 184.271484 183.870439 
L 184.816406 183.890947 
L 185.361328 183.670488 
L 185.90625 183.080889 
L 186.996094 181.065996 
L 187.541016 179.88167 
L 191.355469 167.694902 
L 192.445312 163.993242 
L 192.990234 162.890947 
L 194.080078 160.388994 
L 194.625 159.932695 
L 195.169922 159.625078 
L 195.714844 159.727617 
L 196.804688 161.08626 
L 197.349609 162.352617 
L 198.984375 167.371904 
L 200.619141 172.30916 
L 201.164062 173.811357 
L 202.253906 175.636553 
L 202.798828 176.103105 
L 203.888672 176.267168 
L 204.433594 175.939043 
L 204.978516 175.913408 
L 205.523438 175.400713 
L 206.068359 175.375078 
L 206.613281 174.621416 
L 207.158203 174.477861 
L 208.792969 172.027178 
L 210.427734 168.458818 
L 213.152344 161.265703 
L 214.787109 155.856768 
L 215.332031 154.631426 
L 215.876953 153.072832 
L 216.421875 152.047441 
L 216.966797 151.380937 
L 218.056641 151.345049 
L 219.146484 152.954912 
L 220.236328 155.708086 
L 221.871094 160.686357 
L 222.960938 163.501055 
L 223.505859 164.803301 
L 224.595703 166.556719 
L 225.140625 166.659258 
L 225.685547 167.033525 
L 226.230469 166.864336 
L 226.775391 166.438799 
L 227.865234 164.798174 
L 228.955078 162.64998 
L 230.589844 159.476396 
L 231.134766 158.856035 
L 231.679688 158.445879 
L 232.769531 158.620195 
L 233.314453 158.886797 
L 234.949219 161.62459 
L 235.494141 163.080645 
L 237.673828 166.961748 
L 238.763672 168.704912 
L 239.308594 169.222734 
L 240.398438 170.622393 
L 241.488281 171.437578 
L 242.033203 171.442705 
L 242.578125 171.109453 
L 243.123047 170.93001 
L 244.757812 169.043291 
L 245.302734 168.766436 
L 245.847656 168.67415 
L 246.9375 169.576494 
L 248.572266 172.867998 
L 249.117188 174.04207 
L 250.207031 175.918535 
L 250.751953 176.374834 
L 251.296875 176.354326 
L 251.841797 176.133867 
L 252.386719 175.70833 
L 252.931641 174.780352 
L 254.021484 172.386064 
L 255.65625 168.064043 
L 256.746094 165.505693 
L 257.291016 164.336748 
L 258.380859 162.931963 
L 258.925781 162.670488 
L 259.470703 162.578203 
L 261.105469 163.598467 
L 263.285156 166.382402 
L 263.830078 166.99251 
L 264.375 167.136064 
L 264.919922 167.556475 
L 265.464844 167.587236 
L 266.009766 167.817949 
L 266.554688 167.735918 
L 267.099609 167.356523 
L 268.189453 167.838457 
L 268.734375 168.038408 
L 269.279297 168.402422 
L 270.369141 170.048174 
L 271.458984 172.452715 
L 272.003906 174.411211 
L 272.548828 175.631426 
L 274.183594 180.122637 
L 275.818359 182.80916 
L 276.363281 183.147539 
L 276.908203 182.906572 
L 277.453125 183.039873 
L 278.542969 181.676104 
L 280.177734 178.046221 
L 282.357422 171.28377 
L 283.447266 167.233477 
L 284.537109 163.536943 
L 285.082031 161.793779 
L 286.171875 159.563555 
L 286.716797 159.322588 
L 287.261719 159.343096 
L 287.806641 160.040361 
L 288.896484 162.157793 
L 289.986328 165.398027 
L 290.53125 166.720781 
L 291.621094 170.002031 
L 293.800781 174.001055 
L 295.980469 175.898027 
L 297.070312 176.031328 
L 297.615234 175.703203 
L 298.160156 175.549395 
L 299.25 174.811113 
L 299.794922 174.165117 
L 300.339844 173.760088 
L 300.884766 173.190996 
L 301.429688 172.350176 
L 302.519531 169.894365 
L 303.064453 168.694658 
L 304.154297 165.172441 
L 306.333984 157.271807 
L 307.423828 154.036699 
L 307.96875 153.124102 
L 308.513672 152.472979 
L 309.058594 151.996172 
L 309.603516 152.047441 
L 310.148438 152.406328 
L 311.238281 154.185381 
L 312.328125 156.584795 
L 313.417969 159.737871 
L 315.052734 164.0804 
L 316.142578 166.320879 
L 316.6875 166.479814 
L 317.232422 167.048906 
L 318.322266 166.536211 
L 318.867188 165.787676 
L 321.046875 161.3221 
L 321.591797 160.250566 
L 322.681641 158.81502 
L 323.226562 158.497148 
L 323.771484 158.394609 
L 324.861328 159.061113 
L 327.041016 161.670732 
L 328.675781 164.880205 
L 330.310547 168.689531 
L 330.855469 169.817461 
L 331.400391 170.622393 
L 331.945312 171.145342 
L 333.035156 171.012041 
L 334.125 170.03792 
L 335.214844 168.633135 
L 335.759766 168.248613 
L 336.304688 168.038408 
L 337.394531 168.30501 
L 338.484375 169.673906 
L 341.208984 175.000811 
L 342.298828 176.205645 
L 343.388672 176.123613 
L 344.478516 174.811113 
L 345.023438 173.872881 
L 346.113281 171.329912 
L 346.658203 170.176348 
L 347.203125 168.438311 
L 347.748047 167.233477 
L 348.292969 166.331133 
L 348.837891 165.151934 
L 349.927734 163.690752 
L 350.472656 163.398516 
L 351.017578 163.29085 
L 351.5625 163.403643 
L 353.197266 164.987871 
L 353.742188 165.351885 
L 354.287109 166.177324 
L 355.376953 166.859209 
L 356.466797 166.99251 
L 357.011719 166.556719 
L 357.556641 166.490068 
L 358.101562 166.274736 
L 358.646484 165.813311 
L 359.191406 165.869707 
L 359.736328 166.136309 
L 360.28125 166.5721 
L 360.826172 167.443682 
L 361.371094 168.105059 
L 363.005859 171.452959 
L 364.095703 174.708574 
L 364.640625 175.882646 
L 365.730469 178.974199 
L 366.275391 180.220049 
L 367.365234 181.922197 
L 368.455078 182.778398 
L 369.544922 182.568193 
L 370.089844 182.311846 
L 370.634766 181.558184 
L 371.179688 181.117266 
L 372.269531 178.543535 
L 373.359375 174.826494 
L 374.449219 170.017412 
L 376.083984 163.552324 
L 377.173828 160.624834 
L 377.71875 159.978838 
L 378.263672 159.748125 
L 378.808594 159.932695 
L 379.898438 160.619707 
L 380.988281 162.855059 
L 381.533203 163.870195 
L 383.167969 167.843584 
L 384.257812 170.186602 
L 385.892578 172.801348 
L 386.4375 173.180742 
L 386.982422 173.708818 
L 388.072266 174.477861 
L 389.162109 174.672686 
L 389.707031 174.841875 
L 390.796875 174.847002 
L 391.341797 174.5804 
L 391.886719 174.175371 
L 392.431641 174.118975 
L 394.066406 170.673662 
L 395.15625 167.392412 
L 397.880859 157.128252 
L 399.515625 152.775469 
L 400.060547 152.08333 
L 400.605469 151.155352 
L 401.150391 151.057939 
L 401.695312 151.165605 
L 402.240234 151.437334 
L 403.330078 153.031816 
L 404.419922 155.646562 
L 406.599609 162.352617 
L 407.144531 163.608721 
L 408.234375 165.213457 
L 408.779297 165.044268 
L 409.324219 164.705889 
L 409.869141 163.941973 
L 410.414062 163.419023 
L 412.048828 160.901689 
L 413.138672 159.543047 
L 414.228516 158.235674 
L 414.773438 157.892168 
L 415.318359 157.317949 
L 416.408203 157.09749 
L 417.498047 157.471758 
L 418.587891 159.23543 
L 421.3125 166.192705 
L 421.857422 167.546221 
L 422.402344 168.397295 
L 422.947266 169.002275 
L 424.037109 169.099687 
L 425.126953 168.417803 
L 425.671875 167.525713 
L 426.761719 166.500322 
L 427.306641 166.310625 
L 427.851562 165.987627 
L 428.396484 165.956865 
L 429.486328 167.418047 
L 430.576172 169.258623 
L 431.121094 170.212236 
L 432.210938 172.437334 
L 433.845703 174.616289 
L 434.390625 174.718828 
L 434.935547 174.657305 
L 435.480469 173.954912 
L 436.025391 173.611406 
L 436.570312 172.688555 
L 438.75 167.694902 
L 439.294922 166.274736 
L 440.384766 164.172686 
L 440.929688 163.326738 
L 441.474609 162.901201 
L 442.019531 162.721758 
L 442.564453 162.742266 
L 443.654297 163.301104 
L 444.744141 164.459795 
L 446.378906 165.198076 
L 446.923828 165.321123 
L 447.46875 165.223711 
L 449.103516 164.393145 
L 449.648438 163.977861 
L 450.738281 163.71126 
L 451.283203 163.680498 
L 452.373047 164.880205 
L 454.007812 168.115312 
L 456.732422 174.954668 
L 457.822266 177.595049 
L 458.912109 180.040605 
L 460.001953 182.122148 
L 461.091797 183.127031 
L 461.636719 183.142412 
L 462.181641 182.92708 
L 462.726562 182.111895 
L 463.271484 181.02498 
L 464.361328 177.615557 
L 465.996094 171.29915 
L 466.541016 168.879229 
L 467.085938 167.305254 
L 467.630859 165.157061 
L 468.175781 163.501055 
L 469.265625 161.147783 
L 469.810547 160.558184 
L 470.355469 160.363359 
L 470.900391 160.522295 
L 471.445312 160.947832 
L 472.535156 162.608965 
L 474.169922 165.956865 
L 475.259766 168.520342 
L 476.349609 170.478838 
L 477.984375 172.61165 
L 480.708984 175.385332 
L 481.253906 175.754473 
L 481.798828 176.410723 
L 482.888672 177.02083 
L 483.978516 176.805498 
L 484.523438 176.118486 
L 485.613281 173.575518 
L 487.248047 168.633135 
L 487.792969 166.428545 
L 488.337891 164.880205 
L 489.972656 159.06624 
L 491.0625 155.687578 
L 491.607422 154.40584 
L 492.697266 152.519121 
L 493.242188 152.498613 
L 493.787109 152.816484 
L 494.332031 153.518877 
L 495.421875 156.097734 
L 497.056641 161.065752 
L 498.146484 163.454912 
L 498.691406 164.362383 
L 499.236328 164.844316 
L 500.326172 165.531328 
L 500.871094 165.654375 
L 501.416016 165.20833 
L 501.960938 165.233965 
L 503.050781 164.121416 
L 506.320312 158.922686 
L 507.410156 157.856279 
L 507.955078 157.661455 
L 508.5 157.87166 
L 509.044922 158.420244 
L 509.589844 159.317461 
L 510.134766 160.471025 
L 511.769531 164.72127 
L 512.314453 166.782305 
L 512.859375 167.515459 
L 513.404297 168.730547 
L 513.949219 169.397051 
L 514.494141 169.817461 
L 515.039062 170.043047 
L 516.128906 169.535479 
L 516.673828 169.074053 
L 517.21875 168.42293 
L 518.853516 167.71541 
L 519.943359 167.8846 
L 521.033203 168.915117 
L 521.578125 169.848223 
L 522.123047 170.535234 
L 524.302734 174.549639 
L 524.847656 175.400713 
L 525.9375 176.06209 
L 527.027344 175.754473 
L 528.117188 174.011309 
L 528.662109 172.903887 
L 529.207031 171.452959 
L 530.296875 169.386797 
L 530.841797 167.946123 
L 531.386719 166.936113 
L 532.476562 165.685137 
L 533.021484 165.116045 
L 533.566406 165.080156 
L 534.65625 165.480059 
L 536.291016 166.82332 
L 537.925781 166.956621 
L 538.470703 166.700273 
L 540.105469 165.02376 
L 540.650391 164.798174 
L 541.195312 164.270098 
L 541.740234 164.239336 
L 542.830078 164.531572 
L 543.375 165.146807 
L 543.919922 165.526201 
L 546.644531 169.858477 
L 548.279297 174.062578 
L 549.914062 178.907549 
L 551.548828 182.886064 
L 552.638672 184.352373 
L 553.183594 184.516436 
L 553.728516 184.142168 
L 554.273438 183.537187 
L 554.818359 182.527178 
L 555.363281 181.183916 
L 556.453125 177.466875 
L 559.722656 165.20833 
L 560.267578 163.813799 
L 561.357422 162.029619 
L 562.447266 161.363115 
L 562.992188 161.486162 
L 564.082031 162.680742 
L 566.261719 166.346514 
L 567.896484 168.551104 
L 568.986328 169.725176 
L 571.166016 173.108965 
L 571.710938 174.339434 
L 572.255859 175.000811 
L 572.800781 175.990312 
L 573.345703 176.518389 
L 574.435547 177.08748 
L 574.980469 177.010576 
L 575.525391 176.692705 
L 576.070312 176.18001 
L 576.615234 175.47249 
L 577.705078 173.339678 
L 578.794922 170.289141 
L 580.429688 163.865068 
L 582.609375 155.656816 
L 583.154297 154.369951 
L 583.699219 153.472734 
L 584.244141 153.052324 
L 584.789062 152.826738 
L 585.878906 153.81624 
L 587.513672 156.984697 
L 588.603516 159.461016 
L 589.148438 160.773516 
L 590.783203 163.613848 
L 591.873047 164.875078 
L 593.507812 165.32625 
L 594.052734 164.946855 
L 595.6875 162.706377 
L 597.867188 158.097246 
L 598.412109 157.543535 
L 599.501953 156.918047 
L 600.591797 158.086992 
L 601.681641 160.337725 
L 602.771484 163.393389 
L 603.316406 165.069902 
L 604.951172 168.238359 
L 605.496094 168.653643 
L 606.041016 169.294512 
L 607.675781 169.26375 
L 608.220703 168.997148 
L 609.310547 168.115312 
L 610.400391 167.653887 
L 610.945312 167.443682 
L 612.035156 168.099932 
L 612.580078 168.6075 
L 615.304688 173.708818 
L 615.849609 174.626543 
L 616.939453 176.067217 
L 617.484375 176.400469 
L 618.574219 175.846758 
L 619.664062 174.503496 
L 621.298828 170.93001 
L 622.933594 167.874346 
L 623.478516 167.248857 
L 624.023438 166.884844 
L 624.568359 166.966875 
L 625.113281 167.187334 
L 625.658203 167.192461 
L 626.203125 167.612871 
L 627.292969 168.048662 
L 627.837891 168.028154 
L 628.927734 167.582109 
L 630.017578 166.905352 
L 630.5625 166.566973 
L 631.107422 166.028643 
L 632.742188 165.387773 
L 634.921875 165.582598 
L 635.466797 166.028643 
L 636.011719 166.192705 
L 637.101562 167.351396 
L 638.191406 169.31502 
L 639.28125 172.088701 
L 640.916016 177.436113 
L 642.005859 181.445391 
L 643.095703 184.295977 
L 643.640625 185.454668 
L 644.730469 186.203203 
L 645.275391 186.310869 
L 646.365234 185.100908 
L 646.910156 184.034502 
L 647.455078 182.496416 
L 647.455078 182.496416 
" style="fill:none;stroke:#4c72b0;stroke-linecap:round;stroke-width:1.75;"/>
   </g>
   <g id="patch_3">
    <path d="M 90 270.72 
L 90 69.12 
" style="fill:none;stroke:#262626;stroke-linecap:square;stroke-linejoin:miter;stroke-width:1.25;"/>
   </g>
   <g id="patch_4">
    <path d="M 90 270.72 
L 648 270.72 
" style="fill:none;stroke:#262626;stroke-linecap:square;stroke-linejoin:miter;stroke-width:1.25;"/>
   </g>
  </g>
  <g id="axes_2">
   <g id="patch_5">
    <path d="M 90 512.64 
L 648 512.64 
L 648 311.04 
L 90 311.04 
z
" style="fill:#ffffff;"/>
   </g>
   <g id="matplotlib.axis_3">
    <g id="xtick_7">
     <g id="line2d_15">
      <g>
       <use style="fill:#262626;stroke:#262626;" x="218.197478" xlink:href="#m5d02b132fa" y="512.64"/>
      </g>
     </g>
     <g id="text_14">
      <!-- $\mathdefault{10^{2}}$ -->
      <g style="fill:#262626;" transform="translate(210.347478 535.9525)scale(0.1 -0.1)">
       <use transform="translate(0 0.99375)" xlink:href="#ArialMT-31"/>
       <use transform="translate(55.615234 0.99375)" xlink:href="#ArialMT-30"/>
       <use transform="translate(112.972813 70.6875)scale(0.7)" xlink:href="#ArialMT-32"/>
      </g>
     </g>
    </g>
    <g id="xtick_8">
     <g id="line2d_16">
      <g>
       <use style="fill:#262626;stroke:#262626;" x="401.606604" xlink:href="#m5d02b132fa" y="512.64"/>
      </g>
     </g>
     <g id="text_15">
      <!-- $\mathdefault{10^{3}}$ -->
      <defs>
       <path d="M 4.203125 18.890625 
L 12.984375 20.0625 
Q 14.5 12.59375 18.140625 9.296875 
Q 21.78125 6 27 6 
Q 33.203125 6 37.46875 10.296875 
Q 41.75 14.59375 41.75 20.953125 
Q 41.75 27 37.796875 30.921875 
Q 33.84375 34.859375 27.734375 34.859375 
Q 25.25 34.859375 21.53125 33.890625 
L 22.515625 41.609375 
Q 23.390625 41.5 23.921875 41.5 
Q 29.546875 41.5 34.03125 44.421875 
Q 38.53125 47.359375 38.53125 53.46875 
Q 38.53125 58.296875 35.25 61.46875 
Q 31.984375 64.65625 26.8125 64.65625 
Q 21.6875 64.65625 18.265625 61.421875 
Q 14.84375 58.203125 13.875 51.765625 
L 5.078125 53.328125 
Q 6.6875 62.15625 12.390625 67.015625 
Q 18.109375 71.875 26.609375 71.875 
Q 32.46875 71.875 37.390625 69.359375 
Q 42.328125 66.84375 44.9375 62.5 
Q 47.5625 58.15625 47.5625 53.265625 
Q 47.5625 48.640625 45.0625 44.828125 
Q 42.578125 41.015625 37.703125 38.765625 
Q 44.046875 37.3125 47.5625 32.6875 
Q 51.078125 28.078125 51.078125 21.140625 
Q 51.078125 11.765625 44.234375 5.25 
Q 37.40625 -1.265625 26.953125 -1.265625 
Q 17.53125 -1.265625 11.296875 4.34375 
Q 5.078125 9.96875 4.203125 18.890625 
z
" id="ArialMT-33"/>
      </defs>
      <g style="fill:#262626;" transform="translate(393.756604 535.9525)scale(0.1 -0.1)">
       <use transform="translate(0 0.99375)" xlink:href="#ArialMT-31"/>
       <use transform="translate(55.615234 0.99375)" xlink:href="#ArialMT-30"/>
       <use transform="translate(112.972813 70.6875)scale(0.7)" xlink:href="#ArialMT-33"/>
      </g>
     </g>
    </g>
    <g id="xtick_9">
     <g id="line2d_17">
      <g>
       <use style="fill:#262626;stroke:#262626;" x="585.01573" xlink:href="#m5d02b132fa" y="512.64"/>
      </g>
     </g>
     <g id="text_16">
      <!-- $\mathdefault{10^{4}}$ -->
      <g style="fill:#262626;" transform="translate(577.16573 535.8525)scale(0.1 -0.1)">
       <use transform="translate(0 0.201563)" xlink:href="#ArialMT-31"/>
       <use transform="translate(55.615234 0.201563)" xlink:href="#ArialMT-30"/>
       <use transform="translate(112.972813 69.895313)scale(0.7)" xlink:href="#ArialMT-34"/>
      </g>
     </g>
    </g>
    <g id="xtick_10">
     <g id="line2d_18">
      <defs>
       <path d="M 0 0 
L 0 3 
" id="m5179d43f88" style="stroke:#262626;stroke-width:0.5;"/>
      </defs>
      <g>
       <use style="fill:#262626;stroke:#262626;stroke-width:0.5;" x="90" xlink:href="#m5179d43f88" y="512.64"/>
      </g>
     </g>
    </g>
    <g id="xtick_11">
     <g id="line2d_19">
      <g>
       <use style="fill:#262626;stroke:#262626;stroke-width:0.5;" x="122.296744" xlink:href="#m5179d43f88" y="512.64"/>
      </g>
     </g>
    </g>
    <g id="xtick_12">
     <g id="line2d_20">
      <g>
       <use style="fill:#262626;stroke:#262626;stroke-width:0.5;" x="145.211648" xlink:href="#m5179d43f88" y="512.64"/>
      </g>
     </g>
    </g>
    <g id="xtick_13">
     <g id="line2d_21">
      <g>
       <use style="fill:#262626;stroke:#262626;stroke-width:0.5;" x="162.985829" xlink:href="#m5179d43f88" y="512.64"/>
      </g>
     </g>
    </g>
    <g id="xtick_14">
     <g id="line2d_22">
      <g>
       <use style="fill:#262626;stroke:#262626;stroke-width:0.5;" x="177.508392" xlink:href="#m5179d43f88" y="512.64"/>
      </g>
     </g>
    </g>
    <g id="xtick_15">
     <g id="line2d_23">
      <g>
       <use style="fill:#262626;stroke:#262626;stroke-width:0.5;" x="189.787045" xlink:href="#m5179d43f88" y="512.64"/>
      </g>
     </g>
    </g>
    <g id="xtick_16">
     <g id="line2d_24">
      <g>
       <use style="fill:#262626;stroke:#262626;stroke-width:0.5;" x="200.423297" xlink:href="#m5179d43f88" y="512.64"/>
      </g>
     </g>
    </g>
    <g id="xtick_17">
     <g id="line2d_25">
      <g>
       <use style="fill:#262626;stroke:#262626;stroke-width:0.5;" x="209.805136" xlink:href="#m5179d43f88" y="512.64"/>
      </g>
     </g>
    </g>
    <g id="xtick_18">
     <g id="line2d_26">
      <g>
       <use style="fill:#262626;stroke:#262626;stroke-width:0.5;" x="273.409126" xlink:href="#m5179d43f88" y="512.64"/>
      </g>
     </g>
    </g>
    <g id="xtick_19">
     <g id="line2d_27">
      <g>
       <use style="fill:#262626;stroke:#262626;stroke-width:0.5;" x="305.70587" xlink:href="#m5179d43f88" y="512.64"/>
      </g>
     </g>
    </g>
    <g id="xtick_20">
     <g id="line2d_28">
      <g>
       <use style="fill:#262626;stroke:#262626;stroke-width:0.5;" x="328.620775" xlink:href="#m5179d43f88" y="512.64"/>
      </g>
     </g>
    </g>
    <g id="xtick_21">
     <g id="line2d_29">
      <g>
       <use style="fill:#262626;stroke:#262626;stroke-width:0.5;" x="346.394955" xlink:href="#m5179d43f88" y="512.64"/>
      </g>
     </g>
    </g>
    <g id="xtick_22">
     <g id="line2d_30">
      <g>
       <use style="fill:#262626;stroke:#262626;stroke-width:0.5;" x="360.917518" xlink:href="#m5179d43f88" y="512.64"/>
      </g>
     </g>
    </g>
    <g id="xtick_23">
     <g id="line2d_31">
      <g>
       <use style="fill:#262626;stroke:#262626;stroke-width:0.5;" x="373.196171" xlink:href="#m5179d43f88" y="512.64"/>
      </g>
     </g>
    </g>
    <g id="xtick_24">
     <g id="line2d_32">
      <g>
       <use style="fill:#262626;stroke:#262626;stroke-width:0.5;" x="383.832423" xlink:href="#m5179d43f88" y="512.64"/>
      </g>
     </g>
    </g>
    <g id="xtick_25">
     <g id="line2d_33">
      <g>
       <use style="fill:#262626;stroke:#262626;stroke-width:0.5;" x="393.214262" xlink:href="#m5179d43f88" y="512.64"/>
      </g>
     </g>
    </g>
    <g id="xtick_26">
     <g id="line2d_34">
      <g>
       <use style="fill:#262626;stroke:#262626;stroke-width:0.5;" x="456.818252" xlink:href="#m5179d43f88" y="512.64"/>
      </g>
     </g>
    </g>
    <g id="xtick_27">
     <g id="line2d_35">
      <g>
       <use style="fill:#262626;stroke:#262626;stroke-width:0.5;" x="489.114996" xlink:href="#m5179d43f88" y="512.64"/>
      </g>
     </g>
    </g>
    <g id="xtick_28">
     <g id="line2d_36">
      <g>
       <use style="fill:#262626;stroke:#262626;stroke-width:0.5;" x="512.029901" xlink:href="#m5179d43f88" y="512.64"/>
      </g>
     </g>
    </g>
    <g id="xtick_29">
     <g id="line2d_37">
      <g>
       <use style="fill:#262626;stroke:#262626;stroke-width:0.5;" x="529.804081" xlink:href="#m5179d43f88" y="512.64"/>
      </g>
     </g>
    </g>
    <g id="xtick_30">
     <g id="line2d_38">
      <g>
       <use style="fill:#262626;stroke:#262626;stroke-width:0.5;" x="544.326645" xlink:href="#m5179d43f88" y="512.64"/>
      </g>
     </g>
    </g>
    <g id="xtick_31">
     <g id="line2d_39">
      <g>
       <use style="fill:#262626;stroke:#262626;stroke-width:0.5;" x="556.605297" xlink:href="#m5179d43f88" y="512.64"/>
      </g>
     </g>
    </g>
    <g id="xtick_32">
     <g id="line2d_40">
      <g>
       <use style="fill:#262626;stroke:#262626;stroke-width:0.5;" x="567.241549" xlink:href="#m5179d43f88" y="512.64"/>
      </g>
     </g>
    </g>
    <g id="xtick_33">
     <g id="line2d_41">
      <g>
       <use style="fill:#262626;stroke:#262626;stroke-width:0.5;" x="576.623389" xlink:href="#m5179d43f88" y="512.64"/>
      </g>
     </g>
    </g>
    <g id="xtick_34">
     <g id="line2d_42">
      <g>
       <use style="fill:#262626;stroke:#262626;stroke-width:0.5;" x="640.227378" xlink:href="#m5179d43f88" y="512.64"/>
      </g>
     </g>
    </g>
   </g>
   <g id="matplotlib.axis_4">
    <g id="ytick_8">
     <g id="line2d_43">
      <g>
       <use style="fill:#262626;stroke:#262626;" x="90" xlink:href="#m3650bc7835" y="512.64"/>
      </g>
     </g>
     <g id="text_17">
      <!-- $\mathdefault{10^{-5}}$ -->
      <defs>
       <path d="M 4.15625 18.75 
L 13.375 19.53125 
Q 14.40625 12.796875 18.140625 9.390625 
Q 21.875 6 27.15625 6 
Q 33.5 6 37.890625 10.78125 
Q 42.28125 15.578125 42.28125 23.484375 
Q 42.28125 31 38.0625 35.34375 
Q 33.84375 39.703125 27 39.703125 
Q 22.75 39.703125 19.328125 37.765625 
Q 15.921875 35.84375 13.96875 32.765625 
L 5.71875 33.84375 
L 12.640625 70.609375 
L 48.25 70.609375 
L 48.25 62.203125 
L 19.671875 62.203125 
L 15.828125 42.96875 
Q 22.265625 47.46875 29.34375 47.46875 
Q 38.71875 47.46875 45.15625 40.96875 
Q 51.609375 34.46875 51.609375 24.265625 
Q 51.609375 14.546875 45.953125 7.46875 
Q 39.0625 -1.21875 27.15625 -1.21875 
Q 17.390625 -1.21875 11.203125 4.25 
Q 5.03125 9.71875 4.15625 18.75 
z
" id="ArialMT-35"/>
      </defs>
      <g style="fill:#262626;" transform="translate(57.2 517.74625)scale(0.1 -0.1)">
       <use transform="translate(0 0.879688)" xlink:href="#ArialMT-31"/>
       <use transform="translate(55.615234 0.879688)" xlink:href="#ArialMT-30"/>
       <use transform="translate(112.972813 70.573438)scale(0.7)" xlink:href="#ArialMT-2212"/>
       <use transform="translate(153.851719 70.573438)scale(0.7)" xlink:href="#ArialMT-35"/>
      </g>
     </g>
    </g>
    <g id="ytick_9">
     <g id="line2d_44">
      <g>
       <use style="fill:#262626;stroke:#262626;" x="90" xlink:href="#m3650bc7835" y="465.767507"/>
      </g>
     </g>
     <g id="text_18">
      <!-- $\mathdefault{10^{-4}}$ -->
      <g style="fill:#262626;" transform="translate(57.2 470.873757)scale(0.1 -0.1)">
       <use transform="translate(0 0.201563)" xlink:href="#ArialMT-31"/>
       <use transform="translate(55.615234 0.201563)" xlink:href="#ArialMT-30"/>
       <use transform="translate(112.972813 69.895313)scale(0.7)" xlink:href="#ArialMT-2212"/>
       <use transform="translate(153.851719 69.895313)scale(0.7)" xlink:href="#ArialMT-34"/>
      </g>
     </g>
    </g>
    <g id="ytick_10">
     <g id="line2d_45">
      <g>
       <use style="fill:#262626;stroke:#262626;" x="90" xlink:href="#m3650bc7835" y="418.895013"/>
      </g>
     </g>
     <g id="text_19">
      <!-- $\mathdefault{10^{-3}}$ -->
      <g style="fill:#262626;" transform="translate(57.2 424.051263)scale(0.1 -0.1)">
       <use transform="translate(0 0.99375)" xlink:href="#ArialMT-31"/>
       <use transform="translate(55.615234 0.99375)" xlink:href="#ArialMT-30"/>
       <use transform="translate(112.972813 70.6875)scale(0.7)" xlink:href="#ArialMT-2212"/>
       <use transform="translate(153.851719 70.6875)scale(0.7)" xlink:href="#ArialMT-33"/>
      </g>
     </g>
    </g>
    <g id="ytick_11">
     <g id="line2d_46">
      <g>
       <use style="fill:#262626;stroke:#262626;" x="90" xlink:href="#m3650bc7835" y="372.02252"/>
      </g>
     </g>
     <g id="text_20">
      <!-- $\mathdefault{10^{-2}}$ -->
      <g style="fill:#262626;" transform="translate(57.2 377.17877)scale(0.1 -0.1)">
       <use transform="translate(0 0.99375)" xlink:href="#ArialMT-31"/>
       <use transform="translate(55.615234 0.99375)" xlink:href="#ArialMT-30"/>
       <use transform="translate(112.972813 70.6875)scale(0.7)" xlink:href="#ArialMT-2212"/>
       <use transform="translate(153.851719 70.6875)scale(0.7)" xlink:href="#ArialMT-32"/>
      </g>
     </g>
    </g>
    <g id="ytick_12">
     <g id="line2d_47">
      <g>
       <use style="fill:#262626;stroke:#262626;" x="90" xlink:href="#m3650bc7835" y="325.150026"/>
      </g>
     </g>
     <g id="text_21">
      <!-- $\mathdefault{10^{-1}}$ -->
      <g style="fill:#262626;" transform="translate(57.2 330.306276)scale(0.1 -0.1)">
       <use transform="translate(0 0.99375)" xlink:href="#ArialMT-31"/>
       <use transform="translate(55.615234 0.99375)" xlink:href="#ArialMT-30"/>
       <use transform="translate(112.972813 70.6875)scale(0.7)" xlink:href="#ArialMT-2212"/>
       <use transform="translate(153.851719 70.6875)scale(0.7)" xlink:href="#ArialMT-31"/>
      </g>
     </g>
    </g>
    <g id="ytick_13">
     <g id="line2d_48">
      <defs>
       <path d="M 0 0 
L -3 0 
" id="mf77ce3bfae" style="stroke:#262626;stroke-width:0.5;"/>
      </defs>
      <g>
       <use style="fill:#262626;stroke:#262626;stroke-width:0.5;" x="90" xlink:href="#mf77ce3bfae" y="498.529974"/>
      </g>
     </g>
    </g>
    <g id="ytick_14">
     <g id="line2d_49">
      <g>
       <use style="fill:#262626;stroke:#262626;stroke-width:0.5;" x="90" xlink:href="#mf77ce3bfae" y="490.276137"/>
      </g>
     </g>
    </g>
    <g id="ytick_15">
     <g id="line2d_50">
      <g>
       <use style="fill:#262626;stroke:#262626;stroke-width:0.5;" x="90" xlink:href="#mf77ce3bfae" y="484.419947"/>
      </g>
     </g>
    </g>
    <g id="ytick_16">
     <g id="line2d_51">
      <g>
       <use style="fill:#262626;stroke:#262626;stroke-width:0.5;" x="90" xlink:href="#mf77ce3bfae" y="479.877533"/>
      </g>
     </g>
    </g>
    <g id="ytick_17">
     <g id="line2d_52">
      <g>
       <use style="fill:#262626;stroke:#262626;stroke-width:0.5;" x="90" xlink:href="#mf77ce3bfae" y="476.166111"/>
      </g>
     </g>
    </g>
    <g id="ytick_18">
     <g id="line2d_53">
      <g>
       <use style="fill:#262626;stroke:#262626;stroke-width:0.5;" x="90" xlink:href="#mf77ce3bfae" y="473.028148"/>
      </g>
     </g>
    </g>
    <g id="ytick_19">
     <g id="line2d_54">
      <g>
       <use style="fill:#262626;stroke:#262626;stroke-width:0.5;" x="90" xlink:href="#mf77ce3bfae" y="470.309921"/>
      </g>
     </g>
    </g>
    <g id="ytick_20">
     <g id="line2d_55">
      <g>
       <use style="fill:#262626;stroke:#262626;stroke-width:0.5;" x="90" xlink:href="#mf77ce3bfae" y="467.912274"/>
      </g>
     </g>
    </g>
    <g id="ytick_21">
     <g id="line2d_56">
      <g>
       <use style="fill:#262626;stroke:#262626;stroke-width:0.5;" x="90" xlink:href="#mf77ce3bfae" y="451.65748"/>
      </g>
     </g>
    </g>
    <g id="ytick_22">
     <g id="line2d_57">
      <g>
       <use style="fill:#262626;stroke:#262626;stroke-width:0.5;" x="90" xlink:href="#mf77ce3bfae" y="443.403644"/>
      </g>
     </g>
    </g>
    <g id="ytick_23">
     <g id="line2d_58">
      <g>
       <use style="fill:#262626;stroke:#262626;stroke-width:0.5;" x="90" xlink:href="#mf77ce3bfae" y="437.547454"/>
      </g>
     </g>
    </g>
    <g id="ytick_24">
     <g id="line2d_59">
      <g>
       <use style="fill:#262626;stroke:#262626;stroke-width:0.5;" x="90" xlink:href="#mf77ce3bfae" y="433.00504"/>
      </g>
     </g>
    </g>
    <g id="ytick_25">
     <g id="line2d_60">
      <g>
       <use style="fill:#262626;stroke:#262626;stroke-width:0.5;" x="90" xlink:href="#mf77ce3bfae" y="429.293617"/>
      </g>
     </g>
    </g>
    <g id="ytick_26">
     <g id="line2d_61">
      <g>
       <use style="fill:#262626;stroke:#262626;stroke-width:0.5;" x="90" xlink:href="#mf77ce3bfae" y="426.155654"/>
      </g>
     </g>
    </g>
    <g id="ytick_27">
     <g id="line2d_62">
      <g>
       <use style="fill:#262626;stroke:#262626;stroke-width:0.5;" x="90" xlink:href="#mf77ce3bfae" y="423.437427"/>
      </g>
     </g>
    </g>
    <g id="ytick_28">
     <g id="line2d_63">
      <g>
       <use style="fill:#262626;stroke:#262626;stroke-width:0.5;" x="90" xlink:href="#mf77ce3bfae" y="421.039781"/>
      </g>
     </g>
    </g>
    <g id="ytick_29">
     <g id="line2d_64">
      <g>
       <use style="fill:#262626;stroke:#262626;stroke-width:0.5;" x="90" xlink:href="#mf77ce3bfae" y="404.784987"/>
      </g>
     </g>
    </g>
    <g id="ytick_30">
     <g id="line2d_65">
      <g>
       <use style="fill:#262626;stroke:#262626;stroke-width:0.5;" x="90" xlink:href="#mf77ce3bfae" y="396.53115"/>
      </g>
     </g>
    </g>
    <g id="ytick_31">
     <g id="line2d_66">
      <g>
       <use style="fill:#262626;stroke:#262626;stroke-width:0.5;" x="90" xlink:href="#mf77ce3bfae" y="390.67496"/>
      </g>
     </g>
    </g>
    <g id="ytick_32">
     <g id="line2d_67">
      <g>
       <use style="fill:#262626;stroke:#262626;stroke-width:0.5;" x="90" xlink:href="#mf77ce3bfae" y="386.132546"/>
      </g>
     </g>
    </g>
    <g id="ytick_33">
     <g id="line2d_68">
      <g>
       <use style="fill:#262626;stroke:#262626;stroke-width:0.5;" x="90" xlink:href="#mf77ce3bfae" y="382.421124"/>
      </g>
     </g>
    </g>
    <g id="ytick_34">
     <g id="line2d_69">
      <g>
       <use style="fill:#262626;stroke:#262626;stroke-width:0.5;" x="90" xlink:href="#mf77ce3bfae" y="379.283161"/>
      </g>
     </g>
    </g>
    <g id="ytick_35">
     <g id="line2d_70">
      <g>
       <use style="fill:#262626;stroke:#262626;stroke-width:0.5;" x="90" xlink:href="#mf77ce3bfae" y="376.564934"/>
      </g>
     </g>
    </g>
    <g id="ytick_36">
     <g id="line2d_71">
      <g>
       <use style="fill:#262626;stroke:#262626;stroke-width:0.5;" x="90" xlink:href="#mf77ce3bfae" y="374.167288"/>
      </g>
     </g>
    </g>
    <g id="ytick_37">
     <g id="line2d_72">
      <g>
       <use style="fill:#262626;stroke:#262626;stroke-width:0.5;" x="90" xlink:href="#mf77ce3bfae" y="357.912493"/>
      </g>
     </g>
    </g>
    <g id="ytick_38">
     <g id="line2d_73">
      <g>
       <use style="fill:#262626;stroke:#262626;stroke-width:0.5;" x="90" xlink:href="#mf77ce3bfae" y="349.658657"/>
      </g>
     </g>
    </g>
    <g id="ytick_39">
     <g id="line2d_74">
      <g>
       <use style="fill:#262626;stroke:#262626;stroke-width:0.5;" x="90" xlink:href="#mf77ce3bfae" y="343.802467"/>
      </g>
     </g>
    </g>
    <g id="ytick_40">
     <g id="line2d_75">
      <g>
       <use style="fill:#262626;stroke:#262626;stroke-width:0.5;" x="90" xlink:href="#mf77ce3bfae" y="339.260053"/>
      </g>
     </g>
    </g>
    <g id="ytick_41">
     <g id="line2d_76">
      <g>
       <use style="fill:#262626;stroke:#262626;stroke-width:0.5;" x="90" xlink:href="#mf77ce3bfae" y="335.548631"/>
      </g>
     </g>
    </g>
    <g id="ytick_42">
     <g id="line2d_77">
      <g>
       <use style="fill:#262626;stroke:#262626;stroke-width:0.5;" x="90" xlink:href="#mf77ce3bfae" y="332.410668"/>
      </g>
     </g>
    </g>
    <g id="ytick_43">
     <g id="line2d_78">
      <g>
       <use style="fill:#262626;stroke:#262626;stroke-width:0.5;" x="90" xlink:href="#mf77ce3bfae" y="329.69244"/>
      </g>
     </g>
    </g>
    <g id="ytick_44">
     <g id="line2d_79">
      <g>
       <use style="fill:#262626;stroke:#262626;stroke-width:0.5;" x="90" xlink:href="#mf77ce3bfae" y="327.294794"/>
      </g>
     </g>
    </g>
    <g id="ytick_45">
     <g id="line2d_80">
      <g>
       <use style="fill:#262626;stroke:#262626;stroke-width:0.5;" x="90" xlink:href="#mf77ce3bfae" y="311.04"/>
      </g>
     </g>
    </g>
   </g>
   <g id="line2d_81">
    <path clip-path="url(#pc11a6440c7)" d="M -1 401.425992 
L 151.095164 401.453722 
L 206.306812 427.144869 
L 238.603556 416.471275 
L 261.518461 414.708736 
L 279.292642 416.21223 
L 293.815205 362.522363 
L 306.093857 436.266378 
L 316.730109 428.624606 
L 326.111949 437.028113 
L 334.50429 424.3134 
L 342.096086 424.298729 
L 349.026853 375.073685 
L 355.402541 408.542945 
L 361.305505 413.234371 
L 371.941758 409.281042 
L 376.770725 402.201389 
L 381.323597 371.001212 
L 385.630245 424.720678 
L 389.715939 436.767432 
L 393.602249 420.461069 
L 397.307735 410.444152 
L 400.848476 397.943383 
L 404.238502 362.942227 
L 407.490119 388.809663 
L 410.614189 405.10208 
L 413.620341 411.905747 
L 416.517154 410.81391 
L 419.312303 401.729483 
L 422.012683 374.876632 
L 424.624509 388.227918 
L 427.153406 406.010019 
L 429.604479 414.66126 
L 431.982374 420.554359 
L 434.291335 419.848856 
L 436.535246 402.44362 
L 438.717672 408.578397 
L 440.841893 429.364607 
L 442.910933 430.76371 
L 444.927587 426.335176 
L 446.894442 415.677806 
L 448.813898 394.122691 
L 450.688186 378.866903 
L 452.519383 406.341614 
L 454.309426 416.463128 
L 457.773171 425.662217 
L 459.45015 425.866541 
L 461.09255 432.841691 
L 462.701768 441.394157 
L 467.343094 451.420109 
L 468.83199 464.219052 
L 470.293564 407.909583 
L 471.728802 425.751937 
L 473.138637 434.600369 
L 474.523951 441.572136 
L 475.885584 443.396318 
L 477.224331 447.570691 
L 478.540949 450.047065 
L 479.836157 438.82465 
L 481.110642 446.722021 
L 482.365055 443.870844 
L 483.600019 449.15867 
L 484.816127 447.453757 
L 486.013948 459.736708 
L 487.194022 421.027244 
L 488.356869 454.29551 
L 489.502983 456.390499 
L 490.63284 455.819949 
L 491.746894 458.81229 
L 492.845581 450.596217 
L 493.92932 434.475842 
L 494.998512 436.570911 
L 496.053541 450.211001 
L 497.094779 458.012444 
L 498.122582 458.909653 
L 499.137291 456.481619 
L 500.139235 456.660041 
L 501.128734 439.322597 
L 502.10609 461.491793 
L 503.0716 462.293197 
L 504.025546 466.816314 
L 504.968203 463.065328 
L 505.899834 460.084972 
L 506.820695 460.377677 
L 507.731032 470.275498 
L 508.631082 466.916707 
L 509.521075 464.562342 
L 510.401234 468.506619 
L 511.271773 459.53049 
L 512.132901 457.963241 
L 512.984819 454.389883 
L 513.827722 459.301755 
L 514.661799 483.106953 
L 515.487232 477.19286 
L 516.304198 467.706356 
L 517.112871 481.265579 
L 517.913416 471.860636 
L 518.705996 470.945937 
L 519.490766 478.051053 
L 520.26788 476.161704 
L 521.037486 473.928255 
L 521.799727 473.036652 
L 522.554743 471.765959 
L 523.302669 482.31832 
L 524.043638 465.77822 
L 524.777778 488.706144 
L 525.505212 475.160223 
L 526.226064 484.994727 
L 526.940451 472.906513 
L 527.648487 486.136296 
L 528.350285 502.513158 
L 529.045954 480.955974 
L 529.7356 470.46014 
L 530.419326 470.187721 
L 531.097232 476.659989 
L 531.769418 474.188867 
L 532.435979 473.318807 
L 533.097009 476.781788 
L 533.752597 478.047158 
L 534.402834 485.442736 
L 535.047806 475.066503 
L 535.687597 479.954336 
L 536.32229 480.970815 
L 536.951966 480.75928 
L 537.576703 479.154007 
L 538.196578 488.733668 
L 538.811667 488.081522 
L 539.422042 471.464021 
L 540.027776 479.469369 
L 540.628938 484.109854 
L 541.225596 475.519427 
L 541.817819 481.773586 
L 542.405671 476.170284 
L 542.989216 473.367206 
L 543.568517 483.163108 
L 544.143636 478.046833 
L 544.714632 480.065686 
L 545.281563 485.254315 
L 545.844488 483.048091 
L 546.403463 477.873232 
L 546.958543 474.821405 
L 547.509781 477.800381 
L 548.05723 491.957449 
L 548.600942 484.80956 
L 549.140969 487.167783 
L 549.677358 506.478863 
L 550.21016 481.519529 
L 550.739422 483.587458 
L 551.26519 476.504809 
L 551.78751 485.534551 
L 552.306428 484.563074 
L 552.821987 476.483916 
L 553.33423 484.08035 
L 553.8432 485.335286 
L 554.348939 476.219915 
L 554.851487 487.428076 
L 555.350884 484.798227 
L 555.847169 498.366221 
L 556.340382 484.891545 
L 556.830559 486.517471 
L 557.317739 484.202886 
L 557.801956 480.596585 
L 558.283248 497.851257 
L 558.76165 482.346849 
L 559.237195 495.076373 
L 559.709918 485.684921 
L 560.179852 479.876368 
L 560.647029 483.079865 
L 561.111483 485.043593 
L 561.573244 479.13963 
L 562.032344 488.193256 
L 562.488812 490.026268 
L 562.94268 482.53071 
L 563.393976 490.998084 
L 563.84273 489.233614 
L 564.28897 480.948377 
L 565.174019 498.020415 
L 565.612882 480.117472 
L 566.049341 485.113423 
L 566.483422 502.727786 
L 566.91515 502.136026 
L 567.34455 494.735855 
L 567.771648 481.993175 
L 568.196468 494.582904 
L 568.619034 484.49012 
L 569.039371 509.396057 
L 569.457501 483.347178 
L 569.873447 496.032581 
L 570.287233 493.973328 
L 570.69888 509.004137 
L 571.108411 490.691953 
L 571.515847 493.848103 
L 571.921209 504.324837 
L 572.32452 490.875078 
L 572.725798 486.599767 
L 573.125065 502.293096 
L 573.52234 479.931543 
L 573.917644 484.305944 
L 574.310996 482.381556 
L 574.702415 487.857575 
L 575.091919 489.423361 
L 575.865261 501.538106 
L 576.249135 487.799577 
L 576.631167 495.447964 
L 577.011376 490.036335 
L 577.389778 491.544628 
L 577.766391 500.773703 
L 578.141232 489.167407 
L 578.514318 497.674263 
L 578.885664 490.799427 
L 579.255287 486.292576 
L 579.623202 509.297175 
L 579.989426 485.022272 
L 580.353974 488.878521 
L 580.716861 485.082696 
L 581.078102 479.850806 
L 581.437713 520.876297 
L 582.152099 486.995356 
L 582.506904 539.307868 
L 582.860136 487.344271 
L 583.211808 491.185583 
L 583.561934 490.279836 
L 583.910528 484.746374 
L 584.257603 498.14369 
L 584.603172 481.003567 
L 584.947248 504.042116 
L 585.289845 488.266594 
L 585.630974 481.526082 
L 585.970649 542.7028 
L 586.308881 503.001302 
L 586.645683 495.245202 
L 586.981067 515.344582 
L 587.315045 484.357046 
L 587.647628 495.062575 
L 587.978828 483.349241 
L 588.308657 487.124506 
L 588.637126 482.226208 
L 588.964246 488.057074 
L 589.290028 500.216934 
L 589.614483 500.655131 
L 589.937621 496.657366 
L 590.259454 482.058625 
L 590.579992 512.10697 
L 591.217224 505.47173 
L 591.533939 489.179221 
L 591.849399 496.41802 
L 592.163614 488.231006 
L 592.788352 484.108164 
L 593.408227 506.070727 
L 594.023315 495.790724 
L 594.329088 493.878753 
L 594.633691 485.360193 
L 594.937133 502.448206 
L 595.239424 507.605165 
L 595.540572 523.109515 
L 596.139474 490.657389 
L 596.437245 493.040241 
L 596.733906 492.341058 
L 597.029467 507.281502 
L 597.323936 502.064967 
L 597.617319 512.16369 
L 598.200864 491.538453 
L 598.491042 518.872159 
L 598.780166 503.635056 
L 599.068244 508.343368 
L 599.355284 483.208226 
L 599.641294 514.225014 
L 600.21025 483.984019 
L 600.493212 494.953326 
L 600.775172 486.705623 
L 601.056137 490.810276 
L 601.336115 488.938784 
L 601.615112 491.667897 
L 601.893135 488.134433 
L 602.170191 507.849182 
L 602.446287 502.073435 
L 602.721429 486.469183 
L 602.995624 491.921011 
L 603.268878 493.064909 
L 603.541199 492.428605 
L 603.812591 521.966413 
L 604.083062 483.533341 
L 604.352617 493.997619 
L 604.621264 478.80363 
L 604.889007 501.115989 
L 605.155853 494.380576 
L 605.421809 497.084698 
L 605.686879 487.191586 
L 605.95107 486.706478 
L 606.214388 493.662274 
L 606.476838 494.113317 
L 606.738427 496.801236 
L 607.25904 512.33385 
L 607.518076 509.049056 
L 607.776273 494.595446 
L 608.033635 511.053164 
L 608.290169 498.207371 
L 608.545879 493.056857 
L 608.80077 505.653029 
L 609.054849 490.905542 
L 609.308119 494.399785 
L 609.560587 493.45133 
L 609.812258 498.59381 
L 610.063135 490.291803 
L 610.313225 501.936243 
L 610.562532 493.825048 
L 610.811062 522.857491 
L 611.058818 499.699772 
L 611.305806 491.948482 
L 611.55203 508.017882 
L 611.797496 511.950391 
L 612.042208 527.023106 
L 612.529387 496.435185 
L 612.771864 494.021084 
L 613.013605 486.923756 
L 613.254614 487.702582 
L 613.494897 498.220249 
L 613.734457 539.780631 
L 613.973298 501.819869 
L 614.211426 494.874294 
L 614.448843 517.488581 
L 614.685555 500.243508 
L 614.921566 509.927388 
L 615.15688 489.208092 
L 615.3915 510.065333 
L 615.625431 514.183059 
L 615.858678 491.591438 
L 616.091243 500.891012 
L 616.323131 504.052246 
L 616.554347 503.56437 
L 616.784892 512.864326 
L 617.014773 494.770757 
L 617.243992 501.025065 
L 617.472553 490.497254 
L 617.700461 519.318612 
L 617.927718 506.218135 
L 618.154329 502.268179 
L 618.380296 489.827922 
L 618.830318 482.754859 
L 619.054379 489.208098 
L 619.277811 500.266371 
L 619.722804 481.829088 
L 619.944372 486.503845 
L 620.165325 505.565119 
L 620.385667 489.227561 
L 620.605401 497.805096 
L 621.043059 493.066594 
L 621.26099 480.007816 
L 621.69507 494.590584 
L 621.911227 493.08352 
L 622.126798 490.732848 
L 622.341787 497.302494 
L 622.556198 486.754695 
L 622.770034 496.386859 
L 622.983296 511.450832 
L 623.195989 509.033005 
L 623.408116 500.491886 
L 623.61968 503.800944 
L 623.830683 504.889979 
L 624.041128 513.741385 
L 624.460358 480.701622 
L 624.669149 503.504247 
L 624.877394 499.554153 
L 625.085096 490.405193 
L 625.292257 512.381129 
L 625.498881 494.159524 
L 625.704971 494.798356 
L 625.910528 491.261105 
L 626.320059 529.597161 
L 626.524038 493.656287 
L 626.727495 496.260302 
L 626.930435 492.017688 
L 627.132858 492.984637 
L 627.334768 499.067462 
L 627.536168 501.476264 
L 627.73706 485.042715 
L 627.937446 519.617244 
L 628.13733 498.996098 
L 628.336713 525.224705 
L 628.535599 492.937902 
L 628.931886 527.17962 
L 629.129293 483.509343 
L 629.326211 496.05278 
L 629.522644 484.924775 
L 629.914063 509.015742 
L 630.109054 494.021098 
L 630.303568 507.560327 
L 630.497608 506.936451 
L 630.691177 490.222115 
L 630.884277 490.820395 
L 631.07691 489.088773 
L 631.269078 512.23772 
L 631.460783 506.805542 
L 631.652028 479.147856 
L 631.842815 502.888334 
L 632.033146 508.670326 
L 632.223024 510.037802 
L 632.41245 514.151491 
L 632.789956 482.459356 
L 632.97804 485.955359 
L 633.165681 479.038366 
L 633.539642 523.328021 
L 633.911856 492.625613 
L 634.097312 510.011972 
L 634.282338 479.681322 
L 634.466935 511.471965 
L 634.651105 488.61763 
L 634.83485 489.892377 
L 635.018173 520.558049 
L 635.201074 507.910998 
L 635.383557 507.783108 
L 635.565622 506.914365 
L 635.928509 499.018655 
L 636.289751 485.287221 
L 636.469759 518.93235 
L 636.649361 513.309731 
L 637.007355 486.406853 
L 637.185751 513.793994 
L 637.541348 482.644356 
L 637.718553 509.343669 
L 637.895364 500.961228 
L 638.071784 505.925134 
L 638.247814 490.213113 
L 638.423456 505.147384 
L 638.598712 482.260947 
L 638.773582 505.616814 
L 639.122176 494.754867 
L 639.295903 509.755065 
L 639.469251 494.890282 
L 639.642223 516.097217 
L 639.81482 495.658839 
L 639.987044 500.397192 
L 640.158897 494.91104 
L 640.330379 483.185339 
L 640.501493 492.573293 
L 640.67224 489.347813 
L 640.842622 506.656087 
L 641.012641 539.109237 
L 641.182297 477.730293 
L 641.351593 499.151342 
L 641.520529 496.269379 
L 641.689108 497.941457 
L 641.857331 496.4959 
L 642.0252 493.654223 
L 642.192715 510.684445 
L 642.359879 498.585203 
L 642.526693 495.500377 
L 642.693158 489.693461 
L 642.859276 506.299195 
L 643.025049 492.564014 
L 643.190477 511.223872 
L 643.355562 481.21817 
L 643.520306 485.857225 
L 643.848774 512.892885 
L 644.012502 484.225999 
L 644.175894 512.628815 
L 644.501676 487.881382 
L 644.664069 504.123875 
L 644.826131 480.24405 
L 644.987864 502.887633 
L 645.14927 499.347784 
L 645.310349 491.069197 
L 645.471103 504.671887 
L 645.631533 490.37575 
L 645.791641 496.80336 
L 645.951427 515.721178 
L 646.270042 487.292175 
L 646.428873 495.627548 
L 646.587387 513.055793 
L 646.745587 498.327393 
L 646.903473 502.289421 
L 647.061047 525.558088 
L 647.21831 500.376879 
L 647.375263 497.771997 
L 647.531907 502.402412 
L 647.844274 495.578596 
L 647.844274 495.578596 
" style="fill:none;stroke:#b22222;stroke-linecap:round;stroke-width:1.75;"/>
   </g>
   <g id="patch_6">
    <path d="M 90 512.64 
L 90 311.04 
" style="fill:none;stroke:#262626;stroke-linecap:square;stroke-linejoin:miter;stroke-width:1.25;"/>
   </g>
   <g id="patch_7">
    <path d="M 90 512.64 
L 648 512.64 
" style="fill:none;stroke:#262626;stroke-linecap:square;stroke-linejoin:miter;stroke-width:1.25;"/>
   </g>
  </g>
 </g>
 <defs>
  <clipPath id="pef01898747">
   <rect height="201.6" width="558" x="90" y="69.12"/>
  </clipPath>
  <clipPath id="pc11a6440c7">
   <rect height="201.6" width="558" x="90" y="311.04"/>
  </clipPath>
 </defs>
</svg>
