<?xml version="1.0" encoding="utf-8" standalone="no"?>
<!DOCTYPE svg PUBLIC "-//W3C//DTD SVG 1.1//EN"
  "http://www.w3.org/Graphics/SVG/1.1/DTD/svg11.dtd">
<!-- Created with matplotlib (http://matplotlib.org/) -->
<svg height="576pt" version="1.1" viewBox="0 0 720 576" width="720pt" xmlns="http://www.w3.org/2000/svg" xmlns:xlink="http://www.w3.org/1999/xlink">
 <defs>
  <style type="text/css">
*{stroke-linecap:butt;stroke-linejoin:round;}
  </style>
 </defs>
 <g id="figure_1">
  <g id="patch_1">
   <path d="M 0 576 
L 720 576 
L 720 0 
L 0 0 
z
" style="fill:#ffffff;"/>
  </g>
  <g id="axes_1">
   <g id="patch_2">
    <path d="M 90 270.72 
L 648 270.72 
L 648 69.12 
L 90 69.12 
z
" style="fill:#ffffff;"/>
   </g>
   <g id="matplotlib.axis_1">
    <g id="xtick_1">
     <g id="line2d_1">
      <defs>
       <path d="M 0 0 
L 0 6 
" id="mc7fbe0fff5" style="stroke:#262626;"/>
      </defs>
      <g>
       <use style="fill:#262626;stroke:#262626;" x="90" xlink:href="#mc7fbe0fff5" y="270.72"/>
      </g>
     </g>
     <g id="text_1">
      <!-- 0 -->
      <defs>
       <path d="M 4.15625 35.296875 
Q 4.15625 48 6.765625 55.734375 
Q 9.375 63.484375 14.515625 67.671875 
Q 19.671875 71.875 27.484375 71.875 
Q 33.25 71.875 37.59375 69.546875 
Q 41.9375 67.234375 44.765625 62.859375 
Q 47.609375 58.5 49.21875 52.21875 
Q 50.828125 45.953125 50.828125 35.296875 
Q 50.828125 22.703125 48.234375 14.96875 
Q 45.65625 7.234375 40.5 3 
Q 35.359375 -1.21875 27.484375 -1.21875 
Q 17.140625 -1.21875 11.234375 6.203125 
Q 4.15625 15.140625 4.15625 35.296875 
z
M 13.1875 35.296875 
Q 13.1875 17.671875 17.3125 11.828125 
Q 21.4375 6 27.484375 6 
Q 33.546875 6 37.671875 11.859375 
Q 41.796875 17.71875 41.796875 35.296875 
Q 41.796875 52.984375 37.671875 58.78125 
Q 33.546875 64.59375 27.390625 64.59375 
Q 21.34375 64.59375 17.71875 59.46875 
Q 13.1875 52.9375 13.1875 35.296875 
z
" id="ArialMT-30"/>
      </defs>
      <g style="fill:#262626;" transform="translate(87.219531 290.877812)scale(0.1 -0.1)">
       <use xlink:href="#ArialMT-30"/>
      </g>
     </g>
    </g>
    <g id="xtick_2">
     <g id="line2d_2">
      <g>
       <use style="fill:#262626;stroke:#262626;" x="198.984375" xlink:href="#mc7fbe0fff5" y="270.72"/>
      </g>
     </g>
     <g id="text_2">
      <!-- 200 -->
      <defs>
       <path d="M 50.34375 8.453125 
L 50.34375 0 
L 3.03125 0 
Q 2.9375 3.171875 4.046875 6.109375 
Q 5.859375 10.9375 9.828125 15.625 
Q 13.8125 20.3125 21.34375 26.46875 
Q 33.015625 36.03125 37.109375 41.625 
Q 41.21875 47.21875 41.21875 52.203125 
Q 41.21875 57.421875 37.46875 61 
Q 33.734375 64.59375 27.734375 64.59375 
Q 21.390625 64.59375 17.578125 60.78125 
Q 13.765625 56.984375 13.71875 50.25 
L 4.6875 51.171875 
Q 5.609375 61.28125 11.65625 66.578125 
Q 17.71875 71.875 27.9375 71.875 
Q 38.234375 71.875 44.234375 66.15625 
Q 50.25 60.453125 50.25 52 
Q 50.25 47.703125 48.484375 43.546875 
Q 46.734375 39.40625 42.65625 34.8125 
Q 38.578125 30.21875 29.109375 22.21875 
Q 21.1875 15.578125 18.9375 13.203125 
Q 16.703125 10.84375 15.234375 8.453125 
z
" id="ArialMT-32"/>
      </defs>
      <g style="fill:#262626;" transform="translate(190.642969 290.877812)scale(0.1 -0.1)">
       <use xlink:href="#ArialMT-32"/>
       <use x="55.615234" xlink:href="#ArialMT-30"/>
       <use x="111.230469" xlink:href="#ArialMT-30"/>
      </g>
     </g>
    </g>
    <g id="xtick_3">
     <g id="line2d_3">
      <g>
       <use style="fill:#262626;stroke:#262626;" x="307.96875" xlink:href="#mc7fbe0fff5" y="270.72"/>
      </g>
     </g>
     <g id="text_3">
      <!-- 400 -->
      <defs>
       <path d="M 32.328125 0 
L 32.328125 17.140625 
L 1.265625 17.140625 
L 1.265625 25.203125 
L 33.9375 71.578125 
L 41.109375 71.578125 
L 41.109375 25.203125 
L 50.78125 25.203125 
L 50.78125 17.140625 
L 41.109375 17.140625 
L 41.109375 0 
z
M 32.328125 25.203125 
L 32.328125 57.46875 
L 9.90625 25.203125 
z
" id="ArialMT-34"/>
      </defs>
      <g style="fill:#262626;" transform="translate(299.627344 290.877812)scale(0.1 -0.1)">
       <use xlink:href="#ArialMT-34"/>
       <use x="55.615234" xlink:href="#ArialMT-30"/>
       <use x="111.230469" xlink:href="#ArialMT-30"/>
      </g>
     </g>
    </g>
    <g id="xtick_4">
     <g id="line2d_4">
      <g>
       <use style="fill:#262626;stroke:#262626;" x="416.953125" xlink:href="#mc7fbe0fff5" y="270.72"/>
      </g>
     </g>
     <g id="text_4">
      <!-- 600 -->
      <defs>
       <path d="M 49.75 54.046875 
L 41.015625 53.375 
Q 39.84375 58.546875 37.703125 60.890625 
Q 34.125 64.65625 28.90625 64.65625 
Q 24.703125 64.65625 21.53125 62.3125 
Q 17.390625 59.28125 14.984375 53.46875 
Q 12.59375 47.65625 12.5 36.921875 
Q 15.671875 41.75 20.265625 44.09375 
Q 24.859375 46.4375 29.890625 46.4375 
Q 38.671875 46.4375 44.84375 39.96875 
Q 51.03125 33.5 51.03125 23.25 
Q 51.03125 16.5 48.125 10.71875 
Q 45.21875 4.9375 40.140625 1.859375 
Q 35.0625 -1.21875 28.609375 -1.21875 
Q 17.625 -1.21875 10.6875 6.859375 
Q 3.765625 14.9375 3.765625 33.5 
Q 3.765625 54.25 11.421875 63.671875 
Q 18.109375 71.875 29.4375 71.875 
Q 37.890625 71.875 43.28125 67.140625 
Q 48.6875 62.40625 49.75 54.046875 
z
M 13.875 23.1875 
Q 13.875 18.65625 15.796875 14.5 
Q 17.71875 10.359375 21.1875 8.171875 
Q 24.65625 6 28.46875 6 
Q 34.03125 6 38.03125 10.484375 
Q 42.046875 14.984375 42.046875 22.703125 
Q 42.046875 30.125 38.078125 34.390625 
Q 34.125 38.671875 28.125 38.671875 
Q 22.171875 38.671875 18.015625 34.390625 
Q 13.875 30.125 13.875 23.1875 
z
" id="ArialMT-36"/>
      </defs>
      <g style="fill:#262626;" transform="translate(408.611719 290.877812)scale(0.1 -0.1)">
       <use xlink:href="#ArialMT-36"/>
       <use x="55.615234" xlink:href="#ArialMT-30"/>
       <use x="111.230469" xlink:href="#ArialMT-30"/>
      </g>
     </g>
    </g>
    <g id="xtick_5">
     <g id="line2d_5">
      <g>
       <use style="fill:#262626;stroke:#262626;" x="525.9375" xlink:href="#mc7fbe0fff5" y="270.72"/>
      </g>
     </g>
     <g id="text_5">
      <!-- 800 -->
      <defs>
       <path d="M 17.671875 38.8125 
Q 12.203125 40.828125 9.5625 44.53125 
Q 6.9375 48.25 6.9375 53.421875 
Q 6.9375 61.234375 12.546875 66.546875 
Q 18.171875 71.875 27.484375 71.875 
Q 36.859375 71.875 42.578125 66.421875 
Q 48.296875 60.984375 48.296875 53.171875 
Q 48.296875 48.1875 45.671875 44.5 
Q 43.0625 40.828125 37.75 38.8125 
Q 44.34375 36.671875 47.78125 31.875 
Q 51.21875 27.09375 51.21875 20.453125 
Q 51.21875 11.28125 44.71875 5.03125 
Q 38.234375 -1.21875 27.640625 -1.21875 
Q 17.046875 -1.21875 10.546875 5.046875 
Q 4.046875 11.328125 4.046875 20.703125 
Q 4.046875 27.6875 7.59375 32.390625 
Q 11.140625 37.109375 17.671875 38.8125 
z
M 15.921875 53.71875 
Q 15.921875 48.640625 19.1875 45.40625 
Q 22.46875 42.1875 27.6875 42.1875 
Q 32.765625 42.1875 36.015625 45.375 
Q 39.265625 48.578125 39.265625 53.21875 
Q 39.265625 58.0625 35.90625 61.359375 
Q 32.5625 64.65625 27.59375 64.65625 
Q 22.5625 64.65625 19.234375 61.421875 
Q 15.921875 58.203125 15.921875 53.71875 
z
M 13.09375 20.65625 
Q 13.09375 16.890625 14.875 13.375 
Q 16.65625 9.859375 20.171875 7.921875 
Q 23.6875 6 27.734375 6 
Q 34.03125 6 38.125 10.046875 
Q 42.234375 14.109375 42.234375 20.359375 
Q 42.234375 26.703125 38.015625 30.859375 
Q 33.796875 35.015625 27.4375 35.015625 
Q 21.234375 35.015625 17.15625 30.90625 
Q 13.09375 26.8125 13.09375 20.65625 
z
" id="ArialMT-38"/>
      </defs>
      <g style="fill:#262626;" transform="translate(517.596094 290.877812)scale(0.1 -0.1)">
       <use xlink:href="#ArialMT-38"/>
       <use x="55.615234" xlink:href="#ArialMT-30"/>
       <use x="111.230469" xlink:href="#ArialMT-30"/>
      </g>
     </g>
    </g>
    <g id="xtick_6">
     <g id="line2d_6">
      <g>
       <use style="fill:#262626;stroke:#262626;" x="634.921875" xlink:href="#mc7fbe0fff5" y="270.72"/>
      </g>
     </g>
     <g id="text_6">
      <!-- 1000 -->
      <defs>
       <path d="M 37.25 0 
L 28.46875 0 
L 28.46875 56 
Q 25.296875 52.984375 20.140625 49.953125 
Q 14.984375 46.921875 10.890625 45.40625 
L 10.890625 53.90625 
Q 18.265625 57.375 23.78125 62.296875 
Q 29.296875 67.234375 31.59375 71.875 
L 37.25 71.875 
z
" id="ArialMT-31"/>
      </defs>
      <g style="fill:#262626;" transform="translate(623.8 290.877812)scale(0.1 -0.1)">
       <use xlink:href="#ArialMT-31"/>
       <use x="55.615234" xlink:href="#ArialMT-30"/>
       <use x="111.230469" xlink:href="#ArialMT-30"/>
       <use x="166.845703" xlink:href="#ArialMT-30"/>
      </g>
     </g>
    </g>
   </g>
   <g id="matplotlib.axis_2">
    <g id="ytick_1">
     <g id="line2d_7">
      <defs>
       <path d="M 0 0 
L -6 0 
" id="mb012abe07a" style="stroke:#262626;"/>
      </defs>
      <g>
       <use style="fill:#262626;stroke:#262626;" x="90" xlink:href="#mb012abe07a" y="270.72"/>
      </g>
     </g>
     <g id="text_7">
      <!-- −0.6 -->
      <defs>
       <path d="M 52.828125 31.203125 
L 5.5625 31.203125 
L 5.5625 39.40625 
L 52.828125 39.40625 
z
" id="ArialMT-2212"/>
       <path d="M 9.078125 0 
L 9.078125 10.015625 
L 19.09375 10.015625 
L 19.09375 0 
z
" id="ArialMT-2e"/>
      </defs>
      <g style="fill:#262626;" transform="translate(57.259375 274.298906)scale(0.1 -0.1)">
       <use xlink:href="#ArialMT-2212"/>
       <use x="58.398438" xlink:href="#ArialMT-30"/>
       <use x="114.013672" xlink:href="#ArialMT-2e"/>
       <use x="141.796875" xlink:href="#ArialMT-36"/>
      </g>
     </g>
    </g>
    <g id="ytick_2">
     <g id="line2d_8">
      <g>
       <use style="fill:#262626;stroke:#262626;" x="90" xlink:href="#mb012abe07a" y="237.12"/>
      </g>
     </g>
     <g id="text_8">
      <!-- −0.4 -->
      <g style="fill:#262626;" transform="translate(57.259375 240.698906)scale(0.1 -0.1)">
       <use xlink:href="#ArialMT-2212"/>
       <use x="58.398438" xlink:href="#ArialMT-30"/>
       <use x="114.013672" xlink:href="#ArialMT-2e"/>
       <use x="141.796875" xlink:href="#ArialMT-34"/>
      </g>
     </g>
    </g>
    <g id="ytick_3">
     <g id="line2d_9">
      <g>
       <use style="fill:#262626;stroke:#262626;" x="90" xlink:href="#mb012abe07a" y="203.52"/>
      </g>
     </g>
     <g id="text_9">
      <!-- −0.2 -->
      <g style="fill:#262626;" transform="translate(57.259375 207.098906)scale(0.1 -0.1)">
       <use xlink:href="#ArialMT-2212"/>
       <use x="58.398438" xlink:href="#ArialMT-30"/>
       <use x="114.013672" xlink:href="#ArialMT-2e"/>
       <use x="141.796875" xlink:href="#ArialMT-32"/>
      </g>
     </g>
    </g>
    <g id="ytick_4">
     <g id="line2d_10">
      <g>
       <use style="fill:#262626;stroke:#262626;" x="90" xlink:href="#mb012abe07a" y="169.92"/>
      </g>
     </g>
     <g id="text_10">
      <!-- 0.0 -->
      <g style="fill:#262626;" transform="translate(63.1 173.498906)scale(0.1 -0.1)">
       <use xlink:href="#ArialMT-30"/>
       <use x="55.615234" xlink:href="#ArialMT-2e"/>
       <use x="83.398438" xlink:href="#ArialMT-30"/>
      </g>
     </g>
    </g>
    <g id="ytick_5">
     <g id="line2d_11">
      <g>
       <use style="fill:#262626;stroke:#262626;" x="90" xlink:href="#mb012abe07a" y="136.32"/>
      </g>
     </g>
     <g id="text_11">
      <!-- 0.2 -->
      <g style="fill:#262626;" transform="translate(63.1 139.898906)scale(0.1 -0.1)">
       <use xlink:href="#ArialMT-30"/>
       <use x="55.615234" xlink:href="#ArialMT-2e"/>
       <use x="83.398438" xlink:href="#ArialMT-32"/>
      </g>
     </g>
    </g>
    <g id="ytick_6">
     <g id="line2d_12">
      <g>
       <use style="fill:#262626;stroke:#262626;" x="90" xlink:href="#mb012abe07a" y="102.72"/>
      </g>
     </g>
     <g id="text_12">
      <!-- 0.4 -->
      <g style="fill:#262626;" transform="translate(63.1 106.298906)scale(0.1 -0.1)">
       <use xlink:href="#ArialMT-30"/>
       <use x="55.615234" xlink:href="#ArialMT-2e"/>
       <use x="83.398438" xlink:href="#ArialMT-34"/>
      </g>
     </g>
    </g>
    <g id="ytick_7">
     <g id="line2d_13">
      <g>
       <use style="fill:#262626;stroke:#262626;" x="90" xlink:href="#mb012abe07a" y="69.12"/>
      </g>
     </g>
     <g id="text_13">
      <!-- 0.6 -->
      <g style="fill:#262626;" transform="translate(63.1 72.698906)scale(0.1 -0.1)">
       <use xlink:href="#ArialMT-30"/>
       <use x="55.615234" xlink:href="#ArialMT-2e"/>
       <use x="83.398438" xlink:href="#ArialMT-36"/>
      </g>
     </g>
    </g>
   </g>
   <g id="line2d_14">
    <path clip-path="url(#pe25a0890e2)" d="M 90 177.272051 
L 90.544922 177.584795 
L 91.089844 178.107744 
L 92.179688 178.015459 
L 92.724609 177.830889 
L 93.814453 176.779863 
L 95.994141 174.559893 
L 96.539062 174.190752 
L 97.628906 174.370195 
L 98.173828 174.595781 
L 98.71875 174.406084 
L 99.263672 174.421465 
L 100.353516 173.478105 
L 101.988281 170.87874 
L 103.078125 168.525469 
L 103.623047 167.028398 
L 104.167969 166.069658 
L 104.712891 164.382891 
L 105.257812 163.30623 
L 106.347656 160.445391 
L 107.982422 158.15877 
L 108.527344 157.769121 
L 109.072266 157.769121 
L 109.617188 158.066484 
L 110.707031 159.681475 
L 111.796875 162.619219 
L 115.066406 171.991289 
L 116.15625 174.001055 
L 116.701172 174.626543 
L 117.246094 175.067461 
L 118.335938 175.657061 
L 119.425781 175.359697 
L 119.970703 175.252031 
L 121.060547 174.134355 
L 121.605469 173.303789 
L 123.785156 169.279131 
L 124.330078 168.576738 
L 124.875 168.192217 
L 125.419922 168.207598 
L 125.964844 168.561357 
L 126.509766 169.299639 
L 127.599609 171.109453 
L 128.689453 173.662676 
L 130.869141 177.302812 
L 131.414062 177.953936 
L 131.958984 178.287187 
L 133.59375 178.282061 
L 134.683594 177.589922 
L 135.773438 177.19002 
L 136.318359 177.195146 
L 138.498047 178.553789 
L 139.587891 178.071855 
L 140.677734 176.677324 
L 141.222656 175.800615 
L 142.857422 171.796465 
L 143.402344 170.299395 
L 145.582031 165.777422 
L 146.126953 165.064775 
L 146.671875 164.572588 
L 147.216797 164.264971 
L 147.761719 164.55208 
L 148.306641 165.213457 
L 148.851562 166.249102 
L 149.941406 170.094316 
L 152.666016 181.845293 
L 153.755859 185.347002 
L 154.300781 186.74666 
L 155.390625 188.525713 
L 155.935547 189.233232 
L 156.480469 189.669023 
L 157.025391 189.868975 
L 157.570312 189.592119 
L 158.660156 188.617998 
L 159.75 186.808184 
L 161.384766 182.629717 
L 162.474609 179.440752 
L 163.564453 176.641436 
L 164.654297 175.17 
L 165.199219 175.072588 
L 165.744141 174.841875 
L 166.289062 174.929033 
L 166.833984 175.344316 
L 167.378906 176.190264 
L 169.013672 177.497637 
L 169.558594 177.866777 
L 170.103516 177.959062 
L 170.648438 178.256426 
L 171.193359 178.143633 
L 172.283203 178.358965 
L 172.828125 178.230791 
L 173.373047 178.471758 
L 173.917969 177.948809 
L 175.007812 177.364336 
L 175.552734 176.815752 
L 177.1875 175.846758 
L 177.732422 175.728838 
L 178.822266 176.026201 
L 179.367188 176.610674 
L 180.457031 177.994951 
L 181.001953 178.605059 
L 182.091797 179.05623 
L 182.636719 178.897295 
L 185.90625 176.687578 
L 187.541016 176.338945 
L 188.085938 176.103105 
L 188.630859 176.236406 
L 189.175781 175.954424 
L 190.265625 175.749346 
L 191.355469 174.775225 
L 191.900391 173.944658 
L 192.445312 173.50374 
L 192.990234 172.724443 
L 193.535156 171.493975 
L 194.080078 170.565996 
L 195.169922 167.510332 
L 198.984375 157.574297 
L 199.529297 156.759111 
L 200.074219 156.307939 
L 200.619141 156.046465 
L 201.164062 156.113115 
L 201.708984 156.605303 
L 202.253906 157.379473 
L 202.798828 158.809893 
L 203.34375 159.881426 
L 206.613281 167.817949 
L 208.248047 171.499102 
L 208.792969 172.503984 
L 209.882812 173.678057 
L 210.427734 173.847246 
L 211.517578 173.067949 
L 212.0625 172.329668 
L 213.697266 169.202227 
L 214.787109 167.136064 
L 215.876953 165.685137 
L 216.421875 165.116045 
L 216.966797 165.249346 
L 217.511719 165.213457 
L 218.601562 166.628496 
L 221.326172 172.07332 
L 221.871094 172.96541 
L 222.960938 173.647295 
L 223.505859 173.678057 
L 225.140625 173.365312 
L 226.230469 173.995928 
L 227.320312 175.016191 
L 228.410156 176.000566 
L 229.5 176.041582 
L 230.044922 176.159502 
L 231.134766 175.800615 
L 232.224609 174.882891 
L 233.314453 173.349932 
L 233.859375 172.237383 
L 235.494141 167.484697 
L 237.128906 162.865312 
L 238.21875 161.193926 
L 238.763672 160.932451 
L 239.853516 162.091143 
L 240.398438 163.280596 
L 240.943359 164.746904 
L 243.123047 172.298906 
L 244.757812 178.374346 
L 245.847656 181.7325 
L 246.9375 184.42415 
L 247.482422 185.557207 
L 248.572266 187.120928 
L 249.662109 187.582354 
L 250.207031 187.090166 
L 250.751953 186.187822 
L 252.386719 182.378496 
L 252.931641 180.645586 
L 253.476562 179.476641 
L 254.021484 177.918047 
L 254.566406 176.984941 
L 255.111328 175.636553 
L 256.201172 174.554766 
L 256.746094 174.201006 
L 257.291016 174.293291 
L 257.835938 174.124102 
L 258.380859 174.144609 
L 260.015625 174.595781 
L 261.105469 175.35457 
L 261.650391 175.990312 
L 262.195312 176.436357 
L 263.285156 176.831133 
L 263.830078 176.754229 
L 264.919922 176.123613 
L 266.009766 174.785479 
L 267.644531 173.431963 
L 268.189453 173.288408 
L 269.279297 173.934404 
L 269.824219 174.349687 
L 270.914062 175.416094 
L 271.458984 175.662187 
L 272.548828 176.4825 
L 273.638672 176.503008 
L 275.273438 176.528643 
L 277.453125 175.913408 
L 277.998047 175.985186 
L 278.542969 175.610918 
L 279.087891 175.949297 
L 281.267578 175.600664 
L 282.902344 174.862383 
L 283.992188 173.785723 
L 284.537109 173.232012 
L 285.626953 171.406816 
L 286.171875 170.160967 
L 286.716797 168.361406 
L 287.261719 166.997637 
L 289.441406 159.660967 
L 290.53125 157.26668 
L 291.076172 156.425859 
L 291.621094 156.036211 
L 292.166016 155.90291 
L 292.710938 155.938799 
L 293.255859 156.143877 
L 293.800781 156.600176 
L 294.890625 158.04085 
L 297.070312 163.249834 
L 298.705078 168.130693 
L 300.339844 171.488848 
L 300.884766 172.263018 
L 301.429688 172.826982 
L 301.974609 173.052568 
L 302.519531 172.826982 
L 303.609375 172.011797 
L 304.699219 169.945635 
L 306.878906 165.095537 
L 307.423828 164.587969 
L 307.96875 164.413652 
L 308.513672 164.680254 
L 309.058594 165.269854 
L 309.603516 166.028643 
L 310.693359 167.869219 
L 311.783203 169.586748 
L 314.507812 171.370928 
L 315.052734 171.41707 
L 315.597656 171.981035 
L 316.6875 172.524492 
L 317.232422 172.991045 
L 317.777344 172.914141 
L 318.322266 173.396074 
L 318.867188 173.472979 
L 319.412109 174.170244 
L 320.501953 174.86751 
L 321.046875 175.487871 
L 321.591797 175.667314 
L 322.136719 176.226152 
L 322.681641 176.221025 
L 323.226562 176.01082 
L 323.771484 175.47249 
L 324.861328 173.519121 
L 325.951172 170.5096 
L 327.585938 164.941729 
L 329.220703 160.906816 
L 330.310547 160.153154 
L 330.855469 160.527422 
L 331.400391 161.08626 
L 331.945312 161.865557 
L 332.490234 163.147295 
L 333.035156 164.111162 
L 335.759766 172.155352 
L 336.849609 176.390215 
L 339.029297 183.619219 
L 339.574219 184.767656 
L 340.119141 185.526445 
L 340.664062 185.869951 
L 341.208984 185.567461 
L 342.298828 184.398516 
L 343.933594 181.332598 
L 347.203125 174.775225 
L 347.748047 173.847246 
L 348.292969 173.360186 
L 348.837891 172.642412 
L 349.382812 172.47835 
L 349.927734 172.473223 
L 351.5625 173.549883 
L 352.652344 174.421465 
L 353.197266 174.611162 
L 353.742188 174.980303 
L 355.376953 174.118975 
L 355.921875 173.780596 
L 356.466797 173.129473 
L 358.101562 171.755449 
L 358.646484 171.719561 
L 359.191406 171.427324 
L 360.28125 171.596514 
L 361.371094 172.155352 
L 363.005859 173.08333 
L 363.550781 173.190996 
L 364.095703 173.483232 
L 364.640625 173.257646 
L 365.185547 173.298662 
L 365.730469 173.160234 
L 366.275391 173.365312 
L 366.820312 173.139727 
L 367.365234 173.190996 
L 367.910156 173.426836 
L 369 173.611406 
L 369.544922 173.493486 
L 370.089844 173.498613 
L 370.634766 173.211504 
L 371.724609 173.124346 
L 373.359375 173.25252 
L 373.904297 173.560137 
L 374.449219 173.678057 
L 374.994141 173.303789 
L 375.539062 172.744951 
L 376.628906 170.822344 
L 377.173828 169.525225 
L 380.443359 159.414873 
L 382.078125 155.164629 
L 383.167969 153.482988 
L 383.712891 152.795977 
L 384.257812 152.457598 
L 384.802734 152.303789 
L 385.347656 152.606279 
L 386.4375 153.857256 
L 388.072266 157.343584 
L 389.162109 160.214678 
L 389.707031 161.701494 
L 390.796875 165.336504 
L 392.431641 168.930498 
L 392.976562 169.894365 
L 393.521484 169.843096 
L 394.066406 169.679033 
L 394.611328 169.02791 
L 397.335938 163.670244 
L 397.880859 163.013994 
L 398.970703 162.265459 
L 399.515625 162.485918 
L 400.605469 162.70125 
L 401.150391 163.331865 
L 401.695312 163.485674 
L 402.240234 163.890703 
L 403.875 165.56209 
L 404.964844 166.597734 
L 406.599609 167.433428 
L 407.144531 167.546221 
L 407.689453 168.064043 
L 408.234375 168.202471 
L 409.869141 169.304766 
L 410.414062 170.130205 
L 410.958984 170.550615 
L 411.503906 171.668291 
L 412.59375 173.375566 
L 413.683594 174.380449 
L 414.228516 174.647051 
L 414.773438 174.703447 
L 415.318359 174.052324 
L 416.408203 171.960527 
L 417.498047 168.433184 
L 418.042969 166.367021 
L 419.132812 163.316484 
L 419.677734 161.706621 
L 420.222656 160.465898 
L 421.3125 159.102129 
L 421.857422 159.127764 
L 422.402344 158.676592 
L 422.947266 158.902178 
L 423.492188 158.953447 
L 424.037109 159.47127 
L 425.126953 160.973467 
L 427.306641 168.412676 
L 428.941406 175.416094 
L 429.486328 177.472002 
L 430.576172 180.337969 
L 431.121094 181.471025 
L 432.210938 182.942461 
L 432.755859 183.526934 
L 433.845703 183.501299 
L 434.935547 182.522051 
L 435.480469 181.686357 
L 437.115234 177.892412 
L 438.205078 175.282793 
L 439.839844 173.257646 
L 440.384766 172.919268 
L 441.474609 172.914141 
L 442.019531 173.647295 
L 442.564453 173.611406 
L 443.109375 174.154863 
L 444.744141 174.616289 
L 446.378906 174.047197 
L 446.923828 173.478105 
L 447.46875 173.1346 
L 448.558594 172.104082 
L 449.103516 171.909258 
L 449.648438 171.950273 
L 450.193359 171.796465 
L 450.738281 172.098955 
L 451.828125 172.237383 
L 452.373047 172.232256 
L 452.917969 172.473223 
L 454.007812 172.401445 
L 454.552734 172.852617 
L 455.097656 172.688555 
L 455.642578 173.144854 
L 456.732422 173.662676 
L 457.277344 174.021562 
L 457.822266 174.011309 
L 458.367188 174.288164 
L 458.912109 174.144609 
L 460.001953 174.247148 
L 460.546875 174.324053 
L 461.091797 174.108721 
L 462.726562 174.81624 
L 463.271484 175.303301 
L 464.361328 175.990312 
L 465.996094 175.939043 
L 466.541016 175.482744 
L 467.630859 174.349687 
L 469.265625 170.355791 
L 469.810547 168.945879 
L 471.445312 163.495928 
L 472.535156 159.973711 
L 473.625 157.235918 
L 474.714844 155.169756 
L 475.259766 154.503252 
L 475.804688 154.087969 
L 476.349609 153.426592 
L 477.439453 153.380449 
L 477.984375 153.539385 
L 478.529297 154.226396 
L 479.619141 156.86165 
L 482.34375 166.315752 
L 482.888672 167.95125 
L 483.433594 169.171465 
L 484.523438 170.360918 
L 485.068359 170.407061 
L 485.613281 170.242998 
L 486.703125 169.058672 
L 487.248047 168.18709 
L 487.792969 167.674395 
L 488.337891 166.772051 
L 488.882812 166.095293 
L 489.427734 165.777422 
L 489.972656 165.121172 
L 491.0625 164.639238 
L 492.697266 165.049395 
L 493.787109 165.751787 
L 494.332031 166.397783 
L 494.876953 166.223467 
L 495.421875 166.99251 
L 495.966797 167.336016 
L 496.511719 167.41292 
L 497.056641 167.95125 
L 497.601562 167.83333 
L 499.78125 168.105059 
L 500.871094 169.084307 
L 501.416016 169.750811 
L 501.960938 170.955645 
L 502.505859 171.806719 
L 503.050781 173.124346 
L 504.685547 176.036455 
L 505.230469 176.477373 
L 505.775391 176.374834 
L 506.320312 175.949297 
L 506.865234 175.159746 
L 507.410156 174.118975 
L 508.5 171.324785 
L 509.044922 170.294268 
L 509.589844 168.735674 
L 510.134766 167.643633 
L 512.314453 162.316729 
L 512.859375 160.983721 
L 513.949219 159.327715 
L 514.494141 158.958574 
L 515.583984 159.076494 
L 516.128906 159.932695 
L 517.21875 162.296221 
L 518.853516 167.612871 
L 521.578125 177.318193 
L 522.667969 180.440508 
L 523.757812 182.619463 
L 524.302734 183.198809 
L 524.847656 183.496172 
L 525.9375 183.183428 
L 526.482422 182.614336 
L 527.572266 180.825029 
L 530.296875 175.072588 
L 530.841797 174.831621 
L 531.386719 174.190752 
L 531.931641 174.129229 
L 534.111328 174.836748 
L 534.65625 174.903398 
L 536.291016 174.272783 
L 536.835938 173.939531 
L 537.380859 173.416582 
L 537.925781 173.288408 
L 538.470703 172.903887 
L 539.015625 172.883379 
L 539.560547 172.534746 
L 541.195312 172.165605 
L 542.285156 171.570879 
L 543.919922 171.170977 
L 544.464844 171.340166 
L 545.009766 171.632402 
L 546.099609 172.380937 
L 547.734375 172.78084 
L 548.279297 172.647539 
L 548.824219 172.657793 
L 549.369141 172.519365 
L 549.914062 172.59627 
L 550.458984 172.534746 
L 552.638672 173.119219 
L 554.818359 174.32918 
L 555.363281 174.862383 
L 555.908203 175.036699 
L 556.453125 175.672441 
L 556.998047 175.8929 
L 557.542969 175.980059 
L 558.087891 175.954424 
L 558.632812 175.349443 
L 559.177734 174.359941 
L 560.267578 171.65291 
L 561.902344 167.084795 
L 562.992188 164.152178 
L 563.537109 162.480791 
L 564.082031 161.265703 
L 564.626953 159.522539 
L 565.171875 158.199785 
L 566.261719 154.954424 
L 567.351562 152.483232 
L 567.896484 151.416826 
L 568.441406 150.893877 
L 569.53125 151.19124 
L 571.166016 155.154375 
L 574.435547 165.597979 
L 575.525391 167.592363 
L 577.160156 168.105059 
L 577.705078 167.582109 
L 578.25 167.325762 
L 579.339844 166.202959 
L 579.884766 165.469805 
L 582.064453 163.695879 
L 583.699219 163.249834 
L 586.96875 165.192949 
L 588.058594 165.018633 
L 588.603516 164.587969 
L 589.148438 164.572588 
L 589.693359 164.290605 
L 590.238281 164.305986 
L 590.783203 164.593096 
L 591.328125 165.146807 
L 592.962891 168.566484 
L 594.052734 171.032549 
L 594.597656 172.222002 
L 595.6875 173.765215 
L 596.232422 174.04207 
L 596.777344 174.682939 
L 597.867188 174.436846 
L 598.412109 174.04207 
L 599.501953 173.021807 
L 600.591797 170.894121 
L 602.226562 166.474687 
L 603.861328 161.588701 
L 604.40625 160.435137 
L 605.496094 158.481768 
L 606.041016 158.322832 
L 606.585938 157.917803 
L 607.675781 158.543291 
L 608.220703 159.18416 
L 608.765625 160.265947 
L 609.855469 163.275469 
L 610.945312 166.818193 
L 612.035156 170.771074 
L 613.669922 176.754229 
L 614.759766 179.938066 
L 615.304688 181.26082 
L 615.849609 182.009355 
L 616.394531 182.511797 
L 617.484375 182.106768 
L 618.574219 180.589189 
L 619.119141 179.415117 
L 619.664062 178.666582 
L 620.208984 177.661699 
L 620.753906 177.154131 
L 621.84375 175.672441 
L 622.388672 175.544268 
L 622.933594 175.267412 
L 624.568359 175.011064 
L 625.113281 174.5804 
L 625.658203 174.421465 
L 626.203125 174.062578 
L 626.748047 174.072832 
L 627.292969 173.934404 
L 627.837891 173.590898 
L 628.382812 173.657549 
L 630.017578 172.785967 
L 631.107422 172.011797 
L 631.652344 171.596514 
L 632.197266 171.473467 
L 633.832031 170.704424 
L 634.376953 170.960771 
L 635.466797 170.704424 
L 636.556641 170.832598 
L 637.101562 170.960771 
L 637.646484 170.786455 
L 638.191406 170.822344 
L 638.736328 171.196611 
L 639.826172 171.365801 
L 640.371094 171.222246 
L 640.916016 171.340166 
L 641.460938 171.124834 
L 642.005859 171.155596 
L 643.095703 170.924883 
L 643.640625 171.376055 
L 644.185547 171.493975 
L 645.820312 173.657549 
L 646.910156 175.05208 
L 647.455078 175.672441 
L 647.455078 175.672441 
" style="fill:none;stroke:#4c72b0;stroke-linecap:round;stroke-width:1.75;"/>
   </g>
   <g id="patch_3">
    <path d="M 90 270.72 
L 90 69.12 
" style="fill:none;stroke:#262626;stroke-linecap:square;stroke-linejoin:miter;stroke-width:1.25;"/>
   </g>
   <g id="patch_4">
    <path d="M 90 270.72 
L 648 270.72 
" style="fill:none;stroke:#262626;stroke-linecap:square;stroke-linejoin:miter;stroke-width:1.25;"/>
   </g>
  </g>
  <g id="axes_2">
   <g id="patch_5">
    <path d="M 90 512.64 
L 648 512.64 
L 648 311.04 
L 90 311.04 
z
" style="fill:#ffffff;"/>
   </g>
   <g id="matplotlib.axis_3">
    <g id="xtick_7">
     <g id="line2d_15">
      <g>
       <use style="fill:#262626;stroke:#262626;" x="218.197478" xlink:href="#mc7fbe0fff5" y="512.64"/>
      </g>
     </g>
     <g id="text_14">
      <!-- $\mathdefault{10^{2}}$ -->
      <g style="fill:#262626;" transform="translate(210.347478 535.9525)scale(0.1 -0.1)">
       <use transform="translate(0 0.99375)" xlink:href="#ArialMT-31"/>
       <use transform="translate(55.615234 0.99375)" xlink:href="#ArialMT-30"/>
       <use transform="translate(112.972813 70.6875)scale(0.7)" xlink:href="#ArialMT-32"/>
      </g>
     </g>
    </g>
    <g id="xtick_8">
     <g id="line2d_16">
      <g>
       <use style="fill:#262626;stroke:#262626;" x="401.606604" xlink:href="#mc7fbe0fff5" y="512.64"/>
      </g>
     </g>
     <g id="text_15">
      <!-- $\mathdefault{10^{3}}$ -->
      <defs>
       <path d="M 4.203125 18.890625 
L 12.984375 20.0625 
Q 14.5 12.59375 18.140625 9.296875 
Q 21.78125 6 27 6 
Q 33.203125 6 37.46875 10.296875 
Q 41.75 14.59375 41.75 20.953125 
Q 41.75 27 37.796875 30.921875 
Q 33.84375 34.859375 27.734375 34.859375 
Q 25.25 34.859375 21.53125 33.890625 
L 22.515625 41.609375 
Q 23.390625 41.5 23.921875 41.5 
Q 29.546875 41.5 34.03125 44.421875 
Q 38.53125 47.359375 38.53125 53.46875 
Q 38.53125 58.296875 35.25 61.46875 
Q 31.984375 64.65625 26.8125 64.65625 
Q 21.6875 64.65625 18.265625 61.421875 
Q 14.84375 58.203125 13.875 51.765625 
L 5.078125 53.328125 
Q 6.6875 62.15625 12.390625 67.015625 
Q 18.109375 71.875 26.609375 71.875 
Q 32.46875 71.875 37.390625 69.359375 
Q 42.328125 66.84375 44.9375 62.5 
Q 47.5625 58.15625 47.5625 53.265625 
Q 47.5625 48.640625 45.0625 44.828125 
Q 42.578125 41.015625 37.703125 38.765625 
Q 44.046875 37.3125 47.5625 32.6875 
Q 51.078125 28.078125 51.078125 21.140625 
Q 51.078125 11.765625 44.234375 5.25 
Q 37.40625 -1.265625 26.953125 -1.265625 
Q 17.53125 -1.265625 11.296875 4.34375 
Q 5.078125 9.96875 4.203125 18.890625 
z
" id="ArialMT-33"/>
      </defs>
      <g style="fill:#262626;" transform="translate(393.756604 535.9525)scale(0.1 -0.1)">
       <use transform="translate(0 0.99375)" xlink:href="#ArialMT-31"/>
       <use transform="translate(55.615234 0.99375)" xlink:href="#ArialMT-30"/>
       <use transform="translate(112.972813 70.6875)scale(0.7)" xlink:href="#ArialMT-33"/>
      </g>
     </g>
    </g>
    <g id="xtick_9">
     <g id="line2d_17">
      <g>
       <use style="fill:#262626;stroke:#262626;" x="585.01573" xlink:href="#mc7fbe0fff5" y="512.64"/>
      </g>
     </g>
     <g id="text_16">
      <!-- $\mathdefault{10^{4}}$ -->
      <g style="fill:#262626;" transform="translate(577.16573 535.8525)scale(0.1 -0.1)">
       <use transform="translate(0 0.201563)" xlink:href="#ArialMT-31"/>
       <use transform="translate(55.615234 0.201563)" xlink:href="#ArialMT-30"/>
       <use transform="translate(112.972813 69.895313)scale(0.7)" xlink:href="#ArialMT-34"/>
      </g>
     </g>
    </g>
    <g id="xtick_10">
     <g id="line2d_18">
      <defs>
       <path d="M 0 0 
L 0 3 
" id="mfc645d71f7" style="stroke:#262626;stroke-width:0.5;"/>
      </defs>
      <g>
       <use style="fill:#262626;stroke:#262626;stroke-width:0.5;" x="90" xlink:href="#mfc645d71f7" y="512.64"/>
      </g>
     </g>
    </g>
    <g id="xtick_11">
     <g id="line2d_19">
      <g>
       <use style="fill:#262626;stroke:#262626;stroke-width:0.5;" x="122.296744" xlink:href="#mfc645d71f7" y="512.64"/>
      </g>
     </g>
    </g>
    <g id="xtick_12">
     <g id="line2d_20">
      <g>
       <use style="fill:#262626;stroke:#262626;stroke-width:0.5;" x="145.211648" xlink:href="#mfc645d71f7" y="512.64"/>
      </g>
     </g>
    </g>
    <g id="xtick_13">
     <g id="line2d_21">
      <g>
       <use style="fill:#262626;stroke:#262626;stroke-width:0.5;" x="162.985829" xlink:href="#mfc645d71f7" y="512.64"/>
      </g>
     </g>
    </g>
    <g id="xtick_14">
     <g id="line2d_22">
      <g>
       <use style="fill:#262626;stroke:#262626;stroke-width:0.5;" x="177.508392" xlink:href="#mfc645d71f7" y="512.64"/>
      </g>
     </g>
    </g>
    <g id="xtick_15">
     <g id="line2d_23">
      <g>
       <use style="fill:#262626;stroke:#262626;stroke-width:0.5;" x="189.787045" xlink:href="#mfc645d71f7" y="512.64"/>
      </g>
     </g>
    </g>
    <g id="xtick_16">
     <g id="line2d_24">
      <g>
       <use style="fill:#262626;stroke:#262626;stroke-width:0.5;" x="200.423297" xlink:href="#mfc645d71f7" y="512.64"/>
      </g>
     </g>
    </g>
    <g id="xtick_17">
     <g id="line2d_25">
      <g>
       <use style="fill:#262626;stroke:#262626;stroke-width:0.5;" x="209.805136" xlink:href="#mfc645d71f7" y="512.64"/>
      </g>
     </g>
    </g>
    <g id="xtick_18">
     <g id="line2d_26">
      <g>
       <use style="fill:#262626;stroke:#262626;stroke-width:0.5;" x="273.409126" xlink:href="#mfc645d71f7" y="512.64"/>
      </g>
     </g>
    </g>
    <g id="xtick_19">
     <g id="line2d_27">
      <g>
       <use style="fill:#262626;stroke:#262626;stroke-width:0.5;" x="305.70587" xlink:href="#mfc645d71f7" y="512.64"/>
      </g>
     </g>
    </g>
    <g id="xtick_20">
     <g id="line2d_28">
      <g>
       <use style="fill:#262626;stroke:#262626;stroke-width:0.5;" x="328.620775" xlink:href="#mfc645d71f7" y="512.64"/>
      </g>
     </g>
    </g>
    <g id="xtick_21">
     <g id="line2d_29">
      <g>
       <use style="fill:#262626;stroke:#262626;stroke-width:0.5;" x="346.394955" xlink:href="#mfc645d71f7" y="512.64"/>
      </g>
     </g>
    </g>
    <g id="xtick_22">
     <g id="line2d_30">
      <g>
       <use style="fill:#262626;stroke:#262626;stroke-width:0.5;" x="360.917518" xlink:href="#mfc645d71f7" y="512.64"/>
      </g>
     </g>
    </g>
    <g id="xtick_23">
     <g id="line2d_31">
      <g>
       <use style="fill:#262626;stroke:#262626;stroke-width:0.5;" x="373.196171" xlink:href="#mfc645d71f7" y="512.64"/>
      </g>
     </g>
    </g>
    <g id="xtick_24">
     <g id="line2d_32">
      <g>
       <use style="fill:#262626;stroke:#262626;stroke-width:0.5;" x="383.832423" xlink:href="#mfc645d71f7" y="512.64"/>
      </g>
     </g>
    </g>
    <g id="xtick_25">
     <g id="line2d_33">
      <g>
       <use style="fill:#262626;stroke:#262626;stroke-width:0.5;" x="393.214262" xlink:href="#mfc645d71f7" y="512.64"/>
      </g>
     </g>
    </g>
    <g id="xtick_26">
     <g id="line2d_34">
      <g>
       <use style="fill:#262626;stroke:#262626;stroke-width:0.5;" x="456.818252" xlink:href="#mfc645d71f7" y="512.64"/>
      </g>
     </g>
    </g>
    <g id="xtick_27">
     <g id="line2d_35">
      <g>
       <use style="fill:#262626;stroke:#262626;stroke-width:0.5;" x="489.114996" xlink:href="#mfc645d71f7" y="512.64"/>
      </g>
     </g>
    </g>
    <g id="xtick_28">
     <g id="line2d_36">
      <g>
       <use style="fill:#262626;stroke:#262626;stroke-width:0.5;" x="512.029901" xlink:href="#mfc645d71f7" y="512.64"/>
      </g>
     </g>
    </g>
    <g id="xtick_29">
     <g id="line2d_37">
      <g>
       <use style="fill:#262626;stroke:#262626;stroke-width:0.5;" x="529.804081" xlink:href="#mfc645d71f7" y="512.64"/>
      </g>
     </g>
    </g>
    <g id="xtick_30">
     <g id="line2d_38">
      <g>
       <use style="fill:#262626;stroke:#262626;stroke-width:0.5;" x="544.326645" xlink:href="#mfc645d71f7" y="512.64"/>
      </g>
     </g>
    </g>
    <g id="xtick_31">
     <g id="line2d_39">
      <g>
       <use style="fill:#262626;stroke:#262626;stroke-width:0.5;" x="556.605297" xlink:href="#mfc645d71f7" y="512.64"/>
      </g>
     </g>
    </g>
    <g id="xtick_32">
     <g id="line2d_40">
      <g>
       <use style="fill:#262626;stroke:#262626;stroke-width:0.5;" x="567.241549" xlink:href="#mfc645d71f7" y="512.64"/>
      </g>
     </g>
    </g>
    <g id="xtick_33">
     <g id="line2d_41">
      <g>
       <use style="fill:#262626;stroke:#262626;stroke-width:0.5;" x="576.623389" xlink:href="#mfc645d71f7" y="512.64"/>
      </g>
     </g>
    </g>
    <g id="xtick_34">
     <g id="line2d_42">
      <g>
       <use style="fill:#262626;stroke:#262626;stroke-width:0.5;" x="640.227378" xlink:href="#mfc645d71f7" y="512.64"/>
      </g>
     </g>
    </g>
   </g>
   <g id="matplotlib.axis_4">
    <g id="ytick_8">
     <g id="line2d_43">
      <g>
       <use style="fill:#262626;stroke:#262626;" x="90" xlink:href="#mb012abe07a" y="512.64"/>
      </g>
     </g>
     <g id="text_17">
      <!-- $\mathdefault{10^{-5}}$ -->
      <defs>
       <path d="M 4.15625 18.75 
L 13.375 19.53125 
Q 14.40625 12.796875 18.140625 9.390625 
Q 21.875 6 27.15625 6 
Q 33.5 6 37.890625 10.78125 
Q 42.28125 15.578125 42.28125 23.484375 
Q 42.28125 31 38.0625 35.34375 
Q 33.84375 39.703125 27 39.703125 
Q 22.75 39.703125 19.328125 37.765625 
Q 15.921875 35.84375 13.96875 32.765625 
L 5.71875 33.84375 
L 12.640625 70.609375 
L 48.25 70.609375 
L 48.25 62.203125 
L 19.671875 62.203125 
L 15.828125 42.96875 
Q 22.265625 47.46875 29.34375 47.46875 
Q 38.71875 47.46875 45.15625 40.96875 
Q 51.609375 34.46875 51.609375 24.265625 
Q 51.609375 14.546875 45.953125 7.46875 
Q 39.0625 -1.21875 27.15625 -1.21875 
Q 17.390625 -1.21875 11.203125 4.25 
Q 5.03125 9.71875 4.15625 18.75 
z
" id="ArialMT-35"/>
      </defs>
      <g style="fill:#262626;" transform="translate(57.2 517.74625)scale(0.1 -0.1)">
       <use transform="translate(0 0.879688)" xlink:href="#ArialMT-31"/>
       <use transform="translate(55.615234 0.879688)" xlink:href="#ArialMT-30"/>
       <use transform="translate(112.972813 70.573438)scale(0.7)" xlink:href="#ArialMT-2212"/>
       <use transform="translate(153.851719 70.573438)scale(0.7)" xlink:href="#ArialMT-35"/>
      </g>
     </g>
    </g>
    <g id="ytick_9">
     <g id="line2d_44">
      <g>
       <use style="fill:#262626;stroke:#262626;" x="90" xlink:href="#mb012abe07a" y="465.767507"/>
      </g>
     </g>
     <g id="text_18">
      <!-- $\mathdefault{10^{-4}}$ -->
      <g style="fill:#262626;" transform="translate(57.2 470.873757)scale(0.1 -0.1)">
       <use transform="translate(0 0.201563)" xlink:href="#ArialMT-31"/>
       <use transform="translate(55.615234 0.201563)" xlink:href="#ArialMT-30"/>
       <use transform="translate(112.972813 69.895313)scale(0.7)" xlink:href="#ArialMT-2212"/>
       <use transform="translate(153.851719 69.895313)scale(0.7)" xlink:href="#ArialMT-34"/>
      </g>
     </g>
    </g>
    <g id="ytick_10">
     <g id="line2d_45">
      <g>
       <use style="fill:#262626;stroke:#262626;" x="90" xlink:href="#mb012abe07a" y="418.895013"/>
      </g>
     </g>
     <g id="text_19">
      <!-- $\mathdefault{10^{-3}}$ -->
      <g style="fill:#262626;" transform="translate(57.2 424.051263)scale(0.1 -0.1)">
       <use transform="translate(0 0.99375)" xlink:href="#ArialMT-31"/>
       <use transform="translate(55.615234 0.99375)" xlink:href="#ArialMT-30"/>
       <use transform="translate(112.972813 70.6875)scale(0.7)" xlink:href="#ArialMT-2212"/>
       <use transform="translate(153.851719 70.6875)scale(0.7)" xlink:href="#ArialMT-33"/>
      </g>
     </g>
    </g>
    <g id="ytick_11">
     <g id="line2d_46">
      <g>
       <use style="fill:#262626;stroke:#262626;" x="90" xlink:href="#mb012abe07a" y="372.02252"/>
      </g>
     </g>
     <g id="text_20">
      <!-- $\mathdefault{10^{-2}}$ -->
      <g style="fill:#262626;" transform="translate(57.2 377.17877)scale(0.1 -0.1)">
       <use transform="translate(0 0.99375)" xlink:href="#ArialMT-31"/>
       <use transform="translate(55.615234 0.99375)" xlink:href="#ArialMT-30"/>
       <use transform="translate(112.972813 70.6875)scale(0.7)" xlink:href="#ArialMT-2212"/>
       <use transform="translate(153.851719 70.6875)scale(0.7)" xlink:href="#ArialMT-32"/>
      </g>
     </g>
    </g>
    <g id="ytick_12">
     <g id="line2d_47">
      <g>
       <use style="fill:#262626;stroke:#262626;" x="90" xlink:href="#mb012abe07a" y="325.150026"/>
      </g>
     </g>
     <g id="text_21">
      <!-- $\mathdefault{10^{-1}}$ -->
      <g style="fill:#262626;" transform="translate(57.2 330.306276)scale(0.1 -0.1)">
       <use transform="translate(0 0.99375)" xlink:href="#ArialMT-31"/>
       <use transform="translate(55.615234 0.99375)" xlink:href="#ArialMT-30"/>
       <use transform="translate(112.972813 70.6875)scale(0.7)" xlink:href="#ArialMT-2212"/>
       <use transform="translate(153.851719 70.6875)scale(0.7)" xlink:href="#ArialMT-31"/>
      </g>
     </g>
    </g>
    <g id="ytick_13">
     <g id="line2d_48">
      <defs>
       <path d="M 0 0 
L -3 0 
" id="m8267d838b5" style="stroke:#262626;stroke-width:0.5;"/>
      </defs>
      <g>
       <use style="fill:#262626;stroke:#262626;stroke-width:0.5;" x="90" xlink:href="#m8267d838b5" y="498.529974"/>
      </g>
     </g>
    </g>
    <g id="ytick_14">
     <g id="line2d_49">
      <g>
       <use style="fill:#262626;stroke:#262626;stroke-width:0.5;" x="90" xlink:href="#m8267d838b5" y="490.276137"/>
      </g>
     </g>
    </g>
    <g id="ytick_15">
     <g id="line2d_50">
      <g>
       <use style="fill:#262626;stroke:#262626;stroke-width:0.5;" x="90" xlink:href="#m8267d838b5" y="484.419947"/>
      </g>
     </g>
    </g>
    <g id="ytick_16">
     <g id="line2d_51">
      <g>
       <use style="fill:#262626;stroke:#262626;stroke-width:0.5;" x="90" xlink:href="#m8267d838b5" y="479.877533"/>
      </g>
     </g>
    </g>
    <g id="ytick_17">
     <g id="line2d_52">
      <g>
       <use style="fill:#262626;stroke:#262626;stroke-width:0.5;" x="90" xlink:href="#m8267d838b5" y="476.166111"/>
      </g>
     </g>
    </g>
    <g id="ytick_18">
     <g id="line2d_53">
      <g>
       <use style="fill:#262626;stroke:#262626;stroke-width:0.5;" x="90" xlink:href="#m8267d838b5" y="473.028148"/>
      </g>
     </g>
    </g>
    <g id="ytick_19">
     <g id="line2d_54">
      <g>
       <use style="fill:#262626;stroke:#262626;stroke-width:0.5;" x="90" xlink:href="#m8267d838b5" y="470.309921"/>
      </g>
     </g>
    </g>
    <g id="ytick_20">
     <g id="line2d_55">
      <g>
       <use style="fill:#262626;stroke:#262626;stroke-width:0.5;" x="90" xlink:href="#m8267d838b5" y="467.912274"/>
      </g>
     </g>
    </g>
    <g id="ytick_21">
     <g id="line2d_56">
      <g>
       <use style="fill:#262626;stroke:#262626;stroke-width:0.5;" x="90" xlink:href="#m8267d838b5" y="451.65748"/>
      </g>
     </g>
    </g>
    <g id="ytick_22">
     <g id="line2d_57">
      <g>
       <use style="fill:#262626;stroke:#262626;stroke-width:0.5;" x="90" xlink:href="#m8267d838b5" y="443.403644"/>
      </g>
     </g>
    </g>
    <g id="ytick_23">
     <g id="line2d_58">
      <g>
       <use style="fill:#262626;stroke:#262626;stroke-width:0.5;" x="90" xlink:href="#m8267d838b5" y="437.547454"/>
      </g>
     </g>
    </g>
    <g id="ytick_24">
     <g id="line2d_59">
      <g>
       <use style="fill:#262626;stroke:#262626;stroke-width:0.5;" x="90" xlink:href="#m8267d838b5" y="433.00504"/>
      </g>
     </g>
    </g>
    <g id="ytick_25">
     <g id="line2d_60">
      <g>
       <use style="fill:#262626;stroke:#262626;stroke-width:0.5;" x="90" xlink:href="#m8267d838b5" y="429.293617"/>
      </g>
     </g>
    </g>
    <g id="ytick_26">
     <g id="line2d_61">
      <g>
       <use style="fill:#262626;stroke:#262626;stroke-width:0.5;" x="90" xlink:href="#m8267d838b5" y="426.155654"/>
      </g>
     </g>
    </g>
    <g id="ytick_27">
     <g id="line2d_62">
      <g>
       <use style="fill:#262626;stroke:#262626;stroke-width:0.5;" x="90" xlink:href="#m8267d838b5" y="423.437427"/>
      </g>
     </g>
    </g>
    <g id="ytick_28">
     <g id="line2d_63">
      <g>
       <use style="fill:#262626;stroke:#262626;stroke-width:0.5;" x="90" xlink:href="#m8267d838b5" y="421.039781"/>
      </g>
     </g>
    </g>
    <g id="ytick_29">
     <g id="line2d_64">
      <g>
       <use style="fill:#262626;stroke:#262626;stroke-width:0.5;" x="90" xlink:href="#m8267d838b5" y="404.784987"/>
      </g>
     </g>
    </g>
    <g id="ytick_30">
     <g id="line2d_65">
      <g>
       <use style="fill:#262626;stroke:#262626;stroke-width:0.5;" x="90" xlink:href="#m8267d838b5" y="396.53115"/>
      </g>
     </g>
    </g>
    <g id="ytick_31">
     <g id="line2d_66">
      <g>
       <use style="fill:#262626;stroke:#262626;stroke-width:0.5;" x="90" xlink:href="#m8267d838b5" y="390.67496"/>
      </g>
     </g>
    </g>
    <g id="ytick_32">
     <g id="line2d_67">
      <g>
       <use style="fill:#262626;stroke:#262626;stroke-width:0.5;" x="90" xlink:href="#m8267d838b5" y="386.132546"/>
      </g>
     </g>
    </g>
    <g id="ytick_33">
     <g id="line2d_68">
      <g>
       <use style="fill:#262626;stroke:#262626;stroke-width:0.5;" x="90" xlink:href="#m8267d838b5" y="382.421124"/>
      </g>
     </g>
    </g>
    <g id="ytick_34">
     <g id="line2d_69">
      <g>
       <use style="fill:#262626;stroke:#262626;stroke-width:0.5;" x="90" xlink:href="#m8267d838b5" y="379.283161"/>
      </g>
     </g>
    </g>
    <g id="ytick_35">
     <g id="line2d_70">
      <g>
       <use style="fill:#262626;stroke:#262626;stroke-width:0.5;" x="90" xlink:href="#m8267d838b5" y="376.564934"/>
      </g>
     </g>
    </g>
    <g id="ytick_36">
     <g id="line2d_71">
      <g>
       <use style="fill:#262626;stroke:#262626;stroke-width:0.5;" x="90" xlink:href="#m8267d838b5" y="374.167288"/>
      </g>
     </g>
    </g>
    <g id="ytick_37">
     <g id="line2d_72">
      <g>
       <use style="fill:#262626;stroke:#262626;stroke-width:0.5;" x="90" xlink:href="#m8267d838b5" y="357.912493"/>
      </g>
     </g>
    </g>
    <g id="ytick_38">
     <g id="line2d_73">
      <g>
       <use style="fill:#262626;stroke:#262626;stroke-width:0.5;" x="90" xlink:href="#m8267d838b5" y="349.658657"/>
      </g>
     </g>
    </g>
    <g id="ytick_39">
     <g id="line2d_74">
      <g>
       <use style="fill:#262626;stroke:#262626;stroke-width:0.5;" x="90" xlink:href="#m8267d838b5" y="343.802467"/>
      </g>
     </g>
    </g>
    <g id="ytick_40">
     <g id="line2d_75">
      <g>
       <use style="fill:#262626;stroke:#262626;stroke-width:0.5;" x="90" xlink:href="#m8267d838b5" y="339.260053"/>
      </g>
     </g>
    </g>
    <g id="ytick_41">
     <g id="line2d_76">
      <g>
       <use style="fill:#262626;stroke:#262626;stroke-width:0.5;" x="90" xlink:href="#m8267d838b5" y="335.548631"/>
      </g>
     </g>
    </g>
    <g id="ytick_42">
     <g id="line2d_77">
      <g>
       <use style="fill:#262626;stroke:#262626;stroke-width:0.5;" x="90" xlink:href="#m8267d838b5" y="332.410668"/>
      </g>
     </g>
    </g>
    <g id="ytick_43">
     <g id="line2d_78">
      <g>
       <use style="fill:#262626;stroke:#262626;stroke-width:0.5;" x="90" xlink:href="#m8267d838b5" y="329.69244"/>
      </g>
     </g>
    </g>
    <g id="ytick_44">
     <g id="line2d_79">
      <g>
       <use style="fill:#262626;stroke:#262626;stroke-width:0.5;" x="90" xlink:href="#m8267d838b5" y="327.294794"/>
      </g>
     </g>
    </g>
    <g id="ytick_45">
     <g id="line2d_80">
      <g>
       <use style="fill:#262626;stroke:#262626;stroke-width:0.5;" x="90" xlink:href="#m8267d838b5" y="311.04"/>
      </g>
     </g>
    </g>
   </g>
   <g id="line2d_81">
    <path clip-path="url(#p9e2dd7b52e)" d="M -1 379.69365 
L 151.095164 379.690814 
L 206.306812 397.063659 
L 238.603556 392.296425 
L 261.518461 418.534775 
L 279.292642 428.434979 
L 293.815205 361.285567 
L 306.093857 414.569915 
L 316.730109 420.551972 
L 326.111949 426.289517 
L 334.50429 433.998694 
L 342.096086 444.733363 
L 349.026853 381.713765 
L 355.402541 411.561984 
L 361.305505 415.30906 
L 366.801034 416.293109 
L 371.941758 414.251637 
L 376.770725 404.473291 
L 381.323597 367.465198 
L 385.630245 407.892476 
L 389.715939 428.931116 
L 393.602249 456.18966 
L 397.307735 458.735219 
L 400.848476 421.347201 
L 404.238502 373.149809 
L 407.490119 396.754089 
L 410.614189 405.281456 
L 413.620341 406.81298 
L 416.517154 402.94532 
L 419.312303 394.735479 
L 422.012683 369.16211 
L 424.624509 384.344907 
L 427.153406 404.261852 
L 429.604479 414.9646 
L 431.982374 422.03597 
L 434.291335 430.572635 
L 436.535246 417.781282 
L 438.717672 409.01797 
L 440.841893 420.934079 
L 442.910933 422.105608 
L 444.927587 420.390887 
L 446.894442 414.52596 
L 448.813898 398.539552 
L 450.688186 387.810043 
L 452.519383 418.483334 
L 454.309426 429.7336 
L 456.060125 436.614056 
L 457.773171 442.100853 
L 459.45015 442.204668 
L 461.09255 425.671631 
L 462.701768 456.046071 
L 464.279118 454.92797 
L 465.825838 452.864156 
L 467.343094 450.022526 
L 468.83199 439.249888 
L 470.293564 404.588831 
L 471.728802 431.926523 
L 473.138637 445.617366 
L 474.523951 448.37836 
L 475.885584 450.526931 
L 477.224331 452.168389 
L 478.540949 435.210708 
L 479.836157 449.34627 
L 481.110642 480.011214 
L 482.365055 487.432921 
L 483.600019 475.129522 
L 484.816127 474.242698 
L 486.013948 465.664072 
L 487.194022 442.920942 
L 488.356869 468.631539 
L 489.502983 470.699091 
L 490.63284 463.981694 
L 491.746894 460.211593 
L 492.845581 447.460604 
L 493.92932 425.235581 
L 494.998512 431.904787 
L 496.053541 454.930058 
L 497.094779 466.948325 
L 498.122582 480.940861 
L 499.137291 481.489449 
L 500.139235 487.896421 
L 501.128734 431.776669 
L 502.10609 486.703411 
L 503.0716 484.847761 
L 504.025546 483.516978 
L 504.968203 475.369565 
L 505.899834 482.705071 
L 506.820695 472.001491 
L 507.731032 469.698858 
L 508.631082 482.236736 
L 509.521075 509.953194 
L 510.401234 500.744955 
L 511.271773 474.06858 
L 512.132901 467.604191 
L 512.984819 448.050356 
L 513.827722 441.70288 
L 514.661799 467.158211 
L 515.487232 473.752578 
L 516.304198 484.547004 
L 517.112871 507.768155 
L 517.913416 485.491225 
L 518.705996 478.984019 
L 519.490766 511.967076 
L 520.26788 503.994644 
L 521.037486 531.110578 
L 521.799727 504.139658 
L 522.554743 508.860083 
L 523.302669 494.95991 
L 524.043638 490.190935 
L 524.777778 482.521627 
L 525.505212 494.946569 
L 526.226064 492.44683 
L 526.940451 499.063324 
L 527.648487 492.732438 
L 528.350285 512.436543 
L 529.045954 486.280703 
L 529.7356 498.528018 
L 530.419326 494.122568 
L 531.097232 491.774522 
L 532.435979 522.791492 
L 533.097009 522.150332 
L 533.752597 494.843578 
L 534.402834 520.713524 
L 535.047806 506.0695 
L 535.687597 501.273851 
L 536.32229 483.381606 
L 536.951966 518.125687 
L 537.576703 496.168169 
L 538.196578 496.809988 
L 538.811667 470.900551 
L 539.422042 496.593941 
L 540.027776 495.047316 
L 540.628938 492.460501 
L 541.225596 525.197137 
L 541.817819 497.093555 
L 542.405671 484.962878 
L 542.989216 501.553019 
L 543.568517 503.57735 
L 544.143636 509.193049 
L 544.714632 513.359729 
L 545.281563 487.475431 
L 545.844488 498.916362 
L 546.403463 488.162632 
L 546.958543 492.894574 
L 547.509781 490.894678 
L 548.05723 508.835183 
L 548.600942 512.225086 
L 549.140969 500.714231 
L 549.677358 503.75504 
L 550.21016 503.178847 
L 550.739422 494.437272 
L 551.26519 502.326645 
L 551.78751 491.147446 
L 552.306428 507.103815 
L 552.821987 501.076182 
L 553.33423 513.410877 
L 553.8432 492.604025 
L 554.348939 495.58562 
L 554.851487 495.928747 
L 555.350884 493.297109 
L 555.847169 491.702173 
L 556.340382 506.988653 
L 556.830559 484.760134 
L 557.317739 496.524037 
L 557.801956 522.853262 
L 558.283248 500.592463 
L 558.76165 528.104369 
L 559.237195 495.287172 
L 559.709918 509.744063 
L 560.179852 497.418139 
L 560.647029 496.212499 
L 561.111483 519.413758 
L 561.573244 524.244113 
L 562.032344 514.380396 
L 562.488812 490.534346 
L 562.94268 500.697373 
L 563.393976 532.718536 
L 563.84273 501.170106 
L 564.28897 500.32915 
L 564.732723 517.986178 
L 565.174019 490.282754 
L 566.049341 512.893758 
L 566.483422 501.456843 
L 566.91515 498.986334 
L 567.34455 505.876883 
L 567.771648 507.612721 
L 568.196468 507.722663 
L 568.619034 511.770035 
L 569.039371 531.332152 
L 569.457501 498.44084 
L 569.873447 494.902127 
L 570.287233 518.139088 
L 570.69888 499.210807 
L 571.108411 498.893156 
L 571.515847 534.21115 
L 571.921209 510.721549 
L 572.32452 514.502383 
L 572.725798 503.540664 
L 573.125065 509.871228 
L 573.52234 513.693816 
L 573.917644 492.459468 
L 574.310996 518.567531 
L 574.702415 501.104634 
L 575.091919 517.037367 
L 575.479529 491.546469 
L 575.865261 511.88352 
L 576.249135 491.926938 
L 576.631167 510.887047 
L 577.011376 536.263074 
L 577.389778 503.950737 
L 577.766391 517.039946 
L 578.141232 490.308175 
L 578.514318 496.296589 
L 578.885664 505.378085 
L 579.255287 508.643845 
L 579.623202 485.7715 
L 579.989426 491.869865 
L 580.353974 513.529011 
L 580.716861 502.538875 
L 581.078102 519.738903 
L 581.437713 489.633317 
L 581.795707 516.544042 
L 582.152099 517.836603 
L 582.506904 491.680057 
L 582.860136 509.713402 
L 583.211808 509.955633 
L 583.561934 501.147045 
L 583.910528 487.357155 
L 584.257603 497.028721 
L 584.603172 513.559891 
L 584.947248 503.997688 
L 585.289845 506.141824 
L 585.630974 501.416108 
L 585.970649 516.68771 
L 586.308881 495.627501 
L 586.645683 521.179889 
L 586.981067 481.434169 
L 587.315045 520.734501 
L 587.647628 495.848771 
L 587.978828 500.883701 
L 588.308657 500.84636 
L 588.637126 500.12572 
L 588.964246 518.203575 
L 589.290028 524.021924 
L 589.614483 494.722434 
L 589.937621 505.466942 
L 590.259454 512.347963 
L 590.579992 497.074035 
L 590.899246 525.030031 
L 591.217224 499.185387 
L 591.533939 495.838774 
L 591.849399 506.443254 
L 592.163614 503.395475 
L 592.476596 510.333799 
L 593.098892 552.099606 
L 593.408227 496.75728 
L 593.716365 515.618811 
L 594.023315 502.791625 
L 594.329088 496.691774 
L 594.633691 508.601657 
L 595.540572 493.91471 
L 595.840586 507.597662 
L 596.139474 508.15386 
L 596.437245 499.686508 
L 596.733906 523.374749 
L 597.029467 497.403546 
L 597.617319 523.050721 
L 597.909626 506.218453 
L 598.200864 519.542763 
L 598.780166 491.861948 
L 599.068244 498.744708 
L 599.355284 492.892174 
L 599.641294 492.291983 
L 599.92628 494.438485 
L 600.21025 502.265035 
L 600.493212 517.648253 
L 600.775172 510.608398 
L 601.056137 494.126819 
L 601.336115 504.561445 
L 601.615112 500.492086 
L 601.893135 508.298209 
L 602.170191 493.304412 
L 602.446287 497.665639 
L 602.721429 495.723065 
L 602.995624 506.447027 
L 603.268878 501.918454 
L 603.541199 523.879874 
L 603.812591 500.349075 
L 604.083062 513.737983 
L 604.352617 519.938053 
L 604.621264 492.83162 
L 604.889007 515.295037 
L 605.155853 514.701343 
L 605.421809 516.367455 
L 605.686879 525.995419 
L 605.95107 485.174965 
L 606.214388 497.404034 
L 606.476838 519.773841 
L 606.738427 516.994929 
L 607.25904 499.007603 
L 607.518076 504.1657 
L 607.776273 498.433484 
L 608.033635 512.834116 
L 608.290169 506.095756 
L 608.545879 514.031295 
L 608.80077 515.308897 
L 609.054849 515.387743 
L 609.308119 491.888413 
L 609.560587 543.702762 
L 609.812258 495.213789 
L 610.313225 542.739839 
L 610.562532 512.618281 
L 610.811062 498.586724 
L 611.058818 499.900523 
L 611.305806 494.827024 
L 611.55203 533.446943 
L 611.797496 512.554598 
L 612.042208 503.090857 
L 612.28617 505.321495 
L 612.529387 497.433022 
L 612.771864 517.817165 
L 613.013605 496.454144 
L 613.254614 522.291369 
L 613.494897 527.433051 
L 613.734457 506.051603 
L 613.973298 507.707858 
L 614.211426 539.732733 
L 614.448843 511.648364 
L 614.685555 509.586321 
L 614.921566 519.629912 
L 615.15688 514.385835 
L 615.3915 519.219869 
L 615.625431 503.015979 
L 615.858678 503.68208 
L 616.091243 495.854966 
L 616.323131 536.406642 
L 616.554347 514.089747 
L 616.784892 505.393805 
L 617.014773 522.659403 
L 617.243992 489.046807 
L 617.472553 517.86646 
L 617.700461 497.647216 
L 617.927718 503.634432 
L 618.154329 502.961861 
L 618.380296 501.399214 
L 618.605625 502.285185 
L 618.830318 505.116957 
L 619.054379 524.974431 
L 619.277811 505.24461 
L 619.500618 514.557751 
L 619.944372 488.151554 
L 620.165325 518.966257 
L 620.385667 494.702467 
L 620.605401 502.378205 
L 620.824531 485.812112 
L 621.043059 498.079709 
L 621.26099 488.568543 
L 621.478326 509.842961 
L 621.69507 493.817318 
L 621.911227 520.163167 
L 622.126798 490.883423 
L 622.341787 504.241129 
L 622.556198 507.98219 
L 622.983296 488.508909 
L 623.195989 514.470769 
L 623.408116 511.702081 
L 623.61968 501.98992 
L 623.830683 510.045792 
L 624.041128 488.706729 
L 624.669149 525.465204 
L 625.085096 494.740434 
L 625.292257 496.534099 
L 625.498881 496.513307 
L 625.704971 516.922338 
L 625.910528 489.437616 
L 626.115557 498.894747 
L 626.320059 493.071029 
L 626.524038 501.412048 
L 626.930435 487.641937 
L 627.132858 519.657269 
L 627.334768 497.538065 
L 627.536168 501.043684 
L 627.73706 496.115454 
L 627.937446 507.30319 
L 628.13733 508.570589 
L 628.535599 492.910344 
L 628.733989 500.316205 
L 628.931886 531.323286 
L 629.326211 505.115338 
L 629.522644 508.327546 
L 629.718594 490.892313 
L 629.914063 492.764493 
L 630.109054 503.440126 
L 630.303568 503.625088 
L 630.497608 520.935568 
L 630.691177 486.305293 
L 630.884277 516.192142 
L 631.07691 499.121088 
L 631.460783 494.266677 
L 631.652028 512.669004 
L 631.842815 499.647718 
L 632.033146 503.398674 
L 632.223024 516.329467 
L 632.97804 486.492191 
L 633.165681 496.626825 
L 633.352881 529.320602 
L 633.539642 492.006408 
L 633.725966 499.742186 
L 633.911856 532.690492 
L 634.097312 483.206922 
L 634.282338 488.17715 
L 634.466935 509.60618 
L 634.83485 498.041295 
L 635.018173 499.776385 
L 635.201074 482.013644 
L 635.383557 560.444367 
L 635.565622 492.780633 
L 635.747272 490.125178 
L 635.928509 484.643125 
L 636.289751 510.287788 
L 636.469759 483.724217 
L 636.649361 507.394463 
L 636.828559 498.9689 
L 637.007355 499.788172 
L 637.185751 506.847207 
L 637.363748 489.897586 
L 637.541348 508.704592 
L 637.718553 500.730551 
L 637.895364 540.807531 
L 638.071784 502.55026 
L 638.247814 517.857163 
L 638.423456 499.617663 
L 638.598712 500.263197 
L 638.773582 507.656034 
L 638.94807 505.978191 
L 639.122176 499.577541 
L 639.295903 487.262383 
L 639.469251 485.57412 
L 639.642223 500.344905 
L 639.81482 492.937289 
L 639.987044 496.373956 
L 640.330379 515.206124 
L 640.501493 520.420638 
L 640.67224 490.588011 
L 640.842622 508.354714 
L 641.012641 509.716726 
L 641.182297 503.162 
L 641.351593 490.440803 
L 641.520529 493.15849 
L 641.689108 506.448349 
L 641.857331 497.248106 
L 642.0252 526.035414 
L 642.192715 478.063461 
L 642.359879 495.190831 
L 642.526693 526.345636 
L 642.693158 486.835068 
L 643.025049 502.152987 
L 643.190477 491.704767 
L 643.520306 519.660348 
L 643.684709 493.003194 
L 644.012502 513.149384 
L 644.175894 507.506885 
L 644.338952 496.866415 
L 644.664069 509.103743 
L 644.826131 500.082759 
L 644.987864 499.614671 
L 645.14927 516.402116 
L 645.310349 510.630426 
L 645.471103 497.436291 
L 645.631533 512.347832 
L 645.791641 512.393622 
L 645.951427 539.535368 
L 646.110894 494.109236 
L 646.270042 495.043565 
L 646.428873 505.47697 
L 646.587387 506.242638 
L 646.745587 538.475099 
L 646.903473 504.779157 
L 647.061047 514.329885 
L 647.21831 506.895266 
L 647.375263 508.821839 
L 647.531907 522.430019 
L 647.688244 523.915275 
L 647.844274 503.017418 
L 647.844274 503.017418 
" style="fill:none;stroke:#b22222;stroke-linecap:round;stroke-width:1.75;"/>
   </g>
   <g id="patch_6">
    <path d="M 90 512.64 
L 90 311.04 
" style="fill:none;stroke:#262626;stroke-linecap:square;stroke-linejoin:miter;stroke-width:1.25;"/>
   </g>
   <g id="patch_7">
    <path d="M 90 512.64 
L 648 512.64 
" style="fill:none;stroke:#262626;stroke-linecap:square;stroke-linejoin:miter;stroke-width:1.25;"/>
   </g>
  </g>
 </g>
 <defs>
  <clipPath id="pe25a0890e2">
   <rect height="201.6" width="558" x="90" y="69.12"/>
  </clipPath>
  <clipPath id="p9e2dd7b52e">
   <rect height="201.6" width="558" x="90" y="311.04"/>
  </clipPath>
 </defs>
</svg>
