<?xml version="1.0" encoding="utf-8" standalone="no"?>
<!DOCTYPE svg PUBLIC "-//W3C//DTD SVG 1.1//EN"
  "http://www.w3.org/Graphics/SVG/1.1/DTD/svg11.dtd">
<!-- Created with matplotlib (http://matplotlib.org/) -->
<svg height="576pt" version="1.1" viewBox="0 0 720 576" width="720pt" xmlns="http://www.w3.org/2000/svg" xmlns:xlink="http://www.w3.org/1999/xlink">
 <defs>
  <style type="text/css">
*{stroke-linecap:butt;stroke-linejoin:round;}
  </style>
 </defs>
 <g id="figure_1">
  <g id="patch_1">
   <path d="M 0 576 
L 720 576 
L 720 0 
L 0 0 
z
" style="fill:#ffffff;"/>
  </g>
  <g id="axes_1">
   <g id="patch_2">
    <path d="M 90 270.72 
L 648 270.72 
L 648 69.12 
L 90 69.12 
z
" style="fill:#ffffff;"/>
   </g>
   <g id="matplotlib.axis_1">
    <g id="xtick_1">
     <g id="line2d_1">
      <defs>
       <path d="M 0 0 
L 0 6 
" id="md86da8134d" style="stroke:#262626;"/>
      </defs>
      <g>
       <use style="fill:#262626;stroke:#262626;" x="90" xlink:href="#md86da8134d" y="270.72"/>
      </g>
     </g>
     <g id="text_1">
      <!-- 0 -->
      <defs>
       <path d="M 4.15625 35.296875 
Q 4.15625 48 6.765625 55.734375 
Q 9.375 63.484375 14.515625 67.671875 
Q 19.671875 71.875 27.484375 71.875 
Q 33.25 71.875 37.59375 69.546875 
Q 41.9375 67.234375 44.765625 62.859375 
Q 47.609375 58.5 49.21875 52.21875 
Q 50.828125 45.953125 50.828125 35.296875 
Q 50.828125 22.703125 48.234375 14.96875 
Q 45.65625 7.234375 40.5 3 
Q 35.359375 -1.21875 27.484375 -1.21875 
Q 17.140625 -1.21875 11.234375 6.203125 
Q 4.15625 15.140625 4.15625 35.296875 
z
M 13.1875 35.296875 
Q 13.1875 17.671875 17.3125 11.828125 
Q 21.4375 6 27.484375 6 
Q 33.546875 6 37.671875 11.859375 
Q 41.796875 17.71875 41.796875 35.296875 
Q 41.796875 52.984375 37.671875 58.78125 
Q 33.546875 64.59375 27.390625 64.59375 
Q 21.34375 64.59375 17.71875 59.46875 
Q 13.1875 52.9375 13.1875 35.296875 
z
" id="ArialMT-30"/>
      </defs>
      <g style="fill:#262626;" transform="translate(87.219531 290.877812)scale(0.1 -0.1)">
       <use xlink:href="#ArialMT-30"/>
      </g>
     </g>
    </g>
    <g id="xtick_2">
     <g id="line2d_2">
      <g>
       <use style="fill:#262626;stroke:#262626;" x="198.984375" xlink:href="#md86da8134d" y="270.72"/>
      </g>
     </g>
     <g id="text_2">
      <!-- 200 -->
      <defs>
       <path d="M 50.34375 8.453125 
L 50.34375 0 
L 3.03125 0 
Q 2.9375 3.171875 4.046875 6.109375 
Q 5.859375 10.9375 9.828125 15.625 
Q 13.8125 20.3125 21.34375 26.46875 
Q 33.015625 36.03125 37.109375 41.625 
Q 41.21875 47.21875 41.21875 52.203125 
Q 41.21875 57.421875 37.46875 61 
Q 33.734375 64.59375 27.734375 64.59375 
Q 21.390625 64.59375 17.578125 60.78125 
Q 13.765625 56.984375 13.71875 50.25 
L 4.6875 51.171875 
Q 5.609375 61.28125 11.65625 66.578125 
Q 17.71875 71.875 27.9375 71.875 
Q 38.234375 71.875 44.234375 66.15625 
Q 50.25 60.453125 50.25 52 
Q 50.25 47.703125 48.484375 43.546875 
Q 46.734375 39.40625 42.65625 34.8125 
Q 38.578125 30.21875 29.109375 22.21875 
Q 21.1875 15.578125 18.9375 13.203125 
Q 16.703125 10.84375 15.234375 8.453125 
z
" id="ArialMT-32"/>
      </defs>
      <g style="fill:#262626;" transform="translate(190.642969 290.877812)scale(0.1 -0.1)">
       <use xlink:href="#ArialMT-32"/>
       <use x="55.615234" xlink:href="#ArialMT-30"/>
       <use x="111.230469" xlink:href="#ArialMT-30"/>
      </g>
     </g>
    </g>
    <g id="xtick_3">
     <g id="line2d_3">
      <g>
       <use style="fill:#262626;stroke:#262626;" x="307.96875" xlink:href="#md86da8134d" y="270.72"/>
      </g>
     </g>
     <g id="text_3">
      <!-- 400 -->
      <defs>
       <path d="M 32.328125 0 
L 32.328125 17.140625 
L 1.265625 17.140625 
L 1.265625 25.203125 
L 33.9375 71.578125 
L 41.109375 71.578125 
L 41.109375 25.203125 
L 50.78125 25.203125 
L 50.78125 17.140625 
L 41.109375 17.140625 
L 41.109375 0 
z
M 32.328125 25.203125 
L 32.328125 57.46875 
L 9.90625 25.203125 
z
" id="ArialMT-34"/>
      </defs>
      <g style="fill:#262626;" transform="translate(299.627344 290.877812)scale(0.1 -0.1)">
       <use xlink:href="#ArialMT-34"/>
       <use x="55.615234" xlink:href="#ArialMT-30"/>
       <use x="111.230469" xlink:href="#ArialMT-30"/>
      </g>
     </g>
    </g>
    <g id="xtick_4">
     <g id="line2d_4">
      <g>
       <use style="fill:#262626;stroke:#262626;" x="416.953125" xlink:href="#md86da8134d" y="270.72"/>
      </g>
     </g>
     <g id="text_4">
      <!-- 600 -->
      <defs>
       <path d="M 49.75 54.046875 
L 41.015625 53.375 
Q 39.84375 58.546875 37.703125 60.890625 
Q 34.125 64.65625 28.90625 64.65625 
Q 24.703125 64.65625 21.53125 62.3125 
Q 17.390625 59.28125 14.984375 53.46875 
Q 12.59375 47.65625 12.5 36.921875 
Q 15.671875 41.75 20.265625 44.09375 
Q 24.859375 46.4375 29.890625 46.4375 
Q 38.671875 46.4375 44.84375 39.96875 
Q 51.03125 33.5 51.03125 23.25 
Q 51.03125 16.5 48.125 10.71875 
Q 45.21875 4.9375 40.140625 1.859375 
Q 35.0625 -1.21875 28.609375 -1.21875 
Q 17.625 -1.21875 10.6875 6.859375 
Q 3.765625 14.9375 3.765625 33.5 
Q 3.765625 54.25 11.421875 63.671875 
Q 18.109375 71.875 29.4375 71.875 
Q 37.890625 71.875 43.28125 67.140625 
Q 48.6875 62.40625 49.75 54.046875 
z
M 13.875 23.1875 
Q 13.875 18.65625 15.796875 14.5 
Q 17.71875 10.359375 21.1875 8.171875 
Q 24.65625 6 28.46875 6 
Q 34.03125 6 38.03125 10.484375 
Q 42.046875 14.984375 42.046875 22.703125 
Q 42.046875 30.125 38.078125 34.390625 
Q 34.125 38.671875 28.125 38.671875 
Q 22.171875 38.671875 18.015625 34.390625 
Q 13.875 30.125 13.875 23.1875 
z
" id="ArialMT-36"/>
      </defs>
      <g style="fill:#262626;" transform="translate(408.611719 290.877812)scale(0.1 -0.1)">
       <use xlink:href="#ArialMT-36"/>
       <use x="55.615234" xlink:href="#ArialMT-30"/>
       <use x="111.230469" xlink:href="#ArialMT-30"/>
      </g>
     </g>
    </g>
    <g id="xtick_5">
     <g id="line2d_5">
      <g>
       <use style="fill:#262626;stroke:#262626;" x="525.9375" xlink:href="#md86da8134d" y="270.72"/>
      </g>
     </g>
     <g id="text_5">
      <!-- 800 -->
      <defs>
       <path d="M 17.671875 38.8125 
Q 12.203125 40.828125 9.5625 44.53125 
Q 6.9375 48.25 6.9375 53.421875 
Q 6.9375 61.234375 12.546875 66.546875 
Q 18.171875 71.875 27.484375 71.875 
Q 36.859375 71.875 42.578125 66.421875 
Q 48.296875 60.984375 48.296875 53.171875 
Q 48.296875 48.1875 45.671875 44.5 
Q 43.0625 40.828125 37.75 38.8125 
Q 44.34375 36.671875 47.78125 31.875 
Q 51.21875 27.09375 51.21875 20.453125 
Q 51.21875 11.28125 44.71875 5.03125 
Q 38.234375 -1.21875 27.640625 -1.21875 
Q 17.046875 -1.21875 10.546875 5.046875 
Q 4.046875 11.328125 4.046875 20.703125 
Q 4.046875 27.6875 7.59375 32.390625 
Q 11.140625 37.109375 17.671875 38.8125 
z
M 15.921875 53.71875 
Q 15.921875 48.640625 19.1875 45.40625 
Q 22.46875 42.1875 27.6875 42.1875 
Q 32.765625 42.1875 36.015625 45.375 
Q 39.265625 48.578125 39.265625 53.21875 
Q 39.265625 58.0625 35.90625 61.359375 
Q 32.5625 64.65625 27.59375 64.65625 
Q 22.5625 64.65625 19.234375 61.421875 
Q 15.921875 58.203125 15.921875 53.71875 
z
M 13.09375 20.65625 
Q 13.09375 16.890625 14.875 13.375 
Q 16.65625 9.859375 20.171875 7.921875 
Q 23.6875 6 27.734375 6 
Q 34.03125 6 38.125 10.046875 
Q 42.234375 14.109375 42.234375 20.359375 
Q 42.234375 26.703125 38.015625 30.859375 
Q 33.796875 35.015625 27.4375 35.015625 
Q 21.234375 35.015625 17.15625 30.90625 
Q 13.09375 26.8125 13.09375 20.65625 
z
" id="ArialMT-38"/>
      </defs>
      <g style="fill:#262626;" transform="translate(517.596094 290.877812)scale(0.1 -0.1)">
       <use xlink:href="#ArialMT-38"/>
       <use x="55.615234" xlink:href="#ArialMT-30"/>
       <use x="111.230469" xlink:href="#ArialMT-30"/>
      </g>
     </g>
    </g>
    <g id="xtick_6">
     <g id="line2d_6">
      <g>
       <use style="fill:#262626;stroke:#262626;" x="634.921875" xlink:href="#md86da8134d" y="270.72"/>
      </g>
     </g>
     <g id="text_6">
      <!-- 1000 -->
      <defs>
       <path d="M 37.25 0 
L 28.46875 0 
L 28.46875 56 
Q 25.296875 52.984375 20.140625 49.953125 
Q 14.984375 46.921875 10.890625 45.40625 
L 10.890625 53.90625 
Q 18.265625 57.375 23.78125 62.296875 
Q 29.296875 67.234375 31.59375 71.875 
L 37.25 71.875 
z
" id="ArialMT-31"/>
      </defs>
      <g style="fill:#262626;" transform="translate(623.8 290.877812)scale(0.1 -0.1)">
       <use xlink:href="#ArialMT-31"/>
       <use x="55.615234" xlink:href="#ArialMT-30"/>
       <use x="111.230469" xlink:href="#ArialMT-30"/>
       <use x="166.845703" xlink:href="#ArialMT-30"/>
      </g>
     </g>
    </g>
   </g>
   <g id="matplotlib.axis_2">
    <g id="ytick_1">
     <g id="line2d_7">
      <defs>
       <path d="M 0 0 
L -6 0 
" id="m1762351710" style="stroke:#262626;"/>
      </defs>
      <g>
       <use style="fill:#262626;stroke:#262626;" x="90" xlink:href="#m1762351710" y="270.72"/>
      </g>
     </g>
     <g id="text_7">
      <!-- −0.6 -->
      <defs>
       <path d="M 52.828125 31.203125 
L 5.5625 31.203125 
L 5.5625 39.40625 
L 52.828125 39.40625 
z
" id="ArialMT-2212"/>
       <path d="M 9.078125 0 
L 9.078125 10.015625 
L 19.09375 10.015625 
L 19.09375 0 
z
" id="ArialMT-2e"/>
      </defs>
      <g style="fill:#262626;" transform="translate(57.259375 274.298906)scale(0.1 -0.1)">
       <use xlink:href="#ArialMT-2212"/>
       <use x="58.398438" xlink:href="#ArialMT-30"/>
       <use x="114.013672" xlink:href="#ArialMT-2e"/>
       <use x="141.796875" xlink:href="#ArialMT-36"/>
      </g>
     </g>
    </g>
    <g id="ytick_2">
     <g id="line2d_8">
      <g>
       <use style="fill:#262626;stroke:#262626;" x="90" xlink:href="#m1762351710" y="237.12"/>
      </g>
     </g>
     <g id="text_8">
      <!-- −0.4 -->
      <g style="fill:#262626;" transform="translate(57.259375 240.698906)scale(0.1 -0.1)">
       <use xlink:href="#ArialMT-2212"/>
       <use x="58.398438" xlink:href="#ArialMT-30"/>
       <use x="114.013672" xlink:href="#ArialMT-2e"/>
       <use x="141.796875" xlink:href="#ArialMT-34"/>
      </g>
     </g>
    </g>
    <g id="ytick_3">
     <g id="line2d_9">
      <g>
       <use style="fill:#262626;stroke:#262626;" x="90" xlink:href="#m1762351710" y="203.52"/>
      </g>
     </g>
     <g id="text_9">
      <!-- −0.2 -->
      <g style="fill:#262626;" transform="translate(57.259375 207.098906)scale(0.1 -0.1)">
       <use xlink:href="#ArialMT-2212"/>
       <use x="58.398438" xlink:href="#ArialMT-30"/>
       <use x="114.013672" xlink:href="#ArialMT-2e"/>
       <use x="141.796875" xlink:href="#ArialMT-32"/>
      </g>
     </g>
    </g>
    <g id="ytick_4">
     <g id="line2d_10">
      <g>
       <use style="fill:#262626;stroke:#262626;" x="90" xlink:href="#m1762351710" y="169.92"/>
      </g>
     </g>
     <g id="text_10">
      <!-- 0.0 -->
      <g style="fill:#262626;" transform="translate(63.1 173.498906)scale(0.1 -0.1)">
       <use xlink:href="#ArialMT-30"/>
       <use x="55.615234" xlink:href="#ArialMT-2e"/>
       <use x="83.398438" xlink:href="#ArialMT-30"/>
      </g>
     </g>
    </g>
    <g id="ytick_5">
     <g id="line2d_11">
      <g>
       <use style="fill:#262626;stroke:#262626;" x="90" xlink:href="#m1762351710" y="136.32"/>
      </g>
     </g>
     <g id="text_11">
      <!-- 0.2 -->
      <g style="fill:#262626;" transform="translate(63.1 139.898906)scale(0.1 -0.1)">
       <use xlink:href="#ArialMT-30"/>
       <use x="55.615234" xlink:href="#ArialMT-2e"/>
       <use x="83.398438" xlink:href="#ArialMT-32"/>
      </g>
     </g>
    </g>
    <g id="ytick_6">
     <g id="line2d_12">
      <g>
       <use style="fill:#262626;stroke:#262626;" x="90" xlink:href="#m1762351710" y="102.72"/>
      </g>
     </g>
     <g id="text_12">
      <!-- 0.4 -->
      <g style="fill:#262626;" transform="translate(63.1 106.298906)scale(0.1 -0.1)">
       <use xlink:href="#ArialMT-30"/>
       <use x="55.615234" xlink:href="#ArialMT-2e"/>
       <use x="83.398438" xlink:href="#ArialMT-34"/>
      </g>
     </g>
    </g>
    <g id="ytick_7">
     <g id="line2d_13">
      <g>
       <use style="fill:#262626;stroke:#262626;" x="90" xlink:href="#m1762351710" y="69.12"/>
      </g>
     </g>
     <g id="text_13">
      <!-- 0.6 -->
      <g style="fill:#262626;" transform="translate(63.1 72.698906)scale(0.1 -0.1)">
       <use xlink:href="#ArialMT-30"/>
       <use x="55.615234" xlink:href="#ArialMT-2e"/>
       <use x="83.398438" xlink:href="#ArialMT-36"/>
      </g>
     </g>
    </g>
   </g>
   <g id="line2d_14">
    <path clip-path="url(#p67af4fcfd2)" d="M 90 162.383379 
L 91.634766 164.177812 
L 92.724609 165.14168 
L 93.814453 165.782549 
L 94.904297 166.120928 
L 95.449219 166.556719 
L 95.994141 166.69002 
L 97.083984 167.289873 
L 98.173828 167.848711 
L 98.71875 167.823076 
L 99.263672 168.315264 
L 99.808594 168.387041 
L 100.353516 168.884355 
L 101.443359 168.771562 
L 101.988281 168.694658 
L 103.623047 166.202959 
L 104.167969 165.018633 
L 107.982422 154.395586 
L 108.527344 153.165117 
L 109.072266 152.390947 
L 109.617188 151.873125 
L 110.162109 151.570635 
L 110.707031 151.755205 
L 111.251953 152.303789 
L 112.341797 154.123857 
L 112.886719 155.841387 
L 113.431641 157.087236 
L 116.15625 167.141191 
L 117.791016 173.678057 
L 118.880859 177.328447 
L 119.970703 179.968828 
L 120.515625 181.112139 
L 121.060547 181.794023 
L 121.605469 182.183672 
L 122.150391 182.429766 
L 123.240234 182.076006 
L 123.785156 182.183672 
L 124.875 181.599199 
L 126.509766 180.214922 
L 127.054688 179.286943 
L 128.689453 175.22127 
L 129.234375 173.25252 
L 130.324219 170.017412 
L 131.958984 165.490312 
L 133.59375 162.931963 
L 134.138672 162.521807 
L 134.683594 162.337236 
L 135.228516 162.557695 
L 136.318359 163.608721 
L 137.408203 165.885088 
L 137.953125 167.089922 
L 139.587891 171.893877 
L 142.3125 181.624834 
L 142.857422 183.188555 
L 143.402344 184.383135 
L 143.947266 185.295732 
L 145.037109 186.059648 
L 146.126953 184.89583 
L 147.216797 182.634844 
L 148.306641 179.538164 
L 151.576172 170.063555 
L 152.121094 168.125566 
L 153.210938 165.136553 
L 155.390625 160.465898 
L 155.935547 159.548174 
L 156.480469 159.23543 
L 157.025391 158.753496 
L 157.570312 158.8304 
L 158.660156 159.72249 
L 159.75 161.527178 
L 160.294922 162.680742 
L 160.839844 163.352373 
L 161.384766 164.48543 
L 161.929688 165.321123 
L 163.564453 167.028398 
L 165.199219 168.00252 
L 165.744141 168.130693 
L 166.289062 168.407549 
L 166.833984 168.551104 
L 167.378906 168.817705 
L 167.923828 168.863848 
L 168.46875 168.745928 
L 169.013672 168.428057 
L 170.648438 166.772051 
L 172.283203 164.726396 
L 172.828125 163.685625 
L 173.373047 163.29085 
L 173.917969 162.46541 
L 174.462891 161.973223 
L 175.007812 161.327227 
L 176.097656 160.573564 
L 177.1875 160.542803 
L 177.732422 160.609453 
L 180.457031 162.860186 
L 181.001953 163.690752 
L 182.091797 164.859697 
L 183.726562 166.761797 
L 184.271484 166.905352 
L 184.816406 167.561602 
L 185.361328 167.659014 
L 185.90625 168.140947 
L 186.451172 167.982012 
L 187.541016 168.904863 
L 188.085938 169.099687 
L 188.630859 169.530352 
L 189.175781 170.217363 
L 189.720703 170.62752 
L 191.355469 172.298906 
L 191.900391 172.442461 
L 192.445312 172.806475 
L 192.990234 172.703936 
L 193.535156 172.457842 
L 194.080078 172.00667 
L 195.169922 170.571123 
L 196.804688 166.372148 
L 199.529297 157.984453 
L 200.074219 156.425859 
L 200.619141 155.4825 
L 201.708984 154.482744 
L 202.253906 154.282793 
L 203.34375 154.651934 
L 203.888672 155.395342 
L 205.523438 159.250811 
L 206.068359 160.758135 
L 207.703125 167.043779 
L 209.337891 173.693437 
L 210.427734 177.066973 
L 210.972656 178.599932 
L 212.607422 181.701738 
L 213.152344 182.598955 
L 214.787109 184.429277 
L 215.332031 184.701006 
L 216.421875 184.967607 
L 217.511719 184.075518 
L 218.601562 182.3221 
L 219.691406 180.004717 
L 221.326172 175.211016 
L 222.416016 171.70418 
L 223.505859 168.55623 
L 225.140625 165.546709 
L 226.230469 164.536699 
L 226.775391 164.388018 
L 227.320312 164.454668 
L 227.865234 164.36751 
L 228.410156 164.885332 
L 228.955078 165.690264 
L 229.5 166.82332 
L 230.589844 169.761064 
L 233.859375 182.040117 
L 234.949219 184.941973 
L 236.039062 186.541582 
L 236.583984 186.659502 
L 237.128906 186.531328 
L 237.673828 186.146807 
L 238.21875 185.598223 
L 238.763672 184.803545 
L 242.578125 175.026445 
L 246.392578 163.65999 
L 247.482422 161.609209 
L 248.027344 161.342607 
L 248.572266 160.829912 
L 249.662109 161.281084 
L 251.296875 162.496172 
L 251.841797 163.101152 
L 252.386719 163.890703 
L 253.476562 165.064775 
L 254.021484 165.951738 
L 254.566406 166.484941 
L 255.111328 167.433428 
L 255.65625 167.961504 
L 256.746094 169.31502 
L 258.925781 170.376299 
L 259.470703 170.186602 
L 260.015625 170.27376 
L 260.560547 170.130205 
L 261.105469 169.740557 
L 261.650391 169.755937 
L 264.375 166.074785 
L 265.464844 164.305986 
L 266.009766 163.9471 
L 266.554688 162.911455 
L 267.644531 162.173174 
L 268.189453 162.137285 
L 268.734375 161.850176 
L 269.279297 161.701494 
L 270.369141 162.296221 
L 271.458984 163.249834 
L 272.003906 163.993242 
L 272.548828 164.418779 
L 273.638672 165.844072 
L 274.183594 166.40291 
L 275.273438 167.120684 
L 276.363281 167.546221 
L 277.998047 168.274248 
L 278.542969 168.771562 
L 279.087891 169.094561 
L 279.632812 169.750811 
L 280.177734 170.114824 
L 281.267578 171.760576 
L 281.8125 172.30916 
L 282.902344 173.596025 
L 283.447266 174.267656 
L 284.537109 174.929033 
L 285.626953 174.46248 
L 286.716797 172.985918 
L 287.261719 171.77083 
L 289.441406 165.541582 
L 290.53125 162.342363 
L 291.621094 159.337969 
L 292.166016 158.240801 
L 292.710938 156.851396 
L 293.255859 156.179766 
L 293.800781 155.318437 
L 294.345703 154.872393 
L 294.890625 154.995439 
L 295.435547 155.385088 
L 296.525391 157.194902 
L 298.160156 162.316729 
L 300.339844 170.432695 
L 301.429688 174.083086 
L 304.154297 181.091631 
L 304.699219 182.27083 
L 306.878906 185.598223 
L 307.423828 186.203203 
L 307.96875 186.408281 
L 308.513672 186.480059 
L 309.058594 186.059648 
L 310.148438 184.77791 
L 310.693359 183.757646 
L 311.783203 180.558428 
L 312.873047 177.91292 
L 315.052734 171.914385 
L 317.232422 166.833574 
L 318.322266 165.310869 
L 318.867188 164.941729 
L 319.412109 164.813555 
L 319.957031 165.100664 
L 320.501953 165.62874 
L 321.046875 166.602861 
L 322.136719 169.427812 
L 323.226562 173.221758 
L 325.40625 181.276201 
L 325.951172 182.921953 
L 326.496094 184.162676 
L 327.585938 185.910967 
L 329.220703 186.162187 
L 329.765625 185.957109 
L 330.310547 185.275225 
L 330.855469 184.926592 
L 331.400391 184.219072 
L 332.490234 181.988848 
L 333.035156 180.676348 
L 334.125 177.55916 
L 334.669922 175.303301 
L 335.759766 171.668291 
L 336.849609 168.00252 
L 337.394531 166.484941 
L 337.939453 165.32625 
L 338.484375 163.726641 
L 339.574219 162.193682 
L 340.119141 161.783525 
L 340.664062 161.173418 
L 341.753906 161.147783 
L 343.388672 162.127031 
L 345.568359 164.495684 
L 346.113281 164.987871 
L 348.292969 167.546221 
L 348.837891 167.817949 
L 349.382812 168.376787 
L 349.927734 168.720293 
L 350.472656 169.320146 
L 351.017578 169.663652 
L 351.5625 169.520098 
L 352.107422 169.520098 
L 352.652344 169.397051 
L 353.197266 169.007402 
L 353.742188 168.756182 
L 354.287109 168.012773 
L 354.832031 167.520586 
L 355.376953 166.649004 
L 355.921875 166.069658 
L 357.011719 164.162432 
L 358.646484 161.906572 
L 359.191406 161.260576 
L 359.736328 160.952959 
L 360.28125 160.78377 
L 361.916016 161.15291 
L 363.005859 162.296221 
L 363.550781 162.409014 
L 364.095703 163.096025 
L 364.640625 163.572832 
L 365.730469 164.111162 
L 366.820312 164.957109 
L 367.365234 165.146807 
L 368.455078 165.741533 
L 369 165.695391 
L 369.544922 166.213213 
L 370.089844 166.397783 
L 371.179688 167.115557 
L 372.269531 168.96126 
L 373.904297 171.857988 
L 374.449219 172.893633 
L 374.994141 173.549883 
L 375.539062 173.90877 
L 376.083984 174.062578 
L 376.628906 174.083086 
L 377.71875 173.349932 
L 378.263672 172.647539 
L 379.353516 170.699297 
L 379.898438 169.571367 
L 381.533203 164.926348 
L 383.712891 158.020342 
L 384.257812 156.605303 
L 385.347656 154.872393 
L 385.892578 154.349443 
L 386.4375 154.22127 
L 386.982422 154.744219 
L 387.527344 155.031328 
L 388.617188 157.389727 
L 389.707031 160.471025 
L 391.341797 165.818437 
L 392.431641 169.191973 
L 394.066406 174.031816 
L 395.701172 178.856279 
L 396.246094 180.758379 
L 397.335938 183.28084 
L 397.880859 184.331865 
L 398.970703 185.700762 
L 399.515625 185.628984 
L 400.060547 185.813555 
L 400.605469 185.664873 
L 401.150391 185.018877 
L 401.695312 184.613848 
L 402.785156 183.060381 
L 403.875 181.081377 
L 406.054688 175.482744 
L 406.599609 173.667803 
L 407.689453 170.883867 
L 408.779297 167.925615 
L 409.324219 166.525957 
L 410.414062 164.598223 
L 410.958984 164.254717 
L 411.503906 164.223955 
L 412.048828 164.67 
L 412.59375 165.613359 
L 413.138672 166.787432 
L 414.228516 170.294268 
L 416.953125 179.57918 
L 419.132812 184.536943 
L 419.677734 185.449541 
L 420.222656 185.818682 
L 420.767578 186.423662 
L 421.3125 186.74666 
L 421.857422 186.592852 
L 422.402344 186.731279 
L 423.492188 185.147051 
L 424.582031 182.706621 
L 426.216797 177.928301 
L 428.941406 169.176592 
L 430.576172 165.151934 
L 431.121094 164.398271 
L 432.210938 163.336992 
L 433.300781 162.757646 
L 434.390625 162.70125 
L 434.935547 162.921709 
L 436.025391 163.644609 
L 438.75 166.643877 
L 439.294922 166.956621 
L 440.929688 168.956133 
L 441.474609 169.356035 
L 442.564453 170.473711 
L 443.109375 170.668535 
L 443.654297 171.027422 
L 444.199219 170.914629 
L 444.744141 170.935137 
L 445.289062 170.560869 
L 446.923828 168.412676 
L 448.013672 166.695146 
L 449.103516 164.772539 
L 450.193359 163.670244 
L 451.828125 162.455156 
L 452.373047 162.296221 
L 453.462891 162.265459 
L 454.552734 162.839678 
L 455.097656 163.485674 
L 455.642578 163.757402 
L 456.1875 164.398271 
L 457.822266 165.372393 
L 460.001953 165.577471 
L 461.091797 166.146562 
L 461.636719 166.443926 
L 462.181641 167.187334 
L 462.726562 167.694902 
L 464.361328 170.258379 
L 465.451172 171.786211 
L 465.996094 172.765459 
L 467.630859 174.426592 
L 468.175781 174.893145 
L 468.720703 174.831621 
L 469.810547 174.390703 
L 470.900391 172.550127 
L 471.990234 170.232744 
L 473.625 165.315996 
L 475.259766 159.584062 
L 476.349609 156.595049 
L 477.439453 154.7596 
L 477.984375 154.364824 
L 478.529297 154.467363 
L 479.074219 154.815996 
L 479.619141 155.513262 
L 481.798828 159.635332 
L 483.978516 165.854326 
L 485.613281 171.391436 
L 487.248047 177.051592 
L 488.337891 180.061113 
L 489.972656 183.485918 
L 491.0625 184.629229 
L 492.152344 185.295732 
L 493.787109 184.388262 
L 494.876953 182.911699 
L 496.511719 179.630449 
L 498.691406 172.991045 
L 500.871094 165.654375 
L 501.960938 163.567705 
L 502.505859 163.244707 
L 503.050781 163.249834 
L 504.140625 164.152178 
L 505.230469 166.443926 
L 505.775391 167.705156 
L 506.865234 170.99666 
L 507.410156 172.319414 
L 508.5 175.790361 
L 509.589844 178.748613 
L 510.679688 181.342852 
L 511.769531 183.239824 
L 512.859375 184.295977 
L 513.404297 184.439531 
L 513.949219 184.444658 
L 514.494141 184.260088 
L 515.583984 182.747637 
L 516.128906 181.901689 
L 517.21875 178.902422 
L 517.763672 177.548906 
L 519.943359 170.335283 
L 522.667969 163.336992 
L 523.212891 162.270586 
L 524.302734 160.993975 
L 525.392578 160.327471 
L 525.9375 160.209551 
L 528.117188 160.973467 
L 529.207031 161.722002 
L 530.841797 163.367754 
L 533.021484 166.715654 
L 534.111328 168.089678 
L 535.746094 168.387041 
L 536.835938 167.838457 
L 537.925781 166.869463 
L 539.560547 165.003252 
L 540.650391 163.208818 
L 541.195312 162.51668 
L 541.740234 161.511797 
L 543.375 160.101885 
L 544.464844 159.901934 
L 545.554688 160.445391 
L 546.099609 160.368486 
L 546.644531 160.79915 
L 547.734375 161.029863 
L 548.279297 161.250322 
L 551.003906 161.404131 
L 552.09375 162.024492 
L 552.638672 162.065508 
L 553.183594 162.598711 
L 553.728516 163.398516 
L 554.273438 163.941973 
L 556.998047 167.95125 
L 557.542969 168.945879 
L 558.087891 169.453447 
L 558.632812 170.355791 
L 559.177734 170.76082 
L 559.722656 171.463213 
L 560.267578 171.596514 
L 560.8125 171.909258 
L 561.357422 171.852861 
L 561.902344 171.35042 
L 562.447266 170.601885 
L 562.992188 169.597002 
L 564.082031 166.28499 
L 564.626953 164.582842 
L 565.171875 162.265459 
L 567.351562 155.344072 
L 567.896484 154.005937 
L 568.986328 152.662676 
L 570.076172 151.914141 
L 571.166016 152.103838 
L 572.255859 153.088213 
L 572.800781 153.888018 
L 573.890625 156.13875 
L 574.435547 157.323076 
L 576.070312 162.168047 
L 579.339844 173.565264 
L 579.884766 174.775225 
L 580.429688 176.461992 
L 581.519531 178.589678 
L 582.064453 179.486895 
L 583.154297 180.845537 
L 583.699219 181.065996 
L 584.244141 181.737627 
L 584.789062 181.906816 
L 585.333984 181.85042 
L 585.878906 181.676104 
L 586.423828 181.337725 
L 587.513672 179.927812 
L 588.058594 178.615312 
L 589.693359 173.467852 
L 591.873047 165.741533 
L 592.962891 163.131914 
L 593.507812 162.214189 
L 594.597656 161.245195 
L 595.142578 161.296465 
L 596.232422 162.39876 
L 597.322266 164.664873 
L 597.867188 165.828691 
L 599.501953 170.494219 
L 602.771484 179.620195 
L 603.861328 181.819658 
L 604.951172 182.99373 
L 606.041016 183.147539 
L 607.130859 181.999102 
L 608.220703 179.979082 
L 608.765625 178.933184 
L 613.125 165.869707 
L 613.669922 164.511064 
L 615.304688 161.880937 
L 615.849609 161.332354 
L 616.394531 160.54793 
L 616.939453 160.091631 
L 617.484375 159.89168 
L 618.029297 159.389238 
L 619.119141 159.132891 
L 619.664062 159.261064 
L 620.208984 159.691729 
L 620.753906 159.953203 
L 622.933594 163.224199 
L 623.478516 163.793291 
L 624.023438 164.664873 
L 624.568359 165.244219 
L 625.658203 166.649004 
L 626.203125 166.895098 
L 627.292969 167.751299 
L 627.837891 167.828203 
L 628.927734 167.59749 
L 630.017578 166.320879 
L 631.107422 164.849443 
L 633.287109 161.62459 
L 634.376953 160.619707 
L 636.011719 160.02498 
L 638.191406 160.553057 
L 640.371094 160.640215 
L 642.005859 160.486406 
L 642.550781 160.794023 
L 643.095703 160.901689 
L 643.640625 161.378496 
L 644.185547 161.496416 
L 645.820312 162.855059 
L 646.910156 164.305986 
L 647.455078 164.731523 
L 647.455078 164.731523 
" style="fill:none;stroke:#4c72b0;stroke-linecap:round;stroke-width:1.75;"/>
   </g>
   <g id="patch_3">
    <path d="M 90 270.72 
L 90 69.12 
" style="fill:none;stroke:#262626;stroke-linecap:square;stroke-linejoin:miter;stroke-width:1.25;"/>
   </g>
   <g id="patch_4">
    <path d="M 90 270.72 
L 648 270.72 
" style="fill:none;stroke:#262626;stroke-linecap:square;stroke-linejoin:miter;stroke-width:1.25;"/>
   </g>
  </g>
  <g id="axes_2">
   <g id="patch_5">
    <path d="M 90 512.64 
L 648 512.64 
L 648 311.04 
L 90 311.04 
z
" style="fill:#ffffff;"/>
   </g>
   <g id="matplotlib.axis_3">
    <g id="xtick_7">
     <g id="line2d_15">
      <g>
       <use style="fill:#262626;stroke:#262626;" x="218.197478" xlink:href="#md86da8134d" y="512.64"/>
      </g>
     </g>
     <g id="text_14">
      <!-- $\mathdefault{10^{2}}$ -->
      <g style="fill:#262626;" transform="translate(210.347478 535.9525)scale(0.1 -0.1)">
       <use transform="translate(0 0.99375)" xlink:href="#ArialMT-31"/>
       <use transform="translate(55.615234 0.99375)" xlink:href="#ArialMT-30"/>
       <use transform="translate(112.972813 70.6875)scale(0.7)" xlink:href="#ArialMT-32"/>
      </g>
     </g>
    </g>
    <g id="xtick_8">
     <g id="line2d_16">
      <g>
       <use style="fill:#262626;stroke:#262626;" x="401.606604" xlink:href="#md86da8134d" y="512.64"/>
      </g>
     </g>
     <g id="text_15">
      <!-- $\mathdefault{10^{3}}$ -->
      <defs>
       <path d="M 4.203125 18.890625 
L 12.984375 20.0625 
Q 14.5 12.59375 18.140625 9.296875 
Q 21.78125 6 27 6 
Q 33.203125 6 37.46875 10.296875 
Q 41.75 14.59375 41.75 20.953125 
Q 41.75 27 37.796875 30.921875 
Q 33.84375 34.859375 27.734375 34.859375 
Q 25.25 34.859375 21.53125 33.890625 
L 22.515625 41.609375 
Q 23.390625 41.5 23.921875 41.5 
Q 29.546875 41.5 34.03125 44.421875 
Q 38.53125 47.359375 38.53125 53.46875 
Q 38.53125 58.296875 35.25 61.46875 
Q 31.984375 64.65625 26.8125 64.65625 
Q 21.6875 64.65625 18.265625 61.421875 
Q 14.84375 58.203125 13.875 51.765625 
L 5.078125 53.328125 
Q 6.6875 62.15625 12.390625 67.015625 
Q 18.109375 71.875 26.609375 71.875 
Q 32.46875 71.875 37.390625 69.359375 
Q 42.328125 66.84375 44.9375 62.5 
Q 47.5625 58.15625 47.5625 53.265625 
Q 47.5625 48.640625 45.0625 44.828125 
Q 42.578125 41.015625 37.703125 38.765625 
Q 44.046875 37.3125 47.5625 32.6875 
Q 51.078125 28.078125 51.078125 21.140625 
Q 51.078125 11.765625 44.234375 5.25 
Q 37.40625 -1.265625 26.953125 -1.265625 
Q 17.53125 -1.265625 11.296875 4.34375 
Q 5.078125 9.96875 4.203125 18.890625 
z
" id="ArialMT-33"/>
      </defs>
      <g style="fill:#262626;" transform="translate(393.756604 535.9525)scale(0.1 -0.1)">
       <use transform="translate(0 0.99375)" xlink:href="#ArialMT-31"/>
       <use transform="translate(55.615234 0.99375)" xlink:href="#ArialMT-30"/>
       <use transform="translate(112.972813 70.6875)scale(0.7)" xlink:href="#ArialMT-33"/>
      </g>
     </g>
    </g>
    <g id="xtick_9">
     <g id="line2d_17">
      <g>
       <use style="fill:#262626;stroke:#262626;" x="585.01573" xlink:href="#md86da8134d" y="512.64"/>
      </g>
     </g>
     <g id="text_16">
      <!-- $\mathdefault{10^{4}}$ -->
      <g style="fill:#262626;" transform="translate(577.16573 535.8525)scale(0.1 -0.1)">
       <use transform="translate(0 0.201563)" xlink:href="#ArialMT-31"/>
       <use transform="translate(55.615234 0.201563)" xlink:href="#ArialMT-30"/>
       <use transform="translate(112.972813 69.895313)scale(0.7)" xlink:href="#ArialMT-34"/>
      </g>
     </g>
    </g>
    <g id="xtick_10">
     <g id="line2d_18">
      <defs>
       <path d="M 0 0 
L 0 3 
" id="mb4d6d55bb8" style="stroke:#262626;stroke-width:0.5;"/>
      </defs>
      <g>
       <use style="fill:#262626;stroke:#262626;stroke-width:0.5;" x="90" xlink:href="#mb4d6d55bb8" y="512.64"/>
      </g>
     </g>
    </g>
    <g id="xtick_11">
     <g id="line2d_19">
      <g>
       <use style="fill:#262626;stroke:#262626;stroke-width:0.5;" x="122.296744" xlink:href="#mb4d6d55bb8" y="512.64"/>
      </g>
     </g>
    </g>
    <g id="xtick_12">
     <g id="line2d_20">
      <g>
       <use style="fill:#262626;stroke:#262626;stroke-width:0.5;" x="145.211648" xlink:href="#mb4d6d55bb8" y="512.64"/>
      </g>
     </g>
    </g>
    <g id="xtick_13">
     <g id="line2d_21">
      <g>
       <use style="fill:#262626;stroke:#262626;stroke-width:0.5;" x="162.985829" xlink:href="#mb4d6d55bb8" y="512.64"/>
      </g>
     </g>
    </g>
    <g id="xtick_14">
     <g id="line2d_22">
      <g>
       <use style="fill:#262626;stroke:#262626;stroke-width:0.5;" x="177.508392" xlink:href="#mb4d6d55bb8" y="512.64"/>
      </g>
     </g>
    </g>
    <g id="xtick_15">
     <g id="line2d_23">
      <g>
       <use style="fill:#262626;stroke:#262626;stroke-width:0.5;" x="189.787045" xlink:href="#mb4d6d55bb8" y="512.64"/>
      </g>
     </g>
    </g>
    <g id="xtick_16">
     <g id="line2d_24">
      <g>
       <use style="fill:#262626;stroke:#262626;stroke-width:0.5;" x="200.423297" xlink:href="#mb4d6d55bb8" y="512.64"/>
      </g>
     </g>
    </g>
    <g id="xtick_17">
     <g id="line2d_25">
      <g>
       <use style="fill:#262626;stroke:#262626;stroke-width:0.5;" x="209.805136" xlink:href="#mb4d6d55bb8" y="512.64"/>
      </g>
     </g>
    </g>
    <g id="xtick_18">
     <g id="line2d_26">
      <g>
       <use style="fill:#262626;stroke:#262626;stroke-width:0.5;" x="273.409126" xlink:href="#mb4d6d55bb8" y="512.64"/>
      </g>
     </g>
    </g>
    <g id="xtick_19">
     <g id="line2d_27">
      <g>
       <use style="fill:#262626;stroke:#262626;stroke-width:0.5;" x="305.70587" xlink:href="#mb4d6d55bb8" y="512.64"/>
      </g>
     </g>
    </g>
    <g id="xtick_20">
     <g id="line2d_28">
      <g>
       <use style="fill:#262626;stroke:#262626;stroke-width:0.5;" x="328.620775" xlink:href="#mb4d6d55bb8" y="512.64"/>
      </g>
     </g>
    </g>
    <g id="xtick_21">
     <g id="line2d_29">
      <g>
       <use style="fill:#262626;stroke:#262626;stroke-width:0.5;" x="346.394955" xlink:href="#mb4d6d55bb8" y="512.64"/>
      </g>
     </g>
    </g>
    <g id="xtick_22">
     <g id="line2d_30">
      <g>
       <use style="fill:#262626;stroke:#262626;stroke-width:0.5;" x="360.917518" xlink:href="#mb4d6d55bb8" y="512.64"/>
      </g>
     </g>
    </g>
    <g id="xtick_23">
     <g id="line2d_31">
      <g>
       <use style="fill:#262626;stroke:#262626;stroke-width:0.5;" x="373.196171" xlink:href="#mb4d6d55bb8" y="512.64"/>
      </g>
     </g>
    </g>
    <g id="xtick_24">
     <g id="line2d_32">
      <g>
       <use style="fill:#262626;stroke:#262626;stroke-width:0.5;" x="383.832423" xlink:href="#mb4d6d55bb8" y="512.64"/>
      </g>
     </g>
    </g>
    <g id="xtick_25">
     <g id="line2d_33">
      <g>
       <use style="fill:#262626;stroke:#262626;stroke-width:0.5;" x="393.214262" xlink:href="#mb4d6d55bb8" y="512.64"/>
      </g>
     </g>
    </g>
    <g id="xtick_26">
     <g id="line2d_34">
      <g>
       <use style="fill:#262626;stroke:#262626;stroke-width:0.5;" x="456.818252" xlink:href="#mb4d6d55bb8" y="512.64"/>
      </g>
     </g>
    </g>
    <g id="xtick_27">
     <g id="line2d_35">
      <g>
       <use style="fill:#262626;stroke:#262626;stroke-width:0.5;" x="489.114996" xlink:href="#mb4d6d55bb8" y="512.64"/>
      </g>
     </g>
    </g>
    <g id="xtick_28">
     <g id="line2d_36">
      <g>
       <use style="fill:#262626;stroke:#262626;stroke-width:0.5;" x="512.029901" xlink:href="#mb4d6d55bb8" y="512.64"/>
      </g>
     </g>
    </g>
    <g id="xtick_29">
     <g id="line2d_37">
      <g>
       <use style="fill:#262626;stroke:#262626;stroke-width:0.5;" x="529.804081" xlink:href="#mb4d6d55bb8" y="512.64"/>
      </g>
     </g>
    </g>
    <g id="xtick_30">
     <g id="line2d_38">
      <g>
       <use style="fill:#262626;stroke:#262626;stroke-width:0.5;" x="544.326645" xlink:href="#mb4d6d55bb8" y="512.64"/>
      </g>
     </g>
    </g>
    <g id="xtick_31">
     <g id="line2d_39">
      <g>
       <use style="fill:#262626;stroke:#262626;stroke-width:0.5;" x="556.605297" xlink:href="#mb4d6d55bb8" y="512.64"/>
      </g>
     </g>
    </g>
    <g id="xtick_32">
     <g id="line2d_40">
      <g>
       <use style="fill:#262626;stroke:#262626;stroke-width:0.5;" x="567.241549" xlink:href="#mb4d6d55bb8" y="512.64"/>
      </g>
     </g>
    </g>
    <g id="xtick_33">
     <g id="line2d_41">
      <g>
       <use style="fill:#262626;stroke:#262626;stroke-width:0.5;" x="576.623389" xlink:href="#mb4d6d55bb8" y="512.64"/>
      </g>
     </g>
    </g>
    <g id="xtick_34">
     <g id="line2d_42">
      <g>
       <use style="fill:#262626;stroke:#262626;stroke-width:0.5;" x="640.227378" xlink:href="#mb4d6d55bb8" y="512.64"/>
      </g>
     </g>
    </g>
   </g>
   <g id="matplotlib.axis_4">
    <g id="ytick_8">
     <g id="line2d_43">
      <g>
       <use style="fill:#262626;stroke:#262626;" x="90" xlink:href="#m1762351710" y="512.64"/>
      </g>
     </g>
     <g id="text_17">
      <!-- $\mathdefault{10^{-5}}$ -->
      <defs>
       <path d="M 4.15625 18.75 
L 13.375 19.53125 
Q 14.40625 12.796875 18.140625 9.390625 
Q 21.875 6 27.15625 6 
Q 33.5 6 37.890625 10.78125 
Q 42.28125 15.578125 42.28125 23.484375 
Q 42.28125 31 38.0625 35.34375 
Q 33.84375 39.703125 27 39.703125 
Q 22.75 39.703125 19.328125 37.765625 
Q 15.921875 35.84375 13.96875 32.765625 
L 5.71875 33.84375 
L 12.640625 70.609375 
L 48.25 70.609375 
L 48.25 62.203125 
L 19.671875 62.203125 
L 15.828125 42.96875 
Q 22.265625 47.46875 29.34375 47.46875 
Q 38.71875 47.46875 45.15625 40.96875 
Q 51.609375 34.46875 51.609375 24.265625 
Q 51.609375 14.546875 45.953125 7.46875 
Q 39.0625 -1.21875 27.15625 -1.21875 
Q 17.390625 -1.21875 11.203125 4.25 
Q 5.03125 9.71875 4.15625 18.75 
z
" id="ArialMT-35"/>
      </defs>
      <g style="fill:#262626;" transform="translate(57.2 517.74625)scale(0.1 -0.1)">
       <use transform="translate(0 0.879688)" xlink:href="#ArialMT-31"/>
       <use transform="translate(55.615234 0.879688)" xlink:href="#ArialMT-30"/>
       <use transform="translate(112.972813 70.573438)scale(0.7)" xlink:href="#ArialMT-2212"/>
       <use transform="translate(153.851719 70.573438)scale(0.7)" xlink:href="#ArialMT-35"/>
      </g>
     </g>
    </g>
    <g id="ytick_9">
     <g id="line2d_44">
      <g>
       <use style="fill:#262626;stroke:#262626;" x="90" xlink:href="#m1762351710" y="465.767507"/>
      </g>
     </g>
     <g id="text_18">
      <!-- $\mathdefault{10^{-4}}$ -->
      <g style="fill:#262626;" transform="translate(57.2 470.873757)scale(0.1 -0.1)">
       <use transform="translate(0 0.201563)" xlink:href="#ArialMT-31"/>
       <use transform="translate(55.615234 0.201563)" xlink:href="#ArialMT-30"/>
       <use transform="translate(112.972813 69.895313)scale(0.7)" xlink:href="#ArialMT-2212"/>
       <use transform="translate(153.851719 69.895313)scale(0.7)" xlink:href="#ArialMT-34"/>
      </g>
     </g>
    </g>
    <g id="ytick_10">
     <g id="line2d_45">
      <g>
       <use style="fill:#262626;stroke:#262626;" x="90" xlink:href="#m1762351710" y="418.895013"/>
      </g>
     </g>
     <g id="text_19">
      <!-- $\mathdefault{10^{-3}}$ -->
      <g style="fill:#262626;" transform="translate(57.2 424.051263)scale(0.1 -0.1)">
       <use transform="translate(0 0.99375)" xlink:href="#ArialMT-31"/>
       <use transform="translate(55.615234 0.99375)" xlink:href="#ArialMT-30"/>
       <use transform="translate(112.972813 70.6875)scale(0.7)" xlink:href="#ArialMT-2212"/>
       <use transform="translate(153.851719 70.6875)scale(0.7)" xlink:href="#ArialMT-33"/>
      </g>
     </g>
    </g>
    <g id="ytick_11">
     <g id="line2d_46">
      <g>
       <use style="fill:#262626;stroke:#262626;" x="90" xlink:href="#m1762351710" y="372.02252"/>
      </g>
     </g>
     <g id="text_20">
      <!-- $\mathdefault{10^{-2}}$ -->
      <g style="fill:#262626;" transform="translate(57.2 377.17877)scale(0.1 -0.1)">
       <use transform="translate(0 0.99375)" xlink:href="#ArialMT-31"/>
       <use transform="translate(55.615234 0.99375)" xlink:href="#ArialMT-30"/>
       <use transform="translate(112.972813 70.6875)scale(0.7)" xlink:href="#ArialMT-2212"/>
       <use transform="translate(153.851719 70.6875)scale(0.7)" xlink:href="#ArialMT-32"/>
      </g>
     </g>
    </g>
    <g id="ytick_12">
     <g id="line2d_47">
      <g>
       <use style="fill:#262626;stroke:#262626;" x="90" xlink:href="#m1762351710" y="325.150026"/>
      </g>
     </g>
     <g id="text_21">
      <!-- $\mathdefault{10^{-1}}$ -->
      <g style="fill:#262626;" transform="translate(57.2 330.306276)scale(0.1 -0.1)">
       <use transform="translate(0 0.99375)" xlink:href="#ArialMT-31"/>
       <use transform="translate(55.615234 0.99375)" xlink:href="#ArialMT-30"/>
       <use transform="translate(112.972813 70.6875)scale(0.7)" xlink:href="#ArialMT-2212"/>
       <use transform="translate(153.851719 70.6875)scale(0.7)" xlink:href="#ArialMT-31"/>
      </g>
     </g>
    </g>
    <g id="ytick_13">
     <g id="line2d_48">
      <defs>
       <path d="M 0 0 
L -3 0 
" id="mba3aed2f3c" style="stroke:#262626;stroke-width:0.5;"/>
      </defs>
      <g>
       <use style="fill:#262626;stroke:#262626;stroke-width:0.5;" x="90" xlink:href="#mba3aed2f3c" y="498.529974"/>
      </g>
     </g>
    </g>
    <g id="ytick_14">
     <g id="line2d_49">
      <g>
       <use style="fill:#262626;stroke:#262626;stroke-width:0.5;" x="90" xlink:href="#mba3aed2f3c" y="490.276137"/>
      </g>
     </g>
    </g>
    <g id="ytick_15">
     <g id="line2d_50">
      <g>
       <use style="fill:#262626;stroke:#262626;stroke-width:0.5;" x="90" xlink:href="#mba3aed2f3c" y="484.419947"/>
      </g>
     </g>
    </g>
    <g id="ytick_16">
     <g id="line2d_51">
      <g>
       <use style="fill:#262626;stroke:#262626;stroke-width:0.5;" x="90" xlink:href="#mba3aed2f3c" y="479.877533"/>
      </g>
     </g>
    </g>
    <g id="ytick_17">
     <g id="line2d_52">
      <g>
       <use style="fill:#262626;stroke:#262626;stroke-width:0.5;" x="90" xlink:href="#mba3aed2f3c" y="476.166111"/>
      </g>
     </g>
    </g>
    <g id="ytick_18">
     <g id="line2d_53">
      <g>
       <use style="fill:#262626;stroke:#262626;stroke-width:0.5;" x="90" xlink:href="#mba3aed2f3c" y="473.028148"/>
      </g>
     </g>
    </g>
    <g id="ytick_19">
     <g id="line2d_54">
      <g>
       <use style="fill:#262626;stroke:#262626;stroke-width:0.5;" x="90" xlink:href="#mba3aed2f3c" y="470.309921"/>
      </g>
     </g>
    </g>
    <g id="ytick_20">
     <g id="line2d_55">
      <g>
       <use style="fill:#262626;stroke:#262626;stroke-width:0.5;" x="90" xlink:href="#mba3aed2f3c" y="467.912274"/>
      </g>
     </g>
    </g>
    <g id="ytick_21">
     <g id="line2d_56">
      <g>
       <use style="fill:#262626;stroke:#262626;stroke-width:0.5;" x="90" xlink:href="#mba3aed2f3c" y="451.65748"/>
      </g>
     </g>
    </g>
    <g id="ytick_22">
     <g id="line2d_57">
      <g>
       <use style="fill:#262626;stroke:#262626;stroke-width:0.5;" x="90" xlink:href="#mba3aed2f3c" y="443.403644"/>
      </g>
     </g>
    </g>
    <g id="ytick_23">
     <g id="line2d_58">
      <g>
       <use style="fill:#262626;stroke:#262626;stroke-width:0.5;" x="90" xlink:href="#mba3aed2f3c" y="437.547454"/>
      </g>
     </g>
    </g>
    <g id="ytick_24">
     <g id="line2d_59">
      <g>
       <use style="fill:#262626;stroke:#262626;stroke-width:0.5;" x="90" xlink:href="#mba3aed2f3c" y="433.00504"/>
      </g>
     </g>
    </g>
    <g id="ytick_25">
     <g id="line2d_60">
      <g>
       <use style="fill:#262626;stroke:#262626;stroke-width:0.5;" x="90" xlink:href="#mba3aed2f3c" y="429.293617"/>
      </g>
     </g>
    </g>
    <g id="ytick_26">
     <g id="line2d_61">
      <g>
       <use style="fill:#262626;stroke:#262626;stroke-width:0.5;" x="90" xlink:href="#mba3aed2f3c" y="426.155654"/>
      </g>
     </g>
    </g>
    <g id="ytick_27">
     <g id="line2d_62">
      <g>
       <use style="fill:#262626;stroke:#262626;stroke-width:0.5;" x="90" xlink:href="#mba3aed2f3c" y="423.437427"/>
      </g>
     </g>
    </g>
    <g id="ytick_28">
     <g id="line2d_63">
      <g>
       <use style="fill:#262626;stroke:#262626;stroke-width:0.5;" x="90" xlink:href="#mba3aed2f3c" y="421.039781"/>
      </g>
     </g>
    </g>
    <g id="ytick_29">
     <g id="line2d_64">
      <g>
       <use style="fill:#262626;stroke:#262626;stroke-width:0.5;" x="90" xlink:href="#mba3aed2f3c" y="404.784987"/>
      </g>
     </g>
    </g>
    <g id="ytick_30">
     <g id="line2d_65">
      <g>
       <use style="fill:#262626;stroke:#262626;stroke-width:0.5;" x="90" xlink:href="#mba3aed2f3c" y="396.53115"/>
      </g>
     </g>
    </g>
    <g id="ytick_31">
     <g id="line2d_66">
      <g>
       <use style="fill:#262626;stroke:#262626;stroke-width:0.5;" x="90" xlink:href="#mba3aed2f3c" y="390.67496"/>
      </g>
     </g>
    </g>
    <g id="ytick_32">
     <g id="line2d_67">
      <g>
       <use style="fill:#262626;stroke:#262626;stroke-width:0.5;" x="90" xlink:href="#mba3aed2f3c" y="386.132546"/>
      </g>
     </g>
    </g>
    <g id="ytick_33">
     <g id="line2d_68">
      <g>
       <use style="fill:#262626;stroke:#262626;stroke-width:0.5;" x="90" xlink:href="#mba3aed2f3c" y="382.421124"/>
      </g>
     </g>
    </g>
    <g id="ytick_34">
     <g id="line2d_69">
      <g>
       <use style="fill:#262626;stroke:#262626;stroke-width:0.5;" x="90" xlink:href="#mba3aed2f3c" y="379.283161"/>
      </g>
     </g>
    </g>
    <g id="ytick_35">
     <g id="line2d_70">
      <g>
       <use style="fill:#262626;stroke:#262626;stroke-width:0.5;" x="90" xlink:href="#mba3aed2f3c" y="376.564934"/>
      </g>
     </g>
    </g>
    <g id="ytick_36">
     <g id="line2d_71">
      <g>
       <use style="fill:#262626;stroke:#262626;stroke-width:0.5;" x="90" xlink:href="#mba3aed2f3c" y="374.167288"/>
      </g>
     </g>
    </g>
    <g id="ytick_37">
     <g id="line2d_72">
      <g>
       <use style="fill:#262626;stroke:#262626;stroke-width:0.5;" x="90" xlink:href="#mba3aed2f3c" y="357.912493"/>
      </g>
     </g>
    </g>
    <g id="ytick_38">
     <g id="line2d_73">
      <g>
       <use style="fill:#262626;stroke:#262626;stroke-width:0.5;" x="90" xlink:href="#mba3aed2f3c" y="349.658657"/>
      </g>
     </g>
    </g>
    <g id="ytick_39">
     <g id="line2d_74">
      <g>
       <use style="fill:#262626;stroke:#262626;stroke-width:0.5;" x="90" xlink:href="#mba3aed2f3c" y="343.802467"/>
      </g>
     </g>
    </g>
    <g id="ytick_40">
     <g id="line2d_75">
      <g>
       <use style="fill:#262626;stroke:#262626;stroke-width:0.5;" x="90" xlink:href="#mba3aed2f3c" y="339.260053"/>
      </g>
     </g>
    </g>
    <g id="ytick_41">
     <g id="line2d_76">
      <g>
       <use style="fill:#262626;stroke:#262626;stroke-width:0.5;" x="90" xlink:href="#mba3aed2f3c" y="335.548631"/>
      </g>
     </g>
    </g>
    <g id="ytick_42">
     <g id="line2d_77">
      <g>
       <use style="fill:#262626;stroke:#262626;stroke-width:0.5;" x="90" xlink:href="#mba3aed2f3c" y="332.410668"/>
      </g>
     </g>
    </g>
    <g id="ytick_43">
     <g id="line2d_78">
      <g>
       <use style="fill:#262626;stroke:#262626;stroke-width:0.5;" x="90" xlink:href="#mba3aed2f3c" y="329.69244"/>
      </g>
     </g>
    </g>
    <g id="ytick_44">
     <g id="line2d_79">
      <g>
       <use style="fill:#262626;stroke:#262626;stroke-width:0.5;" x="90" xlink:href="#mba3aed2f3c" y="327.294794"/>
      </g>
     </g>
    </g>
    <g id="ytick_45">
     <g id="line2d_80">
      <g>
       <use style="fill:#262626;stroke:#262626;stroke-width:0.5;" x="90" xlink:href="#mba3aed2f3c" y="311.04"/>
      </g>
     </g>
    </g>
   </g>
   <g id="line2d_81">
    <path clip-path="url(#p9fd4f74b54)" d="M -1 384.308722 
L 151.095164 384.309645 
L 206.306812 402.816594 
L 238.603556 423.450927 
L 261.518461 418.028565 
L 279.292642 424.600428 
L 293.815205 360.36392 
L 306.093857 419.352338 
L 316.730109 445.424032 
L 326.111949 436.855067 
L 334.50429 429.719778 
L 342.096086 421.06804 
L 349.026853 378.465781 
L 355.402541 426.400242 
L 361.305505 443.531825 
L 366.801034 451.217244 
L 371.941758 448.881745 
L 376.770725 422.652995 
L 381.323597 373.99418 
L 385.630245 402.908256 
L 389.715939 408.848253 
L 393.602249 407.378497 
L 397.307735 402.067235 
L 400.848476 390.196543 
L 404.238502 354.306783 
L 407.490119 379.422238 
L 410.614189 393.958934 
L 413.620341 400.704833 
L 416.517154 403.719685 
L 419.312303 400.663447 
L 422.012683 382.336413 
L 424.624509 409.002633 
L 427.153406 449.272289 
L 429.604479 445.506653 
L 431.982374 436.892343 
L 434.291335 429.27214 
L 436.535246 405.068756 
L 438.717672 410.019793 
L 440.841893 429.094011 
L 442.910933 430.394716 
L 444.927587 431.973123 
L 446.894442 428.031267 
L 448.813898 408.139851 
L 450.688186 400.587308 
L 452.519383 430.234773 
L 454.309426 448.369037 
L 456.060125 454.168987 
L 457.773171 456.291808 
L 459.45015 452.611695 
L 461.09255 420.137475 
L 462.701768 462.233159 
L 464.279118 468.313581 
L 465.825838 498.095971 
L 467.343094 474.778254 
L 468.83199 495.185641 
L 470.293564 427.016593 
L 471.728802 456.227793 
L 473.138637 468.35921 
L 474.523951 463.354152 
L 475.885584 462.127462 
L 477.224331 451.036993 
L 478.540949 434.348512 
L 479.836157 433.889104 
L 481.110642 463.511207 
L 482.365055 457.435189 
L 483.600019 477.007662 
L 484.816127 487.77306 
L 486.013948 467.771268 
L 487.194022 423.303453 
L 488.356869 459.575485 
L 489.502983 467.750282 
L 490.63284 472.641555 
L 491.746894 468.229594 
L 492.845581 475.047301 
L 493.92932 449.93429 
L 494.998512 452.432371 
L 496.053541 470.588788 
L 497.094779 492.264754 
L 498.122582 488.003766 
L 499.137291 504.899525 
L 500.139235 468.229135 
L 501.128734 450.965488 
L 502.10609 483.63073 
L 503.0716 482.306407 
L 504.025546 496.512058 
L 504.968203 487.326455 
L 505.899834 499.580115 
L 506.820695 472.937681 
L 507.731032 487.570177 
L 508.631082 484.670021 
L 509.521075 477.827956 
L 510.401234 480.907185 
L 511.271773 482.37179 
L 512.132901 471.812781 
L 512.984819 451.816493 
L 513.827722 451.954003 
L 514.661799 484.502251 
L 515.487232 484.685598 
L 516.304198 492.216468 
L 517.112871 484.709923 
L 517.913416 502.680943 
L 518.705996 476.312422 
L 519.490766 507.537499 
L 520.26788 502.001987 
L 521.037486 501.185476 
L 521.799727 492.470346 
L 522.554743 494.257294 
L 523.302669 524.504097 
L 524.043638 501.276705 
L 524.777778 493.899491 
L 525.505212 477.947755 
L 526.226064 498.965461 
L 526.940451 498.365486 
L 527.648487 492.859881 
L 528.350285 492.389707 
L 529.045954 483.716636 
L 529.7356 493.378809 
L 530.419326 482.158062 
L 531.097232 485.6067 
L 531.769418 486.671637 
L 532.435979 491.933734 
L 533.097009 500.095821 
L 533.752597 500.860759 
L 534.402834 493.037574 
L 535.687597 481.864291 
L 536.32229 502.233348 
L 536.951966 485.061151 
L 537.576703 493.631226 
L 538.196578 490.500796 
L 538.811667 493.775679 
L 539.422042 502.903309 
L 540.027776 490.704495 
L 540.628938 490.148107 
L 541.817819 480.902706 
L 542.405671 493.698843 
L 542.989216 499.141305 
L 543.568517 480.80448 
L 544.143636 492.092386 
L 544.714632 491.519737 
L 545.281563 496.718496 
L 545.844488 497.729793 
L 546.403463 486.788714 
L 546.958543 492.836164 
L 547.509781 495.149515 
L 548.05723 498.332209 
L 548.600942 500.661887 
L 549.140969 487.581302 
L 549.677358 490.74623 
L 550.21016 498.51161 
L 550.739422 489.308112 
L 551.26519 486.993309 
L 551.78751 493.275587 
L 552.306428 482.756423 
L 552.821987 496.912069 
L 553.33423 489.363957 
L 553.8432 488.980574 
L 554.348939 491.686421 
L 554.851487 499.758382 
L 555.350884 498.242101 
L 555.847169 491.895862 
L 556.340382 491.477456 
L 556.830559 498.916113 
L 557.317739 488.315044 
L 557.801956 507.857513 
L 558.283248 510.112664 
L 558.76165 499.978495 
L 559.237195 497.734582 
L 559.709918 492.792886 
L 560.179852 511.737132 
L 560.647029 488.466907 
L 561.573244 506.447198 
L 562.032344 481.824947 
L 562.488812 496.985176 
L 562.94268 499.433221 
L 563.393976 479.436829 
L 563.84273 501.26973 
L 564.28897 492.46691 
L 564.732723 509.336642 
L 565.174019 496.871715 
L 566.049341 491.280578 
L 566.483422 522.312393 
L 566.91515 510.223736 
L 567.34455 492.096637 
L 567.771648 480.482449 
L 568.196468 492.859268 
L 568.619034 485.984552 
L 569.039371 497.86119 
L 569.457501 489.872652 
L 569.873447 498.896514 
L 570.287233 514.426276 
L 570.69888 493.776911 
L 571.108411 513.914994 
L 571.515847 510.231415 
L 571.921209 504.852924 
L 572.32452 491.955742 
L 572.725798 502.912234 
L 573.125065 535.698598 
L 573.52234 533.275869 
L 573.917644 499.00411 
L 574.702415 516.007809 
L 575.091919 485.530491 
L 575.479529 501.655633 
L 575.865261 490.671379 
L 576.249135 503.746383 
L 576.631167 495.020656 
L 577.011376 540.280136 
L 577.389778 491.979305 
L 577.766391 495.413062 
L 578.141232 509.606633 
L 578.514318 505.911611 
L 578.885664 499.056153 
L 579.255287 511.758233 
L 579.623202 504.710754 
L 579.989426 493.862242 
L 580.353974 511.282642 
L 580.716861 513.697027 
L 581.078102 509.653074 
L 581.437713 493.94288 
L 581.795707 504.462315 
L 582.152099 499.617316 
L 582.506904 544.0577 
L 582.860136 497.924245 
L 583.211808 491.200446 
L 583.561934 499.78747 
L 584.257603 487.891669 
L 584.603172 502.079607 
L 584.947248 506.255893 
L 585.289845 498.126907 
L 585.970649 511.492319 
L 586.308881 498.168828 
L 586.645683 498.356136 
L 586.981067 493.746323 
L 587.315045 501.289864 
L 587.647628 490.063656 
L 587.978828 510.431433 
L 588.308657 490.343264 
L 588.637126 489.755458 
L 588.964246 500.317295 
L 589.290028 521.195572 
L 589.937621 491.133044 
L 590.259454 500.266623 
L 590.579992 488.037857 
L 590.899246 502.99342 
L 591.533939 486.454376 
L 592.163614 527.963563 
L 592.476596 496.995394 
L 592.788352 502.447388 
L 593.098892 512.841336 
L 593.408227 487.717047 
L 593.716365 493.093631 
L 594.023315 512.234605 
L 594.633691 487.742604 
L 594.937133 494.825479 
L 595.239424 494.525558 
L 595.540572 494.653971 
L 595.840586 534.295275 
L 596.139474 488.958164 
L 596.437245 492.678037 
L 596.733906 500.988473 
L 597.029467 493.70499 
L 597.323936 508.54605 
L 597.617319 496.266966 
L 597.909626 505.06828 
L 598.200864 491.554977 
L 598.780166 502.668969 
L 599.068244 508.36579 
L 599.355284 491.140019 
L 599.641294 508.333501 
L 600.21025 491.673319 
L 600.493212 506.130116 
L 600.775172 501.616265 
L 601.056137 489.544606 
L 601.336115 490.778892 
L 601.615112 502.672413 
L 601.893135 488.450812 
L 602.170191 516.960453 
L 602.446287 499.824325 
L 602.721429 492.875009 
L 602.995624 511.629413 
L 603.268878 505.332573 
L 603.541199 515.181573 
L 603.812591 497.483941 
L 604.083062 523.275925 
L 604.352617 499.272741 
L 604.621264 513.539585 
L 604.889007 493.705111 
L 605.155853 494.869081 
L 605.421809 492.020312 
L 605.686879 503.997324 
L 605.95107 500.557971 
L 606.214388 495.175719 
L 606.476838 496.755728 
L 606.738427 487.740654 
L 606.999159 491.228707 
L 607.25904 521.751872 
L 607.518076 502.40227 
L 607.776273 531.72869 
L 608.033635 485.141626 
L 608.290169 496.573199 
L 608.545879 498.313179 
L 608.80077 514.177349 
L 609.054849 499.45547 
L 609.308119 525.403398 
L 609.560587 508.872434 
L 609.812258 503.173699 
L 610.063135 500.124958 
L 610.562532 517.653373 
L 611.058818 490.139722 
L 611.305806 510.258915 
L 611.55203 493.102612 
L 611.797496 489.990968 
L 612.28617 499.797525 
L 612.529387 487.196119 
L 612.771864 500.153307 
L 613.013605 494.585331 
L 613.254614 496.196454 
L 613.494897 509.062495 
L 613.734457 505.131022 
L 613.973298 510.26555 
L 614.211426 510.594494 
L 614.448843 494.56432 
L 614.921566 493.265565 
L 615.15688 493.601373 
L 615.3915 489.895342 
L 615.625431 511.36789 
L 615.858678 509.736076 
L 616.091243 542.273946 
L 616.323131 494.751247 
L 616.554347 513.623593 
L 616.784892 487.41776 
L 617.014773 513.679675 
L 617.243992 497.887909 
L 617.472553 518.829062 
L 617.700461 524.998884 
L 617.927718 522.535466 
L 618.380296 498.357318 
L 618.605625 507.419314 
L 618.830318 504.591282 
L 619.054379 486.60098 
L 619.277811 486.135327 
L 619.722804 514.43931 
L 619.944372 510.17957 
L 620.165325 490.678143 
L 620.605401 511.832459 
L 620.824531 491.42822 
L 621.043059 497.319616 
L 621.26099 498.618039 
L 621.478326 507.190412 
L 621.911227 487.951425 
L 622.126798 506.032439 
L 622.341787 499.624124 
L 622.556198 515.101773 
L 622.770034 495.865016 
L 622.983296 507.146331 
L 623.195989 494.183092 
L 623.408116 503.613528 
L 623.61968 493.366842 
L 623.830683 499.892896 
L 624.041128 493.234462 
L 624.251019 522.073948 
L 624.460358 489.898321 
L 624.877394 520.088636 
L 625.085096 483.080488 
L 625.292257 494.332694 
L 625.498881 499.325731 
L 625.704971 515.000985 
L 625.910528 497.004897 
L 626.115557 498.428525 
L 626.320059 497.170113 
L 626.524038 506.203263 
L 626.727495 498.146104 
L 626.930435 500.842377 
L 627.132858 534.038558 
L 627.536168 498.428239 
L 627.73706 553.522832 
L 627.937446 508.49426 
L 628.13733 498.319064 
L 628.336713 500.583855 
L 628.535599 528.006012 
L 628.733989 494.814285 
L 628.931886 526.713375 
L 629.129293 493.986446 
L 629.326211 509.98779 
L 629.522644 487.43199 
L 629.718594 512.657918 
L 629.914063 488.655156 
L 630.109054 486.882153 
L 630.303568 492.564642 
L 630.497608 506.36736 
L 630.691177 498.402044 
L 630.884277 500.726231 
L 631.07691 501.207732 
L 631.269078 492.325556 
L 631.460783 512.51111 
L 631.652028 511.594884 
L 631.842815 502.642332 
L 632.223024 515.739425 
L 632.41245 506.15194 
L 632.601426 502.905511 
L 632.789956 496.239719 
L 632.97804 494.98667 
L 633.165681 520.045887 
L 633.352881 497.365802 
L 633.539642 489.96631 
L 633.911856 534.181179 
L 634.097312 503.355437 
L 634.282338 499.474653 
L 634.466935 486.709042 
L 634.651105 482.630809 
L 634.83485 514.605463 
L 635.018173 501.162086 
L 635.201074 499.121871 
L 635.383557 481.800199 
L 635.565622 531.05917 
L 635.747272 516.640061 
L 635.928509 488.913418 
L 636.109335 500.21307 
L 636.289751 519.732846 
L 636.469759 489.562315 
L 636.828559 535.055324 
L 637.007355 491.483334 
L 637.185751 503.338888 
L 637.363748 541.09251 
L 637.541348 487.40617 
L 637.718553 496.363493 
L 637.895364 486.664485 
L 638.071784 483.975965 
L 638.247814 542.362956 
L 638.423456 496.732839 
L 638.598712 494.518335 
L 638.773582 497.70468 
L 639.122176 480.058883 
L 639.295903 518.427834 
L 639.469251 502.604922 
L 639.81482 495.163958 
L 639.987044 508.055388 
L 640.330379 498.713201 
L 640.501493 508.36836 
L 640.67224 508.198148 
L 640.842622 498.727643 
L 641.012641 513.129311 
L 641.182297 512.463643 
L 641.351593 486.677259 
L 641.689108 520.192357 
L 641.857331 489.959276 
L 642.0252 491.890272 
L 642.192715 491.04556 
L 642.359879 545.214758 
L 642.526693 496.328348 
L 642.693158 496.761706 
L 642.859276 506.302328 
L 643.025049 495.737268 
L 643.355562 514.900021 
L 643.520306 490.757421 
L 643.684709 494.456288 
L 643.848774 487.516609 
L 644.012502 506.939161 
L 644.175894 510.719118 
L 644.338952 487.343645 
L 644.501676 504.050182 
L 644.664069 491.922754 
L 644.826131 491.800512 
L 644.987864 496.590909 
L 645.14927 512.070633 
L 645.310349 503.687618 
L 645.471103 502.393824 
L 645.631533 503.046124 
L 645.791641 500.872053 
L 645.951427 511.836655 
L 646.270042 496.53782 
L 646.587387 505.095468 
L 646.745587 500.07236 
L 646.903473 505.951077 
L 647.061047 540.826097 
L 647.21831 494.395362 
L 647.375263 509.675636 
L 647.531907 509.018824 
L 647.688244 523.691017 
L 647.844274 510.10852 
L 647.844274 510.10852 
" style="fill:none;stroke:#b22222;stroke-linecap:round;stroke-width:1.75;"/>
   </g>
   <g id="patch_6">
    <path d="M 90 512.64 
L 90 311.04 
" style="fill:none;stroke:#262626;stroke-linecap:square;stroke-linejoin:miter;stroke-width:1.25;"/>
   </g>
   <g id="patch_7">
    <path d="M 90 512.64 
L 648 512.64 
" style="fill:none;stroke:#262626;stroke-linecap:square;stroke-linejoin:miter;stroke-width:1.25;"/>
   </g>
  </g>
 </g>
 <defs>
  <clipPath id="p67af4fcfd2">
   <rect height="201.6" width="558" x="90" y="69.12"/>
  </clipPath>
  <clipPath id="p9fd4f74b54">
   <rect height="201.6" width="558" x="90" y="311.04"/>
  </clipPath>
 </defs>
</svg>
