<?xml version="1.0" encoding="utf-8" standalone="no"?>
<!DOCTYPE svg PUBLIC "-//W3C//DTD SVG 1.1//EN"
  "http://www.w3.org/Graphics/SVG/1.1/DTD/svg11.dtd">
<!-- Created with matplotlib (http://matplotlib.org/) -->
<svg height="576pt" version="1.1" viewBox="0 0 720 576" width="720pt" xmlns="http://www.w3.org/2000/svg" xmlns:xlink="http://www.w3.org/1999/xlink">
 <defs>
  <style type="text/css">
*{stroke-linecap:butt;stroke-linejoin:round;}
  </style>
 </defs>
 <g id="figure_1">
  <g id="patch_1">
   <path d="M 0 576 
L 720 576 
L 720 0 
L 0 0 
z
" style="fill:#ffffff;"/>
  </g>
  <g id="axes_1">
   <g id="patch_2">
    <path d="M 90 270.72 
L 648 270.72 
L 648 69.12 
L 90 69.12 
z
" style="fill:#ffffff;"/>
   </g>
   <g id="matplotlib.axis_1">
    <g id="xtick_1">
     <g id="line2d_1">
      <defs>
       <path d="M 0 0 
L 0 6 
" id="me8903077b5" style="stroke:#262626;"/>
      </defs>
      <g>
       <use style="fill:#262626;stroke:#262626;" x="90" xlink:href="#me8903077b5" y="270.72"/>
      </g>
     </g>
     <g id="text_1">
      <!-- 0 -->
      <defs>
       <path d="M 4.15625 35.296875 
Q 4.15625 48 6.765625 55.734375 
Q 9.375 63.484375 14.515625 67.671875 
Q 19.671875 71.875 27.484375 71.875 
Q 33.25 71.875 37.59375 69.546875 
Q 41.9375 67.234375 44.765625 62.859375 
Q 47.609375 58.5 49.21875 52.21875 
Q 50.828125 45.953125 50.828125 35.296875 
Q 50.828125 22.703125 48.234375 14.96875 
Q 45.65625 7.234375 40.5 3 
Q 35.359375 -1.21875 27.484375 -1.21875 
Q 17.140625 -1.21875 11.234375 6.203125 
Q 4.15625 15.140625 4.15625 35.296875 
z
M 13.1875 35.296875 
Q 13.1875 17.671875 17.3125 11.828125 
Q 21.4375 6 27.484375 6 
Q 33.546875 6 37.671875 11.859375 
Q 41.796875 17.71875 41.796875 35.296875 
Q 41.796875 52.984375 37.671875 58.78125 
Q 33.546875 64.59375 27.390625 64.59375 
Q 21.34375 64.59375 17.71875 59.46875 
Q 13.1875 52.9375 13.1875 35.296875 
z
" id="ArialMT-30"/>
      </defs>
      <g style="fill:#262626;" transform="translate(87.219531 290.877812)scale(0.1 -0.1)">
       <use xlink:href="#ArialMT-30"/>
      </g>
     </g>
    </g>
    <g id="xtick_2">
     <g id="line2d_2">
      <g>
       <use style="fill:#262626;stroke:#262626;" x="198.984375" xlink:href="#me8903077b5" y="270.72"/>
      </g>
     </g>
     <g id="text_2">
      <!-- 200 -->
      <defs>
       <path d="M 50.34375 8.453125 
L 50.34375 0 
L 3.03125 0 
Q 2.9375 3.171875 4.046875 6.109375 
Q 5.859375 10.9375 9.828125 15.625 
Q 13.8125 20.3125 21.34375 26.46875 
Q 33.015625 36.03125 37.109375 41.625 
Q 41.21875 47.21875 41.21875 52.203125 
Q 41.21875 57.421875 37.46875 61 
Q 33.734375 64.59375 27.734375 64.59375 
Q 21.390625 64.59375 17.578125 60.78125 
Q 13.765625 56.984375 13.71875 50.25 
L 4.6875 51.171875 
Q 5.609375 61.28125 11.65625 66.578125 
Q 17.71875 71.875 27.9375 71.875 
Q 38.234375 71.875 44.234375 66.15625 
Q 50.25 60.453125 50.25 52 
Q 50.25 47.703125 48.484375 43.546875 
Q 46.734375 39.40625 42.65625 34.8125 
Q 38.578125 30.21875 29.109375 22.21875 
Q 21.1875 15.578125 18.9375 13.203125 
Q 16.703125 10.84375 15.234375 8.453125 
z
" id="ArialMT-32"/>
      </defs>
      <g style="fill:#262626;" transform="translate(190.642969 290.877812)scale(0.1 -0.1)">
       <use xlink:href="#ArialMT-32"/>
       <use x="55.615234" xlink:href="#ArialMT-30"/>
       <use x="111.230469" xlink:href="#ArialMT-30"/>
      </g>
     </g>
    </g>
    <g id="xtick_3">
     <g id="line2d_3">
      <g>
       <use style="fill:#262626;stroke:#262626;" x="307.96875" xlink:href="#me8903077b5" y="270.72"/>
      </g>
     </g>
     <g id="text_3">
      <!-- 400 -->
      <defs>
       <path d="M 32.328125 0 
L 32.328125 17.140625 
L 1.265625 17.140625 
L 1.265625 25.203125 
L 33.9375 71.578125 
L 41.109375 71.578125 
L 41.109375 25.203125 
L 50.78125 25.203125 
L 50.78125 17.140625 
L 41.109375 17.140625 
L 41.109375 0 
z
M 32.328125 25.203125 
L 32.328125 57.46875 
L 9.90625 25.203125 
z
" id="ArialMT-34"/>
      </defs>
      <g style="fill:#262626;" transform="translate(299.627344 290.877812)scale(0.1 -0.1)">
       <use xlink:href="#ArialMT-34"/>
       <use x="55.615234" xlink:href="#ArialMT-30"/>
       <use x="111.230469" xlink:href="#ArialMT-30"/>
      </g>
     </g>
    </g>
    <g id="xtick_4">
     <g id="line2d_4">
      <g>
       <use style="fill:#262626;stroke:#262626;" x="416.953125" xlink:href="#me8903077b5" y="270.72"/>
      </g>
     </g>
     <g id="text_4">
      <!-- 600 -->
      <defs>
       <path d="M 49.75 54.046875 
L 41.015625 53.375 
Q 39.84375 58.546875 37.703125 60.890625 
Q 34.125 64.65625 28.90625 64.65625 
Q 24.703125 64.65625 21.53125 62.3125 
Q 17.390625 59.28125 14.984375 53.46875 
Q 12.59375 47.65625 12.5 36.921875 
Q 15.671875 41.75 20.265625 44.09375 
Q 24.859375 46.4375 29.890625 46.4375 
Q 38.671875 46.4375 44.84375 39.96875 
Q 51.03125 33.5 51.03125 23.25 
Q 51.03125 16.5 48.125 10.71875 
Q 45.21875 4.9375 40.140625 1.859375 
Q 35.0625 -1.21875 28.609375 -1.21875 
Q 17.625 -1.21875 10.6875 6.859375 
Q 3.765625 14.9375 3.765625 33.5 
Q 3.765625 54.25 11.421875 63.671875 
Q 18.109375 71.875 29.4375 71.875 
Q 37.890625 71.875 43.28125 67.140625 
Q 48.6875 62.40625 49.75 54.046875 
z
M 13.875 23.1875 
Q 13.875 18.65625 15.796875 14.5 
Q 17.71875 10.359375 21.1875 8.171875 
Q 24.65625 6 28.46875 6 
Q 34.03125 6 38.03125 10.484375 
Q 42.046875 14.984375 42.046875 22.703125 
Q 42.046875 30.125 38.078125 34.390625 
Q 34.125 38.671875 28.125 38.671875 
Q 22.171875 38.671875 18.015625 34.390625 
Q 13.875 30.125 13.875 23.1875 
z
" id="ArialMT-36"/>
      </defs>
      <g style="fill:#262626;" transform="translate(408.611719 290.877812)scale(0.1 -0.1)">
       <use xlink:href="#ArialMT-36"/>
       <use x="55.615234" xlink:href="#ArialMT-30"/>
       <use x="111.230469" xlink:href="#ArialMT-30"/>
      </g>
     </g>
    </g>
    <g id="xtick_5">
     <g id="line2d_5">
      <g>
       <use style="fill:#262626;stroke:#262626;" x="525.9375" xlink:href="#me8903077b5" y="270.72"/>
      </g>
     </g>
     <g id="text_5">
      <!-- 800 -->
      <defs>
       <path d="M 17.671875 38.8125 
Q 12.203125 40.828125 9.5625 44.53125 
Q 6.9375 48.25 6.9375 53.421875 
Q 6.9375 61.234375 12.546875 66.546875 
Q 18.171875 71.875 27.484375 71.875 
Q 36.859375 71.875 42.578125 66.421875 
Q 48.296875 60.984375 48.296875 53.171875 
Q 48.296875 48.1875 45.671875 44.5 
Q 43.0625 40.828125 37.75 38.8125 
Q 44.34375 36.671875 47.78125 31.875 
Q 51.21875 27.09375 51.21875 20.453125 
Q 51.21875 11.28125 44.71875 5.03125 
Q 38.234375 -1.21875 27.640625 -1.21875 
Q 17.046875 -1.21875 10.546875 5.046875 
Q 4.046875 11.328125 4.046875 20.703125 
Q 4.046875 27.6875 7.59375 32.390625 
Q 11.140625 37.109375 17.671875 38.8125 
z
M 15.921875 53.71875 
Q 15.921875 48.640625 19.1875 45.40625 
Q 22.46875 42.1875 27.6875 42.1875 
Q 32.765625 42.1875 36.015625 45.375 
Q 39.265625 48.578125 39.265625 53.21875 
Q 39.265625 58.0625 35.90625 61.359375 
Q 32.5625 64.65625 27.59375 64.65625 
Q 22.5625 64.65625 19.234375 61.421875 
Q 15.921875 58.203125 15.921875 53.71875 
z
M 13.09375 20.65625 
Q 13.09375 16.890625 14.875 13.375 
Q 16.65625 9.859375 20.171875 7.921875 
Q 23.6875 6 27.734375 6 
Q 34.03125 6 38.125 10.046875 
Q 42.234375 14.109375 42.234375 20.359375 
Q 42.234375 26.703125 38.015625 30.859375 
Q 33.796875 35.015625 27.4375 35.015625 
Q 21.234375 35.015625 17.15625 30.90625 
Q 13.09375 26.8125 13.09375 20.65625 
z
" id="ArialMT-38"/>
      </defs>
      <g style="fill:#262626;" transform="translate(517.596094 290.877812)scale(0.1 -0.1)">
       <use xlink:href="#ArialMT-38"/>
       <use x="55.615234" xlink:href="#ArialMT-30"/>
       <use x="111.230469" xlink:href="#ArialMT-30"/>
      </g>
     </g>
    </g>
    <g id="xtick_6">
     <g id="line2d_6">
      <g>
       <use style="fill:#262626;stroke:#262626;" x="634.921875" xlink:href="#me8903077b5" y="270.72"/>
      </g>
     </g>
     <g id="text_6">
      <!-- 1000 -->
      <defs>
       <path d="M 37.25 0 
L 28.46875 0 
L 28.46875 56 
Q 25.296875 52.984375 20.140625 49.953125 
Q 14.984375 46.921875 10.890625 45.40625 
L 10.890625 53.90625 
Q 18.265625 57.375 23.78125 62.296875 
Q 29.296875 67.234375 31.59375 71.875 
L 37.25 71.875 
z
" id="ArialMT-31"/>
      </defs>
      <g style="fill:#262626;" transform="translate(623.8 290.877812)scale(0.1 -0.1)">
       <use xlink:href="#ArialMT-31"/>
       <use x="55.615234" xlink:href="#ArialMT-30"/>
       <use x="111.230469" xlink:href="#ArialMT-30"/>
       <use x="166.845703" xlink:href="#ArialMT-30"/>
      </g>
     </g>
    </g>
   </g>
   <g id="matplotlib.axis_2">
    <g id="ytick_1">
     <g id="line2d_7">
      <defs>
       <path d="M 0 0 
L -6 0 
" id="mc36d90bba0" style="stroke:#262626;"/>
      </defs>
      <g>
       <use style="fill:#262626;stroke:#262626;" x="90" xlink:href="#mc36d90bba0" y="270.72"/>
      </g>
     </g>
     <g id="text_7">
      <!-- −0.6 -->
      <defs>
       <path d="M 52.828125 31.203125 
L 5.5625 31.203125 
L 5.5625 39.40625 
L 52.828125 39.40625 
z
" id="ArialMT-2212"/>
       <path d="M 9.078125 0 
L 9.078125 10.015625 
L 19.09375 10.015625 
L 19.09375 0 
z
" id="ArialMT-2e"/>
      </defs>
      <g style="fill:#262626;" transform="translate(57.259375 274.298906)scale(0.1 -0.1)">
       <use xlink:href="#ArialMT-2212"/>
       <use x="58.398438" xlink:href="#ArialMT-30"/>
       <use x="114.013672" xlink:href="#ArialMT-2e"/>
       <use x="141.796875" xlink:href="#ArialMT-36"/>
      </g>
     </g>
    </g>
    <g id="ytick_2">
     <g id="line2d_8">
      <g>
       <use style="fill:#262626;stroke:#262626;" x="90" xlink:href="#mc36d90bba0" y="237.12"/>
      </g>
     </g>
     <g id="text_8">
      <!-- −0.4 -->
      <g style="fill:#262626;" transform="translate(57.259375 240.698906)scale(0.1 -0.1)">
       <use xlink:href="#ArialMT-2212"/>
       <use x="58.398438" xlink:href="#ArialMT-30"/>
       <use x="114.013672" xlink:href="#ArialMT-2e"/>
       <use x="141.796875" xlink:href="#ArialMT-34"/>
      </g>
     </g>
    </g>
    <g id="ytick_3">
     <g id="line2d_9">
      <g>
       <use style="fill:#262626;stroke:#262626;" x="90" xlink:href="#mc36d90bba0" y="203.52"/>
      </g>
     </g>
     <g id="text_9">
      <!-- −0.2 -->
      <g style="fill:#262626;" transform="translate(57.259375 207.098906)scale(0.1 -0.1)">
       <use xlink:href="#ArialMT-2212"/>
       <use x="58.398438" xlink:href="#ArialMT-30"/>
       <use x="114.013672" xlink:href="#ArialMT-2e"/>
       <use x="141.796875" xlink:href="#ArialMT-32"/>
      </g>
     </g>
    </g>
    <g id="ytick_4">
     <g id="line2d_10">
      <g>
       <use style="fill:#262626;stroke:#262626;" x="90" xlink:href="#mc36d90bba0" y="169.92"/>
      </g>
     </g>
     <g id="text_10">
      <!-- 0.0 -->
      <g style="fill:#262626;" transform="translate(63.1 173.498906)scale(0.1 -0.1)">
       <use xlink:href="#ArialMT-30"/>
       <use x="55.615234" xlink:href="#ArialMT-2e"/>
       <use x="83.398438" xlink:href="#ArialMT-30"/>
      </g>
     </g>
    </g>
    <g id="ytick_5">
     <g id="line2d_11">
      <g>
       <use style="fill:#262626;stroke:#262626;" x="90" xlink:href="#mc36d90bba0" y="136.32"/>
      </g>
     </g>
     <g id="text_11">
      <!-- 0.2 -->
      <g style="fill:#262626;" transform="translate(63.1 139.898906)scale(0.1 -0.1)">
       <use xlink:href="#ArialMT-30"/>
       <use x="55.615234" xlink:href="#ArialMT-2e"/>
       <use x="83.398438" xlink:href="#ArialMT-32"/>
      </g>
     </g>
    </g>
    <g id="ytick_6">
     <g id="line2d_12">
      <g>
       <use style="fill:#262626;stroke:#262626;" x="90" xlink:href="#mc36d90bba0" y="102.72"/>
      </g>
     </g>
     <g id="text_12">
      <!-- 0.4 -->
      <g style="fill:#262626;" transform="translate(63.1 106.298906)scale(0.1 -0.1)">
       <use xlink:href="#ArialMT-30"/>
       <use x="55.615234" xlink:href="#ArialMT-2e"/>
       <use x="83.398438" xlink:href="#ArialMT-34"/>
      </g>
     </g>
    </g>
    <g id="ytick_7">
     <g id="line2d_13">
      <g>
       <use style="fill:#262626;stroke:#262626;" x="90" xlink:href="#mc36d90bba0" y="69.12"/>
      </g>
     </g>
     <g id="text_13">
      <!-- 0.6 -->
      <g style="fill:#262626;" transform="translate(63.1 72.698906)scale(0.1 -0.1)">
       <use xlink:href="#ArialMT-30"/>
       <use x="55.615234" xlink:href="#ArialMT-2e"/>
       <use x="83.398438" xlink:href="#ArialMT-36"/>
      </g>
     </g>
    </g>
   </g>
   <g id="line2d_14">
    <path clip-path="url(#pcb677d40e5)" d="M 90 165.849199 
L 90.544922 166.628496 
L 91.089844 168.023027 
L 92.724609 171.176104 
L 93.269531 171.786211 
L 93.814453 172.565508 
L 94.359375 172.703936 
L 94.904297 172.698809 
L 95.449219 172.150225 
L 95.994141 171.217119 
L 96.539062 170.514727 
L 99.263672 162.793535 
L 99.808594 160.922197 
L 100.353516 159.609697 
L 100.898438 157.810137 
L 101.988281 155.262041 
L 103.078125 153.467607 
L 103.623047 153.057451 
L 104.712891 152.55501 
L 105.257812 153.026689 
L 105.802734 153.077959 
L 106.347656 153.472734 
L 106.892578 154.093096 
L 107.4375 155.046709 
L 108.527344 157.733232 
L 110.162109 162.93709 
L 110.707031 165.192949 
L 113.976562 174.98543 
L 115.611328 178.917803 
L 116.701172 181.02498 
L 117.791016 182.660479 
L 118.335938 183.321855 
L 118.880859 183.588457 
L 119.425781 183.721758 
L 119.970703 183.644854 
L 120.515625 183.168047 
L 121.605469 181.317217 
L 122.695312 178.143633 
L 123.785156 174.370195 
L 125.419922 168.592119 
L 125.964844 166.936113 
L 127.599609 163.439531 
L 128.144531 162.931963 
L 128.689453 162.788408 
L 129.779297 163.352373 
L 130.869141 164.464922 
L 131.414062 165.505693 
L 132.503906 168.197344 
L 135.773438 177.84627 
L 136.863281 180.435381 
L 137.953125 182.424639 
L 138.498047 183.28084 
L 139.042969 183.875566 
L 139.587891 184.203691 
L 140.132812 184.229326 
L 140.677734 184.024248 
L 141.767578 182.409258 
L 142.3125 181.132646 
L 142.857422 179.502275 
L 143.402344 178.394854 
L 143.947266 176.456865 
L 146.671875 169.3304 
L 149.941406 162.301348 
L 151.03125 161.050371 
L 152.666016 160.230059 
L 153.210938 160.54793 
L 153.755859 160.645342 
L 154.300781 161.045244 
L 154.845703 161.737383 
L 155.390625 162.055254 
L 155.935547 162.983232 
L 156.480469 163.583086 
L 159.205078 167.720537 
L 159.75 168.084551 
L 160.294922 168.704912 
L 161.384766 169.181719 
L 161.929688 168.986895 
L 162.474609 168.925371 
L 163.019531 168.484453 
L 163.564453 167.792314 
L 164.109375 167.371904 
L 164.654297 166.367021 
L 166.289062 164.413652 
L 167.923828 163.311357 
L 168.46875 163.244707 
L 169.013672 162.890947 
L 169.558594 162.957598 
L 170.648438 162.619219 
L 171.193359 162.419268 
L 171.738281 162.409014 
L 172.283203 162.127031 
L 172.828125 162.296221 
L 173.373047 162.050127 
L 173.917969 162.198809 
L 174.462891 162.547441 
L 175.007812 162.506426 
L 176.097656 162.639727 
L 177.1875 162.7679 
L 177.732422 162.716631 
L 178.277344 162.81917 
L 178.822266 163.244707 
L 179.367188 163.454912 
L 181.001953 165.387773 
L 182.091797 167.576982 
L 182.636719 168.622881 
L 183.726562 171.340166 
L 184.816406 173.190996 
L 185.361328 173.92415 
L 185.90625 174.411211 
L 186.451172 174.493242 
L 186.996094 174.390703 
L 187.541016 173.826738 
L 189.175781 170.591631 
L 190.810547 165.787676 
L 192.990234 160.107012 
L 193.535156 158.676592 
L 194.080078 157.738359 
L 194.625 156.55916 
L 195.714844 154.928789 
L 196.804688 154.098223 
L 197.349609 154.10335 
L 198.439453 155.005693 
L 199.529297 156.820635 
L 201.164062 161.060625 
L 201.708984 162.93709 
L 202.798828 165.808184 
L 205.523438 173.893389 
L 206.613281 176.764482 
L 209.337891 183.742266 
L 210.427734 185.444414 
L 210.972656 185.900713 
L 211.517578 185.916094 
L 212.0625 185.644365 
L 213.152344 183.7679 
L 214.787109 179.307451 
L 216.966797 172.170732 
L 218.056641 169.109941 
L 219.146484 166.602861 
L 220.236328 165.541582 
L 220.78125 165.27498 
L 221.326172 165.413408 
L 221.871094 165.803057 
L 222.960938 167.253984 
L 224.050781 169.602129 
L 225.140625 172.24251 
L 226.775391 176.867021 
L 227.865234 180.327715 
L 228.955078 183.321855 
L 229.5 184.608721 
L 230.044922 185.541826 
L 230.589844 186.213457 
L 231.134766 186.567217 
L 231.679688 186.659502 
L 232.224609 186.357012 
L 233.314453 185.106035 
L 233.859375 184.29085 
L 235.494141 180.942949 
L 236.039062 179.451006 
L 236.583984 178.292314 
L 239.853516 169.550859 
L 240.398438 168.161455 
L 242.033203 165.264727 
L 243.667969 163.285723 
L 244.757812 162.952471 
L 246.392578 163.726641 
L 248.572266 166.177324 
L 249.662109 168.617754 
L 250.751953 170.294268 
L 251.296875 171.237627 
L 252.386719 172.00667 
L 252.931641 172.314287 
L 253.476562 171.77083 
L 254.021484 171.781084 
L 254.566406 171.401689 
L 255.111328 170.637773 
L 255.65625 170.227617 
L 256.201172 169.571367 
L 256.746094 169.104814 
L 257.291016 168.356279 
L 257.835938 168.202471 
L 259.470703 166.82332 
L 260.015625 166.10042 
L 260.560547 166.003008 
L 261.105469 165.403154 
L 262.740234 164.890459 
L 263.285156 164.859697 
L 264.375 165.126299 
L 264.919922 164.869951 
L 266.009766 164.916094 
L 267.644531 164.270098 
L 268.734375 163.998369 
L 269.279297 163.89583 
L 270.369141 164.029131 
L 271.458984 165.095537 
L 272.003906 165.710771 
L 273.638672 169.048418 
L 274.728516 171.765703 
L 275.818359 174.354814 
L 276.908203 176.087725 
L 277.998047 176.41585 
L 279.087891 176.323564 
L 280.177734 174.770098 
L 280.722656 173.960039 
L 281.8125 171.58626 
L 285.626953 161.091387 
L 287.261719 157.902422 
L 288.351562 156.661699 
L 288.896484 156.641191 
L 289.986328 157.133379 
L 290.53125 157.692217 
L 291.621094 159.666094 
L 292.710938 162.224443 
L 293.255859 163.372881 
L 293.800781 165.064775 
L 294.890625 167.720537 
L 295.980469 170.478838 
L 296.525391 172.350176 
L 297.615234 175.544268 
L 299.25 181.491533 
L 301.429688 187.254229 
L 301.974609 188.100176 
L 302.519531 188.643633 
L 303.064453 188.935869 
L 303.609375 188.838457 
L 304.699219 187.997637 
L 306.333984 184.393389 
L 308.513672 177.395098 
L 309.603516 174.04207 
L 310.693359 171.801592 
L 311.238281 171.001787 
L 312.328125 169.878984 
L 312.873047 169.61751 
L 313.962891 169.571367 
L 314.507812 170.360918 
L 315.052734 170.545488 
L 316.142578 172.78084 
L 316.6875 173.949785 
L 321.046875 187.054277 
L 322.681641 189.212725 
L 323.226562 189.504961 
L 323.771484 189.551104 
L 324.316406 189.469072 
L 324.861328 189.171709 
L 325.951172 187.99251 
L 328.130859 183.880693 
L 329.765625 179.533037 
L 330.855469 176.359453 
L 331.400391 175.164873 
L 331.945312 173.67293 
L 332.490234 172.703936 
L 333.035156 171.324785 
L 335.759766 167.418047 
L 336.304688 167.095049 
L 337.394531 166.7054 
L 338.484375 167.551348 
L 339.574219 169.21248 
L 341.208984 172.160479 
L 342.298828 173.811357 
L 342.84375 174.472734 
L 343.388672 174.898271 
L 345.568359 175.626299 
L 346.113281 175.477617 
L 346.658203 175.492998 
L 348.292969 174.103594 
L 348.837891 173.826738 
L 349.382812 173.360186 
L 349.927734 172.580889 
L 350.472656 172.36043 
L 351.017578 171.642656 
L 351.5625 171.458086 
L 352.107422 170.955645 
L 353.742188 170.335283 
L 354.832031 170.381426 
L 355.376953 170.114824 
L 355.921875 170.181475 
L 357.556641 169.663652 
L 358.646484 169.115068 
L 359.191406 168.715166 
L 359.736328 168.048662 
L 360.826172 167.669268 
L 361.916016 167.812822 
L 363.005859 168.751055 
L 363.550781 169.463701 
L 365.185547 172.939775 
L 365.730469 174.585527 
L 367.910156 179.163896 
L 369 180.179033 
L 369.544922 180.645586 
L 370.089844 180.635332 
L 370.634766 180.830156 
L 372.269531 179.276689 
L 373.359375 177.364336 
L 374.449219 174.647051 
L 375.539062 171.811846 
L 377.173828 166.82332 
L 378.263672 163.849687 
L 379.898438 161.137529 
L 380.988281 161.070879 
L 382.623047 162.009111 
L 383.712891 163.9471 
L 384.802734 165.705645 
L 386.4375 169.074053 
L 388.617188 175.600664 
L 391.886719 186.823564 
L 393.521484 191.407061 
L 394.611328 192.929766 
L 395.15625 192.904131 
L 395.701172 192.611895 
L 396.246094 192.129961 
L 396.791016 191.376299 
L 397.335938 190.217607 
L 401.695312 178.112871 
L 403.875 174.047197 
L 404.419922 173.339678 
L 405.509766 172.888506 
L 406.599609 173.288408 
L 407.689453 175.072588 
L 408.779297 177.830889 
L 412.59375 188.279619 
L 413.683594 190.299639 
L 414.773438 191.899248 
L 416.408203 192.442705 
L 416.953125 191.863359 
L 417.498047 191.924883 
L 419.132812 189.00252 
L 419.677734 187.997637 
L 421.857422 182.665605 
L 422.947266 180.245684 
L 425.671875 173.50374 
L 426.761719 171.478594 
L 427.306641 170.699297 
L 428.396484 170.099443 
L 429.486328 170.550615 
L 430.03125 170.981279 
L 430.576172 171.683672 
L 431.121094 172.068193 
L 431.666016 173.226885 
L 432.210938 173.713945 
L 433.845703 176.06209 
L 434.390625 176.83626 
L 434.935547 177.174639 
L 435.480469 177.871904 
L 436.025391 178.046221 
L 436.570312 178.369219 
L 437.115234 178.33333 
L 437.660156 178.410234 
L 438.205078 178.102617 
L 438.75 178.056475 
L 439.294922 177.451494 
L 439.839844 177.231035 
L 441.474609 175.969805 
L 442.019531 175.216143 
L 442.564453 175.021318 
L 443.109375 174.51375 
L 443.654297 174.21126 
L 444.199219 173.73958 
L 444.744141 173.780596 
L 445.289062 173.560137 
L 446.378906 173.770342 
L 446.923828 173.667803 
L 448.558594 172.750078 
L 449.103516 172.032305 
L 449.648438 171.678545 
L 450.193359 171.176104 
L 450.738281 170.299395 
L 452.373047 169.371416 
L 454.007812 169.730303 
L 454.552734 170.140459 
L 455.642578 171.970781 
L 456.732422 174.441973 
L 457.277344 175.790361 
L 457.822266 176.83626 
L 458.912109 179.322832 
L 460.546875 181.645342 
L 461.636719 182.475908 
L 462.181641 182.783525 
L 463.271484 182.875811 
L 464.90625 180.866045 
L 465.451172 179.732988 
L 466.541016 176.913164 
L 468.720703 169.925127 
L 470.355469 166.074785 
L 471.990234 163.783037 
L 472.535156 163.706133 
L 473.080078 163.793291 
L 473.625 163.511309 
L 474.714844 164.275225 
L 475.804688 164.992998 
L 477.439453 167.674395 
L 478.529297 170.012285 
L 480.708984 176.292803 
L 482.34375 182.460527 
L 483.433594 186.592852 
L 484.523438 190.140703 
L 485.068359 191.607012 
L 486.158203 193.237383 
L 486.703125 193.632158 
L 487.248047 193.365557 
L 487.792969 193.304033 
L 488.337891 192.422197 
L 488.882812 191.827471 
L 491.0625 187.397783 
L 492.152344 184.465166 
L 494.332031 178.312822 
L 495.966797 175.10335 
L 496.511719 174.539385 
L 497.056641 174.283037 
L 497.601562 174.339434 
L 498.146484 174.795732 
L 498.691406 175.436602 
L 499.78125 177.282305 
L 501.416016 181.107012 
L 503.050781 185.500811 
L 504.140625 188.166826 
L 504.685547 189.592119 
L 505.775391 191.586504 
L 506.865234 192.924639 
L 507.410156 192.899004 
L 507.955078 193.047686 
L 509.044922 192.827227 
L 511.224609 190.140703 
L 512.314453 188.300127 
L 513.949219 184.59334 
L 516.128906 178.39998 
L 517.21875 176.082598 
L 518.308594 173.760088 
L 519.398438 172.503984 
L 519.943359 172.247637 
L 520.488281 172.134844 
L 521.033203 172.247637 
L 522.667969 173.20125 
L 525.9375 177.451494 
L 526.482422 177.866777 
L 527.027344 178.533281 
L 527.572266 178.743486 
L 528.117188 179.379229 
L 529.207031 179.558672 
L 529.751953 179.512529 
L 530.296875 179.333086 
L 530.841797 178.784502 
L 531.386719 178.523027 
L 531.931641 177.923174 
L 532.476562 177.67708 
L 533.021484 177.133623 
L 533.566406 176.897783 
L 534.111328 176.810625 
L 534.65625 176.405596 
L 535.201172 176.241533 
L 535.746094 176.400469 
L 536.291016 176.303057 
L 536.835938 176.026201 
L 538.470703 176.210771 
L 539.015625 175.508379 
L 539.560547 175.282793 
L 540.105469 174.600908 
L 540.650391 174.108721 
L 541.740234 172.627031 
L 542.285156 172.257891 
L 542.830078 171.360674 
L 543.919922 170.319902 
L 544.464844 170.45833 
L 545.554688 170.432695 
L 546.644531 171.627275 
L 548.279297 174.365068 
L 552.638672 182.286211 
L 553.728516 183.414141 
L 554.818359 183.721758 
L 555.908203 183.137285 
L 556.453125 182.373369 
L 556.998047 181.245439 
L 559.177734 175.10335 
L 561.357422 169.238115 
L 561.902344 168.089678 
L 562.447266 167.223223 
L 562.992188 166.141436 
L 564.626953 164.746904 
L 566.806641 164.695635 
L 567.351562 165.059648 
L 568.441406 166.172197 
L 568.986328 166.695146 
L 569.53125 167.515459 
L 570.621094 169.827715 
L 571.710938 172.934648 
L 573.345703 179.1075 
L 574.435547 183.603838 
L 575.525391 187.69002 
L 576.615234 190.68416 
L 577.705078 192.673418 
L 578.25 193.206621 
L 578.794922 193.503984 
L 579.884766 193.298906 
L 580.429688 192.945146 
L 581.519531 191.622393 
L 582.609375 189.381914 
L 583.154297 188.100176 
L 585.878906 180.030352 
L 586.96875 177.328447 
L 587.513672 176.400469 
L 588.603516 175.10335 
L 589.148438 174.841875 
L 590.783203 175.764727 
L 591.328125 176.738848 
L 591.873047 177.384844 
L 593.507812 181.347979 
L 595.142578 185.628984 
L 596.777344 189.376787 
L 597.867188 191.417314 
L 599.501953 192.914385 
L 600.046875 192.827227 
L 600.591797 192.88875 
L 601.136719 192.53499 
L 601.681641 192.437578 
L 602.226562 191.719805 
L 603.316406 190.586748 
L 604.40625 188.218096 
L 604.951172 186.987627 
L 606.585938 182.291338 
L 607.675781 179.030596 
L 609.310547 175.036699 
L 609.855469 174.011309 
L 610.945312 172.365557 
L 613.125 170.909502 
L 614.759766 171.857988 
L 615.849609 172.991045 
L 616.939453 174.488115 
L 617.484375 175.369951 
L 618.029297 175.754473 
L 618.574219 176.518389 
L 619.119141 176.990068 
L 619.664062 176.979814 
L 620.208984 177.420732 
L 620.753906 177.200273 
L 621.298828 177.32332 
L 621.84375 176.984941 
L 622.388672 176.790117 
L 622.933594 176.159502 
L 623.478516 176.108232 
L 624.568359 175.139238 
L 625.113281 174.826494 
L 625.658203 174.805986 
L 626.748047 174.549639 
L 627.292969 174.595781 
L 627.837891 174.518877 
L 628.382812 174.780352 
L 628.927734 174.406084 
L 629.472656 174.400957 
L 630.017578 174.098467 
L 631.107422 173.011553 
L 631.652344 172.12459 
L 632.197266 171.529863 
L 632.742188 170.719805 
L 633.287109 170.237871 
L 633.832031 169.284258 
L 634.921875 168.120439 
L 635.466797 167.864092 
L 636.011719 167.853838 
L 636.556641 167.617998 
L 637.101562 167.741045 
L 638.191406 168.428057 
L 638.736328 168.935625 
L 639.826172 170.27376 
L 640.371094 171.376055 
L 641.460938 173.021807 
L 642.005859 174.313799 
L 642.550781 175.241777 
L 643.095703 176.615801 
L 643.640625 177.49251 
L 644.185547 178.676836 
L 645.275391 179.958574 
L 645.820312 180.461016 
L 646.365234 180.77376 
L 646.910156 180.681475 
L 647.455078 180.122637 
L 647.455078 180.122637 
" style="fill:none;stroke:#4c72b0;stroke-linecap:round;stroke-width:1.75;"/>
   </g>
   <g id="patch_3">
    <path d="M 90 270.72 
L 90 69.12 
" style="fill:none;stroke:#262626;stroke-linecap:square;stroke-linejoin:miter;stroke-width:1.25;"/>
   </g>
   <g id="patch_4">
    <path d="M 90 270.72 
L 648 270.72 
" style="fill:none;stroke:#262626;stroke-linecap:square;stroke-linejoin:miter;stroke-width:1.25;"/>
   </g>
  </g>
  <g id="axes_2">
   <g id="patch_5">
    <path d="M 90 512.64 
L 648 512.64 
L 648 311.04 
L 90 311.04 
z
" style="fill:#ffffff;"/>
   </g>
   <g id="matplotlib.axis_3">
    <g id="xtick_7">
     <g id="line2d_15">
      <g>
       <use style="fill:#262626;stroke:#262626;" x="218.197478" xlink:href="#me8903077b5" y="512.64"/>
      </g>
     </g>
     <g id="text_14">
      <!-- $\mathdefault{10^{2}}$ -->
      <g style="fill:#262626;" transform="translate(210.347478 535.9525)scale(0.1 -0.1)">
       <use transform="translate(0 0.99375)" xlink:href="#ArialMT-31"/>
       <use transform="translate(55.615234 0.99375)" xlink:href="#ArialMT-30"/>
       <use transform="translate(112.972813 70.6875)scale(0.7)" xlink:href="#ArialMT-32"/>
      </g>
     </g>
    </g>
    <g id="xtick_8">
     <g id="line2d_16">
      <g>
       <use style="fill:#262626;stroke:#262626;" x="401.606604" xlink:href="#me8903077b5" y="512.64"/>
      </g>
     </g>
     <g id="text_15">
      <!-- $\mathdefault{10^{3}}$ -->
      <defs>
       <path d="M 4.203125 18.890625 
L 12.984375 20.0625 
Q 14.5 12.59375 18.140625 9.296875 
Q 21.78125 6 27 6 
Q 33.203125 6 37.46875 10.296875 
Q 41.75 14.59375 41.75 20.953125 
Q 41.75 27 37.796875 30.921875 
Q 33.84375 34.859375 27.734375 34.859375 
Q 25.25 34.859375 21.53125 33.890625 
L 22.515625 41.609375 
Q 23.390625 41.5 23.921875 41.5 
Q 29.546875 41.5 34.03125 44.421875 
Q 38.53125 47.359375 38.53125 53.46875 
Q 38.53125 58.296875 35.25 61.46875 
Q 31.984375 64.65625 26.8125 64.65625 
Q 21.6875 64.65625 18.265625 61.421875 
Q 14.84375 58.203125 13.875 51.765625 
L 5.078125 53.328125 
Q 6.6875 62.15625 12.390625 67.015625 
Q 18.109375 71.875 26.609375 71.875 
Q 32.46875 71.875 37.390625 69.359375 
Q 42.328125 66.84375 44.9375 62.5 
Q 47.5625 58.15625 47.5625 53.265625 
Q 47.5625 48.640625 45.0625 44.828125 
Q 42.578125 41.015625 37.703125 38.765625 
Q 44.046875 37.3125 47.5625 32.6875 
Q 51.078125 28.078125 51.078125 21.140625 
Q 51.078125 11.765625 44.234375 5.25 
Q 37.40625 -1.265625 26.953125 -1.265625 
Q 17.53125 -1.265625 11.296875 4.34375 
Q 5.078125 9.96875 4.203125 18.890625 
z
" id="ArialMT-33"/>
      </defs>
      <g style="fill:#262626;" transform="translate(393.756604 535.9525)scale(0.1 -0.1)">
       <use transform="translate(0 0.99375)" xlink:href="#ArialMT-31"/>
       <use transform="translate(55.615234 0.99375)" xlink:href="#ArialMT-30"/>
       <use transform="translate(112.972813 70.6875)scale(0.7)" xlink:href="#ArialMT-33"/>
      </g>
     </g>
    </g>
    <g id="xtick_9">
     <g id="line2d_17">
      <g>
       <use style="fill:#262626;stroke:#262626;" x="585.01573" xlink:href="#me8903077b5" y="512.64"/>
      </g>
     </g>
     <g id="text_16">
      <!-- $\mathdefault{10^{4}}$ -->
      <g style="fill:#262626;" transform="translate(577.16573 535.8525)scale(0.1 -0.1)">
       <use transform="translate(0 0.201563)" xlink:href="#ArialMT-31"/>
       <use transform="translate(55.615234 0.201563)" xlink:href="#ArialMT-30"/>
       <use transform="translate(112.972813 69.895313)scale(0.7)" xlink:href="#ArialMT-34"/>
      </g>
     </g>
    </g>
    <g id="xtick_10">
     <g id="line2d_18">
      <defs>
       <path d="M 0 0 
L 0 3 
" id="m196005b3c8" style="stroke:#262626;stroke-width:0.5;"/>
      </defs>
      <g>
       <use style="fill:#262626;stroke:#262626;stroke-width:0.5;" x="90" xlink:href="#m196005b3c8" y="512.64"/>
      </g>
     </g>
    </g>
    <g id="xtick_11">
     <g id="line2d_19">
      <g>
       <use style="fill:#262626;stroke:#262626;stroke-width:0.5;" x="122.296744" xlink:href="#m196005b3c8" y="512.64"/>
      </g>
     </g>
    </g>
    <g id="xtick_12">
     <g id="line2d_20">
      <g>
       <use style="fill:#262626;stroke:#262626;stroke-width:0.5;" x="145.211648" xlink:href="#m196005b3c8" y="512.64"/>
      </g>
     </g>
    </g>
    <g id="xtick_13">
     <g id="line2d_21">
      <g>
       <use style="fill:#262626;stroke:#262626;stroke-width:0.5;" x="162.985829" xlink:href="#m196005b3c8" y="512.64"/>
      </g>
     </g>
    </g>
    <g id="xtick_14">
     <g id="line2d_22">
      <g>
       <use style="fill:#262626;stroke:#262626;stroke-width:0.5;" x="177.508392" xlink:href="#m196005b3c8" y="512.64"/>
      </g>
     </g>
    </g>
    <g id="xtick_15">
     <g id="line2d_23">
      <g>
       <use style="fill:#262626;stroke:#262626;stroke-width:0.5;" x="189.787045" xlink:href="#m196005b3c8" y="512.64"/>
      </g>
     </g>
    </g>
    <g id="xtick_16">
     <g id="line2d_24">
      <g>
       <use style="fill:#262626;stroke:#262626;stroke-width:0.5;" x="200.423297" xlink:href="#m196005b3c8" y="512.64"/>
      </g>
     </g>
    </g>
    <g id="xtick_17">
     <g id="line2d_25">
      <g>
       <use style="fill:#262626;stroke:#262626;stroke-width:0.5;" x="209.805136" xlink:href="#m196005b3c8" y="512.64"/>
      </g>
     </g>
    </g>
    <g id="xtick_18">
     <g id="line2d_26">
      <g>
       <use style="fill:#262626;stroke:#262626;stroke-width:0.5;" x="273.409126" xlink:href="#m196005b3c8" y="512.64"/>
      </g>
     </g>
    </g>
    <g id="xtick_19">
     <g id="line2d_27">
      <g>
       <use style="fill:#262626;stroke:#262626;stroke-width:0.5;" x="305.70587" xlink:href="#m196005b3c8" y="512.64"/>
      </g>
     </g>
    </g>
    <g id="xtick_20">
     <g id="line2d_28">
      <g>
       <use style="fill:#262626;stroke:#262626;stroke-width:0.5;" x="328.620775" xlink:href="#m196005b3c8" y="512.64"/>
      </g>
     </g>
    </g>
    <g id="xtick_21">
     <g id="line2d_29">
      <g>
       <use style="fill:#262626;stroke:#262626;stroke-width:0.5;" x="346.394955" xlink:href="#m196005b3c8" y="512.64"/>
      </g>
     </g>
    </g>
    <g id="xtick_22">
     <g id="line2d_30">
      <g>
       <use style="fill:#262626;stroke:#262626;stroke-width:0.5;" x="360.917518" xlink:href="#m196005b3c8" y="512.64"/>
      </g>
     </g>
    </g>
    <g id="xtick_23">
     <g id="line2d_31">
      <g>
       <use style="fill:#262626;stroke:#262626;stroke-width:0.5;" x="373.196171" xlink:href="#m196005b3c8" y="512.64"/>
      </g>
     </g>
    </g>
    <g id="xtick_24">
     <g id="line2d_32">
      <g>
       <use style="fill:#262626;stroke:#262626;stroke-width:0.5;" x="383.832423" xlink:href="#m196005b3c8" y="512.64"/>
      </g>
     </g>
    </g>
    <g id="xtick_25">
     <g id="line2d_33">
      <g>
       <use style="fill:#262626;stroke:#262626;stroke-width:0.5;" x="393.214262" xlink:href="#m196005b3c8" y="512.64"/>
      </g>
     </g>
    </g>
    <g id="xtick_26">
     <g id="line2d_34">
      <g>
       <use style="fill:#262626;stroke:#262626;stroke-width:0.5;" x="456.818252" xlink:href="#m196005b3c8" y="512.64"/>
      </g>
     </g>
    </g>
    <g id="xtick_27">
     <g id="line2d_35">
      <g>
       <use style="fill:#262626;stroke:#262626;stroke-width:0.5;" x="489.114996" xlink:href="#m196005b3c8" y="512.64"/>
      </g>
     </g>
    </g>
    <g id="xtick_28">
     <g id="line2d_36">
      <g>
       <use style="fill:#262626;stroke:#262626;stroke-width:0.5;" x="512.029901" xlink:href="#m196005b3c8" y="512.64"/>
      </g>
     </g>
    </g>
    <g id="xtick_29">
     <g id="line2d_37">
      <g>
       <use style="fill:#262626;stroke:#262626;stroke-width:0.5;" x="529.804081" xlink:href="#m196005b3c8" y="512.64"/>
      </g>
     </g>
    </g>
    <g id="xtick_30">
     <g id="line2d_38">
      <g>
       <use style="fill:#262626;stroke:#262626;stroke-width:0.5;" x="544.326645" xlink:href="#m196005b3c8" y="512.64"/>
      </g>
     </g>
    </g>
    <g id="xtick_31">
     <g id="line2d_39">
      <g>
       <use style="fill:#262626;stroke:#262626;stroke-width:0.5;" x="556.605297" xlink:href="#m196005b3c8" y="512.64"/>
      </g>
     </g>
    </g>
    <g id="xtick_32">
     <g id="line2d_40">
      <g>
       <use style="fill:#262626;stroke:#262626;stroke-width:0.5;" x="567.241549" xlink:href="#m196005b3c8" y="512.64"/>
      </g>
     </g>
    </g>
    <g id="xtick_33">
     <g id="line2d_41">
      <g>
       <use style="fill:#262626;stroke:#262626;stroke-width:0.5;" x="576.623389" xlink:href="#m196005b3c8" y="512.64"/>
      </g>
     </g>
    </g>
    <g id="xtick_34">
     <g id="line2d_42">
      <g>
       <use style="fill:#262626;stroke:#262626;stroke-width:0.5;" x="640.227378" xlink:href="#m196005b3c8" y="512.64"/>
      </g>
     </g>
    </g>
   </g>
   <g id="matplotlib.axis_4">
    <g id="ytick_8">
     <g id="line2d_43">
      <g>
       <use style="fill:#262626;stroke:#262626;" x="90" xlink:href="#mc36d90bba0" y="512.64"/>
      </g>
     </g>
     <g id="text_17">
      <!-- $\mathdefault{10^{-5}}$ -->
      <defs>
       <path d="M 4.15625 18.75 
L 13.375 19.53125 
Q 14.40625 12.796875 18.140625 9.390625 
Q 21.875 6 27.15625 6 
Q 33.5 6 37.890625 10.78125 
Q 42.28125 15.578125 42.28125 23.484375 
Q 42.28125 31 38.0625 35.34375 
Q 33.84375 39.703125 27 39.703125 
Q 22.75 39.703125 19.328125 37.765625 
Q 15.921875 35.84375 13.96875 32.765625 
L 5.71875 33.84375 
L 12.640625 70.609375 
L 48.25 70.609375 
L 48.25 62.203125 
L 19.671875 62.203125 
L 15.828125 42.96875 
Q 22.265625 47.46875 29.34375 47.46875 
Q 38.71875 47.46875 45.15625 40.96875 
Q 51.609375 34.46875 51.609375 24.265625 
Q 51.609375 14.546875 45.953125 7.46875 
Q 39.0625 -1.21875 27.15625 -1.21875 
Q 17.390625 -1.21875 11.203125 4.25 
Q 5.03125 9.71875 4.15625 18.75 
z
" id="ArialMT-35"/>
      </defs>
      <g style="fill:#262626;" transform="translate(57.2 517.74625)scale(0.1 -0.1)">
       <use transform="translate(0 0.879688)" xlink:href="#ArialMT-31"/>
       <use transform="translate(55.615234 0.879688)" xlink:href="#ArialMT-30"/>
       <use transform="translate(112.972813 70.573438)scale(0.7)" xlink:href="#ArialMT-2212"/>
       <use transform="translate(153.851719 70.573438)scale(0.7)" xlink:href="#ArialMT-35"/>
      </g>
     </g>
    </g>
    <g id="ytick_9">
     <g id="line2d_44">
      <g>
       <use style="fill:#262626;stroke:#262626;" x="90" xlink:href="#mc36d90bba0" y="465.767507"/>
      </g>
     </g>
     <g id="text_18">
      <!-- $\mathdefault{10^{-4}}$ -->
      <g style="fill:#262626;" transform="translate(57.2 470.873757)scale(0.1 -0.1)">
       <use transform="translate(0 0.201563)" xlink:href="#ArialMT-31"/>
       <use transform="translate(55.615234 0.201563)" xlink:href="#ArialMT-30"/>
       <use transform="translate(112.972813 69.895313)scale(0.7)" xlink:href="#ArialMT-2212"/>
       <use transform="translate(153.851719 69.895313)scale(0.7)" xlink:href="#ArialMT-34"/>
      </g>
     </g>
    </g>
    <g id="ytick_10">
     <g id="line2d_45">
      <g>
       <use style="fill:#262626;stroke:#262626;" x="90" xlink:href="#mc36d90bba0" y="418.895013"/>
      </g>
     </g>
     <g id="text_19">
      <!-- $\mathdefault{10^{-3}}$ -->
      <g style="fill:#262626;" transform="translate(57.2 424.051263)scale(0.1 -0.1)">
       <use transform="translate(0 0.99375)" xlink:href="#ArialMT-31"/>
       <use transform="translate(55.615234 0.99375)" xlink:href="#ArialMT-30"/>
       <use transform="translate(112.972813 70.6875)scale(0.7)" xlink:href="#ArialMT-2212"/>
       <use transform="translate(153.851719 70.6875)scale(0.7)" xlink:href="#ArialMT-33"/>
      </g>
     </g>
    </g>
    <g id="ytick_11">
     <g id="line2d_46">
      <g>
       <use style="fill:#262626;stroke:#262626;" x="90" xlink:href="#mc36d90bba0" y="372.02252"/>
      </g>
     </g>
     <g id="text_20">
      <!-- $\mathdefault{10^{-2}}$ -->
      <g style="fill:#262626;" transform="translate(57.2 377.17877)scale(0.1 -0.1)">
       <use transform="translate(0 0.99375)" xlink:href="#ArialMT-31"/>
       <use transform="translate(55.615234 0.99375)" xlink:href="#ArialMT-30"/>
       <use transform="translate(112.972813 70.6875)scale(0.7)" xlink:href="#ArialMT-2212"/>
       <use transform="translate(153.851719 70.6875)scale(0.7)" xlink:href="#ArialMT-32"/>
      </g>
     </g>
    </g>
    <g id="ytick_12">
     <g id="line2d_47">
      <g>
       <use style="fill:#262626;stroke:#262626;" x="90" xlink:href="#mc36d90bba0" y="325.150026"/>
      </g>
     </g>
     <g id="text_21">
      <!-- $\mathdefault{10^{-1}}$ -->
      <g style="fill:#262626;" transform="translate(57.2 330.306276)scale(0.1 -0.1)">
       <use transform="translate(0 0.99375)" xlink:href="#ArialMT-31"/>
       <use transform="translate(55.615234 0.99375)" xlink:href="#ArialMT-30"/>
       <use transform="translate(112.972813 70.6875)scale(0.7)" xlink:href="#ArialMT-2212"/>
       <use transform="translate(153.851719 70.6875)scale(0.7)" xlink:href="#ArialMT-31"/>
      </g>
     </g>
    </g>
    <g id="ytick_13">
     <g id="line2d_48">
      <defs>
       <path d="M 0 0 
L -3 0 
" id="m15fe37d60b" style="stroke:#262626;stroke-width:0.5;"/>
      </defs>
      <g>
       <use style="fill:#262626;stroke:#262626;stroke-width:0.5;" x="90" xlink:href="#m15fe37d60b" y="498.529974"/>
      </g>
     </g>
    </g>
    <g id="ytick_14">
     <g id="line2d_49">
      <g>
       <use style="fill:#262626;stroke:#262626;stroke-width:0.5;" x="90" xlink:href="#m15fe37d60b" y="490.276137"/>
      </g>
     </g>
    </g>
    <g id="ytick_15">
     <g id="line2d_50">
      <g>
       <use style="fill:#262626;stroke:#262626;stroke-width:0.5;" x="90" xlink:href="#m15fe37d60b" y="484.419947"/>
      </g>
     </g>
    </g>
    <g id="ytick_16">
     <g id="line2d_51">
      <g>
       <use style="fill:#262626;stroke:#262626;stroke-width:0.5;" x="90" xlink:href="#m15fe37d60b" y="479.877533"/>
      </g>
     </g>
    </g>
    <g id="ytick_17">
     <g id="line2d_52">
      <g>
       <use style="fill:#262626;stroke:#262626;stroke-width:0.5;" x="90" xlink:href="#m15fe37d60b" y="476.166111"/>
      </g>
     </g>
    </g>
    <g id="ytick_18">
     <g id="line2d_53">
      <g>
       <use style="fill:#262626;stroke:#262626;stroke-width:0.5;" x="90" xlink:href="#m15fe37d60b" y="473.028148"/>
      </g>
     </g>
    </g>
    <g id="ytick_19">
     <g id="line2d_54">
      <g>
       <use style="fill:#262626;stroke:#262626;stroke-width:0.5;" x="90" xlink:href="#m15fe37d60b" y="470.309921"/>
      </g>
     </g>
    </g>
    <g id="ytick_20">
     <g id="line2d_55">
      <g>
       <use style="fill:#262626;stroke:#262626;stroke-width:0.5;" x="90" xlink:href="#m15fe37d60b" y="467.912274"/>
      </g>
     </g>
    </g>
    <g id="ytick_21">
     <g id="line2d_56">
      <g>
       <use style="fill:#262626;stroke:#262626;stroke-width:0.5;" x="90" xlink:href="#m15fe37d60b" y="451.65748"/>
      </g>
     </g>
    </g>
    <g id="ytick_22">
     <g id="line2d_57">
      <g>
       <use style="fill:#262626;stroke:#262626;stroke-width:0.5;" x="90" xlink:href="#m15fe37d60b" y="443.403644"/>
      </g>
     </g>
    </g>
    <g id="ytick_23">
     <g id="line2d_58">
      <g>
       <use style="fill:#262626;stroke:#262626;stroke-width:0.5;" x="90" xlink:href="#m15fe37d60b" y="437.547454"/>
      </g>
     </g>
    </g>
    <g id="ytick_24">
     <g id="line2d_59">
      <g>
       <use style="fill:#262626;stroke:#262626;stroke-width:0.5;" x="90" xlink:href="#m15fe37d60b" y="433.00504"/>
      </g>
     </g>
    </g>
    <g id="ytick_25">
     <g id="line2d_60">
      <g>
       <use style="fill:#262626;stroke:#262626;stroke-width:0.5;" x="90" xlink:href="#m15fe37d60b" y="429.293617"/>
      </g>
     </g>
    </g>
    <g id="ytick_26">
     <g id="line2d_61">
      <g>
       <use style="fill:#262626;stroke:#262626;stroke-width:0.5;" x="90" xlink:href="#m15fe37d60b" y="426.155654"/>
      </g>
     </g>
    </g>
    <g id="ytick_27">
     <g id="line2d_62">
      <g>
       <use style="fill:#262626;stroke:#262626;stroke-width:0.5;" x="90" xlink:href="#m15fe37d60b" y="423.437427"/>
      </g>
     </g>
    </g>
    <g id="ytick_28">
     <g id="line2d_63">
      <g>
       <use style="fill:#262626;stroke:#262626;stroke-width:0.5;" x="90" xlink:href="#m15fe37d60b" y="421.039781"/>
      </g>
     </g>
    </g>
    <g id="ytick_29">
     <g id="line2d_64">
      <g>
       <use style="fill:#262626;stroke:#262626;stroke-width:0.5;" x="90" xlink:href="#m15fe37d60b" y="404.784987"/>
      </g>
     </g>
    </g>
    <g id="ytick_30">
     <g id="line2d_65">
      <g>
       <use style="fill:#262626;stroke:#262626;stroke-width:0.5;" x="90" xlink:href="#m15fe37d60b" y="396.53115"/>
      </g>
     </g>
    </g>
    <g id="ytick_31">
     <g id="line2d_66">
      <g>
       <use style="fill:#262626;stroke:#262626;stroke-width:0.5;" x="90" xlink:href="#m15fe37d60b" y="390.67496"/>
      </g>
     </g>
    </g>
    <g id="ytick_32">
     <g id="line2d_67">
      <g>
       <use style="fill:#262626;stroke:#262626;stroke-width:0.5;" x="90" xlink:href="#m15fe37d60b" y="386.132546"/>
      </g>
     </g>
    </g>
    <g id="ytick_33">
     <g id="line2d_68">
      <g>
       <use style="fill:#262626;stroke:#262626;stroke-width:0.5;" x="90" xlink:href="#m15fe37d60b" y="382.421124"/>
      </g>
     </g>
    </g>
    <g id="ytick_34">
     <g id="line2d_69">
      <g>
       <use style="fill:#262626;stroke:#262626;stroke-width:0.5;" x="90" xlink:href="#m15fe37d60b" y="379.283161"/>
      </g>
     </g>
    </g>
    <g id="ytick_35">
     <g id="line2d_70">
      <g>
       <use style="fill:#262626;stroke:#262626;stroke-width:0.5;" x="90" xlink:href="#m15fe37d60b" y="376.564934"/>
      </g>
     </g>
    </g>
    <g id="ytick_36">
     <g id="line2d_71">
      <g>
       <use style="fill:#262626;stroke:#262626;stroke-width:0.5;" x="90" xlink:href="#m15fe37d60b" y="374.167288"/>
      </g>
     </g>
    </g>
    <g id="ytick_37">
     <g id="line2d_72">
      <g>
       <use style="fill:#262626;stroke:#262626;stroke-width:0.5;" x="90" xlink:href="#m15fe37d60b" y="357.912493"/>
      </g>
     </g>
    </g>
    <g id="ytick_38">
     <g id="line2d_73">
      <g>
       <use style="fill:#262626;stroke:#262626;stroke-width:0.5;" x="90" xlink:href="#m15fe37d60b" y="349.658657"/>
      </g>
     </g>
    </g>
    <g id="ytick_39">
     <g id="line2d_74">
      <g>
       <use style="fill:#262626;stroke:#262626;stroke-width:0.5;" x="90" xlink:href="#m15fe37d60b" y="343.802467"/>
      </g>
     </g>
    </g>
    <g id="ytick_40">
     <g id="line2d_75">
      <g>
       <use style="fill:#262626;stroke:#262626;stroke-width:0.5;" x="90" xlink:href="#m15fe37d60b" y="339.260053"/>
      </g>
     </g>
    </g>
    <g id="ytick_41">
     <g id="line2d_76">
      <g>
       <use style="fill:#262626;stroke:#262626;stroke-width:0.5;" x="90" xlink:href="#m15fe37d60b" y="335.548631"/>
      </g>
     </g>
    </g>
    <g id="ytick_42">
     <g id="line2d_77">
      <g>
       <use style="fill:#262626;stroke:#262626;stroke-width:0.5;" x="90" xlink:href="#m15fe37d60b" y="332.410668"/>
      </g>
     </g>
    </g>
    <g id="ytick_43">
     <g id="line2d_78">
      <g>
       <use style="fill:#262626;stroke:#262626;stroke-width:0.5;" x="90" xlink:href="#m15fe37d60b" y="329.69244"/>
      </g>
     </g>
    </g>
    <g id="ytick_44">
     <g id="line2d_79">
      <g>
       <use style="fill:#262626;stroke:#262626;stroke-width:0.5;" x="90" xlink:href="#m15fe37d60b" y="327.294794"/>
      </g>
     </g>
    </g>
    <g id="ytick_45">
     <g id="line2d_80">
      <g>
       <use style="fill:#262626;stroke:#262626;stroke-width:0.5;" x="90" xlink:href="#m15fe37d60b" y="311.04"/>
      </g>
     </g>
    </g>
   </g>
   <g id="line2d_81">
    <path clip-path="url(#p6c3d055503)" d="M -1 363.19135 
L 151.095164 363.200157 
L 206.306812 386.736866 
L 238.603556 394.91782 
L 261.518461 403.594999 
L 279.292642 417.28746 
L 293.815205 360.93804 
L 306.093857 410.777645 
L 316.730109 418.236808 
L 326.111949 416.014935 
L 334.50429 411.042802 
L 342.096086 407.559193 
L 349.026853 374.472613 
L 355.402541 446.344698 
L 361.305505 438.751119 
L 366.801034 427.91372 
L 371.941758 419.840733 
L 376.770725 414.695965 
L 381.323597 375.229758 
L 385.630245 411.350991 
L 389.715939 413.213645 
L 393.602249 408.248827 
L 397.307735 402.432848 
L 400.848476 390.969209 
L 404.238502 355.100804 
L 407.490119 380.385434 
L 410.614189 397.214446 
L 413.620341 404.593484 
L 416.517154 408.203848 
L 419.312303 405.811119 
L 422.012683 386.261526 
L 424.624509 402.932341 
L 427.153406 421.407069 
L 429.604479 431.516536 
L 431.982374 437.229935 
L 434.291335 436.112972 
L 436.535246 413.227966 
L 438.717672 410.072369 
L 440.841893 428.171161 
L 444.927587 446.291823 
L 446.894442 453.096664 
L 448.813898 419.71143 
L 450.688186 396.352212 
L 452.519383 418.543864 
L 454.309426 426.103555 
L 456.060125 431.177554 
L 457.773171 433.324053 
L 459.45015 439.63456 
L 461.09255 419.351334 
L 462.701768 434.288753 
L 464.279118 438.524062 
L 465.825838 439.903882 
L 467.343094 443.260754 
L 468.83199 444.066967 
L 470.293564 436.304574 
L 471.728802 438.191076 
L 473.138637 443.535458 
L 474.523951 445.219357 
L 475.885584 449.258549 
L 477.224331 448.603229 
L 478.540949 441.900919 
L 479.836157 422.771654 
L 481.110642 434.265959 
L 482.365055 440.168594 
L 483.600019 441.969134 
L 484.816127 442.145514 
L 486.013948 444.464678 
L 487.194022 428.237402 
L 488.356869 444.049435 
L 489.502983 448.249887 
L 490.63284 445.776588 
L 491.746894 445.124191 
L 492.845581 444.96539 
L 493.92932 437.47095 
L 494.998512 449.762725 
L 496.053541 452.401877 
L 497.094779 452.171434 
L 498.122582 454.112551 
L 499.137291 453.503388 
L 500.139235 452.06615 
L 501.128734 437.10701 
L 502.10609 450.080982 
L 503.0716 451.571748 
L 504.025546 450.181785 
L 504.968203 455.421688 
L 505.899834 453.687423 
L 506.820695 453.995528 
L 507.731032 455.274616 
L 508.631082 459.54993 
L 509.521075 454.591822 
L 510.401234 455.773204 
L 511.271773 454.152789 
L 512.132901 454.524359 
L 512.984819 451.805984 
L 513.827722 442.284442 
L 514.661799 452.872726 
L 515.487232 455.118626 
L 516.304198 451.672269 
L 517.112871 457.532591 
L 517.913416 454.922728 
L 518.705996 456.912444 
L 520.26788 459.302261 
L 521.037486 452.815825 
L 521.799727 457.792712 
L 522.554743 455.872993 
L 523.302669 458.074454 
L 524.043638 459.573164 
L 524.777778 458.22935 
L 525.505212 457.342187 
L 526.226064 462.929324 
L 526.940451 464.72604 
L 527.648487 460.171247 
L 528.350285 460.430053 
L 529.045954 461.571947 
L 529.7356 463.957376 
L 530.419326 459.775734 
L 531.097232 461.188712 
L 531.769418 461.086476 
L 532.435979 458.31183 
L 533.097009 463.63986 
L 533.752597 460.897855 
L 534.402834 458.877553 
L 535.047806 458.695533 
L 535.687597 464.129335 
L 536.32229 465.488041 
L 536.951966 466.187883 
L 537.576703 460.24154 
L 538.196578 463.648337 
L 538.811667 457.556686 
L 539.422042 464.418577 
L 540.027776 465.458552 
L 540.628938 465.097435 
L 541.225596 460.964397 
L 541.817819 460.818572 
L 542.405671 464.577082 
L 542.989216 463.130576 
L 543.568517 465.807508 
L 544.143636 462.913803 
L 544.714632 464.697185 
L 545.281563 465.553785 
L 545.844488 463.724367 
L 546.403463 463.178249 
L 546.958543 469.524225 
L 547.509781 467.192926 
L 548.05723 467.338304 
L 548.600942 466.255551 
L 549.140969 464.479138 
L 549.677358 460.53028 
L 550.21016 465.293084 
L 550.739422 467.998287 
L 551.26519 466.473197 
L 551.78751 468.746255 
L 552.306428 466.070353 
L 552.821987 467.034725 
L 553.33423 469.302288 
L 553.8432 472.072815 
L 554.348939 465.16711 
L 554.851487 465.242129 
L 555.350884 467.383634 
L 555.847169 464.532461 
L 556.340382 466.506426 
L 556.830559 465.04196 
L 557.317739 464.515054 
L 557.801956 467.942517 
L 558.283248 469.369389 
L 558.76165 464.001556 
L 559.237195 466.125806 
L 559.709918 471.760325 
L 560.179852 462.74665 
L 560.647029 471.226462 
L 561.111483 467.198727 
L 561.573244 464.744546 
L 562.032344 467.11964 
L 562.488812 472.420496 
L 562.94268 464.233602 
L 563.393976 467.232569 
L 563.84273 462.968702 
L 564.28897 470.974385 
L 564.732723 467.973954 
L 565.174019 467.329393 
L 565.612882 474.38406 
L 566.049341 476.098654 
L 566.483422 475.112626 
L 566.91515 470.258507 
L 567.34455 472.833159 
L 567.771648 470.501278 
L 568.196468 471.386891 
L 568.619034 466.898209 
L 569.039371 467.368885 
L 569.457501 468.873368 
L 569.873447 466.797637 
L 570.287233 469.851962 
L 570.69888 469.818673 
L 571.108411 468.740637 
L 571.515847 474.46406 
L 571.921209 469.230626 
L 572.32452 470.927525 
L 572.725798 471.201207 
L 573.125065 468.260143 
L 573.52234 471.027589 
L 573.917644 470.327696 
L 574.310996 468.545772 
L 574.702415 467.403608 
L 575.091919 469.166364 
L 575.479529 467.869876 
L 575.865261 468.33785 
L 576.249135 469.170763 
L 576.631167 473.899614 
L 577.011376 473.669884 
L 577.389778 473.936498 
L 577.766391 470.821167 
L 578.141232 476.687586 
L 578.514318 471.286688 
L 578.885664 476.056803 
L 579.255287 477.139159 
L 579.623202 471.071685 
L 579.989426 468.968513 
L 580.353974 476.242201 
L 580.716861 474.950669 
L 581.078102 476.191495 
L 581.437713 474.89048 
L 581.795707 469.150838 
L 582.506904 475.975968 
L 582.860136 470.245615 
L 583.561934 479.183141 
L 583.910528 475.277521 
L 584.603172 472.288381 
L 584.947248 480.163119 
L 585.289845 472.642195 
L 585.630974 468.184503 
L 585.970649 470.132263 
L 586.308881 466.985825 
L 586.645683 476.163797 
L 586.981067 481.350245 
L 587.315045 471.20966 
L 587.647628 468.59029 
L 587.978828 472.278232 
L 588.308657 474.153909 
L 588.637126 471.647414 
L 589.290028 478.990332 
L 589.614483 469.128365 
L 590.579992 480.354494 
L 590.899246 474.130395 
L 591.217224 476.588692 
L 591.849399 474.932862 
L 592.163614 475.940583 
L 592.476596 475.327469 
L 592.788352 471.341073 
L 593.098892 478.223522 
L 593.408227 473.468112 
L 593.716365 483.042558 
L 594.329088 471.421374 
L 594.633691 472.153124 
L 594.937133 475.74944 
L 595.239424 483.145218 
L 595.540572 477.432567 
L 595.840586 480.368433 
L 596.139474 469.3121 
L 596.437245 480.87876 
L 596.733906 479.138663 
L 597.029467 474.152191 
L 597.323936 472.364305 
L 597.617319 476.519303 
L 597.909626 478.911863 
L 598.200864 485.162255 
L 598.491042 473.155171 
L 599.068244 480.298493 
L 599.355284 489.059548 
L 599.641294 478.836484 
L 599.92628 485.756112 
L 600.493212 468.473645 
L 600.775172 475.214758 
L 601.056137 485.443819 
L 601.336115 476.631031 
L 601.615112 479.846926 
L 601.893135 478.896782 
L 602.170191 472.011343 
L 602.446287 482.175048 
L 602.721429 468.804779 
L 602.995624 479.521195 
L 603.268878 477.653569 
L 603.541199 482.55269 
L 603.812591 472.222261 
L 604.083062 480.810101 
L 604.352617 479.183715 
L 604.621264 475.506893 
L 604.889007 476.871571 
L 605.155853 489.274638 
L 605.421809 474.697093 
L 605.686879 479.241878 
L 605.95107 474.673132 
L 606.214388 473.617638 
L 606.476838 483.662986 
L 606.738427 484.114722 
L 606.999159 473.610606 
L 607.25904 476.837448 
L 607.776273 477.78794 
L 608.033635 480.896353 
L 608.290169 475.711604 
L 608.545879 478.739091 
L 609.054849 469.095345 
L 609.308119 486.715786 
L 609.560587 474.498441 
L 610.063135 481.966242 
L 610.313225 477.248598 
L 610.562532 476.856656 
L 610.811062 477.730735 
L 611.058818 489.355873 
L 611.305806 492.714513 
L 611.55203 492.86685 
L 611.797496 476.445328 
L 612.042208 482.201054 
L 612.28617 480.275431 
L 612.529387 474.710251 
L 612.771864 479.012856 
L 613.254614 473.268113 
L 613.494897 480.227654 
L 613.734457 482.781779 
L 613.973298 481.685108 
L 614.211426 481.920214 
L 614.448843 492.392259 
L 614.685555 477.4646 
L 614.921566 480.562603 
L 615.15688 470.939751 
L 615.3915 478.353009 
L 615.625431 475.54226 
L 615.858678 474.91121 
L 616.091243 479.066258 
L 616.323131 502.003489 
L 616.554347 474.332591 
L 616.784892 491.220143 
L 617.014773 476.889011 
L 617.243992 476.740613 
L 617.472553 473.570303 
L 617.700461 482.749109 
L 617.927718 474.549728 
L 618.154329 475.057291 
L 618.605625 494.687463 
L 618.830318 480.233914 
L 619.054379 480.211393 
L 619.277811 482.948005 
L 619.500618 474.874626 
L 619.722804 478.114436 
L 619.944372 475.491274 
L 620.165325 484.151226 
L 620.385667 499.587555 
L 620.824531 482.612448 
L 621.043059 476.123723 
L 621.26099 491.501671 
L 621.478326 475.76497 
L 621.69507 478.805301 
L 622.126798 490.029987 
L 622.341787 484.648714 
L 622.556198 482.734509 
L 622.770034 485.588633 
L 622.983296 474.356866 
L 623.195989 481.38155 
L 623.408116 483.844708 
L 623.61968 481.983525 
L 623.830683 497.560291 
L 624.041128 479.787313 
L 624.251019 482.590144 
L 624.460358 473.759212 
L 624.669149 472.319505 
L 624.877394 484.923431 
L 625.085096 488.313643 
L 625.292257 477.745022 
L 625.498881 483.895724 
L 625.704971 478.161358 
L 625.910528 477.396138 
L 626.115557 477.114692 
L 626.320059 488.366033 
L 626.524038 477.256569 
L 626.727495 484.300126 
L 626.930435 468.313319 
L 627.132858 476.817725 
L 627.334768 479.730651 
L 627.536168 477.165859 
L 627.73706 485.014791 
L 627.937446 487.877811 
L 628.13733 475.956538 
L 628.336713 493.038757 
L 628.535599 479.305326 
L 628.733989 475.837397 
L 628.931886 480.599046 
L 629.129293 473.333213 
L 629.326211 488.900485 
L 629.522644 476.942087 
L 629.718594 481.664893 
L 629.914063 478.580713 
L 630.109054 480.222141 
L 630.303568 475.931308 
L 630.497608 481.609982 
L 630.691177 483.804154 
L 630.884277 488.974536 
L 631.07691 475.609208 
L 631.269078 490.530317 
L 631.460783 488.188049 
L 631.652028 475.327671 
L 632.033146 482.396523 
L 632.223024 480.798449 
L 632.41245 491.12834 
L 632.601426 485.996134 
L 632.789956 489.268247 
L 632.97804 478.597048 
L 633.165681 488.15731 
L 633.539642 475.620996 
L 633.725966 483.141722 
L 633.911856 481.297122 
L 634.097312 495.277353 
L 634.282338 491.649445 
L 634.466935 485.761871 
L 634.651105 483.951177 
L 634.83485 477.547286 
L 635.018173 489.92342 
L 635.201074 481.537839 
L 635.383557 486.000308 
L 635.565622 507.363805 
L 635.747272 483.397073 
L 635.928509 483.962205 
L 636.109335 482.143974 
L 636.289751 477.567926 
L 636.469759 490.056781 
L 636.649361 484.302187 
L 636.828559 489.190312 
L 637.185751 471.868426 
L 637.541348 492.034109 
L 637.718553 481.893584 
L 637.895364 487.612391 
L 638.247814 477.5903 
L 638.423456 482.994235 
L 638.598712 484.402901 
L 638.773582 489.345586 
L 638.94807 490.584321 
L 639.122176 490.442468 
L 639.295903 507.761781 
L 639.469251 484.280996 
L 639.642223 480.380036 
L 639.81482 488.362514 
L 640.158897 473.996935 
L 640.501493 478.622985 
L 640.67224 478.43447 
L 640.842622 472.6271 
L 641.012641 486.850129 
L 641.182297 485.295413 
L 641.351593 478.668687 
L 641.520529 481.892492 
L 641.689108 477.26957 
L 641.857331 482.453274 
L 642.192715 476.428546 
L 642.526693 494.925186 
L 642.693158 476.166997 
L 642.859276 486.525924 
L 643.190477 477.677544 
L 643.355562 511.228134 
L 643.520306 503.457924 
L 643.848774 474.161337 
L 644.012502 475.864455 
L 644.338952 487.897652 
L 644.501676 480.685753 
L 644.664069 481.569459 
L 644.826131 486.384204 
L 644.987864 478.547145 
L 645.14927 485.176464 
L 645.310349 481.999524 
L 645.471103 475.384995 
L 645.631533 479.990701 
L 645.791641 490.239873 
L 645.951427 478.002368 
L 646.110894 475.146322 
L 646.428873 494.573912 
L 646.587387 479.200526 
L 646.745587 484.074031 
L 646.903473 480.071422 
L 647.061047 482.652302 
L 647.21831 489.584466 
L 647.531907 480.176708 
L 647.688244 485.448756 
L 647.844274 475.68536 
L 647.844274 475.68536 
" style="fill:none;stroke:#b22222;stroke-linecap:round;stroke-width:1.75;"/>
   </g>
   <g id="patch_6">
    <path d="M 90 512.64 
L 90 311.04 
" style="fill:none;stroke:#262626;stroke-linecap:square;stroke-linejoin:miter;stroke-width:1.25;"/>
   </g>
   <g id="patch_7">
    <path d="M 90 512.64 
L 648 512.64 
" style="fill:none;stroke:#262626;stroke-linecap:square;stroke-linejoin:miter;stroke-width:1.25;"/>
   </g>
  </g>
 </g>
 <defs>
  <clipPath id="pcb677d40e5">
   <rect height="201.6" width="558" x="90" y="69.12"/>
  </clipPath>
  <clipPath id="p6c3d055503">
   <rect height="201.6" width="558" x="90" y="311.04"/>
  </clipPath>
 </defs>
</svg>
