<?xml version="1.0" encoding="utf-8" standalone="no"?>
<!DOCTYPE svg PUBLIC "-//W3C//DTD SVG 1.1//EN"
  "http://www.w3.org/Graphics/SVG/1.1/DTD/svg11.dtd">
<!-- Created with matplotlib (http://matplotlib.org/) -->
<svg height="576pt" version="1.1" viewBox="0 0 720 576" width="720pt" xmlns="http://www.w3.org/2000/svg" xmlns:xlink="http://www.w3.org/1999/xlink">
 <defs>
  <style type="text/css">
*{stroke-linecap:butt;stroke-linejoin:round;}
  </style>
 </defs>
 <g id="figure_1">
  <g id="patch_1">
   <path d="M 0 576 
L 720 576 
L 720 0 
L 0 0 
z
" style="fill:#ffffff;"/>
  </g>
  <g id="axes_1">
   <g id="patch_2">
    <path d="M 90 270.72 
L 648 270.72 
L 648 69.12 
L 90 69.12 
z
" style="fill:#ffffff;"/>
   </g>
   <g id="matplotlib.axis_1">
    <g id="xtick_1">
     <g id="line2d_1">
      <defs>
       <path d="M 0 0 
L 0 6 
" id="mc7d80f5f46" style="stroke:#262626;"/>
      </defs>
      <g>
       <use style="fill:#262626;stroke:#262626;" x="90" xlink:href="#mc7d80f5f46" y="270.72"/>
      </g>
     </g>
     <g id="text_1">
      <!-- 0 -->
      <defs>
       <path d="M 4.15625 35.296875 
Q 4.15625 48 6.765625 55.734375 
Q 9.375 63.484375 14.515625 67.671875 
Q 19.671875 71.875 27.484375 71.875 
Q 33.25 71.875 37.59375 69.546875 
Q 41.9375 67.234375 44.765625 62.859375 
Q 47.609375 58.5 49.21875 52.21875 
Q 50.828125 45.953125 50.828125 35.296875 
Q 50.828125 22.703125 48.234375 14.96875 
Q 45.65625 7.234375 40.5 3 
Q 35.359375 -1.21875 27.484375 -1.21875 
Q 17.140625 -1.21875 11.234375 6.203125 
Q 4.15625 15.140625 4.15625 35.296875 
z
M 13.1875 35.296875 
Q 13.1875 17.671875 17.3125 11.828125 
Q 21.4375 6 27.484375 6 
Q 33.546875 6 37.671875 11.859375 
Q 41.796875 17.71875 41.796875 35.296875 
Q 41.796875 52.984375 37.671875 58.78125 
Q 33.546875 64.59375 27.390625 64.59375 
Q 21.34375 64.59375 17.71875 59.46875 
Q 13.1875 52.9375 13.1875 35.296875 
z
" id="ArialMT-30"/>
      </defs>
      <g style="fill:#262626;" transform="translate(87.219531 290.877812)scale(0.1 -0.1)">
       <use xlink:href="#ArialMT-30"/>
      </g>
     </g>
    </g>
    <g id="xtick_2">
     <g id="line2d_2">
      <g>
       <use style="fill:#262626;stroke:#262626;" x="198.984375" xlink:href="#mc7d80f5f46" y="270.72"/>
      </g>
     </g>
     <g id="text_2">
      <!-- 200 -->
      <defs>
       <path d="M 50.34375 8.453125 
L 50.34375 0 
L 3.03125 0 
Q 2.9375 3.171875 4.046875 6.109375 
Q 5.859375 10.9375 9.828125 15.625 
Q 13.8125 20.3125 21.34375 26.46875 
Q 33.015625 36.03125 37.109375 41.625 
Q 41.21875 47.21875 41.21875 52.203125 
Q 41.21875 57.421875 37.46875 61 
Q 33.734375 64.59375 27.734375 64.59375 
Q 21.390625 64.59375 17.578125 60.78125 
Q 13.765625 56.984375 13.71875 50.25 
L 4.6875 51.171875 
Q 5.609375 61.28125 11.65625 66.578125 
Q 17.71875 71.875 27.9375 71.875 
Q 38.234375 71.875 44.234375 66.15625 
Q 50.25 60.453125 50.25 52 
Q 50.25 47.703125 48.484375 43.546875 
Q 46.734375 39.40625 42.65625 34.8125 
Q 38.578125 30.21875 29.109375 22.21875 
Q 21.1875 15.578125 18.9375 13.203125 
Q 16.703125 10.84375 15.234375 8.453125 
z
" id="ArialMT-32"/>
      </defs>
      <g style="fill:#262626;" transform="translate(190.642969 290.877812)scale(0.1 -0.1)">
       <use xlink:href="#ArialMT-32"/>
       <use x="55.615234" xlink:href="#ArialMT-30"/>
       <use x="111.230469" xlink:href="#ArialMT-30"/>
      </g>
     </g>
    </g>
    <g id="xtick_3">
     <g id="line2d_3">
      <g>
       <use style="fill:#262626;stroke:#262626;" x="307.96875" xlink:href="#mc7d80f5f46" y="270.72"/>
      </g>
     </g>
     <g id="text_3">
      <!-- 400 -->
      <defs>
       <path d="M 32.328125 0 
L 32.328125 17.140625 
L 1.265625 17.140625 
L 1.265625 25.203125 
L 33.9375 71.578125 
L 41.109375 71.578125 
L 41.109375 25.203125 
L 50.78125 25.203125 
L 50.78125 17.140625 
L 41.109375 17.140625 
L 41.109375 0 
z
M 32.328125 25.203125 
L 32.328125 57.46875 
L 9.90625 25.203125 
z
" id="ArialMT-34"/>
      </defs>
      <g style="fill:#262626;" transform="translate(299.627344 290.877812)scale(0.1 -0.1)">
       <use xlink:href="#ArialMT-34"/>
       <use x="55.615234" xlink:href="#ArialMT-30"/>
       <use x="111.230469" xlink:href="#ArialMT-30"/>
      </g>
     </g>
    </g>
    <g id="xtick_4">
     <g id="line2d_4">
      <g>
       <use style="fill:#262626;stroke:#262626;" x="416.953125" xlink:href="#mc7d80f5f46" y="270.72"/>
      </g>
     </g>
     <g id="text_4">
      <!-- 600 -->
      <defs>
       <path d="M 49.75 54.046875 
L 41.015625 53.375 
Q 39.84375 58.546875 37.703125 60.890625 
Q 34.125 64.65625 28.90625 64.65625 
Q 24.703125 64.65625 21.53125 62.3125 
Q 17.390625 59.28125 14.984375 53.46875 
Q 12.59375 47.65625 12.5 36.921875 
Q 15.671875 41.75 20.265625 44.09375 
Q 24.859375 46.4375 29.890625 46.4375 
Q 38.671875 46.4375 44.84375 39.96875 
Q 51.03125 33.5 51.03125 23.25 
Q 51.03125 16.5 48.125 10.71875 
Q 45.21875 4.9375 40.140625 1.859375 
Q 35.0625 -1.21875 28.609375 -1.21875 
Q 17.625 -1.21875 10.6875 6.859375 
Q 3.765625 14.9375 3.765625 33.5 
Q 3.765625 54.25 11.421875 63.671875 
Q 18.109375 71.875 29.4375 71.875 
Q 37.890625 71.875 43.28125 67.140625 
Q 48.6875 62.40625 49.75 54.046875 
z
M 13.875 23.1875 
Q 13.875 18.65625 15.796875 14.5 
Q 17.71875 10.359375 21.1875 8.171875 
Q 24.65625 6 28.46875 6 
Q 34.03125 6 38.03125 10.484375 
Q 42.046875 14.984375 42.046875 22.703125 
Q 42.046875 30.125 38.078125 34.390625 
Q 34.125 38.671875 28.125 38.671875 
Q 22.171875 38.671875 18.015625 34.390625 
Q 13.875 30.125 13.875 23.1875 
z
" id="ArialMT-36"/>
      </defs>
      <g style="fill:#262626;" transform="translate(408.611719 290.877812)scale(0.1 -0.1)">
       <use xlink:href="#ArialMT-36"/>
       <use x="55.615234" xlink:href="#ArialMT-30"/>
       <use x="111.230469" xlink:href="#ArialMT-30"/>
      </g>
     </g>
    </g>
    <g id="xtick_5">
     <g id="line2d_5">
      <g>
       <use style="fill:#262626;stroke:#262626;" x="525.9375" xlink:href="#mc7d80f5f46" y="270.72"/>
      </g>
     </g>
     <g id="text_5">
      <!-- 800 -->
      <defs>
       <path d="M 17.671875 38.8125 
Q 12.203125 40.828125 9.5625 44.53125 
Q 6.9375 48.25 6.9375 53.421875 
Q 6.9375 61.234375 12.546875 66.546875 
Q 18.171875 71.875 27.484375 71.875 
Q 36.859375 71.875 42.578125 66.421875 
Q 48.296875 60.984375 48.296875 53.171875 
Q 48.296875 48.1875 45.671875 44.5 
Q 43.0625 40.828125 37.75 38.8125 
Q 44.34375 36.671875 47.78125 31.875 
Q 51.21875 27.09375 51.21875 20.453125 
Q 51.21875 11.28125 44.71875 5.03125 
Q 38.234375 -1.21875 27.640625 -1.21875 
Q 17.046875 -1.21875 10.546875 5.046875 
Q 4.046875 11.328125 4.046875 20.703125 
Q 4.046875 27.6875 7.59375 32.390625 
Q 11.140625 37.109375 17.671875 38.8125 
z
M 15.921875 53.71875 
Q 15.921875 48.640625 19.1875 45.40625 
Q 22.46875 42.1875 27.6875 42.1875 
Q 32.765625 42.1875 36.015625 45.375 
Q 39.265625 48.578125 39.265625 53.21875 
Q 39.265625 58.0625 35.90625 61.359375 
Q 32.5625 64.65625 27.59375 64.65625 
Q 22.5625 64.65625 19.234375 61.421875 
Q 15.921875 58.203125 15.921875 53.71875 
z
M 13.09375 20.65625 
Q 13.09375 16.890625 14.875 13.375 
Q 16.65625 9.859375 20.171875 7.921875 
Q 23.6875 6 27.734375 6 
Q 34.03125 6 38.125 10.046875 
Q 42.234375 14.109375 42.234375 20.359375 
Q 42.234375 26.703125 38.015625 30.859375 
Q 33.796875 35.015625 27.4375 35.015625 
Q 21.234375 35.015625 17.15625 30.90625 
Q 13.09375 26.8125 13.09375 20.65625 
z
" id="ArialMT-38"/>
      </defs>
      <g style="fill:#262626;" transform="translate(517.596094 290.877812)scale(0.1 -0.1)">
       <use xlink:href="#ArialMT-38"/>
       <use x="55.615234" xlink:href="#ArialMT-30"/>
       <use x="111.230469" xlink:href="#ArialMT-30"/>
      </g>
     </g>
    </g>
    <g id="xtick_6">
     <g id="line2d_6">
      <g>
       <use style="fill:#262626;stroke:#262626;" x="634.921875" xlink:href="#mc7d80f5f46" y="270.72"/>
      </g>
     </g>
     <g id="text_6">
      <!-- 1000 -->
      <defs>
       <path d="M 37.25 0 
L 28.46875 0 
L 28.46875 56 
Q 25.296875 52.984375 20.140625 49.953125 
Q 14.984375 46.921875 10.890625 45.40625 
L 10.890625 53.90625 
Q 18.265625 57.375 23.78125 62.296875 
Q 29.296875 67.234375 31.59375 71.875 
L 37.25 71.875 
z
" id="ArialMT-31"/>
      </defs>
      <g style="fill:#262626;" transform="translate(623.8 290.877812)scale(0.1 -0.1)">
       <use xlink:href="#ArialMT-31"/>
       <use x="55.615234" xlink:href="#ArialMT-30"/>
       <use x="111.230469" xlink:href="#ArialMT-30"/>
       <use x="166.845703" xlink:href="#ArialMT-30"/>
      </g>
     </g>
    </g>
   </g>
   <g id="matplotlib.axis_2">
    <g id="ytick_1">
     <g id="line2d_7">
      <defs>
       <path d="M 0 0 
L -6 0 
" id="maf0536565c" style="stroke:#262626;"/>
      </defs>
      <g>
       <use style="fill:#262626;stroke:#262626;" x="90" xlink:href="#maf0536565c" y="270.72"/>
      </g>
     </g>
     <g id="text_7">
      <!-- −0.6 -->
      <defs>
       <path d="M 52.828125 31.203125 
L 5.5625 31.203125 
L 5.5625 39.40625 
L 52.828125 39.40625 
z
" id="ArialMT-2212"/>
       <path d="M 9.078125 0 
L 9.078125 10.015625 
L 19.09375 10.015625 
L 19.09375 0 
z
" id="ArialMT-2e"/>
      </defs>
      <g style="fill:#262626;" transform="translate(57.259375 274.298906)scale(0.1 -0.1)">
       <use xlink:href="#ArialMT-2212"/>
       <use x="58.398438" xlink:href="#ArialMT-30"/>
       <use x="114.013672" xlink:href="#ArialMT-2e"/>
       <use x="141.796875" xlink:href="#ArialMT-36"/>
      </g>
     </g>
    </g>
    <g id="ytick_2">
     <g id="line2d_8">
      <g>
       <use style="fill:#262626;stroke:#262626;" x="90" xlink:href="#maf0536565c" y="237.12"/>
      </g>
     </g>
     <g id="text_8">
      <!-- −0.4 -->
      <g style="fill:#262626;" transform="translate(57.259375 240.698906)scale(0.1 -0.1)">
       <use xlink:href="#ArialMT-2212"/>
       <use x="58.398438" xlink:href="#ArialMT-30"/>
       <use x="114.013672" xlink:href="#ArialMT-2e"/>
       <use x="141.796875" xlink:href="#ArialMT-34"/>
      </g>
     </g>
    </g>
    <g id="ytick_3">
     <g id="line2d_9">
      <g>
       <use style="fill:#262626;stroke:#262626;" x="90" xlink:href="#maf0536565c" y="203.52"/>
      </g>
     </g>
     <g id="text_9">
      <!-- −0.2 -->
      <g style="fill:#262626;" transform="translate(57.259375 207.098906)scale(0.1 -0.1)">
       <use xlink:href="#ArialMT-2212"/>
       <use x="58.398438" xlink:href="#ArialMT-30"/>
       <use x="114.013672" xlink:href="#ArialMT-2e"/>
       <use x="141.796875" xlink:href="#ArialMT-32"/>
      </g>
     </g>
    </g>
    <g id="ytick_4">
     <g id="line2d_10">
      <g>
       <use style="fill:#262626;stroke:#262626;" x="90" xlink:href="#maf0536565c" y="169.92"/>
      </g>
     </g>
     <g id="text_10">
      <!-- 0.0 -->
      <g style="fill:#262626;" transform="translate(63.1 173.498906)scale(0.1 -0.1)">
       <use xlink:href="#ArialMT-30"/>
       <use x="55.615234" xlink:href="#ArialMT-2e"/>
       <use x="83.398438" xlink:href="#ArialMT-30"/>
      </g>
     </g>
    </g>
    <g id="ytick_5">
     <g id="line2d_11">
      <g>
       <use style="fill:#262626;stroke:#262626;" x="90" xlink:href="#maf0536565c" y="136.32"/>
      </g>
     </g>
     <g id="text_11">
      <!-- 0.2 -->
      <g style="fill:#262626;" transform="translate(63.1 139.898906)scale(0.1 -0.1)">
       <use xlink:href="#ArialMT-30"/>
       <use x="55.615234" xlink:href="#ArialMT-2e"/>
       <use x="83.398438" xlink:href="#ArialMT-32"/>
      </g>
     </g>
    </g>
    <g id="ytick_6">
     <g id="line2d_12">
      <g>
       <use style="fill:#262626;stroke:#262626;" x="90" xlink:href="#maf0536565c" y="102.72"/>
      </g>
     </g>
     <g id="text_12">
      <!-- 0.4 -->
      <g style="fill:#262626;" transform="translate(63.1 106.298906)scale(0.1 -0.1)">
       <use xlink:href="#ArialMT-30"/>
       <use x="55.615234" xlink:href="#ArialMT-2e"/>
       <use x="83.398438" xlink:href="#ArialMT-34"/>
      </g>
     </g>
    </g>
    <g id="ytick_7">
     <g id="line2d_13">
      <g>
       <use style="fill:#262626;stroke:#262626;" x="90" xlink:href="#maf0536565c" y="69.12"/>
      </g>
     </g>
     <g id="text_13">
      <!-- 0.6 -->
      <g style="fill:#262626;" transform="translate(63.1 72.698906)scale(0.1 -0.1)">
       <use xlink:href="#ArialMT-30"/>
       <use x="55.615234" xlink:href="#ArialMT-2e"/>
       <use x="83.398438" xlink:href="#ArialMT-36"/>
      </g>
     </g>
    </g>
   </g>
   <g id="line2d_14">
    <path clip-path="url(#pb1686bf42c)" d="M 90 179.686846 
L 91.634766 176.287676 
L 94.904297 167.238604 
L 95.994141 164.875078 
L 96.539062 164.213701 
L 97.083984 163.249834 
L 98.173828 161.891191 
L 99.263672 161.03499 
L 100.898438 160.065996 
L 101.443359 160.148027 
L 101.988281 160.107012 
L 102.533203 160.527422 
L 103.623047 161.901445 
L 104.712891 164.664873 
L 105.802734 168.458818 
L 107.982422 176.831133 
L 109.617188 182.101641 
L 110.162109 183.342363 
L 110.707031 184.870195 
L 111.796875 187.008135 
L 112.341797 187.859209 
L 112.886719 188.371904 
L 113.431641 188.556475 
L 114.521484 188.069414 
L 115.611328 186.331377 
L 116.701172 183.593584 
L 117.791016 180.717363 
L 119.970703 174.662432 
L 121.605469 171.493975 
L 122.150391 170.463457 
L 123.240234 169.904619 
L 123.785156 169.925127 
L 124.875 170.607012 
L 125.964844 172.211748 
L 126.509766 173.103838 
L 129.234375 179.676592 
L 129.779297 180.558428 
L 131.414062 183.803789 
L 132.503906 185.382891 
L 133.048828 185.85457 
L 134.138672 186.495439 
L 135.228516 186.505693 
L 136.318359 185.752031 
L 137.953125 182.722002 
L 139.587891 178.917803 
L 142.3125 171.196611 
L 142.857422 169.73543 
L 144.492188 166.438799 
L 146.126953 164.844316 
L 146.671875 164.793047 
L 147.761719 165.008379 
L 148.306641 165.413408 
L 148.851562 166.028643 
L 149.396484 166.397783 
L 152.121094 169.730303 
L 152.666016 170.125078 
L 153.755859 170.545488 
L 156.480469 170.027666 
L 157.025391 169.638018 
L 159.205078 169.294512 
L 160.294922 169.253496 
L 160.839844 169.432939 
L 161.384766 169.361162 
L 161.929688 169.089434 
L 162.474609 169.104814 
L 163.564453 168.176836 
L 164.109375 167.489824 
L 164.654297 166.987383 
L 165.199219 166.213213 
L 165.744141 165.695391 
L 167.923828 162.814043 
L 168.46875 162.275713 
L 169.558594 161.732256 
L 170.103516 161.50667 
L 171.193359 161.50667 
L 172.283203 161.880937 
L 172.828125 162.198809 
L 173.373047 162.875566 
L 174.462891 164.78792 
L 177.1875 170.109697 
L 177.732422 171.083818 
L 178.277344 172.370684 
L 179.367188 173.601152 
L 179.912109 173.580645 
L 180.457031 173.893389 
L 181.001953 173.729326 
L 182.091797 172.334795 
L 182.636719 171.555498 
L 185.361328 164.480303 
L 187.541016 160.02498 
L 188.085938 158.850908 
L 188.630859 158.071611 
L 189.720703 156.251543 
L 190.265625 155.569658 
L 191.355469 153.739336 
L 191.900391 152.954912 
L 193.535156 152.180742 
L 194.625 153.216387 
L 195.169922 154.087969 
L 195.714844 155.374834 
L 196.259766 156.297686 
L 199.529297 166.664385 
L 201.708984 174.134355 
L 203.34375 178.45125 
L 204.433594 180.194414 
L 206.068359 180.568682 
L 206.613281 180.112383 
L 207.703125 178.482012 
L 210.972656 170.417314 
L 212.0625 167.787187 
L 213.152344 165.244219 
L 214.787109 163.254961 
L 215.332031 163.126787 
L 216.421875 163.362627 
L 218.056641 165.582598 
L 218.601562 166.828447 
L 219.146484 167.741045 
L 220.236328 170.022539 
L 220.78125 171.411943 
L 221.326172 172.437334 
L 222.416016 174.929033 
L 222.960938 176.149248 
L 224.595703 178.75374 
L 225.140625 179.604814 
L 225.685547 179.809893 
L 226.775391 180.061113 
L 227.865234 179.492021 
L 228.955078 177.969316 
L 229.5 177.19002 
L 232.224609 170.704424 
L 232.769531 168.868975 
L 234.949219 163.460039 
L 236.583984 160.230059 
L 237.128906 159.732744 
L 237.673828 158.861162 
L 238.21875 158.876543 
L 238.763672 158.620195 
L 239.308594 158.6971 
L 239.853516 159.127764 
L 240.398438 159.271318 
L 240.943359 159.855791 
L 241.488281 160.655596 
L 242.033203 161.199053 
L 243.123047 162.552568 
L 243.667969 163.096025 
L 244.212891 163.321611 
L 244.757812 163.772783 
L 246.392578 164.034258 
L 247.482422 163.747148 
L 248.572266 163.767656 
L 249.117188 163.506182 
L 249.662109 163.439531 
L 250.207031 163.490801 
L 250.751953 163.818926 
L 252.931641 164.500811 
L 254.566406 163.608721 
L 255.111328 162.839678 
L 255.65625 162.588457 
L 256.201172 161.845049 
L 257.291016 160.860674 
L 257.835938 159.72249 
L 258.380859 159.373857 
L 259.470703 157.892168 
L 260.015625 157.225664 
L 261.650391 155.938799 
L 262.195312 155.595293 
L 262.740234 155.53377 
L 263.285156 155.790117 
L 263.830078 155.687578 
L 264.375 156.302812 
L 264.919922 156.712969 
L 265.464844 157.302568 
L 266.009766 158.415117 
L 266.554688 158.784258 
L 267.099609 160.26082 
L 268.189453 162.624346 
L 270.369141 167.464189 
L 270.914062 168.243486 
L 271.458984 168.751055 
L 272.003906 168.848467 
L 272.548828 168.361406 
L 273.09375 168.146074 
L 273.638672 167.156572 
L 274.183594 166.397783 
L 274.728516 165.239092 
L 275.273438 164.352129 
L 275.818359 162.926836 
L 277.453125 159.517412 
L 277.998047 158.774004 
L 280.177734 154.098223 
L 282.902344 148.453447 
L 283.447266 147.684404 
L 285.082031 146.787187 
L 285.626953 146.828203 
L 286.716797 147.879229 
L 287.806641 149.801836 
L 288.351562 151.339922 
L 288.896484 152.544756 
L 290.53125 157.80501 
L 292.710938 165.926104 
L 294.345703 171.058184 
L 295.435547 173.79085 
L 295.980469 174.426592 
L 296.525391 175.267412 
L 297.070312 175.723711 
L 298.160156 175.636553 
L 299.25 174.713701 
L 299.794922 173.652422 
L 300.339844 172.924395 
L 301.429688 170.268633 
L 303.064453 165.398027 
L 304.154297 162.573076 
L 304.699219 161.332354 
L 305.244141 160.368486 
L 306.878906 158.640703 
L 307.423828 158.599687 
L 307.96875 158.727861 
L 309.058594 159.394365 
L 309.603516 159.994219 
L 310.693359 161.593828 
L 311.783203 163.936846 
L 315.052734 170.986406 
L 316.6875 173.667803 
L 317.232422 174.431719 
L 317.777344 174.688066 
L 318.867188 174.903398 
L 319.412109 174.667559 
L 320.501953 173.770342 
L 321.591797 171.899004 
L 324.316406 165.505693 
L 324.861328 163.439531 
L 325.40625 162.291094 
L 326.496094 159.122637 
L 327.585938 156.507891 
L 328.675781 154.631426 
L 329.765625 153.477861 
L 330.310547 153.144609 
L 330.855469 152.944658 
L 331.945312 153.585527 
L 334.669922 156.2054 
L 335.759766 156.91292 
L 336.304688 157.153887 
L 336.849609 157.251299 
L 337.394531 157.066729 
L 337.939453 157.256426 
L 338.484375 157.312822 
L 339.029297 157.246172 
L 339.574219 157.435869 
L 340.119141 157.39998 
L 340.664062 157.763994 
L 341.753906 158.138262 
L 342.298828 158.52791 
L 342.84375 158.507402 
L 343.388672 158.743242 
L 343.933594 158.630449 
L 344.478516 158.732988 
L 345.023438 158.533037 
L 345.568359 158.538164 
L 347.203125 157.80501 
L 347.748047 157.092363 
L 348.292969 156.86165 
L 349.927734 154.785234 
L 350.472656 154.087969 
L 352.107422 152.606279 
L 353.197266 151.580889 
L 353.742188 151.329668 
L 354.287109 151.293779 
L 354.832031 150.899004 
L 355.376953 150.975908 
L 355.921875 150.919512 
L 357.011719 152.037187 
L 357.556641 152.73958 
L 360.826172 160.865801 
L 361.371094 161.80916 
L 361.916016 162.978105 
L 362.460938 163.311357 
L 363.005859 163.900957 
L 364.095703 163.665117 
L 365.185547 163.157549 
L 365.730469 162.58333 
L 367.365234 160.383867 
L 367.910156 159.850664 
L 368.455078 158.871416 
L 369 158.148516 
L 374.449219 146.264238 
L 374.994141 145.838701 
L 375.539062 144.946611 
L 376.083984 144.62874 
L 377.71875 144.459551 
L 378.263672 144.777422 
L 379.353516 145.910479 
L 380.443359 148.099687 
L 382.078125 153.062578 
L 384.802734 163.311357 
L 386.4375 168.315264 
L 387.527344 171.135088 
L 388.072266 172.278398 
L 388.617188 173.119219 
L 389.162109 173.442217 
L 389.707031 173.570391 
L 390.251953 173.498613 
L 391.341797 172.304033 
L 394.066406 166.787432 
L 395.15625 164.049639 
L 396.246094 161.634844 
L 397.335938 159.814775 
L 398.425781 158.445879 
L 398.970703 158.399736 
L 399.515625 158.010088 
L 401.150391 158.963701 
L 401.695312 159.317461 
L 403.330078 161.788652 
L 403.875 163.116533 
L 404.419922 164.024004 
L 404.964844 165.51082 
L 406.054688 167.771807 
L 406.599609 169.294512 
L 409.324219 173.421709 
L 410.414062 174.201006 
L 410.958984 174.170244 
L 411.503906 174.283037 
L 412.59375 173.50374 
L 414.228516 170.914629 
L 415.863281 166.87459 
L 418.042969 160.645342 
L 419.132812 157.743486 
L 420.222656 155.544023 
L 420.767578 154.698076 
L 421.3125 154.410967 
L 422.402344 154.11873 
L 426.216797 156.164385 
L 427.306641 156.405352 
L 428.941406 157.174395 
L 429.486328 157.071855 
L 430.03125 157.523027 
L 431.666016 157.75374 
L 433.300781 158.938066 
L 433.845703 158.932939 
L 434.390625 159.614824 
L 434.935547 159.671221 
L 435.480469 160.071123 
L 436.025391 160.317217 
L 437.115234 160.358232 
L 437.660156 160.173662 
L 439.839844 158.768877 
L 440.384766 158.353594 
L 440.929688 158.194658 
L 441.474609 157.497393 
L 443.109375 155.851641 
L 443.654297 155.221025 
L 444.744141 153.600908 
L 445.833984 152.467852 
L 446.378906 152.042314 
L 446.923828 152.026934 
L 448.013672 152.370439 
L 448.558594 153.236895 
L 450.193359 156.569414 
L 451.828125 160.650469 
L 452.373047 161.557939 
L 452.917969 162.75252 
L 453.462891 163.470293 
L 454.007812 164.418779 
L 454.552734 164.628984 
L 455.097656 165.02376 
L 456.732422 165.269854 
L 457.277344 164.890459 
L 458.367188 164.757158 
L 460.001953 162.896074 
L 460.546875 162.055254 
L 462.181641 158.681719 
L 464.361328 154.098223 
L 465.451172 152.011553 
L 467.085938 148.761064 
L 467.630859 148.279131 
L 468.720703 147.161455 
L 469.265625 146.940996 
L 470.355469 147.438311 
L 471.445312 148.97127 
L 473.080078 152.852373 
L 475.259766 159.866045 
L 476.349609 164.075273 
L 477.439453 168.110186 
L 478.529297 171.699053 
L 480.164062 175.185381 
L 480.708984 175.985186 
L 481.253906 176.400469 
L 481.798828 176.579912 
L 482.34375 176.579912 
L 482.888672 176.051836 
L 483.433594 175.754473 
L 483.978516 175.046953 
L 485.068359 173.170488 
L 486.703125 169.514971 
L 487.248047 168.628008 
L 488.337891 166.408037 
L 488.882812 165.695391 
L 489.427734 164.746904 
L 489.972656 164.06502 
L 491.0625 163.229326 
L 491.607422 163.008867 
L 492.697266 163.552324 
L 493.242188 163.988115 
L 494.332031 165.608232 
L 495.421875 167.397539 
L 495.966797 168.884355 
L 497.056641 170.914629 
L 498.691406 174.703447 
L 499.78125 177.046465 
L 501.416016 179.379229 
L 501.960938 179.768877 
L 502.505859 179.963701 
L 503.050781 180.414873 
L 503.595703 180.296953 
L 504.140625 180.061113 
L 504.685547 179.451006 
L 505.230469 179.066484 
L 506.320312 177.102861 
L 506.865234 175.903154 
L 508.5 171.206865 
L 510.134766 166.459307 
L 511.769531 163.019121 
L 513.404297 161.839922 
L 513.949219 161.465654 
L 514.494141 161.275957 
L 515.583984 161.819414 
L 516.128906 161.97835 
L 517.21875 162.716631 
L 517.763672 163.106279 
L 519.943359 163.900957 
L 520.488281 163.941973 
L 521.578125 164.382891 
L 522.123047 164.531572 
L 523.757812 165.423662 
L 524.302734 166.079912 
L 525.392578 166.725908 
L 525.9375 167.289873 
L 527.572266 167.633379 
L 528.117188 167.905107 
L 528.662109 167.828203 
L 529.207031 167.59749 
L 529.751953 167.730791 
L 531.386719 167.64876 
L 532.476562 167.074541 
L 533.566406 166.03377 
L 535.201172 163.526689 
L 536.291016 161.686113 
L 537.380859 160.19417 
L 537.925781 159.830156 
L 538.470703 159.866045 
L 539.015625 160.12752 
L 539.560547 160.563311 
L 540.650391 162.244951 
L 542.285156 165.603105 
L 542.830078 166.997637 
L 543.375 167.776934 
L 543.919922 169.022783 
L 545.009766 170.750566 
L 545.554688 171.324785 
L 546.099609 172.216875 
L 547.734375 174.113848 
L 548.824219 174.441973 
L 549.369141 174.216387 
L 551.003906 173.196123 
L 551.548828 172.401445 
L 552.09375 172.129717 
L 553.183594 170.278887 
L 554.273438 168.515215 
L 558.632812 158.789385 
L 559.177734 157.984453 
L 560.267578 156.887285 
L 560.8125 156.487383 
L 561.357422 156.518145 
L 561.902344 156.354082 
L 562.992188 157.374346 
L 563.537109 158.133135 
L 564.626953 160.465898 
L 566.261719 165.346758 
L 568.441406 173.257646 
L 569.53125 177.420732 
L 571.166016 182.132402 
L 571.710938 183.357744 
L 572.800781 185.090654 
L 573.345703 185.798174 
L 573.890625 185.577715 
L 574.435547 185.644365 
L 574.980469 185.264971 
L 575.525391 185.029131 
L 576.070312 184.085771 
L 577.160156 182.568193 
L 580.974609 174.893145 
L 581.519531 174.144609 
L 582.609375 173.139727 
L 583.699219 172.755205 
L 584.244141 172.867998 
L 585.333984 173.370439 
L 585.878906 173.821611 
L 587.513672 176.60042 
L 589.693359 181.583818 
L 592.417969 186.68001 
L 593.507812 188.320635 
L 594.597656 189.361406 
L 595.142578 189.438311 
L 595.6875 189.848467 
L 596.777344 188.89998 
L 597.322266 188.156572 
L 600.591797 180.132891 
L 601.681641 177.118242 
L 602.771484 174.334307 
L 603.861328 172.683428 
L 604.40625 172.037432 
L 604.951172 171.627275 
L 605.496094 171.519609 
L 606.041016 171.073564 
L 607.675781 171.658037 
L 612.035156 172.61165 
L 612.580078 172.883379 
L 613.125 173.360186 
L 613.669922 173.401201 
L 614.214844 174.062578 
L 616.394531 175.667314 
L 620.208984 177.13875 
L 620.753906 177.164385 
L 621.298828 177.625811 
L 622.388672 177.830889 
L 624.023438 177.641191 
L 625.658203 175.616045 
L 626.203125 174.764971 
L 626.748047 173.421709 
L 627.292969 172.750078 
L 628.382812 170.827471 
L 628.927734 170.704424 
L 629.472656 170.27376 
L 630.017578 170.294268 
L 630.5625 170.555742 
L 631.107422 171.063311 
L 631.652344 171.406816 
L 632.197266 172.098955 
L 632.742188 172.42708 
L 636.556641 179.784258 
L 638.191406 182.009355 
L 638.736328 182.214434 
L 639.28125 182.968096 
L 640.371094 183.460283 
L 640.916016 183.393633 
L 641.460938 183.742266 
L 642.550781 183.429521 
L 643.095703 183.152666 
L 643.640625 182.614336 
L 644.730469 180.983965 
L 646.365234 177.815508 
L 647.455078 175.59041 
L 647.455078 175.59041 
" style="fill:none;stroke:#4c72b0;stroke-linecap:round;stroke-width:1.75;"/>
   </g>
   <g id="patch_3">
    <path d="M 90 270.72 
L 90 69.12 
" style="fill:none;stroke:#262626;stroke-linecap:square;stroke-linejoin:miter;stroke-width:1.25;"/>
   </g>
   <g id="patch_4">
    <path d="M 90 270.72 
L 648 270.72 
" style="fill:none;stroke:#262626;stroke-linecap:square;stroke-linejoin:miter;stroke-width:1.25;"/>
   </g>
  </g>
  <g id="axes_2">
   <g id="patch_5">
    <path d="M 90 512.64 
L 648 512.64 
L 648 311.04 
L 90 311.04 
z
" style="fill:#ffffff;"/>
   </g>
   <g id="matplotlib.axis_3">
    <g id="xtick_7">
     <g id="line2d_15">
      <g>
       <use style="fill:#262626;stroke:#262626;" x="218.197478" xlink:href="#mc7d80f5f46" y="512.64"/>
      </g>
     </g>
     <g id="text_14">
      <!-- $\mathdefault{10^{2}}$ -->
      <g style="fill:#262626;" transform="translate(210.347478 535.9525)scale(0.1 -0.1)">
       <use transform="translate(0 0.99375)" xlink:href="#ArialMT-31"/>
       <use transform="translate(55.615234 0.99375)" xlink:href="#ArialMT-30"/>
       <use transform="translate(112.972813 70.6875)scale(0.7)" xlink:href="#ArialMT-32"/>
      </g>
     </g>
    </g>
    <g id="xtick_8">
     <g id="line2d_16">
      <g>
       <use style="fill:#262626;stroke:#262626;" x="401.606604" xlink:href="#mc7d80f5f46" y="512.64"/>
      </g>
     </g>
     <g id="text_15">
      <!-- $\mathdefault{10^{3}}$ -->
      <defs>
       <path d="M 4.203125 18.890625 
L 12.984375 20.0625 
Q 14.5 12.59375 18.140625 9.296875 
Q 21.78125 6 27 6 
Q 33.203125 6 37.46875 10.296875 
Q 41.75 14.59375 41.75 20.953125 
Q 41.75 27 37.796875 30.921875 
Q 33.84375 34.859375 27.734375 34.859375 
Q 25.25 34.859375 21.53125 33.890625 
L 22.515625 41.609375 
Q 23.390625 41.5 23.921875 41.5 
Q 29.546875 41.5 34.03125 44.421875 
Q 38.53125 47.359375 38.53125 53.46875 
Q 38.53125 58.296875 35.25 61.46875 
Q 31.984375 64.65625 26.8125 64.65625 
Q 21.6875 64.65625 18.265625 61.421875 
Q 14.84375 58.203125 13.875 51.765625 
L 5.078125 53.328125 
Q 6.6875 62.15625 12.390625 67.015625 
Q 18.109375 71.875 26.609375 71.875 
Q 32.46875 71.875 37.390625 69.359375 
Q 42.328125 66.84375 44.9375 62.5 
Q 47.5625 58.15625 47.5625 53.265625 
Q 47.5625 48.640625 45.0625 44.828125 
Q 42.578125 41.015625 37.703125 38.765625 
Q 44.046875 37.3125 47.5625 32.6875 
Q 51.078125 28.078125 51.078125 21.140625 
Q 51.078125 11.765625 44.234375 5.25 
Q 37.40625 -1.265625 26.953125 -1.265625 
Q 17.53125 -1.265625 11.296875 4.34375 
Q 5.078125 9.96875 4.203125 18.890625 
z
" id="ArialMT-33"/>
      </defs>
      <g style="fill:#262626;" transform="translate(393.756604 535.9525)scale(0.1 -0.1)">
       <use transform="translate(0 0.99375)" xlink:href="#ArialMT-31"/>
       <use transform="translate(55.615234 0.99375)" xlink:href="#ArialMT-30"/>
       <use transform="translate(112.972813 70.6875)scale(0.7)" xlink:href="#ArialMT-33"/>
      </g>
     </g>
    </g>
    <g id="xtick_9">
     <g id="line2d_17">
      <g>
       <use style="fill:#262626;stroke:#262626;" x="585.01573" xlink:href="#mc7d80f5f46" y="512.64"/>
      </g>
     </g>
     <g id="text_16">
      <!-- $\mathdefault{10^{4}}$ -->
      <g style="fill:#262626;" transform="translate(577.16573 535.8525)scale(0.1 -0.1)">
       <use transform="translate(0 0.201563)" xlink:href="#ArialMT-31"/>
       <use transform="translate(55.615234 0.201563)" xlink:href="#ArialMT-30"/>
       <use transform="translate(112.972813 69.895313)scale(0.7)" xlink:href="#ArialMT-34"/>
      </g>
     </g>
    </g>
    <g id="xtick_10">
     <g id="line2d_18">
      <defs>
       <path d="M 0 0 
L 0 3 
" id="m497dcd47dc" style="stroke:#262626;stroke-width:0.5;"/>
      </defs>
      <g>
       <use style="fill:#262626;stroke:#262626;stroke-width:0.5;" x="90" xlink:href="#m497dcd47dc" y="512.64"/>
      </g>
     </g>
    </g>
    <g id="xtick_11">
     <g id="line2d_19">
      <g>
       <use style="fill:#262626;stroke:#262626;stroke-width:0.5;" x="122.296744" xlink:href="#m497dcd47dc" y="512.64"/>
      </g>
     </g>
    </g>
    <g id="xtick_12">
     <g id="line2d_20">
      <g>
       <use style="fill:#262626;stroke:#262626;stroke-width:0.5;" x="145.211648" xlink:href="#m497dcd47dc" y="512.64"/>
      </g>
     </g>
    </g>
    <g id="xtick_13">
     <g id="line2d_21">
      <g>
       <use style="fill:#262626;stroke:#262626;stroke-width:0.5;" x="162.985829" xlink:href="#m497dcd47dc" y="512.64"/>
      </g>
     </g>
    </g>
    <g id="xtick_14">
     <g id="line2d_22">
      <g>
       <use style="fill:#262626;stroke:#262626;stroke-width:0.5;" x="177.508392" xlink:href="#m497dcd47dc" y="512.64"/>
      </g>
     </g>
    </g>
    <g id="xtick_15">
     <g id="line2d_23">
      <g>
       <use style="fill:#262626;stroke:#262626;stroke-width:0.5;" x="189.787045" xlink:href="#m497dcd47dc" y="512.64"/>
      </g>
     </g>
    </g>
    <g id="xtick_16">
     <g id="line2d_24">
      <g>
       <use style="fill:#262626;stroke:#262626;stroke-width:0.5;" x="200.423297" xlink:href="#m497dcd47dc" y="512.64"/>
      </g>
     </g>
    </g>
    <g id="xtick_17">
     <g id="line2d_25">
      <g>
       <use style="fill:#262626;stroke:#262626;stroke-width:0.5;" x="209.805136" xlink:href="#m497dcd47dc" y="512.64"/>
      </g>
     </g>
    </g>
    <g id="xtick_18">
     <g id="line2d_26">
      <g>
       <use style="fill:#262626;stroke:#262626;stroke-width:0.5;" x="273.409126" xlink:href="#m497dcd47dc" y="512.64"/>
      </g>
     </g>
    </g>
    <g id="xtick_19">
     <g id="line2d_27">
      <g>
       <use style="fill:#262626;stroke:#262626;stroke-width:0.5;" x="305.70587" xlink:href="#m497dcd47dc" y="512.64"/>
      </g>
     </g>
    </g>
    <g id="xtick_20">
     <g id="line2d_28">
      <g>
       <use style="fill:#262626;stroke:#262626;stroke-width:0.5;" x="328.620775" xlink:href="#m497dcd47dc" y="512.64"/>
      </g>
     </g>
    </g>
    <g id="xtick_21">
     <g id="line2d_29">
      <g>
       <use style="fill:#262626;stroke:#262626;stroke-width:0.5;" x="346.394955" xlink:href="#m497dcd47dc" y="512.64"/>
      </g>
     </g>
    </g>
    <g id="xtick_22">
     <g id="line2d_30">
      <g>
       <use style="fill:#262626;stroke:#262626;stroke-width:0.5;" x="360.917518" xlink:href="#m497dcd47dc" y="512.64"/>
      </g>
     </g>
    </g>
    <g id="xtick_23">
     <g id="line2d_31">
      <g>
       <use style="fill:#262626;stroke:#262626;stroke-width:0.5;" x="373.196171" xlink:href="#m497dcd47dc" y="512.64"/>
      </g>
     </g>
    </g>
    <g id="xtick_24">
     <g id="line2d_32">
      <g>
       <use style="fill:#262626;stroke:#262626;stroke-width:0.5;" x="383.832423" xlink:href="#m497dcd47dc" y="512.64"/>
      </g>
     </g>
    </g>
    <g id="xtick_25">
     <g id="line2d_33">
      <g>
       <use style="fill:#262626;stroke:#262626;stroke-width:0.5;" x="393.214262" xlink:href="#m497dcd47dc" y="512.64"/>
      </g>
     </g>
    </g>
    <g id="xtick_26">
     <g id="line2d_34">
      <g>
       <use style="fill:#262626;stroke:#262626;stroke-width:0.5;" x="456.818252" xlink:href="#m497dcd47dc" y="512.64"/>
      </g>
     </g>
    </g>
    <g id="xtick_27">
     <g id="line2d_35">
      <g>
       <use style="fill:#262626;stroke:#262626;stroke-width:0.5;" x="489.114996" xlink:href="#m497dcd47dc" y="512.64"/>
      </g>
     </g>
    </g>
    <g id="xtick_28">
     <g id="line2d_36">
      <g>
       <use style="fill:#262626;stroke:#262626;stroke-width:0.5;" x="512.029901" xlink:href="#m497dcd47dc" y="512.64"/>
      </g>
     </g>
    </g>
    <g id="xtick_29">
     <g id="line2d_37">
      <g>
       <use style="fill:#262626;stroke:#262626;stroke-width:0.5;" x="529.804081" xlink:href="#m497dcd47dc" y="512.64"/>
      </g>
     </g>
    </g>
    <g id="xtick_30">
     <g id="line2d_38">
      <g>
       <use style="fill:#262626;stroke:#262626;stroke-width:0.5;" x="544.326645" xlink:href="#m497dcd47dc" y="512.64"/>
      </g>
     </g>
    </g>
    <g id="xtick_31">
     <g id="line2d_39">
      <g>
       <use style="fill:#262626;stroke:#262626;stroke-width:0.5;" x="556.605297" xlink:href="#m497dcd47dc" y="512.64"/>
      </g>
     </g>
    </g>
    <g id="xtick_32">
     <g id="line2d_40">
      <g>
       <use style="fill:#262626;stroke:#262626;stroke-width:0.5;" x="567.241549" xlink:href="#m497dcd47dc" y="512.64"/>
      </g>
     </g>
    </g>
    <g id="xtick_33">
     <g id="line2d_41">
      <g>
       <use style="fill:#262626;stroke:#262626;stroke-width:0.5;" x="576.623389" xlink:href="#m497dcd47dc" y="512.64"/>
      </g>
     </g>
    </g>
    <g id="xtick_34">
     <g id="line2d_42">
      <g>
       <use style="fill:#262626;stroke:#262626;stroke-width:0.5;" x="640.227378" xlink:href="#m497dcd47dc" y="512.64"/>
      </g>
     </g>
    </g>
   </g>
   <g id="matplotlib.axis_4">
    <g id="ytick_8">
     <g id="line2d_43">
      <g>
       <use style="fill:#262626;stroke:#262626;" x="90" xlink:href="#maf0536565c" y="512.64"/>
      </g>
     </g>
     <g id="text_17">
      <!-- $\mathdefault{10^{-5}}$ -->
      <defs>
       <path d="M 4.15625 18.75 
L 13.375 19.53125 
Q 14.40625 12.796875 18.140625 9.390625 
Q 21.875 6 27.15625 6 
Q 33.5 6 37.890625 10.78125 
Q 42.28125 15.578125 42.28125 23.484375 
Q 42.28125 31 38.0625 35.34375 
Q 33.84375 39.703125 27 39.703125 
Q 22.75 39.703125 19.328125 37.765625 
Q 15.921875 35.84375 13.96875 32.765625 
L 5.71875 33.84375 
L 12.640625 70.609375 
L 48.25 70.609375 
L 48.25 62.203125 
L 19.671875 62.203125 
L 15.828125 42.96875 
Q 22.265625 47.46875 29.34375 47.46875 
Q 38.71875 47.46875 45.15625 40.96875 
Q 51.609375 34.46875 51.609375 24.265625 
Q 51.609375 14.546875 45.953125 7.46875 
Q 39.0625 -1.21875 27.15625 -1.21875 
Q 17.390625 -1.21875 11.203125 4.25 
Q 5.03125 9.71875 4.15625 18.75 
z
" id="ArialMT-35"/>
      </defs>
      <g style="fill:#262626;" transform="translate(57.2 517.74625)scale(0.1 -0.1)">
       <use transform="translate(0 0.879688)" xlink:href="#ArialMT-31"/>
       <use transform="translate(55.615234 0.879688)" xlink:href="#ArialMT-30"/>
       <use transform="translate(112.972813 70.573438)scale(0.7)" xlink:href="#ArialMT-2212"/>
       <use transform="translate(153.851719 70.573438)scale(0.7)" xlink:href="#ArialMT-35"/>
      </g>
     </g>
    </g>
    <g id="ytick_9">
     <g id="line2d_44">
      <g>
       <use style="fill:#262626;stroke:#262626;" x="90" xlink:href="#maf0536565c" y="465.767507"/>
      </g>
     </g>
     <g id="text_18">
      <!-- $\mathdefault{10^{-4}}$ -->
      <g style="fill:#262626;" transform="translate(57.2 470.873757)scale(0.1 -0.1)">
       <use transform="translate(0 0.201563)" xlink:href="#ArialMT-31"/>
       <use transform="translate(55.615234 0.201563)" xlink:href="#ArialMT-30"/>
       <use transform="translate(112.972813 69.895313)scale(0.7)" xlink:href="#ArialMT-2212"/>
       <use transform="translate(153.851719 69.895313)scale(0.7)" xlink:href="#ArialMT-34"/>
      </g>
     </g>
    </g>
    <g id="ytick_10">
     <g id="line2d_45">
      <g>
       <use style="fill:#262626;stroke:#262626;" x="90" xlink:href="#maf0536565c" y="418.895013"/>
      </g>
     </g>
     <g id="text_19">
      <!-- $\mathdefault{10^{-3}}$ -->
      <g style="fill:#262626;" transform="translate(57.2 424.051263)scale(0.1 -0.1)">
       <use transform="translate(0 0.99375)" xlink:href="#ArialMT-31"/>
       <use transform="translate(55.615234 0.99375)" xlink:href="#ArialMT-30"/>
       <use transform="translate(112.972813 70.6875)scale(0.7)" xlink:href="#ArialMT-2212"/>
       <use transform="translate(153.851719 70.6875)scale(0.7)" xlink:href="#ArialMT-33"/>
      </g>
     </g>
    </g>
    <g id="ytick_11">
     <g id="line2d_46">
      <g>
       <use style="fill:#262626;stroke:#262626;" x="90" xlink:href="#maf0536565c" y="372.02252"/>
      </g>
     </g>
     <g id="text_20">
      <!-- $\mathdefault{10^{-2}}$ -->
      <g style="fill:#262626;" transform="translate(57.2 377.17877)scale(0.1 -0.1)">
       <use transform="translate(0 0.99375)" xlink:href="#ArialMT-31"/>
       <use transform="translate(55.615234 0.99375)" xlink:href="#ArialMT-30"/>
       <use transform="translate(112.972813 70.6875)scale(0.7)" xlink:href="#ArialMT-2212"/>
       <use transform="translate(153.851719 70.6875)scale(0.7)" xlink:href="#ArialMT-32"/>
      </g>
     </g>
    </g>
    <g id="ytick_12">
     <g id="line2d_47">
      <g>
       <use style="fill:#262626;stroke:#262626;" x="90" xlink:href="#maf0536565c" y="325.150026"/>
      </g>
     </g>
     <g id="text_21">
      <!-- $\mathdefault{10^{-1}}$ -->
      <g style="fill:#262626;" transform="translate(57.2 330.306276)scale(0.1 -0.1)">
       <use transform="translate(0 0.99375)" xlink:href="#ArialMT-31"/>
       <use transform="translate(55.615234 0.99375)" xlink:href="#ArialMT-30"/>
       <use transform="translate(112.972813 70.6875)scale(0.7)" xlink:href="#ArialMT-2212"/>
       <use transform="translate(153.851719 70.6875)scale(0.7)" xlink:href="#ArialMT-31"/>
      </g>
     </g>
    </g>
    <g id="ytick_13">
     <g id="line2d_48">
      <defs>
       <path d="M 0 0 
L -3 0 
" id="m71b99f8f5a" style="stroke:#262626;stroke-width:0.5;"/>
      </defs>
      <g>
       <use style="fill:#262626;stroke:#262626;stroke-width:0.5;" x="90" xlink:href="#m71b99f8f5a" y="498.529974"/>
      </g>
     </g>
    </g>
    <g id="ytick_14">
     <g id="line2d_49">
      <g>
       <use style="fill:#262626;stroke:#262626;stroke-width:0.5;" x="90" xlink:href="#m71b99f8f5a" y="490.276137"/>
      </g>
     </g>
    </g>
    <g id="ytick_15">
     <g id="line2d_50">
      <g>
       <use style="fill:#262626;stroke:#262626;stroke-width:0.5;" x="90" xlink:href="#m71b99f8f5a" y="484.419947"/>
      </g>
     </g>
    </g>
    <g id="ytick_16">
     <g id="line2d_51">
      <g>
       <use style="fill:#262626;stroke:#262626;stroke-width:0.5;" x="90" xlink:href="#m71b99f8f5a" y="479.877533"/>
      </g>
     </g>
    </g>
    <g id="ytick_17">
     <g id="line2d_52">
      <g>
       <use style="fill:#262626;stroke:#262626;stroke-width:0.5;" x="90" xlink:href="#m71b99f8f5a" y="476.166111"/>
      </g>
     </g>
    </g>
    <g id="ytick_18">
     <g id="line2d_53">
      <g>
       <use style="fill:#262626;stroke:#262626;stroke-width:0.5;" x="90" xlink:href="#m71b99f8f5a" y="473.028148"/>
      </g>
     </g>
    </g>
    <g id="ytick_19">
     <g id="line2d_54">
      <g>
       <use style="fill:#262626;stroke:#262626;stroke-width:0.5;" x="90" xlink:href="#m71b99f8f5a" y="470.309921"/>
      </g>
     </g>
    </g>
    <g id="ytick_20">
     <g id="line2d_55">
      <g>
       <use style="fill:#262626;stroke:#262626;stroke-width:0.5;" x="90" xlink:href="#m71b99f8f5a" y="467.912274"/>
      </g>
     </g>
    </g>
    <g id="ytick_21">
     <g id="line2d_56">
      <g>
       <use style="fill:#262626;stroke:#262626;stroke-width:0.5;" x="90" xlink:href="#m71b99f8f5a" y="451.65748"/>
      </g>
     </g>
    </g>
    <g id="ytick_22">
     <g id="line2d_57">
      <g>
       <use style="fill:#262626;stroke:#262626;stroke-width:0.5;" x="90" xlink:href="#m71b99f8f5a" y="443.403644"/>
      </g>
     </g>
    </g>
    <g id="ytick_23">
     <g id="line2d_58">
      <g>
       <use style="fill:#262626;stroke:#262626;stroke-width:0.5;" x="90" xlink:href="#m71b99f8f5a" y="437.547454"/>
      </g>
     </g>
    </g>
    <g id="ytick_24">
     <g id="line2d_59">
      <g>
       <use style="fill:#262626;stroke:#262626;stroke-width:0.5;" x="90" xlink:href="#m71b99f8f5a" y="433.00504"/>
      </g>
     </g>
    </g>
    <g id="ytick_25">
     <g id="line2d_60">
      <g>
       <use style="fill:#262626;stroke:#262626;stroke-width:0.5;" x="90" xlink:href="#m71b99f8f5a" y="429.293617"/>
      </g>
     </g>
    </g>
    <g id="ytick_26">
     <g id="line2d_61">
      <g>
       <use style="fill:#262626;stroke:#262626;stroke-width:0.5;" x="90" xlink:href="#m71b99f8f5a" y="426.155654"/>
      </g>
     </g>
    </g>
    <g id="ytick_27">
     <g id="line2d_62">
      <g>
       <use style="fill:#262626;stroke:#262626;stroke-width:0.5;" x="90" xlink:href="#m71b99f8f5a" y="423.437427"/>
      </g>
     </g>
    </g>
    <g id="ytick_28">
     <g id="line2d_63">
      <g>
       <use style="fill:#262626;stroke:#262626;stroke-width:0.5;" x="90" xlink:href="#m71b99f8f5a" y="421.039781"/>
      </g>
     </g>
    </g>
    <g id="ytick_29">
     <g id="line2d_64">
      <g>
       <use style="fill:#262626;stroke:#262626;stroke-width:0.5;" x="90" xlink:href="#m71b99f8f5a" y="404.784987"/>
      </g>
     </g>
    </g>
    <g id="ytick_30">
     <g id="line2d_65">
      <g>
       <use style="fill:#262626;stroke:#262626;stroke-width:0.5;" x="90" xlink:href="#m71b99f8f5a" y="396.53115"/>
      </g>
     </g>
    </g>
    <g id="ytick_31">
     <g id="line2d_66">
      <g>
       <use style="fill:#262626;stroke:#262626;stroke-width:0.5;" x="90" xlink:href="#m71b99f8f5a" y="390.67496"/>
      </g>
     </g>
    </g>
    <g id="ytick_32">
     <g id="line2d_67">
      <g>
       <use style="fill:#262626;stroke:#262626;stroke-width:0.5;" x="90" xlink:href="#m71b99f8f5a" y="386.132546"/>
      </g>
     </g>
    </g>
    <g id="ytick_33">
     <g id="line2d_68">
      <g>
       <use style="fill:#262626;stroke:#262626;stroke-width:0.5;" x="90" xlink:href="#m71b99f8f5a" y="382.421124"/>
      </g>
     </g>
    </g>
    <g id="ytick_34">
     <g id="line2d_69">
      <g>
       <use style="fill:#262626;stroke:#262626;stroke-width:0.5;" x="90" xlink:href="#m71b99f8f5a" y="379.283161"/>
      </g>
     </g>
    </g>
    <g id="ytick_35">
     <g id="line2d_70">
      <g>
       <use style="fill:#262626;stroke:#262626;stroke-width:0.5;" x="90" xlink:href="#m71b99f8f5a" y="376.564934"/>
      </g>
     </g>
    </g>
    <g id="ytick_36">
     <g id="line2d_71">
      <g>
       <use style="fill:#262626;stroke:#262626;stroke-width:0.5;" x="90" xlink:href="#m71b99f8f5a" y="374.167288"/>
      </g>
     </g>
    </g>
    <g id="ytick_37">
     <g id="line2d_72">
      <g>
       <use style="fill:#262626;stroke:#262626;stroke-width:0.5;" x="90" xlink:href="#m71b99f8f5a" y="357.912493"/>
      </g>
     </g>
    </g>
    <g id="ytick_38">
     <g id="line2d_73">
      <g>
       <use style="fill:#262626;stroke:#262626;stroke-width:0.5;" x="90" xlink:href="#m71b99f8f5a" y="349.658657"/>
      </g>
     </g>
    </g>
    <g id="ytick_39">
     <g id="line2d_74">
      <g>
       <use style="fill:#262626;stroke:#262626;stroke-width:0.5;" x="90" xlink:href="#m71b99f8f5a" y="343.802467"/>
      </g>
     </g>
    </g>
    <g id="ytick_40">
     <g id="line2d_75">
      <g>
       <use style="fill:#262626;stroke:#262626;stroke-width:0.5;" x="90" xlink:href="#m71b99f8f5a" y="339.260053"/>
      </g>
     </g>
    </g>
    <g id="ytick_41">
     <g id="line2d_76">
      <g>
       <use style="fill:#262626;stroke:#262626;stroke-width:0.5;" x="90" xlink:href="#m71b99f8f5a" y="335.548631"/>
      </g>
     </g>
    </g>
    <g id="ytick_42">
     <g id="line2d_77">
      <g>
       <use style="fill:#262626;stroke:#262626;stroke-width:0.5;" x="90" xlink:href="#m71b99f8f5a" y="332.410668"/>
      </g>
     </g>
    </g>
    <g id="ytick_43">
     <g id="line2d_78">
      <g>
       <use style="fill:#262626;stroke:#262626;stroke-width:0.5;" x="90" xlink:href="#m71b99f8f5a" y="329.69244"/>
      </g>
     </g>
    </g>
    <g id="ytick_44">
     <g id="line2d_79">
      <g>
       <use style="fill:#262626;stroke:#262626;stroke-width:0.5;" x="90" xlink:href="#m71b99f8f5a" y="327.294794"/>
      </g>
     </g>
    </g>
    <g id="ytick_45">
     <g id="line2d_80">
      <g>
       <use style="fill:#262626;stroke:#262626;stroke-width:0.5;" x="90" xlink:href="#m71b99f8f5a" y="311.04"/>
      </g>
     </g>
    </g>
   </g>
   <g id="line2d_81">
    <path clip-path="url(#p44057d9544)" d="M -1 353.753361 
L 151.095164 353.749316 
L 206.306812 387.174005 
L 238.603556 401.312118 
L 261.518461 421.311282 
L 279.292642 416.330122 
L 293.815205 362.861124 
L 306.093857 400.822502 
L 316.730109 410.196708 
L 326.111949 411.413241 
L 334.50429 410.571332 
L 342.096086 408.317988 
L 349.026853 370.662205 
L 355.402541 444.416643 
L 361.305505 438.026496 
L 366.801034 427.972146 
L 371.941758 420.048103 
L 376.770725 414.885273 
L 381.323597 379.255982 
L 385.630245 408.289525 
L 389.715939 415.464088 
L 393.602249 409.915033 
L 397.307735 402.271382 
L 400.848476 391.592291 
L 404.238502 356.662464 
L 407.490119 382.068276 
L 410.614189 398.71388 
L 413.620341 408.513985 
L 416.517154 411.669204 
L 419.312303 411.737573 
L 422.012683 389.756988 
L 424.624509 402.542475 
L 427.153406 417.123026 
L 429.604479 423.733103 
L 431.982374 426.061612 
L 434.291335 424.310766 
L 436.535246 409.674185 
L 438.717672 417.157068 
L 440.841893 429.011092 
L 442.910933 433.793247 
L 444.927587 431.88784 
L 446.894442 427.661561 
L 448.813898 414.624814 
L 450.688186 405.229494 
L 452.519383 439.687518 
L 454.309426 446.240222 
L 456.060125 455.132147 
L 457.773171 448.588576 
L 459.45015 451.758269 
L 461.09255 444.486031 
L 462.701768 486.964825 
L 464.279118 467.894704 
L 465.825838 475.034703 
L 467.343094 487.137824 
L 468.83199 475.126931 
L 470.293564 431.481151 
L 471.728802 460.373471 
L 473.138637 473.061989 
L 474.523951 481.339722 
L 475.885584 477.116041 
L 477.224331 465.17724 
L 478.540949 437.480677 
L 479.836157 428.00782 
L 481.110642 451.842655 
L 482.365055 451.93609 
L 483.600019 453.408807 
L 484.816127 455.35659 
L 486.013948 458.113921 
L 487.194022 438.51314 
L 488.356869 458.285775 
L 489.502983 463.164672 
L 491.746894 458.786104 
L 492.845581 457.320108 
L 493.92932 449.305021 
L 494.998512 455.090675 
L 496.053541 462.44484 
L 497.094779 468.52929 
L 498.122582 468.012078 
L 499.137291 472.59231 
L 500.139235 469.448989 
L 501.128734 444.370048 
L 502.10609 467.344442 
L 503.0716 463.669052 
L 504.025546 470.904137 
L 504.968203 470.373753 
L 505.899834 470.625658 
L 506.820695 467.158273 
L 507.731032 483.150202 
L 508.631082 471.688827 
L 509.521075 476.484699 
L 510.401234 477.078619 
L 511.271773 471.207202 
L 512.132901 472.460611 
L 512.984819 456.291282 
L 513.827722 457.160069 
L 514.661799 472.220464 
L 515.487232 469.644654 
L 516.304198 476.826384 
L 517.112871 471.909845 
L 517.913416 472.910517 
L 518.705996 464.771409 
L 519.490766 485.616253 
L 520.26788 473.657052 
L 521.037486 474.491105 
L 521.799727 477.224089 
L 522.554743 476.602647 
L 523.302669 485.740228 
L 524.043638 506.519061 
L 524.777778 485.222211 
L 525.505212 487.934331 
L 526.226064 471.7082 
L 527.648487 481.309238 
L 528.350285 484.76202 
L 529.045954 481.161237 
L 529.7356 484.391404 
L 530.419326 473.126262 
L 531.097232 473.627324 
L 531.769418 477.651689 
L 532.435979 476.982349 
L 533.097009 480.322237 
L 533.752597 477.937869 
L 534.402834 494.981427 
L 535.047806 471.660973 
L 535.687597 482.009488 
L 536.32229 482.188878 
L 536.951966 468.342651 
L 537.576703 484.042931 
L 538.196578 489.327175 
L 538.811667 488.505738 
L 539.422042 484.862988 
L 540.027776 483.499239 
L 540.628938 476.649092 
L 541.225596 483.967808 
L 541.817819 480.503296 
L 542.405671 487.503613 
L 542.989216 488.21633 
L 543.568517 475.638447 
L 544.143636 478.246645 
L 544.714632 474.915832 
L 545.281563 498.623458 
L 545.844488 516.935673 
L 546.403463 495.272878 
L 546.958543 486.647714 
L 547.509781 483.741144 
L 548.05723 479.62766 
L 548.600942 491.954856 
L 549.140969 477.812579 
L 549.677358 488.639501 
L 550.21016 479.342835 
L 550.739422 497.329244 
L 551.26519 487.406243 
L 551.78751 490.443261 
L 552.306428 489.828651 
L 552.821987 491.435391 
L 553.33423 488.763275 
L 553.8432 488.562432 
L 554.348939 477.369908 
L 554.851487 490.179761 
L 555.350884 483.920888 
L 555.847169 482.108376 
L 556.340382 483.416426 
L 556.830559 482.946601 
L 557.317739 486.101404 
L 557.801956 497.569356 
L 558.283248 489.434247 
L 558.76165 493.269425 
L 559.237195 490.038545 
L 559.709918 488.630582 
L 560.179852 488.958308 
L 560.647029 486.865118 
L 561.111483 487.367133 
L 561.573244 479.979934 
L 562.488812 500.45168 
L 562.94268 492.50201 
L 563.393976 480.384789 
L 563.84273 484.269678 
L 564.28897 486.139338 
L 564.732723 484.899945 
L 565.174019 499.885034 
L 565.612882 480.644266 
L 566.049341 498.483636 
L 566.483422 480.785766 
L 566.91515 489.009475 
L 567.34455 488.329903 
L 567.771648 483.513812 
L 568.196468 487.370687 
L 568.619034 487.851096 
L 569.039371 484.411274 
L 569.457501 478.652831 
L 570.287233 497.086231 
L 570.69888 491.123651 
L 571.108411 500.996498 
L 571.515847 496.169057 
L 571.921209 487.46917 
L 572.32452 494.415428 
L 572.725798 482.912651 
L 573.125065 523.776313 
L 573.52234 478.48853 
L 573.917644 484.004495 
L 574.310996 493.853057 
L 574.702415 492.237925 
L 575.091919 482.753849 
L 575.479529 509.771019 
L 575.865261 484.397214 
L 576.249135 501.195164 
L 576.631167 508.466009 
L 577.011376 502.471537 
L 577.389778 491.821498 
L 577.766391 511.034064 
L 578.141232 503.846108 
L 578.885664 485.001577 
L 579.255287 510.968517 
L 579.623202 503.92214 
L 579.989426 503.172305 
L 580.353974 496.055908 
L 580.716861 485.000556 
L 581.078102 492.179633 
L 581.437713 494.12615 
L 581.795707 490.467977 
L 582.152099 504.379599 
L 582.506904 509.91795 
L 582.860136 492.17029 
L 583.211808 488.653938 
L 583.561934 500.919184 
L 583.910528 484.46092 
L 584.257603 497.647612 
L 584.603172 500.372456 
L 584.947248 492.593392 
L 585.289845 487.485928 
L 585.630974 503.526256 
L 585.970649 486.21239 
L 586.308881 482.692101 
L 586.645683 537.595327 
L 586.981067 493.845882 
L 587.315045 477.894878 
L 587.647628 502.754465 
L 587.978828 492.650902 
L 588.308657 512.393768 
L 588.637126 515.711272 
L 588.964246 493.237904 
L 589.290028 490.075763 
L 589.614483 485.576601 
L 589.937621 484.963561 
L 590.259454 490.530649 
L 590.579992 541.961151 
L 590.899246 519.457535 
L 591.217224 487.134562 
L 591.849399 494.916587 
L 592.163614 495.295791 
L 592.476596 507.706031 
L 592.788352 479.941553 
L 593.098892 507.768661 
L 593.408227 508.486459 
L 593.716365 488.693632 
L 594.023315 503.096405 
L 594.329088 480.141797 
L 594.633691 503.174324 
L 594.937133 534.894851 
L 595.239424 484.339234 
L 595.540572 492.265283 
L 595.840586 507.840819 
L 596.139474 503.24937 
L 596.437245 489.803504 
L 597.029467 486.496744 
L 597.323936 494.600195 
L 597.617319 486.65022 
L 597.909626 501.590011 
L 598.200864 491.582191 
L 598.491042 491.003817 
L 598.780166 482.213862 
L 599.068244 490.151765 
L 599.355284 494.474724 
L 599.641294 494.440459 
L 599.92628 518.243127 
L 600.21025 520.074693 
L 600.493212 497.374221 
L 600.775172 496.521398 
L 601.056137 484.506736 
L 601.893135 525.257748 
L 602.170191 492.655695 
L 602.446287 491.029992 
L 602.721429 496.45621 
L 602.995624 494.557643 
L 603.268878 506.046129 
L 603.541199 528.915386 
L 603.812591 493.587581 
L 604.083062 518.398422 
L 604.352617 486.148711 
L 604.621264 489.681186 
L 604.889007 487.342861 
L 605.155853 499.024341 
L 605.421809 498.341735 
L 605.686879 487.704103 
L 605.95107 491.071513 
L 606.476838 520.059632 
L 606.738427 488.671154 
L 606.999159 505.372922 
L 607.25904 504.007548 
L 607.518076 492.244293 
L 607.776273 499.290929 
L 608.033635 509.820901 
L 608.290169 489.482178 
L 608.545879 490.606431 
L 608.80077 494.667292 
L 609.054849 505.844232 
L 609.308119 481.06679 
L 609.560587 483.097778 
L 609.812258 492.7998 
L 610.063135 492.409047 
L 610.313225 502.148681 
L 610.562532 484.547983 
L 610.811062 495.195295 
L 611.058818 512.859705 
L 611.305806 505.015723 
L 611.55203 510.92667 
L 612.042208 490.324065 
L 612.28617 492.026491 
L 612.529387 498.884749 
L 612.771864 490.22158 
L 613.013605 502.450458 
L 613.254614 498.460056 
L 613.494897 512.302496 
L 613.734457 494.113998 
L 613.973298 516.446061 
L 614.211426 491.001 
L 614.448843 513.230986 
L 614.685555 504.451526 
L 615.15688 482.332843 
L 615.3915 516.460206 
L 615.625431 502.396757 
L 615.858678 498.567346 
L 616.091243 488.938386 
L 616.323131 488.565322 
L 616.554347 493.895136 
L 616.784892 517.977406 
L 617.014773 485.922767 
L 617.243992 510.053845 
L 617.700461 480.695027 
L 617.927718 495.770157 
L 618.154329 497.125892 
L 618.380296 483.848469 
L 618.605625 493.18444 
L 618.830318 512.870805 
L 619.054379 487.300731 
L 619.500618 502.229831 
L 619.722804 497.285213 
L 619.944372 501.176441 
L 620.165325 481.784859 
L 620.824531 513.013614 
L 621.043059 494.646731 
L 621.26099 519.991381 
L 621.478326 497.590435 
L 621.69507 491.423112 
L 621.911227 512.667423 
L 622.126798 502.024474 
L 622.341787 509.153876 
L 622.556198 487.452121 
L 622.770034 508.257007 
L 622.983296 481.788841 
L 623.195989 509.368221 
L 623.408116 489.114103 
L 623.61968 499.277915 
L 623.830683 495.500507 
L 624.041128 494.889382 
L 624.251019 479.783175 
L 624.460358 486.205248 
L 624.669149 526.057889 
L 624.877394 498.874392 
L 625.085096 486.674083 
L 625.292257 502.873777 
L 625.704971 487.065367 
L 626.115557 523.575193 
L 626.320059 500.229668 
L 626.524038 491.57785 
L 626.727495 508.030025 
L 627.132858 497.045853 
L 627.334768 498.567145 
L 627.73706 492.074345 
L 627.937446 510.057163 
L 628.336713 483.143674 
L 628.535599 505.43466 
L 628.733989 501.167051 
L 628.931886 499.500803 
L 629.129293 494.955362 
L 629.326211 498.473999 
L 629.522644 497.57794 
L 629.718594 488.26095 
L 629.914063 488.877247 
L 630.109054 521.930101 
L 630.303568 486.389363 
L 630.497608 527.096367 
L 630.691177 496.292415 
L 630.884277 503.064343 
L 631.07691 494.282626 
L 631.269078 498.450638 
L 631.460783 499.259639 
L 631.652028 501.777525 
L 631.842815 484.437718 
L 632.223024 508.563119 
L 632.41245 479.835588 
L 632.789956 508.563933 
L 632.97804 486.832046 
L 633.165681 478.966111 
L 633.352881 521.992683 
L 633.539642 493.670306 
L 633.725966 488.123544 
L 634.097312 489.081774 
L 634.466935 501.966736 
L 634.651105 525.691624 
L 634.83485 481.503729 
L 635.018173 485.505624 
L 635.201074 498.518928 
L 635.383557 486.044296 
L 635.565622 487.905334 
L 635.747272 485.722429 
L 635.928509 508.433909 
L 636.109335 481.744793 
L 636.289751 501.003481 
L 636.469759 498.506271 
L 636.649361 492.636818 
L 636.828559 492.870663 
L 637.007355 500.327548 
L 637.363748 476.921936 
L 637.541348 510.684095 
L 637.718553 500.275364 
L 637.895364 502.717363 
L 638.071784 500.244493 
L 638.247814 500.406416 
L 638.423456 485.3362 
L 638.773582 502.713366 
L 639.122176 481.884416 
L 639.295903 512.642348 
L 639.469251 486.591937 
L 639.642223 500.968897 
L 639.81482 490.966393 
L 639.987044 519.097415 
L 640.158897 487.742107 
L 640.330379 500.059714 
L 640.501493 490.699888 
L 640.67224 511.569331 
L 640.842622 492.440622 
L 641.012641 491.267368 
L 641.182297 483.861582 
L 641.351593 507.447429 
L 641.520529 500.529189 
L 641.689108 507.989412 
L 642.192715 498.253192 
L 642.359879 506.081215 
L 642.526693 484.352018 
L 642.693158 510.597123 
L 643.025049 503.301026 
L 643.355562 483.003228 
L 643.520306 495.00751 
L 643.684709 520.853185 
L 643.848774 490.007922 
L 644.012502 538.609025 
L 644.175894 483.000651 
L 644.501676 507.028068 
L 644.664069 499.918629 
L 644.826131 501.268704 
L 644.987864 483.402074 
L 645.14927 491.14961 
L 645.310349 490.325712 
L 645.471103 509.026546 
L 645.791641 492.653189 
L 645.951427 506.56525 
L 646.110894 487.655884 
L 646.270042 491.931802 
L 646.587387 517.960407 
L 646.745587 498.749782 
L 646.903473 520.405919 
L 647.061047 518.123391 
L 647.21831 485.193443 
L 647.375263 516.219947 
L 647.531907 488.774777 
L 647.688244 514.326432 
L 647.844274 495.062529 
L 647.844274 495.062529 
" style="fill:none;stroke:#b22222;stroke-linecap:round;stroke-width:1.75;"/>
   </g>
   <g id="patch_6">
    <path d="M 90 512.64 
L 90 311.04 
" style="fill:none;stroke:#262626;stroke-linecap:square;stroke-linejoin:miter;stroke-width:1.25;"/>
   </g>
   <g id="patch_7">
    <path d="M 90 512.64 
L 648 512.64 
" style="fill:none;stroke:#262626;stroke-linecap:square;stroke-linejoin:miter;stroke-width:1.25;"/>
   </g>
  </g>
 </g>
 <defs>
  <clipPath id="pb1686bf42c">
   <rect height="201.6" width="558" x="90" y="69.12"/>
  </clipPath>
  <clipPath id="p44057d9544">
   <rect height="201.6" width="558" x="90" y="311.04"/>
  </clipPath>
 </defs>
</svg>
