<?xml version="1.0" encoding="utf-8" standalone="no"?>
<!DOCTYPE svg PUBLIC "-//W3C//DTD SVG 1.1//EN"
  "http://www.w3.org/Graphics/SVG/1.1/DTD/svg11.dtd">
<!-- Created with matplotlib (http://matplotlib.org/) -->
<svg height="576pt" version="1.1" viewBox="0 0 720 576" width="720pt" xmlns="http://www.w3.org/2000/svg" xmlns:xlink="http://www.w3.org/1999/xlink">
 <defs>
  <style type="text/css">
*{stroke-linecap:butt;stroke-linejoin:round;}
  </style>
 </defs>
 <g id="figure_1">
  <g id="patch_1">
   <path d="M 0 576 
L 720 576 
L 720 0 
L 0 0 
z
" style="fill:#ffffff;"/>
  </g>
  <g id="axes_1">
   <g id="patch_2">
    <path d="M 90 270.72 
L 648 270.72 
L 648 69.12 
L 90 69.12 
z
" style="fill:#ffffff;"/>
   </g>
   <g id="matplotlib.axis_1">
    <g id="xtick_1">
     <g id="line2d_1">
      <defs>
       <path d="M 0 0 
L 0 6 
" id="mb74200ffa9" style="stroke:#262626;"/>
      </defs>
      <g>
       <use style="fill:#262626;stroke:#262626;" x="90" xlink:href="#mb74200ffa9" y="270.72"/>
      </g>
     </g>
     <g id="text_1">
      <!-- 0 -->
      <defs>
       <path d="M 4.15625 35.296875 
Q 4.15625 48 6.765625 55.734375 
Q 9.375 63.484375 14.515625 67.671875 
Q 19.671875 71.875 27.484375 71.875 
Q 33.25 71.875 37.59375 69.546875 
Q 41.9375 67.234375 44.765625 62.859375 
Q 47.609375 58.5 49.21875 52.21875 
Q 50.828125 45.953125 50.828125 35.296875 
Q 50.828125 22.703125 48.234375 14.96875 
Q 45.65625 7.234375 40.5 3 
Q 35.359375 -1.21875 27.484375 -1.21875 
Q 17.140625 -1.21875 11.234375 6.203125 
Q 4.15625 15.140625 4.15625 35.296875 
z
M 13.1875 35.296875 
Q 13.1875 17.671875 17.3125 11.828125 
Q 21.4375 6 27.484375 6 
Q 33.546875 6 37.671875 11.859375 
Q 41.796875 17.71875 41.796875 35.296875 
Q 41.796875 52.984375 37.671875 58.78125 
Q 33.546875 64.59375 27.390625 64.59375 
Q 21.34375 64.59375 17.71875 59.46875 
Q 13.1875 52.9375 13.1875 35.296875 
z
" id="ArialMT-30"/>
      </defs>
      <g style="fill:#262626;" transform="translate(87.219531 290.877812)scale(0.1 -0.1)">
       <use xlink:href="#ArialMT-30"/>
      </g>
     </g>
    </g>
    <g id="xtick_2">
     <g id="line2d_2">
      <g>
       <use style="fill:#262626;stroke:#262626;" x="198.984375" xlink:href="#mb74200ffa9" y="270.72"/>
      </g>
     </g>
     <g id="text_2">
      <!-- 200 -->
      <defs>
       <path d="M 50.34375 8.453125 
L 50.34375 0 
L 3.03125 0 
Q 2.9375 3.171875 4.046875 6.109375 
Q 5.859375 10.9375 9.828125 15.625 
Q 13.8125 20.3125 21.34375 26.46875 
Q 33.015625 36.03125 37.109375 41.625 
Q 41.21875 47.21875 41.21875 52.203125 
Q 41.21875 57.421875 37.46875 61 
Q 33.734375 64.59375 27.734375 64.59375 
Q 21.390625 64.59375 17.578125 60.78125 
Q 13.765625 56.984375 13.71875 50.25 
L 4.6875 51.171875 
Q 5.609375 61.28125 11.65625 66.578125 
Q 17.71875 71.875 27.9375 71.875 
Q 38.234375 71.875 44.234375 66.15625 
Q 50.25 60.453125 50.25 52 
Q 50.25 47.703125 48.484375 43.546875 
Q 46.734375 39.40625 42.65625 34.8125 
Q 38.578125 30.21875 29.109375 22.21875 
Q 21.1875 15.578125 18.9375 13.203125 
Q 16.703125 10.84375 15.234375 8.453125 
z
" id="ArialMT-32"/>
      </defs>
      <g style="fill:#262626;" transform="translate(190.642969 290.877812)scale(0.1 -0.1)">
       <use xlink:href="#ArialMT-32"/>
       <use x="55.615234" xlink:href="#ArialMT-30"/>
       <use x="111.230469" xlink:href="#ArialMT-30"/>
      </g>
     </g>
    </g>
    <g id="xtick_3">
     <g id="line2d_3">
      <g>
       <use style="fill:#262626;stroke:#262626;" x="307.96875" xlink:href="#mb74200ffa9" y="270.72"/>
      </g>
     </g>
     <g id="text_3">
      <!-- 400 -->
      <defs>
       <path d="M 32.328125 0 
L 32.328125 17.140625 
L 1.265625 17.140625 
L 1.265625 25.203125 
L 33.9375 71.578125 
L 41.109375 71.578125 
L 41.109375 25.203125 
L 50.78125 25.203125 
L 50.78125 17.140625 
L 41.109375 17.140625 
L 41.109375 0 
z
M 32.328125 25.203125 
L 32.328125 57.46875 
L 9.90625 25.203125 
z
" id="ArialMT-34"/>
      </defs>
      <g style="fill:#262626;" transform="translate(299.627344 290.877812)scale(0.1 -0.1)">
       <use xlink:href="#ArialMT-34"/>
       <use x="55.615234" xlink:href="#ArialMT-30"/>
       <use x="111.230469" xlink:href="#ArialMT-30"/>
      </g>
     </g>
    </g>
    <g id="xtick_4">
     <g id="line2d_4">
      <g>
       <use style="fill:#262626;stroke:#262626;" x="416.953125" xlink:href="#mb74200ffa9" y="270.72"/>
      </g>
     </g>
     <g id="text_4">
      <!-- 600 -->
      <defs>
       <path d="M 49.75 54.046875 
L 41.015625 53.375 
Q 39.84375 58.546875 37.703125 60.890625 
Q 34.125 64.65625 28.90625 64.65625 
Q 24.703125 64.65625 21.53125 62.3125 
Q 17.390625 59.28125 14.984375 53.46875 
Q 12.59375 47.65625 12.5 36.921875 
Q 15.671875 41.75 20.265625 44.09375 
Q 24.859375 46.4375 29.890625 46.4375 
Q 38.671875 46.4375 44.84375 39.96875 
Q 51.03125 33.5 51.03125 23.25 
Q 51.03125 16.5 48.125 10.71875 
Q 45.21875 4.9375 40.140625 1.859375 
Q 35.0625 -1.21875 28.609375 -1.21875 
Q 17.625 -1.21875 10.6875 6.859375 
Q 3.765625 14.9375 3.765625 33.5 
Q 3.765625 54.25 11.421875 63.671875 
Q 18.109375 71.875 29.4375 71.875 
Q 37.890625 71.875 43.28125 67.140625 
Q 48.6875 62.40625 49.75 54.046875 
z
M 13.875 23.1875 
Q 13.875 18.65625 15.796875 14.5 
Q 17.71875 10.359375 21.1875 8.171875 
Q 24.65625 6 28.46875 6 
Q 34.03125 6 38.03125 10.484375 
Q 42.046875 14.984375 42.046875 22.703125 
Q 42.046875 30.125 38.078125 34.390625 
Q 34.125 38.671875 28.125 38.671875 
Q 22.171875 38.671875 18.015625 34.390625 
Q 13.875 30.125 13.875 23.1875 
z
" id="ArialMT-36"/>
      </defs>
      <g style="fill:#262626;" transform="translate(408.611719 290.877812)scale(0.1 -0.1)">
       <use xlink:href="#ArialMT-36"/>
       <use x="55.615234" xlink:href="#ArialMT-30"/>
       <use x="111.230469" xlink:href="#ArialMT-30"/>
      </g>
     </g>
    </g>
    <g id="xtick_5">
     <g id="line2d_5">
      <g>
       <use style="fill:#262626;stroke:#262626;" x="525.9375" xlink:href="#mb74200ffa9" y="270.72"/>
      </g>
     </g>
     <g id="text_5">
      <!-- 800 -->
      <defs>
       <path d="M 17.671875 38.8125 
Q 12.203125 40.828125 9.5625 44.53125 
Q 6.9375 48.25 6.9375 53.421875 
Q 6.9375 61.234375 12.546875 66.546875 
Q 18.171875 71.875 27.484375 71.875 
Q 36.859375 71.875 42.578125 66.421875 
Q 48.296875 60.984375 48.296875 53.171875 
Q 48.296875 48.1875 45.671875 44.5 
Q 43.0625 40.828125 37.75 38.8125 
Q 44.34375 36.671875 47.78125 31.875 
Q 51.21875 27.09375 51.21875 20.453125 
Q 51.21875 11.28125 44.71875 5.03125 
Q 38.234375 -1.21875 27.640625 -1.21875 
Q 17.046875 -1.21875 10.546875 5.046875 
Q 4.046875 11.328125 4.046875 20.703125 
Q 4.046875 27.6875 7.59375 32.390625 
Q 11.140625 37.109375 17.671875 38.8125 
z
M 15.921875 53.71875 
Q 15.921875 48.640625 19.1875 45.40625 
Q 22.46875 42.1875 27.6875 42.1875 
Q 32.765625 42.1875 36.015625 45.375 
Q 39.265625 48.578125 39.265625 53.21875 
Q 39.265625 58.0625 35.90625 61.359375 
Q 32.5625 64.65625 27.59375 64.65625 
Q 22.5625 64.65625 19.234375 61.421875 
Q 15.921875 58.203125 15.921875 53.71875 
z
M 13.09375 20.65625 
Q 13.09375 16.890625 14.875 13.375 
Q 16.65625 9.859375 20.171875 7.921875 
Q 23.6875 6 27.734375 6 
Q 34.03125 6 38.125 10.046875 
Q 42.234375 14.109375 42.234375 20.359375 
Q 42.234375 26.703125 38.015625 30.859375 
Q 33.796875 35.015625 27.4375 35.015625 
Q 21.234375 35.015625 17.15625 30.90625 
Q 13.09375 26.8125 13.09375 20.65625 
z
" id="ArialMT-38"/>
      </defs>
      <g style="fill:#262626;" transform="translate(517.596094 290.877812)scale(0.1 -0.1)">
       <use xlink:href="#ArialMT-38"/>
       <use x="55.615234" xlink:href="#ArialMT-30"/>
       <use x="111.230469" xlink:href="#ArialMT-30"/>
      </g>
     </g>
    </g>
    <g id="xtick_6">
     <g id="line2d_6">
      <g>
       <use style="fill:#262626;stroke:#262626;" x="634.921875" xlink:href="#mb74200ffa9" y="270.72"/>
      </g>
     </g>
     <g id="text_6">
      <!-- 1000 -->
      <defs>
       <path d="M 37.25 0 
L 28.46875 0 
L 28.46875 56 
Q 25.296875 52.984375 20.140625 49.953125 
Q 14.984375 46.921875 10.890625 45.40625 
L 10.890625 53.90625 
Q 18.265625 57.375 23.78125 62.296875 
Q 29.296875 67.234375 31.59375 71.875 
L 37.25 71.875 
z
" id="ArialMT-31"/>
      </defs>
      <g style="fill:#262626;" transform="translate(623.8 290.877812)scale(0.1 -0.1)">
       <use xlink:href="#ArialMT-31"/>
       <use x="55.615234" xlink:href="#ArialMT-30"/>
       <use x="111.230469" xlink:href="#ArialMT-30"/>
       <use x="166.845703" xlink:href="#ArialMT-30"/>
      </g>
     </g>
    </g>
   </g>
   <g id="matplotlib.axis_2">
    <g id="ytick_1">
     <g id="line2d_7">
      <defs>
       <path d="M 0 0 
L -6 0 
" id="m76593938ec" style="stroke:#262626;"/>
      </defs>
      <g>
       <use style="fill:#262626;stroke:#262626;" x="90" xlink:href="#m76593938ec" y="270.72"/>
      </g>
     </g>
     <g id="text_7">
      <!-- −0.6 -->
      <defs>
       <path d="M 52.828125 31.203125 
L 5.5625 31.203125 
L 5.5625 39.40625 
L 52.828125 39.40625 
z
" id="ArialMT-2212"/>
       <path d="M 9.078125 0 
L 9.078125 10.015625 
L 19.09375 10.015625 
L 19.09375 0 
z
" id="ArialMT-2e"/>
      </defs>
      <g style="fill:#262626;" transform="translate(57.259375 274.298906)scale(0.1 -0.1)">
       <use xlink:href="#ArialMT-2212"/>
       <use x="58.398438" xlink:href="#ArialMT-30"/>
       <use x="114.013672" xlink:href="#ArialMT-2e"/>
       <use x="141.796875" xlink:href="#ArialMT-36"/>
      </g>
     </g>
    </g>
    <g id="ytick_2">
     <g id="line2d_8">
      <g>
       <use style="fill:#262626;stroke:#262626;" x="90" xlink:href="#m76593938ec" y="237.12"/>
      </g>
     </g>
     <g id="text_8">
      <!-- −0.4 -->
      <g style="fill:#262626;" transform="translate(57.259375 240.698906)scale(0.1 -0.1)">
       <use xlink:href="#ArialMT-2212"/>
       <use x="58.398438" xlink:href="#ArialMT-30"/>
       <use x="114.013672" xlink:href="#ArialMT-2e"/>
       <use x="141.796875" xlink:href="#ArialMT-34"/>
      </g>
     </g>
    </g>
    <g id="ytick_3">
     <g id="line2d_9">
      <g>
       <use style="fill:#262626;stroke:#262626;" x="90" xlink:href="#m76593938ec" y="203.52"/>
      </g>
     </g>
     <g id="text_9">
      <!-- −0.2 -->
      <g style="fill:#262626;" transform="translate(57.259375 207.098906)scale(0.1 -0.1)">
       <use xlink:href="#ArialMT-2212"/>
       <use x="58.398438" xlink:href="#ArialMT-30"/>
       <use x="114.013672" xlink:href="#ArialMT-2e"/>
       <use x="141.796875" xlink:href="#ArialMT-32"/>
      </g>
     </g>
    </g>
    <g id="ytick_4">
     <g id="line2d_10">
      <g>
       <use style="fill:#262626;stroke:#262626;" x="90" xlink:href="#m76593938ec" y="169.92"/>
      </g>
     </g>
     <g id="text_10">
      <!-- 0.0 -->
      <g style="fill:#262626;" transform="translate(63.1 173.498906)scale(0.1 -0.1)">
       <use xlink:href="#ArialMT-30"/>
       <use x="55.615234" xlink:href="#ArialMT-2e"/>
       <use x="83.398438" xlink:href="#ArialMT-30"/>
      </g>
     </g>
    </g>
    <g id="ytick_5">
     <g id="line2d_11">
      <g>
       <use style="fill:#262626;stroke:#262626;" x="90" xlink:href="#m76593938ec" y="136.32"/>
      </g>
     </g>
     <g id="text_11">
      <!-- 0.2 -->
      <g style="fill:#262626;" transform="translate(63.1 139.898906)scale(0.1 -0.1)">
       <use xlink:href="#ArialMT-30"/>
       <use x="55.615234" xlink:href="#ArialMT-2e"/>
       <use x="83.398438" xlink:href="#ArialMT-32"/>
      </g>
     </g>
    </g>
    <g id="ytick_6">
     <g id="line2d_12">
      <g>
       <use style="fill:#262626;stroke:#262626;" x="90" xlink:href="#m76593938ec" y="102.72"/>
      </g>
     </g>
     <g id="text_12">
      <!-- 0.4 -->
      <g style="fill:#262626;" transform="translate(63.1 106.298906)scale(0.1 -0.1)">
       <use xlink:href="#ArialMT-30"/>
       <use x="55.615234" xlink:href="#ArialMT-2e"/>
       <use x="83.398438" xlink:href="#ArialMT-34"/>
      </g>
     </g>
    </g>
    <g id="ytick_7">
     <g id="line2d_13">
      <g>
       <use style="fill:#262626;stroke:#262626;" x="90" xlink:href="#m76593938ec" y="69.12"/>
      </g>
     </g>
     <g id="text_13">
      <!-- 0.6 -->
      <g style="fill:#262626;" transform="translate(63.1 72.698906)scale(0.1 -0.1)">
       <use xlink:href="#ArialMT-30"/>
       <use x="55.615234" xlink:href="#ArialMT-2e"/>
       <use x="83.398438" xlink:href="#ArialMT-36"/>
      </g>
     </g>
    </g>
   </g>
   <g id="line2d_14">
    <path clip-path="url(#p30140598a8)" d="M 90 111.457354 
L 91.089844 120.849932 
L 91.634766 124.233721 
L 92.179688 125.47957 
L 92.724609 125.453936 
L 93.269531 124.838701 
L 94.359375 122.0804 
L 94.904297 120.250078 
L 95.449219 118.901689 
L 95.994141 118.676104 
L 96.539062 119.470781 
L 99.808594 130.42708 
L 100.898438 134.918291 
L 101.988281 141.501299 
L 103.078125 148.740557 
L 103.623047 150.719561 
L 104.167969 152.093584 
L 104.712891 152.524248 
L 105.257812 152.785723 
L 105.802734 152.852373 
L 106.347656 152.416582 
L 106.892578 151.61165 
L 107.982422 149.396807 
L 108.527344 149.407061 
L 109.072266 150.104326 
L 109.617188 152.452471 
L 110.707031 159.594316 
L 111.796875 169.458574 
L 113.976562 190.412432 
L 115.611328 200.76375 
L 116.15625 203.281084 
L 116.701172 205.065264 
L 117.246094 205.880449 
L 117.791016 205.96248 
L 118.335938 205.644609 
L 119.970703 202.676104 
L 120.515625 201.491777 
L 121.060547 200.671465 
L 122.150391 198.661699 
L 123.240234 197.164629 
L 123.785156 196.790361 
L 124.330078 197.29793 
L 125.419922 199.810137 
L 125.964844 201.327715 
L 126.509766 202.245439 
L 127.599609 203.527178 
L 128.144531 203.660479 
L 128.689453 202.758135 
L 129.234375 200.912432 
L 130.869141 193.345049 
L 131.414062 192.206865 
L 131.958984 191.581377 
L 132.503906 191.709551 
L 133.048828 192.058184 
L 133.59375 192.570879 
L 134.138672 192.929766 
L 135.228516 195.088213 
L 136.318359 199.184648 
L 137.408203 204.81917 
L 138.498047 212.407061 
L 140.677734 226.090898 
L 142.3125 240.000322 
L 142.857422 243.507158 
L 143.402344 245.727129 
L 143.947266 247.336992 
L 144.492188 247.234453 
L 145.037109 245.660479 
L 145.582031 242.958574 
L 146.126953 239.210771 
L 147.761719 224.481035 
L 148.851562 212.817217 
L 149.941406 198.836016 
L 152.666016 162.168047 
L 153.755859 149.832598 
L 154.845703 139.778643 
L 155.390625 136.015459 
L 155.935547 133.369951 
L 156.480469 131.483232 
L 157.025391 130.216875 
L 157.570312 129.555498 
L 158.115234 129.29915 
L 158.660156 129.909258 
L 159.205078 131.67293 
L 159.75 134.590166 
L 161.384766 145.649004 
L 161.929688 149.022539 
L 162.474609 153.349687 
L 163.564453 164.762285 
L 164.654297 175.231523 
L 165.199219 179.758623 
L 166.289062 186.039141 
L 166.833984 186.91585 
L 167.378906 186.264727 
L 167.923828 183.578203 
L 168.46875 178.87166 
L 169.558594 166.161943 
L 171.738281 138.327715 
L 173.917969 114.543779 
L 175.552734 98.522051 
L 176.097656 94.748613 
L 176.642578 91.7596 
L 177.1875 90.226641 
L 177.732422 90.5804 
L 178.277344 92.923418 
L 178.822266 96.696855 
L 179.912109 106.186846 
L 180.457031 109.84749 
L 181.546875 115.210283 
L 183.181641 121.875322 
L 183.726562 123.459551 
L 184.816406 125.202715 
L 185.361328 125.853838 
L 185.90625 125.858965 
L 186.451172 125.633379 
L 187.541016 124.151689 
L 188.085938 124.136309 
L 188.630859 124.792559 
L 189.720703 127.85335 
L 190.810547 132.134355 
L 192.990234 143.19832 
L 194.080078 150.001787 
L 195.169922 155.29793 
L 195.714844 156.636064 
L 196.259766 157.610186 
L 196.804688 157.507646 
L 197.349609 156.923174 
L 198.984375 153.293291 
L 199.529297 152.62166 
L 200.074219 153.057451 
L 200.619141 154.416094 
L 201.164062 157.810137 
L 202.253906 166.736162 
L 203.34375 175.190508 
L 205.523438 190.412432 
L 208.248047 206.234209 
L 208.792969 208.505449 
L 209.337891 209.546221 
L 209.882812 209.505205 
L 210.427734 208.515703 
L 211.517578 204.383379 
L 212.0625 201.72249 
L 212.607422 199.758867 
L 213.152344 198.630937 
L 213.697266 199.153887 
L 214.787109 202.68123 
L 215.332031 203.973223 
L 215.876953 204.455156 
L 216.421875 203.973223 
L 217.511719 202.368486 
L 218.601562 201.409746 
L 219.146484 201.296953 
L 220.236328 200.312578 
L 220.78125 199.610186 
L 221.326172 198.133623 
L 222.416016 193.821855 
L 222.960938 191.309648 
L 223.505859 189.966387 
L 224.050781 189.105059 
L 224.595703 189.479326 
L 225.140625 190.217607 
L 226.230469 192.693926 
L 226.775391 194.144854 
L 227.320312 195.252275 
L 227.865234 195.616289 
L 228.410156 196.544268 
L 228.955078 197.826006 
L 229.5 200.220293 
L 230.044922 203.445146 
L 231.134766 211.85335 
L 231.679688 216.800859 
L 233.314453 234.981035 
L 233.859375 239.323564 
L 234.404297 242.271562 
L 234.949219 243.296953 
L 235.494141 244.050615 
L 236.039062 244.153154 
L 236.583984 243.948076 
L 237.128906 243.886553 
L 237.673828 242.451006 
L 238.21875 240.266924 
L 238.763672 237.098467 
L 239.853516 228.20833 
L 240.943359 215.339678 
L 243.667969 176.374834 
L 245.302734 157.589678 
L 246.9375 141.173174 
L 248.027344 133.226396 
L 248.572266 130.606523 
L 249.117188 129.247881 
L 249.662109 128.27376 
L 250.207031 128.289141 
L 250.751953 128.740312 
L 251.296875 130.355303 
L 251.841797 132.63167 
L 252.931641 139.61458 
L 254.021484 148.725176 
L 255.111328 161.86043 
L 256.201172 176.328691 
L 256.746094 182.291338 
L 257.291016 186.085283 
L 257.835938 187.664385 
L 258.380859 187.105547 
L 258.925781 185.106035 
L 260.015625 178.794756 
L 262.195312 162.209062 
L 263.285156 150.77083 
L 266.554688 106.571367 
L 267.099609 102.2596 
L 267.644531 99.342363 
L 268.189453 98.20418 
L 268.734375 98.255449 
L 269.279297 98.932207 
L 269.824219 100.40877 
L 270.369141 102.726152 
L 271.458984 108.550371 
L 272.548828 113.103105 
L 273.638672 116.666338 
L 275.273438 122.593096 
L 275.818359 123.592852 
L 276.363281 124.28499 
L 276.908203 124.392656 
L 277.453125 124.182451 
L 277.998047 124.418291 
L 279.087891 123.972246 
L 279.632812 123.890215 
L 280.177734 124.21834 
L 280.722656 125.274492 
L 281.8125 129.370928 
L 282.902344 135.784746 
L 285.082031 151.068193 
L 285.626953 153.826494 
L 286.171875 155.626055 
L 286.716797 156.989824 
L 287.261719 157.98958 
L 287.806641 158.492021 
L 288.351562 157.80501 
L 289.441406 154.939043 
L 289.986328 154.216143 
L 290.53125 155.01082 
L 291.076172 156.630937 
L 293.255859 167.505205 
L 295.435547 180.481523 
L 298.160156 203.737383 
L 298.705078 207.218584 
L 299.25 209.351396 
L 299.794922 210.520342 
L 300.339844 210.838213 
L 300.884766 210.55623 
L 301.974609 209.069414 
L 302.519531 208.813066 
L 304.154297 206.48543 
L 305.244141 206.044512 
L 305.789062 207.100664 
L 306.333984 208.5721 
L 306.878906 209.700029 
L 307.423828 210.161455 
L 307.96875 209.874346 
L 309.603516 208.126055 
L 310.148438 207.382646 
L 310.693359 206.095781 
L 311.783203 202.327471 
L 312.328125 200.425371 
L 313.417969 198.113115 
L 313.962891 197.441484 
L 315.052734 195.185625 
L 316.6875 192.068437 
L 317.777344 190.274004 
L 318.322266 190.232988 
L 318.867188 190.520098 
L 319.412109 191.237871 
L 319.957031 192.340166 
L 320.501953 194.242266 
L 321.046875 197.251787 
L 322.136719 205.639482 
L 324.861328 229.290117 
L 325.951172 237.452227 
L 326.496094 240.72835 
L 327.041016 243.143145 
L 327.585938 244.645342 
L 328.130859 245.737383 
L 328.675781 246.414141 
L 329.220703 246.296221 
L 329.765625 245.240068 
L 330.310547 242.271562 
L 331.400391 234.006914 
L 332.490234 222.866045 
L 333.580078 210.130693 
L 336.849609 169.904619 
L 337.939453 158.871416 
L 339.574219 143.649492 
L 340.664062 134.092852 
L 341.208984 130.211748 
L 341.753906 127.668779 
L 342.298828 126.776689 
L 342.84375 127.591875 
L 343.388672 130.570635 
L 343.933594 134.995195 
L 348.292969 181.214678 
L 348.837891 185.095781 
L 349.382812 187.828447 
L 349.927734 189.417803 
L 350.472656 189.951006 
L 351.017578 189.971514 
L 351.5625 188.905107 
L 352.107422 186.633867 
L 352.652344 183.168047 
L 353.742188 173.565264 
L 354.287109 167.659014 
L 355.921875 145.023516 
L 357.011719 130.698809 
L 358.101562 118.845293 
L 358.646484 114.164385 
L 359.191406 111.036943 
L 359.736328 109.765459 
L 360.28125 109.375811 
L 362.460938 111.739336 
L 363.005859 112.780107 
L 363.550781 114.220781 
L 364.640625 118.61458 
L 365.730469 123.315996 
L 366.820312 126.699785 
L 367.365234 128.15584 
L 367.910156 128.81209 
L 368.455078 128.847979 
L 369 128.022539 
L 371.179688 122.73665 
L 371.724609 122.67 
L 372.269531 124.249102 
L 372.814453 127.089434 
L 374.994141 141.188555 
L 375.539062 143.767412 
L 376.083984 145.397783 
L 376.628906 146.535967 
L 377.173828 147.294756 
L 377.71875 147.597246 
L 378.263672 148.350908 
L 379.353516 151.160479 
L 379.898438 152.114092 
L 380.443359 151.960283 
L 381.533203 149.294268 
L 382.078125 148.407305 
L 382.623047 148.555986 
L 383.712891 152.114092 
L 384.257812 154.605791 
L 385.347656 161.516924 
L 386.982422 173.729326 
L 388.617188 186.239092 
L 390.251953 197.426104 
L 390.796875 200.281816 
L 391.341797 201.799395 
L 391.886719 202.317217 
L 392.431641 202.086504 
L 392.976562 200.804766 
L 393.521484 199.184648 
L 394.066406 197.923418 
L 394.611328 197.36458 
L 395.15625 197.861895 
L 397.335938 204.311602 
L 397.880859 205.178057 
L 398.425781 205.783037 
L 398.970703 205.926592 
L 399.515625 204.896074 
L 401.150391 200.630449 
L 401.695312 200.204912 
L 402.240234 200.476641 
L 402.785156 201.004717 
L 403.875 201.045732 
L 404.419922 200.640703 
L 404.964844 199.712725 
L 406.054688 196.769854 
L 407.144531 192.960527 
L 408.234375 190.268877 
L 409.324219 189.299883 
L 409.869141 189.72542 
L 410.414062 190.350908 
L 411.503906 192.847734 
L 412.59375 196.657061 
L 413.138672 199.143633 
L 413.683594 202.768389 
L 414.773438 212.847979 
L 416.408203 229.295244 
L 417.498047 238.175127 
L 418.042969 241.543535 
L 418.587891 244.101885 
L 420.767578 251.546221 
L 421.3125 252.115312 
L 421.857422 250.725908 
L 422.402344 247.721514 
L 422.947266 243.014971 
L 424.037109 230.894854 
L 425.126953 218.205645 
L 426.216797 207.567217 
L 427.851562 191.745439 
L 428.941406 177.641191 
L 431.121094 145.966875 
L 431.666016 139.388994 
L 432.210938 134.236406 
L 432.755859 130.524492 
L 433.300781 129.104326 
L 433.845703 129.360674 
L 434.390625 130.386064 
L 434.935547 132.236895 
L 435.480469 134.590166 
L 436.025391 137.676592 
L 436.570312 141.711504 
L 437.660156 152.175615 
L 438.75 164.213701 
L 440.929688 185.398271 
L 441.474609 189.023027 
L 442.019531 191.309648 
L 442.564453 192.360674 
L 443.109375 191.586504 
L 443.654297 189.463945 
L 444.199219 186.187822 
L 445.289062 176.872148 
L 446.378906 165.095537 
L 449.103516 131.488359 
L 449.648438 126.228105 
L 450.738281 118.942705 
L 451.283203 116.481768 
L 451.828125 115.107744 
L 452.373047 114.251543 
L 452.917969 113.774736 
L 453.462891 113.605547 
L 454.007812 113.78499 
L 454.552734 114.497637 
L 455.097656 116.307451 
L 455.642578 119.291338 
L 456.732422 126.981768 
L 457.277344 129.683672 
L 457.822266 130.755205 
L 458.367188 130.770586 
L 459.457031 129.073564 
L 460.001953 127.555986 
L 460.546875 126.412676 
L 461.091797 125.535967 
L 461.636719 125.34627 
L 462.181641 125.792314 
L 462.726562 126.648516 
L 463.271484 128.032793 
L 463.816406 129.893877 
L 465.996094 139.055742 
L 466.541016 141.101396 
L 467.085938 142.695879 
L 468.175781 146.864092 
L 469.265625 150.145342 
L 469.810547 150.760576 
L 470.355469 151.00667 
L 471.445312 151.088701 
L 471.990234 150.811846 
L 472.535156 150.709307 
L 473.625 149.119951 
L 474.169922 148.878984 
L 474.714844 149.62752 
L 475.259766 151.063066 
L 476.349609 156.820635 
L 477.439453 164.562334 
L 480.164062 189.428057 
L 481.253906 196.211016 
L 481.798828 198.266924 
L 482.34375 199.810137 
L 485.613281 202.281328 
L 486.158203 202.978594 
L 487.248047 206.029131 
L 487.792969 207.459551 
L 488.337891 208.474687 
L 488.882812 208.561846 
L 489.427734 208.382402 
L 489.972656 207.926104 
L 491.0625 206.223955 
L 491.607422 205.603594 
L 492.152344 205.588213 
L 492.697266 205.803545 
L 494.332031 207.859453 
L 494.876953 207.68001 
L 495.421875 206.541826 
L 500.326172 191.99666 
L 500.871094 190.97127 
L 501.416016 190.222734 
L 502.505859 191.432695 
L 503.050781 193.07332 
L 505.230469 201.343096 
L 506.320312 207.751787 
L 510.134766 241.282061 
L 510.679688 244.645342 
L 511.224609 247.039629 
L 511.769531 248.029131 
L 512.314453 248.01375 
L 512.859375 247.101152 
L 513.404297 245.15291 
L 514.494141 240.364336 
L 515.583984 233.335283 
L 517.763672 213.8221 
L 518.853516 202.79915 
L 519.943359 188.956377 
L 522.667969 147.151201 
L 523.757812 136.548662 
L 524.302734 133.216143 
L 524.847656 130.944902 
L 525.392578 129.806719 
L 525.9375 129.529863 
L 526.482422 130.063066 
L 527.027344 131.021807 
L 527.572266 132.524004 
L 528.117188 135.400225 
L 528.662109 139.440264 
L 530.296875 157.953691 
L 531.931641 176.492754 
L 533.021484 187.264482 
L 533.566406 190.150957 
L 534.111328 191.791582 
L 534.65625 191.489092 
L 535.201172 189.525469 
L 536.291016 182.265703 
L 537.925781 169.663652 
L 539.015625 159.748125 
L 540.650391 139.629961 
L 541.740234 127.017656 
L 542.285156 122.311113 
L 543.375 115.605059 
L 543.919922 114.425859 
L 544.464844 114.779619 
L 545.009766 115.620439 
L 546.099609 118.660723 
L 547.734375 121.690752 
L 548.824219 124.787432 
L 549.369141 125.489824 
L 549.914062 125.935869 
L 550.458984 125.664141 
L 551.003906 125.192461 
L 552.638672 122.418779 
L 553.183594 122.018877 
L 553.728516 122.177812 
L 554.273438 122.777666 
L 555.363281 125.607744 
L 555.908203 127.699541 
L 556.998047 130.903887 
L 557.542969 132.498369 
L 558.632812 134.83626 
L 560.267578 139.635088 
L 561.357422 143.78792 
L 561.902344 144.521074 
L 562.447266 144.295488 
L 562.992188 143.152178 
L 563.537109 141.542314 
L 564.626953 137.820146 
L 565.171875 136.307695 
L 565.716797 135.810381 
L 566.261719 136.45125 
L 566.806641 138.855791 
L 567.351562 142.311357 
L 568.986328 155.820879 
L 570.621094 169.186846 
L 571.710938 175.487871 
L 576.070312 193.621904 
L 576.615234 195.252275 
L 577.160156 196.359697 
L 577.705078 196.575029 
L 578.25 197.015947 
L 578.794922 197.620928 
L 579.339844 198.615557 
L 580.429688 202.02498 
L 580.974609 203.03499 
L 581.519531 203.029863 
L 582.609375 201.563555 
L 583.154297 201.271318 
L 583.699219 201.845537 
L 584.244141 202.619707 
L 585.333984 204.70125 
L 586.423828 206.341875 
L 586.96875 206.044512 
L 587.513672 205.521562 
L 588.058594 203.604082 
L 590.238281 193.796221 
L 590.783203 192.099199 
L 591.328125 191.87874 
L 591.873047 191.976152 
L 592.417969 192.883623 
L 592.962891 192.883623 
L 593.507812 192.335039 
L 594.597656 190.632891 
L 595.142578 190.714922 
L 595.6875 191.622393 
L 596.232422 193.909014 
L 596.777344 197.092852 
L 597.867188 205.701006 
L 598.957031 217.431475 
L 600.046875 228.587725 
L 601.136719 237.072832 
L 602.226562 243.348223 
L 602.771484 245.763018 
L 603.316406 247.249834 
L 603.861328 247.813799 
L 604.951172 247.665117 
L 605.496094 247.249834 
L 606.585938 245.537432 
L 607.130859 243.230303 
L 607.675781 240.231035 
L 608.765625 232.238115 
L 609.855469 221.994463 
L 610.945312 209.694902 
L 612.035156 194.370439 
L 613.669922 168.279375 
L 614.214844 161.265703 
L 615.304688 151.391191 
L 616.394531 143.100908 
L 617.484375 137.245928 
L 618.029297 135.67708 
L 618.574219 135.466875 
L 619.119141 135.871904 
L 619.664062 138.532793 
L 620.208984 142.526689 
L 620.753906 148.048418 
L 621.84375 162.403887 
L 622.933594 176.461992 
L 623.478516 181.68123 
L 624.023438 185.741777 
L 624.568359 188.910234 
L 625.113281 190.878984 
L 625.658203 192.263262 
L 626.203125 192.94002 
L 626.748047 193.211748 
L 627.292969 192.755449 
L 627.837891 191.514727 
L 628.382812 188.889727 
L 628.927734 185.0804 
L 630.017578 174.313799 
L 631.107422 160.711992 
L 632.742188 138.553301 
L 633.832031 127.658525 
L 634.376953 123.997881 
L 634.921875 121.106279 
L 635.466797 119.024736 
L 636.011719 117.876299 
L 636.556641 117.404619 
L 638.191406 119.03499 
L 638.736328 119.137529 
L 639.28125 119.357988 
L 639.826172 119.819414 
L 640.371094 119.522051 
L 640.916016 119.511797 
L 641.460938 119.142656 
L 642.550781 118.055742 
L 643.095703 117.983965 
L 643.640625 118.137773 
L 644.730469 118.086504 
L 645.820312 117.768633 
L 646.365234 118.178789 
L 646.910156 119.306719 
L 647.455078 120.696123 
L 647.455078 120.696123 
" style="fill:none;stroke:#4c72b0;stroke-linecap:round;stroke-width:1.75;"/>
   </g>
   <g id="patch_3">
    <path d="M 90 270.72 
L 90 69.12 
" style="fill:none;stroke:#262626;stroke-linecap:square;stroke-linejoin:miter;stroke-width:1.25;"/>
   </g>
   <g id="patch_4">
    <path d="M 90 270.72 
L 648 270.72 
" style="fill:none;stroke:#262626;stroke-linecap:square;stroke-linejoin:miter;stroke-width:1.25;"/>
   </g>
  </g>
  <g id="axes_2">
   <g id="patch_5">
    <path d="M 90 512.64 
L 648 512.64 
L 648 311.04 
L 90 311.04 
z
" style="fill:#ffffff;"/>
   </g>
   <g id="matplotlib.axis_3">
    <g id="xtick_7">
     <g id="line2d_15">
      <g>
       <use style="fill:#262626;stroke:#262626;" x="218.197478" xlink:href="#mb74200ffa9" y="512.64"/>
      </g>
     </g>
     <g id="text_14">
      <!-- $\mathdefault{10^{2}}$ -->
      <g style="fill:#262626;" transform="translate(210.347478 535.9525)scale(0.1 -0.1)">
       <use transform="translate(0 0.99375)" xlink:href="#ArialMT-31"/>
       <use transform="translate(55.615234 0.99375)" xlink:href="#ArialMT-30"/>
       <use transform="translate(112.972813 70.6875)scale(0.7)" xlink:href="#ArialMT-32"/>
      </g>
     </g>
    </g>
    <g id="xtick_8">
     <g id="line2d_16">
      <g>
       <use style="fill:#262626;stroke:#262626;" x="401.606604" xlink:href="#mb74200ffa9" y="512.64"/>
      </g>
     </g>
     <g id="text_15">
      <!-- $\mathdefault{10^{3}}$ -->
      <defs>
       <path d="M 4.203125 18.890625 
L 12.984375 20.0625 
Q 14.5 12.59375 18.140625 9.296875 
Q 21.78125 6 27 6 
Q 33.203125 6 37.46875 10.296875 
Q 41.75 14.59375 41.75 20.953125 
Q 41.75 27 37.796875 30.921875 
Q 33.84375 34.859375 27.734375 34.859375 
Q 25.25 34.859375 21.53125 33.890625 
L 22.515625 41.609375 
Q 23.390625 41.5 23.921875 41.5 
Q 29.546875 41.5 34.03125 44.421875 
Q 38.53125 47.359375 38.53125 53.46875 
Q 38.53125 58.296875 35.25 61.46875 
Q 31.984375 64.65625 26.8125 64.65625 
Q 21.6875 64.65625 18.265625 61.421875 
Q 14.84375 58.203125 13.875 51.765625 
L 5.078125 53.328125 
Q 6.6875 62.15625 12.390625 67.015625 
Q 18.109375 71.875 26.609375 71.875 
Q 32.46875 71.875 37.390625 69.359375 
Q 42.328125 66.84375 44.9375 62.5 
Q 47.5625 58.15625 47.5625 53.265625 
Q 47.5625 48.640625 45.0625 44.828125 
Q 42.578125 41.015625 37.703125 38.765625 
Q 44.046875 37.3125 47.5625 32.6875 
Q 51.078125 28.078125 51.078125 21.140625 
Q 51.078125 11.765625 44.234375 5.25 
Q 37.40625 -1.265625 26.953125 -1.265625 
Q 17.53125 -1.265625 11.296875 4.34375 
Q 5.078125 9.96875 4.203125 18.890625 
z
" id="ArialMT-33"/>
      </defs>
      <g style="fill:#262626;" transform="translate(393.756604 535.9525)scale(0.1 -0.1)">
       <use transform="translate(0 0.99375)" xlink:href="#ArialMT-31"/>
       <use transform="translate(55.615234 0.99375)" xlink:href="#ArialMT-30"/>
       <use transform="translate(112.972813 70.6875)scale(0.7)" xlink:href="#ArialMT-33"/>
      </g>
     </g>
    </g>
    <g id="xtick_9">
     <g id="line2d_17">
      <g>
       <use style="fill:#262626;stroke:#262626;" x="585.01573" xlink:href="#mb74200ffa9" y="512.64"/>
      </g>
     </g>
     <g id="text_16">
      <!-- $\mathdefault{10^{4}}$ -->
      <g style="fill:#262626;" transform="translate(577.16573 535.8525)scale(0.1 -0.1)">
       <use transform="translate(0 0.201563)" xlink:href="#ArialMT-31"/>
       <use transform="translate(55.615234 0.201563)" xlink:href="#ArialMT-30"/>
       <use transform="translate(112.972813 69.895313)scale(0.7)" xlink:href="#ArialMT-34"/>
      </g>
     </g>
    </g>
    <g id="xtick_10">
     <g id="line2d_18">
      <defs>
       <path d="M 0 0 
L 0 3 
" id="mb64122bff4" style="stroke:#262626;stroke-width:0.5;"/>
      </defs>
      <g>
       <use style="fill:#262626;stroke:#262626;stroke-width:0.5;" x="90" xlink:href="#mb64122bff4" y="512.64"/>
      </g>
     </g>
    </g>
    <g id="xtick_11">
     <g id="line2d_19">
      <g>
       <use style="fill:#262626;stroke:#262626;stroke-width:0.5;" x="122.296744" xlink:href="#mb64122bff4" y="512.64"/>
      </g>
     </g>
    </g>
    <g id="xtick_12">
     <g id="line2d_20">
      <g>
       <use style="fill:#262626;stroke:#262626;stroke-width:0.5;" x="145.211648" xlink:href="#mb64122bff4" y="512.64"/>
      </g>
     </g>
    </g>
    <g id="xtick_13">
     <g id="line2d_21">
      <g>
       <use style="fill:#262626;stroke:#262626;stroke-width:0.5;" x="162.985829" xlink:href="#mb64122bff4" y="512.64"/>
      </g>
     </g>
    </g>
    <g id="xtick_14">
     <g id="line2d_22">
      <g>
       <use style="fill:#262626;stroke:#262626;stroke-width:0.5;" x="177.508392" xlink:href="#mb64122bff4" y="512.64"/>
      </g>
     </g>
    </g>
    <g id="xtick_15">
     <g id="line2d_23">
      <g>
       <use style="fill:#262626;stroke:#262626;stroke-width:0.5;" x="189.787045" xlink:href="#mb64122bff4" y="512.64"/>
      </g>
     </g>
    </g>
    <g id="xtick_16">
     <g id="line2d_24">
      <g>
       <use style="fill:#262626;stroke:#262626;stroke-width:0.5;" x="200.423297" xlink:href="#mb64122bff4" y="512.64"/>
      </g>
     </g>
    </g>
    <g id="xtick_17">
     <g id="line2d_25">
      <g>
       <use style="fill:#262626;stroke:#262626;stroke-width:0.5;" x="209.805136" xlink:href="#mb64122bff4" y="512.64"/>
      </g>
     </g>
    </g>
    <g id="xtick_18">
     <g id="line2d_26">
      <g>
       <use style="fill:#262626;stroke:#262626;stroke-width:0.5;" x="273.409126" xlink:href="#mb64122bff4" y="512.64"/>
      </g>
     </g>
    </g>
    <g id="xtick_19">
     <g id="line2d_27">
      <g>
       <use style="fill:#262626;stroke:#262626;stroke-width:0.5;" x="305.70587" xlink:href="#mb64122bff4" y="512.64"/>
      </g>
     </g>
    </g>
    <g id="xtick_20">
     <g id="line2d_28">
      <g>
       <use style="fill:#262626;stroke:#262626;stroke-width:0.5;" x="328.620775" xlink:href="#mb64122bff4" y="512.64"/>
      </g>
     </g>
    </g>
    <g id="xtick_21">
     <g id="line2d_29">
      <g>
       <use style="fill:#262626;stroke:#262626;stroke-width:0.5;" x="346.394955" xlink:href="#mb64122bff4" y="512.64"/>
      </g>
     </g>
    </g>
    <g id="xtick_22">
     <g id="line2d_30">
      <g>
       <use style="fill:#262626;stroke:#262626;stroke-width:0.5;" x="360.917518" xlink:href="#mb64122bff4" y="512.64"/>
      </g>
     </g>
    </g>
    <g id="xtick_23">
     <g id="line2d_31">
      <g>
       <use style="fill:#262626;stroke:#262626;stroke-width:0.5;" x="373.196171" xlink:href="#mb64122bff4" y="512.64"/>
      </g>
     </g>
    </g>
    <g id="xtick_24">
     <g id="line2d_32">
      <g>
       <use style="fill:#262626;stroke:#262626;stroke-width:0.5;" x="383.832423" xlink:href="#mb64122bff4" y="512.64"/>
      </g>
     </g>
    </g>
    <g id="xtick_25">
     <g id="line2d_33">
      <g>
       <use style="fill:#262626;stroke:#262626;stroke-width:0.5;" x="393.214262" xlink:href="#mb64122bff4" y="512.64"/>
      </g>
     </g>
    </g>
    <g id="xtick_26">
     <g id="line2d_34">
      <g>
       <use style="fill:#262626;stroke:#262626;stroke-width:0.5;" x="456.818252" xlink:href="#mb64122bff4" y="512.64"/>
      </g>
     </g>
    </g>
    <g id="xtick_27">
     <g id="line2d_35">
      <g>
       <use style="fill:#262626;stroke:#262626;stroke-width:0.5;" x="489.114996" xlink:href="#mb64122bff4" y="512.64"/>
      </g>
     </g>
    </g>
    <g id="xtick_28">
     <g id="line2d_36">
      <g>
       <use style="fill:#262626;stroke:#262626;stroke-width:0.5;" x="512.029901" xlink:href="#mb64122bff4" y="512.64"/>
      </g>
     </g>
    </g>
    <g id="xtick_29">
     <g id="line2d_37">
      <g>
       <use style="fill:#262626;stroke:#262626;stroke-width:0.5;" x="529.804081" xlink:href="#mb64122bff4" y="512.64"/>
      </g>
     </g>
    </g>
    <g id="xtick_30">
     <g id="line2d_38">
      <g>
       <use style="fill:#262626;stroke:#262626;stroke-width:0.5;" x="544.326645" xlink:href="#mb64122bff4" y="512.64"/>
      </g>
     </g>
    </g>
    <g id="xtick_31">
     <g id="line2d_39">
      <g>
       <use style="fill:#262626;stroke:#262626;stroke-width:0.5;" x="556.605297" xlink:href="#mb64122bff4" y="512.64"/>
      </g>
     </g>
    </g>
    <g id="xtick_32">
     <g id="line2d_40">
      <g>
       <use style="fill:#262626;stroke:#262626;stroke-width:0.5;" x="567.241549" xlink:href="#mb64122bff4" y="512.64"/>
      </g>
     </g>
    </g>
    <g id="xtick_33">
     <g id="line2d_41">
      <g>
       <use style="fill:#262626;stroke:#262626;stroke-width:0.5;" x="576.623389" xlink:href="#mb64122bff4" y="512.64"/>
      </g>
     </g>
    </g>
    <g id="xtick_34">
     <g id="line2d_42">
      <g>
       <use style="fill:#262626;stroke:#262626;stroke-width:0.5;" x="640.227378" xlink:href="#mb64122bff4" y="512.64"/>
      </g>
     </g>
    </g>
   </g>
   <g id="matplotlib.axis_4">
    <g id="ytick_8">
     <g id="line2d_43">
      <g>
       <use style="fill:#262626;stroke:#262626;" x="90" xlink:href="#m76593938ec" y="512.64"/>
      </g>
     </g>
     <g id="text_17">
      <!-- $\mathdefault{10^{-5}}$ -->
      <defs>
       <path d="M 4.15625 18.75 
L 13.375 19.53125 
Q 14.40625 12.796875 18.140625 9.390625 
Q 21.875 6 27.15625 6 
Q 33.5 6 37.890625 10.78125 
Q 42.28125 15.578125 42.28125 23.484375 
Q 42.28125 31 38.0625 35.34375 
Q 33.84375 39.703125 27 39.703125 
Q 22.75 39.703125 19.328125 37.765625 
Q 15.921875 35.84375 13.96875 32.765625 
L 5.71875 33.84375 
L 12.640625 70.609375 
L 48.25 70.609375 
L 48.25 62.203125 
L 19.671875 62.203125 
L 15.828125 42.96875 
Q 22.265625 47.46875 29.34375 47.46875 
Q 38.71875 47.46875 45.15625 40.96875 
Q 51.609375 34.46875 51.609375 24.265625 
Q 51.609375 14.546875 45.953125 7.46875 
Q 39.0625 -1.21875 27.15625 -1.21875 
Q 17.390625 -1.21875 11.203125 4.25 
Q 5.03125 9.71875 4.15625 18.75 
z
" id="ArialMT-35"/>
      </defs>
      <g style="fill:#262626;" transform="translate(57.2 517.74625)scale(0.1 -0.1)">
       <use transform="translate(0 0.879688)" xlink:href="#ArialMT-31"/>
       <use transform="translate(55.615234 0.879688)" xlink:href="#ArialMT-30"/>
       <use transform="translate(112.972813 70.573438)scale(0.7)" xlink:href="#ArialMT-2212"/>
       <use transform="translate(153.851719 70.573438)scale(0.7)" xlink:href="#ArialMT-35"/>
      </g>
     </g>
    </g>
    <g id="ytick_9">
     <g id="line2d_44">
      <g>
       <use style="fill:#262626;stroke:#262626;" x="90" xlink:href="#m76593938ec" y="465.767507"/>
      </g>
     </g>
     <g id="text_18">
      <!-- $\mathdefault{10^{-4}}$ -->
      <g style="fill:#262626;" transform="translate(57.2 470.873757)scale(0.1 -0.1)">
       <use transform="translate(0 0.201563)" xlink:href="#ArialMT-31"/>
       <use transform="translate(55.615234 0.201563)" xlink:href="#ArialMT-30"/>
       <use transform="translate(112.972813 69.895313)scale(0.7)" xlink:href="#ArialMT-2212"/>
       <use transform="translate(153.851719 69.895313)scale(0.7)" xlink:href="#ArialMT-34"/>
      </g>
     </g>
    </g>
    <g id="ytick_10">
     <g id="line2d_45">
      <g>
       <use style="fill:#262626;stroke:#262626;" x="90" xlink:href="#m76593938ec" y="418.895013"/>
      </g>
     </g>
     <g id="text_19">
      <!-- $\mathdefault{10^{-3}}$ -->
      <g style="fill:#262626;" transform="translate(57.2 424.051263)scale(0.1 -0.1)">
       <use transform="translate(0 0.99375)" xlink:href="#ArialMT-31"/>
       <use transform="translate(55.615234 0.99375)" xlink:href="#ArialMT-30"/>
       <use transform="translate(112.972813 70.6875)scale(0.7)" xlink:href="#ArialMT-2212"/>
       <use transform="translate(153.851719 70.6875)scale(0.7)" xlink:href="#ArialMT-33"/>
      </g>
     </g>
    </g>
    <g id="ytick_11">
     <g id="line2d_46">
      <g>
       <use style="fill:#262626;stroke:#262626;" x="90" xlink:href="#m76593938ec" y="372.02252"/>
      </g>
     </g>
     <g id="text_20">
      <!-- $\mathdefault{10^{-2}}$ -->
      <g style="fill:#262626;" transform="translate(57.2 377.17877)scale(0.1 -0.1)">
       <use transform="translate(0 0.99375)" xlink:href="#ArialMT-31"/>
       <use transform="translate(55.615234 0.99375)" xlink:href="#ArialMT-30"/>
       <use transform="translate(112.972813 70.6875)scale(0.7)" xlink:href="#ArialMT-2212"/>
       <use transform="translate(153.851719 70.6875)scale(0.7)" xlink:href="#ArialMT-32"/>
      </g>
     </g>
    </g>
    <g id="ytick_12">
     <g id="line2d_47">
      <g>
       <use style="fill:#262626;stroke:#262626;" x="90" xlink:href="#m76593938ec" y="325.150026"/>
      </g>
     </g>
     <g id="text_21">
      <!-- $\mathdefault{10^{-1}}$ -->
      <g style="fill:#262626;" transform="translate(57.2 330.306276)scale(0.1 -0.1)">
       <use transform="translate(0 0.99375)" xlink:href="#ArialMT-31"/>
       <use transform="translate(55.615234 0.99375)" xlink:href="#ArialMT-30"/>
       <use transform="translate(112.972813 70.6875)scale(0.7)" xlink:href="#ArialMT-2212"/>
       <use transform="translate(153.851719 70.6875)scale(0.7)" xlink:href="#ArialMT-31"/>
      </g>
     </g>
    </g>
    <g id="ytick_13">
     <g id="line2d_48">
      <defs>
       <path d="M 0 0 
L -3 0 
" id="mf7704eadb1" style="stroke:#262626;stroke-width:0.5;"/>
      </defs>
      <g>
       <use style="fill:#262626;stroke:#262626;stroke-width:0.5;" x="90" xlink:href="#mf7704eadb1" y="498.529974"/>
      </g>
     </g>
    </g>
    <g id="ytick_14">
     <g id="line2d_49">
      <g>
       <use style="fill:#262626;stroke:#262626;stroke-width:0.5;" x="90" xlink:href="#mf7704eadb1" y="490.276137"/>
      </g>
     </g>
    </g>
    <g id="ytick_15">
     <g id="line2d_50">
      <g>
       <use style="fill:#262626;stroke:#262626;stroke-width:0.5;" x="90" xlink:href="#mf7704eadb1" y="484.419947"/>
      </g>
     </g>
    </g>
    <g id="ytick_16">
     <g id="line2d_51">
      <g>
       <use style="fill:#262626;stroke:#262626;stroke-width:0.5;" x="90" xlink:href="#mf7704eadb1" y="479.877533"/>
      </g>
     </g>
    </g>
    <g id="ytick_17">
     <g id="line2d_52">
      <g>
       <use style="fill:#262626;stroke:#262626;stroke-width:0.5;" x="90" xlink:href="#mf7704eadb1" y="476.166111"/>
      </g>
     </g>
    </g>
    <g id="ytick_18">
     <g id="line2d_53">
      <g>
       <use style="fill:#262626;stroke:#262626;stroke-width:0.5;" x="90" xlink:href="#mf7704eadb1" y="473.028148"/>
      </g>
     </g>
    </g>
    <g id="ytick_19">
     <g id="line2d_54">
      <g>
       <use style="fill:#262626;stroke:#262626;stroke-width:0.5;" x="90" xlink:href="#mf7704eadb1" y="470.309921"/>
      </g>
     </g>
    </g>
    <g id="ytick_20">
     <g id="line2d_55">
      <g>
       <use style="fill:#262626;stroke:#262626;stroke-width:0.5;" x="90" xlink:href="#mf7704eadb1" y="467.912274"/>
      </g>
     </g>
    </g>
    <g id="ytick_21">
     <g id="line2d_56">
      <g>
       <use style="fill:#262626;stroke:#262626;stroke-width:0.5;" x="90" xlink:href="#mf7704eadb1" y="451.65748"/>
      </g>
     </g>
    </g>
    <g id="ytick_22">
     <g id="line2d_57">
      <g>
       <use style="fill:#262626;stroke:#262626;stroke-width:0.5;" x="90" xlink:href="#mf7704eadb1" y="443.403644"/>
      </g>
     </g>
    </g>
    <g id="ytick_23">
     <g id="line2d_58">
      <g>
       <use style="fill:#262626;stroke:#262626;stroke-width:0.5;" x="90" xlink:href="#mf7704eadb1" y="437.547454"/>
      </g>
     </g>
    </g>
    <g id="ytick_24">
     <g id="line2d_59">
      <g>
       <use style="fill:#262626;stroke:#262626;stroke-width:0.5;" x="90" xlink:href="#mf7704eadb1" y="433.00504"/>
      </g>
     </g>
    </g>
    <g id="ytick_25">
     <g id="line2d_60">
      <g>
       <use style="fill:#262626;stroke:#262626;stroke-width:0.5;" x="90" xlink:href="#mf7704eadb1" y="429.293617"/>
      </g>
     </g>
    </g>
    <g id="ytick_26">
     <g id="line2d_61">
      <g>
       <use style="fill:#262626;stroke:#262626;stroke-width:0.5;" x="90" xlink:href="#mf7704eadb1" y="426.155654"/>
      </g>
     </g>
    </g>
    <g id="ytick_27">
     <g id="line2d_62">
      <g>
       <use style="fill:#262626;stroke:#262626;stroke-width:0.5;" x="90" xlink:href="#mf7704eadb1" y="423.437427"/>
      </g>
     </g>
    </g>
    <g id="ytick_28">
     <g id="line2d_63">
      <g>
       <use style="fill:#262626;stroke:#262626;stroke-width:0.5;" x="90" xlink:href="#mf7704eadb1" y="421.039781"/>
      </g>
     </g>
    </g>
    <g id="ytick_29">
     <g id="line2d_64">
      <g>
       <use style="fill:#262626;stroke:#262626;stroke-width:0.5;" x="90" xlink:href="#mf7704eadb1" y="404.784987"/>
      </g>
     </g>
    </g>
    <g id="ytick_30">
     <g id="line2d_65">
      <g>
       <use style="fill:#262626;stroke:#262626;stroke-width:0.5;" x="90" xlink:href="#mf7704eadb1" y="396.53115"/>
      </g>
     </g>
    </g>
    <g id="ytick_31">
     <g id="line2d_66">
      <g>
       <use style="fill:#262626;stroke:#262626;stroke-width:0.5;" x="90" xlink:href="#mf7704eadb1" y="390.67496"/>
      </g>
     </g>
    </g>
    <g id="ytick_32">
     <g id="line2d_67">
      <g>
       <use style="fill:#262626;stroke:#262626;stroke-width:0.5;" x="90" xlink:href="#mf7704eadb1" y="386.132546"/>
      </g>
     </g>
    </g>
    <g id="ytick_33">
     <g id="line2d_68">
      <g>
       <use style="fill:#262626;stroke:#262626;stroke-width:0.5;" x="90" xlink:href="#mf7704eadb1" y="382.421124"/>
      </g>
     </g>
    </g>
    <g id="ytick_34">
     <g id="line2d_69">
      <g>
       <use style="fill:#262626;stroke:#262626;stroke-width:0.5;" x="90" xlink:href="#mf7704eadb1" y="379.283161"/>
      </g>
     </g>
    </g>
    <g id="ytick_35">
     <g id="line2d_70">
      <g>
       <use style="fill:#262626;stroke:#262626;stroke-width:0.5;" x="90" xlink:href="#mf7704eadb1" y="376.564934"/>
      </g>
     </g>
    </g>
    <g id="ytick_36">
     <g id="line2d_71">
      <g>
       <use style="fill:#262626;stroke:#262626;stroke-width:0.5;" x="90" xlink:href="#mf7704eadb1" y="374.167288"/>
      </g>
     </g>
    </g>
    <g id="ytick_37">
     <g id="line2d_72">
      <g>
       <use style="fill:#262626;stroke:#262626;stroke-width:0.5;" x="90" xlink:href="#mf7704eadb1" y="357.912493"/>
      </g>
     </g>
    </g>
    <g id="ytick_38">
     <g id="line2d_73">
      <g>
       <use style="fill:#262626;stroke:#262626;stroke-width:0.5;" x="90" xlink:href="#mf7704eadb1" y="349.658657"/>
      </g>
     </g>
    </g>
    <g id="ytick_39">
     <g id="line2d_74">
      <g>
       <use style="fill:#262626;stroke:#262626;stroke-width:0.5;" x="90" xlink:href="#mf7704eadb1" y="343.802467"/>
      </g>
     </g>
    </g>
    <g id="ytick_40">
     <g id="line2d_75">
      <g>
       <use style="fill:#262626;stroke:#262626;stroke-width:0.5;" x="90" xlink:href="#mf7704eadb1" y="339.260053"/>
      </g>
     </g>
    </g>
    <g id="ytick_41">
     <g id="line2d_76">
      <g>
       <use style="fill:#262626;stroke:#262626;stroke-width:0.5;" x="90" xlink:href="#mf7704eadb1" y="335.548631"/>
      </g>
     </g>
    </g>
    <g id="ytick_42">
     <g id="line2d_77">
      <g>
       <use style="fill:#262626;stroke:#262626;stroke-width:0.5;" x="90" xlink:href="#mf7704eadb1" y="332.410668"/>
      </g>
     </g>
    </g>
    <g id="ytick_43">
     <g id="line2d_78">
      <g>
       <use style="fill:#262626;stroke:#262626;stroke-width:0.5;" x="90" xlink:href="#mf7704eadb1" y="329.69244"/>
      </g>
     </g>
    </g>
    <g id="ytick_44">
     <g id="line2d_79">
      <g>
       <use style="fill:#262626;stroke:#262626;stroke-width:0.5;" x="90" xlink:href="#mf7704eadb1" y="327.294794"/>
      </g>
     </g>
    </g>
    <g id="ytick_45">
     <g id="line2d_80">
      <g>
       <use style="fill:#262626;stroke:#262626;stroke-width:0.5;" x="90" xlink:href="#mf7704eadb1" y="311.04"/>
      </g>
     </g>
    </g>
   </g>
   <g id="line2d_81">
    <path clip-path="url(#p432745829b)" d="M -1 374.713745 
L 151.095164 374.716332 
L 206.306812 397.9968 
L 238.603556 436.981034 
L 261.518461 381.19632 
L 279.292642 381.033783 
L 293.815205 318.810753 
L 306.093857 380.450643 
L 316.730109 387.253394 
L 326.111949 411.586378 
L 334.50429 400.797628 
L 342.096086 404.724195 
L 349.026853 371.726185 
L 355.402541 388.148227 
L 361.305505 424.723103 
L 366.801034 414.903607 
L 371.941758 416.830806 
L 376.770725 400.458335 
L 381.323597 343.70849 
L 385.630245 375.276657 
L 389.715939 383.81654 
L 393.602249 385.634389 
L 397.307735 380.97413 
L 400.848476 369.096372 
L 404.238502 336.402257 
L 407.490119 359.94268 
L 410.614189 375.668606 
L 413.620341 381.292339 
L 416.517154 381.97359 
L 419.312303 377.430384 
L 422.012683 350.152351 
L 424.624509 365.9926 
L 427.153406 382.8674 
L 429.604479 388.759625 
L 431.982374 391.183385 
L 434.291335 387.446724 
L 436.535246 371.082268 
L 438.717672 387.208331 
L 440.841893 434.187509 
L 442.910933 415.266785 
L 444.927587 407.016275 
L 446.894442 398.150901 
L 448.813898 380.411221 
L 450.688186 365.301555 
L 452.519383 396.222414 
L 454.309426 409.294906 
L 456.060125 413.630895 
L 457.773171 428.343119 
L 459.45015 438.919129 
L 461.09255 387.749899 
L 462.701768 418.670882 
L 464.279118 435.001083 
L 465.825838 436.611051 
L 467.343094 428.480389 
L 468.83199 437.922 
L 470.293564 388.24724 
L 471.728802 424.176411 
L 473.138637 449.905618 
L 474.523951 441.935742 
L 475.885584 449.69206 
L 477.224331 456.323308 
L 478.540949 437.695621 
L 479.836157 434.489108 
L 481.110642 487.994221 
L 482.365055 465.019899 
L 483.600019 454.409823 
L 484.816127 453.014505 
L 486.013948 442.53891 
L 487.194022 415.870472 
L 488.356869 464.710027 
L 489.502983 440.502166 
L 490.63284 438.684032 
L 491.746894 430.558987 
L 492.845581 417.804402 
L 493.92932 396.964031 
L 494.998512 399.838133 
L 496.053541 422.528285 
L 497.094779 433.548294 
L 498.122582 439.542818 
L 499.137291 433.777027 
L 500.139235 468.582503 
L 501.128734 409.328222 
L 502.10609 435.497182 
L 504.025546 453.592366 
L 504.968203 460.409566 
L 505.899834 441.265179 
L 506.820695 441.313813 
L 507.731032 428.991732 
L 508.631082 439.312556 
L 509.521075 429.553471 
L 510.401234 412.695478 
L 511.271773 408.853844 
L 512.132901 427.758167 
L 513.827722 407.910141 
L 514.661799 428.210349 
L 515.487232 433.972781 
L 516.304198 440.655033 
L 517.112871 440.147462 
L 517.913416 451.655505 
L 518.705996 444.323251 
L 519.490766 473.717899 
L 520.26788 461.435704 
L 521.037486 472.986941 
L 521.799727 459.491343 
L 522.554743 451.112784 
L 523.302669 445.647477 
L 524.043638 421.310229 
L 524.777778 431.563972 
L 525.505212 444.021706 
L 526.226064 449.221782 
L 526.940451 452.210627 
L 527.648487 450.739503 
L 528.350285 447.787273 
L 529.045954 431.827116 
L 529.7356 478.062159 
L 530.419326 468.168307 
L 531.097232 463.7965 
L 531.769418 461.671521 
L 532.435979 461.093763 
L 533.097009 455.792594 
L 533.752597 439.842539 
L 534.402834 436.059158 
L 535.047806 454.945438 
L 535.687597 460.699746 
L 536.32229 465.115491 
L 538.196578 454.627374 
L 538.811667 439.487262 
L 539.422042 518.690613 
L 540.027776 477.256676 
L 540.628938 482.152646 
L 541.225596 482.93266 
L 541.817819 479.724094 
L 542.989216 467.539781 
L 543.568517 468.877364 
L 544.143636 473.532286 
L 545.281563 471.610088 
L 545.844488 467.699557 
L 546.403463 462.372101 
L 546.958543 447.470339 
L 547.509781 428.899207 
L 548.05723 455.167369 
L 548.600942 463.75826 
L 549.140969 467.696466 
L 549.677358 478.593357 
L 550.21016 480.117707 
L 550.739422 494.973248 
L 551.26519 456.601089 
L 551.78751 444.480132 
L 552.821987 462.589291 
L 553.33423 464.61034 
L 553.8432 465.87409 
L 554.348939 473.250526 
L 554.851487 473.39338 
L 555.350884 462.799023 
L 555.847169 462.27451 
L 556.340382 474.182211 
L 556.830559 475.903752 
L 557.317739 470.377605 
L 558.283248 473.599041 
L 558.76165 477.377065 
L 559.237195 473.808623 
L 559.709918 476.240481 
L 560.179852 480.396033 
L 560.647029 477.488645 
L 561.111483 481.514735 
L 561.573244 488.751749 
L 562.032344 480.428173 
L 562.488812 443.888366 
L 562.94268 439.685704 
L 563.393976 450.516465 
L 563.84273 456.066151 
L 564.732723 462.491859 
L 565.174019 467.498946 
L 565.612882 463.643897 
L 566.049341 475.222923 
L 566.483422 473.687476 
L 566.91515 461.356998 
L 567.34455 467.877251 
L 567.771648 468.663618 
L 568.196468 465.986077 
L 568.619034 468.224713 
L 569.039371 467.960161 
L 569.873447 469.140334 
L 570.287233 466.397822 
L 570.69888 472.180806 
L 571.108411 468.998536 
L 571.515847 464.197437 
L 571.921209 473.37587 
L 572.32452 474.817838 
L 572.725798 473.549945 
L 573.125065 473.210781 
L 573.917644 455.981427 
L 574.310996 469.231353 
L 574.702415 470.573508 
L 575.091919 471.222799 
L 575.479529 476.636273 
L 575.865261 479.8232 
L 576.249135 470.966222 
L 576.631167 469.491682 
L 577.011376 468.720438 
L 577.389778 473.206375 
L 577.766391 467.397043 
L 578.141232 473.511172 
L 578.514318 473.044818 
L 578.885664 473.500411 
L 579.255287 476.303802 
L 579.623202 476.190381 
L 579.989426 474.673837 
L 580.353974 470.686067 
L 581.078102 478.544193 
L 581.437713 477.474253 
L 581.795707 472.116989 
L 582.152099 464.316191 
L 582.506904 470.944078 
L 582.860136 472.881386 
L 583.211808 473.78186 
L 583.561934 471.317653 
L 583.910528 474.811334 
L 584.257603 472.505936 
L 584.603172 484.274592 
L 584.947248 469.076849 
L 585.289845 475.813246 
L 585.630974 476.473959 
L 585.970649 472.861679 
L 586.308881 477.334236 
L 586.645683 477.21419 
L 586.981067 482.126869 
L 587.315045 479.990419 
L 587.647628 476.015023 
L 587.978828 476.040485 
L 588.308657 475.375916 
L 588.637126 480.067337 
L 588.964246 475.73921 
L 589.290028 474.371288 
L 589.614483 471.693716 
L 589.937621 478.944968 
L 590.259454 477.411205 
L 590.579992 475.144141 
L 590.899246 476.207476 
L 591.217224 483.125944 
L 591.533939 478.17076 
L 591.849399 477.042773 
L 592.163614 473.120228 
L 592.476596 474.909721 
L 592.788352 472.658129 
L 593.098892 488.328668 
L 593.408227 491.10604 
L 594.023315 475.032821 
L 594.329088 479.958025 
L 594.633691 472.832923 
L 594.937133 492.960301 
L 595.239424 481.466471 
L 595.540572 482.690529 
L 595.840586 482.999406 
L 596.139474 470.682237 
L 596.437245 483.113102 
L 596.733906 478.441001 
L 597.029467 481.759608 
L 597.323936 483.593749 
L 597.617319 473.80553 
L 597.909626 474.38311 
L 598.200864 479.319355 
L 598.491042 481.755787 
L 598.780166 481.980771 
L 599.068244 473.901338 
L 599.355284 474.208353 
L 600.21025 494.529985 
L 600.493212 487.339406 
L 600.775172 474.443841 
L 601.056137 479.737006 
L 601.336115 480.579402 
L 601.615112 485.328707 
L 601.893135 475.341546 
L 602.170191 472.030967 
L 602.721429 486.756666 
L 603.268878 473.860888 
L 603.812591 476.088844 
L 604.083062 473.633086 
L 604.621264 483.163291 
L 604.889007 473.017494 
L 605.155853 484.136406 
L 605.421809 477.774609 
L 605.686879 478.838232 
L 605.95107 488.400997 
L 606.214388 474.88908 
L 606.476838 473.031828 
L 606.738427 487.434474 
L 606.999159 480.083003 
L 607.25904 483.654229 
L 607.518076 477.011811 
L 607.776273 485.304206 
L 608.033635 485.946987 
L 608.290169 479.153652 
L 608.545879 494.105922 
L 608.80077 472.125044 
L 609.054849 479.57591 
L 609.308119 481.916354 
L 609.560587 474.937864 
L 609.812258 478.971132 
L 610.063135 478.453033 
L 610.313225 480.050012 
L 610.562532 472.976456 
L 611.058818 502.304634 
L 611.305806 482.888617 
L 611.55203 482.056146 
L 611.797496 496.192778 
L 612.042208 475.253538 
L 612.28617 474.235675 
L 612.771864 494.934239 
L 613.254614 475.627707 
L 613.494897 476.170672 
L 613.973298 486.598995 
L 614.211426 482.315596 
L 614.685555 490.360761 
L 614.921566 488.634459 
L 615.15688 487.865195 
L 615.3915 487.498357 
L 615.625431 495.285137 
L 615.858678 481.872493 
L 616.091243 476.870379 
L 616.323131 489.459988 
L 616.554347 481.032268 
L 617.472553 477.151514 
L 617.927718 495.899783 
L 618.154329 493.899001 
L 618.380296 482.699383 
L 618.605625 492.963421 
L 618.830318 478.280654 
L 619.054379 496.567481 
L 619.277811 484.856304 
L 619.500618 486.772383 
L 619.722804 494.409531 
L 619.944372 492.808905 
L 620.165325 481.454244 
L 620.385667 486.124358 
L 620.605401 477.309574 
L 620.824531 489.259597 
L 621.26099 473.500162 
L 621.478326 481.592149 
L 621.69507 478.21119 
L 621.911227 471.376911 
L 622.341787 491.281867 
L 622.556198 486.393379 
L 622.770034 476.450106 
L 622.983296 478.008908 
L 623.195989 499.806972 
L 623.408116 494.717705 
L 623.61968 483.972958 
L 623.830683 480.801318 
L 624.041128 486.353818 
L 624.251019 480.248314 
L 624.460358 486.622829 
L 624.877394 482.701165 
L 625.085096 478.132472 
L 625.292257 477.002635 
L 625.498881 479.66704 
L 625.704971 488.521047 
L 625.910528 502.468775 
L 626.320059 481.817881 
L 626.524038 503.925235 
L 626.727495 485.707053 
L 626.930435 504.319417 
L 627.132858 487.347954 
L 627.334768 492.603514 
L 627.536168 479.869631 
L 627.937446 491.083588 
L 628.13733 480.217346 
L 628.336713 503.859829 
L 628.535599 495.287826 
L 628.733989 481.206883 
L 629.129293 477.595799 
L 629.326211 483.132806 
L 629.522644 482.146292 
L 629.718594 479.754984 
L 629.914063 481.530268 
L 630.109054 481.084044 
L 630.303568 484.046003 
L 630.497608 479.532738 
L 630.691177 483.232876 
L 630.884277 494.606373 
L 631.460783 481.822735 
L 631.652028 481.966055 
L 631.842815 491.940035 
L 632.033146 481.011107 
L 632.223024 479.484483 
L 632.41245 490.245069 
L 632.601426 480.133644 
L 632.789956 481.058083 
L 632.97804 477.096762 
L 633.165681 486.5496 
L 633.725966 473.794904 
L 634.097312 481.373772 
L 634.282338 500.145713 
L 634.466935 494.300722 
L 634.651105 478.365545 
L 634.83485 478.290308 
L 635.018173 478.47552 
L 635.201074 501.701817 
L 635.383557 479.847191 
L 635.565622 474.813218 
L 635.747272 473.04445 
L 636.109335 485.904667 
L 636.289751 479.100594 
L 636.469759 502.927304 
L 636.649361 477.992901 
L 637.185751 492.511779 
L 637.363748 475.778703 
L 637.541348 474.573635 
L 637.718553 480.32795 
L 638.071784 506.431323 
L 638.247814 482.173163 
L 638.423456 486.244956 
L 638.598712 519.703723 
L 638.773582 489.911898 
L 638.94807 479.400221 
L 639.122176 476.155696 
L 639.295903 475.514385 
L 639.469251 496.556817 
L 639.642223 486.877419 
L 639.81482 487.522023 
L 639.987044 485.634633 
L 640.158897 477.920622 
L 640.501493 481.306362 
L 640.842622 493.101665 
L 641.012641 475.266174 
L 641.182297 478.285403 
L 641.351593 496.052307 
L 641.520529 477.239927 
L 641.689108 513.604944 
L 641.857331 504.597041 
L 642.0252 481.558884 
L 642.192715 498.75668 
L 642.359879 479.991992 
L 642.526693 490.831716 
L 642.693158 481.399286 
L 642.859276 480.341517 
L 643.190477 482.787236 
L 643.355562 481.600867 
L 643.520306 488.8866 
L 643.684709 486.805968 
L 643.848774 488.364543 
L 644.012502 477.947401 
L 644.175894 490.936685 
L 644.338952 491.091242 
L 644.664069 479.863222 
L 644.826131 483.445639 
L 644.987864 483.444574 
L 645.14927 477.292099 
L 645.310349 475.58091 
L 645.471103 485.895498 
L 645.631533 486.42502 
L 645.791641 491.72667 
L 645.951427 492.754981 
L 646.110894 477.880903 
L 646.428873 488.982296 
L 646.745587 480.400867 
L 646.903473 490.091215 
L 647.21831 478.709861 
L 647.531907 493.868938 
L 647.688244 485.160745 
L 647.844274 494.814278 
L 647.844274 494.814278 
" style="fill:none;stroke:#b22222;stroke-linecap:round;stroke-width:1.75;"/>
   </g>
   <g id="patch_6">
    <path d="M 90 512.64 
L 90 311.04 
" style="fill:none;stroke:#262626;stroke-linecap:square;stroke-linejoin:miter;stroke-width:1.25;"/>
   </g>
   <g id="patch_7">
    <path d="M 90 512.64 
L 648 512.64 
" style="fill:none;stroke:#262626;stroke-linecap:square;stroke-linejoin:miter;stroke-width:1.25;"/>
   </g>
  </g>
 </g>
 <defs>
  <clipPath id="p30140598a8">
   <rect height="201.6" width="558" x="90" y="69.12"/>
  </clipPath>
  <clipPath id="p432745829b">
   <rect height="201.6" width="558" x="90" y="311.04"/>
  </clipPath>
 </defs>
</svg>
