<?xml version="1.0" encoding="utf-8" standalone="no"?>
<!DOCTYPE svg PUBLIC "-//W3C//DTD SVG 1.1//EN"
  "http://www.w3.org/Graphics/SVG/1.1/DTD/svg11.dtd">
<!-- Created with matplotlib (http://matplotlib.org/) -->
<svg height="576pt" version="1.1" viewBox="0 0 720 576" width="720pt" xmlns="http://www.w3.org/2000/svg" xmlns:xlink="http://www.w3.org/1999/xlink">
 <defs>
  <style type="text/css">
*{stroke-linecap:butt;stroke-linejoin:round;}
  </style>
 </defs>
 <g id="figure_1">
  <g id="patch_1">
   <path d="M 0 576 
L 720 576 
L 720 0 
L 0 0 
z
" style="fill:#ffffff;"/>
  </g>
  <g id="axes_1">
   <g id="patch_2">
    <path d="M 90 270.72 
L 648 270.72 
L 648 69.12 
L 90 69.12 
z
" style="fill:#ffffff;"/>
   </g>
   <g id="matplotlib.axis_1">
    <g id="xtick_1">
     <g id="line2d_1">
      <defs>
       <path d="M 0 0 
L 0 6 
" id="m0ac9d4cc91" style="stroke:#262626;"/>
      </defs>
      <g>
       <use style="fill:#262626;stroke:#262626;" x="90" xlink:href="#m0ac9d4cc91" y="270.72"/>
      </g>
     </g>
     <g id="text_1">
      <!-- 0 -->
      <defs>
       <path d="M 4.15625 35.296875 
Q 4.15625 48 6.765625 55.734375 
Q 9.375 63.484375 14.515625 67.671875 
Q 19.671875 71.875 27.484375 71.875 
Q 33.25 71.875 37.59375 69.546875 
Q 41.9375 67.234375 44.765625 62.859375 
Q 47.609375 58.5 49.21875 52.21875 
Q 50.828125 45.953125 50.828125 35.296875 
Q 50.828125 22.703125 48.234375 14.96875 
Q 45.65625 7.234375 40.5 3 
Q 35.359375 -1.21875 27.484375 -1.21875 
Q 17.140625 -1.21875 11.234375 6.203125 
Q 4.15625 15.140625 4.15625 35.296875 
z
M 13.1875 35.296875 
Q 13.1875 17.671875 17.3125 11.828125 
Q 21.4375 6 27.484375 6 
Q 33.546875 6 37.671875 11.859375 
Q 41.796875 17.71875 41.796875 35.296875 
Q 41.796875 52.984375 37.671875 58.78125 
Q 33.546875 64.59375 27.390625 64.59375 
Q 21.34375 64.59375 17.71875 59.46875 
Q 13.1875 52.9375 13.1875 35.296875 
z
" id="ArialMT-30"/>
      </defs>
      <g style="fill:#262626;" transform="translate(87.219531 290.877812)scale(0.1 -0.1)">
       <use xlink:href="#ArialMT-30"/>
      </g>
     </g>
    </g>
    <g id="xtick_2">
     <g id="line2d_2">
      <g>
       <use style="fill:#262626;stroke:#262626;" x="198.984375" xlink:href="#m0ac9d4cc91" y="270.72"/>
      </g>
     </g>
     <g id="text_2">
      <!-- 200 -->
      <defs>
       <path d="M 50.34375 8.453125 
L 50.34375 0 
L 3.03125 0 
Q 2.9375 3.171875 4.046875 6.109375 
Q 5.859375 10.9375 9.828125 15.625 
Q 13.8125 20.3125 21.34375 26.46875 
Q 33.015625 36.03125 37.109375 41.625 
Q 41.21875 47.21875 41.21875 52.203125 
Q 41.21875 57.421875 37.46875 61 
Q 33.734375 64.59375 27.734375 64.59375 
Q 21.390625 64.59375 17.578125 60.78125 
Q 13.765625 56.984375 13.71875 50.25 
L 4.6875 51.171875 
Q 5.609375 61.28125 11.65625 66.578125 
Q 17.71875 71.875 27.9375 71.875 
Q 38.234375 71.875 44.234375 66.15625 
Q 50.25 60.453125 50.25 52 
Q 50.25 47.703125 48.484375 43.546875 
Q 46.734375 39.40625 42.65625 34.8125 
Q 38.578125 30.21875 29.109375 22.21875 
Q 21.1875 15.578125 18.9375 13.203125 
Q 16.703125 10.84375 15.234375 8.453125 
z
" id="ArialMT-32"/>
      </defs>
      <g style="fill:#262626;" transform="translate(190.642969 290.877812)scale(0.1 -0.1)">
       <use xlink:href="#ArialMT-32"/>
       <use x="55.615234" xlink:href="#ArialMT-30"/>
       <use x="111.230469" xlink:href="#ArialMT-30"/>
      </g>
     </g>
    </g>
    <g id="xtick_3">
     <g id="line2d_3">
      <g>
       <use style="fill:#262626;stroke:#262626;" x="307.96875" xlink:href="#m0ac9d4cc91" y="270.72"/>
      </g>
     </g>
     <g id="text_3">
      <!-- 400 -->
      <defs>
       <path d="M 32.328125 0 
L 32.328125 17.140625 
L 1.265625 17.140625 
L 1.265625 25.203125 
L 33.9375 71.578125 
L 41.109375 71.578125 
L 41.109375 25.203125 
L 50.78125 25.203125 
L 50.78125 17.140625 
L 41.109375 17.140625 
L 41.109375 0 
z
M 32.328125 25.203125 
L 32.328125 57.46875 
L 9.90625 25.203125 
z
" id="ArialMT-34"/>
      </defs>
      <g style="fill:#262626;" transform="translate(299.627344 290.877812)scale(0.1 -0.1)">
       <use xlink:href="#ArialMT-34"/>
       <use x="55.615234" xlink:href="#ArialMT-30"/>
       <use x="111.230469" xlink:href="#ArialMT-30"/>
      </g>
     </g>
    </g>
    <g id="xtick_4">
     <g id="line2d_4">
      <g>
       <use style="fill:#262626;stroke:#262626;" x="416.953125" xlink:href="#m0ac9d4cc91" y="270.72"/>
      </g>
     </g>
     <g id="text_4">
      <!-- 600 -->
      <defs>
       <path d="M 49.75 54.046875 
L 41.015625 53.375 
Q 39.84375 58.546875 37.703125 60.890625 
Q 34.125 64.65625 28.90625 64.65625 
Q 24.703125 64.65625 21.53125 62.3125 
Q 17.390625 59.28125 14.984375 53.46875 
Q 12.59375 47.65625 12.5 36.921875 
Q 15.671875 41.75 20.265625 44.09375 
Q 24.859375 46.4375 29.890625 46.4375 
Q 38.671875 46.4375 44.84375 39.96875 
Q 51.03125 33.5 51.03125 23.25 
Q 51.03125 16.5 48.125 10.71875 
Q 45.21875 4.9375 40.140625 1.859375 
Q 35.0625 -1.21875 28.609375 -1.21875 
Q 17.625 -1.21875 10.6875 6.859375 
Q 3.765625 14.9375 3.765625 33.5 
Q 3.765625 54.25 11.421875 63.671875 
Q 18.109375 71.875 29.4375 71.875 
Q 37.890625 71.875 43.28125 67.140625 
Q 48.6875 62.40625 49.75 54.046875 
z
M 13.875 23.1875 
Q 13.875 18.65625 15.796875 14.5 
Q 17.71875 10.359375 21.1875 8.171875 
Q 24.65625 6 28.46875 6 
Q 34.03125 6 38.03125 10.484375 
Q 42.046875 14.984375 42.046875 22.703125 
Q 42.046875 30.125 38.078125 34.390625 
Q 34.125 38.671875 28.125 38.671875 
Q 22.171875 38.671875 18.015625 34.390625 
Q 13.875 30.125 13.875 23.1875 
z
" id="ArialMT-36"/>
      </defs>
      <g style="fill:#262626;" transform="translate(408.611719 290.877812)scale(0.1 -0.1)">
       <use xlink:href="#ArialMT-36"/>
       <use x="55.615234" xlink:href="#ArialMT-30"/>
       <use x="111.230469" xlink:href="#ArialMT-30"/>
      </g>
     </g>
    </g>
    <g id="xtick_5">
     <g id="line2d_5">
      <g>
       <use style="fill:#262626;stroke:#262626;" x="525.9375" xlink:href="#m0ac9d4cc91" y="270.72"/>
      </g>
     </g>
     <g id="text_5">
      <!-- 800 -->
      <defs>
       <path d="M 17.671875 38.8125 
Q 12.203125 40.828125 9.5625 44.53125 
Q 6.9375 48.25 6.9375 53.421875 
Q 6.9375 61.234375 12.546875 66.546875 
Q 18.171875 71.875 27.484375 71.875 
Q 36.859375 71.875 42.578125 66.421875 
Q 48.296875 60.984375 48.296875 53.171875 
Q 48.296875 48.1875 45.671875 44.5 
Q 43.0625 40.828125 37.75 38.8125 
Q 44.34375 36.671875 47.78125 31.875 
Q 51.21875 27.09375 51.21875 20.453125 
Q 51.21875 11.28125 44.71875 5.03125 
Q 38.234375 -1.21875 27.640625 -1.21875 
Q 17.046875 -1.21875 10.546875 5.046875 
Q 4.046875 11.328125 4.046875 20.703125 
Q 4.046875 27.6875 7.59375 32.390625 
Q 11.140625 37.109375 17.671875 38.8125 
z
M 15.921875 53.71875 
Q 15.921875 48.640625 19.1875 45.40625 
Q 22.46875 42.1875 27.6875 42.1875 
Q 32.765625 42.1875 36.015625 45.375 
Q 39.265625 48.578125 39.265625 53.21875 
Q 39.265625 58.0625 35.90625 61.359375 
Q 32.5625 64.65625 27.59375 64.65625 
Q 22.5625 64.65625 19.234375 61.421875 
Q 15.921875 58.203125 15.921875 53.71875 
z
M 13.09375 20.65625 
Q 13.09375 16.890625 14.875 13.375 
Q 16.65625 9.859375 20.171875 7.921875 
Q 23.6875 6 27.734375 6 
Q 34.03125 6 38.125 10.046875 
Q 42.234375 14.109375 42.234375 20.359375 
Q 42.234375 26.703125 38.015625 30.859375 
Q 33.796875 35.015625 27.4375 35.015625 
Q 21.234375 35.015625 17.15625 30.90625 
Q 13.09375 26.8125 13.09375 20.65625 
z
" id="ArialMT-38"/>
      </defs>
      <g style="fill:#262626;" transform="translate(517.596094 290.877812)scale(0.1 -0.1)">
       <use xlink:href="#ArialMT-38"/>
       <use x="55.615234" xlink:href="#ArialMT-30"/>
       <use x="111.230469" xlink:href="#ArialMT-30"/>
      </g>
     </g>
    </g>
    <g id="xtick_6">
     <g id="line2d_6">
      <g>
       <use style="fill:#262626;stroke:#262626;" x="634.921875" xlink:href="#m0ac9d4cc91" y="270.72"/>
      </g>
     </g>
     <g id="text_6">
      <!-- 1000 -->
      <defs>
       <path d="M 37.25 0 
L 28.46875 0 
L 28.46875 56 
Q 25.296875 52.984375 20.140625 49.953125 
Q 14.984375 46.921875 10.890625 45.40625 
L 10.890625 53.90625 
Q 18.265625 57.375 23.78125 62.296875 
Q 29.296875 67.234375 31.59375 71.875 
L 37.25 71.875 
z
" id="ArialMT-31"/>
      </defs>
      <g style="fill:#262626;" transform="translate(623.8 290.877812)scale(0.1 -0.1)">
       <use xlink:href="#ArialMT-31"/>
       <use x="55.615234" xlink:href="#ArialMT-30"/>
       <use x="111.230469" xlink:href="#ArialMT-30"/>
       <use x="166.845703" xlink:href="#ArialMT-30"/>
      </g>
     </g>
    </g>
   </g>
   <g id="matplotlib.axis_2">
    <g id="ytick_1">
     <g id="line2d_7">
      <defs>
       <path d="M 0 0 
L -6 0 
" id="m206e90326d" style="stroke:#262626;"/>
      </defs>
      <g>
       <use style="fill:#262626;stroke:#262626;" x="90" xlink:href="#m206e90326d" y="270.72"/>
      </g>
     </g>
     <g id="text_7">
      <!-- −0.6 -->
      <defs>
       <path d="M 52.828125 31.203125 
L 5.5625 31.203125 
L 5.5625 39.40625 
L 52.828125 39.40625 
z
" id="ArialMT-2212"/>
       <path d="M 9.078125 0 
L 9.078125 10.015625 
L 19.09375 10.015625 
L 19.09375 0 
z
" id="ArialMT-2e"/>
      </defs>
      <g style="fill:#262626;" transform="translate(57.259375 274.298906)scale(0.1 -0.1)">
       <use xlink:href="#ArialMT-2212"/>
       <use x="58.398438" xlink:href="#ArialMT-30"/>
       <use x="114.013672" xlink:href="#ArialMT-2e"/>
       <use x="141.796875" xlink:href="#ArialMT-36"/>
      </g>
     </g>
    </g>
    <g id="ytick_2">
     <g id="line2d_8">
      <g>
       <use style="fill:#262626;stroke:#262626;" x="90" xlink:href="#m206e90326d" y="237.12"/>
      </g>
     </g>
     <g id="text_8">
      <!-- −0.4 -->
      <g style="fill:#262626;" transform="translate(57.259375 240.698906)scale(0.1 -0.1)">
       <use xlink:href="#ArialMT-2212"/>
       <use x="58.398438" xlink:href="#ArialMT-30"/>
       <use x="114.013672" xlink:href="#ArialMT-2e"/>
       <use x="141.796875" xlink:href="#ArialMT-34"/>
      </g>
     </g>
    </g>
    <g id="ytick_3">
     <g id="line2d_9">
      <g>
       <use style="fill:#262626;stroke:#262626;" x="90" xlink:href="#m206e90326d" y="203.52"/>
      </g>
     </g>
     <g id="text_9">
      <!-- −0.2 -->
      <g style="fill:#262626;" transform="translate(57.259375 207.098906)scale(0.1 -0.1)">
       <use xlink:href="#ArialMT-2212"/>
       <use x="58.398438" xlink:href="#ArialMT-30"/>
       <use x="114.013672" xlink:href="#ArialMT-2e"/>
       <use x="141.796875" xlink:href="#ArialMT-32"/>
      </g>
     </g>
    </g>
    <g id="ytick_4">
     <g id="line2d_10">
      <g>
       <use style="fill:#262626;stroke:#262626;" x="90" xlink:href="#m206e90326d" y="169.92"/>
      </g>
     </g>
     <g id="text_10">
      <!-- 0.0 -->
      <g style="fill:#262626;" transform="translate(63.1 173.498906)scale(0.1 -0.1)">
       <use xlink:href="#ArialMT-30"/>
       <use x="55.615234" xlink:href="#ArialMT-2e"/>
       <use x="83.398438" xlink:href="#ArialMT-30"/>
      </g>
     </g>
    </g>
    <g id="ytick_5">
     <g id="line2d_11">
      <g>
       <use style="fill:#262626;stroke:#262626;" x="90" xlink:href="#m206e90326d" y="136.32"/>
      </g>
     </g>
     <g id="text_11">
      <!-- 0.2 -->
      <g style="fill:#262626;" transform="translate(63.1 139.898906)scale(0.1 -0.1)">
       <use xlink:href="#ArialMT-30"/>
       <use x="55.615234" xlink:href="#ArialMT-2e"/>
       <use x="83.398438" xlink:href="#ArialMT-32"/>
      </g>
     </g>
    </g>
    <g id="ytick_6">
     <g id="line2d_12">
      <g>
       <use style="fill:#262626;stroke:#262626;" x="90" xlink:href="#m206e90326d" y="102.72"/>
      </g>
     </g>
     <g id="text_12">
      <!-- 0.4 -->
      <g style="fill:#262626;" transform="translate(63.1 106.298906)scale(0.1 -0.1)">
       <use xlink:href="#ArialMT-30"/>
       <use x="55.615234" xlink:href="#ArialMT-2e"/>
       <use x="83.398438" xlink:href="#ArialMT-34"/>
      </g>
     </g>
    </g>
    <g id="ytick_7">
     <g id="line2d_13">
      <g>
       <use style="fill:#262626;stroke:#262626;" x="90" xlink:href="#m206e90326d" y="69.12"/>
      </g>
     </g>
     <g id="text_13">
      <!-- 0.6 -->
      <g style="fill:#262626;" transform="translate(63.1 72.698906)scale(0.1 -0.1)">
       <use xlink:href="#ArialMT-30"/>
       <use x="55.615234" xlink:href="#ArialMT-2e"/>
       <use x="83.398438" xlink:href="#ArialMT-36"/>
      </g>
     </g>
    </g>
   </g>
   <g id="line2d_14">
    <path clip-path="url(#pcec1914c2f)" d="M 90 156.851396 
L 90.544922 156.918047 
L 92.724609 157.912676 
L 93.269531 158.240801 
L 94.359375 159.84041 
L 95.449219 161.27083 
L 95.994141 162.034746 
L 96.539062 162.501299 
L 97.083984 162.788408 
L 98.173828 162.75252 
L 98.71875 162.603838 
L 99.808594 161.62459 
L 101.443359 159.507158 
L 101.988281 158.363848 
L 103.078125 157.323076 
L 103.623047 156.477129 
L 104.167969 155.943926 
L 104.712891 155.590166 
L 105.802734 154.539141 
L 106.892578 153.426592 
L 107.4375 153.354814 
L 107.982422 153.067705 
L 109.072266 152.847246 
L 109.617188 152.944658 
L 110.162109 153.549639 
L 110.707031 153.836748 
L 111.796875 156.107988 
L 113.976562 162.844805 
L 117.246094 174.04207 
L 118.335938 176.779863 
L 118.880859 178.035967 
L 120.515625 180.132891 
L 121.605469 180.312334 
L 122.150391 180.261064 
L 123.240234 179.322832 
L 128.144531 172.186113 
L 128.689453 171.04793 
L 129.234375 170.196855 
L 130.324219 167.679521 
L 130.869141 166.628496 
L 131.958984 163.854814 
L 133.048828 161.588701 
L 135.228516 156.574541 
L 136.318359 154.8929 
L 136.863281 153.780352 
L 140.132812 149.786455 
L 141.767578 148.509844 
L 142.3125 148.304766 
L 142.857422 148.371416 
L 143.402344 148.191973 
L 144.492188 148.730303 
L 145.037109 149.258379 
L 145.582031 149.57625 
L 146.126953 150.253008 
L 146.671875 150.488848 
L 147.216797 151.252764 
L 147.761719 151.524492 
L 148.306641 152.088457 
L 148.851562 152.390947 
L 149.396484 152.980547 
L 149.941406 153.308672 
L 151.576172 154.851885 
L 154.300781 158.784258 
L 154.845703 159.389238 
L 155.390625 160.358232 
L 155.935547 160.870928 
L 156.480469 161.80916 
L 157.025391 162.214189 
L 157.570312 162.778154 
L 158.660156 164.531572 
L 159.205078 165.428789 
L 159.75 167.146318 
L 160.294922 168.310137 
L 161.929688 174.27791 
L 163.019531 178.610186 
L 164.109375 183.22957 
L 164.654297 185.475176 
L 166.289062 190.345781 
L 166.833984 191.550615 
L 167.378906 192.099199 
L 167.923828 192.832354 
L 168.46875 193.022051 
L 169.013672 192.945146 
L 169.558594 192.437578 
L 170.648438 190.356035 
L 171.193359 189.048662 
L 173.373047 181.512041 
L 176.642578 168.146074 
L 177.1875 166.274736 
L 177.732422 164.828936 
L 178.277344 162.921709 
L 179.367188 160.61458 
L 180.457031 158.681719 
L 181.546875 157.394854 
L 182.091797 156.902666 
L 182.636719 157.000078 
L 183.181641 156.959062 
L 183.726562 157.405107 
L 184.271484 157.692217 
L 184.816406 158.163896 
L 187.541016 161.757891 
L 189.175781 162.306475 
L 190.810547 161.593828 
L 193.535156 158.758623 
L 194.080078 158.025469 
L 194.625 157.738359 
L 195.169922 157.061602 
L 195.714844 156.625811 
L 199.529297 151.709062 
L 200.619141 151.022051 
L 201.708984 151.283525 
L 202.253906 151.719316 
L 202.798828 152.534502 
L 203.34375 153.606035 
L 204.433594 156.461748 
L 206.613281 163.608721 
L 207.703125 167.546221 
L 209.337891 172.703936 
L 209.882812 174.262529 
L 210.972656 176.390215 
L 211.517578 177.313066 
L 212.0625 177.953936 
L 213.152344 178.364092 
L 214.242188 178.415361 
L 214.787109 178.184648 
L 216.421875 176.78499 
L 218.601562 174.185625 
L 219.146484 173.273027 
L 219.691406 172.652666 
L 222.416016 167.392412 
L 224.050781 163.506182 
L 224.595703 161.92708 
L 226.775391 157.492266 
L 228.410156 154.28792 
L 228.955078 153.170244 
L 232.224609 148.304766 
L 232.769531 147.935625 
L 233.314453 147.361406 
L 233.859375 147.079424 
L 234.949219 147.30501 
L 236.583984 147.853594 
L 237.673828 148.386797 
L 238.21875 148.417559 
L 238.763672 149.058428 
L 239.308594 149.191729 
L 240.398438 149.704424 
L 240.943359 150.083818 
L 241.488281 150.70418 
L 242.033203 151.063066 
L 242.578125 151.657793 
L 243.123047 152.678057 
L 245.847656 156.405352 
L 246.9375 157.405107 
L 247.482422 158.122881 
L 248.027344 158.327959 
L 249.662109 159.850664 
L 251.296875 163.080645 
L 252.931641 168.181963 
L 256.746094 183.137285 
L 257.835938 186.644121 
L 258.380859 188.130937 
L 258.925781 188.83333 
L 259.470703 189.868975 
L 260.560547 190.812334 
L 261.105469 190.561113 
L 262.195312 189.48958 
L 262.740234 187.915605 
L 263.285156 186.762041 
L 266.009766 176.749102 
L 269.279297 164.464922 
L 271.458984 158.1075 
L 272.003906 156.871904 
L 273.09375 155.385088 
L 273.638672 155.06209 
L 274.183594 154.908281 
L 274.728516 154.498125 
L 275.273438 155.221025 
L 275.818359 155.54915 
L 276.363281 156.082354 
L 277.453125 157.389727 
L 277.998047 158.086992 
L 278.542969 158.220293 
L 279.087891 158.799639 
L 280.177734 159.466143 
L 281.267578 159.209795 
L 281.8125 158.861162 
L 282.902344 158.548418 
L 283.447266 158.17415 
L 284.537109 157.610186 
L 286.716797 155.943926 
L 287.261719 155.436357 
L 288.351562 153.775225 
L 289.441406 152.062822 
L 289.986328 151.109209 
L 291.621094 149.15584 
L 292.166016 149.078936 
L 292.710938 148.689287 
L 294.345703 150.206865 
L 295.435547 152.206377 
L 296.525391 155.021074 
L 297.070312 156.851396 
L 297.615234 158.281816 
L 300.339844 167.935869 
L 300.884766 169.822588 
L 302.519531 173.867754 
L 304.154297 176.133867 
L 305.244141 176.379961 
L 305.789062 176.29793 
L 306.333984 176.338945 
L 306.878906 176.210771 
L 308.513672 175.277666 
L 309.058594 175.011064 
L 309.603516 174.482988 
L 310.148438 174.165117 
L 312.873047 170.078936 
L 314.507812 166.310625 
L 315.597656 163.957354 
L 317.232422 160.435137 
L 322.681641 149.196855 
L 323.226562 148.248369 
L 323.771484 147.55623 
L 325.40625 146.371904 
L 326.496094 146.130937 
L 327.041016 146.520586 
L 327.585938 146.233477 
L 330.855469 147.084551 
L 331.400391 147.776689 
L 331.945312 148.012529 
L 332.490234 148.479082 
L 333.580078 149.971025 
L 335.759766 152.898516 
L 337.394531 154.805742 
L 339.029297 155.959307 
L 339.574219 156.384844 
L 340.119141 156.564287 
L 341.208984 157.533281 
L 342.298828 159.507158 
L 343.388672 162.275713 
L 344.478516 165.823564 
L 346.658203 174.457354 
L 347.748047 178.943437 
L 349.382812 185.162432 
L 350.472656 188.41292 
L 351.017578 189.684404 
L 351.5625 190.627764 
L 352.107422 191.068682 
L 353.197266 191.012285 
L 354.287109 189.299883 
L 355.921875 185.141924 
L 357.556641 179.440752 
L 360.28125 168.786943 
L 360.826172 166.443926 
L 361.371094 164.793047 
L 361.916016 162.6346 
L 363.550781 158.066484 
L 364.095703 157.276934 
L 364.640625 156.225908 
L 365.185547 155.631182 
L 366.275391 155.420977 
L 368.455078 157.117998 
L 369.544922 158.092119 
L 370.089844 158.445879 
L 370.634766 158.574053 
L 371.179688 158.902178 
L 373.359375 158.979082 
L 373.904297 158.784258 
L 374.449219 158.8304 
L 374.994141 158.671465 
L 375.539062 158.251055 
L 376.083984 158.271562 
L 376.628906 157.892168 
L 377.173828 157.220537 
L 377.71875 156.994951 
L 378.808594 155.708086 
L 379.898438 153.836748 
L 380.988281 152.026934 
L 382.623047 149.478838 
L 383.712891 148.555986 
L 384.257812 148.26375 
L 385.347656 148.550859 
L 386.4375 150.017168 
L 386.982422 150.986162 
L 388.617188 155.082598 
L 389.707031 158.456133 
L 391.341797 164.311113 
L 392.431641 167.746172 
L 393.521484 170.730059 
L 394.611328 172.724443 
L 396.246094 174.390703 
L 398.425781 175.467363 
L 398.970703 175.451982 
L 399.515625 175.636553 
L 400.060547 175.23665 
L 400.605469 175.262285 
L 401.150391 175.067461 
L 403.330078 172.49373 
L 409.869141 159.645586 
L 410.958984 156.620684 
L 411.503906 155.441484 
L 412.59375 152.544756 
L 413.138672 151.011797 
L 414.228516 149.114824 
L 414.773438 148.217607 
L 415.863281 147.089678 
L 416.953125 146.576982 
L 418.042969 145.710527 
L 419.132812 145.433672 
L 419.677734 145.156816 
L 420.222656 145.105547 
L 420.767578 144.926104 
L 422.402344 145.474687 
L 424.037109 147.130693 
L 427.306641 151.621904 
L 427.851562 152.108965 
L 428.941406 152.842119 
L 429.486328 153.257402 
L 431.121094 153.923906 
L 431.666016 154.487871 
L 432.210938 155.410723 
L 432.755859 155.769609 
L 433.845703 157.487139 
L 434.935547 159.768633 
L 436.570312 164.910967 
L 438.75 173.785723 
L 439.839844 178.75374 
L 440.929688 183.116777 
L 442.019531 186.695391 
L 443.109375 189.012773 
L 444.199219 189.992021 
L 445.289062 189.720293 
L 446.378906 188.36165 
L 448.013672 184.506182 
L 449.103516 181.014727 
L 454.552734 159.650713 
L 455.642578 157.200029 
L 456.1875 156.400225 
L 456.732422 155.820879 
L 457.277344 155.538896 
L 457.822266 155.400469 
L 460.001953 156.041338 
L 462.181641 156.964189 
L 462.726562 157.138506 
L 463.271484 157.128252 
L 463.816406 157.471758 
L 464.361328 157.210283 
L 464.90625 157.528154 
L 465.451172 157.712725 
L 467.630859 157.533281 
L 468.175781 157.261553 
L 469.265625 156.343828 
L 469.810547 155.646562 
L 470.900391 153.718828 
L 471.990234 151.857744 
L 473.625 148.889238 
L 474.169922 148.21248 
L 474.714844 147.802324 
L 475.259766 147.007646 
L 475.804688 146.653887 
L 476.894531 146.464189 
L 477.439453 146.971758 
L 477.984375 147.233232 
L 479.074219 149.27376 
L 479.619141 150.278643 
L 483.433594 162.655107 
L 484.523438 165.659502 
L 485.613281 168.274248 
L 486.703125 170.242998 
L 488.337891 172.114336 
L 488.882812 172.370684 
L 489.972656 173.498613 
L 490.517578 173.626787 
L 491.0625 173.939531 
L 492.152344 173.801104 
L 492.697266 173.62166 
L 493.242188 173.247393 
L 494.876953 171.514482 
L 495.966797 169.740557 
L 496.511719 168.976641 
L 497.601562 167.100176 
L 499.236328 164.229082 
L 499.78125 163.12166 
L 502.505859 155.738848 
L 504.140625 151.421953 
L 505.775391 147.833086 
L 508.5 144.20833 
L 509.044922 143.654619 
L 510.134766 142.849687 
L 510.679688 142.326738 
L 511.224609 142.131914 
L 511.769531 141.567949 
L 512.314453 141.557695 
L 512.859375 141.414141 
L 513.404297 141.588457 
L 513.949219 141.906328 
L 514.494141 142.075518 
L 516.128906 144.157061 
L 516.673828 144.633867 
L 517.21875 145.52083 
L 517.763672 145.746416 
L 518.853516 146.966631 
L 521.033203 148.602129 
L 521.578125 148.494463 
L 522.123047 149.232744 
L 522.667969 149.314775 
L 523.212891 149.76082 
L 523.757812 150.053057 
L 524.302734 150.478594 
L 525.392578 151.755205 
L 525.9375 152.949785 
L 526.482422 153.86751 
L 527.572266 157.220537 
L 528.117188 158.88167 
L 530.296875 167.858965 
L 531.931641 175.175127 
L 533.021484 179.322832 
L 533.566406 181.219805 
L 535.201172 184.906084 
L 536.291016 185.700762 
L 536.835938 185.869951 
L 537.925781 185.393145 
L 539.015625 184.024248 
L 539.560547 182.896318 
L 540.650391 179.604814 
L 542.285156 173.262773 
L 543.375 168.325518 
L 545.009766 161.578447 
L 546.099609 157.902422 
L 546.644531 156.328447 
L 548.279297 153.621416 
L 548.824219 153.252275 
L 550.458984 152.760088 
L 551.548828 152.657549 
L 552.638672 152.693437 
L 553.183594 152.872881 
L 553.728516 152.775469 
L 555.908203 153.913652 
L 556.453125 154.293047 
L 556.998047 154.369951 
L 558.087891 155.108232 
L 560.267578 154.134111 
L 560.8125 153.549639 
L 561.357422 153.180498 
L 562.447266 151.539873 
L 564.626953 147.827959 
L 565.716797 145.792559 
L 566.261719 145.110674 
L 566.806641 144.218584 
L 567.896484 143.429033 
L 568.441406 143.218828 
L 568.986328 143.347002 
L 569.53125 143.936602 
L 570.076172 144.828691 
L 570.621094 145.505449 
L 571.710938 148.120195 
L 573.890625 155.231279 
L 574.435547 157.133379 
L 576.615234 162.798662 
L 578.25 166.259355 
L 579.339844 168.074297 
L 579.884766 169.191973 
L 581.519531 171.227373 
L 582.064453 171.765703 
L 582.609375 171.960527 
L 583.699219 171.991289 
L 584.244141 171.760576 
L 584.789062 171.663164 
L 585.333984 171.124834 
L 585.878906 170.919756 
L 586.96875 170.130205 
L 587.513672 169.894365 
L 588.058594 168.90999 
L 588.603516 168.438311 
L 590.783203 165.003252 
L 596.232422 150.775957 
L 597.322266 148.555986 
L 597.867188 147.766436 
L 598.957031 145.807939 
L 599.501953 145.064531 
L 600.046875 144.069902 
L 600.591797 143.664873 
L 601.681641 142.024248 
L 602.771484 140.901445 
L 603.861328 140.619463 
L 604.951172 141.075762 
L 605.496094 141.214189 
L 606.041016 141.542314 
L 609.310547 145.428545 
L 612.580078 147.84334 
L 614.214844 148.407305 
L 614.759766 148.438066 
L 616.394531 149.637773 
L 616.939453 150.18123 
L 618.029297 151.975664 
L 618.574219 153.185625 
L 619.119141 154.723711 
L 620.753906 160.932451 
L 624.023438 175.282793 
L 625.658203 180.72249 
L 626.748047 183.690996 
L 627.292969 184.629229 
L 627.837891 185.285479 
L 628.382812 186.14168 
L 628.927734 186.654375 
L 630.017578 186.290361 
L 630.5625 185.61873 
L 631.652344 183.491045 
L 633.287109 178.020586 
L 636.011719 166.028643 
L 637.101562 161.855303 
L 638.736328 157.482012 
L 639.826172 155.508135 
L 640.371094 154.667314 
L 641.460938 153.595781 
L 643.095703 152.667803 
L 644.185547 152.565264 
L 644.730469 152.867754 
L 645.275391 152.842119 
L 647.455078 154.031572 
L 647.455078 154.031572 
" style="fill:none;stroke:#4c72b0;stroke-linecap:round;stroke-width:1.75;"/>
   </g>
   <g id="patch_3">
    <path d="M 90 270.72 
L 90 69.12 
" style="fill:none;stroke:#262626;stroke-linecap:square;stroke-linejoin:miter;stroke-width:1.25;"/>
   </g>
   <g id="patch_4">
    <path d="M 90 270.72 
L 648 270.72 
" style="fill:none;stroke:#262626;stroke-linecap:square;stroke-linejoin:miter;stroke-width:1.25;"/>
   </g>
  </g>
  <g id="axes_2">
   <g id="patch_5">
    <path d="M 90 512.64 
L 648 512.64 
L 648 311.04 
L 90 311.04 
z
" style="fill:#ffffff;"/>
   </g>
   <g id="matplotlib.axis_3">
    <g id="xtick_7">
     <g id="line2d_15">
      <g>
       <use style="fill:#262626;stroke:#262626;" x="218.197478" xlink:href="#m0ac9d4cc91" y="512.64"/>
      </g>
     </g>
     <g id="text_14">
      <!-- $\mathdefault{10^{2}}$ -->
      <g style="fill:#262626;" transform="translate(210.347478 535.9525)scale(0.1 -0.1)">
       <use transform="translate(0 0.99375)" xlink:href="#ArialMT-31"/>
       <use transform="translate(55.615234 0.99375)" xlink:href="#ArialMT-30"/>
       <use transform="translate(112.972813 70.6875)scale(0.7)" xlink:href="#ArialMT-32"/>
      </g>
     </g>
    </g>
    <g id="xtick_8">
     <g id="line2d_16">
      <g>
       <use style="fill:#262626;stroke:#262626;" x="401.606604" xlink:href="#m0ac9d4cc91" y="512.64"/>
      </g>
     </g>
     <g id="text_15">
      <!-- $\mathdefault{10^{3}}$ -->
      <defs>
       <path d="M 4.203125 18.890625 
L 12.984375 20.0625 
Q 14.5 12.59375 18.140625 9.296875 
Q 21.78125 6 27 6 
Q 33.203125 6 37.46875 10.296875 
Q 41.75 14.59375 41.75 20.953125 
Q 41.75 27 37.796875 30.921875 
Q 33.84375 34.859375 27.734375 34.859375 
Q 25.25 34.859375 21.53125 33.890625 
L 22.515625 41.609375 
Q 23.390625 41.5 23.921875 41.5 
Q 29.546875 41.5 34.03125 44.421875 
Q 38.53125 47.359375 38.53125 53.46875 
Q 38.53125 58.296875 35.25 61.46875 
Q 31.984375 64.65625 26.8125 64.65625 
Q 21.6875 64.65625 18.265625 61.421875 
Q 14.84375 58.203125 13.875 51.765625 
L 5.078125 53.328125 
Q 6.6875 62.15625 12.390625 67.015625 
Q 18.109375 71.875 26.609375 71.875 
Q 32.46875 71.875 37.390625 69.359375 
Q 42.328125 66.84375 44.9375 62.5 
Q 47.5625 58.15625 47.5625 53.265625 
Q 47.5625 48.640625 45.0625 44.828125 
Q 42.578125 41.015625 37.703125 38.765625 
Q 44.046875 37.3125 47.5625 32.6875 
Q 51.078125 28.078125 51.078125 21.140625 
Q 51.078125 11.765625 44.234375 5.25 
Q 37.40625 -1.265625 26.953125 -1.265625 
Q 17.53125 -1.265625 11.296875 4.34375 
Q 5.078125 9.96875 4.203125 18.890625 
z
" id="ArialMT-33"/>
      </defs>
      <g style="fill:#262626;" transform="translate(393.756604 535.9525)scale(0.1 -0.1)">
       <use transform="translate(0 0.99375)" xlink:href="#ArialMT-31"/>
       <use transform="translate(55.615234 0.99375)" xlink:href="#ArialMT-30"/>
       <use transform="translate(112.972813 70.6875)scale(0.7)" xlink:href="#ArialMT-33"/>
      </g>
     </g>
    </g>
    <g id="xtick_9">
     <g id="line2d_17">
      <g>
       <use style="fill:#262626;stroke:#262626;" x="585.01573" xlink:href="#m0ac9d4cc91" y="512.64"/>
      </g>
     </g>
     <g id="text_16">
      <!-- $\mathdefault{10^{4}}$ -->
      <g style="fill:#262626;" transform="translate(577.16573 535.8525)scale(0.1 -0.1)">
       <use transform="translate(0 0.201563)" xlink:href="#ArialMT-31"/>
       <use transform="translate(55.615234 0.201563)" xlink:href="#ArialMT-30"/>
       <use transform="translate(112.972813 69.895313)scale(0.7)" xlink:href="#ArialMT-34"/>
      </g>
     </g>
    </g>
    <g id="xtick_10">
     <g id="line2d_18">
      <defs>
       <path d="M 0 0 
L 0 3 
" id="m060f6a6cb6" style="stroke:#262626;stroke-width:0.5;"/>
      </defs>
      <g>
       <use style="fill:#262626;stroke:#262626;stroke-width:0.5;" x="90" xlink:href="#m060f6a6cb6" y="512.64"/>
      </g>
     </g>
    </g>
    <g id="xtick_11">
     <g id="line2d_19">
      <g>
       <use style="fill:#262626;stroke:#262626;stroke-width:0.5;" x="122.296744" xlink:href="#m060f6a6cb6" y="512.64"/>
      </g>
     </g>
    </g>
    <g id="xtick_12">
     <g id="line2d_20">
      <g>
       <use style="fill:#262626;stroke:#262626;stroke-width:0.5;" x="145.211648" xlink:href="#m060f6a6cb6" y="512.64"/>
      </g>
     </g>
    </g>
    <g id="xtick_13">
     <g id="line2d_21">
      <g>
       <use style="fill:#262626;stroke:#262626;stroke-width:0.5;" x="162.985829" xlink:href="#m060f6a6cb6" y="512.64"/>
      </g>
     </g>
    </g>
    <g id="xtick_14">
     <g id="line2d_22">
      <g>
       <use style="fill:#262626;stroke:#262626;stroke-width:0.5;" x="177.508392" xlink:href="#m060f6a6cb6" y="512.64"/>
      </g>
     </g>
    </g>
    <g id="xtick_15">
     <g id="line2d_23">
      <g>
       <use style="fill:#262626;stroke:#262626;stroke-width:0.5;" x="189.787045" xlink:href="#m060f6a6cb6" y="512.64"/>
      </g>
     </g>
    </g>
    <g id="xtick_16">
     <g id="line2d_24">
      <g>
       <use style="fill:#262626;stroke:#262626;stroke-width:0.5;" x="200.423297" xlink:href="#m060f6a6cb6" y="512.64"/>
      </g>
     </g>
    </g>
    <g id="xtick_17">
     <g id="line2d_25">
      <g>
       <use style="fill:#262626;stroke:#262626;stroke-width:0.5;" x="209.805136" xlink:href="#m060f6a6cb6" y="512.64"/>
      </g>
     </g>
    </g>
    <g id="xtick_18">
     <g id="line2d_26">
      <g>
       <use style="fill:#262626;stroke:#262626;stroke-width:0.5;" x="273.409126" xlink:href="#m060f6a6cb6" y="512.64"/>
      </g>
     </g>
    </g>
    <g id="xtick_19">
     <g id="line2d_27">
      <g>
       <use style="fill:#262626;stroke:#262626;stroke-width:0.5;" x="305.70587" xlink:href="#m060f6a6cb6" y="512.64"/>
      </g>
     </g>
    </g>
    <g id="xtick_20">
     <g id="line2d_28">
      <g>
       <use style="fill:#262626;stroke:#262626;stroke-width:0.5;" x="328.620775" xlink:href="#m060f6a6cb6" y="512.64"/>
      </g>
     </g>
    </g>
    <g id="xtick_21">
     <g id="line2d_29">
      <g>
       <use style="fill:#262626;stroke:#262626;stroke-width:0.5;" x="346.394955" xlink:href="#m060f6a6cb6" y="512.64"/>
      </g>
     </g>
    </g>
    <g id="xtick_22">
     <g id="line2d_30">
      <g>
       <use style="fill:#262626;stroke:#262626;stroke-width:0.5;" x="360.917518" xlink:href="#m060f6a6cb6" y="512.64"/>
      </g>
     </g>
    </g>
    <g id="xtick_23">
     <g id="line2d_31">
      <g>
       <use style="fill:#262626;stroke:#262626;stroke-width:0.5;" x="373.196171" xlink:href="#m060f6a6cb6" y="512.64"/>
      </g>
     </g>
    </g>
    <g id="xtick_24">
     <g id="line2d_32">
      <g>
       <use style="fill:#262626;stroke:#262626;stroke-width:0.5;" x="383.832423" xlink:href="#m060f6a6cb6" y="512.64"/>
      </g>
     </g>
    </g>
    <g id="xtick_25">
     <g id="line2d_33">
      <g>
       <use style="fill:#262626;stroke:#262626;stroke-width:0.5;" x="393.214262" xlink:href="#m060f6a6cb6" y="512.64"/>
      </g>
     </g>
    </g>
    <g id="xtick_26">
     <g id="line2d_34">
      <g>
       <use style="fill:#262626;stroke:#262626;stroke-width:0.5;" x="456.818252" xlink:href="#m060f6a6cb6" y="512.64"/>
      </g>
     </g>
    </g>
    <g id="xtick_27">
     <g id="line2d_35">
      <g>
       <use style="fill:#262626;stroke:#262626;stroke-width:0.5;" x="489.114996" xlink:href="#m060f6a6cb6" y="512.64"/>
      </g>
     </g>
    </g>
    <g id="xtick_28">
     <g id="line2d_36">
      <g>
       <use style="fill:#262626;stroke:#262626;stroke-width:0.5;" x="512.029901" xlink:href="#m060f6a6cb6" y="512.64"/>
      </g>
     </g>
    </g>
    <g id="xtick_29">
     <g id="line2d_37">
      <g>
       <use style="fill:#262626;stroke:#262626;stroke-width:0.5;" x="529.804081" xlink:href="#m060f6a6cb6" y="512.64"/>
      </g>
     </g>
    </g>
    <g id="xtick_30">
     <g id="line2d_38">
      <g>
       <use style="fill:#262626;stroke:#262626;stroke-width:0.5;" x="544.326645" xlink:href="#m060f6a6cb6" y="512.64"/>
      </g>
     </g>
    </g>
    <g id="xtick_31">
     <g id="line2d_39">
      <g>
       <use style="fill:#262626;stroke:#262626;stroke-width:0.5;" x="556.605297" xlink:href="#m060f6a6cb6" y="512.64"/>
      </g>
     </g>
    </g>
    <g id="xtick_32">
     <g id="line2d_40">
      <g>
       <use style="fill:#262626;stroke:#262626;stroke-width:0.5;" x="567.241549" xlink:href="#m060f6a6cb6" y="512.64"/>
      </g>
     </g>
    </g>
    <g id="xtick_33">
     <g id="line2d_41">
      <g>
       <use style="fill:#262626;stroke:#262626;stroke-width:0.5;" x="576.623389" xlink:href="#m060f6a6cb6" y="512.64"/>
      </g>
     </g>
    </g>
    <g id="xtick_34">
     <g id="line2d_42">
      <g>
       <use style="fill:#262626;stroke:#262626;stroke-width:0.5;" x="640.227378" xlink:href="#m060f6a6cb6" y="512.64"/>
      </g>
     </g>
    </g>
   </g>
   <g id="matplotlib.axis_4">
    <g id="ytick_8">
     <g id="line2d_43">
      <g>
       <use style="fill:#262626;stroke:#262626;" x="90" xlink:href="#m206e90326d" y="512.64"/>
      </g>
     </g>
     <g id="text_17">
      <!-- $\mathdefault{10^{-5}}$ -->
      <defs>
       <path d="M 4.15625 18.75 
L 13.375 19.53125 
Q 14.40625 12.796875 18.140625 9.390625 
Q 21.875 6 27.15625 6 
Q 33.5 6 37.890625 10.78125 
Q 42.28125 15.578125 42.28125 23.484375 
Q 42.28125 31 38.0625 35.34375 
Q 33.84375 39.703125 27 39.703125 
Q 22.75 39.703125 19.328125 37.765625 
Q 15.921875 35.84375 13.96875 32.765625 
L 5.71875 33.84375 
L 12.640625 70.609375 
L 48.25 70.609375 
L 48.25 62.203125 
L 19.671875 62.203125 
L 15.828125 42.96875 
Q 22.265625 47.46875 29.34375 47.46875 
Q 38.71875 47.46875 45.15625 40.96875 
Q 51.609375 34.46875 51.609375 24.265625 
Q 51.609375 14.546875 45.953125 7.46875 
Q 39.0625 -1.21875 27.15625 -1.21875 
Q 17.390625 -1.21875 11.203125 4.25 
Q 5.03125 9.71875 4.15625 18.75 
z
" id="ArialMT-35"/>
      </defs>
      <g style="fill:#262626;" transform="translate(57.2 517.74625)scale(0.1 -0.1)">
       <use transform="translate(0 0.879688)" xlink:href="#ArialMT-31"/>
       <use transform="translate(55.615234 0.879688)" xlink:href="#ArialMT-30"/>
       <use transform="translate(112.972813 70.573438)scale(0.7)" xlink:href="#ArialMT-2212"/>
       <use transform="translate(153.851719 70.573438)scale(0.7)" xlink:href="#ArialMT-35"/>
      </g>
     </g>
    </g>
    <g id="ytick_9">
     <g id="line2d_44">
      <g>
       <use style="fill:#262626;stroke:#262626;" x="90" xlink:href="#m206e90326d" y="465.767507"/>
      </g>
     </g>
     <g id="text_18">
      <!-- $\mathdefault{10^{-4}}$ -->
      <g style="fill:#262626;" transform="translate(57.2 470.873757)scale(0.1 -0.1)">
       <use transform="translate(0 0.201563)" xlink:href="#ArialMT-31"/>
       <use transform="translate(55.615234 0.201563)" xlink:href="#ArialMT-30"/>
       <use transform="translate(112.972813 69.895313)scale(0.7)" xlink:href="#ArialMT-2212"/>
       <use transform="translate(153.851719 69.895313)scale(0.7)" xlink:href="#ArialMT-34"/>
      </g>
     </g>
    </g>
    <g id="ytick_10">
     <g id="line2d_45">
      <g>
       <use style="fill:#262626;stroke:#262626;" x="90" xlink:href="#m206e90326d" y="418.895013"/>
      </g>
     </g>
     <g id="text_19">
      <!-- $\mathdefault{10^{-3}}$ -->
      <g style="fill:#262626;" transform="translate(57.2 424.051263)scale(0.1 -0.1)">
       <use transform="translate(0 0.99375)" xlink:href="#ArialMT-31"/>
       <use transform="translate(55.615234 0.99375)" xlink:href="#ArialMT-30"/>
       <use transform="translate(112.972813 70.6875)scale(0.7)" xlink:href="#ArialMT-2212"/>
       <use transform="translate(153.851719 70.6875)scale(0.7)" xlink:href="#ArialMT-33"/>
      </g>
     </g>
    </g>
    <g id="ytick_11">
     <g id="line2d_46">
      <g>
       <use style="fill:#262626;stroke:#262626;" x="90" xlink:href="#m206e90326d" y="372.02252"/>
      </g>
     </g>
     <g id="text_20">
      <!-- $\mathdefault{10^{-2}}$ -->
      <g style="fill:#262626;" transform="translate(57.2 377.17877)scale(0.1 -0.1)">
       <use transform="translate(0 0.99375)" xlink:href="#ArialMT-31"/>
       <use transform="translate(55.615234 0.99375)" xlink:href="#ArialMT-30"/>
       <use transform="translate(112.972813 70.6875)scale(0.7)" xlink:href="#ArialMT-2212"/>
       <use transform="translate(153.851719 70.6875)scale(0.7)" xlink:href="#ArialMT-32"/>
      </g>
     </g>
    </g>
    <g id="ytick_12">
     <g id="line2d_47">
      <g>
       <use style="fill:#262626;stroke:#262626;" x="90" xlink:href="#m206e90326d" y="325.150026"/>
      </g>
     </g>
     <g id="text_21">
      <!-- $\mathdefault{10^{-1}}$ -->
      <g style="fill:#262626;" transform="translate(57.2 330.306276)scale(0.1 -0.1)">
       <use transform="translate(0 0.99375)" xlink:href="#ArialMT-31"/>
       <use transform="translate(55.615234 0.99375)" xlink:href="#ArialMT-30"/>
       <use transform="translate(112.972813 70.6875)scale(0.7)" xlink:href="#ArialMT-2212"/>
       <use transform="translate(153.851719 70.6875)scale(0.7)" xlink:href="#ArialMT-31"/>
      </g>
     </g>
    </g>
    <g id="ytick_13">
     <g id="line2d_48">
      <defs>
       <path d="M 0 0 
L -3 0 
" id="mb1c809fb0e" style="stroke:#262626;stroke-width:0.5;"/>
      </defs>
      <g>
       <use style="fill:#262626;stroke:#262626;stroke-width:0.5;" x="90" xlink:href="#mb1c809fb0e" y="498.529974"/>
      </g>
     </g>
    </g>
    <g id="ytick_14">
     <g id="line2d_49">
      <g>
       <use style="fill:#262626;stroke:#262626;stroke-width:0.5;" x="90" xlink:href="#mb1c809fb0e" y="490.276137"/>
      </g>
     </g>
    </g>
    <g id="ytick_15">
     <g id="line2d_50">
      <g>
       <use style="fill:#262626;stroke:#262626;stroke-width:0.5;" x="90" xlink:href="#mb1c809fb0e" y="484.419947"/>
      </g>
     </g>
    </g>
    <g id="ytick_16">
     <g id="line2d_51">
      <g>
       <use style="fill:#262626;stroke:#262626;stroke-width:0.5;" x="90" xlink:href="#mb1c809fb0e" y="479.877533"/>
      </g>
     </g>
    </g>
    <g id="ytick_17">
     <g id="line2d_52">
      <g>
       <use style="fill:#262626;stroke:#262626;stroke-width:0.5;" x="90" xlink:href="#mb1c809fb0e" y="476.166111"/>
      </g>
     </g>
    </g>
    <g id="ytick_18">
     <g id="line2d_53">
      <g>
       <use style="fill:#262626;stroke:#262626;stroke-width:0.5;" x="90" xlink:href="#mb1c809fb0e" y="473.028148"/>
      </g>
     </g>
    </g>
    <g id="ytick_19">
     <g id="line2d_54">
      <g>
       <use style="fill:#262626;stroke:#262626;stroke-width:0.5;" x="90" xlink:href="#mb1c809fb0e" y="470.309921"/>
      </g>
     </g>
    </g>
    <g id="ytick_20">
     <g id="line2d_55">
      <g>
       <use style="fill:#262626;stroke:#262626;stroke-width:0.5;" x="90" xlink:href="#mb1c809fb0e" y="467.912274"/>
      </g>
     </g>
    </g>
    <g id="ytick_21">
     <g id="line2d_56">
      <g>
       <use style="fill:#262626;stroke:#262626;stroke-width:0.5;" x="90" xlink:href="#mb1c809fb0e" y="451.65748"/>
      </g>
     </g>
    </g>
    <g id="ytick_22">
     <g id="line2d_57">
      <g>
       <use style="fill:#262626;stroke:#262626;stroke-width:0.5;" x="90" xlink:href="#mb1c809fb0e" y="443.403644"/>
      </g>
     </g>
    </g>
    <g id="ytick_23">
     <g id="line2d_58">
      <g>
       <use style="fill:#262626;stroke:#262626;stroke-width:0.5;" x="90" xlink:href="#mb1c809fb0e" y="437.547454"/>
      </g>
     </g>
    </g>
    <g id="ytick_24">
     <g id="line2d_59">
      <g>
       <use style="fill:#262626;stroke:#262626;stroke-width:0.5;" x="90" xlink:href="#mb1c809fb0e" y="433.00504"/>
      </g>
     </g>
    </g>
    <g id="ytick_25">
     <g id="line2d_60">
      <g>
       <use style="fill:#262626;stroke:#262626;stroke-width:0.5;" x="90" xlink:href="#mb1c809fb0e" y="429.293617"/>
      </g>
     </g>
    </g>
    <g id="ytick_26">
     <g id="line2d_61">
      <g>
       <use style="fill:#262626;stroke:#262626;stroke-width:0.5;" x="90" xlink:href="#mb1c809fb0e" y="426.155654"/>
      </g>
     </g>
    </g>
    <g id="ytick_27">
     <g id="line2d_62">
      <g>
       <use style="fill:#262626;stroke:#262626;stroke-width:0.5;" x="90" xlink:href="#mb1c809fb0e" y="423.437427"/>
      </g>
     </g>
    </g>
    <g id="ytick_28">
     <g id="line2d_63">
      <g>
       <use style="fill:#262626;stroke:#262626;stroke-width:0.5;" x="90" xlink:href="#mb1c809fb0e" y="421.039781"/>
      </g>
     </g>
    </g>
    <g id="ytick_29">
     <g id="line2d_64">
      <g>
       <use style="fill:#262626;stroke:#262626;stroke-width:0.5;" x="90" xlink:href="#mb1c809fb0e" y="404.784987"/>
      </g>
     </g>
    </g>
    <g id="ytick_30">
     <g id="line2d_65">
      <g>
       <use style="fill:#262626;stroke:#262626;stroke-width:0.5;" x="90" xlink:href="#mb1c809fb0e" y="396.53115"/>
      </g>
     </g>
    </g>
    <g id="ytick_31">
     <g id="line2d_66">
      <g>
       <use style="fill:#262626;stroke:#262626;stroke-width:0.5;" x="90" xlink:href="#mb1c809fb0e" y="390.67496"/>
      </g>
     </g>
    </g>
    <g id="ytick_32">
     <g id="line2d_67">
      <g>
       <use style="fill:#262626;stroke:#262626;stroke-width:0.5;" x="90" xlink:href="#mb1c809fb0e" y="386.132546"/>
      </g>
     </g>
    </g>
    <g id="ytick_33">
     <g id="line2d_68">
      <g>
       <use style="fill:#262626;stroke:#262626;stroke-width:0.5;" x="90" xlink:href="#mb1c809fb0e" y="382.421124"/>
      </g>
     </g>
    </g>
    <g id="ytick_34">
     <g id="line2d_69">
      <g>
       <use style="fill:#262626;stroke:#262626;stroke-width:0.5;" x="90" xlink:href="#mb1c809fb0e" y="379.283161"/>
      </g>
     </g>
    </g>
    <g id="ytick_35">
     <g id="line2d_70">
      <g>
       <use style="fill:#262626;stroke:#262626;stroke-width:0.5;" x="90" xlink:href="#mb1c809fb0e" y="376.564934"/>
      </g>
     </g>
    </g>
    <g id="ytick_36">
     <g id="line2d_71">
      <g>
       <use style="fill:#262626;stroke:#262626;stroke-width:0.5;" x="90" xlink:href="#mb1c809fb0e" y="374.167288"/>
      </g>
     </g>
    </g>
    <g id="ytick_37">
     <g id="line2d_72">
      <g>
       <use style="fill:#262626;stroke:#262626;stroke-width:0.5;" x="90" xlink:href="#mb1c809fb0e" y="357.912493"/>
      </g>
     </g>
    </g>
    <g id="ytick_38">
     <g id="line2d_73">
      <g>
       <use style="fill:#262626;stroke:#262626;stroke-width:0.5;" x="90" xlink:href="#mb1c809fb0e" y="349.658657"/>
      </g>
     </g>
    </g>
    <g id="ytick_39">
     <g id="line2d_74">
      <g>
       <use style="fill:#262626;stroke:#262626;stroke-width:0.5;" x="90" xlink:href="#mb1c809fb0e" y="343.802467"/>
      </g>
     </g>
    </g>
    <g id="ytick_40">
     <g id="line2d_75">
      <g>
       <use style="fill:#262626;stroke:#262626;stroke-width:0.5;" x="90" xlink:href="#mb1c809fb0e" y="339.260053"/>
      </g>
     </g>
    </g>
    <g id="ytick_41">
     <g id="line2d_76">
      <g>
       <use style="fill:#262626;stroke:#262626;stroke-width:0.5;" x="90" xlink:href="#mb1c809fb0e" y="335.548631"/>
      </g>
     </g>
    </g>
    <g id="ytick_42">
     <g id="line2d_77">
      <g>
       <use style="fill:#262626;stroke:#262626;stroke-width:0.5;" x="90" xlink:href="#mb1c809fb0e" y="332.410668"/>
      </g>
     </g>
    </g>
    <g id="ytick_43">
     <g id="line2d_78">
      <g>
       <use style="fill:#262626;stroke:#262626;stroke-width:0.5;" x="90" xlink:href="#mb1c809fb0e" y="329.69244"/>
      </g>
     </g>
    </g>
    <g id="ytick_44">
     <g id="line2d_79">
      <g>
       <use style="fill:#262626;stroke:#262626;stroke-width:0.5;" x="90" xlink:href="#mb1c809fb0e" y="327.294794"/>
      </g>
     </g>
    </g>
    <g id="ytick_45">
     <g id="line2d_80">
      <g>
       <use style="fill:#262626;stroke:#262626;stroke-width:0.5;" x="90" xlink:href="#mb1c809fb0e" y="311.04"/>
      </g>
     </g>
    </g>
   </g>
   <g id="line2d_81">
    <path clip-path="url(#p1733d5b6b8)" d="M -1 377.092389 
L 151.095164 377.123596 
L 206.306812 384.962588 
L 238.603556 408.413994 
L 261.518461 428.487011 
L 279.292642 416.551254 
L 293.815205 367.9799 
L 306.093857 410.802547 
L 316.730109 418.842206 
L 326.111949 414.888095 
L 334.50429 411.75963 
L 342.096086 396.148583 
L 349.026853 342.148647 
L 355.402541 383.230885 
L 361.305505 394.521116 
L 366.801034 398.633959 
L 371.941758 400.310362 
L 376.770725 397.129389 
L 381.323597 372.191277 
L 385.630245 432.200459 
L 389.715939 416.47167 
L 397.307735 402.560965 
L 400.848476 392.006519 
L 404.238502 361.79194 
L 407.490119 389.33278 
L 410.614189 412.010435 
L 413.620341 427.049237 
L 416.517154 428.426909 
L 419.312303 414.439503 
L 422.012683 383.170012 
L 424.624509 390.293877 
L 427.153406 408.885903 
L 429.604479 414.613616 
L 431.982374 417.875257 
L 434.291335 418.548432 
L 436.535246 407.41159 
L 438.717672 421.67101 
L 440.841893 464.559111 
L 442.910933 463.15704 
L 446.894442 438.711339 
L 448.813898 424.25485 
L 450.688186 414.683126 
L 452.519383 449.160927 
L 454.309426 462.324789 
L 456.060125 471.12401 
L 457.773171 485.773437 
L 459.45015 472.763891 
L 461.09255 417.250875 
L 462.701768 479.954431 
L 464.279118 480.322218 
L 465.825838 475.953244 
L 467.343094 476.938389 
L 468.83199 459.305264 
L 470.293564 420.544967 
L 471.728802 445.275492 
L 473.138637 457.136849 
L 474.523951 460.345053 
L 475.885584 473.343301 
L 477.224331 470.652462 
L 478.540949 457.224646 
L 479.836157 473.62212 
L 481.110642 486.022834 
L 482.365055 473.274308 
L 483.600019 491.834298 
L 484.816127 514.711037 
L 486.013948 510.786738 
L 487.194022 422.448297 
L 488.356869 481.446391 
L 489.502983 474.723846 
L 490.63284 488.509346 
L 491.746894 478.590119 
L 492.845581 490.639562 
L 493.92932 487.349014 
L 494.998512 468.370191 
L 496.053541 486.252994 
L 497.094779 484.205177 
L 498.122582 491.768576 
L 499.137291 475.750608 
L 500.139235 488.426702 
L 501.128734 483.835345 
L 502.10609 492.062238 
L 503.0716 488.56537 
L 504.025546 489.497125 
L 504.968203 479.834284 
L 505.899834 487.556204 
L 506.820695 482.135292 
L 507.731032 483.450628 
L 508.631082 494.133957 
L 509.521075 479.654933 
L 510.401234 488.434824 
L 511.271773 476.594623 
L 512.132901 479.632126 
L 512.984819 476.234307 
L 513.827722 469.657865 
L 514.661799 482.137867 
L 515.487232 499.977496 
L 516.304198 487.280176 
L 517.112871 506.07963 
L 517.913416 494.214244 
L 518.705996 484.947064 
L 519.490766 482.922306 
L 521.037486 486.788264 
L 521.799727 482.168384 
L 522.554743 481.698207 
L 523.302669 476.986973 
L 524.043638 488.481617 
L 524.777778 495.376197 
L 525.505212 503.861491 
L 526.226064 491.839985 
L 526.940451 512.996212 
L 527.648487 484.938436 
L 528.350285 485.993451 
L 529.045954 489.556634 
L 529.7356 494.278052 
L 530.419326 481.5239 
L 531.097232 502.424374 
L 531.769418 489.058395 
L 532.435979 483.984343 
L 533.097009 485.706637 
L 533.752597 512.278858 
L 534.402834 488.88037 
L 535.047806 488.535874 
L 535.687597 512.171405 
L 536.32229 488.58049 
L 536.951966 480.551459 
L 537.576703 482.55727 
L 538.196578 507.038719 
L 538.811667 483.607948 
L 539.422042 494.17392 
L 540.027776 500.499887 
L 540.628938 494.336433 
L 541.225596 485.498775 
L 541.817819 494.797218 
L 542.405671 495.103404 
L 542.989216 494.450087 
L 543.568517 498.459621 
L 544.143636 489.533386 
L 544.714632 504.548221 
L 545.281563 494.757729 
L 545.844488 499.915996 
L 546.403463 476.652832 
L 546.958543 486.30139 
L 547.509781 517.053999 
L 548.05723 498.502269 
L 548.600942 487.862789 
L 549.140969 509.259903 
L 549.677358 495.633221 
L 550.21016 485.742863 
L 550.739422 494.240671 
L 551.26519 493.447801 
L 551.78751 483.316448 
L 552.306428 507.023464 
L 552.821987 487.999789 
L 553.33423 493.216543 
L 553.8432 505.989169 
L 554.348939 506.244129 
L 554.851487 493.215146 
L 555.350884 510.8387 
L 555.847169 484.652664 
L 556.340382 492.551027 
L 556.830559 497.92319 
L 557.317739 495.042883 
L 557.801956 504.52312 
L 558.283248 517.699017 
L 558.76165 492.999166 
L 559.237195 497.596819 
L 559.709918 507.535494 
L 560.179852 503.623593 
L 560.647029 489.271898 
L 561.111483 505.528178 
L 561.573244 485.580102 
L 562.032344 490.341008 
L 562.488812 544.989691 
L 562.94268 487.307565 
L 563.393976 491.005054 
L 563.84273 490.243279 
L 564.28897 530.623067 
L 564.732723 486.704882 
L 565.174019 495.030749 
L 565.612882 509.656787 
L 566.049341 502.441051 
L 566.483422 501.056172 
L 566.91515 509.702574 
L 567.34455 484.788974 
L 567.771648 494.149729 
L 568.196468 532.428617 
L 568.619034 497.054027 
L 569.039371 494.786329 
L 569.457501 494.832366 
L 569.873447 493.292044 
L 570.287233 492.665877 
L 570.69888 498.366789 
L 571.515847 517.177144 
L 571.921209 506.662272 
L 572.32452 489.563303 
L 572.725798 496.951115 
L 573.125065 523.072161 
L 573.52234 503.208519 
L 573.917644 516.794962 
L 574.310996 494.00695 
L 574.702415 495.459368 
L 575.091919 493.473471 
L 575.479529 497.106556 
L 575.865261 518.912467 
L 576.249135 519.047937 
L 576.631167 493.894961 
L 577.011376 497.212011 
L 577.389778 512.730416 
L 577.766391 491.919302 
L 578.141232 497.251027 
L 578.514318 520.242498 
L 578.885664 490.039785 
L 579.255287 505.771893 
L 579.623202 495.437424 
L 579.989426 496.124523 
L 580.353974 493.148539 
L 580.716861 507.984815 
L 581.078102 502.030524 
L 581.437713 491.355419 
L 581.795707 509.492097 
L 582.152099 490.711557 
L 582.506904 500.135136 
L 583.211808 494.738172 
L 583.561934 514.401321 
L 583.910528 493.179993 
L 584.257603 519.481601 
L 584.603172 528.222271 
L 584.947248 489.727954 
L 585.289845 497.523461 
L 585.630974 517.487287 
L 585.970649 499.1333 
L 586.308881 501.486541 
L 586.645683 546.819789 
L 586.981067 502.998574 
L 587.315045 489.460856 
L 587.647628 522.466202 
L 587.978828 500.406473 
L 588.308657 493.752385 
L 588.637126 496.416624 
L 588.964246 496.972946 
L 589.290028 501.337308 
L 589.614483 514.261542 
L 589.937621 499.434289 
L 590.259454 490.918424 
L 590.579992 497.837566 
L 590.899246 508.399968 
L 591.217224 538.881355 
L 591.533939 510.856176 
L 591.849399 499.129644 
L 592.163614 509.005699 
L 592.476596 481.384037 
L 592.788352 483.240301 
L 593.716365 497.780192 
L 594.023315 518.072153 
L 594.329088 491.224089 
L 594.633691 489.530968 
L 594.937133 496.522025 
L 595.239424 514.340613 
L 595.540572 512.195349 
L 595.840586 498.686439 
L 596.139474 530.266853 
L 596.437245 499.54157 
L 596.733906 509.133839 
L 597.323936 490.883331 
L 597.617319 513.42725 
L 597.909626 493.190059 
L 598.200864 538.235245 
L 598.491042 541.741909 
L 598.780166 488.397436 
L 599.068244 503.771146 
L 599.355284 492.172536 
L 599.641294 514.105817 
L 599.92628 498.676008 
L 600.21025 511.120175 
L 600.493212 535.276477 
L 600.775172 521.078867 
L 601.056137 530.879456 
L 601.336115 526.318279 
L 601.615112 503.339707 
L 601.893135 502.484253 
L 602.170191 504.841432 
L 602.446287 491.07016 
L 602.721429 510.77957 
L 602.995624 504.661138 
L 603.268878 490.230861 
L 603.541199 503.091383 
L 603.812591 495.536203 
L 604.083062 516.940307 
L 604.352617 510.383253 
L 604.621264 512.691286 
L 604.889007 502.118981 
L 605.155853 506.519388 
L 605.421809 489.114001 
L 605.686879 504.57018 
L 605.95107 499.690067 
L 606.214388 510.098311 
L 606.476838 514.008641 
L 606.738427 498.753493 
L 606.999159 523.591283 
L 607.518076 498.051601 
L 607.776273 497.127403 
L 608.033635 485.528874 
L 608.290169 519.29483 
L 608.545879 488.995464 
L 608.80077 500.98317 
L 609.054849 504.309599 
L 609.308119 504.688765 
L 609.560587 489.015684 
L 609.812258 513.256336 
L 610.063135 507.534849 
L 610.313225 512.931523 
L 610.562532 495.084844 
L 611.305806 513.501413 
L 611.55203 513.365706 
L 611.797496 503.443973 
L 612.042208 510.844599 
L 612.28617 506.195828 
L 612.529387 496.472572 
L 612.771864 515.898256 
L 613.013605 502.946613 
L 613.254614 504.223788 
L 613.494897 490.130949 
L 613.734457 504.370102 
L 613.973298 507.797397 
L 614.211426 509.445859 
L 614.448843 503.769202 
L 614.685555 490.890784 
L 615.15688 498.663971 
L 615.3915 499.812613 
L 615.858678 488.481966 
L 616.091243 493.248407 
L 616.323131 503.481896 
L 616.554347 501.81387 
L 616.784892 509.965966 
L 617.014773 498.241481 
L 617.243992 497.017817 
L 617.472553 511.89163 
L 617.700461 488.313639 
L 618.380296 512.605259 
L 618.605625 501.95225 
L 618.830318 530.745909 
L 619.054379 518.056842 
L 619.277811 518.850383 
L 619.500618 525.019786 
L 619.722804 487.253025 
L 620.385667 510.468473 
L 620.605401 499.976246 
L 620.824531 503.122257 
L 621.043059 512.583221 
L 621.478326 496.379237 
L 621.69507 533.050209 
L 621.911227 487.270284 
L 622.126798 486.952483 
L 622.341787 526.078017 
L 622.556198 530.548886 
L 622.770034 526.945975 
L 622.983296 505.684934 
L 623.195989 504.952194 
L 623.408116 493.229962 
L 623.61968 530.287617 
L 623.830683 490.419915 
L 624.041128 485.876398 
L 624.460358 503.505709 
L 624.669149 487.615266 
L 624.877394 506.435161 
L 625.085096 515.072227 
L 625.498881 482.577402 
L 626.115557 506.230786 
L 626.320059 498.708663 
L 626.524038 524.187543 
L 626.727495 499.896715 
L 626.930435 543.28516 
L 627.132858 496.535302 
L 627.334768 495.715361 
L 627.536168 544.068471 
L 627.73706 512.583353 
L 627.937446 518.150775 
L 628.336713 488.808555 
L 628.535599 486.523211 
L 628.733989 498.292543 
L 628.931886 497.998817 
L 629.129293 499.7965 
L 629.326211 499.533681 
L 629.522644 504.741846 
L 629.718594 497.88143 
L 629.914063 516.877848 
L 630.109054 487.229457 
L 630.303568 492.802146 
L 630.497608 510.530745 
L 630.691177 486.48074 
L 630.884277 505.298953 
L 631.269078 495.502985 
L 631.460783 495.76496 
L 631.652028 516.586904 
L 631.842815 506.063267 
L 632.223024 512.367247 
L 632.41245 484.972049 
L 632.601426 491.595214 
L 632.97804 525.18796 
L 633.165681 487.453158 
L 633.352881 493.256009 
L 633.539642 493.816629 
L 633.725966 504.845694 
L 633.911856 487.288182 
L 634.097312 495.527433 
L 634.282338 493.469585 
L 634.466935 508.245815 
L 634.651105 507.736665 
L 634.83485 485.925263 
L 635.018173 512.240609 
L 635.201074 500.873889 
L 635.565622 514.811163 
L 635.747272 490.928803 
L 635.928509 506.218045 
L 636.109335 489.400233 
L 636.289751 515.45786 
L 636.469759 500.399264 
L 636.649361 512.804623 
L 636.828559 498.09498 
L 637.007355 514.482468 
L 637.363748 479.304139 
L 637.541348 487.704801 
L 637.718553 508.765473 
L 637.895364 497.305215 
L 638.071784 497.016092 
L 638.247814 507.160965 
L 638.423456 507.73983 
L 638.598712 487.460206 
L 638.773582 496.658527 
L 638.94807 493.47714 
L 639.122176 481.295621 
L 639.295903 488.863481 
L 639.469251 491.504586 
L 639.642223 514.043167 
L 639.987044 483.870155 
L 640.330379 494.459483 
L 640.67224 495.992714 
L 640.842622 537.027455 
L 641.012641 490.782354 
L 641.182297 500.576046 
L 641.351593 488.618331 
L 641.520529 508.019351 
L 641.689108 500.527366 
L 641.857331 543.710714 
L 642.192715 500.724055 
L 642.359879 506.599632 
L 642.693158 488.800181 
L 642.859276 513.523773 
L 643.025049 488.786195 
L 643.190477 501.745495 
L 643.355562 530.178827 
L 643.520306 502.055913 
L 643.684709 500.805481 
L 643.848774 504.367022 
L 644.012502 487.650276 
L 644.175894 482.485433 
L 644.338952 503.402056 
L 644.501676 509.17607 
L 644.664069 523.663231 
L 644.826131 506.747395 
L 644.987864 511.520656 
L 645.14927 495.045758 
L 645.310349 497.979738 
L 645.471103 489.628991 
L 645.631533 492.530697 
L 645.791641 537.48107 
L 645.951427 501.05909 
L 646.270042 527.535013 
L 646.428873 526.395859 
L 646.587387 529.509453 
L 646.745587 508.940674 
L 646.903473 514.332642 
L 647.061047 495.877693 
L 647.21831 520.119726 
L 647.375263 499.559297 
L 647.688244 514.417384 
L 647.834425 577 
L 647.834425 577 
" style="fill:none;stroke:#b22222;stroke-linecap:round;stroke-width:1.75;"/>
   </g>
   <g id="patch_6">
    <path d="M 90 512.64 
L 90 311.04 
" style="fill:none;stroke:#262626;stroke-linecap:square;stroke-linejoin:miter;stroke-width:1.25;"/>
   </g>
   <g id="patch_7">
    <path d="M 90 512.64 
L 648 512.64 
" style="fill:none;stroke:#262626;stroke-linecap:square;stroke-linejoin:miter;stroke-width:1.25;"/>
   </g>
  </g>
 </g>
 <defs>
  <clipPath id="pcec1914c2f">
   <rect height="201.6" width="558" x="90" y="69.12"/>
  </clipPath>
  <clipPath id="p1733d5b6b8">
   <rect height="201.6" width="558" x="90" y="311.04"/>
  </clipPath>
 </defs>
</svg>
