<?xml version="1.0" encoding="utf-8" standalone="no"?>
<!DOCTYPE svg PUBLIC "-//W3C//DTD SVG 1.1//EN"
  "http://www.w3.org/Graphics/SVG/1.1/DTD/svg11.dtd">
<!-- Created with matplotlib (http://matplotlib.org/) -->
<svg height="576pt" version="1.1" viewBox="0 0 720 576" width="720pt" xmlns="http://www.w3.org/2000/svg" xmlns:xlink="http://www.w3.org/1999/xlink">
 <defs>
  <style type="text/css">
*{stroke-linecap:butt;stroke-linejoin:round;}
  </style>
 </defs>
 <g id="figure_1">
  <g id="patch_1">
   <path d="M 0 576 
L 720 576 
L 720 0 
L 0 0 
z
" style="fill:#ffffff;"/>
  </g>
  <g id="axes_1">
   <g id="patch_2">
    <path d="M 90 270.72 
L 648 270.72 
L 648 69.12 
L 90 69.12 
z
" style="fill:#ffffff;"/>
   </g>
   <g id="matplotlib.axis_1">
    <g id="xtick_1">
     <g id="line2d_1">
      <defs>
       <path d="M 0 0 
L 0 6 
" id="m43483ffe21" style="stroke:#262626;"/>
      </defs>
      <g>
       <use style="fill:#262626;stroke:#262626;" x="90" xlink:href="#m43483ffe21" y="270.72"/>
      </g>
     </g>
     <g id="text_1">
      <!-- 0 -->
      <defs>
       <path d="M 4.15625 35.296875 
Q 4.15625 48 6.765625 55.734375 
Q 9.375 63.484375 14.515625 67.671875 
Q 19.671875 71.875 27.484375 71.875 
Q 33.25 71.875 37.59375 69.546875 
Q 41.9375 67.234375 44.765625 62.859375 
Q 47.609375 58.5 49.21875 52.21875 
Q 50.828125 45.953125 50.828125 35.296875 
Q 50.828125 22.703125 48.234375 14.96875 
Q 45.65625 7.234375 40.5 3 
Q 35.359375 -1.21875 27.484375 -1.21875 
Q 17.140625 -1.21875 11.234375 6.203125 
Q 4.15625 15.140625 4.15625 35.296875 
z
M 13.1875 35.296875 
Q 13.1875 17.671875 17.3125 11.828125 
Q 21.4375 6 27.484375 6 
Q 33.546875 6 37.671875 11.859375 
Q 41.796875 17.71875 41.796875 35.296875 
Q 41.796875 52.984375 37.671875 58.78125 
Q 33.546875 64.59375 27.390625 64.59375 
Q 21.34375 64.59375 17.71875 59.46875 
Q 13.1875 52.9375 13.1875 35.296875 
z
" id="ArialMT-30"/>
      </defs>
      <g style="fill:#262626;" transform="translate(87.219531 290.877812)scale(0.1 -0.1)">
       <use xlink:href="#ArialMT-30"/>
      </g>
     </g>
    </g>
    <g id="xtick_2">
     <g id="line2d_2">
      <g>
       <use style="fill:#262626;stroke:#262626;" x="198.984375" xlink:href="#m43483ffe21" y="270.72"/>
      </g>
     </g>
     <g id="text_2">
      <!-- 200 -->
      <defs>
       <path d="M 50.34375 8.453125 
L 50.34375 0 
L 3.03125 0 
Q 2.9375 3.171875 4.046875 6.109375 
Q 5.859375 10.9375 9.828125 15.625 
Q 13.8125 20.3125 21.34375 26.46875 
Q 33.015625 36.03125 37.109375 41.625 
Q 41.21875 47.21875 41.21875 52.203125 
Q 41.21875 57.421875 37.46875 61 
Q 33.734375 64.59375 27.734375 64.59375 
Q 21.390625 64.59375 17.578125 60.78125 
Q 13.765625 56.984375 13.71875 50.25 
L 4.6875 51.171875 
Q 5.609375 61.28125 11.65625 66.578125 
Q 17.71875 71.875 27.9375 71.875 
Q 38.234375 71.875 44.234375 66.15625 
Q 50.25 60.453125 50.25 52 
Q 50.25 47.703125 48.484375 43.546875 
Q 46.734375 39.40625 42.65625 34.8125 
Q 38.578125 30.21875 29.109375 22.21875 
Q 21.1875 15.578125 18.9375 13.203125 
Q 16.703125 10.84375 15.234375 8.453125 
z
" id="ArialMT-32"/>
      </defs>
      <g style="fill:#262626;" transform="translate(190.642969 290.877812)scale(0.1 -0.1)">
       <use xlink:href="#ArialMT-32"/>
       <use x="55.615234" xlink:href="#ArialMT-30"/>
       <use x="111.230469" xlink:href="#ArialMT-30"/>
      </g>
     </g>
    </g>
    <g id="xtick_3">
     <g id="line2d_3">
      <g>
       <use style="fill:#262626;stroke:#262626;" x="307.96875" xlink:href="#m43483ffe21" y="270.72"/>
      </g>
     </g>
     <g id="text_3">
      <!-- 400 -->
      <defs>
       <path d="M 32.328125 0 
L 32.328125 17.140625 
L 1.265625 17.140625 
L 1.265625 25.203125 
L 33.9375 71.578125 
L 41.109375 71.578125 
L 41.109375 25.203125 
L 50.78125 25.203125 
L 50.78125 17.140625 
L 41.109375 17.140625 
L 41.109375 0 
z
M 32.328125 25.203125 
L 32.328125 57.46875 
L 9.90625 25.203125 
z
" id="ArialMT-34"/>
      </defs>
      <g style="fill:#262626;" transform="translate(299.627344 290.877812)scale(0.1 -0.1)">
       <use xlink:href="#ArialMT-34"/>
       <use x="55.615234" xlink:href="#ArialMT-30"/>
       <use x="111.230469" xlink:href="#ArialMT-30"/>
      </g>
     </g>
    </g>
    <g id="xtick_4">
     <g id="line2d_4">
      <g>
       <use style="fill:#262626;stroke:#262626;" x="416.953125" xlink:href="#m43483ffe21" y="270.72"/>
      </g>
     </g>
     <g id="text_4">
      <!-- 600 -->
      <defs>
       <path d="M 49.75 54.046875 
L 41.015625 53.375 
Q 39.84375 58.546875 37.703125 60.890625 
Q 34.125 64.65625 28.90625 64.65625 
Q 24.703125 64.65625 21.53125 62.3125 
Q 17.390625 59.28125 14.984375 53.46875 
Q 12.59375 47.65625 12.5 36.921875 
Q 15.671875 41.75 20.265625 44.09375 
Q 24.859375 46.4375 29.890625 46.4375 
Q 38.671875 46.4375 44.84375 39.96875 
Q 51.03125 33.5 51.03125 23.25 
Q 51.03125 16.5 48.125 10.71875 
Q 45.21875 4.9375 40.140625 1.859375 
Q 35.0625 -1.21875 28.609375 -1.21875 
Q 17.625 -1.21875 10.6875 6.859375 
Q 3.765625 14.9375 3.765625 33.5 
Q 3.765625 54.25 11.421875 63.671875 
Q 18.109375 71.875 29.4375 71.875 
Q 37.890625 71.875 43.28125 67.140625 
Q 48.6875 62.40625 49.75 54.046875 
z
M 13.875 23.1875 
Q 13.875 18.65625 15.796875 14.5 
Q 17.71875 10.359375 21.1875 8.171875 
Q 24.65625 6 28.46875 6 
Q 34.03125 6 38.03125 10.484375 
Q 42.046875 14.984375 42.046875 22.703125 
Q 42.046875 30.125 38.078125 34.390625 
Q 34.125 38.671875 28.125 38.671875 
Q 22.171875 38.671875 18.015625 34.390625 
Q 13.875 30.125 13.875 23.1875 
z
" id="ArialMT-36"/>
      </defs>
      <g style="fill:#262626;" transform="translate(408.611719 290.877812)scale(0.1 -0.1)">
       <use xlink:href="#ArialMT-36"/>
       <use x="55.615234" xlink:href="#ArialMT-30"/>
       <use x="111.230469" xlink:href="#ArialMT-30"/>
      </g>
     </g>
    </g>
    <g id="xtick_5">
     <g id="line2d_5">
      <g>
       <use style="fill:#262626;stroke:#262626;" x="525.9375" xlink:href="#m43483ffe21" y="270.72"/>
      </g>
     </g>
     <g id="text_5">
      <!-- 800 -->
      <defs>
       <path d="M 17.671875 38.8125 
Q 12.203125 40.828125 9.5625 44.53125 
Q 6.9375 48.25 6.9375 53.421875 
Q 6.9375 61.234375 12.546875 66.546875 
Q 18.171875 71.875 27.484375 71.875 
Q 36.859375 71.875 42.578125 66.421875 
Q 48.296875 60.984375 48.296875 53.171875 
Q 48.296875 48.1875 45.671875 44.5 
Q 43.0625 40.828125 37.75 38.8125 
Q 44.34375 36.671875 47.78125 31.875 
Q 51.21875 27.09375 51.21875 20.453125 
Q 51.21875 11.28125 44.71875 5.03125 
Q 38.234375 -1.21875 27.640625 -1.21875 
Q 17.046875 -1.21875 10.546875 5.046875 
Q 4.046875 11.328125 4.046875 20.703125 
Q 4.046875 27.6875 7.59375 32.390625 
Q 11.140625 37.109375 17.671875 38.8125 
z
M 15.921875 53.71875 
Q 15.921875 48.640625 19.1875 45.40625 
Q 22.46875 42.1875 27.6875 42.1875 
Q 32.765625 42.1875 36.015625 45.375 
Q 39.265625 48.578125 39.265625 53.21875 
Q 39.265625 58.0625 35.90625 61.359375 
Q 32.5625 64.65625 27.59375 64.65625 
Q 22.5625 64.65625 19.234375 61.421875 
Q 15.921875 58.203125 15.921875 53.71875 
z
M 13.09375 20.65625 
Q 13.09375 16.890625 14.875 13.375 
Q 16.65625 9.859375 20.171875 7.921875 
Q 23.6875 6 27.734375 6 
Q 34.03125 6 38.125 10.046875 
Q 42.234375 14.109375 42.234375 20.359375 
Q 42.234375 26.703125 38.015625 30.859375 
Q 33.796875 35.015625 27.4375 35.015625 
Q 21.234375 35.015625 17.15625 30.90625 
Q 13.09375 26.8125 13.09375 20.65625 
z
" id="ArialMT-38"/>
      </defs>
      <g style="fill:#262626;" transform="translate(517.596094 290.877812)scale(0.1 -0.1)">
       <use xlink:href="#ArialMT-38"/>
       <use x="55.615234" xlink:href="#ArialMT-30"/>
       <use x="111.230469" xlink:href="#ArialMT-30"/>
      </g>
     </g>
    </g>
    <g id="xtick_6">
     <g id="line2d_6">
      <g>
       <use style="fill:#262626;stroke:#262626;" x="634.921875" xlink:href="#m43483ffe21" y="270.72"/>
      </g>
     </g>
     <g id="text_6">
      <!-- 1000 -->
      <defs>
       <path d="M 37.25 0 
L 28.46875 0 
L 28.46875 56 
Q 25.296875 52.984375 20.140625 49.953125 
Q 14.984375 46.921875 10.890625 45.40625 
L 10.890625 53.90625 
Q 18.265625 57.375 23.78125 62.296875 
Q 29.296875 67.234375 31.59375 71.875 
L 37.25 71.875 
z
" id="ArialMT-31"/>
      </defs>
      <g style="fill:#262626;" transform="translate(623.8 290.877812)scale(0.1 -0.1)">
       <use xlink:href="#ArialMT-31"/>
       <use x="55.615234" xlink:href="#ArialMT-30"/>
       <use x="111.230469" xlink:href="#ArialMT-30"/>
       <use x="166.845703" xlink:href="#ArialMT-30"/>
      </g>
     </g>
    </g>
   </g>
   <g id="matplotlib.axis_2">
    <g id="ytick_1">
     <g id="line2d_7">
      <defs>
       <path d="M 0 0 
L -6 0 
" id="m1eeb555c0b" style="stroke:#262626;"/>
      </defs>
      <g>
       <use style="fill:#262626;stroke:#262626;" x="90" xlink:href="#m1eeb555c0b" y="270.72"/>
      </g>
     </g>
     <g id="text_7">
      <!-- −0.6 -->
      <defs>
       <path d="M 52.828125 31.203125 
L 5.5625 31.203125 
L 5.5625 39.40625 
L 52.828125 39.40625 
z
" id="ArialMT-2212"/>
       <path d="M 9.078125 0 
L 9.078125 10.015625 
L 19.09375 10.015625 
L 19.09375 0 
z
" id="ArialMT-2e"/>
      </defs>
      <g style="fill:#262626;" transform="translate(57.259375 274.298906)scale(0.1 -0.1)">
       <use xlink:href="#ArialMT-2212"/>
       <use x="58.398438" xlink:href="#ArialMT-30"/>
       <use x="114.013672" xlink:href="#ArialMT-2e"/>
       <use x="141.796875" xlink:href="#ArialMT-36"/>
      </g>
     </g>
    </g>
    <g id="ytick_2">
     <g id="line2d_8">
      <g>
       <use style="fill:#262626;stroke:#262626;" x="90" xlink:href="#m1eeb555c0b" y="237.12"/>
      </g>
     </g>
     <g id="text_8">
      <!-- −0.4 -->
      <g style="fill:#262626;" transform="translate(57.259375 240.698906)scale(0.1 -0.1)">
       <use xlink:href="#ArialMT-2212"/>
       <use x="58.398438" xlink:href="#ArialMT-30"/>
       <use x="114.013672" xlink:href="#ArialMT-2e"/>
       <use x="141.796875" xlink:href="#ArialMT-34"/>
      </g>
     </g>
    </g>
    <g id="ytick_3">
     <g id="line2d_9">
      <g>
       <use style="fill:#262626;stroke:#262626;" x="90" xlink:href="#m1eeb555c0b" y="203.52"/>
      </g>
     </g>
     <g id="text_9">
      <!-- −0.2 -->
      <g style="fill:#262626;" transform="translate(57.259375 207.098906)scale(0.1 -0.1)">
       <use xlink:href="#ArialMT-2212"/>
       <use x="58.398438" xlink:href="#ArialMT-30"/>
       <use x="114.013672" xlink:href="#ArialMT-2e"/>
       <use x="141.796875" xlink:href="#ArialMT-32"/>
      </g>
     </g>
    </g>
    <g id="ytick_4">
     <g id="line2d_10">
      <g>
       <use style="fill:#262626;stroke:#262626;" x="90" xlink:href="#m1eeb555c0b" y="169.92"/>
      </g>
     </g>
     <g id="text_10">
      <!-- 0.0 -->
      <g style="fill:#262626;" transform="translate(63.1 173.498906)scale(0.1 -0.1)">
       <use xlink:href="#ArialMT-30"/>
       <use x="55.615234" xlink:href="#ArialMT-2e"/>
       <use x="83.398438" xlink:href="#ArialMT-30"/>
      </g>
     </g>
    </g>
    <g id="ytick_5">
     <g id="line2d_11">
      <g>
       <use style="fill:#262626;stroke:#262626;" x="90" xlink:href="#m1eeb555c0b" y="136.32"/>
      </g>
     </g>
     <g id="text_11">
      <!-- 0.2 -->
      <g style="fill:#262626;" transform="translate(63.1 139.898906)scale(0.1 -0.1)">
       <use xlink:href="#ArialMT-30"/>
       <use x="55.615234" xlink:href="#ArialMT-2e"/>
       <use x="83.398438" xlink:href="#ArialMT-32"/>
      </g>
     </g>
    </g>
    <g id="ytick_6">
     <g id="line2d_12">
      <g>
       <use style="fill:#262626;stroke:#262626;" x="90" xlink:href="#m1eeb555c0b" y="102.72"/>
      </g>
     </g>
     <g id="text_12">
      <!-- 0.4 -->
      <g style="fill:#262626;" transform="translate(63.1 106.298906)scale(0.1 -0.1)">
       <use xlink:href="#ArialMT-30"/>
       <use x="55.615234" xlink:href="#ArialMT-2e"/>
       <use x="83.398438" xlink:href="#ArialMT-34"/>
      </g>
     </g>
    </g>
    <g id="ytick_7">
     <g id="line2d_13">
      <g>
       <use style="fill:#262626;stroke:#262626;" x="90" xlink:href="#m1eeb555c0b" y="69.12"/>
      </g>
     </g>
     <g id="text_13">
      <!-- 0.6 -->
      <g style="fill:#262626;" transform="translate(63.1 72.698906)scale(0.1 -0.1)">
       <use xlink:href="#ArialMT-30"/>
       <use x="55.615234" xlink:href="#ArialMT-2e"/>
       <use x="83.398438" xlink:href="#ArialMT-36"/>
      </g>
     </g>
    </g>
   </g>
   <g id="line2d_14">
    <path clip-path="url(#p2e719646c6)" d="M 90 154.272539 
L 91.634766 154.867266 
L 92.724609 154.790361 
L 93.269531 154.82625 
L 93.814453 154.11873 
L 94.359375 154.000811 
L 94.904297 153.083086 
L 95.449219 152.529375 
L 97.083984 149.786455 
L 99.263672 145.341387 
L 99.808594 143.895586 
L 100.898438 142.470293 
L 101.988281 141.793535 
L 102.533203 142.019121 
L 103.078125 142.413896 
L 104.167969 144.008379 
L 105.802734 147.879229 
L 106.347656 149.581377 
L 107.4375 152.50374 
L 111.251953 162.362871 
L 112.341797 164.880205 
L 113.431641 166.997637 
L 115.611328 169.468828 
L 117.246094 169.889238 
L 117.791016 169.673906 
L 118.335938 169.786699 
L 118.880859 169.679033 
L 119.425781 169.320146 
L 120.515625 169.135576 
L 122.695312 166.895098 
L 123.240234 166.028643 
L 124.875 162.506426 
L 127.054688 156.938555 
L 128.689453 152.601152 
L 133.59375 142.260088 
L 134.138672 141.460283 
L 134.683594 140.419512 
L 136.318359 138.240557 
L 136.863281 138.148271 
L 137.408203 137.717607 
L 138.498047 137.584307 
L 139.587891 137.973955 
L 141.222656 139.394121 
L 141.767578 140.183672 
L 142.857422 141.137285 
L 144.492188 142.824053 
L 146.671875 144.244219 
L 147.216797 144.480059 
L 147.761719 144.423662 
L 148.306641 144.56209 
L 148.851562 144.454424 
L 149.396484 144.608232 
L 150.486328 145.428545 
L 151.576172 147.335771 
L 152.666016 150.335039 
L 154.300781 156.405352 
L 155.390625 160.737627 
L 157.025391 168.00252 
L 159.75 178.271807 
L 161.384766 182.737383 
L 161.929688 183.732012 
L 162.474609 184.449785 
L 163.019531 184.870195 
L 164.109375 184.649736 
L 164.654297 183.644854 
L 165.744141 181.230059 
L 170.648438 162.706377 
L 171.738281 159.496904 
L 172.828125 156.67708 
L 173.917969 154.52376 
L 175.552734 152.370439 
L 176.097656 151.770586 
L 177.1875 151.129717 
L 178.822266 151.324541 
L 179.912109 151.796221 
L 181.001953 152.360186 
L 181.546875 152.831865 
L 182.091797 152.831865 
L 183.181641 153.359941 
L 184.271484 153.32918 
L 184.816406 153.206133 
L 185.90625 152.821611 
L 186.451172 152.298662 
L 186.996094 151.96541 
L 188.630859 149.366045 
L 189.175781 147.807451 
L 190.265625 145.387529 
L 191.900391 141.844805 
L 192.990234 140.855303 
L 193.535156 140.501543 
L 194.080078 140.701494 
L 195.169922 141.839678 
L 195.714844 142.562578 
L 196.804688 144.469805 
L 198.984375 149.62752 
L 199.529297 151.24251 
L 200.074219 152.43709 
L 202.253906 158.34334 
L 202.798828 159.53792 
L 203.34375 161.137529 
L 204.433594 163.516436 
L 205.523438 165.346758 
L 207.158203 166.828447 
L 208.792969 167.976885 
L 209.337891 167.935869 
L 209.882812 168.551104 
L 210.427734 168.520342 
L 210.972656 168.730547 
L 211.517578 169.089434 
L 212.607422 168.838213 
L 213.697266 168.330645 
L 214.242188 167.433428 
L 214.787109 166.75667 
L 216.966797 162.132158 
L 220.236328 154.400713 
L 220.78125 152.836992 
L 222.960938 147.766436 
L 225.140625 142.670244 
L 226.230469 140.434893 
L 227.865234 138.112383 
L 229.5 137.081865 
L 230.044922 136.984453 
L 230.589844 137.061357 
L 231.679688 137.568926 
L 232.769531 138.445635 
L 234.404297 140.901445 
L 236.039062 142.618975 
L 236.583984 142.803545 
L 237.128906 143.193193 
L 237.673828 143.388018 
L 238.21875 143.31624 
L 238.763672 143.388018 
L 239.308594 143.270098 
L 239.853516 143.388018 
L 240.398438 143.295732 
L 242.033203 144.387773 
L 242.578125 145.131182 
L 243.123047 146.202715 
L 244.757812 150.622148 
L 246.392578 156.507891 
L 248.572266 165.515947 
L 249.662109 170.299395 
L 251.296875 177.543779 
L 253.476562 184.460039 
L 254.021484 185.711016 
L 254.566406 186.285234 
L 255.111328 186.454424 
L 255.65625 186.403154 
L 256.201172 185.695635 
L 257.291016 183.660234 
L 258.925781 178.523027 
L 259.470703 176.29793 
L 260.015625 174.606035 
L 261.105469 170.499346 
L 262.740234 164.895586 
L 264.919922 158.994463 
L 266.554688 155.928545 
L 267.099609 155.026201 
L 267.644531 154.554521 
L 268.189453 154.241777 
L 268.734375 153.662432 
L 270.914062 153.780352 
L 273.638672 154.939043 
L 274.728516 155.800371 
L 275.273438 155.964434 
L 275.818359 156.477129 
L 276.363281 156.482256 
L 276.908203 156.656572 
L 277.998047 156.066973 
L 278.542969 155.344072 
L 279.632812 153.293291 
L 282.357422 147.110186 
L 282.902344 146.423174 
L 283.447266 145.40291 
L 284.537109 144.27498 
L 285.082031 144.116045 
L 286.171875 144.192949 
L 287.806641 145.797686 
L 289.441406 148.561113 
L 293.255859 158.445879 
L 293.800781 160.26082 
L 295.980469 165.315996 
L 297.070312 167.05916 
L 297.615234 167.946123 
L 298.160156 168.617754 
L 298.705078 169.038164 
L 299.25 170.176348 
L 299.794922 170.560869 
L 300.339844 171.2325 
L 302.519531 173.160234 
L 303.064453 173.365312 
L 304.154297 173.242266 
L 305.244141 172.627031 
L 305.789062 172.068193 
L 306.878906 170.453203 
L 311.238281 161.670732 
L 315.052734 151.862871 
L 318.322266 144.459551 
L 319.412109 142.731768 
L 320.501953 141.352617 
L 321.046875 140.819414 
L 322.136719 140.563066 
L 323.226562 140.97835 
L 324.316406 141.998613 
L 326.496094 145.069658 
L 327.041016 145.346514 
L 328.130859 146.253984 
L 329.220703 146.351396 
L 330.855469 145.99251 
L 331.400391 146.151445 
L 331.945312 146.048906 
L 333.035156 146.751299 
L 334.125 148.130449 
L 335.214844 150.268389 
L 337.394531 156.128496 
L 339.029297 161.906572 
L 342.298828 177.164385 
L 343.388672 182.096514 
L 344.478516 186.228838 
L 345.023438 187.972002 
L 345.568359 189.207598 
L 346.113281 190.074053 
L 346.658203 190.49959 
L 347.203125 190.648271 
L 347.748047 190.232988 
L 348.292969 189.551104 
L 348.837891 188.571855 
L 350.472656 184.285723 
L 354.287109 171.386309 
L 354.832031 169.335527 
L 357.011719 163.152422 
L 357.556641 161.952715 
L 359.191406 159.72249 
L 359.736328 159.025225 
L 361.371094 157.907549 
L 361.916016 157.651201 
L 363.005859 157.415361 
L 364.095703 157.92293 
L 364.640625 158.379229 
L 365.185547 158.99959 
L 366.275391 159.881426 
L 366.820312 160.158281 
L 367.365234 160.768389 
L 367.910156 160.701738 
L 368.455078 160.876055 
L 369.544922 160.173662 
L 370.089844 159.548174 
L 370.634766 158.594561 
L 372.269531 154.703203 
L 372.814453 153.185625 
L 374.449219 149.909502 
L 375.539062 148.432939 
L 376.628906 147.951006 
L 377.71875 147.945879 
L 378.808594 148.555986 
L 379.353516 148.873857 
L 380.443359 150.294023 
L 383.167969 156.810381 
L 383.712891 158.194658 
L 384.257812 159.942949 
L 386.4375 165.044268 
L 388.072266 168.515215 
L 388.617188 169.535479 
L 389.162109 170.094316 
L 391.341797 173.529375 
L 391.886719 174.108721 
L 392.431641 175.082842 
L 394.066406 176.95418 
L 394.611328 177.154131 
L 395.15625 177.513018 
L 396.246094 177.620684 
L 398.425781 175.857012 
L 398.970703 175.257158 
L 401.150391 171.617021 
L 404.964844 162.665361 
L 409.324219 151.452715 
L 410.414062 149.125078 
L 411.503906 147.048662 
L 412.048828 146.612871 
L 412.59375 145.920732 
L 414.228516 145.946367 
L 415.318359 146.915361 
L 416.953125 149.166094 
L 418.587891 150.816973 
L 419.132812 151.063066 
L 420.222656 151.232256 
L 420.767578 151.416826 
L 421.3125 151.293779 
L 422.402344 151.339922 
L 422.947266 151.406572 
L 424.037109 151.832109 
L 424.582031 152.221758 
L 425.671875 153.406084 
L 427.306641 155.887529 
L 428.396484 158.235674 
L 429.486328 161.378496 
L 431.121094 167.438555 
L 434.390625 183.808916 
L 436.025391 190.525225 
L 437.115234 193.698809 
L 438.205078 195.247148 
L 438.75 195.298418 
L 439.294922 195.467607 
L 439.839844 194.847246 
L 440.384766 194.616533 
L 440.929688 193.837236 
L 442.564453 189.90999 
L 446.378906 176.344072 
L 447.46875 173.1346 
L 448.013672 171.514482 
L 448.558594 170.514727 
L 449.103516 169.089434 
L 450.738281 165.961992 
L 451.283203 165.300615 
L 451.828125 164.388018 
L 452.373047 163.906084 
L 452.917969 163.12166 
L 453.462891 162.896074 
L 454.552734 162.81917 
L 455.642578 163.249834 
L 456.1875 163.788164 
L 456.732422 164.136797 
L 457.277344 164.885332 
L 458.912109 165.936357 
L 459.457031 166.074785 
L 460.001953 165.910723 
L 461.091797 164.931475 
L 461.636719 163.931719 
L 462.181641 163.219072 
L 463.271484 160.829912 
L 463.816406 159.932695 
L 464.90625 157.630693 
L 466.541016 154.805742 
L 467.085938 154.241777 
L 467.630859 153.51375 
L 468.720703 152.734453 
L 469.810547 152.580645 
L 471.445312 154.000811 
L 471.990234 154.605791 
L 473.625 158.081865 
L 476.349609 165.054521 
L 477.439453 167.505205 
L 477.984375 168.797197 
L 480.708984 173.903643 
L 482.888672 178.174395 
L 484.523438 181.004473 
L 485.068359 181.460771 
L 485.613281 182.193926 
L 486.158203 182.634844 
L 486.703125 183.234697 
L 487.792969 183.639727 
L 488.337891 183.6346 
L 489.427734 183.147539 
L 489.972656 182.845049 
L 490.517578 182.363115 
L 492.697266 179.117754 
L 495.966797 172.12459 
L 498.691406 165.56209 
L 499.78125 162.285967 
L 500.326172 161.014482 
L 501.416016 157.933184 
L 502.505859 155.292803 
L 503.595703 153.252275 
L 504.685547 152.606279 
L 505.230469 152.493486 
L 506.320312 153.062578 
L 507.410156 153.918779 
L 507.955078 154.554521 
L 508.5 154.980059 
L 509.044922 155.24666 
L 509.589844 155.995195 
L 510.679688 156.32332 
L 511.224609 156.410479 
L 511.769531 156.636064 
L 512.314453 156.712969 
L 512.859375 156.671953 
L 513.404297 156.887285 
L 513.949219 156.759111 
L 514.494141 157.251299 
L 515.039062 157.389727 
L 516.128906 158.102373 
L 516.673828 158.451006 
L 517.21875 158.953447 
L 517.763672 159.609697 
L 518.308594 159.978838 
L 519.943359 162.521807 
L 520.488281 163.629229 
L 521.033203 165.121172 
L 522.123047 168.833086 
L 523.212891 173.662676 
L 524.847656 182.147783 
L 526.482422 190.130449 
L 527.572266 194.913896 
L 529.207031 199.974199 
L 530.296875 202.050615 
L 531.386719 202.471025 
L 531.931641 202.286455 
L 532.476562 201.855791 
L 533.021484 201.204668 
L 534.111328 198.636064 
L 536.291016 192.140215 
L 536.835938 189.935625 
L 537.925781 186.633867 
L 539.015625 183.116777 
L 542.830078 173.406328 
L 543.919922 171.581133 
L 545.009766 170.565996 
L 545.554688 170.381426 
L 546.099609 170.719805 
L 546.644531 170.837725 
L 547.189453 171.18123 
L 549.369141 173.478105 
L 549.914062 173.703691 
L 550.458984 174.195879 
L 551.548828 173.934404 
L 553.183594 172.59627 
L 555.363281 169.089434 
L 556.998047 166.074785 
L 557.542969 165.32625 
L 558.087891 164.13167 
L 558.632812 163.557451 
L 559.177734 162.614092 
L 560.8125 161.091387 
L 561.902344 160.96834 
L 562.447266 161.291338 
L 562.992188 161.763018 
L 564.082031 163.131914 
L 566.261719 167.889727 
L 567.351562 170.437822 
L 567.896484 171.370928 
L 569.53125 175.108477 
L 571.166016 178.640947 
L 571.710938 180.014971 
L 572.800781 182.122148 
L 574.980469 186.587725 
L 575.525391 187.392656 
L 576.070312 188.556475 
L 576.615234 189.053789 
L 578.25 191.048174 
L 578.794922 191.422441 
L 579.339844 191.39168 
L 580.429688 191.771074 
L 580.974609 191.62752 
L 581.519531 191.299395 
L 583.154297 189.817705 
L 583.699219 188.910234 
L 584.244141 188.305254 
L 585.333984 186.418535 
L 585.878906 185.136797 
L 586.96875 183.116777 
L 588.603516 179.374102 
L 590.238281 174.657305 
L 593.507812 164.464922 
L 594.052734 163.05501 
L 595.142578 161.122148 
L 595.6875 160.609453 
L 596.777344 160.096758 
L 597.322266 160.045488 
L 598.957031 160.717119 
L 599.501953 161.311846 
L 600.046875 161.429766 
L 600.591797 162.024492 
L 601.136719 161.97835 
L 603.316406 162.814043 
L 604.40625 162.875566 
L 604.951172 163.05501 
L 606.041016 163.706133 
L 606.585938 163.608721 
L 607.130859 164.003496 
L 607.675781 163.977861 
L 608.220703 164.06502 
L 608.765625 164.408525 
L 609.310547 164.244463 
L 610.945312 165.490312 
L 611.490234 166.346514 
L 612.580078 169.058672 
L 613.669922 172.698809 
L 615.304688 179.799639 
L 616.939453 187.961748 
L 619.119141 198.436113 
L 620.208984 202.43001 
L 620.753906 204.127031 
L 621.84375 206.849443 
L 622.388672 207.495439 
L 622.933594 207.905596 
L 623.478516 207.992754 
L 624.023438 207.669756 
L 624.568359 207.105791 
L 625.113281 205.906084 
L 625.658203 205.157549 
L 626.748047 202.563311 
L 629.472656 194.606279 
L 630.5625 191.355791 
L 631.652344 187.736162 
L 633.287109 182.62459 
L 633.832031 180.937822 
L 635.466797 177.682207 
L 636.556641 176.831133 
L 637.101562 176.661943 
L 637.646484 176.656816 
L 638.191406 177.097734 
L 639.28125 177.738604 
L 639.826172 178.420488 
L 640.371094 178.917803 
L 640.916016 179.143389 
L 641.460938 179.574053 
L 642.550781 179.599687 
L 643.095703 179.46126 
L 644.730469 178.128252 
L 647.455078 174.057451 
L 647.455078 174.057451 
" style="fill:none;stroke:#4c72b0;stroke-linecap:round;stroke-width:1.75;"/>
   </g>
   <g id="patch_3">
    <path d="M 90 270.72 
L 90 69.12 
" style="fill:none;stroke:#262626;stroke-linecap:square;stroke-linejoin:miter;stroke-width:1.25;"/>
   </g>
   <g id="patch_4">
    <path d="M 90 270.72 
L 648 270.72 
" style="fill:none;stroke:#262626;stroke-linecap:square;stroke-linejoin:miter;stroke-width:1.25;"/>
   </g>
  </g>
  <g id="axes_2">
   <g id="patch_5">
    <path d="M 90 512.64 
L 648 512.64 
L 648 311.04 
L 90 311.04 
z
" style="fill:#ffffff;"/>
   </g>
   <g id="matplotlib.axis_3">
    <g id="xtick_7">
     <g id="line2d_15">
      <g>
       <use style="fill:#262626;stroke:#262626;" x="218.197478" xlink:href="#m43483ffe21" y="512.64"/>
      </g>
     </g>
     <g id="text_14">
      <!-- $\mathdefault{10^{2}}$ -->
      <g style="fill:#262626;" transform="translate(210.347478 535.9525)scale(0.1 -0.1)">
       <use transform="translate(0 0.99375)" xlink:href="#ArialMT-31"/>
       <use transform="translate(55.615234 0.99375)" xlink:href="#ArialMT-30"/>
       <use transform="translate(112.972813 70.6875)scale(0.7)" xlink:href="#ArialMT-32"/>
      </g>
     </g>
    </g>
    <g id="xtick_8">
     <g id="line2d_16">
      <g>
       <use style="fill:#262626;stroke:#262626;" x="401.606604" xlink:href="#m43483ffe21" y="512.64"/>
      </g>
     </g>
     <g id="text_15">
      <!-- $\mathdefault{10^{3}}$ -->
      <defs>
       <path d="M 4.203125 18.890625 
L 12.984375 20.0625 
Q 14.5 12.59375 18.140625 9.296875 
Q 21.78125 6 27 6 
Q 33.203125 6 37.46875 10.296875 
Q 41.75 14.59375 41.75 20.953125 
Q 41.75 27 37.796875 30.921875 
Q 33.84375 34.859375 27.734375 34.859375 
Q 25.25 34.859375 21.53125 33.890625 
L 22.515625 41.609375 
Q 23.390625 41.5 23.921875 41.5 
Q 29.546875 41.5 34.03125 44.421875 
Q 38.53125 47.359375 38.53125 53.46875 
Q 38.53125 58.296875 35.25 61.46875 
Q 31.984375 64.65625 26.8125 64.65625 
Q 21.6875 64.65625 18.265625 61.421875 
Q 14.84375 58.203125 13.875 51.765625 
L 5.078125 53.328125 
Q 6.6875 62.15625 12.390625 67.015625 
Q 18.109375 71.875 26.609375 71.875 
Q 32.46875 71.875 37.390625 69.359375 
Q 42.328125 66.84375 44.9375 62.5 
Q 47.5625 58.15625 47.5625 53.265625 
Q 47.5625 48.640625 45.0625 44.828125 
Q 42.578125 41.015625 37.703125 38.765625 
Q 44.046875 37.3125 47.5625 32.6875 
Q 51.078125 28.078125 51.078125 21.140625 
Q 51.078125 11.765625 44.234375 5.25 
Q 37.40625 -1.265625 26.953125 -1.265625 
Q 17.53125 -1.265625 11.296875 4.34375 
Q 5.078125 9.96875 4.203125 18.890625 
z
" id="ArialMT-33"/>
      </defs>
      <g style="fill:#262626;" transform="translate(393.756604 535.9525)scale(0.1 -0.1)">
       <use transform="translate(0 0.99375)" xlink:href="#ArialMT-31"/>
       <use transform="translate(55.615234 0.99375)" xlink:href="#ArialMT-30"/>
       <use transform="translate(112.972813 70.6875)scale(0.7)" xlink:href="#ArialMT-33"/>
      </g>
     </g>
    </g>
    <g id="xtick_9">
     <g id="line2d_17">
      <g>
       <use style="fill:#262626;stroke:#262626;" x="585.01573" xlink:href="#m43483ffe21" y="512.64"/>
      </g>
     </g>
     <g id="text_16">
      <!-- $\mathdefault{10^{4}}$ -->
      <g style="fill:#262626;" transform="translate(577.16573 535.8525)scale(0.1 -0.1)">
       <use transform="translate(0 0.201563)" xlink:href="#ArialMT-31"/>
       <use transform="translate(55.615234 0.201563)" xlink:href="#ArialMT-30"/>
       <use transform="translate(112.972813 69.895313)scale(0.7)" xlink:href="#ArialMT-34"/>
      </g>
     </g>
    </g>
    <g id="xtick_10">
     <g id="line2d_18">
      <defs>
       <path d="M 0 0 
L 0 3 
" id="m4da95ed3b1" style="stroke:#262626;stroke-width:0.5;"/>
      </defs>
      <g>
       <use style="fill:#262626;stroke:#262626;stroke-width:0.5;" x="90" xlink:href="#m4da95ed3b1" y="512.64"/>
      </g>
     </g>
    </g>
    <g id="xtick_11">
     <g id="line2d_19">
      <g>
       <use style="fill:#262626;stroke:#262626;stroke-width:0.5;" x="122.296744" xlink:href="#m4da95ed3b1" y="512.64"/>
      </g>
     </g>
    </g>
    <g id="xtick_12">
     <g id="line2d_20">
      <g>
       <use style="fill:#262626;stroke:#262626;stroke-width:0.5;" x="145.211648" xlink:href="#m4da95ed3b1" y="512.64"/>
      </g>
     </g>
    </g>
    <g id="xtick_13">
     <g id="line2d_21">
      <g>
       <use style="fill:#262626;stroke:#262626;stroke-width:0.5;" x="162.985829" xlink:href="#m4da95ed3b1" y="512.64"/>
      </g>
     </g>
    </g>
    <g id="xtick_14">
     <g id="line2d_22">
      <g>
       <use style="fill:#262626;stroke:#262626;stroke-width:0.5;" x="177.508392" xlink:href="#m4da95ed3b1" y="512.64"/>
      </g>
     </g>
    </g>
    <g id="xtick_15">
     <g id="line2d_23">
      <g>
       <use style="fill:#262626;stroke:#262626;stroke-width:0.5;" x="189.787045" xlink:href="#m4da95ed3b1" y="512.64"/>
      </g>
     </g>
    </g>
    <g id="xtick_16">
     <g id="line2d_24">
      <g>
       <use style="fill:#262626;stroke:#262626;stroke-width:0.5;" x="200.423297" xlink:href="#m4da95ed3b1" y="512.64"/>
      </g>
     </g>
    </g>
    <g id="xtick_17">
     <g id="line2d_25">
      <g>
       <use style="fill:#262626;stroke:#262626;stroke-width:0.5;" x="209.805136" xlink:href="#m4da95ed3b1" y="512.64"/>
      </g>
     </g>
    </g>
    <g id="xtick_18">
     <g id="line2d_26">
      <g>
       <use style="fill:#262626;stroke:#262626;stroke-width:0.5;" x="273.409126" xlink:href="#m4da95ed3b1" y="512.64"/>
      </g>
     </g>
    </g>
    <g id="xtick_19">
     <g id="line2d_27">
      <g>
       <use style="fill:#262626;stroke:#262626;stroke-width:0.5;" x="305.70587" xlink:href="#m4da95ed3b1" y="512.64"/>
      </g>
     </g>
    </g>
    <g id="xtick_20">
     <g id="line2d_28">
      <g>
       <use style="fill:#262626;stroke:#262626;stroke-width:0.5;" x="328.620775" xlink:href="#m4da95ed3b1" y="512.64"/>
      </g>
     </g>
    </g>
    <g id="xtick_21">
     <g id="line2d_29">
      <g>
       <use style="fill:#262626;stroke:#262626;stroke-width:0.5;" x="346.394955" xlink:href="#m4da95ed3b1" y="512.64"/>
      </g>
     </g>
    </g>
    <g id="xtick_22">
     <g id="line2d_30">
      <g>
       <use style="fill:#262626;stroke:#262626;stroke-width:0.5;" x="360.917518" xlink:href="#m4da95ed3b1" y="512.64"/>
      </g>
     </g>
    </g>
    <g id="xtick_23">
     <g id="line2d_31">
      <g>
       <use style="fill:#262626;stroke:#262626;stroke-width:0.5;" x="373.196171" xlink:href="#m4da95ed3b1" y="512.64"/>
      </g>
     </g>
    </g>
    <g id="xtick_24">
     <g id="line2d_32">
      <g>
       <use style="fill:#262626;stroke:#262626;stroke-width:0.5;" x="383.832423" xlink:href="#m4da95ed3b1" y="512.64"/>
      </g>
     </g>
    </g>
    <g id="xtick_25">
     <g id="line2d_33">
      <g>
       <use style="fill:#262626;stroke:#262626;stroke-width:0.5;" x="393.214262" xlink:href="#m4da95ed3b1" y="512.64"/>
      </g>
     </g>
    </g>
    <g id="xtick_26">
     <g id="line2d_34">
      <g>
       <use style="fill:#262626;stroke:#262626;stroke-width:0.5;" x="456.818252" xlink:href="#m4da95ed3b1" y="512.64"/>
      </g>
     </g>
    </g>
    <g id="xtick_27">
     <g id="line2d_35">
      <g>
       <use style="fill:#262626;stroke:#262626;stroke-width:0.5;" x="489.114996" xlink:href="#m4da95ed3b1" y="512.64"/>
      </g>
     </g>
    </g>
    <g id="xtick_28">
     <g id="line2d_36">
      <g>
       <use style="fill:#262626;stroke:#262626;stroke-width:0.5;" x="512.029901" xlink:href="#m4da95ed3b1" y="512.64"/>
      </g>
     </g>
    </g>
    <g id="xtick_29">
     <g id="line2d_37">
      <g>
       <use style="fill:#262626;stroke:#262626;stroke-width:0.5;" x="529.804081" xlink:href="#m4da95ed3b1" y="512.64"/>
      </g>
     </g>
    </g>
    <g id="xtick_30">
     <g id="line2d_38">
      <g>
       <use style="fill:#262626;stroke:#262626;stroke-width:0.5;" x="544.326645" xlink:href="#m4da95ed3b1" y="512.64"/>
      </g>
     </g>
    </g>
    <g id="xtick_31">
     <g id="line2d_39">
      <g>
       <use style="fill:#262626;stroke:#262626;stroke-width:0.5;" x="556.605297" xlink:href="#m4da95ed3b1" y="512.64"/>
      </g>
     </g>
    </g>
    <g id="xtick_32">
     <g id="line2d_40">
      <g>
       <use style="fill:#262626;stroke:#262626;stroke-width:0.5;" x="567.241549" xlink:href="#m4da95ed3b1" y="512.64"/>
      </g>
     </g>
    </g>
    <g id="xtick_33">
     <g id="line2d_41">
      <g>
       <use style="fill:#262626;stroke:#262626;stroke-width:0.5;" x="576.623389" xlink:href="#m4da95ed3b1" y="512.64"/>
      </g>
     </g>
    </g>
    <g id="xtick_34">
     <g id="line2d_42">
      <g>
       <use style="fill:#262626;stroke:#262626;stroke-width:0.5;" x="640.227378" xlink:href="#m4da95ed3b1" y="512.64"/>
      </g>
     </g>
    </g>
   </g>
   <g id="matplotlib.axis_4">
    <g id="ytick_8">
     <g id="line2d_43">
      <g>
       <use style="fill:#262626;stroke:#262626;" x="90" xlink:href="#m1eeb555c0b" y="512.64"/>
      </g>
     </g>
     <g id="text_17">
      <!-- $\mathdefault{10^{-5}}$ -->
      <defs>
       <path d="M 4.15625 18.75 
L 13.375 19.53125 
Q 14.40625 12.796875 18.140625 9.390625 
Q 21.875 6 27.15625 6 
Q 33.5 6 37.890625 10.78125 
Q 42.28125 15.578125 42.28125 23.484375 
Q 42.28125 31 38.0625 35.34375 
Q 33.84375 39.703125 27 39.703125 
Q 22.75 39.703125 19.328125 37.765625 
Q 15.921875 35.84375 13.96875 32.765625 
L 5.71875 33.84375 
L 12.640625 70.609375 
L 48.25 70.609375 
L 48.25 62.203125 
L 19.671875 62.203125 
L 15.828125 42.96875 
Q 22.265625 47.46875 29.34375 47.46875 
Q 38.71875 47.46875 45.15625 40.96875 
Q 51.609375 34.46875 51.609375 24.265625 
Q 51.609375 14.546875 45.953125 7.46875 
Q 39.0625 -1.21875 27.15625 -1.21875 
Q 17.390625 -1.21875 11.203125 4.25 
Q 5.03125 9.71875 4.15625 18.75 
z
" id="ArialMT-35"/>
      </defs>
      <g style="fill:#262626;" transform="translate(57.2 517.74625)scale(0.1 -0.1)">
       <use transform="translate(0 0.879688)" xlink:href="#ArialMT-31"/>
       <use transform="translate(55.615234 0.879688)" xlink:href="#ArialMT-30"/>
       <use transform="translate(112.972813 70.573438)scale(0.7)" xlink:href="#ArialMT-2212"/>
       <use transform="translate(153.851719 70.573438)scale(0.7)" xlink:href="#ArialMT-35"/>
      </g>
     </g>
    </g>
    <g id="ytick_9">
     <g id="line2d_44">
      <g>
       <use style="fill:#262626;stroke:#262626;" x="90" xlink:href="#m1eeb555c0b" y="465.767507"/>
      </g>
     </g>
     <g id="text_18">
      <!-- $\mathdefault{10^{-4}}$ -->
      <g style="fill:#262626;" transform="translate(57.2 470.873757)scale(0.1 -0.1)">
       <use transform="translate(0 0.201563)" xlink:href="#ArialMT-31"/>
       <use transform="translate(55.615234 0.201563)" xlink:href="#ArialMT-30"/>
       <use transform="translate(112.972813 69.895313)scale(0.7)" xlink:href="#ArialMT-2212"/>
       <use transform="translate(153.851719 69.895313)scale(0.7)" xlink:href="#ArialMT-34"/>
      </g>
     </g>
    </g>
    <g id="ytick_10">
     <g id="line2d_45">
      <g>
       <use style="fill:#262626;stroke:#262626;" x="90" xlink:href="#m1eeb555c0b" y="418.895013"/>
      </g>
     </g>
     <g id="text_19">
      <!-- $\mathdefault{10^{-3}}$ -->
      <g style="fill:#262626;" transform="translate(57.2 424.051263)scale(0.1 -0.1)">
       <use transform="translate(0 0.99375)" xlink:href="#ArialMT-31"/>
       <use transform="translate(55.615234 0.99375)" xlink:href="#ArialMT-30"/>
       <use transform="translate(112.972813 70.6875)scale(0.7)" xlink:href="#ArialMT-2212"/>
       <use transform="translate(153.851719 70.6875)scale(0.7)" xlink:href="#ArialMT-33"/>
      </g>
     </g>
    </g>
    <g id="ytick_11">
     <g id="line2d_46">
      <g>
       <use style="fill:#262626;stroke:#262626;" x="90" xlink:href="#m1eeb555c0b" y="372.02252"/>
      </g>
     </g>
     <g id="text_20">
      <!-- $\mathdefault{10^{-2}}$ -->
      <g style="fill:#262626;" transform="translate(57.2 377.17877)scale(0.1 -0.1)">
       <use transform="translate(0 0.99375)" xlink:href="#ArialMT-31"/>
       <use transform="translate(55.615234 0.99375)" xlink:href="#ArialMT-30"/>
       <use transform="translate(112.972813 70.6875)scale(0.7)" xlink:href="#ArialMT-2212"/>
       <use transform="translate(153.851719 70.6875)scale(0.7)" xlink:href="#ArialMT-32"/>
      </g>
     </g>
    </g>
    <g id="ytick_12">
     <g id="line2d_47">
      <g>
       <use style="fill:#262626;stroke:#262626;" x="90" xlink:href="#m1eeb555c0b" y="325.150026"/>
      </g>
     </g>
     <g id="text_21">
      <!-- $\mathdefault{10^{-1}}$ -->
      <g style="fill:#262626;" transform="translate(57.2 330.306276)scale(0.1 -0.1)">
       <use transform="translate(0 0.99375)" xlink:href="#ArialMT-31"/>
       <use transform="translate(55.615234 0.99375)" xlink:href="#ArialMT-30"/>
       <use transform="translate(112.972813 70.6875)scale(0.7)" xlink:href="#ArialMT-2212"/>
       <use transform="translate(153.851719 70.6875)scale(0.7)" xlink:href="#ArialMT-31"/>
      </g>
     </g>
    </g>
    <g id="ytick_13">
     <g id="line2d_48">
      <defs>
       <path d="M 0 0 
L -3 0 
" id="me94f93e817" style="stroke:#262626;stroke-width:0.5;"/>
      </defs>
      <g>
       <use style="fill:#262626;stroke:#262626;stroke-width:0.5;" x="90" xlink:href="#me94f93e817" y="498.529974"/>
      </g>
     </g>
    </g>
    <g id="ytick_14">
     <g id="line2d_49">
      <g>
       <use style="fill:#262626;stroke:#262626;stroke-width:0.5;" x="90" xlink:href="#me94f93e817" y="490.276137"/>
      </g>
     </g>
    </g>
    <g id="ytick_15">
     <g id="line2d_50">
      <g>
       <use style="fill:#262626;stroke:#262626;stroke-width:0.5;" x="90" xlink:href="#me94f93e817" y="484.419947"/>
      </g>
     </g>
    </g>
    <g id="ytick_16">
     <g id="line2d_51">
      <g>
       <use style="fill:#262626;stroke:#262626;stroke-width:0.5;" x="90" xlink:href="#me94f93e817" y="479.877533"/>
      </g>
     </g>
    </g>
    <g id="ytick_17">
     <g id="line2d_52">
      <g>
       <use style="fill:#262626;stroke:#262626;stroke-width:0.5;" x="90" xlink:href="#me94f93e817" y="476.166111"/>
      </g>
     </g>
    </g>
    <g id="ytick_18">
     <g id="line2d_53">
      <g>
       <use style="fill:#262626;stroke:#262626;stroke-width:0.5;" x="90" xlink:href="#me94f93e817" y="473.028148"/>
      </g>
     </g>
    </g>
    <g id="ytick_19">
     <g id="line2d_54">
      <g>
       <use style="fill:#262626;stroke:#262626;stroke-width:0.5;" x="90" xlink:href="#me94f93e817" y="470.309921"/>
      </g>
     </g>
    </g>
    <g id="ytick_20">
     <g id="line2d_55">
      <g>
       <use style="fill:#262626;stroke:#262626;stroke-width:0.5;" x="90" xlink:href="#me94f93e817" y="467.912274"/>
      </g>
     </g>
    </g>
    <g id="ytick_21">
     <g id="line2d_56">
      <g>
       <use style="fill:#262626;stroke:#262626;stroke-width:0.5;" x="90" xlink:href="#me94f93e817" y="451.65748"/>
      </g>
     </g>
    </g>
    <g id="ytick_22">
     <g id="line2d_57">
      <g>
       <use style="fill:#262626;stroke:#262626;stroke-width:0.5;" x="90" xlink:href="#me94f93e817" y="443.403644"/>
      </g>
     </g>
    </g>
    <g id="ytick_23">
     <g id="line2d_58">
      <g>
       <use style="fill:#262626;stroke:#262626;stroke-width:0.5;" x="90" xlink:href="#me94f93e817" y="437.547454"/>
      </g>
     </g>
    </g>
    <g id="ytick_24">
     <g id="line2d_59">
      <g>
       <use style="fill:#262626;stroke:#262626;stroke-width:0.5;" x="90" xlink:href="#me94f93e817" y="433.00504"/>
      </g>
     </g>
    </g>
    <g id="ytick_25">
     <g id="line2d_60">
      <g>
       <use style="fill:#262626;stroke:#262626;stroke-width:0.5;" x="90" xlink:href="#me94f93e817" y="429.293617"/>
      </g>
     </g>
    </g>
    <g id="ytick_26">
     <g id="line2d_61">
      <g>
       <use style="fill:#262626;stroke:#262626;stroke-width:0.5;" x="90" xlink:href="#me94f93e817" y="426.155654"/>
      </g>
     </g>
    </g>
    <g id="ytick_27">
     <g id="line2d_62">
      <g>
       <use style="fill:#262626;stroke:#262626;stroke-width:0.5;" x="90" xlink:href="#me94f93e817" y="423.437427"/>
      </g>
     </g>
    </g>
    <g id="ytick_28">
     <g id="line2d_63">
      <g>
       <use style="fill:#262626;stroke:#262626;stroke-width:0.5;" x="90" xlink:href="#me94f93e817" y="421.039781"/>
      </g>
     </g>
    </g>
    <g id="ytick_29">
     <g id="line2d_64">
      <g>
       <use style="fill:#262626;stroke:#262626;stroke-width:0.5;" x="90" xlink:href="#me94f93e817" y="404.784987"/>
      </g>
     </g>
    </g>
    <g id="ytick_30">
     <g id="line2d_65">
      <g>
       <use style="fill:#262626;stroke:#262626;stroke-width:0.5;" x="90" xlink:href="#me94f93e817" y="396.53115"/>
      </g>
     </g>
    </g>
    <g id="ytick_31">
     <g id="line2d_66">
      <g>
       <use style="fill:#262626;stroke:#262626;stroke-width:0.5;" x="90" xlink:href="#me94f93e817" y="390.67496"/>
      </g>
     </g>
    </g>
    <g id="ytick_32">
     <g id="line2d_67">
      <g>
       <use style="fill:#262626;stroke:#262626;stroke-width:0.5;" x="90" xlink:href="#me94f93e817" y="386.132546"/>
      </g>
     </g>
    </g>
    <g id="ytick_33">
     <g id="line2d_68">
      <g>
       <use style="fill:#262626;stroke:#262626;stroke-width:0.5;" x="90" xlink:href="#me94f93e817" y="382.421124"/>
      </g>
     </g>
    </g>
    <g id="ytick_34">
     <g id="line2d_69">
      <g>
       <use style="fill:#262626;stroke:#262626;stroke-width:0.5;" x="90" xlink:href="#me94f93e817" y="379.283161"/>
      </g>
     </g>
    </g>
    <g id="ytick_35">
     <g id="line2d_70">
      <g>
       <use style="fill:#262626;stroke:#262626;stroke-width:0.5;" x="90" xlink:href="#me94f93e817" y="376.564934"/>
      </g>
     </g>
    </g>
    <g id="ytick_36">
     <g id="line2d_71">
      <g>
       <use style="fill:#262626;stroke:#262626;stroke-width:0.5;" x="90" xlink:href="#me94f93e817" y="374.167288"/>
      </g>
     </g>
    </g>
    <g id="ytick_37">
     <g id="line2d_72">
      <g>
       <use style="fill:#262626;stroke:#262626;stroke-width:0.5;" x="90" xlink:href="#me94f93e817" y="357.912493"/>
      </g>
     </g>
    </g>
    <g id="ytick_38">
     <g id="line2d_73">
      <g>
       <use style="fill:#262626;stroke:#262626;stroke-width:0.5;" x="90" xlink:href="#me94f93e817" y="349.658657"/>
      </g>
     </g>
    </g>
    <g id="ytick_39">
     <g id="line2d_74">
      <g>
       <use style="fill:#262626;stroke:#262626;stroke-width:0.5;" x="90" xlink:href="#me94f93e817" y="343.802467"/>
      </g>
     </g>
    </g>
    <g id="ytick_40">
     <g id="line2d_75">
      <g>
       <use style="fill:#262626;stroke:#262626;stroke-width:0.5;" x="90" xlink:href="#me94f93e817" y="339.260053"/>
      </g>
     </g>
    </g>
    <g id="ytick_41">
     <g id="line2d_76">
      <g>
       <use style="fill:#262626;stroke:#262626;stroke-width:0.5;" x="90" xlink:href="#me94f93e817" y="335.548631"/>
      </g>
     </g>
    </g>
    <g id="ytick_42">
     <g id="line2d_77">
      <g>
       <use style="fill:#262626;stroke:#262626;stroke-width:0.5;" x="90" xlink:href="#me94f93e817" y="332.410668"/>
      </g>
     </g>
    </g>
    <g id="ytick_43">
     <g id="line2d_78">
      <g>
       <use style="fill:#262626;stroke:#262626;stroke-width:0.5;" x="90" xlink:href="#me94f93e817" y="329.69244"/>
      </g>
     </g>
    </g>
    <g id="ytick_44">
     <g id="line2d_79">
      <g>
       <use style="fill:#262626;stroke:#262626;stroke-width:0.5;" x="90" xlink:href="#me94f93e817" y="327.294794"/>
      </g>
     </g>
    </g>
    <g id="ytick_45">
     <g id="line2d_80">
      <g>
       <use style="fill:#262626;stroke:#262626;stroke-width:0.5;" x="90" xlink:href="#me94f93e817" y="311.04"/>
      </g>
     </g>
    </g>
   </g>
   <g id="line2d_81">
    <path clip-path="url(#p69ba9d6383)" d="M -1 350.448887 
L 151.095164 350.451563 
L 206.306812 366.407531 
L 261.518461 385.279922 
L 279.292642 384.393093 
L 293.815205 360.65581 
L 306.093857 401.799993 
L 316.730109 396.122648 
L 326.111949 396.786706 
L 334.50429 395.065875 
L 342.096086 386.322401 
L 349.026853 340.282808 
L 355.402541 385.016933 
L 361.305505 398.737548 
L 371.941758 405.008806 
L 376.770725 401.80941 
L 381.323597 372.417959 
L 385.630245 406.203944 
L 389.715939 410.659625 
L 393.602249 409.915332 
L 397.307735 406.543617 
L 400.848476 396.056484 
L 404.238502 364.421539 
L 407.490119 388.485836 
L 410.614189 403.494521 
L 413.620341 408.47976 
L 416.517154 408.742301 
L 419.312303 402.119173 
L 422.012683 377.885521 
L 424.624509 390.521734 
L 427.153406 411.781816 
L 429.604479 416.959726 
L 431.982374 426.451346 
L 434.291335 428.361478 
L 436.535246 416.993421 
L 438.717672 417.425408 
L 440.841893 432.798021 
L 442.910933 432.829733 
L 444.927587 439.138072 
L 446.894442 446.555698 
L 448.813898 438.535462 
L 450.688186 405.215942 
L 452.519383 425.3392 
L 454.309426 430.116457 
L 456.060125 434.101469 
L 457.773171 432.827946 
L 459.45015 438.493214 
L 461.09255 412.65243 
L 462.701768 438.488678 
L 464.279118 439.281398 
L 465.825838 439.570485 
L 467.343094 438.469949 
L 468.83199 442.215463 
L 470.293564 422.714116 
L 471.728802 431.719521 
L 473.138637 436.420145 
L 474.523951 438.514771 
L 475.885584 438.956234 
L 477.224331 439.67646 
L 478.540949 435.039622 
L 479.836157 450.206112 
L 481.110642 444.098781 
L 482.365055 446.410631 
L 483.600019 440.79281 
L 484.816127 443.902991 
L 486.013948 442.978094 
L 487.194022 426.163779 
L 488.356869 446.429559 
L 489.502983 446.348107 
L 490.63284 444.09206 
L 491.746894 446.209775 
L 492.845581 446.3125 
L 493.92932 446.074395 
L 494.998512 443.780082 
L 496.053541 447.819725 
L 497.094779 445.667688 
L 498.122582 450.63226 
L 499.137291 448.61916 
L 500.139235 450.025655 
L 501.128734 453.335952 
L 502.10609 450.068777 
L 503.0716 447.723994 
L 504.025546 450.45096 
L 504.968203 448.813511 
L 505.899834 450.749878 
L 506.820695 454.868501 
L 507.731032 447.704793 
L 508.631082 450.891984 
L 509.521075 452.017309 
L 510.401234 449.429204 
L 511.271773 451.673467 
L 512.132901 453.499069 
L 512.984819 452.70185 
L 513.827722 447.507672 
L 514.661799 452.2697 
L 515.487232 453.331577 
L 516.304198 455.311642 
L 517.112871 451.222317 
L 517.913416 451.432089 
L 518.705996 453.094582 
L 519.490766 451.074883 
L 520.26788 450.314634 
L 521.037486 452.605345 
L 521.799727 452.779545 
L 522.554743 451.817631 
L 524.043638 458.087218 
L 524.777778 457.281325 
L 525.505212 454.5177 
L 526.226064 450.536853 
L 526.940451 455.337205 
L 527.648487 454.964888 
L 528.350285 456.184695 
L 529.045954 453.879344 
L 529.7356 454.175681 
L 530.419326 454.050102 
L 531.097232 457.139531 
L 531.769418 455.118898 
L 532.435979 455.264104 
L 533.097009 456.999552 
L 533.752597 456.098751 
L 534.402834 457.326278 
L 535.047806 456.994406 
L 535.687597 455.618167 
L 536.32229 456.77862 
L 536.951966 456.048682 
L 537.576703 459.910622 
L 538.196578 457.354032 
L 538.811667 457.931602 
L 539.422042 457.696122 
L 540.027776 457.988939 
L 541.225596 457.53135 
L 541.817819 460.58537 
L 542.405671 459.62455 
L 542.989216 460.233578 
L 543.568517 460.146044 
L 544.143636 459.882015 
L 544.714632 460.939341 
L 545.281563 457.90075 
L 545.844488 460.244344 
L 546.403463 457.647514 
L 546.958543 461.572201 
L 547.509781 460.387794 
L 548.05723 461.020339 
L 548.600942 458.434501 
L 549.140969 463.765758 
L 549.677358 461.091487 
L 550.21016 467.304767 
L 550.739422 463.146809 
L 551.26519 461.848434 
L 551.78751 462.449222 
L 552.306428 463.39516 
L 552.821987 462.478984 
L 553.33423 463.055855 
L 553.8432 462.100428 
L 554.348939 461.763002 
L 554.851487 463.025459 
L 555.350884 461.036912 
L 555.847169 462.182626 
L 556.340382 456.760934 
L 556.830559 460.243133 
L 557.317739 462.409183 
L 557.801956 461.050313 
L 558.283248 461.600498 
L 558.76165 465.046699 
L 559.237195 460.915084 
L 559.709918 461.901512 
L 560.179852 463.194161 
L 560.647029 465.688709 
L 561.111483 460.701729 
L 562.032344 465.150285 
L 562.488812 466.597496 
L 562.94268 468.775997 
L 563.393976 464.708302 
L 563.84273 463.353372 
L 564.28897 462.440729 
L 564.732723 461.201859 
L 565.174019 463.689933 
L 565.612882 462.91851 
L 566.049341 463.352054 
L 566.483422 467.536095 
L 566.91515 467.301396 
L 567.34455 463.899775 
L 567.771648 464.197362 
L 568.196468 462.609584 
L 568.619034 466.243862 
L 569.039371 467.575586 
L 569.457501 466.198589 
L 569.873447 464.157232 
L 570.287233 465.742757 
L 570.69888 466.671276 
L 571.108411 462.969213 
L 571.515847 460.814977 
L 571.921209 473.45709 
L 572.32452 465.634284 
L 572.725798 466.441751 
L 573.125065 462.219692 
L 573.52234 468.605863 
L 573.917644 468.054029 
L 574.310996 465.165589 
L 574.702415 468.125937 
L 575.091919 465.897891 
L 575.479529 466.974603 
L 575.865261 467.243809 
L 576.249135 471.620816 
L 576.631167 464.201969 
L 577.011376 469.006141 
L 577.389778 466.456076 
L 577.766391 467.530788 
L 578.141232 467.827385 
L 578.514318 468.463561 
L 578.885664 464.844965 
L 579.255287 465.804462 
L 579.623202 467.760443 
L 579.989426 468.238572 
L 580.353974 467.909076 
L 580.716861 462.906892 
L 581.078102 467.8324 
L 581.437713 467.313797 
L 581.795707 473.66944 
L 582.152099 465.234166 
L 582.506904 471.163227 
L 582.860136 472.647738 
L 583.211808 468.843343 
L 583.561934 468.285123 
L 583.910528 468.41653 
L 584.603172 463.758058 
L 584.947248 467.578445 
L 585.289845 469.099086 
L 585.630974 471.594498 
L 585.970649 466.863269 
L 586.308881 466.570938 
L 586.645683 465.542764 
L 586.981067 466.808501 
L 587.315045 470.470468 
L 587.647628 471.871347 
L 587.978828 467.731926 
L 588.308657 466.811518 
L 588.637126 466.73075 
L 588.964246 463.67835 
L 589.290028 470.601683 
L 589.614483 469.938607 
L 589.937621 469.009636 
L 590.259454 471.353717 
L 590.579992 467.272689 
L 590.899246 469.268762 
L 591.217224 470.23732 
L 591.533939 467.989418 
L 591.849399 469.857692 
L 592.163614 468.282127 
L 592.476596 476.552828 
L 592.788352 468.227758 
L 593.408227 476.620518 
L 593.716365 465.566562 
L 594.023315 465.724432 
L 594.329088 470.440598 
L 594.633691 470.634957 
L 594.937133 469.796044 
L 595.239424 468.022927 
L 595.540572 468.262057 
L 595.840586 471.159782 
L 596.139474 467.206765 
L 596.437245 469.736562 
L 596.733906 468.802191 
L 597.029467 470.089905 
L 597.323936 465.550377 
L 597.617319 472.590227 
L 597.909626 474.171387 
L 598.200864 471.481297 
L 598.491042 474.70958 
L 598.780166 473.477189 
L 599.068244 472.822418 
L 599.355284 467.777503 
L 599.641294 474.754552 
L 599.92628 474.965078 
L 600.21025 472.836863 
L 600.493212 474.627271 
L 600.775172 472.083283 
L 601.056137 470.717786 
L 601.336115 465.142992 
L 601.615112 465.359641 
L 601.893135 471.874391 
L 602.170191 471.527643 
L 602.446287 472.234994 
L 602.721429 475.722882 
L 602.995624 473.889046 
L 603.268878 469.453581 
L 603.541199 470.493055 
L 603.812591 472.339683 
L 604.083062 477.708341 
L 604.621264 465.126917 
L 604.889007 475.89036 
L 605.155853 474.593632 
L 605.421809 470.450093 
L 605.686879 468.599823 
L 605.95107 473.962699 
L 606.214388 469.428259 
L 606.476838 474.271303 
L 606.738427 469.257549 
L 606.999159 470.027017 
L 607.25904 474.688048 
L 607.518076 466.606315 
L 607.776273 477.466489 
L 608.033635 477.550637 
L 608.290169 473.811896 
L 608.545879 476.704061 
L 608.80077 470.336152 
L 609.054849 474.020774 
L 609.308119 475.941234 
L 609.560587 469.689985 
L 609.812258 477.083119 
L 610.063135 478.655145 
L 610.313225 468.527825 
L 610.562532 467.735498 
L 610.811062 469.390642 
L 611.058818 471.984449 
L 611.305806 476.052119 
L 611.55203 471.849356 
L 611.797496 473.255325 
L 612.28617 470.223505 
L 612.529387 474.843769 
L 612.771864 470.554651 
L 613.013605 480.970539 
L 613.254614 478.15034 
L 613.494897 473.050066 
L 613.734457 473.056642 
L 613.973298 477.358632 
L 614.211426 471.078055 
L 614.448843 474.68456 
L 614.685555 470.297203 
L 614.921566 472.961743 
L 615.15688 479.133746 
L 615.625431 471.220825 
L 615.858678 475.441454 
L 616.091243 476.655596 
L 616.323131 476.548627 
L 616.554347 481.548973 
L 616.784892 469.628395 
L 617.014773 482.891951 
L 617.243992 473.343534 
L 617.472553 472.470386 
L 617.700461 469.426024 
L 617.927718 471.759125 
L 618.154329 469.388351 
L 618.380296 471.301347 
L 618.605625 480.124768 
L 619.054379 473.061214 
L 619.277811 477.21686 
L 619.500618 475.173587 
L 619.722804 471.808274 
L 619.944372 473.285152 
L 620.165325 473.222076 
L 620.385667 469.558525 
L 620.605401 475.71434 
L 620.824531 478.68515 
L 621.043059 468.342734 
L 621.26099 480.241349 
L 621.478326 478.065889 
L 621.69507 483.849995 
L 621.911227 474.530321 
L 622.341787 477.141305 
L 622.556198 472.627759 
L 622.770034 479.123912 
L 622.983296 481.360426 
L 623.195989 471.621967 
L 623.408116 474.673827 
L 623.61968 473.833973 
L 623.830683 476.588727 
L 624.041128 475.465187 
L 624.460358 478.085897 
L 624.669149 472.623751 
L 624.877394 475.567373 
L 625.085096 482.884735 
L 625.292257 479.862485 
L 625.498881 468.132497 
L 625.910528 476.610018 
L 626.115557 476.417745 
L 626.320059 467.033376 
L 626.524038 474.326895 
L 626.727495 470.90848 
L 626.930435 471.59914 
L 627.132858 481.53217 
L 627.334768 473.469918 
L 627.536168 472.116692 
L 627.73706 478.047611 
L 627.937446 478.547993 
L 628.13733 471.002338 
L 628.336713 487.576605 
L 628.535599 472.305632 
L 628.733989 484.373336 
L 628.931886 475.529742 
L 629.129293 475.34535 
L 629.326211 475.550842 
L 629.522644 475.469361 
L 629.718594 475.029884 
L 629.914063 486.252325 
L 630.109054 475.486989 
L 630.497608 482.81377 
L 630.691177 480.699341 
L 630.884277 475.586472 
L 631.07691 482.076047 
L 631.460783 470.436681 
L 631.652028 471.746123 
L 632.223024 481.929117 
L 632.41245 471.500589 
L 632.601426 470.375597 
L 632.789956 484.174396 
L 633.165681 473.889809 
L 633.352881 474.502435 
L 633.539642 477.337781 
L 633.725966 478.131415 
L 633.911856 470.478034 
L 634.097312 476.644133 
L 634.282338 470.444102 
L 634.466935 472.193285 
L 634.651105 482.005912 
L 634.83485 468.702664 
L 635.018173 473.461799 
L 635.201074 481.494131 
L 635.383557 480.612103 
L 635.565622 470.79228 
L 635.747272 484.187048 
L 635.928509 470.953696 
L 636.109335 477.315554 
L 636.289751 479.574578 
L 636.469759 478.574384 
L 636.649361 472.596277 
L 636.828559 470.451346 
L 637.007355 476.241545 
L 637.185751 475.004778 
L 637.363748 475.920958 
L 637.718553 481.648256 
L 637.895364 492.250315 
L 638.071784 474.262876 
L 638.247814 473.497291 
L 638.423456 477.014925 
L 638.598712 474.881675 
L 638.773582 475.953058 
L 638.94807 479.317028 
L 639.122176 472.786804 
L 639.295903 477.270047 
L 639.642223 467.637949 
L 639.987044 476.103962 
L 640.158897 473.808897 
L 640.330379 479.028006 
L 640.501493 472.241114 
L 640.67224 470.622033 
L 641.012641 479.530369 
L 641.182297 476.175347 
L 641.351593 479.234074 
L 641.520529 475.532735 
L 641.689108 474.617739 
L 641.857331 482.272198 
L 642.0252 482.475052 
L 642.192715 474.892289 
L 642.359879 479.826766 
L 642.526693 472.387894 
L 642.693158 478.723527 
L 643.025049 482.494096 
L 643.190477 473.350776 
L 643.355562 488.775507 
L 643.848774 471.103112 
L 644.175894 482.513072 
L 644.338952 483.025927 
L 644.501676 474.070628 
L 644.664069 474.011876 
L 644.826131 481.417719 
L 644.987864 481.708288 
L 645.471103 475.870606 
L 645.631533 487.617779 
L 645.791641 479.745535 
L 645.951427 484.583482 
L 646.110894 472.289006 
L 646.428873 480.430821 
L 646.587387 473.931197 
L 646.903473 479.469384 
L 647.061047 478.814882 
L 647.21831 474.902999 
L 647.531907 481.331887 
L 647.844274 478.576853 
L 647.844274 478.576853 
" style="fill:none;stroke:#b22222;stroke-linecap:round;stroke-width:1.75;"/>
   </g>
   <g id="patch_6">
    <path d="M 90 512.64 
L 90 311.04 
" style="fill:none;stroke:#262626;stroke-linecap:square;stroke-linejoin:miter;stroke-width:1.25;"/>
   </g>
   <g id="patch_7">
    <path d="M 90 512.64 
L 648 512.64 
" style="fill:none;stroke:#262626;stroke-linecap:square;stroke-linejoin:miter;stroke-width:1.25;"/>
   </g>
  </g>
 </g>
 <defs>
  <clipPath id="p2e719646c6">
   <rect height="201.6" width="558" x="90" y="69.12"/>
  </clipPath>
  <clipPath id="p69ba9d6383">
   <rect height="201.6" width="558" x="90" y="311.04"/>
  </clipPath>
 </defs>
</svg>
