<?xml version="1.0" encoding="utf-8" standalone="no"?>
<!DOCTYPE svg PUBLIC "-//W3C//DTD SVG 1.1//EN"
  "http://www.w3.org/Graphics/SVG/1.1/DTD/svg11.dtd">
<!-- Created with matplotlib (http://matplotlib.org/) -->
<svg height="576pt" version="1.1" viewBox="0 0 720 576" width="720pt" xmlns="http://www.w3.org/2000/svg" xmlns:xlink="http://www.w3.org/1999/xlink">
 <defs>
  <style type="text/css">
*{stroke-linecap:butt;stroke-linejoin:round;}
  </style>
 </defs>
 <g id="figure_1">
  <g id="patch_1">
   <path d="M 0 576 
L 720 576 
L 720 0 
L 0 0 
z
" style="fill:#ffffff;"/>
  </g>
  <g id="axes_1">
   <g id="patch_2">
    <path d="M 90 270.72 
L 648 270.72 
L 648 69.12 
L 90 69.12 
z
" style="fill:#ffffff;"/>
   </g>
   <g id="matplotlib.axis_1">
    <g id="xtick_1">
     <g id="line2d_1">
      <defs>
       <path d="M 0 0 
L 0 6 
" id="m0e15a51110" style="stroke:#262626;"/>
      </defs>
      <g>
       <use style="fill:#262626;stroke:#262626;" x="90" xlink:href="#m0e15a51110" y="270.72"/>
      </g>
     </g>
     <g id="text_1">
      <!-- 0 -->
      <defs>
       <path d="M 4.15625 35.296875 
Q 4.15625 48 6.765625 55.734375 
Q 9.375 63.484375 14.515625 67.671875 
Q 19.671875 71.875 27.484375 71.875 
Q 33.25 71.875 37.59375 69.546875 
Q 41.9375 67.234375 44.765625 62.859375 
Q 47.609375 58.5 49.21875 52.21875 
Q 50.828125 45.953125 50.828125 35.296875 
Q 50.828125 22.703125 48.234375 14.96875 
Q 45.65625 7.234375 40.5 3 
Q 35.359375 -1.21875 27.484375 -1.21875 
Q 17.140625 -1.21875 11.234375 6.203125 
Q 4.15625 15.140625 4.15625 35.296875 
z
M 13.1875 35.296875 
Q 13.1875 17.671875 17.3125 11.828125 
Q 21.4375 6 27.484375 6 
Q 33.546875 6 37.671875 11.859375 
Q 41.796875 17.71875 41.796875 35.296875 
Q 41.796875 52.984375 37.671875 58.78125 
Q 33.546875 64.59375 27.390625 64.59375 
Q 21.34375 64.59375 17.71875 59.46875 
Q 13.1875 52.9375 13.1875 35.296875 
z
" id="ArialMT-30"/>
      </defs>
      <g style="fill:#262626;" transform="translate(87.219531 290.877812)scale(0.1 -0.1)">
       <use xlink:href="#ArialMT-30"/>
      </g>
     </g>
    </g>
    <g id="xtick_2">
     <g id="line2d_2">
      <g>
       <use style="fill:#262626;stroke:#262626;" x="198.984375" xlink:href="#m0e15a51110" y="270.72"/>
      </g>
     </g>
     <g id="text_2">
      <!-- 200 -->
      <defs>
       <path d="M 50.34375 8.453125 
L 50.34375 0 
L 3.03125 0 
Q 2.9375 3.171875 4.046875 6.109375 
Q 5.859375 10.9375 9.828125 15.625 
Q 13.8125 20.3125 21.34375 26.46875 
Q 33.015625 36.03125 37.109375 41.625 
Q 41.21875 47.21875 41.21875 52.203125 
Q 41.21875 57.421875 37.46875 61 
Q 33.734375 64.59375 27.734375 64.59375 
Q 21.390625 64.59375 17.578125 60.78125 
Q 13.765625 56.984375 13.71875 50.25 
L 4.6875 51.171875 
Q 5.609375 61.28125 11.65625 66.578125 
Q 17.71875 71.875 27.9375 71.875 
Q 38.234375 71.875 44.234375 66.15625 
Q 50.25 60.453125 50.25 52 
Q 50.25 47.703125 48.484375 43.546875 
Q 46.734375 39.40625 42.65625 34.8125 
Q 38.578125 30.21875 29.109375 22.21875 
Q 21.1875 15.578125 18.9375 13.203125 
Q 16.703125 10.84375 15.234375 8.453125 
z
" id="ArialMT-32"/>
      </defs>
      <g style="fill:#262626;" transform="translate(190.642969 290.877812)scale(0.1 -0.1)">
       <use xlink:href="#ArialMT-32"/>
       <use x="55.615234" xlink:href="#ArialMT-30"/>
       <use x="111.230469" xlink:href="#ArialMT-30"/>
      </g>
     </g>
    </g>
    <g id="xtick_3">
     <g id="line2d_3">
      <g>
       <use style="fill:#262626;stroke:#262626;" x="307.96875" xlink:href="#m0e15a51110" y="270.72"/>
      </g>
     </g>
     <g id="text_3">
      <!-- 400 -->
      <defs>
       <path d="M 32.328125 0 
L 32.328125 17.140625 
L 1.265625 17.140625 
L 1.265625 25.203125 
L 33.9375 71.578125 
L 41.109375 71.578125 
L 41.109375 25.203125 
L 50.78125 25.203125 
L 50.78125 17.140625 
L 41.109375 17.140625 
L 41.109375 0 
z
M 32.328125 25.203125 
L 32.328125 57.46875 
L 9.90625 25.203125 
z
" id="ArialMT-34"/>
      </defs>
      <g style="fill:#262626;" transform="translate(299.627344 290.877812)scale(0.1 -0.1)">
       <use xlink:href="#ArialMT-34"/>
       <use x="55.615234" xlink:href="#ArialMT-30"/>
       <use x="111.230469" xlink:href="#ArialMT-30"/>
      </g>
     </g>
    </g>
    <g id="xtick_4">
     <g id="line2d_4">
      <g>
       <use style="fill:#262626;stroke:#262626;" x="416.953125" xlink:href="#m0e15a51110" y="270.72"/>
      </g>
     </g>
     <g id="text_4">
      <!-- 600 -->
      <defs>
       <path d="M 49.75 54.046875 
L 41.015625 53.375 
Q 39.84375 58.546875 37.703125 60.890625 
Q 34.125 64.65625 28.90625 64.65625 
Q 24.703125 64.65625 21.53125 62.3125 
Q 17.390625 59.28125 14.984375 53.46875 
Q 12.59375 47.65625 12.5 36.921875 
Q 15.671875 41.75 20.265625 44.09375 
Q 24.859375 46.4375 29.890625 46.4375 
Q 38.671875 46.4375 44.84375 39.96875 
Q 51.03125 33.5 51.03125 23.25 
Q 51.03125 16.5 48.125 10.71875 
Q 45.21875 4.9375 40.140625 1.859375 
Q 35.0625 -1.21875 28.609375 -1.21875 
Q 17.625 -1.21875 10.6875 6.859375 
Q 3.765625 14.9375 3.765625 33.5 
Q 3.765625 54.25 11.421875 63.671875 
Q 18.109375 71.875 29.4375 71.875 
Q 37.890625 71.875 43.28125 67.140625 
Q 48.6875 62.40625 49.75 54.046875 
z
M 13.875 23.1875 
Q 13.875 18.65625 15.796875 14.5 
Q 17.71875 10.359375 21.1875 8.171875 
Q 24.65625 6 28.46875 6 
Q 34.03125 6 38.03125 10.484375 
Q 42.046875 14.984375 42.046875 22.703125 
Q 42.046875 30.125 38.078125 34.390625 
Q 34.125 38.671875 28.125 38.671875 
Q 22.171875 38.671875 18.015625 34.390625 
Q 13.875 30.125 13.875 23.1875 
z
" id="ArialMT-36"/>
      </defs>
      <g style="fill:#262626;" transform="translate(408.611719 290.877812)scale(0.1 -0.1)">
       <use xlink:href="#ArialMT-36"/>
       <use x="55.615234" xlink:href="#ArialMT-30"/>
       <use x="111.230469" xlink:href="#ArialMT-30"/>
      </g>
     </g>
    </g>
    <g id="xtick_5">
     <g id="line2d_5">
      <g>
       <use style="fill:#262626;stroke:#262626;" x="525.9375" xlink:href="#m0e15a51110" y="270.72"/>
      </g>
     </g>
     <g id="text_5">
      <!-- 800 -->
      <defs>
       <path d="M 17.671875 38.8125 
Q 12.203125 40.828125 9.5625 44.53125 
Q 6.9375 48.25 6.9375 53.421875 
Q 6.9375 61.234375 12.546875 66.546875 
Q 18.171875 71.875 27.484375 71.875 
Q 36.859375 71.875 42.578125 66.421875 
Q 48.296875 60.984375 48.296875 53.171875 
Q 48.296875 48.1875 45.671875 44.5 
Q 43.0625 40.828125 37.75 38.8125 
Q 44.34375 36.671875 47.78125 31.875 
Q 51.21875 27.09375 51.21875 20.453125 
Q 51.21875 11.28125 44.71875 5.03125 
Q 38.234375 -1.21875 27.640625 -1.21875 
Q 17.046875 -1.21875 10.546875 5.046875 
Q 4.046875 11.328125 4.046875 20.703125 
Q 4.046875 27.6875 7.59375 32.390625 
Q 11.140625 37.109375 17.671875 38.8125 
z
M 15.921875 53.71875 
Q 15.921875 48.640625 19.1875 45.40625 
Q 22.46875 42.1875 27.6875 42.1875 
Q 32.765625 42.1875 36.015625 45.375 
Q 39.265625 48.578125 39.265625 53.21875 
Q 39.265625 58.0625 35.90625 61.359375 
Q 32.5625 64.65625 27.59375 64.65625 
Q 22.5625 64.65625 19.234375 61.421875 
Q 15.921875 58.203125 15.921875 53.71875 
z
M 13.09375 20.65625 
Q 13.09375 16.890625 14.875 13.375 
Q 16.65625 9.859375 20.171875 7.921875 
Q 23.6875 6 27.734375 6 
Q 34.03125 6 38.125 10.046875 
Q 42.234375 14.109375 42.234375 20.359375 
Q 42.234375 26.703125 38.015625 30.859375 
Q 33.796875 35.015625 27.4375 35.015625 
Q 21.234375 35.015625 17.15625 30.90625 
Q 13.09375 26.8125 13.09375 20.65625 
z
" id="ArialMT-38"/>
      </defs>
      <g style="fill:#262626;" transform="translate(517.596094 290.877812)scale(0.1 -0.1)">
       <use xlink:href="#ArialMT-38"/>
       <use x="55.615234" xlink:href="#ArialMT-30"/>
       <use x="111.230469" xlink:href="#ArialMT-30"/>
      </g>
     </g>
    </g>
    <g id="xtick_6">
     <g id="line2d_6">
      <g>
       <use style="fill:#262626;stroke:#262626;" x="634.921875" xlink:href="#m0e15a51110" y="270.72"/>
      </g>
     </g>
     <g id="text_6">
      <!-- 1000 -->
      <defs>
       <path d="M 37.25 0 
L 28.46875 0 
L 28.46875 56 
Q 25.296875 52.984375 20.140625 49.953125 
Q 14.984375 46.921875 10.890625 45.40625 
L 10.890625 53.90625 
Q 18.265625 57.375 23.78125 62.296875 
Q 29.296875 67.234375 31.59375 71.875 
L 37.25 71.875 
z
" id="ArialMT-31"/>
      </defs>
      <g style="fill:#262626;" transform="translate(623.8 290.877812)scale(0.1 -0.1)">
       <use xlink:href="#ArialMT-31"/>
       <use x="55.615234" xlink:href="#ArialMT-30"/>
       <use x="111.230469" xlink:href="#ArialMT-30"/>
       <use x="166.845703" xlink:href="#ArialMT-30"/>
      </g>
     </g>
    </g>
   </g>
   <g id="matplotlib.axis_2">
    <g id="ytick_1">
     <g id="line2d_7">
      <defs>
       <path d="M 0 0 
L -6 0 
" id="m8ce428fc5e" style="stroke:#262626;"/>
      </defs>
      <g>
       <use style="fill:#262626;stroke:#262626;" x="90" xlink:href="#m8ce428fc5e" y="270.72"/>
      </g>
     </g>
     <g id="text_7">
      <!-- −0.6 -->
      <defs>
       <path d="M 52.828125 31.203125 
L 5.5625 31.203125 
L 5.5625 39.40625 
L 52.828125 39.40625 
z
" id="ArialMT-2212"/>
       <path d="M 9.078125 0 
L 9.078125 10.015625 
L 19.09375 10.015625 
L 19.09375 0 
z
" id="ArialMT-2e"/>
      </defs>
      <g style="fill:#262626;" transform="translate(57.259375 274.298906)scale(0.1 -0.1)">
       <use xlink:href="#ArialMT-2212"/>
       <use x="58.398438" xlink:href="#ArialMT-30"/>
       <use x="114.013672" xlink:href="#ArialMT-2e"/>
       <use x="141.796875" xlink:href="#ArialMT-36"/>
      </g>
     </g>
    </g>
    <g id="ytick_2">
     <g id="line2d_8">
      <g>
       <use style="fill:#262626;stroke:#262626;" x="90" xlink:href="#m8ce428fc5e" y="237.12"/>
      </g>
     </g>
     <g id="text_8">
      <!-- −0.4 -->
      <g style="fill:#262626;" transform="translate(57.259375 240.698906)scale(0.1 -0.1)">
       <use xlink:href="#ArialMT-2212"/>
       <use x="58.398438" xlink:href="#ArialMT-30"/>
       <use x="114.013672" xlink:href="#ArialMT-2e"/>
       <use x="141.796875" xlink:href="#ArialMT-34"/>
      </g>
     </g>
    </g>
    <g id="ytick_3">
     <g id="line2d_9">
      <g>
       <use style="fill:#262626;stroke:#262626;" x="90" xlink:href="#m8ce428fc5e" y="203.52"/>
      </g>
     </g>
     <g id="text_9">
      <!-- −0.2 -->
      <g style="fill:#262626;" transform="translate(57.259375 207.098906)scale(0.1 -0.1)">
       <use xlink:href="#ArialMT-2212"/>
       <use x="58.398438" xlink:href="#ArialMT-30"/>
       <use x="114.013672" xlink:href="#ArialMT-2e"/>
       <use x="141.796875" xlink:href="#ArialMT-32"/>
      </g>
     </g>
    </g>
    <g id="ytick_4">
     <g id="line2d_10">
      <g>
       <use style="fill:#262626;stroke:#262626;" x="90" xlink:href="#m8ce428fc5e" y="169.92"/>
      </g>
     </g>
     <g id="text_10">
      <!-- 0.0 -->
      <g style="fill:#262626;" transform="translate(63.1 173.498906)scale(0.1 -0.1)">
       <use xlink:href="#ArialMT-30"/>
       <use x="55.615234" xlink:href="#ArialMT-2e"/>
       <use x="83.398438" xlink:href="#ArialMT-30"/>
      </g>
     </g>
    </g>
    <g id="ytick_5">
     <g id="line2d_11">
      <g>
       <use style="fill:#262626;stroke:#262626;" x="90" xlink:href="#m8ce428fc5e" y="136.32"/>
      </g>
     </g>
     <g id="text_11">
      <!-- 0.2 -->
      <g style="fill:#262626;" transform="translate(63.1 139.898906)scale(0.1 -0.1)">
       <use xlink:href="#ArialMT-30"/>
       <use x="55.615234" xlink:href="#ArialMT-2e"/>
       <use x="83.398438" xlink:href="#ArialMT-32"/>
      </g>
     </g>
    </g>
    <g id="ytick_6">
     <g id="line2d_12">
      <g>
       <use style="fill:#262626;stroke:#262626;" x="90" xlink:href="#m8ce428fc5e" y="102.72"/>
      </g>
     </g>
     <g id="text_12">
      <!-- 0.4 -->
      <g style="fill:#262626;" transform="translate(63.1 106.298906)scale(0.1 -0.1)">
       <use xlink:href="#ArialMT-30"/>
       <use x="55.615234" xlink:href="#ArialMT-2e"/>
       <use x="83.398438" xlink:href="#ArialMT-34"/>
      </g>
     </g>
    </g>
    <g id="ytick_7">
     <g id="line2d_13">
      <g>
       <use style="fill:#262626;stroke:#262626;" x="90" xlink:href="#m8ce428fc5e" y="69.12"/>
      </g>
     </g>
     <g id="text_13">
      <!-- 0.6 -->
      <g style="fill:#262626;" transform="translate(63.1 72.698906)scale(0.1 -0.1)">
       <use xlink:href="#ArialMT-30"/>
       <use x="55.615234" xlink:href="#ArialMT-2e"/>
       <use x="83.398438" xlink:href="#ArialMT-36"/>
      </g>
     </g>
    </g>
   </g>
   <g id="line2d_14">
    <path clip-path="url(#p5bf0748615)" d="M 90 175.05208 
L 92.724609 172.00667 
L 94.359375 169.638018 
L 94.904297 168.96126 
L 95.449219 168.00252 
L 96.539062 166.418291 
L 97.628906 164.075273 
L 98.173828 163.311357 
L 100.353516 158.932939 
L 103.623047 152.155107 
L 104.712891 149.499346 
L 105.257812 148.571367 
L 106.347656 146.233477 
L 107.4375 144.341631 
L 107.982422 143.623857 
L 109.617188 142.413896 
L 110.162109 142.65999 
L 110.707031 142.639482 
L 112.341797 143.823809 
L 113.431641 145.469561 
L 113.976562 146.207842 
L 115.066406 148.279131 
L 115.611328 149.366045 
L 117.791016 155.205645 
L 119.425781 160.527422 
L 121.060547 166.397783 
L 122.150391 170.114824 
L 122.695312 171.452959 
L 123.240234 173.293535 
L 127.054688 182.614336 
L 127.599609 183.501299 
L 128.689453 186.167314 
L 129.779297 187.956621 
L 130.324219 188.925615 
L 130.869141 189.571611 
L 131.958984 190.26375 
L 133.048828 190.463701 
L 133.59375 190.289385 
L 134.683594 189.356279 
L 135.228516 188.397539 
L 135.773438 187.813066 
L 138.498047 182.101641 
L 140.132812 177.91292 
L 142.857422 170.10457 
L 144.492188 165.967119 
L 145.037109 165.080156 
L 145.582031 163.880449 
L 146.671875 162.773027 
L 147.216797 162.209062 
L 148.851562 162.009111 
L 149.396484 162.127031 
L 150.486328 162.773027 
L 151.03125 163.372881 
L 152.666016 164.039385 
L 153.210938 164.347002 
L 153.755859 163.988115 
L 154.300781 163.818926 
L 155.935547 161.880937 
L 156.480469 160.809404 
L 157.025391 160.045488 
L 158.115234 157.610186 
L 159.205078 155.636309 
L 159.75 154.580156 
L 161.384766 152.43709 
L 161.929688 152.196123 
L 162.474609 151.606523 
L 163.564453 151.509111 
L 164.109375 151.811602 
L 165.199219 152.80623 
L 166.289062 155.031328 
L 167.378906 158.451006 
L 169.013672 165.075029 
L 171.193359 174.616289 
L 172.828125 180.06624 
L 173.373047 181.271074 
L 173.917969 182.199053 
L 175.007812 183.244951 
L 175.552734 183.311602 
L 176.642578 183.024492 
L 177.1875 182.383623 
L 178.822266 181.101885 
L 180.457031 179.286943 
L 181.546875 178.482012 
L 182.091797 177.753984 
L 182.636719 177.369463 
L 183.181641 176.590166 
L 183.726562 176.262041 
L 185.361328 174.436846 
L 188.085938 170.648027 
L 188.630859 169.494463 
L 189.175781 168.853594 
L 190.265625 166.889971 
L 192.445312 162.942217 
L 194.080078 159.625078 
L 196.804688 153.518877 
L 197.894531 151.150225 
L 198.984375 149.237871 
L 199.529297 148.56624 
L 200.619141 147.494707 
L 201.164062 147.474199 
L 202.253906 147.217852 
L 203.888672 148.002275 
L 204.433594 148.597002 
L 204.978516 149.002031 
L 206.068359 150.370928 
L 207.158203 152.329424 
L 207.703125 153.821367 
L 208.248047 154.974932 
L 209.337891 158.17415 
L 214.242188 174.180498 
L 220.236328 190.658525 
L 220.78125 191.540361 
L 221.871094 194.047441 
L 222.960938 195.734209 
L 223.505859 196.154619 
L 224.595703 196.498125 
L 225.685547 196.062334 
L 226.230469 195.795732 
L 227.865234 194.180742 
L 230.044922 190.150957 
L 232.769531 182.645098 
L 235.494141 174.898271 
L 237.673828 170.007158 
L 238.21875 169.345781 
L 239.853516 168.361406 
L 240.398438 168.525469 
L 240.943359 168.853594 
L 241.488281 168.858721 
L 242.033203 169.104814 
L 243.667969 170.314775 
L 244.212891 170.437822 
L 244.757812 170.386553 
L 245.302734 170.632646 
L 246.392578 169.873857 
L 248.027344 167.377031 
L 249.662109 164.762285 
L 251.841797 160.583818 
L 252.386719 159.973711 
L 252.931641 159.025225 
L 254.566406 157.112871 
L 255.111328 156.871904 
L 255.65625 156.836016 
L 256.201172 157.056475 
L 256.746094 157.605059 
L 257.835938 159.435381 
L 258.380859 160.706865 
L 260.015625 166.443926 
L 262.740234 178.45125 
L 263.830078 182.234941 
L 264.919922 185.152178 
L 266.009766 186.936357 
L 266.554688 187.474687 
L 267.644531 187.946367 
L 268.189453 187.75667 
L 268.734375 187.905352 
L 269.824219 187.105547 
L 270.369141 186.792803 
L 270.914062 186.295488 
L 271.458984 186.013506 
L 272.003906 185.357256 
L 273.09375 184.444658 
L 273.638672 183.890947 
L 274.183594 183.173174 
L 274.728516 182.855303 
L 275.818359 181.558184 
L 276.908203 180.045732 
L 280.177734 175.262285 
L 281.267578 173.416582 
L 281.8125 172.837236 
L 285.082031 166.7054 
L 286.171875 164.126543 
L 287.261719 161.604082 
L 288.351562 158.779131 
L 288.896484 157.440996 
L 291.076172 153.426592 
L 292.710938 151.673174 
L 293.255859 151.473223 
L 293.800781 150.94002 
L 294.345703 150.688799 
L 294.890625 150.832354 
L 295.435547 150.627275 
L 297.070312 151.222002 
L 297.615234 151.755205 
L 298.705078 153.262529 
L 299.25 154.482744 
L 301.974609 162.029619 
L 303.064453 165.669756 
L 312.328125 192.206865 
L 313.417969 194.498613 
L 313.962891 195.452227 
L 315.597656 197.24666 
L 316.142578 197.651689 
L 316.6875 197.631182 
L 317.232422 197.790117 
L 317.777344 197.733721 
L 318.322266 197.221025 
L 318.867188 196.918535 
L 319.957031 195.539385 
L 320.501953 194.560137 
L 321.046875 193.944902 
L 323.226562 188.735918 
L 324.316406 185.675127 
L 326.496094 178.671709 
L 328.130859 174.165117 
L 329.220703 171.663164 
L 329.765625 170.740312 
L 330.855469 169.796953 
L 331.945312 169.668779 
L 333.580078 170.360918 
L 334.125 170.714678 
L 334.669922 171.263262 
L 335.214844 171.422197 
L 335.759766 171.381182 
L 336.304688 171.529863 
L 337.939453 170.822344 
L 339.029297 169.432939 
L 339.574219 168.807451 
L 340.664062 166.982256 
L 341.208984 166.40291 
L 343.388672 162.045 
L 343.933594 160.804277 
L 344.478516 160.055742 
L 345.023438 158.856035 
L 345.568359 158.215166 
L 346.658203 156.518145 
L 347.748047 156.097734 
L 348.837891 157.020586 
L 349.382812 158.010088 
L 350.472656 160.942705 
L 352.107422 167.22835 
L 352.652344 169.899492 
L 355.376953 180.378984 
L 356.466797 183.439775 
L 357.556641 185.326494 
L 358.101562 186.116045 
L 359.736328 187.069658 
L 360.28125 187.146562 
L 360.826172 187.059404 
L 361.371094 186.68001 
L 362.460938 186.592852 
L 363.550781 185.731523 
L 364.095703 185.382891 
L 364.640625 185.223955 
L 365.185547 184.413896 
L 365.730469 184.198564 
L 367.910156 181.414629 
L 368.455078 180.619951 
L 369 180.132891 
L 369.544922 179.379229 
L 370.089844 178.358965 
L 370.634766 177.738604 
L 371.724609 176.087725 
L 372.269531 175.28792 
L 372.814453 174.185625 
L 373.359375 173.462725 
L 373.904297 173.006426 
L 374.449219 171.857988 
L 374.994141 171.094072 
L 376.083984 169.02791 
L 381.533203 156.605303 
L 382.078125 155.913164 
L 382.623047 154.913408 
L 384.802734 151.873125 
L 385.892578 151.114336 
L 386.982422 150.447832 
L 387.527344 150.206865 
L 388.072266 150.170977 
L 388.617188 150.396562 
L 389.707031 151.283525 
L 390.251953 152.144854 
L 390.796875 152.79085 
L 391.341797 153.805986 
L 394.066406 160.773516 
L 395.15625 163.680498 
L 395.701172 165.054521 
L 397.335938 169.86873 
L 398.425781 172.950029 
L 400.060547 177.784746 
L 401.695312 182.947588 
L 403.875 188.864092 
L 405.509766 192.2325 
L 407.144531 194.298662 
L 407.689453 194.867754 
L 408.779297 195.118975 
L 409.324219 195.242021 
L 409.869141 195.026689 
L 410.414062 194.678057 
L 410.958984 194.55501 
L 412.59375 192.18123 
L 413.683594 190.238115 
L 416.408203 182.568193 
L 420.222656 170.401934 
L 420.767578 169.289385 
L 421.857422 167.869219 
L 422.402344 167.561602 
L 422.947266 167.079668 
L 423.492188 167.269365 
L 424.037109 167.141191 
L 425.671875 167.879473 
L 426.216797 168.166582 
L 426.761719 168.146074 
L 427.851562 168.515215 
L 428.396484 168.105059 
L 428.941406 167.89998 
L 429.486328 167.828203 
L 431.666016 165.654375 
L 432.755859 164.106035 
L 433.300781 162.911455 
L 433.845703 162.11165 
L 436.570312 156.061846 
L 437.115234 154.764727 
L 438.75 152.170488 
L 439.294922 152.273027 
L 439.839844 152.216631 
L 440.384766 152.744707 
L 441.474609 154.569902 
L 442.564453 157.763994 
L 444.744141 166.161943 
L 446.378906 172.806475 
L 447.46875 176.359453 
L 449.103516 180.261064 
L 450.193359 182.132402 
L 451.283203 183.045 
L 451.828125 183.542314 
L 452.373047 183.537187 
L 452.917969 183.808916 
L 454.007812 183.685869 
L 454.552734 183.808916 
L 455.642578 183.039873 
L 456.1875 182.839922 
L 457.822266 181.583818 
L 458.367188 180.660967 
L 458.912109 180.035479 
L 463.271484 173.842119 
L 464.90625 171.965654 
L 465.996094 170.294268 
L 467.630859 167.120684 
L 469.810547 162.188555 
L 470.900391 159.845537 
L 471.445312 158.604814 
L 471.990234 157.717852 
L 472.535156 156.354082 
L 474.169922 153.688066 
L 474.714844 152.990801 
L 475.259766 151.955156 
L 477.439453 148.704668 
L 477.984375 148.407305 
L 478.529297 147.699785 
L 479.619141 147.238359 
L 480.164062 147.18709 
L 480.708984 147.330645 
L 481.253906 147.90999 
L 481.798828 148.309893 
L 482.34375 149.417314 
L 482.888672 150.170977 
L 483.433594 151.42708 
L 483.978516 152.211504 
L 485.613281 155.892656 
L 486.158203 157.553789 
L 486.703125 158.789385 
L 491.0625 171.288896 
L 492.697266 176.702959 
L 495.421875 184.952227 
L 496.511719 187.58748 
L 498.691406 191.437822 
L 499.236328 192.217119 
L 499.78125 192.529863 
L 500.326172 193.083574 
L 500.871094 193.268145 
L 501.416016 193.027178 
L 501.960938 193.268145 
L 503.050781 192.750322 
L 504.140625 191.69417 
L 505.775391 188.823076 
L 506.320312 187.387529 
L 511.224609 171.099199 
L 511.769531 169.540605 
L 512.859375 167.356523 
L 513.404297 166.818193 
L 513.949219 166.085039 
L 514.494141 165.649248 
L 515.039062 165.541582 
L 516.128906 165.541582 
L 516.673828 165.854326 
L 517.21875 165.936357 
L 517.763672 165.833818 
L 518.853516 165.997881 
L 519.943359 165.823564 
L 520.488281 165.946611 
L 521.578125 165.428789 
L 522.123047 165.136553 
L 523.212891 164.234209 
L 524.302734 162.880693 
L 525.392578 160.676104 
L 526.482422 157.984453 
L 529.207031 151.165605 
L 529.751953 150.119707 
L 530.296875 149.345537 
L 531.386719 148.725176 
L 532.476562 149.6429 
L 533.566406 151.960283 
L 534.111328 153.308672 
L 536.291016 161.357988 
L 537.925781 167.392412 
L 539.015625 171.017168 
L 539.560547 172.709062 
L 541.195312 176.461992 
L 542.830078 178.969072 
L 543.375 179.297197 
L 543.919922 179.897051 
L 546.099609 180.625078 
L 547.189453 180.491777 
L 549.369141 178.830645 
L 551.548828 176.041582 
L 552.09375 175.257158 
L 554.818359 172.329668 
L 555.363281 171.509355 
L 555.908203 170.981279 
L 556.998047 169.432939 
L 564.626953 154.293047 
L 565.716797 152.493486 
L 566.261719 151.237383 
L 566.806641 150.345293 
L 567.896484 148.191973 
L 569.53125 145.813066 
L 570.076172 145.597734 
L 570.621094 144.972246 
L 571.166016 144.587725 
L 571.710938 144.515947 
L 572.800781 144.967119 
L 573.890625 145.82332 
L 576.070312 149.371172 
L 576.615234 150.263262 
L 577.160156 151.59627 
L 577.705078 152.560137 
L 579.339844 156.37459 
L 583.154297 167.95125 
L 586.423828 178.358965 
L 588.058594 182.952715 
L 589.693359 186.433916 
L 591.328125 188.659014 
L 591.873047 189.279375 
L 593.507812 190.463701 
L 594.597656 190.581621 
L 595.6875 190.099687 
L 596.232422 189.469072 
L 597.322266 187.423418 
L 598.412109 184.798418 
L 601.136719 175.395586 
L 602.771484 169.966143 
L 603.316406 168.515215 
L 604.40625 166.428545 
L 604.951172 165.592852 
L 605.496094 165.213457 
L 606.041016 164.608477 
L 607.675781 163.767656 
L 608.220703 163.690752 
L 608.765625 163.803545 
L 611.490234 163.762529 
L 612.035156 164.024004 
L 612.580078 163.921465 
L 613.125 164.06502 
L 613.669922 163.767656 
L 614.214844 163.880449 
L 615.849609 162.091143 
L 617.484375 158.656084 
L 618.029297 157.364092 
L 619.119141 154.005937 
L 621.298828 148.366289 
L 621.84375 147.566484 
L 622.388672 147.161455 
L 622.933594 146.489824 
L 623.478516 147.00252 
L 624.023438 147.263994 
L 624.568359 147.945879 
L 625.658203 150.253008 
L 626.748047 153.708574 
L 627.837891 157.50252 
L 629.472656 163.747148 
L 631.652344 170.560869 
L 632.742188 173.1346 
L 633.832031 175.180254 
L 634.376953 176.12874 
L 636.556641 178.784502 
L 637.101562 179.333086 
L 637.646484 179.57918 
L 638.736328 179.317705 
L 639.28125 179.348467 
L 641.460938 177.482256 
L 643.640625 175.05208 
L 645.820312 173.006426 
L 646.365234 172.580889 
L 647.455078 171.263262 
L 647.455078 171.263262 
" style="fill:none;stroke:#4c72b0;stroke-linecap:round;stroke-width:1.75;"/>
   </g>
   <g id="patch_3">
    <path d="M 90 270.72 
L 90 69.12 
" style="fill:none;stroke:#262626;stroke-linecap:square;stroke-linejoin:miter;stroke-width:1.25;"/>
   </g>
   <g id="patch_4">
    <path d="M 90 270.72 
L 648 270.72 
" style="fill:none;stroke:#262626;stroke-linecap:square;stroke-linejoin:miter;stroke-width:1.25;"/>
   </g>
  </g>
  <g id="axes_2">
   <g id="patch_5">
    <path d="M 90 512.64 
L 648 512.64 
L 648 311.04 
L 90 311.04 
z
" style="fill:#ffffff;"/>
   </g>
   <g id="matplotlib.axis_3">
    <g id="xtick_7">
     <g id="line2d_15">
      <g>
       <use style="fill:#262626;stroke:#262626;" x="218.197478" xlink:href="#m0e15a51110" y="512.64"/>
      </g>
     </g>
     <g id="text_14">
      <!-- $\mathdefault{10^{2}}$ -->
      <g style="fill:#262626;" transform="translate(210.347478 535.9525)scale(0.1 -0.1)">
       <use transform="translate(0 0.99375)" xlink:href="#ArialMT-31"/>
       <use transform="translate(55.615234 0.99375)" xlink:href="#ArialMT-30"/>
       <use transform="translate(112.972813 70.6875)scale(0.7)" xlink:href="#ArialMT-32"/>
      </g>
     </g>
    </g>
    <g id="xtick_8">
     <g id="line2d_16">
      <g>
       <use style="fill:#262626;stroke:#262626;" x="401.606604" xlink:href="#m0e15a51110" y="512.64"/>
      </g>
     </g>
     <g id="text_15">
      <!-- $\mathdefault{10^{3}}$ -->
      <defs>
       <path d="M 4.203125 18.890625 
L 12.984375 20.0625 
Q 14.5 12.59375 18.140625 9.296875 
Q 21.78125 6 27 6 
Q 33.203125 6 37.46875 10.296875 
Q 41.75 14.59375 41.75 20.953125 
Q 41.75 27 37.796875 30.921875 
Q 33.84375 34.859375 27.734375 34.859375 
Q 25.25 34.859375 21.53125 33.890625 
L 22.515625 41.609375 
Q 23.390625 41.5 23.921875 41.5 
Q 29.546875 41.5 34.03125 44.421875 
Q 38.53125 47.359375 38.53125 53.46875 
Q 38.53125 58.296875 35.25 61.46875 
Q 31.984375 64.65625 26.8125 64.65625 
Q 21.6875 64.65625 18.265625 61.421875 
Q 14.84375 58.203125 13.875 51.765625 
L 5.078125 53.328125 
Q 6.6875 62.15625 12.390625 67.015625 
Q 18.109375 71.875 26.609375 71.875 
Q 32.46875 71.875 37.390625 69.359375 
Q 42.328125 66.84375 44.9375 62.5 
Q 47.5625 58.15625 47.5625 53.265625 
Q 47.5625 48.640625 45.0625 44.828125 
Q 42.578125 41.015625 37.703125 38.765625 
Q 44.046875 37.3125 47.5625 32.6875 
Q 51.078125 28.078125 51.078125 21.140625 
Q 51.078125 11.765625 44.234375 5.25 
Q 37.40625 -1.265625 26.953125 -1.265625 
Q 17.53125 -1.265625 11.296875 4.34375 
Q 5.078125 9.96875 4.203125 18.890625 
z
" id="ArialMT-33"/>
      </defs>
      <g style="fill:#262626;" transform="translate(393.756604 535.9525)scale(0.1 -0.1)">
       <use transform="translate(0 0.99375)" xlink:href="#ArialMT-31"/>
       <use transform="translate(55.615234 0.99375)" xlink:href="#ArialMT-30"/>
       <use transform="translate(112.972813 70.6875)scale(0.7)" xlink:href="#ArialMT-33"/>
      </g>
     </g>
    </g>
    <g id="xtick_9">
     <g id="line2d_17">
      <g>
       <use style="fill:#262626;stroke:#262626;" x="585.01573" xlink:href="#m0e15a51110" y="512.64"/>
      </g>
     </g>
     <g id="text_16">
      <!-- $\mathdefault{10^{4}}$ -->
      <g style="fill:#262626;" transform="translate(577.16573 535.8525)scale(0.1 -0.1)">
       <use transform="translate(0 0.201563)" xlink:href="#ArialMT-31"/>
       <use transform="translate(55.615234 0.201563)" xlink:href="#ArialMT-30"/>
       <use transform="translate(112.972813 69.895313)scale(0.7)" xlink:href="#ArialMT-34"/>
      </g>
     </g>
    </g>
    <g id="xtick_10">
     <g id="line2d_18">
      <defs>
       <path d="M 0 0 
L 0 3 
" id="m9a513f03c4" style="stroke:#262626;stroke-width:0.5;"/>
      </defs>
      <g>
       <use style="fill:#262626;stroke:#262626;stroke-width:0.5;" x="90" xlink:href="#m9a513f03c4" y="512.64"/>
      </g>
     </g>
    </g>
    <g id="xtick_11">
     <g id="line2d_19">
      <g>
       <use style="fill:#262626;stroke:#262626;stroke-width:0.5;" x="122.296744" xlink:href="#m9a513f03c4" y="512.64"/>
      </g>
     </g>
    </g>
    <g id="xtick_12">
     <g id="line2d_20">
      <g>
       <use style="fill:#262626;stroke:#262626;stroke-width:0.5;" x="145.211648" xlink:href="#m9a513f03c4" y="512.64"/>
      </g>
     </g>
    </g>
    <g id="xtick_13">
     <g id="line2d_21">
      <g>
       <use style="fill:#262626;stroke:#262626;stroke-width:0.5;" x="162.985829" xlink:href="#m9a513f03c4" y="512.64"/>
      </g>
     </g>
    </g>
    <g id="xtick_14">
     <g id="line2d_22">
      <g>
       <use style="fill:#262626;stroke:#262626;stroke-width:0.5;" x="177.508392" xlink:href="#m9a513f03c4" y="512.64"/>
      </g>
     </g>
    </g>
    <g id="xtick_15">
     <g id="line2d_23">
      <g>
       <use style="fill:#262626;stroke:#262626;stroke-width:0.5;" x="189.787045" xlink:href="#m9a513f03c4" y="512.64"/>
      </g>
     </g>
    </g>
    <g id="xtick_16">
     <g id="line2d_24">
      <g>
       <use style="fill:#262626;stroke:#262626;stroke-width:0.5;" x="200.423297" xlink:href="#m9a513f03c4" y="512.64"/>
      </g>
     </g>
    </g>
    <g id="xtick_17">
     <g id="line2d_25">
      <g>
       <use style="fill:#262626;stroke:#262626;stroke-width:0.5;" x="209.805136" xlink:href="#m9a513f03c4" y="512.64"/>
      </g>
     </g>
    </g>
    <g id="xtick_18">
     <g id="line2d_26">
      <g>
       <use style="fill:#262626;stroke:#262626;stroke-width:0.5;" x="273.409126" xlink:href="#m9a513f03c4" y="512.64"/>
      </g>
     </g>
    </g>
    <g id="xtick_19">
     <g id="line2d_27">
      <g>
       <use style="fill:#262626;stroke:#262626;stroke-width:0.5;" x="305.70587" xlink:href="#m9a513f03c4" y="512.64"/>
      </g>
     </g>
    </g>
    <g id="xtick_20">
     <g id="line2d_28">
      <g>
       <use style="fill:#262626;stroke:#262626;stroke-width:0.5;" x="328.620775" xlink:href="#m9a513f03c4" y="512.64"/>
      </g>
     </g>
    </g>
    <g id="xtick_21">
     <g id="line2d_29">
      <g>
       <use style="fill:#262626;stroke:#262626;stroke-width:0.5;" x="346.394955" xlink:href="#m9a513f03c4" y="512.64"/>
      </g>
     </g>
    </g>
    <g id="xtick_22">
     <g id="line2d_30">
      <g>
       <use style="fill:#262626;stroke:#262626;stroke-width:0.5;" x="360.917518" xlink:href="#m9a513f03c4" y="512.64"/>
      </g>
     </g>
    </g>
    <g id="xtick_23">
     <g id="line2d_31">
      <g>
       <use style="fill:#262626;stroke:#262626;stroke-width:0.5;" x="373.196171" xlink:href="#m9a513f03c4" y="512.64"/>
      </g>
     </g>
    </g>
    <g id="xtick_24">
     <g id="line2d_32">
      <g>
       <use style="fill:#262626;stroke:#262626;stroke-width:0.5;" x="383.832423" xlink:href="#m9a513f03c4" y="512.64"/>
      </g>
     </g>
    </g>
    <g id="xtick_25">
     <g id="line2d_33">
      <g>
       <use style="fill:#262626;stroke:#262626;stroke-width:0.5;" x="393.214262" xlink:href="#m9a513f03c4" y="512.64"/>
      </g>
     </g>
    </g>
    <g id="xtick_26">
     <g id="line2d_34">
      <g>
       <use style="fill:#262626;stroke:#262626;stroke-width:0.5;" x="456.818252" xlink:href="#m9a513f03c4" y="512.64"/>
      </g>
     </g>
    </g>
    <g id="xtick_27">
     <g id="line2d_35">
      <g>
       <use style="fill:#262626;stroke:#262626;stroke-width:0.5;" x="489.114996" xlink:href="#m9a513f03c4" y="512.64"/>
      </g>
     </g>
    </g>
    <g id="xtick_28">
     <g id="line2d_36">
      <g>
       <use style="fill:#262626;stroke:#262626;stroke-width:0.5;" x="512.029901" xlink:href="#m9a513f03c4" y="512.64"/>
      </g>
     </g>
    </g>
    <g id="xtick_29">
     <g id="line2d_37">
      <g>
       <use style="fill:#262626;stroke:#262626;stroke-width:0.5;" x="529.804081" xlink:href="#m9a513f03c4" y="512.64"/>
      </g>
     </g>
    </g>
    <g id="xtick_30">
     <g id="line2d_38">
      <g>
       <use style="fill:#262626;stroke:#262626;stroke-width:0.5;" x="544.326645" xlink:href="#m9a513f03c4" y="512.64"/>
      </g>
     </g>
    </g>
    <g id="xtick_31">
     <g id="line2d_39">
      <g>
       <use style="fill:#262626;stroke:#262626;stroke-width:0.5;" x="556.605297" xlink:href="#m9a513f03c4" y="512.64"/>
      </g>
     </g>
    </g>
    <g id="xtick_32">
     <g id="line2d_40">
      <g>
       <use style="fill:#262626;stroke:#262626;stroke-width:0.5;" x="567.241549" xlink:href="#m9a513f03c4" y="512.64"/>
      </g>
     </g>
    </g>
    <g id="xtick_33">
     <g id="line2d_41">
      <g>
       <use style="fill:#262626;stroke:#262626;stroke-width:0.5;" x="576.623389" xlink:href="#m9a513f03c4" y="512.64"/>
      </g>
     </g>
    </g>
    <g id="xtick_34">
     <g id="line2d_42">
      <g>
       <use style="fill:#262626;stroke:#262626;stroke-width:0.5;" x="640.227378" xlink:href="#m9a513f03c4" y="512.64"/>
      </g>
     </g>
    </g>
   </g>
   <g id="matplotlib.axis_4">
    <g id="ytick_8">
     <g id="line2d_43">
      <g>
       <use style="fill:#262626;stroke:#262626;" x="90" xlink:href="#m8ce428fc5e" y="512.64"/>
      </g>
     </g>
     <g id="text_17">
      <!-- $\mathdefault{10^{-5}}$ -->
      <defs>
       <path d="M 4.15625 18.75 
L 13.375 19.53125 
Q 14.40625 12.796875 18.140625 9.390625 
Q 21.875 6 27.15625 6 
Q 33.5 6 37.890625 10.78125 
Q 42.28125 15.578125 42.28125 23.484375 
Q 42.28125 31 38.0625 35.34375 
Q 33.84375 39.703125 27 39.703125 
Q 22.75 39.703125 19.328125 37.765625 
Q 15.921875 35.84375 13.96875 32.765625 
L 5.71875 33.84375 
L 12.640625 70.609375 
L 48.25 70.609375 
L 48.25 62.203125 
L 19.671875 62.203125 
L 15.828125 42.96875 
Q 22.265625 47.46875 29.34375 47.46875 
Q 38.71875 47.46875 45.15625 40.96875 
Q 51.609375 34.46875 51.609375 24.265625 
Q 51.609375 14.546875 45.953125 7.46875 
Q 39.0625 -1.21875 27.15625 -1.21875 
Q 17.390625 -1.21875 11.203125 4.25 
Q 5.03125 9.71875 4.15625 18.75 
z
" id="ArialMT-35"/>
      </defs>
      <g style="fill:#262626;" transform="translate(57.2 517.74625)scale(0.1 -0.1)">
       <use transform="translate(0 0.879688)" xlink:href="#ArialMT-31"/>
       <use transform="translate(55.615234 0.879688)" xlink:href="#ArialMT-30"/>
       <use transform="translate(112.972813 70.573438)scale(0.7)" xlink:href="#ArialMT-2212"/>
       <use transform="translate(153.851719 70.573438)scale(0.7)" xlink:href="#ArialMT-35"/>
      </g>
     </g>
    </g>
    <g id="ytick_9">
     <g id="line2d_44">
      <g>
       <use style="fill:#262626;stroke:#262626;" x="90" xlink:href="#m8ce428fc5e" y="465.767507"/>
      </g>
     </g>
     <g id="text_18">
      <!-- $\mathdefault{10^{-4}}$ -->
      <g style="fill:#262626;" transform="translate(57.2 470.873757)scale(0.1 -0.1)">
       <use transform="translate(0 0.201563)" xlink:href="#ArialMT-31"/>
       <use transform="translate(55.615234 0.201563)" xlink:href="#ArialMT-30"/>
       <use transform="translate(112.972813 69.895313)scale(0.7)" xlink:href="#ArialMT-2212"/>
       <use transform="translate(153.851719 69.895313)scale(0.7)" xlink:href="#ArialMT-34"/>
      </g>
     </g>
    </g>
    <g id="ytick_10">
     <g id="line2d_45">
      <g>
       <use style="fill:#262626;stroke:#262626;" x="90" xlink:href="#m8ce428fc5e" y="418.895013"/>
      </g>
     </g>
     <g id="text_19">
      <!-- $\mathdefault{10^{-3}}$ -->
      <g style="fill:#262626;" transform="translate(57.2 424.051263)scale(0.1 -0.1)">
       <use transform="translate(0 0.99375)" xlink:href="#ArialMT-31"/>
       <use transform="translate(55.615234 0.99375)" xlink:href="#ArialMT-30"/>
       <use transform="translate(112.972813 70.6875)scale(0.7)" xlink:href="#ArialMT-2212"/>
       <use transform="translate(153.851719 70.6875)scale(0.7)" xlink:href="#ArialMT-33"/>
      </g>
     </g>
    </g>
    <g id="ytick_11">
     <g id="line2d_46">
      <g>
       <use style="fill:#262626;stroke:#262626;" x="90" xlink:href="#m8ce428fc5e" y="372.02252"/>
      </g>
     </g>
     <g id="text_20">
      <!-- $\mathdefault{10^{-2}}$ -->
      <g style="fill:#262626;" transform="translate(57.2 377.17877)scale(0.1 -0.1)">
       <use transform="translate(0 0.99375)" xlink:href="#ArialMT-31"/>
       <use transform="translate(55.615234 0.99375)" xlink:href="#ArialMT-30"/>
       <use transform="translate(112.972813 70.6875)scale(0.7)" xlink:href="#ArialMT-2212"/>
       <use transform="translate(153.851719 70.6875)scale(0.7)" xlink:href="#ArialMT-32"/>
      </g>
     </g>
    </g>
    <g id="ytick_12">
     <g id="line2d_47">
      <g>
       <use style="fill:#262626;stroke:#262626;" x="90" xlink:href="#m8ce428fc5e" y="325.150026"/>
      </g>
     </g>
     <g id="text_21">
      <!-- $\mathdefault{10^{-1}}$ -->
      <g style="fill:#262626;" transform="translate(57.2 330.306276)scale(0.1 -0.1)">
       <use transform="translate(0 0.99375)" xlink:href="#ArialMT-31"/>
       <use transform="translate(55.615234 0.99375)" xlink:href="#ArialMT-30"/>
       <use transform="translate(112.972813 70.6875)scale(0.7)" xlink:href="#ArialMT-2212"/>
       <use transform="translate(153.851719 70.6875)scale(0.7)" xlink:href="#ArialMT-31"/>
      </g>
     </g>
    </g>
    <g id="ytick_13">
     <g id="line2d_48">
      <defs>
       <path d="M 0 0 
L -3 0 
" id="mc36f4a1d7d" style="stroke:#262626;stroke-width:0.5;"/>
      </defs>
      <g>
       <use style="fill:#262626;stroke:#262626;stroke-width:0.5;" x="90" xlink:href="#mc36f4a1d7d" y="498.529974"/>
      </g>
     </g>
    </g>
    <g id="ytick_14">
     <g id="line2d_49">
      <g>
       <use style="fill:#262626;stroke:#262626;stroke-width:0.5;" x="90" xlink:href="#mc36f4a1d7d" y="490.276137"/>
      </g>
     </g>
    </g>
    <g id="ytick_15">
     <g id="line2d_50">
      <g>
       <use style="fill:#262626;stroke:#262626;stroke-width:0.5;" x="90" xlink:href="#mc36f4a1d7d" y="484.419947"/>
      </g>
     </g>
    </g>
    <g id="ytick_16">
     <g id="line2d_51">
      <g>
       <use style="fill:#262626;stroke:#262626;stroke-width:0.5;" x="90" xlink:href="#mc36f4a1d7d" y="479.877533"/>
      </g>
     </g>
    </g>
    <g id="ytick_17">
     <g id="line2d_52">
      <g>
       <use style="fill:#262626;stroke:#262626;stroke-width:0.5;" x="90" xlink:href="#mc36f4a1d7d" y="476.166111"/>
      </g>
     </g>
    </g>
    <g id="ytick_18">
     <g id="line2d_53">
      <g>
       <use style="fill:#262626;stroke:#262626;stroke-width:0.5;" x="90" xlink:href="#mc36f4a1d7d" y="473.028148"/>
      </g>
     </g>
    </g>
    <g id="ytick_19">
     <g id="line2d_54">
      <g>
       <use style="fill:#262626;stroke:#262626;stroke-width:0.5;" x="90" xlink:href="#mc36f4a1d7d" y="470.309921"/>
      </g>
     </g>
    </g>
    <g id="ytick_20">
     <g id="line2d_55">
      <g>
       <use style="fill:#262626;stroke:#262626;stroke-width:0.5;" x="90" xlink:href="#mc36f4a1d7d" y="467.912274"/>
      </g>
     </g>
    </g>
    <g id="ytick_21">
     <g id="line2d_56">
      <g>
       <use style="fill:#262626;stroke:#262626;stroke-width:0.5;" x="90" xlink:href="#mc36f4a1d7d" y="451.65748"/>
      </g>
     </g>
    </g>
    <g id="ytick_22">
     <g id="line2d_57">
      <g>
       <use style="fill:#262626;stroke:#262626;stroke-width:0.5;" x="90" xlink:href="#mc36f4a1d7d" y="443.403644"/>
      </g>
     </g>
    </g>
    <g id="ytick_23">
     <g id="line2d_58">
      <g>
       <use style="fill:#262626;stroke:#262626;stroke-width:0.5;" x="90" xlink:href="#mc36f4a1d7d" y="437.547454"/>
      </g>
     </g>
    </g>
    <g id="ytick_24">
     <g id="line2d_59">
      <g>
       <use style="fill:#262626;stroke:#262626;stroke-width:0.5;" x="90" xlink:href="#mc36f4a1d7d" y="433.00504"/>
      </g>
     </g>
    </g>
    <g id="ytick_25">
     <g id="line2d_60">
      <g>
       <use style="fill:#262626;stroke:#262626;stroke-width:0.5;" x="90" xlink:href="#mc36f4a1d7d" y="429.293617"/>
      </g>
     </g>
    </g>
    <g id="ytick_26">
     <g id="line2d_61">
      <g>
       <use style="fill:#262626;stroke:#262626;stroke-width:0.5;" x="90" xlink:href="#mc36f4a1d7d" y="426.155654"/>
      </g>
     </g>
    </g>
    <g id="ytick_27">
     <g id="line2d_62">
      <g>
       <use style="fill:#262626;stroke:#262626;stroke-width:0.5;" x="90" xlink:href="#mc36f4a1d7d" y="423.437427"/>
      </g>
     </g>
    </g>
    <g id="ytick_28">
     <g id="line2d_63">
      <g>
       <use style="fill:#262626;stroke:#262626;stroke-width:0.5;" x="90" xlink:href="#mc36f4a1d7d" y="421.039781"/>
      </g>
     </g>
    </g>
    <g id="ytick_29">
     <g id="line2d_64">
      <g>
       <use style="fill:#262626;stroke:#262626;stroke-width:0.5;" x="90" xlink:href="#mc36f4a1d7d" y="404.784987"/>
      </g>
     </g>
    </g>
    <g id="ytick_30">
     <g id="line2d_65">
      <g>
       <use style="fill:#262626;stroke:#262626;stroke-width:0.5;" x="90" xlink:href="#mc36f4a1d7d" y="396.53115"/>
      </g>
     </g>
    </g>
    <g id="ytick_31">
     <g id="line2d_66">
      <g>
       <use style="fill:#262626;stroke:#262626;stroke-width:0.5;" x="90" xlink:href="#mc36f4a1d7d" y="390.67496"/>
      </g>
     </g>
    </g>
    <g id="ytick_32">
     <g id="line2d_67">
      <g>
       <use style="fill:#262626;stroke:#262626;stroke-width:0.5;" x="90" xlink:href="#mc36f4a1d7d" y="386.132546"/>
      </g>
     </g>
    </g>
    <g id="ytick_33">
     <g id="line2d_68">
      <g>
       <use style="fill:#262626;stroke:#262626;stroke-width:0.5;" x="90" xlink:href="#mc36f4a1d7d" y="382.421124"/>
      </g>
     </g>
    </g>
    <g id="ytick_34">
     <g id="line2d_69">
      <g>
       <use style="fill:#262626;stroke:#262626;stroke-width:0.5;" x="90" xlink:href="#mc36f4a1d7d" y="379.283161"/>
      </g>
     </g>
    </g>
    <g id="ytick_35">
     <g id="line2d_70">
      <g>
       <use style="fill:#262626;stroke:#262626;stroke-width:0.5;" x="90" xlink:href="#mc36f4a1d7d" y="376.564934"/>
      </g>
     </g>
    </g>
    <g id="ytick_36">
     <g id="line2d_71">
      <g>
       <use style="fill:#262626;stroke:#262626;stroke-width:0.5;" x="90" xlink:href="#mc36f4a1d7d" y="374.167288"/>
      </g>
     </g>
    </g>
    <g id="ytick_37">
     <g id="line2d_72">
      <g>
       <use style="fill:#262626;stroke:#262626;stroke-width:0.5;" x="90" xlink:href="#mc36f4a1d7d" y="357.912493"/>
      </g>
     </g>
    </g>
    <g id="ytick_38">
     <g id="line2d_73">
      <g>
       <use style="fill:#262626;stroke:#262626;stroke-width:0.5;" x="90" xlink:href="#mc36f4a1d7d" y="349.658657"/>
      </g>
     </g>
    </g>
    <g id="ytick_39">
     <g id="line2d_74">
      <g>
       <use style="fill:#262626;stroke:#262626;stroke-width:0.5;" x="90" xlink:href="#mc36f4a1d7d" y="343.802467"/>
      </g>
     </g>
    </g>
    <g id="ytick_40">
     <g id="line2d_75">
      <g>
       <use style="fill:#262626;stroke:#262626;stroke-width:0.5;" x="90" xlink:href="#mc36f4a1d7d" y="339.260053"/>
      </g>
     </g>
    </g>
    <g id="ytick_41">
     <g id="line2d_76">
      <g>
       <use style="fill:#262626;stroke:#262626;stroke-width:0.5;" x="90" xlink:href="#mc36f4a1d7d" y="335.548631"/>
      </g>
     </g>
    </g>
    <g id="ytick_42">
     <g id="line2d_77">
      <g>
       <use style="fill:#262626;stroke:#262626;stroke-width:0.5;" x="90" xlink:href="#mc36f4a1d7d" y="332.410668"/>
      </g>
     </g>
    </g>
    <g id="ytick_43">
     <g id="line2d_78">
      <g>
       <use style="fill:#262626;stroke:#262626;stroke-width:0.5;" x="90" xlink:href="#mc36f4a1d7d" y="329.69244"/>
      </g>
     </g>
    </g>
    <g id="ytick_44">
     <g id="line2d_79">
      <g>
       <use style="fill:#262626;stroke:#262626;stroke-width:0.5;" x="90" xlink:href="#mc36f4a1d7d" y="327.294794"/>
      </g>
     </g>
    </g>
    <g id="ytick_45">
     <g id="line2d_80">
      <g>
       <use style="fill:#262626;stroke:#262626;stroke-width:0.5;" x="90" xlink:href="#mc36f4a1d7d" y="311.04"/>
      </g>
     </g>
    </g>
   </g>
   <g id="line2d_81">
    <path clip-path="url(#pf9071a99ab)" d="M -1 368.877597 
L 151.095164 368.847403 
L 206.306812 402.880396 
L 238.603556 426.303929 
L 261.518461 415.129364 
L 279.292642 418.055741 
L 293.815205 363.928128 
L 306.093857 403.604484 
L 316.730109 408.514649 
L 326.111949 405.004451 
L 334.50429 402.241049 
L 342.096086 388.177302 
L 349.026853 339.135093 
L 355.402541 385.428734 
L 361.305505 401.034538 
L 366.801034 411.200108 
L 371.941758 418.083761 
L 376.770725 420.511062 
L 381.323597 378.230618 
L 385.630245 404.677255 
L 389.715939 412.498275 
L 393.602249 413.779633 
L 397.307735 411.989192 
L 400.848476 404.906416 
L 404.238502 371.365175 
L 407.490119 394.566595 
L 410.614189 407.459118 
L 413.620341 411.675734 
L 416.517154 409.735888 
L 419.312303 402.486521 
L 422.012683 378.439205 
L 424.624509 392.979209 
L 427.153406 412.779699 
L 429.604479 421.341382 
L 431.982374 421.992212 
L 434.291335 420.701077 
L 436.535246 405.910477 
L 438.717672 410.106876 
L 440.841893 442.969824 
L 442.910933 459.212522 
L 444.927587 469.608988 
L 446.894442 465.087439 
L 448.813898 443.029161 
L 450.688186 426.370219 
L 452.519383 461.804624 
L 454.309426 465.002877 
L 456.060125 479.866675 
L 457.773171 466.623442 
L 459.45015 473.13146 
L 461.09255 427.984594 
L 462.701768 458.271477 
L 464.279118 456.341967 
L 465.825838 455.551011 
L 467.343094 450.181412 
L 468.83199 445.462392 
L 470.293564 412.909923 
L 471.728802 443.944915 
L 473.138637 464.868217 
L 474.523951 474.761216 
L 475.885584 490.972601 
L 477.224331 486.238181 
L 478.540949 486.011594 
L 479.836157 468.677443 
L 481.110642 480.339922 
L 482.365055 472.942131 
L 483.600019 481.069142 
L 484.816127 486.266946 
L 486.013948 489.532434 
L 487.194022 441.4649 
L 488.356869 485.528734 
L 489.502983 487.099922 
L 490.63284 481.817754 
L 491.746894 481.042492 
L 492.845581 476.977025 
L 493.92932 479.727524 
L 494.998512 497.550036 
L 496.053541 480.894654 
L 497.094779 481.21568 
L 498.122582 490.004058 
L 499.137291 480.611535 
L 500.139235 483.335341 
L 501.128734 473.567829 
L 502.10609 480.065101 
L 503.0716 494.499397 
L 504.025546 473.379721 
L 504.968203 477.592686 
L 505.899834 480.00028 
L 506.820695 494.365229 
L 507.731032 474.885534 
L 508.631082 474.887149 
L 509.521075 473.653041 
L 510.401234 476.094998 
L 511.271773 480.160191 
L 512.132901 474.021647 
L 512.984819 463.800184 
L 513.827722 495.629842 
L 514.661799 490.262536 
L 515.487232 480.449306 
L 516.304198 482.624097 
L 517.112871 506.46095 
L 517.913416 477.803377 
L 518.705996 470.223045 
L 519.490766 480.464292 
L 520.26788 495.775317 
L 521.037486 478.384337 
L 521.799727 482.269972 
L 522.554743 481.93503 
L 523.302669 485.050592 
L 524.043638 477.811372 
L 524.777778 482.577816 
L 525.505212 489.86727 
L 526.226064 486.025427 
L 526.940451 488.194941 
L 527.648487 482.313147 
L 528.350285 481.638596 
L 529.045954 485.270035 
L 529.7356 482.07839 
L 530.419326 493.985993 
L 531.097232 479.903116 
L 531.769418 509.225756 
L 532.435979 484.234576 
L 533.097009 493.058469 
L 533.752597 491.300267 
L 534.402834 490.577309 
L 535.047806 505.448485 
L 535.687597 490.058094 
L 536.32229 487.355151 
L 536.951966 481.654837 
L 537.576703 479.084638 
L 538.196578 487.026949 
L 538.811667 488.029472 
L 539.422042 481.293604 
L 540.027776 496.10388 
L 540.628938 501.187297 
L 541.225596 487.359504 
L 541.817819 489.56718 
L 542.405671 481.580385 
L 542.989216 510.428839 
L 543.568517 481.478066 
L 544.143636 494.710523 
L 544.714632 485.738885 
L 545.281563 489.745567 
L 545.844488 484.847067 
L 546.403463 483.474839 
L 546.958543 482.99455 
L 547.509781 507.48953 
L 548.05723 506.355974 
L 548.600942 486.85982 
L 549.140969 486.377862 
L 549.677358 484.985672 
L 550.21016 507.297387 
L 550.739422 490.40612 
L 551.26519 491.081023 
L 551.78751 484.128707 
L 552.306428 504.33797 
L 552.821987 492.948647 
L 553.33423 543.445518 
L 553.8432 480.246116 
L 554.348939 478.27176 
L 554.851487 512.192209 
L 555.350884 481.88801 
L 555.847169 512.486897 
L 556.340382 492.916061 
L 556.830559 502.335106 
L 557.317739 479.331704 
L 558.283248 511.280818 
L 558.76165 498.734864 
L 559.237195 489.746357 
L 559.709918 488.848163 
L 560.179852 526.101063 
L 560.647029 488.067571 
L 561.573244 504.792808 
L 562.032344 503.06045 
L 562.488812 494.995819 
L 562.94268 490.780242 
L 563.393976 495.167038 
L 563.84273 491.944179 
L 564.28897 487.597393 
L 564.732723 502.94335 
L 565.174019 492.270879 
L 565.612882 487.780951 
L 566.049341 489.767108 
L 566.483422 493.833305 
L 566.91515 501.552827 
L 567.771648 494.488438 
L 568.196468 488.948618 
L 568.619034 493.363529 
L 569.457501 492.83926 
L 569.873447 499.546273 
L 570.287233 488.882784 
L 570.69888 493.060649 
L 571.108411 489.092952 
L 571.515847 483.049215 
L 571.921209 494.02144 
L 572.32452 486.385209 
L 572.725798 488.181905 
L 573.125065 489.191424 
L 573.52234 499.179225 
L 573.917644 491.902651 
L 574.310996 495.906455 
L 574.702415 488.998243 
L 575.091919 508.150296 
L 575.479529 516.949158 
L 575.865261 494.667026 
L 576.249135 493.940729 
L 576.631167 500.6272 
L 577.011376 499.501902 
L 577.389778 496.84841 
L 577.766391 497.083986 
L 578.141232 491.085129 
L 578.514318 495.469401 
L 578.885664 478.966689 
L 579.255287 508.622005 
L 579.623202 499.961306 
L 579.989426 495.306143 
L 580.353974 485.780914 
L 580.716861 495.236896 
L 581.078102 500.41427 
L 581.437713 488.778411 
L 581.795707 510.493412 
L 582.152099 486.668066 
L 582.506904 518.87181 
L 582.860136 495.667982 
L 583.211808 500.617183 
L 583.561934 496.823786 
L 583.910528 496.31197 
L 584.257603 492.557039 
L 584.603172 557.134898 
L 584.947248 500.245676 
L 585.289845 509.728342 
L 585.630974 495.809006 
L 585.970649 501.526749 
L 586.308881 502.010402 
L 586.645683 498.947173 
L 586.981067 498.62891 
L 587.315045 510.25766 
L 587.647628 489.099825 
L 587.978828 503.910005 
L 588.308657 485.572186 
L 588.637126 504.267952 
L 588.964246 477.888119 
L 589.290028 516.857978 
L 589.614483 495.728406 
L 589.937621 490.881255 
L 590.259454 489.58929 
L 590.579992 497.708683 
L 590.899246 491.920516 
L 591.217224 494.13349 
L 591.533939 513.092299 
L 591.849399 489.818782 
L 592.163614 515.075756 
L 592.476596 505.022151 
L 592.788352 483.165503 
L 593.098892 489.329768 
L 593.408227 487.929981 
L 593.716365 493.861577 
L 594.023315 493.534818 
L 594.329088 529.996868 
L 594.633691 496.392332 
L 594.937133 490.399496 
L 595.239424 494.447284 
L 595.540572 512.436891 
L 595.840586 484.591436 
L 596.139474 501.422127 
L 596.437245 492.488488 
L 596.733906 493.836447 
L 597.029467 494.229688 
L 597.323936 491.898908 
L 597.617319 531.520766 
L 597.909626 494.351457 
L 598.200864 493.546802 
L 598.491042 479.885168 
L 598.780166 493.487553 
L 599.068244 489.260035 
L 599.355284 494.034254 
L 599.641294 512.805592 
L 600.21025 486.912738 
L 600.493212 505.825 
L 600.775172 497.947722 
L 601.056137 496.647027 
L 601.336115 487.732825 
L 601.615112 500.974896 
L 601.893135 501.131312 
L 602.170191 491.715147 
L 602.721429 501.902465 
L 602.995624 511.474068 
L 603.268878 505.052843 
L 603.541199 493.397915 
L 603.812591 491.924345 
L 604.083062 513.421793 
L 604.621264 486.902755 
L 604.889007 497.915751 
L 605.155853 489.942195 
L 605.421809 510.224677 
L 605.686879 492.976908 
L 605.95107 490.604593 
L 606.214388 501.169762 
L 606.476838 494.133834 
L 606.738427 508.353583 
L 606.999159 497.46158 
L 607.25904 520.793747 
L 607.518076 500.147681 
L 607.776273 498.187542 
L 608.033635 491.655452 
L 608.290169 492.105084 
L 608.80077 537.462961 
L 609.054849 496.944996 
L 609.308119 484.586686 
L 609.560587 491.221756 
L 609.812258 489.289641 
L 610.063135 500.211048 
L 610.313225 492.748793 
L 610.562532 517.021871 
L 610.811062 490.889712 
L 611.058818 495.260835 
L 611.305806 506.390961 
L 611.55203 492.585608 
L 611.797496 512.838495 
L 612.042208 492.006409 
L 612.28617 503.241614 
L 612.529387 508.793771 
L 612.771864 482.547305 
L 613.254614 496.272116 
L 613.494897 486.612826 
L 613.734457 507.49925 
L 613.973298 484.155047 
L 614.211426 497.079964 
L 614.448843 483.149435 
L 614.685555 499.695379 
L 614.921566 487.314877 
L 615.15688 489.919978 
L 615.3915 497.529746 
L 615.625431 496.689603 
L 615.858678 497.595516 
L 616.091243 507.774018 
L 616.323131 477.519382 
L 616.554347 515.425003 
L 616.784892 485.807919 
L 617.014773 521.970065 
L 617.243992 498.683105 
L 617.472553 500.516425 
L 617.700461 504.887494 
L 617.927718 519.20061 
L 618.154329 488.221086 
L 618.380296 508.39521 
L 618.605625 514.075061 
L 618.830318 494.640918 
L 619.054379 502.082054 
L 619.277811 493.940225 
L 619.500618 494.396692 
L 619.722804 500.298719 
L 619.944372 483.104418 
L 620.165325 508.732575 
L 620.385667 508.032315 
L 620.605401 501.439864 
L 620.824531 478.630587 
L 621.043059 479.383033 
L 621.26099 483.241986 
L 621.69507 494.442678 
L 621.911227 493.811506 
L 622.126798 486.951588 
L 622.341787 509.122258 
L 622.556198 493.975125 
L 622.770034 495.432832 
L 623.195989 511.85894 
L 623.408116 511.156786 
L 623.61968 522.963114 
L 623.830683 497.812989 
L 624.041128 505.855226 
L 624.251019 521.435751 
L 624.460358 494.243952 
L 624.669149 522.457959 
L 625.085096 508.042679 
L 625.292257 511.226844 
L 625.498881 491.311702 
L 625.704971 488.584859 
L 626.115557 554.830301 
L 626.320059 482.751198 
L 626.524038 511.092992 
L 626.930435 480.536386 
L 627.132858 525.051167 
L 627.334768 500.303603 
L 627.536168 501.476356 
L 627.73706 494.507116 
L 627.937446 494.90886 
L 628.13733 526.954547 
L 628.336713 488.512861 
L 628.535599 506.127869 
L 628.733989 508.765961 
L 628.931886 509.807005 
L 629.129293 505.331809 
L 629.326211 510.869423 
L 629.522644 486.580944 
L 629.718594 490.741975 
L 629.914063 559.168695 
L 630.109054 506.536014 
L 630.303568 494.689134 
L 630.497608 508.493942 
L 630.691177 485.514556 
L 630.884277 507.480129 
L 631.07691 500.294591 
L 631.460783 496.995883 
L 631.652028 490.584412 
L 632.033146 505.997487 
L 632.223024 495.00059 
L 632.41245 534.501479 
L 632.601426 508.777175 
L 632.789956 507.298482 
L 632.97804 518.531518 
L 633.165681 489.74527 
L 633.352881 496.050958 
L 633.539642 486.148787 
L 633.725966 482.277863 
L 633.911856 537.680685 
L 634.097312 493.689786 
L 634.282338 498.777334 
L 634.466935 508.092481 
L 634.651105 485.879909 
L 634.83485 494.035013 
L 635.018173 491.112764 
L 635.201074 491.169712 
L 635.383557 513.816787 
L 635.565622 489.841851 
L 635.747272 489.728661 
L 635.928509 504.563324 
L 636.109335 503.954704 
L 636.289751 497.679907 
L 636.469759 507.226111 
L 636.649361 527.428975 
L 637.185751 481.270399 
L 637.363748 525.314694 
L 637.541348 488.791378 
L 637.718553 497.154206 
L 637.895364 482.606331 
L 638.071784 501.50354 
L 638.247814 500.000503 
L 638.423456 555.651044 
L 638.598712 509.583482 
L 638.773582 508.520856 
L 639.122176 489.205352 
L 639.295903 497.928221 
L 639.469251 513.257696 
L 639.642223 511.590093 
L 639.81482 501.62737 
L 639.987044 503.772727 
L 640.158897 535.571429 
L 640.330379 493.008213 
L 640.501493 488.931527 
L 640.67224 496.492858 
L 640.842622 525.602069 
L 641.012641 507.559594 
L 641.351593 494.889312 
L 641.520529 485.185384 
L 641.689108 486.087462 
L 642.0252 512.198034 
L 642.192715 496.601853 
L 642.359879 500.008233 
L 642.526693 483.220628 
L 642.693158 514.759066 
L 642.859276 518.513063 
L 643.190477 484.970049 
L 643.355562 487.265306 
L 643.520306 495.40602 
L 643.684709 487.934586 
L 643.848774 523.737377 
L 644.012502 496.617866 
L 644.175894 505.723754 
L 644.338952 491.263748 
L 644.501676 535.716667 
L 644.664069 491.158792 
L 644.826131 498.781115 
L 644.987864 487.775482 
L 645.14927 508.706891 
L 645.310349 494.468904 
L 645.471103 502.680386 
L 645.631533 496.832133 
L 645.791641 495.898807 
L 645.951427 533.998549 
L 646.270042 503.669084 
L 646.428873 496.723659 
L 646.587387 499.360385 
L 646.745587 494.823076 
L 646.903473 514.651184 
L 647.061047 514.62579 
L 647.21831 497.438763 
L 647.375263 505.449768 
L 647.531907 498.035648 
L 647.688244 499.508004 
L 647.844274 503.511238 
L 647.844274 503.511238 
" style="fill:none;stroke:#b22222;stroke-linecap:round;stroke-width:1.75;"/>
   </g>
   <g id="patch_6">
    <path d="M 90 512.64 
L 90 311.04 
" style="fill:none;stroke:#262626;stroke-linecap:square;stroke-linejoin:miter;stroke-width:1.25;"/>
   </g>
   <g id="patch_7">
    <path d="M 90 512.64 
L 648 512.64 
" style="fill:none;stroke:#262626;stroke-linecap:square;stroke-linejoin:miter;stroke-width:1.25;"/>
   </g>
  </g>
 </g>
 <defs>
  <clipPath id="p5bf0748615">
   <rect height="201.6" width="558" x="90" y="69.12"/>
  </clipPath>
  <clipPath id="pf9071a99ab">
   <rect height="201.6" width="558" x="90" y="311.04"/>
  </clipPath>
 </defs>
</svg>
