<?xml version="1.0" encoding="utf-8" standalone="no"?>
<!DOCTYPE svg PUBLIC "-//W3C//DTD SVG 1.1//EN"
  "http://www.w3.org/Graphics/SVG/1.1/DTD/svg11.dtd">
<!-- Created with matplotlib (http://matplotlib.org/) -->
<svg height="576pt" version="1.1" viewBox="0 0 720 576" width="720pt" xmlns="http://www.w3.org/2000/svg" xmlns:xlink="http://www.w3.org/1999/xlink">
 <defs>
  <style type="text/css">
*{stroke-linecap:butt;stroke-linejoin:round;}
  </style>
 </defs>
 <g id="figure_1">
  <g id="patch_1">
   <path d="M 0 576 
L 720 576 
L 720 0 
L 0 0 
z
" style="fill:#ffffff;"/>
  </g>
  <g id="axes_1">
   <g id="patch_2">
    <path d="M 90 270.72 
L 648 270.72 
L 648 69.12 
L 90 69.12 
z
" style="fill:#ffffff;"/>
   </g>
   <g id="matplotlib.axis_1">
    <g id="xtick_1">
     <g id="line2d_1">
      <defs>
       <path d="M 0 0 
L 0 6 
" id="md0ae47e3fc" style="stroke:#262626;"/>
      </defs>
      <g>
       <use style="fill:#262626;stroke:#262626;" x="90" xlink:href="#md0ae47e3fc" y="270.72"/>
      </g>
     </g>
     <g id="text_1">
      <!-- 0 -->
      <defs>
       <path d="M 4.15625 35.296875 
Q 4.15625 48 6.765625 55.734375 
Q 9.375 63.484375 14.515625 67.671875 
Q 19.671875 71.875 27.484375 71.875 
Q 33.25 71.875 37.59375 69.546875 
Q 41.9375 67.234375 44.765625 62.859375 
Q 47.609375 58.5 49.21875 52.21875 
Q 50.828125 45.953125 50.828125 35.296875 
Q 50.828125 22.703125 48.234375 14.96875 
Q 45.65625 7.234375 40.5 3 
Q 35.359375 -1.21875 27.484375 -1.21875 
Q 17.140625 -1.21875 11.234375 6.203125 
Q 4.15625 15.140625 4.15625 35.296875 
z
M 13.1875 35.296875 
Q 13.1875 17.671875 17.3125 11.828125 
Q 21.4375 6 27.484375 6 
Q 33.546875 6 37.671875 11.859375 
Q 41.796875 17.71875 41.796875 35.296875 
Q 41.796875 52.984375 37.671875 58.78125 
Q 33.546875 64.59375 27.390625 64.59375 
Q 21.34375 64.59375 17.71875 59.46875 
Q 13.1875 52.9375 13.1875 35.296875 
z
" id="ArialMT-30"/>
      </defs>
      <g style="fill:#262626;" transform="translate(87.219531 290.877812)scale(0.1 -0.1)">
       <use xlink:href="#ArialMT-30"/>
      </g>
     </g>
    </g>
    <g id="xtick_2">
     <g id="line2d_2">
      <g>
       <use style="fill:#262626;stroke:#262626;" x="198.984375" xlink:href="#md0ae47e3fc" y="270.72"/>
      </g>
     </g>
     <g id="text_2">
      <!-- 200 -->
      <defs>
       <path d="M 50.34375 8.453125 
L 50.34375 0 
L 3.03125 0 
Q 2.9375 3.171875 4.046875 6.109375 
Q 5.859375 10.9375 9.828125 15.625 
Q 13.8125 20.3125 21.34375 26.46875 
Q 33.015625 36.03125 37.109375 41.625 
Q 41.21875 47.21875 41.21875 52.203125 
Q 41.21875 57.421875 37.46875 61 
Q 33.734375 64.59375 27.734375 64.59375 
Q 21.390625 64.59375 17.578125 60.78125 
Q 13.765625 56.984375 13.71875 50.25 
L 4.6875 51.171875 
Q 5.609375 61.28125 11.65625 66.578125 
Q 17.71875 71.875 27.9375 71.875 
Q 38.234375 71.875 44.234375 66.15625 
Q 50.25 60.453125 50.25 52 
Q 50.25 47.703125 48.484375 43.546875 
Q 46.734375 39.40625 42.65625 34.8125 
Q 38.578125 30.21875 29.109375 22.21875 
Q 21.1875 15.578125 18.9375 13.203125 
Q 16.703125 10.84375 15.234375 8.453125 
z
" id="ArialMT-32"/>
      </defs>
      <g style="fill:#262626;" transform="translate(190.642969 290.877812)scale(0.1 -0.1)">
       <use xlink:href="#ArialMT-32"/>
       <use x="55.615234" xlink:href="#ArialMT-30"/>
       <use x="111.230469" xlink:href="#ArialMT-30"/>
      </g>
     </g>
    </g>
    <g id="xtick_3">
     <g id="line2d_3">
      <g>
       <use style="fill:#262626;stroke:#262626;" x="307.96875" xlink:href="#md0ae47e3fc" y="270.72"/>
      </g>
     </g>
     <g id="text_3">
      <!-- 400 -->
      <defs>
       <path d="M 32.328125 0 
L 32.328125 17.140625 
L 1.265625 17.140625 
L 1.265625 25.203125 
L 33.9375 71.578125 
L 41.109375 71.578125 
L 41.109375 25.203125 
L 50.78125 25.203125 
L 50.78125 17.140625 
L 41.109375 17.140625 
L 41.109375 0 
z
M 32.328125 25.203125 
L 32.328125 57.46875 
L 9.90625 25.203125 
z
" id="ArialMT-34"/>
      </defs>
      <g style="fill:#262626;" transform="translate(299.627344 290.877812)scale(0.1 -0.1)">
       <use xlink:href="#ArialMT-34"/>
       <use x="55.615234" xlink:href="#ArialMT-30"/>
       <use x="111.230469" xlink:href="#ArialMT-30"/>
      </g>
     </g>
    </g>
    <g id="xtick_4">
     <g id="line2d_4">
      <g>
       <use style="fill:#262626;stroke:#262626;" x="416.953125" xlink:href="#md0ae47e3fc" y="270.72"/>
      </g>
     </g>
     <g id="text_4">
      <!-- 600 -->
      <defs>
       <path d="M 49.75 54.046875 
L 41.015625 53.375 
Q 39.84375 58.546875 37.703125 60.890625 
Q 34.125 64.65625 28.90625 64.65625 
Q 24.703125 64.65625 21.53125 62.3125 
Q 17.390625 59.28125 14.984375 53.46875 
Q 12.59375 47.65625 12.5 36.921875 
Q 15.671875 41.75 20.265625 44.09375 
Q 24.859375 46.4375 29.890625 46.4375 
Q 38.671875 46.4375 44.84375 39.96875 
Q 51.03125 33.5 51.03125 23.25 
Q 51.03125 16.5 48.125 10.71875 
Q 45.21875 4.9375 40.140625 1.859375 
Q 35.0625 -1.21875 28.609375 -1.21875 
Q 17.625 -1.21875 10.6875 6.859375 
Q 3.765625 14.9375 3.765625 33.5 
Q 3.765625 54.25 11.421875 63.671875 
Q 18.109375 71.875 29.4375 71.875 
Q 37.890625 71.875 43.28125 67.140625 
Q 48.6875 62.40625 49.75 54.046875 
z
M 13.875 23.1875 
Q 13.875 18.65625 15.796875 14.5 
Q 17.71875 10.359375 21.1875 8.171875 
Q 24.65625 6 28.46875 6 
Q 34.03125 6 38.03125 10.484375 
Q 42.046875 14.984375 42.046875 22.703125 
Q 42.046875 30.125 38.078125 34.390625 
Q 34.125 38.671875 28.125 38.671875 
Q 22.171875 38.671875 18.015625 34.390625 
Q 13.875 30.125 13.875 23.1875 
z
" id="ArialMT-36"/>
      </defs>
      <g style="fill:#262626;" transform="translate(408.611719 290.877812)scale(0.1 -0.1)">
       <use xlink:href="#ArialMT-36"/>
       <use x="55.615234" xlink:href="#ArialMT-30"/>
       <use x="111.230469" xlink:href="#ArialMT-30"/>
      </g>
     </g>
    </g>
    <g id="xtick_5">
     <g id="line2d_5">
      <g>
       <use style="fill:#262626;stroke:#262626;" x="525.9375" xlink:href="#md0ae47e3fc" y="270.72"/>
      </g>
     </g>
     <g id="text_5">
      <!-- 800 -->
      <defs>
       <path d="M 17.671875 38.8125 
Q 12.203125 40.828125 9.5625 44.53125 
Q 6.9375 48.25 6.9375 53.421875 
Q 6.9375 61.234375 12.546875 66.546875 
Q 18.171875 71.875 27.484375 71.875 
Q 36.859375 71.875 42.578125 66.421875 
Q 48.296875 60.984375 48.296875 53.171875 
Q 48.296875 48.1875 45.671875 44.5 
Q 43.0625 40.828125 37.75 38.8125 
Q 44.34375 36.671875 47.78125 31.875 
Q 51.21875 27.09375 51.21875 20.453125 
Q 51.21875 11.28125 44.71875 5.03125 
Q 38.234375 -1.21875 27.640625 -1.21875 
Q 17.046875 -1.21875 10.546875 5.046875 
Q 4.046875 11.328125 4.046875 20.703125 
Q 4.046875 27.6875 7.59375 32.390625 
Q 11.140625 37.109375 17.671875 38.8125 
z
M 15.921875 53.71875 
Q 15.921875 48.640625 19.1875 45.40625 
Q 22.46875 42.1875 27.6875 42.1875 
Q 32.765625 42.1875 36.015625 45.375 
Q 39.265625 48.578125 39.265625 53.21875 
Q 39.265625 58.0625 35.90625 61.359375 
Q 32.5625 64.65625 27.59375 64.65625 
Q 22.5625 64.65625 19.234375 61.421875 
Q 15.921875 58.203125 15.921875 53.71875 
z
M 13.09375 20.65625 
Q 13.09375 16.890625 14.875 13.375 
Q 16.65625 9.859375 20.171875 7.921875 
Q 23.6875 6 27.734375 6 
Q 34.03125 6 38.125 10.046875 
Q 42.234375 14.109375 42.234375 20.359375 
Q 42.234375 26.703125 38.015625 30.859375 
Q 33.796875 35.015625 27.4375 35.015625 
Q 21.234375 35.015625 17.15625 30.90625 
Q 13.09375 26.8125 13.09375 20.65625 
z
" id="ArialMT-38"/>
      </defs>
      <g style="fill:#262626;" transform="translate(517.596094 290.877812)scale(0.1 -0.1)">
       <use xlink:href="#ArialMT-38"/>
       <use x="55.615234" xlink:href="#ArialMT-30"/>
       <use x="111.230469" xlink:href="#ArialMT-30"/>
      </g>
     </g>
    </g>
    <g id="xtick_6">
     <g id="line2d_6">
      <g>
       <use style="fill:#262626;stroke:#262626;" x="634.921875" xlink:href="#md0ae47e3fc" y="270.72"/>
      </g>
     </g>
     <g id="text_6">
      <!-- 1000 -->
      <defs>
       <path d="M 37.25 0 
L 28.46875 0 
L 28.46875 56 
Q 25.296875 52.984375 20.140625 49.953125 
Q 14.984375 46.921875 10.890625 45.40625 
L 10.890625 53.90625 
Q 18.265625 57.375 23.78125 62.296875 
Q 29.296875 67.234375 31.59375 71.875 
L 37.25 71.875 
z
" id="ArialMT-31"/>
      </defs>
      <g style="fill:#262626;" transform="translate(623.8 290.877812)scale(0.1 -0.1)">
       <use xlink:href="#ArialMT-31"/>
       <use x="55.615234" xlink:href="#ArialMT-30"/>
       <use x="111.230469" xlink:href="#ArialMT-30"/>
       <use x="166.845703" xlink:href="#ArialMT-30"/>
      </g>
     </g>
    </g>
   </g>
   <g id="matplotlib.axis_2">
    <g id="ytick_1">
     <g id="line2d_7">
      <defs>
       <path d="M 0 0 
L -6 0 
" id="m6b573ce3f6" style="stroke:#262626;"/>
      </defs>
      <g>
       <use style="fill:#262626;stroke:#262626;" x="90" xlink:href="#m6b573ce3f6" y="270.72"/>
      </g>
     </g>
     <g id="text_7">
      <!-- −0.6 -->
      <defs>
       <path d="M 52.828125 31.203125 
L 5.5625 31.203125 
L 5.5625 39.40625 
L 52.828125 39.40625 
z
" id="ArialMT-2212"/>
       <path d="M 9.078125 0 
L 9.078125 10.015625 
L 19.09375 10.015625 
L 19.09375 0 
z
" id="ArialMT-2e"/>
      </defs>
      <g style="fill:#262626;" transform="translate(57.259375 274.298906)scale(0.1 -0.1)">
       <use xlink:href="#ArialMT-2212"/>
       <use x="58.398438" xlink:href="#ArialMT-30"/>
       <use x="114.013672" xlink:href="#ArialMT-2e"/>
       <use x="141.796875" xlink:href="#ArialMT-36"/>
      </g>
     </g>
    </g>
    <g id="ytick_2">
     <g id="line2d_8">
      <g>
       <use style="fill:#262626;stroke:#262626;" x="90" xlink:href="#m6b573ce3f6" y="237.12"/>
      </g>
     </g>
     <g id="text_8">
      <!-- −0.4 -->
      <g style="fill:#262626;" transform="translate(57.259375 240.698906)scale(0.1 -0.1)">
       <use xlink:href="#ArialMT-2212"/>
       <use x="58.398438" xlink:href="#ArialMT-30"/>
       <use x="114.013672" xlink:href="#ArialMT-2e"/>
       <use x="141.796875" xlink:href="#ArialMT-34"/>
      </g>
     </g>
    </g>
    <g id="ytick_3">
     <g id="line2d_9">
      <g>
       <use style="fill:#262626;stroke:#262626;" x="90" xlink:href="#m6b573ce3f6" y="203.52"/>
      </g>
     </g>
     <g id="text_9">
      <!-- −0.2 -->
      <g style="fill:#262626;" transform="translate(57.259375 207.098906)scale(0.1 -0.1)">
       <use xlink:href="#ArialMT-2212"/>
       <use x="58.398438" xlink:href="#ArialMT-30"/>
       <use x="114.013672" xlink:href="#ArialMT-2e"/>
       <use x="141.796875" xlink:href="#ArialMT-32"/>
      </g>
     </g>
    </g>
    <g id="ytick_4">
     <g id="line2d_10">
      <g>
       <use style="fill:#262626;stroke:#262626;" x="90" xlink:href="#m6b573ce3f6" y="169.92"/>
      </g>
     </g>
     <g id="text_10">
      <!-- 0.0 -->
      <g style="fill:#262626;" transform="translate(63.1 173.498906)scale(0.1 -0.1)">
       <use xlink:href="#ArialMT-30"/>
       <use x="55.615234" xlink:href="#ArialMT-2e"/>
       <use x="83.398438" xlink:href="#ArialMT-30"/>
      </g>
     </g>
    </g>
    <g id="ytick_5">
     <g id="line2d_11">
      <g>
       <use style="fill:#262626;stroke:#262626;" x="90" xlink:href="#m6b573ce3f6" y="136.32"/>
      </g>
     </g>
     <g id="text_11">
      <!-- 0.2 -->
      <g style="fill:#262626;" transform="translate(63.1 139.898906)scale(0.1 -0.1)">
       <use xlink:href="#ArialMT-30"/>
       <use x="55.615234" xlink:href="#ArialMT-2e"/>
       <use x="83.398438" xlink:href="#ArialMT-32"/>
      </g>
     </g>
    </g>
    <g id="ytick_6">
     <g id="line2d_12">
      <g>
       <use style="fill:#262626;stroke:#262626;" x="90" xlink:href="#m6b573ce3f6" y="102.72"/>
      </g>
     </g>
     <g id="text_12">
      <!-- 0.4 -->
      <g style="fill:#262626;" transform="translate(63.1 106.298906)scale(0.1 -0.1)">
       <use xlink:href="#ArialMT-30"/>
       <use x="55.615234" xlink:href="#ArialMT-2e"/>
       <use x="83.398438" xlink:href="#ArialMT-34"/>
      </g>
     </g>
    </g>
    <g id="ytick_7">
     <g id="line2d_13">
      <g>
       <use style="fill:#262626;stroke:#262626;" x="90" xlink:href="#m6b573ce3f6" y="69.12"/>
      </g>
     </g>
     <g id="text_13">
      <!-- 0.6 -->
      <g style="fill:#262626;" transform="translate(63.1 72.698906)scale(0.1 -0.1)">
       <use xlink:href="#ArialMT-30"/>
       <use x="55.615234" xlink:href="#ArialMT-2e"/>
       <use x="83.398438" xlink:href="#ArialMT-36"/>
      </g>
     </g>
    </g>
   </g>
   <g id="line2d_14">
    <path clip-path="url(#p96e1b03b27)" d="M 90 147.699785 
L 91.089844 146.576982 
L 92.179688 145.484941 
L 94.359375 144.362139 
L 95.994141 144.09041 
L 96.539062 144.464678 
L 97.083984 144.608232 
L 98.173828 145.75667 
L 99.263672 147.935625 
L 100.353516 151.07332 
L 101.443359 154.94417 
L 103.078125 162.116777 
L 104.712891 170.109697 
L 106.347656 177.753984 
L 106.892578 180.179033 
L 107.982422 183.773027 
L 109.072266 186.961992 
L 110.707031 189.351152 
L 111.796875 189.745928 
L 112.341797 189.551104 
L 112.886719 189.033281 
L 113.976562 187.177324 
L 115.066406 184.516436 
L 117.791016 177.671953 
L 118.880859 175.626299 
L 119.970703 174.5804 
L 120.515625 174.498369 
L 121.605469 174.595781 
L 122.150391 175.021318 
L 122.695312 175.021318 
L 123.785156 175.713457 
L 124.330078 175.928789 
L 124.875 175.821123 
L 126.509766 175.831377 
L 127.054688 175.559648 
L 128.689453 174.201006 
L 129.234375 173.606279 
L 129.779297 172.816729 
L 130.324219 172.339922 
L 131.414062 170.437822 
L 131.958984 169.648271 
L 132.503906 168.387041 
L 133.048828 167.53084 
L 136.863281 157.98958 
L 137.408203 156.041338 
L 137.953125 155.169756 
L 138.498047 153.785479 
L 140.132812 151.180986 
L 141.222656 150.381182 
L 141.767578 150.129961 
L 142.3125 150.027422 
L 142.857422 150.360674 
L 143.402344 150.268389 
L 143.947266 150.41707 
L 144.492188 151.12459 
L 145.037109 151.473223 
L 145.582031 152.052568 
L 146.126953 152.898516 
L 148.306641 158.476641 
L 153.210938 175.559648 
L 154.300781 178.210283 
L 154.845703 179.230547 
L 155.390625 179.789385 
L 155.935547 180.143145 
L 156.480469 180.158525 
L 158.115234 179.045977 
L 160.294922 176.672197 
L 160.839844 176.441484 
L 161.929688 175.492998 
L 162.474609 175.549395 
L 163.019531 175.128984 
L 164.109375 174.69832 
L 165.744141 173.647295 
L 167.378906 172.104082 
L 167.923828 171.406816 
L 168.46875 170.965898 
L 169.013672 169.950762 
L 170.103516 169.325273 
L 171.193359 168.397295 
L 172.283203 167.264238 
L 172.828125 166.725908 
L 173.917969 165.172441 
L 175.552734 162.429521 
L 176.642578 160.1429 
L 177.732422 157.707598 
L 178.277344 156.702715 
L 178.822266 155.154375 
L 181.001953 151.380937 
L 182.091797 149.950518 
L 183.726562 148.156084 
L 184.816406 147.00252 
L 185.361328 146.546221 
L 185.90625 146.279619 
L 186.996094 145.464434 
L 188.085938 145.095293 
L 189.175781 145.654131 
L 189.720703 146.11043 
L 190.265625 146.812822 
L 191.900391 150.540117 
L 192.445312 152.119219 
L 194.080078 158.927812 
L 198.984375 181.163408 
L 200.619141 186.777422 
L 201.708984 189.361406 
L 202.253906 190.243242 
L 202.798828 190.827715 
L 203.888672 191.15584 
L 204.978516 190.207354 
L 206.068359 187.782305 
L 209.337891 180.153398 
L 210.427734 178.128252 
L 210.972656 177.74373 
L 211.517578 177.102861 
L 212.0625 177.02083 
L 212.607422 176.677324 
L 213.152344 176.851641 
L 214.242188 176.841387 
L 214.787109 177.005449 
L 215.332031 177.041338 
L 216.966797 177.436113 
L 217.511719 177.354082 
L 218.056641 177.477129 
L 218.601562 176.974687 
L 219.146484 177.061846 
L 220.236328 176.282549 
L 222.416016 173.883135 
L 223.505859 172.365557 
L 226.230469 166.361895 
L 226.775391 164.608477 
L 228.410156 160.281328 
L 228.955078 158.727861 
L 229.5 157.564043 
L 230.044922 155.938799 
L 231.679688 153.006182 
L 232.224609 152.334551 
L 232.769531 151.268145 
L 233.314453 150.945146 
L 233.859375 150.437578 
L 234.949219 149.883867 
L 235.494141 150.001787 
L 236.583984 150.524736 
L 237.128906 151.160479 
L 237.673828 151.606523 
L 238.763672 153.467607 
L 239.853516 156.174639 
L 240.943359 159.681475 
L 244.757812 173.795977 
L 245.847656 176.697832 
L 246.392578 177.753984 
L 247.482422 178.830645 
L 248.027344 179.066484 
L 249.662109 178.528154 
L 250.207031 177.943682 
L 251.296875 177.215654 
L 251.841797 177.036211 
L 252.386719 176.574785 
L 254.021484 175.862139 
L 256.201172 174.534258 
L 256.746094 173.780596 
L 258.380859 172.534746 
L 258.925781 171.873369 
L 260.560547 170.504473 
L 261.650391 170.007158 
L 262.195312 169.530352 
L 262.740234 169.335527 
L 264.375 167.838457 
L 266.009766 165.433916 
L 267.099609 163.490801 
L 267.644531 162.470537 
L 268.734375 159.989092 
L 269.824219 157.728105 
L 273.09375 151.980791 
L 275.273438 149.078936 
L 276.363281 147.710039 
L 276.908203 147.0179 
L 278.542969 145.510576 
L 280.177734 144.603105 
L 280.722656 144.721025 
L 281.267578 144.961992 
L 281.8125 145.541338 
L 282.902344 147.428057 
L 283.447266 149.007158 
L 283.992188 150.242754 
L 286.716797 161.260576 
L 291.621094 183.367998 
L 293.255859 188.628252 
L 293.800781 189.96126 
L 294.345703 190.796953 
L 294.890625 191.125078 
L 295.435547 191.22249 
L 295.980469 191.119951 
L 296.525391 190.648271 
L 297.615234 188.920488 
L 299.794922 183.865312 
L 301.429688 180.896807 
L 302.519531 179.451006 
L 303.064453 178.830645 
L 304.154297 178.33333 
L 305.244141 178.071855 
L 305.789062 178.394854 
L 306.333984 178.205156 
L 307.423828 178.497393 
L 308.513672 178.743486 
L 309.058594 178.558916 
L 309.603516 178.625566 
L 310.148438 178.538408 
L 310.693359 178.584551 
L 311.783203 178.174395 
L 312.328125 178.041094 
L 313.417969 177.307939 
L 314.507812 176.323564 
L 315.597656 174.400957 
L 317.777344 169.80208 
L 318.867188 166.848955 
L 322.136719 158.517656 
L 322.681641 157.681963 
L 323.226562 156.507891 
L 324.316406 154.739092 
L 324.861328 154.267412 
L 325.951172 152.847246 
L 326.496094 152.73958 
L 327.041016 152.308916 
L 327.585938 152.073076 
L 328.130859 152.2679 
L 328.675781 152.185869 
L 329.220703 152.80623 
L 330.310547 154.359697 
L 331.400391 157.035967 
L 331.945312 158.615068 
L 334.125 167.187334 
L 335.214844 171.827227 
L 336.304688 175.800615 
L 337.394531 178.717852 
L 338.484375 180.507158 
L 339.574219 181.327471 
L 340.119141 181.450518 
L 340.664062 181.291582 
L 341.208984 181.327471 
L 342.298828 180.809648 
L 342.84375 180.881426 
L 343.933594 180.281572 
L 344.478516 180.266191 
L 345.023438 179.774004 
L 345.568359 179.76375 
L 346.658203 178.984453 
L 347.748047 178.138506 
L 348.292969 177.461748 
L 349.927734 176.190264 
L 350.472656 175.851885 
L 351.5625 174.975176 
L 352.107422 174.903398 
L 352.652344 174.436846 
L 354.287109 173.97542 
L 354.832031 173.298662 
L 355.376953 172.96541 
L 356.466797 171.724687 
L 358.101562 169.458574 
L 358.646484 168.30501 
L 359.191406 167.525713 
L 359.736328 166.141436 
L 360.826172 164.111162 
L 361.916016 161.74251 
L 365.730469 155.323564 
L 368.455078 151.196367 
L 370.089844 148.586748 
L 370.634766 148.21248 
L 371.179688 147.525469 
L 372.814453 147.238359 
L 373.904297 148.31502 
L 374.994141 150.196611 
L 376.628906 154.790361 
L 377.173828 156.405352 
L 379.353516 165.398027 
L 383.167969 183.803789 
L 384.802734 189.622881 
L 385.892578 192.170977 
L 386.982422 193.001543 
L 388.072266 192.904131 
L 388.617188 192.391436 
L 389.162109 191.263506 
L 389.707031 190.80208 
L 392.431641 185.295732 
L 394.066406 182.598955 
L 394.611328 182.404131 
L 395.15625 181.860674 
L 395.701172 181.573564 
L 396.246094 181.517168 
L 396.791016 181.286455 
L 397.880859 181.132646 
L 398.425781 180.907061 
L 399.515625 181.219805 
L 400.060547 181.132646 
L 400.605469 181.163408 
L 401.150391 181.363359 
L 401.695312 181.399248 
L 403.330078 181.224932 
L 403.875 180.876299 
L 404.419922 180.742998 
L 406.054688 179.420244 
L 406.599609 178.615312 
L 407.144531 178.082109 
L 408.779297 174.457354 
L 409.324219 173.478105 
L 411.503906 167.592363 
L 413.683594 162.265459 
L 414.228516 161.409258 
L 414.773438 160.060869 
L 416.953125 156.307939 
L 418.042969 154.421221 
L 419.677734 152.995928 
L 420.222656 152.831865 
L 421.3125 153.508623 
L 421.857422 154.149492 
L 422.402344 155.328691 
L 424.037109 160.455645 
L 427.851562 175.313555 
L 428.396484 176.964434 
L 430.03125 180.425127 
L 431.121094 181.737627 
L 432.755859 182.496416 
L 433.300781 182.393877 
L 433.845703 182.634844 
L 434.390625 182.424639 
L 434.935547 182.342607 
L 435.480469 182.434893 
L 436.570312 181.742754 
L 437.115234 181.517168 
L 437.660156 180.881426 
L 438.205078 180.543047 
L 438.75 180.050859 
L 439.294922 179.22542 
L 439.839844 178.938311 
L 441.474609 177.482256 
L 442.019531 177.251543 
L 442.564453 176.651689 
L 443.109375 176.564531 
L 443.654297 176.277422 
L 444.199219 175.846758 
L 444.744141 175.898027 
L 445.289062 175.359697 
L 446.923828 174.662432 
L 448.013672 173.97542 
L 449.103516 172.750078 
L 449.648438 171.555498 
L 450.193359 170.904375 
L 454.552734 162.403887 
L 458.912109 154.954424 
L 461.636719 149.601885 
L 462.181641 149.227617 
L 462.726562 148.279131 
L 463.271484 147.802324 
L 464.361328 147.817705 
L 464.90625 147.966387 
L 465.996094 148.889238 
L 466.541016 149.69417 
L 468.175781 153.15999 
L 469.265625 156.600176 
L 470.900391 162.685869 
L 472.535156 170.6429 
L 474.714844 181.78377 
L 476.349609 187.905352 
L 477.439453 191.032793 
L 477.984375 191.714678 
L 478.529297 192.160723 
L 479.074219 192.432451 
L 479.619141 192.370928 
L 480.164062 192.196611 
L 480.708984 191.62752 
L 482.888672 187.895098 
L 483.433594 186.782549 
L 483.978516 186.203203 
L 484.523438 185.095781 
L 487.248047 181.753008 
L 487.792969 181.594072 
L 488.337891 181.163408 
L 488.882812 181.199297 
L 489.427734 181.0096 
L 489.972656 181.071123 
L 491.0625 180.696855 
L 491.607422 180.84041 
L 492.152344 180.707109 
L 492.697266 181.045488 
L 493.242188 181.12752 
L 493.787109 181.086504 
L 494.332031 181.183916 
L 495.966797 180.871172 
L 497.601562 179.625322 
L 498.146484 179.143389 
L 499.236328 177.32332 
L 499.78125 176.472246 
L 500.871094 174.103594 
L 504.140625 165.854326 
L 505.775391 162.183428 
L 506.865234 159.496904 
L 507.410156 158.466387 
L 507.955078 157.056475 
L 508.5 155.995195 
L 509.044922 154.621172 
L 510.679688 151.509111 
L 511.224609 150.801592 
L 511.769531 150.309404 
L 512.314453 150.53499 
L 512.859375 150.499102 
L 513.949219 151.873125 
L 514.494141 153.201006 
L 515.583984 156.718096 
L 516.673828 160.778643 
L 518.308594 167.418047 
L 519.398438 171.094072 
L 520.488281 174.165117 
L 522.667969 177.953936 
L 524.302734 179.440752 
L 524.847656 179.886797 
L 525.392578 180.020098 
L 526.482422 179.968828 
L 527.027344 179.984209 
L 527.572266 179.52791 
L 528.117188 179.266436 
L 528.662109 178.681963 
L 529.207031 178.358965 
L 530.296875 177.184893 
L 530.841797 176.795244 
L 531.386719 176.190264 
L 531.931641 175.887773 
L 533.021484 174.81624 
L 533.566406 174.32918 
L 535.201172 173.508867 
L 535.746094 173.355059 
L 536.835938 173.406328 
L 537.380859 173.1346 
L 537.925781 173.08333 
L 539.560547 171.914385 
L 541.740234 168.704912 
L 542.285156 167.787187 
L 542.830078 166.633623 
L 543.375 165.828691 
L 545.009766 162.732012 
L 545.554688 162.101396 
L 549.369141 155.477373 
L 550.458984 152.97542 
L 552.09375 149.084062 
L 552.638672 148.356035 
L 553.183594 147.115312 
L 554.273438 145.613115 
L 554.818359 145.04915 
L 555.363281 144.93123 
L 555.908203 144.321123 
L 556.453125 144.567217 
L 556.998047 144.439043 
L 558.087891 145.095293 
L 558.632812 145.807939 
L 559.177734 146.869219 
L 559.722656 147.653643 
L 561.902344 154.544268 
L 563.537109 162.009111 
L 566.806641 178.292314 
L 568.441406 184.567705 
L 570.076172 187.864336 
L 571.166016 188.459062 
L 571.710938 188.34627 
L 572.255859 187.910479 
L 572.800781 187.664385 
L 573.345703 187.04915 
L 574.980469 184.649736 
L 575.525391 183.521807 
L 576.070312 182.983477 
L 577.160156 181.373613 
L 579.339844 179.199785 
L 580.974609 178.487139 
L 581.519531 178.446123 
L 582.064453 178.205156 
L 582.609375 178.358965 
L 583.154297 178.282061 
L 584.789062 178.482012 
L 585.333984 178.56917 
L 586.423828 179.004961 
L 588.058594 178.80501 
L 589.148438 178.205156 
L 590.238281 176.78499 
L 592.962891 171.77083 
L 598.957031 158.071611 
L 600.591797 153.370195 
L 602.226562 149.678789 
L 603.316406 148.340654 
L 603.861328 148.033037 
L 604.40625 148.232988 
L 605.496094 149.596758 
L 606.041016 151.07332 
L 606.585938 152.124346 
L 610.945312 167.894854 
L 611.490234 169.44832 
L 612.035156 170.653154 
L 612.580078 172.329668 
L 614.214844 175.59041 
L 614.759766 176.651689 
L 615.304688 177.195146 
L 615.849609 177.923174 
L 616.394531 178.328203 
L 616.939453 178.497393 
L 618.029297 179.05623 
L 619.119141 178.851152 
L 620.208984 178.39998 
L 620.753906 178.087236 
L 621.84375 177.200273 
L 622.933594 175.887773 
L 623.478516 175.528887 
L 624.023438 174.949541 
L 625.113281 174.134355 
L 625.658203 173.898516 
L 626.203125 173.919023 
L 626.748047 173.657549 
L 627.292969 173.570391 
L 627.837891 173.719072 
L 628.382812 173.713945 
L 628.927734 173.355059 
L 629.472656 173.31917 
L 630.017578 172.826982 
L 630.5625 172.565508 
L 632.197266 170.704424 
L 633.832031 168.207598 
L 634.921875 166.531084 
L 635.466797 165.905596 
L 636.556641 164.264971 
L 637.646484 162.696123 
L 640.371094 157.379473 
L 640.916016 156.231035 
L 642.550781 152.278154 
L 644.185547 148.704668 
L 644.730469 147.894609 
L 645.275391 146.700029 
L 645.820312 145.833574 
L 646.365234 145.223467 
L 646.910156 144.285234 
L 647.455078 143.992998 
L 647.455078 143.992998 
" style="fill:none;stroke:#4c72b0;stroke-linecap:round;stroke-width:1.75;"/>
   </g>
   <g id="patch_3">
    <path d="M 90 270.72 
L 90 69.12 
" style="fill:none;stroke:#262626;stroke-linecap:square;stroke-linejoin:miter;stroke-width:1.25;"/>
   </g>
   <g id="patch_4">
    <path d="M 90 270.72 
L 648 270.72 
" style="fill:none;stroke:#262626;stroke-linecap:square;stroke-linejoin:miter;stroke-width:1.25;"/>
   </g>
  </g>
  <g id="axes_2">
   <g id="patch_5">
    <path d="M 90 512.64 
L 648 512.64 
L 648 311.04 
L 90 311.04 
z
" style="fill:#ffffff;"/>
   </g>
   <g id="matplotlib.axis_3">
    <g id="xtick_7">
     <g id="line2d_15">
      <g>
       <use style="fill:#262626;stroke:#262626;" x="218.197478" xlink:href="#md0ae47e3fc" y="512.64"/>
      </g>
     </g>
     <g id="text_14">
      <!-- $\mathdefault{10^{2}}$ -->
      <g style="fill:#262626;" transform="translate(210.347478 535.9525)scale(0.1 -0.1)">
       <use transform="translate(0 0.99375)" xlink:href="#ArialMT-31"/>
       <use transform="translate(55.615234 0.99375)" xlink:href="#ArialMT-30"/>
       <use transform="translate(112.972813 70.6875)scale(0.7)" xlink:href="#ArialMT-32"/>
      </g>
     </g>
    </g>
    <g id="xtick_8">
     <g id="line2d_16">
      <g>
       <use style="fill:#262626;stroke:#262626;" x="401.606604" xlink:href="#md0ae47e3fc" y="512.64"/>
      </g>
     </g>
     <g id="text_15">
      <!-- $\mathdefault{10^{3}}$ -->
      <defs>
       <path d="M 4.203125 18.890625 
L 12.984375 20.0625 
Q 14.5 12.59375 18.140625 9.296875 
Q 21.78125 6 27 6 
Q 33.203125 6 37.46875 10.296875 
Q 41.75 14.59375 41.75 20.953125 
Q 41.75 27 37.796875 30.921875 
Q 33.84375 34.859375 27.734375 34.859375 
Q 25.25 34.859375 21.53125 33.890625 
L 22.515625 41.609375 
Q 23.390625 41.5 23.921875 41.5 
Q 29.546875 41.5 34.03125 44.421875 
Q 38.53125 47.359375 38.53125 53.46875 
Q 38.53125 58.296875 35.25 61.46875 
Q 31.984375 64.65625 26.8125 64.65625 
Q 21.6875 64.65625 18.265625 61.421875 
Q 14.84375 58.203125 13.875 51.765625 
L 5.078125 53.328125 
Q 6.6875 62.15625 12.390625 67.015625 
Q 18.109375 71.875 26.609375 71.875 
Q 32.46875 71.875 37.390625 69.359375 
Q 42.328125 66.84375 44.9375 62.5 
Q 47.5625 58.15625 47.5625 53.265625 
Q 47.5625 48.640625 45.0625 44.828125 
Q 42.578125 41.015625 37.703125 38.765625 
Q 44.046875 37.3125 47.5625 32.6875 
Q 51.078125 28.078125 51.078125 21.140625 
Q 51.078125 11.765625 44.234375 5.25 
Q 37.40625 -1.265625 26.953125 -1.265625 
Q 17.53125 -1.265625 11.296875 4.34375 
Q 5.078125 9.96875 4.203125 18.890625 
z
" id="ArialMT-33"/>
      </defs>
      <g style="fill:#262626;" transform="translate(393.756604 535.9525)scale(0.1 -0.1)">
       <use transform="translate(0 0.99375)" xlink:href="#ArialMT-31"/>
       <use transform="translate(55.615234 0.99375)" xlink:href="#ArialMT-30"/>
       <use transform="translate(112.972813 70.6875)scale(0.7)" xlink:href="#ArialMT-33"/>
      </g>
     </g>
    </g>
    <g id="xtick_9">
     <g id="line2d_17">
      <g>
       <use style="fill:#262626;stroke:#262626;" x="585.01573" xlink:href="#md0ae47e3fc" y="512.64"/>
      </g>
     </g>
     <g id="text_16">
      <!-- $\mathdefault{10^{4}}$ -->
      <g style="fill:#262626;" transform="translate(577.16573 535.8525)scale(0.1 -0.1)">
       <use transform="translate(0 0.201563)" xlink:href="#ArialMT-31"/>
       <use transform="translate(55.615234 0.201563)" xlink:href="#ArialMT-30"/>
       <use transform="translate(112.972813 69.895313)scale(0.7)" xlink:href="#ArialMT-34"/>
      </g>
     </g>
    </g>
    <g id="xtick_10">
     <g id="line2d_18">
      <defs>
       <path d="M 0 0 
L 0 3 
" id="mbb92ed8d52" style="stroke:#262626;stroke-width:0.5;"/>
      </defs>
      <g>
       <use style="fill:#262626;stroke:#262626;stroke-width:0.5;" x="90" xlink:href="#mbb92ed8d52" y="512.64"/>
      </g>
     </g>
    </g>
    <g id="xtick_11">
     <g id="line2d_19">
      <g>
       <use style="fill:#262626;stroke:#262626;stroke-width:0.5;" x="122.296744" xlink:href="#mbb92ed8d52" y="512.64"/>
      </g>
     </g>
    </g>
    <g id="xtick_12">
     <g id="line2d_20">
      <g>
       <use style="fill:#262626;stroke:#262626;stroke-width:0.5;" x="145.211648" xlink:href="#mbb92ed8d52" y="512.64"/>
      </g>
     </g>
    </g>
    <g id="xtick_13">
     <g id="line2d_21">
      <g>
       <use style="fill:#262626;stroke:#262626;stroke-width:0.5;" x="162.985829" xlink:href="#mbb92ed8d52" y="512.64"/>
      </g>
     </g>
    </g>
    <g id="xtick_14">
     <g id="line2d_22">
      <g>
       <use style="fill:#262626;stroke:#262626;stroke-width:0.5;" x="177.508392" xlink:href="#mbb92ed8d52" y="512.64"/>
      </g>
     </g>
    </g>
    <g id="xtick_15">
     <g id="line2d_23">
      <g>
       <use style="fill:#262626;stroke:#262626;stroke-width:0.5;" x="189.787045" xlink:href="#mbb92ed8d52" y="512.64"/>
      </g>
     </g>
    </g>
    <g id="xtick_16">
     <g id="line2d_24">
      <g>
       <use style="fill:#262626;stroke:#262626;stroke-width:0.5;" x="200.423297" xlink:href="#mbb92ed8d52" y="512.64"/>
      </g>
     </g>
    </g>
    <g id="xtick_17">
     <g id="line2d_25">
      <g>
       <use style="fill:#262626;stroke:#262626;stroke-width:0.5;" x="209.805136" xlink:href="#mbb92ed8d52" y="512.64"/>
      </g>
     </g>
    </g>
    <g id="xtick_18">
     <g id="line2d_26">
      <g>
       <use style="fill:#262626;stroke:#262626;stroke-width:0.5;" x="273.409126" xlink:href="#mbb92ed8d52" y="512.64"/>
      </g>
     </g>
    </g>
    <g id="xtick_19">
     <g id="line2d_27">
      <g>
       <use style="fill:#262626;stroke:#262626;stroke-width:0.5;" x="305.70587" xlink:href="#mbb92ed8d52" y="512.64"/>
      </g>
     </g>
    </g>
    <g id="xtick_20">
     <g id="line2d_28">
      <g>
       <use style="fill:#262626;stroke:#262626;stroke-width:0.5;" x="328.620775" xlink:href="#mbb92ed8d52" y="512.64"/>
      </g>
     </g>
    </g>
    <g id="xtick_21">
     <g id="line2d_29">
      <g>
       <use style="fill:#262626;stroke:#262626;stroke-width:0.5;" x="346.394955" xlink:href="#mbb92ed8d52" y="512.64"/>
      </g>
     </g>
    </g>
    <g id="xtick_22">
     <g id="line2d_30">
      <g>
       <use style="fill:#262626;stroke:#262626;stroke-width:0.5;" x="360.917518" xlink:href="#mbb92ed8d52" y="512.64"/>
      </g>
     </g>
    </g>
    <g id="xtick_23">
     <g id="line2d_31">
      <g>
       <use style="fill:#262626;stroke:#262626;stroke-width:0.5;" x="373.196171" xlink:href="#mbb92ed8d52" y="512.64"/>
      </g>
     </g>
    </g>
    <g id="xtick_24">
     <g id="line2d_32">
      <g>
       <use style="fill:#262626;stroke:#262626;stroke-width:0.5;" x="383.832423" xlink:href="#mbb92ed8d52" y="512.64"/>
      </g>
     </g>
    </g>
    <g id="xtick_25">
     <g id="line2d_33">
      <g>
       <use style="fill:#262626;stroke:#262626;stroke-width:0.5;" x="393.214262" xlink:href="#mbb92ed8d52" y="512.64"/>
      </g>
     </g>
    </g>
    <g id="xtick_26">
     <g id="line2d_34">
      <g>
       <use style="fill:#262626;stroke:#262626;stroke-width:0.5;" x="456.818252" xlink:href="#mbb92ed8d52" y="512.64"/>
      </g>
     </g>
    </g>
    <g id="xtick_27">
     <g id="line2d_35">
      <g>
       <use style="fill:#262626;stroke:#262626;stroke-width:0.5;" x="489.114996" xlink:href="#mbb92ed8d52" y="512.64"/>
      </g>
     </g>
    </g>
    <g id="xtick_28">
     <g id="line2d_36">
      <g>
       <use style="fill:#262626;stroke:#262626;stroke-width:0.5;" x="512.029901" xlink:href="#mbb92ed8d52" y="512.64"/>
      </g>
     </g>
    </g>
    <g id="xtick_29">
     <g id="line2d_37">
      <g>
       <use style="fill:#262626;stroke:#262626;stroke-width:0.5;" x="529.804081" xlink:href="#mbb92ed8d52" y="512.64"/>
      </g>
     </g>
    </g>
    <g id="xtick_30">
     <g id="line2d_38">
      <g>
       <use style="fill:#262626;stroke:#262626;stroke-width:0.5;" x="544.326645" xlink:href="#mbb92ed8d52" y="512.64"/>
      </g>
     </g>
    </g>
    <g id="xtick_31">
     <g id="line2d_39">
      <g>
       <use style="fill:#262626;stroke:#262626;stroke-width:0.5;" x="556.605297" xlink:href="#mbb92ed8d52" y="512.64"/>
      </g>
     </g>
    </g>
    <g id="xtick_32">
     <g id="line2d_40">
      <g>
       <use style="fill:#262626;stroke:#262626;stroke-width:0.5;" x="567.241549" xlink:href="#mbb92ed8d52" y="512.64"/>
      </g>
     </g>
    </g>
    <g id="xtick_33">
     <g id="line2d_41">
      <g>
       <use style="fill:#262626;stroke:#262626;stroke-width:0.5;" x="576.623389" xlink:href="#mbb92ed8d52" y="512.64"/>
      </g>
     </g>
    </g>
    <g id="xtick_34">
     <g id="line2d_42">
      <g>
       <use style="fill:#262626;stroke:#262626;stroke-width:0.5;" x="640.227378" xlink:href="#mbb92ed8d52" y="512.64"/>
      </g>
     </g>
    </g>
   </g>
   <g id="matplotlib.axis_4">
    <g id="ytick_8">
     <g id="line2d_43">
      <g>
       <use style="fill:#262626;stroke:#262626;" x="90" xlink:href="#m6b573ce3f6" y="512.64"/>
      </g>
     </g>
     <g id="text_17">
      <!-- $\mathdefault{10^{-5}}$ -->
      <defs>
       <path d="M 4.15625 18.75 
L 13.375 19.53125 
Q 14.40625 12.796875 18.140625 9.390625 
Q 21.875 6 27.15625 6 
Q 33.5 6 37.890625 10.78125 
Q 42.28125 15.578125 42.28125 23.484375 
Q 42.28125 31 38.0625 35.34375 
Q 33.84375 39.703125 27 39.703125 
Q 22.75 39.703125 19.328125 37.765625 
Q 15.921875 35.84375 13.96875 32.765625 
L 5.71875 33.84375 
L 12.640625 70.609375 
L 48.25 70.609375 
L 48.25 62.203125 
L 19.671875 62.203125 
L 15.828125 42.96875 
Q 22.265625 47.46875 29.34375 47.46875 
Q 38.71875 47.46875 45.15625 40.96875 
Q 51.609375 34.46875 51.609375 24.265625 
Q 51.609375 14.546875 45.953125 7.46875 
Q 39.0625 -1.21875 27.15625 -1.21875 
Q 17.390625 -1.21875 11.203125 4.25 
Q 5.03125 9.71875 4.15625 18.75 
z
" id="ArialMT-35"/>
      </defs>
      <g style="fill:#262626;" transform="translate(57.2 517.74625)scale(0.1 -0.1)">
       <use transform="translate(0 0.879688)" xlink:href="#ArialMT-31"/>
       <use transform="translate(55.615234 0.879688)" xlink:href="#ArialMT-30"/>
       <use transform="translate(112.972813 70.573438)scale(0.7)" xlink:href="#ArialMT-2212"/>
       <use transform="translate(153.851719 70.573438)scale(0.7)" xlink:href="#ArialMT-35"/>
      </g>
     </g>
    </g>
    <g id="ytick_9">
     <g id="line2d_44">
      <g>
       <use style="fill:#262626;stroke:#262626;" x="90" xlink:href="#m6b573ce3f6" y="465.767507"/>
      </g>
     </g>
     <g id="text_18">
      <!-- $\mathdefault{10^{-4}}$ -->
      <g style="fill:#262626;" transform="translate(57.2 470.873757)scale(0.1 -0.1)">
       <use transform="translate(0 0.201563)" xlink:href="#ArialMT-31"/>
       <use transform="translate(55.615234 0.201563)" xlink:href="#ArialMT-30"/>
       <use transform="translate(112.972813 69.895313)scale(0.7)" xlink:href="#ArialMT-2212"/>
       <use transform="translate(153.851719 69.895313)scale(0.7)" xlink:href="#ArialMT-34"/>
      </g>
     </g>
    </g>
    <g id="ytick_10">
     <g id="line2d_45">
      <g>
       <use style="fill:#262626;stroke:#262626;" x="90" xlink:href="#m6b573ce3f6" y="418.895013"/>
      </g>
     </g>
     <g id="text_19">
      <!-- $\mathdefault{10^{-3}}$ -->
      <g style="fill:#262626;" transform="translate(57.2 424.051263)scale(0.1 -0.1)">
       <use transform="translate(0 0.99375)" xlink:href="#ArialMT-31"/>
       <use transform="translate(55.615234 0.99375)" xlink:href="#ArialMT-30"/>
       <use transform="translate(112.972813 70.6875)scale(0.7)" xlink:href="#ArialMT-2212"/>
       <use transform="translate(153.851719 70.6875)scale(0.7)" xlink:href="#ArialMT-33"/>
      </g>
     </g>
    </g>
    <g id="ytick_11">
     <g id="line2d_46">
      <g>
       <use style="fill:#262626;stroke:#262626;" x="90" xlink:href="#m6b573ce3f6" y="372.02252"/>
      </g>
     </g>
     <g id="text_20">
      <!-- $\mathdefault{10^{-2}}$ -->
      <g style="fill:#262626;" transform="translate(57.2 377.17877)scale(0.1 -0.1)">
       <use transform="translate(0 0.99375)" xlink:href="#ArialMT-31"/>
       <use transform="translate(55.615234 0.99375)" xlink:href="#ArialMT-30"/>
       <use transform="translate(112.972813 70.6875)scale(0.7)" xlink:href="#ArialMT-2212"/>
       <use transform="translate(153.851719 70.6875)scale(0.7)" xlink:href="#ArialMT-32"/>
      </g>
     </g>
    </g>
    <g id="ytick_12">
     <g id="line2d_47">
      <g>
       <use style="fill:#262626;stroke:#262626;" x="90" xlink:href="#m6b573ce3f6" y="325.150026"/>
      </g>
     </g>
     <g id="text_21">
      <!-- $\mathdefault{10^{-1}}$ -->
      <g style="fill:#262626;" transform="translate(57.2 330.306276)scale(0.1 -0.1)">
       <use transform="translate(0 0.99375)" xlink:href="#ArialMT-31"/>
       <use transform="translate(55.615234 0.99375)" xlink:href="#ArialMT-30"/>
       <use transform="translate(112.972813 70.6875)scale(0.7)" xlink:href="#ArialMT-2212"/>
       <use transform="translate(153.851719 70.6875)scale(0.7)" xlink:href="#ArialMT-31"/>
      </g>
     </g>
    </g>
    <g id="ytick_13">
     <g id="line2d_48">
      <defs>
       <path d="M 0 0 
L -3 0 
" id="m10ab474bf1" style="stroke:#262626;stroke-width:0.5;"/>
      </defs>
      <g>
       <use style="fill:#262626;stroke:#262626;stroke-width:0.5;" x="90" xlink:href="#m10ab474bf1" y="498.529974"/>
      </g>
     </g>
    </g>
    <g id="ytick_14">
     <g id="line2d_49">
      <g>
       <use style="fill:#262626;stroke:#262626;stroke-width:0.5;" x="90" xlink:href="#m10ab474bf1" y="490.276137"/>
      </g>
     </g>
    </g>
    <g id="ytick_15">
     <g id="line2d_50">
      <g>
       <use style="fill:#262626;stroke:#262626;stroke-width:0.5;" x="90" xlink:href="#m10ab474bf1" y="484.419947"/>
      </g>
     </g>
    </g>
    <g id="ytick_16">
     <g id="line2d_51">
      <g>
       <use style="fill:#262626;stroke:#262626;stroke-width:0.5;" x="90" xlink:href="#m10ab474bf1" y="479.877533"/>
      </g>
     </g>
    </g>
    <g id="ytick_17">
     <g id="line2d_52">
      <g>
       <use style="fill:#262626;stroke:#262626;stroke-width:0.5;" x="90" xlink:href="#m10ab474bf1" y="476.166111"/>
      </g>
     </g>
    </g>
    <g id="ytick_18">
     <g id="line2d_53">
      <g>
       <use style="fill:#262626;stroke:#262626;stroke-width:0.5;" x="90" xlink:href="#m10ab474bf1" y="473.028148"/>
      </g>
     </g>
    </g>
    <g id="ytick_19">
     <g id="line2d_54">
      <g>
       <use style="fill:#262626;stroke:#262626;stroke-width:0.5;" x="90" xlink:href="#m10ab474bf1" y="470.309921"/>
      </g>
     </g>
    </g>
    <g id="ytick_20">
     <g id="line2d_55">
      <g>
       <use style="fill:#262626;stroke:#262626;stroke-width:0.5;" x="90" xlink:href="#m10ab474bf1" y="467.912274"/>
      </g>
     </g>
    </g>
    <g id="ytick_21">
     <g id="line2d_56">
      <g>
       <use style="fill:#262626;stroke:#262626;stroke-width:0.5;" x="90" xlink:href="#m10ab474bf1" y="451.65748"/>
      </g>
     </g>
    </g>
    <g id="ytick_22">
     <g id="line2d_57">
      <g>
       <use style="fill:#262626;stroke:#262626;stroke-width:0.5;" x="90" xlink:href="#m10ab474bf1" y="443.403644"/>
      </g>
     </g>
    </g>
    <g id="ytick_23">
     <g id="line2d_58">
      <g>
       <use style="fill:#262626;stroke:#262626;stroke-width:0.5;" x="90" xlink:href="#m10ab474bf1" y="437.547454"/>
      </g>
     </g>
    </g>
    <g id="ytick_24">
     <g id="line2d_59">
      <g>
       <use style="fill:#262626;stroke:#262626;stroke-width:0.5;" x="90" xlink:href="#m10ab474bf1" y="433.00504"/>
      </g>
     </g>
    </g>
    <g id="ytick_25">
     <g id="line2d_60">
      <g>
       <use style="fill:#262626;stroke:#262626;stroke-width:0.5;" x="90" xlink:href="#m10ab474bf1" y="429.293617"/>
      </g>
     </g>
    </g>
    <g id="ytick_26">
     <g id="line2d_61">
      <g>
       <use style="fill:#262626;stroke:#262626;stroke-width:0.5;" x="90" xlink:href="#m10ab474bf1" y="426.155654"/>
      </g>
     </g>
    </g>
    <g id="ytick_27">
     <g id="line2d_62">
      <g>
       <use style="fill:#262626;stroke:#262626;stroke-width:0.5;" x="90" xlink:href="#m10ab474bf1" y="423.437427"/>
      </g>
     </g>
    </g>
    <g id="ytick_28">
     <g id="line2d_63">
      <g>
       <use style="fill:#262626;stroke:#262626;stroke-width:0.5;" x="90" xlink:href="#m10ab474bf1" y="421.039781"/>
      </g>
     </g>
    </g>
    <g id="ytick_29">
     <g id="line2d_64">
      <g>
       <use style="fill:#262626;stroke:#262626;stroke-width:0.5;" x="90" xlink:href="#m10ab474bf1" y="404.784987"/>
      </g>
     </g>
    </g>
    <g id="ytick_30">
     <g id="line2d_65">
      <g>
       <use style="fill:#262626;stroke:#262626;stroke-width:0.5;" x="90" xlink:href="#m10ab474bf1" y="396.53115"/>
      </g>
     </g>
    </g>
    <g id="ytick_31">
     <g id="line2d_66">
      <g>
       <use style="fill:#262626;stroke:#262626;stroke-width:0.5;" x="90" xlink:href="#m10ab474bf1" y="390.67496"/>
      </g>
     </g>
    </g>
    <g id="ytick_32">
     <g id="line2d_67">
      <g>
       <use style="fill:#262626;stroke:#262626;stroke-width:0.5;" x="90" xlink:href="#m10ab474bf1" y="386.132546"/>
      </g>
     </g>
    </g>
    <g id="ytick_33">
     <g id="line2d_68">
      <g>
       <use style="fill:#262626;stroke:#262626;stroke-width:0.5;" x="90" xlink:href="#m10ab474bf1" y="382.421124"/>
      </g>
     </g>
    </g>
    <g id="ytick_34">
     <g id="line2d_69">
      <g>
       <use style="fill:#262626;stroke:#262626;stroke-width:0.5;" x="90" xlink:href="#m10ab474bf1" y="379.283161"/>
      </g>
     </g>
    </g>
    <g id="ytick_35">
     <g id="line2d_70">
      <g>
       <use style="fill:#262626;stroke:#262626;stroke-width:0.5;" x="90" xlink:href="#m10ab474bf1" y="376.564934"/>
      </g>
     </g>
    </g>
    <g id="ytick_36">
     <g id="line2d_71">
      <g>
       <use style="fill:#262626;stroke:#262626;stroke-width:0.5;" x="90" xlink:href="#m10ab474bf1" y="374.167288"/>
      </g>
     </g>
    </g>
    <g id="ytick_37">
     <g id="line2d_72">
      <g>
       <use style="fill:#262626;stroke:#262626;stroke-width:0.5;" x="90" xlink:href="#m10ab474bf1" y="357.912493"/>
      </g>
     </g>
    </g>
    <g id="ytick_38">
     <g id="line2d_73">
      <g>
       <use style="fill:#262626;stroke:#262626;stroke-width:0.5;" x="90" xlink:href="#m10ab474bf1" y="349.658657"/>
      </g>
     </g>
    </g>
    <g id="ytick_39">
     <g id="line2d_74">
      <g>
       <use style="fill:#262626;stroke:#262626;stroke-width:0.5;" x="90" xlink:href="#m10ab474bf1" y="343.802467"/>
      </g>
     </g>
    </g>
    <g id="ytick_40">
     <g id="line2d_75">
      <g>
       <use style="fill:#262626;stroke:#262626;stroke-width:0.5;" x="90" xlink:href="#m10ab474bf1" y="339.260053"/>
      </g>
     </g>
    </g>
    <g id="ytick_41">
     <g id="line2d_76">
      <g>
       <use style="fill:#262626;stroke:#262626;stroke-width:0.5;" x="90" xlink:href="#m10ab474bf1" y="335.548631"/>
      </g>
     </g>
    </g>
    <g id="ytick_42">
     <g id="line2d_77">
      <g>
       <use style="fill:#262626;stroke:#262626;stroke-width:0.5;" x="90" xlink:href="#m10ab474bf1" y="332.410668"/>
      </g>
     </g>
    </g>
    <g id="ytick_43">
     <g id="line2d_78">
      <g>
       <use style="fill:#262626;stroke:#262626;stroke-width:0.5;" x="90" xlink:href="#m10ab474bf1" y="329.69244"/>
      </g>
     </g>
    </g>
    <g id="ytick_44">
     <g id="line2d_79">
      <g>
       <use style="fill:#262626;stroke:#262626;stroke-width:0.5;" x="90" xlink:href="#m10ab474bf1" y="327.294794"/>
      </g>
     </g>
    </g>
    <g id="ytick_45">
     <g id="line2d_80">
      <g>
       <use style="fill:#262626;stroke:#262626;stroke-width:0.5;" x="90" xlink:href="#m10ab474bf1" y="311.04"/>
      </g>
     </g>
    </g>
   </g>
   <g id="line2d_81">
    <path clip-path="url(#p4c597a0f92)" d="M -1 377.975789 
L 151.095164 377.976953 
L 206.306812 408.162284 
L 238.603556 412.550975 
L 261.518461 405.624971 
L 279.292642 413.900851 
L 293.815205 362.035132 
L 306.093857 412.574971 
L 316.730109 410.581153 
L 326.111949 408.995952 
L 334.50429 401.338669 
L 342.096086 390.298642 
L 349.026853 340.79257 
L 355.402541 390.203277 
L 361.305505 407.474888 
L 366.801034 418.988864 
L 371.941758 427.540543 
L 376.770725 459.040088 
L 381.323597 387.953125 
L 385.630245 407.129525 
L 389.715939 413.105473 
L 393.602249 412.50194 
L 397.307735 406.750062 
L 400.848476 395.107348 
L 404.238502 361.081179 
L 407.490119 383.71984 
L 410.614189 399.115635 
L 413.620341 406.956359 
L 416.517154 410.25575 
L 419.312303 410.896747 
L 422.012683 393.459901 
L 424.624509 419.165729 
L 427.153406 429.263542 
L 429.604479 428.584296 
L 431.982374 424.55771 
L 434.291335 418.656643 
L 436.535246 397.741262 
L 438.717672 400.271084 
L 440.841893 422.866989 
L 442.910933 431.708218 
L 444.927587 437.481577 
L 446.894442 438.876732 
L 448.813898 430.34073 
L 450.688186 430.097977 
L 452.519383 462.05847 
L 454.309426 457.57609 
L 456.060125 458.02039 
L 457.773171 460.513942 
L 459.45015 453.249521 
L 461.09255 433.657649 
L 462.701768 456.385012 
L 464.279118 461.739308 
L 465.825838 452.32803 
L 467.343094 447.937275 
L 468.83199 441.021623 
L 470.293564 409.296495 
L 471.728802 444.496957 
L 474.523951 480.836786 
L 475.885584 474.918238 
L 477.224331 473.426557 
L 478.540949 459.033371 
L 479.836157 484.972226 
L 481.110642 513.134132 
L 482.365055 477.430456 
L 483.600019 467.07994 
L 484.816127 480.752713 
L 486.013948 471.865758 
L 487.194022 445.19311 
L 488.356869 483.903301 
L 489.502983 484.813858 
L 490.63284 480.289882 
L 491.746894 480.669613 
L 492.845581 490.243617 
L 493.92932 468.282862 
L 494.998512 463.129668 
L 496.053541 475.055717 
L 497.094779 472.891814 
L 498.122582 483.024533 
L 499.137291 473.340455 
L 500.139235 475.866272 
L 501.128734 468.112325 
L 502.10609 484.392773 
L 503.0716 484.608756 
L 504.025546 473.435665 
L 504.968203 476.062024 
L 505.899834 473.553884 
L 506.820695 478.361791 
L 507.731032 488.874873 
L 509.521075 475.202194 
L 510.401234 484.232227 
L 511.271773 495.491013 
L 512.132901 504.643131 
L 512.984819 496.060968 
L 513.827722 470.136203 
L 514.661799 476.852941 
L 515.487232 478.169109 
L 516.304198 479.769363 
L 517.112871 480.779296 
L 517.913416 478.786016 
L 518.705996 491.04155 
L 519.490766 474.874841 
L 521.037486 483.509791 
L 521.799727 478.149099 
L 522.554743 478.267471 
L 523.302669 487.553131 
L 524.043638 475.307402 
L 524.777778 487.090808 
L 525.505212 478.516893 
L 526.226064 484.679514 
L 526.940451 488.053202 
L 527.648487 484.359493 
L 528.350285 495.396077 
L 529.045954 487.779665 
L 529.7356 481.710394 
L 530.419326 488.49623 
L 531.097232 476.906434 
L 531.769418 474.92687 
L 532.435979 484.219226 
L 533.097009 490.791811 
L 533.752597 483.491571 
L 534.402834 489.725133 
L 535.047806 482.419098 
L 535.687597 487.504338 
L 536.32229 495.14254 
L 536.951966 477.098973 
L 537.576703 487.560855 
L 538.196578 481.985865 
L 538.811667 480.61927 
L 539.422042 479.807127 
L 540.027776 502.506652 
L 540.628938 474.094131 
L 541.817819 494.2055 
L 542.405671 492.220121 
L 542.989216 484.428104 
L 543.568517 500.99623 
L 544.143636 481.658936 
L 544.714632 480.774258 
L 545.281563 495.83062 
L 545.844488 485.134137 
L 546.403463 487.273431 
L 546.958543 483.636028 
L 547.509781 487.238567 
L 548.05723 478.731654 
L 549.140969 492.659421 
L 549.677358 510.824096 
L 550.21016 489.224668 
L 550.739422 486.6052 
L 551.26519 492.571245 
L 551.78751 488.748149 
L 552.306428 486.343004 
L 552.821987 501.605492 
L 553.33423 486.159743 
L 553.8432 487.143345 
L 554.348939 508.036906 
L 554.851487 484.78183 
L 555.350884 491.726368 
L 555.847169 487.08495 
L 556.340382 503.646583 
L 556.830559 491.485644 
L 557.317739 482.860688 
L 557.801956 489.657667 
L 558.283248 489.004404 
L 558.76165 493.116525 
L 559.237195 491.417508 
L 559.709918 483.396589 
L 560.179852 478.516903 
L 560.647029 490.897714 
L 561.111483 485.035343 
L 561.573244 488.144038 
L 562.032344 521.180885 
L 562.488812 494.158944 
L 562.94268 486.866548 
L 563.393976 491.32048 
L 563.84273 519.702645 
L 564.28897 483.76476 
L 564.732723 477.562849 
L 565.174019 480.919605 
L 565.612882 483.151183 
L 566.049341 508.288762 
L 566.483422 513.96207 
L 566.91515 502.898382 
L 567.34455 485.523071 
L 567.771648 490.29638 
L 568.196468 516.055998 
L 568.619034 487.172501 
L 569.039371 489.201483 
L 569.457501 513.695845 
L 569.873447 497.570939 
L 570.69888 492.407167 
L 571.108411 509.898501 
L 571.515847 494.982188 
L 571.921209 484.769057 
L 572.32452 496.746346 
L 572.725798 497.49794 
L 573.125065 490.18474 
L 573.52234 502.856453 
L 573.917644 489.495471 
L 574.310996 490.510314 
L 574.702415 505.370503 
L 575.091919 491.222472 
L 575.479529 487.648207 
L 575.865261 503.073488 
L 576.249135 491.905984 
L 576.631167 488.696068 
L 577.011376 488.991589 
L 577.389778 516.420964 
L 577.766391 505.588781 
L 578.141232 498.989698 
L 578.514318 506.31727 
L 578.885664 486.386873 
L 579.255287 482.721857 
L 579.623202 492.277808 
L 579.989426 492.927378 
L 580.353974 500.87718 
L 580.716861 525.145436 
L 581.078102 497.323338 
L 581.437713 483.455753 
L 581.795707 492.142092 
L 582.152099 548.900781 
L 582.506904 491.085529 
L 582.860136 494.164723 
L 583.211808 487.200198 
L 583.561934 495.354724 
L 583.910528 492.324799 
L 584.257603 508.400663 
L 584.603172 491.429704 
L 584.947248 486.62087 
L 585.289845 505.020733 
L 585.630974 495.640861 
L 585.970649 492.856098 
L 586.308881 484.816451 
L 586.645683 505.817893 
L 586.981067 487.920162 
L 587.315045 519.712289 
L 587.647628 509.240338 
L 587.978828 507.421364 
L 588.308657 531.194215 
L 588.637126 487.846278 
L 588.964246 488.843619 
L 589.290028 502.551672 
L 589.614483 490.403202 
L 589.937621 509.404409 
L 590.259454 493.870077 
L 590.579992 485.475701 
L 590.899246 502.807852 
L 591.217224 507.755701 
L 591.533939 500.97499 
L 591.849399 483.954348 
L 592.163614 524.335675 
L 592.476596 496.584296 
L 592.788352 491.772051 
L 593.098892 500.99034 
L 593.408227 487.521221 
L 593.716365 518.487757 
L 594.023315 514.038766 
L 594.329088 526.152326 
L 594.633691 487.813504 
L 594.937133 496.756661 
L 595.239424 486.074361 
L 595.540572 510.601731 
L 596.139474 489.680551 
L 596.437245 497.047885 
L 596.733906 491.383187 
L 597.029467 503.652895 
L 597.323936 494.564117 
L 597.617319 510.330357 
L 597.909626 492.630244 
L 598.200864 514.75532 
L 598.491042 502.496149 
L 598.780166 483.952183 
L 599.068244 488.885012 
L 599.355284 507.983928 
L 599.641294 493.546023 
L 599.92628 500.440852 
L 600.21025 512.44164 
L 600.493212 506.402943 
L 600.775172 488.296591 
L 601.056137 507.790688 
L 601.336115 493.059418 
L 601.615112 507.302096 
L 601.893135 487.978094 
L 602.170191 497.172356 
L 602.446287 492.493903 
L 602.721429 515.898971 
L 602.995624 507.998405 
L 603.268878 512.190009 
L 603.812591 488.504732 
L 604.083062 519.434962 
L 604.621264 486.837501 
L 604.889007 486.116139 
L 605.155853 481.749582 
L 605.421809 487.559964 
L 605.95107 510.720812 
L 606.214388 499.296483 
L 606.476838 505.751849 
L 606.738427 488.186427 
L 606.999159 501.929155 
L 607.25904 494.409935 
L 607.518076 525.158815 
L 607.776273 491.984559 
L 608.033635 508.939147 
L 608.290169 509.190254 
L 608.545879 512.429089 
L 609.308119 488.765272 
L 609.560587 504.884222 
L 609.812258 505.260542 
L 610.063135 490.048076 
L 610.313225 491.682142 
L 610.562532 490.837257 
L 610.811062 487.890949 
L 611.058818 488.148058 
L 611.305806 502.116898 
L 611.55203 488.851323 
L 611.797496 493.7891 
L 612.042208 483.881075 
L 612.28617 503.736444 
L 612.529387 484.656 
L 612.771864 497.535504 
L 613.013605 488.07444 
L 613.254614 504.825173 
L 613.734457 490.177381 
L 613.973298 495.238396 
L 614.211426 491.139074 
L 614.448843 491.675211 
L 614.685555 495.070752 
L 614.921566 510.127067 
L 615.15688 543.205567 
L 615.3915 495.30522 
L 615.625431 495.758616 
L 615.858678 491.636726 
L 616.091243 499.951456 
L 616.323131 485.527508 
L 616.554347 492.130241 
L 616.784892 487.401729 
L 617.014773 531.761777 
L 617.472553 477.34851 
L 617.700461 493.94449 
L 617.927718 531.186501 
L 618.154329 515.418933 
L 618.380296 550.095202 
L 618.605625 504.770132 
L 618.830318 495.219145 
L 619.054379 502.13901 
L 619.277811 480.840179 
L 619.500618 490.822509 
L 619.722804 514.896642 
L 619.944372 482.929623 
L 620.165325 496.752273 
L 620.605401 484.782781 
L 620.824531 495.964523 
L 621.043059 515.83816 
L 621.26099 513.610647 
L 621.478326 519.271629 
L 621.69507 487.142884 
L 621.911227 495.33631 
L 622.126798 489.39537 
L 622.341787 490.285443 
L 622.770034 495.38584 
L 622.983296 501.840935 
L 623.195989 516.9314 
L 623.408116 517.380403 
L 623.61968 493.508163 
L 623.830683 493.422431 
L 624.041128 491.420401 
L 624.251019 491.044488 
L 624.460358 500.500181 
L 624.669149 504.503054 
L 624.877394 526.392572 
L 625.085096 486.400755 
L 625.292257 486.882898 
L 625.498881 488.428573 
L 625.704971 492.33355 
L 625.910528 514.336519 
L 626.115557 505.080376 
L 626.320059 529.633676 
L 626.727495 495.6353 
L 626.930435 506.97351 
L 627.132858 500.663215 
L 627.334768 505.116429 
L 627.536168 489.275569 
L 627.73706 507.856075 
L 627.937446 505.596601 
L 628.13733 488.458227 
L 628.336713 507.866872 
L 628.535599 495.263299 
L 628.733989 498.980031 
L 628.931886 546.92583 
L 629.129293 503.627995 
L 629.326211 501.451445 
L 629.522644 487.887899 
L 629.718594 504.949961 
L 629.914063 503.27784 
L 630.109054 515.293324 
L 630.303568 491.360729 
L 630.497608 507.503061 
L 630.691177 493.371531 
L 630.884277 503.201081 
L 631.07691 491.100381 
L 631.269078 487.311342 
L 631.460783 505.850722 
L 631.652028 495.095466 
L 631.842815 515.201703 
L 632.223024 488.554862 
L 632.41245 490.50896 
L 632.601426 549.211554 
L 632.789956 511.66669 
L 633.165681 492.209625 
L 633.352881 502.712162 
L 633.539642 490.664113 
L 633.725966 489.935622 
L 633.911856 482.197291 
L 634.097312 519.139739 
L 634.282338 489.281282 
L 634.466935 488.1549 
L 634.651105 504.673516 
L 634.83485 499.990924 
L 635.018173 518.177061 
L 635.201074 507.182456 
L 635.383557 518.995701 
L 635.747272 488.072518 
L 636.109335 510.591284 
L 636.289751 490.230156 
L 636.469759 501.960294 
L 636.649361 487.576399 
L 637.007355 513.474433 
L 637.185751 491.102045 
L 637.363748 526.618173 
L 637.541348 502.267445 
L 637.718553 515.982205 
L 638.071784 480.31949 
L 638.247814 485.502055 
L 638.423456 508.064175 
L 638.598712 496.708072 
L 638.773582 473.043142 
L 638.94807 536.44996 
L 639.122176 541.871738 
L 639.295903 501.147463 
L 639.469251 519.547221 
L 639.642223 496.022794 
L 639.81482 537.876609 
L 639.987044 489.732909 
L 640.158897 520.05539 
L 640.330379 498.459539 
L 640.501493 528.675391 
L 640.67224 494.341198 
L 640.842622 483.073972 
L 641.012641 517.460752 
L 641.182297 491.280428 
L 641.351593 484.374111 
L 641.689108 532.130246 
L 641.857331 518.695832 
L 642.0252 481.183771 
L 642.192715 492.310778 
L 642.359879 495.454791 
L 642.526693 492.134088 
L 642.693158 499.099174 
L 642.859276 495.361095 
L 643.025049 525.68287 
L 643.190477 505.910244 
L 643.355562 509.715682 
L 643.684709 492.342073 
L 643.848774 506.633253 
L 644.012502 485.111647 
L 644.175894 500.20779 
L 644.338952 496.411053 
L 644.501676 500.260037 
L 644.664069 493.354587 
L 644.826131 498.954665 
L 644.987864 494.418233 
L 645.14927 494.890218 
L 645.310349 511.281188 
L 645.471103 499.847872 
L 645.631533 541.474444 
L 645.791641 503.404191 
L 645.951427 498.152247 
L 646.110894 501.64747 
L 646.270042 496.303688 
L 646.587387 506.705631 
L 646.745587 488.059768 
L 646.903473 494.301782 
L 647.061047 511.144367 
L 647.21831 510.046414 
L 647.375263 506.4836 
L 647.531907 515.582791 
L 647.688244 498.946594 
L 647.844274 495.871943 
L 647.844274 495.871943 
" style="fill:none;stroke:#b22222;stroke-linecap:round;stroke-width:1.75;"/>
   </g>
   <g id="patch_6">
    <path d="M 90 512.64 
L 90 311.04 
" style="fill:none;stroke:#262626;stroke-linecap:square;stroke-linejoin:miter;stroke-width:1.25;"/>
   </g>
   <g id="patch_7">
    <path d="M 90 512.64 
L 648 512.64 
" style="fill:none;stroke:#262626;stroke-linecap:square;stroke-linejoin:miter;stroke-width:1.25;"/>
   </g>
  </g>
 </g>
 <defs>
  <clipPath id="p96e1b03b27">
   <rect height="201.6" width="558" x="90" y="69.12"/>
  </clipPath>
  <clipPath id="p4c597a0f92">
   <rect height="201.6" width="558" x="90" y="311.04"/>
  </clipPath>
 </defs>
</svg>
