<?xml version="1.0" encoding="utf-8" standalone="no"?>
<!DOCTYPE svg PUBLIC "-//W3C//DTD SVG 1.1//EN"
  "http://www.w3.org/Graphics/SVG/1.1/DTD/svg11.dtd">
<!-- Created with matplotlib (http://matplotlib.org/) -->
<svg height="576pt" version="1.1" viewBox="0 0 720 576" width="720pt" xmlns="http://www.w3.org/2000/svg" xmlns:xlink="http://www.w3.org/1999/xlink">
 <defs>
  <style type="text/css">
*{stroke-linecap:butt;stroke-linejoin:round;}
  </style>
 </defs>
 <g id="figure_1">
  <g id="patch_1">
   <path d="M 0 576 
L 720 576 
L 720 0 
L 0 0 
z
" style="fill:#ffffff;"/>
  </g>
  <g id="axes_1">
   <g id="patch_2">
    <path d="M 90 270.72 
L 648 270.72 
L 648 69.12 
L 90 69.12 
z
" style="fill:#ffffff;"/>
   </g>
   <g id="matplotlib.axis_1">
    <g id="xtick_1">
     <g id="line2d_1">
      <defs>
       <path d="M 0 0 
L 0 6 
" id="md31958be1a" style="stroke:#262626;"/>
      </defs>
      <g>
       <use style="fill:#262626;stroke:#262626;" x="90" xlink:href="#md31958be1a" y="270.72"/>
      </g>
     </g>
     <g id="text_1">
      <!-- 0 -->
      <defs>
       <path d="M 4.15625 35.296875 
Q 4.15625 48 6.765625 55.734375 
Q 9.375 63.484375 14.515625 67.671875 
Q 19.671875 71.875 27.484375 71.875 
Q 33.25 71.875 37.59375 69.546875 
Q 41.9375 67.234375 44.765625 62.859375 
Q 47.609375 58.5 49.21875 52.21875 
Q 50.828125 45.953125 50.828125 35.296875 
Q 50.828125 22.703125 48.234375 14.96875 
Q 45.65625 7.234375 40.5 3 
Q 35.359375 -1.21875 27.484375 -1.21875 
Q 17.140625 -1.21875 11.234375 6.203125 
Q 4.15625 15.140625 4.15625 35.296875 
z
M 13.1875 35.296875 
Q 13.1875 17.671875 17.3125 11.828125 
Q 21.4375 6 27.484375 6 
Q 33.546875 6 37.671875 11.859375 
Q 41.796875 17.71875 41.796875 35.296875 
Q 41.796875 52.984375 37.671875 58.78125 
Q 33.546875 64.59375 27.390625 64.59375 
Q 21.34375 64.59375 17.71875 59.46875 
Q 13.1875 52.9375 13.1875 35.296875 
z
" id="ArialMT-30"/>
      </defs>
      <g style="fill:#262626;" transform="translate(87.219531 290.877812)scale(0.1 -0.1)">
       <use xlink:href="#ArialMT-30"/>
      </g>
     </g>
    </g>
    <g id="xtick_2">
     <g id="line2d_2">
      <g>
       <use style="fill:#262626;stroke:#262626;" x="198.984375" xlink:href="#md31958be1a" y="270.72"/>
      </g>
     </g>
     <g id="text_2">
      <!-- 200 -->
      <defs>
       <path d="M 50.34375 8.453125 
L 50.34375 0 
L 3.03125 0 
Q 2.9375 3.171875 4.046875 6.109375 
Q 5.859375 10.9375 9.828125 15.625 
Q 13.8125 20.3125 21.34375 26.46875 
Q 33.015625 36.03125 37.109375 41.625 
Q 41.21875 47.21875 41.21875 52.203125 
Q 41.21875 57.421875 37.46875 61 
Q 33.734375 64.59375 27.734375 64.59375 
Q 21.390625 64.59375 17.578125 60.78125 
Q 13.765625 56.984375 13.71875 50.25 
L 4.6875 51.171875 
Q 5.609375 61.28125 11.65625 66.578125 
Q 17.71875 71.875 27.9375 71.875 
Q 38.234375 71.875 44.234375 66.15625 
Q 50.25 60.453125 50.25 52 
Q 50.25 47.703125 48.484375 43.546875 
Q 46.734375 39.40625 42.65625 34.8125 
Q 38.578125 30.21875 29.109375 22.21875 
Q 21.1875 15.578125 18.9375 13.203125 
Q 16.703125 10.84375 15.234375 8.453125 
z
" id="ArialMT-32"/>
      </defs>
      <g style="fill:#262626;" transform="translate(190.642969 290.877812)scale(0.1 -0.1)">
       <use xlink:href="#ArialMT-32"/>
       <use x="55.615234" xlink:href="#ArialMT-30"/>
       <use x="111.230469" xlink:href="#ArialMT-30"/>
      </g>
     </g>
    </g>
    <g id="xtick_3">
     <g id="line2d_3">
      <g>
       <use style="fill:#262626;stroke:#262626;" x="307.96875" xlink:href="#md31958be1a" y="270.72"/>
      </g>
     </g>
     <g id="text_3">
      <!-- 400 -->
      <defs>
       <path d="M 32.328125 0 
L 32.328125 17.140625 
L 1.265625 17.140625 
L 1.265625 25.203125 
L 33.9375 71.578125 
L 41.109375 71.578125 
L 41.109375 25.203125 
L 50.78125 25.203125 
L 50.78125 17.140625 
L 41.109375 17.140625 
L 41.109375 0 
z
M 32.328125 25.203125 
L 32.328125 57.46875 
L 9.90625 25.203125 
z
" id="ArialMT-34"/>
      </defs>
      <g style="fill:#262626;" transform="translate(299.627344 290.877812)scale(0.1 -0.1)">
       <use xlink:href="#ArialMT-34"/>
       <use x="55.615234" xlink:href="#ArialMT-30"/>
       <use x="111.230469" xlink:href="#ArialMT-30"/>
      </g>
     </g>
    </g>
    <g id="xtick_4">
     <g id="line2d_4">
      <g>
       <use style="fill:#262626;stroke:#262626;" x="416.953125" xlink:href="#md31958be1a" y="270.72"/>
      </g>
     </g>
     <g id="text_4">
      <!-- 600 -->
      <defs>
       <path d="M 49.75 54.046875 
L 41.015625 53.375 
Q 39.84375 58.546875 37.703125 60.890625 
Q 34.125 64.65625 28.90625 64.65625 
Q 24.703125 64.65625 21.53125 62.3125 
Q 17.390625 59.28125 14.984375 53.46875 
Q 12.59375 47.65625 12.5 36.921875 
Q 15.671875 41.75 20.265625 44.09375 
Q 24.859375 46.4375 29.890625 46.4375 
Q 38.671875 46.4375 44.84375 39.96875 
Q 51.03125 33.5 51.03125 23.25 
Q 51.03125 16.5 48.125 10.71875 
Q 45.21875 4.9375 40.140625 1.859375 
Q 35.0625 -1.21875 28.609375 -1.21875 
Q 17.625 -1.21875 10.6875 6.859375 
Q 3.765625 14.9375 3.765625 33.5 
Q 3.765625 54.25 11.421875 63.671875 
Q 18.109375 71.875 29.4375 71.875 
Q 37.890625 71.875 43.28125 67.140625 
Q 48.6875 62.40625 49.75 54.046875 
z
M 13.875 23.1875 
Q 13.875 18.65625 15.796875 14.5 
Q 17.71875 10.359375 21.1875 8.171875 
Q 24.65625 6 28.46875 6 
Q 34.03125 6 38.03125 10.484375 
Q 42.046875 14.984375 42.046875 22.703125 
Q 42.046875 30.125 38.078125 34.390625 
Q 34.125 38.671875 28.125 38.671875 
Q 22.171875 38.671875 18.015625 34.390625 
Q 13.875 30.125 13.875 23.1875 
z
" id="ArialMT-36"/>
      </defs>
      <g style="fill:#262626;" transform="translate(408.611719 290.877812)scale(0.1 -0.1)">
       <use xlink:href="#ArialMT-36"/>
       <use x="55.615234" xlink:href="#ArialMT-30"/>
       <use x="111.230469" xlink:href="#ArialMT-30"/>
      </g>
     </g>
    </g>
    <g id="xtick_5">
     <g id="line2d_5">
      <g>
       <use style="fill:#262626;stroke:#262626;" x="525.9375" xlink:href="#md31958be1a" y="270.72"/>
      </g>
     </g>
     <g id="text_5">
      <!-- 800 -->
      <defs>
       <path d="M 17.671875 38.8125 
Q 12.203125 40.828125 9.5625 44.53125 
Q 6.9375 48.25 6.9375 53.421875 
Q 6.9375 61.234375 12.546875 66.546875 
Q 18.171875 71.875 27.484375 71.875 
Q 36.859375 71.875 42.578125 66.421875 
Q 48.296875 60.984375 48.296875 53.171875 
Q 48.296875 48.1875 45.671875 44.5 
Q 43.0625 40.828125 37.75 38.8125 
Q 44.34375 36.671875 47.78125 31.875 
Q 51.21875 27.09375 51.21875 20.453125 
Q 51.21875 11.28125 44.71875 5.03125 
Q 38.234375 -1.21875 27.640625 -1.21875 
Q 17.046875 -1.21875 10.546875 5.046875 
Q 4.046875 11.328125 4.046875 20.703125 
Q 4.046875 27.6875 7.59375 32.390625 
Q 11.140625 37.109375 17.671875 38.8125 
z
M 15.921875 53.71875 
Q 15.921875 48.640625 19.1875 45.40625 
Q 22.46875 42.1875 27.6875 42.1875 
Q 32.765625 42.1875 36.015625 45.375 
Q 39.265625 48.578125 39.265625 53.21875 
Q 39.265625 58.0625 35.90625 61.359375 
Q 32.5625 64.65625 27.59375 64.65625 
Q 22.5625 64.65625 19.234375 61.421875 
Q 15.921875 58.203125 15.921875 53.71875 
z
M 13.09375 20.65625 
Q 13.09375 16.890625 14.875 13.375 
Q 16.65625 9.859375 20.171875 7.921875 
Q 23.6875 6 27.734375 6 
Q 34.03125 6 38.125 10.046875 
Q 42.234375 14.109375 42.234375 20.359375 
Q 42.234375 26.703125 38.015625 30.859375 
Q 33.796875 35.015625 27.4375 35.015625 
Q 21.234375 35.015625 17.15625 30.90625 
Q 13.09375 26.8125 13.09375 20.65625 
z
" id="ArialMT-38"/>
      </defs>
      <g style="fill:#262626;" transform="translate(517.596094 290.877812)scale(0.1 -0.1)">
       <use xlink:href="#ArialMT-38"/>
       <use x="55.615234" xlink:href="#ArialMT-30"/>
       <use x="111.230469" xlink:href="#ArialMT-30"/>
      </g>
     </g>
    </g>
    <g id="xtick_6">
     <g id="line2d_6">
      <g>
       <use style="fill:#262626;stroke:#262626;" x="634.921875" xlink:href="#md31958be1a" y="270.72"/>
      </g>
     </g>
     <g id="text_6">
      <!-- 1000 -->
      <defs>
       <path d="M 37.25 0 
L 28.46875 0 
L 28.46875 56 
Q 25.296875 52.984375 20.140625 49.953125 
Q 14.984375 46.921875 10.890625 45.40625 
L 10.890625 53.90625 
Q 18.265625 57.375 23.78125 62.296875 
Q 29.296875 67.234375 31.59375 71.875 
L 37.25 71.875 
z
" id="ArialMT-31"/>
      </defs>
      <g style="fill:#262626;" transform="translate(623.8 290.877812)scale(0.1 -0.1)">
       <use xlink:href="#ArialMT-31"/>
       <use x="55.615234" xlink:href="#ArialMT-30"/>
       <use x="111.230469" xlink:href="#ArialMT-30"/>
       <use x="166.845703" xlink:href="#ArialMT-30"/>
      </g>
     </g>
    </g>
   </g>
   <g id="matplotlib.axis_2">
    <g id="ytick_1">
     <g id="line2d_7">
      <defs>
       <path d="M 0 0 
L -6 0 
" id="m2d684460da" style="stroke:#262626;"/>
      </defs>
      <g>
       <use style="fill:#262626;stroke:#262626;" x="90" xlink:href="#m2d684460da" y="270.72"/>
      </g>
     </g>
     <g id="text_7">
      <!-- −0.6 -->
      <defs>
       <path d="M 52.828125 31.203125 
L 5.5625 31.203125 
L 5.5625 39.40625 
L 52.828125 39.40625 
z
" id="ArialMT-2212"/>
       <path d="M 9.078125 0 
L 9.078125 10.015625 
L 19.09375 10.015625 
L 19.09375 0 
z
" id="ArialMT-2e"/>
      </defs>
      <g style="fill:#262626;" transform="translate(57.259375 274.298906)scale(0.1 -0.1)">
       <use xlink:href="#ArialMT-2212"/>
       <use x="58.398438" xlink:href="#ArialMT-30"/>
       <use x="114.013672" xlink:href="#ArialMT-2e"/>
       <use x="141.796875" xlink:href="#ArialMT-36"/>
      </g>
     </g>
    </g>
    <g id="ytick_2">
     <g id="line2d_8">
      <g>
       <use style="fill:#262626;stroke:#262626;" x="90" xlink:href="#m2d684460da" y="237.12"/>
      </g>
     </g>
     <g id="text_8">
      <!-- −0.4 -->
      <g style="fill:#262626;" transform="translate(57.259375 240.698906)scale(0.1 -0.1)">
       <use xlink:href="#ArialMT-2212"/>
       <use x="58.398438" xlink:href="#ArialMT-30"/>
       <use x="114.013672" xlink:href="#ArialMT-2e"/>
       <use x="141.796875" xlink:href="#ArialMT-34"/>
      </g>
     </g>
    </g>
    <g id="ytick_3">
     <g id="line2d_9">
      <g>
       <use style="fill:#262626;stroke:#262626;" x="90" xlink:href="#m2d684460da" y="203.52"/>
      </g>
     </g>
     <g id="text_9">
      <!-- −0.2 -->
      <g style="fill:#262626;" transform="translate(57.259375 207.098906)scale(0.1 -0.1)">
       <use xlink:href="#ArialMT-2212"/>
       <use x="58.398438" xlink:href="#ArialMT-30"/>
       <use x="114.013672" xlink:href="#ArialMT-2e"/>
       <use x="141.796875" xlink:href="#ArialMT-32"/>
      </g>
     </g>
    </g>
    <g id="ytick_4">
     <g id="line2d_10">
      <g>
       <use style="fill:#262626;stroke:#262626;" x="90" xlink:href="#m2d684460da" y="169.92"/>
      </g>
     </g>
     <g id="text_10">
      <!-- 0.0 -->
      <g style="fill:#262626;" transform="translate(63.1 173.498906)scale(0.1 -0.1)">
       <use xlink:href="#ArialMT-30"/>
       <use x="55.615234" xlink:href="#ArialMT-2e"/>
       <use x="83.398438" xlink:href="#ArialMT-30"/>
      </g>
     </g>
    </g>
    <g id="ytick_5">
     <g id="line2d_11">
      <g>
       <use style="fill:#262626;stroke:#262626;" x="90" xlink:href="#m2d684460da" y="136.32"/>
      </g>
     </g>
     <g id="text_11">
      <!-- 0.2 -->
      <g style="fill:#262626;" transform="translate(63.1 139.898906)scale(0.1 -0.1)">
       <use xlink:href="#ArialMT-30"/>
       <use x="55.615234" xlink:href="#ArialMT-2e"/>
       <use x="83.398438" xlink:href="#ArialMT-32"/>
      </g>
     </g>
    </g>
    <g id="ytick_6">
     <g id="line2d_12">
      <g>
       <use style="fill:#262626;stroke:#262626;" x="90" xlink:href="#m2d684460da" y="102.72"/>
      </g>
     </g>
     <g id="text_12">
      <!-- 0.4 -->
      <g style="fill:#262626;" transform="translate(63.1 106.298906)scale(0.1 -0.1)">
       <use xlink:href="#ArialMT-30"/>
       <use x="55.615234" xlink:href="#ArialMT-2e"/>
       <use x="83.398438" xlink:href="#ArialMT-34"/>
      </g>
     </g>
    </g>
    <g id="ytick_7">
     <g id="line2d_13">
      <g>
       <use style="fill:#262626;stroke:#262626;" x="90" xlink:href="#m2d684460da" y="69.12"/>
      </g>
     </g>
     <g id="text_13">
      <!-- 0.6 -->
      <g style="fill:#262626;" transform="translate(63.1 72.698906)scale(0.1 -0.1)">
       <use xlink:href="#ArialMT-30"/>
       <use x="55.615234" xlink:href="#ArialMT-2e"/>
       <use x="83.398438" xlink:href="#ArialMT-36"/>
      </g>
     </g>
    </g>
   </g>
   <g id="line2d_14">
    <path clip-path="url(#p7110df3ab7)" d="M 90 174.621416 
L 90.544922 175.672441 
L 91.634766 178.379473 
L 93.814453 184.434404 
L 94.359375 185.946855 
L 95.994141 188.971758 
L 96.539062 189.65877 
L 97.628906 190.504717 
L 98.173828 190.607256 
L 99.263672 189.771562 
L 99.808594 188.848711 
L 100.353516 187.643877 
L 101.443359 184.219072 
L 104.167969 173.073076 
L 105.257812 168.315264 
L 106.347656 164.223955 
L 107.982422 159.630205 
L 109.072266 157.661455 
L 109.617188 157.056475 
L 110.707031 156.251543 
L 111.251953 156.436113 
L 111.796875 156.348955 
L 114.521484 157.394854 
L 115.066406 157.820391 
L 115.611328 158.066484 
L 116.15625 158.102373 
L 117.246094 159.138018 
L 118.335938 160.317217 
L 119.425781 162.188555 
L 121.060547 165.418535 
L 121.605469 166.126055 
L 122.695312 167.89998 
L 123.240234 168.079424 
L 123.785156 168.42293 
L 124.330078 168.571611 
L 125.419922 168.269121 
L 126.509766 167.510332 
L 127.599609 166.392656 
L 129.234375 165.403154 
L 130.324219 165.14168 
L 131.414062 165.577471 
L 131.958984 166.213213 
L 132.503906 166.628496 
L 133.59375 168.294756 
L 134.138672 169.289385 
L 135.228516 171.658037 
L 135.773438 172.673174 
L 136.318359 174.011309 
L 138.498047 177.779619 
L 139.042969 178.615312 
L 140.132812 179.722734 
L 140.677734 180.050859 
L 141.222656 180.163652 
L 141.767578 180.055986 
L 142.3125 179.707354 
L 143.947266 177.810381 
L 144.492188 176.385088 
L 145.037109 175.410967 
L 147.761719 168.997148 
L 148.851562 166.202959 
L 149.396484 165.146807 
L 152.121094 158.861162 
L 154.300781 153.831621 
L 156.480469 148.86873 
L 158.115234 146.079668 
L 158.660156 146.161699 
L 159.205078 146.115557 
L 159.75 146.382158 
L 160.839844 147.802324 
L 161.384766 149.007158 
L 165.744141 160.788896 
L 168.46875 166.848955 
L 170.648438 170.319902 
L 171.193359 170.442949 
L 171.738281 171.001787 
L 172.283203 170.883867 
L 172.828125 171.012041 
L 173.373047 170.899248 
L 173.917969 170.904375 
L 174.462891 170.345537 
L 175.007812 170.396807 
L 176.097656 169.555986 
L 177.1875 169.012529 
L 177.732422 168.838213 
L 178.277344 168.884355 
L 179.367188 169.258623 
L 179.912109 169.822588 
L 180.457031 170.607012 
L 183.181641 176.333818 
L 185.90625 183.890947 
L 186.996094 187.013262 
L 188.630859 190.115068 
L 189.175781 190.638018 
L 189.720703 190.873857 
L 190.265625 190.925127 
L 190.810547 190.489336 
L 191.355469 189.868975 
L 192.445312 187.510576 
L 193.535156 184.193437 
L 195.169922 178.046221 
L 196.259766 173.43709 
L 197.894531 166.736162 
L 199.529297 161.834795 
L 200.074219 160.573564 
L 201.164062 158.938066 
L 201.708984 158.379229 
L 202.798828 157.907549 
L 203.34375 157.815264 
L 203.888672 157.605059 
L 204.433594 157.68709 
L 204.978516 157.487139 
L 205.523438 157.584551 
L 206.068359 157.487139 
L 207.158203 157.738359 
L 208.248047 158.445879 
L 208.792969 158.81502 
L 209.882812 160.440264 
L 210.427734 161.070879 
L 210.972656 162.639727 
L 211.517578 163.490801 
L 212.607422 165.644121 
L 213.697266 167.284746 
L 214.787109 168.294756 
L 215.332031 168.6075 
L 216.421875 168.771562 
L 217.511719 168.023027 
L 218.056641 167.848711 
L 218.601562 167.187334 
L 220.236328 165.644121 
L 220.78125 165.439043 
L 221.326172 165.439043 
L 221.871094 164.875078 
L 222.960938 165.136553 
L 223.505859 165.86458 
L 224.050781 166.40291 
L 224.595703 167.279619 
L 225.140625 167.940996 
L 226.775391 170.658281 
L 230.589844 178.625566 
L 231.679688 179.922686 
L 232.224609 180.440508 
L 232.769531 180.594316 
L 233.859375 180.676348 
L 234.404297 180.061113 
L 234.949219 179.722734 
L 236.039062 178.169268 
L 242.578125 164.136797 
L 243.123047 163.347246 
L 243.667969 161.819414 
L 244.757812 159.35335 
L 248.027344 150.211992 
L 249.117188 147.940752 
L 249.662109 147.330645 
L 250.751953 146.751299 
L 251.296875 147.038408 
L 252.386719 148.227861 
L 252.931641 149.381426 
L 253.476562 150.083818 
L 255.65625 154.841631 
L 256.201172 155.897783 
L 257.835938 160.291582 
L 258.380859 161.404131 
L 259.470703 164.01375 
L 260.560547 166.326006 
L 261.650391 168.13582 
L 263.285156 169.720049 
L 264.919922 170.125078 
L 265.464844 169.714922 
L 266.009766 169.581621 
L 268.734375 167.628252 
L 269.279297 167.428301 
L 270.369141 167.64876 
L 270.914062 167.571855 
L 272.548828 169.089434 
L 274.183594 172.155352 
L 275.273438 174.641924 
L 278.542969 184.521562 
L 280.177734 188.141191 
L 280.722656 189.171709 
L 281.267578 189.684404 
L 281.8125 189.930498 
L 282.357422 189.997148 
L 282.902344 189.438311 
L 283.992188 187.961748 
L 284.537109 186.700518 
L 285.626953 183.183428 
L 287.261719 176.708086 
L 288.351562 171.683672 
L 289.441406 167.443682 
L 290.53125 163.813799 
L 292.166016 159.973711 
L 292.710938 159.445635 
L 293.255859 158.302324 
L 294.890625 157.092363 
L 295.435547 156.892412 
L 295.980469 156.2054 
L 297.615234 155.410723 
L 298.160156 155.410723 
L 299.25 155.820879 
L 300.339844 156.697588 
L 303.064453 160.952959 
L 305.244141 164.664873 
L 306.333984 165.977373 
L 306.878906 166.269609 
L 307.96875 166.438799 
L 309.058594 165.885088 
L 309.603516 165.387773 
L 310.148438 164.73665 
L 310.693359 164.377764 
L 311.238281 163.772783 
L 311.783203 163.536943 
L 312.328125 163.101152 
L 312.873047 162.998613 
L 313.417969 162.608965 
L 314.507812 162.926836 
L 315.052734 163.270342 
L 315.597656 163.808672 
L 316.142578 163.993242 
L 317.777344 166.438799 
L 319.957031 171.012041 
L 321.046875 173.719072 
L 322.136719 175.800615 
L 323.226562 177.579668 
L 323.771484 178.117998 
L 324.861328 178.666582 
L 325.40625 178.712725 
L 325.951172 178.630693 
L 326.496094 178.164141 
L 327.585938 176.897783 
L 329.220703 173.92415 
L 329.765625 173.062822 
L 330.310547 171.899004 
L 330.855469 171.04793 
L 331.400391 169.679033 
L 331.945312 168.986895 
L 333.035156 166.925859 
L 333.580078 166.079912 
L 335.759766 161.132402 
L 336.304688 159.255937 
L 336.849609 157.825518 
L 338.484375 152.155107 
L 339.029297 150.857988 
L 339.574219 149.181475 
L 341.208984 146.464189 
L 341.753906 146.038652 
L 342.298828 145.443926 
L 342.84375 145.392656 
L 343.388672 145.515703 
L 345.023438 147.06917 
L 346.113281 149.03792 
L 346.658203 149.986406 
L 347.203125 151.411699 
L 347.748047 152.406328 
L 348.292969 154.087969 
L 348.837891 155.18001 
L 349.927734 158.004961 
L 351.5625 161.798906 
L 353.197266 165.044268 
L 353.742188 165.900469 
L 354.287109 166.269609 
L 354.832031 167.136064 
L 355.376953 167.535967 
L 355.921875 167.664141 
L 356.466797 167.561602 
L 357.011719 167.659014 
L 357.556641 167.259111 
L 359.191406 166.490068 
L 360.28125 165.695391 
L 360.826172 165.495439 
L 361.371094 165.151934 
L 363.550781 165.567217 
L 364.095703 166.172197 
L 364.640625 166.956621 
L 365.185547 167.500078 
L 366.820312 171.088945 
L 371.179688 184.249834 
L 371.724609 185.649492 
L 372.814453 187.536211 
L 373.904297 188.628252 
L 374.449219 188.525713 
L 374.994141 188.187334 
L 375.539062 187.408037 
L 376.083984 186.408281 
L 378.263672 179.010088 
L 380.988281 168.089678 
L 382.078125 164.690508 
L 382.623047 163.219072 
L 383.167969 162.239824 
L 384.257812 159.72249 
L 386.982422 155.738848 
L 387.527344 155.405596 
L 388.072266 154.821123 
L 388.617188 154.410967 
L 389.707031 154.031572 
L 390.796875 154.057207 
L 392.431641 155.461992 
L 394.066406 158.322832 
L 395.701172 161.568193 
L 397.335938 163.977861 
L 397.880859 164.705889 
L 398.425781 164.746904 
L 398.970703 165.044268 
L 400.060547 165.018633 
L 400.605469 164.793047 
L 401.150391 164.362383 
L 402.240234 163.731768 
L 402.785156 163.336992 
L 403.330078 163.096025 
L 403.875 162.70125 
L 404.964844 162.332109 
L 405.509766 162.373125 
L 406.054688 162.639727 
L 406.599609 162.685869 
L 407.689453 163.536943 
L 409.324219 166.008135 
L 411.503906 170.673662 
L 413.138672 174.785479 
L 415.863281 179.512529 
L 416.408203 179.963701 
L 416.953125 180.127764 
L 417.498047 180.045732 
L 418.042969 179.753496 
L 419.132812 178.917803 
L 421.3125 175.692949 
L 421.857422 175.144365 
L 422.947266 173.867754 
L 424.582031 171.857988 
L 425.671875 169.92 
L 426.761719 167.341143 
L 427.851562 164.372637 
L 428.941406 160.773516 
L 431.121094 154.22127 
L 432.210938 151.934648 
L 433.300781 150.401689 
L 434.390625 149.637773 
L 434.935547 149.648027 
L 435.480469 149.545488 
L 437.115234 151.24251 
L 437.660156 151.970537 
L 438.75 153.888018 
L 440.384766 157.661455 
L 441.474609 160.54793 
L 443.109375 164.72127 
L 444.199219 167.443682 
L 444.744141 168.474199 
L 446.378906 170.663408 
L 448.013672 171.499102 
L 448.558594 171.509355 
L 449.103516 171.196611 
L 449.648438 171.278643 
L 452.917969 169.161211 
L 453.462891 169.130449 
L 454.007812 168.925371 
L 454.552734 169.104814 
L 455.097656 169.033037 
L 455.642578 169.207354 
L 456.732422 170.786455 
L 457.277344 171.570879 
L 457.822266 172.601396 
L 459.457031 176.831133 
L 461.091797 182.224687 
L 462.181641 185.716143 
L 464.361328 191.786455 
L 464.90625 192.452959 
L 465.451172 193.334795 
L 465.996094 193.278398 
L 466.541016 193.345049 
L 467.085938 192.806719 
L 468.175781 190.31502 
L 469.265625 186.987627 
L 470.355469 182.891191 
L 473.625 171.499102 
L 475.259766 167.141191 
L 476.349609 164.649492 
L 477.984375 161.865557 
L 479.619141 159.404619 
L 480.164062 158.702227 
L 481.253906 157.810137 
L 481.798828 157.702471 
L 482.34375 157.830645 
L 482.888672 158.081865 
L 483.978516 158.984209 
L 486.158203 162.419268 
L 487.248047 164.336748 
L 488.882812 166.725908 
L 489.427734 167.310381 
L 489.972656 167.515459 
L 490.517578 167.95125 
L 491.0625 167.987139 
L 491.607422 168.166582 
L 492.152344 167.551348 
L 492.697266 167.489824 
L 493.242188 167.248857 
L 493.787109 166.792559 
L 494.876953 166.151689 
L 495.421875 165.74666 
L 497.601562 164.921221 
L 499.236328 165.9825 
L 499.78125 166.674639 
L 500.326172 167.17708 
L 502.505859 171.088945 
L 504.140625 175.164873 
L 504.685547 176.313311 
L 505.230469 177.753984 
L 506.865234 180.886553 
L 507.955078 181.860674 
L 508.5 181.963213 
L 509.044922 181.922197 
L 509.589844 181.722246 
L 510.134766 181.306963 
L 510.679688 180.558428 
L 511.769531 179.650957 
L 512.314453 179.40999 
L 512.859375 178.728105 
L 513.404297 178.466631 
L 513.949219 177.84627 
L 515.039062 176.861895 
L 516.673828 174.677812 
L 517.21875 173.724199 
L 519.398438 167.946123 
L 520.488281 164.19832 
L 521.033203 162.947344 
L 522.123047 159.327715 
L 523.757812 155.01082 
L 524.302734 154.257158 
L 524.847656 153.298418 
L 525.392578 152.980547 
L 525.9375 152.144854 
L 526.482422 151.985918 
L 527.027344 151.657793 
L 527.572266 151.893633 
L 528.117188 151.985918 
L 528.662109 152.380693 
L 529.751953 153.729082 
L 530.296875 154.575029 
L 531.931641 158.010088 
L 535.746094 167.700029 
L 536.291016 168.966387 
L 536.835938 169.679033 
L 537.380859 170.817217 
L 539.560547 172.867998 
L 540.105469 172.950029 
L 541.195312 172.683428 
L 541.740234 172.703936 
L 543.375 171.53499 
L 543.919922 171.042803 
L 545.009766 170.376299 
L 545.554688 170.463457 
L 546.099609 170.119951 
L 546.644531 170.412187 
L 547.189453 170.483965 
L 548.824219 171.904131 
L 551.003906 176.800371 
L 552.638672 182.214434 
L 553.728516 186.387773 
L 554.818359 190.227861 
L 555.363281 192.176104 
L 556.453125 194.703691 
L 557.542969 195.826494 
L 558.087891 195.970049 
L 558.632812 195.503496 
L 559.722656 193.770586 
L 560.8125 190.976396 
L 562.992188 183.844805 
L 565.171875 176.687578 
L 565.716797 175.267412 
L 566.261719 173.529375 
L 568.986328 167.356523 
L 569.53125 166.054277 
L 571.710938 162.362871 
L 572.255859 161.804033 
L 573.345703 161.122148 
L 573.890625 161.065752 
L 574.980469 161.604082 
L 575.525391 162.070635 
L 578.25 166.21834 
L 579.884766 168.899736 
L 580.429688 169.494463 
L 581.519531 170.227617 
L 582.064453 170.648027 
L 582.609375 170.76082 
L 584.244141 170.314775 
L 584.789062 170.048174 
L 585.333984 169.540605 
L 585.878906 169.268877 
L 586.423828 168.684404 
L 586.96875 168.274248 
L 588.603516 167.76668 
L 589.148438 167.741045 
L 589.693359 167.53084 
L 590.783203 167.617998 
L 591.328125 168.084551 
L 591.873047 168.330645 
L 592.417969 168.951006 
L 592.962891 169.781572 
L 594.052734 172.129717 
L 594.597656 173.257646 
L 595.142578 174.888018 
L 596.232422 177.548906 
L 596.777344 178.902422 
L 598.412109 181.773516 
L 598.957031 182.357988 
L 600.591797 182.778398 
L 602.771484 182.281084 
L 603.316406 181.753008 
L 604.951172 181.096758 
L 606.585938 179.897051 
L 607.130859 179.389482 
L 607.675781 178.702471 
L 609.310547 175.539141 
L 610.945312 171.001787 
L 612.580078 165.649248 
L 614.214844 160.696611 
L 616.394531 155.687578 
L 616.939453 154.713457 
L 617.484375 154.180254 
L 618.029297 153.436846 
L 618.574219 153.031816 
L 619.119141 152.836992 
L 619.664062 152.847246 
L 620.208984 153.252275 
L 620.753906 153.467607 
L 621.84375 154.580156 
L 622.933594 156.589922 
L 624.568359 160.317217 
L 625.113281 161.424639 
L 625.658203 163.008867 
L 626.203125 164.157305 
L 626.748047 165.772295 
L 630.017578 171.668291 
L 630.5625 172.273271 
L 631.652344 172.78084 
L 632.742188 172.867998 
L 633.287109 172.621904 
L 633.832031 172.109209 
L 634.376953 171.88875 
L 634.921875 171.914385 
L 636.011719 170.986406 
L 636.556641 170.57625 
L 637.101562 170.57625 
L 637.646484 170.196855 
L 638.736328 170.5096 
L 639.28125 170.330156 
L 640.371094 171.242754 
L 641.460938 172.924395 
L 642.550781 175.626299 
L 643.640625 179.138262 
L 646.910156 191.52498 
L 647.455078 192.975908 
L 647.455078 192.975908 
" style="fill:none;stroke:#4c72b0;stroke-linecap:round;stroke-width:1.75;"/>
   </g>
   <g id="patch_3">
    <path d="M 90 270.72 
L 90 69.12 
" style="fill:none;stroke:#262626;stroke-linecap:square;stroke-linejoin:miter;stroke-width:1.25;"/>
   </g>
   <g id="patch_4">
    <path d="M 90 270.72 
L 648 270.72 
" style="fill:none;stroke:#262626;stroke-linecap:square;stroke-linejoin:miter;stroke-width:1.25;"/>
   </g>
  </g>
  <g id="axes_2">
   <g id="patch_5">
    <path d="M 90 512.64 
L 648 512.64 
L 648 311.04 
L 90 311.04 
z
" style="fill:#ffffff;"/>
   </g>
   <g id="matplotlib.axis_3">
    <g id="xtick_7">
     <g id="line2d_15">
      <g>
       <use style="fill:#262626;stroke:#262626;" x="218.197478" xlink:href="#md31958be1a" y="512.64"/>
      </g>
     </g>
     <g id="text_14">
      <!-- $\mathdefault{10^{2}}$ -->
      <g style="fill:#262626;" transform="translate(210.347478 535.9525)scale(0.1 -0.1)">
       <use transform="translate(0 0.99375)" xlink:href="#ArialMT-31"/>
       <use transform="translate(55.615234 0.99375)" xlink:href="#ArialMT-30"/>
       <use transform="translate(112.972813 70.6875)scale(0.7)" xlink:href="#ArialMT-32"/>
      </g>
     </g>
    </g>
    <g id="xtick_8">
     <g id="line2d_16">
      <g>
       <use style="fill:#262626;stroke:#262626;" x="401.606604" xlink:href="#md31958be1a" y="512.64"/>
      </g>
     </g>
     <g id="text_15">
      <!-- $\mathdefault{10^{3}}$ -->
      <defs>
       <path d="M 4.203125 18.890625 
L 12.984375 20.0625 
Q 14.5 12.59375 18.140625 9.296875 
Q 21.78125 6 27 6 
Q 33.203125 6 37.46875 10.296875 
Q 41.75 14.59375 41.75 20.953125 
Q 41.75 27 37.796875 30.921875 
Q 33.84375 34.859375 27.734375 34.859375 
Q 25.25 34.859375 21.53125 33.890625 
L 22.515625 41.609375 
Q 23.390625 41.5 23.921875 41.5 
Q 29.546875 41.5 34.03125 44.421875 
Q 38.53125 47.359375 38.53125 53.46875 
Q 38.53125 58.296875 35.25 61.46875 
Q 31.984375 64.65625 26.8125 64.65625 
Q 21.6875 64.65625 18.265625 61.421875 
Q 14.84375 58.203125 13.875 51.765625 
L 5.078125 53.328125 
Q 6.6875 62.15625 12.390625 67.015625 
Q 18.109375 71.875 26.609375 71.875 
Q 32.46875 71.875 37.390625 69.359375 
Q 42.328125 66.84375 44.9375 62.5 
Q 47.5625 58.15625 47.5625 53.265625 
Q 47.5625 48.640625 45.0625 44.828125 
Q 42.578125 41.015625 37.703125 38.765625 
Q 44.046875 37.3125 47.5625 32.6875 
Q 51.078125 28.078125 51.078125 21.140625 
Q 51.078125 11.765625 44.234375 5.25 
Q 37.40625 -1.265625 26.953125 -1.265625 
Q 17.53125 -1.265625 11.296875 4.34375 
Q 5.078125 9.96875 4.203125 18.890625 
z
" id="ArialMT-33"/>
      </defs>
      <g style="fill:#262626;" transform="translate(393.756604 535.9525)scale(0.1 -0.1)">
       <use transform="translate(0 0.99375)" xlink:href="#ArialMT-31"/>
       <use transform="translate(55.615234 0.99375)" xlink:href="#ArialMT-30"/>
       <use transform="translate(112.972813 70.6875)scale(0.7)" xlink:href="#ArialMT-33"/>
      </g>
     </g>
    </g>
    <g id="xtick_9">
     <g id="line2d_17">
      <g>
       <use style="fill:#262626;stroke:#262626;" x="585.01573" xlink:href="#md31958be1a" y="512.64"/>
      </g>
     </g>
     <g id="text_16">
      <!-- $\mathdefault{10^{4}}$ -->
      <g style="fill:#262626;" transform="translate(577.16573 535.8525)scale(0.1 -0.1)">
       <use transform="translate(0 0.201563)" xlink:href="#ArialMT-31"/>
       <use transform="translate(55.615234 0.201563)" xlink:href="#ArialMT-30"/>
       <use transform="translate(112.972813 69.895313)scale(0.7)" xlink:href="#ArialMT-34"/>
      </g>
     </g>
    </g>
    <g id="xtick_10">
     <g id="line2d_18">
      <defs>
       <path d="M 0 0 
L 0 3 
" id="m5cfc3027cd" style="stroke:#262626;stroke-width:0.5;"/>
      </defs>
      <g>
       <use style="fill:#262626;stroke:#262626;stroke-width:0.5;" x="90" xlink:href="#m5cfc3027cd" y="512.64"/>
      </g>
     </g>
    </g>
    <g id="xtick_11">
     <g id="line2d_19">
      <g>
       <use style="fill:#262626;stroke:#262626;stroke-width:0.5;" x="122.296744" xlink:href="#m5cfc3027cd" y="512.64"/>
      </g>
     </g>
    </g>
    <g id="xtick_12">
     <g id="line2d_20">
      <g>
       <use style="fill:#262626;stroke:#262626;stroke-width:0.5;" x="145.211648" xlink:href="#m5cfc3027cd" y="512.64"/>
      </g>
     </g>
    </g>
    <g id="xtick_13">
     <g id="line2d_21">
      <g>
       <use style="fill:#262626;stroke:#262626;stroke-width:0.5;" x="162.985829" xlink:href="#m5cfc3027cd" y="512.64"/>
      </g>
     </g>
    </g>
    <g id="xtick_14">
     <g id="line2d_22">
      <g>
       <use style="fill:#262626;stroke:#262626;stroke-width:0.5;" x="177.508392" xlink:href="#m5cfc3027cd" y="512.64"/>
      </g>
     </g>
    </g>
    <g id="xtick_15">
     <g id="line2d_23">
      <g>
       <use style="fill:#262626;stroke:#262626;stroke-width:0.5;" x="189.787045" xlink:href="#m5cfc3027cd" y="512.64"/>
      </g>
     </g>
    </g>
    <g id="xtick_16">
     <g id="line2d_24">
      <g>
       <use style="fill:#262626;stroke:#262626;stroke-width:0.5;" x="200.423297" xlink:href="#m5cfc3027cd" y="512.64"/>
      </g>
     </g>
    </g>
    <g id="xtick_17">
     <g id="line2d_25">
      <g>
       <use style="fill:#262626;stroke:#262626;stroke-width:0.5;" x="209.805136" xlink:href="#m5cfc3027cd" y="512.64"/>
      </g>
     </g>
    </g>
    <g id="xtick_18">
     <g id="line2d_26">
      <g>
       <use style="fill:#262626;stroke:#262626;stroke-width:0.5;" x="273.409126" xlink:href="#m5cfc3027cd" y="512.64"/>
      </g>
     </g>
    </g>
    <g id="xtick_19">
     <g id="line2d_27">
      <g>
       <use style="fill:#262626;stroke:#262626;stroke-width:0.5;" x="305.70587" xlink:href="#m5cfc3027cd" y="512.64"/>
      </g>
     </g>
    </g>
    <g id="xtick_20">
     <g id="line2d_28">
      <g>
       <use style="fill:#262626;stroke:#262626;stroke-width:0.5;" x="328.620775" xlink:href="#m5cfc3027cd" y="512.64"/>
      </g>
     </g>
    </g>
    <g id="xtick_21">
     <g id="line2d_29">
      <g>
       <use style="fill:#262626;stroke:#262626;stroke-width:0.5;" x="346.394955" xlink:href="#m5cfc3027cd" y="512.64"/>
      </g>
     </g>
    </g>
    <g id="xtick_22">
     <g id="line2d_30">
      <g>
       <use style="fill:#262626;stroke:#262626;stroke-width:0.5;" x="360.917518" xlink:href="#m5cfc3027cd" y="512.64"/>
      </g>
     </g>
    </g>
    <g id="xtick_23">
     <g id="line2d_31">
      <g>
       <use style="fill:#262626;stroke:#262626;stroke-width:0.5;" x="373.196171" xlink:href="#m5cfc3027cd" y="512.64"/>
      </g>
     </g>
    </g>
    <g id="xtick_24">
     <g id="line2d_32">
      <g>
       <use style="fill:#262626;stroke:#262626;stroke-width:0.5;" x="383.832423" xlink:href="#m5cfc3027cd" y="512.64"/>
      </g>
     </g>
    </g>
    <g id="xtick_25">
     <g id="line2d_33">
      <g>
       <use style="fill:#262626;stroke:#262626;stroke-width:0.5;" x="393.214262" xlink:href="#m5cfc3027cd" y="512.64"/>
      </g>
     </g>
    </g>
    <g id="xtick_26">
     <g id="line2d_34">
      <g>
       <use style="fill:#262626;stroke:#262626;stroke-width:0.5;" x="456.818252" xlink:href="#m5cfc3027cd" y="512.64"/>
      </g>
     </g>
    </g>
    <g id="xtick_27">
     <g id="line2d_35">
      <g>
       <use style="fill:#262626;stroke:#262626;stroke-width:0.5;" x="489.114996" xlink:href="#m5cfc3027cd" y="512.64"/>
      </g>
     </g>
    </g>
    <g id="xtick_28">
     <g id="line2d_36">
      <g>
       <use style="fill:#262626;stroke:#262626;stroke-width:0.5;" x="512.029901" xlink:href="#m5cfc3027cd" y="512.64"/>
      </g>
     </g>
    </g>
    <g id="xtick_29">
     <g id="line2d_37">
      <g>
       <use style="fill:#262626;stroke:#262626;stroke-width:0.5;" x="529.804081" xlink:href="#m5cfc3027cd" y="512.64"/>
      </g>
     </g>
    </g>
    <g id="xtick_30">
     <g id="line2d_38">
      <g>
       <use style="fill:#262626;stroke:#262626;stroke-width:0.5;" x="544.326645" xlink:href="#m5cfc3027cd" y="512.64"/>
      </g>
     </g>
    </g>
    <g id="xtick_31">
     <g id="line2d_39">
      <g>
       <use style="fill:#262626;stroke:#262626;stroke-width:0.5;" x="556.605297" xlink:href="#m5cfc3027cd" y="512.64"/>
      </g>
     </g>
    </g>
    <g id="xtick_32">
     <g id="line2d_40">
      <g>
       <use style="fill:#262626;stroke:#262626;stroke-width:0.5;" x="567.241549" xlink:href="#m5cfc3027cd" y="512.64"/>
      </g>
     </g>
    </g>
    <g id="xtick_33">
     <g id="line2d_41">
      <g>
       <use style="fill:#262626;stroke:#262626;stroke-width:0.5;" x="576.623389" xlink:href="#m5cfc3027cd" y="512.64"/>
      </g>
     </g>
    </g>
    <g id="xtick_34">
     <g id="line2d_42">
      <g>
       <use style="fill:#262626;stroke:#262626;stroke-width:0.5;" x="640.227378" xlink:href="#m5cfc3027cd" y="512.64"/>
      </g>
     </g>
    </g>
   </g>
   <g id="matplotlib.axis_4">
    <g id="ytick_8">
     <g id="line2d_43">
      <g>
       <use style="fill:#262626;stroke:#262626;" x="90" xlink:href="#m2d684460da" y="512.64"/>
      </g>
     </g>
     <g id="text_17">
      <!-- $\mathdefault{10^{-5}}$ -->
      <defs>
       <path d="M 4.15625 18.75 
L 13.375 19.53125 
Q 14.40625 12.796875 18.140625 9.390625 
Q 21.875 6 27.15625 6 
Q 33.5 6 37.890625 10.78125 
Q 42.28125 15.578125 42.28125 23.484375 
Q 42.28125 31 38.0625 35.34375 
Q 33.84375 39.703125 27 39.703125 
Q 22.75 39.703125 19.328125 37.765625 
Q 15.921875 35.84375 13.96875 32.765625 
L 5.71875 33.84375 
L 12.640625 70.609375 
L 48.25 70.609375 
L 48.25 62.203125 
L 19.671875 62.203125 
L 15.828125 42.96875 
Q 22.265625 47.46875 29.34375 47.46875 
Q 38.71875 47.46875 45.15625 40.96875 
Q 51.609375 34.46875 51.609375 24.265625 
Q 51.609375 14.546875 45.953125 7.46875 
Q 39.0625 -1.21875 27.15625 -1.21875 
Q 17.390625 -1.21875 11.203125 4.25 
Q 5.03125 9.71875 4.15625 18.75 
z
" id="ArialMT-35"/>
      </defs>
      <g style="fill:#262626;" transform="translate(57.2 517.74625)scale(0.1 -0.1)">
       <use transform="translate(0 0.879688)" xlink:href="#ArialMT-31"/>
       <use transform="translate(55.615234 0.879688)" xlink:href="#ArialMT-30"/>
       <use transform="translate(112.972813 70.573438)scale(0.7)" xlink:href="#ArialMT-2212"/>
       <use transform="translate(153.851719 70.573438)scale(0.7)" xlink:href="#ArialMT-35"/>
      </g>
     </g>
    </g>
    <g id="ytick_9">
     <g id="line2d_44">
      <g>
       <use style="fill:#262626;stroke:#262626;" x="90" xlink:href="#m2d684460da" y="465.767507"/>
      </g>
     </g>
     <g id="text_18">
      <!-- $\mathdefault{10^{-4}}$ -->
      <g style="fill:#262626;" transform="translate(57.2 470.873757)scale(0.1 -0.1)">
       <use transform="translate(0 0.201563)" xlink:href="#ArialMT-31"/>
       <use transform="translate(55.615234 0.201563)" xlink:href="#ArialMT-30"/>
       <use transform="translate(112.972813 69.895313)scale(0.7)" xlink:href="#ArialMT-2212"/>
       <use transform="translate(153.851719 69.895313)scale(0.7)" xlink:href="#ArialMT-34"/>
      </g>
     </g>
    </g>
    <g id="ytick_10">
     <g id="line2d_45">
      <g>
       <use style="fill:#262626;stroke:#262626;" x="90" xlink:href="#m2d684460da" y="418.895013"/>
      </g>
     </g>
     <g id="text_19">
      <!-- $\mathdefault{10^{-3}}$ -->
      <g style="fill:#262626;" transform="translate(57.2 424.051263)scale(0.1 -0.1)">
       <use transform="translate(0 0.99375)" xlink:href="#ArialMT-31"/>
       <use transform="translate(55.615234 0.99375)" xlink:href="#ArialMT-30"/>
       <use transform="translate(112.972813 70.6875)scale(0.7)" xlink:href="#ArialMT-2212"/>
       <use transform="translate(153.851719 70.6875)scale(0.7)" xlink:href="#ArialMT-33"/>
      </g>
     </g>
    </g>
    <g id="ytick_11">
     <g id="line2d_46">
      <g>
       <use style="fill:#262626;stroke:#262626;" x="90" xlink:href="#m2d684460da" y="372.02252"/>
      </g>
     </g>
     <g id="text_20">
      <!-- $\mathdefault{10^{-2}}$ -->
      <g style="fill:#262626;" transform="translate(57.2 377.17877)scale(0.1 -0.1)">
       <use transform="translate(0 0.99375)" xlink:href="#ArialMT-31"/>
       <use transform="translate(55.615234 0.99375)" xlink:href="#ArialMT-30"/>
       <use transform="translate(112.972813 70.6875)scale(0.7)" xlink:href="#ArialMT-2212"/>
       <use transform="translate(153.851719 70.6875)scale(0.7)" xlink:href="#ArialMT-32"/>
      </g>
     </g>
    </g>
    <g id="ytick_12">
     <g id="line2d_47">
      <g>
       <use style="fill:#262626;stroke:#262626;" x="90" xlink:href="#m2d684460da" y="325.150026"/>
      </g>
     </g>
     <g id="text_21">
      <!-- $\mathdefault{10^{-1}}$ -->
      <g style="fill:#262626;" transform="translate(57.2 330.306276)scale(0.1 -0.1)">
       <use transform="translate(0 0.99375)" xlink:href="#ArialMT-31"/>
       <use transform="translate(55.615234 0.99375)" xlink:href="#ArialMT-30"/>
       <use transform="translate(112.972813 70.6875)scale(0.7)" xlink:href="#ArialMT-2212"/>
       <use transform="translate(153.851719 70.6875)scale(0.7)" xlink:href="#ArialMT-31"/>
      </g>
     </g>
    </g>
    <g id="ytick_13">
     <g id="line2d_48">
      <defs>
       <path d="M 0 0 
L -3 0 
" id="me56aad05c8" style="stroke:#262626;stroke-width:0.5;"/>
      </defs>
      <g>
       <use style="fill:#262626;stroke:#262626;stroke-width:0.5;" x="90" xlink:href="#me56aad05c8" y="498.529974"/>
      </g>
     </g>
    </g>
    <g id="ytick_14">
     <g id="line2d_49">
      <g>
       <use style="fill:#262626;stroke:#262626;stroke-width:0.5;" x="90" xlink:href="#me56aad05c8" y="490.276137"/>
      </g>
     </g>
    </g>
    <g id="ytick_15">
     <g id="line2d_50">
      <g>
       <use style="fill:#262626;stroke:#262626;stroke-width:0.5;" x="90" xlink:href="#me56aad05c8" y="484.419947"/>
      </g>
     </g>
    </g>
    <g id="ytick_16">
     <g id="line2d_51">
      <g>
       <use style="fill:#262626;stroke:#262626;stroke-width:0.5;" x="90" xlink:href="#me56aad05c8" y="479.877533"/>
      </g>
     </g>
    </g>
    <g id="ytick_17">
     <g id="line2d_52">
      <g>
       <use style="fill:#262626;stroke:#262626;stroke-width:0.5;" x="90" xlink:href="#me56aad05c8" y="476.166111"/>
      </g>
     </g>
    </g>
    <g id="ytick_18">
     <g id="line2d_53">
      <g>
       <use style="fill:#262626;stroke:#262626;stroke-width:0.5;" x="90" xlink:href="#me56aad05c8" y="473.028148"/>
      </g>
     </g>
    </g>
    <g id="ytick_19">
     <g id="line2d_54">
      <g>
       <use style="fill:#262626;stroke:#262626;stroke-width:0.5;" x="90" xlink:href="#me56aad05c8" y="470.309921"/>
      </g>
     </g>
    </g>
    <g id="ytick_20">
     <g id="line2d_55">
      <g>
       <use style="fill:#262626;stroke:#262626;stroke-width:0.5;" x="90" xlink:href="#me56aad05c8" y="467.912274"/>
      </g>
     </g>
    </g>
    <g id="ytick_21">
     <g id="line2d_56">
      <g>
       <use style="fill:#262626;stroke:#262626;stroke-width:0.5;" x="90" xlink:href="#me56aad05c8" y="451.65748"/>
      </g>
     </g>
    </g>
    <g id="ytick_22">
     <g id="line2d_57">
      <g>
       <use style="fill:#262626;stroke:#262626;stroke-width:0.5;" x="90" xlink:href="#me56aad05c8" y="443.403644"/>
      </g>
     </g>
    </g>
    <g id="ytick_23">
     <g id="line2d_58">
      <g>
       <use style="fill:#262626;stroke:#262626;stroke-width:0.5;" x="90" xlink:href="#me56aad05c8" y="437.547454"/>
      </g>
     </g>
    </g>
    <g id="ytick_24">
     <g id="line2d_59">
      <g>
       <use style="fill:#262626;stroke:#262626;stroke-width:0.5;" x="90" xlink:href="#me56aad05c8" y="433.00504"/>
      </g>
     </g>
    </g>
    <g id="ytick_25">
     <g id="line2d_60">
      <g>
       <use style="fill:#262626;stroke:#262626;stroke-width:0.5;" x="90" xlink:href="#me56aad05c8" y="429.293617"/>
      </g>
     </g>
    </g>
    <g id="ytick_26">
     <g id="line2d_61">
      <g>
       <use style="fill:#262626;stroke:#262626;stroke-width:0.5;" x="90" xlink:href="#me56aad05c8" y="426.155654"/>
      </g>
     </g>
    </g>
    <g id="ytick_27">
     <g id="line2d_62">
      <g>
       <use style="fill:#262626;stroke:#262626;stroke-width:0.5;" x="90" xlink:href="#me56aad05c8" y="423.437427"/>
      </g>
     </g>
    </g>
    <g id="ytick_28">
     <g id="line2d_63">
      <g>
       <use style="fill:#262626;stroke:#262626;stroke-width:0.5;" x="90" xlink:href="#me56aad05c8" y="421.039781"/>
      </g>
     </g>
    </g>
    <g id="ytick_29">
     <g id="line2d_64">
      <g>
       <use style="fill:#262626;stroke:#262626;stroke-width:0.5;" x="90" xlink:href="#me56aad05c8" y="404.784987"/>
      </g>
     </g>
    </g>
    <g id="ytick_30">
     <g id="line2d_65">
      <g>
       <use style="fill:#262626;stroke:#262626;stroke-width:0.5;" x="90" xlink:href="#me56aad05c8" y="396.53115"/>
      </g>
     </g>
    </g>
    <g id="ytick_31">
     <g id="line2d_66">
      <g>
       <use style="fill:#262626;stroke:#262626;stroke-width:0.5;" x="90" xlink:href="#me56aad05c8" y="390.67496"/>
      </g>
     </g>
    </g>
    <g id="ytick_32">
     <g id="line2d_67">
      <g>
       <use style="fill:#262626;stroke:#262626;stroke-width:0.5;" x="90" xlink:href="#me56aad05c8" y="386.132546"/>
      </g>
     </g>
    </g>
    <g id="ytick_33">
     <g id="line2d_68">
      <g>
       <use style="fill:#262626;stroke:#262626;stroke-width:0.5;" x="90" xlink:href="#me56aad05c8" y="382.421124"/>
      </g>
     </g>
    </g>
    <g id="ytick_34">
     <g id="line2d_69">
      <g>
       <use style="fill:#262626;stroke:#262626;stroke-width:0.5;" x="90" xlink:href="#me56aad05c8" y="379.283161"/>
      </g>
     </g>
    </g>
    <g id="ytick_35">
     <g id="line2d_70">
      <g>
       <use style="fill:#262626;stroke:#262626;stroke-width:0.5;" x="90" xlink:href="#me56aad05c8" y="376.564934"/>
      </g>
     </g>
    </g>
    <g id="ytick_36">
     <g id="line2d_71">
      <g>
       <use style="fill:#262626;stroke:#262626;stroke-width:0.5;" x="90" xlink:href="#me56aad05c8" y="374.167288"/>
      </g>
     </g>
    </g>
    <g id="ytick_37">
     <g id="line2d_72">
      <g>
       <use style="fill:#262626;stroke:#262626;stroke-width:0.5;" x="90" xlink:href="#me56aad05c8" y="357.912493"/>
      </g>
     </g>
    </g>
    <g id="ytick_38">
     <g id="line2d_73">
      <g>
       <use style="fill:#262626;stroke:#262626;stroke-width:0.5;" x="90" xlink:href="#me56aad05c8" y="349.658657"/>
      </g>
     </g>
    </g>
    <g id="ytick_39">
     <g id="line2d_74">
      <g>
       <use style="fill:#262626;stroke:#262626;stroke-width:0.5;" x="90" xlink:href="#me56aad05c8" y="343.802467"/>
      </g>
     </g>
    </g>
    <g id="ytick_40">
     <g id="line2d_75">
      <g>
       <use style="fill:#262626;stroke:#262626;stroke-width:0.5;" x="90" xlink:href="#me56aad05c8" y="339.260053"/>
      </g>
     </g>
    </g>
    <g id="ytick_41">
     <g id="line2d_76">
      <g>
       <use style="fill:#262626;stroke:#262626;stroke-width:0.5;" x="90" xlink:href="#me56aad05c8" y="335.548631"/>
      </g>
     </g>
    </g>
    <g id="ytick_42">
     <g id="line2d_77">
      <g>
       <use style="fill:#262626;stroke:#262626;stroke-width:0.5;" x="90" xlink:href="#me56aad05c8" y="332.410668"/>
      </g>
     </g>
    </g>
    <g id="ytick_43">
     <g id="line2d_78">
      <g>
       <use style="fill:#262626;stroke:#262626;stroke-width:0.5;" x="90" xlink:href="#me56aad05c8" y="329.69244"/>
      </g>
     </g>
    </g>
    <g id="ytick_44">
     <g id="line2d_79">
      <g>
       <use style="fill:#262626;stroke:#262626;stroke-width:0.5;" x="90" xlink:href="#me56aad05c8" y="327.294794"/>
      </g>
     </g>
    </g>
    <g id="ytick_45">
     <g id="line2d_80">
      <g>
       <use style="fill:#262626;stroke:#262626;stroke-width:0.5;" x="90" xlink:href="#me56aad05c8" y="311.04"/>
      </g>
     </g>
    </g>
   </g>
   <g id="line2d_81">
    <path clip-path="url(#p580414e41f)" d="M -1 375.972225 
L 151.095164 375.97094 
L 206.306812 398.240828 
L 238.603556 399.644264 
L 261.518461 420.283639 
L 279.292642 403.570164 
L 293.815205 366.769939 
L 306.093857 437.09699 
L 316.730109 422.603205 
L 326.111949 422.016805 
L 334.50429 413.501094 
L 342.096086 400.461013 
L 349.026853 346.545533 
L 355.402541 395.726526 
L 361.305505 409.841818 
L 366.801034 416.010805 
L 371.941758 418.614547 
L 376.770725 415.810491 
L 381.323597 393.481095 
L 385.630245 436.394021 
L 389.715939 426.709956 
L 393.602249 415.654396 
L 397.307735 406.480238 
L 400.848476 394.0807 
L 404.238502 359.705707 
L 407.490119 382.981282 
L 410.614189 400.590689 
L 416.517154 421.143793 
L 419.312303 433.329181 
L 422.012683 392.415785 
L 424.624509 394.94635 
L 427.153406 409.094988 
L 429.604479 415.419454 
L 431.982374 420.089511 
L 434.291335 423.646963 
L 436.535246 410.168811 
L 438.717672 402.623133 
L 440.841893 417.072247 
L 442.910933 421.36688 
L 444.927587 424.873787 
L 446.894442 427.493871 
L 448.813898 417.23476 
L 450.688186 397.93734 
L 452.519383 418.936251 
L 454.309426 424.101541 
L 456.060125 428.118774 
L 457.773171 428.204136 
L 459.45015 431.100832 
L 461.09255 425.308479 
L 462.701768 432.091845 
L 464.279118 433.34472 
L 465.825838 437.053165 
L 467.343094 438.443488 
L 468.83199 444.027105 
L 470.293564 421.906447 
L 471.728802 425.812099 
L 473.138637 431.296159 
L 474.523951 432.759814 
L 475.885584 434.928194 
L 477.224331 434.533978 
L 478.540949 429.838626 
L 479.836157 446.899774 
L 481.110642 442.377626 
L 482.365055 441.574926 
L 483.600019 441.328238 
L 484.816127 438.928935 
L 486.013948 442.898804 
L 487.194022 433.981644 
L 488.356869 443.902111 
L 490.63284 442.824271 
L 491.746894 443.3198 
L 493.92932 443.511025 
L 494.998512 448.040505 
L 496.053541 444.852833 
L 497.094779 444.698779 
L 498.122582 445.699923 
L 499.137291 445.657219 
L 500.139235 448.93984 
L 501.128734 435.028365 
L 502.10609 445.869139 
L 503.0716 446.612783 
L 504.025546 445.851861 
L 504.968203 448.356728 
L 505.899834 449.360379 
L 506.820695 448.224867 
L 507.731032 446.678567 
L 508.631082 445.920381 
L 509.521075 447.543141 
L 510.401234 448.77194 
L 511.271773 450.26826 
L 512.132901 449.69512 
L 512.984819 448.246994 
L 513.827722 449.503894 
L 514.661799 449.750061 
L 515.487232 449.279265 
L 516.304198 452.115957 
L 517.112871 450.073275 
L 517.913416 450.577142 
L 518.705996 450.770989 
L 519.490766 448.263011 
L 520.26788 451.082748 
L 521.037486 452.585401 
L 521.799727 453.328935 
L 522.554743 451.497342 
L 523.302669 450.079493 
L 524.043638 449.742963 
L 524.777778 455.364315 
L 525.505212 451.033415 
L 526.226064 453.444943 
L 526.940451 458.469971 
L 527.648487 453.59603 
L 528.350285 455.530572 
L 529.045954 453.570949 
L 529.7356 454.696134 
L 530.419326 454.054121 
L 531.097232 453.232489 
L 531.769418 455.087572 
L 532.435979 457.261563 
L 533.097009 455.626976 
L 533.752597 455.687198 
L 534.402834 457.753478 
L 535.047806 456.970685 
L 535.687597 455.452598 
L 536.32229 455.16931 
L 536.951966 456.71752 
L 537.576703 457.688827 
L 538.811667 453.9231 
L 539.422042 459.003285 
L 540.027776 459.612231 
L 540.628938 455.59493 
L 541.225596 459.546943 
L 541.817819 457.000454 
L 542.405671 455.419909 
L 542.989216 460.074541 
L 543.568517 457.770265 
L 544.143636 457.148946 
L 544.714632 458.436874 
L 545.281563 458.6885 
L 545.844488 457.172714 
L 546.403463 458.622192 
L 546.958543 457.176949 
L 547.509781 459.908679 
L 548.05723 457.478841 
L 548.600942 461.083934 
L 549.140969 458.763171 
L 549.677358 461.32782 
L 550.21016 456.234733 
L 550.739422 458.25698 
L 551.26519 458.494762 
L 551.78751 461.629403 
L 552.306428 462.607033 
L 552.821987 459.811207 
L 553.33423 461.822015 
L 553.8432 459.518213 
L 554.348939 465.289415 
L 554.851487 463.834428 
L 555.350884 460.980954 
L 555.847169 467.452689 
L 556.340382 460.019416 
L 556.830559 464.009898 
L 557.317739 462.931353 
L 557.801956 458.442999 
L 558.283248 462.08092 
L 558.76165 462.964891 
L 559.237195 462.155603 
L 559.709918 464.922125 
L 560.179852 462.19578 
L 560.647029 464.365793 
L 561.111483 459.875532 
L 561.573244 462.374755 
L 562.032344 464.052875 
L 562.488812 464.453252 
L 562.94268 463.940447 
L 563.393976 467.158679 
L 563.84273 466.571583 
L 564.28897 468.440499 
L 564.732723 464.896651 
L 565.612882 460.281396 
L 566.049341 464.170155 
L 566.483422 465.106546 
L 566.91515 466.895452 
L 567.34455 462.217369 
L 567.771648 466.807022 
L 568.196468 459.26415 
L 568.619034 465.651369 
L 569.039371 461.607326 
L 569.873447 461.444602 
L 570.287233 463.529826 
L 570.69888 461.642212 
L 571.515847 465.929793 
L 571.921209 460.053052 
L 572.32452 464.80811 
L 572.725798 463.827475 
L 573.52234 466.679438 
L 574.310996 466.012015 
L 574.702415 471.741326 
L 575.479529 465.769675 
L 575.865261 465.982208 
L 576.249135 463.874153 
L 576.631167 469.036107 
L 577.011376 470.436105 
L 577.389778 464.550282 
L 577.766391 465.828517 
L 578.141232 467.944252 
L 578.514318 464.540786 
L 578.885664 466.414426 
L 579.255287 468.91986 
L 579.623202 469.256445 
L 579.989426 467.569094 
L 580.353974 463.291316 
L 580.716861 465.123887 
L 581.078102 470.650414 
L 581.437713 466.671552 
L 581.795707 468.112547 
L 582.152099 465.801275 
L 582.506904 465.186324 
L 582.860136 466.200612 
L 583.211808 473.94927 
L 583.561934 466.797759 
L 583.910528 465.716634 
L 584.257603 472.176859 
L 584.947248 464.014982 
L 585.289845 466.717577 
L 585.630974 471.071303 
L 585.970649 468.21769 
L 586.308881 466.919211 
L 586.645683 466.858266 
L 586.981067 469.552669 
L 587.315045 466.197682 
L 587.647628 467.898475 
L 587.978828 465.934155 
L 588.308657 474.374291 
L 588.637126 468.160437 
L 588.964246 472.202129 
L 589.290028 465.857105 
L 589.614483 472.687562 
L 589.937621 467.31267 
L 590.579992 470.151932 
L 590.899246 466.45407 
L 591.217224 468.880581 
L 591.533939 467.384445 
L 591.849399 472.217372 
L 592.163614 468.476794 
L 592.476596 469.445887 
L 592.788352 471.525046 
L 593.098892 466.24592 
L 593.408227 469.402708 
L 593.716365 474.804514 
L 594.023315 466.682282 
L 594.329088 471.250385 
L 594.633691 473.708239 
L 594.937133 472.743445 
L 595.239424 469.754876 
L 595.540572 467.926306 
L 595.840586 467.055743 
L 596.139474 473.295282 
L 596.437245 472.780315 
L 596.733906 465.528734 
L 597.029467 472.045576 
L 597.323936 473.18892 
L 597.617319 472.855227 
L 597.909626 475.226228 
L 598.491042 462.827856 
L 598.780166 471.720026 
L 599.068244 471.807698 
L 599.355284 473.349475 
L 599.641294 469.748732 
L 599.92628 471.467176 
L 600.21025 468.827681 
L 600.493212 470.774295 
L 600.775172 478.782729 
L 601.056137 472.850908 
L 601.336115 471.925476 
L 601.615112 469.087577 
L 601.893135 473.300824 
L 602.170191 474.022407 
L 602.446287 476.224425 
L 602.721429 472.015986 
L 602.995624 478.688991 
L 603.268878 470.830722 
L 603.541199 476.644623 
L 603.812591 472.554451 
L 604.083062 484.022368 
L 604.352617 468.963162 
L 604.621264 472.085148 
L 604.889007 470.905723 
L 605.155853 473.728314 
L 605.421809 469.697071 
L 605.686879 472.411951 
L 605.95107 471.672868 
L 606.214388 480.853899 
L 606.476838 471.457051 
L 606.738427 469.231594 
L 606.999159 468.81759 
L 607.25904 478.390932 
L 607.518076 471.689091 
L 607.776273 477.535884 
L 608.033635 470.870949 
L 608.290169 469.399539 
L 608.80077 474.093199 
L 609.054849 476.349385 
L 609.308119 469.359505 
L 609.560587 469.716904 
L 609.812258 469.124144 
L 610.063135 469.320222 
L 610.313225 468.731835 
L 610.562532 473.940994 
L 610.811062 470.216685 
L 611.058818 469.665421 
L 611.305806 474.66361 
L 611.55203 475.556779 
L 611.797496 468.788416 
L 612.28617 472.535169 
L 612.529387 478.550108 
L 612.771864 472.687114 
L 613.013605 471.028699 
L 613.254614 472.520072 
L 613.494897 478.177074 
L 613.734457 469.546828 
L 613.973298 474.201668 
L 614.211426 473.923266 
L 614.448843 477.877788 
L 614.685555 470.409416 
L 614.921566 467.254027 
L 615.15688 479.294479 
L 615.3915 471.98795 
L 615.625431 478.426845 
L 615.858678 478.610698 
L 616.323131 470.638915 
L 616.554347 473.872235 
L 616.784892 475.08479 
L 617.014773 473.444104 
L 617.243992 479.884215 
L 617.472553 475.147729 
L 617.700461 474.311524 
L 617.927718 474.929954 
L 618.154329 477.351564 
L 618.380296 472.445529 
L 618.830318 471.440473 
L 619.054379 481.627537 
L 619.277811 482.093384 
L 619.500618 473.492253 
L 620.165325 482.554089 
L 620.385667 474.369149 
L 620.605401 472.296762 
L 620.824531 476.562571 
L 621.043059 476.58692 
L 621.26099 478.366151 
L 621.69507 472.145334 
L 621.911227 478.606584 
L 622.126798 473.754411 
L 622.341787 473.741782 
L 622.770034 478.140018 
L 622.983296 476.977347 
L 623.195989 480.367868 
L 623.408116 468.68843 
L 623.61968 476.113183 
L 623.830683 474.371727 
L 624.041128 469.915021 
L 624.251019 474.66818 
L 624.460358 471.793212 
L 624.669149 471.354042 
L 624.877394 480.662542 
L 625.085096 472.291116 
L 625.498881 471.579287 
L 625.704971 479.456674 
L 626.115557 470.547307 
L 626.524038 476.636953 
L 626.727495 477.988366 
L 626.930435 473.477808 
L 627.132858 478.062234 
L 627.334768 475.238123 
L 627.536168 477.376995 
L 627.73706 494.156892 
L 627.937446 471.238784 
L 628.336713 480.339375 
L 628.535599 476.496479 
L 628.733989 474.870425 
L 629.326211 479.271222 
L 629.718594 471.401957 
L 629.914063 479.338735 
L 630.109054 469.795602 
L 630.303568 472.440389 
L 630.497608 472.360206 
L 630.691177 473.865243 
L 630.884277 483.442994 
L 631.07691 476.899413 
L 631.269078 488.214937 
L 631.460783 473.471939 
L 631.652028 468.724816 
L 631.842815 473.642783 
L 632.033146 493.185738 
L 632.223024 474.119302 
L 632.41245 482.621666 
L 632.601426 477.7922 
L 632.789956 481.281803 
L 632.97804 482.110844 
L 633.165681 472.247716 
L 633.352881 476.87891 
L 633.539642 471.446792 
L 633.725966 476.277791 
L 633.911856 474.546828 
L 634.097312 477.476715 
L 634.282338 476.616571 
L 634.466935 467.106629 
L 634.83485 481.327287 
L 635.018173 492.023483 
L 635.201074 473.363137 
L 635.383557 468.28713 
L 635.565622 472.778519 
L 635.747272 472.091147 
L 635.928509 472.540936 
L 636.109335 475.057158 
L 636.289751 475.97925 
L 636.469759 479.388511 
L 636.649361 477.699996 
L 637.007355 477.028424 
L 637.185751 482.115164 
L 637.541348 471.378673 
L 637.718553 472.874607 
L 638.071784 480.094826 
L 638.247814 480.040942 
L 638.423456 472.492455 
L 638.598712 474.766399 
L 638.773582 482.012476 
L 638.94807 471.37725 
L 639.295903 482.665908 
L 639.469251 470.893822 
L 639.642223 470.147233 
L 639.81482 471.087456 
L 640.158897 481.227109 
L 640.330379 479.079397 
L 640.501493 482.693509 
L 640.67224 469.277903 
L 640.842622 485.808855 
L 641.012641 474.956133 
L 641.182297 481.624045 
L 641.351593 470.10293 
L 641.689108 480.675666 
L 641.857331 481.611584 
L 642.0252 473.825448 
L 642.192715 472.875353 
L 642.359879 483.925299 
L 642.526693 482.38179 
L 642.693158 477.308494 
L 642.859276 483.131057 
L 643.025049 473.865004 
L 643.190477 486.430335 
L 643.355562 469.193246 
L 643.520306 481.204349 
L 643.684709 473.225825 
L 643.848774 479.221651 
L 644.012502 470.26959 
L 644.338952 479.223523 
L 644.501676 472.090866 
L 644.664069 471.501078 
L 644.826131 475.237105 
L 644.987864 489.182033 
L 645.14927 470.494016 
L 645.310349 486.535832 
L 645.471103 475.577728 
L 645.631533 475.883724 
L 645.791641 477.674277 
L 645.951427 476.961169 
L 646.110894 477.086334 
L 646.270042 484.124775 
L 646.428873 474.453968 
L 646.587387 473.843933 
L 646.903473 485.860708 
L 647.061047 483.685439 
L 647.21831 475.279076 
L 647.375263 475.872547 
L 647.531907 471.292411 
L 647.688244 475.101931 
L 647.844274 473.078298 
L 647.844274 473.078298 
" style="fill:none;stroke:#b22222;stroke-linecap:round;stroke-width:1.75;"/>
   </g>
   <g id="patch_6">
    <path d="M 90 512.64 
L 90 311.04 
" style="fill:none;stroke:#262626;stroke-linecap:square;stroke-linejoin:miter;stroke-width:1.25;"/>
   </g>
   <g id="patch_7">
    <path d="M 90 512.64 
L 648 512.64 
" style="fill:none;stroke:#262626;stroke-linecap:square;stroke-linejoin:miter;stroke-width:1.25;"/>
   </g>
  </g>
 </g>
 <defs>
  <clipPath id="p7110df3ab7">
   <rect height="201.6" width="558" x="90" y="69.12"/>
  </clipPath>
  <clipPath id="p580414e41f">
   <rect height="201.6" width="558" x="90" y="311.04"/>
  </clipPath>
 </defs>
</svg>
