<?xml version="1.0" encoding="utf-8" standalone="no"?>
<!DOCTYPE svg PUBLIC "-//W3C//DTD SVG 1.1//EN"
  "http://www.w3.org/Graphics/SVG/1.1/DTD/svg11.dtd">
<!-- Created with matplotlib (http://matplotlib.org/) -->
<svg height="576pt" version="1.1" viewBox="0 0 720 576" width="720pt" xmlns="http://www.w3.org/2000/svg" xmlns:xlink="http://www.w3.org/1999/xlink">
 <defs>
  <style type="text/css">
*{stroke-linecap:butt;stroke-linejoin:round;}
  </style>
 </defs>
 <g id="figure_1">
  <g id="patch_1">
   <path d="M 0 576 
L 720 576 
L 720 0 
L 0 0 
z
" style="fill:#ffffff;"/>
  </g>
  <g id="axes_1">
   <g id="patch_2">
    <path d="M 90 270.72 
L 648 270.72 
L 648 69.12 
L 90 69.12 
z
" style="fill:#ffffff;"/>
   </g>
   <g id="matplotlib.axis_1">
    <g id="xtick_1">
     <g id="line2d_1">
      <defs>
       <path d="M 0 0 
L 0 6 
" id="m94fbaabd86" style="stroke:#262626;"/>
      </defs>
      <g>
       <use style="fill:#262626;stroke:#262626;" x="90" xlink:href="#m94fbaabd86" y="270.72"/>
      </g>
     </g>
     <g id="text_1">
      <!-- 0 -->
      <defs>
       <path d="M 4.15625 35.296875 
Q 4.15625 48 6.765625 55.734375 
Q 9.375 63.484375 14.515625 67.671875 
Q 19.671875 71.875 27.484375 71.875 
Q 33.25 71.875 37.59375 69.546875 
Q 41.9375 67.234375 44.765625 62.859375 
Q 47.609375 58.5 49.21875 52.21875 
Q 50.828125 45.953125 50.828125 35.296875 
Q 50.828125 22.703125 48.234375 14.96875 
Q 45.65625 7.234375 40.5 3 
Q 35.359375 -1.21875 27.484375 -1.21875 
Q 17.140625 -1.21875 11.234375 6.203125 
Q 4.15625 15.140625 4.15625 35.296875 
z
M 13.1875 35.296875 
Q 13.1875 17.671875 17.3125 11.828125 
Q 21.4375 6 27.484375 6 
Q 33.546875 6 37.671875 11.859375 
Q 41.796875 17.71875 41.796875 35.296875 
Q 41.796875 52.984375 37.671875 58.78125 
Q 33.546875 64.59375 27.390625 64.59375 
Q 21.34375 64.59375 17.71875 59.46875 
Q 13.1875 52.9375 13.1875 35.296875 
z
" id="ArialMT-30"/>
      </defs>
      <g style="fill:#262626;" transform="translate(87.219531 290.877812)scale(0.1 -0.1)">
       <use xlink:href="#ArialMT-30"/>
      </g>
     </g>
    </g>
    <g id="xtick_2">
     <g id="line2d_2">
      <g>
       <use style="fill:#262626;stroke:#262626;" x="198.984375" xlink:href="#m94fbaabd86" y="270.72"/>
      </g>
     </g>
     <g id="text_2">
      <!-- 200 -->
      <defs>
       <path d="M 50.34375 8.453125 
L 50.34375 0 
L 3.03125 0 
Q 2.9375 3.171875 4.046875 6.109375 
Q 5.859375 10.9375 9.828125 15.625 
Q 13.8125 20.3125 21.34375 26.46875 
Q 33.015625 36.03125 37.109375 41.625 
Q 41.21875 47.21875 41.21875 52.203125 
Q 41.21875 57.421875 37.46875 61 
Q 33.734375 64.59375 27.734375 64.59375 
Q 21.390625 64.59375 17.578125 60.78125 
Q 13.765625 56.984375 13.71875 50.25 
L 4.6875 51.171875 
Q 5.609375 61.28125 11.65625 66.578125 
Q 17.71875 71.875 27.9375 71.875 
Q 38.234375 71.875 44.234375 66.15625 
Q 50.25 60.453125 50.25 52 
Q 50.25 47.703125 48.484375 43.546875 
Q 46.734375 39.40625 42.65625 34.8125 
Q 38.578125 30.21875 29.109375 22.21875 
Q 21.1875 15.578125 18.9375 13.203125 
Q 16.703125 10.84375 15.234375 8.453125 
z
" id="ArialMT-32"/>
      </defs>
      <g style="fill:#262626;" transform="translate(190.642969 290.877812)scale(0.1 -0.1)">
       <use xlink:href="#ArialMT-32"/>
       <use x="55.615234" xlink:href="#ArialMT-30"/>
       <use x="111.230469" xlink:href="#ArialMT-30"/>
      </g>
     </g>
    </g>
    <g id="xtick_3">
     <g id="line2d_3">
      <g>
       <use style="fill:#262626;stroke:#262626;" x="307.96875" xlink:href="#m94fbaabd86" y="270.72"/>
      </g>
     </g>
     <g id="text_3">
      <!-- 400 -->
      <defs>
       <path d="M 32.328125 0 
L 32.328125 17.140625 
L 1.265625 17.140625 
L 1.265625 25.203125 
L 33.9375 71.578125 
L 41.109375 71.578125 
L 41.109375 25.203125 
L 50.78125 25.203125 
L 50.78125 17.140625 
L 41.109375 17.140625 
L 41.109375 0 
z
M 32.328125 25.203125 
L 32.328125 57.46875 
L 9.90625 25.203125 
z
" id="ArialMT-34"/>
      </defs>
      <g style="fill:#262626;" transform="translate(299.627344 290.877812)scale(0.1 -0.1)">
       <use xlink:href="#ArialMT-34"/>
       <use x="55.615234" xlink:href="#ArialMT-30"/>
       <use x="111.230469" xlink:href="#ArialMT-30"/>
      </g>
     </g>
    </g>
    <g id="xtick_4">
     <g id="line2d_4">
      <g>
       <use style="fill:#262626;stroke:#262626;" x="416.953125" xlink:href="#m94fbaabd86" y="270.72"/>
      </g>
     </g>
     <g id="text_4">
      <!-- 600 -->
      <defs>
       <path d="M 49.75 54.046875 
L 41.015625 53.375 
Q 39.84375 58.546875 37.703125 60.890625 
Q 34.125 64.65625 28.90625 64.65625 
Q 24.703125 64.65625 21.53125 62.3125 
Q 17.390625 59.28125 14.984375 53.46875 
Q 12.59375 47.65625 12.5 36.921875 
Q 15.671875 41.75 20.265625 44.09375 
Q 24.859375 46.4375 29.890625 46.4375 
Q 38.671875 46.4375 44.84375 39.96875 
Q 51.03125 33.5 51.03125 23.25 
Q 51.03125 16.5 48.125 10.71875 
Q 45.21875 4.9375 40.140625 1.859375 
Q 35.0625 -1.21875 28.609375 -1.21875 
Q 17.625 -1.21875 10.6875 6.859375 
Q 3.765625 14.9375 3.765625 33.5 
Q 3.765625 54.25 11.421875 63.671875 
Q 18.109375 71.875 29.4375 71.875 
Q 37.890625 71.875 43.28125 67.140625 
Q 48.6875 62.40625 49.75 54.046875 
z
M 13.875 23.1875 
Q 13.875 18.65625 15.796875 14.5 
Q 17.71875 10.359375 21.1875 8.171875 
Q 24.65625 6 28.46875 6 
Q 34.03125 6 38.03125 10.484375 
Q 42.046875 14.984375 42.046875 22.703125 
Q 42.046875 30.125 38.078125 34.390625 
Q 34.125 38.671875 28.125 38.671875 
Q 22.171875 38.671875 18.015625 34.390625 
Q 13.875 30.125 13.875 23.1875 
z
" id="ArialMT-36"/>
      </defs>
      <g style="fill:#262626;" transform="translate(408.611719 290.877812)scale(0.1 -0.1)">
       <use xlink:href="#ArialMT-36"/>
       <use x="55.615234" xlink:href="#ArialMT-30"/>
       <use x="111.230469" xlink:href="#ArialMT-30"/>
      </g>
     </g>
    </g>
    <g id="xtick_5">
     <g id="line2d_5">
      <g>
       <use style="fill:#262626;stroke:#262626;" x="525.9375" xlink:href="#m94fbaabd86" y="270.72"/>
      </g>
     </g>
     <g id="text_5">
      <!-- 800 -->
      <defs>
       <path d="M 17.671875 38.8125 
Q 12.203125 40.828125 9.5625 44.53125 
Q 6.9375 48.25 6.9375 53.421875 
Q 6.9375 61.234375 12.546875 66.546875 
Q 18.171875 71.875 27.484375 71.875 
Q 36.859375 71.875 42.578125 66.421875 
Q 48.296875 60.984375 48.296875 53.171875 
Q 48.296875 48.1875 45.671875 44.5 
Q 43.0625 40.828125 37.75 38.8125 
Q 44.34375 36.671875 47.78125 31.875 
Q 51.21875 27.09375 51.21875 20.453125 
Q 51.21875 11.28125 44.71875 5.03125 
Q 38.234375 -1.21875 27.640625 -1.21875 
Q 17.046875 -1.21875 10.546875 5.046875 
Q 4.046875 11.328125 4.046875 20.703125 
Q 4.046875 27.6875 7.59375 32.390625 
Q 11.140625 37.109375 17.671875 38.8125 
z
M 15.921875 53.71875 
Q 15.921875 48.640625 19.1875 45.40625 
Q 22.46875 42.1875 27.6875 42.1875 
Q 32.765625 42.1875 36.015625 45.375 
Q 39.265625 48.578125 39.265625 53.21875 
Q 39.265625 58.0625 35.90625 61.359375 
Q 32.5625 64.65625 27.59375 64.65625 
Q 22.5625 64.65625 19.234375 61.421875 
Q 15.921875 58.203125 15.921875 53.71875 
z
M 13.09375 20.65625 
Q 13.09375 16.890625 14.875 13.375 
Q 16.65625 9.859375 20.171875 7.921875 
Q 23.6875 6 27.734375 6 
Q 34.03125 6 38.125 10.046875 
Q 42.234375 14.109375 42.234375 20.359375 
Q 42.234375 26.703125 38.015625 30.859375 
Q 33.796875 35.015625 27.4375 35.015625 
Q 21.234375 35.015625 17.15625 30.90625 
Q 13.09375 26.8125 13.09375 20.65625 
z
" id="ArialMT-38"/>
      </defs>
      <g style="fill:#262626;" transform="translate(517.596094 290.877812)scale(0.1 -0.1)">
       <use xlink:href="#ArialMT-38"/>
       <use x="55.615234" xlink:href="#ArialMT-30"/>
       <use x="111.230469" xlink:href="#ArialMT-30"/>
      </g>
     </g>
    </g>
    <g id="xtick_6">
     <g id="line2d_6">
      <g>
       <use style="fill:#262626;stroke:#262626;" x="634.921875" xlink:href="#m94fbaabd86" y="270.72"/>
      </g>
     </g>
     <g id="text_6">
      <!-- 1000 -->
      <defs>
       <path d="M 37.25 0 
L 28.46875 0 
L 28.46875 56 
Q 25.296875 52.984375 20.140625 49.953125 
Q 14.984375 46.921875 10.890625 45.40625 
L 10.890625 53.90625 
Q 18.265625 57.375 23.78125 62.296875 
Q 29.296875 67.234375 31.59375 71.875 
L 37.25 71.875 
z
" id="ArialMT-31"/>
      </defs>
      <g style="fill:#262626;" transform="translate(623.8 290.877812)scale(0.1 -0.1)">
       <use xlink:href="#ArialMT-31"/>
       <use x="55.615234" xlink:href="#ArialMT-30"/>
       <use x="111.230469" xlink:href="#ArialMT-30"/>
       <use x="166.845703" xlink:href="#ArialMT-30"/>
      </g>
     </g>
    </g>
   </g>
   <g id="matplotlib.axis_2">
    <g id="ytick_1">
     <g id="line2d_7">
      <defs>
       <path d="M 0 0 
L -6 0 
" id="m1ebb0a129f" style="stroke:#262626;"/>
      </defs>
      <g>
       <use style="fill:#262626;stroke:#262626;" x="90" xlink:href="#m1ebb0a129f" y="270.72"/>
      </g>
     </g>
     <g id="text_7">
      <!-- −0.6 -->
      <defs>
       <path d="M 52.828125 31.203125 
L 5.5625 31.203125 
L 5.5625 39.40625 
L 52.828125 39.40625 
z
" id="ArialMT-2212"/>
       <path d="M 9.078125 0 
L 9.078125 10.015625 
L 19.09375 10.015625 
L 19.09375 0 
z
" id="ArialMT-2e"/>
      </defs>
      <g style="fill:#262626;" transform="translate(57.259375 274.298906)scale(0.1 -0.1)">
       <use xlink:href="#ArialMT-2212"/>
       <use x="58.398438" xlink:href="#ArialMT-30"/>
       <use x="114.013672" xlink:href="#ArialMT-2e"/>
       <use x="141.796875" xlink:href="#ArialMT-36"/>
      </g>
     </g>
    </g>
    <g id="ytick_2">
     <g id="line2d_8">
      <g>
       <use style="fill:#262626;stroke:#262626;" x="90" xlink:href="#m1ebb0a129f" y="237.12"/>
      </g>
     </g>
     <g id="text_8">
      <!-- −0.4 -->
      <g style="fill:#262626;" transform="translate(57.259375 240.698906)scale(0.1 -0.1)">
       <use xlink:href="#ArialMT-2212"/>
       <use x="58.398438" xlink:href="#ArialMT-30"/>
       <use x="114.013672" xlink:href="#ArialMT-2e"/>
       <use x="141.796875" xlink:href="#ArialMT-34"/>
      </g>
     </g>
    </g>
    <g id="ytick_3">
     <g id="line2d_9">
      <g>
       <use style="fill:#262626;stroke:#262626;" x="90" xlink:href="#m1ebb0a129f" y="203.52"/>
      </g>
     </g>
     <g id="text_9">
      <!-- −0.2 -->
      <g style="fill:#262626;" transform="translate(57.259375 207.098906)scale(0.1 -0.1)">
       <use xlink:href="#ArialMT-2212"/>
       <use x="58.398438" xlink:href="#ArialMT-30"/>
       <use x="114.013672" xlink:href="#ArialMT-2e"/>
       <use x="141.796875" xlink:href="#ArialMT-32"/>
      </g>
     </g>
    </g>
    <g id="ytick_4">
     <g id="line2d_10">
      <g>
       <use style="fill:#262626;stroke:#262626;" x="90" xlink:href="#m1ebb0a129f" y="169.92"/>
      </g>
     </g>
     <g id="text_10">
      <!-- 0.0 -->
      <g style="fill:#262626;" transform="translate(63.1 173.498906)scale(0.1 -0.1)">
       <use xlink:href="#ArialMT-30"/>
       <use x="55.615234" xlink:href="#ArialMT-2e"/>
       <use x="83.398438" xlink:href="#ArialMT-30"/>
      </g>
     </g>
    </g>
    <g id="ytick_5">
     <g id="line2d_11">
      <g>
       <use style="fill:#262626;stroke:#262626;" x="90" xlink:href="#m1ebb0a129f" y="136.32"/>
      </g>
     </g>
     <g id="text_11">
      <!-- 0.2 -->
      <g style="fill:#262626;" transform="translate(63.1 139.898906)scale(0.1 -0.1)">
       <use xlink:href="#ArialMT-30"/>
       <use x="55.615234" xlink:href="#ArialMT-2e"/>
       <use x="83.398438" xlink:href="#ArialMT-32"/>
      </g>
     </g>
    </g>
    <g id="ytick_6">
     <g id="line2d_12">
      <g>
       <use style="fill:#262626;stroke:#262626;" x="90" xlink:href="#m1ebb0a129f" y="102.72"/>
      </g>
     </g>
     <g id="text_12">
      <!-- 0.4 -->
      <g style="fill:#262626;" transform="translate(63.1 106.298906)scale(0.1 -0.1)">
       <use xlink:href="#ArialMT-30"/>
       <use x="55.615234" xlink:href="#ArialMT-2e"/>
       <use x="83.398438" xlink:href="#ArialMT-34"/>
      </g>
     </g>
    </g>
    <g id="ytick_7">
     <g id="line2d_13">
      <g>
       <use style="fill:#262626;stroke:#262626;" x="90" xlink:href="#m1ebb0a129f" y="69.12"/>
      </g>
     </g>
     <g id="text_13">
      <!-- 0.6 -->
      <g style="fill:#262626;" transform="translate(63.1 72.698906)scale(0.1 -0.1)">
       <use xlink:href="#ArialMT-30"/>
       <use x="55.615234" xlink:href="#ArialMT-2e"/>
       <use x="83.398438" xlink:href="#ArialMT-36"/>
      </g>
     </g>
    </g>
   </g>
   <g id="line2d_14">
    <path clip-path="url(#p8d83390dbd)" d="M 90 191.689043 
L 91.089844 189.274248 
L 91.634766 187.766924 
L 92.724609 184.244707 
L 96.539062 172.350176 
L 97.083984 170.689043 
L 97.628906 169.812334 
L 98.71875 167.259111 
L 99.808594 165.74666 
L 100.898438 164.67 
L 101.443359 164.218828 
L 101.988281 164.439287 
L 102.533203 164.490557 
L 103.078125 164.880205 
L 104.167969 166.090166 
L 106.347656 169.227861 
L 106.892578 169.80208 
L 107.4375 169.858477 
L 107.982422 170.612139 
L 108.527344 170.591631 
L 109.072266 170.412187 
L 110.707031 168.945879 
L 111.251953 167.8846 
L 111.796875 167.300127 
L 112.341797 166.361895 
L 112.886719 165.721025 
L 113.431641 164.880205 
L 114.521484 163.89583 
L 115.066406 163.485674 
L 115.611328 163.254961 
L 116.15625 163.398516 
L 116.701172 163.326738 
L 117.246094 163.649736 
L 117.791016 164.429033 
L 118.335938 164.654619 
L 119.425781 166.028643 
L 120.515625 167.264238 
L 121.605469 168.940752 
L 125.964844 173.314043 
L 126.509766 174.185625 
L 127.054688 174.744463 
L 127.599609 175.580156 
L 130.324219 178.323076 
L 131.414062 178.928057 
L 131.958984 179.497148 
L 133.048828 179.317705 
L 133.59375 179.420244 
L 134.138672 179.338213 
L 135.228516 178.225664 
L 135.773438 177.91292 
L 137.953125 174.216387 
L 139.042969 171.832354 
L 140.677734 167.300127 
L 141.222656 165.828691 
L 142.857422 160.727373 
L 143.947266 157.748613 
L 145.037109 155.456865 
L 145.582031 154.416094 
L 146.126953 153.621416 
L 147.216797 152.55501 
L 147.761719 152.175615 
L 148.851562 151.739824 
L 150.486328 151.939775 
L 151.03125 152.339678 
L 152.121094 153.785479 
L 153.210938 155.733721 
L 157.025391 164.675127 
L 157.570312 165.705645 
L 158.115234 166.459307 
L 158.660156 166.889971 
L 159.75 167.048906 
L 160.294922 166.766924 
L 161.384766 165.649248 
L 161.929688 164.772539 
L 163.564453 161.419512 
L 164.654297 159.691729 
L 165.199219 159.179033 
L 165.744141 158.917559 
L 166.289062 158.968828 
L 166.833984 159.36873 
L 167.378906 160.040361 
L 167.923828 161.009355 
L 169.013672 163.736895 
L 170.648438 169.1971 
L 171.738281 173.047441 
L 172.283203 174.616289 
L 172.828125 176.605547 
L 173.373047 177.877031 
L 173.917969 179.732988 
L 175.552734 183.983232 
L 176.097656 185.111162 
L 176.642578 186.531328 
L 177.732422 188.238604 
L 178.822266 189.366533 
L 179.367188 189.238359 
L 179.912109 189.361406 
L 180.457031 188.797441 
L 181.001953 188.474443 
L 182.636719 185.536699 
L 183.726562 182.316973 
L 184.816406 179.425371 
L 186.451172 174.354814 
L 188.085938 169.73543 
L 190.265625 164.034258 
L 190.810547 162.711504 
L 191.900391 160.896562 
L 192.445312 160.265947 
L 192.990234 160.07625 
L 194.625 160.301836 
L 195.169922 161.163164 
L 195.714844 161.768145 
L 196.804688 163.557451 
L 197.349609 164.218828 
L 197.894531 165.069902 
L 198.439453 165.551836 
L 200.074219 166.382402 
L 201.708984 165.269854 
L 202.253906 164.782793 
L 202.798828 163.977861 
L 203.34375 163.485674 
L 203.888672 162.362871 
L 204.978516 161.019609 
L 205.523438 160.358232 
L 207.158203 159.127764 
L 207.703125 159.061113 
L 208.792969 159.609697 
L 209.882812 160.471025 
L 210.972656 161.855303 
L 216.421875 167.95125 
L 219.146484 171.458086 
L 219.691406 172.519365 
L 220.236328 173.098711 
L 221.326172 174.775225 
L 222.960938 176.144121 
L 224.050781 176.769609 
L 224.595703 177.149004 
L 225.140625 177.210527 
L 226.775391 176.682451 
L 227.320312 176.226152 
L 227.865234 176.046709 
L 228.410156 175.087969 
L 228.955078 174.595781 
L 230.044922 172.350176 
L 230.589844 171.2325 
L 232.769531 165.254473 
L 233.314453 163.388262 
L 235.494141 157.907549 
L 236.583984 155.456865 
L 238.763672 152.170488 
L 239.853516 151.180986 
L 240.398438 150.806719 
L 240.943359 150.570879 
L 241.488281 150.540117 
L 242.578125 150.775957 
L 243.667969 151.893633 
L 244.212891 152.729326 
L 246.392578 157.697344 
L 248.572266 163.075518 
L 249.662109 164.97249 
L 250.751953 166.120928 
L 251.296875 166.085039 
L 252.386719 165.413408 
L 253.476562 163.649736 
L 254.021484 162.839678 
L 254.566406 161.547686 
L 255.111328 160.701738 
L 256.201172 158.538164 
L 257.291016 157.763994 
L 258.380859 158.025469 
L 260.015625 160.491533 
L 263.285156 169.950762 
L 266.554688 180.568682 
L 268.189453 185.377764 
L 269.824219 188.484697 
L 270.369141 189.207598 
L 271.458984 189.628008 
L 272.003906 189.628008 
L 272.548828 189.258867 
L 273.09375 188.602617 
L 274.183594 186.823564 
L 275.818359 183.239824 
L 278.542969 176.077471 
L 281.267578 167.910234 
L 282.357422 165.172441 
L 282.902344 164.054766 
L 283.992188 162.455156 
L 285.082031 161.865557 
L 285.626953 162.127031 
L 286.171875 162.716631 
L 286.716797 162.783281 
L 287.261719 163.757402 
L 288.351562 165.003252 
L 289.441406 166.69002 
L 289.986328 167.007891 
L 291.076172 168.028154 
L 291.621094 168.079424 
L 292.166016 167.992266 
L 293.255859 167.17708 
L 294.345703 166.392656 
L 295.980469 163.977861 
L 297.615234 162.28084 
L 298.705078 161.660479 
L 299.794922 161.99373 
L 300.339844 162.316729 
L 300.884766 162.342363 
L 302.519531 163.624102 
L 303.609375 164.741777 
L 304.154297 165.408281 
L 304.699219 165.715898 
L 305.244141 166.397783 
L 305.789062 166.751543 
L 306.333984 167.505205 
L 306.878906 167.920488 
L 307.423828 168.951006 
L 307.96875 169.176592 
L 312.873047 176.656816 
L 315.052734 179.061357 
L 316.6875 180.286699 
L 318.867188 180.466143 
L 319.412109 179.917559 
L 319.957031 179.902178 
L 322.136719 176.113359 
L 324.861328 169.376543 
L 325.951172 166.551592 
L 327.585938 162.660234 
L 329.220703 159.578936 
L 330.310547 157.512773 
L 330.855469 156.620684 
L 331.400391 155.943926 
L 332.490234 154.980059 
L 333.580078 154.508379 
L 334.125 154.959551 
L 334.669922 154.959551 
L 336.849609 157.938311 
L 341.208984 168.858721 
L 341.753906 169.514971 
L 342.298828 169.899492 
L 343.388672 170.119951 
L 343.933594 169.586748 
L 345.568359 167.079668 
L 347.748047 163.126787 
L 348.837891 162.255205 
L 349.382812 162.39876 
L 349.927734 162.388506 
L 350.472656 162.870439 
L 352.107422 165.249346 
L 353.197266 167.83333 
L 353.742188 169.479082 
L 354.287109 170.663408 
L 355.921875 176.318437 
L 357.011719 179.738115 
L 358.101562 183.716631 
L 359.736328 189.048662 
L 361.371094 192.883623 
L 361.916016 193.673174 
L 362.460938 194.185869 
L 363.005859 194.462725 
L 364.095703 194.462725 
L 364.640625 194.088457 
L 365.730469 192.893877 
L 366.275391 192.150469 
L 367.365234 190.171465 
L 367.910156 189.074297 
L 370.634766 181.37874 
L 372.814453 174.221514 
L 373.904297 171.365801 
L 374.994141 169.232988 
L 375.539062 168.653643 
L 376.628906 168.028154 
L 377.71875 167.910234 
L 378.808594 169.07918 
L 380.443359 171.063311 
L 380.988281 171.529863 
L 381.533203 172.216875 
L 382.078125 172.575762 
L 382.623047 173.088457 
L 383.167969 173.098711 
L 383.712891 172.96541 
L 384.802734 172.345049 
L 386.4375 170.586504 
L 386.982422 169.494463 
L 388.617188 167.47957 
L 389.707031 166.87459 
L 390.251953 166.531084 
L 392.431641 166.566973 
L 394.066406 167.746172 
L 394.611328 167.915361 
L 396.246094 168.90999 
L 398.970703 171.9554 
L 402.785156 176.831133 
L 403.330078 177.759111 
L 403.875 178.466631 
L 404.964844 179.435625 
L 406.599609 181.68123 
L 407.689453 182.716875 
L 408.234375 183.485918 
L 408.779297 183.931963 
L 409.324219 184.029375 
L 409.869141 184.275469 
L 410.414062 184.219072 
L 410.958984 184.30623 
L 411.503906 183.978105 
L 412.048828 183.106523 
L 412.59375 182.619463 
L 413.138672 181.578691 
L 413.683594 180.819902 
L 417.498047 172.468096 
L 418.042969 170.950518 
L 418.587891 169.796953 
L 420.222656 165.700518 
L 420.767578 164.531572 
L 421.3125 163.65999 
L 421.857422 162.193682 
L 423.492188 159.563555 
L 424.582031 158.22542 
L 425.126953 158.22542 
L 425.671875 157.851152 
L 426.216797 157.820391 
L 427.306641 158.522783 
L 427.851562 159.307207 
L 428.396484 160.317217 
L 428.941406 161.896318 
L 429.486328 162.993486 
L 430.03125 164.439287 
L 430.576172 166.208086 
L 432.755859 171.386309 
L 433.300781 172.180986 
L 433.845703 172.683428 
L 434.390625 172.84749 
L 434.935547 172.791094 
L 435.480469 171.852861 
L 436.025391 171.555498 
L 437.660156 168.72542 
L 438.205078 167.582109 
L 439.839844 165.239092 
L 440.384766 164.690508 
L 440.929688 164.372637 
L 441.474609 164.639238 
L 442.019531 164.654619 
L 442.564453 165.064775 
L 443.109375 165.331377 
L 443.654297 166.023516 
L 445.289062 168.997148 
L 445.833984 170.355791 
L 446.378906 172.037432 
L 447.46875 174.944414 
L 448.558594 178.856279 
L 449.648438 182.896318 
L 451.283203 188.633379 
L 452.373047 191.535234 
L 453.462891 193.621904 
L 454.007812 194.421709 
L 455.097656 195.180498 
L 455.642578 195.334307 
L 456.1875 195.252275 
L 456.732422 194.913896 
L 457.277344 194.724199 
L 457.822266 194.344805 
L 458.912109 192.981035 
L 460.001953 190.473955 
L 462.726562 182.393877 
L 464.361328 177.000322 
L 465.996094 172.211748 
L 466.541016 171.324785 
L 467.085938 170.771074 
L 467.630859 169.837969 
L 468.175781 169.545732 
L 469.810547 170.084062 
L 470.355469 170.34041 
L 470.900391 171.012041 
L 471.445312 171.309404 
L 471.990234 172.170732 
L 472.535156 172.683428 
L 473.080078 173.43709 
L 474.169922 174.190752 
L 474.714844 174.21126 
L 475.259766 174.047197 
L 475.804688 174.057451 
L 477.439453 172.283525 
L 477.984375 171.309404 
L 478.529297 170.806963 
L 479.619141 169.120195 
L 480.164062 168.648516 
L 480.708984 168.433184 
L 482.34375 167.53084 
L 482.888672 167.500078 
L 484.523438 167.8846 
L 485.068359 167.869219 
L 485.613281 168.433184 
L 486.158203 168.402422 
L 487.248047 168.956133 
L 488.337891 170.058428 
L 489.972656 171.365801 
L 490.517578 172.283525 
L 491.0625 172.801348 
L 492.152344 174.385576 
L 492.697266 175.431475 
L 493.242188 176.021074 
L 494.876953 178.579424 
L 495.421875 178.948564 
L 497.056641 180.871172 
L 497.601562 182.009355 
L 498.146484 182.865557 
L 499.236328 184.188311 
L 499.78125 185.059893 
L 500.326172 185.628984 
L 501.416016 186.290361 
L 501.960938 186.351885 
L 502.505859 186.541582 
L 503.050781 185.844316 
L 503.595703 185.664873 
L 504.140625 185.746904 
L 504.685547 184.690752 
L 505.775391 183.275713 
L 507.410156 180.06624 
L 509.589844 175.790361 
L 511.224609 172.093828 
L 512.314453 169.720049 
L 512.859375 168.207598 
L 513.404297 167.315508 
L 516.128906 161.901445 
L 516.673828 161.670732 
L 517.21875 161.260576 
L 517.763672 161.019609 
L 518.308594 161.44002 
L 518.853516 161.619463 
L 519.943359 163.311357 
L 521.033203 166.279863 
L 522.123047 169.161211 
L 522.667969 170.899248 
L 523.757812 173.426836 
L 525.392578 175.780107 
L 525.9375 176.005693 
L 526.482422 175.800615 
L 527.027344 175.308428 
L 527.572266 175.108477 
L 530.841797 169.930254 
L 533.021484 168.202471 
L 533.566406 168.06917 
L 534.65625 168.602373 
L 535.201172 168.822832 
L 535.746094 169.268877 
L 536.835938 171.509355 
L 537.380859 172.580889 
L 537.925781 173.375566 
L 539.015625 176.805498 
L 540.105469 180.671221 
L 543.919922 193.411699 
L 544.464844 194.657549 
L 545.009766 195.621416 
L 545.554688 196.882646 
L 546.099609 197.826006 
L 547.189453 198.72835 
L 547.734375 198.836016 
L 548.279297 199.251299 
L 548.824219 199.133379 
L 549.369141 198.866777 
L 550.458984 197.908037 
L 551.003906 197.041582 
L 551.548828 195.913652 
L 552.09375 194.355059 
L 552.638672 193.206621 
L 554.273438 187.833574 
L 555.363281 184.249834 
L 556.998047 179.051104 
L 558.087891 176.149248 
L 558.632812 175.108477 
L 559.177734 174.334307 
L 560.267578 173.580645 
L 561.357422 174.134355 
L 561.902344 174.69832 
L 562.992188 175.421221 
L 563.537109 176.144121 
L 564.626953 176.979814 
L 565.171875 177.287432 
L 565.716797 177.389971 
L 566.261719 177.051592 
L 566.806641 177.200273 
L 567.351562 177.025957 
L 567.896484 176.174883 
L 568.441406 175.959551 
L 568.986328 175.534014 
L 569.53125 174.893145 
L 570.621094 173.211504 
L 571.166016 172.468096 
L 572.800781 171.329912 
L 573.890625 170.678789 
L 575.525391 170.360918 
L 576.070312 170.043047 
L 576.615234 170.058428 
L 578.25 170.822344 
L 578.794922 171.365801 
L 579.884766 171.791338 
L 580.974609 172.996172 
L 581.519531 173.713945 
L 582.064453 173.893389 
L 582.609375 174.595781 
L 583.699219 175.595537 
L 584.789062 176.831133 
L 585.878906 178.220537 
L 586.96875 179.394609 
L 588.058594 181.563311 
L 589.693359 183.726885 
L 590.238281 184.501055 
L 590.783203 184.957354 
L 591.328125 186.14168 
L 593.507812 187.915605 
L 594.052734 187.99251 
L 594.597656 188.279619 
L 595.142578 188.084795 
L 596.232422 187.326006 
L 596.777344 186.459551 
L 597.867188 185.182939 
L 598.412109 184.280596 
L 600.046875 181.0096 
L 601.681641 177.784746 
L 602.226562 176.503008 
L 603.316406 174.811113 
L 604.40625 171.929766 
L 604.951172 170.632646 
L 606.041016 167.689775 
L 607.675781 163.721514 
L 608.220703 162.737139 
L 608.765625 162.22957 
L 609.310547 162.332109 
L 609.855469 162.101396 
L 610.945312 162.998613 
L 611.490234 164.049639 
L 613.669922 169.92 
L 614.214844 171.673418 
L 615.849609 174.339434 
L 616.394531 174.862383 
L 616.939453 175.631426 
L 618.029297 176.097979 
L 618.574219 176.000566 
L 619.119141 175.262285 
L 619.664062 174.872637 
L 620.208984 173.985674 
L 620.753906 173.749834 
L 621.84375 172.032305 
L 622.388672 171.627275 
L 622.933594 170.87874 
L 623.478516 170.335283 
L 624.023438 169.463701 
L 625.113281 168.48958 
L 626.203125 168.602373 
L 627.292969 168.710039 
L 627.837891 169.284258 
L 628.382812 170.084062 
L 629.472656 172.78084 
L 631.107422 177.169512 
L 632.742188 182.783525 
L 635.466797 191.565996 
L 636.011719 193.083574 
L 636.556641 194.247393 
L 637.101562 195.026689 
L 638.191406 197.590166 
L 638.736328 198.348955 
L 640.371094 199.3846 
L 642.005859 198.595049 
L 642.550781 197.677324 
L 643.095703 196.395586 
L 643.640625 195.805986 
L 644.185547 194.55501 
L 644.730469 192.863115 
L 645.275391 190.607256 
L 645.820312 189.248613 
L 647.455078 183.326982 
L 647.455078 183.326982 
" style="fill:none;stroke:#4c72b0;stroke-linecap:round;stroke-width:1.75;"/>
   </g>
   <g id="patch_3">
    <path d="M 90 270.72 
L 90 69.12 
" style="fill:none;stroke:#262626;stroke-linecap:square;stroke-linejoin:miter;stroke-width:1.25;"/>
   </g>
   <g id="patch_4">
    <path d="M 90 270.72 
L 648 270.72 
" style="fill:none;stroke:#262626;stroke-linecap:square;stroke-linejoin:miter;stroke-width:1.25;"/>
   </g>
  </g>
  <g id="axes_2">
   <g id="patch_5">
    <path d="M 90 512.64 
L 648 512.64 
L 648 311.04 
L 90 311.04 
z
" style="fill:#ffffff;"/>
   </g>
   <g id="matplotlib.axis_3">
    <g id="xtick_7">
     <g id="line2d_15">
      <g>
       <use style="fill:#262626;stroke:#262626;" x="218.197478" xlink:href="#m94fbaabd86" y="512.64"/>
      </g>
     </g>
     <g id="text_14">
      <!-- $\mathdefault{10^{2}}$ -->
      <g style="fill:#262626;" transform="translate(210.347478 535.9525)scale(0.1 -0.1)">
       <use transform="translate(0 0.99375)" xlink:href="#ArialMT-31"/>
       <use transform="translate(55.615234 0.99375)" xlink:href="#ArialMT-30"/>
       <use transform="translate(112.972813 70.6875)scale(0.7)" xlink:href="#ArialMT-32"/>
      </g>
     </g>
    </g>
    <g id="xtick_8">
     <g id="line2d_16">
      <g>
       <use style="fill:#262626;stroke:#262626;" x="401.606604" xlink:href="#m94fbaabd86" y="512.64"/>
      </g>
     </g>
     <g id="text_15">
      <!-- $\mathdefault{10^{3}}$ -->
      <defs>
       <path d="M 4.203125 18.890625 
L 12.984375 20.0625 
Q 14.5 12.59375 18.140625 9.296875 
Q 21.78125 6 27 6 
Q 33.203125 6 37.46875 10.296875 
Q 41.75 14.59375 41.75 20.953125 
Q 41.75 27 37.796875 30.921875 
Q 33.84375 34.859375 27.734375 34.859375 
Q 25.25 34.859375 21.53125 33.890625 
L 22.515625 41.609375 
Q 23.390625 41.5 23.921875 41.5 
Q 29.546875 41.5 34.03125 44.421875 
Q 38.53125 47.359375 38.53125 53.46875 
Q 38.53125 58.296875 35.25 61.46875 
Q 31.984375 64.65625 26.8125 64.65625 
Q 21.6875 64.65625 18.265625 61.421875 
Q 14.84375 58.203125 13.875 51.765625 
L 5.078125 53.328125 
Q 6.6875 62.15625 12.390625 67.015625 
Q 18.109375 71.875 26.609375 71.875 
Q 32.46875 71.875 37.390625 69.359375 
Q 42.328125 66.84375 44.9375 62.5 
Q 47.5625 58.15625 47.5625 53.265625 
Q 47.5625 48.640625 45.0625 44.828125 
Q 42.578125 41.015625 37.703125 38.765625 
Q 44.046875 37.3125 47.5625 32.6875 
Q 51.078125 28.078125 51.078125 21.140625 
Q 51.078125 11.765625 44.234375 5.25 
Q 37.40625 -1.265625 26.953125 -1.265625 
Q 17.53125 -1.265625 11.296875 4.34375 
Q 5.078125 9.96875 4.203125 18.890625 
z
" id="ArialMT-33"/>
      </defs>
      <g style="fill:#262626;" transform="translate(393.756604 535.9525)scale(0.1 -0.1)">
       <use transform="translate(0 0.99375)" xlink:href="#ArialMT-31"/>
       <use transform="translate(55.615234 0.99375)" xlink:href="#ArialMT-30"/>
       <use transform="translate(112.972813 70.6875)scale(0.7)" xlink:href="#ArialMT-33"/>
      </g>
     </g>
    </g>
    <g id="xtick_9">
     <g id="line2d_17">
      <g>
       <use style="fill:#262626;stroke:#262626;" x="585.01573" xlink:href="#m94fbaabd86" y="512.64"/>
      </g>
     </g>
     <g id="text_16">
      <!-- $\mathdefault{10^{4}}$ -->
      <g style="fill:#262626;" transform="translate(577.16573 535.8525)scale(0.1 -0.1)">
       <use transform="translate(0 0.201563)" xlink:href="#ArialMT-31"/>
       <use transform="translate(55.615234 0.201563)" xlink:href="#ArialMT-30"/>
       <use transform="translate(112.972813 69.895313)scale(0.7)" xlink:href="#ArialMT-34"/>
      </g>
     </g>
    </g>
    <g id="xtick_10">
     <g id="line2d_18">
      <defs>
       <path d="M 0 0 
L 0 3 
" id="m5550085b4d" style="stroke:#262626;stroke-width:0.5;"/>
      </defs>
      <g>
       <use style="fill:#262626;stroke:#262626;stroke-width:0.5;" x="90" xlink:href="#m5550085b4d" y="512.64"/>
      </g>
     </g>
    </g>
    <g id="xtick_11">
     <g id="line2d_19">
      <g>
       <use style="fill:#262626;stroke:#262626;stroke-width:0.5;" x="122.296744" xlink:href="#m5550085b4d" y="512.64"/>
      </g>
     </g>
    </g>
    <g id="xtick_12">
     <g id="line2d_20">
      <g>
       <use style="fill:#262626;stroke:#262626;stroke-width:0.5;" x="145.211648" xlink:href="#m5550085b4d" y="512.64"/>
      </g>
     </g>
    </g>
    <g id="xtick_13">
     <g id="line2d_21">
      <g>
       <use style="fill:#262626;stroke:#262626;stroke-width:0.5;" x="162.985829" xlink:href="#m5550085b4d" y="512.64"/>
      </g>
     </g>
    </g>
    <g id="xtick_14">
     <g id="line2d_22">
      <g>
       <use style="fill:#262626;stroke:#262626;stroke-width:0.5;" x="177.508392" xlink:href="#m5550085b4d" y="512.64"/>
      </g>
     </g>
    </g>
    <g id="xtick_15">
     <g id="line2d_23">
      <g>
       <use style="fill:#262626;stroke:#262626;stroke-width:0.5;" x="189.787045" xlink:href="#m5550085b4d" y="512.64"/>
      </g>
     </g>
    </g>
    <g id="xtick_16">
     <g id="line2d_24">
      <g>
       <use style="fill:#262626;stroke:#262626;stroke-width:0.5;" x="200.423297" xlink:href="#m5550085b4d" y="512.64"/>
      </g>
     </g>
    </g>
    <g id="xtick_17">
     <g id="line2d_25">
      <g>
       <use style="fill:#262626;stroke:#262626;stroke-width:0.5;" x="209.805136" xlink:href="#m5550085b4d" y="512.64"/>
      </g>
     </g>
    </g>
    <g id="xtick_18">
     <g id="line2d_26">
      <g>
       <use style="fill:#262626;stroke:#262626;stroke-width:0.5;" x="273.409126" xlink:href="#m5550085b4d" y="512.64"/>
      </g>
     </g>
    </g>
    <g id="xtick_19">
     <g id="line2d_27">
      <g>
       <use style="fill:#262626;stroke:#262626;stroke-width:0.5;" x="305.70587" xlink:href="#m5550085b4d" y="512.64"/>
      </g>
     </g>
    </g>
    <g id="xtick_20">
     <g id="line2d_28">
      <g>
       <use style="fill:#262626;stroke:#262626;stroke-width:0.5;" x="328.620775" xlink:href="#m5550085b4d" y="512.64"/>
      </g>
     </g>
    </g>
    <g id="xtick_21">
     <g id="line2d_29">
      <g>
       <use style="fill:#262626;stroke:#262626;stroke-width:0.5;" x="346.394955" xlink:href="#m5550085b4d" y="512.64"/>
      </g>
     </g>
    </g>
    <g id="xtick_22">
     <g id="line2d_30">
      <g>
       <use style="fill:#262626;stroke:#262626;stroke-width:0.5;" x="360.917518" xlink:href="#m5550085b4d" y="512.64"/>
      </g>
     </g>
    </g>
    <g id="xtick_23">
     <g id="line2d_31">
      <g>
       <use style="fill:#262626;stroke:#262626;stroke-width:0.5;" x="373.196171" xlink:href="#m5550085b4d" y="512.64"/>
      </g>
     </g>
    </g>
    <g id="xtick_24">
     <g id="line2d_32">
      <g>
       <use style="fill:#262626;stroke:#262626;stroke-width:0.5;" x="383.832423" xlink:href="#m5550085b4d" y="512.64"/>
      </g>
     </g>
    </g>
    <g id="xtick_25">
     <g id="line2d_33">
      <g>
       <use style="fill:#262626;stroke:#262626;stroke-width:0.5;" x="393.214262" xlink:href="#m5550085b4d" y="512.64"/>
      </g>
     </g>
    </g>
    <g id="xtick_26">
     <g id="line2d_34">
      <g>
       <use style="fill:#262626;stroke:#262626;stroke-width:0.5;" x="456.818252" xlink:href="#m5550085b4d" y="512.64"/>
      </g>
     </g>
    </g>
    <g id="xtick_27">
     <g id="line2d_35">
      <g>
       <use style="fill:#262626;stroke:#262626;stroke-width:0.5;" x="489.114996" xlink:href="#m5550085b4d" y="512.64"/>
      </g>
     </g>
    </g>
    <g id="xtick_28">
     <g id="line2d_36">
      <g>
       <use style="fill:#262626;stroke:#262626;stroke-width:0.5;" x="512.029901" xlink:href="#m5550085b4d" y="512.64"/>
      </g>
     </g>
    </g>
    <g id="xtick_29">
     <g id="line2d_37">
      <g>
       <use style="fill:#262626;stroke:#262626;stroke-width:0.5;" x="529.804081" xlink:href="#m5550085b4d" y="512.64"/>
      </g>
     </g>
    </g>
    <g id="xtick_30">
     <g id="line2d_38">
      <g>
       <use style="fill:#262626;stroke:#262626;stroke-width:0.5;" x="544.326645" xlink:href="#m5550085b4d" y="512.64"/>
      </g>
     </g>
    </g>
    <g id="xtick_31">
     <g id="line2d_39">
      <g>
       <use style="fill:#262626;stroke:#262626;stroke-width:0.5;" x="556.605297" xlink:href="#m5550085b4d" y="512.64"/>
      </g>
     </g>
    </g>
    <g id="xtick_32">
     <g id="line2d_40">
      <g>
       <use style="fill:#262626;stroke:#262626;stroke-width:0.5;" x="567.241549" xlink:href="#m5550085b4d" y="512.64"/>
      </g>
     </g>
    </g>
    <g id="xtick_33">
     <g id="line2d_41">
      <g>
       <use style="fill:#262626;stroke:#262626;stroke-width:0.5;" x="576.623389" xlink:href="#m5550085b4d" y="512.64"/>
      </g>
     </g>
    </g>
    <g id="xtick_34">
     <g id="line2d_42">
      <g>
       <use style="fill:#262626;stroke:#262626;stroke-width:0.5;" x="640.227378" xlink:href="#m5550085b4d" y="512.64"/>
      </g>
     </g>
    </g>
   </g>
   <g id="matplotlib.axis_4">
    <g id="ytick_8">
     <g id="line2d_43">
      <g>
       <use style="fill:#262626;stroke:#262626;" x="90" xlink:href="#m1ebb0a129f" y="512.64"/>
      </g>
     </g>
     <g id="text_17">
      <!-- $\mathdefault{10^{-5}}$ -->
      <defs>
       <path d="M 4.15625 18.75 
L 13.375 19.53125 
Q 14.40625 12.796875 18.140625 9.390625 
Q 21.875 6 27.15625 6 
Q 33.5 6 37.890625 10.78125 
Q 42.28125 15.578125 42.28125 23.484375 
Q 42.28125 31 38.0625 35.34375 
Q 33.84375 39.703125 27 39.703125 
Q 22.75 39.703125 19.328125 37.765625 
Q 15.921875 35.84375 13.96875 32.765625 
L 5.71875 33.84375 
L 12.640625 70.609375 
L 48.25 70.609375 
L 48.25 62.203125 
L 19.671875 62.203125 
L 15.828125 42.96875 
Q 22.265625 47.46875 29.34375 47.46875 
Q 38.71875 47.46875 45.15625 40.96875 
Q 51.609375 34.46875 51.609375 24.265625 
Q 51.609375 14.546875 45.953125 7.46875 
Q 39.0625 -1.21875 27.15625 -1.21875 
Q 17.390625 -1.21875 11.203125 4.25 
Q 5.03125 9.71875 4.15625 18.75 
z
" id="ArialMT-35"/>
      </defs>
      <g style="fill:#262626;" transform="translate(57.2 517.74625)scale(0.1 -0.1)">
       <use transform="translate(0 0.879688)" xlink:href="#ArialMT-31"/>
       <use transform="translate(55.615234 0.879688)" xlink:href="#ArialMT-30"/>
       <use transform="translate(112.972813 70.573438)scale(0.7)" xlink:href="#ArialMT-2212"/>
       <use transform="translate(153.851719 70.573438)scale(0.7)" xlink:href="#ArialMT-35"/>
      </g>
     </g>
    </g>
    <g id="ytick_9">
     <g id="line2d_44">
      <g>
       <use style="fill:#262626;stroke:#262626;" x="90" xlink:href="#m1ebb0a129f" y="465.767507"/>
      </g>
     </g>
     <g id="text_18">
      <!-- $\mathdefault{10^{-4}}$ -->
      <g style="fill:#262626;" transform="translate(57.2 470.873757)scale(0.1 -0.1)">
       <use transform="translate(0 0.201563)" xlink:href="#ArialMT-31"/>
       <use transform="translate(55.615234 0.201563)" xlink:href="#ArialMT-30"/>
       <use transform="translate(112.972813 69.895313)scale(0.7)" xlink:href="#ArialMT-2212"/>
       <use transform="translate(153.851719 69.895313)scale(0.7)" xlink:href="#ArialMT-34"/>
      </g>
     </g>
    </g>
    <g id="ytick_10">
     <g id="line2d_45">
      <g>
       <use style="fill:#262626;stroke:#262626;" x="90" xlink:href="#m1ebb0a129f" y="418.895013"/>
      </g>
     </g>
     <g id="text_19">
      <!-- $\mathdefault{10^{-3}}$ -->
      <g style="fill:#262626;" transform="translate(57.2 424.051263)scale(0.1 -0.1)">
       <use transform="translate(0 0.99375)" xlink:href="#ArialMT-31"/>
       <use transform="translate(55.615234 0.99375)" xlink:href="#ArialMT-30"/>
       <use transform="translate(112.972813 70.6875)scale(0.7)" xlink:href="#ArialMT-2212"/>
       <use transform="translate(153.851719 70.6875)scale(0.7)" xlink:href="#ArialMT-33"/>
      </g>
     </g>
    </g>
    <g id="ytick_11">
     <g id="line2d_46">
      <g>
       <use style="fill:#262626;stroke:#262626;" x="90" xlink:href="#m1ebb0a129f" y="372.02252"/>
      </g>
     </g>
     <g id="text_20">
      <!-- $\mathdefault{10^{-2}}$ -->
      <g style="fill:#262626;" transform="translate(57.2 377.17877)scale(0.1 -0.1)">
       <use transform="translate(0 0.99375)" xlink:href="#ArialMT-31"/>
       <use transform="translate(55.615234 0.99375)" xlink:href="#ArialMT-30"/>
       <use transform="translate(112.972813 70.6875)scale(0.7)" xlink:href="#ArialMT-2212"/>
       <use transform="translate(153.851719 70.6875)scale(0.7)" xlink:href="#ArialMT-32"/>
      </g>
     </g>
    </g>
    <g id="ytick_12">
     <g id="line2d_47">
      <g>
       <use style="fill:#262626;stroke:#262626;" x="90" xlink:href="#m1ebb0a129f" y="325.150026"/>
      </g>
     </g>
     <g id="text_21">
      <!-- $\mathdefault{10^{-1}}$ -->
      <g style="fill:#262626;" transform="translate(57.2 330.306276)scale(0.1 -0.1)">
       <use transform="translate(0 0.99375)" xlink:href="#ArialMT-31"/>
       <use transform="translate(55.615234 0.99375)" xlink:href="#ArialMT-30"/>
       <use transform="translate(112.972813 70.6875)scale(0.7)" xlink:href="#ArialMT-2212"/>
       <use transform="translate(153.851719 70.6875)scale(0.7)" xlink:href="#ArialMT-31"/>
      </g>
     </g>
    </g>
    <g id="ytick_13">
     <g id="line2d_48">
      <defs>
       <path d="M 0 0 
L -3 0 
" id="m39ac5f6374" style="stroke:#262626;stroke-width:0.5;"/>
      </defs>
      <g>
       <use style="fill:#262626;stroke:#262626;stroke-width:0.5;" x="90" xlink:href="#m39ac5f6374" y="498.529974"/>
      </g>
     </g>
    </g>
    <g id="ytick_14">
     <g id="line2d_49">
      <g>
       <use style="fill:#262626;stroke:#262626;stroke-width:0.5;" x="90" xlink:href="#m39ac5f6374" y="490.276137"/>
      </g>
     </g>
    </g>
    <g id="ytick_15">
     <g id="line2d_50">
      <g>
       <use style="fill:#262626;stroke:#262626;stroke-width:0.5;" x="90" xlink:href="#m39ac5f6374" y="484.419947"/>
      </g>
     </g>
    </g>
    <g id="ytick_16">
     <g id="line2d_51">
      <g>
       <use style="fill:#262626;stroke:#262626;stroke-width:0.5;" x="90" xlink:href="#m39ac5f6374" y="479.877533"/>
      </g>
     </g>
    </g>
    <g id="ytick_17">
     <g id="line2d_52">
      <g>
       <use style="fill:#262626;stroke:#262626;stroke-width:0.5;" x="90" xlink:href="#m39ac5f6374" y="476.166111"/>
      </g>
     </g>
    </g>
    <g id="ytick_18">
     <g id="line2d_53">
      <g>
       <use style="fill:#262626;stroke:#262626;stroke-width:0.5;" x="90" xlink:href="#m39ac5f6374" y="473.028148"/>
      </g>
     </g>
    </g>
    <g id="ytick_19">
     <g id="line2d_54">
      <g>
       <use style="fill:#262626;stroke:#262626;stroke-width:0.5;" x="90" xlink:href="#m39ac5f6374" y="470.309921"/>
      </g>
     </g>
    </g>
    <g id="ytick_20">
     <g id="line2d_55">
      <g>
       <use style="fill:#262626;stroke:#262626;stroke-width:0.5;" x="90" xlink:href="#m39ac5f6374" y="467.912274"/>
      </g>
     </g>
    </g>
    <g id="ytick_21">
     <g id="line2d_56">
      <g>
       <use style="fill:#262626;stroke:#262626;stroke-width:0.5;" x="90" xlink:href="#m39ac5f6374" y="451.65748"/>
      </g>
     </g>
    </g>
    <g id="ytick_22">
     <g id="line2d_57">
      <g>
       <use style="fill:#262626;stroke:#262626;stroke-width:0.5;" x="90" xlink:href="#m39ac5f6374" y="443.403644"/>
      </g>
     </g>
    </g>
    <g id="ytick_23">
     <g id="line2d_58">
      <g>
       <use style="fill:#262626;stroke:#262626;stroke-width:0.5;" x="90" xlink:href="#m39ac5f6374" y="437.547454"/>
      </g>
     </g>
    </g>
    <g id="ytick_24">
     <g id="line2d_59">
      <g>
       <use style="fill:#262626;stroke:#262626;stroke-width:0.5;" x="90" xlink:href="#m39ac5f6374" y="433.00504"/>
      </g>
     </g>
    </g>
    <g id="ytick_25">
     <g id="line2d_60">
      <g>
       <use style="fill:#262626;stroke:#262626;stroke-width:0.5;" x="90" xlink:href="#m39ac5f6374" y="429.293617"/>
      </g>
     </g>
    </g>
    <g id="ytick_26">
     <g id="line2d_61">
      <g>
       <use style="fill:#262626;stroke:#262626;stroke-width:0.5;" x="90" xlink:href="#m39ac5f6374" y="426.155654"/>
      </g>
     </g>
    </g>
    <g id="ytick_27">
     <g id="line2d_62">
      <g>
       <use style="fill:#262626;stroke:#262626;stroke-width:0.5;" x="90" xlink:href="#m39ac5f6374" y="423.437427"/>
      </g>
     </g>
    </g>
    <g id="ytick_28">
     <g id="line2d_63">
      <g>
       <use style="fill:#262626;stroke:#262626;stroke-width:0.5;" x="90" xlink:href="#m39ac5f6374" y="421.039781"/>
      </g>
     </g>
    </g>
    <g id="ytick_29">
     <g id="line2d_64">
      <g>
       <use style="fill:#262626;stroke:#262626;stroke-width:0.5;" x="90" xlink:href="#m39ac5f6374" y="404.784987"/>
      </g>
     </g>
    </g>
    <g id="ytick_30">
     <g id="line2d_65">
      <g>
       <use style="fill:#262626;stroke:#262626;stroke-width:0.5;" x="90" xlink:href="#m39ac5f6374" y="396.53115"/>
      </g>
     </g>
    </g>
    <g id="ytick_31">
     <g id="line2d_66">
      <g>
       <use style="fill:#262626;stroke:#262626;stroke-width:0.5;" x="90" xlink:href="#m39ac5f6374" y="390.67496"/>
      </g>
     </g>
    </g>
    <g id="ytick_32">
     <g id="line2d_67">
      <g>
       <use style="fill:#262626;stroke:#262626;stroke-width:0.5;" x="90" xlink:href="#m39ac5f6374" y="386.132546"/>
      </g>
     </g>
    </g>
    <g id="ytick_33">
     <g id="line2d_68">
      <g>
       <use style="fill:#262626;stroke:#262626;stroke-width:0.5;" x="90" xlink:href="#m39ac5f6374" y="382.421124"/>
      </g>
     </g>
    </g>
    <g id="ytick_34">
     <g id="line2d_69">
      <g>
       <use style="fill:#262626;stroke:#262626;stroke-width:0.5;" x="90" xlink:href="#m39ac5f6374" y="379.283161"/>
      </g>
     </g>
    </g>
    <g id="ytick_35">
     <g id="line2d_70">
      <g>
       <use style="fill:#262626;stroke:#262626;stroke-width:0.5;" x="90" xlink:href="#m39ac5f6374" y="376.564934"/>
      </g>
     </g>
    </g>
    <g id="ytick_36">
     <g id="line2d_71">
      <g>
       <use style="fill:#262626;stroke:#262626;stroke-width:0.5;" x="90" xlink:href="#m39ac5f6374" y="374.167288"/>
      </g>
     </g>
    </g>
    <g id="ytick_37">
     <g id="line2d_72">
      <g>
       <use style="fill:#262626;stroke:#262626;stroke-width:0.5;" x="90" xlink:href="#m39ac5f6374" y="357.912493"/>
      </g>
     </g>
    </g>
    <g id="ytick_38">
     <g id="line2d_73">
      <g>
       <use style="fill:#262626;stroke:#262626;stroke-width:0.5;" x="90" xlink:href="#m39ac5f6374" y="349.658657"/>
      </g>
     </g>
    </g>
    <g id="ytick_39">
     <g id="line2d_74">
      <g>
       <use style="fill:#262626;stroke:#262626;stroke-width:0.5;" x="90" xlink:href="#m39ac5f6374" y="343.802467"/>
      </g>
     </g>
    </g>
    <g id="ytick_40">
     <g id="line2d_75">
      <g>
       <use style="fill:#262626;stroke:#262626;stroke-width:0.5;" x="90" xlink:href="#m39ac5f6374" y="339.260053"/>
      </g>
     </g>
    </g>
    <g id="ytick_41">
     <g id="line2d_76">
      <g>
       <use style="fill:#262626;stroke:#262626;stroke-width:0.5;" x="90" xlink:href="#m39ac5f6374" y="335.548631"/>
      </g>
     </g>
    </g>
    <g id="ytick_42">
     <g id="line2d_77">
      <g>
       <use style="fill:#262626;stroke:#262626;stroke-width:0.5;" x="90" xlink:href="#m39ac5f6374" y="332.410668"/>
      </g>
     </g>
    </g>
    <g id="ytick_43">
     <g id="line2d_78">
      <g>
       <use style="fill:#262626;stroke:#262626;stroke-width:0.5;" x="90" xlink:href="#m39ac5f6374" y="329.69244"/>
      </g>
     </g>
    </g>
    <g id="ytick_44">
     <g id="line2d_79">
      <g>
       <use style="fill:#262626;stroke:#262626;stroke-width:0.5;" x="90" xlink:href="#m39ac5f6374" y="327.294794"/>
      </g>
     </g>
    </g>
    <g id="ytick_45">
     <g id="line2d_80">
      <g>
       <use style="fill:#262626;stroke:#262626;stroke-width:0.5;" x="90" xlink:href="#m39ac5f6374" y="311.04"/>
      </g>
     </g>
    </g>
   </g>
   <g id="line2d_81">
    <path clip-path="url(#p5ebcbb9593)" d="M -1 362.751652 
L 151.095164 362.751727 
L 206.306812 382.365824 
L 238.603556 406.094444 
L 261.518461 403.986578 
L 279.292642 399.658946 
L 293.815205 364.753085 
L 306.093857 411.876794 
L 316.730109 418.480173 
L 326.111949 414.965981 
L 334.50429 409.677148 
L 342.096086 400.065474 
L 349.026853 348.993369 
L 355.402541 407.287873 
L 361.305505 431.236421 
L 366.801034 445.610803 
L 371.941758 448.005859 
L 376.770725 440.883225 
L 381.323597 405.075807 
L 385.630245 418.182545 
L 389.715939 416.916182 
L 393.602249 414.680144 
L 397.307735 407.27187 
L 400.848476 395.038714 
L 404.238502 361.401469 
L 407.490119 385.164535 
L 410.614189 403.325167 
L 413.620341 414.36955 
L 416.517154 419.928364 
L 419.312303 417.116313 
L 422.012683 383.326792 
L 424.624509 391.754022 
L 427.153406 406.052296 
L 429.604479 411.711273 
L 431.982374 415.057606 
L 434.291335 414.749563 
L 436.535246 406.235464 
L 438.717672 425.631724 
L 440.841893 437.016508 
L 442.910933 436.111406 
L 444.927587 432.557301 
L 446.894442 427.403079 
L 448.813898 412.259266 
L 450.688186 399.180975 
L 452.519383 427.46437 
L 454.309426 437.578678 
L 456.060125 441.443281 
L 459.45015 444.918067 
L 461.09255 435.45485 
L 462.701768 448.863997 
L 464.279118 448.723831 
L 465.825838 457.359774 
L 467.343094 457.21419 
L 468.83199 487.626427 
L 470.293564 417.586209 
L 471.728802 434.199475 
L 473.138637 439.24989 
L 474.523951 443.782295 
L 475.885584 447.304297 
L 477.224331 444.797934 
L 478.540949 453.119295 
L 479.836157 440.612643 
L 481.110642 446.008569 
L 482.365055 445.916322 
L 483.600019 445.657806 
L 484.816127 466.055163 
L 486.013948 459.501631 
L 487.194022 438.769326 
L 488.356869 455.76038 
L 489.502983 454.596062 
L 490.63284 452.247046 
L 491.746894 455.854187 
L 492.845581 455.391694 
L 493.92932 455.639946 
L 494.998512 457.837284 
L 496.053541 456.724736 
L 497.094779 458.359037 
L 498.122582 456.235307 
L 499.137291 458.159729 
L 500.139235 454.353506 
L 501.128734 459.301578 
L 502.10609 459.030119 
L 503.0716 461.808139 
L 504.025546 460.738537 
L 504.968203 461.373697 
L 505.899834 463.715122 
L 506.820695 462.814883 
L 507.731032 467.006285 
L 508.631082 455.64072 
L 509.521075 454.301576 
L 510.401234 459.963256 
L 511.271773 463.326513 
L 512.132901 459.947993 
L 512.984819 462.706719 
L 513.827722 471.893998 
L 514.661799 458.529068 
L 515.487232 461.582835 
L 516.304198 466.427698 
L 517.112871 467.072606 
L 517.913416 471.316927 
L 518.705996 464.966462 
L 519.490766 466.906628 
L 520.26788 465.368735 
L 521.037486 464.571854 
L 521.799727 464.512975 
L 522.554743 473.416765 
L 523.302669 474.089016 
L 524.043638 462.018594 
L 524.777778 463.530459 
L 525.505212 466.243371 
L 526.226064 465.25796 
L 526.940451 460.410599 
L 527.648487 474.630084 
L 528.350285 468.898228 
L 529.7356 467.623898 
L 530.419326 474.305737 
L 531.097232 468.717723 
L 531.769418 467.44334 
L 532.435979 464.258115 
L 533.097009 469.278187 
L 533.752597 477.017923 
L 534.402834 463.362036 
L 535.047806 466.298138 
L 535.687597 461.816001 
L 536.32229 465.303097 
L 536.951966 462.298049 
L 537.576703 469.078584 
L 538.196578 466.957495 
L 538.811667 467.769803 
L 539.422042 480.919102 
L 540.027776 468.165455 
L 540.628938 466.125384 
L 541.225596 472.439034 
L 541.817819 472.761452 
L 542.405671 470.048271 
L 542.989216 482.329709 
L 543.568517 488.205474 
L 544.143636 476.043347 
L 544.714632 467.398749 
L 545.281563 469.576989 
L 545.844488 472.814587 
L 546.403463 471.97021 
L 546.958543 473.653256 
L 547.509781 468.329955 
L 548.05723 469.942795 
L 548.600942 468.063474 
L 549.140969 469.480856 
L 549.677358 471.215011 
L 550.21016 470.071042 
L 550.739422 478.991305 
L 551.26519 483.898187 
L 551.78751 467.331554 
L 552.306428 476.613036 
L 552.821987 478.721374 
L 553.33423 481.971853 
L 553.8432 473.690957 
L 554.348939 478.13833 
L 554.851487 468.510083 
L 555.350884 468.460512 
L 555.847169 490.311981 
L 556.340382 473.914605 
L 556.830559 475.38743 
L 557.317739 471.169817 
L 557.801956 475.583684 
L 558.283248 468.171816 
L 558.76165 472.176052 
L 559.237195 477.754021 
L 559.709918 479.146899 
L 560.179852 470.486806 
L 560.647029 479.174084 
L 561.111483 485.46704 
L 561.573244 474.828664 
L 562.032344 467.309602 
L 562.488812 466.377145 
L 562.94268 470.94103 
L 563.393976 470.576878 
L 563.84273 468.304333 
L 564.28897 475.591184 
L 564.732723 477.46011 
L 565.174019 477.806574 
L 565.612882 476.894607 
L 566.049341 474.388793 
L 566.483422 473.611523 
L 566.91515 477.679589 
L 567.34455 476.334161 
L 567.771648 477.69796 
L 568.196468 487.990848 
L 568.619034 480.647518 
L 569.039371 489.424476 
L 569.457501 479.430739 
L 569.873447 500.604254 
L 570.287233 502.966883 
L 571.108411 479.117054 
L 571.515847 478.315539 
L 571.921209 481.547671 
L 572.32452 481.351339 
L 572.725798 477.520349 
L 573.125065 467.446668 
L 573.52234 477.479356 
L 573.917644 497.672132 
L 574.310996 483.373119 
L 574.702415 489.01205 
L 575.091919 478.573888 
L 575.479529 478.064648 
L 575.865261 482.113632 
L 576.249135 483.803273 
L 576.631167 491.163772 
L 577.011376 492.081441 
L 577.389778 475.468501 
L 577.766391 475.73278 
L 578.141232 474.456373 
L 578.514318 475.753798 
L 578.885664 493.560842 
L 579.255287 473.203954 
L 579.623202 479.527769 
L 579.989426 481.372068 
L 580.353974 474.771366 
L 580.716861 496.801182 
L 581.078102 474.38084 
L 581.437713 483.920143 
L 582.152099 472.016322 
L 582.506904 482.095977 
L 582.860136 482.681261 
L 583.211808 475.403199 
L 583.561934 485.806095 
L 583.910528 483.748023 
L 584.257603 475.078593 
L 584.603172 480.295337 
L 585.289845 478.862025 
L 585.970649 486.493979 
L 586.308881 480.363151 
L 586.645683 487.185321 
L 586.981067 488.190339 
L 587.315045 484.719659 
L 587.647628 465.39573 
L 588.308657 486.181275 
L 588.637126 488.598813 
L 588.964246 477.005401 
L 589.290028 476.183358 
L 589.614483 470.236249 
L 589.937621 489.651238 
L 590.259454 486.474449 
L 590.579992 481.236253 
L 590.899246 486.002849 
L 591.217224 483.4804 
L 591.849399 505.261543 
L 592.163614 481.889002 
L 592.476596 480.914124 
L 593.098892 493.231261 
L 593.408227 474.38581 
L 594.023315 489.460765 
L 594.329088 484.942565 
L 594.633691 497.950196 
L 594.937133 480.693129 
L 595.239424 484.031759 
L 595.540572 475.019155 
L 595.840586 488.70131 
L 596.139474 476.862415 
L 596.437245 480.329075 
L 596.733906 480.344865 
L 597.029467 479.060768 
L 597.323936 473.480157 
L 597.617319 492.155244 
L 597.909626 479.171277 
L 598.200864 474.566401 
L 598.491042 474.49457 
L 598.780166 481.463765 
L 599.068244 472.086243 
L 599.355284 477.402755 
L 599.641294 478.00089 
L 599.92628 476.527603 
L 600.21025 488.992298 
L 600.493212 470.021109 
L 600.775172 473.593748 
L 601.056137 479.079708 
L 601.336115 476.975566 
L 601.615112 483.557018 
L 601.893135 483.390334 
L 602.170191 482.236456 
L 602.446287 485.450553 
L 602.721429 472.529986 
L 602.995624 483.227296 
L 603.268878 502.625217 
L 603.541199 488.705688 
L 603.812591 492.43095 
L 604.083062 475.832525 
L 604.352617 480.78354 
L 604.621264 482.3013 
L 604.889007 475.957272 
L 605.421809 490.954411 
L 605.95107 476.742857 
L 606.476838 485.995649 
L 606.999159 476.437239 
L 607.518076 484.899667 
L 607.776273 483.234068 
L 608.033635 486.280017 
L 608.290169 483.023954 
L 608.545879 504.90012 
L 608.80077 480.304196 
L 609.054849 494.583385 
L 609.308119 496.822785 
L 609.560587 482.187552 
L 609.812258 493.934868 
L 610.063135 491.610442 
L 610.313225 507.582861 
L 610.562532 489.759234 
L 610.811062 485.335554 
L 611.058818 504.009642 
L 611.305806 477.792143 
L 611.55203 482.461668 
L 611.797496 484.020733 
L 612.042208 487.602701 
L 612.28617 481.952765 
L 612.529387 500.736555 
L 612.771864 500.293741 
L 613.013605 482.027043 
L 613.254614 492.547374 
L 613.734457 486.329586 
L 613.973298 486.314857 
L 614.211426 495.649321 
L 614.448843 483.114264 
L 614.685555 478.660001 
L 614.921566 496.045047 
L 615.3915 492.280196 
L 615.625431 493.514745 
L 615.858678 489.255101 
L 616.091243 489.485756 
L 616.323131 476.03726 
L 616.554347 472.583099 
L 616.784892 486.519898 
L 617.243992 494.375808 
L 617.472553 488.428534 
L 617.700461 491.442299 
L 617.927718 503.625009 
L 618.154329 492.328109 
L 618.380296 491.361124 
L 618.605625 487.106246 
L 618.830318 542.589592 
L 619.054379 476.550101 
L 619.277811 477.831497 
L 619.500618 493.927378 
L 619.722804 497.528092 
L 619.944372 483.18355 
L 620.165325 477.719252 
L 620.385667 481.453361 
L 620.605401 513.001957 
L 620.824531 482.800379 
L 621.043059 481.098712 
L 621.26099 490.602786 
L 621.478326 490.131663 
L 621.69507 479.538077 
L 621.911227 487.727944 
L 622.126798 486.445372 
L 622.341787 481.683114 
L 622.556198 479.591944 
L 622.983296 485.220831 
L 623.195989 481.828625 
L 623.61968 486.821267 
L 623.830683 484.197236 
L 624.041128 475.41205 
L 624.251019 498.313089 
L 624.460358 501.720822 
L 624.669149 486.02962 
L 624.877394 491.255648 
L 625.085096 484.615937 
L 625.292257 482.285345 
L 625.498881 477.647952 
L 626.115557 509.507047 
L 626.727495 485.405766 
L 626.930435 490.322346 
L 627.132858 517.48075 
L 627.334768 490.525091 
L 627.536168 486.442292 
L 627.73706 505.492429 
L 627.937446 478.83947 
L 628.336713 495.220723 
L 628.535599 502.762915 
L 628.733989 503.35893 
L 628.931886 480.996425 
L 629.129293 488.020049 
L 629.326211 483.256304 
L 629.522644 495.878523 
L 629.718594 492.781062 
L 629.914063 480.566891 
L 630.109054 489.272962 
L 630.303568 490.513705 
L 630.497608 485.103201 
L 630.691177 489.677619 
L 630.884277 476.94777 
L 631.07691 486.276297 
L 631.269078 481.49826 
L 631.460783 484.960603 
L 631.652028 498.865557 
L 631.842815 485.331026 
L 632.033146 490.852863 
L 632.223024 569.235222 
L 632.41245 494.618689 
L 632.601426 493.456039 
L 632.789956 513.855046 
L 633.352881 476.25638 
L 633.539642 499.847219 
L 633.911856 479.424341 
L 634.097312 475.888447 
L 634.466935 496.973372 
L 634.651105 482.024388 
L 634.83485 479.096113 
L 635.018173 493.734431 
L 635.201074 485.988852 
L 635.383557 500.580985 
L 635.565622 484.973214 
L 635.747272 493.436771 
L 636.109335 487.766681 
L 636.289751 491.357569 
L 636.469759 490.654212 
L 636.649361 493.03769 
L 636.828559 486.508764 
L 637.007355 485.498342 
L 637.185751 481.99944 
L 637.541348 497.926992 
L 637.718553 493.856383 
L 637.895364 484.012785 
L 638.071784 499.774595 
L 638.247814 476.524727 
L 638.423456 497.761983 
L 638.598712 497.001075 
L 638.773582 494.658947 
L 638.94807 489.168394 
L 639.122176 497.97456 
L 639.295903 486.728425 
L 639.469251 486.244691 
L 639.642223 486.877483 
L 639.81482 485.161359 
L 639.987044 486.774732 
L 640.158897 475.864955 
L 640.330379 497.563611 
L 640.67224 481.577529 
L 640.842622 492.099859 
L 641.012641 490.832001 
L 641.182297 505.014645 
L 641.689108 479.84188 
L 641.857331 496.334241 
L 642.0252 495.724903 
L 642.526693 475.483996 
L 642.693158 520.705782 
L 643.025049 490.64516 
L 643.190477 474.827908 
L 643.520306 501.932262 
L 643.684709 486.008739 
L 643.848774 493.805177 
L 644.012502 494.726452 
L 644.175894 486.123666 
L 644.338952 488.69146 
L 644.501676 481.298643 
L 644.664069 484.694444 
L 644.826131 479.324916 
L 645.14927 501.724705 
L 645.310349 486.223998 
L 645.471103 502.257865 
L 645.631533 483.049702 
L 645.791641 483.527938 
L 645.951427 488.407253 
L 646.110894 488.508286 
L 646.270042 491.21325 
L 646.428873 489.574109 
L 646.587387 479.120291 
L 646.745587 493.624163 
L 646.903473 484.06932 
L 647.061047 490.531584 
L 647.21831 491.442144 
L 647.375263 484.916277 
L 647.531907 495.126029 
L 647.844274 485.775844 
L 647.844274 485.775844 
" style="fill:none;stroke:#b22222;stroke-linecap:round;stroke-width:1.75;"/>
   </g>
   <g id="patch_6">
    <path d="M 90 512.64 
L 90 311.04 
" style="fill:none;stroke:#262626;stroke-linecap:square;stroke-linejoin:miter;stroke-width:1.25;"/>
   </g>
   <g id="patch_7">
    <path d="M 90 512.64 
L 648 512.64 
" style="fill:none;stroke:#262626;stroke-linecap:square;stroke-linejoin:miter;stroke-width:1.25;"/>
   </g>
  </g>
 </g>
 <defs>
  <clipPath id="p8d83390dbd">
   <rect height="201.6" width="558" x="90" y="69.12"/>
  </clipPath>
  <clipPath id="p5ebcbb9593">
   <rect height="201.6" width="558" x="90" y="311.04"/>
  </clipPath>
 </defs>
</svg>
