<?xml version="1.0" encoding="utf-8" standalone="no"?>
<!DOCTYPE svg PUBLIC "-//W3C//DTD SVG 1.1//EN"
  "http://www.w3.org/Graphics/SVG/1.1/DTD/svg11.dtd">
<!-- Created with matplotlib (http://matplotlib.org/) -->
<svg height="576pt" version="1.1" viewBox="0 0 720 576" width="720pt" xmlns="http://www.w3.org/2000/svg" xmlns:xlink="http://www.w3.org/1999/xlink">
 <defs>
  <style type="text/css">
*{stroke-linecap:butt;stroke-linejoin:round;}
  </style>
 </defs>
 <g id="figure_1">
  <g id="patch_1">
   <path d="M 0 576 
L 720 576 
L 720 0 
L 0 0 
z
" style="fill:#ffffff;"/>
  </g>
  <g id="axes_1">
   <g id="patch_2">
    <path d="M 90 270.72 
L 648 270.72 
L 648 69.12 
L 90 69.12 
z
" style="fill:#ffffff;"/>
   </g>
   <g id="matplotlib.axis_1">
    <g id="xtick_1">
     <g id="line2d_1">
      <defs>
       <path d="M 0 0 
L 0 6 
" id="m6d1ad05546" style="stroke:#262626;"/>
      </defs>
      <g>
       <use style="fill:#262626;stroke:#262626;" x="90" xlink:href="#m6d1ad05546" y="270.72"/>
      </g>
     </g>
     <g id="text_1">
      <!-- 0 -->
      <defs>
       <path d="M 4.15625 35.296875 
Q 4.15625 48 6.765625 55.734375 
Q 9.375 63.484375 14.515625 67.671875 
Q 19.671875 71.875 27.484375 71.875 
Q 33.25 71.875 37.59375 69.546875 
Q 41.9375 67.234375 44.765625 62.859375 
Q 47.609375 58.5 49.21875 52.21875 
Q 50.828125 45.953125 50.828125 35.296875 
Q 50.828125 22.703125 48.234375 14.96875 
Q 45.65625 7.234375 40.5 3 
Q 35.359375 -1.21875 27.484375 -1.21875 
Q 17.140625 -1.21875 11.234375 6.203125 
Q 4.15625 15.140625 4.15625 35.296875 
z
M 13.1875 35.296875 
Q 13.1875 17.671875 17.3125 11.828125 
Q 21.4375 6 27.484375 6 
Q 33.546875 6 37.671875 11.859375 
Q 41.796875 17.71875 41.796875 35.296875 
Q 41.796875 52.984375 37.671875 58.78125 
Q 33.546875 64.59375 27.390625 64.59375 
Q 21.34375 64.59375 17.71875 59.46875 
Q 13.1875 52.9375 13.1875 35.296875 
z
" id="ArialMT-30"/>
      </defs>
      <g style="fill:#262626;" transform="translate(87.219531 290.877812)scale(0.1 -0.1)">
       <use xlink:href="#ArialMT-30"/>
      </g>
     </g>
    </g>
    <g id="xtick_2">
     <g id="line2d_2">
      <g>
       <use style="fill:#262626;stroke:#262626;" x="159.75" xlink:href="#m6d1ad05546" y="270.72"/>
      </g>
     </g>
     <g id="text_2">
      <!-- 100 -->
      <defs>
       <path d="M 37.25 0 
L 28.46875 0 
L 28.46875 56 
Q 25.296875 52.984375 20.140625 49.953125 
Q 14.984375 46.921875 10.890625 45.40625 
L 10.890625 53.90625 
Q 18.265625 57.375 23.78125 62.296875 
Q 29.296875 67.234375 31.59375 71.875 
L 37.25 71.875 
z
" id="ArialMT-31"/>
      </defs>
      <g style="fill:#262626;" transform="translate(151.408594 290.877812)scale(0.1 -0.1)">
       <use xlink:href="#ArialMT-31"/>
       <use x="55.615234" xlink:href="#ArialMT-30"/>
       <use x="111.230469" xlink:href="#ArialMT-30"/>
      </g>
     </g>
    </g>
    <g id="xtick_3">
     <g id="line2d_3">
      <g>
       <use style="fill:#262626;stroke:#262626;" x="229.5" xlink:href="#m6d1ad05546" y="270.72"/>
      </g>
     </g>
     <g id="text_3">
      <!-- 200 -->
      <defs>
       <path d="M 50.34375 8.453125 
L 50.34375 0 
L 3.03125 0 
Q 2.9375 3.171875 4.046875 6.109375 
Q 5.859375 10.9375 9.828125 15.625 
Q 13.8125 20.3125 21.34375 26.46875 
Q 33.015625 36.03125 37.109375 41.625 
Q 41.21875 47.21875 41.21875 52.203125 
Q 41.21875 57.421875 37.46875 61 
Q 33.734375 64.59375 27.734375 64.59375 
Q 21.390625 64.59375 17.578125 60.78125 
Q 13.765625 56.984375 13.71875 50.25 
L 4.6875 51.171875 
Q 5.609375 61.28125 11.65625 66.578125 
Q 17.71875 71.875 27.9375 71.875 
Q 38.234375 71.875 44.234375 66.15625 
Q 50.25 60.453125 50.25 52 
Q 50.25 47.703125 48.484375 43.546875 
Q 46.734375 39.40625 42.65625 34.8125 
Q 38.578125 30.21875 29.109375 22.21875 
Q 21.1875 15.578125 18.9375 13.203125 
Q 16.703125 10.84375 15.234375 8.453125 
z
" id="ArialMT-32"/>
      </defs>
      <g style="fill:#262626;" transform="translate(221.158594 290.877812)scale(0.1 -0.1)">
       <use xlink:href="#ArialMT-32"/>
       <use x="55.615234" xlink:href="#ArialMT-30"/>
       <use x="111.230469" xlink:href="#ArialMT-30"/>
      </g>
     </g>
    </g>
    <g id="xtick_4">
     <g id="line2d_4">
      <g>
       <use style="fill:#262626;stroke:#262626;" x="299.25" xlink:href="#m6d1ad05546" y="270.72"/>
      </g>
     </g>
     <g id="text_4">
      <!-- 300 -->
      <defs>
       <path d="M 4.203125 18.890625 
L 12.984375 20.0625 
Q 14.5 12.59375 18.140625 9.296875 
Q 21.78125 6 27 6 
Q 33.203125 6 37.46875 10.296875 
Q 41.75 14.59375 41.75 20.953125 
Q 41.75 27 37.796875 30.921875 
Q 33.84375 34.859375 27.734375 34.859375 
Q 25.25 34.859375 21.53125 33.890625 
L 22.515625 41.609375 
Q 23.390625 41.5 23.921875 41.5 
Q 29.546875 41.5 34.03125 44.421875 
Q 38.53125 47.359375 38.53125 53.46875 
Q 38.53125 58.296875 35.25 61.46875 
Q 31.984375 64.65625 26.8125 64.65625 
Q 21.6875 64.65625 18.265625 61.421875 
Q 14.84375 58.203125 13.875 51.765625 
L 5.078125 53.328125 
Q 6.6875 62.15625 12.390625 67.015625 
Q 18.109375 71.875 26.609375 71.875 
Q 32.46875 71.875 37.390625 69.359375 
Q 42.328125 66.84375 44.9375 62.5 
Q 47.5625 58.15625 47.5625 53.265625 
Q 47.5625 48.640625 45.0625 44.828125 
Q 42.578125 41.015625 37.703125 38.765625 
Q 44.046875 37.3125 47.5625 32.6875 
Q 51.078125 28.078125 51.078125 21.140625 
Q 51.078125 11.765625 44.234375 5.25 
Q 37.40625 -1.265625 26.953125 -1.265625 
Q 17.53125 -1.265625 11.296875 4.34375 
Q 5.078125 9.96875 4.203125 18.890625 
z
" id="ArialMT-33"/>
      </defs>
      <g style="fill:#262626;" transform="translate(290.908594 290.877812)scale(0.1 -0.1)">
       <use xlink:href="#ArialMT-33"/>
       <use x="55.615234" xlink:href="#ArialMT-30"/>
       <use x="111.230469" xlink:href="#ArialMT-30"/>
      </g>
     </g>
    </g>
    <g id="xtick_5">
     <g id="line2d_5">
      <g>
       <use style="fill:#262626;stroke:#262626;" x="369" xlink:href="#m6d1ad05546" y="270.72"/>
      </g>
     </g>
     <g id="text_5">
      <!-- 400 -->
      <defs>
       <path d="M 32.328125 0 
L 32.328125 17.140625 
L 1.265625 17.140625 
L 1.265625 25.203125 
L 33.9375 71.578125 
L 41.109375 71.578125 
L 41.109375 25.203125 
L 50.78125 25.203125 
L 50.78125 17.140625 
L 41.109375 17.140625 
L 41.109375 0 
z
M 32.328125 25.203125 
L 32.328125 57.46875 
L 9.90625 25.203125 
z
" id="ArialMT-34"/>
      </defs>
      <g style="fill:#262626;" transform="translate(360.658594 290.877812)scale(0.1 -0.1)">
       <use xlink:href="#ArialMT-34"/>
       <use x="55.615234" xlink:href="#ArialMT-30"/>
       <use x="111.230469" xlink:href="#ArialMT-30"/>
      </g>
     </g>
    </g>
    <g id="xtick_6">
     <g id="line2d_6">
      <g>
       <use style="fill:#262626;stroke:#262626;" x="438.75" xlink:href="#m6d1ad05546" y="270.72"/>
      </g>
     </g>
     <g id="text_6">
      <!-- 500 -->
      <defs>
       <path d="M 4.15625 18.75 
L 13.375 19.53125 
Q 14.40625 12.796875 18.140625 9.390625 
Q 21.875 6 27.15625 6 
Q 33.5 6 37.890625 10.78125 
Q 42.28125 15.578125 42.28125 23.484375 
Q 42.28125 31 38.0625 35.34375 
Q 33.84375 39.703125 27 39.703125 
Q 22.75 39.703125 19.328125 37.765625 
Q 15.921875 35.84375 13.96875 32.765625 
L 5.71875 33.84375 
L 12.640625 70.609375 
L 48.25 70.609375 
L 48.25 62.203125 
L 19.671875 62.203125 
L 15.828125 42.96875 
Q 22.265625 47.46875 29.34375 47.46875 
Q 38.71875 47.46875 45.15625 40.96875 
Q 51.609375 34.46875 51.609375 24.265625 
Q 51.609375 14.546875 45.953125 7.46875 
Q 39.0625 -1.21875 27.15625 -1.21875 
Q 17.390625 -1.21875 11.203125 4.25 
Q 5.03125 9.71875 4.15625 18.75 
z
" id="ArialMT-35"/>
      </defs>
      <g style="fill:#262626;" transform="translate(430.408594 290.877812)scale(0.1 -0.1)">
       <use xlink:href="#ArialMT-35"/>
       <use x="55.615234" xlink:href="#ArialMT-30"/>
       <use x="111.230469" xlink:href="#ArialMT-30"/>
      </g>
     </g>
    </g>
    <g id="xtick_7">
     <g id="line2d_7">
      <g>
       <use style="fill:#262626;stroke:#262626;" x="508.5" xlink:href="#m6d1ad05546" y="270.72"/>
      </g>
     </g>
     <g id="text_7">
      <!-- 600 -->
      <defs>
       <path d="M 49.75 54.046875 
L 41.015625 53.375 
Q 39.84375 58.546875 37.703125 60.890625 
Q 34.125 64.65625 28.90625 64.65625 
Q 24.703125 64.65625 21.53125 62.3125 
Q 17.390625 59.28125 14.984375 53.46875 
Q 12.59375 47.65625 12.5 36.921875 
Q 15.671875 41.75 20.265625 44.09375 
Q 24.859375 46.4375 29.890625 46.4375 
Q 38.671875 46.4375 44.84375 39.96875 
Q 51.03125 33.5 51.03125 23.25 
Q 51.03125 16.5 48.125 10.71875 
Q 45.21875 4.9375 40.140625 1.859375 
Q 35.0625 -1.21875 28.609375 -1.21875 
Q 17.625 -1.21875 10.6875 6.859375 
Q 3.765625 14.9375 3.765625 33.5 
Q 3.765625 54.25 11.421875 63.671875 
Q 18.109375 71.875 29.4375 71.875 
Q 37.890625 71.875 43.28125 67.140625 
Q 48.6875 62.40625 49.75 54.046875 
z
M 13.875 23.1875 
Q 13.875 18.65625 15.796875 14.5 
Q 17.71875 10.359375 21.1875 8.171875 
Q 24.65625 6 28.46875 6 
Q 34.03125 6 38.03125 10.484375 
Q 42.046875 14.984375 42.046875 22.703125 
Q 42.046875 30.125 38.078125 34.390625 
Q 34.125 38.671875 28.125 38.671875 
Q 22.171875 38.671875 18.015625 34.390625 
Q 13.875 30.125 13.875 23.1875 
z
" id="ArialMT-36"/>
      </defs>
      <g style="fill:#262626;" transform="translate(500.158594 290.877812)scale(0.1 -0.1)">
       <use xlink:href="#ArialMT-36"/>
       <use x="55.615234" xlink:href="#ArialMT-30"/>
       <use x="111.230469" xlink:href="#ArialMT-30"/>
      </g>
     </g>
    </g>
    <g id="xtick_8">
     <g id="line2d_8">
      <g>
       <use style="fill:#262626;stroke:#262626;" x="578.25" xlink:href="#m6d1ad05546" y="270.72"/>
      </g>
     </g>
     <g id="text_8">
      <!-- 700 -->
      <defs>
       <path d="M 4.734375 62.203125 
L 4.734375 70.65625 
L 51.078125 70.65625 
L 51.078125 63.8125 
Q 44.234375 56.546875 37.515625 44.484375 
Q 30.8125 32.421875 27.15625 19.671875 
Q 24.515625 10.6875 23.78125 0 
L 14.75 0 
Q 14.890625 8.453125 18.0625 20.40625 
Q 21.234375 32.375 27.171875 43.484375 
Q 33.109375 54.59375 39.796875 62.203125 
z
" id="ArialMT-37"/>
      </defs>
      <g style="fill:#262626;" transform="translate(569.908594 290.877812)scale(0.1 -0.1)">
       <use xlink:href="#ArialMT-37"/>
       <use x="55.615234" xlink:href="#ArialMT-30"/>
       <use x="111.230469" xlink:href="#ArialMT-30"/>
      </g>
     </g>
    </g>
    <g id="xtick_9">
     <g id="line2d_9">
      <g>
       <use style="fill:#262626;stroke:#262626;" x="648" xlink:href="#m6d1ad05546" y="270.72"/>
      </g>
     </g>
     <g id="text_9">
      <!-- 800 -->
      <defs>
       <path d="M 17.671875 38.8125 
Q 12.203125 40.828125 9.5625 44.53125 
Q 6.9375 48.25 6.9375 53.421875 
Q 6.9375 61.234375 12.546875 66.546875 
Q 18.171875 71.875 27.484375 71.875 
Q 36.859375 71.875 42.578125 66.421875 
Q 48.296875 60.984375 48.296875 53.171875 
Q 48.296875 48.1875 45.671875 44.5 
Q 43.0625 40.828125 37.75 38.8125 
Q 44.34375 36.671875 47.78125 31.875 
Q 51.21875 27.09375 51.21875 20.453125 
Q 51.21875 11.28125 44.71875 5.03125 
Q 38.234375 -1.21875 27.640625 -1.21875 
Q 17.046875 -1.21875 10.546875 5.046875 
Q 4.046875 11.328125 4.046875 20.703125 
Q 4.046875 27.6875 7.59375 32.390625 
Q 11.140625 37.109375 17.671875 38.8125 
z
M 15.921875 53.71875 
Q 15.921875 48.640625 19.1875 45.40625 
Q 22.46875 42.1875 27.6875 42.1875 
Q 32.765625 42.1875 36.015625 45.375 
Q 39.265625 48.578125 39.265625 53.21875 
Q 39.265625 58.0625 35.90625 61.359375 
Q 32.5625 64.65625 27.59375 64.65625 
Q 22.5625 64.65625 19.234375 61.421875 
Q 15.921875 58.203125 15.921875 53.71875 
z
M 13.09375 20.65625 
Q 13.09375 16.890625 14.875 13.375 
Q 16.65625 9.859375 20.171875 7.921875 
Q 23.6875 6 27.734375 6 
Q 34.03125 6 38.125 10.046875 
Q 42.234375 14.109375 42.234375 20.359375 
Q 42.234375 26.703125 38.015625 30.859375 
Q 33.796875 35.015625 27.4375 35.015625 
Q 21.234375 35.015625 17.15625 30.90625 
Q 13.09375 26.8125 13.09375 20.65625 
z
" id="ArialMT-38"/>
      </defs>
      <g style="fill:#262626;" transform="translate(639.658594 290.877812)scale(0.1 -0.1)">
       <use xlink:href="#ArialMT-38"/>
       <use x="55.615234" xlink:href="#ArialMT-30"/>
       <use x="111.230469" xlink:href="#ArialMT-30"/>
      </g>
     </g>
    </g>
   </g>
   <g id="matplotlib.axis_2">
    <g id="ytick_1">
     <g id="line2d_10">
      <defs>
       <path d="M 0 0 
L -6 0 
" id="mc7a79f4389" style="stroke:#262626;"/>
      </defs>
      <g>
       <use style="fill:#262626;stroke:#262626;" x="90" xlink:href="#mc7a79f4389" y="270.72"/>
      </g>
     </g>
     <g id="text_10">
      <!-- −0.20 -->
      <defs>
       <path d="M 52.828125 31.203125 
L 5.5625 31.203125 
L 5.5625 39.40625 
L 52.828125 39.40625 
z
" id="ArialMT-2212"/>
       <path d="M 9.078125 0 
L 9.078125 10.015625 
L 19.09375 10.015625 
L 19.09375 0 
z
" id="ArialMT-2e"/>
      </defs>
      <g style="fill:#262626;" transform="translate(51.698437 274.298906)scale(0.1 -0.1)">
       <use xlink:href="#ArialMT-2212"/>
       <use x="58.398438" xlink:href="#ArialMT-30"/>
       <use x="114.013672" xlink:href="#ArialMT-2e"/>
       <use x="141.796875" xlink:href="#ArialMT-32"/>
       <use x="197.412109" xlink:href="#ArialMT-30"/>
      </g>
     </g>
    </g>
    <g id="ytick_2">
     <g id="line2d_11">
      <g>
       <use style="fill:#262626;stroke:#262626;" x="90" xlink:href="#mc7a79f4389" y="245.52"/>
      </g>
     </g>
     <g id="text_11">
      <!-- −0.15 -->
      <g style="fill:#262626;" transform="translate(51.698437 249.098906)scale(0.1 -0.1)">
       <use xlink:href="#ArialMT-2212"/>
       <use x="58.398438" xlink:href="#ArialMT-30"/>
       <use x="114.013672" xlink:href="#ArialMT-2e"/>
       <use x="141.796875" xlink:href="#ArialMT-31"/>
       <use x="197.412109" xlink:href="#ArialMT-35"/>
      </g>
     </g>
    </g>
    <g id="ytick_3">
     <g id="line2d_12">
      <g>
       <use style="fill:#262626;stroke:#262626;" x="90" xlink:href="#mc7a79f4389" y="220.32"/>
      </g>
     </g>
     <g id="text_12">
      <!-- −0.10 -->
      <g style="fill:#262626;" transform="translate(51.698437 223.898906)scale(0.1 -0.1)">
       <use xlink:href="#ArialMT-2212"/>
       <use x="58.398438" xlink:href="#ArialMT-30"/>
       <use x="114.013672" xlink:href="#ArialMT-2e"/>
       <use x="141.796875" xlink:href="#ArialMT-31"/>
       <use x="197.412109" xlink:href="#ArialMT-30"/>
      </g>
     </g>
    </g>
    <g id="ytick_4">
     <g id="line2d_13">
      <g>
       <use style="fill:#262626;stroke:#262626;" x="90" xlink:href="#mc7a79f4389" y="195.12"/>
      </g>
     </g>
     <g id="text_13">
      <!-- −0.05 -->
      <g style="fill:#262626;" transform="translate(51.698437 198.698906)scale(0.1 -0.1)">
       <use xlink:href="#ArialMT-2212"/>
       <use x="58.398438" xlink:href="#ArialMT-30"/>
       <use x="114.013672" xlink:href="#ArialMT-2e"/>
       <use x="141.796875" xlink:href="#ArialMT-30"/>
       <use x="197.412109" xlink:href="#ArialMT-35"/>
      </g>
     </g>
    </g>
    <g id="ytick_5">
     <g id="line2d_14">
      <g>
       <use style="fill:#262626;stroke:#262626;" x="90" xlink:href="#mc7a79f4389" y="169.92"/>
      </g>
     </g>
     <g id="text_14">
      <!-- 0.00 -->
      <g style="fill:#262626;" transform="translate(57.539062 173.498906)scale(0.1 -0.1)">
       <use xlink:href="#ArialMT-30"/>
       <use x="55.615234" xlink:href="#ArialMT-2e"/>
       <use x="83.398438" xlink:href="#ArialMT-30"/>
       <use x="139.013672" xlink:href="#ArialMT-30"/>
      </g>
     </g>
    </g>
    <g id="ytick_6">
     <g id="line2d_15">
      <g>
       <use style="fill:#262626;stroke:#262626;" x="90" xlink:href="#mc7a79f4389" y="144.72"/>
      </g>
     </g>
     <g id="text_15">
      <!-- 0.05 -->
      <g style="fill:#262626;" transform="translate(57.539062 148.298906)scale(0.1 -0.1)">
       <use xlink:href="#ArialMT-30"/>
       <use x="55.615234" xlink:href="#ArialMT-2e"/>
       <use x="83.398438" xlink:href="#ArialMT-30"/>
       <use x="139.013672" xlink:href="#ArialMT-35"/>
      </g>
     </g>
    </g>
    <g id="ytick_7">
     <g id="line2d_16">
      <g>
       <use style="fill:#262626;stroke:#262626;" x="90" xlink:href="#mc7a79f4389" y="119.52"/>
      </g>
     </g>
     <g id="text_16">
      <!-- 0.10 -->
      <g style="fill:#262626;" transform="translate(57.539062 123.098906)scale(0.1 -0.1)">
       <use xlink:href="#ArialMT-30"/>
       <use x="55.615234" xlink:href="#ArialMT-2e"/>
       <use x="83.398438" xlink:href="#ArialMT-31"/>
       <use x="139.013672" xlink:href="#ArialMT-30"/>
      </g>
     </g>
    </g>
    <g id="ytick_8">
     <g id="line2d_17">
      <g>
       <use style="fill:#262626;stroke:#262626;" x="90" xlink:href="#mc7a79f4389" y="94.32"/>
      </g>
     </g>
     <g id="text_17">
      <!-- 0.15 -->
      <g style="fill:#262626;" transform="translate(57.539062 97.898906)scale(0.1 -0.1)">
       <use xlink:href="#ArialMT-30"/>
       <use x="55.615234" xlink:href="#ArialMT-2e"/>
       <use x="83.398438" xlink:href="#ArialMT-31"/>
       <use x="139.013672" xlink:href="#ArialMT-35"/>
      </g>
     </g>
    </g>
    <g id="ytick_9">
     <g id="line2d_18">
      <g>
       <use style="fill:#262626;stroke:#262626;" x="90" xlink:href="#mc7a79f4389" y="69.12"/>
      </g>
     </g>
     <g id="text_18">
      <!-- 0.20 -->
      <g style="fill:#262626;" transform="translate(57.539062 72.698906)scale(0.1 -0.1)">
       <use xlink:href="#ArialMT-30"/>
       <use x="55.615234" xlink:href="#ArialMT-2e"/>
       <use x="83.398438" xlink:href="#ArialMT-32"/>
       <use x="139.013672" xlink:href="#ArialMT-30"/>
      </g>
     </g>
    </g>
   </g>
   <g id="PolyCollection_1">
    <path clip-path="url(#p7c3060dbbc)" d="M 90 168.825842 
L 90 169.92 
L 90.6975 169.92 
L 91.395 169.92 
L 92.0925 169.92 
L 92.79 169.92 
L 93.4875 169.92 
L 94.185 169.92 
L 94.8825 169.92 
L 95.58 169.92 
L 96.2775 169.92 
L 96.975 169.92 
L 97.6725 169.92 
L 98.37 169.92 
L 99.0675 169.92 
L 99.765 169.92 
L 100.4625 169.92 
L 101.16 169.92 
L 101.8575 169.92 
L 102.555 169.92 
L 103.2525 169.92 
L 103.95 169.92 
L 104.6475 169.92 
L 105.345 169.92 
L 106.0425 169.92 
L 106.74 169.92 
L 107.4375 169.92 
L 108.135 169.92 
L 108.8325 169.92 
L 109.53 169.92 
L 110.2275 169.92 
L 110.925 169.92 
L 111.6225 169.92 
L 112.32 169.92 
L 113.0175 169.92 
L 113.715 169.92 
L 114.4125 169.92 
L 115.11 169.92 
L 115.8075 169.92 
L 116.505 169.92 
L 117.2025 169.92 
L 117.9 169.92 
L 118.5975 169.92 
L 119.295 169.92 
L 119.9925 169.92 
L 120.69 169.92 
L 121.3875 169.92 
L 122.085 169.92 
L 122.7825 169.92 
L 123.48 169.92 
L 124.1775 169.92 
L 124.875 169.92 
L 125.5725 169.92 
L 126.27 169.92 
L 126.9675 169.92 
L 127.665 169.92 
L 128.3625 169.92 
L 129.06 169.92 
L 129.7575 169.92 
L 130.455 169.92 
L 131.1525 169.92 
L 131.85 169.92 
L 132.5475 169.92 
L 133.245 169.92 
L 133.9425 169.92 
L 134.64 169.92 
L 135.3375 169.92 
L 136.035 169.92 
L 136.7325 169.92 
L 137.43 169.92 
L 138.1275 169.92 
L 138.825 169.92 
L 139.5225 169.92 
L 140.22 169.92 
L 140.9175 169.92 
L 141.615 169.92 
L 142.3125 169.92 
L 143.01 169.92 
L 143.7075 169.92 
L 144.405 169.92 
L 145.1025 169.92 
L 145.8 169.92 
L 146.4975 169.92 
L 147.195 169.92 
L 147.8925 169.92 
L 148.59 169.92 
L 149.2875 169.92 
L 149.985 169.92 
L 150.6825 169.92 
L 151.38 169.92 
L 152.0775 169.92 
L 152.775 169.92 
L 153.4725 169.92 
L 154.17 169.92 
L 154.8675 169.92 
L 155.565 169.92 
L 156.2625 169.92 
L 156.96 169.92 
L 157.6575 169.92 
L 158.355 169.92 
L 159.0525 169.92 
L 159.75 169.92 
L 160.4475 169.92 
L 161.145 169.92 
L 161.8425 169.92 
L 162.54 169.92 
L 163.2375 169.92 
L 163.935 169.92 
L 164.6325 169.92 
L 165.33 169.92 
L 166.0275 169.92 
L 166.725 169.92 
L 167.4225 169.92 
L 168.12 169.92 
L 168.8175 169.92 
L 169.515 169.92 
L 170.2125 169.92 
L 170.91 169.92 
L 171.6075 169.92 
L 172.305 169.92 
L 173.0025 169.92 
L 173.7 169.92 
L 174.3975 169.92 
L 175.095 169.92 
L 175.7925 169.92 
L 176.49 169.92 
L 177.1875 169.92 
L 177.885 169.92 
L 178.5825 169.92 
L 179.28 169.92 
L 179.9775 169.92 
L 180.675 169.92 
L 181.3725 169.92 
L 182.07 169.92 
L 182.7675 169.92 
L 183.465 169.92 
L 184.1625 169.92 
L 184.86 169.92 
L 185.5575 169.92 
L 186.255 169.92 
L 186.9525 169.92 
L 187.65 169.92 
L 188.3475 169.92 
L 189.045 169.92 
L 189.7425 169.92 
L 190.44 169.92 
L 191.1375 169.92 
L 191.835 169.92 
L 192.5325 169.92 
L 193.23 169.92 
L 193.9275 169.92 
L 194.625 169.92 
L 195.3225 169.92 
L 196.02 169.92 
L 196.7175 169.92 
L 197.415 169.92 
L 198.1125 169.92 
L 198.81 169.92 
L 199.5075 169.92 
L 200.205 169.92 
L 200.9025 169.92 
L 201.6 169.92 
L 202.2975 169.92 
L 202.995 169.92 
L 203.6925 169.92 
L 204.39 169.92 
L 205.0875 169.92 
L 205.785 169.92 
L 206.4825 169.92 
L 207.18 169.92 
L 207.8775 169.92 
L 208.575 169.92 
L 209.2725 169.92 
L 209.97 169.92 
L 210.6675 169.92 
L 211.365 169.92 
L 212.0625 169.92 
L 212.76 169.92 
L 213.4575 169.92 
L 214.155 169.92 
L 214.8525 169.92 
L 215.55 169.92 
L 216.2475 169.92 
L 216.945 169.92 
L 217.6425 169.92 
L 218.34 169.92 
L 219.0375 169.92 
L 219.735 169.92 
L 220.4325 169.92 
L 221.13 169.92 
L 221.8275 169.92 
L 222.525 169.92 
L 223.2225 169.92 
L 223.92 169.92 
L 224.6175 169.92 
L 225.315 169.92 
L 226.0125 169.92 
L 226.71 169.92 
L 227.4075 169.92 
L 228.105 169.92 
L 228.8025 169.92 
L 229.5 169.92 
L 230.1975 169.92 
L 230.895 169.92 
L 231.5925 169.92 
L 232.29 169.92 
L 232.9875 169.92 
L 233.685 169.92 
L 234.3825 169.92 
L 235.08 169.92 
L 235.7775 169.92 
L 236.475 169.92 
L 237.1725 169.92 
L 237.87 169.92 
L 238.5675 169.92 
L 239.265 169.92 
L 239.9625 169.92 
L 240.66 169.92 
L 241.3575 169.92 
L 242.055 169.92 
L 242.7525 169.92 
L 243.45 169.92 
L 244.1475 169.92 
L 244.845 169.92 
L 245.5425 169.92 
L 246.24 169.92 
L 246.9375 169.92 
L 247.635 169.92 
L 248.3325 169.92 
L 249.03 169.92 
L 249.7275 169.92 
L 250.425 169.92 
L 251.1225 169.92 
L 251.82 169.92 
L 252.5175 169.92 
L 253.215 169.92 
L 253.9125 169.92 
L 254.61 169.92 
L 255.3075 169.92 
L 256.005 169.92 
L 256.7025 169.92 
L 257.4 169.92 
L 258.0975 169.92 
L 258.795 169.92 
L 259.4925 169.92 
L 260.19 169.92 
L 260.8875 169.92 
L 261.585 169.92 
L 262.2825 169.92 
L 262.98 169.92 
L 263.6775 169.92 
L 264.375 169.92 
L 265.0725 169.92 
L 265.77 169.92 
L 266.4675 169.92 
L 267.165 169.92 
L 267.8625 169.92 
L 268.56 169.92 
L 269.2575 169.92 
L 269.955 169.92 
L 270.6525 169.92 
L 271.35 169.92 
L 272.0475 169.92 
L 272.745 169.92 
L 273.4425 169.92 
L 274.14 169.92 
L 274.8375 169.92 
L 275.535 169.92 
L 276.2325 169.92 
L 276.93 169.92 
L 277.6275 169.92 
L 278.325 169.92 
L 279.0225 169.92 
L 279.72 169.92 
L 280.4175 169.92 
L 281.115 169.92 
L 281.8125 169.92 
L 282.51 169.92 
L 283.2075 169.92 
L 283.905 169.92 
L 284.6025 169.92 
L 285.3 169.92 
L 285.9975 169.92 
L 286.695 169.92 
L 287.3925 169.92 
L 288.09 169.92 
L 288.7875 169.92 
L 289.485 169.92 
L 290.1825 169.92 
L 290.88 169.92 
L 291.5775 169.92 
L 292.275 169.92 
L 292.9725 169.92 
L 293.67 169.92 
L 294.3675 169.92 
L 295.065 169.92 
L 295.7625 169.92 
L 296.46 169.92 
L 297.1575 169.92 
L 297.855 169.92 
L 298.5525 169.92 
L 299.25 169.92 
L 299.9475 169.92 
L 300.645 169.92 
L 301.3425 169.92 
L 302.04 169.92 
L 302.7375 169.92 
L 303.435 169.92 
L 304.1325 169.92 
L 304.83 169.92 
L 305.5275 169.92 
L 306.225 169.92 
L 306.9225 169.92 
L 307.62 169.92 
L 308.3175 169.92 
L 309.015 169.92 
L 309.7125 169.92 
L 310.41 169.92 
L 311.1075 169.92 
L 311.805 169.92 
L 312.5025 169.92 
L 313.2 169.92 
L 313.8975 169.92 
L 314.595 169.92 
L 315.2925 169.92 
L 315.99 169.92 
L 316.6875 169.92 
L 317.385 169.92 
L 318.0825 169.92 
L 318.78 169.92 
L 319.4775 169.92 
L 320.175 169.92 
L 320.8725 169.92 
L 321.57 169.92 
L 322.2675 169.92 
L 322.965 169.92 
L 323.6625 169.92 
L 324.36 169.92 
L 325.0575 169.92 
L 325.755 169.92 
L 326.4525 169.92 
L 327.15 169.92 
L 327.8475 169.92 
L 328.545 169.92 
L 329.2425 169.92 
L 329.94 169.92 
L 330.6375 169.92 
L 331.335 169.92 
L 332.0325 169.92 
L 332.73 169.92 
L 333.4275 169.92 
L 334.125 169.92 
L 334.8225 169.92 
L 335.52 169.92 
L 336.2175 169.92 
L 336.915 169.92 
L 337.6125 169.92 
L 338.31 169.92 
L 339.0075 169.92 
L 339.705 169.92 
L 340.4025 169.92 
L 341.1 169.92 
L 341.7975 169.92 
L 342.495 169.92 
L 343.1925 169.92 
L 343.89 169.92 
L 344.5875 169.92 
L 345.285 169.92 
L 345.9825 169.92 
L 346.68 169.92 
L 347.3775 169.92 
L 348.075 169.92 
L 348.7725 169.92 
L 349.47 169.92 
L 350.1675 169.92 
L 350.865 169.92 
L 351.5625 169.92 
L 352.26 169.92 
L 352.9575 169.92 
L 353.655 169.92 
L 354.3525 169.92 
L 355.05 169.92 
L 355.7475 169.92 
L 356.445 169.92 
L 357.1425 169.92 
L 357.84 169.92 
L 358.5375 169.92 
L 359.235 169.92 
L 359.9325 169.92 
L 360.63 169.92 
L 361.3275 169.92 
L 362.025 169.92 
L 362.7225 169.92 
L 363.42 169.92 
L 364.1175 169.92 
L 364.815 169.92 
L 365.5125 169.92 
L 366.21 169.92 
L 366.9075 169.92 
L 367.605 169.92 
L 368.3025 169.92 
L 369 169.92 
L 369.6975 169.92 
L 370.395 169.92 
L 371.0925 169.92 
L 371.79 169.92 
L 372.4875 169.92 
L 373.185 169.92 
L 373.8825 169.92 
L 374.58 169.92 
L 375.2775 169.92 
L 375.975 169.92 
L 376.6725 169.92 
L 377.37 169.92 
L 378.0675 169.92 
L 378.765 169.92 
L 379.4625 169.92 
L 380.16 169.92 
L 380.8575 169.92 
L 381.555 169.92 
L 382.2525 169.92 
L 382.95 169.92 
L 383.6475 169.92 
L 384.345 169.92 
L 385.0425 169.92 
L 385.74 169.92 
L 386.4375 169.92 
L 387.135 169.92 
L 387.8325 169.92 
L 388.53 169.92 
L 389.2275 169.92 
L 389.925 169.92 
L 390.6225 169.92 
L 391.32 169.92 
L 392.0175 169.92 
L 392.715 169.92 
L 393.4125 169.92 
L 394.11 169.92 
L 394.8075 169.92 
L 395.505 169.92 
L 396.2025 169.92 
L 396.9 169.92 
L 397.5975 169.92 
L 398.295 169.92 
L 398.9925 169.92 
L 399.69 169.92 
L 400.3875 169.92 
L 401.085 169.92 
L 401.7825 169.92 
L 402.48 169.92 
L 403.1775 169.92 
L 403.875 169.92 
L 404.5725 169.92 
L 405.27 169.92 
L 405.9675 169.92 
L 406.665 169.92 
L 407.3625 169.92 
L 408.06 169.92 
L 408.7575 169.92 
L 409.455 169.92 
L 410.1525 169.92 
L 410.85 169.92 
L 411.5475 169.92 
L 412.245 169.92 
L 412.9425 169.92 
L 413.64 169.92 
L 414.3375 169.92 
L 415.035 169.92 
L 415.7325 169.92 
L 416.43 169.92 
L 417.1275 169.92 
L 417.825 169.92 
L 418.5225 169.92 
L 419.22 169.92 
L 419.9175 169.92 
L 420.615 169.92 
L 421.3125 169.92 
L 422.01 169.92 
L 422.7075 169.92 
L 423.405 169.92 
L 424.1025 169.92 
L 424.8 169.92 
L 425.4975 169.92 
L 426.195 169.92 
L 426.8925 169.92 
L 427.59 169.92 
L 428.2875 169.92 
L 428.985 169.92 
L 429.6825 169.92 
L 430.38 169.92 
L 431.0775 169.92 
L 431.775 169.92 
L 432.4725 169.92 
L 433.17 169.92 
L 433.8675 169.92 
L 434.565 169.92 
L 435.2625 169.92 
L 435.96 169.92 
L 436.6575 169.92 
L 437.355 169.92 
L 438.0525 169.92 
L 438.75 169.92 
L 439.4475 169.92 
L 440.145 169.92 
L 440.8425 169.92 
L 441.54 169.92 
L 442.2375 169.92 
L 442.935 169.92 
L 443.6325 169.92 
L 444.33 169.92 
L 445.0275 169.92 
L 445.725 169.92 
L 446.4225 169.92 
L 447.12 169.92 
L 447.8175 169.92 
L 448.515 169.92 
L 449.2125 169.92 
L 449.91 169.92 
L 450.6075 169.92 
L 451.305 169.92 
L 452.0025 169.92 
L 452.7 169.92 
L 453.3975 169.92 
L 454.095 169.92 
L 454.7925 169.92 
L 455.49 169.92 
L 456.1875 169.92 
L 456.885 169.92 
L 457.5825 169.92 
L 458.28 169.92 
L 458.9775 169.92 
L 459.675 169.92 
L 460.3725 169.92 
L 461.07 169.92 
L 461.7675 169.92 
L 462.465 169.92 
L 463.1625 169.92 
L 463.86 169.92 
L 464.5575 169.92 
L 465.255 169.92 
L 465.9525 169.92 
L 466.65 169.92 
L 467.3475 169.92 
L 468.045 169.92 
L 468.7425 169.92 
L 469.44 169.92 
L 470.1375 169.92 
L 470.835 169.92 
L 471.5325 169.92 
L 472.23 169.92 
L 472.9275 169.92 
L 473.625 169.92 
L 474.3225 169.92 
L 475.02 169.92 
L 475.7175 169.92 
L 476.415 169.92 
L 477.1125 169.92 
L 477.81 169.92 
L 478.5075 169.92 
L 479.205 169.92 
L 479.9025 169.92 
L 480.6 169.92 
L 481.2975 169.92 
L 481.995 169.92 
L 482.6925 169.92 
L 483.39 169.92 
L 484.0875 169.92 
L 484.785 169.92 
L 485.4825 169.92 
L 486.18 169.92 
L 486.8775 169.92 
L 487.575 169.92 
L 488.2725 169.92 
L 488.97 169.92 
L 489.6675 169.92 
L 490.365 169.92 
L 491.0625 169.92 
L 491.76 169.92 
L 492.4575 169.92 
L 493.155 169.92 
L 493.8525 169.92 
L 494.55 169.92 
L 495.2475 169.92 
L 495.945 169.92 
L 496.6425 169.92 
L 497.34 169.92 
L 498.0375 169.92 
L 498.735 169.92 
L 499.4325 169.92 
L 500.13 169.92 
L 500.8275 169.92 
L 501.525 169.92 
L 502.2225 169.92 
L 502.92 169.92 
L 503.6175 169.92 
L 504.315 169.92 
L 505.0125 169.92 
L 505.71 169.92 
L 506.4075 169.92 
L 507.105 169.92 
L 507.8025 169.92 
L 508.5 169.92 
L 509.1975 169.92 
L 509.895 169.92 
L 510.5925 169.92 
L 511.29 169.92 
L 511.9875 169.92 
L 512.685 169.92 
L 513.3825 169.92 
L 514.08 169.92 
L 514.7775 169.92 
L 515.475 169.92 
L 516.1725 169.92 
L 516.87 169.92 
L 517.5675 169.92 
L 518.265 169.92 
L 518.9625 169.92 
L 519.66 169.92 
L 520.3575 169.92 
L 521.055 169.92 
L 521.7525 169.92 
L 522.45 169.92 
L 523.1475 169.92 
L 523.845 169.92 
L 524.5425 169.92 
L 525.24 169.92 
L 525.9375 169.92 
L 526.635 169.92 
L 527.3325 169.92 
L 528.03 169.92 
L 528.7275 169.92 
L 529.425 169.92 
L 530.1225 169.92 
L 530.82 169.92 
L 531.5175 169.92 
L 532.215 169.92 
L 532.9125 169.92 
L 533.61 169.92 
L 534.3075 169.92 
L 535.005 169.92 
L 535.7025 169.92 
L 536.4 169.92 
L 537.0975 169.92 
L 537.795 169.92 
L 538.4925 169.92 
L 539.19 169.92 
L 539.8875 169.92 
L 540.585 169.92 
L 541.2825 169.92 
L 541.98 169.92 
L 542.6775 169.92 
L 543.375 169.92 
L 544.0725 169.92 
L 544.77 169.92 
L 545.4675 169.92 
L 546.165 169.92 
L 546.8625 169.92 
L 547.56 169.92 
L 548.2575 169.92 
L 548.955 169.92 
L 549.6525 169.92 
L 550.35 169.92 
L 551.0475 169.92 
L 551.745 169.92 
L 552.4425 169.92 
L 553.14 169.92 
L 553.8375 169.92 
L 554.535 169.92 
L 555.2325 169.92 
L 555.93 169.92 
L 556.6275 169.92 
L 557.325 169.92 
L 558.0225 169.92 
L 558.72 169.92 
L 559.4175 169.92 
L 560.115 169.92 
L 560.8125 169.92 
L 561.51 169.92 
L 562.2075 169.92 
L 562.905 169.92 
L 563.6025 169.92 
L 564.3 169.92 
L 564.9975 169.92 
L 565.695 169.92 
L 566.3925 169.92 
L 567.09 169.92 
L 567.7875 169.92 
L 568.485 169.92 
L 569.1825 169.92 
L 569.88 169.92 
L 570.5775 169.92 
L 571.275 169.92 
L 571.9725 169.92 
L 572.67 169.92 
L 573.3675 169.92 
L 574.065 169.92 
L 574.7625 169.92 
L 575.46 169.92 
L 576.1575 169.92 
L 576.855 169.92 
L 577.5525 169.92 
L 578.25 169.92 
L 578.9475 169.92 
L 579.645 169.92 
L 580.3425 169.92 
L 581.04 169.92 
L 581.7375 169.92 
L 582.435 169.92 
L 583.1325 169.92 
L 583.83 169.92 
L 584.5275 169.92 
L 585.225 169.92 
L 585.9225 169.92 
L 586.62 169.92 
L 587.3175 169.92 
L 588.015 169.92 
L 588.7125 169.92 
L 589.41 169.92 
L 590.1075 169.92 
L 590.805 169.92 
L 591.5025 169.92 
L 592.2 169.92 
L 592.8975 169.92 
L 593.595 169.92 
L 594.2925 169.92 
L 594.99 169.92 
L 595.6875 169.92 
L 596.385 169.92 
L 597.0825 169.92 
L 597.78 169.92 
L 598.4775 169.92 
L 599.175 169.92 
L 599.8725 169.92 
L 600.57 169.92 
L 601.2675 169.92 
L 601.965 169.92 
L 602.6625 169.92 
L 603.36 169.92 
L 604.0575 169.92 
L 604.755 169.92 
L 605.4525 169.92 
L 606.15 169.92 
L 606.8475 169.92 
L 607.545 169.92 
L 608.2425 169.92 
L 608.94 169.92 
L 609.6375 169.92 
L 610.335 169.92 
L 611.0325 169.92 
L 611.73 169.92 
L 612.4275 169.92 
L 613.125 169.92 
L 613.8225 169.92 
L 614.52 169.92 
L 615.2175 169.92 
L 615.915 169.92 
L 616.6125 169.92 
L 617.31 169.92 
L 618.0075 169.92 
L 618.705 169.92 
L 619.4025 169.92 
L 620.1 169.92 
L 620.7975 169.92 
L 621.495 169.92 
L 622.1925 169.92 
L 622.89 169.92 
L 623.5875 169.92 
L 624.285 169.92 
L 624.9825 169.92 
L 625.68 169.92 
L 626.3775 169.92 
L 627.075 169.92 
L 627.7725 169.92 
L 628.47 169.92 
L 629.1675 169.92 
L 629.865 169.92 
L 630.5625 169.92 
L 631.26 169.92 
L 631.9575 169.92 
L 632.655 169.92 
L 633.3525 169.92 
L 634.05 169.92 
L 634.7475 169.92 
L 635.445 169.92 
L 636.1425 169.92 
L 636.84 169.92 
L 637.5375 169.92 
L 638.235 169.92 
L 638.9325 169.92 
L 639.63 169.92 
L 640.3275 169.92 
L 641.025 169.92 
L 641.7225 169.92 
L 642.42 169.92 
L 643.1175 169.92 
L 643.815 169.92 
L 644.5125 169.92 
L 645.21 169.92 
L 645.9075 169.92 
L 646.605 169.92 
L 646.605 169.92 
L 646.605 169.92 
L 645.9075 169.923321 
L 645.21 169.931073 
L 644.5125 169.944288 
L 643.815 169.963895 
L 643.1175 169.990706 
L 642.42 170.025399 
L 641.7225 170.068505 
L 641.025 170.120396 
L 640.3275 170.181273 
L 639.63 170.251165 
L 638.9325 170.32992 
L 638.235 170.417205 
L 637.5375 170.512512 
L 636.84 170.615154 
L 636.1425 170.724282 
L 635.445 170.838885 
L 634.7475 170.957809 
L 634.05 171.079771 
L 633.3525 171.203372 
L 632.655 171.327118 
L 631.9575 171.449443 
L 631.26 171.568724 
L 630.5625 171.68331 
L 629.865 171.791542 
L 629.1675 171.891779 
L 628.47 171.982419 
L 627.7725 172.061924 
L 627.075 172.128846 
L 626.3775 172.181842 
L 625.68 172.219703 
L 624.9825 172.241364 
L 624.285 172.245931 
L 623.5875 172.232689 
L 622.89 172.201115 
L 622.1925 172.150895 
L 621.495 172.081922 
L 620.7975 171.99431 
L 620.1 171.888387 
L 619.4025 171.764702 
L 618.705 171.624015 
L 618.0075 171.467293 
L 617.31 171.295699 
L 616.6125 171.110583 
L 615.915 170.91346 
L 615.2175 170.706 
L 614.52 170.490006 
L 613.8225 170.267389 
L 613.125 170.040152 
L 612.4275 169.810363 
L 611.73 169.580126 
L 611.0325 169.351564 
L 610.335 169.126785 
L 609.6375 168.907863 
L 608.94 168.696806 
L 608.2425 168.49554 
L 607.545 168.305876 
L 606.8475 168.129499 
L 606.15 167.967938 
L 605.4525 167.822556 
L 604.755 167.694527 
L 604.0575 167.584829 
L 603.36 167.49423 
L 602.6625 167.423282 
L 601.965 167.372314 
L 601.2675 167.341431 
L 600.57 167.330514 
L 599.8725 167.339228 
L 599.175 167.367022 
L 598.4775 167.413144 
L 597.78 167.476652 
L 597.0825 167.556425 
L 596.385 167.651186 
L 595.6875 167.759516 
L 594.99 167.879875 
L 594.2925 168.010627 
L 593.595 168.150061 
L 592.8975 168.296414 
L 592.2 168.447896 
L 591.5025 168.602716 
L 590.805 168.759105 
L 590.1075 168.915337 
L 589.41 169.069758 
L 588.7125 169.2208 
L 588.015 169.367006 
L 587.3175 169.507046 
L 586.62 169.639734 
L 585.9225 169.764042 
L 585.225 169.879108 
L 584.5275 169.984249 
L 583.83 170.078966 
L 583.1325 170.162945 
L 582.435 170.23606 
L 581.7375 170.298369 
L 581.04 170.350108 
L 580.3425 170.391687 
L 579.645 170.423676 
L 578.9475 170.446792 
L 578.25 170.461887 
L 577.5525 170.469929 
L 576.855 170.471985 
L 576.1575 170.4692 
L 575.46 170.462776 
L 574.7625 170.453949 
L 574.065 170.443971 
L 573.3675 170.434084 
L 572.67 170.425497 
L 571.9725 170.419369 
L 571.275 170.416785 
L 570.5775 170.418737 
L 569.88 170.426107 
L 569.1825 170.439648 
L 568.485 170.459974 
L 567.7875 170.487547 
L 567.09 170.522664 
L 566.3925 170.565455 
L 565.695 170.615873 
L 564.9975 170.6737 
L 564.3 170.738539 
L 563.6025 170.809826 
L 562.905 170.886834 
L 562.2075 170.968678 
L 561.51 171.054334 
L 560.8125 171.142648 
L 560.115 171.232354 
L 559.4175 171.322092 
L 558.72 171.410428 
L 558.0225 171.495873 
L 557.325 171.57691 
L 556.6275 171.652011 
L 555.93 171.719665 
L 555.2325 171.778397 
L 554.535 171.826798 
L 553.8375 171.863538 
L 553.14 171.887395 
L 552.4425 171.897272 
L 551.745 171.892218 
L 551.0475 171.871441 
L 550.35 171.834325 
L 549.6525 171.780444 
L 548.955 171.709568 
L 548.2575 171.621674 
L 547.56 171.516949 
L 546.8625 171.395788 
L 546.165 171.2588 
L 545.4675 171.106798 
L 544.77 170.940793 
L 544.0725 170.761985 
L 543.375 170.57175 
L 542.6775 170.371627 
L 541.98 170.163295 
L 541.2825 169.94856 
L 540.585 169.72933 
L 539.8875 169.507594 
L 539.19 169.285397 
L 538.4925 169.064817 
L 537.795 168.847934 
L 537.0975 168.636814 
L 536.4 168.433475 
L 535.7025 168.239866 
L 535.005 168.057842 
L 534.3075 167.889141 
L 533.61 167.735362 
L 532.9125 167.597949 
L 532.215 167.478168 
L 531.5175 167.377093 
L 530.82 167.295596 
L 530.1225 167.234335 
L 529.425 167.193746 
L 528.7275 167.174038 
L 528.03 167.175194 
L 527.3325 167.19697 
L 526.635 167.238901 
L 525.9375 167.300306 
L 525.24 167.380302 
L 524.5425 167.477812 
L 523.845 167.591583 
L 523.1475 167.720204 
L 522.45 167.862122 
L 521.7525 168.015666 
L 521.055 168.179071 
L 520.3575 168.350495 
L 519.66 168.52805 
L 518.9625 168.709825 
L 518.265 168.893909 
L 517.5675 169.078417 
L 516.87 169.261515 
L 516.1725 169.441441 
L 515.475 169.616528 
L 514.7775 169.785224 
L 514.08 169.946112 
L 513.3825 170.097922 
L 512.685 170.239552 
L 511.9875 170.370072 
L 511.29 170.488738 
L 510.5925 170.594999 
L 509.895 170.688494 
L 509.1975 170.76906 
L 508.5 170.836726 
L 507.8025 170.891708 
L 507.105 170.934401 
L 506.4075 170.965372 
L 505.71 170.985342 
L 505.0125 170.995176 
L 504.315 170.995862 
L 503.6175 170.988495 
L 502.92 170.974258 
L 502.2225 170.954397 
L 501.525 170.930203 
L 500.8275 170.902986 
L 500.13 170.874056 
L 499.4325 170.844699 
L 498.735 170.816154 
L 498.0375 170.789594 
L 497.34 170.766105 
L 496.6425 170.746668 
L 495.945 170.732144 
L 495.2475 170.723257 
L 494.55 170.720581 
L 493.8525 170.724534 
L 493.155 170.735368 
L 492.4575 170.753161 
L 491.76 170.777824 
L 491.0625 170.80909 
L 490.365 170.846527 
L 489.6675 170.88954 
L 488.97 170.937379 
L 488.2725 170.989153 
L 487.575 171.043841 
L 486.8775 171.10031 
L 486.18 171.157329 
L 485.4825 171.213592 
L 484.785 171.267739 
L 484.0875 171.318374 
L 483.39 171.364088 
L 482.6925 171.403487 
L 481.995 171.435206 
L 481.2975 171.457941 
L 480.6 171.470466 
L 479.9025 171.471651 
L 479.205 171.46049 
L 478.5075 171.436114 
L 477.81 171.397806 
L 477.1125 171.345021 
L 476.415 171.277392 
L 475.7175 171.194746 
L 475.02 171.097104 
L 474.3225 170.98469 
L 473.625 170.857933 
L 472.9275 170.717462 
L 472.23 170.564103 
L 471.5325 170.398873 
L 470.835 170.22297 
L 470.1375 170.037757 
L 469.44 169.844753 
L 468.7425 169.645611 
L 468.045 169.4421 
L 467.3475 169.236083 
L 466.65 169.029499 
L 465.9525 168.824332 
L 465.255 168.622592 
L 464.5575 168.426288 
L 463.86 168.237402 
L 463.1625 168.057867 
L 462.465 167.889537 
L 461.7675 167.734169 
L 461.07 167.593395 
L 460.3725 167.468706 
L 459.675 167.36143 
L 458.9775 167.272714 
L 458.28 167.203513 
L 457.5825 167.154571 
L 456.885 167.12642 
L 456.1875 167.119363 
L 455.49 167.133481 
L 454.7925 167.168622 
L 454.095 167.224408 
L 453.3975 167.300242 
L 452.7 167.395309 
L 452.0025 167.508593 
L 451.305 167.638888 
L 450.6075 167.784811 
L 449.91 167.944824 
L 449.2125 168.117252 
L 448.515 168.300305 
L 447.8175 168.492098 
L 447.12 168.690682 
L 446.4225 168.894061 
L 445.725 169.100221 
L 445.0275 169.307157 
L 444.33 169.512893 
L 443.6325 169.715512 
L 442.935 169.913176 
L 442.2375 170.104147 
L 441.54 170.286812 
L 440.8425 170.459697 
L 440.145 170.621488 
L 439.4475 170.771041 
L 438.75 170.907397 
L 438.0525 171.029788 
L 437.355 171.137647 
L 436.6575 171.230609 
L 435.96 171.308512 
L 435.2625 171.371396 
L 434.565 171.419495 
L 433.8675 171.453232 
L 433.17 171.473208 
L 432.4725 171.480189 
L 431.775 171.475088 
L 431.0775 171.458955 
L 430.38 171.43295 
L 429.6825 171.398328 
L 428.985 171.356417 
L 428.2875 171.308592 
L 427.59 171.256259 
L 426.8925 171.200824 
L 426.195 171.143679 
L 425.4975 171.086171 
L 424.8 171.029587 
L 424.1025 170.975131 
L 423.405 170.923907 
L 422.7075 170.876899 
L 422.01 170.834959 
L 421.3125 170.798791 
L 420.615 170.768946 
L 419.9175 170.745806 
L 419.22 170.729585 
L 418.5225 170.720326 
L 417.825 170.717896 
L 417.1275 170.721996 
L 416.43 170.73216 
L 415.7325 170.747769 
L 415.035 170.768058 
L 414.3375 170.79213 
L 413.64 170.81897 
L 412.9425 170.847467 
L 412.245 170.876426 
L 411.5475 170.904592 
L 410.85 170.930673 
L 410.1525 170.953357 
L 409.455 170.971338 
L 408.7575 170.983339 
L 408.06 170.98813 
L 407.3625 170.984556 
L 406.665 170.971552 
L 405.9675 170.948167 
L 405.27 170.913579 
L 404.5725 170.867113 
L 403.875 170.808253 
L 403.1775 170.73666 
L 402.48 170.652172 
L 401.7825 170.554821 
L 401.085 170.444829 
L 400.3875 170.322614 
L 399.69 170.188788 
L 398.9925 170.044151 
L 398.295 169.889686 
L 397.5975 169.726548 
L 396.9 169.556051 
L 396.2025 169.379656 
L 395.505 169.198949 
L 394.8075 169.015628 
L 394.11 168.831477 
L 393.4125 168.648348 
L 392.715 168.468133 
L 392.0175 168.292745 
L 391.32 168.124089 
L 390.6225 167.964038 
L 389.925 167.814412 
L 389.2275 167.676948 
L 388.53 167.55328 
L 387.8325 167.444918 
L 387.135 167.353223 
L 386.4375 167.279396 
L 385.74 167.224451 
L 385.0425 167.189209 
L 384.345 167.174285 
L 383.6475 167.180072 
L 382.95 167.206744 
L 382.2525 167.254246 
L 381.555 167.322298 
L 380.8575 167.410391 
L 380.16 167.517801 
L 379.4625 167.643589 
L 378.765 167.786619 
L 378.0675 167.945567 
L 377.37 168.118939 
L 376.6725 168.305089 
L 375.975 168.502238 
L 375.2775 168.708498 
L 374.58 168.921897 
L 373.8825 169.140397 
L 373.185 169.361925 
L 372.4875 169.584396 
L 371.79 169.805741 
L 371.0925 170.023928 
L 370.395 170.236989 
L 369.6975 170.443047 
L 369 170.64033 
L 368.3025 170.827201 
L 367.605 171.002169 
L 366.9075 171.163912 
L 366.21 171.311285 
L 365.5125 171.443338 
L 364.815 171.559322 
L 364.1175 171.658693 
L 363.42 171.741121 
L 362.7225 171.806483 
L 362.025 171.85487 
L 361.3275 171.886573 
L 360.63 171.902079 
L 359.9325 171.902061 
L 359.235 171.887362 
L 358.5375 171.858982 
L 357.84 171.818062 
L 357.1425 171.765858 
L 356.445 171.703731 
L 355.7475 171.633113 
L 355.05 171.555496 
L 354.3525 171.4724 
L 353.655 171.385353 
L 352.9575 171.295871 
L 352.26 171.205428 
L 351.5625 171.115441 
L 350.865 171.027244 
L 350.1675 170.942075 
L 349.47 170.86105 
L 348.7725 170.785155 
L 348.075 170.715229 
L 347.3775 170.651953 
L 346.68 170.595842 
L 345.9825 170.547239 
L 345.285 170.506314 
L 344.5875 170.47306 
L 343.89 170.447297 
L 343.1925 170.428678 
L 342.495 170.416696 
L 341.7975 170.410694 
L 341.1 170.409879 
L 340.4025 170.413335 
L 339.705 170.42004 
L 339.0075 170.428887 
L 338.31 170.4387 
L 337.6125 170.448257 
L 336.915 170.456313 
L 336.2175 170.461618 
L 335.52 170.462946 
L 334.8225 170.459109 
L 334.125 170.448984 
L 333.4275 170.431535 
L 332.73 170.405825 
L 332.0325 170.371043 
L 331.335 170.326514 
L 330.6375 170.271716 
L 329.94 170.206292 
L 329.2425 170.130057 
L 328.545 170.04301 
L 327.8475 169.945333 
L 327.15 169.837395 
L 326.4525 169.719753 
L 325.755 169.593142 
L 325.0575 169.458475 
L 324.36 169.316829 
L 323.6625 169.169434 
L 322.965 169.01766 
L 322.2675 168.862996 
L 321.57 168.707037 
L 320.8725 168.551461 
L 320.175 168.398007 
L 319.4775 168.248451 
L 318.78 168.104585 
L 318.0825 167.968189 
L 317.385 167.841013 
L 316.6875 167.724743 
L 315.99 167.620988 
L 315.2925 167.531249 
L 314.595 167.456902 
L 313.8975 167.399176 
L 313.2 167.359136 
L 312.5025 167.337666 
L 311.805 167.335454 
L 311.1075 167.352984 
L 310.41 167.390525 
L 309.7125 167.448123 
L 309.015 167.525604 
L 308.3175 167.622567 
L 307.62 167.738393 
L 306.9225 167.872246 
L 306.225 168.023086 
L 305.5275 168.189676 
L 304.83 168.370601 
L 304.1325 168.56428 
L 303.435 168.768987 
L 302.7375 168.98287 
L 302.04 169.203978 
L 301.3425 169.430276 
L 300.645 169.659679 
L 299.9475 169.89007 
L 299.25 170.119329 
L 298.5525 170.34536 
L 297.855 170.566113 
L 297.1575 170.779611 
L 296.46 170.983973 
L 295.7625 171.177436 
L 295.065 171.358375 
L 294.3675 171.525326 
L 293.67 171.676995 
L 292.9725 171.81228 
L 292.275 171.930277 
L 291.5775 172.03029 
L 290.88 172.111841 
L 290.1825 172.174668 
L 289.485 172.218727 
L 288.7875 172.244191 
L 288.09 172.251441 
L 287.3925 172.24106 
L 286.695 172.213824 
L 285.9975 172.170682 
L 285.3 172.112747 
L 284.6025 172.041273 
L 283.905 171.95764 
L 283.2075 171.863329 
L 282.51 171.759901 
L 281.8125 171.648976 
L 281.115 171.532204 
L 280.4175 171.411247 
L 279.72 171.287752 
L 279.0225 171.163329 
L 278.325 171.039527 
L 277.6275 170.917813 
L 276.93 170.799557 
L 276.2325 170.686005 
L 275.535 170.578271 
L 274.8375 170.477318 
L 274.14 170.38395 
L 273.4425 170.2988 
L 272.745 170.222326 
L 272.0475 170.154806 
L 271.35 170.096337 
L 270.6525 170.046839 
L 269.955 170.006059 
L 269.2575 169.973576 
L 268.56 169.948814 
L 267.8625 169.931054 
L 267.165 169.919445 
L 266.4675 169.913027 
L 265.77 169.910741 
L 265.0725 169.911458 
L 264.375 169.91399 
L 263.6775 169.917119 
L 262.98 169.919617 
L 262.2825 169.920266 
L 261.585 169.917883 
L 260.8875 169.911338 
L 260.19 169.899581 
L 259.4925 169.881653 
L 258.795 169.856712 
L 258.0975 169.824045 
L 257.4 169.783083 
L 256.7025 169.733414 
L 256.005 169.674793 
L 255.3075 169.607148 
L 254.61 169.530585 
L 253.9125 169.445391 
L 253.215 169.352032 
L 252.5175 169.25115 
L 251.82 169.143555 
L 251.1225 169.030219 
L 250.425 168.912259 
L 249.7275 168.79093 
L 249.03 168.667602 
L 248.3325 168.543747 
L 247.635 168.420917 
L 246.9375 168.300721 
L 246.24 168.184806 
L 245.5425 168.07483 
L 244.845 167.972442 
L 244.1475 167.879256 
L 243.45 167.796827 
L 242.7525 167.726629 
L 242.055 167.670033 
L 241.3575 167.628283 
L 240.66 167.60248 
L 239.9625 167.593566 
L 239.265 167.602299 
L 238.5675 167.629252 
L 237.87 167.674792 
L 237.1725 167.739079 
L 236.475 167.822054 
L 235.7775 167.923442 
L 235.08 168.042749 
L 234.3825 168.179269 
L 233.685 168.332084 
L 232.9875 168.500079 
L 232.29 168.68195 
L 231.5925 168.876222 
L 230.895 169.081262 
L 230.1975 169.295298 
L 229.5 169.516444 
L 228.8025 169.742718 
L 228.105 169.972065 
L 227.4075 170.202389 
L 226.71 170.431568 
L 226.0125 170.657489 
L 225.315 170.878067 
L 224.6175 171.091274 
L 223.92 171.295163 
L 223.2225 171.48789 
L 222.525 171.667739 
L 221.8275 171.833138 
L 221.13 171.982683 
L 220.4325 172.11515 
L 219.735 172.229511 
L 219.0375 172.324945 
L 218.34 172.400845 
L 217.6425 172.456827 
L 216.945 172.492729 
L 216.2475 172.508614 
L 215.55 172.504764 
L 214.8525 172.481677 
L 214.155 172.440056 
L 213.4575 172.380796 
L 212.76 172.304976 
L 212.0625 172.213834 
L 211.365 172.108756 
L 210.6675 171.991255 
L 209.97 171.862943 
L 209.2725 171.725515 
L 208.575 171.580725 
L 207.8775 171.430357 
L 207.18 171.276204 
L 206.4825 171.120044 
L 205.785 170.963614 
L 205.0875 170.80859 
L 204.39 170.656562 
L 203.6925 170.509017 
L 202.995 170.367318 
L 202.2975 170.232689 
L 201.6 170.106199 
L 200.9025 169.988752 
L 200.205 169.881075 
L 199.5075 169.783716 
L 198.81 169.697033 
L 198.1125 169.6212 
L 197.415 169.556205 
L 196.7175 169.501855 
L 196.02 169.457784 
L 195.3225 169.423459 
L 194.625 169.3982 
L 193.9275 169.381186 
L 193.23 169.371477 
L 192.5325 169.368029 
L 191.835 169.369714 
L 191.1375 169.375344 
L 190.44 169.383687 
L 189.7425 169.393495 
L 189.045 169.40352 
L 188.3475 169.412543 
L 187.65 169.41939 
L 186.9525 169.422957 
L 186.255 169.422226 
L 185.5575 169.416287 
L 184.86 169.404352 
L 184.1625 169.385771 
L 183.465 169.360045 
L 182.7675 169.326832 
L 182.07 169.285963 
L 181.3725 169.237437 
L 180.675 169.181433 
L 179.9775 169.1183 
L 179.28 169.048563 
L 178.5825 168.972909 
L 177.885 168.892183 
L 177.1875 168.807376 
L 176.49 168.719612 
L 175.7925 168.63013 
L 175.095 168.540268 
L 174.3975 168.451444 
L 173.7 168.365134 
L 173.0025 168.282852 
L 172.305 168.206125 
L 171.6075 168.136469 
L 170.91 168.075371 
L 170.2125 168.024259 
L 169.515 167.984485 
L 168.8175 167.9573 
L 168.12 167.943832 
L 167.4225 167.945072 
L 166.725 167.961854 
L 166.0275 167.994838 
L 165.33 168.044498 
L 164.6325 168.111115 
L 163.935 168.194763 
L 163.2375 168.29531 
L 162.54 168.412411 
L 161.8425 168.54551 
L 161.145 168.693846 
L 160.4475 168.856456 
L 159.75 169.032185 
L 159.0525 169.219701 
L 158.355 169.417505 
L 157.6575 169.62395 
L 156.96 169.837259 
L 156.2625 170.055549 
L 155.565 170.276848 
L 154.8675 170.499123 
L 154.17 170.720304 
L 153.4725 170.938305 
L 152.775 171.151057 
L 152.0775 171.356527 
L 151.38 171.552747 
L 150.6825 171.737836 
L 149.985 171.910023 
L 149.2875 172.067674 
L 148.59 172.209304 
L 147.8925 172.333602 
L 147.195 172.439443 
L 146.4975 172.525905 
L 145.8 172.592274 
L 145.1025 172.63806 
L 144.405 172.662995 
L 143.7075 172.667041 
L 143.01 172.650385 
L 142.3125 172.613438 
L 141.615 172.556826 
L 140.9175 172.481384 
L 140.22 172.388142 
L 139.5225 172.27831 
L 138.825 172.153261 
L 138.1275 172.014515 
L 137.43 171.863715 
L 136.7325 171.702605 
L 136.035 171.533011 
L 135.3375 171.356809 
L 134.64 171.17591 
L 133.9425 170.992225 
L 133.245 170.807648 
L 132.5475 170.624029 
L 131.85 170.44315 
L 131.1525 170.266703 
L 130.455 170.096271 
L 129.7575 169.933306 
L 129.06 169.779116 
L 128.3625 169.634847 
L 127.665 169.501473 
L 126.9675 169.379784 
L 126.27 169.27038 
L 125.5725 169.173671 
L 124.875 169.089868 
L 124.1775 169.01899 
L 123.48 168.960867 
L 122.7825 168.915148 
L 122.085 168.881309 
L 121.3875 168.858664 
L 120.69 168.846384 
L 119.9925 168.843511 
L 119.295 168.848972 
L 118.5975 168.861606 
L 117.9 168.880181 
L 117.2025 168.903414 
L 116.505 168.929998 
L 115.8075 168.958622 
L 115.11 168.98799 
L 114.4125 169.016852 
L 113.715 169.044013 
L 113.0175 169.068367 
L 112.32 169.088902 
L 111.6225 169.104727 
L 110.925 169.115084 
L 110.2275 169.119358 
L 109.53 169.117092 
L 108.8325 169.107993 
L 108.135 169.091937 
L 107.4375 169.068974 
L 106.74 169.039325 
L 106.0425 169.003381 
L 105.345 168.961697 
L 104.6475 168.914986 
L 103.95 168.864105 
L 103.2525 168.810044 
L 102.555 168.753909 
L 101.8575 168.696908 
L 101.16 168.640329 
L 100.4625 168.585523 
L 99.765 168.533878 
L 99.0675 168.486802 
L 98.37 168.445696 
L 97.6725 168.411931 
L 96.975 168.386831 
L 96.2775 168.371645 
L 95.58 168.367525 
L 94.8825 168.375512 
L 94.185 168.396511 
L 93.4875 168.431278 
L 92.79 168.480402 
L 92.0925 168.544296 
L 91.395 168.623182 
L 90.6975 168.717089 
L 90 168.825842 
z
" style="fill:#e0ffff;"/>
   </g>
   <g id="line2d_19">
    <path clip-path="url(#p7c3060dbbc)" d="M 90 168.825842 
L 92.79 168.480402 
L 95.58 168.367525 
L 99.0675 168.486802 
L 109.53 169.117092 
L 113.715 169.044013 
L 120.69 168.846384 
L 123.48 168.960867 
L 126.27 169.27038 
L 129.06 169.779116 
L 133.245 170.807648 
L 138.1275 172.014515 
L 140.9175 172.481384 
L 143.01 172.650385 
L 145.1025 172.63806 
L 147.195 172.439443 
L 149.985 171.910023 
L 153.4725 170.938305 
L 160.4475 168.856456 
L 163.2375 168.29531 
L 166.0275 167.994838 
L 168.8175 167.9573 
L 171.6075 168.136469 
L 176.49 168.719612 
L 181.3725 169.237437 
L 184.86 169.404352 
L 189.7425 169.393495 
L 195.3225 169.423459 
L 198.81 169.697033 
L 202.2975 170.232689 
L 207.18 171.276204 
L 211.365 172.108756 
L 214.155 172.440056 
L 216.2475 172.508614 
L 218.34 172.400845 
L 220.4325 172.11515 
L 223.2225 171.48789 
L 226.71 170.431568 
L 232.29 168.68195 
L 235.08 168.042749 
L 237.87 167.674792 
L 240.66 167.60248 
L 243.45 167.796827 
L 246.9375 168.300721 
L 254.61 169.530585 
L 258.0975 169.824045 
L 262.2825 169.920266 
L 269.955 170.006059 
L 273.4425 170.2988 
L 277.6275 170.917813 
L 284.6025 172.041273 
L 287.3925 172.24106 
L 290.1825 172.174668 
L 292.9725 171.81228 
L 295.7625 171.177436 
L 299.25 170.119329 
L 304.83 168.370601 
L 307.62 167.738393 
L 309.7125 167.448123 
L 311.805 167.335454 
L 313.8975 167.399176 
L 316.6875 167.724743 
L 320.175 168.398007 
L 327.15 169.837395 
L 330.6375 170.271716 
L 334.125 170.448984 
L 339.705 170.42004 
L 344.5875 170.47306 
L 348.075 170.715229 
L 353.655 171.385353 
L 357.84 171.818062 
L 360.63 171.902079 
L 363.42 171.741121 
L 366.21 171.311285 
L 369 170.64033 
L 373.185 169.361925 
L 377.37 168.118939 
L 380.16 167.517801 
L 382.2525 167.254246 
L 384.345 167.174285 
L 386.4375 167.279396 
L 389.2275 167.676948 
L 392.715 168.468133 
L 399.69 170.188788 
L 402.48 170.652172 
L 405.27 170.913579 
L 408.7575 170.983339 
L 415.035 170.768058 
L 419.22 170.729585 
L 423.405 170.923907 
L 432.4725 171.480189 
L 435.2625 171.371396 
L 438.0525 171.029788 
L 440.8425 170.459697 
L 444.33 169.512893 
L 449.91 167.944824 
L 452.7 167.395309 
L 454.7925 167.168622 
L 456.885 167.12642 
L 458.9775 167.272714 
L 461.7675 167.734169 
L 465.255 168.622592 
L 472.23 170.564103 
L 475.02 171.097104 
L 477.81 171.397806 
L 480.6 171.470466 
L 484.0875 171.318374 
L 493.155 170.735368 
L 497.34 170.766105 
L 506.4075 170.965372 
L 509.1975 170.76906 
L 511.9875 170.370072 
L 515.475 169.616528 
L 523.845 167.591583 
L 526.635 167.238901 
L 528.7275 167.174038 
L 530.82 167.295596 
L 532.9125 167.597949 
L 535.7025 168.239866 
L 539.8875 169.507594 
L 544.0725 170.761985 
L 546.8625 171.395788 
L 549.6525 171.780444 
L 552.4425 171.897272 
L 555.2325 171.778397 
L 559.4175 171.322092 
L 565.695 170.615873 
L 569.1825 170.439648 
L 574.065 170.443971 
L 579.645 170.423676 
L 583.1325 170.162945 
L 586.62 169.639734 
L 591.5025 168.602716 
L 595.6875 167.759516 
L 598.4775 167.413144 
L 600.57 167.330514 
L 602.6625 167.423282 
L 604.755 167.694527 
L 607.545 168.305876 
L 611.0325 169.351564 
L 617.31 171.295699 
L 620.1 171.888387 
L 622.89 172.201115 
L 625.68 172.219703 
L 628.47 171.982419 
L 632.655 171.327118 
L 638.235 170.417205 
L 641.7225 170.068505 
L 645.21 169.931073 
L 646.605 169.92 
L 646.605 169.92 
" style="fill:none;stroke:#008080;stroke-linecap:round;stroke-width:1.75;"/>
   </g>
   <g id="patch_3">
    <path d="M 90 270.72 
L 90 69.12 
" style="fill:none;stroke:#262626;stroke-linecap:square;stroke-linejoin:miter;stroke-width:1.25;"/>
   </g>
   <g id="patch_4">
    <path d="M 90 270.72 
L 648 270.72 
" style="fill:none;stroke:#262626;stroke-linecap:square;stroke-linejoin:miter;stroke-width:1.25;"/>
   </g>
  </g>
  <g id="axes_2">
   <g id="patch_5">
    <path d="M 90 512.64 
L 648 512.64 
L 648 311.04 
L 90 311.04 
z
" style="fill:#ffffff;"/>
   </g>
   <g id="matplotlib.axis_3">
    <g id="xtick_10">
     <g id="line2d_20">
      <g>
       <use style="fill:#262626;stroke:#262626;" x="190.44" xlink:href="#m6d1ad05546" y="512.64"/>
      </g>
     </g>
     <g id="text_19">
      <!-- 200 -->
      <g style="fill:#262626;" transform="translate(182.098594 532.797812)scale(0.1 -0.1)">
       <use xlink:href="#ArialMT-32"/>
       <use x="55.615234" xlink:href="#ArialMT-30"/>
       <use x="111.230469" xlink:href="#ArialMT-30"/>
      </g>
     </g>
    </g>
    <g id="xtick_11">
     <g id="line2d_21">
      <g>
       <use style="fill:#262626;stroke:#262626;" x="302.04" xlink:href="#m6d1ad05546" y="512.64"/>
      </g>
     </g>
     <g id="text_20">
      <!-- 400 -->
      <g style="fill:#262626;" transform="translate(293.698594 532.797812)scale(0.1 -0.1)">
       <use xlink:href="#ArialMT-34"/>
       <use x="55.615234" xlink:href="#ArialMT-30"/>
       <use x="111.230469" xlink:href="#ArialMT-30"/>
      </g>
     </g>
    </g>
    <g id="xtick_12">
     <g id="line2d_22">
      <g>
       <use style="fill:#262626;stroke:#262626;" x="413.64" xlink:href="#m6d1ad05546" y="512.64"/>
      </g>
     </g>
     <g id="text_21">
      <!-- 600 -->
      <g style="fill:#262626;" transform="translate(405.298594 532.797812)scale(0.1 -0.1)">
       <use xlink:href="#ArialMT-36"/>
       <use x="55.615234" xlink:href="#ArialMT-30"/>
       <use x="111.230469" xlink:href="#ArialMT-30"/>
      </g>
     </g>
    </g>
    <g id="xtick_13">
     <g id="line2d_23">
      <g>
       <use style="fill:#262626;stroke:#262626;" x="525.24" xlink:href="#m6d1ad05546" y="512.64"/>
      </g>
     </g>
     <g id="text_22">
      <!-- 800 -->
      <g style="fill:#262626;" transform="translate(516.898594 532.797812)scale(0.1 -0.1)">
       <use xlink:href="#ArialMT-38"/>
       <use x="55.615234" xlink:href="#ArialMT-30"/>
       <use x="111.230469" xlink:href="#ArialMT-30"/>
      </g>
     </g>
    </g>
    <g id="xtick_14">
     <g id="line2d_24">
      <g>
       <use style="fill:#262626;stroke:#262626;" x="636.84" xlink:href="#m6d1ad05546" y="512.64"/>
      </g>
     </g>
     <g id="text_23">
      <!-- 1000 -->
      <g style="fill:#262626;" transform="translate(625.718125 532.797812)scale(0.1 -0.1)">
       <use xlink:href="#ArialMT-31"/>
       <use x="55.615234" xlink:href="#ArialMT-30"/>
       <use x="111.230469" xlink:href="#ArialMT-30"/>
       <use x="166.845703" xlink:href="#ArialMT-30"/>
      </g>
     </g>
    </g>
   </g>
   <g id="matplotlib.axis_4">
    <g id="ytick_10">
     <g id="line2d_25">
      <g>
       <use style="fill:#262626;stroke:#262626;" x="90" xlink:href="#mc7a79f4389" y="512.64"/>
      </g>
     </g>
     <g id="text_24">
      <!-- 0 -->
      <g style="fill:#262626;" transform="translate(71.439063 516.218906)scale(0.1 -0.1)">
       <use xlink:href="#ArialMT-30"/>
      </g>
     </g>
    </g>
    <g id="ytick_11">
     <g id="line2d_26">
      <g>
       <use style="fill:#262626;stroke:#262626;" x="90" xlink:href="#mc7a79f4389" y="483.84"/>
      </g>
     </g>
     <g id="text_25">
      <!-- 10 -->
      <g style="fill:#262626;" transform="translate(65.878125 487.418906)scale(0.1 -0.1)">
       <use xlink:href="#ArialMT-31"/>
       <use x="55.615234" xlink:href="#ArialMT-30"/>
      </g>
     </g>
    </g>
    <g id="ytick_12">
     <g id="line2d_27">
      <g>
       <use style="fill:#262626;stroke:#262626;" x="90" xlink:href="#mc7a79f4389" y="455.04"/>
      </g>
     </g>
     <g id="text_26">
      <!-- 20 -->
      <g style="fill:#262626;" transform="translate(65.878125 458.618906)scale(0.1 -0.1)">
       <use xlink:href="#ArialMT-32"/>
       <use x="55.615234" xlink:href="#ArialMT-30"/>
      </g>
     </g>
    </g>
    <g id="ytick_13">
     <g id="line2d_28">
      <g>
       <use style="fill:#262626;stroke:#262626;" x="90" xlink:href="#mc7a79f4389" y="426.24"/>
      </g>
     </g>
     <g id="text_27">
      <!-- 30 -->
      <g style="fill:#262626;" transform="translate(65.878125 429.818906)scale(0.1 -0.1)">
       <use xlink:href="#ArialMT-33"/>
       <use x="55.615234" xlink:href="#ArialMT-30"/>
      </g>
     </g>
    </g>
    <g id="ytick_14">
     <g id="line2d_29">
      <g>
       <use style="fill:#262626;stroke:#262626;" x="90" xlink:href="#mc7a79f4389" y="397.44"/>
      </g>
     </g>
     <g id="text_28">
      <!-- 40 -->
      <g style="fill:#262626;" transform="translate(65.878125 401.018906)scale(0.1 -0.1)">
       <use xlink:href="#ArialMT-34"/>
       <use x="55.615234" xlink:href="#ArialMT-30"/>
      </g>
     </g>
    </g>
    <g id="ytick_15">
     <g id="line2d_30">
      <g>
       <use style="fill:#262626;stroke:#262626;" x="90" xlink:href="#mc7a79f4389" y="368.64"/>
      </g>
     </g>
     <g id="text_29">
      <!-- 50 -->
      <g style="fill:#262626;" transform="translate(65.878125 372.218906)scale(0.1 -0.1)">
       <use xlink:href="#ArialMT-35"/>
       <use x="55.615234" xlink:href="#ArialMT-30"/>
      </g>
     </g>
    </g>
    <g id="ytick_16">
     <g id="line2d_31">
      <g>
       <use style="fill:#262626;stroke:#262626;" x="90" xlink:href="#mc7a79f4389" y="339.84"/>
      </g>
     </g>
     <g id="text_30">
      <!-- 60 -->
      <g style="fill:#262626;" transform="translate(65.878125 343.418906)scale(0.1 -0.1)">
       <use xlink:href="#ArialMT-36"/>
       <use x="55.615234" xlink:href="#ArialMT-30"/>
      </g>
     </g>
    </g>
    <g id="ytick_17">
     <g id="line2d_32">
      <g>
       <use style="fill:#262626;stroke:#262626;" x="90" xlink:href="#mc7a79f4389" y="311.04"/>
      </g>
     </g>
     <g id="text_31">
      <!-- 70 -->
      <g style="fill:#262626;" transform="translate(65.878125 314.618906)scale(0.1 -0.1)">
       <use xlink:href="#ArialMT-37"/>
       <use x="55.615234" xlink:href="#ArialMT-30"/>
      </g>
     </g>
    </g>
   </g>
   <g id="line2d_33">
    <path clip-path="url(#p91a536254b)" d="M 90 495.208 
L 101.16 496.246355 
L 112.32 497.676438 
L 123.48 496.773624 
L 134.64 495.319457 
L 145.8 494.970857 
L 156.96 496.496469 
L 168.12 493.948302 
L 179.28 491.922563 
L 190.44 492.701338 
L 201.6 493.08264 
L 212.76 488.265624 
L 223.92 486.884007 
L 235.08 484.919609 
L 246.24 481.076037 
L 257.4 476.781513 
L 268.56 466.885099 
L 279.72 461.735001 
L 290.88 446.632864 
L 302.04 392.641353 
L 313.2 347.842084 
L 324.36 327.210442 
L 335.52 347.127932 
L 346.68 397.986588 
L 357.84 448.123679 
L 369 461.866051 
L 380.16 470.857725 
L 391.32 480.686219 
L 402.48 482.14059 
L 413.64 486.68837 
L 424.8 491.849661 
L 435.96 491.68536 
L 447.12 493.461916 
L 458.28 496.485392 
L 469.44 497.52324 
L 480.6 497.152641 
L 491.76 498.521226 
L 502.92 500.730979 
L 514.08 500.835305 
L 525.24 500.069125 
L 536.4 501.805146 
L 547.56 503.483326 
" style="fill:none;stroke:#b22222;stroke-linecap:round;stroke-width:1.75;"/>
   </g>
   <g id="patch_6">
    <path d="M 90 512.64 
L 90 311.04 
" style="fill:none;stroke:#262626;stroke-linecap:square;stroke-linejoin:miter;stroke-width:1.25;"/>
   </g>
   <g id="patch_7">
    <path d="M 90 512.64 
L 648 512.64 
" style="fill:none;stroke:#262626;stroke-linecap:square;stroke-linejoin:miter;stroke-width:1.25;"/>
   </g>
   <g id="text_32">
    <!-- f = 840 -->
    <defs>
     <path d="M 8.6875 0 
L 8.6875 45.015625 
L 0.921875 45.015625 
L 0.921875 51.859375 
L 8.6875 51.859375 
L 8.6875 57.375 
Q 8.6875 62.59375 9.625 65.140625 
Q 10.890625 68.5625 14.078125 70.671875 
Q 17.28125 72.796875 23.046875 72.796875 
Q 26.765625 72.796875 31.25 71.921875 
L 29.9375 64.265625 
Q 27.203125 64.75 24.75 64.75 
Q 20.75 64.75 19.09375 63.03125 
Q 17.4375 61.328125 17.4375 56.640625 
L 17.4375 51.859375 
L 27.546875 51.859375 
L 27.546875 45.015625 
L 17.4375 45.015625 
L 17.4375 0 
z
" id="ArialMT-66"/>
     <path id="ArialMT-20"/>
     <path d="M 52.828125 42.09375 
L 5.5625 42.09375 
L 5.5625 50.296875 
L 52.828125 50.296875 
z
M 52.828125 20.359375 
L 5.5625 20.359375 
L 5.5625 28.5625 
L 52.828125 28.5625 
z
" id="ArialMT-3d"/>
    </defs>
    <g style="fill:#262626;" transform="translate(525.24 371.742188)scale(0.12 -0.12)">
     <use xlink:href="#ArialMT-66"/>
     <use x="27.783203" xlink:href="#ArialMT-20"/>
     <use x="55.566406" xlink:href="#ArialMT-3d"/>
     <use x="113.964844" xlink:href="#ArialMT-20"/>
     <use x="141.748047" xlink:href="#ArialMT-38"/>
     <use x="197.363281" xlink:href="#ArialMT-34"/>
     <use x="252.978516" xlink:href="#ArialMT-30"/>
    </g>
   </g>
   <g id="PathCollection_1">
    <defs>
     <path d="M 0 3.5 
C 0.928211 3.5 1.81853 3.131218 2.474874 2.474874 
C 3.131218 1.81853 3.5 0.928211 3.5 0 
C 3.5 -0.928211 3.131218 -1.81853 2.474874 -2.474874 
C 1.81853 -3.131218 0.928211 -3.5 0 -3.5 
C -0.928211 -3.5 -1.81853 -3.131218 -2.474874 -2.474874 
C -3.131218 -1.81853 -3.5 -0.928211 -3.5 0 
C -3.5 0.928211 -3.131218 1.81853 -2.474874 2.474874 
C -1.81853 3.131218 -0.928211 3.5 0 3.5 
z
" id="m5b733597b6" style="stroke:#800000;stroke-width:0.3;"/>
    </defs>
    <g clip-path="url(#p91a536254b)">
     <use style="fill:#800000;stroke:#800000;stroke-width:0.3;" x="547.56" xlink:href="#m5b733597b6" y="503.483326"/>
    </g>
   </g>
  </g>
 </g>
 <defs>
  <clipPath id="p7c3060dbbc">
   <rect height="201.6" width="558" x="90" y="69.12"/>
  </clipPath>
  <clipPath id="p91a536254b">
   <rect height="201.6" width="558" x="90" y="311.04"/>
  </clipPath>
 </defs>
</svg>
