<?xml version="1.0" encoding="utf-8" standalone="no"?>
<!DOCTYPE svg PUBLIC "-//W3C//DTD SVG 1.1//EN"
  "http://www.w3.org/Graphics/SVG/1.1/DTD/svg11.dtd">
<!-- Created with matplotlib (http://matplotlib.org/) -->
<svg height="576pt" version="1.1" viewBox="0 0 720 576" width="720pt" xmlns="http://www.w3.org/2000/svg" xmlns:xlink="http://www.w3.org/1999/xlink">
 <defs>
  <style type="text/css">
*{stroke-linecap:butt;stroke-linejoin:round;}
  </style>
 </defs>
 <g id="figure_1">
  <g id="patch_1">
   <path d="M 0 576 
L 720 576 
L 720 0 
L 0 0 
z
" style="fill:#ffffff;"/>
  </g>
  <g id="axes_1">
   <g id="patch_2">
    <path d="M 90 270.72 
L 648 270.72 
L 648 69.12 
L 90 69.12 
z
" style="fill:#ffffff;"/>
   </g>
   <g id="matplotlib.axis_1">
    <g id="xtick_1">
     <g id="line2d_1">
      <defs>
       <path d="M 0 0 
L 0 6 
" id="m727865e388" style="stroke:#262626;"/>
      </defs>
      <g>
       <use style="fill:#262626;stroke:#262626;" x="90" xlink:href="#m727865e388" y="270.72"/>
      </g>
     </g>
     <g id="text_1">
      <!-- 0 -->
      <defs>
       <path d="M 4.15625 35.296875 
Q 4.15625 48 6.765625 55.734375 
Q 9.375 63.484375 14.515625 67.671875 
Q 19.671875 71.875 27.484375 71.875 
Q 33.25 71.875 37.59375 69.546875 
Q 41.9375 67.234375 44.765625 62.859375 
Q 47.609375 58.5 49.21875 52.21875 
Q 50.828125 45.953125 50.828125 35.296875 
Q 50.828125 22.703125 48.234375 14.96875 
Q 45.65625 7.234375 40.5 3 
Q 35.359375 -1.21875 27.484375 -1.21875 
Q 17.140625 -1.21875 11.234375 6.203125 
Q 4.15625 15.140625 4.15625 35.296875 
z
M 13.1875 35.296875 
Q 13.1875 17.671875 17.3125 11.828125 
Q 21.4375 6 27.484375 6 
Q 33.546875 6 37.671875 11.859375 
Q 41.796875 17.71875 41.796875 35.296875 
Q 41.796875 52.984375 37.671875 58.78125 
Q 33.546875 64.59375 27.390625 64.59375 
Q 21.34375 64.59375 17.71875 59.46875 
Q 13.1875 52.9375 13.1875 35.296875 
z
" id="ArialMT-30"/>
      </defs>
      <g style="fill:#262626;" transform="translate(87.219531 290.877812)scale(0.1 -0.1)">
       <use xlink:href="#ArialMT-30"/>
      </g>
     </g>
    </g>
    <g id="xtick_2">
     <g id="line2d_2">
      <g>
       <use style="fill:#262626;stroke:#262626;" x="159.75" xlink:href="#m727865e388" y="270.72"/>
      </g>
     </g>
     <g id="text_2">
      <!-- 100 -->
      <defs>
       <path d="M 37.25 0 
L 28.46875 0 
L 28.46875 56 
Q 25.296875 52.984375 20.140625 49.953125 
Q 14.984375 46.921875 10.890625 45.40625 
L 10.890625 53.90625 
Q 18.265625 57.375 23.78125 62.296875 
Q 29.296875 67.234375 31.59375 71.875 
L 37.25 71.875 
z
" id="ArialMT-31"/>
      </defs>
      <g style="fill:#262626;" transform="translate(151.408594 290.877812)scale(0.1 -0.1)">
       <use xlink:href="#ArialMT-31"/>
       <use x="55.615234" xlink:href="#ArialMT-30"/>
       <use x="111.230469" xlink:href="#ArialMT-30"/>
      </g>
     </g>
    </g>
    <g id="xtick_3">
     <g id="line2d_3">
      <g>
       <use style="fill:#262626;stroke:#262626;" x="229.5" xlink:href="#m727865e388" y="270.72"/>
      </g>
     </g>
     <g id="text_3">
      <!-- 200 -->
      <defs>
       <path d="M 50.34375 8.453125 
L 50.34375 0 
L 3.03125 0 
Q 2.9375 3.171875 4.046875 6.109375 
Q 5.859375 10.9375 9.828125 15.625 
Q 13.8125 20.3125 21.34375 26.46875 
Q 33.015625 36.03125 37.109375 41.625 
Q 41.21875 47.21875 41.21875 52.203125 
Q 41.21875 57.421875 37.46875 61 
Q 33.734375 64.59375 27.734375 64.59375 
Q 21.390625 64.59375 17.578125 60.78125 
Q 13.765625 56.984375 13.71875 50.25 
L 4.6875 51.171875 
Q 5.609375 61.28125 11.65625 66.578125 
Q 17.71875 71.875 27.9375 71.875 
Q 38.234375 71.875 44.234375 66.15625 
Q 50.25 60.453125 50.25 52 
Q 50.25 47.703125 48.484375 43.546875 
Q 46.734375 39.40625 42.65625 34.8125 
Q 38.578125 30.21875 29.109375 22.21875 
Q 21.1875 15.578125 18.9375 13.203125 
Q 16.703125 10.84375 15.234375 8.453125 
z
" id="ArialMT-32"/>
      </defs>
      <g style="fill:#262626;" transform="translate(221.158594 290.877812)scale(0.1 -0.1)">
       <use xlink:href="#ArialMT-32"/>
       <use x="55.615234" xlink:href="#ArialMT-30"/>
       <use x="111.230469" xlink:href="#ArialMT-30"/>
      </g>
     </g>
    </g>
    <g id="xtick_4">
     <g id="line2d_4">
      <g>
       <use style="fill:#262626;stroke:#262626;" x="299.25" xlink:href="#m727865e388" y="270.72"/>
      </g>
     </g>
     <g id="text_4">
      <!-- 300 -->
      <defs>
       <path d="M 4.203125 18.890625 
L 12.984375 20.0625 
Q 14.5 12.59375 18.140625 9.296875 
Q 21.78125 6 27 6 
Q 33.203125 6 37.46875 10.296875 
Q 41.75 14.59375 41.75 20.953125 
Q 41.75 27 37.796875 30.921875 
Q 33.84375 34.859375 27.734375 34.859375 
Q 25.25 34.859375 21.53125 33.890625 
L 22.515625 41.609375 
Q 23.390625 41.5 23.921875 41.5 
Q 29.546875 41.5 34.03125 44.421875 
Q 38.53125 47.359375 38.53125 53.46875 
Q 38.53125 58.296875 35.25 61.46875 
Q 31.984375 64.65625 26.8125 64.65625 
Q 21.6875 64.65625 18.265625 61.421875 
Q 14.84375 58.203125 13.875 51.765625 
L 5.078125 53.328125 
Q 6.6875 62.15625 12.390625 67.015625 
Q 18.109375 71.875 26.609375 71.875 
Q 32.46875 71.875 37.390625 69.359375 
Q 42.328125 66.84375 44.9375 62.5 
Q 47.5625 58.15625 47.5625 53.265625 
Q 47.5625 48.640625 45.0625 44.828125 
Q 42.578125 41.015625 37.703125 38.765625 
Q 44.046875 37.3125 47.5625 32.6875 
Q 51.078125 28.078125 51.078125 21.140625 
Q 51.078125 11.765625 44.234375 5.25 
Q 37.40625 -1.265625 26.953125 -1.265625 
Q 17.53125 -1.265625 11.296875 4.34375 
Q 5.078125 9.96875 4.203125 18.890625 
z
" id="ArialMT-33"/>
      </defs>
      <g style="fill:#262626;" transform="translate(290.908594 290.877812)scale(0.1 -0.1)">
       <use xlink:href="#ArialMT-33"/>
       <use x="55.615234" xlink:href="#ArialMT-30"/>
       <use x="111.230469" xlink:href="#ArialMT-30"/>
      </g>
     </g>
    </g>
    <g id="xtick_5">
     <g id="line2d_5">
      <g>
       <use style="fill:#262626;stroke:#262626;" x="369" xlink:href="#m727865e388" y="270.72"/>
      </g>
     </g>
     <g id="text_5">
      <!-- 400 -->
      <defs>
       <path d="M 32.328125 0 
L 32.328125 17.140625 
L 1.265625 17.140625 
L 1.265625 25.203125 
L 33.9375 71.578125 
L 41.109375 71.578125 
L 41.109375 25.203125 
L 50.78125 25.203125 
L 50.78125 17.140625 
L 41.109375 17.140625 
L 41.109375 0 
z
M 32.328125 25.203125 
L 32.328125 57.46875 
L 9.90625 25.203125 
z
" id="ArialMT-34"/>
      </defs>
      <g style="fill:#262626;" transform="translate(360.658594 290.877812)scale(0.1 -0.1)">
       <use xlink:href="#ArialMT-34"/>
       <use x="55.615234" xlink:href="#ArialMT-30"/>
       <use x="111.230469" xlink:href="#ArialMT-30"/>
      </g>
     </g>
    </g>
    <g id="xtick_6">
     <g id="line2d_6">
      <g>
       <use style="fill:#262626;stroke:#262626;" x="438.75" xlink:href="#m727865e388" y="270.72"/>
      </g>
     </g>
     <g id="text_6">
      <!-- 500 -->
      <defs>
       <path d="M 4.15625 18.75 
L 13.375 19.53125 
Q 14.40625 12.796875 18.140625 9.390625 
Q 21.875 6 27.15625 6 
Q 33.5 6 37.890625 10.78125 
Q 42.28125 15.578125 42.28125 23.484375 
Q 42.28125 31 38.0625 35.34375 
Q 33.84375 39.703125 27 39.703125 
Q 22.75 39.703125 19.328125 37.765625 
Q 15.921875 35.84375 13.96875 32.765625 
L 5.71875 33.84375 
L 12.640625 70.609375 
L 48.25 70.609375 
L 48.25 62.203125 
L 19.671875 62.203125 
L 15.828125 42.96875 
Q 22.265625 47.46875 29.34375 47.46875 
Q 38.71875 47.46875 45.15625 40.96875 
Q 51.609375 34.46875 51.609375 24.265625 
Q 51.609375 14.546875 45.953125 7.46875 
Q 39.0625 -1.21875 27.15625 -1.21875 
Q 17.390625 -1.21875 11.203125 4.25 
Q 5.03125 9.71875 4.15625 18.75 
z
" id="ArialMT-35"/>
      </defs>
      <g style="fill:#262626;" transform="translate(430.408594 290.877812)scale(0.1 -0.1)">
       <use xlink:href="#ArialMT-35"/>
       <use x="55.615234" xlink:href="#ArialMT-30"/>
       <use x="111.230469" xlink:href="#ArialMT-30"/>
      </g>
     </g>
    </g>
    <g id="xtick_7">
     <g id="line2d_7">
      <g>
       <use style="fill:#262626;stroke:#262626;" x="508.5" xlink:href="#m727865e388" y="270.72"/>
      </g>
     </g>
     <g id="text_7">
      <!-- 600 -->
      <defs>
       <path d="M 49.75 54.046875 
L 41.015625 53.375 
Q 39.84375 58.546875 37.703125 60.890625 
Q 34.125 64.65625 28.90625 64.65625 
Q 24.703125 64.65625 21.53125 62.3125 
Q 17.390625 59.28125 14.984375 53.46875 
Q 12.59375 47.65625 12.5 36.921875 
Q 15.671875 41.75 20.265625 44.09375 
Q 24.859375 46.4375 29.890625 46.4375 
Q 38.671875 46.4375 44.84375 39.96875 
Q 51.03125 33.5 51.03125 23.25 
Q 51.03125 16.5 48.125 10.71875 
Q 45.21875 4.9375 40.140625 1.859375 
Q 35.0625 -1.21875 28.609375 -1.21875 
Q 17.625 -1.21875 10.6875 6.859375 
Q 3.765625 14.9375 3.765625 33.5 
Q 3.765625 54.25 11.421875 63.671875 
Q 18.109375 71.875 29.4375 71.875 
Q 37.890625 71.875 43.28125 67.140625 
Q 48.6875 62.40625 49.75 54.046875 
z
M 13.875 23.1875 
Q 13.875 18.65625 15.796875 14.5 
Q 17.71875 10.359375 21.1875 8.171875 
Q 24.65625 6 28.46875 6 
Q 34.03125 6 38.03125 10.484375 
Q 42.046875 14.984375 42.046875 22.703125 
Q 42.046875 30.125 38.078125 34.390625 
Q 34.125 38.671875 28.125 38.671875 
Q 22.171875 38.671875 18.015625 34.390625 
Q 13.875 30.125 13.875 23.1875 
z
" id="ArialMT-36"/>
      </defs>
      <g style="fill:#262626;" transform="translate(500.158594 290.877812)scale(0.1 -0.1)">
       <use xlink:href="#ArialMT-36"/>
       <use x="55.615234" xlink:href="#ArialMT-30"/>
       <use x="111.230469" xlink:href="#ArialMT-30"/>
      </g>
     </g>
    </g>
    <g id="xtick_8">
     <g id="line2d_8">
      <g>
       <use style="fill:#262626;stroke:#262626;" x="578.25" xlink:href="#m727865e388" y="270.72"/>
      </g>
     </g>
     <g id="text_8">
      <!-- 700 -->
      <defs>
       <path d="M 4.734375 62.203125 
L 4.734375 70.65625 
L 51.078125 70.65625 
L 51.078125 63.8125 
Q 44.234375 56.546875 37.515625 44.484375 
Q 30.8125 32.421875 27.15625 19.671875 
Q 24.515625 10.6875 23.78125 0 
L 14.75 0 
Q 14.890625 8.453125 18.0625 20.40625 
Q 21.234375 32.375 27.171875 43.484375 
Q 33.109375 54.59375 39.796875 62.203125 
z
" id="ArialMT-37"/>
      </defs>
      <g style="fill:#262626;" transform="translate(569.908594 290.877812)scale(0.1 -0.1)">
       <use xlink:href="#ArialMT-37"/>
       <use x="55.615234" xlink:href="#ArialMT-30"/>
       <use x="111.230469" xlink:href="#ArialMT-30"/>
      </g>
     </g>
    </g>
    <g id="xtick_9">
     <g id="line2d_9">
      <g>
       <use style="fill:#262626;stroke:#262626;" x="648" xlink:href="#m727865e388" y="270.72"/>
      </g>
     </g>
     <g id="text_9">
      <!-- 800 -->
      <defs>
       <path d="M 17.671875 38.8125 
Q 12.203125 40.828125 9.5625 44.53125 
Q 6.9375 48.25 6.9375 53.421875 
Q 6.9375 61.234375 12.546875 66.546875 
Q 18.171875 71.875 27.484375 71.875 
Q 36.859375 71.875 42.578125 66.421875 
Q 48.296875 60.984375 48.296875 53.171875 
Q 48.296875 48.1875 45.671875 44.5 
Q 43.0625 40.828125 37.75 38.8125 
Q 44.34375 36.671875 47.78125 31.875 
Q 51.21875 27.09375 51.21875 20.453125 
Q 51.21875 11.28125 44.71875 5.03125 
Q 38.234375 -1.21875 27.640625 -1.21875 
Q 17.046875 -1.21875 10.546875 5.046875 
Q 4.046875 11.328125 4.046875 20.703125 
Q 4.046875 27.6875 7.59375 32.390625 
Q 11.140625 37.109375 17.671875 38.8125 
z
M 15.921875 53.71875 
Q 15.921875 48.640625 19.1875 45.40625 
Q 22.46875 42.1875 27.6875 42.1875 
Q 32.765625 42.1875 36.015625 45.375 
Q 39.265625 48.578125 39.265625 53.21875 
Q 39.265625 58.0625 35.90625 61.359375 
Q 32.5625 64.65625 27.59375 64.65625 
Q 22.5625 64.65625 19.234375 61.421875 
Q 15.921875 58.203125 15.921875 53.71875 
z
M 13.09375 20.65625 
Q 13.09375 16.890625 14.875 13.375 
Q 16.65625 9.859375 20.171875 7.921875 
Q 23.6875 6 27.734375 6 
Q 34.03125 6 38.125 10.046875 
Q 42.234375 14.109375 42.234375 20.359375 
Q 42.234375 26.703125 38.015625 30.859375 
Q 33.796875 35.015625 27.4375 35.015625 
Q 21.234375 35.015625 17.15625 30.90625 
Q 13.09375 26.8125 13.09375 20.65625 
z
" id="ArialMT-38"/>
      </defs>
      <g style="fill:#262626;" transform="translate(639.658594 290.877812)scale(0.1 -0.1)">
       <use xlink:href="#ArialMT-38"/>
       <use x="55.615234" xlink:href="#ArialMT-30"/>
       <use x="111.230469" xlink:href="#ArialMT-30"/>
      </g>
     </g>
    </g>
   </g>
   <g id="matplotlib.axis_2">
    <g id="ytick_1">
     <g id="line2d_10">
      <defs>
       <path d="M 0 0 
L -6 0 
" id="m05385d29db" style="stroke:#262626;"/>
      </defs>
      <g>
       <use style="fill:#262626;stroke:#262626;" x="90" xlink:href="#m05385d29db" y="270.72"/>
      </g>
     </g>
     <g id="text_10">
      <!-- −0.20 -->
      <defs>
       <path d="M 52.828125 31.203125 
L 5.5625 31.203125 
L 5.5625 39.40625 
L 52.828125 39.40625 
z
" id="ArialMT-2212"/>
       <path d="M 9.078125 0 
L 9.078125 10.015625 
L 19.09375 10.015625 
L 19.09375 0 
z
" id="ArialMT-2e"/>
      </defs>
      <g style="fill:#262626;" transform="translate(51.698437 274.298906)scale(0.1 -0.1)">
       <use xlink:href="#ArialMT-2212"/>
       <use x="58.398438" xlink:href="#ArialMT-30"/>
       <use x="114.013672" xlink:href="#ArialMT-2e"/>
       <use x="141.796875" xlink:href="#ArialMT-32"/>
       <use x="197.412109" xlink:href="#ArialMT-30"/>
      </g>
     </g>
    </g>
    <g id="ytick_2">
     <g id="line2d_11">
      <g>
       <use style="fill:#262626;stroke:#262626;" x="90" xlink:href="#m05385d29db" y="245.52"/>
      </g>
     </g>
     <g id="text_11">
      <!-- −0.15 -->
      <g style="fill:#262626;" transform="translate(51.698437 249.098906)scale(0.1 -0.1)">
       <use xlink:href="#ArialMT-2212"/>
       <use x="58.398438" xlink:href="#ArialMT-30"/>
       <use x="114.013672" xlink:href="#ArialMT-2e"/>
       <use x="141.796875" xlink:href="#ArialMT-31"/>
       <use x="197.412109" xlink:href="#ArialMT-35"/>
      </g>
     </g>
    </g>
    <g id="ytick_3">
     <g id="line2d_12">
      <g>
       <use style="fill:#262626;stroke:#262626;" x="90" xlink:href="#m05385d29db" y="220.32"/>
      </g>
     </g>
     <g id="text_12">
      <!-- −0.10 -->
      <g style="fill:#262626;" transform="translate(51.698437 223.898906)scale(0.1 -0.1)">
       <use xlink:href="#ArialMT-2212"/>
       <use x="58.398438" xlink:href="#ArialMT-30"/>
       <use x="114.013672" xlink:href="#ArialMT-2e"/>
       <use x="141.796875" xlink:href="#ArialMT-31"/>
       <use x="197.412109" xlink:href="#ArialMT-30"/>
      </g>
     </g>
    </g>
    <g id="ytick_4">
     <g id="line2d_13">
      <g>
       <use style="fill:#262626;stroke:#262626;" x="90" xlink:href="#m05385d29db" y="195.12"/>
      </g>
     </g>
     <g id="text_13">
      <!-- −0.05 -->
      <g style="fill:#262626;" transform="translate(51.698437 198.698906)scale(0.1 -0.1)">
       <use xlink:href="#ArialMT-2212"/>
       <use x="58.398438" xlink:href="#ArialMT-30"/>
       <use x="114.013672" xlink:href="#ArialMT-2e"/>
       <use x="141.796875" xlink:href="#ArialMT-30"/>
       <use x="197.412109" xlink:href="#ArialMT-35"/>
      </g>
     </g>
    </g>
    <g id="ytick_5">
     <g id="line2d_14">
      <g>
       <use style="fill:#262626;stroke:#262626;" x="90" xlink:href="#m05385d29db" y="169.92"/>
      </g>
     </g>
     <g id="text_14">
      <!-- 0.00 -->
      <g style="fill:#262626;" transform="translate(57.539062 173.498906)scale(0.1 -0.1)">
       <use xlink:href="#ArialMT-30"/>
       <use x="55.615234" xlink:href="#ArialMT-2e"/>
       <use x="83.398438" xlink:href="#ArialMT-30"/>
       <use x="139.013672" xlink:href="#ArialMT-30"/>
      </g>
     </g>
    </g>
    <g id="ytick_6">
     <g id="line2d_15">
      <g>
       <use style="fill:#262626;stroke:#262626;" x="90" xlink:href="#m05385d29db" y="144.72"/>
      </g>
     </g>
     <g id="text_15">
      <!-- 0.05 -->
      <g style="fill:#262626;" transform="translate(57.539062 148.298906)scale(0.1 -0.1)">
       <use xlink:href="#ArialMT-30"/>
       <use x="55.615234" xlink:href="#ArialMT-2e"/>
       <use x="83.398438" xlink:href="#ArialMT-30"/>
       <use x="139.013672" xlink:href="#ArialMT-35"/>
      </g>
     </g>
    </g>
    <g id="ytick_7">
     <g id="line2d_16">
      <g>
       <use style="fill:#262626;stroke:#262626;" x="90" xlink:href="#m05385d29db" y="119.52"/>
      </g>
     </g>
     <g id="text_16">
      <!-- 0.10 -->
      <g style="fill:#262626;" transform="translate(57.539062 123.098906)scale(0.1 -0.1)">
       <use xlink:href="#ArialMT-30"/>
       <use x="55.615234" xlink:href="#ArialMT-2e"/>
       <use x="83.398438" xlink:href="#ArialMT-31"/>
       <use x="139.013672" xlink:href="#ArialMT-30"/>
      </g>
     </g>
    </g>
    <g id="ytick_8">
     <g id="line2d_17">
      <g>
       <use style="fill:#262626;stroke:#262626;" x="90" xlink:href="#m05385d29db" y="94.32"/>
      </g>
     </g>
     <g id="text_17">
      <!-- 0.15 -->
      <g style="fill:#262626;" transform="translate(57.539062 97.898906)scale(0.1 -0.1)">
       <use xlink:href="#ArialMT-30"/>
       <use x="55.615234" xlink:href="#ArialMT-2e"/>
       <use x="83.398438" xlink:href="#ArialMT-31"/>
       <use x="139.013672" xlink:href="#ArialMT-35"/>
      </g>
     </g>
    </g>
    <g id="ytick_9">
     <g id="line2d_18">
      <g>
       <use style="fill:#262626;stroke:#262626;" x="90" xlink:href="#m05385d29db" y="69.12"/>
      </g>
     </g>
     <g id="text_18">
      <!-- 0.20 -->
      <g style="fill:#262626;" transform="translate(57.539062 72.698906)scale(0.1 -0.1)">
       <use xlink:href="#ArialMT-30"/>
       <use x="55.615234" xlink:href="#ArialMT-2e"/>
       <use x="83.398438" xlink:href="#ArialMT-32"/>
       <use x="139.013672" xlink:href="#ArialMT-30"/>
      </g>
     </g>
    </g>
   </g>
   <g id="PolyCollection_1">
    <path clip-path="url(#pac1d2fec68)" d="M 90 171.632721 
L 90 169.92 
L 90.6975 169.92 
L 91.395 169.92 
L 92.0925 169.92 
L 92.79 169.92 
L 93.4875 169.92 
L 94.185 169.92 
L 94.8825 169.92 
L 95.58 169.92 
L 96.2775 169.92 
L 96.975 169.92 
L 97.6725 169.92 
L 98.37 169.92 
L 99.0675 169.92 
L 99.765 169.92 
L 100.4625 169.92 
L 101.16 169.92 
L 101.8575 169.92 
L 102.555 169.92 
L 103.2525 169.92 
L 103.95 169.92 
L 104.6475 169.92 
L 105.345 169.92 
L 106.0425 169.92 
L 106.74 169.92 
L 107.4375 169.92 
L 108.135 169.92 
L 108.8325 169.92 
L 109.53 169.92 
L 110.2275 169.92 
L 110.925 169.92 
L 111.6225 169.92 
L 112.32 169.92 
L 113.0175 169.92 
L 113.715 169.92 
L 114.4125 169.92 
L 115.11 169.92 
L 115.8075 169.92 
L 116.505 169.92 
L 117.2025 169.92 
L 117.9 169.92 
L 118.5975 169.92 
L 119.295 169.92 
L 119.9925 169.92 
L 120.69 169.92 
L 121.3875 169.92 
L 122.085 169.92 
L 122.7825 169.92 
L 123.48 169.92 
L 124.1775 169.92 
L 124.875 169.92 
L 125.5725 169.92 
L 126.27 169.92 
L 126.9675 169.92 
L 127.665 169.92 
L 128.3625 169.92 
L 129.06 169.92 
L 129.7575 169.92 
L 130.455 169.92 
L 131.1525 169.92 
L 131.85 169.92 
L 132.5475 169.92 
L 133.245 169.92 
L 133.9425 169.92 
L 134.64 169.92 
L 135.3375 169.92 
L 136.035 169.92 
L 136.7325 169.92 
L 137.43 169.92 
L 138.1275 169.92 
L 138.825 169.92 
L 139.5225 169.92 
L 140.22 169.92 
L 140.9175 169.92 
L 141.615 169.92 
L 142.3125 169.92 
L 143.01 169.92 
L 143.7075 169.92 
L 144.405 169.92 
L 145.1025 169.92 
L 145.8 169.92 
L 146.4975 169.92 
L 147.195 169.92 
L 147.8925 169.92 
L 148.59 169.92 
L 149.2875 169.92 
L 149.985 169.92 
L 150.6825 169.92 
L 151.38 169.92 
L 152.0775 169.92 
L 152.775 169.92 
L 153.4725 169.92 
L 154.17 169.92 
L 154.8675 169.92 
L 155.565 169.92 
L 156.2625 169.92 
L 156.96 169.92 
L 157.6575 169.92 
L 158.355 169.92 
L 159.0525 169.92 
L 159.75 169.92 
L 160.4475 169.92 
L 161.145 169.92 
L 161.8425 169.92 
L 162.54 169.92 
L 163.2375 169.92 
L 163.935 169.92 
L 164.6325 169.92 
L 165.33 169.92 
L 166.0275 169.92 
L 166.725 169.92 
L 167.4225 169.92 
L 168.12 169.92 
L 168.8175 169.92 
L 169.515 169.92 
L 170.2125 169.92 
L 170.91 169.92 
L 171.6075 169.92 
L 172.305 169.92 
L 173.0025 169.92 
L 173.7 169.92 
L 174.3975 169.92 
L 175.095 169.92 
L 175.7925 169.92 
L 176.49 169.92 
L 177.1875 169.92 
L 177.885 169.92 
L 178.5825 169.92 
L 179.28 169.92 
L 179.9775 169.92 
L 180.675 169.92 
L 181.3725 169.92 
L 182.07 169.92 
L 182.7675 169.92 
L 183.465 169.92 
L 184.1625 169.92 
L 184.86 169.92 
L 185.5575 169.92 
L 186.255 169.92 
L 186.9525 169.92 
L 187.65 169.92 
L 188.3475 169.92 
L 189.045 169.92 
L 189.7425 169.92 
L 190.44 169.92 
L 191.1375 169.92 
L 191.835 169.92 
L 192.5325 169.92 
L 193.23 169.92 
L 193.9275 169.92 
L 194.625 169.92 
L 195.3225 169.92 
L 196.02 169.92 
L 196.7175 169.92 
L 197.415 169.92 
L 198.1125 169.92 
L 198.81 169.92 
L 199.5075 169.92 
L 200.205 169.92 
L 200.9025 169.92 
L 201.6 169.92 
L 202.2975 169.92 
L 202.995 169.92 
L 203.6925 169.92 
L 204.39 169.92 
L 205.0875 169.92 
L 205.785 169.92 
L 206.4825 169.92 
L 207.18 169.92 
L 207.8775 169.92 
L 208.575 169.92 
L 209.2725 169.92 
L 209.97 169.92 
L 210.6675 169.92 
L 211.365 169.92 
L 212.0625 169.92 
L 212.76 169.92 
L 213.4575 169.92 
L 214.155 169.92 
L 214.8525 169.92 
L 215.55 169.92 
L 216.2475 169.92 
L 216.945 169.92 
L 217.6425 169.92 
L 218.34 169.92 
L 219.0375 169.92 
L 219.735 169.92 
L 220.4325 169.92 
L 221.13 169.92 
L 221.8275 169.92 
L 222.525 169.92 
L 223.2225 169.92 
L 223.92 169.92 
L 224.6175 169.92 
L 225.315 169.92 
L 226.0125 169.92 
L 226.71 169.92 
L 227.4075 169.92 
L 228.105 169.92 
L 228.8025 169.92 
L 229.5 169.92 
L 230.1975 169.92 
L 230.895 169.92 
L 231.5925 169.92 
L 232.29 169.92 
L 232.9875 169.92 
L 233.685 169.92 
L 234.3825 169.92 
L 235.08 169.92 
L 235.7775 169.92 
L 236.475 169.92 
L 237.1725 169.92 
L 237.87 169.92 
L 238.5675 169.92 
L 239.265 169.92 
L 239.9625 169.92 
L 240.66 169.92 
L 241.3575 169.92 
L 242.055 169.92 
L 242.7525 169.92 
L 243.45 169.92 
L 244.1475 169.92 
L 244.845 169.92 
L 245.5425 169.92 
L 246.24 169.92 
L 246.9375 169.92 
L 247.635 169.92 
L 248.3325 169.92 
L 249.03 169.92 
L 249.7275 169.92 
L 250.425 169.92 
L 251.1225 169.92 
L 251.82 169.92 
L 252.5175 169.92 
L 253.215 169.92 
L 253.9125 169.92 
L 254.61 169.92 
L 255.3075 169.92 
L 256.005 169.92 
L 256.7025 169.92 
L 257.4 169.92 
L 258.0975 169.92 
L 258.795 169.92 
L 259.4925 169.92 
L 260.19 169.92 
L 260.8875 169.92 
L 261.585 169.92 
L 262.2825 169.92 
L 262.98 169.92 
L 263.6775 169.92 
L 264.375 169.92 
L 265.0725 169.92 
L 265.77 169.92 
L 266.4675 169.92 
L 267.165 169.92 
L 267.8625 169.92 
L 268.56 169.92 
L 269.2575 169.92 
L 269.955 169.92 
L 270.6525 169.92 
L 271.35 169.92 
L 272.0475 169.92 
L 272.745 169.92 
L 273.4425 169.92 
L 274.14 169.92 
L 274.8375 169.92 
L 275.535 169.92 
L 276.2325 169.92 
L 276.93 169.92 
L 277.6275 169.92 
L 278.325 169.92 
L 279.0225 169.92 
L 279.72 169.92 
L 280.4175 169.92 
L 281.115 169.92 
L 281.8125 169.92 
L 282.51 169.92 
L 283.2075 169.92 
L 283.905 169.92 
L 284.6025 169.92 
L 285.3 169.92 
L 285.9975 169.92 
L 286.695 169.92 
L 287.3925 169.92 
L 288.09 169.92 
L 288.7875 169.92 
L 289.485 169.92 
L 290.1825 169.92 
L 290.88 169.92 
L 291.5775 169.92 
L 292.275 169.92 
L 292.9725 169.92 
L 293.67 169.92 
L 294.3675 169.92 
L 295.065 169.92 
L 295.7625 169.92 
L 296.46 169.92 
L 297.1575 169.92 
L 297.855 169.92 
L 298.5525 169.92 
L 299.25 169.92 
L 299.9475 169.92 
L 300.645 169.92 
L 301.3425 169.92 
L 302.04 169.92 
L 302.7375 169.92 
L 303.435 169.92 
L 304.1325 169.92 
L 304.83 169.92 
L 305.5275 169.92 
L 306.225 169.92 
L 306.9225 169.92 
L 307.62 169.92 
L 308.3175 169.92 
L 309.015 169.92 
L 309.7125 169.92 
L 310.41 169.92 
L 311.1075 169.92 
L 311.805 169.92 
L 312.5025 169.92 
L 313.2 169.92 
L 313.8975 169.92 
L 314.595 169.92 
L 315.2925 169.92 
L 315.99 169.92 
L 316.6875 169.92 
L 317.385 169.92 
L 318.0825 169.92 
L 318.78 169.92 
L 319.4775 169.92 
L 320.175 169.92 
L 320.8725 169.92 
L 321.57 169.92 
L 322.2675 169.92 
L 322.965 169.92 
L 323.6625 169.92 
L 324.36 169.92 
L 325.0575 169.92 
L 325.755 169.92 
L 326.4525 169.92 
L 327.15 169.92 
L 327.8475 169.92 
L 328.545 169.92 
L 329.2425 169.92 
L 329.94 169.92 
L 330.6375 169.92 
L 331.335 169.92 
L 332.0325 169.92 
L 332.73 169.92 
L 333.4275 169.92 
L 334.125 169.92 
L 334.8225 169.92 
L 335.52 169.92 
L 336.2175 169.92 
L 336.915 169.92 
L 337.6125 169.92 
L 338.31 169.92 
L 339.0075 169.92 
L 339.705 169.92 
L 340.4025 169.92 
L 341.1 169.92 
L 341.7975 169.92 
L 342.495 169.92 
L 343.1925 169.92 
L 343.89 169.92 
L 344.5875 169.92 
L 345.285 169.92 
L 345.9825 169.92 
L 346.68 169.92 
L 347.3775 169.92 
L 348.075 169.92 
L 348.7725 169.92 
L 349.47 169.92 
L 350.1675 169.92 
L 350.865 169.92 
L 351.5625 169.92 
L 352.26 169.92 
L 352.9575 169.92 
L 353.655 169.92 
L 354.3525 169.92 
L 355.05 169.92 
L 355.7475 169.92 
L 356.445 169.92 
L 357.1425 169.92 
L 357.84 169.92 
L 358.5375 169.92 
L 359.235 169.92 
L 359.9325 169.92 
L 360.63 169.92 
L 361.3275 169.92 
L 362.025 169.92 
L 362.7225 169.92 
L 363.42 169.92 
L 364.1175 169.92 
L 364.815 169.92 
L 365.5125 169.92 
L 366.21 169.92 
L 366.9075 169.92 
L 367.605 169.92 
L 368.3025 169.92 
L 369 169.92 
L 369.6975 169.92 
L 370.395 169.92 
L 371.0925 169.92 
L 371.79 169.92 
L 372.4875 169.92 
L 373.185 169.92 
L 373.8825 169.92 
L 374.58 169.92 
L 375.2775 169.92 
L 375.975 169.92 
L 376.6725 169.92 
L 377.37 169.92 
L 378.0675 169.92 
L 378.765 169.92 
L 379.4625 169.92 
L 380.16 169.92 
L 380.8575 169.92 
L 381.555 169.92 
L 382.2525 169.92 
L 382.95 169.92 
L 383.6475 169.92 
L 384.345 169.92 
L 385.0425 169.92 
L 385.74 169.92 
L 386.4375 169.92 
L 387.135 169.92 
L 387.8325 169.92 
L 388.53 169.92 
L 389.2275 169.92 
L 389.925 169.92 
L 390.6225 169.92 
L 391.32 169.92 
L 392.0175 169.92 
L 392.715 169.92 
L 393.4125 169.92 
L 394.11 169.92 
L 394.8075 169.92 
L 395.505 169.92 
L 396.2025 169.92 
L 396.9 169.92 
L 397.5975 169.92 
L 398.295 169.92 
L 398.9925 169.92 
L 399.69 169.92 
L 400.3875 169.92 
L 401.085 169.92 
L 401.7825 169.92 
L 402.48 169.92 
L 403.1775 169.92 
L 403.875 169.92 
L 404.5725 169.92 
L 405.27 169.92 
L 405.9675 169.92 
L 406.665 169.92 
L 407.3625 169.92 
L 408.06 169.92 
L 408.7575 169.92 
L 409.455 169.92 
L 410.1525 169.92 
L 410.85 169.92 
L 411.5475 169.92 
L 412.245 169.92 
L 412.9425 169.92 
L 413.64 169.92 
L 414.3375 169.92 
L 415.035 169.92 
L 415.7325 169.92 
L 416.43 169.92 
L 417.1275 169.92 
L 417.825 169.92 
L 418.5225 169.92 
L 419.22 169.92 
L 419.9175 169.92 
L 420.615 169.92 
L 421.3125 169.92 
L 422.01 169.92 
L 422.7075 169.92 
L 423.405 169.92 
L 424.1025 169.92 
L 424.8 169.92 
L 425.4975 169.92 
L 426.195 169.92 
L 426.8925 169.92 
L 427.59 169.92 
L 428.2875 169.92 
L 428.985 169.92 
L 429.6825 169.92 
L 430.38 169.92 
L 431.0775 169.92 
L 431.775 169.92 
L 432.4725 169.92 
L 433.17 169.92 
L 433.8675 169.92 
L 434.565 169.92 
L 435.2625 169.92 
L 435.96 169.92 
L 436.6575 169.92 
L 437.355 169.92 
L 438.0525 169.92 
L 438.75 169.92 
L 439.4475 169.92 
L 440.145 169.92 
L 440.8425 169.92 
L 441.54 169.92 
L 442.2375 169.92 
L 442.935 169.92 
L 443.6325 169.92 
L 444.33 169.92 
L 445.0275 169.92 
L 445.725 169.92 
L 446.4225 169.92 
L 447.12 169.92 
L 447.8175 169.92 
L 448.515 169.92 
L 449.2125 169.92 
L 449.91 169.92 
L 450.6075 169.92 
L 451.305 169.92 
L 452.0025 169.92 
L 452.7 169.92 
L 453.3975 169.92 
L 454.095 169.92 
L 454.7925 169.92 
L 455.49 169.92 
L 456.1875 169.92 
L 456.885 169.92 
L 457.5825 169.92 
L 458.28 169.92 
L 458.9775 169.92 
L 459.675 169.92 
L 460.3725 169.92 
L 461.07 169.92 
L 461.7675 169.92 
L 462.465 169.92 
L 463.1625 169.92 
L 463.86 169.92 
L 464.5575 169.92 
L 465.255 169.92 
L 465.9525 169.92 
L 466.65 169.92 
L 467.3475 169.92 
L 468.045 169.92 
L 468.7425 169.92 
L 469.44 169.92 
L 470.1375 169.92 
L 470.835 169.92 
L 471.5325 169.92 
L 472.23 169.92 
L 472.9275 169.92 
L 473.625 169.92 
L 474.3225 169.92 
L 475.02 169.92 
L 475.7175 169.92 
L 476.415 169.92 
L 477.1125 169.92 
L 477.81 169.92 
L 478.5075 169.92 
L 479.205 169.92 
L 479.9025 169.92 
L 480.6 169.92 
L 481.2975 169.92 
L 481.995 169.92 
L 482.6925 169.92 
L 483.39 169.92 
L 484.0875 169.92 
L 484.785 169.92 
L 485.4825 169.92 
L 486.18 169.92 
L 486.8775 169.92 
L 487.575 169.92 
L 488.2725 169.92 
L 488.97 169.92 
L 489.6675 169.92 
L 490.365 169.92 
L 491.0625 169.92 
L 491.76 169.92 
L 492.4575 169.92 
L 493.155 169.92 
L 493.8525 169.92 
L 494.55 169.92 
L 495.2475 169.92 
L 495.945 169.92 
L 496.6425 169.92 
L 497.34 169.92 
L 498.0375 169.92 
L 498.735 169.92 
L 499.4325 169.92 
L 500.13 169.92 
L 500.8275 169.92 
L 501.525 169.92 
L 502.2225 169.92 
L 502.92 169.92 
L 503.6175 169.92 
L 504.315 169.92 
L 505.0125 169.92 
L 505.71 169.92 
L 506.4075 169.92 
L 507.105 169.92 
L 507.8025 169.92 
L 508.5 169.92 
L 509.1975 169.92 
L 509.895 169.92 
L 510.5925 169.92 
L 511.29 169.92 
L 511.9875 169.92 
L 512.685 169.92 
L 513.3825 169.92 
L 514.08 169.92 
L 514.7775 169.92 
L 515.475 169.92 
L 516.1725 169.92 
L 516.87 169.92 
L 517.5675 169.92 
L 518.265 169.92 
L 518.9625 169.92 
L 519.66 169.92 
L 520.3575 169.92 
L 521.055 169.92 
L 521.7525 169.92 
L 522.45 169.92 
L 523.1475 169.92 
L 523.845 169.92 
L 524.5425 169.92 
L 525.24 169.92 
L 525.9375 169.92 
L 526.635 169.92 
L 527.3325 169.92 
L 528.03 169.92 
L 528.7275 169.92 
L 529.425 169.92 
L 530.1225 169.92 
L 530.82 169.92 
L 531.5175 169.92 
L 532.215 169.92 
L 532.9125 169.92 
L 533.61 169.92 
L 534.3075 169.92 
L 535.005 169.92 
L 535.7025 169.92 
L 536.4 169.92 
L 537.0975 169.92 
L 537.795 169.92 
L 538.4925 169.92 
L 539.19 169.92 
L 539.8875 169.92 
L 540.585 169.92 
L 541.2825 169.92 
L 541.98 169.92 
L 542.6775 169.92 
L 543.375 169.92 
L 544.0725 169.92 
L 544.77 169.92 
L 545.4675 169.92 
L 546.165 169.92 
L 546.8625 169.92 
L 547.56 169.92 
L 548.2575 169.92 
L 548.955 169.92 
L 549.6525 169.92 
L 550.35 169.92 
L 551.0475 169.92 
L 551.745 169.92 
L 552.4425 169.92 
L 553.14 169.92 
L 553.8375 169.92 
L 554.535 169.92 
L 555.2325 169.92 
L 555.93 169.92 
L 556.6275 169.92 
L 557.325 169.92 
L 558.0225 169.92 
L 558.72 169.92 
L 559.4175 169.92 
L 560.115 169.92 
L 560.8125 169.92 
L 561.51 169.92 
L 562.2075 169.92 
L 562.905 169.92 
L 563.6025 169.92 
L 564.3 169.92 
L 564.9975 169.92 
L 565.695 169.92 
L 566.3925 169.92 
L 567.09 169.92 
L 567.7875 169.92 
L 568.485 169.92 
L 569.1825 169.92 
L 569.88 169.92 
L 570.5775 169.92 
L 571.275 169.92 
L 571.9725 169.92 
L 572.67 169.92 
L 573.3675 169.92 
L 574.065 169.92 
L 574.7625 169.92 
L 575.46 169.92 
L 576.1575 169.92 
L 576.855 169.92 
L 577.5525 169.92 
L 578.25 169.92 
L 578.9475 169.92 
L 579.645 169.92 
L 580.3425 169.92 
L 581.04 169.92 
L 581.7375 169.92 
L 582.435 169.92 
L 583.1325 169.92 
L 583.83 169.92 
L 584.5275 169.92 
L 585.225 169.92 
L 585.9225 169.92 
L 586.62 169.92 
L 587.3175 169.92 
L 588.015 169.92 
L 588.7125 169.92 
L 589.41 169.92 
L 590.1075 169.92 
L 590.805 169.92 
L 591.5025 169.92 
L 592.2 169.92 
L 592.8975 169.92 
L 593.595 169.92 
L 594.2925 169.92 
L 594.99 169.92 
L 595.6875 169.92 
L 596.385 169.92 
L 597.0825 169.92 
L 597.78 169.92 
L 598.4775 169.92 
L 599.175 169.92 
L 599.8725 169.92 
L 600.57 169.92 
L 601.2675 169.92 
L 601.965 169.92 
L 602.6625 169.92 
L 603.36 169.92 
L 604.0575 169.92 
L 604.755 169.92 
L 605.4525 169.92 
L 606.15 169.92 
L 606.8475 169.92 
L 607.545 169.92 
L 608.2425 169.92 
L 608.94 169.92 
L 609.6375 169.92 
L 610.335 169.92 
L 611.0325 169.92 
L 611.73 169.92 
L 612.4275 169.92 
L 613.125 169.92 
L 613.8225 169.92 
L 614.52 169.92 
L 615.2175 169.92 
L 615.915 169.92 
L 616.6125 169.92 
L 617.31 169.92 
L 618.0075 169.92 
L 618.705 169.92 
L 619.4025 169.92 
L 620.1 169.92 
L 620.7975 169.92 
L 621.495 169.92 
L 622.1925 169.92 
L 622.89 169.92 
L 623.5875 169.92 
L 624.285 169.92 
L 624.9825 169.92 
L 625.68 169.92 
L 626.3775 169.92 
L 627.075 169.92 
L 627.7725 169.92 
L 628.47 169.92 
L 629.1675 169.92 
L 629.865 169.92 
L 630.5625 169.92 
L 631.26 169.92 
L 631.9575 169.92 
L 632.655 169.92 
L 633.3525 169.92 
L 634.05 169.92 
L 634.7475 169.92 
L 635.445 169.92 
L 636.1425 169.92 
L 636.84 169.92 
L 637.5375 169.92 
L 638.235 169.92 
L 638.9325 169.92 
L 639.63 169.92 
L 640.3275 169.92 
L 641.025 169.92 
L 641.7225 169.92 
L 642.42 169.92 
L 643.1175 169.92 
L 643.815 169.92 
L 644.5125 169.92 
L 645.21 169.92 
L 645.9075 169.92 
L 646.605 169.92 
L 646.605 169.92 
L 646.605 169.92 
L 645.9075 169.921188 
L 645.21 169.923978 
L 644.5125 169.928771 
L 643.815 169.935961 
L 643.1175 169.945925 
L 642.42 169.959024 
L 641.7225 169.975602 
L 641.025 169.995983 
L 640.3275 170.020468 
L 639.63 170.049332 
L 638.9325 170.082828 
L 638.235 170.121179 
L 637.5375 170.164578 
L 636.84 170.21319 
L 636.1425 170.267146 
L 635.445 170.326546 
L 634.7475 170.391454 
L 634.05 170.461902 
L 633.3525 170.537884 
L 632.655 170.619361 
L 631.9575 170.706256 
L 631.26 170.798456 
L 630.5625 170.895812 
L 629.865 170.998141 
L 629.1675 171.105221 
L 628.47 171.216796 
L 627.7725 171.332578 
L 627.075 171.452242 
L 626.3775 171.575433 
L 625.68 171.701764 
L 624.9825 171.830817 
L 624.285 171.962147 
L 623.5875 172.095281 
L 622.89 172.229723 
L 622.1925 172.364952 
L 621.495 172.500425 
L 620.7975 172.635583 
L 620.1 172.769848 
L 619.4025 172.902628 
L 618.705 173.03332 
L 618.0075 173.161311 
L 617.31 173.285981 
L 616.6125 173.406706 
L 615.915 173.522862 
L 615.2175 173.633822 
L 614.52 173.738969 
L 613.8225 173.837689 
L 613.125 173.929377 
L 612.4275 174.013443 
L 611.73 174.08931 
L 611.0325 174.15642 
L 610.335 174.214236 
L 609.6375 174.262242 
L 608.94 174.299949 
L 608.2425 174.326897 
L 607.545 174.342654 
L 606.8475 174.346823 
L 606.15 174.339041 
L 605.4525 174.318982 
L 604.755 174.286359 
L 604.0575 174.240927 
L 603.36 174.182481 
L 602.6625 174.110862 
L 601.965 174.025955 
L 601.2675 173.927691 
L 600.57 173.816051 
L 599.8725 173.691061 
L 599.175 173.552797 
L 598.4775 173.401386 
L 597.78 173.237002 
L 597.0825 173.059871 
L 596.385 172.870267 
L 595.6875 172.668513 
L 594.99 172.454982 
L 594.2925 172.230095 
L 593.595 171.994319 
L 592.8975 171.748168 
L 592.2 171.492201 
L 591.5025 171.227019 
L 590.805 170.953267 
L 590.1075 170.671627 
L 589.41 170.382823 
L 588.7125 170.08761 
L 588.015 169.78678 
L 587.3175 169.481156 
L 586.62 169.171588 
L 585.9225 168.858953 
L 585.225 168.54415 
L 584.5275 168.228099 
L 583.83 167.911737 
L 583.1325 167.596014 
L 582.435 167.281892 
L 581.7375 166.97034 
L 581.04 166.66233 
L 580.3425 166.358837 
L 579.645 166.060832 
L 578.9475 165.769279 
L 578.25 165.485135 
L 577.5525 165.209343 
L 576.855 164.942828 
L 576.1575 164.686499 
L 575.46 164.441239 
L 574.7625 164.207906 
L 574.065 163.987329 
L 573.3675 163.780304 
L 572.67 163.587592 
L 571.9725 163.409915 
L 571.275 163.247956 
L 570.5775 163.10235 
L 569.88 162.973691 
L 569.1825 162.86252 
L 568.485 162.769329 
L 567.7875 162.694559 
L 567.09 162.638593 
L 566.3925 162.60176 
L 565.695 162.584329 
L 564.9975 162.586512 
L 564.3 162.60846 
L 563.6025 162.650262 
L 562.905 162.711946 
L 562.2075 162.793479 
L 561.51 162.894762 
L 560.8125 163.015638 
L 560.115 163.155883 
L 559.4175 163.315215 
L 558.72 163.493288 
L 558.0225 163.689698 
L 557.325 163.903979 
L 556.6275 164.135608 
L 555.93 164.384006 
L 555.2325 164.648538 
L 554.535 164.928516 
L 553.8375 165.223202 
L 553.14 165.531807 
L 552.4425 165.853498 
L 551.745 166.187397 
L 551.0475 166.532585 
L 550.35 166.888105 
L 549.6525 167.252964 
L 548.955 167.626138 
L 548.2575 168.006574 
L 547.56 168.393194 
L 546.8625 168.784898 
L 546.165 169.180567 
L 545.4675 169.579067 
L 544.77 169.979256 
L 544.0725 170.37998 
L 543.375 170.780086 
L 542.6775 171.178419 
L 541.98 171.573827 
L 541.2825 171.965169 
L 540.585 172.351312 
L 539.8875 172.731141 
L 539.19 173.103558 
L 538.4925 173.46749 
L 537.795 173.821886 
L 537.0975 174.165729 
L 536.4 174.49803 
L 535.7025 174.81784 
L 535.005 175.124248 
L 534.3075 175.416383 
L 533.61 175.69342 
L 532.9125 175.954583 
L 532.215 176.199144 
L 531.5175 176.426428 
L 530.82 176.635814 
L 530.1225 176.826738 
L 529.425 176.998692 
L 528.7275 177.151232 
L 528.03 177.283969 
L 527.3325 177.396582 
L 526.635 177.488809 
L 525.9375 177.560452 
L 525.24 177.611379 
L 524.5425 177.641522 
L 523.845 177.650875 
L 523.1475 177.6395 
L 522.45 177.60752 
L 521.7525 177.555122 
L 521.055 177.482556 
L 520.3575 177.390132 
L 519.66 177.278222 
L 518.9625 177.147253 
L 518.265 176.997713 
L 517.5675 176.830143 
L 516.87 176.645136 
L 516.1725 176.443339 
L 515.475 176.225443 
L 514.7775 175.992189 
L 514.08 175.744357 
L 513.3825 175.482772 
L 512.685 175.208293 
L 511.9875 174.921814 
L 511.29 174.624261 
L 510.5925 174.316586 
L 509.895 173.999768 
L 509.1975 173.674805 
L 508.5 173.342714 
L 507.8025 173.004524 
L 507.105 172.661278 
L 506.4075 172.314022 
L 505.71 171.963809 
L 505.0125 171.611689 
L 504.315 171.25871 
L 503.6175 170.905912 
L 502.92 170.554325 
L 502.2225 170.204964 
L 501.525 169.858828 
L 500.8275 169.516894 
L 500.13 169.180117 
L 499.4325 168.849423 
L 498.735 168.525709 
L 498.0375 168.209841 
L 497.34 167.902649 
L 496.6425 167.604924 
L 495.945 167.317418 
L 495.2475 167.040842 
L 494.55 166.775861 
L 493.8525 166.523094 
L 493.155 166.283115 
L 492.4575 166.056444 
L 491.76 165.843554 
L 491.0625 165.644867 
L 490.365 165.460749 
L 489.6675 165.291516 
L 488.97 165.137429 
L 488.2725 164.998696 
L 487.575 164.875469 
L 486.8775 164.767848 
L 486.18 164.675878 
L 485.4825 164.599553 
L 484.785 164.538812 
L 484.0875 164.493543 
L 483.39 164.463586 
L 482.6925 164.448729 
L 481.995 164.448714 
L 481.2975 164.463236 
L 480.6 164.491945 
L 479.9025 164.534449 
L 479.205 164.590317 
L 478.5075 164.659078 
L 477.81 164.740226 
L 477.1125 164.833221 
L 476.415 164.937491 
L 475.7175 165.052438 
L 475.02 165.177436 
L 474.3225 165.311837 
L 473.625 165.454974 
L 472.9275 165.606161 
L 472.23 165.764698 
L 471.5325 165.929876 
L 470.835 166.100973 
L 470.1375 166.277267 
L 469.44 166.458029 
L 468.7425 166.642533 
L 468.045 166.830055 
L 467.3475 167.019878 
L 466.65 167.211293 
L 465.9525 167.403604 
L 465.255 167.596129 
L 464.5575 167.788201 
L 463.86 167.979175 
L 463.1625 168.168425 
L 462.465 168.355351 
L 461.7675 168.539378 
L 461.07 168.719959 
L 460.3725 168.896576 
L 459.675 169.068744 
L 458.9775 169.236009 
L 458.28 169.397954 
L 457.5825 169.554194 
L 456.885 169.704385 
L 456.1875 169.848215 
L 455.49 169.985416 
L 454.7925 170.115754 
L 454.095 170.239036 
L 453.3975 170.355109 
L 452.7 170.463857 
L 452.0025 170.565205 
L 451.305 170.659116 
L 450.6075 170.74559 
L 449.91 170.824667 
L 449.2125 170.896422 
L 448.515 170.960966 
L 447.8175 171.018443 
L 447.12 171.069033 
L 446.4225 171.112947 
L 445.725 171.150424 
L 445.0275 171.181733 
L 444.33 171.207171 
L 443.6325 171.227058 
L 442.935 171.241736 
L 442.2375 171.25157 
L 441.54 171.256942 
L 440.8425 171.25825 
L 440.145 171.255906 
L 439.4475 171.250333 
L 438.75 171.241965 
L 438.0525 171.231239 
L 437.355 171.2186 
L 436.6575 171.204491 
L 435.96 171.189358 
L 435.2625 171.173639 
L 434.565 171.15777 
L 433.8675 171.142177 
L 433.17 171.127278 
L 432.4725 171.113474 
L 431.775 171.101155 
L 431.0775 171.090692 
L 430.38 171.082437 
L 429.6825 171.076721 
L 428.985 171.073852 
L 428.2875 171.074114 
L 427.59 171.077763 
L 426.8925 171.085029 
L 426.195 171.096113 
L 425.4975 171.111184 
L 424.8 171.130381 
L 424.1025 171.153809 
L 423.405 171.181542 
L 422.7075 171.21362 
L 422.01 171.250048 
L 421.3125 171.290797 
L 420.615 171.335803 
L 419.9175 171.38497 
L 419.22 171.438166 
L 418.5225 171.495225 
L 417.825 171.555948 
L 417.1275 171.620105 
L 416.43 171.687433 
L 415.7325 171.757639 
L 415.035 171.830402 
L 414.3375 171.905371 
L 413.64 171.98217 
L 412.9425 172.060397 
L 412.245 172.139628 
L 411.5475 172.219418 
L 410.85 172.299303 
L 410.1525 172.3788 
L 409.455 172.457414 
L 408.7575 172.534635 
L 408.06 172.609944 
L 407.3625 172.682815 
L 406.665 172.752714 
L 405.9675 172.819108 
L 405.27 172.881461 
L 404.5725 172.93924 
L 403.875 172.991918 
L 403.1775 173.038975 
L 402.48 173.079901 
L 401.7825 173.114201 
L 401.085 173.141392 
L 400.3875 173.161011 
L 399.69 173.172616 
L 398.9925 173.175786 
L 398.295 173.170128 
L 397.5975 173.155273 
L 396.9 173.130885 
L 396.2025 173.096657 
L 395.505 173.052317 
L 394.8075 172.997627 
L 394.11 172.932389 
L 393.4125 172.85644 
L 392.715 172.76966 
L 392.0175 172.671968 
L 391.32 172.563327 
L 390.6225 172.443742 
L 389.925 172.313264 
L 389.2275 172.171985 
L 388.53 172.020047 
L 387.8325 171.857632 
L 387.135 171.68497 
L 386.4375 171.502337 
L 385.74 171.310052 
L 385.0425 171.108478 
L 384.345 170.898023 
L 383.6475 170.679135 
L 382.95 170.452307 
L 382.2525 170.218069 
L 381.555 169.976993 
L 380.8575 169.729685 
L 380.16 169.476788 
L 379.4625 169.21898 
L 378.765 168.956967 
L 378.0675 168.691488 
L 377.37 168.423305 
L 376.6725 168.153208 
L 375.975 167.882007 
L 375.2775 167.61053 
L 374.58 167.339624 
L 373.8825 167.070146 
L 373.185 166.802967 
L 372.4875 166.538961 
L 371.79 166.27901 
L 371.0925 166.023995 
L 370.395 165.774794 
L 369.6975 165.532282 
L 369 165.297322 
L 368.3025 165.070768 
L 367.605 164.853457 
L 366.9075 164.646208 
L 366.21 164.449819 
L 365.5125 164.265062 
L 364.815 164.092684 
L 364.1175 163.933398 
L 363.42 163.787885 
L 362.7225 163.656791 
L 362.025 163.540721 
L 361.3275 163.44024 
L 360.63 163.355867 
L 359.9325 163.288076 
L 359.235 163.237294 
L 358.5375 163.203896 
L 357.84 163.188205 
L 357.1425 163.190492 
L 356.445 163.210969 
L 355.7475 163.249796 
L 355.05 163.307074 
L 354.3525 163.382844 
L 353.655 163.477089 
L 352.9575 163.589735 
L 352.26 163.720644 
L 351.5625 163.869622 
L 350.865 164.036413 
L 350.1675 164.220705 
L 349.47 164.422123 
L 348.7725 164.640238 
L 348.075 164.874564 
L 347.3775 165.124557 
L 346.68 165.389622 
L 345.9825 165.669109 
L 345.285 165.962321 
L 344.5875 166.26851 
L 343.89 166.586881 
L 343.1925 166.916597 
L 342.495 167.256779 
L 341.7975 167.606509 
L 341.1 167.964834 
L 340.4025 168.330767 
L 339.705 168.703292 
L 339.0075 169.081366 
L 338.31 169.463923 
L 337.6125 169.849877 
L 336.915 170.238127 
L 336.2175 170.627557 
L 335.52 171.017044 
L 334.8225 171.405459 
L 334.125 171.791671 
L 333.4275 172.17455 
L 332.73 172.552974 
L 332.0325 172.925829 
L 331.335 173.292014 
L 330.6375 173.650446 
L 329.94 174.000062 
L 329.2425 174.339821 
L 328.545 174.668713 
L 327.8475 174.985756 
L 327.15 175.290003 
L 326.4525 175.580545 
L 325.755 175.856512 
L 325.0575 176.117078 
L 324.36 176.361463 
L 323.6625 176.588937 
L 322.965 176.798817 
L 322.2675 176.990479 
L 321.57 177.16335 
L 320.8725 177.316917 
L 320.175 177.450724 
L 319.4775 177.564378 
L 318.78 177.657546 
L 318.0825 177.729959 
L 317.385 177.781411 
L 316.6875 177.811763 
L 315.99 177.820938 
L 315.2925 177.808926 
L 314.595 177.775782 
L 313.8975 177.721625 
L 313.2 177.64664 
L 312.5025 177.551076 
L 311.805 177.435243 
L 311.1075 177.299515 
L 310.41 177.144325 
L 309.7125 176.970166 
L 309.015 176.777589 
L 308.3175 176.567198 
L 307.62 176.339653 
L 306.9225 176.095664 
L 306.225 175.835988 
L 305.5275 175.561431 
L 304.83 175.272839 
L 304.1325 174.971101 
L 303.435 174.657142 
L 302.7375 174.331921 
L 302.04 173.996428 
L 301.3425 173.651681 
L 300.645 173.29872 
L 299.9475 172.938609 
L 299.25 172.572425 
L 298.5525 172.201262 
L 297.855 171.82622 
L 297.1575 171.448408 
L 296.46 171.068936 
L 295.7625 170.688911 
L 295.065 170.309439 
L 294.3675 169.931613 
L 293.67 169.556516 
L 292.9725 169.185215 
L 292.275 168.818757 
L 291.5775 168.458168 
L 290.88 168.104446 
L 290.1825 167.758561 
L 289.485 167.421452 
L 288.7875 167.094022 
L 288.09 166.777135 
L 287.3925 166.471616 
L 286.695 166.178247 
L 285.9975 165.897765 
L 285.3 165.63086 
L 284.6025 165.378171 
L 283.905 165.140288 
L 283.2075 164.917747 
L 282.51 164.711031 
L 281.8125 164.520566 
L 281.115 164.346724 
L 280.4175 164.18982 
L 279.72 164.050109 
L 279.0225 163.927792 
L 278.325 163.823008 
L 277.6275 163.735841 
L 276.93 163.666317 
L 276.2325 163.614403 
L 275.535 163.580011 
L 274.8375 163.562998 
L 274.14 163.563164 
L 273.4425 163.580259 
L 272.745 163.613979 
L 272.0475 163.66397 
L 271.35 163.729831 
L 270.6525 163.811113 
L 269.955 163.907322 
L 269.2575 164.017925 
L 268.56 164.142347 
L 267.8625 164.279976 
L 267.165 164.430165 
L 266.4675 164.592237 
L 265.77 164.765485 
L 265.0725 164.949175 
L 264.375 165.142551 
L 263.6775 165.344838 
L 262.98 165.55524 
L 262.2825 165.772952 
L 261.585 165.997155 
L 260.8875 166.227024 
L 260.19 166.461729 
L 259.4925 166.700438 
L 258.795 166.942322 
L 258.0975 167.186556 
L 257.4 167.432323 
L 256.7025 167.678817 
L 256.005 167.925246 
L 255.3075 168.170833 
L 254.61 168.414823 
L 253.9125 168.656479 
L 253.215 168.895091 
L 252.5175 169.129974 
L 251.82 169.360474 
L 251.1225 169.585966 
L 250.425 169.805857 
L 249.7275 170.019592 
L 249.03 170.226648 
L 248.3325 170.426544 
L 247.635 170.618834 
L 246.9375 170.803116 
L 246.24 170.979025 
L 245.5425 171.146242 
L 244.845 171.304487 
L 244.1475 171.453524 
L 243.45 171.593162 
L 242.7525 171.72325 
L 242.055 171.843682 
L 241.3575 171.954393 
L 240.66 172.055363 
L 239.9625 172.146609 
L 239.265 172.228194 
L 238.5675 172.300215 
L 237.87 172.362813 
L 237.1725 172.416162 
L 236.475 172.460473 
L 235.7775 172.495993 
L 235.08 172.522997 
L 234.3825 172.541795 
L 233.685 172.552724 
L 232.9875 172.556145 
L 232.29 172.552448 
L 231.5925 172.542042 
L 230.895 172.525355 
L 230.1975 172.502835 
L 229.5 172.474942 
L 228.8025 172.442151 
L 228.105 172.404946 
L 227.4075 172.363818 
L 226.71 172.319262 
L 226.0125 172.271776 
L 225.315 172.221858 
L 224.6175 172.170003 
L 223.92 172.116699 
L 223.2225 172.06243 
L 222.525 172.007665 
L 221.8275 171.952864 
L 221.13 171.898471 
L 220.4325 171.844913 
L 219.735 171.792598 
L 219.0375 171.741913 
L 218.34 171.693222 
L 217.6425 171.646866 
L 216.945 171.603158 
L 216.2475 171.562384 
L 215.55 171.5248 
L 214.8525 171.490634 
L 214.155 171.460082 
L 213.4575 171.433307 
L 212.76 171.410439 
L 212.0625 171.391577 
L 211.365 171.376784 
L 210.6675 171.36609 
L 209.97 171.35949 
L 209.2725 171.356946 
L 208.575 171.358387 
L 207.8775 171.363707 
L 207.18 171.372768 
L 206.4825 171.385401 
L 205.785 171.401404 
L 205.0875 171.420548 
L 204.39 171.442573 
L 203.6925 171.467193 
L 202.995 171.494094 
L 202.2975 171.52294 
L 201.6 171.553372 
L 200.9025 171.58501 
L 200.205 171.617456 
L 199.5075 171.650293 
L 198.81 171.683094 
L 198.1125 171.715415 
L 197.415 171.746806 
L 196.7175 171.776807 
L 196.02 171.804953 
L 195.3225 171.830778 
L 194.625 171.853815 
L 193.9275 171.873599 
L 193.23 171.88967 
L 192.5325 171.901575 
L 191.835 171.908872 
L 191.1375 171.91113 
L 190.44 171.907933 
L 189.7425 171.898883 
L 189.045 171.8836 
L 188.3475 171.861728 
L 187.65 171.832931 
L 186.9525 171.796904 
L 186.255 171.753365 
L 185.5575 171.702064 
L 184.86 171.642784 
L 184.1625 171.575337 
L 183.465 171.499575 
L 182.7675 171.415381 
L 182.07 171.322678 
L 181.3725 171.221427 
L 180.675 171.111627 
L 179.9775 170.993317 
L 179.28 170.866579 
L 178.5825 170.731532 
L 177.885 170.588339 
L 177.1875 170.437202 
L 176.49 170.278365 
L 175.7925 170.112113 
L 175.095 169.938769 
L 174.3975 169.758699 
L 173.7 169.572304 
L 173.0025 169.380025 
L 172.305 169.182338 
L 171.6075 168.979754 
L 170.91 168.772819 
L 170.2125 168.562109 
L 169.515 168.34823 
L 168.8175 168.131818 
L 168.12 167.913533 
L 167.4225 167.694059 
L 166.725 167.474102 
L 166.0275 167.254385 
L 165.33 167.035649 
L 164.6325 166.818647 
L 163.935 166.604145 
L 163.2375 166.392914 
L 162.54 166.185732 
L 161.8425 165.983378 
L 161.145 165.78663 
L 160.4475 165.596264 
L 159.75 165.413045 
L 159.0525 165.237732 
L 158.355 165.071068 
L 157.6575 164.913781 
L 156.96 164.76658 
L 156.2625 164.630151 
L 155.565 164.505156 
L 154.8675 164.392228 
L 154.17 164.291971 
L 153.4725 164.204955 
L 152.775 164.131713 
L 152.0775 164.072741 
L 151.38 164.028494 
L 150.6825 163.999386 
L 149.985 163.985782 
L 149.2875 163.988005 
L 148.59 164.006326 
L 147.8925 164.040967 
L 147.195 164.0921 
L 146.4975 164.159842 
L 145.8 164.244258 
L 145.1025 164.345356 
L 144.405 164.463092 
L 143.7075 164.597364 
L 143.01 164.748015 
L 142.3125 164.91483 
L 141.615 165.097541 
L 140.9175 165.295823 
L 140.22 165.509295 
L 139.5225 165.737523 
L 138.825 165.98002 
L 138.1275 166.236247 
L 137.43 166.505612 
L 136.7325 166.787476 
L 136.035 167.081153 
L 135.3375 167.38591 
L 134.64 167.70097 
L 133.9425 168.025517 
L 133.245 168.358696 
L 132.5475 168.699614 
L 131.85 169.047346 
L 131.1525 169.400937 
L 130.455 169.759405 
L 129.7575 170.12174 
L 129.06 170.486915 
L 128.3625 170.853885 
L 127.665 171.221587 
L 126.9675 171.588951 
L 126.27 171.954897 
L 125.5725 172.318343 
L 124.875 172.678206 
L 124.1775 173.033407 
L 123.48 173.382872 
L 122.7825 173.725539 
L 122.085 174.060362 
L 121.3875 174.38631 
L 120.69 174.702376 
L 119.9925 175.007575 
L 119.295 175.300952 
L 118.5975 175.581583 
L 117.9 175.848579 
L 117.2025 176.10109 
L 116.505 176.338304 
L 115.8075 176.559454 
L 115.11 176.763821 
L 114.4125 176.950734 
L 113.715 177.119571 
L 113.0175 177.269767 
L 112.32 177.40081 
L 111.6225 177.512248 
L 110.925 177.603686 
L 110.2275 177.67479 
L 109.53 177.725289 
L 108.8325 177.754974 
L 108.135 177.7637 
L 107.4375 177.751386 
L 106.74 177.718017 
L 106.0425 177.663642 
L 105.345 177.588374 
L 104.6475 177.492393 
L 103.95 177.375942 
L 103.2525 177.239327 
L 102.555 177.082916 
L 101.8575 176.907142 
L 101.16 176.712493 
L 100.4625 176.499519 
L 99.765 176.268825 
L 99.0675 176.021072 
L 98.37 175.756973 
L 97.6725 175.477291 
L 96.975 175.182837 
L 96.2775 174.874468 
L 95.58 174.553082 
L 94.8825 174.219617 
L 94.185 173.875047 
L 93.4875 173.52038 
L 92.79 173.156652 
L 92.0925 172.784927 
L 91.395 172.40629 
L 90.6975 172.021848 
L 90 171.632721 
z
" style="fill:#e0ffff;"/>
   </g>
   <g id="line2d_19">
    <path clip-path="url(#pac1d2fec68)" d="M 90 171.632721 
L 94.185 173.875047 
L 97.6725 175.477291 
L 100.4625 176.499519 
L 103.2525 177.239327 
L 105.345 177.588374 
L 107.4375 177.751386 
L 109.53 177.725289 
L 111.6225 177.512248 
L 113.715 177.119571 
L 116.505 176.338304 
L 119.295 175.300952 
L 122.7825 173.725539 
L 127.665 171.221587 
L 133.9425 168.025517 
L 137.43 166.505612 
L 140.22 165.509295 
L 143.01 164.748015 
L 145.8 164.244258 
L 148.59 164.006326 
L 151.38 164.028494 
L 154.17 164.291971 
L 156.96 164.76658 
L 160.4475 165.596264 
L 165.33 167.035649 
L 173.7 169.572304 
L 177.885 170.588339 
L 181.3725 171.221427 
L 184.86 171.642784 
L 188.3475 171.861728 
L 192.5325 171.901575 
L 198.1125 171.715415 
L 207.8775 171.363707 
L 212.76 171.410439 
L 218.34 171.693222 
L 231.5925 172.542042 
L 235.7775 172.495993 
L 239.265 172.228194 
L 242.7525 171.72325 
L 246.24 170.979025 
L 249.7275 170.019592 
L 254.61 168.414823 
L 263.6775 165.344838 
L 267.165 164.430165 
L 269.955 163.907322 
L 272.745 163.613979 
L 275.535 163.580011 
L 278.325 163.823008 
L 281.115 164.346724 
L 283.905 165.140288 
L 286.695 166.178247 
L 290.1825 167.758561 
L 294.3675 169.931613 
L 302.04 173.996428 
L 305.5275 175.561431 
L 308.3175 176.567198 
L 311.1075 177.299515 
L 313.2 177.64664 
L 315.2925 177.808926 
L 317.385 177.781411 
L 319.4775 177.564378 
L 321.57 177.16335 
L 324.36 176.361463 
L 327.15 175.290003 
L 330.6375 173.650446 
L 335.52 171.017044 
L 341.7975 167.606509 
L 345.285 165.962321 
L 348.075 164.874564 
L 350.865 164.036413 
L 353.655 163.477089 
L 356.445 163.210969 
L 359.235 163.237294 
L 362.025 163.540721 
L 364.815 164.092684 
L 367.605 164.853457 
L 371.0925 166.023995 
L 378.0675 168.691488 
L 382.95 170.452307 
L 386.4375 171.502337 
L 389.925 172.313264 
L 393.4125 172.85644 
L 396.9 173.130885 
L 400.3875 173.161011 
L 404.5725 172.93924 
L 410.1525 172.3788 
L 419.22 171.438166 
L 424.1025 171.153809 
L 429.6825 171.076721 
L 446.4225 171.112947 
L 450.6075 170.74559 
L 454.7925 170.115754 
L 458.9775 169.236009 
L 464.5575 167.788201 
L 472.23 165.764698 
L 475.7175 165.052438 
L 478.5075 164.659078 
L 481.2975 164.463236 
L 484.0875 164.493543 
L 486.8775 164.767848 
L 489.6675 165.291516 
L 492.4575 166.056444 
L 495.2475 167.040842 
L 498.735 168.525709 
L 503.6175 170.905912 
L 510.5925 174.316586 
L 514.08 175.744357 
L 516.87 176.645136 
L 519.66 177.278222 
L 521.7525 177.555122 
L 523.845 177.650875 
L 525.9375 177.560452 
L 528.03 177.283969 
L 530.1225 176.826738 
L 532.9125 175.954583 
L 535.7025 174.81784 
L 539.19 173.103558 
L 544.0725 170.37998 
L 550.35 166.888105 
L 553.8375 165.223202 
L 556.6275 164.135608 
L 559.4175 163.315215 
L 561.51 162.894762 
L 563.6025 162.650262 
L 565.695 162.584329 
L 567.7875 162.694559 
L 570.5775 163.10235 
L 573.3675 163.780304 
L 576.1575 164.686499 
L 579.645 166.060832 
L 585.9225 168.858953 
L 590.805 170.953267 
L 594.2925 172.230095 
L 597.0825 173.059871 
L 599.8725 173.691061 
L 602.6625 174.110862 
L 605.4525 174.318982 
L 608.2425 174.326897 
L 611.73 174.08931 
L 615.915 173.522862 
L 622.1925 172.364952 
L 629.1675 171.105221 
L 634.05 170.461902 
L 638.235 170.121179 
L 643.1175 169.945925 
L 646.605 169.92 
L 646.605 169.92 
" style="fill:none;stroke:#008080;stroke-linecap:round;stroke-width:1.75;"/>
   </g>
   <g id="patch_3">
    <path d="M 90 270.72 
L 90 69.12 
" style="fill:none;stroke:#262626;stroke-linecap:square;stroke-linejoin:miter;stroke-width:1.25;"/>
   </g>
   <g id="patch_4">
    <path d="M 90 270.72 
L 648 270.72 
" style="fill:none;stroke:#262626;stroke-linecap:square;stroke-linejoin:miter;stroke-width:1.25;"/>
   </g>
  </g>
  <g id="axes_2">
   <g id="patch_5">
    <path d="M 90 512.64 
L 648 512.64 
L 648 311.04 
L 90 311.04 
z
" style="fill:#ffffff;"/>
   </g>
   <g id="matplotlib.axis_3">
    <g id="xtick_10">
     <g id="line2d_20">
      <g>
       <use style="fill:#262626;stroke:#262626;" x="190.44" xlink:href="#m727865e388" y="512.64"/>
      </g>
     </g>
     <g id="text_19">
      <!-- 200 -->
      <g style="fill:#262626;" transform="translate(182.098594 532.797812)scale(0.1 -0.1)">
       <use xlink:href="#ArialMT-32"/>
       <use x="55.615234" xlink:href="#ArialMT-30"/>
       <use x="111.230469" xlink:href="#ArialMT-30"/>
      </g>
     </g>
    </g>
    <g id="xtick_11">
     <g id="line2d_21">
      <g>
       <use style="fill:#262626;stroke:#262626;" x="302.04" xlink:href="#m727865e388" y="512.64"/>
      </g>
     </g>
     <g id="text_20">
      <!-- 400 -->
      <g style="fill:#262626;" transform="translate(293.698594 532.797812)scale(0.1 -0.1)">
       <use xlink:href="#ArialMT-34"/>
       <use x="55.615234" xlink:href="#ArialMT-30"/>
       <use x="111.230469" xlink:href="#ArialMT-30"/>
      </g>
     </g>
    </g>
    <g id="xtick_12">
     <g id="line2d_22">
      <g>
       <use style="fill:#262626;stroke:#262626;" x="413.64" xlink:href="#m727865e388" y="512.64"/>
      </g>
     </g>
     <g id="text_21">
      <!-- 600 -->
      <g style="fill:#262626;" transform="translate(405.298594 532.797812)scale(0.1 -0.1)">
       <use xlink:href="#ArialMT-36"/>
       <use x="55.615234" xlink:href="#ArialMT-30"/>
       <use x="111.230469" xlink:href="#ArialMT-30"/>
      </g>
     </g>
    </g>
    <g id="xtick_13">
     <g id="line2d_23">
      <g>
       <use style="fill:#262626;stroke:#262626;" x="525.24" xlink:href="#m727865e388" y="512.64"/>
      </g>
     </g>
     <g id="text_22">
      <!-- 800 -->
      <g style="fill:#262626;" transform="translate(516.898594 532.797812)scale(0.1 -0.1)">
       <use xlink:href="#ArialMT-38"/>
       <use x="55.615234" xlink:href="#ArialMT-30"/>
       <use x="111.230469" xlink:href="#ArialMT-30"/>
      </g>
     </g>
    </g>
    <g id="xtick_14">
     <g id="line2d_24">
      <g>
       <use style="fill:#262626;stroke:#262626;" x="636.84" xlink:href="#m727865e388" y="512.64"/>
      </g>
     </g>
     <g id="text_23">
      <!-- 1000 -->
      <g style="fill:#262626;" transform="translate(625.718125 532.797812)scale(0.1 -0.1)">
       <use xlink:href="#ArialMT-31"/>
       <use x="55.615234" xlink:href="#ArialMT-30"/>
       <use x="111.230469" xlink:href="#ArialMT-30"/>
       <use x="166.845703" xlink:href="#ArialMT-30"/>
      </g>
     </g>
    </g>
   </g>
   <g id="matplotlib.axis_4">
    <g id="ytick_10">
     <g id="line2d_25">
      <g>
       <use style="fill:#262626;stroke:#262626;" x="90" xlink:href="#m05385d29db" y="512.64"/>
      </g>
     </g>
     <g id="text_24">
      <!-- 0 -->
      <g style="fill:#262626;" transform="translate(71.439063 516.218906)scale(0.1 -0.1)">
       <use xlink:href="#ArialMT-30"/>
      </g>
     </g>
    </g>
    <g id="ytick_11">
     <g id="line2d_26">
      <g>
       <use style="fill:#262626;stroke:#262626;" x="90" xlink:href="#m05385d29db" y="483.84"/>
      </g>
     </g>
     <g id="text_25">
      <!-- 10 -->
      <g style="fill:#262626;" transform="translate(65.878125 487.418906)scale(0.1 -0.1)">
       <use xlink:href="#ArialMT-31"/>
       <use x="55.615234" xlink:href="#ArialMT-30"/>
      </g>
     </g>
    </g>
    <g id="ytick_12">
     <g id="line2d_27">
      <g>
       <use style="fill:#262626;stroke:#262626;" x="90" xlink:href="#m05385d29db" y="455.04"/>
      </g>
     </g>
     <g id="text_26">
      <!-- 20 -->
      <g style="fill:#262626;" transform="translate(65.878125 458.618906)scale(0.1 -0.1)">
       <use xlink:href="#ArialMT-32"/>
       <use x="55.615234" xlink:href="#ArialMT-30"/>
      </g>
     </g>
    </g>
    <g id="ytick_13">
     <g id="line2d_28">
      <g>
       <use style="fill:#262626;stroke:#262626;" x="90" xlink:href="#m05385d29db" y="426.24"/>
      </g>
     </g>
     <g id="text_27">
      <!-- 30 -->
      <g style="fill:#262626;" transform="translate(65.878125 429.818906)scale(0.1 -0.1)">
       <use xlink:href="#ArialMT-33"/>
       <use x="55.615234" xlink:href="#ArialMT-30"/>
      </g>
     </g>
    </g>
    <g id="ytick_14">
     <g id="line2d_29">
      <g>
       <use style="fill:#262626;stroke:#262626;" x="90" xlink:href="#m05385d29db" y="397.44"/>
      </g>
     </g>
     <g id="text_28">
      <!-- 40 -->
      <g style="fill:#262626;" transform="translate(65.878125 401.018906)scale(0.1 -0.1)">
       <use xlink:href="#ArialMT-34"/>
       <use x="55.615234" xlink:href="#ArialMT-30"/>
      </g>
     </g>
    </g>
    <g id="ytick_15">
     <g id="line2d_30">
      <g>
       <use style="fill:#262626;stroke:#262626;" x="90" xlink:href="#m05385d29db" y="368.64"/>
      </g>
     </g>
     <g id="text_29">
      <!-- 50 -->
      <g style="fill:#262626;" transform="translate(65.878125 372.218906)scale(0.1 -0.1)">
       <use xlink:href="#ArialMT-35"/>
       <use x="55.615234" xlink:href="#ArialMT-30"/>
      </g>
     </g>
    </g>
    <g id="ytick_16">
     <g id="line2d_31">
      <g>
       <use style="fill:#262626;stroke:#262626;" x="90" xlink:href="#m05385d29db" y="339.84"/>
      </g>
     </g>
     <g id="text_30">
      <!-- 60 -->
      <g style="fill:#262626;" transform="translate(65.878125 343.418906)scale(0.1 -0.1)">
       <use xlink:href="#ArialMT-36"/>
       <use x="55.615234" xlink:href="#ArialMT-30"/>
      </g>
     </g>
    </g>
    <g id="ytick_17">
     <g id="line2d_32">
      <g>
       <use style="fill:#262626;stroke:#262626;" x="90" xlink:href="#m05385d29db" y="311.04"/>
      </g>
     </g>
     <g id="text_31">
      <!-- 70 -->
      <g style="fill:#262626;" transform="translate(65.878125 314.618906)scale(0.1 -0.1)">
       <use xlink:href="#ArialMT-37"/>
       <use x="55.615234" xlink:href="#ArialMT-30"/>
      </g>
     </g>
    </g>
   </g>
   <g id="line2d_33">
    <path clip-path="url(#pd270bac4fa)" d="M 90 495.208 
L 101.16 496.246355 
L 112.32 497.676438 
L 123.48 496.773624 
L 134.64 495.319457 
L 145.8 494.970857 
L 156.96 496.496469 
L 168.12 493.948302 
L 179.28 491.922563 
L 190.44 492.701338 
L 201.6 493.08264 
L 212.76 488.265624 
L 223.92 486.884007 
L 235.08 484.919609 
L 246.24 481.076037 
" style="fill:none;stroke:#b22222;stroke-linecap:round;stroke-width:1.75;"/>
   </g>
   <g id="patch_6">
    <path d="M 90 512.64 
L 90 311.04 
" style="fill:none;stroke:#262626;stroke-linecap:square;stroke-linejoin:miter;stroke-width:1.25;"/>
   </g>
   <g id="patch_7">
    <path d="M 90 512.64 
L 648 512.64 
" style="fill:none;stroke:#262626;stroke-linecap:square;stroke-linejoin:miter;stroke-width:1.25;"/>
   </g>
   <g id="text_32">
    <!-- f = 300 -->
    <defs>
     <path d="M 8.6875 0 
L 8.6875 45.015625 
L 0.921875 45.015625 
L 0.921875 51.859375 
L 8.6875 51.859375 
L 8.6875 57.375 
Q 8.6875 62.59375 9.625 65.140625 
Q 10.890625 68.5625 14.078125 70.671875 
Q 17.28125 72.796875 23.046875 72.796875 
Q 26.765625 72.796875 31.25 71.921875 
L 29.9375 64.265625 
Q 27.203125 64.75 24.75 64.75 
Q 20.75 64.75 19.09375 63.03125 
Q 17.4375 61.328125 17.4375 56.640625 
L 17.4375 51.859375 
L 27.546875 51.859375 
L 27.546875 45.015625 
L 17.4375 45.015625 
L 17.4375 0 
z
" id="ArialMT-66"/>
     <path id="ArialMT-20"/>
     <path d="M 52.828125 42.09375 
L 5.5625 42.09375 
L 5.5625 50.296875 
L 52.828125 50.296875 
z
M 52.828125 20.359375 
L 5.5625 20.359375 
L 5.5625 28.5625 
L 52.828125 28.5625 
z
" id="ArialMT-3d"/>
    </defs>
    <g style="fill:#262626;" transform="translate(525.24 371.742188)scale(0.12 -0.12)">
     <use xlink:href="#ArialMT-66"/>
     <use x="27.783203" xlink:href="#ArialMT-20"/>
     <use x="55.566406" xlink:href="#ArialMT-3d"/>
     <use x="113.964844" xlink:href="#ArialMT-20"/>
     <use x="141.748047" xlink:href="#ArialMT-33"/>
     <use x="197.363281" xlink:href="#ArialMT-30"/>
     <use x="252.978516" xlink:href="#ArialMT-30"/>
    </g>
   </g>
   <g id="PathCollection_1">
    <defs>
     <path d="M 0 3.5 
C 0.928211 3.5 1.81853 3.131218 2.474874 2.474874 
C 3.131218 1.81853 3.5 0.928211 3.5 0 
C 3.5 -0.928211 3.131218 -1.81853 2.474874 -2.474874 
C 1.81853 -3.131218 0.928211 -3.5 0 -3.5 
C -0.928211 -3.5 -1.81853 -3.131218 -2.474874 -2.474874 
C -3.131218 -1.81853 -3.5 -0.928211 -3.5 0 
C -3.5 0.928211 -3.131218 1.81853 -2.474874 2.474874 
C -1.81853 3.131218 -0.928211 3.5 0 3.5 
z
" id="mb87968ee1c" style="stroke:#800000;stroke-width:0.3;"/>
    </defs>
    <g clip-path="url(#pd270bac4fa)">
     <use style="fill:#800000;stroke:#800000;stroke-width:0.3;" x="246.24" xlink:href="#mb87968ee1c" y="481.076037"/>
    </g>
   </g>
  </g>
 </g>
 <defs>
  <clipPath id="pac1d2fec68">
   <rect height="201.6" width="558" x="90" y="69.12"/>
  </clipPath>
  <clipPath id="pd270bac4fa">
   <rect height="201.6" width="558" x="90" y="311.04"/>
  </clipPath>
 </defs>
</svg>
