<?xml version="1.0" encoding="utf-8" standalone="no"?>
<!DOCTYPE svg PUBLIC "-//W3C//DTD SVG 1.1//EN"
  "http://www.w3.org/Graphics/SVG/1.1/DTD/svg11.dtd">
<!-- Created with matplotlib (http://matplotlib.org/) -->
<svg height="576pt" version="1.1" viewBox="0 0 720 576" width="720pt" xmlns="http://www.w3.org/2000/svg" xmlns:xlink="http://www.w3.org/1999/xlink">
 <defs>
  <style type="text/css">
*{stroke-linecap:butt;stroke-linejoin:round;}
  </style>
 </defs>
 <g id="figure_1">
  <g id="patch_1">
   <path d="M 0 576 
L 720 576 
L 720 0 
L 0 0 
z
" style="fill:#ffffff;"/>
  </g>
  <g id="axes_1">
   <g id="patch_2">
    <path d="M 90 270.72 
L 648 270.72 
L 648 69.12 
L 90 69.12 
z
" style="fill:#ffffff;"/>
   </g>
   <g id="matplotlib.axis_1">
    <g id="xtick_1">
     <g id="line2d_1">
      <defs>
       <path d="M 0 0 
L 0 6 
" id="m4df781812d" style="stroke:#262626;"/>
      </defs>
      <g>
       <use style="fill:#262626;stroke:#262626;" x="90" xlink:href="#m4df781812d" y="270.72"/>
      </g>
     </g>
     <g id="text_1">
      <!-- 0 -->
      <defs>
       <path d="M 4.15625 35.296875 
Q 4.15625 48 6.765625 55.734375 
Q 9.375 63.484375 14.515625 67.671875 
Q 19.671875 71.875 27.484375 71.875 
Q 33.25 71.875 37.59375 69.546875 
Q 41.9375 67.234375 44.765625 62.859375 
Q 47.609375 58.5 49.21875 52.21875 
Q 50.828125 45.953125 50.828125 35.296875 
Q 50.828125 22.703125 48.234375 14.96875 
Q 45.65625 7.234375 40.5 3 
Q 35.359375 -1.21875 27.484375 -1.21875 
Q 17.140625 -1.21875 11.234375 6.203125 
Q 4.15625 15.140625 4.15625 35.296875 
z
M 13.1875 35.296875 
Q 13.1875 17.671875 17.3125 11.828125 
Q 21.4375 6 27.484375 6 
Q 33.546875 6 37.671875 11.859375 
Q 41.796875 17.71875 41.796875 35.296875 
Q 41.796875 52.984375 37.671875 58.78125 
Q 33.546875 64.59375 27.390625 64.59375 
Q 21.34375 64.59375 17.71875 59.46875 
Q 13.1875 52.9375 13.1875 35.296875 
z
" id="ArialMT-30"/>
      </defs>
      <g style="fill:#262626;" transform="translate(87.219531 290.877812)scale(0.1 -0.1)">
       <use xlink:href="#ArialMT-30"/>
      </g>
     </g>
    </g>
    <g id="xtick_2">
     <g id="line2d_2">
      <g>
       <use style="fill:#262626;stroke:#262626;" x="159.75" xlink:href="#m4df781812d" y="270.72"/>
      </g>
     </g>
     <g id="text_2">
      <!-- 100 -->
      <defs>
       <path d="M 37.25 0 
L 28.46875 0 
L 28.46875 56 
Q 25.296875 52.984375 20.140625 49.953125 
Q 14.984375 46.921875 10.890625 45.40625 
L 10.890625 53.90625 
Q 18.265625 57.375 23.78125 62.296875 
Q 29.296875 67.234375 31.59375 71.875 
L 37.25 71.875 
z
" id="ArialMT-31"/>
      </defs>
      <g style="fill:#262626;" transform="translate(151.408594 290.877812)scale(0.1 -0.1)">
       <use xlink:href="#ArialMT-31"/>
       <use x="55.615234" xlink:href="#ArialMT-30"/>
       <use x="111.230469" xlink:href="#ArialMT-30"/>
      </g>
     </g>
    </g>
    <g id="xtick_3">
     <g id="line2d_3">
      <g>
       <use style="fill:#262626;stroke:#262626;" x="229.5" xlink:href="#m4df781812d" y="270.72"/>
      </g>
     </g>
     <g id="text_3">
      <!-- 200 -->
      <defs>
       <path d="M 50.34375 8.453125 
L 50.34375 0 
L 3.03125 0 
Q 2.9375 3.171875 4.046875 6.109375 
Q 5.859375 10.9375 9.828125 15.625 
Q 13.8125 20.3125 21.34375 26.46875 
Q 33.015625 36.03125 37.109375 41.625 
Q 41.21875 47.21875 41.21875 52.203125 
Q 41.21875 57.421875 37.46875 61 
Q 33.734375 64.59375 27.734375 64.59375 
Q 21.390625 64.59375 17.578125 60.78125 
Q 13.765625 56.984375 13.71875 50.25 
L 4.6875 51.171875 
Q 5.609375 61.28125 11.65625 66.578125 
Q 17.71875 71.875 27.9375 71.875 
Q 38.234375 71.875 44.234375 66.15625 
Q 50.25 60.453125 50.25 52 
Q 50.25 47.703125 48.484375 43.546875 
Q 46.734375 39.40625 42.65625 34.8125 
Q 38.578125 30.21875 29.109375 22.21875 
Q 21.1875 15.578125 18.9375 13.203125 
Q 16.703125 10.84375 15.234375 8.453125 
z
" id="ArialMT-32"/>
      </defs>
      <g style="fill:#262626;" transform="translate(221.158594 290.877812)scale(0.1 -0.1)">
       <use xlink:href="#ArialMT-32"/>
       <use x="55.615234" xlink:href="#ArialMT-30"/>
       <use x="111.230469" xlink:href="#ArialMT-30"/>
      </g>
     </g>
    </g>
    <g id="xtick_4">
     <g id="line2d_4">
      <g>
       <use style="fill:#262626;stroke:#262626;" x="299.25" xlink:href="#m4df781812d" y="270.72"/>
      </g>
     </g>
     <g id="text_4">
      <!-- 300 -->
      <defs>
       <path d="M 4.203125 18.890625 
L 12.984375 20.0625 
Q 14.5 12.59375 18.140625 9.296875 
Q 21.78125 6 27 6 
Q 33.203125 6 37.46875 10.296875 
Q 41.75 14.59375 41.75 20.953125 
Q 41.75 27 37.796875 30.921875 
Q 33.84375 34.859375 27.734375 34.859375 
Q 25.25 34.859375 21.53125 33.890625 
L 22.515625 41.609375 
Q 23.390625 41.5 23.921875 41.5 
Q 29.546875 41.5 34.03125 44.421875 
Q 38.53125 47.359375 38.53125 53.46875 
Q 38.53125 58.296875 35.25 61.46875 
Q 31.984375 64.65625 26.8125 64.65625 
Q 21.6875 64.65625 18.265625 61.421875 
Q 14.84375 58.203125 13.875 51.765625 
L 5.078125 53.328125 
Q 6.6875 62.15625 12.390625 67.015625 
Q 18.109375 71.875 26.609375 71.875 
Q 32.46875 71.875 37.390625 69.359375 
Q 42.328125 66.84375 44.9375 62.5 
Q 47.5625 58.15625 47.5625 53.265625 
Q 47.5625 48.640625 45.0625 44.828125 
Q 42.578125 41.015625 37.703125 38.765625 
Q 44.046875 37.3125 47.5625 32.6875 
Q 51.078125 28.078125 51.078125 21.140625 
Q 51.078125 11.765625 44.234375 5.25 
Q 37.40625 -1.265625 26.953125 -1.265625 
Q 17.53125 -1.265625 11.296875 4.34375 
Q 5.078125 9.96875 4.203125 18.890625 
z
" id="ArialMT-33"/>
      </defs>
      <g style="fill:#262626;" transform="translate(290.908594 290.877812)scale(0.1 -0.1)">
       <use xlink:href="#ArialMT-33"/>
       <use x="55.615234" xlink:href="#ArialMT-30"/>
       <use x="111.230469" xlink:href="#ArialMT-30"/>
      </g>
     </g>
    </g>
    <g id="xtick_5">
     <g id="line2d_5">
      <g>
       <use style="fill:#262626;stroke:#262626;" x="369" xlink:href="#m4df781812d" y="270.72"/>
      </g>
     </g>
     <g id="text_5">
      <!-- 400 -->
      <defs>
       <path d="M 32.328125 0 
L 32.328125 17.140625 
L 1.265625 17.140625 
L 1.265625 25.203125 
L 33.9375 71.578125 
L 41.109375 71.578125 
L 41.109375 25.203125 
L 50.78125 25.203125 
L 50.78125 17.140625 
L 41.109375 17.140625 
L 41.109375 0 
z
M 32.328125 25.203125 
L 32.328125 57.46875 
L 9.90625 25.203125 
z
" id="ArialMT-34"/>
      </defs>
      <g style="fill:#262626;" transform="translate(360.658594 290.877812)scale(0.1 -0.1)">
       <use xlink:href="#ArialMT-34"/>
       <use x="55.615234" xlink:href="#ArialMT-30"/>
       <use x="111.230469" xlink:href="#ArialMT-30"/>
      </g>
     </g>
    </g>
    <g id="xtick_6">
     <g id="line2d_6">
      <g>
       <use style="fill:#262626;stroke:#262626;" x="438.75" xlink:href="#m4df781812d" y="270.72"/>
      </g>
     </g>
     <g id="text_6">
      <!-- 500 -->
      <defs>
       <path d="M 4.15625 18.75 
L 13.375 19.53125 
Q 14.40625 12.796875 18.140625 9.390625 
Q 21.875 6 27.15625 6 
Q 33.5 6 37.890625 10.78125 
Q 42.28125 15.578125 42.28125 23.484375 
Q 42.28125 31 38.0625 35.34375 
Q 33.84375 39.703125 27 39.703125 
Q 22.75 39.703125 19.328125 37.765625 
Q 15.921875 35.84375 13.96875 32.765625 
L 5.71875 33.84375 
L 12.640625 70.609375 
L 48.25 70.609375 
L 48.25 62.203125 
L 19.671875 62.203125 
L 15.828125 42.96875 
Q 22.265625 47.46875 29.34375 47.46875 
Q 38.71875 47.46875 45.15625 40.96875 
Q 51.609375 34.46875 51.609375 24.265625 
Q 51.609375 14.546875 45.953125 7.46875 
Q 39.0625 -1.21875 27.15625 -1.21875 
Q 17.390625 -1.21875 11.203125 4.25 
Q 5.03125 9.71875 4.15625 18.75 
z
" id="ArialMT-35"/>
      </defs>
      <g style="fill:#262626;" transform="translate(430.408594 290.877812)scale(0.1 -0.1)">
       <use xlink:href="#ArialMT-35"/>
       <use x="55.615234" xlink:href="#ArialMT-30"/>
       <use x="111.230469" xlink:href="#ArialMT-30"/>
      </g>
     </g>
    </g>
    <g id="xtick_7">
     <g id="line2d_7">
      <g>
       <use style="fill:#262626;stroke:#262626;" x="508.5" xlink:href="#m4df781812d" y="270.72"/>
      </g>
     </g>
     <g id="text_7">
      <!-- 600 -->
      <defs>
       <path d="M 49.75 54.046875 
L 41.015625 53.375 
Q 39.84375 58.546875 37.703125 60.890625 
Q 34.125 64.65625 28.90625 64.65625 
Q 24.703125 64.65625 21.53125 62.3125 
Q 17.390625 59.28125 14.984375 53.46875 
Q 12.59375 47.65625 12.5 36.921875 
Q 15.671875 41.75 20.265625 44.09375 
Q 24.859375 46.4375 29.890625 46.4375 
Q 38.671875 46.4375 44.84375 39.96875 
Q 51.03125 33.5 51.03125 23.25 
Q 51.03125 16.5 48.125 10.71875 
Q 45.21875 4.9375 40.140625 1.859375 
Q 35.0625 -1.21875 28.609375 -1.21875 
Q 17.625 -1.21875 10.6875 6.859375 
Q 3.765625 14.9375 3.765625 33.5 
Q 3.765625 54.25 11.421875 63.671875 
Q 18.109375 71.875 29.4375 71.875 
Q 37.890625 71.875 43.28125 67.140625 
Q 48.6875 62.40625 49.75 54.046875 
z
M 13.875 23.1875 
Q 13.875 18.65625 15.796875 14.5 
Q 17.71875 10.359375 21.1875 8.171875 
Q 24.65625 6 28.46875 6 
Q 34.03125 6 38.03125 10.484375 
Q 42.046875 14.984375 42.046875 22.703125 
Q 42.046875 30.125 38.078125 34.390625 
Q 34.125 38.671875 28.125 38.671875 
Q 22.171875 38.671875 18.015625 34.390625 
Q 13.875 30.125 13.875 23.1875 
z
" id="ArialMT-36"/>
      </defs>
      <g style="fill:#262626;" transform="translate(500.158594 290.877812)scale(0.1 -0.1)">
       <use xlink:href="#ArialMT-36"/>
       <use x="55.615234" xlink:href="#ArialMT-30"/>
       <use x="111.230469" xlink:href="#ArialMT-30"/>
      </g>
     </g>
    </g>
    <g id="xtick_8">
     <g id="line2d_8">
      <g>
       <use style="fill:#262626;stroke:#262626;" x="578.25" xlink:href="#m4df781812d" y="270.72"/>
      </g>
     </g>
     <g id="text_8">
      <!-- 700 -->
      <defs>
       <path d="M 4.734375 62.203125 
L 4.734375 70.65625 
L 51.078125 70.65625 
L 51.078125 63.8125 
Q 44.234375 56.546875 37.515625 44.484375 
Q 30.8125 32.421875 27.15625 19.671875 
Q 24.515625 10.6875 23.78125 0 
L 14.75 0 
Q 14.890625 8.453125 18.0625 20.40625 
Q 21.234375 32.375 27.171875 43.484375 
Q 33.109375 54.59375 39.796875 62.203125 
z
" id="ArialMT-37"/>
      </defs>
      <g style="fill:#262626;" transform="translate(569.908594 290.877812)scale(0.1 -0.1)">
       <use xlink:href="#ArialMT-37"/>
       <use x="55.615234" xlink:href="#ArialMT-30"/>
       <use x="111.230469" xlink:href="#ArialMT-30"/>
      </g>
     </g>
    </g>
    <g id="xtick_9">
     <g id="line2d_9">
      <g>
       <use style="fill:#262626;stroke:#262626;" x="648" xlink:href="#m4df781812d" y="270.72"/>
      </g>
     </g>
     <g id="text_9">
      <!-- 800 -->
      <defs>
       <path d="M 17.671875 38.8125 
Q 12.203125 40.828125 9.5625 44.53125 
Q 6.9375 48.25 6.9375 53.421875 
Q 6.9375 61.234375 12.546875 66.546875 
Q 18.171875 71.875 27.484375 71.875 
Q 36.859375 71.875 42.578125 66.421875 
Q 48.296875 60.984375 48.296875 53.171875 
Q 48.296875 48.1875 45.671875 44.5 
Q 43.0625 40.828125 37.75 38.8125 
Q 44.34375 36.671875 47.78125 31.875 
Q 51.21875 27.09375 51.21875 20.453125 
Q 51.21875 11.28125 44.71875 5.03125 
Q 38.234375 -1.21875 27.640625 -1.21875 
Q 17.046875 -1.21875 10.546875 5.046875 
Q 4.046875 11.328125 4.046875 20.703125 
Q 4.046875 27.6875 7.59375 32.390625 
Q 11.140625 37.109375 17.671875 38.8125 
z
M 15.921875 53.71875 
Q 15.921875 48.640625 19.1875 45.40625 
Q 22.46875 42.1875 27.6875 42.1875 
Q 32.765625 42.1875 36.015625 45.375 
Q 39.265625 48.578125 39.265625 53.21875 
Q 39.265625 58.0625 35.90625 61.359375 
Q 32.5625 64.65625 27.59375 64.65625 
Q 22.5625 64.65625 19.234375 61.421875 
Q 15.921875 58.203125 15.921875 53.71875 
z
M 13.09375 20.65625 
Q 13.09375 16.890625 14.875 13.375 
Q 16.65625 9.859375 20.171875 7.921875 
Q 23.6875 6 27.734375 6 
Q 34.03125 6 38.125 10.046875 
Q 42.234375 14.109375 42.234375 20.359375 
Q 42.234375 26.703125 38.015625 30.859375 
Q 33.796875 35.015625 27.4375 35.015625 
Q 21.234375 35.015625 17.15625 30.90625 
Q 13.09375 26.8125 13.09375 20.65625 
z
" id="ArialMT-38"/>
      </defs>
      <g style="fill:#262626;" transform="translate(639.658594 290.877812)scale(0.1 -0.1)">
       <use xlink:href="#ArialMT-38"/>
       <use x="55.615234" xlink:href="#ArialMT-30"/>
       <use x="111.230469" xlink:href="#ArialMT-30"/>
      </g>
     </g>
    </g>
   </g>
   <g id="matplotlib.axis_2">
    <g id="ytick_1">
     <g id="line2d_10">
      <defs>
       <path d="M 0 0 
L -6 0 
" id="m597432bdb0" style="stroke:#262626;"/>
      </defs>
      <g>
       <use style="fill:#262626;stroke:#262626;" x="90" xlink:href="#m597432bdb0" y="270.72"/>
      </g>
     </g>
     <g id="text_10">
      <!-- −0.20 -->
      <defs>
       <path d="M 52.828125 31.203125 
L 5.5625 31.203125 
L 5.5625 39.40625 
L 52.828125 39.40625 
z
" id="ArialMT-2212"/>
       <path d="M 9.078125 0 
L 9.078125 10.015625 
L 19.09375 10.015625 
L 19.09375 0 
z
" id="ArialMT-2e"/>
      </defs>
      <g style="fill:#262626;" transform="translate(51.698437 274.298906)scale(0.1 -0.1)">
       <use xlink:href="#ArialMT-2212"/>
       <use x="58.398438" xlink:href="#ArialMT-30"/>
       <use x="114.013672" xlink:href="#ArialMT-2e"/>
       <use x="141.796875" xlink:href="#ArialMT-32"/>
       <use x="197.412109" xlink:href="#ArialMT-30"/>
      </g>
     </g>
    </g>
    <g id="ytick_2">
     <g id="line2d_11">
      <g>
       <use style="fill:#262626;stroke:#262626;" x="90" xlink:href="#m597432bdb0" y="245.52"/>
      </g>
     </g>
     <g id="text_11">
      <!-- −0.15 -->
      <g style="fill:#262626;" transform="translate(51.698437 249.098906)scale(0.1 -0.1)">
       <use xlink:href="#ArialMT-2212"/>
       <use x="58.398438" xlink:href="#ArialMT-30"/>
       <use x="114.013672" xlink:href="#ArialMT-2e"/>
       <use x="141.796875" xlink:href="#ArialMT-31"/>
       <use x="197.412109" xlink:href="#ArialMT-35"/>
      </g>
     </g>
    </g>
    <g id="ytick_3">
     <g id="line2d_12">
      <g>
       <use style="fill:#262626;stroke:#262626;" x="90" xlink:href="#m597432bdb0" y="220.32"/>
      </g>
     </g>
     <g id="text_12">
      <!-- −0.10 -->
      <g style="fill:#262626;" transform="translate(51.698437 223.898906)scale(0.1 -0.1)">
       <use xlink:href="#ArialMT-2212"/>
       <use x="58.398438" xlink:href="#ArialMT-30"/>
       <use x="114.013672" xlink:href="#ArialMT-2e"/>
       <use x="141.796875" xlink:href="#ArialMT-31"/>
       <use x="197.412109" xlink:href="#ArialMT-30"/>
      </g>
     </g>
    </g>
    <g id="ytick_4">
     <g id="line2d_13">
      <g>
       <use style="fill:#262626;stroke:#262626;" x="90" xlink:href="#m597432bdb0" y="195.12"/>
      </g>
     </g>
     <g id="text_13">
      <!-- −0.05 -->
      <g style="fill:#262626;" transform="translate(51.698437 198.698906)scale(0.1 -0.1)">
       <use xlink:href="#ArialMT-2212"/>
       <use x="58.398438" xlink:href="#ArialMT-30"/>
       <use x="114.013672" xlink:href="#ArialMT-2e"/>
       <use x="141.796875" xlink:href="#ArialMT-30"/>
       <use x="197.412109" xlink:href="#ArialMT-35"/>
      </g>
     </g>
    </g>
    <g id="ytick_5">
     <g id="line2d_14">
      <g>
       <use style="fill:#262626;stroke:#262626;" x="90" xlink:href="#m597432bdb0" y="169.92"/>
      </g>
     </g>
     <g id="text_14">
      <!-- 0.00 -->
      <g style="fill:#262626;" transform="translate(57.539062 173.498906)scale(0.1 -0.1)">
       <use xlink:href="#ArialMT-30"/>
       <use x="55.615234" xlink:href="#ArialMT-2e"/>
       <use x="83.398438" xlink:href="#ArialMT-30"/>
       <use x="139.013672" xlink:href="#ArialMT-30"/>
      </g>
     </g>
    </g>
    <g id="ytick_6">
     <g id="line2d_15">
      <g>
       <use style="fill:#262626;stroke:#262626;" x="90" xlink:href="#m597432bdb0" y="144.72"/>
      </g>
     </g>
     <g id="text_15">
      <!-- 0.05 -->
      <g style="fill:#262626;" transform="translate(57.539062 148.298906)scale(0.1 -0.1)">
       <use xlink:href="#ArialMT-30"/>
       <use x="55.615234" xlink:href="#ArialMT-2e"/>
       <use x="83.398438" xlink:href="#ArialMT-30"/>
       <use x="139.013672" xlink:href="#ArialMT-35"/>
      </g>
     </g>
    </g>
    <g id="ytick_7">
     <g id="line2d_16">
      <g>
       <use style="fill:#262626;stroke:#262626;" x="90" xlink:href="#m597432bdb0" y="119.52"/>
      </g>
     </g>
     <g id="text_16">
      <!-- 0.10 -->
      <g style="fill:#262626;" transform="translate(57.539062 123.098906)scale(0.1 -0.1)">
       <use xlink:href="#ArialMT-30"/>
       <use x="55.615234" xlink:href="#ArialMT-2e"/>
       <use x="83.398438" xlink:href="#ArialMT-31"/>
       <use x="139.013672" xlink:href="#ArialMT-30"/>
      </g>
     </g>
    </g>
    <g id="ytick_8">
     <g id="line2d_17">
      <g>
       <use style="fill:#262626;stroke:#262626;" x="90" xlink:href="#m597432bdb0" y="94.32"/>
      </g>
     </g>
     <g id="text_17">
      <!-- 0.15 -->
      <g style="fill:#262626;" transform="translate(57.539062 97.898906)scale(0.1 -0.1)">
       <use xlink:href="#ArialMT-30"/>
       <use x="55.615234" xlink:href="#ArialMT-2e"/>
       <use x="83.398438" xlink:href="#ArialMT-31"/>
       <use x="139.013672" xlink:href="#ArialMT-35"/>
      </g>
     </g>
    </g>
    <g id="ytick_9">
     <g id="line2d_18">
      <g>
       <use style="fill:#262626;stroke:#262626;" x="90" xlink:href="#m597432bdb0" y="69.12"/>
      </g>
     </g>
     <g id="text_18">
      <!-- 0.20 -->
      <g style="fill:#262626;" transform="translate(57.539062 72.698906)scale(0.1 -0.1)">
       <use xlink:href="#ArialMT-30"/>
       <use x="55.615234" xlink:href="#ArialMT-2e"/>
       <use x="83.398438" xlink:href="#ArialMT-32"/>
       <use x="139.013672" xlink:href="#ArialMT-30"/>
      </g>
     </g>
    </g>
   </g>
   <g id="PolyCollection_1">
    <path clip-path="url(#p1bb582405c)" d="M 90 168.37359 
L 90 169.92 
L 90.6975 169.92 
L 91.395 169.92 
L 92.0925 169.92 
L 92.79 169.92 
L 93.4875 169.92 
L 94.185 169.92 
L 94.8825 169.92 
L 95.58 169.92 
L 96.2775 169.92 
L 96.975 169.92 
L 97.6725 169.92 
L 98.37 169.92 
L 99.0675 169.92 
L 99.765 169.92 
L 100.4625 169.92 
L 101.16 169.92 
L 101.8575 169.92 
L 102.555 169.92 
L 103.2525 169.92 
L 103.95 169.92 
L 104.6475 169.92 
L 105.345 169.92 
L 106.0425 169.92 
L 106.74 169.92 
L 107.4375 169.92 
L 108.135 169.92 
L 108.8325 169.92 
L 109.53 169.92 
L 110.2275 169.92 
L 110.925 169.92 
L 111.6225 169.92 
L 112.32 169.92 
L 113.0175 169.92 
L 113.715 169.92 
L 114.4125 169.92 
L 115.11 169.92 
L 115.8075 169.92 
L 116.505 169.92 
L 117.2025 169.92 
L 117.9 169.92 
L 118.5975 169.92 
L 119.295 169.92 
L 119.9925 169.92 
L 120.69 169.92 
L 121.3875 169.92 
L 122.085 169.92 
L 122.7825 169.92 
L 123.48 169.92 
L 124.1775 169.92 
L 124.875 169.92 
L 125.5725 169.92 
L 126.27 169.92 
L 126.9675 169.92 
L 127.665 169.92 
L 128.3625 169.92 
L 129.06 169.92 
L 129.7575 169.92 
L 130.455 169.92 
L 131.1525 169.92 
L 131.85 169.92 
L 132.5475 169.92 
L 133.245 169.92 
L 133.9425 169.92 
L 134.64 169.92 
L 135.3375 169.92 
L 136.035 169.92 
L 136.7325 169.92 
L 137.43 169.92 
L 138.1275 169.92 
L 138.825 169.92 
L 139.5225 169.92 
L 140.22 169.92 
L 140.9175 169.92 
L 141.615 169.92 
L 142.3125 169.92 
L 143.01 169.92 
L 143.7075 169.92 
L 144.405 169.92 
L 145.1025 169.92 
L 145.8 169.92 
L 146.4975 169.92 
L 147.195 169.92 
L 147.8925 169.92 
L 148.59 169.92 
L 149.2875 169.92 
L 149.985 169.92 
L 150.6825 169.92 
L 151.38 169.92 
L 152.0775 169.92 
L 152.775 169.92 
L 153.4725 169.92 
L 154.17 169.92 
L 154.8675 169.92 
L 155.565 169.92 
L 156.2625 169.92 
L 156.96 169.92 
L 157.6575 169.92 
L 158.355 169.92 
L 159.0525 169.92 
L 159.75 169.92 
L 160.4475 169.92 
L 161.145 169.92 
L 161.8425 169.92 
L 162.54 169.92 
L 163.2375 169.92 
L 163.935 169.92 
L 164.6325 169.92 
L 165.33 169.92 
L 166.0275 169.92 
L 166.725 169.92 
L 167.4225 169.92 
L 168.12 169.92 
L 168.8175 169.92 
L 169.515 169.92 
L 170.2125 169.92 
L 170.91 169.92 
L 171.6075 169.92 
L 172.305 169.92 
L 173.0025 169.92 
L 173.7 169.92 
L 174.3975 169.92 
L 175.095 169.92 
L 175.7925 169.92 
L 176.49 169.92 
L 177.1875 169.92 
L 177.885 169.92 
L 178.5825 169.92 
L 179.28 169.92 
L 179.9775 169.92 
L 180.675 169.92 
L 181.3725 169.92 
L 182.07 169.92 
L 182.7675 169.92 
L 183.465 169.92 
L 184.1625 169.92 
L 184.86 169.92 
L 185.5575 169.92 
L 186.255 169.92 
L 186.9525 169.92 
L 187.65 169.92 
L 188.3475 169.92 
L 189.045 169.92 
L 189.7425 169.92 
L 190.44 169.92 
L 191.1375 169.92 
L 191.835 169.92 
L 192.5325 169.92 
L 193.23 169.92 
L 193.9275 169.92 
L 194.625 169.92 
L 195.3225 169.92 
L 196.02 169.92 
L 196.7175 169.92 
L 197.415 169.92 
L 198.1125 169.92 
L 198.81 169.92 
L 199.5075 169.92 
L 200.205 169.92 
L 200.9025 169.92 
L 201.6 169.92 
L 202.2975 169.92 
L 202.995 169.92 
L 203.6925 169.92 
L 204.39 169.92 
L 205.0875 169.92 
L 205.785 169.92 
L 206.4825 169.92 
L 207.18 169.92 
L 207.8775 169.92 
L 208.575 169.92 
L 209.2725 169.92 
L 209.97 169.92 
L 210.6675 169.92 
L 211.365 169.92 
L 212.0625 169.92 
L 212.76 169.92 
L 213.4575 169.92 
L 214.155 169.92 
L 214.8525 169.92 
L 215.55 169.92 
L 216.2475 169.92 
L 216.945 169.92 
L 217.6425 169.92 
L 218.34 169.92 
L 219.0375 169.92 
L 219.735 169.92 
L 220.4325 169.92 
L 221.13 169.92 
L 221.8275 169.92 
L 222.525 169.92 
L 223.2225 169.92 
L 223.92 169.92 
L 224.6175 169.92 
L 225.315 169.92 
L 226.0125 169.92 
L 226.71 169.92 
L 227.4075 169.92 
L 228.105 169.92 
L 228.8025 169.92 
L 229.5 169.92 
L 230.1975 169.92 
L 230.895 169.92 
L 231.5925 169.92 
L 232.29 169.92 
L 232.9875 169.92 
L 233.685 169.92 
L 234.3825 169.92 
L 235.08 169.92 
L 235.7775 169.92 
L 236.475 169.92 
L 237.1725 169.92 
L 237.87 169.92 
L 238.5675 169.92 
L 239.265 169.92 
L 239.9625 169.92 
L 240.66 169.92 
L 241.3575 169.92 
L 242.055 169.92 
L 242.7525 169.92 
L 243.45 169.92 
L 244.1475 169.92 
L 244.845 169.92 
L 245.5425 169.92 
L 246.24 169.92 
L 246.9375 169.92 
L 247.635 169.92 
L 248.3325 169.92 
L 249.03 169.92 
L 249.7275 169.92 
L 250.425 169.92 
L 251.1225 169.92 
L 251.82 169.92 
L 252.5175 169.92 
L 253.215 169.92 
L 253.9125 169.92 
L 254.61 169.92 
L 255.3075 169.92 
L 256.005 169.92 
L 256.7025 169.92 
L 257.4 169.92 
L 258.0975 169.92 
L 258.795 169.92 
L 259.4925 169.92 
L 260.19 169.92 
L 260.8875 169.92 
L 261.585 169.92 
L 262.2825 169.92 
L 262.98 169.92 
L 263.6775 169.92 
L 264.375 169.92 
L 265.0725 169.92 
L 265.77 169.92 
L 266.4675 169.92 
L 267.165 169.92 
L 267.8625 169.92 
L 268.56 169.92 
L 269.2575 169.92 
L 269.955 169.92 
L 270.6525 169.92 
L 271.35 169.92 
L 272.0475 169.92 
L 272.745 169.92 
L 273.4425 169.92 
L 274.14 169.92 
L 274.8375 169.92 
L 275.535 169.92 
L 276.2325 169.92 
L 276.93 169.92 
L 277.6275 169.92 
L 278.325 169.92 
L 279.0225 169.92 
L 279.72 169.92 
L 280.4175 169.92 
L 281.115 169.92 
L 281.8125 169.92 
L 282.51 169.92 
L 283.2075 169.92 
L 283.905 169.92 
L 284.6025 169.92 
L 285.3 169.92 
L 285.9975 169.92 
L 286.695 169.92 
L 287.3925 169.92 
L 288.09 169.92 
L 288.7875 169.92 
L 289.485 169.92 
L 290.1825 169.92 
L 290.88 169.92 
L 291.5775 169.92 
L 292.275 169.92 
L 292.9725 169.92 
L 293.67 169.92 
L 294.3675 169.92 
L 295.065 169.92 
L 295.7625 169.92 
L 296.46 169.92 
L 297.1575 169.92 
L 297.855 169.92 
L 298.5525 169.92 
L 299.25 169.92 
L 299.9475 169.92 
L 300.645 169.92 
L 301.3425 169.92 
L 302.04 169.92 
L 302.7375 169.92 
L 303.435 169.92 
L 304.1325 169.92 
L 304.83 169.92 
L 305.5275 169.92 
L 306.225 169.92 
L 306.9225 169.92 
L 307.62 169.92 
L 308.3175 169.92 
L 309.015 169.92 
L 309.7125 169.92 
L 310.41 169.92 
L 311.1075 169.92 
L 311.805 169.92 
L 312.5025 169.92 
L 313.2 169.92 
L 313.8975 169.92 
L 314.595 169.92 
L 315.2925 169.92 
L 315.99 169.92 
L 316.6875 169.92 
L 317.385 169.92 
L 318.0825 169.92 
L 318.78 169.92 
L 319.4775 169.92 
L 320.175 169.92 
L 320.8725 169.92 
L 321.57 169.92 
L 322.2675 169.92 
L 322.965 169.92 
L 323.6625 169.92 
L 324.36 169.92 
L 325.0575 169.92 
L 325.755 169.92 
L 326.4525 169.92 
L 327.15 169.92 
L 327.8475 169.92 
L 328.545 169.92 
L 329.2425 169.92 
L 329.94 169.92 
L 330.6375 169.92 
L 331.335 169.92 
L 332.0325 169.92 
L 332.73 169.92 
L 333.4275 169.92 
L 334.125 169.92 
L 334.8225 169.92 
L 335.52 169.92 
L 336.2175 169.92 
L 336.915 169.92 
L 337.6125 169.92 
L 338.31 169.92 
L 339.0075 169.92 
L 339.705 169.92 
L 340.4025 169.92 
L 341.1 169.92 
L 341.7975 169.92 
L 342.495 169.92 
L 343.1925 169.92 
L 343.89 169.92 
L 344.5875 169.92 
L 345.285 169.92 
L 345.9825 169.92 
L 346.68 169.92 
L 347.3775 169.92 
L 348.075 169.92 
L 348.7725 169.92 
L 349.47 169.92 
L 350.1675 169.92 
L 350.865 169.92 
L 351.5625 169.92 
L 352.26 169.92 
L 352.9575 169.92 
L 353.655 169.92 
L 354.3525 169.92 
L 355.05 169.92 
L 355.7475 169.92 
L 356.445 169.92 
L 357.1425 169.92 
L 357.84 169.92 
L 358.5375 169.92 
L 359.235 169.92 
L 359.9325 169.92 
L 360.63 169.92 
L 361.3275 169.92 
L 362.025 169.92 
L 362.7225 169.92 
L 363.42 169.92 
L 364.1175 169.92 
L 364.815 169.92 
L 365.5125 169.92 
L 366.21 169.92 
L 366.9075 169.92 
L 367.605 169.92 
L 368.3025 169.92 
L 369 169.92 
L 369.6975 169.92 
L 370.395 169.92 
L 371.0925 169.92 
L 371.79 169.92 
L 372.4875 169.92 
L 373.185 169.92 
L 373.8825 169.92 
L 374.58 169.92 
L 375.2775 169.92 
L 375.975 169.92 
L 376.6725 169.92 
L 377.37 169.92 
L 378.0675 169.92 
L 378.765 169.92 
L 379.4625 169.92 
L 380.16 169.92 
L 380.8575 169.92 
L 381.555 169.92 
L 382.2525 169.92 
L 382.95 169.92 
L 383.6475 169.92 
L 384.345 169.92 
L 385.0425 169.92 
L 385.74 169.92 
L 386.4375 169.92 
L 387.135 169.92 
L 387.8325 169.92 
L 388.53 169.92 
L 389.2275 169.92 
L 389.925 169.92 
L 390.6225 169.92 
L 391.32 169.92 
L 392.0175 169.92 
L 392.715 169.92 
L 393.4125 169.92 
L 394.11 169.92 
L 394.8075 169.92 
L 395.505 169.92 
L 396.2025 169.92 
L 396.9 169.92 
L 397.5975 169.92 
L 398.295 169.92 
L 398.9925 169.92 
L 399.69 169.92 
L 400.3875 169.92 
L 401.085 169.92 
L 401.7825 169.92 
L 402.48 169.92 
L 403.1775 169.92 
L 403.875 169.92 
L 404.5725 169.92 
L 405.27 169.92 
L 405.9675 169.92 
L 406.665 169.92 
L 407.3625 169.92 
L 408.06 169.92 
L 408.7575 169.92 
L 409.455 169.92 
L 410.1525 169.92 
L 410.85 169.92 
L 411.5475 169.92 
L 412.245 169.92 
L 412.9425 169.92 
L 413.64 169.92 
L 414.3375 169.92 
L 415.035 169.92 
L 415.7325 169.92 
L 416.43 169.92 
L 417.1275 169.92 
L 417.825 169.92 
L 418.5225 169.92 
L 419.22 169.92 
L 419.9175 169.92 
L 420.615 169.92 
L 421.3125 169.92 
L 422.01 169.92 
L 422.7075 169.92 
L 423.405 169.92 
L 424.1025 169.92 
L 424.8 169.92 
L 425.4975 169.92 
L 426.195 169.92 
L 426.8925 169.92 
L 427.59 169.92 
L 428.2875 169.92 
L 428.985 169.92 
L 429.6825 169.92 
L 430.38 169.92 
L 431.0775 169.92 
L 431.775 169.92 
L 432.4725 169.92 
L 433.17 169.92 
L 433.8675 169.92 
L 434.565 169.92 
L 435.2625 169.92 
L 435.96 169.92 
L 436.6575 169.92 
L 437.355 169.92 
L 438.0525 169.92 
L 438.75 169.92 
L 439.4475 169.92 
L 440.145 169.92 
L 440.8425 169.92 
L 441.54 169.92 
L 442.2375 169.92 
L 442.935 169.92 
L 443.6325 169.92 
L 444.33 169.92 
L 445.0275 169.92 
L 445.725 169.92 
L 446.4225 169.92 
L 447.12 169.92 
L 447.8175 169.92 
L 448.515 169.92 
L 449.2125 169.92 
L 449.91 169.92 
L 450.6075 169.92 
L 451.305 169.92 
L 452.0025 169.92 
L 452.7 169.92 
L 453.3975 169.92 
L 454.095 169.92 
L 454.7925 169.92 
L 455.49 169.92 
L 456.1875 169.92 
L 456.885 169.92 
L 457.5825 169.92 
L 458.28 169.92 
L 458.9775 169.92 
L 459.675 169.92 
L 460.3725 169.92 
L 461.07 169.92 
L 461.7675 169.92 
L 462.465 169.92 
L 463.1625 169.92 
L 463.86 169.92 
L 464.5575 169.92 
L 465.255 169.92 
L 465.9525 169.92 
L 466.65 169.92 
L 467.3475 169.92 
L 468.045 169.92 
L 468.7425 169.92 
L 469.44 169.92 
L 470.1375 169.92 
L 470.835 169.92 
L 471.5325 169.92 
L 472.23 169.92 
L 472.9275 169.92 
L 473.625 169.92 
L 474.3225 169.92 
L 475.02 169.92 
L 475.7175 169.92 
L 476.415 169.92 
L 477.1125 169.92 
L 477.81 169.92 
L 478.5075 169.92 
L 479.205 169.92 
L 479.9025 169.92 
L 480.6 169.92 
L 481.2975 169.92 
L 481.995 169.92 
L 482.6925 169.92 
L 483.39 169.92 
L 484.0875 169.92 
L 484.785 169.92 
L 485.4825 169.92 
L 486.18 169.92 
L 486.8775 169.92 
L 487.575 169.92 
L 488.2725 169.92 
L 488.97 169.92 
L 489.6675 169.92 
L 490.365 169.92 
L 491.0625 169.92 
L 491.76 169.92 
L 492.4575 169.92 
L 493.155 169.92 
L 493.8525 169.92 
L 494.55 169.92 
L 495.2475 169.92 
L 495.945 169.92 
L 496.6425 169.92 
L 497.34 169.92 
L 498.0375 169.92 
L 498.735 169.92 
L 499.4325 169.92 
L 500.13 169.92 
L 500.8275 169.92 
L 501.525 169.92 
L 502.2225 169.92 
L 502.92 169.92 
L 503.6175 169.92 
L 504.315 169.92 
L 505.0125 169.92 
L 505.71 169.92 
L 506.4075 169.92 
L 507.105 169.92 
L 507.8025 169.92 
L 508.5 169.92 
L 509.1975 169.92 
L 509.895 169.92 
L 510.5925 169.92 
L 511.29 169.92 
L 511.9875 169.92 
L 512.685 169.92 
L 513.3825 169.92 
L 514.08 169.92 
L 514.7775 169.92 
L 515.475 169.92 
L 516.1725 169.92 
L 516.87 169.92 
L 517.5675 169.92 
L 518.265 169.92 
L 518.9625 169.92 
L 519.66 169.92 
L 520.3575 169.92 
L 521.055 169.92 
L 521.7525 169.92 
L 522.45 169.92 
L 523.1475 169.92 
L 523.845 169.92 
L 524.5425 169.92 
L 525.24 169.92 
L 525.9375 169.92 
L 526.635 169.92 
L 527.3325 169.92 
L 528.03 169.92 
L 528.7275 169.92 
L 529.425 169.92 
L 530.1225 169.92 
L 530.82 169.92 
L 531.5175 169.92 
L 532.215 169.92 
L 532.9125 169.92 
L 533.61 169.92 
L 534.3075 169.92 
L 535.005 169.92 
L 535.7025 169.92 
L 536.4 169.92 
L 537.0975 169.92 
L 537.795 169.92 
L 538.4925 169.92 
L 539.19 169.92 
L 539.8875 169.92 
L 540.585 169.92 
L 541.2825 169.92 
L 541.98 169.92 
L 542.6775 169.92 
L 543.375 169.92 
L 544.0725 169.92 
L 544.77 169.92 
L 545.4675 169.92 
L 546.165 169.92 
L 546.8625 169.92 
L 547.56 169.92 
L 548.2575 169.92 
L 548.955 169.92 
L 549.6525 169.92 
L 550.35 169.92 
L 551.0475 169.92 
L 551.745 169.92 
L 552.4425 169.92 
L 553.14 169.92 
L 553.8375 169.92 
L 554.535 169.92 
L 555.2325 169.92 
L 555.93 169.92 
L 556.6275 169.92 
L 557.325 169.92 
L 558.0225 169.92 
L 558.72 169.92 
L 559.4175 169.92 
L 560.115 169.92 
L 560.8125 169.92 
L 561.51 169.92 
L 562.2075 169.92 
L 562.905 169.92 
L 563.6025 169.92 
L 564.3 169.92 
L 564.9975 169.92 
L 565.695 169.92 
L 566.3925 169.92 
L 567.09 169.92 
L 567.7875 169.92 
L 568.485 169.92 
L 569.1825 169.92 
L 569.88 169.92 
L 570.5775 169.92 
L 571.275 169.92 
L 571.9725 169.92 
L 572.67 169.92 
L 573.3675 169.92 
L 574.065 169.92 
L 574.7625 169.92 
L 575.46 169.92 
L 576.1575 169.92 
L 576.855 169.92 
L 577.5525 169.92 
L 578.25 169.92 
L 578.9475 169.92 
L 579.645 169.92 
L 580.3425 169.92 
L 581.04 169.92 
L 581.7375 169.92 
L 582.435 169.92 
L 583.1325 169.92 
L 583.83 169.92 
L 584.5275 169.92 
L 585.225 169.92 
L 585.9225 169.92 
L 586.62 169.92 
L 587.3175 169.92 
L 588.015 169.92 
L 588.7125 169.92 
L 589.41 169.92 
L 590.1075 169.92 
L 590.805 169.92 
L 591.5025 169.92 
L 592.2 169.92 
L 592.8975 169.92 
L 593.595 169.92 
L 594.2925 169.92 
L 594.99 169.92 
L 595.6875 169.92 
L 596.385 169.92 
L 597.0825 169.92 
L 597.78 169.92 
L 598.4775 169.92 
L 599.175 169.92 
L 599.8725 169.92 
L 600.57 169.92 
L 601.2675 169.92 
L 601.965 169.92 
L 602.6625 169.92 
L 603.36 169.92 
L 604.0575 169.92 
L 604.755 169.92 
L 605.4525 169.92 
L 606.15 169.92 
L 606.8475 169.92 
L 607.545 169.92 
L 608.2425 169.92 
L 608.94 169.92 
L 609.6375 169.92 
L 610.335 169.92 
L 611.0325 169.92 
L 611.73 169.92 
L 612.4275 169.92 
L 613.125 169.92 
L 613.8225 169.92 
L 614.52 169.92 
L 615.2175 169.92 
L 615.915 169.92 
L 616.6125 169.92 
L 617.31 169.92 
L 618.0075 169.92 
L 618.705 169.92 
L 619.4025 169.92 
L 620.1 169.92 
L 620.7975 169.92 
L 621.495 169.92 
L 622.1925 169.92 
L 622.89 169.92 
L 623.5875 169.92 
L 624.285 169.92 
L 624.9825 169.92 
L 625.68 169.92 
L 626.3775 169.92 
L 627.075 169.92 
L 627.7725 169.92 
L 628.47 169.92 
L 629.1675 169.92 
L 629.865 169.92 
L 630.5625 169.92 
L 631.26 169.92 
L 631.9575 169.92 
L 632.655 169.92 
L 633.3525 169.92 
L 634.05 169.92 
L 634.7475 169.92 
L 635.445 169.92 
L 636.1425 169.92 
L 636.84 169.92 
L 637.5375 169.92 
L 638.235 169.92 
L 638.9325 169.92 
L 639.63 169.92 
L 640.3275 169.92 
L 641.025 169.92 
L 641.7225 169.92 
L 642.42 169.92 
L 643.1175 169.92 
L 643.815 169.92 
L 644.5125 169.92 
L 645.21 169.92 
L 645.9075 169.92 
L 646.605 169.92 
L 646.605 169.92 
L 646.605 169.92 
L 645.9075 169.920634 
L 645.21 169.922123 
L 644.5125 169.924684 
L 643.815 169.928529 
L 643.1175 169.933864 
L 642.42 169.940891 
L 641.7225 169.949801 
L 641.025 169.960778 
L 640.3275 169.973997 
L 639.63 169.989622 
L 638.9325 170.007808 
L 638.235 170.028696 
L 637.5375 170.052417 
L 636.84 170.079089 
L 636.1425 170.108814 
L 635.445 170.141683 
L 634.7475 170.177772 
L 634.05 170.217141 
L 633.3525 170.259837 
L 632.655 170.305889 
L 631.9575 170.355312 
L 631.26 170.408105 
L 630.5625 170.464251 
L 629.865 170.523718 
L 629.1675 170.586456 
L 628.47 170.6524 
L 627.7725 170.721472 
L 627.075 170.793575 
L 626.3775 170.868598 
L 625.68 170.946416 
L 624.9825 171.02689 
L 624.285 171.109865 
L 623.5875 171.195174 
L 622.89 171.282637 
L 622.1925 171.372063 
L 621.495 171.463247 
L 620.7975 171.555975 
L 620.1 171.650024 
L 619.4025 171.745158 
L 618.705 171.841136 
L 618.0075 171.937708 
L 617.31 172.034619 
L 616.6125 172.131607 
L 615.915 172.228406 
L 615.2175 172.324744 
L 614.52 172.42035 
L 613.8225 172.51495 
L 613.125 172.608268 
L 612.4275 172.70003 
L 611.73 172.789962 
L 611.0325 172.877794 
L 610.335 172.96326 
L 609.6375 173.046095 
L 608.94 173.126043 
L 608.2425 173.202854 
L 607.545 173.276283 
L 606.8475 173.346096 
L 606.15 173.412067 
L 605.4525 173.47398 
L 604.755 173.531631 
L 604.0575 173.584827 
L 603.36 173.633387 
L 602.6625 173.677143 
L 601.965 173.715942 
L 601.2675 173.749645 
L 600.57 173.778127 
L 599.8725 173.801279 
L 599.175 173.819008 
L 598.4775 173.831238 
L 597.78 173.837907 
L 597.0825 173.838973 
L 596.385 173.834407 
L 595.6875 173.824202 
L 594.99 173.808363 
L 594.2925 173.786916 
L 593.595 173.759902 
L 592.8975 173.727379 
L 592.2 173.689423 
L 591.5025 173.646125 
L 590.805 173.597592 
L 590.1075 173.543947 
L 589.41 173.485329 
L 588.7125 173.421892 
L 588.015 173.353801 
L 587.3175 173.281239 
L 586.62 173.204399 
L 585.9225 173.123486 
L 585.225 173.038719 
L 584.5275 172.950324 
L 583.83 172.85854 
L 583.1325 172.763613 
L 582.435 172.665798 
L 581.7375 172.565357 
L 581.04 172.462556 
L 580.3425 172.357669 
L 579.645 172.250973 
L 578.9475 172.142747 
L 578.25 172.033273 
L 577.5525 171.922835 
L 576.855 171.811716 
L 576.1575 171.700197 
L 575.46 171.588557 
L 574.7625 171.477075 
L 574.065 171.366022 
L 573.3675 171.255666 
L 572.67 171.146269 
L 571.9725 171.038084 
L 571.275 170.931359 
L 570.5775 170.826331 
L 569.88 170.723228 
L 569.1825 170.622269 
L 568.485 170.52366 
L 567.7875 170.427595 
L 567.09 170.334256 
L 566.3925 170.243814 
L 565.695 170.156422 
L 564.9975 170.072223 
L 564.3 169.991341 
L 563.6025 169.91389 
L 562.905 169.839964 
L 562.2075 169.769643 
L 561.51 169.702993 
L 560.8125 169.640061 
L 560.115 169.58088 
L 559.4175 169.525465 
L 558.72 169.473817 
L 558.0225 169.42592 
L 557.325 169.381743 
L 556.6275 169.341237 
L 555.93 169.30434 
L 555.2325 169.270976 
L 554.535 169.241052 
L 553.8375 169.214463 
L 553.14 169.191089 
L 552.4425 169.170798 
L 551.745 169.153447 
L 551.0475 169.138879 
L 550.35 169.126927 
L 549.6525 169.117415 
L 548.955 169.110157 
L 548.2575 169.104959 
L 547.56 169.101618 
L 546.8625 169.099927 
L 546.165 169.099671 
L 545.4675 169.100631 
L 544.77 169.102585 
L 544.0725 169.105308 
L 543.375 169.108573 
L 542.6775 169.112151 
L 541.98 169.115815 
L 541.2825 169.119339 
L 540.585 169.122499 
L 539.8875 169.125075 
L 539.19 169.126849 
L 538.4925 169.12761 
L 537.795 169.127154 
L 537.0975 169.125281 
L 536.4 169.121803 
L 535.7025 169.116536 
L 535.005 169.10931 
L 534.3075 169.099963 
L 533.61 169.088344 
L 532.9125 169.074315 
L 532.215 169.057749 
L 531.5175 169.038534 
L 530.82 169.016569 
L 530.1225 168.991769 
L 529.425 168.964062 
L 528.7275 168.933393 
L 528.03 168.899719 
L 527.3325 168.863016 
L 526.635 168.823272 
L 525.9375 168.780494 
L 525.24 168.734702 
L 524.5425 168.685933 
L 523.845 168.634239 
L 523.1475 168.579689 
L 522.45 168.522366 
L 521.7525 168.462369 
L 521.055 168.39981 
L 520.3575 168.334817 
L 519.66 168.267531 
L 518.9625 168.198109 
L 518.265 168.126716 
L 517.5675 168.053534 
L 516.87 167.978754 
L 516.1725 167.902578 
L 515.475 167.82522 
L 514.7775 167.746902 
L 514.08 167.667853 
L 513.3825 167.588314 
L 512.685 167.508528 
L 511.9875 167.428748 
L 511.29 167.349228 
L 510.5925 167.270229 
L 509.895 167.192013 
L 509.1975 167.114846 
L 508.5 167.038992 
L 507.8025 166.964718 
L 507.105 166.892287 
L 506.4075 166.821962 
L 505.71 166.754002 
L 505.0125 166.688662 
L 504.315 166.626191 
L 503.6175 166.566833 
L 502.92 166.510823 
L 502.2225 166.458392 
L 501.525 166.409756 
L 500.8275 166.365127 
L 500.13 166.324703 
L 499.4325 166.288672 
L 498.735 166.257208 
L 498.0375 166.230474 
L 497.34 166.208619 
L 496.6425 166.191777 
L 495.945 166.180067 
L 495.2475 166.173596 
L 494.55 166.172451 
L 493.8525 166.176706 
L 493.155 166.186417 
L 492.4575 166.201624 
L 491.76 166.22235 
L 491.0625 166.248601 
L 490.365 166.280366 
L 489.6675 166.317618 
L 488.97 166.360311 
L 488.2725 166.408384 
L 487.575 166.461758 
L 486.8775 166.520339 
L 486.18 166.584015 
L 485.4825 166.652659 
L 484.785 166.726131 
L 484.0875 166.804273 
L 483.39 166.886914 
L 482.6925 166.973869 
L 481.995 167.064941 
L 481.2975 167.15992 
L 480.6 167.258584 
L 479.9025 167.360701 
L 479.205 167.466029 
L 478.5075 167.574317 
L 477.81 167.685304 
L 477.1125 167.798725 
L 476.415 167.914307 
L 475.7175 168.031771 
L 475.02 168.150836 
L 474.3225 168.271214 
L 473.625 168.392619 
L 472.9275 168.514761 
L 472.23 168.637351 
L 471.5325 168.7601 
L 470.835 168.882722 
L 470.1375 169.004933 
L 469.44 169.126454 
L 468.7425 169.24701 
L 468.045 169.366332 
L 467.3475 169.484158 
L 466.65 169.600235 
L 465.9525 169.714316 
L 465.255 169.826165 
L 464.5575 169.935558 
L 463.86 170.042279 
L 463.1625 170.146126 
L 462.465 170.246909 
L 461.7675 170.34445 
L 461.07 170.438588 
L 460.3725 170.529172 
L 459.675 170.616069 
L 458.9775 170.69916 
L 458.28 170.77834 
L 457.5825 170.853524 
L 456.885 170.924638 
L 456.1875 170.991627 
L 455.49 171.054453 
L 454.7925 171.113093 
L 454.095 171.167539 
L 453.3975 171.217802 
L 452.7 171.263907 
L 452.0025 171.305896 
L 451.305 171.343826 
L 450.6075 171.37777 
L 449.91 171.407815 
L 449.2125 171.434062 
L 448.515 171.456626 
L 447.8175 171.475638 
L 447.12 171.491237 
L 446.4225 171.503578 
L 445.725 171.512824 
L 445.0275 171.519152 
L 444.33 171.522746 
L 443.6325 171.523801 
L 442.935 171.522517 
L 442.2375 171.519104 
L 441.54 171.513778 
L 440.8425 171.506758 
L 440.145 171.498269 
L 439.4475 171.48854 
L 438.75 171.477801 
L 438.0525 171.466283 
L 437.355 171.454218 
L 436.6575 171.441837 
L 435.96 171.429371 
L 435.2625 171.417045 
L 434.565 171.405082 
L 433.8675 171.393702 
L 433.17 171.383116 
L 432.4725 171.373531 
L 431.775 171.365146 
L 431.0775 171.35815 
L 430.38 171.352726 
L 429.6825 171.349045 
L 428.985 171.347267 
L 428.2875 171.347541 
L 427.59 171.350006 
L 426.8925 171.354785 
L 426.195 171.36199 
L 425.4975 171.371719 
L 424.8 171.384055 
L 424.1025 171.399067 
L 423.405 171.41681 
L 422.7075 171.437321 
L 422.01 171.460625 
L 421.3125 171.48673 
L 420.615 171.515627 
L 419.9175 171.547294 
L 419.22 171.581692 
L 418.5225 171.618767 
L 417.825 171.658449 
L 417.1275 171.700654 
L 416.43 171.745281 
L 415.7325 171.792217 
L 415.035 171.841335 
L 414.3375 171.892493 
L 413.64 171.945537 
L 412.9425 172.0003 
L 412.245 172.056603 
L 411.5475 172.114256 
L 410.85 172.173061 
L 410.1525 172.232806 
L 409.455 172.293275 
L 408.7575 172.354239 
L 408.06 172.415467 
L 407.3625 172.476718 
L 406.665 172.537748 
L 405.9675 172.598308 
L 405.27 172.658145 
L 404.5725 172.717006 
L 403.875 172.774634 
L 403.1775 172.830773 
L 402.48 172.885169 
L 401.7825 172.937567 
L 401.085 172.987718 
L 400.3875 173.035375 
L 399.69 173.080297 
L 398.9925 173.122246 
L 398.295 173.160993 
L 397.5975 173.196318 
L 396.9 173.228007 
L 396.2025 173.255857 
L 395.505 173.279675 
L 394.8075 173.299278 
L 394.11 173.314497 
L 393.4125 173.325174 
L 392.715 173.331165 
L 392.0175 173.332339 
L 391.32 173.328581 
L 390.6225 173.319789 
L 389.925 173.305878 
L 389.2275 173.28678 
L 388.53 173.262439 
L 387.8325 173.232819 
L 387.135 173.1979 
L 386.4375 173.157678 
L 385.74 173.112166 
L 385.0425 173.061395 
L 384.345 173.005412 
L 383.6475 172.944281 
L 382.95 172.878081 
L 382.2525 172.806911 
L 381.555 172.730883 
L 380.8575 172.650126 
L 380.16 172.564783 
L 379.4625 172.475014 
L 378.765 172.380991 
L 378.0675 172.282902 
L 377.37 172.180946 
L 376.6725 172.075335 
L 375.975 171.966293 
L 375.2775 171.854056 
L 374.58 171.738867 
L 373.8825 171.620981 
L 373.185 171.500659 
L 372.4875 171.378172 
L 371.79 171.253796 
L 371.0925 171.127812 
L 370.395 171.000505 
L 369.6975 170.872166 
L 369 170.743085 
L 368.3025 170.613556 
L 367.605 170.483872 
L 366.9075 170.354326 
L 366.21 170.225208 
L 365.5125 170.096807 
L 364.815 169.969406 
L 364.1175 169.843286 
L 363.42 169.71872 
L 362.7225 169.595974 
L 362.025 169.475308 
L 361.3275 169.356973 
L 360.63 169.241209 
L 359.9325 169.128248 
L 359.235 169.018308 
L 358.5375 168.911599 
L 357.84 168.808316 
L 357.1425 168.70864 
L 356.445 168.612741 
L 355.7475 168.520772 
L 355.05 168.432872 
L 354.3525 168.349166 
L 353.655 168.269763 
L 352.9575 168.194754 
L 352.26 168.124216 
L 351.5625 168.058209 
L 350.865 167.996777 
L 350.1675 167.939946 
L 349.47 167.887726 
L 348.7725 167.840113 
L 348.075 167.797083 
L 347.3775 167.758597 
L 346.68 167.724602 
L 345.9825 167.695026 
L 345.285 167.669786 
L 344.5875 167.648782 
L 343.89 167.631898 
L 343.1925 167.619007 
L 342.495 167.609968 
L 341.7975 167.604628 
L 341.1 167.602822 
L 340.4025 167.604373 
L 339.705 167.609095 
L 339.0075 167.616792 
L 338.31 167.627261 
L 337.6125 167.640289 
L 336.915 167.655658 
L 336.2175 167.673143 
L 335.52 167.692516 
L 334.8225 167.713543 
L 334.125 167.735988 
L 333.4275 167.759615 
L 332.73 167.784185 
L 332.0325 167.809459 
L 331.335 167.835202 
L 330.6375 167.861177 
L 329.94 167.887154 
L 329.2425 167.912906 
L 328.545 167.93821 
L 327.8475 167.96285 
L 327.15 167.986618 
L 326.4525 168.009311 
L 325.755 168.030739 
L 325.0575 168.050718 
L 324.36 168.069075 
L 323.6625 168.085649 
L 322.965 168.10029 
L 322.2675 168.11286 
L 321.57 168.123235 
L 320.8725 168.131304 
L 320.175 168.13697 
L 319.4775 168.14015 
L 318.78 168.140775 
L 318.0825 168.138793 
L 317.385 168.134166 
L 316.6875 168.12687 
L 315.99 168.1169 
L 315.2925 168.104263 
L 314.595 168.088985 
L 313.8975 168.071103 
L 313.2 168.050674 
L 312.5025 168.027767 
L 311.805 168.002467 
L 311.1075 167.974874 
L 310.41 167.9451 
L 309.7125 167.913273 
L 309.015 167.879533 
L 308.3175 167.844034 
L 307.62 167.80694 
L 306.9225 167.768427 
L 306.225 167.728681 
L 305.5275 167.687901 
L 304.83 167.646291 
L 304.1325 167.604066 
L 303.435 167.561447 
L 302.7375 167.518662 
L 302.04 167.475944 
L 301.3425 167.433532 
L 300.645 167.391667 
L 299.9475 167.350593 
L 299.25 167.310557 
L 298.5525 167.271805 
L 297.855 167.234583 
L 297.1575 167.199136 
L 296.46 167.165706 
L 295.7625 167.134533 
L 295.065 167.105851 
L 294.3675 167.079889 
L 293.67 167.05687 
L 292.9725 167.03701 
L 292.275 167.020515 
L 291.5775 167.007585 
L 290.88 166.998407 
L 290.1825 166.993159 
L 289.485 166.992007 
L 288.7875 166.995104 
L 288.09 167.002592 
L 287.3925 167.014599 
L 286.695 167.031236 
L 285.9975 167.052602 
L 285.3 167.078782 
L 284.6025 167.109843 
L 283.905 167.145836 
L 283.2075 167.186797 
L 282.51 167.232746 
L 281.8125 167.283685 
L 281.115 167.3396 
L 280.4175 167.40046 
L 279.72 167.466218 
L 279.0225 167.53681 
L 278.325 167.612154 
L 277.6275 167.692154 
L 276.93 167.776697 
L 276.2325 167.865655 
L 275.535 167.958882 
L 274.8375 168.056222 
L 274.14 168.1575 
L 273.4425 168.26253 
L 272.745 168.371112 
L 272.0475 168.483034 
L 271.35 168.598073 
L 270.6525 168.715993 
L 269.955 168.836549 
L 269.2575 168.959487 
L 268.56 169.084544 
L 267.8625 169.211452 
L 267.165 169.339932 
L 266.4675 169.469703 
L 265.77 169.600478 
L 265.0725 169.731966 
L 264.375 169.863876 
L 263.6775 169.995913 
L 262.98 170.127781 
L 262.2825 170.259188 
L 261.585 170.38984 
L 260.8875 170.519448 
L 260.19 170.647725 
L 259.4925 170.774391 
L 258.795 170.899169 
L 258.0975 171.02179 
L 257.4 171.141993 
L 256.7025 171.259525 
L 256.005 171.374142 
L 255.3075 171.48561 
L 254.61 171.593708 
L 253.9125 171.698226 
L 253.215 171.798963 
L 252.5175 171.895737 
L 251.82 171.988376 
L 251.1225 172.076724 
L 250.425 172.160637 
L 249.7275 172.239991 
L 249.03 172.314674 
L 248.3325 172.384591 
L 247.635 172.449664 
L 246.9375 172.509831 
L 246.24 172.565047 
L 245.5425 172.615283 
L 244.845 172.660528 
L 244.1475 172.700786 
L 243.45 172.736079 
L 242.7525 172.766444 
L 242.055 172.791937 
L 241.3575 172.812626 
L 240.66 172.828598 
L 239.9625 172.839952 
L 239.265 172.846805 
L 238.5675 172.849284 
L 237.87 172.847534 
L 237.1725 172.841709 
L 236.475 172.831977 
L 235.7775 172.818517 
L 235.08 172.801519 
L 234.3825 172.781182 
L 233.685 172.757715 
L 232.9875 172.731334 
L 232.29 172.702264 
L 231.5925 172.670734 
L 230.895 172.63698 
L 230.1975 172.60124 
L 229.5 172.563758 
L 228.8025 172.524779 
L 228.105 172.48455 
L 227.4075 172.443316 
L 226.71 172.401324 
L 226.0125 172.358817 
L 225.315 172.316037 
L 224.6175 172.273222 
L 223.92 172.230604 
L 223.2225 172.188411 
L 222.525 172.146862 
L 221.8275 172.106171 
L 221.13 172.066542 
L 220.4325 172.028172 
L 219.735 171.991244 
L 219.0375 171.955935 
L 218.34 171.922407 
L 217.6425 171.890811 
L 216.945 171.861287 
L 216.2475 171.833959 
L 215.55 171.808939 
L 214.8525 171.786325 
L 214.155 171.766199 
L 213.4575 171.748629 
L 212.76 171.733668 
L 212.0625 171.721353 
L 211.365 171.711707 
L 210.6675 171.704736 
L 209.97 171.700431 
L 209.2725 171.698767 
L 208.575 171.699705 
L 207.8775 171.703188 
L 207.18 171.709148 
L 206.4825 171.717499 
L 205.785 171.728141 
L 205.0875 171.740963 
L 204.39 171.755838 
L 203.6925 171.772627 
L 202.995 171.791177 
L 202.2975 171.811327 
L 201.6 171.832902 
L 200.9025 171.855718 
L 200.205 171.879581 
L 199.5075 171.904289 
L 198.81 171.929632 
L 198.1125 171.955393 
L 197.415 171.98135 
L 196.7175 172.007274 
L 196.02 172.032934 
L 195.3225 172.058094 
L 194.625 172.082518 
L 193.9275 172.105967 
L 193.23 172.128202 
L 192.5325 172.148988 
L 191.835 172.168088 
L 191.1375 172.18527 
L 190.44 172.200305 
L 189.7425 172.21297 
L 189.045 172.223046 
L 188.3475 172.230325 
L 187.65 172.234601 
L 186.9525 172.235681 
L 186.255 172.233379 
L 185.5575 172.227522 
L 184.86 172.217945 
L 184.1625 172.204496 
L 183.465 172.187037 
L 182.7675 172.165442 
L 182.07 172.139598 
L 181.3725 172.109407 
L 180.675 172.074786 
L 179.9775 172.035668 
L 179.28 171.991999 
L 178.5825 171.943744 
L 177.885 171.890882 
L 177.1875 171.83341 
L 176.49 171.771341 
L 175.7925 171.704702 
L 175.095 171.633541 
L 174.3975 171.557919 
L 173.7 171.477915 
L 173.0025 171.393623 
L 172.305 171.305155 
L 171.6075 171.212636 
L 170.91 171.116208 
L 170.2125 171.016026 
L 169.515 170.912262 
L 168.8175 170.805099 
L 168.12 170.694735 
L 167.4225 170.581378 
L 166.725 170.465251 
L 166.0275 170.346586 
L 165.33 170.225624 
L 164.6325 170.102619 
L 163.935 169.977829 
L 163.2375 169.851524 
L 162.54 169.723977 
L 161.8425 169.595469 
L 161.145 169.466284 
L 160.4475 169.336712 
L 159.75 169.207042 
L 159.0525 169.077568 
L 158.355 168.948583 
L 157.6575 168.82038 
L 156.96 168.693251 
L 156.2625 168.567484 
L 155.565 168.443365 
L 154.8675 168.321174 
L 154.17 168.201186 
L 153.4725 168.08367 
L 152.775 167.968888 
L 152.0775 167.857092 
L 151.38 167.748525 
L 150.6825 167.643421 
L 149.985 167.542002 
L 149.2875 167.444479 
L 148.59 167.351049 
L 147.8925 167.261898 
L 147.195 167.177197 
L 146.4975 167.097102 
L 145.8 167.021756 
L 145.1025 166.951285 
L 144.405 166.885799 
L 143.7075 166.825394 
L 143.01 166.770148 
L 142.3125 166.720122 
L 141.615 166.67536 
L 140.9175 166.635892 
L 140.22 166.601728 
L 139.5225 166.572862 
L 138.825 166.549272 
L 138.1275 166.530917 
L 137.43 166.517743 
L 136.7325 166.509678 
L 136.035 166.506633 
L 135.3375 166.508507 
L 134.64 166.51518 
L 133.9425 166.526522 
L 133.245 166.542385 
L 132.5475 166.56261 
L 131.85 166.587026 
L 131.1525 166.615449 
L 130.455 166.647684 
L 129.7575 166.683527 
L 129.06 166.722764 
L 128.3625 166.765171 
L 127.665 166.810518 
L 126.9675 166.858569 
L 126.27 166.909081 
L 125.5725 166.961807 
L 124.875 167.016495 
L 124.1775 167.072893 
L 123.48 167.130744 
L 122.7825 167.189794 
L 122.085 167.249785 
L 121.3875 167.310464 
L 120.69 167.37158 
L 119.9925 167.432883 
L 119.295 167.494129 
L 118.5975 167.555081 
L 117.9 167.615504 
L 117.2025 167.675175 
L 116.505 167.733875 
L 115.8075 167.791397 
L 115.11 167.847541 
L 114.4125 167.902119 
L 113.715 167.954955 
L 113.0175 168.005884 
L 112.32 168.054752 
L 111.6225 168.10142 
L 110.925 168.145763 
L 110.2275 168.187667 
L 109.53 168.227037 
L 108.8325 168.263789 
L 108.135 168.297855 
L 107.4375 168.329185 
L 106.74 168.357739 
L 106.0425 168.383499 
L 105.345 168.406458 
L 104.6475 168.426626 
L 103.95 168.444029 
L 103.2525 168.458708 
L 102.555 168.470718 
L 101.8575 168.480132 
L 101.16 168.487034 
L 100.4625 168.491524 
L 99.765 168.493715 
L 99.0675 168.493733 
L 98.37 168.491718 
L 97.6725 168.48782 
L 96.975 168.482201 
L 96.2775 168.475035 
L 95.58 168.466503 
L 94.8825 168.456798 
L 94.185 168.446119 
L 93.4875 168.434674 
L 92.79 168.422675 
L 92.0925 168.410342 
L 91.395 168.397898 
L 90.6975 168.385571 
L 90 168.37359 
z
" style="fill:#e0ffff;"/>
   </g>
   <g id="line2d_19">
    <path clip-path="url(#p1bb582405c)" d="M 90 168.37359 
L 101.8575 168.480132 
L 108.135 168.297855 
L 115.11 167.847541 
L 131.85 166.587026 
L 136.7325 166.509678 
L 141.615 166.67536 
L 146.4975 167.097102 
L 151.38 167.748525 
L 157.6575 168.82038 
L 170.2125 171.016026 
L 175.095 171.633541 
L 179.9775 172.035668 
L 184.86 172.217945 
L 190.44 172.200305 
L 200.205 171.879581 
L 208.575 171.699705 
L 214.8525 171.786325 
L 221.8275 172.106171 
L 235.7775 172.818517 
L 240.66 172.828598 
L 245.5425 172.615283 
L 250.425 172.160637 
L 255.3075 171.48561 
L 262.2825 170.259188 
L 273.4425 168.26253 
L 278.325 167.612154 
L 283.2075 167.186797 
L 288.09 167.002592 
L 292.9725 167.03701 
L 299.25 167.310557 
L 314.595 168.088985 
L 320.8725 168.131304 
L 328.545 167.93821 
L 340.4025 167.604373 
L 345.9825 167.695026 
L 350.865 167.996777 
L 355.7475 168.520772 
L 361.3275 169.356973 
L 370.395 171.000505 
L 377.37 172.180946 
L 382.2525 172.806911 
L 387.135 173.1979 
L 392.0175 173.332339 
L 396.9 173.228007 
L 402.48 172.885169 
L 422.01 171.460625 
L 428.2875 171.347541 
L 437.355 171.454218 
L 446.4225 171.503578 
L 452.0025 171.305896 
L 456.885 170.924638 
L 462.465 170.246909 
L 468.7425 169.24701 
L 481.995 167.064941 
L 486.8775 166.520339 
L 491.0625 166.248601 
L 495.2475 166.173596 
L 500.13 166.324703 
L 505.71 166.754002 
L 514.7775 167.746902 
L 523.1475 168.579689 
L 529.425 168.964062 
L 535.7025 169.116536 
L 557.325 169.381743 
L 562.905 169.839964 
L 568.485 170.52366 
L 576.855 171.811716 
L 585.225 173.038719 
L 590.1075 173.543947 
L 594.99 173.808363 
L 599.175 173.819008 
L 604.0575 173.584827 
L 608.94 173.126043 
L 615.915 172.228406 
L 626.3775 170.868598 
L 631.9575 170.355312 
L 637.5375 170.052417 
L 644.5125 169.924684 
L 646.605 169.92 
L 646.605 169.92 
" style="fill:none;stroke:#008080;stroke-linecap:round;stroke-width:1.75;"/>
   </g>
   <g id="patch_3">
    <path d="M 90 270.72 
L 90 69.12 
" style="fill:none;stroke:#262626;stroke-linecap:square;stroke-linejoin:miter;stroke-width:1.25;"/>
   </g>
   <g id="patch_4">
    <path d="M 90 270.72 
L 648 270.72 
" style="fill:none;stroke:#262626;stroke-linecap:square;stroke-linejoin:miter;stroke-width:1.25;"/>
   </g>
  </g>
  <g id="axes_2">
   <g id="patch_5">
    <path d="M 90 512.64 
L 648 512.64 
L 648 311.04 
L 90 311.04 
z
" style="fill:#ffffff;"/>
   </g>
   <g id="matplotlib.axis_3">
    <g id="xtick_10">
     <g id="line2d_20">
      <g>
       <use style="fill:#262626;stroke:#262626;" x="190.44" xlink:href="#m4df781812d" y="512.64"/>
      </g>
     </g>
     <g id="text_19">
      <!-- 200 -->
      <g style="fill:#262626;" transform="translate(182.098594 532.797812)scale(0.1 -0.1)">
       <use xlink:href="#ArialMT-32"/>
       <use x="55.615234" xlink:href="#ArialMT-30"/>
       <use x="111.230469" xlink:href="#ArialMT-30"/>
      </g>
     </g>
    </g>
    <g id="xtick_11">
     <g id="line2d_21">
      <g>
       <use style="fill:#262626;stroke:#262626;" x="302.04" xlink:href="#m4df781812d" y="512.64"/>
      </g>
     </g>
     <g id="text_20">
      <!-- 400 -->
      <g style="fill:#262626;" transform="translate(293.698594 532.797812)scale(0.1 -0.1)">
       <use xlink:href="#ArialMT-34"/>
       <use x="55.615234" xlink:href="#ArialMT-30"/>
       <use x="111.230469" xlink:href="#ArialMT-30"/>
      </g>
     </g>
    </g>
    <g id="xtick_12">
     <g id="line2d_22">
      <g>
       <use style="fill:#262626;stroke:#262626;" x="413.64" xlink:href="#m4df781812d" y="512.64"/>
      </g>
     </g>
     <g id="text_21">
      <!-- 600 -->
      <g style="fill:#262626;" transform="translate(405.298594 532.797812)scale(0.1 -0.1)">
       <use xlink:href="#ArialMT-36"/>
       <use x="55.615234" xlink:href="#ArialMT-30"/>
       <use x="111.230469" xlink:href="#ArialMT-30"/>
      </g>
     </g>
    </g>
    <g id="xtick_13">
     <g id="line2d_23">
      <g>
       <use style="fill:#262626;stroke:#262626;" x="525.24" xlink:href="#m4df781812d" y="512.64"/>
      </g>
     </g>
     <g id="text_22">
      <!-- 800 -->
      <g style="fill:#262626;" transform="translate(516.898594 532.797812)scale(0.1 -0.1)">
       <use xlink:href="#ArialMT-38"/>
       <use x="55.615234" xlink:href="#ArialMT-30"/>
       <use x="111.230469" xlink:href="#ArialMT-30"/>
      </g>
     </g>
    </g>
    <g id="xtick_14">
     <g id="line2d_24">
      <g>
       <use style="fill:#262626;stroke:#262626;" x="636.84" xlink:href="#m4df781812d" y="512.64"/>
      </g>
     </g>
     <g id="text_23">
      <!-- 1000 -->
      <g style="fill:#262626;" transform="translate(625.718125 532.797812)scale(0.1 -0.1)">
       <use xlink:href="#ArialMT-31"/>
       <use x="55.615234" xlink:href="#ArialMT-30"/>
       <use x="111.230469" xlink:href="#ArialMT-30"/>
       <use x="166.845703" xlink:href="#ArialMT-30"/>
      </g>
     </g>
    </g>
   </g>
   <g id="matplotlib.axis_4">
    <g id="ytick_10">
     <g id="line2d_25">
      <g>
       <use style="fill:#262626;stroke:#262626;" x="90" xlink:href="#m597432bdb0" y="512.64"/>
      </g>
     </g>
     <g id="text_24">
      <!-- 0 -->
      <g style="fill:#262626;" transform="translate(71.439063 516.218906)scale(0.1 -0.1)">
       <use xlink:href="#ArialMT-30"/>
      </g>
     </g>
    </g>
    <g id="ytick_11">
     <g id="line2d_26">
      <g>
       <use style="fill:#262626;stroke:#262626;" x="90" xlink:href="#m597432bdb0" y="483.84"/>
      </g>
     </g>
     <g id="text_25">
      <!-- 10 -->
      <g style="fill:#262626;" transform="translate(65.878125 487.418906)scale(0.1 -0.1)">
       <use xlink:href="#ArialMT-31"/>
       <use x="55.615234" xlink:href="#ArialMT-30"/>
      </g>
     </g>
    </g>
    <g id="ytick_12">
     <g id="line2d_27">
      <g>
       <use style="fill:#262626;stroke:#262626;" x="90" xlink:href="#m597432bdb0" y="455.04"/>
      </g>
     </g>
     <g id="text_26">
      <!-- 20 -->
      <g style="fill:#262626;" transform="translate(65.878125 458.618906)scale(0.1 -0.1)">
       <use xlink:href="#ArialMT-32"/>
       <use x="55.615234" xlink:href="#ArialMT-30"/>
      </g>
     </g>
    </g>
    <g id="ytick_13">
     <g id="line2d_28">
      <g>
       <use style="fill:#262626;stroke:#262626;" x="90" xlink:href="#m597432bdb0" y="426.24"/>
      </g>
     </g>
     <g id="text_27">
      <!-- 30 -->
      <g style="fill:#262626;" transform="translate(65.878125 429.818906)scale(0.1 -0.1)">
       <use xlink:href="#ArialMT-33"/>
       <use x="55.615234" xlink:href="#ArialMT-30"/>
      </g>
     </g>
    </g>
    <g id="ytick_14">
     <g id="line2d_29">
      <g>
       <use style="fill:#262626;stroke:#262626;" x="90" xlink:href="#m597432bdb0" y="397.44"/>
      </g>
     </g>
     <g id="text_28">
      <!-- 40 -->
      <g style="fill:#262626;" transform="translate(65.878125 401.018906)scale(0.1 -0.1)">
       <use xlink:href="#ArialMT-34"/>
       <use x="55.615234" xlink:href="#ArialMT-30"/>
      </g>
     </g>
    </g>
    <g id="ytick_15">
     <g id="line2d_30">
      <g>
       <use style="fill:#262626;stroke:#262626;" x="90" xlink:href="#m597432bdb0" y="368.64"/>
      </g>
     </g>
     <g id="text_29">
      <!-- 50 -->
      <g style="fill:#262626;" transform="translate(65.878125 372.218906)scale(0.1 -0.1)">
       <use xlink:href="#ArialMT-35"/>
       <use x="55.615234" xlink:href="#ArialMT-30"/>
      </g>
     </g>
    </g>
    <g id="ytick_16">
     <g id="line2d_31">
      <g>
       <use style="fill:#262626;stroke:#262626;" x="90" xlink:href="#m597432bdb0" y="339.84"/>
      </g>
     </g>
     <g id="text_30">
      <!-- 60 -->
      <g style="fill:#262626;" transform="translate(65.878125 343.418906)scale(0.1 -0.1)">
       <use xlink:href="#ArialMT-36"/>
       <use x="55.615234" xlink:href="#ArialMT-30"/>
      </g>
     </g>
    </g>
    <g id="ytick_17">
     <g id="line2d_32">
      <g>
       <use style="fill:#262626;stroke:#262626;" x="90" xlink:href="#m597432bdb0" y="311.04"/>
      </g>
     </g>
     <g id="text_31">
      <!-- 70 -->
      <g style="fill:#262626;" transform="translate(65.878125 314.618906)scale(0.1 -0.1)">
       <use xlink:href="#ArialMT-37"/>
       <use x="55.615234" xlink:href="#ArialMT-30"/>
      </g>
     </g>
    </g>
   </g>
   <g id="line2d_33">
    <path clip-path="url(#pbdf3af2722)" d="M 90 495.208 
L 101.16 496.246355 
L 112.32 497.676438 
L 123.48 496.773624 
L 134.64 495.319457 
L 145.8 494.970857 
L 156.96 496.496469 
L 168.12 493.948302 
" style="fill:none;stroke:#b22222;stroke-linecap:round;stroke-width:1.75;"/>
   </g>
   <g id="patch_6">
    <path d="M 90 512.64 
L 90 311.04 
" style="fill:none;stroke:#262626;stroke-linecap:square;stroke-linejoin:miter;stroke-width:1.25;"/>
   </g>
   <g id="patch_7">
    <path d="M 90 512.64 
L 648 512.64 
" style="fill:none;stroke:#262626;stroke-linecap:square;stroke-linejoin:miter;stroke-width:1.25;"/>
   </g>
   <g id="text_32">
    <!-- f = 160 -->
    <defs>
     <path d="M 8.6875 0 
L 8.6875 45.015625 
L 0.921875 45.015625 
L 0.921875 51.859375 
L 8.6875 51.859375 
L 8.6875 57.375 
Q 8.6875 62.59375 9.625 65.140625 
Q 10.890625 68.5625 14.078125 70.671875 
Q 17.28125 72.796875 23.046875 72.796875 
Q 26.765625 72.796875 31.25 71.921875 
L 29.9375 64.265625 
Q 27.203125 64.75 24.75 64.75 
Q 20.75 64.75 19.09375 63.03125 
Q 17.4375 61.328125 17.4375 56.640625 
L 17.4375 51.859375 
L 27.546875 51.859375 
L 27.546875 45.015625 
L 17.4375 45.015625 
L 17.4375 0 
z
" id="ArialMT-66"/>
     <path id="ArialMT-20"/>
     <path d="M 52.828125 42.09375 
L 5.5625 42.09375 
L 5.5625 50.296875 
L 52.828125 50.296875 
z
M 52.828125 20.359375 
L 5.5625 20.359375 
L 5.5625 28.5625 
L 52.828125 28.5625 
z
" id="ArialMT-3d"/>
    </defs>
    <g style="fill:#262626;" transform="translate(525.24 371.742188)scale(0.12 -0.12)">
     <use xlink:href="#ArialMT-66"/>
     <use x="27.783203" xlink:href="#ArialMT-20"/>
     <use x="55.566406" xlink:href="#ArialMT-3d"/>
     <use x="113.964844" xlink:href="#ArialMT-20"/>
     <use x="141.748047" xlink:href="#ArialMT-31"/>
     <use x="197.363281" xlink:href="#ArialMT-36"/>
     <use x="252.978516" xlink:href="#ArialMT-30"/>
    </g>
   </g>
   <g id="PathCollection_1">
    <defs>
     <path d="M 0 3.5 
C 0.928211 3.5 1.81853 3.131218 2.474874 2.474874 
C 3.131218 1.81853 3.5 0.928211 3.5 0 
C 3.5 -0.928211 3.131218 -1.81853 2.474874 -2.474874 
C 1.81853 -3.131218 0.928211 -3.5 0 -3.5 
C -0.928211 -3.5 -1.81853 -3.131218 -2.474874 -2.474874 
C -3.131218 -1.81853 -3.5 -0.928211 -3.5 0 
C -3.5 0.928211 -3.131218 1.81853 -2.474874 2.474874 
C -1.81853 3.131218 -0.928211 3.5 0 3.5 
z
" id="m63624f06cd" style="stroke:#800000;stroke-width:0.3;"/>
    </defs>
    <g clip-path="url(#pbdf3af2722)">
     <use style="fill:#800000;stroke:#800000;stroke-width:0.3;" x="168.12" xlink:href="#m63624f06cd" y="493.948302"/>
    </g>
   </g>
  </g>
 </g>
 <defs>
  <clipPath id="p1bb582405c">
   <rect height="201.6" width="558" x="90" y="69.12"/>
  </clipPath>
  <clipPath id="pbdf3af2722">
   <rect height="201.6" width="558" x="90" y="311.04"/>
  </clipPath>
 </defs>
</svg>
