<?xml version="1.0" encoding="utf-8" standalone="no"?>
<!DOCTYPE svg PUBLIC "-//W3C//DTD SVG 1.1//EN"
  "http://www.w3.org/Graphics/SVG/1.1/DTD/svg11.dtd">
<!-- Created with matplotlib (http://matplotlib.org/) -->
<svg height="576pt" version="1.1" viewBox="0 0 720 576" width="720pt" xmlns="http://www.w3.org/2000/svg" xmlns:xlink="http://www.w3.org/1999/xlink">
 <defs>
  <style type="text/css">
*{stroke-linecap:butt;stroke-linejoin:round;}
  </style>
 </defs>
 <g id="figure_1">
  <g id="patch_1">
   <path d="M 0 576 
L 720 576 
L 720 0 
L 0 0 
z
" style="fill:#ffffff;"/>
  </g>
  <g id="axes_1">
   <g id="patch_2">
    <path d="M 90 270.72 
L 648 270.72 
L 648 69.12 
L 90 69.12 
z
" style="fill:#ffffff;"/>
   </g>
   <g id="matplotlib.axis_1">
    <g id="xtick_1">
     <g id="line2d_1">
      <defs>
       <path d="M 0 0 
L 0 6 
" id="m9a1738b730" style="stroke:#262626;"/>
      </defs>
      <g>
       <use style="fill:#262626;stroke:#262626;" x="90" xlink:href="#m9a1738b730" y="270.72"/>
      </g>
     </g>
     <g id="text_1">
      <!-- 0 -->
      <defs>
       <path d="M 4.15625 35.296875 
Q 4.15625 48 6.765625 55.734375 
Q 9.375 63.484375 14.515625 67.671875 
Q 19.671875 71.875 27.484375 71.875 
Q 33.25 71.875 37.59375 69.546875 
Q 41.9375 67.234375 44.765625 62.859375 
Q 47.609375 58.5 49.21875 52.21875 
Q 50.828125 45.953125 50.828125 35.296875 
Q 50.828125 22.703125 48.234375 14.96875 
Q 45.65625 7.234375 40.5 3 
Q 35.359375 -1.21875 27.484375 -1.21875 
Q 17.140625 -1.21875 11.234375 6.203125 
Q 4.15625 15.140625 4.15625 35.296875 
z
M 13.1875 35.296875 
Q 13.1875 17.671875 17.3125 11.828125 
Q 21.4375 6 27.484375 6 
Q 33.546875 6 37.671875 11.859375 
Q 41.796875 17.71875 41.796875 35.296875 
Q 41.796875 52.984375 37.671875 58.78125 
Q 33.546875 64.59375 27.390625 64.59375 
Q 21.34375 64.59375 17.71875 59.46875 
Q 13.1875 52.9375 13.1875 35.296875 
z
" id="ArialMT-30"/>
      </defs>
      <g style="fill:#262626;" transform="translate(87.219531 290.877812)scale(0.1 -0.1)">
       <use xlink:href="#ArialMT-30"/>
      </g>
     </g>
    </g>
    <g id="xtick_2">
     <g id="line2d_2">
      <g>
       <use style="fill:#262626;stroke:#262626;" x="159.75" xlink:href="#m9a1738b730" y="270.72"/>
      </g>
     </g>
     <g id="text_2">
      <!-- 100 -->
      <defs>
       <path d="M 37.25 0 
L 28.46875 0 
L 28.46875 56 
Q 25.296875 52.984375 20.140625 49.953125 
Q 14.984375 46.921875 10.890625 45.40625 
L 10.890625 53.90625 
Q 18.265625 57.375 23.78125 62.296875 
Q 29.296875 67.234375 31.59375 71.875 
L 37.25 71.875 
z
" id="ArialMT-31"/>
      </defs>
      <g style="fill:#262626;" transform="translate(151.408594 290.877812)scale(0.1 -0.1)">
       <use xlink:href="#ArialMT-31"/>
       <use x="55.615234" xlink:href="#ArialMT-30"/>
       <use x="111.230469" xlink:href="#ArialMT-30"/>
      </g>
     </g>
    </g>
    <g id="xtick_3">
     <g id="line2d_3">
      <g>
       <use style="fill:#262626;stroke:#262626;" x="229.5" xlink:href="#m9a1738b730" y="270.72"/>
      </g>
     </g>
     <g id="text_3">
      <!-- 200 -->
      <defs>
       <path d="M 50.34375 8.453125 
L 50.34375 0 
L 3.03125 0 
Q 2.9375 3.171875 4.046875 6.109375 
Q 5.859375 10.9375 9.828125 15.625 
Q 13.8125 20.3125 21.34375 26.46875 
Q 33.015625 36.03125 37.109375 41.625 
Q 41.21875 47.21875 41.21875 52.203125 
Q 41.21875 57.421875 37.46875 61 
Q 33.734375 64.59375 27.734375 64.59375 
Q 21.390625 64.59375 17.578125 60.78125 
Q 13.765625 56.984375 13.71875 50.25 
L 4.6875 51.171875 
Q 5.609375 61.28125 11.65625 66.578125 
Q 17.71875 71.875 27.9375 71.875 
Q 38.234375 71.875 44.234375 66.15625 
Q 50.25 60.453125 50.25 52 
Q 50.25 47.703125 48.484375 43.546875 
Q 46.734375 39.40625 42.65625 34.8125 
Q 38.578125 30.21875 29.109375 22.21875 
Q 21.1875 15.578125 18.9375 13.203125 
Q 16.703125 10.84375 15.234375 8.453125 
z
" id="ArialMT-32"/>
      </defs>
      <g style="fill:#262626;" transform="translate(221.158594 290.877812)scale(0.1 -0.1)">
       <use xlink:href="#ArialMT-32"/>
       <use x="55.615234" xlink:href="#ArialMT-30"/>
       <use x="111.230469" xlink:href="#ArialMT-30"/>
      </g>
     </g>
    </g>
    <g id="xtick_4">
     <g id="line2d_4">
      <g>
       <use style="fill:#262626;stroke:#262626;" x="299.25" xlink:href="#m9a1738b730" y="270.72"/>
      </g>
     </g>
     <g id="text_4">
      <!-- 300 -->
      <defs>
       <path d="M 4.203125 18.890625 
L 12.984375 20.0625 
Q 14.5 12.59375 18.140625 9.296875 
Q 21.78125 6 27 6 
Q 33.203125 6 37.46875 10.296875 
Q 41.75 14.59375 41.75 20.953125 
Q 41.75 27 37.796875 30.921875 
Q 33.84375 34.859375 27.734375 34.859375 
Q 25.25 34.859375 21.53125 33.890625 
L 22.515625 41.609375 
Q 23.390625 41.5 23.921875 41.5 
Q 29.546875 41.5 34.03125 44.421875 
Q 38.53125 47.359375 38.53125 53.46875 
Q 38.53125 58.296875 35.25 61.46875 
Q 31.984375 64.65625 26.8125 64.65625 
Q 21.6875 64.65625 18.265625 61.421875 
Q 14.84375 58.203125 13.875 51.765625 
L 5.078125 53.328125 
Q 6.6875 62.15625 12.390625 67.015625 
Q 18.109375 71.875 26.609375 71.875 
Q 32.46875 71.875 37.390625 69.359375 
Q 42.328125 66.84375 44.9375 62.5 
Q 47.5625 58.15625 47.5625 53.265625 
Q 47.5625 48.640625 45.0625 44.828125 
Q 42.578125 41.015625 37.703125 38.765625 
Q 44.046875 37.3125 47.5625 32.6875 
Q 51.078125 28.078125 51.078125 21.140625 
Q 51.078125 11.765625 44.234375 5.25 
Q 37.40625 -1.265625 26.953125 -1.265625 
Q 17.53125 -1.265625 11.296875 4.34375 
Q 5.078125 9.96875 4.203125 18.890625 
z
" id="ArialMT-33"/>
      </defs>
      <g style="fill:#262626;" transform="translate(290.908594 290.877812)scale(0.1 -0.1)">
       <use xlink:href="#ArialMT-33"/>
       <use x="55.615234" xlink:href="#ArialMT-30"/>
       <use x="111.230469" xlink:href="#ArialMT-30"/>
      </g>
     </g>
    </g>
    <g id="xtick_5">
     <g id="line2d_5">
      <g>
       <use style="fill:#262626;stroke:#262626;" x="369" xlink:href="#m9a1738b730" y="270.72"/>
      </g>
     </g>
     <g id="text_5">
      <!-- 400 -->
      <defs>
       <path d="M 32.328125 0 
L 32.328125 17.140625 
L 1.265625 17.140625 
L 1.265625 25.203125 
L 33.9375 71.578125 
L 41.109375 71.578125 
L 41.109375 25.203125 
L 50.78125 25.203125 
L 50.78125 17.140625 
L 41.109375 17.140625 
L 41.109375 0 
z
M 32.328125 25.203125 
L 32.328125 57.46875 
L 9.90625 25.203125 
z
" id="ArialMT-34"/>
      </defs>
      <g style="fill:#262626;" transform="translate(360.658594 290.877812)scale(0.1 -0.1)">
       <use xlink:href="#ArialMT-34"/>
       <use x="55.615234" xlink:href="#ArialMT-30"/>
       <use x="111.230469" xlink:href="#ArialMT-30"/>
      </g>
     </g>
    </g>
    <g id="xtick_6">
     <g id="line2d_6">
      <g>
       <use style="fill:#262626;stroke:#262626;" x="438.75" xlink:href="#m9a1738b730" y="270.72"/>
      </g>
     </g>
     <g id="text_6">
      <!-- 500 -->
      <defs>
       <path d="M 4.15625 18.75 
L 13.375 19.53125 
Q 14.40625 12.796875 18.140625 9.390625 
Q 21.875 6 27.15625 6 
Q 33.5 6 37.890625 10.78125 
Q 42.28125 15.578125 42.28125 23.484375 
Q 42.28125 31 38.0625 35.34375 
Q 33.84375 39.703125 27 39.703125 
Q 22.75 39.703125 19.328125 37.765625 
Q 15.921875 35.84375 13.96875 32.765625 
L 5.71875 33.84375 
L 12.640625 70.609375 
L 48.25 70.609375 
L 48.25 62.203125 
L 19.671875 62.203125 
L 15.828125 42.96875 
Q 22.265625 47.46875 29.34375 47.46875 
Q 38.71875 47.46875 45.15625 40.96875 
Q 51.609375 34.46875 51.609375 24.265625 
Q 51.609375 14.546875 45.953125 7.46875 
Q 39.0625 -1.21875 27.15625 -1.21875 
Q 17.390625 -1.21875 11.203125 4.25 
Q 5.03125 9.71875 4.15625 18.75 
z
" id="ArialMT-35"/>
      </defs>
      <g style="fill:#262626;" transform="translate(430.408594 290.877812)scale(0.1 -0.1)">
       <use xlink:href="#ArialMT-35"/>
       <use x="55.615234" xlink:href="#ArialMT-30"/>
       <use x="111.230469" xlink:href="#ArialMT-30"/>
      </g>
     </g>
    </g>
    <g id="xtick_7">
     <g id="line2d_7">
      <g>
       <use style="fill:#262626;stroke:#262626;" x="508.5" xlink:href="#m9a1738b730" y="270.72"/>
      </g>
     </g>
     <g id="text_7">
      <!-- 600 -->
      <defs>
       <path d="M 49.75 54.046875 
L 41.015625 53.375 
Q 39.84375 58.546875 37.703125 60.890625 
Q 34.125 64.65625 28.90625 64.65625 
Q 24.703125 64.65625 21.53125 62.3125 
Q 17.390625 59.28125 14.984375 53.46875 
Q 12.59375 47.65625 12.5 36.921875 
Q 15.671875 41.75 20.265625 44.09375 
Q 24.859375 46.4375 29.890625 46.4375 
Q 38.671875 46.4375 44.84375 39.96875 
Q 51.03125 33.5 51.03125 23.25 
Q 51.03125 16.5 48.125 10.71875 
Q 45.21875 4.9375 40.140625 1.859375 
Q 35.0625 -1.21875 28.609375 -1.21875 
Q 17.625 -1.21875 10.6875 6.859375 
Q 3.765625 14.9375 3.765625 33.5 
Q 3.765625 54.25 11.421875 63.671875 
Q 18.109375 71.875 29.4375 71.875 
Q 37.890625 71.875 43.28125 67.140625 
Q 48.6875 62.40625 49.75 54.046875 
z
M 13.875 23.1875 
Q 13.875 18.65625 15.796875 14.5 
Q 17.71875 10.359375 21.1875 8.171875 
Q 24.65625 6 28.46875 6 
Q 34.03125 6 38.03125 10.484375 
Q 42.046875 14.984375 42.046875 22.703125 
Q 42.046875 30.125 38.078125 34.390625 
Q 34.125 38.671875 28.125 38.671875 
Q 22.171875 38.671875 18.015625 34.390625 
Q 13.875 30.125 13.875 23.1875 
z
" id="ArialMT-36"/>
      </defs>
      <g style="fill:#262626;" transform="translate(500.158594 290.877812)scale(0.1 -0.1)">
       <use xlink:href="#ArialMT-36"/>
       <use x="55.615234" xlink:href="#ArialMT-30"/>
       <use x="111.230469" xlink:href="#ArialMT-30"/>
      </g>
     </g>
    </g>
    <g id="xtick_8">
     <g id="line2d_8">
      <g>
       <use style="fill:#262626;stroke:#262626;" x="578.25" xlink:href="#m9a1738b730" y="270.72"/>
      </g>
     </g>
     <g id="text_8">
      <!-- 700 -->
      <defs>
       <path d="M 4.734375 62.203125 
L 4.734375 70.65625 
L 51.078125 70.65625 
L 51.078125 63.8125 
Q 44.234375 56.546875 37.515625 44.484375 
Q 30.8125 32.421875 27.15625 19.671875 
Q 24.515625 10.6875 23.78125 0 
L 14.75 0 
Q 14.890625 8.453125 18.0625 20.40625 
Q 21.234375 32.375 27.171875 43.484375 
Q 33.109375 54.59375 39.796875 62.203125 
z
" id="ArialMT-37"/>
      </defs>
      <g style="fill:#262626;" transform="translate(569.908594 290.877812)scale(0.1 -0.1)">
       <use xlink:href="#ArialMT-37"/>
       <use x="55.615234" xlink:href="#ArialMT-30"/>
       <use x="111.230469" xlink:href="#ArialMT-30"/>
      </g>
     </g>
    </g>
    <g id="xtick_9">
     <g id="line2d_9">
      <g>
       <use style="fill:#262626;stroke:#262626;" x="648" xlink:href="#m9a1738b730" y="270.72"/>
      </g>
     </g>
     <g id="text_9">
      <!-- 800 -->
      <defs>
       <path d="M 17.671875 38.8125 
Q 12.203125 40.828125 9.5625 44.53125 
Q 6.9375 48.25 6.9375 53.421875 
Q 6.9375 61.234375 12.546875 66.546875 
Q 18.171875 71.875 27.484375 71.875 
Q 36.859375 71.875 42.578125 66.421875 
Q 48.296875 60.984375 48.296875 53.171875 
Q 48.296875 48.1875 45.671875 44.5 
Q 43.0625 40.828125 37.75 38.8125 
Q 44.34375 36.671875 47.78125 31.875 
Q 51.21875 27.09375 51.21875 20.453125 
Q 51.21875 11.28125 44.71875 5.03125 
Q 38.234375 -1.21875 27.640625 -1.21875 
Q 17.046875 -1.21875 10.546875 5.046875 
Q 4.046875 11.328125 4.046875 20.703125 
Q 4.046875 27.6875 7.59375 32.390625 
Q 11.140625 37.109375 17.671875 38.8125 
z
M 15.921875 53.71875 
Q 15.921875 48.640625 19.1875 45.40625 
Q 22.46875 42.1875 27.6875 42.1875 
Q 32.765625 42.1875 36.015625 45.375 
Q 39.265625 48.578125 39.265625 53.21875 
Q 39.265625 58.0625 35.90625 61.359375 
Q 32.5625 64.65625 27.59375 64.65625 
Q 22.5625 64.65625 19.234375 61.421875 
Q 15.921875 58.203125 15.921875 53.71875 
z
M 13.09375 20.65625 
Q 13.09375 16.890625 14.875 13.375 
Q 16.65625 9.859375 20.171875 7.921875 
Q 23.6875 6 27.734375 6 
Q 34.03125 6 38.125 10.046875 
Q 42.234375 14.109375 42.234375 20.359375 
Q 42.234375 26.703125 38.015625 30.859375 
Q 33.796875 35.015625 27.4375 35.015625 
Q 21.234375 35.015625 17.15625 30.90625 
Q 13.09375 26.8125 13.09375 20.65625 
z
" id="ArialMT-38"/>
      </defs>
      <g style="fill:#262626;" transform="translate(639.658594 290.877812)scale(0.1 -0.1)">
       <use xlink:href="#ArialMT-38"/>
       <use x="55.615234" xlink:href="#ArialMT-30"/>
       <use x="111.230469" xlink:href="#ArialMT-30"/>
      </g>
     </g>
    </g>
   </g>
   <g id="matplotlib.axis_2">
    <g id="ytick_1">
     <g id="line2d_10">
      <defs>
       <path d="M 0 0 
L -6 0 
" id="m55cf75a884" style="stroke:#262626;"/>
      </defs>
      <g>
       <use style="fill:#262626;stroke:#262626;" x="90" xlink:href="#m55cf75a884" y="270.72"/>
      </g>
     </g>
     <g id="text_10">
      <!-- −0.20 -->
      <defs>
       <path d="M 52.828125 31.203125 
L 5.5625 31.203125 
L 5.5625 39.40625 
L 52.828125 39.40625 
z
" id="ArialMT-2212"/>
       <path d="M 9.078125 0 
L 9.078125 10.015625 
L 19.09375 10.015625 
L 19.09375 0 
z
" id="ArialMT-2e"/>
      </defs>
      <g style="fill:#262626;" transform="translate(51.698437 274.298906)scale(0.1 -0.1)">
       <use xlink:href="#ArialMT-2212"/>
       <use x="58.398438" xlink:href="#ArialMT-30"/>
       <use x="114.013672" xlink:href="#ArialMT-2e"/>
       <use x="141.796875" xlink:href="#ArialMT-32"/>
       <use x="197.412109" xlink:href="#ArialMT-30"/>
      </g>
     </g>
    </g>
    <g id="ytick_2">
     <g id="line2d_11">
      <g>
       <use style="fill:#262626;stroke:#262626;" x="90" xlink:href="#m55cf75a884" y="245.52"/>
      </g>
     </g>
     <g id="text_11">
      <!-- −0.15 -->
      <g style="fill:#262626;" transform="translate(51.698437 249.098906)scale(0.1 -0.1)">
       <use xlink:href="#ArialMT-2212"/>
       <use x="58.398438" xlink:href="#ArialMT-30"/>
       <use x="114.013672" xlink:href="#ArialMT-2e"/>
       <use x="141.796875" xlink:href="#ArialMT-31"/>
       <use x="197.412109" xlink:href="#ArialMT-35"/>
      </g>
     </g>
    </g>
    <g id="ytick_3">
     <g id="line2d_12">
      <g>
       <use style="fill:#262626;stroke:#262626;" x="90" xlink:href="#m55cf75a884" y="220.32"/>
      </g>
     </g>
     <g id="text_12">
      <!-- −0.10 -->
      <g style="fill:#262626;" transform="translate(51.698437 223.898906)scale(0.1 -0.1)">
       <use xlink:href="#ArialMT-2212"/>
       <use x="58.398438" xlink:href="#ArialMT-30"/>
       <use x="114.013672" xlink:href="#ArialMT-2e"/>
       <use x="141.796875" xlink:href="#ArialMT-31"/>
       <use x="197.412109" xlink:href="#ArialMT-30"/>
      </g>
     </g>
    </g>
    <g id="ytick_4">
     <g id="line2d_13">
      <g>
       <use style="fill:#262626;stroke:#262626;" x="90" xlink:href="#m55cf75a884" y="195.12"/>
      </g>
     </g>
     <g id="text_13">
      <!-- −0.05 -->
      <g style="fill:#262626;" transform="translate(51.698437 198.698906)scale(0.1 -0.1)">
       <use xlink:href="#ArialMT-2212"/>
       <use x="58.398438" xlink:href="#ArialMT-30"/>
       <use x="114.013672" xlink:href="#ArialMT-2e"/>
       <use x="141.796875" xlink:href="#ArialMT-30"/>
       <use x="197.412109" xlink:href="#ArialMT-35"/>
      </g>
     </g>
    </g>
    <g id="ytick_5">
     <g id="line2d_14">
      <g>
       <use style="fill:#262626;stroke:#262626;" x="90" xlink:href="#m55cf75a884" y="169.92"/>
      </g>
     </g>
     <g id="text_14">
      <!-- 0.00 -->
      <g style="fill:#262626;" transform="translate(57.539062 173.498906)scale(0.1 -0.1)">
       <use xlink:href="#ArialMT-30"/>
       <use x="55.615234" xlink:href="#ArialMT-2e"/>
       <use x="83.398438" xlink:href="#ArialMT-30"/>
       <use x="139.013672" xlink:href="#ArialMT-30"/>
      </g>
     </g>
    </g>
    <g id="ytick_6">
     <g id="line2d_15">
      <g>
       <use style="fill:#262626;stroke:#262626;" x="90" xlink:href="#m55cf75a884" y="144.72"/>
      </g>
     </g>
     <g id="text_15">
      <!-- 0.05 -->
      <g style="fill:#262626;" transform="translate(57.539062 148.298906)scale(0.1 -0.1)">
       <use xlink:href="#ArialMT-30"/>
       <use x="55.615234" xlink:href="#ArialMT-2e"/>
       <use x="83.398438" xlink:href="#ArialMT-30"/>
       <use x="139.013672" xlink:href="#ArialMT-35"/>
      </g>
     </g>
    </g>
    <g id="ytick_7">
     <g id="line2d_16">
      <g>
       <use style="fill:#262626;stroke:#262626;" x="90" xlink:href="#m55cf75a884" y="119.52"/>
      </g>
     </g>
     <g id="text_16">
      <!-- 0.10 -->
      <g style="fill:#262626;" transform="translate(57.539062 123.098906)scale(0.1 -0.1)">
       <use xlink:href="#ArialMT-30"/>
       <use x="55.615234" xlink:href="#ArialMT-2e"/>
       <use x="83.398438" xlink:href="#ArialMT-31"/>
       <use x="139.013672" xlink:href="#ArialMT-30"/>
      </g>
     </g>
    </g>
    <g id="ytick_8">
     <g id="line2d_17">
      <g>
       <use style="fill:#262626;stroke:#262626;" x="90" xlink:href="#m55cf75a884" y="94.32"/>
      </g>
     </g>
     <g id="text_17">
      <!-- 0.15 -->
      <g style="fill:#262626;" transform="translate(57.539062 97.898906)scale(0.1 -0.1)">
       <use xlink:href="#ArialMT-30"/>
       <use x="55.615234" xlink:href="#ArialMT-2e"/>
       <use x="83.398438" xlink:href="#ArialMT-31"/>
       <use x="139.013672" xlink:href="#ArialMT-35"/>
      </g>
     </g>
    </g>
    <g id="ytick_9">
     <g id="line2d_18">
      <g>
       <use style="fill:#262626;stroke:#262626;" x="90" xlink:href="#m55cf75a884" y="69.12"/>
      </g>
     </g>
     <g id="text_18">
      <!-- 0.20 -->
      <g style="fill:#262626;" transform="translate(57.539062 72.698906)scale(0.1 -0.1)">
       <use xlink:href="#ArialMT-30"/>
       <use x="55.615234" xlink:href="#ArialMT-2e"/>
       <use x="83.398438" xlink:href="#ArialMT-32"/>
       <use x="139.013672" xlink:href="#ArialMT-30"/>
      </g>
     </g>
    </g>
   </g>
   <g id="PolyCollection_1">
    <path clip-path="url(#pb8f0592abc)" d="M 90 171.823709 
L 90 169.92 
L 90.6975 169.92 
L 91.395 169.92 
L 92.0925 169.92 
L 92.79 169.92 
L 93.4875 169.92 
L 94.185 169.92 
L 94.8825 169.92 
L 95.58 169.92 
L 96.2775 169.92 
L 96.975 169.92 
L 97.6725 169.92 
L 98.37 169.92 
L 99.0675 169.92 
L 99.765 169.92 
L 100.4625 169.92 
L 101.16 169.92 
L 101.8575 169.92 
L 102.555 169.92 
L 103.2525 169.92 
L 103.95 169.92 
L 104.6475 169.92 
L 105.345 169.92 
L 106.0425 169.92 
L 106.74 169.92 
L 107.4375 169.92 
L 108.135 169.92 
L 108.8325 169.92 
L 109.53 169.92 
L 110.2275 169.92 
L 110.925 169.92 
L 111.6225 169.92 
L 112.32 169.92 
L 113.0175 169.92 
L 113.715 169.92 
L 114.4125 169.92 
L 115.11 169.92 
L 115.8075 169.92 
L 116.505 169.92 
L 117.2025 169.92 
L 117.9 169.92 
L 118.5975 169.92 
L 119.295 169.92 
L 119.9925 169.92 
L 120.69 169.92 
L 121.3875 169.92 
L 122.085 169.92 
L 122.7825 169.92 
L 123.48 169.92 
L 124.1775 169.92 
L 124.875 169.92 
L 125.5725 169.92 
L 126.27 169.92 
L 126.9675 169.92 
L 127.665 169.92 
L 128.3625 169.92 
L 129.06 169.92 
L 129.7575 169.92 
L 130.455 169.92 
L 131.1525 169.92 
L 131.85 169.92 
L 132.5475 169.92 
L 133.245 169.92 
L 133.9425 169.92 
L 134.64 169.92 
L 135.3375 169.92 
L 136.035 169.92 
L 136.7325 169.92 
L 137.43 169.92 
L 138.1275 169.92 
L 138.825 169.92 
L 139.5225 169.92 
L 140.22 169.92 
L 140.9175 169.92 
L 141.615 169.92 
L 142.3125 169.92 
L 143.01 169.92 
L 143.7075 169.92 
L 144.405 169.92 
L 145.1025 169.92 
L 145.8 169.92 
L 146.4975 169.92 
L 147.195 169.92 
L 147.8925 169.92 
L 148.59 169.92 
L 149.2875 169.92 
L 149.985 169.92 
L 150.6825 169.92 
L 151.38 169.92 
L 152.0775 169.92 
L 152.775 169.92 
L 153.4725 169.92 
L 154.17 169.92 
L 154.8675 169.92 
L 155.565 169.92 
L 156.2625 169.92 
L 156.96 169.92 
L 157.6575 169.92 
L 158.355 169.92 
L 159.0525 169.92 
L 159.75 169.92 
L 160.4475 169.92 
L 161.145 169.92 
L 161.8425 169.92 
L 162.54 169.92 
L 163.2375 169.92 
L 163.935 169.92 
L 164.6325 169.92 
L 165.33 169.92 
L 166.0275 169.92 
L 166.725 169.92 
L 167.4225 169.92 
L 168.12 169.92 
L 168.8175 169.92 
L 169.515 169.92 
L 170.2125 169.92 
L 170.91 169.92 
L 171.6075 169.92 
L 172.305 169.92 
L 173.0025 169.92 
L 173.7 169.92 
L 174.3975 169.92 
L 175.095 169.92 
L 175.7925 169.92 
L 176.49 169.92 
L 177.1875 169.92 
L 177.885 169.92 
L 178.5825 169.92 
L 179.28 169.92 
L 179.9775 169.92 
L 180.675 169.92 
L 181.3725 169.92 
L 182.07 169.92 
L 182.7675 169.92 
L 183.465 169.92 
L 184.1625 169.92 
L 184.86 169.92 
L 185.5575 169.92 
L 186.255 169.92 
L 186.9525 169.92 
L 187.65 169.92 
L 188.3475 169.92 
L 189.045 169.92 
L 189.7425 169.92 
L 190.44 169.92 
L 191.1375 169.92 
L 191.835 169.92 
L 192.5325 169.92 
L 193.23 169.92 
L 193.9275 169.92 
L 194.625 169.92 
L 195.3225 169.92 
L 196.02 169.92 
L 196.7175 169.92 
L 197.415 169.92 
L 198.1125 169.92 
L 198.81 169.92 
L 199.5075 169.92 
L 200.205 169.92 
L 200.9025 169.92 
L 201.6 169.92 
L 202.2975 169.92 
L 202.995 169.92 
L 203.6925 169.92 
L 204.39 169.92 
L 205.0875 169.92 
L 205.785 169.92 
L 206.4825 169.92 
L 207.18 169.92 
L 207.8775 169.92 
L 208.575 169.92 
L 209.2725 169.92 
L 209.97 169.92 
L 210.6675 169.92 
L 211.365 169.92 
L 212.0625 169.92 
L 212.76 169.92 
L 213.4575 169.92 
L 214.155 169.92 
L 214.8525 169.92 
L 215.55 169.92 
L 216.2475 169.92 
L 216.945 169.92 
L 217.6425 169.92 
L 218.34 169.92 
L 219.0375 169.92 
L 219.735 169.92 
L 220.4325 169.92 
L 221.13 169.92 
L 221.8275 169.92 
L 222.525 169.92 
L 223.2225 169.92 
L 223.92 169.92 
L 224.6175 169.92 
L 225.315 169.92 
L 226.0125 169.92 
L 226.71 169.92 
L 227.4075 169.92 
L 228.105 169.92 
L 228.8025 169.92 
L 229.5 169.92 
L 230.1975 169.92 
L 230.895 169.92 
L 231.5925 169.92 
L 232.29 169.92 
L 232.9875 169.92 
L 233.685 169.92 
L 234.3825 169.92 
L 235.08 169.92 
L 235.7775 169.92 
L 236.475 169.92 
L 237.1725 169.92 
L 237.87 169.92 
L 238.5675 169.92 
L 239.265 169.92 
L 239.9625 169.92 
L 240.66 169.92 
L 241.3575 169.92 
L 242.055 169.92 
L 242.7525 169.92 
L 243.45 169.92 
L 244.1475 169.92 
L 244.845 169.92 
L 245.5425 169.92 
L 246.24 169.92 
L 246.9375 169.92 
L 247.635 169.92 
L 248.3325 169.92 
L 249.03 169.92 
L 249.7275 169.92 
L 250.425 169.92 
L 251.1225 169.92 
L 251.82 169.92 
L 252.5175 169.92 
L 253.215 169.92 
L 253.9125 169.92 
L 254.61 169.92 
L 255.3075 169.92 
L 256.005 169.92 
L 256.7025 169.92 
L 257.4 169.92 
L 258.0975 169.92 
L 258.795 169.92 
L 259.4925 169.92 
L 260.19 169.92 
L 260.8875 169.92 
L 261.585 169.92 
L 262.2825 169.92 
L 262.98 169.92 
L 263.6775 169.92 
L 264.375 169.92 
L 265.0725 169.92 
L 265.77 169.92 
L 266.4675 169.92 
L 267.165 169.92 
L 267.8625 169.92 
L 268.56 169.92 
L 269.2575 169.92 
L 269.955 169.92 
L 270.6525 169.92 
L 271.35 169.92 
L 272.0475 169.92 
L 272.745 169.92 
L 273.4425 169.92 
L 274.14 169.92 
L 274.8375 169.92 
L 275.535 169.92 
L 276.2325 169.92 
L 276.93 169.92 
L 277.6275 169.92 
L 278.325 169.92 
L 279.0225 169.92 
L 279.72 169.92 
L 280.4175 169.92 
L 281.115 169.92 
L 281.8125 169.92 
L 282.51 169.92 
L 283.2075 169.92 
L 283.905 169.92 
L 284.6025 169.92 
L 285.3 169.92 
L 285.9975 169.92 
L 286.695 169.92 
L 287.3925 169.92 
L 288.09 169.92 
L 288.7875 169.92 
L 289.485 169.92 
L 290.1825 169.92 
L 290.88 169.92 
L 291.5775 169.92 
L 292.275 169.92 
L 292.9725 169.92 
L 293.67 169.92 
L 294.3675 169.92 
L 295.065 169.92 
L 295.7625 169.92 
L 296.46 169.92 
L 297.1575 169.92 
L 297.855 169.92 
L 298.5525 169.92 
L 299.25 169.92 
L 299.9475 169.92 
L 300.645 169.92 
L 301.3425 169.92 
L 302.04 169.92 
L 302.7375 169.92 
L 303.435 169.92 
L 304.1325 169.92 
L 304.83 169.92 
L 305.5275 169.92 
L 306.225 169.92 
L 306.9225 169.92 
L 307.62 169.92 
L 308.3175 169.92 
L 309.015 169.92 
L 309.7125 169.92 
L 310.41 169.92 
L 311.1075 169.92 
L 311.805 169.92 
L 312.5025 169.92 
L 313.2 169.92 
L 313.8975 169.92 
L 314.595 169.92 
L 315.2925 169.92 
L 315.99 169.92 
L 316.6875 169.92 
L 317.385 169.92 
L 318.0825 169.92 
L 318.78 169.92 
L 319.4775 169.92 
L 320.175 169.92 
L 320.8725 169.92 
L 321.57 169.92 
L 322.2675 169.92 
L 322.965 169.92 
L 323.6625 169.92 
L 324.36 169.92 
L 325.0575 169.92 
L 325.755 169.92 
L 326.4525 169.92 
L 327.15 169.92 
L 327.8475 169.92 
L 328.545 169.92 
L 329.2425 169.92 
L 329.94 169.92 
L 330.6375 169.92 
L 331.335 169.92 
L 332.0325 169.92 
L 332.73 169.92 
L 333.4275 169.92 
L 334.125 169.92 
L 334.8225 169.92 
L 335.52 169.92 
L 336.2175 169.92 
L 336.915 169.92 
L 337.6125 169.92 
L 338.31 169.92 
L 339.0075 169.92 
L 339.705 169.92 
L 340.4025 169.92 
L 341.1 169.92 
L 341.7975 169.92 
L 342.495 169.92 
L 343.1925 169.92 
L 343.89 169.92 
L 344.5875 169.92 
L 345.285 169.92 
L 345.9825 169.92 
L 346.68 169.92 
L 347.3775 169.92 
L 348.075 169.92 
L 348.7725 169.92 
L 349.47 169.92 
L 350.1675 169.92 
L 350.865 169.92 
L 351.5625 169.92 
L 352.26 169.92 
L 352.9575 169.92 
L 353.655 169.92 
L 354.3525 169.92 
L 355.05 169.92 
L 355.7475 169.92 
L 356.445 169.92 
L 357.1425 169.92 
L 357.84 169.92 
L 358.5375 169.92 
L 359.235 169.92 
L 359.9325 169.92 
L 360.63 169.92 
L 361.3275 169.92 
L 362.025 169.92 
L 362.7225 169.92 
L 363.42 169.92 
L 364.1175 169.92 
L 364.815 169.92 
L 365.5125 169.92 
L 366.21 169.92 
L 366.9075 169.92 
L 367.605 169.92 
L 368.3025 169.92 
L 369 169.92 
L 369.6975 169.92 
L 370.395 169.92 
L 371.0925 169.92 
L 371.79 169.92 
L 372.4875 169.92 
L 373.185 169.92 
L 373.8825 169.92 
L 374.58 169.92 
L 375.2775 169.92 
L 375.975 169.92 
L 376.6725 169.92 
L 377.37 169.92 
L 378.0675 169.92 
L 378.765 169.92 
L 379.4625 169.92 
L 380.16 169.92 
L 380.8575 169.92 
L 381.555 169.92 
L 382.2525 169.92 
L 382.95 169.92 
L 383.6475 169.92 
L 384.345 169.92 
L 385.0425 169.92 
L 385.74 169.92 
L 386.4375 169.92 
L 387.135 169.92 
L 387.8325 169.92 
L 388.53 169.92 
L 389.2275 169.92 
L 389.925 169.92 
L 390.6225 169.92 
L 391.32 169.92 
L 392.0175 169.92 
L 392.715 169.92 
L 393.4125 169.92 
L 394.11 169.92 
L 394.8075 169.92 
L 395.505 169.92 
L 396.2025 169.92 
L 396.9 169.92 
L 397.5975 169.92 
L 398.295 169.92 
L 398.9925 169.92 
L 399.69 169.92 
L 400.3875 169.92 
L 401.085 169.92 
L 401.7825 169.92 
L 402.48 169.92 
L 403.1775 169.92 
L 403.875 169.92 
L 404.5725 169.92 
L 405.27 169.92 
L 405.9675 169.92 
L 406.665 169.92 
L 407.3625 169.92 
L 408.06 169.92 
L 408.7575 169.92 
L 409.455 169.92 
L 410.1525 169.92 
L 410.85 169.92 
L 411.5475 169.92 
L 412.245 169.92 
L 412.9425 169.92 
L 413.64 169.92 
L 414.3375 169.92 
L 415.035 169.92 
L 415.7325 169.92 
L 416.43 169.92 
L 417.1275 169.92 
L 417.825 169.92 
L 418.5225 169.92 
L 419.22 169.92 
L 419.9175 169.92 
L 420.615 169.92 
L 421.3125 169.92 
L 422.01 169.92 
L 422.7075 169.92 
L 423.405 169.92 
L 424.1025 169.92 
L 424.8 169.92 
L 425.4975 169.92 
L 426.195 169.92 
L 426.8925 169.92 
L 427.59 169.92 
L 428.2875 169.92 
L 428.985 169.92 
L 429.6825 169.92 
L 430.38 169.92 
L 431.0775 169.92 
L 431.775 169.92 
L 432.4725 169.92 
L 433.17 169.92 
L 433.8675 169.92 
L 434.565 169.92 
L 435.2625 169.92 
L 435.96 169.92 
L 436.6575 169.92 
L 437.355 169.92 
L 438.0525 169.92 
L 438.75 169.92 
L 439.4475 169.92 
L 440.145 169.92 
L 440.8425 169.92 
L 441.54 169.92 
L 442.2375 169.92 
L 442.935 169.92 
L 443.6325 169.92 
L 444.33 169.92 
L 445.0275 169.92 
L 445.725 169.92 
L 446.4225 169.92 
L 447.12 169.92 
L 447.8175 169.92 
L 448.515 169.92 
L 449.2125 169.92 
L 449.91 169.92 
L 450.6075 169.92 
L 451.305 169.92 
L 452.0025 169.92 
L 452.7 169.92 
L 453.3975 169.92 
L 454.095 169.92 
L 454.7925 169.92 
L 455.49 169.92 
L 456.1875 169.92 
L 456.885 169.92 
L 457.5825 169.92 
L 458.28 169.92 
L 458.9775 169.92 
L 459.675 169.92 
L 460.3725 169.92 
L 461.07 169.92 
L 461.7675 169.92 
L 462.465 169.92 
L 463.1625 169.92 
L 463.86 169.92 
L 464.5575 169.92 
L 465.255 169.92 
L 465.9525 169.92 
L 466.65 169.92 
L 467.3475 169.92 
L 468.045 169.92 
L 468.7425 169.92 
L 469.44 169.92 
L 470.1375 169.92 
L 470.835 169.92 
L 471.5325 169.92 
L 472.23 169.92 
L 472.9275 169.92 
L 473.625 169.92 
L 474.3225 169.92 
L 475.02 169.92 
L 475.7175 169.92 
L 476.415 169.92 
L 477.1125 169.92 
L 477.81 169.92 
L 478.5075 169.92 
L 479.205 169.92 
L 479.9025 169.92 
L 480.6 169.92 
L 481.2975 169.92 
L 481.995 169.92 
L 482.6925 169.92 
L 483.39 169.92 
L 484.0875 169.92 
L 484.785 169.92 
L 485.4825 169.92 
L 486.18 169.92 
L 486.8775 169.92 
L 487.575 169.92 
L 488.2725 169.92 
L 488.97 169.92 
L 489.6675 169.92 
L 490.365 169.92 
L 491.0625 169.92 
L 491.76 169.92 
L 492.4575 169.92 
L 493.155 169.92 
L 493.8525 169.92 
L 494.55 169.92 
L 495.2475 169.92 
L 495.945 169.92 
L 496.6425 169.92 
L 497.34 169.92 
L 498.0375 169.92 
L 498.735 169.92 
L 499.4325 169.92 
L 500.13 169.92 
L 500.8275 169.92 
L 501.525 169.92 
L 502.2225 169.92 
L 502.92 169.92 
L 503.6175 169.92 
L 504.315 169.92 
L 505.0125 169.92 
L 505.71 169.92 
L 506.4075 169.92 
L 507.105 169.92 
L 507.8025 169.92 
L 508.5 169.92 
L 509.1975 169.92 
L 509.895 169.92 
L 510.5925 169.92 
L 511.29 169.92 
L 511.9875 169.92 
L 512.685 169.92 
L 513.3825 169.92 
L 514.08 169.92 
L 514.7775 169.92 
L 515.475 169.92 
L 516.1725 169.92 
L 516.87 169.92 
L 517.5675 169.92 
L 518.265 169.92 
L 518.9625 169.92 
L 519.66 169.92 
L 520.3575 169.92 
L 521.055 169.92 
L 521.7525 169.92 
L 522.45 169.92 
L 523.1475 169.92 
L 523.845 169.92 
L 524.5425 169.92 
L 525.24 169.92 
L 525.9375 169.92 
L 526.635 169.92 
L 527.3325 169.92 
L 528.03 169.92 
L 528.7275 169.92 
L 529.425 169.92 
L 530.1225 169.92 
L 530.82 169.92 
L 531.5175 169.92 
L 532.215 169.92 
L 532.9125 169.92 
L 533.61 169.92 
L 534.3075 169.92 
L 535.005 169.92 
L 535.7025 169.92 
L 536.4 169.92 
L 537.0975 169.92 
L 537.795 169.92 
L 538.4925 169.92 
L 539.19 169.92 
L 539.8875 169.92 
L 540.585 169.92 
L 541.2825 169.92 
L 541.98 169.92 
L 542.6775 169.92 
L 543.375 169.92 
L 544.0725 169.92 
L 544.77 169.92 
L 545.4675 169.92 
L 546.165 169.92 
L 546.8625 169.92 
L 547.56 169.92 
L 548.2575 169.92 
L 548.955 169.92 
L 549.6525 169.92 
L 550.35 169.92 
L 551.0475 169.92 
L 551.745 169.92 
L 552.4425 169.92 
L 553.14 169.92 
L 553.8375 169.92 
L 554.535 169.92 
L 555.2325 169.92 
L 555.93 169.92 
L 556.6275 169.92 
L 557.325 169.92 
L 558.0225 169.92 
L 558.72 169.92 
L 559.4175 169.92 
L 560.115 169.92 
L 560.8125 169.92 
L 561.51 169.92 
L 562.2075 169.92 
L 562.905 169.92 
L 563.6025 169.92 
L 564.3 169.92 
L 564.9975 169.92 
L 565.695 169.92 
L 566.3925 169.92 
L 567.09 169.92 
L 567.7875 169.92 
L 568.485 169.92 
L 569.1825 169.92 
L 569.88 169.92 
L 570.5775 169.92 
L 571.275 169.92 
L 571.9725 169.92 
L 572.67 169.92 
L 573.3675 169.92 
L 574.065 169.92 
L 574.7625 169.92 
L 575.46 169.92 
L 576.1575 169.92 
L 576.855 169.92 
L 577.5525 169.92 
L 578.25 169.92 
L 578.9475 169.92 
L 579.645 169.92 
L 580.3425 169.92 
L 581.04 169.92 
L 581.7375 169.92 
L 582.435 169.92 
L 583.1325 169.92 
L 583.83 169.92 
L 584.5275 169.92 
L 585.225 169.92 
L 585.9225 169.92 
L 586.62 169.92 
L 587.3175 169.92 
L 588.015 169.92 
L 588.7125 169.92 
L 589.41 169.92 
L 590.1075 169.92 
L 590.805 169.92 
L 591.5025 169.92 
L 592.2 169.92 
L 592.8975 169.92 
L 593.595 169.92 
L 594.2925 169.92 
L 594.99 169.92 
L 595.6875 169.92 
L 596.385 169.92 
L 597.0825 169.92 
L 597.78 169.92 
L 598.4775 169.92 
L 599.175 169.92 
L 599.8725 169.92 
L 600.57 169.92 
L 601.2675 169.92 
L 601.965 169.92 
L 602.6625 169.92 
L 603.36 169.92 
L 604.0575 169.92 
L 604.755 169.92 
L 605.4525 169.92 
L 606.15 169.92 
L 606.8475 169.92 
L 607.545 169.92 
L 608.2425 169.92 
L 608.94 169.92 
L 609.6375 169.92 
L 610.335 169.92 
L 611.0325 169.92 
L 611.73 169.92 
L 612.4275 169.92 
L 613.125 169.92 
L 613.8225 169.92 
L 614.52 169.92 
L 615.2175 169.92 
L 615.915 169.92 
L 616.6125 169.92 
L 617.31 169.92 
L 618.0075 169.92 
L 618.705 169.92 
L 619.4025 169.92 
L 620.1 169.92 
L 620.7975 169.92 
L 621.495 169.92 
L 622.1925 169.92 
L 622.89 169.92 
L 623.5875 169.92 
L 624.285 169.92 
L 624.9825 169.92 
L 625.68 169.92 
L 626.3775 169.92 
L 627.075 169.92 
L 627.7725 169.92 
L 628.47 169.92 
L 629.1675 169.92 
L 629.865 169.92 
L 630.5625 169.92 
L 631.26 169.92 
L 631.9575 169.92 
L 632.655 169.92 
L 633.3525 169.92 
L 634.05 169.92 
L 634.7475 169.92 
L 635.445 169.92 
L 636.1425 169.92 
L 636.84 169.92 
L 637.5375 169.92 
L 638.235 169.92 
L 638.9325 169.92 
L 639.63 169.92 
L 640.3275 169.92 
L 641.025 169.92 
L 641.7225 169.92 
L 642.42 169.92 
L 643.1175 169.92 
L 643.815 169.92 
L 644.5125 169.92 
L 645.21 169.92 
L 645.9075 169.92 
L 646.605 169.92 
L 646.605 169.92 
L 646.605 169.92 
L 645.9075 169.920079 
L 645.21 169.920265 
L 644.5125 169.920586 
L 643.815 169.921067 
L 643.1175 169.921735 
L 642.42 169.922615 
L 641.7225 169.923732 
L 641.025 169.92511 
L 640.3275 169.92677 
L 639.63 169.928734 
L 638.9325 169.931024 
L 638.235 169.933656 
L 637.5375 169.93665 
L 636.84 169.940021 
L 636.1425 169.943783 
L 635.445 169.947951 
L 634.7475 169.952536 
L 634.05 169.957547 
L 633.3525 169.962993 
L 632.655 169.96888 
L 631.9575 169.975214 
L 631.26 169.981996 
L 630.5625 169.989229 
L 629.865 169.996912 
L 629.1675 170.005042 
L 628.47 170.013616 
L 627.7725 170.022628 
L 627.075 170.032069 
L 626.3775 170.041932 
L 625.68 170.052205 
L 624.9825 170.062875 
L 624.285 170.073928 
L 623.5875 170.08535 
L 622.89 170.097122 
L 622.1925 170.109227 
L 621.495 170.121644 
L 620.7975 170.134353 
L 620.1 170.147331 
L 619.4025 170.160556 
L 618.705 170.174003 
L 618.0075 170.187647 
L 617.31 170.201462 
L 616.6125 170.215422 
L 615.915 170.229499 
L 615.2175 170.243667 
L 614.52 170.257896 
L 613.8225 170.272159 
L 613.125 170.286428 
L 612.4275 170.300674 
L 611.73 170.314868 
L 611.0325 170.328984 
L 610.335 170.342992 
L 609.6375 170.356866 
L 608.94 170.370578 
L 608.2425 170.384103 
L 607.545 170.397414 
L 606.8475 170.410488 
L 606.15 170.4233 
L 605.4525 170.435827 
L 604.755 170.448048 
L 604.0575 170.459943 
L 603.36 170.471492 
L 602.6625 170.482677 
L 601.965 170.493482 
L 601.2675 170.503891 
L 600.57 170.513892 
L 599.8725 170.523473 
L 599.175 170.532623 
L 598.4775 170.541333 
L 597.78 170.549598 
L 597.0825 170.557411 
L 596.385 170.56477 
L 595.6875 170.571673 
L 594.99 170.57812 
L 594.2925 170.584113 
L 593.595 170.589656 
L 592.8975 170.594755 
L 592.2 170.599416 
L 591.5025 170.603648 
L 590.805 170.607463 
L 590.1075 170.610872 
L 589.41 170.613889 
L 588.7125 170.616529 
L 588.015 170.61881 
L 587.3175 170.620749 
L 586.62 170.622366 
L 585.9225 170.623681 
L 585.225 170.624717 
L 584.5275 170.625497 
L 583.83 170.626043 
L 583.1325 170.626382 
L 582.435 170.626539 
L 581.7375 170.626541 
L 581.04 170.626413 
L 580.3425 170.626184 
L 579.645 170.625882 
L 578.9475 170.625534 
L 578.25 170.625169 
L 577.5525 170.624814 
L 576.855 170.624499 
L 576.1575 170.624251 
L 575.46 170.624098 
L 574.7625 170.624068 
L 574.065 170.624186 
L 573.3675 170.62448 
L 572.67 170.624974 
L 571.9725 170.625694 
L 571.275 170.626664 
L 570.5775 170.627906 
L 569.88 170.629441 
L 569.1825 170.631291 
L 568.485 170.633474 
L 567.7875 170.636009 
L 567.09 170.638912 
L 566.3925 170.642198 
L 565.695 170.645881 
L 564.9975 170.649972 
L 564.3 170.654482 
L 563.6025 170.659419 
L 562.905 170.664791 
L 562.2075 170.670602 
L 561.51 170.676856 
L 560.8125 170.683554 
L 560.115 170.690698 
L 559.4175 170.698283 
L 558.72 170.706308 
L 558.0225 170.714766 
L 557.325 170.723651 
L 556.6275 170.732953 
L 555.93 170.742662 
L 555.2325 170.752766 
L 554.535 170.763251 
L 553.8375 170.774102 
L 553.14 170.785303 
L 552.4425 170.796834 
L 551.745 170.808677 
L 551.0475 170.820811 
L 550.35 170.833214 
L 549.6525 170.845863 
L 548.955 170.858734 
L 548.2575 170.871802 
L 547.56 170.885042 
L 546.8625 170.898427 
L 546.165 170.911931 
L 545.4675 170.925525 
L 544.77 170.939182 
L 544.0725 170.952873 
L 543.375 170.966571 
L 542.6775 170.980247 
L 541.98 170.993873 
L 541.2825 171.00742 
L 540.585 171.020861 
L 539.8875 171.034168 
L 539.19 171.047314 
L 538.4925 171.060273 
L 537.795 171.073019 
L 537.0975 171.085527 
L 536.4 171.097773 
L 535.7025 171.109734 
L 535.005 171.121389 
L 534.3075 171.132716 
L 533.61 171.143695 
L 532.9125 171.15431 
L 532.215 171.164542 
L 531.5175 171.174377 
L 530.82 171.183801 
L 530.1225 171.192802 
L 529.425 171.201368 
L 528.7275 171.209492 
L 528.03 171.217165 
L 527.3325 171.224383 
L 526.635 171.231142 
L 525.9375 171.237439 
L 525.24 171.243275 
L 524.5425 171.248651 
L 523.845 171.253571 
L 523.1475 171.258039 
L 522.45 171.262062 
L 521.7525 171.26565 
L 521.055 171.268811 
L 520.3575 171.271559 
L 519.66 171.273906 
L 518.9625 171.275867 
L 518.265 171.27746 
L 517.5675 171.278701 
L 516.87 171.27961 
L 516.1725 171.280208 
L 515.475 171.280515 
L 514.7775 171.280556 
L 514.08 171.280353 
L 513.3825 171.279931 
L 512.685 171.279316 
L 511.9875 171.278534 
L 511.29 171.277612 
L 510.5925 171.276576 
L 509.895 171.275456 
L 509.1975 171.274278 
L 508.5 171.273072 
L 507.8025 171.271864 
L 507.105 171.270685 
L 506.4075 171.26956 
L 505.71 171.268519 
L 505.0125 171.26759 
L 504.315 171.266797 
L 503.6175 171.26617 
L 502.92 171.265732 
L 502.2225 171.265509 
L 501.525 171.265524 
L 500.8275 171.265802 
L 500.13 171.266363 
L 499.4325 171.267229 
L 498.735 171.268419 
L 498.0375 171.269952 
L 497.34 171.271844 
L 496.6425 171.27411 
L 495.945 171.276765 
L 495.2475 171.279821 
L 494.55 171.283288 
L 493.8525 171.287176 
L 493.155 171.291491 
L 492.4575 171.29624 
L 491.76 171.301426 
L 491.0625 171.307052 
L 490.365 171.313117 
L 489.6675 171.31962 
L 488.97 171.326558 
L 488.2725 171.333926 
L 487.575 171.341717 
L 486.8775 171.349922 
L 486.18 171.358532 
L 485.4825 171.367535 
L 484.785 171.376918 
L 484.0875 171.386664 
L 483.39 171.396759 
L 482.6925 171.407185 
L 481.995 171.417921 
L 481.2975 171.428948 
L 480.6 171.440245 
L 479.9025 171.451787 
L 479.205 171.463553 
L 478.5075 171.475516 
L 477.81 171.487652 
L 477.1125 171.499935 
L 476.415 171.512337 
L 475.7175 171.52483 
L 475.02 171.537389 
L 474.3225 171.549983 
L 473.625 171.562586 
L 472.9275 171.575168 
L 472.23 171.587701 
L 471.5325 171.600158 
L 470.835 171.612509 
L 470.1375 171.624728 
L 469.44 171.636788 
L 468.7425 171.648661 
L 468.045 171.660322 
L 467.3475 171.671746 
L 466.65 171.682909 
L 465.9525 171.693788 
L 465.255 171.704359 
L 464.5575 171.714603 
L 463.86 171.7245 
L 463.1625 171.73403 
L 462.465 171.743178 
L 461.7675 171.751926 
L 461.07 171.760262 
L 460.3725 171.768172 
L 459.675 171.775646 
L 458.9775 171.782674 
L 458.28 171.789249 
L 457.5825 171.795365 
L 456.885 171.801017 
L 456.1875 171.806204 
L 455.49 171.810925 
L 454.7925 171.815181 
L 454.095 171.818974 
L 453.3975 171.82231 
L 452.7 171.825196 
L 452.0025 171.827638 
L 451.305 171.829648 
L 450.6075 171.831237 
L 449.91 171.832417 
L 449.2125 171.833203 
L 448.515 171.833612 
L 447.8175 171.833661 
L 447.12 171.833369 
L 446.4225 171.832757 
L 445.725 171.831844 
L 445.0275 171.830655 
L 444.33 171.829213 
L 443.6325 171.827541 
L 442.935 171.825666 
L 442.2375 171.823614 
L 441.54 171.821411 
L 440.8425 171.819084 
L 440.145 171.816661 
L 439.4475 171.81417 
L 438.75 171.811639 
L 438.0525 171.809097 
L 437.355 171.806572 
L 436.6575 171.804091 
L 435.96 171.801684 
L 435.2625 171.799376 
L 434.565 171.797196 
L 433.8675 171.79517 
L 433.17 171.793324 
L 432.4725 171.791683 
L 431.775 171.790271 
L 431.0775 171.789112 
L 430.38 171.788227 
L 429.6825 171.787638 
L 428.985 171.787365 
L 428.2875 171.787425 
L 427.59 171.787837 
L 426.8925 171.788616 
L 426.195 171.789777 
L 425.4975 171.791331 
L 424.8 171.793291 
L 424.1025 171.795665 
L 423.405 171.798461 
L 422.7075 171.801685 
L 422.01 171.805341 
L 421.3125 171.809433 
L 420.615 171.81396 
L 419.9175 171.818922 
L 419.22 171.824315 
L 418.5225 171.830135 
L 417.825 171.836376 
L 417.1275 171.84303 
L 416.43 171.850087 
L 415.7325 171.857535 
L 415.035 171.865362 
L 414.3375 171.873553 
L 413.64 171.882092 
L 412.9425 171.890961 
L 412.245 171.900143 
L 411.5475 171.909615 
L 410.85 171.919358 
L 410.1525 171.929349 
L 409.455 171.939564 
L 408.7575 171.949979 
L 408.06 171.960568 
L 407.3625 171.971306 
L 406.665 171.982166 
L 405.9675 171.99312 
L 405.27 172.004141 
L 404.5725 172.015201 
L 403.875 172.026271 
L 403.1775 172.037324 
L 402.48 172.048331 
L 401.7825 172.059263 
L 401.085 172.070093 
L 400.3875 172.080793 
L 399.69 172.091336 
L 398.9925 172.101695 
L 398.295 172.111844 
L 397.5975 172.121758 
L 396.9 172.131412 
L 396.2025 172.140784 
L 395.505 172.14985 
L 394.8075 172.158589 
L 394.11 172.166981 
L 393.4125 172.175008 
L 392.715 172.182652 
L 392.0175 172.189898 
L 391.32 172.196729 
L 390.6225 172.203135 
L 389.925 172.209103 
L 389.2275 172.214623 
L 388.53 172.219689 
L 387.8325 172.224293 
L 387.135 172.228431 
L 386.4375 172.2321 
L 385.74 172.235299 
L 385.0425 172.23803 
L 384.345 172.240294 
L 383.6475 172.242097 
L 382.95 172.243443 
L 382.2525 172.244341 
L 381.555 172.244801 
L 380.8575 172.244833 
L 380.16 172.24445 
L 379.4625 172.243667 
L 378.765 172.2425 
L 378.0675 172.240965 
L 377.37 172.239081 
L 376.6725 172.236868 
L 375.975 172.234348 
L 375.2775 172.231542 
L 374.58 172.228474 
L 373.8825 172.225169 
L 373.185 172.221651 
L 372.4875 172.217946 
L 371.79 172.214081 
L 371.0925 172.210083 
L 370.395 172.205979 
L 369.6975 172.201798 
L 369 172.197568 
L 368.3025 172.193316 
L 367.605 172.189072 
L 366.9075 172.184864 
L 366.21 172.180718 
L 365.5125 172.176664 
L 364.815 172.172728 
L 364.1175 172.168937 
L 363.42 172.165317 
L 362.7225 172.161893 
L 362.025 172.15869 
L 361.3275 172.155731 
L 360.63 172.153039 
L 359.9325 172.150635 
L 359.235 172.14854 
L 358.5375 172.146771 
L 357.84 172.145347 
L 357.1425 172.144284 
L 356.445 172.143596 
L 355.7475 172.143297 
L 355.05 172.143397 
L 354.3525 172.143907 
L 353.655 172.144835 
L 352.9575 172.146187 
L 352.26 172.147967 
L 351.5625 172.15018 
L 350.865 172.152825 
L 350.1675 172.155902 
L 349.47 172.159409 
L 348.7725 172.163341 
L 348.075 172.167693 
L 347.3775 172.172457 
L 346.68 172.177624 
L 345.9825 172.183183 
L 345.285 172.18912 
L 344.5875 172.195422 
L 343.89 172.202074 
L 343.1925 172.209057 
L 342.495 172.216354 
L 341.7975 172.223944 
L 341.1 172.231808 
L 340.4025 172.239921 
L 339.705 172.248262 
L 339.0075 172.256806 
L 338.31 172.265527 
L 337.6125 172.274401 
L 336.915 172.283399 
L 336.2175 172.292497 
L 335.52 172.301665 
L 334.8225 172.310875 
L 334.125 172.320101 
L 333.4275 172.329312 
L 332.73 172.338482 
L 332.0325 172.347581 
L 331.335 172.356582 
L 330.6375 172.365457 
L 329.94 172.374178 
L 329.2425 172.38272 
L 328.545 172.391055 
L 327.8475 172.399158 
L 327.15 172.407005 
L 326.4525 172.414571 
L 325.755 172.421836 
L 325.0575 172.428776 
L 324.36 172.435371 
L 323.6625 172.441603 
L 322.965 172.447454 
L 322.2675 172.452907 
L 321.57 172.457947 
L 320.8725 172.462562 
L 320.175 172.46674 
L 319.4775 172.470471 
L 318.78 172.473745 
L 318.0825 172.476558 
L 317.385 172.478903 
L 316.6875 172.480778 
L 315.99 172.482182 
L 315.2925 172.483114 
L 314.595 172.483577 
L 313.8975 172.483575 
L 313.2 172.483113 
L 312.5025 172.4822 
L 311.805 172.480844 
L 311.1075 172.479055 
L 310.41 172.476847 
L 309.7125 172.474233 
L 309.015 172.471229 
L 308.3175 172.467852 
L 307.62 172.46412 
L 306.9225 172.460053 
L 306.225 172.455671 
L 305.5275 172.450996 
L 304.83 172.446053 
L 304.1325 172.440864 
L 303.435 172.435456 
L 302.7375 172.429852 
L 302.04 172.424081 
L 301.3425 172.418169 
L 300.645 172.412144 
L 299.9475 172.406033 
L 299.25 172.399864 
L 298.5525 172.393667 
L 297.855 172.387469 
L 297.1575 172.381298 
L 296.46 172.375182 
L 295.7625 172.36915 
L 295.065 172.363228 
L 294.3675 172.357444 
L 293.67 172.351823 
L 292.9725 172.346392 
L 292.275 172.341174 
L 291.5775 172.336194 
L 290.88 172.331474 
L 290.1825 172.327036 
L 289.485 172.3229 
L 288.7875 172.319086 
L 288.09 172.315612 
L 287.3925 172.312493 
L 286.695 172.309745 
L 285.9975 172.307381 
L 285.3 172.305413 
L 284.6025 172.303851 
L 283.905 172.302704 
L 283.2075 172.301979 
L 282.51 172.30168 
L 281.8125 172.301811 
L 281.115 172.302373 
L 280.4175 172.303367 
L 279.72 172.30479 
L 279.0225 172.306639 
L 278.325 172.308907 
L 277.6275 172.311588 
L 276.93 172.314673 
L 276.2325 172.318151 
L 275.535 172.32201 
L 274.8375 172.326236 
L 274.14 172.330814 
L 273.4425 172.335727 
L 272.745 172.340957 
L 272.0475 172.346484 
L 271.35 172.352287 
L 270.6525 172.358345 
L 269.955 172.364634 
L 269.2575 172.371131 
L 268.56 172.377811 
L 267.8625 172.384648 
L 267.165 172.391615 
L 266.4675 172.398686 
L 265.77 172.405833 
L 265.0725 172.413029 
L 264.375 172.420244 
L 263.6775 172.427451 
L 262.98 172.434622 
L 262.2825 172.441729 
L 261.585 172.448742 
L 260.8875 172.455635 
L 260.19 172.46238 
L 259.4925 172.468951 
L 258.795 172.47532 
L 258.0975 172.481462 
L 257.4 172.487353 
L 256.7025 172.492968 
L 256.005 172.498285 
L 255.3075 172.503282 
L 254.61 172.507938 
L 253.9125 172.512235 
L 253.215 172.516153 
L 252.5175 172.519677 
L 251.82 172.522791 
L 251.1225 172.525482 
L 250.425 172.527738 
L 249.7275 172.529548 
L 249.03 172.530904 
L 248.3325 172.531798 
L 247.635 172.532225 
L 246.9375 172.532183 
L 246.24 172.531668 
L 245.5425 172.530682 
L 244.845 172.529225 
L 244.1475 172.527302 
L 243.45 172.524918 
L 242.7525 172.522079 
L 242.055 172.518795 
L 241.3575 172.515076 
L 240.66 172.510934 
L 239.9625 172.506383 
L 239.265 172.501438 
L 238.5675 172.496115 
L 237.87 172.490433 
L 237.1725 172.484411 
L 236.475 172.478069 
L 235.7775 172.47143 
L 235.08 172.464516 
L 234.3825 172.457351 
L 233.685 172.44996 
L 232.9875 172.442369 
L 232.29 172.434603 
L 231.5925 172.42669 
L 230.895 172.418658 
L 230.1975 172.410534 
L 229.5 172.402346 
L 228.8025 172.394122 
L 228.105 172.385891 
L 227.4075 172.377681 
L 226.71 172.36952 
L 226.0125 172.361436 
L 225.315 172.353457 
L 224.6175 172.345609 
L 223.92 172.337919 
L 223.2225 172.330412 
L 222.525 172.323114 
L 221.8275 172.316049 
L 221.13 172.309238 
L 220.4325 172.302705 
L 219.735 172.29647 
L 219.0375 172.290552 
L 218.34 172.284971 
L 217.6425 172.279741 
L 216.945 172.27488 
L 216.2475 172.2704 
L 215.55 172.266313 
L 214.8525 172.262631 
L 214.155 172.259363 
L 213.4575 172.256515 
L 212.76 172.254092 
L 212.0625 172.2521 
L 211.365 172.250539 
L 210.6675 172.24941 
L 209.97 172.248711 
L 209.2725 172.24844 
L 208.575 172.24859 
L 207.8775 172.249155 
L 207.18 172.250127 
L 206.4825 172.251494 
L 205.785 172.253247 
L 205.0875 172.25537 
L 204.39 172.257849 
L 203.6925 172.260667 
L 202.995 172.263807 
L 202.2975 172.26725 
L 201.6 172.270975 
L 200.9025 172.274959 
L 200.205 172.279182 
L 199.5075 172.283618 
L 198.81 172.288243 
L 198.1125 172.293032 
L 197.415 172.297959 
L 196.7175 172.302995 
L 196.02 172.308115 
L 195.3225 172.313291 
L 194.625 172.318493 
L 193.9275 172.323695 
L 193.23 172.328868 
L 192.5325 172.333984 
L 191.835 172.339013 
L 191.1375 172.34393 
L 190.44 172.348705 
L 189.7425 172.353313 
L 189.045 172.357726 
L 188.3475 172.36192 
L 187.65 172.365868 
L 186.9525 172.369547 
L 186.255 172.372934 
L 185.5575 172.376007 
L 184.86 172.378745 
L 184.1625 172.381128 
L 183.465 172.383138 
L 182.7675 172.384758 
L 182.07 172.385973 
L 181.3725 172.386769 
L 180.675 172.387134 
L 179.9775 172.387056 
L 179.28 172.386526 
L 178.5825 172.385538 
L 177.885 172.384085 
L 177.1875 172.382164 
L 176.49 172.379773 
L 175.7925 172.37691 
L 175.095 172.373579 
L 174.3975 172.369781 
L 173.7 172.365521 
L 173.0025 172.360808 
L 172.305 172.355647 
L 171.6075 172.350051 
L 170.91 172.34403 
L 170.2125 172.337599 
L 169.515 172.33077 
L 168.8175 172.323562 
L 168.12 172.315992 
L 167.4225 172.308078 
L 166.725 172.299842 
L 166.0275 172.291304 
L 165.33 172.282488 
L 164.6325 172.273417 
L 163.935 172.264115 
L 163.2375 172.254609 
L 162.54 172.244924 
L 161.8425 172.235088 
L 161.145 172.225127 
L 160.4475 172.215069 
L 159.75 172.204943 
L 159.0525 172.194776 
L 158.355 172.184598 
L 157.6575 172.174435 
L 156.96 172.164317 
L 156.2625 172.154271 
L 155.565 172.144326 
L 154.8675 172.134507 
L 154.17 172.124842 
L 153.4725 172.115357 
L 152.775 172.106076 
L 152.0775 172.097024 
L 151.38 172.088224 
L 150.6825 172.079698 
L 149.985 172.071467 
L 149.2875 172.063551 
L 148.59 172.055969 
L 147.8925 172.048738 
L 147.195 172.041873 
L 146.4975 172.035388 
L 145.8 172.029297 
L 145.1025 172.023609 
L 144.405 172.018335 
L 143.7075 172.013482 
L 143.01 172.009055 
L 142.3125 172.00506 
L 141.615 172.001498 
L 140.9175 171.99837 
L 140.22 171.995675 
L 139.5225 171.99341 
L 138.825 171.99157 
L 138.1275 171.990148 
L 137.43 171.989138 
L 136.7325 171.988528 
L 136.035 171.988308 
L 135.3375 171.988464 
L 134.64 171.988981 
L 133.9425 171.989844 
L 133.245 171.991035 
L 132.5475 171.992535 
L 131.85 171.994324 
L 131.1525 171.996381 
L 130.455 171.998683 
L 129.7575 172.001206 
L 129.06 172.003926 
L 128.3625 172.006819 
L 127.665 172.009856 
L 126.9675 172.013013 
L 126.27 172.016262 
L 125.5725 172.019574 
L 124.875 172.022923 
L 124.1775 172.02628 
L 123.48 172.029617 
L 122.7825 172.032905 
L 122.085 172.036116 
L 121.3875 172.039222 
L 120.69 172.042197 
L 119.9925 172.045012 
L 119.295 172.047641 
L 118.5975 172.050058 
L 117.9 172.052239 
L 117.2025 172.054158 
L 116.505 172.055793 
L 115.8075 172.057121 
L 115.11 172.058122 
L 114.4125 172.058774 
L 113.715 172.059061 
L 113.0175 172.058963 
L 112.32 172.058467 
L 111.6225 172.057557 
L 110.925 172.056221 
L 110.2275 172.054447 
L 109.53 172.052227 
L 108.8325 172.049552 
L 108.135 172.046417 
L 107.4375 172.042817 
L 106.74 172.038749 
L 106.0425 172.034213 
L 105.345 172.02921 
L 104.6475 172.023743 
L 103.95 172.017816 
L 103.2525 172.011436 
L 102.555 172.00461 
L 101.8575 171.997348 
L 101.16 171.989662 
L 100.4625 171.981565 
L 99.765 171.973071 
L 99.0675 171.964195 
L 98.37 171.954957 
L 97.6725 171.945373 
L 96.975 171.935465 
L 96.2775 171.925254 
L 95.58 171.914762 
L 94.8825 171.904013 
L 94.185 171.89303 
L 93.4875 171.88184 
L 92.79 171.870469 
L 92.0925 171.858943 
L 91.395 171.847289 
L 90.6975 171.835535 
L 90 171.823709 
z
" style="fill:#e0ffff;"/>
   </g>
   <g id="line2d_19">
    <path clip-path="url(#pb8f0592abc)" d="M 90 171.823709 
L 109.53 172.052227 
L 129.06 172.003926 
L 147.195 172.041873 
L 189.7425 172.353313 
L 217.6425 172.279741 
L 258.0975 172.481462 
L 288.7875 172.319086 
L 326.4525 172.414571 
L 360.63 172.153039 
L 393.4125 172.175008 
L 435.2625 171.799376 
L 459.675 171.775646 
L 479.9025 171.451787 
L 497.34 171.271844 
L 539.19 171.047314 
L 566.3925 170.642198 
L 611.0325 170.328984 
L 634.7475 169.952536 
L 646.605 169.92 
L 646.605 169.92 
" style="fill:none;stroke:#008080;stroke-linecap:round;stroke-width:1.75;"/>
   </g>
   <g id="patch_3">
    <path d="M 90 270.72 
L 90 69.12 
" style="fill:none;stroke:#262626;stroke-linecap:square;stroke-linejoin:miter;stroke-width:1.25;"/>
   </g>
   <g id="patch_4">
    <path d="M 90 270.72 
L 648 270.72 
" style="fill:none;stroke:#262626;stroke-linecap:square;stroke-linejoin:miter;stroke-width:1.25;"/>
   </g>
  </g>
  <g id="axes_2">
   <g id="patch_5">
    <path d="M 90 512.64 
L 648 512.64 
L 648 311.04 
L 90 311.04 
z
" style="fill:#ffffff;"/>
   </g>
   <g id="matplotlib.axis_3">
    <g id="xtick_10">
     <g id="line2d_20">
      <g>
       <use style="fill:#262626;stroke:#262626;" x="190.44" xlink:href="#m9a1738b730" y="512.64"/>
      </g>
     </g>
     <g id="text_19">
      <!-- 200 -->
      <g style="fill:#262626;" transform="translate(182.098594 532.797812)scale(0.1 -0.1)">
       <use xlink:href="#ArialMT-32"/>
       <use x="55.615234" xlink:href="#ArialMT-30"/>
       <use x="111.230469" xlink:href="#ArialMT-30"/>
      </g>
     </g>
    </g>
    <g id="xtick_11">
     <g id="line2d_21">
      <g>
       <use style="fill:#262626;stroke:#262626;" x="302.04" xlink:href="#m9a1738b730" y="512.64"/>
      </g>
     </g>
     <g id="text_20">
      <!-- 400 -->
      <g style="fill:#262626;" transform="translate(293.698594 532.797812)scale(0.1 -0.1)">
       <use xlink:href="#ArialMT-34"/>
       <use x="55.615234" xlink:href="#ArialMT-30"/>
       <use x="111.230469" xlink:href="#ArialMT-30"/>
      </g>
     </g>
    </g>
    <g id="xtick_12">
     <g id="line2d_22">
      <g>
       <use style="fill:#262626;stroke:#262626;" x="413.64" xlink:href="#m9a1738b730" y="512.64"/>
      </g>
     </g>
     <g id="text_21">
      <!-- 600 -->
      <g style="fill:#262626;" transform="translate(405.298594 532.797812)scale(0.1 -0.1)">
       <use xlink:href="#ArialMT-36"/>
       <use x="55.615234" xlink:href="#ArialMT-30"/>
       <use x="111.230469" xlink:href="#ArialMT-30"/>
      </g>
     </g>
    </g>
    <g id="xtick_13">
     <g id="line2d_23">
      <g>
       <use style="fill:#262626;stroke:#262626;" x="525.24" xlink:href="#m9a1738b730" y="512.64"/>
      </g>
     </g>
     <g id="text_22">
      <!-- 800 -->
      <g style="fill:#262626;" transform="translate(516.898594 532.797812)scale(0.1 -0.1)">
       <use xlink:href="#ArialMT-38"/>
       <use x="55.615234" xlink:href="#ArialMT-30"/>
       <use x="111.230469" xlink:href="#ArialMT-30"/>
      </g>
     </g>
    </g>
    <g id="xtick_14">
     <g id="line2d_24">
      <g>
       <use style="fill:#262626;stroke:#262626;" x="636.84" xlink:href="#m9a1738b730" y="512.64"/>
      </g>
     </g>
     <g id="text_23">
      <!-- 1000 -->
      <g style="fill:#262626;" transform="translate(625.718125 532.797812)scale(0.1 -0.1)">
       <use xlink:href="#ArialMT-31"/>
       <use x="55.615234" xlink:href="#ArialMT-30"/>
       <use x="111.230469" xlink:href="#ArialMT-30"/>
       <use x="166.845703" xlink:href="#ArialMT-30"/>
      </g>
     </g>
    </g>
   </g>
   <g id="matplotlib.axis_4">
    <g id="ytick_10">
     <g id="line2d_25">
      <g>
       <use style="fill:#262626;stroke:#262626;" x="90" xlink:href="#m55cf75a884" y="512.64"/>
      </g>
     </g>
     <g id="text_24">
      <!-- 0 -->
      <g style="fill:#262626;" transform="translate(71.439063 516.218906)scale(0.1 -0.1)">
       <use xlink:href="#ArialMT-30"/>
      </g>
     </g>
    </g>
    <g id="ytick_11">
     <g id="line2d_26">
      <g>
       <use style="fill:#262626;stroke:#262626;" x="90" xlink:href="#m55cf75a884" y="483.84"/>
      </g>
     </g>
     <g id="text_25">
      <!-- 10 -->
      <g style="fill:#262626;" transform="translate(65.878125 487.418906)scale(0.1 -0.1)">
       <use xlink:href="#ArialMT-31"/>
       <use x="55.615234" xlink:href="#ArialMT-30"/>
      </g>
     </g>
    </g>
    <g id="ytick_12">
     <g id="line2d_27">
      <g>
       <use style="fill:#262626;stroke:#262626;" x="90" xlink:href="#m55cf75a884" y="455.04"/>
      </g>
     </g>
     <g id="text_26">
      <!-- 20 -->
      <g style="fill:#262626;" transform="translate(65.878125 458.618906)scale(0.1 -0.1)">
       <use xlink:href="#ArialMT-32"/>
       <use x="55.615234" xlink:href="#ArialMT-30"/>
      </g>
     </g>
    </g>
    <g id="ytick_13">
     <g id="line2d_28">
      <g>
       <use style="fill:#262626;stroke:#262626;" x="90" xlink:href="#m55cf75a884" y="426.24"/>
      </g>
     </g>
     <g id="text_27">
      <!-- 30 -->
      <g style="fill:#262626;" transform="translate(65.878125 429.818906)scale(0.1 -0.1)">
       <use xlink:href="#ArialMT-33"/>
       <use x="55.615234" xlink:href="#ArialMT-30"/>
      </g>
     </g>
    </g>
    <g id="ytick_14">
     <g id="line2d_29">
      <g>
       <use style="fill:#262626;stroke:#262626;" x="90" xlink:href="#m55cf75a884" y="397.44"/>
      </g>
     </g>
     <g id="text_28">
      <!-- 40 -->
      <g style="fill:#262626;" transform="translate(65.878125 401.018906)scale(0.1 -0.1)">
       <use xlink:href="#ArialMT-34"/>
       <use x="55.615234" xlink:href="#ArialMT-30"/>
      </g>
     </g>
    </g>
    <g id="ytick_15">
     <g id="line2d_30">
      <g>
       <use style="fill:#262626;stroke:#262626;" x="90" xlink:href="#m55cf75a884" y="368.64"/>
      </g>
     </g>
     <g id="text_29">
      <!-- 50 -->
      <g style="fill:#262626;" transform="translate(65.878125 372.218906)scale(0.1 -0.1)">
       <use xlink:href="#ArialMT-35"/>
       <use x="55.615234" xlink:href="#ArialMT-30"/>
      </g>
     </g>
    </g>
    <g id="ytick_16">
     <g id="line2d_31">
      <g>
       <use style="fill:#262626;stroke:#262626;" x="90" xlink:href="#m55cf75a884" y="339.84"/>
      </g>
     </g>
     <g id="text_30">
      <!-- 60 -->
      <g style="fill:#262626;" transform="translate(65.878125 343.418906)scale(0.1 -0.1)">
       <use xlink:href="#ArialMT-36"/>
       <use x="55.615234" xlink:href="#ArialMT-30"/>
      </g>
     </g>
    </g>
    <g id="ytick_17">
     <g id="line2d_32">
      <g>
       <use style="fill:#262626;stroke:#262626;" x="90" xlink:href="#m55cf75a884" y="311.04"/>
      </g>
     </g>
     <g id="text_31">
      <!-- 70 -->
      <g style="fill:#262626;" transform="translate(65.878125 314.618906)scale(0.1 -0.1)">
       <use xlink:href="#ArialMT-37"/>
       <use x="55.615234" xlink:href="#ArialMT-30"/>
      </g>
     </g>
    </g>
   </g>
   <g id="line2d_33">
    <path clip-path="url(#p5781dbd403)" d="M 90 495.208 
" style="fill:none;stroke:#b22222;stroke-linecap:round;stroke-width:1.75;"/>
   </g>
   <g id="patch_6">
    <path d="M 90 512.64 
L 90 311.04 
" style="fill:none;stroke:#262626;stroke-linecap:square;stroke-linejoin:miter;stroke-width:1.25;"/>
   </g>
   <g id="patch_7">
    <path d="M 90 512.64 
L 648 512.64 
" style="fill:none;stroke:#262626;stroke-linecap:square;stroke-linejoin:miter;stroke-width:1.25;"/>
   </g>
   <g id="text_32">
    <!-- f = 20 -->
    <defs>
     <path d="M 8.6875 0 
L 8.6875 45.015625 
L 0.921875 45.015625 
L 0.921875 51.859375 
L 8.6875 51.859375 
L 8.6875 57.375 
Q 8.6875 62.59375 9.625 65.140625 
Q 10.890625 68.5625 14.078125 70.671875 
Q 17.28125 72.796875 23.046875 72.796875 
Q 26.765625 72.796875 31.25 71.921875 
L 29.9375 64.265625 
Q 27.203125 64.75 24.75 64.75 
Q 20.75 64.75 19.09375 63.03125 
Q 17.4375 61.328125 17.4375 56.640625 
L 17.4375 51.859375 
L 27.546875 51.859375 
L 27.546875 45.015625 
L 17.4375 45.015625 
L 17.4375 0 
z
" id="ArialMT-66"/>
     <path id="ArialMT-20"/>
     <path d="M 52.828125 42.09375 
L 5.5625 42.09375 
L 5.5625 50.296875 
L 52.828125 50.296875 
z
M 52.828125 20.359375 
L 5.5625 20.359375 
L 5.5625 28.5625 
L 52.828125 28.5625 
z
" id="ArialMT-3d"/>
    </defs>
    <g style="fill:#262626;" transform="translate(525.24 371.742188)scale(0.12 -0.12)">
     <use xlink:href="#ArialMT-66"/>
     <use x="27.783203" xlink:href="#ArialMT-20"/>
     <use x="55.566406" xlink:href="#ArialMT-3d"/>
     <use x="113.964844" xlink:href="#ArialMT-20"/>
     <use x="141.748047" xlink:href="#ArialMT-32"/>
     <use x="197.363281" xlink:href="#ArialMT-30"/>
    </g>
   </g>
   <g id="PathCollection_1">
    <defs>
     <path d="M 0 3.5 
C 0.928211 3.5 1.81853 3.131218 2.474874 2.474874 
C 3.131218 1.81853 3.5 0.928211 3.5 0 
C 3.5 -0.928211 3.131218 -1.81853 2.474874 -2.474874 
C 1.81853 -3.131218 0.928211 -3.5 0 -3.5 
C -0.928211 -3.5 -1.81853 -3.131218 -2.474874 -2.474874 
C -3.131218 -1.81853 -3.5 -0.928211 -3.5 0 
C -3.5 0.928211 -3.131218 1.81853 -2.474874 2.474874 
C -1.81853 3.131218 -0.928211 3.5 0 3.5 
z
" id="m16b06703db" style="stroke:#800000;stroke-width:0.3;"/>
    </defs>
    <g clip-path="url(#p5781dbd403)">
     <use style="fill:#800000;stroke:#800000;stroke-width:0.3;" x="90" xlink:href="#m16b06703db" y="495.208"/>
    </g>
   </g>
  </g>
 </g>
 <defs>
  <clipPath id="pb8f0592abc">
   <rect height="201.6" width="558" x="90" y="69.12"/>
  </clipPath>
  <clipPath id="p5781dbd403">
   <rect height="201.6" width="558" x="90" y="311.04"/>
  </clipPath>
 </defs>
</svg>
