<?xml version="1.0" encoding="utf-8" standalone="no"?>
<!DOCTYPE svg PUBLIC "-//W3C//DTD SVG 1.1//EN"
  "http://www.w3.org/Graphics/SVG/1.1/DTD/svg11.dtd">
<!-- Created with matplotlib (http://matplotlib.org/) -->
<svg height="576pt" version="1.1" viewBox="0 0 720 576" width="720pt" xmlns="http://www.w3.org/2000/svg" xmlns:xlink="http://www.w3.org/1999/xlink">
 <defs>
  <style type="text/css">
*{stroke-linecap:butt;stroke-linejoin:round;}
  </style>
 </defs>
 <g id="figure_1">
  <g id="patch_1">
   <path d="M 0 576 
L 720 576 
L 720 0 
L 0 0 
z
" style="fill:#ffffff;"/>
  </g>
  <g id="axes_1">
   <g id="patch_2">
    <path d="M 90 270.72 
L 648 270.72 
L 648 69.12 
L 90 69.12 
z
" style="fill:#ffffff;"/>
   </g>
   <g id="matplotlib.axis_1">
    <g id="xtick_1">
     <g id="line2d_1">
      <defs>
       <path d="M 0 0 
L 0 6 
" id="mc7f80ce147" style="stroke:#262626;"/>
      </defs>
      <g>
       <use style="fill:#262626;stroke:#262626;" x="90" xlink:href="#mc7f80ce147" y="270.72"/>
      </g>
     </g>
     <g id="text_1">
      <!-- 0 -->
      <defs>
       <path d="M 4.15625 35.296875 
Q 4.15625 48 6.765625 55.734375 
Q 9.375 63.484375 14.515625 67.671875 
Q 19.671875 71.875 27.484375 71.875 
Q 33.25 71.875 37.59375 69.546875 
Q 41.9375 67.234375 44.765625 62.859375 
Q 47.609375 58.5 49.21875 52.21875 
Q 50.828125 45.953125 50.828125 35.296875 
Q 50.828125 22.703125 48.234375 14.96875 
Q 45.65625 7.234375 40.5 3 
Q 35.359375 -1.21875 27.484375 -1.21875 
Q 17.140625 -1.21875 11.234375 6.203125 
Q 4.15625 15.140625 4.15625 35.296875 
z
M 13.1875 35.296875 
Q 13.1875 17.671875 17.3125 11.828125 
Q 21.4375 6 27.484375 6 
Q 33.546875 6 37.671875 11.859375 
Q 41.796875 17.71875 41.796875 35.296875 
Q 41.796875 52.984375 37.671875 58.78125 
Q 33.546875 64.59375 27.390625 64.59375 
Q 21.34375 64.59375 17.71875 59.46875 
Q 13.1875 52.9375 13.1875 35.296875 
z
" id="ArialMT-30"/>
      </defs>
      <g style="fill:#262626;" transform="translate(87.219531 290.877812)scale(0.1 -0.1)">
       <use xlink:href="#ArialMT-30"/>
      </g>
     </g>
    </g>
    <g id="xtick_2">
     <g id="line2d_2">
      <g>
       <use style="fill:#262626;stroke:#262626;" x="159.75" xlink:href="#mc7f80ce147" y="270.72"/>
      </g>
     </g>
     <g id="text_2">
      <!-- 100 -->
      <defs>
       <path d="M 37.25 0 
L 28.46875 0 
L 28.46875 56 
Q 25.296875 52.984375 20.140625 49.953125 
Q 14.984375 46.921875 10.890625 45.40625 
L 10.890625 53.90625 
Q 18.265625 57.375 23.78125 62.296875 
Q 29.296875 67.234375 31.59375 71.875 
L 37.25 71.875 
z
" id="ArialMT-31"/>
      </defs>
      <g style="fill:#262626;" transform="translate(151.408594 290.877812)scale(0.1 -0.1)">
       <use xlink:href="#ArialMT-31"/>
       <use x="55.615234" xlink:href="#ArialMT-30"/>
       <use x="111.230469" xlink:href="#ArialMT-30"/>
      </g>
     </g>
    </g>
    <g id="xtick_3">
     <g id="line2d_3">
      <g>
       <use style="fill:#262626;stroke:#262626;" x="229.5" xlink:href="#mc7f80ce147" y="270.72"/>
      </g>
     </g>
     <g id="text_3">
      <!-- 200 -->
      <defs>
       <path d="M 50.34375 8.453125 
L 50.34375 0 
L 3.03125 0 
Q 2.9375 3.171875 4.046875 6.109375 
Q 5.859375 10.9375 9.828125 15.625 
Q 13.8125 20.3125 21.34375 26.46875 
Q 33.015625 36.03125 37.109375 41.625 
Q 41.21875 47.21875 41.21875 52.203125 
Q 41.21875 57.421875 37.46875 61 
Q 33.734375 64.59375 27.734375 64.59375 
Q 21.390625 64.59375 17.578125 60.78125 
Q 13.765625 56.984375 13.71875 50.25 
L 4.6875 51.171875 
Q 5.609375 61.28125 11.65625 66.578125 
Q 17.71875 71.875 27.9375 71.875 
Q 38.234375 71.875 44.234375 66.15625 
Q 50.25 60.453125 50.25 52 
Q 50.25 47.703125 48.484375 43.546875 
Q 46.734375 39.40625 42.65625 34.8125 
Q 38.578125 30.21875 29.109375 22.21875 
Q 21.1875 15.578125 18.9375 13.203125 
Q 16.703125 10.84375 15.234375 8.453125 
z
" id="ArialMT-32"/>
      </defs>
      <g style="fill:#262626;" transform="translate(221.158594 290.877812)scale(0.1 -0.1)">
       <use xlink:href="#ArialMT-32"/>
       <use x="55.615234" xlink:href="#ArialMT-30"/>
       <use x="111.230469" xlink:href="#ArialMT-30"/>
      </g>
     </g>
    </g>
    <g id="xtick_4">
     <g id="line2d_4">
      <g>
       <use style="fill:#262626;stroke:#262626;" x="299.25" xlink:href="#mc7f80ce147" y="270.72"/>
      </g>
     </g>
     <g id="text_4">
      <!-- 300 -->
      <defs>
       <path d="M 4.203125 18.890625 
L 12.984375 20.0625 
Q 14.5 12.59375 18.140625 9.296875 
Q 21.78125 6 27 6 
Q 33.203125 6 37.46875 10.296875 
Q 41.75 14.59375 41.75 20.953125 
Q 41.75 27 37.796875 30.921875 
Q 33.84375 34.859375 27.734375 34.859375 
Q 25.25 34.859375 21.53125 33.890625 
L 22.515625 41.609375 
Q 23.390625 41.5 23.921875 41.5 
Q 29.546875 41.5 34.03125 44.421875 
Q 38.53125 47.359375 38.53125 53.46875 
Q 38.53125 58.296875 35.25 61.46875 
Q 31.984375 64.65625 26.8125 64.65625 
Q 21.6875 64.65625 18.265625 61.421875 
Q 14.84375 58.203125 13.875 51.765625 
L 5.078125 53.328125 
Q 6.6875 62.15625 12.390625 67.015625 
Q 18.109375 71.875 26.609375 71.875 
Q 32.46875 71.875 37.390625 69.359375 
Q 42.328125 66.84375 44.9375 62.5 
Q 47.5625 58.15625 47.5625 53.265625 
Q 47.5625 48.640625 45.0625 44.828125 
Q 42.578125 41.015625 37.703125 38.765625 
Q 44.046875 37.3125 47.5625 32.6875 
Q 51.078125 28.078125 51.078125 21.140625 
Q 51.078125 11.765625 44.234375 5.25 
Q 37.40625 -1.265625 26.953125 -1.265625 
Q 17.53125 -1.265625 11.296875 4.34375 
Q 5.078125 9.96875 4.203125 18.890625 
z
" id="ArialMT-33"/>
      </defs>
      <g style="fill:#262626;" transform="translate(290.908594 290.877812)scale(0.1 -0.1)">
       <use xlink:href="#ArialMT-33"/>
       <use x="55.615234" xlink:href="#ArialMT-30"/>
       <use x="111.230469" xlink:href="#ArialMT-30"/>
      </g>
     </g>
    </g>
    <g id="xtick_5">
     <g id="line2d_5">
      <g>
       <use style="fill:#262626;stroke:#262626;" x="369" xlink:href="#mc7f80ce147" y="270.72"/>
      </g>
     </g>
     <g id="text_5">
      <!-- 400 -->
      <defs>
       <path d="M 32.328125 0 
L 32.328125 17.140625 
L 1.265625 17.140625 
L 1.265625 25.203125 
L 33.9375 71.578125 
L 41.109375 71.578125 
L 41.109375 25.203125 
L 50.78125 25.203125 
L 50.78125 17.140625 
L 41.109375 17.140625 
L 41.109375 0 
z
M 32.328125 25.203125 
L 32.328125 57.46875 
L 9.90625 25.203125 
z
" id="ArialMT-34"/>
      </defs>
      <g style="fill:#262626;" transform="translate(360.658594 290.877812)scale(0.1 -0.1)">
       <use xlink:href="#ArialMT-34"/>
       <use x="55.615234" xlink:href="#ArialMT-30"/>
       <use x="111.230469" xlink:href="#ArialMT-30"/>
      </g>
     </g>
    </g>
    <g id="xtick_6">
     <g id="line2d_6">
      <g>
       <use style="fill:#262626;stroke:#262626;" x="438.75" xlink:href="#mc7f80ce147" y="270.72"/>
      </g>
     </g>
     <g id="text_6">
      <!-- 500 -->
      <defs>
       <path d="M 4.15625 18.75 
L 13.375 19.53125 
Q 14.40625 12.796875 18.140625 9.390625 
Q 21.875 6 27.15625 6 
Q 33.5 6 37.890625 10.78125 
Q 42.28125 15.578125 42.28125 23.484375 
Q 42.28125 31 38.0625 35.34375 
Q 33.84375 39.703125 27 39.703125 
Q 22.75 39.703125 19.328125 37.765625 
Q 15.921875 35.84375 13.96875 32.765625 
L 5.71875 33.84375 
L 12.640625 70.609375 
L 48.25 70.609375 
L 48.25 62.203125 
L 19.671875 62.203125 
L 15.828125 42.96875 
Q 22.265625 47.46875 29.34375 47.46875 
Q 38.71875 47.46875 45.15625 40.96875 
Q 51.609375 34.46875 51.609375 24.265625 
Q 51.609375 14.546875 45.953125 7.46875 
Q 39.0625 -1.21875 27.15625 -1.21875 
Q 17.390625 -1.21875 11.203125 4.25 
Q 5.03125 9.71875 4.15625 18.75 
z
" id="ArialMT-35"/>
      </defs>
      <g style="fill:#262626;" transform="translate(430.408594 290.877812)scale(0.1 -0.1)">
       <use xlink:href="#ArialMT-35"/>
       <use x="55.615234" xlink:href="#ArialMT-30"/>
       <use x="111.230469" xlink:href="#ArialMT-30"/>
      </g>
     </g>
    </g>
    <g id="xtick_7">
     <g id="line2d_7">
      <g>
       <use style="fill:#262626;stroke:#262626;" x="508.5" xlink:href="#mc7f80ce147" y="270.72"/>
      </g>
     </g>
     <g id="text_7">
      <!-- 600 -->
      <defs>
       <path d="M 49.75 54.046875 
L 41.015625 53.375 
Q 39.84375 58.546875 37.703125 60.890625 
Q 34.125 64.65625 28.90625 64.65625 
Q 24.703125 64.65625 21.53125 62.3125 
Q 17.390625 59.28125 14.984375 53.46875 
Q 12.59375 47.65625 12.5 36.921875 
Q 15.671875 41.75 20.265625 44.09375 
Q 24.859375 46.4375 29.890625 46.4375 
Q 38.671875 46.4375 44.84375 39.96875 
Q 51.03125 33.5 51.03125 23.25 
Q 51.03125 16.5 48.125 10.71875 
Q 45.21875 4.9375 40.140625 1.859375 
Q 35.0625 -1.21875 28.609375 -1.21875 
Q 17.625 -1.21875 10.6875 6.859375 
Q 3.765625 14.9375 3.765625 33.5 
Q 3.765625 54.25 11.421875 63.671875 
Q 18.109375 71.875 29.4375 71.875 
Q 37.890625 71.875 43.28125 67.140625 
Q 48.6875 62.40625 49.75 54.046875 
z
M 13.875 23.1875 
Q 13.875 18.65625 15.796875 14.5 
Q 17.71875 10.359375 21.1875 8.171875 
Q 24.65625 6 28.46875 6 
Q 34.03125 6 38.03125 10.484375 
Q 42.046875 14.984375 42.046875 22.703125 
Q 42.046875 30.125 38.078125 34.390625 
Q 34.125 38.671875 28.125 38.671875 
Q 22.171875 38.671875 18.015625 34.390625 
Q 13.875 30.125 13.875 23.1875 
z
" id="ArialMT-36"/>
      </defs>
      <g style="fill:#262626;" transform="translate(500.158594 290.877812)scale(0.1 -0.1)">
       <use xlink:href="#ArialMT-36"/>
       <use x="55.615234" xlink:href="#ArialMT-30"/>
       <use x="111.230469" xlink:href="#ArialMT-30"/>
      </g>
     </g>
    </g>
    <g id="xtick_8">
     <g id="line2d_8">
      <g>
       <use style="fill:#262626;stroke:#262626;" x="578.25" xlink:href="#mc7f80ce147" y="270.72"/>
      </g>
     </g>
     <g id="text_8">
      <!-- 700 -->
      <defs>
       <path d="M 4.734375 62.203125 
L 4.734375 70.65625 
L 51.078125 70.65625 
L 51.078125 63.8125 
Q 44.234375 56.546875 37.515625 44.484375 
Q 30.8125 32.421875 27.15625 19.671875 
Q 24.515625 10.6875 23.78125 0 
L 14.75 0 
Q 14.890625 8.453125 18.0625 20.40625 
Q 21.234375 32.375 27.171875 43.484375 
Q 33.109375 54.59375 39.796875 62.203125 
z
" id="ArialMT-37"/>
      </defs>
      <g style="fill:#262626;" transform="translate(569.908594 290.877812)scale(0.1 -0.1)">
       <use xlink:href="#ArialMT-37"/>
       <use x="55.615234" xlink:href="#ArialMT-30"/>
       <use x="111.230469" xlink:href="#ArialMT-30"/>
      </g>
     </g>
    </g>
    <g id="xtick_9">
     <g id="line2d_9">
      <g>
       <use style="fill:#262626;stroke:#262626;" x="648" xlink:href="#mc7f80ce147" y="270.72"/>
      </g>
     </g>
     <g id="text_9">
      <!-- 800 -->
      <defs>
       <path d="M 17.671875 38.8125 
Q 12.203125 40.828125 9.5625 44.53125 
Q 6.9375 48.25 6.9375 53.421875 
Q 6.9375 61.234375 12.546875 66.546875 
Q 18.171875 71.875 27.484375 71.875 
Q 36.859375 71.875 42.578125 66.421875 
Q 48.296875 60.984375 48.296875 53.171875 
Q 48.296875 48.1875 45.671875 44.5 
Q 43.0625 40.828125 37.75 38.8125 
Q 44.34375 36.671875 47.78125 31.875 
Q 51.21875 27.09375 51.21875 20.453125 
Q 51.21875 11.28125 44.71875 5.03125 
Q 38.234375 -1.21875 27.640625 -1.21875 
Q 17.046875 -1.21875 10.546875 5.046875 
Q 4.046875 11.328125 4.046875 20.703125 
Q 4.046875 27.6875 7.59375 32.390625 
Q 11.140625 37.109375 17.671875 38.8125 
z
M 15.921875 53.71875 
Q 15.921875 48.640625 19.1875 45.40625 
Q 22.46875 42.1875 27.6875 42.1875 
Q 32.765625 42.1875 36.015625 45.375 
Q 39.265625 48.578125 39.265625 53.21875 
Q 39.265625 58.0625 35.90625 61.359375 
Q 32.5625 64.65625 27.59375 64.65625 
Q 22.5625 64.65625 19.234375 61.421875 
Q 15.921875 58.203125 15.921875 53.71875 
z
M 13.09375 20.65625 
Q 13.09375 16.890625 14.875 13.375 
Q 16.65625 9.859375 20.171875 7.921875 
Q 23.6875 6 27.734375 6 
Q 34.03125 6 38.125 10.046875 
Q 42.234375 14.109375 42.234375 20.359375 
Q 42.234375 26.703125 38.015625 30.859375 
Q 33.796875 35.015625 27.4375 35.015625 
Q 21.234375 35.015625 17.15625 30.90625 
Q 13.09375 26.8125 13.09375 20.65625 
z
" id="ArialMT-38"/>
      </defs>
      <g style="fill:#262626;" transform="translate(639.658594 290.877812)scale(0.1 -0.1)">
       <use xlink:href="#ArialMT-38"/>
       <use x="55.615234" xlink:href="#ArialMT-30"/>
       <use x="111.230469" xlink:href="#ArialMT-30"/>
      </g>
     </g>
    </g>
   </g>
   <g id="matplotlib.axis_2">
    <g id="ytick_1">
     <g id="line2d_10">
      <defs>
       <path d="M 0 0 
L -6 0 
" id="mbe6bb8a6fc" style="stroke:#262626;"/>
      </defs>
      <g>
       <use style="fill:#262626;stroke:#262626;" x="90" xlink:href="#mbe6bb8a6fc" y="270.72"/>
      </g>
     </g>
     <g id="text_10">
      <!-- −0.20 -->
      <defs>
       <path d="M 52.828125 31.203125 
L 5.5625 31.203125 
L 5.5625 39.40625 
L 52.828125 39.40625 
z
" id="ArialMT-2212"/>
       <path d="M 9.078125 0 
L 9.078125 10.015625 
L 19.09375 10.015625 
L 19.09375 0 
z
" id="ArialMT-2e"/>
      </defs>
      <g style="fill:#262626;" transform="translate(51.698437 274.298906)scale(0.1 -0.1)">
       <use xlink:href="#ArialMT-2212"/>
       <use x="58.398438" xlink:href="#ArialMT-30"/>
       <use x="114.013672" xlink:href="#ArialMT-2e"/>
       <use x="141.796875" xlink:href="#ArialMT-32"/>
       <use x="197.412109" xlink:href="#ArialMT-30"/>
      </g>
     </g>
    </g>
    <g id="ytick_2">
     <g id="line2d_11">
      <g>
       <use style="fill:#262626;stroke:#262626;" x="90" xlink:href="#mbe6bb8a6fc" y="245.52"/>
      </g>
     </g>
     <g id="text_11">
      <!-- −0.15 -->
      <g style="fill:#262626;" transform="translate(51.698437 249.098906)scale(0.1 -0.1)">
       <use xlink:href="#ArialMT-2212"/>
       <use x="58.398438" xlink:href="#ArialMT-30"/>
       <use x="114.013672" xlink:href="#ArialMT-2e"/>
       <use x="141.796875" xlink:href="#ArialMT-31"/>
       <use x="197.412109" xlink:href="#ArialMT-35"/>
      </g>
     </g>
    </g>
    <g id="ytick_3">
     <g id="line2d_12">
      <g>
       <use style="fill:#262626;stroke:#262626;" x="90" xlink:href="#mbe6bb8a6fc" y="220.32"/>
      </g>
     </g>
     <g id="text_12">
      <!-- −0.10 -->
      <g style="fill:#262626;" transform="translate(51.698437 223.898906)scale(0.1 -0.1)">
       <use xlink:href="#ArialMT-2212"/>
       <use x="58.398438" xlink:href="#ArialMT-30"/>
       <use x="114.013672" xlink:href="#ArialMT-2e"/>
       <use x="141.796875" xlink:href="#ArialMT-31"/>
       <use x="197.412109" xlink:href="#ArialMT-30"/>
      </g>
     </g>
    </g>
    <g id="ytick_4">
     <g id="line2d_13">
      <g>
       <use style="fill:#262626;stroke:#262626;" x="90" xlink:href="#mbe6bb8a6fc" y="195.12"/>
      </g>
     </g>
     <g id="text_13">
      <!-- −0.05 -->
      <g style="fill:#262626;" transform="translate(51.698437 198.698906)scale(0.1 -0.1)">
       <use xlink:href="#ArialMT-2212"/>
       <use x="58.398438" xlink:href="#ArialMT-30"/>
       <use x="114.013672" xlink:href="#ArialMT-2e"/>
       <use x="141.796875" xlink:href="#ArialMT-30"/>
       <use x="197.412109" xlink:href="#ArialMT-35"/>
      </g>
     </g>
    </g>
    <g id="ytick_5">
     <g id="line2d_14">
      <g>
       <use style="fill:#262626;stroke:#262626;" x="90" xlink:href="#mbe6bb8a6fc" y="169.92"/>
      </g>
     </g>
     <g id="text_14">
      <!-- 0.00 -->
      <g style="fill:#262626;" transform="translate(57.539062 173.498906)scale(0.1 -0.1)">
       <use xlink:href="#ArialMT-30"/>
       <use x="55.615234" xlink:href="#ArialMT-2e"/>
       <use x="83.398438" xlink:href="#ArialMT-30"/>
       <use x="139.013672" xlink:href="#ArialMT-30"/>
      </g>
     </g>
    </g>
    <g id="ytick_6">
     <g id="line2d_15">
      <g>
       <use style="fill:#262626;stroke:#262626;" x="90" xlink:href="#mbe6bb8a6fc" y="144.72"/>
      </g>
     </g>
     <g id="text_15">
      <!-- 0.05 -->
      <g style="fill:#262626;" transform="translate(57.539062 148.298906)scale(0.1 -0.1)">
       <use xlink:href="#ArialMT-30"/>
       <use x="55.615234" xlink:href="#ArialMT-2e"/>
       <use x="83.398438" xlink:href="#ArialMT-30"/>
       <use x="139.013672" xlink:href="#ArialMT-35"/>
      </g>
     </g>
    </g>
    <g id="ytick_7">
     <g id="line2d_16">
      <g>
       <use style="fill:#262626;stroke:#262626;" x="90" xlink:href="#mbe6bb8a6fc" y="119.52"/>
      </g>
     </g>
     <g id="text_16">
      <!-- 0.10 -->
      <g style="fill:#262626;" transform="translate(57.539062 123.098906)scale(0.1 -0.1)">
       <use xlink:href="#ArialMT-30"/>
       <use x="55.615234" xlink:href="#ArialMT-2e"/>
       <use x="83.398438" xlink:href="#ArialMT-31"/>
       <use x="139.013672" xlink:href="#ArialMT-30"/>
      </g>
     </g>
    </g>
    <g id="ytick_8">
     <g id="line2d_17">
      <g>
       <use style="fill:#262626;stroke:#262626;" x="90" xlink:href="#mbe6bb8a6fc" y="94.32"/>
      </g>
     </g>
     <g id="text_17">
      <!-- 0.15 -->
      <g style="fill:#262626;" transform="translate(57.539062 97.898906)scale(0.1 -0.1)">
       <use xlink:href="#ArialMT-30"/>
       <use x="55.615234" xlink:href="#ArialMT-2e"/>
       <use x="83.398438" xlink:href="#ArialMT-31"/>
       <use x="139.013672" xlink:href="#ArialMT-35"/>
      </g>
     </g>
    </g>
    <g id="ytick_9">
     <g id="line2d_18">
      <g>
       <use style="fill:#262626;stroke:#262626;" x="90" xlink:href="#mbe6bb8a6fc" y="69.12"/>
      </g>
     </g>
     <g id="text_18">
      <!-- 0.20 -->
      <g style="fill:#262626;" transform="translate(57.539062 72.698906)scale(0.1 -0.1)">
       <use xlink:href="#ArialMT-30"/>
       <use x="55.615234" xlink:href="#ArialMT-2e"/>
       <use x="83.398438" xlink:href="#ArialMT-32"/>
       <use x="139.013672" xlink:href="#ArialMT-30"/>
      </g>
     </g>
    </g>
   </g>
   <g id="PolyCollection_1">
    <path clip-path="url(#p66eecde8c6)" d="M 90 167.545327 
L 90 169.92 
L 90.6975 169.92 
L 91.395 169.92 
L 92.0925 169.92 
L 92.79 169.92 
L 93.4875 169.92 
L 94.185 169.92 
L 94.8825 169.92 
L 95.58 169.92 
L 96.2775 169.92 
L 96.975 169.92 
L 97.6725 169.92 
L 98.37 169.92 
L 99.0675 169.92 
L 99.765 169.92 
L 100.4625 169.92 
L 101.16 169.92 
L 101.8575 169.92 
L 102.555 169.92 
L 103.2525 169.92 
L 103.95 169.92 
L 104.6475 169.92 
L 105.345 169.92 
L 106.0425 169.92 
L 106.74 169.92 
L 107.4375 169.92 
L 108.135 169.92 
L 108.8325 169.92 
L 109.53 169.92 
L 110.2275 169.92 
L 110.925 169.92 
L 111.6225 169.92 
L 112.32 169.92 
L 113.0175 169.92 
L 113.715 169.92 
L 114.4125 169.92 
L 115.11 169.92 
L 115.8075 169.92 
L 116.505 169.92 
L 117.2025 169.92 
L 117.9 169.92 
L 118.5975 169.92 
L 119.295 169.92 
L 119.9925 169.92 
L 120.69 169.92 
L 121.3875 169.92 
L 122.085 169.92 
L 122.7825 169.92 
L 123.48 169.92 
L 124.1775 169.92 
L 124.875 169.92 
L 125.5725 169.92 
L 126.27 169.92 
L 126.9675 169.92 
L 127.665 169.92 
L 128.3625 169.92 
L 129.06 169.92 
L 129.7575 169.92 
L 130.455 169.92 
L 131.1525 169.92 
L 131.85 169.92 
L 132.5475 169.92 
L 133.245 169.92 
L 133.9425 169.92 
L 134.64 169.92 
L 135.3375 169.92 
L 136.035 169.92 
L 136.7325 169.92 
L 137.43 169.92 
L 138.1275 169.92 
L 138.825 169.92 
L 139.5225 169.92 
L 140.22 169.92 
L 140.9175 169.92 
L 141.615 169.92 
L 142.3125 169.92 
L 143.01 169.92 
L 143.7075 169.92 
L 144.405 169.92 
L 145.1025 169.92 
L 145.8 169.92 
L 146.4975 169.92 
L 147.195 169.92 
L 147.8925 169.92 
L 148.59 169.92 
L 149.2875 169.92 
L 149.985 169.92 
L 150.6825 169.92 
L 151.38 169.92 
L 152.0775 169.92 
L 152.775 169.92 
L 153.4725 169.92 
L 154.17 169.92 
L 154.8675 169.92 
L 155.565 169.92 
L 156.2625 169.92 
L 156.96 169.92 
L 157.6575 169.92 
L 158.355 169.92 
L 159.0525 169.92 
L 159.75 169.92 
L 160.4475 169.92 
L 161.145 169.92 
L 161.8425 169.92 
L 162.54 169.92 
L 163.2375 169.92 
L 163.935 169.92 
L 164.6325 169.92 
L 165.33 169.92 
L 166.0275 169.92 
L 166.725 169.92 
L 167.4225 169.92 
L 168.12 169.92 
L 168.8175 169.92 
L 169.515 169.92 
L 170.2125 169.92 
L 170.91 169.92 
L 171.6075 169.92 
L 172.305 169.92 
L 173.0025 169.92 
L 173.7 169.92 
L 174.3975 169.92 
L 175.095 169.92 
L 175.7925 169.92 
L 176.49 169.92 
L 177.1875 169.92 
L 177.885 169.92 
L 178.5825 169.92 
L 179.28 169.92 
L 179.9775 169.92 
L 180.675 169.92 
L 181.3725 169.92 
L 182.07 169.92 
L 182.7675 169.92 
L 183.465 169.92 
L 184.1625 169.92 
L 184.86 169.92 
L 185.5575 169.92 
L 186.255 169.92 
L 186.9525 169.92 
L 187.65 169.92 
L 188.3475 169.92 
L 189.045 169.92 
L 189.7425 169.92 
L 190.44 169.92 
L 191.1375 169.92 
L 191.835 169.92 
L 192.5325 169.92 
L 193.23 169.92 
L 193.9275 169.92 
L 194.625 169.92 
L 195.3225 169.92 
L 196.02 169.92 
L 196.7175 169.92 
L 197.415 169.92 
L 198.1125 169.92 
L 198.81 169.92 
L 199.5075 169.92 
L 200.205 169.92 
L 200.9025 169.92 
L 201.6 169.92 
L 202.2975 169.92 
L 202.995 169.92 
L 203.6925 169.92 
L 204.39 169.92 
L 205.0875 169.92 
L 205.785 169.92 
L 206.4825 169.92 
L 207.18 169.92 
L 207.8775 169.92 
L 208.575 169.92 
L 209.2725 169.92 
L 209.97 169.92 
L 210.6675 169.92 
L 211.365 169.92 
L 212.0625 169.92 
L 212.76 169.92 
L 213.4575 169.92 
L 214.155 169.92 
L 214.8525 169.92 
L 215.55 169.92 
L 216.2475 169.92 
L 216.945 169.92 
L 217.6425 169.92 
L 218.34 169.92 
L 219.0375 169.92 
L 219.735 169.92 
L 220.4325 169.92 
L 221.13 169.92 
L 221.8275 169.92 
L 222.525 169.92 
L 223.2225 169.92 
L 223.92 169.92 
L 224.6175 169.92 
L 225.315 169.92 
L 226.0125 169.92 
L 226.71 169.92 
L 227.4075 169.92 
L 228.105 169.92 
L 228.8025 169.92 
L 229.5 169.92 
L 230.1975 169.92 
L 230.895 169.92 
L 231.5925 169.92 
L 232.29 169.92 
L 232.9875 169.92 
L 233.685 169.92 
L 234.3825 169.92 
L 235.08 169.92 
L 235.7775 169.92 
L 236.475 169.92 
L 237.1725 169.92 
L 237.87 169.92 
L 238.5675 169.92 
L 239.265 169.92 
L 239.9625 169.92 
L 240.66 169.92 
L 241.3575 169.92 
L 242.055 169.92 
L 242.7525 169.92 
L 243.45 169.92 
L 244.1475 169.92 
L 244.845 169.92 
L 245.5425 169.92 
L 246.24 169.92 
L 246.9375 169.92 
L 247.635 169.92 
L 248.3325 169.92 
L 249.03 169.92 
L 249.7275 169.92 
L 250.425 169.92 
L 251.1225 169.92 
L 251.82 169.92 
L 252.5175 169.92 
L 253.215 169.92 
L 253.9125 169.92 
L 254.61 169.92 
L 255.3075 169.92 
L 256.005 169.92 
L 256.7025 169.92 
L 257.4 169.92 
L 258.0975 169.92 
L 258.795 169.92 
L 259.4925 169.92 
L 260.19 169.92 
L 260.8875 169.92 
L 261.585 169.92 
L 262.2825 169.92 
L 262.98 169.92 
L 263.6775 169.92 
L 264.375 169.92 
L 265.0725 169.92 
L 265.77 169.92 
L 266.4675 169.92 
L 267.165 169.92 
L 267.8625 169.92 
L 268.56 169.92 
L 269.2575 169.92 
L 269.955 169.92 
L 270.6525 169.92 
L 271.35 169.92 
L 272.0475 169.92 
L 272.745 169.92 
L 273.4425 169.92 
L 274.14 169.92 
L 274.8375 169.92 
L 275.535 169.92 
L 276.2325 169.92 
L 276.93 169.92 
L 277.6275 169.92 
L 278.325 169.92 
L 279.0225 169.92 
L 279.72 169.92 
L 280.4175 169.92 
L 281.115 169.92 
L 281.8125 169.92 
L 282.51 169.92 
L 283.2075 169.92 
L 283.905 169.92 
L 284.6025 169.92 
L 285.3 169.92 
L 285.9975 169.92 
L 286.695 169.92 
L 287.3925 169.92 
L 288.09 169.92 
L 288.7875 169.92 
L 289.485 169.92 
L 290.1825 169.92 
L 290.88 169.92 
L 291.5775 169.92 
L 292.275 169.92 
L 292.9725 169.92 
L 293.67 169.92 
L 294.3675 169.92 
L 295.065 169.92 
L 295.7625 169.92 
L 296.46 169.92 
L 297.1575 169.92 
L 297.855 169.92 
L 298.5525 169.92 
L 299.25 169.92 
L 299.9475 169.92 
L 300.645 169.92 
L 301.3425 169.92 
L 302.04 169.92 
L 302.7375 169.92 
L 303.435 169.92 
L 304.1325 169.92 
L 304.83 169.92 
L 305.5275 169.92 
L 306.225 169.92 
L 306.9225 169.92 
L 307.62 169.92 
L 308.3175 169.92 
L 309.015 169.92 
L 309.7125 169.92 
L 310.41 169.92 
L 311.1075 169.92 
L 311.805 169.92 
L 312.5025 169.92 
L 313.2 169.92 
L 313.8975 169.92 
L 314.595 169.92 
L 315.2925 169.92 
L 315.99 169.92 
L 316.6875 169.92 
L 317.385 169.92 
L 318.0825 169.92 
L 318.78 169.92 
L 319.4775 169.92 
L 320.175 169.92 
L 320.8725 169.92 
L 321.57 169.92 
L 322.2675 169.92 
L 322.965 169.92 
L 323.6625 169.92 
L 324.36 169.92 
L 325.0575 169.92 
L 325.755 169.92 
L 326.4525 169.92 
L 327.15 169.92 
L 327.8475 169.92 
L 328.545 169.92 
L 329.2425 169.92 
L 329.94 169.92 
L 330.6375 169.92 
L 331.335 169.92 
L 332.0325 169.92 
L 332.73 169.92 
L 333.4275 169.92 
L 334.125 169.92 
L 334.8225 169.92 
L 335.52 169.92 
L 336.2175 169.92 
L 336.915 169.92 
L 337.6125 169.92 
L 338.31 169.92 
L 339.0075 169.92 
L 339.705 169.92 
L 340.4025 169.92 
L 341.1 169.92 
L 341.7975 169.92 
L 342.495 169.92 
L 343.1925 169.92 
L 343.89 169.92 
L 344.5875 169.92 
L 345.285 169.92 
L 345.9825 169.92 
L 346.68 169.92 
L 347.3775 169.92 
L 348.075 169.92 
L 348.7725 169.92 
L 349.47 169.92 
L 350.1675 169.92 
L 350.865 169.92 
L 351.5625 169.92 
L 352.26 169.92 
L 352.9575 169.92 
L 353.655 169.92 
L 354.3525 169.92 
L 355.05 169.92 
L 355.7475 169.92 
L 356.445 169.92 
L 357.1425 169.92 
L 357.84 169.92 
L 358.5375 169.92 
L 359.235 169.92 
L 359.9325 169.92 
L 360.63 169.92 
L 361.3275 169.92 
L 362.025 169.92 
L 362.7225 169.92 
L 363.42 169.92 
L 364.1175 169.92 
L 364.815 169.92 
L 365.5125 169.92 
L 366.21 169.92 
L 366.9075 169.92 
L 367.605 169.92 
L 368.3025 169.92 
L 369 169.92 
L 369.6975 169.92 
L 370.395 169.92 
L 371.0925 169.92 
L 371.79 169.92 
L 372.4875 169.92 
L 373.185 169.92 
L 373.8825 169.92 
L 374.58 169.92 
L 375.2775 169.92 
L 375.975 169.92 
L 376.6725 169.92 
L 377.37 169.92 
L 378.0675 169.92 
L 378.765 169.92 
L 379.4625 169.92 
L 380.16 169.92 
L 380.8575 169.92 
L 381.555 169.92 
L 382.2525 169.92 
L 382.95 169.92 
L 383.6475 169.92 
L 384.345 169.92 
L 385.0425 169.92 
L 385.74 169.92 
L 386.4375 169.92 
L 387.135 169.92 
L 387.8325 169.92 
L 388.53 169.92 
L 389.2275 169.92 
L 389.925 169.92 
L 390.6225 169.92 
L 391.32 169.92 
L 392.0175 169.92 
L 392.715 169.92 
L 393.4125 169.92 
L 394.11 169.92 
L 394.8075 169.92 
L 395.505 169.92 
L 396.2025 169.92 
L 396.9 169.92 
L 397.5975 169.92 
L 398.295 169.92 
L 398.9925 169.92 
L 399.69 169.92 
L 400.3875 169.92 
L 401.085 169.92 
L 401.7825 169.92 
L 402.48 169.92 
L 403.1775 169.92 
L 403.875 169.92 
L 404.5725 169.92 
L 405.27 169.92 
L 405.9675 169.92 
L 406.665 169.92 
L 407.3625 169.92 
L 408.06 169.92 
L 408.7575 169.92 
L 409.455 169.92 
L 410.1525 169.92 
L 410.85 169.92 
L 411.5475 169.92 
L 412.245 169.92 
L 412.9425 169.92 
L 413.64 169.92 
L 414.3375 169.92 
L 415.035 169.92 
L 415.7325 169.92 
L 416.43 169.92 
L 417.1275 169.92 
L 417.825 169.92 
L 418.5225 169.92 
L 419.22 169.92 
L 419.9175 169.92 
L 420.615 169.92 
L 421.3125 169.92 
L 422.01 169.92 
L 422.7075 169.92 
L 423.405 169.92 
L 424.1025 169.92 
L 424.8 169.92 
L 425.4975 169.92 
L 426.195 169.92 
L 426.8925 169.92 
L 427.59 169.92 
L 428.2875 169.92 
L 428.985 169.92 
L 429.6825 169.92 
L 430.38 169.92 
L 431.0775 169.92 
L 431.775 169.92 
L 432.4725 169.92 
L 433.17 169.92 
L 433.8675 169.92 
L 434.565 169.92 
L 435.2625 169.92 
L 435.96 169.92 
L 436.6575 169.92 
L 437.355 169.92 
L 438.0525 169.92 
L 438.75 169.92 
L 439.4475 169.92 
L 440.145 169.92 
L 440.8425 169.92 
L 441.54 169.92 
L 442.2375 169.92 
L 442.935 169.92 
L 443.6325 169.92 
L 444.33 169.92 
L 445.0275 169.92 
L 445.725 169.92 
L 446.4225 169.92 
L 447.12 169.92 
L 447.8175 169.92 
L 448.515 169.92 
L 449.2125 169.92 
L 449.91 169.92 
L 450.6075 169.92 
L 451.305 169.92 
L 452.0025 169.92 
L 452.7 169.92 
L 453.3975 169.92 
L 454.095 169.92 
L 454.7925 169.92 
L 455.49 169.92 
L 456.1875 169.92 
L 456.885 169.92 
L 457.5825 169.92 
L 458.28 169.92 
L 458.9775 169.92 
L 459.675 169.92 
L 460.3725 169.92 
L 461.07 169.92 
L 461.7675 169.92 
L 462.465 169.92 
L 463.1625 169.92 
L 463.86 169.92 
L 464.5575 169.92 
L 465.255 169.92 
L 465.9525 169.92 
L 466.65 169.92 
L 467.3475 169.92 
L 468.045 169.92 
L 468.7425 169.92 
L 469.44 169.92 
L 470.1375 169.92 
L 470.835 169.92 
L 471.5325 169.92 
L 472.23 169.92 
L 472.9275 169.92 
L 473.625 169.92 
L 474.3225 169.92 
L 475.02 169.92 
L 475.7175 169.92 
L 476.415 169.92 
L 477.1125 169.92 
L 477.81 169.92 
L 478.5075 169.92 
L 479.205 169.92 
L 479.9025 169.92 
L 480.6 169.92 
L 481.2975 169.92 
L 481.995 169.92 
L 482.6925 169.92 
L 483.39 169.92 
L 484.0875 169.92 
L 484.785 169.92 
L 485.4825 169.92 
L 486.18 169.92 
L 486.8775 169.92 
L 487.575 169.92 
L 488.2725 169.92 
L 488.97 169.92 
L 489.6675 169.92 
L 490.365 169.92 
L 491.0625 169.92 
L 491.76 169.92 
L 492.4575 169.92 
L 493.155 169.92 
L 493.8525 169.92 
L 494.55 169.92 
L 495.2475 169.92 
L 495.945 169.92 
L 496.6425 169.92 
L 497.34 169.92 
L 498.0375 169.92 
L 498.735 169.92 
L 499.4325 169.92 
L 500.13 169.92 
L 500.8275 169.92 
L 501.525 169.92 
L 502.2225 169.92 
L 502.92 169.92 
L 503.6175 169.92 
L 504.315 169.92 
L 505.0125 169.92 
L 505.71 169.92 
L 506.4075 169.92 
L 507.105 169.92 
L 507.8025 169.92 
L 508.5 169.92 
L 509.1975 169.92 
L 509.895 169.92 
L 510.5925 169.92 
L 511.29 169.92 
L 511.9875 169.92 
L 512.685 169.92 
L 513.3825 169.92 
L 514.08 169.92 
L 514.7775 169.92 
L 515.475 169.92 
L 516.1725 169.92 
L 516.87 169.92 
L 517.5675 169.92 
L 518.265 169.92 
L 518.9625 169.92 
L 519.66 169.92 
L 520.3575 169.92 
L 521.055 169.92 
L 521.7525 169.92 
L 522.45 169.92 
L 523.1475 169.92 
L 523.845 169.92 
L 524.5425 169.92 
L 525.24 169.92 
L 525.9375 169.92 
L 526.635 169.92 
L 527.3325 169.92 
L 528.03 169.92 
L 528.7275 169.92 
L 529.425 169.92 
L 530.1225 169.92 
L 530.82 169.92 
L 531.5175 169.92 
L 532.215 169.92 
L 532.9125 169.92 
L 533.61 169.92 
L 534.3075 169.92 
L 535.005 169.92 
L 535.7025 169.92 
L 536.4 169.92 
L 537.0975 169.92 
L 537.795 169.92 
L 538.4925 169.92 
L 539.19 169.92 
L 539.8875 169.92 
L 540.585 169.92 
L 541.2825 169.92 
L 541.98 169.92 
L 542.6775 169.92 
L 543.375 169.92 
L 544.0725 169.92 
L 544.77 169.92 
L 545.4675 169.92 
L 546.165 169.92 
L 546.8625 169.92 
L 547.56 169.92 
L 548.2575 169.92 
L 548.955 169.92 
L 549.6525 169.92 
L 550.35 169.92 
L 551.0475 169.92 
L 551.745 169.92 
L 552.4425 169.92 
L 553.14 169.92 
L 553.8375 169.92 
L 554.535 169.92 
L 555.2325 169.92 
L 555.93 169.92 
L 556.6275 169.92 
L 557.325 169.92 
L 558.0225 169.92 
L 558.72 169.92 
L 559.4175 169.92 
L 560.115 169.92 
L 560.8125 169.92 
L 561.51 169.92 
L 562.2075 169.92 
L 562.905 169.92 
L 563.6025 169.92 
L 564.3 169.92 
L 564.9975 169.92 
L 565.695 169.92 
L 566.3925 169.92 
L 567.09 169.92 
L 567.7875 169.92 
L 568.485 169.92 
L 569.1825 169.92 
L 569.88 169.92 
L 570.5775 169.92 
L 571.275 169.92 
L 571.9725 169.92 
L 572.67 169.92 
L 573.3675 169.92 
L 574.065 169.92 
L 574.7625 169.92 
L 575.46 169.92 
L 576.1575 169.92 
L 576.855 169.92 
L 577.5525 169.92 
L 578.25 169.92 
L 578.9475 169.92 
L 579.645 169.92 
L 580.3425 169.92 
L 581.04 169.92 
L 581.7375 169.92 
L 582.435 169.92 
L 583.1325 169.92 
L 583.83 169.92 
L 584.5275 169.92 
L 585.225 169.92 
L 585.9225 169.92 
L 586.62 169.92 
L 587.3175 169.92 
L 588.015 169.92 
L 588.7125 169.92 
L 589.41 169.92 
L 590.1075 169.92 
L 590.805 169.92 
L 591.5025 169.92 
L 592.2 169.92 
L 592.8975 169.92 
L 593.595 169.92 
L 594.2925 169.92 
L 594.99 169.92 
L 595.6875 169.92 
L 596.385 169.92 
L 597.0825 169.92 
L 597.78 169.92 
L 598.4775 169.92 
L 599.175 169.92 
L 599.8725 169.92 
L 600.57 169.92 
L 601.2675 169.92 
L 601.965 169.92 
L 602.6625 169.92 
L 603.36 169.92 
L 604.0575 169.92 
L 604.755 169.92 
L 605.4525 169.92 
L 606.15 169.92 
L 606.8475 169.92 
L 607.545 169.92 
L 608.2425 169.92 
L 608.94 169.92 
L 609.6375 169.92 
L 610.335 169.92 
L 611.0325 169.92 
L 611.73 169.92 
L 612.4275 169.92 
L 613.125 169.92 
L 613.8225 169.92 
L 614.52 169.92 
L 615.2175 169.92 
L 615.915 169.92 
L 616.6125 169.92 
L 617.31 169.92 
L 618.0075 169.92 
L 618.705 169.92 
L 619.4025 169.92 
L 620.1 169.92 
L 620.7975 169.92 
L 621.495 169.92 
L 622.1925 169.92 
L 622.89 169.92 
L 623.5875 169.92 
L 624.285 169.92 
L 624.9825 169.92 
L 625.68 169.92 
L 626.3775 169.92 
L 627.075 169.92 
L 627.7725 169.92 
L 628.47 169.92 
L 629.1675 169.92 
L 629.865 169.92 
L 630.5625 169.92 
L 631.26 169.92 
L 631.9575 169.92 
L 632.655 169.92 
L 633.3525 169.92 
L 634.05 169.92 
L 634.7475 169.92 
L 635.445 169.92 
L 636.1425 169.92 
L 636.84 169.92 
L 637.5375 169.92 
L 638.235 169.92 
L 638.9325 169.92 
L 639.63 169.92 
L 640.3275 169.92 
L 641.025 169.92 
L 641.7225 169.92 
L 642.42 169.92 
L 643.1175 169.92 
L 643.815 169.92 
L 644.5125 169.92 
L 645.21 169.92 
L 645.9075 169.92 
L 646.605 169.92 
L 646.605 169.92 
L 646.605 169.92 
L 645.9075 169.920396 
L 645.21 169.921327 
L 644.5125 169.922928 
L 643.815 169.925333 
L 643.1175 169.928671 
L 642.42 169.933069 
L 641.7225 169.938648 
L 641.025 169.945525 
L 640.3275 169.953811 
L 639.63 169.963612 
L 638.9325 169.975027 
L 638.235 169.988149 
L 637.5375 170.003063 
L 636.84 170.019846 
L 636.1425 170.03857 
L 635.445 170.059297 
L 634.7475 170.082079 
L 634.05 170.106963 
L 633.3525 170.133984 
L 632.655 170.16317 
L 631.9575 170.194539 
L 631.26 170.228101 
L 630.5625 170.263854 
L 629.865 170.301789 
L 629.1675 170.341887 
L 628.47 170.384121 
L 627.7725 170.428453 
L 627.075 170.474836 
L 626.3775 170.523216 
L 625.68 170.573529 
L 624.9825 170.625702 
L 624.285 170.679654 
L 623.5875 170.735298 
L 622.89 170.792537 
L 622.1925 170.851268 
L 621.495 170.911381 
L 620.7975 170.972759 
L 620.1 171.035279 
L 619.4025 171.098814 
L 618.705 171.16323 
L 618.0075 171.228389 
L 617.31 171.294149 
L 616.6125 171.360365 
L 615.915 171.426888 
L 615.2175 171.493568 
L 614.52 171.560252 
L 613.8225 171.626786 
L 613.125 171.693015 
L 612.4275 171.758785 
L 611.73 171.823941 
L 611.0325 171.88833 
L 610.335 171.951801 
L 609.6375 172.014204 
L 608.94 172.075392 
L 608.2425 172.135223 
L 607.545 172.193558 
L 606.8475 172.25026 
L 606.15 172.305202 
L 605.4525 172.358257 
L 604.755 172.409307 
L 604.0575 172.45824 
L 603.36 172.504951 
L 602.6625 172.54934 
L 601.965 172.591318 
L 601.2675 172.630801 
L 600.57 172.667715 
L 599.8725 172.701992 
L 599.175 172.733576 
L 598.4775 172.762418 
L 597.78 172.788477 
L 597.0825 172.811725 
L 596.385 172.832139 
L 595.6875 172.849707 
L 594.99 172.864428 
L 594.2925 172.876309 
L 593.595 172.885367 
L 592.8975 172.891626 
L 592.2 172.895123 
L 591.5025 172.895901 
L 590.805 172.894013 
L 590.1075 172.889521 
L 589.41 172.882495 
L 588.7125 172.873013 
L 588.015 172.861161 
L 587.3175 172.847032 
L 586.62 172.830727 
L 585.9225 172.812352 
L 585.225 172.792021 
L 584.5275 172.769854 
L 583.83 172.745973 
L 583.1325 172.720509 
L 582.435 172.693594 
L 581.7375 172.665367 
L 581.04 172.635967 
L 580.3425 172.605538 
L 579.645 172.574224 
L 578.9475 172.542173 
L 578.25 172.509531 
L 577.5525 172.476448 
L 576.855 172.44307 
L 576.1575 172.409544 
L 575.46 172.376016 
L 574.7625 172.34263 
L 574.065 172.309526 
L 573.3675 172.276842 
L 572.67 172.244713 
L 571.9725 172.213268 
L 571.275 172.182633 
L 570.5775 172.152928 
L 569.88 172.124268 
L 569.1825 172.09676 
L 568.485 172.070508 
L 567.7875 172.045606 
L 567.09 172.022141 
L 566.3925 172.000194 
L 565.695 171.979837 
L 564.9975 171.961133 
L 564.3 171.944139 
L 563.6025 171.928901 
L 562.905 171.915456 
L 562.2075 171.903834 
L 561.51 171.894055 
L 560.8125 171.886128 
L 560.115 171.880056 
L 559.4175 171.87583 
L 558.72 171.873433 
L 558.0225 171.872839 
L 557.325 171.874013 
L 556.6275 171.87691 
L 555.93 171.881478 
L 555.2325 171.887656 
L 554.535 171.895374 
L 553.8375 171.904555 
L 553.14 171.915113 
L 552.4425 171.926957 
L 551.745 171.939988 
L 551.0475 171.954098 
L 550.35 171.969178 
L 549.6525 171.985109 
L 548.955 172.001769 
L 548.2575 172.019031 
L 547.56 172.036763 
L 546.8625 172.05483 
L 546.165 172.073095 
L 545.4675 172.091416 
L 544.77 172.109652 
L 544.0725 172.127658 
L 543.375 172.14529 
L 542.6775 172.162403 
L 541.98 172.178852 
L 541.2825 172.194494 
L 540.585 172.209187 
L 539.8875 172.22279 
L 539.19 172.235167 
L 538.4925 172.246184 
L 537.795 172.255709 
L 537.0975 172.263618 
L 536.4 172.269789 
L 535.7025 172.274107 
L 535.005 172.276461 
L 534.3075 172.276747 
L 533.61 172.274869 
L 532.9125 172.270736 
L 532.215 172.264266 
L 531.5175 172.255384 
L 530.82 172.244023 
L 530.1225 172.230125 
L 529.425 172.213639 
L 528.7275 172.194526 
L 528.03 172.172753 
L 527.3325 172.148298 
L 526.635 172.121146 
L 525.9375 172.091295 
L 525.24 172.058749 
L 524.5425 172.023523 
L 523.845 171.985642 
L 523.1475 171.945139 
L 522.45 171.902055 
L 521.7525 171.856444 
L 521.055 171.808365 
L 520.3575 171.757888 
L 519.66 171.705091 
L 518.9625 171.650058 
L 518.265 171.592883 
L 517.5675 171.533668 
L 516.87 171.47252 
L 516.1725 171.409555 
L 515.475 171.344893 
L 514.7775 171.278661 
L 514.08 171.210991 
L 513.3825 171.142021 
L 512.685 171.071891 
L 511.9875 171.000748 
L 511.29 170.928739 
L 510.5925 170.856015 
L 509.895 170.782731 
L 509.1975 170.709041 
L 508.5 170.6351 
L 507.8025 170.561066 
L 507.105 170.487095 
L 506.4075 170.413341 
L 505.71 170.339958 
L 505.0125 170.2671 
L 504.315 170.194915 
L 503.6175 170.12355 
L 502.92 170.053148 
L 502.2225 169.983847 
L 501.525 169.915782 
L 500.8275 169.849083 
L 500.13 169.783871 
L 499.4325 169.720264 
L 498.735 169.658374 
L 498.0375 169.598303 
L 497.34 169.540148 
L 496.6425 169.483999 
L 495.945 169.429936 
L 495.2475 169.378031 
L 494.55 169.328348 
L 493.8525 169.280944 
L 493.155 169.235863 
L 492.4575 169.193144 
L 491.76 169.152815 
L 491.0625 169.114893 
L 490.365 169.079389 
L 489.6675 169.046303 
L 488.97 169.015626 
L 488.2725 168.987338 
L 487.575 168.961412 
L 486.8775 168.937812 
L 486.18 168.916492 
L 485.4825 168.897398 
L 484.785 168.880467 
L 484.0875 168.865629 
L 483.39 168.852805 
L 482.6925 168.841909 
L 481.995 168.832848 
L 481.2975 168.825523 
L 480.6 168.819826 
L 479.9025 168.815647 
L 479.205 168.812867 
L 478.5075 168.811365 
L 477.81 168.811014 
L 477.1125 168.811683 
L 476.415 168.813239 
L 475.7175 168.815545 
L 475.02 168.818461 
L 474.3225 168.821848 
L 473.625 168.825564 
L 472.9275 168.829466 
L 472.23 168.833414 
L 471.5325 168.837265 
L 470.835 168.84088 
L 470.1375 168.84412 
L 469.44 168.84685 
L 468.7425 168.848936 
L 468.045 168.850251 
L 467.3475 168.850667 
L 466.65 168.850066 
L 465.9525 168.84833 
L 465.255 168.845351 
L 464.5575 168.841024 
L 463.86 168.835251 
L 463.1625 168.827941 
L 462.465 168.819011 
L 461.7675 168.808386 
L 461.07 168.795996 
L 460.3725 168.781781 
L 459.675 168.765691 
L 458.9775 168.747682 
L 458.28 168.727721 
L 457.5825 168.705782 
L 456.885 168.681849 
L 456.1875 168.655915 
L 455.49 168.627984 
L 454.7925 168.598067 
L 454.095 168.566185 
L 453.3975 168.532368 
L 452.7 168.496656 
L 452.0025 168.459096 
L 451.305 168.419746 
L 450.6075 168.378672 
L 449.91 168.335947 
L 449.2125 168.291653 
L 448.515 168.245879 
L 447.8175 168.198724 
L 447.12 168.15029 
L 446.4225 168.10069 
L 445.725 168.050039 
L 445.0275 167.998461 
L 444.33 167.946083 
L 443.6325 167.893039 
L 442.935 167.839467 
L 442.2375 167.785506 
L 441.54 167.731302 
L 440.8425 167.677001 
L 440.145 167.622753 
L 439.4475 167.568709 
L 438.75 167.51502 
L 438.0525 167.461838 
L 437.355 167.409316 
L 436.6575 167.357605 
L 435.96 167.306854 
L 435.2625 167.257212 
L 434.565 167.208823 
L 433.8675 167.161831 
L 433.17 167.116375 
L 432.4725 167.072588 
L 431.775 167.030601 
L 431.0775 166.990538 
L 430.38 166.95252 
L 429.6825 166.916659 
L 428.985 166.883061 
L 428.2875 166.851826 
L 427.59 166.823046 
L 426.8925 166.796806 
L 426.195 166.773183 
L 425.4975 166.752243 
L 424.8 166.734049 
L 424.1025 166.718648 
L 423.405 166.706085 
L 422.7075 166.696391 
L 422.01 166.689589 
L 421.3125 166.685695 
L 420.615 166.684711 
L 419.9175 166.686633 
L 419.22 166.691447 
L 418.5225 166.699129 
L 417.825 166.709647 
L 417.1275 166.722957 
L 416.43 166.739009 
L 415.7325 166.757743 
L 415.035 166.77909 
L 414.3375 166.802974 
L 413.64 166.82931 
L 412.9425 166.858006 
L 412.245 166.888961 
L 411.5475 166.92207 
L 410.85 166.95722 
L 410.1525 166.994291 
L 409.455 167.033159 
L 408.7575 167.073694 
L 408.06 167.115761 
L 407.3625 167.159223 
L 406.665 167.203938 
L 405.9675 167.24976 
L 405.27 167.296543 
L 404.5725 167.344137 
L 403.875 167.392392 
L 403.1775 167.441157 
L 402.48 167.49028 
L 401.7825 167.539612 
L 401.085 167.589002 
L 400.3875 167.638303 
L 399.69 167.687368 
L 398.9925 167.736056 
L 398.295 167.784226 
L 397.5975 167.831743 
L 396.9 167.878476 
L 396.2025 167.924298 
L 395.505 167.969088 
L 394.8075 168.012731 
L 394.11 168.055118 
L 393.4125 168.096148 
L 392.715 168.135724 
L 392.0175 168.173761 
L 391.32 168.210177 
L 390.6225 168.244901 
L 389.925 168.27787 
L 389.2275 168.30903 
L 388.53 168.338333 
L 387.8325 168.365744 
L 387.135 168.391233 
L 386.4375 168.414784 
L 385.74 168.436385 
L 385.0425 168.456037 
L 384.345 168.473748 
L 383.6475 168.489538 
L 382.95 168.503432 
L 382.2525 168.515468 
L 381.555 168.52569 
L 380.8575 168.534153 
L 380.16 168.540917 
L 379.4625 168.546054 
L 378.765 168.54964 
L 378.0675 168.551763 
L 377.37 168.552513 
L 376.6725 168.551992 
L 375.975 168.550303 
L 375.2775 168.54756 
L 374.58 168.543879 
L 373.8825 168.539382 
L 373.185 168.534196 
L 372.4875 168.528451 
L 371.79 168.522281 
L 371.0925 168.515823 
L 370.395 168.509216 
L 369.6975 168.5026 
L 369 168.496119 
L 368.3025 168.489913 
L 367.605 168.484126 
L 366.9075 168.4789 
L 366.21 168.474375 
L 365.5125 168.47069 
L 364.815 168.467983 
L 364.1175 168.466387 
L 363.42 168.466032 
L 362.7225 168.467045 
L 362.025 168.469547 
L 361.3275 168.473656 
L 360.63 168.479483 
L 359.9325 168.487134 
L 359.235 168.496707 
L 358.5375 168.508296 
L 357.84 168.521984 
L 357.1425 168.53785 
L 356.445 168.555964 
L 355.7475 168.576386 
L 355.05 168.599171 
L 354.3525 168.624362 
L 353.655 168.651994 
L 352.9575 168.682095 
L 352.26 168.714681 
L 351.5625 168.749761 
L 350.865 168.787333 
L 350.1675 168.827386 
L 349.47 168.8699 
L 348.7725 168.914846 
L 348.075 168.962185 
L 347.3775 169.01187 
L 346.68 169.063843 
L 345.9825 169.11804 
L 345.285 169.174387 
L 344.5875 169.232802 
L 343.89 169.293194 
L 343.1925 169.355466 
L 342.495 169.419512 
L 341.7975 169.485222 
L 341.1 169.552477 
L 340.4025 169.621152 
L 339.705 169.691118 
L 339.0075 169.76224 
L 338.31 169.834377 
L 337.6125 169.907387 
L 336.915 169.981123 
L 336.2175 170.055433 
L 335.52 170.130165 
L 334.8225 170.205166 
L 334.125 170.280278 
L 333.4275 170.355347 
L 332.73 170.430215 
L 332.0325 170.504726 
L 331.335 170.578725 
L 330.6375 170.652059 
L 329.94 170.724576 
L 329.2425 170.79613 
L 328.545 170.866573 
L 327.8475 170.935767 
L 327.15 171.003572 
L 326.4525 171.069859 
L 325.755 171.134501 
L 325.0575 171.197376 
L 324.36 171.258372 
L 323.6625 171.31738 
L 322.965 171.3743 
L 322.2675 171.429041 
L 321.57 171.481516 
L 320.8725 171.531648 
L 320.175 171.579371 
L 319.4775 171.624624 
L 318.78 171.667356 
L 318.0825 171.707526 
L 317.385 171.745101 
L 316.6875 171.780058 
L 315.99 171.812383 
L 315.2925 171.842072 
L 314.595 171.869129 
L 313.8975 171.89357 
L 313.2 171.915417 
L 312.5025 171.934702 
L 311.805 171.951469 
L 311.1075 171.965767 
L 310.41 171.977655 
L 309.7125 171.987201 
L 309.015 171.99448 
L 308.3175 171.999575 
L 307.62 172.002577 
L 306.9225 172.003583 
L 306.225 172.002697 
L 305.5275 172.00003 
L 304.83 171.995697 
L 304.1325 171.98982 
L 303.435 171.982524 
L 302.7375 171.973939 
L 302.04 171.9642 
L 301.3425 171.953443 
L 300.645 171.941808 
L 299.9475 171.929435 
L 299.25 171.916469 
L 298.5525 171.903052 
L 297.855 171.889329 
L 297.1575 171.875444 
L 296.46 171.861539 
L 295.7625 171.847756 
L 295.065 171.834234 
L 294.3675 171.821109 
L 293.67 171.808515 
L 292.9725 171.796583 
L 292.275 171.785436 
L 291.5775 171.775197 
L 290.88 171.765981 
L 290.1825 171.757898 
L 289.485 171.751051 
L 288.7875 171.745537 
L 288.09 171.741448 
L 287.3925 171.738864 
L 286.695 171.737863 
L 285.9975 171.73851 
L 285.3 171.740865 
L 284.6025 171.744979 
L 283.905 171.750892 
L 283.2075 171.758638 
L 282.51 171.76824 
L 281.8125 171.779714 
L 281.115 171.793064 
L 280.4175 171.808286 
L 279.72 171.825368 
L 279.0225 171.844287 
L 278.325 171.865013 
L 277.6275 171.887504 
L 276.93 171.911712 
L 276.2325 171.937578 
L 275.535 171.965036 
L 274.8375 171.994013 
L 274.14 172.024425 
L 273.4425 172.056182 
L 272.745 172.089188 
L 272.0475 172.123337 
L 271.35 172.158521 
L 270.6525 172.194622 
L 269.955 172.231517 
L 269.2575 172.269081 
L 268.56 172.307181 
L 267.8625 172.34568 
L 267.165 172.38444 
L 266.4675 172.423319 
L 265.77 172.46217 
L 265.0725 172.500848 
L 264.375 172.539204 
L 263.6775 172.577089 
L 262.98 172.614355 
L 262.2825 172.650852 
L 261.585 172.686434 
L 260.8875 172.720954 
L 260.19 172.754269 
L 259.4925 172.786237 
L 258.795 172.816721 
L 258.0975 172.845587 
L 257.4 172.872705 
L 256.7025 172.897952 
L 256.005 172.921207 
L 255.3075 172.942357 
L 254.61 172.961296 
L 253.9125 172.977923 
L 253.215 172.992145 
L 252.5175 173.003875 
L 251.82 173.013037 
L 251.1225 173.01956 
L 250.425 173.023383 
L 249.7275 173.024454 
L 249.03 173.022729 
L 248.3325 173.018173 
L 247.635 173.010762 
L 246.9375 173.000477 
L 246.24 172.987315 
L 245.5425 172.971276 
L 244.845 172.952373 
L 244.1475 172.930628 
L 243.45 172.906071 
L 242.7525 172.878744 
L 242.055 172.848694 
L 241.3575 172.815981 
L 240.66 172.78067 
L 239.9625 172.742838 
L 239.265 172.702567 
L 238.5675 172.659949 
L 237.87 172.615082 
L 237.1725 172.568072 
L 236.475 172.519031 
L 235.7775 172.468079 
L 235.08 172.415339 
L 234.3825 172.360942 
L 233.685 172.305022 
L 232.9875 172.247719 
L 232.29 172.189175 
L 231.5925 172.129537 
L 230.895 172.068953 
L 230.1975 172.007575 
L 229.5 171.945555 
L 228.8025 171.883047 
L 228.105 171.820204 
L 227.4075 171.757181 
L 226.71 171.694131 
L 226.0125 171.631205 
L 225.315 171.568553 
L 224.6175 171.506322 
L 223.92 171.444657 
L 223.2225 171.383699 
L 222.525 171.323582 
L 221.8275 171.264441 
L 221.13 171.2064 
L 220.4325 171.149582 
L 219.735 171.094101 
L 219.0375 171.040066 
L 218.34 170.987578 
L 217.6425 170.936732 
L 216.945 170.887614 
L 216.2475 170.840302 
L 215.55 170.794869 
L 214.8525 170.751374 
L 214.155 170.709873 
L 213.4575 170.670408 
L 212.76 170.633015 
L 212.0625 170.597721 
L 211.365 170.564543 
L 210.6675 170.533487 
L 209.97 170.504553 
L 209.2725 170.47773 
L 208.575 170.452997 
L 207.8775 170.430325 
L 207.18 170.409676 
L 206.4825 170.391004 
L 205.785 170.374252 
L 205.0875 170.359358 
L 204.39 170.346248 
L 203.6925 170.334845 
L 202.995 170.325061 
L 202.2975 170.316801 
L 201.6 170.309966 
L 200.9025 170.304449 
L 200.205 170.300137 
L 199.5075 170.296913 
L 198.81 170.294653 
L 198.1125 170.293232 
L 197.415 170.292518 
L 196.7175 170.292377 
L 196.02 170.292673 
L 195.3225 170.293268 
L 194.625 170.294022 
L 193.9275 170.294792 
L 193.23 170.295438 
L 192.5325 170.295819 
L 191.835 170.295794 
L 191.1375 170.295224 
L 190.44 170.293971 
L 189.7425 170.291902 
L 189.045 170.288884 
L 188.3475 170.284791 
L 187.65 170.279497 
L 186.9525 170.272884 
L 186.255 170.264839 
L 185.5575 170.255252 
L 184.86 170.244021 
L 184.1625 170.231052 
L 183.465 170.216255 
L 182.7675 170.199548 
L 182.07 170.180858 
L 181.3725 170.16012 
L 180.675 170.137275 
L 179.9775 170.112274 
L 179.28 170.085078 
L 178.5825 170.055655 
L 177.885 170.023981 
L 177.1875 169.990046 
L 176.49 169.953844 
L 175.7925 169.91538 
L 175.095 169.874671 
L 174.3975 169.831739 
L 173.7 169.786618 
L 173.0025 169.73935 
L 172.305 169.689987 
L 171.6075 169.638588 
L 170.91 169.585224 
L 170.2125 169.52997 
L 169.515 169.472911 
L 168.8175 169.414142 
L 168.12 169.353761 
L 167.4225 169.291877 
L 166.725 169.228604 
L 166.0275 169.164061 
L 165.33 169.098375 
L 164.6325 169.031678 
L 163.935 168.964105 
L 163.2375 168.895798 
L 162.54 168.826901 
L 161.8425 168.75756 
L 161.145 168.687928 
L 160.4475 168.618155 
L 159.75 168.548397 
L 159.0525 168.478808 
L 158.355 168.409544 
L 157.6575 168.34076 
L 156.96 168.27261 
L 156.2625 168.205247 
L 155.565 168.138823 
L 154.8675 168.073487 
L 154.17 168.009383 
L 153.4725 167.946653 
L 152.775 167.885437 
L 152.0775 167.825866 
L 151.38 167.768068 
L 150.6825 167.712167 
L 149.985 167.658277 
L 149.2875 167.606509 
L 148.59 167.556965 
L 147.8925 167.509741 
L 147.195 167.464925 
L 146.4975 167.422594 
L 145.8 167.382822 
L 145.1025 167.345671 
L 144.405 167.311194 
L 143.7075 167.279437 
L 143.01 167.250435 
L 142.3125 167.224215 
L 141.615 167.200793 
L 140.9175 167.180178 
L 140.22 167.162367 
L 139.5225 167.14735 
L 138.825 167.135107 
L 138.1275 167.125606 
L 137.43 167.11881 
L 136.7325 167.11467 
L 136.035 167.11313 
L 135.3375 167.114126 
L 134.64 167.117583 
L 133.9425 167.123421 
L 133.245 167.13155 
L 132.5475 167.141875 
L 131.85 167.154293 
L 131.1525 167.168694 
L 130.455 167.184963 
L 129.7575 167.20298 
L 129.06 167.222618 
L 128.3625 167.243746 
L 127.665 167.266231 
L 126.9675 167.289935 
L 126.27 167.314716 
L 125.5725 167.340432 
L 124.875 167.366938 
L 124.1775 167.394087 
L 123.48 167.421733 
L 122.7825 167.449729 
L 122.085 167.477928 
L 121.3875 167.506185 
L 120.69 167.534358 
L 119.9925 167.562305 
L 119.295 167.589886 
L 118.5975 167.616969 
L 117.9 167.643421 
L 117.2025 167.669116 
L 116.505 167.693932 
L 115.8075 167.717754 
L 115.11 167.74047 
L 114.4125 167.761977 
L 113.715 167.782177 
L 113.0175 167.800981 
L 112.32 167.818306 
L 111.6225 167.834076 
L 110.925 167.848226 
L 110.2275 167.860696 
L 109.53 167.871437 
L 108.8325 167.880407 
L 108.135 167.887576 
L 107.4375 167.892919 
L 106.74 167.896423 
L 106.0425 167.898083 
L 105.345 167.897904 
L 104.6475 167.895899 
L 103.95 167.892092 
L 103.2525 167.886515 
L 102.555 167.879208 
L 101.8575 167.870222 
L 101.16 167.859613 
L 100.4625 167.847451 
L 99.765 167.833808 
L 99.0675 167.818767 
L 98.37 167.802418 
L 97.6725 167.784859 
L 96.975 167.766193 
L 96.2775 167.746529 
L 95.58 167.725984 
L 94.8825 167.704678 
L 94.185 167.682739 
L 93.4875 167.660296 
L 92.79 167.637483 
L 92.0925 167.614438 
L 91.395 167.591302 
L 90.6975 167.568217 
L 90 167.545327 
z
" style="fill:#e0ffff;"/>
   </g>
   <g id="line2d_19">
    <path clip-path="url(#p66eecde8c6)" d="M 90 167.545327 
L 103.95 167.892092 
L 111.6225 167.834076 
L 121.3875 167.506185 
L 133.245 167.13155 
L 139.5225 167.14735 
L 145.8 167.382822 
L 152.775 167.885437 
L 165.33 169.098375 
L 173.7 169.786618 
L 180.675 170.137275 
L 188.3475 170.284791 
L 209.97 170.504553 
L 216.945 170.887614 
L 226.0125 171.631205 
L 238.5675 172.659949 
L 244.845 172.952373 
L 251.1225 173.01956 
L 258.0975 172.845587 
L 268.56 172.307181 
L 279.0225 171.844287 
L 286.695 171.737863 
L 296.46 171.861539 
L 308.3175 171.999575 
L 315.2925 171.842072 
L 321.57 171.481516 
L 329.2425 170.79613 
L 348.075 168.962185 
L 355.05 168.599171 
L 362.025 168.469547 
L 373.185 168.534196 
L 382.95 168.503432 
L 390.6225 168.244901 
L 399.69 167.687368 
L 412.9425 166.858006 
L 419.22 166.691447 
L 425.4975 166.752243 
L 432.4725 167.072588 
L 442.935 167.839467 
L 453.3975 168.532368 
L 461.07 168.795996 
L 469.44 168.84685 
L 484.785 168.880467 
L 491.76 169.152815 
L 498.735 169.658374 
L 508.5 170.6351 
L 518.9625 171.650058 
L 525.9375 172.091295 
L 532.215 172.264266 
L 539.19 172.235167 
L 562.905 171.915456 
L 571.275 172.182633 
L 589.41 172.882495 
L 595.6875 172.849707 
L 601.965 172.591318 
L 608.94 172.075392 
L 631.26 170.228101 
L 638.235 169.988149 
L 646.605 169.92 
L 646.605 169.92 
" style="fill:none;stroke:#008080;stroke-linecap:round;stroke-width:1.75;"/>
   </g>
   <g id="patch_3">
    <path d="M 90 270.72 
L 90 69.12 
" style="fill:none;stroke:#262626;stroke-linecap:square;stroke-linejoin:miter;stroke-width:1.25;"/>
   </g>
   <g id="patch_4">
    <path d="M 90 270.72 
L 648 270.72 
" style="fill:none;stroke:#262626;stroke-linecap:square;stroke-linejoin:miter;stroke-width:1.25;"/>
   </g>
  </g>
  <g id="axes_2">
   <g id="patch_5">
    <path d="M 90 512.64 
L 648 512.64 
L 648 311.04 
L 90 311.04 
z
" style="fill:#ffffff;"/>
   </g>
   <g id="matplotlib.axis_3">
    <g id="xtick_10">
     <g id="line2d_20">
      <g>
       <use style="fill:#262626;stroke:#262626;" x="190.44" xlink:href="#mc7f80ce147" y="512.64"/>
      </g>
     </g>
     <g id="text_19">
      <!-- 200 -->
      <g style="fill:#262626;" transform="translate(182.098594 532.797812)scale(0.1 -0.1)">
       <use xlink:href="#ArialMT-32"/>
       <use x="55.615234" xlink:href="#ArialMT-30"/>
       <use x="111.230469" xlink:href="#ArialMT-30"/>
      </g>
     </g>
    </g>
    <g id="xtick_11">
     <g id="line2d_21">
      <g>
       <use style="fill:#262626;stroke:#262626;" x="302.04" xlink:href="#mc7f80ce147" y="512.64"/>
      </g>
     </g>
     <g id="text_20">
      <!-- 400 -->
      <g style="fill:#262626;" transform="translate(293.698594 532.797812)scale(0.1 -0.1)">
       <use xlink:href="#ArialMT-34"/>
       <use x="55.615234" xlink:href="#ArialMT-30"/>
       <use x="111.230469" xlink:href="#ArialMT-30"/>
      </g>
     </g>
    </g>
    <g id="xtick_12">
     <g id="line2d_22">
      <g>
       <use style="fill:#262626;stroke:#262626;" x="413.64" xlink:href="#mc7f80ce147" y="512.64"/>
      </g>
     </g>
     <g id="text_21">
      <!-- 600 -->
      <g style="fill:#262626;" transform="translate(405.298594 532.797812)scale(0.1 -0.1)">
       <use xlink:href="#ArialMT-36"/>
       <use x="55.615234" xlink:href="#ArialMT-30"/>
       <use x="111.230469" xlink:href="#ArialMT-30"/>
      </g>
     </g>
    </g>
    <g id="xtick_13">
     <g id="line2d_23">
      <g>
       <use style="fill:#262626;stroke:#262626;" x="525.24" xlink:href="#mc7f80ce147" y="512.64"/>
      </g>
     </g>
     <g id="text_22">
      <!-- 800 -->
      <g style="fill:#262626;" transform="translate(516.898594 532.797812)scale(0.1 -0.1)">
       <use xlink:href="#ArialMT-38"/>
       <use x="55.615234" xlink:href="#ArialMT-30"/>
       <use x="111.230469" xlink:href="#ArialMT-30"/>
      </g>
     </g>
    </g>
    <g id="xtick_14">
     <g id="line2d_24">
      <g>
       <use style="fill:#262626;stroke:#262626;" x="636.84" xlink:href="#mc7f80ce147" y="512.64"/>
      </g>
     </g>
     <g id="text_23">
      <!-- 1000 -->
      <g style="fill:#262626;" transform="translate(625.718125 532.797812)scale(0.1 -0.1)">
       <use xlink:href="#ArialMT-31"/>
       <use x="55.615234" xlink:href="#ArialMT-30"/>
       <use x="111.230469" xlink:href="#ArialMT-30"/>
       <use x="166.845703" xlink:href="#ArialMT-30"/>
      </g>
     </g>
    </g>
   </g>
   <g id="matplotlib.axis_4">
    <g id="ytick_10">
     <g id="line2d_25">
      <g>
       <use style="fill:#262626;stroke:#262626;" x="90" xlink:href="#mbe6bb8a6fc" y="512.64"/>
      </g>
     </g>
     <g id="text_24">
      <!-- 0 -->
      <g style="fill:#262626;" transform="translate(71.439063 516.218906)scale(0.1 -0.1)">
       <use xlink:href="#ArialMT-30"/>
      </g>
     </g>
    </g>
    <g id="ytick_11">
     <g id="line2d_26">
      <g>
       <use style="fill:#262626;stroke:#262626;" x="90" xlink:href="#mbe6bb8a6fc" y="483.84"/>
      </g>
     </g>
     <g id="text_25">
      <!-- 10 -->
      <g style="fill:#262626;" transform="translate(65.878125 487.418906)scale(0.1 -0.1)">
       <use xlink:href="#ArialMT-31"/>
       <use x="55.615234" xlink:href="#ArialMT-30"/>
      </g>
     </g>
    </g>
    <g id="ytick_12">
     <g id="line2d_27">
      <g>
       <use style="fill:#262626;stroke:#262626;" x="90" xlink:href="#mbe6bb8a6fc" y="455.04"/>
      </g>
     </g>
     <g id="text_26">
      <!-- 20 -->
      <g style="fill:#262626;" transform="translate(65.878125 458.618906)scale(0.1 -0.1)">
       <use xlink:href="#ArialMT-32"/>
       <use x="55.615234" xlink:href="#ArialMT-30"/>
      </g>
     </g>
    </g>
    <g id="ytick_13">
     <g id="line2d_28">
      <g>
       <use style="fill:#262626;stroke:#262626;" x="90" xlink:href="#mbe6bb8a6fc" y="426.24"/>
      </g>
     </g>
     <g id="text_27">
      <!-- 30 -->
      <g style="fill:#262626;" transform="translate(65.878125 429.818906)scale(0.1 -0.1)">
       <use xlink:href="#ArialMT-33"/>
       <use x="55.615234" xlink:href="#ArialMT-30"/>
      </g>
     </g>
    </g>
    <g id="ytick_14">
     <g id="line2d_29">
      <g>
       <use style="fill:#262626;stroke:#262626;" x="90" xlink:href="#mbe6bb8a6fc" y="397.44"/>
      </g>
     </g>
     <g id="text_28">
      <!-- 40 -->
      <g style="fill:#262626;" transform="translate(65.878125 401.018906)scale(0.1 -0.1)">
       <use xlink:href="#ArialMT-34"/>
       <use x="55.615234" xlink:href="#ArialMT-30"/>
      </g>
     </g>
    </g>
    <g id="ytick_15">
     <g id="line2d_30">
      <g>
       <use style="fill:#262626;stroke:#262626;" x="90" xlink:href="#mbe6bb8a6fc" y="368.64"/>
      </g>
     </g>
     <g id="text_29">
      <!-- 50 -->
      <g style="fill:#262626;" transform="translate(65.878125 372.218906)scale(0.1 -0.1)">
       <use xlink:href="#ArialMT-35"/>
       <use x="55.615234" xlink:href="#ArialMT-30"/>
      </g>
     </g>
    </g>
    <g id="ytick_16">
     <g id="line2d_31">
      <g>
       <use style="fill:#262626;stroke:#262626;" x="90" xlink:href="#mbe6bb8a6fc" y="339.84"/>
      </g>
     </g>
     <g id="text_30">
      <!-- 60 -->
      <g style="fill:#262626;" transform="translate(65.878125 343.418906)scale(0.1 -0.1)">
       <use xlink:href="#ArialMT-36"/>
       <use x="55.615234" xlink:href="#ArialMT-30"/>
      </g>
     </g>
    </g>
    <g id="ytick_17">
     <g id="line2d_32">
      <g>
       <use style="fill:#262626;stroke:#262626;" x="90" xlink:href="#mbe6bb8a6fc" y="311.04"/>
      </g>
     </g>
     <g id="text_31">
      <!-- 70 -->
      <g style="fill:#262626;" transform="translate(65.878125 314.618906)scale(0.1 -0.1)">
       <use xlink:href="#ArialMT-37"/>
       <use x="55.615234" xlink:href="#ArialMT-30"/>
      </g>
     </g>
    </g>
   </g>
   <g id="line2d_33">
    <path clip-path="url(#p7260c2c58d)" d="M 90 495.208 
L 101.16 496.246355 
L 112.32 497.676438 
L 123.48 496.773624 
L 134.64 495.319457 
" style="fill:none;stroke:#b22222;stroke-linecap:round;stroke-width:1.75;"/>
   </g>
   <g id="patch_6">
    <path d="M 90 512.64 
L 90 311.04 
" style="fill:none;stroke:#262626;stroke-linecap:square;stroke-linejoin:miter;stroke-width:1.25;"/>
   </g>
   <g id="patch_7">
    <path d="M 90 512.64 
L 648 512.64 
" style="fill:none;stroke:#262626;stroke-linecap:square;stroke-linejoin:miter;stroke-width:1.25;"/>
   </g>
   <g id="text_32">
    <!-- f = 100 -->
    <defs>
     <path d="M 8.6875 0 
L 8.6875 45.015625 
L 0.921875 45.015625 
L 0.921875 51.859375 
L 8.6875 51.859375 
L 8.6875 57.375 
Q 8.6875 62.59375 9.625 65.140625 
Q 10.890625 68.5625 14.078125 70.671875 
Q 17.28125 72.796875 23.046875 72.796875 
Q 26.765625 72.796875 31.25 71.921875 
L 29.9375 64.265625 
Q 27.203125 64.75 24.75 64.75 
Q 20.75 64.75 19.09375 63.03125 
Q 17.4375 61.328125 17.4375 56.640625 
L 17.4375 51.859375 
L 27.546875 51.859375 
L 27.546875 45.015625 
L 17.4375 45.015625 
L 17.4375 0 
z
" id="ArialMT-66"/>
     <path id="ArialMT-20"/>
     <path d="M 52.828125 42.09375 
L 5.5625 42.09375 
L 5.5625 50.296875 
L 52.828125 50.296875 
z
M 52.828125 20.359375 
L 5.5625 20.359375 
L 5.5625 28.5625 
L 52.828125 28.5625 
z
" id="ArialMT-3d"/>
    </defs>
    <g style="fill:#262626;" transform="translate(525.24 371.742188)scale(0.12 -0.12)">
     <use xlink:href="#ArialMT-66"/>
     <use x="27.783203" xlink:href="#ArialMT-20"/>
     <use x="55.566406" xlink:href="#ArialMT-3d"/>
     <use x="113.964844" xlink:href="#ArialMT-20"/>
     <use x="141.748047" xlink:href="#ArialMT-31"/>
     <use x="197.363281" xlink:href="#ArialMT-30"/>
     <use x="252.978516" xlink:href="#ArialMT-30"/>
    </g>
   </g>
   <g id="PathCollection_1">
    <defs>
     <path d="M 0 3.5 
C 0.928211 3.5 1.81853 3.131218 2.474874 2.474874 
C 3.131218 1.81853 3.5 0.928211 3.5 0 
C 3.5 -0.928211 3.131218 -1.81853 2.474874 -2.474874 
C 1.81853 -3.131218 0.928211 -3.5 0 -3.5 
C -0.928211 -3.5 -1.81853 -3.131218 -2.474874 -2.474874 
C -3.131218 -1.81853 -3.5 -0.928211 -3.5 0 
C -3.5 0.928211 -3.131218 1.81853 -2.474874 2.474874 
C -1.81853 3.131218 -0.928211 3.5 0 3.5 
z
" id="m50372fafe6" style="stroke:#800000;stroke-width:0.3;"/>
    </defs>
    <g clip-path="url(#p7260c2c58d)">
     <use style="fill:#800000;stroke:#800000;stroke-width:0.3;" x="134.64" xlink:href="#m50372fafe6" y="495.319457"/>
    </g>
   </g>
  </g>
 </g>
 <defs>
  <clipPath id="p66eecde8c6">
   <rect height="201.6" width="558" x="90" y="69.12"/>
  </clipPath>
  <clipPath id="p7260c2c58d">
   <rect height="201.6" width="558" x="90" y="311.04"/>
  </clipPath>
 </defs>
</svg>
