<?xml version="1.0" encoding="utf-8" standalone="no"?>
<!DOCTYPE svg PUBLIC "-//W3C//DTD SVG 1.1//EN"
  "http://www.w3.org/Graphics/SVG/1.1/DTD/svg11.dtd">
<!-- Created with matplotlib (http://matplotlib.org/) -->
<svg height="576pt" version="1.1" viewBox="0 0 720 576" width="720pt" xmlns="http://www.w3.org/2000/svg" xmlns:xlink="http://www.w3.org/1999/xlink">
 <defs>
  <style type="text/css">
*{stroke-linecap:butt;stroke-linejoin:round;}
  </style>
 </defs>
 <g id="figure_1">
  <g id="patch_1">
   <path d="M 0 576 
L 720 576 
L 720 0 
L 0 0 
z
" style="fill:#ffffff;"/>
  </g>
  <g id="axes_1">
   <g id="patch_2">
    <path d="M 90 270.72 
L 648 270.72 
L 648 69.12 
L 90 69.12 
z
" style="fill:#ffffff;"/>
   </g>
   <g id="matplotlib.axis_1">
    <g id="xtick_1">
     <g id="line2d_1">
      <defs>
       <path d="M 0 0 
L 0 6 
" id="m8446d75951" style="stroke:#262626;"/>
      </defs>
      <g>
       <use style="fill:#262626;stroke:#262626;" x="90" xlink:href="#m8446d75951" y="270.72"/>
      </g>
     </g>
     <g id="text_1">
      <!-- 0 -->
      <defs>
       <path d="M 4.15625 35.296875 
Q 4.15625 48 6.765625 55.734375 
Q 9.375 63.484375 14.515625 67.671875 
Q 19.671875 71.875 27.484375 71.875 
Q 33.25 71.875 37.59375 69.546875 
Q 41.9375 67.234375 44.765625 62.859375 
Q 47.609375 58.5 49.21875 52.21875 
Q 50.828125 45.953125 50.828125 35.296875 
Q 50.828125 22.703125 48.234375 14.96875 
Q 45.65625 7.234375 40.5 3 
Q 35.359375 -1.21875 27.484375 -1.21875 
Q 17.140625 -1.21875 11.234375 6.203125 
Q 4.15625 15.140625 4.15625 35.296875 
z
M 13.1875 35.296875 
Q 13.1875 17.671875 17.3125 11.828125 
Q 21.4375 6 27.484375 6 
Q 33.546875 6 37.671875 11.859375 
Q 41.796875 17.71875 41.796875 35.296875 
Q 41.796875 52.984375 37.671875 58.78125 
Q 33.546875 64.59375 27.390625 64.59375 
Q 21.34375 64.59375 17.71875 59.46875 
Q 13.1875 52.9375 13.1875 35.296875 
z
" id="ArialMT-30"/>
      </defs>
      <g style="fill:#262626;" transform="translate(87.219531 290.877812)scale(0.1 -0.1)">
       <use xlink:href="#ArialMT-30"/>
      </g>
     </g>
    </g>
    <g id="xtick_2">
     <g id="line2d_2">
      <g>
       <use style="fill:#262626;stroke:#262626;" x="159.75" xlink:href="#m8446d75951" y="270.72"/>
      </g>
     </g>
     <g id="text_2">
      <!-- 100 -->
      <defs>
       <path d="M 37.25 0 
L 28.46875 0 
L 28.46875 56 
Q 25.296875 52.984375 20.140625 49.953125 
Q 14.984375 46.921875 10.890625 45.40625 
L 10.890625 53.90625 
Q 18.265625 57.375 23.78125 62.296875 
Q 29.296875 67.234375 31.59375 71.875 
L 37.25 71.875 
z
" id="ArialMT-31"/>
      </defs>
      <g style="fill:#262626;" transform="translate(151.408594 290.877812)scale(0.1 -0.1)">
       <use xlink:href="#ArialMT-31"/>
       <use x="55.615234" xlink:href="#ArialMT-30"/>
       <use x="111.230469" xlink:href="#ArialMT-30"/>
      </g>
     </g>
    </g>
    <g id="xtick_3">
     <g id="line2d_3">
      <g>
       <use style="fill:#262626;stroke:#262626;" x="229.5" xlink:href="#m8446d75951" y="270.72"/>
      </g>
     </g>
     <g id="text_3">
      <!-- 200 -->
      <defs>
       <path d="M 50.34375 8.453125 
L 50.34375 0 
L 3.03125 0 
Q 2.9375 3.171875 4.046875 6.109375 
Q 5.859375 10.9375 9.828125 15.625 
Q 13.8125 20.3125 21.34375 26.46875 
Q 33.015625 36.03125 37.109375 41.625 
Q 41.21875 47.21875 41.21875 52.203125 
Q 41.21875 57.421875 37.46875 61 
Q 33.734375 64.59375 27.734375 64.59375 
Q 21.390625 64.59375 17.578125 60.78125 
Q 13.765625 56.984375 13.71875 50.25 
L 4.6875 51.171875 
Q 5.609375 61.28125 11.65625 66.578125 
Q 17.71875 71.875 27.9375 71.875 
Q 38.234375 71.875 44.234375 66.15625 
Q 50.25 60.453125 50.25 52 
Q 50.25 47.703125 48.484375 43.546875 
Q 46.734375 39.40625 42.65625 34.8125 
Q 38.578125 30.21875 29.109375 22.21875 
Q 21.1875 15.578125 18.9375 13.203125 
Q 16.703125 10.84375 15.234375 8.453125 
z
" id="ArialMT-32"/>
      </defs>
      <g style="fill:#262626;" transform="translate(221.158594 290.877812)scale(0.1 -0.1)">
       <use xlink:href="#ArialMT-32"/>
       <use x="55.615234" xlink:href="#ArialMT-30"/>
       <use x="111.230469" xlink:href="#ArialMT-30"/>
      </g>
     </g>
    </g>
    <g id="xtick_4">
     <g id="line2d_4">
      <g>
       <use style="fill:#262626;stroke:#262626;" x="299.25" xlink:href="#m8446d75951" y="270.72"/>
      </g>
     </g>
     <g id="text_4">
      <!-- 300 -->
      <defs>
       <path d="M 4.203125 18.890625 
L 12.984375 20.0625 
Q 14.5 12.59375 18.140625 9.296875 
Q 21.78125 6 27 6 
Q 33.203125 6 37.46875 10.296875 
Q 41.75 14.59375 41.75 20.953125 
Q 41.75 27 37.796875 30.921875 
Q 33.84375 34.859375 27.734375 34.859375 
Q 25.25 34.859375 21.53125 33.890625 
L 22.515625 41.609375 
Q 23.390625 41.5 23.921875 41.5 
Q 29.546875 41.5 34.03125 44.421875 
Q 38.53125 47.359375 38.53125 53.46875 
Q 38.53125 58.296875 35.25 61.46875 
Q 31.984375 64.65625 26.8125 64.65625 
Q 21.6875 64.65625 18.265625 61.421875 
Q 14.84375 58.203125 13.875 51.765625 
L 5.078125 53.328125 
Q 6.6875 62.15625 12.390625 67.015625 
Q 18.109375 71.875 26.609375 71.875 
Q 32.46875 71.875 37.390625 69.359375 
Q 42.328125 66.84375 44.9375 62.5 
Q 47.5625 58.15625 47.5625 53.265625 
Q 47.5625 48.640625 45.0625 44.828125 
Q 42.578125 41.015625 37.703125 38.765625 
Q 44.046875 37.3125 47.5625 32.6875 
Q 51.078125 28.078125 51.078125 21.140625 
Q 51.078125 11.765625 44.234375 5.25 
Q 37.40625 -1.265625 26.953125 -1.265625 
Q 17.53125 -1.265625 11.296875 4.34375 
Q 5.078125 9.96875 4.203125 18.890625 
z
" id="ArialMT-33"/>
      </defs>
      <g style="fill:#262626;" transform="translate(290.908594 290.877812)scale(0.1 -0.1)">
       <use xlink:href="#ArialMT-33"/>
       <use x="55.615234" xlink:href="#ArialMT-30"/>
       <use x="111.230469" xlink:href="#ArialMT-30"/>
      </g>
     </g>
    </g>
    <g id="xtick_5">
     <g id="line2d_5">
      <g>
       <use style="fill:#262626;stroke:#262626;" x="369" xlink:href="#m8446d75951" y="270.72"/>
      </g>
     </g>
     <g id="text_5">
      <!-- 400 -->
      <defs>
       <path d="M 32.328125 0 
L 32.328125 17.140625 
L 1.265625 17.140625 
L 1.265625 25.203125 
L 33.9375 71.578125 
L 41.109375 71.578125 
L 41.109375 25.203125 
L 50.78125 25.203125 
L 50.78125 17.140625 
L 41.109375 17.140625 
L 41.109375 0 
z
M 32.328125 25.203125 
L 32.328125 57.46875 
L 9.90625 25.203125 
z
" id="ArialMT-34"/>
      </defs>
      <g style="fill:#262626;" transform="translate(360.658594 290.877812)scale(0.1 -0.1)">
       <use xlink:href="#ArialMT-34"/>
       <use x="55.615234" xlink:href="#ArialMT-30"/>
       <use x="111.230469" xlink:href="#ArialMT-30"/>
      </g>
     </g>
    </g>
    <g id="xtick_6">
     <g id="line2d_6">
      <g>
       <use style="fill:#262626;stroke:#262626;" x="438.75" xlink:href="#m8446d75951" y="270.72"/>
      </g>
     </g>
     <g id="text_6">
      <!-- 500 -->
      <defs>
       <path d="M 4.15625 18.75 
L 13.375 19.53125 
Q 14.40625 12.796875 18.140625 9.390625 
Q 21.875 6 27.15625 6 
Q 33.5 6 37.890625 10.78125 
Q 42.28125 15.578125 42.28125 23.484375 
Q 42.28125 31 38.0625 35.34375 
Q 33.84375 39.703125 27 39.703125 
Q 22.75 39.703125 19.328125 37.765625 
Q 15.921875 35.84375 13.96875 32.765625 
L 5.71875 33.84375 
L 12.640625 70.609375 
L 48.25 70.609375 
L 48.25 62.203125 
L 19.671875 62.203125 
L 15.828125 42.96875 
Q 22.265625 47.46875 29.34375 47.46875 
Q 38.71875 47.46875 45.15625 40.96875 
Q 51.609375 34.46875 51.609375 24.265625 
Q 51.609375 14.546875 45.953125 7.46875 
Q 39.0625 -1.21875 27.15625 -1.21875 
Q 17.390625 -1.21875 11.203125 4.25 
Q 5.03125 9.71875 4.15625 18.75 
z
" id="ArialMT-35"/>
      </defs>
      <g style="fill:#262626;" transform="translate(430.408594 290.877812)scale(0.1 -0.1)">
       <use xlink:href="#ArialMT-35"/>
       <use x="55.615234" xlink:href="#ArialMT-30"/>
       <use x="111.230469" xlink:href="#ArialMT-30"/>
      </g>
     </g>
    </g>
    <g id="xtick_7">
     <g id="line2d_7">
      <g>
       <use style="fill:#262626;stroke:#262626;" x="508.5" xlink:href="#m8446d75951" y="270.72"/>
      </g>
     </g>
     <g id="text_7">
      <!-- 600 -->
      <defs>
       <path d="M 49.75 54.046875 
L 41.015625 53.375 
Q 39.84375 58.546875 37.703125 60.890625 
Q 34.125 64.65625 28.90625 64.65625 
Q 24.703125 64.65625 21.53125 62.3125 
Q 17.390625 59.28125 14.984375 53.46875 
Q 12.59375 47.65625 12.5 36.921875 
Q 15.671875 41.75 20.265625 44.09375 
Q 24.859375 46.4375 29.890625 46.4375 
Q 38.671875 46.4375 44.84375 39.96875 
Q 51.03125 33.5 51.03125 23.25 
Q 51.03125 16.5 48.125 10.71875 
Q 45.21875 4.9375 40.140625 1.859375 
Q 35.0625 -1.21875 28.609375 -1.21875 
Q 17.625 -1.21875 10.6875 6.859375 
Q 3.765625 14.9375 3.765625 33.5 
Q 3.765625 54.25 11.421875 63.671875 
Q 18.109375 71.875 29.4375 71.875 
Q 37.890625 71.875 43.28125 67.140625 
Q 48.6875 62.40625 49.75 54.046875 
z
M 13.875 23.1875 
Q 13.875 18.65625 15.796875 14.5 
Q 17.71875 10.359375 21.1875 8.171875 
Q 24.65625 6 28.46875 6 
Q 34.03125 6 38.03125 10.484375 
Q 42.046875 14.984375 42.046875 22.703125 
Q 42.046875 30.125 38.078125 34.390625 
Q 34.125 38.671875 28.125 38.671875 
Q 22.171875 38.671875 18.015625 34.390625 
Q 13.875 30.125 13.875 23.1875 
z
" id="ArialMT-36"/>
      </defs>
      <g style="fill:#262626;" transform="translate(500.158594 290.877812)scale(0.1 -0.1)">
       <use xlink:href="#ArialMT-36"/>
       <use x="55.615234" xlink:href="#ArialMT-30"/>
       <use x="111.230469" xlink:href="#ArialMT-30"/>
      </g>
     </g>
    </g>
    <g id="xtick_8">
     <g id="line2d_8">
      <g>
       <use style="fill:#262626;stroke:#262626;" x="578.25" xlink:href="#m8446d75951" y="270.72"/>
      </g>
     </g>
     <g id="text_8">
      <!-- 700 -->
      <defs>
       <path d="M 4.734375 62.203125 
L 4.734375 70.65625 
L 51.078125 70.65625 
L 51.078125 63.8125 
Q 44.234375 56.546875 37.515625 44.484375 
Q 30.8125 32.421875 27.15625 19.671875 
Q 24.515625 10.6875 23.78125 0 
L 14.75 0 
Q 14.890625 8.453125 18.0625 20.40625 
Q 21.234375 32.375 27.171875 43.484375 
Q 33.109375 54.59375 39.796875 62.203125 
z
" id="ArialMT-37"/>
      </defs>
      <g style="fill:#262626;" transform="translate(569.908594 290.877812)scale(0.1 -0.1)">
       <use xlink:href="#ArialMT-37"/>
       <use x="55.615234" xlink:href="#ArialMT-30"/>
       <use x="111.230469" xlink:href="#ArialMT-30"/>
      </g>
     </g>
    </g>
    <g id="xtick_9">
     <g id="line2d_9">
      <g>
       <use style="fill:#262626;stroke:#262626;" x="648" xlink:href="#m8446d75951" y="270.72"/>
      </g>
     </g>
     <g id="text_9">
      <!-- 800 -->
      <defs>
       <path d="M 17.671875 38.8125 
Q 12.203125 40.828125 9.5625 44.53125 
Q 6.9375 48.25 6.9375 53.421875 
Q 6.9375 61.234375 12.546875 66.546875 
Q 18.171875 71.875 27.484375 71.875 
Q 36.859375 71.875 42.578125 66.421875 
Q 48.296875 60.984375 48.296875 53.171875 
Q 48.296875 48.1875 45.671875 44.5 
Q 43.0625 40.828125 37.75 38.8125 
Q 44.34375 36.671875 47.78125 31.875 
Q 51.21875 27.09375 51.21875 20.453125 
Q 51.21875 11.28125 44.71875 5.03125 
Q 38.234375 -1.21875 27.640625 -1.21875 
Q 17.046875 -1.21875 10.546875 5.046875 
Q 4.046875 11.328125 4.046875 20.703125 
Q 4.046875 27.6875 7.59375 32.390625 
Q 11.140625 37.109375 17.671875 38.8125 
z
M 15.921875 53.71875 
Q 15.921875 48.640625 19.1875 45.40625 
Q 22.46875 42.1875 27.6875 42.1875 
Q 32.765625 42.1875 36.015625 45.375 
Q 39.265625 48.578125 39.265625 53.21875 
Q 39.265625 58.0625 35.90625 61.359375 
Q 32.5625 64.65625 27.59375 64.65625 
Q 22.5625 64.65625 19.234375 61.421875 
Q 15.921875 58.203125 15.921875 53.71875 
z
M 13.09375 20.65625 
Q 13.09375 16.890625 14.875 13.375 
Q 16.65625 9.859375 20.171875 7.921875 
Q 23.6875 6 27.734375 6 
Q 34.03125 6 38.125 10.046875 
Q 42.234375 14.109375 42.234375 20.359375 
Q 42.234375 26.703125 38.015625 30.859375 
Q 33.796875 35.015625 27.4375 35.015625 
Q 21.234375 35.015625 17.15625 30.90625 
Q 13.09375 26.8125 13.09375 20.65625 
z
" id="ArialMT-38"/>
      </defs>
      <g style="fill:#262626;" transform="translate(639.658594 290.877812)scale(0.1 -0.1)">
       <use xlink:href="#ArialMT-38"/>
       <use x="55.615234" xlink:href="#ArialMT-30"/>
       <use x="111.230469" xlink:href="#ArialMT-30"/>
      </g>
     </g>
    </g>
   </g>
   <g id="matplotlib.axis_2">
    <g id="ytick_1">
     <g id="line2d_10">
      <defs>
       <path d="M 0 0 
L -6 0 
" id="m83cb2cb92f" style="stroke:#262626;"/>
      </defs>
      <g>
       <use style="fill:#262626;stroke:#262626;" x="90" xlink:href="#m83cb2cb92f" y="270.72"/>
      </g>
     </g>
     <g id="text_10">
      <!-- −0.20 -->
      <defs>
       <path d="M 52.828125 31.203125 
L 5.5625 31.203125 
L 5.5625 39.40625 
L 52.828125 39.40625 
z
" id="ArialMT-2212"/>
       <path d="M 9.078125 0 
L 9.078125 10.015625 
L 19.09375 10.015625 
L 19.09375 0 
z
" id="ArialMT-2e"/>
      </defs>
      <g style="fill:#262626;" transform="translate(51.698437 274.298906)scale(0.1 -0.1)">
       <use xlink:href="#ArialMT-2212"/>
       <use x="58.398438" xlink:href="#ArialMT-30"/>
       <use x="114.013672" xlink:href="#ArialMT-2e"/>
       <use x="141.796875" xlink:href="#ArialMT-32"/>
       <use x="197.412109" xlink:href="#ArialMT-30"/>
      </g>
     </g>
    </g>
    <g id="ytick_2">
     <g id="line2d_11">
      <g>
       <use style="fill:#262626;stroke:#262626;" x="90" xlink:href="#m83cb2cb92f" y="245.52"/>
      </g>
     </g>
     <g id="text_11">
      <!-- −0.15 -->
      <g style="fill:#262626;" transform="translate(51.698437 249.098906)scale(0.1 -0.1)">
       <use xlink:href="#ArialMT-2212"/>
       <use x="58.398438" xlink:href="#ArialMT-30"/>
       <use x="114.013672" xlink:href="#ArialMT-2e"/>
       <use x="141.796875" xlink:href="#ArialMT-31"/>
       <use x="197.412109" xlink:href="#ArialMT-35"/>
      </g>
     </g>
    </g>
    <g id="ytick_3">
     <g id="line2d_12">
      <g>
       <use style="fill:#262626;stroke:#262626;" x="90" xlink:href="#m83cb2cb92f" y="220.32"/>
      </g>
     </g>
     <g id="text_12">
      <!-- −0.10 -->
      <g style="fill:#262626;" transform="translate(51.698437 223.898906)scale(0.1 -0.1)">
       <use xlink:href="#ArialMT-2212"/>
       <use x="58.398438" xlink:href="#ArialMT-30"/>
       <use x="114.013672" xlink:href="#ArialMT-2e"/>
       <use x="141.796875" xlink:href="#ArialMT-31"/>
       <use x="197.412109" xlink:href="#ArialMT-30"/>
      </g>
     </g>
    </g>
    <g id="ytick_4">
     <g id="line2d_13">
      <g>
       <use style="fill:#262626;stroke:#262626;" x="90" xlink:href="#m83cb2cb92f" y="195.12"/>
      </g>
     </g>
     <g id="text_13">
      <!-- −0.05 -->
      <g style="fill:#262626;" transform="translate(51.698437 198.698906)scale(0.1 -0.1)">
       <use xlink:href="#ArialMT-2212"/>
       <use x="58.398438" xlink:href="#ArialMT-30"/>
       <use x="114.013672" xlink:href="#ArialMT-2e"/>
       <use x="141.796875" xlink:href="#ArialMT-30"/>
       <use x="197.412109" xlink:href="#ArialMT-35"/>
      </g>
     </g>
    </g>
    <g id="ytick_5">
     <g id="line2d_14">
      <g>
       <use style="fill:#262626;stroke:#262626;" x="90" xlink:href="#m83cb2cb92f" y="169.92"/>
      </g>
     </g>
     <g id="text_14">
      <!-- 0.00 -->
      <g style="fill:#262626;" transform="translate(57.539062 173.498906)scale(0.1 -0.1)">
       <use xlink:href="#ArialMT-30"/>
       <use x="55.615234" xlink:href="#ArialMT-2e"/>
       <use x="83.398438" xlink:href="#ArialMT-30"/>
       <use x="139.013672" xlink:href="#ArialMT-30"/>
      </g>
     </g>
    </g>
    <g id="ytick_6">
     <g id="line2d_15">
      <g>
       <use style="fill:#262626;stroke:#262626;" x="90" xlink:href="#m83cb2cb92f" y="144.72"/>
      </g>
     </g>
     <g id="text_15">
      <!-- 0.05 -->
      <g style="fill:#262626;" transform="translate(57.539062 148.298906)scale(0.1 -0.1)">
       <use xlink:href="#ArialMT-30"/>
       <use x="55.615234" xlink:href="#ArialMT-2e"/>
       <use x="83.398438" xlink:href="#ArialMT-30"/>
       <use x="139.013672" xlink:href="#ArialMT-35"/>
      </g>
     </g>
    </g>
    <g id="ytick_7">
     <g id="line2d_16">
      <g>
       <use style="fill:#262626;stroke:#262626;" x="90" xlink:href="#m83cb2cb92f" y="119.52"/>
      </g>
     </g>
     <g id="text_16">
      <!-- 0.10 -->
      <g style="fill:#262626;" transform="translate(57.539062 123.098906)scale(0.1 -0.1)">
       <use xlink:href="#ArialMT-30"/>
       <use x="55.615234" xlink:href="#ArialMT-2e"/>
       <use x="83.398438" xlink:href="#ArialMT-31"/>
       <use x="139.013672" xlink:href="#ArialMT-30"/>
      </g>
     </g>
    </g>
    <g id="ytick_8">
     <g id="line2d_17">
      <g>
       <use style="fill:#262626;stroke:#262626;" x="90" xlink:href="#m83cb2cb92f" y="94.32"/>
      </g>
     </g>
     <g id="text_17">
      <!-- 0.15 -->
      <g style="fill:#262626;" transform="translate(57.539062 97.898906)scale(0.1 -0.1)">
       <use xlink:href="#ArialMT-30"/>
       <use x="55.615234" xlink:href="#ArialMT-2e"/>
       <use x="83.398438" xlink:href="#ArialMT-31"/>
       <use x="139.013672" xlink:href="#ArialMT-35"/>
      </g>
     </g>
    </g>
    <g id="ytick_9">
     <g id="line2d_18">
      <g>
       <use style="fill:#262626;stroke:#262626;" x="90" xlink:href="#m83cb2cb92f" y="69.12"/>
      </g>
     </g>
     <g id="text_18">
      <!-- 0.20 -->
      <g style="fill:#262626;" transform="translate(57.539062 72.698906)scale(0.1 -0.1)">
       <use xlink:href="#ArialMT-30"/>
       <use x="55.615234" xlink:href="#ArialMT-2e"/>
       <use x="83.398438" xlink:href="#ArialMT-32"/>
       <use x="139.013672" xlink:href="#ArialMT-30"/>
      </g>
     </g>
    </g>
   </g>
   <g id="PolyCollection_1">
    <path clip-path="url(#p899c49ec09)" d="M 90 169.519248 
L 90 169.92 
L 90.6975 169.92 
L 91.395 169.92 
L 92.0925 169.92 
L 92.79 169.92 
L 93.4875 169.92 
L 94.185 169.92 
L 94.8825 169.92 
L 95.58 169.92 
L 96.2775 169.92 
L 96.975 169.92 
L 97.6725 169.92 
L 98.37 169.92 
L 99.0675 169.92 
L 99.765 169.92 
L 100.4625 169.92 
L 101.16 169.92 
L 101.8575 169.92 
L 102.555 169.92 
L 103.2525 169.92 
L 103.95 169.92 
L 104.6475 169.92 
L 105.345 169.92 
L 106.0425 169.92 
L 106.74 169.92 
L 107.4375 169.92 
L 108.135 169.92 
L 108.8325 169.92 
L 109.53 169.92 
L 110.2275 169.92 
L 110.925 169.92 
L 111.6225 169.92 
L 112.32 169.92 
L 113.0175 169.92 
L 113.715 169.92 
L 114.4125 169.92 
L 115.11 169.92 
L 115.8075 169.92 
L 116.505 169.92 
L 117.2025 169.92 
L 117.9 169.92 
L 118.5975 169.92 
L 119.295 169.92 
L 119.9925 169.92 
L 120.69 169.92 
L 121.3875 169.92 
L 122.085 169.92 
L 122.7825 169.92 
L 123.48 169.92 
L 124.1775 169.92 
L 124.875 169.92 
L 125.5725 169.92 
L 126.27 169.92 
L 126.9675 169.92 
L 127.665 169.92 
L 128.3625 169.92 
L 129.06 169.92 
L 129.7575 169.92 
L 130.455 169.92 
L 131.1525 169.92 
L 131.85 169.92 
L 132.5475 169.92 
L 133.245 169.92 
L 133.9425 169.92 
L 134.64 169.92 
L 135.3375 169.92 
L 136.035 169.92 
L 136.7325 169.92 
L 137.43 169.92 
L 138.1275 169.92 
L 138.825 169.92 
L 139.5225 169.92 
L 140.22 169.92 
L 140.9175 169.92 
L 141.615 169.92 
L 142.3125 169.92 
L 143.01 169.92 
L 143.7075 169.92 
L 144.405 169.92 
L 145.1025 169.92 
L 145.8 169.92 
L 146.4975 169.92 
L 147.195 169.92 
L 147.8925 169.92 
L 148.59 169.92 
L 149.2875 169.92 
L 149.985 169.92 
L 150.6825 169.92 
L 151.38 169.92 
L 152.0775 169.92 
L 152.775 169.92 
L 153.4725 169.92 
L 154.17 169.92 
L 154.8675 169.92 
L 155.565 169.92 
L 156.2625 169.92 
L 156.96 169.92 
L 157.6575 169.92 
L 158.355 169.92 
L 159.0525 169.92 
L 159.75 169.92 
L 160.4475 169.92 
L 161.145 169.92 
L 161.8425 169.92 
L 162.54 169.92 
L 163.2375 169.92 
L 163.935 169.92 
L 164.6325 169.92 
L 165.33 169.92 
L 166.0275 169.92 
L 166.725 169.92 
L 167.4225 169.92 
L 168.12 169.92 
L 168.8175 169.92 
L 169.515 169.92 
L 170.2125 169.92 
L 170.91 169.92 
L 171.6075 169.92 
L 172.305 169.92 
L 173.0025 169.92 
L 173.7 169.92 
L 174.3975 169.92 
L 175.095 169.92 
L 175.7925 169.92 
L 176.49 169.92 
L 177.1875 169.92 
L 177.885 169.92 
L 178.5825 169.92 
L 179.28 169.92 
L 179.9775 169.92 
L 180.675 169.92 
L 181.3725 169.92 
L 182.07 169.92 
L 182.7675 169.92 
L 183.465 169.92 
L 184.1625 169.92 
L 184.86 169.92 
L 185.5575 169.92 
L 186.255 169.92 
L 186.9525 169.92 
L 187.65 169.92 
L 188.3475 169.92 
L 189.045 169.92 
L 189.7425 169.92 
L 190.44 169.92 
L 191.1375 169.92 
L 191.835 169.92 
L 192.5325 169.92 
L 193.23 169.92 
L 193.9275 169.92 
L 194.625 169.92 
L 195.3225 169.92 
L 196.02 169.92 
L 196.7175 169.92 
L 197.415 169.92 
L 198.1125 169.92 
L 198.81 169.92 
L 199.5075 169.92 
L 200.205 169.92 
L 200.9025 169.92 
L 201.6 169.92 
L 202.2975 169.92 
L 202.995 169.92 
L 203.6925 169.92 
L 204.39 169.92 
L 205.0875 169.92 
L 205.785 169.92 
L 206.4825 169.92 
L 207.18 169.92 
L 207.8775 169.92 
L 208.575 169.92 
L 209.2725 169.92 
L 209.97 169.92 
L 210.6675 169.92 
L 211.365 169.92 
L 212.0625 169.92 
L 212.76 169.92 
L 213.4575 169.92 
L 214.155 169.92 
L 214.8525 169.92 
L 215.55 169.92 
L 216.2475 169.92 
L 216.945 169.92 
L 217.6425 169.92 
L 218.34 169.92 
L 219.0375 169.92 
L 219.735 169.92 
L 220.4325 169.92 
L 221.13 169.92 
L 221.8275 169.92 
L 222.525 169.92 
L 223.2225 169.92 
L 223.92 169.92 
L 224.6175 169.92 
L 225.315 169.92 
L 226.0125 169.92 
L 226.71 169.92 
L 227.4075 169.92 
L 228.105 169.92 
L 228.8025 169.92 
L 229.5 169.92 
L 230.1975 169.92 
L 230.895 169.92 
L 231.5925 169.92 
L 232.29 169.92 
L 232.9875 169.92 
L 233.685 169.92 
L 234.3825 169.92 
L 235.08 169.92 
L 235.7775 169.92 
L 236.475 169.92 
L 237.1725 169.92 
L 237.87 169.92 
L 238.5675 169.92 
L 239.265 169.92 
L 239.9625 169.92 
L 240.66 169.92 
L 241.3575 169.92 
L 242.055 169.92 
L 242.7525 169.92 
L 243.45 169.92 
L 244.1475 169.92 
L 244.845 169.92 
L 245.5425 169.92 
L 246.24 169.92 
L 246.9375 169.92 
L 247.635 169.92 
L 248.3325 169.92 
L 249.03 169.92 
L 249.7275 169.92 
L 250.425 169.92 
L 251.1225 169.92 
L 251.82 169.92 
L 252.5175 169.92 
L 253.215 169.92 
L 253.9125 169.92 
L 254.61 169.92 
L 255.3075 169.92 
L 256.005 169.92 
L 256.7025 169.92 
L 257.4 169.92 
L 258.0975 169.92 
L 258.795 169.92 
L 259.4925 169.92 
L 260.19 169.92 
L 260.8875 169.92 
L 261.585 169.92 
L 262.2825 169.92 
L 262.98 169.92 
L 263.6775 169.92 
L 264.375 169.92 
L 265.0725 169.92 
L 265.77 169.92 
L 266.4675 169.92 
L 267.165 169.92 
L 267.8625 169.92 
L 268.56 169.92 
L 269.2575 169.92 
L 269.955 169.92 
L 270.6525 169.92 
L 271.35 169.92 
L 272.0475 169.92 
L 272.745 169.92 
L 273.4425 169.92 
L 274.14 169.92 
L 274.8375 169.92 
L 275.535 169.92 
L 276.2325 169.92 
L 276.93 169.92 
L 277.6275 169.92 
L 278.325 169.92 
L 279.0225 169.92 
L 279.72 169.92 
L 280.4175 169.92 
L 281.115 169.92 
L 281.8125 169.92 
L 282.51 169.92 
L 283.2075 169.92 
L 283.905 169.92 
L 284.6025 169.92 
L 285.3 169.92 
L 285.9975 169.92 
L 286.695 169.92 
L 287.3925 169.92 
L 288.09 169.92 
L 288.7875 169.92 
L 289.485 169.92 
L 290.1825 169.92 
L 290.88 169.92 
L 291.5775 169.92 
L 292.275 169.92 
L 292.9725 169.92 
L 293.67 169.92 
L 294.3675 169.92 
L 295.065 169.92 
L 295.7625 169.92 
L 296.46 169.92 
L 297.1575 169.92 
L 297.855 169.92 
L 298.5525 169.92 
L 299.25 169.92 
L 299.9475 169.92 
L 300.645 169.92 
L 301.3425 169.92 
L 302.04 169.92 
L 302.7375 169.92 
L 303.435 169.92 
L 304.1325 169.92 
L 304.83 169.92 
L 305.5275 169.92 
L 306.225 169.92 
L 306.9225 169.92 
L 307.62 169.92 
L 308.3175 169.92 
L 309.015 169.92 
L 309.7125 169.92 
L 310.41 169.92 
L 311.1075 169.92 
L 311.805 169.92 
L 312.5025 169.92 
L 313.2 169.92 
L 313.8975 169.92 
L 314.595 169.92 
L 315.2925 169.92 
L 315.99 169.92 
L 316.6875 169.92 
L 317.385 169.92 
L 318.0825 169.92 
L 318.78 169.92 
L 319.4775 169.92 
L 320.175 169.92 
L 320.8725 169.92 
L 321.57 169.92 
L 322.2675 169.92 
L 322.965 169.92 
L 323.6625 169.92 
L 324.36 169.92 
L 325.0575 169.92 
L 325.755 169.92 
L 326.4525 169.92 
L 327.15 169.92 
L 327.8475 169.92 
L 328.545 169.92 
L 329.2425 169.92 
L 329.94 169.92 
L 330.6375 169.92 
L 331.335 169.92 
L 332.0325 169.92 
L 332.73 169.92 
L 333.4275 169.92 
L 334.125 169.92 
L 334.8225 169.92 
L 335.52 169.92 
L 336.2175 169.92 
L 336.915 169.92 
L 337.6125 169.92 
L 338.31 169.92 
L 339.0075 169.92 
L 339.705 169.92 
L 340.4025 169.92 
L 341.1 169.92 
L 341.7975 169.92 
L 342.495 169.92 
L 343.1925 169.92 
L 343.89 169.92 
L 344.5875 169.92 
L 345.285 169.92 
L 345.9825 169.92 
L 346.68 169.92 
L 347.3775 169.92 
L 348.075 169.92 
L 348.7725 169.92 
L 349.47 169.92 
L 350.1675 169.92 
L 350.865 169.92 
L 351.5625 169.92 
L 352.26 169.92 
L 352.9575 169.92 
L 353.655 169.92 
L 354.3525 169.92 
L 355.05 169.92 
L 355.7475 169.92 
L 356.445 169.92 
L 357.1425 169.92 
L 357.84 169.92 
L 358.5375 169.92 
L 359.235 169.92 
L 359.9325 169.92 
L 360.63 169.92 
L 361.3275 169.92 
L 362.025 169.92 
L 362.7225 169.92 
L 363.42 169.92 
L 364.1175 169.92 
L 364.815 169.92 
L 365.5125 169.92 
L 366.21 169.92 
L 366.9075 169.92 
L 367.605 169.92 
L 368.3025 169.92 
L 369 169.92 
L 369.6975 169.92 
L 370.395 169.92 
L 371.0925 169.92 
L 371.79 169.92 
L 372.4875 169.92 
L 373.185 169.92 
L 373.8825 169.92 
L 374.58 169.92 
L 375.2775 169.92 
L 375.975 169.92 
L 376.6725 169.92 
L 377.37 169.92 
L 378.0675 169.92 
L 378.765 169.92 
L 379.4625 169.92 
L 380.16 169.92 
L 380.8575 169.92 
L 381.555 169.92 
L 382.2525 169.92 
L 382.95 169.92 
L 383.6475 169.92 
L 384.345 169.92 
L 385.0425 169.92 
L 385.74 169.92 
L 386.4375 169.92 
L 387.135 169.92 
L 387.8325 169.92 
L 388.53 169.92 
L 389.2275 169.92 
L 389.925 169.92 
L 390.6225 169.92 
L 391.32 169.92 
L 392.0175 169.92 
L 392.715 169.92 
L 393.4125 169.92 
L 394.11 169.92 
L 394.8075 169.92 
L 395.505 169.92 
L 396.2025 169.92 
L 396.9 169.92 
L 397.5975 169.92 
L 398.295 169.92 
L 398.9925 169.92 
L 399.69 169.92 
L 400.3875 169.92 
L 401.085 169.92 
L 401.7825 169.92 
L 402.48 169.92 
L 403.1775 169.92 
L 403.875 169.92 
L 404.5725 169.92 
L 405.27 169.92 
L 405.9675 169.92 
L 406.665 169.92 
L 407.3625 169.92 
L 408.06 169.92 
L 408.7575 169.92 
L 409.455 169.92 
L 410.1525 169.92 
L 410.85 169.92 
L 411.5475 169.92 
L 412.245 169.92 
L 412.9425 169.92 
L 413.64 169.92 
L 414.3375 169.92 
L 415.035 169.92 
L 415.7325 169.92 
L 416.43 169.92 
L 417.1275 169.92 
L 417.825 169.92 
L 418.5225 169.92 
L 419.22 169.92 
L 419.9175 169.92 
L 420.615 169.92 
L 421.3125 169.92 
L 422.01 169.92 
L 422.7075 169.92 
L 423.405 169.92 
L 424.1025 169.92 
L 424.8 169.92 
L 425.4975 169.92 
L 426.195 169.92 
L 426.8925 169.92 
L 427.59 169.92 
L 428.2875 169.92 
L 428.985 169.92 
L 429.6825 169.92 
L 430.38 169.92 
L 431.0775 169.92 
L 431.775 169.92 
L 432.4725 169.92 
L 433.17 169.92 
L 433.8675 169.92 
L 434.565 169.92 
L 435.2625 169.92 
L 435.96 169.92 
L 436.6575 169.92 
L 437.355 169.92 
L 438.0525 169.92 
L 438.75 169.92 
L 439.4475 169.92 
L 440.145 169.92 
L 440.8425 169.92 
L 441.54 169.92 
L 442.2375 169.92 
L 442.935 169.92 
L 443.6325 169.92 
L 444.33 169.92 
L 445.0275 169.92 
L 445.725 169.92 
L 446.4225 169.92 
L 447.12 169.92 
L 447.8175 169.92 
L 448.515 169.92 
L 449.2125 169.92 
L 449.91 169.92 
L 450.6075 169.92 
L 451.305 169.92 
L 452.0025 169.92 
L 452.7 169.92 
L 453.3975 169.92 
L 454.095 169.92 
L 454.7925 169.92 
L 455.49 169.92 
L 456.1875 169.92 
L 456.885 169.92 
L 457.5825 169.92 
L 458.28 169.92 
L 458.9775 169.92 
L 459.675 169.92 
L 460.3725 169.92 
L 461.07 169.92 
L 461.7675 169.92 
L 462.465 169.92 
L 463.1625 169.92 
L 463.86 169.92 
L 464.5575 169.92 
L 465.255 169.92 
L 465.9525 169.92 
L 466.65 169.92 
L 467.3475 169.92 
L 468.045 169.92 
L 468.7425 169.92 
L 469.44 169.92 
L 470.1375 169.92 
L 470.835 169.92 
L 471.5325 169.92 
L 472.23 169.92 
L 472.9275 169.92 
L 473.625 169.92 
L 474.3225 169.92 
L 475.02 169.92 
L 475.7175 169.92 
L 476.415 169.92 
L 477.1125 169.92 
L 477.81 169.92 
L 478.5075 169.92 
L 479.205 169.92 
L 479.9025 169.92 
L 480.6 169.92 
L 481.2975 169.92 
L 481.995 169.92 
L 482.6925 169.92 
L 483.39 169.92 
L 484.0875 169.92 
L 484.785 169.92 
L 485.4825 169.92 
L 486.18 169.92 
L 486.8775 169.92 
L 487.575 169.92 
L 488.2725 169.92 
L 488.97 169.92 
L 489.6675 169.92 
L 490.365 169.92 
L 491.0625 169.92 
L 491.76 169.92 
L 492.4575 169.92 
L 493.155 169.92 
L 493.8525 169.92 
L 494.55 169.92 
L 495.2475 169.92 
L 495.945 169.92 
L 496.6425 169.92 
L 497.34 169.92 
L 498.0375 169.92 
L 498.735 169.92 
L 499.4325 169.92 
L 500.13 169.92 
L 500.8275 169.92 
L 501.525 169.92 
L 502.2225 169.92 
L 502.92 169.92 
L 503.6175 169.92 
L 504.315 169.92 
L 505.0125 169.92 
L 505.71 169.92 
L 506.4075 169.92 
L 507.105 169.92 
L 507.8025 169.92 
L 508.5 169.92 
L 509.1975 169.92 
L 509.895 169.92 
L 510.5925 169.92 
L 511.29 169.92 
L 511.9875 169.92 
L 512.685 169.92 
L 513.3825 169.92 
L 514.08 169.92 
L 514.7775 169.92 
L 515.475 169.92 
L 516.1725 169.92 
L 516.87 169.92 
L 517.5675 169.92 
L 518.265 169.92 
L 518.9625 169.92 
L 519.66 169.92 
L 520.3575 169.92 
L 521.055 169.92 
L 521.7525 169.92 
L 522.45 169.92 
L 523.1475 169.92 
L 523.845 169.92 
L 524.5425 169.92 
L 525.24 169.92 
L 525.9375 169.92 
L 526.635 169.92 
L 527.3325 169.92 
L 528.03 169.92 
L 528.7275 169.92 
L 529.425 169.92 
L 530.1225 169.92 
L 530.82 169.92 
L 531.5175 169.92 
L 532.215 169.92 
L 532.9125 169.92 
L 533.61 169.92 
L 534.3075 169.92 
L 535.005 169.92 
L 535.7025 169.92 
L 536.4 169.92 
L 537.0975 169.92 
L 537.795 169.92 
L 538.4925 169.92 
L 539.19 169.92 
L 539.8875 169.92 
L 540.585 169.92 
L 541.2825 169.92 
L 541.98 169.92 
L 542.6775 169.92 
L 543.375 169.92 
L 544.0725 169.92 
L 544.77 169.92 
L 545.4675 169.92 
L 546.165 169.92 
L 546.8625 169.92 
L 547.56 169.92 
L 548.2575 169.92 
L 548.955 169.92 
L 549.6525 169.92 
L 550.35 169.92 
L 551.0475 169.92 
L 551.745 169.92 
L 552.4425 169.92 
L 553.14 169.92 
L 553.8375 169.92 
L 554.535 169.92 
L 555.2325 169.92 
L 555.93 169.92 
L 556.6275 169.92 
L 557.325 169.92 
L 558.0225 169.92 
L 558.72 169.92 
L 559.4175 169.92 
L 560.115 169.92 
L 560.8125 169.92 
L 561.51 169.92 
L 562.2075 169.92 
L 562.905 169.92 
L 563.6025 169.92 
L 564.3 169.92 
L 564.9975 169.92 
L 565.695 169.92 
L 566.3925 169.92 
L 567.09 169.92 
L 567.7875 169.92 
L 568.485 169.92 
L 569.1825 169.92 
L 569.88 169.92 
L 570.5775 169.92 
L 571.275 169.92 
L 571.9725 169.92 
L 572.67 169.92 
L 573.3675 169.92 
L 574.065 169.92 
L 574.7625 169.92 
L 575.46 169.92 
L 576.1575 169.92 
L 576.855 169.92 
L 577.5525 169.92 
L 578.25 169.92 
L 578.9475 169.92 
L 579.645 169.92 
L 580.3425 169.92 
L 581.04 169.92 
L 581.7375 169.92 
L 582.435 169.92 
L 583.1325 169.92 
L 583.83 169.92 
L 584.5275 169.92 
L 585.225 169.92 
L 585.9225 169.92 
L 586.62 169.92 
L 587.3175 169.92 
L 588.015 169.92 
L 588.7125 169.92 
L 589.41 169.92 
L 590.1075 169.92 
L 590.805 169.92 
L 591.5025 169.92 
L 592.2 169.92 
L 592.8975 169.92 
L 593.595 169.92 
L 594.2925 169.92 
L 594.99 169.92 
L 595.6875 169.92 
L 596.385 169.92 
L 597.0825 169.92 
L 597.78 169.92 
L 598.4775 169.92 
L 599.175 169.92 
L 599.8725 169.92 
L 600.57 169.92 
L 601.2675 169.92 
L 601.965 169.92 
L 602.6625 169.92 
L 603.36 169.92 
L 604.0575 169.92 
L 604.755 169.92 
L 605.4525 169.92 
L 606.15 169.92 
L 606.8475 169.92 
L 607.545 169.92 
L 608.2425 169.92 
L 608.94 169.92 
L 609.6375 169.92 
L 610.335 169.92 
L 611.0325 169.92 
L 611.73 169.92 
L 612.4275 169.92 
L 613.125 169.92 
L 613.8225 169.92 
L 614.52 169.92 
L 615.2175 169.92 
L 615.915 169.92 
L 616.6125 169.92 
L 617.31 169.92 
L 618.0075 169.92 
L 618.705 169.92 
L 619.4025 169.92 
L 620.1 169.92 
L 620.7975 169.92 
L 621.495 169.92 
L 622.1925 169.92 
L 622.89 169.92 
L 623.5875 169.92 
L 624.285 169.92 
L 624.9825 169.92 
L 625.68 169.92 
L 626.3775 169.92 
L 627.075 169.92 
L 627.7725 169.92 
L 628.47 169.92 
L 629.1675 169.92 
L 629.865 169.92 
L 630.5625 169.92 
L 631.26 169.92 
L 631.9575 169.92 
L 632.655 169.92 
L 633.3525 169.92 
L 634.05 169.92 
L 634.7475 169.92 
L 635.445 169.92 
L 636.1425 169.92 
L 636.84 169.92 
L 637.5375 169.92 
L 638.235 169.92 
L 638.9325 169.92 
L 639.63 169.92 
L 640.3275 169.92 
L 641.025 169.92 
L 641.7225 169.92 
L 642.42 169.92 
L 643.1175 169.92 
L 643.815 169.92 
L 644.5125 169.92 
L 645.21 169.92 
L 645.9075 169.92 
L 646.605 169.92 
L 646.605 169.92 
L 646.605 169.92 
L 645.9075 169.923714 
L 645.21 169.932371 
L 644.5125 169.947092 
L 643.815 169.968865 
L 643.1175 169.998523 
L 642.42 170.03672 
L 641.7225 170.083923 
L 641.025 170.14039 
L 640.3275 170.206166 
L 639.63 170.281079 
L 638.9325 170.364736 
L 638.235 170.456527 
L 637.5375 170.555635 
L 636.84 170.661043 
L 636.1425 170.771553 
L 635.445 170.885805 
L 634.7475 171.002294 
L 634.05 171.1194 
L 633.3525 171.235415 
L 632.655 171.348568 
L 631.9575 171.457058 
L 631.26 171.559087 
L 630.5625 171.652888 
L 629.865 171.73676 
L 629.1675 171.809096 
L 628.47 171.868414 
L 627.7725 171.913383 
L 627.075 171.942846 
L 626.3775 171.955848 
L 625.68 171.951649 
L 624.9825 171.929742 
L 624.285 171.889864 
L 623.5875 171.832002 
L 622.89 171.756399 
L 622.1925 171.663549 
L 621.495 171.554194 
L 620.7975 171.429314 
L 620.1 171.290113 
L 619.4025 171.138003 
L 618.705 170.974578 
L 618.0075 170.801596 
L 617.31 170.62095 
L 616.6125 170.434637 
L 615.915 170.244728 
L 615.2175 170.053338 
L 614.52 169.86259 
L 613.8225 169.674584 
L 613.125 169.491365 
L 612.4275 169.31489 
L 611.73 169.146998 
L 611.0325 168.989386 
L 610.335 168.843577 
L 609.6375 168.710904 
L 608.94 168.59249 
L 608.2425 168.489228 
L 607.545 168.401778 
L 606.8475 168.330552 
L 606.15 168.275716 
L 605.4525 168.237189 
L 604.755 168.214651 
L 604.0575 168.207549 
L 603.36 168.215115 
L 602.6625 168.236381 
L 601.965 168.270198 
L 601.2675 168.315262 
L 600.57 168.370142 
L 599.8725 168.433302 
L 599.175 168.503136 
L 598.4775 168.577997 
L 597.78 168.656228 
L 597.0825 168.73619 
L 596.385 168.8163 
L 595.6875 168.895052 
L 594.99 168.971047 
L 594.2925 169.043019 
L 593.595 169.109858 
L 592.8975 169.170626 
L 592.2 169.224575 
L 591.5025 169.271159 
L 590.805 169.310041 
L 590.1075 169.341099 
L 589.41 169.364425 
L 588.7125 169.380319 
L 588.015 169.389282 
L 587.3175 169.392008 
L 586.62 169.38936 
L 585.9225 169.382359 
L 585.225 169.372156 
L 584.5275 169.360011 
L 583.83 169.347266 
L 583.1325 169.335312 
L 582.435 169.325567 
L 581.7375 169.319439 
L 581.04 169.3183 
L 580.3425 169.323456 
L 579.645 169.336117 
L 578.9475 169.357371 
L 578.25 169.38816 
L 577.5525 169.429256 
L 576.855 169.481246 
L 576.1575 169.54451 
L 575.46 169.619216 
L 574.7625 169.705307 
L 574.065 169.802498 
L 573.3675 169.910278 
L 572.67 170.027912 
L 571.9725 170.154452 
L 571.275 170.288745 
L 570.5775 170.429456 
L 569.88 170.57508 
L 569.1825 170.723972 
L 568.485 170.874368 
L 567.7875 171.024415 
L 567.09 171.1722 
L 566.3925 171.315782 
L 565.695 171.453225 
L 564.9975 171.582626 
L 564.3 171.702152 
L 563.6025 171.810068 
L 562.905 171.904767 
L 562.2075 171.984798 
L 561.51 172.04889 
L 560.8125 172.095976 
L 560.115 172.12521 
L 559.4175 172.135982 
L 558.72 172.127931 
L 558.0225 172.10095 
L 557.325 172.055192 
L 556.6275 171.991064 
L 555.93 171.909227 
L 555.2325 171.810581 
L 554.535 171.696253 
L 553.8375 171.56758 
L 553.14 171.426087 
L 552.4425 171.273464 
L 551.745 171.111537 
L 551.0475 170.942241 
L 550.35 170.767586 
L 549.6525 170.589629 
L 548.955 170.41044 
L 548.2575 170.232067 
L 547.56 170.056507 
L 546.8625 169.885672 
L 546.165 169.721363 
L 545.4675 169.565241 
L 544.77 169.4188 
L 544.0725 169.283349 
L 543.375 169.159993 
L 542.6775 169.049616 
L 541.98 168.952873 
L 541.2825 168.870183 
L 540.585 168.801725 
L 539.8875 168.747442 
L 539.19 168.707045 
L 538.4925 168.680026 
L 537.795 168.665668 
L 537.0975 168.663067 
L 536.4 168.671148 
L 535.7025 168.688694 
L 535.005 168.714366 
L 534.3075 168.746738 
L 533.61 168.784319 
L 532.9125 168.825589 
L 532.215 168.869026 
L 531.5175 168.913139 
L 530.82 168.956494 
L 530.1225 168.997747 
L 529.425 169.035667 
L 528.7275 169.069158 
L 528.03 169.097288 
L 527.3325 169.119297 
L 526.635 169.134619 
L 525.9375 169.142891 
L 525.24 169.143958 
L 524.5425 169.137876 
L 523.845 169.124914 
L 523.1475 169.105545 
L 522.45 169.080439 
L 521.7525 169.050447 
L 521.055 169.016586 
L 520.3575 168.98002 
L 519.66 168.942034 
L 518.9625 168.904012 
L 518.265 168.867406 
L 517.5675 168.833709 
L 516.87 168.804425 
L 516.1725 168.781038 
L 515.475 168.76498 
L 514.7775 168.757606 
L 514.08 168.760161 
L 513.3825 168.773755 
L 512.685 168.799338 
L 511.9875 168.83768 
L 511.29 168.88935 
L 510.5925 168.954704 
L 509.895 169.033869 
L 509.1975 169.126741 
L 508.5 169.232978 
L 507.8025 169.352 
L 507.105 169.483 
L 506.4075 169.624945 
L 505.71 169.776598 
L 505.0125 169.936527 
L 504.315 170.103132 
L 503.6175 170.274665 
L 502.92 170.449258 
L 502.2225 170.62495 
L 501.525 170.799721 
L 500.8275 170.971518 
L 500.13 171.138295 
L 499.4325 171.298038 
L 498.735 171.448805 
L 498.0375 171.588749 
L 497.34 171.716154 
L 496.6425 171.82946 
L 495.945 171.927289 
L 495.2475 172.008465 
L 494.55 172.072036 
L 493.8525 172.117288 
L 493.155 172.143753 
L 492.4575 172.151222 
L 491.76 172.139741 
L 491.0625 172.109617 
L 490.365 172.061403 
L 489.6675 171.995897 
L 488.97 171.914123 
L 488.2725 171.817312 
L 487.575 171.706886 
L 486.8775 171.58443 
L 486.18 171.451664 
L 485.4825 171.310419 
L 484.785 171.162601 
L 484.0875 171.010164 
L 483.39 170.855073 
L 482.6925 170.699277 
L 481.995 170.544671 
L 481.2975 170.393072 
L 480.6 170.246188 
L 479.9025 170.105587 
L 479.205 169.972681 
L 478.5075 169.848699 
L 477.81 169.73467 
L 477.1125 169.631414 
L 476.415 169.539526 
L 475.7175 169.459373 
L 475.02 169.391095 
L 474.3225 169.334604 
L 473.625 169.289589 
L 472.9275 169.255534 
L 472.23 169.231725 
L 471.5325 169.217273 
L 470.835 169.211131 
L 470.1375 169.21212 
L 469.44 169.218959 
L 468.7425 169.230283 
L 468.045 169.244684 
L 467.3475 169.260732 
L 466.65 169.277009 
L 465.9525 169.29214 
L 465.255 169.304818 
L 464.5575 169.313835 
L 463.86 169.318107 
L 463.1625 169.316694 
L 462.465 169.308825 
L 461.7675 169.29391 
L 461.07 169.271559 
L 460.3725 169.241585 
L 459.675 169.204016 
L 458.9775 169.159091 
L 458.28 169.107262 
L 457.5825 169.049185 
L 456.885 168.985709 
L 456.1875 168.917862 
L 455.49 168.846834 
L 454.7925 168.773955 
L 454.095 168.70067 
L 453.3975 168.628515 
L 452.7 168.559085 
L 452.0025 168.494007 
L 451.305 168.434912 
L 450.6075 168.383395 
L 449.91 168.340994 
L 449.2125 168.309156 
L 448.515 168.289206 
L 447.8175 168.282325 
L 447.12 168.289522 
L 446.4225 168.311614 
L 445.725 168.349208 
L 445.0275 168.402685 
L 444.33 168.472191 
L 443.6325 168.557627 
L 442.935 168.658649 
L 442.2375 168.774667 
L 441.54 168.904855 
L 440.8425 169.048156 
L 440.145 169.203298 
L 439.4475 169.368813 
L 438.75 169.543056 
L 438.0525 169.724231 
L 437.355 169.910415 
L 436.6575 170.099594 
L 435.96 170.289683 
L 435.2625 170.47857 
L 434.565 170.66414 
L 433.8675 170.844312 
L 433.17 171.017071 
L 432.4725 171.180498 
L 431.775 171.332802 
L 431.0775 171.472344 
L 430.38 171.597667 
L 429.6825 171.707514 
L 428.985 171.800846 
L 428.2875 171.876862 
L 427.59 171.935006 
L 426.8925 171.974973 
L 426.195 171.996715 
L 425.4975 172.000437 
L 424.8 171.98659 
L 424.1025 171.955864 
L 423.405 171.909173 
L 422.7075 171.847633 
L 422.01 171.772547 
L 421.3125 171.685378 
L 420.615 171.587722 
L 419.9175 171.48128 
L 419.22 171.367826 
L 418.5225 171.249181 
L 417.825 171.127173 
L 417.1275 171.003614 
L 416.43 170.880262 
L 415.7325 170.758795 
L 415.035 170.640783 
L 414.3375 170.527661 
L 413.64 170.420707 
L 412.9425 170.321021 
L 412.245 170.229508 
L 411.5475 170.146868 
L 410.85 170.073586 
L 410.1525 170.009925 
L 409.455 169.955927 
L 408.7575 169.911417 
L 408.06 169.876012 
L 407.3625 169.849129 
L 406.665 169.830002 
L 405.9675 169.817701 
L 405.27 169.811152 
L 404.5725 169.809166 
L 403.875 169.810459 
L 403.1775 169.813683 
L 402.48 169.817458 
L 401.7825 169.820396 
L 401.085 169.821139 
L 400.3875 169.81838 
L 399.69 169.810896 
L 398.9925 169.797577 
L 398.295 169.777445 
L 397.5975 169.749682 
L 396.9 169.713643 
L 396.2025 169.668881 
L 395.505 169.615149 
L 394.8075 169.552416 
L 394.11 169.48087 
L 393.4125 169.400914 
L 392.715 169.313169 
L 392.0175 169.218461 
L 391.32 169.117811 
L 390.6225 169.012418 
L 389.925 168.903643 
L 389.2275 168.792984 
L 388.53 168.682051 
L 387.8325 168.57254 
L 387.135 168.466202 
L 386.4375 168.364815 
L 385.74 168.270151 
L 385.0425 168.183944 
L 384.345 168.107858 
L 383.6475 168.043461 
L 382.95 167.992192 
L 382.2525 167.955334 
L 381.555 167.933993 
L 380.8575 167.929073 
L 380.16 167.94126 
L 379.4625 167.971006 
L 378.765 168.018519 
L 378.0675 168.083756 
L 377.37 168.16642 
L 376.6725 168.265965 
L 375.975 168.381596 
L 375.2775 168.512287 
L 374.58 168.656788 
L 373.8825 168.813649 
L 373.185 168.981238 
L 372.4875 169.157766 
L 371.79 169.341316 
L 371.0925 169.529869 
L 370.395 169.721342 
L 369.6975 169.91361 
L 369 170.104549 
L 368.3025 170.292062 
L 367.605 170.474115 
L 366.9075 170.648767 
L 366.21 170.814199 
L 365.5125 170.968743 
L 364.815 171.110905 
L 364.1175 171.239388 
L 363.42 171.353109 
L 362.7225 171.451217 
L 362.025 171.533099 
L 361.3275 171.598389 
L 360.63 171.646969 
L 359.9325 171.678971 
L 359.235 171.694763 
L 358.5375 171.694948 
L 357.84 171.68034 
L 357.1425 171.651956 
L 356.445 171.610986 
L 355.7475 171.558776 
L 355.05 171.496796 
L 354.3525 171.426616 
L 353.655 171.349873 
L 352.9575 171.268242 
L 352.26 171.183404 
L 351.5625 171.097014 
L 350.865 171.010674 
L 350.1675 170.925901 
L 349.47 170.8441 
L 348.7725 170.766543 
L 348.075 170.694342 
L 347.3775 170.628433 
L 346.68 170.56956 
L 345.9825 170.518265 
L 345.285 170.474877 
L 344.5875 170.43951 
L 343.89 170.412066 
L 343.1925 170.392236 
L 342.495 170.379509 
L 341.7975 170.373187 
L 341.1 170.372401 
L 340.4025 170.376126 
L 339.705 170.38321 
L 339.0075 170.392393 
L 338.31 170.402339 
L 337.6125 170.411659 
L 336.915 170.418945 
L 336.2175 170.422802 
L 335.52 170.42187 
L 334.8225 170.41486 
L 334.125 170.400582 
L 333.4275 170.377967 
L 332.73 170.346097 
L 332.0325 170.304223 
L 331.335 170.251783 
L 330.6375 170.188421 
L 329.94 170.113994 
L 329.2425 170.028583 
L 328.545 169.932496 
L 327.8475 169.826265 
L 327.15 169.710643 
L 326.4525 169.586596 
L 325.755 169.455286 
L 325.0575 169.318059 
L 324.36 169.176424 
L 323.6625 169.032026 
L 322.965 168.886624 
L 322.2675 168.742061 
L 321.57 168.600235 
L 320.8725 168.463067 
L 320.175 168.332469 
L 319.4775 168.210312 
L 318.78 168.098394 
L 318.0825 167.998409 
L 317.385 167.911922 
L 316.6875 167.840334 
L 315.99 167.784864 
L 315.2925 167.746527 
L 314.595 167.72611 
L 313.8975 167.724166 
L 313.2 167.740995 
L 312.5025 167.776645 
L 311.805 167.830904 
L 311.1075 167.903305 
L 310.41 167.993132 
L 309.7125 168.099431 
L 309.015 168.221022 
L 308.3175 168.356521 
L 307.62 168.504358 
L 306.9225 168.662806 
L 306.225 168.830004 
L 305.5275 169.003989 
L 304.83 169.182725 
L 304.1325 169.364141 
L 303.435 169.546153 
L 302.7375 169.726709 
L 302.04 169.903812 
L 301.3425 170.075554 
L 300.645 170.240147 
L 299.9475 170.395946 
L 299.25 170.541476 
L 298.5525 170.675455 
L 297.855 170.796806 
L 297.1575 170.904678 
L 296.46 170.99845 
L 295.7625 171.077742 
L 295.065 171.142411 
L 294.3675 171.192556 
L 293.67 171.228505 
L 292.9725 171.250806 
L 292.275 171.260213 
L 291.5775 171.257669 
L 290.88 171.244284 
L 290.1825 171.22131 
L 289.485 171.190113 
L 288.7875 171.152152 
L 288.09 171.108939 
L 287.3925 171.062018 
L 286.695 171.012928 
L 285.9975 170.963176 
L 285.3 170.914206 
L 284.6025 170.867373 
L 283.905 170.823914 
L 283.2075 170.784925 
L 282.51 170.751342 
L 281.8125 170.723922 
L 281.115 170.703229 
L 280.4175 170.689623 
L 279.72 170.683254 
L 279.0225 170.68406 
L 278.325 170.69177 
L 277.6275 170.705906 
L 276.93 170.725797 
L 276.2325 170.75059 
L 275.535 170.77927 
L 274.8375 170.810677 
L 274.14 170.843532 
L 273.4425 170.87646 
L 272.745 170.908022 
L 272.0475 170.936739 
L 271.35 170.961127 
L 270.6525 170.979722 
L 269.955 170.991118 
L 269.2575 170.993986 
L 268.56 170.987111 
L 267.8625 170.969416 
L 267.165 170.939983 
L 266.4675 170.898078 
L 265.77 170.843167 
L 265.0725 170.774931 
L 264.375 170.693278 
L 263.6775 170.598347 
L 262.98 170.490515 
L 262.2825 170.370391 
L 261.585 170.238814 
L 260.8875 170.096839 
L 260.19 169.945728 
L 259.4925 169.78693 
L 258.795 169.622058 
L 258.0975 169.452868 
L 257.4 169.281233 
L 256.7025 169.109109 
L 256.005 168.938512 
L 255.3075 168.771476 
L 254.61 168.610032 
L 253.9125 168.456166 
L 253.215 168.311792 
L 252.5175 168.178719 
L 251.82 168.058623 
L 251.1225 167.95302 
L 250.425 167.863238 
L 249.7275 167.790401 
L 249.03 167.735404 
L 248.3325 167.698906 
L 247.635 167.681313 
L 246.9375 167.682776 
L 246.24 167.703186 
L 245.5425 167.742179 
L 244.845 167.799141 
L 244.1475 167.873217 
L 243.45 167.96333 
L 242.7525 168.068195 
L 242.055 168.186344 
L 241.3575 168.316148 
L 240.66 168.455845 
L 239.9625 168.603571 
L 239.265 168.757391 
L 238.5675 168.915325 
L 237.87 169.07539 
L 237.1725 169.235625 
L 236.475 169.394123 
L 235.7775 169.549066 
L 235.08 169.698748 
L 234.3825 169.841608 
L 233.685 169.976244 
L 232.9875 170.101445 
L 232.29 170.216196 
L 231.5925 170.319703 
L 230.895 170.411394 
L 230.1975 170.490926 
L 229.5 170.558189 
L 228.8025 170.6133 
L 228.105 170.656596 
L 227.4075 170.688624 
L 226.71 170.710124 
L 226.0125 170.722014 
L 225.315 170.725365 
L 224.6175 170.721377 
L 223.92 170.711356 
L 223.2225 170.696681 
L 222.525 170.678778 
L 221.8275 170.659089 
L 221.13 170.639041 
L 220.4325 170.620018 
L 219.735 170.603331 
L 219.0375 170.590188 
L 218.34 170.581675 
L 217.6425 170.578729 
L 216.945 170.582116 
L 216.2475 170.59242 
L 215.55 170.610029 
L 214.8525 170.635119 
L 214.155 170.66766 
L 213.4575 170.707404 
L 212.76 170.753896 
L 212.0625 170.806476 
L 211.365 170.864296 
L 210.6675 170.926328 
L 209.97 170.991386 
L 209.2725 171.058149 
L 208.575 171.12518 
L 207.8775 171.190959 
L 207.18 171.253909 
L 206.4825 171.312422 
L 205.785 171.364895 
L 205.0875 171.409761 
L 204.39 171.445513 
L 203.6925 171.470743 
L 202.995 171.484161 
L 202.2975 171.484629 
L 201.6 171.47118 
L 200.9025 171.443043 
L 200.205 171.399655 
L 199.5075 171.340683 
L 198.81 171.266026 
L 198.1125 171.17583 
L 197.415 171.070482 
L 196.7175 170.950614 
L 196.02 170.817093 
L 195.3225 170.671011 
L 194.625 170.513672 
L 193.9275 170.346573 
L 193.23 170.171384 
L 192.5325 169.989917 
L 191.835 169.804109 
L 191.1375 169.615983 
L 190.44 169.427623 
L 189.7425 169.241137 
L 189.045 169.05863 
L 188.3475 168.882165 
L 187.65 168.713735 
L 186.9525 168.55523 
L 186.255 168.408409 
L 185.5575 168.274872 
L 184.86 168.156034 
L 184.1625 168.053105 
L 183.465 167.967072 
L 182.7675 167.898685 
L 182.07 167.848445 
L 181.3725 167.816599 
L 180.675 167.80314 
L 179.9775 167.807805 
L 179.28 167.830084 
L 178.5825 167.869234 
L 177.885 167.924288 
L 177.1875 167.994075 
L 176.49 168.077246 
L 175.7925 168.172294 
L 175.095 168.27758 
L 174.3975 168.391367 
L 173.7 168.511847 
L 173.0025 168.637173 
L 172.305 168.765493 
L 171.6075 168.894978 
L 170.91 169.023856 
L 170.2125 169.150438 
L 169.515 169.273152 
L 168.8175 169.390561 
L 168.12 169.501392 
L 167.4225 169.604551 
L 166.725 169.699143 
L 166.0275 169.78448 
L 165.33 169.860094 
L 164.6325 169.925736 
L 163.935 169.981383 
L 163.2375 170.027225 
L 162.54 170.063666 
L 161.8425 170.091306 
L 161.145 170.110927 
L 160.4475 170.123473 
L 159.75 170.130032 
L 159.0525 170.131807 
L 158.355 170.130089 
L 157.6575 170.126232 
L 156.96 170.121623 
L 156.2625 170.117648 
L 155.565 170.115668 
L 154.8675 170.116985 
L 154.17 170.122815 
L 153.4725 170.134262 
L 152.775 170.152293 
L 152.0775 170.177717 
L 151.38 170.211164 
L 150.6825 170.25307 
L 149.985 170.303668 
L 149.2875 170.362976 
L 148.59 170.430795 
L 147.8925 170.506711 
L 147.195 170.590094 
L 146.4975 170.680112 
L 145.8 170.77574 
L 145.1025 170.875776 
L 144.405 170.978865 
L 143.7075 171.083514 
L 143.01 171.188124 
L 142.3125 171.291014 
L 141.615 171.390451 
L 140.9175 171.484682 
L 140.22 171.571964 
L 139.5225 171.650595 
L 138.825 171.718946 
L 138.1275 171.775491 
L 137.43 171.818835 
L 136.7325 171.84774 
L 136.035 171.861151 
L 135.3375 171.858216 
L 134.64 171.838302 
L 133.9425 171.801011 
L 133.245 171.746189 
L 132.5475 171.673933 
L 131.85 171.584594 
L 131.1525 171.478769 
L 130.455 171.3573 
L 129.7575 171.221262 
L 129.06 171.071945 
L 128.3625 170.910839 
L 127.665 170.739608 
L 126.9675 170.56007 
L 126.27 170.374166 
L 125.5725 170.183931 
L 124.875 169.991462 
L 124.1775 169.798887 
L 123.48 169.60833 
L 122.7825 169.421881 
L 122.085 169.241562 
L 121.3875 169.069294 
L 120.69 168.906874 
L 119.9925 168.75594 
L 119.295 168.617953 
L 118.5975 168.494171 
L 117.9 168.385635 
L 117.2025 168.293152 
L 116.505 168.217289 
L 115.8075 168.158361 
L 115.11 168.116435 
L 114.4125 168.091332 
L 113.715 168.082629 
L 113.0175 168.089676 
L 112.32 168.111609 
L 111.6225 168.147364 
L 110.925 168.195707 
L 110.2275 168.25525 
L 109.53 168.324485 
L 108.8325 168.401806 
L 108.135 168.485546 
L 107.4375 168.574003 
L 106.74 168.665473 
L 106.0425 168.75828 
L 105.345 168.85081 
L 104.6475 168.941533 
L 103.95 169.029036 
L 103.2525 169.112046 
L 102.555 169.189448 
L 101.8575 169.260309 
L 101.16 169.323888 
L 100.4625 169.379651 
L 99.765 169.427277 
L 99.0675 169.466658 
L 98.37 169.497905 
L 97.6725 169.521334 
L 96.975 169.537465 
L 96.2775 169.547003 
L 95.58 169.550826 
L 94.8825 169.549961 
L 94.185 169.545565 
L 93.4875 169.538897 
L 92.79 169.531293 
L 92.0925 169.524134 
L 91.395 169.518823 
L 90.6975 169.516746 
L 90 169.519248 
z
" style="fill:#e0ffff;"/>
   </g>
   <g id="line2d_19">
    <path clip-path="url(#p899c49ec09)" d="M 90 169.519248 
L 100.4625 169.379651 
L 104.6475 168.941533 
L 110.925 168.195707 
L 113.715 168.082629 
L 116.505 168.217289 
L 119.295 168.617953 
L 122.085 169.241562 
L 131.1525 171.478769 
L 133.9425 171.801011 
L 136.7325 171.84774 
L 139.5225 171.650595 
L 143.7075 171.083514 
L 148.59 170.430795 
L 152.0775 170.177717 
L 156.2625 170.117648 
L 162.54 170.063666 
L 166.0275 169.78448 
L 169.515 169.273152 
L 177.1875 167.994075 
L 179.9775 167.807805 
L 182.7675 167.898685 
L 185.5575 168.274872 
L 188.3475 168.882165 
L 197.415 171.070482 
L 200.205 171.399655 
L 202.995 171.484161 
L 206.4825 171.312422 
L 216.2475 170.59242 
L 220.4325 170.620018 
L 226.71 170.710124 
L 229.5 170.558189 
L 232.29 170.216196 
L 235.7775 169.549066 
L 242.7525 168.068195 
L 245.5425 167.742179 
L 247.635 167.681313 
L 249.7275 167.790401 
L 252.5175 168.178719 
L 256.005 168.938512 
L 262.2825 170.370391 
L 265.0725 170.774931 
L 267.8625 170.969416 
L 271.35 170.961127 
L 281.115 170.703229 
L 285.3 170.914206 
L 291.5775 171.257669 
L 294.3675 171.192556 
L 297.1575 170.904678 
L 299.9475 170.395946 
L 304.1325 169.364141 
L 308.3175 168.356521 
L 311.1075 167.903305 
L 313.8975 167.724166 
L 316.6875 167.840334 
L 319.4775 168.210312 
L 324.36 169.176424 
L 328.545 169.932496 
L 332.0325 170.304223 
L 335.52 170.42187 
L 345.9825 170.518265 
L 350.1675 170.925901 
L 356.445 171.610986 
L 359.235 171.694763 
L 362.025 171.533099 
L 364.815 171.110905 
L 368.3025 170.292062 
L 375.2775 168.512287 
L 378.0675 168.083756 
L 380.8575 167.929073 
L 383.6475 168.043461 
L 387.135 168.466202 
L 394.8075 169.552416 
L 398.295 169.777445 
L 403.1775 169.813683 
L 408.06 169.876012 
L 411.5475 170.146868 
L 415.035 170.640783 
L 422.7075 171.847633 
L 425.4975 172.000437 
L 428.2875 171.876862 
L 431.0775 171.472344 
L 434.565 170.66414 
L 441.54 168.904855 
L 444.33 168.472191 
L 447.12 168.289522 
L 449.91 168.340994 
L 454.095 168.70067 
L 459.675 169.204016 
L 463.1625 169.316694 
L 469.44 169.218959 
L 472.9275 169.255534 
L 475.7175 169.459373 
L 478.5075 169.848699 
L 482.6925 170.699277 
L 487.575 171.706886 
L 490.365 172.061403 
L 493.155 172.143753 
L 495.945 171.927289 
L 498.735 171.448805 
L 502.92 170.449258 
L 507.105 169.483 
L 509.895 169.033869 
L 512.685 168.799338 
L 516.1725 168.781038 
L 528.03 169.097288 
L 539.19 168.707045 
L 541.98 168.952873 
L 544.77 169.4188 
L 548.955 170.41044 
L 553.8375 171.56758 
L 556.6275 171.991064 
L 558.72 172.127931 
L 560.8125 172.095976 
L 563.6025 171.810068 
L 567.09 171.1722 
L 574.065 169.802498 
L 576.855 169.481246 
L 580.3425 169.323456 
L 585.9225 169.382359 
L 590.1075 169.341099 
L 593.595 169.109858 
L 604.0575 168.207549 
L 606.8475 168.330552 
L 609.6375 168.710904 
L 612.4275 169.31489 
L 621.495 171.554194 
L 624.285 171.889864 
L 627.075 171.942846 
L 629.865 171.73676 
L 633.3525 171.235415 
L 639.63 170.281079 
L 643.1175 169.998523 
L 646.605 169.92 
L 646.605 169.92 
" style="fill:none;stroke:#008080;stroke-linecap:round;stroke-width:1.75;"/>
   </g>
   <g id="patch_3">
    <path d="M 90 270.72 
L 90 69.12 
" style="fill:none;stroke:#262626;stroke-linecap:square;stroke-linejoin:miter;stroke-width:1.25;"/>
   </g>
   <g id="patch_4">
    <path d="M 90 270.72 
L 648 270.72 
" style="fill:none;stroke:#262626;stroke-linecap:square;stroke-linejoin:miter;stroke-width:1.25;"/>
   </g>
  </g>
  <g id="axes_2">
   <g id="patch_5">
    <path d="M 90 512.64 
L 648 512.64 
L 648 311.04 
L 90 311.04 
z
" style="fill:#ffffff;"/>
   </g>
   <g id="matplotlib.axis_3">
    <g id="xtick_10">
     <g id="line2d_20">
      <g>
       <use style="fill:#262626;stroke:#262626;" x="190.44" xlink:href="#m8446d75951" y="512.64"/>
      </g>
     </g>
     <g id="text_19">
      <!-- 200 -->
      <g style="fill:#262626;" transform="translate(182.098594 532.797812)scale(0.1 -0.1)">
       <use xlink:href="#ArialMT-32"/>
       <use x="55.615234" xlink:href="#ArialMT-30"/>
       <use x="111.230469" xlink:href="#ArialMT-30"/>
      </g>
     </g>
    </g>
    <g id="xtick_11">
     <g id="line2d_21">
      <g>
       <use style="fill:#262626;stroke:#262626;" x="302.04" xlink:href="#m8446d75951" y="512.64"/>
      </g>
     </g>
     <g id="text_20">
      <!-- 400 -->
      <g style="fill:#262626;" transform="translate(293.698594 532.797812)scale(0.1 -0.1)">
       <use xlink:href="#ArialMT-34"/>
       <use x="55.615234" xlink:href="#ArialMT-30"/>
       <use x="111.230469" xlink:href="#ArialMT-30"/>
      </g>
     </g>
    </g>
    <g id="xtick_12">
     <g id="line2d_22">
      <g>
       <use style="fill:#262626;stroke:#262626;" x="413.64" xlink:href="#m8446d75951" y="512.64"/>
      </g>
     </g>
     <g id="text_21">
      <!-- 600 -->
      <g style="fill:#262626;" transform="translate(405.298594 532.797812)scale(0.1 -0.1)">
       <use xlink:href="#ArialMT-36"/>
       <use x="55.615234" xlink:href="#ArialMT-30"/>
       <use x="111.230469" xlink:href="#ArialMT-30"/>
      </g>
     </g>
    </g>
    <g id="xtick_13">
     <g id="line2d_23">
      <g>
       <use style="fill:#262626;stroke:#262626;" x="525.24" xlink:href="#m8446d75951" y="512.64"/>
      </g>
     </g>
     <g id="text_22">
      <!-- 800 -->
      <g style="fill:#262626;" transform="translate(516.898594 532.797812)scale(0.1 -0.1)">
       <use xlink:href="#ArialMT-38"/>
       <use x="55.615234" xlink:href="#ArialMT-30"/>
       <use x="111.230469" xlink:href="#ArialMT-30"/>
      </g>
     </g>
    </g>
    <g id="xtick_14">
     <g id="line2d_24">
      <g>
       <use style="fill:#262626;stroke:#262626;" x="636.84" xlink:href="#m8446d75951" y="512.64"/>
      </g>
     </g>
     <g id="text_23">
      <!-- 1000 -->
      <g style="fill:#262626;" transform="translate(625.718125 532.797812)scale(0.1 -0.1)">
       <use xlink:href="#ArialMT-31"/>
       <use x="55.615234" xlink:href="#ArialMT-30"/>
       <use x="111.230469" xlink:href="#ArialMT-30"/>
       <use x="166.845703" xlink:href="#ArialMT-30"/>
      </g>
     </g>
    </g>
   </g>
   <g id="matplotlib.axis_4">
    <g id="ytick_10">
     <g id="line2d_25">
      <g>
       <use style="fill:#262626;stroke:#262626;" x="90" xlink:href="#m83cb2cb92f" y="512.64"/>
      </g>
     </g>
     <g id="text_24">
      <!-- 0 -->
      <g style="fill:#262626;" transform="translate(71.439063 516.218906)scale(0.1 -0.1)">
       <use xlink:href="#ArialMT-30"/>
      </g>
     </g>
    </g>
    <g id="ytick_11">
     <g id="line2d_26">
      <g>
       <use style="fill:#262626;stroke:#262626;" x="90" xlink:href="#m83cb2cb92f" y="483.84"/>
      </g>
     </g>
     <g id="text_25">
      <!-- 10 -->
      <g style="fill:#262626;" transform="translate(65.878125 487.418906)scale(0.1 -0.1)">
       <use xlink:href="#ArialMT-31"/>
       <use x="55.615234" xlink:href="#ArialMT-30"/>
      </g>
     </g>
    </g>
    <g id="ytick_12">
     <g id="line2d_27">
      <g>
       <use style="fill:#262626;stroke:#262626;" x="90" xlink:href="#m83cb2cb92f" y="455.04"/>
      </g>
     </g>
     <g id="text_26">
      <!-- 20 -->
      <g style="fill:#262626;" transform="translate(65.878125 458.618906)scale(0.1 -0.1)">
       <use xlink:href="#ArialMT-32"/>
       <use x="55.615234" xlink:href="#ArialMT-30"/>
      </g>
     </g>
    </g>
    <g id="ytick_13">
     <g id="line2d_28">
      <g>
       <use style="fill:#262626;stroke:#262626;" x="90" xlink:href="#m83cb2cb92f" y="426.24"/>
      </g>
     </g>
     <g id="text_27">
      <!-- 30 -->
      <g style="fill:#262626;" transform="translate(65.878125 429.818906)scale(0.1 -0.1)">
       <use xlink:href="#ArialMT-33"/>
       <use x="55.615234" xlink:href="#ArialMT-30"/>
      </g>
     </g>
    </g>
    <g id="ytick_14">
     <g id="line2d_29">
      <g>
       <use style="fill:#262626;stroke:#262626;" x="90" xlink:href="#m83cb2cb92f" y="397.44"/>
      </g>
     </g>
     <g id="text_28">
      <!-- 40 -->
      <g style="fill:#262626;" transform="translate(65.878125 401.018906)scale(0.1 -0.1)">
       <use xlink:href="#ArialMT-34"/>
       <use x="55.615234" xlink:href="#ArialMT-30"/>
      </g>
     </g>
    </g>
    <g id="ytick_15">
     <g id="line2d_30">
      <g>
       <use style="fill:#262626;stroke:#262626;" x="90" xlink:href="#m83cb2cb92f" y="368.64"/>
      </g>
     </g>
     <g id="text_29">
      <!-- 50 -->
      <g style="fill:#262626;" transform="translate(65.878125 372.218906)scale(0.1 -0.1)">
       <use xlink:href="#ArialMT-35"/>
       <use x="55.615234" xlink:href="#ArialMT-30"/>
      </g>
     </g>
    </g>
    <g id="ytick_16">
     <g id="line2d_31">
      <g>
       <use style="fill:#262626;stroke:#262626;" x="90" xlink:href="#m83cb2cb92f" y="339.84"/>
      </g>
     </g>
     <g id="text_30">
      <!-- 60 -->
      <g style="fill:#262626;" transform="translate(65.878125 343.418906)scale(0.1 -0.1)">
       <use xlink:href="#ArialMT-36"/>
       <use x="55.615234" xlink:href="#ArialMT-30"/>
      </g>
     </g>
    </g>
    <g id="ytick_17">
     <g id="line2d_32">
      <g>
       <use style="fill:#262626;stroke:#262626;" x="90" xlink:href="#m83cb2cb92f" y="311.04"/>
      </g>
     </g>
     <g id="text_31">
      <!-- 70 -->
      <g style="fill:#262626;" transform="translate(65.878125 314.618906)scale(0.1 -0.1)">
       <use xlink:href="#ArialMT-37"/>
       <use x="55.615234" xlink:href="#ArialMT-30"/>
      </g>
     </g>
    </g>
   </g>
   <g id="line2d_33">
    <path clip-path="url(#p11c09f7577)" d="M 90 495.208 
L 101.16 496.246355 
L 112.32 497.676438 
L 123.48 496.773624 
L 134.64 495.319457 
L 145.8 494.970857 
L 156.96 496.496469 
L 168.12 493.948302 
L 179.28 491.922563 
L 190.44 492.701338 
L 201.6 493.08264 
L 212.76 488.265624 
L 223.92 486.884007 
L 235.08 484.919609 
L 246.24 481.076037 
L 257.4 476.781513 
L 268.56 466.885099 
L 279.72 461.735001 
L 290.88 446.632864 
L 302.04 392.641353 
L 313.2 347.842084 
L 324.36 327.210442 
L 335.52 347.127932 
L 346.68 397.986588 
L 357.84 448.123679 
L 369 461.866051 
L 380.16 470.857725 
L 391.32 480.686219 
L 402.48 482.14059 
L 413.64 486.68837 
L 424.8 491.849661 
L 435.96 491.68536 
L 447.12 493.461916 
L 458.28 496.485392 
L 469.44 497.52324 
L 480.6 497.152641 
L 491.76 498.521226 
L 502.92 500.730979 
L 514.08 500.835305 
L 525.24 500.069125 
L 536.4 501.805146 
L 547.56 503.483326 
L 558.72 502.179775 
L 569.88 502.972342 
L 581.04 504.272108 
L 592.2 504.526189 
L 603.36 503.466449 
" style="fill:none;stroke:#b22222;stroke-linecap:round;stroke-width:1.75;"/>
   </g>
   <g id="patch_6">
    <path d="M 90 512.64 
L 90 311.04 
" style="fill:none;stroke:#262626;stroke-linecap:square;stroke-linejoin:miter;stroke-width:1.25;"/>
   </g>
   <g id="patch_7">
    <path d="M 90 512.64 
L 648 512.64 
" style="fill:none;stroke:#262626;stroke-linecap:square;stroke-linejoin:miter;stroke-width:1.25;"/>
   </g>
   <g id="text_32">
    <!-- f = 940 -->
    <defs>
     <path d="M 8.6875 0 
L 8.6875 45.015625 
L 0.921875 45.015625 
L 0.921875 51.859375 
L 8.6875 51.859375 
L 8.6875 57.375 
Q 8.6875 62.59375 9.625 65.140625 
Q 10.890625 68.5625 14.078125 70.671875 
Q 17.28125 72.796875 23.046875 72.796875 
Q 26.765625 72.796875 31.25 71.921875 
L 29.9375 64.265625 
Q 27.203125 64.75 24.75 64.75 
Q 20.75 64.75 19.09375 63.03125 
Q 17.4375 61.328125 17.4375 56.640625 
L 17.4375 51.859375 
L 27.546875 51.859375 
L 27.546875 45.015625 
L 17.4375 45.015625 
L 17.4375 0 
z
" id="ArialMT-66"/>
     <path id="ArialMT-20"/>
     <path d="M 52.828125 42.09375 
L 5.5625 42.09375 
L 5.5625 50.296875 
L 52.828125 50.296875 
z
M 52.828125 20.359375 
L 5.5625 20.359375 
L 5.5625 28.5625 
L 52.828125 28.5625 
z
" id="ArialMT-3d"/>
     <path d="M 5.46875 16.546875 
L 13.921875 17.328125 
Q 14.984375 11.375 18.015625 8.6875 
Q 21.046875 6 25.78125 6 
Q 29.828125 6 32.875 7.859375 
Q 35.9375 9.71875 37.890625 12.8125 
Q 39.84375 15.921875 41.15625 21.1875 
Q 42.484375 26.46875 42.484375 31.9375 
Q 42.484375 32.515625 42.4375 33.6875 
Q 39.796875 29.5 35.234375 26.875 
Q 30.671875 24.265625 25.34375 24.265625 
Q 16.453125 24.265625 10.296875 30.703125 
Q 4.15625 37.15625 4.15625 47.703125 
Q 4.15625 58.59375 10.578125 65.234375 
Q 17 71.875 26.65625 71.875 
Q 33.640625 71.875 39.421875 68.109375 
Q 45.21875 64.359375 48.21875 57.390625 
Q 51.21875 50.4375 51.21875 37.25 
Q 51.21875 23.53125 48.234375 15.40625 
Q 45.265625 7.28125 39.375 3.03125 
Q 33.5 -1.21875 25.59375 -1.21875 
Q 17.1875 -1.21875 11.859375 3.4375 
Q 6.546875 8.109375 5.46875 16.546875 
z
M 41.453125 48.140625 
Q 41.453125 55.71875 37.421875 60.15625 
Q 33.40625 64.59375 27.734375 64.59375 
Q 21.875 64.59375 17.53125 59.8125 
Q 13.1875 55.03125 13.1875 47.40625 
Q 13.1875 40.578125 17.3125 36.296875 
Q 21.4375 32.03125 27.484375 32.03125 
Q 33.59375 32.03125 37.515625 36.296875 
Q 41.453125 40.578125 41.453125 48.140625 
z
" id="ArialMT-39"/>
    </defs>
    <g style="fill:#262626;" transform="translate(525.24 371.742188)scale(0.12 -0.12)">
     <use xlink:href="#ArialMT-66"/>
     <use x="27.783203" xlink:href="#ArialMT-20"/>
     <use x="55.566406" xlink:href="#ArialMT-3d"/>
     <use x="113.964844" xlink:href="#ArialMT-20"/>
     <use x="141.748047" xlink:href="#ArialMT-39"/>
     <use x="197.363281" xlink:href="#ArialMT-34"/>
     <use x="252.978516" xlink:href="#ArialMT-30"/>
    </g>
   </g>
   <g id="PathCollection_1">
    <defs>
     <path d="M 0 3.5 
C 0.928211 3.5 1.81853 3.131218 2.474874 2.474874 
C 3.131218 1.81853 3.5 0.928211 3.5 0 
C 3.5 -0.928211 3.131218 -1.81853 2.474874 -2.474874 
C 1.81853 -3.131218 0.928211 -3.5 0 -3.5 
C -0.928211 -3.5 -1.81853 -3.131218 -2.474874 -2.474874 
C -3.131218 -1.81853 -3.5 -0.928211 -3.5 0 
C -3.5 0.928211 -3.131218 1.81853 -2.474874 2.474874 
C -1.81853 3.131218 -0.928211 3.5 0 3.5 
z
" id="m9ba8184537" style="stroke:#800000;stroke-width:0.3;"/>
    </defs>
    <g clip-path="url(#p11c09f7577)">
     <use style="fill:#800000;stroke:#800000;stroke-width:0.3;" x="603.36" xlink:href="#m9ba8184537" y="503.466449"/>
    </g>
   </g>
  </g>
 </g>
 <defs>
  <clipPath id="p899c49ec09">
   <rect height="201.6" width="558" x="90" y="69.12"/>
  </clipPath>
  <clipPath id="p11c09f7577">
   <rect height="201.6" width="558" x="90" y="311.04"/>
  </clipPath>
 </defs>
</svg>
