<?xml version="1.0" encoding="utf-8" standalone="no"?>
<!DOCTYPE svg PUBLIC "-//W3C//DTD SVG 1.1//EN"
  "http://www.w3.org/Graphics/SVG/1.1/DTD/svg11.dtd">
<!-- Created with matplotlib (http://matplotlib.org/) -->
<svg height="576pt" version="1.1" viewBox="0 0 720 576" width="720pt" xmlns="http://www.w3.org/2000/svg" xmlns:xlink="http://www.w3.org/1999/xlink">
 <defs>
  <style type="text/css">
*{stroke-linecap:butt;stroke-linejoin:round;}
  </style>
 </defs>
 <g id="figure_1">
  <g id="patch_1">
   <path d="M 0 576 
L 720 576 
L 720 0 
L 0 0 
z
" style="fill:#ffffff;"/>
  </g>
  <g id="axes_1">
   <g id="patch_2">
    <path d="M 90 270.72 
L 648 270.72 
L 648 69.12 
L 90 69.12 
z
" style="fill:#ffffff;"/>
   </g>
   <g id="matplotlib.axis_1">
    <g id="xtick_1">
     <g id="line2d_1">
      <defs>
       <path d="M 0 0 
L 0 6 
" id="mbb6ef28899" style="stroke:#262626;"/>
      </defs>
      <g>
       <use style="fill:#262626;stroke:#262626;" x="90" xlink:href="#mbb6ef28899" y="270.72"/>
      </g>
     </g>
     <g id="text_1">
      <!-- 0 -->
      <defs>
       <path d="M 4.15625 35.296875 
Q 4.15625 48 6.765625 55.734375 
Q 9.375 63.484375 14.515625 67.671875 
Q 19.671875 71.875 27.484375 71.875 
Q 33.25 71.875 37.59375 69.546875 
Q 41.9375 67.234375 44.765625 62.859375 
Q 47.609375 58.5 49.21875 52.21875 
Q 50.828125 45.953125 50.828125 35.296875 
Q 50.828125 22.703125 48.234375 14.96875 
Q 45.65625 7.234375 40.5 3 
Q 35.359375 -1.21875 27.484375 -1.21875 
Q 17.140625 -1.21875 11.234375 6.203125 
Q 4.15625 15.140625 4.15625 35.296875 
z
M 13.1875 35.296875 
Q 13.1875 17.671875 17.3125 11.828125 
Q 21.4375 6 27.484375 6 
Q 33.546875 6 37.671875 11.859375 
Q 41.796875 17.71875 41.796875 35.296875 
Q 41.796875 52.984375 37.671875 58.78125 
Q 33.546875 64.59375 27.390625 64.59375 
Q 21.34375 64.59375 17.71875 59.46875 
Q 13.1875 52.9375 13.1875 35.296875 
z
" id="ArialMT-30"/>
      </defs>
      <g style="fill:#262626;" transform="translate(87.219531 290.877812)scale(0.1 -0.1)">
       <use xlink:href="#ArialMT-30"/>
      </g>
     </g>
    </g>
    <g id="xtick_2">
     <g id="line2d_2">
      <g>
       <use style="fill:#262626;stroke:#262626;" x="159.75" xlink:href="#mbb6ef28899" y="270.72"/>
      </g>
     </g>
     <g id="text_2">
      <!-- 100 -->
      <defs>
       <path d="M 37.25 0 
L 28.46875 0 
L 28.46875 56 
Q 25.296875 52.984375 20.140625 49.953125 
Q 14.984375 46.921875 10.890625 45.40625 
L 10.890625 53.90625 
Q 18.265625 57.375 23.78125 62.296875 
Q 29.296875 67.234375 31.59375 71.875 
L 37.25 71.875 
z
" id="ArialMT-31"/>
      </defs>
      <g style="fill:#262626;" transform="translate(151.408594 290.877812)scale(0.1 -0.1)">
       <use xlink:href="#ArialMT-31"/>
       <use x="55.615234" xlink:href="#ArialMT-30"/>
       <use x="111.230469" xlink:href="#ArialMT-30"/>
      </g>
     </g>
    </g>
    <g id="xtick_3">
     <g id="line2d_3">
      <g>
       <use style="fill:#262626;stroke:#262626;" x="229.5" xlink:href="#mbb6ef28899" y="270.72"/>
      </g>
     </g>
     <g id="text_3">
      <!-- 200 -->
      <defs>
       <path d="M 50.34375 8.453125 
L 50.34375 0 
L 3.03125 0 
Q 2.9375 3.171875 4.046875 6.109375 
Q 5.859375 10.9375 9.828125 15.625 
Q 13.8125 20.3125 21.34375 26.46875 
Q 33.015625 36.03125 37.109375 41.625 
Q 41.21875 47.21875 41.21875 52.203125 
Q 41.21875 57.421875 37.46875 61 
Q 33.734375 64.59375 27.734375 64.59375 
Q 21.390625 64.59375 17.578125 60.78125 
Q 13.765625 56.984375 13.71875 50.25 
L 4.6875 51.171875 
Q 5.609375 61.28125 11.65625 66.578125 
Q 17.71875 71.875 27.9375 71.875 
Q 38.234375 71.875 44.234375 66.15625 
Q 50.25 60.453125 50.25 52 
Q 50.25 47.703125 48.484375 43.546875 
Q 46.734375 39.40625 42.65625 34.8125 
Q 38.578125 30.21875 29.109375 22.21875 
Q 21.1875 15.578125 18.9375 13.203125 
Q 16.703125 10.84375 15.234375 8.453125 
z
" id="ArialMT-32"/>
      </defs>
      <g style="fill:#262626;" transform="translate(221.158594 290.877812)scale(0.1 -0.1)">
       <use xlink:href="#ArialMT-32"/>
       <use x="55.615234" xlink:href="#ArialMT-30"/>
       <use x="111.230469" xlink:href="#ArialMT-30"/>
      </g>
     </g>
    </g>
    <g id="xtick_4">
     <g id="line2d_4">
      <g>
       <use style="fill:#262626;stroke:#262626;" x="299.25" xlink:href="#mbb6ef28899" y="270.72"/>
      </g>
     </g>
     <g id="text_4">
      <!-- 300 -->
      <defs>
       <path d="M 4.203125 18.890625 
L 12.984375 20.0625 
Q 14.5 12.59375 18.140625 9.296875 
Q 21.78125 6 27 6 
Q 33.203125 6 37.46875 10.296875 
Q 41.75 14.59375 41.75 20.953125 
Q 41.75 27 37.796875 30.921875 
Q 33.84375 34.859375 27.734375 34.859375 
Q 25.25 34.859375 21.53125 33.890625 
L 22.515625 41.609375 
Q 23.390625 41.5 23.921875 41.5 
Q 29.546875 41.5 34.03125 44.421875 
Q 38.53125 47.359375 38.53125 53.46875 
Q 38.53125 58.296875 35.25 61.46875 
Q 31.984375 64.65625 26.8125 64.65625 
Q 21.6875 64.65625 18.265625 61.421875 
Q 14.84375 58.203125 13.875 51.765625 
L 5.078125 53.328125 
Q 6.6875 62.15625 12.390625 67.015625 
Q 18.109375 71.875 26.609375 71.875 
Q 32.46875 71.875 37.390625 69.359375 
Q 42.328125 66.84375 44.9375 62.5 
Q 47.5625 58.15625 47.5625 53.265625 
Q 47.5625 48.640625 45.0625 44.828125 
Q 42.578125 41.015625 37.703125 38.765625 
Q 44.046875 37.3125 47.5625 32.6875 
Q 51.078125 28.078125 51.078125 21.140625 
Q 51.078125 11.765625 44.234375 5.25 
Q 37.40625 -1.265625 26.953125 -1.265625 
Q 17.53125 -1.265625 11.296875 4.34375 
Q 5.078125 9.96875 4.203125 18.890625 
z
" id="ArialMT-33"/>
      </defs>
      <g style="fill:#262626;" transform="translate(290.908594 290.877812)scale(0.1 -0.1)">
       <use xlink:href="#ArialMT-33"/>
       <use x="55.615234" xlink:href="#ArialMT-30"/>
       <use x="111.230469" xlink:href="#ArialMT-30"/>
      </g>
     </g>
    </g>
    <g id="xtick_5">
     <g id="line2d_5">
      <g>
       <use style="fill:#262626;stroke:#262626;" x="369" xlink:href="#mbb6ef28899" y="270.72"/>
      </g>
     </g>
     <g id="text_5">
      <!-- 400 -->
      <defs>
       <path d="M 32.328125 0 
L 32.328125 17.140625 
L 1.265625 17.140625 
L 1.265625 25.203125 
L 33.9375 71.578125 
L 41.109375 71.578125 
L 41.109375 25.203125 
L 50.78125 25.203125 
L 50.78125 17.140625 
L 41.109375 17.140625 
L 41.109375 0 
z
M 32.328125 25.203125 
L 32.328125 57.46875 
L 9.90625 25.203125 
z
" id="ArialMT-34"/>
      </defs>
      <g style="fill:#262626;" transform="translate(360.658594 290.877812)scale(0.1 -0.1)">
       <use xlink:href="#ArialMT-34"/>
       <use x="55.615234" xlink:href="#ArialMT-30"/>
       <use x="111.230469" xlink:href="#ArialMT-30"/>
      </g>
     </g>
    </g>
    <g id="xtick_6">
     <g id="line2d_6">
      <g>
       <use style="fill:#262626;stroke:#262626;" x="438.75" xlink:href="#mbb6ef28899" y="270.72"/>
      </g>
     </g>
     <g id="text_6">
      <!-- 500 -->
      <defs>
       <path d="M 4.15625 18.75 
L 13.375 19.53125 
Q 14.40625 12.796875 18.140625 9.390625 
Q 21.875 6 27.15625 6 
Q 33.5 6 37.890625 10.78125 
Q 42.28125 15.578125 42.28125 23.484375 
Q 42.28125 31 38.0625 35.34375 
Q 33.84375 39.703125 27 39.703125 
Q 22.75 39.703125 19.328125 37.765625 
Q 15.921875 35.84375 13.96875 32.765625 
L 5.71875 33.84375 
L 12.640625 70.609375 
L 48.25 70.609375 
L 48.25 62.203125 
L 19.671875 62.203125 
L 15.828125 42.96875 
Q 22.265625 47.46875 29.34375 47.46875 
Q 38.71875 47.46875 45.15625 40.96875 
Q 51.609375 34.46875 51.609375 24.265625 
Q 51.609375 14.546875 45.953125 7.46875 
Q 39.0625 -1.21875 27.15625 -1.21875 
Q 17.390625 -1.21875 11.203125 4.25 
Q 5.03125 9.71875 4.15625 18.75 
z
" id="ArialMT-35"/>
      </defs>
      <g style="fill:#262626;" transform="translate(430.408594 290.877812)scale(0.1 -0.1)">
       <use xlink:href="#ArialMT-35"/>
       <use x="55.615234" xlink:href="#ArialMT-30"/>
       <use x="111.230469" xlink:href="#ArialMT-30"/>
      </g>
     </g>
    </g>
    <g id="xtick_7">
     <g id="line2d_7">
      <g>
       <use style="fill:#262626;stroke:#262626;" x="508.5" xlink:href="#mbb6ef28899" y="270.72"/>
      </g>
     </g>
     <g id="text_7">
      <!-- 600 -->
      <defs>
       <path d="M 49.75 54.046875 
L 41.015625 53.375 
Q 39.84375 58.546875 37.703125 60.890625 
Q 34.125 64.65625 28.90625 64.65625 
Q 24.703125 64.65625 21.53125 62.3125 
Q 17.390625 59.28125 14.984375 53.46875 
Q 12.59375 47.65625 12.5 36.921875 
Q 15.671875 41.75 20.265625 44.09375 
Q 24.859375 46.4375 29.890625 46.4375 
Q 38.671875 46.4375 44.84375 39.96875 
Q 51.03125 33.5 51.03125 23.25 
Q 51.03125 16.5 48.125 10.71875 
Q 45.21875 4.9375 40.140625 1.859375 
Q 35.0625 -1.21875 28.609375 -1.21875 
Q 17.625 -1.21875 10.6875 6.859375 
Q 3.765625 14.9375 3.765625 33.5 
Q 3.765625 54.25 11.421875 63.671875 
Q 18.109375 71.875 29.4375 71.875 
Q 37.890625 71.875 43.28125 67.140625 
Q 48.6875 62.40625 49.75 54.046875 
z
M 13.875 23.1875 
Q 13.875 18.65625 15.796875 14.5 
Q 17.71875 10.359375 21.1875 8.171875 
Q 24.65625 6 28.46875 6 
Q 34.03125 6 38.03125 10.484375 
Q 42.046875 14.984375 42.046875 22.703125 
Q 42.046875 30.125 38.078125 34.390625 
Q 34.125 38.671875 28.125 38.671875 
Q 22.171875 38.671875 18.015625 34.390625 
Q 13.875 30.125 13.875 23.1875 
z
" id="ArialMT-36"/>
      </defs>
      <g style="fill:#262626;" transform="translate(500.158594 290.877812)scale(0.1 -0.1)">
       <use xlink:href="#ArialMT-36"/>
       <use x="55.615234" xlink:href="#ArialMT-30"/>
       <use x="111.230469" xlink:href="#ArialMT-30"/>
      </g>
     </g>
    </g>
    <g id="xtick_8">
     <g id="line2d_8">
      <g>
       <use style="fill:#262626;stroke:#262626;" x="578.25" xlink:href="#mbb6ef28899" y="270.72"/>
      </g>
     </g>
     <g id="text_8">
      <!-- 700 -->
      <defs>
       <path d="M 4.734375 62.203125 
L 4.734375 70.65625 
L 51.078125 70.65625 
L 51.078125 63.8125 
Q 44.234375 56.546875 37.515625 44.484375 
Q 30.8125 32.421875 27.15625 19.671875 
Q 24.515625 10.6875 23.78125 0 
L 14.75 0 
Q 14.890625 8.453125 18.0625 20.40625 
Q 21.234375 32.375 27.171875 43.484375 
Q 33.109375 54.59375 39.796875 62.203125 
z
" id="ArialMT-37"/>
      </defs>
      <g style="fill:#262626;" transform="translate(569.908594 290.877812)scale(0.1 -0.1)">
       <use xlink:href="#ArialMT-37"/>
       <use x="55.615234" xlink:href="#ArialMT-30"/>
       <use x="111.230469" xlink:href="#ArialMT-30"/>
      </g>
     </g>
    </g>
    <g id="xtick_9">
     <g id="line2d_9">
      <g>
       <use style="fill:#262626;stroke:#262626;" x="648" xlink:href="#mbb6ef28899" y="270.72"/>
      </g>
     </g>
     <g id="text_9">
      <!-- 800 -->
      <defs>
       <path d="M 17.671875 38.8125 
Q 12.203125 40.828125 9.5625 44.53125 
Q 6.9375 48.25 6.9375 53.421875 
Q 6.9375 61.234375 12.546875 66.546875 
Q 18.171875 71.875 27.484375 71.875 
Q 36.859375 71.875 42.578125 66.421875 
Q 48.296875 60.984375 48.296875 53.171875 
Q 48.296875 48.1875 45.671875 44.5 
Q 43.0625 40.828125 37.75 38.8125 
Q 44.34375 36.671875 47.78125 31.875 
Q 51.21875 27.09375 51.21875 20.453125 
Q 51.21875 11.28125 44.71875 5.03125 
Q 38.234375 -1.21875 27.640625 -1.21875 
Q 17.046875 -1.21875 10.546875 5.046875 
Q 4.046875 11.328125 4.046875 20.703125 
Q 4.046875 27.6875 7.59375 32.390625 
Q 11.140625 37.109375 17.671875 38.8125 
z
M 15.921875 53.71875 
Q 15.921875 48.640625 19.1875 45.40625 
Q 22.46875 42.1875 27.6875 42.1875 
Q 32.765625 42.1875 36.015625 45.375 
Q 39.265625 48.578125 39.265625 53.21875 
Q 39.265625 58.0625 35.90625 61.359375 
Q 32.5625 64.65625 27.59375 64.65625 
Q 22.5625 64.65625 19.234375 61.421875 
Q 15.921875 58.203125 15.921875 53.71875 
z
M 13.09375 20.65625 
Q 13.09375 16.890625 14.875 13.375 
Q 16.65625 9.859375 20.171875 7.921875 
Q 23.6875 6 27.734375 6 
Q 34.03125 6 38.125 10.046875 
Q 42.234375 14.109375 42.234375 20.359375 
Q 42.234375 26.703125 38.015625 30.859375 
Q 33.796875 35.015625 27.4375 35.015625 
Q 21.234375 35.015625 17.15625 30.90625 
Q 13.09375 26.8125 13.09375 20.65625 
z
" id="ArialMT-38"/>
      </defs>
      <g style="fill:#262626;" transform="translate(639.658594 290.877812)scale(0.1 -0.1)">
       <use xlink:href="#ArialMT-38"/>
       <use x="55.615234" xlink:href="#ArialMT-30"/>
       <use x="111.230469" xlink:href="#ArialMT-30"/>
      </g>
     </g>
    </g>
   </g>
   <g id="matplotlib.axis_2">
    <g id="ytick_1">
     <g id="line2d_10">
      <defs>
       <path d="M 0 0 
L -6 0 
" id="m7222871057" style="stroke:#262626;"/>
      </defs>
      <g>
       <use style="fill:#262626;stroke:#262626;" x="90" xlink:href="#m7222871057" y="270.72"/>
      </g>
     </g>
     <g id="text_10">
      <!-- −0.20 -->
      <defs>
       <path d="M 52.828125 31.203125 
L 5.5625 31.203125 
L 5.5625 39.40625 
L 52.828125 39.40625 
z
" id="ArialMT-2212"/>
       <path d="M 9.078125 0 
L 9.078125 10.015625 
L 19.09375 10.015625 
L 19.09375 0 
z
" id="ArialMT-2e"/>
      </defs>
      <g style="fill:#262626;" transform="translate(51.698437 274.298906)scale(0.1 -0.1)">
       <use xlink:href="#ArialMT-2212"/>
       <use x="58.398438" xlink:href="#ArialMT-30"/>
       <use x="114.013672" xlink:href="#ArialMT-2e"/>
       <use x="141.796875" xlink:href="#ArialMT-32"/>
       <use x="197.412109" xlink:href="#ArialMT-30"/>
      </g>
     </g>
    </g>
    <g id="ytick_2">
     <g id="line2d_11">
      <g>
       <use style="fill:#262626;stroke:#262626;" x="90" xlink:href="#m7222871057" y="245.52"/>
      </g>
     </g>
     <g id="text_11">
      <!-- −0.15 -->
      <g style="fill:#262626;" transform="translate(51.698437 249.098906)scale(0.1 -0.1)">
       <use xlink:href="#ArialMT-2212"/>
       <use x="58.398438" xlink:href="#ArialMT-30"/>
       <use x="114.013672" xlink:href="#ArialMT-2e"/>
       <use x="141.796875" xlink:href="#ArialMT-31"/>
       <use x="197.412109" xlink:href="#ArialMT-35"/>
      </g>
     </g>
    </g>
    <g id="ytick_3">
     <g id="line2d_12">
      <g>
       <use style="fill:#262626;stroke:#262626;" x="90" xlink:href="#m7222871057" y="220.32"/>
      </g>
     </g>
     <g id="text_12">
      <!-- −0.10 -->
      <g style="fill:#262626;" transform="translate(51.698437 223.898906)scale(0.1 -0.1)">
       <use xlink:href="#ArialMT-2212"/>
       <use x="58.398438" xlink:href="#ArialMT-30"/>
       <use x="114.013672" xlink:href="#ArialMT-2e"/>
       <use x="141.796875" xlink:href="#ArialMT-31"/>
       <use x="197.412109" xlink:href="#ArialMT-30"/>
      </g>
     </g>
    </g>
    <g id="ytick_4">
     <g id="line2d_13">
      <g>
       <use style="fill:#262626;stroke:#262626;" x="90" xlink:href="#m7222871057" y="195.12"/>
      </g>
     </g>
     <g id="text_13">
      <!-- −0.05 -->
      <g style="fill:#262626;" transform="translate(51.698437 198.698906)scale(0.1 -0.1)">
       <use xlink:href="#ArialMT-2212"/>
       <use x="58.398438" xlink:href="#ArialMT-30"/>
       <use x="114.013672" xlink:href="#ArialMT-2e"/>
       <use x="141.796875" xlink:href="#ArialMT-30"/>
       <use x="197.412109" xlink:href="#ArialMT-35"/>
      </g>
     </g>
    </g>
    <g id="ytick_5">
     <g id="line2d_14">
      <g>
       <use style="fill:#262626;stroke:#262626;" x="90" xlink:href="#m7222871057" y="169.92"/>
      </g>
     </g>
     <g id="text_14">
      <!-- 0.00 -->
      <g style="fill:#262626;" transform="translate(57.539062 173.498906)scale(0.1 -0.1)">
       <use xlink:href="#ArialMT-30"/>
       <use x="55.615234" xlink:href="#ArialMT-2e"/>
       <use x="83.398438" xlink:href="#ArialMT-30"/>
       <use x="139.013672" xlink:href="#ArialMT-30"/>
      </g>
     </g>
    </g>
    <g id="ytick_6">
     <g id="line2d_15">
      <g>
       <use style="fill:#262626;stroke:#262626;" x="90" xlink:href="#m7222871057" y="144.72"/>
      </g>
     </g>
     <g id="text_15">
      <!-- 0.05 -->
      <g style="fill:#262626;" transform="translate(57.539062 148.298906)scale(0.1 -0.1)">
       <use xlink:href="#ArialMT-30"/>
       <use x="55.615234" xlink:href="#ArialMT-2e"/>
       <use x="83.398438" xlink:href="#ArialMT-30"/>
       <use x="139.013672" xlink:href="#ArialMT-35"/>
      </g>
     </g>
    </g>
    <g id="ytick_7">
     <g id="line2d_16">
      <g>
       <use style="fill:#262626;stroke:#262626;" x="90" xlink:href="#m7222871057" y="119.52"/>
      </g>
     </g>
     <g id="text_16">
      <!-- 0.10 -->
      <g style="fill:#262626;" transform="translate(57.539062 123.098906)scale(0.1 -0.1)">
       <use xlink:href="#ArialMT-30"/>
       <use x="55.615234" xlink:href="#ArialMT-2e"/>
       <use x="83.398438" xlink:href="#ArialMT-31"/>
       <use x="139.013672" xlink:href="#ArialMT-30"/>
      </g>
     </g>
    </g>
    <g id="ytick_8">
     <g id="line2d_17">
      <g>
       <use style="fill:#262626;stroke:#262626;" x="90" xlink:href="#m7222871057" y="94.32"/>
      </g>
     </g>
     <g id="text_17">
      <!-- 0.15 -->
      <g style="fill:#262626;" transform="translate(57.539062 97.898906)scale(0.1 -0.1)">
       <use xlink:href="#ArialMT-30"/>
       <use x="55.615234" xlink:href="#ArialMT-2e"/>
       <use x="83.398438" xlink:href="#ArialMT-31"/>
       <use x="139.013672" xlink:href="#ArialMT-35"/>
      </g>
     </g>
    </g>
    <g id="ytick_9">
     <g id="line2d_18">
      <g>
       <use style="fill:#262626;stroke:#262626;" x="90" xlink:href="#m7222871057" y="69.12"/>
      </g>
     </g>
     <g id="text_18">
      <!-- 0.20 -->
      <g style="fill:#262626;" transform="translate(57.539062 72.698906)scale(0.1 -0.1)">
       <use xlink:href="#ArialMT-30"/>
       <use x="55.615234" xlink:href="#ArialMT-2e"/>
       <use x="83.398438" xlink:href="#ArialMT-32"/>
       <use x="139.013672" xlink:href="#ArialMT-30"/>
      </g>
     </g>
    </g>
   </g>
   <g id="PolyCollection_1">
    <path clip-path="url(#p1cf335115f)" d="M 90 172.22665 
L 90 169.92 
L 90.6975 169.92 
L 91.395 169.92 
L 92.0925 169.92 
L 92.79 169.92 
L 93.4875 169.92 
L 94.185 169.92 
L 94.8825 169.92 
L 95.58 169.92 
L 96.2775 169.92 
L 96.975 169.92 
L 97.6725 169.92 
L 98.37 169.92 
L 99.0675 169.92 
L 99.765 169.92 
L 100.4625 169.92 
L 101.16 169.92 
L 101.8575 169.92 
L 102.555 169.92 
L 103.2525 169.92 
L 103.95 169.92 
L 104.6475 169.92 
L 105.345 169.92 
L 106.0425 169.92 
L 106.74 169.92 
L 107.4375 169.92 
L 108.135 169.92 
L 108.8325 169.92 
L 109.53 169.92 
L 110.2275 169.92 
L 110.925 169.92 
L 111.6225 169.92 
L 112.32 169.92 
L 113.0175 169.92 
L 113.715 169.92 
L 114.4125 169.92 
L 115.11 169.92 
L 115.8075 169.92 
L 116.505 169.92 
L 117.2025 169.92 
L 117.9 169.92 
L 118.5975 169.92 
L 119.295 169.92 
L 119.9925 169.92 
L 120.69 169.92 
L 121.3875 169.92 
L 122.085 169.92 
L 122.7825 169.92 
L 123.48 169.92 
L 124.1775 169.92 
L 124.875 169.92 
L 125.5725 169.92 
L 126.27 169.92 
L 126.9675 169.92 
L 127.665 169.92 
L 128.3625 169.92 
L 129.06 169.92 
L 129.7575 169.92 
L 130.455 169.92 
L 131.1525 169.92 
L 131.85 169.92 
L 132.5475 169.92 
L 133.245 169.92 
L 133.9425 169.92 
L 134.64 169.92 
L 135.3375 169.92 
L 136.035 169.92 
L 136.7325 169.92 
L 137.43 169.92 
L 138.1275 169.92 
L 138.825 169.92 
L 139.5225 169.92 
L 140.22 169.92 
L 140.9175 169.92 
L 141.615 169.92 
L 142.3125 169.92 
L 143.01 169.92 
L 143.7075 169.92 
L 144.405 169.92 
L 145.1025 169.92 
L 145.8 169.92 
L 146.4975 169.92 
L 147.195 169.92 
L 147.8925 169.92 
L 148.59 169.92 
L 149.2875 169.92 
L 149.985 169.92 
L 150.6825 169.92 
L 151.38 169.92 
L 152.0775 169.92 
L 152.775 169.92 
L 153.4725 169.92 
L 154.17 169.92 
L 154.8675 169.92 
L 155.565 169.92 
L 156.2625 169.92 
L 156.96 169.92 
L 157.6575 169.92 
L 158.355 169.92 
L 159.0525 169.92 
L 159.75 169.92 
L 160.4475 169.92 
L 161.145 169.92 
L 161.8425 169.92 
L 162.54 169.92 
L 163.2375 169.92 
L 163.935 169.92 
L 164.6325 169.92 
L 165.33 169.92 
L 166.0275 169.92 
L 166.725 169.92 
L 167.4225 169.92 
L 168.12 169.92 
L 168.8175 169.92 
L 169.515 169.92 
L 170.2125 169.92 
L 170.91 169.92 
L 171.6075 169.92 
L 172.305 169.92 
L 173.0025 169.92 
L 173.7 169.92 
L 174.3975 169.92 
L 175.095 169.92 
L 175.7925 169.92 
L 176.49 169.92 
L 177.1875 169.92 
L 177.885 169.92 
L 178.5825 169.92 
L 179.28 169.92 
L 179.9775 169.92 
L 180.675 169.92 
L 181.3725 169.92 
L 182.07 169.92 
L 182.7675 169.92 
L 183.465 169.92 
L 184.1625 169.92 
L 184.86 169.92 
L 185.5575 169.92 
L 186.255 169.92 
L 186.9525 169.92 
L 187.65 169.92 
L 188.3475 169.92 
L 189.045 169.92 
L 189.7425 169.92 
L 190.44 169.92 
L 191.1375 169.92 
L 191.835 169.92 
L 192.5325 169.92 
L 193.23 169.92 
L 193.9275 169.92 
L 194.625 169.92 
L 195.3225 169.92 
L 196.02 169.92 
L 196.7175 169.92 
L 197.415 169.92 
L 198.1125 169.92 
L 198.81 169.92 
L 199.5075 169.92 
L 200.205 169.92 
L 200.9025 169.92 
L 201.6 169.92 
L 202.2975 169.92 
L 202.995 169.92 
L 203.6925 169.92 
L 204.39 169.92 
L 205.0875 169.92 
L 205.785 169.92 
L 206.4825 169.92 
L 207.18 169.92 
L 207.8775 169.92 
L 208.575 169.92 
L 209.2725 169.92 
L 209.97 169.92 
L 210.6675 169.92 
L 211.365 169.92 
L 212.0625 169.92 
L 212.76 169.92 
L 213.4575 169.92 
L 214.155 169.92 
L 214.8525 169.92 
L 215.55 169.92 
L 216.2475 169.92 
L 216.945 169.92 
L 217.6425 169.92 
L 218.34 169.92 
L 219.0375 169.92 
L 219.735 169.92 
L 220.4325 169.92 
L 221.13 169.92 
L 221.8275 169.92 
L 222.525 169.92 
L 223.2225 169.92 
L 223.92 169.92 
L 224.6175 169.92 
L 225.315 169.92 
L 226.0125 169.92 
L 226.71 169.92 
L 227.4075 169.92 
L 228.105 169.92 
L 228.8025 169.92 
L 229.5 169.92 
L 230.1975 169.92 
L 230.895 169.92 
L 231.5925 169.92 
L 232.29 169.92 
L 232.9875 169.92 
L 233.685 169.92 
L 234.3825 169.92 
L 235.08 169.92 
L 235.7775 169.92 
L 236.475 169.92 
L 237.1725 169.92 
L 237.87 169.92 
L 238.5675 169.92 
L 239.265 169.92 
L 239.9625 169.92 
L 240.66 169.92 
L 241.3575 169.92 
L 242.055 169.92 
L 242.7525 169.92 
L 243.45 169.92 
L 244.1475 169.92 
L 244.845 169.92 
L 245.5425 169.92 
L 246.24 169.92 
L 246.9375 169.92 
L 247.635 169.92 
L 248.3325 169.92 
L 249.03 169.92 
L 249.7275 169.92 
L 250.425 169.92 
L 251.1225 169.92 
L 251.82 169.92 
L 252.5175 169.92 
L 253.215 169.92 
L 253.9125 169.92 
L 254.61 169.92 
L 255.3075 169.92 
L 256.005 169.92 
L 256.7025 169.92 
L 257.4 169.92 
L 258.0975 169.92 
L 258.795 169.92 
L 259.4925 169.92 
L 260.19 169.92 
L 260.8875 169.92 
L 261.585 169.92 
L 262.2825 169.92 
L 262.98 169.92 
L 263.6775 169.92 
L 264.375 169.92 
L 265.0725 169.92 
L 265.77 169.92 
L 266.4675 169.92 
L 267.165 169.92 
L 267.8625 169.92 
L 268.56 169.92 
L 269.2575 169.92 
L 269.955 169.92 
L 270.6525 169.92 
L 271.35 169.92 
L 272.0475 169.92 
L 272.745 169.92 
L 273.4425 169.92 
L 274.14 169.92 
L 274.8375 169.92 
L 275.535 169.92 
L 276.2325 169.92 
L 276.93 169.92 
L 277.6275 169.92 
L 278.325 169.92 
L 279.0225 169.92 
L 279.72 169.92 
L 280.4175 169.92 
L 281.115 169.92 
L 281.8125 169.92 
L 282.51 169.92 
L 283.2075 169.92 
L 283.905 169.92 
L 284.6025 169.92 
L 285.3 169.92 
L 285.9975 169.92 
L 286.695 169.92 
L 287.3925 169.92 
L 288.09 169.92 
L 288.7875 169.92 
L 289.485 169.92 
L 290.1825 169.92 
L 290.88 169.92 
L 291.5775 169.92 
L 292.275 169.92 
L 292.9725 169.92 
L 293.67 169.92 
L 294.3675 169.92 
L 295.065 169.92 
L 295.7625 169.92 
L 296.46 169.92 
L 297.1575 169.92 
L 297.855 169.92 
L 298.5525 169.92 
L 299.25 169.92 
L 299.9475 169.92 
L 300.645 169.92 
L 301.3425 169.92 
L 302.04 169.92 
L 302.7375 169.92 
L 303.435 169.92 
L 304.1325 169.92 
L 304.83 169.92 
L 305.5275 169.92 
L 306.225 169.92 
L 306.9225 169.92 
L 307.62 169.92 
L 308.3175 169.92 
L 309.015 169.92 
L 309.7125 169.92 
L 310.41 169.92 
L 311.1075 169.92 
L 311.805 169.92 
L 312.5025 169.92 
L 313.2 169.92 
L 313.8975 169.92 
L 314.595 169.92 
L 315.2925 169.92 
L 315.99 169.92 
L 316.6875 169.92 
L 317.385 169.92 
L 318.0825 169.92 
L 318.78 169.92 
L 319.4775 169.92 
L 320.175 169.92 
L 320.8725 169.92 
L 321.57 169.92 
L 322.2675 169.92 
L 322.965 169.92 
L 323.6625 169.92 
L 324.36 169.92 
L 325.0575 169.92 
L 325.755 169.92 
L 326.4525 169.92 
L 327.15 169.92 
L 327.8475 169.92 
L 328.545 169.92 
L 329.2425 169.92 
L 329.94 169.92 
L 330.6375 169.92 
L 331.335 169.92 
L 332.0325 169.92 
L 332.73 169.92 
L 333.4275 169.92 
L 334.125 169.92 
L 334.8225 169.92 
L 335.52 169.92 
L 336.2175 169.92 
L 336.915 169.92 
L 337.6125 169.92 
L 338.31 169.92 
L 339.0075 169.92 
L 339.705 169.92 
L 340.4025 169.92 
L 341.1 169.92 
L 341.7975 169.92 
L 342.495 169.92 
L 343.1925 169.92 
L 343.89 169.92 
L 344.5875 169.92 
L 345.285 169.92 
L 345.9825 169.92 
L 346.68 169.92 
L 347.3775 169.92 
L 348.075 169.92 
L 348.7725 169.92 
L 349.47 169.92 
L 350.1675 169.92 
L 350.865 169.92 
L 351.5625 169.92 
L 352.26 169.92 
L 352.9575 169.92 
L 353.655 169.92 
L 354.3525 169.92 
L 355.05 169.92 
L 355.7475 169.92 
L 356.445 169.92 
L 357.1425 169.92 
L 357.84 169.92 
L 358.5375 169.92 
L 359.235 169.92 
L 359.9325 169.92 
L 360.63 169.92 
L 361.3275 169.92 
L 362.025 169.92 
L 362.7225 169.92 
L 363.42 169.92 
L 364.1175 169.92 
L 364.815 169.92 
L 365.5125 169.92 
L 366.21 169.92 
L 366.9075 169.92 
L 367.605 169.92 
L 368.3025 169.92 
L 369 169.92 
L 369.6975 169.92 
L 370.395 169.92 
L 371.0925 169.92 
L 371.79 169.92 
L 372.4875 169.92 
L 373.185 169.92 
L 373.8825 169.92 
L 374.58 169.92 
L 375.2775 169.92 
L 375.975 169.92 
L 376.6725 169.92 
L 377.37 169.92 
L 378.0675 169.92 
L 378.765 169.92 
L 379.4625 169.92 
L 380.16 169.92 
L 380.8575 169.92 
L 381.555 169.92 
L 382.2525 169.92 
L 382.95 169.92 
L 383.6475 169.92 
L 384.345 169.92 
L 385.0425 169.92 
L 385.74 169.92 
L 386.4375 169.92 
L 387.135 169.92 
L 387.8325 169.92 
L 388.53 169.92 
L 389.2275 169.92 
L 389.925 169.92 
L 390.6225 169.92 
L 391.32 169.92 
L 392.0175 169.92 
L 392.715 169.92 
L 393.4125 169.92 
L 394.11 169.92 
L 394.8075 169.92 
L 395.505 169.92 
L 396.2025 169.92 
L 396.9 169.92 
L 397.5975 169.92 
L 398.295 169.92 
L 398.9925 169.92 
L 399.69 169.92 
L 400.3875 169.92 
L 401.085 169.92 
L 401.7825 169.92 
L 402.48 169.92 
L 403.1775 169.92 
L 403.875 169.92 
L 404.5725 169.92 
L 405.27 169.92 
L 405.9675 169.92 
L 406.665 169.92 
L 407.3625 169.92 
L 408.06 169.92 
L 408.7575 169.92 
L 409.455 169.92 
L 410.1525 169.92 
L 410.85 169.92 
L 411.5475 169.92 
L 412.245 169.92 
L 412.9425 169.92 
L 413.64 169.92 
L 414.3375 169.92 
L 415.035 169.92 
L 415.7325 169.92 
L 416.43 169.92 
L 417.1275 169.92 
L 417.825 169.92 
L 418.5225 169.92 
L 419.22 169.92 
L 419.9175 169.92 
L 420.615 169.92 
L 421.3125 169.92 
L 422.01 169.92 
L 422.7075 169.92 
L 423.405 169.92 
L 424.1025 169.92 
L 424.8 169.92 
L 425.4975 169.92 
L 426.195 169.92 
L 426.8925 169.92 
L 427.59 169.92 
L 428.2875 169.92 
L 428.985 169.92 
L 429.6825 169.92 
L 430.38 169.92 
L 431.0775 169.92 
L 431.775 169.92 
L 432.4725 169.92 
L 433.17 169.92 
L 433.8675 169.92 
L 434.565 169.92 
L 435.2625 169.92 
L 435.96 169.92 
L 436.6575 169.92 
L 437.355 169.92 
L 438.0525 169.92 
L 438.75 169.92 
L 439.4475 169.92 
L 440.145 169.92 
L 440.8425 169.92 
L 441.54 169.92 
L 442.2375 169.92 
L 442.935 169.92 
L 443.6325 169.92 
L 444.33 169.92 
L 445.0275 169.92 
L 445.725 169.92 
L 446.4225 169.92 
L 447.12 169.92 
L 447.8175 169.92 
L 448.515 169.92 
L 449.2125 169.92 
L 449.91 169.92 
L 450.6075 169.92 
L 451.305 169.92 
L 452.0025 169.92 
L 452.7 169.92 
L 453.3975 169.92 
L 454.095 169.92 
L 454.7925 169.92 
L 455.49 169.92 
L 456.1875 169.92 
L 456.885 169.92 
L 457.5825 169.92 
L 458.28 169.92 
L 458.9775 169.92 
L 459.675 169.92 
L 460.3725 169.92 
L 461.07 169.92 
L 461.7675 169.92 
L 462.465 169.92 
L 463.1625 169.92 
L 463.86 169.92 
L 464.5575 169.92 
L 465.255 169.92 
L 465.9525 169.92 
L 466.65 169.92 
L 467.3475 169.92 
L 468.045 169.92 
L 468.7425 169.92 
L 469.44 169.92 
L 470.1375 169.92 
L 470.835 169.92 
L 471.5325 169.92 
L 472.23 169.92 
L 472.9275 169.92 
L 473.625 169.92 
L 474.3225 169.92 
L 475.02 169.92 
L 475.7175 169.92 
L 476.415 169.92 
L 477.1125 169.92 
L 477.81 169.92 
L 478.5075 169.92 
L 479.205 169.92 
L 479.9025 169.92 
L 480.6 169.92 
L 481.2975 169.92 
L 481.995 169.92 
L 482.6925 169.92 
L 483.39 169.92 
L 484.0875 169.92 
L 484.785 169.92 
L 485.4825 169.92 
L 486.18 169.92 
L 486.8775 169.92 
L 487.575 169.92 
L 488.2725 169.92 
L 488.97 169.92 
L 489.6675 169.92 
L 490.365 169.92 
L 491.0625 169.92 
L 491.76 169.92 
L 492.4575 169.92 
L 493.155 169.92 
L 493.8525 169.92 
L 494.55 169.92 
L 495.2475 169.92 
L 495.945 169.92 
L 496.6425 169.92 
L 497.34 169.92 
L 498.0375 169.92 
L 498.735 169.92 
L 499.4325 169.92 
L 500.13 169.92 
L 500.8275 169.92 
L 501.525 169.92 
L 502.2225 169.92 
L 502.92 169.92 
L 503.6175 169.92 
L 504.315 169.92 
L 505.0125 169.92 
L 505.71 169.92 
L 506.4075 169.92 
L 507.105 169.92 
L 507.8025 169.92 
L 508.5 169.92 
L 509.1975 169.92 
L 509.895 169.92 
L 510.5925 169.92 
L 511.29 169.92 
L 511.9875 169.92 
L 512.685 169.92 
L 513.3825 169.92 
L 514.08 169.92 
L 514.7775 169.92 
L 515.475 169.92 
L 516.1725 169.92 
L 516.87 169.92 
L 517.5675 169.92 
L 518.265 169.92 
L 518.9625 169.92 
L 519.66 169.92 
L 520.3575 169.92 
L 521.055 169.92 
L 521.7525 169.92 
L 522.45 169.92 
L 523.1475 169.92 
L 523.845 169.92 
L 524.5425 169.92 
L 525.24 169.92 
L 525.9375 169.92 
L 526.635 169.92 
L 527.3325 169.92 
L 528.03 169.92 
L 528.7275 169.92 
L 529.425 169.92 
L 530.1225 169.92 
L 530.82 169.92 
L 531.5175 169.92 
L 532.215 169.92 
L 532.9125 169.92 
L 533.61 169.92 
L 534.3075 169.92 
L 535.005 169.92 
L 535.7025 169.92 
L 536.4 169.92 
L 537.0975 169.92 
L 537.795 169.92 
L 538.4925 169.92 
L 539.19 169.92 
L 539.8875 169.92 
L 540.585 169.92 
L 541.2825 169.92 
L 541.98 169.92 
L 542.6775 169.92 
L 543.375 169.92 
L 544.0725 169.92 
L 544.77 169.92 
L 545.4675 169.92 
L 546.165 169.92 
L 546.8625 169.92 
L 547.56 169.92 
L 548.2575 169.92 
L 548.955 169.92 
L 549.6525 169.92 
L 550.35 169.92 
L 551.0475 169.92 
L 551.745 169.92 
L 552.4425 169.92 
L 553.14 169.92 
L 553.8375 169.92 
L 554.535 169.92 
L 555.2325 169.92 
L 555.93 169.92 
L 556.6275 169.92 
L 557.325 169.92 
L 558.0225 169.92 
L 558.72 169.92 
L 559.4175 169.92 
L 560.115 169.92 
L 560.8125 169.92 
L 561.51 169.92 
L 562.2075 169.92 
L 562.905 169.92 
L 563.6025 169.92 
L 564.3 169.92 
L 564.9975 169.92 
L 565.695 169.92 
L 566.3925 169.92 
L 567.09 169.92 
L 567.7875 169.92 
L 568.485 169.92 
L 569.1825 169.92 
L 569.88 169.92 
L 570.5775 169.92 
L 571.275 169.92 
L 571.9725 169.92 
L 572.67 169.92 
L 573.3675 169.92 
L 574.065 169.92 
L 574.7625 169.92 
L 575.46 169.92 
L 576.1575 169.92 
L 576.855 169.92 
L 577.5525 169.92 
L 578.25 169.92 
L 578.9475 169.92 
L 579.645 169.92 
L 580.3425 169.92 
L 581.04 169.92 
L 581.7375 169.92 
L 582.435 169.92 
L 583.1325 169.92 
L 583.83 169.92 
L 584.5275 169.92 
L 585.225 169.92 
L 585.9225 169.92 
L 586.62 169.92 
L 587.3175 169.92 
L 588.015 169.92 
L 588.7125 169.92 
L 589.41 169.92 
L 590.1075 169.92 
L 590.805 169.92 
L 591.5025 169.92 
L 592.2 169.92 
L 592.8975 169.92 
L 593.595 169.92 
L 594.2925 169.92 
L 594.99 169.92 
L 595.6875 169.92 
L 596.385 169.92 
L 597.0825 169.92 
L 597.78 169.92 
L 598.4775 169.92 
L 599.175 169.92 
L 599.8725 169.92 
L 600.57 169.92 
L 601.2675 169.92 
L 601.965 169.92 
L 602.6625 169.92 
L 603.36 169.92 
L 604.0575 169.92 
L 604.755 169.92 
L 605.4525 169.92 
L 606.15 169.92 
L 606.8475 169.92 
L 607.545 169.92 
L 608.2425 169.92 
L 608.94 169.92 
L 609.6375 169.92 
L 610.335 169.92 
L 611.0325 169.92 
L 611.73 169.92 
L 612.4275 169.92 
L 613.125 169.92 
L 613.8225 169.92 
L 614.52 169.92 
L 615.2175 169.92 
L 615.915 169.92 
L 616.6125 169.92 
L 617.31 169.92 
L 618.0075 169.92 
L 618.705 169.92 
L 619.4025 169.92 
L 620.1 169.92 
L 620.7975 169.92 
L 621.495 169.92 
L 622.1925 169.92 
L 622.89 169.92 
L 623.5875 169.92 
L 624.285 169.92 
L 624.9825 169.92 
L 625.68 169.92 
L 626.3775 169.92 
L 627.075 169.92 
L 627.7725 169.92 
L 628.47 169.92 
L 629.1675 169.92 
L 629.865 169.92 
L 630.5625 169.92 
L 631.26 169.92 
L 631.9575 169.92 
L 632.655 169.92 
L 633.3525 169.92 
L 634.05 169.92 
L 634.7475 169.92 
L 635.445 169.92 
L 636.1425 169.92 
L 636.84 169.92 
L 637.5375 169.92 
L 638.235 169.92 
L 638.9325 169.92 
L 639.63 169.92 
L 640.3275 169.92 
L 641.025 169.92 
L 641.7225 169.92 
L 642.42 169.92 
L 643.1175 169.92 
L 643.815 169.92 
L 644.5125 169.92 
L 645.21 169.92 
L 645.9075 169.92 
L 646.605 169.92 
L 646.605 169.92 
L 646.605 169.92 
L 645.9075 169.921109 
L 645.21 169.923713 
L 644.5125 169.928188 
L 643.815 169.934902 
L 643.1175 169.944208 
L 642.42 169.956447 
L 641.7225 169.971941 
L 641.025 169.990997 
L 640.3275 170.0139 
L 639.63 170.040913 
L 638.9325 170.072276 
L 638.235 170.108206 
L 637.5375 170.148892 
L 636.84 170.194496 
L 636.1425 170.245151 
L 635.445 170.300962 
L 634.7475 170.362001 
L 634.05 170.428311 
L 633.3525 170.499901 
L 632.655 170.576751 
L 631.9575 170.658805 
L 631.26 170.745976 
L 630.5625 170.838143 
L 629.865 170.935153 
L 629.1675 171.036821 
L 628.47 171.142929 
L 627.7725 171.253227 
L 627.075 171.367437 
L 626.3775 171.485247 
L 625.68 171.606319 
L 624.9825 171.730287 
L 624.285 171.856758 
L 623.5875 171.985313 
L 622.89 172.11551 
L 622.1925 172.246885 
L 621.495 172.378955 
L 620.7975 172.511218 
L 620.1 172.643153 
L 619.4025 172.774228 
L 618.705 172.903898 
L 618.0075 173.031606 
L 617.31 173.15679 
L 616.6125 173.27888 
L 615.915 173.397304 
L 615.2175 173.51149 
L 614.52 173.620866 
L 613.8225 173.724864 
L 613.125 173.822925 
L 612.4275 173.914497 
L 611.73 173.99904 
L 611.0325 174.076026 
L 610.335 174.144947 
L 609.6375 174.20531 
L 608.94 174.256645 
L 608.2425 174.298504 
L 607.545 174.330464 
L 606.8475 174.352131 
L 606.15 174.363137 
L 605.4525 174.363149 
L 604.755 174.351865 
L 604.0575 174.329016 
L 603.36 174.294372 
L 602.6625 174.247739 
L 601.965 174.188962 
L 601.2675 174.117926 
L 600.57 174.034557 
L 599.8725 173.938823 
L 599.175 173.830735 
L 598.4775 173.710347 
L 597.78 173.577754 
L 597.0825 173.433097 
L 596.385 173.276562 
L 595.6875 173.108376 
L 594.99 172.92881 
L 594.2925 172.738179 
L 593.595 172.536838 
L 592.8975 172.325187 
L 592.2 172.103662 
L 591.5025 171.872743 
L 590.805 171.632946 
L 590.1075 171.384823 
L 589.41 171.128962 
L 588.7125 170.865986 
L 588.015 170.596548 
L 587.3175 170.321331 
L 586.62 170.041046 
L 585.9225 169.756429 
L 585.225 169.468241 
L 584.5275 169.177261 
L 583.83 168.884287 
L 583.1325 168.590134 
L 582.435 168.29563 
L 581.7375 168.001611 
L 581.04 167.708922 
L 580.3425 167.418413 
L 579.645 167.130935 
L 578.9475 166.847338 
L 578.25 166.568469 
L 577.5525 166.295167 
L 576.855 166.028261 
L 576.1575 165.768569 
L 575.46 165.516891 
L 574.7625 165.274012 
L 574.065 165.040692 
L 573.3675 164.817671 
L 572.67 164.605661 
L 571.9725 164.405344 
L 571.275 164.217372 
L 570.5775 164.042364 
L 569.88 163.880902 
L 569.1825 163.733529 
L 568.485 163.600752 
L 567.7875 163.48303 
L 567.09 163.380784 
L 566.3925 163.294387 
L 565.695 163.224165 
L 564.9975 163.170398 
L 564.3 163.133316 
L 563.6025 163.113099 
L 562.905 163.109877 
L 562.2075 163.123727 
L 561.51 163.154677 
L 560.8125 163.202701 
L 560.115 163.267721 
L 559.4175 163.34961 
L 558.72 163.448185 
L 558.0225 163.563216 
L 557.325 163.694421 
L 556.6275 163.841467 
L 555.93 164.003975 
L 555.2325 164.181517 
L 554.535 164.373621 
L 553.8375 164.579767 
L 553.14 164.799395 
L 552.4425 165.031904 
L 551.745 165.276652 
L 551.0475 165.532962 
L 550.35 165.800121 
L 549.6525 166.077383 
L 548.955 166.363974 
L 548.2575 166.659091 
L 547.56 166.961906 
L 546.8625 167.27157 
L 546.165 167.587214 
L 545.4675 167.907952 
L 544.77 168.232887 
L 544.0725 168.561107 
L 543.375 168.891696 
L 542.6775 169.223733 
L 541.98 169.556294 
L 541.2825 169.888458 
L 540.585 170.219307 
L 539.8875 170.547932 
L 539.19 170.873432 
L 538.4925 171.194922 
L 537.795 171.511533 
L 537.0975 171.822412 
L 536.4 172.126731 
L 535.7025 172.423685 
L 535.005 172.712496 
L 534.3075 172.992414 
L 533.61 173.262724 
L 532.9125 173.522741 
L 532.215 173.771817 
L 531.5175 174.009345 
L 530.82 174.234752 
L 530.1225 174.447512 
L 529.425 174.647138 
L 528.7275 174.833189 
L 528.03 175.005269 
L 527.3325 175.163028 
L 526.635 175.306163 
L 525.9375 175.43442 
L 525.24 175.547593 
L 524.5425 175.645525 
L 523.845 175.728107 
L 523.1475 175.79528 
L 522.45 175.847033 
L 521.7525 175.883405 
L 521.055 175.90448 
L 520.3575 175.910391 
L 519.66 175.901318 
L 518.9625 175.877485 
L 518.265 175.83916 
L 517.5675 175.786654 
L 516.87 175.720319 
L 516.1725 175.640549 
L 515.475 175.547772 
L 514.7775 175.442456 
L 514.08 175.325098 
L 513.3825 175.196233 
L 512.685 175.056421 
L 511.9875 174.906252 
L 511.29 174.74634 
L 510.5925 174.577322 
L 509.895 174.399854 
L 509.1975 174.214611 
L 508.5 174.022283 
L 507.8025 173.82357 
L 507.105 173.619185 
L 506.4075 173.409846 
L 505.71 173.196274 
L 505.0125 172.979194 
L 504.315 172.759328 
L 503.6175 172.537396 
L 502.92 172.31411 
L 502.2225 172.090174 
L 501.525 171.86628 
L 500.8275 171.643107 
L 500.13 171.421317 
L 499.4325 171.201555 
L 498.735 170.984444 
L 498.0375 170.770585 
L 497.34 170.560554 
L 496.6425 170.354901 
L 495.945 170.154147 
L 495.2475 169.958785 
L 494.55 169.769274 
L 493.8525 169.586044 
L 493.155 169.409488 
L 492.4575 169.239966 
L 491.76 169.077802 
L 491.0625 168.923283 
L 490.365 168.776661 
L 489.6675 168.638148 
L 488.97 168.507921 
L 488.2725 168.386117 
L 487.575 168.272836 
L 486.8775 168.168142 
L 486.18 168.07206 
L 485.4825 167.984579 
L 484.785 167.905653 
L 484.0875 167.835199 
L 483.39 167.773102 
L 482.6925 167.719212 
L 481.995 167.673349 
L 481.2975 167.635301 
L 480.6 167.604827 
L 479.9025 167.581659 
L 479.205 167.565502 
L 478.5075 167.55604 
L 477.81 167.552931 
L 477.1125 167.555814 
L 476.415 167.564311 
L 475.7175 167.578027 
L 475.02 167.596552 
L 474.3225 167.619466 
L 473.625 167.646337 
L 472.9275 167.676727 
L 472.23 167.710192 
L 471.5325 167.746287 
L 470.835 167.784563 
L 470.1375 167.824576 
L 469.44 167.865883 
L 468.7425 167.908049 
L 468.045 167.950646 
L 467.3475 167.993255 
L 466.65 168.035473 
L 465.9525 168.076907 
L 465.255 168.117183 
L 464.5575 168.155943 
L 463.86 168.192851 
L 463.1625 168.227589 
L 462.465 168.259864 
L 461.7675 168.289408 
L 461.07 168.315975 
L 460.3725 168.33935 
L 459.675 168.359342 
L 458.9775 168.37579 
L 458.28 168.388564 
L 457.5825 168.39756 
L 456.885 168.402708 
L 456.1875 168.403966 
L 455.49 168.401327 
L 454.7925 168.39481 
L 454.095 168.384468 
L 453.3975 168.370385 
L 452.7 168.352673 
L 452.0025 168.331474 
L 451.305 168.306962 
L 450.6075 168.279337 
L 449.91 168.248825 
L 449.2125 168.21568 
L 448.515 168.180181 
L 447.8175 168.142631 
L 447.12 168.103353 
L 446.4225 168.062692 
L 445.725 168.021014 
L 445.0275 167.978699 
L 444.33 167.936143 
L 443.6325 167.893758 
L 442.935 167.851964 
L 442.2375 167.811193 
L 441.54 167.771883 
L 440.8425 167.734478 
L 440.145 167.699423 
L 439.4475 167.667166 
L 438.75 167.638152 
L 438.0525 167.612823 
L 437.355 167.591615 
L 436.6575 167.574955 
L 435.96 167.563259 
L 435.2625 167.556932 
L 434.565 167.556362 
L 433.8675 167.561922 
L 433.17 167.573964 
L 432.4725 167.592821 
L 431.775 167.618802 
L 431.0775 167.65219 
L 430.38 167.693244 
L 429.6825 167.742194 
L 428.985 167.799238 
L 428.2875 167.864546 
L 427.59 167.938255 
L 426.8925 168.020467 
L 426.195 168.111251 
L 425.4975 168.21064 
L 424.8 168.31863 
L 424.1025 168.435182 
L 423.405 168.560219 
L 422.7075 168.693625 
L 422.01 168.835249 
L 421.3125 168.984899 
L 420.615 169.142349 
L 419.9175 169.307333 
L 419.22 169.47955 
L 418.5225 169.658662 
L 417.825 169.844296 
L 417.1275 170.036045 
L 416.43 170.233467 
L 415.7325 170.436091 
L 415.035 170.643412 
L 414.3375 170.854898 
L 413.64 171.06999 
L 412.9425 171.288101 
L 412.245 171.508621 
L 411.5475 171.730919 
L 410.85 171.954345 
L 410.1525 172.178228 
L 409.455 172.401885 
L 408.7575 172.62462 
L 408.06 172.845724 
L 407.3625 173.064482 
L 406.665 173.280174 
L 405.9675 173.492077 
L 405.27 173.699466 
L 404.5725 173.901622 
L 403.875 174.097829 
L 403.1775 174.287378 
L 402.48 174.469574 
L 401.7825 174.643732 
L 401.085 174.809184 
L 400.3875 174.965282 
L 399.69 175.111396 
L 398.9925 175.246923 
L 398.295 175.371284 
L 397.5975 175.483928 
L 396.9 175.584336 
L 396.2025 175.672021 
L 395.505 175.746531 
L 394.8075 175.80745 
L 394.11 175.854401 
L 393.4125 175.887049 
L 392.715 175.905098 
L 392.0175 175.908297 
L 391.32 175.89644 
L 390.6225 175.869365 
L 389.925 175.826958 
L 389.2275 175.769151 
L 388.53 175.695927 
L 387.8325 175.607314 
L 387.135 175.50339 
L 386.4375 175.384284 
L 385.74 175.250172 
L 385.0425 175.101278 
L 384.345 174.937876 
L 383.6475 174.760286 
L 382.95 174.568877 
L 382.2525 174.364063 
L 381.555 174.146301 
L 380.8575 173.916095 
L 380.16 173.67399 
L 379.4625 173.420571 
L 378.765 173.156463 
L 378.0675 172.882326 
L 377.37 172.598858 
L 376.6725 172.306789 
L 375.975 172.006879 
L 375.2775 171.699916 
L 374.58 171.386716 
L 373.8825 171.068116 
L 373.185 170.744975 
L 372.4875 170.418169 
L 371.79 170.088591 
L 371.0925 169.757143 
L 370.395 169.42474 
L 369.6975 169.092299 
L 369 168.760744 
L 368.3025 168.430998 
L 367.605 168.103981 
L 366.9075 167.780607 
L 366.21 167.461782 
L 365.5125 167.1484 
L 364.815 166.84134 
L 364.1175 166.541464 
L 363.42 166.249613 
L 362.7225 165.966605 
L 362.025 165.693233 
L 361.3275 165.430259 
L 360.63 165.178418 
L 359.9325 164.938408 
L 359.235 164.710893 
L 358.5375 164.496499 
L 357.84 164.295812 
L 357.1425 164.109376 
L 356.445 163.937692 
L 355.7475 163.781216 
L 355.05 163.640357 
L 354.3525 163.515476 
L 353.655 163.406886 
L 352.9575 163.314848 
L 352.26 163.239575 
L 351.5625 163.181228 
L 350.865 163.139914 
L 350.1675 163.115692 
L 349.47 163.108567 
L 348.7725 163.118491 
L 348.075 163.145366 
L 347.3775 163.189043 
L 346.68 163.249322 
L 345.9825 163.325953 
L 345.285 163.41864 
L 344.5875 163.527036 
L 343.89 163.65075 
L 343.1925 163.789347 
L 342.495 163.942347 
L 341.7975 164.109231 
L 341.1 164.289438 
L 340.4025 164.482373 
L 339.705 164.687403 
L 339.0075 164.903865 
L 338.31 165.131063 
L 337.6125 165.368276 
L 336.915 165.614754 
L 336.2175 165.869727 
L 335.52 166.132405 
L 334.8225 166.401979 
L 334.125 166.677627 
L 333.4275 166.958516 
L 332.73 167.243803 
L 332.0325 167.532639 
L 331.335 167.824174 
L 330.6375 168.117556 
L 329.94 168.411938 
L 329.2425 168.706476 
L 328.545 169.000338 
L 327.8475 169.292699 
L 327.15 169.582753 
L 326.4525 169.869707 
L 325.755 170.152788 
L 325.0575 170.431245 
L 324.36 170.704352 
L 323.6625 170.971408 
L 322.965 171.231741 
L 322.2675 171.48471 
L 321.57 171.729705 
L 320.8725 171.966151 
L 320.175 172.193511 
L 319.4775 172.411281 
L 318.78 172.618999 
L 318.0825 172.816243 
L 317.385 173.00263 
L 316.6875 173.17782 
L 315.99 173.341516 
L 315.2925 173.493462 
L 314.595 173.633448 
L 313.8975 173.761307 
L 313.2 173.876914 
L 312.5025 173.98019 
L 311.805 174.071097 
L 311.1075 174.149643 
L 310.41 174.215875 
L 309.7125 174.269883 
L 309.015 174.311798 
L 308.3175 174.34179 
L 307.62 174.360068 
L 306.9225 174.366877 
L 306.225 174.362498 
L 305.5275 174.347246 
L 304.83 174.321469 
L 304.1325 174.285544 
L 303.435 174.239877 
L 302.7375 174.184901 
L 302.04 174.121073 
L 301.3425 174.048872 
L 300.645 173.968798 
L 299.9475 173.881367 
L 299.25 173.787112 
L 298.5525 173.686577 
L 297.855 173.580318 
L 297.1575 173.468899 
L 296.46 173.352889 
L 295.7625 173.23286 
L 295.065 173.109385 
L 294.3675 172.983036 
L 293.67 172.85438 
L 292.9725 172.723978 
L 292.275 172.592382 
L 291.5775 172.460133 
L 290.88 172.32776 
L 290.1825 172.195775 
L 289.485 172.064675 
L 288.7875 171.934935 
L 288.09 171.807011 
L 287.3925 171.681338 
L 286.695 171.558323 
L 285.9975 171.43835 
L 285.3 171.321774 
L 284.6025 171.208925 
L 283.905 171.1001 
L 283.2075 170.995568 
L 282.51 170.895566 
L 281.8125 170.800299 
L 281.115 170.709942 
L 280.4175 170.624634 
L 279.72 170.544483 
L 279.0225 170.469565 
L 278.325 170.399921 
L 277.6275 170.335562 
L 276.93 170.276464 
L 276.2325 170.222574 
L 275.535 170.173807 
L 274.8375 170.130046 
L 274.14 170.091149 
L 273.4425 170.056941 
L 272.745 170.027224 
L 272.0475 170.001772 
L 271.35 169.980335 
L 270.6525 169.962642 
L 269.955 169.948399 
L 269.2575 169.937294 
L 268.56 169.928997 
L 267.8625 169.923161 
L 267.165 169.919429 
L 266.4675 169.917428 
L 265.77 169.916779 
L 265.0725 169.917093 
L 264.375 169.917978 
L 263.6775 169.919037 
L 262.98 169.919872 
L 262.2825 169.920089 
L 261.585 169.919293 
L 260.8875 169.917099 
L 260.19 169.913126 
L 259.4925 169.907006 
L 258.795 169.89838 
L 258.0975 169.886906 
L 257.4 169.872255 
L 256.7025 169.854116 
L 256.005 169.832201 
L 255.3075 169.806239 
L 254.61 169.775985 
L 253.9125 169.741215 
L 253.215 169.701734 
L 252.5175 169.657374 
L 251.82 169.607992 
L 251.1225 169.553479 
L 250.425 169.493752 
L 249.7275 169.428762 
L 249.03 169.358491 
L 248.3325 169.282952 
L 247.635 169.202192 
L 246.9375 169.11629 
L 246.24 169.025359 
L 245.5425 168.929544 
L 244.845 168.829021 
L 244.1475 168.724001 
L 243.45 168.614725 
L 242.7525 168.501466 
L 242.055 168.384525 
L 241.3575 168.264235 
L 240.66 168.140955 
L 239.9625 168.015072 
L 239.265 167.886998 
L 238.5675 167.757169 
L 237.87 167.626043 
L 237.1725 167.4941 
L 236.475 167.361838 
L 235.7775 167.229771 
L 235.08 167.09843 
L 234.3825 166.968358 
L 233.685 166.840106 
L 232.9875 166.714238 
L 232.29 166.591321 
L 231.5925 166.471927 
L 230.895 166.356628 
L 230.1975 166.245996 
L 229.5 166.1406 
L 228.8025 166.041003 
L 228.105 165.947758 
L 227.4075 165.861408 
L 226.71 165.782484 
L 226.0125 165.7115 
L 225.315 165.648952 
L 224.6175 165.595318 
L 223.92 165.551049 
L 223.2225 165.516576 
L 222.525 165.4923 
L 221.8275 165.478596 
L 221.13 165.475806 
L 220.4325 165.48424 
L 219.735 165.504174 
L 219.0375 165.53585 
L 218.34 165.57947 
L 217.6425 165.635199 
L 216.945 165.703161 
L 216.2475 165.783442 
L 215.55 165.876084 
L 214.8525 165.981087 
L 214.155 166.098408 
L 213.4575 166.227961 
L 212.76 166.369617 
L 212.0625 166.523202 
L 211.365 166.688499 
L 210.6675 166.865248 
L 209.97 167.053145 
L 209.2725 167.251844 
L 208.575 167.460957 
L 207.8775 167.680057 
L 207.18 167.908674 
L 206.4825 168.146302 
L 205.785 168.392398 
L 205.0875 168.646381 
L 204.39 168.907638 
L 203.6925 169.175524 
L 202.995 169.449362 
L 202.2975 169.728448 
L 201.6 170.012052 
L 200.9025 170.299419 
L 200.205 170.589776 
L 199.5075 170.882327 
L 198.81 171.176262 
L 198.1125 171.470757 
L 197.415 171.764976 
L 196.7175 172.058077 
L 196.02 172.349211 
L 195.3225 172.637526 
L 194.625 172.922173 
L 193.9275 173.202303 
L 193.23 173.477075 
L 192.5325 173.745657 
L 191.835 174.007228 
L 191.1375 174.260984 
L 190.44 174.506135 
L 189.7425 174.741915 
L 189.045 174.967578 
L 188.3475 175.182407 
L 187.65 175.38571 
L 186.9525 175.576827 
L 186.255 175.755132 
L 185.5575 175.920033 
L 184.86 176.070977 
L 184.1625 176.207448 
L 183.465 176.328975 
L 182.7675 176.435126 
L 182.07 176.525518 
L 181.3725 176.599812 
L 180.675 176.657716 
L 179.9775 176.698988 
L 179.28 176.723435 
L 178.5825 176.730916 
L 177.885 176.721338 
L 177.1875 176.694663 
L 176.49 176.650902 
L 175.7925 176.590121 
L 175.095 176.512435 
L 174.3975 176.418011 
L 173.7 176.30707 
L 173.0025 176.179879 
L 172.305 176.03676 
L 171.6075 175.878079 
L 170.91 175.704253 
L 170.2125 175.515743 
L 169.515 175.313056 
L 168.8175 175.096744 
L 168.12 174.867396 
L 167.4225 174.625646 
L 166.725 174.372161 
L 166.0275 174.107646 
L 165.33 173.832838 
L 164.6325 173.548505 
L 163.935 173.255443 
L 163.2375 172.954473 
L 162.54 172.646441 
L 161.8425 172.332209 
L 161.145 172.012661 
L 160.4475 171.688691 
L 159.75 171.361206 
L 159.0525 171.031123 
L 158.355 170.699361 
L 157.6575 170.366845 
L 156.96 170.034495 
L 156.2625 169.703232 
L 155.565 169.373967 
L 154.8675 169.047601 
L 154.17 168.725026 
L 153.4725 168.407115 
L 152.775 168.094725 
L 152.0775 167.788689 
L 151.38 167.48982 
L 150.6825 167.198902 
L 149.985 166.916692 
L 149.2875 166.643915 
L 148.59 166.381263 
L 147.8925 166.129392 
L 147.195 165.888923 
L 146.4975 165.660434 
L 145.8 165.444465 
L 145.1025 165.241512 
L 144.405 165.052028 
L 143.7075 164.876421 
L 143.01 164.715052 
L 142.3125 164.568235 
L 141.615 164.436237 
L 140.9175 164.319277 
L 140.22 164.217523 
L 139.5225 164.131096 
L 138.825 164.060067 
L 138.1275 164.004461 
L 137.43 163.96425 
L 136.7325 163.939362 
L 136.035 163.929674 
L 135.3375 163.93502 
L 134.64 163.955187 
L 133.9425 163.989917 
L 133.245 164.038909 
L 132.5475 164.101821 
L 131.85 164.178272 
L 131.1525 164.267839 
L 130.455 164.370066 
L 129.7575 164.484462 
L 129.06 164.610502 
L 128.3625 164.747631 
L 127.665 164.895268 
L 126.9675 165.052803 
L 126.27 165.219606 
L 125.5725 165.395024 
L 124.875 165.578387 
L 124.1775 165.769009 
L 123.48 165.966192 
L 122.7825 166.169226 
L 122.085 166.377394 
L 121.3875 166.589976 
L 120.69 166.806247 
L 119.9925 167.025484 
L 119.295 167.246966 
L 118.5975 167.46998 
L 117.9 167.69382 
L 117.2025 167.917788 
L 116.505 168.141204 
L 115.8075 168.363401 
L 115.11 168.583729 
L 114.4125 168.80156 
L 113.715 169.016287 
L 113.0175 169.227327 
L 112.32 169.434125 
L 111.6225 169.636151 
L 110.925 169.832906 
L 110.2275 170.023921 
L 109.53 170.208759 
L 108.8325 170.387019 
L 108.135 170.558332 
L 107.4375 170.722364 
L 106.74 170.878818 
L 106.0425 171.027436 
L 105.345 171.167994 
L 104.6475 171.300307 
L 103.95 171.424228 
L 103.2525 171.539647 
L 102.555 171.646492 
L 101.8575 171.744727 
L 101.16 171.834355 
L 100.4625 171.915414 
L 99.765 171.987976 
L 99.0675 172.05215 
L 98.37 172.108075 
L 97.6725 172.155926 
L 96.975 172.195907 
L 96.2775 172.22825 
L 95.58 172.253218 
L 94.8825 172.271099 
L 94.185 172.282204 
L 93.4875 172.286868 
L 92.79 172.285448 
L 92.0925 172.278318 
L 91.395 172.265869 
L 90.6975 172.248507 
L 90 172.22665 
z
" style="fill:#e0ffff;"/>
   </g>
   <g id="line2d_19">
    <path clip-path="url(#p1cf335115f)" d="M 90 172.22665 
L 94.8825 172.271099 
L 98.37 172.108075 
L 101.8575 171.744727 
L 105.345 171.167994 
L 108.8325 170.387019 
L 113.0175 169.227327 
L 127.665 164.895268 
L 131.1525 164.267839 
L 133.9425 163.989917 
L 136.7325 163.939362 
L 139.5225 164.131096 
L 142.3125 164.568235 
L 145.1025 165.241512 
L 147.8925 166.129392 
L 151.38 167.48982 
L 155.565 169.373967 
L 164.6325 173.548505 
L 168.12 174.867396 
L 170.91 175.704253 
L 173.7 176.30707 
L 176.49 176.650902 
L 179.28 176.723435 
L 182.07 176.525518 
L 184.86 176.070977 
L 187.65 175.38571 
L 191.1375 174.260984 
L 195.3225 172.637526 
L 205.785 168.392398 
L 209.2725 167.251844 
L 212.76 166.369617 
L 215.55 165.876084 
L 218.34 165.57947 
L 221.13 165.475806 
L 224.6175 165.595318 
L 228.105 165.947758 
L 232.29 166.591321 
L 247.635 169.202192 
L 252.5175 169.657374 
L 257.4 169.872255 
L 264.375 169.917978 
L 272.0475 170.001772 
L 276.93 170.276464 
L 281.8125 170.800299 
L 286.695 171.558323 
L 301.3425 174.048872 
L 304.83 174.321469 
L 308.3175 174.34179 
L 311.1075 174.149643 
L 313.8975 173.761307 
L 316.6875 173.17782 
L 320.175 172.193511 
L 323.6625 170.971408 
L 328.545 169.000338 
L 336.2175 165.869727 
L 339.705 164.687403 
L 342.495 163.942347 
L 345.285 163.41864 
L 348.075 163.145366 
L 350.865 163.139914 
L 353.655 163.406886 
L 356.445 163.937692 
L 359.235 164.710893 
L 362.025 165.693233 
L 365.5125 167.1484 
L 371.79 170.088591 
L 376.6725 172.306789 
L 380.16 173.67399 
L 382.95 174.568877 
L 385.74 175.250172 
L 388.53 175.695927 
L 391.32 175.89644 
L 394.11 175.854401 
L 396.9 175.584336 
L 399.69 175.111396 
L 403.1775 174.287378 
L 408.06 172.845724 
L 417.825 169.844296 
L 422.01 168.835249 
L 425.4975 168.21064 
L 428.985 167.799238 
L 432.4725 167.592821 
L 436.6575 167.574955 
L 442.2375 167.811193 
L 453.3975 168.370385 
L 458.9775 168.37579 
L 465.255 168.117183 
L 476.415 167.564311 
L 480.6 167.604827 
L 484.0875 167.835199 
L 487.575 168.272836 
L 491.0625 168.923283 
L 495.2475 169.958785 
L 500.13 171.421317 
L 509.1975 174.214611 
L 512.685 175.056421 
L 515.475 175.547772 
L 518.265 175.83916 
L 521.055 175.90448 
L 523.845 175.728107 
L 526.635 175.306163 
L 529.425 174.647138 
L 532.215 173.771817 
L 535.7025 172.423685 
L 539.8875 170.547932 
L 548.955 166.363974 
L 552.4425 165.031904 
L 555.2325 164.181517 
L 558.0225 163.563216 
L 560.8125 163.202701 
L 563.6025 163.113099 
L 566.3925 163.294387 
L 569.1825 163.733529 
L 571.9725 164.405344 
L 575.46 165.516891 
L 579.645 167.130935 
L 590.805 171.632946 
L 594.2925 172.738179 
L 597.78 173.577754 
L 600.57 174.034557 
L 603.36 174.294372 
L 606.15 174.363137 
L 609.6375 174.20531 
L 613.125 173.822925 
L 618.0075 173.031606 
L 630.5625 170.838143 
L 635.445 170.300962 
L 640.3275 170.0139 
L 645.9075 169.921109 
L 646.605 169.92 
L 646.605 169.92 
" style="fill:none;stroke:#008080;stroke-linecap:round;stroke-width:1.75;"/>
   </g>
   <g id="patch_3">
    <path d="M 90 270.72 
L 90 69.12 
" style="fill:none;stroke:#262626;stroke-linecap:square;stroke-linejoin:miter;stroke-width:1.25;"/>
   </g>
   <g id="patch_4">
    <path d="M 90 270.72 
L 648 270.72 
" style="fill:none;stroke:#262626;stroke-linecap:square;stroke-linejoin:miter;stroke-width:1.25;"/>
   </g>
  </g>
  <g id="axes_2">
   <g id="patch_5">
    <path d="M 90 512.64 
L 648 512.64 
L 648 311.04 
L 90 311.04 
z
" style="fill:#ffffff;"/>
   </g>
   <g id="matplotlib.axis_3">
    <g id="xtick_10">
     <g id="line2d_20">
      <g>
       <use style="fill:#262626;stroke:#262626;" x="190.44" xlink:href="#mbb6ef28899" y="512.64"/>
      </g>
     </g>
     <g id="text_19">
      <!-- 200 -->
      <g style="fill:#262626;" transform="translate(182.098594 532.797812)scale(0.1 -0.1)">
       <use xlink:href="#ArialMT-32"/>
       <use x="55.615234" xlink:href="#ArialMT-30"/>
       <use x="111.230469" xlink:href="#ArialMT-30"/>
      </g>
     </g>
    </g>
    <g id="xtick_11">
     <g id="line2d_21">
      <g>
       <use style="fill:#262626;stroke:#262626;" x="302.04" xlink:href="#mbb6ef28899" y="512.64"/>
      </g>
     </g>
     <g id="text_20">
      <!-- 400 -->
      <g style="fill:#262626;" transform="translate(293.698594 532.797812)scale(0.1 -0.1)">
       <use xlink:href="#ArialMT-34"/>
       <use x="55.615234" xlink:href="#ArialMT-30"/>
       <use x="111.230469" xlink:href="#ArialMT-30"/>
      </g>
     </g>
    </g>
    <g id="xtick_12">
     <g id="line2d_22">
      <g>
       <use style="fill:#262626;stroke:#262626;" x="413.64" xlink:href="#mbb6ef28899" y="512.64"/>
      </g>
     </g>
     <g id="text_21">
      <!-- 600 -->
      <g style="fill:#262626;" transform="translate(405.298594 532.797812)scale(0.1 -0.1)">
       <use xlink:href="#ArialMT-36"/>
       <use x="55.615234" xlink:href="#ArialMT-30"/>
       <use x="111.230469" xlink:href="#ArialMT-30"/>
      </g>
     </g>
    </g>
    <g id="xtick_13">
     <g id="line2d_23">
      <g>
       <use style="fill:#262626;stroke:#262626;" x="525.24" xlink:href="#mbb6ef28899" y="512.64"/>
      </g>
     </g>
     <g id="text_22">
      <!-- 800 -->
      <g style="fill:#262626;" transform="translate(516.898594 532.797812)scale(0.1 -0.1)">
       <use xlink:href="#ArialMT-38"/>
       <use x="55.615234" xlink:href="#ArialMT-30"/>
       <use x="111.230469" xlink:href="#ArialMT-30"/>
      </g>
     </g>
    </g>
    <g id="xtick_14">
     <g id="line2d_24">
      <g>
       <use style="fill:#262626;stroke:#262626;" x="636.84" xlink:href="#mbb6ef28899" y="512.64"/>
      </g>
     </g>
     <g id="text_23">
      <!-- 1000 -->
      <g style="fill:#262626;" transform="translate(625.718125 532.797812)scale(0.1 -0.1)">
       <use xlink:href="#ArialMT-31"/>
       <use x="55.615234" xlink:href="#ArialMT-30"/>
       <use x="111.230469" xlink:href="#ArialMT-30"/>
       <use x="166.845703" xlink:href="#ArialMT-30"/>
      </g>
     </g>
    </g>
   </g>
   <g id="matplotlib.axis_4">
    <g id="ytick_10">
     <g id="line2d_25">
      <g>
       <use style="fill:#262626;stroke:#262626;" x="90" xlink:href="#m7222871057" y="512.64"/>
      </g>
     </g>
     <g id="text_24">
      <!-- 0 -->
      <g style="fill:#262626;" transform="translate(71.439063 516.218906)scale(0.1 -0.1)">
       <use xlink:href="#ArialMT-30"/>
      </g>
     </g>
    </g>
    <g id="ytick_11">
     <g id="line2d_26">
      <g>
       <use style="fill:#262626;stroke:#262626;" x="90" xlink:href="#m7222871057" y="483.84"/>
      </g>
     </g>
     <g id="text_25">
      <!-- 10 -->
      <g style="fill:#262626;" transform="translate(65.878125 487.418906)scale(0.1 -0.1)">
       <use xlink:href="#ArialMT-31"/>
       <use x="55.615234" xlink:href="#ArialMT-30"/>
      </g>
     </g>
    </g>
    <g id="ytick_12">
     <g id="line2d_27">
      <g>
       <use style="fill:#262626;stroke:#262626;" x="90" xlink:href="#m7222871057" y="455.04"/>
      </g>
     </g>
     <g id="text_26">
      <!-- 20 -->
      <g style="fill:#262626;" transform="translate(65.878125 458.618906)scale(0.1 -0.1)">
       <use xlink:href="#ArialMT-32"/>
       <use x="55.615234" xlink:href="#ArialMT-30"/>
      </g>
     </g>
    </g>
    <g id="ytick_13">
     <g id="line2d_28">
      <g>
       <use style="fill:#262626;stroke:#262626;" x="90" xlink:href="#m7222871057" y="426.24"/>
      </g>
     </g>
     <g id="text_27">
      <!-- 30 -->
      <g style="fill:#262626;" transform="translate(65.878125 429.818906)scale(0.1 -0.1)">
       <use xlink:href="#ArialMT-33"/>
       <use x="55.615234" xlink:href="#ArialMT-30"/>
      </g>
     </g>
    </g>
    <g id="ytick_14">
     <g id="line2d_29">
      <g>
       <use style="fill:#262626;stroke:#262626;" x="90" xlink:href="#m7222871057" y="397.44"/>
      </g>
     </g>
     <g id="text_28">
      <!-- 40 -->
      <g style="fill:#262626;" transform="translate(65.878125 401.018906)scale(0.1 -0.1)">
       <use xlink:href="#ArialMT-34"/>
       <use x="55.615234" xlink:href="#ArialMT-30"/>
      </g>
     </g>
    </g>
    <g id="ytick_15">
     <g id="line2d_30">
      <g>
       <use style="fill:#262626;stroke:#262626;" x="90" xlink:href="#m7222871057" y="368.64"/>
      </g>
     </g>
     <g id="text_29">
      <!-- 50 -->
      <g style="fill:#262626;" transform="translate(65.878125 372.218906)scale(0.1 -0.1)">
       <use xlink:href="#ArialMT-35"/>
       <use x="55.615234" xlink:href="#ArialMT-30"/>
      </g>
     </g>
    </g>
    <g id="ytick_16">
     <g id="line2d_31">
      <g>
       <use style="fill:#262626;stroke:#262626;" x="90" xlink:href="#m7222871057" y="339.84"/>
      </g>
     </g>
     <g id="text_30">
      <!-- 60 -->
      <g style="fill:#262626;" transform="translate(65.878125 343.418906)scale(0.1 -0.1)">
       <use xlink:href="#ArialMT-36"/>
       <use x="55.615234" xlink:href="#ArialMT-30"/>
      </g>
     </g>
    </g>
    <g id="ytick_17">
     <g id="line2d_32">
      <g>
       <use style="fill:#262626;stroke:#262626;" x="90" xlink:href="#m7222871057" y="311.04"/>
      </g>
     </g>
     <g id="text_31">
      <!-- 70 -->
      <g style="fill:#262626;" transform="translate(65.878125 314.618906)scale(0.1 -0.1)">
       <use xlink:href="#ArialMT-37"/>
       <use x="55.615234" xlink:href="#ArialMT-30"/>
      </g>
     </g>
    </g>
   </g>
   <g id="line2d_33">
    <path clip-path="url(#p1365a042e0)" d="M 90 495.208 
L 101.16 496.246355 
L 112.32 497.676438 
L 123.48 496.773624 
L 134.64 495.319457 
L 145.8 494.970857 
L 156.96 496.496469 
L 168.12 493.948302 
L 179.28 491.922563 
L 190.44 492.701338 
L 201.6 493.08264 
L 212.76 488.265624 
L 223.92 486.884007 
L 235.08 484.919609 
" style="fill:none;stroke:#b22222;stroke-linecap:round;stroke-width:1.75;"/>
   </g>
   <g id="patch_6">
    <path d="M 90 512.64 
L 90 311.04 
" style="fill:none;stroke:#262626;stroke-linecap:square;stroke-linejoin:miter;stroke-width:1.25;"/>
   </g>
   <g id="patch_7">
    <path d="M 90 512.64 
L 648 512.64 
" style="fill:none;stroke:#262626;stroke-linecap:square;stroke-linejoin:miter;stroke-width:1.25;"/>
   </g>
   <g id="text_32">
    <!-- f = 280 -->
    <defs>
     <path d="M 8.6875 0 
L 8.6875 45.015625 
L 0.921875 45.015625 
L 0.921875 51.859375 
L 8.6875 51.859375 
L 8.6875 57.375 
Q 8.6875 62.59375 9.625 65.140625 
Q 10.890625 68.5625 14.078125 70.671875 
Q 17.28125 72.796875 23.046875 72.796875 
Q 26.765625 72.796875 31.25 71.921875 
L 29.9375 64.265625 
Q 27.203125 64.75 24.75 64.75 
Q 20.75 64.75 19.09375 63.03125 
Q 17.4375 61.328125 17.4375 56.640625 
L 17.4375 51.859375 
L 27.546875 51.859375 
L 27.546875 45.015625 
L 17.4375 45.015625 
L 17.4375 0 
z
" id="ArialMT-66"/>
     <path id="ArialMT-20"/>
     <path d="M 52.828125 42.09375 
L 5.5625 42.09375 
L 5.5625 50.296875 
L 52.828125 50.296875 
z
M 52.828125 20.359375 
L 5.5625 20.359375 
L 5.5625 28.5625 
L 52.828125 28.5625 
z
" id="ArialMT-3d"/>
    </defs>
    <g style="fill:#262626;" transform="translate(525.24 371.742188)scale(0.12 -0.12)">
     <use xlink:href="#ArialMT-66"/>
     <use x="27.783203" xlink:href="#ArialMT-20"/>
     <use x="55.566406" xlink:href="#ArialMT-3d"/>
     <use x="113.964844" xlink:href="#ArialMT-20"/>
     <use x="141.748047" xlink:href="#ArialMT-32"/>
     <use x="197.363281" xlink:href="#ArialMT-38"/>
     <use x="252.978516" xlink:href="#ArialMT-30"/>
    </g>
   </g>
   <g id="PathCollection_1">
    <defs>
     <path d="M 0 3.5 
C 0.928211 3.5 1.81853 3.131218 2.474874 2.474874 
C 3.131218 1.81853 3.5 0.928211 3.5 0 
C 3.5 -0.928211 3.131218 -1.81853 2.474874 -2.474874 
C 1.81853 -3.131218 0.928211 -3.5 0 -3.5 
C -0.928211 -3.5 -1.81853 -3.131218 -2.474874 -2.474874 
C -3.131218 -1.81853 -3.5 -0.928211 -3.5 0 
C -3.5 0.928211 -3.131218 1.81853 -2.474874 2.474874 
C -1.81853 3.131218 -0.928211 3.5 0 3.5 
z
" id="mbf976a26a4" style="stroke:#800000;stroke-width:0.3;"/>
    </defs>
    <g clip-path="url(#p1365a042e0)">
     <use style="fill:#800000;stroke:#800000;stroke-width:0.3;" x="235.08" xlink:href="#mbf976a26a4" y="484.919609"/>
    </g>
   </g>
  </g>
 </g>
 <defs>
  <clipPath id="p1cf335115f">
   <rect height="201.6" width="558" x="90" y="69.12"/>
  </clipPath>
  <clipPath id="p1365a042e0">
   <rect height="201.6" width="558" x="90" y="311.04"/>
  </clipPath>
 </defs>
</svg>
