<?xml version="1.0" encoding="utf-8" standalone="no"?>
<!DOCTYPE svg PUBLIC "-//W3C//DTD SVG 1.1//EN"
  "http://www.w3.org/Graphics/SVG/1.1/DTD/svg11.dtd">
<!-- Created with matplotlib (http://matplotlib.org/) -->
<svg height="576pt" version="1.1" viewBox="0 0 720 576" width="720pt" xmlns="http://www.w3.org/2000/svg" xmlns:xlink="http://www.w3.org/1999/xlink">
 <defs>
  <style type="text/css">
*{stroke-linecap:butt;stroke-linejoin:round;}
  </style>
 </defs>
 <g id="figure_1">
  <g id="patch_1">
   <path d="M 0 576 
L 720 576 
L 720 0 
L 0 0 
z
" style="fill:#ffffff;"/>
  </g>
  <g id="axes_1">
   <g id="patch_2">
    <path d="M 90 270.72 
L 648 270.72 
L 648 69.12 
L 90 69.12 
z
" style="fill:#ffffff;"/>
   </g>
   <g id="matplotlib.axis_1">
    <g id="xtick_1">
     <g id="line2d_1">
      <defs>
       <path d="M 0 0 
L 0 6 
" id="m5c72f815ca" style="stroke:#262626;"/>
      </defs>
      <g>
       <use style="fill:#262626;stroke:#262626;" x="90" xlink:href="#m5c72f815ca" y="270.72"/>
      </g>
     </g>
     <g id="text_1">
      <!-- 0 -->
      <defs>
       <path d="M 4.15625 35.296875 
Q 4.15625 48 6.765625 55.734375 
Q 9.375 63.484375 14.515625 67.671875 
Q 19.671875 71.875 27.484375 71.875 
Q 33.25 71.875 37.59375 69.546875 
Q 41.9375 67.234375 44.765625 62.859375 
Q 47.609375 58.5 49.21875 52.21875 
Q 50.828125 45.953125 50.828125 35.296875 
Q 50.828125 22.703125 48.234375 14.96875 
Q 45.65625 7.234375 40.5 3 
Q 35.359375 -1.21875 27.484375 -1.21875 
Q 17.140625 -1.21875 11.234375 6.203125 
Q 4.15625 15.140625 4.15625 35.296875 
z
M 13.1875 35.296875 
Q 13.1875 17.671875 17.3125 11.828125 
Q 21.4375 6 27.484375 6 
Q 33.546875 6 37.671875 11.859375 
Q 41.796875 17.71875 41.796875 35.296875 
Q 41.796875 52.984375 37.671875 58.78125 
Q 33.546875 64.59375 27.390625 64.59375 
Q 21.34375 64.59375 17.71875 59.46875 
Q 13.1875 52.9375 13.1875 35.296875 
z
" id="ArialMT-30"/>
      </defs>
      <g style="fill:#262626;" transform="translate(87.219531 290.877812)scale(0.1 -0.1)">
       <use xlink:href="#ArialMT-30"/>
      </g>
     </g>
    </g>
    <g id="xtick_2">
     <g id="line2d_2">
      <g>
       <use style="fill:#262626;stroke:#262626;" x="159.75" xlink:href="#m5c72f815ca" y="270.72"/>
      </g>
     </g>
     <g id="text_2">
      <!-- 100 -->
      <defs>
       <path d="M 37.25 0 
L 28.46875 0 
L 28.46875 56 
Q 25.296875 52.984375 20.140625 49.953125 
Q 14.984375 46.921875 10.890625 45.40625 
L 10.890625 53.90625 
Q 18.265625 57.375 23.78125 62.296875 
Q 29.296875 67.234375 31.59375 71.875 
L 37.25 71.875 
z
" id="ArialMT-31"/>
      </defs>
      <g style="fill:#262626;" transform="translate(151.408594 290.877812)scale(0.1 -0.1)">
       <use xlink:href="#ArialMT-31"/>
       <use x="55.615234" xlink:href="#ArialMT-30"/>
       <use x="111.230469" xlink:href="#ArialMT-30"/>
      </g>
     </g>
    </g>
    <g id="xtick_3">
     <g id="line2d_3">
      <g>
       <use style="fill:#262626;stroke:#262626;" x="229.5" xlink:href="#m5c72f815ca" y="270.72"/>
      </g>
     </g>
     <g id="text_3">
      <!-- 200 -->
      <defs>
       <path d="M 50.34375 8.453125 
L 50.34375 0 
L 3.03125 0 
Q 2.9375 3.171875 4.046875 6.109375 
Q 5.859375 10.9375 9.828125 15.625 
Q 13.8125 20.3125 21.34375 26.46875 
Q 33.015625 36.03125 37.109375 41.625 
Q 41.21875 47.21875 41.21875 52.203125 
Q 41.21875 57.421875 37.46875 61 
Q 33.734375 64.59375 27.734375 64.59375 
Q 21.390625 64.59375 17.578125 60.78125 
Q 13.765625 56.984375 13.71875 50.25 
L 4.6875 51.171875 
Q 5.609375 61.28125 11.65625 66.578125 
Q 17.71875 71.875 27.9375 71.875 
Q 38.234375 71.875 44.234375 66.15625 
Q 50.25 60.453125 50.25 52 
Q 50.25 47.703125 48.484375 43.546875 
Q 46.734375 39.40625 42.65625 34.8125 
Q 38.578125 30.21875 29.109375 22.21875 
Q 21.1875 15.578125 18.9375 13.203125 
Q 16.703125 10.84375 15.234375 8.453125 
z
" id="ArialMT-32"/>
      </defs>
      <g style="fill:#262626;" transform="translate(221.158594 290.877812)scale(0.1 -0.1)">
       <use xlink:href="#ArialMT-32"/>
       <use x="55.615234" xlink:href="#ArialMT-30"/>
       <use x="111.230469" xlink:href="#ArialMT-30"/>
      </g>
     </g>
    </g>
    <g id="xtick_4">
     <g id="line2d_4">
      <g>
       <use style="fill:#262626;stroke:#262626;" x="299.25" xlink:href="#m5c72f815ca" y="270.72"/>
      </g>
     </g>
     <g id="text_4">
      <!-- 300 -->
      <defs>
       <path d="M 4.203125 18.890625 
L 12.984375 20.0625 
Q 14.5 12.59375 18.140625 9.296875 
Q 21.78125 6 27 6 
Q 33.203125 6 37.46875 10.296875 
Q 41.75 14.59375 41.75 20.953125 
Q 41.75 27 37.796875 30.921875 
Q 33.84375 34.859375 27.734375 34.859375 
Q 25.25 34.859375 21.53125 33.890625 
L 22.515625 41.609375 
Q 23.390625 41.5 23.921875 41.5 
Q 29.546875 41.5 34.03125 44.421875 
Q 38.53125 47.359375 38.53125 53.46875 
Q 38.53125 58.296875 35.25 61.46875 
Q 31.984375 64.65625 26.8125 64.65625 
Q 21.6875 64.65625 18.265625 61.421875 
Q 14.84375 58.203125 13.875 51.765625 
L 5.078125 53.328125 
Q 6.6875 62.15625 12.390625 67.015625 
Q 18.109375 71.875 26.609375 71.875 
Q 32.46875 71.875 37.390625 69.359375 
Q 42.328125 66.84375 44.9375 62.5 
Q 47.5625 58.15625 47.5625 53.265625 
Q 47.5625 48.640625 45.0625 44.828125 
Q 42.578125 41.015625 37.703125 38.765625 
Q 44.046875 37.3125 47.5625 32.6875 
Q 51.078125 28.078125 51.078125 21.140625 
Q 51.078125 11.765625 44.234375 5.25 
Q 37.40625 -1.265625 26.953125 -1.265625 
Q 17.53125 -1.265625 11.296875 4.34375 
Q 5.078125 9.96875 4.203125 18.890625 
z
" id="ArialMT-33"/>
      </defs>
      <g style="fill:#262626;" transform="translate(290.908594 290.877812)scale(0.1 -0.1)">
       <use xlink:href="#ArialMT-33"/>
       <use x="55.615234" xlink:href="#ArialMT-30"/>
       <use x="111.230469" xlink:href="#ArialMT-30"/>
      </g>
     </g>
    </g>
    <g id="xtick_5">
     <g id="line2d_5">
      <g>
       <use style="fill:#262626;stroke:#262626;" x="369" xlink:href="#m5c72f815ca" y="270.72"/>
      </g>
     </g>
     <g id="text_5">
      <!-- 400 -->
      <defs>
       <path d="M 32.328125 0 
L 32.328125 17.140625 
L 1.265625 17.140625 
L 1.265625 25.203125 
L 33.9375 71.578125 
L 41.109375 71.578125 
L 41.109375 25.203125 
L 50.78125 25.203125 
L 50.78125 17.140625 
L 41.109375 17.140625 
L 41.109375 0 
z
M 32.328125 25.203125 
L 32.328125 57.46875 
L 9.90625 25.203125 
z
" id="ArialMT-34"/>
      </defs>
      <g style="fill:#262626;" transform="translate(360.658594 290.877812)scale(0.1 -0.1)">
       <use xlink:href="#ArialMT-34"/>
       <use x="55.615234" xlink:href="#ArialMT-30"/>
       <use x="111.230469" xlink:href="#ArialMT-30"/>
      </g>
     </g>
    </g>
    <g id="xtick_6">
     <g id="line2d_6">
      <g>
       <use style="fill:#262626;stroke:#262626;" x="438.75" xlink:href="#m5c72f815ca" y="270.72"/>
      </g>
     </g>
     <g id="text_6">
      <!-- 500 -->
      <defs>
       <path d="M 4.15625 18.75 
L 13.375 19.53125 
Q 14.40625 12.796875 18.140625 9.390625 
Q 21.875 6 27.15625 6 
Q 33.5 6 37.890625 10.78125 
Q 42.28125 15.578125 42.28125 23.484375 
Q 42.28125 31 38.0625 35.34375 
Q 33.84375 39.703125 27 39.703125 
Q 22.75 39.703125 19.328125 37.765625 
Q 15.921875 35.84375 13.96875 32.765625 
L 5.71875 33.84375 
L 12.640625 70.609375 
L 48.25 70.609375 
L 48.25 62.203125 
L 19.671875 62.203125 
L 15.828125 42.96875 
Q 22.265625 47.46875 29.34375 47.46875 
Q 38.71875 47.46875 45.15625 40.96875 
Q 51.609375 34.46875 51.609375 24.265625 
Q 51.609375 14.546875 45.953125 7.46875 
Q 39.0625 -1.21875 27.15625 -1.21875 
Q 17.390625 -1.21875 11.203125 4.25 
Q 5.03125 9.71875 4.15625 18.75 
z
" id="ArialMT-35"/>
      </defs>
      <g style="fill:#262626;" transform="translate(430.408594 290.877812)scale(0.1 -0.1)">
       <use xlink:href="#ArialMT-35"/>
       <use x="55.615234" xlink:href="#ArialMT-30"/>
       <use x="111.230469" xlink:href="#ArialMT-30"/>
      </g>
     </g>
    </g>
    <g id="xtick_7">
     <g id="line2d_7">
      <g>
       <use style="fill:#262626;stroke:#262626;" x="508.5" xlink:href="#m5c72f815ca" y="270.72"/>
      </g>
     </g>
     <g id="text_7">
      <!-- 600 -->
      <defs>
       <path d="M 49.75 54.046875 
L 41.015625 53.375 
Q 39.84375 58.546875 37.703125 60.890625 
Q 34.125 64.65625 28.90625 64.65625 
Q 24.703125 64.65625 21.53125 62.3125 
Q 17.390625 59.28125 14.984375 53.46875 
Q 12.59375 47.65625 12.5 36.921875 
Q 15.671875 41.75 20.265625 44.09375 
Q 24.859375 46.4375 29.890625 46.4375 
Q 38.671875 46.4375 44.84375 39.96875 
Q 51.03125 33.5 51.03125 23.25 
Q 51.03125 16.5 48.125 10.71875 
Q 45.21875 4.9375 40.140625 1.859375 
Q 35.0625 -1.21875 28.609375 -1.21875 
Q 17.625 -1.21875 10.6875 6.859375 
Q 3.765625 14.9375 3.765625 33.5 
Q 3.765625 54.25 11.421875 63.671875 
Q 18.109375 71.875 29.4375 71.875 
Q 37.890625 71.875 43.28125 67.140625 
Q 48.6875 62.40625 49.75 54.046875 
z
M 13.875 23.1875 
Q 13.875 18.65625 15.796875 14.5 
Q 17.71875 10.359375 21.1875 8.171875 
Q 24.65625 6 28.46875 6 
Q 34.03125 6 38.03125 10.484375 
Q 42.046875 14.984375 42.046875 22.703125 
Q 42.046875 30.125 38.078125 34.390625 
Q 34.125 38.671875 28.125 38.671875 
Q 22.171875 38.671875 18.015625 34.390625 
Q 13.875 30.125 13.875 23.1875 
z
" id="ArialMT-36"/>
      </defs>
      <g style="fill:#262626;" transform="translate(500.158594 290.877812)scale(0.1 -0.1)">
       <use xlink:href="#ArialMT-36"/>
       <use x="55.615234" xlink:href="#ArialMT-30"/>
       <use x="111.230469" xlink:href="#ArialMT-30"/>
      </g>
     </g>
    </g>
    <g id="xtick_8">
     <g id="line2d_8">
      <g>
       <use style="fill:#262626;stroke:#262626;" x="578.25" xlink:href="#m5c72f815ca" y="270.72"/>
      </g>
     </g>
     <g id="text_8">
      <!-- 700 -->
      <defs>
       <path d="M 4.734375 62.203125 
L 4.734375 70.65625 
L 51.078125 70.65625 
L 51.078125 63.8125 
Q 44.234375 56.546875 37.515625 44.484375 
Q 30.8125 32.421875 27.15625 19.671875 
Q 24.515625 10.6875 23.78125 0 
L 14.75 0 
Q 14.890625 8.453125 18.0625 20.40625 
Q 21.234375 32.375 27.171875 43.484375 
Q 33.109375 54.59375 39.796875 62.203125 
z
" id="ArialMT-37"/>
      </defs>
      <g style="fill:#262626;" transform="translate(569.908594 290.877812)scale(0.1 -0.1)">
       <use xlink:href="#ArialMT-37"/>
       <use x="55.615234" xlink:href="#ArialMT-30"/>
       <use x="111.230469" xlink:href="#ArialMT-30"/>
      </g>
     </g>
    </g>
    <g id="xtick_9">
     <g id="line2d_9">
      <g>
       <use style="fill:#262626;stroke:#262626;" x="648" xlink:href="#m5c72f815ca" y="270.72"/>
      </g>
     </g>
     <g id="text_9">
      <!-- 800 -->
      <defs>
       <path d="M 17.671875 38.8125 
Q 12.203125 40.828125 9.5625 44.53125 
Q 6.9375 48.25 6.9375 53.421875 
Q 6.9375 61.234375 12.546875 66.546875 
Q 18.171875 71.875 27.484375 71.875 
Q 36.859375 71.875 42.578125 66.421875 
Q 48.296875 60.984375 48.296875 53.171875 
Q 48.296875 48.1875 45.671875 44.5 
Q 43.0625 40.828125 37.75 38.8125 
Q 44.34375 36.671875 47.78125 31.875 
Q 51.21875 27.09375 51.21875 20.453125 
Q 51.21875 11.28125 44.71875 5.03125 
Q 38.234375 -1.21875 27.640625 -1.21875 
Q 17.046875 -1.21875 10.546875 5.046875 
Q 4.046875 11.328125 4.046875 20.703125 
Q 4.046875 27.6875 7.59375 32.390625 
Q 11.140625 37.109375 17.671875 38.8125 
z
M 15.921875 53.71875 
Q 15.921875 48.640625 19.1875 45.40625 
Q 22.46875 42.1875 27.6875 42.1875 
Q 32.765625 42.1875 36.015625 45.375 
Q 39.265625 48.578125 39.265625 53.21875 
Q 39.265625 58.0625 35.90625 61.359375 
Q 32.5625 64.65625 27.59375 64.65625 
Q 22.5625 64.65625 19.234375 61.421875 
Q 15.921875 58.203125 15.921875 53.71875 
z
M 13.09375 20.65625 
Q 13.09375 16.890625 14.875 13.375 
Q 16.65625 9.859375 20.171875 7.921875 
Q 23.6875 6 27.734375 6 
Q 34.03125 6 38.125 10.046875 
Q 42.234375 14.109375 42.234375 20.359375 
Q 42.234375 26.703125 38.015625 30.859375 
Q 33.796875 35.015625 27.4375 35.015625 
Q 21.234375 35.015625 17.15625 30.90625 
Q 13.09375 26.8125 13.09375 20.65625 
z
" id="ArialMT-38"/>
      </defs>
      <g style="fill:#262626;" transform="translate(639.658594 290.877812)scale(0.1 -0.1)">
       <use xlink:href="#ArialMT-38"/>
       <use x="55.615234" xlink:href="#ArialMT-30"/>
       <use x="111.230469" xlink:href="#ArialMT-30"/>
      </g>
     </g>
    </g>
   </g>
   <g id="matplotlib.axis_2">
    <g id="ytick_1">
     <g id="line2d_10">
      <defs>
       <path d="M 0 0 
L -6 0 
" id="mc1464d56a4" style="stroke:#262626;"/>
      </defs>
      <g>
       <use style="fill:#262626;stroke:#262626;" x="90" xlink:href="#mc1464d56a4" y="270.72"/>
      </g>
     </g>
     <g id="text_10">
      <!-- −0.20 -->
      <defs>
       <path d="M 52.828125 31.203125 
L 5.5625 31.203125 
L 5.5625 39.40625 
L 52.828125 39.40625 
z
" id="ArialMT-2212"/>
       <path d="M 9.078125 0 
L 9.078125 10.015625 
L 19.09375 10.015625 
L 19.09375 0 
z
" id="ArialMT-2e"/>
      </defs>
      <g style="fill:#262626;" transform="translate(51.698437 274.298906)scale(0.1 -0.1)">
       <use xlink:href="#ArialMT-2212"/>
       <use x="58.398438" xlink:href="#ArialMT-30"/>
       <use x="114.013672" xlink:href="#ArialMT-2e"/>
       <use x="141.796875" xlink:href="#ArialMT-32"/>
       <use x="197.412109" xlink:href="#ArialMT-30"/>
      </g>
     </g>
    </g>
    <g id="ytick_2">
     <g id="line2d_11">
      <g>
       <use style="fill:#262626;stroke:#262626;" x="90" xlink:href="#mc1464d56a4" y="245.52"/>
      </g>
     </g>
     <g id="text_11">
      <!-- −0.15 -->
      <g style="fill:#262626;" transform="translate(51.698437 249.098906)scale(0.1 -0.1)">
       <use xlink:href="#ArialMT-2212"/>
       <use x="58.398438" xlink:href="#ArialMT-30"/>
       <use x="114.013672" xlink:href="#ArialMT-2e"/>
       <use x="141.796875" xlink:href="#ArialMT-31"/>
       <use x="197.412109" xlink:href="#ArialMT-35"/>
      </g>
     </g>
    </g>
    <g id="ytick_3">
     <g id="line2d_12">
      <g>
       <use style="fill:#262626;stroke:#262626;" x="90" xlink:href="#mc1464d56a4" y="220.32"/>
      </g>
     </g>
     <g id="text_12">
      <!-- −0.10 -->
      <g style="fill:#262626;" transform="translate(51.698437 223.898906)scale(0.1 -0.1)">
       <use xlink:href="#ArialMT-2212"/>
       <use x="58.398438" xlink:href="#ArialMT-30"/>
       <use x="114.013672" xlink:href="#ArialMT-2e"/>
       <use x="141.796875" xlink:href="#ArialMT-31"/>
       <use x="197.412109" xlink:href="#ArialMT-30"/>
      </g>
     </g>
    </g>
    <g id="ytick_4">
     <g id="line2d_13">
      <g>
       <use style="fill:#262626;stroke:#262626;" x="90" xlink:href="#mc1464d56a4" y="195.12"/>
      </g>
     </g>
     <g id="text_13">
      <!-- −0.05 -->
      <g style="fill:#262626;" transform="translate(51.698437 198.698906)scale(0.1 -0.1)">
       <use xlink:href="#ArialMT-2212"/>
       <use x="58.398438" xlink:href="#ArialMT-30"/>
       <use x="114.013672" xlink:href="#ArialMT-2e"/>
       <use x="141.796875" xlink:href="#ArialMT-30"/>
       <use x="197.412109" xlink:href="#ArialMT-35"/>
      </g>
     </g>
    </g>
    <g id="ytick_5">
     <g id="line2d_14">
      <g>
       <use style="fill:#262626;stroke:#262626;" x="90" xlink:href="#mc1464d56a4" y="169.92"/>
      </g>
     </g>
     <g id="text_14">
      <!-- 0.00 -->
      <g style="fill:#262626;" transform="translate(57.539062 173.498906)scale(0.1 -0.1)">
       <use xlink:href="#ArialMT-30"/>
       <use x="55.615234" xlink:href="#ArialMT-2e"/>
       <use x="83.398438" xlink:href="#ArialMT-30"/>
       <use x="139.013672" xlink:href="#ArialMT-30"/>
      </g>
     </g>
    </g>
    <g id="ytick_6">
     <g id="line2d_15">
      <g>
       <use style="fill:#262626;stroke:#262626;" x="90" xlink:href="#mc1464d56a4" y="144.72"/>
      </g>
     </g>
     <g id="text_15">
      <!-- 0.05 -->
      <g style="fill:#262626;" transform="translate(57.539062 148.298906)scale(0.1 -0.1)">
       <use xlink:href="#ArialMT-30"/>
       <use x="55.615234" xlink:href="#ArialMT-2e"/>
       <use x="83.398438" xlink:href="#ArialMT-30"/>
       <use x="139.013672" xlink:href="#ArialMT-35"/>
      </g>
     </g>
    </g>
    <g id="ytick_7">
     <g id="line2d_16">
      <g>
       <use style="fill:#262626;stroke:#262626;" x="90" xlink:href="#mc1464d56a4" y="119.52"/>
      </g>
     </g>
     <g id="text_16">
      <!-- 0.10 -->
      <g style="fill:#262626;" transform="translate(57.539062 123.098906)scale(0.1 -0.1)">
       <use xlink:href="#ArialMT-30"/>
       <use x="55.615234" xlink:href="#ArialMT-2e"/>
       <use x="83.398438" xlink:href="#ArialMT-31"/>
       <use x="139.013672" xlink:href="#ArialMT-30"/>
      </g>
     </g>
    </g>
    <g id="ytick_8">
     <g id="line2d_17">
      <g>
       <use style="fill:#262626;stroke:#262626;" x="90" xlink:href="#mc1464d56a4" y="94.32"/>
      </g>
     </g>
     <g id="text_17">
      <!-- 0.15 -->
      <g style="fill:#262626;" transform="translate(57.539062 97.898906)scale(0.1 -0.1)">
       <use xlink:href="#ArialMT-30"/>
       <use x="55.615234" xlink:href="#ArialMT-2e"/>
       <use x="83.398438" xlink:href="#ArialMT-31"/>
       <use x="139.013672" xlink:href="#ArialMT-35"/>
      </g>
     </g>
    </g>
    <g id="ytick_9">
     <g id="line2d_18">
      <g>
       <use style="fill:#262626;stroke:#262626;" x="90" xlink:href="#mc1464d56a4" y="69.12"/>
      </g>
     </g>
     <g id="text_18">
      <!-- 0.20 -->
      <g style="fill:#262626;" transform="translate(57.539062 72.698906)scale(0.1 -0.1)">
       <use xlink:href="#ArialMT-30"/>
       <use x="55.615234" xlink:href="#ArialMT-2e"/>
       <use x="83.398438" xlink:href="#ArialMT-32"/>
       <use x="139.013672" xlink:href="#ArialMT-30"/>
      </g>
     </g>
    </g>
   </g>
   <g id="PolyCollection_1">
    <path clip-path="url(#p4604450a40)" d="M 90 106.605253 
L 90 169.92 
L 90.6975 169.92 
L 91.395 169.92 
L 92.0925 169.92 
L 92.79 169.92 
L 93.4875 169.92 
L 94.185 169.92 
L 94.8825 169.92 
L 95.58 169.92 
L 96.2775 169.92 
L 96.975 169.92 
L 97.6725 169.92 
L 98.37 169.92 
L 99.0675 169.92 
L 99.765 169.92 
L 100.4625 169.92 
L 101.16 169.92 
L 101.8575 169.92 
L 102.555 169.92 
L 103.2525 169.92 
L 103.95 169.92 
L 104.6475 169.92 
L 105.345 169.92 
L 106.0425 169.92 
L 106.74 169.92 
L 107.4375 169.92 
L 108.135 169.92 
L 108.8325 169.92 
L 109.53 169.92 
L 110.2275 169.92 
L 110.925 169.92 
L 111.6225 169.92 
L 112.32 169.92 
L 113.0175 169.92 
L 113.715 169.92 
L 114.4125 169.92 
L 115.11 169.92 
L 115.8075 169.92 
L 116.505 169.92 
L 117.2025 169.92 
L 117.9 169.92 
L 118.5975 169.92 
L 119.295 169.92 
L 119.9925 169.92 
L 120.69 169.92 
L 121.3875 169.92 
L 122.085 169.92 
L 122.7825 169.92 
L 123.48 169.92 
L 124.1775 169.92 
L 124.875 169.92 
L 125.5725 169.92 
L 126.27 169.92 
L 126.9675 169.92 
L 127.665 169.92 
L 128.3625 169.92 
L 129.06 169.92 
L 129.7575 169.92 
L 130.455 169.92 
L 131.1525 169.92 
L 131.85 169.92 
L 132.5475 169.92 
L 133.245 169.92 
L 133.9425 169.92 
L 134.64 169.92 
L 135.3375 169.92 
L 136.035 169.92 
L 136.7325 169.92 
L 137.43 169.92 
L 138.1275 169.92 
L 138.825 169.92 
L 139.5225 169.92 
L 140.22 169.92 
L 140.9175 169.92 
L 141.615 169.92 
L 142.3125 169.92 
L 143.01 169.92 
L 143.7075 169.92 
L 144.405 169.92 
L 145.1025 169.92 
L 145.8 169.92 
L 146.4975 169.92 
L 147.195 169.92 
L 147.8925 169.92 
L 148.59 169.92 
L 149.2875 169.92 
L 149.985 169.92 
L 150.6825 169.92 
L 151.38 169.92 
L 152.0775 169.92 
L 152.775 169.92 
L 153.4725 169.92 
L 154.17 169.92 
L 154.8675 169.92 
L 155.565 169.92 
L 156.2625 169.92 
L 156.96 169.92 
L 157.6575 169.92 
L 158.355 169.92 
L 159.0525 169.92 
L 159.75 169.92 
L 160.4475 169.92 
L 161.145 169.92 
L 161.8425 169.92 
L 162.54 169.92 
L 163.2375 169.92 
L 163.935 169.92 
L 164.6325 169.92 
L 165.33 169.92 
L 166.0275 169.92 
L 166.725 169.92 
L 167.4225 169.92 
L 168.12 169.92 
L 168.8175 169.92 
L 169.515 169.92 
L 170.2125 169.92 
L 170.91 169.92 
L 171.6075 169.92 
L 172.305 169.92 
L 173.0025 169.92 
L 173.7 169.92 
L 174.3975 169.92 
L 175.095 169.92 
L 175.7925 169.92 
L 176.49 169.92 
L 177.1875 169.92 
L 177.885 169.92 
L 178.5825 169.92 
L 179.28 169.92 
L 179.9775 169.92 
L 180.675 169.92 
L 181.3725 169.92 
L 182.07 169.92 
L 182.7675 169.92 
L 183.465 169.92 
L 184.1625 169.92 
L 184.86 169.92 
L 185.5575 169.92 
L 186.255 169.92 
L 186.9525 169.92 
L 187.65 169.92 
L 188.3475 169.92 
L 189.045 169.92 
L 189.7425 169.92 
L 190.44 169.92 
L 191.1375 169.92 
L 191.835 169.92 
L 192.5325 169.92 
L 193.23 169.92 
L 193.9275 169.92 
L 194.625 169.92 
L 195.3225 169.92 
L 196.02 169.92 
L 196.7175 169.92 
L 197.415 169.92 
L 198.1125 169.92 
L 198.81 169.92 
L 199.5075 169.92 
L 200.205 169.92 
L 200.9025 169.92 
L 201.6 169.92 
L 202.2975 169.92 
L 202.995 169.92 
L 203.6925 169.92 
L 204.39 169.92 
L 205.0875 169.92 
L 205.785 169.92 
L 206.4825 169.92 
L 207.18 169.92 
L 207.8775 169.92 
L 208.575 169.92 
L 209.2725 169.92 
L 209.97 169.92 
L 210.6675 169.92 
L 211.365 169.92 
L 212.0625 169.92 
L 212.76 169.92 
L 213.4575 169.92 
L 214.155 169.92 
L 214.8525 169.92 
L 215.55 169.92 
L 216.2475 169.92 
L 216.945 169.92 
L 217.6425 169.92 
L 218.34 169.92 
L 219.0375 169.92 
L 219.735 169.92 
L 220.4325 169.92 
L 221.13 169.92 
L 221.8275 169.92 
L 222.525 169.92 
L 223.2225 169.92 
L 223.92 169.92 
L 224.6175 169.92 
L 225.315 169.92 
L 226.0125 169.92 
L 226.71 169.92 
L 227.4075 169.92 
L 228.105 169.92 
L 228.8025 169.92 
L 229.5 169.92 
L 230.1975 169.92 
L 230.895 169.92 
L 231.5925 169.92 
L 232.29 169.92 
L 232.9875 169.92 
L 233.685 169.92 
L 234.3825 169.92 
L 235.08 169.92 
L 235.7775 169.92 
L 236.475 169.92 
L 237.1725 169.92 
L 237.87 169.92 
L 238.5675 169.92 
L 239.265 169.92 
L 239.9625 169.92 
L 240.66 169.92 
L 241.3575 169.92 
L 242.055 169.92 
L 242.7525 169.92 
L 243.45 169.92 
L 244.1475 169.92 
L 244.845 169.92 
L 245.5425 169.92 
L 246.24 169.92 
L 246.9375 169.92 
L 247.635 169.92 
L 248.3325 169.92 
L 249.03 169.92 
L 249.7275 169.92 
L 250.425 169.92 
L 251.1225 169.92 
L 251.82 169.92 
L 252.5175 169.92 
L 253.215 169.92 
L 253.9125 169.92 
L 254.61 169.92 
L 255.3075 169.92 
L 256.005 169.92 
L 256.7025 169.92 
L 257.4 169.92 
L 258.0975 169.92 
L 258.795 169.92 
L 259.4925 169.92 
L 260.19 169.92 
L 260.8875 169.92 
L 261.585 169.92 
L 262.2825 169.92 
L 262.98 169.92 
L 263.6775 169.92 
L 264.375 169.92 
L 265.0725 169.92 
L 265.77 169.92 
L 266.4675 169.92 
L 267.165 169.92 
L 267.8625 169.92 
L 268.56 169.92 
L 269.2575 169.92 
L 269.955 169.92 
L 270.6525 169.92 
L 271.35 169.92 
L 272.0475 169.92 
L 272.745 169.92 
L 273.4425 169.92 
L 274.14 169.92 
L 274.8375 169.92 
L 275.535 169.92 
L 276.2325 169.92 
L 276.93 169.92 
L 277.6275 169.92 
L 278.325 169.92 
L 279.0225 169.92 
L 279.72 169.92 
L 280.4175 169.92 
L 281.115 169.92 
L 281.8125 169.92 
L 282.51 169.92 
L 283.2075 169.92 
L 283.905 169.92 
L 284.6025 169.92 
L 285.3 169.92 
L 285.9975 169.92 
L 286.695 169.92 
L 287.3925 169.92 
L 288.09 169.92 
L 288.7875 169.92 
L 289.485 169.92 
L 290.1825 169.92 
L 290.88 169.92 
L 291.5775 169.92 
L 292.275 169.92 
L 292.9725 169.92 
L 293.67 169.92 
L 294.3675 169.92 
L 295.065 169.92 
L 295.7625 169.92 
L 296.46 169.92 
L 297.1575 169.92 
L 297.855 169.92 
L 298.5525 169.92 
L 299.25 169.92 
L 299.9475 169.92 
L 300.645 169.92 
L 301.3425 169.92 
L 302.04 169.92 
L 302.7375 169.92 
L 303.435 169.92 
L 304.1325 169.92 
L 304.83 169.92 
L 305.5275 169.92 
L 306.225 169.92 
L 306.9225 169.92 
L 307.62 169.92 
L 308.3175 169.92 
L 309.015 169.92 
L 309.7125 169.92 
L 310.41 169.92 
L 311.1075 169.92 
L 311.805 169.92 
L 312.5025 169.92 
L 313.2 169.92 
L 313.8975 169.92 
L 314.595 169.92 
L 315.2925 169.92 
L 315.99 169.92 
L 316.6875 169.92 
L 317.385 169.92 
L 318.0825 169.92 
L 318.78 169.92 
L 319.4775 169.92 
L 320.175 169.92 
L 320.8725 169.92 
L 321.57 169.92 
L 322.2675 169.92 
L 322.965 169.92 
L 323.6625 169.92 
L 324.36 169.92 
L 325.0575 169.92 
L 325.755 169.92 
L 326.4525 169.92 
L 327.15 169.92 
L 327.8475 169.92 
L 328.545 169.92 
L 329.2425 169.92 
L 329.94 169.92 
L 330.6375 169.92 
L 331.335 169.92 
L 332.0325 169.92 
L 332.73 169.92 
L 333.4275 169.92 
L 334.125 169.92 
L 334.8225 169.92 
L 335.52 169.92 
L 336.2175 169.92 
L 336.915 169.92 
L 337.6125 169.92 
L 338.31 169.92 
L 339.0075 169.92 
L 339.705 169.92 
L 340.4025 169.92 
L 341.1 169.92 
L 341.7975 169.92 
L 342.495 169.92 
L 343.1925 169.92 
L 343.89 169.92 
L 344.5875 169.92 
L 345.285 169.92 
L 345.9825 169.92 
L 346.68 169.92 
L 347.3775 169.92 
L 348.075 169.92 
L 348.7725 169.92 
L 349.47 169.92 
L 350.1675 169.92 
L 350.865 169.92 
L 351.5625 169.92 
L 352.26 169.92 
L 352.9575 169.92 
L 353.655 169.92 
L 354.3525 169.92 
L 355.05 169.92 
L 355.7475 169.92 
L 356.445 169.92 
L 357.1425 169.92 
L 357.84 169.92 
L 358.5375 169.92 
L 359.235 169.92 
L 359.9325 169.92 
L 360.63 169.92 
L 361.3275 169.92 
L 362.025 169.92 
L 362.7225 169.92 
L 363.42 169.92 
L 364.1175 169.92 
L 364.815 169.92 
L 365.5125 169.92 
L 366.21 169.92 
L 366.9075 169.92 
L 367.605 169.92 
L 368.3025 169.92 
L 369 169.92 
L 369.6975 169.92 
L 370.395 169.92 
L 371.0925 169.92 
L 371.79 169.92 
L 372.4875 169.92 
L 373.185 169.92 
L 373.8825 169.92 
L 374.58 169.92 
L 375.2775 169.92 
L 375.975 169.92 
L 376.6725 169.92 
L 377.37 169.92 
L 378.0675 169.92 
L 378.765 169.92 
L 379.4625 169.92 
L 380.16 169.92 
L 380.8575 169.92 
L 381.555 169.92 
L 382.2525 169.92 
L 382.95 169.92 
L 383.6475 169.92 
L 384.345 169.92 
L 385.0425 169.92 
L 385.74 169.92 
L 386.4375 169.92 
L 387.135 169.92 
L 387.8325 169.92 
L 388.53 169.92 
L 389.2275 169.92 
L 389.925 169.92 
L 390.6225 169.92 
L 391.32 169.92 
L 392.0175 169.92 
L 392.715 169.92 
L 393.4125 169.92 
L 394.11 169.92 
L 394.8075 169.92 
L 395.505 169.92 
L 396.2025 169.92 
L 396.9 169.92 
L 397.5975 169.92 
L 398.295 169.92 
L 398.9925 169.92 
L 399.69 169.92 
L 400.3875 169.92 
L 401.085 169.92 
L 401.7825 169.92 
L 402.48 169.92 
L 403.1775 169.92 
L 403.875 169.92 
L 404.5725 169.92 
L 405.27 169.92 
L 405.9675 169.92 
L 406.665 169.92 
L 407.3625 169.92 
L 408.06 169.92 
L 408.7575 169.92 
L 409.455 169.92 
L 410.1525 169.92 
L 410.85 169.92 
L 411.5475 169.92 
L 412.245 169.92 
L 412.9425 169.92 
L 413.64 169.92 
L 414.3375 169.92 
L 415.035 169.92 
L 415.7325 169.92 
L 416.43 169.92 
L 417.1275 169.92 
L 417.825 169.92 
L 418.5225 169.92 
L 419.22 169.92 
L 419.9175 169.92 
L 420.615 169.92 
L 421.3125 169.92 
L 422.01 169.92 
L 422.7075 169.92 
L 423.405 169.92 
L 424.1025 169.92 
L 424.8 169.92 
L 425.4975 169.92 
L 426.195 169.92 
L 426.8925 169.92 
L 427.59 169.92 
L 428.2875 169.92 
L 428.985 169.92 
L 429.6825 169.92 
L 430.38 169.92 
L 431.0775 169.92 
L 431.775 169.92 
L 432.4725 169.92 
L 433.17 169.92 
L 433.8675 169.92 
L 434.565 169.92 
L 435.2625 169.92 
L 435.96 169.92 
L 436.6575 169.92 
L 437.355 169.92 
L 438.0525 169.92 
L 438.75 169.92 
L 439.4475 169.92 
L 440.145 169.92 
L 440.8425 169.92 
L 441.54 169.92 
L 442.2375 169.92 
L 442.935 169.92 
L 443.6325 169.92 
L 444.33 169.92 
L 445.0275 169.92 
L 445.725 169.92 
L 446.4225 169.92 
L 447.12 169.92 
L 447.8175 169.92 
L 448.515 169.92 
L 449.2125 169.92 
L 449.91 169.92 
L 450.6075 169.92 
L 451.305 169.92 
L 452.0025 169.92 
L 452.7 169.92 
L 453.3975 169.92 
L 454.095 169.92 
L 454.7925 169.92 
L 455.49 169.92 
L 456.1875 169.92 
L 456.885 169.92 
L 457.5825 169.92 
L 458.28 169.92 
L 458.9775 169.92 
L 459.675 169.92 
L 460.3725 169.92 
L 461.07 169.92 
L 461.7675 169.92 
L 462.465 169.92 
L 463.1625 169.92 
L 463.86 169.92 
L 464.5575 169.92 
L 465.255 169.92 
L 465.9525 169.92 
L 466.65 169.92 
L 467.3475 169.92 
L 468.045 169.92 
L 468.7425 169.92 
L 469.44 169.92 
L 470.1375 169.92 
L 470.835 169.92 
L 471.5325 169.92 
L 472.23 169.92 
L 472.9275 169.92 
L 473.625 169.92 
L 474.3225 169.92 
L 475.02 169.92 
L 475.7175 169.92 
L 476.415 169.92 
L 477.1125 169.92 
L 477.81 169.92 
L 478.5075 169.92 
L 479.205 169.92 
L 479.9025 169.92 
L 480.6 169.92 
L 481.2975 169.92 
L 481.995 169.92 
L 482.6925 169.92 
L 483.39 169.92 
L 484.0875 169.92 
L 484.785 169.92 
L 485.4825 169.92 
L 486.18 169.92 
L 486.8775 169.92 
L 487.575 169.92 
L 488.2725 169.92 
L 488.97 169.92 
L 489.6675 169.92 
L 490.365 169.92 
L 491.0625 169.92 
L 491.76 169.92 
L 492.4575 169.92 
L 493.155 169.92 
L 493.8525 169.92 
L 494.55 169.92 
L 495.2475 169.92 
L 495.945 169.92 
L 496.6425 169.92 
L 497.34 169.92 
L 498.0375 169.92 
L 498.735 169.92 
L 499.4325 169.92 
L 500.13 169.92 
L 500.8275 169.92 
L 501.525 169.92 
L 502.2225 169.92 
L 502.92 169.92 
L 503.6175 169.92 
L 504.315 169.92 
L 505.0125 169.92 
L 505.71 169.92 
L 506.4075 169.92 
L 507.105 169.92 
L 507.8025 169.92 
L 508.5 169.92 
L 509.1975 169.92 
L 509.895 169.92 
L 510.5925 169.92 
L 511.29 169.92 
L 511.9875 169.92 
L 512.685 169.92 
L 513.3825 169.92 
L 514.08 169.92 
L 514.7775 169.92 
L 515.475 169.92 
L 516.1725 169.92 
L 516.87 169.92 
L 517.5675 169.92 
L 518.265 169.92 
L 518.9625 169.92 
L 519.66 169.92 
L 520.3575 169.92 
L 521.055 169.92 
L 521.7525 169.92 
L 522.45 169.92 
L 523.1475 169.92 
L 523.845 169.92 
L 524.5425 169.92 
L 525.24 169.92 
L 525.9375 169.92 
L 526.635 169.92 
L 527.3325 169.92 
L 528.03 169.92 
L 528.7275 169.92 
L 529.425 169.92 
L 530.1225 169.92 
L 530.82 169.92 
L 531.5175 169.92 
L 532.215 169.92 
L 532.9125 169.92 
L 533.61 169.92 
L 534.3075 169.92 
L 535.005 169.92 
L 535.7025 169.92 
L 536.4 169.92 
L 537.0975 169.92 
L 537.795 169.92 
L 538.4925 169.92 
L 539.19 169.92 
L 539.8875 169.92 
L 540.585 169.92 
L 541.2825 169.92 
L 541.98 169.92 
L 542.6775 169.92 
L 543.375 169.92 
L 544.0725 169.92 
L 544.77 169.92 
L 545.4675 169.92 
L 546.165 169.92 
L 546.8625 169.92 
L 547.56 169.92 
L 548.2575 169.92 
L 548.955 169.92 
L 549.6525 169.92 
L 550.35 169.92 
L 551.0475 169.92 
L 551.745 169.92 
L 552.4425 169.92 
L 553.14 169.92 
L 553.8375 169.92 
L 554.535 169.92 
L 555.2325 169.92 
L 555.93 169.92 
L 556.6275 169.92 
L 557.325 169.92 
L 558.0225 169.92 
L 558.72 169.92 
L 559.4175 169.92 
L 560.115 169.92 
L 560.8125 169.92 
L 561.51 169.92 
L 562.2075 169.92 
L 562.905 169.92 
L 563.6025 169.92 
L 564.3 169.92 
L 564.9975 169.92 
L 565.695 169.92 
L 566.3925 169.92 
L 567.09 169.92 
L 567.7875 169.92 
L 568.485 169.92 
L 569.1825 169.92 
L 569.88 169.92 
L 570.5775 169.92 
L 571.275 169.92 
L 571.9725 169.92 
L 572.67 169.92 
L 573.3675 169.92 
L 574.065 169.92 
L 574.7625 169.92 
L 575.46 169.92 
L 576.1575 169.92 
L 576.855 169.92 
L 577.5525 169.92 
L 578.25 169.92 
L 578.9475 169.92 
L 579.645 169.92 
L 580.3425 169.92 
L 581.04 169.92 
L 581.7375 169.92 
L 582.435 169.92 
L 583.1325 169.92 
L 583.83 169.92 
L 584.5275 169.92 
L 585.225 169.92 
L 585.9225 169.92 
L 586.62 169.92 
L 587.3175 169.92 
L 588.015 169.92 
L 588.7125 169.92 
L 589.41 169.92 
L 590.1075 169.92 
L 590.805 169.92 
L 591.5025 169.92 
L 592.2 169.92 
L 592.8975 169.92 
L 593.595 169.92 
L 594.2925 169.92 
L 594.99 169.92 
L 595.6875 169.92 
L 596.385 169.92 
L 597.0825 169.92 
L 597.78 169.92 
L 598.4775 169.92 
L 599.175 169.92 
L 599.8725 169.92 
L 600.57 169.92 
L 601.2675 169.92 
L 601.965 169.92 
L 602.6625 169.92 
L 603.36 169.92 
L 604.0575 169.92 
L 604.755 169.92 
L 605.4525 169.92 
L 606.15 169.92 
L 606.8475 169.92 
L 607.545 169.92 
L 608.2425 169.92 
L 608.94 169.92 
L 609.6375 169.92 
L 610.335 169.92 
L 611.0325 169.92 
L 611.73 169.92 
L 612.4275 169.92 
L 613.125 169.92 
L 613.8225 169.92 
L 614.52 169.92 
L 615.2175 169.92 
L 615.915 169.92 
L 616.6125 169.92 
L 617.31 169.92 
L 618.0075 169.92 
L 618.705 169.92 
L 619.4025 169.92 
L 620.1 169.92 
L 620.7975 169.92 
L 621.495 169.92 
L 622.1925 169.92 
L 622.89 169.92 
L 623.5875 169.92 
L 624.285 169.92 
L 624.9825 169.92 
L 625.68 169.92 
L 626.3775 169.92 
L 627.075 169.92 
L 627.7725 169.92 
L 628.47 169.92 
L 629.1675 169.92 
L 629.865 169.92 
L 630.5625 169.92 
L 631.26 169.92 
L 631.9575 169.92 
L 632.655 169.92 
L 633.3525 169.92 
L 634.05 169.92 
L 634.7475 169.92 
L 635.445 169.92 
L 636.1425 169.92 
L 636.84 169.92 
L 637.5375 169.92 
L 638.235 169.92 
L 638.9325 169.92 
L 639.63 169.92 
L 640.3275 169.92 
L 641.025 169.92 
L 641.7225 169.92 
L 642.42 169.92 
L 643.1175 169.92 
L 643.815 169.92 
L 644.5125 169.92 
L 645.21 169.92 
L 645.9075 169.92 
L 646.605 169.92 
L 646.605 169.92 
L 646.605 169.92 
L 645.9075 169.921742 
L 645.21 169.925828 
L 644.5125 169.932841 
L 643.815 169.943339 
L 643.1175 169.957855 
L 642.42 169.976889 
L 641.7225 170.000906 
L 641.025 170.030328 
L 640.3275 170.065537 
L 639.63 170.106866 
L 638.9325 170.154597 
L 638.235 170.20896 
L 637.5375 170.270128 
L 636.84 170.338218 
L 636.1425 170.413287 
L 635.445 170.495327 
L 634.7475 170.584273 
L 634.05 170.679994 
L 633.3525 170.782295 
L 632.655 170.890918 
L 631.9575 171.005544 
L 631.26 171.125789 
L 630.5625 171.25121 
L 629.865 171.381303 
L 629.1675 171.51551 
L 628.47 171.653214 
L 627.7725 171.793748 
L 627.075 171.936397 
L 626.3775 172.080398 
L 625.68 172.224949 
L 624.9825 172.369207 
L 624.285 172.5123 
L 623.5875 172.653323 
L 622.89 172.79135 
L 622.1925 172.925436 
L 621.495 173.054621 
L 620.7975 173.17794 
L 620.1 173.294422 
L 619.4025 173.403104 
L 618.705 173.503028 
L 618.0075 173.593253 
L 617.31 173.672859 
L 616.6125 173.740952 
L 615.915 173.796672 
L 615.2175 173.839194 
L 614.52 173.867742 
L 613.8225 173.881584 
L 613.125 173.880046 
L 612.4275 173.862513 
L 611.73 173.828433 
L 611.0325 173.777326 
L 610.335 173.708783 
L 609.6375 173.622473 
L 608.94 173.518147 
L 608.2425 173.39564 
L 607.545 173.254874 
L 606.8475 173.095861 
L 606.15 172.918704 
L 605.4525 172.723602 
L 604.755 172.510847 
L 604.0575 172.280826 
L 603.36 172.034022 
L 602.6625 171.771014 
L 601.965 171.492476 
L 601.2675 171.199175 
L 600.57 170.891968 
L 599.8725 170.571805 
L 599.175 170.23972 
L 598.4775 169.896831 
L 597.78 169.544338 
L 597.0825 169.183514 
L 596.385 168.815705 
L 595.6875 168.442322 
L 594.99 168.06484 
L 594.2925 167.684784 
L 593.595 167.303732 
L 592.8975 166.923302 
L 592.2 166.54515 
L 591.5025 166.170957 
L 590.805 165.802427 
L 590.1075 165.441277 
L 589.41 165.089231 
L 588.7125 164.748007 
L 588.015 164.419317 
L 587.3175 164.10485 
L 586.62 163.806272 
L 585.9225 163.52521 
L 585.225 163.263252 
L 584.5275 163.021932 
L 583.83 162.802724 
L 583.1325 162.607037 
L 582.435 162.436203 
L 581.7375 162.291473 
L 581.04 162.174007 
L 580.3425 162.08487 
L 579.645 162.025023 
L 578.9475 161.995318 
L 578.25 161.996492 
L 577.5525 162.029163 
L 576.855 162.093821 
L 576.1575 162.190828 
L 575.46 162.320414 
L 574.7625 162.482671 
L 574.065 162.67755 
L 573.3675 162.904863 
L 572.67 163.164278 
L 571.9725 163.455319 
L 571.275 163.777366 
L 570.5775 164.129654 
L 569.88 164.511277 
L 569.1825 164.921187 
L 568.485 165.358197 
L 567.7875 165.820984 
L 567.09 166.308094 
L 566.3925 166.817945 
L 565.695 167.34883 
L 564.9975 167.898927 
L 564.3 168.466302 
L 563.6025 169.048916 
L 562.905 169.644633 
L 562.2075 170.251228 
L 561.51 170.866394 
L 560.8125 171.487751 
L 560.115 172.112858 
L 559.4175 172.739218 
L 558.72 173.364291 
L 558.0225 173.985505 
L 557.325 174.600262 
L 556.6275 175.205956 
L 555.93 175.799977 
L 555.2325 176.379726 
L 554.535 176.942626 
L 553.8375 177.486132 
L 553.14 178.007742 
L 552.4425 178.505012 
L 551.745 178.975561 
L 551.0475 179.417089 
L 550.35 179.827382 
L 549.6525 180.204326 
L 548.955 180.545913 
L 548.2575 180.85026 
L 547.56 181.115606 
L 546.8625 181.340334 
L 546.165 181.522967 
L 545.4675 181.662188 
L 544.77 181.75684 
L 544.0725 181.805933 
L 543.375 181.808655 
L 542.6775 181.764374 
L 541.98 181.672643 
L 541.2825 181.533207 
L 540.585 181.346002 
L 539.8875 181.111162 
L 539.19 180.829018 
L 538.4925 180.5001 
L 537.795 180.125137 
L 537.0975 179.705058 
L 536.4 179.240987 
L 535.7025 178.734243 
L 535.005 178.186337 
L 534.3075 177.598968 
L 533.61 176.974016 
L 532.9125 176.313539 
L 532.215 175.619764 
L 531.5175 174.895083 
L 530.82 174.14204 
L 530.1225 173.363328 
L 529.425 172.561774 
L 528.7275 171.740334 
L 528.03 170.902076 
L 527.3325 170.050176 
L 526.635 169.187898 
L 525.9375 168.31859 
L 525.24 167.445662 
L 524.5425 166.57258 
L 523.845 165.702849 
L 523.1475 164.839999 
L 522.45 163.987571 
L 521.7525 163.149102 
L 521.055 162.328112 
L 520.3575 161.528088 
L 519.66 160.752468 
L 518.9625 160.004629 
L 518.265 159.287872 
L 517.5675 158.605405 
L 516.87 157.960332 
L 516.1725 157.355637 
L 515.475 156.794172 
L 514.7775 156.278642 
L 514.08 155.811596 
L 513.3825 155.39541 
L 512.685 155.03228 
L 511.9875 154.724208 
L 511.29 154.472994 
L 510.5925 154.280227 
L 509.895 154.147271 
L 509.1975 154.075267 
L 508.5 154.065115 
L 507.8025 154.117478 
L 507.105 154.232771 
L 506.4075 154.411157 
L 505.71 154.652548 
L 505.0125 154.956597 
L 504.315 155.322704 
L 503.6175 155.75001 
L 502.92 156.237401 
L 502.2225 156.783509 
L 501.525 157.386717 
L 500.8275 158.045162 
L 500.13 158.756739 
L 499.4325 159.519111 
L 498.735 160.329712 
L 498.0375 161.185759 
L 497.34 162.084258 
L 496.6425 163.02202 
L 495.945 163.995665 
L 495.2475 165.001639 
L 494.55 166.036224 
L 493.8525 167.095556 
L 493.155 168.175634 
L 492.4575 169.272337 
L 491.76 170.381444 
L 491.0625 171.498642 
L 490.365 172.61955 
L 489.6675 173.739734 
L 488.97 174.854721 
L 488.2725 175.960024 
L 487.575 177.051152 
L 486.8775 178.123634 
L 486.18 179.173037 
L 485.4825 180.194979 
L 484.785 181.185154 
L 484.0875 182.139346 
L 483.39 183.053448 
L 482.6925 183.923478 
L 481.995 184.745601 
L 481.2975 185.516139 
L 480.6 186.231591 
L 479.9025 186.88865 
L 479.205 187.484215 
L 478.5075 188.015404 
L 477.81 188.479574 
L 477.1125 188.874326 
L 476.415 189.197522 
L 475.7175 189.447291 
L 475.02 189.622045 
L 474.3225 189.720482 
L 473.625 189.741595 
L 472.9275 189.68468 
L 472.23 189.54934 
L 471.5325 189.335489 
L 470.835 189.043355 
L 470.1375 188.673482 
L 469.44 188.226728 
L 468.7425 187.704267 
L 468.045 187.107585 
L 467.3475 186.438477 
L 466.65 185.699041 
L 465.9525 184.891673 
L 465.255 184.019061 
L 464.5575 183.08417 
L 463.86 182.090242 
L 463.1625 181.040777 
L 462.465 179.939522 
L 461.7675 178.790464 
L 461.07 177.597806 
L 460.3725 176.365959 
L 459.675 175.099524 
L 458.9775 173.803273 
L 458.28 172.482132 
L 457.5825 171.141166 
L 456.885 169.785551 
L 456.1875 168.420562 
L 455.49 167.051552 
L 454.7925 165.683924 
L 454.095 164.323118 
L 453.3975 162.974584 
L 452.7 161.643763 
L 452.0025 160.336063 
L 451.305 159.05684 
L 450.6075 157.811371 
L 449.91 156.604838 
L 449.2125 155.442303 
L 448.515 154.328689 
L 447.8175 153.268755 
L 447.12 152.267084 
L 446.4225 151.328052 
L 445.725 150.45582 
L 445.0275 149.65431 
L 444.33 148.927187 
L 443.6325 148.277846 
L 442.935 147.709395 
L 442.2375 147.224639 
L 441.54 146.82607 
L 440.8425 146.515851 
L 440.145 146.295809 
L 439.4475 146.167424 
L 438.75 146.131817 
L 438.0525 146.189752 
L 437.355 146.341621 
L 436.6575 146.587445 
L 435.96 146.926871 
L 435.2625 147.359173 
L 434.565 147.883245 
L 433.8675 148.497614 
L 433.17 149.200432 
L 432.4725 149.989491 
L 431.775 150.862224 
L 431.0775 151.815713 
L 430.38 152.8467 
L 429.6825 153.951598 
L 428.985 155.126503 
L 428.2875 156.367207 
L 427.59 157.669214 
L 426.8925 159.027753 
L 426.195 160.437802 
L 425.4975 161.894098 
L 424.8 163.391164 
L 424.1025 164.923327 
L 423.405 166.484735 
L 422.7075 168.069389 
L 422.01 169.671154 
L 421.3125 171.283795 
L 420.615 172.900992 
L 419.9175 174.516369 
L 419.22 176.123518 
L 418.5225 177.716026 
L 417.825 179.287497 
L 417.1275 180.831581 
L 416.43 182.342001 
L 415.7325 183.812572 
L 415.035 185.237233 
L 414.3375 186.610069 
L 413.64 187.925334 
L 412.9425 189.17748 
L 412.245 190.361174 
L 411.5475 191.471326 
L 410.85 192.503106 
L 410.1525 193.451969 
L 409.455 194.313672 
L 408.7575 195.084294 
L 408.06 195.760253 
L 407.3625 196.338323 
L 406.665 196.815648 
L 405.9675 197.189754 
L 405.27 197.458567 
L 404.5725 197.620415 
L 403.875 197.674045 
L 403.1775 197.618624 
L 402.48 197.453749 
L 401.7825 197.179449 
L 401.085 196.796188 
L 400.3875 196.304866 
L 399.69 195.706816 
L 398.9925 195.003803 
L 398.295 194.198019 
L 397.5975 193.292076 
L 396.9 192.288999 
L 396.2025 191.192214 
L 395.505 190.005539 
L 394.8075 188.73317 
L 394.11 187.379666 
L 393.4125 185.949934 
L 392.715 184.449209 
L 392.0175 182.883037 
L 391.32 181.257254 
L 390.6225 179.577966 
L 389.925 177.851522 
L 389.2275 176.084492 
L 388.53 174.283646 
L 387.8325 172.455922 
L 387.135 170.608401 
L 386.4375 168.748282 
L 385.74 166.882852 
L 385.0425 165.019459 
L 384.345 163.165479 
L 383.6475 161.328293 
L 382.95 159.515251 
L 382.2525 157.733649 
L 381.555 155.990694 
L 380.8575 154.293479 
L 380.16 152.648953 
L 379.4625 151.063889 
L 378.765 149.544864 
L 378.0675 148.098224 
L 377.37 146.730062 
L 376.6725 145.446189 
L 375.975 144.252115 
L 375.2775 143.153021 
L 374.58 142.153736 
L 373.8825 141.258719 
L 373.185 140.472041 
L 372.4875 139.797359 
L 371.79 139.237909 
L 371.0925 138.796483 
L 370.395 138.475423 
L 369.6975 138.276603 
L 369 138.201421 
L 368.3025 138.250795 
L 367.605 138.425151 
L 366.9075 138.724424 
L 366.21 139.148053 
L 365.5125 139.694979 
L 364.815 140.363652 
L 364.1175 141.152032 
L 363.42 142.057593 
L 362.7225 143.077333 
L 362.025 144.207782 
L 361.3275 145.445016 
L 360.63 146.784668 
L 359.9325 148.221944 
L 359.235 149.75164 
L 358.5375 151.368161 
L 357.84 153.065541 
L 357.1425 154.837464 
L 356.445 156.677291 
L 355.7475 158.578079 
L 355.05 160.532612 
L 354.3525 162.533428 
L 353.655 164.572844 
L 352.9575 166.642988 
L 352.26 168.735832 
L 351.5625 170.843216 
L 350.865 172.956886 
L 350.1675 175.068526 
L 349.47 177.169785 
L 348.7725 179.252319 
L 348.075 181.307816 
L 347.3775 183.328032 
L 346.68 185.304827 
L 345.9825 187.230193 
L 345.285 189.096291 
L 344.5875 190.895477 
L 343.89 192.620339 
L 343.1925 194.263727 
L 342.495 195.818777 
L 341.7975 197.278945 
L 341.1 198.638035 
L 340.4025 199.890219 
L 339.705 201.030068 
L 339.0075 202.052574 
L 338.31 202.953168 
L 337.6125 203.727745 
L 336.915 204.372681 
L 336.2175 204.884846 
L 335.52 205.261624 
L 334.8225 205.500922 
L 334.125 205.601182 
L 333.4275 205.56139 
L 332.73 205.38108 
L 332.0325 205.060342 
L 331.335 204.599821 
L 330.6375 204.000717 
L 329.94 203.264785 
L 329.2425 202.39433 
L 328.545 201.392197 
L 327.8475 200.261766 
L 327.15 199.006938 
L 326.4525 197.632125 
L 325.755 196.142231 
L 325.0575 194.542637 
L 324.36 192.839183 
L 323.6625 191.038143 
L 322.965 189.146203 
L 322.2675 187.170441 
L 321.57 185.118294 
L 320.8725 182.997533 
L 320.175 180.816234 
L 319.4775 178.582748 
L 318.78 176.305667 
L 318.0825 173.993791 
L 317.385 171.656096 
L 316.6875 169.301697 
L 315.99 166.939815 
L 315.2925 164.579738 
L 314.595 162.230785 
L 313.8975 159.902273 
L 313.2 157.603473 
L 312.5025 155.343582 
L 311.805 153.131677 
L 311.1075 150.976686 
L 310.41 148.887347 
L 309.7125 146.872174 
L 309.015 144.939426 
L 308.3175 143.097068 
L 307.62 141.352739 
L 306.9225 139.713724 
L 306.225 138.186921 
L 305.5275 136.778812 
L 304.83 135.495436 
L 304.1325 134.342365 
L 303.435 133.324675 
L 302.7375 132.446932 
L 302.04 131.713164 
L 301.3425 131.126847 
L 300.645 130.690888 
L 299.9475 130.407612 
L 299.25 130.278748 
L 298.5525 130.305425 
L 297.855 130.488157 
L 297.1575 130.826847 
L 296.46 131.320781 
L 295.7625 131.968626 
L 295.065 132.768438 
L 294.3675 133.717663 
L 293.67 134.813148 
L 292.9725 136.051148 
L 292.275 137.42734 
L 291.5775 138.936841 
L 290.88 140.574217 
L 290.1825 142.333512 
L 289.485 144.208263 
L 288.7875 146.191525 
L 288.09 148.275898 
L 287.3925 150.453555 
L 286.695 152.716267 
L 285.9975 155.055441 
L 285.3 157.462145 
L 284.6025 159.927148 
L 283.905 162.440954 
L 283.2075 164.993835 
L 282.51 167.575874 
L 281.8125 170.177 
L 281.115 172.787027 
L 280.4175 175.395697 
L 279.72 177.992717 
L 279.0225 180.567802 
L 278.325 183.110715 
L 277.6275 185.611306 
L 276.93 188.059555 
L 276.2325 190.445611 
L 275.535 192.759831 
L 274.8375 194.992821 
L 274.14 197.135472 
L 273.4425 199.178996 
L 272.745 201.114968 
L 272.0475 202.935353 
L 271.35 204.632543 
L 270.6525 206.19939 
L 269.955 207.629234 
L 269.2575 208.91593 
L 268.56 210.053878 
L 267.8625 211.038042 
L 267.165 211.863979 
L 266.4675 212.527851 
L 265.77 213.026446 
L 265.0725 213.357197 
L 264.375 213.518185 
L 263.6775 213.508159 
L 262.98 213.326537 
L 262.2825 212.973411 
L 261.585 212.449553 
L 260.8875 211.756412 
L 260.19 210.896108 
L 259.4925 209.871432 
L 258.795 208.685833 
L 258.0975 207.343406 
L 257.4 205.848881 
L 256.7025 204.207608 
L 256.005 202.425532 
L 255.3075 200.509176 
L 254.61 198.465618 
L 253.9125 196.302462 
L 253.215 194.02781 
L 252.5175 191.650236 
L 251.82 189.178748 
L 251.1225 186.622756 
L 250.425 183.992041 
L 249.7275 181.296707 
L 249.03 178.547155 
L 248.3325 175.754031 
L 247.635 172.928193 
L 246.9375 170.080667 
L 246.24 167.2226 
L 245.5425 164.365221 
L 244.845 161.519796 
L 244.1475 158.69758 
L 243.45 155.909779 
L 242.7525 153.1675 
L 242.055 150.481707 
L 241.3575 147.863182 
L 240.66 145.322475 
L 239.9625 142.869869 
L 239.265 140.51533 
L 238.5675 138.268474 
L 237.87 136.138523 
L 237.1725 134.134271 
L 236.475 132.264045 
L 235.7775 130.535669 
L 235.08 128.956436 
L 234.3825 127.533075 
L 233.685 126.271722 
L 232.9875 125.177894 
L 232.29 124.256466 
L 231.5925 123.511647 
L 230.895 122.946966 
L 230.1975 122.565251 
L 229.5 122.368619 
L 228.8025 122.358462 
L 228.105 122.53544 
L 227.4075 122.89948 
L 226.71 123.449767 
L 226.0125 124.184751 
L 225.315 125.102146 
L 224.6175 126.198941 
L 223.92 127.471403 
L 223.2225 128.915099 
L 222.525 130.524901 
L 221.8275 132.295012 
L 221.13 134.218981 
L 220.4325 136.289731 
L 219.735 138.499581 
L 219.0375 140.840276 
L 218.34 143.30302 
L 217.6425 145.878504 
L 216.945 148.556947 
L 216.2475 151.328127 
L 215.55 154.181426 
L 214.8525 157.105865 
L 214.155 160.090151 
L 213.4575 163.122718 
L 212.76 166.191771 
L 212.0625 169.285335 
L 211.365 172.3913 
L 210.6675 175.497466 
L 209.97 178.591597 
L 209.2725 181.661462 
L 208.575 184.694888 
L 207.8775 187.679809 
L 207.18 190.604309 
L 206.4825 193.456674 
L 205.785 196.225438 
L 205.0875 198.899429 
L 204.39 201.467812 
L 203.6925 203.920135 
L 202.995 206.246372 
L 202.2975 208.436962 
L 201.6 210.48285 
L 200.9025 212.375522 
L 200.205 214.107043 
L 199.5075 215.670089 
L 198.81 217.057977 
L 198.1125 218.264696 
L 197.415 219.284927 
L 196.7175 220.114075 
L 196.02 220.748281 
L 195.3225 221.184445 
L 194.625 221.420236 
L 193.9275 221.45411 
L 193.23 221.285311 
L 192.5325 220.913882 
L 191.835 220.340666 
L 191.1375 219.567302 
L 190.44 218.596225 
L 189.7425 217.430658 
L 189.045 216.074599 
L 188.3475 214.532811 
L 187.65 212.810803 
L 186.9525 210.914811 
L 186.255 208.851779 
L 185.5575 206.629327 
L 184.86 204.255728 
L 184.1625 201.739878 
L 183.465 199.091258 
L 182.7675 196.319902 
L 182.07 193.436359 
L 181.3725 190.451652 
L 180.675 187.377234 
L 179.9775 184.224948 
L 179.28 181.006979 
L 178.5825 177.735807 
L 177.885 174.424158 
L 177.1875 171.084957 
L 176.49 167.731275 
L 175.7925 164.37628 
L 175.095 161.033182 
L 174.3975 157.715185 
L 173.7 154.435431 
L 173.0025 151.206954 
L 172.305 148.042618 
L 171.6075 144.955077 
L 170.91 141.956716 
L 170.2125 139.059608 
L 169.515 136.275457 
L 168.8175 133.615562 
L 168.12 131.090759 
L 167.4225 128.711386 
L 166.725 126.487238 
L 166.0275 124.427526 
L 165.33 122.540837 
L 164.6325 120.835104 
L 163.935 119.317568 
L 163.2375 117.994748 
L 162.54 116.872415 
L 161.8425 115.955567 
L 161.145 115.248404 
L 160.4475 114.754313 
L 159.75 114.47585 
L 159.0525 114.41473 
L 158.355 114.571812 
L 157.6575 114.947101 
L 156.96 115.539741 
L 156.2625 116.348015 
L 155.565 117.369352 
L 154.8675 118.600334 
L 154.17 120.036707 
L 153.4725 121.673395 
L 152.775 123.504518 
L 152.0775 125.523411 
L 151.38 127.722655 
L 150.6825 130.094093 
L 149.985 132.628871 
L 149.2875 135.317464 
L 148.59 138.149715 
L 147.8925 141.114872 
L 147.195 144.201628 
L 146.4975 147.398167 
L 145.8 150.692205 
L 145.1025 154.071043 
L 144.405 157.521609 
L 143.7075 161.030514 
L 143.01 164.584102 
L 142.3125 168.168501 
L 141.615 171.769682 
L 140.9175 175.37351 
L 140.22 178.9658 
L 139.5225 182.532374 
L 138.825 186.059117 
L 138.1275 189.532033 
L 137.43 192.937296 
L 136.7325 196.261314 
L 136.035 199.490775 
L 135.3375 202.612704 
L 134.64 205.614514 
L 133.9425 208.484058 
L 133.245 211.209678 
L 132.5475 213.78025 
L 131.85 216.185232 
L 131.1525 218.414706 
L 130.455 220.459419 
L 129.7575 222.31082 
L 129.06 223.9611 
L 128.3625 225.403218 
L 127.665 226.630936 
L 126.9675 227.638846 
L 126.27 228.422389 
L 125.5725 228.977879 
L 124.875 229.30252 
L 124.1775 229.394417 
L 123.48 229.252588 
L 122.7825 228.87697 
L 122.085 228.268419 
L 121.3875 227.428713 
L 120.69 226.360546 
L 119.9925 225.067519 
L 119.295 223.554128 
L 118.5975 221.82575 
L 117.9 219.888624 
L 117.2025 217.749826 
L 116.505 215.417247 
L 115.8075 212.899564 
L 115.11 210.206201 
L 114.4125 207.347305 
L 113.715 204.333699 
L 113.0175 201.176842 
L 112.32 197.888791 
L 111.6225 194.48215 
L 110.925 190.970023 
L 110.2275 187.365964 
L 109.53 183.683923 
L 108.8325 179.938195 
L 108.135 176.143364 
L 107.4375 172.314242 
L 106.74 168.465818 
L 106.0425 164.613192 
L 105.345 160.771523 
L 104.6475 156.955964 
L 103.95 153.181603 
L 103.2525 149.463407 
L 102.555 145.816159 
L 101.8575 142.254398 
L 101.16 138.792367 
L 100.4625 135.44395 
L 99.765 132.222619 
L 99.0675 129.141381 
L 98.37 126.212722 
L 97.6725 123.448561 
L 96.975 120.860196 
L 96.2775 118.458264 
L 95.58 116.252692 
L 94.8825 114.25266 
L 94.185 112.46656 
L 93.4875 110.901963 
L 92.79 109.565588 
L 92.0925 108.463268 
L 91.395 107.599931 
L 90.6975 106.979576 
L 90 106.605253 
z
" style="fill:#e0ffff;"/>
   </g>
   <g id="line2d_19">
    <path clip-path="url(#p4604450a40)" d="M 90 106.605253 
L 90.6975 106.979576 
L 91.395 107.599931 
L 92.0925 108.463268 
L 92.79 109.565588 
L 94.185 112.46656 
L 95.58 116.252692 
L 96.975 120.860196 
L 98.37 126.212722 
L 100.4625 135.44395 
L 102.555 145.816159 
L 106.0425 164.613192 
L 110.925 190.970023 
L 113.0175 201.176842 
L 115.11 210.206201 
L 116.505 215.417247 
L 117.9 219.888624 
L 119.295 223.554128 
L 120.69 226.360546 
L 121.3875 227.428713 
L 122.085 228.268419 
L 122.7825 228.87697 
L 123.48 229.252588 
L 124.1775 229.394417 
L 124.875 229.30252 
L 125.5725 228.977879 
L 126.27 228.422389 
L 126.9675 227.638846 
L 127.665 226.630936 
L 129.06 223.9611 
L 130.455 220.459419 
L 131.85 216.185232 
L 133.245 211.209678 
L 135.3375 202.612704 
L 137.43 192.937296 
L 140.9175 175.37351 
L 145.8 150.692205 
L 147.8925 141.114872 
L 149.985 132.628871 
L 151.38 127.722655 
L 152.775 123.504518 
L 154.17 120.036707 
L 155.565 117.369352 
L 156.2625 116.348015 
L 156.96 115.539741 
L 157.6575 114.947101 
L 158.355 114.571812 
L 159.0525 114.41473 
L 159.75 114.47585 
L 160.4475 114.754313 
L 161.145 115.248404 
L 161.8425 115.955567 
L 162.54 116.872415 
L 163.935 119.317568 
L 165.33 122.540837 
L 166.725 126.487238 
L 168.12 131.090759 
L 170.2125 139.059608 
L 172.305 148.042618 
L 175.7925 164.37628 
L 180.675 187.377234 
L 182.7675 196.319902 
L 184.86 204.255728 
L 186.255 208.851779 
L 187.65 212.810803 
L 189.045 216.074599 
L 190.44 218.596225 
L 191.1375 219.567302 
L 191.835 220.340666 
L 192.5325 220.913882 
L 193.23 221.285311 
L 193.9275 221.45411 
L 194.625 221.420236 
L 195.3225 221.184445 
L 196.02 220.748281 
L 196.7175 220.114075 
L 197.415 219.284927 
L 198.81 217.057977 
L 200.205 214.107043 
L 201.6 210.48285 
L 202.995 206.246372 
L 205.0875 198.899429 
L 207.18 190.604309 
L 209.97 178.591597 
L 215.55 154.181426 
L 217.6425 145.878504 
L 219.735 138.499581 
L 221.13 134.218981 
L 222.525 130.524901 
L 223.92 127.471403 
L 225.315 125.102146 
L 226.71 123.449767 
L 227.4075 122.89948 
L 228.105 122.53544 
L 228.8025 122.358462 
L 229.5 122.368619 
L 230.1975 122.565251 
L 230.895 122.946966 
L 231.5925 123.511647 
L 232.29 124.256466 
L 233.685 126.271722 
L 235.08 128.956436 
L 236.475 132.264045 
L 237.87 136.138523 
L 239.9625 142.869869 
L 242.055 150.481707 
L 244.845 161.519796 
L 250.425 183.992041 
L 252.5175 191.650236 
L 254.61 198.465618 
L 256.005 202.425532 
L 257.4 205.848881 
L 258.795 208.685833 
L 260.19 210.896108 
L 261.585 212.449553 
L 262.2825 212.973411 
L 262.98 213.326537 
L 263.6775 213.508159 
L 264.375 213.518185 
L 265.0725 213.357197 
L 265.77 213.026446 
L 266.4675 212.527851 
L 267.165 211.863979 
L 268.56 210.053878 
L 269.955 207.629234 
L 271.35 204.632543 
L 272.745 201.114968 
L 274.8375 194.992821 
L 276.93 188.059555 
L 279.72 177.992717 
L 285.3 157.462145 
L 287.3925 150.453555 
L 289.485 144.208263 
L 290.88 140.574217 
L 292.275 137.42734 
L 293.67 134.813148 
L 295.065 132.768438 
L 296.46 131.320781 
L 297.1575 130.826847 
L 297.855 130.488157 
L 298.5525 130.305425 
L 299.25 130.278748 
L 299.9475 130.407612 
L 300.645 130.690888 
L 301.3425 131.126847 
L 302.04 131.713164 
L 303.435 133.324675 
L 304.83 135.495436 
L 306.225 138.186921 
L 307.62 141.352739 
L 309.7125 146.872174 
L 311.805 153.131677 
L 314.595 162.230785 
L 320.8725 182.997533 
L 322.965 189.146203 
L 325.0575 194.542637 
L 326.4525 197.632125 
L 327.8475 200.261766 
L 329.2425 202.39433 
L 330.6375 204.000717 
L 332.0325 205.060342 
L 332.73 205.38108 
L 333.4275 205.56139 
L 334.125 205.601182 
L 334.8225 205.500922 
L 335.52 205.261624 
L 336.2175 204.884846 
L 337.6125 203.727745 
L 339.0075 202.052574 
L 340.4025 199.890219 
L 341.7975 197.278945 
L 343.1925 194.263727 
L 345.285 189.096291 
L 347.3775 183.328032 
L 350.865 172.956886 
L 355.05 160.532612 
L 357.1425 154.837464 
L 359.235 149.75164 
L 360.63 146.784668 
L 362.025 144.207782 
L 363.42 142.057593 
L 364.815 140.363652 
L 366.21 139.148053 
L 367.605 138.425151 
L 368.3025 138.250795 
L 369 138.201421 
L 369.6975 138.276603 
L 370.395 138.475423 
L 371.79 139.237909 
L 373.185 140.472041 
L 374.58 142.153736 
L 375.975 144.252115 
L 377.37 146.730062 
L 379.4625 151.063889 
L 381.555 155.990694 
L 384.345 163.165479 
L 390.6225 179.577966 
L 392.715 184.449209 
L 394.8075 188.73317 
L 396.2025 191.192214 
L 397.5975 193.292076 
L 398.9925 195.003803 
L 400.3875 196.304866 
L 401.7825 197.179449 
L 403.1775 197.618624 
L 404.5725 197.620415 
L 405.9675 197.189754 
L 407.3625 196.338323 
L 408.7575 195.084294 
L 410.1525 193.451969 
L 411.5475 191.471326 
L 412.9425 189.17748 
L 415.035 185.237233 
L 417.825 179.287497 
L 426.8925 159.027753 
L 428.985 155.126503 
L 431.0775 151.815713 
L 432.4725 149.989491 
L 433.8675 148.497614 
L 435.2625 147.359173 
L 436.6575 146.587445 
L 438.0525 146.189752 
L 439.4475 146.167424 
L 440.8425 146.515851 
L 442.2375 147.224639 
L 443.6325 148.277846 
L 445.0275 149.65431 
L 446.4225 151.328052 
L 448.515 154.328689 
L 450.6075 157.811371 
L 453.3975 162.974584 
L 461.07 177.597806 
L 463.1625 181.040777 
L 465.255 184.019061 
L 466.65 185.699041 
L 468.045 187.107585 
L 469.44 188.226728 
L 470.835 189.043355 
L 472.23 189.54934 
L 473.625 189.741595 
L 475.02 189.622045 
L 476.415 189.197522 
L 477.81 188.479574 
L 479.205 187.484215 
L 480.6 186.231591 
L 481.995 184.745601 
L 484.0875 182.139346 
L 486.18 179.173037 
L 489.6675 173.739734 
L 494.55 166.036224 
L 497.34 162.084258 
L 499.4325 159.519111 
L 501.525 157.386717 
L 502.92 156.237401 
L 504.315 155.322704 
L 505.71 154.652548 
L 507.105 154.232771 
L 508.5 154.065115 
L 509.895 154.147271 
L 511.29 154.472994 
L 512.685 155.03228 
L 514.08 155.811596 
L 515.475 156.794172 
L 517.5675 158.605405 
L 519.66 160.752468 
L 522.45 163.987571 
L 531.5175 174.895083 
L 533.61 176.974016 
L 535.7025 178.734243 
L 537.795 180.125137 
L 539.19 180.829018 
L 540.585 181.346002 
L 541.98 181.672643 
L 543.375 181.808655 
L 544.77 181.75684 
L 546.165 181.522967 
L 547.56 181.115606 
L 549.6525 180.204326 
L 551.745 178.975561 
L 553.8375 177.486132 
L 556.6275 175.205956 
L 566.3925 166.817945 
L 568.485 165.358197 
L 570.5775 164.129654 
L 572.67 163.164278 
L 574.7625 162.482671 
L 576.855 162.093821 
L 578.9475 161.995318 
L 581.04 162.174007 
L 583.1325 162.607037 
L 585.225 163.263252 
L 588.015 164.419317 
L 591.5025 166.170957 
L 599.8725 170.571805 
L 602.6625 171.771014 
L 605.4525 172.723602 
L 608.2425 173.39564 
L 611.0325 173.777326 
L 613.8225 173.881584 
L 616.6125 173.740952 
L 620.1 173.294422 
L 624.9825 172.369207 
L 632.655 170.890918 
L 636.84 170.338218 
L 641.025 170.030328 
L 645.9075 169.921742 
L 646.605 169.92 
L 646.605 169.92 
" style="fill:none;stroke:#008080;stroke-linecap:round;stroke-width:1.75;"/>
   </g>
   <g id="patch_3">
    <path d="M 90 270.72 
L 90 69.12 
" style="fill:none;stroke:#262626;stroke-linecap:square;stroke-linejoin:miter;stroke-width:1.25;"/>
   </g>
   <g id="patch_4">
    <path d="M 90 270.72 
L 648 270.72 
" style="fill:none;stroke:#262626;stroke-linecap:square;stroke-linejoin:miter;stroke-width:1.25;"/>
   </g>
  </g>
  <g id="axes_2">
   <g id="patch_5">
    <path d="M 90 512.64 
L 648 512.64 
L 648 311.04 
L 90 311.04 
z
" style="fill:#ffffff;"/>
   </g>
   <g id="matplotlib.axis_3">
    <g id="xtick_10">
     <g id="line2d_20">
      <g>
       <use style="fill:#262626;stroke:#262626;" x="190.44" xlink:href="#m5c72f815ca" y="512.64"/>
      </g>
     </g>
     <g id="text_19">
      <!-- 200 -->
      <g style="fill:#262626;" transform="translate(182.098594 532.797812)scale(0.1 -0.1)">
       <use xlink:href="#ArialMT-32"/>
       <use x="55.615234" xlink:href="#ArialMT-30"/>
       <use x="111.230469" xlink:href="#ArialMT-30"/>
      </g>
     </g>
    </g>
    <g id="xtick_11">
     <g id="line2d_21">
      <g>
       <use style="fill:#262626;stroke:#262626;" x="302.04" xlink:href="#m5c72f815ca" y="512.64"/>
      </g>
     </g>
     <g id="text_20">
      <!-- 400 -->
      <g style="fill:#262626;" transform="translate(293.698594 532.797812)scale(0.1 -0.1)">
       <use xlink:href="#ArialMT-34"/>
       <use x="55.615234" xlink:href="#ArialMT-30"/>
       <use x="111.230469" xlink:href="#ArialMT-30"/>
      </g>
     </g>
    </g>
    <g id="xtick_12">
     <g id="line2d_22">
      <g>
       <use style="fill:#262626;stroke:#262626;" x="413.64" xlink:href="#m5c72f815ca" y="512.64"/>
      </g>
     </g>
     <g id="text_21">
      <!-- 600 -->
      <g style="fill:#262626;" transform="translate(405.298594 532.797812)scale(0.1 -0.1)">
       <use xlink:href="#ArialMT-36"/>
       <use x="55.615234" xlink:href="#ArialMT-30"/>
       <use x="111.230469" xlink:href="#ArialMT-30"/>
      </g>
     </g>
    </g>
    <g id="xtick_13">
     <g id="line2d_23">
      <g>
       <use style="fill:#262626;stroke:#262626;" x="525.24" xlink:href="#m5c72f815ca" y="512.64"/>
      </g>
     </g>
     <g id="text_22">
      <!-- 800 -->
      <g style="fill:#262626;" transform="translate(516.898594 532.797812)scale(0.1 -0.1)">
       <use xlink:href="#ArialMT-38"/>
       <use x="55.615234" xlink:href="#ArialMT-30"/>
       <use x="111.230469" xlink:href="#ArialMT-30"/>
      </g>
     </g>
    </g>
    <g id="xtick_14">
     <g id="line2d_24">
      <g>
       <use style="fill:#262626;stroke:#262626;" x="636.84" xlink:href="#m5c72f815ca" y="512.64"/>
      </g>
     </g>
     <g id="text_23">
      <!-- 1000 -->
      <g style="fill:#262626;" transform="translate(625.718125 532.797812)scale(0.1 -0.1)">
       <use xlink:href="#ArialMT-31"/>
       <use x="55.615234" xlink:href="#ArialMT-30"/>
       <use x="111.230469" xlink:href="#ArialMT-30"/>
       <use x="166.845703" xlink:href="#ArialMT-30"/>
      </g>
     </g>
    </g>
   </g>
   <g id="matplotlib.axis_4">
    <g id="ytick_10">
     <g id="line2d_25">
      <g>
       <use style="fill:#262626;stroke:#262626;" x="90" xlink:href="#mc1464d56a4" y="512.64"/>
      </g>
     </g>
     <g id="text_24">
      <!-- 0 -->
      <g style="fill:#262626;" transform="translate(71.439063 516.218906)scale(0.1 -0.1)">
       <use xlink:href="#ArialMT-30"/>
      </g>
     </g>
    </g>
    <g id="ytick_11">
     <g id="line2d_26">
      <g>
       <use style="fill:#262626;stroke:#262626;" x="90" xlink:href="#mc1464d56a4" y="483.84"/>
      </g>
     </g>
     <g id="text_25">
      <!-- 10 -->
      <g style="fill:#262626;" transform="translate(65.878125 487.418906)scale(0.1 -0.1)">
       <use xlink:href="#ArialMT-31"/>
       <use x="55.615234" xlink:href="#ArialMT-30"/>
      </g>
     </g>
    </g>
    <g id="ytick_12">
     <g id="line2d_27">
      <g>
       <use style="fill:#262626;stroke:#262626;" x="90" xlink:href="#mc1464d56a4" y="455.04"/>
      </g>
     </g>
     <g id="text_26">
      <!-- 20 -->
      <g style="fill:#262626;" transform="translate(65.878125 458.618906)scale(0.1 -0.1)">
       <use xlink:href="#ArialMT-32"/>
       <use x="55.615234" xlink:href="#ArialMT-30"/>
      </g>
     </g>
    </g>
    <g id="ytick_13">
     <g id="line2d_28">
      <g>
       <use style="fill:#262626;stroke:#262626;" x="90" xlink:href="#mc1464d56a4" y="426.24"/>
      </g>
     </g>
     <g id="text_27">
      <!-- 30 -->
      <g style="fill:#262626;" transform="translate(65.878125 429.818906)scale(0.1 -0.1)">
       <use xlink:href="#ArialMT-33"/>
       <use x="55.615234" xlink:href="#ArialMT-30"/>
      </g>
     </g>
    </g>
    <g id="ytick_14">
     <g id="line2d_29">
      <g>
       <use style="fill:#262626;stroke:#262626;" x="90" xlink:href="#mc1464d56a4" y="397.44"/>
      </g>
     </g>
     <g id="text_28">
      <!-- 40 -->
      <g style="fill:#262626;" transform="translate(65.878125 401.018906)scale(0.1 -0.1)">
       <use xlink:href="#ArialMT-34"/>
       <use x="55.615234" xlink:href="#ArialMT-30"/>
      </g>
     </g>
    </g>
    <g id="ytick_15">
     <g id="line2d_30">
      <g>
       <use style="fill:#262626;stroke:#262626;" x="90" xlink:href="#mc1464d56a4" y="368.64"/>
      </g>
     </g>
     <g id="text_29">
      <!-- 50 -->
      <g style="fill:#262626;" transform="translate(65.878125 372.218906)scale(0.1 -0.1)">
       <use xlink:href="#ArialMT-35"/>
       <use x="55.615234" xlink:href="#ArialMT-30"/>
      </g>
     </g>
    </g>
    <g id="ytick_16">
     <g id="line2d_31">
      <g>
       <use style="fill:#262626;stroke:#262626;" x="90" xlink:href="#mc1464d56a4" y="339.84"/>
      </g>
     </g>
     <g id="text_30">
      <!-- 60 -->
      <g style="fill:#262626;" transform="translate(65.878125 343.418906)scale(0.1 -0.1)">
       <use xlink:href="#ArialMT-36"/>
       <use x="55.615234" xlink:href="#ArialMT-30"/>
      </g>
     </g>
    </g>
    <g id="ytick_17">
     <g id="line2d_32">
      <g>
       <use style="fill:#262626;stroke:#262626;" x="90" xlink:href="#mc1464d56a4" y="311.04"/>
      </g>
     </g>
     <g id="text_31">
      <!-- 70 -->
      <g style="fill:#262626;" transform="translate(65.878125 314.618906)scale(0.1 -0.1)">
       <use xlink:href="#ArialMT-37"/>
       <use x="55.615234" xlink:href="#ArialMT-30"/>
      </g>
     </g>
    </g>
   </g>
   <g id="line2d_33">
    <path clip-path="url(#p07092b91a4)" d="M 90 495.208 
L 101.16 496.246355 
L 112.32 497.676438 
L 123.48 496.773624 
L 134.64 495.319457 
L 145.8 494.970857 
L 156.96 496.496469 
L 168.12 493.948302 
L 179.28 491.922563 
L 190.44 492.701338 
L 201.6 493.08264 
L 212.76 488.265624 
L 223.92 486.884007 
L 235.08 484.919609 
L 246.24 481.076037 
L 257.4 476.781513 
L 268.56 466.885099 
L 279.72 461.735001 
L 290.88 446.632864 
L 302.04 392.641353 
L 313.2 347.842084 
L 324.36 327.210442 
" style="fill:none;stroke:#b22222;stroke-linecap:round;stroke-width:1.75;"/>
   </g>
   <g id="patch_6">
    <path d="M 90 512.64 
L 90 311.04 
" style="fill:none;stroke:#262626;stroke-linecap:square;stroke-linejoin:miter;stroke-width:1.25;"/>
   </g>
   <g id="patch_7">
    <path d="M 90 512.64 
L 648 512.64 
" style="fill:none;stroke:#262626;stroke-linecap:square;stroke-linejoin:miter;stroke-width:1.25;"/>
   </g>
   <g id="text_32">
    <!-- f = 440 -->
    <defs>
     <path d="M 8.6875 0 
L 8.6875 45.015625 
L 0.921875 45.015625 
L 0.921875 51.859375 
L 8.6875 51.859375 
L 8.6875 57.375 
Q 8.6875 62.59375 9.625 65.140625 
Q 10.890625 68.5625 14.078125 70.671875 
Q 17.28125 72.796875 23.046875 72.796875 
Q 26.765625 72.796875 31.25 71.921875 
L 29.9375 64.265625 
Q 27.203125 64.75 24.75 64.75 
Q 20.75 64.75 19.09375 63.03125 
Q 17.4375 61.328125 17.4375 56.640625 
L 17.4375 51.859375 
L 27.546875 51.859375 
L 27.546875 45.015625 
L 17.4375 45.015625 
L 17.4375 0 
z
" id="ArialMT-66"/>
     <path id="ArialMT-20"/>
     <path d="M 52.828125 42.09375 
L 5.5625 42.09375 
L 5.5625 50.296875 
L 52.828125 50.296875 
z
M 52.828125 20.359375 
L 5.5625 20.359375 
L 5.5625 28.5625 
L 52.828125 28.5625 
z
" id="ArialMT-3d"/>
    </defs>
    <g style="fill:#262626;" transform="translate(525.24 371.742188)scale(0.12 -0.12)">
     <use xlink:href="#ArialMT-66"/>
     <use x="27.783203" xlink:href="#ArialMT-20"/>
     <use x="55.566406" xlink:href="#ArialMT-3d"/>
     <use x="113.964844" xlink:href="#ArialMT-20"/>
     <use x="141.748047" xlink:href="#ArialMT-34"/>
     <use x="197.363281" xlink:href="#ArialMT-34"/>
     <use x="252.978516" xlink:href="#ArialMT-30"/>
    </g>
   </g>
   <g id="PathCollection_1">
    <defs>
     <path d="M 0 3.5 
C 0.928211 3.5 1.81853 3.131218 2.474874 2.474874 
C 3.131218 1.81853 3.5 0.928211 3.5 0 
C 3.5 -0.928211 3.131218 -1.81853 2.474874 -2.474874 
C 1.81853 -3.131218 0.928211 -3.5 0 -3.5 
C -0.928211 -3.5 -1.81853 -3.131218 -2.474874 -2.474874 
C -3.131218 -1.81853 -3.5 -0.928211 -3.5 0 
C -3.5 0.928211 -3.131218 1.81853 -2.474874 2.474874 
C -1.81853 3.131218 -0.928211 3.5 0 3.5 
z
" id="m487cd2925d" style="stroke:#800000;stroke-width:0.3;"/>
    </defs>
    <g clip-path="url(#p07092b91a4)">
     <use style="fill:#800000;stroke:#800000;stroke-width:0.3;" x="324.36" xlink:href="#m487cd2925d" y="327.210442"/>
    </g>
   </g>
  </g>
 </g>
 <defs>
  <clipPath id="p4604450a40">
   <rect height="201.6" width="558" x="90" y="69.12"/>
  </clipPath>
  <clipPath id="p07092b91a4">
   <rect height="201.6" width="558" x="90" y="311.04"/>
  </clipPath>
 </defs>
</svg>
