<?xml version="1.0" encoding="utf-8" standalone="no"?>
<!DOCTYPE svg PUBLIC "-//W3C//DTD SVG 1.1//EN"
  "http://www.w3.org/Graphics/SVG/1.1/DTD/svg11.dtd">
<!-- Created with matplotlib (http://matplotlib.org/) -->
<svg height="576pt" version="1.1" viewBox="0 0 720 576" width="720pt" xmlns="http://www.w3.org/2000/svg" xmlns:xlink="http://www.w3.org/1999/xlink">
 <defs>
  <style type="text/css">
*{stroke-linecap:butt;stroke-linejoin:round;}
  </style>
 </defs>
 <g id="figure_1">
  <g id="patch_1">
   <path d="M 0 576 
L 720 576 
L 720 0 
L 0 0 
z
" style="fill:#ffffff;"/>
  </g>
  <g id="axes_1">
   <g id="patch_2">
    <path d="M 90 270.72 
L 648 270.72 
L 648 69.12 
L 90 69.12 
z
" style="fill:#ffffff;"/>
   </g>
   <g id="matplotlib.axis_1">
    <g id="xtick_1">
     <g id="line2d_1">
      <defs>
       <path d="M 0 0 
L 0 6 
" id="m466356877b" style="stroke:#262626;"/>
      </defs>
      <g>
       <use style="fill:#262626;stroke:#262626;" x="90" xlink:href="#m466356877b" y="270.72"/>
      </g>
     </g>
     <g id="text_1">
      <!-- 0 -->
      <defs>
       <path d="M 4.15625 35.296875 
Q 4.15625 48 6.765625 55.734375 
Q 9.375 63.484375 14.515625 67.671875 
Q 19.671875 71.875 27.484375 71.875 
Q 33.25 71.875 37.59375 69.546875 
Q 41.9375 67.234375 44.765625 62.859375 
Q 47.609375 58.5 49.21875 52.21875 
Q 50.828125 45.953125 50.828125 35.296875 
Q 50.828125 22.703125 48.234375 14.96875 
Q 45.65625 7.234375 40.5 3 
Q 35.359375 -1.21875 27.484375 -1.21875 
Q 17.140625 -1.21875 11.234375 6.203125 
Q 4.15625 15.140625 4.15625 35.296875 
z
M 13.1875 35.296875 
Q 13.1875 17.671875 17.3125 11.828125 
Q 21.4375 6 27.484375 6 
Q 33.546875 6 37.671875 11.859375 
Q 41.796875 17.71875 41.796875 35.296875 
Q 41.796875 52.984375 37.671875 58.78125 
Q 33.546875 64.59375 27.390625 64.59375 
Q 21.34375 64.59375 17.71875 59.46875 
Q 13.1875 52.9375 13.1875 35.296875 
z
" id="ArialMT-30"/>
      </defs>
      <g style="fill:#262626;" transform="translate(87.219531 290.877812)scale(0.1 -0.1)">
       <use xlink:href="#ArialMT-30"/>
      </g>
     </g>
    </g>
    <g id="xtick_2">
     <g id="line2d_2">
      <g>
       <use style="fill:#262626;stroke:#262626;" x="159.75" xlink:href="#m466356877b" y="270.72"/>
      </g>
     </g>
     <g id="text_2">
      <!-- 100 -->
      <defs>
       <path d="M 37.25 0 
L 28.46875 0 
L 28.46875 56 
Q 25.296875 52.984375 20.140625 49.953125 
Q 14.984375 46.921875 10.890625 45.40625 
L 10.890625 53.90625 
Q 18.265625 57.375 23.78125 62.296875 
Q 29.296875 67.234375 31.59375 71.875 
L 37.25 71.875 
z
" id="ArialMT-31"/>
      </defs>
      <g style="fill:#262626;" transform="translate(151.408594 290.877812)scale(0.1 -0.1)">
       <use xlink:href="#ArialMT-31"/>
       <use x="55.615234" xlink:href="#ArialMT-30"/>
       <use x="111.230469" xlink:href="#ArialMT-30"/>
      </g>
     </g>
    </g>
    <g id="xtick_3">
     <g id="line2d_3">
      <g>
       <use style="fill:#262626;stroke:#262626;" x="229.5" xlink:href="#m466356877b" y="270.72"/>
      </g>
     </g>
     <g id="text_3">
      <!-- 200 -->
      <defs>
       <path d="M 50.34375 8.453125 
L 50.34375 0 
L 3.03125 0 
Q 2.9375 3.171875 4.046875 6.109375 
Q 5.859375 10.9375 9.828125 15.625 
Q 13.8125 20.3125 21.34375 26.46875 
Q 33.015625 36.03125 37.109375 41.625 
Q 41.21875 47.21875 41.21875 52.203125 
Q 41.21875 57.421875 37.46875 61 
Q 33.734375 64.59375 27.734375 64.59375 
Q 21.390625 64.59375 17.578125 60.78125 
Q 13.765625 56.984375 13.71875 50.25 
L 4.6875 51.171875 
Q 5.609375 61.28125 11.65625 66.578125 
Q 17.71875 71.875 27.9375 71.875 
Q 38.234375 71.875 44.234375 66.15625 
Q 50.25 60.453125 50.25 52 
Q 50.25 47.703125 48.484375 43.546875 
Q 46.734375 39.40625 42.65625 34.8125 
Q 38.578125 30.21875 29.109375 22.21875 
Q 21.1875 15.578125 18.9375 13.203125 
Q 16.703125 10.84375 15.234375 8.453125 
z
" id="ArialMT-32"/>
      </defs>
      <g style="fill:#262626;" transform="translate(221.158594 290.877812)scale(0.1 -0.1)">
       <use xlink:href="#ArialMT-32"/>
       <use x="55.615234" xlink:href="#ArialMT-30"/>
       <use x="111.230469" xlink:href="#ArialMT-30"/>
      </g>
     </g>
    </g>
    <g id="xtick_4">
     <g id="line2d_4">
      <g>
       <use style="fill:#262626;stroke:#262626;" x="299.25" xlink:href="#m466356877b" y="270.72"/>
      </g>
     </g>
     <g id="text_4">
      <!-- 300 -->
      <defs>
       <path d="M 4.203125 18.890625 
L 12.984375 20.0625 
Q 14.5 12.59375 18.140625 9.296875 
Q 21.78125 6 27 6 
Q 33.203125 6 37.46875 10.296875 
Q 41.75 14.59375 41.75 20.953125 
Q 41.75 27 37.796875 30.921875 
Q 33.84375 34.859375 27.734375 34.859375 
Q 25.25 34.859375 21.53125 33.890625 
L 22.515625 41.609375 
Q 23.390625 41.5 23.921875 41.5 
Q 29.546875 41.5 34.03125 44.421875 
Q 38.53125 47.359375 38.53125 53.46875 
Q 38.53125 58.296875 35.25 61.46875 
Q 31.984375 64.65625 26.8125 64.65625 
Q 21.6875 64.65625 18.265625 61.421875 
Q 14.84375 58.203125 13.875 51.765625 
L 5.078125 53.328125 
Q 6.6875 62.15625 12.390625 67.015625 
Q 18.109375 71.875 26.609375 71.875 
Q 32.46875 71.875 37.390625 69.359375 
Q 42.328125 66.84375 44.9375 62.5 
Q 47.5625 58.15625 47.5625 53.265625 
Q 47.5625 48.640625 45.0625 44.828125 
Q 42.578125 41.015625 37.703125 38.765625 
Q 44.046875 37.3125 47.5625 32.6875 
Q 51.078125 28.078125 51.078125 21.140625 
Q 51.078125 11.765625 44.234375 5.25 
Q 37.40625 -1.265625 26.953125 -1.265625 
Q 17.53125 -1.265625 11.296875 4.34375 
Q 5.078125 9.96875 4.203125 18.890625 
z
" id="ArialMT-33"/>
      </defs>
      <g style="fill:#262626;" transform="translate(290.908594 290.877812)scale(0.1 -0.1)">
       <use xlink:href="#ArialMT-33"/>
       <use x="55.615234" xlink:href="#ArialMT-30"/>
       <use x="111.230469" xlink:href="#ArialMT-30"/>
      </g>
     </g>
    </g>
    <g id="xtick_5">
     <g id="line2d_5">
      <g>
       <use style="fill:#262626;stroke:#262626;" x="369" xlink:href="#m466356877b" y="270.72"/>
      </g>
     </g>
     <g id="text_5">
      <!-- 400 -->
      <defs>
       <path d="M 32.328125 0 
L 32.328125 17.140625 
L 1.265625 17.140625 
L 1.265625 25.203125 
L 33.9375 71.578125 
L 41.109375 71.578125 
L 41.109375 25.203125 
L 50.78125 25.203125 
L 50.78125 17.140625 
L 41.109375 17.140625 
L 41.109375 0 
z
M 32.328125 25.203125 
L 32.328125 57.46875 
L 9.90625 25.203125 
z
" id="ArialMT-34"/>
      </defs>
      <g style="fill:#262626;" transform="translate(360.658594 290.877812)scale(0.1 -0.1)">
       <use xlink:href="#ArialMT-34"/>
       <use x="55.615234" xlink:href="#ArialMT-30"/>
       <use x="111.230469" xlink:href="#ArialMT-30"/>
      </g>
     </g>
    </g>
    <g id="xtick_6">
     <g id="line2d_6">
      <g>
       <use style="fill:#262626;stroke:#262626;" x="438.75" xlink:href="#m466356877b" y="270.72"/>
      </g>
     </g>
     <g id="text_6">
      <!-- 500 -->
      <defs>
       <path d="M 4.15625 18.75 
L 13.375 19.53125 
Q 14.40625 12.796875 18.140625 9.390625 
Q 21.875 6 27.15625 6 
Q 33.5 6 37.890625 10.78125 
Q 42.28125 15.578125 42.28125 23.484375 
Q 42.28125 31 38.0625 35.34375 
Q 33.84375 39.703125 27 39.703125 
Q 22.75 39.703125 19.328125 37.765625 
Q 15.921875 35.84375 13.96875 32.765625 
L 5.71875 33.84375 
L 12.640625 70.609375 
L 48.25 70.609375 
L 48.25 62.203125 
L 19.671875 62.203125 
L 15.828125 42.96875 
Q 22.265625 47.46875 29.34375 47.46875 
Q 38.71875 47.46875 45.15625 40.96875 
Q 51.609375 34.46875 51.609375 24.265625 
Q 51.609375 14.546875 45.953125 7.46875 
Q 39.0625 -1.21875 27.15625 -1.21875 
Q 17.390625 -1.21875 11.203125 4.25 
Q 5.03125 9.71875 4.15625 18.75 
z
" id="ArialMT-35"/>
      </defs>
      <g style="fill:#262626;" transform="translate(430.408594 290.877812)scale(0.1 -0.1)">
       <use xlink:href="#ArialMT-35"/>
       <use x="55.615234" xlink:href="#ArialMT-30"/>
       <use x="111.230469" xlink:href="#ArialMT-30"/>
      </g>
     </g>
    </g>
    <g id="xtick_7">
     <g id="line2d_7">
      <g>
       <use style="fill:#262626;stroke:#262626;" x="508.5" xlink:href="#m466356877b" y="270.72"/>
      </g>
     </g>
     <g id="text_7">
      <!-- 600 -->
      <defs>
       <path d="M 49.75 54.046875 
L 41.015625 53.375 
Q 39.84375 58.546875 37.703125 60.890625 
Q 34.125 64.65625 28.90625 64.65625 
Q 24.703125 64.65625 21.53125 62.3125 
Q 17.390625 59.28125 14.984375 53.46875 
Q 12.59375 47.65625 12.5 36.921875 
Q 15.671875 41.75 20.265625 44.09375 
Q 24.859375 46.4375 29.890625 46.4375 
Q 38.671875 46.4375 44.84375 39.96875 
Q 51.03125 33.5 51.03125 23.25 
Q 51.03125 16.5 48.125 10.71875 
Q 45.21875 4.9375 40.140625 1.859375 
Q 35.0625 -1.21875 28.609375 -1.21875 
Q 17.625 -1.21875 10.6875 6.859375 
Q 3.765625 14.9375 3.765625 33.5 
Q 3.765625 54.25 11.421875 63.671875 
Q 18.109375 71.875 29.4375 71.875 
Q 37.890625 71.875 43.28125 67.140625 
Q 48.6875 62.40625 49.75 54.046875 
z
M 13.875 23.1875 
Q 13.875 18.65625 15.796875 14.5 
Q 17.71875 10.359375 21.1875 8.171875 
Q 24.65625 6 28.46875 6 
Q 34.03125 6 38.03125 10.484375 
Q 42.046875 14.984375 42.046875 22.703125 
Q 42.046875 30.125 38.078125 34.390625 
Q 34.125 38.671875 28.125 38.671875 
Q 22.171875 38.671875 18.015625 34.390625 
Q 13.875 30.125 13.875 23.1875 
z
" id="ArialMT-36"/>
      </defs>
      <g style="fill:#262626;" transform="translate(500.158594 290.877812)scale(0.1 -0.1)">
       <use xlink:href="#ArialMT-36"/>
       <use x="55.615234" xlink:href="#ArialMT-30"/>
       <use x="111.230469" xlink:href="#ArialMT-30"/>
      </g>
     </g>
    </g>
    <g id="xtick_8">
     <g id="line2d_8">
      <g>
       <use style="fill:#262626;stroke:#262626;" x="578.25" xlink:href="#m466356877b" y="270.72"/>
      </g>
     </g>
     <g id="text_8">
      <!-- 700 -->
      <defs>
       <path d="M 4.734375 62.203125 
L 4.734375 70.65625 
L 51.078125 70.65625 
L 51.078125 63.8125 
Q 44.234375 56.546875 37.515625 44.484375 
Q 30.8125 32.421875 27.15625 19.671875 
Q 24.515625 10.6875 23.78125 0 
L 14.75 0 
Q 14.890625 8.453125 18.0625 20.40625 
Q 21.234375 32.375 27.171875 43.484375 
Q 33.109375 54.59375 39.796875 62.203125 
z
" id="ArialMT-37"/>
      </defs>
      <g style="fill:#262626;" transform="translate(569.908594 290.877812)scale(0.1 -0.1)">
       <use xlink:href="#ArialMT-37"/>
       <use x="55.615234" xlink:href="#ArialMT-30"/>
       <use x="111.230469" xlink:href="#ArialMT-30"/>
      </g>
     </g>
    </g>
    <g id="xtick_9">
     <g id="line2d_9">
      <g>
       <use style="fill:#262626;stroke:#262626;" x="648" xlink:href="#m466356877b" y="270.72"/>
      </g>
     </g>
     <g id="text_9">
      <!-- 800 -->
      <defs>
       <path d="M 17.671875 38.8125 
Q 12.203125 40.828125 9.5625 44.53125 
Q 6.9375 48.25 6.9375 53.421875 
Q 6.9375 61.234375 12.546875 66.546875 
Q 18.171875 71.875 27.484375 71.875 
Q 36.859375 71.875 42.578125 66.421875 
Q 48.296875 60.984375 48.296875 53.171875 
Q 48.296875 48.1875 45.671875 44.5 
Q 43.0625 40.828125 37.75 38.8125 
Q 44.34375 36.671875 47.78125 31.875 
Q 51.21875 27.09375 51.21875 20.453125 
Q 51.21875 11.28125 44.71875 5.03125 
Q 38.234375 -1.21875 27.640625 -1.21875 
Q 17.046875 -1.21875 10.546875 5.046875 
Q 4.046875 11.328125 4.046875 20.703125 
Q 4.046875 27.6875 7.59375 32.390625 
Q 11.140625 37.109375 17.671875 38.8125 
z
M 15.921875 53.71875 
Q 15.921875 48.640625 19.1875 45.40625 
Q 22.46875 42.1875 27.6875 42.1875 
Q 32.765625 42.1875 36.015625 45.375 
Q 39.265625 48.578125 39.265625 53.21875 
Q 39.265625 58.0625 35.90625 61.359375 
Q 32.5625 64.65625 27.59375 64.65625 
Q 22.5625 64.65625 19.234375 61.421875 
Q 15.921875 58.203125 15.921875 53.71875 
z
M 13.09375 20.65625 
Q 13.09375 16.890625 14.875 13.375 
Q 16.65625 9.859375 20.171875 7.921875 
Q 23.6875 6 27.734375 6 
Q 34.03125 6 38.125 10.046875 
Q 42.234375 14.109375 42.234375 20.359375 
Q 42.234375 26.703125 38.015625 30.859375 
Q 33.796875 35.015625 27.4375 35.015625 
Q 21.234375 35.015625 17.15625 30.90625 
Q 13.09375 26.8125 13.09375 20.65625 
z
" id="ArialMT-38"/>
      </defs>
      <g style="fill:#262626;" transform="translate(639.658594 290.877812)scale(0.1 -0.1)">
       <use xlink:href="#ArialMT-38"/>
       <use x="55.615234" xlink:href="#ArialMT-30"/>
       <use x="111.230469" xlink:href="#ArialMT-30"/>
      </g>
     </g>
    </g>
   </g>
   <g id="matplotlib.axis_2">
    <g id="ytick_1">
     <g id="line2d_10">
      <defs>
       <path d="M 0 0 
L -6 0 
" id="m697b5a12bb" style="stroke:#262626;"/>
      </defs>
      <g>
       <use style="fill:#262626;stroke:#262626;" x="90" xlink:href="#m697b5a12bb" y="270.72"/>
      </g>
     </g>
     <g id="text_10">
      <!-- −0.20 -->
      <defs>
       <path d="M 52.828125 31.203125 
L 5.5625 31.203125 
L 5.5625 39.40625 
L 52.828125 39.40625 
z
" id="ArialMT-2212"/>
       <path d="M 9.078125 0 
L 9.078125 10.015625 
L 19.09375 10.015625 
L 19.09375 0 
z
" id="ArialMT-2e"/>
      </defs>
      <g style="fill:#262626;" transform="translate(51.698437 274.298906)scale(0.1 -0.1)">
       <use xlink:href="#ArialMT-2212"/>
       <use x="58.398438" xlink:href="#ArialMT-30"/>
       <use x="114.013672" xlink:href="#ArialMT-2e"/>
       <use x="141.796875" xlink:href="#ArialMT-32"/>
       <use x="197.412109" xlink:href="#ArialMT-30"/>
      </g>
     </g>
    </g>
    <g id="ytick_2">
     <g id="line2d_11">
      <g>
       <use style="fill:#262626;stroke:#262626;" x="90" xlink:href="#m697b5a12bb" y="245.52"/>
      </g>
     </g>
     <g id="text_11">
      <!-- −0.15 -->
      <g style="fill:#262626;" transform="translate(51.698437 249.098906)scale(0.1 -0.1)">
       <use xlink:href="#ArialMT-2212"/>
       <use x="58.398438" xlink:href="#ArialMT-30"/>
       <use x="114.013672" xlink:href="#ArialMT-2e"/>
       <use x="141.796875" xlink:href="#ArialMT-31"/>
       <use x="197.412109" xlink:href="#ArialMT-35"/>
      </g>
     </g>
    </g>
    <g id="ytick_3">
     <g id="line2d_12">
      <g>
       <use style="fill:#262626;stroke:#262626;" x="90" xlink:href="#m697b5a12bb" y="220.32"/>
      </g>
     </g>
     <g id="text_12">
      <!-- −0.10 -->
      <g style="fill:#262626;" transform="translate(51.698437 223.898906)scale(0.1 -0.1)">
       <use xlink:href="#ArialMT-2212"/>
       <use x="58.398438" xlink:href="#ArialMT-30"/>
       <use x="114.013672" xlink:href="#ArialMT-2e"/>
       <use x="141.796875" xlink:href="#ArialMT-31"/>
       <use x="197.412109" xlink:href="#ArialMT-30"/>
      </g>
     </g>
    </g>
    <g id="ytick_4">
     <g id="line2d_13">
      <g>
       <use style="fill:#262626;stroke:#262626;" x="90" xlink:href="#m697b5a12bb" y="195.12"/>
      </g>
     </g>
     <g id="text_13">
      <!-- −0.05 -->
      <g style="fill:#262626;" transform="translate(51.698437 198.698906)scale(0.1 -0.1)">
       <use xlink:href="#ArialMT-2212"/>
       <use x="58.398438" xlink:href="#ArialMT-30"/>
       <use x="114.013672" xlink:href="#ArialMT-2e"/>
       <use x="141.796875" xlink:href="#ArialMT-30"/>
       <use x="197.412109" xlink:href="#ArialMT-35"/>
      </g>
     </g>
    </g>
    <g id="ytick_5">
     <g id="line2d_14">
      <g>
       <use style="fill:#262626;stroke:#262626;" x="90" xlink:href="#m697b5a12bb" y="169.92"/>
      </g>
     </g>
     <g id="text_14">
      <!-- 0.00 -->
      <g style="fill:#262626;" transform="translate(57.539062 173.498906)scale(0.1 -0.1)">
       <use xlink:href="#ArialMT-30"/>
       <use x="55.615234" xlink:href="#ArialMT-2e"/>
       <use x="83.398438" xlink:href="#ArialMT-30"/>
       <use x="139.013672" xlink:href="#ArialMT-30"/>
      </g>
     </g>
    </g>
    <g id="ytick_6">
     <g id="line2d_15">
      <g>
       <use style="fill:#262626;stroke:#262626;" x="90" xlink:href="#m697b5a12bb" y="144.72"/>
      </g>
     </g>
     <g id="text_15">
      <!-- 0.05 -->
      <g style="fill:#262626;" transform="translate(57.539062 148.298906)scale(0.1 -0.1)">
       <use xlink:href="#ArialMT-30"/>
       <use x="55.615234" xlink:href="#ArialMT-2e"/>
       <use x="83.398438" xlink:href="#ArialMT-30"/>
       <use x="139.013672" xlink:href="#ArialMT-35"/>
      </g>
     </g>
    </g>
    <g id="ytick_7">
     <g id="line2d_16">
      <g>
       <use style="fill:#262626;stroke:#262626;" x="90" xlink:href="#m697b5a12bb" y="119.52"/>
      </g>
     </g>
     <g id="text_16">
      <!-- 0.10 -->
      <g style="fill:#262626;" transform="translate(57.539062 123.098906)scale(0.1 -0.1)">
       <use xlink:href="#ArialMT-30"/>
       <use x="55.615234" xlink:href="#ArialMT-2e"/>
       <use x="83.398438" xlink:href="#ArialMT-31"/>
       <use x="139.013672" xlink:href="#ArialMT-30"/>
      </g>
     </g>
    </g>
    <g id="ytick_8">
     <g id="line2d_17">
      <g>
       <use style="fill:#262626;stroke:#262626;" x="90" xlink:href="#m697b5a12bb" y="94.32"/>
      </g>
     </g>
     <g id="text_17">
      <!-- 0.15 -->
      <g style="fill:#262626;" transform="translate(57.539062 97.898906)scale(0.1 -0.1)">
       <use xlink:href="#ArialMT-30"/>
       <use x="55.615234" xlink:href="#ArialMT-2e"/>
       <use x="83.398438" xlink:href="#ArialMT-31"/>
       <use x="139.013672" xlink:href="#ArialMT-35"/>
      </g>
     </g>
    </g>
    <g id="ytick_9">
     <g id="line2d_18">
      <g>
       <use style="fill:#262626;stroke:#262626;" x="90" xlink:href="#m697b5a12bb" y="69.12"/>
      </g>
     </g>
     <g id="text_18">
      <!-- 0.20 -->
      <g style="fill:#262626;" transform="translate(57.539062 72.698906)scale(0.1 -0.1)">
       <use xlink:href="#ArialMT-30"/>
       <use x="55.615234" xlink:href="#ArialMT-2e"/>
       <use x="83.398438" xlink:href="#ArialMT-32"/>
       <use x="139.013672" xlink:href="#ArialMT-30"/>
      </g>
     </g>
    </g>
   </g>
   <g id="PolyCollection_1">
    <path clip-path="url(#p2e3952341c)" d="M 90 169.92601 
L 90 169.92 
L 90.6975 169.92 
L 91.395 169.92 
L 92.0925 169.92 
L 92.79 169.92 
L 93.4875 169.92 
L 94.185 169.92 
L 94.8825 169.92 
L 95.58 169.92 
L 96.2775 169.92 
L 96.975 169.92 
L 97.6725 169.92 
L 98.37 169.92 
L 99.0675 169.92 
L 99.765 169.92 
L 100.4625 169.92 
L 101.16 169.92 
L 101.8575 169.92 
L 102.555 169.92 
L 103.2525 169.92 
L 103.95 169.92 
L 104.6475 169.92 
L 105.345 169.92 
L 106.0425 169.92 
L 106.74 169.92 
L 107.4375 169.92 
L 108.135 169.92 
L 108.8325 169.92 
L 109.53 169.92 
L 110.2275 169.92 
L 110.925 169.92 
L 111.6225 169.92 
L 112.32 169.92 
L 113.0175 169.92 
L 113.715 169.92 
L 114.4125 169.92 
L 115.11 169.92 
L 115.8075 169.92 
L 116.505 169.92 
L 117.2025 169.92 
L 117.9 169.92 
L 118.5975 169.92 
L 119.295 169.92 
L 119.9925 169.92 
L 120.69 169.92 
L 121.3875 169.92 
L 122.085 169.92 
L 122.7825 169.92 
L 123.48 169.92 
L 124.1775 169.92 
L 124.875 169.92 
L 125.5725 169.92 
L 126.27 169.92 
L 126.9675 169.92 
L 127.665 169.92 
L 128.3625 169.92 
L 129.06 169.92 
L 129.7575 169.92 
L 130.455 169.92 
L 131.1525 169.92 
L 131.85 169.92 
L 132.5475 169.92 
L 133.245 169.92 
L 133.9425 169.92 
L 134.64 169.92 
L 135.3375 169.92 
L 136.035 169.92 
L 136.7325 169.92 
L 137.43 169.92 
L 138.1275 169.92 
L 138.825 169.92 
L 139.5225 169.92 
L 140.22 169.92 
L 140.9175 169.92 
L 141.615 169.92 
L 142.3125 169.92 
L 143.01 169.92 
L 143.7075 169.92 
L 144.405 169.92 
L 145.1025 169.92 
L 145.8 169.92 
L 146.4975 169.92 
L 147.195 169.92 
L 147.8925 169.92 
L 148.59 169.92 
L 149.2875 169.92 
L 149.985 169.92 
L 150.6825 169.92 
L 151.38 169.92 
L 152.0775 169.92 
L 152.775 169.92 
L 153.4725 169.92 
L 154.17 169.92 
L 154.8675 169.92 
L 155.565 169.92 
L 156.2625 169.92 
L 156.96 169.92 
L 157.6575 169.92 
L 158.355 169.92 
L 159.0525 169.92 
L 159.75 169.92 
L 160.4475 169.92 
L 161.145 169.92 
L 161.8425 169.92 
L 162.54 169.92 
L 163.2375 169.92 
L 163.935 169.92 
L 164.6325 169.92 
L 165.33 169.92 
L 166.0275 169.92 
L 166.725 169.92 
L 167.4225 169.92 
L 168.12 169.92 
L 168.8175 169.92 
L 169.515 169.92 
L 170.2125 169.92 
L 170.91 169.92 
L 171.6075 169.92 
L 172.305 169.92 
L 173.0025 169.92 
L 173.7 169.92 
L 174.3975 169.92 
L 175.095 169.92 
L 175.7925 169.92 
L 176.49 169.92 
L 177.1875 169.92 
L 177.885 169.92 
L 178.5825 169.92 
L 179.28 169.92 
L 179.9775 169.92 
L 180.675 169.92 
L 181.3725 169.92 
L 182.07 169.92 
L 182.7675 169.92 
L 183.465 169.92 
L 184.1625 169.92 
L 184.86 169.92 
L 185.5575 169.92 
L 186.255 169.92 
L 186.9525 169.92 
L 187.65 169.92 
L 188.3475 169.92 
L 189.045 169.92 
L 189.7425 169.92 
L 190.44 169.92 
L 191.1375 169.92 
L 191.835 169.92 
L 192.5325 169.92 
L 193.23 169.92 
L 193.9275 169.92 
L 194.625 169.92 
L 195.3225 169.92 
L 196.02 169.92 
L 196.7175 169.92 
L 197.415 169.92 
L 198.1125 169.92 
L 198.81 169.92 
L 199.5075 169.92 
L 200.205 169.92 
L 200.9025 169.92 
L 201.6 169.92 
L 202.2975 169.92 
L 202.995 169.92 
L 203.6925 169.92 
L 204.39 169.92 
L 205.0875 169.92 
L 205.785 169.92 
L 206.4825 169.92 
L 207.18 169.92 
L 207.8775 169.92 
L 208.575 169.92 
L 209.2725 169.92 
L 209.97 169.92 
L 210.6675 169.92 
L 211.365 169.92 
L 212.0625 169.92 
L 212.76 169.92 
L 213.4575 169.92 
L 214.155 169.92 
L 214.8525 169.92 
L 215.55 169.92 
L 216.2475 169.92 
L 216.945 169.92 
L 217.6425 169.92 
L 218.34 169.92 
L 219.0375 169.92 
L 219.735 169.92 
L 220.4325 169.92 
L 221.13 169.92 
L 221.8275 169.92 
L 222.525 169.92 
L 223.2225 169.92 
L 223.92 169.92 
L 224.6175 169.92 
L 225.315 169.92 
L 226.0125 169.92 
L 226.71 169.92 
L 227.4075 169.92 
L 228.105 169.92 
L 228.8025 169.92 
L 229.5 169.92 
L 230.1975 169.92 
L 230.895 169.92 
L 231.5925 169.92 
L 232.29 169.92 
L 232.9875 169.92 
L 233.685 169.92 
L 234.3825 169.92 
L 235.08 169.92 
L 235.7775 169.92 
L 236.475 169.92 
L 237.1725 169.92 
L 237.87 169.92 
L 238.5675 169.92 
L 239.265 169.92 
L 239.9625 169.92 
L 240.66 169.92 
L 241.3575 169.92 
L 242.055 169.92 
L 242.7525 169.92 
L 243.45 169.92 
L 244.1475 169.92 
L 244.845 169.92 
L 245.5425 169.92 
L 246.24 169.92 
L 246.9375 169.92 
L 247.635 169.92 
L 248.3325 169.92 
L 249.03 169.92 
L 249.7275 169.92 
L 250.425 169.92 
L 251.1225 169.92 
L 251.82 169.92 
L 252.5175 169.92 
L 253.215 169.92 
L 253.9125 169.92 
L 254.61 169.92 
L 255.3075 169.92 
L 256.005 169.92 
L 256.7025 169.92 
L 257.4 169.92 
L 258.0975 169.92 
L 258.795 169.92 
L 259.4925 169.92 
L 260.19 169.92 
L 260.8875 169.92 
L 261.585 169.92 
L 262.2825 169.92 
L 262.98 169.92 
L 263.6775 169.92 
L 264.375 169.92 
L 265.0725 169.92 
L 265.77 169.92 
L 266.4675 169.92 
L 267.165 169.92 
L 267.8625 169.92 
L 268.56 169.92 
L 269.2575 169.92 
L 269.955 169.92 
L 270.6525 169.92 
L 271.35 169.92 
L 272.0475 169.92 
L 272.745 169.92 
L 273.4425 169.92 
L 274.14 169.92 
L 274.8375 169.92 
L 275.535 169.92 
L 276.2325 169.92 
L 276.93 169.92 
L 277.6275 169.92 
L 278.325 169.92 
L 279.0225 169.92 
L 279.72 169.92 
L 280.4175 169.92 
L 281.115 169.92 
L 281.8125 169.92 
L 282.51 169.92 
L 283.2075 169.92 
L 283.905 169.92 
L 284.6025 169.92 
L 285.3 169.92 
L 285.9975 169.92 
L 286.695 169.92 
L 287.3925 169.92 
L 288.09 169.92 
L 288.7875 169.92 
L 289.485 169.92 
L 290.1825 169.92 
L 290.88 169.92 
L 291.5775 169.92 
L 292.275 169.92 
L 292.9725 169.92 
L 293.67 169.92 
L 294.3675 169.92 
L 295.065 169.92 
L 295.7625 169.92 
L 296.46 169.92 
L 297.1575 169.92 
L 297.855 169.92 
L 298.5525 169.92 
L 299.25 169.92 
L 299.9475 169.92 
L 300.645 169.92 
L 301.3425 169.92 
L 302.04 169.92 
L 302.7375 169.92 
L 303.435 169.92 
L 304.1325 169.92 
L 304.83 169.92 
L 305.5275 169.92 
L 306.225 169.92 
L 306.9225 169.92 
L 307.62 169.92 
L 308.3175 169.92 
L 309.015 169.92 
L 309.7125 169.92 
L 310.41 169.92 
L 311.1075 169.92 
L 311.805 169.92 
L 312.5025 169.92 
L 313.2 169.92 
L 313.8975 169.92 
L 314.595 169.92 
L 315.2925 169.92 
L 315.99 169.92 
L 316.6875 169.92 
L 317.385 169.92 
L 318.0825 169.92 
L 318.78 169.92 
L 319.4775 169.92 
L 320.175 169.92 
L 320.8725 169.92 
L 321.57 169.92 
L 322.2675 169.92 
L 322.965 169.92 
L 323.6625 169.92 
L 324.36 169.92 
L 325.0575 169.92 
L 325.755 169.92 
L 326.4525 169.92 
L 327.15 169.92 
L 327.8475 169.92 
L 328.545 169.92 
L 329.2425 169.92 
L 329.94 169.92 
L 330.6375 169.92 
L 331.335 169.92 
L 332.0325 169.92 
L 332.73 169.92 
L 333.4275 169.92 
L 334.125 169.92 
L 334.8225 169.92 
L 335.52 169.92 
L 336.2175 169.92 
L 336.915 169.92 
L 337.6125 169.92 
L 338.31 169.92 
L 339.0075 169.92 
L 339.705 169.92 
L 340.4025 169.92 
L 341.1 169.92 
L 341.7975 169.92 
L 342.495 169.92 
L 343.1925 169.92 
L 343.89 169.92 
L 344.5875 169.92 
L 345.285 169.92 
L 345.9825 169.92 
L 346.68 169.92 
L 347.3775 169.92 
L 348.075 169.92 
L 348.7725 169.92 
L 349.47 169.92 
L 350.1675 169.92 
L 350.865 169.92 
L 351.5625 169.92 
L 352.26 169.92 
L 352.9575 169.92 
L 353.655 169.92 
L 354.3525 169.92 
L 355.05 169.92 
L 355.7475 169.92 
L 356.445 169.92 
L 357.1425 169.92 
L 357.84 169.92 
L 358.5375 169.92 
L 359.235 169.92 
L 359.9325 169.92 
L 360.63 169.92 
L 361.3275 169.92 
L 362.025 169.92 
L 362.7225 169.92 
L 363.42 169.92 
L 364.1175 169.92 
L 364.815 169.92 
L 365.5125 169.92 
L 366.21 169.92 
L 366.9075 169.92 
L 367.605 169.92 
L 368.3025 169.92 
L 369 169.92 
L 369.6975 169.92 
L 370.395 169.92 
L 371.0925 169.92 
L 371.79 169.92 
L 372.4875 169.92 
L 373.185 169.92 
L 373.8825 169.92 
L 374.58 169.92 
L 375.2775 169.92 
L 375.975 169.92 
L 376.6725 169.92 
L 377.37 169.92 
L 378.0675 169.92 
L 378.765 169.92 
L 379.4625 169.92 
L 380.16 169.92 
L 380.8575 169.92 
L 381.555 169.92 
L 382.2525 169.92 
L 382.95 169.92 
L 383.6475 169.92 
L 384.345 169.92 
L 385.0425 169.92 
L 385.74 169.92 
L 386.4375 169.92 
L 387.135 169.92 
L 387.8325 169.92 
L 388.53 169.92 
L 389.2275 169.92 
L 389.925 169.92 
L 390.6225 169.92 
L 391.32 169.92 
L 392.0175 169.92 
L 392.715 169.92 
L 393.4125 169.92 
L 394.11 169.92 
L 394.8075 169.92 
L 395.505 169.92 
L 396.2025 169.92 
L 396.9 169.92 
L 397.5975 169.92 
L 398.295 169.92 
L 398.9925 169.92 
L 399.69 169.92 
L 400.3875 169.92 
L 401.085 169.92 
L 401.7825 169.92 
L 402.48 169.92 
L 403.1775 169.92 
L 403.875 169.92 
L 404.5725 169.92 
L 405.27 169.92 
L 405.9675 169.92 
L 406.665 169.92 
L 407.3625 169.92 
L 408.06 169.92 
L 408.7575 169.92 
L 409.455 169.92 
L 410.1525 169.92 
L 410.85 169.92 
L 411.5475 169.92 
L 412.245 169.92 
L 412.9425 169.92 
L 413.64 169.92 
L 414.3375 169.92 
L 415.035 169.92 
L 415.7325 169.92 
L 416.43 169.92 
L 417.1275 169.92 
L 417.825 169.92 
L 418.5225 169.92 
L 419.22 169.92 
L 419.9175 169.92 
L 420.615 169.92 
L 421.3125 169.92 
L 422.01 169.92 
L 422.7075 169.92 
L 423.405 169.92 
L 424.1025 169.92 
L 424.8 169.92 
L 425.4975 169.92 
L 426.195 169.92 
L 426.8925 169.92 
L 427.59 169.92 
L 428.2875 169.92 
L 428.985 169.92 
L 429.6825 169.92 
L 430.38 169.92 
L 431.0775 169.92 
L 431.775 169.92 
L 432.4725 169.92 
L 433.17 169.92 
L 433.8675 169.92 
L 434.565 169.92 
L 435.2625 169.92 
L 435.96 169.92 
L 436.6575 169.92 
L 437.355 169.92 
L 438.0525 169.92 
L 438.75 169.92 
L 439.4475 169.92 
L 440.145 169.92 
L 440.8425 169.92 
L 441.54 169.92 
L 442.2375 169.92 
L 442.935 169.92 
L 443.6325 169.92 
L 444.33 169.92 
L 445.0275 169.92 
L 445.725 169.92 
L 446.4225 169.92 
L 447.12 169.92 
L 447.8175 169.92 
L 448.515 169.92 
L 449.2125 169.92 
L 449.91 169.92 
L 450.6075 169.92 
L 451.305 169.92 
L 452.0025 169.92 
L 452.7 169.92 
L 453.3975 169.92 
L 454.095 169.92 
L 454.7925 169.92 
L 455.49 169.92 
L 456.1875 169.92 
L 456.885 169.92 
L 457.5825 169.92 
L 458.28 169.92 
L 458.9775 169.92 
L 459.675 169.92 
L 460.3725 169.92 
L 461.07 169.92 
L 461.7675 169.92 
L 462.465 169.92 
L 463.1625 169.92 
L 463.86 169.92 
L 464.5575 169.92 
L 465.255 169.92 
L 465.9525 169.92 
L 466.65 169.92 
L 467.3475 169.92 
L 468.045 169.92 
L 468.7425 169.92 
L 469.44 169.92 
L 470.1375 169.92 
L 470.835 169.92 
L 471.5325 169.92 
L 472.23 169.92 
L 472.9275 169.92 
L 473.625 169.92 
L 474.3225 169.92 
L 475.02 169.92 
L 475.7175 169.92 
L 476.415 169.92 
L 477.1125 169.92 
L 477.81 169.92 
L 478.5075 169.92 
L 479.205 169.92 
L 479.9025 169.92 
L 480.6 169.92 
L 481.2975 169.92 
L 481.995 169.92 
L 482.6925 169.92 
L 483.39 169.92 
L 484.0875 169.92 
L 484.785 169.92 
L 485.4825 169.92 
L 486.18 169.92 
L 486.8775 169.92 
L 487.575 169.92 
L 488.2725 169.92 
L 488.97 169.92 
L 489.6675 169.92 
L 490.365 169.92 
L 491.0625 169.92 
L 491.76 169.92 
L 492.4575 169.92 
L 493.155 169.92 
L 493.8525 169.92 
L 494.55 169.92 
L 495.2475 169.92 
L 495.945 169.92 
L 496.6425 169.92 
L 497.34 169.92 
L 498.0375 169.92 
L 498.735 169.92 
L 499.4325 169.92 
L 500.13 169.92 
L 500.8275 169.92 
L 501.525 169.92 
L 502.2225 169.92 
L 502.92 169.92 
L 503.6175 169.92 
L 504.315 169.92 
L 505.0125 169.92 
L 505.71 169.92 
L 506.4075 169.92 
L 507.105 169.92 
L 507.8025 169.92 
L 508.5 169.92 
L 509.1975 169.92 
L 509.895 169.92 
L 510.5925 169.92 
L 511.29 169.92 
L 511.9875 169.92 
L 512.685 169.92 
L 513.3825 169.92 
L 514.08 169.92 
L 514.7775 169.92 
L 515.475 169.92 
L 516.1725 169.92 
L 516.87 169.92 
L 517.5675 169.92 
L 518.265 169.92 
L 518.9625 169.92 
L 519.66 169.92 
L 520.3575 169.92 
L 521.055 169.92 
L 521.7525 169.92 
L 522.45 169.92 
L 523.1475 169.92 
L 523.845 169.92 
L 524.5425 169.92 
L 525.24 169.92 
L 525.9375 169.92 
L 526.635 169.92 
L 527.3325 169.92 
L 528.03 169.92 
L 528.7275 169.92 
L 529.425 169.92 
L 530.1225 169.92 
L 530.82 169.92 
L 531.5175 169.92 
L 532.215 169.92 
L 532.9125 169.92 
L 533.61 169.92 
L 534.3075 169.92 
L 535.005 169.92 
L 535.7025 169.92 
L 536.4 169.92 
L 537.0975 169.92 
L 537.795 169.92 
L 538.4925 169.92 
L 539.19 169.92 
L 539.8875 169.92 
L 540.585 169.92 
L 541.2825 169.92 
L 541.98 169.92 
L 542.6775 169.92 
L 543.375 169.92 
L 544.0725 169.92 
L 544.77 169.92 
L 545.4675 169.92 
L 546.165 169.92 
L 546.8625 169.92 
L 547.56 169.92 
L 548.2575 169.92 
L 548.955 169.92 
L 549.6525 169.92 
L 550.35 169.92 
L 551.0475 169.92 
L 551.745 169.92 
L 552.4425 169.92 
L 553.14 169.92 
L 553.8375 169.92 
L 554.535 169.92 
L 555.2325 169.92 
L 555.93 169.92 
L 556.6275 169.92 
L 557.325 169.92 
L 558.0225 169.92 
L 558.72 169.92 
L 559.4175 169.92 
L 560.115 169.92 
L 560.8125 169.92 
L 561.51 169.92 
L 562.2075 169.92 
L 562.905 169.92 
L 563.6025 169.92 
L 564.3 169.92 
L 564.9975 169.92 
L 565.695 169.92 
L 566.3925 169.92 
L 567.09 169.92 
L 567.7875 169.92 
L 568.485 169.92 
L 569.1825 169.92 
L 569.88 169.92 
L 570.5775 169.92 
L 571.275 169.92 
L 571.9725 169.92 
L 572.67 169.92 
L 573.3675 169.92 
L 574.065 169.92 
L 574.7625 169.92 
L 575.46 169.92 
L 576.1575 169.92 
L 576.855 169.92 
L 577.5525 169.92 
L 578.25 169.92 
L 578.9475 169.92 
L 579.645 169.92 
L 580.3425 169.92 
L 581.04 169.92 
L 581.7375 169.92 
L 582.435 169.92 
L 583.1325 169.92 
L 583.83 169.92 
L 584.5275 169.92 
L 585.225 169.92 
L 585.9225 169.92 
L 586.62 169.92 
L 587.3175 169.92 
L 588.015 169.92 
L 588.7125 169.92 
L 589.41 169.92 
L 590.1075 169.92 
L 590.805 169.92 
L 591.5025 169.92 
L 592.2 169.92 
L 592.8975 169.92 
L 593.595 169.92 
L 594.2925 169.92 
L 594.99 169.92 
L 595.6875 169.92 
L 596.385 169.92 
L 597.0825 169.92 
L 597.78 169.92 
L 598.4775 169.92 
L 599.175 169.92 
L 599.8725 169.92 
L 600.57 169.92 
L 601.2675 169.92 
L 601.965 169.92 
L 602.6625 169.92 
L 603.36 169.92 
L 604.0575 169.92 
L 604.755 169.92 
L 605.4525 169.92 
L 606.15 169.92 
L 606.8475 169.92 
L 607.545 169.92 
L 608.2425 169.92 
L 608.94 169.92 
L 609.6375 169.92 
L 610.335 169.92 
L 611.0325 169.92 
L 611.73 169.92 
L 612.4275 169.92 
L 613.125 169.92 
L 613.8225 169.92 
L 614.52 169.92 
L 615.2175 169.92 
L 615.915 169.92 
L 616.6125 169.92 
L 617.31 169.92 
L 618.0075 169.92 
L 618.705 169.92 
L 619.4025 169.92 
L 620.1 169.92 
L 620.7975 169.92 
L 621.495 169.92 
L 622.1925 169.92 
L 622.89 169.92 
L 623.5875 169.92 
L 624.285 169.92 
L 624.9825 169.92 
L 625.68 169.92 
L 626.3775 169.92 
L 627.075 169.92 
L 627.7725 169.92 
L 628.47 169.92 
L 629.1675 169.92 
L 629.865 169.92 
L 630.5625 169.92 
L 631.26 169.92 
L 631.9575 169.92 
L 632.655 169.92 
L 633.3525 169.92 
L 634.05 169.92 
L 634.7475 169.92 
L 635.445 169.92 
L 636.1425 169.92 
L 636.84 169.92 
L 637.5375 169.92 
L 638.235 169.92 
L 638.9325 169.92 
L 639.63 169.92 
L 640.3275 169.92 
L 641.025 169.92 
L 641.7225 169.92 
L 642.42 169.92 
L 643.1175 169.92 
L 643.815 169.92 
L 644.5125 169.92 
L 645.21 169.92 
L 645.9075 169.92 
L 646.605 169.92 
L 646.605 169.92 
L 646.605 169.92 
L 645.9075 169.922611 
L 645.21 169.928723 
L 644.5125 169.939177 
L 643.815 169.954762 
L 643.1175 169.976199 
L 642.42 170.004135 
L 641.7225 170.039128 
L 641.025 170.081649 
L 640.3275 170.132063 
L 639.63 170.190632 
L 638.9325 170.257506 
L 638.235 170.332718 
L 637.5375 170.416186 
L 636.84 170.507705 
L 636.1425 170.606952 
L 635.445 170.713484 
L 634.7475 170.826742 
L 634.05 170.946053 
L 633.3525 171.070635 
L 632.655 171.199604 
L 631.9575 171.331979 
L 631.26 171.466693 
L 630.5625 171.602597 
L 629.865 171.738475 
L 629.1675 171.873055 
L 628.47 172.005014 
L 627.7725 172.132997 
L 627.075 172.255629 
L 626.3775 172.371524 
L 625.68 172.479301 
L 624.9825 172.577599 
L 624.285 172.665088 
L 623.5875 172.740485 
L 622.89 172.802563 
L 622.1925 172.850172 
L 621.495 172.882242 
L 620.7975 172.897802 
L 620.1 172.895988 
L 619.4025 172.876056 
L 618.705 172.837389 
L 618.0075 172.779504 
L 617.31 172.702067 
L 616.6125 172.60489 
L 615.915 172.487942 
L 615.2175 172.351353 
L 614.52 172.195411 
L 613.8225 172.020569 
L 613.125 171.827442 
L 612.4275 171.616805 
L 611.73 171.389591 
L 611.0325 171.146884 
L 610.335 170.889916 
L 609.6375 170.62006 
L 608.94 170.338817 
L 608.2425 170.04781 
L 607.545 169.748773 
L 606.8475 169.443537 
L 606.15 169.134019 
L 605.4525 168.822206 
L 604.755 168.510142 
L 604.0575 168.199914 
L 603.36 167.893632 
L 602.6625 167.593417 
L 601.965 167.301382 
L 601.2675 167.019616 
L 600.57 166.75017 
L 599.8725 166.495036 
L 599.175 166.256134 
L 598.4775 166.035296 
L 597.78 165.834251 
L 597.0825 165.65461 
L 596.385 165.497852 
L 595.6875 165.365312 
L 594.99 165.258171 
L 594.2925 165.177441 
L 593.595 165.123961 
L 592.8975 165.098387 
L 592.2 165.101183 
L 591.5025 165.13262 
L 590.805 165.192771 
L 590.1075 165.281508 
L 589.41 165.398501 
L 588.7125 165.543223 
L 588.015 165.714948 
L 587.3175 165.912758 
L 586.62 166.135548 
L 585.9225 166.382032 
L 585.225 166.650755 
L 584.5275 166.940099 
L 583.83 167.248298 
L 583.1325 167.573449 
L 582.435 167.913522 
L 581.7375 168.266382 
L 581.04 168.629798 
L 580.3425 169.001463 
L 579.645 169.379008 
L 578.9475 169.760023 
L 578.25 170.14207 
L 577.5525 170.522705 
L 576.855 170.899495 
L 576.1575 171.270032 
L 575.46 171.631958 
L 574.7625 171.982974 
L 574.065 172.320864 
L 573.3675 172.643506 
L 572.67 172.948891 
L 571.9725 173.235134 
L 571.275 173.50049 
L 570.5775 173.743366 
L 569.88 173.96233 
L 569.1825 174.156125 
L 568.485 174.323672 
L 567.7875 174.464083 
L 567.09 174.576662 
L 566.3925 174.660909 
L 565.695 174.716528 
L 564.9975 174.743419 
L 564.3 174.741687 
L 563.6025 174.71163 
L 562.905 174.653745 
L 562.2075 174.568715 
L 561.51 174.457406 
L 560.8125 174.320856 
L 560.115 174.160272 
L 559.4175 173.977012 
L 558.72 173.772576 
L 558.0225 173.548595 
L 557.325 173.306814 
L 556.6275 173.049082 
L 555.93 172.777331 
L 555.2325 172.493565 
L 554.535 172.199842 
L 553.8375 171.898257 
L 553.14 171.590928 
L 552.4425 171.279976 
L 551.745 170.96751 
L 551.0475 170.655612 
L 550.35 170.346321 
L 549.6525 170.041615 
L 548.955 169.743402 
L 548.2575 169.453499 
L 547.56 169.173626 
L 546.8625 168.905391 
L 546.165 168.650277 
L 545.4675 168.409637 
L 544.77 168.184683 
L 544.0725 167.976477 
L 543.375 167.785932 
L 542.6775 167.613798 
L 541.98 167.460668 
L 541.2825 167.326969 
L 540.585 167.212969 
L 539.8875 167.118772 
L 539.19 167.044324 
L 538.4925 166.989416 
L 537.795 166.95369 
L 537.0975 166.936643 
L 536.4 166.93764 
L 535.7025 166.955915 
L 535.005 166.990589 
L 534.3075 167.040674 
L 533.61 167.105087 
L 532.9125 167.182663 
L 532.215 167.272167 
L 531.5175 167.372306 
L 530.82 167.481744 
L 530.1225 167.599113 
L 529.425 167.72303 
L 528.7275 167.852108 
L 528.03 167.984972 
L 527.3325 168.120268 
L 526.635 168.256681 
L 525.9375 168.392941 
L 525.24 168.527841 
L 524.5425 168.660242 
L 523.845 168.789085 
L 523.1475 168.913403 
L 522.45 169.032323 
L 521.7525 169.145077 
L 521.055 169.251007 
L 520.3575 169.349568 
L 519.66 169.440333 
L 518.9625 169.522994 
L 518.265 169.597363 
L 517.5675 169.663373 
L 516.87 169.721072 
L 516.1725 169.770626 
L 515.475 169.81231 
L 514.7775 169.846506 
L 514.08 169.873693 
L 513.3825 169.894445 
L 512.685 169.909418 
L 511.9875 169.919343 
L 511.29 169.925015 
L 510.5925 169.927285 
L 509.895 169.927046 
L 509.1975 169.925224 
L 508.5 169.922762 
L 507.8025 169.920615 
L 507.105 169.919731 
L 506.4075 169.921043 
L 505.71 169.925456 
L 505.0125 169.933835 
L 504.315 169.946994 
L 503.6175 169.965686 
L 502.92 169.990593 
L 502.2225 170.022315 
L 501.525 170.061362 
L 500.8275 170.10815 
L 500.13 170.162986 
L 499.4325 170.226074 
L 498.735 170.2975 
L 498.0375 170.377233 
L 497.34 170.465125 
L 496.6425 170.560907 
L 495.945 170.664191 
L 495.2475 170.774468 
L 494.55 170.891118 
L 493.8525 171.013408 
L 493.155 171.140499 
L 492.4575 171.271453 
L 491.76 171.405241 
L 491.0625 171.540751 
L 490.365 171.676796 
L 489.6675 171.812127 
L 488.97 171.945443 
L 488.2725 172.075403 
L 487.575 172.200639 
L 486.8775 172.319768 
L 486.18 172.431405 
L 485.4825 172.534179 
L 484.785 172.626744 
L 484.0875 172.707792 
L 483.39 172.776072 
L 482.6925 172.830396 
L 481.995 172.869655 
L 481.2975 172.892834 
L 480.6 172.899017 
L 479.9025 172.887405 
L 479.205 172.857321 
L 478.5075 172.808222 
L 477.81 172.739705 
L 477.1125 172.651514 
L 476.415 172.543547 
L 475.7175 172.415859 
L 475.02 172.268668 
L 474.3225 172.10235 
L 473.625 171.917448 
L 472.9275 171.714664 
L 472.23 171.494859 
L 471.5325 171.25905 
L 470.835 171.008403 
L 470.1375 170.744227 
L 469.44 170.467965 
L 468.7425 170.181188 
L 468.045 169.885579 
L 467.3475 169.582928 
L 466.65 169.275114 
L 465.9525 168.964094 
L 465.255 168.651888 
L 464.5575 168.340565 
L 463.86 168.032227 
L 463.1625 167.728991 
L 462.465 167.432977 
L 461.7675 167.146286 
L 461.07 166.87099 
L 460.3725 166.609107 
L 459.675 166.362594 
L 458.9775 166.133325 
L 458.28 165.923076 
L 457.5825 165.733514 
L 456.885 165.56618 
L 456.1875 165.422476 
L 455.49 165.303654 
L 454.7925 165.210804 
L 454.095 165.144846 
L 453.3975 165.106518 
L 452.7 165.096373 
L 452.0025 165.114771 
L 451.305 165.161874 
L 450.6075 165.237646 
L 449.91 165.341849 
L 449.2125 165.474045 
L 448.515 165.633598 
L 447.8175 165.819677 
L 447.12 166.031261 
L 446.4225 166.267145 
L 445.725 166.525951 
L 445.0275 166.806132 
L 444.33 167.105989 
L 443.6325 167.423679 
L 442.935 167.757227 
L 442.2375 168.104546 
L 441.54 168.463446 
L 440.8425 168.831652 
L 440.145 169.206821 
L 439.4475 169.58656 
L 438.75 169.96844 
L 438.0525 170.35002 
L 437.355 170.728858 
L 436.6575 171.102533 
L 435.96 171.468662 
L 435.2625 171.824917 
L 434.565 172.169043 
L 433.8675 172.498872 
L 433.17 172.812343 
L 432.4725 173.107512 
L 431.775 173.382569 
L 431.0775 173.63585 
L 430.38 173.86585 
L 429.6825 174.07123 
L 428.985 174.250829 
L 428.2875 174.403673 
L 427.59 174.528976 
L 426.8925 174.626151 
L 426.195 174.694807 
L 425.4975 174.734755 
L 424.8 174.746008 
L 424.1025 174.728776 
L 423.405 174.683467 
L 422.7075 174.610679 
L 422.01 174.511196 
L 421.3125 174.38598 
L 420.615 174.236161 
L 419.9175 174.063031 
L 419.22 173.868025 
L 418.5225 173.652718 
L 417.825 173.418805 
L 417.1275 173.168089 
L 416.43 172.902465 
L 415.7325 172.623909 
L 415.035 172.334454 
L 414.3375 172.036181 
L 413.64 171.7312 
L 412.9425 171.421632 
L 412.245 171.109593 
L 411.5475 170.797182 
L 410.85 170.486456 
L 410.1525 170.179426 
L 409.455 169.87803 
L 408.7575 169.58413 
L 408.06 169.299493 
L 407.3625 169.025776 
L 406.665 168.764522 
L 405.9675 168.517144 
L 405.27 168.284919 
L 404.5725 168.068978 
L 403.875 167.870302 
L 403.1775 167.689717 
L 402.48 167.527886 
L 401.7825 167.385312 
L 401.085 167.262335 
L 400.3875 167.159134 
L 399.69 167.075726 
L 398.9925 167.011972 
L 398.295 166.96758 
L 397.5975 166.942114 
L 396.9 166.934996 
L 396.2025 166.94552 
L 395.505 166.972856 
L 394.8075 167.016064 
L 394.11 167.074104 
L 393.4125 167.145847 
L 392.715 167.230086 
L 392.0175 167.325555 
L 391.32 167.430934 
L 390.6225 167.544868 
L 389.925 167.665981 
L 389.2275 167.792885 
L 388.53 167.924197 
L 387.8325 168.058553 
L 387.135 168.194619 
L 386.4375 168.331102 
L 385.74 168.466766 
L 385.0425 168.600439 
L 384.345 168.731025 
L 383.6475 168.857514 
L 382.95 168.978989 
L 382.2525 169.094634 
L 381.555 169.20374 
L 380.8575 169.305711 
L 380.16 169.400065 
L 379.4625 169.48644 
L 378.765 169.564594 
L 378.0675 169.634404 
L 377.37 169.695867 
L 376.6725 169.749096 
L 375.975 169.794316 
L 375.2775 169.831862 
L 374.58 169.862169 
L 373.8825 169.88577 
L 373.185 169.903284 
L 372.4875 169.915408 
L 371.79 169.922911 
L 371.0925 169.926619 
L 370.395 169.927408 
L 369.6975 169.926189 
L 369 169.923899 
L 368.3025 169.921491 
L 367.605 169.919916 
L 366.9075 169.920116 
L 366.21 169.923009 
L 365.5125 169.929481 
L 364.815 169.94037 
L 364.1175 169.956459 
L 363.42 169.978461 
L 362.7225 170.007016 
L 362.025 170.042677 
L 361.3275 170.085901 
L 360.63 170.137047 
L 359.9325 170.196367 
L 359.235 170.263999 
L 358.5375 170.339967 
L 357.84 170.424177 
L 357.1425 170.516414 
L 356.445 170.616343 
L 355.7475 170.723512 
L 355.05 170.83735 
L 354.3525 170.957174 
L 353.655 171.082193 
L 352.9575 171.211513 
L 352.26 171.344146 
L 351.5625 171.479016 
L 350.865 171.614969 
L 350.1675 171.750783 
L 349.47 171.885179 
L 348.7725 172.016833 
L 348.075 172.144388 
L 347.3775 172.266464 
L 346.68 172.381678 
L 345.9825 172.488649 
L 345.285 172.586019 
L 344.5875 172.672461 
L 343.89 172.746696 
L 343.1925 172.807506 
L 342.495 172.853745 
L 341.7975 172.884352 
L 341.1 172.898367 
L 340.4025 172.894935 
L 339.705 172.873324 
L 339.0075 172.832927 
L 338.31 172.773276 
L 337.6125 172.69405 
L 336.915 172.595074 
L 336.2175 172.476334 
L 335.52 172.33797 
L 334.8225 172.180289 
L 334.125 172.003757 
L 333.4275 171.809004 
L 332.73 171.596819 
L 332.0325 171.368149 
L 331.335 171.124093 
L 330.6375 170.865895 
L 329.94 170.594939 
L 329.2425 170.31274 
L 328.545 170.02093 
L 327.8475 169.721252 
L 327.15 169.415546 
L 326.4525 169.105736 
L 325.755 168.793815 
L 325.0575 168.481832 
L 324.36 168.171875 
L 323.6625 167.866057 
L 322.965 167.566499 
L 322.2675 167.275311 
L 321.57 166.994582 
L 320.8725 166.726355 
L 320.175 166.472618 
L 319.4775 166.235284 
L 318.78 166.016176 
L 318.0825 165.817013 
L 317.385 165.639393 
L 316.6875 165.484783 
L 315.99 165.354506 
L 315.2925 165.249726 
L 314.595 165.171442 
L 313.8975 165.120475 
L 313.2 165.097463 
L 312.5025 165.102855 
L 311.805 165.136902 
L 311.1075 165.19966 
L 310.41 165.290982 
L 309.7125 165.410522 
L 309.015 165.557731 
L 308.3175 165.731868 
L 307.62 165.931998 
L 306.9225 166.156997 
L 306.225 166.405565 
L 305.5275 166.676232 
L 304.83 166.967366 
L 304.1325 167.277187 
L 303.435 167.603779 
L 302.7375 167.945105 
L 302.04 168.299018 
L 301.3425 168.66328 
L 300.645 169.035578 
L 299.9475 169.413539 
L 299.25 169.794749 
L 298.5525 170.176768 
L 297.855 170.557154 
L 297.1575 170.933474 
L 296.46 171.303325 
L 295.7625 171.664353 
L 295.065 172.014266 
L 294.3675 172.350856 
L 293.67 172.672011 
L 292.9725 172.975732 
L 292.275 173.260146 
L 291.5775 173.523522 
L 290.88 173.76428 
L 290.1825 173.981006 
L 289.485 174.172456 
L 288.7875 174.33757 
L 288.09 174.475477 
L 287.3925 174.585497 
L 286.695 174.667151 
L 285.9975 174.720159 
L 285.3 174.744441 
L 284.6025 174.740118 
L 283.905 174.707509 
L 283.2075 174.647125 
L 282.51 174.559668 
L 281.8125 174.446018 
L 281.115 174.307232 
L 280.4175 174.144528 
L 279.72 173.959278 
L 279.0225 173.752996 
L 278.325 173.527323 
L 277.6275 173.284015 
L 276.93 173.024927 
L 276.2325 172.752 
L 275.535 172.467243 
L 274.8375 172.172718 
L 274.14 171.870524 
L 273.4425 171.562778 
L 272.745 171.251601 
L 272.0475 170.939101 
L 271.35 170.627357 
L 270.6525 170.318401 
L 269.955 170.014209 
L 269.2575 169.716677 
L 268.56 169.427617 
L 267.8625 169.148737 
L 267.165 168.881635 
L 266.4675 168.627783 
L 265.77 168.388521 
L 265.0725 168.165048 
L 264.375 167.958413 
L 263.6775 167.769512 
L 262.98 167.599084 
L 262.2825 167.447705 
L 261.585 167.315789 
L 260.8875 167.203587 
L 260.19 167.11119 
L 259.4925 167.03853 
L 258.795 166.985382 
L 258.0975 166.951377 
L 257.4 166.935999 
L 256.7025 166.9386 
L 256.005 166.958404 
L 255.3075 166.994521 
L 254.61 167.045954 
L 253.9125 167.111613 
L 253.215 167.190326 
L 252.5175 167.280851 
L 251.82 167.381891 
L 251.1225 167.492107 
L 250.425 167.610128 
L 249.7275 167.734572 
L 249.03 167.864051 
L 248.3325 167.997191 
L 247.635 168.132643 
L 246.9375 168.269093 
L 246.24 168.405279 
L 245.5425 168.539997 
L 244.845 168.672117 
L 244.1475 168.800588 
L 243.45 168.924449 
L 242.7525 169.042839 
L 242.055 169.154998 
L 241.3575 169.260279 
L 240.66 169.358147 
L 239.9625 169.448186 
L 239.265 169.530099 
L 238.5675 169.603709 
L 237.87 169.66896 
L 237.1725 169.72591 
L 236.475 169.774736 
L 235.7775 169.815722 
L 235.08 169.849259 
L 234.3825 169.875836 
L 233.685 169.896035 
L 232.9875 169.910517 
L 232.29 169.920022 
L 231.5925 169.925349 
L 230.895 169.927354 
L 230.1975 169.926932 
L 229.5 169.925012 
L 228.8025 169.92254 
L 228.105 169.920468 
L 227.4075 169.919746 
L 226.71 169.921303 
L 226.0125 169.926041 
L 225.315 169.934822 
L 224.6175 169.948454 
L 223.92 169.967684 
L 223.2225 169.993187 
L 222.525 170.025555 
L 221.8275 170.065291 
L 221.13 170.112798 
L 220.4325 170.168379 
L 219.735 170.232222 
L 219.0375 170.304406 
L 218.34 170.384889 
L 217.6425 170.473512 
L 216.945 170.569994 
L 216.2475 170.673935 
L 215.55 170.784819 
L 214.8525 170.902014 
L 214.155 171.024776 
L 213.4575 171.152259 
L 212.76 171.283514 
L 212.0625 171.417506 
L 211.365 171.553115 
L 210.6675 171.689147 
L 209.97 171.82435 
L 209.2725 171.957417 
L 208.575 172.087004 
L 207.8775 172.211743 
L 207.18 172.330247 
L 206.4825 172.441135 
L 205.785 172.543036 
L 205.0875 172.634607 
L 204.39 172.714546 
L 203.6925 172.781605 
L 202.995 172.834603 
L 202.2975 172.872441 
L 201.6 172.894111 
L 200.9025 172.898708 
L 200.205 172.885443 
L 199.5075 172.853651 
L 198.81 172.802801 
L 198.1125 172.732503 
L 197.415 172.642516 
L 196.7175 172.532751 
L 196.02 172.40328 
L 195.3225 172.254331 
L 194.625 172.086299 
L 193.9275 171.89974 
L 193.23 171.695371 
L 192.5325 171.474067 
L 191.835 171.236859 
L 191.1375 170.984925 
L 190.44 170.719589 
L 189.7425 170.442305 
L 189.045 170.154653 
L 188.3475 169.858329 
L 187.65 169.55513 
L 186.9525 169.246942 
L 186.255 168.93573 
L 185.5575 168.623518 
L 184.86 168.312379 
L 184.1625 168.004417 
L 183.465 167.701751 
L 182.7675 167.406497 
L 182.07 167.120758 
L 181.3725 166.846598 
L 180.675 166.586033 
L 179.9775 166.341011 
L 179.28 166.113399 
L 178.5825 165.904964 
L 177.885 165.717361 
L 177.1875 165.55212 
L 176.49 165.410629 
L 175.7925 165.294125 
L 175.095 165.203685 
L 174.3975 165.14021 
L 173.7 165.104424 
L 173.0025 165.096862 
L 172.305 165.117866 
L 171.6075 165.16758 
L 170.91 165.245949 
L 170.2125 165.352718 
L 169.515 165.487431 
L 168.8175 165.649432 
L 168.12 165.837875 
L 167.4225 166.05172 
L 166.725 166.289748 
L 166.0275 166.550563 
L 165.33 166.832605 
L 164.6325 167.134162 
L 163.935 167.453376 
L 163.2375 167.788265 
L 162.54 168.136729 
L 161.8425 168.49657 
L 161.145 168.865506 
L 160.4475 169.24119 
L 159.75 169.621224 
L 159.0525 170.003179 
L 158.355 170.38461 
L 157.6575 170.763078 
L 156.96 171.136165 
L 156.2625 171.501491 
L 155.565 171.856736 
L 154.8675 172.19965 
L 154.17 172.528075 
L 153.4725 172.839961 
L 152.775 173.133374 
L 152.0775 173.406518 
L 151.38 173.657743 
L 150.6825 173.885557 
L 149.985 174.088638 
L 149.2875 174.265843 
L 148.59 174.416213 
L 147.8925 174.53898 
L 147.195 174.633575 
L 146.4975 174.699626 
L 145.8 174.736962 
L 145.1025 174.745614 
L 144.405 174.72581 
L 143.7075 174.677975 
L 143.01 174.602725 
L 142.3125 174.50086 
L 141.615 174.373358 
L 140.9175 174.221365 
L 140.22 174.046184 
L 139.5225 173.849266 
L 138.825 173.632196 
L 138.1275 173.396679 
L 137.43 173.144528 
L 136.7325 172.877646 
L 136.035 172.598014 
L 135.3375 172.307671 
L 134.64 172.008701 
L 133.9425 171.703215 
L 133.245 171.393335 
L 132.5475 171.081177 
L 131.85 170.768834 
L 131.1525 170.458362 
L 130.455 170.151765 
L 129.7575 169.850975 
L 129.06 169.557846 
L 128.3625 169.274134 
L 127.665 169.001488 
L 126.9675 168.741439 
L 126.27 168.495388 
L 125.5725 168.264599 
L 124.875 168.05019 
L 124.1775 167.853127 
L 123.48 167.674221 
L 122.7825 167.514122 
L 122.085 167.373318 
L 121.3875 167.252135 
L 120.69 167.150735 
L 119.9925 167.069121 
L 119.295 167.007142 
L 118.5975 166.964491 
L 117.9 166.940718 
L 117.2025 166.935236 
L 116.505 166.947324 
L 115.8075 166.976143 
L 115.11 167.020744 
L 114.4125 167.080078 
L 113.715 167.153007 
L 113.0175 167.238321 
L 112.32 167.334745 
L 111.6225 167.440958 
L 110.925 167.555603 
L 110.2275 167.677299 
L 109.53 167.804661 
L 108.8325 167.936306 
L 108.135 168.070872 
L 107.4375 168.207028 
L 106.74 168.343487 
L 106.0425 168.479018 
L 105.345 168.612454 
L 104.6475 168.742708 
L 103.95 168.868777 
L 103.2525 168.989755 
L 102.555 169.104833 
L 101.8575 169.213313 
L 101.16 169.314609 
L 100.4625 169.408251 
L 99.765 169.493887 
L 99.0675 169.571286 
L 98.37 169.640336 
L 97.6725 169.701044 
L 96.975 169.753534 
L 96.2775 169.798041 
L 95.58 169.834909 
L 94.8825 169.864583 
L 94.185 169.887604 
L 93.4875 169.904597 
L 92.79 169.916269 
L 92.0925 169.923392 
L 91.395 169.926798 
L 90.6975 169.927366 
L 90 169.92601 
z
" style="fill:#e0ffff;"/>
   </g>
   <g id="line2d_19">
    <path clip-path="url(#p2e3952341c)" d="M 90 169.92601 
L 95.58 169.834909 
L 99.0675 169.571286 
L 102.555 169.104833 
L 107.4375 168.207028 
L 112.32 167.334745 
L 115.11 167.020744 
L 117.9 166.940718 
L 119.9925 167.069121 
L 122.085 167.373318 
L 124.1775 167.853127 
L 126.9675 168.741439 
L 130.455 170.151765 
L 137.43 173.144528 
L 140.22 174.046184 
L 142.3125 174.50086 
L 144.405 174.72581 
L 146.4975 174.699626 
L 148.59 174.416213 
L 150.6825 173.885557 
L 152.775 173.133374 
L 155.565 171.856736 
L 159.75 169.621224 
L 163.935 167.453376 
L 166.725 166.289748 
L 168.8175 165.649432 
L 170.91 165.245949 
L 173.0025 165.096862 
L 175.095 165.203685 
L 177.1875 165.55212 
L 179.28 166.113399 
L 182.07 167.120758 
L 186.255 168.93573 
L 190.44 170.719589 
L 193.23 171.695371 
L 196.02 172.40328 
L 198.1125 172.732503 
L 200.205 172.885443 
L 202.995 172.834603 
L 205.785 172.543036 
L 209.97 171.82435 
L 216.945 170.569994 
L 220.4325 170.168379 
L 223.92 169.967684 
L 228.8025 169.92254 
L 235.08 169.849259 
L 238.5675 169.603709 
L 242.055 169.154998 
L 246.9375 168.269093 
L 252.5175 167.280851 
L 255.3075 166.994521 
L 258.0975 166.951377 
L 260.19 167.11119 
L 262.2825 167.447705 
L 265.0725 168.165048 
L 267.8625 169.148737 
L 272.0475 170.939101 
L 276.93 173.024927 
L 279.72 173.959278 
L 281.8125 174.446018 
L 283.905 174.707509 
L 285.9975 174.720159 
L 288.09 174.475477 
L 290.1825 173.981006 
L 292.275 173.260146 
L 295.065 172.014266 
L 299.25 169.794749 
L 303.435 167.603779 
L 306.225 166.405565 
L 308.3175 165.731868 
L 310.41 165.290982 
L 312.5025 165.102855 
L 314.595 165.171442 
L 316.6875 165.484783 
L 318.78 166.016176 
L 321.57 166.994582 
L 325.755 168.793815 
L 330.6375 170.865895 
L 333.4275 171.809004 
L 336.2175 172.476334 
L 338.31 172.773276 
L 340.4025 172.894935 
L 343.1925 172.807506 
L 345.9825 172.488649 
L 350.1675 171.750783 
L 356.445 170.616343 
L 359.9325 170.196367 
L 363.42 169.978461 
L 368.3025 169.921491 
L 374.58 169.862169 
L 378.0675 169.634404 
L 381.555 169.20374 
L 386.4375 168.331102 
L 392.0175 167.325555 
L 394.8075 167.016064 
L 397.5975 166.942114 
L 399.69 167.075726 
L 401.7825 167.385312 
L 404.5725 168.068978 
L 407.3625 169.025776 
L 410.85 170.486456 
L 417.1275 173.168089 
L 419.9175 174.063031 
L 422.01 174.511196 
L 424.1025 174.728776 
L 426.195 174.694807 
L 428.2875 174.403673 
L 430.38 173.86585 
L 432.4725 173.107512 
L 435.2625 171.824917 
L 440.145 169.206821 
L 443.6325 167.423679 
L 446.4225 166.267145 
L 448.515 165.633598 
L 450.6075 165.237646 
L 452.7 165.096373 
L 454.7925 165.210804 
L 456.885 165.56618 
L 458.9775 166.133325 
L 461.7675 167.146286 
L 465.9525 168.964094 
L 470.1375 170.744227 
L 472.9275 171.714664 
L 475.7175 172.415859 
L 477.81 172.739705 
L 479.9025 172.887405 
L 482.6925 172.830396 
L 485.4825 172.534179 
L 489.6675 171.812127 
L 496.6425 170.560907 
L 500.13 170.162986 
L 503.6175 169.965686 
L 509.1975 169.925224 
L 514.7775 169.846506 
L 518.265 169.597363 
L 521.7525 169.145077 
L 526.635 168.256681 
L 532.215 167.272167 
L 535.005 166.990589 
L 537.795 166.95369 
L 539.8875 167.118772 
L 541.98 167.460668 
L 544.77 168.184683 
L 547.56 169.173626 
L 551.745 170.96751 
L 556.6275 173.049082 
L 559.4175 173.977012 
L 561.51 174.457406 
L 563.6025 174.71163 
L 565.695 174.716528 
L 567.7875 174.464083 
L 569.88 173.96233 
L 571.9725 173.235134 
L 574.7625 171.982974 
L 578.9475 169.760023 
L 583.1325 167.573449 
L 585.9225 166.382032 
L 588.015 165.714948 
L 590.1075 165.281508 
L 592.2 165.101183 
L 594.2925 165.177441 
L 596.385 165.497852 
L 598.4775 166.035296 
L 601.2675 167.019616 
L 605.4525 168.822206 
L 610.335 170.889916 
L 613.125 171.827442 
L 615.915 172.487942 
L 618.0075 172.779504 
L 620.1 172.895988 
L 622.89 172.802563 
L 625.68 172.479301 
L 629.865 171.738475 
L 636.1425 170.606952 
L 639.63 170.190632 
L 643.1175 169.976199 
L 646.605 169.92 
L 646.605 169.92 
" style="fill:none;stroke:#008080;stroke-linecap:round;stroke-width:1.75;"/>
   </g>
   <g id="patch_3">
    <path d="M 90 270.72 
L 90 69.12 
" style="fill:none;stroke:#262626;stroke-linecap:square;stroke-linejoin:miter;stroke-width:1.25;"/>
   </g>
   <g id="patch_4">
    <path d="M 90 270.72 
L 648 270.72 
" style="fill:none;stroke:#262626;stroke-linecap:square;stroke-linejoin:miter;stroke-width:1.25;"/>
   </g>
  </g>
  <g id="axes_2">
   <g id="patch_5">
    <path d="M 90 512.64 
L 648 512.64 
L 648 311.04 
L 90 311.04 
z
" style="fill:#ffffff;"/>
   </g>
   <g id="matplotlib.axis_3">
    <g id="xtick_10">
     <g id="line2d_20">
      <g>
       <use style="fill:#262626;stroke:#262626;" x="190.44" xlink:href="#m466356877b" y="512.64"/>
      </g>
     </g>
     <g id="text_19">
      <!-- 200 -->
      <g style="fill:#262626;" transform="translate(182.098594 532.797812)scale(0.1 -0.1)">
       <use xlink:href="#ArialMT-32"/>
       <use x="55.615234" xlink:href="#ArialMT-30"/>
       <use x="111.230469" xlink:href="#ArialMT-30"/>
      </g>
     </g>
    </g>
    <g id="xtick_11">
     <g id="line2d_21">
      <g>
       <use style="fill:#262626;stroke:#262626;" x="302.04" xlink:href="#m466356877b" y="512.64"/>
      </g>
     </g>
     <g id="text_20">
      <!-- 400 -->
      <g style="fill:#262626;" transform="translate(293.698594 532.797812)scale(0.1 -0.1)">
       <use xlink:href="#ArialMT-34"/>
       <use x="55.615234" xlink:href="#ArialMT-30"/>
       <use x="111.230469" xlink:href="#ArialMT-30"/>
      </g>
     </g>
    </g>
    <g id="xtick_12">
     <g id="line2d_22">
      <g>
       <use style="fill:#262626;stroke:#262626;" x="413.64" xlink:href="#m466356877b" y="512.64"/>
      </g>
     </g>
     <g id="text_21">
      <!-- 600 -->
      <g style="fill:#262626;" transform="translate(405.298594 532.797812)scale(0.1 -0.1)">
       <use xlink:href="#ArialMT-36"/>
       <use x="55.615234" xlink:href="#ArialMT-30"/>
       <use x="111.230469" xlink:href="#ArialMT-30"/>
      </g>
     </g>
    </g>
    <g id="xtick_13">
     <g id="line2d_23">
      <g>
       <use style="fill:#262626;stroke:#262626;" x="525.24" xlink:href="#m466356877b" y="512.64"/>
      </g>
     </g>
     <g id="text_22">
      <!-- 800 -->
      <g style="fill:#262626;" transform="translate(516.898594 532.797812)scale(0.1 -0.1)">
       <use xlink:href="#ArialMT-38"/>
       <use x="55.615234" xlink:href="#ArialMT-30"/>
       <use x="111.230469" xlink:href="#ArialMT-30"/>
      </g>
     </g>
    </g>
    <g id="xtick_14">
     <g id="line2d_24">
      <g>
       <use style="fill:#262626;stroke:#262626;" x="636.84" xlink:href="#m466356877b" y="512.64"/>
      </g>
     </g>
     <g id="text_23">
      <!-- 1000 -->
      <g style="fill:#262626;" transform="translate(625.718125 532.797812)scale(0.1 -0.1)">
       <use xlink:href="#ArialMT-31"/>
       <use x="55.615234" xlink:href="#ArialMT-30"/>
       <use x="111.230469" xlink:href="#ArialMT-30"/>
       <use x="166.845703" xlink:href="#ArialMT-30"/>
      </g>
     </g>
    </g>
   </g>
   <g id="matplotlib.axis_4">
    <g id="ytick_10">
     <g id="line2d_25">
      <g>
       <use style="fill:#262626;stroke:#262626;" x="90" xlink:href="#m697b5a12bb" y="512.64"/>
      </g>
     </g>
     <g id="text_24">
      <!-- 0 -->
      <g style="fill:#262626;" transform="translate(71.439063 516.218906)scale(0.1 -0.1)">
       <use xlink:href="#ArialMT-30"/>
      </g>
     </g>
    </g>
    <g id="ytick_11">
     <g id="line2d_26">
      <g>
       <use style="fill:#262626;stroke:#262626;" x="90" xlink:href="#m697b5a12bb" y="483.84"/>
      </g>
     </g>
     <g id="text_25">
      <!-- 10 -->
      <g style="fill:#262626;" transform="translate(65.878125 487.418906)scale(0.1 -0.1)">
       <use xlink:href="#ArialMT-31"/>
       <use x="55.615234" xlink:href="#ArialMT-30"/>
      </g>
     </g>
    </g>
    <g id="ytick_12">
     <g id="line2d_27">
      <g>
       <use style="fill:#262626;stroke:#262626;" x="90" xlink:href="#m697b5a12bb" y="455.04"/>
      </g>
     </g>
     <g id="text_26">
      <!-- 20 -->
      <g style="fill:#262626;" transform="translate(65.878125 458.618906)scale(0.1 -0.1)">
       <use xlink:href="#ArialMT-32"/>
       <use x="55.615234" xlink:href="#ArialMT-30"/>
      </g>
     </g>
    </g>
    <g id="ytick_13">
     <g id="line2d_28">
      <g>
       <use style="fill:#262626;stroke:#262626;" x="90" xlink:href="#m697b5a12bb" y="426.24"/>
      </g>
     </g>
     <g id="text_27">
      <!-- 30 -->
      <g style="fill:#262626;" transform="translate(65.878125 429.818906)scale(0.1 -0.1)">
       <use xlink:href="#ArialMT-33"/>
       <use x="55.615234" xlink:href="#ArialMT-30"/>
      </g>
     </g>
    </g>
    <g id="ytick_14">
     <g id="line2d_29">
      <g>
       <use style="fill:#262626;stroke:#262626;" x="90" xlink:href="#m697b5a12bb" y="397.44"/>
      </g>
     </g>
     <g id="text_28">
      <!-- 40 -->
      <g style="fill:#262626;" transform="translate(65.878125 401.018906)scale(0.1 -0.1)">
       <use xlink:href="#ArialMT-34"/>
       <use x="55.615234" xlink:href="#ArialMT-30"/>
      </g>
     </g>
    </g>
    <g id="ytick_15">
     <g id="line2d_30">
      <g>
       <use style="fill:#262626;stroke:#262626;" x="90" xlink:href="#m697b5a12bb" y="368.64"/>
      </g>
     </g>
     <g id="text_29">
      <!-- 50 -->
      <g style="fill:#262626;" transform="translate(65.878125 372.218906)scale(0.1 -0.1)">
       <use xlink:href="#ArialMT-35"/>
       <use x="55.615234" xlink:href="#ArialMT-30"/>
      </g>
     </g>
    </g>
    <g id="ytick_16">
     <g id="line2d_31">
      <g>
       <use style="fill:#262626;stroke:#262626;" x="90" xlink:href="#m697b5a12bb" y="339.84"/>
      </g>
     </g>
     <g id="text_30">
      <!-- 60 -->
      <g style="fill:#262626;" transform="translate(65.878125 343.418906)scale(0.1 -0.1)">
       <use xlink:href="#ArialMT-36"/>
       <use x="55.615234" xlink:href="#ArialMT-30"/>
      </g>
     </g>
    </g>
    <g id="ytick_17">
     <g id="line2d_32">
      <g>
       <use style="fill:#262626;stroke:#262626;" x="90" xlink:href="#m697b5a12bb" y="311.04"/>
      </g>
     </g>
     <g id="text_31">
      <!-- 70 -->
      <g style="fill:#262626;" transform="translate(65.878125 314.618906)scale(0.1 -0.1)">
       <use xlink:href="#ArialMT-37"/>
       <use x="55.615234" xlink:href="#ArialMT-30"/>
      </g>
     </g>
    </g>
   </g>
   <g id="line2d_33">
    <path clip-path="url(#p31ce8836e3)" d="M 90 495.208 
L 101.16 496.246355 
L 112.32 497.676438 
L 123.48 496.773624 
L 134.64 495.319457 
L 145.8 494.970857 
L 156.96 496.496469 
L 168.12 493.948302 
L 179.28 491.922563 
L 190.44 492.701338 
L 201.6 493.08264 
L 212.76 488.265624 
L 223.92 486.884007 
L 235.08 484.919609 
L 246.24 481.076037 
L 257.4 476.781513 
L 268.56 466.885099 
L 279.72 461.735001 
L 290.88 446.632864 
L 302.04 392.641353 
L 313.2 347.842084 
L 324.36 327.210442 
L 335.52 347.127932 
L 346.68 397.986588 
L 357.84 448.123679 
L 369 461.866051 
L 380.16 470.857725 
L 391.32 480.686219 
L 402.48 482.14059 
L 413.64 486.68837 
L 424.8 491.849661 
L 435.96 491.68536 
L 447.12 493.461916 
" style="fill:none;stroke:#b22222;stroke-linecap:round;stroke-width:1.75;"/>
   </g>
   <g id="patch_6">
    <path d="M 90 512.64 
L 90 311.04 
" style="fill:none;stroke:#262626;stroke-linecap:square;stroke-linejoin:miter;stroke-width:1.25;"/>
   </g>
   <g id="patch_7">
    <path d="M 90 512.64 
L 648 512.64 
" style="fill:none;stroke:#262626;stroke-linecap:square;stroke-linejoin:miter;stroke-width:1.25;"/>
   </g>
   <g id="text_32">
    <!-- f = 660 -->
    <defs>
     <path d="M 8.6875 0 
L 8.6875 45.015625 
L 0.921875 45.015625 
L 0.921875 51.859375 
L 8.6875 51.859375 
L 8.6875 57.375 
Q 8.6875 62.59375 9.625 65.140625 
Q 10.890625 68.5625 14.078125 70.671875 
Q 17.28125 72.796875 23.046875 72.796875 
Q 26.765625 72.796875 31.25 71.921875 
L 29.9375 64.265625 
Q 27.203125 64.75 24.75 64.75 
Q 20.75 64.75 19.09375 63.03125 
Q 17.4375 61.328125 17.4375 56.640625 
L 17.4375 51.859375 
L 27.546875 51.859375 
L 27.546875 45.015625 
L 17.4375 45.015625 
L 17.4375 0 
z
" id="ArialMT-66"/>
     <path id="ArialMT-20"/>
     <path d="M 52.828125 42.09375 
L 5.5625 42.09375 
L 5.5625 50.296875 
L 52.828125 50.296875 
z
M 52.828125 20.359375 
L 5.5625 20.359375 
L 5.5625 28.5625 
L 52.828125 28.5625 
z
" id="ArialMT-3d"/>
    </defs>
    <g style="fill:#262626;" transform="translate(525.24 371.742188)scale(0.12 -0.12)">
     <use xlink:href="#ArialMT-66"/>
     <use x="27.783203" xlink:href="#ArialMT-20"/>
     <use x="55.566406" xlink:href="#ArialMT-3d"/>
     <use x="113.964844" xlink:href="#ArialMT-20"/>
     <use x="141.748047" xlink:href="#ArialMT-36"/>
     <use x="197.363281" xlink:href="#ArialMT-36"/>
     <use x="252.978516" xlink:href="#ArialMT-30"/>
    </g>
   </g>
   <g id="PathCollection_1">
    <defs>
     <path d="M 0 3.5 
C 0.928211 3.5 1.81853 3.131218 2.474874 2.474874 
C 3.131218 1.81853 3.5 0.928211 3.5 0 
C 3.5 -0.928211 3.131218 -1.81853 2.474874 -2.474874 
C 1.81853 -3.131218 0.928211 -3.5 0 -3.5 
C -0.928211 -3.5 -1.81853 -3.131218 -2.474874 -2.474874 
C -3.131218 -1.81853 -3.5 -0.928211 -3.5 0 
C -3.5 0.928211 -3.131218 1.81853 -2.474874 2.474874 
C -1.81853 3.131218 -0.928211 3.5 0 3.5 
z
" id="m859e662461" style="stroke:#800000;stroke-width:0.3;"/>
    </defs>
    <g clip-path="url(#p31ce8836e3)">
     <use style="fill:#800000;stroke:#800000;stroke-width:0.3;" x="447.12" xlink:href="#m859e662461" y="493.461916"/>
    </g>
   </g>
  </g>
 </g>
 <defs>
  <clipPath id="p2e3952341c">
   <rect height="201.6" width="558" x="90" y="69.12"/>
  </clipPath>
  <clipPath id="p31ce8836e3">
   <rect height="201.6" width="558" x="90" y="311.04"/>
  </clipPath>
 </defs>
</svg>
