<?xml version="1.0" encoding="utf-8" standalone="no"?>
<!DOCTYPE svg PUBLIC "-//W3C//DTD SVG 1.1//EN"
  "http://www.w3.org/Graphics/SVG/1.1/DTD/svg11.dtd">
<!-- Created with matplotlib (http://matplotlib.org/) -->
<svg height="576pt" version="1.1" viewBox="0 0 720 576" width="720pt" xmlns="http://www.w3.org/2000/svg" xmlns:xlink="http://www.w3.org/1999/xlink">
 <defs>
  <style type="text/css">
*{stroke-linecap:butt;stroke-linejoin:round;}
  </style>
 </defs>
 <g id="figure_1">
  <g id="patch_1">
   <path d="M 0 576 
L 720 576 
L 720 0 
L 0 0 
z
" style="fill:#ffffff;"/>
  </g>
  <g id="axes_1">
   <g id="patch_2">
    <path d="M 90 270.72 
L 648 270.72 
L 648 69.12 
L 90 69.12 
z
" style="fill:#ffffff;"/>
   </g>
   <g id="matplotlib.axis_1">
    <g id="xtick_1">
     <g id="line2d_1">
      <defs>
       <path d="M 0 0 
L 0 6 
" id="mb496303e55" style="stroke:#262626;"/>
      </defs>
      <g>
       <use style="fill:#262626;stroke:#262626;" x="90" xlink:href="#mb496303e55" y="270.72"/>
      </g>
     </g>
     <g id="text_1">
      <!-- 0 -->
      <defs>
       <path d="M 4.15625 35.296875 
Q 4.15625 48 6.765625 55.734375 
Q 9.375 63.484375 14.515625 67.671875 
Q 19.671875 71.875 27.484375 71.875 
Q 33.25 71.875 37.59375 69.546875 
Q 41.9375 67.234375 44.765625 62.859375 
Q 47.609375 58.5 49.21875 52.21875 
Q 50.828125 45.953125 50.828125 35.296875 
Q 50.828125 22.703125 48.234375 14.96875 
Q 45.65625 7.234375 40.5 3 
Q 35.359375 -1.21875 27.484375 -1.21875 
Q 17.140625 -1.21875 11.234375 6.203125 
Q 4.15625 15.140625 4.15625 35.296875 
z
M 13.1875 35.296875 
Q 13.1875 17.671875 17.3125 11.828125 
Q 21.4375 6 27.484375 6 
Q 33.546875 6 37.671875 11.859375 
Q 41.796875 17.71875 41.796875 35.296875 
Q 41.796875 52.984375 37.671875 58.78125 
Q 33.546875 64.59375 27.390625 64.59375 
Q 21.34375 64.59375 17.71875 59.46875 
Q 13.1875 52.9375 13.1875 35.296875 
z
" id="ArialMT-30"/>
      </defs>
      <g style="fill:#262626;" transform="translate(87.219531 290.877812)scale(0.1 -0.1)">
       <use xlink:href="#ArialMT-30"/>
      </g>
     </g>
    </g>
    <g id="xtick_2">
     <g id="line2d_2">
      <g>
       <use style="fill:#262626;stroke:#262626;" x="159.75" xlink:href="#mb496303e55" y="270.72"/>
      </g>
     </g>
     <g id="text_2">
      <!-- 100 -->
      <defs>
       <path d="M 37.25 0 
L 28.46875 0 
L 28.46875 56 
Q 25.296875 52.984375 20.140625 49.953125 
Q 14.984375 46.921875 10.890625 45.40625 
L 10.890625 53.90625 
Q 18.265625 57.375 23.78125 62.296875 
Q 29.296875 67.234375 31.59375 71.875 
L 37.25 71.875 
z
" id="ArialMT-31"/>
      </defs>
      <g style="fill:#262626;" transform="translate(151.408594 290.877812)scale(0.1 -0.1)">
       <use xlink:href="#ArialMT-31"/>
       <use x="55.615234" xlink:href="#ArialMT-30"/>
       <use x="111.230469" xlink:href="#ArialMT-30"/>
      </g>
     </g>
    </g>
    <g id="xtick_3">
     <g id="line2d_3">
      <g>
       <use style="fill:#262626;stroke:#262626;" x="229.5" xlink:href="#mb496303e55" y="270.72"/>
      </g>
     </g>
     <g id="text_3">
      <!-- 200 -->
      <defs>
       <path d="M 50.34375 8.453125 
L 50.34375 0 
L 3.03125 0 
Q 2.9375 3.171875 4.046875 6.109375 
Q 5.859375 10.9375 9.828125 15.625 
Q 13.8125 20.3125 21.34375 26.46875 
Q 33.015625 36.03125 37.109375 41.625 
Q 41.21875 47.21875 41.21875 52.203125 
Q 41.21875 57.421875 37.46875 61 
Q 33.734375 64.59375 27.734375 64.59375 
Q 21.390625 64.59375 17.578125 60.78125 
Q 13.765625 56.984375 13.71875 50.25 
L 4.6875 51.171875 
Q 5.609375 61.28125 11.65625 66.578125 
Q 17.71875 71.875 27.9375 71.875 
Q 38.234375 71.875 44.234375 66.15625 
Q 50.25 60.453125 50.25 52 
Q 50.25 47.703125 48.484375 43.546875 
Q 46.734375 39.40625 42.65625 34.8125 
Q 38.578125 30.21875 29.109375 22.21875 
Q 21.1875 15.578125 18.9375 13.203125 
Q 16.703125 10.84375 15.234375 8.453125 
z
" id="ArialMT-32"/>
      </defs>
      <g style="fill:#262626;" transform="translate(221.158594 290.877812)scale(0.1 -0.1)">
       <use xlink:href="#ArialMT-32"/>
       <use x="55.615234" xlink:href="#ArialMT-30"/>
       <use x="111.230469" xlink:href="#ArialMT-30"/>
      </g>
     </g>
    </g>
    <g id="xtick_4">
     <g id="line2d_4">
      <g>
       <use style="fill:#262626;stroke:#262626;" x="299.25" xlink:href="#mb496303e55" y="270.72"/>
      </g>
     </g>
     <g id="text_4">
      <!-- 300 -->
      <defs>
       <path d="M 4.203125 18.890625 
L 12.984375 20.0625 
Q 14.5 12.59375 18.140625 9.296875 
Q 21.78125 6 27 6 
Q 33.203125 6 37.46875 10.296875 
Q 41.75 14.59375 41.75 20.953125 
Q 41.75 27 37.796875 30.921875 
Q 33.84375 34.859375 27.734375 34.859375 
Q 25.25 34.859375 21.53125 33.890625 
L 22.515625 41.609375 
Q 23.390625 41.5 23.921875 41.5 
Q 29.546875 41.5 34.03125 44.421875 
Q 38.53125 47.359375 38.53125 53.46875 
Q 38.53125 58.296875 35.25 61.46875 
Q 31.984375 64.65625 26.8125 64.65625 
Q 21.6875 64.65625 18.265625 61.421875 
Q 14.84375 58.203125 13.875 51.765625 
L 5.078125 53.328125 
Q 6.6875 62.15625 12.390625 67.015625 
Q 18.109375 71.875 26.609375 71.875 
Q 32.46875 71.875 37.390625 69.359375 
Q 42.328125 66.84375 44.9375 62.5 
Q 47.5625 58.15625 47.5625 53.265625 
Q 47.5625 48.640625 45.0625 44.828125 
Q 42.578125 41.015625 37.703125 38.765625 
Q 44.046875 37.3125 47.5625 32.6875 
Q 51.078125 28.078125 51.078125 21.140625 
Q 51.078125 11.765625 44.234375 5.25 
Q 37.40625 -1.265625 26.953125 -1.265625 
Q 17.53125 -1.265625 11.296875 4.34375 
Q 5.078125 9.96875 4.203125 18.890625 
z
" id="ArialMT-33"/>
      </defs>
      <g style="fill:#262626;" transform="translate(290.908594 290.877812)scale(0.1 -0.1)">
       <use xlink:href="#ArialMT-33"/>
       <use x="55.615234" xlink:href="#ArialMT-30"/>
       <use x="111.230469" xlink:href="#ArialMT-30"/>
      </g>
     </g>
    </g>
    <g id="xtick_5">
     <g id="line2d_5">
      <g>
       <use style="fill:#262626;stroke:#262626;" x="369" xlink:href="#mb496303e55" y="270.72"/>
      </g>
     </g>
     <g id="text_5">
      <!-- 400 -->
      <defs>
       <path d="M 32.328125 0 
L 32.328125 17.140625 
L 1.265625 17.140625 
L 1.265625 25.203125 
L 33.9375 71.578125 
L 41.109375 71.578125 
L 41.109375 25.203125 
L 50.78125 25.203125 
L 50.78125 17.140625 
L 41.109375 17.140625 
L 41.109375 0 
z
M 32.328125 25.203125 
L 32.328125 57.46875 
L 9.90625 25.203125 
z
" id="ArialMT-34"/>
      </defs>
      <g style="fill:#262626;" transform="translate(360.658594 290.877812)scale(0.1 -0.1)">
       <use xlink:href="#ArialMT-34"/>
       <use x="55.615234" xlink:href="#ArialMT-30"/>
       <use x="111.230469" xlink:href="#ArialMT-30"/>
      </g>
     </g>
    </g>
    <g id="xtick_6">
     <g id="line2d_6">
      <g>
       <use style="fill:#262626;stroke:#262626;" x="438.75" xlink:href="#mb496303e55" y="270.72"/>
      </g>
     </g>
     <g id="text_6">
      <!-- 500 -->
      <defs>
       <path d="M 4.15625 18.75 
L 13.375 19.53125 
Q 14.40625 12.796875 18.140625 9.390625 
Q 21.875 6 27.15625 6 
Q 33.5 6 37.890625 10.78125 
Q 42.28125 15.578125 42.28125 23.484375 
Q 42.28125 31 38.0625 35.34375 
Q 33.84375 39.703125 27 39.703125 
Q 22.75 39.703125 19.328125 37.765625 
Q 15.921875 35.84375 13.96875 32.765625 
L 5.71875 33.84375 
L 12.640625 70.609375 
L 48.25 70.609375 
L 48.25 62.203125 
L 19.671875 62.203125 
L 15.828125 42.96875 
Q 22.265625 47.46875 29.34375 47.46875 
Q 38.71875 47.46875 45.15625 40.96875 
Q 51.609375 34.46875 51.609375 24.265625 
Q 51.609375 14.546875 45.953125 7.46875 
Q 39.0625 -1.21875 27.15625 -1.21875 
Q 17.390625 -1.21875 11.203125 4.25 
Q 5.03125 9.71875 4.15625 18.75 
z
" id="ArialMT-35"/>
      </defs>
      <g style="fill:#262626;" transform="translate(430.408594 290.877812)scale(0.1 -0.1)">
       <use xlink:href="#ArialMT-35"/>
       <use x="55.615234" xlink:href="#ArialMT-30"/>
       <use x="111.230469" xlink:href="#ArialMT-30"/>
      </g>
     </g>
    </g>
    <g id="xtick_7">
     <g id="line2d_7">
      <g>
       <use style="fill:#262626;stroke:#262626;" x="508.5" xlink:href="#mb496303e55" y="270.72"/>
      </g>
     </g>
     <g id="text_7">
      <!-- 600 -->
      <defs>
       <path d="M 49.75 54.046875 
L 41.015625 53.375 
Q 39.84375 58.546875 37.703125 60.890625 
Q 34.125 64.65625 28.90625 64.65625 
Q 24.703125 64.65625 21.53125 62.3125 
Q 17.390625 59.28125 14.984375 53.46875 
Q 12.59375 47.65625 12.5 36.921875 
Q 15.671875 41.75 20.265625 44.09375 
Q 24.859375 46.4375 29.890625 46.4375 
Q 38.671875 46.4375 44.84375 39.96875 
Q 51.03125 33.5 51.03125 23.25 
Q 51.03125 16.5 48.125 10.71875 
Q 45.21875 4.9375 40.140625 1.859375 
Q 35.0625 -1.21875 28.609375 -1.21875 
Q 17.625 -1.21875 10.6875 6.859375 
Q 3.765625 14.9375 3.765625 33.5 
Q 3.765625 54.25 11.421875 63.671875 
Q 18.109375 71.875 29.4375 71.875 
Q 37.890625 71.875 43.28125 67.140625 
Q 48.6875 62.40625 49.75 54.046875 
z
M 13.875 23.1875 
Q 13.875 18.65625 15.796875 14.5 
Q 17.71875 10.359375 21.1875 8.171875 
Q 24.65625 6 28.46875 6 
Q 34.03125 6 38.03125 10.484375 
Q 42.046875 14.984375 42.046875 22.703125 
Q 42.046875 30.125 38.078125 34.390625 
Q 34.125 38.671875 28.125 38.671875 
Q 22.171875 38.671875 18.015625 34.390625 
Q 13.875 30.125 13.875 23.1875 
z
" id="ArialMT-36"/>
      </defs>
      <g style="fill:#262626;" transform="translate(500.158594 290.877812)scale(0.1 -0.1)">
       <use xlink:href="#ArialMT-36"/>
       <use x="55.615234" xlink:href="#ArialMT-30"/>
       <use x="111.230469" xlink:href="#ArialMT-30"/>
      </g>
     </g>
    </g>
    <g id="xtick_8">
     <g id="line2d_8">
      <g>
       <use style="fill:#262626;stroke:#262626;" x="578.25" xlink:href="#mb496303e55" y="270.72"/>
      </g>
     </g>
     <g id="text_8">
      <!-- 700 -->
      <defs>
       <path d="M 4.734375 62.203125 
L 4.734375 70.65625 
L 51.078125 70.65625 
L 51.078125 63.8125 
Q 44.234375 56.546875 37.515625 44.484375 
Q 30.8125 32.421875 27.15625 19.671875 
Q 24.515625 10.6875 23.78125 0 
L 14.75 0 
Q 14.890625 8.453125 18.0625 20.40625 
Q 21.234375 32.375 27.171875 43.484375 
Q 33.109375 54.59375 39.796875 62.203125 
z
" id="ArialMT-37"/>
      </defs>
      <g style="fill:#262626;" transform="translate(569.908594 290.877812)scale(0.1 -0.1)">
       <use xlink:href="#ArialMT-37"/>
       <use x="55.615234" xlink:href="#ArialMT-30"/>
       <use x="111.230469" xlink:href="#ArialMT-30"/>
      </g>
     </g>
    </g>
    <g id="xtick_9">
     <g id="line2d_9">
      <g>
       <use style="fill:#262626;stroke:#262626;" x="648" xlink:href="#mb496303e55" y="270.72"/>
      </g>
     </g>
     <g id="text_9">
      <!-- 800 -->
      <defs>
       <path d="M 17.671875 38.8125 
Q 12.203125 40.828125 9.5625 44.53125 
Q 6.9375 48.25 6.9375 53.421875 
Q 6.9375 61.234375 12.546875 66.546875 
Q 18.171875 71.875 27.484375 71.875 
Q 36.859375 71.875 42.578125 66.421875 
Q 48.296875 60.984375 48.296875 53.171875 
Q 48.296875 48.1875 45.671875 44.5 
Q 43.0625 40.828125 37.75 38.8125 
Q 44.34375 36.671875 47.78125 31.875 
Q 51.21875 27.09375 51.21875 20.453125 
Q 51.21875 11.28125 44.71875 5.03125 
Q 38.234375 -1.21875 27.640625 -1.21875 
Q 17.046875 -1.21875 10.546875 5.046875 
Q 4.046875 11.328125 4.046875 20.703125 
Q 4.046875 27.6875 7.59375 32.390625 
Q 11.140625 37.109375 17.671875 38.8125 
z
M 15.921875 53.71875 
Q 15.921875 48.640625 19.1875 45.40625 
Q 22.46875 42.1875 27.6875 42.1875 
Q 32.765625 42.1875 36.015625 45.375 
Q 39.265625 48.578125 39.265625 53.21875 
Q 39.265625 58.0625 35.90625 61.359375 
Q 32.5625 64.65625 27.59375 64.65625 
Q 22.5625 64.65625 19.234375 61.421875 
Q 15.921875 58.203125 15.921875 53.71875 
z
M 13.09375 20.65625 
Q 13.09375 16.890625 14.875 13.375 
Q 16.65625 9.859375 20.171875 7.921875 
Q 23.6875 6 27.734375 6 
Q 34.03125 6 38.125 10.046875 
Q 42.234375 14.109375 42.234375 20.359375 
Q 42.234375 26.703125 38.015625 30.859375 
Q 33.796875 35.015625 27.4375 35.015625 
Q 21.234375 35.015625 17.15625 30.90625 
Q 13.09375 26.8125 13.09375 20.65625 
z
" id="ArialMT-38"/>
      </defs>
      <g style="fill:#262626;" transform="translate(639.658594 290.877812)scale(0.1 -0.1)">
       <use xlink:href="#ArialMT-38"/>
       <use x="55.615234" xlink:href="#ArialMT-30"/>
       <use x="111.230469" xlink:href="#ArialMT-30"/>
      </g>
     </g>
    </g>
   </g>
   <g id="matplotlib.axis_2">
    <g id="ytick_1">
     <g id="line2d_10">
      <defs>
       <path d="M 0 0 
L -6 0 
" id="meee967c1d7" style="stroke:#262626;"/>
      </defs>
      <g>
       <use style="fill:#262626;stroke:#262626;" x="90" xlink:href="#meee967c1d7" y="270.72"/>
      </g>
     </g>
     <g id="text_10">
      <!-- −0.20 -->
      <defs>
       <path d="M 52.828125 31.203125 
L 5.5625 31.203125 
L 5.5625 39.40625 
L 52.828125 39.40625 
z
" id="ArialMT-2212"/>
       <path d="M 9.078125 0 
L 9.078125 10.015625 
L 19.09375 10.015625 
L 19.09375 0 
z
" id="ArialMT-2e"/>
      </defs>
      <g style="fill:#262626;" transform="translate(51.698437 274.298906)scale(0.1 -0.1)">
       <use xlink:href="#ArialMT-2212"/>
       <use x="58.398438" xlink:href="#ArialMT-30"/>
       <use x="114.013672" xlink:href="#ArialMT-2e"/>
       <use x="141.796875" xlink:href="#ArialMT-32"/>
       <use x="197.412109" xlink:href="#ArialMT-30"/>
      </g>
     </g>
    </g>
    <g id="ytick_2">
     <g id="line2d_11">
      <g>
       <use style="fill:#262626;stroke:#262626;" x="90" xlink:href="#meee967c1d7" y="245.52"/>
      </g>
     </g>
     <g id="text_11">
      <!-- −0.15 -->
      <g style="fill:#262626;" transform="translate(51.698437 249.098906)scale(0.1 -0.1)">
       <use xlink:href="#ArialMT-2212"/>
       <use x="58.398438" xlink:href="#ArialMT-30"/>
       <use x="114.013672" xlink:href="#ArialMT-2e"/>
       <use x="141.796875" xlink:href="#ArialMT-31"/>
       <use x="197.412109" xlink:href="#ArialMT-35"/>
      </g>
     </g>
    </g>
    <g id="ytick_3">
     <g id="line2d_12">
      <g>
       <use style="fill:#262626;stroke:#262626;" x="90" xlink:href="#meee967c1d7" y="220.32"/>
      </g>
     </g>
     <g id="text_12">
      <!-- −0.10 -->
      <g style="fill:#262626;" transform="translate(51.698437 223.898906)scale(0.1 -0.1)">
       <use xlink:href="#ArialMT-2212"/>
       <use x="58.398438" xlink:href="#ArialMT-30"/>
       <use x="114.013672" xlink:href="#ArialMT-2e"/>
       <use x="141.796875" xlink:href="#ArialMT-31"/>
       <use x="197.412109" xlink:href="#ArialMT-30"/>
      </g>
     </g>
    </g>
    <g id="ytick_4">
     <g id="line2d_13">
      <g>
       <use style="fill:#262626;stroke:#262626;" x="90" xlink:href="#meee967c1d7" y="195.12"/>
      </g>
     </g>
     <g id="text_13">
      <!-- −0.05 -->
      <g style="fill:#262626;" transform="translate(51.698437 198.698906)scale(0.1 -0.1)">
       <use xlink:href="#ArialMT-2212"/>
       <use x="58.398438" xlink:href="#ArialMT-30"/>
       <use x="114.013672" xlink:href="#ArialMT-2e"/>
       <use x="141.796875" xlink:href="#ArialMT-30"/>
       <use x="197.412109" xlink:href="#ArialMT-35"/>
      </g>
     </g>
    </g>
    <g id="ytick_5">
     <g id="line2d_14">
      <g>
       <use style="fill:#262626;stroke:#262626;" x="90" xlink:href="#meee967c1d7" y="169.92"/>
      </g>
     </g>
     <g id="text_14">
      <!-- 0.00 -->
      <g style="fill:#262626;" transform="translate(57.539062 173.498906)scale(0.1 -0.1)">
       <use xlink:href="#ArialMT-30"/>
       <use x="55.615234" xlink:href="#ArialMT-2e"/>
       <use x="83.398438" xlink:href="#ArialMT-30"/>
       <use x="139.013672" xlink:href="#ArialMT-30"/>
      </g>
     </g>
    </g>
    <g id="ytick_6">
     <g id="line2d_15">
      <g>
       <use style="fill:#262626;stroke:#262626;" x="90" xlink:href="#meee967c1d7" y="144.72"/>
      </g>
     </g>
     <g id="text_15">
      <!-- 0.05 -->
      <g style="fill:#262626;" transform="translate(57.539062 148.298906)scale(0.1 -0.1)">
       <use xlink:href="#ArialMT-30"/>
       <use x="55.615234" xlink:href="#ArialMT-2e"/>
       <use x="83.398438" xlink:href="#ArialMT-30"/>
       <use x="139.013672" xlink:href="#ArialMT-35"/>
      </g>
     </g>
    </g>
    <g id="ytick_7">
     <g id="line2d_16">
      <g>
       <use style="fill:#262626;stroke:#262626;" x="90" xlink:href="#meee967c1d7" y="119.52"/>
      </g>
     </g>
     <g id="text_16">
      <!-- 0.10 -->
      <g style="fill:#262626;" transform="translate(57.539062 123.098906)scale(0.1 -0.1)">
       <use xlink:href="#ArialMT-30"/>
       <use x="55.615234" xlink:href="#ArialMT-2e"/>
       <use x="83.398438" xlink:href="#ArialMT-31"/>
       <use x="139.013672" xlink:href="#ArialMT-30"/>
      </g>
     </g>
    </g>
    <g id="ytick_8">
     <g id="line2d_17">
      <g>
       <use style="fill:#262626;stroke:#262626;" x="90" xlink:href="#meee967c1d7" y="94.32"/>
      </g>
     </g>
     <g id="text_17">
      <!-- 0.15 -->
      <g style="fill:#262626;" transform="translate(57.539062 97.898906)scale(0.1 -0.1)">
       <use xlink:href="#ArialMT-30"/>
       <use x="55.615234" xlink:href="#ArialMT-2e"/>
       <use x="83.398438" xlink:href="#ArialMT-31"/>
       <use x="139.013672" xlink:href="#ArialMT-35"/>
      </g>
     </g>
    </g>
    <g id="ytick_9">
     <g id="line2d_18">
      <g>
       <use style="fill:#262626;stroke:#262626;" x="90" xlink:href="#meee967c1d7" y="69.12"/>
      </g>
     </g>
     <g id="text_18">
      <!-- 0.20 -->
      <g style="fill:#262626;" transform="translate(57.539062 72.698906)scale(0.1 -0.1)">
       <use xlink:href="#ArialMT-30"/>
       <use x="55.615234" xlink:href="#ArialMT-2e"/>
       <use x="83.398438" xlink:href="#ArialMT-32"/>
       <use x="139.013672" xlink:href="#ArialMT-30"/>
      </g>
     </g>
    </g>
   </g>
   <g id="PolyCollection_1">
    <path clip-path="url(#p0e9b754368)" d="M 90 168.23797 
L 90 169.92 
L 90.6975 169.92 
L 91.395 169.92 
L 92.0925 169.92 
L 92.79 169.92 
L 93.4875 169.92 
L 94.185 169.92 
L 94.8825 169.92 
L 95.58 169.92 
L 96.2775 169.92 
L 96.975 169.92 
L 97.6725 169.92 
L 98.37 169.92 
L 99.0675 169.92 
L 99.765 169.92 
L 100.4625 169.92 
L 101.16 169.92 
L 101.8575 169.92 
L 102.555 169.92 
L 103.2525 169.92 
L 103.95 169.92 
L 104.6475 169.92 
L 105.345 169.92 
L 106.0425 169.92 
L 106.74 169.92 
L 107.4375 169.92 
L 108.135 169.92 
L 108.8325 169.92 
L 109.53 169.92 
L 110.2275 169.92 
L 110.925 169.92 
L 111.6225 169.92 
L 112.32 169.92 
L 113.0175 169.92 
L 113.715 169.92 
L 114.4125 169.92 
L 115.11 169.92 
L 115.8075 169.92 
L 116.505 169.92 
L 117.2025 169.92 
L 117.9 169.92 
L 118.5975 169.92 
L 119.295 169.92 
L 119.9925 169.92 
L 120.69 169.92 
L 121.3875 169.92 
L 122.085 169.92 
L 122.7825 169.92 
L 123.48 169.92 
L 124.1775 169.92 
L 124.875 169.92 
L 125.5725 169.92 
L 126.27 169.92 
L 126.9675 169.92 
L 127.665 169.92 
L 128.3625 169.92 
L 129.06 169.92 
L 129.7575 169.92 
L 130.455 169.92 
L 131.1525 169.92 
L 131.85 169.92 
L 132.5475 169.92 
L 133.245 169.92 
L 133.9425 169.92 
L 134.64 169.92 
L 135.3375 169.92 
L 136.035 169.92 
L 136.7325 169.92 
L 137.43 169.92 
L 138.1275 169.92 
L 138.825 169.92 
L 139.5225 169.92 
L 140.22 169.92 
L 140.9175 169.92 
L 141.615 169.92 
L 142.3125 169.92 
L 143.01 169.92 
L 143.7075 169.92 
L 144.405 169.92 
L 145.1025 169.92 
L 145.8 169.92 
L 146.4975 169.92 
L 147.195 169.92 
L 147.8925 169.92 
L 148.59 169.92 
L 149.2875 169.92 
L 149.985 169.92 
L 150.6825 169.92 
L 151.38 169.92 
L 152.0775 169.92 
L 152.775 169.92 
L 153.4725 169.92 
L 154.17 169.92 
L 154.8675 169.92 
L 155.565 169.92 
L 156.2625 169.92 
L 156.96 169.92 
L 157.6575 169.92 
L 158.355 169.92 
L 159.0525 169.92 
L 159.75 169.92 
L 160.4475 169.92 
L 161.145 169.92 
L 161.8425 169.92 
L 162.54 169.92 
L 163.2375 169.92 
L 163.935 169.92 
L 164.6325 169.92 
L 165.33 169.92 
L 166.0275 169.92 
L 166.725 169.92 
L 167.4225 169.92 
L 168.12 169.92 
L 168.8175 169.92 
L 169.515 169.92 
L 170.2125 169.92 
L 170.91 169.92 
L 171.6075 169.92 
L 172.305 169.92 
L 173.0025 169.92 
L 173.7 169.92 
L 174.3975 169.92 
L 175.095 169.92 
L 175.7925 169.92 
L 176.49 169.92 
L 177.1875 169.92 
L 177.885 169.92 
L 178.5825 169.92 
L 179.28 169.92 
L 179.9775 169.92 
L 180.675 169.92 
L 181.3725 169.92 
L 182.07 169.92 
L 182.7675 169.92 
L 183.465 169.92 
L 184.1625 169.92 
L 184.86 169.92 
L 185.5575 169.92 
L 186.255 169.92 
L 186.9525 169.92 
L 187.65 169.92 
L 188.3475 169.92 
L 189.045 169.92 
L 189.7425 169.92 
L 190.44 169.92 
L 191.1375 169.92 
L 191.835 169.92 
L 192.5325 169.92 
L 193.23 169.92 
L 193.9275 169.92 
L 194.625 169.92 
L 195.3225 169.92 
L 196.02 169.92 
L 196.7175 169.92 
L 197.415 169.92 
L 198.1125 169.92 
L 198.81 169.92 
L 199.5075 169.92 
L 200.205 169.92 
L 200.9025 169.92 
L 201.6 169.92 
L 202.2975 169.92 
L 202.995 169.92 
L 203.6925 169.92 
L 204.39 169.92 
L 205.0875 169.92 
L 205.785 169.92 
L 206.4825 169.92 
L 207.18 169.92 
L 207.8775 169.92 
L 208.575 169.92 
L 209.2725 169.92 
L 209.97 169.92 
L 210.6675 169.92 
L 211.365 169.92 
L 212.0625 169.92 
L 212.76 169.92 
L 213.4575 169.92 
L 214.155 169.92 
L 214.8525 169.92 
L 215.55 169.92 
L 216.2475 169.92 
L 216.945 169.92 
L 217.6425 169.92 
L 218.34 169.92 
L 219.0375 169.92 
L 219.735 169.92 
L 220.4325 169.92 
L 221.13 169.92 
L 221.8275 169.92 
L 222.525 169.92 
L 223.2225 169.92 
L 223.92 169.92 
L 224.6175 169.92 
L 225.315 169.92 
L 226.0125 169.92 
L 226.71 169.92 
L 227.4075 169.92 
L 228.105 169.92 
L 228.8025 169.92 
L 229.5 169.92 
L 230.1975 169.92 
L 230.895 169.92 
L 231.5925 169.92 
L 232.29 169.92 
L 232.9875 169.92 
L 233.685 169.92 
L 234.3825 169.92 
L 235.08 169.92 
L 235.7775 169.92 
L 236.475 169.92 
L 237.1725 169.92 
L 237.87 169.92 
L 238.5675 169.92 
L 239.265 169.92 
L 239.9625 169.92 
L 240.66 169.92 
L 241.3575 169.92 
L 242.055 169.92 
L 242.7525 169.92 
L 243.45 169.92 
L 244.1475 169.92 
L 244.845 169.92 
L 245.5425 169.92 
L 246.24 169.92 
L 246.9375 169.92 
L 247.635 169.92 
L 248.3325 169.92 
L 249.03 169.92 
L 249.7275 169.92 
L 250.425 169.92 
L 251.1225 169.92 
L 251.82 169.92 
L 252.5175 169.92 
L 253.215 169.92 
L 253.9125 169.92 
L 254.61 169.92 
L 255.3075 169.92 
L 256.005 169.92 
L 256.7025 169.92 
L 257.4 169.92 
L 258.0975 169.92 
L 258.795 169.92 
L 259.4925 169.92 
L 260.19 169.92 
L 260.8875 169.92 
L 261.585 169.92 
L 262.2825 169.92 
L 262.98 169.92 
L 263.6775 169.92 
L 264.375 169.92 
L 265.0725 169.92 
L 265.77 169.92 
L 266.4675 169.92 
L 267.165 169.92 
L 267.8625 169.92 
L 268.56 169.92 
L 269.2575 169.92 
L 269.955 169.92 
L 270.6525 169.92 
L 271.35 169.92 
L 272.0475 169.92 
L 272.745 169.92 
L 273.4425 169.92 
L 274.14 169.92 
L 274.8375 169.92 
L 275.535 169.92 
L 276.2325 169.92 
L 276.93 169.92 
L 277.6275 169.92 
L 278.325 169.92 
L 279.0225 169.92 
L 279.72 169.92 
L 280.4175 169.92 
L 281.115 169.92 
L 281.8125 169.92 
L 282.51 169.92 
L 283.2075 169.92 
L 283.905 169.92 
L 284.6025 169.92 
L 285.3 169.92 
L 285.9975 169.92 
L 286.695 169.92 
L 287.3925 169.92 
L 288.09 169.92 
L 288.7875 169.92 
L 289.485 169.92 
L 290.1825 169.92 
L 290.88 169.92 
L 291.5775 169.92 
L 292.275 169.92 
L 292.9725 169.92 
L 293.67 169.92 
L 294.3675 169.92 
L 295.065 169.92 
L 295.7625 169.92 
L 296.46 169.92 
L 297.1575 169.92 
L 297.855 169.92 
L 298.5525 169.92 
L 299.25 169.92 
L 299.9475 169.92 
L 300.645 169.92 
L 301.3425 169.92 
L 302.04 169.92 
L 302.7375 169.92 
L 303.435 169.92 
L 304.1325 169.92 
L 304.83 169.92 
L 305.5275 169.92 
L 306.225 169.92 
L 306.9225 169.92 
L 307.62 169.92 
L 308.3175 169.92 
L 309.015 169.92 
L 309.7125 169.92 
L 310.41 169.92 
L 311.1075 169.92 
L 311.805 169.92 
L 312.5025 169.92 
L 313.2 169.92 
L 313.8975 169.92 
L 314.595 169.92 
L 315.2925 169.92 
L 315.99 169.92 
L 316.6875 169.92 
L 317.385 169.92 
L 318.0825 169.92 
L 318.78 169.92 
L 319.4775 169.92 
L 320.175 169.92 
L 320.8725 169.92 
L 321.57 169.92 
L 322.2675 169.92 
L 322.965 169.92 
L 323.6625 169.92 
L 324.36 169.92 
L 325.0575 169.92 
L 325.755 169.92 
L 326.4525 169.92 
L 327.15 169.92 
L 327.8475 169.92 
L 328.545 169.92 
L 329.2425 169.92 
L 329.94 169.92 
L 330.6375 169.92 
L 331.335 169.92 
L 332.0325 169.92 
L 332.73 169.92 
L 333.4275 169.92 
L 334.125 169.92 
L 334.8225 169.92 
L 335.52 169.92 
L 336.2175 169.92 
L 336.915 169.92 
L 337.6125 169.92 
L 338.31 169.92 
L 339.0075 169.92 
L 339.705 169.92 
L 340.4025 169.92 
L 341.1 169.92 
L 341.7975 169.92 
L 342.495 169.92 
L 343.1925 169.92 
L 343.89 169.92 
L 344.5875 169.92 
L 345.285 169.92 
L 345.9825 169.92 
L 346.68 169.92 
L 347.3775 169.92 
L 348.075 169.92 
L 348.7725 169.92 
L 349.47 169.92 
L 350.1675 169.92 
L 350.865 169.92 
L 351.5625 169.92 
L 352.26 169.92 
L 352.9575 169.92 
L 353.655 169.92 
L 354.3525 169.92 
L 355.05 169.92 
L 355.7475 169.92 
L 356.445 169.92 
L 357.1425 169.92 
L 357.84 169.92 
L 358.5375 169.92 
L 359.235 169.92 
L 359.9325 169.92 
L 360.63 169.92 
L 361.3275 169.92 
L 362.025 169.92 
L 362.7225 169.92 
L 363.42 169.92 
L 364.1175 169.92 
L 364.815 169.92 
L 365.5125 169.92 
L 366.21 169.92 
L 366.9075 169.92 
L 367.605 169.92 
L 368.3025 169.92 
L 369 169.92 
L 369.6975 169.92 
L 370.395 169.92 
L 371.0925 169.92 
L 371.79 169.92 
L 372.4875 169.92 
L 373.185 169.92 
L 373.8825 169.92 
L 374.58 169.92 
L 375.2775 169.92 
L 375.975 169.92 
L 376.6725 169.92 
L 377.37 169.92 
L 378.0675 169.92 
L 378.765 169.92 
L 379.4625 169.92 
L 380.16 169.92 
L 380.8575 169.92 
L 381.555 169.92 
L 382.2525 169.92 
L 382.95 169.92 
L 383.6475 169.92 
L 384.345 169.92 
L 385.0425 169.92 
L 385.74 169.92 
L 386.4375 169.92 
L 387.135 169.92 
L 387.8325 169.92 
L 388.53 169.92 
L 389.2275 169.92 
L 389.925 169.92 
L 390.6225 169.92 
L 391.32 169.92 
L 392.0175 169.92 
L 392.715 169.92 
L 393.4125 169.92 
L 394.11 169.92 
L 394.8075 169.92 
L 395.505 169.92 
L 396.2025 169.92 
L 396.9 169.92 
L 397.5975 169.92 
L 398.295 169.92 
L 398.9925 169.92 
L 399.69 169.92 
L 400.3875 169.92 
L 401.085 169.92 
L 401.7825 169.92 
L 402.48 169.92 
L 403.1775 169.92 
L 403.875 169.92 
L 404.5725 169.92 
L 405.27 169.92 
L 405.9675 169.92 
L 406.665 169.92 
L 407.3625 169.92 
L 408.06 169.92 
L 408.7575 169.92 
L 409.455 169.92 
L 410.1525 169.92 
L 410.85 169.92 
L 411.5475 169.92 
L 412.245 169.92 
L 412.9425 169.92 
L 413.64 169.92 
L 414.3375 169.92 
L 415.035 169.92 
L 415.7325 169.92 
L 416.43 169.92 
L 417.1275 169.92 
L 417.825 169.92 
L 418.5225 169.92 
L 419.22 169.92 
L 419.9175 169.92 
L 420.615 169.92 
L 421.3125 169.92 
L 422.01 169.92 
L 422.7075 169.92 
L 423.405 169.92 
L 424.1025 169.92 
L 424.8 169.92 
L 425.4975 169.92 
L 426.195 169.92 
L 426.8925 169.92 
L 427.59 169.92 
L 428.2875 169.92 
L 428.985 169.92 
L 429.6825 169.92 
L 430.38 169.92 
L 431.0775 169.92 
L 431.775 169.92 
L 432.4725 169.92 
L 433.17 169.92 
L 433.8675 169.92 
L 434.565 169.92 
L 435.2625 169.92 
L 435.96 169.92 
L 436.6575 169.92 
L 437.355 169.92 
L 438.0525 169.92 
L 438.75 169.92 
L 439.4475 169.92 
L 440.145 169.92 
L 440.8425 169.92 
L 441.54 169.92 
L 442.2375 169.92 
L 442.935 169.92 
L 443.6325 169.92 
L 444.33 169.92 
L 445.0275 169.92 
L 445.725 169.92 
L 446.4225 169.92 
L 447.12 169.92 
L 447.8175 169.92 
L 448.515 169.92 
L 449.2125 169.92 
L 449.91 169.92 
L 450.6075 169.92 
L 451.305 169.92 
L 452.0025 169.92 
L 452.7 169.92 
L 453.3975 169.92 
L 454.095 169.92 
L 454.7925 169.92 
L 455.49 169.92 
L 456.1875 169.92 
L 456.885 169.92 
L 457.5825 169.92 
L 458.28 169.92 
L 458.9775 169.92 
L 459.675 169.92 
L 460.3725 169.92 
L 461.07 169.92 
L 461.7675 169.92 
L 462.465 169.92 
L 463.1625 169.92 
L 463.86 169.92 
L 464.5575 169.92 
L 465.255 169.92 
L 465.9525 169.92 
L 466.65 169.92 
L 467.3475 169.92 
L 468.045 169.92 
L 468.7425 169.92 
L 469.44 169.92 
L 470.1375 169.92 
L 470.835 169.92 
L 471.5325 169.92 
L 472.23 169.92 
L 472.9275 169.92 
L 473.625 169.92 
L 474.3225 169.92 
L 475.02 169.92 
L 475.7175 169.92 
L 476.415 169.92 
L 477.1125 169.92 
L 477.81 169.92 
L 478.5075 169.92 
L 479.205 169.92 
L 479.9025 169.92 
L 480.6 169.92 
L 481.2975 169.92 
L 481.995 169.92 
L 482.6925 169.92 
L 483.39 169.92 
L 484.0875 169.92 
L 484.785 169.92 
L 485.4825 169.92 
L 486.18 169.92 
L 486.8775 169.92 
L 487.575 169.92 
L 488.2725 169.92 
L 488.97 169.92 
L 489.6675 169.92 
L 490.365 169.92 
L 491.0625 169.92 
L 491.76 169.92 
L 492.4575 169.92 
L 493.155 169.92 
L 493.8525 169.92 
L 494.55 169.92 
L 495.2475 169.92 
L 495.945 169.92 
L 496.6425 169.92 
L 497.34 169.92 
L 498.0375 169.92 
L 498.735 169.92 
L 499.4325 169.92 
L 500.13 169.92 
L 500.8275 169.92 
L 501.525 169.92 
L 502.2225 169.92 
L 502.92 169.92 
L 503.6175 169.92 
L 504.315 169.92 
L 505.0125 169.92 
L 505.71 169.92 
L 506.4075 169.92 
L 507.105 169.92 
L 507.8025 169.92 
L 508.5 169.92 
L 509.1975 169.92 
L 509.895 169.92 
L 510.5925 169.92 
L 511.29 169.92 
L 511.9875 169.92 
L 512.685 169.92 
L 513.3825 169.92 
L 514.08 169.92 
L 514.7775 169.92 
L 515.475 169.92 
L 516.1725 169.92 
L 516.87 169.92 
L 517.5675 169.92 
L 518.265 169.92 
L 518.9625 169.92 
L 519.66 169.92 
L 520.3575 169.92 
L 521.055 169.92 
L 521.7525 169.92 
L 522.45 169.92 
L 523.1475 169.92 
L 523.845 169.92 
L 524.5425 169.92 
L 525.24 169.92 
L 525.9375 169.92 
L 526.635 169.92 
L 527.3325 169.92 
L 528.03 169.92 
L 528.7275 169.92 
L 529.425 169.92 
L 530.1225 169.92 
L 530.82 169.92 
L 531.5175 169.92 
L 532.215 169.92 
L 532.9125 169.92 
L 533.61 169.92 
L 534.3075 169.92 
L 535.005 169.92 
L 535.7025 169.92 
L 536.4 169.92 
L 537.0975 169.92 
L 537.795 169.92 
L 538.4925 169.92 
L 539.19 169.92 
L 539.8875 169.92 
L 540.585 169.92 
L 541.2825 169.92 
L 541.98 169.92 
L 542.6775 169.92 
L 543.375 169.92 
L 544.0725 169.92 
L 544.77 169.92 
L 545.4675 169.92 
L 546.165 169.92 
L 546.8625 169.92 
L 547.56 169.92 
L 548.2575 169.92 
L 548.955 169.92 
L 549.6525 169.92 
L 550.35 169.92 
L 551.0475 169.92 
L 551.745 169.92 
L 552.4425 169.92 
L 553.14 169.92 
L 553.8375 169.92 
L 554.535 169.92 
L 555.2325 169.92 
L 555.93 169.92 
L 556.6275 169.92 
L 557.325 169.92 
L 558.0225 169.92 
L 558.72 169.92 
L 559.4175 169.92 
L 560.115 169.92 
L 560.8125 169.92 
L 561.51 169.92 
L 562.2075 169.92 
L 562.905 169.92 
L 563.6025 169.92 
L 564.3 169.92 
L 564.9975 169.92 
L 565.695 169.92 
L 566.3925 169.92 
L 567.09 169.92 
L 567.7875 169.92 
L 568.485 169.92 
L 569.1825 169.92 
L 569.88 169.92 
L 570.5775 169.92 
L 571.275 169.92 
L 571.9725 169.92 
L 572.67 169.92 
L 573.3675 169.92 
L 574.065 169.92 
L 574.7625 169.92 
L 575.46 169.92 
L 576.1575 169.92 
L 576.855 169.92 
L 577.5525 169.92 
L 578.25 169.92 
L 578.9475 169.92 
L 579.645 169.92 
L 580.3425 169.92 
L 581.04 169.92 
L 581.7375 169.92 
L 582.435 169.92 
L 583.1325 169.92 
L 583.83 169.92 
L 584.5275 169.92 
L 585.225 169.92 
L 585.9225 169.92 
L 586.62 169.92 
L 587.3175 169.92 
L 588.015 169.92 
L 588.7125 169.92 
L 589.41 169.92 
L 590.1075 169.92 
L 590.805 169.92 
L 591.5025 169.92 
L 592.2 169.92 
L 592.8975 169.92 
L 593.595 169.92 
L 594.2925 169.92 
L 594.99 169.92 
L 595.6875 169.92 
L 596.385 169.92 
L 597.0825 169.92 
L 597.78 169.92 
L 598.4775 169.92 
L 599.175 169.92 
L 599.8725 169.92 
L 600.57 169.92 
L 601.2675 169.92 
L 601.965 169.92 
L 602.6625 169.92 
L 603.36 169.92 
L 604.0575 169.92 
L 604.755 169.92 
L 605.4525 169.92 
L 606.15 169.92 
L 606.8475 169.92 
L 607.545 169.92 
L 608.2425 169.92 
L 608.94 169.92 
L 609.6375 169.92 
L 610.335 169.92 
L 611.0325 169.92 
L 611.73 169.92 
L 612.4275 169.92 
L 613.125 169.92 
L 613.8225 169.92 
L 614.52 169.92 
L 615.2175 169.92 
L 615.915 169.92 
L 616.6125 169.92 
L 617.31 169.92 
L 618.0075 169.92 
L 618.705 169.92 
L 619.4025 169.92 
L 620.1 169.92 
L 620.7975 169.92 
L 621.495 169.92 
L 622.1925 169.92 
L 622.89 169.92 
L 623.5875 169.92 
L 624.285 169.92 
L 624.9825 169.92 
L 625.68 169.92 
L 626.3775 169.92 
L 627.075 169.92 
L 627.7725 169.92 
L 628.47 169.92 
L 629.1675 169.92 
L 629.865 169.92 
L 630.5625 169.92 
L 631.26 169.92 
L 631.9575 169.92 
L 632.655 169.92 
L 633.3525 169.92 
L 634.05 169.92 
L 634.7475 169.92 
L 635.445 169.92 
L 636.1425 169.92 
L 636.84 169.92 
L 637.5375 169.92 
L 638.235 169.92 
L 638.9325 169.92 
L 639.63 169.92 
L 640.3275 169.92 
L 641.025 169.92 
L 641.7225 169.92 
L 642.42 169.92 
L 643.1175 169.92 
L 643.815 169.92 
L 644.5125 169.92 
L 645.21 169.92 
L 645.9075 169.92 
L 646.605 169.92 
L 646.605 169.92 
L 646.605 169.92 
L 645.9075 169.92269 
L 645.21 169.928985 
L 644.5125 169.939748 
L 643.815 169.955787 
L 643.1175 169.977836 
L 642.42 170.006548 
L 641.7225 170.042486 
L 641.025 170.086114 
L 640.3275 170.137787 
L 639.63 170.197749 
L 638.9325 170.266125 
L 638.235 170.342918 
L 637.5375 170.428006 
L 636.84 170.521141 
L 636.1425 170.621948 
L 635.445 170.72993 
L 634.7475 170.844468 
L 634.05 170.964825 
L 633.3525 171.090152 
L 632.655 171.219499 
L 631.9575 171.351814 
L 631.26 171.485962 
L 630.5625 171.620728 
L 629.865 171.754834 
L 629.1675 171.886944 
L 628.47 172.015686 
L 627.7725 172.139657 
L 627.075 172.257439 
L 626.3775 172.367619 
L 625.68 172.468796 
L 624.9825 172.559598 
L 624.285 172.6387 
L 623.5875 172.704832 
L 622.89 172.7568 
L 622.1925 172.793494 
L 621.495 172.813901 
L 620.7975 172.817123 
L 620.1 172.80238 
L 619.4025 172.769027 
L 618.705 172.716559 
L 618.0075 172.644622 
L 617.31 172.553016 
L 616.6125 172.441703 
L 615.915 172.310812 
L 615.2175 172.160637 
L 614.52 171.991642 
L 613.8225 171.804458 
L 613.125 171.599884 
L 612.4275 171.378878 
L 611.73 171.142556 
L 611.0325 170.892185 
L 610.335 170.629173 
L 609.6375 170.35506 
L 608.94 170.071508 
L 608.2425 169.780289 
L 607.545 169.48327 
L 606.8475 169.182404 
L 606.15 168.879706 
L 605.4525 168.577247 
L 604.755 168.27713 
L 604.0575 167.981479 
L 603.36 167.692418 
L 602.6625 167.412053 
L 601.965 167.142459 
L 601.2675 166.88566 
L 600.57 166.643609 
L 599.8725 166.418178 
L 599.175 166.211137 
L 598.4775 166.02414 
L 597.78 165.858711 
L 597.0825 165.716232 
L 596.385 165.597928 
L 595.6875 165.504857 
L 594.99 165.437901 
L 594.2925 165.397757 
L 593.595 165.38493 
L 592.8975 165.399728 
L 592.2 165.44226 
L 591.5025 165.512431 
L 590.805 165.609943 
L 590.1075 165.734298 
L 589.41 165.884798 
L 588.7125 166.060552 
L 588.015 166.260482 
L 587.3175 166.48333 
L 586.62 166.727667 
L 585.9225 166.991908 
L 585.225 167.274316 
L 584.5275 167.573023 
L 583.83 167.886042 
L 583.1325 168.211281 
L 582.435 168.54656 
L 581.7375 168.889628 
L 581.04 169.238183 
L 580.3425 169.589886 
L 579.645 169.942382 
L 578.9475 170.293318 
L 578.25 170.64036 
L 577.5525 170.981212 
L 576.855 171.313636 
L 576.1575 171.635463 
L 575.46 171.944619 
L 574.7625 172.23913 
L 574.065 172.517146 
L 573.3675 172.776949 
L 572.67 173.01697 
L 571.9725 173.235795 
L 571.275 173.43218 
L 570.5775 173.605057 
L 569.88 173.753541 
L 569.1825 173.876937 
L 568.485 173.974741 
L 567.7875 174.046645 
L 567.09 174.092535 
L 566.3925 174.112493 
L 565.695 174.10679 
L 564.9975 174.075886 
L 564.3 174.020422 
L 563.6025 173.941211 
L 562.905 173.839233 
L 562.2075 173.715621 
L 561.51 173.571653 
L 560.8125 173.408737 
L 560.115 173.228399 
L 559.4175 173.032268 
L 558.72 172.822062 
L 558.0225 172.599571 
L 557.325 172.366641 
L 556.6275 172.12516 
L 555.93 171.877038 
L 555.2325 171.624193 
L 554.535 171.368532 
L 553.8375 171.11194 
L 553.14 170.856257 
L 552.4425 170.603271 
L 551.745 170.354697 
L 551.0475 170.112167 
L 550.35 169.877215 
L 549.6525 169.65127 
L 548.955 169.43564 
L 548.2575 169.231508 
L 547.56 169.03992 
L 546.8625 168.86178 
L 546.165 168.697848 
L 545.4675 168.548732 
L 544.77 168.414887 
L 544.0725 168.296619 
L 543.375 168.194078 
L 542.6775 168.107266 
L 541.98 168.03604 
L 541.2825 167.980117 
L 540.585 167.939078 
L 539.8875 167.912377 
L 539.19 167.899352 
L 538.4925 167.899233 
L 537.795 167.911152 
L 537.0975 167.934154 
L 536.4 167.967212 
L 535.7025 168.009239 
L 535.005 168.059099 
L 534.3075 168.115623 
L 533.61 168.177623 
L 532.9125 168.243901 
L 532.215 168.31327 
L 531.5175 168.384563 
L 530.82 168.456644 
L 530.1225 168.528427 
L 529.425 168.59888 
L 528.7275 168.667043 
L 528.03 168.732034 
L 527.3325 168.793058 
L 526.635 168.84942 
L 525.9375 168.900525 
L 525.24 168.945889 
L 524.5425 168.985143 
L 523.845 169.018032 
L 523.1475 169.044425 
L 522.45 169.064305 
L 521.7525 169.077779 
L 521.055 169.085068 
L 520.3575 169.086506 
L 519.66 169.082538 
L 518.9625 169.073709 
L 518.265 169.060662 
L 517.5675 169.044125 
L 516.87 169.024906 
L 516.1725 169.00388 
L 515.475 168.981979 
L 514.7775 168.96018 
L 514.08 168.939495 
L 513.3825 168.920955 
L 512.685 168.905599 
L 511.9875 168.89446 
L 511.29 168.888552 
L 510.5925 168.88886 
L 509.895 168.89632 
L 509.1975 168.911813 
L 508.5 168.936152 
L 507.8025 168.970068 
L 507.105 169.0142 
L 506.4075 169.069087 
L 505.71 169.135159 
L 505.0125 169.212728 
L 504.315 169.301981 
L 503.6175 169.402977 
L 502.92 169.51564 
L 502.2225 169.639759 
L 501.525 169.774984 
L 500.8275 169.92083 
L 500.13 170.076674 
L 499.4325 170.24176 
L 498.735 170.415204 
L 498.0375 170.595999 
L 497.34 170.783021 
L 496.6425 170.975039 
L 495.945 171.170724 
L 495.2475 171.368658 
L 494.55 171.567347 
L 493.8525 171.765236 
L 493.155 171.960718 
L 492.4575 172.15215 
L 491.76 172.337868 
L 491.0625 172.516202 
L 490.365 172.68549 
L 489.6675 172.844097 
L 488.97 172.990427 
L 488.2725 173.122939 
L 487.575 173.240164 
L 486.8775 173.340717 
L 486.18 173.423313 
L 485.4825 173.486781 
L 484.785 173.530075 
L 484.0875 173.552285 
L 483.39 173.55265 
L 482.6925 173.530564 
L 481.995 173.485588 
L 481.2975 173.417453 
L 480.6 173.326068 
L 479.9025 173.211522 
L 479.205 173.074086 
L 478.5075 172.914216 
L 477.81 172.732549 
L 477.1125 172.529902 
L 476.415 172.307267 
L 475.7175 172.065808 
L 475.02 171.806849 
L 474.3225 171.531869 
L 473.625 171.242491 
L 472.9275 170.940469 
L 472.23 170.627677 
L 471.5325 170.306096 
L 470.835 169.977797 
L 470.1375 169.644925 
L 469.44 169.309686 
L 468.7425 168.974325 
L 468.045 168.641114 
L 467.3475 168.312329 
L 466.65 167.990234 
L 465.9525 167.677066 
L 465.255 167.375012 
L 464.5575 167.086194 
L 463.86 166.812652 
L 463.1625 166.556326 
L 462.465 166.319044 
L 461.7675 166.102502 
L 461.07 165.908255 
L 460.3725 165.737698 
L 459.675 165.592063 
L 458.9775 165.472402 
L 458.28 165.379582 
L 457.5825 165.314275 
L 456.885 165.276956 
L 456.1875 165.267896 
L 455.49 165.287163 
L 454.7925 165.334616 
L 454.095 165.409913 
L 453.3975 165.512508 
L 452.7 165.641659 
L 452.0025 165.796434 
L 451.305 165.975715 
L 450.6075 166.178213 
L 449.91 166.402473 
L 449.2125 166.646889 
L 448.515 166.909716 
L 447.8175 167.189085 
L 447.12 167.483019 
L 446.4225 167.789446 
L 445.725 168.106218 
L 445.0275 168.431127 
L 444.33 168.761926 
L 443.6325 169.096342 
L 442.935 169.432099 
L 442.2375 169.76693 
L 441.54 170.098602 
L 440.8425 170.424927 
L 440.145 170.743783 
L 439.4475 171.053128 
L 438.75 171.351017 
L 438.0525 171.635616 
L 437.355 171.905213 
L 436.6575 172.158234 
L 435.96 172.393254 
L 435.2625 172.609001 
L 434.565 172.804373 
L 433.8675 172.978436 
L 433.17 173.130436 
L 432.4725 173.259799 
L 431.775 173.366133 
L 431.0775 173.449232 
L 430.38 173.509069 
L 429.6825 173.545799 
L 428.985 173.559751 
L 428.2875 173.551424 
L 427.59 173.521479 
L 426.8925 173.470732 
L 426.195 173.400141 
L 425.4975 173.310799 
L 424.8 173.20392 
L 424.1025 173.080826 
L 423.405 172.942934 
L 422.7075 172.791742 
L 422.01 172.628812 
L 421.3125 172.455759 
L 420.615 172.27423 
L 419.9175 172.085893 
L 419.22 171.892419 
L 418.5225 171.69547 
L 417.825 171.496678 
L 417.1275 171.297637 
L 416.43 171.099884 
L 415.7325 170.904889 
L 415.035 170.714043 
L 414.3375 170.528644 
L 413.64 170.349888 
L 412.9425 170.178862 
L 412.245 170.016532 
L 411.5475 169.863741 
L 410.85 169.7212 
L 410.1525 169.589486 
L 409.455 169.469038 
L 408.7575 169.360161 
L 408.06 169.263018 
L 407.3625 169.17764 
L 406.665 169.103924 
L 405.9675 169.04164 
L 405.27 168.990434 
L 404.5725 168.949839 
L 403.875 168.91928 
L 403.1775 168.898086 
L 402.48 168.885495 
L 401.7825 168.880672 
L 401.085 168.882712 
L 400.3875 168.890663 
L 399.69 168.903526 
L 398.9925 168.92028 
L 398.295 168.939887 
L 397.5975 168.961308 
L 396.9 168.983517 
L 396.2025 169.005511 
L 395.505 169.026326 
L 394.8075 169.045048 
L 394.11 169.060821 
L 393.4125 169.072864 
L 392.715 169.080474 
L 392.0175 169.08304 
L 391.32 169.08005 
L 390.6225 169.071093 
L 389.925 169.055874 
L 389.2275 169.034207 
L 388.53 169.006027 
L 387.8325 168.971388 
L 387.135 168.930463 
L 386.4375 168.883543 
L 385.74 168.831036 
L 385.0425 168.773463 
L 384.345 168.711452 
L 383.6475 168.645732 
L 382.95 168.577127 
L 382.2525 168.506544 
L 381.555 168.434969 
L 380.8575 168.363451 
L 380.16 168.293093 
L 379.4625 168.225042 
L 378.765 168.160471 
L 378.0675 168.100573 
L 377.37 168.04654 
L 376.6725 167.999555 
L 375.975 167.960776 
L 375.2775 167.931322 
L 374.58 167.912261 
L 373.8825 167.904595 
L 373.185 167.909248 
L 372.4875 167.927057 
L 371.79 167.958755 
L 371.0925 168.004965 
L 370.395 168.066188 
L 369.6975 168.142798 
L 369 168.23503 
L 368.3025 168.342979 
L 367.605 168.46659 
L 366.9075 168.605661 
L 366.21 168.759835 
L 365.5125 168.928604 
L 364.815 169.111309 
L 364.1175 169.30714 
L 363.42 169.515144 
L 362.7225 169.734228 
L 362.025 169.963166 
L 361.3275 170.200608 
L 360.63 170.445091 
L 359.9325 170.695044 
L 359.235 170.948807 
L 358.5375 171.204641 
L 357.84 171.460739 
L 357.1425 171.715245 
L 356.445 171.966268 
L 355.7475 172.211895 
L 355.05 172.450211 
L 354.3525 172.679313 
L 353.655 172.897329 
L 352.9575 173.102431 
L 352.26 173.292853 
L 351.5625 173.46691 
L 350.865 173.623007 
L 350.1675 173.759659 
L 349.47 173.875503 
L 348.7725 173.969311 
L 348.075 174.040005 
L 347.3775 174.086661 
L 346.68 174.108527 
L 345.9825 174.105026 
L 345.285 174.075763 
L 344.5875 174.020533 
L 343.89 173.939324 
L 343.1925 173.832317 
L 342.495 173.699889 
L 341.7975 173.542611 
L 341.1 173.361246 
L 340.4025 173.156744 
L 339.705 172.930235 
L 339.0075 172.683023 
L 338.31 172.416578 
L 337.6125 172.132522 
L 336.915 171.832621 
L 336.2175 171.51877 
L 335.52 171.192978 
L 334.8225 170.857356 
L 334.125 170.514097 
L 333.4275 170.165462 
L 332.73 169.813762 
L 332.0325 169.461339 
L 331.335 169.110549 
L 330.6375 168.763743 
L 329.94 168.423249 
L 329.2425 168.091353 
L 328.545 167.770282 
L 327.8475 167.462187 
L 327.15 167.169125 
L 326.4525 166.893043 
L 325.755 166.635765 
L 325.0575 166.398974 
L 324.36 166.184203 
L 323.6625 165.992822 
L 322.965 165.826026 
L 322.2675 165.684828 
L 321.57 165.570052 
L 320.8725 165.482326 
L 320.175 165.422077 
L 319.4775 165.389532 
L 318.78 165.384714 
L 318.0825 165.407444 
L 317.385 165.457344 
L 316.6875 165.533839 
L 315.99 165.636166 
L 315.2925 165.763381 
L 314.595 165.914365 
L 313.8975 166.087834 
L 313.2 166.282357 
L 312.5025 166.49636 
L 311.805 166.728146 
L 311.1075 166.975907 
L 310.41 167.237739 
L 309.7125 167.511661 
L 309.015 167.795628 
L 308.3175 168.087552 
L 307.62 168.385316 
L 306.9225 168.686793 
L 306.225 168.989864 
L 305.5275 169.292433 
L 304.83 169.592446 
L 304.1325 169.887906 
L 303.435 170.176888 
L 302.7375 170.457554 
L 302.04 170.72817 
L 301.3425 170.987112 
L 300.645 171.232884 
L 299.9475 171.464126 
L 299.25 171.679621 
L 298.5525 171.878308 
L 297.855 172.059282 
L 297.1575 172.221802 
L 296.46 172.365295 
L 295.7625 172.489355 
L 295.065 172.593745 
L 294.3675 172.678396 
L 293.67 172.743402 
L 292.9725 172.789017 
L 292.275 172.81565 
L 291.5775 172.823855 
L 290.88 172.814325 
L 290.1825 172.787885 
L 289.485 172.745474 
L 288.7875 172.688141 
L 288.09 172.617027 
L 287.3925 172.533358 
L 286.695 172.438423 
L 285.9975 172.333568 
L 285.3 172.220178 
L 284.6025 172.099661 
L 283.905 171.973437 
L 283.2075 171.842919 
L 282.51 171.709505 
L 281.8125 171.574558 
L 281.115 171.439396 
L 280.4175 171.305279 
L 279.72 171.173398 
L 279.0225 171.044862 
L 278.325 170.920691 
L 277.6275 170.801802 
L 276.93 170.689009 
L 276.2325 170.58301 
L 275.535 170.484384 
L 274.8375 170.393589 
L 274.14 170.310957 
L 273.4425 170.236694 
L 272.745 170.17088 
L 272.0475 170.113471 
L 271.35 170.064303 
L 270.6525 170.023094 
L 269.955 169.98945 
L 269.2575 169.962876 
L 268.56 169.942775 
L 267.8625 169.928468 
L 267.165 169.919193 
L 266.4675 169.914124 
L 265.77 169.912379 
L 265.0725 169.913029 
L 264.375 169.915117 
L 263.6775 169.917665 
L 262.98 169.91969 
L 262.2825 169.920216 
L 261.585 169.918285 
L 260.8875 169.912975 
L 260.19 169.903407 
L 259.4925 169.888758 
L 258.795 169.868277 
L 258.0975 169.841287 
L 257.4 169.807203 
L 256.7025 169.765535 
L 256.005 169.715901 
L 255.3075 169.658027 
L 254.61 169.59176 
L 253.9125 169.517064 
L 253.215 169.434032 
L 252.5175 169.342879 
L 251.82 169.243948 
L 251.1225 169.137706 
L 250.425 169.024743 
L 249.7275 168.905765 
L 249.03 168.781595 
L 248.3325 168.653159 
L 247.635 168.521483 
L 246.9375 168.387682 
L 246.24 168.252953 
L 245.5425 168.118559 
L 244.845 167.985822 
L 244.1475 167.856107 
L 243.45 167.730811 
L 242.7525 167.611349 
L 242.055 167.499136 
L 241.3575 167.395579 
L 240.66 167.302057 
L 239.9625 167.219908 
L 239.265 167.150418 
L 238.5675 167.094801 
L 237.87 167.054191 
L 237.1725 167.029623 
L 236.475 167.022027 
L 235.7775 167.032212 
L 235.08 167.06086 
L 234.3825 167.10851 
L 233.685 167.175555 
L 232.9875 167.262234 
L 232.29 167.368625 
L 231.5925 167.494643 
L 230.895 167.640034 
L 230.1975 167.804377 
L 229.5 167.987082 
L 228.8025 168.187392 
L 228.105 168.404389 
L 227.4075 168.636994 
L 226.71 168.88398 
L 226.0125 169.143971 
L 225.315 169.41546 
L 224.6175 169.696815 
L 223.92 169.986289 
L 223.2225 170.282037 
L 222.525 170.582128 
L 221.8275 170.884561 
L 221.13 171.187276 
L 220.4325 171.488176 
L 219.735 171.785143 
L 219.0375 172.07605 
L 218.34 172.358785 
L 217.6425 172.631264 
L 216.945 172.891448 
L 216.2475 173.137365 
L 215.55 173.367121 
L 214.8525 173.57892 
L 214.155 173.771076 
L 213.4575 173.942032 
L 212.76 174.090369 
L 212.0625 174.214823 
L 211.365 174.314292 
L 210.6675 174.387849 
L 209.97 174.434752 
L 209.2725 174.454445 
L 208.575 174.446571 
L 207.8775 174.410971 
L 207.18 174.34769 
L 206.4825 174.256974 
L 205.785 174.139273 
L 205.0875 173.995233 
L 204.39 173.825698 
L 203.6925 173.631701 
L 202.995 173.414456 
L 202.2975 173.175347 
L 201.6 172.915926 
L 200.9025 172.637889 
L 200.205 172.343075 
L 199.5075 172.033441 
L 198.81 171.711056 
L 198.1125 171.378079 
L 197.415 171.036744 
L 196.7175 170.689343 
L 196.02 170.338206 
L 195.3225 169.985687 
L 194.625 169.634142 
L 193.9275 169.285909 
L 193.23 168.943297 
L 192.5325 168.60856 
L 191.835 168.283885 
L 191.1375 167.971372 
L 190.44 167.673022 
L 189.7425 167.390715 
L 189.045 167.126206 
L 188.3475 166.881101 
L 187.65 166.656853 
L 186.9525 166.454751 
L 186.255 166.275907 
L 185.5575 166.121252 
L 184.86 165.991529 
L 184.1625 165.88729 
L 183.465 165.808894 
L 182.7675 165.7565 
L 182.07 165.730077 
L 181.3725 165.729401 
L 180.675 165.754057 
L 179.9775 165.803451 
L 179.28 165.87681 
L 178.5825 165.973197 
L 177.885 166.091515 
L 177.1875 166.230521 
L 176.49 166.388839 
L 175.7925 166.56497 
L 175.095 166.757311 
L 174.3975 166.964163 
L 173.7 167.183755 
L 173.0025 167.41425 
L 172.305 167.653772 
L 171.6075 167.900414 
L 170.91 168.152258 
L 170.2125 168.407392 
L 169.515 168.663927 
L 168.8175 168.920006 
L 168.12 169.17383 
L 167.4225 169.423664 
L 166.725 169.667853 
L 166.0275 169.904838 
L 165.33 170.133162 
L 164.6325 170.351486 
L 163.935 170.558596 
L 163.2375 170.753411 
L 162.54 170.93499 
L 161.8425 171.102537 
L 161.145 171.255406 
L 160.4475 171.393102 
L 159.75 171.515285 
L 159.0525 171.621764 
L 158.355 171.7125 
L 157.6575 171.787601 
L 156.96 171.847316 
L 156.2625 171.89203 
L 155.565 171.922258 
L 154.8675 171.938633 
L 154.17 171.941901 
L 153.4725 171.932906 
L 152.775 171.912581 
L 152.0775 171.881937 
L 151.38 171.842047 
L 150.6825 171.794037 
L 149.985 171.739068 
L 149.2875 171.678325 
L 148.59 171.613005 
L 147.8925 171.544298 
L 147.195 171.473378 
L 146.4975 171.40139 
L 145.8 171.329434 
L 145.1025 171.258555 
L 144.405 171.189733 
L 143.7075 171.123872 
L 143.01 171.061786 
L 142.3125 171.004199 
L 141.615 170.95173 
L 140.9175 170.904892 
L 140.22 170.864082 
L 139.5225 170.829584 
L 138.825 170.801561 
L 138.1275 170.780058 
L 137.43 170.764999 
L 136.7325 170.756191 
L 136.035 170.753328 
L 135.3375 170.755991 
L 134.64 170.763662 
L 133.9425 170.775719 
L 133.245 170.791456 
L 132.5475 170.810085 
L 131.85 170.830744 
L 131.1525 170.852517 
L 130.455 170.874435 
L 129.7575 170.895494 
L 129.06 170.914668 
L 128.3625 170.930917 
L 127.665 170.943207 
L 126.9675 170.950516 
L 126.27 170.951852 
L 125.5725 170.946265 
L 124.875 170.932859 
L 124.1775 170.910803 
L 123.48 170.879346 
L 122.7825 170.837822 
L 122.085 170.785668 
L 121.3875 170.722426 
L 120.69 170.647754 
L 119.9925 170.561433 
L 119.295 170.463371 
L 118.5975 170.353611 
L 117.9 170.232328 
L 117.2025 170.099839 
L 116.505 169.956595 
L 115.8075 169.803185 
L 115.11 169.640332 
L 114.4125 169.468887 
L 113.715 169.289829 
L 113.0175 169.104252 
L 112.32 168.913362 
L 111.6225 168.718465 
L 110.925 168.520956 
L 110.2275 168.322312 
L 109.53 168.124074 
L 108.8325 167.927837 
L 108.135 167.735237 
L 107.4375 167.547935 
L 106.74 167.367598 
L 106.0425 167.195894 
L 105.345 167.034465 
L 104.6475 166.884919 
L 103.95 166.748812 
L 103.2525 166.627632 
L 102.555 166.522786 
L 101.8575 166.435586 
L 101.16 166.367233 
L 100.4625 166.318805 
L 99.765 166.291246 
L 99.0675 166.285358 
L 98.37 166.301783 
L 97.6725 166.341005 
L 96.975 166.403334 
L 96.2775 166.488908 
L 95.58 166.597682 
L 94.8825 166.729431 
L 94.185 166.883745 
L 93.4875 167.060032 
L 92.79 167.257521 
L 92.0925 167.475261 
L 91.395 167.712132 
L 90.6975 167.966849 
L 90 168.23797 
z
" style="fill:#e0ffff;"/>
   </g>
   <g id="line2d_19">
    <path clip-path="url(#p0e9b754368)" d="M 90 168.23797 
L 92.79 167.257521 
L 94.8825 166.729431 
L 96.975 166.403334 
L 99.0675 166.285358 
L 101.16 166.367233 
L 103.95 166.748812 
L 106.74 167.367598 
L 113.0175 169.104252 
L 116.505 169.956595 
L 119.9925 170.561433 
L 122.7825 170.837822 
L 126.27 170.951852 
L 131.85 170.830744 
L 137.43 170.764999 
L 141.615 170.95173 
L 147.195 171.473378 
L 152.0775 171.881937 
L 154.8675 171.938633 
L 157.6575 171.787601 
L 160.4475 171.393102 
L 163.2375 170.753411 
L 166.725 169.667853 
L 175.7925 166.56497 
L 178.5825 165.973197 
L 180.675 165.754057 
L 182.7675 165.7565 
L 184.86 165.991529 
L 186.9525 166.454751 
L 189.045 167.126206 
L 191.835 168.283885 
L 196.02 170.338206 
L 200.205 172.343075 
L 202.995 173.414456 
L 205.0875 173.995233 
L 207.18 174.34769 
L 209.2725 174.454445 
L 211.365 174.314292 
L 213.4575 173.942032 
L 215.55 173.367121 
L 218.34 172.358785 
L 228.8025 168.187392 
L 231.5925 167.494643 
L 233.685 167.175555 
L 235.7775 167.032212 
L 238.5675 167.094801 
L 241.3575 167.395579 
L 245.5425 168.118559 
L 251.82 169.243948 
L 255.3075 169.658027 
L 258.795 169.868277 
L 263.6775 169.917665 
L 269.955 169.98945 
L 273.4425 170.236694 
L 276.93 170.689009 
L 281.8125 171.574558 
L 286.695 172.438423 
L 289.485 172.745474 
L 292.275 172.81565 
L 294.3675 172.678396 
L 296.46 172.365295 
L 299.25 171.679621 
L 302.04 170.72817 
L 306.225 168.989864 
L 311.1075 166.975907 
L 313.8975 166.087834 
L 315.99 165.636166 
L 318.0825 165.407444 
L 320.175 165.422077 
L 322.2675 165.684828 
L 324.36 166.184203 
L 326.4525 166.893043 
L 329.2425 168.091353 
L 339.0075 172.683023 
L 341.1 173.361246 
L 343.1925 173.832317 
L 345.285 174.075763 
L 347.3775 174.086661 
L 349.47 173.875503 
L 351.5625 173.46691 
L 354.3525 172.679313 
L 358.5375 171.204641 
L 363.42 169.515144 
L 366.21 168.759835 
L 369 168.23503 
L 371.79 167.958755 
L 374.58 167.912261 
L 378.0675 168.100573 
L 390.6225 169.071093 
L 395.505 169.026326 
L 403.1775 168.898086 
L 406.665 169.103924 
L 409.455 169.469038 
L 412.9425 170.178862 
L 417.1275 171.297637 
L 422.7075 172.791742 
L 425.4975 173.310799 
L 427.59 173.521479 
L 429.6825 173.545799 
L 431.775 173.366133 
L 433.8675 172.978436 
L 435.96 172.393254 
L 438.75 171.351017 
L 442.2375 169.76693 
L 447.8175 167.189085 
L 450.6075 166.178213 
L 452.7 165.641659 
L 454.7925 165.334616 
L 456.885 165.276956 
L 458.9775 165.472402 
L 461.07 165.908255 
L 463.1625 166.556326 
L 465.9525 167.677066 
L 470.835 169.977797 
L 474.3225 171.531869 
L 477.1125 172.529902 
L 479.205 173.074086 
L 481.2975 173.417453 
L 483.39 173.55265 
L 485.4825 173.486781 
L 488.2725 173.122939 
L 491.0625 172.516202 
L 496.6425 170.975039 
L 500.8275 169.92083 
L 504.315 169.301981 
L 507.105 169.0142 
L 510.5925 168.88886 
L 515.475 168.981979 
L 521.7525 169.077779 
L 525.9375 168.900525 
L 531.5175 168.384563 
L 536.4 167.967212 
L 539.8875 167.912377 
L 542.6775 168.107266 
L 545.4675 168.548732 
L 548.2575 169.231508 
L 551.745 170.354697 
L 560.115 173.228399 
L 562.905 173.839233 
L 564.9975 174.075886 
L 567.09 174.092535 
L 569.1825 173.876937 
L 571.275 173.43218 
L 573.3675 172.776949 
L 576.1575 171.635463 
L 580.3425 169.589886 
L 584.5275 167.573023 
L 587.3175 166.48333 
L 589.41 165.884798 
L 591.5025 165.512431 
L 593.595 165.38493 
L 595.6875 165.504857 
L 597.78 165.858711 
L 599.8725 166.418178 
L 602.6625 167.412053 
L 607.545 169.48327 
L 611.0325 170.892185 
L 613.8225 171.804458 
L 616.6125 172.441703 
L 618.705 172.716559 
L 620.7975 172.817123 
L 623.5875 172.704832 
L 626.3775 172.367619 
L 631.26 171.485962 
L 636.84 170.521141 
L 640.3275 170.137787 
L 643.815 169.955787 
L 646.605 169.92 
L 646.605 169.92 
" style="fill:none;stroke:#008080;stroke-linecap:round;stroke-width:1.75;"/>
   </g>
   <g id="patch_3">
    <path d="M 90 270.72 
L 90 69.12 
" style="fill:none;stroke:#262626;stroke-linecap:square;stroke-linejoin:miter;stroke-width:1.25;"/>
   </g>
   <g id="patch_4">
    <path d="M 90 270.72 
L 648 270.72 
" style="fill:none;stroke:#262626;stroke-linecap:square;stroke-linejoin:miter;stroke-width:1.25;"/>
   </g>
  </g>
  <g id="axes_2">
   <g id="patch_5">
    <path d="M 90 512.64 
L 648 512.64 
L 648 311.04 
L 90 311.04 
z
" style="fill:#ffffff;"/>
   </g>
   <g id="matplotlib.axis_3">
    <g id="xtick_10">
     <g id="line2d_20">
      <g>
       <use style="fill:#262626;stroke:#262626;" x="190.44" xlink:href="#mb496303e55" y="512.64"/>
      </g>
     </g>
     <g id="text_19">
      <!-- 200 -->
      <g style="fill:#262626;" transform="translate(182.098594 532.797812)scale(0.1 -0.1)">
       <use xlink:href="#ArialMT-32"/>
       <use x="55.615234" xlink:href="#ArialMT-30"/>
       <use x="111.230469" xlink:href="#ArialMT-30"/>
      </g>
     </g>
    </g>
    <g id="xtick_11">
     <g id="line2d_21">
      <g>
       <use style="fill:#262626;stroke:#262626;" x="302.04" xlink:href="#mb496303e55" y="512.64"/>
      </g>
     </g>
     <g id="text_20">
      <!-- 400 -->
      <g style="fill:#262626;" transform="translate(293.698594 532.797812)scale(0.1 -0.1)">
       <use xlink:href="#ArialMT-34"/>
       <use x="55.615234" xlink:href="#ArialMT-30"/>
       <use x="111.230469" xlink:href="#ArialMT-30"/>
      </g>
     </g>
    </g>
    <g id="xtick_12">
     <g id="line2d_22">
      <g>
       <use style="fill:#262626;stroke:#262626;" x="413.64" xlink:href="#mb496303e55" y="512.64"/>
      </g>
     </g>
     <g id="text_21">
      <!-- 600 -->
      <g style="fill:#262626;" transform="translate(405.298594 532.797812)scale(0.1 -0.1)">
       <use xlink:href="#ArialMT-36"/>
       <use x="55.615234" xlink:href="#ArialMT-30"/>
       <use x="111.230469" xlink:href="#ArialMT-30"/>
      </g>
     </g>
    </g>
    <g id="xtick_13">
     <g id="line2d_23">
      <g>
       <use style="fill:#262626;stroke:#262626;" x="525.24" xlink:href="#mb496303e55" y="512.64"/>
      </g>
     </g>
     <g id="text_22">
      <!-- 800 -->
      <g style="fill:#262626;" transform="translate(516.898594 532.797812)scale(0.1 -0.1)">
       <use xlink:href="#ArialMT-38"/>
       <use x="55.615234" xlink:href="#ArialMT-30"/>
       <use x="111.230469" xlink:href="#ArialMT-30"/>
      </g>
     </g>
    </g>
    <g id="xtick_14">
     <g id="line2d_24">
      <g>
       <use style="fill:#262626;stroke:#262626;" x="636.84" xlink:href="#mb496303e55" y="512.64"/>
      </g>
     </g>
     <g id="text_23">
      <!-- 1000 -->
      <g style="fill:#262626;" transform="translate(625.718125 532.797812)scale(0.1 -0.1)">
       <use xlink:href="#ArialMT-31"/>
       <use x="55.615234" xlink:href="#ArialMT-30"/>
       <use x="111.230469" xlink:href="#ArialMT-30"/>
       <use x="166.845703" xlink:href="#ArialMT-30"/>
      </g>
     </g>
    </g>
   </g>
   <g id="matplotlib.axis_4">
    <g id="ytick_10">
     <g id="line2d_25">
      <g>
       <use style="fill:#262626;stroke:#262626;" x="90" xlink:href="#meee967c1d7" y="512.64"/>
      </g>
     </g>
     <g id="text_24">
      <!-- 0 -->
      <g style="fill:#262626;" transform="translate(71.439063 516.218906)scale(0.1 -0.1)">
       <use xlink:href="#ArialMT-30"/>
      </g>
     </g>
    </g>
    <g id="ytick_11">
     <g id="line2d_26">
      <g>
       <use style="fill:#262626;stroke:#262626;" x="90" xlink:href="#meee967c1d7" y="483.84"/>
      </g>
     </g>
     <g id="text_25">
      <!-- 10 -->
      <g style="fill:#262626;" transform="translate(65.878125 487.418906)scale(0.1 -0.1)">
       <use xlink:href="#ArialMT-31"/>
       <use x="55.615234" xlink:href="#ArialMT-30"/>
      </g>
     </g>
    </g>
    <g id="ytick_12">
     <g id="line2d_27">
      <g>
       <use style="fill:#262626;stroke:#262626;" x="90" xlink:href="#meee967c1d7" y="455.04"/>
      </g>
     </g>
     <g id="text_26">
      <!-- 20 -->
      <g style="fill:#262626;" transform="translate(65.878125 458.618906)scale(0.1 -0.1)">
       <use xlink:href="#ArialMT-32"/>
       <use x="55.615234" xlink:href="#ArialMT-30"/>
      </g>
     </g>
    </g>
    <g id="ytick_13">
     <g id="line2d_28">
      <g>
       <use style="fill:#262626;stroke:#262626;" x="90" xlink:href="#meee967c1d7" y="426.24"/>
      </g>
     </g>
     <g id="text_27">
      <!-- 30 -->
      <g style="fill:#262626;" transform="translate(65.878125 429.818906)scale(0.1 -0.1)">
       <use xlink:href="#ArialMT-33"/>
       <use x="55.615234" xlink:href="#ArialMT-30"/>
      </g>
     </g>
    </g>
    <g id="ytick_14">
     <g id="line2d_29">
      <g>
       <use style="fill:#262626;stroke:#262626;" x="90" xlink:href="#meee967c1d7" y="397.44"/>
      </g>
     </g>
     <g id="text_28">
      <!-- 40 -->
      <g style="fill:#262626;" transform="translate(65.878125 401.018906)scale(0.1 -0.1)">
       <use xlink:href="#ArialMT-34"/>
       <use x="55.615234" xlink:href="#ArialMT-30"/>
      </g>
     </g>
    </g>
    <g id="ytick_15">
     <g id="line2d_30">
      <g>
       <use style="fill:#262626;stroke:#262626;" x="90" xlink:href="#meee967c1d7" y="368.64"/>
      </g>
     </g>
     <g id="text_29">
      <!-- 50 -->
      <g style="fill:#262626;" transform="translate(65.878125 372.218906)scale(0.1 -0.1)">
       <use xlink:href="#ArialMT-35"/>
       <use x="55.615234" xlink:href="#ArialMT-30"/>
      </g>
     </g>
    </g>
    <g id="ytick_16">
     <g id="line2d_31">
      <g>
       <use style="fill:#262626;stroke:#262626;" x="90" xlink:href="#meee967c1d7" y="339.84"/>
      </g>
     </g>
     <g id="text_30">
      <!-- 60 -->
      <g style="fill:#262626;" transform="translate(65.878125 343.418906)scale(0.1 -0.1)">
       <use xlink:href="#ArialMT-36"/>
       <use x="55.615234" xlink:href="#ArialMT-30"/>
      </g>
     </g>
    </g>
    <g id="ytick_17">
     <g id="line2d_32">
      <g>
       <use style="fill:#262626;stroke:#262626;" x="90" xlink:href="#meee967c1d7" y="311.04"/>
      </g>
     </g>
     <g id="text_31">
      <!-- 70 -->
      <g style="fill:#262626;" transform="translate(65.878125 314.618906)scale(0.1 -0.1)">
       <use xlink:href="#ArialMT-37"/>
       <use x="55.615234" xlink:href="#ArialMT-30"/>
      </g>
     </g>
    </g>
   </g>
   <g id="line2d_33">
    <path clip-path="url(#p36c08c4643)" d="M 90 495.208 
L 101.16 496.246355 
L 112.32 497.676438 
L 123.48 496.773624 
L 134.64 495.319457 
L 145.8 494.970857 
L 156.96 496.496469 
L 168.12 493.948302 
L 179.28 491.922563 
L 190.44 492.701338 
L 201.6 493.08264 
L 212.76 488.265624 
L 223.92 486.884007 
L 235.08 484.919609 
L 246.24 481.076037 
L 257.4 476.781513 
L 268.56 466.885099 
L 279.72 461.735001 
L 290.88 446.632864 
L 302.04 392.641353 
L 313.2 347.842084 
L 324.36 327.210442 
L 335.52 347.127932 
L 346.68 397.986588 
L 357.84 448.123679 
L 369 461.866051 
L 380.16 470.857725 
L 391.32 480.686219 
L 402.48 482.14059 
L 413.64 486.68837 
L 424.8 491.849661 
L 435.96 491.68536 
L 447.12 493.461916 
L 458.28 496.485392 
" style="fill:none;stroke:#b22222;stroke-linecap:round;stroke-width:1.75;"/>
   </g>
   <g id="patch_6">
    <path d="M 90 512.64 
L 90 311.04 
" style="fill:none;stroke:#262626;stroke-linecap:square;stroke-linejoin:miter;stroke-width:1.25;"/>
   </g>
   <g id="patch_7">
    <path d="M 90 512.64 
L 648 512.64 
" style="fill:none;stroke:#262626;stroke-linecap:square;stroke-linejoin:miter;stroke-width:1.25;"/>
   </g>
   <g id="text_32">
    <!-- f = 680 -->
    <defs>
     <path d="M 8.6875 0 
L 8.6875 45.015625 
L 0.921875 45.015625 
L 0.921875 51.859375 
L 8.6875 51.859375 
L 8.6875 57.375 
Q 8.6875 62.59375 9.625 65.140625 
Q 10.890625 68.5625 14.078125 70.671875 
Q 17.28125 72.796875 23.046875 72.796875 
Q 26.765625 72.796875 31.25 71.921875 
L 29.9375 64.265625 
Q 27.203125 64.75 24.75 64.75 
Q 20.75 64.75 19.09375 63.03125 
Q 17.4375 61.328125 17.4375 56.640625 
L 17.4375 51.859375 
L 27.546875 51.859375 
L 27.546875 45.015625 
L 17.4375 45.015625 
L 17.4375 0 
z
" id="ArialMT-66"/>
     <path id="ArialMT-20"/>
     <path d="M 52.828125 42.09375 
L 5.5625 42.09375 
L 5.5625 50.296875 
L 52.828125 50.296875 
z
M 52.828125 20.359375 
L 5.5625 20.359375 
L 5.5625 28.5625 
L 52.828125 28.5625 
z
" id="ArialMT-3d"/>
    </defs>
    <g style="fill:#262626;" transform="translate(525.24 371.742188)scale(0.12 -0.12)">
     <use xlink:href="#ArialMT-66"/>
     <use x="27.783203" xlink:href="#ArialMT-20"/>
     <use x="55.566406" xlink:href="#ArialMT-3d"/>
     <use x="113.964844" xlink:href="#ArialMT-20"/>
     <use x="141.748047" xlink:href="#ArialMT-36"/>
     <use x="197.363281" xlink:href="#ArialMT-38"/>
     <use x="252.978516" xlink:href="#ArialMT-30"/>
    </g>
   </g>
   <g id="PathCollection_1">
    <defs>
     <path d="M 0 3.5 
C 0.928211 3.5 1.81853 3.131218 2.474874 2.474874 
C 3.131218 1.81853 3.5 0.928211 3.5 0 
C 3.5 -0.928211 3.131218 -1.81853 2.474874 -2.474874 
C 1.81853 -3.131218 0.928211 -3.5 0 -3.5 
C -0.928211 -3.5 -1.81853 -3.131218 -2.474874 -2.474874 
C -3.131218 -1.81853 -3.5 -0.928211 -3.5 0 
C -3.5 0.928211 -3.131218 1.81853 -2.474874 2.474874 
C -1.81853 3.131218 -0.928211 3.5 0 3.5 
z
" id="m2a59b1c255" style="stroke:#800000;stroke-width:0.3;"/>
    </defs>
    <g clip-path="url(#p36c08c4643)">
     <use style="fill:#800000;stroke:#800000;stroke-width:0.3;" x="458.28" xlink:href="#m2a59b1c255" y="496.485392"/>
    </g>
   </g>
  </g>
 </g>
 <defs>
  <clipPath id="p0e9b754368">
   <rect height="201.6" width="558" x="90" y="69.12"/>
  </clipPath>
  <clipPath id="p36c08c4643">
   <rect height="201.6" width="558" x="90" y="311.04"/>
  </clipPath>
 </defs>
</svg>
