<?xml version="1.0" encoding="utf-8" standalone="no"?>
<!DOCTYPE svg PUBLIC "-//W3C//DTD SVG 1.1//EN"
  "http://www.w3.org/Graphics/SVG/1.1/DTD/svg11.dtd">
<!-- Created with matplotlib (http://matplotlib.org/) -->
<svg height="576pt" version="1.1" viewBox="0 0 720 576" width="720pt" xmlns="http://www.w3.org/2000/svg" xmlns:xlink="http://www.w3.org/1999/xlink">
 <defs>
  <style type="text/css">
*{stroke-linecap:butt;stroke-linejoin:round;}
  </style>
 </defs>
 <g id="figure_1">
  <g id="patch_1">
   <path d="M 0 576 
L 720 576 
L 720 0 
L 0 0 
z
" style="fill:#ffffff;"/>
  </g>
  <g id="axes_1">
   <g id="patch_2">
    <path d="M 90 270.72 
L 648 270.72 
L 648 69.12 
L 90 69.12 
z
" style="fill:#ffffff;"/>
   </g>
   <g id="matplotlib.axis_1">
    <g id="xtick_1">
     <g id="line2d_1">
      <defs>
       <path d="M 0 0 
L 0 6 
" id="ma7ae875aeb" style="stroke:#262626;"/>
      </defs>
      <g>
       <use style="fill:#262626;stroke:#262626;" x="90" xlink:href="#ma7ae875aeb" y="270.72"/>
      </g>
     </g>
     <g id="text_1">
      <!-- 0 -->
      <defs>
       <path d="M 4.15625 35.296875 
Q 4.15625 48 6.765625 55.734375 
Q 9.375 63.484375 14.515625 67.671875 
Q 19.671875 71.875 27.484375 71.875 
Q 33.25 71.875 37.59375 69.546875 
Q 41.9375 67.234375 44.765625 62.859375 
Q 47.609375 58.5 49.21875 52.21875 
Q 50.828125 45.953125 50.828125 35.296875 
Q 50.828125 22.703125 48.234375 14.96875 
Q 45.65625 7.234375 40.5 3 
Q 35.359375 -1.21875 27.484375 -1.21875 
Q 17.140625 -1.21875 11.234375 6.203125 
Q 4.15625 15.140625 4.15625 35.296875 
z
M 13.1875 35.296875 
Q 13.1875 17.671875 17.3125 11.828125 
Q 21.4375 6 27.484375 6 
Q 33.546875 6 37.671875 11.859375 
Q 41.796875 17.71875 41.796875 35.296875 
Q 41.796875 52.984375 37.671875 58.78125 
Q 33.546875 64.59375 27.390625 64.59375 
Q 21.34375 64.59375 17.71875 59.46875 
Q 13.1875 52.9375 13.1875 35.296875 
z
" id="ArialMT-30"/>
      </defs>
      <g style="fill:#262626;" transform="translate(87.219531 290.877812)scale(0.1 -0.1)">
       <use xlink:href="#ArialMT-30"/>
      </g>
     </g>
    </g>
    <g id="xtick_2">
     <g id="line2d_2">
      <g>
       <use style="fill:#262626;stroke:#262626;" x="159.75" xlink:href="#ma7ae875aeb" y="270.72"/>
      </g>
     </g>
     <g id="text_2">
      <!-- 100 -->
      <defs>
       <path d="M 37.25 0 
L 28.46875 0 
L 28.46875 56 
Q 25.296875 52.984375 20.140625 49.953125 
Q 14.984375 46.921875 10.890625 45.40625 
L 10.890625 53.90625 
Q 18.265625 57.375 23.78125 62.296875 
Q 29.296875 67.234375 31.59375 71.875 
L 37.25 71.875 
z
" id="ArialMT-31"/>
      </defs>
      <g style="fill:#262626;" transform="translate(151.408594 290.877812)scale(0.1 -0.1)">
       <use xlink:href="#ArialMT-31"/>
       <use x="55.615234" xlink:href="#ArialMT-30"/>
       <use x="111.230469" xlink:href="#ArialMT-30"/>
      </g>
     </g>
    </g>
    <g id="xtick_3">
     <g id="line2d_3">
      <g>
       <use style="fill:#262626;stroke:#262626;" x="229.5" xlink:href="#ma7ae875aeb" y="270.72"/>
      </g>
     </g>
     <g id="text_3">
      <!-- 200 -->
      <defs>
       <path d="M 50.34375 8.453125 
L 50.34375 0 
L 3.03125 0 
Q 2.9375 3.171875 4.046875 6.109375 
Q 5.859375 10.9375 9.828125 15.625 
Q 13.8125 20.3125 21.34375 26.46875 
Q 33.015625 36.03125 37.109375 41.625 
Q 41.21875 47.21875 41.21875 52.203125 
Q 41.21875 57.421875 37.46875 61 
Q 33.734375 64.59375 27.734375 64.59375 
Q 21.390625 64.59375 17.578125 60.78125 
Q 13.765625 56.984375 13.71875 50.25 
L 4.6875 51.171875 
Q 5.609375 61.28125 11.65625 66.578125 
Q 17.71875 71.875 27.9375 71.875 
Q 38.234375 71.875 44.234375 66.15625 
Q 50.25 60.453125 50.25 52 
Q 50.25 47.703125 48.484375 43.546875 
Q 46.734375 39.40625 42.65625 34.8125 
Q 38.578125 30.21875 29.109375 22.21875 
Q 21.1875 15.578125 18.9375 13.203125 
Q 16.703125 10.84375 15.234375 8.453125 
z
" id="ArialMT-32"/>
      </defs>
      <g style="fill:#262626;" transform="translate(221.158594 290.877812)scale(0.1 -0.1)">
       <use xlink:href="#ArialMT-32"/>
       <use x="55.615234" xlink:href="#ArialMT-30"/>
       <use x="111.230469" xlink:href="#ArialMT-30"/>
      </g>
     </g>
    </g>
    <g id="xtick_4">
     <g id="line2d_4">
      <g>
       <use style="fill:#262626;stroke:#262626;" x="299.25" xlink:href="#ma7ae875aeb" y="270.72"/>
      </g>
     </g>
     <g id="text_4">
      <!-- 300 -->
      <defs>
       <path d="M 4.203125 18.890625 
L 12.984375 20.0625 
Q 14.5 12.59375 18.140625 9.296875 
Q 21.78125 6 27 6 
Q 33.203125 6 37.46875 10.296875 
Q 41.75 14.59375 41.75 20.953125 
Q 41.75 27 37.796875 30.921875 
Q 33.84375 34.859375 27.734375 34.859375 
Q 25.25 34.859375 21.53125 33.890625 
L 22.515625 41.609375 
Q 23.390625 41.5 23.921875 41.5 
Q 29.546875 41.5 34.03125 44.421875 
Q 38.53125 47.359375 38.53125 53.46875 
Q 38.53125 58.296875 35.25 61.46875 
Q 31.984375 64.65625 26.8125 64.65625 
Q 21.6875 64.65625 18.265625 61.421875 
Q 14.84375 58.203125 13.875 51.765625 
L 5.078125 53.328125 
Q 6.6875 62.15625 12.390625 67.015625 
Q 18.109375 71.875 26.609375 71.875 
Q 32.46875 71.875 37.390625 69.359375 
Q 42.328125 66.84375 44.9375 62.5 
Q 47.5625 58.15625 47.5625 53.265625 
Q 47.5625 48.640625 45.0625 44.828125 
Q 42.578125 41.015625 37.703125 38.765625 
Q 44.046875 37.3125 47.5625 32.6875 
Q 51.078125 28.078125 51.078125 21.140625 
Q 51.078125 11.765625 44.234375 5.25 
Q 37.40625 -1.265625 26.953125 -1.265625 
Q 17.53125 -1.265625 11.296875 4.34375 
Q 5.078125 9.96875 4.203125 18.890625 
z
" id="ArialMT-33"/>
      </defs>
      <g style="fill:#262626;" transform="translate(290.908594 290.877812)scale(0.1 -0.1)">
       <use xlink:href="#ArialMT-33"/>
       <use x="55.615234" xlink:href="#ArialMT-30"/>
       <use x="111.230469" xlink:href="#ArialMT-30"/>
      </g>
     </g>
    </g>
    <g id="xtick_5">
     <g id="line2d_5">
      <g>
       <use style="fill:#262626;stroke:#262626;" x="369" xlink:href="#ma7ae875aeb" y="270.72"/>
      </g>
     </g>
     <g id="text_5">
      <!-- 400 -->
      <defs>
       <path d="M 32.328125 0 
L 32.328125 17.140625 
L 1.265625 17.140625 
L 1.265625 25.203125 
L 33.9375 71.578125 
L 41.109375 71.578125 
L 41.109375 25.203125 
L 50.78125 25.203125 
L 50.78125 17.140625 
L 41.109375 17.140625 
L 41.109375 0 
z
M 32.328125 25.203125 
L 32.328125 57.46875 
L 9.90625 25.203125 
z
" id="ArialMT-34"/>
      </defs>
      <g style="fill:#262626;" transform="translate(360.658594 290.877812)scale(0.1 -0.1)">
       <use xlink:href="#ArialMT-34"/>
       <use x="55.615234" xlink:href="#ArialMT-30"/>
       <use x="111.230469" xlink:href="#ArialMT-30"/>
      </g>
     </g>
    </g>
    <g id="xtick_6">
     <g id="line2d_6">
      <g>
       <use style="fill:#262626;stroke:#262626;" x="438.75" xlink:href="#ma7ae875aeb" y="270.72"/>
      </g>
     </g>
     <g id="text_6">
      <!-- 500 -->
      <defs>
       <path d="M 4.15625 18.75 
L 13.375 19.53125 
Q 14.40625 12.796875 18.140625 9.390625 
Q 21.875 6 27.15625 6 
Q 33.5 6 37.890625 10.78125 
Q 42.28125 15.578125 42.28125 23.484375 
Q 42.28125 31 38.0625 35.34375 
Q 33.84375 39.703125 27 39.703125 
Q 22.75 39.703125 19.328125 37.765625 
Q 15.921875 35.84375 13.96875 32.765625 
L 5.71875 33.84375 
L 12.640625 70.609375 
L 48.25 70.609375 
L 48.25 62.203125 
L 19.671875 62.203125 
L 15.828125 42.96875 
Q 22.265625 47.46875 29.34375 47.46875 
Q 38.71875 47.46875 45.15625 40.96875 
Q 51.609375 34.46875 51.609375 24.265625 
Q 51.609375 14.546875 45.953125 7.46875 
Q 39.0625 -1.21875 27.15625 -1.21875 
Q 17.390625 -1.21875 11.203125 4.25 
Q 5.03125 9.71875 4.15625 18.75 
z
" id="ArialMT-35"/>
      </defs>
      <g style="fill:#262626;" transform="translate(430.408594 290.877812)scale(0.1 -0.1)">
       <use xlink:href="#ArialMT-35"/>
       <use x="55.615234" xlink:href="#ArialMT-30"/>
       <use x="111.230469" xlink:href="#ArialMT-30"/>
      </g>
     </g>
    </g>
    <g id="xtick_7">
     <g id="line2d_7">
      <g>
       <use style="fill:#262626;stroke:#262626;" x="508.5" xlink:href="#ma7ae875aeb" y="270.72"/>
      </g>
     </g>
     <g id="text_7">
      <!-- 600 -->
      <defs>
       <path d="M 49.75 54.046875 
L 41.015625 53.375 
Q 39.84375 58.546875 37.703125 60.890625 
Q 34.125 64.65625 28.90625 64.65625 
Q 24.703125 64.65625 21.53125 62.3125 
Q 17.390625 59.28125 14.984375 53.46875 
Q 12.59375 47.65625 12.5 36.921875 
Q 15.671875 41.75 20.265625 44.09375 
Q 24.859375 46.4375 29.890625 46.4375 
Q 38.671875 46.4375 44.84375 39.96875 
Q 51.03125 33.5 51.03125 23.25 
Q 51.03125 16.5 48.125 10.71875 
Q 45.21875 4.9375 40.140625 1.859375 
Q 35.0625 -1.21875 28.609375 -1.21875 
Q 17.625 -1.21875 10.6875 6.859375 
Q 3.765625 14.9375 3.765625 33.5 
Q 3.765625 54.25 11.421875 63.671875 
Q 18.109375 71.875 29.4375 71.875 
Q 37.890625 71.875 43.28125 67.140625 
Q 48.6875 62.40625 49.75 54.046875 
z
M 13.875 23.1875 
Q 13.875 18.65625 15.796875 14.5 
Q 17.71875 10.359375 21.1875 8.171875 
Q 24.65625 6 28.46875 6 
Q 34.03125 6 38.03125 10.484375 
Q 42.046875 14.984375 42.046875 22.703125 
Q 42.046875 30.125 38.078125 34.390625 
Q 34.125 38.671875 28.125 38.671875 
Q 22.171875 38.671875 18.015625 34.390625 
Q 13.875 30.125 13.875 23.1875 
z
" id="ArialMT-36"/>
      </defs>
      <g style="fill:#262626;" transform="translate(500.158594 290.877812)scale(0.1 -0.1)">
       <use xlink:href="#ArialMT-36"/>
       <use x="55.615234" xlink:href="#ArialMT-30"/>
       <use x="111.230469" xlink:href="#ArialMT-30"/>
      </g>
     </g>
    </g>
    <g id="xtick_8">
     <g id="line2d_8">
      <g>
       <use style="fill:#262626;stroke:#262626;" x="578.25" xlink:href="#ma7ae875aeb" y="270.72"/>
      </g>
     </g>
     <g id="text_8">
      <!-- 700 -->
      <defs>
       <path d="M 4.734375 62.203125 
L 4.734375 70.65625 
L 51.078125 70.65625 
L 51.078125 63.8125 
Q 44.234375 56.546875 37.515625 44.484375 
Q 30.8125 32.421875 27.15625 19.671875 
Q 24.515625 10.6875 23.78125 0 
L 14.75 0 
Q 14.890625 8.453125 18.0625 20.40625 
Q 21.234375 32.375 27.171875 43.484375 
Q 33.109375 54.59375 39.796875 62.203125 
z
" id="ArialMT-37"/>
      </defs>
      <g style="fill:#262626;" transform="translate(569.908594 290.877812)scale(0.1 -0.1)">
       <use xlink:href="#ArialMT-37"/>
       <use x="55.615234" xlink:href="#ArialMT-30"/>
       <use x="111.230469" xlink:href="#ArialMT-30"/>
      </g>
     </g>
    </g>
    <g id="xtick_9">
     <g id="line2d_9">
      <g>
       <use style="fill:#262626;stroke:#262626;" x="648" xlink:href="#ma7ae875aeb" y="270.72"/>
      </g>
     </g>
     <g id="text_9">
      <!-- 800 -->
      <defs>
       <path d="M 17.671875 38.8125 
Q 12.203125 40.828125 9.5625 44.53125 
Q 6.9375 48.25 6.9375 53.421875 
Q 6.9375 61.234375 12.546875 66.546875 
Q 18.171875 71.875 27.484375 71.875 
Q 36.859375 71.875 42.578125 66.421875 
Q 48.296875 60.984375 48.296875 53.171875 
Q 48.296875 48.1875 45.671875 44.5 
Q 43.0625 40.828125 37.75 38.8125 
Q 44.34375 36.671875 47.78125 31.875 
Q 51.21875 27.09375 51.21875 20.453125 
Q 51.21875 11.28125 44.71875 5.03125 
Q 38.234375 -1.21875 27.640625 -1.21875 
Q 17.046875 -1.21875 10.546875 5.046875 
Q 4.046875 11.328125 4.046875 20.703125 
Q 4.046875 27.6875 7.59375 32.390625 
Q 11.140625 37.109375 17.671875 38.8125 
z
M 15.921875 53.71875 
Q 15.921875 48.640625 19.1875 45.40625 
Q 22.46875 42.1875 27.6875 42.1875 
Q 32.765625 42.1875 36.015625 45.375 
Q 39.265625 48.578125 39.265625 53.21875 
Q 39.265625 58.0625 35.90625 61.359375 
Q 32.5625 64.65625 27.59375 64.65625 
Q 22.5625 64.65625 19.234375 61.421875 
Q 15.921875 58.203125 15.921875 53.71875 
z
M 13.09375 20.65625 
Q 13.09375 16.890625 14.875 13.375 
Q 16.65625 9.859375 20.171875 7.921875 
Q 23.6875 6 27.734375 6 
Q 34.03125 6 38.125 10.046875 
Q 42.234375 14.109375 42.234375 20.359375 
Q 42.234375 26.703125 38.015625 30.859375 
Q 33.796875 35.015625 27.4375 35.015625 
Q 21.234375 35.015625 17.15625 30.90625 
Q 13.09375 26.8125 13.09375 20.65625 
z
" id="ArialMT-38"/>
      </defs>
      <g style="fill:#262626;" transform="translate(639.658594 290.877812)scale(0.1 -0.1)">
       <use xlink:href="#ArialMT-38"/>
       <use x="55.615234" xlink:href="#ArialMT-30"/>
       <use x="111.230469" xlink:href="#ArialMT-30"/>
      </g>
     </g>
    </g>
   </g>
   <g id="matplotlib.axis_2">
    <g id="ytick_1">
     <g id="line2d_10">
      <defs>
       <path d="M 0 0 
L -6 0 
" id="m32765208dc" style="stroke:#262626;"/>
      </defs>
      <g>
       <use style="fill:#262626;stroke:#262626;" x="90" xlink:href="#m32765208dc" y="270.72"/>
      </g>
     </g>
     <g id="text_10">
      <!-- −0.20 -->
      <defs>
       <path d="M 52.828125 31.203125 
L 5.5625 31.203125 
L 5.5625 39.40625 
L 52.828125 39.40625 
z
" id="ArialMT-2212"/>
       <path d="M 9.078125 0 
L 9.078125 10.015625 
L 19.09375 10.015625 
L 19.09375 0 
z
" id="ArialMT-2e"/>
      </defs>
      <g style="fill:#262626;" transform="translate(51.698437 274.298906)scale(0.1 -0.1)">
       <use xlink:href="#ArialMT-2212"/>
       <use x="58.398438" xlink:href="#ArialMT-30"/>
       <use x="114.013672" xlink:href="#ArialMT-2e"/>
       <use x="141.796875" xlink:href="#ArialMT-32"/>
       <use x="197.412109" xlink:href="#ArialMT-30"/>
      </g>
     </g>
    </g>
    <g id="ytick_2">
     <g id="line2d_11">
      <g>
       <use style="fill:#262626;stroke:#262626;" x="90" xlink:href="#m32765208dc" y="245.52"/>
      </g>
     </g>
     <g id="text_11">
      <!-- −0.15 -->
      <g style="fill:#262626;" transform="translate(51.698437 249.098906)scale(0.1 -0.1)">
       <use xlink:href="#ArialMT-2212"/>
       <use x="58.398438" xlink:href="#ArialMT-30"/>
       <use x="114.013672" xlink:href="#ArialMT-2e"/>
       <use x="141.796875" xlink:href="#ArialMT-31"/>
       <use x="197.412109" xlink:href="#ArialMT-35"/>
      </g>
     </g>
    </g>
    <g id="ytick_3">
     <g id="line2d_12">
      <g>
       <use style="fill:#262626;stroke:#262626;" x="90" xlink:href="#m32765208dc" y="220.32"/>
      </g>
     </g>
     <g id="text_12">
      <!-- −0.10 -->
      <g style="fill:#262626;" transform="translate(51.698437 223.898906)scale(0.1 -0.1)">
       <use xlink:href="#ArialMT-2212"/>
       <use x="58.398438" xlink:href="#ArialMT-30"/>
       <use x="114.013672" xlink:href="#ArialMT-2e"/>
       <use x="141.796875" xlink:href="#ArialMT-31"/>
       <use x="197.412109" xlink:href="#ArialMT-30"/>
      </g>
     </g>
    </g>
    <g id="ytick_4">
     <g id="line2d_13">
      <g>
       <use style="fill:#262626;stroke:#262626;" x="90" xlink:href="#m32765208dc" y="195.12"/>
      </g>
     </g>
     <g id="text_13">
      <!-- −0.05 -->
      <g style="fill:#262626;" transform="translate(51.698437 198.698906)scale(0.1 -0.1)">
       <use xlink:href="#ArialMT-2212"/>
       <use x="58.398438" xlink:href="#ArialMT-30"/>
       <use x="114.013672" xlink:href="#ArialMT-2e"/>
       <use x="141.796875" xlink:href="#ArialMT-30"/>
       <use x="197.412109" xlink:href="#ArialMT-35"/>
      </g>
     </g>
    </g>
    <g id="ytick_5">
     <g id="line2d_14">
      <g>
       <use style="fill:#262626;stroke:#262626;" x="90" xlink:href="#m32765208dc" y="169.92"/>
      </g>
     </g>
     <g id="text_14">
      <!-- 0.00 -->
      <g style="fill:#262626;" transform="translate(57.539062 173.498906)scale(0.1 -0.1)">
       <use xlink:href="#ArialMT-30"/>
       <use x="55.615234" xlink:href="#ArialMT-2e"/>
       <use x="83.398438" xlink:href="#ArialMT-30"/>
       <use x="139.013672" xlink:href="#ArialMT-30"/>
      </g>
     </g>
    </g>
    <g id="ytick_6">
     <g id="line2d_15">
      <g>
       <use style="fill:#262626;stroke:#262626;" x="90" xlink:href="#m32765208dc" y="144.72"/>
      </g>
     </g>
     <g id="text_15">
      <!-- 0.05 -->
      <g style="fill:#262626;" transform="translate(57.539062 148.298906)scale(0.1 -0.1)">
       <use xlink:href="#ArialMT-30"/>
       <use x="55.615234" xlink:href="#ArialMT-2e"/>
       <use x="83.398438" xlink:href="#ArialMT-30"/>
       <use x="139.013672" xlink:href="#ArialMT-35"/>
      </g>
     </g>
    </g>
    <g id="ytick_7">
     <g id="line2d_16">
      <g>
       <use style="fill:#262626;stroke:#262626;" x="90" xlink:href="#m32765208dc" y="119.52"/>
      </g>
     </g>
     <g id="text_16">
      <!-- 0.10 -->
      <g style="fill:#262626;" transform="translate(57.539062 123.098906)scale(0.1 -0.1)">
       <use xlink:href="#ArialMT-30"/>
       <use x="55.615234" xlink:href="#ArialMT-2e"/>
       <use x="83.398438" xlink:href="#ArialMT-31"/>
       <use x="139.013672" xlink:href="#ArialMT-30"/>
      </g>
     </g>
    </g>
    <g id="ytick_8">
     <g id="line2d_17">
      <g>
       <use style="fill:#262626;stroke:#262626;" x="90" xlink:href="#m32765208dc" y="94.32"/>
      </g>
     </g>
     <g id="text_17">
      <!-- 0.15 -->
      <g style="fill:#262626;" transform="translate(57.539062 97.898906)scale(0.1 -0.1)">
       <use xlink:href="#ArialMT-30"/>
       <use x="55.615234" xlink:href="#ArialMT-2e"/>
       <use x="83.398438" xlink:href="#ArialMT-31"/>
       <use x="139.013672" xlink:href="#ArialMT-35"/>
      </g>
     </g>
    </g>
    <g id="ytick_9">
     <g id="line2d_18">
      <g>
       <use style="fill:#262626;stroke:#262626;" x="90" xlink:href="#m32765208dc" y="69.12"/>
      </g>
     </g>
     <g id="text_18">
      <!-- 0.20 -->
      <g style="fill:#262626;" transform="translate(57.539062 72.698906)scale(0.1 -0.1)">
       <use xlink:href="#ArialMT-30"/>
       <use x="55.615234" xlink:href="#ArialMT-2e"/>
       <use x="83.398438" xlink:href="#ArialMT-32"/>
       <use x="139.013672" xlink:href="#ArialMT-30"/>
      </g>
     </g>
    </g>
   </g>
   <g id="PolyCollection_1">
    <path clip-path="url(#p553e87f430)" d="M 90 169.92795 
L 90 169.92 
L 90.6975 169.92 
L 91.395 169.92 
L 92.0925 169.92 
L 92.79 169.92 
L 93.4875 169.92 
L 94.185 169.92 
L 94.8825 169.92 
L 95.58 169.92 
L 96.2775 169.92 
L 96.975 169.92 
L 97.6725 169.92 
L 98.37 169.92 
L 99.0675 169.92 
L 99.765 169.92 
L 100.4625 169.92 
L 101.16 169.92 
L 101.8575 169.92 
L 102.555 169.92 
L 103.2525 169.92 
L 103.95 169.92 
L 104.6475 169.92 
L 105.345 169.92 
L 106.0425 169.92 
L 106.74 169.92 
L 107.4375 169.92 
L 108.135 169.92 
L 108.8325 169.92 
L 109.53 169.92 
L 110.2275 169.92 
L 110.925 169.92 
L 111.6225 169.92 
L 112.32 169.92 
L 113.0175 169.92 
L 113.715 169.92 
L 114.4125 169.92 
L 115.11 169.92 
L 115.8075 169.92 
L 116.505 169.92 
L 117.2025 169.92 
L 117.9 169.92 
L 118.5975 169.92 
L 119.295 169.92 
L 119.9925 169.92 
L 120.69 169.92 
L 121.3875 169.92 
L 122.085 169.92 
L 122.7825 169.92 
L 123.48 169.92 
L 124.1775 169.92 
L 124.875 169.92 
L 125.5725 169.92 
L 126.27 169.92 
L 126.9675 169.92 
L 127.665 169.92 
L 128.3625 169.92 
L 129.06 169.92 
L 129.7575 169.92 
L 130.455 169.92 
L 131.1525 169.92 
L 131.85 169.92 
L 132.5475 169.92 
L 133.245 169.92 
L 133.9425 169.92 
L 134.64 169.92 
L 135.3375 169.92 
L 136.035 169.92 
L 136.7325 169.92 
L 137.43 169.92 
L 138.1275 169.92 
L 138.825 169.92 
L 139.5225 169.92 
L 140.22 169.92 
L 140.9175 169.92 
L 141.615 169.92 
L 142.3125 169.92 
L 143.01 169.92 
L 143.7075 169.92 
L 144.405 169.92 
L 145.1025 169.92 
L 145.8 169.92 
L 146.4975 169.92 
L 147.195 169.92 
L 147.8925 169.92 
L 148.59 169.92 
L 149.2875 169.92 
L 149.985 169.92 
L 150.6825 169.92 
L 151.38 169.92 
L 152.0775 169.92 
L 152.775 169.92 
L 153.4725 169.92 
L 154.17 169.92 
L 154.8675 169.92 
L 155.565 169.92 
L 156.2625 169.92 
L 156.96 169.92 
L 157.6575 169.92 
L 158.355 169.92 
L 159.0525 169.92 
L 159.75 169.92 
L 160.4475 169.92 
L 161.145 169.92 
L 161.8425 169.92 
L 162.54 169.92 
L 163.2375 169.92 
L 163.935 169.92 
L 164.6325 169.92 
L 165.33 169.92 
L 166.0275 169.92 
L 166.725 169.92 
L 167.4225 169.92 
L 168.12 169.92 
L 168.8175 169.92 
L 169.515 169.92 
L 170.2125 169.92 
L 170.91 169.92 
L 171.6075 169.92 
L 172.305 169.92 
L 173.0025 169.92 
L 173.7 169.92 
L 174.3975 169.92 
L 175.095 169.92 
L 175.7925 169.92 
L 176.49 169.92 
L 177.1875 169.92 
L 177.885 169.92 
L 178.5825 169.92 
L 179.28 169.92 
L 179.9775 169.92 
L 180.675 169.92 
L 181.3725 169.92 
L 182.07 169.92 
L 182.7675 169.92 
L 183.465 169.92 
L 184.1625 169.92 
L 184.86 169.92 
L 185.5575 169.92 
L 186.255 169.92 
L 186.9525 169.92 
L 187.65 169.92 
L 188.3475 169.92 
L 189.045 169.92 
L 189.7425 169.92 
L 190.44 169.92 
L 191.1375 169.92 
L 191.835 169.92 
L 192.5325 169.92 
L 193.23 169.92 
L 193.9275 169.92 
L 194.625 169.92 
L 195.3225 169.92 
L 196.02 169.92 
L 196.7175 169.92 
L 197.415 169.92 
L 198.1125 169.92 
L 198.81 169.92 
L 199.5075 169.92 
L 200.205 169.92 
L 200.9025 169.92 
L 201.6 169.92 
L 202.2975 169.92 
L 202.995 169.92 
L 203.6925 169.92 
L 204.39 169.92 
L 205.0875 169.92 
L 205.785 169.92 
L 206.4825 169.92 
L 207.18 169.92 
L 207.8775 169.92 
L 208.575 169.92 
L 209.2725 169.92 
L 209.97 169.92 
L 210.6675 169.92 
L 211.365 169.92 
L 212.0625 169.92 
L 212.76 169.92 
L 213.4575 169.92 
L 214.155 169.92 
L 214.8525 169.92 
L 215.55 169.92 
L 216.2475 169.92 
L 216.945 169.92 
L 217.6425 169.92 
L 218.34 169.92 
L 219.0375 169.92 
L 219.735 169.92 
L 220.4325 169.92 
L 221.13 169.92 
L 221.8275 169.92 
L 222.525 169.92 
L 223.2225 169.92 
L 223.92 169.92 
L 224.6175 169.92 
L 225.315 169.92 
L 226.0125 169.92 
L 226.71 169.92 
L 227.4075 169.92 
L 228.105 169.92 
L 228.8025 169.92 
L 229.5 169.92 
L 230.1975 169.92 
L 230.895 169.92 
L 231.5925 169.92 
L 232.29 169.92 
L 232.9875 169.92 
L 233.685 169.92 
L 234.3825 169.92 
L 235.08 169.92 
L 235.7775 169.92 
L 236.475 169.92 
L 237.1725 169.92 
L 237.87 169.92 
L 238.5675 169.92 
L 239.265 169.92 
L 239.9625 169.92 
L 240.66 169.92 
L 241.3575 169.92 
L 242.055 169.92 
L 242.7525 169.92 
L 243.45 169.92 
L 244.1475 169.92 
L 244.845 169.92 
L 245.5425 169.92 
L 246.24 169.92 
L 246.9375 169.92 
L 247.635 169.92 
L 248.3325 169.92 
L 249.03 169.92 
L 249.7275 169.92 
L 250.425 169.92 
L 251.1225 169.92 
L 251.82 169.92 
L 252.5175 169.92 
L 253.215 169.92 
L 253.9125 169.92 
L 254.61 169.92 
L 255.3075 169.92 
L 256.005 169.92 
L 256.7025 169.92 
L 257.4 169.92 
L 258.0975 169.92 
L 258.795 169.92 
L 259.4925 169.92 
L 260.19 169.92 
L 260.8875 169.92 
L 261.585 169.92 
L 262.2825 169.92 
L 262.98 169.92 
L 263.6775 169.92 
L 264.375 169.92 
L 265.0725 169.92 
L 265.77 169.92 
L 266.4675 169.92 
L 267.165 169.92 
L 267.8625 169.92 
L 268.56 169.92 
L 269.2575 169.92 
L 269.955 169.92 
L 270.6525 169.92 
L 271.35 169.92 
L 272.0475 169.92 
L 272.745 169.92 
L 273.4425 169.92 
L 274.14 169.92 
L 274.8375 169.92 
L 275.535 169.92 
L 276.2325 169.92 
L 276.93 169.92 
L 277.6275 169.92 
L 278.325 169.92 
L 279.0225 169.92 
L 279.72 169.92 
L 280.4175 169.92 
L 281.115 169.92 
L 281.8125 169.92 
L 282.51 169.92 
L 283.2075 169.92 
L 283.905 169.92 
L 284.6025 169.92 
L 285.3 169.92 
L 285.9975 169.92 
L 286.695 169.92 
L 287.3925 169.92 
L 288.09 169.92 
L 288.7875 169.92 
L 289.485 169.92 
L 290.1825 169.92 
L 290.88 169.92 
L 291.5775 169.92 
L 292.275 169.92 
L 292.9725 169.92 
L 293.67 169.92 
L 294.3675 169.92 
L 295.065 169.92 
L 295.7625 169.92 
L 296.46 169.92 
L 297.1575 169.92 
L 297.855 169.92 
L 298.5525 169.92 
L 299.25 169.92 
L 299.9475 169.92 
L 300.645 169.92 
L 301.3425 169.92 
L 302.04 169.92 
L 302.7375 169.92 
L 303.435 169.92 
L 304.1325 169.92 
L 304.83 169.92 
L 305.5275 169.92 
L 306.225 169.92 
L 306.9225 169.92 
L 307.62 169.92 
L 308.3175 169.92 
L 309.015 169.92 
L 309.7125 169.92 
L 310.41 169.92 
L 311.1075 169.92 
L 311.805 169.92 
L 312.5025 169.92 
L 313.2 169.92 
L 313.8975 169.92 
L 314.595 169.92 
L 315.2925 169.92 
L 315.99 169.92 
L 316.6875 169.92 
L 317.385 169.92 
L 318.0825 169.92 
L 318.78 169.92 
L 319.4775 169.92 
L 320.175 169.92 
L 320.8725 169.92 
L 321.57 169.92 
L 322.2675 169.92 
L 322.965 169.92 
L 323.6625 169.92 
L 324.36 169.92 
L 325.0575 169.92 
L 325.755 169.92 
L 326.4525 169.92 
L 327.15 169.92 
L 327.8475 169.92 
L 328.545 169.92 
L 329.2425 169.92 
L 329.94 169.92 
L 330.6375 169.92 
L 331.335 169.92 
L 332.0325 169.92 
L 332.73 169.92 
L 333.4275 169.92 
L 334.125 169.92 
L 334.8225 169.92 
L 335.52 169.92 
L 336.2175 169.92 
L 336.915 169.92 
L 337.6125 169.92 
L 338.31 169.92 
L 339.0075 169.92 
L 339.705 169.92 
L 340.4025 169.92 
L 341.1 169.92 
L 341.7975 169.92 
L 342.495 169.92 
L 343.1925 169.92 
L 343.89 169.92 
L 344.5875 169.92 
L 345.285 169.92 
L 345.9825 169.92 
L 346.68 169.92 
L 347.3775 169.92 
L 348.075 169.92 
L 348.7725 169.92 
L 349.47 169.92 
L 350.1675 169.92 
L 350.865 169.92 
L 351.5625 169.92 
L 352.26 169.92 
L 352.9575 169.92 
L 353.655 169.92 
L 354.3525 169.92 
L 355.05 169.92 
L 355.7475 169.92 
L 356.445 169.92 
L 357.1425 169.92 
L 357.84 169.92 
L 358.5375 169.92 
L 359.235 169.92 
L 359.9325 169.92 
L 360.63 169.92 
L 361.3275 169.92 
L 362.025 169.92 
L 362.7225 169.92 
L 363.42 169.92 
L 364.1175 169.92 
L 364.815 169.92 
L 365.5125 169.92 
L 366.21 169.92 
L 366.9075 169.92 
L 367.605 169.92 
L 368.3025 169.92 
L 369 169.92 
L 369.6975 169.92 
L 370.395 169.92 
L 371.0925 169.92 
L 371.79 169.92 
L 372.4875 169.92 
L 373.185 169.92 
L 373.8825 169.92 
L 374.58 169.92 
L 375.2775 169.92 
L 375.975 169.92 
L 376.6725 169.92 
L 377.37 169.92 
L 378.0675 169.92 
L 378.765 169.92 
L 379.4625 169.92 
L 380.16 169.92 
L 380.8575 169.92 
L 381.555 169.92 
L 382.2525 169.92 
L 382.95 169.92 
L 383.6475 169.92 
L 384.345 169.92 
L 385.0425 169.92 
L 385.74 169.92 
L 386.4375 169.92 
L 387.135 169.92 
L 387.8325 169.92 
L 388.53 169.92 
L 389.2275 169.92 
L 389.925 169.92 
L 390.6225 169.92 
L 391.32 169.92 
L 392.0175 169.92 
L 392.715 169.92 
L 393.4125 169.92 
L 394.11 169.92 
L 394.8075 169.92 
L 395.505 169.92 
L 396.2025 169.92 
L 396.9 169.92 
L 397.5975 169.92 
L 398.295 169.92 
L 398.9925 169.92 
L 399.69 169.92 
L 400.3875 169.92 
L 401.085 169.92 
L 401.7825 169.92 
L 402.48 169.92 
L 403.1775 169.92 
L 403.875 169.92 
L 404.5725 169.92 
L 405.27 169.92 
L 405.9675 169.92 
L 406.665 169.92 
L 407.3625 169.92 
L 408.06 169.92 
L 408.7575 169.92 
L 409.455 169.92 
L 410.1525 169.92 
L 410.85 169.92 
L 411.5475 169.92 
L 412.245 169.92 
L 412.9425 169.92 
L 413.64 169.92 
L 414.3375 169.92 
L 415.035 169.92 
L 415.7325 169.92 
L 416.43 169.92 
L 417.1275 169.92 
L 417.825 169.92 
L 418.5225 169.92 
L 419.22 169.92 
L 419.9175 169.92 
L 420.615 169.92 
L 421.3125 169.92 
L 422.01 169.92 
L 422.7075 169.92 
L 423.405 169.92 
L 424.1025 169.92 
L 424.8 169.92 
L 425.4975 169.92 
L 426.195 169.92 
L 426.8925 169.92 
L 427.59 169.92 
L 428.2875 169.92 
L 428.985 169.92 
L 429.6825 169.92 
L 430.38 169.92 
L 431.0775 169.92 
L 431.775 169.92 
L 432.4725 169.92 
L 433.17 169.92 
L 433.8675 169.92 
L 434.565 169.92 
L 435.2625 169.92 
L 435.96 169.92 
L 436.6575 169.92 
L 437.355 169.92 
L 438.0525 169.92 
L 438.75 169.92 
L 439.4475 169.92 
L 440.145 169.92 
L 440.8425 169.92 
L 441.54 169.92 
L 442.2375 169.92 
L 442.935 169.92 
L 443.6325 169.92 
L 444.33 169.92 
L 445.0275 169.92 
L 445.725 169.92 
L 446.4225 169.92 
L 447.12 169.92 
L 447.8175 169.92 
L 448.515 169.92 
L 449.2125 169.92 
L 449.91 169.92 
L 450.6075 169.92 
L 451.305 169.92 
L 452.0025 169.92 
L 452.7 169.92 
L 453.3975 169.92 
L 454.095 169.92 
L 454.7925 169.92 
L 455.49 169.92 
L 456.1875 169.92 
L 456.885 169.92 
L 457.5825 169.92 
L 458.28 169.92 
L 458.9775 169.92 
L 459.675 169.92 
L 460.3725 169.92 
L 461.07 169.92 
L 461.7675 169.92 
L 462.465 169.92 
L 463.1625 169.92 
L 463.86 169.92 
L 464.5575 169.92 
L 465.255 169.92 
L 465.9525 169.92 
L 466.65 169.92 
L 467.3475 169.92 
L 468.045 169.92 
L 468.7425 169.92 
L 469.44 169.92 
L 470.1375 169.92 
L 470.835 169.92 
L 471.5325 169.92 
L 472.23 169.92 
L 472.9275 169.92 
L 473.625 169.92 
L 474.3225 169.92 
L 475.02 169.92 
L 475.7175 169.92 
L 476.415 169.92 
L 477.1125 169.92 
L 477.81 169.92 
L 478.5075 169.92 
L 479.205 169.92 
L 479.9025 169.92 
L 480.6 169.92 
L 481.2975 169.92 
L 481.995 169.92 
L 482.6925 169.92 
L 483.39 169.92 
L 484.0875 169.92 
L 484.785 169.92 
L 485.4825 169.92 
L 486.18 169.92 
L 486.8775 169.92 
L 487.575 169.92 
L 488.2725 169.92 
L 488.97 169.92 
L 489.6675 169.92 
L 490.365 169.92 
L 491.0625 169.92 
L 491.76 169.92 
L 492.4575 169.92 
L 493.155 169.92 
L 493.8525 169.92 
L 494.55 169.92 
L 495.2475 169.92 
L 495.945 169.92 
L 496.6425 169.92 
L 497.34 169.92 
L 498.0375 169.92 
L 498.735 169.92 
L 499.4325 169.92 
L 500.13 169.92 
L 500.8275 169.92 
L 501.525 169.92 
L 502.2225 169.92 
L 502.92 169.92 
L 503.6175 169.92 
L 504.315 169.92 
L 505.0125 169.92 
L 505.71 169.92 
L 506.4075 169.92 
L 507.105 169.92 
L 507.8025 169.92 
L 508.5 169.92 
L 509.1975 169.92 
L 509.895 169.92 
L 510.5925 169.92 
L 511.29 169.92 
L 511.9875 169.92 
L 512.685 169.92 
L 513.3825 169.92 
L 514.08 169.92 
L 514.7775 169.92 
L 515.475 169.92 
L 516.1725 169.92 
L 516.87 169.92 
L 517.5675 169.92 
L 518.265 169.92 
L 518.9625 169.92 
L 519.66 169.92 
L 520.3575 169.92 
L 521.055 169.92 
L 521.7525 169.92 
L 522.45 169.92 
L 523.1475 169.92 
L 523.845 169.92 
L 524.5425 169.92 
L 525.24 169.92 
L 525.9375 169.92 
L 526.635 169.92 
L 527.3325 169.92 
L 528.03 169.92 
L 528.7275 169.92 
L 529.425 169.92 
L 530.1225 169.92 
L 530.82 169.92 
L 531.5175 169.92 
L 532.215 169.92 
L 532.9125 169.92 
L 533.61 169.92 
L 534.3075 169.92 
L 535.005 169.92 
L 535.7025 169.92 
L 536.4 169.92 
L 537.0975 169.92 
L 537.795 169.92 
L 538.4925 169.92 
L 539.19 169.92 
L 539.8875 169.92 
L 540.585 169.92 
L 541.2825 169.92 
L 541.98 169.92 
L 542.6775 169.92 
L 543.375 169.92 
L 544.0725 169.92 
L 544.77 169.92 
L 545.4675 169.92 
L 546.165 169.92 
L 546.8625 169.92 
L 547.56 169.92 
L 548.2575 169.92 
L 548.955 169.92 
L 549.6525 169.92 
L 550.35 169.92 
L 551.0475 169.92 
L 551.745 169.92 
L 552.4425 169.92 
L 553.14 169.92 
L 553.8375 169.92 
L 554.535 169.92 
L 555.2325 169.92 
L 555.93 169.92 
L 556.6275 169.92 
L 557.325 169.92 
L 558.0225 169.92 
L 558.72 169.92 
L 559.4175 169.92 
L 560.115 169.92 
L 560.8125 169.92 
L 561.51 169.92 
L 562.2075 169.92 
L 562.905 169.92 
L 563.6025 169.92 
L 564.3 169.92 
L 564.9975 169.92 
L 565.695 169.92 
L 566.3925 169.92 
L 567.09 169.92 
L 567.7875 169.92 
L 568.485 169.92 
L 569.1825 169.92 
L 569.88 169.92 
L 570.5775 169.92 
L 571.275 169.92 
L 571.9725 169.92 
L 572.67 169.92 
L 573.3675 169.92 
L 574.065 169.92 
L 574.7625 169.92 
L 575.46 169.92 
L 576.1575 169.92 
L 576.855 169.92 
L 577.5525 169.92 
L 578.25 169.92 
L 578.9475 169.92 
L 579.645 169.92 
L 580.3425 169.92 
L 581.04 169.92 
L 581.7375 169.92 
L 582.435 169.92 
L 583.1325 169.92 
L 583.83 169.92 
L 584.5275 169.92 
L 585.225 169.92 
L 585.9225 169.92 
L 586.62 169.92 
L 587.3175 169.92 
L 588.015 169.92 
L 588.7125 169.92 
L 589.41 169.92 
L 590.1075 169.92 
L 590.805 169.92 
L 591.5025 169.92 
L 592.2 169.92 
L 592.8975 169.92 
L 593.595 169.92 
L 594.2925 169.92 
L 594.99 169.92 
L 595.6875 169.92 
L 596.385 169.92 
L 597.0825 169.92 
L 597.78 169.92 
L 598.4775 169.92 
L 599.175 169.92 
L 599.8725 169.92 
L 600.57 169.92 
L 601.2675 169.92 
L 601.965 169.92 
L 602.6625 169.92 
L 603.36 169.92 
L 604.0575 169.92 
L 604.755 169.92 
L 605.4525 169.92 
L 606.15 169.92 
L 606.8475 169.92 
L 607.545 169.92 
L 608.2425 169.92 
L 608.94 169.92 
L 609.6375 169.92 
L 610.335 169.92 
L 611.0325 169.92 
L 611.73 169.92 
L 612.4275 169.92 
L 613.125 169.92 
L 613.8225 169.92 
L 614.52 169.92 
L 615.2175 169.92 
L 615.915 169.92 
L 616.6125 169.92 
L 617.31 169.92 
L 618.0075 169.92 
L 618.705 169.92 
L 619.4025 169.92 
L 620.1 169.92 
L 620.7975 169.92 
L 621.495 169.92 
L 622.1925 169.92 
L 622.89 169.92 
L 623.5875 169.92 
L 624.285 169.92 
L 624.9825 169.92 
L 625.68 169.92 
L 626.3775 169.92 
L 627.075 169.92 
L 627.7725 169.92 
L 628.47 169.92 
L 629.1675 169.92 
L 629.865 169.92 
L 630.5625 169.92 
L 631.26 169.92 
L 631.9575 169.92 
L 632.655 169.92 
L 633.3525 169.92 
L 634.05 169.92 
L 634.7475 169.92 
L 635.445 169.92 
L 636.1425 169.92 
L 636.84 169.92 
L 637.5375 169.92 
L 638.235 169.92 
L 638.9325 169.92 
L 639.63 169.92 
L 640.3275 169.92 
L 641.025 169.92 
L 641.7225 169.92 
L 642.42 169.92 
L 643.1175 169.92 
L 643.815 169.92 
L 644.5125 169.92 
L 645.21 169.92 
L 645.9075 169.92 
L 646.605 169.92 
L 646.605 169.92 
L 646.605 169.92 
L 645.9075 169.923478 
L 645.21 169.931593 
L 644.5125 169.945413 
L 643.815 169.965892 
L 643.1175 169.993855 
L 642.42 170.029973 
L 641.7225 170.074756 
L 641.025 170.128534 
L 640.3275 170.191454 
L 639.63 170.263469 
L 638.9325 170.344336 
L 638.235 170.433619 
L 637.5375 170.53069 
L 636.84 170.634735 
L 636.1425 170.744767 
L 635.445 170.859637 
L 634.7475 170.978051 
L 634.05 171.098585 
L 633.3525 171.219711 
L 632.655 171.339815 
L 631.9575 171.457224 
L 631.26 171.570229 
L 630.5625 171.677113 
L 629.865 171.776179 
L 629.1675 171.865773 
L 628.47 171.944313 
L 627.7725 172.010314 
L 627.075 172.062413 
L 626.3775 172.099389 
L 625.68 172.120189 
L 624.9825 172.123941 
L 624.285 172.10997 
L 623.5875 172.077817 
L 622.89 172.027242 
L 622.1925 171.958234 
L 621.495 171.871015 
L 620.7975 171.766036 
L 620.1 171.643981 
L 619.4025 171.50575 
L 618.705 171.352457 
L 618.0075 171.185414 
L 617.31 171.006114 
L 616.6125 170.816212 
L 615.915 170.617505 
L 615.2175 170.411907 
L 614.52 170.201424 
L 613.8225 169.988128 
L 613.125 169.774129 
L 612.4275 169.561546 
L 611.73 169.352481 
L 611.0325 169.148986 
L 610.335 168.95304 
L 609.6375 168.766523 
L 608.94 168.591188 
L 608.2425 168.42864 
L 607.545 168.280314 
L 606.8475 168.147459 
L 606.15 168.031122 
L 605.4525 167.932133 
L 604.755 167.851101 
L 604.0575 167.788402 
L 603.36 167.744182 
L 602.6625 167.718354 
L 601.965 167.710607 
L 601.2675 167.720407 
L 600.57 167.747015 
L 599.8725 167.789497 
L 599.175 167.846741 
L 598.4775 167.917476 
L 597.78 168.000295 
L 597.0825 168.093678 
L 596.385 168.196015 
L 595.6875 168.305633 
L 594.99 168.420822 
L 594.2925 168.539864 
L 593.595 168.661056 
L 592.8975 168.782738 
L 592.2 168.903319 
L 591.5025 169.0213 
L 590.805 169.135295 
L 590.1075 169.24405 
L 589.41 169.346466 
L 588.7125 169.441607 
L 588.015 169.528717 
L 587.3175 169.607226 
L 586.62 169.676757 
L 585.9225 169.737129 
L 585.225 169.788357 
L 584.5275 169.830643 
L 583.83 169.864377 
L 583.1325 169.890119 
L 582.435 169.908592 
L 581.7375 169.920662 
L 581.04 169.927321 
L 580.3425 169.929668 
L 579.645 169.928885 
L 578.9475 169.926218 
L 578.25 169.922945 
L 577.5525 169.920359 
L 576.855 169.919738 
L 576.1575 169.922321 
L 575.46 169.929284 
L 574.7625 169.941719 
L 574.065 169.960608 
L 573.3675 169.986805 
L 572.67 170.021019 
L 571.9725 170.063797 
L 571.275 170.115511 
L 570.5775 170.176351 
L 569.88 170.246313 
L 569.1825 170.3252 
L 568.485 170.412618 
L 567.7875 170.507984 
L 567.09 170.610524 
L 566.3925 170.719291 
L 565.695 170.83317 
L 564.9975 170.950899 
L 564.3 171.071082 
L 563.6025 171.192213 
L 562.905 171.312695 
L 562.2075 171.430865 
L 561.51 171.545022 
L 560.8125 171.653448 
L 560.115 171.754437 
L 559.4175 171.846326 
L 558.72 171.927512 
L 558.0225 171.996487 
L 557.325 172.051858 
L 556.6275 172.092371 
L 555.93 172.116931 
L 555.2325 172.124623 
L 554.535 172.114729 
L 553.8375 172.086737 
L 553.14 172.040358 
L 552.4425 171.975528 
L 551.745 171.892417 
L 551.0475 171.791423 
L 550.35 171.673177 
L 549.6525 171.538532 
L 548.955 171.388554 
L 548.2575 171.224511 
L 547.56 171.047857 
L 546.8625 170.860211 
L 546.165 170.663341 
L 545.4675 170.459136 
L 544.77 170.249583 
L 544.0725 170.036742 
L 543.375 169.822717 
L 542.6775 169.609627 
L 541.98 169.399579 
L 541.2825 169.194641 
L 540.585 168.996811 
L 539.8875 168.807992 
L 539.19 168.629969 
L 538.4925 168.464382 
L 537.795 168.312707 
L 537.0975 168.176237 
L 536.4 168.056065 
L 535.7025 167.953072 
L 535.005 167.867917 
L 534.3075 167.801031 
L 533.61 167.75261 
L 532.9125 167.722622 
L 532.215 167.710804 
L 531.5175 167.716674 
L 530.82 167.739538 
L 530.1225 167.778503 
L 529.425 167.832498 
L 528.7275 167.900286 
L 528.03 167.980489 
L 527.3325 168.071609 
L 526.635 168.172056 
L 525.9375 168.280169 
L 525.24 168.394243 
L 524.5425 168.51256 
L 523.845 168.63341 
L 523.1475 168.755124 
L 522.45 168.876091 
L 521.7525 168.994789 
L 521.055 169.109804 
L 520.3575 169.219853 
L 519.66 169.323798 
L 518.9625 169.420665 
L 518.265 169.509657 
L 517.5675 169.590161 
L 516.87 169.661755 
L 516.1725 169.724215 
L 515.475 169.777509 
L 514.7775 169.8218 
L 514.08 169.857435 
L 513.3825 169.884936 
L 512.685 169.90499 
L 511.9875 169.918432 
L 511.29 169.926227 
L 510.5925 169.929453 
L 509.895 169.929274 
L 509.1975 169.926923 
L 508.5 169.923675 
L 507.8025 169.92082 
L 507.105 169.919641 
L 506.4075 169.92139 
L 505.71 169.927259 
L 505.0125 169.93836 
L 504.315 169.955702 
L 503.6175 169.98017 
L 502.92 170.012508 
L 502.2225 170.0533 
L 501.525 170.102961 
L 500.8275 170.161719 
L 500.13 170.229618 
L 499.4325 170.306504 
L 498.735 170.392029 
L 498.0375 170.485649 
L 497.34 170.586636 
L 496.6425 170.69408 
L 495.945 170.806903 
L 495.2475 170.923875 
L 494.55 171.043629 
L 493.8525 171.164682 
L 493.155 171.285455 
L 492.4575 171.404299 
L 491.76 171.519519 
L 491.0625 171.629397 
L 490.365 171.732225 
L 489.6675 171.826326 
L 488.97 171.91008 
L 488.2725 171.981958 
L 487.575 172.040536 
L 486.8775 172.084528 
L 486.18 172.1128 
L 485.4825 172.124397 
L 484.785 172.118552 
L 484.0875 172.094707 
L 483.39 172.05252 
L 482.6925 171.991878 
L 481.995 171.912894 
L 481.2975 171.815917 
L 480.6 171.701525 
L 479.9025 171.570521 
L 479.205 171.423923 
L 478.5075 171.262956 
L 477.81 171.089031 
L 477.1125 170.903734 
L 476.415 170.708798 
L 475.7175 170.506088 
L 475.02 170.297572 
L 474.3225 170.085295 
L 473.625 169.871353 
L 472.9275 169.657864 
L 472.23 169.446942 
L 471.5325 169.240664 
L 470.835 169.041048 
L 470.1375 168.85002 
L 469.44 168.669394 
L 468.7425 168.500844 
L 468.045 168.345887 
L 467.3475 168.205858 
L 466.65 168.081897 
L 465.9525 167.974933 
L 465.255 167.885679 
L 464.5575 167.814614 
L 463.86 167.761991 
L 463.1625 167.727829 
L 462.465 167.711916 
L 461.7675 167.71382 
L 461.07 167.732892 
L 460.3725 167.768287 
L 459.675 167.818969 
L 458.9775 167.883738 
L 458.28 167.961247 
L 457.5825 168.050023 
L 456.885 168.148494 
L 456.1875 168.255013 
L 455.49 168.367883 
L 454.7925 168.485386 
L 454.095 168.605809 
L 453.3975 168.727471 
L 452.7 168.848744 
L 452.0025 168.968086 
L 451.305 169.084057 
L 450.6075 169.195339 
L 449.91 169.300763 
L 449.2125 169.399316 
L 448.515 169.490158 
L 447.8175 169.572635 
L 447.12 169.646281 
L 446.4225 169.710826 
L 445.725 169.766196 
L 445.0275 169.81251 
L 444.33 169.850072 
L 443.6325 169.879366 
L 442.935 169.901045 
L 442.2375 169.915909 
L 441.54 169.924897 
L 440.8425 169.929062 
L 440.145 169.92955 
L 439.4475 169.927583 
L 438.75 169.924425 
L 438.0525 169.921367 
L 437.355 169.919696 
L 436.6575 169.920673 
L 435.96 169.925504 
L 435.2625 169.935323 
L 434.565 169.951165 
L 433.8675 169.973943 
L 433.17 170.004435 
L 432.4725 170.043263 
L 431.775 170.090881 
L 431.0775 170.147561 
L 430.38 170.213389 
L 429.6825 170.288256 
L 428.985 170.371858 
L 428.2875 170.463696 
L 427.59 170.563082 
L 426.8925 170.669147 
L 426.195 170.780851 
L 425.4975 170.896995 
L 424.8 171.016243 
L 424.1025 171.137136 
L 423.405 171.258116 
L 422.7075 171.377546 
L 422.01 171.49374 
L 421.3125 171.604983 
L 420.615 171.709562 
L 419.9175 171.805791 
L 419.22 171.892035 
L 418.5225 171.966741 
L 417.825 172.02846 
L 417.1275 172.075872 
L 416.43 172.107808 
L 415.7325 172.123269 
L 415.035 172.121444 
L 414.3375 172.101728 
L 413.64 172.063728 
L 412.9425 172.007278 
L 412.245 171.932441 
L 411.5475 171.839511 
L 410.85 171.729014 
L 410.1525 171.601704 
L 409.455 171.45855 
L 408.7575 171.300731 
L 408.06 171.129618 
L 407.3625 170.946758 
L 406.665 170.753853 
L 405.9675 170.552741 
L 405.27 170.345367 
L 404.5725 170.133762 
L 403.875 169.920012 
L 403.1775 169.706235 
L 402.48 169.494545 
L 401.7825 169.287032 
L 401.085 169.085729 
L 400.3875 168.892585 
L 399.69 168.709442 
L 398.9925 168.538009 
L 398.295 168.379839 
L 397.5975 168.23631 
L 396.9 168.108607 
L 396.2025 167.99771 
L 395.505 167.90438 
L 394.8075 167.829151 
L 394.11 167.772327 
L 393.4125 167.733979 
L 392.715 167.713949 
L 392.0175 167.711853 
L 391.32 167.727091 
L 390.6225 167.75886 
L 389.925 167.806167 
L 389.2275 167.867848 
L 388.53 167.942587 
L 387.8325 168.028937 
L 387.135 168.125347 
L 386.4375 168.230185 
L 385.74 168.341762 
L 385.0425 168.458363 
L 384.345 168.578272 
L 383.6475 168.699797 
L 382.95 168.821298 
L 382.2525 168.941209 
L 381.555 169.058066 
L 380.8575 169.170523 
L 380.16 169.277373 
L 379.4625 169.377567 
L 378.765 169.470226 
L 378.0675 169.554652 
L 377.37 169.630336 
L 376.6725 169.696963 
L 375.975 169.754415 
L 375.2775 169.802766 
L 374.58 169.842281 
L 373.8825 169.873403 
L 373.185 169.896747 
L 372.4875 169.913082 
L 371.79 169.923317 
L 371.0925 169.92848 
L 370.395 169.9297 
L 369.6975 169.92818 
L 369 169.92518 
L 368.3025 169.921986 
L 367.605 169.919888 
L 366.9075 169.920154 
L 366.21 169.924007 
L 365.5125 169.932598 
L 364.815 169.946986 
L 364.1175 169.968114 
L 363.42 169.996792 
L 362.7225 170.03368 
L 362.025 170.079269 
L 361.3275 170.133876 
L 360.63 170.197627 
L 359.9325 170.27046 
L 359.235 170.352113 
L 358.5375 170.442133 
L 357.84 170.539874 
L 357.1425 170.644506 
L 356.445 170.755028 
L 355.7475 170.870276 
L 355.05 170.988943 
L 354.3525 171.109596 
L 353.655 171.230697 
L 352.9575 171.350626 
L 352.26 171.467705 
L 351.5625 171.580224 
L 350.865 171.686468 
L 350.1675 171.78474 
L 349.47 171.873393 
L 348.7725 171.950852 
L 348.075 172.015644 
L 347.3775 172.066416 
L 346.68 172.101963 
L 345.9825 172.121247 
L 345.285 172.123411 
L 344.5875 172.107804 
L 343.89 172.073982 
L 343.1925 172.021728 
L 342.495 171.951052 
L 341.7975 171.862196 
L 341.1 171.755634 
L 340.4025 171.632067 
L 339.705 171.492418 
L 339.0075 171.337818 
L 338.31 171.169597 
L 337.6125 170.989262 
L 336.915 170.798484 
L 336.2175 170.599069 
L 335.52 170.392943 
L 334.8225 170.182118 
L 334.125 169.96867 
L 333.4275 169.754713 
L 332.73 169.542364 
L 332.0325 169.333721 
L 331.335 169.130831 
L 330.6375 168.935667 
L 329.94 168.750096 
L 329.2425 168.57586 
L 328.545 168.414548 
L 327.8475 168.26758 
L 327.15 168.136186 
L 326.4525 168.021395 
L 325.755 167.924018 
L 325.0575 167.84464 
L 324.36 167.783618 
L 323.6625 167.741077 
L 322.965 167.716909 
L 322.2675 167.710782 
L 321.57 167.722144 
L 320.8725 167.750237 
L 320.175 167.794109 
L 319.4775 167.852634 
L 318.78 167.924527 
L 318.0825 168.008372 
L 317.385 168.102636 
L 316.6875 168.205705 
L 315.99 168.3159 
L 315.2925 168.431511 
L 314.595 168.550818 
L 313.8975 168.672122 
L 313.2 168.793769 
L 312.5025 168.914174 
L 311.805 169.031848 
L 311.1075 169.145416 
L 310.41 169.253638 
L 309.7125 169.355429 
L 309.015 169.449868 
L 308.3175 169.536217 
L 307.62 169.613922 
L 306.9225 169.682625 
L 306.225 169.742163 
L 305.5275 169.792566 
L 304.83 169.834056 
L 304.1325 169.867038 
L 303.435 169.892087 
L 302.7375 169.90994 
L 302.04 169.921475 
L 301.3425 169.927695 
L 300.645 169.929707 
L 299.9475 169.928702 
L 299.25 169.925926 
L 298.5525 169.922662 
L 297.855 169.920202 
L 297.1575 169.919822 
L 296.46 169.922756 
L 295.7625 169.930173 
L 295.065 169.943156 
L 294.3675 169.962676 
L 293.67 169.989575 
L 292.9725 170.024547 
L 292.275 170.068125 
L 291.5775 170.120664 
L 290.88 170.182336 
L 290.1825 170.25312 
L 289.485 170.332802 
L 288.7875 170.42097 
L 288.09 170.517022 
L 287.3925 170.620171 
L 286.695 170.72945 
L 285.9975 170.843734 
L 285.3 170.961745 
L 284.6025 171.082078 
L 283.905 171.203217 
L 283.2075 171.323558 
L 282.51 171.441435 
L 281.8125 171.555141 
L 281.115 171.662961 
L 280.4175 171.763192 
L 279.72 171.854172 
L 279.0225 171.934309 
L 278.325 172.002103 
L 277.6275 172.056173 
L 276.93 172.095278 
L 276.2325 172.11834 
L 275.535 172.12446 
L 274.8375 172.112938 
L 274.14 172.083283 
L 273.4425 172.035226 
L 272.745 171.968724 
L 272.0475 171.883966 
L 271.35 171.781375 
L 270.6525 171.661599 
L 269.955 171.525513 
L 269.2575 171.374201 
L 268.56 171.20895 
L 267.8625 171.031227 
L 267.165 170.842668 
L 266.4675 170.645051 
L 265.77 170.440276 
L 265.0725 170.230338 
L 264.375 170.017302 
L 263.6775 169.803274 
L 262.98 169.590374 
L 262.2825 169.380707 
L 261.585 169.176333 
L 260.8875 168.979245 
L 260.19 168.791337 
L 259.4925 168.614379 
L 258.795 168.449998 
L 258.0975 168.299655 
L 257.4 168.164624 
L 256.7025 168.045981 
L 256.005 167.944586 
L 255.3075 167.861077 
L 254.61 167.795865 
L 253.9125 167.749125 
L 253.215 167.720802 
L 252.5175 167.710616 
L 251.82 167.718062 
L 251.1225 167.742429 
L 250.425 167.782808 
L 249.7275 167.83811 
L 249.03 167.907086 
L 248.3325 167.988345 
L 247.635 168.08038 
L 246.9375 168.181593 
L 246.24 168.290319 
L 245.5425 168.404849 
L 244.845 168.523467 
L 244.1475 168.644464 
L 243.45 168.766175 
L 242.7525 168.886997 
L 242.055 169.005417 
L 241.3575 169.120032 
L 240.66 169.22957 
L 239.9625 169.33291 
L 239.265 169.429091 
L 238.5675 169.517334 
L 237.87 169.597042 
L 237.1725 169.667813 
L 236.475 169.729438 
L 235.7775 169.781904 
L 235.08 169.825391 
L 234.3825 169.860262 
L 233.685 169.887055 
L 232.9875 169.906471 
L 232.29 169.919358 
L 231.5925 169.926692 
L 230.895 169.929559 
L 230.1975 169.929131 
L 229.5 169.926646 
L 228.8025 169.92338 
L 228.105 169.920624 
L 227.4075 169.919661 
L 226.71 169.921736 
L 226.0125 169.928036 
L 225.315 169.939664 
L 224.6175 169.95762 
L 223.92 169.982775 
L 223.2225 170.01586 
L 222.525 170.057444 
L 221.8275 170.107924 
L 221.13 170.167515 
L 220.4325 170.236241 
L 219.735 170.313929 
L 219.0375 170.400215 
L 218.34 170.494538 
L 217.6425 170.596152 
L 216.945 170.704132 
L 216.2475 170.817385 
L 215.55 170.934668 
L 214.8525 171.054603 
L 214.155 171.175697 
L 213.4575 171.296364 
L 212.76 171.414949 
L 212.0625 171.529754 
L 211.365 171.639062 
L 210.6675 171.741165 
L 209.97 171.834391 
L 209.2725 171.917128 
L 208.575 171.987853 
L 207.8775 172.045156 
L 207.18 172.087763 
L 206.4825 172.114557 
L 205.785 172.124596 
L 205.0875 172.117135 
L 204.39 172.091633 
L 203.6925 172.04777 
L 202.995 171.985452 
L 202.2975 171.904814 
L 201.6 171.806227 
L 200.9025 171.690288 
L 200.205 171.557821 
L 199.5075 171.409864 
L 198.81 171.247657 
L 198.1125 171.072631 
L 197.415 170.886383 
L 196.7175 170.690662 
L 196.02 170.487342 
L 195.3225 170.278398 
L 194.625 170.065883 
L 193.9275 169.851894 
L 193.23 169.638552 
L 192.5325 169.427967 
L 191.835 169.222212 
L 191.1375 169.023298 
L 190.44 168.833143 
L 189.7425 168.653548 
L 189.045 168.486174 
L 188.3475 168.332522 
L 187.65 168.193909 
L 186.9525 168.071458 
L 186.255 167.966079 
L 185.5575 167.878461 
L 184.86 167.809066 
L 184.1625 167.758124 
L 183.465 167.725633 
L 182.7675 167.711361 
L 182.07 167.714855 
L 181.3725 167.73545 
L 180.675 167.772279 
L 179.9775 167.824294 
L 179.28 167.890279 
L 178.5825 167.968875 
L 177.885 168.058598 
L 177.1875 168.15787 
L 176.49 168.265037 
L 175.7925 168.378399 
L 175.095 168.496238 
L 174.3975 168.616843 
L 173.7 168.738535 
L 173.0025 168.859696 
L 172.305 168.978789 
L 171.6075 169.094386 
L 170.91 169.205182 
L 170.2125 169.31002 
L 169.515 169.407904 
L 168.8175 169.49801 
L 168.12 169.5797 
L 167.4225 169.652527 
L 166.725 169.716239 
L 166.0275 169.770778 
L 165.33 169.81628 
L 164.6325 169.853068 
L 163.935 169.881641 
L 163.2375 169.902664 
L 162.54 169.916954 
L 161.8425 169.925458 
L 161.145 169.92924 
L 160.4475 169.929454 
L 159.75 169.927326 
L 159.0525 169.924124 
L 158.355 169.921139 
L 157.6575 169.919657 
L 156.96 169.920935 
L 156.2625 169.926174 
L 155.565 169.9365 
L 154.8675 169.952936 
L 154.17 169.976385 
L 153.4725 170.007612 
L 152.775 170.047223 
L 152.0775 170.095656 
L 151.38 170.153168 
L 150.6825 170.219825 
L 149.985 170.295501 
L 149.2875 170.379875 
L 148.59 170.472431 
L 147.8925 170.572463 
L 147.195 170.679086 
L 146.4975 170.791245 
L 145.8 170.907729 
L 145.1025 171.027188 
L 144.405 171.148155 
L 143.7075 171.269062 
L 143.01 171.388268 
L 142.3125 171.504083 
L 141.615 171.614791 
L 140.9175 171.71868 
L 140.22 171.814068 
L 139.5225 171.899325 
L 138.825 171.972909 
L 138.1275 172.03338 
L 137.43 172.079431 
L 136.7325 172.109908 
L 136.035 172.123828 
L 135.3375 172.120399 
L 134.64 172.099033 
L 133.9425 172.05936 
L 133.245 172.001232 
L 132.5475 171.924734 
L 131.85 171.830182 
L 131.1525 171.718122 
L 130.455 171.589328 
L 129.7575 171.444789 
L 129.06 171.285702 
L 128.3625 171.113455 
L 127.665 170.929609 
L 126.9675 170.735881 
L 126.27 170.534117 
L 125.5725 170.326274 
L 124.875 170.114387 
L 124.1775 169.900547 
L 123.48 169.686872 
L 122.7825 169.475476 
L 122.085 169.268445 
L 121.3875 169.067804 
L 120.69 168.875496 
L 119.9925 168.693349 
L 119.295 168.52306 
L 118.5975 168.366167 
L 117.9 168.22403 
L 117.2025 168.097818 
L 116.505 167.98849 
L 115.8075 167.896787 
L 115.11 167.823222 
L 114.4125 167.768078 
L 113.715 167.731406 
L 113.0175 167.713025 
L 112.32 167.712533 
L 111.6225 167.72931 
L 110.925 167.762535 
L 110.2275 167.811199 
L 109.53 167.874124 
L 108.8325 167.94998 
L 108.135 168.03731 
L 107.4375 168.134555 
L 106.74 168.240075 
L 106.0425 168.35218 
L 105.345 168.469153 
L 104.6475 168.589278 
L 103.95 168.710868 
L 103.2525 168.832287 
L 102.555 168.95198 
L 101.8575 169.068491 
L 101.16 169.180485 
L 100.4625 169.286771 
L 99.765 169.386314 
L 99.0675 169.47825 
L 98.37 169.5619 
L 97.6725 169.63677 
L 96.975 169.702565 
L 96.2775 169.759184 
L 95.58 169.806718 
L 94.8825 169.845449 
L 94.185 169.875836 
L 93.4875 169.898509 
L 92.79 169.91425 
L 92.0925 169.92398 
L 91.395 169.928737 
L 90.6975 169.929656 
L 90 169.92795 
z
" style="fill:#e0ffff;"/>
   </g>
   <g id="line2d_19">
    <path clip-path="url(#p553e87f430)" d="M 90 169.92795 
L 94.8825 169.845449 
L 98.37 169.5619 
L 102.555 168.95198 
L 108.8325 167.94998 
L 111.6225 167.72931 
L 114.4125 167.768078 
L 117.2025 168.097818 
L 119.9925 168.693349 
L 124.1775 169.900547 
L 129.06 171.285702 
L 131.85 171.830182 
L 134.64 172.099033 
L 137.43 172.079431 
L 140.22 171.814068 
L 144.405 171.148155 
L 149.2875 170.379875 
L 152.775 170.047223 
L 156.2625 169.926174 
L 166.0275 169.770778 
L 169.515 169.407904 
L 174.3975 168.616843 
L 178.5825 167.968875 
L 181.3725 167.73545 
L 184.1625 167.758124 
L 186.9525 168.071458 
L 189.7425 168.653548 
L 193.23 169.638552 
L 198.81 171.247657 
L 201.6 171.806227 
L 204.39 172.091633 
L 207.18 172.087763 
L 209.97 171.834391 
L 214.155 171.175697 
L 219.735 170.313929 
L 223.2225 170.01586 
L 227.4075 169.919661 
L 235.08 169.825391 
L 238.5675 169.517334 
L 242.7525 168.886997 
L 249.03 167.907086 
L 251.82 167.718062 
L 254.61 167.795865 
L 257.4 168.164624 
L 260.19 168.791337 
L 264.375 170.017302 
L 268.56 171.20895 
L 271.35 171.781375 
L 274.14 172.083283 
L 276.93 172.095278 
L 279.72 171.854172 
L 283.905 171.203217 
L 289.485 170.332802 
L 292.9725 170.024547 
L 297.1575 169.919822 
L 304.83 169.834056 
L 308.3175 169.536217 
L 312.5025 168.914174 
L 318.78 167.924527 
L 321.57 167.722144 
L 324.36 167.783618 
L 327.15 168.136186 
L 329.94 168.750096 
L 334.125 169.96867 
L 338.31 171.169597 
L 341.1 171.755634 
L 343.89 172.073982 
L 346.68 172.101963 
L 349.47 171.873393 
L 353.655 171.230697 
L 359.235 170.352113 
L 362.7225 170.03368 
L 366.9075 169.920154 
L 374.58 169.842281 
L 378.0675 169.554652 
L 382.2525 168.941209 
L 388.53 167.942587 
L 391.32 167.727091 
L 394.11 167.772327 
L 396.9 168.108607 
L 399.69 168.709442 
L 403.875 169.920012 
L 408.7575 171.300731 
L 411.5475 171.839511 
L 414.3375 172.101728 
L 417.1275 172.075872 
L 419.9175 171.805791 
L 424.1025 171.137136 
L 428.985 170.371858 
L 432.4725 170.043263 
L 436.6575 169.920673 
L 445.0275 169.81251 
L 448.515 169.490158 
L 452.7 168.848744 
L 458.28 167.961247 
L 461.07 167.732892 
L 463.86 167.761991 
L 466.65 168.081897 
L 469.44 168.669394 
L 472.9275 169.657864 
L 478.5075 171.262956 
L 481.2975 171.815917 
L 484.0875 172.094707 
L 486.8775 172.084528 
L 489.6675 171.826326 
L 493.8525 171.164682 
L 499.4325 170.306504 
L 502.92 170.012508 
L 507.105 169.919641 
L 514.7775 169.8218 
L 518.265 169.509657 
L 522.45 168.876091 
L 528.03 167.980489 
L 530.82 167.739538 
L 533.61 167.75261 
L 536.4 168.056065 
L 539.19 168.629969 
L 542.6775 169.609627 
L 548.2575 171.224511 
L 551.0475 171.791423 
L 553.8375 172.086737 
L 556.6275 172.092371 
L 559.4175 171.846326 
L 563.6025 171.192213 
L 569.1825 170.3252 
L 572.67 170.021019 
L 576.855 169.919738 
L 584.5275 169.830643 
L 588.015 169.528717 
L 592.2 168.903319 
L 598.4775 167.917476 
L 601.2675 167.720407 
L 604.0575 167.788402 
L 606.8475 168.147459 
L 609.6375 168.766523 
L 613.8225 169.988128 
L 618.0075 171.185414 
L 620.7975 171.766036 
L 623.5875 172.077817 
L 626.3775 172.099389 
L 629.1675 171.865773 
L 633.3525 171.219711 
L 638.9325 170.344336 
L 642.42 170.029973 
L 646.605 169.92 
L 646.605 169.92 
" style="fill:none;stroke:#008080;stroke-linecap:round;stroke-width:1.75;"/>
   </g>
   <g id="patch_3">
    <path d="M 90 270.72 
L 90 69.12 
" style="fill:none;stroke:#262626;stroke-linecap:square;stroke-linejoin:miter;stroke-width:1.25;"/>
   </g>
   <g id="patch_4">
    <path d="M 90 270.72 
L 648 270.72 
" style="fill:none;stroke:#262626;stroke-linecap:square;stroke-linejoin:miter;stroke-width:1.25;"/>
   </g>
  </g>
  <g id="axes_2">
   <g id="patch_5">
    <path d="M 90 512.64 
L 648 512.64 
L 648 311.04 
L 90 311.04 
z
" style="fill:#ffffff;"/>
   </g>
   <g id="matplotlib.axis_3">
    <g id="xtick_10">
     <g id="line2d_20">
      <g>
       <use style="fill:#262626;stroke:#262626;" x="190.44" xlink:href="#ma7ae875aeb" y="512.64"/>
      </g>
     </g>
     <g id="text_19">
      <!-- 200 -->
      <g style="fill:#262626;" transform="translate(182.098594 532.797812)scale(0.1 -0.1)">
       <use xlink:href="#ArialMT-32"/>
       <use x="55.615234" xlink:href="#ArialMT-30"/>
       <use x="111.230469" xlink:href="#ArialMT-30"/>
      </g>
     </g>
    </g>
    <g id="xtick_11">
     <g id="line2d_21">
      <g>
       <use style="fill:#262626;stroke:#262626;" x="302.04" xlink:href="#ma7ae875aeb" y="512.64"/>
      </g>
     </g>
     <g id="text_20">
      <!-- 400 -->
      <g style="fill:#262626;" transform="translate(293.698594 532.797812)scale(0.1 -0.1)">
       <use xlink:href="#ArialMT-34"/>
       <use x="55.615234" xlink:href="#ArialMT-30"/>
       <use x="111.230469" xlink:href="#ArialMT-30"/>
      </g>
     </g>
    </g>
    <g id="xtick_12">
     <g id="line2d_22">
      <g>
       <use style="fill:#262626;stroke:#262626;" x="413.64" xlink:href="#ma7ae875aeb" y="512.64"/>
      </g>
     </g>
     <g id="text_21">
      <!-- 600 -->
      <g style="fill:#262626;" transform="translate(405.298594 532.797812)scale(0.1 -0.1)">
       <use xlink:href="#ArialMT-36"/>
       <use x="55.615234" xlink:href="#ArialMT-30"/>
       <use x="111.230469" xlink:href="#ArialMT-30"/>
      </g>
     </g>
    </g>
    <g id="xtick_13">
     <g id="line2d_23">
      <g>
       <use style="fill:#262626;stroke:#262626;" x="525.24" xlink:href="#ma7ae875aeb" y="512.64"/>
      </g>
     </g>
     <g id="text_22">
      <!-- 800 -->
      <g style="fill:#262626;" transform="translate(516.898594 532.797812)scale(0.1 -0.1)">
       <use xlink:href="#ArialMT-38"/>
       <use x="55.615234" xlink:href="#ArialMT-30"/>
       <use x="111.230469" xlink:href="#ArialMT-30"/>
      </g>
     </g>
    </g>
    <g id="xtick_14">
     <g id="line2d_24">
      <g>
       <use style="fill:#262626;stroke:#262626;" x="636.84" xlink:href="#ma7ae875aeb" y="512.64"/>
      </g>
     </g>
     <g id="text_23">
      <!-- 1000 -->
      <g style="fill:#262626;" transform="translate(625.718125 532.797812)scale(0.1 -0.1)">
       <use xlink:href="#ArialMT-31"/>
       <use x="55.615234" xlink:href="#ArialMT-30"/>
       <use x="111.230469" xlink:href="#ArialMT-30"/>
       <use x="166.845703" xlink:href="#ArialMT-30"/>
      </g>
     </g>
    </g>
   </g>
   <g id="matplotlib.axis_4">
    <g id="ytick_10">
     <g id="line2d_25">
      <g>
       <use style="fill:#262626;stroke:#262626;" x="90" xlink:href="#m32765208dc" y="512.64"/>
      </g>
     </g>
     <g id="text_24">
      <!-- 0 -->
      <g style="fill:#262626;" transform="translate(71.439063 516.218906)scale(0.1 -0.1)">
       <use xlink:href="#ArialMT-30"/>
      </g>
     </g>
    </g>
    <g id="ytick_11">
     <g id="line2d_26">
      <g>
       <use style="fill:#262626;stroke:#262626;" x="90" xlink:href="#m32765208dc" y="483.84"/>
      </g>
     </g>
     <g id="text_25">
      <!-- 10 -->
      <g style="fill:#262626;" transform="translate(65.878125 487.418906)scale(0.1 -0.1)">
       <use xlink:href="#ArialMT-31"/>
       <use x="55.615234" xlink:href="#ArialMT-30"/>
      </g>
     </g>
    </g>
    <g id="ytick_12">
     <g id="line2d_27">
      <g>
       <use style="fill:#262626;stroke:#262626;" x="90" xlink:href="#m32765208dc" y="455.04"/>
      </g>
     </g>
     <g id="text_26">
      <!-- 20 -->
      <g style="fill:#262626;" transform="translate(65.878125 458.618906)scale(0.1 -0.1)">
       <use xlink:href="#ArialMT-32"/>
       <use x="55.615234" xlink:href="#ArialMT-30"/>
      </g>
     </g>
    </g>
    <g id="ytick_13">
     <g id="line2d_28">
      <g>
       <use style="fill:#262626;stroke:#262626;" x="90" xlink:href="#m32765208dc" y="426.24"/>
      </g>
     </g>
     <g id="text_27">
      <!-- 30 -->
      <g style="fill:#262626;" transform="translate(65.878125 429.818906)scale(0.1 -0.1)">
       <use xlink:href="#ArialMT-33"/>
       <use x="55.615234" xlink:href="#ArialMT-30"/>
      </g>
     </g>
    </g>
    <g id="ytick_14">
     <g id="line2d_29">
      <g>
       <use style="fill:#262626;stroke:#262626;" x="90" xlink:href="#m32765208dc" y="397.44"/>
      </g>
     </g>
     <g id="text_28">
      <!-- 40 -->
      <g style="fill:#262626;" transform="translate(65.878125 401.018906)scale(0.1 -0.1)">
       <use xlink:href="#ArialMT-34"/>
       <use x="55.615234" xlink:href="#ArialMT-30"/>
      </g>
     </g>
    </g>
    <g id="ytick_15">
     <g id="line2d_30">
      <g>
       <use style="fill:#262626;stroke:#262626;" x="90" xlink:href="#m32765208dc" y="368.64"/>
      </g>
     </g>
     <g id="text_29">
      <!-- 50 -->
      <g style="fill:#262626;" transform="translate(65.878125 372.218906)scale(0.1 -0.1)">
       <use xlink:href="#ArialMT-35"/>
       <use x="55.615234" xlink:href="#ArialMT-30"/>
      </g>
     </g>
    </g>
    <g id="ytick_16">
     <g id="line2d_31">
      <g>
       <use style="fill:#262626;stroke:#262626;" x="90" xlink:href="#m32765208dc" y="339.84"/>
      </g>
     </g>
     <g id="text_30">
      <!-- 60 -->
      <g style="fill:#262626;" transform="translate(65.878125 343.418906)scale(0.1 -0.1)">
       <use xlink:href="#ArialMT-36"/>
       <use x="55.615234" xlink:href="#ArialMT-30"/>
      </g>
     </g>
    </g>
    <g id="ytick_17">
     <g id="line2d_32">
      <g>
       <use style="fill:#262626;stroke:#262626;" x="90" xlink:href="#m32765208dc" y="311.04"/>
      </g>
     </g>
     <g id="text_31">
      <!-- 70 -->
      <g style="fill:#262626;" transform="translate(65.878125 314.618906)scale(0.1 -0.1)">
       <use xlink:href="#ArialMT-37"/>
       <use x="55.615234" xlink:href="#ArialMT-30"/>
      </g>
     </g>
    </g>
   </g>
   <g id="line2d_33">
    <path clip-path="url(#pcfb9b83289)" d="M 90 495.208 
L 101.16 496.246355 
L 112.32 497.676438 
L 123.48 496.773624 
L 134.64 495.319457 
L 145.8 494.970857 
L 156.96 496.496469 
L 168.12 493.948302 
L 179.28 491.922563 
L 190.44 492.701338 
L 201.6 493.08264 
L 212.76 488.265624 
L 223.92 486.884007 
L 235.08 484.919609 
L 246.24 481.076037 
L 257.4 476.781513 
L 268.56 466.885099 
L 279.72 461.735001 
L 290.88 446.632864 
L 302.04 392.641353 
L 313.2 347.842084 
L 324.36 327.210442 
L 335.52 347.127932 
L 346.68 397.986588 
L 357.84 448.123679 
L 369 461.866051 
L 380.16 470.857725 
L 391.32 480.686219 
L 402.48 482.14059 
L 413.64 486.68837 
L 424.8 491.849661 
L 435.96 491.68536 
L 447.12 493.461916 
L 458.28 496.485392 
L 469.44 497.52324 
L 480.6 497.152641 
L 491.76 498.521226 
L 502.92 500.730979 
L 514.08 500.835305 
L 525.24 500.069125 
L 536.4 501.805146 
L 547.56 503.483326 
L 558.72 502.179775 
L 569.88 502.972342 
" style="fill:none;stroke:#b22222;stroke-linecap:round;stroke-width:1.75;"/>
   </g>
   <g id="patch_6">
    <path d="M 90 512.64 
L 90 311.04 
" style="fill:none;stroke:#262626;stroke-linecap:square;stroke-linejoin:miter;stroke-width:1.25;"/>
   </g>
   <g id="patch_7">
    <path d="M 90 512.64 
L 648 512.64 
" style="fill:none;stroke:#262626;stroke-linecap:square;stroke-linejoin:miter;stroke-width:1.25;"/>
   </g>
   <g id="text_32">
    <!-- f = 880 -->
    <defs>
     <path d="M 8.6875 0 
L 8.6875 45.015625 
L 0.921875 45.015625 
L 0.921875 51.859375 
L 8.6875 51.859375 
L 8.6875 57.375 
Q 8.6875 62.59375 9.625 65.140625 
Q 10.890625 68.5625 14.078125 70.671875 
Q 17.28125 72.796875 23.046875 72.796875 
Q 26.765625 72.796875 31.25 71.921875 
L 29.9375 64.265625 
Q 27.203125 64.75 24.75 64.75 
Q 20.75 64.75 19.09375 63.03125 
Q 17.4375 61.328125 17.4375 56.640625 
L 17.4375 51.859375 
L 27.546875 51.859375 
L 27.546875 45.015625 
L 17.4375 45.015625 
L 17.4375 0 
z
" id="ArialMT-66"/>
     <path id="ArialMT-20"/>
     <path d="M 52.828125 42.09375 
L 5.5625 42.09375 
L 5.5625 50.296875 
L 52.828125 50.296875 
z
M 52.828125 20.359375 
L 5.5625 20.359375 
L 5.5625 28.5625 
L 52.828125 28.5625 
z
" id="ArialMT-3d"/>
    </defs>
    <g style="fill:#262626;" transform="translate(525.24 371.742188)scale(0.12 -0.12)">
     <use xlink:href="#ArialMT-66"/>
     <use x="27.783203" xlink:href="#ArialMT-20"/>
     <use x="55.566406" xlink:href="#ArialMT-3d"/>
     <use x="113.964844" xlink:href="#ArialMT-20"/>
     <use x="141.748047" xlink:href="#ArialMT-38"/>
     <use x="197.363281" xlink:href="#ArialMT-38"/>
     <use x="252.978516" xlink:href="#ArialMT-30"/>
    </g>
   </g>
   <g id="PathCollection_1">
    <defs>
     <path d="M 0 3.5 
C 0.928211 3.5 1.81853 3.131218 2.474874 2.474874 
C 3.131218 1.81853 3.5 0.928211 3.5 0 
C 3.5 -0.928211 3.131218 -1.81853 2.474874 -2.474874 
C 1.81853 -3.131218 0.928211 -3.5 0 -3.5 
C -0.928211 -3.5 -1.81853 -3.131218 -2.474874 -2.474874 
C -3.131218 -1.81853 -3.5 -0.928211 -3.5 0 
C -3.5 0.928211 -3.131218 1.81853 -2.474874 2.474874 
C -1.81853 3.131218 -0.928211 3.5 0 3.5 
z
" id="m32688d017c" style="stroke:#800000;stroke-width:0.3;"/>
    </defs>
    <g clip-path="url(#pcfb9b83289)">
     <use style="fill:#800000;stroke:#800000;stroke-width:0.3;" x="569.88" xlink:href="#m32688d017c" y="502.972342"/>
    </g>
   </g>
  </g>
 </g>
 <defs>
  <clipPath id="p553e87f430">
   <rect height="201.6" width="558" x="90" y="69.12"/>
  </clipPath>
  <clipPath id="pcfb9b83289">
   <rect height="201.6" width="558" x="90" y="311.04"/>
  </clipPath>
 </defs>
</svg>
