<?xml version="1.0" encoding="utf-8" standalone="no"?>
<!DOCTYPE svg PUBLIC "-//W3C//DTD SVG 1.1//EN"
  "http://www.w3.org/Graphics/SVG/1.1/DTD/svg11.dtd">
<!-- Created with matplotlib (http://matplotlib.org/) -->
<svg height="576pt" version="1.1" viewBox="0 0 720 576" width="720pt" xmlns="http://www.w3.org/2000/svg" xmlns:xlink="http://www.w3.org/1999/xlink">
 <defs>
  <style type="text/css">
*{stroke-linecap:butt;stroke-linejoin:round;}
  </style>
 </defs>
 <g id="figure_1">
  <g id="patch_1">
   <path d="M 0 576 
L 720 576 
L 720 0 
L 0 0 
z
" style="fill:#ffffff;"/>
  </g>
  <g id="axes_1">
   <g id="patch_2">
    <path d="M 90 270.72 
L 648 270.72 
L 648 69.12 
L 90 69.12 
z
" style="fill:#ffffff;"/>
   </g>
   <g id="matplotlib.axis_1">
    <g id="xtick_1">
     <g id="line2d_1">
      <defs>
       <path d="M 0 0 
L 0 6 
" id="m540960e981" style="stroke:#262626;"/>
      </defs>
      <g>
       <use style="fill:#262626;stroke:#262626;" x="90" xlink:href="#m540960e981" y="270.72"/>
      </g>
     </g>
     <g id="text_1">
      <!-- 0 -->
      <defs>
       <path d="M 4.15625 35.296875 
Q 4.15625 48 6.765625 55.734375 
Q 9.375 63.484375 14.515625 67.671875 
Q 19.671875 71.875 27.484375 71.875 
Q 33.25 71.875 37.59375 69.546875 
Q 41.9375 67.234375 44.765625 62.859375 
Q 47.609375 58.5 49.21875 52.21875 
Q 50.828125 45.953125 50.828125 35.296875 
Q 50.828125 22.703125 48.234375 14.96875 
Q 45.65625 7.234375 40.5 3 
Q 35.359375 -1.21875 27.484375 -1.21875 
Q 17.140625 -1.21875 11.234375 6.203125 
Q 4.15625 15.140625 4.15625 35.296875 
z
M 13.1875 35.296875 
Q 13.1875 17.671875 17.3125 11.828125 
Q 21.4375 6 27.484375 6 
Q 33.546875 6 37.671875 11.859375 
Q 41.796875 17.71875 41.796875 35.296875 
Q 41.796875 52.984375 37.671875 58.78125 
Q 33.546875 64.59375 27.390625 64.59375 
Q 21.34375 64.59375 17.71875 59.46875 
Q 13.1875 52.9375 13.1875 35.296875 
z
" id="ArialMT-30"/>
      </defs>
      <g style="fill:#262626;" transform="translate(87.219531 290.877812)scale(0.1 -0.1)">
       <use xlink:href="#ArialMT-30"/>
      </g>
     </g>
    </g>
    <g id="xtick_2">
     <g id="line2d_2">
      <g>
       <use style="fill:#262626;stroke:#262626;" x="159.75" xlink:href="#m540960e981" y="270.72"/>
      </g>
     </g>
     <g id="text_2">
      <!-- 100 -->
      <defs>
       <path d="M 37.25 0 
L 28.46875 0 
L 28.46875 56 
Q 25.296875 52.984375 20.140625 49.953125 
Q 14.984375 46.921875 10.890625 45.40625 
L 10.890625 53.90625 
Q 18.265625 57.375 23.78125 62.296875 
Q 29.296875 67.234375 31.59375 71.875 
L 37.25 71.875 
z
" id="ArialMT-31"/>
      </defs>
      <g style="fill:#262626;" transform="translate(151.408594 290.877812)scale(0.1 -0.1)">
       <use xlink:href="#ArialMT-31"/>
       <use x="55.615234" xlink:href="#ArialMT-30"/>
       <use x="111.230469" xlink:href="#ArialMT-30"/>
      </g>
     </g>
    </g>
    <g id="xtick_3">
     <g id="line2d_3">
      <g>
       <use style="fill:#262626;stroke:#262626;" x="229.5" xlink:href="#m540960e981" y="270.72"/>
      </g>
     </g>
     <g id="text_3">
      <!-- 200 -->
      <defs>
       <path d="M 50.34375 8.453125 
L 50.34375 0 
L 3.03125 0 
Q 2.9375 3.171875 4.046875 6.109375 
Q 5.859375 10.9375 9.828125 15.625 
Q 13.8125 20.3125 21.34375 26.46875 
Q 33.015625 36.03125 37.109375 41.625 
Q 41.21875 47.21875 41.21875 52.203125 
Q 41.21875 57.421875 37.46875 61 
Q 33.734375 64.59375 27.734375 64.59375 
Q 21.390625 64.59375 17.578125 60.78125 
Q 13.765625 56.984375 13.71875 50.25 
L 4.6875 51.171875 
Q 5.609375 61.28125 11.65625 66.578125 
Q 17.71875 71.875 27.9375 71.875 
Q 38.234375 71.875 44.234375 66.15625 
Q 50.25 60.453125 50.25 52 
Q 50.25 47.703125 48.484375 43.546875 
Q 46.734375 39.40625 42.65625 34.8125 
Q 38.578125 30.21875 29.109375 22.21875 
Q 21.1875 15.578125 18.9375 13.203125 
Q 16.703125 10.84375 15.234375 8.453125 
z
" id="ArialMT-32"/>
      </defs>
      <g style="fill:#262626;" transform="translate(221.158594 290.877812)scale(0.1 -0.1)">
       <use xlink:href="#ArialMT-32"/>
       <use x="55.615234" xlink:href="#ArialMT-30"/>
       <use x="111.230469" xlink:href="#ArialMT-30"/>
      </g>
     </g>
    </g>
    <g id="xtick_4">
     <g id="line2d_4">
      <g>
       <use style="fill:#262626;stroke:#262626;" x="299.25" xlink:href="#m540960e981" y="270.72"/>
      </g>
     </g>
     <g id="text_4">
      <!-- 300 -->
      <defs>
       <path d="M 4.203125 18.890625 
L 12.984375 20.0625 
Q 14.5 12.59375 18.140625 9.296875 
Q 21.78125 6 27 6 
Q 33.203125 6 37.46875 10.296875 
Q 41.75 14.59375 41.75 20.953125 
Q 41.75 27 37.796875 30.921875 
Q 33.84375 34.859375 27.734375 34.859375 
Q 25.25 34.859375 21.53125 33.890625 
L 22.515625 41.609375 
Q 23.390625 41.5 23.921875 41.5 
Q 29.546875 41.5 34.03125 44.421875 
Q 38.53125 47.359375 38.53125 53.46875 
Q 38.53125 58.296875 35.25 61.46875 
Q 31.984375 64.65625 26.8125 64.65625 
Q 21.6875 64.65625 18.265625 61.421875 
Q 14.84375 58.203125 13.875 51.765625 
L 5.078125 53.328125 
Q 6.6875 62.15625 12.390625 67.015625 
Q 18.109375 71.875 26.609375 71.875 
Q 32.46875 71.875 37.390625 69.359375 
Q 42.328125 66.84375 44.9375 62.5 
Q 47.5625 58.15625 47.5625 53.265625 
Q 47.5625 48.640625 45.0625 44.828125 
Q 42.578125 41.015625 37.703125 38.765625 
Q 44.046875 37.3125 47.5625 32.6875 
Q 51.078125 28.078125 51.078125 21.140625 
Q 51.078125 11.765625 44.234375 5.25 
Q 37.40625 -1.265625 26.953125 -1.265625 
Q 17.53125 -1.265625 11.296875 4.34375 
Q 5.078125 9.96875 4.203125 18.890625 
z
" id="ArialMT-33"/>
      </defs>
      <g style="fill:#262626;" transform="translate(290.908594 290.877812)scale(0.1 -0.1)">
       <use xlink:href="#ArialMT-33"/>
       <use x="55.615234" xlink:href="#ArialMT-30"/>
       <use x="111.230469" xlink:href="#ArialMT-30"/>
      </g>
     </g>
    </g>
    <g id="xtick_5">
     <g id="line2d_5">
      <g>
       <use style="fill:#262626;stroke:#262626;" x="369" xlink:href="#m540960e981" y="270.72"/>
      </g>
     </g>
     <g id="text_5">
      <!-- 400 -->
      <defs>
       <path d="M 32.328125 0 
L 32.328125 17.140625 
L 1.265625 17.140625 
L 1.265625 25.203125 
L 33.9375 71.578125 
L 41.109375 71.578125 
L 41.109375 25.203125 
L 50.78125 25.203125 
L 50.78125 17.140625 
L 41.109375 17.140625 
L 41.109375 0 
z
M 32.328125 25.203125 
L 32.328125 57.46875 
L 9.90625 25.203125 
z
" id="ArialMT-34"/>
      </defs>
      <g style="fill:#262626;" transform="translate(360.658594 290.877812)scale(0.1 -0.1)">
       <use xlink:href="#ArialMT-34"/>
       <use x="55.615234" xlink:href="#ArialMT-30"/>
       <use x="111.230469" xlink:href="#ArialMT-30"/>
      </g>
     </g>
    </g>
    <g id="xtick_6">
     <g id="line2d_6">
      <g>
       <use style="fill:#262626;stroke:#262626;" x="438.75" xlink:href="#m540960e981" y="270.72"/>
      </g>
     </g>
     <g id="text_6">
      <!-- 500 -->
      <defs>
       <path d="M 4.15625 18.75 
L 13.375 19.53125 
Q 14.40625 12.796875 18.140625 9.390625 
Q 21.875 6 27.15625 6 
Q 33.5 6 37.890625 10.78125 
Q 42.28125 15.578125 42.28125 23.484375 
Q 42.28125 31 38.0625 35.34375 
Q 33.84375 39.703125 27 39.703125 
Q 22.75 39.703125 19.328125 37.765625 
Q 15.921875 35.84375 13.96875 32.765625 
L 5.71875 33.84375 
L 12.640625 70.609375 
L 48.25 70.609375 
L 48.25 62.203125 
L 19.671875 62.203125 
L 15.828125 42.96875 
Q 22.265625 47.46875 29.34375 47.46875 
Q 38.71875 47.46875 45.15625 40.96875 
Q 51.609375 34.46875 51.609375 24.265625 
Q 51.609375 14.546875 45.953125 7.46875 
Q 39.0625 -1.21875 27.15625 -1.21875 
Q 17.390625 -1.21875 11.203125 4.25 
Q 5.03125 9.71875 4.15625 18.75 
z
" id="ArialMT-35"/>
      </defs>
      <g style="fill:#262626;" transform="translate(430.408594 290.877812)scale(0.1 -0.1)">
       <use xlink:href="#ArialMT-35"/>
       <use x="55.615234" xlink:href="#ArialMT-30"/>
       <use x="111.230469" xlink:href="#ArialMT-30"/>
      </g>
     </g>
    </g>
    <g id="xtick_7">
     <g id="line2d_7">
      <g>
       <use style="fill:#262626;stroke:#262626;" x="508.5" xlink:href="#m540960e981" y="270.72"/>
      </g>
     </g>
     <g id="text_7">
      <!-- 600 -->
      <defs>
       <path d="M 49.75 54.046875 
L 41.015625 53.375 
Q 39.84375 58.546875 37.703125 60.890625 
Q 34.125 64.65625 28.90625 64.65625 
Q 24.703125 64.65625 21.53125 62.3125 
Q 17.390625 59.28125 14.984375 53.46875 
Q 12.59375 47.65625 12.5 36.921875 
Q 15.671875 41.75 20.265625 44.09375 
Q 24.859375 46.4375 29.890625 46.4375 
Q 38.671875 46.4375 44.84375 39.96875 
Q 51.03125 33.5 51.03125 23.25 
Q 51.03125 16.5 48.125 10.71875 
Q 45.21875 4.9375 40.140625 1.859375 
Q 35.0625 -1.21875 28.609375 -1.21875 
Q 17.625 -1.21875 10.6875 6.859375 
Q 3.765625 14.9375 3.765625 33.5 
Q 3.765625 54.25 11.421875 63.671875 
Q 18.109375 71.875 29.4375 71.875 
Q 37.890625 71.875 43.28125 67.140625 
Q 48.6875 62.40625 49.75 54.046875 
z
M 13.875 23.1875 
Q 13.875 18.65625 15.796875 14.5 
Q 17.71875 10.359375 21.1875 8.171875 
Q 24.65625 6 28.46875 6 
Q 34.03125 6 38.03125 10.484375 
Q 42.046875 14.984375 42.046875 22.703125 
Q 42.046875 30.125 38.078125 34.390625 
Q 34.125 38.671875 28.125 38.671875 
Q 22.171875 38.671875 18.015625 34.390625 
Q 13.875 30.125 13.875 23.1875 
z
" id="ArialMT-36"/>
      </defs>
      <g style="fill:#262626;" transform="translate(500.158594 290.877812)scale(0.1 -0.1)">
       <use xlink:href="#ArialMT-36"/>
       <use x="55.615234" xlink:href="#ArialMT-30"/>
       <use x="111.230469" xlink:href="#ArialMT-30"/>
      </g>
     </g>
    </g>
    <g id="xtick_8">
     <g id="line2d_8">
      <g>
       <use style="fill:#262626;stroke:#262626;" x="578.25" xlink:href="#m540960e981" y="270.72"/>
      </g>
     </g>
     <g id="text_8">
      <!-- 700 -->
      <defs>
       <path d="M 4.734375 62.203125 
L 4.734375 70.65625 
L 51.078125 70.65625 
L 51.078125 63.8125 
Q 44.234375 56.546875 37.515625 44.484375 
Q 30.8125 32.421875 27.15625 19.671875 
Q 24.515625 10.6875 23.78125 0 
L 14.75 0 
Q 14.890625 8.453125 18.0625 20.40625 
Q 21.234375 32.375 27.171875 43.484375 
Q 33.109375 54.59375 39.796875 62.203125 
z
" id="ArialMT-37"/>
      </defs>
      <g style="fill:#262626;" transform="translate(569.908594 290.877812)scale(0.1 -0.1)">
       <use xlink:href="#ArialMT-37"/>
       <use x="55.615234" xlink:href="#ArialMT-30"/>
       <use x="111.230469" xlink:href="#ArialMT-30"/>
      </g>
     </g>
    </g>
    <g id="xtick_9">
     <g id="line2d_9">
      <g>
       <use style="fill:#262626;stroke:#262626;" x="648" xlink:href="#m540960e981" y="270.72"/>
      </g>
     </g>
     <g id="text_9">
      <!-- 800 -->
      <defs>
       <path d="M 17.671875 38.8125 
Q 12.203125 40.828125 9.5625 44.53125 
Q 6.9375 48.25 6.9375 53.421875 
Q 6.9375 61.234375 12.546875 66.546875 
Q 18.171875 71.875 27.484375 71.875 
Q 36.859375 71.875 42.578125 66.421875 
Q 48.296875 60.984375 48.296875 53.171875 
Q 48.296875 48.1875 45.671875 44.5 
Q 43.0625 40.828125 37.75 38.8125 
Q 44.34375 36.671875 47.78125 31.875 
Q 51.21875 27.09375 51.21875 20.453125 
Q 51.21875 11.28125 44.71875 5.03125 
Q 38.234375 -1.21875 27.640625 -1.21875 
Q 17.046875 -1.21875 10.546875 5.046875 
Q 4.046875 11.328125 4.046875 20.703125 
Q 4.046875 27.6875 7.59375 32.390625 
Q 11.140625 37.109375 17.671875 38.8125 
z
M 15.921875 53.71875 
Q 15.921875 48.640625 19.1875 45.40625 
Q 22.46875 42.1875 27.6875 42.1875 
Q 32.765625 42.1875 36.015625 45.375 
Q 39.265625 48.578125 39.265625 53.21875 
Q 39.265625 58.0625 35.90625 61.359375 
Q 32.5625 64.65625 27.59375 64.65625 
Q 22.5625 64.65625 19.234375 61.421875 
Q 15.921875 58.203125 15.921875 53.71875 
z
M 13.09375 20.65625 
Q 13.09375 16.890625 14.875 13.375 
Q 16.65625 9.859375 20.171875 7.921875 
Q 23.6875 6 27.734375 6 
Q 34.03125 6 38.125 10.046875 
Q 42.234375 14.109375 42.234375 20.359375 
Q 42.234375 26.703125 38.015625 30.859375 
Q 33.796875 35.015625 27.4375 35.015625 
Q 21.234375 35.015625 17.15625 30.90625 
Q 13.09375 26.8125 13.09375 20.65625 
z
" id="ArialMT-38"/>
      </defs>
      <g style="fill:#262626;" transform="translate(639.658594 290.877812)scale(0.1 -0.1)">
       <use xlink:href="#ArialMT-38"/>
       <use x="55.615234" xlink:href="#ArialMT-30"/>
       <use x="111.230469" xlink:href="#ArialMT-30"/>
      </g>
     </g>
    </g>
   </g>
   <g id="matplotlib.axis_2">
    <g id="ytick_1">
     <g id="line2d_10">
      <defs>
       <path d="M 0 0 
L -6 0 
" id="m93158c598f" style="stroke:#262626;"/>
      </defs>
      <g>
       <use style="fill:#262626;stroke:#262626;" x="90" xlink:href="#m93158c598f" y="270.72"/>
      </g>
     </g>
     <g id="text_10">
      <!-- −0.20 -->
      <defs>
       <path d="M 52.828125 31.203125 
L 5.5625 31.203125 
L 5.5625 39.40625 
L 52.828125 39.40625 
z
" id="ArialMT-2212"/>
       <path d="M 9.078125 0 
L 9.078125 10.015625 
L 19.09375 10.015625 
L 19.09375 0 
z
" id="ArialMT-2e"/>
      </defs>
      <g style="fill:#262626;" transform="translate(51.698437 274.298906)scale(0.1 -0.1)">
       <use xlink:href="#ArialMT-2212"/>
       <use x="58.398438" xlink:href="#ArialMT-30"/>
       <use x="114.013672" xlink:href="#ArialMT-2e"/>
       <use x="141.796875" xlink:href="#ArialMT-32"/>
       <use x="197.412109" xlink:href="#ArialMT-30"/>
      </g>
     </g>
    </g>
    <g id="ytick_2">
     <g id="line2d_11">
      <g>
       <use style="fill:#262626;stroke:#262626;" x="90" xlink:href="#m93158c598f" y="245.52"/>
      </g>
     </g>
     <g id="text_11">
      <!-- −0.15 -->
      <g style="fill:#262626;" transform="translate(51.698437 249.098906)scale(0.1 -0.1)">
       <use xlink:href="#ArialMT-2212"/>
       <use x="58.398438" xlink:href="#ArialMT-30"/>
       <use x="114.013672" xlink:href="#ArialMT-2e"/>
       <use x="141.796875" xlink:href="#ArialMT-31"/>
       <use x="197.412109" xlink:href="#ArialMT-35"/>
      </g>
     </g>
    </g>
    <g id="ytick_3">
     <g id="line2d_12">
      <g>
       <use style="fill:#262626;stroke:#262626;" x="90" xlink:href="#m93158c598f" y="220.32"/>
      </g>
     </g>
     <g id="text_12">
      <!-- −0.10 -->
      <g style="fill:#262626;" transform="translate(51.698437 223.898906)scale(0.1 -0.1)">
       <use xlink:href="#ArialMT-2212"/>
       <use x="58.398438" xlink:href="#ArialMT-30"/>
       <use x="114.013672" xlink:href="#ArialMT-2e"/>
       <use x="141.796875" xlink:href="#ArialMT-31"/>
       <use x="197.412109" xlink:href="#ArialMT-30"/>
      </g>
     </g>
    </g>
    <g id="ytick_4">
     <g id="line2d_13">
      <g>
       <use style="fill:#262626;stroke:#262626;" x="90" xlink:href="#m93158c598f" y="195.12"/>
      </g>
     </g>
     <g id="text_13">
      <!-- −0.05 -->
      <g style="fill:#262626;" transform="translate(51.698437 198.698906)scale(0.1 -0.1)">
       <use xlink:href="#ArialMT-2212"/>
       <use x="58.398438" xlink:href="#ArialMT-30"/>
       <use x="114.013672" xlink:href="#ArialMT-2e"/>
       <use x="141.796875" xlink:href="#ArialMT-30"/>
       <use x="197.412109" xlink:href="#ArialMT-35"/>
      </g>
     </g>
    </g>
    <g id="ytick_5">
     <g id="line2d_14">
      <g>
       <use style="fill:#262626;stroke:#262626;" x="90" xlink:href="#m93158c598f" y="169.92"/>
      </g>
     </g>
     <g id="text_14">
      <!-- 0.00 -->
      <g style="fill:#262626;" transform="translate(57.539062 173.498906)scale(0.1 -0.1)">
       <use xlink:href="#ArialMT-30"/>
       <use x="55.615234" xlink:href="#ArialMT-2e"/>
       <use x="83.398438" xlink:href="#ArialMT-30"/>
       <use x="139.013672" xlink:href="#ArialMT-30"/>
      </g>
     </g>
    </g>
    <g id="ytick_6">
     <g id="line2d_15">
      <g>
       <use style="fill:#262626;stroke:#262626;" x="90" xlink:href="#m93158c598f" y="144.72"/>
      </g>
     </g>
     <g id="text_15">
      <!-- 0.05 -->
      <g style="fill:#262626;" transform="translate(57.539062 148.298906)scale(0.1 -0.1)">
       <use xlink:href="#ArialMT-30"/>
       <use x="55.615234" xlink:href="#ArialMT-2e"/>
       <use x="83.398438" xlink:href="#ArialMT-30"/>
       <use x="139.013672" xlink:href="#ArialMT-35"/>
      </g>
     </g>
    </g>
    <g id="ytick_7">
     <g id="line2d_16">
      <g>
       <use style="fill:#262626;stroke:#262626;" x="90" xlink:href="#m93158c598f" y="119.52"/>
      </g>
     </g>
     <g id="text_16">
      <!-- 0.10 -->
      <g style="fill:#262626;" transform="translate(57.539062 123.098906)scale(0.1 -0.1)">
       <use xlink:href="#ArialMT-30"/>
       <use x="55.615234" xlink:href="#ArialMT-2e"/>
       <use x="83.398438" xlink:href="#ArialMT-31"/>
       <use x="139.013672" xlink:href="#ArialMT-30"/>
      </g>
     </g>
    </g>
    <g id="ytick_8">
     <g id="line2d_17">
      <g>
       <use style="fill:#262626;stroke:#262626;" x="90" xlink:href="#m93158c598f" y="94.32"/>
      </g>
     </g>
     <g id="text_17">
      <!-- 0.15 -->
      <g style="fill:#262626;" transform="translate(57.539062 97.898906)scale(0.1 -0.1)">
       <use xlink:href="#ArialMT-30"/>
       <use x="55.615234" xlink:href="#ArialMT-2e"/>
       <use x="83.398438" xlink:href="#ArialMT-31"/>
       <use x="139.013672" xlink:href="#ArialMT-35"/>
      </g>
     </g>
    </g>
    <g id="ytick_9">
     <g id="line2d_18">
      <g>
       <use style="fill:#262626;stroke:#262626;" x="90" xlink:href="#m93158c598f" y="69.12"/>
      </g>
     </g>
     <g id="text_18">
      <!-- 0.20 -->
      <g style="fill:#262626;" transform="translate(57.539062 72.698906)scale(0.1 -0.1)">
       <use xlink:href="#ArialMT-30"/>
       <use x="55.615234" xlink:href="#ArialMT-2e"/>
       <use x="83.398438" xlink:href="#ArialMT-32"/>
       <use x="139.013672" xlink:href="#ArialMT-30"/>
      </g>
     </g>
    </g>
   </g>
   <g id="PolyCollection_1">
    <path clip-path="url(#pae6a8ffe5c)" d="M 90 171.300357 
L 90 169.92 
L 90.6975 169.92 
L 91.395 169.92 
L 92.0925 169.92 
L 92.79 169.92 
L 93.4875 169.92 
L 94.185 169.92 
L 94.8825 169.92 
L 95.58 169.92 
L 96.2775 169.92 
L 96.975 169.92 
L 97.6725 169.92 
L 98.37 169.92 
L 99.0675 169.92 
L 99.765 169.92 
L 100.4625 169.92 
L 101.16 169.92 
L 101.8575 169.92 
L 102.555 169.92 
L 103.2525 169.92 
L 103.95 169.92 
L 104.6475 169.92 
L 105.345 169.92 
L 106.0425 169.92 
L 106.74 169.92 
L 107.4375 169.92 
L 108.135 169.92 
L 108.8325 169.92 
L 109.53 169.92 
L 110.2275 169.92 
L 110.925 169.92 
L 111.6225 169.92 
L 112.32 169.92 
L 113.0175 169.92 
L 113.715 169.92 
L 114.4125 169.92 
L 115.11 169.92 
L 115.8075 169.92 
L 116.505 169.92 
L 117.2025 169.92 
L 117.9 169.92 
L 118.5975 169.92 
L 119.295 169.92 
L 119.9925 169.92 
L 120.69 169.92 
L 121.3875 169.92 
L 122.085 169.92 
L 122.7825 169.92 
L 123.48 169.92 
L 124.1775 169.92 
L 124.875 169.92 
L 125.5725 169.92 
L 126.27 169.92 
L 126.9675 169.92 
L 127.665 169.92 
L 128.3625 169.92 
L 129.06 169.92 
L 129.7575 169.92 
L 130.455 169.92 
L 131.1525 169.92 
L 131.85 169.92 
L 132.5475 169.92 
L 133.245 169.92 
L 133.9425 169.92 
L 134.64 169.92 
L 135.3375 169.92 
L 136.035 169.92 
L 136.7325 169.92 
L 137.43 169.92 
L 138.1275 169.92 
L 138.825 169.92 
L 139.5225 169.92 
L 140.22 169.92 
L 140.9175 169.92 
L 141.615 169.92 
L 142.3125 169.92 
L 143.01 169.92 
L 143.7075 169.92 
L 144.405 169.92 
L 145.1025 169.92 
L 145.8 169.92 
L 146.4975 169.92 
L 147.195 169.92 
L 147.8925 169.92 
L 148.59 169.92 
L 149.2875 169.92 
L 149.985 169.92 
L 150.6825 169.92 
L 151.38 169.92 
L 152.0775 169.92 
L 152.775 169.92 
L 153.4725 169.92 
L 154.17 169.92 
L 154.8675 169.92 
L 155.565 169.92 
L 156.2625 169.92 
L 156.96 169.92 
L 157.6575 169.92 
L 158.355 169.92 
L 159.0525 169.92 
L 159.75 169.92 
L 160.4475 169.92 
L 161.145 169.92 
L 161.8425 169.92 
L 162.54 169.92 
L 163.2375 169.92 
L 163.935 169.92 
L 164.6325 169.92 
L 165.33 169.92 
L 166.0275 169.92 
L 166.725 169.92 
L 167.4225 169.92 
L 168.12 169.92 
L 168.8175 169.92 
L 169.515 169.92 
L 170.2125 169.92 
L 170.91 169.92 
L 171.6075 169.92 
L 172.305 169.92 
L 173.0025 169.92 
L 173.7 169.92 
L 174.3975 169.92 
L 175.095 169.92 
L 175.7925 169.92 
L 176.49 169.92 
L 177.1875 169.92 
L 177.885 169.92 
L 178.5825 169.92 
L 179.28 169.92 
L 179.9775 169.92 
L 180.675 169.92 
L 181.3725 169.92 
L 182.07 169.92 
L 182.7675 169.92 
L 183.465 169.92 
L 184.1625 169.92 
L 184.86 169.92 
L 185.5575 169.92 
L 186.255 169.92 
L 186.9525 169.92 
L 187.65 169.92 
L 188.3475 169.92 
L 189.045 169.92 
L 189.7425 169.92 
L 190.44 169.92 
L 191.1375 169.92 
L 191.835 169.92 
L 192.5325 169.92 
L 193.23 169.92 
L 193.9275 169.92 
L 194.625 169.92 
L 195.3225 169.92 
L 196.02 169.92 
L 196.7175 169.92 
L 197.415 169.92 
L 198.1125 169.92 
L 198.81 169.92 
L 199.5075 169.92 
L 200.205 169.92 
L 200.9025 169.92 
L 201.6 169.92 
L 202.2975 169.92 
L 202.995 169.92 
L 203.6925 169.92 
L 204.39 169.92 
L 205.0875 169.92 
L 205.785 169.92 
L 206.4825 169.92 
L 207.18 169.92 
L 207.8775 169.92 
L 208.575 169.92 
L 209.2725 169.92 
L 209.97 169.92 
L 210.6675 169.92 
L 211.365 169.92 
L 212.0625 169.92 
L 212.76 169.92 
L 213.4575 169.92 
L 214.155 169.92 
L 214.8525 169.92 
L 215.55 169.92 
L 216.2475 169.92 
L 216.945 169.92 
L 217.6425 169.92 
L 218.34 169.92 
L 219.0375 169.92 
L 219.735 169.92 
L 220.4325 169.92 
L 221.13 169.92 
L 221.8275 169.92 
L 222.525 169.92 
L 223.2225 169.92 
L 223.92 169.92 
L 224.6175 169.92 
L 225.315 169.92 
L 226.0125 169.92 
L 226.71 169.92 
L 227.4075 169.92 
L 228.105 169.92 
L 228.8025 169.92 
L 229.5 169.92 
L 230.1975 169.92 
L 230.895 169.92 
L 231.5925 169.92 
L 232.29 169.92 
L 232.9875 169.92 
L 233.685 169.92 
L 234.3825 169.92 
L 235.08 169.92 
L 235.7775 169.92 
L 236.475 169.92 
L 237.1725 169.92 
L 237.87 169.92 
L 238.5675 169.92 
L 239.265 169.92 
L 239.9625 169.92 
L 240.66 169.92 
L 241.3575 169.92 
L 242.055 169.92 
L 242.7525 169.92 
L 243.45 169.92 
L 244.1475 169.92 
L 244.845 169.92 
L 245.5425 169.92 
L 246.24 169.92 
L 246.9375 169.92 
L 247.635 169.92 
L 248.3325 169.92 
L 249.03 169.92 
L 249.7275 169.92 
L 250.425 169.92 
L 251.1225 169.92 
L 251.82 169.92 
L 252.5175 169.92 
L 253.215 169.92 
L 253.9125 169.92 
L 254.61 169.92 
L 255.3075 169.92 
L 256.005 169.92 
L 256.7025 169.92 
L 257.4 169.92 
L 258.0975 169.92 
L 258.795 169.92 
L 259.4925 169.92 
L 260.19 169.92 
L 260.8875 169.92 
L 261.585 169.92 
L 262.2825 169.92 
L 262.98 169.92 
L 263.6775 169.92 
L 264.375 169.92 
L 265.0725 169.92 
L 265.77 169.92 
L 266.4675 169.92 
L 267.165 169.92 
L 267.8625 169.92 
L 268.56 169.92 
L 269.2575 169.92 
L 269.955 169.92 
L 270.6525 169.92 
L 271.35 169.92 
L 272.0475 169.92 
L 272.745 169.92 
L 273.4425 169.92 
L 274.14 169.92 
L 274.8375 169.92 
L 275.535 169.92 
L 276.2325 169.92 
L 276.93 169.92 
L 277.6275 169.92 
L 278.325 169.92 
L 279.0225 169.92 
L 279.72 169.92 
L 280.4175 169.92 
L 281.115 169.92 
L 281.8125 169.92 
L 282.51 169.92 
L 283.2075 169.92 
L 283.905 169.92 
L 284.6025 169.92 
L 285.3 169.92 
L 285.9975 169.92 
L 286.695 169.92 
L 287.3925 169.92 
L 288.09 169.92 
L 288.7875 169.92 
L 289.485 169.92 
L 290.1825 169.92 
L 290.88 169.92 
L 291.5775 169.92 
L 292.275 169.92 
L 292.9725 169.92 
L 293.67 169.92 
L 294.3675 169.92 
L 295.065 169.92 
L 295.7625 169.92 
L 296.46 169.92 
L 297.1575 169.92 
L 297.855 169.92 
L 298.5525 169.92 
L 299.25 169.92 
L 299.9475 169.92 
L 300.645 169.92 
L 301.3425 169.92 
L 302.04 169.92 
L 302.7375 169.92 
L 303.435 169.92 
L 304.1325 169.92 
L 304.83 169.92 
L 305.5275 169.92 
L 306.225 169.92 
L 306.9225 169.92 
L 307.62 169.92 
L 308.3175 169.92 
L 309.015 169.92 
L 309.7125 169.92 
L 310.41 169.92 
L 311.1075 169.92 
L 311.805 169.92 
L 312.5025 169.92 
L 313.2 169.92 
L 313.8975 169.92 
L 314.595 169.92 
L 315.2925 169.92 
L 315.99 169.92 
L 316.6875 169.92 
L 317.385 169.92 
L 318.0825 169.92 
L 318.78 169.92 
L 319.4775 169.92 
L 320.175 169.92 
L 320.8725 169.92 
L 321.57 169.92 
L 322.2675 169.92 
L 322.965 169.92 
L 323.6625 169.92 
L 324.36 169.92 
L 325.0575 169.92 
L 325.755 169.92 
L 326.4525 169.92 
L 327.15 169.92 
L 327.8475 169.92 
L 328.545 169.92 
L 329.2425 169.92 
L 329.94 169.92 
L 330.6375 169.92 
L 331.335 169.92 
L 332.0325 169.92 
L 332.73 169.92 
L 333.4275 169.92 
L 334.125 169.92 
L 334.8225 169.92 
L 335.52 169.92 
L 336.2175 169.92 
L 336.915 169.92 
L 337.6125 169.92 
L 338.31 169.92 
L 339.0075 169.92 
L 339.705 169.92 
L 340.4025 169.92 
L 341.1 169.92 
L 341.7975 169.92 
L 342.495 169.92 
L 343.1925 169.92 
L 343.89 169.92 
L 344.5875 169.92 
L 345.285 169.92 
L 345.9825 169.92 
L 346.68 169.92 
L 347.3775 169.92 
L 348.075 169.92 
L 348.7725 169.92 
L 349.47 169.92 
L 350.1675 169.92 
L 350.865 169.92 
L 351.5625 169.92 
L 352.26 169.92 
L 352.9575 169.92 
L 353.655 169.92 
L 354.3525 169.92 
L 355.05 169.92 
L 355.7475 169.92 
L 356.445 169.92 
L 357.1425 169.92 
L 357.84 169.92 
L 358.5375 169.92 
L 359.235 169.92 
L 359.9325 169.92 
L 360.63 169.92 
L 361.3275 169.92 
L 362.025 169.92 
L 362.7225 169.92 
L 363.42 169.92 
L 364.1175 169.92 
L 364.815 169.92 
L 365.5125 169.92 
L 366.21 169.92 
L 366.9075 169.92 
L 367.605 169.92 
L 368.3025 169.92 
L 369 169.92 
L 369.6975 169.92 
L 370.395 169.92 
L 371.0925 169.92 
L 371.79 169.92 
L 372.4875 169.92 
L 373.185 169.92 
L 373.8825 169.92 
L 374.58 169.92 
L 375.2775 169.92 
L 375.975 169.92 
L 376.6725 169.92 
L 377.37 169.92 
L 378.0675 169.92 
L 378.765 169.92 
L 379.4625 169.92 
L 380.16 169.92 
L 380.8575 169.92 
L 381.555 169.92 
L 382.2525 169.92 
L 382.95 169.92 
L 383.6475 169.92 
L 384.345 169.92 
L 385.0425 169.92 
L 385.74 169.92 
L 386.4375 169.92 
L 387.135 169.92 
L 387.8325 169.92 
L 388.53 169.92 
L 389.2275 169.92 
L 389.925 169.92 
L 390.6225 169.92 
L 391.32 169.92 
L 392.0175 169.92 
L 392.715 169.92 
L 393.4125 169.92 
L 394.11 169.92 
L 394.8075 169.92 
L 395.505 169.92 
L 396.2025 169.92 
L 396.9 169.92 
L 397.5975 169.92 
L 398.295 169.92 
L 398.9925 169.92 
L 399.69 169.92 
L 400.3875 169.92 
L 401.085 169.92 
L 401.7825 169.92 
L 402.48 169.92 
L 403.1775 169.92 
L 403.875 169.92 
L 404.5725 169.92 
L 405.27 169.92 
L 405.9675 169.92 
L 406.665 169.92 
L 407.3625 169.92 
L 408.06 169.92 
L 408.7575 169.92 
L 409.455 169.92 
L 410.1525 169.92 
L 410.85 169.92 
L 411.5475 169.92 
L 412.245 169.92 
L 412.9425 169.92 
L 413.64 169.92 
L 414.3375 169.92 
L 415.035 169.92 
L 415.7325 169.92 
L 416.43 169.92 
L 417.1275 169.92 
L 417.825 169.92 
L 418.5225 169.92 
L 419.22 169.92 
L 419.9175 169.92 
L 420.615 169.92 
L 421.3125 169.92 
L 422.01 169.92 
L 422.7075 169.92 
L 423.405 169.92 
L 424.1025 169.92 
L 424.8 169.92 
L 425.4975 169.92 
L 426.195 169.92 
L 426.8925 169.92 
L 427.59 169.92 
L 428.2875 169.92 
L 428.985 169.92 
L 429.6825 169.92 
L 430.38 169.92 
L 431.0775 169.92 
L 431.775 169.92 
L 432.4725 169.92 
L 433.17 169.92 
L 433.8675 169.92 
L 434.565 169.92 
L 435.2625 169.92 
L 435.96 169.92 
L 436.6575 169.92 
L 437.355 169.92 
L 438.0525 169.92 
L 438.75 169.92 
L 439.4475 169.92 
L 440.145 169.92 
L 440.8425 169.92 
L 441.54 169.92 
L 442.2375 169.92 
L 442.935 169.92 
L 443.6325 169.92 
L 444.33 169.92 
L 445.0275 169.92 
L 445.725 169.92 
L 446.4225 169.92 
L 447.12 169.92 
L 447.8175 169.92 
L 448.515 169.92 
L 449.2125 169.92 
L 449.91 169.92 
L 450.6075 169.92 
L 451.305 169.92 
L 452.0025 169.92 
L 452.7 169.92 
L 453.3975 169.92 
L 454.095 169.92 
L 454.7925 169.92 
L 455.49 169.92 
L 456.1875 169.92 
L 456.885 169.92 
L 457.5825 169.92 
L 458.28 169.92 
L 458.9775 169.92 
L 459.675 169.92 
L 460.3725 169.92 
L 461.07 169.92 
L 461.7675 169.92 
L 462.465 169.92 
L 463.1625 169.92 
L 463.86 169.92 
L 464.5575 169.92 
L 465.255 169.92 
L 465.9525 169.92 
L 466.65 169.92 
L 467.3475 169.92 
L 468.045 169.92 
L 468.7425 169.92 
L 469.44 169.92 
L 470.1375 169.92 
L 470.835 169.92 
L 471.5325 169.92 
L 472.23 169.92 
L 472.9275 169.92 
L 473.625 169.92 
L 474.3225 169.92 
L 475.02 169.92 
L 475.7175 169.92 
L 476.415 169.92 
L 477.1125 169.92 
L 477.81 169.92 
L 478.5075 169.92 
L 479.205 169.92 
L 479.9025 169.92 
L 480.6 169.92 
L 481.2975 169.92 
L 481.995 169.92 
L 482.6925 169.92 
L 483.39 169.92 
L 484.0875 169.92 
L 484.785 169.92 
L 485.4825 169.92 
L 486.18 169.92 
L 486.8775 169.92 
L 487.575 169.92 
L 488.2725 169.92 
L 488.97 169.92 
L 489.6675 169.92 
L 490.365 169.92 
L 491.0625 169.92 
L 491.76 169.92 
L 492.4575 169.92 
L 493.155 169.92 
L 493.8525 169.92 
L 494.55 169.92 
L 495.2475 169.92 
L 495.945 169.92 
L 496.6425 169.92 
L 497.34 169.92 
L 498.0375 169.92 
L 498.735 169.92 
L 499.4325 169.92 
L 500.13 169.92 
L 500.8275 169.92 
L 501.525 169.92 
L 502.2225 169.92 
L 502.92 169.92 
L 503.6175 169.92 
L 504.315 169.92 
L 505.0125 169.92 
L 505.71 169.92 
L 506.4075 169.92 
L 507.105 169.92 
L 507.8025 169.92 
L 508.5 169.92 
L 509.1975 169.92 
L 509.895 169.92 
L 510.5925 169.92 
L 511.29 169.92 
L 511.9875 169.92 
L 512.685 169.92 
L 513.3825 169.92 
L 514.08 169.92 
L 514.7775 169.92 
L 515.475 169.92 
L 516.1725 169.92 
L 516.87 169.92 
L 517.5675 169.92 
L 518.265 169.92 
L 518.9625 169.92 
L 519.66 169.92 
L 520.3575 169.92 
L 521.055 169.92 
L 521.7525 169.92 
L 522.45 169.92 
L 523.1475 169.92 
L 523.845 169.92 
L 524.5425 169.92 
L 525.24 169.92 
L 525.9375 169.92 
L 526.635 169.92 
L 527.3325 169.92 
L 528.03 169.92 
L 528.7275 169.92 
L 529.425 169.92 
L 530.1225 169.92 
L 530.82 169.92 
L 531.5175 169.92 
L 532.215 169.92 
L 532.9125 169.92 
L 533.61 169.92 
L 534.3075 169.92 
L 535.005 169.92 
L 535.7025 169.92 
L 536.4 169.92 
L 537.0975 169.92 
L 537.795 169.92 
L 538.4925 169.92 
L 539.19 169.92 
L 539.8875 169.92 
L 540.585 169.92 
L 541.2825 169.92 
L 541.98 169.92 
L 542.6775 169.92 
L 543.375 169.92 
L 544.0725 169.92 
L 544.77 169.92 
L 545.4675 169.92 
L 546.165 169.92 
L 546.8625 169.92 
L 547.56 169.92 
L 548.2575 169.92 
L 548.955 169.92 
L 549.6525 169.92 
L 550.35 169.92 
L 551.0475 169.92 
L 551.745 169.92 
L 552.4425 169.92 
L 553.14 169.92 
L 553.8375 169.92 
L 554.535 169.92 
L 555.2325 169.92 
L 555.93 169.92 
L 556.6275 169.92 
L 557.325 169.92 
L 558.0225 169.92 
L 558.72 169.92 
L 559.4175 169.92 
L 560.115 169.92 
L 560.8125 169.92 
L 561.51 169.92 
L 562.2075 169.92 
L 562.905 169.92 
L 563.6025 169.92 
L 564.3 169.92 
L 564.9975 169.92 
L 565.695 169.92 
L 566.3925 169.92 
L 567.09 169.92 
L 567.7875 169.92 
L 568.485 169.92 
L 569.1825 169.92 
L 569.88 169.92 
L 570.5775 169.92 
L 571.275 169.92 
L 571.9725 169.92 
L 572.67 169.92 
L 573.3675 169.92 
L 574.065 169.92 
L 574.7625 169.92 
L 575.46 169.92 
L 576.1575 169.92 
L 576.855 169.92 
L 577.5525 169.92 
L 578.25 169.92 
L 578.9475 169.92 
L 579.645 169.92 
L 580.3425 169.92 
L 581.04 169.92 
L 581.7375 169.92 
L 582.435 169.92 
L 583.1325 169.92 
L 583.83 169.92 
L 584.5275 169.92 
L 585.225 169.92 
L 585.9225 169.92 
L 586.62 169.92 
L 587.3175 169.92 
L 588.015 169.92 
L 588.7125 169.92 
L 589.41 169.92 
L 590.1075 169.92 
L 590.805 169.92 
L 591.5025 169.92 
L 592.2 169.92 
L 592.8975 169.92 
L 593.595 169.92 
L 594.2925 169.92 
L 594.99 169.92 
L 595.6875 169.92 
L 596.385 169.92 
L 597.0825 169.92 
L 597.78 169.92 
L 598.4775 169.92 
L 599.175 169.92 
L 599.8725 169.92 
L 600.57 169.92 
L 601.2675 169.92 
L 601.965 169.92 
L 602.6625 169.92 
L 603.36 169.92 
L 604.0575 169.92 
L 604.755 169.92 
L 605.4525 169.92 
L 606.15 169.92 
L 606.8475 169.92 
L 607.545 169.92 
L 608.2425 169.92 
L 608.94 169.92 
L 609.6375 169.92 
L 610.335 169.92 
L 611.0325 169.92 
L 611.73 169.92 
L 612.4275 169.92 
L 613.125 169.92 
L 613.8225 169.92 
L 614.52 169.92 
L 615.2175 169.92 
L 615.915 169.92 
L 616.6125 169.92 
L 617.31 169.92 
L 618.0075 169.92 
L 618.705 169.92 
L 619.4025 169.92 
L 620.1 169.92 
L 620.7975 169.92 
L 621.495 169.92 
L 622.1925 169.92 
L 622.89 169.92 
L 623.5875 169.92 
L 624.285 169.92 
L 624.9825 169.92 
L 625.68 169.92 
L 626.3775 169.92 
L 627.075 169.92 
L 627.7725 169.92 
L 628.47 169.92 
L 629.1675 169.92 
L 629.865 169.92 
L 630.5625 169.92 
L 631.26 169.92 
L 631.9575 169.92 
L 632.655 169.92 
L 633.3525 169.92 
L 634.05 169.92 
L 634.7475 169.92 
L 635.445 169.92 
L 636.1425 169.92 
L 636.84 169.92 
L 637.5375 169.92 
L 638.235 169.92 
L 638.9325 169.92 
L 639.63 169.92 
L 640.3275 169.92 
L 641.025 169.92 
L 641.7225 169.92 
L 642.42 169.92 
L 643.1175 169.92 
L 643.815 169.92 
L 644.5125 169.92 
L 645.21 169.92 
L 645.9075 169.92 
L 646.605 169.92 
L 646.605 169.92 
L 646.605 169.92 
L 645.9075 169.920238 
L 645.21 169.920796 
L 644.5125 169.921757 
L 643.815 169.9232 
L 643.1175 169.925204 
L 642.42 169.927844 
L 641.7225 169.931194 
L 641.025 169.935324 
L 640.3275 169.940302 
L 639.63 169.946191 
L 638.9325 169.953053 
L 638.235 169.960942 
L 637.5375 169.969912 
L 636.84 169.98001 
L 636.1425 169.991281 
L 635.445 170.003762 
L 634.7475 170.017488 
L 634.05 170.032487 
L 633.3525 170.048783 
L 632.655 170.066395 
L 631.9575 170.085335 
L 631.26 170.105612 
L 630.5625 170.127228 
L 629.865 170.150181 
L 629.1675 170.174461 
L 628.47 170.200055 
L 627.7725 170.226943 
L 627.075 170.255103 
L 626.3775 170.284503 
L 625.68 170.31511 
L 624.9825 170.346884 
L 624.285 170.37978 
L 623.5875 170.41375 
L 622.89 170.448741 
L 622.1925 170.484694 
L 621.495 170.521548 
L 620.7975 170.559239 
L 620.1 170.597696 
L 619.4025 170.636848 
L 618.705 170.67662 
L 618.0075 170.716934 
L 617.31 170.75771 
L 616.6125 170.798866 
L 615.915 170.840317 
L 615.2175 170.881979 
L 614.52 170.923764 
L 613.8225 170.965586 
L 613.125 171.007356 
L 612.4275 171.048988 
L 611.73 171.090392 
L 611.0325 171.131482 
L 610.335 171.172173 
L 609.6375 171.212379 
L 608.94 171.252017 
L 608.2425 171.291006 
L 607.545 171.329266 
L 606.8475 171.366721 
L 606.15 171.403297 
L 605.4525 171.438924 
L 604.755 171.473534 
L 604.0575 171.507063 
L 603.36 171.539452 
L 602.6625 171.570644 
L 601.965 171.60059 
L 601.2675 171.62924 
L 600.57 171.656555 
L 599.8725 171.682495 
L 599.175 171.707029 
L 598.4775 171.73013 
L 597.78 171.751776 
L 597.0825 171.77195 
L 596.385 171.79064 
L 595.6875 171.807842 
L 594.99 171.823553 
L 594.2925 171.83778 
L 593.595 171.850533 
L 592.8975 171.861827 
L 592.2 171.871683 
L 591.5025 171.880128 
L 590.805 171.887193 
L 590.1075 171.892913 
L 589.41 171.897331 
L 588.7125 171.900491 
L 588.015 171.902444 
L 587.3175 171.903245 
L 586.62 171.902951 
L 585.9225 171.901625 
L 585.225 171.899333 
L 584.5275 171.896143 
L 583.83 171.892129 
L 583.1325 171.887365 
L 582.435 171.881927 
L 581.7375 171.875897 
L 581.04 171.869354 
L 580.3425 171.862382 
L 579.645 171.855065 
L 578.9475 171.847486 
L 578.25 171.839733 
L 577.5525 171.831889 
L 576.855 171.82404 
L 576.1575 171.81627 
L 575.46 171.808664 
L 574.7625 171.801304 
L 574.065 171.794271 
L 573.3675 171.787645 
L 572.67 171.781501 
L 571.9725 171.775915 
L 571.275 171.770959 
L 570.5775 171.766701 
L 569.88 171.763207 
L 569.1825 171.760539 
L 568.485 171.758754 
L 567.7875 171.757907 
L 567.09 171.758047 
L 566.3925 171.759219 
L 565.695 171.761464 
L 564.9975 171.764818 
L 564.3 171.769311 
L 563.6025 171.774969 
L 562.905 171.781813 
L 562.2075 171.789857 
L 561.51 171.799111 
L 560.8125 171.809581 
L 560.115 171.821264 
L 559.4175 171.834155 
L 558.72 171.848242 
L 558.0225 171.863507 
L 557.325 171.879929 
L 556.6275 171.89748 
L 555.93 171.916128 
L 555.2325 171.935834 
L 554.535 171.956557 
L 553.8375 171.978249 
L 553.14 172.000859 
L 552.4425 172.024331 
L 551.745 172.048606 
L 551.0475 172.073619 
L 550.35 172.099305 
L 549.6525 172.125591 
L 548.955 172.152405 
L 548.2575 172.179671 
L 547.56 172.207309 
L 546.8625 172.235239 
L 546.165 172.263379 
L 545.4675 172.291643 
L 544.77 172.319948 
L 544.0725 172.348206 
L 543.375 172.37633 
L 542.6775 172.404235 
L 541.98 172.431833 
L 541.2825 172.459038 
L 540.585 172.485766 
L 539.8875 172.51193 
L 539.19 172.537451 
L 538.4925 172.562245 
L 537.795 172.586235 
L 537.0975 172.609345 
L 536.4 172.631501 
L 535.7025 172.652633 
L 535.005 172.672674 
L 534.3075 172.69156 
L 533.61 172.709232 
L 532.9125 172.725634 
L 532.215 172.740715 
L 531.5175 172.754428 
L 530.82 172.766731 
L 530.1225 172.777586 
L 529.425 172.786962 
L 528.7275 172.794831 
L 528.03 172.801171 
L 527.3325 172.805965 
L 526.635 172.809203 
L 525.9375 172.810877 
L 525.24 172.810987 
L 524.5425 172.809539 
L 523.845 172.806543 
L 523.1475 172.802014 
L 522.45 172.795973 
L 521.7525 172.788446 
L 521.055 172.779465 
L 520.3575 172.769066 
L 519.66 172.757291 
L 518.9625 172.744184 
L 518.265 172.729797 
L 517.5675 172.714183 
L 516.87 172.697403 
L 516.1725 172.679518 
L 515.475 172.660594 
L 514.7775 172.640702 
L 514.08 172.619914 
L 513.3825 172.598306 
L 512.685 172.575955 
L 511.9875 172.552942 
L 511.29 172.529349 
L 510.5925 172.505259 
L 509.895 172.480758 
L 509.1975 172.455931 
L 508.5 172.430865 
L 507.8025 172.405646 
L 507.105 172.380362 
L 506.4075 172.355097 
L 505.71 172.329937 
L 505.0125 172.304967 
L 504.315 172.280268 
L 503.6175 172.255923 
L 502.92 172.23201 
L 502.2225 172.208604 
L 501.525 172.185781 
L 500.8275 172.163611 
L 500.13 172.142161 
L 499.4325 172.121495 
L 498.735 172.101673 
L 498.0375 172.082752 
L 497.34 172.064784 
L 496.6425 172.047816 
L 495.945 172.031891 
L 495.2475 172.017046 
L 494.55 172.003317 
L 493.8525 171.990729 
L 493.155 171.979307 
L 492.4575 171.969068 
L 491.76 171.960025 
L 491.0625 171.952183 
L 490.365 171.945546 
L 489.6675 171.940109 
L 488.97 171.935864 
L 488.2725 171.932794 
L 487.575 171.930882 
L 486.8775 171.930101 
L 486.18 171.930421 
L 485.4825 171.931808 
L 484.785 171.934221 
L 484.0875 171.937617 
L 483.39 171.941944 
L 482.6925 171.947151 
L 481.995 171.95318 
L 481.2975 171.959969 
L 480.6 171.967453 
L 479.9025 171.975563 
L 479.205 171.984229 
L 478.5075 171.993376 
L 477.81 172.002926 
L 477.1125 172.012802 
L 476.415 172.022921 
L 475.7175 172.033202 
L 475.02 172.043561 
L 474.3225 172.053912 
L 473.625 172.064172 
L 472.9275 172.074253 
L 472.23 172.084071 
L 471.5325 172.09354 
L 470.835 172.102577 
L 470.1375 172.111099 
L 469.44 172.119023 
L 468.7425 172.12627 
L 468.045 172.132761 
L 467.3475 172.138422 
L 466.65 172.14318 
L 465.9525 172.146965 
L 465.255 172.14971 
L 464.5575 172.151352 
L 463.86 172.151832 
L 463.1625 172.151096 
L 462.465 172.149091 
L 461.7675 172.145771 
L 461.07 172.141095 
L 460.3725 172.135025 
L 459.675 172.127529 
L 458.9775 172.11858 
L 458.28 172.108156 
L 457.5825 172.09624 
L 456.885 172.08282 
L 456.1875 172.067892 
L 455.49 172.051454 
L 454.7925 172.033511 
L 454.095 172.014074 
L 453.3975 171.993158 
L 452.7 171.970785 
L 452.0025 171.946979 
L 451.305 171.921774 
L 450.6075 171.895204 
L 449.91 171.867312 
L 449.2125 171.838144 
L 448.515 171.807749 
L 447.8175 171.776183 
L 447.12 171.743505 
L 446.4225 171.709778 
L 445.725 171.675069 
L 445.0275 171.639447 
L 444.33 171.602986 
L 443.6325 171.565762 
L 442.935 171.527853 
L 442.2375 171.48934 
L 441.54 171.450307 
L 440.8425 171.410837 
L 440.145 171.371017 
L 439.4475 171.330933 
L 438.75 171.290673 
L 438.0525 171.250324 
L 437.355 171.209975 
L 436.6575 171.169711 
L 435.96 171.129621 
L 435.2625 171.089789 
L 434.565 171.0503 
L 433.8675 171.011236 
L 433.17 170.972677 
L 432.4725 170.934702 
L 431.775 170.897385 
L 431.0775 170.860801 
L 430.38 170.825017 
L 429.6825 170.790099 
L 428.985 170.756111 
L 428.2875 170.723109 
L 427.59 170.691148 
L 426.8925 170.660278 
L 426.195 170.630542 
L 425.4975 170.601983 
L 424.8 170.574634 
L 424.1025 170.548526 
L 423.405 170.523685 
L 422.7075 170.500129 
L 422.01 170.477874 
L 421.3125 170.456929 
L 420.615 170.437298 
L 419.9175 170.418978 
L 419.22 170.401963 
L 418.5225 170.38624 
L 417.825 170.371793 
L 417.1275 170.358597 
L 416.43 170.346624 
L 415.7325 170.335843 
L 415.035 170.326213 
L 414.3375 170.317694 
L 413.64 170.310237 
L 412.9425 170.303791 
L 412.245 170.2983 
L 411.5475 170.293704 
L 410.85 170.289941 
L 410.1525 170.286942 
L 409.455 170.284638 
L 408.7575 170.282956 
L 408.06 170.281821 
L 407.3625 170.281154 
L 406.665 170.280876 
L 405.9675 170.280906 
L 405.27 170.28116 
L 404.5725 170.281555 
L 403.875 170.282007 
L 403.1775 170.28243 
L 402.48 170.28274 
L 401.7825 170.282853 
L 401.085 170.282684 
L 400.3875 170.282151 
L 399.69 170.281173 
L 398.9925 170.279669 
L 398.295 170.277563 
L 397.5975 170.274778 
L 396.9 170.271243 
L 396.2025 170.266887 
L 395.505 170.261643 
L 394.8075 170.255449 
L 394.11 170.248244 
L 393.4125 170.239974 
L 392.715 170.230586 
L 392.0175 170.220034 
L 391.32 170.208275 
L 390.6225 170.195272 
L 389.925 170.180992 
L 389.2275 170.165406 
L 388.53 170.148493 
L 387.8325 170.130235 
L 387.135 170.110619 
L 386.4375 170.08964 
L 385.74 170.067296 
L 385.0425 170.04359 
L 384.345 170.018533 
L 383.6475 169.992139 
L 382.95 169.964429 
L 382.2525 169.935428 
L 381.555 169.905166 
L 380.8575 169.87368 
L 380.16 169.841009 
L 379.4625 169.8072 
L 378.765 169.772302 
L 378.0675 169.736368 
L 377.37 169.699459 
L 376.6725 169.661636 
L 375.975 169.622965 
L 375.2775 169.583516 
L 374.58 169.543361 
L 373.8825 169.502577 
L 373.185 169.461242 
L 372.4875 169.419436 
L 371.79 169.377243 
L 371.0925 169.334745 
L 370.395 169.292031 
L 369.6975 169.249185 
L 369 169.206296 
L 368.3025 169.163451 
L 367.605 169.120738 
L 366.9075 169.078246 
L 366.21 169.03606 
L 365.5125 168.994267 
L 364.815 168.952952 
L 364.1175 168.912197 
L 363.42 168.872084 
L 362.7225 168.83269 
L 362.025 168.794093 
L 361.3275 168.756366 
L 360.63 168.719578 
L 359.9325 168.683796 
L 359.235 168.649085 
L 358.5375 168.615501 
L 357.84 168.583102 
L 357.1425 168.551936 
L 356.445 168.52205 
L 355.7475 168.493486 
L 355.05 168.466279 
L 354.3525 168.440462 
L 353.655 168.41606 
L 352.9575 168.393095 
L 352.26 168.371582 
L 351.5625 168.351531 
L 350.865 168.332947 
L 350.1675 168.31583 
L 349.47 168.300175 
L 348.7725 168.285968 
L 348.075 168.273195 
L 347.3775 168.261833 
L 346.68 168.251855 
L 345.9825 168.243228 
L 345.285 168.235916 
L 344.5875 168.229877 
L 343.89 168.225065 
L 343.1925 168.221428 
L 342.495 168.218911 
L 341.7975 168.217455 
L 341.1 168.216998 
L 340.4025 168.217473 
L 339.705 168.21881 
L 339.0075 168.220937 
L 338.31 168.223779 
L 337.6125 168.227258 
L 336.915 168.231294 
L 336.2175 168.235805 
L 335.52 168.24071 
L 334.8225 168.245924 
L 334.125 168.251362 
L 333.4275 168.25694 
L 332.73 168.262572 
L 332.0325 168.268173 
L 331.335 168.273658 
L 330.6375 168.278945 
L 329.94 168.283952 
L 329.2425 168.288597 
L 328.545 168.292803 
L 327.8475 168.296492 
L 327.15 168.299591 
L 326.4525 168.30203 
L 325.755 168.303739 
L 325.0575 168.304655 
L 324.36 168.304716 
L 323.6625 168.303866 
L 322.965 168.302052 
L 322.2675 168.299225 
L 321.57 168.295341 
L 320.8725 168.29036 
L 320.175 168.284249 
L 319.4775 168.276977 
L 318.78 168.268521 
L 318.0825 168.258861 
L 317.385 168.247983 
L 316.6875 168.235878 
L 315.99 168.222544 
L 315.2925 168.207983 
L 314.595 168.192202 
L 313.8975 168.175215 
L 313.2 168.157039 
L 312.5025 168.137698 
L 311.805 168.117222 
L 311.1075 168.095643 
L 310.41 168.073002 
L 309.7125 168.04934 
L 309.015 168.024706 
L 308.3175 167.999154 
L 307.62 167.972739 
L 306.9225 167.945522 
L 306.225 167.917569 
L 305.5275 167.888946 
L 304.83 167.859726 
L 304.1325 167.829983 
L 303.435 167.799793 
L 302.7375 167.769236 
L 302.04 167.738394 
L 301.3425 167.707349 
L 300.645 167.676187 
L 299.9475 167.644992 
L 299.25 167.613853 
L 298.5525 167.582855 
L 297.855 167.552085 
L 297.1575 167.521631 
L 296.46 167.491579 
L 295.7625 167.462013 
L 295.065 167.433019 
L 294.3675 167.404677 
L 293.67 167.37707 
L 292.9725 167.350276 
L 292.275 167.324369 
L 291.5775 167.299424 
L 290.88 167.27551 
L 290.1825 167.252694 
L 289.485 167.231038 
L 288.7875 167.210602 
L 288.09 167.191441 
L 287.3925 167.173605 
L 286.695 167.15714 
L 285.9975 167.142088 
L 285.3 167.128485 
L 284.6025 167.116362 
L 283.905 167.105747 
L 283.2075 167.09666 
L 282.51 167.089117 
L 281.8125 167.083129 
L 281.115 167.078701 
L 280.4175 167.075832 
L 279.72 167.074516 
L 279.0225 167.074743 
L 278.325 167.076496 
L 277.6275 167.079753 
L 276.93 167.084487 
L 276.2325 167.090666 
L 275.535 167.098253 
L 274.8375 167.107206 
L 274.14 167.117479 
L 273.4425 167.12902 
L 272.745 167.141774 
L 272.0475 167.155682 
L 271.35 167.17068 
L 270.6525 167.186702 
L 269.955 167.203678 
L 269.2575 167.221535 
L 268.56 167.240197 
L 267.8625 167.259585 
L 267.165 167.27962 
L 266.4675 167.300218 
L 265.77 167.321297 
L 265.0725 167.342771 
L 264.375 167.364555 
L 263.6775 167.386562 
L 262.98 167.408706 
L 262.2825 167.430901 
L 261.585 167.453061 
L 260.8875 167.475101 
L 260.19 167.496937 
L 259.4925 167.518488 
L 258.795 167.539673 
L 258.0975 167.560414 
L 257.4 167.580636 
L 256.7025 167.600264 
L 256.005 167.61923 
L 255.3075 167.637467 
L 254.61 167.654912 
L 253.9125 167.671505 
L 253.215 167.687192 
L 252.5175 167.701921 
L 251.82 167.715648 
L 251.1225 167.728328 
L 250.425 167.739927 
L 249.7275 167.750411 
L 249.03 167.759754 
L 248.3325 167.767935 
L 247.635 167.774936 
L 246.9375 167.780748 
L 246.24 167.785363 
L 245.5425 167.788783 
L 244.845 167.791011 
L 244.1475 167.792059 
L 243.45 167.791942 
L 242.7525 167.790682 
L 242.055 167.788305 
L 241.3575 167.784841 
L 240.66 167.780329 
L 239.9625 167.774808 
L 239.265 167.768324 
L 238.5675 167.760928 
L 237.87 167.752674 
L 237.1725 167.743621 
L 236.475 167.733831 
L 235.7775 167.72337 
L 235.08 167.712308 
L 234.3825 167.700717 
L 233.685 167.688671 
L 232.9875 167.676249 
L 232.29 167.66353 
L 231.5925 167.650596 
L 230.895 167.637529 
L 230.1975 167.624414 
L 229.5 167.611336 
L 228.8025 167.598381 
L 228.105 167.585633 
L 227.4075 167.57318 
L 226.71 167.561105 
L 226.0125 167.549493 
L 225.315 167.538428 
L 224.6175 167.52799 
L 223.92 167.518259 
L 223.2225 167.509314 
L 222.525 167.501228 
L 221.8275 167.494075 
L 221.13 167.487924 
L 220.4325 167.48284 
L 219.735 167.478887 
L 219.0375 167.476122 
L 218.34 167.474601 
L 217.6425 167.474374 
L 216.945 167.475486 
L 216.2475 167.477978 
L 215.55 167.481888 
L 214.8525 167.487246 
L 214.155 167.494079 
L 213.4575 167.502408 
L 212.76 167.512248 
L 212.0625 167.52361 
L 211.365 167.536499 
L 210.6675 167.550914 
L 209.97 167.56685 
L 209.2725 167.584296 
L 208.575 167.603234 
L 207.8775 167.623644 
L 207.18 167.645497 
L 206.4825 167.668762 
L 205.785 167.693402 
L 205.0875 167.719374 
L 204.39 167.746631 
L 203.6925 167.775123 
L 202.995 167.804793 
L 202.2975 167.835582 
L 201.6 167.867426 
L 200.9025 167.900259 
L 200.205 167.934009 
L 199.5075 167.968604 
L 198.81 168.003965 
L 198.1125 168.040016 
L 197.415 168.076673 
L 196.7175 168.113855 
L 196.02 168.151476 
L 195.3225 168.189451 
L 194.625 168.227693 
L 193.9275 168.266114 
L 193.23 168.304628 
L 192.5325 168.343145 
L 191.835 168.381581 
L 191.1375 168.419847 
L 190.44 168.45786 
L 189.7425 168.495534 
L 189.045 168.53279 
L 188.3475 168.569545 
L 187.65 168.605724 
L 186.9525 168.641252 
L 186.255 168.676055 
L 185.5575 168.710068 
L 184.86 168.743223 
L 184.1625 168.77546 
L 183.465 168.806722 
L 182.7675 168.836956 
L 182.07 168.866113 
L 181.3725 168.894149 
L 180.675 168.921026 
L 179.9775 168.946709 
L 179.28 168.971169 
L 178.5825 168.994383 
L 177.885 169.01633 
L 177.1875 169.036999 
L 176.49 169.056381 
L 175.7925 169.074473 
L 175.095 169.091279 
L 174.3975 169.106806 
L 173.7 169.121068 
L 173.0025 169.134085 
L 172.305 169.14588 
L 171.6075 169.156482 
L 170.91 169.165926 
L 170.2125 169.17425 
L 169.515 169.181499 
L 168.8175 169.187721 
L 168.12 169.192968 
L 167.4225 169.197297 
L 166.725 169.200769 
L 166.0275 169.203447 
L 165.33 169.2054 
L 164.6325 169.206699 
L 163.935 169.207415 
L 163.2375 169.207627 
L 162.54 169.207412 
L 161.8425 169.20685 
L 161.145 169.206024 
L 160.4475 169.205015 
L 159.75 169.203909 
L 159.0525 169.202789 
L 158.355 169.201742 
L 157.6575 169.20085 
L 156.96 169.2002 
L 156.2625 169.199874 
L 155.565 169.199955 
L 154.8675 169.200524 
L 154.17 169.20166 
L 153.4725 169.203441 
L 152.775 169.205942 
L 152.0775 169.209234 
L 151.38 169.213387 
L 150.6825 169.218468 
L 149.985 169.224538 
L 149.2875 169.231656 
L 148.59 169.239878 
L 147.8925 169.249253 
L 147.195 169.259828 
L 146.4975 169.271644 
L 145.8 169.284739 
L 145.1025 169.299143 
L 144.405 169.314884 
L 143.7075 169.331983 
L 143.01 169.350456 
L 142.3125 169.370316 
L 141.615 169.391566 
L 140.9175 169.414207 
L 140.22 169.438235 
L 139.5225 169.463638 
L 138.825 169.490401 
L 138.1275 169.518502 
L 137.43 169.547914 
L 136.7325 169.578607 
L 136.035 169.610543 
L 135.3375 169.64368 
L 134.64 169.677974 
L 133.9425 169.713371 
L 133.245 169.749819 
L 132.5475 169.787257 
L 131.85 169.825621 
L 131.1525 169.864846 
L 130.455 169.904861 
L 129.7575 169.945591 
L 129.06 169.986962 
L 128.3625 170.028894 
L 127.665 170.071306 
L 126.9675 170.114115 
L 126.27 170.157236 
L 125.5725 170.200584 
L 124.875 170.24407 
L 124.1775 170.287607 
L 123.48 170.331109 
L 122.7825 170.374485 
L 122.085 170.41765 
L 121.3875 170.460516 
L 120.69 170.502998 
L 119.9925 170.545011 
L 119.295 170.586472 
L 118.5975 170.627301 
L 117.9 170.66742 
L 117.2025 170.706752 
L 116.505 170.745225 
L 115.8075 170.782771 
L 115.11 170.819321 
L 114.4125 170.854815 
L 113.715 170.889194 
L 113.0175 170.922404 
L 112.32 170.954395 
L 111.6225 170.985122 
L 110.925 171.014544 
L 110.2275 171.042626 
L 109.53 171.069338 
L 108.8325 171.094654 
L 108.135 171.118555 
L 107.4375 171.141025 
L 106.74 171.162056 
L 106.0425 171.181643 
L 105.345 171.199788 
L 104.6475 171.216498 
L 103.95 171.231785 
L 103.2525 171.245667 
L 102.555 171.258167 
L 101.8575 171.269312 
L 101.16 171.279137 
L 100.4625 171.287678 
L 99.765 171.294979 
L 99.0675 171.301086 
L 98.37 171.306052 
L 97.6725 171.309933 
L 96.975 171.312787 
L 96.2775 171.314679 
L 95.58 171.315676 
L 94.8825 171.315847 
L 94.185 171.315265 
L 93.4875 171.314007 
L 92.79 171.31215 
L 92.0925 171.309775 
L 91.395 171.306962 
L 90.6975 171.303795 
L 90 171.300357 
z
" style="fill:#e0ffff;"/>
   </g>
   <g id="line2d_19">
    <path clip-path="url(#pae6a8ffe5c)" d="M 90 171.300357 
L 102.555 171.258167 
L 111.6225 170.985122 
L 122.085 170.41765 
L 138.825 169.490401 
L 147.8925 169.249253 
L 159.0525 169.202789 
L 173.7 169.121068 
L 182.7675 168.836956 
L 196.02 168.151476 
L 207.18 167.645497 
L 215.55 167.481888 
L 224.6175 167.52799 
L 247.635 167.774936 
L 258.0975 167.560414 
L 277.6275 167.079753 
L 285.9975 167.142088 
L 295.7625 167.462013 
L 315.99 168.222544 
L 325.755 168.303739 
L 351.5625 168.351531 
L 360.63 168.719578 
L 390.6225 170.195272 
L 401.085 170.282684 
L 418.5225 170.38624 
L 427.59 170.691148 
L 440.145 171.371017 
L 452.0025 171.946979 
L 460.3725 172.135025 
L 470.1375 172.111099 
L 491.0625 171.952183 
L 500.8275 172.163611 
L 524.5425 172.809539 
L 532.9125 172.725634 
L 543.375 172.37633 
L 559.4175 171.834155 
L 569.1825 171.760539 
L 597.0825 171.77195 
L 606.15 171.403297 
L 634.05 170.032487 
L 643.815 169.9232 
L 646.605 169.92 
L 646.605 169.92 
" style="fill:none;stroke:#008080;stroke-linecap:round;stroke-width:1.75;"/>
   </g>
   <g id="patch_3">
    <path d="M 90 270.72 
L 90 69.12 
" style="fill:none;stroke:#262626;stroke-linecap:square;stroke-linejoin:miter;stroke-width:1.25;"/>
   </g>
   <g id="patch_4">
    <path d="M 90 270.72 
L 648 270.72 
" style="fill:none;stroke:#262626;stroke-linecap:square;stroke-linejoin:miter;stroke-width:1.25;"/>
   </g>
  </g>
  <g id="axes_2">
   <g id="patch_5">
    <path d="M 90 512.64 
L 648 512.64 
L 648 311.04 
L 90 311.04 
z
" style="fill:#ffffff;"/>
   </g>
   <g id="matplotlib.axis_3">
    <g id="xtick_10">
     <g id="line2d_20">
      <g>
       <use style="fill:#262626;stroke:#262626;" x="190.44" xlink:href="#m540960e981" y="512.64"/>
      </g>
     </g>
     <g id="text_19">
      <!-- 200 -->
      <g style="fill:#262626;" transform="translate(182.098594 532.797812)scale(0.1 -0.1)">
       <use xlink:href="#ArialMT-32"/>
       <use x="55.615234" xlink:href="#ArialMT-30"/>
       <use x="111.230469" xlink:href="#ArialMT-30"/>
      </g>
     </g>
    </g>
    <g id="xtick_11">
     <g id="line2d_21">
      <g>
       <use style="fill:#262626;stroke:#262626;" x="302.04" xlink:href="#m540960e981" y="512.64"/>
      </g>
     </g>
     <g id="text_20">
      <!-- 400 -->
      <g style="fill:#262626;" transform="translate(293.698594 532.797812)scale(0.1 -0.1)">
       <use xlink:href="#ArialMT-34"/>
       <use x="55.615234" xlink:href="#ArialMT-30"/>
       <use x="111.230469" xlink:href="#ArialMT-30"/>
      </g>
     </g>
    </g>
    <g id="xtick_12">
     <g id="line2d_22">
      <g>
       <use style="fill:#262626;stroke:#262626;" x="413.64" xlink:href="#m540960e981" y="512.64"/>
      </g>
     </g>
     <g id="text_21">
      <!-- 600 -->
      <g style="fill:#262626;" transform="translate(405.298594 532.797812)scale(0.1 -0.1)">
       <use xlink:href="#ArialMT-36"/>
       <use x="55.615234" xlink:href="#ArialMT-30"/>
       <use x="111.230469" xlink:href="#ArialMT-30"/>
      </g>
     </g>
    </g>
    <g id="xtick_13">
     <g id="line2d_23">
      <g>
       <use style="fill:#262626;stroke:#262626;" x="525.24" xlink:href="#m540960e981" y="512.64"/>
      </g>
     </g>
     <g id="text_22">
      <!-- 800 -->
      <g style="fill:#262626;" transform="translate(516.898594 532.797812)scale(0.1 -0.1)">
       <use xlink:href="#ArialMT-38"/>
       <use x="55.615234" xlink:href="#ArialMT-30"/>
       <use x="111.230469" xlink:href="#ArialMT-30"/>
      </g>
     </g>
    </g>
    <g id="xtick_14">
     <g id="line2d_24">
      <g>
       <use style="fill:#262626;stroke:#262626;" x="636.84" xlink:href="#m540960e981" y="512.64"/>
      </g>
     </g>
     <g id="text_23">
      <!-- 1000 -->
      <g style="fill:#262626;" transform="translate(625.718125 532.797812)scale(0.1 -0.1)">
       <use xlink:href="#ArialMT-31"/>
       <use x="55.615234" xlink:href="#ArialMT-30"/>
       <use x="111.230469" xlink:href="#ArialMT-30"/>
       <use x="166.845703" xlink:href="#ArialMT-30"/>
      </g>
     </g>
    </g>
   </g>
   <g id="matplotlib.axis_4">
    <g id="ytick_10">
     <g id="line2d_25">
      <g>
       <use style="fill:#262626;stroke:#262626;" x="90" xlink:href="#m93158c598f" y="512.64"/>
      </g>
     </g>
     <g id="text_24">
      <!-- 0 -->
      <g style="fill:#262626;" transform="translate(71.439063 516.218906)scale(0.1 -0.1)">
       <use xlink:href="#ArialMT-30"/>
      </g>
     </g>
    </g>
    <g id="ytick_11">
     <g id="line2d_26">
      <g>
       <use style="fill:#262626;stroke:#262626;" x="90" xlink:href="#m93158c598f" y="483.84"/>
      </g>
     </g>
     <g id="text_25">
      <!-- 10 -->
      <g style="fill:#262626;" transform="translate(65.878125 487.418906)scale(0.1 -0.1)">
       <use xlink:href="#ArialMT-31"/>
       <use x="55.615234" xlink:href="#ArialMT-30"/>
      </g>
     </g>
    </g>
    <g id="ytick_12">
     <g id="line2d_27">
      <g>
       <use style="fill:#262626;stroke:#262626;" x="90" xlink:href="#m93158c598f" y="455.04"/>
      </g>
     </g>
     <g id="text_26">
      <!-- 20 -->
      <g style="fill:#262626;" transform="translate(65.878125 458.618906)scale(0.1 -0.1)">
       <use xlink:href="#ArialMT-32"/>
       <use x="55.615234" xlink:href="#ArialMT-30"/>
      </g>
     </g>
    </g>
    <g id="ytick_13">
     <g id="line2d_28">
      <g>
       <use style="fill:#262626;stroke:#262626;" x="90" xlink:href="#m93158c598f" y="426.24"/>
      </g>
     </g>
     <g id="text_27">
      <!-- 30 -->
      <g style="fill:#262626;" transform="translate(65.878125 429.818906)scale(0.1 -0.1)">
       <use xlink:href="#ArialMT-33"/>
       <use x="55.615234" xlink:href="#ArialMT-30"/>
      </g>
     </g>
    </g>
    <g id="ytick_14">
     <g id="line2d_29">
      <g>
       <use style="fill:#262626;stroke:#262626;" x="90" xlink:href="#m93158c598f" y="397.44"/>
      </g>
     </g>
     <g id="text_28">
      <!-- 40 -->
      <g style="fill:#262626;" transform="translate(65.878125 401.018906)scale(0.1 -0.1)">
       <use xlink:href="#ArialMT-34"/>
       <use x="55.615234" xlink:href="#ArialMT-30"/>
      </g>
     </g>
    </g>
    <g id="ytick_15">
     <g id="line2d_30">
      <g>
       <use style="fill:#262626;stroke:#262626;" x="90" xlink:href="#m93158c598f" y="368.64"/>
      </g>
     </g>
     <g id="text_29">
      <!-- 50 -->
      <g style="fill:#262626;" transform="translate(65.878125 372.218906)scale(0.1 -0.1)">
       <use xlink:href="#ArialMT-35"/>
       <use x="55.615234" xlink:href="#ArialMT-30"/>
      </g>
     </g>
    </g>
    <g id="ytick_16">
     <g id="line2d_31">
      <g>
       <use style="fill:#262626;stroke:#262626;" x="90" xlink:href="#m93158c598f" y="339.84"/>
      </g>
     </g>
     <g id="text_30">
      <!-- 60 -->
      <g style="fill:#262626;" transform="translate(65.878125 343.418906)scale(0.1 -0.1)">
       <use xlink:href="#ArialMT-36"/>
       <use x="55.615234" xlink:href="#ArialMT-30"/>
      </g>
     </g>
    </g>
    <g id="ytick_17">
     <g id="line2d_32">
      <g>
       <use style="fill:#262626;stroke:#262626;" x="90" xlink:href="#m93158c598f" y="311.04"/>
      </g>
     </g>
     <g id="text_31">
      <!-- 70 -->
      <g style="fill:#262626;" transform="translate(65.878125 314.618906)scale(0.1 -0.1)">
       <use xlink:href="#ArialMT-37"/>
       <use x="55.615234" xlink:href="#ArialMT-30"/>
      </g>
     </g>
    </g>
   </g>
   <g id="line2d_33">
    <path clip-path="url(#pbf17b1e276)" d="M 90 495.208 
L 101.16 496.246355 
L 112.32 497.676438 
" style="fill:none;stroke:#b22222;stroke-linecap:round;stroke-width:1.75;"/>
   </g>
   <g id="patch_6">
    <path d="M 90 512.64 
L 90 311.04 
" style="fill:none;stroke:#262626;stroke-linecap:square;stroke-linejoin:miter;stroke-width:1.25;"/>
   </g>
   <g id="patch_7">
    <path d="M 90 512.64 
L 648 512.64 
" style="fill:none;stroke:#262626;stroke-linecap:square;stroke-linejoin:miter;stroke-width:1.25;"/>
   </g>
   <g id="text_32">
    <!-- f = 60 -->
    <defs>
     <path d="M 8.6875 0 
L 8.6875 45.015625 
L 0.921875 45.015625 
L 0.921875 51.859375 
L 8.6875 51.859375 
L 8.6875 57.375 
Q 8.6875 62.59375 9.625 65.140625 
Q 10.890625 68.5625 14.078125 70.671875 
Q 17.28125 72.796875 23.046875 72.796875 
Q 26.765625 72.796875 31.25 71.921875 
L 29.9375 64.265625 
Q 27.203125 64.75 24.75 64.75 
Q 20.75 64.75 19.09375 63.03125 
Q 17.4375 61.328125 17.4375 56.640625 
L 17.4375 51.859375 
L 27.546875 51.859375 
L 27.546875 45.015625 
L 17.4375 45.015625 
L 17.4375 0 
z
" id="ArialMT-66"/>
     <path id="ArialMT-20"/>
     <path d="M 52.828125 42.09375 
L 5.5625 42.09375 
L 5.5625 50.296875 
L 52.828125 50.296875 
z
M 52.828125 20.359375 
L 5.5625 20.359375 
L 5.5625 28.5625 
L 52.828125 28.5625 
z
" id="ArialMT-3d"/>
    </defs>
    <g style="fill:#262626;" transform="translate(525.24 371.742188)scale(0.12 -0.12)">
     <use xlink:href="#ArialMT-66"/>
     <use x="27.783203" xlink:href="#ArialMT-20"/>
     <use x="55.566406" xlink:href="#ArialMT-3d"/>
     <use x="113.964844" xlink:href="#ArialMT-20"/>
     <use x="141.748047" xlink:href="#ArialMT-36"/>
     <use x="197.363281" xlink:href="#ArialMT-30"/>
    </g>
   </g>
   <g id="PathCollection_1">
    <defs>
     <path d="M 0 3.5 
C 0.928211 3.5 1.81853 3.131218 2.474874 2.474874 
C 3.131218 1.81853 3.5 0.928211 3.5 0 
C 3.5 -0.928211 3.131218 -1.81853 2.474874 -2.474874 
C 1.81853 -3.131218 0.928211 -3.5 0 -3.5 
C -0.928211 -3.5 -1.81853 -3.131218 -2.474874 -2.474874 
C -3.131218 -1.81853 -3.5 -0.928211 -3.5 0 
C -3.5 0.928211 -3.131218 1.81853 -2.474874 2.474874 
C -1.81853 3.131218 -0.928211 3.5 0 3.5 
z
" id="m6c1e4932cc" style="stroke:#800000;stroke-width:0.3;"/>
    </defs>
    <g clip-path="url(#pbf17b1e276)">
     <use style="fill:#800000;stroke:#800000;stroke-width:0.3;" x="112.32" xlink:href="#m6c1e4932cc" y="497.676438"/>
    </g>
   </g>
  </g>
 </g>
 <defs>
  <clipPath id="pae6a8ffe5c">
   <rect height="201.6" width="558" x="90" y="69.12"/>
  </clipPath>
  <clipPath id="pbf17b1e276">
   <rect height="201.6" width="558" x="90" y="311.04"/>
  </clipPath>
 </defs>
</svg>
