<?xml version="1.0" encoding="utf-8" standalone="no"?>
<!DOCTYPE svg PUBLIC "-//W3C//DTD SVG 1.1//EN"
  "http://www.w3.org/Graphics/SVG/1.1/DTD/svg11.dtd">
<!-- Created with matplotlib (http://matplotlib.org/) -->
<svg height="576pt" version="1.1" viewBox="0 0 720 576" width="720pt" xmlns="http://www.w3.org/2000/svg" xmlns:xlink="http://www.w3.org/1999/xlink">
 <defs>
  <style type="text/css">
*{stroke-linecap:butt;stroke-linejoin:round;}
  </style>
 </defs>
 <g id="figure_1">
  <g id="patch_1">
   <path d="M 0 576 
L 720 576 
L 720 0 
L 0 0 
z
" style="fill:#ffffff;"/>
  </g>
  <g id="axes_1">
   <g id="patch_2">
    <path d="M 90 270.72 
L 648 270.72 
L 648 69.12 
L 90 69.12 
z
" style="fill:#ffffff;"/>
   </g>
   <g id="matplotlib.axis_1">
    <g id="xtick_1">
     <g id="line2d_1">
      <defs>
       <path d="M 0 0 
L 0 6 
" id="m6832aba550" style="stroke:#262626;"/>
      </defs>
      <g>
       <use style="fill:#262626;stroke:#262626;" x="90" xlink:href="#m6832aba550" y="270.72"/>
      </g>
     </g>
     <g id="text_1">
      <!-- 0 -->
      <defs>
       <path d="M 4.15625 35.296875 
Q 4.15625 48 6.765625 55.734375 
Q 9.375 63.484375 14.515625 67.671875 
Q 19.671875 71.875 27.484375 71.875 
Q 33.25 71.875 37.59375 69.546875 
Q 41.9375 67.234375 44.765625 62.859375 
Q 47.609375 58.5 49.21875 52.21875 
Q 50.828125 45.953125 50.828125 35.296875 
Q 50.828125 22.703125 48.234375 14.96875 
Q 45.65625 7.234375 40.5 3 
Q 35.359375 -1.21875 27.484375 -1.21875 
Q 17.140625 -1.21875 11.234375 6.203125 
Q 4.15625 15.140625 4.15625 35.296875 
z
M 13.1875 35.296875 
Q 13.1875 17.671875 17.3125 11.828125 
Q 21.4375 6 27.484375 6 
Q 33.546875 6 37.671875 11.859375 
Q 41.796875 17.71875 41.796875 35.296875 
Q 41.796875 52.984375 37.671875 58.78125 
Q 33.546875 64.59375 27.390625 64.59375 
Q 21.34375 64.59375 17.71875 59.46875 
Q 13.1875 52.9375 13.1875 35.296875 
z
" id="ArialMT-30"/>
      </defs>
      <g style="fill:#262626;" transform="translate(87.219531 290.877812)scale(0.1 -0.1)">
       <use xlink:href="#ArialMT-30"/>
      </g>
     </g>
    </g>
    <g id="xtick_2">
     <g id="line2d_2">
      <g>
       <use style="fill:#262626;stroke:#262626;" x="159.75" xlink:href="#m6832aba550" y="270.72"/>
      </g>
     </g>
     <g id="text_2">
      <!-- 100 -->
      <defs>
       <path d="M 37.25 0 
L 28.46875 0 
L 28.46875 56 
Q 25.296875 52.984375 20.140625 49.953125 
Q 14.984375 46.921875 10.890625 45.40625 
L 10.890625 53.90625 
Q 18.265625 57.375 23.78125 62.296875 
Q 29.296875 67.234375 31.59375 71.875 
L 37.25 71.875 
z
" id="ArialMT-31"/>
      </defs>
      <g style="fill:#262626;" transform="translate(151.408594 290.877812)scale(0.1 -0.1)">
       <use xlink:href="#ArialMT-31"/>
       <use x="55.615234" xlink:href="#ArialMT-30"/>
       <use x="111.230469" xlink:href="#ArialMT-30"/>
      </g>
     </g>
    </g>
    <g id="xtick_3">
     <g id="line2d_3">
      <g>
       <use style="fill:#262626;stroke:#262626;" x="229.5" xlink:href="#m6832aba550" y="270.72"/>
      </g>
     </g>
     <g id="text_3">
      <!-- 200 -->
      <defs>
       <path d="M 50.34375 8.453125 
L 50.34375 0 
L 3.03125 0 
Q 2.9375 3.171875 4.046875 6.109375 
Q 5.859375 10.9375 9.828125 15.625 
Q 13.8125 20.3125 21.34375 26.46875 
Q 33.015625 36.03125 37.109375 41.625 
Q 41.21875 47.21875 41.21875 52.203125 
Q 41.21875 57.421875 37.46875 61 
Q 33.734375 64.59375 27.734375 64.59375 
Q 21.390625 64.59375 17.578125 60.78125 
Q 13.765625 56.984375 13.71875 50.25 
L 4.6875 51.171875 
Q 5.609375 61.28125 11.65625 66.578125 
Q 17.71875 71.875 27.9375 71.875 
Q 38.234375 71.875 44.234375 66.15625 
Q 50.25 60.453125 50.25 52 
Q 50.25 47.703125 48.484375 43.546875 
Q 46.734375 39.40625 42.65625 34.8125 
Q 38.578125 30.21875 29.109375 22.21875 
Q 21.1875 15.578125 18.9375 13.203125 
Q 16.703125 10.84375 15.234375 8.453125 
z
" id="ArialMT-32"/>
      </defs>
      <g style="fill:#262626;" transform="translate(221.158594 290.877812)scale(0.1 -0.1)">
       <use xlink:href="#ArialMT-32"/>
       <use x="55.615234" xlink:href="#ArialMT-30"/>
       <use x="111.230469" xlink:href="#ArialMT-30"/>
      </g>
     </g>
    </g>
    <g id="xtick_4">
     <g id="line2d_4">
      <g>
       <use style="fill:#262626;stroke:#262626;" x="299.25" xlink:href="#m6832aba550" y="270.72"/>
      </g>
     </g>
     <g id="text_4">
      <!-- 300 -->
      <defs>
       <path d="M 4.203125 18.890625 
L 12.984375 20.0625 
Q 14.5 12.59375 18.140625 9.296875 
Q 21.78125 6 27 6 
Q 33.203125 6 37.46875 10.296875 
Q 41.75 14.59375 41.75 20.953125 
Q 41.75 27 37.796875 30.921875 
Q 33.84375 34.859375 27.734375 34.859375 
Q 25.25 34.859375 21.53125 33.890625 
L 22.515625 41.609375 
Q 23.390625 41.5 23.921875 41.5 
Q 29.546875 41.5 34.03125 44.421875 
Q 38.53125 47.359375 38.53125 53.46875 
Q 38.53125 58.296875 35.25 61.46875 
Q 31.984375 64.65625 26.8125 64.65625 
Q 21.6875 64.65625 18.265625 61.421875 
Q 14.84375 58.203125 13.875 51.765625 
L 5.078125 53.328125 
Q 6.6875 62.15625 12.390625 67.015625 
Q 18.109375 71.875 26.609375 71.875 
Q 32.46875 71.875 37.390625 69.359375 
Q 42.328125 66.84375 44.9375 62.5 
Q 47.5625 58.15625 47.5625 53.265625 
Q 47.5625 48.640625 45.0625 44.828125 
Q 42.578125 41.015625 37.703125 38.765625 
Q 44.046875 37.3125 47.5625 32.6875 
Q 51.078125 28.078125 51.078125 21.140625 
Q 51.078125 11.765625 44.234375 5.25 
Q 37.40625 -1.265625 26.953125 -1.265625 
Q 17.53125 -1.265625 11.296875 4.34375 
Q 5.078125 9.96875 4.203125 18.890625 
z
" id="ArialMT-33"/>
      </defs>
      <g style="fill:#262626;" transform="translate(290.908594 290.877812)scale(0.1 -0.1)">
       <use xlink:href="#ArialMT-33"/>
       <use x="55.615234" xlink:href="#ArialMT-30"/>
       <use x="111.230469" xlink:href="#ArialMT-30"/>
      </g>
     </g>
    </g>
    <g id="xtick_5">
     <g id="line2d_5">
      <g>
       <use style="fill:#262626;stroke:#262626;" x="369" xlink:href="#m6832aba550" y="270.72"/>
      </g>
     </g>
     <g id="text_5">
      <!-- 400 -->
      <defs>
       <path d="M 32.328125 0 
L 32.328125 17.140625 
L 1.265625 17.140625 
L 1.265625 25.203125 
L 33.9375 71.578125 
L 41.109375 71.578125 
L 41.109375 25.203125 
L 50.78125 25.203125 
L 50.78125 17.140625 
L 41.109375 17.140625 
L 41.109375 0 
z
M 32.328125 25.203125 
L 32.328125 57.46875 
L 9.90625 25.203125 
z
" id="ArialMT-34"/>
      </defs>
      <g style="fill:#262626;" transform="translate(360.658594 290.877812)scale(0.1 -0.1)">
       <use xlink:href="#ArialMT-34"/>
       <use x="55.615234" xlink:href="#ArialMT-30"/>
       <use x="111.230469" xlink:href="#ArialMT-30"/>
      </g>
     </g>
    </g>
    <g id="xtick_6">
     <g id="line2d_6">
      <g>
       <use style="fill:#262626;stroke:#262626;" x="438.75" xlink:href="#m6832aba550" y="270.72"/>
      </g>
     </g>
     <g id="text_6">
      <!-- 500 -->
      <defs>
       <path d="M 4.15625 18.75 
L 13.375 19.53125 
Q 14.40625 12.796875 18.140625 9.390625 
Q 21.875 6 27.15625 6 
Q 33.5 6 37.890625 10.78125 
Q 42.28125 15.578125 42.28125 23.484375 
Q 42.28125 31 38.0625 35.34375 
Q 33.84375 39.703125 27 39.703125 
Q 22.75 39.703125 19.328125 37.765625 
Q 15.921875 35.84375 13.96875 32.765625 
L 5.71875 33.84375 
L 12.640625 70.609375 
L 48.25 70.609375 
L 48.25 62.203125 
L 19.671875 62.203125 
L 15.828125 42.96875 
Q 22.265625 47.46875 29.34375 47.46875 
Q 38.71875 47.46875 45.15625 40.96875 
Q 51.609375 34.46875 51.609375 24.265625 
Q 51.609375 14.546875 45.953125 7.46875 
Q 39.0625 -1.21875 27.15625 -1.21875 
Q 17.390625 -1.21875 11.203125 4.25 
Q 5.03125 9.71875 4.15625 18.75 
z
" id="ArialMT-35"/>
      </defs>
      <g style="fill:#262626;" transform="translate(430.408594 290.877812)scale(0.1 -0.1)">
       <use xlink:href="#ArialMT-35"/>
       <use x="55.615234" xlink:href="#ArialMT-30"/>
       <use x="111.230469" xlink:href="#ArialMT-30"/>
      </g>
     </g>
    </g>
    <g id="xtick_7">
     <g id="line2d_7">
      <g>
       <use style="fill:#262626;stroke:#262626;" x="508.5" xlink:href="#m6832aba550" y="270.72"/>
      </g>
     </g>
     <g id="text_7">
      <!-- 600 -->
      <defs>
       <path d="M 49.75 54.046875 
L 41.015625 53.375 
Q 39.84375 58.546875 37.703125 60.890625 
Q 34.125 64.65625 28.90625 64.65625 
Q 24.703125 64.65625 21.53125 62.3125 
Q 17.390625 59.28125 14.984375 53.46875 
Q 12.59375 47.65625 12.5 36.921875 
Q 15.671875 41.75 20.265625 44.09375 
Q 24.859375 46.4375 29.890625 46.4375 
Q 38.671875 46.4375 44.84375 39.96875 
Q 51.03125 33.5 51.03125 23.25 
Q 51.03125 16.5 48.125 10.71875 
Q 45.21875 4.9375 40.140625 1.859375 
Q 35.0625 -1.21875 28.609375 -1.21875 
Q 17.625 -1.21875 10.6875 6.859375 
Q 3.765625 14.9375 3.765625 33.5 
Q 3.765625 54.25 11.421875 63.671875 
Q 18.109375 71.875 29.4375 71.875 
Q 37.890625 71.875 43.28125 67.140625 
Q 48.6875 62.40625 49.75 54.046875 
z
M 13.875 23.1875 
Q 13.875 18.65625 15.796875 14.5 
Q 17.71875 10.359375 21.1875 8.171875 
Q 24.65625 6 28.46875 6 
Q 34.03125 6 38.03125 10.484375 
Q 42.046875 14.984375 42.046875 22.703125 
Q 42.046875 30.125 38.078125 34.390625 
Q 34.125 38.671875 28.125 38.671875 
Q 22.171875 38.671875 18.015625 34.390625 
Q 13.875 30.125 13.875 23.1875 
z
" id="ArialMT-36"/>
      </defs>
      <g style="fill:#262626;" transform="translate(500.158594 290.877812)scale(0.1 -0.1)">
       <use xlink:href="#ArialMT-36"/>
       <use x="55.615234" xlink:href="#ArialMT-30"/>
       <use x="111.230469" xlink:href="#ArialMT-30"/>
      </g>
     </g>
    </g>
    <g id="xtick_8">
     <g id="line2d_8">
      <g>
       <use style="fill:#262626;stroke:#262626;" x="578.25" xlink:href="#m6832aba550" y="270.72"/>
      </g>
     </g>
     <g id="text_8">
      <!-- 700 -->
      <defs>
       <path d="M 4.734375 62.203125 
L 4.734375 70.65625 
L 51.078125 70.65625 
L 51.078125 63.8125 
Q 44.234375 56.546875 37.515625 44.484375 
Q 30.8125 32.421875 27.15625 19.671875 
Q 24.515625 10.6875 23.78125 0 
L 14.75 0 
Q 14.890625 8.453125 18.0625 20.40625 
Q 21.234375 32.375 27.171875 43.484375 
Q 33.109375 54.59375 39.796875 62.203125 
z
" id="ArialMT-37"/>
      </defs>
      <g style="fill:#262626;" transform="translate(569.908594 290.877812)scale(0.1 -0.1)">
       <use xlink:href="#ArialMT-37"/>
       <use x="55.615234" xlink:href="#ArialMT-30"/>
       <use x="111.230469" xlink:href="#ArialMT-30"/>
      </g>
     </g>
    </g>
    <g id="xtick_9">
     <g id="line2d_9">
      <g>
       <use style="fill:#262626;stroke:#262626;" x="648" xlink:href="#m6832aba550" y="270.72"/>
      </g>
     </g>
     <g id="text_9">
      <!-- 800 -->
      <defs>
       <path d="M 17.671875 38.8125 
Q 12.203125 40.828125 9.5625 44.53125 
Q 6.9375 48.25 6.9375 53.421875 
Q 6.9375 61.234375 12.546875 66.546875 
Q 18.171875 71.875 27.484375 71.875 
Q 36.859375 71.875 42.578125 66.421875 
Q 48.296875 60.984375 48.296875 53.171875 
Q 48.296875 48.1875 45.671875 44.5 
Q 43.0625 40.828125 37.75 38.8125 
Q 44.34375 36.671875 47.78125 31.875 
Q 51.21875 27.09375 51.21875 20.453125 
Q 51.21875 11.28125 44.71875 5.03125 
Q 38.234375 -1.21875 27.640625 -1.21875 
Q 17.046875 -1.21875 10.546875 5.046875 
Q 4.046875 11.328125 4.046875 20.703125 
Q 4.046875 27.6875 7.59375 32.390625 
Q 11.140625 37.109375 17.671875 38.8125 
z
M 15.921875 53.71875 
Q 15.921875 48.640625 19.1875 45.40625 
Q 22.46875 42.1875 27.6875 42.1875 
Q 32.765625 42.1875 36.015625 45.375 
Q 39.265625 48.578125 39.265625 53.21875 
Q 39.265625 58.0625 35.90625 61.359375 
Q 32.5625 64.65625 27.59375 64.65625 
Q 22.5625 64.65625 19.234375 61.421875 
Q 15.921875 58.203125 15.921875 53.71875 
z
M 13.09375 20.65625 
Q 13.09375 16.890625 14.875 13.375 
Q 16.65625 9.859375 20.171875 7.921875 
Q 23.6875 6 27.734375 6 
Q 34.03125 6 38.125 10.046875 
Q 42.234375 14.109375 42.234375 20.359375 
Q 42.234375 26.703125 38.015625 30.859375 
Q 33.796875 35.015625 27.4375 35.015625 
Q 21.234375 35.015625 17.15625 30.90625 
Q 13.09375 26.8125 13.09375 20.65625 
z
" id="ArialMT-38"/>
      </defs>
      <g style="fill:#262626;" transform="translate(639.658594 290.877812)scale(0.1 -0.1)">
       <use xlink:href="#ArialMT-38"/>
       <use x="55.615234" xlink:href="#ArialMT-30"/>
       <use x="111.230469" xlink:href="#ArialMT-30"/>
      </g>
     </g>
    </g>
   </g>
   <g id="matplotlib.axis_2">
    <g id="ytick_1">
     <g id="line2d_10">
      <defs>
       <path d="M 0 0 
L -6 0 
" id="md00ba5a9a8" style="stroke:#262626;"/>
      </defs>
      <g>
       <use style="fill:#262626;stroke:#262626;" x="90" xlink:href="#md00ba5a9a8" y="270.72"/>
      </g>
     </g>
     <g id="text_10">
      <!-- −0.20 -->
      <defs>
       <path d="M 52.828125 31.203125 
L 5.5625 31.203125 
L 5.5625 39.40625 
L 52.828125 39.40625 
z
" id="ArialMT-2212"/>
       <path d="M 9.078125 0 
L 9.078125 10.015625 
L 19.09375 10.015625 
L 19.09375 0 
z
" id="ArialMT-2e"/>
      </defs>
      <g style="fill:#262626;" transform="translate(51.698437 274.298906)scale(0.1 -0.1)">
       <use xlink:href="#ArialMT-2212"/>
       <use x="58.398438" xlink:href="#ArialMT-30"/>
       <use x="114.013672" xlink:href="#ArialMT-2e"/>
       <use x="141.796875" xlink:href="#ArialMT-32"/>
       <use x="197.412109" xlink:href="#ArialMT-30"/>
      </g>
     </g>
    </g>
    <g id="ytick_2">
     <g id="line2d_11">
      <g>
       <use style="fill:#262626;stroke:#262626;" x="90" xlink:href="#md00ba5a9a8" y="245.52"/>
      </g>
     </g>
     <g id="text_11">
      <!-- −0.15 -->
      <g style="fill:#262626;" transform="translate(51.698437 249.098906)scale(0.1 -0.1)">
       <use xlink:href="#ArialMT-2212"/>
       <use x="58.398438" xlink:href="#ArialMT-30"/>
       <use x="114.013672" xlink:href="#ArialMT-2e"/>
       <use x="141.796875" xlink:href="#ArialMT-31"/>
       <use x="197.412109" xlink:href="#ArialMT-35"/>
      </g>
     </g>
    </g>
    <g id="ytick_3">
     <g id="line2d_12">
      <g>
       <use style="fill:#262626;stroke:#262626;" x="90" xlink:href="#md00ba5a9a8" y="220.32"/>
      </g>
     </g>
     <g id="text_12">
      <!-- −0.10 -->
      <g style="fill:#262626;" transform="translate(51.698437 223.898906)scale(0.1 -0.1)">
       <use xlink:href="#ArialMT-2212"/>
       <use x="58.398438" xlink:href="#ArialMT-30"/>
       <use x="114.013672" xlink:href="#ArialMT-2e"/>
       <use x="141.796875" xlink:href="#ArialMT-31"/>
       <use x="197.412109" xlink:href="#ArialMT-30"/>
      </g>
     </g>
    </g>
    <g id="ytick_4">
     <g id="line2d_13">
      <g>
       <use style="fill:#262626;stroke:#262626;" x="90" xlink:href="#md00ba5a9a8" y="195.12"/>
      </g>
     </g>
     <g id="text_13">
      <!-- −0.05 -->
      <g style="fill:#262626;" transform="translate(51.698437 198.698906)scale(0.1 -0.1)">
       <use xlink:href="#ArialMT-2212"/>
       <use x="58.398438" xlink:href="#ArialMT-30"/>
       <use x="114.013672" xlink:href="#ArialMT-2e"/>
       <use x="141.796875" xlink:href="#ArialMT-30"/>
       <use x="197.412109" xlink:href="#ArialMT-35"/>
      </g>
     </g>
    </g>
    <g id="ytick_5">
     <g id="line2d_14">
      <g>
       <use style="fill:#262626;stroke:#262626;" x="90" xlink:href="#md00ba5a9a8" y="169.92"/>
      </g>
     </g>
     <g id="text_14">
      <!-- 0.00 -->
      <g style="fill:#262626;" transform="translate(57.539062 173.498906)scale(0.1 -0.1)">
       <use xlink:href="#ArialMT-30"/>
       <use x="55.615234" xlink:href="#ArialMT-2e"/>
       <use x="83.398438" xlink:href="#ArialMT-30"/>
       <use x="139.013672" xlink:href="#ArialMT-30"/>
      </g>
     </g>
    </g>
    <g id="ytick_6">
     <g id="line2d_15">
      <g>
       <use style="fill:#262626;stroke:#262626;" x="90" xlink:href="#md00ba5a9a8" y="144.72"/>
      </g>
     </g>
     <g id="text_15">
      <!-- 0.05 -->
      <g style="fill:#262626;" transform="translate(57.539062 148.298906)scale(0.1 -0.1)">
       <use xlink:href="#ArialMT-30"/>
       <use x="55.615234" xlink:href="#ArialMT-2e"/>
       <use x="83.398438" xlink:href="#ArialMT-30"/>
       <use x="139.013672" xlink:href="#ArialMT-35"/>
      </g>
     </g>
    </g>
    <g id="ytick_7">
     <g id="line2d_16">
      <g>
       <use style="fill:#262626;stroke:#262626;" x="90" xlink:href="#md00ba5a9a8" y="119.52"/>
      </g>
     </g>
     <g id="text_16">
      <!-- 0.10 -->
      <g style="fill:#262626;" transform="translate(57.539062 123.098906)scale(0.1 -0.1)">
       <use xlink:href="#ArialMT-30"/>
       <use x="55.615234" xlink:href="#ArialMT-2e"/>
       <use x="83.398438" xlink:href="#ArialMT-31"/>
       <use x="139.013672" xlink:href="#ArialMT-30"/>
      </g>
     </g>
    </g>
    <g id="ytick_8">
     <g id="line2d_17">
      <g>
       <use style="fill:#262626;stroke:#262626;" x="90" xlink:href="#md00ba5a9a8" y="94.32"/>
      </g>
     </g>
     <g id="text_17">
      <!-- 0.15 -->
      <g style="fill:#262626;" transform="translate(57.539062 97.898906)scale(0.1 -0.1)">
       <use xlink:href="#ArialMT-30"/>
       <use x="55.615234" xlink:href="#ArialMT-2e"/>
       <use x="83.398438" xlink:href="#ArialMT-31"/>
       <use x="139.013672" xlink:href="#ArialMT-35"/>
      </g>
     </g>
    </g>
    <g id="ytick_9">
     <g id="line2d_18">
      <g>
       <use style="fill:#262626;stroke:#262626;" x="90" xlink:href="#md00ba5a9a8" y="69.12"/>
      </g>
     </g>
     <g id="text_18">
      <!-- 0.20 -->
      <g style="fill:#262626;" transform="translate(57.539062 72.698906)scale(0.1 -0.1)">
       <use xlink:href="#ArialMT-30"/>
       <use x="55.615234" xlink:href="#ArialMT-2e"/>
       <use x="83.398438" xlink:href="#ArialMT-32"/>
       <use x="139.013672" xlink:href="#ArialMT-30"/>
      </g>
     </g>
    </g>
   </g>
   <g id="PolyCollection_1">
    <path clip-path="url(#p176564f683)" d="M 90 185.213685 
L 90 169.92 
L 90.6975 169.92 
L 91.395 169.92 
L 92.0925 169.92 
L 92.79 169.92 
L 93.4875 169.92 
L 94.185 169.92 
L 94.8825 169.92 
L 95.58 169.92 
L 96.2775 169.92 
L 96.975 169.92 
L 97.6725 169.92 
L 98.37 169.92 
L 99.0675 169.92 
L 99.765 169.92 
L 100.4625 169.92 
L 101.16 169.92 
L 101.8575 169.92 
L 102.555 169.92 
L 103.2525 169.92 
L 103.95 169.92 
L 104.6475 169.92 
L 105.345 169.92 
L 106.0425 169.92 
L 106.74 169.92 
L 107.4375 169.92 
L 108.135 169.92 
L 108.8325 169.92 
L 109.53 169.92 
L 110.2275 169.92 
L 110.925 169.92 
L 111.6225 169.92 
L 112.32 169.92 
L 113.0175 169.92 
L 113.715 169.92 
L 114.4125 169.92 
L 115.11 169.92 
L 115.8075 169.92 
L 116.505 169.92 
L 117.2025 169.92 
L 117.9 169.92 
L 118.5975 169.92 
L 119.295 169.92 
L 119.9925 169.92 
L 120.69 169.92 
L 121.3875 169.92 
L 122.085 169.92 
L 122.7825 169.92 
L 123.48 169.92 
L 124.1775 169.92 
L 124.875 169.92 
L 125.5725 169.92 
L 126.27 169.92 
L 126.9675 169.92 
L 127.665 169.92 
L 128.3625 169.92 
L 129.06 169.92 
L 129.7575 169.92 
L 130.455 169.92 
L 131.1525 169.92 
L 131.85 169.92 
L 132.5475 169.92 
L 133.245 169.92 
L 133.9425 169.92 
L 134.64 169.92 
L 135.3375 169.92 
L 136.035 169.92 
L 136.7325 169.92 
L 137.43 169.92 
L 138.1275 169.92 
L 138.825 169.92 
L 139.5225 169.92 
L 140.22 169.92 
L 140.9175 169.92 
L 141.615 169.92 
L 142.3125 169.92 
L 143.01 169.92 
L 143.7075 169.92 
L 144.405 169.92 
L 145.1025 169.92 
L 145.8 169.92 
L 146.4975 169.92 
L 147.195 169.92 
L 147.8925 169.92 
L 148.59 169.92 
L 149.2875 169.92 
L 149.985 169.92 
L 150.6825 169.92 
L 151.38 169.92 
L 152.0775 169.92 
L 152.775 169.92 
L 153.4725 169.92 
L 154.17 169.92 
L 154.8675 169.92 
L 155.565 169.92 
L 156.2625 169.92 
L 156.96 169.92 
L 157.6575 169.92 
L 158.355 169.92 
L 159.0525 169.92 
L 159.75 169.92 
L 160.4475 169.92 
L 161.145 169.92 
L 161.8425 169.92 
L 162.54 169.92 
L 163.2375 169.92 
L 163.935 169.92 
L 164.6325 169.92 
L 165.33 169.92 
L 166.0275 169.92 
L 166.725 169.92 
L 167.4225 169.92 
L 168.12 169.92 
L 168.8175 169.92 
L 169.515 169.92 
L 170.2125 169.92 
L 170.91 169.92 
L 171.6075 169.92 
L 172.305 169.92 
L 173.0025 169.92 
L 173.7 169.92 
L 174.3975 169.92 
L 175.095 169.92 
L 175.7925 169.92 
L 176.49 169.92 
L 177.1875 169.92 
L 177.885 169.92 
L 178.5825 169.92 
L 179.28 169.92 
L 179.9775 169.92 
L 180.675 169.92 
L 181.3725 169.92 
L 182.07 169.92 
L 182.7675 169.92 
L 183.465 169.92 
L 184.1625 169.92 
L 184.86 169.92 
L 185.5575 169.92 
L 186.255 169.92 
L 186.9525 169.92 
L 187.65 169.92 
L 188.3475 169.92 
L 189.045 169.92 
L 189.7425 169.92 
L 190.44 169.92 
L 191.1375 169.92 
L 191.835 169.92 
L 192.5325 169.92 
L 193.23 169.92 
L 193.9275 169.92 
L 194.625 169.92 
L 195.3225 169.92 
L 196.02 169.92 
L 196.7175 169.92 
L 197.415 169.92 
L 198.1125 169.92 
L 198.81 169.92 
L 199.5075 169.92 
L 200.205 169.92 
L 200.9025 169.92 
L 201.6 169.92 
L 202.2975 169.92 
L 202.995 169.92 
L 203.6925 169.92 
L 204.39 169.92 
L 205.0875 169.92 
L 205.785 169.92 
L 206.4825 169.92 
L 207.18 169.92 
L 207.8775 169.92 
L 208.575 169.92 
L 209.2725 169.92 
L 209.97 169.92 
L 210.6675 169.92 
L 211.365 169.92 
L 212.0625 169.92 
L 212.76 169.92 
L 213.4575 169.92 
L 214.155 169.92 
L 214.8525 169.92 
L 215.55 169.92 
L 216.2475 169.92 
L 216.945 169.92 
L 217.6425 169.92 
L 218.34 169.92 
L 219.0375 169.92 
L 219.735 169.92 
L 220.4325 169.92 
L 221.13 169.92 
L 221.8275 169.92 
L 222.525 169.92 
L 223.2225 169.92 
L 223.92 169.92 
L 224.6175 169.92 
L 225.315 169.92 
L 226.0125 169.92 
L 226.71 169.92 
L 227.4075 169.92 
L 228.105 169.92 
L 228.8025 169.92 
L 229.5 169.92 
L 230.1975 169.92 
L 230.895 169.92 
L 231.5925 169.92 
L 232.29 169.92 
L 232.9875 169.92 
L 233.685 169.92 
L 234.3825 169.92 
L 235.08 169.92 
L 235.7775 169.92 
L 236.475 169.92 
L 237.1725 169.92 
L 237.87 169.92 
L 238.5675 169.92 
L 239.265 169.92 
L 239.9625 169.92 
L 240.66 169.92 
L 241.3575 169.92 
L 242.055 169.92 
L 242.7525 169.92 
L 243.45 169.92 
L 244.1475 169.92 
L 244.845 169.92 
L 245.5425 169.92 
L 246.24 169.92 
L 246.9375 169.92 
L 247.635 169.92 
L 248.3325 169.92 
L 249.03 169.92 
L 249.7275 169.92 
L 250.425 169.92 
L 251.1225 169.92 
L 251.82 169.92 
L 252.5175 169.92 
L 253.215 169.92 
L 253.9125 169.92 
L 254.61 169.92 
L 255.3075 169.92 
L 256.005 169.92 
L 256.7025 169.92 
L 257.4 169.92 
L 258.0975 169.92 
L 258.795 169.92 
L 259.4925 169.92 
L 260.19 169.92 
L 260.8875 169.92 
L 261.585 169.92 
L 262.2825 169.92 
L 262.98 169.92 
L 263.6775 169.92 
L 264.375 169.92 
L 265.0725 169.92 
L 265.77 169.92 
L 266.4675 169.92 
L 267.165 169.92 
L 267.8625 169.92 
L 268.56 169.92 
L 269.2575 169.92 
L 269.955 169.92 
L 270.6525 169.92 
L 271.35 169.92 
L 272.0475 169.92 
L 272.745 169.92 
L 273.4425 169.92 
L 274.14 169.92 
L 274.8375 169.92 
L 275.535 169.92 
L 276.2325 169.92 
L 276.93 169.92 
L 277.6275 169.92 
L 278.325 169.92 
L 279.0225 169.92 
L 279.72 169.92 
L 280.4175 169.92 
L 281.115 169.92 
L 281.8125 169.92 
L 282.51 169.92 
L 283.2075 169.92 
L 283.905 169.92 
L 284.6025 169.92 
L 285.3 169.92 
L 285.9975 169.92 
L 286.695 169.92 
L 287.3925 169.92 
L 288.09 169.92 
L 288.7875 169.92 
L 289.485 169.92 
L 290.1825 169.92 
L 290.88 169.92 
L 291.5775 169.92 
L 292.275 169.92 
L 292.9725 169.92 
L 293.67 169.92 
L 294.3675 169.92 
L 295.065 169.92 
L 295.7625 169.92 
L 296.46 169.92 
L 297.1575 169.92 
L 297.855 169.92 
L 298.5525 169.92 
L 299.25 169.92 
L 299.9475 169.92 
L 300.645 169.92 
L 301.3425 169.92 
L 302.04 169.92 
L 302.7375 169.92 
L 303.435 169.92 
L 304.1325 169.92 
L 304.83 169.92 
L 305.5275 169.92 
L 306.225 169.92 
L 306.9225 169.92 
L 307.62 169.92 
L 308.3175 169.92 
L 309.015 169.92 
L 309.7125 169.92 
L 310.41 169.92 
L 311.1075 169.92 
L 311.805 169.92 
L 312.5025 169.92 
L 313.2 169.92 
L 313.8975 169.92 
L 314.595 169.92 
L 315.2925 169.92 
L 315.99 169.92 
L 316.6875 169.92 
L 317.385 169.92 
L 318.0825 169.92 
L 318.78 169.92 
L 319.4775 169.92 
L 320.175 169.92 
L 320.8725 169.92 
L 321.57 169.92 
L 322.2675 169.92 
L 322.965 169.92 
L 323.6625 169.92 
L 324.36 169.92 
L 325.0575 169.92 
L 325.755 169.92 
L 326.4525 169.92 
L 327.15 169.92 
L 327.8475 169.92 
L 328.545 169.92 
L 329.2425 169.92 
L 329.94 169.92 
L 330.6375 169.92 
L 331.335 169.92 
L 332.0325 169.92 
L 332.73 169.92 
L 333.4275 169.92 
L 334.125 169.92 
L 334.8225 169.92 
L 335.52 169.92 
L 336.2175 169.92 
L 336.915 169.92 
L 337.6125 169.92 
L 338.31 169.92 
L 339.0075 169.92 
L 339.705 169.92 
L 340.4025 169.92 
L 341.1 169.92 
L 341.7975 169.92 
L 342.495 169.92 
L 343.1925 169.92 
L 343.89 169.92 
L 344.5875 169.92 
L 345.285 169.92 
L 345.9825 169.92 
L 346.68 169.92 
L 347.3775 169.92 
L 348.075 169.92 
L 348.7725 169.92 
L 349.47 169.92 
L 350.1675 169.92 
L 350.865 169.92 
L 351.5625 169.92 
L 352.26 169.92 
L 352.9575 169.92 
L 353.655 169.92 
L 354.3525 169.92 
L 355.05 169.92 
L 355.7475 169.92 
L 356.445 169.92 
L 357.1425 169.92 
L 357.84 169.92 
L 358.5375 169.92 
L 359.235 169.92 
L 359.9325 169.92 
L 360.63 169.92 
L 361.3275 169.92 
L 362.025 169.92 
L 362.7225 169.92 
L 363.42 169.92 
L 364.1175 169.92 
L 364.815 169.92 
L 365.5125 169.92 
L 366.21 169.92 
L 366.9075 169.92 
L 367.605 169.92 
L 368.3025 169.92 
L 369 169.92 
L 369.6975 169.92 
L 370.395 169.92 
L 371.0925 169.92 
L 371.79 169.92 
L 372.4875 169.92 
L 373.185 169.92 
L 373.8825 169.92 
L 374.58 169.92 
L 375.2775 169.92 
L 375.975 169.92 
L 376.6725 169.92 
L 377.37 169.92 
L 378.0675 169.92 
L 378.765 169.92 
L 379.4625 169.92 
L 380.16 169.92 
L 380.8575 169.92 
L 381.555 169.92 
L 382.2525 169.92 
L 382.95 169.92 
L 383.6475 169.92 
L 384.345 169.92 
L 385.0425 169.92 
L 385.74 169.92 
L 386.4375 169.92 
L 387.135 169.92 
L 387.8325 169.92 
L 388.53 169.92 
L 389.2275 169.92 
L 389.925 169.92 
L 390.6225 169.92 
L 391.32 169.92 
L 392.0175 169.92 
L 392.715 169.92 
L 393.4125 169.92 
L 394.11 169.92 
L 394.8075 169.92 
L 395.505 169.92 
L 396.2025 169.92 
L 396.9 169.92 
L 397.5975 169.92 
L 398.295 169.92 
L 398.9925 169.92 
L 399.69 169.92 
L 400.3875 169.92 
L 401.085 169.92 
L 401.7825 169.92 
L 402.48 169.92 
L 403.1775 169.92 
L 403.875 169.92 
L 404.5725 169.92 
L 405.27 169.92 
L 405.9675 169.92 
L 406.665 169.92 
L 407.3625 169.92 
L 408.06 169.92 
L 408.7575 169.92 
L 409.455 169.92 
L 410.1525 169.92 
L 410.85 169.92 
L 411.5475 169.92 
L 412.245 169.92 
L 412.9425 169.92 
L 413.64 169.92 
L 414.3375 169.92 
L 415.035 169.92 
L 415.7325 169.92 
L 416.43 169.92 
L 417.1275 169.92 
L 417.825 169.92 
L 418.5225 169.92 
L 419.22 169.92 
L 419.9175 169.92 
L 420.615 169.92 
L 421.3125 169.92 
L 422.01 169.92 
L 422.7075 169.92 
L 423.405 169.92 
L 424.1025 169.92 
L 424.8 169.92 
L 425.4975 169.92 
L 426.195 169.92 
L 426.8925 169.92 
L 427.59 169.92 
L 428.2875 169.92 
L 428.985 169.92 
L 429.6825 169.92 
L 430.38 169.92 
L 431.0775 169.92 
L 431.775 169.92 
L 432.4725 169.92 
L 433.17 169.92 
L 433.8675 169.92 
L 434.565 169.92 
L 435.2625 169.92 
L 435.96 169.92 
L 436.6575 169.92 
L 437.355 169.92 
L 438.0525 169.92 
L 438.75 169.92 
L 439.4475 169.92 
L 440.145 169.92 
L 440.8425 169.92 
L 441.54 169.92 
L 442.2375 169.92 
L 442.935 169.92 
L 443.6325 169.92 
L 444.33 169.92 
L 445.0275 169.92 
L 445.725 169.92 
L 446.4225 169.92 
L 447.12 169.92 
L 447.8175 169.92 
L 448.515 169.92 
L 449.2125 169.92 
L 449.91 169.92 
L 450.6075 169.92 
L 451.305 169.92 
L 452.0025 169.92 
L 452.7 169.92 
L 453.3975 169.92 
L 454.095 169.92 
L 454.7925 169.92 
L 455.49 169.92 
L 456.1875 169.92 
L 456.885 169.92 
L 457.5825 169.92 
L 458.28 169.92 
L 458.9775 169.92 
L 459.675 169.92 
L 460.3725 169.92 
L 461.07 169.92 
L 461.7675 169.92 
L 462.465 169.92 
L 463.1625 169.92 
L 463.86 169.92 
L 464.5575 169.92 
L 465.255 169.92 
L 465.9525 169.92 
L 466.65 169.92 
L 467.3475 169.92 
L 468.045 169.92 
L 468.7425 169.92 
L 469.44 169.92 
L 470.1375 169.92 
L 470.835 169.92 
L 471.5325 169.92 
L 472.23 169.92 
L 472.9275 169.92 
L 473.625 169.92 
L 474.3225 169.92 
L 475.02 169.92 
L 475.7175 169.92 
L 476.415 169.92 
L 477.1125 169.92 
L 477.81 169.92 
L 478.5075 169.92 
L 479.205 169.92 
L 479.9025 169.92 
L 480.6 169.92 
L 481.2975 169.92 
L 481.995 169.92 
L 482.6925 169.92 
L 483.39 169.92 
L 484.0875 169.92 
L 484.785 169.92 
L 485.4825 169.92 
L 486.18 169.92 
L 486.8775 169.92 
L 487.575 169.92 
L 488.2725 169.92 
L 488.97 169.92 
L 489.6675 169.92 
L 490.365 169.92 
L 491.0625 169.92 
L 491.76 169.92 
L 492.4575 169.92 
L 493.155 169.92 
L 493.8525 169.92 
L 494.55 169.92 
L 495.2475 169.92 
L 495.945 169.92 
L 496.6425 169.92 
L 497.34 169.92 
L 498.0375 169.92 
L 498.735 169.92 
L 499.4325 169.92 
L 500.13 169.92 
L 500.8275 169.92 
L 501.525 169.92 
L 502.2225 169.92 
L 502.92 169.92 
L 503.6175 169.92 
L 504.315 169.92 
L 505.0125 169.92 
L 505.71 169.92 
L 506.4075 169.92 
L 507.105 169.92 
L 507.8025 169.92 
L 508.5 169.92 
L 509.1975 169.92 
L 509.895 169.92 
L 510.5925 169.92 
L 511.29 169.92 
L 511.9875 169.92 
L 512.685 169.92 
L 513.3825 169.92 
L 514.08 169.92 
L 514.7775 169.92 
L 515.475 169.92 
L 516.1725 169.92 
L 516.87 169.92 
L 517.5675 169.92 
L 518.265 169.92 
L 518.9625 169.92 
L 519.66 169.92 
L 520.3575 169.92 
L 521.055 169.92 
L 521.7525 169.92 
L 522.45 169.92 
L 523.1475 169.92 
L 523.845 169.92 
L 524.5425 169.92 
L 525.24 169.92 
L 525.9375 169.92 
L 526.635 169.92 
L 527.3325 169.92 
L 528.03 169.92 
L 528.7275 169.92 
L 529.425 169.92 
L 530.1225 169.92 
L 530.82 169.92 
L 531.5175 169.92 
L 532.215 169.92 
L 532.9125 169.92 
L 533.61 169.92 
L 534.3075 169.92 
L 535.005 169.92 
L 535.7025 169.92 
L 536.4 169.92 
L 537.0975 169.92 
L 537.795 169.92 
L 538.4925 169.92 
L 539.19 169.92 
L 539.8875 169.92 
L 540.585 169.92 
L 541.2825 169.92 
L 541.98 169.92 
L 542.6775 169.92 
L 543.375 169.92 
L 544.0725 169.92 
L 544.77 169.92 
L 545.4675 169.92 
L 546.165 169.92 
L 546.8625 169.92 
L 547.56 169.92 
L 548.2575 169.92 
L 548.955 169.92 
L 549.6525 169.92 
L 550.35 169.92 
L 551.0475 169.92 
L 551.745 169.92 
L 552.4425 169.92 
L 553.14 169.92 
L 553.8375 169.92 
L 554.535 169.92 
L 555.2325 169.92 
L 555.93 169.92 
L 556.6275 169.92 
L 557.325 169.92 
L 558.0225 169.92 
L 558.72 169.92 
L 559.4175 169.92 
L 560.115 169.92 
L 560.8125 169.92 
L 561.51 169.92 
L 562.2075 169.92 
L 562.905 169.92 
L 563.6025 169.92 
L 564.3 169.92 
L 564.9975 169.92 
L 565.695 169.92 
L 566.3925 169.92 
L 567.09 169.92 
L 567.7875 169.92 
L 568.485 169.92 
L 569.1825 169.92 
L 569.88 169.92 
L 570.5775 169.92 
L 571.275 169.92 
L 571.9725 169.92 
L 572.67 169.92 
L 573.3675 169.92 
L 574.065 169.92 
L 574.7625 169.92 
L 575.46 169.92 
L 576.1575 169.92 
L 576.855 169.92 
L 577.5525 169.92 
L 578.25 169.92 
L 578.9475 169.92 
L 579.645 169.92 
L 580.3425 169.92 
L 581.04 169.92 
L 581.7375 169.92 
L 582.435 169.92 
L 583.1325 169.92 
L 583.83 169.92 
L 584.5275 169.92 
L 585.225 169.92 
L 585.9225 169.92 
L 586.62 169.92 
L 587.3175 169.92 
L 588.015 169.92 
L 588.7125 169.92 
L 589.41 169.92 
L 590.1075 169.92 
L 590.805 169.92 
L 591.5025 169.92 
L 592.2 169.92 
L 592.8975 169.92 
L 593.595 169.92 
L 594.2925 169.92 
L 594.99 169.92 
L 595.6875 169.92 
L 596.385 169.92 
L 597.0825 169.92 
L 597.78 169.92 
L 598.4775 169.92 
L 599.175 169.92 
L 599.8725 169.92 
L 600.57 169.92 
L 601.2675 169.92 
L 601.965 169.92 
L 602.6625 169.92 
L 603.36 169.92 
L 604.0575 169.92 
L 604.755 169.92 
L 605.4525 169.92 
L 606.15 169.92 
L 606.8475 169.92 
L 607.545 169.92 
L 608.2425 169.92 
L 608.94 169.92 
L 609.6375 169.92 
L 610.335 169.92 
L 611.0325 169.92 
L 611.73 169.92 
L 612.4275 169.92 
L 613.125 169.92 
L 613.8225 169.92 
L 614.52 169.92 
L 615.2175 169.92 
L 615.915 169.92 
L 616.6125 169.92 
L 617.31 169.92 
L 618.0075 169.92 
L 618.705 169.92 
L 619.4025 169.92 
L 620.1 169.92 
L 620.7975 169.92 
L 621.495 169.92 
L 622.1925 169.92 
L 622.89 169.92 
L 623.5875 169.92 
L 624.285 169.92 
L 624.9825 169.92 
L 625.68 169.92 
L 626.3775 169.92 
L 627.075 169.92 
L 627.7725 169.92 
L 628.47 169.92 
L 629.1675 169.92 
L 629.865 169.92 
L 630.5625 169.92 
L 631.26 169.92 
L 631.9575 169.92 
L 632.655 169.92 
L 633.3525 169.92 
L 634.05 169.92 
L 634.7475 169.92 
L 635.445 169.92 
L 636.1425 169.92 
L 636.84 169.92 
L 637.5375 169.92 
L 638.235 169.92 
L 638.9325 169.92 
L 639.63 169.92 
L 640.3275 169.92 
L 641.025 169.92 
L 641.7225 169.92 
L 642.42 169.92 
L 643.1175 169.92 
L 643.815 169.92 
L 644.5125 169.92 
L 645.21 169.92 
L 645.9075 169.92 
L 646.605 169.92 
L 646.605 169.92 
L 646.605 169.92 
L 645.9075 169.921584 
L 645.21 169.9253 
L 644.5125 169.93168 
L 643.815 169.941238 
L 643.1175 169.954463 
L 642.42 169.971819 
L 641.7225 169.99374 
L 641.025 170.020626 
L 640.3275 170.05284 
L 639.63 170.090706 
L 638.9325 170.134507 
L 638.235 170.184478 
L 637.5375 170.240811 
L 636.84 170.303646 
L 636.1425 170.373074 
L 635.445 170.449131 
L 634.7475 170.531804 
L 634.05 170.621022 
L 633.3525 170.716662 
L 632.655 170.818543 
L 631.9575 170.926432 
L 631.26 171.04004 
L 630.5625 171.159023 
L 629.865 171.282987 
L 629.1675 171.411484 
L 628.47 171.544018 
L 627.7725 171.680042 
L 627.075 171.818967 
L 626.3775 171.960158 
L 625.68 172.102941 
L 624.9825 172.246603 
L 624.285 172.390399 
L 623.5875 172.533552 
L 622.89 172.675257 
L 622.1925 172.814689 
L 621.495 172.951002 
L 620.7975 173.083335 
L 620.1 173.21082 
L 619.4025 173.332579 
L 618.705 173.447736 
L 618.0075 173.555419 
L 617.31 173.654764 
L 616.6125 173.744919 
L 615.915 173.825053 
L 615.2175 173.894355 
L 614.52 173.952046 
L 613.8225 173.997376 
L 613.125 174.029633 
L 612.4275 174.048148 
L 611.73 174.052298 
L 611.0325 174.041509 
L 610.335 174.015263 
L 609.6375 173.9731 
L 608.94 173.91462 
L 608.2425 173.839493 
L 607.545 173.747452 
L 606.8475 173.638305 
L 606.15 173.511934 
L 605.4525 173.368294 
L 604.755 173.207421 
L 604.0575 173.029431 
L 603.36 172.834518 
L 602.6625 172.62296 
L 601.965 172.395118 
L 601.2675 172.151432 
L 600.57 171.892428 
L 599.8725 171.61871 
L 599.175 171.330966 
L 598.4775 171.02996 
L 597.78 170.716535 
L 597.0825 170.391607 
L 596.385 170.056167 
L 595.6875 169.711272 
L 594.99 169.35805 
L 594.2925 168.997686 
L 593.595 168.631427 
L 592.8975 168.260573 
L 592.2 167.886473 
L 591.5025 167.510521 
L 590.805 167.134151 
L 590.1075 166.758829 
L 589.41 166.38605 
L 588.7125 166.017331 
L 588.015 165.654205 
L 587.3175 165.298214 
L 586.62 164.950904 
L 585.9225 164.613818 
L 585.225 164.288488 
L 584.5275 163.97643 
L 583.83 163.679136 
L 583.1325 163.398069 
L 582.435 163.134654 
L 581.7375 162.890272 
L 581.04 162.666256 
L 580.3425 162.463882 
L 579.645 162.284362 
L 578.9475 162.128839 
L 578.25 161.998384 
L 577.5525 161.893984 
L 576.855 161.816542 
L 576.1575 161.766869 
L 575.46 161.745682 
L 574.7625 161.753596 
L 574.065 161.791122 
L 573.3675 161.858661 
L 572.67 161.956504 
L 571.9725 162.084829 
L 571.275 162.243693 
L 570.5775 162.433037 
L 569.88 162.65268 
L 569.1825 162.902318 
L 568.485 163.181527 
L 567.7875 163.489758 
L 567.09 163.826341 
L 566.3925 164.190484 
L 565.695 164.581275 
L 564.9975 164.997685 
L 564.3 165.438567 
L 563.6025 165.902663 
L 562.905 166.388606 
L 562.2075 166.894921 
L 561.51 167.420035 
L 560.8125 167.962275 
L 560.115 168.519882 
L 559.4175 169.091007 
L 558.72 169.673723 
L 558.0225 170.266033 
L 557.325 170.865872 
L 556.6275 171.471116 
L 555.93 172.079591 
L 555.2325 172.689081 
L 554.535 173.297334 
L 553.8375 173.902073 
L 553.14 174.501 
L 552.4425 175.09181 
L 551.745 175.672199 
L 551.0475 176.239871 
L 550.35 176.792545 
L 549.6525 177.327971 
L 548.955 177.843934 
L 548.2575 178.338262 
L 547.56 178.80884 
L 546.8625 179.253614 
L 546.165 179.670604 
L 545.4675 180.057908 
L 544.77 180.413713 
L 544.0725 180.736304 
L 543.375 181.024069 
L 542.6775 181.27551 
L 541.98 181.489246 
L 541.2825 181.664022 
L 540.585 181.798715 
L 539.8875 181.892341 
L 539.19 181.944058 
L 538.4925 181.953173 
L 537.795 181.919143 
L 537.0975 181.841584 
L 536.4 181.72027 
L 535.7025 181.555136 
L 535.005 181.346282 
L 534.3075 181.093974 
L 533.61 180.798642 
L 532.9125 180.460885 
L 532.215 180.081464 
L 531.5175 179.661307 
L 530.82 179.201505 
L 530.1225 178.703308 
L 529.425 178.168123 
L 528.7275 177.597512 
L 528.03 176.993184 
L 527.3325 176.356993 
L 526.635 175.690931 
L 525.9375 174.997123 
L 525.24 174.277819 
L 524.5425 173.535387 
L 523.845 172.772305 
L 523.1475 171.991155 
L 522.45 171.19461 
L 521.7525 170.385427 
L 521.055 169.56644 
L 520.3575 168.740545 
L 519.66 167.910693 
L 518.9625 167.079878 
L 518.265 166.251127 
L 517.5675 165.427488 
L 516.87 164.61202 
L 516.1725 163.80778 
L 515.475 163.017811 
L 514.7775 162.245134 
L 514.08 161.492732 
L 513.3825 160.763541 
L 512.685 160.060439 
L 511.9875 159.386232 
L 511.29 158.743646 
L 510.5925 158.135312 
L 509.895 157.56376 
L 509.1975 157.031406 
L 508.5 156.540542 
L 507.8025 156.093327 
L 507.105 155.691777 
L 506.4075 155.337758 
L 505.71 155.032973 
L 505.0125 154.778962 
L 504.315 154.577089 
L 503.6175 154.428535 
L 502.92 154.334298 
L 502.2225 154.29518 
L 501.525 154.311788 
L 500.8275 154.38453 
L 500.13 154.513607 
L 499.4325 154.699016 
L 498.735 154.940547 
L 498.0375 155.23778 
L 497.34 155.590086 
L 496.6425 155.99663 
L 495.945 156.456369 
L 495.2475 156.968057 
L 494.55 157.530246 
L 493.8525 158.14129 
L 493.155 158.799354 
L 492.4575 159.502413 
L 491.76 160.24826 
L 491.0625 161.034517 
L 490.365 161.858638 
L 489.6675 162.717918 
L 488.97 163.609502 
L 488.2725 164.530398 
L 487.575 165.477481 
L 486.8775 166.447508 
L 486.18 167.43713 
L 485.4825 168.442897 
L 484.785 169.46128 
L 484.0875 170.488675 
L 483.39 171.52142 
L 482.6925 172.555809 
L 481.995 173.5881 
L 481.2975 174.614536 
L 480.6 175.631353 
L 479.9025 176.634799 
L 479.205 177.621142 
L 478.5075 178.586687 
L 477.81 179.527794 
L 477.1125 180.440883 
L 476.415 181.322455 
L 475.7175 182.169102 
L 475.02 182.977523 
L 474.3225 183.744532 
L 473.625 184.467077 
L 472.9275 185.142245 
L 472.23 185.767282 
L 471.5325 186.339594 
L 470.835 186.856768 
L 470.1375 187.316575 
L 469.44 187.716981 
L 468.7425 188.056158 
L 468.045 188.33249 
L 467.3475 188.544579 
L 466.65 188.691255 
L 465.9525 188.771578 
L 465.255 188.784848 
L 464.5575 188.730601 
L 463.86 188.60862 
L 463.1625 188.418934 
L 462.465 188.161818 
L 461.7675 187.837796 
L 461.07 187.447639 
L 460.3725 186.992364 
L 459.675 186.473231 
L 458.9775 185.891742 
L 458.28 185.249635 
L 457.5825 184.548877 
L 456.885 183.791662 
L 456.1875 182.980404 
L 455.49 182.117726 
L 454.7925 181.206452 
L 454.095 180.249603 
L 453.3975 179.250379 
L 452.7 178.212155 
L 452.0025 177.138466 
L 451.305 176.032996 
L 450.6075 174.899564 
L 449.91 173.742112 
L 449.2125 172.564692 
L 448.515 171.37145 
L 447.8175 170.16661 
L 447.12 168.954464 
L 446.4225 167.739349 
L 445.725 166.525641 
L 445.0275 165.317729 
L 444.33 164.120005 
L 443.6325 162.936849 
L 442.935 161.772607 
L 442.2375 160.631581 
L 441.54 159.518009 
L 440.8425 158.43605 
L 440.145 157.38977 
L 439.4475 156.383126 
L 438.75 155.419948 
L 438.0525 154.503929 
L 437.355 153.638608 
L 436.6575 152.827357 
L 435.96 152.073367 
L 435.2625 151.379636 
L 434.565 150.748959 
L 433.8675 150.183913 
L 433.17 149.68685 
L 432.4725 149.259885 
L 431.775 148.904889 
L 431.0775 148.623479 
L 430.38 148.417014 
L 429.6825 148.286584 
L 428.985 148.233011 
L 428.2875 148.256838 
L 427.59 148.358332 
L 426.8925 148.537478 
L 426.195 148.793979 
L 425.4975 149.127255 
L 424.8 149.536446 
L 424.1025 150.020411 
L 423.405 150.577733 
L 422.7075 151.206723 
L 422.01 151.905424 
L 421.3125 152.671617 
L 420.615 153.50283 
L 419.9175 154.396343 
L 419.22 155.349199 
L 418.5225 156.358212 
L 417.825 157.419982 
L 417.1275 158.5309 
L 416.43 159.687166 
L 415.7325 160.884799 
L 415.035 162.119651 
L 414.3375 163.387424 
L 413.64 164.683681 
L 412.9425 166.003867 
L 412.245 167.343318 
L 411.5475 168.697286 
L 410.85 170.060949 
L 410.1525 171.429432 
L 409.455 172.797823 
L 408.7575 174.161191 
L 408.06 175.514607 
L 407.3625 176.853155 
L 406.665 178.171959 
L 405.9675 179.466193 
L 405.27 180.731102 
L 404.5725 181.962022 
L 403.875 183.154394 
L 403.1775 184.30378 
L 402.48 185.405884 
L 401.7825 186.456565 
L 401.085 187.451854 
L 400.3875 188.387967 
L 399.69 189.261324 
L 398.9925 190.068555 
L 398.295 190.806522 
L 397.5975 191.472326 
L 396.9 192.063318 
L 396.2025 192.577112 
L 395.505 193.011593 
L 394.8075 193.364927 
L 394.11 193.635567 
L 393.4125 193.82226 
L 392.715 193.924053 
L 392.0175 193.940298 
L 391.32 193.870654 
L 390.6225 193.71509 
L 389.925 193.473887 
L 389.2275 193.147635 
L 388.53 192.737236 
L 387.8325 192.243897 
L 387.135 191.669131 
L 386.4375 191.014751 
L 385.74 190.282862 
L 385.0425 189.475857 
L 384.345 188.596408 
L 383.6475 187.647459 
L 382.95 186.632211 
L 382.2525 185.554118 
L 381.555 184.41687 
L 380.8575 183.224382 
L 380.16 181.980782 
L 379.4625 180.690393 
L 378.765 179.357721 
L 378.0675 177.987438 
L 377.37 176.584366 
L 376.6725 175.153458 
L 375.975 173.699782 
L 375.2775 172.228505 
L 374.58 170.744868 
L 373.8825 169.254174 
L 373.185 167.761766 
L 372.4875 166.273007 
L 371.79 164.793262 
L 371.0925 163.327877 
L 370.395 161.882161 
L 369.6975 160.461366 
L 369 159.070668 
L 368.3025 157.715146 
L 367.605 156.399767 
L 366.9075 155.129365 
L 366.21 153.908623 
L 365.5125 152.742057 
L 364.815 151.633998 
L 364.1175 150.588578 
L 363.42 149.60971 
L 362.7225 148.701079 
L 362.025 147.866122 
L 361.3275 147.108021 
L 360.63 146.429686 
L 359.9325 145.833746 
L 359.235 145.322538 
L 358.5375 144.8981 
L 357.84 144.562159 
L 357.1425 144.316127 
L 356.445 144.161095 
L 355.7475 144.097826 
L 355.05 144.126755 
L 354.3525 144.247984 
L 353.655 144.461281 
L 352.9575 144.766082 
L 352.26 145.16149 
L 351.5625 145.64628 
L 350.865 146.218901 
L 350.1675 146.877481 
L 349.47 147.619833 
L 348.7725 148.443465 
L 348.075 149.345583 
L 347.3775 150.323107 
L 346.68 151.372676 
L 345.9825 152.490664 
L 345.285 153.673189 
L 344.5875 154.916128 
L 343.89 156.215134 
L 343.1925 157.565647 
L 342.495 158.962913 
L 341.7975 160.401999 
L 341.1 161.877815 
L 340.4025 163.385124 
L 339.705 164.918569 
L 339.0075 166.472689 
L 338.31 168.041936 
L 337.6125 169.6207 
L 336.915 171.203324 
L 336.2175 172.78413 
L 335.52 174.357435 
L 334.8225 175.917572 
L 334.125 177.458916 
L 333.4275 178.975896 
L 332.73 180.463023 
L 332.0325 181.914903 
L 331.335 183.326264 
L 330.6375 184.691971 
L 329.94 186.007043 
L 329.2425 187.266677 
L 328.545 188.466261 
L 327.8475 189.601394 
L 327.15 190.667898 
L 326.4525 191.66184 
L 325.755 192.579541 
L 325.0575 193.417591 
L 324.36 194.172865 
L 323.6625 194.84253 
L 322.965 195.424059 
L 322.2675 195.915239 
L 321.57 196.31418 
L 320.8725 196.619323 
L 320.175 196.829444 
L 319.4775 196.943662 
L 318.78 196.961439 
L 318.0825 196.882586 
L 317.385 196.707262 
L 316.6875 196.435974 
L 315.99 196.069575 
L 315.2925 195.609263 
L 314.595 195.056578 
L 313.8975 194.413393 
L 313.2 193.68191 
L 312.5025 192.864652 
L 311.805 191.964456 
L 311.1075 190.984459 
L 310.41 189.928093 
L 309.7125 188.799064 
L 309.015 187.60135 
L 308.3175 186.339177 
L 307.62 185.017009 
L 306.9225 183.639531 
L 306.225 182.211634 
L 305.5275 180.738393 
L 304.83 179.225054 
L 304.1325 177.67701 
L 303.435 176.099788 
L 302.7375 174.499022 
L 302.04 172.880439 
L 301.3425 171.249832 
L 300.645 169.613046 
L 299.9475 167.975951 
L 299.25 166.344425 
L 298.5525 164.724329 
L 297.855 163.121488 
L 297.1575 161.541671 
L 296.46 159.990567 
L 295.7625 158.473766 
L 295.065 156.996738 
L 294.3675 155.564816 
L 293.67 154.183172 
L 292.9725 152.856801 
L 292.275 151.590501 
L 291.5775 150.388859 
L 290.88 149.256229 
L 290.1825 148.196722 
L 289.485 147.214185 
L 288.7875 146.312192 
L 288.09 145.494028 
L 287.3925 144.762677 
L 286.695 144.120812 
L 285.9975 143.570784 
L 285.3 143.114617 
L 284.6025 142.753994 
L 283.905 142.490257 
L 283.2075 142.324397 
L 282.51 142.257055 
L 281.8125 142.288515 
L 281.115 142.418707 
L 280.4175 142.647202 
L 279.72 142.973221 
L 279.0225 143.395627 
L 278.325 143.912941 
L 277.6275 144.523338 
L 276.93 145.224658 
L 276.2325 146.014411 
L 275.535 146.88979 
L 274.8375 147.847676 
L 274.14 148.884654 
L 273.4425 149.997021 
L 272.745 151.180803 
L 272.0475 152.431766 
L 271.35 153.745434 
L 270.6525 155.117105 
L 269.955 156.541866 
L 269.2575 158.014612 
L 268.56 159.530064 
L 267.8625 161.082789 
L 267.165 162.667219 
L 266.4675 164.277671 
L 265.77 165.908368 
L 265.0725 167.55346 
L 264.375 169.207044 
L 263.6775 170.863187 
L 262.98 172.515947 
L 262.2825 174.159392 
L 261.585 175.787628 
L 260.8875 177.394811 
L 260.19 178.975178 
L 259.4925 180.523059 
L 258.795 182.032904 
L 258.0975 183.499301 
L 257.4 184.916993 
L 256.7025 186.280902 
L 256.005 187.586142 
L 255.3075 188.82804 
L 254.61 190.002155 
L 253.9125 191.104287 
L 253.215 192.130499 
L 252.5175 193.077127 
L 251.82 193.940796 
L 251.1225 194.718431 
L 250.425 195.407266 
L 249.7275 196.004859 
L 249.03 196.509094 
L 248.3325 196.918194 
L 247.635 197.230727 
L 246.9375 197.445606 
L 246.24 197.5621 
L 245.5425 197.57983 
L 244.845 197.498775 
L 244.1475 197.319268 
L 243.45 197.042 
L 242.7525 196.66801 
L 242.055 196.198687 
L 241.3575 195.635764 
L 240.66 194.981309 
L 239.9625 194.237718 
L 239.265 193.407709 
L 238.5675 192.494308 
L 237.87 191.500841 
L 237.1725 190.43092 
L 236.475 189.28843 
L 235.7775 188.077517 
L 235.08 186.802568 
L 234.3825 185.4682 
L 233.685 184.07924 
L 232.9875 182.640709 
L 232.29 181.157803 
L 231.5925 179.635874 
L 230.895 178.08041 
L 230.1975 176.497017 
L 229.5 174.891396 
L 228.8025 173.269325 
L 228.105 171.636635 
L 227.4075 169.999192 
L 226.71 168.362874 
L 226.0125 166.733548 
L 225.315 165.117053 
L 224.6175 163.519177 
L 223.92 161.945632 
L 223.2225 160.402041 
L 222.525 158.893911 
L 221.8275 157.426619 
L 221.13 156.005387 
L 220.4325 154.635266 
L 219.735 153.321119 
L 219.0375 152.067602 
L 218.34 150.879147 
L 217.6425 149.759947 
L 216.945 148.713942 
L 216.2475 147.744803 
L 215.55 146.85592 
L 214.8525 146.05039 
L 214.155 145.331006 
L 213.4575 144.700249 
L 212.76 144.160274 
L 212.0625 143.71291 
L 211.365 143.359648 
L 210.6675 143.10164 
L 209.97 142.93969 
L 209.2725 142.874258 
L 208.575 142.905454 
L 207.8775 143.03304 
L 207.18 143.256432 
L 206.4825 143.574699 
L 205.785 143.986571 
L 205.0875 144.490443 
L 204.39 145.08438 
L 203.6925 145.766124 
L 202.995 146.533106 
L 202.2975 147.382451 
L 201.6 148.310992 
L 200.9025 149.315284 
L 200.205 150.39161 
L 199.5075 151.536001 
L 198.81 152.744249 
L 198.1125 154.011921 
L 197.415 155.334379 
L 196.7175 156.706791 
L 196.02 158.124157 
L 195.3225 159.58132 
L 194.625 161.072988 
L 193.9275 162.593756 
L 193.23 164.138119 
L 192.5325 165.700499 
L 191.835 167.275262 
L 191.1375 168.856738 
L 190.44 170.439244 
L 189.7425 172.017102 
L 189.045 173.584661 
L 188.3475 175.136318 
L 187.65 176.666536 
L 186.9525 178.169867 
L 186.255 179.640967 
L 185.5575 181.074621 
L 184.86 182.465757 
L 184.1625 183.809467 
L 183.465 185.101023 
L 182.7675 186.335892 
L 182.07 187.509757 
L 181.3725 188.618529 
L 180.675 189.658359 
L 179.9775 190.625657 
L 179.28 191.517101 
L 178.5825 192.329648 
L 177.885 193.060547 
L 177.1875 193.707347 
L 176.49 194.267904 
L 175.7925 194.74039 
L 175.095 195.1233 
L 174.3975 195.415453 
L 173.7 195.615997 
L 173.0025 195.724416 
L 172.305 195.740524 
L 171.6075 195.664468 
L 170.91 195.496729 
L 170.2125 195.238117 
L 169.515 194.889767 
L 168.8175 194.453135 
L 168.12 193.929992 
L 167.4225 193.322418 
L 166.725 192.632791 
L 166.0275 191.86378 
L 165.33 191.018333 
L 164.6325 190.09967 
L 163.935 189.111261 
L 163.2375 188.056826 
L 162.54 186.940308 
L 161.8425 185.765869 
L 161.145 184.537865 
L 160.4475 183.260838 
L 159.75 181.939494 
L 159.0525 180.578685 
L 158.355 179.183396 
L 157.6575 177.758721 
L 156.96 176.309849 
L 156.2625 174.842039 
L 155.565 173.360609 
L 154.8675 171.870907 
L 154.17 170.378302 
L 153.4725 168.888154 
L 152.775 167.405802 
L 152.0775 165.936541 
L 151.38 164.485606 
L 150.6825 163.05815 
L 149.985 161.659227 
L 149.2875 160.293773 
L 148.59 158.966592 
L 147.8925 157.682331 
L 147.195 156.445475 
L 146.4975 155.260321 
L 145.8 154.130967 
L 145.1025 153.061298 
L 144.405 152.054974 
L 143.7075 151.115414 
L 143.01 150.245784 
L 142.3125 149.448992 
L 141.615 148.727671 
L 140.9175 148.084176 
L 140.22 147.520571 
L 139.5225 147.038628 
L 138.825 146.639818 
L 138.1275 146.325306 
L 137.43 146.095951 
L 136.7325 145.952301 
L 136.035 145.894593 
L 135.3375 145.922754 
L 134.64 146.036398 
L 133.9425 146.234836 
L 133.245 146.517073 
L 132.5475 146.881814 
L 131.85 147.327473 
L 131.1525 147.852176 
L 130.455 148.453769 
L 129.7575 149.129828 
L 129.06 149.877671 
L 128.3625 150.694364 
L 127.665 151.576733 
L 126.9675 152.521382 
L 126.27 153.524698 
L 125.5725 154.582873 
L 124.875 155.691911 
L 124.1775 156.847649 
L 123.48 158.045768 
L 122.7825 159.281815 
L 122.085 160.551213 
L 121.3875 161.849284 
L 120.69 163.171261 
L 119.9925 164.512312 
L 119.295 165.86755 
L 118.5975 167.23206 
L 117.9 168.600907 
L 117.2025 169.969163 
L 116.505 171.331921 
L 115.8075 172.684309 
L 115.11 174.021516 
L 114.4125 175.338802 
L 113.715 176.631519 
L 113.0175 177.895124 
L 112.32 179.1252 
L 111.6225 180.317468 
L 110.925 181.467801 
L 110.2275 182.572243 
L 109.53 183.627019 
L 108.8325 184.628547 
L 108.135 185.573456 
L 107.4375 186.458591 
L 106.74 187.281027 
L 106.0425 188.038078 
L 105.345 188.727304 
L 104.6475 189.346525 
L 103.95 189.893817 
L 103.2525 190.367531 
L 102.555 190.766287 
L 101.8575 191.088982 
L 101.16 191.334796 
L 100.4625 191.503186 
L 99.765 191.593897 
L 99.0675 191.60695 
L 98.37 191.542652 
L 97.6725 191.401586 
L 96.975 191.184609 
L 96.2775 190.89285 
L 95.58 190.527705 
L 94.8825 190.090826 
L 94.185 189.584119 
L 93.4875 189.009732 
L 92.79 188.370049 
L 92.0925 187.66768 
L 91.395 186.905446 
L 90.6975 186.086375 
L 90 185.213685 
z
" style="fill:#e0ffff;"/>
   </g>
   <g id="line2d_19">
    <path clip-path="url(#p176564f683)" d="M 90 185.213685 
L 92.0925 187.66768 
L 93.4875 189.009732 
L 94.8825 190.090826 
L 96.2775 190.89285 
L 97.6725 191.401586 
L 99.0675 191.60695 
L 100.4625 191.503186 
L 101.8575 191.088982 
L 103.2525 190.367531 
L 104.6475 189.346525 
L 106.0425 188.038078 
L 107.4375 186.458591 
L 109.53 183.627019 
L 111.6225 180.317468 
L 114.4125 175.338802 
L 118.5975 167.23206 
L 122.7825 159.281815 
L 124.875 155.691911 
L 126.9675 152.521382 
L 128.3625 150.694364 
L 129.7575 149.129828 
L 131.1525 147.852176 
L 132.5475 146.881814 
L 133.9425 146.234836 
L 135.3375 145.922754 
L 136.7325 145.952301 
L 138.1275 146.325306 
L 139.5225 147.038628 
L 140.9175 148.084176 
L 142.3125 149.448992 
L 143.7075 151.115414 
L 145.1025 153.061298 
L 147.195 156.445475 
L 149.2875 160.293773 
L 152.0775 165.936541 
L 159.75 181.939494 
L 161.8425 185.765869 
L 163.935 189.111261 
L 165.33 191.018333 
L 166.725 192.632791 
L 168.12 193.929992 
L 169.515 194.889767 
L 170.91 195.496729 
L 172.305 195.740524 
L 173.7 195.615997 
L 175.095 195.1233 
L 176.49 194.267904 
L 177.885 193.060547 
L 179.28 191.517101 
L 180.675 189.658359 
L 182.07 187.509757 
L 184.1625 183.809467 
L 186.255 179.640967 
L 189.045 173.584661 
L 196.02 158.124157 
L 198.1125 154.011921 
L 200.205 150.39161 
L 201.6 148.310992 
L 202.995 146.533106 
L 204.39 145.08438 
L 205.785 143.986571 
L 207.18 143.256432 
L 208.575 142.905454 
L 209.97 142.93969 
L 211.365 143.359648 
L 212.76 144.160274 
L 214.155 145.331006 
L 215.55 146.85592 
L 216.945 148.713942 
L 218.34 150.879147 
L 220.4325 154.635266 
L 222.525 158.893911 
L 225.315 165.117053 
L 232.9875 182.640709 
L 235.08 186.802568 
L 237.1725 190.43092 
L 238.5675 192.494308 
L 239.9625 194.237718 
L 241.3575 195.635764 
L 242.7525 196.66801 
L 244.1475 197.319268 
L 245.5425 197.57983 
L 246.9375 197.445606 
L 248.3325 196.918194 
L 249.7275 196.004859 
L 251.1225 194.718431 
L 252.5175 193.077127 
L 253.9125 191.104287 
L 255.3075 188.82804 
L 257.4 184.916993 
L 259.4925 180.523059 
L 262.98 172.515947 
L 268.56 159.530064 
L 270.6525 155.117105 
L 272.745 151.180803 
L 274.8375 147.847676 
L 276.2325 146.014411 
L 277.6275 144.523338 
L 279.0225 143.395627 
L 280.4175 142.647202 
L 281.8125 142.288515 
L 283.2075 142.324397 
L 284.6025 142.753994 
L 285.9975 143.570784 
L 287.3925 144.762677 
L 288.7875 146.312192 
L 290.1825 148.196722 
L 291.5775 150.388859 
L 293.67 154.183172 
L 295.7625 158.473766 
L 298.5525 164.724329 
L 305.5275 180.738393 
L 307.62 185.017009 
L 309.7125 188.799064 
L 311.1075 190.984459 
L 312.5025 192.864652 
L 313.8975 194.413393 
L 315.2925 195.609263 
L 316.6875 196.435974 
L 318.0825 196.882586 
L 319.4775 196.943662 
L 320.8725 196.619323 
L 322.2675 195.915239 
L 323.6625 194.84253 
L 325.0575 193.417591 
L 326.4525 191.66184 
L 327.8475 189.601394 
L 329.94 186.007043 
L 332.0325 181.914903 
L 334.8225 175.917572 
L 342.495 158.962913 
L 344.5875 154.916128 
L 346.68 151.372676 
L 348.075 149.345583 
L 349.47 147.619833 
L 350.865 146.218901 
L 352.26 145.16149 
L 353.655 144.461281 
L 355.05 144.126755 
L 356.445 144.161095 
L 357.84 144.562159 
L 359.235 145.322538 
L 360.63 146.429686 
L 362.025 147.866122 
L 363.42 149.60971 
L 364.815 151.633998 
L 366.9075 155.129365 
L 369 159.070668 
L 371.79 164.793262 
L 378.765 179.357721 
L 380.8575 183.224382 
L 382.95 186.632211 
L 384.345 188.596408 
L 385.74 190.282862 
L 387.135 191.669131 
L 388.53 192.737236 
L 389.925 193.473887 
L 391.32 193.870654 
L 392.715 193.924053 
L 394.11 193.635567 
L 395.505 193.011593 
L 396.9 192.063318 
L 398.295 190.806522 
L 399.69 189.261324 
L 401.085 187.451854 
L 403.1775 184.30378 
L 405.27 180.731102 
L 408.06 175.514607 
L 415.035 162.119651 
L 417.1275 158.5309 
L 419.22 155.349199 
L 421.3125 152.671617 
L 422.7075 151.206723 
L 424.1025 150.020411 
L 425.4975 149.127255 
L 426.8925 148.537478 
L 428.2875 148.256838 
L 429.6825 148.286584 
L 431.0775 148.623479 
L 432.4725 149.259885 
L 433.8675 150.183913 
L 435.2625 151.379636 
L 436.6575 152.827357 
L 438.75 155.419948 
L 440.8425 158.43605 
L 443.6325 162.936849 
L 452.7 178.212155 
L 454.7925 181.206452 
L 456.885 183.791662 
L 458.28 185.249635 
L 459.675 186.473231 
L 461.07 187.447639 
L 462.465 188.161818 
L 463.86 188.60862 
L 465.255 188.784848 
L 466.65 188.691255 
L 468.045 188.33249 
L 469.44 187.716981 
L 470.835 186.856768 
L 472.23 185.767282 
L 474.3225 183.744532 
L 476.415 181.322455 
L 479.205 177.621142 
L 483.39 171.52142 
L 487.575 165.477481 
L 490.365 161.858638 
L 492.4575 159.502413 
L 494.55 157.530246 
L 495.945 156.456369 
L 497.34 155.590086 
L 498.735 154.940547 
L 500.13 154.513607 
L 501.525 154.311788 
L 502.92 154.334298 
L 504.315 154.577089 
L 505.71 155.032973 
L 507.105 155.691777 
L 508.5 156.540542 
L 510.5925 158.135312 
L 512.685 160.060439 
L 515.475 163.017811 
L 519.66 167.910693 
L 523.845 172.772305 
L 526.635 175.690931 
L 528.7275 177.597512 
L 530.82 179.201505 
L 532.9125 180.460885 
L 534.3075 181.093974 
L 535.7025 181.555136 
L 537.0975 181.841584 
L 538.4925 181.953173 
L 539.8875 181.892341 
L 541.2825 181.664022 
L 542.6775 181.27551 
L 544.77 180.413713 
L 546.8625 179.253614 
L 548.955 177.843934 
L 551.745 175.672199 
L 556.6275 171.471116 
L 560.8125 167.962275 
L 563.6025 165.902663 
L 565.695 164.581275 
L 567.7875 163.489758 
L 569.88 162.65268 
L 571.9725 162.084829 
L 574.065 161.791122 
L 576.1575 161.766869 
L 578.25 161.998384 
L 580.3425 162.463882 
L 582.435 163.134654 
L 585.225 164.288488 
L 588.7125 166.017331 
L 597.78 170.716535 
L 600.57 171.892428 
L 603.36 172.834518 
L 606.15 173.511934 
L 608.94 173.91462 
L 611.73 174.052298 
L 614.52 173.952046 
L 618.0075 173.555419 
L 622.1925 172.814689 
L 632.655 170.818543 
L 636.84 170.303646 
L 641.025 170.020626 
L 645.9075 169.921584 
L 646.605 169.92 
L 646.605 169.92 
" style="fill:none;stroke:#008080;stroke-linecap:round;stroke-width:1.75;"/>
   </g>
   <g id="patch_3">
    <path d="M 90 270.72 
L 90 69.12 
" style="fill:none;stroke:#262626;stroke-linecap:square;stroke-linejoin:miter;stroke-width:1.25;"/>
   </g>
   <g id="patch_4">
    <path d="M 90 270.72 
L 648 270.72 
" style="fill:none;stroke:#262626;stroke-linecap:square;stroke-linejoin:miter;stroke-width:1.25;"/>
   </g>
  </g>
  <g id="axes_2">
   <g id="patch_5">
    <path d="M 90 512.64 
L 648 512.64 
L 648 311.04 
L 90 311.04 
z
" style="fill:#ffffff;"/>
   </g>
   <g id="matplotlib.axis_3">
    <g id="xtick_10">
     <g id="line2d_20">
      <g>
       <use style="fill:#262626;stroke:#262626;" x="190.44" xlink:href="#m6832aba550" y="512.64"/>
      </g>
     </g>
     <g id="text_19">
      <!-- 200 -->
      <g style="fill:#262626;" transform="translate(182.098594 532.797812)scale(0.1 -0.1)">
       <use xlink:href="#ArialMT-32"/>
       <use x="55.615234" xlink:href="#ArialMT-30"/>
       <use x="111.230469" xlink:href="#ArialMT-30"/>
      </g>
     </g>
    </g>
    <g id="xtick_11">
     <g id="line2d_21">
      <g>
       <use style="fill:#262626;stroke:#262626;" x="302.04" xlink:href="#m6832aba550" y="512.64"/>
      </g>
     </g>
     <g id="text_20">
      <!-- 400 -->
      <g style="fill:#262626;" transform="translate(293.698594 532.797812)scale(0.1 -0.1)">
       <use xlink:href="#ArialMT-34"/>
       <use x="55.615234" xlink:href="#ArialMT-30"/>
       <use x="111.230469" xlink:href="#ArialMT-30"/>
      </g>
     </g>
    </g>
    <g id="xtick_12">
     <g id="line2d_22">
      <g>
       <use style="fill:#262626;stroke:#262626;" x="413.64" xlink:href="#m6832aba550" y="512.64"/>
      </g>
     </g>
     <g id="text_21">
      <!-- 600 -->
      <g style="fill:#262626;" transform="translate(405.298594 532.797812)scale(0.1 -0.1)">
       <use xlink:href="#ArialMT-36"/>
       <use x="55.615234" xlink:href="#ArialMT-30"/>
       <use x="111.230469" xlink:href="#ArialMT-30"/>
      </g>
     </g>
    </g>
    <g id="xtick_13">
     <g id="line2d_23">
      <g>
       <use style="fill:#262626;stroke:#262626;" x="525.24" xlink:href="#m6832aba550" y="512.64"/>
      </g>
     </g>
     <g id="text_22">
      <!-- 800 -->
      <g style="fill:#262626;" transform="translate(516.898594 532.797812)scale(0.1 -0.1)">
       <use xlink:href="#ArialMT-38"/>
       <use x="55.615234" xlink:href="#ArialMT-30"/>
       <use x="111.230469" xlink:href="#ArialMT-30"/>
      </g>
     </g>
    </g>
    <g id="xtick_14">
     <g id="line2d_24">
      <g>
       <use style="fill:#262626;stroke:#262626;" x="636.84" xlink:href="#m6832aba550" y="512.64"/>
      </g>
     </g>
     <g id="text_23">
      <!-- 1000 -->
      <g style="fill:#262626;" transform="translate(625.718125 532.797812)scale(0.1 -0.1)">
       <use xlink:href="#ArialMT-31"/>
       <use x="55.615234" xlink:href="#ArialMT-30"/>
       <use x="111.230469" xlink:href="#ArialMT-30"/>
       <use x="166.845703" xlink:href="#ArialMT-30"/>
      </g>
     </g>
    </g>
   </g>
   <g id="matplotlib.axis_4">
    <g id="ytick_10">
     <g id="line2d_25">
      <g>
       <use style="fill:#262626;stroke:#262626;" x="90" xlink:href="#md00ba5a9a8" y="512.64"/>
      </g>
     </g>
     <g id="text_24">
      <!-- 0 -->
      <g style="fill:#262626;" transform="translate(71.439063 516.218906)scale(0.1 -0.1)">
       <use xlink:href="#ArialMT-30"/>
      </g>
     </g>
    </g>
    <g id="ytick_11">
     <g id="line2d_26">
      <g>
       <use style="fill:#262626;stroke:#262626;" x="90" xlink:href="#md00ba5a9a8" y="483.84"/>
      </g>
     </g>
     <g id="text_25">
      <!-- 10 -->
      <g style="fill:#262626;" transform="translate(65.878125 487.418906)scale(0.1 -0.1)">
       <use xlink:href="#ArialMT-31"/>
       <use x="55.615234" xlink:href="#ArialMT-30"/>
      </g>
     </g>
    </g>
    <g id="ytick_12">
     <g id="line2d_27">
      <g>
       <use style="fill:#262626;stroke:#262626;" x="90" xlink:href="#md00ba5a9a8" y="455.04"/>
      </g>
     </g>
     <g id="text_26">
      <!-- 20 -->
      <g style="fill:#262626;" transform="translate(65.878125 458.618906)scale(0.1 -0.1)">
       <use xlink:href="#ArialMT-32"/>
       <use x="55.615234" xlink:href="#ArialMT-30"/>
      </g>
     </g>
    </g>
    <g id="ytick_13">
     <g id="line2d_28">
      <g>
       <use style="fill:#262626;stroke:#262626;" x="90" xlink:href="#md00ba5a9a8" y="426.24"/>
      </g>
     </g>
     <g id="text_27">
      <!-- 30 -->
      <g style="fill:#262626;" transform="translate(65.878125 429.818906)scale(0.1 -0.1)">
       <use xlink:href="#ArialMT-33"/>
       <use x="55.615234" xlink:href="#ArialMT-30"/>
      </g>
     </g>
    </g>
    <g id="ytick_14">
     <g id="line2d_29">
      <g>
       <use style="fill:#262626;stroke:#262626;" x="90" xlink:href="#md00ba5a9a8" y="397.44"/>
      </g>
     </g>
     <g id="text_28">
      <!-- 40 -->
      <g style="fill:#262626;" transform="translate(65.878125 401.018906)scale(0.1 -0.1)">
       <use xlink:href="#ArialMT-34"/>
       <use x="55.615234" xlink:href="#ArialMT-30"/>
      </g>
     </g>
    </g>
    <g id="ytick_15">
     <g id="line2d_30">
      <g>
       <use style="fill:#262626;stroke:#262626;" x="90" xlink:href="#md00ba5a9a8" y="368.64"/>
      </g>
     </g>
     <g id="text_29">
      <!-- 50 -->
      <g style="fill:#262626;" transform="translate(65.878125 372.218906)scale(0.1 -0.1)">
       <use xlink:href="#ArialMT-35"/>
       <use x="55.615234" xlink:href="#ArialMT-30"/>
      </g>
     </g>
    </g>
    <g id="ytick_16">
     <g id="line2d_31">
      <g>
       <use style="fill:#262626;stroke:#262626;" x="90" xlink:href="#md00ba5a9a8" y="339.84"/>
      </g>
     </g>
     <g id="text_30">
      <!-- 60 -->
      <g style="fill:#262626;" transform="translate(65.878125 343.418906)scale(0.1 -0.1)">
       <use xlink:href="#ArialMT-36"/>
       <use x="55.615234" xlink:href="#ArialMT-30"/>
      </g>
     </g>
    </g>
    <g id="ytick_17">
     <g id="line2d_32">
      <g>
       <use style="fill:#262626;stroke:#262626;" x="90" xlink:href="#md00ba5a9a8" y="311.04"/>
      </g>
     </g>
     <g id="text_31">
      <!-- 70 -->
      <g style="fill:#262626;" transform="translate(65.878125 314.618906)scale(0.1 -0.1)">
       <use xlink:href="#ArialMT-37"/>
       <use x="55.615234" xlink:href="#ArialMT-30"/>
      </g>
     </g>
    </g>
   </g>
   <g id="line2d_33">
    <path clip-path="url(#p742ce04473)" d="M 90 495.208 
L 101.16 496.246355 
L 112.32 497.676438 
L 123.48 496.773624 
L 134.64 495.319457 
L 145.8 494.970857 
L 156.96 496.496469 
L 168.12 493.948302 
L 179.28 491.922563 
L 190.44 492.701338 
L 201.6 493.08264 
L 212.76 488.265624 
L 223.92 486.884007 
L 235.08 484.919609 
L 246.24 481.076037 
L 257.4 476.781513 
L 268.56 466.885099 
L 279.72 461.735001 
L 290.88 446.632864 
L 302.04 392.641353 
" style="fill:none;stroke:#b22222;stroke-linecap:round;stroke-width:1.75;"/>
   </g>
   <g id="patch_6">
    <path d="M 90 512.64 
L 90 311.04 
" style="fill:none;stroke:#262626;stroke-linecap:square;stroke-linejoin:miter;stroke-width:1.25;"/>
   </g>
   <g id="patch_7">
    <path d="M 90 512.64 
L 648 512.64 
" style="fill:none;stroke:#262626;stroke-linecap:square;stroke-linejoin:miter;stroke-width:1.25;"/>
   </g>
   <g id="text_32">
    <!-- f = 400 -->
    <defs>
     <path d="M 8.6875 0 
L 8.6875 45.015625 
L 0.921875 45.015625 
L 0.921875 51.859375 
L 8.6875 51.859375 
L 8.6875 57.375 
Q 8.6875 62.59375 9.625 65.140625 
Q 10.890625 68.5625 14.078125 70.671875 
Q 17.28125 72.796875 23.046875 72.796875 
Q 26.765625 72.796875 31.25 71.921875 
L 29.9375 64.265625 
Q 27.203125 64.75 24.75 64.75 
Q 20.75 64.75 19.09375 63.03125 
Q 17.4375 61.328125 17.4375 56.640625 
L 17.4375 51.859375 
L 27.546875 51.859375 
L 27.546875 45.015625 
L 17.4375 45.015625 
L 17.4375 0 
z
" id="ArialMT-66"/>
     <path id="ArialMT-20"/>
     <path d="M 52.828125 42.09375 
L 5.5625 42.09375 
L 5.5625 50.296875 
L 52.828125 50.296875 
z
M 52.828125 20.359375 
L 5.5625 20.359375 
L 5.5625 28.5625 
L 52.828125 28.5625 
z
" id="ArialMT-3d"/>
    </defs>
    <g style="fill:#262626;" transform="translate(525.24 371.742188)scale(0.12 -0.12)">
     <use xlink:href="#ArialMT-66"/>
     <use x="27.783203" xlink:href="#ArialMT-20"/>
     <use x="55.566406" xlink:href="#ArialMT-3d"/>
     <use x="113.964844" xlink:href="#ArialMT-20"/>
     <use x="141.748047" xlink:href="#ArialMT-34"/>
     <use x="197.363281" xlink:href="#ArialMT-30"/>
     <use x="252.978516" xlink:href="#ArialMT-30"/>
    </g>
   </g>
   <g id="PathCollection_1">
    <defs>
     <path d="M 0 3.5 
C 0.928211 3.5 1.81853 3.131218 2.474874 2.474874 
C 3.131218 1.81853 3.5 0.928211 3.5 0 
C 3.5 -0.928211 3.131218 -1.81853 2.474874 -2.474874 
C 1.81853 -3.131218 0.928211 -3.5 0 -3.5 
C -0.928211 -3.5 -1.81853 -3.131218 -2.474874 -2.474874 
C -3.131218 -1.81853 -3.5 -0.928211 -3.5 0 
C -3.5 0.928211 -3.131218 1.81853 -2.474874 2.474874 
C -1.81853 3.131218 -0.928211 3.5 0 3.5 
z
" id="mc4edc25b33" style="stroke:#800000;stroke-width:0.3;"/>
    </defs>
    <g clip-path="url(#p742ce04473)">
     <use style="fill:#800000;stroke:#800000;stroke-width:0.3;" x="302.04" xlink:href="#mc4edc25b33" y="392.641353"/>
    </g>
   </g>
  </g>
 </g>
 <defs>
  <clipPath id="p176564f683">
   <rect height="201.6" width="558" x="90" y="69.12"/>
  </clipPath>
  <clipPath id="p742ce04473">
   <rect height="201.6" width="558" x="90" y="311.04"/>
  </clipPath>
 </defs>
</svg>
