<?xml version="1.0" encoding="utf-8" standalone="no"?>
<!DOCTYPE svg PUBLIC "-//W3C//DTD SVG 1.1//EN"
  "http://www.w3.org/Graphics/SVG/1.1/DTD/svg11.dtd">
<!-- Created with matplotlib (http://matplotlib.org/) -->
<svg height="576pt" version="1.1" viewBox="0 0 720 576" width="720pt" xmlns="http://www.w3.org/2000/svg" xmlns:xlink="http://www.w3.org/1999/xlink">
 <defs>
  <style type="text/css">
*{stroke-linecap:butt;stroke-linejoin:round;}
  </style>
 </defs>
 <g id="figure_1">
  <g id="patch_1">
   <path d="M 0 576 
L 720 576 
L 720 0 
L 0 0 
z
" style="fill:#ffffff;"/>
  </g>
  <g id="axes_1">
   <g id="patch_2">
    <path d="M 90 270.72 
L 648 270.72 
L 648 69.12 
L 90 69.12 
z
" style="fill:#ffffff;"/>
   </g>
   <g id="matplotlib.axis_1">
    <g id="xtick_1">
     <g id="line2d_1">
      <defs>
       <path d="M 0 0 
L 0 6 
" id="m670a7cdbab" style="stroke:#262626;"/>
      </defs>
      <g>
       <use style="fill:#262626;stroke:#262626;" x="90" xlink:href="#m670a7cdbab" y="270.72"/>
      </g>
     </g>
     <g id="text_1">
      <!-- 0 -->
      <defs>
       <path d="M 4.15625 35.296875 
Q 4.15625 48 6.765625 55.734375 
Q 9.375 63.484375 14.515625 67.671875 
Q 19.671875 71.875 27.484375 71.875 
Q 33.25 71.875 37.59375 69.546875 
Q 41.9375 67.234375 44.765625 62.859375 
Q 47.609375 58.5 49.21875 52.21875 
Q 50.828125 45.953125 50.828125 35.296875 
Q 50.828125 22.703125 48.234375 14.96875 
Q 45.65625 7.234375 40.5 3 
Q 35.359375 -1.21875 27.484375 -1.21875 
Q 17.140625 -1.21875 11.234375 6.203125 
Q 4.15625 15.140625 4.15625 35.296875 
z
M 13.1875 35.296875 
Q 13.1875 17.671875 17.3125 11.828125 
Q 21.4375 6 27.484375 6 
Q 33.546875 6 37.671875 11.859375 
Q 41.796875 17.71875 41.796875 35.296875 
Q 41.796875 52.984375 37.671875 58.78125 
Q 33.546875 64.59375 27.390625 64.59375 
Q 21.34375 64.59375 17.71875 59.46875 
Q 13.1875 52.9375 13.1875 35.296875 
z
" id="ArialMT-30"/>
      </defs>
      <g style="fill:#262626;" transform="translate(87.219531 290.877812)scale(0.1 -0.1)">
       <use xlink:href="#ArialMT-30"/>
      </g>
     </g>
    </g>
    <g id="xtick_2">
     <g id="line2d_2">
      <g>
       <use style="fill:#262626;stroke:#262626;" x="159.75" xlink:href="#m670a7cdbab" y="270.72"/>
      </g>
     </g>
     <g id="text_2">
      <!-- 100 -->
      <defs>
       <path d="M 37.25 0 
L 28.46875 0 
L 28.46875 56 
Q 25.296875 52.984375 20.140625 49.953125 
Q 14.984375 46.921875 10.890625 45.40625 
L 10.890625 53.90625 
Q 18.265625 57.375 23.78125 62.296875 
Q 29.296875 67.234375 31.59375 71.875 
L 37.25 71.875 
z
" id="ArialMT-31"/>
      </defs>
      <g style="fill:#262626;" transform="translate(151.408594 290.877812)scale(0.1 -0.1)">
       <use xlink:href="#ArialMT-31"/>
       <use x="55.615234" xlink:href="#ArialMT-30"/>
       <use x="111.230469" xlink:href="#ArialMT-30"/>
      </g>
     </g>
    </g>
    <g id="xtick_3">
     <g id="line2d_3">
      <g>
       <use style="fill:#262626;stroke:#262626;" x="229.5" xlink:href="#m670a7cdbab" y="270.72"/>
      </g>
     </g>
     <g id="text_3">
      <!-- 200 -->
      <defs>
       <path d="M 50.34375 8.453125 
L 50.34375 0 
L 3.03125 0 
Q 2.9375 3.171875 4.046875 6.109375 
Q 5.859375 10.9375 9.828125 15.625 
Q 13.8125 20.3125 21.34375 26.46875 
Q 33.015625 36.03125 37.109375 41.625 
Q 41.21875 47.21875 41.21875 52.203125 
Q 41.21875 57.421875 37.46875 61 
Q 33.734375 64.59375 27.734375 64.59375 
Q 21.390625 64.59375 17.578125 60.78125 
Q 13.765625 56.984375 13.71875 50.25 
L 4.6875 51.171875 
Q 5.609375 61.28125 11.65625 66.578125 
Q 17.71875 71.875 27.9375 71.875 
Q 38.234375 71.875 44.234375 66.15625 
Q 50.25 60.453125 50.25 52 
Q 50.25 47.703125 48.484375 43.546875 
Q 46.734375 39.40625 42.65625 34.8125 
Q 38.578125 30.21875 29.109375 22.21875 
Q 21.1875 15.578125 18.9375 13.203125 
Q 16.703125 10.84375 15.234375 8.453125 
z
" id="ArialMT-32"/>
      </defs>
      <g style="fill:#262626;" transform="translate(221.158594 290.877812)scale(0.1 -0.1)">
       <use xlink:href="#ArialMT-32"/>
       <use x="55.615234" xlink:href="#ArialMT-30"/>
       <use x="111.230469" xlink:href="#ArialMT-30"/>
      </g>
     </g>
    </g>
    <g id="xtick_4">
     <g id="line2d_4">
      <g>
       <use style="fill:#262626;stroke:#262626;" x="299.25" xlink:href="#m670a7cdbab" y="270.72"/>
      </g>
     </g>
     <g id="text_4">
      <!-- 300 -->
      <defs>
       <path d="M 4.203125 18.890625 
L 12.984375 20.0625 
Q 14.5 12.59375 18.140625 9.296875 
Q 21.78125 6 27 6 
Q 33.203125 6 37.46875 10.296875 
Q 41.75 14.59375 41.75 20.953125 
Q 41.75 27 37.796875 30.921875 
Q 33.84375 34.859375 27.734375 34.859375 
Q 25.25 34.859375 21.53125 33.890625 
L 22.515625 41.609375 
Q 23.390625 41.5 23.921875 41.5 
Q 29.546875 41.5 34.03125 44.421875 
Q 38.53125 47.359375 38.53125 53.46875 
Q 38.53125 58.296875 35.25 61.46875 
Q 31.984375 64.65625 26.8125 64.65625 
Q 21.6875 64.65625 18.265625 61.421875 
Q 14.84375 58.203125 13.875 51.765625 
L 5.078125 53.328125 
Q 6.6875 62.15625 12.390625 67.015625 
Q 18.109375 71.875 26.609375 71.875 
Q 32.46875 71.875 37.390625 69.359375 
Q 42.328125 66.84375 44.9375 62.5 
Q 47.5625 58.15625 47.5625 53.265625 
Q 47.5625 48.640625 45.0625 44.828125 
Q 42.578125 41.015625 37.703125 38.765625 
Q 44.046875 37.3125 47.5625 32.6875 
Q 51.078125 28.078125 51.078125 21.140625 
Q 51.078125 11.765625 44.234375 5.25 
Q 37.40625 -1.265625 26.953125 -1.265625 
Q 17.53125 -1.265625 11.296875 4.34375 
Q 5.078125 9.96875 4.203125 18.890625 
z
" id="ArialMT-33"/>
      </defs>
      <g style="fill:#262626;" transform="translate(290.908594 290.877812)scale(0.1 -0.1)">
       <use xlink:href="#ArialMT-33"/>
       <use x="55.615234" xlink:href="#ArialMT-30"/>
       <use x="111.230469" xlink:href="#ArialMT-30"/>
      </g>
     </g>
    </g>
    <g id="xtick_5">
     <g id="line2d_5">
      <g>
       <use style="fill:#262626;stroke:#262626;" x="369" xlink:href="#m670a7cdbab" y="270.72"/>
      </g>
     </g>
     <g id="text_5">
      <!-- 400 -->
      <defs>
       <path d="M 32.328125 0 
L 32.328125 17.140625 
L 1.265625 17.140625 
L 1.265625 25.203125 
L 33.9375 71.578125 
L 41.109375 71.578125 
L 41.109375 25.203125 
L 50.78125 25.203125 
L 50.78125 17.140625 
L 41.109375 17.140625 
L 41.109375 0 
z
M 32.328125 25.203125 
L 32.328125 57.46875 
L 9.90625 25.203125 
z
" id="ArialMT-34"/>
      </defs>
      <g style="fill:#262626;" transform="translate(360.658594 290.877812)scale(0.1 -0.1)">
       <use xlink:href="#ArialMT-34"/>
       <use x="55.615234" xlink:href="#ArialMT-30"/>
       <use x="111.230469" xlink:href="#ArialMT-30"/>
      </g>
     </g>
    </g>
    <g id="xtick_6">
     <g id="line2d_6">
      <g>
       <use style="fill:#262626;stroke:#262626;" x="438.75" xlink:href="#m670a7cdbab" y="270.72"/>
      </g>
     </g>
     <g id="text_6">
      <!-- 500 -->
      <defs>
       <path d="M 4.15625 18.75 
L 13.375 19.53125 
Q 14.40625 12.796875 18.140625 9.390625 
Q 21.875 6 27.15625 6 
Q 33.5 6 37.890625 10.78125 
Q 42.28125 15.578125 42.28125 23.484375 
Q 42.28125 31 38.0625 35.34375 
Q 33.84375 39.703125 27 39.703125 
Q 22.75 39.703125 19.328125 37.765625 
Q 15.921875 35.84375 13.96875 32.765625 
L 5.71875 33.84375 
L 12.640625 70.609375 
L 48.25 70.609375 
L 48.25 62.203125 
L 19.671875 62.203125 
L 15.828125 42.96875 
Q 22.265625 47.46875 29.34375 47.46875 
Q 38.71875 47.46875 45.15625 40.96875 
Q 51.609375 34.46875 51.609375 24.265625 
Q 51.609375 14.546875 45.953125 7.46875 
Q 39.0625 -1.21875 27.15625 -1.21875 
Q 17.390625 -1.21875 11.203125 4.25 
Q 5.03125 9.71875 4.15625 18.75 
z
" id="ArialMT-35"/>
      </defs>
      <g style="fill:#262626;" transform="translate(430.408594 290.877812)scale(0.1 -0.1)">
       <use xlink:href="#ArialMT-35"/>
       <use x="55.615234" xlink:href="#ArialMT-30"/>
       <use x="111.230469" xlink:href="#ArialMT-30"/>
      </g>
     </g>
    </g>
    <g id="xtick_7">
     <g id="line2d_7">
      <g>
       <use style="fill:#262626;stroke:#262626;" x="508.5" xlink:href="#m670a7cdbab" y="270.72"/>
      </g>
     </g>
     <g id="text_7">
      <!-- 600 -->
      <defs>
       <path d="M 49.75 54.046875 
L 41.015625 53.375 
Q 39.84375 58.546875 37.703125 60.890625 
Q 34.125 64.65625 28.90625 64.65625 
Q 24.703125 64.65625 21.53125 62.3125 
Q 17.390625 59.28125 14.984375 53.46875 
Q 12.59375 47.65625 12.5 36.921875 
Q 15.671875 41.75 20.265625 44.09375 
Q 24.859375 46.4375 29.890625 46.4375 
Q 38.671875 46.4375 44.84375 39.96875 
Q 51.03125 33.5 51.03125 23.25 
Q 51.03125 16.5 48.125 10.71875 
Q 45.21875 4.9375 40.140625 1.859375 
Q 35.0625 -1.21875 28.609375 -1.21875 
Q 17.625 -1.21875 10.6875 6.859375 
Q 3.765625 14.9375 3.765625 33.5 
Q 3.765625 54.25 11.421875 63.671875 
Q 18.109375 71.875 29.4375 71.875 
Q 37.890625 71.875 43.28125 67.140625 
Q 48.6875 62.40625 49.75 54.046875 
z
M 13.875 23.1875 
Q 13.875 18.65625 15.796875 14.5 
Q 17.71875 10.359375 21.1875 8.171875 
Q 24.65625 6 28.46875 6 
Q 34.03125 6 38.03125 10.484375 
Q 42.046875 14.984375 42.046875 22.703125 
Q 42.046875 30.125 38.078125 34.390625 
Q 34.125 38.671875 28.125 38.671875 
Q 22.171875 38.671875 18.015625 34.390625 
Q 13.875 30.125 13.875 23.1875 
z
" id="ArialMT-36"/>
      </defs>
      <g style="fill:#262626;" transform="translate(500.158594 290.877812)scale(0.1 -0.1)">
       <use xlink:href="#ArialMT-36"/>
       <use x="55.615234" xlink:href="#ArialMT-30"/>
       <use x="111.230469" xlink:href="#ArialMT-30"/>
      </g>
     </g>
    </g>
    <g id="xtick_8">
     <g id="line2d_8">
      <g>
       <use style="fill:#262626;stroke:#262626;" x="578.25" xlink:href="#m670a7cdbab" y="270.72"/>
      </g>
     </g>
     <g id="text_8">
      <!-- 700 -->
      <defs>
       <path d="M 4.734375 62.203125 
L 4.734375 70.65625 
L 51.078125 70.65625 
L 51.078125 63.8125 
Q 44.234375 56.546875 37.515625 44.484375 
Q 30.8125 32.421875 27.15625 19.671875 
Q 24.515625 10.6875 23.78125 0 
L 14.75 0 
Q 14.890625 8.453125 18.0625 20.40625 
Q 21.234375 32.375 27.171875 43.484375 
Q 33.109375 54.59375 39.796875 62.203125 
z
" id="ArialMT-37"/>
      </defs>
      <g style="fill:#262626;" transform="translate(569.908594 290.877812)scale(0.1 -0.1)">
       <use xlink:href="#ArialMT-37"/>
       <use x="55.615234" xlink:href="#ArialMT-30"/>
       <use x="111.230469" xlink:href="#ArialMT-30"/>
      </g>
     </g>
    </g>
    <g id="xtick_9">
     <g id="line2d_9">
      <g>
       <use style="fill:#262626;stroke:#262626;" x="648" xlink:href="#m670a7cdbab" y="270.72"/>
      </g>
     </g>
     <g id="text_9">
      <!-- 800 -->
      <defs>
       <path d="M 17.671875 38.8125 
Q 12.203125 40.828125 9.5625 44.53125 
Q 6.9375 48.25 6.9375 53.421875 
Q 6.9375 61.234375 12.546875 66.546875 
Q 18.171875 71.875 27.484375 71.875 
Q 36.859375 71.875 42.578125 66.421875 
Q 48.296875 60.984375 48.296875 53.171875 
Q 48.296875 48.1875 45.671875 44.5 
Q 43.0625 40.828125 37.75 38.8125 
Q 44.34375 36.671875 47.78125 31.875 
Q 51.21875 27.09375 51.21875 20.453125 
Q 51.21875 11.28125 44.71875 5.03125 
Q 38.234375 -1.21875 27.640625 -1.21875 
Q 17.046875 -1.21875 10.546875 5.046875 
Q 4.046875 11.328125 4.046875 20.703125 
Q 4.046875 27.6875 7.59375 32.390625 
Q 11.140625 37.109375 17.671875 38.8125 
z
M 15.921875 53.71875 
Q 15.921875 48.640625 19.1875 45.40625 
Q 22.46875 42.1875 27.6875 42.1875 
Q 32.765625 42.1875 36.015625 45.375 
Q 39.265625 48.578125 39.265625 53.21875 
Q 39.265625 58.0625 35.90625 61.359375 
Q 32.5625 64.65625 27.59375 64.65625 
Q 22.5625 64.65625 19.234375 61.421875 
Q 15.921875 58.203125 15.921875 53.71875 
z
M 13.09375 20.65625 
Q 13.09375 16.890625 14.875 13.375 
Q 16.65625 9.859375 20.171875 7.921875 
Q 23.6875 6 27.734375 6 
Q 34.03125 6 38.125 10.046875 
Q 42.234375 14.109375 42.234375 20.359375 
Q 42.234375 26.703125 38.015625 30.859375 
Q 33.796875 35.015625 27.4375 35.015625 
Q 21.234375 35.015625 17.15625 30.90625 
Q 13.09375 26.8125 13.09375 20.65625 
z
" id="ArialMT-38"/>
      </defs>
      <g style="fill:#262626;" transform="translate(639.658594 290.877812)scale(0.1 -0.1)">
       <use xlink:href="#ArialMT-38"/>
       <use x="55.615234" xlink:href="#ArialMT-30"/>
       <use x="111.230469" xlink:href="#ArialMT-30"/>
      </g>
     </g>
    </g>
   </g>
   <g id="matplotlib.axis_2">
    <g id="ytick_1">
     <g id="line2d_10">
      <defs>
       <path d="M 0 0 
L -6 0 
" id="m28a147322d" style="stroke:#262626;"/>
      </defs>
      <g>
       <use style="fill:#262626;stroke:#262626;" x="90" xlink:href="#m28a147322d" y="270.72"/>
      </g>
     </g>
     <g id="text_10">
      <!-- −0.20 -->
      <defs>
       <path d="M 52.828125 31.203125 
L 5.5625 31.203125 
L 5.5625 39.40625 
L 52.828125 39.40625 
z
" id="ArialMT-2212"/>
       <path d="M 9.078125 0 
L 9.078125 10.015625 
L 19.09375 10.015625 
L 19.09375 0 
z
" id="ArialMT-2e"/>
      </defs>
      <g style="fill:#262626;" transform="translate(51.698437 274.298906)scale(0.1 -0.1)">
       <use xlink:href="#ArialMT-2212"/>
       <use x="58.398438" xlink:href="#ArialMT-30"/>
       <use x="114.013672" xlink:href="#ArialMT-2e"/>
       <use x="141.796875" xlink:href="#ArialMT-32"/>
       <use x="197.412109" xlink:href="#ArialMT-30"/>
      </g>
     </g>
    </g>
    <g id="ytick_2">
     <g id="line2d_11">
      <g>
       <use style="fill:#262626;stroke:#262626;" x="90" xlink:href="#m28a147322d" y="245.52"/>
      </g>
     </g>
     <g id="text_11">
      <!-- −0.15 -->
      <g style="fill:#262626;" transform="translate(51.698437 249.098906)scale(0.1 -0.1)">
       <use xlink:href="#ArialMT-2212"/>
       <use x="58.398438" xlink:href="#ArialMT-30"/>
       <use x="114.013672" xlink:href="#ArialMT-2e"/>
       <use x="141.796875" xlink:href="#ArialMT-31"/>
       <use x="197.412109" xlink:href="#ArialMT-35"/>
      </g>
     </g>
    </g>
    <g id="ytick_3">
     <g id="line2d_12">
      <g>
       <use style="fill:#262626;stroke:#262626;" x="90" xlink:href="#m28a147322d" y="220.32"/>
      </g>
     </g>
     <g id="text_12">
      <!-- −0.10 -->
      <g style="fill:#262626;" transform="translate(51.698437 223.898906)scale(0.1 -0.1)">
       <use xlink:href="#ArialMT-2212"/>
       <use x="58.398438" xlink:href="#ArialMT-30"/>
       <use x="114.013672" xlink:href="#ArialMT-2e"/>
       <use x="141.796875" xlink:href="#ArialMT-31"/>
       <use x="197.412109" xlink:href="#ArialMT-30"/>
      </g>
     </g>
    </g>
    <g id="ytick_4">
     <g id="line2d_13">
      <g>
       <use style="fill:#262626;stroke:#262626;" x="90" xlink:href="#m28a147322d" y="195.12"/>
      </g>
     </g>
     <g id="text_13">
      <!-- −0.05 -->
      <g style="fill:#262626;" transform="translate(51.698437 198.698906)scale(0.1 -0.1)">
       <use xlink:href="#ArialMT-2212"/>
       <use x="58.398438" xlink:href="#ArialMT-30"/>
       <use x="114.013672" xlink:href="#ArialMT-2e"/>
       <use x="141.796875" xlink:href="#ArialMT-30"/>
       <use x="197.412109" xlink:href="#ArialMT-35"/>
      </g>
     </g>
    </g>
    <g id="ytick_5">
     <g id="line2d_14">
      <g>
       <use style="fill:#262626;stroke:#262626;" x="90" xlink:href="#m28a147322d" y="169.92"/>
      </g>
     </g>
     <g id="text_14">
      <!-- 0.00 -->
      <g style="fill:#262626;" transform="translate(57.539062 173.498906)scale(0.1 -0.1)">
       <use xlink:href="#ArialMT-30"/>
       <use x="55.615234" xlink:href="#ArialMT-2e"/>
       <use x="83.398438" xlink:href="#ArialMT-30"/>
       <use x="139.013672" xlink:href="#ArialMT-30"/>
      </g>
     </g>
    </g>
    <g id="ytick_6">
     <g id="line2d_15">
      <g>
       <use style="fill:#262626;stroke:#262626;" x="90" xlink:href="#m28a147322d" y="144.72"/>
      </g>
     </g>
     <g id="text_15">
      <!-- 0.05 -->
      <g style="fill:#262626;" transform="translate(57.539062 148.298906)scale(0.1 -0.1)">
       <use xlink:href="#ArialMT-30"/>
       <use x="55.615234" xlink:href="#ArialMT-2e"/>
       <use x="83.398438" xlink:href="#ArialMT-30"/>
       <use x="139.013672" xlink:href="#ArialMT-35"/>
      </g>
     </g>
    </g>
    <g id="ytick_7">
     <g id="line2d_16">
      <g>
       <use style="fill:#262626;stroke:#262626;" x="90" xlink:href="#m28a147322d" y="119.52"/>
      </g>
     </g>
     <g id="text_16">
      <!-- 0.10 -->
      <g style="fill:#262626;" transform="translate(57.539062 123.098906)scale(0.1 -0.1)">
       <use xlink:href="#ArialMT-30"/>
       <use x="55.615234" xlink:href="#ArialMT-2e"/>
       <use x="83.398438" xlink:href="#ArialMT-31"/>
       <use x="139.013672" xlink:href="#ArialMT-30"/>
      </g>
     </g>
    </g>
    <g id="ytick_8">
     <g id="line2d_17">
      <g>
       <use style="fill:#262626;stroke:#262626;" x="90" xlink:href="#m28a147322d" y="94.32"/>
      </g>
     </g>
     <g id="text_17">
      <!-- 0.15 -->
      <g style="fill:#262626;" transform="translate(57.539062 97.898906)scale(0.1 -0.1)">
       <use xlink:href="#ArialMT-30"/>
       <use x="55.615234" xlink:href="#ArialMT-2e"/>
       <use x="83.398438" xlink:href="#ArialMT-31"/>
       <use x="139.013672" xlink:href="#ArialMT-35"/>
      </g>
     </g>
    </g>
    <g id="ytick_9">
     <g id="line2d_18">
      <g>
       <use style="fill:#262626;stroke:#262626;" x="90" xlink:href="#m28a147322d" y="69.12"/>
      </g>
     </g>
     <g id="text_18">
      <!-- 0.20 -->
      <g style="fill:#262626;" transform="translate(57.539062 72.698906)scale(0.1 -0.1)">
       <use xlink:href="#ArialMT-30"/>
       <use x="55.615234" xlink:href="#ArialMT-2e"/>
       <use x="83.398438" xlink:href="#ArialMT-32"/>
       <use x="139.013672" xlink:href="#ArialMT-30"/>
      </g>
     </g>
    </g>
   </g>
   <g id="PolyCollection_1">
    <path clip-path="url(#p32fbcc8654)" d="M 90 171.016239 
L 90 169.92 
L 90.6975 169.92 
L 91.395 169.92 
L 92.0925 169.92 
L 92.79 169.92 
L 93.4875 169.92 
L 94.185 169.92 
L 94.8825 169.92 
L 95.58 169.92 
L 96.2775 169.92 
L 96.975 169.92 
L 97.6725 169.92 
L 98.37 169.92 
L 99.0675 169.92 
L 99.765 169.92 
L 100.4625 169.92 
L 101.16 169.92 
L 101.8575 169.92 
L 102.555 169.92 
L 103.2525 169.92 
L 103.95 169.92 
L 104.6475 169.92 
L 105.345 169.92 
L 106.0425 169.92 
L 106.74 169.92 
L 107.4375 169.92 
L 108.135 169.92 
L 108.8325 169.92 
L 109.53 169.92 
L 110.2275 169.92 
L 110.925 169.92 
L 111.6225 169.92 
L 112.32 169.92 
L 113.0175 169.92 
L 113.715 169.92 
L 114.4125 169.92 
L 115.11 169.92 
L 115.8075 169.92 
L 116.505 169.92 
L 117.2025 169.92 
L 117.9 169.92 
L 118.5975 169.92 
L 119.295 169.92 
L 119.9925 169.92 
L 120.69 169.92 
L 121.3875 169.92 
L 122.085 169.92 
L 122.7825 169.92 
L 123.48 169.92 
L 124.1775 169.92 
L 124.875 169.92 
L 125.5725 169.92 
L 126.27 169.92 
L 126.9675 169.92 
L 127.665 169.92 
L 128.3625 169.92 
L 129.06 169.92 
L 129.7575 169.92 
L 130.455 169.92 
L 131.1525 169.92 
L 131.85 169.92 
L 132.5475 169.92 
L 133.245 169.92 
L 133.9425 169.92 
L 134.64 169.92 
L 135.3375 169.92 
L 136.035 169.92 
L 136.7325 169.92 
L 137.43 169.92 
L 138.1275 169.92 
L 138.825 169.92 
L 139.5225 169.92 
L 140.22 169.92 
L 140.9175 169.92 
L 141.615 169.92 
L 142.3125 169.92 
L 143.01 169.92 
L 143.7075 169.92 
L 144.405 169.92 
L 145.1025 169.92 
L 145.8 169.92 
L 146.4975 169.92 
L 147.195 169.92 
L 147.8925 169.92 
L 148.59 169.92 
L 149.2875 169.92 
L 149.985 169.92 
L 150.6825 169.92 
L 151.38 169.92 
L 152.0775 169.92 
L 152.775 169.92 
L 153.4725 169.92 
L 154.17 169.92 
L 154.8675 169.92 
L 155.565 169.92 
L 156.2625 169.92 
L 156.96 169.92 
L 157.6575 169.92 
L 158.355 169.92 
L 159.0525 169.92 
L 159.75 169.92 
L 160.4475 169.92 
L 161.145 169.92 
L 161.8425 169.92 
L 162.54 169.92 
L 163.2375 169.92 
L 163.935 169.92 
L 164.6325 169.92 
L 165.33 169.92 
L 166.0275 169.92 
L 166.725 169.92 
L 167.4225 169.92 
L 168.12 169.92 
L 168.8175 169.92 
L 169.515 169.92 
L 170.2125 169.92 
L 170.91 169.92 
L 171.6075 169.92 
L 172.305 169.92 
L 173.0025 169.92 
L 173.7 169.92 
L 174.3975 169.92 
L 175.095 169.92 
L 175.7925 169.92 
L 176.49 169.92 
L 177.1875 169.92 
L 177.885 169.92 
L 178.5825 169.92 
L 179.28 169.92 
L 179.9775 169.92 
L 180.675 169.92 
L 181.3725 169.92 
L 182.07 169.92 
L 182.7675 169.92 
L 183.465 169.92 
L 184.1625 169.92 
L 184.86 169.92 
L 185.5575 169.92 
L 186.255 169.92 
L 186.9525 169.92 
L 187.65 169.92 
L 188.3475 169.92 
L 189.045 169.92 
L 189.7425 169.92 
L 190.44 169.92 
L 191.1375 169.92 
L 191.835 169.92 
L 192.5325 169.92 
L 193.23 169.92 
L 193.9275 169.92 
L 194.625 169.92 
L 195.3225 169.92 
L 196.02 169.92 
L 196.7175 169.92 
L 197.415 169.92 
L 198.1125 169.92 
L 198.81 169.92 
L 199.5075 169.92 
L 200.205 169.92 
L 200.9025 169.92 
L 201.6 169.92 
L 202.2975 169.92 
L 202.995 169.92 
L 203.6925 169.92 
L 204.39 169.92 
L 205.0875 169.92 
L 205.785 169.92 
L 206.4825 169.92 
L 207.18 169.92 
L 207.8775 169.92 
L 208.575 169.92 
L 209.2725 169.92 
L 209.97 169.92 
L 210.6675 169.92 
L 211.365 169.92 
L 212.0625 169.92 
L 212.76 169.92 
L 213.4575 169.92 
L 214.155 169.92 
L 214.8525 169.92 
L 215.55 169.92 
L 216.2475 169.92 
L 216.945 169.92 
L 217.6425 169.92 
L 218.34 169.92 
L 219.0375 169.92 
L 219.735 169.92 
L 220.4325 169.92 
L 221.13 169.92 
L 221.8275 169.92 
L 222.525 169.92 
L 223.2225 169.92 
L 223.92 169.92 
L 224.6175 169.92 
L 225.315 169.92 
L 226.0125 169.92 
L 226.71 169.92 
L 227.4075 169.92 
L 228.105 169.92 
L 228.8025 169.92 
L 229.5 169.92 
L 230.1975 169.92 
L 230.895 169.92 
L 231.5925 169.92 
L 232.29 169.92 
L 232.9875 169.92 
L 233.685 169.92 
L 234.3825 169.92 
L 235.08 169.92 
L 235.7775 169.92 
L 236.475 169.92 
L 237.1725 169.92 
L 237.87 169.92 
L 238.5675 169.92 
L 239.265 169.92 
L 239.9625 169.92 
L 240.66 169.92 
L 241.3575 169.92 
L 242.055 169.92 
L 242.7525 169.92 
L 243.45 169.92 
L 244.1475 169.92 
L 244.845 169.92 
L 245.5425 169.92 
L 246.24 169.92 
L 246.9375 169.92 
L 247.635 169.92 
L 248.3325 169.92 
L 249.03 169.92 
L 249.7275 169.92 
L 250.425 169.92 
L 251.1225 169.92 
L 251.82 169.92 
L 252.5175 169.92 
L 253.215 169.92 
L 253.9125 169.92 
L 254.61 169.92 
L 255.3075 169.92 
L 256.005 169.92 
L 256.7025 169.92 
L 257.4 169.92 
L 258.0975 169.92 
L 258.795 169.92 
L 259.4925 169.92 
L 260.19 169.92 
L 260.8875 169.92 
L 261.585 169.92 
L 262.2825 169.92 
L 262.98 169.92 
L 263.6775 169.92 
L 264.375 169.92 
L 265.0725 169.92 
L 265.77 169.92 
L 266.4675 169.92 
L 267.165 169.92 
L 267.8625 169.92 
L 268.56 169.92 
L 269.2575 169.92 
L 269.955 169.92 
L 270.6525 169.92 
L 271.35 169.92 
L 272.0475 169.92 
L 272.745 169.92 
L 273.4425 169.92 
L 274.14 169.92 
L 274.8375 169.92 
L 275.535 169.92 
L 276.2325 169.92 
L 276.93 169.92 
L 277.6275 169.92 
L 278.325 169.92 
L 279.0225 169.92 
L 279.72 169.92 
L 280.4175 169.92 
L 281.115 169.92 
L 281.8125 169.92 
L 282.51 169.92 
L 283.2075 169.92 
L 283.905 169.92 
L 284.6025 169.92 
L 285.3 169.92 
L 285.9975 169.92 
L 286.695 169.92 
L 287.3925 169.92 
L 288.09 169.92 
L 288.7875 169.92 
L 289.485 169.92 
L 290.1825 169.92 
L 290.88 169.92 
L 291.5775 169.92 
L 292.275 169.92 
L 292.9725 169.92 
L 293.67 169.92 
L 294.3675 169.92 
L 295.065 169.92 
L 295.7625 169.92 
L 296.46 169.92 
L 297.1575 169.92 
L 297.855 169.92 
L 298.5525 169.92 
L 299.25 169.92 
L 299.9475 169.92 
L 300.645 169.92 
L 301.3425 169.92 
L 302.04 169.92 
L 302.7375 169.92 
L 303.435 169.92 
L 304.1325 169.92 
L 304.83 169.92 
L 305.5275 169.92 
L 306.225 169.92 
L 306.9225 169.92 
L 307.62 169.92 
L 308.3175 169.92 
L 309.015 169.92 
L 309.7125 169.92 
L 310.41 169.92 
L 311.1075 169.92 
L 311.805 169.92 
L 312.5025 169.92 
L 313.2 169.92 
L 313.8975 169.92 
L 314.595 169.92 
L 315.2925 169.92 
L 315.99 169.92 
L 316.6875 169.92 
L 317.385 169.92 
L 318.0825 169.92 
L 318.78 169.92 
L 319.4775 169.92 
L 320.175 169.92 
L 320.8725 169.92 
L 321.57 169.92 
L 322.2675 169.92 
L 322.965 169.92 
L 323.6625 169.92 
L 324.36 169.92 
L 325.0575 169.92 
L 325.755 169.92 
L 326.4525 169.92 
L 327.15 169.92 
L 327.8475 169.92 
L 328.545 169.92 
L 329.2425 169.92 
L 329.94 169.92 
L 330.6375 169.92 
L 331.335 169.92 
L 332.0325 169.92 
L 332.73 169.92 
L 333.4275 169.92 
L 334.125 169.92 
L 334.8225 169.92 
L 335.52 169.92 
L 336.2175 169.92 
L 336.915 169.92 
L 337.6125 169.92 
L 338.31 169.92 
L 339.0075 169.92 
L 339.705 169.92 
L 340.4025 169.92 
L 341.1 169.92 
L 341.7975 169.92 
L 342.495 169.92 
L 343.1925 169.92 
L 343.89 169.92 
L 344.5875 169.92 
L 345.285 169.92 
L 345.9825 169.92 
L 346.68 169.92 
L 347.3775 169.92 
L 348.075 169.92 
L 348.7725 169.92 
L 349.47 169.92 
L 350.1675 169.92 
L 350.865 169.92 
L 351.5625 169.92 
L 352.26 169.92 
L 352.9575 169.92 
L 353.655 169.92 
L 354.3525 169.92 
L 355.05 169.92 
L 355.7475 169.92 
L 356.445 169.92 
L 357.1425 169.92 
L 357.84 169.92 
L 358.5375 169.92 
L 359.235 169.92 
L 359.9325 169.92 
L 360.63 169.92 
L 361.3275 169.92 
L 362.025 169.92 
L 362.7225 169.92 
L 363.42 169.92 
L 364.1175 169.92 
L 364.815 169.92 
L 365.5125 169.92 
L 366.21 169.92 
L 366.9075 169.92 
L 367.605 169.92 
L 368.3025 169.92 
L 369 169.92 
L 369.6975 169.92 
L 370.395 169.92 
L 371.0925 169.92 
L 371.79 169.92 
L 372.4875 169.92 
L 373.185 169.92 
L 373.8825 169.92 
L 374.58 169.92 
L 375.2775 169.92 
L 375.975 169.92 
L 376.6725 169.92 
L 377.37 169.92 
L 378.0675 169.92 
L 378.765 169.92 
L 379.4625 169.92 
L 380.16 169.92 
L 380.8575 169.92 
L 381.555 169.92 
L 382.2525 169.92 
L 382.95 169.92 
L 383.6475 169.92 
L 384.345 169.92 
L 385.0425 169.92 
L 385.74 169.92 
L 386.4375 169.92 
L 387.135 169.92 
L 387.8325 169.92 
L 388.53 169.92 
L 389.2275 169.92 
L 389.925 169.92 
L 390.6225 169.92 
L 391.32 169.92 
L 392.0175 169.92 
L 392.715 169.92 
L 393.4125 169.92 
L 394.11 169.92 
L 394.8075 169.92 
L 395.505 169.92 
L 396.2025 169.92 
L 396.9 169.92 
L 397.5975 169.92 
L 398.295 169.92 
L 398.9925 169.92 
L 399.69 169.92 
L 400.3875 169.92 
L 401.085 169.92 
L 401.7825 169.92 
L 402.48 169.92 
L 403.1775 169.92 
L 403.875 169.92 
L 404.5725 169.92 
L 405.27 169.92 
L 405.9675 169.92 
L 406.665 169.92 
L 407.3625 169.92 
L 408.06 169.92 
L 408.7575 169.92 
L 409.455 169.92 
L 410.1525 169.92 
L 410.85 169.92 
L 411.5475 169.92 
L 412.245 169.92 
L 412.9425 169.92 
L 413.64 169.92 
L 414.3375 169.92 
L 415.035 169.92 
L 415.7325 169.92 
L 416.43 169.92 
L 417.1275 169.92 
L 417.825 169.92 
L 418.5225 169.92 
L 419.22 169.92 
L 419.9175 169.92 
L 420.615 169.92 
L 421.3125 169.92 
L 422.01 169.92 
L 422.7075 169.92 
L 423.405 169.92 
L 424.1025 169.92 
L 424.8 169.92 
L 425.4975 169.92 
L 426.195 169.92 
L 426.8925 169.92 
L 427.59 169.92 
L 428.2875 169.92 
L 428.985 169.92 
L 429.6825 169.92 
L 430.38 169.92 
L 431.0775 169.92 
L 431.775 169.92 
L 432.4725 169.92 
L 433.17 169.92 
L 433.8675 169.92 
L 434.565 169.92 
L 435.2625 169.92 
L 435.96 169.92 
L 436.6575 169.92 
L 437.355 169.92 
L 438.0525 169.92 
L 438.75 169.92 
L 439.4475 169.92 
L 440.145 169.92 
L 440.8425 169.92 
L 441.54 169.92 
L 442.2375 169.92 
L 442.935 169.92 
L 443.6325 169.92 
L 444.33 169.92 
L 445.0275 169.92 
L 445.725 169.92 
L 446.4225 169.92 
L 447.12 169.92 
L 447.8175 169.92 
L 448.515 169.92 
L 449.2125 169.92 
L 449.91 169.92 
L 450.6075 169.92 
L 451.305 169.92 
L 452.0025 169.92 
L 452.7 169.92 
L 453.3975 169.92 
L 454.095 169.92 
L 454.7925 169.92 
L 455.49 169.92 
L 456.1875 169.92 
L 456.885 169.92 
L 457.5825 169.92 
L 458.28 169.92 
L 458.9775 169.92 
L 459.675 169.92 
L 460.3725 169.92 
L 461.07 169.92 
L 461.7675 169.92 
L 462.465 169.92 
L 463.1625 169.92 
L 463.86 169.92 
L 464.5575 169.92 
L 465.255 169.92 
L 465.9525 169.92 
L 466.65 169.92 
L 467.3475 169.92 
L 468.045 169.92 
L 468.7425 169.92 
L 469.44 169.92 
L 470.1375 169.92 
L 470.835 169.92 
L 471.5325 169.92 
L 472.23 169.92 
L 472.9275 169.92 
L 473.625 169.92 
L 474.3225 169.92 
L 475.02 169.92 
L 475.7175 169.92 
L 476.415 169.92 
L 477.1125 169.92 
L 477.81 169.92 
L 478.5075 169.92 
L 479.205 169.92 
L 479.9025 169.92 
L 480.6 169.92 
L 481.2975 169.92 
L 481.995 169.92 
L 482.6925 169.92 
L 483.39 169.92 
L 484.0875 169.92 
L 484.785 169.92 
L 485.4825 169.92 
L 486.18 169.92 
L 486.8775 169.92 
L 487.575 169.92 
L 488.2725 169.92 
L 488.97 169.92 
L 489.6675 169.92 
L 490.365 169.92 
L 491.0625 169.92 
L 491.76 169.92 
L 492.4575 169.92 
L 493.155 169.92 
L 493.8525 169.92 
L 494.55 169.92 
L 495.2475 169.92 
L 495.945 169.92 
L 496.6425 169.92 
L 497.34 169.92 
L 498.0375 169.92 
L 498.735 169.92 
L 499.4325 169.92 
L 500.13 169.92 
L 500.8275 169.92 
L 501.525 169.92 
L 502.2225 169.92 
L 502.92 169.92 
L 503.6175 169.92 
L 504.315 169.92 
L 505.0125 169.92 
L 505.71 169.92 
L 506.4075 169.92 
L 507.105 169.92 
L 507.8025 169.92 
L 508.5 169.92 
L 509.1975 169.92 
L 509.895 169.92 
L 510.5925 169.92 
L 511.29 169.92 
L 511.9875 169.92 
L 512.685 169.92 
L 513.3825 169.92 
L 514.08 169.92 
L 514.7775 169.92 
L 515.475 169.92 
L 516.1725 169.92 
L 516.87 169.92 
L 517.5675 169.92 
L 518.265 169.92 
L 518.9625 169.92 
L 519.66 169.92 
L 520.3575 169.92 
L 521.055 169.92 
L 521.7525 169.92 
L 522.45 169.92 
L 523.1475 169.92 
L 523.845 169.92 
L 524.5425 169.92 
L 525.24 169.92 
L 525.9375 169.92 
L 526.635 169.92 
L 527.3325 169.92 
L 528.03 169.92 
L 528.7275 169.92 
L 529.425 169.92 
L 530.1225 169.92 
L 530.82 169.92 
L 531.5175 169.92 
L 532.215 169.92 
L 532.9125 169.92 
L 533.61 169.92 
L 534.3075 169.92 
L 535.005 169.92 
L 535.7025 169.92 
L 536.4 169.92 
L 537.0975 169.92 
L 537.795 169.92 
L 538.4925 169.92 
L 539.19 169.92 
L 539.8875 169.92 
L 540.585 169.92 
L 541.2825 169.92 
L 541.98 169.92 
L 542.6775 169.92 
L 543.375 169.92 
L 544.0725 169.92 
L 544.77 169.92 
L 545.4675 169.92 
L 546.165 169.92 
L 546.8625 169.92 
L 547.56 169.92 
L 548.2575 169.92 
L 548.955 169.92 
L 549.6525 169.92 
L 550.35 169.92 
L 551.0475 169.92 
L 551.745 169.92 
L 552.4425 169.92 
L 553.14 169.92 
L 553.8375 169.92 
L 554.535 169.92 
L 555.2325 169.92 
L 555.93 169.92 
L 556.6275 169.92 
L 557.325 169.92 
L 558.0225 169.92 
L 558.72 169.92 
L 559.4175 169.92 
L 560.115 169.92 
L 560.8125 169.92 
L 561.51 169.92 
L 562.2075 169.92 
L 562.905 169.92 
L 563.6025 169.92 
L 564.3 169.92 
L 564.9975 169.92 
L 565.695 169.92 
L 566.3925 169.92 
L 567.09 169.92 
L 567.7875 169.92 
L 568.485 169.92 
L 569.1825 169.92 
L 569.88 169.92 
L 570.5775 169.92 
L 571.275 169.92 
L 571.9725 169.92 
L 572.67 169.92 
L 573.3675 169.92 
L 574.065 169.92 
L 574.7625 169.92 
L 575.46 169.92 
L 576.1575 169.92 
L 576.855 169.92 
L 577.5525 169.92 
L 578.25 169.92 
L 578.9475 169.92 
L 579.645 169.92 
L 580.3425 169.92 
L 581.04 169.92 
L 581.7375 169.92 
L 582.435 169.92 
L 583.1325 169.92 
L 583.83 169.92 
L 584.5275 169.92 
L 585.225 169.92 
L 585.9225 169.92 
L 586.62 169.92 
L 587.3175 169.92 
L 588.015 169.92 
L 588.7125 169.92 
L 589.41 169.92 
L 590.1075 169.92 
L 590.805 169.92 
L 591.5025 169.92 
L 592.2 169.92 
L 592.8975 169.92 
L 593.595 169.92 
L 594.2925 169.92 
L 594.99 169.92 
L 595.6875 169.92 
L 596.385 169.92 
L 597.0825 169.92 
L 597.78 169.92 
L 598.4775 169.92 
L 599.175 169.92 
L 599.8725 169.92 
L 600.57 169.92 
L 601.2675 169.92 
L 601.965 169.92 
L 602.6625 169.92 
L 603.36 169.92 
L 604.0575 169.92 
L 604.755 169.92 
L 605.4525 169.92 
L 606.15 169.92 
L 606.8475 169.92 
L 607.545 169.92 
L 608.2425 169.92 
L 608.94 169.92 
L 609.6375 169.92 
L 610.335 169.92 
L 611.0325 169.92 
L 611.73 169.92 
L 612.4275 169.92 
L 613.125 169.92 
L 613.8225 169.92 
L 614.52 169.92 
L 615.2175 169.92 
L 615.915 169.92 
L 616.6125 169.92 
L 617.31 169.92 
L 618.0075 169.92 
L 618.705 169.92 
L 619.4025 169.92 
L 620.1 169.92 
L 620.7975 169.92 
L 621.495 169.92 
L 622.1925 169.92 
L 622.89 169.92 
L 623.5875 169.92 
L 624.285 169.92 
L 624.9825 169.92 
L 625.68 169.92 
L 626.3775 169.92 
L 627.075 169.92 
L 627.7725 169.92 
L 628.47 169.92 
L 629.1675 169.92 
L 629.865 169.92 
L 630.5625 169.92 
L 631.26 169.92 
L 631.9575 169.92 
L 632.655 169.92 
L 633.3525 169.92 
L 634.05 169.92 
L 634.7475 169.92 
L 635.445 169.92 
L 636.1425 169.92 
L 636.84 169.92 
L 637.5375 169.92 
L 638.235 169.92 
L 638.9325 169.92 
L 639.63 169.92 
L 640.3275 169.92 
L 641.025 169.92 
L 641.7225 169.92 
L 642.42 169.92 
L 643.1175 169.92 
L 643.815 169.92 
L 644.5125 169.92 
L 645.21 169.92 
L 645.9075 169.92 
L 646.605 169.92 
L 646.605 169.92 
L 646.605 169.92 
L 645.9075 169.923006 
L 645.21 169.930031 
L 644.5125 169.942026 
L 643.815 169.959863 
L 643.1175 169.984323 
L 642.42 170.01608 
L 641.7225 170.055691 
L 641.025 170.103586 
L 640.3275 170.160061 
L 639.63 170.225267 
L 638.9325 170.299207 
L 638.235 170.381736 
L 637.5375 170.472555 
L 636.84 170.571214 
L 636.1425 170.677117 
L 635.445 170.789522 
L 634.7475 170.907553 
L 634.05 171.030204 
L 633.3525 171.156353 
L 632.655 171.28477 
L 631.9575 171.414135 
L 631.26 171.543049 
L 630.5625 171.670052 
L 629.865 171.793637 
L 629.1675 171.912274 
L 628.47 172.024421 
L 627.7725 172.128547 
L 627.075 172.223148 
L 626.3775 172.306771 
L 625.68 172.378024 
L 624.9825 172.435603 
L 624.285 172.478302 
L 623.5875 172.505033 
L 622.89 172.51484 
L 622.1925 172.506913 
L 621.495 172.480599 
L 620.7975 172.435414 
L 620.1 172.371053 
L 619.4025 172.287393 
L 618.705 172.1845 
L 618.0075 172.062634 
L 617.31 171.922246 
L 616.6125 171.763979 
L 615.915 171.588661 
L 615.2175 171.397306 
L 614.52 171.191099 
L 613.8225 170.971391 
L 613.125 170.739684 
L 612.4275 170.49762 
L 611.73 170.246966 
L 611.0325 169.989597 
L 610.335 169.727476 
L 609.6375 169.46264 
L 608.94 169.197174 
L 608.2425 168.933197 
L 607.545 168.672837 
L 606.8475 168.418208 
L 606.15 168.171397 
L 605.4525 167.934434 
L 604.755 167.709276 
L 604.0575 167.497787 
L 603.36 167.30172 
L 602.6625 167.122697 
L 601.965 166.962194 
L 601.2675 166.821527 
L 600.57 166.701836 
L 599.8725 166.604077 
L 599.175 166.529011 
L 598.4775 166.477195 
L 597.78 166.448981 
L 597.0825 166.444509 
L 596.385 166.463705 
L 595.6875 166.50629 
L 594.99 166.571772 
L 594.2925 166.659464 
L 593.595 166.76848 
L 592.8975 166.897755 
L 592.2 167.04605 
L 591.5025 167.211967 
L 590.805 167.393966 
L 590.1075 167.590381 
L 589.41 167.799433 
L 588.7125 168.019256 
L 588.015 168.247912 
L 587.3175 168.483413 
L 586.62 168.723738 
L 585.9225 168.966861 
L 585.225 169.210764 
L 584.5275 169.453461 
L 583.83 169.69302 
L 583.1325 169.927577 
L 582.435 170.155356 
L 581.7375 170.374691 
L 581.04 170.584032 
L 580.3425 170.781968 
L 579.645 170.967235 
L 578.9475 171.138726 
L 578.25 171.295503 
L 577.5525 171.436801 
L 576.855 171.562035 
L 576.1575 171.670801 
L 575.46 171.762877 
L 574.7625 171.83822 
L 574.065 171.896966 
L 573.3675 171.939422 
L 572.67 171.966058 
L 571.9725 171.977499 
L 571.275 171.974514 
L 570.5775 171.958003 
L 569.88 171.92898 
L 569.1825 171.888566 
L 568.485 171.837965 
L 567.7875 171.778448 
L 567.09 171.711341 
L 566.3925 171.638 
L 565.695 171.559798 
L 564.9975 171.478105 
L 564.3 171.394269 
L 563.6025 171.3096 
L 562.905 171.225354 
L 562.2075 171.142716 
L 561.51 171.062785 
L 560.8125 170.986563 
L 560.115 170.914941 
L 559.4175 170.848687 
L 558.72 170.788441 
L 558.0225 170.734708 
L 557.325 170.687846 
L 556.6275 170.648074 
L 555.93 170.615461 
L 555.2325 170.589931 
L 554.535 170.571266 
L 553.8375 170.55911 
L 553.14 170.552974 
L 552.4425 170.552246 
L 551.745 170.556202 
L 551.0475 170.564012 
L 550.35 170.57476 
L 549.6525 170.587451 
L 548.955 170.601034 
L 548.2575 170.614409 
L 547.56 170.626449 
L 546.8625 170.636018 
L 546.165 170.641984 
L 545.4675 170.64324 
L 544.77 170.638717 
L 544.0725 170.627405 
L 543.375 170.608368 
L 542.6775 170.580756 
L 541.98 170.543822 
L 541.2825 170.496937 
L 540.585 170.439594 
L 539.8875 170.371428 
L 539.19 170.292217 
L 538.4925 170.201891 
L 537.795 170.100537 
L 537.0975 169.988401 
L 536.4 169.86589 
L 535.7025 169.733571 
L 535.005 169.592166 
L 534.3075 169.442546 
L 533.61 169.285728 
L 532.9125 169.122864 
L 532.215 168.955227 
L 531.5175 168.784203 
L 530.82 168.611276 
L 530.1225 168.438011 
L 529.425 168.266039 
L 528.7275 168.097039 
L 528.03 167.932718 
L 527.3325 167.774796 
L 526.635 167.624985 
L 525.9375 167.484964 
L 525.24 167.356371 
L 524.5425 167.240772 
L 523.845 167.139651 
L 523.1475 167.054387 
L 522.45 166.98624 
L 521.7525 166.936334 
L 521.055 166.905641 
L 520.3575 166.894971 
L 519.66 166.904962 
L 518.9625 166.936063 
L 518.265 166.988536 
L 517.5675 167.062444 
L 516.87 167.157649 
L 516.1725 167.273812 
L 515.475 167.410395 
L 514.7775 167.566659 
L 514.08 167.741676 
L 513.3825 167.934331 
L 512.685 168.143333 
L 511.9875 168.367228 
L 511.29 168.604411 
L 510.5925 168.853139 
L 509.895 169.111549 
L 509.1975 169.377679 
L 508.5 169.649478 
L 507.8025 169.924837 
L 507.105 170.201599 
L 506.4075 170.477587 
L 505.71 170.750623 
L 505.0125 171.01855 
L 504.315 171.279252 
L 503.6175 171.530676 
L 502.92 171.77085 
L 502.2225 171.997905 
L 501.525 172.210094 
L 500.8275 172.405803 
L 500.13 172.583573 
L 499.4325 172.742111 
L 498.735 172.880302 
L 498.0375 172.997218 
L 497.34 173.09213 
L 496.6425 173.16451 
L 495.945 173.214037 
L 495.2475 173.240598 
L 494.55 173.244287 
L 493.8525 173.225405 
L 493.155 173.18445 
L 492.4575 173.122116 
L 491.76 173.03928 
L 491.0625 172.936993 
L 490.365 172.816464 
L 489.6675 172.679053 
L 488.97 172.526247 
L 488.2725 172.359649 
L 487.575 172.180956 
L 486.8775 171.991944 
L 486.18 171.794445 
L 485.4825 171.590329 
L 484.785 171.381483 
L 484.0875 171.16979 
L 483.39 170.957113 
L 482.6925 170.74527 
L 481.995 170.53602 
L 481.2975 170.331043 
L 480.6 170.131923 
L 479.9025 169.940136 
L 479.205 169.75703 
L 478.5075 169.583819 
L 477.81 169.421569 
L 477.1125 169.271189 
L 476.415 169.133426 
L 475.7175 169.008861 
L 475.02 168.897901 
L 474.3225 168.800787 
L 473.625 168.717586 
L 472.9275 168.648201 
L 472.23 168.592375 
L 471.5325 168.549696 
L 470.835 168.519608 
L 470.1375 168.50142 
L 469.44 168.494321 
L 468.7425 168.497391 
L 468.045 168.509617 
L 467.3475 168.529908 
L 466.65 168.55711 
L 465.9525 168.590029 
L 465.255 168.62744 
L 464.5575 168.668111 
L 463.86 168.710819 
L 463.1625 168.754366 
L 462.465 168.797596 
L 461.7675 168.839411 
L 461.07 168.87879 
L 460.3725 168.914796 
L 459.675 168.946596 
L 458.9775 168.973466 
L 458.28 168.994806 
L 457.5825 169.010145 
L 456.885 169.01915 
L 456.1875 169.021626 
L 455.49 169.017525 
L 454.7925 169.006941 
L 454.095 168.990111 
L 453.3975 168.967413 
L 452.7 168.939358 
L 452.0025 168.906587 
L 451.305 168.869857 
L 450.6075 168.830035 
L 449.91 168.788086 
L 449.2125 168.745055 
L 448.515 168.70206 
L 447.8175 168.660269 
L 447.12 168.620889 
L 446.4225 168.585148 
L 445.725 168.554276 
L 445.0275 168.529487 
L 444.33 168.511964 
L 443.6325 168.502841 
L 442.935 168.503185 
L 442.2375 168.513978 
L 441.54 168.536106 
L 440.8425 168.570343 
L 440.145 168.617336 
L 439.4475 168.677593 
L 438.75 168.751478 
L 438.0525 168.839197 
L 437.355 168.940793 
L 436.6575 169.056143 
L 435.96 169.184952 
L 435.2625 169.326756 
L 434.565 169.480921 
L 433.8675 169.646647 
L 433.17 169.822974 
L 432.4725 170.008786 
L 431.775 170.202827 
L 431.0775 170.403706 
L 430.38 170.609912 
L 429.6825 170.819828 
L 428.985 171.03175 
L 428.2875 171.243897 
L 427.59 171.454437 
L 426.8925 171.661501 
L 426.195 171.863202 
L 425.4975 172.057659 
L 424.8 172.243014 
L 424.1025 172.417453 
L 423.405 172.579227 
L 422.7075 172.726668 
L 422.01 172.858212 
L 421.3125 172.972412 
L 420.615 173.06796 
L 419.9175 173.143697 
L 419.22 173.19863 
L 418.5225 173.231944 
L 417.825 173.243009 
L 417.1275 173.231392 
L 416.43 173.196862 
L 415.7325 173.139394 
L 415.035 173.05917 
L 414.3375 172.956582 
L 413.64 172.832224 
L 412.9425 172.686894 
L 412.245 172.521583 
L 411.5475 172.337466 
L 410.85 172.135894 
L 410.1525 171.918379 
L 409.455 171.686581 
L 408.7575 171.44229 
L 408.06 171.187412 
L 407.3625 170.923948 
L 406.665 170.653974 
L 405.9675 170.379623 
L 405.27 170.103061 
L 404.5725 169.82647 
L 403.875 169.552021 
L 403.1775 169.281859 
L 402.48 169.018075 
L 401.7825 168.762693 
L 401.085 168.517646 
L 400.3875 168.284758 
L 399.69 168.065728 
L 398.9925 167.862113 
L 398.295 167.675315 
L 397.5975 167.506567 
L 396.9 167.356923 
L 396.2025 167.227249 
L 395.505 167.118217 
L 394.8075 167.0303 
L 394.11 166.96377 
L 393.4125 166.918696 
L 392.715 166.894949 
L 392.0175 166.892205 
L 391.32 166.909948 
L 390.6225 166.947483 
L 389.925 167.003943 
L 389.2275 167.078303 
L 388.53 167.169392 
L 387.8325 167.275906 
L 387.135 167.396428 
L 386.4375 167.529444 
L 385.74 167.67336 
L 385.0425 167.826521 
L 384.345 167.987232 
L 383.6475 168.153775 
L 382.95 168.32443 
L 382.2525 168.497496 
L 381.555 168.671303 
L 380.8575 168.844241 
L 380.16 169.014765 
L 379.4625 169.181422 
L 378.765 169.342859 
L 378.0675 169.497839 
L 377.37 169.645252 
L 376.6725 169.784126 
L 375.975 169.913637 
L 375.2775 170.03311 
L 374.58 170.142031 
L 373.8825 170.240045 
L 373.185 170.326955 
L 372.4875 170.402726 
L 371.79 170.467476 
L 371.0925 170.521476 
L 370.395 170.565137 
L 369.6975 170.599006 
L 369 170.623753 
L 368.3025 170.640159 
L 367.605 170.649103 
L 366.9075 170.65155 
L 366.21 170.648528 
L 365.5125 170.641123 
L 364.815 170.630451 
L 364.1175 170.617648 
L 363.42 170.603852 
L 362.7225 170.590181 
L 362.025 170.577723 
L 361.3275 170.567514 
L 360.63 170.560526 
L 359.9325 170.557649 
L 359.235 170.559682 
L 358.5375 170.567314 
L 357.84 170.581121 
L 357.1425 170.60155 
L 356.445 170.628915 
L 355.7475 170.663389 
L 355.05 170.705004 
L 354.3525 170.753642 
L 353.655 170.809043 
L 352.9575 170.8708 
L 352.26 170.938367 
L 351.5625 171.011063 
L 350.865 171.088081 
L 350.1675 171.168493 
L 349.47 171.251269 
L 348.7725 171.33528 
L 348.075 171.419318 
L 347.3775 171.502112 
L 346.68 171.582337 
L 345.9825 171.658639 
L 345.285 171.729646 
L 344.5875 171.793992 
L 343.89 171.85033 
L 343.1925 171.897351 
L 342.495 171.933805 
L 341.7975 171.958515 
L 341.1 171.970396 
L 340.4025 171.96847 
L 339.705 171.951878 
L 339.0075 171.919899 
L 338.31 171.871959 
L 337.6125 171.80764 
L 336.915 171.726692 
L 336.2175 171.629036 
L 335.52 171.514775 
L 334.8225 171.384189 
L 334.125 171.237743 
L 333.4275 171.076081 
L 332.73 170.900024 
L 332.0325 170.710567 
L 331.335 170.508868 
L 330.6375 170.296241 
L 329.94 170.074142 
L 329.2425 169.844161 
L 328.545 169.608 
L 327.8475 169.367465 
L 327.15 169.124443 
L 326.4525 168.880886 
L 325.755 168.63879 
L 325.0575 168.400176 
L 324.36 168.167071 
L 323.6625 167.941485 
L 322.965 167.72539 
L 322.2675 167.520702 
L 321.57 167.329259 
L 320.8725 167.152802 
L 320.175 166.992957 
L 319.4775 166.851218 
L 318.78 166.72893 
L 318.0825 166.627274 
L 317.385 166.547257 
L 316.6875 166.489698 
L 315.99 166.45522 
L 315.2925 166.444243 
L 314.595 166.456978 
L 313.8975 166.493427 
L 313.2 166.553379 
L 312.5025 166.636413 
L 311.805 166.741901 
L 311.1075 166.869018 
L 310.41 167.016743 
L 309.7125 167.183876 
L 309.015 167.369046 
L 308.3175 167.570726 
L 307.62 167.787248 
L 306.9225 168.016818 
L 306.225 168.25754 
L 305.5275 168.507429 
L 304.83 168.764432 
L 304.1325 169.026451 
L 303.435 169.291363 
L 302.7375 169.557041 
L 302.04 169.821374 
L 301.3425 170.082288 
L 300.645 170.33777 
L 299.9475 170.585882 
L 299.25 170.824782 
L 298.5525 171.052743 
L 297.855 171.268166 
L 297.1575 171.469598 
L 296.46 171.65574 
L 295.7625 171.825463 
L 295.065 171.977814 
L 294.3675 172.112024 
L 293.67 172.227514 
L 292.9725 172.323896 
L 292.275 172.400976 
L 291.5775 172.458749 
L 290.88 172.4974 
L 290.1825 172.517294 
L 289.485 172.518975 
L 288.7875 172.503147 
L 288.09 172.470672 
L 287.3925 172.422552 
L 286.695 172.359917 
L 285.9975 172.284009 
L 285.3 172.196164 
L 284.6025 172.097798 
L 283.905 171.990385 
L 283.2075 171.875442 
L 282.51 171.754506 
L 281.8125 171.62912 
L 281.115 171.500812 
L 280.4175 171.371076 
L 279.72 171.241356 
L 279.0225 171.113029 
L 278.325 170.98739 
L 277.6275 170.865637 
L 276.93 170.748856 
L 276.2325 170.638015 
L 275.535 170.533948 
L 274.8375 170.437353 
L 274.14 170.348779 
L 273.4425 170.26863 
L 272.745 170.197154 
L 272.0475 170.134452 
L 271.35 170.080472 
L 270.6525 170.035015 
L 269.955 169.997745 
L 269.2575 169.968188 
L 268.56 169.94575 
L 267.8625 169.92972 
L 267.165 169.919289 
L 266.4675 169.913556 
L 265.77 169.911549 
L 265.0725 169.912239 
L 264.375 169.914552 
L 263.6775 169.917392 
L 262.98 169.919654 
L 262.2825 169.920241 
L 261.585 169.918084 
L 260.8875 169.912156 
L 260.19 169.901488 
L 259.4925 169.885188 
L 258.795 169.862452 
L 258.0975 169.832576 
L 257.4 169.794974 
L 256.7025 169.749183 
L 256.005 169.694873 
L 255.3075 169.631856 
L 254.61 169.560091 
L 253.9125 169.479688 
L 253.215 169.390905 
L 252.5175 169.294156 
L 251.82 169.19 
L 251.1225 169.079143 
L 250.425 168.96243 
L 249.7275 168.840833 
L 249.03 168.715447 
L 248.3325 168.587476 
L 247.635 168.45822 
L 246.9375 168.329058 
L 246.24 168.201438 
L 245.5425 168.076855 
L 244.845 167.956837 
L 244.1475 167.842923 
L 243.45 167.73665 
L 242.7525 167.639529 
L 242.055 167.553028 
L 241.3575 167.478557 
L 240.66 167.417442 
L 239.9625 167.370916 
L 239.265 167.340098 
L 238.5675 167.325978 
L 237.87 167.329404 
L 237.1725 167.351069 
L 236.475 167.3915 
L 235.7775 167.451049 
L 235.08 167.529883 
L 234.3825 167.627984 
L 233.685 167.745142 
L 232.9875 167.880952 
L 232.29 168.03482 
L 231.5925 168.205963 
L 230.895 168.393413 
L 230.1975 168.596028 
L 229.5 168.812496 
L 228.8025 169.041352 
L 228.105 169.280988 
L 227.4075 169.529666 
L 226.71 169.785537 
L 226.0125 170.046658 
L 225.315 170.31101 
L 224.6175 170.576516 
L 223.92 170.841064 
L 223.2225 171.102528 
L 222.525 171.358787 
L 221.8275 171.607745 
L 221.13 171.847357 
L 220.4325 172.075645 
L 219.735 172.29072 
L 219.0375 172.4908 
L 218.34 172.674228 
L 217.6425 172.839491 
L 216.945 172.985231 
L 216.2475 173.110264 
L 215.55 173.213585 
L 214.8525 173.294384 
L 214.155 173.352053 
L 213.4575 173.386189 
L 212.76 173.396599 
L 212.0625 173.383301 
L 211.365 173.346526 
L 210.6675 173.286711 
L 209.97 173.204496 
L 209.2725 173.100718 
L 208.575 172.976398 
L 207.8775 172.832733 
L 207.18 172.671083 
L 206.4825 172.492952 
L 205.785 172.299979 
L 205.0875 172.093914 
L 204.39 171.876604 
L 203.6925 171.649972 
L 202.995 171.415994 
L 202.2975 171.176685 
L 201.6 170.934071 
L 200.9025 170.690176 
L 200.205 170.446993 
L 199.5075 170.206472 
L 198.81 169.970495 
L 198.1125 169.74086 
L 197.415 169.519264 
L 196.7175 169.307286 
L 196.02 169.106375 
L 195.3225 168.917831 
L 194.625 168.742801 
L 193.9275 168.582267 
L 193.23 168.437037 
L 192.5325 168.307742 
L 191.835 168.194831 
L 191.1375 168.098572 
L 190.44 168.019052 
L 189.7425 167.956179 
L 189.045 167.909688 
L 188.3475 167.879149 
L 187.65 167.863976 
L 186.9525 167.863434 
L 186.255 167.876655 
L 185.5575 167.902651 
L 184.86 167.940327 
L 184.1625 167.988499 
L 183.465 168.045909 
L 182.7675 168.111245 
L 182.07 168.183155 
L 181.3725 168.260271 
L 180.675 168.341218 
L 179.9775 168.424644 
L 179.28 168.509224 
L 178.5825 168.59369 
L 177.885 168.676837 
L 177.1875 168.757542 
L 176.49 168.834779 
L 175.7925 168.907629 
L 175.095 168.97529 
L 174.3975 169.03709 
L 173.7 169.092492 
L 173.0025 169.141097 
L 172.305 169.182654 
L 171.6075 169.217055 
L 170.91 169.244341 
L 170.2125 169.264694 
L 169.515 169.278437 
L 168.8175 169.286025 
L 168.12 169.288041 
L 167.4225 169.285182 
L 166.725 169.278253 
L 166.0275 169.268149 
L 165.33 169.255847 
L 164.6325 169.242386 
L 163.935 169.228854 
L 163.2375 169.216374 
L 162.54 169.20608 
L 161.8425 169.199108 
L 161.145 169.196573 
L 160.4475 169.199554 
L 159.75 169.209078 
L 159.0525 169.2261 
L 158.355 169.251495 
L 157.6575 169.286034 
L 156.96 169.330379 
L 156.2625 169.385067 
L 155.565 169.450501 
L 154.8675 169.526938 
L 154.17 169.614487 
L 153.4725 169.713102 
L 152.775 169.822574 
L 152.0775 169.942538 
L 151.38 170.072466 
L 150.6825 170.211676 
L 149.985 170.359332 
L 149.2875 170.514453 
L 148.59 170.675921 
L 147.8925 170.842491 
L 147.195 171.012803 
L 146.4975 171.185398 
L 145.8 171.358729 
L 145.1025 171.53118 
L 144.405 171.701083 
L 143.7075 171.866735 
L 143.01 172.026417 
L 142.3125 172.178415 
L 141.615 172.321039 
L 140.9175 172.452639 
L 140.22 172.571629 
L 139.5225 172.676503 
L 138.825 172.765854 
L 138.1275 172.838391 
L 137.43 172.892956 
L 136.7325 172.928535 
L 136.035 172.944276 
L 135.3375 172.9395 
L 134.64 172.913709 
L 133.9425 172.866592 
L 133.245 172.798038 
L 132.5475 172.708134 
L 131.85 172.597167 
L 131.1525 172.465628 
L 130.455 172.314205 
L 129.7575 172.143778 
L 129.06 171.955419 
L 128.3625 171.750373 
L 127.665 171.530057 
L 126.9675 171.296037 
L 126.27 171.050026 
L 125.5725 170.793855 
L 124.875 170.529466 
L 124.1775 170.258888 
L 123.48 169.984219 
L 122.7825 169.707605 
L 122.085 169.431218 
L 121.3875 169.157241 
L 120.69 168.887836 
L 119.9925 168.625132 
L 119.295 168.371201 
L 118.5975 168.128035 
L 117.9 167.897531 
L 117.2025 167.681469 
L 116.505 167.481497 
L 115.8075 167.299114 
L 115.11 167.135656 
L 114.4125 166.992284 
L 113.715 166.869973 
L 113.0175 166.769503 
L 112.32 166.691451 
L 111.6225 166.636193 
L 110.925 166.603891 
L 110.2275 166.594504 
L 109.53 166.607783 
L 108.8325 166.643277 
L 108.135 166.700341 
L 107.4375 166.778143 
L 106.74 166.875676 
L 106.0425 166.991765 
L 105.345 167.125091 
L 104.6475 167.274194 
L 103.95 167.4375 
L 103.2525 167.613333 
L 102.555 167.799935 
L 101.8575 167.995486 
L 101.16 168.198124 
L 100.4625 168.405965 
L 99.765 168.617122 
L 99.0675 168.829726 
L 98.37 169.041945 
L 97.6725 169.252004 
L 96.975 169.458202 
L 96.2775 169.658929 
L 95.58 169.852681 
L 94.8825 170.038076 
L 94.185 170.213867 
L 93.4875 170.378949 
L 92.79 170.532373 
L 92.0925 170.673351 
L 91.395 170.801261 
L 90.6975 170.91565 
L 90 171.016239 
z
" style="fill:#e0ffff;"/>
   </g>
   <g id="line2d_19">
    <path clip-path="url(#p32fbcc8654)" d="M 90 171.016239 
L 92.79 170.532373 
L 96.2775 169.658929 
L 105.345 167.125091 
L 108.135 166.700341 
L 110.2275 166.594504 
L 112.32 166.691451 
L 114.4125 166.992284 
L 116.505 167.481497 
L 119.295 168.371201 
L 124.1775 170.258888 
L 127.665 171.530057 
L 130.455 172.314205 
L 132.5475 172.708134 
L 134.64 172.913709 
L 136.7325 172.928535 
L 139.5225 172.676503 
L 142.3125 172.178415 
L 147.195 171.012803 
L 151.38 170.072466 
L 154.8675 169.526938 
L 158.355 169.251495 
L 162.54 169.20608 
L 170.91 169.244341 
L 175.095 168.97529 
L 181.3725 168.260271 
L 185.5575 167.902651 
L 188.3475 167.879149 
L 191.1375 168.098572 
L 193.9275 168.582267 
L 196.7175 169.307286 
L 200.9025 170.690176 
L 205.785 172.299979 
L 208.575 172.976398 
L 210.6675 173.286711 
L 212.76 173.396599 
L 214.8525 173.294384 
L 216.945 172.985231 
L 219.735 172.29072 
L 223.2225 171.102528 
L 230.1975 168.596028 
L 232.9875 167.880952 
L 235.08 167.529883 
L 237.1725 167.351069 
L 239.9625 167.370916 
L 242.7525 167.639529 
L 246.9375 168.329058 
L 253.215 169.390905 
L 256.7025 169.749183 
L 260.19 169.901488 
L 272.745 170.197154 
L 276.2325 170.638015 
L 281.8125 171.62912 
L 285.9975 172.284009 
L 288.7875 172.503147 
L 291.5775 172.458749 
L 293.67 172.227514 
L 296.46 171.65574 
L 299.25 170.824782 
L 303.435 169.291363 
L 307.62 167.787248 
L 310.41 167.016743 
L 312.5025 166.636413 
L 314.595 166.456978 
L 316.6875 166.489698 
L 318.78 166.72893 
L 321.57 167.329259 
L 325.0575 168.400176 
L 332.0325 170.710567 
L 334.8225 171.384189 
L 337.6125 171.80764 
L 340.4025 171.96847 
L 343.1925 171.897351 
L 346.68 171.582337 
L 355.05 170.705004 
L 359.235 170.559682 
L 366.21 170.648528 
L 370.395 170.565137 
L 373.8825 170.240045 
L 377.37 169.645252 
L 381.555 168.671303 
L 386.4375 167.529444 
L 389.2275 167.078303 
L 392.0175 166.892205 
L 394.11 166.96377 
L 396.2025 167.227249 
L 398.295 167.675315 
L 401.085 168.517646 
L 405.27 170.103061 
L 409.455 171.686581 
L 412.245 172.521583 
L 414.3375 172.956582 
L 416.43 173.196862 
L 418.5225 173.231944 
L 420.615 173.06796 
L 423.405 172.579227 
L 426.8925 171.661501 
L 434.565 169.480921 
L 437.355 168.940793 
L 440.145 168.617336 
L 442.935 168.503185 
L 446.4225 168.585148 
L 456.885 169.01915 
L 461.07 168.87879 
L 469.44 168.494321 
L 472.23 168.592375 
L 475.02 168.897901 
L 477.81 169.421569 
L 481.2975 170.331043 
L 489.6675 172.679053 
L 492.4575 173.122116 
L 494.55 173.244287 
L 496.6425 173.16451 
L 498.735 172.880302 
L 500.8275 172.405803 
L 503.6175 171.530676 
L 507.8025 169.924837 
L 511.9875 168.367228 
L 514.7775 167.566659 
L 516.87 167.157649 
L 518.9625 166.936063 
L 521.055 166.905641 
L 523.1475 167.054387 
L 525.9375 167.484964 
L 530.1225 168.438011 
L 535.7025 169.733571 
L 539.19 170.292217 
L 542.6775 170.580756 
L 546.8625 170.636018 
L 555.93 170.615461 
L 560.115 170.914941 
L 571.275 171.974514 
L 574.065 171.896966 
L 576.855 171.562035 
L 579.645 170.967235 
L 583.1325 169.927577 
L 591.5025 167.211967 
L 594.2925 166.659464 
L 596.385 166.463705 
L 598.4775 166.477195 
L 600.57 166.701836 
L 602.6625 167.122697 
L 605.4525 167.934434 
L 609.6375 169.46264 
L 613.8225 170.971391 
L 616.6125 171.763979 
L 619.4025 172.287393 
L 621.495 172.480599 
L 624.285 172.478302 
L 627.075 172.223148 
L 630.5625 171.670052 
L 638.235 170.381736 
L 641.7225 170.055691 
L 645.9075 169.923006 
L 646.605 169.92 
L 646.605 169.92 
" style="fill:none;stroke:#008080;stroke-linecap:round;stroke-width:1.75;"/>
   </g>
   <g id="patch_3">
    <path d="M 90 270.72 
L 90 69.12 
" style="fill:none;stroke:#262626;stroke-linecap:square;stroke-linejoin:miter;stroke-width:1.25;"/>
   </g>
   <g id="patch_4">
    <path d="M 90 270.72 
L 648 270.72 
" style="fill:none;stroke:#262626;stroke-linecap:square;stroke-linejoin:miter;stroke-width:1.25;"/>
   </g>
  </g>
  <g id="axes_2">
   <g id="patch_5">
    <path d="M 90 512.64 
L 648 512.64 
L 648 311.04 
L 90 311.04 
z
" style="fill:#ffffff;"/>
   </g>
   <g id="matplotlib.axis_3">
    <g id="xtick_10">
     <g id="line2d_20">
      <g>
       <use style="fill:#262626;stroke:#262626;" x="190.44" xlink:href="#m670a7cdbab" y="512.64"/>
      </g>
     </g>
     <g id="text_19">
      <!-- 200 -->
      <g style="fill:#262626;" transform="translate(182.098594 532.797812)scale(0.1 -0.1)">
       <use xlink:href="#ArialMT-32"/>
       <use x="55.615234" xlink:href="#ArialMT-30"/>
       <use x="111.230469" xlink:href="#ArialMT-30"/>
      </g>
     </g>
    </g>
    <g id="xtick_11">
     <g id="line2d_21">
      <g>
       <use style="fill:#262626;stroke:#262626;" x="302.04" xlink:href="#m670a7cdbab" y="512.64"/>
      </g>
     </g>
     <g id="text_20">
      <!-- 400 -->
      <g style="fill:#262626;" transform="translate(293.698594 532.797812)scale(0.1 -0.1)">
       <use xlink:href="#ArialMT-34"/>
       <use x="55.615234" xlink:href="#ArialMT-30"/>
       <use x="111.230469" xlink:href="#ArialMT-30"/>
      </g>
     </g>
    </g>
    <g id="xtick_12">
     <g id="line2d_22">
      <g>
       <use style="fill:#262626;stroke:#262626;" x="413.64" xlink:href="#m670a7cdbab" y="512.64"/>
      </g>
     </g>
     <g id="text_21">
      <!-- 600 -->
      <g style="fill:#262626;" transform="translate(405.298594 532.797812)scale(0.1 -0.1)">
       <use xlink:href="#ArialMT-36"/>
       <use x="55.615234" xlink:href="#ArialMT-30"/>
       <use x="111.230469" xlink:href="#ArialMT-30"/>
      </g>
     </g>
    </g>
    <g id="xtick_13">
     <g id="line2d_23">
      <g>
       <use style="fill:#262626;stroke:#262626;" x="525.24" xlink:href="#m670a7cdbab" y="512.64"/>
      </g>
     </g>
     <g id="text_22">
      <!-- 800 -->
      <g style="fill:#262626;" transform="translate(516.898594 532.797812)scale(0.1 -0.1)">
       <use xlink:href="#ArialMT-38"/>
       <use x="55.615234" xlink:href="#ArialMT-30"/>
       <use x="111.230469" xlink:href="#ArialMT-30"/>
      </g>
     </g>
    </g>
    <g id="xtick_14">
     <g id="line2d_24">
      <g>
       <use style="fill:#262626;stroke:#262626;" x="636.84" xlink:href="#m670a7cdbab" y="512.64"/>
      </g>
     </g>
     <g id="text_23">
      <!-- 1000 -->
      <g style="fill:#262626;" transform="translate(625.718125 532.797812)scale(0.1 -0.1)">
       <use xlink:href="#ArialMT-31"/>
       <use x="55.615234" xlink:href="#ArialMT-30"/>
       <use x="111.230469" xlink:href="#ArialMT-30"/>
       <use x="166.845703" xlink:href="#ArialMT-30"/>
      </g>
     </g>
    </g>
   </g>
   <g id="matplotlib.axis_4">
    <g id="ytick_10">
     <g id="line2d_25">
      <g>
       <use style="fill:#262626;stroke:#262626;" x="90" xlink:href="#m28a147322d" y="512.64"/>
      </g>
     </g>
     <g id="text_24">
      <!-- 0 -->
      <g style="fill:#262626;" transform="translate(71.439063 516.218906)scale(0.1 -0.1)">
       <use xlink:href="#ArialMT-30"/>
      </g>
     </g>
    </g>
    <g id="ytick_11">
     <g id="line2d_26">
      <g>
       <use style="fill:#262626;stroke:#262626;" x="90" xlink:href="#m28a147322d" y="483.84"/>
      </g>
     </g>
     <g id="text_25">
      <!-- 10 -->
      <g style="fill:#262626;" transform="translate(65.878125 487.418906)scale(0.1 -0.1)">
       <use xlink:href="#ArialMT-31"/>
       <use x="55.615234" xlink:href="#ArialMT-30"/>
      </g>
     </g>
    </g>
    <g id="ytick_12">
     <g id="line2d_27">
      <g>
       <use style="fill:#262626;stroke:#262626;" x="90" xlink:href="#m28a147322d" y="455.04"/>
      </g>
     </g>
     <g id="text_26">
      <!-- 20 -->
      <g style="fill:#262626;" transform="translate(65.878125 458.618906)scale(0.1 -0.1)">
       <use xlink:href="#ArialMT-32"/>
       <use x="55.615234" xlink:href="#ArialMT-30"/>
      </g>
     </g>
    </g>
    <g id="ytick_13">
     <g id="line2d_28">
      <g>
       <use style="fill:#262626;stroke:#262626;" x="90" xlink:href="#m28a147322d" y="426.24"/>
      </g>
     </g>
     <g id="text_27">
      <!-- 30 -->
      <g style="fill:#262626;" transform="translate(65.878125 429.818906)scale(0.1 -0.1)">
       <use xlink:href="#ArialMT-33"/>
       <use x="55.615234" xlink:href="#ArialMT-30"/>
      </g>
     </g>
    </g>
    <g id="ytick_14">
     <g id="line2d_29">
      <g>
       <use style="fill:#262626;stroke:#262626;" x="90" xlink:href="#m28a147322d" y="397.44"/>
      </g>
     </g>
     <g id="text_28">
      <!-- 40 -->
      <g style="fill:#262626;" transform="translate(65.878125 401.018906)scale(0.1 -0.1)">
       <use xlink:href="#ArialMT-34"/>
       <use x="55.615234" xlink:href="#ArialMT-30"/>
      </g>
     </g>
    </g>
    <g id="ytick_15">
     <g id="line2d_30">
      <g>
       <use style="fill:#262626;stroke:#262626;" x="90" xlink:href="#m28a147322d" y="368.64"/>
      </g>
     </g>
     <g id="text_29">
      <!-- 50 -->
      <g style="fill:#262626;" transform="translate(65.878125 372.218906)scale(0.1 -0.1)">
       <use xlink:href="#ArialMT-35"/>
       <use x="55.615234" xlink:href="#ArialMT-30"/>
      </g>
     </g>
    </g>
    <g id="ytick_16">
     <g id="line2d_31">
      <g>
       <use style="fill:#262626;stroke:#262626;" x="90" xlink:href="#m28a147322d" y="339.84"/>
      </g>
     </g>
     <g id="text_30">
      <!-- 60 -->
      <g style="fill:#262626;" transform="translate(65.878125 343.418906)scale(0.1 -0.1)">
       <use xlink:href="#ArialMT-36"/>
       <use x="55.615234" xlink:href="#ArialMT-30"/>
      </g>
     </g>
    </g>
    <g id="ytick_17">
     <g id="line2d_32">
      <g>
       <use style="fill:#262626;stroke:#262626;" x="90" xlink:href="#m28a147322d" y="311.04"/>
      </g>
     </g>
     <g id="text_31">
      <!-- 70 -->
      <g style="fill:#262626;" transform="translate(65.878125 314.618906)scale(0.1 -0.1)">
       <use xlink:href="#ArialMT-37"/>
       <use x="55.615234" xlink:href="#ArialMT-30"/>
      </g>
     </g>
    </g>
   </g>
   <g id="line2d_33">
    <path clip-path="url(#pd767ec94bd)" d="M 90 495.208 
L 101.16 496.246355 
L 112.32 497.676438 
L 123.48 496.773624 
L 134.64 495.319457 
L 145.8 494.970857 
L 156.96 496.496469 
L 168.12 493.948302 
L 179.28 491.922563 
L 190.44 492.701338 
L 201.6 493.08264 
L 212.76 488.265624 
L 223.92 486.884007 
L 235.08 484.919609 
L 246.24 481.076037 
L 257.4 476.781513 
L 268.56 466.885099 
L 279.72 461.735001 
L 290.88 446.632864 
L 302.04 392.641353 
L 313.2 347.842084 
L 324.36 327.210442 
L 335.52 347.127932 
L 346.68 397.986588 
L 357.84 448.123679 
L 369 461.866051 
L 380.16 470.857725 
L 391.32 480.686219 
L 402.48 482.14059 
L 413.64 486.68837 
L 424.8 491.849661 
L 435.96 491.68536 
L 447.12 493.461916 
L 458.28 496.485392 
L 469.44 497.52324 
L 480.6 497.152641 
L 491.76 498.521226 
L 502.92 500.730979 
" style="fill:none;stroke:#b22222;stroke-linecap:round;stroke-width:1.75;"/>
   </g>
   <g id="patch_6">
    <path d="M 90 512.64 
L 90 311.04 
" style="fill:none;stroke:#262626;stroke-linecap:square;stroke-linejoin:miter;stroke-width:1.25;"/>
   </g>
   <g id="patch_7">
    <path d="M 90 512.64 
L 648 512.64 
" style="fill:none;stroke:#262626;stroke-linecap:square;stroke-linejoin:miter;stroke-width:1.25;"/>
   </g>
   <g id="text_32">
    <!-- f = 760 -->
    <defs>
     <path d="M 8.6875 0 
L 8.6875 45.015625 
L 0.921875 45.015625 
L 0.921875 51.859375 
L 8.6875 51.859375 
L 8.6875 57.375 
Q 8.6875 62.59375 9.625 65.140625 
Q 10.890625 68.5625 14.078125 70.671875 
Q 17.28125 72.796875 23.046875 72.796875 
Q 26.765625 72.796875 31.25 71.921875 
L 29.9375 64.265625 
Q 27.203125 64.75 24.75 64.75 
Q 20.75 64.75 19.09375 63.03125 
Q 17.4375 61.328125 17.4375 56.640625 
L 17.4375 51.859375 
L 27.546875 51.859375 
L 27.546875 45.015625 
L 17.4375 45.015625 
L 17.4375 0 
z
" id="ArialMT-66"/>
     <path id="ArialMT-20"/>
     <path d="M 52.828125 42.09375 
L 5.5625 42.09375 
L 5.5625 50.296875 
L 52.828125 50.296875 
z
M 52.828125 20.359375 
L 5.5625 20.359375 
L 5.5625 28.5625 
L 52.828125 28.5625 
z
" id="ArialMT-3d"/>
    </defs>
    <g style="fill:#262626;" transform="translate(525.24 371.742188)scale(0.12 -0.12)">
     <use xlink:href="#ArialMT-66"/>
     <use x="27.783203" xlink:href="#ArialMT-20"/>
     <use x="55.566406" xlink:href="#ArialMT-3d"/>
     <use x="113.964844" xlink:href="#ArialMT-20"/>
     <use x="141.748047" xlink:href="#ArialMT-37"/>
     <use x="197.363281" xlink:href="#ArialMT-36"/>
     <use x="252.978516" xlink:href="#ArialMT-30"/>
    </g>
   </g>
   <g id="PathCollection_1">
    <defs>
     <path d="M 0 3.5 
C 0.928211 3.5 1.81853 3.131218 2.474874 2.474874 
C 3.131218 1.81853 3.5 0.928211 3.5 0 
C 3.5 -0.928211 3.131218 -1.81853 2.474874 -2.474874 
C 1.81853 -3.131218 0.928211 -3.5 0 -3.5 
C -0.928211 -3.5 -1.81853 -3.131218 -2.474874 -2.474874 
C -3.131218 -1.81853 -3.5 -0.928211 -3.5 0 
C -3.5 0.928211 -3.131218 1.81853 -2.474874 2.474874 
C -1.81853 3.131218 -0.928211 3.5 0 3.5 
z
" id="m1cdb6d69cf" style="stroke:#800000;stroke-width:0.3;"/>
    </defs>
    <g clip-path="url(#pd767ec94bd)">
     <use style="fill:#800000;stroke:#800000;stroke-width:0.3;" x="502.92" xlink:href="#m1cdb6d69cf" y="500.730979"/>
    </g>
   </g>
  </g>
 </g>
 <defs>
  <clipPath id="p32fbcc8654">
   <rect height="201.6" width="558" x="90" y="69.12"/>
  </clipPath>
  <clipPath id="pd767ec94bd">
   <rect height="201.6" width="558" x="90" y="311.04"/>
  </clipPath>
 </defs>
</svg>
