<?xml version="1.0" encoding="utf-8" standalone="no"?>
<!DOCTYPE svg PUBLIC "-//W3C//DTD SVG 1.1//EN"
  "http://www.w3.org/Graphics/SVG/1.1/DTD/svg11.dtd">
<!-- Created with matplotlib (http://matplotlib.org/) -->
<svg height="576pt" version="1.1" viewBox="0 0 720 576" width="720pt" xmlns="http://www.w3.org/2000/svg" xmlns:xlink="http://www.w3.org/1999/xlink">
 <defs>
  <style type="text/css">
*{stroke-linecap:butt;stroke-linejoin:round;}
  </style>
 </defs>
 <g id="figure_1">
  <g id="patch_1">
   <path d="M 0 576 
L 720 576 
L 720 0 
L 0 0 
z
" style="fill:#ffffff;"/>
  </g>
  <g id="axes_1">
   <g id="patch_2">
    <path d="M 90 270.72 
L 648 270.72 
L 648 69.12 
L 90 69.12 
z
" style="fill:#ffffff;"/>
   </g>
   <g id="matplotlib.axis_1">
    <g id="xtick_1">
     <g id="line2d_1">
      <defs>
       <path d="M 0 0 
L 0 6 
" id="md70c2c97d4" style="stroke:#262626;"/>
      </defs>
      <g>
       <use style="fill:#262626;stroke:#262626;" x="90" xlink:href="#md70c2c97d4" y="270.72"/>
      </g>
     </g>
     <g id="text_1">
      <!-- 0.0000 -->
      <defs>
       <path d="M 4.15625 35.296875 
Q 4.15625 48 6.765625 55.734375 
Q 9.375 63.484375 14.515625 67.671875 
Q 19.671875 71.875 27.484375 71.875 
Q 33.25 71.875 37.59375 69.546875 
Q 41.9375 67.234375 44.765625 62.859375 
Q 47.609375 58.5 49.21875 52.21875 
Q 50.828125 45.953125 50.828125 35.296875 
Q 50.828125 22.703125 48.234375 14.96875 
Q 45.65625 7.234375 40.5 3 
Q 35.359375 -1.21875 27.484375 -1.21875 
Q 17.140625 -1.21875 11.234375 6.203125 
Q 4.15625 15.140625 4.15625 35.296875 
z
M 13.1875 35.296875 
Q 13.1875 17.671875 17.3125 11.828125 
Q 21.4375 6 27.484375 6 
Q 33.546875 6 37.671875 11.859375 
Q 41.796875 17.71875 41.796875 35.296875 
Q 41.796875 52.984375 37.671875 58.78125 
Q 33.546875 64.59375 27.390625 64.59375 
Q 21.34375 64.59375 17.71875 59.46875 
Q 13.1875 52.9375 13.1875 35.296875 
z
" id="ArialMT-30"/>
       <path d="M 9.078125 0 
L 9.078125 10.015625 
L 19.09375 10.015625 
L 19.09375 0 
z
" id="ArialMT-2e"/>
      </defs>
      <g style="fill:#262626;" transform="translate(74.708594 290.877812)scale(0.1 -0.1)">
       <use xlink:href="#ArialMT-30"/>
       <use x="55.615234" xlink:href="#ArialMT-2e"/>
       <use x="83.398438" xlink:href="#ArialMT-30"/>
       <use x="139.013672" xlink:href="#ArialMT-30"/>
       <use x="194.628906" xlink:href="#ArialMT-30"/>
       <use x="250.244141" xlink:href="#ArialMT-30"/>
      </g>
     </g>
    </g>
    <g id="xtick_2">
     <g id="line2d_2">
      <g>
       <use style="fill:#262626;stroke:#262626;" x="166.899375" xlink:href="#md70c2c97d4" y="270.72"/>
      </g>
     </g>
     <g id="text_2">
      <!-- 0.0025 -->
      <defs>
       <path d="M 50.34375 8.453125 
L 50.34375 0 
L 3.03125 0 
Q 2.9375 3.171875 4.046875 6.109375 
Q 5.859375 10.9375 9.828125 15.625 
Q 13.8125 20.3125 21.34375 26.46875 
Q 33.015625 36.03125 37.109375 41.625 
Q 41.21875 47.21875 41.21875 52.203125 
Q 41.21875 57.421875 37.46875 61 
Q 33.734375 64.59375 27.734375 64.59375 
Q 21.390625 64.59375 17.578125 60.78125 
Q 13.765625 56.984375 13.71875 50.25 
L 4.6875 51.171875 
Q 5.609375 61.28125 11.65625 66.578125 
Q 17.71875 71.875 27.9375 71.875 
Q 38.234375 71.875 44.234375 66.15625 
Q 50.25 60.453125 50.25 52 
Q 50.25 47.703125 48.484375 43.546875 
Q 46.734375 39.40625 42.65625 34.8125 
Q 38.578125 30.21875 29.109375 22.21875 
Q 21.1875 15.578125 18.9375 13.203125 
Q 16.703125 10.84375 15.234375 8.453125 
z
" id="ArialMT-32"/>
       <path d="M 4.15625 18.75 
L 13.375 19.53125 
Q 14.40625 12.796875 18.140625 9.390625 
Q 21.875 6 27.15625 6 
Q 33.5 6 37.890625 10.78125 
Q 42.28125 15.578125 42.28125 23.484375 
Q 42.28125 31 38.0625 35.34375 
Q 33.84375 39.703125 27 39.703125 
Q 22.75 39.703125 19.328125 37.765625 
Q 15.921875 35.84375 13.96875 32.765625 
L 5.71875 33.84375 
L 12.640625 70.609375 
L 48.25 70.609375 
L 48.25 62.203125 
L 19.671875 62.203125 
L 15.828125 42.96875 
Q 22.265625 47.46875 29.34375 47.46875 
Q 38.71875 47.46875 45.15625 40.96875 
Q 51.609375 34.46875 51.609375 24.265625 
Q 51.609375 14.546875 45.953125 7.46875 
Q 39.0625 -1.21875 27.15625 -1.21875 
Q 17.390625 -1.21875 11.203125 4.25 
Q 5.03125 9.71875 4.15625 18.75 
z
" id="ArialMT-35"/>
      </defs>
      <g style="fill:#262626;" transform="translate(151.607969 290.877812)scale(0.1 -0.1)">
       <use xlink:href="#ArialMT-30"/>
       <use x="55.615234" xlink:href="#ArialMT-2e"/>
       <use x="83.398438" xlink:href="#ArialMT-30"/>
       <use x="139.013672" xlink:href="#ArialMT-30"/>
       <use x="194.628906" xlink:href="#ArialMT-32"/>
       <use x="250.244141" xlink:href="#ArialMT-35"/>
      </g>
     </g>
    </g>
    <g id="xtick_3">
     <g id="line2d_3">
      <g>
       <use style="fill:#262626;stroke:#262626;" x="243.79875" xlink:href="#md70c2c97d4" y="270.72"/>
      </g>
     </g>
     <g id="text_3">
      <!-- 0.0050 -->
      <g style="fill:#262626;" transform="translate(228.507344 290.877812)scale(0.1 -0.1)">
       <use xlink:href="#ArialMT-30"/>
       <use x="55.615234" xlink:href="#ArialMT-2e"/>
       <use x="83.398438" xlink:href="#ArialMT-30"/>
       <use x="139.013672" xlink:href="#ArialMT-30"/>
       <use x="194.628906" xlink:href="#ArialMT-35"/>
       <use x="250.244141" xlink:href="#ArialMT-30"/>
      </g>
     </g>
    </g>
    <g id="xtick_4">
     <g id="line2d_4">
      <g>
       <use style="fill:#262626;stroke:#262626;" x="320.698125" xlink:href="#md70c2c97d4" y="270.72"/>
      </g>
     </g>
     <g id="text_4">
      <!-- 0.0075 -->
      <defs>
       <path d="M 4.734375 62.203125 
L 4.734375 70.65625 
L 51.078125 70.65625 
L 51.078125 63.8125 
Q 44.234375 56.546875 37.515625 44.484375 
Q 30.8125 32.421875 27.15625 19.671875 
Q 24.515625 10.6875 23.78125 0 
L 14.75 0 
Q 14.890625 8.453125 18.0625 20.40625 
Q 21.234375 32.375 27.171875 43.484375 
Q 33.109375 54.59375 39.796875 62.203125 
z
" id="ArialMT-37"/>
      </defs>
      <g style="fill:#262626;" transform="translate(305.406719 290.877812)scale(0.1 -0.1)">
       <use xlink:href="#ArialMT-30"/>
       <use x="55.615234" xlink:href="#ArialMT-2e"/>
       <use x="83.398438" xlink:href="#ArialMT-30"/>
       <use x="139.013672" xlink:href="#ArialMT-30"/>
       <use x="194.628906" xlink:href="#ArialMT-37"/>
       <use x="250.244141" xlink:href="#ArialMT-35"/>
      </g>
     </g>
    </g>
    <g id="xtick_5">
     <g id="line2d_5">
      <g>
       <use style="fill:#262626;stroke:#262626;" x="397.5975" xlink:href="#md70c2c97d4" y="270.72"/>
      </g>
     </g>
     <g id="text_5">
      <!-- 0.0100 -->
      <defs>
       <path d="M 37.25 0 
L 28.46875 0 
L 28.46875 56 
Q 25.296875 52.984375 20.140625 49.953125 
Q 14.984375 46.921875 10.890625 45.40625 
L 10.890625 53.90625 
Q 18.265625 57.375 23.78125 62.296875 
Q 29.296875 67.234375 31.59375 71.875 
L 37.25 71.875 
z
" id="ArialMT-31"/>
      </defs>
      <g style="fill:#262626;" transform="translate(382.306094 290.877812)scale(0.1 -0.1)">
       <use xlink:href="#ArialMT-30"/>
       <use x="55.615234" xlink:href="#ArialMT-2e"/>
       <use x="83.398438" xlink:href="#ArialMT-30"/>
       <use x="139.013672" xlink:href="#ArialMT-31"/>
       <use x="194.628906" xlink:href="#ArialMT-30"/>
       <use x="250.244141" xlink:href="#ArialMT-30"/>
      </g>
     </g>
    </g>
    <g id="xtick_6">
     <g id="line2d_6">
      <g>
       <use style="fill:#262626;stroke:#262626;" x="474.496875" xlink:href="#md70c2c97d4" y="270.72"/>
      </g>
     </g>
     <g id="text_6">
      <!-- 0.0125 -->
      <g style="fill:#262626;" transform="translate(459.205469 290.877812)scale(0.1 -0.1)">
       <use xlink:href="#ArialMT-30"/>
       <use x="55.615234" xlink:href="#ArialMT-2e"/>
       <use x="83.398438" xlink:href="#ArialMT-30"/>
       <use x="139.013672" xlink:href="#ArialMT-31"/>
       <use x="194.628906" xlink:href="#ArialMT-32"/>
       <use x="250.244141" xlink:href="#ArialMT-35"/>
      </g>
     </g>
    </g>
    <g id="xtick_7">
     <g id="line2d_7">
      <g>
       <use style="fill:#262626;stroke:#262626;" x="551.39625" xlink:href="#md70c2c97d4" y="270.72"/>
      </g>
     </g>
     <g id="text_7">
      <!-- 0.0150 -->
      <g style="fill:#262626;" transform="translate(536.104844 290.877812)scale(0.1 -0.1)">
       <use xlink:href="#ArialMT-30"/>
       <use x="55.615234" xlink:href="#ArialMT-2e"/>
       <use x="83.398438" xlink:href="#ArialMT-30"/>
       <use x="139.013672" xlink:href="#ArialMT-31"/>
       <use x="194.628906" xlink:href="#ArialMT-35"/>
       <use x="250.244141" xlink:href="#ArialMT-30"/>
      </g>
     </g>
    </g>
    <g id="xtick_8">
     <g id="line2d_8">
      <g>
       <use style="fill:#262626;stroke:#262626;" x="628.295625" xlink:href="#md70c2c97d4" y="270.72"/>
      </g>
     </g>
     <g id="text_8">
      <!-- 0.0175 -->
      <g style="fill:#262626;" transform="translate(613.004219 290.877812)scale(0.1 -0.1)">
       <use xlink:href="#ArialMT-30"/>
       <use x="55.615234" xlink:href="#ArialMT-2e"/>
       <use x="83.398438" xlink:href="#ArialMT-30"/>
       <use x="139.013672" xlink:href="#ArialMT-31"/>
       <use x="194.628906" xlink:href="#ArialMT-37"/>
       <use x="250.244141" xlink:href="#ArialMT-35"/>
      </g>
     </g>
    </g>
   </g>
   <g id="matplotlib.axis_2">
    <g id="ytick_1">
     <g id="line2d_9">
      <defs>
       <path d="M 0 0 
L -6 0 
" id="m1946f24052" style="stroke:#262626;"/>
      </defs>
      <g>
       <use style="fill:#262626;stroke:#262626;" x="90" xlink:href="#m1946f24052" y="270.72"/>
      </g>
     </g>
     <g id="text_9">
      <!-- −0.6 -->
      <defs>
       <path d="M 52.828125 31.203125 
L 5.5625 31.203125 
L 5.5625 39.40625 
L 52.828125 39.40625 
z
" id="ArialMT-2212"/>
       <path d="M 49.75 54.046875 
L 41.015625 53.375 
Q 39.84375 58.546875 37.703125 60.890625 
Q 34.125 64.65625 28.90625 64.65625 
Q 24.703125 64.65625 21.53125 62.3125 
Q 17.390625 59.28125 14.984375 53.46875 
Q 12.59375 47.65625 12.5 36.921875 
Q 15.671875 41.75 20.265625 44.09375 
Q 24.859375 46.4375 29.890625 46.4375 
Q 38.671875 46.4375 44.84375 39.96875 
Q 51.03125 33.5 51.03125 23.25 
Q 51.03125 16.5 48.125 10.71875 
Q 45.21875 4.9375 40.140625 1.859375 
Q 35.0625 -1.21875 28.609375 -1.21875 
Q 17.625 -1.21875 10.6875 6.859375 
Q 3.765625 14.9375 3.765625 33.5 
Q 3.765625 54.25 11.421875 63.671875 
Q 18.109375 71.875 29.4375 71.875 
Q 37.890625 71.875 43.28125 67.140625 
Q 48.6875 62.40625 49.75 54.046875 
z
M 13.875 23.1875 
Q 13.875 18.65625 15.796875 14.5 
Q 17.71875 10.359375 21.1875 8.171875 
Q 24.65625 6 28.46875 6 
Q 34.03125 6 38.03125 10.484375 
Q 42.046875 14.984375 42.046875 22.703125 
Q 42.046875 30.125 38.078125 34.390625 
Q 34.125 38.671875 28.125 38.671875 
Q 22.171875 38.671875 18.015625 34.390625 
Q 13.875 30.125 13.875 23.1875 
z
" id="ArialMT-36"/>
      </defs>
      <g style="fill:#262626;" transform="translate(57.259375 274.298906)scale(0.1 -0.1)">
       <use xlink:href="#ArialMT-2212"/>
       <use x="58.398438" xlink:href="#ArialMT-30"/>
       <use x="114.013672" xlink:href="#ArialMT-2e"/>
       <use x="141.796875" xlink:href="#ArialMT-36"/>
      </g>
     </g>
    </g>
    <g id="ytick_2">
     <g id="line2d_10">
      <g>
       <use style="fill:#262626;stroke:#262626;" x="90" xlink:href="#m1946f24052" y="237.12"/>
      </g>
     </g>
     <g id="text_10">
      <!-- −0.4 -->
      <defs>
       <path d="M 32.328125 0 
L 32.328125 17.140625 
L 1.265625 17.140625 
L 1.265625 25.203125 
L 33.9375 71.578125 
L 41.109375 71.578125 
L 41.109375 25.203125 
L 50.78125 25.203125 
L 50.78125 17.140625 
L 41.109375 17.140625 
L 41.109375 0 
z
M 32.328125 25.203125 
L 32.328125 57.46875 
L 9.90625 25.203125 
z
" id="ArialMT-34"/>
      </defs>
      <g style="fill:#262626;" transform="translate(57.259375 240.698906)scale(0.1 -0.1)">
       <use xlink:href="#ArialMT-2212"/>
       <use x="58.398438" xlink:href="#ArialMT-30"/>
       <use x="114.013672" xlink:href="#ArialMT-2e"/>
       <use x="141.796875" xlink:href="#ArialMT-34"/>
      </g>
     </g>
    </g>
    <g id="ytick_3">
     <g id="line2d_11">
      <g>
       <use style="fill:#262626;stroke:#262626;" x="90" xlink:href="#m1946f24052" y="203.52"/>
      </g>
     </g>
     <g id="text_11">
      <!-- −0.2 -->
      <g style="fill:#262626;" transform="translate(57.259375 207.098906)scale(0.1 -0.1)">
       <use xlink:href="#ArialMT-2212"/>
       <use x="58.398438" xlink:href="#ArialMT-30"/>
       <use x="114.013672" xlink:href="#ArialMT-2e"/>
       <use x="141.796875" xlink:href="#ArialMT-32"/>
      </g>
     </g>
    </g>
    <g id="ytick_4">
     <g id="line2d_12">
      <g>
       <use style="fill:#262626;stroke:#262626;" x="90" xlink:href="#m1946f24052" y="169.92"/>
      </g>
     </g>
     <g id="text_12">
      <!-- 0.0 -->
      <g style="fill:#262626;" transform="translate(63.1 173.498906)scale(0.1 -0.1)">
       <use xlink:href="#ArialMT-30"/>
       <use x="55.615234" xlink:href="#ArialMT-2e"/>
       <use x="83.398438" xlink:href="#ArialMT-30"/>
      </g>
     </g>
    </g>
    <g id="ytick_5">
     <g id="line2d_13">
      <g>
       <use style="fill:#262626;stroke:#262626;" x="90" xlink:href="#m1946f24052" y="136.32"/>
      </g>
     </g>
     <g id="text_13">
      <!-- 0.2 -->
      <g style="fill:#262626;" transform="translate(63.1 139.898906)scale(0.1 -0.1)">
       <use xlink:href="#ArialMT-30"/>
       <use x="55.615234" xlink:href="#ArialMT-2e"/>
       <use x="83.398438" xlink:href="#ArialMT-32"/>
      </g>
     </g>
    </g>
    <g id="ytick_6">
     <g id="line2d_14">
      <g>
       <use style="fill:#262626;stroke:#262626;" x="90" xlink:href="#m1946f24052" y="102.72"/>
      </g>
     </g>
     <g id="text_14">
      <!-- 0.4 -->
      <g style="fill:#262626;" transform="translate(63.1 106.298906)scale(0.1 -0.1)">
       <use xlink:href="#ArialMT-30"/>
       <use x="55.615234" xlink:href="#ArialMT-2e"/>
       <use x="83.398438" xlink:href="#ArialMT-34"/>
      </g>
     </g>
    </g>
    <g id="ytick_7">
     <g id="line2d_15">
      <g>
       <use style="fill:#262626;stroke:#262626;" x="90" xlink:href="#m1946f24052" y="69.12"/>
      </g>
     </g>
     <g id="text_15">
      <!-- 0.6 -->
      <g style="fill:#262626;" transform="translate(63.1 72.698906)scale(0.1 -0.1)">
       <use xlink:href="#ArialMT-30"/>
       <use x="55.615234" xlink:href="#ArialMT-2e"/>
       <use x="83.398438" xlink:href="#ArialMT-36"/>
      </g>
     </g>
    </g>
   </g>
   <g id="line2d_16">
    <path clip-path="url(#p95274ab6d0)" d="M 90 169.92 
L 94.185 138.991048 
L 96.2775 124.894873 
L 98.37 112.386531 
L 99.765 105.150389 
L 101.16 98.931081 
L 102.555 93.826246 
L 103.95 89.916026 
L 104.6475 88.428841 
L 105.345 87.261809 
L 106.0425 86.419513 
L 106.74 85.905263 
L 107.4375 85.721079 
L 108.135 85.867685 
L 108.8325 86.344505 
L 109.53 87.149666 
L 110.2275 88.280004 
L 110.925 89.731079 
L 111.6225 91.497189 
L 113.0175 95.945554 
L 114.4125 101.555262 
L 115.8075 108.238245 
L 117.2025 115.889586 
L 119.295 128.915806 
L 121.3875 143.38806 
L 124.875 169.320186 
L 129.06 200.290285 
L 131.1525 214.437133 
L 133.245 227.014062 
L 134.64 234.304711 
L 136.035 240.584567 
L 137.43 245.755043 
L 138.825 249.734966 
L 139.5225 251.258185 
L 140.22 252.461854 
L 140.9175 253.341242 
L 141.615 253.892896 
L 142.3125 254.114648 
L 143.01 254.005627 
L 143.7075 253.566261 
L 144.405 252.798277 
L 145.1025 251.704691 
L 145.8 250.2898 
L 146.4975 248.559162 
L 147.8925 244.179057 
L 149.2875 238.633141 
L 150.6825 232.00848 
L 152.0775 224.409076 
L 154.17 211.447036 
L 156.2625 197.020524 
L 159.75 171.119598 
L 163.935 140.109923 
L 166.0275 125.91312 
L 168.12 113.268242 
L 169.515 105.923457 
L 170.91 99.58337 
L 172.305 94.347515 
L 173.7 90.298092 
L 174.3975 88.738915 
L 175.095 87.498673 
L 175.7925 86.582236 
L 176.49 85.993206 
L 177.1875 85.733897 
L 177.885 85.805328 
L 178.5825 86.207217 
L 179.28 86.937987 
L 179.9775 87.994765 
L 180.675 89.373401 
L 181.3725 91.068478 
L 182.7675 95.3801 
L 184.1625 100.861943 
L 185.5575 107.427946 
L 186.9525 114.975026 
L 189.045 127.872229 
L 191.1375 142.252267 
L 194.625 168.120679 
L 198.81 199.168356 
L 200.9025 213.414393 
L 202.995 226.126578 
L 204.39 233.525127 
L 205.785 239.925123 
L 207.18 245.226091 
L 208.575 249.344809 
L 209.2725 250.939864 
L 209.97 252.216618 
L 210.6675 253.170056 
L 211.365 253.796432 
L 212.0625 254.093285 
L 212.76 254.059448 
L 213.4575 253.695056 
L 214.155 253.001539 
L 214.8525 251.981621 
L 215.55 250.639311 
L 216.2475 248.979881 
L 217.6425 244.73696 
L 219.0375 239.319469 
L 220.4325 232.812458 
L 221.8275 225.318082 
L 223.92 212.486372 
L 226.0125 198.153538 
L 229.5 172.318953 
L 233.685 141.234849 
L 235.7775 126.940301 
L 237.87 114.161454 
L 239.265 106.709517 
L 240.66 100.249937 
L 242.055 94.884125 
L 243.45 90.69632 
L 244.1475 89.065468 
L 244.845 87.752268 
L 245.5425 86.761877 
L 246.24 86.098187 
L 246.9375 85.763805 
L 247.635 85.760045 
L 248.3325 86.086923 
L 249.03 86.743152 
L 249.7275 87.726157 
L 250.425 89.032073 
L 251.1225 90.655772 
L 252.5175 94.829777 
L 253.9125 100.182642 
L 255.3075 106.630331 
L 256.7025 114.07162 
L 258.795 126.837187 
L 260.8875 141.12209 
L 264.375 166.921537 
L 268.56 198.040491 
L 270.6525 212.382824 
L 272.745 225.227685 
L 274.14 232.732632 
L 275.535 239.251467 
L 276.93 244.681851 
L 278.325 248.93853 
L 279.0225 250.605096 
L 279.72 251.954677 
L 280.4175 252.981971 
L 281.115 253.682941 
L 281.8125 254.054835 
L 282.51 254.09619 
L 283.2075 253.806845 
L 283.905 253.187936 
L 284.6025 252.241894 
L 285.3 250.972437 
L 285.9975 249.384552 
L 287.3925 245.279675 
L 288.7875 239.991709 
L 290.1825 233.603669 
L 291.5775 226.215843 
L 293.67 213.517068 
L 295.7625 199.28082 
L 299.25 173.517821 
L 303.435 142.365597 
L 305.5275 127.976206 
L 307.62 115.065984 
L 309.015 107.508407 
L 310.41 100.930646 
L 311.805 95.435966 
L 313.2 91.11063 
L 313.8975 89.408434 
L 314.595 88.022542 
L 315.2925 86.958397 
L 315.99 86.220182 
L 316.6875 85.810796 
L 317.385 85.731847 
L 318.0825 85.983645 
L 318.78 86.565202 
L 319.4775 87.474233 
L 320.175 88.707165 
L 320.8725 90.259157 
L 322.2675 94.294696 
L 323.6625 99.517497 
L 325.0575 105.845563 
L 326.4525 113.179551 
L 328.545 125.81089 
L 330.6375 139.997759 
L 334.125 165.723004 
L 339.0075 201.850577 
L 341.1 215.853742 
L 343.1925 228.23703 
L 344.5875 235.374136 
L 345.9825 241.483662 
L 347.3775 246.469693 
L 348.7725 250.25395 
L 349.47 251.676084 
L 350.1675 252.777025 
L 350.865 253.552447 
L 351.5625 253.999306 
L 352.26 254.115845 
L 352.9575 253.901605 
L 353.655 253.35743 
L 354.3525 252.485457 
L 355.05 251.289111 
L 355.7475 249.773092 
L 357.1425 245.807094 
L 358.5375 240.649725 
L 359.9325 234.381953 
L 361.3275 227.102176 
L 363.42 214.538913 
L 365.5125 200.402143 
L 368.3025 179.972929 
L 373.8825 138.545244 
L 375.975 124.490121 
L 378.0675 112.037106 
L 379.4625 104.844834 
L 380.8575 98.674193 
L 382.2525 93.622058 
L 383.6475 89.767743 
L 384.345 88.30944 
L 385.0425 87.171758 
L 385.74 86.359167 
L 386.4375 85.874859 
L 387.135 85.720737 
L 387.8325 85.897406 
L 388.53 86.404172 
L 389.2275 87.239044 
L 389.925 88.398743 
L 390.6225 89.878712 
L 391.32 91.673136 
L 392.715 96.175947 
L 394.11 101.836484 
L 395.505 108.565881 
L 396.9 116.258491 
L 398.9925 129.33558 
L 401.085 143.843898 
L 404.5725 169.800036 
L 408.7575 200.737343 
L 410.85 214.84371 
L 412.9425 227.365821 
L 414.3375 234.612894 
L 415.7325 240.844336 
L 417.1275 245.96232 
L 418.5225 249.886497 
L 419.22 251.380895 
L 419.9175 252.555259 
L 420.615 253.404977 
L 421.3125 253.92671 
L 422.01 254.118408 
L 422.7075 253.979319 
L 423.405 253.509988 
L 424.1025 252.712259 
L 424.8 251.589267 
L 425.4975 250.145423 
L 426.195 248.3864 
L 427.59 243.951669 
L 428.985 238.354697 
L 430.38 231.683351 
L 431.775 224.042367 
L 433.8675 211.02893 
L 435.96 196.565766 
L 439.4475 170.639775 
L 443.6325 139.661634 
L 445.725 125.504738 
L 447.8175 112.914168 
L 449.2125 105.612662 
L 450.6075 99.320734 
L 452.0025 94.137161 
L 453.3975 90.143322 
L 454.095 88.612905 
L 454.7925 87.401917 
L 455.49 86.515115 
L 456.1875 85.955984 
L 456.885 85.726719 
L 457.5825 85.828222 
L 458.28 86.260095 
L 458.9775 87.020639 
L 459.675 88.106868 
L 460.3725 89.514514 
L 461.07 91.238046 
L 462.465 95.604472 
L 463.86 101.137596 
L 465.255 107.750552 
L 466.65 115.339522 
L 468.7425 128.288647 
L 470.835 142.705923 
L 474.3225 168.600451 
L 478.5075 199.617853 
L 480.6 213.82456 
L 482.6925 226.482951 
L 484.0875 233.838519 
L 485.4825 240.190613 
L 486.8775 245.439512 
L 488.2725 249.502811 
L 488.97 251.06917 
L 489.6675 252.31672 
L 490.365 253.24056 
L 491.0625 253.837062 
L 491.76 254.103881 
L 492.4575 254.039969 
L 493.155 253.645577 
L 493.8525 252.922255 
L 494.55 251.872845 
L 495.2475 250.501469 
L 495.945 248.813514 
L 497.34 244.515615 
L 498.735 239.04662 
L 500.13 232.492389 
L 501.525 224.955819 
L 503.6175 212.071663 
L 505.71 197.701007 
L 509.1975 171.839256 
L 513.3825 140.784167 
L 515.475 126.52837 
L 517.5675 113.802801 
L 518.9625 106.393544 
L 520.3575 99.981606 
L 521.7525 94.667647 
L 523.1475 90.535094 
L 523.845 88.932874 
L 524.5425 87.648825 
L 525.24 86.687993 
L 525.9375 86.054152 
L 526.635 85.749792 
L 527.3325 85.776109 
L 528.03 86.133 
L 528.7275 86.819062 
L 529.425 87.831601 
L 530.1225 89.166638 
L 530.82 90.818928 
L 532.215 95.048083 
L 533.61 100.452671 
L 535.005 106.947844 
L 536.4 114.431633 
L 538.4925 127.250166 
L 540.585 141.573472 
L 544.0725 167.401134 
L 548.2575 198.492335 
L 550.35 212.796498 
L 552.4425 225.5886 
L 553.8375 233.051169 
L 555.2325 239.522626 
L 556.6275 244.901374 
L 558.0225 249.102971 
L 558.72 250.740972 
L 559.4175 252.061455 
L 560.115 253.05923 
L 560.8125 253.730379 
L 561.51 254.072264 
L 562.2075 254.083543 
L 562.905 253.764171 
L 563.6025 253.115403 
L 564.3 252.139787 
L 564.9975 250.841157 
L 565.695 249.224615 
L 567.09 245.064419 
L 568.485 239.724512 
L 569.88 233.288727 
L 571.275 225.8581 
L 573.3675 213.10584 
L 575.46 198.83061 
L 578.9475 173.038348 
L 583.1325 141.912614 
L 585.225 127.560811 
L 587.3175 114.702825 
L 588.7125 107.187322 
L 590.1075 100.656674 
L 591.5025 95.213409 
L 592.8975 90.942982 
L 593.595 89.269283 
L 594.2925 87.912434 
L 594.99 86.877766 
L 595.6875 86.169344 
L 596.385 85.78995 
L 597.0825 85.741076 
L 597.78 86.022913 
L 598.4775 86.634354 
L 599.175 87.572997 
L 599.8725 88.835154 
L 600.57 90.415867 
L 601.965 94.506893 
L 603.36 99.781847 
L 604.755 106.157918 
L 606.15 113.535006 
L 608.2425 126.220346 
L 610.335 140.446776 
L 613.8225 166.202328 
L 618.0075 197.361017 
L 620.1 211.759732 
L 622.1925 224.682948 
L 623.5875 232.251004 
L 624.9825 238.84051 
L 626.3775 244.348016 
L 627.7725 248.687058 
L 628.47 250.396369 
L 629.1675 251.789516 
L 629.865 252.861024 
L 630.5625 253.606684 
L 631.26 254.023566 
L 631.9575 254.110033 
L 632.655 253.865746 
L 633.3525 253.291663 
L 634.05 252.39004 
L 634.7475 251.16442 
L 635.445 249.619617 
L 636.84 245.597969 
L 638.235 240.388234 
L 639.63 234.072201 
L 641.025 226.749026 
L 643.1175 214.13125 
L 645.21 199.954343 
L 647.3025 184.718261 
L 647.3025 184.718261 
" style="fill:none;stroke:#4c72b0;stroke-linecap:round;stroke-width:1.75;"/>
   </g>
   <g id="line2d_17">
    <path clip-path="url(#p95274ab6d0)" d="M 145.8 169.92 
L 152.775 146.250597 
L 156.96 132.847738 
L 160.4475 122.488758 
L 163.2375 114.884181 
L 166.0275 107.993833 
L 168.12 103.348959 
L 170.2125 99.190275 
L 172.305 95.548153 
L 174.3975 92.449192 
L 175.7925 90.69632 
L 177.1875 89.200689 
L 178.5825 87.967155 
L 179.9775 86.999724 
L 181.3725 86.301536 
L 182.7675 85.874859 
L 184.1625 85.721079 
L 185.5575 85.840694 
L 186.9525 86.233316 
L 188.3475 86.897671 
L 189.7425 87.831601 
L 191.1375 89.032073 
L 192.5325 90.495191 
L 193.9275 92.216202 
L 196.02 95.268821 
L 198.1125 98.866643 
L 200.205 102.983389 
L 202.2975 107.588996 
L 204.39 112.649826 
L 207.18 120.041396 
L 209.97 128.080268 
L 213.4575 138.879502 
L 217.6425 152.648704 
L 226.71 183.654204 
L 231.5925 199.842241 
L 235.08 210.714473 
L 237.87 218.82708 
L 240.66 226.304994 
L 243.45 233.051169 
L 245.5425 237.577541 
L 247.635 241.609788 
L 249.7275 245.118462 
L 251.82 248.077937 
L 253.215 249.734966 
L 254.61 251.132835 
L 256.005 252.267003 
L 257.4 253.13379 
L 258.795 253.730379 
L 260.19 254.054835 
L 261.585 254.106103 
L 262.98 253.884016 
L 264.375 253.389298 
L 265.77 252.623552 
L 267.165 251.589267 
L 268.56 250.2898 
L 269.955 248.72937 
L 271.35 246.913045 
L 273.4425 243.721876 
L 275.535 239.991709 
L 277.6275 235.749785 
L 279.72 231.027085 
L 282.51 224.042367 
L 285.3 216.355273 
L 288.09 208.065564 
L 291.5775 197.020524 
L 296.46 180.687187 
L 308.3175 140.55918 
L 311.805 129.651276 
L 314.595 121.502417 
L 317.385 113.9819 
L 320.175 107.187322 
L 322.2675 102.621216 
L 324.36 98.546616 
L 326.4525 94.993278 
L 328.545 91.987155 
L 329.94 90.298092 
L 331.335 88.867563 
L 332.73 87.700213 
L 334.125 86.799832 
L 335.52 86.169344 
L 336.915 85.810796 
L 338.31 85.725352 
L 339.705 85.91329 
L 341.1 86.373999 
L 342.495 87.105984 
L 343.89 88.106868 
L 345.285 89.373401 
L 346.68 90.90147 
L 348.075 92.686114 
L 350.1675 95.831258 
L 352.26 99.517497 
L 354.3525 103.717907 
L 356.445 108.401813 
L 359.235 115.339522 
L 362.025 122.985551 
L 364.815 131.240674 
L 368.3025 142.252267 
L 373.185 158.558196 
L 385.0425 198.71791 
L 388.53 209.660933 
L 391.32 217.845628 
L 394.11 225.408367 
L 396.9 232.251004 
L 398.9925 236.856611 
L 401.085 240.973357 
L 403.1775 244.571179 
L 405.27 247.623798 
L 406.665 249.344809 
L 408.06 250.807927 
L 409.455 252.008399 
L 410.85 252.942329 
L 412.245 253.606684 
L 413.64 253.999306 
L 415.035 254.118921 
L 416.43 253.965141 
L 417.825 253.538464 
L 419.22 252.840276 
L 420.615 251.872845 
L 422.01 250.639311 
L 423.405 249.14368 
L 424.8 247.390808 
L 426.8925 244.291847 
L 428.985 240.649725 
L 431.0775 236.491041 
L 433.17 231.846167 
L 435.2625 226.749026 
L 438.0525 219.314095 
L 440.8425 211.238151 
L 444.33 200.402143 
L 448.515 186.603797 
L 463.86 135.016701 
L 467.3475 124.490121 
L 470.1375 116.722072 
L 472.9275 109.644401 
L 475.02 104.844834 
L 477.1125 100.520531 
L 479.205 96.703076 
L 481.2975 93.420347 
L 483.39 90.69632 
L 484.785 89.200689 
L 486.18 87.967155 
L 487.575 86.999724 
L 488.97 86.301536 
L 490.365 85.874859 
L 491.76 85.721079 
L 493.155 85.840694 
L 494.55 86.233316 
L 495.945 86.897671 
L 497.34 87.831601 
L 498.735 89.032073 
L 500.13 90.495191 
L 501.525 92.216202 
L 503.6175 95.268821 
L 505.71 98.866643 
L 507.8025 102.983389 
L 509.895 107.588996 
L 511.9875 112.649826 
L 514.7775 120.041396 
L 517.5675 128.080268 
L 521.055 138.879502 
L 525.24 152.648704 
L 534.3075 183.654204 
L 539.19 199.842241 
L 542.6775 210.714473 
L 545.4675 218.82708 
L 548.2575 226.304994 
L 551.0475 233.051169 
L 553.14 237.577541 
L 555.2325 241.609788 
L 557.325 245.118462 
L 559.4175 248.077937 
L 560.8125 249.734966 
L 562.2075 251.132835 
L 563.6025 252.267003 
L 564.9975 253.13379 
L 566.3925 253.730379 
L 567.7875 254.054835 
L 569.1825 254.106103 
L 570.5775 253.884016 
L 571.9725 253.389298 
L 573.3675 252.623552 
L 574.7625 251.589267 
L 576.1575 250.2898 
L 577.5525 248.72937 
L 578.9475 246.913045 
L 581.04 243.721876 
L 583.1325 239.991709 
L 585.225 235.749785 
L 587.3175 231.027085 
L 590.1075 224.042367 
L 592.8975 216.355273 
L 595.6875 208.065564 
L 599.175 197.020524 
L 604.0575 180.687187 
L 615.915 140.55918 
L 619.4025 129.651276 
L 622.1925 121.502417 
L 624.9825 113.9819 
L 627.7725 107.187322 
L 629.865 102.621216 
L 631.9575 98.546616 
L 634.05 94.993278 
L 636.1425 91.987155 
L 637.5375 90.298092 
L 638.9325 88.867563 
L 640.3275 87.700213 
L 641.7225 86.799832 
L 643.1175 86.169344 
L 644.5125 85.810796 
L 645.9075 85.725352 
L 647.3025 85.91329 
L 648.6975 86.373999 
L 650.0925 87.105984 
L 651.4875 88.106868 
L 652.8825 89.373401 
L 654.2775 90.90147 
L 655.6725 92.686114 
L 657.765 95.831258 
L 659.8575 99.517497 
L 661.95 103.717907 
L 664.0425 108.401813 
L 666.8325 115.339522 
L 669.6225 122.985551 
L 672.4125 131.240674 
L 675.9 142.252267 
L 680.7825 158.558196 
L 692.64 198.71791 
L 696.1275 209.660933 
L 698.9175 217.845628 
L 701.7075 225.408367 
L 703.1025 228.925482 
L 703.1025 228.925482 
" style="fill:none;stroke:#55a868;stroke-linecap:round;stroke-width:1.75;"/>
   </g>
   <g id="patch_3">
    <path d="M 90 270.72 
L 90 69.12 
" style="fill:none;stroke:#262626;stroke-linecap:square;stroke-linejoin:miter;stroke-width:1.25;"/>
   </g>
   <g id="patch_4">
    <path d="M 90 270.72 
L 648 270.72 
" style="fill:none;stroke:#262626;stroke-linecap:square;stroke-linejoin:miter;stroke-width:1.25;"/>
   </g>
  </g>
  <g id="axes_2">
   <g id="patch_5">
    <path d="M 90 512.64 
L 648 512.64 
L 648 311.04 
L 90 311.04 
z
" style="fill:#ffffff;"/>
   </g>
   <g id="matplotlib.axis_3">
    <g id="xtick_9">
     <g id="line2d_18">
      <g>
       <use style="fill:#262626;stroke:#262626;" x="90" xlink:href="#md70c2c97d4" y="512.64"/>
      </g>
     </g>
     <g id="text_16">
      <!-- 0 -->
      <g style="fill:#262626;" transform="translate(87.219531 532.797812)scale(0.1 -0.1)">
       <use xlink:href="#ArialMT-30"/>
      </g>
     </g>
    </g>
    <g id="xtick_10">
     <g id="line2d_19">
      <g>
       <use style="fill:#262626;stroke:#262626;" x="159.75" xlink:href="#md70c2c97d4" y="512.64"/>
      </g>
     </g>
     <g id="text_17">
      <!-- 100 -->
      <g style="fill:#262626;" transform="translate(151.408594 532.797812)scale(0.1 -0.1)">
       <use xlink:href="#ArialMT-31"/>
       <use x="55.615234" xlink:href="#ArialMT-30"/>
       <use x="111.230469" xlink:href="#ArialMT-30"/>
      </g>
     </g>
    </g>
    <g id="xtick_11">
     <g id="line2d_20">
      <g>
       <use style="fill:#262626;stroke:#262626;" x="229.5" xlink:href="#md70c2c97d4" y="512.64"/>
      </g>
     </g>
     <g id="text_18">
      <!-- 200 -->
      <g style="fill:#262626;" transform="translate(221.158594 532.797812)scale(0.1 -0.1)">
       <use xlink:href="#ArialMT-32"/>
       <use x="55.615234" xlink:href="#ArialMT-30"/>
       <use x="111.230469" xlink:href="#ArialMT-30"/>
      </g>
     </g>
    </g>
    <g id="xtick_12">
     <g id="line2d_21">
      <g>
       <use style="fill:#262626;stroke:#262626;" x="299.25" xlink:href="#md70c2c97d4" y="512.64"/>
      </g>
     </g>
     <g id="text_19">
      <!-- 300 -->
      <defs>
       <path d="M 4.203125 18.890625 
L 12.984375 20.0625 
Q 14.5 12.59375 18.140625 9.296875 
Q 21.78125 6 27 6 
Q 33.203125 6 37.46875 10.296875 
Q 41.75 14.59375 41.75 20.953125 
Q 41.75 27 37.796875 30.921875 
Q 33.84375 34.859375 27.734375 34.859375 
Q 25.25 34.859375 21.53125 33.890625 
L 22.515625 41.609375 
Q 23.390625 41.5 23.921875 41.5 
Q 29.546875 41.5 34.03125 44.421875 
Q 38.53125 47.359375 38.53125 53.46875 
Q 38.53125 58.296875 35.25 61.46875 
Q 31.984375 64.65625 26.8125 64.65625 
Q 21.6875 64.65625 18.265625 61.421875 
Q 14.84375 58.203125 13.875 51.765625 
L 5.078125 53.328125 
Q 6.6875 62.15625 12.390625 67.015625 
Q 18.109375 71.875 26.609375 71.875 
Q 32.46875 71.875 37.390625 69.359375 
Q 42.328125 66.84375 44.9375 62.5 
Q 47.5625 58.15625 47.5625 53.265625 
Q 47.5625 48.640625 45.0625 44.828125 
Q 42.578125 41.015625 37.703125 38.765625 
Q 44.046875 37.3125 47.5625 32.6875 
Q 51.078125 28.078125 51.078125 21.140625 
Q 51.078125 11.765625 44.234375 5.25 
Q 37.40625 -1.265625 26.953125 -1.265625 
Q 17.53125 -1.265625 11.296875 4.34375 
Q 5.078125 9.96875 4.203125 18.890625 
z
" id="ArialMT-33"/>
      </defs>
      <g style="fill:#262626;" transform="translate(290.908594 532.797812)scale(0.1 -0.1)">
       <use xlink:href="#ArialMT-33"/>
       <use x="55.615234" xlink:href="#ArialMT-30"/>
       <use x="111.230469" xlink:href="#ArialMT-30"/>
      </g>
     </g>
    </g>
    <g id="xtick_13">
     <g id="line2d_22">
      <g>
       <use style="fill:#262626;stroke:#262626;" x="369" xlink:href="#md70c2c97d4" y="512.64"/>
      </g>
     </g>
     <g id="text_20">
      <!-- 400 -->
      <g style="fill:#262626;" transform="translate(360.658594 532.797812)scale(0.1 -0.1)">
       <use xlink:href="#ArialMT-34"/>
       <use x="55.615234" xlink:href="#ArialMT-30"/>
       <use x="111.230469" xlink:href="#ArialMT-30"/>
      </g>
     </g>
    </g>
    <g id="xtick_14">
     <g id="line2d_23">
      <g>
       <use style="fill:#262626;stroke:#262626;" x="438.75" xlink:href="#md70c2c97d4" y="512.64"/>
      </g>
     </g>
     <g id="text_21">
      <!-- 500 -->
      <g style="fill:#262626;" transform="translate(430.408594 532.797812)scale(0.1 -0.1)">
       <use xlink:href="#ArialMT-35"/>
       <use x="55.615234" xlink:href="#ArialMT-30"/>
       <use x="111.230469" xlink:href="#ArialMT-30"/>
      </g>
     </g>
    </g>
    <g id="xtick_15">
     <g id="line2d_24">
      <g>
       <use style="fill:#262626;stroke:#262626;" x="508.5" xlink:href="#md70c2c97d4" y="512.64"/>
      </g>
     </g>
     <g id="text_22">
      <!-- 600 -->
      <g style="fill:#262626;" transform="translate(500.158594 532.797812)scale(0.1 -0.1)">
       <use xlink:href="#ArialMT-36"/>
       <use x="55.615234" xlink:href="#ArialMT-30"/>
       <use x="111.230469" xlink:href="#ArialMT-30"/>
      </g>
     </g>
    </g>
    <g id="xtick_16">
     <g id="line2d_25">
      <g>
       <use style="fill:#262626;stroke:#262626;" x="578.25" xlink:href="#md70c2c97d4" y="512.64"/>
      </g>
     </g>
     <g id="text_23">
      <!-- 700 -->
      <g style="fill:#262626;" transform="translate(569.908594 532.797812)scale(0.1 -0.1)">
       <use xlink:href="#ArialMT-37"/>
       <use x="55.615234" xlink:href="#ArialMT-30"/>
       <use x="111.230469" xlink:href="#ArialMT-30"/>
      </g>
     </g>
    </g>
    <g id="xtick_17">
     <g id="line2d_26">
      <g>
       <use style="fill:#262626;stroke:#262626;" x="648" xlink:href="#md70c2c97d4" y="512.64"/>
      </g>
     </g>
     <g id="text_24">
      <!-- 800 -->
      <defs>
       <path d="M 17.671875 38.8125 
Q 12.203125 40.828125 9.5625 44.53125 
Q 6.9375 48.25 6.9375 53.421875 
Q 6.9375 61.234375 12.546875 66.546875 
Q 18.171875 71.875 27.484375 71.875 
Q 36.859375 71.875 42.578125 66.421875 
Q 48.296875 60.984375 48.296875 53.171875 
Q 48.296875 48.1875 45.671875 44.5 
Q 43.0625 40.828125 37.75 38.8125 
Q 44.34375 36.671875 47.78125 31.875 
Q 51.21875 27.09375 51.21875 20.453125 
Q 51.21875 11.28125 44.71875 5.03125 
Q 38.234375 -1.21875 27.640625 -1.21875 
Q 17.046875 -1.21875 10.546875 5.046875 
Q 4.046875 11.328125 4.046875 20.703125 
Q 4.046875 27.6875 7.59375 32.390625 
Q 11.140625 37.109375 17.671875 38.8125 
z
M 15.921875 53.71875 
Q 15.921875 48.640625 19.1875 45.40625 
Q 22.46875 42.1875 27.6875 42.1875 
Q 32.765625 42.1875 36.015625 45.375 
Q 39.265625 48.578125 39.265625 53.21875 
Q 39.265625 58.0625 35.90625 61.359375 
Q 32.5625 64.65625 27.59375 64.65625 
Q 22.5625 64.65625 19.234375 61.421875 
Q 15.921875 58.203125 15.921875 53.71875 
z
M 13.09375 20.65625 
Q 13.09375 16.890625 14.875 13.375 
Q 16.65625 9.859375 20.171875 7.921875 
Q 23.6875 6 27.734375 6 
Q 34.03125 6 38.125 10.046875 
Q 42.234375 14.109375 42.234375 20.359375 
Q 42.234375 26.703125 38.015625 30.859375 
Q 33.796875 35.015625 27.4375 35.015625 
Q 21.234375 35.015625 17.15625 30.90625 
Q 13.09375 26.8125 13.09375 20.65625 
z
" id="ArialMT-38"/>
      </defs>
      <g style="fill:#262626;" transform="translate(639.658594 532.797812)scale(0.1 -0.1)">
       <use xlink:href="#ArialMT-38"/>
       <use x="55.615234" xlink:href="#ArialMT-30"/>
       <use x="111.230469" xlink:href="#ArialMT-30"/>
      </g>
     </g>
    </g>
    <g id="text_25">
     <!-- Lag [samples] -->
     <defs>
      <path d="M 7.328125 0 
L 7.328125 71.578125 
L 16.796875 71.578125 
L 16.796875 8.453125 
L 52.046875 8.453125 
L 52.046875 0 
z
" id="ArialMT-4c"/>
      <path d="M 40.4375 6.390625 
Q 35.546875 2.25 31.03125 0.53125 
Q 26.515625 -1.171875 21.34375 -1.171875 
Q 12.796875 -1.171875 8.203125 3 
Q 3.609375 7.171875 3.609375 13.671875 
Q 3.609375 17.484375 5.34375 20.625 
Q 7.078125 23.78125 9.890625 25.6875 
Q 12.703125 27.59375 16.21875 28.5625 
Q 18.796875 29.25 24.03125 29.890625 
Q 34.671875 31.15625 39.703125 32.90625 
Q 39.75 34.71875 39.75 35.203125 
Q 39.75 40.578125 37.25 42.78125 
Q 33.890625 45.75 27.25 45.75 
Q 21.046875 45.75 18.09375 43.578125 
Q 15.140625 41.40625 13.71875 35.890625 
L 5.125 37.0625 
Q 6.296875 42.578125 8.984375 45.96875 
Q 11.671875 49.359375 16.75 51.1875 
Q 21.828125 53.03125 28.515625 53.03125 
Q 35.15625 53.03125 39.296875 51.46875 
Q 43.453125 49.90625 45.40625 47.53125 
Q 47.359375 45.171875 48.140625 41.546875 
Q 48.578125 39.3125 48.578125 33.453125 
L 48.578125 21.734375 
Q 48.578125 9.46875 49.140625 6.21875 
Q 49.703125 2.984375 51.375 0 
L 42.1875 0 
Q 40.828125 2.734375 40.4375 6.390625 
z
M 39.703125 26.03125 
Q 34.90625 24.078125 25.34375 22.703125 
Q 19.921875 21.921875 17.671875 20.9375 
Q 15.4375 19.96875 14.203125 18.09375 
Q 12.984375 16.21875 12.984375 13.921875 
Q 12.984375 10.40625 15.640625 8.0625 
Q 18.3125 5.71875 23.4375 5.71875 
Q 28.515625 5.71875 32.46875 7.9375 
Q 36.421875 10.15625 38.28125 14.015625 
Q 39.703125 17 39.703125 22.796875 
z
" id="ArialMT-61"/>
      <path d="M 4.984375 -4.296875 
L 13.53125 -5.5625 
Q 14.0625 -9.515625 16.5 -11.328125 
Q 19.78125 -13.765625 25.4375 -13.765625 
Q 31.546875 -13.765625 34.859375 -11.328125 
Q 38.1875 -8.890625 39.359375 -4.5 
Q 40.046875 -1.8125 39.984375 6.78125 
Q 34.234375 0 25.640625 0 
Q 14.9375 0 9.078125 7.71875 
Q 3.21875 15.4375 3.21875 26.21875 
Q 3.21875 33.640625 5.90625 39.90625 
Q 8.59375 46.1875 13.6875 49.609375 
Q 18.796875 53.03125 25.6875 53.03125 
Q 34.859375 53.03125 40.828125 45.609375 
L 40.828125 51.859375 
L 48.921875 51.859375 
L 48.921875 7.03125 
Q 48.921875 -5.078125 46.453125 -10.125 
Q 44 -15.1875 38.640625 -18.109375 
Q 33.296875 -21.046875 25.484375 -21.046875 
Q 16.21875 -21.046875 10.5 -16.875 
Q 4.78125 -12.703125 4.984375 -4.296875 
z
M 12.25 26.859375 
Q 12.25 16.65625 16.296875 11.96875 
Q 20.359375 7.28125 26.46875 7.28125 
Q 32.515625 7.28125 36.609375 11.9375 
Q 40.71875 16.609375 40.71875 26.5625 
Q 40.71875 36.078125 36.5 40.90625 
Q 32.28125 45.75 26.3125 45.75 
Q 20.453125 45.75 16.34375 40.984375 
Q 12.25 36.234375 12.25 26.859375 
z
" id="ArialMT-67"/>
      <path id="ArialMT-20"/>
      <path d="M 6.78125 -19.875 
L 6.78125 71.578125 
L 26.171875 71.578125 
L 26.171875 64.3125 
L 15.578125 64.3125 
L 15.578125 -12.59375 
L 26.171875 -12.59375 
L 26.171875 -19.875 
z
" id="ArialMT-5b"/>
      <path d="M 3.078125 15.484375 
L 11.765625 16.84375 
Q 12.5 11.625 15.84375 8.84375 
Q 19.1875 6.0625 25.203125 6.0625 
Q 31.25 6.0625 34.171875 8.515625 
Q 37.109375 10.984375 37.109375 14.3125 
Q 37.109375 17.28125 34.515625 19 
Q 32.71875 20.171875 25.53125 21.96875 
Q 15.875 24.421875 12.140625 26.203125 
Q 8.40625 27.984375 6.46875 31.125 
Q 4.546875 34.28125 4.546875 38.09375 
Q 4.546875 41.546875 6.125 44.5 
Q 7.71875 47.46875 10.453125 49.421875 
Q 12.5 50.921875 16.03125 51.96875 
Q 19.578125 53.03125 23.640625 53.03125 
Q 29.734375 53.03125 34.34375 51.265625 
Q 38.96875 49.515625 41.15625 46.5 
Q 43.359375 43.5 44.1875 38.484375 
L 35.59375 37.3125 
Q 35.015625 41.3125 32.203125 43.546875 
Q 29.390625 45.796875 24.265625 45.796875 
Q 18.21875 45.796875 15.625 43.796875 
Q 13.03125 41.796875 13.03125 39.109375 
Q 13.03125 37.40625 14.109375 36.03125 
Q 15.1875 34.625 17.484375 33.6875 
Q 18.796875 33.203125 25.25 31.453125 
Q 34.578125 28.953125 38.25 27.359375 
Q 41.9375 25.78125 44.03125 22.75 
Q 46.140625 19.734375 46.140625 15.234375 
Q 46.140625 10.84375 43.578125 6.953125 
Q 41.015625 3.078125 36.171875 0.953125 
Q 31.34375 -1.171875 25.25 -1.171875 
Q 15.140625 -1.171875 9.84375 3.03125 
Q 4.546875 7.234375 3.078125 15.484375 
z
" id="ArialMT-73"/>
      <path d="M 6.59375 0 
L 6.59375 51.859375 
L 14.453125 51.859375 
L 14.453125 44.578125 
Q 16.890625 48.390625 20.9375 50.703125 
Q 25 53.03125 30.171875 53.03125 
Q 35.9375 53.03125 39.625 50.640625 
Q 43.3125 48.25 44.828125 43.953125 
Q 50.984375 53.03125 60.84375 53.03125 
Q 68.5625 53.03125 72.703125 48.75 
Q 76.859375 44.484375 76.859375 35.59375 
L 76.859375 0 
L 68.109375 0 
L 68.109375 32.671875 
Q 68.109375 37.9375 67.25 40.25 
Q 66.40625 42.578125 64.15625 43.984375 
Q 61.921875 45.40625 58.890625 45.40625 
Q 53.421875 45.40625 49.796875 41.765625 
Q 46.1875 38.140625 46.1875 30.125 
L 46.1875 0 
L 37.40625 0 
L 37.40625 33.6875 
Q 37.40625 39.546875 35.25 42.46875 
Q 33.109375 45.40625 28.21875 45.40625 
Q 24.515625 45.40625 21.359375 43.453125 
Q 18.21875 41.5 16.796875 37.734375 
Q 15.375 33.984375 15.375 26.90625 
L 15.375 0 
z
" id="ArialMT-6d"/>
      <path d="M 6.59375 -19.875 
L 6.59375 51.859375 
L 14.59375 51.859375 
L 14.59375 45.125 
Q 17.4375 49.078125 21 51.046875 
Q 24.5625 53.03125 29.640625 53.03125 
Q 36.28125 53.03125 41.359375 49.609375 
Q 46.4375 46.1875 49.015625 39.953125 
Q 51.609375 33.734375 51.609375 26.3125 
Q 51.609375 18.359375 48.75 11.984375 
Q 45.90625 5.609375 40.453125 2.21875 
Q 35.015625 -1.171875 29 -1.171875 
Q 24.609375 -1.171875 21.109375 0.6875 
Q 17.625 2.546875 15.375 5.375 
L 15.375 -19.875 
z
M 14.546875 25.640625 
Q 14.546875 15.625 18.59375 10.84375 
Q 22.65625 6.0625 28.421875 6.0625 
Q 34.28125 6.0625 38.453125 11.015625 
Q 42.625 15.96875 42.625 26.375 
Q 42.625 36.28125 38.546875 41.203125 
Q 34.46875 46.140625 28.8125 46.140625 
Q 23.1875 46.140625 18.859375 40.890625 
Q 14.546875 35.640625 14.546875 25.640625 
z
" id="ArialMT-70"/>
      <path d="M 6.390625 0 
L 6.390625 71.578125 
L 15.1875 71.578125 
L 15.1875 0 
z
" id="ArialMT-6c"/>
      <path d="M 42.09375 16.703125 
L 51.171875 15.578125 
Q 49.03125 7.625 43.21875 3.21875 
Q 37.40625 -1.171875 28.375 -1.171875 
Q 17 -1.171875 10.328125 5.828125 
Q 3.65625 12.84375 3.65625 25.484375 
Q 3.65625 38.578125 10.390625 45.796875 
Q 17.140625 53.03125 27.875 53.03125 
Q 38.28125 53.03125 44.875 45.953125 
Q 51.46875 38.875 51.46875 26.03125 
Q 51.46875 25.25 51.421875 23.6875 
L 12.75 23.6875 
Q 13.234375 15.140625 17.578125 10.59375 
Q 21.921875 6.0625 28.421875 6.0625 
Q 33.25 6.0625 36.671875 8.59375 
Q 40.09375 11.140625 42.09375 16.703125 
z
M 13.234375 30.90625 
L 42.1875 30.90625 
Q 41.609375 37.453125 38.875 40.71875 
Q 34.671875 45.796875 27.984375 45.796875 
Q 21.921875 45.796875 17.796875 41.75 
Q 13.671875 37.703125 13.234375 30.90625 
z
" id="ArialMT-65"/>
      <path d="M 21.296875 -19.875 
L 1.90625 -19.875 
L 1.90625 -12.59375 
L 12.5 -12.59375 
L 12.5 64.3125 
L 1.90625 64.3125 
L 1.90625 71.578125 
L 21.296875 71.578125 
z
" id="ArialMT-5d"/>
     </defs>
     <g style="fill:#262626;" transform="translate(334.761641 546.658906)scale(0.11 -0.11)">
      <use xlink:href="#ArialMT-4c"/>
      <use x="55.615234" xlink:href="#ArialMT-61"/>
      <use x="111.230469" xlink:href="#ArialMT-67"/>
      <use x="166.845703" xlink:href="#ArialMT-20"/>
      <use x="194.628906" xlink:href="#ArialMT-5b"/>
      <use x="222.412109" xlink:href="#ArialMT-73"/>
      <use x="272.412109" xlink:href="#ArialMT-61"/>
      <use x="328.027344" xlink:href="#ArialMT-6d"/>
      <use x="411.328125" xlink:href="#ArialMT-70"/>
      <use x="466.943359" xlink:href="#ArialMT-6c"/>
      <use x="489.160156" xlink:href="#ArialMT-65"/>
      <use x="544.775391" xlink:href="#ArialMT-73"/>
      <use x="594.775391" xlink:href="#ArialMT-5d"/>
     </g>
    </g>
   </g>
   <g id="matplotlib.axis_4">
    <g id="ytick_8">
     <g id="line2d_27">
      <g>
       <use style="fill:#262626;stroke:#262626;" x="90" xlink:href="#m1946f24052" y="512.64"/>
      </g>
     </g>
     <g id="text_26">
      <!-- −0.20 -->
      <g style="fill:#262626;" transform="translate(51.698437 516.218906)scale(0.1 -0.1)">
       <use xlink:href="#ArialMT-2212"/>
       <use x="58.398438" xlink:href="#ArialMT-30"/>
       <use x="114.013672" xlink:href="#ArialMT-2e"/>
       <use x="141.796875" xlink:href="#ArialMT-32"/>
       <use x="197.412109" xlink:href="#ArialMT-30"/>
      </g>
     </g>
    </g>
    <g id="ytick_9">
     <g id="line2d_28">
      <g>
       <use style="fill:#262626;stroke:#262626;" x="90" xlink:href="#m1946f24052" y="487.44"/>
      </g>
     </g>
     <g id="text_27">
      <!-- −0.15 -->
      <g style="fill:#262626;" transform="translate(51.698437 491.018906)scale(0.1 -0.1)">
       <use xlink:href="#ArialMT-2212"/>
       <use x="58.398438" xlink:href="#ArialMT-30"/>
       <use x="114.013672" xlink:href="#ArialMT-2e"/>
       <use x="141.796875" xlink:href="#ArialMT-31"/>
       <use x="197.412109" xlink:href="#ArialMT-35"/>
      </g>
     </g>
    </g>
    <g id="ytick_10">
     <g id="line2d_29">
      <g>
       <use style="fill:#262626;stroke:#262626;" x="90" xlink:href="#m1946f24052" y="462.24"/>
      </g>
     </g>
     <g id="text_28">
      <!-- −0.10 -->
      <g style="fill:#262626;" transform="translate(51.698437 465.818906)scale(0.1 -0.1)">
       <use xlink:href="#ArialMT-2212"/>
       <use x="58.398438" xlink:href="#ArialMT-30"/>
       <use x="114.013672" xlink:href="#ArialMT-2e"/>
       <use x="141.796875" xlink:href="#ArialMT-31"/>
       <use x="197.412109" xlink:href="#ArialMT-30"/>
      </g>
     </g>
    </g>
    <g id="ytick_11">
     <g id="line2d_30">
      <g>
       <use style="fill:#262626;stroke:#262626;" x="90" xlink:href="#m1946f24052" y="437.04"/>
      </g>
     </g>
     <g id="text_29">
      <!-- −0.05 -->
      <g style="fill:#262626;" transform="translate(51.698437 440.618906)scale(0.1 -0.1)">
       <use xlink:href="#ArialMT-2212"/>
       <use x="58.398438" xlink:href="#ArialMT-30"/>
       <use x="114.013672" xlink:href="#ArialMT-2e"/>
       <use x="141.796875" xlink:href="#ArialMT-30"/>
       <use x="197.412109" xlink:href="#ArialMT-35"/>
      </g>
     </g>
    </g>
    <g id="ytick_12">
     <g id="line2d_31">
      <g>
       <use style="fill:#262626;stroke:#262626;" x="90" xlink:href="#m1946f24052" y="411.84"/>
      </g>
     </g>
     <g id="text_30">
      <!-- 0.00 -->
      <g style="fill:#262626;" transform="translate(57.539062 415.418906)scale(0.1 -0.1)">
       <use xlink:href="#ArialMT-30"/>
       <use x="55.615234" xlink:href="#ArialMT-2e"/>
       <use x="83.398438" xlink:href="#ArialMT-30"/>
       <use x="139.013672" xlink:href="#ArialMT-30"/>
      </g>
     </g>
    </g>
    <g id="ytick_13">
     <g id="line2d_32">
      <g>
       <use style="fill:#262626;stroke:#262626;" x="90" xlink:href="#m1946f24052" y="386.64"/>
      </g>
     </g>
     <g id="text_31">
      <!-- 0.05 -->
      <g style="fill:#262626;" transform="translate(57.539062 390.218906)scale(0.1 -0.1)">
       <use xlink:href="#ArialMT-30"/>
       <use x="55.615234" xlink:href="#ArialMT-2e"/>
       <use x="83.398438" xlink:href="#ArialMT-30"/>
       <use x="139.013672" xlink:href="#ArialMT-35"/>
      </g>
     </g>
    </g>
    <g id="ytick_14">
     <g id="line2d_33">
      <g>
       <use style="fill:#262626;stroke:#262626;" x="90" xlink:href="#m1946f24052" y="361.44"/>
      </g>
     </g>
     <g id="text_32">
      <!-- 0.10 -->
      <g style="fill:#262626;" transform="translate(57.539062 365.018906)scale(0.1 -0.1)">
       <use xlink:href="#ArialMT-30"/>
       <use x="55.615234" xlink:href="#ArialMT-2e"/>
       <use x="83.398438" xlink:href="#ArialMT-31"/>
       <use x="139.013672" xlink:href="#ArialMT-30"/>
      </g>
     </g>
    </g>
    <g id="ytick_15">
     <g id="line2d_34">
      <g>
       <use style="fill:#262626;stroke:#262626;" x="90" xlink:href="#m1946f24052" y="336.24"/>
      </g>
     </g>
     <g id="text_33">
      <!-- 0.15 -->
      <g style="fill:#262626;" transform="translate(57.539062 339.818906)scale(0.1 -0.1)">
       <use xlink:href="#ArialMT-30"/>
       <use x="55.615234" xlink:href="#ArialMT-2e"/>
       <use x="83.398438" xlink:href="#ArialMT-31"/>
       <use x="139.013672" xlink:href="#ArialMT-35"/>
      </g>
     </g>
    </g>
    <g id="ytick_16">
     <g id="line2d_35">
      <g>
       <use style="fill:#262626;stroke:#262626;" x="90" xlink:href="#m1946f24052" y="311.04"/>
      </g>
     </g>
     <g id="text_34">
      <!-- 0.20 -->
      <g style="fill:#262626;" transform="translate(57.539062 314.618906)scale(0.1 -0.1)">
       <use xlink:href="#ArialMT-30"/>
       <use x="55.615234" xlink:href="#ArialMT-2e"/>
       <use x="83.398438" xlink:href="#ArialMT-32"/>
       <use x="139.013672" xlink:href="#ArialMT-30"/>
      </g>
     </g>
    </g>
    <g id="text_35">
     <!-- Correlation -->
     <defs>
      <path d="M 58.796875 25.09375 
L 68.265625 22.703125 
Q 65.28125 11.03125 57.546875 4.90625 
Q 49.8125 -1.21875 38.625 -1.21875 
Q 27.046875 -1.21875 19.796875 3.484375 
Q 12.546875 8.203125 8.765625 17.140625 
Q 4.984375 26.078125 4.984375 36.328125 
Q 4.984375 47.515625 9.25 55.828125 
Q 13.53125 64.15625 21.40625 68.46875 
Q 29.296875 72.796875 38.765625 72.796875 
Q 49.515625 72.796875 56.828125 67.328125 
Q 64.15625 61.859375 67.046875 51.953125 
L 57.71875 49.75 
Q 55.21875 57.5625 50.484375 61.125 
Q 45.75 64.703125 38.578125 64.703125 
Q 30.328125 64.703125 24.78125 60.734375 
Q 19.234375 56.78125 16.984375 50.109375 
Q 14.75 43.453125 14.75 36.375 
Q 14.75 27.25 17.40625 20.4375 
Q 20.0625 13.625 25.671875 10.25 
Q 31.296875 6.890625 37.84375 6.890625 
Q 45.796875 6.890625 51.3125 11.46875 
Q 56.84375 16.0625 58.796875 25.09375 
z
" id="ArialMT-43"/>
      <path d="M 3.328125 25.921875 
Q 3.328125 40.328125 11.328125 47.265625 
Q 18.015625 53.03125 27.640625 53.03125 
Q 38.328125 53.03125 45.109375 46.015625 
Q 51.90625 39.015625 51.90625 26.65625 
Q 51.90625 16.65625 48.90625 10.90625 
Q 45.90625 5.171875 40.15625 2 
Q 34.421875 -1.171875 27.640625 -1.171875 
Q 16.75 -1.171875 10.03125 5.8125 
Q 3.328125 12.796875 3.328125 25.921875 
z
M 12.359375 25.921875 
Q 12.359375 15.96875 16.703125 11.015625 
Q 21.046875 6.0625 27.640625 6.0625 
Q 34.1875 6.0625 38.53125 11.03125 
Q 42.875 16.015625 42.875 26.21875 
Q 42.875 35.84375 38.5 40.796875 
Q 34.125 45.75 27.640625 45.75 
Q 21.046875 45.75 16.703125 40.8125 
Q 12.359375 35.890625 12.359375 25.921875 
z
" id="ArialMT-6f"/>
      <path d="M 6.5 0 
L 6.5 51.859375 
L 14.40625 51.859375 
L 14.40625 44 
Q 17.4375 49.515625 20 51.265625 
Q 22.5625 53.03125 25.640625 53.03125 
Q 30.078125 53.03125 34.671875 50.203125 
L 31.640625 42.046875 
Q 28.421875 43.953125 25.203125 43.953125 
Q 22.3125 43.953125 20.015625 42.21875 
Q 17.71875 40.484375 16.75 37.40625 
Q 15.28125 32.71875 15.28125 27.15625 
L 15.28125 0 
z
" id="ArialMT-72"/>
      <path d="M 25.78125 7.859375 
L 27.046875 0.09375 
Q 23.34375 -0.6875 20.40625 -0.6875 
Q 15.625 -0.6875 12.984375 0.828125 
Q 10.359375 2.34375 9.28125 4.8125 
Q 8.203125 7.28125 8.203125 15.1875 
L 8.203125 45.015625 
L 1.765625 45.015625 
L 1.765625 51.859375 
L 8.203125 51.859375 
L 8.203125 64.703125 
L 16.9375 69.96875 
L 16.9375 51.859375 
L 25.78125 51.859375 
L 25.78125 45.015625 
L 16.9375 45.015625 
L 16.9375 14.703125 
Q 16.9375 10.9375 17.40625 9.859375 
Q 17.875 8.796875 18.921875 8.15625 
Q 19.96875 7.515625 21.921875 7.515625 
Q 23.390625 7.515625 25.78125 7.859375 
z
" id="ArialMT-74"/>
      <path d="M 6.640625 61.46875 
L 6.640625 71.578125 
L 15.4375 71.578125 
L 15.4375 61.46875 
z
M 6.640625 0 
L 6.640625 51.859375 
L 15.4375 51.859375 
L 15.4375 0 
z
" id="ArialMT-69"/>
      <path d="M 6.59375 0 
L 6.59375 51.859375 
L 14.5 51.859375 
L 14.5 44.484375 
Q 20.21875 53.03125 31 53.03125 
Q 35.6875 53.03125 39.625 51.34375 
Q 43.5625 49.65625 45.515625 46.921875 
Q 47.46875 44.1875 48.25 40.4375 
Q 48.734375 37.984375 48.734375 31.890625 
L 48.734375 0 
L 39.9375 0 
L 39.9375 31.546875 
Q 39.9375 36.921875 38.90625 39.578125 
Q 37.890625 42.234375 35.28125 43.8125 
Q 32.671875 45.40625 29.15625 45.40625 
Q 23.53125 45.40625 19.453125 41.84375 
Q 15.375 38.28125 15.375 28.328125 
L 15.375 0 
z
" id="ArialMT-6e"/>
     </defs>
     <g style="fill:#262626;" transform="translate(45.512187 438.739297)rotate(-90)scale(0.11 -0.11)">
      <use xlink:href="#ArialMT-43"/>
      <use x="72.216797" xlink:href="#ArialMT-6f"/>
      <use x="127.832031" xlink:href="#ArialMT-72"/>
      <use x="161.132812" xlink:href="#ArialMT-72"/>
      <use x="194.433594" xlink:href="#ArialMT-65"/>
      <use x="250.048828" xlink:href="#ArialMT-6c"/>
      <use x="272.265625" xlink:href="#ArialMT-61"/>
      <use x="327.880859" xlink:href="#ArialMT-74"/>
      <use x="355.664062" xlink:href="#ArialMT-69"/>
      <use x="377.880859" xlink:href="#ArialMT-6f"/>
      <use x="433.496094" xlink:href="#ArialMT-6e"/>
     </g>
    </g>
   </g>
   <g id="PolyCollection_1">
    <path clip-path="url(#pab5d32d440)" d="M 90 409.60492 
L 90 411.84 
L 90.6975 411.84 
L 91.395 411.84 
L 92.0925 411.84 
L 92.79 411.84 
L 93.4875 411.84 
L 94.185 411.84 
L 94.8825 411.84 
L 95.58 411.84 
L 96.2775 411.84 
L 96.975 411.84 
L 97.6725 411.84 
L 98.37 411.84 
L 99.0675 411.84 
L 99.765 411.84 
L 100.4625 411.84 
L 101.16 411.84 
L 101.8575 411.84 
L 102.555 411.84 
L 103.2525 411.84 
L 103.95 411.84 
L 104.6475 411.84 
L 105.345 411.84 
L 106.0425 411.84 
L 106.74 411.84 
L 107.4375 411.84 
L 108.135 411.84 
L 108.8325 411.84 
L 109.53 411.84 
L 110.2275 411.84 
L 110.925 411.84 
L 111.6225 411.84 
L 112.32 411.84 
L 113.0175 411.84 
L 113.715 411.84 
L 114.4125 411.84 
L 115.11 411.84 
L 115.8075 411.84 
L 116.505 411.84 
L 117.2025 411.84 
L 117.9 411.84 
L 118.5975 411.84 
L 119.295 411.84 
L 119.9925 411.84 
L 120.69 411.84 
L 121.3875 411.84 
L 122.085 411.84 
L 122.7825 411.84 
L 123.48 411.84 
L 124.1775 411.84 
L 124.875 411.84 
L 125.5725 411.84 
L 126.27 411.84 
L 126.9675 411.84 
L 127.665 411.84 
L 128.3625 411.84 
L 129.06 411.84 
L 129.7575 411.84 
L 130.455 411.84 
L 131.1525 411.84 
L 131.85 411.84 
L 132.5475 411.84 
L 133.245 411.84 
L 133.9425 411.84 
L 134.64 411.84 
L 135.3375 411.84 
L 136.035 411.84 
L 136.7325 411.84 
L 137.43 411.84 
L 138.1275 411.84 
L 138.825 411.84 
L 139.5225 411.84 
L 140.22 411.84 
L 140.9175 411.84 
L 141.615 411.84 
L 142.3125 411.84 
L 143.01 411.84 
L 143.7075 411.84 
L 144.405 411.84 
L 145.1025 411.84 
L 145.1025 413.580073 
L 145.1025 413.580073 
L 144.405 413.54121 
L 143.7075 413.505345 
L 143.01 413.472566 
L 142.3125 413.442941 
L 141.615 413.416516 
L 140.9175 413.393321 
L 140.22 413.37336 
L 139.5225 413.356622 
L 138.825 413.343072 
L 138.1275 413.332657 
L 137.43 413.325305 
L 136.7325 413.320922 
L 136.035 413.319397 
L 135.3375 413.320602 
L 134.64 413.324388 
L 133.9425 413.330592 
L 133.245 413.339033 
L 132.5475 413.349517 
L 131.85 413.361831 
L 131.1525 413.375754 
L 130.455 413.391049 
L 129.7575 413.407468 
L 129.06 413.424755 
L 128.3625 413.44264 
L 127.665 413.460851 
L 126.9675 413.479106 
L 126.27 413.497117 
L 125.5725 413.514595 
L 124.875 413.531244 
L 124.1775 413.546771 
L 123.48 413.56088 
L 122.7825 413.573277 
L 122.085 413.583672 
L 121.3875 413.591776 
L 120.69 413.597308 
L 119.9925 413.599992 
L 119.295 413.599562 
L 118.5975 413.595758 
L 117.9 413.588333 
L 117.2025 413.57705 
L 116.505 413.561686 
L 115.8075 413.542031 
L 115.11 413.51789 
L 114.4125 413.489083 
L 113.715 413.455449 
L 113.0175 413.416843 
L 112.32 413.373138 
L 111.6225 413.324226 
L 110.925 413.270022 
L 110.2275 413.210457 
L 109.53 413.145485 
L 108.8325 413.075082 
L 108.135 412.999243 
L 107.4375 412.917989 
L 106.74 412.831358 
L 106.0425 412.739413 
L 105.345 412.64224 
L 104.6475 412.539943 
L 103.95 412.432653 
L 103.2525 412.320517 
L 102.555 412.203707 
L 101.8575 412.082415 
L 101.16 411.956851 
L 100.4625 411.827246 
L 99.765 411.69385 
L 99.0675 411.556931 
L 98.37 411.416774 
L 97.6725 411.273679 
L 96.975 411.127963 
L 96.2775 410.979957 
L 95.58 410.830004 
L 94.8825 410.67846 
L 94.185 410.525691 
L 93.4875 410.372074 
L 92.79 410.217993 
L 92.0925 410.063839 
L 91.395 409.910007 
L 90.6975 409.7569 
L 90 409.60492 
z
" style="fill:#e0ffff;"/>
   </g>
   <g id="line2d_36">
    <path clip-path="url(#pab5d32d440)" d="M 90 409.60492 
L 90.6975 409.7569 
L 91.395 409.910007 
L 92.0925 410.063839 
L 92.79 410.217993 
L 93.4875 410.372074 
L 94.185 410.525691 
L 94.8825 410.67846 
L 95.58 410.830004 
L 96.2775 410.979957 
L 96.975 411.127963 
L 97.6725 411.273679 
L 98.37 411.416774 
L 99.0675 411.556931 
L 99.765 411.69385 
L 100.4625 411.827246 
L 101.16 411.956851 
L 101.8575 412.082415 
L 102.555 412.203707 
L 103.2525 412.320517 
L 103.95 412.432653 
L 104.6475 412.539943 
L 105.345 412.64224 
L 106.0425 412.739413 
L 106.74 412.831358 
L 107.4375 412.917989 
L 108.135 412.999243 
L 108.8325 413.075082 
L 109.53 413.145485 
L 110.2275 413.210457 
L 110.925 413.270022 
L 111.6225 413.324226 
L 112.32 413.373138 
L 113.0175 413.416843 
L 113.715 413.455449 
L 114.4125 413.489083 
L 115.11 413.51789 
L 115.8075 413.542031 
L 116.505 413.561686 
L 117.2025 413.57705 
L 117.9 413.588333 
L 118.5975 413.595758 
L 119.295 413.599562 
L 119.9925 413.599992 
L 120.69 413.597308 
L 121.3875 413.591776 
L 122.085 413.583672 
L 122.7825 413.573277 
L 123.48 413.56088 
L 124.1775 413.546771 
L 124.875 413.531244 
L 125.5725 413.514595 
L 126.27 413.497117 
L 126.9675 413.479106 
L 127.665 413.460851 
L 128.3625 413.44264 
L 129.06 413.424755 
L 129.7575 413.407468 
L 130.455 413.391049 
L 131.1525 413.375754 
L 131.85 413.361831 
L 132.5475 413.349517 
L 133.245 413.339033 
L 133.9425 413.330592 
L 134.64 413.324388 
L 135.3375 413.320602 
L 136.035 413.319397 
L 136.7325 413.320922 
L 137.43 413.325305 
L 138.1275 413.332657 
L 138.825 413.343072 
L 139.5225 413.356622 
L 140.22 413.37336 
L 140.9175 413.393321 
L 141.615 413.416516 
L 142.3125 413.442941 
L 143.01 413.472566 
L 143.7075 413.505345 
L 144.405 413.54121 
L 145.1025 413.580073 
" style="fill:none;stroke:#008080;stroke-linecap:round;stroke-width:1.75;"/>
   </g>
   <g id="patch_6">
    <path d="M 90 512.64 
L 90 311.04 
" style="fill:none;stroke:#262626;stroke-linecap:square;stroke-linejoin:miter;stroke-width:1.25;"/>
   </g>
   <g id="patch_7">
    <path d="M 90 512.64 
L 648 512.64 
" style="fill:none;stroke:#262626;stroke-linecap:square;stroke-linejoin:miter;stroke-width:1.25;"/>
   </g>
  </g>
 </g>
 <defs>
  <clipPath id="p95274ab6d0">
   <rect height="201.6" width="558" x="90" y="69.12"/>
  </clipPath>
  <clipPath id="pab5d32d440">
   <rect height="201.6" width="558" x="90" y="311.04"/>
  </clipPath>
 </defs>
</svg>
