<?xml version="1.0" encoding="utf-8" standalone="no"?>
<!DOCTYPE svg PUBLIC "-//W3C//DTD SVG 1.1//EN"
  "http://www.w3.org/Graphics/SVG/1.1/DTD/svg11.dtd">
<!-- Created with matplotlib (http://matplotlib.org/) -->
<svg height="576pt" version="1.1" viewBox="0 0 720 576" width="720pt" xmlns="http://www.w3.org/2000/svg" xmlns:xlink="http://www.w3.org/1999/xlink">
 <defs>
  <style type="text/css">
*{stroke-linecap:butt;stroke-linejoin:round;}
  </style>
 </defs>
 <g id="figure_1">
  <g id="patch_1">
   <path d="M 0 576 
L 720 576 
L 720 0 
L 0 0 
z
" style="fill:#ffffff;"/>
  </g>
  <g id="axes_1">
   <g id="patch_2">
    <path d="M 90 270.72 
L 648 270.72 
L 648 69.12 
L 90 69.12 
z
" style="fill:#ffffff;"/>
   </g>
   <g id="matplotlib.axis_1">
    <g id="xtick_1">
     <g id="line2d_1">
      <defs>
       <path d="M 0 0 
L 0 6 
" id="m8bdcd49f77" style="stroke:#262626;"/>
      </defs>
      <g>
       <use style="fill:#262626;stroke:#262626;" x="90" xlink:href="#m8bdcd49f77" y="270.72"/>
      </g>
     </g>
     <g id="text_1">
      <!-- 0 -->
      <defs>
       <path d="M 4.15625 35.296875 
Q 4.15625 48 6.765625 55.734375 
Q 9.375 63.484375 14.515625 67.671875 
Q 19.671875 71.875 27.484375 71.875 
Q 33.25 71.875 37.59375 69.546875 
Q 41.9375 67.234375 44.765625 62.859375 
Q 47.609375 58.5 49.21875 52.21875 
Q 50.828125 45.953125 50.828125 35.296875 
Q 50.828125 22.703125 48.234375 14.96875 
Q 45.65625 7.234375 40.5 3 
Q 35.359375 -1.21875 27.484375 -1.21875 
Q 17.140625 -1.21875 11.234375 6.203125 
Q 4.15625 15.140625 4.15625 35.296875 
z
M 13.1875 35.296875 
Q 13.1875 17.671875 17.3125 11.828125 
Q 21.4375 6 27.484375 6 
Q 33.546875 6 37.671875 11.859375 
Q 41.796875 17.71875 41.796875 35.296875 
Q 41.796875 52.984375 37.671875 58.78125 
Q 33.546875 64.59375 27.390625 64.59375 
Q 21.34375 64.59375 17.71875 59.46875 
Q 13.1875 52.9375 13.1875 35.296875 
z
" id="ArialMT-30"/>
      </defs>
      <g style="fill:#262626;" transform="translate(87.219531 290.877812)scale(0.1 -0.1)">
       <use xlink:href="#ArialMT-30"/>
      </g>
     </g>
    </g>
    <g id="xtick_2">
     <g id="line2d_2">
      <g>
       <use style="fill:#262626;stroke:#262626;" x="198.984375" xlink:href="#m8bdcd49f77" y="270.72"/>
      </g>
     </g>
     <g id="text_2">
      <!-- 200 -->
      <defs>
       <path d="M 50.34375 8.453125 
L 50.34375 0 
L 3.03125 0 
Q 2.9375 3.171875 4.046875 6.109375 
Q 5.859375 10.9375 9.828125 15.625 
Q 13.8125 20.3125 21.34375 26.46875 
Q 33.015625 36.03125 37.109375 41.625 
Q 41.21875 47.21875 41.21875 52.203125 
Q 41.21875 57.421875 37.46875 61 
Q 33.734375 64.59375 27.734375 64.59375 
Q 21.390625 64.59375 17.578125 60.78125 
Q 13.765625 56.984375 13.71875 50.25 
L 4.6875 51.171875 
Q 5.609375 61.28125 11.65625 66.578125 
Q 17.71875 71.875 27.9375 71.875 
Q 38.234375 71.875 44.234375 66.15625 
Q 50.25 60.453125 50.25 52 
Q 50.25 47.703125 48.484375 43.546875 
Q 46.734375 39.40625 42.65625 34.8125 
Q 38.578125 30.21875 29.109375 22.21875 
Q 21.1875 15.578125 18.9375 13.203125 
Q 16.703125 10.84375 15.234375 8.453125 
z
" id="ArialMT-32"/>
      </defs>
      <g style="fill:#262626;" transform="translate(190.642969 290.877812)scale(0.1 -0.1)">
       <use xlink:href="#ArialMT-32"/>
       <use x="55.615234" xlink:href="#ArialMT-30"/>
       <use x="111.230469" xlink:href="#ArialMT-30"/>
      </g>
     </g>
    </g>
    <g id="xtick_3">
     <g id="line2d_3">
      <g>
       <use style="fill:#262626;stroke:#262626;" x="307.96875" xlink:href="#m8bdcd49f77" y="270.72"/>
      </g>
     </g>
     <g id="text_3">
      <!-- 400 -->
      <defs>
       <path d="M 32.328125 0 
L 32.328125 17.140625 
L 1.265625 17.140625 
L 1.265625 25.203125 
L 33.9375 71.578125 
L 41.109375 71.578125 
L 41.109375 25.203125 
L 50.78125 25.203125 
L 50.78125 17.140625 
L 41.109375 17.140625 
L 41.109375 0 
z
M 32.328125 25.203125 
L 32.328125 57.46875 
L 9.90625 25.203125 
z
" id="ArialMT-34"/>
      </defs>
      <g style="fill:#262626;" transform="translate(299.627344 290.877812)scale(0.1 -0.1)">
       <use xlink:href="#ArialMT-34"/>
       <use x="55.615234" xlink:href="#ArialMT-30"/>
       <use x="111.230469" xlink:href="#ArialMT-30"/>
      </g>
     </g>
    </g>
    <g id="xtick_4">
     <g id="line2d_4">
      <g>
       <use style="fill:#262626;stroke:#262626;" x="416.953125" xlink:href="#m8bdcd49f77" y="270.72"/>
      </g>
     </g>
     <g id="text_4">
      <!-- 600 -->
      <defs>
       <path d="M 49.75 54.046875 
L 41.015625 53.375 
Q 39.84375 58.546875 37.703125 60.890625 
Q 34.125 64.65625 28.90625 64.65625 
Q 24.703125 64.65625 21.53125 62.3125 
Q 17.390625 59.28125 14.984375 53.46875 
Q 12.59375 47.65625 12.5 36.921875 
Q 15.671875 41.75 20.265625 44.09375 
Q 24.859375 46.4375 29.890625 46.4375 
Q 38.671875 46.4375 44.84375 39.96875 
Q 51.03125 33.5 51.03125 23.25 
Q 51.03125 16.5 48.125 10.71875 
Q 45.21875 4.9375 40.140625 1.859375 
Q 35.0625 -1.21875 28.609375 -1.21875 
Q 17.625 -1.21875 10.6875 6.859375 
Q 3.765625 14.9375 3.765625 33.5 
Q 3.765625 54.25 11.421875 63.671875 
Q 18.109375 71.875 29.4375 71.875 
Q 37.890625 71.875 43.28125 67.140625 
Q 48.6875 62.40625 49.75 54.046875 
z
M 13.875 23.1875 
Q 13.875 18.65625 15.796875 14.5 
Q 17.71875 10.359375 21.1875 8.171875 
Q 24.65625 6 28.46875 6 
Q 34.03125 6 38.03125 10.484375 
Q 42.046875 14.984375 42.046875 22.703125 
Q 42.046875 30.125 38.078125 34.390625 
Q 34.125 38.671875 28.125 38.671875 
Q 22.171875 38.671875 18.015625 34.390625 
Q 13.875 30.125 13.875 23.1875 
z
" id="ArialMT-36"/>
      </defs>
      <g style="fill:#262626;" transform="translate(408.611719 290.877812)scale(0.1 -0.1)">
       <use xlink:href="#ArialMT-36"/>
       <use x="55.615234" xlink:href="#ArialMT-30"/>
       <use x="111.230469" xlink:href="#ArialMT-30"/>
      </g>
     </g>
    </g>
    <g id="xtick_5">
     <g id="line2d_5">
      <g>
       <use style="fill:#262626;stroke:#262626;" x="525.9375" xlink:href="#m8bdcd49f77" y="270.72"/>
      </g>
     </g>
     <g id="text_5">
      <!-- 800 -->
      <defs>
       <path d="M 17.671875 38.8125 
Q 12.203125 40.828125 9.5625 44.53125 
Q 6.9375 48.25 6.9375 53.421875 
Q 6.9375 61.234375 12.546875 66.546875 
Q 18.171875 71.875 27.484375 71.875 
Q 36.859375 71.875 42.578125 66.421875 
Q 48.296875 60.984375 48.296875 53.171875 
Q 48.296875 48.1875 45.671875 44.5 
Q 43.0625 40.828125 37.75 38.8125 
Q 44.34375 36.671875 47.78125 31.875 
Q 51.21875 27.09375 51.21875 20.453125 
Q 51.21875 11.28125 44.71875 5.03125 
Q 38.234375 -1.21875 27.640625 -1.21875 
Q 17.046875 -1.21875 10.546875 5.046875 
Q 4.046875 11.328125 4.046875 20.703125 
Q 4.046875 27.6875 7.59375 32.390625 
Q 11.140625 37.109375 17.671875 38.8125 
z
M 15.921875 53.71875 
Q 15.921875 48.640625 19.1875 45.40625 
Q 22.46875 42.1875 27.6875 42.1875 
Q 32.765625 42.1875 36.015625 45.375 
Q 39.265625 48.578125 39.265625 53.21875 
Q 39.265625 58.0625 35.90625 61.359375 
Q 32.5625 64.65625 27.59375 64.65625 
Q 22.5625 64.65625 19.234375 61.421875 
Q 15.921875 58.203125 15.921875 53.71875 
z
M 13.09375 20.65625 
Q 13.09375 16.890625 14.875 13.375 
Q 16.65625 9.859375 20.171875 7.921875 
Q 23.6875 6 27.734375 6 
Q 34.03125 6 38.125 10.046875 
Q 42.234375 14.109375 42.234375 20.359375 
Q 42.234375 26.703125 38.015625 30.859375 
Q 33.796875 35.015625 27.4375 35.015625 
Q 21.234375 35.015625 17.15625 30.90625 
Q 13.09375 26.8125 13.09375 20.65625 
z
" id="ArialMT-38"/>
      </defs>
      <g style="fill:#262626;" transform="translate(517.596094 290.877812)scale(0.1 -0.1)">
       <use xlink:href="#ArialMT-38"/>
       <use x="55.615234" xlink:href="#ArialMT-30"/>
       <use x="111.230469" xlink:href="#ArialMT-30"/>
      </g>
     </g>
    </g>
    <g id="xtick_6">
     <g id="line2d_6">
      <g>
       <use style="fill:#262626;stroke:#262626;" x="634.921875" xlink:href="#m8bdcd49f77" y="270.72"/>
      </g>
     </g>
     <g id="text_6">
      <!-- 1000 -->
      <defs>
       <path d="M 37.25 0 
L 28.46875 0 
L 28.46875 56 
Q 25.296875 52.984375 20.140625 49.953125 
Q 14.984375 46.921875 10.890625 45.40625 
L 10.890625 53.90625 
Q 18.265625 57.375 23.78125 62.296875 
Q 29.296875 67.234375 31.59375 71.875 
L 37.25 71.875 
z
" id="ArialMT-31"/>
      </defs>
      <g style="fill:#262626;" transform="translate(623.8 290.877812)scale(0.1 -0.1)">
       <use xlink:href="#ArialMT-31"/>
       <use x="55.615234" xlink:href="#ArialMT-30"/>
       <use x="111.230469" xlink:href="#ArialMT-30"/>
       <use x="166.845703" xlink:href="#ArialMT-30"/>
      </g>
     </g>
    </g>
   </g>
   <g id="matplotlib.axis_2">
    <g id="ytick_1">
     <g id="line2d_7">
      <defs>
       <path d="M 0 0 
L -6 0 
" id="m58ed6a4482" style="stroke:#262626;"/>
      </defs>
      <g>
       <use style="fill:#262626;stroke:#262626;" x="90" xlink:href="#m58ed6a4482" y="270.72"/>
      </g>
     </g>
     <g id="text_7">
      <!-- −0.6 -->
      <defs>
       <path d="M 52.828125 31.203125 
L 5.5625 31.203125 
L 5.5625 39.40625 
L 52.828125 39.40625 
z
" id="ArialMT-2212"/>
       <path d="M 9.078125 0 
L 9.078125 10.015625 
L 19.09375 10.015625 
L 19.09375 0 
z
" id="ArialMT-2e"/>
      </defs>
      <g style="fill:#262626;" transform="translate(57.259375 274.298906)scale(0.1 -0.1)">
       <use xlink:href="#ArialMT-2212"/>
       <use x="58.398438" xlink:href="#ArialMT-30"/>
       <use x="114.013672" xlink:href="#ArialMT-2e"/>
       <use x="141.796875" xlink:href="#ArialMT-36"/>
      </g>
     </g>
    </g>
    <g id="ytick_2">
     <g id="line2d_8">
      <g>
       <use style="fill:#262626;stroke:#262626;" x="90" xlink:href="#m58ed6a4482" y="237.12"/>
      </g>
     </g>
     <g id="text_8">
      <!-- −0.4 -->
      <g style="fill:#262626;" transform="translate(57.259375 240.698906)scale(0.1 -0.1)">
       <use xlink:href="#ArialMT-2212"/>
       <use x="58.398438" xlink:href="#ArialMT-30"/>
       <use x="114.013672" xlink:href="#ArialMT-2e"/>
       <use x="141.796875" xlink:href="#ArialMT-34"/>
      </g>
     </g>
    </g>
    <g id="ytick_3">
     <g id="line2d_9">
      <g>
       <use style="fill:#262626;stroke:#262626;" x="90" xlink:href="#m58ed6a4482" y="203.52"/>
      </g>
     </g>
     <g id="text_9">
      <!-- −0.2 -->
      <g style="fill:#262626;" transform="translate(57.259375 207.098906)scale(0.1 -0.1)">
       <use xlink:href="#ArialMT-2212"/>
       <use x="58.398438" xlink:href="#ArialMT-30"/>
       <use x="114.013672" xlink:href="#ArialMT-2e"/>
       <use x="141.796875" xlink:href="#ArialMT-32"/>
      </g>
     </g>
    </g>
    <g id="ytick_4">
     <g id="line2d_10">
      <g>
       <use style="fill:#262626;stroke:#262626;" x="90" xlink:href="#m58ed6a4482" y="169.92"/>
      </g>
     </g>
     <g id="text_10">
      <!-- 0.0 -->
      <g style="fill:#262626;" transform="translate(63.1 173.498906)scale(0.1 -0.1)">
       <use xlink:href="#ArialMT-30"/>
       <use x="55.615234" xlink:href="#ArialMT-2e"/>
       <use x="83.398438" xlink:href="#ArialMT-30"/>
      </g>
     </g>
    </g>
    <g id="ytick_5">
     <g id="line2d_11">
      <g>
       <use style="fill:#262626;stroke:#262626;" x="90" xlink:href="#m58ed6a4482" y="136.32"/>
      </g>
     </g>
     <g id="text_11">
      <!-- 0.2 -->
      <g style="fill:#262626;" transform="translate(63.1 139.898906)scale(0.1 -0.1)">
       <use xlink:href="#ArialMT-30"/>
       <use x="55.615234" xlink:href="#ArialMT-2e"/>
       <use x="83.398438" xlink:href="#ArialMT-32"/>
      </g>
     </g>
    </g>
    <g id="ytick_6">
     <g id="line2d_12">
      <g>
       <use style="fill:#262626;stroke:#262626;" x="90" xlink:href="#m58ed6a4482" y="102.72"/>
      </g>
     </g>
     <g id="text_12">
      <!-- 0.4 -->
      <g style="fill:#262626;" transform="translate(63.1 106.298906)scale(0.1 -0.1)">
       <use xlink:href="#ArialMT-30"/>
       <use x="55.615234" xlink:href="#ArialMT-2e"/>
       <use x="83.398438" xlink:href="#ArialMT-34"/>
      </g>
     </g>
    </g>
    <g id="ytick_7">
     <g id="line2d_13">
      <g>
       <use style="fill:#262626;stroke:#262626;" x="90" xlink:href="#m58ed6a4482" y="69.12"/>
      </g>
     </g>
     <g id="text_13">
      <!-- 0.6 -->
      <g style="fill:#262626;" transform="translate(63.1 72.698906)scale(0.1 -0.1)">
       <use xlink:href="#ArialMT-30"/>
       <use x="55.615234" xlink:href="#ArialMT-2e"/>
       <use x="83.398438" xlink:href="#ArialMT-36"/>
      </g>
     </g>
    </g>
   </g>
   <g id="line2d_14">
    <path clip-path="url(#pe438ae5bf8)" d="M 90 163.470293 
L 90.544922 164.628984 
L 91.089844 165.515947 
L 92.724609 169.243242 
L 96.539062 177.548906 
L 97.628906 179.22542 
L 99.263672 180.963457 
L 99.808594 180.89168 
L 100.353516 181.168535 
L 100.898438 180.686602 
L 101.443359 180.481523 
L 102.533203 179.338213 
L 104.167969 176.256914 
L 104.712891 174.81624 
L 105.257812 173.878008 
L 106.347656 171.370928 
L 106.892578 170.658281 
L 107.4375 169.576494 
L 108.527344 168.42293 
L 109.617188 168.140947 
L 110.162109 168.161455 
L 111.251953 168.648516 
L 111.796875 169.402178 
L 112.341797 169.648271 
L 113.976562 171.447832 
L 114.521484 171.560625 
L 115.066406 171.868242 
L 115.611328 171.899004 
L 116.701172 171.483721 
L 117.791016 170.719805 
L 118.335938 169.955889 
L 118.880859 169.432939 
L 122.150391 164.275225 
L 123.240234 162.773027 
L 123.785156 162.46541 
L 124.330078 161.932207 
L 124.875 161.814287 
L 125.419922 161.578447 
L 125.964844 161.481035 
L 127.054688 161.578447 
L 127.599609 161.973223 
L 128.144531 161.957842 
L 129.779297 163.260088 
L 130.869141 164.490557 
L 131.958984 165.582598 
L 133.048828 167.084795 
L 133.59375 167.469316 
L 134.138672 168.361406 
L 134.683594 168.951006 
L 135.228516 169.848223 
L 135.773438 170.027666 
L 136.318359 170.858232 
L 137.408203 171.950273 
L 137.953125 172.59627 
L 140.132812 174.083086 
L 140.677734 174.011309 
L 141.222656 174.303545 
L 141.767578 174.303545 
L 142.3125 174.441973 
L 142.857422 174.262529 
L 143.947266 174.313799 
L 144.492188 174.190752 
L 145.037109 174.503496 
L 146.126953 174.554766 
L 146.671875 174.964922 
L 147.216797 175.026445 
L 147.761719 175.246904 
L 148.851562 175.28792 
L 149.941406 175.513506 
L 151.03125 174.980303 
L 151.576172 174.929033 
L 152.666016 173.8575 
L 153.210938 173.344805 
L 155.935547 169.453447 
L 157.570312 167.187334 
L 158.115234 166.566973 
L 159.205078 165.603105 
L 159.75 165.003252 
L 161.929688 164.172686 
L 162.474609 164.167559 
L 163.019531 163.967607 
L 163.564453 163.941973 
L 164.109375 163.588213 
L 164.654297 163.439531 
L 165.744141 162.608965 
L 166.289062 162.573076 
L 166.833984 161.696367 
L 168.46875 159.912187 
L 169.558594 158.286943 
L 170.103516 157.574297 
L 170.648438 156.538652 
L 171.193359 155.851641 
L 171.738281 154.959551 
L 172.283203 154.575029 
L 172.828125 153.852129 
L 173.373047 153.493242 
L 173.917969 152.79085 
L 174.462891 152.62166 
L 175.007812 152.242266 
L 175.552734 152.042314 
L 176.097656 152.226885 
L 176.642578 151.873125 
L 177.732422 151.791094 
L 179.367188 152.995928 
L 179.912109 152.995928 
L 182.091797 156.184893 
L 184.271484 160.660723 
L 184.816406 161.793779 
L 185.90625 164.634111 
L 189.720703 173.344805 
L 190.265625 173.647295 
L 190.810547 174.590654 
L 191.355469 175.185381 
L 192.990234 175.154619 
L 193.535156 174.847002 
L 194.080078 174.283037 
L 195.169922 172.652666 
L 196.804688 169.427812 
L 198.439453 166.136309 
L 200.074219 164.208574 
L 200.619141 163.880449 
L 201.708984 163.834307 
L 202.253906 163.916338 
L 203.34375 164.890459 
L 203.888672 165.09041 
L 204.433594 165.613359 
L 204.978516 166.356768 
L 205.523438 166.515703 
L 206.613281 167.156572 
L 207.703125 167.428301 
L 208.792969 167.105303 
L 209.337891 166.582354 
L 209.882812 166.238848 
L 210.972656 164.890459 
L 212.0625 163.403643 
L 213.697266 161.183672 
L 214.787109 159.973711 
L 215.332031 159.666094 
L 215.876953 158.866289 
L 216.421875 158.758623 
L 216.966797 158.210039 
L 218.056641 158.020342 
L 219.146484 158.15877 
L 219.691406 158.384355 
L 220.236328 158.840654 
L 220.78125 159.138018 
L 222.960938 161.147783 
L 223.505859 162.198809 
L 224.050781 162.726885 
L 225.685547 165.121172 
L 226.775391 166.684893 
L 229.5 170.719805 
L 230.044922 171.088945 
L 230.589844 171.796465 
L 232.224609 172.960283 
L 233.859375 173.596025 
L 234.404297 173.90877 
L 235.494141 174.139482 
L 236.039062 174.380449 
L 236.583984 174.411211 
L 237.128906 174.759844 
L 238.21875 175.077715 
L 239.308594 175.923662 
L 239.853516 176.072344 
L 240.943359 176.769609 
L 243.123047 177.061846 
L 245.302734 175.70833 
L 245.847656 174.857256 
L 246.392578 174.426592 
L 248.027344 172.462969 
L 249.117188 171.41707 
L 249.662109 170.847979 
L 250.207031 170.663408 
L 251.296875 169.873857 
L 252.386719 169.632891 
L 252.931641 169.44832 
L 253.476562 169.479082 
L 254.021484 169.243242 
L 255.65625 169.422686 
L 256.746094 168.889482 
L 257.291016 168.67415 
L 257.835938 168.171709 
L 258.380859 167.920488 
L 259.470703 166.792559 
L 260.560547 165.382646 
L 261.105469 164.685381 
L 261.650391 163.788164 
L 263.285156 161.732256 
L 263.830078 161.445146 
L 264.375 160.629961 
L 264.919922 160.435137 
L 266.009766 159.425127 
L 267.099609 159.004717 
L 267.644531 158.604814 
L 268.734375 158.199785 
L 269.824219 158.589434 
L 270.369141 158.492021 
L 270.914062 159.127764 
L 271.458984 159.548174 
L 273.09375 161.547686 
L 273.638672 162.337236 
L 275.818359 166.99251 
L 281.267578 180.763506 
L 282.357422 182.880937 
L 282.902344 183.460283 
L 283.447266 183.670488 
L 283.992188 184.326738 
L 284.537109 184.419023 
L 285.082031 184.321611 
L 285.626953 183.875566 
L 286.716797 182.675859 
L 290.53125 176.144121 
L 291.076172 175.482744 
L 291.621094 175.211016 
L 293.255859 175.113604 
L 294.345703 175.739092 
L 296.525391 177.871904 
L 297.070312 178.282061 
L 298.160156 179.451006 
L 298.705078 179.451006 
L 299.25 179.666338 
L 299.794922 179.615068 
L 300.339844 179.251055 
L 300.884766 179.133135 
L 301.429688 178.666582 
L 301.974609 178.574297 
L 304.154297 175.87752 
L 304.699219 175.272539 
L 305.244141 174.252275 
L 305.789062 173.765215 
L 306.333984 172.950029 
L 307.423828 172.170732 
L 307.96875 171.647783 
L 309.058594 171.253008 
L 309.603516 171.201738 
L 310.148438 170.991533 
L 312.873047 172.314287 
L 313.417969 173.01668 
L 313.962891 173.288408 
L 316.142578 175.698076 
L 316.6875 176.646562 
L 317.232422 177.313066 
L 317.777344 178.205156 
L 318.322266 179.317705 
L 318.867188 180.097002 
L 319.412109 181.122393 
L 319.957031 181.742754 
L 321.046875 183.34749 
L 321.591797 184.044756 
L 322.681641 184.926592 
L 323.226562 185.362383 
L 324.861328 186.228838 
L 327.041016 186.803057 
L 327.585938 187.279863 
L 328.130859 187.315752 
L 328.675781 187.664385 
L 330.310547 188.300127 
L 330.855469 188.817949 
L 331.400391 188.992266 
L 331.945312 189.407549 
L 332.490234 189.30501 
L 333.035156 189.766436 
L 333.580078 189.735674 
L 334.125 189.54085 
L 334.669922 189.602373 
L 335.759766 189.033281 
L 336.304688 188.377031 
L 336.849609 188.130937 
L 338.484375 186.162187 
L 339.029297 185.72127 
L 339.574219 184.880449 
L 340.119141 184.439531 
L 341.208984 183.198809 
L 341.753906 182.952715 
L 342.298828 182.33748 
L 343.388672 181.696611 
L 344.478516 181.388994 
L 345.023438 181.445391 
L 345.568359 181.26082 
L 346.113281 181.337725 
L 346.658203 180.968584 
L 347.203125 180.983965 
L 349.382812 179.727861 
L 349.927734 178.999834 
L 350.472656 178.487139 
L 351.017578 177.595049 
L 351.5625 177.005449 
L 355.376953 171.683672 
L 355.921875 171.247881 
L 357.011719 169.704668 
L 358.101562 168.520342 
L 360.28125 167.115557 
L 360.826172 167.028398 
L 361.371094 166.628496 
L 361.916016 166.972002 
L 362.460938 166.946367 
L 363.550781 167.638506 
L 364.095703 167.915361 
L 366.275391 170.683916 
L 369 176.18001 
L 370.089844 179.045977 
L 370.634766 180.373857 
L 371.179688 182.004229 
L 371.724609 183.265459 
L 372.269531 184.808672 
L 374.449219 189.023027 
L 375.539062 190.033037 
L 376.083984 190.222734 
L 377.173828 189.648516 
L 377.71875 189.238359 
L 378.263672 188.423174 
L 380.988281 182.901445 
L 382.078125 181.091631 
L 382.623047 180.425127 
L 383.167969 179.52791 
L 383.712891 179.117754 
L 384.802734 178.707598 
L 385.347656 178.707598 
L 385.892578 179.081865 
L 386.4375 179.29207 
L 387.527344 180.327715 
L 388.072266 180.635332 
L 388.617188 181.173662 
L 389.707031 181.865801 
L 390.251953 181.963213 
L 390.796875 182.20418 
L 391.341797 182.122148 
L 391.886719 181.922197 
L 392.431641 181.542803 
L 392.976562 181.532549 
L 393.521484 180.584062 
L 394.066406 180.168779 
L 395.15625 178.80501 
L 397.335938 175.252031 
L 398.970703 172.873125 
L 401.695312 170.76082 
L 402.240234 170.483965 
L 403.875 170.325029 
L 404.964844 170.535234 
L 407.144531 172.139971 
L 407.689453 173.021807 
L 408.234375 173.472979 
L 409.324219 175.134111 
L 412.048828 179.128008 
L 412.59375 179.394609 
L 413.138672 180.158525 
L 413.683594 180.527666 
L 414.228516 181.035234 
L 414.773438 181.388994 
L 415.318359 181.537676 
L 416.408203 182.117021 
L 416.953125 182.004229 
L 417.498047 182.414385 
L 418.587891 182.224687 
L 419.132812 182.511797 
L 419.677734 182.62459 
L 422.947266 184.65999 
L 423.492188 185.213701 
L 424.037109 185.167559 
L 424.582031 185.377764 
L 425.671875 185.085527 
L 426.216797 185.054766 
L 426.761719 184.803545 
L 427.306641 184.690752 
L 427.851562 184.449785 
L 428.941406 183.460283 
L 429.486328 182.737383 
L 430.576172 181.824785 
L 431.121094 181.040361 
L 431.666016 180.65584 
L 432.755859 179.415117 
L 433.300781 178.769121 
L 435.480469 177.446367 
L 436.025391 177.400225 
L 436.570312 177.600176 
L 437.115234 177.251543 
L 438.205078 176.95418 
L 438.75 176.492754 
L 439.294922 176.492754 
L 439.839844 175.800615 
L 440.929688 175.108477 
L 444.744141 170.555742 
L 445.289062 169.591875 
L 445.833984 169.033037 
L 446.923828 167.438555 
L 447.46875 166.495195 
L 448.013672 165.972246 
L 449.648438 163.941973 
L 450.193359 163.30623 
L 450.738281 162.972979 
L 451.283203 162.460283 
L 451.828125 162.275713 
L 452.917969 161.557939 
L 453.462891 161.696367 
L 454.007812 161.542559 
L 455.097656 161.968096 
L 457.277344 163.562578 
L 457.822266 164.177812 
L 458.367188 165.008379 
L 460.546875 169.299639 
L 462.726562 175.016191 
L 464.361328 179.681719 
L 465.451172 182.327227 
L 466.541016 184.080645 
L 467.630859 184.941973 
L 468.175781 185.106035 
L 468.720703 184.54207 
L 469.265625 184.234453 
L 470.355469 182.532305 
L 470.900391 181.655596 
L 473.080078 177.236162 
L 474.714844 174.964922 
L 475.259766 174.334307 
L 475.804688 173.888262 
L 476.349609 173.67293 
L 476.894531 173.826738 
L 477.439453 173.8575 
L 477.984375 174.344561 
L 478.529297 174.39583 
L 479.074219 174.662432 
L 479.619141 175.17 
L 481.253906 176.164629 
L 481.798828 176.236406 
L 482.34375 176.708086 
L 482.888672 176.574785 
L 483.433594 176.620928 
L 483.978516 176.056963 
L 484.523438 175.949297 
L 485.068359 175.682695 
L 487.248047 172.888506 
L 487.792969 172.196367 
L 488.882812 170.345537 
L 489.427734 169.796953 
L 490.517578 168.202471 
L 491.0625 167.453936 
L 491.607422 167.125811 
L 492.152344 166.40291 
L 492.697266 166.044023 
L 493.242188 165.418535 
L 494.332031 164.910967 
L 494.876953 164.557207 
L 496.511719 164.203447 
L 498.146484 164.900713 
L 498.691406 165.408281 
L 499.236328 166.079912 
L 499.78125 166.464434 
L 501.416016 168.84334 
L 502.505859 170.745439 
L 503.050781 171.432451 
L 503.595703 172.488604 
L 504.140625 173.124346 
L 504.685547 173.519121 
L 505.775391 174.708574 
L 506.320312 174.954668 
L 506.865234 175.344316 
L 508.5 175.87752 
L 509.044922 176.256914 
L 510.134766 176.497881 
L 510.679688 177.19002 
L 511.769531 177.836016 
L 512.314453 178.369219 
L 513.404297 179.05623 
L 514.494141 179.932939 
L 515.039062 179.825273 
L 515.583984 180.35335 
L 516.673828 180.594316 
L 517.21875 180.47127 
L 517.763672 180.65584 
L 519.398438 180.220049 
L 519.943359 179.850908 
L 520.488281 179.245928 
L 521.033203 178.830645 
L 522.123047 177.543779 
L 522.667969 177.02083 
L 523.212891 176.256914 
L 524.302734 175.487871 
L 525.9375 174.400957 
L 526.482422 174.195879 
L 527.572266 174.288164 
L 528.117188 174.108721 
L 528.662109 174.088213 
L 529.207031 173.852373 
L 529.751953 173.770342 
L 530.296875 173.411455 
L 530.841797 173.365312 
L 532.476562 172.47835 
L 533.566406 171.222246 
L 534.111328 170.714678 
L 534.65625 170.053301 
L 535.201172 169.176592 
L 535.746094 168.879229 
L 536.291016 167.889727 
L 537.380859 166.505449 
L 538.470703 165.157061 
L 539.015625 164.546953 
L 539.560547 163.531816 
L 540.105469 162.962725 
L 541.195312 161.481035 
L 542.285156 160.399248 
L 542.830078 159.635332 
L 543.375 159.47127 
L 543.919922 158.973955 
L 544.464844 158.717607 
L 545.009766 158.794512 
L 545.554688 158.522783 
L 546.099609 158.758623 
L 547.189453 159.004717 
L 548.279297 159.830156 
L 548.824219 160.183916 
L 549.369141 160.758135 
L 551.003906 163.280596 
L 552.09375 165.418535 
L 552.638672 167.182207 
L 553.728516 169.92 
L 555.363281 175.272539 
L 557.542969 181.019854 
L 558.087891 182.168291 
L 559.177734 183.485918 
L 559.722656 183.475664 
L 560.267578 183.716631 
L 560.8125 183.439775 
L 562.447266 181.322344 
L 564.626953 177.605303 
L 565.171875 176.579912 
L 566.261719 175.369951 
L 567.351562 174.472734 
L 567.896484 174.344561 
L 569.53125 174.944414 
L 571.166016 176.251787 
L 572.255859 177.272051 
L 573.890625 178.558916 
L 574.435547 178.810137 
L 575.525391 178.758867 
L 576.070312 178.579424 
L 576.615234 177.948809 
L 577.160156 177.759111 
L 577.705078 177.092607 
L 578.25 176.241533 
L 578.794922 175.662187 
L 579.339844 174.831621 
L 581.519531 172.49373 
L 582.064453 171.627275 
L 584.244141 169.427812 
L 584.789062 168.868975 
L 585.333984 168.576738 
L 585.878906 168.494707 
L 586.423828 167.982012 
L 586.96875 167.71541 
L 588.058594 167.546221 
L 590.238281 168.504961 
L 590.783203 169.120195 
L 591.328125 169.955889 
L 592.417969 171.135088 
L 592.962891 172.170732 
L 594.052734 173.878008 
L 594.597656 174.923906 
L 595.142578 175.508379 
L 596.232422 177.395098 
L 596.777344 177.769365 
L 597.322266 178.56917 
L 597.867188 178.779375 
L 598.957031 179.845781 
L 599.501953 179.876543 
L 600.046875 180.36873 
L 601.136719 180.809648 
L 601.681641 181.306963 
L 602.226562 181.573564 
L 602.771484 182.117021 
L 604.951172 183.485918 
L 606.041016 184.511309 
L 607.130859 185.24959 
L 608.220703 185.900713 
L 608.765625 186.182695 
L 609.310547 186.02376 
L 609.855469 186.223711 
L 610.400391 186.008379 
L 610.945312 185.926348 
L 612.035156 185.377764 
L 612.580078 184.788164 
L 613.125 184.521562 
L 614.214844 183.480791 
L 614.759766 183.193682 
L 615.304688 182.393877 
L 615.849609 182.3221 
L 616.394531 181.978594 
L 617.484375 181.588945 
L 618.029297 181.358232 
L 619.664062 181.342852 
L 620.753906 180.937822 
L 621.298828 180.901934 
L 622.388672 180.553301 
L 622.933594 180.055986 
L 623.478516 179.938066 
L 624.023438 179.322832 
L 625.113281 178.415361 
L 627.837891 175.59041 
L 628.382812 174.990557 
L 628.927734 174.047197 
L 629.472656 173.534502 
L 630.017578 172.30916 
L 631.652344 169.976396 
L 632.197266 169.540605 
L 632.742188 168.6075 
L 633.287109 168.00252 
L 633.832031 167.612871 
L 634.376953 167.054033 
L 634.921875 166.833574 
L 636.011719 165.700518 
L 636.556641 165.685137 
L 637.101562 165.3929 
L 637.646484 165.254473 
L 638.736328 165.151934 
L 639.28125 165.37752 
L 639.826172 165.295488 
L 641.460938 166.351641 
L 643.640625 170.089189 
L 644.730469 172.842363 
L 647.455078 181.465898 
L 647.455078 181.465898 
" style="fill:none;stroke:#4c72b0;stroke-linecap:round;stroke-width:1.75;"/>
   </g>
   <g id="patch_3">
    <path d="M 90 270.72 
L 90 69.12 
" style="fill:none;stroke:#262626;stroke-linecap:square;stroke-linejoin:miter;stroke-width:1.25;"/>
   </g>
   <g id="patch_4">
    <path d="M 90 270.72 
L 648 270.72 
" style="fill:none;stroke:#262626;stroke-linecap:square;stroke-linejoin:miter;stroke-width:1.25;"/>
   </g>
  </g>
  <g id="axes_2">
   <g id="patch_5">
    <path d="M 90 512.64 
L 648 512.64 
L 648 311.04 
L 90 311.04 
z
" style="fill:#ffffff;"/>
   </g>
   <g id="matplotlib.axis_3">
    <g id="xtick_7">
     <g id="line2d_15">
      <g>
       <use style="fill:#262626;stroke:#262626;" x="218.197478" xlink:href="#m8bdcd49f77" y="512.64"/>
      </g>
     </g>
     <g id="text_14">
      <!-- $\mathdefault{10^{2}}$ -->
      <g style="fill:#262626;" transform="translate(210.347478 535.9525)scale(0.1 -0.1)">
       <use transform="translate(0 0.99375)" xlink:href="#ArialMT-31"/>
       <use transform="translate(55.615234 0.99375)" xlink:href="#ArialMT-30"/>
       <use transform="translate(112.972813 70.6875)scale(0.7)" xlink:href="#ArialMT-32"/>
      </g>
     </g>
    </g>
    <g id="xtick_8">
     <g id="line2d_16">
      <g>
       <use style="fill:#262626;stroke:#262626;" x="401.606604" xlink:href="#m8bdcd49f77" y="512.64"/>
      </g>
     </g>
     <g id="text_15">
      <!-- $\mathdefault{10^{3}}$ -->
      <defs>
       <path d="M 4.203125 18.890625 
L 12.984375 20.0625 
Q 14.5 12.59375 18.140625 9.296875 
Q 21.78125 6 27 6 
Q 33.203125 6 37.46875 10.296875 
Q 41.75 14.59375 41.75 20.953125 
Q 41.75 27 37.796875 30.921875 
Q 33.84375 34.859375 27.734375 34.859375 
Q 25.25 34.859375 21.53125 33.890625 
L 22.515625 41.609375 
Q 23.390625 41.5 23.921875 41.5 
Q 29.546875 41.5 34.03125 44.421875 
Q 38.53125 47.359375 38.53125 53.46875 
Q 38.53125 58.296875 35.25 61.46875 
Q 31.984375 64.65625 26.8125 64.65625 
Q 21.6875 64.65625 18.265625 61.421875 
Q 14.84375 58.203125 13.875 51.765625 
L 5.078125 53.328125 
Q 6.6875 62.15625 12.390625 67.015625 
Q 18.109375 71.875 26.609375 71.875 
Q 32.46875 71.875 37.390625 69.359375 
Q 42.328125 66.84375 44.9375 62.5 
Q 47.5625 58.15625 47.5625 53.265625 
Q 47.5625 48.640625 45.0625 44.828125 
Q 42.578125 41.015625 37.703125 38.765625 
Q 44.046875 37.3125 47.5625 32.6875 
Q 51.078125 28.078125 51.078125 21.140625 
Q 51.078125 11.765625 44.234375 5.25 
Q 37.40625 -1.265625 26.953125 -1.265625 
Q 17.53125 -1.265625 11.296875 4.34375 
Q 5.078125 9.96875 4.203125 18.890625 
z
" id="ArialMT-33"/>
      </defs>
      <g style="fill:#262626;" transform="translate(393.756604 535.9525)scale(0.1 -0.1)">
       <use transform="translate(0 0.99375)" xlink:href="#ArialMT-31"/>
       <use transform="translate(55.615234 0.99375)" xlink:href="#ArialMT-30"/>
       <use transform="translate(112.972813 70.6875)scale(0.7)" xlink:href="#ArialMT-33"/>
      </g>
     </g>
    </g>
    <g id="xtick_9">
     <g id="line2d_17">
      <g>
       <use style="fill:#262626;stroke:#262626;" x="585.01573" xlink:href="#m8bdcd49f77" y="512.64"/>
      </g>
     </g>
     <g id="text_16">
      <!-- $\mathdefault{10^{4}}$ -->
      <g style="fill:#262626;" transform="translate(577.16573 535.8525)scale(0.1 -0.1)">
       <use transform="translate(0 0.201563)" xlink:href="#ArialMT-31"/>
       <use transform="translate(55.615234 0.201563)" xlink:href="#ArialMT-30"/>
       <use transform="translate(112.972813 69.895313)scale(0.7)" xlink:href="#ArialMT-34"/>
      </g>
     </g>
    </g>
    <g id="xtick_10">
     <g id="line2d_18">
      <defs>
       <path d="M 0 0 
L 0 3 
" id="m634f44f88d" style="stroke:#262626;stroke-width:0.5;"/>
      </defs>
      <g>
       <use style="fill:#262626;stroke:#262626;stroke-width:0.5;" x="90" xlink:href="#m634f44f88d" y="512.64"/>
      </g>
     </g>
    </g>
    <g id="xtick_11">
     <g id="line2d_19">
      <g>
       <use style="fill:#262626;stroke:#262626;stroke-width:0.5;" x="122.296744" xlink:href="#m634f44f88d" y="512.64"/>
      </g>
     </g>
    </g>
    <g id="xtick_12">
     <g id="line2d_20">
      <g>
       <use style="fill:#262626;stroke:#262626;stroke-width:0.5;" x="145.211648" xlink:href="#m634f44f88d" y="512.64"/>
      </g>
     </g>
    </g>
    <g id="xtick_13">
     <g id="line2d_21">
      <g>
       <use style="fill:#262626;stroke:#262626;stroke-width:0.5;" x="162.985829" xlink:href="#m634f44f88d" y="512.64"/>
      </g>
     </g>
    </g>
    <g id="xtick_14">
     <g id="line2d_22">
      <g>
       <use style="fill:#262626;stroke:#262626;stroke-width:0.5;" x="177.508392" xlink:href="#m634f44f88d" y="512.64"/>
      </g>
     </g>
    </g>
    <g id="xtick_15">
     <g id="line2d_23">
      <g>
       <use style="fill:#262626;stroke:#262626;stroke-width:0.5;" x="189.787045" xlink:href="#m634f44f88d" y="512.64"/>
      </g>
     </g>
    </g>
    <g id="xtick_16">
     <g id="line2d_24">
      <g>
       <use style="fill:#262626;stroke:#262626;stroke-width:0.5;" x="200.423297" xlink:href="#m634f44f88d" y="512.64"/>
      </g>
     </g>
    </g>
    <g id="xtick_17">
     <g id="line2d_25">
      <g>
       <use style="fill:#262626;stroke:#262626;stroke-width:0.5;" x="209.805136" xlink:href="#m634f44f88d" y="512.64"/>
      </g>
     </g>
    </g>
    <g id="xtick_18">
     <g id="line2d_26">
      <g>
       <use style="fill:#262626;stroke:#262626;stroke-width:0.5;" x="273.409126" xlink:href="#m634f44f88d" y="512.64"/>
      </g>
     </g>
    </g>
    <g id="xtick_19">
     <g id="line2d_27">
      <g>
       <use style="fill:#262626;stroke:#262626;stroke-width:0.5;" x="305.70587" xlink:href="#m634f44f88d" y="512.64"/>
      </g>
     </g>
    </g>
    <g id="xtick_20">
     <g id="line2d_28">
      <g>
       <use style="fill:#262626;stroke:#262626;stroke-width:0.5;" x="328.620775" xlink:href="#m634f44f88d" y="512.64"/>
      </g>
     </g>
    </g>
    <g id="xtick_21">
     <g id="line2d_29">
      <g>
       <use style="fill:#262626;stroke:#262626;stroke-width:0.5;" x="346.394955" xlink:href="#m634f44f88d" y="512.64"/>
      </g>
     </g>
    </g>
    <g id="xtick_22">
     <g id="line2d_30">
      <g>
       <use style="fill:#262626;stroke:#262626;stroke-width:0.5;" x="360.917518" xlink:href="#m634f44f88d" y="512.64"/>
      </g>
     </g>
    </g>
    <g id="xtick_23">
     <g id="line2d_31">
      <g>
       <use style="fill:#262626;stroke:#262626;stroke-width:0.5;" x="373.196171" xlink:href="#m634f44f88d" y="512.64"/>
      </g>
     </g>
    </g>
    <g id="xtick_24">
     <g id="line2d_32">
      <g>
       <use style="fill:#262626;stroke:#262626;stroke-width:0.5;" x="383.832423" xlink:href="#m634f44f88d" y="512.64"/>
      </g>
     </g>
    </g>
    <g id="xtick_25">
     <g id="line2d_33">
      <g>
       <use style="fill:#262626;stroke:#262626;stroke-width:0.5;" x="393.214262" xlink:href="#m634f44f88d" y="512.64"/>
      </g>
     </g>
    </g>
    <g id="xtick_26">
     <g id="line2d_34">
      <g>
       <use style="fill:#262626;stroke:#262626;stroke-width:0.5;" x="456.818252" xlink:href="#m634f44f88d" y="512.64"/>
      </g>
     </g>
    </g>
    <g id="xtick_27">
     <g id="line2d_35">
      <g>
       <use style="fill:#262626;stroke:#262626;stroke-width:0.5;" x="489.114996" xlink:href="#m634f44f88d" y="512.64"/>
      </g>
     </g>
    </g>
    <g id="xtick_28">
     <g id="line2d_36">
      <g>
       <use style="fill:#262626;stroke:#262626;stroke-width:0.5;" x="512.029901" xlink:href="#m634f44f88d" y="512.64"/>
      </g>
     </g>
    </g>
    <g id="xtick_29">
     <g id="line2d_37">
      <g>
       <use style="fill:#262626;stroke:#262626;stroke-width:0.5;" x="529.804081" xlink:href="#m634f44f88d" y="512.64"/>
      </g>
     </g>
    </g>
    <g id="xtick_30">
     <g id="line2d_38">
      <g>
       <use style="fill:#262626;stroke:#262626;stroke-width:0.5;" x="544.326645" xlink:href="#m634f44f88d" y="512.64"/>
      </g>
     </g>
    </g>
    <g id="xtick_31">
     <g id="line2d_39">
      <g>
       <use style="fill:#262626;stroke:#262626;stroke-width:0.5;" x="556.605297" xlink:href="#m634f44f88d" y="512.64"/>
      </g>
     </g>
    </g>
    <g id="xtick_32">
     <g id="line2d_40">
      <g>
       <use style="fill:#262626;stroke:#262626;stroke-width:0.5;" x="567.241549" xlink:href="#m634f44f88d" y="512.64"/>
      </g>
     </g>
    </g>
    <g id="xtick_33">
     <g id="line2d_41">
      <g>
       <use style="fill:#262626;stroke:#262626;stroke-width:0.5;" x="576.623389" xlink:href="#m634f44f88d" y="512.64"/>
      </g>
     </g>
    </g>
    <g id="xtick_34">
     <g id="line2d_42">
      <g>
       <use style="fill:#262626;stroke:#262626;stroke-width:0.5;" x="640.227378" xlink:href="#m634f44f88d" y="512.64"/>
      </g>
     </g>
    </g>
   </g>
   <g id="matplotlib.axis_4">
    <g id="ytick_8">
     <g id="line2d_43">
      <g>
       <use style="fill:#262626;stroke:#262626;" x="90" xlink:href="#m58ed6a4482" y="512.64"/>
      </g>
     </g>
     <g id="text_17">
      <!-- $\mathdefault{10^{-5}}$ -->
      <defs>
       <path d="M 4.15625 18.75 
L 13.375 19.53125 
Q 14.40625 12.796875 18.140625 9.390625 
Q 21.875 6 27.15625 6 
Q 33.5 6 37.890625 10.78125 
Q 42.28125 15.578125 42.28125 23.484375 
Q 42.28125 31 38.0625 35.34375 
Q 33.84375 39.703125 27 39.703125 
Q 22.75 39.703125 19.328125 37.765625 
Q 15.921875 35.84375 13.96875 32.765625 
L 5.71875 33.84375 
L 12.640625 70.609375 
L 48.25 70.609375 
L 48.25 62.203125 
L 19.671875 62.203125 
L 15.828125 42.96875 
Q 22.265625 47.46875 29.34375 47.46875 
Q 38.71875 47.46875 45.15625 40.96875 
Q 51.609375 34.46875 51.609375 24.265625 
Q 51.609375 14.546875 45.953125 7.46875 
Q 39.0625 -1.21875 27.15625 -1.21875 
Q 17.390625 -1.21875 11.203125 4.25 
Q 5.03125 9.71875 4.15625 18.75 
z
" id="ArialMT-35"/>
      </defs>
      <g style="fill:#262626;" transform="translate(57.2 517.74625)scale(0.1 -0.1)">
       <use transform="translate(0 0.879688)" xlink:href="#ArialMT-31"/>
       <use transform="translate(55.615234 0.879688)" xlink:href="#ArialMT-30"/>
       <use transform="translate(112.972813 70.573438)scale(0.7)" xlink:href="#ArialMT-2212"/>
       <use transform="translate(153.851719 70.573438)scale(0.7)" xlink:href="#ArialMT-35"/>
      </g>
     </g>
    </g>
    <g id="ytick_9">
     <g id="line2d_44">
      <g>
       <use style="fill:#262626;stroke:#262626;" x="90" xlink:href="#m58ed6a4482" y="465.767507"/>
      </g>
     </g>
     <g id="text_18">
      <!-- $\mathdefault{10^{-4}}$ -->
      <g style="fill:#262626;" transform="translate(57.2 470.873757)scale(0.1 -0.1)">
       <use transform="translate(0 0.201563)" xlink:href="#ArialMT-31"/>
       <use transform="translate(55.615234 0.201563)" xlink:href="#ArialMT-30"/>
       <use transform="translate(112.972813 69.895313)scale(0.7)" xlink:href="#ArialMT-2212"/>
       <use transform="translate(153.851719 69.895313)scale(0.7)" xlink:href="#ArialMT-34"/>
      </g>
     </g>
    </g>
    <g id="ytick_10">
     <g id="line2d_45">
      <g>
       <use style="fill:#262626;stroke:#262626;" x="90" xlink:href="#m58ed6a4482" y="418.895013"/>
      </g>
     </g>
     <g id="text_19">
      <!-- $\mathdefault{10^{-3}}$ -->
      <g style="fill:#262626;" transform="translate(57.2 424.051263)scale(0.1 -0.1)">
       <use transform="translate(0 0.99375)" xlink:href="#ArialMT-31"/>
       <use transform="translate(55.615234 0.99375)" xlink:href="#ArialMT-30"/>
       <use transform="translate(112.972813 70.6875)scale(0.7)" xlink:href="#ArialMT-2212"/>
       <use transform="translate(153.851719 70.6875)scale(0.7)" xlink:href="#ArialMT-33"/>
      </g>
     </g>
    </g>
    <g id="ytick_11">
     <g id="line2d_46">
      <g>
       <use style="fill:#262626;stroke:#262626;" x="90" xlink:href="#m58ed6a4482" y="372.02252"/>
      </g>
     </g>
     <g id="text_20">
      <!-- $\mathdefault{10^{-2}}$ -->
      <g style="fill:#262626;" transform="translate(57.2 377.17877)scale(0.1 -0.1)">
       <use transform="translate(0 0.99375)" xlink:href="#ArialMT-31"/>
       <use transform="translate(55.615234 0.99375)" xlink:href="#ArialMT-30"/>
       <use transform="translate(112.972813 70.6875)scale(0.7)" xlink:href="#ArialMT-2212"/>
       <use transform="translate(153.851719 70.6875)scale(0.7)" xlink:href="#ArialMT-32"/>
      </g>
     </g>
    </g>
    <g id="ytick_12">
     <g id="line2d_47">
      <g>
       <use style="fill:#262626;stroke:#262626;" x="90" xlink:href="#m58ed6a4482" y="325.150026"/>
      </g>
     </g>
     <g id="text_21">
      <!-- $\mathdefault{10^{-1}}$ -->
      <g style="fill:#262626;" transform="translate(57.2 330.306276)scale(0.1 -0.1)">
       <use transform="translate(0 0.99375)" xlink:href="#ArialMT-31"/>
       <use transform="translate(55.615234 0.99375)" xlink:href="#ArialMT-30"/>
       <use transform="translate(112.972813 70.6875)scale(0.7)" xlink:href="#ArialMT-2212"/>
       <use transform="translate(153.851719 70.6875)scale(0.7)" xlink:href="#ArialMT-31"/>
      </g>
     </g>
    </g>
    <g id="ytick_13">
     <g id="line2d_48">
      <defs>
       <path d="M 0 0 
L -3 0 
" id="mc6c93f1db6" style="stroke:#262626;stroke-width:0.5;"/>
      </defs>
      <g>
       <use style="fill:#262626;stroke:#262626;stroke-width:0.5;" x="90" xlink:href="#mc6c93f1db6" y="498.529974"/>
      </g>
     </g>
    </g>
    <g id="ytick_14">
     <g id="line2d_49">
      <g>
       <use style="fill:#262626;stroke:#262626;stroke-width:0.5;" x="90" xlink:href="#mc6c93f1db6" y="490.276137"/>
      </g>
     </g>
    </g>
    <g id="ytick_15">
     <g id="line2d_50">
      <g>
       <use style="fill:#262626;stroke:#262626;stroke-width:0.5;" x="90" xlink:href="#mc6c93f1db6" y="484.419947"/>
      </g>
     </g>
    </g>
    <g id="ytick_16">
     <g id="line2d_51">
      <g>
       <use style="fill:#262626;stroke:#262626;stroke-width:0.5;" x="90" xlink:href="#mc6c93f1db6" y="479.877533"/>
      </g>
     </g>
    </g>
    <g id="ytick_17">
     <g id="line2d_52">
      <g>
       <use style="fill:#262626;stroke:#262626;stroke-width:0.5;" x="90" xlink:href="#mc6c93f1db6" y="476.166111"/>
      </g>
     </g>
    </g>
    <g id="ytick_18">
     <g id="line2d_53">
      <g>
       <use style="fill:#262626;stroke:#262626;stroke-width:0.5;" x="90" xlink:href="#mc6c93f1db6" y="473.028148"/>
      </g>
     </g>
    </g>
    <g id="ytick_19">
     <g id="line2d_54">
      <g>
       <use style="fill:#262626;stroke:#262626;stroke-width:0.5;" x="90" xlink:href="#mc6c93f1db6" y="470.309921"/>
      </g>
     </g>
    </g>
    <g id="ytick_20">
     <g id="line2d_55">
      <g>
       <use style="fill:#262626;stroke:#262626;stroke-width:0.5;" x="90" xlink:href="#mc6c93f1db6" y="467.912274"/>
      </g>
     </g>
    </g>
    <g id="ytick_21">
     <g id="line2d_56">
      <g>
       <use style="fill:#262626;stroke:#262626;stroke-width:0.5;" x="90" xlink:href="#mc6c93f1db6" y="451.65748"/>
      </g>
     </g>
    </g>
    <g id="ytick_22">
     <g id="line2d_57">
      <g>
       <use style="fill:#262626;stroke:#262626;stroke-width:0.5;" x="90" xlink:href="#mc6c93f1db6" y="443.403644"/>
      </g>
     </g>
    </g>
    <g id="ytick_23">
     <g id="line2d_58">
      <g>
       <use style="fill:#262626;stroke:#262626;stroke-width:0.5;" x="90" xlink:href="#mc6c93f1db6" y="437.547454"/>
      </g>
     </g>
    </g>
    <g id="ytick_24">
     <g id="line2d_59">
      <g>
       <use style="fill:#262626;stroke:#262626;stroke-width:0.5;" x="90" xlink:href="#mc6c93f1db6" y="433.00504"/>
      </g>
     </g>
    </g>
    <g id="ytick_25">
     <g id="line2d_60">
      <g>
       <use style="fill:#262626;stroke:#262626;stroke-width:0.5;" x="90" xlink:href="#mc6c93f1db6" y="429.293617"/>
      </g>
     </g>
    </g>
    <g id="ytick_26">
     <g id="line2d_61">
      <g>
       <use style="fill:#262626;stroke:#262626;stroke-width:0.5;" x="90" xlink:href="#mc6c93f1db6" y="426.155654"/>
      </g>
     </g>
    </g>
    <g id="ytick_27">
     <g id="line2d_62">
      <g>
       <use style="fill:#262626;stroke:#262626;stroke-width:0.5;" x="90" xlink:href="#mc6c93f1db6" y="423.437427"/>
      </g>
     </g>
    </g>
    <g id="ytick_28">
     <g id="line2d_63">
      <g>
       <use style="fill:#262626;stroke:#262626;stroke-width:0.5;" x="90" xlink:href="#mc6c93f1db6" y="421.039781"/>
      </g>
     </g>
    </g>
    <g id="ytick_29">
     <g id="line2d_64">
      <g>
       <use style="fill:#262626;stroke:#262626;stroke-width:0.5;" x="90" xlink:href="#mc6c93f1db6" y="404.784987"/>
      </g>
     </g>
    </g>
    <g id="ytick_30">
     <g id="line2d_65">
      <g>
       <use style="fill:#262626;stroke:#262626;stroke-width:0.5;" x="90" xlink:href="#mc6c93f1db6" y="396.53115"/>
      </g>
     </g>
    </g>
    <g id="ytick_31">
     <g id="line2d_66">
      <g>
       <use style="fill:#262626;stroke:#262626;stroke-width:0.5;" x="90" xlink:href="#mc6c93f1db6" y="390.67496"/>
      </g>
     </g>
    </g>
    <g id="ytick_32">
     <g id="line2d_67">
      <g>
       <use style="fill:#262626;stroke:#262626;stroke-width:0.5;" x="90" xlink:href="#mc6c93f1db6" y="386.132546"/>
      </g>
     </g>
    </g>
    <g id="ytick_33">
     <g id="line2d_68">
      <g>
       <use style="fill:#262626;stroke:#262626;stroke-width:0.5;" x="90" xlink:href="#mc6c93f1db6" y="382.421124"/>
      </g>
     </g>
    </g>
    <g id="ytick_34">
     <g id="line2d_69">
      <g>
       <use style="fill:#262626;stroke:#262626;stroke-width:0.5;" x="90" xlink:href="#mc6c93f1db6" y="379.283161"/>
      </g>
     </g>
    </g>
    <g id="ytick_35">
     <g id="line2d_70">
      <g>
       <use style="fill:#262626;stroke:#262626;stroke-width:0.5;" x="90" xlink:href="#mc6c93f1db6" y="376.564934"/>
      </g>
     </g>
    </g>
    <g id="ytick_36">
     <g id="line2d_71">
      <g>
       <use style="fill:#262626;stroke:#262626;stroke-width:0.5;" x="90" xlink:href="#mc6c93f1db6" y="374.167288"/>
      </g>
     </g>
    </g>
    <g id="ytick_37">
     <g id="line2d_72">
      <g>
       <use style="fill:#262626;stroke:#262626;stroke-width:0.5;" x="90" xlink:href="#mc6c93f1db6" y="357.912493"/>
      </g>
     </g>
    </g>
    <g id="ytick_38">
     <g id="line2d_73">
      <g>
       <use style="fill:#262626;stroke:#262626;stroke-width:0.5;" x="90" xlink:href="#mc6c93f1db6" y="349.658657"/>
      </g>
     </g>
    </g>
    <g id="ytick_39">
     <g id="line2d_74">
      <g>
       <use style="fill:#262626;stroke:#262626;stroke-width:0.5;" x="90" xlink:href="#mc6c93f1db6" y="343.802467"/>
      </g>
     </g>
    </g>
    <g id="ytick_40">
     <g id="line2d_75">
      <g>
       <use style="fill:#262626;stroke:#262626;stroke-width:0.5;" x="90" xlink:href="#mc6c93f1db6" y="339.260053"/>
      </g>
     </g>
    </g>
    <g id="ytick_41">
     <g id="line2d_76">
      <g>
       <use style="fill:#262626;stroke:#262626;stroke-width:0.5;" x="90" xlink:href="#mc6c93f1db6" y="335.548631"/>
      </g>
     </g>
    </g>
    <g id="ytick_42">
     <g id="line2d_77">
      <g>
       <use style="fill:#262626;stroke:#262626;stroke-width:0.5;" x="90" xlink:href="#mc6c93f1db6" y="332.410668"/>
      </g>
     </g>
    </g>
    <g id="ytick_43">
     <g id="line2d_78">
      <g>
       <use style="fill:#262626;stroke:#262626;stroke-width:0.5;" x="90" xlink:href="#mc6c93f1db6" y="329.69244"/>
      </g>
     </g>
    </g>
    <g id="ytick_44">
     <g id="line2d_79">
      <g>
       <use style="fill:#262626;stroke:#262626;stroke-width:0.5;" x="90" xlink:href="#mc6c93f1db6" y="327.294794"/>
      </g>
     </g>
    </g>
    <g id="ytick_45">
     <g id="line2d_80">
      <g>
       <use style="fill:#262626;stroke:#262626;stroke-width:0.5;" x="90" xlink:href="#mc6c93f1db6" y="311.04"/>
      </g>
     </g>
    </g>
   </g>
   <g id="line2d_81">
    <path clip-path="url(#p71eeacc7fb)" d="M -1 365.905564 
L 151.095164 365.911216 
L 206.306812 364.329054 
L 238.603556 402.832819 
L 261.518461 398.679962 
L 279.292642 438.57092 
L 293.815205 375.605168 
L 306.093857 412.519378 
L 316.730109 439.757945 
L 326.111949 429.667001 
L 334.50429 453.743054 
L 342.096086 418.654561 
L 349.026853 355.317287 
L 355.402541 403.039172 
L 366.801034 425.699951 
L 371.941758 432.36876 
L 376.770725 495.750169 
L 381.323597 393.405055 
L 385.630245 416.684022 
L 389.715939 436.16911 
L 393.602249 445.576211 
L 397.307735 442.058914 
L 400.848476 418.117044 
L 404.238502 378.962632 
L 407.490119 396.16175 
L 410.614189 410.534694 
L 413.620341 419.908098 
L 416.517154 432.439137 
L 419.312303 427.9908 
L 422.012683 388.780635 
L 424.624509 395.10392 
L 427.153406 407.217485 
L 429.604479 413.21729 
L 431.982374 413.904569 
L 434.291335 413.876717 
L 436.535246 403.846925 
L 438.717672 412.355822 
L 440.841893 426.3034 
L 442.910933 428.630784 
L 444.927587 427.37823 
L 446.894442 428.216952 
L 448.813898 418.941074 
L 450.688186 406.891479 
L 452.519383 427.160868 
L 454.309426 432.239562 
L 456.060125 432.895348 
L 457.773171 432.210712 
L 459.45015 432.833782 
L 461.09255 439.432447 
L 462.701768 440.047695 
L 464.279118 441.403659 
L 465.825838 440.97145 
L 467.343094 439.470334 
L 468.83199 441.418593 
L 470.293564 457.749425 
L 471.728802 437.885879 
L 473.138637 440.665839 
L 474.523951 441.463213 
L 475.885584 441.03263 
L 477.224331 443.509549 
L 478.540949 456.701719 
L 479.836157 433.790734 
L 481.110642 438.674682 
L 482.365055 440.967437 
L 483.600019 441.413626 
L 484.816127 444.132091 
L 486.013948 441.993848 
L 487.194022 442.504827 
L 488.356869 444.168391 
L 489.502983 443.48597 
L 490.63284 444.697357 
L 491.746894 444.334772 
L 492.845581 446.278205 
L 493.92932 449.952807 
L 494.998512 442.724229 
L 496.053541 447.913686 
L 497.094779 449.183303 
L 498.122582 446.351098 
L 499.137291 446.539611 
L 500.139235 447.87548 
L 501.128734 450.102155 
L 502.10609 449.269793 
L 503.0716 447.944595 
L 504.025546 447.833833 
L 504.968203 448.406661 
L 505.899834 450.614218 
L 506.820695 447.078639 
L 507.731032 447.286844 
L 508.631082 449.069699 
L 509.521075 451.391293 
L 510.401234 449.191066 
L 511.271773 452.467976 
L 512.132901 448.672301 
L 512.984819 450.847511 
L 513.827722 450.250487 
L 514.661799 452.261418 
L 515.487232 451.421294 
L 516.304198 451.794825 
L 517.112871 454.796517 
L 517.913416 452.561015 
L 518.705996 452.304195 
L 519.490766 451.687722 
L 520.26788 451.901505 
L 521.037486 451.014151 
L 521.799727 454.889234 
L 522.554743 454.836632 
L 523.302669 453.61357 
L 524.043638 460.137197 
L 524.777778 453.622461 
L 525.505212 452.580005 
L 526.226064 454.785781 
L 526.940451 454.639942 
L 527.648487 457.846855 
L 528.350285 453.990116 
L 529.045954 456.338758 
L 529.7356 456.894871 
L 530.419326 454.377253 
L 531.097232 455.818962 
L 531.769418 455.758011 
L 532.435979 453.788198 
L 533.097009 458.825815 
L 533.752597 454.688078 
L 534.402834 456.213248 
L 535.047806 458.863165 
L 535.687597 456.520259 
L 536.32229 457.037335 
L 536.951966 456.235783 
L 537.576703 453.941635 
L 538.196578 458.395999 
L 538.811667 458.918247 
L 539.422042 457.847701 
L 540.027776 457.796145 
L 540.628938 456.649224 
L 541.225596 460.593166 
L 541.817819 458.094632 
L 542.405671 456.097575 
L 542.989216 460.012002 
L 543.568517 459.516339 
L 544.143636 461.667847 
L 544.714632 458.98449 
L 545.281563 461.319239 
L 546.403463 458.592353 
L 546.958543 459.33983 
L 547.509781 458.032545 
L 548.05723 457.234349 
L 548.600942 462.133265 
L 549.140969 459.558127 
L 549.677358 461.718501 
L 550.21016 458.811003 
L 550.739422 461.462676 
L 551.26519 458.620682 
L 551.78751 460.242923 
L 552.306428 459.004416 
L 552.821987 459.977225 
L 553.33423 459.772756 
L 553.8432 463.187248 
L 554.348939 463.394065 
L 554.851487 461.63299 
L 555.350884 458.656274 
L 555.847169 460.338687 
L 556.340382 465.431492 
L 556.830559 461.166371 
L 557.317739 466.321495 
L 557.801956 460.630198 
L 558.283248 463.944211 
L 559.237195 460.325701 
L 559.709918 465.685234 
L 560.179852 462.734239 
L 560.647029 464.18044 
L 561.111483 466.611572 
L 561.573244 462.454373 
L 562.032344 463.311852 
L 562.488812 462.226311 
L 562.94268 466.380014 
L 563.393976 465.164587 
L 563.84273 461.938692 
L 564.28897 466.643905 
L 564.732723 462.094547 
L 565.174019 462.756429 
L 565.612882 467.878619 
L 566.049341 464.939377 
L 566.483422 463.579523 
L 566.91515 462.864521 
L 567.34455 463.085092 
L 567.771648 461.742883 
L 568.196468 465.589147 
L 568.619034 467.828054 
L 569.039371 466.539774 
L 569.457501 461.470518 
L 569.873447 463.379217 
L 570.287233 466.053 
L 570.69888 462.516645 
L 571.108411 469.302278 
L 571.515847 470.355196 
L 571.921209 465.881829 
L 572.32452 473.089621 
L 572.725798 465.066723 
L 573.125065 464.579943 
L 573.52234 461.96106 
L 573.917644 461.41954 
L 574.310996 467.593378 
L 574.702415 469.014053 
L 575.091919 468.98691 
L 575.479529 467.717267 
L 575.865261 465.194841 
L 576.249135 466.761243 
L 576.631167 470.589998 
L 577.011376 467.445319 
L 577.389778 463.344246 
L 577.766391 468.201605 
L 578.141232 469.235686 
L 578.514318 467.942709 
L 578.885664 471.734586 
L 579.255287 470.324573 
L 579.623202 463.562295 
L 579.989426 464.016539 
L 580.353974 462.19566 
L 580.716861 462.657933 
L 581.078102 468.074562 
L 581.437713 467.35711 
L 581.795707 465.109213 
L 582.152099 471.032389 
L 582.506904 467.090204 
L 582.860136 468.58642 
L 583.211808 473.030527 
L 583.561934 466.682038 
L 583.910528 471.835002 
L 584.257603 465.999904 
L 584.603172 463.751498 
L 584.947248 471.276825 
L 585.289845 471.897872 
L 585.630974 467.473045 
L 585.970649 472.265224 
L 586.308881 470.954326 
L 586.645683 473.468625 
L 586.981067 466.204229 
L 587.315045 471.667114 
L 587.647628 473.289083 
L 587.978828 464.66239 
L 588.308657 465.958705 
L 588.637126 471.671549 
L 588.964246 468.892872 
L 589.290028 469.603668 
L 589.614483 473.055537 
L 589.937621 469.897372 
L 590.259454 469.564561 
L 590.579992 468.996266 
L 590.899246 472.903395 
L 591.217224 467.054365 
L 591.533939 472.708158 
L 591.849399 470.199149 
L 592.163614 466.658375 
L 592.476596 468.875714 
L 592.788352 469.61762 
L 593.098892 467.015483 
L 593.408227 479.019055 
L 593.716365 467.814488 
L 594.023315 472.471585 
L 594.329088 466.854417 
L 594.633691 470.510995 
L 594.937133 468.617567 
L 595.239424 475.21937 
L 595.540572 468.240264 
L 595.840586 472.247642 
L 596.437245 466.596767 
L 596.733906 469.933519 
L 597.029467 466.883962 
L 597.323936 478.99934 
L 597.617319 468.457516 
L 597.909626 469.643049 
L 598.200864 471.319921 
L 598.491042 469.459041 
L 598.780166 470.511952 
L 599.068244 469.99258 
L 599.355284 471.793886 
L 599.641294 469.288833 
L 599.92628 468.753095 
L 600.21025 473.485201 
L 600.493212 475.044983 
L 600.775172 467.855499 
L 601.056137 469.509475 
L 601.336115 475.884891 
L 601.615112 470.055909 
L 601.893135 478.067349 
L 602.446287 466.253065 
L 602.721429 473.239328 
L 602.995624 471.147692 
L 603.268878 478.355375 
L 603.541199 482.121331 
L 603.812591 468.695401 
L 604.083062 469.999424 
L 604.352617 473.493062 
L 604.621264 470.007189 
L 604.889007 470.484967 
L 605.155853 472.164219 
L 605.421809 477.464953 
L 605.686879 472.789077 
L 605.95107 476.2444 
L 606.214388 473.11353 
L 606.476838 476.060773 
L 606.738427 471.069146 
L 606.999159 473.709158 
L 607.25904 473.889093 
L 607.518076 474.775108 
L 607.776273 472.086528 
L 608.033635 475.90818 
L 608.290169 468.092342 
L 608.545879 471.26069 
L 608.80077 478.379595 
L 609.054849 477.120178 
L 609.308119 477.676282 
L 609.560587 470.336875 
L 609.812258 477.230716 
L 610.313225 465.840963 
L 610.562532 467.387979 
L 610.811062 486.737652 
L 611.058818 472.427802 
L 611.305806 470.827677 
L 611.55203 474.297655 
L 611.797496 480.76443 
L 612.28617 470.416264 
L 612.529387 471.915224 
L 612.771864 471.565905 
L 613.013605 481.889178 
L 613.254614 469.80939 
L 613.494897 478.882803 
L 613.734457 472.380339 
L 613.973298 478.679056 
L 614.211426 469.541614 
L 614.448843 471.93509 
L 614.685555 481.989202 
L 614.921566 475.757496 
L 615.15688 472.931573 
L 615.3915 465.867091 
L 615.625431 476.406061 
L 615.858678 474.202216 
L 616.091243 470.188603 
L 616.554347 478.638553 
L 616.784892 469.298434 
L 617.243992 476.619876 
L 617.700461 469.616006 
L 617.927718 480.184778 
L 618.154329 476.498482 
L 618.380296 476.500162 
L 618.605625 469.19904 
L 618.830318 474.273485 
L 619.054379 475.836425 
L 619.277811 487.963623 
L 619.500618 467.794824 
L 619.722804 478.119337 
L 619.944372 469.649928 
L 620.165325 471.795537 
L 620.385667 477.296774 
L 620.605401 490.679462 
L 620.824531 479.322449 
L 621.043059 474.74868 
L 621.26099 474.77368 
L 621.478326 473.789774 
L 621.69507 475.523289 
L 621.911227 475.057874 
L 622.126798 474.088503 
L 622.341787 475.030286 
L 622.556198 472.451477 
L 622.983296 479.642119 
L 623.195989 477.322549 
L 623.408116 471.617898 
L 623.61968 469.569008 
L 623.830683 473.834715 
L 624.041128 472.793659 
L 624.251019 474.333616 
L 624.460358 473.766926 
L 624.877394 484.194755 
L 625.085096 477.378664 
L 625.292257 486.520573 
L 625.498881 476.684821 
L 625.704971 484.172297 
L 625.910528 473.266297 
L 626.115557 471.552743 
L 626.320059 476.169298 
L 626.524038 467.316952 
L 626.727495 477.37887 
L 626.930435 473.711883 
L 627.334768 492.045377 
L 627.536168 476.054932 
L 627.73706 487.550601 
L 627.937446 474.881131 
L 628.13733 473.010954 
L 628.336713 472.706967 
L 628.535599 477.475685 
L 628.733989 473.017997 
L 628.931886 473.829085 
L 629.129293 479.704284 
L 629.326211 467.863345 
L 629.522644 474.282456 
L 629.718594 474.714402 
L 629.914063 472.098138 
L 630.109054 474.469348 
L 630.303568 474.603353 
L 630.497608 475.62309 
L 630.691177 466.31076 
L 631.07691 478.060595 
L 631.269078 474.780111 
L 631.460783 475.428191 
L 631.652028 480.583734 
L 631.842815 480.385459 
L 632.033146 470.594265 
L 632.223024 482.299299 
L 632.41245 479.677795 
L 632.601426 471.704495 
L 632.789956 471.255135 
L 632.97804 473.89375 
L 633.165681 474.312555 
L 633.352881 470.613114 
L 633.539642 487.285935 
L 633.725966 482.905822 
L 633.911856 473.79242 
L 634.097312 476.348225 
L 634.282338 483.985616 
L 634.466935 479.294368 
L 634.651105 490.988779 
L 634.83485 481.823551 
L 635.018173 488.683009 
L 635.201074 472.083672 
L 635.383557 478.16113 
L 635.565622 474.516117 
L 635.747272 476.833206 
L 635.928509 473.371444 
L 636.109335 480.504512 
L 636.289751 474.873278 
L 636.469759 480.815614 
L 636.649361 474.608192 
L 636.828559 480.061339 
L 637.007355 472.825013 
L 637.185751 486.838495 
L 637.363748 470.610471 
L 637.541348 470.108927 
L 637.718553 475.399703 
L 637.895364 473.130834 
L 638.071784 474.77 
L 638.247814 480.288902 
L 638.423456 471.279866 
L 638.598712 491.092471 
L 638.773582 474.901844 
L 638.94807 477.72051 
L 639.122176 472.301674 
L 639.295903 473.028853 
L 639.469251 484.395134 
L 639.642223 473.716942 
L 639.81482 477.483141 
L 639.987044 485.834123 
L 640.158897 473.873408 
L 640.330379 471.68393 
L 640.67224 477.022318 
L 640.842622 491.01647 
L 641.012641 478.625362 
L 641.182297 475.497165 
L 641.351593 475.069364 
L 641.520529 478.179696 
L 641.857331 469.784496 
L 642.0252 486.147911 
L 642.192715 471.788976 
L 642.359879 484.88639 
L 642.526693 471.428468 
L 642.693158 472.729731 
L 643.025049 488.041901 
L 643.190477 487.354648 
L 643.355562 469.813836 
L 643.520306 482.167098 
L 643.684709 483.427672 
L 644.012502 475.699956 
L 644.175894 480.136212 
L 644.338952 474.499183 
L 644.501676 474.224026 
L 644.664069 470.648483 
L 644.826131 486.181601 
L 645.14927 473.440985 
L 645.310349 475.171679 
L 645.471103 473.581668 
L 645.631533 482.97121 
L 645.791641 473.830082 
L 645.951427 479.472246 
L 646.110894 469.022302 
L 646.428873 481.748105 
L 646.587387 478.719394 
L 646.745587 472.322197 
L 646.903473 476.099604 
L 647.061047 475.498349 
L 647.375263 476.792467 
L 647.531907 475.192913 
L 647.688244 479.303933 
L 647.844274 472.341409 
L 647.844274 472.341409 
" style="fill:none;stroke:#b22222;stroke-linecap:round;stroke-width:1.75;"/>
   </g>
   <g id="patch_6">
    <path d="M 90 512.64 
L 90 311.04 
" style="fill:none;stroke:#262626;stroke-linecap:square;stroke-linejoin:miter;stroke-width:1.25;"/>
   </g>
   <g id="patch_7">
    <path d="M 90 512.64 
L 648 512.64 
" style="fill:none;stroke:#262626;stroke-linecap:square;stroke-linejoin:miter;stroke-width:1.25;"/>
   </g>
  </g>
 </g>
 <defs>
  <clipPath id="pe438ae5bf8">
   <rect height="201.6" width="558" x="90" y="69.12"/>
  </clipPath>
  <clipPath id="p71eeacc7fb">
   <rect height="201.6" width="558" x="90" y="311.04"/>
  </clipPath>
 </defs>
</svg>
