<?xml version="1.0" encoding="utf-8" standalone="no"?>
<!DOCTYPE svg PUBLIC "-//W3C//DTD SVG 1.1//EN"
  "http://www.w3.org/Graphics/SVG/1.1/DTD/svg11.dtd">
<!-- Created with matplotlib (http://matplotlib.org/) -->
<svg height="576pt" version="1.1" viewBox="0 0 720 576" width="720pt" xmlns="http://www.w3.org/2000/svg" xmlns:xlink="http://www.w3.org/1999/xlink">
 <defs>
  <style type="text/css">
*{stroke-linecap:butt;stroke-linejoin:round;}
  </style>
 </defs>
 <g id="figure_1">
  <g id="patch_1">
   <path d="M 0 576 
L 720 576 
L 720 0 
L 0 0 
z
" style="fill:#ffffff;"/>
  </g>
  <g id="axes_1">
   <g id="patch_2">
    <path d="M 90 270.72 
L 648 270.72 
L 648 69.12 
L 90 69.12 
z
" style="fill:#ffffff;"/>
   </g>
   <g id="matplotlib.axis_1">
    <g id="xtick_1">
     <g id="line2d_1">
      <defs>
       <path d="M 0 0 
L 0 6 
" id="mda660d6b11" style="stroke:#262626;"/>
      </defs>
      <g>
       <use style="fill:#262626;stroke:#262626;" x="90" xlink:href="#mda660d6b11" y="270.72"/>
      </g>
     </g>
     <g id="text_1">
      <!-- 0 -->
      <defs>
       <path d="M 4.15625 35.296875 
Q 4.15625 48 6.765625 55.734375 
Q 9.375 63.484375 14.515625 67.671875 
Q 19.671875 71.875 27.484375 71.875 
Q 33.25 71.875 37.59375 69.546875 
Q 41.9375 67.234375 44.765625 62.859375 
Q 47.609375 58.5 49.21875 52.21875 
Q 50.828125 45.953125 50.828125 35.296875 
Q 50.828125 22.703125 48.234375 14.96875 
Q 45.65625 7.234375 40.5 3 
Q 35.359375 -1.21875 27.484375 -1.21875 
Q 17.140625 -1.21875 11.234375 6.203125 
Q 4.15625 15.140625 4.15625 35.296875 
z
M 13.1875 35.296875 
Q 13.1875 17.671875 17.3125 11.828125 
Q 21.4375 6 27.484375 6 
Q 33.546875 6 37.671875 11.859375 
Q 41.796875 17.71875 41.796875 35.296875 
Q 41.796875 52.984375 37.671875 58.78125 
Q 33.546875 64.59375 27.390625 64.59375 
Q 21.34375 64.59375 17.71875 59.46875 
Q 13.1875 52.9375 13.1875 35.296875 
z
" id="ArialMT-30"/>
      </defs>
      <g style="fill:#262626;" transform="translate(87.219531 290.877812)scale(0.1 -0.1)">
       <use xlink:href="#ArialMT-30"/>
      </g>
     </g>
    </g>
    <g id="xtick_2">
     <g id="line2d_2">
      <g>
       <use style="fill:#262626;stroke:#262626;" x="198.984375" xlink:href="#mda660d6b11" y="270.72"/>
      </g>
     </g>
     <g id="text_2">
      <!-- 200 -->
      <defs>
       <path d="M 50.34375 8.453125 
L 50.34375 0 
L 3.03125 0 
Q 2.9375 3.171875 4.046875 6.109375 
Q 5.859375 10.9375 9.828125 15.625 
Q 13.8125 20.3125 21.34375 26.46875 
Q 33.015625 36.03125 37.109375 41.625 
Q 41.21875 47.21875 41.21875 52.203125 
Q 41.21875 57.421875 37.46875 61 
Q 33.734375 64.59375 27.734375 64.59375 
Q 21.390625 64.59375 17.578125 60.78125 
Q 13.765625 56.984375 13.71875 50.25 
L 4.6875 51.171875 
Q 5.609375 61.28125 11.65625 66.578125 
Q 17.71875 71.875 27.9375 71.875 
Q 38.234375 71.875 44.234375 66.15625 
Q 50.25 60.453125 50.25 52 
Q 50.25 47.703125 48.484375 43.546875 
Q 46.734375 39.40625 42.65625 34.8125 
Q 38.578125 30.21875 29.109375 22.21875 
Q 21.1875 15.578125 18.9375 13.203125 
Q 16.703125 10.84375 15.234375 8.453125 
z
" id="ArialMT-32"/>
      </defs>
      <g style="fill:#262626;" transform="translate(190.642969 290.877812)scale(0.1 -0.1)">
       <use xlink:href="#ArialMT-32"/>
       <use x="55.615234" xlink:href="#ArialMT-30"/>
       <use x="111.230469" xlink:href="#ArialMT-30"/>
      </g>
     </g>
    </g>
    <g id="xtick_3">
     <g id="line2d_3">
      <g>
       <use style="fill:#262626;stroke:#262626;" x="307.96875" xlink:href="#mda660d6b11" y="270.72"/>
      </g>
     </g>
     <g id="text_3">
      <!-- 400 -->
      <defs>
       <path d="M 32.328125 0 
L 32.328125 17.140625 
L 1.265625 17.140625 
L 1.265625 25.203125 
L 33.9375 71.578125 
L 41.109375 71.578125 
L 41.109375 25.203125 
L 50.78125 25.203125 
L 50.78125 17.140625 
L 41.109375 17.140625 
L 41.109375 0 
z
M 32.328125 25.203125 
L 32.328125 57.46875 
L 9.90625 25.203125 
z
" id="ArialMT-34"/>
      </defs>
      <g style="fill:#262626;" transform="translate(299.627344 290.877812)scale(0.1 -0.1)">
       <use xlink:href="#ArialMT-34"/>
       <use x="55.615234" xlink:href="#ArialMT-30"/>
       <use x="111.230469" xlink:href="#ArialMT-30"/>
      </g>
     </g>
    </g>
    <g id="xtick_4">
     <g id="line2d_4">
      <g>
       <use style="fill:#262626;stroke:#262626;" x="416.953125" xlink:href="#mda660d6b11" y="270.72"/>
      </g>
     </g>
     <g id="text_4">
      <!-- 600 -->
      <defs>
       <path d="M 49.75 54.046875 
L 41.015625 53.375 
Q 39.84375 58.546875 37.703125 60.890625 
Q 34.125 64.65625 28.90625 64.65625 
Q 24.703125 64.65625 21.53125 62.3125 
Q 17.390625 59.28125 14.984375 53.46875 
Q 12.59375 47.65625 12.5 36.921875 
Q 15.671875 41.75 20.265625 44.09375 
Q 24.859375 46.4375 29.890625 46.4375 
Q 38.671875 46.4375 44.84375 39.96875 
Q 51.03125 33.5 51.03125 23.25 
Q 51.03125 16.5 48.125 10.71875 
Q 45.21875 4.9375 40.140625 1.859375 
Q 35.0625 -1.21875 28.609375 -1.21875 
Q 17.625 -1.21875 10.6875 6.859375 
Q 3.765625 14.9375 3.765625 33.5 
Q 3.765625 54.25 11.421875 63.671875 
Q 18.109375 71.875 29.4375 71.875 
Q 37.890625 71.875 43.28125 67.140625 
Q 48.6875 62.40625 49.75 54.046875 
z
M 13.875 23.1875 
Q 13.875 18.65625 15.796875 14.5 
Q 17.71875 10.359375 21.1875 8.171875 
Q 24.65625 6 28.46875 6 
Q 34.03125 6 38.03125 10.484375 
Q 42.046875 14.984375 42.046875 22.703125 
Q 42.046875 30.125 38.078125 34.390625 
Q 34.125 38.671875 28.125 38.671875 
Q 22.171875 38.671875 18.015625 34.390625 
Q 13.875 30.125 13.875 23.1875 
z
" id="ArialMT-36"/>
      </defs>
      <g style="fill:#262626;" transform="translate(408.611719 290.877812)scale(0.1 -0.1)">
       <use xlink:href="#ArialMT-36"/>
       <use x="55.615234" xlink:href="#ArialMT-30"/>
       <use x="111.230469" xlink:href="#ArialMT-30"/>
      </g>
     </g>
    </g>
    <g id="xtick_5">
     <g id="line2d_5">
      <g>
       <use style="fill:#262626;stroke:#262626;" x="525.9375" xlink:href="#mda660d6b11" y="270.72"/>
      </g>
     </g>
     <g id="text_5">
      <!-- 800 -->
      <defs>
       <path d="M 17.671875 38.8125 
Q 12.203125 40.828125 9.5625 44.53125 
Q 6.9375 48.25 6.9375 53.421875 
Q 6.9375 61.234375 12.546875 66.546875 
Q 18.171875 71.875 27.484375 71.875 
Q 36.859375 71.875 42.578125 66.421875 
Q 48.296875 60.984375 48.296875 53.171875 
Q 48.296875 48.1875 45.671875 44.5 
Q 43.0625 40.828125 37.75 38.8125 
Q 44.34375 36.671875 47.78125 31.875 
Q 51.21875 27.09375 51.21875 20.453125 
Q 51.21875 11.28125 44.71875 5.03125 
Q 38.234375 -1.21875 27.640625 -1.21875 
Q 17.046875 -1.21875 10.546875 5.046875 
Q 4.046875 11.328125 4.046875 20.703125 
Q 4.046875 27.6875 7.59375 32.390625 
Q 11.140625 37.109375 17.671875 38.8125 
z
M 15.921875 53.71875 
Q 15.921875 48.640625 19.1875 45.40625 
Q 22.46875 42.1875 27.6875 42.1875 
Q 32.765625 42.1875 36.015625 45.375 
Q 39.265625 48.578125 39.265625 53.21875 
Q 39.265625 58.0625 35.90625 61.359375 
Q 32.5625 64.65625 27.59375 64.65625 
Q 22.5625 64.65625 19.234375 61.421875 
Q 15.921875 58.203125 15.921875 53.71875 
z
M 13.09375 20.65625 
Q 13.09375 16.890625 14.875 13.375 
Q 16.65625 9.859375 20.171875 7.921875 
Q 23.6875 6 27.734375 6 
Q 34.03125 6 38.125 10.046875 
Q 42.234375 14.109375 42.234375 20.359375 
Q 42.234375 26.703125 38.015625 30.859375 
Q 33.796875 35.015625 27.4375 35.015625 
Q 21.234375 35.015625 17.15625 30.90625 
Q 13.09375 26.8125 13.09375 20.65625 
z
" id="ArialMT-38"/>
      </defs>
      <g style="fill:#262626;" transform="translate(517.596094 290.877812)scale(0.1 -0.1)">
       <use xlink:href="#ArialMT-38"/>
       <use x="55.615234" xlink:href="#ArialMT-30"/>
       <use x="111.230469" xlink:href="#ArialMT-30"/>
      </g>
     </g>
    </g>
    <g id="xtick_6">
     <g id="line2d_6">
      <g>
       <use style="fill:#262626;stroke:#262626;" x="634.921875" xlink:href="#mda660d6b11" y="270.72"/>
      </g>
     </g>
     <g id="text_6">
      <!-- 1000 -->
      <defs>
       <path d="M 37.25 0 
L 28.46875 0 
L 28.46875 56 
Q 25.296875 52.984375 20.140625 49.953125 
Q 14.984375 46.921875 10.890625 45.40625 
L 10.890625 53.90625 
Q 18.265625 57.375 23.78125 62.296875 
Q 29.296875 67.234375 31.59375 71.875 
L 37.25 71.875 
z
" id="ArialMT-31"/>
      </defs>
      <g style="fill:#262626;" transform="translate(623.8 290.877812)scale(0.1 -0.1)">
       <use xlink:href="#ArialMT-31"/>
       <use x="55.615234" xlink:href="#ArialMT-30"/>
       <use x="111.230469" xlink:href="#ArialMT-30"/>
       <use x="166.845703" xlink:href="#ArialMT-30"/>
      </g>
     </g>
    </g>
   </g>
   <g id="matplotlib.axis_2">
    <g id="ytick_1">
     <g id="line2d_7">
      <defs>
       <path d="M 0 0 
L -6 0 
" id="m881a9d59f8" style="stroke:#262626;"/>
      </defs>
      <g>
       <use style="fill:#262626;stroke:#262626;" x="90" xlink:href="#m881a9d59f8" y="270.72"/>
      </g>
     </g>
     <g id="text_7">
      <!-- −0.6 -->
      <defs>
       <path d="M 52.828125 31.203125 
L 5.5625 31.203125 
L 5.5625 39.40625 
L 52.828125 39.40625 
z
" id="ArialMT-2212"/>
       <path d="M 9.078125 0 
L 9.078125 10.015625 
L 19.09375 10.015625 
L 19.09375 0 
z
" id="ArialMT-2e"/>
      </defs>
      <g style="fill:#262626;" transform="translate(57.259375 274.298906)scale(0.1 -0.1)">
       <use xlink:href="#ArialMT-2212"/>
       <use x="58.398438" xlink:href="#ArialMT-30"/>
       <use x="114.013672" xlink:href="#ArialMT-2e"/>
       <use x="141.796875" xlink:href="#ArialMT-36"/>
      </g>
     </g>
    </g>
    <g id="ytick_2">
     <g id="line2d_8">
      <g>
       <use style="fill:#262626;stroke:#262626;" x="90" xlink:href="#m881a9d59f8" y="237.12"/>
      </g>
     </g>
     <g id="text_8">
      <!-- −0.4 -->
      <g style="fill:#262626;" transform="translate(57.259375 240.698906)scale(0.1 -0.1)">
       <use xlink:href="#ArialMT-2212"/>
       <use x="58.398438" xlink:href="#ArialMT-30"/>
       <use x="114.013672" xlink:href="#ArialMT-2e"/>
       <use x="141.796875" xlink:href="#ArialMT-34"/>
      </g>
     </g>
    </g>
    <g id="ytick_3">
     <g id="line2d_9">
      <g>
       <use style="fill:#262626;stroke:#262626;" x="90" xlink:href="#m881a9d59f8" y="203.52"/>
      </g>
     </g>
     <g id="text_9">
      <!-- −0.2 -->
      <g style="fill:#262626;" transform="translate(57.259375 207.098906)scale(0.1 -0.1)">
       <use xlink:href="#ArialMT-2212"/>
       <use x="58.398438" xlink:href="#ArialMT-30"/>
       <use x="114.013672" xlink:href="#ArialMT-2e"/>
       <use x="141.796875" xlink:href="#ArialMT-32"/>
      </g>
     </g>
    </g>
    <g id="ytick_4">
     <g id="line2d_10">
      <g>
       <use style="fill:#262626;stroke:#262626;" x="90" xlink:href="#m881a9d59f8" y="169.92"/>
      </g>
     </g>
     <g id="text_10">
      <!-- 0.0 -->
      <g style="fill:#262626;" transform="translate(63.1 173.498906)scale(0.1 -0.1)">
       <use xlink:href="#ArialMT-30"/>
       <use x="55.615234" xlink:href="#ArialMT-2e"/>
       <use x="83.398438" xlink:href="#ArialMT-30"/>
      </g>
     </g>
    </g>
    <g id="ytick_5">
     <g id="line2d_11">
      <g>
       <use style="fill:#262626;stroke:#262626;" x="90" xlink:href="#m881a9d59f8" y="136.32"/>
      </g>
     </g>
     <g id="text_11">
      <!-- 0.2 -->
      <g style="fill:#262626;" transform="translate(63.1 139.898906)scale(0.1 -0.1)">
       <use xlink:href="#ArialMT-30"/>
       <use x="55.615234" xlink:href="#ArialMT-2e"/>
       <use x="83.398438" xlink:href="#ArialMT-32"/>
      </g>
     </g>
    </g>
    <g id="ytick_6">
     <g id="line2d_12">
      <g>
       <use style="fill:#262626;stroke:#262626;" x="90" xlink:href="#m881a9d59f8" y="102.72"/>
      </g>
     </g>
     <g id="text_12">
      <!-- 0.4 -->
      <g style="fill:#262626;" transform="translate(63.1 106.298906)scale(0.1 -0.1)">
       <use xlink:href="#ArialMT-30"/>
       <use x="55.615234" xlink:href="#ArialMT-2e"/>
       <use x="83.398438" xlink:href="#ArialMT-34"/>
      </g>
     </g>
    </g>
    <g id="ytick_7">
     <g id="line2d_13">
      <g>
       <use style="fill:#262626;stroke:#262626;" x="90" xlink:href="#m881a9d59f8" y="69.12"/>
      </g>
     </g>
     <g id="text_13">
      <!-- 0.6 -->
      <g style="fill:#262626;" transform="translate(63.1 72.698906)scale(0.1 -0.1)">
       <use xlink:href="#ArialMT-30"/>
       <use x="55.615234" xlink:href="#ArialMT-2e"/>
       <use x="83.398438" xlink:href="#ArialMT-36"/>
      </g>
     </g>
    </g>
   </g>
   <g id="line2d_14">
    <path clip-path="url(#p213a45363f)" d="M 90 160.747881 
L 91.634766 159.363604 
L 93.269531 157.512773 
L 93.814453 157.133379 
L 94.359375 156.595049 
L 94.904297 155.636309 
L 95.994141 154.492998 
L 98.173828 151.683428 
L 99.263672 150.488848 
L 99.808594 149.617266 
L 100.898438 148.720049 
L 101.443359 147.971514 
L 102.533203 147.710039 
L 103.623047 147.689531 
L 104.167969 147.499834 
L 104.712891 147.689531 
L 106.892578 150.058184 
L 109.072266 154.564775 
L 112.886719 165.315996 
L 113.976562 168.499834 
L 115.066406 171.186357 
L 115.611328 172.237383 
L 116.15625 173.570391 
L 118.335938 175.928789 
L 118.880859 176.262041 
L 120.515625 176.523516 
L 121.060547 176.24666 
L 122.695312 175.005937 
L 123.240234 174.877764 
L 125.419922 173.80623 
L 125.964844 173.847246 
L 126.509766 173.642168 
L 127.054688 173.852373 
L 127.599609 173.606279 
L 128.144531 173.596025 
L 128.689453 173.760088 
L 130.324219 174.723955 
L 130.869141 175.564775 
L 131.414062 175.749346 
L 133.59375 178.523027 
L 134.138672 178.810137 
L 134.683594 179.415117 
L 135.228516 179.215166 
L 135.773438 179.430498 
L 136.318359 179.799639 
L 136.863281 179.789385 
L 137.408203 179.34334 
L 137.953125 179.307451 
L 139.587891 178.025713 
L 141.222656 174.626543 
L 142.3125 172.416826 
L 142.857422 170.863359 
L 145.582031 165.264727 
L 146.126953 164.008623 
L 146.671875 163.434404 
L 147.216797 162.362871 
L 148.306641 161.193926 
L 149.396484 160.235186 
L 149.941406 159.901934 
L 150.486328 159.89168 
L 151.03125 159.404619 
L 151.576172 159.866045 
L 153.210938 161.875811 
L 154.845703 164.100908 
L 157.025391 168.84334 
L 157.570312 169.822588 
L 159.205078 173.580645 
L 161.929688 177.297686 
L 162.474609 177.661699 
L 163.019531 178.287187 
L 164.654297 179.379229 
L 165.199219 179.476641 
L 167.923828 178.594805 
L 168.46875 178.076982 
L 169.013672 177.723223 
L 170.103516 176.221025 
L 170.648438 175.744219 
L 171.193359 175.113604 
L 171.738281 174.795732 
L 172.828125 173.247393 
L 173.917969 172.19124 
L 174.462891 171.242754 
L 176.642578 168.638262 
L 177.1875 167.664141 
L 179.367188 165.331377 
L 180.457031 164.177812 
L 181.546875 162.839678 
L 183.181641 161.788652 
L 183.726562 161.245195 
L 184.271484 160.542803 
L 184.816406 160.230059 
L 185.361328 159.717363 
L 185.90625 158.963701 
L 186.451172 158.451006 
L 186.996094 157.482012 
L 187.541016 157.041094 
L 188.085938 155.995195 
L 190.265625 153.298418 
L 190.810547 152.370439 
L 191.355469 152.242266 
L 192.990234 150.596514 
L 193.535156 150.529863 
L 194.625 149.504473 
L 196.259766 149.099443 
L 196.804688 149.099443 
L 197.894531 149.709551 
L 200.074219 152.883135 
L 201.164062 155.610674 
L 201.708984 156.753984 
L 203.34375 161.865557 
L 203.888672 163.147295 
L 206.068359 170.325029 
L 206.613281 171.504229 
L 207.158203 172.960283 
L 208.248047 175.005937 
L 208.792969 175.8929 
L 209.337891 176.43123 
L 209.882812 177.195146 
L 210.427734 177.584795 
L 212.0625 177.456621 
L 212.607422 177.805254 
L 213.152344 177.887285 
L 214.787109 177.425859 
L 216.421875 176.164629 
L 216.966797 176.103105 
L 217.511719 175.713457 
L 218.056641 175.487871 
L 218.601562 175.549395 
L 219.146484 175.334062 
L 219.691406 175.303301 
L 220.236328 175.416094 
L 220.78125 175.749346 
L 222.416016 177.343828 
L 222.960938 177.55916 
L 227.865234 181.588945 
L 228.410156 182.255449 
L 228.955078 182.024736 
L 229.5 182.019609 
L 230.044922 181.727373 
L 231.134766 180.876299 
L 231.679688 179.968828 
L 232.224609 178.651201 
L 233.314453 176.487627 
L 236.583984 169.453447 
L 237.673828 166.787432 
L 239.853516 162.383379 
L 240.398438 161.670732 
L 240.943359 161.768145 
L 241.488281 161.634844 
L 242.033203 161.275957 
L 243.123047 161.106768 
L 244.212891 161.511797 
L 245.847656 163.193437 
L 246.392578 163.736895 
L 247.482422 165.541582 
L 248.027344 166.94124 
L 251.296875 172.739824 
L 252.931641 175.375078 
L 254.021484 176.831133 
L 254.566406 177.420732 
L 255.111328 177.661699 
L 255.65625 178.297441 
L 257.835938 179.015215 
L 258.380859 178.979326 
L 258.925781 178.697344 
L 261.105469 176.820879 
L 262.740234 175.041826 
L 263.830078 173.698564 
L 264.919922 172.785967 
L 265.464844 172.304033 
L 266.554688 170.483965 
L 268.734375 167.653887 
L 269.279297 167.22835 
L 270.369141 165.782549 
L 272.003906 163.906084 
L 273.638672 161.952715 
L 274.728516 160.983721 
L 275.273438 160.332598 
L 275.818359 159.978838 
L 276.908203 158.840654 
L 277.453125 158.886797 
L 279.087891 156.589922 
L 279.632812 155.892656 
L 280.177734 154.980059 
L 280.722656 154.298174 
L 281.267578 153.154863 
L 281.8125 152.498613 
L 282.357422 152.14998 
L 282.902344 151.30916 
L 284.537109 149.637773 
L 285.626953 148.950762 
L 287.261719 147.089678 
L 287.806641 147.335771 
L 288.351562 147.243486 
L 288.896484 147.42293 
L 289.441406 147.720293 
L 289.986328 148.191973 
L 291.621094 150.206865 
L 292.166016 151.319414 
L 293.255859 154.518633 
L 293.800781 155.508135 
L 294.345703 156.825762 
L 295.980469 161.99373 
L 297.070312 165.51082 
L 298.160156 168.13582 
L 298.705078 169.26375 
L 299.25 170.904375 
L 300.339844 173.119219 
L 300.884766 173.847246 
L 301.429688 174.770098 
L 301.974609 175.211016 
L 302.519531 175.872393 
L 303.064453 175.810869 
L 303.609375 175.954424 
L 304.154297 176.446611 
L 305.244141 176.123613 
L 305.789062 175.631426 
L 306.333984 175.298174 
L 306.878906 174.729082 
L 307.96875 174.016436 
L 308.513672 173.452471 
L 309.058594 173.119219 
L 310.148438 172.84749 
L 310.693359 172.380937 
L 311.238281 172.186113 
L 311.783203 172.339922 
L 312.328125 172.257891 
L 312.873047 172.673174 
L 313.417969 173.31917 
L 313.962891 173.667803 
L 314.507812 174.221514 
L 315.052734 174.5804 
L 315.597656 175.087969 
L 316.142578 176.215898 
L 318.322266 178.830645 
L 318.867188 179.435625 
L 319.957031 179.845781 
L 320.501953 179.938066 
L 321.046875 179.784258 
L 321.591797 179.46126 
L 322.136719 178.974199 
L 323.226562 178.415361 
L 323.771484 177.887285 
L 325.40625 174.805986 
L 330.310547 162.132158 
L 331.400391 159.804521 
L 331.945312 159.271318 
L 332.490234 158.912432 
L 333.035156 158.245928 
L 333.580078 157.820391 
L 334.125 157.21541 
L 334.669922 156.866777 
L 335.214844 157.179521 
L 336.849609 159.153398 
L 337.394531 159.681475 
L 337.939453 159.927568 
L 338.484375 160.568437 
L 339.574219 162.962725 
L 340.119141 163.885576 
L 340.664062 164.459795 
L 341.753906 166.397783 
L 342.298828 167.202715 
L 343.388672 169.463701 
L 343.933594 170.330156 
L 344.478516 171.658037 
L 345.568359 173.155107 
L 346.658203 174.970049 
L 347.203125 175.390459 
L 347.748047 175.498125 
L 349.927734 176.390215 
L 350.472656 176.436357 
L 351.017578 175.985186 
L 351.5625 175.928789 
L 352.107422 175.59041 
L 352.652344 175.554521 
L 353.742188 174.324053 
L 354.287109 173.232012 
L 354.832031 172.457842 
L 355.376953 171.88875 
L 355.921875 171.53499 
L 357.556641 169.576494 
L 358.101562 168.561357 
L 359.191406 167.83333 
L 360.28125 166.551592 
L 361.371094 165.146807 
L 364.640625 161.311846 
L 365.185547 161.050371 
L 365.730469 161.117021 
L 366.275391 160.794023 
L 366.820312 160.230059 
L 367.365234 159.450762 
L 367.910156 158.922686 
L 368.455078 158.64583 
L 369 157.692217 
L 369.544922 157.323076 
L 370.089844 157.107744 
L 371.179688 155.385088 
L 371.724609 154.933916 
L 372.269531 153.970049 
L 373.904297 152.021807 
L 374.449219 151.673174 
L 374.994141 150.53499 
L 376.083984 148.961016 
L 376.628906 148.038164 
L 377.173828 147.469072 
L 378.263672 145.546465 
L 378.808594 145.428545 
L 379.353516 145.63875 
L 379.898438 145.418291 
L 380.443359 145.013262 
L 381.533203 144.813311 
L 382.623047 146.079668 
L 383.167969 146.771807 
L 385.347656 151.324541 
L 388.072266 160.07625 
L 388.617188 162.055254 
L 391.341797 169.176592 
L 392.976562 172.206621 
L 394.611328 173.770342 
L 395.15625 173.62166 
L 395.701172 174.416338 
L 396.246094 174.975176 
L 396.791016 175.011064 
L 397.335938 174.800859 
L 398.425781 173.954912 
L 398.970703 173.20125 
L 399.515625 173.098711 
L 400.060547 172.468096 
L 401.150391 171.832354 
L 401.695312 171.981035 
L 402.785156 171.237627 
L 403.330078 171.237627 
L 403.875 170.909502 
L 404.419922 171.119707 
L 404.964844 171.550371 
L 405.509766 171.663164 
L 406.054688 172.288652 
L 406.599609 172.534746 
L 407.144531 173.580645 
L 408.234375 175.328936 
L 408.779297 176.262041 
L 409.324219 176.226152 
L 409.869141 176.544023 
L 410.414062 177.082354 
L 410.958984 177.805254 
L 412.048828 178.512773 
L 412.59375 178.671709 
L 413.683594 178.774248 
L 414.773438 177.712969 
L 415.863281 176.446611 
L 416.408203 175.318682 
L 416.953125 174.795732 
L 418.042969 172.452715 
L 422.947266 161.029863 
L 423.492188 160.306963 
L 424.037109 159.901934 
L 424.582031 159.107256 
L 425.126953 157.92293 
L 425.671875 157.205156 
L 426.216797 156.759111 
L 426.761719 156.554033 
L 428.396484 157.646074 
L 429.486328 158.609941 
L 430.03125 159.127764 
L 430.576172 160.122393 
L 431.121094 160.424883 
L 432.210938 162.824297 
L 433.300781 165.192949 
L 436.025391 170.027666 
L 437.660156 173.288408 
L 438.75 173.893389 
L 439.839844 174.298418 
L 440.384766 174.641924 
L 440.929688 175.421221 
L 443.109375 175.252031 
L 444.744141 174.154863 
L 445.289062 174.052324 
L 445.833984 173.67293 
L 446.378906 172.857744 
L 446.923828 172.621904 
L 447.46875 171.83748 
L 448.013672 171.463213 
L 449.648438 169.432939 
L 450.193359 168.761309 
L 451.828125 165.808184 
L 452.373047 165.315996 
L 452.917969 164.495684 
L 456.732422 161.122148 
L 457.822266 160.737627 
L 458.367188 159.686602 
L 460.001953 158.722734 
L 461.636719 156.646318 
L 462.726562 156.092607 
L 463.271484 155.554277 
L 464.90625 153.354814 
L 465.451172 152.206377 
L 466.541016 150.447832 
L 467.085938 149.847979 
L 467.630859 149.03792 
L 468.175781 148.699541 
L 469.265625 147.217852 
L 469.810547 146.910234 
L 470.355469 146.05916 
L 470.900391 145.597734 
L 471.445312 144.792803 
L 471.990234 144.341631 
L 472.535156 144.777422 
L 473.080078 144.849199 
L 473.625 145.213213 
L 475.259766 146.894854 
L 476.894531 150.360674 
L 477.984375 153.595781 
L 479.074219 157.39998 
L 481.253906 164.459795 
L 483.978516 171.35042 
L 485.613281 174.175371 
L 489.427734 176.456865 
L 489.972656 176.349199 
L 490.517578 176.031328 
L 491.607422 175.11873 
L 492.152344 174.836748 
L 492.697266 174.139482 
L 493.242188 174.201006 
L 493.787109 173.811357 
L 494.876953 173.795977 
L 495.421875 173.913896 
L 495.966797 174.216387 
L 496.511719 174.026689 
L 498.146484 175.82625 
L 500.326172 177.959062 
L 500.871094 178.564043 
L 501.960938 179.99959 
L 502.505859 180.650713 
L 503.050781 181.12752 
L 503.595703 181.409502 
L 504.685547 182.281084 
L 505.230469 182.342607 
L 506.320312 181.865801 
L 506.865234 181.471025 
L 509.044922 179.317705 
L 509.589844 178.174395 
L 510.134766 176.651689 
L 510.679688 175.569902 
L 512.314453 170.735186 
L 514.494141 166.413164 
L 515.039062 165.269854 
L 515.583984 164.418779 
L 516.128906 163.352373 
L 517.21875 161.937334 
L 518.308594 161.040117 
L 518.853516 161.055498 
L 520.488281 160.445391 
L 521.033203 160.655596 
L 522.123047 162.193682 
L 524.847656 167.136064 
L 525.9375 169.484209 
L 527.027344 171.740068 
L 527.572266 172.893633 
L 528.117188 173.565264 
L 528.662109 174.734209 
L 529.207031 175.482744 
L 529.751953 176.4825 
L 530.296875 177.133623 
L 531.931641 178.21541 
L 533.021484 178.707598 
L 533.566406 179.235674 
L 534.111328 179.210039 
L 535.201172 178.492266 
L 535.746094 178.235918 
L 536.291016 178.164141 
L 536.835938 177.969316 
L 537.380859 177.502764 
L 537.925781 177.395098 
L 539.560547 175.621172 
L 540.105469 175.123857 
L 541.195312 173.344805 
L 541.740234 172.821855 
L 542.285156 172.652666 
L 542.830078 171.868242 
L 543.375 170.87874 
L 543.919922 170.237871 
L 545.554688 167.571855 
L 546.099609 167.387285 
L 547.189453 166.269609 
L 547.734375 166.161943 
L 548.279297 164.962236 
L 548.824219 164.695635 
L 549.914062 163.603594 
L 550.458984 163.695879 
L 551.003906 163.567705 
L 552.09375 162.824297 
L 552.638672 162.326982 
L 553.728516 160.809404 
L 554.273438 159.814775 
L 554.818359 159.404619 
L 555.363281 158.312578 
L 558.087891 155.159502 
L 558.632812 154.082842 
L 559.177734 153.426592 
L 560.267578 151.386064 
L 561.357422 150.237627 
L 562.447266 148.222734 
L 563.537109 147.012773 
L 564.626953 146.694902 
L 565.171875 146.330889 
L 566.261719 147.043535 
L 566.806641 147.597246 
L 568.441406 150.550371 
L 570.076172 154.990312 
L 573.890625 166.664385 
L 574.435547 167.971758 
L 574.980469 169.591875 
L 576.070312 171.878496 
L 577.705078 175.231523 
L 578.25 176.021074 
L 579.339844 176.708086 
L 580.429688 176.923418 
L 580.974609 176.867021 
L 582.064453 176.344072 
L 583.154297 175.718584 
L 583.699219 174.929033 
L 584.244141 174.688066 
L 584.789062 174.744463 
L 585.333984 174.652178 
L 585.878906 174.083086 
L 586.423828 174.252275 
L 586.96875 174.226641 
L 587.513672 174.585527 
L 588.058594 174.611162 
L 588.603516 174.841875 
L 589.148438 174.852129 
L 590.238281 175.928789 
L 591.328125 177.154131 
L 592.417969 179.153643 
L 592.962891 179.563799 
L 594.052734 181.086504 
L 594.597656 181.906816 
L 596.232422 182.92708 
L 596.777344 183.11165 
L 597.867188 182.870684 
L 598.412109 183.193682 
L 598.957031 182.916826 
L 599.501953 182.798906 
L 601.681641 178.902422 
L 603.316406 175.041826 
L 604.40625 172.170732 
L 606.041016 168.561357 
L 606.585938 167.561602 
L 607.675781 165.080156 
L 608.765625 163.82918 
L 609.310547 163.049883 
L 609.855469 162.578203 
L 610.400391 162.285967 
L 610.945312 162.424395 
L 611.490234 162.296221 
L 612.580078 162.875566 
L 613.669922 163.449785 
L 614.759766 164.916094 
L 615.304688 166.003008 
L 615.849609 166.515703 
L 617.484375 170.03792 
L 619.119141 173.032061 
L 620.753906 175.7596 
L 621.84375 177.097734 
L 622.388672 177.636064 
L 623.478516 178.3846 
L 624.568359 179.789385 
L 625.113281 180.158525 
L 627.292969 180.84041 
L 628.382812 180.676348 
L 631.107422 178.794756 
L 632.197266 178.174395 
L 632.742188 177.605303 
L 633.287109 177.236162 
L 633.832031 176.082598 
L 634.376953 175.554521 
L 634.921875 174.493242 
L 635.466797 173.960039 
L 636.011719 173.257646 
L 637.646484 171.673418 
L 638.191406 170.504473 
L 638.736328 169.945635 
L 640.916016 168.874102 
L 642.005859 168.033281 
L 644.185547 165.367266 
L 645.275391 164.895586 
L 645.820312 165.003252 
L 646.365234 164.695635 
L 647.455078 163.639482 
L 647.455078 163.639482 
" style="fill:none;stroke:#4c72b0;stroke-linecap:round;stroke-width:1.75;"/>
   </g>
   <g id="patch_3">
    <path d="M 90 270.72 
L 90 69.12 
" style="fill:none;stroke:#262626;stroke-linecap:square;stroke-linejoin:miter;stroke-width:1.25;"/>
   </g>
   <g id="patch_4">
    <path d="M 90 270.72 
L 648 270.72 
" style="fill:none;stroke:#262626;stroke-linecap:square;stroke-linejoin:miter;stroke-width:1.25;"/>
   </g>
  </g>
  <g id="axes_2">
   <g id="patch_5">
    <path d="M 90 512.64 
L 648 512.64 
L 648 311.04 
L 90 311.04 
z
" style="fill:#ffffff;"/>
   </g>
   <g id="matplotlib.axis_3">
    <g id="xtick_7">
     <g id="line2d_15">
      <g>
       <use style="fill:#262626;stroke:#262626;" x="218.197478" xlink:href="#mda660d6b11" y="512.64"/>
      </g>
     </g>
     <g id="text_14">
      <!-- $\mathdefault{10^{2}}$ -->
      <g style="fill:#262626;" transform="translate(210.347478 535.9525)scale(0.1 -0.1)">
       <use transform="translate(0 0.99375)" xlink:href="#ArialMT-31"/>
       <use transform="translate(55.615234 0.99375)" xlink:href="#ArialMT-30"/>
       <use transform="translate(112.972813 70.6875)scale(0.7)" xlink:href="#ArialMT-32"/>
      </g>
     </g>
    </g>
    <g id="xtick_8">
     <g id="line2d_16">
      <g>
       <use style="fill:#262626;stroke:#262626;" x="401.606604" xlink:href="#mda660d6b11" y="512.64"/>
      </g>
     </g>
     <g id="text_15">
      <!-- $\mathdefault{10^{3}}$ -->
      <defs>
       <path d="M 4.203125 18.890625 
L 12.984375 20.0625 
Q 14.5 12.59375 18.140625 9.296875 
Q 21.78125 6 27 6 
Q 33.203125 6 37.46875 10.296875 
Q 41.75 14.59375 41.75 20.953125 
Q 41.75 27 37.796875 30.921875 
Q 33.84375 34.859375 27.734375 34.859375 
Q 25.25 34.859375 21.53125 33.890625 
L 22.515625 41.609375 
Q 23.390625 41.5 23.921875 41.5 
Q 29.546875 41.5 34.03125 44.421875 
Q 38.53125 47.359375 38.53125 53.46875 
Q 38.53125 58.296875 35.25 61.46875 
Q 31.984375 64.65625 26.8125 64.65625 
Q 21.6875 64.65625 18.265625 61.421875 
Q 14.84375 58.203125 13.875 51.765625 
L 5.078125 53.328125 
Q 6.6875 62.15625 12.390625 67.015625 
Q 18.109375 71.875 26.609375 71.875 
Q 32.46875 71.875 37.390625 69.359375 
Q 42.328125 66.84375 44.9375 62.5 
Q 47.5625 58.15625 47.5625 53.265625 
Q 47.5625 48.640625 45.0625 44.828125 
Q 42.578125 41.015625 37.703125 38.765625 
Q 44.046875 37.3125 47.5625 32.6875 
Q 51.078125 28.078125 51.078125 21.140625 
Q 51.078125 11.765625 44.234375 5.25 
Q 37.40625 -1.265625 26.953125 -1.265625 
Q 17.53125 -1.265625 11.296875 4.34375 
Q 5.078125 9.96875 4.203125 18.890625 
z
" id="ArialMT-33"/>
      </defs>
      <g style="fill:#262626;" transform="translate(393.756604 535.9525)scale(0.1 -0.1)">
       <use transform="translate(0 0.99375)" xlink:href="#ArialMT-31"/>
       <use transform="translate(55.615234 0.99375)" xlink:href="#ArialMT-30"/>
       <use transform="translate(112.972813 70.6875)scale(0.7)" xlink:href="#ArialMT-33"/>
      </g>
     </g>
    </g>
    <g id="xtick_9">
     <g id="line2d_17">
      <g>
       <use style="fill:#262626;stroke:#262626;" x="585.01573" xlink:href="#mda660d6b11" y="512.64"/>
      </g>
     </g>
     <g id="text_16">
      <!-- $\mathdefault{10^{4}}$ -->
      <g style="fill:#262626;" transform="translate(577.16573 535.8525)scale(0.1 -0.1)">
       <use transform="translate(0 0.201563)" xlink:href="#ArialMT-31"/>
       <use transform="translate(55.615234 0.201563)" xlink:href="#ArialMT-30"/>
       <use transform="translate(112.972813 69.895313)scale(0.7)" xlink:href="#ArialMT-34"/>
      </g>
     </g>
    </g>
    <g id="xtick_10">
     <g id="line2d_18">
      <defs>
       <path d="M 0 0 
L 0 3 
" id="mc29b65a29b" style="stroke:#262626;stroke-width:0.5;"/>
      </defs>
      <g>
       <use style="fill:#262626;stroke:#262626;stroke-width:0.5;" x="90" xlink:href="#mc29b65a29b" y="512.64"/>
      </g>
     </g>
    </g>
    <g id="xtick_11">
     <g id="line2d_19">
      <g>
       <use style="fill:#262626;stroke:#262626;stroke-width:0.5;" x="122.296744" xlink:href="#mc29b65a29b" y="512.64"/>
      </g>
     </g>
    </g>
    <g id="xtick_12">
     <g id="line2d_20">
      <g>
       <use style="fill:#262626;stroke:#262626;stroke-width:0.5;" x="145.211648" xlink:href="#mc29b65a29b" y="512.64"/>
      </g>
     </g>
    </g>
    <g id="xtick_13">
     <g id="line2d_21">
      <g>
       <use style="fill:#262626;stroke:#262626;stroke-width:0.5;" x="162.985829" xlink:href="#mc29b65a29b" y="512.64"/>
      </g>
     </g>
    </g>
    <g id="xtick_14">
     <g id="line2d_22">
      <g>
       <use style="fill:#262626;stroke:#262626;stroke-width:0.5;" x="177.508392" xlink:href="#mc29b65a29b" y="512.64"/>
      </g>
     </g>
    </g>
    <g id="xtick_15">
     <g id="line2d_23">
      <g>
       <use style="fill:#262626;stroke:#262626;stroke-width:0.5;" x="189.787045" xlink:href="#mc29b65a29b" y="512.64"/>
      </g>
     </g>
    </g>
    <g id="xtick_16">
     <g id="line2d_24">
      <g>
       <use style="fill:#262626;stroke:#262626;stroke-width:0.5;" x="200.423297" xlink:href="#mc29b65a29b" y="512.64"/>
      </g>
     </g>
    </g>
    <g id="xtick_17">
     <g id="line2d_25">
      <g>
       <use style="fill:#262626;stroke:#262626;stroke-width:0.5;" x="209.805136" xlink:href="#mc29b65a29b" y="512.64"/>
      </g>
     </g>
    </g>
    <g id="xtick_18">
     <g id="line2d_26">
      <g>
       <use style="fill:#262626;stroke:#262626;stroke-width:0.5;" x="273.409126" xlink:href="#mc29b65a29b" y="512.64"/>
      </g>
     </g>
    </g>
    <g id="xtick_19">
     <g id="line2d_27">
      <g>
       <use style="fill:#262626;stroke:#262626;stroke-width:0.5;" x="305.70587" xlink:href="#mc29b65a29b" y="512.64"/>
      </g>
     </g>
    </g>
    <g id="xtick_20">
     <g id="line2d_28">
      <g>
       <use style="fill:#262626;stroke:#262626;stroke-width:0.5;" x="328.620775" xlink:href="#mc29b65a29b" y="512.64"/>
      </g>
     </g>
    </g>
    <g id="xtick_21">
     <g id="line2d_29">
      <g>
       <use style="fill:#262626;stroke:#262626;stroke-width:0.5;" x="346.394955" xlink:href="#mc29b65a29b" y="512.64"/>
      </g>
     </g>
    </g>
    <g id="xtick_22">
     <g id="line2d_30">
      <g>
       <use style="fill:#262626;stroke:#262626;stroke-width:0.5;" x="360.917518" xlink:href="#mc29b65a29b" y="512.64"/>
      </g>
     </g>
    </g>
    <g id="xtick_23">
     <g id="line2d_31">
      <g>
       <use style="fill:#262626;stroke:#262626;stroke-width:0.5;" x="373.196171" xlink:href="#mc29b65a29b" y="512.64"/>
      </g>
     </g>
    </g>
    <g id="xtick_24">
     <g id="line2d_32">
      <g>
       <use style="fill:#262626;stroke:#262626;stroke-width:0.5;" x="383.832423" xlink:href="#mc29b65a29b" y="512.64"/>
      </g>
     </g>
    </g>
    <g id="xtick_25">
     <g id="line2d_33">
      <g>
       <use style="fill:#262626;stroke:#262626;stroke-width:0.5;" x="393.214262" xlink:href="#mc29b65a29b" y="512.64"/>
      </g>
     </g>
    </g>
    <g id="xtick_26">
     <g id="line2d_34">
      <g>
       <use style="fill:#262626;stroke:#262626;stroke-width:0.5;" x="456.818252" xlink:href="#mc29b65a29b" y="512.64"/>
      </g>
     </g>
    </g>
    <g id="xtick_27">
     <g id="line2d_35">
      <g>
       <use style="fill:#262626;stroke:#262626;stroke-width:0.5;" x="489.114996" xlink:href="#mc29b65a29b" y="512.64"/>
      </g>
     </g>
    </g>
    <g id="xtick_28">
     <g id="line2d_36">
      <g>
       <use style="fill:#262626;stroke:#262626;stroke-width:0.5;" x="512.029901" xlink:href="#mc29b65a29b" y="512.64"/>
      </g>
     </g>
    </g>
    <g id="xtick_29">
     <g id="line2d_37">
      <g>
       <use style="fill:#262626;stroke:#262626;stroke-width:0.5;" x="529.804081" xlink:href="#mc29b65a29b" y="512.64"/>
      </g>
     </g>
    </g>
    <g id="xtick_30">
     <g id="line2d_38">
      <g>
       <use style="fill:#262626;stroke:#262626;stroke-width:0.5;" x="544.326645" xlink:href="#mc29b65a29b" y="512.64"/>
      </g>
     </g>
    </g>
    <g id="xtick_31">
     <g id="line2d_39">
      <g>
       <use style="fill:#262626;stroke:#262626;stroke-width:0.5;" x="556.605297" xlink:href="#mc29b65a29b" y="512.64"/>
      </g>
     </g>
    </g>
    <g id="xtick_32">
     <g id="line2d_40">
      <g>
       <use style="fill:#262626;stroke:#262626;stroke-width:0.5;" x="567.241549" xlink:href="#mc29b65a29b" y="512.64"/>
      </g>
     </g>
    </g>
    <g id="xtick_33">
     <g id="line2d_41">
      <g>
       <use style="fill:#262626;stroke:#262626;stroke-width:0.5;" x="576.623389" xlink:href="#mc29b65a29b" y="512.64"/>
      </g>
     </g>
    </g>
    <g id="xtick_34">
     <g id="line2d_42">
      <g>
       <use style="fill:#262626;stroke:#262626;stroke-width:0.5;" x="640.227378" xlink:href="#mc29b65a29b" y="512.64"/>
      </g>
     </g>
    </g>
   </g>
   <g id="matplotlib.axis_4">
    <g id="ytick_8">
     <g id="line2d_43">
      <g>
       <use style="fill:#262626;stroke:#262626;" x="90" xlink:href="#m881a9d59f8" y="512.64"/>
      </g>
     </g>
     <g id="text_17">
      <!-- $\mathdefault{10^{-5}}$ -->
      <defs>
       <path d="M 4.15625 18.75 
L 13.375 19.53125 
Q 14.40625 12.796875 18.140625 9.390625 
Q 21.875 6 27.15625 6 
Q 33.5 6 37.890625 10.78125 
Q 42.28125 15.578125 42.28125 23.484375 
Q 42.28125 31 38.0625 35.34375 
Q 33.84375 39.703125 27 39.703125 
Q 22.75 39.703125 19.328125 37.765625 
Q 15.921875 35.84375 13.96875 32.765625 
L 5.71875 33.84375 
L 12.640625 70.609375 
L 48.25 70.609375 
L 48.25 62.203125 
L 19.671875 62.203125 
L 15.828125 42.96875 
Q 22.265625 47.46875 29.34375 47.46875 
Q 38.71875 47.46875 45.15625 40.96875 
Q 51.609375 34.46875 51.609375 24.265625 
Q 51.609375 14.546875 45.953125 7.46875 
Q 39.0625 -1.21875 27.15625 -1.21875 
Q 17.390625 -1.21875 11.203125 4.25 
Q 5.03125 9.71875 4.15625 18.75 
z
" id="ArialMT-35"/>
      </defs>
      <g style="fill:#262626;" transform="translate(57.2 517.74625)scale(0.1 -0.1)">
       <use transform="translate(0 0.879688)" xlink:href="#ArialMT-31"/>
       <use transform="translate(55.615234 0.879688)" xlink:href="#ArialMT-30"/>
       <use transform="translate(112.972813 70.573438)scale(0.7)" xlink:href="#ArialMT-2212"/>
       <use transform="translate(153.851719 70.573438)scale(0.7)" xlink:href="#ArialMT-35"/>
      </g>
     </g>
    </g>
    <g id="ytick_9">
     <g id="line2d_44">
      <g>
       <use style="fill:#262626;stroke:#262626;" x="90" xlink:href="#m881a9d59f8" y="465.767507"/>
      </g>
     </g>
     <g id="text_18">
      <!-- $\mathdefault{10^{-4}}$ -->
      <g style="fill:#262626;" transform="translate(57.2 470.873757)scale(0.1 -0.1)">
       <use transform="translate(0 0.201563)" xlink:href="#ArialMT-31"/>
       <use transform="translate(55.615234 0.201563)" xlink:href="#ArialMT-30"/>
       <use transform="translate(112.972813 69.895313)scale(0.7)" xlink:href="#ArialMT-2212"/>
       <use transform="translate(153.851719 69.895313)scale(0.7)" xlink:href="#ArialMT-34"/>
      </g>
     </g>
    </g>
    <g id="ytick_10">
     <g id="line2d_45">
      <g>
       <use style="fill:#262626;stroke:#262626;" x="90" xlink:href="#m881a9d59f8" y="418.895013"/>
      </g>
     </g>
     <g id="text_19">
      <!-- $\mathdefault{10^{-3}}$ -->
      <g style="fill:#262626;" transform="translate(57.2 424.051263)scale(0.1 -0.1)">
       <use transform="translate(0 0.99375)" xlink:href="#ArialMT-31"/>
       <use transform="translate(55.615234 0.99375)" xlink:href="#ArialMT-30"/>
       <use transform="translate(112.972813 70.6875)scale(0.7)" xlink:href="#ArialMT-2212"/>
       <use transform="translate(153.851719 70.6875)scale(0.7)" xlink:href="#ArialMT-33"/>
      </g>
     </g>
    </g>
    <g id="ytick_11">
     <g id="line2d_46">
      <g>
       <use style="fill:#262626;stroke:#262626;" x="90" xlink:href="#m881a9d59f8" y="372.02252"/>
      </g>
     </g>
     <g id="text_20">
      <!-- $\mathdefault{10^{-2}}$ -->
      <g style="fill:#262626;" transform="translate(57.2 377.17877)scale(0.1 -0.1)">
       <use transform="translate(0 0.99375)" xlink:href="#ArialMT-31"/>
       <use transform="translate(55.615234 0.99375)" xlink:href="#ArialMT-30"/>
       <use transform="translate(112.972813 70.6875)scale(0.7)" xlink:href="#ArialMT-2212"/>
       <use transform="translate(153.851719 70.6875)scale(0.7)" xlink:href="#ArialMT-32"/>
      </g>
     </g>
    </g>
    <g id="ytick_12">
     <g id="line2d_47">
      <g>
       <use style="fill:#262626;stroke:#262626;" x="90" xlink:href="#m881a9d59f8" y="325.150026"/>
      </g>
     </g>
     <g id="text_21">
      <!-- $\mathdefault{10^{-1}}$ -->
      <g style="fill:#262626;" transform="translate(57.2 330.306276)scale(0.1 -0.1)">
       <use transform="translate(0 0.99375)" xlink:href="#ArialMT-31"/>
       <use transform="translate(55.615234 0.99375)" xlink:href="#ArialMT-30"/>
       <use transform="translate(112.972813 70.6875)scale(0.7)" xlink:href="#ArialMT-2212"/>
       <use transform="translate(153.851719 70.6875)scale(0.7)" xlink:href="#ArialMT-31"/>
      </g>
     </g>
    </g>
    <g id="ytick_13">
     <g id="line2d_48">
      <defs>
       <path d="M 0 0 
L -3 0 
" id="m2b1a1123ae" style="stroke:#262626;stroke-width:0.5;"/>
      </defs>
      <g>
       <use style="fill:#262626;stroke:#262626;stroke-width:0.5;" x="90" xlink:href="#m2b1a1123ae" y="498.529974"/>
      </g>
     </g>
    </g>
    <g id="ytick_14">
     <g id="line2d_49">
      <g>
       <use style="fill:#262626;stroke:#262626;stroke-width:0.5;" x="90" xlink:href="#m2b1a1123ae" y="490.276137"/>
      </g>
     </g>
    </g>
    <g id="ytick_15">
     <g id="line2d_50">
      <g>
       <use style="fill:#262626;stroke:#262626;stroke-width:0.5;" x="90" xlink:href="#m2b1a1123ae" y="484.419947"/>
      </g>
     </g>
    </g>
    <g id="ytick_16">
     <g id="line2d_51">
      <g>
       <use style="fill:#262626;stroke:#262626;stroke-width:0.5;" x="90" xlink:href="#m2b1a1123ae" y="479.877533"/>
      </g>
     </g>
    </g>
    <g id="ytick_17">
     <g id="line2d_52">
      <g>
       <use style="fill:#262626;stroke:#262626;stroke-width:0.5;" x="90" xlink:href="#m2b1a1123ae" y="476.166111"/>
      </g>
     </g>
    </g>
    <g id="ytick_18">
     <g id="line2d_53">
      <g>
       <use style="fill:#262626;stroke:#262626;stroke-width:0.5;" x="90" xlink:href="#m2b1a1123ae" y="473.028148"/>
      </g>
     </g>
    </g>
    <g id="ytick_19">
     <g id="line2d_54">
      <g>
       <use style="fill:#262626;stroke:#262626;stroke-width:0.5;" x="90" xlink:href="#m2b1a1123ae" y="470.309921"/>
      </g>
     </g>
    </g>
    <g id="ytick_20">
     <g id="line2d_55">
      <g>
       <use style="fill:#262626;stroke:#262626;stroke-width:0.5;" x="90" xlink:href="#m2b1a1123ae" y="467.912274"/>
      </g>
     </g>
    </g>
    <g id="ytick_21">
     <g id="line2d_56">
      <g>
       <use style="fill:#262626;stroke:#262626;stroke-width:0.5;" x="90" xlink:href="#m2b1a1123ae" y="451.65748"/>
      </g>
     </g>
    </g>
    <g id="ytick_22">
     <g id="line2d_57">
      <g>
       <use style="fill:#262626;stroke:#262626;stroke-width:0.5;" x="90" xlink:href="#m2b1a1123ae" y="443.403644"/>
      </g>
     </g>
    </g>
    <g id="ytick_23">
     <g id="line2d_58">
      <g>
       <use style="fill:#262626;stroke:#262626;stroke-width:0.5;" x="90" xlink:href="#m2b1a1123ae" y="437.547454"/>
      </g>
     </g>
    </g>
    <g id="ytick_24">
     <g id="line2d_59">
      <g>
       <use style="fill:#262626;stroke:#262626;stroke-width:0.5;" x="90" xlink:href="#m2b1a1123ae" y="433.00504"/>
      </g>
     </g>
    </g>
    <g id="ytick_25">
     <g id="line2d_60">
      <g>
       <use style="fill:#262626;stroke:#262626;stroke-width:0.5;" x="90" xlink:href="#m2b1a1123ae" y="429.293617"/>
      </g>
     </g>
    </g>
    <g id="ytick_26">
     <g id="line2d_61">
      <g>
       <use style="fill:#262626;stroke:#262626;stroke-width:0.5;" x="90" xlink:href="#m2b1a1123ae" y="426.155654"/>
      </g>
     </g>
    </g>
    <g id="ytick_27">
     <g id="line2d_62">
      <g>
       <use style="fill:#262626;stroke:#262626;stroke-width:0.5;" x="90" xlink:href="#m2b1a1123ae" y="423.437427"/>
      </g>
     </g>
    </g>
    <g id="ytick_28">
     <g id="line2d_63">
      <g>
       <use style="fill:#262626;stroke:#262626;stroke-width:0.5;" x="90" xlink:href="#m2b1a1123ae" y="421.039781"/>
      </g>
     </g>
    </g>
    <g id="ytick_29">
     <g id="line2d_64">
      <g>
       <use style="fill:#262626;stroke:#262626;stroke-width:0.5;" x="90" xlink:href="#m2b1a1123ae" y="404.784987"/>
      </g>
     </g>
    </g>
    <g id="ytick_30">
     <g id="line2d_65">
      <g>
       <use style="fill:#262626;stroke:#262626;stroke-width:0.5;" x="90" xlink:href="#m2b1a1123ae" y="396.53115"/>
      </g>
     </g>
    </g>
    <g id="ytick_31">
     <g id="line2d_66">
      <g>
       <use style="fill:#262626;stroke:#262626;stroke-width:0.5;" x="90" xlink:href="#m2b1a1123ae" y="390.67496"/>
      </g>
     </g>
    </g>
    <g id="ytick_32">
     <g id="line2d_67">
      <g>
       <use style="fill:#262626;stroke:#262626;stroke-width:0.5;" x="90" xlink:href="#m2b1a1123ae" y="386.132546"/>
      </g>
     </g>
    </g>
    <g id="ytick_33">
     <g id="line2d_68">
      <g>
       <use style="fill:#262626;stroke:#262626;stroke-width:0.5;" x="90" xlink:href="#m2b1a1123ae" y="382.421124"/>
      </g>
     </g>
    </g>
    <g id="ytick_34">
     <g id="line2d_69">
      <g>
       <use style="fill:#262626;stroke:#262626;stroke-width:0.5;" x="90" xlink:href="#m2b1a1123ae" y="379.283161"/>
      </g>
     </g>
    </g>
    <g id="ytick_35">
     <g id="line2d_70">
      <g>
       <use style="fill:#262626;stroke:#262626;stroke-width:0.5;" x="90" xlink:href="#m2b1a1123ae" y="376.564934"/>
      </g>
     </g>
    </g>
    <g id="ytick_36">
     <g id="line2d_71">
      <g>
       <use style="fill:#262626;stroke:#262626;stroke-width:0.5;" x="90" xlink:href="#m2b1a1123ae" y="374.167288"/>
      </g>
     </g>
    </g>
    <g id="ytick_37">
     <g id="line2d_72">
      <g>
       <use style="fill:#262626;stroke:#262626;stroke-width:0.5;" x="90" xlink:href="#m2b1a1123ae" y="357.912493"/>
      </g>
     </g>
    </g>
    <g id="ytick_38">
     <g id="line2d_73">
      <g>
       <use style="fill:#262626;stroke:#262626;stroke-width:0.5;" x="90" xlink:href="#m2b1a1123ae" y="349.658657"/>
      </g>
     </g>
    </g>
    <g id="ytick_39">
     <g id="line2d_74">
      <g>
       <use style="fill:#262626;stroke:#262626;stroke-width:0.5;" x="90" xlink:href="#m2b1a1123ae" y="343.802467"/>
      </g>
     </g>
    </g>
    <g id="ytick_40">
     <g id="line2d_75">
      <g>
       <use style="fill:#262626;stroke:#262626;stroke-width:0.5;" x="90" xlink:href="#m2b1a1123ae" y="339.260053"/>
      </g>
     </g>
    </g>
    <g id="ytick_41">
     <g id="line2d_76">
      <g>
       <use style="fill:#262626;stroke:#262626;stroke-width:0.5;" x="90" xlink:href="#m2b1a1123ae" y="335.548631"/>
      </g>
     </g>
    </g>
    <g id="ytick_42">
     <g id="line2d_77">
      <g>
       <use style="fill:#262626;stroke:#262626;stroke-width:0.5;" x="90" xlink:href="#m2b1a1123ae" y="332.410668"/>
      </g>
     </g>
    </g>
    <g id="ytick_43">
     <g id="line2d_78">
      <g>
       <use style="fill:#262626;stroke:#262626;stroke-width:0.5;" x="90" xlink:href="#m2b1a1123ae" y="329.69244"/>
      </g>
     </g>
    </g>
    <g id="ytick_44">
     <g id="line2d_79">
      <g>
       <use style="fill:#262626;stroke:#262626;stroke-width:0.5;" x="90" xlink:href="#m2b1a1123ae" y="327.294794"/>
      </g>
     </g>
    </g>
    <g id="ytick_45">
     <g id="line2d_80">
      <g>
       <use style="fill:#262626;stroke:#262626;stroke-width:0.5;" x="90" xlink:href="#m2b1a1123ae" y="311.04"/>
      </g>
     </g>
    </g>
   </g>
   <g id="line2d_81">
    <path clip-path="url(#paa28b77268)" d="M -1 386.580966 
L 151.095164 386.599966 
L 206.306812 395.476628 
L 238.603556 413.509658 
L 261.518461 409.425378 
L 279.292642 398.712908 
L 293.815205 353.811987 
L 306.093857 414.527558 
L 316.730109 416.980216 
L 326.111949 423.919828 
L 334.50429 415.167554 
L 342.096086 400.693442 
L 349.026853 350.188739 
L 355.402541 398.167743 
L 361.305505 414.528647 
L 366.801034 422.111427 
L 371.941758 432.778927 
L 376.770725 433.325462 
L 381.323597 387.912457 
L 385.630245 409.68103 
L 389.715939 415.64728 
L 393.602249 417.999257 
L 397.307735 408.342952 
L 400.848476 401.513332 
L 404.238502 367.068691 
L 407.490119 392.301267 
L 410.614189 410.123468 
L 413.620341 416.577384 
L 416.517154 420.017052 
L 419.312303 419.76231 
L 422.012683 397.027846 
L 424.624509 413.898425 
L 427.153406 444.235696 
L 429.604479 442.325191 
L 431.982374 450.530299 
L 434.291335 448.209125 
L 436.535246 471.018434 
L 438.717672 445.307203 
L 440.841893 447.198712 
L 442.910933 466.337485 
L 444.927587 458.253258 
L 446.894442 482.144452 
L 448.813898 458.109151 
L 450.688186 448.114036 
L 452.519383 467.78428 
L 454.309426 468.562533 
L 456.060125 455.996959 
L 457.773171 444.998768 
L 459.45015 461.513184 
L 461.09255 457.51169 
L 462.701768 473.247728 
L 464.279118 470.862568 
L 465.825838 478.30607 
L 467.343094 465.446533 
L 468.83199 470.02958 
L 470.293564 444.016895 
L 471.728802 463.278153 
L 473.138637 471.417411 
L 474.523951 470.184625 
L 475.885584 463.050222 
L 477.224331 473.864397 
L 478.540949 455.674985 
L 479.836157 463.933219 
L 481.110642 484.318547 
L 482.365055 467.405859 
L 483.600019 457.029416 
L 484.816127 489.905524 
L 486.013948 485.558211 
L 487.194022 493.688021 
L 488.356869 467.679095 
L 489.502983 487.073927 
L 490.63284 490.184168 
L 491.746894 480.047092 
L 492.845581 511.620695 
L 493.92932 471.404799 
L 494.998512 483.834222 
L 496.053541 455.509461 
L 497.094779 469.047582 
L 498.122582 474.405969 
L 499.137291 493.491342 
L 500.139235 463.888798 
L 501.128734 448.267647 
L 502.10609 458.892897 
L 503.0716 465.490494 
L 504.025546 488.945647 
L 504.968203 460.067541 
L 505.899834 465.903264 
L 506.820695 472.59207 
L 507.731032 473.471746 
L 508.631082 487.065439 
L 509.521075 492.007094 
L 510.401234 480.345202 
L 511.271773 474.7981 
L 512.132901 480.071154 
L 512.984819 466.473951 
L 513.827722 485.328656 
L 514.661799 498.101501 
L 515.487232 474.223756 
L 516.304198 478.436281 
L 517.112871 488.123232 
L 517.913416 473.077666 
L 518.705996 462.525408 
L 519.490766 498.571474 
L 520.26788 478.987489 
L 521.037486 504.883033 
L 521.799727 473.645449 
L 522.554743 482.03733 
L 523.302669 466.243625 
L 524.043638 464.723277 
L 524.777778 469.985867 
L 525.505212 462.392019 
L 526.226064 482.573895 
L 526.940451 463.76341 
L 527.648487 462.493272 
L 529.045954 479.983147 
L 529.7356 482.093762 
L 530.419326 467.648354 
L 531.097232 473.891732 
L 531.769418 468.259112 
L 532.435979 481.354885 
L 533.097009 477.126245 
L 533.752597 483.47438 
L 534.402834 460.948662 
L 535.047806 490.150961 
L 535.687597 474.624612 
L 536.32229 470.849503 
L 536.951966 470.265747 
L 537.576703 467.909245 
L 538.196578 476.317981 
L 538.811667 489.521439 
L 539.422042 475.591368 
L 540.027776 465.577287 
L 540.628938 490.188369 
L 541.225596 484.492753 
L 541.817819 491.800259 
L 542.405671 471.186165 
L 542.989216 467.65806 
L 543.568517 478.485412 
L 544.143636 465.917856 
L 544.714632 483.405352 
L 545.281563 470.06607 
L 545.844488 476.547926 
L 546.403463 479.939707 
L 546.958543 488.820969 
L 547.509781 511.312091 
L 548.05723 474.124712 
L 549.140969 499.172833 
L 549.677358 479.363177 
L 550.21016 502.286802 
L 550.739422 499.16715 
L 551.26519 490.818492 
L 551.78751 471.724001 
L 552.306428 508.070707 
L 552.821987 479.457869 
L 553.33423 478.950553 
L 553.8432 500.830137 
L 554.348939 483.416501 
L 555.350884 497.871584 
L 555.847169 467.63849 
L 556.340382 480.580975 
L 556.830559 486.246116 
L 557.317739 468.511449 
L 557.801956 476.102783 
L 558.283248 473.42034 
L 558.76165 474.908687 
L 559.237195 499.870583 
L 559.709918 477.71002 
L 560.647029 468.623753 
L 561.111483 487.994526 
L 561.573244 476.72354 
L 562.032344 483.771263 
L 562.488812 483.357894 
L 562.94268 473.23308 
L 563.393976 492.913573 
L 563.84273 482.717154 
L 564.28897 490.179172 
L 564.732723 488.258489 
L 565.174019 490.935935 
L 565.612882 522.995568 
L 566.049341 471.30614 
L 566.483422 517.338108 
L 566.91515 494.774822 
L 567.34455 497.359111 
L 567.771648 519.538933 
L 568.196468 492.851977 
L 568.619034 478.144625 
L 569.039371 481.782859 
L 569.457501 512.205248 
L 569.873447 480.780721 
L 570.287233 500.944761 
L 570.69888 500.222601 
L 571.108411 480.007025 
L 571.515847 483.78316 
L 571.921209 493.039477 
L 572.32452 495.940098 
L 572.725798 485.757019 
L 573.125065 513.911116 
L 573.52234 477.248169 
L 574.310996 490.291281 
L 574.702415 485.507513 
L 575.091919 484.148477 
L 575.479529 493.798378 
L 575.865261 494.034337 
L 576.249135 479.677833 
L 576.631167 478.169604 
L 577.389778 514.81991 
L 577.766391 503.426233 
L 578.141232 510.273908 
L 578.514318 498.842169 
L 578.885664 526.716689 
L 579.255287 496.977643 
L 579.623202 489.597629 
L 579.989426 503.082317 
L 580.353974 475.711048 
L 580.716861 493.284815 
L 581.078102 491.850021 
L 581.437713 511.099579 
L 581.795707 494.723816 
L 582.506904 478.842246 
L 582.860136 494.063286 
L 583.211808 483.901237 
L 583.561934 512.34421 
L 583.910528 510.299903 
L 584.257603 481.914042 
L 584.603172 489.347513 
L 584.947248 491.278798 
L 585.289845 499.474573 
L 585.630974 491.208962 
L 586.308881 482.604937 
L 586.645683 471.900709 
L 586.981067 488.322104 
L 587.315045 497.416176 
L 587.647628 524.903419 
L 587.978828 480.627808 
L 588.308657 502.837661 
L 588.637126 480.739997 
L 588.964246 478.398956 
L 589.290028 485.120475 
L 589.614483 479.956101 
L 589.937621 506.036581 
L 590.259454 498.719452 
L 590.579992 509.146121 
L 590.899246 478.243329 
L 591.217224 514.70375 
L 591.533939 492.632957 
L 591.849399 508.031015 
L 592.163614 508.772854 
L 592.476596 495.931474 
L 592.788352 495.628694 
L 593.098892 507.939836 
L 593.408227 481.854043 
L 593.716365 477.615527 
L 594.023315 491.045755 
L 594.329088 491.944089 
L 594.633691 511.242568 
L 594.937133 481.863971 
L 595.239424 486.853483 
L 595.540572 481.882103 
L 595.840586 482.238417 
L 596.139474 504.170033 
L 596.437245 496.658864 
L 596.733906 498.321121 
L 597.029467 504.460588 
L 597.323936 495.056146 
L 597.617319 489.921812 
L 597.909626 497.597486 
L 598.200864 515.600376 
L 598.491042 495.18011 
L 598.780166 489.112489 
L 599.068244 510.307817 
L 599.355284 494.032963 
L 599.641294 506.45252 
L 599.92628 495.415482 
L 600.21025 513.423073 
L 600.493212 508.851191 
L 600.775172 529.103473 
L 601.056137 496.012627 
L 601.336115 485.754236 
L 601.615112 488.213633 
L 601.893135 520.320971 
L 602.170191 498.717102 
L 602.446287 491.575771 
L 602.995624 507.239713 
L 603.541199 496.802385 
L 603.812591 486.751958 
L 604.352617 508.686954 
L 604.621264 526.953777 
L 604.889007 482.610067 
L 605.155853 492.337486 
L 605.421809 533.569689 
L 605.95107 487.852422 
L 606.214388 492.515359 
L 606.476838 490.747758 
L 606.738427 495.426346 
L 606.999159 483.167804 
L 607.25904 504.898766 
L 607.518076 511.350764 
L 607.776273 493.787798 
L 608.033635 497.820321 
L 608.290169 487.08775 
L 608.545879 492.342494 
L 608.80077 484.934752 
L 609.054849 503.452168 
L 609.308119 508.533635 
L 609.560587 493.001664 
L 609.812258 529.363562 
L 610.063135 493.084058 
L 610.313225 494.657237 
L 610.562532 489.474165 
L 610.811062 493.996139 
L 611.058818 491.598572 
L 611.305806 506.182845 
L 611.797496 487.624246 
L 612.042208 510.420839 
L 612.771864 480.176953 
L 613.013605 481.646367 
L 613.254614 495.344853 
L 613.494897 493.25361 
L 613.734457 505.539371 
L 613.973298 509.301522 
L 614.211426 487.777504 
L 614.448843 501.602228 
L 614.685555 497.705396 
L 614.921566 496.752632 
L 615.3915 509.160625 
L 615.625431 512.376689 
L 615.858678 487.471035 
L 616.091243 496.035833 
L 616.323131 494.40681 
L 616.554347 497.89979 
L 616.784892 525.77828 
L 617.014773 507.229401 
L 617.243992 507.279641 
L 617.472553 485.768519 
L 617.700461 504.727888 
L 617.927718 501.330328 
L 618.154329 493.739103 
L 618.380296 492.824007 
L 618.830318 513.472378 
L 619.054379 486.819061 
L 619.277811 503.851915 
L 619.500618 483.393088 
L 619.722804 506.456965 
L 619.944372 501.648408 
L 620.165325 502.757059 
L 620.385667 485.298171 
L 620.605401 518.241199 
L 620.824531 487.619814 
L 621.043059 515.411316 
L 621.26099 515.770348 
L 621.478326 498.608936 
L 621.69507 507.027876 
L 621.911227 499.850754 
L 622.126798 486.781508 
L 622.341787 493.991745 
L 622.556198 488.042901 
L 622.770034 507.814204 
L 622.983296 511.028359 
L 623.408116 495.310065 
L 623.61968 535.51519 
L 623.830683 504.577447 
L 624.041128 493.449249 
L 624.251019 495.118528 
L 624.669149 542.705471 
L 624.877394 493.304361 
L 625.085096 503.420744 
L 625.292257 506.391739 
L 625.498881 480.211499 
L 625.704971 493.485627 
L 625.910528 499.46324 
L 626.115557 492.575687 
L 626.320059 509.959145 
L 626.524038 495.581556 
L 626.727495 494.264466 
L 626.930435 488.61404 
L 627.132858 487.558453 
L 627.334768 501.882833 
L 627.536168 502.48516 
L 627.73706 512.403351 
L 627.937446 485.147283 
L 628.13733 513.10402 
L 628.336713 502.967185 
L 628.535599 532.079417 
L 628.733989 486.141844 
L 628.931886 498.049489 
L 629.129293 528.675011 
L 629.326211 500.249918 
L 629.522644 520.923737 
L 629.718594 519.376504 
L 630.109054 484.333808 
L 630.497608 517.417771 
L 630.884277 496.409264 
L 631.07691 501.444323 
L 631.269078 501.738509 
L 631.460783 489.426556 
L 631.652028 523.521486 
L 631.842815 509.407927 
L 632.033146 522.687838 
L 632.223024 512.944978 
L 632.41245 494.119392 
L 632.789956 488.81756 
L 632.97804 491.393364 
L 633.165681 520.399668 
L 633.539642 502.218835 
L 633.725966 501.549998 
L 633.911856 506.262956 
L 634.097312 503.167964 
L 634.282338 491.215829 
L 634.466935 488.615031 
L 634.651105 495.291997 
L 635.018173 519.678672 
L 635.383557 493.526078 
L 635.565622 493.056024 
L 635.747272 509.716654 
L 635.928509 514.461024 
L 636.109335 507.321165 
L 636.289751 507.720504 
L 636.469759 502.267829 
L 636.649361 492.949641 
L 636.828559 504.934933 
L 637.007355 494.380125 
L 637.185751 497.803111 
L 637.363748 491.859689 
L 637.541348 502.757356 
L 637.895364 483.362676 
L 638.071784 501.460167 
L 638.247814 482.808641 
L 638.423456 486.827584 
L 638.598712 486.507202 
L 638.773582 491.722069 
L 638.94807 492.586366 
L 639.122176 507.613021 
L 639.295903 505.527568 
L 639.469251 490.281499 
L 639.81482 504.24751 
L 639.987044 490.996176 
L 640.158897 495.292254 
L 640.330379 508.450206 
L 640.501493 486.064751 
L 640.67224 486.102658 
L 640.842622 493.433933 
L 641.012641 511.532423 
L 641.182297 484.318941 
L 641.520529 500.966291 
L 641.689108 545.129822 
L 642.0252 495.789552 
L 642.192715 495.904678 
L 642.359879 504.283901 
L 642.526693 534.281806 
L 642.859276 481.320387 
L 643.190477 521.702538 
L 643.520306 507.459522 
L 643.684709 516.827538 
L 643.848774 493.970368 
L 644.175894 499.55835 
L 644.501676 516.910807 
L 644.664069 486.424345 
L 644.987864 509.322072 
L 645.14927 493.506392 
L 645.310349 509.3312 
L 645.471103 496.065684 
L 645.791641 502.567558 
L 645.951427 495.336176 
L 646.270042 520.582817 
L 646.428873 534.772411 
L 646.587387 498.382619 
L 646.745587 490.849697 
L 646.903473 525.322573 
L 647.061047 490.511182 
L 647.531907 528.738949 
L 647.688244 520.109131 
L 647.844274 496.728196 
L 647.844274 496.728196 
" style="fill:none;stroke:#b22222;stroke-linecap:round;stroke-width:1.75;"/>
   </g>
   <g id="patch_6">
    <path d="M 90 512.64 
L 90 311.04 
" style="fill:none;stroke:#262626;stroke-linecap:square;stroke-linejoin:miter;stroke-width:1.25;"/>
   </g>
   <g id="patch_7">
    <path d="M 90 512.64 
L 648 512.64 
" style="fill:none;stroke:#262626;stroke-linecap:square;stroke-linejoin:miter;stroke-width:1.25;"/>
   </g>
  </g>
 </g>
 <defs>
  <clipPath id="p213a45363f">
   <rect height="201.6" width="558" x="90" y="69.12"/>
  </clipPath>
  <clipPath id="paa28b77268">
   <rect height="201.6" width="558" x="90" y="311.04"/>
  </clipPath>
 </defs>
</svg>
