<?xml version="1.0" encoding="utf-8" standalone="no"?>
<!DOCTYPE svg PUBLIC "-//W3C//DTD SVG 1.1//EN"
  "http://www.w3.org/Graphics/SVG/1.1/DTD/svg11.dtd">
<!-- Created with matplotlib (http://matplotlib.org/) -->
<svg height="576pt" version="1.1" viewBox="0 0 720 576" width="720pt" xmlns="http://www.w3.org/2000/svg" xmlns:xlink="http://www.w3.org/1999/xlink">
 <defs>
  <style type="text/css">
*{stroke-linecap:butt;stroke-linejoin:round;}
  </style>
 </defs>
 <g id="figure_1">
  <g id="patch_1">
   <path d="M 0 576 
L 720 576 
L 720 0 
L 0 0 
z
" style="fill:#ffffff;"/>
  </g>
  <g id="axes_1">
   <g id="patch_2">
    <path d="M 90 270.72 
L 648 270.72 
L 648 69.12 
L 90 69.12 
z
" style="fill:#ffffff;"/>
   </g>
   <g id="matplotlib.axis_1">
    <g id="xtick_1">
     <g id="line2d_1">
      <defs>
       <path d="M 0 0 
L 0 6 
" id="m6a3c72ddfa" style="stroke:#262626;"/>
      </defs>
      <g>
       <use style="fill:#262626;stroke:#262626;" x="90" xlink:href="#m6a3c72ddfa" y="270.72"/>
      </g>
     </g>
     <g id="text_1">
      <!-- 0 -->
      <defs>
       <path d="M 4.15625 35.296875 
Q 4.15625 48 6.765625 55.734375 
Q 9.375 63.484375 14.515625 67.671875 
Q 19.671875 71.875 27.484375 71.875 
Q 33.25 71.875 37.59375 69.546875 
Q 41.9375 67.234375 44.765625 62.859375 
Q 47.609375 58.5 49.21875 52.21875 
Q 50.828125 45.953125 50.828125 35.296875 
Q 50.828125 22.703125 48.234375 14.96875 
Q 45.65625 7.234375 40.5 3 
Q 35.359375 -1.21875 27.484375 -1.21875 
Q 17.140625 -1.21875 11.234375 6.203125 
Q 4.15625 15.140625 4.15625 35.296875 
z
M 13.1875 35.296875 
Q 13.1875 17.671875 17.3125 11.828125 
Q 21.4375 6 27.484375 6 
Q 33.546875 6 37.671875 11.859375 
Q 41.796875 17.71875 41.796875 35.296875 
Q 41.796875 52.984375 37.671875 58.78125 
Q 33.546875 64.59375 27.390625 64.59375 
Q 21.34375 64.59375 17.71875 59.46875 
Q 13.1875 52.9375 13.1875 35.296875 
z
" id="ArialMT-30"/>
      </defs>
      <g style="fill:#262626;" transform="translate(87.219531 290.877812)scale(0.1 -0.1)">
       <use xlink:href="#ArialMT-30"/>
      </g>
     </g>
    </g>
    <g id="xtick_2">
     <g id="line2d_2">
      <g>
       <use style="fill:#262626;stroke:#262626;" x="198.984375" xlink:href="#m6a3c72ddfa" y="270.72"/>
      </g>
     </g>
     <g id="text_2">
      <!-- 200 -->
      <defs>
       <path d="M 50.34375 8.453125 
L 50.34375 0 
L 3.03125 0 
Q 2.9375 3.171875 4.046875 6.109375 
Q 5.859375 10.9375 9.828125 15.625 
Q 13.8125 20.3125 21.34375 26.46875 
Q 33.015625 36.03125 37.109375 41.625 
Q 41.21875 47.21875 41.21875 52.203125 
Q 41.21875 57.421875 37.46875 61 
Q 33.734375 64.59375 27.734375 64.59375 
Q 21.390625 64.59375 17.578125 60.78125 
Q 13.765625 56.984375 13.71875 50.25 
L 4.6875 51.171875 
Q 5.609375 61.28125 11.65625 66.578125 
Q 17.71875 71.875 27.9375 71.875 
Q 38.234375 71.875 44.234375 66.15625 
Q 50.25 60.453125 50.25 52 
Q 50.25 47.703125 48.484375 43.546875 
Q 46.734375 39.40625 42.65625 34.8125 
Q 38.578125 30.21875 29.109375 22.21875 
Q 21.1875 15.578125 18.9375 13.203125 
Q 16.703125 10.84375 15.234375 8.453125 
z
" id="ArialMT-32"/>
      </defs>
      <g style="fill:#262626;" transform="translate(190.642969 290.877812)scale(0.1 -0.1)">
       <use xlink:href="#ArialMT-32"/>
       <use x="55.615234" xlink:href="#ArialMT-30"/>
       <use x="111.230469" xlink:href="#ArialMT-30"/>
      </g>
     </g>
    </g>
    <g id="xtick_3">
     <g id="line2d_3">
      <g>
       <use style="fill:#262626;stroke:#262626;" x="307.96875" xlink:href="#m6a3c72ddfa" y="270.72"/>
      </g>
     </g>
     <g id="text_3">
      <!-- 400 -->
      <defs>
       <path d="M 32.328125 0 
L 32.328125 17.140625 
L 1.265625 17.140625 
L 1.265625 25.203125 
L 33.9375 71.578125 
L 41.109375 71.578125 
L 41.109375 25.203125 
L 50.78125 25.203125 
L 50.78125 17.140625 
L 41.109375 17.140625 
L 41.109375 0 
z
M 32.328125 25.203125 
L 32.328125 57.46875 
L 9.90625 25.203125 
z
" id="ArialMT-34"/>
      </defs>
      <g style="fill:#262626;" transform="translate(299.627344 290.877812)scale(0.1 -0.1)">
       <use xlink:href="#ArialMT-34"/>
       <use x="55.615234" xlink:href="#ArialMT-30"/>
       <use x="111.230469" xlink:href="#ArialMT-30"/>
      </g>
     </g>
    </g>
    <g id="xtick_4">
     <g id="line2d_4">
      <g>
       <use style="fill:#262626;stroke:#262626;" x="416.953125" xlink:href="#m6a3c72ddfa" y="270.72"/>
      </g>
     </g>
     <g id="text_4">
      <!-- 600 -->
      <defs>
       <path d="M 49.75 54.046875 
L 41.015625 53.375 
Q 39.84375 58.546875 37.703125 60.890625 
Q 34.125 64.65625 28.90625 64.65625 
Q 24.703125 64.65625 21.53125 62.3125 
Q 17.390625 59.28125 14.984375 53.46875 
Q 12.59375 47.65625 12.5 36.921875 
Q 15.671875 41.75 20.265625 44.09375 
Q 24.859375 46.4375 29.890625 46.4375 
Q 38.671875 46.4375 44.84375 39.96875 
Q 51.03125 33.5 51.03125 23.25 
Q 51.03125 16.5 48.125 10.71875 
Q 45.21875 4.9375 40.140625 1.859375 
Q 35.0625 -1.21875 28.609375 -1.21875 
Q 17.625 -1.21875 10.6875 6.859375 
Q 3.765625 14.9375 3.765625 33.5 
Q 3.765625 54.25 11.421875 63.671875 
Q 18.109375 71.875 29.4375 71.875 
Q 37.890625 71.875 43.28125 67.140625 
Q 48.6875 62.40625 49.75 54.046875 
z
M 13.875 23.1875 
Q 13.875 18.65625 15.796875 14.5 
Q 17.71875 10.359375 21.1875 8.171875 
Q 24.65625 6 28.46875 6 
Q 34.03125 6 38.03125 10.484375 
Q 42.046875 14.984375 42.046875 22.703125 
Q 42.046875 30.125 38.078125 34.390625 
Q 34.125 38.671875 28.125 38.671875 
Q 22.171875 38.671875 18.015625 34.390625 
Q 13.875 30.125 13.875 23.1875 
z
" id="ArialMT-36"/>
      </defs>
      <g style="fill:#262626;" transform="translate(408.611719 290.877812)scale(0.1 -0.1)">
       <use xlink:href="#ArialMT-36"/>
       <use x="55.615234" xlink:href="#ArialMT-30"/>
       <use x="111.230469" xlink:href="#ArialMT-30"/>
      </g>
     </g>
    </g>
    <g id="xtick_5">
     <g id="line2d_5">
      <g>
       <use style="fill:#262626;stroke:#262626;" x="525.9375" xlink:href="#m6a3c72ddfa" y="270.72"/>
      </g>
     </g>
     <g id="text_5">
      <!-- 800 -->
      <defs>
       <path d="M 17.671875 38.8125 
Q 12.203125 40.828125 9.5625 44.53125 
Q 6.9375 48.25 6.9375 53.421875 
Q 6.9375 61.234375 12.546875 66.546875 
Q 18.171875 71.875 27.484375 71.875 
Q 36.859375 71.875 42.578125 66.421875 
Q 48.296875 60.984375 48.296875 53.171875 
Q 48.296875 48.1875 45.671875 44.5 
Q 43.0625 40.828125 37.75 38.8125 
Q 44.34375 36.671875 47.78125 31.875 
Q 51.21875 27.09375 51.21875 20.453125 
Q 51.21875 11.28125 44.71875 5.03125 
Q 38.234375 -1.21875 27.640625 -1.21875 
Q 17.046875 -1.21875 10.546875 5.046875 
Q 4.046875 11.328125 4.046875 20.703125 
Q 4.046875 27.6875 7.59375 32.390625 
Q 11.140625 37.109375 17.671875 38.8125 
z
M 15.921875 53.71875 
Q 15.921875 48.640625 19.1875 45.40625 
Q 22.46875 42.1875 27.6875 42.1875 
Q 32.765625 42.1875 36.015625 45.375 
Q 39.265625 48.578125 39.265625 53.21875 
Q 39.265625 58.0625 35.90625 61.359375 
Q 32.5625 64.65625 27.59375 64.65625 
Q 22.5625 64.65625 19.234375 61.421875 
Q 15.921875 58.203125 15.921875 53.71875 
z
M 13.09375 20.65625 
Q 13.09375 16.890625 14.875 13.375 
Q 16.65625 9.859375 20.171875 7.921875 
Q 23.6875 6 27.734375 6 
Q 34.03125 6 38.125 10.046875 
Q 42.234375 14.109375 42.234375 20.359375 
Q 42.234375 26.703125 38.015625 30.859375 
Q 33.796875 35.015625 27.4375 35.015625 
Q 21.234375 35.015625 17.15625 30.90625 
Q 13.09375 26.8125 13.09375 20.65625 
z
" id="ArialMT-38"/>
      </defs>
      <g style="fill:#262626;" transform="translate(517.596094 290.877812)scale(0.1 -0.1)">
       <use xlink:href="#ArialMT-38"/>
       <use x="55.615234" xlink:href="#ArialMT-30"/>
       <use x="111.230469" xlink:href="#ArialMT-30"/>
      </g>
     </g>
    </g>
    <g id="xtick_6">
     <g id="line2d_6">
      <g>
       <use style="fill:#262626;stroke:#262626;" x="634.921875" xlink:href="#m6a3c72ddfa" y="270.72"/>
      </g>
     </g>
     <g id="text_6">
      <!-- 1000 -->
      <defs>
       <path d="M 37.25 0 
L 28.46875 0 
L 28.46875 56 
Q 25.296875 52.984375 20.140625 49.953125 
Q 14.984375 46.921875 10.890625 45.40625 
L 10.890625 53.90625 
Q 18.265625 57.375 23.78125 62.296875 
Q 29.296875 67.234375 31.59375 71.875 
L 37.25 71.875 
z
" id="ArialMT-31"/>
      </defs>
      <g style="fill:#262626;" transform="translate(623.8 290.877812)scale(0.1 -0.1)">
       <use xlink:href="#ArialMT-31"/>
       <use x="55.615234" xlink:href="#ArialMT-30"/>
       <use x="111.230469" xlink:href="#ArialMT-30"/>
       <use x="166.845703" xlink:href="#ArialMT-30"/>
      </g>
     </g>
    </g>
   </g>
   <g id="matplotlib.axis_2">
    <g id="ytick_1">
     <g id="line2d_7">
      <defs>
       <path d="M 0 0 
L -6 0 
" id="m16e464d7c1" style="stroke:#262626;"/>
      </defs>
      <g>
       <use style="fill:#262626;stroke:#262626;" x="90" xlink:href="#m16e464d7c1" y="270.72"/>
      </g>
     </g>
     <g id="text_7">
      <!-- −0.6 -->
      <defs>
       <path d="M 52.828125 31.203125 
L 5.5625 31.203125 
L 5.5625 39.40625 
L 52.828125 39.40625 
z
" id="ArialMT-2212"/>
       <path d="M 9.078125 0 
L 9.078125 10.015625 
L 19.09375 10.015625 
L 19.09375 0 
z
" id="ArialMT-2e"/>
      </defs>
      <g style="fill:#262626;" transform="translate(57.259375 274.298906)scale(0.1 -0.1)">
       <use xlink:href="#ArialMT-2212"/>
       <use x="58.398438" xlink:href="#ArialMT-30"/>
       <use x="114.013672" xlink:href="#ArialMT-2e"/>
       <use x="141.796875" xlink:href="#ArialMT-36"/>
      </g>
     </g>
    </g>
    <g id="ytick_2">
     <g id="line2d_8">
      <g>
       <use style="fill:#262626;stroke:#262626;" x="90" xlink:href="#m16e464d7c1" y="237.12"/>
      </g>
     </g>
     <g id="text_8">
      <!-- −0.4 -->
      <g style="fill:#262626;" transform="translate(57.259375 240.698906)scale(0.1 -0.1)">
       <use xlink:href="#ArialMT-2212"/>
       <use x="58.398438" xlink:href="#ArialMT-30"/>
       <use x="114.013672" xlink:href="#ArialMT-2e"/>
       <use x="141.796875" xlink:href="#ArialMT-34"/>
      </g>
     </g>
    </g>
    <g id="ytick_3">
     <g id="line2d_9">
      <g>
       <use style="fill:#262626;stroke:#262626;" x="90" xlink:href="#m16e464d7c1" y="203.52"/>
      </g>
     </g>
     <g id="text_9">
      <!-- −0.2 -->
      <g style="fill:#262626;" transform="translate(57.259375 207.098906)scale(0.1 -0.1)">
       <use xlink:href="#ArialMT-2212"/>
       <use x="58.398438" xlink:href="#ArialMT-30"/>
       <use x="114.013672" xlink:href="#ArialMT-2e"/>
       <use x="141.796875" xlink:href="#ArialMT-32"/>
      </g>
     </g>
    </g>
    <g id="ytick_4">
     <g id="line2d_10">
      <g>
       <use style="fill:#262626;stroke:#262626;" x="90" xlink:href="#m16e464d7c1" y="169.92"/>
      </g>
     </g>
     <g id="text_10">
      <!-- 0.0 -->
      <g style="fill:#262626;" transform="translate(63.1 173.498906)scale(0.1 -0.1)">
       <use xlink:href="#ArialMT-30"/>
       <use x="55.615234" xlink:href="#ArialMT-2e"/>
       <use x="83.398438" xlink:href="#ArialMT-30"/>
      </g>
     </g>
    </g>
    <g id="ytick_5">
     <g id="line2d_11">
      <g>
       <use style="fill:#262626;stroke:#262626;" x="90" xlink:href="#m16e464d7c1" y="136.32"/>
      </g>
     </g>
     <g id="text_11">
      <!-- 0.2 -->
      <g style="fill:#262626;" transform="translate(63.1 139.898906)scale(0.1 -0.1)">
       <use xlink:href="#ArialMT-30"/>
       <use x="55.615234" xlink:href="#ArialMT-2e"/>
       <use x="83.398438" xlink:href="#ArialMT-32"/>
      </g>
     </g>
    </g>
    <g id="ytick_6">
     <g id="line2d_12">
      <g>
       <use style="fill:#262626;stroke:#262626;" x="90" xlink:href="#m16e464d7c1" y="102.72"/>
      </g>
     </g>
     <g id="text_12">
      <!-- 0.4 -->
      <g style="fill:#262626;" transform="translate(63.1 106.298906)scale(0.1 -0.1)">
       <use xlink:href="#ArialMT-30"/>
       <use x="55.615234" xlink:href="#ArialMT-2e"/>
       <use x="83.398438" xlink:href="#ArialMT-34"/>
      </g>
     </g>
    </g>
    <g id="ytick_7">
     <g id="line2d_13">
      <g>
       <use style="fill:#262626;stroke:#262626;" x="90" xlink:href="#m16e464d7c1" y="69.12"/>
      </g>
     </g>
     <g id="text_13">
      <!-- 0.6 -->
      <g style="fill:#262626;" transform="translate(63.1 72.698906)scale(0.1 -0.1)">
       <use xlink:href="#ArialMT-30"/>
       <use x="55.615234" xlink:href="#ArialMT-2e"/>
       <use x="83.398438" xlink:href="#ArialMT-36"/>
      </g>
     </g>
    </g>
   </g>
   <g id="line2d_14">
    <path clip-path="url(#paee3f816a2)" d="M 90 178.415361 
L 91.089844 181.019854 
L 92.179688 181.737627 
L 92.724609 181.840166 
L 93.269531 182.583574 
L 93.814453 184.193437 
L 94.359375 186.582598 
L 95.994141 195.69832 
L 96.539062 197.754229 
L 97.083984 199.153887 
L 97.628906 199.302568 
L 98.173828 198.851396 
L 98.71875 197.779863 
L 99.263672 197.205645 
L 99.808594 197.149248 
L 100.353516 197.733721 
L 100.898438 198.948809 
L 101.443359 200.594561 
L 103.078125 206.177812 
L 104.167969 208.910479 
L 105.257812 210.310137 
L 105.802734 210.428057 
L 106.347656 210.397295 
L 106.892578 210.520342 
L 107.4375 210.412676 
L 107.982422 209.864092 
L 108.527344 209.484697 
L 109.072266 208.864336 
L 109.617188 207.556963 
L 110.162109 205.444658 
L 110.707031 202.445391 
L 112.341797 189.146074 
L 113.431641 180.712236 
L 113.976562 177.605303 
L 114.521484 175.205889 
L 115.066406 173.462725 
L 115.611328 173.25252 
L 116.15625 173.216631 
L 116.701172 173.575518 
L 117.246094 173.508867 
L 117.791016 173.31917 
L 118.880859 172.452715 
L 119.970703 171.53499 
L 120.515625 171.345293 
L 121.060547 171.001787 
L 121.605469 171.129961 
L 122.150391 171.001787 
L 122.695312 171.340166 
L 123.240234 171.191484 
L 123.785156 171.899004 
L 124.330078 171.719561 
L 124.875 171.893877 
L 125.419922 171.760576 
L 125.964844 171.242754 
L 126.509766 170.27376 
L 127.054688 168.79207 
L 127.599609 166.782305 
L 129.234375 158.445879 
L 130.324219 153.27791 
L 130.869141 152.170488 
L 131.958984 152.278154 
L 132.503906 152.888262 
L 133.048828 152.657549 
L 133.59375 151.550127 
L 135.228516 145.87459 
L 135.773438 144.105791 
L 136.318359 143.24959 
L 136.863281 142.926592 
L 137.408203 143.136797 
L 137.953125 143.726396 
L 138.498047 143.690508 
L 139.042969 143.085527 
L 139.587891 142.096025 
L 140.677734 138.194414 
L 142.3125 131.990801 
L 143.402344 128.76082 
L 143.947266 127.791826 
L 144.492188 126.571611 
L 145.037109 125.930742 
L 146.126953 123.946611 
L 146.671875 122.741777 
L 147.216797 122.075273 
L 148.306641 120.193682 
L 148.851562 119.158037 
L 149.396484 118.686357 
L 149.941406 118.512041 
L 150.486328 118.148027 
L 151.03125 118.373613 
L 152.121094 118.286455 
L 153.210938 118.999102 
L 153.755859 120.291094 
L 154.845703 124.654131 
L 156.480469 132.652178 
L 157.025391 133.985186 
L 157.570312 134.349199 
L 158.115234 134.015947 
L 158.660156 132.672686 
L 159.75 129.617021 
L 160.294922 128.535234 
L 160.839844 127.976396 
L 161.384766 128.294268 
L 161.929688 129.335039 
L 162.474609 130.939775 
L 164.109375 137.850908 
L 164.654297 139.61458 
L 166.289062 143.598223 
L 166.833984 145.741289 
L 167.923828 151.888506 
L 170.648438 170.591631 
L 171.193359 173.273027 
L 172.283203 177.128496 
L 172.828125 177.815508 
L 173.373047 177.938555 
L 173.917969 177.338701 
L 174.462891 175.82625 
L 175.007812 174.785479 
L 175.552734 173.273027 
L 176.097656 172.724443 
L 177.1875 172.724443 
L 178.822266 173.919023 
L 179.912109 173.831865 
L 181.001953 173.421709 
L 181.546875 173.452471 
L 182.091797 173.970293 
L 183.181641 176.426104 
L 184.271484 179.850908 
L 185.361328 184.116533 
L 185.90625 186.874834 
L 186.996094 191.145586 
L 187.541016 192.422197 
L 188.085938 192.950273 
L 188.630859 193.139971 
L 189.175781 193.083574 
L 189.720703 192.46834 
L 190.265625 192.46834 
L 190.810547 192.970781 
L 191.355469 194.20125 
L 192.445312 198.159258 
L 192.990234 200.574053 
L 194.080078 203.834795 
L 194.625 204.537187 
L 195.714844 205.398516 
L 196.259766 206.347002 
L 196.804688 207.556963 
L 197.349609 209.218096 
L 198.439453 213.227373 
L 198.984375 214.632158 
L 199.529297 214.924395 
L 200.074219 214.078447 
L 200.619141 212.314775 
L 201.164062 209.566729 
L 201.708984 206.06502 
L 203.888672 189.315264 
L 204.433594 186.664629 
L 206.068359 181.019854 
L 206.613281 179.297197 
L 207.703125 176.436357 
L 208.792969 175.093096 
L 211.517578 170.663408 
L 212.0625 170.248125 
L 212.607422 170.253252 
L 213.152344 171.006914 
L 214.787109 175.436602 
L 215.332031 176.313311 
L 215.876953 176.021074 
L 216.421875 175.252031 
L 217.511719 171.683672 
L 218.601562 167.571855 
L 219.146484 166.428545 
L 219.691406 164.962236 
L 220.78125 163.126787 
L 224.050781 154.94417 
L 226.230469 150.391436 
L 227.320312 149.27376 
L 227.865234 149.442949 
L 228.410156 149.330156 
L 228.955078 148.925127 
L 230.044922 147.720293 
L 230.589844 146.771807 
L 232.224609 141.921709 
L 233.314453 138.748125 
L 234.949219 134.338945 
L 235.494141 133.159746 
L 236.583984 131.611406 
L 237.128906 130.991045 
L 237.673828 130.057939 
L 238.21875 128.827471 
L 240.398438 122.772539 
L 242.033203 119.778398 
L 242.578125 119.004229 
L 243.123047 119.255449 
L 243.667969 120.183428 
L 244.212891 121.875322 
L 245.302734 127.058672 
L 246.392578 132.554766 
L 246.9375 134.308184 
L 247.482422 135.318193 
L 248.027344 135.687334 
L 248.572266 135.564287 
L 249.662109 134.867021 
L 250.207031 134.349199 
L 250.751953 133.503252 
L 251.841797 132.780352 
L 252.386719 133.339189 
L 252.931641 134.072344 
L 253.476562 135.031084 
L 254.021484 136.476885 
L 254.566406 137.466387 
L 255.111328 138.748125 
L 255.65625 139.66585 
L 256.201172 140.178545 
L 256.746094 140.255449 
L 257.291016 140.998857 
L 257.835938 142.393389 
L 258.380859 144.946611 
L 259.470703 153.69832 
L 261.105469 167.782061 
L 261.650391 171.401689 
L 262.195312 173.831865 
L 262.740234 175.385332 
L 263.285156 176.195391 
L 263.830078 176.149248 
L 264.919922 176.426104 
L 265.464844 176.71834 
L 266.009766 177.595049 
L 267.099609 178.840898 
L 267.644531 179.456133 
L 268.189453 179.497148 
L 269.279297 178.830645 
L 269.824219 177.523271 
L 270.369141 176.610674 
L 270.914062 175.385332 
L 272.003906 173.888262 
L 272.548828 174.067705 
L 273.09375 174.534258 
L 273.638672 176.133867 
L 275.818359 184.767656 
L 276.363281 186.034014 
L 277.998047 188.41292 
L 279.087891 190.289385 
L 280.177734 191.607012 
L 282.902344 197.133867 
L 283.992188 197.979814 
L 285.082031 199.769121 
L 285.626953 201.261064 
L 286.716797 205.316484 
L 288.351562 212.719805 
L 289.441406 216.334307 
L 289.986328 217.462236 
L 290.53125 218.164629 
L 291.076172 218.215898 
L 291.621094 217.262285 
L 292.166016 215.144854 
L 292.710938 212.360918 
L 294.890625 197.015947 
L 295.435547 194.549883 
L 295.980469 192.734941 
L 297.070312 191.232744 
L 297.615234 190.094561 
L 298.160156 188.166826 
L 300.339844 176.338945 
L 300.884766 174.390703 
L 301.429688 173.467852 
L 301.974609 173.396074 
L 302.519531 173.80623 
L 303.064453 174.764971 
L 304.154297 177.272051 
L 305.244141 177.584795 
L 305.789062 177.472002 
L 306.878906 176.841387 
L 307.96875 175.482744 
L 308.513672 174.775225 
L 310.148438 173.596025 
L 311.238281 171.04793 
L 313.417969 163.71126 
L 314.507812 161.240068 
L 315.052734 160.460771 
L 315.597656 159.168779 
L 316.142578 158.466387 
L 316.6875 157.456377 
L 317.232422 156.820635 
L 317.777344 155.78499 
L 318.322266 155.4825 
L 319.412109 154.52376 
L 320.501953 153.93416 
L 322.136719 152.237139 
L 323.226562 149.401934 
L 324.861328 143.06502 
L 325.40625 141.70125 
L 325.951172 141.352617 
L 326.496094 141.378252 
L 327.585938 141.926836 
L 328.130859 141.388506 
L 328.675781 140.327227 
L 329.220703 138.06624 
L 330.310547 132.195879 
L 330.855469 129.027422 
L 331.400391 126.704912 
L 331.945312 125.407793 
L 332.490234 124.674639 
L 333.035156 124.525957 
L 333.580078 124.772051 
L 334.125 125.617998 
L 334.669922 126.930498 
L 337.394531 136.220537 
L 337.939453 137.445879 
L 338.484375 138.348223 
L 339.574219 138.717363 
L 340.119141 138.819902 
L 340.664062 138.53792 
L 341.208984 138.430254 
L 342.298828 138.886553 
L 343.933594 140.316973 
L 344.478516 140.183672 
L 345.568359 139.383867 
L 346.658203 138.414873 
L 347.203125 138.835283 
L 347.748047 139.635088 
L 348.837891 143.172686 
L 349.382812 145.772051 
L 350.472656 153.51375 
L 351.5625 162.824297 
L 352.107422 166.910479 
L 352.652344 169.832842 
L 353.197266 171.914385 
L 355.921875 177.836016 
L 357.556641 184.29085 
L 358.101562 185.890459 
L 358.646484 186.690264 
L 359.191406 186.603105 
L 359.736328 186.003252 
L 360.28125 184.429277 
L 361.371094 180.568682 
L 361.916016 179.415117 
L 362.460938 178.979326 
L 363.005859 179.46126 
L 363.550781 180.727617 
L 364.095703 182.937334 
L 365.730469 187.023516 
L 366.275391 187.213213 
L 366.820312 187.731035 
L 367.365234 187.741289 
L 367.910156 188.41292 
L 369 191.063555 
L 370.089844 194.893389 
L 370.634766 196.282793 
L 371.179688 197.226152 
L 371.724609 197.651689 
L 372.269531 197.672197 
L 373.359375 198.692461 
L 373.904297 199.246172 
L 374.449219 200.010088 
L 374.994141 200.235674 
L 375.539062 200.768877 
L 376.083984 201.660967 
L 376.628906 202.865801 
L 377.173828 204.696123 
L 378.263672 210.361406 
L 379.353516 217.939043 
L 379.898438 221.143389 
L 380.443359 223.035234 
L 380.988281 224.055498 
L 381.533203 223.845293 
L 382.623047 221.609941 
L 384.802734 214.298906 
L 386.4375 209.402666 
L 387.527344 205.429277 
L 388.072266 202.727373 
L 390.796875 186.890215 
L 391.341797 184.670244 
L 391.886719 183.378252 
L 392.431641 182.537432 
L 392.976562 181.91707 
L 393.521484 181.881182 
L 394.066406 181.583818 
L 394.611328 181.794023 
L 396.246094 181.870928 
L 396.791016 181.768389 
L 397.335938 181.286455 
L 398.425781 181.014727 
L 399.515625 181.065996 
L 400.060547 180.814775 
L 400.605469 180.394365 
L 402.240234 177.364336 
L 403.330078 174.031816 
L 404.419922 170.81209 
L 404.964844 169.648271 
L 407.689453 162.291094 
L 408.234375 161.670732 
L 408.779297 161.409258 
L 409.869141 161.86043 
L 410.414062 161.660479 
L 411.503906 159.937822 
L 413.138672 155.513262 
L 414.228516 152.365312 
L 414.773438 151.042559 
L 415.318359 150.022295 
L 415.863281 149.335283 
L 416.408203 148.904619 
L 418.042969 149.325029 
L 418.587891 148.694414 
L 419.132812 147.84334 
L 419.677734 145.895098 
L 420.767578 140.798906 
L 422.402344 130.570635 
L 422.947266 128.396807 
L 423.492188 127.391924 
L 424.037109 127.643145 
L 425.671875 131.893389 
L 426.761719 134.041582 
L 428.396484 136.425615 
L 430.03125 138.568682 
L 431.121094 140.675859 
L 431.666016 142.080645 
L 432.210938 142.926592 
L 432.755859 144.080156 
L 433.300781 144.597979 
L 433.845703 144.91585 
L 434.390625 144.633867 
L 434.935547 143.675127 
L 436.570312 139.404375 
L 437.115234 138.255937 
L 437.660156 137.94832 
L 438.205078 138.132891 
L 438.75 139.122393 
L 439.294922 140.962969 
L 440.384766 146.238604 
L 443.109375 160.399248 
L 445.289062 170.612139 
L 446.378906 176.969561 
L 446.923828 180.42 
L 448.013672 184.993242 
L 448.558594 186.09041 
L 449.103516 186.715898 
L 449.648438 186.997881 
L 450.193359 186.828691 
L 450.738281 187.110674 
L 452.373047 185.808428 
L 453.462891 184.849687 
L 454.007812 184.82918 
L 454.552734 185.018877 
L 455.097656 185.998125 
L 456.1875 188.659014 
L 456.732422 189.894609 
L 457.277344 190.335527 
L 457.822266 190.44832 
L 458.367188 190.294512 
L 458.912109 190.473955 
L 459.457031 191.145586 
L 460.546875 194.744707 
L 461.636719 198.994951 
L 462.181641 200.368975 
L 462.726562 201.040605 
L 463.271484 200.707354 
L 463.816406 199.912676 
L 464.90625 197.374834 
L 465.451172 196.821123 
L 465.996094 196.451982 
L 466.541016 197.743975 
L 467.085938 199.594805 
L 469.810547 216.529131 
L 470.355469 218.90291 
L 471.445312 221.092119 
L 471.990234 221.886797 
L 473.080078 222.799395 
L 474.169922 223.301836 
L 474.714844 223.409502 
L 475.259766 223.286455 
L 476.349609 221.415117 
L 477.439453 217.831377 
L 479.074219 209.817949 
L 480.164062 203.419512 
L 481.253906 197.467119 
L 483.978516 187.172197 
L 484.523438 185.72127 
L 485.068359 185.003496 
L 485.613281 184.941973 
L 486.158203 185.054766 
L 486.703125 185.300859 
L 487.792969 184.9471 
L 488.337891 184.336992 
L 488.882812 183.511553 
L 489.427734 182.97835 
L 490.517578 182.670732 
L 491.607422 183.357744 
L 492.152344 183.34749 
L 492.697266 182.839922 
L 493.242188 182.060625 
L 494.332031 178.620439 
L 495.421875 173.596025 
L 496.511719 169.38167 
L 497.056641 168.340898 
L 497.601562 168.115312 
L 499.236328 166.351641 
L 500.871094 163.726641 
L 501.416016 163.162676 
L 502.505859 160.578691 
L 503.050781 159.055986 
L 503.595703 157.123125 
L 504.685547 154.241777 
L 505.230469 153.344561 
L 505.775391 153.190752 
L 506.320312 153.436846 
L 506.865234 153.518877 
L 507.410156 154.159746 
L 507.955078 154.518633 
L 508.5 154.28792 
L 509.044922 153.667559 
L 509.589844 152.488359 
L 510.134766 150.463213 
L 510.679688 147.84334 
L 511.769531 140.99373 
L 512.859375 134.036455 
L 513.404297 131.529375 
L 513.949219 129.627275 
L 514.494141 128.965898 
L 515.039062 128.622393 
L 515.583984 129.094072 
L 516.673828 130.888506 
L 517.21875 131.365312 
L 518.308594 130.867998 
L 518.853516 130.488604 
L 519.398438 130.84749 
L 519.943359 131.447344 
L 520.488281 132.467607 
L 521.033203 134.01082 
L 522.123047 138.707109 
L 523.212891 143.182939 
L 523.757812 144.428789 
L 524.302734 144.454424 
L 524.847656 143.562334 
L 527.027344 135.600176 
L 527.572266 135.082354 
L 528.117188 135.461748 
L 528.662109 136.358965 
L 529.207031 137.943193 
L 529.751953 139.158281 
L 530.841797 140.275957 
L 531.386719 140.393877 
L 531.931641 140.998857 
L 532.476562 142.342119 
L 533.566406 147.212725 
L 538.470703 174.534258 
L 539.015625 176.810625 
L 539.560547 178.220537 
L 540.650391 179.968828 
L 541.195312 180.512285 
L 541.740234 180.825029 
L 542.830078 181.081377 
L 544.464844 182.188799 
L 545.009766 183.014238 
L 545.554688 183.567949 
L 546.099609 183.890947 
L 546.644531 184.05501 
L 547.734375 183.470537 
L 548.279297 183.680742 
L 548.824219 184.285723 
L 549.369141 185.495684 
L 549.914062 187.074785 
L 552.09375 194.785723 
L 552.638672 195.165117 
L 553.183594 194.929277 
L 555.363281 190.058672 
L 555.908203 189.284502 
L 556.453125 189.438311 
L 556.998047 190.089434 
L 557.542969 191.591631 
L 558.087891 193.909014 
L 559.722656 202.553057 
L 560.8125 206.254717 
L 562.447266 210.028154 
L 563.537109 213.863115 
L 564.626953 217.687822 
L 565.716797 219.384844 
L 566.261719 219.497637 
L 566.806641 219.44124 
L 567.351562 218.867021 
L 568.441406 216.04207 
L 570.621094 206.823809 
L 573.345703 191.453203 
L 573.890625 189.612627 
L 576.070312 183.870439 
L 576.615234 182.363115 
L 577.705078 180.266191 
L 578.794922 179.440752 
L 579.884766 179.6971 
L 580.429688 179.671465 
L 580.974609 179.922686 
L 582.064453 180.035479 
L 582.609375 180.097002 
L 583.154297 180.045732 
L 583.699219 179.691973 
L 584.244141 178.979326 
L 585.333984 175.40584 
L 586.96875 168.889482 
L 587.513672 167.474443 
L 588.058594 166.654131 
L 588.603516 166.110674 
L 589.148438 166.413164 
L 589.693359 166.551592 
L 590.238281 166.413164 
L 590.783203 165.587725 
L 591.328125 164.490557 
L 592.417969 160.414629 
L 595.142578 151.391191 
L 595.6875 151.129717 
L 596.232422 151.134844 
L 596.777344 151.642412 
L 597.322266 152.334551 
L 597.867188 152.770342 
L 598.412109 153.349687 
L 598.957031 153.365068 
L 599.501953 153.098467 
L 600.046875 152.119219 
L 600.591797 150.427324 
L 602.226562 142.449785 
L 603.316406 136.261553 
L 604.40625 131.683184 
L 604.951172 130.524492 
L 605.496094 130.057939 
L 606.041016 129.386309 
L 606.585938 129.032549 
L 607.130859 128.073809 
L 608.220703 125.274492 
L 608.765625 123.521074 
L 609.310547 123.146807 
L 609.855469 123.362139 
L 610.400391 124.664385 
L 610.945312 126.781816 
L 612.580078 134.574785 
L 613.669922 137.891924 
L 614.214844 138.881426 
L 614.759766 139.629961 
L 615.304688 139.835039 
L 615.849609 139.399248 
L 616.394531 138.496904 
L 616.939453 137.179277 
L 618.029297 135.482256 
L 618.574219 135.041338 
L 619.119141 134.959307 
L 619.664062 135.066973 
L 620.208984 135.507891 
L 620.753906 135.615557 
L 621.298828 135.918047 
L 622.388672 135.615557 
L 622.933594 135.338701 
L 624.023438 136.241045 
L 624.568359 137.886797 
L 625.113281 140.552812 
L 626.203125 147.807451 
L 627.837891 159.907061 
L 628.382812 162.952471 
L 628.927734 164.885332 
L 629.472656 166.387529 
L 630.017578 167.207842 
L 630.5625 168.310137 
L 631.652344 171.555498 
L 632.742188 176.108232 
L 633.287109 177.984697 
L 633.832031 179.333086 
L 634.376953 179.502275 
L 634.921875 179.384355 
L 636.556641 177.246416 
L 637.101562 177.13875 
L 637.646484 176.908037 
L 638.191406 177.174639 
L 638.736328 178.205156 
L 639.28125 179.486895 
L 640.916016 186.054521 
L 641.460938 187.82332 
L 642.005859 188.659014 
L 642.550781 189.151201 
L 643.095703 188.971758 
L 644.185547 187.484941 
L 645.820312 184.480547 
L 646.365234 184.060137 
L 646.910156 184.126787 
L 647.455078 184.736895 
L 647.455078 184.736895 
" style="fill:none;stroke:#4c72b0;stroke-linecap:round;stroke-width:1.75;"/>
   </g>
   <g id="patch_3">
    <path d="M 90 270.72 
L 90 69.12 
" style="fill:none;stroke:#262626;stroke-linecap:square;stroke-linejoin:miter;stroke-width:1.25;"/>
   </g>
   <g id="patch_4">
    <path d="M 90 270.72 
L 648 270.72 
" style="fill:none;stroke:#262626;stroke-linecap:square;stroke-linejoin:miter;stroke-width:1.25;"/>
   </g>
  </g>
  <g id="axes_2">
   <g id="patch_5">
    <path d="M 90 512.64 
L 648 512.64 
L 648 311.04 
L 90 311.04 
z
" style="fill:#ffffff;"/>
   </g>
   <g id="matplotlib.axis_3">
    <g id="xtick_7">
     <g id="line2d_15">
      <g>
       <use style="fill:#262626;stroke:#262626;" x="218.197478" xlink:href="#m6a3c72ddfa" y="512.64"/>
      </g>
     </g>
     <g id="text_14">
      <!-- $\mathdefault{10^{2}}$ -->
      <g style="fill:#262626;" transform="translate(210.347478 535.9525)scale(0.1 -0.1)">
       <use transform="translate(0 0.99375)" xlink:href="#ArialMT-31"/>
       <use transform="translate(55.615234 0.99375)" xlink:href="#ArialMT-30"/>
       <use transform="translate(112.972813 70.6875)scale(0.7)" xlink:href="#ArialMT-32"/>
      </g>
     </g>
    </g>
    <g id="xtick_8">
     <g id="line2d_16">
      <g>
       <use style="fill:#262626;stroke:#262626;" x="401.606604" xlink:href="#m6a3c72ddfa" y="512.64"/>
      </g>
     </g>
     <g id="text_15">
      <!-- $\mathdefault{10^{3}}$ -->
      <defs>
       <path d="M 4.203125 18.890625 
L 12.984375 20.0625 
Q 14.5 12.59375 18.140625 9.296875 
Q 21.78125 6 27 6 
Q 33.203125 6 37.46875 10.296875 
Q 41.75 14.59375 41.75 20.953125 
Q 41.75 27 37.796875 30.921875 
Q 33.84375 34.859375 27.734375 34.859375 
Q 25.25 34.859375 21.53125 33.890625 
L 22.515625 41.609375 
Q 23.390625 41.5 23.921875 41.5 
Q 29.546875 41.5 34.03125 44.421875 
Q 38.53125 47.359375 38.53125 53.46875 
Q 38.53125 58.296875 35.25 61.46875 
Q 31.984375 64.65625 26.8125 64.65625 
Q 21.6875 64.65625 18.265625 61.421875 
Q 14.84375 58.203125 13.875 51.765625 
L 5.078125 53.328125 
Q 6.6875 62.15625 12.390625 67.015625 
Q 18.109375 71.875 26.609375 71.875 
Q 32.46875 71.875 37.390625 69.359375 
Q 42.328125 66.84375 44.9375 62.5 
Q 47.5625 58.15625 47.5625 53.265625 
Q 47.5625 48.640625 45.0625 44.828125 
Q 42.578125 41.015625 37.703125 38.765625 
Q 44.046875 37.3125 47.5625 32.6875 
Q 51.078125 28.078125 51.078125 21.140625 
Q 51.078125 11.765625 44.234375 5.25 
Q 37.40625 -1.265625 26.953125 -1.265625 
Q 17.53125 -1.265625 11.296875 4.34375 
Q 5.078125 9.96875 4.203125 18.890625 
z
" id="ArialMT-33"/>
      </defs>
      <g style="fill:#262626;" transform="translate(393.756604 535.9525)scale(0.1 -0.1)">
       <use transform="translate(0 0.99375)" xlink:href="#ArialMT-31"/>
       <use transform="translate(55.615234 0.99375)" xlink:href="#ArialMT-30"/>
       <use transform="translate(112.972813 70.6875)scale(0.7)" xlink:href="#ArialMT-33"/>
      </g>
     </g>
    </g>
    <g id="xtick_9">
     <g id="line2d_17">
      <g>
       <use style="fill:#262626;stroke:#262626;" x="585.01573" xlink:href="#m6a3c72ddfa" y="512.64"/>
      </g>
     </g>
     <g id="text_16">
      <!-- $\mathdefault{10^{4}}$ -->
      <g style="fill:#262626;" transform="translate(577.16573 535.8525)scale(0.1 -0.1)">
       <use transform="translate(0 0.201563)" xlink:href="#ArialMT-31"/>
       <use transform="translate(55.615234 0.201563)" xlink:href="#ArialMT-30"/>
       <use transform="translate(112.972813 69.895313)scale(0.7)" xlink:href="#ArialMT-34"/>
      </g>
     </g>
    </g>
    <g id="xtick_10">
     <g id="line2d_18">
      <defs>
       <path d="M 0 0 
L 0 3 
" id="m4bc5b5a705" style="stroke:#262626;stroke-width:0.5;"/>
      </defs>
      <g>
       <use style="fill:#262626;stroke:#262626;stroke-width:0.5;" x="90" xlink:href="#m4bc5b5a705" y="512.64"/>
      </g>
     </g>
    </g>
    <g id="xtick_11">
     <g id="line2d_19">
      <g>
       <use style="fill:#262626;stroke:#262626;stroke-width:0.5;" x="122.296744" xlink:href="#m4bc5b5a705" y="512.64"/>
      </g>
     </g>
    </g>
    <g id="xtick_12">
     <g id="line2d_20">
      <g>
       <use style="fill:#262626;stroke:#262626;stroke-width:0.5;" x="145.211648" xlink:href="#m4bc5b5a705" y="512.64"/>
      </g>
     </g>
    </g>
    <g id="xtick_13">
     <g id="line2d_21">
      <g>
       <use style="fill:#262626;stroke:#262626;stroke-width:0.5;" x="162.985829" xlink:href="#m4bc5b5a705" y="512.64"/>
      </g>
     </g>
    </g>
    <g id="xtick_14">
     <g id="line2d_22">
      <g>
       <use style="fill:#262626;stroke:#262626;stroke-width:0.5;" x="177.508392" xlink:href="#m4bc5b5a705" y="512.64"/>
      </g>
     </g>
    </g>
    <g id="xtick_15">
     <g id="line2d_23">
      <g>
       <use style="fill:#262626;stroke:#262626;stroke-width:0.5;" x="189.787045" xlink:href="#m4bc5b5a705" y="512.64"/>
      </g>
     </g>
    </g>
    <g id="xtick_16">
     <g id="line2d_24">
      <g>
       <use style="fill:#262626;stroke:#262626;stroke-width:0.5;" x="200.423297" xlink:href="#m4bc5b5a705" y="512.64"/>
      </g>
     </g>
    </g>
    <g id="xtick_17">
     <g id="line2d_25">
      <g>
       <use style="fill:#262626;stroke:#262626;stroke-width:0.5;" x="209.805136" xlink:href="#m4bc5b5a705" y="512.64"/>
      </g>
     </g>
    </g>
    <g id="xtick_18">
     <g id="line2d_26">
      <g>
       <use style="fill:#262626;stroke:#262626;stroke-width:0.5;" x="273.409126" xlink:href="#m4bc5b5a705" y="512.64"/>
      </g>
     </g>
    </g>
    <g id="xtick_19">
     <g id="line2d_27">
      <g>
       <use style="fill:#262626;stroke:#262626;stroke-width:0.5;" x="305.70587" xlink:href="#m4bc5b5a705" y="512.64"/>
      </g>
     </g>
    </g>
    <g id="xtick_20">
     <g id="line2d_28">
      <g>
       <use style="fill:#262626;stroke:#262626;stroke-width:0.5;" x="328.620775" xlink:href="#m4bc5b5a705" y="512.64"/>
      </g>
     </g>
    </g>
    <g id="xtick_21">
     <g id="line2d_29">
      <g>
       <use style="fill:#262626;stroke:#262626;stroke-width:0.5;" x="346.394955" xlink:href="#m4bc5b5a705" y="512.64"/>
      </g>
     </g>
    </g>
    <g id="xtick_22">
     <g id="line2d_30">
      <g>
       <use style="fill:#262626;stroke:#262626;stroke-width:0.5;" x="360.917518" xlink:href="#m4bc5b5a705" y="512.64"/>
      </g>
     </g>
    </g>
    <g id="xtick_23">
     <g id="line2d_31">
      <g>
       <use style="fill:#262626;stroke:#262626;stroke-width:0.5;" x="373.196171" xlink:href="#m4bc5b5a705" y="512.64"/>
      </g>
     </g>
    </g>
    <g id="xtick_24">
     <g id="line2d_32">
      <g>
       <use style="fill:#262626;stroke:#262626;stroke-width:0.5;" x="383.832423" xlink:href="#m4bc5b5a705" y="512.64"/>
      </g>
     </g>
    </g>
    <g id="xtick_25">
     <g id="line2d_33">
      <g>
       <use style="fill:#262626;stroke:#262626;stroke-width:0.5;" x="393.214262" xlink:href="#m4bc5b5a705" y="512.64"/>
      </g>
     </g>
    </g>
    <g id="xtick_26">
     <g id="line2d_34">
      <g>
       <use style="fill:#262626;stroke:#262626;stroke-width:0.5;" x="456.818252" xlink:href="#m4bc5b5a705" y="512.64"/>
      </g>
     </g>
    </g>
    <g id="xtick_27">
     <g id="line2d_35">
      <g>
       <use style="fill:#262626;stroke:#262626;stroke-width:0.5;" x="489.114996" xlink:href="#m4bc5b5a705" y="512.64"/>
      </g>
     </g>
    </g>
    <g id="xtick_28">
     <g id="line2d_36">
      <g>
       <use style="fill:#262626;stroke:#262626;stroke-width:0.5;" x="512.029901" xlink:href="#m4bc5b5a705" y="512.64"/>
      </g>
     </g>
    </g>
    <g id="xtick_29">
     <g id="line2d_37">
      <g>
       <use style="fill:#262626;stroke:#262626;stroke-width:0.5;" x="529.804081" xlink:href="#m4bc5b5a705" y="512.64"/>
      </g>
     </g>
    </g>
    <g id="xtick_30">
     <g id="line2d_38">
      <g>
       <use style="fill:#262626;stroke:#262626;stroke-width:0.5;" x="544.326645" xlink:href="#m4bc5b5a705" y="512.64"/>
      </g>
     </g>
    </g>
    <g id="xtick_31">
     <g id="line2d_39">
      <g>
       <use style="fill:#262626;stroke:#262626;stroke-width:0.5;" x="556.605297" xlink:href="#m4bc5b5a705" y="512.64"/>
      </g>
     </g>
    </g>
    <g id="xtick_32">
     <g id="line2d_40">
      <g>
       <use style="fill:#262626;stroke:#262626;stroke-width:0.5;" x="567.241549" xlink:href="#m4bc5b5a705" y="512.64"/>
      </g>
     </g>
    </g>
    <g id="xtick_33">
     <g id="line2d_41">
      <g>
       <use style="fill:#262626;stroke:#262626;stroke-width:0.5;" x="576.623389" xlink:href="#m4bc5b5a705" y="512.64"/>
      </g>
     </g>
    </g>
    <g id="xtick_34">
     <g id="line2d_42">
      <g>
       <use style="fill:#262626;stroke:#262626;stroke-width:0.5;" x="640.227378" xlink:href="#m4bc5b5a705" y="512.64"/>
      </g>
     </g>
    </g>
   </g>
   <g id="matplotlib.axis_4">
    <g id="ytick_8">
     <g id="line2d_43">
      <g>
       <use style="fill:#262626;stroke:#262626;" x="90" xlink:href="#m16e464d7c1" y="512.64"/>
      </g>
     </g>
     <g id="text_17">
      <!-- $\mathdefault{10^{-5}}$ -->
      <defs>
       <path d="M 4.15625 18.75 
L 13.375 19.53125 
Q 14.40625 12.796875 18.140625 9.390625 
Q 21.875 6 27.15625 6 
Q 33.5 6 37.890625 10.78125 
Q 42.28125 15.578125 42.28125 23.484375 
Q 42.28125 31 38.0625 35.34375 
Q 33.84375 39.703125 27 39.703125 
Q 22.75 39.703125 19.328125 37.765625 
Q 15.921875 35.84375 13.96875 32.765625 
L 5.71875 33.84375 
L 12.640625 70.609375 
L 48.25 70.609375 
L 48.25 62.203125 
L 19.671875 62.203125 
L 15.828125 42.96875 
Q 22.265625 47.46875 29.34375 47.46875 
Q 38.71875 47.46875 45.15625 40.96875 
Q 51.609375 34.46875 51.609375 24.265625 
Q 51.609375 14.546875 45.953125 7.46875 
Q 39.0625 -1.21875 27.15625 -1.21875 
Q 17.390625 -1.21875 11.203125 4.25 
Q 5.03125 9.71875 4.15625 18.75 
z
" id="ArialMT-35"/>
      </defs>
      <g style="fill:#262626;" transform="translate(57.2 517.74625)scale(0.1 -0.1)">
       <use transform="translate(0 0.879688)" xlink:href="#ArialMT-31"/>
       <use transform="translate(55.615234 0.879688)" xlink:href="#ArialMT-30"/>
       <use transform="translate(112.972813 70.573438)scale(0.7)" xlink:href="#ArialMT-2212"/>
       <use transform="translate(153.851719 70.573438)scale(0.7)" xlink:href="#ArialMT-35"/>
      </g>
     </g>
    </g>
    <g id="ytick_9">
     <g id="line2d_44">
      <g>
       <use style="fill:#262626;stroke:#262626;" x="90" xlink:href="#m16e464d7c1" y="465.767507"/>
      </g>
     </g>
     <g id="text_18">
      <!-- $\mathdefault{10^{-4}}$ -->
      <g style="fill:#262626;" transform="translate(57.2 470.873757)scale(0.1 -0.1)">
       <use transform="translate(0 0.201563)" xlink:href="#ArialMT-31"/>
       <use transform="translate(55.615234 0.201563)" xlink:href="#ArialMT-30"/>
       <use transform="translate(112.972813 69.895313)scale(0.7)" xlink:href="#ArialMT-2212"/>
       <use transform="translate(153.851719 69.895313)scale(0.7)" xlink:href="#ArialMT-34"/>
      </g>
     </g>
    </g>
    <g id="ytick_10">
     <g id="line2d_45">
      <g>
       <use style="fill:#262626;stroke:#262626;" x="90" xlink:href="#m16e464d7c1" y="418.895013"/>
      </g>
     </g>
     <g id="text_19">
      <!-- $\mathdefault{10^{-3}}$ -->
      <g style="fill:#262626;" transform="translate(57.2 424.051263)scale(0.1 -0.1)">
       <use transform="translate(0 0.99375)" xlink:href="#ArialMT-31"/>
       <use transform="translate(55.615234 0.99375)" xlink:href="#ArialMT-30"/>
       <use transform="translate(112.972813 70.6875)scale(0.7)" xlink:href="#ArialMT-2212"/>
       <use transform="translate(153.851719 70.6875)scale(0.7)" xlink:href="#ArialMT-33"/>
      </g>
     </g>
    </g>
    <g id="ytick_11">
     <g id="line2d_46">
      <g>
       <use style="fill:#262626;stroke:#262626;" x="90" xlink:href="#m16e464d7c1" y="372.02252"/>
      </g>
     </g>
     <g id="text_20">
      <!-- $\mathdefault{10^{-2}}$ -->
      <g style="fill:#262626;" transform="translate(57.2 377.17877)scale(0.1 -0.1)">
       <use transform="translate(0 0.99375)" xlink:href="#ArialMT-31"/>
       <use transform="translate(55.615234 0.99375)" xlink:href="#ArialMT-30"/>
       <use transform="translate(112.972813 70.6875)scale(0.7)" xlink:href="#ArialMT-2212"/>
       <use transform="translate(153.851719 70.6875)scale(0.7)" xlink:href="#ArialMT-32"/>
      </g>
     </g>
    </g>
    <g id="ytick_12">
     <g id="line2d_47">
      <g>
       <use style="fill:#262626;stroke:#262626;" x="90" xlink:href="#m16e464d7c1" y="325.150026"/>
      </g>
     </g>
     <g id="text_21">
      <!-- $\mathdefault{10^{-1}}$ -->
      <g style="fill:#262626;" transform="translate(57.2 330.306276)scale(0.1 -0.1)">
       <use transform="translate(0 0.99375)" xlink:href="#ArialMT-31"/>
       <use transform="translate(55.615234 0.99375)" xlink:href="#ArialMT-30"/>
       <use transform="translate(112.972813 70.6875)scale(0.7)" xlink:href="#ArialMT-2212"/>
       <use transform="translate(153.851719 70.6875)scale(0.7)" xlink:href="#ArialMT-31"/>
      </g>
     </g>
    </g>
    <g id="ytick_13">
     <g id="line2d_48">
      <defs>
       <path d="M 0 0 
L -3 0 
" id="md0ed5896df" style="stroke:#262626;stroke-width:0.5;"/>
      </defs>
      <g>
       <use style="fill:#262626;stroke:#262626;stroke-width:0.5;" x="90" xlink:href="#md0ed5896df" y="498.529974"/>
      </g>
     </g>
    </g>
    <g id="ytick_14">
     <g id="line2d_49">
      <g>
       <use style="fill:#262626;stroke:#262626;stroke-width:0.5;" x="90" xlink:href="#md0ed5896df" y="490.276137"/>
      </g>
     </g>
    </g>
    <g id="ytick_15">
     <g id="line2d_50">
      <g>
       <use style="fill:#262626;stroke:#262626;stroke-width:0.5;" x="90" xlink:href="#md0ed5896df" y="484.419947"/>
      </g>
     </g>
    </g>
    <g id="ytick_16">
     <g id="line2d_51">
      <g>
       <use style="fill:#262626;stroke:#262626;stroke-width:0.5;" x="90" xlink:href="#md0ed5896df" y="479.877533"/>
      </g>
     </g>
    </g>
    <g id="ytick_17">
     <g id="line2d_52">
      <g>
       <use style="fill:#262626;stroke:#262626;stroke-width:0.5;" x="90" xlink:href="#md0ed5896df" y="476.166111"/>
      </g>
     </g>
    </g>
    <g id="ytick_18">
     <g id="line2d_53">
      <g>
       <use style="fill:#262626;stroke:#262626;stroke-width:0.5;" x="90" xlink:href="#md0ed5896df" y="473.028148"/>
      </g>
     </g>
    </g>
    <g id="ytick_19">
     <g id="line2d_54">
      <g>
       <use style="fill:#262626;stroke:#262626;stroke-width:0.5;" x="90" xlink:href="#md0ed5896df" y="470.309921"/>
      </g>
     </g>
    </g>
    <g id="ytick_20">
     <g id="line2d_55">
      <g>
       <use style="fill:#262626;stroke:#262626;stroke-width:0.5;" x="90" xlink:href="#md0ed5896df" y="467.912274"/>
      </g>
     </g>
    </g>
    <g id="ytick_21">
     <g id="line2d_56">
      <g>
       <use style="fill:#262626;stroke:#262626;stroke-width:0.5;" x="90" xlink:href="#md0ed5896df" y="451.65748"/>
      </g>
     </g>
    </g>
    <g id="ytick_22">
     <g id="line2d_57">
      <g>
       <use style="fill:#262626;stroke:#262626;stroke-width:0.5;" x="90" xlink:href="#md0ed5896df" y="443.403644"/>
      </g>
     </g>
    </g>
    <g id="ytick_23">
     <g id="line2d_58">
      <g>
       <use style="fill:#262626;stroke:#262626;stroke-width:0.5;" x="90" xlink:href="#md0ed5896df" y="437.547454"/>
      </g>
     </g>
    </g>
    <g id="ytick_24">
     <g id="line2d_59">
      <g>
       <use style="fill:#262626;stroke:#262626;stroke-width:0.5;" x="90" xlink:href="#md0ed5896df" y="433.00504"/>
      </g>
     </g>
    </g>
    <g id="ytick_25">
     <g id="line2d_60">
      <g>
       <use style="fill:#262626;stroke:#262626;stroke-width:0.5;" x="90" xlink:href="#md0ed5896df" y="429.293617"/>
      </g>
     </g>
    </g>
    <g id="ytick_26">
     <g id="line2d_61">
      <g>
       <use style="fill:#262626;stroke:#262626;stroke-width:0.5;" x="90" xlink:href="#md0ed5896df" y="426.155654"/>
      </g>
     </g>
    </g>
    <g id="ytick_27">
     <g id="line2d_62">
      <g>
       <use style="fill:#262626;stroke:#262626;stroke-width:0.5;" x="90" xlink:href="#md0ed5896df" y="423.437427"/>
      </g>
     </g>
    </g>
    <g id="ytick_28">
     <g id="line2d_63">
      <g>
       <use style="fill:#262626;stroke:#262626;stroke-width:0.5;" x="90" xlink:href="#md0ed5896df" y="421.039781"/>
      </g>
     </g>
    </g>
    <g id="ytick_29">
     <g id="line2d_64">
      <g>
       <use style="fill:#262626;stroke:#262626;stroke-width:0.5;" x="90" xlink:href="#md0ed5896df" y="404.784987"/>
      </g>
     </g>
    </g>
    <g id="ytick_30">
     <g id="line2d_65">
      <g>
       <use style="fill:#262626;stroke:#262626;stroke-width:0.5;" x="90" xlink:href="#md0ed5896df" y="396.53115"/>
      </g>
     </g>
    </g>
    <g id="ytick_31">
     <g id="line2d_66">
      <g>
       <use style="fill:#262626;stroke:#262626;stroke-width:0.5;" x="90" xlink:href="#md0ed5896df" y="390.67496"/>
      </g>
     </g>
    </g>
    <g id="ytick_32">
     <g id="line2d_67">
      <g>
       <use style="fill:#262626;stroke:#262626;stroke-width:0.5;" x="90" xlink:href="#md0ed5896df" y="386.132546"/>
      </g>
     </g>
    </g>
    <g id="ytick_33">
     <g id="line2d_68">
      <g>
       <use style="fill:#262626;stroke:#262626;stroke-width:0.5;" x="90" xlink:href="#md0ed5896df" y="382.421124"/>
      </g>
     </g>
    </g>
    <g id="ytick_34">
     <g id="line2d_69">
      <g>
       <use style="fill:#262626;stroke:#262626;stroke-width:0.5;" x="90" xlink:href="#md0ed5896df" y="379.283161"/>
      </g>
     </g>
    </g>
    <g id="ytick_35">
     <g id="line2d_70">
      <g>
       <use style="fill:#262626;stroke:#262626;stroke-width:0.5;" x="90" xlink:href="#md0ed5896df" y="376.564934"/>
      </g>
     </g>
    </g>
    <g id="ytick_36">
     <g id="line2d_71">
      <g>
       <use style="fill:#262626;stroke:#262626;stroke-width:0.5;" x="90" xlink:href="#md0ed5896df" y="374.167288"/>
      </g>
     </g>
    </g>
    <g id="ytick_37">
     <g id="line2d_72">
      <g>
       <use style="fill:#262626;stroke:#262626;stroke-width:0.5;" x="90" xlink:href="#md0ed5896df" y="357.912493"/>
      </g>
     </g>
    </g>
    <g id="ytick_38">
     <g id="line2d_73">
      <g>
       <use style="fill:#262626;stroke:#262626;stroke-width:0.5;" x="90" xlink:href="#md0ed5896df" y="349.658657"/>
      </g>
     </g>
    </g>
    <g id="ytick_39">
     <g id="line2d_74">
      <g>
       <use style="fill:#262626;stroke:#262626;stroke-width:0.5;" x="90" xlink:href="#md0ed5896df" y="343.802467"/>
      </g>
     </g>
    </g>
    <g id="ytick_40">
     <g id="line2d_75">
      <g>
       <use style="fill:#262626;stroke:#262626;stroke-width:0.5;" x="90" xlink:href="#md0ed5896df" y="339.260053"/>
      </g>
     </g>
    </g>
    <g id="ytick_41">
     <g id="line2d_76">
      <g>
       <use style="fill:#262626;stroke:#262626;stroke-width:0.5;" x="90" xlink:href="#md0ed5896df" y="335.548631"/>
      </g>
     </g>
    </g>
    <g id="ytick_42">
     <g id="line2d_77">
      <g>
       <use style="fill:#262626;stroke:#262626;stroke-width:0.5;" x="90" xlink:href="#md0ed5896df" y="332.410668"/>
      </g>
     </g>
    </g>
    <g id="ytick_43">
     <g id="line2d_78">
      <g>
       <use style="fill:#262626;stroke:#262626;stroke-width:0.5;" x="90" xlink:href="#md0ed5896df" y="329.69244"/>
      </g>
     </g>
    </g>
    <g id="ytick_44">
     <g id="line2d_79">
      <g>
       <use style="fill:#262626;stroke:#262626;stroke-width:0.5;" x="90" xlink:href="#md0ed5896df" y="327.294794"/>
      </g>
     </g>
    </g>
    <g id="ytick_45">
     <g id="line2d_80">
      <g>
       <use style="fill:#262626;stroke:#262626;stroke-width:0.5;" x="90" xlink:href="#md0ed5896df" y="311.04"/>
      </g>
     </g>
    </g>
   </g>
   <g id="line2d_81">
    <path clip-path="url(#pfd5a870626)" d="M -1 362.731761 
L 151.095164 362.719064 
L 206.306812 416.973736 
L 238.603556 398.401975 
L 261.518461 393.079076 
L 279.292642 382.552395 
L 293.815205 323.858958 
L 306.093857 380.617715 
L 316.730109 391.106368 
L 326.111949 398.206454 
L 334.50429 405.463278 
L 342.096086 404.779067 
L 349.026853 385.743671 
L 355.402541 410.392235 
L 361.305505 412.500601 
L 366.801034 410.762548 
L 371.941758 411.159591 
L 376.770725 403.934677 
L 381.323597 361.179133 
L 385.630245 396.451698 
L 389.715939 410.485669 
L 393.602249 413.792085 
L 397.307735 412.8269 
L 400.848476 403.684174 
L 404.238502 364.876937 
L 407.490119 396.995634 
L 410.614189 414.303966 
L 413.620341 423.318705 
L 416.517154 426.945224 
L 419.312303 418.713845 
L 422.012683 384.887638 
L 424.624509 391.278873 
L 427.153406 401.376928 
L 429.604479 403.133535 
L 431.982374 400.568036 
L 434.291335 393.438669 
L 436.535246 374.236435 
L 438.717672 377.099522 
L 440.841893 401.156341 
L 442.910933 415.802305 
L 444.927587 422.332744 
L 446.894442 426.354995 
L 448.813898 416.27405 
L 450.688186 384.226419 
L 452.519383 411.364035 
L 454.309426 420.062012 
L 456.060125 422.256695 
L 457.773171 429.598569 
L 459.45015 431.402577 
L 461.09255 422.124961 
L 462.701768 431.829912 
L 464.279118 431.523003 
L 465.825838 430.051634 
L 467.343094 425.254228 
L 468.83199 421.55449 
L 470.293564 398.905618 
L 471.728802 418.231834 
L 473.138637 440.110193 
L 474.523951 450.293694 
L 475.885584 446.183948 
L 477.224331 436.490412 
L 478.540949 419.849705 
L 479.836157 414.45764 
L 481.110642 443.575216 
L 482.365055 446.583645 
L 483.600019 444.918041 
L 484.816127 446.604667 
L 486.013948 441.377834 
L 487.194022 406.626971 
L 488.356869 440.184217 
L 490.63284 432.323854 
L 491.746894 425.403306 
L 492.845581 416.432017 
L 493.92932 393.573494 
L 494.998512 397.606756 
L 496.053541 420.835532 
L 497.094779 433.501983 
L 498.122582 440.411247 
L 499.137291 442.953845 
L 500.139235 454.609298 
L 501.128734 397.674065 
L 502.10609 445.161882 
L 503.0716 449.102112 
L 504.025546 446.898646 
L 504.968203 434.094233 
L 505.899834 461.386239 
L 506.820695 458.896034 
L 507.731032 430.757328 
L 508.631082 445.975303 
L 509.521075 442.114165 
L 510.401234 420.659248 
L 511.271773 416.530071 
L 512.132901 437.274288 
L 512.984819 423.018872 
L 513.827722 421.402668 
L 514.661799 444.509667 
L 516.304198 464.012734 
L 517.112871 462.200231 
L 517.913416 455.314185 
L 518.705996 431.084926 
L 519.490766 437.230475 
L 520.26788 452.46987 
L 521.037486 443.413069 
L 521.799727 466.614297 
L 522.554743 464.422163 
L 523.302669 450.141813 
L 524.043638 422.659561 
L 524.777778 436.683835 
L 525.505212 456.723606 
L 526.226064 460.258142 
L 527.648487 474.195822 
L 528.350285 518.064699 
L 529.045954 450.151331 
L 529.7356 452.571704 
L 530.419326 470.95787 
L 531.097232 476.720254 
L 531.769418 472.856711 
L 532.435979 474.025655 
L 533.097009 465.350197 
L 533.752597 439.688321 
L 534.402834 436.385471 
L 535.047806 452.322302 
L 535.687597 464.064291 
L 536.32229 466.577448 
L 536.951966 466.247084 
L 537.576703 460.564913 
L 538.196578 456.441095 
L 538.811667 440.668031 
L 539.422042 479.015451 
L 540.027776 483.705911 
L 540.628938 476.302666 
L 541.225596 476.098817 
L 541.817819 470.494583 
L 542.405671 491.152995 
L 542.989216 455.165217 
L 543.568517 465.543002 
L 544.143636 473.076416 
L 544.714632 471.623759 
L 545.281563 481.38541 
L 545.844488 480.845478 
L 546.403463 483.995703 
L 546.958543 481.042406 
L 547.509781 457.845922 
L 548.05723 487.931385 
L 548.600942 476.958956 
L 549.140969 488.22612 
L 549.677358 485.057373 
L 550.21016 485.993422 
L 550.739422 481.110971 
L 551.26519 464.203359 
L 551.78751 454.695955 
L 552.306428 483.425068 
L 552.821987 476.585283 
L 553.33423 475.190016 
L 553.8432 482.949395 
L 554.348939 474.224287 
L 554.851487 483.45896 
L 555.350884 483.779677 
L 555.847169 477.30162 
L 556.340382 494.105283 
L 556.830559 478.94092 
L 557.317739 478.416424 
L 557.801956 491.079854 
L 558.283248 483.014152 
L 558.76165 491.128484 
L 559.237195 477.738652 
L 559.709918 481.01807 
L 560.179852 486.59666 
L 560.647029 483.271292 
L 561.111483 491.377128 
L 561.573244 495.926134 
L 562.032344 491.940663 
L 562.488812 465.15633 
L 562.94268 453.849363 
L 563.393976 464.509247 
L 563.84273 470.855223 
L 564.732723 474.855898 
L 565.174019 472.33567 
L 565.612882 484.754574 
L 566.049341 479.927419 
L 566.483422 476.715448 
L 566.91515 490.92576 
L 567.771648 477.953107 
L 568.196468 478.320063 
L 568.619034 481.618962 
L 569.039371 477.052515 
L 569.457501 483.022966 
L 569.873447 490.801179 
L 570.287233 483.995703 
L 570.69888 482.601469 
L 571.108411 497.737244 
L 571.921209 477.750011 
L 572.725798 490.129216 
L 573.125065 481.131136 
L 573.52234 485.503675 
L 573.917644 477.199909 
L 574.310996 493.133987 
L 574.702415 501.182864 
L 575.091919 480.985352 
L 575.479529 486.139152 
L 575.865261 481.077131 
L 576.249135 479.271114 
L 576.631167 479.799496 
L 577.011376 474.66206 
L 577.389778 483.746076 
L 577.766391 484.332761 
L 578.141232 488.037644 
L 578.514318 493.773145 
L 578.885664 483.776178 
L 579.255287 484.588964 
L 579.623202 480.523646 
L 579.989426 486.207926 
L 580.353974 498.061272 
L 580.716861 491.759601 
L 581.078102 488.343147 
L 581.437713 491.936122 
L 581.795707 480.225848 
L 582.152099 482.63757 
L 582.506904 500.38132 
L 582.860136 490.654821 
L 583.211808 484.24545 
L 583.561934 480.084982 
L 583.910528 486.80577 
L 584.603172 487.719908 
L 584.947248 508.566164 
L 585.289845 485.227219 
L 585.970649 505.216348 
L 586.308881 488.784306 
L 586.645683 483.564074 
L 586.981067 486.861194 
L 587.315045 480.766033 
L 587.647628 480.471855 
L 587.978828 480.644065 
L 588.308657 494.564983 
L 588.637126 482.06213 
L 588.964246 498.385193 
L 589.290028 486.836917 
L 589.614483 489.549946 
L 589.937621 490.226679 
L 590.259454 486.618738 
L 590.579992 481.653648 
L 590.899246 480.109871 
L 591.217224 506.491003 
L 591.533939 482.809018 
L 591.849399 482.431755 
L 592.163614 492.530133 
L 592.476596 492.789556 
L 592.788352 479.339114 
L 593.408227 492.218449 
L 593.716365 488.926332 
L 594.329088 495.651464 
L 594.633691 484.329698 
L 594.937133 499.355604 
L 595.239424 484.796828 
L 595.540572 477.153093 
L 595.840586 487.313917 
L 596.139474 482.284629 
L 596.437245 480.934467 
L 596.733906 483.30277 
L 597.029467 491.183197 
L 597.323936 502.4709 
L 597.617319 501.530744 
L 597.909626 480.752164 
L 598.200864 485.118918 
L 598.491042 493.080034 
L 598.780166 485.904074 
L 599.068244 502.558933 
L 599.355284 486.834454 
L 599.641294 489.592457 
L 599.92628 478.553377 
L 600.493212 501.399041 
L 601.056137 476.893598 
L 601.336115 481.888252 
L 601.893135 506.051637 
L 602.170191 487.873022 
L 602.446287 486.701799 
L 602.721429 495.839084 
L 602.995624 482.916233 
L 603.541199 515.577085 
L 603.812591 485.566758 
L 604.083062 496.170167 
L 604.352617 488.855478 
L 604.621264 502.494054 
L 604.889007 489.920425 
L 605.155853 493.236608 
L 605.421809 515.421501 
L 605.686879 491.350259 
L 605.95107 496.030179 
L 606.214388 519.188482 
L 606.476838 487.519628 
L 606.738427 485.821655 
L 606.999159 494.788148 
L 607.25904 481.202379 
L 607.518076 481.552214 
L 607.776273 477.580439 
L 608.033635 508.464701 
L 608.290169 503.891777 
L 608.545879 490.395998 
L 608.80077 490.726875 
L 609.560587 501.068312 
L 609.812258 487.273153 
L 610.063135 483.422773 
L 610.313225 487.220351 
L 610.562532 481.889644 
L 610.811062 486.514549 
L 611.058818 498.080656 
L 611.55203 492.337583 
L 612.042208 495.640343 
L 612.529387 485.852865 
L 612.771864 486.562585 
L 613.013605 504.873616 
L 613.254614 483.539532 
L 613.494897 485.822433 
L 613.734457 489.184169 
L 614.211426 500.741416 
L 614.448843 488.188832 
L 614.685555 486.852618 
L 614.921566 482.293305 
L 615.15688 508.604693 
L 615.3915 481.293807 
L 615.625431 480.233678 
L 615.858678 536.706155 
L 616.091243 483.760972 
L 616.323131 483.656621 
L 616.554347 490.512297 
L 616.784892 488.177375 
L 617.014773 510.95 
L 617.243992 492.371672 
L 617.472553 533.255123 
L 617.700461 489.943839 
L 617.927718 496.134217 
L 618.154329 494.255329 
L 618.380296 515.091594 
L 618.605625 483.005045 
L 618.830318 491.890467 
L 619.277811 484.967777 
L 619.500618 492.390751 
L 619.722804 491.288748 
L 619.944372 495.21788 
L 620.165325 519.771365 
L 620.385667 489.970063 
L 620.605401 528.870468 
L 620.824531 485.254745 
L 621.043059 486.253884 
L 621.26099 482.500148 
L 621.478326 506.223731 
L 621.911227 480.914429 
L 622.126798 477.99584 
L 622.341787 485.915233 
L 622.556198 477.998582 
L 622.770034 504.984491 
L 623.195989 499.020147 
L 623.408116 483.2419 
L 623.61968 493.412361 
L 623.830683 476.912208 
L 624.041128 478.514859 
L 624.460358 492.310649 
L 624.669149 485.161166 
L 624.877394 499.395325 
L 625.085096 487.952496 
L 625.292257 510.315305 
L 625.498881 488.776856 
L 625.704971 480.145754 
L 626.320059 496.95031 
L 626.727495 487.826288 
L 626.930435 499.711507 
L 627.132858 494.160537 
L 627.334768 506.325178 
L 627.536168 484.984891 
L 627.73706 502.547632 
L 627.937446 470.92698 
L 628.13733 498.289839 
L 628.336713 494.075814 
L 628.535599 486.296557 
L 628.733989 510.652567 
L 628.931886 481.07163 
L 629.129293 487.498984 
L 629.522644 513.753899 
L 629.718594 495.670523 
L 629.914063 495.932921 
L 630.109054 490.049393 
L 630.303568 492.467106 
L 630.691177 482.785613 
L 630.884277 491.837917 
L 631.07691 486.279589 
L 631.269078 506.411132 
L 631.460783 499.482708 
L 631.652028 484.976833 
L 631.842815 502.196661 
L 632.223024 490.685193 
L 632.41245 498.498589 
L 632.601426 494.30055 
L 632.789956 483.267597 
L 633.165681 497.631722 
L 633.352881 483.748524 
L 633.725966 489.358432 
L 633.911856 500.430256 
L 634.097312 500.457321 
L 634.282338 481.572308 
L 634.651105 517.299024 
L 634.83485 496.72338 
L 635.018173 499.867998 
L 635.201074 499.181765 
L 635.565622 481.575294 
L 635.928509 500.715328 
L 636.109335 481.64748 
L 636.289751 490.279805 
L 636.469759 485.556633 
L 636.828559 483.441653 
L 637.007355 504.094001 
L 637.363748 486.297739 
L 637.541348 536.015504 
L 637.718553 474.747811 
L 637.895364 480.508711 
L 638.071784 491.278467 
L 638.247814 481.741489 
L 638.423456 493.681869 
L 638.598712 485.569423 
L 638.773582 496.607498 
L 638.94807 492.808422 
L 639.122176 499.534041 
L 639.295903 493.663503 
L 639.469251 492.155164 
L 639.642223 505.799853 
L 639.81482 510.619569 
L 639.987044 479.134373 
L 640.158897 537.330238 
L 640.330379 482.961929 
L 640.501493 493.74059 
L 640.67224 493.42962 
L 640.842622 477.676996 
L 641.012641 488.391488 
L 641.182297 482.121817 
L 641.351593 495.382648 
L 641.520529 495.77675 
L 641.689108 490.100276 
L 641.857331 503.696703 
L 642.0252 499.154902 
L 642.192715 490.028543 
L 642.359879 527.681876 
L 642.526693 490.662682 
L 642.693158 499.532658 
L 642.859276 491.867356 
L 643.025049 517.870988 
L 643.355562 503.663047 
L 643.520306 500.483517 
L 643.684709 485.640513 
L 643.848774 498.25935 
L 644.012502 484.413195 
L 644.338952 493.162012 
L 644.501676 487.267496 
L 644.664069 487.992556 
L 644.826131 489.618162 
L 644.987864 488.964759 
L 645.310349 517.802827 
L 645.631533 482.789769 
L 645.791641 502.356611 
L 645.951427 488.913061 
L 646.110894 495.472981 
L 646.270042 494.208509 
L 646.428873 485.012739 
L 646.903473 509.495329 
L 647.061047 496.924541 
L 647.21831 500.7542 
L 647.531907 487.906439 
L 647.844274 507.711914 
L 647.844274 507.711914 
" style="fill:none;stroke:#b22222;stroke-linecap:round;stroke-width:1.75;"/>
   </g>
   <g id="patch_6">
    <path d="M 90 512.64 
L 90 311.04 
" style="fill:none;stroke:#262626;stroke-linecap:square;stroke-linejoin:miter;stroke-width:1.25;"/>
   </g>
   <g id="patch_7">
    <path d="M 90 512.64 
L 648 512.64 
" style="fill:none;stroke:#262626;stroke-linecap:square;stroke-linejoin:miter;stroke-width:1.25;"/>
   </g>
  </g>
 </g>
 <defs>
  <clipPath id="paee3f816a2">
   <rect height="201.6" width="558" x="90" y="69.12"/>
  </clipPath>
  <clipPath id="pfd5a870626">
   <rect height="201.6" width="558" x="90" y="311.04"/>
  </clipPath>
 </defs>
</svg>
