<?xml version="1.0" encoding="utf-8" standalone="no"?>
<!DOCTYPE svg PUBLIC "-//W3C//DTD SVG 1.1//EN"
  "http://www.w3.org/Graphics/SVG/1.1/DTD/svg11.dtd">
<!-- Created with matplotlib (http://matplotlib.org/) -->
<svg height="576pt" version="1.1" viewBox="0 0 720 576" width="720pt" xmlns="http://www.w3.org/2000/svg" xmlns:xlink="http://www.w3.org/1999/xlink">
 <defs>
  <style type="text/css">
*{stroke-linecap:butt;stroke-linejoin:round;}
  </style>
 </defs>
 <g id="figure_1">
  <g id="patch_1">
   <path d="M 0 576 
L 720 576 
L 720 0 
L 0 0 
z
" style="fill:#ffffff;"/>
  </g>
  <g id="axes_1">
   <g id="patch_2">
    <path d="M 90 270.72 
L 648 270.72 
L 648 69.12 
L 90 69.12 
z
" style="fill:#ffffff;"/>
   </g>
   <g id="matplotlib.axis_1">
    <g id="xtick_1">
     <g id="line2d_1">
      <defs>
       <path d="M 0 0 
L 0 6 
" id="m162b106b0b" style="stroke:#262626;"/>
      </defs>
      <g>
       <use style="fill:#262626;stroke:#262626;" x="90" xlink:href="#m162b106b0b" y="270.72"/>
      </g>
     </g>
     <g id="text_1">
      <!-- 0 -->
      <defs>
       <path d="M 4.15625 35.296875 
Q 4.15625 48 6.765625 55.734375 
Q 9.375 63.484375 14.515625 67.671875 
Q 19.671875 71.875 27.484375 71.875 
Q 33.25 71.875 37.59375 69.546875 
Q 41.9375 67.234375 44.765625 62.859375 
Q 47.609375 58.5 49.21875 52.21875 
Q 50.828125 45.953125 50.828125 35.296875 
Q 50.828125 22.703125 48.234375 14.96875 
Q 45.65625 7.234375 40.5 3 
Q 35.359375 -1.21875 27.484375 -1.21875 
Q 17.140625 -1.21875 11.234375 6.203125 
Q 4.15625 15.140625 4.15625 35.296875 
z
M 13.1875 35.296875 
Q 13.1875 17.671875 17.3125 11.828125 
Q 21.4375 6 27.484375 6 
Q 33.546875 6 37.671875 11.859375 
Q 41.796875 17.71875 41.796875 35.296875 
Q 41.796875 52.984375 37.671875 58.78125 
Q 33.546875 64.59375 27.390625 64.59375 
Q 21.34375 64.59375 17.71875 59.46875 
Q 13.1875 52.9375 13.1875 35.296875 
z
" id="ArialMT-30"/>
      </defs>
      <g style="fill:#262626;" transform="translate(87.219531 290.877812)scale(0.1 -0.1)">
       <use xlink:href="#ArialMT-30"/>
      </g>
     </g>
    </g>
    <g id="xtick_2">
     <g id="line2d_2">
      <g>
       <use style="fill:#262626;stroke:#262626;" x="198.984375" xlink:href="#m162b106b0b" y="270.72"/>
      </g>
     </g>
     <g id="text_2">
      <!-- 200 -->
      <defs>
       <path d="M 50.34375 8.453125 
L 50.34375 0 
L 3.03125 0 
Q 2.9375 3.171875 4.046875 6.109375 
Q 5.859375 10.9375 9.828125 15.625 
Q 13.8125 20.3125 21.34375 26.46875 
Q 33.015625 36.03125 37.109375 41.625 
Q 41.21875 47.21875 41.21875 52.203125 
Q 41.21875 57.421875 37.46875 61 
Q 33.734375 64.59375 27.734375 64.59375 
Q 21.390625 64.59375 17.578125 60.78125 
Q 13.765625 56.984375 13.71875 50.25 
L 4.6875 51.171875 
Q 5.609375 61.28125 11.65625 66.578125 
Q 17.71875 71.875 27.9375 71.875 
Q 38.234375 71.875 44.234375 66.15625 
Q 50.25 60.453125 50.25 52 
Q 50.25 47.703125 48.484375 43.546875 
Q 46.734375 39.40625 42.65625 34.8125 
Q 38.578125 30.21875 29.109375 22.21875 
Q 21.1875 15.578125 18.9375 13.203125 
Q 16.703125 10.84375 15.234375 8.453125 
z
" id="ArialMT-32"/>
      </defs>
      <g style="fill:#262626;" transform="translate(190.642969 290.877812)scale(0.1 -0.1)">
       <use xlink:href="#ArialMT-32"/>
       <use x="55.615234" xlink:href="#ArialMT-30"/>
       <use x="111.230469" xlink:href="#ArialMT-30"/>
      </g>
     </g>
    </g>
    <g id="xtick_3">
     <g id="line2d_3">
      <g>
       <use style="fill:#262626;stroke:#262626;" x="307.96875" xlink:href="#m162b106b0b" y="270.72"/>
      </g>
     </g>
     <g id="text_3">
      <!-- 400 -->
      <defs>
       <path d="M 32.328125 0 
L 32.328125 17.140625 
L 1.265625 17.140625 
L 1.265625 25.203125 
L 33.9375 71.578125 
L 41.109375 71.578125 
L 41.109375 25.203125 
L 50.78125 25.203125 
L 50.78125 17.140625 
L 41.109375 17.140625 
L 41.109375 0 
z
M 32.328125 25.203125 
L 32.328125 57.46875 
L 9.90625 25.203125 
z
" id="ArialMT-34"/>
      </defs>
      <g style="fill:#262626;" transform="translate(299.627344 290.877812)scale(0.1 -0.1)">
       <use xlink:href="#ArialMT-34"/>
       <use x="55.615234" xlink:href="#ArialMT-30"/>
       <use x="111.230469" xlink:href="#ArialMT-30"/>
      </g>
     </g>
    </g>
    <g id="xtick_4">
     <g id="line2d_4">
      <g>
       <use style="fill:#262626;stroke:#262626;" x="416.953125" xlink:href="#m162b106b0b" y="270.72"/>
      </g>
     </g>
     <g id="text_4">
      <!-- 600 -->
      <defs>
       <path d="M 49.75 54.046875 
L 41.015625 53.375 
Q 39.84375 58.546875 37.703125 60.890625 
Q 34.125 64.65625 28.90625 64.65625 
Q 24.703125 64.65625 21.53125 62.3125 
Q 17.390625 59.28125 14.984375 53.46875 
Q 12.59375 47.65625 12.5 36.921875 
Q 15.671875 41.75 20.265625 44.09375 
Q 24.859375 46.4375 29.890625 46.4375 
Q 38.671875 46.4375 44.84375 39.96875 
Q 51.03125 33.5 51.03125 23.25 
Q 51.03125 16.5 48.125 10.71875 
Q 45.21875 4.9375 40.140625 1.859375 
Q 35.0625 -1.21875 28.609375 -1.21875 
Q 17.625 -1.21875 10.6875 6.859375 
Q 3.765625 14.9375 3.765625 33.5 
Q 3.765625 54.25 11.421875 63.671875 
Q 18.109375 71.875 29.4375 71.875 
Q 37.890625 71.875 43.28125 67.140625 
Q 48.6875 62.40625 49.75 54.046875 
z
M 13.875 23.1875 
Q 13.875 18.65625 15.796875 14.5 
Q 17.71875 10.359375 21.1875 8.171875 
Q 24.65625 6 28.46875 6 
Q 34.03125 6 38.03125 10.484375 
Q 42.046875 14.984375 42.046875 22.703125 
Q 42.046875 30.125 38.078125 34.390625 
Q 34.125 38.671875 28.125 38.671875 
Q 22.171875 38.671875 18.015625 34.390625 
Q 13.875 30.125 13.875 23.1875 
z
" id="ArialMT-36"/>
      </defs>
      <g style="fill:#262626;" transform="translate(408.611719 290.877812)scale(0.1 -0.1)">
       <use xlink:href="#ArialMT-36"/>
       <use x="55.615234" xlink:href="#ArialMT-30"/>
       <use x="111.230469" xlink:href="#ArialMT-30"/>
      </g>
     </g>
    </g>
    <g id="xtick_5">
     <g id="line2d_5">
      <g>
       <use style="fill:#262626;stroke:#262626;" x="525.9375" xlink:href="#m162b106b0b" y="270.72"/>
      </g>
     </g>
     <g id="text_5">
      <!-- 800 -->
      <defs>
       <path d="M 17.671875 38.8125 
Q 12.203125 40.828125 9.5625 44.53125 
Q 6.9375 48.25 6.9375 53.421875 
Q 6.9375 61.234375 12.546875 66.546875 
Q 18.171875 71.875 27.484375 71.875 
Q 36.859375 71.875 42.578125 66.421875 
Q 48.296875 60.984375 48.296875 53.171875 
Q 48.296875 48.1875 45.671875 44.5 
Q 43.0625 40.828125 37.75 38.8125 
Q 44.34375 36.671875 47.78125 31.875 
Q 51.21875 27.09375 51.21875 20.453125 
Q 51.21875 11.28125 44.71875 5.03125 
Q 38.234375 -1.21875 27.640625 -1.21875 
Q 17.046875 -1.21875 10.546875 5.046875 
Q 4.046875 11.328125 4.046875 20.703125 
Q 4.046875 27.6875 7.59375 32.390625 
Q 11.140625 37.109375 17.671875 38.8125 
z
M 15.921875 53.71875 
Q 15.921875 48.640625 19.1875 45.40625 
Q 22.46875 42.1875 27.6875 42.1875 
Q 32.765625 42.1875 36.015625 45.375 
Q 39.265625 48.578125 39.265625 53.21875 
Q 39.265625 58.0625 35.90625 61.359375 
Q 32.5625 64.65625 27.59375 64.65625 
Q 22.5625 64.65625 19.234375 61.421875 
Q 15.921875 58.203125 15.921875 53.71875 
z
M 13.09375 20.65625 
Q 13.09375 16.890625 14.875 13.375 
Q 16.65625 9.859375 20.171875 7.921875 
Q 23.6875 6 27.734375 6 
Q 34.03125 6 38.125 10.046875 
Q 42.234375 14.109375 42.234375 20.359375 
Q 42.234375 26.703125 38.015625 30.859375 
Q 33.796875 35.015625 27.4375 35.015625 
Q 21.234375 35.015625 17.15625 30.90625 
Q 13.09375 26.8125 13.09375 20.65625 
z
" id="ArialMT-38"/>
      </defs>
      <g style="fill:#262626;" transform="translate(517.596094 290.877812)scale(0.1 -0.1)">
       <use xlink:href="#ArialMT-38"/>
       <use x="55.615234" xlink:href="#ArialMT-30"/>
       <use x="111.230469" xlink:href="#ArialMT-30"/>
      </g>
     </g>
    </g>
    <g id="xtick_6">
     <g id="line2d_6">
      <g>
       <use style="fill:#262626;stroke:#262626;" x="634.921875" xlink:href="#m162b106b0b" y="270.72"/>
      </g>
     </g>
     <g id="text_6">
      <!-- 1000 -->
      <defs>
       <path d="M 37.25 0 
L 28.46875 0 
L 28.46875 56 
Q 25.296875 52.984375 20.140625 49.953125 
Q 14.984375 46.921875 10.890625 45.40625 
L 10.890625 53.90625 
Q 18.265625 57.375 23.78125 62.296875 
Q 29.296875 67.234375 31.59375 71.875 
L 37.25 71.875 
z
" id="ArialMT-31"/>
      </defs>
      <g style="fill:#262626;" transform="translate(623.8 290.877812)scale(0.1 -0.1)">
       <use xlink:href="#ArialMT-31"/>
       <use x="55.615234" xlink:href="#ArialMT-30"/>
       <use x="111.230469" xlink:href="#ArialMT-30"/>
       <use x="166.845703" xlink:href="#ArialMT-30"/>
      </g>
     </g>
    </g>
   </g>
   <g id="matplotlib.axis_2">
    <g id="ytick_1">
     <g id="line2d_7">
      <defs>
       <path d="M 0 0 
L -6 0 
" id="m499f515529" style="stroke:#262626;"/>
      </defs>
      <g>
       <use style="fill:#262626;stroke:#262626;" x="90" xlink:href="#m499f515529" y="270.72"/>
      </g>
     </g>
     <g id="text_7">
      <!-- −0.6 -->
      <defs>
       <path d="M 52.828125 31.203125 
L 5.5625 31.203125 
L 5.5625 39.40625 
L 52.828125 39.40625 
z
" id="ArialMT-2212"/>
       <path d="M 9.078125 0 
L 9.078125 10.015625 
L 19.09375 10.015625 
L 19.09375 0 
z
" id="ArialMT-2e"/>
      </defs>
      <g style="fill:#262626;" transform="translate(57.259375 274.298906)scale(0.1 -0.1)">
       <use xlink:href="#ArialMT-2212"/>
       <use x="58.398438" xlink:href="#ArialMT-30"/>
       <use x="114.013672" xlink:href="#ArialMT-2e"/>
       <use x="141.796875" xlink:href="#ArialMT-36"/>
      </g>
     </g>
    </g>
    <g id="ytick_2">
     <g id="line2d_8">
      <g>
       <use style="fill:#262626;stroke:#262626;" x="90" xlink:href="#m499f515529" y="237.12"/>
      </g>
     </g>
     <g id="text_8">
      <!-- −0.4 -->
      <g style="fill:#262626;" transform="translate(57.259375 240.698906)scale(0.1 -0.1)">
       <use xlink:href="#ArialMT-2212"/>
       <use x="58.398438" xlink:href="#ArialMT-30"/>
       <use x="114.013672" xlink:href="#ArialMT-2e"/>
       <use x="141.796875" xlink:href="#ArialMT-34"/>
      </g>
     </g>
    </g>
    <g id="ytick_3">
     <g id="line2d_9">
      <g>
       <use style="fill:#262626;stroke:#262626;" x="90" xlink:href="#m499f515529" y="203.52"/>
      </g>
     </g>
     <g id="text_9">
      <!-- −0.2 -->
      <g style="fill:#262626;" transform="translate(57.259375 207.098906)scale(0.1 -0.1)">
       <use xlink:href="#ArialMT-2212"/>
       <use x="58.398438" xlink:href="#ArialMT-30"/>
       <use x="114.013672" xlink:href="#ArialMT-2e"/>
       <use x="141.796875" xlink:href="#ArialMT-32"/>
      </g>
     </g>
    </g>
    <g id="ytick_4">
     <g id="line2d_10">
      <g>
       <use style="fill:#262626;stroke:#262626;" x="90" xlink:href="#m499f515529" y="169.92"/>
      </g>
     </g>
     <g id="text_10">
      <!-- 0.0 -->
      <g style="fill:#262626;" transform="translate(63.1 173.498906)scale(0.1 -0.1)">
       <use xlink:href="#ArialMT-30"/>
       <use x="55.615234" xlink:href="#ArialMT-2e"/>
       <use x="83.398438" xlink:href="#ArialMT-30"/>
      </g>
     </g>
    </g>
    <g id="ytick_5">
     <g id="line2d_11">
      <g>
       <use style="fill:#262626;stroke:#262626;" x="90" xlink:href="#m499f515529" y="136.32"/>
      </g>
     </g>
     <g id="text_11">
      <!-- 0.2 -->
      <g style="fill:#262626;" transform="translate(63.1 139.898906)scale(0.1 -0.1)">
       <use xlink:href="#ArialMT-30"/>
       <use x="55.615234" xlink:href="#ArialMT-2e"/>
       <use x="83.398438" xlink:href="#ArialMT-32"/>
      </g>
     </g>
    </g>
    <g id="ytick_6">
     <g id="line2d_12">
      <g>
       <use style="fill:#262626;stroke:#262626;" x="90" xlink:href="#m499f515529" y="102.72"/>
      </g>
     </g>
     <g id="text_12">
      <!-- 0.4 -->
      <g style="fill:#262626;" transform="translate(63.1 106.298906)scale(0.1 -0.1)">
       <use xlink:href="#ArialMT-30"/>
       <use x="55.615234" xlink:href="#ArialMT-2e"/>
       <use x="83.398438" xlink:href="#ArialMT-34"/>
      </g>
     </g>
    </g>
    <g id="ytick_7">
     <g id="line2d_13">
      <g>
       <use style="fill:#262626;stroke:#262626;" x="90" xlink:href="#m499f515529" y="69.12"/>
      </g>
     </g>
     <g id="text_13">
      <!-- 0.6 -->
      <g style="fill:#262626;" transform="translate(63.1 72.698906)scale(0.1 -0.1)">
       <use xlink:href="#ArialMT-30"/>
       <use x="55.615234" xlink:href="#ArialMT-2e"/>
       <use x="83.398438" xlink:href="#ArialMT-36"/>
      </g>
     </g>
    </g>
   </g>
   <g id="line2d_14">
    <path clip-path="url(#p234f914883)" d="M 90 182.429766 
L 90.544922 182.921953 
L 91.089844 183.588457 
L 91.634766 184.008867 
L 92.179688 183.988359 
L 92.724609 183.839678 
L 93.269531 183.326982 
L 93.814453 182.614336 
L 95.994141 177.682207 
L 96.539062 177.277178 
L 97.083984 177.538652 
L 97.628906 178.722979 
L 99.808594 188.817949 
L 100.353516 190.238115 
L 100.898438 190.884111 
L 101.443359 189.802324 
L 101.988281 187.977129 
L 103.078125 181.737627 
L 105.257812 166.925859 
L 107.4375 154.672441 
L 108.527344 149.965898 
L 109.072266 148.284258 
L 109.617188 147.330645 
L 110.162109 147.120439 
L 110.707031 147.299883 
L 111.251953 147.628008 
L 113.431641 152.139727 
L 113.976562 152.601152 
L 114.521484 152.093584 
L 115.066406 151.283525 
L 115.611328 150.201738 
L 116.15625 148.627764 
L 116.701172 147.479326 
L 117.246094 146.653887 
L 117.791016 146.792314 
L 118.335938 147.65877 
L 118.880859 148.873857 
L 119.970703 152.498613 
L 120.515625 154.195635 
L 121.060547 155.41585 
L 122.150391 156.472002 
L 122.695312 156.395098 
L 123.240234 155.620928 
L 123.785156 154.318682 
L 124.875 150.499102 
L 127.054688 140.634844 
L 128.144531 136.302568 
L 129.234375 133.431475 
L 130.324219 132.001055 
L 130.869141 131.601152 
L 132.503906 129.068437 
L 133.59375 126.925371 
L 134.138672 126.222979 
L 134.683594 125.987139 
L 135.228516 126.294756 
L 135.773438 127.484209 
L 136.318359 129.642656 
L 136.863281 132.365068 
L 137.953125 139.609453 
L 140.132812 156.13875 
L 142.3125 170.232744 
L 142.857422 172.216875 
L 143.402344 173.508867 
L 143.947266 173.667803 
L 144.492188 173.247393 
L 145.037109 172.150225 
L 145.582031 170.796709 
L 147.216797 165.685137 
L 147.761719 164.459795 
L 148.851562 164.075273 
L 149.396484 164.73665 
L 149.941406 165.592852 
L 151.576172 169.935381 
L 152.666016 172.093828 
L 153.755859 173.057695 
L 154.300781 173.221758 
L 155.390625 172.760332 
L 156.480469 170.699297 
L 157.570312 168.633135 
L 158.115234 168.340898 
L 158.660156 168.545977 
L 159.205078 169.622637 
L 159.75 171.601641 
L 163.019531 185.808428 
L 164.109375 189.166582 
L 165.744141 195.154863 
L 167.378906 201.245684 
L 167.923828 202.635088 
L 168.46875 203.275957 
L 169.013672 203.609209 
L 170.103516 202.988848 
L 171.193359 201.558428 
L 171.738281 201.343096 
L 172.283203 200.732988 
L 172.828125 200.799639 
L 173.917969 199.63582 
L 174.462891 198.384844 
L 175.552734 194.713945 
L 177.732422 185.60335 
L 178.277344 184.044756 
L 178.822266 182.92708 
L 179.367188 182.839922 
L 179.912109 183.367998 
L 180.457031 184.249834 
L 181.001953 185.644365 
L 181.546875 186.367266 
L 182.091797 186.838945 
L 182.636719 186.249346 
L 183.181641 185.464922 
L 183.726562 183.93709 
L 185.361328 178.256426 
L 185.90625 177.328447 
L 186.451172 176.692705 
L 186.996094 176.595293 
L 187.541016 177.195146 
L 188.085938 178.220537 
L 188.630859 179.866289 
L 191.355469 189.997148 
L 191.900391 190.899492 
L 192.445312 191.294268 
L 192.990234 190.504717 
L 193.535156 188.705156 
L 194.080078 186.346758 
L 195.714844 177.533525 
L 196.804688 170.494219 
L 198.984375 156.251543 
L 199.529297 153.482988 
L 200.074219 151.339922 
L 200.619141 150.170977 
L 201.164062 149.689043 
L 201.708984 149.847979 
L 202.253906 150.550371 
L 203.34375 152.508867 
L 203.888672 153.195879 
L 204.433594 152.919023 
L 204.978516 152.478105 
L 205.523438 151.339922 
L 206.613281 148.268877 
L 207.158203 146.956377 
L 207.703125 146.136064 
L 208.248047 146.079668 
L 208.792969 146.730791 
L 209.337891 147.766436 
L 210.427734 151.591143 
L 210.972656 153.790605 
L 212.0625 156.738604 
L 212.607422 157.599932 
L 213.152344 157.769121 
L 213.697266 157.697344 
L 214.242188 157.338457 
L 215.332031 155.4825 
L 216.421875 152.052568 
L 218.056641 145.884844 
L 219.691406 140.516924 
L 220.236328 139.086504 
L 221.871094 135.630937 
L 223.505859 131.01668 
L 224.595703 127.412432 
L 225.140625 125.510332 
L 226.230469 123.808184 
L 226.775391 124.141436 
L 227.320312 125.259111 
L 227.865234 127.591875 
L 228.955078 133.467363 
L 233.314453 165.187822 
L 233.859375 167.961504 
L 234.404297 170.012285 
L 234.949219 171.176104 
L 235.494141 171.294023 
L 236.039062 170.801836 
L 237.128906 168.807451 
L 239.308594 163.875322 
L 239.853516 163.906084 
L 240.398438 164.449541 
L 240.943359 165.618486 
L 243.123047 171.94002 
L 243.667969 172.893633 
L 244.757812 172.755205 
L 245.847656 171.012041 
L 246.9375 169.232988 
L 248.027344 167.771807 
L 248.572266 167.602617 
L 249.662109 168.007646 
L 250.207031 168.997148 
L 250.751953 169.576494 
L 251.296875 170.478838 
L 251.841797 171.617021 
L 252.931641 175.282793 
L 255.65625 187.469561 
L 256.746094 192.360674 
L 257.291016 194.698564 
L 258.925781 199.846025 
L 259.470703 201.132891 
L 260.015625 201.927568 
L 261.105469 202.481279 
L 261.650391 202.947832 
L 262.195312 202.937578 
L 263.285156 204.383379 
L 263.830078 204.608965 
L 264.375 204.660234 
L 264.919922 203.952715 
L 265.464844 202.532549 
L 266.009766 200.389482 
L 268.189453 188.653887 
L 268.734375 187.228594 
L 269.279297 186.813311 
L 269.824219 186.838945 
L 270.369141 187.479814 
L 270.914062 188.515459 
L 271.458984 189.310137 
L 272.003906 190.402178 
L 272.548828 190.812334 
L 273.09375 190.509844 
L 273.638672 189.284502 
L 274.183594 187.536211 
L 275.818359 180.594316 
L 276.363281 179.092119 
L 276.908203 177.928301 
L 277.453125 177.415605 
L 277.998047 177.564287 
L 279.087891 179.8304 
L 279.632812 181.071123 
L 282.902344 191.668535 
L 283.447266 193.19124 
L 283.992188 193.924395 
L 284.537109 194.339678 
L 285.082031 193.801348 
L 285.626953 191.950518 
L 286.171875 189.402422 
L 288.351562 173.73958 
L 289.441406 165.567217 
L 290.53125 160.081377 
L 291.076172 158.517656 
L 291.621094 157.358965 
L 292.166016 156.825762 
L 292.710938 156.569414 
L 293.800781 156.477129 
L 294.345703 156.49251 
L 295.435547 155.277422 
L 296.525391 152.954912 
L 297.615234 149.986406 
L 298.705078 147.617754 
L 299.25 147.458818 
L 299.794922 147.735674 
L 300.339844 148.730303 
L 300.884766 150.478594 
L 301.974609 154.974932 
L 303.064453 158.163896 
L 303.609375 159.204668 
L 304.699219 159.240557 
L 305.244141 158.748369 
L 305.789062 158.071611 
L 306.333984 157.620439 
L 306.878906 156.507891 
L 307.423828 155.779863 
L 307.96875 154.272539 
L 308.513672 153.170244 
L 309.603516 150.191484 
L 310.693359 147.592119 
L 311.783203 144.567217 
L 312.873047 141.224443 
L 313.417969 139.840166 
L 315.597656 131.298662 
L 316.6875 126.18709 
L 317.232422 124.382402 
L 317.777344 123.285234 
L 318.322266 123.151934 
L 318.867188 124.156816 
L 319.412109 126.258867 
L 320.501953 132.252275 
L 322.136719 143.218828 
L 324.316406 160.183916 
L 324.861328 163.844561 
L 325.40625 166.633623 
L 325.951172 168.761309 
L 326.496094 169.761064 
L 327.041016 169.658525 
L 327.585938 168.915117 
L 328.130859 167.366777 
L 328.675781 165.469805 
L 329.220703 164.203447 
L 329.765625 163.244707 
L 330.310547 163.301104 
L 330.855469 163.96248 
L 331.945312 167.156572 
L 332.490234 169.21248 
L 333.035156 170.62752 
L 334.125 172.088701 
L 334.669922 172.119463 
L 335.214844 171.750322 
L 335.759766 171.678545 
L 336.849609 170.483965 
L 337.394531 170.268633 
L 338.484375 169.125322 
L 339.029297 168.581865 
L 340.664062 166.438799 
L 341.208984 166.238848 
L 341.753906 166.387529 
L 342.298828 166.654131 
L 343.388672 168.448564 
L 343.933594 169.848223 
L 344.478516 172.022051 
L 345.568359 177.641191 
L 347.203125 186.264727 
L 348.837891 191.530107 
L 349.382812 192.647783 
L 351.5625 199.041094 
L 352.652344 202.465898 
L 353.742188 205.270342 
L 354.287109 206.203447 
L 354.832031 206.726396 
L 355.376953 206.182939 
L 355.921875 205.167803 
L 357.011719 200.563799 
L 358.646484 192.2325 
L 359.191406 190.340654 
L 359.736328 189.058916 
L 360.28125 189.192217 
L 360.826172 189.499834 
L 361.371094 191.053301 
L 362.460938 192.852861 
L 363.005859 193.109209 
L 363.550781 192.294023 
L 364.095703 191.048174 
L 364.640625 189.166582 
L 366.275391 182.224687 
L 366.820312 180.635332 
L 367.910156 178.323076 
L 368.455078 178.051348 
L 369 177.636064 
L 370.089844 177.282305 
L 371.179688 178.45125 
L 371.724609 179.8304 
L 372.814453 183.993486 
L 374.449219 192.663164 
L 374.994141 194.67293 
L 375.539062 195.616289 
L 376.083984 195.380449 
L 376.628906 194.124346 
L 377.173828 191.5096 
L 377.71875 188.274492 
L 379.898438 172.878252 
L 380.988281 166.577227 
L 381.533203 164.182939 
L 382.078125 162.34749 
L 382.623047 160.963213 
L 385.347656 156.830889 
L 386.982422 152.852373 
L 388.617188 147.868975 
L 389.162109 146.612871 
L 389.707031 145.782305 
L 390.251953 145.531084 
L 390.796875 146.074541 
L 391.341797 147.181963 
L 393.521484 154.482744 
L 394.066406 155.636309 
L 394.611328 156.395098 
L 396.246094 157.159014 
L 396.791016 157.210283 
L 397.335938 156.948809 
L 400.060547 153.375322 
L 401.150391 151.678301 
L 402.240234 149.555742 
L 402.785156 148.694414 
L 404.419922 143.741777 
L 404.964844 141.675615 
L 408.234375 125.459062 
L 409.324219 122.403398 
L 409.869141 121.875322 
L 410.414062 121.921465 
L 410.958984 122.90584 
L 411.503906 124.792559 
L 412.59375 131.836992 
L 413.138672 135.964189 
L 414.773438 150.493975 
L 415.318359 154.831377 
L 415.863281 158.128008 
L 416.953125 162.378252 
L 418.042969 163.998369 
L 418.587891 164.31624 
L 419.132812 164.188066 
L 420.222656 163.695879 
L 420.767578 163.249834 
L 421.3125 163.721514 
L 421.857422 164.546953 
L 422.947266 167.535967 
L 424.037109 170.714678 
L 424.582031 171.714434 
L 425.126953 172.278398 
L 425.671875 172.365557 
L 427.306641 172.145098 
L 428.396484 172.406572 
L 428.941406 172.119463 
L 430.03125 171.073564 
L 431.666016 167.489824 
L 432.210938 166.141436 
L 432.755859 165.239092 
L 433.300781 165.136553 
L 433.845703 165.51082 
L 434.390625 166.905352 
L 435.480469 171.211992 
L 437.660156 181.522295 
L 438.205078 183.383379 
L 438.75 184.42415 
L 439.294922 185.716143 
L 439.839844 186.623613 
L 440.384766 188.320635 
L 441.474609 192.734941 
L 442.564453 198.687334 
L 443.654297 204.916582 
L 444.199219 207.439043 
L 444.744141 209.187334 
L 445.289062 209.910234 
L 445.833984 209.423174 
L 446.923828 206.844316 
L 448.558594 201.071367 
L 449.103516 199.487139 
L 449.648438 198.354082 
L 450.193359 197.743975 
L 450.738281 197.559404 
L 451.283203 197.769609 
L 451.828125 198.225908 
L 452.373047 198.497637 
L 452.917969 198.938555 
L 454.007812 198.825762 
L 454.552734 198.102861 
L 455.642578 196.093096 
L 456.732422 193.139971 
L 457.822266 189.469072 
L 458.912109 185.290605 
L 459.457031 183.675615 
L 460.001953 182.419512 
L 460.546875 181.558184 
L 461.091797 181.096758 
L 461.636719 181.081377 
L 462.181641 181.932451 
L 462.726562 183.11165 
L 463.816406 188.089922 
L 465.996094 200.779131 
L 466.541016 202.537676 
L 467.085938 202.891436 
L 467.630859 201.953203 
L 468.720703 197.133867 
L 469.265625 194.190996 
L 469.810547 190.186846 
L 471.990234 178.112871 
L 472.535156 176.528643 
L 473.080078 175.47249 
L 473.625 174.113848 
L 474.169922 173.103838 
L 475.804688 168.043535 
L 477.439453 161.783525 
L 479.074219 156.687334 
L 480.164062 154.241777 
L 480.708984 152.995928 
L 481.253906 152.329424 
L 481.798828 152.160234 
L 482.34375 152.539629 
L 482.888672 153.477861 
L 483.433594 154.713457 
L 484.523438 158.543291 
L 485.068359 160.153154 
L 485.613281 161.393877 
L 486.158203 162.306475 
L 486.703125 162.250078 
L 488.337891 161.029863 
L 489.427734 160.68123 
L 491.0625 161.193926 
L 491.607422 161.08626 
L 492.152344 160.640215 
L 493.242188 157.994707 
L 494.332031 154.692949 
L 496.511719 149.565996 
L 497.056641 147.18709 
L 498.146484 140.547686 
L 499.236328 132.293291 
L 499.78125 128.335283 
L 500.326172 125.664141 
L 500.871094 123.859453 
L 501.416016 123.003252 
L 501.960938 123.618486 
L 502.505859 125.295 
L 503.050781 127.771318 
L 504.140625 135.302812 
L 505.775391 147.545977 
L 506.865234 154.180254 
L 507.410156 156.830889 
L 508.5 160.137773 
L 509.044922 161.327227 
L 510.134766 163.085771 
L 511.224609 164.331621 
L 511.769531 164.818682 
L 512.314453 165.028887 
L 513.404297 166.536211 
L 513.949219 167.771807 
L 515.039062 169.86873 
L 515.583984 170.981279 
L 516.128906 171.811846 
L 517.21875 173.90877 
L 517.763672 174.688066 
L 518.853516 175.457109 
L 519.398438 175.380205 
L 519.943359 175.093096 
L 520.488281 174.400957 
L 521.033203 173.442217 
L 522.123047 170.084062 
L 523.212891 166.172197 
L 523.757812 165.198076 
L 524.302734 164.767412 
L 524.847656 165.56209 
L 525.392578 166.731035 
L 527.027344 173.344805 
L 527.572266 175.062334 
L 528.117188 176.29793 
L 529.207031 177.887285 
L 530.296875 179.245928 
L 530.841797 180.789141 
L 531.386719 182.711748 
L 531.931641 185.67 
L 534.65625 204.188555 
L 535.201172 206.034258 
L 535.746094 206.475176 
L 536.291016 206.61873 
L 536.835938 206.290605 
L 538.470703 203.973223 
L 539.560547 202.588945 
L 540.105469 201.717363 
L 540.650391 200.497148 
L 541.740234 199.03084 
L 542.830078 198.641191 
L 544.464844 198.477129 
L 545.009766 198.897539 
L 545.554688 198.882158 
L 546.099609 198.625811 
L 546.644531 197.908037 
L 547.189453 196.974932 
L 547.734375 195.206133 
L 548.279297 192.970781 
L 550.458984 182.352861 
L 551.003906 180.373857 
L 551.548828 178.830645 
L 552.09375 177.964189 
L 552.638672 177.359209 
L 553.183594 177.748857 
L 553.728516 178.887041 
L 554.818359 184.178057 
L 556.453125 194.688311 
L 556.998047 197.164629 
L 557.542969 198.707842 
L 558.087891 199.410234 
L 558.632812 198.907793 
L 559.177734 197.262041 
L 562.447266 183.773027 
L 564.082031 178.779375 
L 564.626953 177.389971 
L 566.806641 169.274004 
L 567.896484 165.116045 
L 568.986328 160.983721 
L 571.166016 152.329424 
L 571.710938 151.119463 
L 572.255859 150.247881 
L 572.800781 150.483721 
L 573.345703 151.047686 
L 574.980469 154.082842 
L 576.615234 156.307939 
L 577.160156 157.435869 
L 577.705078 158.153643 
L 578.794922 159.127764 
L 579.339844 159.220049 
L 579.884766 159.584062 
L 581.519531 159.599443 
L 582.064453 159.266191 
L 582.609375 159.317461 
L 583.154297 159.214922 
L 583.699219 158.963701 
L 584.244141 159.11751 
L 584.789062 158.789385 
L 585.333984 158.717607 
L 585.878906 157.963945 
L 586.423828 157.482012 
L 586.96875 156.307939 
L 587.513672 154.677568 
L 588.058594 152.124346 
L 589.148438 145.03377 
L 591.328125 127.622637 
L 591.873047 124.833574 
L 592.417969 123.418535 
L 592.962891 123.126299 
L 593.507812 124.254229 
L 594.052734 126.299883 
L 595.142578 132.283037 
L 596.232422 138.553301 
L 596.777344 141.798662 
L 597.867188 147.089678 
L 599.501953 154.487871 
L 600.591797 158.430498 
L 601.681641 161.460527 
L 603.316406 164.372637 
L 604.40625 164.85457 
L 605.496094 166.315752 
L 606.041016 167.664141 
L 607.130859 171.447832 
L 607.675781 173.893389 
L 608.765625 177.487383 
L 609.310547 178.507646 
L 609.855469 178.92293 
L 610.400391 178.692217 
L 610.945312 177.646318 
L 611.490234 176.195391 
L 613.669922 168.935625 
L 614.214844 168.0179 
L 614.759766 167.976885 
L 615.304688 168.310137 
L 615.849609 169.371416 
L 617.484375 171.340166 
L 618.029297 171.617021 
L 618.574219 171.683672 
L 620.208984 173.1346 
L 620.753906 174.262529 
L 621.84375 177.851396 
L 622.388672 180.635332 
L 623.478516 187.710527 
L 624.568359 195.288164 
L 625.113281 198.74373 
L 625.658203 201.414873 
L 626.203125 203.38875 
L 627.292969 205.388262 
L 627.837891 205.793291 
L 628.382812 205.921465 
L 628.927734 205.880449 
L 629.472656 205.624102 
L 630.5625 204.424395 
L 631.107422 203.829668 
L 631.652344 203.414385 
L 632.742188 202.004473 
L 633.832031 200.932939 
L 634.376953 200.676592 
L 634.921875 200.994463 
L 635.466797 201.517412 
L 636.011719 201.830156 
L 636.556641 202.829912 
L 637.101562 203.316973 
L 637.646484 203.481035 
L 638.191406 203.004229 
L 638.736328 201.676348 
L 639.28125 199.394854 
L 640.371094 192.473467 
L 641.460938 185.008623 
L 642.550781 179.871416 
L 643.095703 178.733232 
L 643.640625 178.666582 
L 644.185547 179.317705 
L 645.275391 183.178301 
L 647.455078 193.324541 
L 647.455078 193.324541 
" style="fill:none;stroke:#4c72b0;stroke-linecap:round;stroke-width:1.75;"/>
   </g>
   <g id="patch_3">
    <path d="M 90 270.72 
L 90 69.12 
" style="fill:none;stroke:#262626;stroke-linecap:square;stroke-linejoin:miter;stroke-width:1.25;"/>
   </g>
   <g id="patch_4">
    <path d="M 90 270.72 
L 648 270.72 
" style="fill:none;stroke:#262626;stroke-linecap:square;stroke-linejoin:miter;stroke-width:1.25;"/>
   </g>
  </g>
  <g id="axes_2">
   <g id="patch_5">
    <path d="M 90 512.64 
L 648 512.64 
L 648 311.04 
L 90 311.04 
z
" style="fill:#ffffff;"/>
   </g>
   <g id="matplotlib.axis_3">
    <g id="xtick_7">
     <g id="line2d_15">
      <g>
       <use style="fill:#262626;stroke:#262626;" x="218.197478" xlink:href="#m162b106b0b" y="512.64"/>
      </g>
     </g>
     <g id="text_14">
      <!-- $\mathdefault{10^{2}}$ -->
      <g style="fill:#262626;" transform="translate(210.347478 535.9525)scale(0.1 -0.1)">
       <use transform="translate(0 0.99375)" xlink:href="#ArialMT-31"/>
       <use transform="translate(55.615234 0.99375)" xlink:href="#ArialMT-30"/>
       <use transform="translate(112.972813 70.6875)scale(0.7)" xlink:href="#ArialMT-32"/>
      </g>
     </g>
    </g>
    <g id="xtick_8">
     <g id="line2d_16">
      <g>
       <use style="fill:#262626;stroke:#262626;" x="401.606604" xlink:href="#m162b106b0b" y="512.64"/>
      </g>
     </g>
     <g id="text_15">
      <!-- $\mathdefault{10^{3}}$ -->
      <defs>
       <path d="M 4.203125 18.890625 
L 12.984375 20.0625 
Q 14.5 12.59375 18.140625 9.296875 
Q 21.78125 6 27 6 
Q 33.203125 6 37.46875 10.296875 
Q 41.75 14.59375 41.75 20.953125 
Q 41.75 27 37.796875 30.921875 
Q 33.84375 34.859375 27.734375 34.859375 
Q 25.25 34.859375 21.53125 33.890625 
L 22.515625 41.609375 
Q 23.390625 41.5 23.921875 41.5 
Q 29.546875 41.5 34.03125 44.421875 
Q 38.53125 47.359375 38.53125 53.46875 
Q 38.53125 58.296875 35.25 61.46875 
Q 31.984375 64.65625 26.8125 64.65625 
Q 21.6875 64.65625 18.265625 61.421875 
Q 14.84375 58.203125 13.875 51.765625 
L 5.078125 53.328125 
Q 6.6875 62.15625 12.390625 67.015625 
Q 18.109375 71.875 26.609375 71.875 
Q 32.46875 71.875 37.390625 69.359375 
Q 42.328125 66.84375 44.9375 62.5 
Q 47.5625 58.15625 47.5625 53.265625 
Q 47.5625 48.640625 45.0625 44.828125 
Q 42.578125 41.015625 37.703125 38.765625 
Q 44.046875 37.3125 47.5625 32.6875 
Q 51.078125 28.078125 51.078125 21.140625 
Q 51.078125 11.765625 44.234375 5.25 
Q 37.40625 -1.265625 26.953125 -1.265625 
Q 17.53125 -1.265625 11.296875 4.34375 
Q 5.078125 9.96875 4.203125 18.890625 
z
" id="ArialMT-33"/>
      </defs>
      <g style="fill:#262626;" transform="translate(393.756604 535.9525)scale(0.1 -0.1)">
       <use transform="translate(0 0.99375)" xlink:href="#ArialMT-31"/>
       <use transform="translate(55.615234 0.99375)" xlink:href="#ArialMT-30"/>
       <use transform="translate(112.972813 70.6875)scale(0.7)" xlink:href="#ArialMT-33"/>
      </g>
     </g>
    </g>
    <g id="xtick_9">
     <g id="line2d_17">
      <g>
       <use style="fill:#262626;stroke:#262626;" x="585.01573" xlink:href="#m162b106b0b" y="512.64"/>
      </g>
     </g>
     <g id="text_16">
      <!-- $\mathdefault{10^{4}}$ -->
      <g style="fill:#262626;" transform="translate(577.16573 535.8525)scale(0.1 -0.1)">
       <use transform="translate(0 0.201563)" xlink:href="#ArialMT-31"/>
       <use transform="translate(55.615234 0.201563)" xlink:href="#ArialMT-30"/>
       <use transform="translate(112.972813 69.895313)scale(0.7)" xlink:href="#ArialMT-34"/>
      </g>
     </g>
    </g>
    <g id="xtick_10">
     <g id="line2d_18">
      <defs>
       <path d="M 0 0 
L 0 3 
" id="m26c26a76f6" style="stroke:#262626;stroke-width:0.5;"/>
      </defs>
      <g>
       <use style="fill:#262626;stroke:#262626;stroke-width:0.5;" x="90" xlink:href="#m26c26a76f6" y="512.64"/>
      </g>
     </g>
    </g>
    <g id="xtick_11">
     <g id="line2d_19">
      <g>
       <use style="fill:#262626;stroke:#262626;stroke-width:0.5;" x="122.296744" xlink:href="#m26c26a76f6" y="512.64"/>
      </g>
     </g>
    </g>
    <g id="xtick_12">
     <g id="line2d_20">
      <g>
       <use style="fill:#262626;stroke:#262626;stroke-width:0.5;" x="145.211648" xlink:href="#m26c26a76f6" y="512.64"/>
      </g>
     </g>
    </g>
    <g id="xtick_13">
     <g id="line2d_21">
      <g>
       <use style="fill:#262626;stroke:#262626;stroke-width:0.5;" x="162.985829" xlink:href="#m26c26a76f6" y="512.64"/>
      </g>
     </g>
    </g>
    <g id="xtick_14">
     <g id="line2d_22">
      <g>
       <use style="fill:#262626;stroke:#262626;stroke-width:0.5;" x="177.508392" xlink:href="#m26c26a76f6" y="512.64"/>
      </g>
     </g>
    </g>
    <g id="xtick_15">
     <g id="line2d_23">
      <g>
       <use style="fill:#262626;stroke:#262626;stroke-width:0.5;" x="189.787045" xlink:href="#m26c26a76f6" y="512.64"/>
      </g>
     </g>
    </g>
    <g id="xtick_16">
     <g id="line2d_24">
      <g>
       <use style="fill:#262626;stroke:#262626;stroke-width:0.5;" x="200.423297" xlink:href="#m26c26a76f6" y="512.64"/>
      </g>
     </g>
    </g>
    <g id="xtick_17">
     <g id="line2d_25">
      <g>
       <use style="fill:#262626;stroke:#262626;stroke-width:0.5;" x="209.805136" xlink:href="#m26c26a76f6" y="512.64"/>
      </g>
     </g>
    </g>
    <g id="xtick_18">
     <g id="line2d_26">
      <g>
       <use style="fill:#262626;stroke:#262626;stroke-width:0.5;" x="273.409126" xlink:href="#m26c26a76f6" y="512.64"/>
      </g>
     </g>
    </g>
    <g id="xtick_19">
     <g id="line2d_27">
      <g>
       <use style="fill:#262626;stroke:#262626;stroke-width:0.5;" x="305.70587" xlink:href="#m26c26a76f6" y="512.64"/>
      </g>
     </g>
    </g>
    <g id="xtick_20">
     <g id="line2d_28">
      <g>
       <use style="fill:#262626;stroke:#262626;stroke-width:0.5;" x="328.620775" xlink:href="#m26c26a76f6" y="512.64"/>
      </g>
     </g>
    </g>
    <g id="xtick_21">
     <g id="line2d_29">
      <g>
       <use style="fill:#262626;stroke:#262626;stroke-width:0.5;" x="346.394955" xlink:href="#m26c26a76f6" y="512.64"/>
      </g>
     </g>
    </g>
    <g id="xtick_22">
     <g id="line2d_30">
      <g>
       <use style="fill:#262626;stroke:#262626;stroke-width:0.5;" x="360.917518" xlink:href="#m26c26a76f6" y="512.64"/>
      </g>
     </g>
    </g>
    <g id="xtick_23">
     <g id="line2d_31">
      <g>
       <use style="fill:#262626;stroke:#262626;stroke-width:0.5;" x="373.196171" xlink:href="#m26c26a76f6" y="512.64"/>
      </g>
     </g>
    </g>
    <g id="xtick_24">
     <g id="line2d_32">
      <g>
       <use style="fill:#262626;stroke:#262626;stroke-width:0.5;" x="383.832423" xlink:href="#m26c26a76f6" y="512.64"/>
      </g>
     </g>
    </g>
    <g id="xtick_25">
     <g id="line2d_33">
      <g>
       <use style="fill:#262626;stroke:#262626;stroke-width:0.5;" x="393.214262" xlink:href="#m26c26a76f6" y="512.64"/>
      </g>
     </g>
    </g>
    <g id="xtick_26">
     <g id="line2d_34">
      <g>
       <use style="fill:#262626;stroke:#262626;stroke-width:0.5;" x="456.818252" xlink:href="#m26c26a76f6" y="512.64"/>
      </g>
     </g>
    </g>
    <g id="xtick_27">
     <g id="line2d_35">
      <g>
       <use style="fill:#262626;stroke:#262626;stroke-width:0.5;" x="489.114996" xlink:href="#m26c26a76f6" y="512.64"/>
      </g>
     </g>
    </g>
    <g id="xtick_28">
     <g id="line2d_36">
      <g>
       <use style="fill:#262626;stroke:#262626;stroke-width:0.5;" x="512.029901" xlink:href="#m26c26a76f6" y="512.64"/>
      </g>
     </g>
    </g>
    <g id="xtick_29">
     <g id="line2d_37">
      <g>
       <use style="fill:#262626;stroke:#262626;stroke-width:0.5;" x="529.804081" xlink:href="#m26c26a76f6" y="512.64"/>
      </g>
     </g>
    </g>
    <g id="xtick_30">
     <g id="line2d_38">
      <g>
       <use style="fill:#262626;stroke:#262626;stroke-width:0.5;" x="544.326645" xlink:href="#m26c26a76f6" y="512.64"/>
      </g>
     </g>
    </g>
    <g id="xtick_31">
     <g id="line2d_39">
      <g>
       <use style="fill:#262626;stroke:#262626;stroke-width:0.5;" x="556.605297" xlink:href="#m26c26a76f6" y="512.64"/>
      </g>
     </g>
    </g>
    <g id="xtick_32">
     <g id="line2d_40">
      <g>
       <use style="fill:#262626;stroke:#262626;stroke-width:0.5;" x="567.241549" xlink:href="#m26c26a76f6" y="512.64"/>
      </g>
     </g>
    </g>
    <g id="xtick_33">
     <g id="line2d_41">
      <g>
       <use style="fill:#262626;stroke:#262626;stroke-width:0.5;" x="576.623389" xlink:href="#m26c26a76f6" y="512.64"/>
      </g>
     </g>
    </g>
    <g id="xtick_34">
     <g id="line2d_42">
      <g>
       <use style="fill:#262626;stroke:#262626;stroke-width:0.5;" x="640.227378" xlink:href="#m26c26a76f6" y="512.64"/>
      </g>
     </g>
    </g>
   </g>
   <g id="matplotlib.axis_4">
    <g id="ytick_8">
     <g id="line2d_43">
      <g>
       <use style="fill:#262626;stroke:#262626;" x="90" xlink:href="#m499f515529" y="512.64"/>
      </g>
     </g>
     <g id="text_17">
      <!-- $\mathdefault{10^{-5}}$ -->
      <defs>
       <path d="M 4.15625 18.75 
L 13.375 19.53125 
Q 14.40625 12.796875 18.140625 9.390625 
Q 21.875 6 27.15625 6 
Q 33.5 6 37.890625 10.78125 
Q 42.28125 15.578125 42.28125 23.484375 
Q 42.28125 31 38.0625 35.34375 
Q 33.84375 39.703125 27 39.703125 
Q 22.75 39.703125 19.328125 37.765625 
Q 15.921875 35.84375 13.96875 32.765625 
L 5.71875 33.84375 
L 12.640625 70.609375 
L 48.25 70.609375 
L 48.25 62.203125 
L 19.671875 62.203125 
L 15.828125 42.96875 
Q 22.265625 47.46875 29.34375 47.46875 
Q 38.71875 47.46875 45.15625 40.96875 
Q 51.609375 34.46875 51.609375 24.265625 
Q 51.609375 14.546875 45.953125 7.46875 
Q 39.0625 -1.21875 27.15625 -1.21875 
Q 17.390625 -1.21875 11.203125 4.25 
Q 5.03125 9.71875 4.15625 18.75 
z
" id="ArialMT-35"/>
      </defs>
      <g style="fill:#262626;" transform="translate(57.2 517.74625)scale(0.1 -0.1)">
       <use transform="translate(0 0.879688)" xlink:href="#ArialMT-31"/>
       <use transform="translate(55.615234 0.879688)" xlink:href="#ArialMT-30"/>
       <use transform="translate(112.972813 70.573438)scale(0.7)" xlink:href="#ArialMT-2212"/>
       <use transform="translate(153.851719 70.573438)scale(0.7)" xlink:href="#ArialMT-35"/>
      </g>
     </g>
    </g>
    <g id="ytick_9">
     <g id="line2d_44">
      <g>
       <use style="fill:#262626;stroke:#262626;" x="90" xlink:href="#m499f515529" y="465.767507"/>
      </g>
     </g>
     <g id="text_18">
      <!-- $\mathdefault{10^{-4}}$ -->
      <g style="fill:#262626;" transform="translate(57.2 470.873757)scale(0.1 -0.1)">
       <use transform="translate(0 0.201563)" xlink:href="#ArialMT-31"/>
       <use transform="translate(55.615234 0.201563)" xlink:href="#ArialMT-30"/>
       <use transform="translate(112.972813 69.895313)scale(0.7)" xlink:href="#ArialMT-2212"/>
       <use transform="translate(153.851719 69.895313)scale(0.7)" xlink:href="#ArialMT-34"/>
      </g>
     </g>
    </g>
    <g id="ytick_10">
     <g id="line2d_45">
      <g>
       <use style="fill:#262626;stroke:#262626;" x="90" xlink:href="#m499f515529" y="418.895013"/>
      </g>
     </g>
     <g id="text_19">
      <!-- $\mathdefault{10^{-3}}$ -->
      <g style="fill:#262626;" transform="translate(57.2 424.051263)scale(0.1 -0.1)">
       <use transform="translate(0 0.99375)" xlink:href="#ArialMT-31"/>
       <use transform="translate(55.615234 0.99375)" xlink:href="#ArialMT-30"/>
       <use transform="translate(112.972813 70.6875)scale(0.7)" xlink:href="#ArialMT-2212"/>
       <use transform="translate(153.851719 70.6875)scale(0.7)" xlink:href="#ArialMT-33"/>
      </g>
     </g>
    </g>
    <g id="ytick_11">
     <g id="line2d_46">
      <g>
       <use style="fill:#262626;stroke:#262626;" x="90" xlink:href="#m499f515529" y="372.02252"/>
      </g>
     </g>
     <g id="text_20">
      <!-- $\mathdefault{10^{-2}}$ -->
      <g style="fill:#262626;" transform="translate(57.2 377.17877)scale(0.1 -0.1)">
       <use transform="translate(0 0.99375)" xlink:href="#ArialMT-31"/>
       <use transform="translate(55.615234 0.99375)" xlink:href="#ArialMT-30"/>
       <use transform="translate(112.972813 70.6875)scale(0.7)" xlink:href="#ArialMT-2212"/>
       <use transform="translate(153.851719 70.6875)scale(0.7)" xlink:href="#ArialMT-32"/>
      </g>
     </g>
    </g>
    <g id="ytick_12">
     <g id="line2d_47">
      <g>
       <use style="fill:#262626;stroke:#262626;" x="90" xlink:href="#m499f515529" y="325.150026"/>
      </g>
     </g>
     <g id="text_21">
      <!-- $\mathdefault{10^{-1}}$ -->
      <g style="fill:#262626;" transform="translate(57.2 330.306276)scale(0.1 -0.1)">
       <use transform="translate(0 0.99375)" xlink:href="#ArialMT-31"/>
       <use transform="translate(55.615234 0.99375)" xlink:href="#ArialMT-30"/>
       <use transform="translate(112.972813 70.6875)scale(0.7)" xlink:href="#ArialMT-2212"/>
       <use transform="translate(153.851719 70.6875)scale(0.7)" xlink:href="#ArialMT-31"/>
      </g>
     </g>
    </g>
    <g id="ytick_13">
     <g id="line2d_48">
      <defs>
       <path d="M 0 0 
L -3 0 
" id="m07233d2db8" style="stroke:#262626;stroke-width:0.5;"/>
      </defs>
      <g>
       <use style="fill:#262626;stroke:#262626;stroke-width:0.5;" x="90" xlink:href="#m07233d2db8" y="498.529974"/>
      </g>
     </g>
    </g>
    <g id="ytick_14">
     <g id="line2d_49">
      <g>
       <use style="fill:#262626;stroke:#262626;stroke-width:0.5;" x="90" xlink:href="#m07233d2db8" y="490.276137"/>
      </g>
     </g>
    </g>
    <g id="ytick_15">
     <g id="line2d_50">
      <g>
       <use style="fill:#262626;stroke:#262626;stroke-width:0.5;" x="90" xlink:href="#m07233d2db8" y="484.419947"/>
      </g>
     </g>
    </g>
    <g id="ytick_16">
     <g id="line2d_51">
      <g>
       <use style="fill:#262626;stroke:#262626;stroke-width:0.5;" x="90" xlink:href="#m07233d2db8" y="479.877533"/>
      </g>
     </g>
    </g>
    <g id="ytick_17">
     <g id="line2d_52">
      <g>
       <use style="fill:#262626;stroke:#262626;stroke-width:0.5;" x="90" xlink:href="#m07233d2db8" y="476.166111"/>
      </g>
     </g>
    </g>
    <g id="ytick_18">
     <g id="line2d_53">
      <g>
       <use style="fill:#262626;stroke:#262626;stroke-width:0.5;" x="90" xlink:href="#m07233d2db8" y="473.028148"/>
      </g>
     </g>
    </g>
    <g id="ytick_19">
     <g id="line2d_54">
      <g>
       <use style="fill:#262626;stroke:#262626;stroke-width:0.5;" x="90" xlink:href="#m07233d2db8" y="470.309921"/>
      </g>
     </g>
    </g>
    <g id="ytick_20">
     <g id="line2d_55">
      <g>
       <use style="fill:#262626;stroke:#262626;stroke-width:0.5;" x="90" xlink:href="#m07233d2db8" y="467.912274"/>
      </g>
     </g>
    </g>
    <g id="ytick_21">
     <g id="line2d_56">
      <g>
       <use style="fill:#262626;stroke:#262626;stroke-width:0.5;" x="90" xlink:href="#m07233d2db8" y="451.65748"/>
      </g>
     </g>
    </g>
    <g id="ytick_22">
     <g id="line2d_57">
      <g>
       <use style="fill:#262626;stroke:#262626;stroke-width:0.5;" x="90" xlink:href="#m07233d2db8" y="443.403644"/>
      </g>
     </g>
    </g>
    <g id="ytick_23">
     <g id="line2d_58">
      <g>
       <use style="fill:#262626;stroke:#262626;stroke-width:0.5;" x="90" xlink:href="#m07233d2db8" y="437.547454"/>
      </g>
     </g>
    </g>
    <g id="ytick_24">
     <g id="line2d_59">
      <g>
       <use style="fill:#262626;stroke:#262626;stroke-width:0.5;" x="90" xlink:href="#m07233d2db8" y="433.00504"/>
      </g>
     </g>
    </g>
    <g id="ytick_25">
     <g id="line2d_60">
      <g>
       <use style="fill:#262626;stroke:#262626;stroke-width:0.5;" x="90" xlink:href="#m07233d2db8" y="429.293617"/>
      </g>
     </g>
    </g>
    <g id="ytick_26">
     <g id="line2d_61">
      <g>
       <use style="fill:#262626;stroke:#262626;stroke-width:0.5;" x="90" xlink:href="#m07233d2db8" y="426.155654"/>
      </g>
     </g>
    </g>
    <g id="ytick_27">
     <g id="line2d_62">
      <g>
       <use style="fill:#262626;stroke:#262626;stroke-width:0.5;" x="90" xlink:href="#m07233d2db8" y="423.437427"/>
      </g>
     </g>
    </g>
    <g id="ytick_28">
     <g id="line2d_63">
      <g>
       <use style="fill:#262626;stroke:#262626;stroke-width:0.5;" x="90" xlink:href="#m07233d2db8" y="421.039781"/>
      </g>
     </g>
    </g>
    <g id="ytick_29">
     <g id="line2d_64">
      <g>
       <use style="fill:#262626;stroke:#262626;stroke-width:0.5;" x="90" xlink:href="#m07233d2db8" y="404.784987"/>
      </g>
     </g>
    </g>
    <g id="ytick_30">
     <g id="line2d_65">
      <g>
       <use style="fill:#262626;stroke:#262626;stroke-width:0.5;" x="90" xlink:href="#m07233d2db8" y="396.53115"/>
      </g>
     </g>
    </g>
    <g id="ytick_31">
     <g id="line2d_66">
      <g>
       <use style="fill:#262626;stroke:#262626;stroke-width:0.5;" x="90" xlink:href="#m07233d2db8" y="390.67496"/>
      </g>
     </g>
    </g>
    <g id="ytick_32">
     <g id="line2d_67">
      <g>
       <use style="fill:#262626;stroke:#262626;stroke-width:0.5;" x="90" xlink:href="#m07233d2db8" y="386.132546"/>
      </g>
     </g>
    </g>
    <g id="ytick_33">
     <g id="line2d_68">
      <g>
       <use style="fill:#262626;stroke:#262626;stroke-width:0.5;" x="90" xlink:href="#m07233d2db8" y="382.421124"/>
      </g>
     </g>
    </g>
    <g id="ytick_34">
     <g id="line2d_69">
      <g>
       <use style="fill:#262626;stroke:#262626;stroke-width:0.5;" x="90" xlink:href="#m07233d2db8" y="379.283161"/>
      </g>
     </g>
    </g>
    <g id="ytick_35">
     <g id="line2d_70">
      <g>
       <use style="fill:#262626;stroke:#262626;stroke-width:0.5;" x="90" xlink:href="#m07233d2db8" y="376.564934"/>
      </g>
     </g>
    </g>
    <g id="ytick_36">
     <g id="line2d_71">
      <g>
       <use style="fill:#262626;stroke:#262626;stroke-width:0.5;" x="90" xlink:href="#m07233d2db8" y="374.167288"/>
      </g>
     </g>
    </g>
    <g id="ytick_37">
     <g id="line2d_72">
      <g>
       <use style="fill:#262626;stroke:#262626;stroke-width:0.5;" x="90" xlink:href="#m07233d2db8" y="357.912493"/>
      </g>
     </g>
    </g>
    <g id="ytick_38">
     <g id="line2d_73">
      <g>
       <use style="fill:#262626;stroke:#262626;stroke-width:0.5;" x="90" xlink:href="#m07233d2db8" y="349.658657"/>
      </g>
     </g>
    </g>
    <g id="ytick_39">
     <g id="line2d_74">
      <g>
       <use style="fill:#262626;stroke:#262626;stroke-width:0.5;" x="90" xlink:href="#m07233d2db8" y="343.802467"/>
      </g>
     </g>
    </g>
    <g id="ytick_40">
     <g id="line2d_75">
      <g>
       <use style="fill:#262626;stroke:#262626;stroke-width:0.5;" x="90" xlink:href="#m07233d2db8" y="339.260053"/>
      </g>
     </g>
    </g>
    <g id="ytick_41">
     <g id="line2d_76">
      <g>
       <use style="fill:#262626;stroke:#262626;stroke-width:0.5;" x="90" xlink:href="#m07233d2db8" y="335.548631"/>
      </g>
     </g>
    </g>
    <g id="ytick_42">
     <g id="line2d_77">
      <g>
       <use style="fill:#262626;stroke:#262626;stroke-width:0.5;" x="90" xlink:href="#m07233d2db8" y="332.410668"/>
      </g>
     </g>
    </g>
    <g id="ytick_43">
     <g id="line2d_78">
      <g>
       <use style="fill:#262626;stroke:#262626;stroke-width:0.5;" x="90" xlink:href="#m07233d2db8" y="329.69244"/>
      </g>
     </g>
    </g>
    <g id="ytick_44">
     <g id="line2d_79">
      <g>
       <use style="fill:#262626;stroke:#262626;stroke-width:0.5;" x="90" xlink:href="#m07233d2db8" y="327.294794"/>
      </g>
     </g>
    </g>
    <g id="ytick_45">
     <g id="line2d_80">
      <g>
       <use style="fill:#262626;stroke:#262626;stroke-width:0.5;" x="90" xlink:href="#m07233d2db8" y="311.04"/>
      </g>
     </g>
    </g>
   </g>
   <g id="line2d_81">
    <path clip-path="url(#pba8b9711e6)" d="M -1 380.270618 
L 151.095164 380.230067 
L 206.306812 398.979394 
L 238.603556 393.203487 
L 261.518461 391.604642 
L 279.292642 396.039315 
L 293.815205 329.963321 
L 306.093857 398.263463 
L 316.730109 407.412933 
L 326.111949 413.543165 
L 334.50429 422.754931 
L 342.096086 416.796646 
L 349.026853 393.714551 
L 355.402541 418.027472 
L 361.305505 423.38761 
L 366.801034 423.934819 
L 371.941758 420.240284 
L 376.770725 422.291354 
L 381.323597 377.744525 
L 385.630245 402.04884 
L 389.715939 403.432487 
L 393.602249 401.49564 
L 397.307735 394.504002 
L 400.848476 383.719415 
L 404.238502 349.43477 
L 407.490119 374.382684 
L 410.614189 391.699978 
L 413.620341 400.383258 
L 416.517154 405.311245 
L 419.312303 402.336317 
L 422.012683 381.760674 
L 424.624509 396.908096 
L 427.153406 412.76889 
L 429.604479 421.305596 
L 431.982374 428.82098 
L 434.291335 430.119968 
L 436.535246 420.459854 
L 438.717672 406.789284 
L 440.841893 416.844838 
L 442.910933 419.134228 
L 444.927587 415.305635 
L 446.894442 408.039339 
L 448.813898 388.655764 
L 450.688186 373.601749 
L 452.519383 402.774365 
L 454.309426 412.485542 
L 457.773171 423.63384 
L 459.45015 424.582157 
L 461.09255 397.720617 
L 462.701768 426.877787 
L 464.279118 428.651843 
L 465.825838 423.239171 
L 467.343094 420.321603 
L 468.83199 411.269892 
L 470.293564 372.396283 
L 471.728802 403.52169 
L 473.138637 422.780535 
L 475.885584 442.480071 
L 477.224331 455.740201 
L 478.540949 438.931599 
L 479.836157 417.476656 
L 481.110642 433.279531 
L 482.365055 439.259184 
L 483.600019 443.819927 
L 484.816127 443.996642 
L 486.013948 443.829042 
L 487.194022 435.829566 
L 488.356869 456.959619 
L 489.502983 474.528938 
L 490.63284 459.482967 
L 491.746894 449.837856 
L 492.845581 432.045732 
L 493.92932 402.254733 
L 494.998512 403.875611 
L 496.053541 421.833178 
L 497.094779 428.510658 
L 498.122582 432.365984 
L 499.137291 431.343109 
L 500.139235 438.692881 
L 501.128734 404.987528 
L 502.10609 438.871432 
L 503.0716 438.867169 
L 504.025546 442.108186 
L 504.968203 451.622084 
L 505.899834 436.656659 
L 506.820695 435.062913 
L 507.731032 438.593383 
L 508.631082 435.438334 
L 509.521075 430.776562 
L 510.401234 417.778335 
L 511.271773 421.044841 
L 512.132901 442.417057 
L 512.984819 430.873089 
L 513.827722 435.511022 
L 514.661799 469.520571 
L 515.487232 467.254838 
L 516.304198 467.511062 
L 517.112871 455.882548 
L 517.913416 452.320167 
L 518.705996 435.206534 
L 519.490766 479.219059 
L 520.26788 470.325952 
L 521.037486 458.017301 
L 521.799727 466.373096 
L 522.554743 464.293346 
L 523.302669 454.88281 
L 524.043638 434.381975 
L 524.777778 473.516307 
L 525.505212 476.391572 
L 526.226064 474.001325 
L 526.940451 472.280921 
L 527.648487 471.357133 
L 528.350285 463.046841 
L 529.045954 449.213044 
L 529.7356 486.130439 
L 530.419326 482.354164 
L 531.097232 475.504901 
L 531.769418 476.434129 
L 532.435979 472.399033 
L 533.097009 496.654277 
L 533.752597 462.089416 
L 534.402834 444.158361 
L 535.047806 462.366277 
L 535.687597 459.122366 
L 536.32229 465.713333 
L 536.951966 465.344562 
L 537.576703 462.74266 
L 538.196578 468.809965 
L 538.811667 443.576541 
L 539.422042 459.471718 
L 540.027776 462.721337 
L 540.628938 467.519016 
L 541.225596 466.570421 
L 541.817819 471.791622 
L 542.405671 467.978644 
L 542.989216 490.550295 
L 543.568517 462.695816 
L 544.143636 467.406223 
L 544.714632 469.694552 
L 545.281563 476.445708 
L 545.844488 467.967138 
L 546.403463 467.428968 
L 546.958543 470.695415 
L 547.509781 451.239063 
L 548.05723 469.122621 
L 548.600942 468.538684 
L 549.140969 471.446238 
L 549.677358 465.980154 
L 550.21016 475.000738 
L 550.739422 465.759752 
L 551.26519 461.160564 
L 551.78751 464.425476 
L 552.306428 469.680353 
L 552.821987 465.60186 
L 553.33423 468.503995 
L 553.8432 467.360181 
L 554.348939 472.174069 
L 554.851487 472.230668 
L 555.350884 467.032456 
L 555.847169 471.627363 
L 556.340382 479.600105 
L 556.830559 467.043645 
L 557.317739 468.794985 
L 557.801956 467.189483 
L 558.283248 472.37439 
L 558.76165 478.872918 
L 559.237195 475.196631 
L 559.709918 474.931913 
L 560.179852 476.635201 
L 560.647029 473.521611 
L 561.111483 478.343469 
L 561.573244 474.227844 
L 562.032344 480.463992 
L 562.488812 476.299749 
L 562.94268 453.54083 
L 563.393976 461.663823 
L 563.84273 472.19538 
L 564.28897 471.179552 
L 564.732723 475.404732 
L 565.174019 475.859578 
L 565.612882 472.891521 
L 566.049341 468.908056 
L 566.483422 474.10212 
L 566.91515 471.83023 
L 567.34455 471.83389 
L 567.771648 470.506276 
L 568.196468 468.247548 
L 568.619034 477.864206 
L 569.039371 477.14932 
L 569.457501 478.816062 
L 569.873447 477.30996 
L 570.287233 473.138073 
L 570.69888 471.027806 
L 571.108411 478.616559 
L 571.515847 478.889059 
L 572.32452 473.428322 
L 572.725798 471.744266 
L 573.125065 475.49353 
L 573.52234 476.414821 
L 573.917644 472.183296 
L 574.310996 474.575221 
L 574.702415 473.94652 
L 575.091919 475.515629 
L 575.479529 478.023936 
L 575.865261 475.590154 
L 576.249135 471.228181 
L 577.011376 472.688234 
L 577.389778 473.010697 
L 577.766391 477.301182 
L 578.141232 472.506925 
L 578.514318 474.191502 
L 578.885664 473.177462 
L 579.255287 478.001915 
L 579.623202 476.19458 
L 579.989426 476.737645 
L 580.353974 473.351224 
L 580.716861 481.3255 
L 581.078102 477.995151 
L 581.437713 490.195975 
L 582.152099 470.62056 
L 582.506904 476.410618 
L 582.860136 479.648863 
L 583.211808 477.496192 
L 583.561934 477.171669 
L 583.910528 470.243546 
L 584.257603 477.019213 
L 584.603172 480.552683 
L 584.947248 474.084281 
L 585.289845 474.168348 
L 585.630974 472.132606 
L 585.970649 476.513354 
L 586.308881 473.557127 
L 586.981067 486.028153 
L 587.647628 473.784378 
L 587.978828 471.052525 
L 588.308657 475.722215 
L 588.637126 474.423448 
L 588.964246 477.780157 
L 589.290028 479.034303 
L 589.614483 483.386997 
L 589.937621 472.238411 
L 590.259454 485.205236 
L 590.899246 473.060816 
L 591.217224 481.518961 
L 591.533939 480.139341 
L 591.849399 474.28572 
L 592.163614 476.613307 
L 592.476596 487.402859 
L 592.788352 477.728214 
L 593.098892 475.655677 
L 593.408227 480.047492 
L 593.716365 477.44865 
L 594.329088 490.603425 
L 594.937133 474.560509 
L 595.239424 473.520419 
L 595.540572 476.113135 
L 595.840586 480.078499 
L 596.139474 478.659231 
L 596.437245 477.971934 
L 596.733906 476.119926 
L 597.029467 477.927397 
L 597.323936 473.77223 
L 597.617319 487.558967 
L 597.909626 477.066785 
L 598.200864 482.769926 
L 598.491042 480.656578 
L 598.780166 481.686917 
L 599.641294 474.328149 
L 599.92628 480.003796 
L 600.21025 479.902899 
L 600.493212 482.938284 
L 601.336115 476.199074 
L 601.615112 483.128566 
L 601.893135 480.343362 
L 602.170191 479.544112 
L 602.446287 480.257073 
L 602.721429 480.555636 
L 602.995624 485.947916 
L 603.268878 479.482485 
L 603.541199 493.342902 
L 603.812591 474.447745 
L 604.083062 477.373384 
L 604.352617 489.178401 
L 604.621264 477.069949 
L 604.889007 479.726697 
L 605.155853 486.460539 
L 605.421809 487.006151 
L 605.686879 472.85071 
L 605.95107 492.353046 
L 606.214388 474.13686 
L 606.476838 480.619691 
L 606.738427 490.898106 
L 606.999159 491.818347 
L 607.518076 477.032641 
L 607.776273 490.86541 
L 608.033635 480.137338 
L 608.290169 485.028968 
L 608.545879 482.032425 
L 608.80077 476.949483 
L 609.054849 486.605675 
L 609.308119 481.440577 
L 609.812258 477.918994 
L 610.063135 470.9927 
L 610.313225 475.509506 
L 610.562532 482.025115 
L 610.811062 479.268927 
L 611.058818 481.006944 
L 611.305806 479.864131 
L 611.55203 484.755375 
L 611.797496 482.801438 
L 612.042208 473.934448 
L 612.28617 485.648144 
L 612.529387 491.182636 
L 612.771864 483.03729 
L 613.013605 484.644191 
L 613.254614 484.402817 
L 613.494897 483.225378 
L 613.734457 491.801036 
L 614.211426 480.185781 
L 614.448843 487.598098 
L 614.685555 475.374645 
L 614.921566 484.162575 
L 615.15688 475.334374 
L 615.3915 481.682499 
L 615.625431 480.303303 
L 615.858678 481.085474 
L 616.091243 497.448562 
L 616.323131 478.164728 
L 616.554347 492.317114 
L 616.784892 480.364018 
L 617.014773 482.882859 
L 617.243992 504.561824 
L 617.472553 491.910969 
L 617.700461 505.513006 
L 617.927718 477.043528 
L 618.154329 510.577931 
L 618.380296 484.483667 
L 618.605625 480.564775 
L 618.830318 509.156092 
L 619.054379 481.773592 
L 619.277811 483.695113 
L 619.500618 489.384072 
L 619.722804 482.438138 
L 619.944372 488.628956 
L 620.165325 491.368677 
L 620.385667 489.598092 
L 620.605401 473.820106 
L 620.824531 492.059556 
L 621.043059 475.854106 
L 621.26099 476.657404 
L 621.69507 485.15665 
L 621.911227 483.312449 
L 622.126798 477.805111 
L 622.341787 482.31281 
L 622.556198 479.510425 
L 622.770034 470.665033 
L 622.983296 487.410938 
L 623.195989 483.799237 
L 623.408116 489.353679 
L 623.61968 481.282295 
L 624.041128 486.584138 
L 624.251019 487.162203 
L 624.460358 483.464211 
L 624.669149 483.29779 
L 625.085096 492.541113 
L 625.292257 476.113348 
L 625.498881 489.107223 
L 625.704971 479.042956 
L 625.910528 478.529211 
L 626.115557 479.195967 
L 626.320059 489.992401 
L 626.524038 484.598544 
L 626.727495 475.661299 
L 626.930435 487.648947 
L 627.132858 477.348846 
L 627.334768 484.149843 
L 627.536168 477.756115 
L 627.73706 482.004411 
L 627.937446 481.715511 
L 628.13733 483.85272 
L 628.336713 490.816082 
L 628.535599 505.371111 
L 628.931886 479.925648 
L 629.326211 485.66187 
L 629.522644 474.923007 
L 629.914063 481.873629 
L 630.109054 481.660834 
L 630.303568 479.630641 
L 630.497608 503.79687 
L 630.691177 477.99725 
L 630.884277 501.368374 
L 631.07691 476.521274 
L 631.460783 485.687664 
L 631.652028 500.521603 
L 631.842815 500.177823 
L 632.033146 488.658572 
L 632.223024 484.229539 
L 632.41245 489.438634 
L 632.601426 472.10249 
L 632.789956 490.046018 
L 632.97804 483.018795 
L 633.165681 491.091393 
L 633.352881 478.19532 
L 633.539642 489.720491 
L 633.725966 483.597652 
L 633.911856 490.299075 
L 634.097312 487.656813 
L 634.282338 481.567776 
L 634.466935 484.566796 
L 634.651105 472.961564 
L 634.83485 499.190383 
L 635.018173 489.495765 
L 635.201074 512.916814 
L 635.383557 481.400943 
L 635.565622 477.804618 
L 635.747272 484.655541 
L 635.928509 480.108514 
L 636.109335 480.003885 
L 636.289751 478.943122 
L 636.469759 489.491301 
L 636.649361 488.740211 
L 636.828559 477.178055 
L 637.007355 484.658721 
L 637.185751 485.229542 
L 637.363748 476.110724 
L 637.541348 487.800569 
L 637.718553 480.293772 
L 637.895364 479.54115 
L 638.071784 483.334586 
L 638.247814 501.190745 
L 638.423456 479.454859 
L 638.598712 487.998309 
L 638.773582 475.947347 
L 638.94807 493.193382 
L 639.122176 485.061981 
L 639.469251 490.105794 
L 639.642223 490.789277 
L 639.81482 485.372889 
L 639.987044 473.44327 
L 640.158897 483.430699 
L 640.330379 483.827594 
L 640.501493 489.887734 
L 640.67224 488.192099 
L 640.842622 482.622908 
L 641.012641 488.019658 
L 641.182297 489.030253 
L 641.351593 495.216033 
L 641.520529 480.312262 
L 641.689108 481.399208 
L 641.857331 474.705422 
L 642.0252 482.780534 
L 642.192715 478.300058 
L 642.359879 486.479381 
L 642.693158 481.995846 
L 642.859276 500.648247 
L 643.025049 492.013787 
L 643.190477 474.833582 
L 643.355562 505.051335 
L 643.520306 479.142458 
L 643.684709 486.145354 
L 643.848774 471.056454 
L 644.012502 497.23842 
L 644.175894 485.96953 
L 644.338952 497.142284 
L 644.501676 498.469713 
L 644.664069 490.811268 
L 644.826131 489.592488 
L 644.987864 477.614571 
L 645.14927 483.429328 
L 645.310349 482.105611 
L 645.471103 476.370644 
L 645.631533 500.678113 
L 645.791641 489.799737 
L 645.951427 488.262701 
L 646.110894 491.699751 
L 646.270042 481.468316 
L 646.428873 486.092218 
L 646.587387 481.917271 
L 646.745587 489.376002 
L 646.903473 486.092782 
L 647.061047 492.878933 
L 647.21831 484.908029 
L 647.375263 490.018859 
L 647.531907 483.05199 
L 647.844274 491.275263 
L 647.844274 491.275263 
" style="fill:none;stroke:#b22222;stroke-linecap:round;stroke-width:1.75;"/>
   </g>
   <g id="patch_6">
    <path d="M 90 512.64 
L 90 311.04 
" style="fill:none;stroke:#262626;stroke-linecap:square;stroke-linejoin:miter;stroke-width:1.25;"/>
   </g>
   <g id="patch_7">
    <path d="M 90 512.64 
L 648 512.64 
" style="fill:none;stroke:#262626;stroke-linecap:square;stroke-linejoin:miter;stroke-width:1.25;"/>
   </g>
  </g>
 </g>
 <defs>
  <clipPath id="p234f914883">
   <rect height="201.6" width="558" x="90" y="69.12"/>
  </clipPath>
  <clipPath id="pba8b9711e6">
   <rect height="201.6" width="558" x="90" y="311.04"/>
  </clipPath>
 </defs>
</svg>
