<?xml version="1.0" encoding="utf-8" standalone="no"?>
<!DOCTYPE svg PUBLIC "-//W3C//DTD SVG 1.1//EN"
  "http://www.w3.org/Graphics/SVG/1.1/DTD/svg11.dtd">
<!-- Created with matplotlib (http://matplotlib.org/) -->
<svg height="576pt" version="1.1" viewBox="0 0 720 576" width="720pt" xmlns="http://www.w3.org/2000/svg" xmlns:xlink="http://www.w3.org/1999/xlink">
 <defs>
  <style type="text/css">
*{stroke-linecap:butt;stroke-linejoin:round;}
  </style>
 </defs>
 <g id="figure_1">
  <g id="patch_1">
   <path d="M 0 576 
L 720 576 
L 720 0 
L 0 0 
z
" style="fill:#ffffff;"/>
  </g>
  <g id="axes_1">
   <g id="patch_2">
    <path d="M 90 270.72 
L 648 270.72 
L 648 69.12 
L 90 69.12 
z
" style="fill:#ffffff;"/>
   </g>
   <g id="matplotlib.axis_1">
    <g id="xtick_1">
     <g id="line2d_1">
      <defs>
       <path d="M 0 0 
L 0 6 
" id="mff45c80401" style="stroke:#262626;"/>
      </defs>
      <g>
       <use style="fill:#262626;stroke:#262626;" x="90" xlink:href="#mff45c80401" y="270.72"/>
      </g>
     </g>
     <g id="text_1">
      <!-- 0 -->
      <defs>
       <path d="M 4.15625 35.296875 
Q 4.15625 48 6.765625 55.734375 
Q 9.375 63.484375 14.515625 67.671875 
Q 19.671875 71.875 27.484375 71.875 
Q 33.25 71.875 37.59375 69.546875 
Q 41.9375 67.234375 44.765625 62.859375 
Q 47.609375 58.5 49.21875 52.21875 
Q 50.828125 45.953125 50.828125 35.296875 
Q 50.828125 22.703125 48.234375 14.96875 
Q 45.65625 7.234375 40.5 3 
Q 35.359375 -1.21875 27.484375 -1.21875 
Q 17.140625 -1.21875 11.234375 6.203125 
Q 4.15625 15.140625 4.15625 35.296875 
z
M 13.1875 35.296875 
Q 13.1875 17.671875 17.3125 11.828125 
Q 21.4375 6 27.484375 6 
Q 33.546875 6 37.671875 11.859375 
Q 41.796875 17.71875 41.796875 35.296875 
Q 41.796875 52.984375 37.671875 58.78125 
Q 33.546875 64.59375 27.390625 64.59375 
Q 21.34375 64.59375 17.71875 59.46875 
Q 13.1875 52.9375 13.1875 35.296875 
z
" id="ArialMT-30"/>
      </defs>
      <g style="fill:#262626;" transform="translate(87.219531 290.877812)scale(0.1 -0.1)">
       <use xlink:href="#ArialMT-30"/>
      </g>
     </g>
    </g>
    <g id="xtick_2">
     <g id="line2d_2">
      <g>
       <use style="fill:#262626;stroke:#262626;" x="198.984375" xlink:href="#mff45c80401" y="270.72"/>
      </g>
     </g>
     <g id="text_2">
      <!-- 200 -->
      <defs>
       <path d="M 50.34375 8.453125 
L 50.34375 0 
L 3.03125 0 
Q 2.9375 3.171875 4.046875 6.109375 
Q 5.859375 10.9375 9.828125 15.625 
Q 13.8125 20.3125 21.34375 26.46875 
Q 33.015625 36.03125 37.109375 41.625 
Q 41.21875 47.21875 41.21875 52.203125 
Q 41.21875 57.421875 37.46875 61 
Q 33.734375 64.59375 27.734375 64.59375 
Q 21.390625 64.59375 17.578125 60.78125 
Q 13.765625 56.984375 13.71875 50.25 
L 4.6875 51.171875 
Q 5.609375 61.28125 11.65625 66.578125 
Q 17.71875 71.875 27.9375 71.875 
Q 38.234375 71.875 44.234375 66.15625 
Q 50.25 60.453125 50.25 52 
Q 50.25 47.703125 48.484375 43.546875 
Q 46.734375 39.40625 42.65625 34.8125 
Q 38.578125 30.21875 29.109375 22.21875 
Q 21.1875 15.578125 18.9375 13.203125 
Q 16.703125 10.84375 15.234375 8.453125 
z
" id="ArialMT-32"/>
      </defs>
      <g style="fill:#262626;" transform="translate(190.642969 290.877812)scale(0.1 -0.1)">
       <use xlink:href="#ArialMT-32"/>
       <use x="55.615234" xlink:href="#ArialMT-30"/>
       <use x="111.230469" xlink:href="#ArialMT-30"/>
      </g>
     </g>
    </g>
    <g id="xtick_3">
     <g id="line2d_3">
      <g>
       <use style="fill:#262626;stroke:#262626;" x="307.96875" xlink:href="#mff45c80401" y="270.72"/>
      </g>
     </g>
     <g id="text_3">
      <!-- 400 -->
      <defs>
       <path d="M 32.328125 0 
L 32.328125 17.140625 
L 1.265625 17.140625 
L 1.265625 25.203125 
L 33.9375 71.578125 
L 41.109375 71.578125 
L 41.109375 25.203125 
L 50.78125 25.203125 
L 50.78125 17.140625 
L 41.109375 17.140625 
L 41.109375 0 
z
M 32.328125 25.203125 
L 32.328125 57.46875 
L 9.90625 25.203125 
z
" id="ArialMT-34"/>
      </defs>
      <g style="fill:#262626;" transform="translate(299.627344 290.877812)scale(0.1 -0.1)">
       <use xlink:href="#ArialMT-34"/>
       <use x="55.615234" xlink:href="#ArialMT-30"/>
       <use x="111.230469" xlink:href="#ArialMT-30"/>
      </g>
     </g>
    </g>
    <g id="xtick_4">
     <g id="line2d_4">
      <g>
       <use style="fill:#262626;stroke:#262626;" x="416.953125" xlink:href="#mff45c80401" y="270.72"/>
      </g>
     </g>
     <g id="text_4">
      <!-- 600 -->
      <defs>
       <path d="M 49.75 54.046875 
L 41.015625 53.375 
Q 39.84375 58.546875 37.703125 60.890625 
Q 34.125 64.65625 28.90625 64.65625 
Q 24.703125 64.65625 21.53125 62.3125 
Q 17.390625 59.28125 14.984375 53.46875 
Q 12.59375 47.65625 12.5 36.921875 
Q 15.671875 41.75 20.265625 44.09375 
Q 24.859375 46.4375 29.890625 46.4375 
Q 38.671875 46.4375 44.84375 39.96875 
Q 51.03125 33.5 51.03125 23.25 
Q 51.03125 16.5 48.125 10.71875 
Q 45.21875 4.9375 40.140625 1.859375 
Q 35.0625 -1.21875 28.609375 -1.21875 
Q 17.625 -1.21875 10.6875 6.859375 
Q 3.765625 14.9375 3.765625 33.5 
Q 3.765625 54.25 11.421875 63.671875 
Q 18.109375 71.875 29.4375 71.875 
Q 37.890625 71.875 43.28125 67.140625 
Q 48.6875 62.40625 49.75 54.046875 
z
M 13.875 23.1875 
Q 13.875 18.65625 15.796875 14.5 
Q 17.71875 10.359375 21.1875 8.171875 
Q 24.65625 6 28.46875 6 
Q 34.03125 6 38.03125 10.484375 
Q 42.046875 14.984375 42.046875 22.703125 
Q 42.046875 30.125 38.078125 34.390625 
Q 34.125 38.671875 28.125 38.671875 
Q 22.171875 38.671875 18.015625 34.390625 
Q 13.875 30.125 13.875 23.1875 
z
" id="ArialMT-36"/>
      </defs>
      <g style="fill:#262626;" transform="translate(408.611719 290.877812)scale(0.1 -0.1)">
       <use xlink:href="#ArialMT-36"/>
       <use x="55.615234" xlink:href="#ArialMT-30"/>
       <use x="111.230469" xlink:href="#ArialMT-30"/>
      </g>
     </g>
    </g>
    <g id="xtick_5">
     <g id="line2d_5">
      <g>
       <use style="fill:#262626;stroke:#262626;" x="525.9375" xlink:href="#mff45c80401" y="270.72"/>
      </g>
     </g>
     <g id="text_5">
      <!-- 800 -->
      <defs>
       <path d="M 17.671875 38.8125 
Q 12.203125 40.828125 9.5625 44.53125 
Q 6.9375 48.25 6.9375 53.421875 
Q 6.9375 61.234375 12.546875 66.546875 
Q 18.171875 71.875 27.484375 71.875 
Q 36.859375 71.875 42.578125 66.421875 
Q 48.296875 60.984375 48.296875 53.171875 
Q 48.296875 48.1875 45.671875 44.5 
Q 43.0625 40.828125 37.75 38.8125 
Q 44.34375 36.671875 47.78125 31.875 
Q 51.21875 27.09375 51.21875 20.453125 
Q 51.21875 11.28125 44.71875 5.03125 
Q 38.234375 -1.21875 27.640625 -1.21875 
Q 17.046875 -1.21875 10.546875 5.046875 
Q 4.046875 11.328125 4.046875 20.703125 
Q 4.046875 27.6875 7.59375 32.390625 
Q 11.140625 37.109375 17.671875 38.8125 
z
M 15.921875 53.71875 
Q 15.921875 48.640625 19.1875 45.40625 
Q 22.46875 42.1875 27.6875 42.1875 
Q 32.765625 42.1875 36.015625 45.375 
Q 39.265625 48.578125 39.265625 53.21875 
Q 39.265625 58.0625 35.90625 61.359375 
Q 32.5625 64.65625 27.59375 64.65625 
Q 22.5625 64.65625 19.234375 61.421875 
Q 15.921875 58.203125 15.921875 53.71875 
z
M 13.09375 20.65625 
Q 13.09375 16.890625 14.875 13.375 
Q 16.65625 9.859375 20.171875 7.921875 
Q 23.6875 6 27.734375 6 
Q 34.03125 6 38.125 10.046875 
Q 42.234375 14.109375 42.234375 20.359375 
Q 42.234375 26.703125 38.015625 30.859375 
Q 33.796875 35.015625 27.4375 35.015625 
Q 21.234375 35.015625 17.15625 30.90625 
Q 13.09375 26.8125 13.09375 20.65625 
z
" id="ArialMT-38"/>
      </defs>
      <g style="fill:#262626;" transform="translate(517.596094 290.877812)scale(0.1 -0.1)">
       <use xlink:href="#ArialMT-38"/>
       <use x="55.615234" xlink:href="#ArialMT-30"/>
       <use x="111.230469" xlink:href="#ArialMT-30"/>
      </g>
     </g>
    </g>
    <g id="xtick_6">
     <g id="line2d_6">
      <g>
       <use style="fill:#262626;stroke:#262626;" x="634.921875" xlink:href="#mff45c80401" y="270.72"/>
      </g>
     </g>
     <g id="text_6">
      <!-- 1000 -->
      <defs>
       <path d="M 37.25 0 
L 28.46875 0 
L 28.46875 56 
Q 25.296875 52.984375 20.140625 49.953125 
Q 14.984375 46.921875 10.890625 45.40625 
L 10.890625 53.90625 
Q 18.265625 57.375 23.78125 62.296875 
Q 29.296875 67.234375 31.59375 71.875 
L 37.25 71.875 
z
" id="ArialMT-31"/>
      </defs>
      <g style="fill:#262626;" transform="translate(623.8 290.877812)scale(0.1 -0.1)">
       <use xlink:href="#ArialMT-31"/>
       <use x="55.615234" xlink:href="#ArialMT-30"/>
       <use x="111.230469" xlink:href="#ArialMT-30"/>
       <use x="166.845703" xlink:href="#ArialMT-30"/>
      </g>
     </g>
    </g>
   </g>
   <g id="matplotlib.axis_2">
    <g id="ytick_1">
     <g id="line2d_7">
      <defs>
       <path d="M 0 0 
L -6 0 
" id="mf6eadfc255" style="stroke:#262626;"/>
      </defs>
      <g>
       <use style="fill:#262626;stroke:#262626;" x="90" xlink:href="#mf6eadfc255" y="270.72"/>
      </g>
     </g>
     <g id="text_7">
      <!-- −0.6 -->
      <defs>
       <path d="M 52.828125 31.203125 
L 5.5625 31.203125 
L 5.5625 39.40625 
L 52.828125 39.40625 
z
" id="ArialMT-2212"/>
       <path d="M 9.078125 0 
L 9.078125 10.015625 
L 19.09375 10.015625 
L 19.09375 0 
z
" id="ArialMT-2e"/>
      </defs>
      <g style="fill:#262626;" transform="translate(57.259375 274.298906)scale(0.1 -0.1)">
       <use xlink:href="#ArialMT-2212"/>
       <use x="58.398438" xlink:href="#ArialMT-30"/>
       <use x="114.013672" xlink:href="#ArialMT-2e"/>
       <use x="141.796875" xlink:href="#ArialMT-36"/>
      </g>
     </g>
    </g>
    <g id="ytick_2">
     <g id="line2d_8">
      <g>
       <use style="fill:#262626;stroke:#262626;" x="90" xlink:href="#mf6eadfc255" y="237.12"/>
      </g>
     </g>
     <g id="text_8">
      <!-- −0.4 -->
      <g style="fill:#262626;" transform="translate(57.259375 240.698906)scale(0.1 -0.1)">
       <use xlink:href="#ArialMT-2212"/>
       <use x="58.398438" xlink:href="#ArialMT-30"/>
       <use x="114.013672" xlink:href="#ArialMT-2e"/>
       <use x="141.796875" xlink:href="#ArialMT-34"/>
      </g>
     </g>
    </g>
    <g id="ytick_3">
     <g id="line2d_9">
      <g>
       <use style="fill:#262626;stroke:#262626;" x="90" xlink:href="#mf6eadfc255" y="203.52"/>
      </g>
     </g>
     <g id="text_9">
      <!-- −0.2 -->
      <g style="fill:#262626;" transform="translate(57.259375 207.098906)scale(0.1 -0.1)">
       <use xlink:href="#ArialMT-2212"/>
       <use x="58.398438" xlink:href="#ArialMT-30"/>
       <use x="114.013672" xlink:href="#ArialMT-2e"/>
       <use x="141.796875" xlink:href="#ArialMT-32"/>
      </g>
     </g>
    </g>
    <g id="ytick_4">
     <g id="line2d_10">
      <g>
       <use style="fill:#262626;stroke:#262626;" x="90" xlink:href="#mf6eadfc255" y="169.92"/>
      </g>
     </g>
     <g id="text_10">
      <!-- 0.0 -->
      <g style="fill:#262626;" transform="translate(63.1 173.498906)scale(0.1 -0.1)">
       <use xlink:href="#ArialMT-30"/>
       <use x="55.615234" xlink:href="#ArialMT-2e"/>
       <use x="83.398438" xlink:href="#ArialMT-30"/>
      </g>
     </g>
    </g>
    <g id="ytick_5">
     <g id="line2d_11">
      <g>
       <use style="fill:#262626;stroke:#262626;" x="90" xlink:href="#mf6eadfc255" y="136.32"/>
      </g>
     </g>
     <g id="text_11">
      <!-- 0.2 -->
      <g style="fill:#262626;" transform="translate(63.1 139.898906)scale(0.1 -0.1)">
       <use xlink:href="#ArialMT-30"/>
       <use x="55.615234" xlink:href="#ArialMT-2e"/>
       <use x="83.398438" xlink:href="#ArialMT-32"/>
      </g>
     </g>
    </g>
    <g id="ytick_6">
     <g id="line2d_12">
      <g>
       <use style="fill:#262626;stroke:#262626;" x="90" xlink:href="#mf6eadfc255" y="102.72"/>
      </g>
     </g>
     <g id="text_12">
      <!-- 0.4 -->
      <g style="fill:#262626;" transform="translate(63.1 106.298906)scale(0.1 -0.1)">
       <use xlink:href="#ArialMT-30"/>
       <use x="55.615234" xlink:href="#ArialMT-2e"/>
       <use x="83.398438" xlink:href="#ArialMT-34"/>
      </g>
     </g>
    </g>
    <g id="ytick_7">
     <g id="line2d_13">
      <g>
       <use style="fill:#262626;stroke:#262626;" x="90" xlink:href="#mf6eadfc255" y="69.12"/>
      </g>
     </g>
     <g id="text_13">
      <!-- 0.6 -->
      <g style="fill:#262626;" transform="translate(63.1 72.698906)scale(0.1 -0.1)">
       <use xlink:href="#ArialMT-30"/>
       <use x="55.615234" xlink:href="#ArialMT-2e"/>
       <use x="83.398438" xlink:href="#ArialMT-36"/>
      </g>
     </g>
    </g>
   </g>
   <g id="line2d_14">
    <path clip-path="url(#p6b9e31be5d)" d="M 90 159.138018 
L 91.634766 154.487871 
L 94.359375 144.536455 
L 95.449219 141.824297 
L 95.994141 140.850176 
L 96.539062 140.347734 
L 97.628906 140.009355 
L 98.173828 140.188799 
L 99.263672 140.839922 
L 100.353516 142.398516 
L 100.898438 143.849443 
L 103.623047 152.836992 
L 106.347656 159.589189 
L 107.982422 162.721758 
L 108.527344 163.213945 
L 109.072266 163.060137 
L 109.617188 162.378252 
L 110.162109 161.378496 
L 112.886719 152.67293 
L 113.976562 150.70418 
L 115.066406 149.935137 
L 115.611328 150.288896 
L 116.701172 151.293779 
L 117.791016 153.098467 
L 118.335938 153.93416 
L 119.970703 156.959062 
L 120.515625 157.33333 
L 121.060547 157.512773 
L 121.605469 157.159014 
L 122.150391 156.466875 
L 123.240234 154.293047 
L 123.785156 153.380449 
L 124.330078 153.067705 
L 124.875 153.457354 
L 125.419922 154.503252 
L 125.964844 156.266924 
L 127.054688 161.291338 
L 128.689453 170.894121 
L 129.234375 173.570391 
L 129.779297 175.446855 
L 130.324219 176.503008 
L 130.869141 176.959307 
L 131.414062 176.877275 
L 131.958984 175.980059 
L 132.503906 174.86751 
L 133.048828 172.975664 
L 133.59375 171.524736 
L 134.683594 167.920488 
L 135.773438 166.141436 
L 136.318359 165.756914 
L 137.408203 166.443926 
L 137.953125 167.705156 
L 138.498047 168.571611 
L 139.587891 171.58626 
L 140.677734 174.918779 
L 142.3125 180.312334 
L 143.402344 182.547686 
L 143.947266 183.244951 
L 144.492188 183.147539 
L 145.037109 182.686113 
L 145.582031 181.855547 
L 146.671875 179.686846 
L 147.761719 178.440996 
L 148.306641 178.497393 
L 148.851562 178.897295 
L 149.396484 179.507402 
L 151.03125 183.532061 
L 152.121094 186.218584 
L 152.666016 186.74666 
L 153.210938 187.628496 
L 154.845703 187.99251 
L 155.390625 188.05916 
L 155.935547 188.366777 
L 157.025391 189.176836 
L 157.570312 189.356279 
L 158.115234 189.166582 
L 158.660156 188.520586 
L 159.205078 187.044023 
L 159.75 184.813799 
L 160.839844 178.374346 
L 162.474609 166.197832 
L 164.109375 154.267412 
L 165.199219 147.812578 
L 165.744141 146.197588 
L 166.289062 145.120928 
L 166.833984 146.007891 
L 167.378906 147.463945 
L 167.923828 149.894121 
L 168.46875 152.929277 
L 170.648438 167.607744 
L 171.193359 170.371172 
L 171.738281 172.391191 
L 172.283203 173.913896 
L 172.828125 174.693193 
L 173.917969 174.841875 
L 174.462891 174.385576 
L 175.552734 172.739824 
L 176.642578 170.289141 
L 177.1875 168.669023 
L 178.822266 165.351885 
L 179.912109 163.752275 
L 181.546875 160.055742 
L 185.90625 145.059404 
L 186.996094 141.844805 
L 188.085938 139.952959 
L 189.175781 138.953203 
L 190.265625 139.014727 
L 191.355469 140.045244 
L 191.900391 140.86043 
L 192.990234 143.111162 
L 193.535156 144.382646 
L 196.804688 153.831621 
L 197.349609 155.964434 
L 197.894531 157.410234 
L 198.439453 159.194414 
L 198.984375 160.0096 
L 199.529297 160.537676 
L 200.074219 160.660723 
L 201.164062 159.732744 
L 201.708984 158.8304 
L 202.798828 155.872148 
L 204.433594 151.032305 
L 204.978516 149.832598 
L 206.068359 148.391924 
L 206.613281 148.238115 
L 207.158203 148.289385 
L 207.703125 148.812334 
L 208.792969 150.524736 
L 209.882812 153.047197 
L 210.972656 154.928789 
L 211.517578 155.159502 
L 212.0625 154.749346 
L 212.607422 153.964922 
L 213.152344 152.780596 
L 213.697266 151.278398 
L 214.242188 150.206865 
L 214.787109 148.720049 
L 215.332031 148.166338 
L 215.876953 148.417559 
L 216.421875 149.089189 
L 216.966797 150.857988 
L 217.511719 153.257402 
L 220.236328 167.8846 
L 220.78125 169.85335 
L 221.326172 171.083818 
L 221.871094 171.555498 
L 222.416016 171.755449 
L 222.960938 171.46834 
L 224.050781 170.15584 
L 224.595703 169.1971 
L 227.320312 163.034502 
L 227.865234 162.214189 
L 228.410156 161.793779 
L 228.955078 162.003984 
L 229.5 162.921709 
L 230.044922 164.203447 
L 231.679688 169.976396 
L 232.224609 172.334795 
L 233.314453 175.498125 
L 233.859375 176.692705 
L 234.404297 177.451494 
L 234.949219 178.010332 
L 235.494141 178.066729 
L 236.583984 177.128496 
L 237.673828 175.52376 
L 238.21875 174.893145 
L 238.763672 174.56502 
L 239.308594 174.872637 
L 240.398438 176.123613 
L 240.943359 177.359209 
L 242.033203 179.020342 
L 242.578125 179.215166 
L 244.757812 181.245439 
L 246.392578 183.393633 
L 247.482422 185.531572 
L 248.572266 187.408037 
L 249.117188 187.869463 
L 249.662109 187.966875 
L 250.207031 187.474687 
L 250.751953 186.151934 
L 251.296875 184.454912 
L 252.386719 178.143633 
L 253.476562 169.463701 
L 255.111328 155.154375 
L 255.65625 150.94002 
L 256.201172 147.761309 
L 257.291016 143.377764 
L 257.835938 142.839434 
L 258.380859 143.290605 
L 258.925781 144.408281 
L 259.470703 146.582109 
L 261.105469 156.174639 
L 261.650391 159.871172 
L 262.740234 165.162187 
L 263.285156 166.833574 
L 263.830078 168.120439 
L 264.919922 169.443193 
L 266.009766 169.284258 
L 266.554688 169.438066 
L 267.644531 168.935625 
L 269.279297 166.387529 
L 270.914062 163.178057 
L 271.458984 162.419268 
L 272.548828 160.035234 
L 273.638672 157.507646 
L 274.728516 154.067461 
L 275.273438 152.247393 
L 276.908203 145.495195 
L 277.998047 142.403643 
L 278.542969 141.409014 
L 279.087891 140.880937 
L 279.632812 140.009355 
L 280.722656 139.204424 
L 281.8125 138.189287 
L 282.357422 137.784258 
L 283.447266 138.389238 
L 283.992188 139.07625 
L 284.537109 140.076006 
L 285.082031 141.321855 
L 287.806641 150.258135 
L 289.441406 155.938799 
L 289.986328 157.63582 
L 291.076172 160.158281 
L 291.621094 160.588945 
L 292.166016 160.517168 
L 292.710938 160.086504 
L 293.800781 157.343584 
L 295.980469 150.617021 
L 297.070312 149.078936 
L 297.615234 149.007158 
L 298.160156 149.078936 
L 299.794922 152.026934 
L 300.884766 154.539141 
L 301.429688 155.646562 
L 301.974609 155.913164 
L 302.519531 156.031084 
L 303.609375 154.446855 
L 304.699219 151.201494 
L 305.244141 149.719805 
L 305.789062 148.755937 
L 306.333984 148.238115 
L 306.878906 148.171465 
L 307.423828 149.140459 
L 308.513672 152.801104 
L 310.693359 163.208818 
L 311.783203 167.34627 
L 312.873047 170.796709 
L 313.417969 171.899004 
L 313.962891 172.498857 
L 314.507812 172.401445 
L 315.052734 172.150225 
L 315.597656 171.29915 
L 317.232422 167.940996 
L 318.867188 163.603594 
L 319.412109 162.732012 
L 319.957031 162.547441 
L 320.501953 163.352373 
L 321.046875 164.757158 
L 321.591797 166.618242 
L 323.226562 173.314043 
L 324.316406 176.318437 
L 324.861328 177.118242 
L 325.40625 177.615557 
L 325.951172 177.928301 
L 326.496094 177.871904 
L 327.041016 177.948809 
L 327.585938 177.584795 
L 328.130859 177.707842 
L 328.675781 177.651445 
L 329.220703 177.897539 
L 329.765625 177.938555 
L 330.310547 178.179521 
L 330.855469 178.605059 
L 331.945312 179.076738 
L 333.580078 180.512285 
L 334.125 180.72249 
L 335.214844 181.501787 
L 335.759766 181.440264 
L 337.394531 183.46541 
L 339.029297 188.858965 
L 339.574219 190.976396 
L 340.664062 193.78084 
L 341.208984 194.032061 
L 341.753906 193.24251 
L 342.298828 192.16585 
L 343.388672 186.997881 
L 343.933594 183.675615 
L 345.568359 169.791826 
L 346.658203 159.835283 
L 347.203125 155.4825 
L 348.292969 149.473711 
L 348.837891 148.140703 
L 349.382812 147.407549 
L 349.927734 147.669023 
L 350.472656 149.022539 
L 351.017578 151.037432 
L 352.107422 156.08748 
L 352.652344 159.076494 
L 354.287109 165.110918 
L 354.832031 166.910479 
L 357.011719 171.463213 
L 357.556641 172.07332 
L 358.101562 172.145098 
L 359.191406 171.509355 
L 360.826172 170.268633 
L 361.371094 169.345781 
L 362.460938 168.110186 
L 363.550781 166.126055 
L 364.640625 163.30623 
L 365.185547 161.670732 
L 367.910156 151.565508 
L 369 148.1971 
L 371.724609 142.111406 
L 373.904297 139.004473 
L 374.994141 139.183916 
L 375.539062 139.629961 
L 376.083984 140.296465 
L 377.173828 142.803545 
L 378.808594 148.150957 
L 381.533203 158.466387 
L 382.623047 161.245195 
L 383.167969 161.660479 
L 383.712891 161.301592 
L 384.257812 160.670977 
L 384.802734 159.409746 
L 385.892578 155.877275 
L 386.982422 152.185869 
L 387.527344 151.032305 
L 388.072266 150.227373 
L 388.617188 150.196611 
L 389.162109 150.816973 
L 389.707031 152.093584 
L 390.251953 153.805986 
L 390.796875 155.149248 
L 391.886719 156.928301 
L 392.431641 157.025713 
L 393.521484 156.753984 
L 394.611328 155.262041 
L 395.701172 152.929277 
L 396.791016 150.447832 
L 397.335938 149.489092 
L 397.880859 149.360918 
L 398.425781 149.868486 
L 398.970703 151.001543 
L 399.515625 152.478105 
L 400.605469 156.225908 
L 402.785156 166.038896 
L 404.419922 172.098955 
L 404.964844 173.396074 
L 405.509766 174.144609 
L 406.054688 174.359941 
L 406.599609 173.79085 
L 407.144531 172.826982 
L 408.234375 169.976396 
L 408.779297 167.961504 
L 409.324219 166.382402 
L 409.869141 165.346758 
L 410.414062 164.782793 
L 410.958984 164.849443 
L 411.503906 165.654375 
L 412.59375 168.571611 
L 413.683594 171.868242 
L 414.228516 173.749834 
L 415.863281 177.523271 
L 416.408203 178.174395 
L 416.953125 178.538408 
L 417.498047 179.179277 
L 419.132812 179.6971 
L 419.677734 179.794512 
L 420.767578 181.086504 
L 421.3125 181.993975 
L 421.857422 182.265703 
L 422.402344 182.711748 
L 422.947266 182.38875 
L 423.492188 182.306719 
L 424.037109 182.029863 
L 424.582031 181.993975 
L 425.671875 181.624834 
L 426.761719 181.973467 
L 427.306641 182.434893 
L 427.851562 183.188555 
L 428.396484 184.23958 
L 429.486328 187.82332 
L 431.666016 197.026201 
L 432.210938 198.733477 
L 432.755859 199.589678 
L 433.300781 199.717852 
L 433.845703 198.338701 
L 434.390625 196.021318 
L 434.935547 192.729814 
L 436.025391 183.942217 
L 437.660156 169.581621 
L 438.75 161.824541 
L 439.294922 158.609941 
L 439.839844 156.123369 
L 440.384766 154.272539 
L 440.929688 153.452227 
L 441.474609 153.308672 
L 442.019531 153.800859 
L 442.564453 154.949297 
L 443.109375 156.451494 
L 443.654297 158.517656 
L 444.199219 161.060625 
L 445.833984 166.905352 
L 446.923828 169.80208 
L 447.46875 170.699297 
L 448.013672 171.893877 
L 448.558594 172.49373 
L 449.103516 173.452471 
L 450.738281 175.313555 
L 451.283203 175.308428 
L 451.828125 175.662187 
L 452.917969 174.893145 
L 454.007812 173.283281 
L 455.642578 169.832842 
L 457.277344 165.013506 
L 458.912109 159.214922 
L 461.091797 152.929277 
L 461.636719 151.586016 
L 462.181641 150.617021 
L 464.361328 145.720781 
L 464.90625 144.126299 
L 465.996094 142.752275 
L 466.541016 142.634355 
L 467.085938 142.916338 
L 467.630859 143.423906 
L 468.175781 144.398027 
L 469.265625 146.971758 
L 469.810547 148.412432 
L 470.900391 152.92415 
L 472.535156 161.045244 
L 473.080078 163.162676 
L 473.625 164.536699 
L 474.169922 165.008379 
L 474.714844 164.869951 
L 475.259766 163.993242 
L 475.804688 162.88582 
L 477.439453 157.917803 
L 477.984375 156.338701 
L 478.529297 155.282549 
L 479.074219 155.113359 
L 479.619141 155.328691 
L 480.164062 156.051592 
L 480.708984 157.374346 
L 481.253906 158.230547 
L 481.798828 159.548174 
L 482.34375 160.363359 
L 483.433594 161.327227 
L 483.978516 161.163164 
L 485.068359 160.107012 
L 486.158203 158.17415 
L 487.248047 156.195146 
L 487.792969 155.436357 
L 488.337891 154.344316 
L 489.427734 153.047197 
L 490.517578 153.754717 
L 491.0625 154.82625 
L 491.607422 156.523271 
L 492.697266 161.050371 
L 494.332031 169.653398 
L 494.876953 172.001543 
L 495.421875 173.703691 
L 495.966797 174.81624 
L 496.511719 175.344316 
L 497.056641 175.713457 
L 497.601562 175.385332 
L 498.146484 174.672686 
L 499.236328 172.30916 
L 499.78125 171.022295 
L 500.871094 168.146074 
L 501.416016 167.628252 
L 501.960938 167.433428 
L 502.505859 167.894854 
L 504.140625 171.740068 
L 504.685547 173.529375 
L 505.775391 176.041582 
L 506.320312 177.036211 
L 507.955078 178.799883 
L 509.044922 179.850908 
L 511.224609 183.557695 
L 511.769531 183.967852 
L 512.314453 184.618975 
L 512.859375 184.982988 
L 513.949219 185.090654 
L 514.494141 184.875322 
L 515.039062 184.803545 
L 515.583984 184.362627 
L 516.128906 184.085771 
L 517.21875 182.804033 
L 517.763672 182.219561 
L 518.308594 181.860674 
L 519.398438 183.178301 
L 519.943359 185.116289 
L 521.033203 190.479082 
L 521.578125 194.073076 
L 523.212891 202.255693 
L 523.757812 203.891191 
L 524.302734 204.58333 
L 524.847656 204.029619 
L 525.392578 202.670977 
L 526.482422 197.43123 
L 528.117188 185.444414 
L 529.751953 172.314287 
L 530.841797 164.998125 
L 531.386719 162.214189 
L 531.931641 160.306963 
L 532.476562 159.220049 
L 533.021484 159.168779 
L 533.566406 159.496904 
L 534.111328 160.12752 
L 535.746094 164.152178 
L 536.291016 165.813311 
L 539.560547 173.529375 
L 540.105469 175.159746 
L 541.740234 178.594805 
L 542.285156 179.035723 
L 543.919922 179.379229 
L 545.009766 178.799883 
L 545.554688 178.246172 
L 546.099609 177.425859 
L 547.734375 173.226885 
L 549.369141 168.874102 
L 552.09375 160.79915 
L 554.273438 155.538896 
L 554.818359 154.631426 
L 556.453125 149.637773 
L 556.998047 148.07918 
L 557.542969 146.905107 
L 558.087891 146.207842 
L 558.632812 145.797686 
L 559.177734 146.100176 
L 559.722656 146.776934 
L 560.267578 148.299639 
L 561.357422 152.765215 
L 564.082031 165.541582 
L 564.626953 167.115557 
L 565.171875 167.720537 
L 565.716797 167.761553 
L 566.261719 167.41292 
L 566.806641 166.546465 
L 567.351562 164.982744 
L 567.896484 163.875322 
L 568.441406 162.203936 
L 568.986328 160.958086 
L 570.076172 160.235186 
L 570.621094 160.870928 
L 571.166016 161.234941 
L 572.255859 163.106279 
L 573.345703 164.0804 
L 573.890625 164.19832 
L 574.980469 164.869951 
L 576.070312 165.003252 
L 576.615234 164.480303 
L 577.705078 162.603838 
L 578.25 160.860674 
L 579.884766 156.969316 
L 580.429688 156.231035 
L 580.974609 155.774736 
L 581.519531 155.918291 
L 582.064453 156.513018 
L 582.609375 157.656328 
L 583.699219 162.014238 
L 585.878906 173.14998 
L 586.96875 176.713213 
L 587.513672 177.656572 
L 588.058594 177.984697 
L 589.148438 176.949053 
L 590.783203 173.288408 
L 591.328125 172.257891 
L 592.417969 171.41707 
L 592.962891 171.591387 
L 593.507812 171.893877 
L 594.052734 172.334795 
L 595.6875 174.56502 
L 596.232422 175.64168 
L 596.777344 176.308184 
L 597.322266 177.451494 
L 598.412109 178.676836 
L 598.957031 179.004961 
L 600.046875 180.394365 
L 600.591797 180.871172 
L 601.136719 181.61458 
L 602.226562 183.947344 
L 602.771484 185.31624 
L 603.861328 187.279863 
L 604.40625 187.889971 
L 605.496094 187.700273 
L 606.041016 186.869707 
L 607.130859 184.3575 
L 608.220703 181.7325 
L 608.765625 181.101885 
L 609.310547 181.004473 
L 609.855469 181.347979 
L 610.400391 182.347734 
L 611.490234 186.398027 
L 613.125 195.503496 
L 614.214844 201.660967 
L 614.759766 204.168047 
L 615.304688 205.557451 
L 615.849609 206.141924 
L 616.394531 206.029131 
L 616.939453 204.64998 
L 617.484375 202.568437 
L 618.029297 199.851152 
L 619.119141 192.222246 
L 621.298828 175.795488 
L 622.388672 169.309893 
L 623.478516 164.413652 
L 624.023438 162.921709 
L 624.568359 161.921953 
L 625.113281 161.547686 
L 625.658203 161.701494 
L 626.203125 162.301348 
L 628.382812 166.213213 
L 629.472656 167.858965 
L 632.742188 177.410479 
L 633.832031 179.179277 
L 634.376953 179.850908 
L 634.921875 180.040605 
L 636.011719 180.045732 
L 636.556641 179.548418 
L 637.101562 179.286943 
L 638.736328 176.395342 
L 639.826172 173.657549 
L 641.460938 168.879229 
L 643.640625 164.208574 
L 644.185547 163.521562 
L 644.730469 162.532061 
L 645.820312 159.461016 
L 646.910156 155.256914 
L 647.455078 152.811357 
L 647.455078 152.811357 
" style="fill:none;stroke:#4c72b0;stroke-linecap:round;stroke-width:1.75;"/>
   </g>
   <g id="patch_3">
    <path d="M 90 270.72 
L 90 69.12 
" style="fill:none;stroke:#262626;stroke-linecap:square;stroke-linejoin:miter;stroke-width:1.25;"/>
   </g>
   <g id="patch_4">
    <path d="M 90 270.72 
L 648 270.72 
" style="fill:none;stroke:#262626;stroke-linecap:square;stroke-linejoin:miter;stroke-width:1.25;"/>
   </g>
  </g>
  <g id="axes_2">
   <g id="patch_5">
    <path d="M 90 512.64 
L 648 512.64 
L 648 311.04 
L 90 311.04 
z
" style="fill:#ffffff;"/>
   </g>
   <g id="matplotlib.axis_3">
    <g id="xtick_7">
     <g id="line2d_15">
      <g>
       <use style="fill:#262626;stroke:#262626;" x="218.197478" xlink:href="#mff45c80401" y="512.64"/>
      </g>
     </g>
     <g id="text_14">
      <!-- $\mathdefault{10^{2}}$ -->
      <g style="fill:#262626;" transform="translate(210.347478 535.9525)scale(0.1 -0.1)">
       <use transform="translate(0 0.99375)" xlink:href="#ArialMT-31"/>
       <use transform="translate(55.615234 0.99375)" xlink:href="#ArialMT-30"/>
       <use transform="translate(112.972813 70.6875)scale(0.7)" xlink:href="#ArialMT-32"/>
      </g>
     </g>
    </g>
    <g id="xtick_8">
     <g id="line2d_16">
      <g>
       <use style="fill:#262626;stroke:#262626;" x="401.606604" xlink:href="#mff45c80401" y="512.64"/>
      </g>
     </g>
     <g id="text_15">
      <!-- $\mathdefault{10^{3}}$ -->
      <defs>
       <path d="M 4.203125 18.890625 
L 12.984375 20.0625 
Q 14.5 12.59375 18.140625 9.296875 
Q 21.78125 6 27 6 
Q 33.203125 6 37.46875 10.296875 
Q 41.75 14.59375 41.75 20.953125 
Q 41.75 27 37.796875 30.921875 
Q 33.84375 34.859375 27.734375 34.859375 
Q 25.25 34.859375 21.53125 33.890625 
L 22.515625 41.609375 
Q 23.390625 41.5 23.921875 41.5 
Q 29.546875 41.5 34.03125 44.421875 
Q 38.53125 47.359375 38.53125 53.46875 
Q 38.53125 58.296875 35.25 61.46875 
Q 31.984375 64.65625 26.8125 64.65625 
Q 21.6875 64.65625 18.265625 61.421875 
Q 14.84375 58.203125 13.875 51.765625 
L 5.078125 53.328125 
Q 6.6875 62.15625 12.390625 67.015625 
Q 18.109375 71.875 26.609375 71.875 
Q 32.46875 71.875 37.390625 69.359375 
Q 42.328125 66.84375 44.9375 62.5 
Q 47.5625 58.15625 47.5625 53.265625 
Q 47.5625 48.640625 45.0625 44.828125 
Q 42.578125 41.015625 37.703125 38.765625 
Q 44.046875 37.3125 47.5625 32.6875 
Q 51.078125 28.078125 51.078125 21.140625 
Q 51.078125 11.765625 44.234375 5.25 
Q 37.40625 -1.265625 26.953125 -1.265625 
Q 17.53125 -1.265625 11.296875 4.34375 
Q 5.078125 9.96875 4.203125 18.890625 
z
" id="ArialMT-33"/>
      </defs>
      <g style="fill:#262626;" transform="translate(393.756604 535.9525)scale(0.1 -0.1)">
       <use transform="translate(0 0.99375)" xlink:href="#ArialMT-31"/>
       <use transform="translate(55.615234 0.99375)" xlink:href="#ArialMT-30"/>
       <use transform="translate(112.972813 70.6875)scale(0.7)" xlink:href="#ArialMT-33"/>
      </g>
     </g>
    </g>
    <g id="xtick_9">
     <g id="line2d_17">
      <g>
       <use style="fill:#262626;stroke:#262626;" x="585.01573" xlink:href="#mff45c80401" y="512.64"/>
      </g>
     </g>
     <g id="text_16">
      <!-- $\mathdefault{10^{4}}$ -->
      <g style="fill:#262626;" transform="translate(577.16573 535.8525)scale(0.1 -0.1)">
       <use transform="translate(0 0.201563)" xlink:href="#ArialMT-31"/>
       <use transform="translate(55.615234 0.201563)" xlink:href="#ArialMT-30"/>
       <use transform="translate(112.972813 69.895313)scale(0.7)" xlink:href="#ArialMT-34"/>
      </g>
     </g>
    </g>
    <g id="xtick_10">
     <g id="line2d_18">
      <defs>
       <path d="M 0 0 
L 0 3 
" id="mec072d0da8" style="stroke:#262626;stroke-width:0.5;"/>
      </defs>
      <g>
       <use style="fill:#262626;stroke:#262626;stroke-width:0.5;" x="90" xlink:href="#mec072d0da8" y="512.64"/>
      </g>
     </g>
    </g>
    <g id="xtick_11">
     <g id="line2d_19">
      <g>
       <use style="fill:#262626;stroke:#262626;stroke-width:0.5;" x="122.296744" xlink:href="#mec072d0da8" y="512.64"/>
      </g>
     </g>
    </g>
    <g id="xtick_12">
     <g id="line2d_20">
      <g>
       <use style="fill:#262626;stroke:#262626;stroke-width:0.5;" x="145.211648" xlink:href="#mec072d0da8" y="512.64"/>
      </g>
     </g>
    </g>
    <g id="xtick_13">
     <g id="line2d_21">
      <g>
       <use style="fill:#262626;stroke:#262626;stroke-width:0.5;" x="162.985829" xlink:href="#mec072d0da8" y="512.64"/>
      </g>
     </g>
    </g>
    <g id="xtick_14">
     <g id="line2d_22">
      <g>
       <use style="fill:#262626;stroke:#262626;stroke-width:0.5;" x="177.508392" xlink:href="#mec072d0da8" y="512.64"/>
      </g>
     </g>
    </g>
    <g id="xtick_15">
     <g id="line2d_23">
      <g>
       <use style="fill:#262626;stroke:#262626;stroke-width:0.5;" x="189.787045" xlink:href="#mec072d0da8" y="512.64"/>
      </g>
     </g>
    </g>
    <g id="xtick_16">
     <g id="line2d_24">
      <g>
       <use style="fill:#262626;stroke:#262626;stroke-width:0.5;" x="200.423297" xlink:href="#mec072d0da8" y="512.64"/>
      </g>
     </g>
    </g>
    <g id="xtick_17">
     <g id="line2d_25">
      <g>
       <use style="fill:#262626;stroke:#262626;stroke-width:0.5;" x="209.805136" xlink:href="#mec072d0da8" y="512.64"/>
      </g>
     </g>
    </g>
    <g id="xtick_18">
     <g id="line2d_26">
      <g>
       <use style="fill:#262626;stroke:#262626;stroke-width:0.5;" x="273.409126" xlink:href="#mec072d0da8" y="512.64"/>
      </g>
     </g>
    </g>
    <g id="xtick_19">
     <g id="line2d_27">
      <g>
       <use style="fill:#262626;stroke:#262626;stroke-width:0.5;" x="305.70587" xlink:href="#mec072d0da8" y="512.64"/>
      </g>
     </g>
    </g>
    <g id="xtick_20">
     <g id="line2d_28">
      <g>
       <use style="fill:#262626;stroke:#262626;stroke-width:0.5;" x="328.620775" xlink:href="#mec072d0da8" y="512.64"/>
      </g>
     </g>
    </g>
    <g id="xtick_21">
     <g id="line2d_29">
      <g>
       <use style="fill:#262626;stroke:#262626;stroke-width:0.5;" x="346.394955" xlink:href="#mec072d0da8" y="512.64"/>
      </g>
     </g>
    </g>
    <g id="xtick_22">
     <g id="line2d_30">
      <g>
       <use style="fill:#262626;stroke:#262626;stroke-width:0.5;" x="360.917518" xlink:href="#mec072d0da8" y="512.64"/>
      </g>
     </g>
    </g>
    <g id="xtick_23">
     <g id="line2d_31">
      <g>
       <use style="fill:#262626;stroke:#262626;stroke-width:0.5;" x="373.196171" xlink:href="#mec072d0da8" y="512.64"/>
      </g>
     </g>
    </g>
    <g id="xtick_24">
     <g id="line2d_32">
      <g>
       <use style="fill:#262626;stroke:#262626;stroke-width:0.5;" x="383.832423" xlink:href="#mec072d0da8" y="512.64"/>
      </g>
     </g>
    </g>
    <g id="xtick_25">
     <g id="line2d_33">
      <g>
       <use style="fill:#262626;stroke:#262626;stroke-width:0.5;" x="393.214262" xlink:href="#mec072d0da8" y="512.64"/>
      </g>
     </g>
    </g>
    <g id="xtick_26">
     <g id="line2d_34">
      <g>
       <use style="fill:#262626;stroke:#262626;stroke-width:0.5;" x="456.818252" xlink:href="#mec072d0da8" y="512.64"/>
      </g>
     </g>
    </g>
    <g id="xtick_27">
     <g id="line2d_35">
      <g>
       <use style="fill:#262626;stroke:#262626;stroke-width:0.5;" x="489.114996" xlink:href="#mec072d0da8" y="512.64"/>
      </g>
     </g>
    </g>
    <g id="xtick_28">
     <g id="line2d_36">
      <g>
       <use style="fill:#262626;stroke:#262626;stroke-width:0.5;" x="512.029901" xlink:href="#mec072d0da8" y="512.64"/>
      </g>
     </g>
    </g>
    <g id="xtick_29">
     <g id="line2d_37">
      <g>
       <use style="fill:#262626;stroke:#262626;stroke-width:0.5;" x="529.804081" xlink:href="#mec072d0da8" y="512.64"/>
      </g>
     </g>
    </g>
    <g id="xtick_30">
     <g id="line2d_38">
      <g>
       <use style="fill:#262626;stroke:#262626;stroke-width:0.5;" x="544.326645" xlink:href="#mec072d0da8" y="512.64"/>
      </g>
     </g>
    </g>
    <g id="xtick_31">
     <g id="line2d_39">
      <g>
       <use style="fill:#262626;stroke:#262626;stroke-width:0.5;" x="556.605297" xlink:href="#mec072d0da8" y="512.64"/>
      </g>
     </g>
    </g>
    <g id="xtick_32">
     <g id="line2d_40">
      <g>
       <use style="fill:#262626;stroke:#262626;stroke-width:0.5;" x="567.241549" xlink:href="#mec072d0da8" y="512.64"/>
      </g>
     </g>
    </g>
    <g id="xtick_33">
     <g id="line2d_41">
      <g>
       <use style="fill:#262626;stroke:#262626;stroke-width:0.5;" x="576.623389" xlink:href="#mec072d0da8" y="512.64"/>
      </g>
     </g>
    </g>
    <g id="xtick_34">
     <g id="line2d_42">
      <g>
       <use style="fill:#262626;stroke:#262626;stroke-width:0.5;" x="640.227378" xlink:href="#mec072d0da8" y="512.64"/>
      </g>
     </g>
    </g>
   </g>
   <g id="matplotlib.axis_4">
    <g id="ytick_8">
     <g id="line2d_43">
      <g>
       <use style="fill:#262626;stroke:#262626;" x="90" xlink:href="#mf6eadfc255" y="512.64"/>
      </g>
     </g>
     <g id="text_17">
      <!-- $\mathdefault{10^{-5}}$ -->
      <defs>
       <path d="M 4.15625 18.75 
L 13.375 19.53125 
Q 14.40625 12.796875 18.140625 9.390625 
Q 21.875 6 27.15625 6 
Q 33.5 6 37.890625 10.78125 
Q 42.28125 15.578125 42.28125 23.484375 
Q 42.28125 31 38.0625 35.34375 
Q 33.84375 39.703125 27 39.703125 
Q 22.75 39.703125 19.328125 37.765625 
Q 15.921875 35.84375 13.96875 32.765625 
L 5.71875 33.84375 
L 12.640625 70.609375 
L 48.25 70.609375 
L 48.25 62.203125 
L 19.671875 62.203125 
L 15.828125 42.96875 
Q 22.265625 47.46875 29.34375 47.46875 
Q 38.71875 47.46875 45.15625 40.96875 
Q 51.609375 34.46875 51.609375 24.265625 
Q 51.609375 14.546875 45.953125 7.46875 
Q 39.0625 -1.21875 27.15625 -1.21875 
Q 17.390625 -1.21875 11.203125 4.25 
Q 5.03125 9.71875 4.15625 18.75 
z
" id="ArialMT-35"/>
      </defs>
      <g style="fill:#262626;" transform="translate(57.2 517.74625)scale(0.1 -0.1)">
       <use transform="translate(0 0.879688)" xlink:href="#ArialMT-31"/>
       <use transform="translate(55.615234 0.879688)" xlink:href="#ArialMT-30"/>
       <use transform="translate(112.972813 70.573438)scale(0.7)" xlink:href="#ArialMT-2212"/>
       <use transform="translate(153.851719 70.573438)scale(0.7)" xlink:href="#ArialMT-35"/>
      </g>
     </g>
    </g>
    <g id="ytick_9">
     <g id="line2d_44">
      <g>
       <use style="fill:#262626;stroke:#262626;" x="90" xlink:href="#mf6eadfc255" y="465.767507"/>
      </g>
     </g>
     <g id="text_18">
      <!-- $\mathdefault{10^{-4}}$ -->
      <g style="fill:#262626;" transform="translate(57.2 470.873757)scale(0.1 -0.1)">
       <use transform="translate(0 0.201563)" xlink:href="#ArialMT-31"/>
       <use transform="translate(55.615234 0.201563)" xlink:href="#ArialMT-30"/>
       <use transform="translate(112.972813 69.895313)scale(0.7)" xlink:href="#ArialMT-2212"/>
       <use transform="translate(153.851719 69.895313)scale(0.7)" xlink:href="#ArialMT-34"/>
      </g>
     </g>
    </g>
    <g id="ytick_10">
     <g id="line2d_45">
      <g>
       <use style="fill:#262626;stroke:#262626;" x="90" xlink:href="#mf6eadfc255" y="418.895013"/>
      </g>
     </g>
     <g id="text_19">
      <!-- $\mathdefault{10^{-3}}$ -->
      <g style="fill:#262626;" transform="translate(57.2 424.051263)scale(0.1 -0.1)">
       <use transform="translate(0 0.99375)" xlink:href="#ArialMT-31"/>
       <use transform="translate(55.615234 0.99375)" xlink:href="#ArialMT-30"/>
       <use transform="translate(112.972813 70.6875)scale(0.7)" xlink:href="#ArialMT-2212"/>
       <use transform="translate(153.851719 70.6875)scale(0.7)" xlink:href="#ArialMT-33"/>
      </g>
     </g>
    </g>
    <g id="ytick_11">
     <g id="line2d_46">
      <g>
       <use style="fill:#262626;stroke:#262626;" x="90" xlink:href="#mf6eadfc255" y="372.02252"/>
      </g>
     </g>
     <g id="text_20">
      <!-- $\mathdefault{10^{-2}}$ -->
      <g style="fill:#262626;" transform="translate(57.2 377.17877)scale(0.1 -0.1)">
       <use transform="translate(0 0.99375)" xlink:href="#ArialMT-31"/>
       <use transform="translate(55.615234 0.99375)" xlink:href="#ArialMT-30"/>
       <use transform="translate(112.972813 70.6875)scale(0.7)" xlink:href="#ArialMT-2212"/>
       <use transform="translate(153.851719 70.6875)scale(0.7)" xlink:href="#ArialMT-32"/>
      </g>
     </g>
    </g>
    <g id="ytick_12">
     <g id="line2d_47">
      <g>
       <use style="fill:#262626;stroke:#262626;" x="90" xlink:href="#mf6eadfc255" y="325.150026"/>
      </g>
     </g>
     <g id="text_21">
      <!-- $\mathdefault{10^{-1}}$ -->
      <g style="fill:#262626;" transform="translate(57.2 330.306276)scale(0.1 -0.1)">
       <use transform="translate(0 0.99375)" xlink:href="#ArialMT-31"/>
       <use transform="translate(55.615234 0.99375)" xlink:href="#ArialMT-30"/>
       <use transform="translate(112.972813 70.6875)scale(0.7)" xlink:href="#ArialMT-2212"/>
       <use transform="translate(153.851719 70.6875)scale(0.7)" xlink:href="#ArialMT-31"/>
      </g>
     </g>
    </g>
    <g id="ytick_13">
     <g id="line2d_48">
      <defs>
       <path d="M 0 0 
L -3 0 
" id="mcfc5a7ef6f" style="stroke:#262626;stroke-width:0.5;"/>
      </defs>
      <g>
       <use style="fill:#262626;stroke:#262626;stroke-width:0.5;" x="90" xlink:href="#mcfc5a7ef6f" y="498.529974"/>
      </g>
     </g>
    </g>
    <g id="ytick_14">
     <g id="line2d_49">
      <g>
       <use style="fill:#262626;stroke:#262626;stroke-width:0.5;" x="90" xlink:href="#mcfc5a7ef6f" y="490.276137"/>
      </g>
     </g>
    </g>
    <g id="ytick_15">
     <g id="line2d_50">
      <g>
       <use style="fill:#262626;stroke:#262626;stroke-width:0.5;" x="90" xlink:href="#mcfc5a7ef6f" y="484.419947"/>
      </g>
     </g>
    </g>
    <g id="ytick_16">
     <g id="line2d_51">
      <g>
       <use style="fill:#262626;stroke:#262626;stroke-width:0.5;" x="90" xlink:href="#mcfc5a7ef6f" y="479.877533"/>
      </g>
     </g>
    </g>
    <g id="ytick_17">
     <g id="line2d_52">
      <g>
       <use style="fill:#262626;stroke:#262626;stroke-width:0.5;" x="90" xlink:href="#mcfc5a7ef6f" y="476.166111"/>
      </g>
     </g>
    </g>
    <g id="ytick_18">
     <g id="line2d_53">
      <g>
       <use style="fill:#262626;stroke:#262626;stroke-width:0.5;" x="90" xlink:href="#mcfc5a7ef6f" y="473.028148"/>
      </g>
     </g>
    </g>
    <g id="ytick_19">
     <g id="line2d_54">
      <g>
       <use style="fill:#262626;stroke:#262626;stroke-width:0.5;" x="90" xlink:href="#mcfc5a7ef6f" y="470.309921"/>
      </g>
     </g>
    </g>
    <g id="ytick_20">
     <g id="line2d_55">
      <g>
       <use style="fill:#262626;stroke:#262626;stroke-width:0.5;" x="90" xlink:href="#mcfc5a7ef6f" y="467.912274"/>
      </g>
     </g>
    </g>
    <g id="ytick_21">
     <g id="line2d_56">
      <g>
       <use style="fill:#262626;stroke:#262626;stroke-width:0.5;" x="90" xlink:href="#mcfc5a7ef6f" y="451.65748"/>
      </g>
     </g>
    </g>
    <g id="ytick_22">
     <g id="line2d_57">
      <g>
       <use style="fill:#262626;stroke:#262626;stroke-width:0.5;" x="90" xlink:href="#mcfc5a7ef6f" y="443.403644"/>
      </g>
     </g>
    </g>
    <g id="ytick_23">
     <g id="line2d_58">
      <g>
       <use style="fill:#262626;stroke:#262626;stroke-width:0.5;" x="90" xlink:href="#mcfc5a7ef6f" y="437.547454"/>
      </g>
     </g>
    </g>
    <g id="ytick_24">
     <g id="line2d_59">
      <g>
       <use style="fill:#262626;stroke:#262626;stroke-width:0.5;" x="90" xlink:href="#mcfc5a7ef6f" y="433.00504"/>
      </g>
     </g>
    </g>
    <g id="ytick_25">
     <g id="line2d_60">
      <g>
       <use style="fill:#262626;stroke:#262626;stroke-width:0.5;" x="90" xlink:href="#mcfc5a7ef6f" y="429.293617"/>
      </g>
     </g>
    </g>
    <g id="ytick_26">
     <g id="line2d_61">
      <g>
       <use style="fill:#262626;stroke:#262626;stroke-width:0.5;" x="90" xlink:href="#mcfc5a7ef6f" y="426.155654"/>
      </g>
     </g>
    </g>
    <g id="ytick_27">
     <g id="line2d_62">
      <g>
       <use style="fill:#262626;stroke:#262626;stroke-width:0.5;" x="90" xlink:href="#mcfc5a7ef6f" y="423.437427"/>
      </g>
     </g>
    </g>
    <g id="ytick_28">
     <g id="line2d_63">
      <g>
       <use style="fill:#262626;stroke:#262626;stroke-width:0.5;" x="90" xlink:href="#mcfc5a7ef6f" y="421.039781"/>
      </g>
     </g>
    </g>
    <g id="ytick_29">
     <g id="line2d_64">
      <g>
       <use style="fill:#262626;stroke:#262626;stroke-width:0.5;" x="90" xlink:href="#mcfc5a7ef6f" y="404.784987"/>
      </g>
     </g>
    </g>
    <g id="ytick_30">
     <g id="line2d_65">
      <g>
       <use style="fill:#262626;stroke:#262626;stroke-width:0.5;" x="90" xlink:href="#mcfc5a7ef6f" y="396.53115"/>
      </g>
     </g>
    </g>
    <g id="ytick_31">
     <g id="line2d_66">
      <g>
       <use style="fill:#262626;stroke:#262626;stroke-width:0.5;" x="90" xlink:href="#mcfc5a7ef6f" y="390.67496"/>
      </g>
     </g>
    </g>
    <g id="ytick_32">
     <g id="line2d_67">
      <g>
       <use style="fill:#262626;stroke:#262626;stroke-width:0.5;" x="90" xlink:href="#mcfc5a7ef6f" y="386.132546"/>
      </g>
     </g>
    </g>
    <g id="ytick_33">
     <g id="line2d_68">
      <g>
       <use style="fill:#262626;stroke:#262626;stroke-width:0.5;" x="90" xlink:href="#mcfc5a7ef6f" y="382.421124"/>
      </g>
     </g>
    </g>
    <g id="ytick_34">
     <g id="line2d_69">
      <g>
       <use style="fill:#262626;stroke:#262626;stroke-width:0.5;" x="90" xlink:href="#mcfc5a7ef6f" y="379.283161"/>
      </g>
     </g>
    </g>
    <g id="ytick_35">
     <g id="line2d_70">
      <g>
       <use style="fill:#262626;stroke:#262626;stroke-width:0.5;" x="90" xlink:href="#mcfc5a7ef6f" y="376.564934"/>
      </g>
     </g>
    </g>
    <g id="ytick_36">
     <g id="line2d_71">
      <g>
       <use style="fill:#262626;stroke:#262626;stroke-width:0.5;" x="90" xlink:href="#mcfc5a7ef6f" y="374.167288"/>
      </g>
     </g>
    </g>
    <g id="ytick_37">
     <g id="line2d_72">
      <g>
       <use style="fill:#262626;stroke:#262626;stroke-width:0.5;" x="90" xlink:href="#mcfc5a7ef6f" y="357.912493"/>
      </g>
     </g>
    </g>
    <g id="ytick_38">
     <g id="line2d_73">
      <g>
       <use style="fill:#262626;stroke:#262626;stroke-width:0.5;" x="90" xlink:href="#mcfc5a7ef6f" y="349.658657"/>
      </g>
     </g>
    </g>
    <g id="ytick_39">
     <g id="line2d_74">
      <g>
       <use style="fill:#262626;stroke:#262626;stroke-width:0.5;" x="90" xlink:href="#mcfc5a7ef6f" y="343.802467"/>
      </g>
     </g>
    </g>
    <g id="ytick_40">
     <g id="line2d_75">
      <g>
       <use style="fill:#262626;stroke:#262626;stroke-width:0.5;" x="90" xlink:href="#mcfc5a7ef6f" y="339.260053"/>
      </g>
     </g>
    </g>
    <g id="ytick_41">
     <g id="line2d_76">
      <g>
       <use style="fill:#262626;stroke:#262626;stroke-width:0.5;" x="90" xlink:href="#mcfc5a7ef6f" y="335.548631"/>
      </g>
     </g>
    </g>
    <g id="ytick_42">
     <g id="line2d_77">
      <g>
       <use style="fill:#262626;stroke:#262626;stroke-width:0.5;" x="90" xlink:href="#mcfc5a7ef6f" y="332.410668"/>
      </g>
     </g>
    </g>
    <g id="ytick_43">
     <g id="line2d_78">
      <g>
       <use style="fill:#262626;stroke:#262626;stroke-width:0.5;" x="90" xlink:href="#mcfc5a7ef6f" y="329.69244"/>
      </g>
     </g>
    </g>
    <g id="ytick_44">
     <g id="line2d_79">
      <g>
       <use style="fill:#262626;stroke:#262626;stroke-width:0.5;" x="90" xlink:href="#mcfc5a7ef6f" y="327.294794"/>
      </g>
     </g>
    </g>
    <g id="ytick_45">
     <g id="line2d_80">
      <g>
       <use style="fill:#262626;stroke:#262626;stroke-width:0.5;" x="90" xlink:href="#mcfc5a7ef6f" y="311.04"/>
      </g>
     </g>
    </g>
   </g>
   <g id="line2d_81">
    <path clip-path="url(#p3aacfee756)" d="M -1 365.063804 
L 151.095164 365.072986 
L 206.306812 394.229565 
L 238.603556 401.66331 
L 261.518461 393.066217 
L 279.292642 401.30043 
L 293.815205 341.032478 
L 306.093857 406.977142 
L 316.730109 420.585152 
L 326.111949 439.67982 
L 334.50429 428.053486 
L 342.096086 446.165828 
L 349.026853 383.868529 
L 355.402541 412.679117 
L 361.305505 414.568737 
L 366.801034 413.01679 
L 371.941758 409.617659 
L 376.770725 403.724035 
L 381.323597 368.643423 
L 385.630245 414.388385 
L 389.715939 419.511118 
L 393.602249 410.086206 
L 397.307735 400.455803 
L 400.848476 388.678148 
L 404.238502 355.039138 
L 407.490119 378.778894 
L 410.614189 397.333909 
L 413.620341 407.562498 
L 416.517154 419.116094 
L 419.312303 418.020798 
L 422.012683 378.058 
L 424.624509 383.545352 
L 427.153406 395.753787 
L 429.604479 400.249249 
L 431.982374 400.878294 
L 434.291335 397.071395 
L 436.535246 378.817612 
L 438.717672 382.368531 
L 440.841893 401.340177 
L 442.910933 406.606319 
L 444.927587 404.523547 
L 446.894442 398.284401 
L 448.813898 382.327154 
L 450.688186 372.454439 
L 452.519383 403.199757 
L 454.309426 416.536153 
L 456.060125 427.86147 
L 457.773171 434.564825 
L 459.45015 432.386958 
L 461.09255 399.232278 
L 462.701768 463.450129 
L 464.279118 458.5205 
L 465.825838 446.673753 
L 467.343094 433.546022 
L 468.83199 417.491813 
L 470.293564 378.755285 
L 471.728802 406.481019 
L 473.138637 421.701256 
L 474.523951 430.654562 
L 475.885584 434.588306 
L 477.224331 440.067544 
L 478.540949 429.383413 
L 479.836157 420.034358 
L 481.110642 434.601711 
L 482.365055 441.253932 
L 483.600019 441.383433 
L 484.816127 444.467227 
L 486.013948 444.033251 
L 487.194022 411.721876 
L 488.356869 460.304049 
L 489.502983 454.511473 
L 490.63284 452.903868 
L 491.746894 450.661035 
L 492.845581 444.108653 
L 493.92932 424.008878 
L 494.998512 431.213253 
L 496.053541 448.823407 
L 497.094779 453.739226 
L 498.122582 459.938133 
L 499.137291 458.755479 
L 500.139235 457.841509 
L 501.128734 424.165383 
L 502.10609 462.677442 
L 503.0716 460.030167 
L 504.025546 467.767402 
L 504.968203 473.125328 
L 505.899834 470.93347 
L 506.820695 480.549495 
L 507.731032 453.456872 
L 508.631082 464.94967 
L 509.521075 463.215504 
L 510.401234 437.434709 
L 511.271773 429.935392 
L 512.132901 447.533935 
L 512.984819 452.98941 
L 513.827722 444.878959 
L 514.661799 455.602298 
L 515.487232 459.066817 
L 516.304198 451.505669 
L 517.112871 455.892158 
L 517.913416 455.216279 
L 518.705996 434.365208 
L 519.490766 466.31781 
L 520.26788 470.267333 
L 521.037486 470.493341 
L 521.799727 470.09228 
L 522.554743 469.159133 
L 523.302669 464.20476 
L 524.043638 444.267918 
L 524.777778 506.527875 
L 525.505212 487.678891 
L 526.226064 475.146758 
L 526.940451 490.382748 
L 527.648487 484.6956 
L 529.045954 466.597347 
L 529.7356 474.587308 
L 530.419326 486.535298 
L 531.097232 480.015672 
L 531.769418 480.174598 
L 532.435979 486.208002 
L 533.097009 479.340406 
L 533.752597 474.479284 
L 534.402834 456.064857 
L 535.047806 472.951682 
L 535.687597 466.431325 
L 536.32229 470.977098 
L 536.951966 481.767419 
L 537.576703 479.962886 
L 538.196578 491.010274 
L 538.811667 444.52502 
L 539.422042 471.405754 
L 540.027776 467.34417 
L 540.628938 479.76145 
L 541.225596 477.911491 
L 541.817819 474.947486 
L 542.405671 474.671494 
L 542.989216 482.739621 
L 543.568517 472.07388 
L 544.143636 475.602749 
L 544.714632 471.350312 
L 545.281563 479.411444 
L 545.844488 477.729998 
L 546.403463 478.195318 
L 546.958543 490.033413 
L 547.509781 453.750789 
L 548.05723 475.360972 
L 548.600942 472.355033 
L 549.140969 471.707526 
L 549.677358 477.470296 
L 550.21016 474.090588 
L 550.739422 474.407769 
L 551.26519 477.335529 
L 551.78751 473.776565 
L 552.306428 487.681855 
L 552.821987 476.899816 
L 553.33423 474.973402 
L 553.8432 478.957195 
L 554.348939 477.875295 
L 554.851487 478.977046 
L 555.350884 473.563799 
L 555.847169 481.651019 
L 556.340382 474.913432 
L 556.830559 476.308086 
L 557.317739 492.095298 
L 557.801956 477.096431 
L 558.283248 482.532215 
L 558.76165 473.805826 
L 559.237195 488.981554 
L 559.709918 478.467301 
L 560.179852 475.190387 
L 560.647029 487.258767 
L 561.111483 477.843694 
L 562.032344 475.172648 
L 562.488812 471.692813 
L 562.94268 480.721588 
L 563.393976 476.617918 
L 563.84273 486.837452 
L 564.28897 486.367291 
L 564.732723 484.175263 
L 565.174019 481.008925 
L 565.612882 483.772308 
L 566.049341 482.091476 
L 566.483422 468.410089 
L 566.91515 478.457345 
L 567.34455 473.25415 
L 567.771648 476.940621 
L 568.196468 477.496185 
L 568.619034 475.442517 
L 569.039371 489.226783 
L 569.457501 495.488437 
L 569.873447 473.512912 
L 570.287233 489.20829 
L 570.69888 483.105002 
L 571.108411 481.14252 
L 571.515847 483.073988 
L 571.921209 481.71127 
L 572.32452 487.554964 
L 572.725798 474.36289 
L 573.125065 483.417165 
L 573.52234 496.06689 
L 573.917644 482.068708 
L 574.310996 488.315875 
L 574.702415 481.61983 
L 575.091919 480.414787 
L 575.479529 487.225602 
L 575.865261 486.561287 
L 576.249135 479.706853 
L 576.631167 487.782298 
L 577.389778 476.243987 
L 577.766391 481.661998 
L 578.141232 489.880116 
L 578.514318 492.009903 
L 578.885664 489.160115 
L 579.255287 485.379118 
L 579.623202 486.301799 
L 579.989426 481.325772 
L 580.353974 488.656348 
L 580.716861 500.729874 
L 581.078102 486.438252 
L 581.437713 497.151558 
L 581.795707 489.251903 
L 582.152099 500.294618 
L 582.506904 485.291079 
L 582.860136 496.734206 
L 583.211808 480.886886 
L 583.561934 481.936242 
L 584.257603 488.094094 
L 584.603172 485.314617 
L 584.947248 490.359147 
L 585.289845 482.34918 
L 585.630974 493.526245 
L 585.970649 490.813665 
L 586.308881 491.35385 
L 586.645683 498.738325 
L 586.981067 494.729201 
L 587.315045 493.327398 
L 587.647628 476.784191 
L 588.308657 496.011815 
L 588.637126 476.50604 
L 588.964246 489.350377 
L 589.290028 485.971724 
L 589.614483 473.211878 
L 589.937621 488.913733 
L 590.259454 491.035847 
L 590.579992 489.54608 
L 590.899246 490.29249 
L 591.217224 478.443444 
L 592.163614 495.379024 
L 592.476596 484.43451 
L 592.788352 490.36911 
L 593.098892 478.79988 
L 593.408227 490.600118 
L 593.716365 484.588158 
L 594.023315 496.341353 
L 594.329088 497.679136 
L 594.633691 479.172045 
L 595.239424 500.128154 
L 595.540572 485.619216 
L 595.840586 489.715345 
L 596.139474 485.145756 
L 596.437245 484.742037 
L 597.323936 500.312695 
L 597.617319 487.312038 
L 597.909626 502.820153 
L 598.200864 486.055743 
L 598.491042 496.865044 
L 598.780166 498.972295 
L 599.355284 484.121085 
L 599.641294 491.552383 
L 599.92628 481.75665 
L 600.21025 476.044488 
L 600.493212 490.842709 
L 600.775172 483.097965 
L 601.056137 484.360388 
L 601.336115 479.027583 
L 601.615112 477.583884 
L 601.893135 493.193854 
L 602.170191 485.231083 
L 602.446287 494.078407 
L 602.721429 497.95128 
L 602.995624 498.513337 
L 603.268878 485.320363 
L 603.541199 484.518405 
L 603.812591 495.481218 
L 604.083062 483.657874 
L 604.352617 509.25893 
L 604.621264 503.346054 
L 604.889007 490.042822 
L 605.155853 483.690991 
L 605.421809 482.53368 
L 605.686879 479.616763 
L 606.214388 495.89011 
L 606.476838 495.584366 
L 606.738427 476.023304 
L 607.25904 494.322817 
L 607.518076 490.792184 
L 607.776273 492.065448 
L 608.033635 480.398872 
L 608.290169 487.251374 
L 608.545879 481.808109 
L 608.80077 495.743176 
L 609.308119 484.659863 
L 609.560587 486.360846 
L 609.812258 486.097826 
L 610.063135 498.34255 
L 610.562532 492.054179 
L 610.811062 492.062412 
L 611.058818 487.487961 
L 611.305806 492.405594 
L 611.55203 485.944711 
L 611.797496 484.346936 
L 612.042208 484.084935 
L 612.28617 493.367247 
L 612.529387 492.144004 
L 612.771864 501.375819 
L 613.254614 482.341087 
L 613.494897 480.538399 
L 613.734457 488.371436 
L 613.973298 481.709876 
L 614.211426 490.803557 
L 614.448843 482.575528 
L 614.685555 499.642166 
L 614.921566 494.241633 
L 615.15688 485.228742 
L 615.3915 498.108613 
L 615.858678 477.355385 
L 616.091243 489.958898 
L 616.554347 483.761157 
L 616.784892 479.191464 
L 617.243992 511.208728 
L 617.472553 488.709449 
L 617.700461 506.233884 
L 617.927718 484.165956 
L 618.154329 504.563612 
L 618.380296 487.413782 
L 618.605625 486.899554 
L 618.830318 481.454178 
L 619.054379 491.908617 
L 619.277811 495.471295 
L 619.722804 493.597203 
L 619.944372 489.920263 
L 620.165325 483.514656 
L 620.824531 498.058896 
L 621.26099 488.536594 
L 621.478326 489.777087 
L 621.69507 492.126175 
L 622.126798 475.158388 
L 622.556198 490.751427 
L 622.770034 482.3086 
L 622.983296 486.439942 
L 623.195989 512.161652 
L 623.408116 508.229288 
L 623.61968 487.200534 
L 623.830683 514.842535 
L 624.251019 483.23132 
L 624.460358 494.033462 
L 624.669149 489.011355 
L 624.877394 488.381072 
L 625.085096 491.465206 
L 625.292257 488.130921 
L 625.498881 503.013172 
L 625.704971 488.761944 
L 625.910528 482.372992 
L 626.115557 480.147055 
L 626.320059 496.436466 
L 626.524038 487.400002 
L 626.727495 485.18175 
L 627.132858 501.666562 
L 627.334768 496.745134 
L 627.536168 474.615385 
L 627.73706 489.400326 
L 627.937446 493.736355 
L 628.336713 488.080478 
L 628.535599 503.740487 
L 628.733989 501.335459 
L 629.326211 470.75365 
L 629.522644 487.841787 
L 629.718594 479.036303 
L 629.914063 482.528233 
L 630.109054 499.564003 
L 630.303568 485.166513 
L 630.497608 487.087158 
L 630.691177 496.357404 
L 630.884277 493.999571 
L 631.07691 493.712682 
L 631.269078 503.100183 
L 631.460783 492.717975 
L 632.033146 480.033471 
L 632.223024 489.118934 
L 632.41245 485.078157 
L 632.601426 497.493643 
L 632.789956 480.994625 
L 632.97804 516.004155 
L 633.165681 506.222772 
L 633.352881 515.729384 
L 633.539642 494.145687 
L 633.725966 486.087156 
L 634.097312 498.542218 
L 634.282338 480.664838 
L 634.466935 486.417957 
L 634.651105 480.253632 
L 634.83485 500.203358 
L 635.018173 495.278892 
L 635.201074 485.196036 
L 635.747272 510.458571 
L 635.928509 480.834538 
L 636.109335 486.024438 
L 636.289751 486.118099 
L 636.469759 492.386981 
L 636.649361 491.426706 
L 636.828559 493.22151 
L 637.007355 486.733727 
L 637.185751 492.07937 
L 637.363748 503.878553 
L 637.541348 480.162054 
L 637.895364 497.076514 
L 638.071784 482.228579 
L 638.247814 485.142685 
L 638.423456 503.465966 
L 638.598712 482.266468 
L 638.94807 488.621885 
L 639.122176 487.595867 
L 639.295903 482.178408 
L 639.469251 487.569613 
L 639.642223 498.508159 
L 639.987044 486.861305 
L 640.158897 495.486825 
L 640.330379 485.858504 
L 640.501493 493.588715 
L 640.67224 486.493416 
L 640.842622 484.336254 
L 641.012641 490.52057 
L 641.182297 488.171229 
L 641.351593 487.749074 
L 641.520529 493.490894 
L 641.689108 483.571196 
L 641.857331 481.797907 
L 642.0252 484.396597 
L 642.192715 493.409586 
L 642.359879 489.654 
L 642.526693 483.25328 
L 642.859276 488.332771 
L 643.025049 496.804856 
L 643.190477 497.666218 
L 643.355562 488.843104 
L 643.520306 486.578221 
L 643.848774 494.393577 
L 644.012502 480.872818 
L 644.175894 507.591069 
L 644.338952 481.578589 
L 644.501676 542.416444 
L 644.664069 492.720147 
L 644.826131 509.052322 
L 645.14927 493.070017 
L 645.310349 487.734408 
L 645.471103 501.792554 
L 645.631533 497.172978 
L 645.791641 487.017012 
L 645.951427 488.391338 
L 646.110894 522.024408 
L 646.270042 510.284174 
L 646.428873 490.010359 
L 646.587387 489.992819 
L 646.745587 481.736602 
L 647.061047 512.559464 
L 647.21831 492.686955 
L 647.688244 481.014541 
L 647.844274 500.924395 
L 647.844274 500.924395 
" style="fill:none;stroke:#b22222;stroke-linecap:round;stroke-width:1.75;"/>
   </g>
   <g id="patch_6">
    <path d="M 90 512.64 
L 90 311.04 
" style="fill:none;stroke:#262626;stroke-linecap:square;stroke-linejoin:miter;stroke-width:1.25;"/>
   </g>
   <g id="patch_7">
    <path d="M 90 512.64 
L 648 512.64 
" style="fill:none;stroke:#262626;stroke-linecap:square;stroke-linejoin:miter;stroke-width:1.25;"/>
   </g>
  </g>
 </g>
 <defs>
  <clipPath id="p6b9e31be5d">
   <rect height="201.6" width="558" x="90" y="69.12"/>
  </clipPath>
  <clipPath id="p3aacfee756">
   <rect height="201.6" width="558" x="90" y="311.04"/>
  </clipPath>
 </defs>
</svg>
