<?xml version="1.0" encoding="utf-8" standalone="no"?>
<!DOCTYPE svg PUBLIC "-//W3C//DTD SVG 1.1//EN"
  "http://www.w3.org/Graphics/SVG/1.1/DTD/svg11.dtd">
<!-- Created with matplotlib (http://matplotlib.org/) -->
<svg height="576pt" version="1.1" viewBox="0 0 720 576" width="720pt" xmlns="http://www.w3.org/2000/svg" xmlns:xlink="http://www.w3.org/1999/xlink">
 <defs>
  <style type="text/css">
*{stroke-linecap:butt;stroke-linejoin:round;}
  </style>
 </defs>
 <g id="figure_1">
  <g id="patch_1">
   <path d="M 0 576 
L 720 576 
L 720 0 
L 0 0 
z
" style="fill:#ffffff;"/>
  </g>
  <g id="axes_1">
   <g id="patch_2">
    <path d="M 90 270.72 
L 648 270.72 
L 648 69.12 
L 90 69.12 
z
" style="fill:#ffffff;"/>
   </g>
   <g id="matplotlib.axis_1">
    <g id="xtick_1">
     <g id="line2d_1">
      <defs>
       <path d="M 0 0 
L 0 6 
" id="m0f82ca5659" style="stroke:#262626;"/>
      </defs>
      <g>
       <use style="fill:#262626;stroke:#262626;" x="90" xlink:href="#m0f82ca5659" y="270.72"/>
      </g>
     </g>
     <g id="text_1">
      <!-- 0 -->
      <defs>
       <path d="M 4.15625 35.296875 
Q 4.15625 48 6.765625 55.734375 
Q 9.375 63.484375 14.515625 67.671875 
Q 19.671875 71.875 27.484375 71.875 
Q 33.25 71.875 37.59375 69.546875 
Q 41.9375 67.234375 44.765625 62.859375 
Q 47.609375 58.5 49.21875 52.21875 
Q 50.828125 45.953125 50.828125 35.296875 
Q 50.828125 22.703125 48.234375 14.96875 
Q 45.65625 7.234375 40.5 3 
Q 35.359375 -1.21875 27.484375 -1.21875 
Q 17.140625 -1.21875 11.234375 6.203125 
Q 4.15625 15.140625 4.15625 35.296875 
z
M 13.1875 35.296875 
Q 13.1875 17.671875 17.3125 11.828125 
Q 21.4375 6 27.484375 6 
Q 33.546875 6 37.671875 11.859375 
Q 41.796875 17.71875 41.796875 35.296875 
Q 41.796875 52.984375 37.671875 58.78125 
Q 33.546875 64.59375 27.390625 64.59375 
Q 21.34375 64.59375 17.71875 59.46875 
Q 13.1875 52.9375 13.1875 35.296875 
z
" id="ArialMT-30"/>
      </defs>
      <g style="fill:#262626;" transform="translate(87.219531 290.877812)scale(0.1 -0.1)">
       <use xlink:href="#ArialMT-30"/>
      </g>
     </g>
    </g>
    <g id="xtick_2">
     <g id="line2d_2">
      <g>
       <use style="fill:#262626;stroke:#262626;" x="198.984375" xlink:href="#m0f82ca5659" y="270.72"/>
      </g>
     </g>
     <g id="text_2">
      <!-- 200 -->
      <defs>
       <path d="M 50.34375 8.453125 
L 50.34375 0 
L 3.03125 0 
Q 2.9375 3.171875 4.046875 6.109375 
Q 5.859375 10.9375 9.828125 15.625 
Q 13.8125 20.3125 21.34375 26.46875 
Q 33.015625 36.03125 37.109375 41.625 
Q 41.21875 47.21875 41.21875 52.203125 
Q 41.21875 57.421875 37.46875 61 
Q 33.734375 64.59375 27.734375 64.59375 
Q 21.390625 64.59375 17.578125 60.78125 
Q 13.765625 56.984375 13.71875 50.25 
L 4.6875 51.171875 
Q 5.609375 61.28125 11.65625 66.578125 
Q 17.71875 71.875 27.9375 71.875 
Q 38.234375 71.875 44.234375 66.15625 
Q 50.25 60.453125 50.25 52 
Q 50.25 47.703125 48.484375 43.546875 
Q 46.734375 39.40625 42.65625 34.8125 
Q 38.578125 30.21875 29.109375 22.21875 
Q 21.1875 15.578125 18.9375 13.203125 
Q 16.703125 10.84375 15.234375 8.453125 
z
" id="ArialMT-32"/>
      </defs>
      <g style="fill:#262626;" transform="translate(190.642969 290.877812)scale(0.1 -0.1)">
       <use xlink:href="#ArialMT-32"/>
       <use x="55.615234" xlink:href="#ArialMT-30"/>
       <use x="111.230469" xlink:href="#ArialMT-30"/>
      </g>
     </g>
    </g>
    <g id="xtick_3">
     <g id="line2d_3">
      <g>
       <use style="fill:#262626;stroke:#262626;" x="307.96875" xlink:href="#m0f82ca5659" y="270.72"/>
      </g>
     </g>
     <g id="text_3">
      <!-- 400 -->
      <defs>
       <path d="M 32.328125 0 
L 32.328125 17.140625 
L 1.265625 17.140625 
L 1.265625 25.203125 
L 33.9375 71.578125 
L 41.109375 71.578125 
L 41.109375 25.203125 
L 50.78125 25.203125 
L 50.78125 17.140625 
L 41.109375 17.140625 
L 41.109375 0 
z
M 32.328125 25.203125 
L 32.328125 57.46875 
L 9.90625 25.203125 
z
" id="ArialMT-34"/>
      </defs>
      <g style="fill:#262626;" transform="translate(299.627344 290.877812)scale(0.1 -0.1)">
       <use xlink:href="#ArialMT-34"/>
       <use x="55.615234" xlink:href="#ArialMT-30"/>
       <use x="111.230469" xlink:href="#ArialMT-30"/>
      </g>
     </g>
    </g>
    <g id="xtick_4">
     <g id="line2d_4">
      <g>
       <use style="fill:#262626;stroke:#262626;" x="416.953125" xlink:href="#m0f82ca5659" y="270.72"/>
      </g>
     </g>
     <g id="text_4">
      <!-- 600 -->
      <defs>
       <path d="M 49.75 54.046875 
L 41.015625 53.375 
Q 39.84375 58.546875 37.703125 60.890625 
Q 34.125 64.65625 28.90625 64.65625 
Q 24.703125 64.65625 21.53125 62.3125 
Q 17.390625 59.28125 14.984375 53.46875 
Q 12.59375 47.65625 12.5 36.921875 
Q 15.671875 41.75 20.265625 44.09375 
Q 24.859375 46.4375 29.890625 46.4375 
Q 38.671875 46.4375 44.84375 39.96875 
Q 51.03125 33.5 51.03125 23.25 
Q 51.03125 16.5 48.125 10.71875 
Q 45.21875 4.9375 40.140625 1.859375 
Q 35.0625 -1.21875 28.609375 -1.21875 
Q 17.625 -1.21875 10.6875 6.859375 
Q 3.765625 14.9375 3.765625 33.5 
Q 3.765625 54.25 11.421875 63.671875 
Q 18.109375 71.875 29.4375 71.875 
Q 37.890625 71.875 43.28125 67.140625 
Q 48.6875 62.40625 49.75 54.046875 
z
M 13.875 23.1875 
Q 13.875 18.65625 15.796875 14.5 
Q 17.71875 10.359375 21.1875 8.171875 
Q 24.65625 6 28.46875 6 
Q 34.03125 6 38.03125 10.484375 
Q 42.046875 14.984375 42.046875 22.703125 
Q 42.046875 30.125 38.078125 34.390625 
Q 34.125 38.671875 28.125 38.671875 
Q 22.171875 38.671875 18.015625 34.390625 
Q 13.875 30.125 13.875 23.1875 
z
" id="ArialMT-36"/>
      </defs>
      <g style="fill:#262626;" transform="translate(408.611719 290.877812)scale(0.1 -0.1)">
       <use xlink:href="#ArialMT-36"/>
       <use x="55.615234" xlink:href="#ArialMT-30"/>
       <use x="111.230469" xlink:href="#ArialMT-30"/>
      </g>
     </g>
    </g>
    <g id="xtick_5">
     <g id="line2d_5">
      <g>
       <use style="fill:#262626;stroke:#262626;" x="525.9375" xlink:href="#m0f82ca5659" y="270.72"/>
      </g>
     </g>
     <g id="text_5">
      <!-- 800 -->
      <defs>
       <path d="M 17.671875 38.8125 
Q 12.203125 40.828125 9.5625 44.53125 
Q 6.9375 48.25 6.9375 53.421875 
Q 6.9375 61.234375 12.546875 66.546875 
Q 18.171875 71.875 27.484375 71.875 
Q 36.859375 71.875 42.578125 66.421875 
Q 48.296875 60.984375 48.296875 53.171875 
Q 48.296875 48.1875 45.671875 44.5 
Q 43.0625 40.828125 37.75 38.8125 
Q 44.34375 36.671875 47.78125 31.875 
Q 51.21875 27.09375 51.21875 20.453125 
Q 51.21875 11.28125 44.71875 5.03125 
Q 38.234375 -1.21875 27.640625 -1.21875 
Q 17.046875 -1.21875 10.546875 5.046875 
Q 4.046875 11.328125 4.046875 20.703125 
Q 4.046875 27.6875 7.59375 32.390625 
Q 11.140625 37.109375 17.671875 38.8125 
z
M 15.921875 53.71875 
Q 15.921875 48.640625 19.1875 45.40625 
Q 22.46875 42.1875 27.6875 42.1875 
Q 32.765625 42.1875 36.015625 45.375 
Q 39.265625 48.578125 39.265625 53.21875 
Q 39.265625 58.0625 35.90625 61.359375 
Q 32.5625 64.65625 27.59375 64.65625 
Q 22.5625 64.65625 19.234375 61.421875 
Q 15.921875 58.203125 15.921875 53.71875 
z
M 13.09375 20.65625 
Q 13.09375 16.890625 14.875 13.375 
Q 16.65625 9.859375 20.171875 7.921875 
Q 23.6875 6 27.734375 6 
Q 34.03125 6 38.125 10.046875 
Q 42.234375 14.109375 42.234375 20.359375 
Q 42.234375 26.703125 38.015625 30.859375 
Q 33.796875 35.015625 27.4375 35.015625 
Q 21.234375 35.015625 17.15625 30.90625 
Q 13.09375 26.8125 13.09375 20.65625 
z
" id="ArialMT-38"/>
      </defs>
      <g style="fill:#262626;" transform="translate(517.596094 290.877812)scale(0.1 -0.1)">
       <use xlink:href="#ArialMT-38"/>
       <use x="55.615234" xlink:href="#ArialMT-30"/>
       <use x="111.230469" xlink:href="#ArialMT-30"/>
      </g>
     </g>
    </g>
    <g id="xtick_6">
     <g id="line2d_6">
      <g>
       <use style="fill:#262626;stroke:#262626;" x="634.921875" xlink:href="#m0f82ca5659" y="270.72"/>
      </g>
     </g>
     <g id="text_6">
      <!-- 1000 -->
      <defs>
       <path d="M 37.25 0 
L 28.46875 0 
L 28.46875 56 
Q 25.296875 52.984375 20.140625 49.953125 
Q 14.984375 46.921875 10.890625 45.40625 
L 10.890625 53.90625 
Q 18.265625 57.375 23.78125 62.296875 
Q 29.296875 67.234375 31.59375 71.875 
L 37.25 71.875 
z
" id="ArialMT-31"/>
      </defs>
      <g style="fill:#262626;" transform="translate(623.8 290.877812)scale(0.1 -0.1)">
       <use xlink:href="#ArialMT-31"/>
       <use x="55.615234" xlink:href="#ArialMT-30"/>
       <use x="111.230469" xlink:href="#ArialMT-30"/>
       <use x="166.845703" xlink:href="#ArialMT-30"/>
      </g>
     </g>
    </g>
   </g>
   <g id="matplotlib.axis_2">
    <g id="ytick_1">
     <g id="line2d_7">
      <defs>
       <path d="M 0 0 
L -6 0 
" id="m072d469ac4" style="stroke:#262626;"/>
      </defs>
      <g>
       <use style="fill:#262626;stroke:#262626;" x="90" xlink:href="#m072d469ac4" y="270.72"/>
      </g>
     </g>
     <g id="text_7">
      <!-- −0.6 -->
      <defs>
       <path d="M 52.828125 31.203125 
L 5.5625 31.203125 
L 5.5625 39.40625 
L 52.828125 39.40625 
z
" id="ArialMT-2212"/>
       <path d="M 9.078125 0 
L 9.078125 10.015625 
L 19.09375 10.015625 
L 19.09375 0 
z
" id="ArialMT-2e"/>
      </defs>
      <g style="fill:#262626;" transform="translate(57.259375 274.298906)scale(0.1 -0.1)">
       <use xlink:href="#ArialMT-2212"/>
       <use x="58.398438" xlink:href="#ArialMT-30"/>
       <use x="114.013672" xlink:href="#ArialMT-2e"/>
       <use x="141.796875" xlink:href="#ArialMT-36"/>
      </g>
     </g>
    </g>
    <g id="ytick_2">
     <g id="line2d_8">
      <g>
       <use style="fill:#262626;stroke:#262626;" x="90" xlink:href="#m072d469ac4" y="237.12"/>
      </g>
     </g>
     <g id="text_8">
      <!-- −0.4 -->
      <g style="fill:#262626;" transform="translate(57.259375 240.698906)scale(0.1 -0.1)">
       <use xlink:href="#ArialMT-2212"/>
       <use x="58.398438" xlink:href="#ArialMT-30"/>
       <use x="114.013672" xlink:href="#ArialMT-2e"/>
       <use x="141.796875" xlink:href="#ArialMT-34"/>
      </g>
     </g>
    </g>
    <g id="ytick_3">
     <g id="line2d_9">
      <g>
       <use style="fill:#262626;stroke:#262626;" x="90" xlink:href="#m072d469ac4" y="203.52"/>
      </g>
     </g>
     <g id="text_9">
      <!-- −0.2 -->
      <g style="fill:#262626;" transform="translate(57.259375 207.098906)scale(0.1 -0.1)">
       <use xlink:href="#ArialMT-2212"/>
       <use x="58.398438" xlink:href="#ArialMT-30"/>
       <use x="114.013672" xlink:href="#ArialMT-2e"/>
       <use x="141.796875" xlink:href="#ArialMT-32"/>
      </g>
     </g>
    </g>
    <g id="ytick_4">
     <g id="line2d_10">
      <g>
       <use style="fill:#262626;stroke:#262626;" x="90" xlink:href="#m072d469ac4" y="169.92"/>
      </g>
     </g>
     <g id="text_10">
      <!-- 0.0 -->
      <g style="fill:#262626;" transform="translate(63.1 173.498906)scale(0.1 -0.1)">
       <use xlink:href="#ArialMT-30"/>
       <use x="55.615234" xlink:href="#ArialMT-2e"/>
       <use x="83.398438" xlink:href="#ArialMT-30"/>
      </g>
     </g>
    </g>
    <g id="ytick_5">
     <g id="line2d_11">
      <g>
       <use style="fill:#262626;stroke:#262626;" x="90" xlink:href="#m072d469ac4" y="136.32"/>
      </g>
     </g>
     <g id="text_11">
      <!-- 0.2 -->
      <g style="fill:#262626;" transform="translate(63.1 139.898906)scale(0.1 -0.1)">
       <use xlink:href="#ArialMT-30"/>
       <use x="55.615234" xlink:href="#ArialMT-2e"/>
       <use x="83.398438" xlink:href="#ArialMT-32"/>
      </g>
     </g>
    </g>
    <g id="ytick_6">
     <g id="line2d_12">
      <g>
       <use style="fill:#262626;stroke:#262626;" x="90" xlink:href="#m072d469ac4" y="102.72"/>
      </g>
     </g>
     <g id="text_12">
      <!-- 0.4 -->
      <g style="fill:#262626;" transform="translate(63.1 106.298906)scale(0.1 -0.1)">
       <use xlink:href="#ArialMT-30"/>
       <use x="55.615234" xlink:href="#ArialMT-2e"/>
       <use x="83.398438" xlink:href="#ArialMT-34"/>
      </g>
     </g>
    </g>
    <g id="ytick_7">
     <g id="line2d_13">
      <g>
       <use style="fill:#262626;stroke:#262626;" x="90" xlink:href="#m072d469ac4" y="69.12"/>
      </g>
     </g>
     <g id="text_13">
      <!-- 0.6 -->
      <g style="fill:#262626;" transform="translate(63.1 72.698906)scale(0.1 -0.1)">
       <use xlink:href="#ArialMT-30"/>
       <use x="55.615234" xlink:href="#ArialMT-2e"/>
       <use x="83.398438" xlink:href="#ArialMT-36"/>
      </g>
     </g>
    </g>
   </g>
   <g id="line2d_14">
    <path clip-path="url(#p185d11fed4)" d="M 90 153.072832 
L 91.089844 151.375811 
L 91.634766 150.914385 
L 92.179688 150.714434 
L 92.724609 151.175859 
L 93.269531 152.124346 
L 93.814453 153.647051 
L 94.359375 155.595293 
L 95.449219 160.240312 
L 95.994141 162.224443 
L 96.539062 163.521562 
L 97.083984 164.305986 
L 97.628906 164.526445 
L 98.173828 164.152178 
L 98.71875 163.624102 
L 100.353516 160.153154 
L 100.898438 158.594561 
L 101.443359 157.912676 
L 102.533203 155.933672 
L 103.078125 155.461992 
L 104.167969 154.954424 
L 106.892578 155.087725 
L 107.982422 155.779863 
L 109.072266 155.949053 
L 109.617188 156.261797 
L 110.707031 157.425615 
L 111.796875 159.712236 
L 112.886719 163.347246 
L 113.431641 165.2596 
L 114.521484 168.105059 
L 115.611328 169.02791 
L 116.15625 168.730547 
L 116.701172 168.233232 
L 117.246094 166.859209 
L 119.425781 159.937822 
L 119.970703 158.625322 
L 120.515625 158.133135 
L 121.060547 157.840898 
L 121.605469 158.076738 
L 122.150391 158.691973 
L 122.695312 159.932695 
L 123.240234 161.69124 
L 123.785156 163.941973 
L 124.875 169.822588 
L 125.964844 175.575029 
L 126.509766 177.789873 
L 127.054688 179.143389 
L 127.599609 179.451006 
L 128.144531 179.368975 
L 128.689453 178.548662 
L 129.779297 176.210771 
L 132.503906 168.653643 
L 133.59375 167.371904 
L 134.138672 167.289873 
L 134.683594 167.894854 
L 135.228516 169.104814 
L 135.773438 170.786455 
L 136.863281 175.616045 
L 139.042969 186.741533 
L 140.677734 191.991533 
L 141.222656 193.509111 
L 141.767578 194.519121 
L 142.857422 197.154375 
L 143.402344 197.990068 
L 143.947266 198.533525 
L 144.492188 198.143877 
L 145.037109 197.200518 
L 145.582031 195.303545 
L 146.671875 189.90999 
L 147.761719 183.450029 
L 149.396484 173.549883 
L 150.486328 168.448564 
L 151.03125 166.079912 
L 151.576172 164.372637 
L 152.121094 163.3575 
L 152.666016 162.783281 
L 153.210938 162.757646 
L 154.300781 163.911211 
L 154.845703 164.941729 
L 155.935547 167.356523 
L 156.480469 168.074297 
L 157.025391 168.535723 
L 158.115234 168.889482 
L 158.660156 168.745928 
L 159.205078 168.904863 
L 159.75 169.412432 
L 160.294922 169.745684 
L 161.384766 171.2325 
L 162.474609 172.621904 
L 163.019531 173.334551 
L 163.564453 174.46248 
L 164.654297 177.343828 
L 165.744141 179.271562 
L 166.289062 179.625322 
L 166.833984 179.804766 
L 167.378906 179.215166 
L 167.923828 178.271807 
L 169.013672 174.575273 
L 172.283203 156.518145 
L 172.828125 154.52376 
L 173.373047 153.052324 
L 173.917969 152.093584 
L 174.462891 151.980791 
L 175.007812 152.139727 
L 175.552734 152.816484 
L 177.1875 156.154131 
L 177.732422 157.010332 
L 178.277344 157.3846 
L 179.367188 156.882158 
L 179.912109 156.169512 
L 181.001953 154.195635 
L 181.546875 153.283037 
L 182.636719 152.216631 
L 183.181641 152.2679 
L 183.726562 152.960039 
L 184.271484 154.062334 
L 184.816406 155.43123 
L 186.996094 162.552568 
L 187.541016 163.716387 
L 188.085938 164.526445 
L 189.175781 165.028887 
L 189.720703 164.695635 
L 190.810547 163.383135 
L 191.355469 162.485918 
L 191.900391 161.306719 
L 192.990234 159.758379 
L 194.625 158.758623 
L 195.169922 158.691973 
L 195.714844 158.348467 
L 196.259766 158.184404 
L 196.804688 157.738359 
L 197.349609 157.748613 
L 198.439453 156.902666 
L 198.984375 156.810381 
L 199.529297 156.154131 
L 200.619141 155.943926 
L 201.164062 156.174639 
L 201.708984 156.943682 
L 202.798828 159.994219 
L 204.433594 165.3929 
L 205.523438 168.633135 
L 206.613281 170.437822 
L 207.158203 170.622393 
L 207.703125 170.468584 
L 208.248047 169.56624 
L 208.792969 168.074297 
L 209.337891 166.233721 
L 209.882812 163.96248 
L 211.517578 159.11751 
L 212.0625 158.563799 
L 212.607422 158.215166 
L 213.697266 159.942949 
L 214.787109 163.900957 
L 217.511719 177.200273 
L 218.601562 180.122637 
L 219.146484 180.907061 
L 219.691406 181.250566 
L 220.236328 180.850664 
L 220.78125 180.122637 
L 221.326172 179.061357 
L 222.416016 175.785234 
L 222.960938 173.662676 
L 223.505859 172.057939 
L 224.050781 171.129961 
L 224.595703 170.437822 
L 225.140625 170.350664 
L 226.230469 171.683672 
L 227.320312 173.90877 
L 227.865234 175.47249 
L 228.410156 177.733477 
L 228.955078 179.317705 
L 233.859375 199.251299 
L 234.404297 201.014971 
L 234.949219 201.77376 
L 235.494141 202.245439 
L 236.039062 202.342852 
L 237.128906 200.445879 
L 237.673828 198.369463 
L 238.763672 192.509355 
L 240.943359 178.174395 
L 242.033203 173.308916 
L 243.123047 170.540361 
L 243.667969 169.581621 
L 244.212891 168.853594 
L 244.757812 168.397295 
L 245.847656 168.55623 
L 246.392578 168.986895 
L 246.9375 169.125322 
L 247.482422 169.822588 
L 248.027344 170.253252 
L 248.572266 170.868486 
L 249.662109 171.381182 
L 250.207031 171.35042 
L 251.296875 171.088945 
L 251.841797 171.150469 
L 252.386719 171.545244 
L 252.931641 172.170732 
L 253.476562 173.221758 
L 254.566406 176.487627 
L 256.201172 181.112139 
L 256.746094 182.219561 
L 257.291016 182.824541 
L 257.835938 183.608965 
L 258.380859 183.778154 
L 258.925781 183.301348 
L 259.470703 182.496416 
L 260.015625 180.686602 
L 261.105469 175.631426 
L 262.195312 169.156084 
L 263.285156 162.942217 
L 263.830078 160.594072 
L 264.375 158.850908 
L 264.919922 157.528154 
L 266.009766 157.348711 
L 266.554688 158.025469 
L 267.099609 159.107256 
L 268.189453 160.440264 
L 268.734375 160.383867 
L 269.279297 160.676104 
L 269.824219 160.26082 
L 270.369141 159.568682 
L 272.548828 155.595293 
L 273.638672 154.754473 
L 274.183594 154.862139 
L 274.728516 155.277422 
L 275.273438 156.200273 
L 277.453125 162.409014 
L 278.542969 165.249346 
L 279.087891 166.618242 
L 279.632812 167.305254 
L 280.177734 167.700029 
L 280.722656 167.817949 
L 281.8125 166.818193 
L 282.357422 165.86458 
L 283.447266 164.690508 
L 283.992188 164.464922 
L 284.537109 164.859697 
L 285.082031 164.803301 
L 285.626953 165.054521 
L 286.171875 164.875078 
L 286.716797 164.572588 
L 287.261719 163.813799 
L 287.806641 163.398516 
L 288.896484 161.793779 
L 289.441406 160.973467 
L 290.53125 159.860918 
L 291.621094 159.06624 
L 292.710938 159.712236 
L 293.255859 160.322344 
L 294.345703 163.583086 
L 297.070312 174.077959 
L 298.160156 176.113359 
L 298.705078 175.749346 
L 299.794922 173.093584 
L 300.884766 168.904863 
L 301.974609 165.623613 
L 303.064453 163.495928 
L 303.609375 162.855059 
L 304.154297 162.711504 
L 304.699219 163.126787 
L 305.244141 164.01375 
L 305.789062 165.382646 
L 306.333984 167.571855 
L 309.058594 181.112139 
L 309.603516 182.952715 
L 310.148438 184.070391 
L 310.693359 184.608721 
L 311.238281 184.388262 
L 311.783203 183.675615 
L 314.507812 178.282061 
L 315.052734 177.554033 
L 316.142578 175.872393 
L 317.232422 175.149492 
L 317.777344 175.508379 
L 318.322266 176.077471 
L 319.412109 178.39998 
L 321.046875 183.773027 
L 322.136719 187.761797 
L 323.226562 192.77083 
L 323.771484 195.201006 
L 325.40625 203.486162 
L 326.496094 207.126299 
L 327.041016 207.936357 
L 327.585938 207.910723 
L 328.130859 207.09041 
L 328.675781 205.3575 
L 329.765625 200.368975 
L 332.490234 185.388018 
L 333.580078 180.373857 
L 334.125 178.287187 
L 335.214844 175.534014 
L 335.759766 174.693193 
L 336.304688 174.488115 
L 336.849609 174.452227 
L 337.939453 174.754717 
L 339.029297 175.021318 
L 339.574219 175.159746 
L 340.119141 175.154619 
L 341.753906 174.365068 
L 342.298828 174.001055 
L 342.84375 174.257402 
L 343.388672 174.380449 
L 343.933594 174.764971 
L 345.023438 176.697832 
L 345.568359 178.230791 
L 347.748047 185.623857 
L 348.292969 187.40291 
L 348.837891 188.525713 
L 349.382812 189.207598 
L 349.927734 189.120439 
L 350.472656 188.36165 
L 351.017578 186.808184 
L 352.107422 181.922197 
L 353.742188 172.365557 
L 354.832031 167.084795 
L 355.376953 165.351885 
L 355.921875 164.223955 
L 356.466797 163.65999 
L 357.011719 163.736895 
L 357.556641 163.967607 
L 358.101562 164.511064 
L 358.646484 164.746904 
L 359.736328 164.61873 
L 361.371094 162.81917 
L 364.095703 157.68709 
L 364.640625 157.143633 
L 365.185547 157.112871 
L 365.730469 157.39998 
L 366.275391 158.163896 
L 367.365234 160.958086 
L 367.910156 162.798662 
L 369 165.433916 
L 370.089844 166.925859 
L 370.634766 167.592363 
L 371.724609 167.730791 
L 372.814453 167.489824 
L 373.359375 167.233477 
L 373.904297 167.520586 
L 374.449219 167.34627 
L 375.539062 167.720537 
L 376.083984 167.735918 
L 376.628906 167.966631 
L 377.71875 167.546221 
L 378.263672 167.089922 
L 378.808594 166.879717 
L 379.898438 165.305742 
L 381.533203 161.639971 
L 382.078125 160.107012 
L 382.623047 159.271318 
L 383.167969 158.871416 
L 383.712891 159.466143 
L 384.257812 160.37874 
L 384.802734 161.798906 
L 385.892578 165.869707 
L 387.527344 172.627031 
L 388.072266 174.493242 
L 388.617188 175.451982 
L 389.162109 176.174883 
L 389.707031 176.308184 
L 390.251953 176.082598 
L 391.341797 173.872881 
L 392.431641 170.27376 
L 394.066406 164.541826 
L 394.611328 162.978105 
L 395.15625 162.326982 
L 395.701172 162.521807 
L 396.246094 163.193437 
L 397.335938 166.52083 
L 398.425781 170.827471 
L 400.060547 178.179521 
L 401.150391 182.029863 
L 401.695312 183.024492 
L 402.240234 183.70125 
L 402.785156 183.506426 
L 403.330078 183.496172 
L 403.875 182.639971 
L 404.419922 181.486406 
L 404.964844 180.784014 
L 406.599609 177.97957 
L 407.144531 177.400225 
L 408.234375 176.508135 
L 408.779297 176.508135 
L 409.324219 176.118486 
L 409.869141 176.067217 
L 410.414062 176.12874 
L 410.958984 176.318437 
L 411.503906 176.851641 
L 412.048828 178.117998 
L 413.138672 181.91707 
L 417.498047 204.46541 
L 418.587891 207.285234 
L 419.132812 207.551836 
L 419.677734 206.967363 
L 420.222656 205.900957 
L 420.767578 203.952715 
L 421.857422 198.456621 
L 424.582031 183.865312 
L 425.126953 181.61458 
L 426.216797 178.774248 
L 426.761719 177.605303 
L 427.851562 175.913408 
L 428.396484 175.334062 
L 429.486328 174.862383 
L 430.03125 175.190508 
L 431.121094 174.831621 
L 431.666016 174.493242 
L 432.755859 172.934648 
L 433.300781 171.857988 
L 433.845703 171.099199 
L 434.390625 170.847979 
L 434.935547 170.991533 
L 435.480469 171.688799 
L 436.025391 172.632158 
L 436.570312 174.185625 
L 437.660156 178.50252 
L 438.75 183.675615 
L 439.294922 185.849443 
L 440.384766 188.551348 
L 440.929688 188.284746 
L 441.474609 187.792559 
L 442.019531 186.433916 
L 442.564453 184.767656 
L 443.109375 182.547686 
L 445.289062 172.150225 
L 445.833984 169.668779 
L 446.923828 166.208086 
L 447.46875 165.321123 
L 448.013672 164.977617 
L 449.103516 165.131426 
L 449.648438 165.351885 
L 450.193359 165.290361 
L 450.738281 165.018633 
L 451.828125 163.383135 
L 452.373047 162.214189 
L 453.462891 159.23543 
L 454.552734 156.723223 
L 455.097656 155.815752 
L 455.642578 155.682451 
L 456.1875 155.938799 
L 457.277344 157.307695 
L 458.912109 159.896807 
L 459.457031 160.676104 
L 460.001953 161.896318 
L 460.546875 162.639727 
L 461.636719 164.511064 
L 462.726562 165.008379 
L 463.271484 164.875078 
L 464.90625 164.075273 
L 465.451172 164.223955 
L 465.996094 164.582842 
L 468.175781 166.710527 
L 468.720703 167.212969 
L 469.265625 166.833574 
L 469.810547 166.074785 
L 470.355469 164.731523 
L 472.535156 157.953691 
L 473.625 156.123369 
L 474.714844 156.010576 
L 475.259766 156.405352 
L 475.804688 157.307695 
L 476.349609 158.466387 
L 476.894531 160.255693 
L 479.619141 171.576006 
L 480.164062 172.96541 
L 480.708984 173.43709 
L 481.253906 173.38582 
L 481.798828 172.524492 
L 482.888672 169.535479 
L 484.523438 163.788164 
L 485.068359 162.024492 
L 486.158203 159.727617 
L 486.703125 159.132891 
L 487.248047 158.958574 
L 487.792969 159.558428 
L 488.337891 160.337725 
L 488.882812 162.014238 
L 491.607422 173.606279 
L 492.152344 175.205889 
L 492.697266 176.138994 
L 493.242188 176.708086 
L 493.787109 176.943926 
L 494.876953 177.097734 
L 495.421875 177.287432 
L 496.511719 177.154131 
L 498.691406 174.913652 
L 500.326172 171.909258 
L 500.871094 170.991533 
L 501.960938 170.007158 
L 502.505859 170.325029 
L 503.595703 172.268145 
L 504.140625 173.8575 
L 505.775391 181.209551 
L 506.865234 187.802812 
L 508.5 197.487627 
L 509.044922 200.035723 
L 510.134766 202.91707 
L 510.679688 203.409258 
L 511.224609 202.860674 
L 511.769531 202.086504 
L 512.314453 200.71248 
L 513.404297 196.134111 
L 516.128906 183.024492 
L 516.673828 180.901934 
L 517.763672 177.943682 
L 518.308594 176.877275 
L 518.853516 176.205645 
L 519.398438 175.780107 
L 519.943359 175.508379 
L 520.488281 175.431475 
L 521.578125 174.86751 
L 522.123047 174.308672 
L 522.667969 173.534502 
L 524.847656 168.028154 
L 525.392578 167.284746 
L 525.9375 167.161699 
L 526.482422 167.587236 
L 527.027344 168.684404 
L 527.572266 170.34041 
L 528.117188 172.524492 
L 530.296875 182.937334 
L 530.841797 184.936846 
L 531.386719 186.162187 
L 531.931641 187.013262 
L 532.476562 186.756914 
L 533.021484 186.290361 
L 534.111328 183.306475 
L 535.746094 176.144121 
L 536.835938 171.473467 
L 537.380859 169.97127 
L 538.470703 168.366533 
L 540.650391 167.976885 
L 541.740234 166.443926 
L 543.375 163.224199 
L 545.554688 158.363848 
L 546.644531 157.061602 
L 547.189453 156.907793 
L 548.279297 157.235918 
L 549.914062 159.778887 
L 551.003906 162.193682 
L 551.548828 162.834551 
L 552.09375 163.198564 
L 552.638672 163.249834 
L 553.183594 162.972979 
L 553.728516 162.983232 
L 554.818359 162.660234 
L 555.363281 162.998613 
L 558.632812 167.710283 
L 559.177734 168.202471 
L 559.722656 168.366533 
L 560.267578 168.13582 
L 560.8125 167.520586 
L 561.357422 166.69002 
L 562.992188 162.219316 
L 564.082031 158.589434 
L 564.626953 157.235918 
L 565.171875 156.200273 
L 565.716797 155.723467 
L 566.261719 156.107988 
L 566.806641 156.907793 
L 567.351562 158.122881 
L 568.441406 161.983477 
L 570.076172 168.48958 
L 571.166016 171.65291 
L 571.710938 172.765459 
L 572.255859 173.2679 
L 572.800781 173.288408 
L 573.345703 172.647539 
L 573.890625 171.411943 
L 574.435547 169.484209 
L 576.070312 162.690996 
L 576.615234 160.855547 
L 577.705078 158.979082 
L 578.25 158.363848 
L 579.339844 159.737871 
L 579.884766 160.947832 
L 580.974609 164.331621 
L 582.064453 167.705156 
L 584.244141 173.688311 
L 585.333984 175.498125 
L 586.423828 176.656816 
L 586.96875 176.53377 
L 587.513672 176.820879 
L 589.148438 175.836504 
L 590.238281 174.63167 
L 590.783203 173.303789 
L 591.328125 172.278398 
L 592.417969 169.243242 
L 592.962891 168.310137 
L 593.507812 167.741045 
L 594.052734 167.659014 
L 594.597656 168.181963 
L 595.142578 169.31502 
L 596.232422 173.006426 
L 597.322266 178.3846 
L 600.046875 194.826738 
L 600.591797 197.410723 
L 601.136719 199.379473 
L 601.681641 200.758623 
L 602.226562 201.512285 
L 602.771484 201.973711 
L 603.316406 201.214922 
L 603.861328 199.769121 
L 604.40625 197.913164 
L 605.496094 192.560625 
L 606.585938 187.172197 
L 607.675781 182.998857 
L 608.220703 181.230059 
L 608.765625 179.902178 
L 609.855469 178.14876 
L 610.400391 177.651445 
L 611.490234 176.974687 
L 612.035156 175.836504 
L 612.580078 175.344316 
L 614.214844 170.827471 
L 615.304688 167.582109 
L 615.849609 166.064531 
L 616.939453 164.177812 
L 617.484375 163.844561 
L 618.029297 164.321367 
L 618.574219 165.787676 
L 619.119141 167.725664 
L 619.664062 170.196855 
L 621.298828 179.035723 
L 621.84375 181.460771 
L 622.388672 182.973223 
L 622.933594 184.034502 
L 623.478516 184.075518 
L 624.023438 183.716631 
L 624.568359 182.619463 
L 625.658203 179.476641 
L 626.203125 177.384844 
L 627.837891 172.570635 
L 629.472656 169.279131 
L 630.017578 168.484453 
L 631.107422 167.587236 
L 631.652344 167.279619 
L 632.197266 167.182207 
L 633.287109 165.803057 
L 633.832031 164.61873 
L 636.556641 156.682207 
L 637.101562 156.000322 
L 637.646484 155.651689 
L 638.191406 155.497881 
L 639.28125 156.784746 
L 640.371094 157.963945 
L 641.460938 159.06624 
L 643.095703 159.594316 
L 644.185547 159.65584 
L 645.275391 159.640459 
L 646.365234 160.460771 
L 646.910156 160.68123 
L 647.455078 161.3221 
L 647.455078 161.3221 
" style="fill:none;stroke:#4c72b0;stroke-linecap:round;stroke-width:1.75;"/>
   </g>
   <g id="patch_3">
    <path d="M 90 270.72 
L 90 69.12 
" style="fill:none;stroke:#262626;stroke-linecap:square;stroke-linejoin:miter;stroke-width:1.25;"/>
   </g>
   <g id="patch_4">
    <path d="M 90 270.72 
L 648 270.72 
" style="fill:none;stroke:#262626;stroke-linecap:square;stroke-linejoin:miter;stroke-width:1.25;"/>
   </g>
  </g>
  <g id="axes_2">
   <g id="patch_5">
    <path d="M 90 512.64 
L 648 512.64 
L 648 311.04 
L 90 311.04 
z
" style="fill:#ffffff;"/>
   </g>
   <g id="matplotlib.axis_3">
    <g id="xtick_7">
     <g id="line2d_15">
      <g>
       <use style="fill:#262626;stroke:#262626;" x="218.197478" xlink:href="#m0f82ca5659" y="512.64"/>
      </g>
     </g>
     <g id="text_14">
      <!-- $\mathdefault{10^{2}}$ -->
      <g style="fill:#262626;" transform="translate(210.347478 535.9525)scale(0.1 -0.1)">
       <use transform="translate(0 0.99375)" xlink:href="#ArialMT-31"/>
       <use transform="translate(55.615234 0.99375)" xlink:href="#ArialMT-30"/>
       <use transform="translate(112.972813 70.6875)scale(0.7)" xlink:href="#ArialMT-32"/>
      </g>
     </g>
    </g>
    <g id="xtick_8">
     <g id="line2d_16">
      <g>
       <use style="fill:#262626;stroke:#262626;" x="401.606604" xlink:href="#m0f82ca5659" y="512.64"/>
      </g>
     </g>
     <g id="text_15">
      <!-- $\mathdefault{10^{3}}$ -->
      <defs>
       <path d="M 4.203125 18.890625 
L 12.984375 20.0625 
Q 14.5 12.59375 18.140625 9.296875 
Q 21.78125 6 27 6 
Q 33.203125 6 37.46875 10.296875 
Q 41.75 14.59375 41.75 20.953125 
Q 41.75 27 37.796875 30.921875 
Q 33.84375 34.859375 27.734375 34.859375 
Q 25.25 34.859375 21.53125 33.890625 
L 22.515625 41.609375 
Q 23.390625 41.5 23.921875 41.5 
Q 29.546875 41.5 34.03125 44.421875 
Q 38.53125 47.359375 38.53125 53.46875 
Q 38.53125 58.296875 35.25 61.46875 
Q 31.984375 64.65625 26.8125 64.65625 
Q 21.6875 64.65625 18.265625 61.421875 
Q 14.84375 58.203125 13.875 51.765625 
L 5.078125 53.328125 
Q 6.6875 62.15625 12.390625 67.015625 
Q 18.109375 71.875 26.609375 71.875 
Q 32.46875 71.875 37.390625 69.359375 
Q 42.328125 66.84375 44.9375 62.5 
Q 47.5625 58.15625 47.5625 53.265625 
Q 47.5625 48.640625 45.0625 44.828125 
Q 42.578125 41.015625 37.703125 38.765625 
Q 44.046875 37.3125 47.5625 32.6875 
Q 51.078125 28.078125 51.078125 21.140625 
Q 51.078125 11.765625 44.234375 5.25 
Q 37.40625 -1.265625 26.953125 -1.265625 
Q 17.53125 -1.265625 11.296875 4.34375 
Q 5.078125 9.96875 4.203125 18.890625 
z
" id="ArialMT-33"/>
      </defs>
      <g style="fill:#262626;" transform="translate(393.756604 535.9525)scale(0.1 -0.1)">
       <use transform="translate(0 0.99375)" xlink:href="#ArialMT-31"/>
       <use transform="translate(55.615234 0.99375)" xlink:href="#ArialMT-30"/>
       <use transform="translate(112.972813 70.6875)scale(0.7)" xlink:href="#ArialMT-33"/>
      </g>
     </g>
    </g>
    <g id="xtick_9">
     <g id="line2d_17">
      <g>
       <use style="fill:#262626;stroke:#262626;" x="585.01573" xlink:href="#m0f82ca5659" y="512.64"/>
      </g>
     </g>
     <g id="text_16">
      <!-- $\mathdefault{10^{4}}$ -->
      <g style="fill:#262626;" transform="translate(577.16573 535.8525)scale(0.1 -0.1)">
       <use transform="translate(0 0.201563)" xlink:href="#ArialMT-31"/>
       <use transform="translate(55.615234 0.201563)" xlink:href="#ArialMT-30"/>
       <use transform="translate(112.972813 69.895313)scale(0.7)" xlink:href="#ArialMT-34"/>
      </g>
     </g>
    </g>
    <g id="xtick_10">
     <g id="line2d_18">
      <defs>
       <path d="M 0 0 
L 0 3 
" id="m560d60e9b8" style="stroke:#262626;stroke-width:0.5;"/>
      </defs>
      <g>
       <use style="fill:#262626;stroke:#262626;stroke-width:0.5;" x="90" xlink:href="#m560d60e9b8" y="512.64"/>
      </g>
     </g>
    </g>
    <g id="xtick_11">
     <g id="line2d_19">
      <g>
       <use style="fill:#262626;stroke:#262626;stroke-width:0.5;" x="122.296744" xlink:href="#m560d60e9b8" y="512.64"/>
      </g>
     </g>
    </g>
    <g id="xtick_12">
     <g id="line2d_20">
      <g>
       <use style="fill:#262626;stroke:#262626;stroke-width:0.5;" x="145.211648" xlink:href="#m560d60e9b8" y="512.64"/>
      </g>
     </g>
    </g>
    <g id="xtick_13">
     <g id="line2d_21">
      <g>
       <use style="fill:#262626;stroke:#262626;stroke-width:0.5;" x="162.985829" xlink:href="#m560d60e9b8" y="512.64"/>
      </g>
     </g>
    </g>
    <g id="xtick_14">
     <g id="line2d_22">
      <g>
       <use style="fill:#262626;stroke:#262626;stroke-width:0.5;" x="177.508392" xlink:href="#m560d60e9b8" y="512.64"/>
      </g>
     </g>
    </g>
    <g id="xtick_15">
     <g id="line2d_23">
      <g>
       <use style="fill:#262626;stroke:#262626;stroke-width:0.5;" x="189.787045" xlink:href="#m560d60e9b8" y="512.64"/>
      </g>
     </g>
    </g>
    <g id="xtick_16">
     <g id="line2d_24">
      <g>
       <use style="fill:#262626;stroke:#262626;stroke-width:0.5;" x="200.423297" xlink:href="#m560d60e9b8" y="512.64"/>
      </g>
     </g>
    </g>
    <g id="xtick_17">
     <g id="line2d_25">
      <g>
       <use style="fill:#262626;stroke:#262626;stroke-width:0.5;" x="209.805136" xlink:href="#m560d60e9b8" y="512.64"/>
      </g>
     </g>
    </g>
    <g id="xtick_18">
     <g id="line2d_26">
      <g>
       <use style="fill:#262626;stroke:#262626;stroke-width:0.5;" x="273.409126" xlink:href="#m560d60e9b8" y="512.64"/>
      </g>
     </g>
    </g>
    <g id="xtick_19">
     <g id="line2d_27">
      <g>
       <use style="fill:#262626;stroke:#262626;stroke-width:0.5;" x="305.70587" xlink:href="#m560d60e9b8" y="512.64"/>
      </g>
     </g>
    </g>
    <g id="xtick_20">
     <g id="line2d_28">
      <g>
       <use style="fill:#262626;stroke:#262626;stroke-width:0.5;" x="328.620775" xlink:href="#m560d60e9b8" y="512.64"/>
      </g>
     </g>
    </g>
    <g id="xtick_21">
     <g id="line2d_29">
      <g>
       <use style="fill:#262626;stroke:#262626;stroke-width:0.5;" x="346.394955" xlink:href="#m560d60e9b8" y="512.64"/>
      </g>
     </g>
    </g>
    <g id="xtick_22">
     <g id="line2d_30">
      <g>
       <use style="fill:#262626;stroke:#262626;stroke-width:0.5;" x="360.917518" xlink:href="#m560d60e9b8" y="512.64"/>
      </g>
     </g>
    </g>
    <g id="xtick_23">
     <g id="line2d_31">
      <g>
       <use style="fill:#262626;stroke:#262626;stroke-width:0.5;" x="373.196171" xlink:href="#m560d60e9b8" y="512.64"/>
      </g>
     </g>
    </g>
    <g id="xtick_24">
     <g id="line2d_32">
      <g>
       <use style="fill:#262626;stroke:#262626;stroke-width:0.5;" x="383.832423" xlink:href="#m560d60e9b8" y="512.64"/>
      </g>
     </g>
    </g>
    <g id="xtick_25">
     <g id="line2d_33">
      <g>
       <use style="fill:#262626;stroke:#262626;stroke-width:0.5;" x="393.214262" xlink:href="#m560d60e9b8" y="512.64"/>
      </g>
     </g>
    </g>
    <g id="xtick_26">
     <g id="line2d_34">
      <g>
       <use style="fill:#262626;stroke:#262626;stroke-width:0.5;" x="456.818252" xlink:href="#m560d60e9b8" y="512.64"/>
      </g>
     </g>
    </g>
    <g id="xtick_27">
     <g id="line2d_35">
      <g>
       <use style="fill:#262626;stroke:#262626;stroke-width:0.5;" x="489.114996" xlink:href="#m560d60e9b8" y="512.64"/>
      </g>
     </g>
    </g>
    <g id="xtick_28">
     <g id="line2d_36">
      <g>
       <use style="fill:#262626;stroke:#262626;stroke-width:0.5;" x="512.029901" xlink:href="#m560d60e9b8" y="512.64"/>
      </g>
     </g>
    </g>
    <g id="xtick_29">
     <g id="line2d_37">
      <g>
       <use style="fill:#262626;stroke:#262626;stroke-width:0.5;" x="529.804081" xlink:href="#m560d60e9b8" y="512.64"/>
      </g>
     </g>
    </g>
    <g id="xtick_30">
     <g id="line2d_38">
      <g>
       <use style="fill:#262626;stroke:#262626;stroke-width:0.5;" x="544.326645" xlink:href="#m560d60e9b8" y="512.64"/>
      </g>
     </g>
    </g>
    <g id="xtick_31">
     <g id="line2d_39">
      <g>
       <use style="fill:#262626;stroke:#262626;stroke-width:0.5;" x="556.605297" xlink:href="#m560d60e9b8" y="512.64"/>
      </g>
     </g>
    </g>
    <g id="xtick_32">
     <g id="line2d_40">
      <g>
       <use style="fill:#262626;stroke:#262626;stroke-width:0.5;" x="567.241549" xlink:href="#m560d60e9b8" y="512.64"/>
      </g>
     </g>
    </g>
    <g id="xtick_33">
     <g id="line2d_41">
      <g>
       <use style="fill:#262626;stroke:#262626;stroke-width:0.5;" x="576.623389" xlink:href="#m560d60e9b8" y="512.64"/>
      </g>
     </g>
    </g>
    <g id="xtick_34">
     <g id="line2d_42">
      <g>
       <use style="fill:#262626;stroke:#262626;stroke-width:0.5;" x="640.227378" xlink:href="#m560d60e9b8" y="512.64"/>
      </g>
     </g>
    </g>
   </g>
   <g id="matplotlib.axis_4">
    <g id="ytick_8">
     <g id="line2d_43">
      <g>
       <use style="fill:#262626;stroke:#262626;" x="90" xlink:href="#m072d469ac4" y="512.64"/>
      </g>
     </g>
     <g id="text_17">
      <!-- $\mathdefault{10^{-5}}$ -->
      <defs>
       <path d="M 4.15625 18.75 
L 13.375 19.53125 
Q 14.40625 12.796875 18.140625 9.390625 
Q 21.875 6 27.15625 6 
Q 33.5 6 37.890625 10.78125 
Q 42.28125 15.578125 42.28125 23.484375 
Q 42.28125 31 38.0625 35.34375 
Q 33.84375 39.703125 27 39.703125 
Q 22.75 39.703125 19.328125 37.765625 
Q 15.921875 35.84375 13.96875 32.765625 
L 5.71875 33.84375 
L 12.640625 70.609375 
L 48.25 70.609375 
L 48.25 62.203125 
L 19.671875 62.203125 
L 15.828125 42.96875 
Q 22.265625 47.46875 29.34375 47.46875 
Q 38.71875 47.46875 45.15625 40.96875 
Q 51.609375 34.46875 51.609375 24.265625 
Q 51.609375 14.546875 45.953125 7.46875 
Q 39.0625 -1.21875 27.15625 -1.21875 
Q 17.390625 -1.21875 11.203125 4.25 
Q 5.03125 9.71875 4.15625 18.75 
z
" id="ArialMT-35"/>
      </defs>
      <g style="fill:#262626;" transform="translate(57.2 517.74625)scale(0.1 -0.1)">
       <use transform="translate(0 0.879688)" xlink:href="#ArialMT-31"/>
       <use transform="translate(55.615234 0.879688)" xlink:href="#ArialMT-30"/>
       <use transform="translate(112.972813 70.573438)scale(0.7)" xlink:href="#ArialMT-2212"/>
       <use transform="translate(153.851719 70.573438)scale(0.7)" xlink:href="#ArialMT-35"/>
      </g>
     </g>
    </g>
    <g id="ytick_9">
     <g id="line2d_44">
      <g>
       <use style="fill:#262626;stroke:#262626;" x="90" xlink:href="#m072d469ac4" y="465.767507"/>
      </g>
     </g>
     <g id="text_18">
      <!-- $\mathdefault{10^{-4}}$ -->
      <g style="fill:#262626;" transform="translate(57.2 470.873757)scale(0.1 -0.1)">
       <use transform="translate(0 0.201563)" xlink:href="#ArialMT-31"/>
       <use transform="translate(55.615234 0.201563)" xlink:href="#ArialMT-30"/>
       <use transform="translate(112.972813 69.895313)scale(0.7)" xlink:href="#ArialMT-2212"/>
       <use transform="translate(153.851719 69.895313)scale(0.7)" xlink:href="#ArialMT-34"/>
      </g>
     </g>
    </g>
    <g id="ytick_10">
     <g id="line2d_45">
      <g>
       <use style="fill:#262626;stroke:#262626;" x="90" xlink:href="#m072d469ac4" y="418.895013"/>
      </g>
     </g>
     <g id="text_19">
      <!-- $\mathdefault{10^{-3}}$ -->
      <g style="fill:#262626;" transform="translate(57.2 424.051263)scale(0.1 -0.1)">
       <use transform="translate(0 0.99375)" xlink:href="#ArialMT-31"/>
       <use transform="translate(55.615234 0.99375)" xlink:href="#ArialMT-30"/>
       <use transform="translate(112.972813 70.6875)scale(0.7)" xlink:href="#ArialMT-2212"/>
       <use transform="translate(153.851719 70.6875)scale(0.7)" xlink:href="#ArialMT-33"/>
      </g>
     </g>
    </g>
    <g id="ytick_11">
     <g id="line2d_46">
      <g>
       <use style="fill:#262626;stroke:#262626;" x="90" xlink:href="#m072d469ac4" y="372.02252"/>
      </g>
     </g>
     <g id="text_20">
      <!-- $\mathdefault{10^{-2}}$ -->
      <g style="fill:#262626;" transform="translate(57.2 377.17877)scale(0.1 -0.1)">
       <use transform="translate(0 0.99375)" xlink:href="#ArialMT-31"/>
       <use transform="translate(55.615234 0.99375)" xlink:href="#ArialMT-30"/>
       <use transform="translate(112.972813 70.6875)scale(0.7)" xlink:href="#ArialMT-2212"/>
       <use transform="translate(153.851719 70.6875)scale(0.7)" xlink:href="#ArialMT-32"/>
      </g>
     </g>
    </g>
    <g id="ytick_12">
     <g id="line2d_47">
      <g>
       <use style="fill:#262626;stroke:#262626;" x="90" xlink:href="#m072d469ac4" y="325.150026"/>
      </g>
     </g>
     <g id="text_21">
      <!-- $\mathdefault{10^{-1}}$ -->
      <g style="fill:#262626;" transform="translate(57.2 330.306276)scale(0.1 -0.1)">
       <use transform="translate(0 0.99375)" xlink:href="#ArialMT-31"/>
       <use transform="translate(55.615234 0.99375)" xlink:href="#ArialMT-30"/>
       <use transform="translate(112.972813 70.6875)scale(0.7)" xlink:href="#ArialMT-2212"/>
       <use transform="translate(153.851719 70.6875)scale(0.7)" xlink:href="#ArialMT-31"/>
      </g>
     </g>
    </g>
    <g id="ytick_13">
     <g id="line2d_48">
      <defs>
       <path d="M 0 0 
L -3 0 
" id="m556562c25a" style="stroke:#262626;stroke-width:0.5;"/>
      </defs>
      <g>
       <use style="fill:#262626;stroke:#262626;stroke-width:0.5;" x="90" xlink:href="#m556562c25a" y="498.529974"/>
      </g>
     </g>
    </g>
    <g id="ytick_14">
     <g id="line2d_49">
      <g>
       <use style="fill:#262626;stroke:#262626;stroke-width:0.5;" x="90" xlink:href="#m556562c25a" y="490.276137"/>
      </g>
     </g>
    </g>
    <g id="ytick_15">
     <g id="line2d_50">
      <g>
       <use style="fill:#262626;stroke:#262626;stroke-width:0.5;" x="90" xlink:href="#m556562c25a" y="484.419947"/>
      </g>
     </g>
    </g>
    <g id="ytick_16">
     <g id="line2d_51">
      <g>
       <use style="fill:#262626;stroke:#262626;stroke-width:0.5;" x="90" xlink:href="#m556562c25a" y="479.877533"/>
      </g>
     </g>
    </g>
    <g id="ytick_17">
     <g id="line2d_52">
      <g>
       <use style="fill:#262626;stroke:#262626;stroke-width:0.5;" x="90" xlink:href="#m556562c25a" y="476.166111"/>
      </g>
     </g>
    </g>
    <g id="ytick_18">
     <g id="line2d_53">
      <g>
       <use style="fill:#262626;stroke:#262626;stroke-width:0.5;" x="90" xlink:href="#m556562c25a" y="473.028148"/>
      </g>
     </g>
    </g>
    <g id="ytick_19">
     <g id="line2d_54">
      <g>
       <use style="fill:#262626;stroke:#262626;stroke-width:0.5;" x="90" xlink:href="#m556562c25a" y="470.309921"/>
      </g>
     </g>
    </g>
    <g id="ytick_20">
     <g id="line2d_55">
      <g>
       <use style="fill:#262626;stroke:#262626;stroke-width:0.5;" x="90" xlink:href="#m556562c25a" y="467.912274"/>
      </g>
     </g>
    </g>
    <g id="ytick_21">
     <g id="line2d_56">
      <g>
       <use style="fill:#262626;stroke:#262626;stroke-width:0.5;" x="90" xlink:href="#m556562c25a" y="451.65748"/>
      </g>
     </g>
    </g>
    <g id="ytick_22">
     <g id="line2d_57">
      <g>
       <use style="fill:#262626;stroke:#262626;stroke-width:0.5;" x="90" xlink:href="#m556562c25a" y="443.403644"/>
      </g>
     </g>
    </g>
    <g id="ytick_23">
     <g id="line2d_58">
      <g>
       <use style="fill:#262626;stroke:#262626;stroke-width:0.5;" x="90" xlink:href="#m556562c25a" y="437.547454"/>
      </g>
     </g>
    </g>
    <g id="ytick_24">
     <g id="line2d_59">
      <g>
       <use style="fill:#262626;stroke:#262626;stroke-width:0.5;" x="90" xlink:href="#m556562c25a" y="433.00504"/>
      </g>
     </g>
    </g>
    <g id="ytick_25">
     <g id="line2d_60">
      <g>
       <use style="fill:#262626;stroke:#262626;stroke-width:0.5;" x="90" xlink:href="#m556562c25a" y="429.293617"/>
      </g>
     </g>
    </g>
    <g id="ytick_26">
     <g id="line2d_61">
      <g>
       <use style="fill:#262626;stroke:#262626;stroke-width:0.5;" x="90" xlink:href="#m556562c25a" y="426.155654"/>
      </g>
     </g>
    </g>
    <g id="ytick_27">
     <g id="line2d_62">
      <g>
       <use style="fill:#262626;stroke:#262626;stroke-width:0.5;" x="90" xlink:href="#m556562c25a" y="423.437427"/>
      </g>
     </g>
    </g>
    <g id="ytick_28">
     <g id="line2d_63">
      <g>
       <use style="fill:#262626;stroke:#262626;stroke-width:0.5;" x="90" xlink:href="#m556562c25a" y="421.039781"/>
      </g>
     </g>
    </g>
    <g id="ytick_29">
     <g id="line2d_64">
      <g>
       <use style="fill:#262626;stroke:#262626;stroke-width:0.5;" x="90" xlink:href="#m556562c25a" y="404.784987"/>
      </g>
     </g>
    </g>
    <g id="ytick_30">
     <g id="line2d_65">
      <g>
       <use style="fill:#262626;stroke:#262626;stroke-width:0.5;" x="90" xlink:href="#m556562c25a" y="396.53115"/>
      </g>
     </g>
    </g>
    <g id="ytick_31">
     <g id="line2d_66">
      <g>
       <use style="fill:#262626;stroke:#262626;stroke-width:0.5;" x="90" xlink:href="#m556562c25a" y="390.67496"/>
      </g>
     </g>
    </g>
    <g id="ytick_32">
     <g id="line2d_67">
      <g>
       <use style="fill:#262626;stroke:#262626;stroke-width:0.5;" x="90" xlink:href="#m556562c25a" y="386.132546"/>
      </g>
     </g>
    </g>
    <g id="ytick_33">
     <g id="line2d_68">
      <g>
       <use style="fill:#262626;stroke:#262626;stroke-width:0.5;" x="90" xlink:href="#m556562c25a" y="382.421124"/>
      </g>
     </g>
    </g>
    <g id="ytick_34">
     <g id="line2d_69">
      <g>
       <use style="fill:#262626;stroke:#262626;stroke-width:0.5;" x="90" xlink:href="#m556562c25a" y="379.283161"/>
      </g>
     </g>
    </g>
    <g id="ytick_35">
     <g id="line2d_70">
      <g>
       <use style="fill:#262626;stroke:#262626;stroke-width:0.5;" x="90" xlink:href="#m556562c25a" y="376.564934"/>
      </g>
     </g>
    </g>
    <g id="ytick_36">
     <g id="line2d_71">
      <g>
       <use style="fill:#262626;stroke:#262626;stroke-width:0.5;" x="90" xlink:href="#m556562c25a" y="374.167288"/>
      </g>
     </g>
    </g>
    <g id="ytick_37">
     <g id="line2d_72">
      <g>
       <use style="fill:#262626;stroke:#262626;stroke-width:0.5;" x="90" xlink:href="#m556562c25a" y="357.912493"/>
      </g>
     </g>
    </g>
    <g id="ytick_38">
     <g id="line2d_73">
      <g>
       <use style="fill:#262626;stroke:#262626;stroke-width:0.5;" x="90" xlink:href="#m556562c25a" y="349.658657"/>
      </g>
     </g>
    </g>
    <g id="ytick_39">
     <g id="line2d_74">
      <g>
       <use style="fill:#262626;stroke:#262626;stroke-width:0.5;" x="90" xlink:href="#m556562c25a" y="343.802467"/>
      </g>
     </g>
    </g>
    <g id="ytick_40">
     <g id="line2d_75">
      <g>
       <use style="fill:#262626;stroke:#262626;stroke-width:0.5;" x="90" xlink:href="#m556562c25a" y="339.260053"/>
      </g>
     </g>
    </g>
    <g id="ytick_41">
     <g id="line2d_76">
      <g>
       <use style="fill:#262626;stroke:#262626;stroke-width:0.5;" x="90" xlink:href="#m556562c25a" y="335.548631"/>
      </g>
     </g>
    </g>
    <g id="ytick_42">
     <g id="line2d_77">
      <g>
       <use style="fill:#262626;stroke:#262626;stroke-width:0.5;" x="90" xlink:href="#m556562c25a" y="332.410668"/>
      </g>
     </g>
    </g>
    <g id="ytick_43">
     <g id="line2d_78">
      <g>
       <use style="fill:#262626;stroke:#262626;stroke-width:0.5;" x="90" xlink:href="#m556562c25a" y="329.69244"/>
      </g>
     </g>
    </g>
    <g id="ytick_44">
     <g id="line2d_79">
      <g>
       <use style="fill:#262626;stroke:#262626;stroke-width:0.5;" x="90" xlink:href="#m556562c25a" y="327.294794"/>
      </g>
     </g>
    </g>
    <g id="ytick_45">
     <g id="line2d_80">
      <g>
       <use style="fill:#262626;stroke:#262626;stroke-width:0.5;" x="90" xlink:href="#m556562c25a" y="311.04"/>
      </g>
     </g>
    </g>
   </g>
   <g id="line2d_81">
    <path clip-path="url(#p1b0e4f113e)" d="M -1 371.868151 
L 151.095164 371.865151 
L 206.306812 395.521992 
L 238.603556 402.390857 
L 261.518461 410.013597 
L 279.292642 454.659648 
L 293.815205 345.09529 
L 306.093857 404.123313 
L 316.730109 431.972243 
L 326.111949 437.631594 
L 334.50429 459.79298 
L 342.096086 432.801752 
L 349.026853 377.574158 
L 355.402541 424.560812 
L 361.305505 433.691548 
L 366.801034 432.502197 
L 371.941758 427.135574 
L 376.770725 415.963321 
L 381.323597 370.693343 
L 385.630245 402.035053 
L 389.715939 411.831156 
L 393.602249 412.494542 
L 397.307735 407.373428 
L 400.848476 395.444174 
L 404.238502 361.522624 
L 407.490119 382.492313 
L 410.614189 398.577942 
L 413.620341 404.870723 
L 416.517154 403.161187 
L 419.312303 398.718703 
L 422.012683 372.584196 
L 424.624509 383.911916 
L 427.153406 398.684122 
L 429.604479 404.262926 
L 431.982374 404.647786 
L 434.291335 399.138747 
L 436.535246 378.045571 
L 438.717672 379.559314 
L 440.841893 398.013152 
L 442.910933 403.386481 
L 444.927587 403.30565 
L 446.894442 399.734389 
L 448.813898 384.808428 
L 450.688186 377.401086 
L 452.519383 408.974962 
L 454.309426 425.987518 
L 456.060125 438.355701 
L 457.773171 456.543368 
L 459.45015 462.892057 
L 461.09255 403.48279 
L 462.701768 429.0114 
L 464.279118 432.27531 
L 465.825838 428.66686 
L 467.343094 422.862733 
L 468.83199 411.084984 
L 470.293564 376.797268 
L 471.728802 407.132248 
L 473.138637 426.372839 
L 474.523951 437.410019 
L 475.885584 449.407456 
L 477.224331 457.991031 
L 478.540949 427.636019 
L 479.836157 414.631563 
L 481.110642 435.586818 
L 482.365055 440.306502 
L 483.600019 448.258592 
L 484.816127 451.726391 
L 486.013948 467.448158 
L 487.194022 414.982544 
L 488.356869 446.764479 
L 489.502983 451.860098 
L 490.63284 452.562923 
L 491.746894 456.288608 
L 492.845581 468.97799 
L 493.92932 448.063371 
L 494.998512 438.638616 
L 496.053541 447.340851 
L 497.094779 451.18978 
L 498.122582 452.255803 
L 499.137291 452.108813 
L 500.139235 454.19603 
L 501.128734 452.068769 
L 502.10609 455.813293 
L 503.0716 456.130161 
L 504.025546 457.046544 
L 504.968203 458.767805 
L 505.899834 451.522652 
L 506.820695 458.796538 
L 507.731032 444.447317 
L 508.631082 446.37567 
L 509.521075 445.318111 
L 510.401234 434.339398 
L 511.271773 462.199603 
L 512.132901 458.153729 
L 512.984819 435.243538 
L 513.827722 433.480713 
L 514.661799 469.731671 
L 515.487232 473.673514 
L 516.304198 469.271073 
L 517.112871 466.377296 
L 517.913416 456.863831 
L 518.705996 438.277592 
L 519.490766 458.536671 
L 520.26788 491.991132 
L 521.037486 470.224442 
L 521.799727 487.422952 
L 522.554743 488.565971 
L 523.302669 470.974307 
L 524.043638 463.046717 
L 524.777778 483.619995 
L 525.505212 480.746804 
L 526.226064 480.951288 
L 526.940451 488.140417 
L 527.648487 490.055367 
L 528.350285 477.624057 
L 529.045954 491.527291 
L 529.7356 466.959765 
L 530.419326 470.5993 
L 531.097232 470.349405 
L 531.769418 473.373379 
L 532.435979 474.252382 
L 533.752597 463.259464 
L 534.402834 476.227102 
L 535.047806 486.274144 
L 535.687597 486.158195 
L 536.32229 482.593025 
L 536.951966 476.101864 
L 537.576703 486.757525 
L 538.196578 485.646601 
L 538.811667 443.307791 
L 539.422042 469.111968 
L 540.027776 468.985384 
L 540.628938 477.097084 
L 541.225596 476.723311 
L 541.817819 478.060117 
L 542.405671 473.914562 
L 542.989216 475.349041 
L 543.568517 472.030587 
L 544.143636 474.332189 
L 544.714632 474.812161 
L 545.281563 473.339107 
L 545.844488 476.501685 
L 546.403463 485.183482 
L 546.958543 478.694832 
L 547.509781 465.747371 
L 548.05723 474.414062 
L 548.600942 470.739702 
L 549.677358 485.99795 
L 550.21016 488.825293 
L 550.739422 476.406398 
L 551.26519 476.653767 
L 551.78751 470.735336 
L 552.306428 473.676495 
L 552.821987 479.775789 
L 553.33423 478.054682 
L 553.8432 477.64463 
L 554.348939 477.878351 
L 554.851487 472.693011 
L 555.350884 470.535818 
L 555.847169 476.621315 
L 556.340382 474.492189 
L 556.830559 478.664063 
L 557.317739 480.096177 
L 557.801956 494.325461 
L 558.283248 483.415104 
L 558.76165 481.306223 
L 559.237195 472.362234 
L 559.709918 487.76275 
L 560.179852 471.566598 
L 560.647029 480.366069 
L 561.573244 483.849664 
L 562.032344 477.987569 
L 562.488812 477.540202 
L 562.94268 474.866023 
L 563.393976 480.431378 
L 563.84273 474.288594 
L 564.28897 480.84463 
L 564.732723 475.706609 
L 565.174019 476.262734 
L 565.612882 475.484473 
L 566.049341 493.361979 
L 566.483422 474.561359 
L 566.91515 473.722666 
L 567.34455 497.101009 
L 567.771648 492.614347 
L 568.196468 480.597883 
L 568.619034 489.735066 
L 569.039371 494.750187 
L 569.457501 481.393969 
L 569.873447 479.015944 
L 570.287233 494.288844 
L 570.69888 489.184872 
L 571.108411 495.887028 
L 571.515847 493.851624 
L 571.921209 487.040934 
L 572.32452 487.188093 
L 572.725798 478.747467 
L 573.125065 473.651478 
L 573.52234 486.856245 
L 573.917644 479.323835 
L 574.310996 482.354502 
L 574.702415 477.762528 
L 575.091919 486.806532 
L 575.479529 487.070563 
L 575.865261 489.856747 
L 576.249135 486.946245 
L 576.631167 494.357075 
L 577.011376 475.642087 
L 577.389778 486.816419 
L 577.766391 494.312683 
L 578.141232 484.042438 
L 578.514318 478.556816 
L 579.255287 474.907037 
L 579.623202 481.162249 
L 579.989426 497.396028 
L 580.353974 488.529398 
L 581.078102 484.419116 
L 581.437713 485.46452 
L 581.795707 487.641989 
L 582.152099 486.782933 
L 582.506904 486.251135 
L 582.860136 483.555624 
L 583.211808 481.947198 
L 583.561934 482.619935 
L 583.910528 477.662149 
L 584.603172 492.180612 
L 584.947248 486.281909 
L 585.289845 509.831357 
L 585.630974 502.273936 
L 585.970649 483.952135 
L 586.308881 481.014231 
L 586.645683 483.626753 
L 587.315045 480.052017 
L 587.647628 481.884498 
L 587.978828 488.609261 
L 588.308657 513.013321 
L 588.637126 504.133602 
L 588.964246 488.719134 
L 589.290028 488.629722 
L 589.614483 489.476954 
L 589.937621 491.522647 
L 590.259454 488.527012 
L 590.579992 498.747646 
L 590.899246 490.800784 
L 591.217224 494.142409 
L 591.533939 478.432828 
L 591.849399 490.896623 
L 592.163614 484.737277 
L 592.476596 512.145916 
L 592.788352 489.703775 
L 593.098892 486.533056 
L 593.408227 494.232179 
L 593.716365 487.914969 
L 594.023315 487.988834 
L 594.329088 488.507261 
L 594.937133 478.471354 
L 595.239424 488.949448 
L 595.540572 488.674857 
L 595.840586 482.169511 
L 596.139474 485.318397 
L 596.437245 496.584017 
L 596.733906 478.039764 
L 597.029467 477.474138 
L 597.323936 495.58391 
L 597.617319 484.394257 
L 597.909626 488.243868 
L 598.200864 493.762453 
L 598.491042 482.886489 
L 598.780166 502.046027 
L 599.068244 484.571771 
L 599.355284 479.934428 
L 599.641294 490.805165 
L 599.92628 483.243282 
L 600.21025 483.164774 
L 600.493212 485.436236 
L 600.775172 494.046526 
L 601.056137 491.273495 
L 601.336115 485.920951 
L 601.615112 484.626594 
L 601.893135 511.908916 
L 602.446287 485.618638 
L 602.721429 487.604404 
L 602.995624 477.186677 
L 603.268878 499.140322 
L 603.541199 483.687378 
L 603.812591 482.471303 
L 604.083062 483.362507 
L 604.352617 506.635226 
L 604.621264 483.381203 
L 604.889007 505.050085 
L 605.155853 505.542467 
L 605.421809 488.826404 
L 605.686879 482.163633 
L 605.95107 484.116932 
L 606.214388 498.305971 
L 606.738427 489.093844 
L 606.999159 483.314872 
L 607.25904 494.598335 
L 607.518076 493.715261 
L 607.776273 490.531263 
L 608.033635 481.727214 
L 608.290169 490.332363 
L 608.545879 486.753903 
L 608.80077 486.672463 
L 609.054849 493.746555 
L 609.308119 508.363457 
L 609.560587 506.746356 
L 610.063135 477.810737 
L 610.313225 492.844315 
L 610.562532 496.803878 
L 610.811062 484.714441 
L 611.058818 486.02309 
L 611.305806 493.706141 
L 611.55203 495.721931 
L 611.797496 483.3507 
L 612.042208 480.308782 
L 612.28617 487.125052 
L 612.529387 488.055831 
L 612.771864 483.050642 
L 613.013605 486.81765 
L 613.254614 487.014205 
L 613.494897 493.548937 
L 613.734457 521.404344 
L 613.973298 482.405681 
L 614.211426 489.676231 
L 614.448843 492.00932 
L 614.685555 483.638906 
L 614.921566 523.811053 
L 615.15688 490.406242 
L 615.3915 500.06796 
L 615.625431 489.651411 
L 616.091243 493.494366 
L 616.323131 505.177707 
L 616.784892 486.589351 
L 617.014773 492.452909 
L 617.472553 496.985659 
L 617.700461 488.801664 
L 617.927718 488.516327 
L 618.154329 483.468432 
L 618.380296 485.023832 
L 618.605625 499.610651 
L 618.830318 482.321639 
L 619.054379 488.129966 
L 619.277811 476.113768 
L 619.500618 483.757906 
L 619.722804 487.463493 
L 619.944372 487.526927 
L 620.165325 482.882466 
L 620.385667 510.407364 
L 620.605401 492.779946 
L 621.043059 483.440847 
L 621.26099 476.28353 
L 621.478326 493.6746 
L 621.69507 490.523797 
L 622.126798 503.471903 
L 622.341787 483.884266 
L 622.556198 484.906046 
L 622.770034 500.012075 
L 622.983296 479.881641 
L 623.195989 505.472995 
L 623.408116 482.362122 
L 623.61968 486.156103 
L 624.041128 528.451631 
L 624.251019 495.520602 
L 624.460358 484.641916 
L 624.669149 495.315598 
L 624.877394 498.099534 
L 625.085096 486.556802 
L 625.292257 499.135629 
L 625.498881 497.302318 
L 625.910528 489.214996 
L 626.115557 501.081254 
L 626.320059 478.64485 
L 626.727495 490.272879 
L 626.930435 492.066305 
L 627.132858 497.194616 
L 627.334768 526.389805 
L 627.536168 482.811446 
L 627.73706 498.495225 
L 627.937446 486.653219 
L 628.13733 502.119742 
L 628.336713 481.369867 
L 628.535599 479.850181 
L 628.733989 505.498242 
L 628.931886 477.556277 
L 629.129293 496.439418 
L 629.522644 484.150751 
L 629.718594 488.637225 
L 629.914063 485.023591 
L 630.109054 489.183804 
L 630.303568 499.74819 
L 630.497608 490.616026 
L 630.691177 491.820097 
L 630.884277 488.352023 
L 631.07691 487.68949 
L 631.460783 497.380957 
L 631.652028 494.966634 
L 631.842815 487.907968 
L 632.033146 487.385555 
L 632.223024 501.036424 
L 632.41245 492.819099 
L 632.601426 507.703459 
L 632.789956 483.234073 
L 632.97804 505.980102 
L 633.165681 498.907341 
L 633.352881 511.455641 
L 633.539642 491.777274 
L 633.911856 483.804876 
L 634.097312 482.83357 
L 634.282338 494.082286 
L 634.466935 483.615183 
L 634.651105 500.108685 
L 634.83485 474.412465 
L 635.018173 497.99671 
L 635.201074 492.279621 
L 635.383557 480.114183 
L 635.747272 491.840959 
L 635.928509 490.986628 
L 636.109335 493.483052 
L 636.289751 498.626391 
L 636.649361 490.887633 
L 636.828559 519.920659 
L 637.185751 476.438614 
L 637.363748 491.194352 
L 637.541348 481.996175 
L 637.718553 497.07414 
L 638.071784 485.282009 
L 638.247814 482.848193 
L 638.423456 495.663254 
L 638.598712 492.573586 
L 638.773582 493.261808 
L 638.94807 520.09969 
L 639.122176 490.687208 
L 639.295903 483.629065 
L 639.469251 512.641362 
L 639.642223 484.987094 
L 639.81482 498.330897 
L 639.987044 482.24719 
L 640.158897 488.947812 
L 640.330379 485.358914 
L 640.67224 495.912202 
L 640.842622 503.338761 
L 641.012641 479.963464 
L 641.182297 481.881064 
L 641.520529 530.523403 
L 641.857331 489.302731 
L 642.0252 492.363262 
L 642.192715 501.925161 
L 642.359879 491.761107 
L 642.526693 489.816998 
L 642.693158 495.698827 
L 642.859276 486.287415 
L 643.025049 499.645789 
L 643.190477 498.5137 
L 643.355562 484.008476 
L 643.520306 481.326957 
L 643.684709 492.336101 
L 644.012502 482.290184 
L 644.175894 492.923544 
L 644.338952 490.463138 
L 644.501676 510.34365 
L 644.664069 493.881272 
L 644.826131 492.391244 
L 644.987864 487.135978 
L 645.310349 499.584536 
L 645.471103 487.84285 
L 645.631533 484.453258 
L 645.791641 496.958763 
L 645.951427 498.757387 
L 646.110894 513.039245 
L 646.270042 492.685013 
L 646.428873 505.435164 
L 646.587387 488.837708 
L 646.745587 495.543734 
L 646.903473 492.889148 
L 647.061047 481.668277 
L 647.21831 506.504933 
L 647.688244 489.943355 
L 647.844274 487.162309 
L 647.844274 487.162309 
" style="fill:none;stroke:#b22222;stroke-linecap:round;stroke-width:1.75;"/>
   </g>
   <g id="patch_6">
    <path d="M 90 512.64 
L 90 311.04 
" style="fill:none;stroke:#262626;stroke-linecap:square;stroke-linejoin:miter;stroke-width:1.25;"/>
   </g>
   <g id="patch_7">
    <path d="M 90 512.64 
L 648 512.64 
" style="fill:none;stroke:#262626;stroke-linecap:square;stroke-linejoin:miter;stroke-width:1.25;"/>
   </g>
  </g>
 </g>
 <defs>
  <clipPath id="p185d11fed4">
   <rect height="201.6" width="558" x="90" y="69.12"/>
  </clipPath>
  <clipPath id="p1b0e4f113e">
   <rect height="201.6" width="558" x="90" y="311.04"/>
  </clipPath>
 </defs>
</svg>
