<?xml version="1.0" encoding="utf-8" standalone="no"?>
<!DOCTYPE svg PUBLIC "-//W3C//DTD SVG 1.1//EN"
  "http://www.w3.org/Graphics/SVG/1.1/DTD/svg11.dtd">
<!-- Created with matplotlib (http://matplotlib.org/) -->
<svg height="576pt" version="1.1" viewBox="0 0 720 576" width="720pt" xmlns="http://www.w3.org/2000/svg" xmlns:xlink="http://www.w3.org/1999/xlink">
 <defs>
  <style type="text/css">
*{stroke-linecap:butt;stroke-linejoin:round;}
  </style>
 </defs>
 <g id="figure_1">
  <g id="patch_1">
   <path d="M 0 576 
L 720 576 
L 720 0 
L 0 0 
z
" style="fill:#ffffff;"/>
  </g>
  <g id="axes_1">
   <g id="patch_2">
    <path d="M 90 270.72 
L 648 270.72 
L 648 69.12 
L 90 69.12 
z
" style="fill:#ffffff;"/>
   </g>
   <g id="matplotlib.axis_1">
    <g id="xtick_1">
     <g id="line2d_1">
      <defs>
       <path d="M 0 0 
L 0 6 
" id="mf7d77ea552" style="stroke:#262626;"/>
      </defs>
      <g>
       <use style="fill:#262626;stroke:#262626;" x="90" xlink:href="#mf7d77ea552" y="270.72"/>
      </g>
     </g>
     <g id="text_1">
      <!-- 0 -->
      <defs>
       <path d="M 4.15625 35.296875 
Q 4.15625 48 6.765625 55.734375 
Q 9.375 63.484375 14.515625 67.671875 
Q 19.671875 71.875 27.484375 71.875 
Q 33.25 71.875 37.59375 69.546875 
Q 41.9375 67.234375 44.765625 62.859375 
Q 47.609375 58.5 49.21875 52.21875 
Q 50.828125 45.953125 50.828125 35.296875 
Q 50.828125 22.703125 48.234375 14.96875 
Q 45.65625 7.234375 40.5 3 
Q 35.359375 -1.21875 27.484375 -1.21875 
Q 17.140625 -1.21875 11.234375 6.203125 
Q 4.15625 15.140625 4.15625 35.296875 
z
M 13.1875 35.296875 
Q 13.1875 17.671875 17.3125 11.828125 
Q 21.4375 6 27.484375 6 
Q 33.546875 6 37.671875 11.859375 
Q 41.796875 17.71875 41.796875 35.296875 
Q 41.796875 52.984375 37.671875 58.78125 
Q 33.546875 64.59375 27.390625 64.59375 
Q 21.34375 64.59375 17.71875 59.46875 
Q 13.1875 52.9375 13.1875 35.296875 
z
" id="ArialMT-30"/>
      </defs>
      <g style="fill:#262626;" transform="translate(87.219531 290.877812)scale(0.1 -0.1)">
       <use xlink:href="#ArialMT-30"/>
      </g>
     </g>
    </g>
    <g id="xtick_2">
     <g id="line2d_2">
      <g>
       <use style="fill:#262626;stroke:#262626;" x="198.984375" xlink:href="#mf7d77ea552" y="270.72"/>
      </g>
     </g>
     <g id="text_2">
      <!-- 200 -->
      <defs>
       <path d="M 50.34375 8.453125 
L 50.34375 0 
L 3.03125 0 
Q 2.9375 3.171875 4.046875 6.109375 
Q 5.859375 10.9375 9.828125 15.625 
Q 13.8125 20.3125 21.34375 26.46875 
Q 33.015625 36.03125 37.109375 41.625 
Q 41.21875 47.21875 41.21875 52.203125 
Q 41.21875 57.421875 37.46875 61 
Q 33.734375 64.59375 27.734375 64.59375 
Q 21.390625 64.59375 17.578125 60.78125 
Q 13.765625 56.984375 13.71875 50.25 
L 4.6875 51.171875 
Q 5.609375 61.28125 11.65625 66.578125 
Q 17.71875 71.875 27.9375 71.875 
Q 38.234375 71.875 44.234375 66.15625 
Q 50.25 60.453125 50.25 52 
Q 50.25 47.703125 48.484375 43.546875 
Q 46.734375 39.40625 42.65625 34.8125 
Q 38.578125 30.21875 29.109375 22.21875 
Q 21.1875 15.578125 18.9375 13.203125 
Q 16.703125 10.84375 15.234375 8.453125 
z
" id="ArialMT-32"/>
      </defs>
      <g style="fill:#262626;" transform="translate(190.642969 290.877812)scale(0.1 -0.1)">
       <use xlink:href="#ArialMT-32"/>
       <use x="55.615234" xlink:href="#ArialMT-30"/>
       <use x="111.230469" xlink:href="#ArialMT-30"/>
      </g>
     </g>
    </g>
    <g id="xtick_3">
     <g id="line2d_3">
      <g>
       <use style="fill:#262626;stroke:#262626;" x="307.96875" xlink:href="#mf7d77ea552" y="270.72"/>
      </g>
     </g>
     <g id="text_3">
      <!-- 400 -->
      <defs>
       <path d="M 32.328125 0 
L 32.328125 17.140625 
L 1.265625 17.140625 
L 1.265625 25.203125 
L 33.9375 71.578125 
L 41.109375 71.578125 
L 41.109375 25.203125 
L 50.78125 25.203125 
L 50.78125 17.140625 
L 41.109375 17.140625 
L 41.109375 0 
z
M 32.328125 25.203125 
L 32.328125 57.46875 
L 9.90625 25.203125 
z
" id="ArialMT-34"/>
      </defs>
      <g style="fill:#262626;" transform="translate(299.627344 290.877812)scale(0.1 -0.1)">
       <use xlink:href="#ArialMT-34"/>
       <use x="55.615234" xlink:href="#ArialMT-30"/>
       <use x="111.230469" xlink:href="#ArialMT-30"/>
      </g>
     </g>
    </g>
    <g id="xtick_4">
     <g id="line2d_4">
      <g>
       <use style="fill:#262626;stroke:#262626;" x="416.953125" xlink:href="#mf7d77ea552" y="270.72"/>
      </g>
     </g>
     <g id="text_4">
      <!-- 600 -->
      <defs>
       <path d="M 49.75 54.046875 
L 41.015625 53.375 
Q 39.84375 58.546875 37.703125 60.890625 
Q 34.125 64.65625 28.90625 64.65625 
Q 24.703125 64.65625 21.53125 62.3125 
Q 17.390625 59.28125 14.984375 53.46875 
Q 12.59375 47.65625 12.5 36.921875 
Q 15.671875 41.75 20.265625 44.09375 
Q 24.859375 46.4375 29.890625 46.4375 
Q 38.671875 46.4375 44.84375 39.96875 
Q 51.03125 33.5 51.03125 23.25 
Q 51.03125 16.5 48.125 10.71875 
Q 45.21875 4.9375 40.140625 1.859375 
Q 35.0625 -1.21875 28.609375 -1.21875 
Q 17.625 -1.21875 10.6875 6.859375 
Q 3.765625 14.9375 3.765625 33.5 
Q 3.765625 54.25 11.421875 63.671875 
Q 18.109375 71.875 29.4375 71.875 
Q 37.890625 71.875 43.28125 67.140625 
Q 48.6875 62.40625 49.75 54.046875 
z
M 13.875 23.1875 
Q 13.875 18.65625 15.796875 14.5 
Q 17.71875 10.359375 21.1875 8.171875 
Q 24.65625 6 28.46875 6 
Q 34.03125 6 38.03125 10.484375 
Q 42.046875 14.984375 42.046875 22.703125 
Q 42.046875 30.125 38.078125 34.390625 
Q 34.125 38.671875 28.125 38.671875 
Q 22.171875 38.671875 18.015625 34.390625 
Q 13.875 30.125 13.875 23.1875 
z
" id="ArialMT-36"/>
      </defs>
      <g style="fill:#262626;" transform="translate(408.611719 290.877812)scale(0.1 -0.1)">
       <use xlink:href="#ArialMT-36"/>
       <use x="55.615234" xlink:href="#ArialMT-30"/>
       <use x="111.230469" xlink:href="#ArialMT-30"/>
      </g>
     </g>
    </g>
    <g id="xtick_5">
     <g id="line2d_5">
      <g>
       <use style="fill:#262626;stroke:#262626;" x="525.9375" xlink:href="#mf7d77ea552" y="270.72"/>
      </g>
     </g>
     <g id="text_5">
      <!-- 800 -->
      <defs>
       <path d="M 17.671875 38.8125 
Q 12.203125 40.828125 9.5625 44.53125 
Q 6.9375 48.25 6.9375 53.421875 
Q 6.9375 61.234375 12.546875 66.546875 
Q 18.171875 71.875 27.484375 71.875 
Q 36.859375 71.875 42.578125 66.421875 
Q 48.296875 60.984375 48.296875 53.171875 
Q 48.296875 48.1875 45.671875 44.5 
Q 43.0625 40.828125 37.75 38.8125 
Q 44.34375 36.671875 47.78125 31.875 
Q 51.21875 27.09375 51.21875 20.453125 
Q 51.21875 11.28125 44.71875 5.03125 
Q 38.234375 -1.21875 27.640625 -1.21875 
Q 17.046875 -1.21875 10.546875 5.046875 
Q 4.046875 11.328125 4.046875 20.703125 
Q 4.046875 27.6875 7.59375 32.390625 
Q 11.140625 37.109375 17.671875 38.8125 
z
M 15.921875 53.71875 
Q 15.921875 48.640625 19.1875 45.40625 
Q 22.46875 42.1875 27.6875 42.1875 
Q 32.765625 42.1875 36.015625 45.375 
Q 39.265625 48.578125 39.265625 53.21875 
Q 39.265625 58.0625 35.90625 61.359375 
Q 32.5625 64.65625 27.59375 64.65625 
Q 22.5625 64.65625 19.234375 61.421875 
Q 15.921875 58.203125 15.921875 53.71875 
z
M 13.09375 20.65625 
Q 13.09375 16.890625 14.875 13.375 
Q 16.65625 9.859375 20.171875 7.921875 
Q 23.6875 6 27.734375 6 
Q 34.03125 6 38.125 10.046875 
Q 42.234375 14.109375 42.234375 20.359375 
Q 42.234375 26.703125 38.015625 30.859375 
Q 33.796875 35.015625 27.4375 35.015625 
Q 21.234375 35.015625 17.15625 30.90625 
Q 13.09375 26.8125 13.09375 20.65625 
z
" id="ArialMT-38"/>
      </defs>
      <g style="fill:#262626;" transform="translate(517.596094 290.877812)scale(0.1 -0.1)">
       <use xlink:href="#ArialMT-38"/>
       <use x="55.615234" xlink:href="#ArialMT-30"/>
       <use x="111.230469" xlink:href="#ArialMT-30"/>
      </g>
     </g>
    </g>
    <g id="xtick_6">
     <g id="line2d_6">
      <g>
       <use style="fill:#262626;stroke:#262626;" x="634.921875" xlink:href="#mf7d77ea552" y="270.72"/>
      </g>
     </g>
     <g id="text_6">
      <!-- 1000 -->
      <defs>
       <path d="M 37.25 0 
L 28.46875 0 
L 28.46875 56 
Q 25.296875 52.984375 20.140625 49.953125 
Q 14.984375 46.921875 10.890625 45.40625 
L 10.890625 53.90625 
Q 18.265625 57.375 23.78125 62.296875 
Q 29.296875 67.234375 31.59375 71.875 
L 37.25 71.875 
z
" id="ArialMT-31"/>
      </defs>
      <g style="fill:#262626;" transform="translate(623.8 290.877812)scale(0.1 -0.1)">
       <use xlink:href="#ArialMT-31"/>
       <use x="55.615234" xlink:href="#ArialMT-30"/>
       <use x="111.230469" xlink:href="#ArialMT-30"/>
       <use x="166.845703" xlink:href="#ArialMT-30"/>
      </g>
     </g>
    </g>
   </g>
   <g id="matplotlib.axis_2">
    <g id="ytick_1">
     <g id="line2d_7">
      <defs>
       <path d="M 0 0 
L -6 0 
" id="m5ff171d364" style="stroke:#262626;"/>
      </defs>
      <g>
       <use style="fill:#262626;stroke:#262626;" x="90" xlink:href="#m5ff171d364" y="270.72"/>
      </g>
     </g>
     <g id="text_7">
      <!-- −0.6 -->
      <defs>
       <path d="M 52.828125 31.203125 
L 5.5625 31.203125 
L 5.5625 39.40625 
L 52.828125 39.40625 
z
" id="ArialMT-2212"/>
       <path d="M 9.078125 0 
L 9.078125 10.015625 
L 19.09375 10.015625 
L 19.09375 0 
z
" id="ArialMT-2e"/>
      </defs>
      <g style="fill:#262626;" transform="translate(57.259375 274.298906)scale(0.1 -0.1)">
       <use xlink:href="#ArialMT-2212"/>
       <use x="58.398438" xlink:href="#ArialMT-30"/>
       <use x="114.013672" xlink:href="#ArialMT-2e"/>
       <use x="141.796875" xlink:href="#ArialMT-36"/>
      </g>
     </g>
    </g>
    <g id="ytick_2">
     <g id="line2d_8">
      <g>
       <use style="fill:#262626;stroke:#262626;" x="90" xlink:href="#m5ff171d364" y="237.12"/>
      </g>
     </g>
     <g id="text_8">
      <!-- −0.4 -->
      <g style="fill:#262626;" transform="translate(57.259375 240.698906)scale(0.1 -0.1)">
       <use xlink:href="#ArialMT-2212"/>
       <use x="58.398438" xlink:href="#ArialMT-30"/>
       <use x="114.013672" xlink:href="#ArialMT-2e"/>
       <use x="141.796875" xlink:href="#ArialMT-34"/>
      </g>
     </g>
    </g>
    <g id="ytick_3">
     <g id="line2d_9">
      <g>
       <use style="fill:#262626;stroke:#262626;" x="90" xlink:href="#m5ff171d364" y="203.52"/>
      </g>
     </g>
     <g id="text_9">
      <!-- −0.2 -->
      <g style="fill:#262626;" transform="translate(57.259375 207.098906)scale(0.1 -0.1)">
       <use xlink:href="#ArialMT-2212"/>
       <use x="58.398438" xlink:href="#ArialMT-30"/>
       <use x="114.013672" xlink:href="#ArialMT-2e"/>
       <use x="141.796875" xlink:href="#ArialMT-32"/>
      </g>
     </g>
    </g>
    <g id="ytick_4">
     <g id="line2d_10">
      <g>
       <use style="fill:#262626;stroke:#262626;" x="90" xlink:href="#m5ff171d364" y="169.92"/>
      </g>
     </g>
     <g id="text_10">
      <!-- 0.0 -->
      <g style="fill:#262626;" transform="translate(63.1 173.498906)scale(0.1 -0.1)">
       <use xlink:href="#ArialMT-30"/>
       <use x="55.615234" xlink:href="#ArialMT-2e"/>
       <use x="83.398438" xlink:href="#ArialMT-30"/>
      </g>
     </g>
    </g>
    <g id="ytick_5">
     <g id="line2d_11">
      <g>
       <use style="fill:#262626;stroke:#262626;" x="90" xlink:href="#m5ff171d364" y="136.32"/>
      </g>
     </g>
     <g id="text_11">
      <!-- 0.2 -->
      <g style="fill:#262626;" transform="translate(63.1 139.898906)scale(0.1 -0.1)">
       <use xlink:href="#ArialMT-30"/>
       <use x="55.615234" xlink:href="#ArialMT-2e"/>
       <use x="83.398438" xlink:href="#ArialMT-32"/>
      </g>
     </g>
    </g>
    <g id="ytick_6">
     <g id="line2d_12">
      <g>
       <use style="fill:#262626;stroke:#262626;" x="90" xlink:href="#m5ff171d364" y="102.72"/>
      </g>
     </g>
     <g id="text_12">
      <!-- 0.4 -->
      <g style="fill:#262626;" transform="translate(63.1 106.298906)scale(0.1 -0.1)">
       <use xlink:href="#ArialMT-30"/>
       <use x="55.615234" xlink:href="#ArialMT-2e"/>
       <use x="83.398438" xlink:href="#ArialMT-34"/>
      </g>
     </g>
    </g>
    <g id="ytick_7">
     <g id="line2d_13">
      <g>
       <use style="fill:#262626;stroke:#262626;" x="90" xlink:href="#m5ff171d364" y="69.12"/>
      </g>
     </g>
     <g id="text_13">
      <!-- 0.6 -->
      <g style="fill:#262626;" transform="translate(63.1 72.698906)scale(0.1 -0.1)">
       <use xlink:href="#ArialMT-30"/>
       <use x="55.615234" xlink:href="#ArialMT-2e"/>
       <use x="83.398438" xlink:href="#ArialMT-36"/>
      </g>
     </g>
    </g>
   </g>
   <g id="line2d_14">
    <path clip-path="url(#p42981681ef)" d="M 90 161.92708 
L 91.089844 164.613604 
L 92.179688 167.136064 
L 92.724609 167.982012 
L 93.269531 168.053789 
L 93.814453 167.587236 
L 94.904297 165.151934 
L 95.994141 161.552812 
L 96.539062 160.250566 
L 97.083984 158.353594 
L 98.173828 155.969561 
L 98.71875 155.215898 
L 99.263672 154.713457 
L 99.808594 155.205645 
L 100.353516 155.851641 
L 100.898438 156.897539 
L 101.988281 160.342852 
L 104.167969 170.176348 
L 104.712891 171.791338 
L 105.257812 172.580889 
L 105.802734 172.488604 
L 106.347656 172.083574 
L 107.982422 167.130937 
L 108.527344 165.121172 
L 110.162109 160.932451 
L 111.251953 159.132891 
L 112.341797 158.661211 
L 112.886719 159.138018 
L 114.521484 162.911455 
L 117.791016 171.068437 
L 119.425781 174.375322 
L 119.970703 175.036699 
L 120.515625 175.923662 
L 121.605469 176.795244 
L 122.150391 176.774736 
L 122.695312 176.43123 
L 123.240234 175.800615 
L 123.785156 174.785479 
L 125.419922 169.730303 
L 125.964844 168.243486 
L 127.054688 166.254229 
L 128.144531 166.751543 
L 128.689453 167.561602 
L 129.234375 168.822832 
L 130.324219 173.365312 
L 131.414062 179.230547 
L 134.138672 195.764971 
L 134.683594 198.220781 
L 135.228516 200.148516 
L 135.773438 201.076494 
L 136.863281 200.230547 
L 137.408203 198.759111 
L 139.042969 192.411943 
L 140.132812 188.341143 
L 140.677734 186.439043 
L 142.3125 183.239824 
L 142.857422 182.486162 
L 143.947266 181.54793 
L 144.492188 181.148027 
L 146.126953 177.928301 
L 147.216797 174.467607 
L 148.306641 169.863604 
L 148.851562 167.433428 
L 149.941406 164.505937 
L 150.486328 164.01375 
L 151.03125 164.321367 
L 151.576172 165.838945 
L 152.121094 167.771807 
L 153.210938 172.909014 
L 154.300781 178.112871 
L 154.845703 180.332842 
L 155.935547 183.291094 
L 157.025391 184.116533 
L 157.570312 183.839678 
L 158.115234 183.014238 
L 159.205078 180.327715 
L 160.839844 175.780107 
L 161.929688 173.852373 
L 163.019531 173.088457 
L 164.109375 172.514238 
L 164.654297 172.011797 
L 165.199219 171.28377 
L 165.744141 170.284014 
L 166.289062 168.920244 
L 168.46875 162.255205 
L 169.013672 160.773516 
L 170.648438 158.46126 
L 171.193359 158.22542 
L 172.283203 158.620195 
L 173.917969 160.706865 
L 175.007812 161.08626 
L 176.097656 160.537676 
L 176.642578 159.983965 
L 178.277344 159.127764 
L 178.822266 159.245684 
L 179.367188 159.614824 
L 180.457031 161.424639 
L 181.001953 163.039629 
L 183.181641 167.751299 
L 183.726562 168.510088 
L 184.271484 168.833086 
L 184.816406 168.530596 
L 185.361328 168.058916 
L 185.90625 167.238604 
L 186.451172 166.126055 
L 186.996094 164.572588 
L 188.630859 158.738115 
L 189.720703 155.287676 
L 190.810547 154.241777 
L 191.355469 155.041582 
L 191.900391 156.102861 
L 192.990234 159.384111 
L 194.625 166.126055 
L 195.714844 170.171221 
L 196.259766 171.222246 
L 196.804688 171.765703 
L 197.349609 171.458086 
L 197.894531 170.904375 
L 198.439453 169.92 
L 199.529297 166.905352 
L 200.074219 165.049395 
L 201.164062 162.28084 
L 202.253906 160.091631 
L 202.798828 159.47127 
L 203.34375 159.266191 
L 203.888672 159.214922 
L 204.433594 159.701982 
L 204.978516 159.989092 
L 205.523438 160.7325 
L 206.068359 161.234941 
L 207.703125 164.55208 
L 209.882812 170.355791 
L 211.517578 174.185625 
L 212.0625 175.349443 
L 213.152344 176.12874 
L 213.697266 176.108232 
L 214.242188 175.626299 
L 215.332031 173.431963 
L 218.601562 165.095537 
L 219.146484 164.449541 
L 219.691406 164.418779 
L 220.236328 165.039141 
L 221.326172 168.00252 
L 222.416016 173.55501 
L 225.685547 194.314043 
L 226.230469 196.718584 
L 226.775391 198.246416 
L 227.865234 199.456377 
L 228.955078 197.472246 
L 230.044922 194.078203 
L 231.679688 188.397539 
L 232.224609 187.177324 
L 232.769531 186.490312 
L 233.314453 186.013506 
L 233.859375 185.880205 
L 234.404297 186.085283 
L 235.494141 185.029131 
L 236.039062 183.906328 
L 237.128906 180.517412 
L 238.21875 176.051836 
L 239.308594 171.135088 
L 240.398438 167.033525 
L 240.943359 165.551836 
L 241.488281 164.777666 
L 242.033203 164.941729 
L 242.578125 165.357012 
L 243.123047 166.536211 
L 243.667969 168.079424 
L 244.212891 170.135332 
L 245.302734 175.313555 
L 245.847656 177.938555 
L 246.9375 181.696611 
L 247.482422 182.414385 
L 248.027344 182.593828 
L 248.572266 182.50667 
L 249.117188 181.932451 
L 249.662109 180.901934 
L 250.207031 180.230303 
L 250.751953 179.327959 
L 251.296875 178.810137 
L 252.931641 176.636309 
L 254.021484 175.359697 
L 254.566406 175.000811 
L 255.111328 174.498369 
L 256.201172 173.011553 
L 256.746094 172.237383 
L 257.835938 169.171465 
L 259.470703 163.788164 
L 260.560547 160.870928 
L 261.650391 159.578936 
L 262.195312 159.48665 
L 263.285156 160.368486 
L 263.830078 161.158037 
L 264.375 161.593828 
L 265.464844 161.475908 
L 266.554688 159.937822 
L 267.099609 159.250811 
L 268.189453 158.538164 
L 268.734375 158.394609 
L 269.824219 158.497148 
L 270.369141 158.743242 
L 270.914062 159.399492 
L 271.458984 159.819902 
L 273.09375 163.675371 
L 273.638672 165.295488 
L 274.183594 166.397783 
L 274.728516 167.787187 
L 275.273438 168.756182 
L 275.818359 169.058672 
L 276.908203 168.520342 
L 277.453125 167.305254 
L 279.087891 161.409258 
L 280.177734 157.446123 
L 280.722656 155.95418 
L 281.267578 155.041582 
L 281.8125 154.544268 
L 282.357422 154.446855 
L 282.902344 154.990312 
L 283.447266 156.036211 
L 285.082031 162.511553 
L 286.716797 168.84334 
L 287.261719 170.253252 
L 287.806641 170.986406 
L 288.351562 171.247881 
L 288.896484 170.873613 
L 289.441406 170.294268 
L 289.986328 169.397051 
L 292.710938 163.301104 
L 293.255859 162.22957 
L 294.890625 160.49666 
L 295.980469 159.409746 
L 296.525391 159.173906 
L 297.070312 159.36873 
L 298.160156 160.624834 
L 299.25 162.978105 
L 302.519531 172.488604 
L 303.064453 173.43709 
L 303.609375 174.826494 
L 304.154297 175.682695 
L 304.699219 176.303057 
L 305.244141 176.385088 
L 305.789062 176.697832 
L 306.878906 174.69832 
L 307.423828 173.25252 
L 307.96875 170.955645 
L 308.513672 169.150957 
L 309.058594 166.782305 
L 310.148438 164.024004 
L 310.693359 163.583086 
L 311.238281 163.413896 
L 311.783203 164.31624 
L 312.328125 165.439043 
L 312.873047 167.22835 
L 313.417969 169.49959 
L 314.507812 175.64168 
L 317.232422 193.47835 
L 317.777344 195.524004 
L 318.322266 196.964678 
L 318.867188 197.574785 
L 319.412109 197.4825 
L 319.957031 196.698076 
L 320.501953 195.406084 
L 321.591797 192.386309 
L 322.136719 191.258379 
L 322.681641 190.73543 
L 324.861328 190.089434 
L 325.951172 189.105059 
L 326.496094 188.341143 
L 327.041016 187.290117 
L 328.130859 184.454912 
L 329.220703 179.845781 
L 330.855469 171.801592 
L 331.400391 169.21248 
L 331.945312 167.212969 
L 332.490234 165.833818 
L 333.035156 165.346758 
L 333.580078 165.56209 
L 334.125 166.408037 
L 334.669922 167.843584 
L 337.394531 177.61043 
L 337.939453 179.148516 
L 338.484375 180.11751 
L 339.029297 180.686602 
L 339.574219 180.922441 
L 340.119141 180.712236 
L 340.664062 180.712236 
L 342.298828 179.507402 
L 342.84375 178.984453 
L 343.933594 178.533281 
L 344.478516 178.543535 
L 345.023438 178.68709 
L 345.568359 178.630693 
L 346.113281 178.179521 
L 346.658203 177.513018 
L 347.203125 176.518389 
L 347.748047 174.81624 
L 349.382812 168.807451 
L 350.472656 165.710771 
L 351.017578 164.429033 
L 351.5625 163.434404 
L 352.652344 162.070635 
L 353.197266 161.757891 
L 353.742188 162.070635 
L 355.921875 162.127031 
L 357.011719 161.547686 
L 357.556641 160.824785 
L 358.101562 160.460771 
L 359.736328 158.184404 
L 360.28125 157.630693 
L 360.826172 157.374346 
L 361.371094 157.666582 
L 361.916016 157.681963 
L 363.005859 159.548174 
L 363.550781 160.706865 
L 366.275391 168.171709 
L 366.820312 168.817705 
L 367.365234 168.997148 
L 367.910156 168.720293 
L 368.455078 167.838457 
L 369 166.269609 
L 371.724609 155.918291 
L 372.269531 154.426348 
L 372.814453 153.554766 
L 373.359375 153.339434 
L 373.904297 153.518877 
L 374.449219 154.503252 
L 374.994141 155.810625 
L 375.539062 157.476885 
L 377.173828 163.685625 
L 378.263672 166.75667 
L 378.808594 167.617998 
L 379.353516 168.156328 
L 379.898438 168.515215 
L 380.443359 168.351152 
L 380.988281 168.06917 
L 382.078125 167.079668 
L 383.712891 164.311113 
L 386.4375 158.809893 
L 386.982422 158.035723 
L 388.072266 157.389727 
L 388.617188 157.661455 
L 390.251953 159.040605 
L 391.341797 161.347734 
L 391.886719 162.808916 
L 394.611328 171.570879 
L 395.15625 173.129473 
L 395.701172 174.139482 
L 396.246094 174.636797 
L 397.335938 174.652178 
L 398.425781 172.42708 
L 398.970703 170.899248 
L 401.695312 161.15291 
L 402.240234 160.091631 
L 402.785156 159.599443 
L 403.330078 159.89168 
L 403.875 161.055498 
L 404.419922 163.034502 
L 405.509766 169.125322 
L 407.689453 183.091143 
L 408.234375 186.069902 
L 409.324219 189.920244 
L 409.869141 191.207109 
L 410.414062 191.806963 
L 410.958984 191.888994 
L 411.503906 191.591631 
L 412.048828 190.761064 
L 412.59375 190.150957 
L 413.138672 189.18709 
L 414.228516 188.489824 
L 414.773438 188.905107 
L 415.863281 189.233232 
L 416.408203 189.545977 
L 416.953125 189.545977 
L 417.498047 189.110186 
L 418.042969 188.238604 
L 418.587891 186.808184 
L 419.132812 184.931719 
L 420.767578 177.082354 
L 421.3125 173.954912 
L 422.947266 167.202715 
L 423.492188 165.633867 
L 424.037109 164.680254 
L 424.582031 164.034258 
L 425.126953 164.141924 
L 425.671875 164.675127 
L 426.216797 165.608232 
L 427.851562 171.437578 
L 428.396484 173.021807 
L 429.486328 175.226396 
L 430.576172 175.800615 
L 431.121094 175.559648 
L 432.210938 175.487871 
L 432.755859 175.846758 
L 433.300781 176.53377 
L 433.845703 176.738848 
L 434.390625 177.55916 
L 435.480469 178.235918 
L 436.025391 178.225664 
L 437.115234 177.102861 
L 437.660156 175.698076 
L 438.205078 174.641924 
L 438.75 172.826982 
L 439.294922 171.488848 
L 441.474609 165.244219 
L 442.564453 162.773027 
L 443.654297 161.680986 
L 444.199219 161.33748 
L 444.744141 161.265703 
L 445.289062 160.999102 
L 445.833984 161.291338 
L 446.923828 161.44002 
L 449.103516 159.071367 
L 450.738281 156.538652 
L 451.283203 155.641436 
L 451.828125 155.06209 
L 452.373047 154.980059 
L 452.917969 155.051836 
L 454.007812 156.477129 
L 454.552734 157.651201 
L 455.097656 159.168779 
L 457.277344 166.331133 
L 457.822266 167.53084 
L 458.367188 168.376787 
L 458.912109 168.412676 
L 459.457031 168.0179 
L 460.001953 166.700273 
L 461.091797 163.111406 
L 462.181641 158.6971 
L 463.271484 155.277422 
L 463.816406 154.410967 
L 464.361328 153.795732 
L 464.90625 154.031572 
L 465.996094 155.764482 
L 470.355469 167.22835 
L 471.445312 168.438311 
L 471.990234 168.756182 
L 472.535156 168.510088 
L 473.080078 168.007646 
L 473.625 167.22835 
L 474.169922 166.725908 
L 476.349609 163.260088 
L 478.529297 159.548174 
L 479.619141 157.758867 
L 480.164062 157.420488 
L 480.708984 157.39998 
L 481.798828 158.522783 
L 482.34375 159.778887 
L 482.888672 161.522051 
L 483.433594 162.875566 
L 484.523438 166.387529 
L 485.068359 167.802568 
L 485.613281 169.827715 
L 487.792969 175.903154 
L 488.337891 176.641436 
L 488.882812 176.318437 
L 489.427734 175.149492 
L 489.972656 173.452471 
L 491.607422 166.531084 
L 492.152344 164.111162 
L 493.242188 160.701738 
L 494.332031 159.660967 
L 494.876953 160.322344 
L 495.421875 161.686113 
L 495.966797 163.798418 
L 497.601562 172.59627 
L 498.691406 178.933184 
L 499.236328 182.070879 
L 500.326172 186.808184 
L 500.871094 188.151445 
L 501.416016 188.982012 
L 501.960938 189.463945 
L 503.050781 188.961504 
L 504.140625 188.797441 
L 505.230469 189.699785 
L 505.775391 190.663652 
L 506.865234 191.873613 
L 507.955078 192.104326 
L 508.5 192.022295 
L 509.044922 191.242998 
L 509.589844 190.253496 
L 510.679688 186.726152 
L 511.769531 181.512041 
L 513.949219 170.304521 
L 514.494141 168.289629 
L 515.039062 167.054033 
L 515.583984 166.320879 
L 516.128906 166.536211 
L 516.673828 166.628496 
L 517.763672 168.79207 
L 518.308594 169.468828 
L 519.398438 171.632402 
L 519.943359 172.052812 
L 520.488281 172.683428 
L 521.033203 173.098711 
L 521.578125 173.678057 
L 522.123047 173.852373 
L 524.847656 177.507891 
L 525.9375 179.604814 
L 526.482422 180.035479 
L 527.572266 179.938066 
L 528.117188 179.589434 
L 529.751953 176.067217 
L 532.476562 168.043535 
L 533.021484 167.161699 
L 533.566406 165.813311 
L 534.111328 164.844316 
L 534.65625 164.36751 
L 535.746094 163.885576 
L 536.835938 163.721514 
L 538.470703 163.957354 
L 539.015625 163.634355 
L 539.560547 162.926836 
L 540.650391 160.78377 
L 541.740234 158.522783 
L 542.830078 156.436113 
L 543.375 155.995195 
L 543.919922 155.702959 
L 544.464844 155.872148 
L 545.009766 156.210527 
L 545.554688 157.564043 
L 546.644531 161.076006 
L 547.734375 165.428789 
L 548.279297 167.392412 
L 548.824219 168.858721 
L 549.369141 169.402178 
L 549.914062 169.648271 
L 550.458984 169.274004 
L 551.003906 168.033281 
L 551.548828 167.187334 
L 552.638672 163.59334 
L 554.818359 157.702471 
L 555.363281 156.759111 
L 555.908203 156.179766 
L 556.453125 156.077227 
L 557.542969 157.107744 
L 558.087891 158.010088 
L 559.177734 160.727373 
L 560.8125 165.367266 
L 561.357422 166.7054 
L 561.902344 167.659014 
L 563.537109 169.422686 
L 564.626953 170.119951 
L 565.171875 170.140459 
L 566.261719 169.053545 
L 567.351562 166.720781 
L 568.441406 164.382891 
L 568.986328 163.034502 
L 571.166016 159.332842 
L 571.710938 158.522783 
L 572.255859 158.327959 
L 573.345703 158.471514 
L 573.890625 159.348223 
L 574.980469 161.97835 
L 577.160156 170.591631 
L 578.25 174.852129 
L 578.794922 176.43123 
L 579.339844 177.215654 
L 579.884766 177.159258 
L 580.429688 176.826006 
L 580.974609 175.713457 
L 581.519531 174.247148 
L 582.609375 169.668779 
L 583.699219 164.582842 
L 584.789062 160.553057 
L 585.333984 159.860918 
L 585.878906 159.948076 
L 586.423828 160.855547 
L 586.96875 162.58333 
L 588.058594 167.202715 
L 589.693359 175.657061 
L 590.783203 180.097002 
L 591.873047 183.480791 
L 592.417969 184.859941 
L 593.507812 186.654375 
L 594.052734 186.823564 
L 594.597656 187.351641 
L 595.142578 187.659258 
L 595.6875 188.238604 
L 596.232422 188.59749 
L 597.322266 190.889238 
L 598.957031 194.324297 
L 599.501953 194.67293 
L 600.046875 194.729326 
L 600.591797 193.647539 
L 601.681641 189.976641 
L 604.40625 176.133867 
L 606.041016 170.976152 
L 606.585938 170.114824 
L 607.675781 169.602129 
L 608.765625 169.996904 
L 609.310547 170.27376 
L 610.400391 170.591631 
L 610.945312 170.76082 
L 613.669922 172.529619 
L 614.214844 173.365312 
L 615.304688 175.841631 
L 616.394531 178.584551 
L 616.939453 179.297197 
L 617.484375 180.199541 
L 618.574219 180.999346 
L 619.119141 180.727617 
L 619.664062 180.266191 
L 620.208984 179.194658 
L 620.753906 178.420488 
L 622.388672 173.539629 
L 624.568359 168.448564 
L 625.658203 167.064287 
L 626.748047 166.003008 
L 627.837891 166.192705 
L 628.382812 166.356768 
L 628.927734 166.654131 
L 629.472656 166.777178 
L 630.017578 166.63875 
L 630.5625 166.064531 
L 631.652344 163.613848 
L 633.287109 158.661211 
L 634.376953 156.661699 
L 635.466797 156.420732 
L 636.011719 157.153887 
L 637.101562 159.881426 
L 637.646484 162.219316 
L 639.28125 167.284746 
L 640.371094 169.981523 
L 640.916016 170.437822 
L 641.460938 170.637773 
L 642.005859 170.401934 
L 642.550781 169.955889 
L 643.640625 166.966875 
L 644.185547 165.305742 
L 644.730469 163.254961 
L 645.820312 160.568437 
L 646.365234 159.794268 
L 646.910156 159.296953 
L 647.455078 159.076494 
L 647.455078 159.076494 
" style="fill:none;stroke:#4c72b0;stroke-linecap:round;stroke-width:1.75;"/>
   </g>
   <g id="patch_3">
    <path d="M 90 270.72 
L 90 69.12 
" style="fill:none;stroke:#262626;stroke-linecap:square;stroke-linejoin:miter;stroke-width:1.25;"/>
   </g>
   <g id="patch_4">
    <path d="M 90 270.72 
L 648 270.72 
" style="fill:none;stroke:#262626;stroke-linecap:square;stroke-linejoin:miter;stroke-width:1.25;"/>
   </g>
  </g>
  <g id="axes_2">
   <g id="patch_5">
    <path d="M 90 512.64 
L 648 512.64 
L 648 311.04 
L 90 311.04 
z
" style="fill:#ffffff;"/>
   </g>
   <g id="matplotlib.axis_3">
    <g id="xtick_7">
     <g id="line2d_15">
      <g>
       <use style="fill:#262626;stroke:#262626;" x="218.197478" xlink:href="#mf7d77ea552" y="512.64"/>
      </g>
     </g>
     <g id="text_14">
      <!-- $\mathdefault{10^{2}}$ -->
      <g style="fill:#262626;" transform="translate(210.347478 535.9525)scale(0.1 -0.1)">
       <use transform="translate(0 0.99375)" xlink:href="#ArialMT-31"/>
       <use transform="translate(55.615234 0.99375)" xlink:href="#ArialMT-30"/>
       <use transform="translate(112.972813 70.6875)scale(0.7)" xlink:href="#ArialMT-32"/>
      </g>
     </g>
    </g>
    <g id="xtick_8">
     <g id="line2d_16">
      <g>
       <use style="fill:#262626;stroke:#262626;" x="401.606604" xlink:href="#mf7d77ea552" y="512.64"/>
      </g>
     </g>
     <g id="text_15">
      <!-- $\mathdefault{10^{3}}$ -->
      <defs>
       <path d="M 4.203125 18.890625 
L 12.984375 20.0625 
Q 14.5 12.59375 18.140625 9.296875 
Q 21.78125 6 27 6 
Q 33.203125 6 37.46875 10.296875 
Q 41.75 14.59375 41.75 20.953125 
Q 41.75 27 37.796875 30.921875 
Q 33.84375 34.859375 27.734375 34.859375 
Q 25.25 34.859375 21.53125 33.890625 
L 22.515625 41.609375 
Q 23.390625 41.5 23.921875 41.5 
Q 29.546875 41.5 34.03125 44.421875 
Q 38.53125 47.359375 38.53125 53.46875 
Q 38.53125 58.296875 35.25 61.46875 
Q 31.984375 64.65625 26.8125 64.65625 
Q 21.6875 64.65625 18.265625 61.421875 
Q 14.84375 58.203125 13.875 51.765625 
L 5.078125 53.328125 
Q 6.6875 62.15625 12.390625 67.015625 
Q 18.109375 71.875 26.609375 71.875 
Q 32.46875 71.875 37.390625 69.359375 
Q 42.328125 66.84375 44.9375 62.5 
Q 47.5625 58.15625 47.5625 53.265625 
Q 47.5625 48.640625 45.0625 44.828125 
Q 42.578125 41.015625 37.703125 38.765625 
Q 44.046875 37.3125 47.5625 32.6875 
Q 51.078125 28.078125 51.078125 21.140625 
Q 51.078125 11.765625 44.234375 5.25 
Q 37.40625 -1.265625 26.953125 -1.265625 
Q 17.53125 -1.265625 11.296875 4.34375 
Q 5.078125 9.96875 4.203125 18.890625 
z
" id="ArialMT-33"/>
      </defs>
      <g style="fill:#262626;" transform="translate(393.756604 535.9525)scale(0.1 -0.1)">
       <use transform="translate(0 0.99375)" xlink:href="#ArialMT-31"/>
       <use transform="translate(55.615234 0.99375)" xlink:href="#ArialMT-30"/>
       <use transform="translate(112.972813 70.6875)scale(0.7)" xlink:href="#ArialMT-33"/>
      </g>
     </g>
    </g>
    <g id="xtick_9">
     <g id="line2d_17">
      <g>
       <use style="fill:#262626;stroke:#262626;" x="585.01573" xlink:href="#mf7d77ea552" y="512.64"/>
      </g>
     </g>
     <g id="text_16">
      <!-- $\mathdefault{10^{4}}$ -->
      <g style="fill:#262626;" transform="translate(577.16573 535.8525)scale(0.1 -0.1)">
       <use transform="translate(0 0.201563)" xlink:href="#ArialMT-31"/>
       <use transform="translate(55.615234 0.201563)" xlink:href="#ArialMT-30"/>
       <use transform="translate(112.972813 69.895313)scale(0.7)" xlink:href="#ArialMT-34"/>
      </g>
     </g>
    </g>
    <g id="xtick_10">
     <g id="line2d_18">
      <defs>
       <path d="M 0 0 
L 0 3 
" id="m2ed3dad7f8" style="stroke:#262626;stroke-width:0.5;"/>
      </defs>
      <g>
       <use style="fill:#262626;stroke:#262626;stroke-width:0.5;" x="90" xlink:href="#m2ed3dad7f8" y="512.64"/>
      </g>
     </g>
    </g>
    <g id="xtick_11">
     <g id="line2d_19">
      <g>
       <use style="fill:#262626;stroke:#262626;stroke-width:0.5;" x="122.296744" xlink:href="#m2ed3dad7f8" y="512.64"/>
      </g>
     </g>
    </g>
    <g id="xtick_12">
     <g id="line2d_20">
      <g>
       <use style="fill:#262626;stroke:#262626;stroke-width:0.5;" x="145.211648" xlink:href="#m2ed3dad7f8" y="512.64"/>
      </g>
     </g>
    </g>
    <g id="xtick_13">
     <g id="line2d_21">
      <g>
       <use style="fill:#262626;stroke:#262626;stroke-width:0.5;" x="162.985829" xlink:href="#m2ed3dad7f8" y="512.64"/>
      </g>
     </g>
    </g>
    <g id="xtick_14">
     <g id="line2d_22">
      <g>
       <use style="fill:#262626;stroke:#262626;stroke-width:0.5;" x="177.508392" xlink:href="#m2ed3dad7f8" y="512.64"/>
      </g>
     </g>
    </g>
    <g id="xtick_15">
     <g id="line2d_23">
      <g>
       <use style="fill:#262626;stroke:#262626;stroke-width:0.5;" x="189.787045" xlink:href="#m2ed3dad7f8" y="512.64"/>
      </g>
     </g>
    </g>
    <g id="xtick_16">
     <g id="line2d_24">
      <g>
       <use style="fill:#262626;stroke:#262626;stroke-width:0.5;" x="200.423297" xlink:href="#m2ed3dad7f8" y="512.64"/>
      </g>
     </g>
    </g>
    <g id="xtick_17">
     <g id="line2d_25">
      <g>
       <use style="fill:#262626;stroke:#262626;stroke-width:0.5;" x="209.805136" xlink:href="#m2ed3dad7f8" y="512.64"/>
      </g>
     </g>
    </g>
    <g id="xtick_18">
     <g id="line2d_26">
      <g>
       <use style="fill:#262626;stroke:#262626;stroke-width:0.5;" x="273.409126" xlink:href="#m2ed3dad7f8" y="512.64"/>
      </g>
     </g>
    </g>
    <g id="xtick_19">
     <g id="line2d_27">
      <g>
       <use style="fill:#262626;stroke:#262626;stroke-width:0.5;" x="305.70587" xlink:href="#m2ed3dad7f8" y="512.64"/>
      </g>
     </g>
    </g>
    <g id="xtick_20">
     <g id="line2d_28">
      <g>
       <use style="fill:#262626;stroke:#262626;stroke-width:0.5;" x="328.620775" xlink:href="#m2ed3dad7f8" y="512.64"/>
      </g>
     </g>
    </g>
    <g id="xtick_21">
     <g id="line2d_29">
      <g>
       <use style="fill:#262626;stroke:#262626;stroke-width:0.5;" x="346.394955" xlink:href="#m2ed3dad7f8" y="512.64"/>
      </g>
     </g>
    </g>
    <g id="xtick_22">
     <g id="line2d_30">
      <g>
       <use style="fill:#262626;stroke:#262626;stroke-width:0.5;" x="360.917518" xlink:href="#m2ed3dad7f8" y="512.64"/>
      </g>
     </g>
    </g>
    <g id="xtick_23">
     <g id="line2d_31">
      <g>
       <use style="fill:#262626;stroke:#262626;stroke-width:0.5;" x="373.196171" xlink:href="#m2ed3dad7f8" y="512.64"/>
      </g>
     </g>
    </g>
    <g id="xtick_24">
     <g id="line2d_32">
      <g>
       <use style="fill:#262626;stroke:#262626;stroke-width:0.5;" x="383.832423" xlink:href="#m2ed3dad7f8" y="512.64"/>
      </g>
     </g>
    </g>
    <g id="xtick_25">
     <g id="line2d_33">
      <g>
       <use style="fill:#262626;stroke:#262626;stroke-width:0.5;" x="393.214262" xlink:href="#m2ed3dad7f8" y="512.64"/>
      </g>
     </g>
    </g>
    <g id="xtick_26">
     <g id="line2d_34">
      <g>
       <use style="fill:#262626;stroke:#262626;stroke-width:0.5;" x="456.818252" xlink:href="#m2ed3dad7f8" y="512.64"/>
      </g>
     </g>
    </g>
    <g id="xtick_27">
     <g id="line2d_35">
      <g>
       <use style="fill:#262626;stroke:#262626;stroke-width:0.5;" x="489.114996" xlink:href="#m2ed3dad7f8" y="512.64"/>
      </g>
     </g>
    </g>
    <g id="xtick_28">
     <g id="line2d_36">
      <g>
       <use style="fill:#262626;stroke:#262626;stroke-width:0.5;" x="512.029901" xlink:href="#m2ed3dad7f8" y="512.64"/>
      </g>
     </g>
    </g>
    <g id="xtick_29">
     <g id="line2d_37">
      <g>
       <use style="fill:#262626;stroke:#262626;stroke-width:0.5;" x="529.804081" xlink:href="#m2ed3dad7f8" y="512.64"/>
      </g>
     </g>
    </g>
    <g id="xtick_30">
     <g id="line2d_38">
      <g>
       <use style="fill:#262626;stroke:#262626;stroke-width:0.5;" x="544.326645" xlink:href="#m2ed3dad7f8" y="512.64"/>
      </g>
     </g>
    </g>
    <g id="xtick_31">
     <g id="line2d_39">
      <g>
       <use style="fill:#262626;stroke:#262626;stroke-width:0.5;" x="556.605297" xlink:href="#m2ed3dad7f8" y="512.64"/>
      </g>
     </g>
    </g>
    <g id="xtick_32">
     <g id="line2d_40">
      <g>
       <use style="fill:#262626;stroke:#262626;stroke-width:0.5;" x="567.241549" xlink:href="#m2ed3dad7f8" y="512.64"/>
      </g>
     </g>
    </g>
    <g id="xtick_33">
     <g id="line2d_41">
      <g>
       <use style="fill:#262626;stroke:#262626;stroke-width:0.5;" x="576.623389" xlink:href="#m2ed3dad7f8" y="512.64"/>
      </g>
     </g>
    </g>
    <g id="xtick_34">
     <g id="line2d_42">
      <g>
       <use style="fill:#262626;stroke:#262626;stroke-width:0.5;" x="640.227378" xlink:href="#m2ed3dad7f8" y="512.64"/>
      </g>
     </g>
    </g>
   </g>
   <g id="matplotlib.axis_4">
    <g id="ytick_8">
     <g id="line2d_43">
      <g>
       <use style="fill:#262626;stroke:#262626;" x="90" xlink:href="#m5ff171d364" y="512.64"/>
      </g>
     </g>
     <g id="text_17">
      <!-- $\mathdefault{10^{-5}}$ -->
      <defs>
       <path d="M 4.15625 18.75 
L 13.375 19.53125 
Q 14.40625 12.796875 18.140625 9.390625 
Q 21.875 6 27.15625 6 
Q 33.5 6 37.890625 10.78125 
Q 42.28125 15.578125 42.28125 23.484375 
Q 42.28125 31 38.0625 35.34375 
Q 33.84375 39.703125 27 39.703125 
Q 22.75 39.703125 19.328125 37.765625 
Q 15.921875 35.84375 13.96875 32.765625 
L 5.71875 33.84375 
L 12.640625 70.609375 
L 48.25 70.609375 
L 48.25 62.203125 
L 19.671875 62.203125 
L 15.828125 42.96875 
Q 22.265625 47.46875 29.34375 47.46875 
Q 38.71875 47.46875 45.15625 40.96875 
Q 51.609375 34.46875 51.609375 24.265625 
Q 51.609375 14.546875 45.953125 7.46875 
Q 39.0625 -1.21875 27.15625 -1.21875 
Q 17.390625 -1.21875 11.203125 4.25 
Q 5.03125 9.71875 4.15625 18.75 
z
" id="ArialMT-35"/>
      </defs>
      <g style="fill:#262626;" transform="translate(57.2 517.74625)scale(0.1 -0.1)">
       <use transform="translate(0 0.879688)" xlink:href="#ArialMT-31"/>
       <use transform="translate(55.615234 0.879688)" xlink:href="#ArialMT-30"/>
       <use transform="translate(112.972813 70.573438)scale(0.7)" xlink:href="#ArialMT-2212"/>
       <use transform="translate(153.851719 70.573438)scale(0.7)" xlink:href="#ArialMT-35"/>
      </g>
     </g>
    </g>
    <g id="ytick_9">
     <g id="line2d_44">
      <g>
       <use style="fill:#262626;stroke:#262626;" x="90" xlink:href="#m5ff171d364" y="465.767507"/>
      </g>
     </g>
     <g id="text_18">
      <!-- $\mathdefault{10^{-4}}$ -->
      <g style="fill:#262626;" transform="translate(57.2 470.873757)scale(0.1 -0.1)">
       <use transform="translate(0 0.201563)" xlink:href="#ArialMT-31"/>
       <use transform="translate(55.615234 0.201563)" xlink:href="#ArialMT-30"/>
       <use transform="translate(112.972813 69.895313)scale(0.7)" xlink:href="#ArialMT-2212"/>
       <use transform="translate(153.851719 69.895313)scale(0.7)" xlink:href="#ArialMT-34"/>
      </g>
     </g>
    </g>
    <g id="ytick_10">
     <g id="line2d_45">
      <g>
       <use style="fill:#262626;stroke:#262626;" x="90" xlink:href="#m5ff171d364" y="418.895013"/>
      </g>
     </g>
     <g id="text_19">
      <!-- $\mathdefault{10^{-3}}$ -->
      <g style="fill:#262626;" transform="translate(57.2 424.051263)scale(0.1 -0.1)">
       <use transform="translate(0 0.99375)" xlink:href="#ArialMT-31"/>
       <use transform="translate(55.615234 0.99375)" xlink:href="#ArialMT-30"/>
       <use transform="translate(112.972813 70.6875)scale(0.7)" xlink:href="#ArialMT-2212"/>
       <use transform="translate(153.851719 70.6875)scale(0.7)" xlink:href="#ArialMT-33"/>
      </g>
     </g>
    </g>
    <g id="ytick_11">
     <g id="line2d_46">
      <g>
       <use style="fill:#262626;stroke:#262626;" x="90" xlink:href="#m5ff171d364" y="372.02252"/>
      </g>
     </g>
     <g id="text_20">
      <!-- $\mathdefault{10^{-2}}$ -->
      <g style="fill:#262626;" transform="translate(57.2 377.17877)scale(0.1 -0.1)">
       <use transform="translate(0 0.99375)" xlink:href="#ArialMT-31"/>
       <use transform="translate(55.615234 0.99375)" xlink:href="#ArialMT-30"/>
       <use transform="translate(112.972813 70.6875)scale(0.7)" xlink:href="#ArialMT-2212"/>
       <use transform="translate(153.851719 70.6875)scale(0.7)" xlink:href="#ArialMT-32"/>
      </g>
     </g>
    </g>
    <g id="ytick_12">
     <g id="line2d_47">
      <g>
       <use style="fill:#262626;stroke:#262626;" x="90" xlink:href="#m5ff171d364" y="325.150026"/>
      </g>
     </g>
     <g id="text_21">
      <!-- $\mathdefault{10^{-1}}$ -->
      <g style="fill:#262626;" transform="translate(57.2 330.306276)scale(0.1 -0.1)">
       <use transform="translate(0 0.99375)" xlink:href="#ArialMT-31"/>
       <use transform="translate(55.615234 0.99375)" xlink:href="#ArialMT-30"/>
       <use transform="translate(112.972813 70.6875)scale(0.7)" xlink:href="#ArialMT-2212"/>
       <use transform="translate(153.851719 70.6875)scale(0.7)" xlink:href="#ArialMT-31"/>
      </g>
     </g>
    </g>
    <g id="ytick_13">
     <g id="line2d_48">
      <defs>
       <path d="M 0 0 
L -3 0 
" id="m5907c871d1" style="stroke:#262626;stroke-width:0.5;"/>
      </defs>
      <g>
       <use style="fill:#262626;stroke:#262626;stroke-width:0.5;" x="90" xlink:href="#m5907c871d1" y="498.529974"/>
      </g>
     </g>
    </g>
    <g id="ytick_14">
     <g id="line2d_49">
      <g>
       <use style="fill:#262626;stroke:#262626;stroke-width:0.5;" x="90" xlink:href="#m5907c871d1" y="490.276137"/>
      </g>
     </g>
    </g>
    <g id="ytick_15">
     <g id="line2d_50">
      <g>
       <use style="fill:#262626;stroke:#262626;stroke-width:0.5;" x="90" xlink:href="#m5907c871d1" y="484.419947"/>
      </g>
     </g>
    </g>
    <g id="ytick_16">
     <g id="line2d_51">
      <g>
       <use style="fill:#262626;stroke:#262626;stroke-width:0.5;" x="90" xlink:href="#m5907c871d1" y="479.877533"/>
      </g>
     </g>
    </g>
    <g id="ytick_17">
     <g id="line2d_52">
      <g>
       <use style="fill:#262626;stroke:#262626;stroke-width:0.5;" x="90" xlink:href="#m5907c871d1" y="476.166111"/>
      </g>
     </g>
    </g>
    <g id="ytick_18">
     <g id="line2d_53">
      <g>
       <use style="fill:#262626;stroke:#262626;stroke-width:0.5;" x="90" xlink:href="#m5907c871d1" y="473.028148"/>
      </g>
     </g>
    </g>
    <g id="ytick_19">
     <g id="line2d_54">
      <g>
       <use style="fill:#262626;stroke:#262626;stroke-width:0.5;" x="90" xlink:href="#m5907c871d1" y="470.309921"/>
      </g>
     </g>
    </g>
    <g id="ytick_20">
     <g id="line2d_55">
      <g>
       <use style="fill:#262626;stroke:#262626;stroke-width:0.5;" x="90" xlink:href="#m5907c871d1" y="467.912274"/>
      </g>
     </g>
    </g>
    <g id="ytick_21">
     <g id="line2d_56">
      <g>
       <use style="fill:#262626;stroke:#262626;stroke-width:0.5;" x="90" xlink:href="#m5907c871d1" y="451.65748"/>
      </g>
     </g>
    </g>
    <g id="ytick_22">
     <g id="line2d_57">
      <g>
       <use style="fill:#262626;stroke:#262626;stroke-width:0.5;" x="90" xlink:href="#m5907c871d1" y="443.403644"/>
      </g>
     </g>
    </g>
    <g id="ytick_23">
     <g id="line2d_58">
      <g>
       <use style="fill:#262626;stroke:#262626;stroke-width:0.5;" x="90" xlink:href="#m5907c871d1" y="437.547454"/>
      </g>
     </g>
    </g>
    <g id="ytick_24">
     <g id="line2d_59">
      <g>
       <use style="fill:#262626;stroke:#262626;stroke-width:0.5;" x="90" xlink:href="#m5907c871d1" y="433.00504"/>
      </g>
     </g>
    </g>
    <g id="ytick_25">
     <g id="line2d_60">
      <g>
       <use style="fill:#262626;stroke:#262626;stroke-width:0.5;" x="90" xlink:href="#m5907c871d1" y="429.293617"/>
      </g>
     </g>
    </g>
    <g id="ytick_26">
     <g id="line2d_61">
      <g>
       <use style="fill:#262626;stroke:#262626;stroke-width:0.5;" x="90" xlink:href="#m5907c871d1" y="426.155654"/>
      </g>
     </g>
    </g>
    <g id="ytick_27">
     <g id="line2d_62">
      <g>
       <use style="fill:#262626;stroke:#262626;stroke-width:0.5;" x="90" xlink:href="#m5907c871d1" y="423.437427"/>
      </g>
     </g>
    </g>
    <g id="ytick_28">
     <g id="line2d_63">
      <g>
       <use style="fill:#262626;stroke:#262626;stroke-width:0.5;" x="90" xlink:href="#m5907c871d1" y="421.039781"/>
      </g>
     </g>
    </g>
    <g id="ytick_29">
     <g id="line2d_64">
      <g>
       <use style="fill:#262626;stroke:#262626;stroke-width:0.5;" x="90" xlink:href="#m5907c871d1" y="404.784987"/>
      </g>
     </g>
    </g>
    <g id="ytick_30">
     <g id="line2d_65">
      <g>
       <use style="fill:#262626;stroke:#262626;stroke-width:0.5;" x="90" xlink:href="#m5907c871d1" y="396.53115"/>
      </g>
     </g>
    </g>
    <g id="ytick_31">
     <g id="line2d_66">
      <g>
       <use style="fill:#262626;stroke:#262626;stroke-width:0.5;" x="90" xlink:href="#m5907c871d1" y="390.67496"/>
      </g>
     </g>
    </g>
    <g id="ytick_32">
     <g id="line2d_67">
      <g>
       <use style="fill:#262626;stroke:#262626;stroke-width:0.5;" x="90" xlink:href="#m5907c871d1" y="386.132546"/>
      </g>
     </g>
    </g>
    <g id="ytick_33">
     <g id="line2d_68">
      <g>
       <use style="fill:#262626;stroke:#262626;stroke-width:0.5;" x="90" xlink:href="#m5907c871d1" y="382.421124"/>
      </g>
     </g>
    </g>
    <g id="ytick_34">
     <g id="line2d_69">
      <g>
       <use style="fill:#262626;stroke:#262626;stroke-width:0.5;" x="90" xlink:href="#m5907c871d1" y="379.283161"/>
      </g>
     </g>
    </g>
    <g id="ytick_35">
     <g id="line2d_70">
      <g>
       <use style="fill:#262626;stroke:#262626;stroke-width:0.5;" x="90" xlink:href="#m5907c871d1" y="376.564934"/>
      </g>
     </g>
    </g>
    <g id="ytick_36">
     <g id="line2d_71">
      <g>
       <use style="fill:#262626;stroke:#262626;stroke-width:0.5;" x="90" xlink:href="#m5907c871d1" y="374.167288"/>
      </g>
     </g>
    </g>
    <g id="ytick_37">
     <g id="line2d_72">
      <g>
       <use style="fill:#262626;stroke:#262626;stroke-width:0.5;" x="90" xlink:href="#m5907c871d1" y="357.912493"/>
      </g>
     </g>
    </g>
    <g id="ytick_38">
     <g id="line2d_73">
      <g>
       <use style="fill:#262626;stroke:#262626;stroke-width:0.5;" x="90" xlink:href="#m5907c871d1" y="349.658657"/>
      </g>
     </g>
    </g>
    <g id="ytick_39">
     <g id="line2d_74">
      <g>
       <use style="fill:#262626;stroke:#262626;stroke-width:0.5;" x="90" xlink:href="#m5907c871d1" y="343.802467"/>
      </g>
     </g>
    </g>
    <g id="ytick_40">
     <g id="line2d_75">
      <g>
       <use style="fill:#262626;stroke:#262626;stroke-width:0.5;" x="90" xlink:href="#m5907c871d1" y="339.260053"/>
      </g>
     </g>
    </g>
    <g id="ytick_41">
     <g id="line2d_76">
      <g>
       <use style="fill:#262626;stroke:#262626;stroke-width:0.5;" x="90" xlink:href="#m5907c871d1" y="335.548631"/>
      </g>
     </g>
    </g>
    <g id="ytick_42">
     <g id="line2d_77">
      <g>
       <use style="fill:#262626;stroke:#262626;stroke-width:0.5;" x="90" xlink:href="#m5907c871d1" y="332.410668"/>
      </g>
     </g>
    </g>
    <g id="ytick_43">
     <g id="line2d_78">
      <g>
       <use style="fill:#262626;stroke:#262626;stroke-width:0.5;" x="90" xlink:href="#m5907c871d1" y="329.69244"/>
      </g>
     </g>
    </g>
    <g id="ytick_44">
     <g id="line2d_79">
      <g>
       <use style="fill:#262626;stroke:#262626;stroke-width:0.5;" x="90" xlink:href="#m5907c871d1" y="327.294794"/>
      </g>
     </g>
    </g>
    <g id="ytick_45">
     <g id="line2d_80">
      <g>
       <use style="fill:#262626;stroke:#262626;stroke-width:0.5;" x="90" xlink:href="#m5907c871d1" y="311.04"/>
      </g>
     </g>
    </g>
   </g>
   <g id="line2d_81">
    <path clip-path="url(#p1434208217)" d="M -1 398.302826 
L 151.095164 398.293123 
L 206.306812 415.054733 
L 238.603556 411.782467 
L 261.518461 429.63565 
L 279.292642 406.978479 
L 293.815205 348.422983 
L 306.093857 399.03169 
L 316.730109 416.367363 
L 326.111949 423.468118 
L 334.50429 423.040364 
L 342.096086 418.12349 
L 349.026853 375.06025 
L 355.402541 426.755036 
L 361.305505 437.507392 
L 366.801034 458.809234 
L 371.941758 452.708367 
L 376.770725 427.577858 
L 381.323597 372.393776 
L 385.630245 398.288047 
L 389.715939 407.02097 
L 393.602249 408.364769 
L 397.307735 404.613171 
L 400.848476 396.148269 
L 404.238502 365.30242 
L 407.490119 387.600095 
L 410.614189 402.804532 
L 413.620341 407.265738 
L 416.517154 406.223882 
L 419.312303 397.550248 
L 422.012683 371.108923 
L 424.624509 384.222562 
L 427.153406 402.017245 
L 429.604479 407.153702 
L 431.982374 406.596172 
L 434.291335 400.18865 
L 436.535246 379.304054 
L 438.717672 382.366915 
L 440.841893 405.458674 
L 442.910933 414.773793 
L 444.927587 416.216361 
L 446.894442 409.710477 
L 448.813898 390.050044 
L 450.688186 376.326208 
L 452.519383 401.430672 
L 454.309426 410.573017 
L 456.060125 415.367504 
L 457.773171 418.675594 
L 459.45015 416.648629 
L 461.09255 424.227203 
L 462.701768 427.557866 
L 464.279118 425.850706 
L 465.825838 423.30085 
L 467.343094 418.826129 
L 468.83199 410.257632 
L 470.293564 376.644416 
L 471.728802 408.466297 
L 473.138637 427.622091 
L 474.523951 436.857512 
L 475.885584 438.069362 
L 477.224331 433.859202 
L 478.540949 420.164869 
L 479.836157 416.817227 
L 481.110642 440.320579 
L 482.365055 444.983735 
L 483.600019 457.941897 
L 484.816127 458.591069 
L 486.013948 456.019239 
L 487.194022 421.9111 
L 488.356869 464.597306 
L 489.502983 467.645582 
L 490.63284 465.505577 
L 491.746894 467.614934 
L 492.845581 457.606648 
L 493.92932 434.044856 
L 494.998512 436.855719 
L 496.053541 460.277693 
L 497.094779 464.036821 
L 498.122582 463.893306 
L 499.137291 466.28748 
L 500.139235 480.593482 
L 501.128734 441.3243 
L 502.10609 471.839384 
L 503.0716 474.960956 
L 504.025546 478.538316 
L 504.968203 483.171568 
L 505.899834 452.565974 
L 506.820695 468.57928 
L 507.731032 448.69113 
L 508.631082 453.340873 
L 509.521075 451.169378 
L 510.401234 438.436489 
L 511.271773 459.316956 
L 512.132901 463.235338 
L 512.984819 438.905121 
L 513.827722 437.66655 
L 514.661799 475.253156 
L 515.487232 499.384809 
L 516.304198 510.667806 
L 517.112871 483.234861 
L 517.913416 473.57513 
L 518.705996 443.614016 
L 519.490766 452.921406 
L 520.26788 475.176279 
L 521.037486 472.086644 
L 521.799727 491.72826 
L 522.554743 503.917157 
L 524.043638 481.367907 
L 524.777778 495.866854 
L 525.505212 496.38367 
L 526.226064 500.217428 
L 526.940451 501.759147 
L 527.648487 502.27428 
L 528.350285 482.025971 
L 529.045954 475.282477 
L 529.7356 493.750931 
L 530.419326 481.929395 
L 531.097232 481.045073 
L 531.769418 492.402285 
L 532.435979 496.867716 
L 533.097009 475.689289 
L 533.752597 461.709743 
L 534.402834 475.640095 
L 535.047806 502.257071 
L 535.687597 506.524607 
L 536.32229 503.002341 
L 536.951966 500.348154 
L 537.576703 493.065482 
L 538.196578 480.914502 
L 538.811667 451.142971 
L 539.422042 487.858419 
L 540.027776 487.223765 
L 541.225596 530.204 
L 541.817819 492.868733 
L 542.405671 499.412183 
L 542.989216 491.568248 
L 543.568517 492.052726 
L 544.143636 530.105684 
L 544.714632 491.189063 
L 545.281563 496.520235 
L 545.844488 496.265826 
L 546.403463 501.159452 
L 546.958543 504.646155 
L 547.509781 477.372114 
L 548.05723 501.546373 
L 548.600942 517.480469 
L 549.140969 497.699459 
L 549.677358 494.52897 
L 550.21016 496.891643 
L 550.739422 499.97093 
L 551.26519 500.09646 
L 551.78751 480.808016 
L 552.306428 491.962574 
L 552.821987 484.380098 
L 553.33423 503.58783 
L 553.8432 510.311021 
L 554.348939 497.024331 
L 554.851487 501.069372 
L 555.350884 488.398791 
L 555.847169 502.154484 
L 556.340382 508.066256 
L 556.830559 498.989114 
L 557.317739 498.06997 
L 557.801956 495.9125 
L 558.283248 498.014908 
L 558.76165 485.347423 
L 559.237195 493.046872 
L 559.709918 484.302423 
L 560.179852 504.833538 
L 560.647029 511.838525 
L 561.111483 495.254334 
L 561.573244 520.661206 
L 562.032344 503.44834 
L 562.488812 476.109738 
L 562.94268 484.663935 
L 563.393976 496.125321 
L 563.84273 512.313645 
L 564.28897 517.049429 
L 564.732723 484.578339 
L 565.174019 489.670841 
L 565.612882 498.888943 
L 566.049341 497.446878 
L 566.483422 494.952813 
L 566.91515 498.76678 
L 567.34455 507.53651 
L 567.771648 488.475502 
L 568.196468 512.217885 
L 568.619034 508.473632 
L 569.039371 509.606008 
L 569.457501 489.082081 
L 569.873447 507.399411 
L 570.287233 501.210725 
L 570.69888 501.741941 
L 571.108411 536.902144 
L 571.515847 506.289708 
L 571.921209 489.130803 
L 572.32452 495.108607 
L 572.725798 484.604661 
L 573.125065 502.559223 
L 573.52234 499.856336 
L 573.917644 482.351688 
L 574.310996 497.44569 
L 574.702415 495.808619 
L 575.091919 497.292507 
L 575.479529 512.097256 
L 575.865261 485.579679 
L 576.249135 514.80336 
L 576.631167 490.581234 
L 577.011376 483.174927 
L 577.389778 501.4364 
L 577.766391 509.229601 
L 578.141232 494.67586 
L 578.514318 496.827664 
L 578.885664 500.942391 
L 579.255287 486.754297 
L 579.623202 493.539077 
L 579.989426 485.816726 
L 580.353974 496.69523 
L 580.716861 485.527109 
L 581.078102 495.258433 
L 581.437713 494.727328 
L 581.795707 499.959176 
L 582.152099 493.753863 
L 582.506904 512.519287 
L 582.860136 511.453343 
L 583.211808 483.710896 
L 583.561934 504.069799 
L 583.910528 509.291032 
L 584.257603 503.974082 
L 584.603172 509.187003 
L 584.947248 490.811471 
L 585.289845 512.305827 
L 585.630974 492.917708 
L 585.970649 488.60525 
L 586.308881 526.079572 
L 586.645683 506.333488 
L 586.981067 505.155966 
L 587.315045 495.737594 
L 587.647628 479.783583 
L 587.978828 490.484876 
L 588.308657 505.094618 
L 588.637126 495.199996 
L 588.964246 515.089085 
L 589.290028 516.29828 
L 589.614483 510.495492 
L 589.937621 491.718849 
L 590.259454 513.452747 
L 590.579992 516.932736 
L 590.899246 544.377204 
L 591.217224 486.314017 
L 591.533939 502.905957 
L 591.849399 504.322141 
L 592.163614 508.263789 
L 592.476596 492.906174 
L 592.788352 491.894296 
L 593.408227 514.99746 
L 593.716365 514.070416 
L 594.023315 495.551971 
L 594.329088 529.124405 
L 594.633691 497.092852 
L 594.937133 489.625507 
L 595.239424 501.124386 
L 595.540572 498.077279 
L 595.840586 502.643282 
L 596.139474 488.724023 
L 596.437245 498.625717 
L 596.733906 490.457141 
L 597.029467 524.204516 
L 597.323936 483.057739 
L 597.617319 488.373208 
L 597.909626 497.226641 
L 598.200864 490.331706 
L 598.491042 491.321565 
L 599.068244 509.40239 
L 599.355284 495.026731 
L 599.641294 501.565548 
L 599.92628 487.488041 
L 600.21025 495.531123 
L 600.493212 493.934163 
L 600.775172 491.704465 
L 601.056137 506.282694 
L 601.336115 495.48909 
L 601.615112 503.616473 
L 601.893135 491.553338 
L 602.170191 516.916408 
L 602.446287 503.616337 
L 602.721429 536.051461 
L 602.995624 531.363144 
L 603.268878 515.050538 
L 603.541199 482.467306 
L 603.812591 508.502964 
L 604.083062 491.064438 
L 604.352617 493.464361 
L 604.621264 550.692088 
L 605.155853 497.945 
L 605.686879 559.506349 
L 605.95107 505.753679 
L 606.214388 486.771243 
L 606.476838 502.196595 
L 606.738427 499.445983 
L 606.999159 495.37837 
L 607.25904 484.765314 
L 607.518076 498.865735 
L 607.776273 519.884644 
L 608.033635 496.66505 
L 608.290169 495.38537 
L 608.545879 515.956216 
L 608.80077 506.21555 
L 609.054849 524.01686 
L 609.308119 507.917679 
L 609.560587 512.156777 
L 609.812258 493.045076 
L 610.063135 496.759174 
L 610.313225 518.940025 
L 610.811062 484.026438 
L 611.305806 504.063405 
L 611.55203 499.571341 
L 611.797496 498.110145 
L 612.042208 515.362226 
L 612.28617 498.238476 
L 612.529387 498.117886 
L 612.771864 494.395744 
L 613.013605 495.695732 
L 613.254614 496.002538 
L 613.494897 507.41388 
L 613.734457 525.472501 
L 613.973298 500.18135 
L 614.211426 495.624779 
L 614.448843 503.120876 
L 614.685555 493.20948 
L 614.921566 530.381639 
L 615.15688 505.807245 
L 615.3915 499.379228 
L 615.625431 515.335182 
L 615.858678 513.659534 
L 616.091243 499.334604 
L 616.323131 501.371968 
L 616.554347 512.091444 
L 616.784892 515.374528 
L 617.014773 480.933021 
L 617.243992 500.317043 
L 617.472553 479.707222 
L 617.700461 504.81654 
L 618.154329 501.767411 
L 618.380296 487.331727 
L 618.605625 520.620558 
L 619.277811 494.420076 
L 619.500618 501.843501 
L 619.722804 520.921405 
L 619.944372 498.327357 
L 620.165325 510.701372 
L 620.385667 505.78655 
L 620.605401 497.278329 
L 620.824531 530.185632 
L 621.043059 522.603512 
L 621.26099 499.766549 
L 621.478326 510.390339 
L 621.69507 494.601953 
L 621.911227 490.949223 
L 622.341787 514.776152 
L 622.770034 502.270449 
L 622.983296 494.342275 
L 623.195989 499.293799 
L 623.408116 499.396627 
L 623.61968 512.094492 
L 623.830683 514.311762 
L 624.041128 506.110256 
L 624.251019 520.649635 
L 624.460358 486.453648 
L 624.669149 497.156088 
L 624.877394 486.838754 
L 625.085096 517.258565 
L 625.292257 483.31756 
L 625.498881 499.430726 
L 625.704971 506.245125 
L 625.910528 499.97471 
L 626.115557 510.54448 
L 626.320059 512.197498 
L 626.524038 499.445561 
L 627.132858 512.885 
L 627.334768 489.80938 
L 627.536168 485.567966 
L 627.73706 510.813514 
L 627.937446 490.319425 
L 628.13733 514.718425 
L 628.336713 494.636761 
L 628.535599 510.222208 
L 628.733989 509.443708 
L 628.931886 496.722342 
L 629.129293 492.289326 
L 629.326211 480.01057 
L 629.718594 512.284795 
L 629.914063 496.419101 
L 630.109054 520.597261 
L 630.303568 496.489984 
L 630.497608 519.514583 
L 630.691177 492.722867 
L 630.884277 485.771771 
L 631.07691 489.940108 
L 631.269078 488.593588 
L 631.652028 516.829548 
L 631.842815 485.522465 
L 632.033146 501.188369 
L 632.223024 506.26534 
L 632.41245 515.108935 
L 632.601426 512.619346 
L 632.789956 493.641877 
L 632.97804 499.393261 
L 633.165681 490.950125 
L 633.352881 490.026685 
L 633.539642 507.169421 
L 633.725966 488.609662 
L 634.097312 486.971854 
L 634.282338 497.921561 
L 634.466935 485.238606 
L 634.651105 500.877705 
L 634.83485 494.442581 
L 635.018173 506.26972 
L 635.201074 485.045492 
L 635.383557 486.064094 
L 635.565622 517.598402 
L 635.747272 478.805706 
L 635.928509 499.230338 
L 636.109335 484.637353 
L 636.469759 532.720507 
L 636.649361 486.813081 
L 636.828559 495.210603 
L 637.007355 515.064699 
L 637.185751 492.886829 
L 637.363748 500.504911 
L 637.541348 500.939927 
L 637.718553 518.848398 
L 637.895364 488.791746 
L 638.071784 487.774084 
L 638.247814 529.194211 
L 638.423456 508.05223 
L 638.598712 510.668067 
L 638.773582 500.763408 
L 638.94807 508.227085 
L 639.122176 509.15189 
L 639.295903 522.425349 
L 639.469251 509.32129 
L 639.81482 502.319196 
L 639.987044 493.539173 
L 640.158897 499.066931 
L 640.330379 518.233381 
L 640.501493 490.178046 
L 640.67224 500.63204 
L 640.842622 498.367649 
L 641.012641 508.359731 
L 641.182297 500.205088 
L 641.351593 527.359755 
L 641.520529 482.883984 
L 641.857331 537.889025 
L 642.0252 515.624565 
L 642.192715 511.652502 
L 642.526693 483.782784 
L 642.693158 485.695997 
L 642.859276 510.325942 
L 643.190477 485.672786 
L 643.355562 502.176647 
L 643.520306 506.770401 
L 643.684709 508.022133 
L 643.848774 527.50901 
L 644.012502 501.896614 
L 644.338952 504.915785 
L 644.501676 494.850815 
L 644.664069 476.713832 
L 644.987864 513.724542 
L 645.14927 517.793901 
L 645.310349 492.13468 
L 645.471103 490.81276 
L 645.631533 492.157484 
L 645.791641 508.973543 
L 645.951427 503.976871 
L 646.110894 507.960644 
L 646.270042 523.627272 
L 646.428873 496.115156 
L 646.587387 501.133589 
L 646.745587 502.343913 
L 646.903473 509.10441 
L 647.375263 491.887386 
L 647.688244 515.633694 
L 647.844274 496.720752 
L 647.844274 496.720752 
" style="fill:none;stroke:#b22222;stroke-linecap:round;stroke-width:1.75;"/>
   </g>
   <g id="patch_6">
    <path d="M 90 512.64 
L 90 311.04 
" style="fill:none;stroke:#262626;stroke-linecap:square;stroke-linejoin:miter;stroke-width:1.25;"/>
   </g>
   <g id="patch_7">
    <path d="M 90 512.64 
L 648 512.64 
" style="fill:none;stroke:#262626;stroke-linecap:square;stroke-linejoin:miter;stroke-width:1.25;"/>
   </g>
  </g>
 </g>
 <defs>
  <clipPath id="p42981681ef">
   <rect height="201.6" width="558" x="90" y="69.12"/>
  </clipPath>
  <clipPath id="p1434208217">
   <rect height="201.6" width="558" x="90" y="311.04"/>
  </clipPath>
 </defs>
</svg>
