<?xml version="1.0" encoding="utf-8" standalone="no"?>
<!DOCTYPE svg PUBLIC "-//W3C//DTD SVG 1.1//EN"
  "http://www.w3.org/Graphics/SVG/1.1/DTD/svg11.dtd">
<!-- Created with matplotlib (http://matplotlib.org/) -->
<svg height="576pt" version="1.1" viewBox="0 0 720 576" width="720pt" xmlns="http://www.w3.org/2000/svg" xmlns:xlink="http://www.w3.org/1999/xlink">
 <defs>
  <style type="text/css">
*{stroke-linecap:butt;stroke-linejoin:round;}
  </style>
 </defs>
 <g id="figure_1">
  <g id="patch_1">
   <path d="M 0 576 
L 720 576 
L 720 0 
L 0 0 
z
" style="fill:#ffffff;"/>
  </g>
  <g id="axes_1">
   <g id="patch_2">
    <path d="M 90 270.72 
L 648 270.72 
L 648 69.12 
L 90 69.12 
z
" style="fill:#ffffff;"/>
   </g>
   <g id="matplotlib.axis_1">
    <g id="xtick_1">
     <g id="line2d_1">
      <defs>
       <path d="M 0 0 
L 0 6 
" id="mba55d74260" style="stroke:#262626;"/>
      </defs>
      <g>
       <use style="fill:#262626;stroke:#262626;" x="90" xlink:href="#mba55d74260" y="270.72"/>
      </g>
     </g>
     <g id="text_1">
      <!-- 0 -->
      <defs>
       <path d="M 4.15625 35.296875 
Q 4.15625 48 6.765625 55.734375 
Q 9.375 63.484375 14.515625 67.671875 
Q 19.671875 71.875 27.484375 71.875 
Q 33.25 71.875 37.59375 69.546875 
Q 41.9375 67.234375 44.765625 62.859375 
Q 47.609375 58.5 49.21875 52.21875 
Q 50.828125 45.953125 50.828125 35.296875 
Q 50.828125 22.703125 48.234375 14.96875 
Q 45.65625 7.234375 40.5 3 
Q 35.359375 -1.21875 27.484375 -1.21875 
Q 17.140625 -1.21875 11.234375 6.203125 
Q 4.15625 15.140625 4.15625 35.296875 
z
M 13.1875 35.296875 
Q 13.1875 17.671875 17.3125 11.828125 
Q 21.4375 6 27.484375 6 
Q 33.546875 6 37.671875 11.859375 
Q 41.796875 17.71875 41.796875 35.296875 
Q 41.796875 52.984375 37.671875 58.78125 
Q 33.546875 64.59375 27.390625 64.59375 
Q 21.34375 64.59375 17.71875 59.46875 
Q 13.1875 52.9375 13.1875 35.296875 
z
" id="ArialMT-30"/>
      </defs>
      <g style="fill:#262626;" transform="translate(87.219531 290.877812)scale(0.1 -0.1)">
       <use xlink:href="#ArialMT-30"/>
      </g>
     </g>
    </g>
    <g id="xtick_2">
     <g id="line2d_2">
      <g>
       <use style="fill:#262626;stroke:#262626;" x="198.984375" xlink:href="#mba55d74260" y="270.72"/>
      </g>
     </g>
     <g id="text_2">
      <!-- 200 -->
      <defs>
       <path d="M 50.34375 8.453125 
L 50.34375 0 
L 3.03125 0 
Q 2.9375 3.171875 4.046875 6.109375 
Q 5.859375 10.9375 9.828125 15.625 
Q 13.8125 20.3125 21.34375 26.46875 
Q 33.015625 36.03125 37.109375 41.625 
Q 41.21875 47.21875 41.21875 52.203125 
Q 41.21875 57.421875 37.46875 61 
Q 33.734375 64.59375 27.734375 64.59375 
Q 21.390625 64.59375 17.578125 60.78125 
Q 13.765625 56.984375 13.71875 50.25 
L 4.6875 51.171875 
Q 5.609375 61.28125 11.65625 66.578125 
Q 17.71875 71.875 27.9375 71.875 
Q 38.234375 71.875 44.234375 66.15625 
Q 50.25 60.453125 50.25 52 
Q 50.25 47.703125 48.484375 43.546875 
Q 46.734375 39.40625 42.65625 34.8125 
Q 38.578125 30.21875 29.109375 22.21875 
Q 21.1875 15.578125 18.9375 13.203125 
Q 16.703125 10.84375 15.234375 8.453125 
z
" id="ArialMT-32"/>
      </defs>
      <g style="fill:#262626;" transform="translate(190.642969 290.877812)scale(0.1 -0.1)">
       <use xlink:href="#ArialMT-32"/>
       <use x="55.615234" xlink:href="#ArialMT-30"/>
       <use x="111.230469" xlink:href="#ArialMT-30"/>
      </g>
     </g>
    </g>
    <g id="xtick_3">
     <g id="line2d_3">
      <g>
       <use style="fill:#262626;stroke:#262626;" x="307.96875" xlink:href="#mba55d74260" y="270.72"/>
      </g>
     </g>
     <g id="text_3">
      <!-- 400 -->
      <defs>
       <path d="M 32.328125 0 
L 32.328125 17.140625 
L 1.265625 17.140625 
L 1.265625 25.203125 
L 33.9375 71.578125 
L 41.109375 71.578125 
L 41.109375 25.203125 
L 50.78125 25.203125 
L 50.78125 17.140625 
L 41.109375 17.140625 
L 41.109375 0 
z
M 32.328125 25.203125 
L 32.328125 57.46875 
L 9.90625 25.203125 
z
" id="ArialMT-34"/>
      </defs>
      <g style="fill:#262626;" transform="translate(299.627344 290.877812)scale(0.1 -0.1)">
       <use xlink:href="#ArialMT-34"/>
       <use x="55.615234" xlink:href="#ArialMT-30"/>
       <use x="111.230469" xlink:href="#ArialMT-30"/>
      </g>
     </g>
    </g>
    <g id="xtick_4">
     <g id="line2d_4">
      <g>
       <use style="fill:#262626;stroke:#262626;" x="416.953125" xlink:href="#mba55d74260" y="270.72"/>
      </g>
     </g>
     <g id="text_4">
      <!-- 600 -->
      <defs>
       <path d="M 49.75 54.046875 
L 41.015625 53.375 
Q 39.84375 58.546875 37.703125 60.890625 
Q 34.125 64.65625 28.90625 64.65625 
Q 24.703125 64.65625 21.53125 62.3125 
Q 17.390625 59.28125 14.984375 53.46875 
Q 12.59375 47.65625 12.5 36.921875 
Q 15.671875 41.75 20.265625 44.09375 
Q 24.859375 46.4375 29.890625 46.4375 
Q 38.671875 46.4375 44.84375 39.96875 
Q 51.03125 33.5 51.03125 23.25 
Q 51.03125 16.5 48.125 10.71875 
Q 45.21875 4.9375 40.140625 1.859375 
Q 35.0625 -1.21875 28.609375 -1.21875 
Q 17.625 -1.21875 10.6875 6.859375 
Q 3.765625 14.9375 3.765625 33.5 
Q 3.765625 54.25 11.421875 63.671875 
Q 18.109375 71.875 29.4375 71.875 
Q 37.890625 71.875 43.28125 67.140625 
Q 48.6875 62.40625 49.75 54.046875 
z
M 13.875 23.1875 
Q 13.875 18.65625 15.796875 14.5 
Q 17.71875 10.359375 21.1875 8.171875 
Q 24.65625 6 28.46875 6 
Q 34.03125 6 38.03125 10.484375 
Q 42.046875 14.984375 42.046875 22.703125 
Q 42.046875 30.125 38.078125 34.390625 
Q 34.125 38.671875 28.125 38.671875 
Q 22.171875 38.671875 18.015625 34.390625 
Q 13.875 30.125 13.875 23.1875 
z
" id="ArialMT-36"/>
      </defs>
      <g style="fill:#262626;" transform="translate(408.611719 290.877812)scale(0.1 -0.1)">
       <use xlink:href="#ArialMT-36"/>
       <use x="55.615234" xlink:href="#ArialMT-30"/>
       <use x="111.230469" xlink:href="#ArialMT-30"/>
      </g>
     </g>
    </g>
    <g id="xtick_5">
     <g id="line2d_5">
      <g>
       <use style="fill:#262626;stroke:#262626;" x="525.9375" xlink:href="#mba55d74260" y="270.72"/>
      </g>
     </g>
     <g id="text_5">
      <!-- 800 -->
      <defs>
       <path d="M 17.671875 38.8125 
Q 12.203125 40.828125 9.5625 44.53125 
Q 6.9375 48.25 6.9375 53.421875 
Q 6.9375 61.234375 12.546875 66.546875 
Q 18.171875 71.875 27.484375 71.875 
Q 36.859375 71.875 42.578125 66.421875 
Q 48.296875 60.984375 48.296875 53.171875 
Q 48.296875 48.1875 45.671875 44.5 
Q 43.0625 40.828125 37.75 38.8125 
Q 44.34375 36.671875 47.78125 31.875 
Q 51.21875 27.09375 51.21875 20.453125 
Q 51.21875 11.28125 44.71875 5.03125 
Q 38.234375 -1.21875 27.640625 -1.21875 
Q 17.046875 -1.21875 10.546875 5.046875 
Q 4.046875 11.328125 4.046875 20.703125 
Q 4.046875 27.6875 7.59375 32.390625 
Q 11.140625 37.109375 17.671875 38.8125 
z
M 15.921875 53.71875 
Q 15.921875 48.640625 19.1875 45.40625 
Q 22.46875 42.1875 27.6875 42.1875 
Q 32.765625 42.1875 36.015625 45.375 
Q 39.265625 48.578125 39.265625 53.21875 
Q 39.265625 58.0625 35.90625 61.359375 
Q 32.5625 64.65625 27.59375 64.65625 
Q 22.5625 64.65625 19.234375 61.421875 
Q 15.921875 58.203125 15.921875 53.71875 
z
M 13.09375 20.65625 
Q 13.09375 16.890625 14.875 13.375 
Q 16.65625 9.859375 20.171875 7.921875 
Q 23.6875 6 27.734375 6 
Q 34.03125 6 38.125 10.046875 
Q 42.234375 14.109375 42.234375 20.359375 
Q 42.234375 26.703125 38.015625 30.859375 
Q 33.796875 35.015625 27.4375 35.015625 
Q 21.234375 35.015625 17.15625 30.90625 
Q 13.09375 26.8125 13.09375 20.65625 
z
" id="ArialMT-38"/>
      </defs>
      <g style="fill:#262626;" transform="translate(517.596094 290.877812)scale(0.1 -0.1)">
       <use xlink:href="#ArialMT-38"/>
       <use x="55.615234" xlink:href="#ArialMT-30"/>
       <use x="111.230469" xlink:href="#ArialMT-30"/>
      </g>
     </g>
    </g>
    <g id="xtick_6">
     <g id="line2d_6">
      <g>
       <use style="fill:#262626;stroke:#262626;" x="634.921875" xlink:href="#mba55d74260" y="270.72"/>
      </g>
     </g>
     <g id="text_6">
      <!-- 1000 -->
      <defs>
       <path d="M 37.25 0 
L 28.46875 0 
L 28.46875 56 
Q 25.296875 52.984375 20.140625 49.953125 
Q 14.984375 46.921875 10.890625 45.40625 
L 10.890625 53.90625 
Q 18.265625 57.375 23.78125 62.296875 
Q 29.296875 67.234375 31.59375 71.875 
L 37.25 71.875 
z
" id="ArialMT-31"/>
      </defs>
      <g style="fill:#262626;" transform="translate(623.8 290.877812)scale(0.1 -0.1)">
       <use xlink:href="#ArialMT-31"/>
       <use x="55.615234" xlink:href="#ArialMT-30"/>
       <use x="111.230469" xlink:href="#ArialMT-30"/>
       <use x="166.845703" xlink:href="#ArialMT-30"/>
      </g>
     </g>
    </g>
   </g>
   <g id="matplotlib.axis_2">
    <g id="ytick_1">
     <g id="line2d_7">
      <defs>
       <path d="M 0 0 
L -6 0 
" id="mf56cad4927" style="stroke:#262626;"/>
      </defs>
      <g>
       <use style="fill:#262626;stroke:#262626;" x="90" xlink:href="#mf56cad4927" y="270.72"/>
      </g>
     </g>
     <g id="text_7">
      <!-- −0.6 -->
      <defs>
       <path d="M 52.828125 31.203125 
L 5.5625 31.203125 
L 5.5625 39.40625 
L 52.828125 39.40625 
z
" id="ArialMT-2212"/>
       <path d="M 9.078125 0 
L 9.078125 10.015625 
L 19.09375 10.015625 
L 19.09375 0 
z
" id="ArialMT-2e"/>
      </defs>
      <g style="fill:#262626;" transform="translate(57.259375 274.298906)scale(0.1 -0.1)">
       <use xlink:href="#ArialMT-2212"/>
       <use x="58.398438" xlink:href="#ArialMT-30"/>
       <use x="114.013672" xlink:href="#ArialMT-2e"/>
       <use x="141.796875" xlink:href="#ArialMT-36"/>
      </g>
     </g>
    </g>
    <g id="ytick_2">
     <g id="line2d_8">
      <g>
       <use style="fill:#262626;stroke:#262626;" x="90" xlink:href="#mf56cad4927" y="237.12"/>
      </g>
     </g>
     <g id="text_8">
      <!-- −0.4 -->
      <g style="fill:#262626;" transform="translate(57.259375 240.698906)scale(0.1 -0.1)">
       <use xlink:href="#ArialMT-2212"/>
       <use x="58.398438" xlink:href="#ArialMT-30"/>
       <use x="114.013672" xlink:href="#ArialMT-2e"/>
       <use x="141.796875" xlink:href="#ArialMT-34"/>
      </g>
     </g>
    </g>
    <g id="ytick_3">
     <g id="line2d_9">
      <g>
       <use style="fill:#262626;stroke:#262626;" x="90" xlink:href="#mf56cad4927" y="203.52"/>
      </g>
     </g>
     <g id="text_9">
      <!-- −0.2 -->
      <g style="fill:#262626;" transform="translate(57.259375 207.098906)scale(0.1 -0.1)">
       <use xlink:href="#ArialMT-2212"/>
       <use x="58.398438" xlink:href="#ArialMT-30"/>
       <use x="114.013672" xlink:href="#ArialMT-2e"/>
       <use x="141.796875" xlink:href="#ArialMT-32"/>
      </g>
     </g>
    </g>
    <g id="ytick_4">
     <g id="line2d_10">
      <g>
       <use style="fill:#262626;stroke:#262626;" x="90" xlink:href="#mf56cad4927" y="169.92"/>
      </g>
     </g>
     <g id="text_10">
      <!-- 0.0 -->
      <g style="fill:#262626;" transform="translate(63.1 173.498906)scale(0.1 -0.1)">
       <use xlink:href="#ArialMT-30"/>
       <use x="55.615234" xlink:href="#ArialMT-2e"/>
       <use x="83.398438" xlink:href="#ArialMT-30"/>
      </g>
     </g>
    </g>
    <g id="ytick_5">
     <g id="line2d_11">
      <g>
       <use style="fill:#262626;stroke:#262626;" x="90" xlink:href="#mf56cad4927" y="136.32"/>
      </g>
     </g>
     <g id="text_11">
      <!-- 0.2 -->
      <g style="fill:#262626;" transform="translate(63.1 139.898906)scale(0.1 -0.1)">
       <use xlink:href="#ArialMT-30"/>
       <use x="55.615234" xlink:href="#ArialMT-2e"/>
       <use x="83.398438" xlink:href="#ArialMT-32"/>
      </g>
     </g>
    </g>
    <g id="ytick_6">
     <g id="line2d_12">
      <g>
       <use style="fill:#262626;stroke:#262626;" x="90" xlink:href="#mf56cad4927" y="102.72"/>
      </g>
     </g>
     <g id="text_12">
      <!-- 0.4 -->
      <g style="fill:#262626;" transform="translate(63.1 106.298906)scale(0.1 -0.1)">
       <use xlink:href="#ArialMT-30"/>
       <use x="55.615234" xlink:href="#ArialMT-2e"/>
       <use x="83.398438" xlink:href="#ArialMT-34"/>
      </g>
     </g>
    </g>
    <g id="ytick_7">
     <g id="line2d_13">
      <g>
       <use style="fill:#262626;stroke:#262626;" x="90" xlink:href="#mf56cad4927" y="69.12"/>
      </g>
     </g>
     <g id="text_13">
      <!-- 0.6 -->
      <g style="fill:#262626;" transform="translate(63.1 72.698906)scale(0.1 -0.1)">
       <use xlink:href="#ArialMT-30"/>
       <use x="55.615234" xlink:href="#ArialMT-2e"/>
       <use x="83.398438" xlink:href="#ArialMT-36"/>
      </g>
     </g>
    </g>
   </g>
   <g id="line2d_14">
    <path clip-path="url(#p83fdf343e6)" d="M 90 179.481768 
L 90.544922 179.010088 
L 91.089844 179.1075 
L 91.634766 178.98958 
L 92.179688 178.98958 
L 92.724609 178.620439 
L 93.269531 178.553789 
L 94.359375 177.697588 
L 95.449219 176.523516 
L 99.263672 170.268633 
L 99.808594 169.745684 
L 100.353516 169.873857 
L 100.898438 170.181475 
L 101.443359 171.191484 
L 101.988281 171.857988 
L 102.533203 173.426836 
L 103.623047 176.036455 
L 104.167969 177.574541 
L 105.257812 179.558672 
L 105.802734 179.927812 
L 106.347656 180.717363 
L 106.892578 180.968584 
L 107.4375 181.347979 
L 109.072266 181.753008 
L 109.617188 181.609453 
L 110.162109 181.204424 
L 111.796875 179.097246 
L 112.886719 177.174639 
L 113.431641 176.072344 
L 115.611328 169.86873 
L 116.701172 166.618242 
L 117.246094 165.162187 
L 117.791016 164.106035 
L 118.880859 162.578203 
L 119.970703 162.439775 
L 122.150391 164.798174 
L 123.785156 167.848711 
L 125.419922 171.186357 
L 126.509766 173.314043 
L 127.054688 173.795977 
L 127.599609 174.693193 
L 129.234375 176.508135 
L 130.869141 179.086992 
L 132.503906 183.352617 
L 133.59375 185.567461 
L 134.138672 185.623857 
L 134.683594 185.526445 
L 135.228516 185.024004 
L 136.318359 182.332354 
L 139.587891 171.70418 
L 140.132812 170.212236 
L 142.3125 166.613115 
L 142.857422 166.326006 
L 143.402344 165.608232 
L 145.037109 164.147051 
L 145.582031 163.957354 
L 146.126953 163.567705 
L 146.671875 163.552324 
L 147.216797 163.721514 
L 147.761719 163.490801 
L 148.306641 163.71126 
L 149.396484 164.613604 
L 149.941406 165.464678 
L 150.486328 166.074785 
L 151.576172 168.453691 
L 154.300781 176.441484 
L 155.390625 178.610186 
L 155.935547 179.199785 
L 156.480469 179.440752 
L 158.115234 178.005205 
L 159.75 174.780352 
L 160.294922 174.057451 
L 161.384766 171.775957 
L 162.474609 169.555986 
L 164.109375 164.413652 
L 165.199219 160.860674 
L 165.744141 159.179033 
L 166.289062 157.984453 
L 166.833984 157.681963 
L 167.378906 157.692217 
L 167.923828 158.548418 
L 168.46875 159.72249 
L 169.558594 163.429277 
L 173.917969 181.0096 
L 174.462891 182.557939 
L 175.552734 184.526689 
L 176.097656 184.767656 
L 176.642578 185.19832 
L 177.1875 184.906084 
L 177.732422 184.936846 
L 178.822266 184.413896 
L 179.367188 184.336992 
L 179.912109 183.70125 
L 181.001953 183.188555 
L 182.091797 182.732256 
L 182.636719 182.829668 
L 183.181641 182.665605 
L 184.271484 182.763018 
L 184.816406 182.511797 
L 185.361328 182.434893 
L 185.90625 181.906816 
L 186.996094 180.030352 
L 188.085938 177.164385 
L 189.175781 174.406084 
L 189.720703 173.462725 
L 190.810547 172.206621 
L 191.355469 172.216875 
L 192.445312 172.950029 
L 193.535156 174.441973 
L 196.259766 179.650957 
L 197.894531 181.865801 
L 198.439453 182.50667 
L 200.074219 183.557695 
L 201.164062 183.911455 
L 201.708984 183.947344 
L 202.798828 183.460283 
L 203.888672 181.68123 
L 204.978516 178.784502 
L 206.613281 173.749834 
L 207.703125 170.289141 
L 208.792969 167.418047 
L 209.882812 164.916094 
L 210.427734 164.172686 
L 211.517578 163.367754 
L 212.0625 163.388262 
L 212.607422 163.613848 
L 213.697266 164.844316 
L 215.876953 169.156084 
L 216.966797 170.714678 
L 217.511719 171.2325 
L 218.601562 171.591387 
L 219.691406 172.821855 
L 220.78125 174.63167 
L 222.960938 180.409746 
L 223.505859 182.147783 
L 224.050781 183.367998 
L 224.595703 184.234453 
L 225.140625 184.680498 
L 225.685547 184.552324 
L 226.230469 184.280596 
L 227.320312 182.522051 
L 227.865234 181.030107 
L 228.410156 179.871416 
L 230.589844 173.355059 
L 232.224609 169.658525 
L 234.404297 165.654375 
L 236.039062 163.547197 
L 236.583984 163.142168 
L 237.673828 162.050127 
L 238.763672 161.147783 
L 239.853516 160.722246 
L 240.398438 160.573564 
L 241.488281 161.532305 
L 242.033203 162.598711 
L 244.212891 169.21248 
L 244.757812 171.237627 
L 245.847656 173.79085 
L 246.392578 174.693193 
L 246.9375 174.980303 
L 247.482422 175.395586 
L 248.572266 175.252031 
L 249.117188 175.031572 
L 249.662109 175.323809 
L 250.207031 174.949541 
L 250.751953 174.964922 
L 251.841797 173.744707 
L 253.476562 169.909746 
L 255.65625 161.870684 
L 256.201172 159.799395 
L 257.291016 156.748857 
L 257.835938 155.779863 
L 258.380859 155.082598 
L 258.925781 155.195391 
L 259.470703 155.615801 
L 260.015625 156.487383 
L 261.650391 161.373369 
L 262.195312 163.454912 
L 262.740234 166.064531 
L 265.464844 175.836504 
L 266.554688 178.56917 
L 267.099609 179.789385 
L 267.644531 180.630205 
L 268.189453 181.230059 
L 269.824219 180.978838 
L 270.369141 180.450762 
L 271.458984 180.030352 
L 272.548828 180.030352 
L 273.09375 180.614824 
L 273.638672 180.784014 
L 274.183594 181.1429 
L 274.728516 181.291582 
L 275.818359 181.342852 
L 276.363281 181.004473 
L 276.908203 180.36873 
L 279.632812 174.667559 
L 281.267578 171.068437 
L 282.357422 169.981523 
L 282.902344 169.776445 
L 283.447266 169.976396 
L 284.537109 171.037676 
L 285.626953 172.462969 
L 286.171875 173.160234 
L 286.716797 173.647295 
L 287.806641 175.093096 
L 288.351562 175.810869 
L 291.076172 180.220049 
L 291.621094 180.753252 
L 292.166016 181.563311 
L 293.255859 181.865801 
L 293.800781 181.68123 
L 294.345703 181.347979 
L 295.980469 178.5179 
L 296.525391 177.533525 
L 297.070312 176.226152 
L 297.615234 174.436846 
L 298.160156 173.052568 
L 300.884766 164.039385 
L 301.429688 162.793535 
L 301.974609 161.968096 
L 302.519531 161.378496 
L 303.064453 161.542559 
L 303.609375 161.501543 
L 304.154297 162.296221 
L 304.699219 162.711504 
L 306.333984 165.192949 
L 308.513672 166.75667 
L 309.058594 166.715654 
L 309.603516 167.007891 
L 310.693359 168.18709 
L 311.238281 169.253496 
L 312.328125 172.001543 
L 312.873047 173.724199 
L 313.417969 175.836504 
L 315.052734 180.425127 
L 315.597656 181.512041 
L 316.142578 182.250322 
L 317.232422 182.747637 
L 317.777344 182.409258 
L 318.867188 181.219805 
L 321.046875 176.251787 
L 324.316406 168.42293 
L 325.40625 166.854082 
L 325.951172 165.9825 
L 326.496094 165.37752 
L 328.130859 162.732012 
L 330.310547 158.312578 
L 331.400391 157.799883 
L 332.490234 158.840654 
L 333.035156 159.937822 
L 333.580078 161.716875 
L 336.304688 168.325518 
L 337.939453 171.18123 
L 338.484375 171.945146 
L 339.029297 172.919268 
L 339.574219 173.406328 
L 340.119141 174.226641 
L 340.664062 174.621416 
L 341.208984 175.252031 
L 341.753906 175.559648 
L 342.298828 175.262285 
L 342.84375 174.821367 
L 343.933594 173.237139 
L 345.023438 170.284014 
L 346.113281 166.079912 
L 348.292969 157.63582 
L 349.382812 155.426104 
L 349.927734 154.70833 
L 350.472656 154.667314 
L 351.017578 154.754473 
L 352.107422 156.113115 
L 353.197266 158.481768 
L 353.742188 160.235186 
L 357.556641 175.062334 
L 358.646484 176.938799 
L 359.191406 177.302812 
L 360.28125 178.317949 
L 360.826172 178.26668 
L 361.371094 178.856279 
L 362.460938 179.163896 
L 363.005859 179.481768 
L 364.640625 180.799395 
L 365.185547 181.594072 
L 366.275391 182.193926 
L 367.365234 182.240068 
L 367.910156 181.629961 
L 369.544922 178.507646 
L 370.634766 175.559648 
L 371.724609 172.96541 
L 372.269531 171.950273 
L 372.814453 171.191484 
L 373.359375 170.663408 
L 373.904297 170.330156 
L 374.449219 170.565996 
L 374.994141 170.586504 
L 375.539062 170.473711 
L 377.173828 171.042803 
L 378.263672 171.960527 
L 379.898438 174.847002 
L 382.078125 179.199785 
L 383.712891 181.37874 
L 384.257812 181.901689 
L 384.802734 181.978594 
L 385.347656 182.409258 
L 385.892578 182.214434 
L 386.4375 182.158037 
L 386.982422 181.583818 
L 387.527344 180.784014 
L 388.617188 178.056475 
L 389.162109 176.436357 
L 390.796875 170.612139 
L 391.886719 166.864336 
L 392.976562 164.275225 
L 393.521484 163.577959 
L 394.066406 163.295977 
L 394.611328 163.17293 
L 395.701172 163.906084 
L 396.246094 164.593096 
L 397.335938 165.315996 
L 397.880859 165.372393 
L 398.970703 165.192949 
L 399.515625 165.372393 
L 400.060547 165.285234 
L 400.605469 165.926104 
L 401.150391 166.079912 
L 402.785156 169.463701 
L 406.054688 179.020342 
L 407.144531 181.476152 
L 408.234375 183.050127 
L 408.779297 183.573076 
L 409.324219 183.793535 
L 409.869141 183.337236 
L 410.414062 182.722002 
L 412.048828 179.317705 
L 412.59375 177.72835 
L 413.138672 176.626055 
L 413.683594 175.257158 
L 415.318359 172.867998 
L 415.863281 172.42708 
L 416.408203 171.724687 
L 417.498047 169.904619 
L 418.042969 168.710039 
L 419.677734 163.557451 
L 421.3125 160.255693 
L 421.857422 159.507158 
L 422.402344 159.291826 
L 423.492188 159.814775 
L 424.037109 160.440264 
L 425.126953 162.116777 
L 428.396484 168.330645 
L 429.486328 170.058428 
L 430.03125 171.012041 
L 432.210938 175.616045 
L 432.755859 176.523516 
L 433.300781 176.856768 
L 433.845703 177.056719 
L 434.935547 175.559648 
L 435.480469 174.441973 
L 438.205078 165.249346 
L 440.384766 157.487139 
L 440.929688 155.897783 
L 441.474609 154.651934 
L 442.019531 153.877764 
L 442.564453 153.811113 
L 443.109375 154.154619 
L 443.654297 154.862139 
L 444.199219 155.964434 
L 445.289062 159.461016 
L 445.833984 161.091387 
L 447.46875 167.315508 
L 449.103516 171.996416 
L 449.648438 173.232012 
L 450.193359 174.124102 
L 451.828125 175.800615 
L 452.373047 175.810869 
L 454.007812 177.472002 
L 455.642578 180.004717 
L 456.732422 181.527422 
L 457.822266 181.958086 
L 458.912109 181.445391 
L 460.001953 179.753496 
L 460.546875 178.497393 
L 461.636719 176.528643 
L 462.181641 175.400713 
L 464.361328 172.093828 
L 464.90625 171.442705 
L 465.451172 170.612139 
L 465.996094 170.381426 
L 466.541016 169.832842 
L 467.630859 169.571367 
L 468.175781 169.689287 
L 469.810547 171.001787 
L 470.900391 172.380937 
L 471.445312 173.14998 
L 474.169922 178.430742 
L 475.804688 181.522295 
L 477.439453 183.367998 
L 478.529297 183.039873 
L 479.074219 182.383623 
L 479.619141 181.12752 
L 480.164062 179.497148 
L 482.888672 169.268877 
L 483.433594 167.8846 
L 483.978516 166.895098 
L 484.523438 166.182451 
L 485.068359 165.772295 
L 485.613281 165.690264 
L 486.158203 165.828691 
L 486.703125 165.792803 
L 488.337891 165.203203 
L 489.427734 164.403398 
L 489.972656 164.203447 
L 490.517578 164.459795 
L 491.0625 164.557207 
L 491.607422 164.910967 
L 492.697266 166.254229 
L 493.242188 167.048906 
L 494.332031 169.21248 
L 495.421875 172.098955 
L 498.146484 180.89168 
L 499.236328 183.403887 
L 499.78125 183.983232 
L 500.326172 184.254961 
L 500.871094 183.890947 
L 501.960938 182.62459 
L 503.050781 181.132646 
L 504.685547 179.066484 
L 505.230469 178.415361 
L 505.775391 177.97957 
L 507.955078 174.318926 
L 508.5 173.211504 
L 509.044922 171.432451 
L 509.589844 170.073809 
L 511.224609 164.895586 
L 511.769531 163.285723 
L 512.859375 161.3221 
L 513.404297 160.927324 
L 513.949219 160.952959 
L 515.039062 161.609209 
L 515.583984 162.198809 
L 516.128906 162.491045 
L 517.21875 163.588213 
L 518.308594 164.382891 
L 518.853516 165.157061 
L 519.943359 167.47957 
L 520.488281 169.14583 
L 521.033203 170.412187 
L 522.123047 173.38582 
L 523.212891 175.87752 
L 523.757812 176.585039 
L 524.302734 177.497637 
L 524.847656 177.938555 
L 525.392578 178.09749 
L 526.482422 177.579668 
L 527.027344 176.708086 
L 528.117188 173.944658 
L 528.662109 172.186113 
L 531.931641 159.466143 
L 533.021484 156.538652 
L 533.566406 155.697832 
L 534.111328 155.426104 
L 534.65625 155.318437 
L 535.201172 155.764482 
L 535.746094 156.564287 
L 536.291016 157.876787 
L 537.380859 161.475908 
L 537.925781 163.849687 
L 538.470703 165.341631 
L 539.560547 168.838213 
L 540.105469 170.330156 
L 541.195312 172.257891 
L 541.740234 172.755205 
L 542.830078 174.129229 
L 543.375 174.616289 
L 543.919922 175.862139 
L 544.464844 176.508135 
L 546.099609 180.127764 
L 546.644531 181.045488 
L 548.279297 182.824541 
L 548.824219 183.168047 
L 549.369141 182.942461 
L 549.914062 182.880937 
L 550.458984 182.501543 
L 551.003906 181.91707 
L 553.183594 178.610186 
L 553.728516 177.759111 
L 554.273438 176.405596 
L 557.542969 171.596514 
L 558.632812 170.771074 
L 559.177734 170.499346 
L 560.8125 170.971025 
L 561.357422 171.427324 
L 561.902344 171.647783 
L 563.537109 173.303789 
L 564.082031 174.124102 
L 565.171875 176.282549 
L 567.896484 183.58333 
L 568.441406 184.557451 
L 568.986328 184.921465 
L 569.53125 184.865068 
L 570.076172 183.93709 
L 571.166016 180.968584 
L 573.345703 173.754961 
L 574.435547 170.858232 
L 574.980469 169.643145 
L 576.070312 168.161455 
L 576.615234 167.115557 
L 577.160156 166.669512 
L 578.25 165.2596 
L 579.884766 164.218828 
L 580.429688 164.208574 
L 583.154297 163.393389 
L 583.699219 163.629229 
L 584.244141 164.029131 
L 584.789062 164.664873 
L 585.878906 167.212969 
L 588.058594 175.164873 
L 589.148438 178.528154 
L 590.783203 181.599199 
L 591.328125 182.106768 
L 591.873047 182.4554 
L 593.507812 181.727373 
L 594.597656 180.978838 
L 595.142578 180.194414 
L 595.6875 180.132891 
L 596.232422 179.779131 
L 596.777344 179.738115 
L 597.867188 179.004961 
L 598.412109 178.246172 
L 599.501953 175.318682 
L 600.046875 173.242266 
L 600.591797 171.668291 
L 601.136719 169.643145 
L 601.681641 168.079424 
L 602.771484 165.736406 
L 604.40625 163.495928 
L 605.496094 162.567949 
L 607.130859 161.670732 
L 607.675781 161.798906 
L 608.220703 161.552812 
L 609.310547 162.578203 
L 610.945312 165.233965 
L 613.125 170.453203 
L 615.304688 176.149248 
L 616.394531 178.102617 
L 616.939453 178.440996 
L 617.484375 178.456377 
L 618.029297 178.225664 
L 618.574219 177.507891 
L 619.664062 175.52376 
L 620.753906 171.965654 
L 622.388672 165.290361 
L 623.478516 160.486406 
L 624.023438 158.64583 
L 624.568359 157.225664 
L 625.113281 156.246416 
L 625.658203 155.651689 
L 626.203125 155.815752 
L 626.748047 156.333574 
L 627.837891 158.440752 
L 630.017578 163.859941 
L 631.107422 166.202959 
L 632.197266 168.140947 
L 633.832031 170.899248 
L 634.376953 172.078447 
L 634.921875 172.944902 
L 636.556641 176.841387 
L 637.101562 177.815508 
L 637.646484 179.092119 
L 639.28125 181.604326 
L 639.826172 182.024736 
L 640.916016 182.373369 
L 642.005859 181.983721 
L 643.095703 181.183916 
L 643.640625 180.440508 
L 644.185547 180.076494 
L 644.730469 178.825518 
L 645.275391 178.112871 
L 647.455078 173.206377 
L 647.455078 173.206377 
" style="fill:none;stroke:#4c72b0;stroke-linecap:round;stroke-width:1.75;"/>
   </g>
   <g id="patch_3">
    <path d="M 90 270.72 
L 90 69.12 
" style="fill:none;stroke:#262626;stroke-linecap:square;stroke-linejoin:miter;stroke-width:1.25;"/>
   </g>
   <g id="patch_4">
    <path d="M 90 270.72 
L 648 270.72 
" style="fill:none;stroke:#262626;stroke-linecap:square;stroke-linejoin:miter;stroke-width:1.25;"/>
   </g>
  </g>
  <g id="axes_2">
   <g id="patch_5">
    <path d="M 90 512.64 
L 648 512.64 
L 648 311.04 
L 90 311.04 
z
" style="fill:#ffffff;"/>
   </g>
   <g id="matplotlib.axis_3">
    <g id="xtick_7">
     <g id="line2d_15">
      <g>
       <use style="fill:#262626;stroke:#262626;" x="218.197478" xlink:href="#mba55d74260" y="512.64"/>
      </g>
     </g>
     <g id="text_14">
      <!-- $\mathdefault{10^{2}}$ -->
      <g style="fill:#262626;" transform="translate(210.347478 535.9525)scale(0.1 -0.1)">
       <use transform="translate(0 0.99375)" xlink:href="#ArialMT-31"/>
       <use transform="translate(55.615234 0.99375)" xlink:href="#ArialMT-30"/>
       <use transform="translate(112.972813 70.6875)scale(0.7)" xlink:href="#ArialMT-32"/>
      </g>
     </g>
    </g>
    <g id="xtick_8">
     <g id="line2d_16">
      <g>
       <use style="fill:#262626;stroke:#262626;" x="401.606604" xlink:href="#mba55d74260" y="512.64"/>
      </g>
     </g>
     <g id="text_15">
      <!-- $\mathdefault{10^{3}}$ -->
      <defs>
       <path d="M 4.203125 18.890625 
L 12.984375 20.0625 
Q 14.5 12.59375 18.140625 9.296875 
Q 21.78125 6 27 6 
Q 33.203125 6 37.46875 10.296875 
Q 41.75 14.59375 41.75 20.953125 
Q 41.75 27 37.796875 30.921875 
Q 33.84375 34.859375 27.734375 34.859375 
Q 25.25 34.859375 21.53125 33.890625 
L 22.515625 41.609375 
Q 23.390625 41.5 23.921875 41.5 
Q 29.546875 41.5 34.03125 44.421875 
Q 38.53125 47.359375 38.53125 53.46875 
Q 38.53125 58.296875 35.25 61.46875 
Q 31.984375 64.65625 26.8125 64.65625 
Q 21.6875 64.65625 18.265625 61.421875 
Q 14.84375 58.203125 13.875 51.765625 
L 5.078125 53.328125 
Q 6.6875 62.15625 12.390625 67.015625 
Q 18.109375 71.875 26.609375 71.875 
Q 32.46875 71.875 37.390625 69.359375 
Q 42.328125 66.84375 44.9375 62.5 
Q 47.5625 58.15625 47.5625 53.265625 
Q 47.5625 48.640625 45.0625 44.828125 
Q 42.578125 41.015625 37.703125 38.765625 
Q 44.046875 37.3125 47.5625 32.6875 
Q 51.078125 28.078125 51.078125 21.140625 
Q 51.078125 11.765625 44.234375 5.25 
Q 37.40625 -1.265625 26.953125 -1.265625 
Q 17.53125 -1.265625 11.296875 4.34375 
Q 5.078125 9.96875 4.203125 18.890625 
z
" id="ArialMT-33"/>
      </defs>
      <g style="fill:#262626;" transform="translate(393.756604 535.9525)scale(0.1 -0.1)">
       <use transform="translate(0 0.99375)" xlink:href="#ArialMT-31"/>
       <use transform="translate(55.615234 0.99375)" xlink:href="#ArialMT-30"/>
       <use transform="translate(112.972813 70.6875)scale(0.7)" xlink:href="#ArialMT-33"/>
      </g>
     </g>
    </g>
    <g id="xtick_9">
     <g id="line2d_17">
      <g>
       <use style="fill:#262626;stroke:#262626;" x="585.01573" xlink:href="#mba55d74260" y="512.64"/>
      </g>
     </g>
     <g id="text_16">
      <!-- $\mathdefault{10^{4}}$ -->
      <g style="fill:#262626;" transform="translate(577.16573 535.8525)scale(0.1 -0.1)">
       <use transform="translate(0 0.201563)" xlink:href="#ArialMT-31"/>
       <use transform="translate(55.615234 0.201563)" xlink:href="#ArialMT-30"/>
       <use transform="translate(112.972813 69.895313)scale(0.7)" xlink:href="#ArialMT-34"/>
      </g>
     </g>
    </g>
    <g id="xtick_10">
     <g id="line2d_18">
      <defs>
       <path d="M 0 0 
L 0 3 
" id="m86e1f5e985" style="stroke:#262626;stroke-width:0.5;"/>
      </defs>
      <g>
       <use style="fill:#262626;stroke:#262626;stroke-width:0.5;" x="90" xlink:href="#m86e1f5e985" y="512.64"/>
      </g>
     </g>
    </g>
    <g id="xtick_11">
     <g id="line2d_19">
      <g>
       <use style="fill:#262626;stroke:#262626;stroke-width:0.5;" x="122.296744" xlink:href="#m86e1f5e985" y="512.64"/>
      </g>
     </g>
    </g>
    <g id="xtick_12">
     <g id="line2d_20">
      <g>
       <use style="fill:#262626;stroke:#262626;stroke-width:0.5;" x="145.211648" xlink:href="#m86e1f5e985" y="512.64"/>
      </g>
     </g>
    </g>
    <g id="xtick_13">
     <g id="line2d_21">
      <g>
       <use style="fill:#262626;stroke:#262626;stroke-width:0.5;" x="162.985829" xlink:href="#m86e1f5e985" y="512.64"/>
      </g>
     </g>
    </g>
    <g id="xtick_14">
     <g id="line2d_22">
      <g>
       <use style="fill:#262626;stroke:#262626;stroke-width:0.5;" x="177.508392" xlink:href="#m86e1f5e985" y="512.64"/>
      </g>
     </g>
    </g>
    <g id="xtick_15">
     <g id="line2d_23">
      <g>
       <use style="fill:#262626;stroke:#262626;stroke-width:0.5;" x="189.787045" xlink:href="#m86e1f5e985" y="512.64"/>
      </g>
     </g>
    </g>
    <g id="xtick_16">
     <g id="line2d_24">
      <g>
       <use style="fill:#262626;stroke:#262626;stroke-width:0.5;" x="200.423297" xlink:href="#m86e1f5e985" y="512.64"/>
      </g>
     </g>
    </g>
    <g id="xtick_17">
     <g id="line2d_25">
      <g>
       <use style="fill:#262626;stroke:#262626;stroke-width:0.5;" x="209.805136" xlink:href="#m86e1f5e985" y="512.64"/>
      </g>
     </g>
    </g>
    <g id="xtick_18">
     <g id="line2d_26">
      <g>
       <use style="fill:#262626;stroke:#262626;stroke-width:0.5;" x="273.409126" xlink:href="#m86e1f5e985" y="512.64"/>
      </g>
     </g>
    </g>
    <g id="xtick_19">
     <g id="line2d_27">
      <g>
       <use style="fill:#262626;stroke:#262626;stroke-width:0.5;" x="305.70587" xlink:href="#m86e1f5e985" y="512.64"/>
      </g>
     </g>
    </g>
    <g id="xtick_20">
     <g id="line2d_28">
      <g>
       <use style="fill:#262626;stroke:#262626;stroke-width:0.5;" x="328.620775" xlink:href="#m86e1f5e985" y="512.64"/>
      </g>
     </g>
    </g>
    <g id="xtick_21">
     <g id="line2d_29">
      <g>
       <use style="fill:#262626;stroke:#262626;stroke-width:0.5;" x="346.394955" xlink:href="#m86e1f5e985" y="512.64"/>
      </g>
     </g>
    </g>
    <g id="xtick_22">
     <g id="line2d_30">
      <g>
       <use style="fill:#262626;stroke:#262626;stroke-width:0.5;" x="360.917518" xlink:href="#m86e1f5e985" y="512.64"/>
      </g>
     </g>
    </g>
    <g id="xtick_23">
     <g id="line2d_31">
      <g>
       <use style="fill:#262626;stroke:#262626;stroke-width:0.5;" x="373.196171" xlink:href="#m86e1f5e985" y="512.64"/>
      </g>
     </g>
    </g>
    <g id="xtick_24">
     <g id="line2d_32">
      <g>
       <use style="fill:#262626;stroke:#262626;stroke-width:0.5;" x="383.832423" xlink:href="#m86e1f5e985" y="512.64"/>
      </g>
     </g>
    </g>
    <g id="xtick_25">
     <g id="line2d_33">
      <g>
       <use style="fill:#262626;stroke:#262626;stroke-width:0.5;" x="393.214262" xlink:href="#m86e1f5e985" y="512.64"/>
      </g>
     </g>
    </g>
    <g id="xtick_26">
     <g id="line2d_34">
      <g>
       <use style="fill:#262626;stroke:#262626;stroke-width:0.5;" x="456.818252" xlink:href="#m86e1f5e985" y="512.64"/>
      </g>
     </g>
    </g>
    <g id="xtick_27">
     <g id="line2d_35">
      <g>
       <use style="fill:#262626;stroke:#262626;stroke-width:0.5;" x="489.114996" xlink:href="#m86e1f5e985" y="512.64"/>
      </g>
     </g>
    </g>
    <g id="xtick_28">
     <g id="line2d_36">
      <g>
       <use style="fill:#262626;stroke:#262626;stroke-width:0.5;" x="512.029901" xlink:href="#m86e1f5e985" y="512.64"/>
      </g>
     </g>
    </g>
    <g id="xtick_29">
     <g id="line2d_37">
      <g>
       <use style="fill:#262626;stroke:#262626;stroke-width:0.5;" x="529.804081" xlink:href="#m86e1f5e985" y="512.64"/>
      </g>
     </g>
    </g>
    <g id="xtick_30">
     <g id="line2d_38">
      <g>
       <use style="fill:#262626;stroke:#262626;stroke-width:0.5;" x="544.326645" xlink:href="#m86e1f5e985" y="512.64"/>
      </g>
     </g>
    </g>
    <g id="xtick_31">
     <g id="line2d_39">
      <g>
       <use style="fill:#262626;stroke:#262626;stroke-width:0.5;" x="556.605297" xlink:href="#m86e1f5e985" y="512.64"/>
      </g>
     </g>
    </g>
    <g id="xtick_32">
     <g id="line2d_40">
      <g>
       <use style="fill:#262626;stroke:#262626;stroke-width:0.5;" x="567.241549" xlink:href="#m86e1f5e985" y="512.64"/>
      </g>
     </g>
    </g>
    <g id="xtick_33">
     <g id="line2d_41">
      <g>
       <use style="fill:#262626;stroke:#262626;stroke-width:0.5;" x="576.623389" xlink:href="#m86e1f5e985" y="512.64"/>
      </g>
     </g>
    </g>
    <g id="xtick_34">
     <g id="line2d_42">
      <g>
       <use style="fill:#262626;stroke:#262626;stroke-width:0.5;" x="640.227378" xlink:href="#m86e1f5e985" y="512.64"/>
      </g>
     </g>
    </g>
   </g>
   <g id="matplotlib.axis_4">
    <g id="ytick_8">
     <g id="line2d_43">
      <g>
       <use style="fill:#262626;stroke:#262626;" x="90" xlink:href="#mf56cad4927" y="512.64"/>
      </g>
     </g>
     <g id="text_17">
      <!-- $\mathdefault{10^{-5}}$ -->
      <defs>
       <path d="M 4.15625 18.75 
L 13.375 19.53125 
Q 14.40625 12.796875 18.140625 9.390625 
Q 21.875 6 27.15625 6 
Q 33.5 6 37.890625 10.78125 
Q 42.28125 15.578125 42.28125 23.484375 
Q 42.28125 31 38.0625 35.34375 
Q 33.84375 39.703125 27 39.703125 
Q 22.75 39.703125 19.328125 37.765625 
Q 15.921875 35.84375 13.96875 32.765625 
L 5.71875 33.84375 
L 12.640625 70.609375 
L 48.25 70.609375 
L 48.25 62.203125 
L 19.671875 62.203125 
L 15.828125 42.96875 
Q 22.265625 47.46875 29.34375 47.46875 
Q 38.71875 47.46875 45.15625 40.96875 
Q 51.609375 34.46875 51.609375 24.265625 
Q 51.609375 14.546875 45.953125 7.46875 
Q 39.0625 -1.21875 27.15625 -1.21875 
Q 17.390625 -1.21875 11.203125 4.25 
Q 5.03125 9.71875 4.15625 18.75 
z
" id="ArialMT-35"/>
      </defs>
      <g style="fill:#262626;" transform="translate(57.2 517.74625)scale(0.1 -0.1)">
       <use transform="translate(0 0.879688)" xlink:href="#ArialMT-31"/>
       <use transform="translate(55.615234 0.879688)" xlink:href="#ArialMT-30"/>
       <use transform="translate(112.972813 70.573438)scale(0.7)" xlink:href="#ArialMT-2212"/>
       <use transform="translate(153.851719 70.573438)scale(0.7)" xlink:href="#ArialMT-35"/>
      </g>
     </g>
    </g>
    <g id="ytick_9">
     <g id="line2d_44">
      <g>
       <use style="fill:#262626;stroke:#262626;" x="90" xlink:href="#mf56cad4927" y="465.767507"/>
      </g>
     </g>
     <g id="text_18">
      <!-- $\mathdefault{10^{-4}}$ -->
      <g style="fill:#262626;" transform="translate(57.2 470.873757)scale(0.1 -0.1)">
       <use transform="translate(0 0.201563)" xlink:href="#ArialMT-31"/>
       <use transform="translate(55.615234 0.201563)" xlink:href="#ArialMT-30"/>
       <use transform="translate(112.972813 69.895313)scale(0.7)" xlink:href="#ArialMT-2212"/>
       <use transform="translate(153.851719 69.895313)scale(0.7)" xlink:href="#ArialMT-34"/>
      </g>
     </g>
    </g>
    <g id="ytick_10">
     <g id="line2d_45">
      <g>
       <use style="fill:#262626;stroke:#262626;" x="90" xlink:href="#mf56cad4927" y="418.895013"/>
      </g>
     </g>
     <g id="text_19">
      <!-- $\mathdefault{10^{-3}}$ -->
      <g style="fill:#262626;" transform="translate(57.2 424.051263)scale(0.1 -0.1)">
       <use transform="translate(0 0.99375)" xlink:href="#ArialMT-31"/>
       <use transform="translate(55.615234 0.99375)" xlink:href="#ArialMT-30"/>
       <use transform="translate(112.972813 70.6875)scale(0.7)" xlink:href="#ArialMT-2212"/>
       <use transform="translate(153.851719 70.6875)scale(0.7)" xlink:href="#ArialMT-33"/>
      </g>
     </g>
    </g>
    <g id="ytick_11">
     <g id="line2d_46">
      <g>
       <use style="fill:#262626;stroke:#262626;" x="90" xlink:href="#mf56cad4927" y="372.02252"/>
      </g>
     </g>
     <g id="text_20">
      <!-- $\mathdefault{10^{-2}}$ -->
      <g style="fill:#262626;" transform="translate(57.2 377.17877)scale(0.1 -0.1)">
       <use transform="translate(0 0.99375)" xlink:href="#ArialMT-31"/>
       <use transform="translate(55.615234 0.99375)" xlink:href="#ArialMT-30"/>
       <use transform="translate(112.972813 70.6875)scale(0.7)" xlink:href="#ArialMT-2212"/>
       <use transform="translate(153.851719 70.6875)scale(0.7)" xlink:href="#ArialMT-32"/>
      </g>
     </g>
    </g>
    <g id="ytick_12">
     <g id="line2d_47">
      <g>
       <use style="fill:#262626;stroke:#262626;" x="90" xlink:href="#mf56cad4927" y="325.150026"/>
      </g>
     </g>
     <g id="text_21">
      <!-- $\mathdefault{10^{-1}}$ -->
      <g style="fill:#262626;" transform="translate(57.2 330.306276)scale(0.1 -0.1)">
       <use transform="translate(0 0.99375)" xlink:href="#ArialMT-31"/>
       <use transform="translate(55.615234 0.99375)" xlink:href="#ArialMT-30"/>
       <use transform="translate(112.972813 70.6875)scale(0.7)" xlink:href="#ArialMT-2212"/>
       <use transform="translate(153.851719 70.6875)scale(0.7)" xlink:href="#ArialMT-31"/>
      </g>
     </g>
    </g>
    <g id="ytick_13">
     <g id="line2d_48">
      <defs>
       <path d="M 0 0 
L -3 0 
" id="m4126805095" style="stroke:#262626;stroke-width:0.5;"/>
      </defs>
      <g>
       <use style="fill:#262626;stroke:#262626;stroke-width:0.5;" x="90" xlink:href="#m4126805095" y="498.529974"/>
      </g>
     </g>
    </g>
    <g id="ytick_14">
     <g id="line2d_49">
      <g>
       <use style="fill:#262626;stroke:#262626;stroke-width:0.5;" x="90" xlink:href="#m4126805095" y="490.276137"/>
      </g>
     </g>
    </g>
    <g id="ytick_15">
     <g id="line2d_50">
      <g>
       <use style="fill:#262626;stroke:#262626;stroke-width:0.5;" x="90" xlink:href="#m4126805095" y="484.419947"/>
      </g>
     </g>
    </g>
    <g id="ytick_16">
     <g id="line2d_51">
      <g>
       <use style="fill:#262626;stroke:#262626;stroke-width:0.5;" x="90" xlink:href="#m4126805095" y="479.877533"/>
      </g>
     </g>
    </g>
    <g id="ytick_17">
     <g id="line2d_52">
      <g>
       <use style="fill:#262626;stroke:#262626;stroke-width:0.5;" x="90" xlink:href="#m4126805095" y="476.166111"/>
      </g>
     </g>
    </g>
    <g id="ytick_18">
     <g id="line2d_53">
      <g>
       <use style="fill:#262626;stroke:#262626;stroke-width:0.5;" x="90" xlink:href="#m4126805095" y="473.028148"/>
      </g>
     </g>
    </g>
    <g id="ytick_19">
     <g id="line2d_54">
      <g>
       <use style="fill:#262626;stroke:#262626;stroke-width:0.5;" x="90" xlink:href="#m4126805095" y="470.309921"/>
      </g>
     </g>
    </g>
    <g id="ytick_20">
     <g id="line2d_55">
      <g>
       <use style="fill:#262626;stroke:#262626;stroke-width:0.5;" x="90" xlink:href="#m4126805095" y="467.912274"/>
      </g>
     </g>
    </g>
    <g id="ytick_21">
     <g id="line2d_56">
      <g>
       <use style="fill:#262626;stroke:#262626;stroke-width:0.5;" x="90" xlink:href="#m4126805095" y="451.65748"/>
      </g>
     </g>
    </g>
    <g id="ytick_22">
     <g id="line2d_57">
      <g>
       <use style="fill:#262626;stroke:#262626;stroke-width:0.5;" x="90" xlink:href="#m4126805095" y="443.403644"/>
      </g>
     </g>
    </g>
    <g id="ytick_23">
     <g id="line2d_58">
      <g>
       <use style="fill:#262626;stroke:#262626;stroke-width:0.5;" x="90" xlink:href="#m4126805095" y="437.547454"/>
      </g>
     </g>
    </g>
    <g id="ytick_24">
     <g id="line2d_59">
      <g>
       <use style="fill:#262626;stroke:#262626;stroke-width:0.5;" x="90" xlink:href="#m4126805095" y="433.00504"/>
      </g>
     </g>
    </g>
    <g id="ytick_25">
     <g id="line2d_60">
      <g>
       <use style="fill:#262626;stroke:#262626;stroke-width:0.5;" x="90" xlink:href="#m4126805095" y="429.293617"/>
      </g>
     </g>
    </g>
    <g id="ytick_26">
     <g id="line2d_61">
      <g>
       <use style="fill:#262626;stroke:#262626;stroke-width:0.5;" x="90" xlink:href="#m4126805095" y="426.155654"/>
      </g>
     </g>
    </g>
    <g id="ytick_27">
     <g id="line2d_62">
      <g>
       <use style="fill:#262626;stroke:#262626;stroke-width:0.5;" x="90" xlink:href="#m4126805095" y="423.437427"/>
      </g>
     </g>
    </g>
    <g id="ytick_28">
     <g id="line2d_63">
      <g>
       <use style="fill:#262626;stroke:#262626;stroke-width:0.5;" x="90" xlink:href="#m4126805095" y="421.039781"/>
      </g>
     </g>
    </g>
    <g id="ytick_29">
     <g id="line2d_64">
      <g>
       <use style="fill:#262626;stroke:#262626;stroke-width:0.5;" x="90" xlink:href="#m4126805095" y="404.784987"/>
      </g>
     </g>
    </g>
    <g id="ytick_30">
     <g id="line2d_65">
      <g>
       <use style="fill:#262626;stroke:#262626;stroke-width:0.5;" x="90" xlink:href="#m4126805095" y="396.53115"/>
      </g>
     </g>
    </g>
    <g id="ytick_31">
     <g id="line2d_66">
      <g>
       <use style="fill:#262626;stroke:#262626;stroke-width:0.5;" x="90" xlink:href="#m4126805095" y="390.67496"/>
      </g>
     </g>
    </g>
    <g id="ytick_32">
     <g id="line2d_67">
      <g>
       <use style="fill:#262626;stroke:#262626;stroke-width:0.5;" x="90" xlink:href="#m4126805095" y="386.132546"/>
      </g>
     </g>
    </g>
    <g id="ytick_33">
     <g id="line2d_68">
      <g>
       <use style="fill:#262626;stroke:#262626;stroke-width:0.5;" x="90" xlink:href="#m4126805095" y="382.421124"/>
      </g>
     </g>
    </g>
    <g id="ytick_34">
     <g id="line2d_69">
      <g>
       <use style="fill:#262626;stroke:#262626;stroke-width:0.5;" x="90" xlink:href="#m4126805095" y="379.283161"/>
      </g>
     </g>
    </g>
    <g id="ytick_35">
     <g id="line2d_70">
      <g>
       <use style="fill:#262626;stroke:#262626;stroke-width:0.5;" x="90" xlink:href="#m4126805095" y="376.564934"/>
      </g>
     </g>
    </g>
    <g id="ytick_36">
     <g id="line2d_71">
      <g>
       <use style="fill:#262626;stroke:#262626;stroke-width:0.5;" x="90" xlink:href="#m4126805095" y="374.167288"/>
      </g>
     </g>
    </g>
    <g id="ytick_37">
     <g id="line2d_72">
      <g>
       <use style="fill:#262626;stroke:#262626;stroke-width:0.5;" x="90" xlink:href="#m4126805095" y="357.912493"/>
      </g>
     </g>
    </g>
    <g id="ytick_38">
     <g id="line2d_73">
      <g>
       <use style="fill:#262626;stroke:#262626;stroke-width:0.5;" x="90" xlink:href="#m4126805095" y="349.658657"/>
      </g>
     </g>
    </g>
    <g id="ytick_39">
     <g id="line2d_74">
      <g>
       <use style="fill:#262626;stroke:#262626;stroke-width:0.5;" x="90" xlink:href="#m4126805095" y="343.802467"/>
      </g>
     </g>
    </g>
    <g id="ytick_40">
     <g id="line2d_75">
      <g>
       <use style="fill:#262626;stroke:#262626;stroke-width:0.5;" x="90" xlink:href="#m4126805095" y="339.260053"/>
      </g>
     </g>
    </g>
    <g id="ytick_41">
     <g id="line2d_76">
      <g>
       <use style="fill:#262626;stroke:#262626;stroke-width:0.5;" x="90" xlink:href="#m4126805095" y="335.548631"/>
      </g>
     </g>
    </g>
    <g id="ytick_42">
     <g id="line2d_77">
      <g>
       <use style="fill:#262626;stroke:#262626;stroke-width:0.5;" x="90" xlink:href="#m4126805095" y="332.410668"/>
      </g>
     </g>
    </g>
    <g id="ytick_43">
     <g id="line2d_78">
      <g>
       <use style="fill:#262626;stroke:#262626;stroke-width:0.5;" x="90" xlink:href="#m4126805095" y="329.69244"/>
      </g>
     </g>
    </g>
    <g id="ytick_44">
     <g id="line2d_79">
      <g>
       <use style="fill:#262626;stroke:#262626;stroke-width:0.5;" x="90" xlink:href="#m4126805095" y="327.294794"/>
      </g>
     </g>
    </g>
    <g id="ytick_45">
     <g id="line2d_80">
      <g>
       <use style="fill:#262626;stroke:#262626;stroke-width:0.5;" x="90" xlink:href="#m4126805095" y="311.04"/>
      </g>
     </g>
    </g>
   </g>
   <g id="line2d_81">
    <path clip-path="url(#p5f604dfa18)" d="M -1 393.970728 
L 151.095164 393.994259 
L 206.306812 404.068349 
L 238.603556 412.271077 
L 261.518461 448.378416 
L 279.292642 410.73395 
L 293.815205 368.403704 
L 306.093857 455.391419 
L 316.730109 436.848887 
L 326.111949 459.15773 
L 334.50429 429.877439 
L 342.096086 419.414469 
L 349.026853 369.495784 
L 355.402541 415.680316 
L 361.305505 430.620444 
L 366.801034 437.1297 
L 371.941758 440.200491 
L 376.770725 444.125036 
L 381.323597 396.240643 
L 385.630245 407.345078 
L 389.715939 410.979039 
L 393.602249 408.010129 
L 397.307735 400.297678 
L 400.848476 388.935549 
L 404.238502 354.679193 
L 407.490119 378.33568 
L 410.614189 394.311808 
L 413.620341 402.492239 
L 416.517154 409.917114 
L 419.312303 412.015687 
L 422.012683 399.203742 
L 424.624509 408.59922 
L 427.153406 414.569923 
L 429.604479 413.910099 
L 431.982374 413.568694 
L 434.291335 407.695691 
L 436.535246 391.662231 
L 438.717672 403.104651 
L 440.841893 440.563974 
L 442.910933 455.426951 
L 444.927587 438.760092 
L 446.894442 424.922527 
L 448.813898 405.681801 
L 450.688186 393.064963 
L 452.519383 421.597306 
L 454.309426 430.913336 
L 456.060125 438.773041 
L 457.773171 443.939627 
L 459.45015 443.825782 
L 461.09255 418.472588 
L 462.701768 442.905342 
L 464.279118 445.982545 
L 465.825838 443.782101 
L 467.343094 437.853374 
L 468.83199 427.194134 
L 470.293564 392.743598 
L 471.728802 422.22955 
L 473.138637 439.721598 
L 474.523951 449.858344 
L 475.885584 447.796952 
L 477.224331 446.277123 
L 478.540949 430.071694 
L 479.836157 428.49133 
L 481.110642 450.146849 
L 482.365055 474.898556 
L 483.600019 462.899041 
L 484.816127 488.700149 
L 486.013948 469.387264 
L 487.194022 429.125553 
L 488.356869 475.752323 
L 489.502983 478.662749 
L 490.63284 476.81009 
L 491.746894 470.081811 
L 492.845581 451.75242 
L 493.92932 423.243759 
L 494.998512 425.668828 
L 496.053541 441.461085 
L 497.094779 449.838845 
L 498.122582 454.383677 
L 499.137291 455.326957 
L 500.139235 458.160514 
L 501.128734 432.070434 
L 502.10609 463.957313 
L 503.0716 468.458411 
L 504.025546 467.79865 
L 504.968203 473.737564 
L 505.899834 465.628957 
L 506.820695 471.214931 
L 507.731032 458.489464 
L 508.631082 462.239125 
L 509.521075 462.638976 
L 510.401234 464.201832 
L 511.271773 458.856367 
L 512.132901 465.181812 
L 512.984819 458.059777 
L 513.827722 436.926189 
L 514.661799 459.972903 
L 515.487232 466.104289 
L 516.304198 462.622243 
L 517.112871 463.645995 
L 517.913416 461.845262 
L 518.705996 453.745363 
L 519.490766 493.327877 
L 520.26788 484.014315 
L 521.037486 484.387328 
L 521.799727 480.157031 
L 522.554743 469.228783 
L 523.302669 488.442868 
L 524.043638 462.653961 
L 524.777778 468.240419 
L 525.505212 480.289291 
L 526.226064 483.591989 
L 526.940451 484.869327 
L 527.648487 475.07481 
L 528.350285 483.347656 
L 529.045954 473.133937 
L 529.7356 472.22388 
L 530.419326 474.967832 
L 531.097232 472.075663 
L 531.769418 474.20069 
L 532.435979 473.08142 
L 533.097009 471.750337 
L 533.752597 473.398993 
L 534.402834 482.272457 
L 535.047806 475.606437 
L 535.687597 479.522603 
L 536.32229 474.760576 
L 536.951966 492.415058 
L 537.576703 477.559134 
L 538.196578 475.67423 
L 538.811667 465.108439 
L 539.422042 485.982036 
L 540.027776 477.530619 
L 540.628938 477.71743 
L 541.225596 478.747739 
L 541.817819 471.825212 
L 542.405671 487.4975 
L 542.989216 487.192858 
L 543.568517 478.08755 
L 544.143636 481.329971 
L 544.714632 485.597627 
L 545.281563 485.466422 
L 545.844488 471.083514 
L 546.403463 491.711669 
L 546.958543 480.667501 
L 547.509781 472.192845 
L 548.05723 475.726031 
L 548.600942 468.916183 
L 549.140969 491.253744 
L 549.677358 480.008826 
L 550.21016 483.069636 
L 550.739422 478.531061 
L 551.26519 487.809429 
L 551.78751 480.521003 
L 552.306428 485.731151 
L 552.821987 487.546832 
L 553.33423 485.312305 
L 553.8432 476.328467 
L 554.348939 475.985383 
L 554.851487 485.205111 
L 555.350884 488.62465 
L 556.340382 476.690762 
L 556.830559 483.563722 
L 557.317739 480.096879 
L 557.801956 478.502386 
L 558.283248 491.815213 
L 558.76165 485.121246 
L 559.237195 493.248985 
L 559.709918 476.149666 
L 560.179852 485.671502 
L 560.647029 474.011855 
L 561.111483 487.741215 
L 561.573244 489.34182 
L 562.488812 482.551659 
L 563.393976 479.54684 
L 563.84273 496.102129 
L 564.28897 490.843274 
L 564.732723 482.851349 
L 565.174019 484.384794 
L 565.612882 499.845982 
L 566.049341 495.731449 
L 566.483422 477.248552 
L 566.91515 495.170437 
L 567.34455 480.00909 
L 567.771648 484.899993 
L 568.196468 482.547024 
L 568.619034 482.552591 
L 569.039371 488.543029 
L 569.457501 490.152942 
L 569.873447 478.495273 
L 570.287233 508.33322 
L 570.69888 488.324592 
L 571.515847 478.149002 
L 571.921209 482.154803 
L 572.32452 479.087144 
L 572.725798 493.44831 
L 573.125065 488.373715 
L 573.52234 479.120044 
L 574.310996 501.324302 
L 574.702415 485.405006 
L 575.091919 491.535441 
L 575.479529 479.220542 
L 576.249135 488.83172 
L 576.631167 490.688729 
L 577.011376 489.894925 
L 577.389778 491.570624 
L 577.766391 494.55018 
L 578.141232 481.057133 
L 578.514318 498.615977 
L 578.885664 485.340591 
L 579.255287 483.553703 
L 579.623202 479.55896 
L 579.989426 483.551691 
L 580.353974 491.232795 
L 580.716861 483.136589 
L 581.078102 510.631654 
L 581.437713 483.63012 
L 581.795707 495.11988 
L 582.152099 485.383204 
L 582.506904 494.595886 
L 582.860136 490.168623 
L 583.211808 489.495478 
L 583.561934 491.11017 
L 583.910528 501.460511 
L 584.257603 477.679495 
L 584.603172 481.682454 
L 584.947248 494.606721 
L 585.289845 477.424002 
L 585.630974 486.208396 
L 585.970649 484.575289 
L 586.308881 481.080201 
L 586.645683 492.471415 
L 586.981067 479.699366 
L 587.315045 500.258532 
L 587.647628 487.848786 
L 587.978828 487.490566 
L 588.964246 507.519979 
L 589.290028 480.23605 
L 589.614483 484.09171 
L 589.937621 480.990152 
L 590.259454 493.935347 
L 590.579992 519.864858 
L 590.899246 500.406533 
L 591.217224 507.779317 
L 591.533939 487.794595 
L 591.849399 490.073052 
L 592.163614 487.606855 
L 592.476596 482.56064 
L 592.788352 503.676939 
L 593.098892 489.009805 
L 593.408227 491.854938 
L 593.716365 488.705424 
L 594.023315 510.563742 
L 594.329088 488.510612 
L 594.633691 482.93444 
L 594.937133 484.508625 
L 595.239424 487.115141 
L 595.840586 513.68099 
L 596.139474 491.068585 
L 596.437245 487.385457 
L 596.733906 491.344042 
L 597.029467 488.394981 
L 597.617319 494.370257 
L 597.909626 492.049372 
L 598.200864 486.714365 
L 598.491042 493.763886 
L 598.780166 505.373727 
L 599.068244 499.596667 
L 599.355284 484.881997 
L 599.641294 488.273977 
L 599.92628 487.558672 
L 600.21025 495.71242 
L 600.493212 491.388283 
L 600.775172 499.329154 
L 601.056137 482.333855 
L 601.336115 490.04179 
L 601.615112 488.281256 
L 601.893135 503.597308 
L 602.170191 489.386185 
L 602.446287 483.651735 
L 602.721429 486.788087 
L 602.995624 492.478859 
L 603.268878 491.926127 
L 603.541199 489.811242 
L 603.812591 477.966574 
L 604.083062 486.901643 
L 604.352617 505.88876 
L 604.621264 482.949548 
L 604.889007 479.818069 
L 605.155853 526.446924 
L 605.421809 488.847439 
L 605.686879 506.662237 
L 605.95107 492.085311 
L 606.214388 541.762605 
L 606.476838 486.233352 
L 606.738427 499.847976 
L 606.999159 496.094722 
L 607.518076 477.267032 
L 607.776273 521.155536 
L 608.033635 485.156834 
L 608.290169 490.843105 
L 608.545879 480.505244 
L 608.80077 500.021418 
L 609.054849 482.953074 
L 609.308119 489.645984 
L 609.560587 509.946216 
L 609.812258 486.953857 
L 610.063135 489.089466 
L 610.313225 494.158017 
L 610.562532 478.814928 
L 610.811062 495.129163 
L 611.058818 494.66208 
L 611.305806 489.733491 
L 611.55203 500.043104 
L 611.797496 498.950107 
L 612.042208 489.364571 
L 612.529387 513.098943 
L 612.771864 491.33949 
L 613.013605 492.758169 
L 613.254614 503.672168 
L 613.494897 491.065605 
L 613.734457 506.352521 
L 613.973298 493.18055 
L 614.211426 496.425152 
L 614.448843 494.619549 
L 614.685555 504.141712 
L 614.921566 503.452133 
L 615.15688 488.614557 
L 615.3915 485.864394 
L 615.625431 489.831686 
L 615.858678 500.393313 
L 616.091243 496.150843 
L 616.554347 507.66293 
L 617.014773 487.41184 
L 617.243992 505.191774 
L 617.472553 489.466233 
L 617.700461 487.355008 
L 617.927718 492.332105 
L 618.154329 492.909257 
L 618.830318 484.791204 
L 619.054379 485.411456 
L 619.277811 501.5011 
L 619.500618 493.238012 
L 619.722804 490.985887 
L 619.944372 514.113975 
L 620.165325 495.84805 
L 620.385667 491.851447 
L 620.605401 490.133876 
L 620.824531 484.923109 
L 621.043059 496.641851 
L 621.26099 499.04867 
L 621.478326 497.384982 
L 621.69507 497.794621 
L 621.911227 504.694812 
L 622.126798 485.59831 
L 622.341787 490.266248 
L 622.556198 483.559642 
L 622.983296 498.209664 
L 623.195989 486.124813 
L 623.61968 514.104918 
L 623.830683 492.835698 
L 624.041128 501.621057 
L 624.251019 481.971944 
L 624.460358 504.565446 
L 624.669149 499.07013 
L 624.877394 489.151525 
L 625.085096 522.259394 
L 625.292257 485.654761 
L 625.498881 482.868706 
L 625.704971 498.050235 
L 625.910528 489.616265 
L 626.115557 509.180119 
L 626.320059 496.24551 
L 626.524038 504.773957 
L 626.727495 484.615772 
L 626.930435 508.360955 
L 627.132858 513.086353 
L 627.536168 488.684451 
L 627.73706 492.790205 
L 627.937446 506.460332 
L 628.13733 489.524333 
L 628.336713 491.990347 
L 628.535599 475.667358 
L 628.733989 494.04318 
L 628.931886 498.294025 
L 629.129293 492.646495 
L 629.326211 503.002815 
L 629.522644 492.325001 
L 629.718594 498.263718 
L 629.914063 488.224862 
L 630.109054 487.602527 
L 630.303568 489.454718 
L 630.497608 479.679658 
L 630.691177 483.22526 
L 630.884277 505.038746 
L 631.07691 498.556299 
L 631.269078 488.279676 
L 631.460783 497.878531 
L 631.652028 483.625183 
L 631.842815 532.743872 
L 632.033146 490.33708 
L 632.223024 496.421732 
L 632.41245 494.976274 
L 632.601426 488.801697 
L 632.789956 494.007374 
L 632.97804 482.208344 
L 633.165681 494.595383 
L 633.352881 484.400939 
L 633.539642 491.260098 
L 633.725966 489.405572 
L 633.911856 475.794489 
L 634.097312 496.919512 
L 634.282338 498.609177 
L 634.466935 488.925404 
L 634.83485 503.801966 
L 635.018173 480.183127 
L 635.201074 489.134244 
L 635.383557 487.250588 
L 635.565622 482.769364 
L 635.747272 483.647267 
L 635.928509 486.399559 
L 636.109335 531.632102 
L 636.289751 482.6142 
L 636.469759 506.32903 
L 636.649361 473.803464 
L 636.828559 486.005779 
L 637.007355 481.686476 
L 637.185751 535.92554 
L 637.363748 487.876764 
L 637.541348 503.426513 
L 637.895364 479.900002 
L 638.071784 502.642894 
L 638.247814 488.565691 
L 638.423456 492.762241 
L 638.773582 482.410431 
L 638.94807 493.240404 
L 639.122176 517.341998 
L 639.295903 487.071363 
L 639.469251 498.456893 
L 639.642223 481.614199 
L 639.81482 506.748892 
L 639.987044 494.796801 
L 640.158897 520.378223 
L 640.330379 522.211948 
L 640.501493 506.662504 
L 640.67224 501.887091 
L 640.842622 486.261229 
L 641.182297 505.897076 
L 641.520529 471.428845 
L 641.689108 507.433485 
L 641.857331 482.892194 
L 642.0252 482.018561 
L 642.359879 491.437022 
L 642.526693 490.378287 
L 642.693158 499.803736 
L 642.859276 485.760544 
L 643.025049 500.566537 
L 643.190477 488.320458 
L 643.355562 485.257547 
L 643.520306 491.217496 
L 643.684709 486.834451 
L 643.848774 515.588674 
L 644.012502 492.377123 
L 644.175894 494.351276 
L 644.338952 492.195573 
L 644.501676 493.012142 
L 644.664069 500.255824 
L 644.987864 481.49663 
L 645.14927 494.118889 
L 645.310349 486.917535 
L 645.471103 494.036623 
L 645.631533 489.790572 
L 645.791641 499.09659 
L 645.951427 489.15076 
L 646.270042 493.755787 
L 646.428873 499.895396 
L 646.587387 490.931525 
L 646.745587 513.92234 
L 646.903473 513.394836 
L 647.061047 497.574841 
L 647.21831 497.795182 
L 647.375263 502.689992 
L 647.531907 499.477699 
L 647.688244 493.918688 
L 647.844274 495.716154 
L 647.844274 495.716154 
" style="fill:none;stroke:#b22222;stroke-linecap:round;stroke-width:1.75;"/>
   </g>
   <g id="patch_6">
    <path d="M 90 512.64 
L 90 311.04 
" style="fill:none;stroke:#262626;stroke-linecap:square;stroke-linejoin:miter;stroke-width:1.25;"/>
   </g>
   <g id="patch_7">
    <path d="M 90 512.64 
L 648 512.64 
" style="fill:none;stroke:#262626;stroke-linecap:square;stroke-linejoin:miter;stroke-width:1.25;"/>
   </g>
  </g>
 </g>
 <defs>
  <clipPath id="p83fdf343e6">
   <rect height="201.6" width="558" x="90" y="69.12"/>
  </clipPath>
  <clipPath id="p5f604dfa18">
   <rect height="201.6" width="558" x="90" y="311.04"/>
  </clipPath>
 </defs>
</svg>
