<?xml version="1.0" encoding="utf-8" standalone="no"?>
<!DOCTYPE svg PUBLIC "-//W3C//DTD SVG 1.1//EN"
  "http://www.w3.org/Graphics/SVG/1.1/DTD/svg11.dtd">
<!-- Created with matplotlib (http://matplotlib.org/) -->
<svg height="576pt" version="1.1" viewBox="0 0 720 576" width="720pt" xmlns="http://www.w3.org/2000/svg" xmlns:xlink="http://www.w3.org/1999/xlink">
 <defs>
  <style type="text/css">
*{stroke-linecap:butt;stroke-linejoin:round;}
  </style>
 </defs>
 <g id="figure_1">
  <g id="patch_1">
   <path d="M 0 576 
L 720 576 
L 720 0 
L 0 0 
z
" style="fill:#ffffff;"/>
  </g>
  <g id="axes_1">
   <g id="patch_2">
    <path d="M 90 270.72 
L 648 270.72 
L 648 69.12 
L 90 69.12 
z
" style="fill:#ffffff;"/>
   </g>
   <g id="matplotlib.axis_1">
    <g id="xtick_1">
     <g id="line2d_1">
      <defs>
       <path d="M 0 0 
L 0 6 
" id="m6f29f7e3e1" style="stroke:#262626;"/>
      </defs>
      <g>
       <use style="fill:#262626;stroke:#262626;" x="90" xlink:href="#m6f29f7e3e1" y="270.72"/>
      </g>
     </g>
     <g id="text_1">
      <!-- 0 -->
      <defs>
       <path d="M 4.15625 35.296875 
Q 4.15625 48 6.765625 55.734375 
Q 9.375 63.484375 14.515625 67.671875 
Q 19.671875 71.875 27.484375 71.875 
Q 33.25 71.875 37.59375 69.546875 
Q 41.9375 67.234375 44.765625 62.859375 
Q 47.609375 58.5 49.21875 52.21875 
Q 50.828125 45.953125 50.828125 35.296875 
Q 50.828125 22.703125 48.234375 14.96875 
Q 45.65625 7.234375 40.5 3 
Q 35.359375 -1.21875 27.484375 -1.21875 
Q 17.140625 -1.21875 11.234375 6.203125 
Q 4.15625 15.140625 4.15625 35.296875 
z
M 13.1875 35.296875 
Q 13.1875 17.671875 17.3125 11.828125 
Q 21.4375 6 27.484375 6 
Q 33.546875 6 37.671875 11.859375 
Q 41.796875 17.71875 41.796875 35.296875 
Q 41.796875 52.984375 37.671875 58.78125 
Q 33.546875 64.59375 27.390625 64.59375 
Q 21.34375 64.59375 17.71875 59.46875 
Q 13.1875 52.9375 13.1875 35.296875 
z
" id="ArialMT-30"/>
      </defs>
      <g style="fill:#262626;" transform="translate(87.219531 290.877812)scale(0.1 -0.1)">
       <use xlink:href="#ArialMT-30"/>
      </g>
     </g>
    </g>
    <g id="xtick_2">
     <g id="line2d_2">
      <g>
       <use style="fill:#262626;stroke:#262626;" x="198.984375" xlink:href="#m6f29f7e3e1" y="270.72"/>
      </g>
     </g>
     <g id="text_2">
      <!-- 200 -->
      <defs>
       <path d="M 50.34375 8.453125 
L 50.34375 0 
L 3.03125 0 
Q 2.9375 3.171875 4.046875 6.109375 
Q 5.859375 10.9375 9.828125 15.625 
Q 13.8125 20.3125 21.34375 26.46875 
Q 33.015625 36.03125 37.109375 41.625 
Q 41.21875 47.21875 41.21875 52.203125 
Q 41.21875 57.421875 37.46875 61 
Q 33.734375 64.59375 27.734375 64.59375 
Q 21.390625 64.59375 17.578125 60.78125 
Q 13.765625 56.984375 13.71875 50.25 
L 4.6875 51.171875 
Q 5.609375 61.28125 11.65625 66.578125 
Q 17.71875 71.875 27.9375 71.875 
Q 38.234375 71.875 44.234375 66.15625 
Q 50.25 60.453125 50.25 52 
Q 50.25 47.703125 48.484375 43.546875 
Q 46.734375 39.40625 42.65625 34.8125 
Q 38.578125 30.21875 29.109375 22.21875 
Q 21.1875 15.578125 18.9375 13.203125 
Q 16.703125 10.84375 15.234375 8.453125 
z
" id="ArialMT-32"/>
      </defs>
      <g style="fill:#262626;" transform="translate(190.642969 290.877812)scale(0.1 -0.1)">
       <use xlink:href="#ArialMT-32"/>
       <use x="55.615234" xlink:href="#ArialMT-30"/>
       <use x="111.230469" xlink:href="#ArialMT-30"/>
      </g>
     </g>
    </g>
    <g id="xtick_3">
     <g id="line2d_3">
      <g>
       <use style="fill:#262626;stroke:#262626;" x="307.96875" xlink:href="#m6f29f7e3e1" y="270.72"/>
      </g>
     </g>
     <g id="text_3">
      <!-- 400 -->
      <defs>
       <path d="M 32.328125 0 
L 32.328125 17.140625 
L 1.265625 17.140625 
L 1.265625 25.203125 
L 33.9375 71.578125 
L 41.109375 71.578125 
L 41.109375 25.203125 
L 50.78125 25.203125 
L 50.78125 17.140625 
L 41.109375 17.140625 
L 41.109375 0 
z
M 32.328125 25.203125 
L 32.328125 57.46875 
L 9.90625 25.203125 
z
" id="ArialMT-34"/>
      </defs>
      <g style="fill:#262626;" transform="translate(299.627344 290.877812)scale(0.1 -0.1)">
       <use xlink:href="#ArialMT-34"/>
       <use x="55.615234" xlink:href="#ArialMT-30"/>
       <use x="111.230469" xlink:href="#ArialMT-30"/>
      </g>
     </g>
    </g>
    <g id="xtick_4">
     <g id="line2d_4">
      <g>
       <use style="fill:#262626;stroke:#262626;" x="416.953125" xlink:href="#m6f29f7e3e1" y="270.72"/>
      </g>
     </g>
     <g id="text_4">
      <!-- 600 -->
      <defs>
       <path d="M 49.75 54.046875 
L 41.015625 53.375 
Q 39.84375 58.546875 37.703125 60.890625 
Q 34.125 64.65625 28.90625 64.65625 
Q 24.703125 64.65625 21.53125 62.3125 
Q 17.390625 59.28125 14.984375 53.46875 
Q 12.59375 47.65625 12.5 36.921875 
Q 15.671875 41.75 20.265625 44.09375 
Q 24.859375 46.4375 29.890625 46.4375 
Q 38.671875 46.4375 44.84375 39.96875 
Q 51.03125 33.5 51.03125 23.25 
Q 51.03125 16.5 48.125 10.71875 
Q 45.21875 4.9375 40.140625 1.859375 
Q 35.0625 -1.21875 28.609375 -1.21875 
Q 17.625 -1.21875 10.6875 6.859375 
Q 3.765625 14.9375 3.765625 33.5 
Q 3.765625 54.25 11.421875 63.671875 
Q 18.109375 71.875 29.4375 71.875 
Q 37.890625 71.875 43.28125 67.140625 
Q 48.6875 62.40625 49.75 54.046875 
z
M 13.875 23.1875 
Q 13.875 18.65625 15.796875 14.5 
Q 17.71875 10.359375 21.1875 8.171875 
Q 24.65625 6 28.46875 6 
Q 34.03125 6 38.03125 10.484375 
Q 42.046875 14.984375 42.046875 22.703125 
Q 42.046875 30.125 38.078125 34.390625 
Q 34.125 38.671875 28.125 38.671875 
Q 22.171875 38.671875 18.015625 34.390625 
Q 13.875 30.125 13.875 23.1875 
z
" id="ArialMT-36"/>
      </defs>
      <g style="fill:#262626;" transform="translate(408.611719 290.877812)scale(0.1 -0.1)">
       <use xlink:href="#ArialMT-36"/>
       <use x="55.615234" xlink:href="#ArialMT-30"/>
       <use x="111.230469" xlink:href="#ArialMT-30"/>
      </g>
     </g>
    </g>
    <g id="xtick_5">
     <g id="line2d_5">
      <g>
       <use style="fill:#262626;stroke:#262626;" x="525.9375" xlink:href="#m6f29f7e3e1" y="270.72"/>
      </g>
     </g>
     <g id="text_5">
      <!-- 800 -->
      <defs>
       <path d="M 17.671875 38.8125 
Q 12.203125 40.828125 9.5625 44.53125 
Q 6.9375 48.25 6.9375 53.421875 
Q 6.9375 61.234375 12.546875 66.546875 
Q 18.171875 71.875 27.484375 71.875 
Q 36.859375 71.875 42.578125 66.421875 
Q 48.296875 60.984375 48.296875 53.171875 
Q 48.296875 48.1875 45.671875 44.5 
Q 43.0625 40.828125 37.75 38.8125 
Q 44.34375 36.671875 47.78125 31.875 
Q 51.21875 27.09375 51.21875 20.453125 
Q 51.21875 11.28125 44.71875 5.03125 
Q 38.234375 -1.21875 27.640625 -1.21875 
Q 17.046875 -1.21875 10.546875 5.046875 
Q 4.046875 11.328125 4.046875 20.703125 
Q 4.046875 27.6875 7.59375 32.390625 
Q 11.140625 37.109375 17.671875 38.8125 
z
M 15.921875 53.71875 
Q 15.921875 48.640625 19.1875 45.40625 
Q 22.46875 42.1875 27.6875 42.1875 
Q 32.765625 42.1875 36.015625 45.375 
Q 39.265625 48.578125 39.265625 53.21875 
Q 39.265625 58.0625 35.90625 61.359375 
Q 32.5625 64.65625 27.59375 64.65625 
Q 22.5625 64.65625 19.234375 61.421875 
Q 15.921875 58.203125 15.921875 53.71875 
z
M 13.09375 20.65625 
Q 13.09375 16.890625 14.875 13.375 
Q 16.65625 9.859375 20.171875 7.921875 
Q 23.6875 6 27.734375 6 
Q 34.03125 6 38.125 10.046875 
Q 42.234375 14.109375 42.234375 20.359375 
Q 42.234375 26.703125 38.015625 30.859375 
Q 33.796875 35.015625 27.4375 35.015625 
Q 21.234375 35.015625 17.15625 30.90625 
Q 13.09375 26.8125 13.09375 20.65625 
z
" id="ArialMT-38"/>
      </defs>
      <g style="fill:#262626;" transform="translate(517.596094 290.877812)scale(0.1 -0.1)">
       <use xlink:href="#ArialMT-38"/>
       <use x="55.615234" xlink:href="#ArialMT-30"/>
       <use x="111.230469" xlink:href="#ArialMT-30"/>
      </g>
     </g>
    </g>
    <g id="xtick_6">
     <g id="line2d_6">
      <g>
       <use style="fill:#262626;stroke:#262626;" x="634.921875" xlink:href="#m6f29f7e3e1" y="270.72"/>
      </g>
     </g>
     <g id="text_6">
      <!-- 1000 -->
      <defs>
       <path d="M 37.25 0 
L 28.46875 0 
L 28.46875 56 
Q 25.296875 52.984375 20.140625 49.953125 
Q 14.984375 46.921875 10.890625 45.40625 
L 10.890625 53.90625 
Q 18.265625 57.375 23.78125 62.296875 
Q 29.296875 67.234375 31.59375 71.875 
L 37.25 71.875 
z
" id="ArialMT-31"/>
      </defs>
      <g style="fill:#262626;" transform="translate(623.8 290.877812)scale(0.1 -0.1)">
       <use xlink:href="#ArialMT-31"/>
       <use x="55.615234" xlink:href="#ArialMT-30"/>
       <use x="111.230469" xlink:href="#ArialMT-30"/>
       <use x="166.845703" xlink:href="#ArialMT-30"/>
      </g>
     </g>
    </g>
   </g>
   <g id="matplotlib.axis_2">
    <g id="ytick_1">
     <g id="line2d_7">
      <defs>
       <path d="M 0 0 
L -6 0 
" id="md46b4283a1" style="stroke:#262626;"/>
      </defs>
      <g>
       <use style="fill:#262626;stroke:#262626;" x="90" xlink:href="#md46b4283a1" y="270.72"/>
      </g>
     </g>
     <g id="text_7">
      <!-- −0.6 -->
      <defs>
       <path d="M 52.828125 31.203125 
L 5.5625 31.203125 
L 5.5625 39.40625 
L 52.828125 39.40625 
z
" id="ArialMT-2212"/>
       <path d="M 9.078125 0 
L 9.078125 10.015625 
L 19.09375 10.015625 
L 19.09375 0 
z
" id="ArialMT-2e"/>
      </defs>
      <g style="fill:#262626;" transform="translate(57.259375 274.298906)scale(0.1 -0.1)">
       <use xlink:href="#ArialMT-2212"/>
       <use x="58.398438" xlink:href="#ArialMT-30"/>
       <use x="114.013672" xlink:href="#ArialMT-2e"/>
       <use x="141.796875" xlink:href="#ArialMT-36"/>
      </g>
     </g>
    </g>
    <g id="ytick_2">
     <g id="line2d_8">
      <g>
       <use style="fill:#262626;stroke:#262626;" x="90" xlink:href="#md46b4283a1" y="237.12"/>
      </g>
     </g>
     <g id="text_8">
      <!-- −0.4 -->
      <g style="fill:#262626;" transform="translate(57.259375 240.698906)scale(0.1 -0.1)">
       <use xlink:href="#ArialMT-2212"/>
       <use x="58.398438" xlink:href="#ArialMT-30"/>
       <use x="114.013672" xlink:href="#ArialMT-2e"/>
       <use x="141.796875" xlink:href="#ArialMT-34"/>
      </g>
     </g>
    </g>
    <g id="ytick_3">
     <g id="line2d_9">
      <g>
       <use style="fill:#262626;stroke:#262626;" x="90" xlink:href="#md46b4283a1" y="203.52"/>
      </g>
     </g>
     <g id="text_9">
      <!-- −0.2 -->
      <g style="fill:#262626;" transform="translate(57.259375 207.098906)scale(0.1 -0.1)">
       <use xlink:href="#ArialMT-2212"/>
       <use x="58.398438" xlink:href="#ArialMT-30"/>
       <use x="114.013672" xlink:href="#ArialMT-2e"/>
       <use x="141.796875" xlink:href="#ArialMT-32"/>
      </g>
     </g>
    </g>
    <g id="ytick_4">
     <g id="line2d_10">
      <g>
       <use style="fill:#262626;stroke:#262626;" x="90" xlink:href="#md46b4283a1" y="169.92"/>
      </g>
     </g>
     <g id="text_10">
      <!-- 0.0 -->
      <g style="fill:#262626;" transform="translate(63.1 173.498906)scale(0.1 -0.1)">
       <use xlink:href="#ArialMT-30"/>
       <use x="55.615234" xlink:href="#ArialMT-2e"/>
       <use x="83.398438" xlink:href="#ArialMT-30"/>
      </g>
     </g>
    </g>
    <g id="ytick_5">
     <g id="line2d_11">
      <g>
       <use style="fill:#262626;stroke:#262626;" x="90" xlink:href="#md46b4283a1" y="136.32"/>
      </g>
     </g>
     <g id="text_11">
      <!-- 0.2 -->
      <g style="fill:#262626;" transform="translate(63.1 139.898906)scale(0.1 -0.1)">
       <use xlink:href="#ArialMT-30"/>
       <use x="55.615234" xlink:href="#ArialMT-2e"/>
       <use x="83.398438" xlink:href="#ArialMT-32"/>
      </g>
     </g>
    </g>
    <g id="ytick_6">
     <g id="line2d_12">
      <g>
       <use style="fill:#262626;stroke:#262626;" x="90" xlink:href="#md46b4283a1" y="102.72"/>
      </g>
     </g>
     <g id="text_12">
      <!-- 0.4 -->
      <g style="fill:#262626;" transform="translate(63.1 106.298906)scale(0.1 -0.1)">
       <use xlink:href="#ArialMT-30"/>
       <use x="55.615234" xlink:href="#ArialMT-2e"/>
       <use x="83.398438" xlink:href="#ArialMT-34"/>
      </g>
     </g>
    </g>
    <g id="ytick_7">
     <g id="line2d_13">
      <g>
       <use style="fill:#262626;stroke:#262626;" x="90" xlink:href="#md46b4283a1" y="69.12"/>
      </g>
     </g>
     <g id="text_13">
      <!-- 0.6 -->
      <g style="fill:#262626;" transform="translate(63.1 72.698906)scale(0.1 -0.1)">
       <use xlink:href="#ArialMT-30"/>
       <use x="55.615234" xlink:href="#ArialMT-2e"/>
       <use x="83.398438" xlink:href="#ArialMT-36"/>
      </g>
     </g>
    </g>
   </g>
   <g id="line2d_14">
    <path clip-path="url(#pddc3b72907)" d="M 90 177.989824 
L 90.544922 177.984697 
L 92.179688 178.292314 
L 93.269531 177.907793 
L 93.814453 177.436113 
L 95.449219 175.11873 
L 95.994141 173.729326 
L 97.628906 170.648027 
L 98.173828 169.120195 
L 99.808594 165.367266 
L 100.898438 162.875566 
L 101.988281 161.004229 
L 103.078125 159.609697 
L 103.623047 159.286699 
L 104.167969 159.281572 
L 104.712891 159.425127 
L 105.257812 160.065996 
L 106.347656 161.650225 
L 107.4375 164.264971 
L 108.527344 167.382158 
L 109.072266 168.689531 
L 110.162109 170.719805 
L 111.251953 171.904131 
L 111.796875 172.339922 
L 113.976562 175.328936 
L 116.701172 180.097002 
L 117.246094 180.527666 
L 117.791016 180.742998 
L 118.335938 180.578936 
L 118.880859 180.568682 
L 119.425781 179.938066 
L 119.970703 179.599687 
L 121.060547 177.451494 
L 121.605469 176.308184 
L 122.695312 173.216631 
L 124.875 166.21834 
L 127.054688 161.096514 
L 127.599609 160.388994 
L 128.144531 160.122393 
L 128.689453 159.609697 
L 129.234375 159.327715 
L 129.779297 159.317461 
L 130.869141 159.609697 
L 131.414062 159.994219 
L 131.958984 160.624834 
L 133.048828 162.788408 
L 133.59375 164.085527 
L 136.318359 172.591143 
L 136.863281 173.698564 
L 137.408203 175.200762 
L 137.953125 176.092852 
L 138.498047 176.615801 
L 139.042969 176.800371 
L 139.587891 176.277422 
L 140.132812 175.477617 
L 141.222656 172.698809 
L 142.3125 169.258623 
L 143.947266 165.09041 
L 144.492188 163.972734 
L 146.126953 162.270586 
L 146.671875 162.147539 
L 147.761719 160.829912 
L 148.306641 160.322344 
L 148.851562 159.414873 
L 149.396484 158.917559 
L 150.486328 157.533281 
L 151.03125 157.271807 
L 151.576172 156.666826 
L 152.121094 156.333574 
L 152.666016 156.425859 
L 153.210938 156.318193 
L 154.300781 156.984697 
L 155.935547 159.917314 
L 157.025391 162.557695 
L 158.660156 167.915361 
L 160.839844 176.021074 
L 161.929688 179.312578 
L 163.019531 181.404375 
L 163.564453 181.445391 
L 164.109375 181.906816 
L 164.654297 181.54793 
L 165.199219 181.368486 
L 165.744141 180.696855 
L 166.289062 180.425127 
L 167.923828 178.241045 
L 169.558594 174.308672 
L 170.648438 171.104326 
L 171.738281 168.099932 
L 172.283203 167.048906 
L 172.828125 166.643877 
L 173.373047 166.577227 
L 174.462891 167.823076 
L 176.097656 171.591387 
L 177.1875 174.636797 
L 178.277344 177.159258 
L 178.822266 178.307695 
L 179.367188 179.086992 
L 179.912109 180.158525 
L 181.001953 181.645342 
L 182.091797 182.604082 
L 183.181641 182.819414 
L 183.726562 182.814287 
L 184.271484 182.583574 
L 184.816406 182.593828 
L 185.361328 182.434893 
L 186.451172 181.368486 
L 188.085938 178.661455 
L 191.355469 171.360674 
L 191.900391 169.643145 
L 194.080078 164.757158 
L 194.625 163.701006 
L 195.714844 163.229326 
L 196.804688 164.429033 
L 200.619141 170.755693 
L 201.164062 171.360674 
L 201.708984 172.19124 
L 202.253906 172.739824 
L 203.34375 174.585527 
L 207.703125 182.101641 
L 208.248047 182.722002 
L 208.792969 183.562822 
L 209.337891 184.080645 
L 210.427734 184.142168 
L 211.517578 183.557695 
L 212.607422 181.68123 
L 213.152344 180.358477 
L 216.966797 169.07918 
L 219.146484 164.075273 
L 219.691406 163.188311 
L 220.78125 161.804033 
L 221.326172 161.44002 
L 222.960938 161.065752 
L 224.050781 162.275713 
L 224.595703 163.203691 
L 225.685547 165.972246 
L 228.410156 175.621172 
L 229.5 177.61043 
L 230.044922 178.107744 
L 230.589844 177.91292 
L 231.134766 177.318193 
L 232.224609 175.646807 
L 232.769531 174.242021 
L 233.314453 173.165361 
L 234.404297 170.591631 
L 235.494141 168.735674 
L 236.039062 167.720537 
L 236.583984 167.064287 
L 237.128906 166.10042 
L 238.21875 164.798174 
L 238.763672 163.911211 
L 239.308594 163.260088 
L 239.853516 162.326982 
L 240.398438 161.732256 
L 240.943359 160.624834 
L 243.667969 158.030596 
L 244.757812 157.615312 
L 245.847656 157.769121 
L 246.392578 158.045977 
L 246.9375 158.117754 
L 247.482422 159.020098 
L 248.572266 161.429766 
L 250.207031 167.253984 
L 251.841797 173.616533 
L 252.931641 176.815752 
L 254.021484 179.220293 
L 255.111328 181.086504 
L 256.201172 182.404131 
L 257.291016 183.132158 
L 257.835938 182.814287 
L 258.380859 182.291338 
L 258.925781 181.481279 
L 260.560547 176.728594 
L 261.650391 173.180742 
L 262.740234 170.119951 
L 263.285156 169.274004 
L 263.830078 168.874102 
L 264.375 168.028154 
L 264.919922 168.084551 
L 265.464844 168.387041 
L 266.009766 169.007402 
L 267.099609 170.986406 
L 268.734375 174.339434 
L 269.279297 175.636553 
L 269.824219 176.590166 
L 270.914062 178.933184 
L 273.09375 182.4554 
L 273.638672 182.819414 
L 274.183594 183.567949 
L 274.728516 183.93709 
L 275.818359 183.865312 
L 276.363281 183.39876 
L 276.908203 183.152666 
L 279.087891 181.588945 
L 280.722656 178.902422 
L 282.357422 174.595781 
L 282.902344 172.570635 
L 284.537109 167.966631 
L 285.626953 165.91585 
L 286.171875 165.480059 
L 287.261719 165.064775 
L 287.806641 165.623613 
L 288.351562 165.967119 
L 289.986328 167.700029 
L 290.53125 168.586992 
L 291.076172 169.012529 
L 291.621094 170.012285 
L 292.166016 170.658281 
L 292.710938 171.53499 
L 293.255859 172.022051 
L 295.435547 175.395586 
L 295.980469 176.374834 
L 296.525391 177.702715 
L 299.794922 183.81917 
L 300.339844 184.393389 
L 300.884766 185.152178 
L 301.429688 185.511064 
L 301.974609 185.454668 
L 302.519531 185.106035 
L 303.609375 184.147295 
L 304.699219 182.065752 
L 305.789062 179.317705 
L 306.878906 176.108232 
L 307.423828 174.903398 
L 307.96875 173.206377 
L 311.238281 165.490312 
L 312.328125 162.962725 
L 313.962891 160.79915 
L 315.052734 161.055498 
L 315.597656 161.983477 
L 316.142578 163.23958 
L 318.322266 170.755693 
L 318.867188 172.78084 
L 320.501953 176.969561 
L 321.046875 177.789873 
L 322.136719 177.953936 
L 322.681641 177.574541 
L 324.316406 175.682695 
L 324.861328 174.559893 
L 325.40625 173.944658 
L 326.496094 172.057939 
L 327.041016 171.319658 
L 327.585938 170.325029 
L 328.130859 169.597002 
L 329.220703 167.453936 
L 330.855469 164.541826 
L 333.035156 161.896318 
L 333.580078 161.106768 
L 334.125 160.650469 
L 334.669922 159.630205 
L 335.759766 157.974199 
L 336.304688 157.14876 
L 336.849609 156.948809 
L 337.394531 156.533525 
L 338.484375 157.471758 
L 340.119141 161.301592 
L 347.203125 181.922197 
L 348.292969 183.337236 
L 348.837891 183.491045 
L 349.382812 183.209062 
L 349.927734 182.588701 
L 350.472656 181.506914 
L 351.5625 178.646074 
L 352.107422 177.133623 
L 353.197266 173.580645 
L 353.742188 171.847734 
L 354.287109 170.612139 
L 354.832031 169.904619 
L 355.376953 169.002275 
L 356.466797 168.84334 
L 357.011719 168.868975 
L 358.101562 169.489336 
L 358.646484 170.099443 
L 360.28125 172.821855 
L 360.826172 174.175371 
L 361.371094 175.046953 
L 362.460938 177.91292 
L 363.550781 180.055986 
L 364.095703 180.758379 
L 365.185547 181.563311 
L 365.730469 182.111895 
L 366.820312 182.450273 
L 367.910156 183.086016 
L 368.455078 183.578203 
L 370.089844 183.619219 
L 370.634766 182.998857 
L 371.724609 181.271074 
L 372.814453 178.538408 
L 374.994141 171.560625 
L 376.083984 168.884355 
L 377.173828 166.797686 
L 378.808594 165.726152 
L 379.353516 165.833818 
L 379.898438 165.731279 
L 381.533203 166.910479 
L 384.802734 170.950518 
L 386.982422 174.46248 
L 388.617188 177.948809 
L 389.162109 178.835771 
L 389.707031 179.968828 
L 390.251953 181.363359 
L 392.431641 184.77791 
L 392.976562 185.172686 
L 393.521484 185.193193 
L 394.066406 185.100908 
L 394.611328 184.516436 
L 395.15625 184.126787 
L 396.246094 182.219561 
L 396.791016 181.578691 
L 397.335938 180.081621 
L 397.880859 179.471514 
L 400.060547 174.334307 
L 401.150391 171.41707 
L 402.785156 166.331133 
L 403.875 163.049883 
L 404.419922 161.701494 
L 404.964844 160.901689 
L 405.509766 160.404375 
L 406.599609 160.594072 
L 407.144531 161.470781 
L 408.234375 164.321367 
L 409.869141 169.658525 
L 410.958984 172.545 
L 412.048828 174.652178 
L 412.59375 175.185381 
L 413.138672 176.005693 
L 414.228516 176.374834 
L 414.773438 176.410723 
L 416.408203 175.462236 
L 416.953125 174.421465 
L 417.498047 173.765215 
L 419.677734 169.561113 
L 420.767578 167.746172 
L 421.857422 166.628496 
L 422.947266 165.418535 
L 424.582031 162.285967 
L 426.761719 157.548662 
L 427.306641 156.733477 
L 428.396484 155.964434 
L 428.941406 155.815752 
L 429.486328 156.000322 
L 431.121094 157.98958 
L 431.666016 158.794512 
L 433.845703 163.772783 
L 435.480469 169.186846 
L 438.75 180.445635 
L 439.294922 181.696611 
L 440.384766 182.547686 
L 440.929688 182.142656 
L 441.474609 181.342852 
L 442.019531 180.337969 
L 444.199219 174.826494 
L 444.744141 173.170488 
L 446.378906 169.530352 
L 447.46875 167.925615 
L 448.013672 167.197588 
L 449.103516 166.869463 
L 449.648438 167.259111 
L 450.193359 167.894854 
L 450.738281 168.72542 
L 454.007812 175.021318 
L 454.552734 175.631426 
L 455.097656 176.538896 
L 455.642578 176.959307 
L 456.732422 178.220537 
L 457.277344 178.538408 
L 459.457031 181.476152 
L 460.001953 182.137529 
L 460.546875 182.352861 
L 461.091797 182.265703 
L 461.636719 181.973467 
L 462.181641 181.512041 
L 462.726562 180.589189 
L 464.361328 176.759355 
L 467.085938 168.899736 
L 469.265625 164.844316 
L 470.355469 163.670244 
L 470.900391 163.275469 
L 471.445312 163.116533 
L 471.990234 163.495928 
L 472.535156 163.254961 
L 473.080078 163.639482 
L 473.625 163.813799 
L 474.714844 164.951982 
L 475.259766 165.3929 
L 475.804688 165.9825 
L 476.349609 166.254229 
L 476.894531 167.074541 
L 477.439453 167.535967 
L 477.984375 168.325518 
L 478.529297 169.376543 
L 479.074219 170.022539 
L 482.34375 177.800127 
L 482.888672 178.779375 
L 483.978516 180.163652 
L 484.523438 180.548174 
L 486.158203 180.584062 
L 487.248047 179.850908 
L 488.882812 178.21541 
L 489.427734 177.451494 
L 489.972656 177.174639 
L 491.0625 175.128984 
L 492.152344 171.934893 
L 493.787109 165.956865 
L 495.421875 160.230059 
L 495.966797 158.88167 
L 496.511719 158.05623 
L 497.056641 157.651201 
L 497.601562 157.748613 
L 498.146484 158.199785 
L 498.691406 158.845781 
L 499.78125 161.142656 
L 502.505859 167.669268 
L 503.595703 170.468584 
L 505.230469 173.339678 
L 505.775391 173.678057 
L 506.865234 173.580645 
L 507.410156 172.924395 
L 507.955078 172.524492 
L 509.589844 170.330156 
L 510.134766 169.597002 
L 512.314453 167.546221 
L 513.404297 166.110674 
L 514.494141 164.223955 
L 516.673828 159.53792 
L 517.21875 158.204912 
L 518.853516 155.205645 
L 519.943359 154.349443 
L 520.488281 154.082842 
L 521.033203 154.492998 
L 521.578125 154.17 
L 522.123047 154.334062 
L 523.212891 154.995439 
L 524.302734 156.384844 
L 524.847656 157.456377 
L 525.392578 158.809893 
L 527.027344 165.110918 
L 528.662109 172.421953 
L 530.296875 177.682207 
L 531.386719 179.194658 
L 531.931641 179.456133 
L 532.476562 179.589434 
L 533.021484 179.363848 
L 533.566406 178.733232 
L 534.65625 176.831133 
L 535.201172 175.482744 
L 535.746094 174.431719 
L 537.380859 169.771318 
L 537.925781 168.392168 
L 539.015625 166.290117 
L 539.560547 165.941484 
L 540.105469 165.408281 
L 540.650391 165.926104 
L 541.195312 165.93123 
L 542.285156 167.300127 
L 543.375 169.022783 
L 545.009766 171.288896 
L 545.554688 171.724687 
L 548.279297 175.318682 
L 549.369141 177.333574 
L 550.458984 179.302324 
L 551.548828 180.937822 
L 552.09375 180.871172 
L 552.638672 181.414629 
L 553.183594 181.117266 
L 554.818359 178.861406 
L 555.908203 176.692705 
L 558.087891 170.601885 
L 558.632812 169.422686 
L 559.177734 167.930742 
L 560.267578 165.597979 
L 560.8125 164.382891 
L 561.902344 163.157549 
L 562.992188 162.814043 
L 564.082031 163.075518 
L 565.171875 163.05501 
L 565.716797 163.260088 
L 567.896484 164.767412 
L 568.441406 165.249346 
L 570.076172 167.751299 
L 570.621094 168.90999 
L 572.255859 172.985918 
L 572.800781 174.354814 
L 573.345703 175.375078 
L 573.890625 176.708086 
L 574.980469 178.287187 
L 577.160156 179.425371 
L 578.25 179.548418 
L 578.794922 179.799639 
L 579.884766 180.009844 
L 580.429688 179.994463 
L 580.974609 179.615068 
L 582.064453 178.107744 
L 583.154297 174.923906 
L 586.423828 162.998613 
L 587.513672 160.347979 
L 588.058594 159.404619 
L 588.603516 158.779131 
L 590.238281 158.64583 
L 590.783203 159.250811 
L 591.328125 160.107012 
L 592.417969 162.321855 
L 595.142578 170.422441 
L 595.6875 171.658037 
L 596.232422 172.324541 
L 597.322266 173.242266 
L 597.867188 173.232012 
L 599.501953 172.862871 
L 600.046875 172.329668 
L 603.316406 170.612139 
L 604.40625 169.099687 
L 605.496094 167.223223 
L 608.765625 159.763506 
L 609.310547 158.779131 
L 609.855469 158.358721 
L 610.400391 157.405107 
L 611.490234 155.90291 
L 612.035156 155.031328 
L 612.580078 154.703203 
L 613.669922 153.467607 
L 614.759766 153.441973 
L 615.304688 153.990557 
L 615.849609 154.959551 
L 616.394531 156.159258 
L 617.484375 159.701982 
L 619.664062 168.756182 
L 620.753906 172.955156 
L 621.298828 174.877764 
L 622.388672 177.86165 
L 622.933594 178.789629 
L 623.478516 179.466387 
L 624.023438 179.953447 
L 624.568359 179.907305 
L 625.113281 179.635576 
L 626.748047 176.554277 
L 628.927734 170.448076 
L 629.472656 169.07918 
L 630.017578 168.023027 
L 630.5625 167.443682 
L 631.107422 167.038652 
L 631.652344 166.889971 
L 632.197266 166.910479 
L 634.921875 168.602373 
L 637.101562 170.314775 
L 637.646484 170.894121 
L 638.191406 171.637529 
L 639.826172 174.616289 
L 640.916016 177.000322 
L 641.460938 178.189775 
L 642.550781 179.973955 
L 643.095703 180.199541 
L 643.640625 180.707109 
L 644.185547 180.881426 
L 644.730469 180.845537 
L 645.275391 180.630205 
L 645.820312 180.138018 
L 646.365234 179.394609 
L 647.455078 177.092607 
L 647.455078 177.092607 
" style="fill:none;stroke:#4c72b0;stroke-linecap:round;stroke-width:1.75;"/>
   </g>
   <g id="patch_3">
    <path d="M 90 270.72 
L 90 69.12 
" style="fill:none;stroke:#262626;stroke-linecap:square;stroke-linejoin:miter;stroke-width:1.25;"/>
   </g>
   <g id="patch_4">
    <path d="M 90 270.72 
L 648 270.72 
" style="fill:none;stroke:#262626;stroke-linecap:square;stroke-linejoin:miter;stroke-width:1.25;"/>
   </g>
  </g>
  <g id="axes_2">
   <g id="patch_5">
    <path d="M 90 512.64 
L 648 512.64 
L 648 311.04 
L 90 311.04 
z
" style="fill:#ffffff;"/>
   </g>
   <g id="matplotlib.axis_3">
    <g id="xtick_7">
     <g id="line2d_15">
      <g>
       <use style="fill:#262626;stroke:#262626;" x="218.197478" xlink:href="#m6f29f7e3e1" y="512.64"/>
      </g>
     </g>
     <g id="text_14">
      <!-- $\mathdefault{10^{2}}$ -->
      <g style="fill:#262626;" transform="translate(210.347478 535.9525)scale(0.1 -0.1)">
       <use transform="translate(0 0.99375)" xlink:href="#ArialMT-31"/>
       <use transform="translate(55.615234 0.99375)" xlink:href="#ArialMT-30"/>
       <use transform="translate(112.972813 70.6875)scale(0.7)" xlink:href="#ArialMT-32"/>
      </g>
     </g>
    </g>
    <g id="xtick_8">
     <g id="line2d_16">
      <g>
       <use style="fill:#262626;stroke:#262626;" x="401.606604" xlink:href="#m6f29f7e3e1" y="512.64"/>
      </g>
     </g>
     <g id="text_15">
      <!-- $\mathdefault{10^{3}}$ -->
      <defs>
       <path d="M 4.203125 18.890625 
L 12.984375 20.0625 
Q 14.5 12.59375 18.140625 9.296875 
Q 21.78125 6 27 6 
Q 33.203125 6 37.46875 10.296875 
Q 41.75 14.59375 41.75 20.953125 
Q 41.75 27 37.796875 30.921875 
Q 33.84375 34.859375 27.734375 34.859375 
Q 25.25 34.859375 21.53125 33.890625 
L 22.515625 41.609375 
Q 23.390625 41.5 23.921875 41.5 
Q 29.546875 41.5 34.03125 44.421875 
Q 38.53125 47.359375 38.53125 53.46875 
Q 38.53125 58.296875 35.25 61.46875 
Q 31.984375 64.65625 26.8125 64.65625 
Q 21.6875 64.65625 18.265625 61.421875 
Q 14.84375 58.203125 13.875 51.765625 
L 5.078125 53.328125 
Q 6.6875 62.15625 12.390625 67.015625 
Q 18.109375 71.875 26.609375 71.875 
Q 32.46875 71.875 37.390625 69.359375 
Q 42.328125 66.84375 44.9375 62.5 
Q 47.5625 58.15625 47.5625 53.265625 
Q 47.5625 48.640625 45.0625 44.828125 
Q 42.578125 41.015625 37.703125 38.765625 
Q 44.046875 37.3125 47.5625 32.6875 
Q 51.078125 28.078125 51.078125 21.140625 
Q 51.078125 11.765625 44.234375 5.25 
Q 37.40625 -1.265625 26.953125 -1.265625 
Q 17.53125 -1.265625 11.296875 4.34375 
Q 5.078125 9.96875 4.203125 18.890625 
z
" id="ArialMT-33"/>
      </defs>
      <g style="fill:#262626;" transform="translate(393.756604 535.9525)scale(0.1 -0.1)">
       <use transform="translate(0 0.99375)" xlink:href="#ArialMT-31"/>
       <use transform="translate(55.615234 0.99375)" xlink:href="#ArialMT-30"/>
       <use transform="translate(112.972813 70.6875)scale(0.7)" xlink:href="#ArialMT-33"/>
      </g>
     </g>
    </g>
    <g id="xtick_9">
     <g id="line2d_17">
      <g>
       <use style="fill:#262626;stroke:#262626;" x="585.01573" xlink:href="#m6f29f7e3e1" y="512.64"/>
      </g>
     </g>
     <g id="text_16">
      <!-- $\mathdefault{10^{4}}$ -->
      <g style="fill:#262626;" transform="translate(577.16573 535.8525)scale(0.1 -0.1)">
       <use transform="translate(0 0.201563)" xlink:href="#ArialMT-31"/>
       <use transform="translate(55.615234 0.201563)" xlink:href="#ArialMT-30"/>
       <use transform="translate(112.972813 69.895313)scale(0.7)" xlink:href="#ArialMT-34"/>
      </g>
     </g>
    </g>
    <g id="xtick_10">
     <g id="line2d_18">
      <defs>
       <path d="M 0 0 
L 0 3 
" id="mbffacea2e6" style="stroke:#262626;stroke-width:0.5;"/>
      </defs>
      <g>
       <use style="fill:#262626;stroke:#262626;stroke-width:0.5;" x="90" xlink:href="#mbffacea2e6" y="512.64"/>
      </g>
     </g>
    </g>
    <g id="xtick_11">
     <g id="line2d_19">
      <g>
       <use style="fill:#262626;stroke:#262626;stroke-width:0.5;" x="122.296744" xlink:href="#mbffacea2e6" y="512.64"/>
      </g>
     </g>
    </g>
    <g id="xtick_12">
     <g id="line2d_20">
      <g>
       <use style="fill:#262626;stroke:#262626;stroke-width:0.5;" x="145.211648" xlink:href="#mbffacea2e6" y="512.64"/>
      </g>
     </g>
    </g>
    <g id="xtick_13">
     <g id="line2d_21">
      <g>
       <use style="fill:#262626;stroke:#262626;stroke-width:0.5;" x="162.985829" xlink:href="#mbffacea2e6" y="512.64"/>
      </g>
     </g>
    </g>
    <g id="xtick_14">
     <g id="line2d_22">
      <g>
       <use style="fill:#262626;stroke:#262626;stroke-width:0.5;" x="177.508392" xlink:href="#mbffacea2e6" y="512.64"/>
      </g>
     </g>
    </g>
    <g id="xtick_15">
     <g id="line2d_23">
      <g>
       <use style="fill:#262626;stroke:#262626;stroke-width:0.5;" x="189.787045" xlink:href="#mbffacea2e6" y="512.64"/>
      </g>
     </g>
    </g>
    <g id="xtick_16">
     <g id="line2d_24">
      <g>
       <use style="fill:#262626;stroke:#262626;stroke-width:0.5;" x="200.423297" xlink:href="#mbffacea2e6" y="512.64"/>
      </g>
     </g>
    </g>
    <g id="xtick_17">
     <g id="line2d_25">
      <g>
       <use style="fill:#262626;stroke:#262626;stroke-width:0.5;" x="209.805136" xlink:href="#mbffacea2e6" y="512.64"/>
      </g>
     </g>
    </g>
    <g id="xtick_18">
     <g id="line2d_26">
      <g>
       <use style="fill:#262626;stroke:#262626;stroke-width:0.5;" x="273.409126" xlink:href="#mbffacea2e6" y="512.64"/>
      </g>
     </g>
    </g>
    <g id="xtick_19">
     <g id="line2d_27">
      <g>
       <use style="fill:#262626;stroke:#262626;stroke-width:0.5;" x="305.70587" xlink:href="#mbffacea2e6" y="512.64"/>
      </g>
     </g>
    </g>
    <g id="xtick_20">
     <g id="line2d_28">
      <g>
       <use style="fill:#262626;stroke:#262626;stroke-width:0.5;" x="328.620775" xlink:href="#mbffacea2e6" y="512.64"/>
      </g>
     </g>
    </g>
    <g id="xtick_21">
     <g id="line2d_29">
      <g>
       <use style="fill:#262626;stroke:#262626;stroke-width:0.5;" x="346.394955" xlink:href="#mbffacea2e6" y="512.64"/>
      </g>
     </g>
    </g>
    <g id="xtick_22">
     <g id="line2d_30">
      <g>
       <use style="fill:#262626;stroke:#262626;stroke-width:0.5;" x="360.917518" xlink:href="#mbffacea2e6" y="512.64"/>
      </g>
     </g>
    </g>
    <g id="xtick_23">
     <g id="line2d_31">
      <g>
       <use style="fill:#262626;stroke:#262626;stroke-width:0.5;" x="373.196171" xlink:href="#mbffacea2e6" y="512.64"/>
      </g>
     </g>
    </g>
    <g id="xtick_24">
     <g id="line2d_32">
      <g>
       <use style="fill:#262626;stroke:#262626;stroke-width:0.5;" x="383.832423" xlink:href="#mbffacea2e6" y="512.64"/>
      </g>
     </g>
    </g>
    <g id="xtick_25">
     <g id="line2d_33">
      <g>
       <use style="fill:#262626;stroke:#262626;stroke-width:0.5;" x="393.214262" xlink:href="#mbffacea2e6" y="512.64"/>
      </g>
     </g>
    </g>
    <g id="xtick_26">
     <g id="line2d_34">
      <g>
       <use style="fill:#262626;stroke:#262626;stroke-width:0.5;" x="456.818252" xlink:href="#mbffacea2e6" y="512.64"/>
      </g>
     </g>
    </g>
    <g id="xtick_27">
     <g id="line2d_35">
      <g>
       <use style="fill:#262626;stroke:#262626;stroke-width:0.5;" x="489.114996" xlink:href="#mbffacea2e6" y="512.64"/>
      </g>
     </g>
    </g>
    <g id="xtick_28">
     <g id="line2d_36">
      <g>
       <use style="fill:#262626;stroke:#262626;stroke-width:0.5;" x="512.029901" xlink:href="#mbffacea2e6" y="512.64"/>
      </g>
     </g>
    </g>
    <g id="xtick_29">
     <g id="line2d_37">
      <g>
       <use style="fill:#262626;stroke:#262626;stroke-width:0.5;" x="529.804081" xlink:href="#mbffacea2e6" y="512.64"/>
      </g>
     </g>
    </g>
    <g id="xtick_30">
     <g id="line2d_38">
      <g>
       <use style="fill:#262626;stroke:#262626;stroke-width:0.5;" x="544.326645" xlink:href="#mbffacea2e6" y="512.64"/>
      </g>
     </g>
    </g>
    <g id="xtick_31">
     <g id="line2d_39">
      <g>
       <use style="fill:#262626;stroke:#262626;stroke-width:0.5;" x="556.605297" xlink:href="#mbffacea2e6" y="512.64"/>
      </g>
     </g>
    </g>
    <g id="xtick_32">
     <g id="line2d_40">
      <g>
       <use style="fill:#262626;stroke:#262626;stroke-width:0.5;" x="567.241549" xlink:href="#mbffacea2e6" y="512.64"/>
      </g>
     </g>
    </g>
    <g id="xtick_33">
     <g id="line2d_41">
      <g>
       <use style="fill:#262626;stroke:#262626;stroke-width:0.5;" x="576.623389" xlink:href="#mbffacea2e6" y="512.64"/>
      </g>
     </g>
    </g>
    <g id="xtick_34">
     <g id="line2d_42">
      <g>
       <use style="fill:#262626;stroke:#262626;stroke-width:0.5;" x="640.227378" xlink:href="#mbffacea2e6" y="512.64"/>
      </g>
     </g>
    </g>
   </g>
   <g id="matplotlib.axis_4">
    <g id="ytick_8">
     <g id="line2d_43">
      <g>
       <use style="fill:#262626;stroke:#262626;" x="90" xlink:href="#md46b4283a1" y="512.64"/>
      </g>
     </g>
     <g id="text_17">
      <!-- $\mathdefault{10^{-5}}$ -->
      <defs>
       <path d="M 4.15625 18.75 
L 13.375 19.53125 
Q 14.40625 12.796875 18.140625 9.390625 
Q 21.875 6 27.15625 6 
Q 33.5 6 37.890625 10.78125 
Q 42.28125 15.578125 42.28125 23.484375 
Q 42.28125 31 38.0625 35.34375 
Q 33.84375 39.703125 27 39.703125 
Q 22.75 39.703125 19.328125 37.765625 
Q 15.921875 35.84375 13.96875 32.765625 
L 5.71875 33.84375 
L 12.640625 70.609375 
L 48.25 70.609375 
L 48.25 62.203125 
L 19.671875 62.203125 
L 15.828125 42.96875 
Q 22.265625 47.46875 29.34375 47.46875 
Q 38.71875 47.46875 45.15625 40.96875 
Q 51.609375 34.46875 51.609375 24.265625 
Q 51.609375 14.546875 45.953125 7.46875 
Q 39.0625 -1.21875 27.15625 -1.21875 
Q 17.390625 -1.21875 11.203125 4.25 
Q 5.03125 9.71875 4.15625 18.75 
z
" id="ArialMT-35"/>
      </defs>
      <g style="fill:#262626;" transform="translate(57.2 517.74625)scale(0.1 -0.1)">
       <use transform="translate(0 0.879688)" xlink:href="#ArialMT-31"/>
       <use transform="translate(55.615234 0.879688)" xlink:href="#ArialMT-30"/>
       <use transform="translate(112.972813 70.573438)scale(0.7)" xlink:href="#ArialMT-2212"/>
       <use transform="translate(153.851719 70.573438)scale(0.7)" xlink:href="#ArialMT-35"/>
      </g>
     </g>
    </g>
    <g id="ytick_9">
     <g id="line2d_44">
      <g>
       <use style="fill:#262626;stroke:#262626;" x="90" xlink:href="#md46b4283a1" y="465.767507"/>
      </g>
     </g>
     <g id="text_18">
      <!-- $\mathdefault{10^{-4}}$ -->
      <g style="fill:#262626;" transform="translate(57.2 470.873757)scale(0.1 -0.1)">
       <use transform="translate(0 0.201563)" xlink:href="#ArialMT-31"/>
       <use transform="translate(55.615234 0.201563)" xlink:href="#ArialMT-30"/>
       <use transform="translate(112.972813 69.895313)scale(0.7)" xlink:href="#ArialMT-2212"/>
       <use transform="translate(153.851719 69.895313)scale(0.7)" xlink:href="#ArialMT-34"/>
      </g>
     </g>
    </g>
    <g id="ytick_10">
     <g id="line2d_45">
      <g>
       <use style="fill:#262626;stroke:#262626;" x="90" xlink:href="#md46b4283a1" y="418.895013"/>
      </g>
     </g>
     <g id="text_19">
      <!-- $\mathdefault{10^{-3}}$ -->
      <g style="fill:#262626;" transform="translate(57.2 424.051263)scale(0.1 -0.1)">
       <use transform="translate(0 0.99375)" xlink:href="#ArialMT-31"/>
       <use transform="translate(55.615234 0.99375)" xlink:href="#ArialMT-30"/>
       <use transform="translate(112.972813 70.6875)scale(0.7)" xlink:href="#ArialMT-2212"/>
       <use transform="translate(153.851719 70.6875)scale(0.7)" xlink:href="#ArialMT-33"/>
      </g>
     </g>
    </g>
    <g id="ytick_11">
     <g id="line2d_46">
      <g>
       <use style="fill:#262626;stroke:#262626;" x="90" xlink:href="#md46b4283a1" y="372.02252"/>
      </g>
     </g>
     <g id="text_20">
      <!-- $\mathdefault{10^{-2}}$ -->
      <g style="fill:#262626;" transform="translate(57.2 377.17877)scale(0.1 -0.1)">
       <use transform="translate(0 0.99375)" xlink:href="#ArialMT-31"/>
       <use transform="translate(55.615234 0.99375)" xlink:href="#ArialMT-30"/>
       <use transform="translate(112.972813 70.6875)scale(0.7)" xlink:href="#ArialMT-2212"/>
       <use transform="translate(153.851719 70.6875)scale(0.7)" xlink:href="#ArialMT-32"/>
      </g>
     </g>
    </g>
    <g id="ytick_12">
     <g id="line2d_47">
      <g>
       <use style="fill:#262626;stroke:#262626;" x="90" xlink:href="#md46b4283a1" y="325.150026"/>
      </g>
     </g>
     <g id="text_21">
      <!-- $\mathdefault{10^{-1}}$ -->
      <g style="fill:#262626;" transform="translate(57.2 330.306276)scale(0.1 -0.1)">
       <use transform="translate(0 0.99375)" xlink:href="#ArialMT-31"/>
       <use transform="translate(55.615234 0.99375)" xlink:href="#ArialMT-30"/>
       <use transform="translate(112.972813 70.6875)scale(0.7)" xlink:href="#ArialMT-2212"/>
       <use transform="translate(153.851719 70.6875)scale(0.7)" xlink:href="#ArialMT-31"/>
      </g>
     </g>
    </g>
    <g id="ytick_13">
     <g id="line2d_48">
      <defs>
       <path d="M 0 0 
L -3 0 
" id="m8b0bb85d6e" style="stroke:#262626;stroke-width:0.5;"/>
      </defs>
      <g>
       <use style="fill:#262626;stroke:#262626;stroke-width:0.5;" x="90" xlink:href="#m8b0bb85d6e" y="498.529974"/>
      </g>
     </g>
    </g>
    <g id="ytick_14">
     <g id="line2d_49">
      <g>
       <use style="fill:#262626;stroke:#262626;stroke-width:0.5;" x="90" xlink:href="#m8b0bb85d6e" y="490.276137"/>
      </g>
     </g>
    </g>
    <g id="ytick_15">
     <g id="line2d_50">
      <g>
       <use style="fill:#262626;stroke:#262626;stroke-width:0.5;" x="90" xlink:href="#m8b0bb85d6e" y="484.419947"/>
      </g>
     </g>
    </g>
    <g id="ytick_16">
     <g id="line2d_51">
      <g>
       <use style="fill:#262626;stroke:#262626;stroke-width:0.5;" x="90" xlink:href="#m8b0bb85d6e" y="479.877533"/>
      </g>
     </g>
    </g>
    <g id="ytick_17">
     <g id="line2d_52">
      <g>
       <use style="fill:#262626;stroke:#262626;stroke-width:0.5;" x="90" xlink:href="#m8b0bb85d6e" y="476.166111"/>
      </g>
     </g>
    </g>
    <g id="ytick_18">
     <g id="line2d_53">
      <g>
       <use style="fill:#262626;stroke:#262626;stroke-width:0.5;" x="90" xlink:href="#m8b0bb85d6e" y="473.028148"/>
      </g>
     </g>
    </g>
    <g id="ytick_19">
     <g id="line2d_54">
      <g>
       <use style="fill:#262626;stroke:#262626;stroke-width:0.5;" x="90" xlink:href="#m8b0bb85d6e" y="470.309921"/>
      </g>
     </g>
    </g>
    <g id="ytick_20">
     <g id="line2d_55">
      <g>
       <use style="fill:#262626;stroke:#262626;stroke-width:0.5;" x="90" xlink:href="#m8b0bb85d6e" y="467.912274"/>
      </g>
     </g>
    </g>
    <g id="ytick_21">
     <g id="line2d_56">
      <g>
       <use style="fill:#262626;stroke:#262626;stroke-width:0.5;" x="90" xlink:href="#m8b0bb85d6e" y="451.65748"/>
      </g>
     </g>
    </g>
    <g id="ytick_22">
     <g id="line2d_57">
      <g>
       <use style="fill:#262626;stroke:#262626;stroke-width:0.5;" x="90" xlink:href="#m8b0bb85d6e" y="443.403644"/>
      </g>
     </g>
    </g>
    <g id="ytick_23">
     <g id="line2d_58">
      <g>
       <use style="fill:#262626;stroke:#262626;stroke-width:0.5;" x="90" xlink:href="#m8b0bb85d6e" y="437.547454"/>
      </g>
     </g>
    </g>
    <g id="ytick_24">
     <g id="line2d_59">
      <g>
       <use style="fill:#262626;stroke:#262626;stroke-width:0.5;" x="90" xlink:href="#m8b0bb85d6e" y="433.00504"/>
      </g>
     </g>
    </g>
    <g id="ytick_25">
     <g id="line2d_60">
      <g>
       <use style="fill:#262626;stroke:#262626;stroke-width:0.5;" x="90" xlink:href="#m8b0bb85d6e" y="429.293617"/>
      </g>
     </g>
    </g>
    <g id="ytick_26">
     <g id="line2d_61">
      <g>
       <use style="fill:#262626;stroke:#262626;stroke-width:0.5;" x="90" xlink:href="#m8b0bb85d6e" y="426.155654"/>
      </g>
     </g>
    </g>
    <g id="ytick_27">
     <g id="line2d_62">
      <g>
       <use style="fill:#262626;stroke:#262626;stroke-width:0.5;" x="90" xlink:href="#m8b0bb85d6e" y="423.437427"/>
      </g>
     </g>
    </g>
    <g id="ytick_28">
     <g id="line2d_63">
      <g>
       <use style="fill:#262626;stroke:#262626;stroke-width:0.5;" x="90" xlink:href="#m8b0bb85d6e" y="421.039781"/>
      </g>
     </g>
    </g>
    <g id="ytick_29">
     <g id="line2d_64">
      <g>
       <use style="fill:#262626;stroke:#262626;stroke-width:0.5;" x="90" xlink:href="#m8b0bb85d6e" y="404.784987"/>
      </g>
     </g>
    </g>
    <g id="ytick_30">
     <g id="line2d_65">
      <g>
       <use style="fill:#262626;stroke:#262626;stroke-width:0.5;" x="90" xlink:href="#m8b0bb85d6e" y="396.53115"/>
      </g>
     </g>
    </g>
    <g id="ytick_31">
     <g id="line2d_66">
      <g>
       <use style="fill:#262626;stroke:#262626;stroke-width:0.5;" x="90" xlink:href="#m8b0bb85d6e" y="390.67496"/>
      </g>
     </g>
    </g>
    <g id="ytick_32">
     <g id="line2d_67">
      <g>
       <use style="fill:#262626;stroke:#262626;stroke-width:0.5;" x="90" xlink:href="#m8b0bb85d6e" y="386.132546"/>
      </g>
     </g>
    </g>
    <g id="ytick_33">
     <g id="line2d_68">
      <g>
       <use style="fill:#262626;stroke:#262626;stroke-width:0.5;" x="90" xlink:href="#m8b0bb85d6e" y="382.421124"/>
      </g>
     </g>
    </g>
    <g id="ytick_34">
     <g id="line2d_69">
      <g>
       <use style="fill:#262626;stroke:#262626;stroke-width:0.5;" x="90" xlink:href="#m8b0bb85d6e" y="379.283161"/>
      </g>
     </g>
    </g>
    <g id="ytick_35">
     <g id="line2d_70">
      <g>
       <use style="fill:#262626;stroke:#262626;stroke-width:0.5;" x="90" xlink:href="#m8b0bb85d6e" y="376.564934"/>
      </g>
     </g>
    </g>
    <g id="ytick_36">
     <g id="line2d_71">
      <g>
       <use style="fill:#262626;stroke:#262626;stroke-width:0.5;" x="90" xlink:href="#m8b0bb85d6e" y="374.167288"/>
      </g>
     </g>
    </g>
    <g id="ytick_37">
     <g id="line2d_72">
      <g>
       <use style="fill:#262626;stroke:#262626;stroke-width:0.5;" x="90" xlink:href="#m8b0bb85d6e" y="357.912493"/>
      </g>
     </g>
    </g>
    <g id="ytick_38">
     <g id="line2d_73">
      <g>
       <use style="fill:#262626;stroke:#262626;stroke-width:0.5;" x="90" xlink:href="#m8b0bb85d6e" y="349.658657"/>
      </g>
     </g>
    </g>
    <g id="ytick_39">
     <g id="line2d_74">
      <g>
       <use style="fill:#262626;stroke:#262626;stroke-width:0.5;" x="90" xlink:href="#m8b0bb85d6e" y="343.802467"/>
      </g>
     </g>
    </g>
    <g id="ytick_40">
     <g id="line2d_75">
      <g>
       <use style="fill:#262626;stroke:#262626;stroke-width:0.5;" x="90" xlink:href="#m8b0bb85d6e" y="339.260053"/>
      </g>
     </g>
    </g>
    <g id="ytick_41">
     <g id="line2d_76">
      <g>
       <use style="fill:#262626;stroke:#262626;stroke-width:0.5;" x="90" xlink:href="#m8b0bb85d6e" y="335.548631"/>
      </g>
     </g>
    </g>
    <g id="ytick_42">
     <g id="line2d_77">
      <g>
       <use style="fill:#262626;stroke:#262626;stroke-width:0.5;" x="90" xlink:href="#m8b0bb85d6e" y="332.410668"/>
      </g>
     </g>
    </g>
    <g id="ytick_43">
     <g id="line2d_78">
      <g>
       <use style="fill:#262626;stroke:#262626;stroke-width:0.5;" x="90" xlink:href="#m8b0bb85d6e" y="329.69244"/>
      </g>
     </g>
    </g>
    <g id="ytick_44">
     <g id="line2d_79">
      <g>
       <use style="fill:#262626;stroke:#262626;stroke-width:0.5;" x="90" xlink:href="#m8b0bb85d6e" y="327.294794"/>
      </g>
     </g>
    </g>
    <g id="ytick_45">
     <g id="line2d_80">
      <g>
       <use style="fill:#262626;stroke:#262626;stroke-width:0.5;" x="90" xlink:href="#m8b0bb85d6e" y="311.04"/>
      </g>
     </g>
    </g>
   </g>
   <g id="line2d_81">
    <path clip-path="url(#pf848d69edb)" d="M -1 383.25248 
L 151.095164 383.253913 
L 206.306812 426.998045 
L 238.603556 415.144023 
L 261.518461 437.061777 
L 279.292642 411.332442 
L 293.815205 366.165243 
L 306.093857 423.255143 
L 316.730109 444.918008 
L 326.111949 426.513851 
L 334.50429 428.87924 
L 342.096086 417.194236 
L 349.026853 370.520365 
L 355.402541 417.953637 
L 361.305505 425.544641 
L 366.801034 425.500401 
L 371.941758 426.045234 
L 376.770725 424.252628 
L 381.323597 385.779207 
L 385.630245 405.016608 
L 389.715939 409.437554 
L 393.602249 405.056049 
L 397.307735 398.624771 
L 400.848476 388.1605 
L 404.238502 354.627757 
L 407.490119 379.727932 
L 410.614189 396.896036 
L 413.620341 406.244856 
L 416.517154 412.384192 
L 419.312303 413.90433 
L 422.012683 394.126897 
L 424.624509 409.774466 
L 427.153406 423.460512 
L 429.604479 427.887561 
L 431.982374 431.62772 
L 434.291335 421.882393 
L 436.535246 396.274036 
L 438.717672 394.547373 
L 440.841893 410.839906 
L 442.910933 417.432487 
L 444.927587 417.746799 
L 446.894442 415.534391 
L 448.813898 402.176823 
L 450.688186 399.56331 
L 452.519383 430.513412 
L 454.309426 446.468615 
L 456.060125 457.072808 
L 457.773171 471.501513 
L 459.45015 466.44968 
L 461.09255 422.747924 
L 462.701768 446.275789 
L 464.279118 454.847341 
L 465.825838 449.537594 
L 467.343094 447.83055 
L 468.83199 438.893054 
L 470.293564 401.878971 
L 471.728802 429.486642 
L 473.138637 443.857087 
L 474.523951 448.39463 
L 475.885584 446.694946 
L 477.224331 449.978248 
L 478.540949 440.940401 
L 479.836157 438.833041 
L 481.110642 456.618773 
L 482.365055 451.74174 
L 483.600019 456.231801 
L 484.816127 455.488305 
L 486.013948 458.739111 
L 487.194022 448.508282 
L 488.356869 456.246278 
L 489.502983 451.945903 
L 490.63284 450.965299 
L 491.746894 447.535583 
L 492.845581 439.384033 
L 493.92932 419.610266 
L 494.998512 428.409736 
L 496.053541 454.378591 
L 498.122582 483.906934 
L 499.137291 501.085015 
L 500.139235 482.281606 
L 501.128734 445.693536 
L 502.10609 484.122603 
L 503.0716 505.079546 
L 504.025546 492.24847 
L 504.968203 509.821249 
L 505.899834 486.434832 
L 506.820695 476.438579 
L 507.731032 457.812099 
L 508.631082 476.034282 
L 509.521075 480.765155 
L 510.401234 486.553463 
L 511.271773 469.887295 
L 512.132901 472.020178 
L 512.984819 457.50505 
L 513.827722 446.803011 
L 514.661799 471.292293 
L 515.487232 487.37253 
L 516.304198 499.922482 
L 517.112871 491.703932 
L 517.913416 487.234294 
L 518.705996 468.790901 
L 520.26788 499.415002 
L 521.037486 494.661502 
L 521.799727 499.671784 
L 522.554743 493.032771 
L 523.302669 497.912551 
L 524.043638 474.727002 
L 524.777778 494.749705 
L 525.505212 501.643238 
L 526.226064 487.74916 
L 526.940451 490.381308 
L 527.648487 496.148386 
L 528.350285 540.979979 
L 529.045954 488.415126 
L 529.7356 512.237622 
L 530.419326 496.116221 
L 531.097232 497.552827 
L 531.769418 499.578225 
L 532.435979 494.152032 
L 533.097009 491.393772 
L 533.752597 504.333025 
L 534.402834 477.436678 
L 535.047806 492.816528 
L 535.687597 519.856676 
L 536.32229 529.876503 
L 536.951966 491.948934 
L 537.576703 500.736313 
L 538.196578 493.713738 
L 538.811667 478.757331 
L 539.422042 481.082804 
L 540.027776 517.854574 
L 540.628938 481.964872 
L 541.225596 501.111927 
L 541.817819 514.844003 
L 542.405671 494.942935 
L 542.989216 490.26783 
L 543.568517 505.371735 
L 544.143636 524.475609 
L 544.714632 493.931413 
L 545.281563 486.618868 
L 545.844488 491.364774 
L 546.403463 492.263132 
L 546.958543 483.942744 
L 547.509781 470.601904 
L 548.05723 502.040219 
L 548.600942 500.552658 
L 549.140969 494.95874 
L 549.677358 490.996422 
L 550.21016 511.105775 
L 550.739422 483.572538 
L 551.26519 498.114596 
L 551.78751 503.647425 
L 552.306428 496.159682 
L 552.821987 484.891927 
L 553.33423 488.034494 
L 553.8432 510.832982 
L 554.348939 476.164631 
L 554.851487 520.460917 
L 555.350884 496.403092 
L 555.847169 499.704762 
L 556.340382 493.259302 
L 556.830559 503.134702 
L 557.317739 504.840551 
L 557.801956 497.101526 
L 558.283248 508.252129 
L 558.76165 507.961627 
L 559.237195 499.112898 
L 559.709918 493.867875 
L 560.179852 491.474084 
L 560.647029 521.471663 
L 561.111483 492.926157 
L 561.573244 498.133022 
L 562.488812 512.66685 
L 562.94268 519.618797 
L 563.393976 528.559458 
L 563.84273 502.13324 
L 564.28897 511.634816 
L 564.732723 482.336715 
L 565.174019 512.193519 
L 565.612882 501.994008 
L 566.049341 496.112325 
L 566.483422 505.175848 
L 566.91515 494.976768 
L 567.34455 528.978591 
L 567.771648 488.623858 
L 568.196468 487.603653 
L 568.619034 513.636769 
L 569.039371 516.67436 
L 569.457501 512.897515 
L 569.873447 500.388083 
L 570.287233 504.071564 
L 570.69888 509.261116 
L 571.108411 500.304467 
L 571.515847 495.721947 
L 571.921209 498.037429 
L 572.32452 527.125935 
L 572.725798 522.29593 
L 573.125065 507.373035 
L 573.917644 494.088288 
L 574.310996 512.654492 
L 574.702415 513.618277 
L 575.091919 506.052301 
L 575.479529 510.354628 
L 575.865261 502.444119 
L 576.249135 532.411409 
L 576.631167 501.834861 
L 577.011376 504.666785 
L 577.389778 503.425104 
L 577.766391 492.164713 
L 578.141232 524.846572 
L 578.514318 488.129138 
L 579.255287 503.785461 
L 579.623202 508.621607 
L 579.989426 498.769379 
L 580.353974 482.045804 
L 580.716861 527.805056 
L 581.078102 495.331258 
L 581.437713 493.643343 
L 581.795707 498.131254 
L 582.152099 524.377577 
L 582.506904 499.532921 
L 582.860136 519.755282 
L 583.211808 496.75243 
L 583.561934 494.27234 
L 583.910528 530.101406 
L 584.257603 506.297891 
L 584.603172 500.786435 
L 584.947248 499.826822 
L 585.289845 496.751197 
L 585.630974 502.416677 
L 585.970649 491.119647 
L 586.308881 515.423376 
L 586.645683 514.515337 
L 586.981067 500.096995 
L 587.315045 518.688428 
L 587.647628 526.488032 
L 587.978828 501.646287 
L 588.283921 577 
M 588.351778 577 
L 588.637126 536.570105 
L 588.964246 532.434636 
L 589.290028 499.924164 
L 589.614483 505.530073 
L 589.937621 502.892672 
L 590.259454 558.116892 
L 590.579992 501.305705 
L 590.899246 507.225542 
L 591.217224 493.355922 
L 591.533939 491.403734 
L 591.849399 495.289699 
L 592.163614 494.956855 
L 592.476596 518.17362 
L 592.788352 521.575161 
L 593.098892 493.946254 
L 593.408227 510.168341 
L 593.716365 502.692488 
L 594.023315 512.63758 
L 594.329088 509.089709 
L 594.633691 513.518907 
L 594.937133 506.554937 
L 595.239424 492.858396 
L 595.540572 489.733519 
L 595.840586 504.702082 
L 596.139474 488.746852 
L 596.437245 492.201028 
L 596.733906 538.323888 
L 597.029467 515.317069 
L 597.323936 522.082781 
L 597.617319 492.892783 
L 597.909626 517.010703 
L 598.200864 503.075605 
L 598.491042 498.83591 
L 598.780166 485.734884 
L 599.068244 506.720843 
L 599.355284 509.215954 
L 599.641294 494.350805 
L 599.92628 507.964284 
L 600.21025 493.898318 
L 600.493212 502.713163 
L 600.775172 505.167509 
L 601.056137 504.290457 
L 601.336115 494.592922 
L 601.615112 496.905853 
L 601.893135 502.740728 
L 602.170191 499.104258 
L 602.446287 491.382393 
L 602.721429 492.262183 
L 602.995624 519.836542 
L 603.268878 513.245433 
L 603.541199 491.791206 
L 603.812591 508.760965 
L 604.083062 506.800117 
L 604.352617 492.158338 
L 604.889007 500.703922 
L 605.155853 528.389981 
L 605.421809 494.293663 
L 605.95107 518.041363 
L 606.214388 489.586406 
L 606.476838 517.013364 
L 606.738427 498.244819 
L 606.999159 494.935866 
L 607.25904 499.499928 
L 607.518076 494.642336 
L 607.776273 503.941806 
L 608.033635 504.951294 
L 608.290169 509.143154 
L 608.545879 507.686224 
L 609.054849 493.990211 
L 609.308119 492.075198 
L 609.560587 511.014819 
L 609.812258 517.609658 
L 610.063135 495.394581 
L 610.313225 493.546276 
L 610.562532 509.489577 
L 610.811062 517.28393 
L 611.058818 490.248422 
L 611.305806 502.587555 
L 611.55203 532.738087 
L 611.797496 540.025129 
L 612.042208 516.467814 
L 612.28617 509.848225 
L 612.529387 516.134581 
L 612.771864 526.595295 
L 613.013605 494.526926 
L 613.254614 530.063785 
L 613.494897 490.436956 
L 613.734457 515.654705 
L 613.973298 516.190536 
L 614.211426 517.265784 
L 614.448843 497.707122 
L 614.685555 506.622887 
L 614.921566 507.193037 
L 615.15688 501.370541 
L 615.3915 510.750721 
L 615.625431 496.202674 
L 615.858678 549.813066 
L 616.323131 502.120002 
L 616.554347 492.249808 
L 616.784892 496.891445 
L 617.014773 489.335876 
L 617.243992 525.076466 
L 617.472553 530.834534 
L 617.927718 497.917399 
L 618.154329 502.586838 
L 618.380296 503.370963 
L 618.605625 517.327477 
L 618.830318 485.181082 
L 619.054379 496.23886 
L 619.277811 517.491919 
L 619.500618 511.015915 
L 619.722804 499.151893 
L 619.944372 507.582115 
L 620.165325 485.857098 
L 620.385667 486.596949 
L 620.605401 494.055216 
L 620.824531 483.146171 
L 621.26099 501.583645 
L 621.478326 503.96076 
L 621.69507 489.809229 
L 622.341787 523.084964 
L 622.556198 495.939923 
L 622.770034 491.663956 
L 622.983296 502.033132 
L 623.195989 491.967642 
L 623.408116 503.584877 
L 623.61968 506.56901 
L 623.830683 501.325778 
L 624.041128 518.100078 
L 624.251019 506.500287 
L 624.460358 510.094052 
L 624.669149 502.786338 
L 624.877394 491.253181 
L 625.085096 536.064019 
L 625.292257 510.182509 
L 625.498881 515.795968 
L 625.704971 495.33443 
L 625.910528 507.75076 
L 626.115557 512.316606 
L 626.320059 503.205718 
L 626.524038 532.152173 
L 626.930435 488.873475 
L 627.132858 495.08065 
L 627.334768 510.17258 
L 627.536168 500.889173 
L 627.937446 513.417324 
L 628.336713 483.747284 
L 628.535599 489.445192 
L 629.129293 522.761845 
L 629.326211 491.532367 
L 629.522644 509.481244 
L 629.718594 498.094416 
L 629.914063 506.738821 
L 630.303568 503.385115 
L 630.497608 489.53723 
L 630.691177 488.584158 
L 630.884277 491.268598 
L 631.07691 531.168891 
L 631.269078 490.991177 
L 631.460783 501.538782 
L 631.652028 556.229146 
L 631.842815 485.818597 
L 632.223024 503.985079 
L 632.41245 490.90884 
L 632.601426 491.229347 
L 632.789956 495.221951 
L 632.97804 495.241481 
L 633.165681 502.200246 
L 633.352881 497.970955 
L 633.539642 520.479428 
L 633.725966 508.516521 
L 633.911856 487.604047 
L 634.097312 483.92166 
L 634.282338 485.965017 
L 634.466935 510.773938 
L 634.651105 500.544187 
L 635.018173 512.871765 
L 635.201074 524.915574 
L 635.383557 488.588394 
L 635.747272 507.180541 
L 635.928509 503.631228 
L 636.109335 550.210464 
L 636.469759 506.894844 
L 636.828559 488.936934 
L 637.007355 492.525849 
L 637.363748 510.45096 
L 637.541348 511.503308 
L 637.718553 523.275348 
L 637.895364 510.365415 
L 638.071784 519.315366 
L 638.247814 501.314299 
L 638.423456 497.084053 
L 638.598712 506.72305 
L 638.94807 484.118169 
L 639.122176 525.904298 
L 639.295903 490.332389 
L 639.469251 490.208618 
L 639.642223 486.565122 
L 639.81482 520.804154 
L 639.987044 492.805792 
L 640.158897 508.000175 
L 640.330379 500.519406 
L 640.501493 528.041675 
L 640.67224 521.471066 
L 640.842622 489.159075 
L 641.012641 515.682015 
L 641.182297 493.686965 
L 641.351593 510.264715 
L 641.689108 490.899998 
L 641.857331 509.13994 
L 642.0252 511.912668 
L 642.192715 529.176553 
L 642.359879 487.368011 
L 642.526693 531.992399 
L 642.859276 520.820251 
L 643.025049 538.345803 
L 643.190477 492.93048 
L 643.355562 497.797016 
L 643.520306 494.363149 
L 643.684709 496.692546 
L 643.848774 504.401729 
L 644.012502 492.046347 
L 644.175894 520.658337 
L 644.338952 502.842183 
L 644.501676 502.751967 
L 644.664069 491.102025 
L 644.826131 504.173927 
L 644.987864 502.217429 
L 645.14927 537.470895 
L 645.310349 499.357118 
L 645.471103 517.588743 
L 645.631533 494.63652 
L 645.791641 488.68971 
L 645.951427 508.513816 
L 646.110894 506.847286 
L 646.270042 523.027065 
L 646.428873 518.116415 
L 646.587387 508.555809 
L 646.745587 491.619123 
L 646.903473 497.207734 
L 647.061047 531.539123 
L 647.375263 497.980434 
L 647.531907 520.248722 
L 647.688244 518.155255 
L 647.844274 524.538914 
L 647.844274 524.538914 
" style="fill:none;stroke:#b22222;stroke-linecap:round;stroke-width:1.75;"/>
   </g>
   <g id="patch_6">
    <path d="M 90 512.64 
L 90 311.04 
" style="fill:none;stroke:#262626;stroke-linecap:square;stroke-linejoin:miter;stroke-width:1.25;"/>
   </g>
   <g id="patch_7">
    <path d="M 90 512.64 
L 648 512.64 
" style="fill:none;stroke:#262626;stroke-linecap:square;stroke-linejoin:miter;stroke-width:1.25;"/>
   </g>
  </g>
 </g>
 <defs>
  <clipPath id="pddc3b72907">
   <rect height="201.6" width="558" x="90" y="69.12"/>
  </clipPath>
  <clipPath id="pf848d69edb">
   <rect height="201.6" width="558" x="90" y="311.04"/>
  </clipPath>
 </defs>
</svg>
