<?xml version="1.0" encoding="utf-8" standalone="no"?>
<!DOCTYPE svg PUBLIC "-//W3C//DTD SVG 1.1//EN"
  "http://www.w3.org/Graphics/SVG/1.1/DTD/svg11.dtd">
<!-- Created with matplotlib (http://matplotlib.org/) -->
<svg height="576pt" version="1.1" viewBox="0 0 720 576" width="720pt" xmlns="http://www.w3.org/2000/svg" xmlns:xlink="http://www.w3.org/1999/xlink">
 <defs>
  <style type="text/css">
*{stroke-linecap:butt;stroke-linejoin:round;}
  </style>
 </defs>
 <g id="figure_1">
  <g id="patch_1">
   <path d="M 0 576 
L 720 576 
L 720 0 
L 0 0 
z
" style="fill:#ffffff;"/>
  </g>
  <g id="axes_1">
   <g id="patch_2">
    <path d="M 90 270.72 
L 648 270.72 
L 648 69.12 
L 90 69.12 
z
" style="fill:#ffffff;"/>
   </g>
   <g id="matplotlib.axis_1">
    <g id="xtick_1">
     <g id="line2d_1">
      <defs>
       <path d="M 0 0 
L 0 6 
" id="m5d6f17d026" style="stroke:#262626;"/>
      </defs>
      <g>
       <use style="fill:#262626;stroke:#262626;" x="90" xlink:href="#m5d6f17d026" y="270.72"/>
      </g>
     </g>
     <g id="text_1">
      <!-- 0 -->
      <defs>
       <path d="M 4.15625 35.296875 
Q 4.15625 48 6.765625 55.734375 
Q 9.375 63.484375 14.515625 67.671875 
Q 19.671875 71.875 27.484375 71.875 
Q 33.25 71.875 37.59375 69.546875 
Q 41.9375 67.234375 44.765625 62.859375 
Q 47.609375 58.5 49.21875 52.21875 
Q 50.828125 45.953125 50.828125 35.296875 
Q 50.828125 22.703125 48.234375 14.96875 
Q 45.65625 7.234375 40.5 3 
Q 35.359375 -1.21875 27.484375 -1.21875 
Q 17.140625 -1.21875 11.234375 6.203125 
Q 4.15625 15.140625 4.15625 35.296875 
z
M 13.1875 35.296875 
Q 13.1875 17.671875 17.3125 11.828125 
Q 21.4375 6 27.484375 6 
Q 33.546875 6 37.671875 11.859375 
Q 41.796875 17.71875 41.796875 35.296875 
Q 41.796875 52.984375 37.671875 58.78125 
Q 33.546875 64.59375 27.390625 64.59375 
Q 21.34375 64.59375 17.71875 59.46875 
Q 13.1875 52.9375 13.1875 35.296875 
z
" id="ArialMT-30"/>
      </defs>
      <g style="fill:#262626;" transform="translate(87.219531 290.877812)scale(0.1 -0.1)">
       <use xlink:href="#ArialMT-30"/>
      </g>
     </g>
    </g>
    <g id="xtick_2">
     <g id="line2d_2">
      <g>
       <use style="fill:#262626;stroke:#262626;" x="198.984375" xlink:href="#m5d6f17d026" y="270.72"/>
      </g>
     </g>
     <g id="text_2">
      <!-- 200 -->
      <defs>
       <path d="M 50.34375 8.453125 
L 50.34375 0 
L 3.03125 0 
Q 2.9375 3.171875 4.046875 6.109375 
Q 5.859375 10.9375 9.828125 15.625 
Q 13.8125 20.3125 21.34375 26.46875 
Q 33.015625 36.03125 37.109375 41.625 
Q 41.21875 47.21875 41.21875 52.203125 
Q 41.21875 57.421875 37.46875 61 
Q 33.734375 64.59375 27.734375 64.59375 
Q 21.390625 64.59375 17.578125 60.78125 
Q 13.765625 56.984375 13.71875 50.25 
L 4.6875 51.171875 
Q 5.609375 61.28125 11.65625 66.578125 
Q 17.71875 71.875 27.9375 71.875 
Q 38.234375 71.875 44.234375 66.15625 
Q 50.25 60.453125 50.25 52 
Q 50.25 47.703125 48.484375 43.546875 
Q 46.734375 39.40625 42.65625 34.8125 
Q 38.578125 30.21875 29.109375 22.21875 
Q 21.1875 15.578125 18.9375 13.203125 
Q 16.703125 10.84375 15.234375 8.453125 
z
" id="ArialMT-32"/>
      </defs>
      <g style="fill:#262626;" transform="translate(190.642969 290.877812)scale(0.1 -0.1)">
       <use xlink:href="#ArialMT-32"/>
       <use x="55.615234" xlink:href="#ArialMT-30"/>
       <use x="111.230469" xlink:href="#ArialMT-30"/>
      </g>
     </g>
    </g>
    <g id="xtick_3">
     <g id="line2d_3">
      <g>
       <use style="fill:#262626;stroke:#262626;" x="307.96875" xlink:href="#m5d6f17d026" y="270.72"/>
      </g>
     </g>
     <g id="text_3">
      <!-- 400 -->
      <defs>
       <path d="M 32.328125 0 
L 32.328125 17.140625 
L 1.265625 17.140625 
L 1.265625 25.203125 
L 33.9375 71.578125 
L 41.109375 71.578125 
L 41.109375 25.203125 
L 50.78125 25.203125 
L 50.78125 17.140625 
L 41.109375 17.140625 
L 41.109375 0 
z
M 32.328125 25.203125 
L 32.328125 57.46875 
L 9.90625 25.203125 
z
" id="ArialMT-34"/>
      </defs>
      <g style="fill:#262626;" transform="translate(299.627344 290.877812)scale(0.1 -0.1)">
       <use xlink:href="#ArialMT-34"/>
       <use x="55.615234" xlink:href="#ArialMT-30"/>
       <use x="111.230469" xlink:href="#ArialMT-30"/>
      </g>
     </g>
    </g>
    <g id="xtick_4">
     <g id="line2d_4">
      <g>
       <use style="fill:#262626;stroke:#262626;" x="416.953125" xlink:href="#m5d6f17d026" y="270.72"/>
      </g>
     </g>
     <g id="text_4">
      <!-- 600 -->
      <defs>
       <path d="M 49.75 54.046875 
L 41.015625 53.375 
Q 39.84375 58.546875 37.703125 60.890625 
Q 34.125 64.65625 28.90625 64.65625 
Q 24.703125 64.65625 21.53125 62.3125 
Q 17.390625 59.28125 14.984375 53.46875 
Q 12.59375 47.65625 12.5 36.921875 
Q 15.671875 41.75 20.265625 44.09375 
Q 24.859375 46.4375 29.890625 46.4375 
Q 38.671875 46.4375 44.84375 39.96875 
Q 51.03125 33.5 51.03125 23.25 
Q 51.03125 16.5 48.125 10.71875 
Q 45.21875 4.9375 40.140625 1.859375 
Q 35.0625 -1.21875 28.609375 -1.21875 
Q 17.625 -1.21875 10.6875 6.859375 
Q 3.765625 14.9375 3.765625 33.5 
Q 3.765625 54.25 11.421875 63.671875 
Q 18.109375 71.875 29.4375 71.875 
Q 37.890625 71.875 43.28125 67.140625 
Q 48.6875 62.40625 49.75 54.046875 
z
M 13.875 23.1875 
Q 13.875 18.65625 15.796875 14.5 
Q 17.71875 10.359375 21.1875 8.171875 
Q 24.65625 6 28.46875 6 
Q 34.03125 6 38.03125 10.484375 
Q 42.046875 14.984375 42.046875 22.703125 
Q 42.046875 30.125 38.078125 34.390625 
Q 34.125 38.671875 28.125 38.671875 
Q 22.171875 38.671875 18.015625 34.390625 
Q 13.875 30.125 13.875 23.1875 
z
" id="ArialMT-36"/>
      </defs>
      <g style="fill:#262626;" transform="translate(408.611719 290.877812)scale(0.1 -0.1)">
       <use xlink:href="#ArialMT-36"/>
       <use x="55.615234" xlink:href="#ArialMT-30"/>
       <use x="111.230469" xlink:href="#ArialMT-30"/>
      </g>
     </g>
    </g>
    <g id="xtick_5">
     <g id="line2d_5">
      <g>
       <use style="fill:#262626;stroke:#262626;" x="525.9375" xlink:href="#m5d6f17d026" y="270.72"/>
      </g>
     </g>
     <g id="text_5">
      <!-- 800 -->
      <defs>
       <path d="M 17.671875 38.8125 
Q 12.203125 40.828125 9.5625 44.53125 
Q 6.9375 48.25 6.9375 53.421875 
Q 6.9375 61.234375 12.546875 66.546875 
Q 18.171875 71.875 27.484375 71.875 
Q 36.859375 71.875 42.578125 66.421875 
Q 48.296875 60.984375 48.296875 53.171875 
Q 48.296875 48.1875 45.671875 44.5 
Q 43.0625 40.828125 37.75 38.8125 
Q 44.34375 36.671875 47.78125 31.875 
Q 51.21875 27.09375 51.21875 20.453125 
Q 51.21875 11.28125 44.71875 5.03125 
Q 38.234375 -1.21875 27.640625 -1.21875 
Q 17.046875 -1.21875 10.546875 5.046875 
Q 4.046875 11.328125 4.046875 20.703125 
Q 4.046875 27.6875 7.59375 32.390625 
Q 11.140625 37.109375 17.671875 38.8125 
z
M 15.921875 53.71875 
Q 15.921875 48.640625 19.1875 45.40625 
Q 22.46875 42.1875 27.6875 42.1875 
Q 32.765625 42.1875 36.015625 45.375 
Q 39.265625 48.578125 39.265625 53.21875 
Q 39.265625 58.0625 35.90625 61.359375 
Q 32.5625 64.65625 27.59375 64.65625 
Q 22.5625 64.65625 19.234375 61.421875 
Q 15.921875 58.203125 15.921875 53.71875 
z
M 13.09375 20.65625 
Q 13.09375 16.890625 14.875 13.375 
Q 16.65625 9.859375 20.171875 7.921875 
Q 23.6875 6 27.734375 6 
Q 34.03125 6 38.125 10.046875 
Q 42.234375 14.109375 42.234375 20.359375 
Q 42.234375 26.703125 38.015625 30.859375 
Q 33.796875 35.015625 27.4375 35.015625 
Q 21.234375 35.015625 17.15625 30.90625 
Q 13.09375 26.8125 13.09375 20.65625 
z
" id="ArialMT-38"/>
      </defs>
      <g style="fill:#262626;" transform="translate(517.596094 290.877812)scale(0.1 -0.1)">
       <use xlink:href="#ArialMT-38"/>
       <use x="55.615234" xlink:href="#ArialMT-30"/>
       <use x="111.230469" xlink:href="#ArialMT-30"/>
      </g>
     </g>
    </g>
    <g id="xtick_6">
     <g id="line2d_6">
      <g>
       <use style="fill:#262626;stroke:#262626;" x="634.921875" xlink:href="#m5d6f17d026" y="270.72"/>
      </g>
     </g>
     <g id="text_6">
      <!-- 1000 -->
      <defs>
       <path d="M 37.25 0 
L 28.46875 0 
L 28.46875 56 
Q 25.296875 52.984375 20.140625 49.953125 
Q 14.984375 46.921875 10.890625 45.40625 
L 10.890625 53.90625 
Q 18.265625 57.375 23.78125 62.296875 
Q 29.296875 67.234375 31.59375 71.875 
L 37.25 71.875 
z
" id="ArialMT-31"/>
      </defs>
      <g style="fill:#262626;" transform="translate(623.8 290.877812)scale(0.1 -0.1)">
       <use xlink:href="#ArialMT-31"/>
       <use x="55.615234" xlink:href="#ArialMT-30"/>
       <use x="111.230469" xlink:href="#ArialMT-30"/>
       <use x="166.845703" xlink:href="#ArialMT-30"/>
      </g>
     </g>
    </g>
   </g>
   <g id="matplotlib.axis_2">
    <g id="ytick_1">
     <g id="line2d_7">
      <defs>
       <path d="M 0 0 
L -6 0 
" id="m01e00a81ec" style="stroke:#262626;"/>
      </defs>
      <g>
       <use style="fill:#262626;stroke:#262626;" x="90" xlink:href="#m01e00a81ec" y="270.72"/>
      </g>
     </g>
     <g id="text_7">
      <!-- −0.6 -->
      <defs>
       <path d="M 52.828125 31.203125 
L 5.5625 31.203125 
L 5.5625 39.40625 
L 52.828125 39.40625 
z
" id="ArialMT-2212"/>
       <path d="M 9.078125 0 
L 9.078125 10.015625 
L 19.09375 10.015625 
L 19.09375 0 
z
" id="ArialMT-2e"/>
      </defs>
      <g style="fill:#262626;" transform="translate(57.259375 274.298906)scale(0.1 -0.1)">
       <use xlink:href="#ArialMT-2212"/>
       <use x="58.398438" xlink:href="#ArialMT-30"/>
       <use x="114.013672" xlink:href="#ArialMT-2e"/>
       <use x="141.796875" xlink:href="#ArialMT-36"/>
      </g>
     </g>
    </g>
    <g id="ytick_2">
     <g id="line2d_8">
      <g>
       <use style="fill:#262626;stroke:#262626;" x="90" xlink:href="#m01e00a81ec" y="237.12"/>
      </g>
     </g>
     <g id="text_8">
      <!-- −0.4 -->
      <g style="fill:#262626;" transform="translate(57.259375 240.698906)scale(0.1 -0.1)">
       <use xlink:href="#ArialMT-2212"/>
       <use x="58.398438" xlink:href="#ArialMT-30"/>
       <use x="114.013672" xlink:href="#ArialMT-2e"/>
       <use x="141.796875" xlink:href="#ArialMT-34"/>
      </g>
     </g>
    </g>
    <g id="ytick_3">
     <g id="line2d_9">
      <g>
       <use style="fill:#262626;stroke:#262626;" x="90" xlink:href="#m01e00a81ec" y="203.52"/>
      </g>
     </g>
     <g id="text_9">
      <!-- −0.2 -->
      <g style="fill:#262626;" transform="translate(57.259375 207.098906)scale(0.1 -0.1)">
       <use xlink:href="#ArialMT-2212"/>
       <use x="58.398438" xlink:href="#ArialMT-30"/>
       <use x="114.013672" xlink:href="#ArialMT-2e"/>
       <use x="141.796875" xlink:href="#ArialMT-32"/>
      </g>
     </g>
    </g>
    <g id="ytick_4">
     <g id="line2d_10">
      <g>
       <use style="fill:#262626;stroke:#262626;" x="90" xlink:href="#m01e00a81ec" y="169.92"/>
      </g>
     </g>
     <g id="text_10">
      <!-- 0.0 -->
      <g style="fill:#262626;" transform="translate(63.1 173.498906)scale(0.1 -0.1)">
       <use xlink:href="#ArialMT-30"/>
       <use x="55.615234" xlink:href="#ArialMT-2e"/>
       <use x="83.398438" xlink:href="#ArialMT-30"/>
      </g>
     </g>
    </g>
    <g id="ytick_5">
     <g id="line2d_11">
      <g>
       <use style="fill:#262626;stroke:#262626;" x="90" xlink:href="#m01e00a81ec" y="136.32"/>
      </g>
     </g>
     <g id="text_11">
      <!-- 0.2 -->
      <g style="fill:#262626;" transform="translate(63.1 139.898906)scale(0.1 -0.1)">
       <use xlink:href="#ArialMT-30"/>
       <use x="55.615234" xlink:href="#ArialMT-2e"/>
       <use x="83.398438" xlink:href="#ArialMT-32"/>
      </g>
     </g>
    </g>
    <g id="ytick_6">
     <g id="line2d_12">
      <g>
       <use style="fill:#262626;stroke:#262626;" x="90" xlink:href="#m01e00a81ec" y="102.72"/>
      </g>
     </g>
     <g id="text_12">
      <!-- 0.4 -->
      <g style="fill:#262626;" transform="translate(63.1 106.298906)scale(0.1 -0.1)">
       <use xlink:href="#ArialMT-30"/>
       <use x="55.615234" xlink:href="#ArialMT-2e"/>
       <use x="83.398438" xlink:href="#ArialMT-34"/>
      </g>
     </g>
    </g>
    <g id="ytick_7">
     <g id="line2d_13">
      <g>
       <use style="fill:#262626;stroke:#262626;" x="90" xlink:href="#m01e00a81ec" y="69.12"/>
      </g>
     </g>
     <g id="text_13">
      <!-- 0.6 -->
      <g style="fill:#262626;" transform="translate(63.1 72.698906)scale(0.1 -0.1)">
       <use xlink:href="#ArialMT-30"/>
       <use x="55.615234" xlink:href="#ArialMT-2e"/>
       <use x="83.398438" xlink:href="#ArialMT-36"/>
      </g>
     </g>
    </g>
   </g>
   <g id="line2d_14">
    <path clip-path="url(#p76acd10b2c)" d="M 90 157.656328 
L 91.089844 158.322832 
L 92.179688 159.409746 
L 93.814453 162.321855 
L 94.359375 163.752275 
L 95.449219 167.402666 
L 96.539062 171.227373 
L 97.628906 174.595781 
L 98.71875 176.872148 
L 99.263672 177.497637 
L 99.808594 177.569414 
L 100.353516 177.84627 
L 100.898438 177.461748 
L 101.443359 177.225908 
L 101.988281 176.54915 
L 102.533203 175.677568 
L 104.167969 172.134844 
L 105.802734 167.664141 
L 106.892578 165.587725 
L 107.4375 164.900713 
L 107.982422 163.998369 
L 108.527344 163.598467 
L 109.072266 163.342119 
L 109.617188 163.244707 
L 110.162109 162.680742 
L 110.707031 162.51668 
L 112.341797 161.639971 
L 115.611328 158.338213 
L 116.15625 157.769121 
L 116.701172 157.482012 
L 117.246094 157.425615 
L 117.791016 157.928057 
L 118.335938 158.635576 
L 118.880859 159.825029 
L 120.515625 164.352129 
L 121.605469 168.043535 
L 122.695312 170.899248 
L 123.240234 172.314287 
L 123.785156 173.001299 
L 124.330078 173.493486 
L 125.419922 173.698564 
L 126.509766 171.909258 
L 127.599609 168.679277 
L 131.414062 153.098467 
L 132.503906 149.965898 
L 133.59375 147.894609 
L 134.683594 147.13582 
L 135.228516 146.971758 
L 135.773438 147.320391 
L 137.408203 149.422441 
L 139.042969 152.488359 
L 139.587891 153.421465 
L 141.222656 157.287187 
L 143.947266 164.85457 
L 144.492188 165.844072 
L 145.582031 166.833574 
L 146.126953 166.623369 
L 146.671875 166.551592 
L 147.216797 166.674639 
L 148.851562 166.105547 
L 149.396484 165.818437 
L 150.486328 165.649248 
L 151.03125 165.013506 
L 151.576172 164.649492 
L 152.121094 163.849687 
L 153.210938 162.562822 
L 153.755859 161.588701 
L 154.845703 160.112139 
L 156.480469 159.72249 
L 157.025391 160.219805 
L 157.570312 160.881182 
L 158.660156 162.896074 
L 160.294922 167.048906 
L 160.839844 168.817705 
L 162.474609 172.84749 
L 164.109375 175.359697 
L 165.199219 176.149248 
L 165.744141 176.292803 
L 166.289062 176.18001 
L 166.833984 175.462236 
L 167.378906 174.939287 
L 167.923828 173.980547 
L 169.013672 171.688799 
L 170.648438 168.494707 
L 171.193359 167.792314 
L 171.738281 167.546221 
L 173.373047 168.06917 
L 173.917969 168.089678 
L 174.462891 167.992266 
L 175.007812 167.689775 
L 175.552734 167.187334 
L 177.1875 164.757158 
L 177.732422 164.147051 
L 178.822266 162.696123 
L 179.367188 162.214189 
L 179.912109 161.424639 
L 180.457031 160.947832 
L 181.001953 160.296709 
L 182.091797 159.466143 
L 182.636719 159.430254 
L 183.726562 160.291582 
L 184.271484 161.050371 
L 184.816406 162.219316 
L 186.451172 166.741289 
L 188.085938 172.068193 
L 189.175781 175.139238 
L 190.810547 178.953691 
L 191.355469 179.707354 
L 191.900391 180.050859 
L 192.445312 180.138018 
L 192.990234 179.702227 
L 194.080078 178.26668 
L 195.714844 175.11873 
L 196.804688 172.375811 
L 198.439453 169.012529 
L 199.529297 167.469316 
L 200.074219 167.320635 
L 200.619141 166.833574 
L 201.708984 166.356768 
L 202.253906 166.21834 
L 203.34375 165.474932 
L 204.433594 163.916338 
L 207.158203 159.158525 
L 208.248047 158.625322 
L 208.792969 158.707354 
L 209.337891 159.061113 
L 209.882812 159.573809 
L 211.517578 162.988359 
L 213.152344 168.530596 
L 214.242188 172.155352 
L 215.332031 174.949541 
L 216.421875 175.831377 
L 216.966797 175.564775 
L 218.056641 174.308672 
L 219.691406 169.714922 
L 220.236328 167.771807 
L 222.960938 156.051592 
L 224.050781 152.529375 
L 224.595703 151.49373 
L 225.685547 150.037676 
L 226.230469 149.69417 
L 227.865234 149.253252 
L 228.410156 149.335283 
L 229.5 150.006914 
L 230.044922 150.58626 
L 231.134766 152.867754 
L 233.859375 160.942705 
L 234.949219 163.106279 
L 236.583984 165.428789 
L 237.128906 165.803057 
L 237.673828 165.997881 
L 238.21875 166.592607 
L 239.308594 167.171953 
L 240.398438 167.366777 
L 240.943359 167.141191 
L 241.488281 167.136064 
L 242.033203 166.930986 
L 242.578125 166.428545 
L 244.212891 164.136797 
L 244.757812 163.034502 
L 246.9375 160.189043 
L 247.482422 159.922441 
L 248.572266 160.66585 
L 249.117188 161.168291 
L 251.841797 166.238848 
L 253.476562 170.350664 
L 254.566406 173.693437 
L 255.65625 176.072344 
L 256.746094 177.010576 
L 257.291016 176.964434 
L 257.835938 176.41585 
L 258.925781 174.283037 
L 260.015625 172.468096 
L 260.560547 171.570879 
L 261.105469 171.227373 
L 261.650391 170.499346 
L 262.195312 170.109697 
L 262.740234 169.884111 
L 263.285156 169.320146 
L 263.830078 169.294512 
L 264.375 168.802324 
L 266.009766 168.099932 
L 266.554688 167.679521 
L 267.644531 167.17708 
L 268.734375 166.028643 
L 269.279297 165.480059 
L 269.824219 164.634111 
L 270.369141 163.372881 
L 271.458984 161.578447 
L 272.003906 161.045244 
L 272.548828 160.153154 
L 273.638672 159.568682 
L 274.183594 159.742998 
L 274.728516 159.712236 
L 276.363281 161.342607 
L 276.908203 162.814043 
L 277.453125 163.813799 
L 277.998047 165.813311 
L 278.542969 167.371904 
L 280.722656 174.600908 
L 281.8125 177.343828 
L 282.357422 178.574297 
L 282.902344 179.415117 
L 283.992188 180.296953 
L 284.537109 180.435381 
L 285.626953 179.563799 
L 286.716797 177.584795 
L 288.896484 172.806475 
L 289.986328 171.155596 
L 291.076172 170.304521 
L 291.621094 170.089189 
L 292.166016 169.44832 
L 292.710938 169.345781 
L 293.255859 168.761309 
L 293.800781 168.402422 
L 296.525391 164.516191 
L 297.615234 162.470537 
L 298.705078 160.337725 
L 299.25 159.461016 
L 300.339844 158.88167 
L 300.884766 159.389238 
L 301.429688 160.065996 
L 301.974609 161.050371 
L 302.519531 162.316729 
L 306.878906 176.313311 
L 307.96875 178.276934 
L 308.513672 178.50252 
L 309.058594 178.317949 
L 309.603516 177.589922 
L 310.693359 174.888018 
L 311.783203 170.935137 
L 313.962891 162.788408 
L 315.597656 158.327959 
L 316.6875 155.749102 
L 318.322266 152.637041 
L 318.867188 152.139727 
L 319.412109 151.796221 
L 320.501953 152.129473 
L 321.591797 153.595781 
L 322.681641 155.897783 
L 325.951172 164.19832 
L 326.496094 164.962236 
L 327.041016 166.274736 
L 329.765625 170.03792 
L 330.310547 170.904375 
L 331.400391 171.965654 
L 332.490234 172.642412 
L 333.035156 172.160479 
L 333.580078 171.924639 
L 334.669922 170.171221 
L 335.759766 168.25374 
L 336.849609 167.002764 
L 338.484375 166.059404 
L 339.029297 166.008135 
L 340.119141 165.428789 
L 340.664062 165.531328 
L 341.208984 165.767168 
L 341.753906 166.449053 
L 342.298828 167.34627 
L 343.388672 170.422441 
L 346.113281 179.030596 
L 347.203125 180.77376 
L 347.748047 181.117266 
L 348.837891 181.158281 
L 349.382812 180.881426 
L 349.927734 180.455889 
L 350.472656 179.666338 
L 351.5625 178.625566 
L 352.107422 177.646318 
L 352.652344 176.95418 
L 353.742188 175.898027 
L 354.832031 175.349443 
L 355.376953 175.431475 
L 357.556641 174.954668 
L 358.101562 174.498369 
L 358.646484 174.416338 
L 359.191406 174.103594 
L 359.736328 173.160234 
L 360.28125 172.816729 
L 360.826172 171.919512 
L 361.371094 171.360674 
L 361.916016 170.463457 
L 363.005859 169.007402 
L 364.095703 167.377031 
L 365.185547 165.849199 
L 366.275391 165.690264 
L 366.820312 165.967119 
L 367.365234 166.500322 
L 368.455078 168.028154 
L 369.544922 170.617266 
L 373.904297 183.706377 
L 374.994141 185.695635 
L 375.539062 185.875078 
L 376.083984 185.828936 
L 376.628906 185.31624 
L 377.173828 184.972734 
L 378.263672 183.598711 
L 378.808594 182.696367 
L 379.353516 182.147783 
L 379.898438 180.973711 
L 380.443359 180.430254 
L 380.988281 179.435625 
L 381.533203 178.876787 
L 382.078125 177.969316 
L 382.623047 177.55916 
L 383.712891 177.133623 
L 384.802734 176.641436 
L 385.347656 176.436357 
L 386.4375 175.005937 
L 386.982422 173.79085 
L 387.527344 172.919268 
L 388.617188 170.196855 
L 389.162109 168.797197 
L 390.796875 165.895342 
L 391.341797 165.285234 
L 392.431641 165.044268 
L 392.976562 165.162187 
L 393.521484 165.751787 
L 394.611328 167.89998 
L 396.246094 173.80623 
L 397.335938 178.405107 
L 398.425781 182.188799 
L 399.515625 184.137041 
L 400.060547 184.444658 
L 401.150391 183.403887 
L 401.695312 182.486162 
L 404.419922 174.841875 
L 407.144531 165.705645 
L 409.324219 159.748125 
L 410.414062 157.892168 
L 410.958984 157.435869 
L 411.503906 157.174395 
L 412.048828 157.435869 
L 412.59375 157.851152 
L 413.138672 158.568926 
L 413.683594 159.589189 
L 414.773438 161.942461 
L 415.863281 164.234209 
L 418.042969 167.602617 
L 419.132812 169.991777 
L 420.222656 172.811602 
L 421.857422 175.82625 
L 422.947266 176.420977 
L 423.492188 176.564531 
L 424.037109 176.200518 
L 424.582031 176.169756 
L 425.671875 175.293047 
L 426.216797 175.046953 
L 426.761719 174.354814 
L 427.851562 173.365312 
L 429.486328 170.335283 
L 430.03125 169.31502 
L 431.121094 168.207598 
L 431.666016 167.920488 
L 432.755859 168.530596 
L 433.845703 170.658281 
L 434.935547 173.50374 
L 437.660156 181.204424 
L 438.75 182.983477 
L 439.839844 183.88582 
L 441.474609 183.045 
L 442.019531 182.224687 
L 442.564453 181.865801 
L 443.109375 181.081377 
L 444.199219 180.532793 
L 444.744141 179.727861 
L 445.833984 179.29207 
L 447.46875 178.230791 
L 449.103516 178.046221 
L 450.738281 177.400225 
L 451.828125 175.949297 
L 452.373047 175.298174 
L 454.007812 172.257891 
L 455.642578 169.412432 
L 456.1875 168.786943 
L 456.732422 167.858965 
L 457.822266 167.264238 
L 458.367188 166.900225 
L 458.912109 167.269365 
L 459.457031 167.371904 
L 460.001953 168.217852 
L 461.636719 172.862871 
L 465.451172 184.419023 
L 466.541016 186.331377 
L 467.630859 187.202959 
L 468.720703 186.79793 
L 469.265625 186.203203 
L 469.810547 185.136797 
L 470.900391 183.829424 
L 471.445312 182.870684 
L 472.535156 181.747881 
L 475.804688 180.250811 
L 476.349609 179.958574 
L 477.984375 177.805254 
L 480.164062 173.452471 
L 482.34375 167.987139 
L 483.433594 166.274736 
L 483.978516 166.038896 
L 485.068359 166.910479 
L 485.613281 168.120439 
L 486.703125 171.658037 
L 487.248047 173.678057 
L 488.337891 178.471758 
L 489.427734 182.342607 
L 490.517578 185.0804 
L 491.0625 185.910967 
L 491.607422 186.290361 
L 492.152344 186.32625 
L 492.697266 186.034014 
L 493.242188 185.490557 
L 494.332031 183.814043 
L 494.876953 182.778398 
L 497.056641 176.959307 
L 500.326172 164.859697 
L 500.871094 163.470293 
L 501.416016 162.444902 
L 502.505859 161.532305 
L 503.050781 161.57332 
L 504.685547 162.321855 
L 505.230469 162.788408 
L 505.775391 162.983232 
L 506.865234 164.054766 
L 507.410156 164.767412 
L 507.955078 165.900469 
L 508.5 166.731035 
L 509.044922 168.463945 
L 510.134766 171.042803 
L 511.224609 173.534502 
L 513.404297 176.78499 
L 514.494141 178.082109 
L 515.583984 179.051104 
L 516.128906 179.210039 
L 517.21875 178.840898 
L 517.763672 178.507646 
L 519.398438 175.744219 
L 521.033203 173.026934 
L 522.123047 171.191484 
L 523.212891 170.27376 
L 524.302734 170.791582 
L 525.392578 172.739824 
L 528.662109 181.747881 
L 530.296875 184.521562 
L 530.841797 185.177812 
L 531.386719 185.495684 
L 532.476562 185.280352 
L 533.021484 185.070146 
L 533.566406 184.59334 
L 534.111328 183.952471 
L 534.65625 183.547441 
L 536.291016 181.829912 
L 537.380859 181.235186 
L 537.925781 181.291582 
L 539.015625 181.107012 
L 539.560547 181.204424 
L 540.105469 181.137773 
L 540.650391 180.589189 
L 541.195312 180.435381 
L 541.740234 179.804766 
L 542.285156 179.748369 
L 542.830078 178.999834 
L 543.375 178.763994 
L 543.919922 178.338457 
L 544.464844 177.225908 
L 545.009766 176.723467 
L 545.554688 175.200762 
L 546.099609 174.231768 
L 546.644531 172.939775 
L 548.824219 168.981768 
L 549.914062 168.402422 
L 550.458984 168.55623 
L 551.548828 169.407305 
L 552.638672 171.253008 
L 556.998047 184.352373 
L 558.087891 186.239092 
L 558.632812 186.480059 
L 559.722656 186.495439 
L 560.267578 186.280107 
L 562.447266 184.77791 
L 562.992188 184.049883 
L 563.537109 183.880693 
L 564.082031 183.342363 
L 564.626953 183.188555 
L 565.171875 182.542559 
L 565.716797 182.516924 
L 566.806641 181.85042 
L 567.896484 181.224932 
L 568.986328 180.568682 
L 571.166016 175.698076 
L 571.710938 174.216387 
L 573.345703 168.67415 
L 574.435547 166.279863 
L 574.980469 165.485186 
L 575.525391 165.27498 
L 576.070312 165.310869 
L 576.615234 165.521074 
L 577.160156 166.597734 
L 578.25 169.904619 
L 578.794922 171.724687 
L 579.884766 175.739092 
L 580.429688 177.887285 
L 582.064453 181.886309 
L 583.154297 183.378252 
L 584.244141 184.295977 
L 584.789062 184.336992 
L 585.333984 183.957598 
L 585.878906 183.880693 
L 586.423828 183.168047 
L 586.96875 182.045244 
L 588.603516 176.256914 
L 590.238281 169.750811 
L 591.328125 166.361895 
L 591.873047 164.962236 
L 593.507812 162.019365 
L 594.052734 161.296465 
L 594.597656 160.358232 
L 595.142578 159.691729 
L 595.6875 159.307207 
L 596.232422 159.389238 
L 596.777344 159.348223 
L 597.322266 159.77376 
L 597.867188 160.37874 
L 598.957031 161.97835 
L 599.501953 163.213945 
L 600.046875 164.100908 
L 601.681641 167.484697 
L 603.861328 171.77083 
L 604.40625 173.088457 
L 605.496094 175.005937 
L 607.130859 176.933672 
L 607.675781 177.25667 
L 608.220703 177.359209 
L 608.765625 177.251543 
L 609.855469 176.174883 
L 610.945312 173.780596 
L 611.490234 172.791094 
L 613.125 169.104814 
L 613.669922 168.18709 
L 614.214844 167.782061 
L 614.759766 167.612871 
L 615.849609 168.299883 
L 616.394531 169.058672 
L 617.484375 171.227373 
L 620.753906 180.153398 
L 621.84375 182.004229 
L 622.388672 182.537432 
L 623.478516 182.537432 
L 624.023438 182.434893 
L 624.568359 182.178545 
L 625.658203 181.419756 
L 626.203125 181.204424 
L 626.748047 180.866045 
L 627.292969 180.389238 
L 627.837891 180.250811 
L 628.382812 179.707354 
L 629.472656 179.245928 
L 630.017578 178.835771 
L 631.107422 178.676836 
L 631.652344 178.789629 
L 633.832031 178.579424 
L 634.376953 178.128252 
L 635.466797 176.641436 
L 637.101562 173.232012 
L 637.646484 171.904131 
L 638.736328 169.981523 
L 640.371094 166.864336 
L 642.005859 165.331377 
L 642.550781 165.608232 
L 643.640625 166.833574 
L 644.730469 169.550859 
L 647.455078 178.323076 
L 647.455078 178.323076 
" style="fill:none;stroke:#4c72b0;stroke-linecap:round;stroke-width:1.75;"/>
   </g>
   <g id="patch_3">
    <path d="M 90 270.72 
L 90 69.12 
" style="fill:none;stroke:#262626;stroke-linecap:square;stroke-linejoin:miter;stroke-width:1.25;"/>
   </g>
   <g id="patch_4">
    <path d="M 90 270.72 
L 648 270.72 
" style="fill:none;stroke:#262626;stroke-linecap:square;stroke-linejoin:miter;stroke-width:1.25;"/>
   </g>
  </g>
  <g id="axes_2">
   <g id="patch_5">
    <path d="M 90 512.64 
L 648 512.64 
L 648 311.04 
L 90 311.04 
z
" style="fill:#ffffff;"/>
   </g>
   <g id="matplotlib.axis_3">
    <g id="xtick_7">
     <g id="line2d_15">
      <g>
       <use style="fill:#262626;stroke:#262626;" x="218.197478" xlink:href="#m5d6f17d026" y="512.64"/>
      </g>
     </g>
     <g id="text_14">
      <!-- $\mathdefault{10^{2}}$ -->
      <g style="fill:#262626;" transform="translate(210.347478 535.9525)scale(0.1 -0.1)">
       <use transform="translate(0 0.99375)" xlink:href="#ArialMT-31"/>
       <use transform="translate(55.615234 0.99375)" xlink:href="#ArialMT-30"/>
       <use transform="translate(112.972813 70.6875)scale(0.7)" xlink:href="#ArialMT-32"/>
      </g>
     </g>
    </g>
    <g id="xtick_8">
     <g id="line2d_16">
      <g>
       <use style="fill:#262626;stroke:#262626;" x="401.606604" xlink:href="#m5d6f17d026" y="512.64"/>
      </g>
     </g>
     <g id="text_15">
      <!-- $\mathdefault{10^{3}}$ -->
      <defs>
       <path d="M 4.203125 18.890625 
L 12.984375 20.0625 
Q 14.5 12.59375 18.140625 9.296875 
Q 21.78125 6 27 6 
Q 33.203125 6 37.46875 10.296875 
Q 41.75 14.59375 41.75 20.953125 
Q 41.75 27 37.796875 30.921875 
Q 33.84375 34.859375 27.734375 34.859375 
Q 25.25 34.859375 21.53125 33.890625 
L 22.515625 41.609375 
Q 23.390625 41.5 23.921875 41.5 
Q 29.546875 41.5 34.03125 44.421875 
Q 38.53125 47.359375 38.53125 53.46875 
Q 38.53125 58.296875 35.25 61.46875 
Q 31.984375 64.65625 26.8125 64.65625 
Q 21.6875 64.65625 18.265625 61.421875 
Q 14.84375 58.203125 13.875 51.765625 
L 5.078125 53.328125 
Q 6.6875 62.15625 12.390625 67.015625 
Q 18.109375 71.875 26.609375 71.875 
Q 32.46875 71.875 37.390625 69.359375 
Q 42.328125 66.84375 44.9375 62.5 
Q 47.5625 58.15625 47.5625 53.265625 
Q 47.5625 48.640625 45.0625 44.828125 
Q 42.578125 41.015625 37.703125 38.765625 
Q 44.046875 37.3125 47.5625 32.6875 
Q 51.078125 28.078125 51.078125 21.140625 
Q 51.078125 11.765625 44.234375 5.25 
Q 37.40625 -1.265625 26.953125 -1.265625 
Q 17.53125 -1.265625 11.296875 4.34375 
Q 5.078125 9.96875 4.203125 18.890625 
z
" id="ArialMT-33"/>
      </defs>
      <g style="fill:#262626;" transform="translate(393.756604 535.9525)scale(0.1 -0.1)">
       <use transform="translate(0 0.99375)" xlink:href="#ArialMT-31"/>
       <use transform="translate(55.615234 0.99375)" xlink:href="#ArialMT-30"/>
       <use transform="translate(112.972813 70.6875)scale(0.7)" xlink:href="#ArialMT-33"/>
      </g>
     </g>
    </g>
    <g id="xtick_9">
     <g id="line2d_17">
      <g>
       <use style="fill:#262626;stroke:#262626;" x="585.01573" xlink:href="#m5d6f17d026" y="512.64"/>
      </g>
     </g>
     <g id="text_16">
      <!-- $\mathdefault{10^{4}}$ -->
      <g style="fill:#262626;" transform="translate(577.16573 535.8525)scale(0.1 -0.1)">
       <use transform="translate(0 0.201563)" xlink:href="#ArialMT-31"/>
       <use transform="translate(55.615234 0.201563)" xlink:href="#ArialMT-30"/>
       <use transform="translate(112.972813 69.895313)scale(0.7)" xlink:href="#ArialMT-34"/>
      </g>
     </g>
    </g>
    <g id="xtick_10">
     <g id="line2d_18">
      <defs>
       <path d="M 0 0 
L 0 3 
" id="me55317dd80" style="stroke:#262626;stroke-width:0.5;"/>
      </defs>
      <g>
       <use style="fill:#262626;stroke:#262626;stroke-width:0.5;" x="90" xlink:href="#me55317dd80" y="512.64"/>
      </g>
     </g>
    </g>
    <g id="xtick_11">
     <g id="line2d_19">
      <g>
       <use style="fill:#262626;stroke:#262626;stroke-width:0.5;" x="122.296744" xlink:href="#me55317dd80" y="512.64"/>
      </g>
     </g>
    </g>
    <g id="xtick_12">
     <g id="line2d_20">
      <g>
       <use style="fill:#262626;stroke:#262626;stroke-width:0.5;" x="145.211648" xlink:href="#me55317dd80" y="512.64"/>
      </g>
     </g>
    </g>
    <g id="xtick_13">
     <g id="line2d_21">
      <g>
       <use style="fill:#262626;stroke:#262626;stroke-width:0.5;" x="162.985829" xlink:href="#me55317dd80" y="512.64"/>
      </g>
     </g>
    </g>
    <g id="xtick_14">
     <g id="line2d_22">
      <g>
       <use style="fill:#262626;stroke:#262626;stroke-width:0.5;" x="177.508392" xlink:href="#me55317dd80" y="512.64"/>
      </g>
     </g>
    </g>
    <g id="xtick_15">
     <g id="line2d_23">
      <g>
       <use style="fill:#262626;stroke:#262626;stroke-width:0.5;" x="189.787045" xlink:href="#me55317dd80" y="512.64"/>
      </g>
     </g>
    </g>
    <g id="xtick_16">
     <g id="line2d_24">
      <g>
       <use style="fill:#262626;stroke:#262626;stroke-width:0.5;" x="200.423297" xlink:href="#me55317dd80" y="512.64"/>
      </g>
     </g>
    </g>
    <g id="xtick_17">
     <g id="line2d_25">
      <g>
       <use style="fill:#262626;stroke:#262626;stroke-width:0.5;" x="209.805136" xlink:href="#me55317dd80" y="512.64"/>
      </g>
     </g>
    </g>
    <g id="xtick_18">
     <g id="line2d_26">
      <g>
       <use style="fill:#262626;stroke:#262626;stroke-width:0.5;" x="273.409126" xlink:href="#me55317dd80" y="512.64"/>
      </g>
     </g>
    </g>
    <g id="xtick_19">
     <g id="line2d_27">
      <g>
       <use style="fill:#262626;stroke:#262626;stroke-width:0.5;" x="305.70587" xlink:href="#me55317dd80" y="512.64"/>
      </g>
     </g>
    </g>
    <g id="xtick_20">
     <g id="line2d_28">
      <g>
       <use style="fill:#262626;stroke:#262626;stroke-width:0.5;" x="328.620775" xlink:href="#me55317dd80" y="512.64"/>
      </g>
     </g>
    </g>
    <g id="xtick_21">
     <g id="line2d_29">
      <g>
       <use style="fill:#262626;stroke:#262626;stroke-width:0.5;" x="346.394955" xlink:href="#me55317dd80" y="512.64"/>
      </g>
     </g>
    </g>
    <g id="xtick_22">
     <g id="line2d_30">
      <g>
       <use style="fill:#262626;stroke:#262626;stroke-width:0.5;" x="360.917518" xlink:href="#me55317dd80" y="512.64"/>
      </g>
     </g>
    </g>
    <g id="xtick_23">
     <g id="line2d_31">
      <g>
       <use style="fill:#262626;stroke:#262626;stroke-width:0.5;" x="373.196171" xlink:href="#me55317dd80" y="512.64"/>
      </g>
     </g>
    </g>
    <g id="xtick_24">
     <g id="line2d_32">
      <g>
       <use style="fill:#262626;stroke:#262626;stroke-width:0.5;" x="383.832423" xlink:href="#me55317dd80" y="512.64"/>
      </g>
     </g>
    </g>
    <g id="xtick_25">
     <g id="line2d_33">
      <g>
       <use style="fill:#262626;stroke:#262626;stroke-width:0.5;" x="393.214262" xlink:href="#me55317dd80" y="512.64"/>
      </g>
     </g>
    </g>
    <g id="xtick_26">
     <g id="line2d_34">
      <g>
       <use style="fill:#262626;stroke:#262626;stroke-width:0.5;" x="456.818252" xlink:href="#me55317dd80" y="512.64"/>
      </g>
     </g>
    </g>
    <g id="xtick_27">
     <g id="line2d_35">
      <g>
       <use style="fill:#262626;stroke:#262626;stroke-width:0.5;" x="489.114996" xlink:href="#me55317dd80" y="512.64"/>
      </g>
     </g>
    </g>
    <g id="xtick_28">
     <g id="line2d_36">
      <g>
       <use style="fill:#262626;stroke:#262626;stroke-width:0.5;" x="512.029901" xlink:href="#me55317dd80" y="512.64"/>
      </g>
     </g>
    </g>
    <g id="xtick_29">
     <g id="line2d_37">
      <g>
       <use style="fill:#262626;stroke:#262626;stroke-width:0.5;" x="529.804081" xlink:href="#me55317dd80" y="512.64"/>
      </g>
     </g>
    </g>
    <g id="xtick_30">
     <g id="line2d_38">
      <g>
       <use style="fill:#262626;stroke:#262626;stroke-width:0.5;" x="544.326645" xlink:href="#me55317dd80" y="512.64"/>
      </g>
     </g>
    </g>
    <g id="xtick_31">
     <g id="line2d_39">
      <g>
       <use style="fill:#262626;stroke:#262626;stroke-width:0.5;" x="556.605297" xlink:href="#me55317dd80" y="512.64"/>
      </g>
     </g>
    </g>
    <g id="xtick_32">
     <g id="line2d_40">
      <g>
       <use style="fill:#262626;stroke:#262626;stroke-width:0.5;" x="567.241549" xlink:href="#me55317dd80" y="512.64"/>
      </g>
     </g>
    </g>
    <g id="xtick_33">
     <g id="line2d_41">
      <g>
       <use style="fill:#262626;stroke:#262626;stroke-width:0.5;" x="576.623389" xlink:href="#me55317dd80" y="512.64"/>
      </g>
     </g>
    </g>
    <g id="xtick_34">
     <g id="line2d_42">
      <g>
       <use style="fill:#262626;stroke:#262626;stroke-width:0.5;" x="640.227378" xlink:href="#me55317dd80" y="512.64"/>
      </g>
     </g>
    </g>
   </g>
   <g id="matplotlib.axis_4">
    <g id="ytick_8">
     <g id="line2d_43">
      <g>
       <use style="fill:#262626;stroke:#262626;" x="90" xlink:href="#m01e00a81ec" y="512.64"/>
      </g>
     </g>
     <g id="text_17">
      <!-- $\mathdefault{10^{-5}}$ -->
      <defs>
       <path d="M 4.15625 18.75 
L 13.375 19.53125 
Q 14.40625 12.796875 18.140625 9.390625 
Q 21.875 6 27.15625 6 
Q 33.5 6 37.890625 10.78125 
Q 42.28125 15.578125 42.28125 23.484375 
Q 42.28125 31 38.0625 35.34375 
Q 33.84375 39.703125 27 39.703125 
Q 22.75 39.703125 19.328125 37.765625 
Q 15.921875 35.84375 13.96875 32.765625 
L 5.71875 33.84375 
L 12.640625 70.609375 
L 48.25 70.609375 
L 48.25 62.203125 
L 19.671875 62.203125 
L 15.828125 42.96875 
Q 22.265625 47.46875 29.34375 47.46875 
Q 38.71875 47.46875 45.15625 40.96875 
Q 51.609375 34.46875 51.609375 24.265625 
Q 51.609375 14.546875 45.953125 7.46875 
Q 39.0625 -1.21875 27.15625 -1.21875 
Q 17.390625 -1.21875 11.203125 4.25 
Q 5.03125 9.71875 4.15625 18.75 
z
" id="ArialMT-35"/>
      </defs>
      <g style="fill:#262626;" transform="translate(57.2 517.74625)scale(0.1 -0.1)">
       <use transform="translate(0 0.879688)" xlink:href="#ArialMT-31"/>
       <use transform="translate(55.615234 0.879688)" xlink:href="#ArialMT-30"/>
       <use transform="translate(112.972813 70.573438)scale(0.7)" xlink:href="#ArialMT-2212"/>
       <use transform="translate(153.851719 70.573438)scale(0.7)" xlink:href="#ArialMT-35"/>
      </g>
     </g>
    </g>
    <g id="ytick_9">
     <g id="line2d_44">
      <g>
       <use style="fill:#262626;stroke:#262626;" x="90" xlink:href="#m01e00a81ec" y="465.767507"/>
      </g>
     </g>
     <g id="text_18">
      <!-- $\mathdefault{10^{-4}}$ -->
      <g style="fill:#262626;" transform="translate(57.2 470.873757)scale(0.1 -0.1)">
       <use transform="translate(0 0.201563)" xlink:href="#ArialMT-31"/>
       <use transform="translate(55.615234 0.201563)" xlink:href="#ArialMT-30"/>
       <use transform="translate(112.972813 69.895313)scale(0.7)" xlink:href="#ArialMT-2212"/>
       <use transform="translate(153.851719 69.895313)scale(0.7)" xlink:href="#ArialMT-34"/>
      </g>
     </g>
    </g>
    <g id="ytick_10">
     <g id="line2d_45">
      <g>
       <use style="fill:#262626;stroke:#262626;" x="90" xlink:href="#m01e00a81ec" y="418.895013"/>
      </g>
     </g>
     <g id="text_19">
      <!-- $\mathdefault{10^{-3}}$ -->
      <g style="fill:#262626;" transform="translate(57.2 424.051263)scale(0.1 -0.1)">
       <use transform="translate(0 0.99375)" xlink:href="#ArialMT-31"/>
       <use transform="translate(55.615234 0.99375)" xlink:href="#ArialMT-30"/>
       <use transform="translate(112.972813 70.6875)scale(0.7)" xlink:href="#ArialMT-2212"/>
       <use transform="translate(153.851719 70.6875)scale(0.7)" xlink:href="#ArialMT-33"/>
      </g>
     </g>
    </g>
    <g id="ytick_11">
     <g id="line2d_46">
      <g>
       <use style="fill:#262626;stroke:#262626;" x="90" xlink:href="#m01e00a81ec" y="372.02252"/>
      </g>
     </g>
     <g id="text_20">
      <!-- $\mathdefault{10^{-2}}$ -->
      <g style="fill:#262626;" transform="translate(57.2 377.17877)scale(0.1 -0.1)">
       <use transform="translate(0 0.99375)" xlink:href="#ArialMT-31"/>
       <use transform="translate(55.615234 0.99375)" xlink:href="#ArialMT-30"/>
       <use transform="translate(112.972813 70.6875)scale(0.7)" xlink:href="#ArialMT-2212"/>
       <use transform="translate(153.851719 70.6875)scale(0.7)" xlink:href="#ArialMT-32"/>
      </g>
     </g>
    </g>
    <g id="ytick_12">
     <g id="line2d_47">
      <g>
       <use style="fill:#262626;stroke:#262626;" x="90" xlink:href="#m01e00a81ec" y="325.150026"/>
      </g>
     </g>
     <g id="text_21">
      <!-- $\mathdefault{10^{-1}}$ -->
      <g style="fill:#262626;" transform="translate(57.2 330.306276)scale(0.1 -0.1)">
       <use transform="translate(0 0.99375)" xlink:href="#ArialMT-31"/>
       <use transform="translate(55.615234 0.99375)" xlink:href="#ArialMT-30"/>
       <use transform="translate(112.972813 70.6875)scale(0.7)" xlink:href="#ArialMT-2212"/>
       <use transform="translate(153.851719 70.6875)scale(0.7)" xlink:href="#ArialMT-31"/>
      </g>
     </g>
    </g>
    <g id="ytick_13">
     <g id="line2d_48">
      <defs>
       <path d="M 0 0 
L -3 0 
" id="m71775b29d6" style="stroke:#262626;stroke-width:0.5;"/>
      </defs>
      <g>
       <use style="fill:#262626;stroke:#262626;stroke-width:0.5;" x="90" xlink:href="#m71775b29d6" y="498.529974"/>
      </g>
     </g>
    </g>
    <g id="ytick_14">
     <g id="line2d_49">
      <g>
       <use style="fill:#262626;stroke:#262626;stroke-width:0.5;" x="90" xlink:href="#m71775b29d6" y="490.276137"/>
      </g>
     </g>
    </g>
    <g id="ytick_15">
     <g id="line2d_50">
      <g>
       <use style="fill:#262626;stroke:#262626;stroke-width:0.5;" x="90" xlink:href="#m71775b29d6" y="484.419947"/>
      </g>
     </g>
    </g>
    <g id="ytick_16">
     <g id="line2d_51">
      <g>
       <use style="fill:#262626;stroke:#262626;stroke-width:0.5;" x="90" xlink:href="#m71775b29d6" y="479.877533"/>
      </g>
     </g>
    </g>
    <g id="ytick_17">
     <g id="line2d_52">
      <g>
       <use style="fill:#262626;stroke:#262626;stroke-width:0.5;" x="90" xlink:href="#m71775b29d6" y="476.166111"/>
      </g>
     </g>
    </g>
    <g id="ytick_18">
     <g id="line2d_53">
      <g>
       <use style="fill:#262626;stroke:#262626;stroke-width:0.5;" x="90" xlink:href="#m71775b29d6" y="473.028148"/>
      </g>
     </g>
    </g>
    <g id="ytick_19">
     <g id="line2d_54">
      <g>
       <use style="fill:#262626;stroke:#262626;stroke-width:0.5;" x="90" xlink:href="#m71775b29d6" y="470.309921"/>
      </g>
     </g>
    </g>
    <g id="ytick_20">
     <g id="line2d_55">
      <g>
       <use style="fill:#262626;stroke:#262626;stroke-width:0.5;" x="90" xlink:href="#m71775b29d6" y="467.912274"/>
      </g>
     </g>
    </g>
    <g id="ytick_21">
     <g id="line2d_56">
      <g>
       <use style="fill:#262626;stroke:#262626;stroke-width:0.5;" x="90" xlink:href="#m71775b29d6" y="451.65748"/>
      </g>
     </g>
    </g>
    <g id="ytick_22">
     <g id="line2d_57">
      <g>
       <use style="fill:#262626;stroke:#262626;stroke-width:0.5;" x="90" xlink:href="#m71775b29d6" y="443.403644"/>
      </g>
     </g>
    </g>
    <g id="ytick_23">
     <g id="line2d_58">
      <g>
       <use style="fill:#262626;stroke:#262626;stroke-width:0.5;" x="90" xlink:href="#m71775b29d6" y="437.547454"/>
      </g>
     </g>
    </g>
    <g id="ytick_24">
     <g id="line2d_59">
      <g>
       <use style="fill:#262626;stroke:#262626;stroke-width:0.5;" x="90" xlink:href="#m71775b29d6" y="433.00504"/>
      </g>
     </g>
    </g>
    <g id="ytick_25">
     <g id="line2d_60">
      <g>
       <use style="fill:#262626;stroke:#262626;stroke-width:0.5;" x="90" xlink:href="#m71775b29d6" y="429.293617"/>
      </g>
     </g>
    </g>
    <g id="ytick_26">
     <g id="line2d_61">
      <g>
       <use style="fill:#262626;stroke:#262626;stroke-width:0.5;" x="90" xlink:href="#m71775b29d6" y="426.155654"/>
      </g>
     </g>
    </g>
    <g id="ytick_27">
     <g id="line2d_62">
      <g>
       <use style="fill:#262626;stroke:#262626;stroke-width:0.5;" x="90" xlink:href="#m71775b29d6" y="423.437427"/>
      </g>
     </g>
    </g>
    <g id="ytick_28">
     <g id="line2d_63">
      <g>
       <use style="fill:#262626;stroke:#262626;stroke-width:0.5;" x="90" xlink:href="#m71775b29d6" y="421.039781"/>
      </g>
     </g>
    </g>
    <g id="ytick_29">
     <g id="line2d_64">
      <g>
       <use style="fill:#262626;stroke:#262626;stroke-width:0.5;" x="90" xlink:href="#m71775b29d6" y="404.784987"/>
      </g>
     </g>
    </g>
    <g id="ytick_30">
     <g id="line2d_65">
      <g>
       <use style="fill:#262626;stroke:#262626;stroke-width:0.5;" x="90" xlink:href="#m71775b29d6" y="396.53115"/>
      </g>
     </g>
    </g>
    <g id="ytick_31">
     <g id="line2d_66">
      <g>
       <use style="fill:#262626;stroke:#262626;stroke-width:0.5;" x="90" xlink:href="#m71775b29d6" y="390.67496"/>
      </g>
     </g>
    </g>
    <g id="ytick_32">
     <g id="line2d_67">
      <g>
       <use style="fill:#262626;stroke:#262626;stroke-width:0.5;" x="90" xlink:href="#m71775b29d6" y="386.132546"/>
      </g>
     </g>
    </g>
    <g id="ytick_33">
     <g id="line2d_68">
      <g>
       <use style="fill:#262626;stroke:#262626;stroke-width:0.5;" x="90" xlink:href="#m71775b29d6" y="382.421124"/>
      </g>
     </g>
    </g>
    <g id="ytick_34">
     <g id="line2d_69">
      <g>
       <use style="fill:#262626;stroke:#262626;stroke-width:0.5;" x="90" xlink:href="#m71775b29d6" y="379.283161"/>
      </g>
     </g>
    </g>
    <g id="ytick_35">
     <g id="line2d_70">
      <g>
       <use style="fill:#262626;stroke:#262626;stroke-width:0.5;" x="90" xlink:href="#m71775b29d6" y="376.564934"/>
      </g>
     </g>
    </g>
    <g id="ytick_36">
     <g id="line2d_71">
      <g>
       <use style="fill:#262626;stroke:#262626;stroke-width:0.5;" x="90" xlink:href="#m71775b29d6" y="374.167288"/>
      </g>
     </g>
    </g>
    <g id="ytick_37">
     <g id="line2d_72">
      <g>
       <use style="fill:#262626;stroke:#262626;stroke-width:0.5;" x="90" xlink:href="#m71775b29d6" y="357.912493"/>
      </g>
     </g>
    </g>
    <g id="ytick_38">
     <g id="line2d_73">
      <g>
       <use style="fill:#262626;stroke:#262626;stroke-width:0.5;" x="90" xlink:href="#m71775b29d6" y="349.658657"/>
      </g>
     </g>
    </g>
    <g id="ytick_39">
     <g id="line2d_74">
      <g>
       <use style="fill:#262626;stroke:#262626;stroke-width:0.5;" x="90" xlink:href="#m71775b29d6" y="343.802467"/>
      </g>
     </g>
    </g>
    <g id="ytick_40">
     <g id="line2d_75">
      <g>
       <use style="fill:#262626;stroke:#262626;stroke-width:0.5;" x="90" xlink:href="#m71775b29d6" y="339.260053"/>
      </g>
     </g>
    </g>
    <g id="ytick_41">
     <g id="line2d_76">
      <g>
       <use style="fill:#262626;stroke:#262626;stroke-width:0.5;" x="90" xlink:href="#m71775b29d6" y="335.548631"/>
      </g>
     </g>
    </g>
    <g id="ytick_42">
     <g id="line2d_77">
      <g>
       <use style="fill:#262626;stroke:#262626;stroke-width:0.5;" x="90" xlink:href="#m71775b29d6" y="332.410668"/>
      </g>
     </g>
    </g>
    <g id="ytick_43">
     <g id="line2d_78">
      <g>
       <use style="fill:#262626;stroke:#262626;stroke-width:0.5;" x="90" xlink:href="#m71775b29d6" y="329.69244"/>
      </g>
     </g>
    </g>
    <g id="ytick_44">
     <g id="line2d_79">
      <g>
       <use style="fill:#262626;stroke:#262626;stroke-width:0.5;" x="90" xlink:href="#m71775b29d6" y="327.294794"/>
      </g>
     </g>
    </g>
    <g id="ytick_45">
     <g id="line2d_80">
      <g>
       <use style="fill:#262626;stroke:#262626;stroke-width:0.5;" x="90" xlink:href="#m71775b29d6" y="311.04"/>
      </g>
     </g>
    </g>
   </g>
   <g id="line2d_81">
    <path clip-path="url(#p66f5e38536)" d="M -1 360.227126 
L 151.095164 360.203917 
L 206.306812 393.933566 
L 238.603556 392.979899 
L 261.518461 399.032748 
L 279.292642 398.590059 
L 293.815205 366.347991 
L 306.093857 413.278932 
L 316.730109 414.120451 
L 326.111949 415.181232 
L 334.50429 419.15359 
L 342.096086 414.693448 
L 349.026853 371.761089 
L 355.402541 423.125635 
L 361.305505 447.203982 
L 366.801034 461.095657 
L 371.941758 444.197432 
L 376.770725 422.543087 
L 381.323597 377.398193 
L 385.630245 407.764835 
L 389.715939 421.901919 
L 393.602249 419.770506 
L 397.307735 412.848363 
L 400.848476 396.986114 
L 404.238502 359.202163 
L 407.490119 381.058039 
L 410.614189 394.616862 
L 413.620341 401.001802 
L 416.517154 400.491932 
L 419.312303 398.342284 
L 422.012683 377.933313 
L 424.624509 398.55265 
L 427.153406 422.779728 
L 429.604479 431.264726 
L 431.982374 431.511932 
L 434.291335 421.472978 
L 436.535246 400.293853 
L 438.717672 402.037659 
L 440.841893 422.908242 
L 442.910933 436.340308 
L 444.927587 440.260419 
L 446.894442 424.773572 
L 448.813898 399.297378 
L 450.688186 381.407127 
L 452.519383 405.341508 
L 454.309426 414.413744 
L 456.060125 417.900312 
L 457.773171 422.232747 
L 459.45015 424.107933 
L 461.09255 415.553126 
L 462.701768 426.883233 
L 464.279118 430.246166 
L 465.825838 431.167298 
L 468.83199 435.715974 
L 470.293564 419.227443 
L 471.728802 426.666232 
L 473.138637 430.976683 
L 474.523951 432.823429 
L 477.224331 433.291692 
L 478.540949 432.753908 
L 479.836157 440.91664 
L 481.110642 437.680888 
L 482.365055 436.236871 
L 483.600019 439.599314 
L 484.816127 442.211433 
L 486.013948 437.110997 
L 487.194022 424.391933 
L 488.356869 442.017299 
L 489.502983 442.589526 
L 490.63284 441.155948 
L 492.845581 441.89734 
L 493.92932 429.023375 
L 494.998512 430.812942 
L 496.053541 440.469213 
L 497.094779 441.719623 
L 498.122582 443.135209 
L 499.137291 444.009053 
L 500.139235 446.182167 
L 501.128734 437.81009 
L 502.10609 443.781635 
L 503.0716 442.88432 
L 504.025546 443.459285 
L 504.968203 443.508945 
L 505.899834 444.764145 
L 506.820695 443.954368 
L 507.731032 450.087465 
L 508.631082 445.193385 
L 509.521075 446.520427 
L 510.401234 449.430847 
L 511.271773 446.163497 
L 512.132901 444.330172 
L 512.984819 437.108452 
L 513.827722 435.565526 
L 514.661799 447.406007 
L 515.487232 447.988628 
L 516.304198 450.597635 
L 517.112871 451.348502 
L 517.913416 451.726527 
L 518.705996 455.99303 
L 519.490766 447.263757 
L 520.26788 448.75439 
L 521.037486 450.824484 
L 521.799727 450.602397 
L 522.554743 452.279899 
L 523.302669 451.397914 
L 524.043638 457.397152 
L 524.777778 449.615783 
L 525.505212 451.547575 
L 526.226064 448.837933 
L 526.940451 451.8197 
L 527.648487 453.64644 
L 528.350285 451.867824 
L 529.045954 452.373697 
L 529.7356 454.075967 
L 530.419326 456.331915 
L 531.097232 455.093899 
L 531.769418 456.615836 
L 532.435979 452.149408 
L 533.097009 455.262307 
L 533.752597 460.213673 
L 534.402834 454.054117 
L 535.047806 452.865484 
L 535.687597 452.219954 
L 536.32229 456.431938 
L 536.951966 458.844075 
L 537.576703 456.12938 
L 538.196578 457.684318 
L 538.811667 451.131854 
L 539.422042 453.58132 
L 540.027776 453.269787 
L 540.628938 457.790466 
L 541.225596 456.599993 
L 541.817819 454.49781 
L 542.405671 454.128087 
L 542.989216 460.564456 
L 543.568517 455.352752 
L 544.143636 458.101636 
L 544.714632 456.761247 
L 545.281563 456.947823 
L 545.844488 456.624571 
L 546.403463 459.531722 
L 546.958543 458.281263 
L 547.509781 454.999914 
L 548.05723 454.970314 
L 548.600942 455.695686 
L 549.140969 455.863971 
L 549.677358 459.971938 
L 550.21016 456.168291 
L 550.739422 456.55033 
L 551.26519 456.594613 
L 552.306428 462.075891 
L 552.821987 458.684801 
L 553.33423 459.035126 
L 553.8432 457.200867 
L 554.348939 459.79424 
L 554.851487 458.355953 
L 555.350884 459.978243 
L 555.847169 459.395627 
L 556.340382 459.052795 
L 557.317739 461.215241 
L 557.801956 459.054008 
L 558.283248 461.421002 
L 558.76165 462.822831 
L 559.237195 458.47072 
L 559.709918 458.900171 
L 560.179852 464.862784 
L 560.647029 459.767411 
L 561.111483 462.614766 
L 561.573244 460.064733 
L 562.032344 460.020062 
L 562.488812 460.202997 
L 562.94268 463.398317 
L 563.393976 462.538247 
L 563.84273 459.880477 
L 564.28897 458.192535 
L 564.732723 461.615793 
L 565.174019 463.374699 
L 565.612882 464.474329 
L 566.049341 463.223958 
L 566.483422 464.65961 
L 566.91515 461.412927 
L 567.34455 459.80725 
L 567.771648 460.302385 
L 568.196468 463.707444 
L 568.619034 460.1158 
L 569.039371 464.568505 
L 569.873447 461.242516 
L 570.287233 462.253148 
L 570.69888 465.49657 
L 571.108411 462.995021 
L 571.515847 463.239204 
L 571.921209 465.805968 
L 572.32452 466.944135 
L 572.725798 461.660591 
L 573.125065 464.731218 
L 573.52234 462.245947 
L 573.917644 467.103278 
L 574.310996 467.281712 
L 574.702415 469.640489 
L 575.091919 468.845003 
L 575.479529 466.706811 
L 575.865261 463.695448 
L 576.631167 462.257597 
L 577.011376 465.228545 
L 577.389778 464.270902 
L 577.766391 462.73262 
L 578.141232 465.229362 
L 578.514318 466.501401 
L 578.885664 466.490228 
L 579.255287 464.634946 
L 579.623202 469.993479 
L 579.989426 468.669866 
L 580.353974 460.44672 
L 580.716861 462.286074 
L 581.078102 462.533633 
L 582.152099 469.579507 
L 582.506904 461.914242 
L 582.860136 463.581351 
L 583.211808 469.466099 
L 583.561934 464.939513 
L 583.910528 470.545751 
L 584.257603 466.430605 
L 584.947248 470.484376 
L 585.289845 475.461243 
L 585.630974 466.957112 
L 585.970649 466.670338 
L 586.308881 467.258754 
L 586.645683 471.483432 
L 586.981067 465.530478 
L 587.315045 464.840291 
L 587.647628 469.450523 
L 587.978828 469.9722 
L 588.308657 463.840005 
L 588.637126 466.765252 
L 588.964246 467.864354 
L 589.290028 466.700811 
L 589.614483 467.134384 
L 589.937621 463.449041 
L 590.259454 466.059861 
L 590.579992 465.636256 
L 590.899246 461.649263 
L 591.217224 470.716786 
L 591.533939 467.721732 
L 591.849399 472.1076 
L 592.163614 467.238901 
L 592.476596 467.524979 
L 592.788352 468.696556 
L 593.098892 467.063536 
L 593.408227 469.961449 
L 593.716365 467.008917 
L 594.023315 466.062893 
L 594.329088 469.779277 
L 594.633691 466.359528 
L 594.937133 464.775352 
L 595.540572 471.004797 
L 595.840586 463.979331 
L 596.139474 468.140332 
L 596.437245 470.733499 
L 596.733906 466.787221 
L 597.029467 469.881563 
L 597.323936 469.568843 
L 597.617319 470.814318 
L 597.909626 467.091784 
L 598.200864 470.485984 
L 598.491042 462.925127 
L 598.780166 468.82337 
L 599.068244 466.688433 
L 599.355284 470.01248 
L 599.641294 468.683283 
L 599.92628 470.766513 
L 600.21025 466.971537 
L 600.493212 468.278642 
L 600.775172 472.62856 
L 601.056137 464.962379 
L 601.336115 464.415275 
L 601.615112 475.766778 
L 601.893135 469.682627 
L 602.170191 470.344282 
L 602.446287 472.186505 
L 602.721429 472.923503 
L 602.995624 467.333829 
L 603.268878 466.197933 
L 603.541199 476.157482 
L 603.812591 468.377689 
L 604.083062 469.171709 
L 604.352617 465.035731 
L 604.621264 470.988215 
L 604.889007 467.969837 
L 605.155853 475.477819 
L 605.421809 471.442489 
L 605.686879 477.645033 
L 605.95107 472.745721 
L 606.214388 471.693913 
L 606.476838 469.472908 
L 606.738427 477.169416 
L 606.999159 467.427662 
L 607.25904 470.151755 
L 607.776273 468.191373 
L 608.033635 472.87803 
L 608.290169 472.171366 
L 608.545879 466.276381 
L 608.80077 473.37357 
L 609.308119 468.135205 
L 609.560587 473.550727 
L 609.812258 472.932091 
L 610.063135 473.568071 
L 610.313225 467.43078 
L 610.562532 474.60098 
L 610.811062 468.917287 
L 611.058818 474.090008 
L 611.305806 475.983745 
L 611.55203 476.942583 
L 611.797496 480.492299 
L 612.042208 469.674528 
L 612.28617 472.27245 
L 612.529387 467.445256 
L 612.771864 468.646515 
L 613.013605 476.0509 
L 613.254614 477.824082 
L 613.494897 471.21817 
L 613.973298 477.014172 
L 614.211426 467.933742 
L 614.448843 470.459654 
L 614.685555 468.587878 
L 614.921566 470.164165 
L 615.15688 476.584968 
L 615.625431 468.147228 
L 616.091243 472.251341 
L 616.323131 471.701968 
L 616.554347 473.18748 
L 616.784892 473.05685 
L 617.014773 467.520796 
L 617.243992 472.534986 
L 617.472553 470.88029 
L 617.700461 472.444186 
L 617.927718 475.431277 
L 618.154329 472.126335 
L 618.380296 483.31702 
L 618.605625 472.950766 
L 618.830318 476.529041 
L 619.054379 469.223788 
L 619.500618 467.590123 
L 619.722804 472.117628 
L 619.944372 472.304691 
L 620.165325 469.449647 
L 620.385667 480.888137 
L 620.605401 467.065078 
L 620.824531 475.176658 
L 621.043059 476.718682 
L 621.26099 472.211611 
L 621.478326 473.643184 
L 621.69507 468.166507 
L 621.911227 476.815326 
L 622.126798 471.751998 
L 622.341787 472.41935 
L 622.556198 473.467399 
L 622.770034 470.080376 
L 622.983296 481.327335 
L 623.408116 465.39622 
L 623.830683 475.252249 
L 624.041128 470.236673 
L 624.251019 489.263335 
L 624.460358 468.914566 
L 624.669149 473.687544 
L 624.877394 470.994333 
L 625.085096 473.695309 
L 625.498881 474.633862 
L 625.704971 468.276756 
L 625.910528 475.893797 
L 626.115557 470.359559 
L 626.320059 475.566745 
L 626.524038 473.533001 
L 626.727495 474.332277 
L 626.930435 471.666467 
L 627.132858 477.154736 
L 627.334768 475.219728 
L 627.536168 478.494963 
L 627.937446 471.26837 
L 628.336713 470.450232 
L 628.535599 479.44945 
L 628.733989 482.100448 
L 629.129293 464.771337 
L 629.326211 475.046827 
L 629.522644 473.251274 
L 629.718594 477.238921 
L 629.914063 476.258132 
L 630.109054 472.968166 
L 630.303568 483.52132 
L 630.497608 475.955204 
L 630.691177 474.394993 
L 630.884277 476.280305 
L 631.07691 469.295355 
L 631.460783 474.686302 
L 631.652028 474.432202 
L 631.842815 474.540385 
L 632.033146 477.958124 
L 632.223024 464.586473 
L 632.41245 473.360067 
L 632.601426 475.712108 
L 632.789956 472.084134 
L 632.97804 475.686611 
L 633.165681 474.553016 
L 633.352881 470.397282 
L 633.539642 476.762524 
L 633.911856 471.113986 
L 634.097312 478.476792 
L 634.282338 471.812729 
L 634.466935 473.877661 
L 634.651105 477.734327 
L 634.83485 471.455968 
L 635.018173 472.409751 
L 635.383557 477.192477 
L 635.565622 473.636599 
L 635.747272 474.320759 
L 635.928509 482.252739 
L 636.109335 468.413257 
L 636.289751 475.0366 
L 636.469759 474.803489 
L 636.649361 473.421607 
L 636.828559 480.281042 
L 637.185751 470.862831 
L 637.363748 481.888299 
L 637.541348 475.498836 
L 637.718553 477.953754 
L 637.895364 472.688864 
L 638.071784 473.840886 
L 638.247814 473.48536 
L 638.423456 487.110351 
L 638.598712 471.3652 
L 638.773582 472.060516 
L 638.94807 473.961321 
L 639.122176 472.059606 
L 639.295903 477.625229 
L 639.469251 472.452467 
L 639.81482 473.9564 
L 639.987044 478.211992 
L 640.158897 466.086184 
L 640.501493 476.235401 
L 640.67224 474.621231 
L 640.842622 468.772313 
L 641.012641 475.110726 
L 641.182297 477.023139 
L 641.351593 483.218843 
L 641.520529 474.607496 
L 641.689108 473.919637 
L 641.857331 470.570644 
L 642.192715 485.266002 
L 642.359879 473.186996 
L 642.526693 472.280511 
L 642.693158 469.878879 
L 642.859276 473.663998 
L 643.025049 486.811684 
L 643.190477 485.564379 
L 643.355562 469.541798 
L 643.684709 474.077903 
L 643.848774 471.793178 
L 644.012502 473.390819 
L 644.175894 485.913431 
L 644.338952 475.78114 
L 644.501676 478.239306 
L 644.664069 466.065135 
L 644.826131 477.064486 
L 644.987864 470.696646 
L 645.310349 475.924828 
L 645.471103 471.789032 
L 645.631533 472.231859 
L 645.791641 471.239352 
L 645.951427 469.547204 
L 646.110894 466.508864 
L 646.428873 480.020943 
L 646.587387 478.561292 
L 646.903473 472.441311 
L 647.061047 476.778865 
L 647.531907 470.950168 
L 647.688244 470.360605 
L 647.844274 475.948613 
L 647.844274 475.948613 
" style="fill:none;stroke:#b22222;stroke-linecap:round;stroke-width:1.75;"/>
   </g>
   <g id="patch_6">
    <path d="M 90 512.64 
L 90 311.04 
" style="fill:none;stroke:#262626;stroke-linecap:square;stroke-linejoin:miter;stroke-width:1.25;"/>
   </g>
   <g id="patch_7">
    <path d="M 90 512.64 
L 648 512.64 
" style="fill:none;stroke:#262626;stroke-linecap:square;stroke-linejoin:miter;stroke-width:1.25;"/>
   </g>
  </g>
 </g>
 <defs>
  <clipPath id="p76acd10b2c">
   <rect height="201.6" width="558" x="90" y="69.12"/>
  </clipPath>
  <clipPath id="p66f5e38536">
   <rect height="201.6" width="558" x="90" y="311.04"/>
  </clipPath>
 </defs>
</svg>
