<?xml version="1.0" encoding="utf-8" standalone="no"?>
<!DOCTYPE svg PUBLIC "-//W3C//DTD SVG 1.1//EN"
  "http://www.w3.org/Graphics/SVG/1.1/DTD/svg11.dtd">
<!-- Created with matplotlib (http://matplotlib.org/) -->
<svg height="576pt" version="1.1" viewBox="0 0 720 576" width="720pt" xmlns="http://www.w3.org/2000/svg" xmlns:xlink="http://www.w3.org/1999/xlink">
 <defs>
  <style type="text/css">
*{stroke-linecap:butt;stroke-linejoin:round;}
  </style>
 </defs>
 <g id="figure_1">
  <g id="patch_1">
   <path d="M 0 576 
L 720 576 
L 720 0 
L 0 0 
z
" style="fill:#ffffff;"/>
  </g>
  <g id="axes_1">
   <g id="patch_2">
    <path d="M 90 270.72 
L 648 270.72 
L 648 69.12 
L 90 69.12 
z
" style="fill:#ffffff;"/>
   </g>
   <g id="matplotlib.axis_1">
    <g id="xtick_1">
     <g id="line2d_1">
      <defs>
       <path d="M 0 0 
L 0 6 
" id="m0769b81dbe" style="stroke:#262626;"/>
      </defs>
      <g>
       <use style="fill:#262626;stroke:#262626;" x="90" xlink:href="#m0769b81dbe" y="270.72"/>
      </g>
     </g>
     <g id="text_1">
      <!-- 0 -->
      <defs>
       <path d="M 4.15625 35.296875 
Q 4.15625 48 6.765625 55.734375 
Q 9.375 63.484375 14.515625 67.671875 
Q 19.671875 71.875 27.484375 71.875 
Q 33.25 71.875 37.59375 69.546875 
Q 41.9375 67.234375 44.765625 62.859375 
Q 47.609375 58.5 49.21875 52.21875 
Q 50.828125 45.953125 50.828125 35.296875 
Q 50.828125 22.703125 48.234375 14.96875 
Q 45.65625 7.234375 40.5 3 
Q 35.359375 -1.21875 27.484375 -1.21875 
Q 17.140625 -1.21875 11.234375 6.203125 
Q 4.15625 15.140625 4.15625 35.296875 
z
M 13.1875 35.296875 
Q 13.1875 17.671875 17.3125 11.828125 
Q 21.4375 6 27.484375 6 
Q 33.546875 6 37.671875 11.859375 
Q 41.796875 17.71875 41.796875 35.296875 
Q 41.796875 52.984375 37.671875 58.78125 
Q 33.546875 64.59375 27.390625 64.59375 
Q 21.34375 64.59375 17.71875 59.46875 
Q 13.1875 52.9375 13.1875 35.296875 
z
" id="ArialMT-30"/>
      </defs>
      <g style="fill:#262626;" transform="translate(87.219531 290.877812)scale(0.1 -0.1)">
       <use xlink:href="#ArialMT-30"/>
      </g>
     </g>
    </g>
    <g id="xtick_2">
     <g id="line2d_2">
      <g>
       <use style="fill:#262626;stroke:#262626;" x="198.984375" xlink:href="#m0769b81dbe" y="270.72"/>
      </g>
     </g>
     <g id="text_2">
      <!-- 200 -->
      <defs>
       <path d="M 50.34375 8.453125 
L 50.34375 0 
L 3.03125 0 
Q 2.9375 3.171875 4.046875 6.109375 
Q 5.859375 10.9375 9.828125 15.625 
Q 13.8125 20.3125 21.34375 26.46875 
Q 33.015625 36.03125 37.109375 41.625 
Q 41.21875 47.21875 41.21875 52.203125 
Q 41.21875 57.421875 37.46875 61 
Q 33.734375 64.59375 27.734375 64.59375 
Q 21.390625 64.59375 17.578125 60.78125 
Q 13.765625 56.984375 13.71875 50.25 
L 4.6875 51.171875 
Q 5.609375 61.28125 11.65625 66.578125 
Q 17.71875 71.875 27.9375 71.875 
Q 38.234375 71.875 44.234375 66.15625 
Q 50.25 60.453125 50.25 52 
Q 50.25 47.703125 48.484375 43.546875 
Q 46.734375 39.40625 42.65625 34.8125 
Q 38.578125 30.21875 29.109375 22.21875 
Q 21.1875 15.578125 18.9375 13.203125 
Q 16.703125 10.84375 15.234375 8.453125 
z
" id="ArialMT-32"/>
      </defs>
      <g style="fill:#262626;" transform="translate(190.642969 290.877812)scale(0.1 -0.1)">
       <use xlink:href="#ArialMT-32"/>
       <use x="55.615234" xlink:href="#ArialMT-30"/>
       <use x="111.230469" xlink:href="#ArialMT-30"/>
      </g>
     </g>
    </g>
    <g id="xtick_3">
     <g id="line2d_3">
      <g>
       <use style="fill:#262626;stroke:#262626;" x="307.96875" xlink:href="#m0769b81dbe" y="270.72"/>
      </g>
     </g>
     <g id="text_3">
      <!-- 400 -->
      <defs>
       <path d="M 32.328125 0 
L 32.328125 17.140625 
L 1.265625 17.140625 
L 1.265625 25.203125 
L 33.9375 71.578125 
L 41.109375 71.578125 
L 41.109375 25.203125 
L 50.78125 25.203125 
L 50.78125 17.140625 
L 41.109375 17.140625 
L 41.109375 0 
z
M 32.328125 25.203125 
L 32.328125 57.46875 
L 9.90625 25.203125 
z
" id="ArialMT-34"/>
      </defs>
      <g style="fill:#262626;" transform="translate(299.627344 290.877812)scale(0.1 -0.1)">
       <use xlink:href="#ArialMT-34"/>
       <use x="55.615234" xlink:href="#ArialMT-30"/>
       <use x="111.230469" xlink:href="#ArialMT-30"/>
      </g>
     </g>
    </g>
    <g id="xtick_4">
     <g id="line2d_4">
      <g>
       <use style="fill:#262626;stroke:#262626;" x="416.953125" xlink:href="#m0769b81dbe" y="270.72"/>
      </g>
     </g>
     <g id="text_4">
      <!-- 600 -->
      <defs>
       <path d="M 49.75 54.046875 
L 41.015625 53.375 
Q 39.84375 58.546875 37.703125 60.890625 
Q 34.125 64.65625 28.90625 64.65625 
Q 24.703125 64.65625 21.53125 62.3125 
Q 17.390625 59.28125 14.984375 53.46875 
Q 12.59375 47.65625 12.5 36.921875 
Q 15.671875 41.75 20.265625 44.09375 
Q 24.859375 46.4375 29.890625 46.4375 
Q 38.671875 46.4375 44.84375 39.96875 
Q 51.03125 33.5 51.03125 23.25 
Q 51.03125 16.5 48.125 10.71875 
Q 45.21875 4.9375 40.140625 1.859375 
Q 35.0625 -1.21875 28.609375 -1.21875 
Q 17.625 -1.21875 10.6875 6.859375 
Q 3.765625 14.9375 3.765625 33.5 
Q 3.765625 54.25 11.421875 63.671875 
Q 18.109375 71.875 29.4375 71.875 
Q 37.890625 71.875 43.28125 67.140625 
Q 48.6875 62.40625 49.75 54.046875 
z
M 13.875 23.1875 
Q 13.875 18.65625 15.796875 14.5 
Q 17.71875 10.359375 21.1875 8.171875 
Q 24.65625 6 28.46875 6 
Q 34.03125 6 38.03125 10.484375 
Q 42.046875 14.984375 42.046875 22.703125 
Q 42.046875 30.125 38.078125 34.390625 
Q 34.125 38.671875 28.125 38.671875 
Q 22.171875 38.671875 18.015625 34.390625 
Q 13.875 30.125 13.875 23.1875 
z
" id="ArialMT-36"/>
      </defs>
      <g style="fill:#262626;" transform="translate(408.611719 290.877812)scale(0.1 -0.1)">
       <use xlink:href="#ArialMT-36"/>
       <use x="55.615234" xlink:href="#ArialMT-30"/>
       <use x="111.230469" xlink:href="#ArialMT-30"/>
      </g>
     </g>
    </g>
    <g id="xtick_5">
     <g id="line2d_5">
      <g>
       <use style="fill:#262626;stroke:#262626;" x="525.9375" xlink:href="#m0769b81dbe" y="270.72"/>
      </g>
     </g>
     <g id="text_5">
      <!-- 800 -->
      <defs>
       <path d="M 17.671875 38.8125 
Q 12.203125 40.828125 9.5625 44.53125 
Q 6.9375 48.25 6.9375 53.421875 
Q 6.9375 61.234375 12.546875 66.546875 
Q 18.171875 71.875 27.484375 71.875 
Q 36.859375 71.875 42.578125 66.421875 
Q 48.296875 60.984375 48.296875 53.171875 
Q 48.296875 48.1875 45.671875 44.5 
Q 43.0625 40.828125 37.75 38.8125 
Q 44.34375 36.671875 47.78125 31.875 
Q 51.21875 27.09375 51.21875 20.453125 
Q 51.21875 11.28125 44.71875 5.03125 
Q 38.234375 -1.21875 27.640625 -1.21875 
Q 17.046875 -1.21875 10.546875 5.046875 
Q 4.046875 11.328125 4.046875 20.703125 
Q 4.046875 27.6875 7.59375 32.390625 
Q 11.140625 37.109375 17.671875 38.8125 
z
M 15.921875 53.71875 
Q 15.921875 48.640625 19.1875 45.40625 
Q 22.46875 42.1875 27.6875 42.1875 
Q 32.765625 42.1875 36.015625 45.375 
Q 39.265625 48.578125 39.265625 53.21875 
Q 39.265625 58.0625 35.90625 61.359375 
Q 32.5625 64.65625 27.59375 64.65625 
Q 22.5625 64.65625 19.234375 61.421875 
Q 15.921875 58.203125 15.921875 53.71875 
z
M 13.09375 20.65625 
Q 13.09375 16.890625 14.875 13.375 
Q 16.65625 9.859375 20.171875 7.921875 
Q 23.6875 6 27.734375 6 
Q 34.03125 6 38.125 10.046875 
Q 42.234375 14.109375 42.234375 20.359375 
Q 42.234375 26.703125 38.015625 30.859375 
Q 33.796875 35.015625 27.4375 35.015625 
Q 21.234375 35.015625 17.15625 30.90625 
Q 13.09375 26.8125 13.09375 20.65625 
z
" id="ArialMT-38"/>
      </defs>
      <g style="fill:#262626;" transform="translate(517.596094 290.877812)scale(0.1 -0.1)">
       <use xlink:href="#ArialMT-38"/>
       <use x="55.615234" xlink:href="#ArialMT-30"/>
       <use x="111.230469" xlink:href="#ArialMT-30"/>
      </g>
     </g>
    </g>
    <g id="xtick_6">
     <g id="line2d_6">
      <g>
       <use style="fill:#262626;stroke:#262626;" x="634.921875" xlink:href="#m0769b81dbe" y="270.72"/>
      </g>
     </g>
     <g id="text_6">
      <!-- 1000 -->
      <defs>
       <path d="M 37.25 0 
L 28.46875 0 
L 28.46875 56 
Q 25.296875 52.984375 20.140625 49.953125 
Q 14.984375 46.921875 10.890625 45.40625 
L 10.890625 53.90625 
Q 18.265625 57.375 23.78125 62.296875 
Q 29.296875 67.234375 31.59375 71.875 
L 37.25 71.875 
z
" id="ArialMT-31"/>
      </defs>
      <g style="fill:#262626;" transform="translate(623.8 290.877812)scale(0.1 -0.1)">
       <use xlink:href="#ArialMT-31"/>
       <use x="55.615234" xlink:href="#ArialMT-30"/>
       <use x="111.230469" xlink:href="#ArialMT-30"/>
       <use x="166.845703" xlink:href="#ArialMT-30"/>
      </g>
     </g>
    </g>
   </g>
   <g id="matplotlib.axis_2">
    <g id="ytick_1">
     <g id="line2d_7">
      <defs>
       <path d="M 0 0 
L -6 0 
" id="m57f58f4f2e" style="stroke:#262626;"/>
      </defs>
      <g>
       <use style="fill:#262626;stroke:#262626;" x="90" xlink:href="#m57f58f4f2e" y="270.72"/>
      </g>
     </g>
     <g id="text_7">
      <!-- −0.6 -->
      <defs>
       <path d="M 52.828125 31.203125 
L 5.5625 31.203125 
L 5.5625 39.40625 
L 52.828125 39.40625 
z
" id="ArialMT-2212"/>
       <path d="M 9.078125 0 
L 9.078125 10.015625 
L 19.09375 10.015625 
L 19.09375 0 
z
" id="ArialMT-2e"/>
      </defs>
      <g style="fill:#262626;" transform="translate(57.259375 274.298906)scale(0.1 -0.1)">
       <use xlink:href="#ArialMT-2212"/>
       <use x="58.398438" xlink:href="#ArialMT-30"/>
       <use x="114.013672" xlink:href="#ArialMT-2e"/>
       <use x="141.796875" xlink:href="#ArialMT-36"/>
      </g>
     </g>
    </g>
    <g id="ytick_2">
     <g id="line2d_8">
      <g>
       <use style="fill:#262626;stroke:#262626;" x="90" xlink:href="#m57f58f4f2e" y="237.12"/>
      </g>
     </g>
     <g id="text_8">
      <!-- −0.4 -->
      <g style="fill:#262626;" transform="translate(57.259375 240.698906)scale(0.1 -0.1)">
       <use xlink:href="#ArialMT-2212"/>
       <use x="58.398438" xlink:href="#ArialMT-30"/>
       <use x="114.013672" xlink:href="#ArialMT-2e"/>
       <use x="141.796875" xlink:href="#ArialMT-34"/>
      </g>
     </g>
    </g>
    <g id="ytick_3">
     <g id="line2d_9">
      <g>
       <use style="fill:#262626;stroke:#262626;" x="90" xlink:href="#m57f58f4f2e" y="203.52"/>
      </g>
     </g>
     <g id="text_9">
      <!-- −0.2 -->
      <g style="fill:#262626;" transform="translate(57.259375 207.098906)scale(0.1 -0.1)">
       <use xlink:href="#ArialMT-2212"/>
       <use x="58.398438" xlink:href="#ArialMT-30"/>
       <use x="114.013672" xlink:href="#ArialMT-2e"/>
       <use x="141.796875" xlink:href="#ArialMT-32"/>
      </g>
     </g>
    </g>
    <g id="ytick_4">
     <g id="line2d_10">
      <g>
       <use style="fill:#262626;stroke:#262626;" x="90" xlink:href="#m57f58f4f2e" y="169.92"/>
      </g>
     </g>
     <g id="text_10">
      <!-- 0.0 -->
      <g style="fill:#262626;" transform="translate(63.1 173.498906)scale(0.1 -0.1)">
       <use xlink:href="#ArialMT-30"/>
       <use x="55.615234" xlink:href="#ArialMT-2e"/>
       <use x="83.398438" xlink:href="#ArialMT-30"/>
      </g>
     </g>
    </g>
    <g id="ytick_5">
     <g id="line2d_11">
      <g>
       <use style="fill:#262626;stroke:#262626;" x="90" xlink:href="#m57f58f4f2e" y="136.32"/>
      </g>
     </g>
     <g id="text_11">
      <!-- 0.2 -->
      <g style="fill:#262626;" transform="translate(63.1 139.898906)scale(0.1 -0.1)">
       <use xlink:href="#ArialMT-30"/>
       <use x="55.615234" xlink:href="#ArialMT-2e"/>
       <use x="83.398438" xlink:href="#ArialMT-32"/>
      </g>
     </g>
    </g>
    <g id="ytick_6">
     <g id="line2d_12">
      <g>
       <use style="fill:#262626;stroke:#262626;" x="90" xlink:href="#m57f58f4f2e" y="102.72"/>
      </g>
     </g>
     <g id="text_12">
      <!-- 0.4 -->
      <g style="fill:#262626;" transform="translate(63.1 106.298906)scale(0.1 -0.1)">
       <use xlink:href="#ArialMT-30"/>
       <use x="55.615234" xlink:href="#ArialMT-2e"/>
       <use x="83.398438" xlink:href="#ArialMT-34"/>
      </g>
     </g>
    </g>
    <g id="ytick_7">
     <g id="line2d_13">
      <g>
       <use style="fill:#262626;stroke:#262626;" x="90" xlink:href="#m57f58f4f2e" y="69.12"/>
      </g>
     </g>
     <g id="text_13">
      <!-- 0.6 -->
      <g style="fill:#262626;" transform="translate(63.1 72.698906)scale(0.1 -0.1)">
       <use xlink:href="#ArialMT-30"/>
       <use x="55.615234" xlink:href="#ArialMT-2e"/>
       <use x="83.398438" xlink:href="#ArialMT-36"/>
      </g>
     </g>
    </g>
   </g>
   <g id="line2d_14">
    <path clip-path="url(#p67a95d6061)" d="M 90 168.633135 
L 91.089844 166.290117 
L 92.179688 165.028887 
L 92.724609 164.859697 
L 93.814453 164.992998 
L 94.359375 165.223711 
L 95.449219 166.669512 
L 95.994141 167.659014 
L 96.539062 169.058672 
L 97.083984 170.03792 
L 100.898438 180.266191 
L 101.443359 181.271074 
L 102.533203 182.234941 
L 103.623047 181.819658 
L 104.167969 180.989092 
L 105.257812 178.251299 
L 106.347656 174.308672 
L 107.982422 167.83333 
L 109.072266 164.136797 
L 110.162109 161.670732 
L 110.707031 161.004229 
L 111.251953 160.655596 
L 111.796875 160.481279 
L 112.341797 160.54793 
L 112.886719 161.111895 
L 113.976562 162.88582 
L 115.611328 166.602861 
L 116.701172 168.42293 
L 117.246094 168.65877 
L 117.791016 168.520342 
L 118.335938 168.058916 
L 118.880859 167.17708 
L 121.605469 160.317217 
L 122.695312 159.020098 
L 123.240234 158.845781 
L 123.785156 159.081621 
L 124.330078 159.753252 
L 124.875 159.917314 
L 125.419922 161.019609 
L 128.144531 164.839189 
L 129.779297 165.726152 
L 130.324219 165.700518 
L 130.869141 166.023516 
L 131.414062 166.054277 
L 131.958984 166.223467 
L 132.503906 166.5721 
L 133.048828 166.566973 
L 133.59375 166.741289 
L 134.138672 167.269365 
L 134.683594 167.525713 
L 135.773438 168.37166 
L 137.408203 170.442949 
L 138.498047 172.201494 
L 139.587891 173.472979 
L 141.222656 174.385576 
L 141.767578 174.134355 
L 145.037109 173.842119 
L 145.582031 173.965166 
L 147.761719 172.345049 
L 148.306641 171.745195 
L 148.851562 171.463213 
L 149.396484 170.960771 
L 149.941406 170.945391 
L 150.486328 171.129961 
L 151.576172 171.991289 
L 153.755859 174.036943 
L 154.300781 174.113848 
L 154.845703 174.441973 
L 155.935547 173.144854 
L 156.480469 172.632158 
L 157.025391 171.786211 
L 160.839844 162.957598 
L 161.384766 161.86043 
L 161.929688 161.316973 
L 162.474609 160.973467 
L 163.019531 161.368242 
L 163.564453 161.470781 
L 164.654297 163.941973 
L 166.289062 170.150713 
L 168.46875 178.789629 
L 169.013672 180.414873 
L 170.103516 182.557939 
L 170.648438 183.337236 
L 171.193359 183.434648 
L 172.283203 183.250078 
L 172.828125 182.732256 
L 173.373047 182.547686 
L 175.007812 181.394121 
L 175.552734 180.948076 
L 177.1875 178.799883 
L 177.732422 177.805254 
L 181.546875 168.643389 
L 182.636719 166.505449 
L 183.726562 164.828936 
L 184.816406 164.162432 
L 185.90625 163.96248 
L 186.451172 164.141924 
L 186.996094 164.844316 
L 188.085938 166.654131 
L 189.720703 170.560869 
L 191.900391 177.354082 
L 192.990234 179.856035 
L 193.535156 180.748125 
L 194.080078 181.235186 
L 194.625 181.276201 
L 195.169922 180.77376 
L 196.259766 178.681963 
L 196.804688 177.359209 
L 201.164062 162.09627 
L 201.708984 160.460771 
L 202.253906 159.271318 
L 203.34375 158.271562 
L 203.888672 158.394609 
L 204.978516 160.322344 
L 206.613281 164.01375 
L 207.158203 164.910967 
L 207.703125 165.572344 
L 208.248047 165.956865 
L 208.792969 165.762041 
L 209.337891 165.269854 
L 209.882812 164.623857 
L 211.517578 161.081133 
L 212.0625 159.507158 
L 213.697266 157.179521 
L 214.242188 156.994951 
L 215.332031 157.261553 
L 216.421875 157.917803 
L 218.601562 160.19417 
L 219.146484 160.599199 
L 220.236328 161.604082 
L 220.78125 161.937334 
L 221.326172 162.116777 
L 221.871094 162.506426 
L 222.416016 162.690996 
L 224.595703 162.803789 
L 225.140625 163.3575 
L 225.685547 163.649736 
L 226.775391 164.767412 
L 227.320312 165.787676 
L 227.865234 166.556719 
L 228.410156 167.120684 
L 228.955078 168.007646 
L 230.044922 169.253496 
L 230.589844 169.540605 
L 231.134766 170.089189 
L 231.679688 170.15584 
L 232.224609 170.62752 
L 232.769531 170.407061 
L 233.314453 170.971025 
L 233.859375 171.042803 
L 234.949219 171.632402 
L 235.494141 171.781084 
L 236.039062 171.658037 
L 237.673828 170.617266 
L 239.853516 168.494707 
L 240.398438 168.387041 
L 240.943359 168.115312 
L 241.488281 168.351152 
L 242.033203 169.063799 
L 242.578125 169.320146 
L 245.302734 172.503984 
L 245.847656 172.703936 
L 246.392578 173.160234 
L 246.9375 173.042314 
L 247.482422 172.78084 
L 248.027344 172.139971 
L 249.117188 170.084062 
L 250.751953 165.905596 
L 251.841797 162.773027 
L 252.931641 160.296709 
L 253.476562 159.512285 
L 254.021484 159.061113 
L 254.566406 158.984209 
L 255.111328 159.47127 
L 255.65625 160.347979 
L 256.746094 163.880449 
L 260.015625 175.518633 
L 261.105469 178.112871 
L 262.195312 179.845781 
L 263.285156 180.819902 
L 263.830078 181.060869 
L 264.375 181.61458 
L 264.919922 181.758135 
L 265.464844 181.640215 
L 266.009766 181.778643 
L 267.644531 180.373857 
L 268.189453 179.722734 
L 269.279297 177.994951 
L 269.824219 176.815752 
L 270.369141 175.918535 
L 270.914062 174.318926 
L 272.003906 171.622148 
L 273.09375 168.894609 
L 275.818359 163.957354 
L 276.908203 162.665361 
L 277.998047 162.16292 
L 279.087891 162.855059 
L 280.177734 164.85457 
L 283.447266 175.503252 
L 284.537109 178.051348 
L 285.626953 179.538164 
L 286.716797 180.014971 
L 287.806641 178.953691 
L 288.351562 178.241045 
L 288.896484 176.826006 
L 289.986328 172.980791 
L 291.076172 168.643389 
L 292.166016 164.0804 
L 293.255859 160.773516 
L 293.800781 159.778887 
L 294.345703 159.240557 
L 294.890625 159.204668 
L 295.435547 159.727617 
L 295.980469 160.563311 
L 298.160156 164.910967 
L 299.25 166.243975 
L 300.339844 165.772295 
L 300.884766 165.044268 
L 304.154297 159.732744 
L 304.699219 158.845781 
L 305.244141 158.71248 
L 305.789062 157.876787 
L 306.333984 157.948564 
L 306.878906 157.907549 
L 307.96875 158.348467 
L 308.513672 158.994463 
L 309.603516 160.030107 
L 310.148438 160.773516 
L 311.238281 161.604082 
L 312.328125 162.239824 
L 312.873047 161.911699 
L 313.417969 162.116777 
L 314.507812 162.014238 
L 315.052734 162.22957 
L 315.597656 162.64998 
L 318.322266 165.68001 
L 318.867188 166.45418 
L 319.412109 166.951494 
L 319.957031 167.284746 
L 320.501953 168.074297 
L 321.046875 168.125566 
L 322.136719 169.115068 
L 323.226562 170.407061 
L 324.316406 171.688799 
L 324.861328 171.852861 
L 325.40625 172.503984 
L 325.951172 172.488604 
L 326.496094 172.586016 
L 327.041016 172.539873 
L 328.130859 171.965654 
L 329.220703 170.52498 
L 329.765625 170.186602 
L 330.310547 169.535479 
L 331.400391 168.930498 
L 331.945312 168.761309 
L 332.490234 168.786943 
L 333.035156 169.130449 
L 333.580078 169.766191 
L 334.125 170.207109 
L 336.304688 172.903887 
L 336.849609 173.472979 
L 337.939453 174.247148 
L 338.484375 174.27791 
L 339.029297 174.534258 
L 340.119141 173.155107 
L 341.208984 170.909502 
L 341.753906 169.063799 
L 342.298828 167.623125 
L 343.388672 164.01375 
L 343.933594 162.301348 
L 344.478516 160.978594 
L 345.023438 160.065996 
L 345.568359 159.625078 
L 346.113281 159.701982 
L 346.658203 160.286455 
L 347.748047 162.639727 
L 348.837891 165.767168 
L 349.382812 167.679521 
L 350.472656 170.99666 
L 351.5625 174.15999 
L 353.197266 177.877031 
L 353.742188 178.733232 
L 354.287109 179.94832 
L 355.921875 181.722246 
L 356.466797 182.286211 
L 357.011719 182.481035 
L 357.556641 182.92708 
L 358.101562 182.891191 
L 359.191406 182.470781 
L 360.28125 180.901934 
L 363.005859 175.769854 
L 363.550781 174.283037 
L 364.095703 173.190996 
L 364.640625 171.77083 
L 365.185547 170.842852 
L 366.275391 167.997393 
L 367.910156 164.162432 
L 368.455078 163.71126 
L 369 163.096025 
L 369.544922 163.013994 
L 370.089844 163.131914 
L 370.634766 163.444658 
L 372.814453 168.079424 
L 376.083984 178.020586 
L 377.173828 180.348223 
L 378.263672 181.486406 
L 378.808594 181.61458 
L 379.353516 181.153154 
L 379.898438 180.189287 
L 380.988281 176.918291 
L 383.167969 167.812822 
L 383.712891 165.521074 
L 384.257812 163.921465 
L 385.347656 161.952715 
L 385.892578 161.916826 
L 386.4375 162.116777 
L 386.982422 162.547441 
L 388.617188 165.080156 
L 389.162109 166.090166 
L 389.707031 166.500322 
L 390.796875 166.82332 
L 391.341797 166.597734 
L 391.886719 166.695146 
L 392.976562 165.567217 
L 393.521484 165.162187 
L 395.15625 162.127031 
L 396.246094 160.347979 
L 396.791016 159.640459 
L 397.335938 159.307207 
L 398.425781 159.138018 
L 398.970703 159.291826 
L 400.060547 160.306963 
L 401.150391 161.275957 
L 401.695312 161.229814 
L 402.240234 161.306719 
L 402.785156 161.50667 
L 403.875 161.639971 
L 404.419922 161.429766 
L 404.964844 161.537432 
L 405.509766 161.942461 
L 406.054688 162.183428 
L 406.599609 162.829424 
L 407.144531 163.219072 
L 407.689453 164.095781 
L 408.234375 164.623857 
L 408.779297 165.413408 
L 409.869141 166.202959 
L 410.414062 167.079668 
L 410.958984 167.22835 
L 411.503906 167.505205 
L 412.048828 168.397295 
L 412.59375 168.730547 
L 414.773438 171.432451 
L 415.318359 172.247637 
L 416.953125 173.708818 
L 418.042969 173.493486 
L 418.587891 173.001299 
L 419.132812 172.693682 
L 420.767578 171.309404 
L 421.3125 170.442949 
L 421.857422 170.453203 
L 422.402344 169.827715 
L 424.037109 169.689287 
L 425.671875 170.62752 
L 426.761719 172.201494 
L 428.941406 175.744219 
L 429.486328 176.24666 
L 430.03125 176.446611 
L 430.576172 176.385088 
L 431.121094 175.815996 
L 431.666016 174.811113 
L 432.210938 173.483232 
L 434.390625 166.274736 
L 436.025391 162.121904 
L 436.570312 161.496416 
L 437.660156 160.896562 
L 438.205078 161.101641 
L 439.294922 162.931963 
L 439.839844 164.121416 
L 444.199219 175.672441 
L 445.289062 178.056475 
L 445.833984 179.533037 
L 446.378906 180.281572 
L 446.923828 181.558184 
L 447.46875 182.127275 
L 448.013672 182.998857 
L 448.558594 183.537187 
L 449.103516 183.460283 
L 449.648438 183.711504 
L 451.283203 183.09627 
L 453.462891 180.789141 
L 454.552734 179.066484 
L 455.642578 176.467119 
L 456.732422 173.314043 
L 458.912109 167.284746 
L 460.001953 165.233965 
L 461.091797 164.408525 
L 461.636719 164.444414 
L 462.181641 164.639238 
L 463.271484 165.844072 
L 464.361328 167.83333 
L 465.451172 170.960771 
L 467.085938 176.410723 
L 468.175781 180.225176 
L 468.720703 181.68123 
L 469.265625 182.655352 
L 469.810547 183.188555 
L 470.355469 183.501299 
L 470.900391 182.69124 
L 471.990234 179.871416 
L 474.714844 169.402178 
L 475.804688 166.428545 
L 476.349609 165.495439 
L 477.439453 164.490557 
L 477.984375 164.808428 
L 478.529297 164.813555 
L 479.074219 165.192949 
L 479.619141 166.003008 
L 480.164062 166.484941 
L 481.253906 167.725664 
L 482.34375 168.284502 
L 482.888672 168.263994 
L 483.433594 167.966631 
L 484.523438 166.649004 
L 485.068359 165.32625 
L 485.613281 164.664873 
L 486.703125 162.460283 
L 487.792969 160.870928 
L 488.337891 160.537676 
L 489.427734 160.271074 
L 489.972656 160.363359 
L 490.517578 160.599199 
L 491.0625 160.476152 
L 491.607422 160.85042 
L 492.152344 160.588945 
L 492.697266 160.635088 
L 493.242188 160.881182 
L 494.876953 160.599199 
L 495.421875 161.060625 
L 495.966797 161.127275 
L 496.511719 161.516924 
L 497.056641 162.388506 
L 497.601562 162.644854 
L 498.691406 163.82918 
L 499.78125 165.095537 
L 500.326172 165.408281 
L 500.871094 165.926104 
L 502.505859 166.920732 
L 503.595703 168.212725 
L 505.775391 171.852861 
L 507.410156 173.513994 
L 509.044922 174.067705 
L 509.589844 173.626787 
L 510.134766 173.719072 
L 511.224609 172.939775 
L 511.769531 172.688555 
L 512.314453 172.068193 
L 512.859375 171.781084 
L 513.404297 171.027422 
L 513.949219 170.62752 
L 514.494141 169.92 
L 515.583984 169.750811 
L 516.673828 170.699297 
L 517.21875 171.499102 
L 520.488281 178.09749 
L 521.033203 178.548662 
L 521.578125 178.68709 
L 522.123047 178.553789 
L 522.667969 177.989824 
L 523.757812 175.841631 
L 524.302734 174.503496 
L 527.027344 166.428545 
L 527.572266 165.213457 
L 528.117188 164.352129 
L 528.662109 163.890703 
L 529.207031 163.742021 
L 529.751953 163.854814 
L 531.386719 165.777422 
L 533.021484 169.115068 
L 534.111328 171.852861 
L 535.746094 176.595293 
L 537.925781 182.004229 
L 539.015625 183.716631 
L 540.105469 185.213701 
L 540.650391 185.536699 
L 541.195312 186.049395 
L 542.285156 186.2596 
L 542.830078 186.546709 
L 543.375 186.295488 
L 543.919922 186.403154 
L 544.464844 185.890459 
L 545.554688 184.372881 
L 546.099609 183.326982 
L 546.644531 181.778643 
L 547.189453 180.650713 
L 549.369141 174.144609 
L 551.548828 169.248369 
L 552.09375 168.612627 
L 552.638672 167.771807 
L 553.183594 167.269365 
L 553.728516 166.936113 
L 554.273438 166.449053 
L 555.363281 167.612871 
L 555.908203 168.745928 
L 556.453125 170.207109 
L 557.542969 174.318926 
L 558.632812 178.92293 
L 559.722656 183.080889 
L 560.267578 184.547197 
L 560.8125 185.572588 
L 561.357422 185.808428 
L 561.902344 185.60335 
L 562.447266 185.126543 
L 563.537109 182.44002 
L 565.716797 175.016191 
L 567.351562 170.719805 
L 567.896484 169.468828 
L 568.441406 168.745928 
L 568.986328 168.346025 
L 569.53125 168.576738 
L 570.076172 168.566484 
L 570.621094 168.940752 
L 571.710938 170.160967 
L 572.255859 170.683916 
L 572.800781 171.391436 
L 573.345703 171.278643 
L 573.890625 171.355547 
L 574.980469 170.34041 
L 576.615234 167.746172 
L 577.160156 166.736162 
L 578.25 165.157061 
L 580.974609 163.157549 
L 581.519531 163.336992 
L 582.064453 163.00374 
L 582.609375 162.824297 
L 583.154297 162.173174 
L 583.699219 162.127031 
L 584.244141 161.865557 
L 584.789062 161.763018 
L 585.333984 161.916826 
L 585.878906 161.937334 
L 586.423828 162.234697 
L 587.513672 163.080645 
L 588.058594 163.30623 
L 590.238281 164.875078 
L 591.328125 165.418535 
L 591.873047 165.603105 
L 594.052734 167.617998 
L 596.777344 171.29915 
L 597.322266 172.401445 
L 597.867188 172.760332 
L 599.501953 174.359941 
L 600.591797 174.893145 
L 601.136719 174.923906 
L 602.226562 174.375322 
L 602.771484 173.862627 
L 606.041016 169.109941 
L 606.585938 169.115068 
L 607.130859 168.966387 
L 607.675781 169.309893 
L 608.765625 170.986406 
L 609.855469 173.370439 
L 610.400391 174.380449 
L 610.945312 175.903154 
L 612.035156 177.800127 
L 612.580078 177.933428 
L 613.125 178.369219 
L 613.669922 178.041094 
L 614.214844 177.472002 
L 615.304688 175.164873 
L 615.849609 173.339678 
L 616.939453 170.637773 
L 618.574219 166.320879 
L 619.119141 165.228838 
L 620.208984 163.747148 
L 621.298828 162.967852 
L 621.84375 162.942217 
L 622.388672 163.183184 
L 622.933594 163.552324 
L 623.478516 164.157305 
L 624.023438 164.987871 
L 625.658203 168.694658 
L 627.292969 173.129473 
L 629.472656 177.907793 
L 630.5625 179.599687 
L 633.287109 183.39876 
L 634.376953 184.244707 
L 635.466797 184.178057 
L 636.011719 183.783281 
L 636.556641 183.147539 
L 638.191406 180.097002 
L 638.736328 179.071611 
L 642.550781 169.166338 
L 644.185547 164.347002 
L 644.730469 163.419023 
L 645.275391 162.711504 
L 645.820312 162.291094 
L 646.365234 162.706377 
L 646.910156 163.598467 
L 647.455078 164.926348 
L 647.455078 164.926348 
" style="fill:none;stroke:#4c72b0;stroke-linecap:round;stroke-width:1.75;"/>
   </g>
   <g id="patch_3">
    <path d="M 90 270.72 
L 90 69.12 
" style="fill:none;stroke:#262626;stroke-linecap:square;stroke-linejoin:miter;stroke-width:1.25;"/>
   </g>
   <g id="patch_4">
    <path d="M 90 270.72 
L 648 270.72 
" style="fill:none;stroke:#262626;stroke-linecap:square;stroke-linejoin:miter;stroke-width:1.25;"/>
   </g>
  </g>
  <g id="axes_2">
   <g id="patch_5">
    <path d="M 90 512.64 
L 648 512.64 
L 648 311.04 
L 90 311.04 
z
" style="fill:#ffffff;"/>
   </g>
   <g id="matplotlib.axis_3">
    <g id="xtick_7">
     <g id="line2d_15">
      <g>
       <use style="fill:#262626;stroke:#262626;" x="218.197478" xlink:href="#m0769b81dbe" y="512.64"/>
      </g>
     </g>
     <g id="text_14">
      <!-- $\mathdefault{10^{2}}$ -->
      <g style="fill:#262626;" transform="translate(210.347478 535.9525)scale(0.1 -0.1)">
       <use transform="translate(0 0.99375)" xlink:href="#ArialMT-31"/>
       <use transform="translate(55.615234 0.99375)" xlink:href="#ArialMT-30"/>
       <use transform="translate(112.972813 70.6875)scale(0.7)" xlink:href="#ArialMT-32"/>
      </g>
     </g>
    </g>
    <g id="xtick_8">
     <g id="line2d_16">
      <g>
       <use style="fill:#262626;stroke:#262626;" x="401.606604" xlink:href="#m0769b81dbe" y="512.64"/>
      </g>
     </g>
     <g id="text_15">
      <!-- $\mathdefault{10^{3}}$ -->
      <defs>
       <path d="M 4.203125 18.890625 
L 12.984375 20.0625 
Q 14.5 12.59375 18.140625 9.296875 
Q 21.78125 6 27 6 
Q 33.203125 6 37.46875 10.296875 
Q 41.75 14.59375 41.75 20.953125 
Q 41.75 27 37.796875 30.921875 
Q 33.84375 34.859375 27.734375 34.859375 
Q 25.25 34.859375 21.53125 33.890625 
L 22.515625 41.609375 
Q 23.390625 41.5 23.921875 41.5 
Q 29.546875 41.5 34.03125 44.421875 
Q 38.53125 47.359375 38.53125 53.46875 
Q 38.53125 58.296875 35.25 61.46875 
Q 31.984375 64.65625 26.8125 64.65625 
Q 21.6875 64.65625 18.265625 61.421875 
Q 14.84375 58.203125 13.875 51.765625 
L 5.078125 53.328125 
Q 6.6875 62.15625 12.390625 67.015625 
Q 18.109375 71.875 26.609375 71.875 
Q 32.46875 71.875 37.390625 69.359375 
Q 42.328125 66.84375 44.9375 62.5 
Q 47.5625 58.15625 47.5625 53.265625 
Q 47.5625 48.640625 45.0625 44.828125 
Q 42.578125 41.015625 37.703125 38.765625 
Q 44.046875 37.3125 47.5625 32.6875 
Q 51.078125 28.078125 51.078125 21.140625 
Q 51.078125 11.765625 44.234375 5.25 
Q 37.40625 -1.265625 26.953125 -1.265625 
Q 17.53125 -1.265625 11.296875 4.34375 
Q 5.078125 9.96875 4.203125 18.890625 
z
" id="ArialMT-33"/>
      </defs>
      <g style="fill:#262626;" transform="translate(393.756604 535.9525)scale(0.1 -0.1)">
       <use transform="translate(0 0.99375)" xlink:href="#ArialMT-31"/>
       <use transform="translate(55.615234 0.99375)" xlink:href="#ArialMT-30"/>
       <use transform="translate(112.972813 70.6875)scale(0.7)" xlink:href="#ArialMT-33"/>
      </g>
     </g>
    </g>
    <g id="xtick_9">
     <g id="line2d_17">
      <g>
       <use style="fill:#262626;stroke:#262626;" x="585.01573" xlink:href="#m0769b81dbe" y="512.64"/>
      </g>
     </g>
     <g id="text_16">
      <!-- $\mathdefault{10^{4}}$ -->
      <g style="fill:#262626;" transform="translate(577.16573 535.8525)scale(0.1 -0.1)">
       <use transform="translate(0 0.201563)" xlink:href="#ArialMT-31"/>
       <use transform="translate(55.615234 0.201563)" xlink:href="#ArialMT-30"/>
       <use transform="translate(112.972813 69.895313)scale(0.7)" xlink:href="#ArialMT-34"/>
      </g>
     </g>
    </g>
    <g id="xtick_10">
     <g id="line2d_18">
      <defs>
       <path d="M 0 0 
L 0 3 
" id="m5afbb7480b" style="stroke:#262626;stroke-width:0.5;"/>
      </defs>
      <g>
       <use style="fill:#262626;stroke:#262626;stroke-width:0.5;" x="90" xlink:href="#m5afbb7480b" y="512.64"/>
      </g>
     </g>
    </g>
    <g id="xtick_11">
     <g id="line2d_19">
      <g>
       <use style="fill:#262626;stroke:#262626;stroke-width:0.5;" x="122.296744" xlink:href="#m5afbb7480b" y="512.64"/>
      </g>
     </g>
    </g>
    <g id="xtick_12">
     <g id="line2d_20">
      <g>
       <use style="fill:#262626;stroke:#262626;stroke-width:0.5;" x="145.211648" xlink:href="#m5afbb7480b" y="512.64"/>
      </g>
     </g>
    </g>
    <g id="xtick_13">
     <g id="line2d_21">
      <g>
       <use style="fill:#262626;stroke:#262626;stroke-width:0.5;" x="162.985829" xlink:href="#m5afbb7480b" y="512.64"/>
      </g>
     </g>
    </g>
    <g id="xtick_14">
     <g id="line2d_22">
      <g>
       <use style="fill:#262626;stroke:#262626;stroke-width:0.5;" x="177.508392" xlink:href="#m5afbb7480b" y="512.64"/>
      </g>
     </g>
    </g>
    <g id="xtick_15">
     <g id="line2d_23">
      <g>
       <use style="fill:#262626;stroke:#262626;stroke-width:0.5;" x="189.787045" xlink:href="#m5afbb7480b" y="512.64"/>
      </g>
     </g>
    </g>
    <g id="xtick_16">
     <g id="line2d_24">
      <g>
       <use style="fill:#262626;stroke:#262626;stroke-width:0.5;" x="200.423297" xlink:href="#m5afbb7480b" y="512.64"/>
      </g>
     </g>
    </g>
    <g id="xtick_17">
     <g id="line2d_25">
      <g>
       <use style="fill:#262626;stroke:#262626;stroke-width:0.5;" x="209.805136" xlink:href="#m5afbb7480b" y="512.64"/>
      </g>
     </g>
    </g>
    <g id="xtick_18">
     <g id="line2d_26">
      <g>
       <use style="fill:#262626;stroke:#262626;stroke-width:0.5;" x="273.409126" xlink:href="#m5afbb7480b" y="512.64"/>
      </g>
     </g>
    </g>
    <g id="xtick_19">
     <g id="line2d_27">
      <g>
       <use style="fill:#262626;stroke:#262626;stroke-width:0.5;" x="305.70587" xlink:href="#m5afbb7480b" y="512.64"/>
      </g>
     </g>
    </g>
    <g id="xtick_20">
     <g id="line2d_28">
      <g>
       <use style="fill:#262626;stroke:#262626;stroke-width:0.5;" x="328.620775" xlink:href="#m5afbb7480b" y="512.64"/>
      </g>
     </g>
    </g>
    <g id="xtick_21">
     <g id="line2d_29">
      <g>
       <use style="fill:#262626;stroke:#262626;stroke-width:0.5;" x="346.394955" xlink:href="#m5afbb7480b" y="512.64"/>
      </g>
     </g>
    </g>
    <g id="xtick_22">
     <g id="line2d_30">
      <g>
       <use style="fill:#262626;stroke:#262626;stroke-width:0.5;" x="360.917518" xlink:href="#m5afbb7480b" y="512.64"/>
      </g>
     </g>
    </g>
    <g id="xtick_23">
     <g id="line2d_31">
      <g>
       <use style="fill:#262626;stroke:#262626;stroke-width:0.5;" x="373.196171" xlink:href="#m5afbb7480b" y="512.64"/>
      </g>
     </g>
    </g>
    <g id="xtick_24">
     <g id="line2d_32">
      <g>
       <use style="fill:#262626;stroke:#262626;stroke-width:0.5;" x="383.832423" xlink:href="#m5afbb7480b" y="512.64"/>
      </g>
     </g>
    </g>
    <g id="xtick_25">
     <g id="line2d_33">
      <g>
       <use style="fill:#262626;stroke:#262626;stroke-width:0.5;" x="393.214262" xlink:href="#m5afbb7480b" y="512.64"/>
      </g>
     </g>
    </g>
    <g id="xtick_26">
     <g id="line2d_34">
      <g>
       <use style="fill:#262626;stroke:#262626;stroke-width:0.5;" x="456.818252" xlink:href="#m5afbb7480b" y="512.64"/>
      </g>
     </g>
    </g>
    <g id="xtick_27">
     <g id="line2d_35">
      <g>
       <use style="fill:#262626;stroke:#262626;stroke-width:0.5;" x="489.114996" xlink:href="#m5afbb7480b" y="512.64"/>
      </g>
     </g>
    </g>
    <g id="xtick_28">
     <g id="line2d_36">
      <g>
       <use style="fill:#262626;stroke:#262626;stroke-width:0.5;" x="512.029901" xlink:href="#m5afbb7480b" y="512.64"/>
      </g>
     </g>
    </g>
    <g id="xtick_29">
     <g id="line2d_37">
      <g>
       <use style="fill:#262626;stroke:#262626;stroke-width:0.5;" x="529.804081" xlink:href="#m5afbb7480b" y="512.64"/>
      </g>
     </g>
    </g>
    <g id="xtick_30">
     <g id="line2d_38">
      <g>
       <use style="fill:#262626;stroke:#262626;stroke-width:0.5;" x="544.326645" xlink:href="#m5afbb7480b" y="512.64"/>
      </g>
     </g>
    </g>
    <g id="xtick_31">
     <g id="line2d_39">
      <g>
       <use style="fill:#262626;stroke:#262626;stroke-width:0.5;" x="556.605297" xlink:href="#m5afbb7480b" y="512.64"/>
      </g>
     </g>
    </g>
    <g id="xtick_32">
     <g id="line2d_40">
      <g>
       <use style="fill:#262626;stroke:#262626;stroke-width:0.5;" x="567.241549" xlink:href="#m5afbb7480b" y="512.64"/>
      </g>
     </g>
    </g>
    <g id="xtick_33">
     <g id="line2d_41">
      <g>
       <use style="fill:#262626;stroke:#262626;stroke-width:0.5;" x="576.623389" xlink:href="#m5afbb7480b" y="512.64"/>
      </g>
     </g>
    </g>
    <g id="xtick_34">
     <g id="line2d_42">
      <g>
       <use style="fill:#262626;stroke:#262626;stroke-width:0.5;" x="640.227378" xlink:href="#m5afbb7480b" y="512.64"/>
      </g>
     </g>
    </g>
   </g>
   <g id="matplotlib.axis_4">
    <g id="ytick_8">
     <g id="line2d_43">
      <g>
       <use style="fill:#262626;stroke:#262626;" x="90" xlink:href="#m57f58f4f2e" y="512.64"/>
      </g>
     </g>
     <g id="text_17">
      <!-- $\mathdefault{10^{-5}}$ -->
      <defs>
       <path d="M 4.15625 18.75 
L 13.375 19.53125 
Q 14.40625 12.796875 18.140625 9.390625 
Q 21.875 6 27.15625 6 
Q 33.5 6 37.890625 10.78125 
Q 42.28125 15.578125 42.28125 23.484375 
Q 42.28125 31 38.0625 35.34375 
Q 33.84375 39.703125 27 39.703125 
Q 22.75 39.703125 19.328125 37.765625 
Q 15.921875 35.84375 13.96875 32.765625 
L 5.71875 33.84375 
L 12.640625 70.609375 
L 48.25 70.609375 
L 48.25 62.203125 
L 19.671875 62.203125 
L 15.828125 42.96875 
Q 22.265625 47.46875 29.34375 47.46875 
Q 38.71875 47.46875 45.15625 40.96875 
Q 51.609375 34.46875 51.609375 24.265625 
Q 51.609375 14.546875 45.953125 7.46875 
Q 39.0625 -1.21875 27.15625 -1.21875 
Q 17.390625 -1.21875 11.203125 4.25 
Q 5.03125 9.71875 4.15625 18.75 
z
" id="ArialMT-35"/>
      </defs>
      <g style="fill:#262626;" transform="translate(57.2 517.74625)scale(0.1 -0.1)">
       <use transform="translate(0 0.879688)" xlink:href="#ArialMT-31"/>
       <use transform="translate(55.615234 0.879688)" xlink:href="#ArialMT-30"/>
       <use transform="translate(112.972813 70.573438)scale(0.7)" xlink:href="#ArialMT-2212"/>
       <use transform="translate(153.851719 70.573438)scale(0.7)" xlink:href="#ArialMT-35"/>
      </g>
     </g>
    </g>
    <g id="ytick_9">
     <g id="line2d_44">
      <g>
       <use style="fill:#262626;stroke:#262626;" x="90" xlink:href="#m57f58f4f2e" y="465.767507"/>
      </g>
     </g>
     <g id="text_18">
      <!-- $\mathdefault{10^{-4}}$ -->
      <g style="fill:#262626;" transform="translate(57.2 470.873757)scale(0.1 -0.1)">
       <use transform="translate(0 0.201563)" xlink:href="#ArialMT-31"/>
       <use transform="translate(55.615234 0.201563)" xlink:href="#ArialMT-30"/>
       <use transform="translate(112.972813 69.895313)scale(0.7)" xlink:href="#ArialMT-2212"/>
       <use transform="translate(153.851719 69.895313)scale(0.7)" xlink:href="#ArialMT-34"/>
      </g>
     </g>
    </g>
    <g id="ytick_10">
     <g id="line2d_45">
      <g>
       <use style="fill:#262626;stroke:#262626;" x="90" xlink:href="#m57f58f4f2e" y="418.895013"/>
      </g>
     </g>
     <g id="text_19">
      <!-- $\mathdefault{10^{-3}}$ -->
      <g style="fill:#262626;" transform="translate(57.2 424.051263)scale(0.1 -0.1)">
       <use transform="translate(0 0.99375)" xlink:href="#ArialMT-31"/>
       <use transform="translate(55.615234 0.99375)" xlink:href="#ArialMT-30"/>
       <use transform="translate(112.972813 70.6875)scale(0.7)" xlink:href="#ArialMT-2212"/>
       <use transform="translate(153.851719 70.6875)scale(0.7)" xlink:href="#ArialMT-33"/>
      </g>
     </g>
    </g>
    <g id="ytick_11">
     <g id="line2d_46">
      <g>
       <use style="fill:#262626;stroke:#262626;" x="90" xlink:href="#m57f58f4f2e" y="372.02252"/>
      </g>
     </g>
     <g id="text_20">
      <!-- $\mathdefault{10^{-2}}$ -->
      <g style="fill:#262626;" transform="translate(57.2 377.17877)scale(0.1 -0.1)">
       <use transform="translate(0 0.99375)" xlink:href="#ArialMT-31"/>
       <use transform="translate(55.615234 0.99375)" xlink:href="#ArialMT-30"/>
       <use transform="translate(112.972813 70.6875)scale(0.7)" xlink:href="#ArialMT-2212"/>
       <use transform="translate(153.851719 70.6875)scale(0.7)" xlink:href="#ArialMT-32"/>
      </g>
     </g>
    </g>
    <g id="ytick_12">
     <g id="line2d_47">
      <g>
       <use style="fill:#262626;stroke:#262626;" x="90" xlink:href="#m57f58f4f2e" y="325.150026"/>
      </g>
     </g>
     <g id="text_21">
      <!-- $\mathdefault{10^{-1}}$ -->
      <g style="fill:#262626;" transform="translate(57.2 330.306276)scale(0.1 -0.1)">
       <use transform="translate(0 0.99375)" xlink:href="#ArialMT-31"/>
       <use transform="translate(55.615234 0.99375)" xlink:href="#ArialMT-30"/>
       <use transform="translate(112.972813 70.6875)scale(0.7)" xlink:href="#ArialMT-2212"/>
       <use transform="translate(153.851719 70.6875)scale(0.7)" xlink:href="#ArialMT-31"/>
      </g>
     </g>
    </g>
    <g id="ytick_13">
     <g id="line2d_48">
      <defs>
       <path d="M 0 0 
L -3 0 
" id="m447877c097" style="stroke:#262626;stroke-width:0.5;"/>
      </defs>
      <g>
       <use style="fill:#262626;stroke:#262626;stroke-width:0.5;" x="90" xlink:href="#m447877c097" y="498.529974"/>
      </g>
     </g>
    </g>
    <g id="ytick_14">
     <g id="line2d_49">
      <g>
       <use style="fill:#262626;stroke:#262626;stroke-width:0.5;" x="90" xlink:href="#m447877c097" y="490.276137"/>
      </g>
     </g>
    </g>
    <g id="ytick_15">
     <g id="line2d_50">
      <g>
       <use style="fill:#262626;stroke:#262626;stroke-width:0.5;" x="90" xlink:href="#m447877c097" y="484.419947"/>
      </g>
     </g>
    </g>
    <g id="ytick_16">
     <g id="line2d_51">
      <g>
       <use style="fill:#262626;stroke:#262626;stroke-width:0.5;" x="90" xlink:href="#m447877c097" y="479.877533"/>
      </g>
     </g>
    </g>
    <g id="ytick_17">
     <g id="line2d_52">
      <g>
       <use style="fill:#262626;stroke:#262626;stroke-width:0.5;" x="90" xlink:href="#m447877c097" y="476.166111"/>
      </g>
     </g>
    </g>
    <g id="ytick_18">
     <g id="line2d_53">
      <g>
       <use style="fill:#262626;stroke:#262626;stroke-width:0.5;" x="90" xlink:href="#m447877c097" y="473.028148"/>
      </g>
     </g>
    </g>
    <g id="ytick_19">
     <g id="line2d_54">
      <g>
       <use style="fill:#262626;stroke:#262626;stroke-width:0.5;" x="90" xlink:href="#m447877c097" y="470.309921"/>
      </g>
     </g>
    </g>
    <g id="ytick_20">
     <g id="line2d_55">
      <g>
       <use style="fill:#262626;stroke:#262626;stroke-width:0.5;" x="90" xlink:href="#m447877c097" y="467.912274"/>
      </g>
     </g>
    </g>
    <g id="ytick_21">
     <g id="line2d_56">
      <g>
       <use style="fill:#262626;stroke:#262626;stroke-width:0.5;" x="90" xlink:href="#m447877c097" y="451.65748"/>
      </g>
     </g>
    </g>
    <g id="ytick_22">
     <g id="line2d_57">
      <g>
       <use style="fill:#262626;stroke:#262626;stroke-width:0.5;" x="90" xlink:href="#m447877c097" y="443.403644"/>
      </g>
     </g>
    </g>
    <g id="ytick_23">
     <g id="line2d_58">
      <g>
       <use style="fill:#262626;stroke:#262626;stroke-width:0.5;" x="90" xlink:href="#m447877c097" y="437.547454"/>
      </g>
     </g>
    </g>
    <g id="ytick_24">
     <g id="line2d_59">
      <g>
       <use style="fill:#262626;stroke:#262626;stroke-width:0.5;" x="90" xlink:href="#m447877c097" y="433.00504"/>
      </g>
     </g>
    </g>
    <g id="ytick_25">
     <g id="line2d_60">
      <g>
       <use style="fill:#262626;stroke:#262626;stroke-width:0.5;" x="90" xlink:href="#m447877c097" y="429.293617"/>
      </g>
     </g>
    </g>
    <g id="ytick_26">
     <g id="line2d_61">
      <g>
       <use style="fill:#262626;stroke:#262626;stroke-width:0.5;" x="90" xlink:href="#m447877c097" y="426.155654"/>
      </g>
     </g>
    </g>
    <g id="ytick_27">
     <g id="line2d_62">
      <g>
       <use style="fill:#262626;stroke:#262626;stroke-width:0.5;" x="90" xlink:href="#m447877c097" y="423.437427"/>
      </g>
     </g>
    </g>
    <g id="ytick_28">
     <g id="line2d_63">
      <g>
       <use style="fill:#262626;stroke:#262626;stroke-width:0.5;" x="90" xlink:href="#m447877c097" y="421.039781"/>
      </g>
     </g>
    </g>
    <g id="ytick_29">
     <g id="line2d_64">
      <g>
       <use style="fill:#262626;stroke:#262626;stroke-width:0.5;" x="90" xlink:href="#m447877c097" y="404.784987"/>
      </g>
     </g>
    </g>
    <g id="ytick_30">
     <g id="line2d_65">
      <g>
       <use style="fill:#262626;stroke:#262626;stroke-width:0.5;" x="90" xlink:href="#m447877c097" y="396.53115"/>
      </g>
     </g>
    </g>
    <g id="ytick_31">
     <g id="line2d_66">
      <g>
       <use style="fill:#262626;stroke:#262626;stroke-width:0.5;" x="90" xlink:href="#m447877c097" y="390.67496"/>
      </g>
     </g>
    </g>
    <g id="ytick_32">
     <g id="line2d_67">
      <g>
       <use style="fill:#262626;stroke:#262626;stroke-width:0.5;" x="90" xlink:href="#m447877c097" y="386.132546"/>
      </g>
     </g>
    </g>
    <g id="ytick_33">
     <g id="line2d_68">
      <g>
       <use style="fill:#262626;stroke:#262626;stroke-width:0.5;" x="90" xlink:href="#m447877c097" y="382.421124"/>
      </g>
     </g>
    </g>
    <g id="ytick_34">
     <g id="line2d_69">
      <g>
       <use style="fill:#262626;stroke:#262626;stroke-width:0.5;" x="90" xlink:href="#m447877c097" y="379.283161"/>
      </g>
     </g>
    </g>
    <g id="ytick_35">
     <g id="line2d_70">
      <g>
       <use style="fill:#262626;stroke:#262626;stroke-width:0.5;" x="90" xlink:href="#m447877c097" y="376.564934"/>
      </g>
     </g>
    </g>
    <g id="ytick_36">
     <g id="line2d_71">
      <g>
       <use style="fill:#262626;stroke:#262626;stroke-width:0.5;" x="90" xlink:href="#m447877c097" y="374.167288"/>
      </g>
     </g>
    </g>
    <g id="ytick_37">
     <g id="line2d_72">
      <g>
       <use style="fill:#262626;stroke:#262626;stroke-width:0.5;" x="90" xlink:href="#m447877c097" y="357.912493"/>
      </g>
     </g>
    </g>
    <g id="ytick_38">
     <g id="line2d_73">
      <g>
       <use style="fill:#262626;stroke:#262626;stroke-width:0.5;" x="90" xlink:href="#m447877c097" y="349.658657"/>
      </g>
     </g>
    </g>
    <g id="ytick_39">
     <g id="line2d_74">
      <g>
       <use style="fill:#262626;stroke:#262626;stroke-width:0.5;" x="90" xlink:href="#m447877c097" y="343.802467"/>
      </g>
     </g>
    </g>
    <g id="ytick_40">
     <g id="line2d_75">
      <g>
       <use style="fill:#262626;stroke:#262626;stroke-width:0.5;" x="90" xlink:href="#m447877c097" y="339.260053"/>
      </g>
     </g>
    </g>
    <g id="ytick_41">
     <g id="line2d_76">
      <g>
       <use style="fill:#262626;stroke:#262626;stroke-width:0.5;" x="90" xlink:href="#m447877c097" y="335.548631"/>
      </g>
     </g>
    </g>
    <g id="ytick_42">
     <g id="line2d_77">
      <g>
       <use style="fill:#262626;stroke:#262626;stroke-width:0.5;" x="90" xlink:href="#m447877c097" y="332.410668"/>
      </g>
     </g>
    </g>
    <g id="ytick_43">
     <g id="line2d_78">
      <g>
       <use style="fill:#262626;stroke:#262626;stroke-width:0.5;" x="90" xlink:href="#m447877c097" y="329.69244"/>
      </g>
     </g>
    </g>
    <g id="ytick_44">
     <g id="line2d_79">
      <g>
       <use style="fill:#262626;stroke:#262626;stroke-width:0.5;" x="90" xlink:href="#m447877c097" y="327.294794"/>
      </g>
     </g>
    </g>
    <g id="ytick_45">
     <g id="line2d_80">
      <g>
       <use style="fill:#262626;stroke:#262626;stroke-width:0.5;" x="90" xlink:href="#m447877c097" y="311.04"/>
      </g>
     </g>
    </g>
   </g>
   <g id="line2d_81">
    <path clip-path="url(#p1781d567c0)" d="M -1 385.972335 
L 151.095164 385.908545 
L 206.306812 424.688376 
L 238.603556 407.532084 
L 261.518461 409.979724 
L 279.292642 438.037189 
L 293.815205 363.505474 
L 306.093857 420.40427 
L 316.730109 416.192608 
L 326.111949 427.038198 
L 334.50429 436.973491 
L 342.096086 434.55988 
L 349.026853 377.922944 
L 355.402541 407.659562 
L 361.305505 410.31876 
L 366.801034 411.462862 
L 371.941758 408.548554 
L 376.770725 402.678888 
L 381.323597 369.147141 
L 385.630245 413.772722 
L 389.715939 427.696521 
L 393.602249 420.447076 
L 397.307735 413.826699 
L 400.848476 402.091009 
L 404.238502 368.732692 
L 407.490119 404.665783 
L 410.614189 436.071788 
L 413.620341 441.492957 
L 416.517154 419.064584 
L 419.312303 401.354776 
L 422.012683 371.81983 
L 424.624509 383.760622 
L 427.153406 402.426069 
L 429.604479 411.683862 
L 431.982374 418.580625 
L 434.291335 423.449899 
L 436.535246 418.622054 
L 438.717672 411.127572 
L 440.841893 418.534257 
L 442.910933 420.082762 
L 444.927587 418.29975 
L 446.894442 410.785819 
L 448.813898 393.723404 
L 450.688186 380.166484 
L 452.519383 408.485989 
L 454.309426 419.551679 
L 457.773171 434.714146 
L 459.45015 441.042726 
L 461.09255 417.741861 
L 462.701768 440.685195 
L 464.279118 449.878894 
L 465.825838 457.737576 
L 467.343094 474.685007 
L 468.83199 471.004858 
L 470.293564 403.411549 
L 471.728802 423.100076 
L 473.138637 433.429852 
L 474.523951 437.946052 
L 475.885584 443.075367 
L 477.224331 444.941286 
L 478.540949 439.855189 
L 479.836157 447.082047 
L 481.110642 450.401456 
L 482.365055 446.211497 
L 483.600019 454.291545 
L 484.816127 459.619769 
L 486.013948 447.570965 
L 487.194022 438.863075 
L 488.356869 462.287068 
L 489.502983 466.855006 
L 490.63284 462.581963 
L 491.746894 461.876928 
L 492.845581 456.617153 
L 493.92932 430.173918 
L 494.998512 429.495393 
L 496.053541 448.393414 
L 497.094779 452.415554 
L 498.122582 454.844914 
L 499.137291 455.342341 
L 500.139235 466.374368 
L 501.128734 431.678595 
L 502.10609 456.182803 
L 503.0716 465.398482 
L 504.025546 462.315878 
L 504.968203 482.764036 
L 505.899834 459.488347 
L 506.820695 458.204169 
L 507.731032 466.233056 
L 508.631082 470.121386 
L 509.521075 462.791811 
L 510.401234 465.225893 
L 511.271773 479.280112 
L 512.132901 477.059122 
L 512.984819 463.782842 
L 513.827722 457.135408 
L 514.661799 465.887237 
L 515.487232 469.226578 
L 516.304198 469.198616 
L 517.112871 464.602939 
L 517.913416 474.451092 
L 518.705996 467.505832 
L 519.490766 468.400527 
L 520.26788 467.170964 
L 521.037486 474.417518 
L 521.799727 475.435868 
L 522.554743 472.238249 
L 523.302669 477.381385 
L 524.043638 475.735474 
L 524.777778 475.860718 
L 525.505212 466.050449 
L 526.226064 477.128544 
L 526.940451 475.443372 
L 527.648487 481.173258 
L 528.350285 474.273342 
L 529.045954 482.851968 
L 529.7356 475.090204 
L 530.419326 471.470199 
L 531.769418 476.138442 
L 532.435979 482.480728 
L 533.097009 480.67874 
L 533.752597 497.845545 
L 534.402834 474.114394 
L 535.047806 476.339408 
L 535.687597 483.138043 
L 536.32229 483.330526 
L 536.951966 479.002563 
L 537.576703 481.391922 
L 538.811667 472.309048 
L 539.422042 481.472134 
L 540.027776 494.251883 
L 540.628938 483.704332 
L 541.225596 486.241678 
L 541.817819 479.860834 
L 542.989216 482.999877 
L 543.568517 495.718458 
L 544.143636 484.586419 
L 544.714632 488.835147 
L 545.281563 486.5778 
L 545.844488 499.638878 
L 546.958543 474.394383 
L 547.509781 471.513783 
L 548.05723 490.382728 
L 548.600942 490.174504 
L 549.140969 484.225981 
L 549.677358 486.709743 
L 550.21016 490.315468 
L 550.739422 491.209984 
L 551.26519 482.409163 
L 551.78751 483.256351 
L 552.306428 493.869489 
L 552.821987 487.110029 
L 553.33423 488.646026 
L 553.8432 496.700836 
L 554.348939 492.717081 
L 554.851487 490.440666 
L 555.350884 476.454247 
L 555.847169 483.528114 
L 556.340382 480.690822 
L 556.830559 502.23911 
L 557.317739 480.751382 
L 557.801956 492.108137 
L 558.283248 482.811881 
L 558.76165 490.967096 
L 559.237195 503.890663 
L 559.709918 496.380851 
L 560.179852 480.461478 
L 560.647029 496.28358 
L 561.111483 486.442936 
L 561.573244 496.553595 
L 562.032344 488.823644 
L 562.488812 506.274441 
L 562.94268 485.770583 
L 563.393976 483.21503 
L 563.84273 481.824073 
L 564.28897 505.053789 
L 564.732723 492.452162 
L 565.174019 492.705947 
L 565.612882 484.151612 
L 566.049341 486.181758 
L 566.483422 487.438786 
L 566.91515 480.788327 
L 567.34455 489.956291 
L 567.771648 494.313513 
L 568.196468 485.11817 
L 568.619034 514.969224 
L 569.039371 510.44612 
L 569.457501 499.148494 
L 569.873447 481.157969 
L 570.287233 484.14847 
L 571.108411 488.712053 
L 571.515847 496.460828 
L 571.921209 511.749135 
L 572.32452 484.319405 
L 572.725798 486.116077 
L 573.125065 482.402862 
L 573.52234 495.371752 
L 573.917644 492.354289 
L 574.310996 497.559003 
L 574.702415 491.471092 
L 575.091919 504.128683 
L 575.479529 508.553777 
L 575.865261 497.534135 
L 576.249135 504.870254 
L 576.631167 492.599023 
L 577.011376 485.908172 
L 577.389778 486.528339 
L 577.766391 495.109951 
L 578.141232 488.801194 
L 578.514318 492.529033 
L 578.885664 504.959562 
L 579.255287 483.690778 
L 579.623202 493.244002 
L 579.989426 490.607906 
L 580.353974 494.697441 
L 580.716861 491.187557 
L 581.078102 498.114117 
L 581.437713 493.697814 
L 581.795707 491.738641 
L 582.152099 491.041799 
L 582.506904 495.299734 
L 582.860136 505.675697 
L 583.211808 491.903106 
L 583.561934 483.795869 
L 583.910528 497.295874 
L 584.257603 486.453071 
L 584.603172 509.838205 
L 584.947248 488.219512 
L 585.289845 506.040002 
L 585.630974 495.490293 
L 585.970649 492.682074 
L 586.308881 494.173657 
L 586.645683 504.703543 
L 586.981067 520.49378 
L 587.315045 498.495688 
L 587.647628 507.379543 
L 588.308657 480.521155 
L 588.637126 525.559322 
L 588.964246 502.441107 
L 589.290028 504.385858 
L 589.614483 497.069655 
L 589.937621 502.138496 
L 590.259454 494.211143 
L 590.579992 481.866427 
L 590.899246 524.11678 
L 591.217224 493.131699 
L 591.533939 493.060736 
L 591.849399 493.503888 
L 592.163614 491.620294 
L 592.476596 507.102858 
L 592.788352 498.548884 
L 593.098892 499.097465 
L 593.408227 525.224993 
L 593.716365 502.91048 
L 594.023315 505.975958 
L 594.329088 492.228373 
L 594.937133 504.465361 
L 595.239424 525.285287 
L 595.540572 499.830571 
L 595.840586 517.273486 
L 596.139474 485.301352 
L 596.437245 503.366208 
L 596.733906 492.193555 
L 597.029467 503.708748 
L 597.323936 509.089159 
L 597.617319 497.117061 
L 597.909626 517.699474 
L 598.200864 509.282033 
L 598.491042 486.506016 
L 598.780166 484.245949 
L 599.068244 531.685846 
L 599.355284 492.851863 
L 599.92628 536.040126 
L 600.21025 532.950506 
L 600.493212 494.026193 
L 600.775172 498.506427 
L 601.056137 491.050499 
L 601.336115 495.71509 
L 601.615112 496.070817 
L 601.893135 509.221669 
L 602.170191 494.924445 
L 602.446287 493.582895 
L 602.721429 495.895502 
L 602.995624 495.755759 
L 603.268878 494.141535 
L 603.541199 497.577968 
L 603.812591 487.416112 
L 604.083062 516.284225 
L 604.352617 489.829696 
L 604.621264 506.532131 
L 604.889007 496.203712 
L 605.155853 565.901982 
L 605.421809 519.495864 
L 605.686879 499.056792 
L 605.95107 501.697495 
L 606.214388 512.752899 
L 606.476838 506.07139 
L 606.738427 534.661833 
L 607.25904 491.846198 
L 607.518076 494.322511 
L 607.776273 506.162068 
L 608.033635 497.135971 
L 608.290169 499.062432 
L 608.545879 476.765548 
L 608.80077 508.455447 
L 609.308119 511.396335 
L 609.560587 509.656811 
L 609.812258 480.355706 
L 610.063135 515.751924 
L 610.313225 487.682313 
L 610.562532 499.067372 
L 610.811062 498.236543 
L 611.058818 503.869174 
L 611.305806 500.272442 
L 611.55203 509.033176 
L 611.797496 494.752967 
L 612.042208 502.473634 
L 612.28617 492.310164 
L 612.529387 492.088794 
L 612.771864 491.35283 
L 613.013605 498.218955 
L 613.254614 497.322132 
L 613.494897 483.58776 
L 613.973298 499.519109 
L 614.211426 500.655189 
L 614.448843 515.48527 
L 614.685555 550.361523 
L 615.15688 489.946643 
L 615.3915 503.358995 
L 615.625431 488.795176 
L 615.858678 496.531648 
L 616.091243 540.275755 
L 616.323131 489.705519 
L 616.554347 494.031258 
L 616.784892 502.908658 
L 617.014773 483.52372 
L 617.243992 522.754767 
L 617.472553 492.783382 
L 617.700461 502.402972 
L 617.927718 506.001945 
L 618.380296 495.142764 
L 618.830318 480.826254 
L 619.054379 507.904823 
L 619.277811 504.378595 
L 619.500618 495.399391 
L 619.722804 511.468064 
L 620.165325 478.193184 
L 620.605401 492.971311 
L 620.824531 488.559655 
L 621.26099 505.127347 
L 621.478326 489.209685 
L 621.69507 486.91559 
L 621.911227 504.763803 
L 622.126798 497.794632 
L 622.341787 486.577115 
L 622.770034 505.848382 
L 622.983296 508.186869 
L 623.195989 494.995709 
L 623.408116 513.32924 
L 623.61968 481.522454 
L 623.830683 485.339696 
L 624.041128 511.226649 
L 624.251019 512.633489 
L 624.460358 489.752664 
L 624.669149 513.817292 
L 624.877394 491.76813 
L 625.085096 515.094321 
L 625.292257 494.546478 
L 625.498881 496.465018 
L 625.704971 488.304822 
L 625.910528 513.541684 
L 626.115557 492.465366 
L 626.320059 491.819228 
L 626.524038 510.622658 
L 626.727495 489.450936 
L 626.930435 489.836542 
L 627.132858 521.790321 
L 627.73706 488.191313 
L 627.937446 496.977818 
L 628.13733 516.495911 
L 628.336713 514.32741 
L 628.535599 500.514466 
L 628.733989 504.292159 
L 628.931886 489.7119 
L 629.129293 505.899798 
L 629.326211 488.444665 
L 629.522644 500.939016 
L 629.718594 492.300346 
L 629.914063 503.043797 
L 630.109054 488.16605 
L 630.303568 509.740685 
L 630.497608 492.52346 
L 630.691177 515.89983 
L 631.07691 495.168656 
L 631.269078 507.484313 
L 631.460783 503.882002 
L 631.652028 494.743484 
L 631.842815 513.045702 
L 632.033146 488.172059 
L 632.223024 499.772696 
L 632.41245 480.766278 
L 632.601426 518.47208 
L 632.789956 501.496663 
L 632.97804 500.588618 
L 633.165681 492.220897 
L 633.352881 491.833383 
L 633.539642 488.592851 
L 633.725966 509.395698 
L 633.911856 487.805858 
L 634.097312 498.296965 
L 634.282338 526.116331 
L 634.466935 534.452666 
L 634.651105 489.212196 
L 634.83485 496.538792 
L 635.018173 493.209793 
L 635.201074 481.224172 
L 635.383557 483.770147 
L 635.565622 503.859832 
L 635.747272 496.247519 
L 635.928509 510.181688 
L 636.109335 494.467938 
L 636.289751 495.75244 
L 636.469759 500.339723 
L 636.649361 489.848788 
L 636.828559 499.41127 
L 637.007355 502.092221 
L 637.185751 508.433031 
L 637.363748 502.687694 
L 637.718553 484.151313 
L 638.071784 518.261381 
L 638.423456 489.354869 
L 638.773582 522.35882 
L 638.94807 485.145058 
L 639.122176 508.590584 
L 639.469251 484.596541 
L 639.642223 495.656268 
L 639.81482 488.071076 
L 639.987044 492.681113 
L 640.330379 490.927129 
L 640.501493 496.573453 
L 640.67224 491.200982 
L 640.842622 500.264076 
L 641.012641 498.264395 
L 641.182297 528.237641 
L 641.520529 499.026827 
L 641.689108 510.105861 
L 641.857331 496.362159 
L 642.0252 491.798398 
L 642.192715 518.97915 
L 642.359879 495.265864 
L 642.526693 508.121107 
L 642.693158 489.843363 
L 642.859276 499.932549 
L 643.025049 496.729628 
L 643.190477 477.672958 
L 643.355562 482.392946 
L 643.684709 526.549936 
L 643.848774 497.516459 
L 644.012502 513.745669 
L 644.175894 503.275473 
L 644.501676 497.382755 
L 644.664069 481.911258 
L 644.826131 501.575377 
L 644.987864 496.214075 
L 645.14927 520.966363 
L 645.310349 497.069305 
L 645.471103 500.456597 
L 645.631533 491.544609 
L 645.791641 503.594999 
L 645.951427 497.374467 
L 646.110894 498.823217 
L 646.270042 515.381263 
L 646.587387 496.815931 
L 646.745587 523.856902 
L 646.903473 520.934856 
L 647.061047 507.864843 
L 647.21831 512.236224 
L 647.375263 496.942432 
L 647.531907 498.50633 
L 647.688244 529.252688 
L 647.844274 485.319335 
L 647.844274 485.319335 
" style="fill:none;stroke:#b22222;stroke-linecap:round;stroke-width:1.75;"/>
   </g>
   <g id="patch_6">
    <path d="M 90 512.64 
L 90 311.04 
" style="fill:none;stroke:#262626;stroke-linecap:square;stroke-linejoin:miter;stroke-width:1.25;"/>
   </g>
   <g id="patch_7">
    <path d="M 90 512.64 
L 648 512.64 
" style="fill:none;stroke:#262626;stroke-linecap:square;stroke-linejoin:miter;stroke-width:1.25;"/>
   </g>
  </g>
 </g>
 <defs>
  <clipPath id="p67a95d6061">
   <rect height="201.6" width="558" x="90" y="69.12"/>
  </clipPath>
  <clipPath id="p1781d567c0">
   <rect height="201.6" width="558" x="90" y="311.04"/>
  </clipPath>
 </defs>
</svg>
