<?xml version="1.0" encoding="utf-8" standalone="no"?>
<!DOCTYPE svg PUBLIC "-//W3C//DTD SVG 1.1//EN"
  "http://www.w3.org/Graphics/SVG/1.1/DTD/svg11.dtd">
<!-- Created with matplotlib (http://matplotlib.org/) -->
<svg height="576pt" version="1.1" viewBox="0 0 720 576" width="720pt" xmlns="http://www.w3.org/2000/svg" xmlns:xlink="http://www.w3.org/1999/xlink">
 <defs>
  <style type="text/css">
*{stroke-linecap:butt;stroke-linejoin:round;}
  </style>
 </defs>
 <g id="figure_1">
  <g id="patch_1">
   <path d="M 0 576 
L 720 576 
L 720 0 
L 0 0 
z
" style="fill:#ffffff;"/>
  </g>
  <g id="axes_1">
   <g id="patch_2">
    <path d="M 90 270.72 
L 648 270.72 
L 648 69.12 
L 90 69.12 
z
" style="fill:#ffffff;"/>
   </g>
   <g id="matplotlib.axis_1">
    <g id="xtick_1">
     <g id="line2d_1">
      <defs>
       <path d="M 0 0 
L 0 6 
" id="m1cd4192a09" style="stroke:#262626;"/>
      </defs>
      <g>
       <use style="fill:#262626;stroke:#262626;" x="90" xlink:href="#m1cd4192a09" y="270.72"/>
      </g>
     </g>
     <g id="text_1">
      <!-- 0 -->
      <defs>
       <path d="M 4.15625 35.296875 
Q 4.15625 48 6.765625 55.734375 
Q 9.375 63.484375 14.515625 67.671875 
Q 19.671875 71.875 27.484375 71.875 
Q 33.25 71.875 37.59375 69.546875 
Q 41.9375 67.234375 44.765625 62.859375 
Q 47.609375 58.5 49.21875 52.21875 
Q 50.828125 45.953125 50.828125 35.296875 
Q 50.828125 22.703125 48.234375 14.96875 
Q 45.65625 7.234375 40.5 3 
Q 35.359375 -1.21875 27.484375 -1.21875 
Q 17.140625 -1.21875 11.234375 6.203125 
Q 4.15625 15.140625 4.15625 35.296875 
z
M 13.1875 35.296875 
Q 13.1875 17.671875 17.3125 11.828125 
Q 21.4375 6 27.484375 6 
Q 33.546875 6 37.671875 11.859375 
Q 41.796875 17.71875 41.796875 35.296875 
Q 41.796875 52.984375 37.671875 58.78125 
Q 33.546875 64.59375 27.390625 64.59375 
Q 21.34375 64.59375 17.71875 59.46875 
Q 13.1875 52.9375 13.1875 35.296875 
z
" id="ArialMT-30"/>
      </defs>
      <g style="fill:#262626;" transform="translate(87.219531 290.877812)scale(0.1 -0.1)">
       <use xlink:href="#ArialMT-30"/>
      </g>
     </g>
    </g>
    <g id="xtick_2">
     <g id="line2d_2">
      <g>
       <use style="fill:#262626;stroke:#262626;" x="198.984375" xlink:href="#m1cd4192a09" y="270.72"/>
      </g>
     </g>
     <g id="text_2">
      <!-- 200 -->
      <defs>
       <path d="M 50.34375 8.453125 
L 50.34375 0 
L 3.03125 0 
Q 2.9375 3.171875 4.046875 6.109375 
Q 5.859375 10.9375 9.828125 15.625 
Q 13.8125 20.3125 21.34375 26.46875 
Q 33.015625 36.03125 37.109375 41.625 
Q 41.21875 47.21875 41.21875 52.203125 
Q 41.21875 57.421875 37.46875 61 
Q 33.734375 64.59375 27.734375 64.59375 
Q 21.390625 64.59375 17.578125 60.78125 
Q 13.765625 56.984375 13.71875 50.25 
L 4.6875 51.171875 
Q 5.609375 61.28125 11.65625 66.578125 
Q 17.71875 71.875 27.9375 71.875 
Q 38.234375 71.875 44.234375 66.15625 
Q 50.25 60.453125 50.25 52 
Q 50.25 47.703125 48.484375 43.546875 
Q 46.734375 39.40625 42.65625 34.8125 
Q 38.578125 30.21875 29.109375 22.21875 
Q 21.1875 15.578125 18.9375 13.203125 
Q 16.703125 10.84375 15.234375 8.453125 
z
" id="ArialMT-32"/>
      </defs>
      <g style="fill:#262626;" transform="translate(190.642969 290.877812)scale(0.1 -0.1)">
       <use xlink:href="#ArialMT-32"/>
       <use x="55.615234" xlink:href="#ArialMT-30"/>
       <use x="111.230469" xlink:href="#ArialMT-30"/>
      </g>
     </g>
    </g>
    <g id="xtick_3">
     <g id="line2d_3">
      <g>
       <use style="fill:#262626;stroke:#262626;" x="307.96875" xlink:href="#m1cd4192a09" y="270.72"/>
      </g>
     </g>
     <g id="text_3">
      <!-- 400 -->
      <defs>
       <path d="M 32.328125 0 
L 32.328125 17.140625 
L 1.265625 17.140625 
L 1.265625 25.203125 
L 33.9375 71.578125 
L 41.109375 71.578125 
L 41.109375 25.203125 
L 50.78125 25.203125 
L 50.78125 17.140625 
L 41.109375 17.140625 
L 41.109375 0 
z
M 32.328125 25.203125 
L 32.328125 57.46875 
L 9.90625 25.203125 
z
" id="ArialMT-34"/>
      </defs>
      <g style="fill:#262626;" transform="translate(299.627344 290.877812)scale(0.1 -0.1)">
       <use xlink:href="#ArialMT-34"/>
       <use x="55.615234" xlink:href="#ArialMT-30"/>
       <use x="111.230469" xlink:href="#ArialMT-30"/>
      </g>
     </g>
    </g>
    <g id="xtick_4">
     <g id="line2d_4">
      <g>
       <use style="fill:#262626;stroke:#262626;" x="416.953125" xlink:href="#m1cd4192a09" y="270.72"/>
      </g>
     </g>
     <g id="text_4">
      <!-- 600 -->
      <defs>
       <path d="M 49.75 54.046875 
L 41.015625 53.375 
Q 39.84375 58.546875 37.703125 60.890625 
Q 34.125 64.65625 28.90625 64.65625 
Q 24.703125 64.65625 21.53125 62.3125 
Q 17.390625 59.28125 14.984375 53.46875 
Q 12.59375 47.65625 12.5 36.921875 
Q 15.671875 41.75 20.265625 44.09375 
Q 24.859375 46.4375 29.890625 46.4375 
Q 38.671875 46.4375 44.84375 39.96875 
Q 51.03125 33.5 51.03125 23.25 
Q 51.03125 16.5 48.125 10.71875 
Q 45.21875 4.9375 40.140625 1.859375 
Q 35.0625 -1.21875 28.609375 -1.21875 
Q 17.625 -1.21875 10.6875 6.859375 
Q 3.765625 14.9375 3.765625 33.5 
Q 3.765625 54.25 11.421875 63.671875 
Q 18.109375 71.875 29.4375 71.875 
Q 37.890625 71.875 43.28125 67.140625 
Q 48.6875 62.40625 49.75 54.046875 
z
M 13.875 23.1875 
Q 13.875 18.65625 15.796875 14.5 
Q 17.71875 10.359375 21.1875 8.171875 
Q 24.65625 6 28.46875 6 
Q 34.03125 6 38.03125 10.484375 
Q 42.046875 14.984375 42.046875 22.703125 
Q 42.046875 30.125 38.078125 34.390625 
Q 34.125 38.671875 28.125 38.671875 
Q 22.171875 38.671875 18.015625 34.390625 
Q 13.875 30.125 13.875 23.1875 
z
" id="ArialMT-36"/>
      </defs>
      <g style="fill:#262626;" transform="translate(408.611719 290.877812)scale(0.1 -0.1)">
       <use xlink:href="#ArialMT-36"/>
       <use x="55.615234" xlink:href="#ArialMT-30"/>
       <use x="111.230469" xlink:href="#ArialMT-30"/>
      </g>
     </g>
    </g>
    <g id="xtick_5">
     <g id="line2d_5">
      <g>
       <use style="fill:#262626;stroke:#262626;" x="525.9375" xlink:href="#m1cd4192a09" y="270.72"/>
      </g>
     </g>
     <g id="text_5">
      <!-- 800 -->
      <defs>
       <path d="M 17.671875 38.8125 
Q 12.203125 40.828125 9.5625 44.53125 
Q 6.9375 48.25 6.9375 53.421875 
Q 6.9375 61.234375 12.546875 66.546875 
Q 18.171875 71.875 27.484375 71.875 
Q 36.859375 71.875 42.578125 66.421875 
Q 48.296875 60.984375 48.296875 53.171875 
Q 48.296875 48.1875 45.671875 44.5 
Q 43.0625 40.828125 37.75 38.8125 
Q 44.34375 36.671875 47.78125 31.875 
Q 51.21875 27.09375 51.21875 20.453125 
Q 51.21875 11.28125 44.71875 5.03125 
Q 38.234375 -1.21875 27.640625 -1.21875 
Q 17.046875 -1.21875 10.546875 5.046875 
Q 4.046875 11.328125 4.046875 20.703125 
Q 4.046875 27.6875 7.59375 32.390625 
Q 11.140625 37.109375 17.671875 38.8125 
z
M 15.921875 53.71875 
Q 15.921875 48.640625 19.1875 45.40625 
Q 22.46875 42.1875 27.6875 42.1875 
Q 32.765625 42.1875 36.015625 45.375 
Q 39.265625 48.578125 39.265625 53.21875 
Q 39.265625 58.0625 35.90625 61.359375 
Q 32.5625 64.65625 27.59375 64.65625 
Q 22.5625 64.65625 19.234375 61.421875 
Q 15.921875 58.203125 15.921875 53.71875 
z
M 13.09375 20.65625 
Q 13.09375 16.890625 14.875 13.375 
Q 16.65625 9.859375 20.171875 7.921875 
Q 23.6875 6 27.734375 6 
Q 34.03125 6 38.125 10.046875 
Q 42.234375 14.109375 42.234375 20.359375 
Q 42.234375 26.703125 38.015625 30.859375 
Q 33.796875 35.015625 27.4375 35.015625 
Q 21.234375 35.015625 17.15625 30.90625 
Q 13.09375 26.8125 13.09375 20.65625 
z
" id="ArialMT-38"/>
      </defs>
      <g style="fill:#262626;" transform="translate(517.596094 290.877812)scale(0.1 -0.1)">
       <use xlink:href="#ArialMT-38"/>
       <use x="55.615234" xlink:href="#ArialMT-30"/>
       <use x="111.230469" xlink:href="#ArialMT-30"/>
      </g>
     </g>
    </g>
    <g id="xtick_6">
     <g id="line2d_6">
      <g>
       <use style="fill:#262626;stroke:#262626;" x="634.921875" xlink:href="#m1cd4192a09" y="270.72"/>
      </g>
     </g>
     <g id="text_6">
      <!-- 1000 -->
      <defs>
       <path d="M 37.25 0 
L 28.46875 0 
L 28.46875 56 
Q 25.296875 52.984375 20.140625 49.953125 
Q 14.984375 46.921875 10.890625 45.40625 
L 10.890625 53.90625 
Q 18.265625 57.375 23.78125 62.296875 
Q 29.296875 67.234375 31.59375 71.875 
L 37.25 71.875 
z
" id="ArialMT-31"/>
      </defs>
      <g style="fill:#262626;" transform="translate(623.8 290.877812)scale(0.1 -0.1)">
       <use xlink:href="#ArialMT-31"/>
       <use x="55.615234" xlink:href="#ArialMT-30"/>
       <use x="111.230469" xlink:href="#ArialMT-30"/>
       <use x="166.845703" xlink:href="#ArialMT-30"/>
      </g>
     </g>
    </g>
   </g>
   <g id="matplotlib.axis_2">
    <g id="ytick_1">
     <g id="line2d_7">
      <defs>
       <path d="M 0 0 
L -6 0 
" id="m5d0c280b3c" style="stroke:#262626;"/>
      </defs>
      <g>
       <use style="fill:#262626;stroke:#262626;" x="90" xlink:href="#m5d0c280b3c" y="270.72"/>
      </g>
     </g>
     <g id="text_7">
      <!-- −0.6 -->
      <defs>
       <path d="M 52.828125 31.203125 
L 5.5625 31.203125 
L 5.5625 39.40625 
L 52.828125 39.40625 
z
" id="ArialMT-2212"/>
       <path d="M 9.078125 0 
L 9.078125 10.015625 
L 19.09375 10.015625 
L 19.09375 0 
z
" id="ArialMT-2e"/>
      </defs>
      <g style="fill:#262626;" transform="translate(57.259375 274.298906)scale(0.1 -0.1)">
       <use xlink:href="#ArialMT-2212"/>
       <use x="58.398438" xlink:href="#ArialMT-30"/>
       <use x="114.013672" xlink:href="#ArialMT-2e"/>
       <use x="141.796875" xlink:href="#ArialMT-36"/>
      </g>
     </g>
    </g>
    <g id="ytick_2">
     <g id="line2d_8">
      <g>
       <use style="fill:#262626;stroke:#262626;" x="90" xlink:href="#m5d0c280b3c" y="237.12"/>
      </g>
     </g>
     <g id="text_8">
      <!-- −0.4 -->
      <g style="fill:#262626;" transform="translate(57.259375 240.698906)scale(0.1 -0.1)">
       <use xlink:href="#ArialMT-2212"/>
       <use x="58.398438" xlink:href="#ArialMT-30"/>
       <use x="114.013672" xlink:href="#ArialMT-2e"/>
       <use x="141.796875" xlink:href="#ArialMT-34"/>
      </g>
     </g>
    </g>
    <g id="ytick_3">
     <g id="line2d_9">
      <g>
       <use style="fill:#262626;stroke:#262626;" x="90" xlink:href="#m5d0c280b3c" y="203.52"/>
      </g>
     </g>
     <g id="text_9">
      <!-- −0.2 -->
      <g style="fill:#262626;" transform="translate(57.259375 207.098906)scale(0.1 -0.1)">
       <use xlink:href="#ArialMT-2212"/>
       <use x="58.398438" xlink:href="#ArialMT-30"/>
       <use x="114.013672" xlink:href="#ArialMT-2e"/>
       <use x="141.796875" xlink:href="#ArialMT-32"/>
      </g>
     </g>
    </g>
    <g id="ytick_4">
     <g id="line2d_10">
      <g>
       <use style="fill:#262626;stroke:#262626;" x="90" xlink:href="#m5d0c280b3c" y="169.92"/>
      </g>
     </g>
     <g id="text_10">
      <!-- 0.0 -->
      <g style="fill:#262626;" transform="translate(63.1 173.498906)scale(0.1 -0.1)">
       <use xlink:href="#ArialMT-30"/>
       <use x="55.615234" xlink:href="#ArialMT-2e"/>
       <use x="83.398438" xlink:href="#ArialMT-30"/>
      </g>
     </g>
    </g>
    <g id="ytick_5">
     <g id="line2d_11">
      <g>
       <use style="fill:#262626;stroke:#262626;" x="90" xlink:href="#m5d0c280b3c" y="136.32"/>
      </g>
     </g>
     <g id="text_11">
      <!-- 0.2 -->
      <g style="fill:#262626;" transform="translate(63.1 139.898906)scale(0.1 -0.1)">
       <use xlink:href="#ArialMT-30"/>
       <use x="55.615234" xlink:href="#ArialMT-2e"/>
       <use x="83.398438" xlink:href="#ArialMT-32"/>
      </g>
     </g>
    </g>
    <g id="ytick_6">
     <g id="line2d_12">
      <g>
       <use style="fill:#262626;stroke:#262626;" x="90" xlink:href="#m5d0c280b3c" y="102.72"/>
      </g>
     </g>
     <g id="text_12">
      <!-- 0.4 -->
      <g style="fill:#262626;" transform="translate(63.1 106.298906)scale(0.1 -0.1)">
       <use xlink:href="#ArialMT-30"/>
       <use x="55.615234" xlink:href="#ArialMT-2e"/>
       <use x="83.398438" xlink:href="#ArialMT-34"/>
      </g>
     </g>
    </g>
    <g id="ytick_7">
     <g id="line2d_13">
      <g>
       <use style="fill:#262626;stroke:#262626;" x="90" xlink:href="#m5d0c280b3c" y="69.12"/>
      </g>
     </g>
     <g id="text_13">
      <!-- 0.6 -->
      <g style="fill:#262626;" transform="translate(63.1 72.698906)scale(0.1 -0.1)">
       <use xlink:href="#ArialMT-30"/>
       <use x="55.615234" xlink:href="#ArialMT-2e"/>
       <use x="83.398438" xlink:href="#ArialMT-36"/>
      </g>
     </g>
    </g>
   </g>
   <g id="line2d_14">
    <path clip-path="url(#pd88566d594)" d="M 90 177.036211 
L 91.634766 175.323809 
L 92.179688 174.93416 
L 92.724609 173.990801 
L 93.814453 173.221758 
L 94.359375 173.1346 
L 95.449219 172.386064 
L 95.994141 172.324541 
L 96.539062 172.052812 
L 97.083984 172.016924 
L 97.628906 171.791338 
L 98.173828 171.883623 
L 98.71875 171.606768 
L 99.263672 171.852861 
L 99.808594 171.750322 
L 100.898438 171.714434 
L 101.443359 171.545244 
L 102.533203 170.981279 
L 103.623047 169.704668 
L 105.802734 165.310869 
L 107.982422 162.091143 
L 109.072266 161.409258 
L 109.617188 161.578447 
L 110.707031 161.260576 
L 111.251953 161.445146 
L 111.796875 161.024736 
L 112.341797 160.399248 
L 112.886719 159.953203 
L 113.976562 158.384355 
L 115.066406 157.015459 
L 115.611328 156.661699 
L 116.15625 156.466875 
L 116.701172 156.584795 
L 117.246094 156.959062 
L 117.791016 157.651201 
L 119.425781 160.737627 
L 123.785156 171.606768 
L 124.330078 172.591143 
L 124.875 172.985918 
L 125.964844 172.903887 
L 126.509766 172.278398 
L 127.054688 171.012041 
L 128.689453 167.961504 
L 129.234375 166.864336 
L 130.324219 165.74666 
L 130.869141 165.490312 
L 131.958984 165.649248 
L 134.138672 167.659014 
L 134.683594 168.838213 
L 135.228516 169.44832 
L 137.408203 173.616533 
L 137.953125 174.247148 
L 138.498047 175.226396 
L 139.587891 176.518389 
L 140.677734 177.051592 
L 141.222656 176.841387 
L 141.767578 176.369707 
L 142.857422 174.723955 
L 143.402344 173.667803 
L 145.037109 169.98665 
L 147.761719 166.059404 
L 148.306641 165.459551 
L 148.851562 165.2596 
L 149.396484 164.649492 
L 149.941406 164.608477 
L 150.486328 164.43416 
L 151.576172 165.028887 
L 152.666016 166.028643 
L 153.210938 166.495195 
L 153.755859 167.202715 
L 154.300781 167.469316 
L 155.390625 168.812578 
L 155.935547 169.238115 
L 157.570312 172.380937 
L 158.660156 175.585283 
L 161.384766 186.433916 
L 161.929688 188.120684 
L 163.019531 189.710039 
L 163.564453 189.745928 
L 164.109375 189.197344 
L 164.654297 188.212969 
L 165.199219 186.731279 
L 166.289062 182.74251 
L 168.46875 173.452471 
L 169.558594 169.796953 
L 170.103516 168.735674 
L 170.648438 167.925615 
L 171.193359 167.510332 
L 172.283203 167.459062 
L 173.373047 168.335771 
L 173.917969 169.586748 
L 174.462891 170.114824 
L 175.552734 172.365557 
L 176.097656 173.124346 
L 176.642578 174.236895 
L 177.732422 175.677568 
L 178.277344 176.123613 
L 178.822266 176.41585 
L 179.367188 176.441484 
L 179.912109 176.626055 
L 180.457031 176.333818 
L 181.546875 175.964678 
L 184.271484 174.047197 
L 184.816406 173.365312 
L 185.90625 172.693682 
L 186.996094 171.934893 
L 188.085938 171.801592 
L 188.630859 171.658037 
L 189.175781 171.8221 
L 189.720703 171.678545 
L 190.265625 172.011797 
L 190.810547 171.965654 
L 191.900391 172.237383 
L 192.445312 172.19124 
L 193.535156 171.77083 
L 194.625 170.284014 
L 196.804688 165.649248 
L 197.349609 164.311113 
L 198.439453 162.870439 
L 198.984375 162.424395 
L 200.074219 162.029619 
L 200.619141 162.075762 
L 201.164062 161.845049 
L 202.253906 160.999102 
L 204.433594 157.692217 
L 205.523438 156.184893 
L 206.068359 155.856768 
L 206.613281 155.338945 
L 207.158203 155.164629 
L 207.703125 155.256914 
L 208.248047 155.092852 
L 208.792969 155.190264 
L 209.882812 155.846514 
L 210.427734 156.651445 
L 211.517578 159.025225 
L 213.697266 166.341387 
L 214.242188 168.130693 
L 215.332031 170.427568 
L 215.876953 171.027422 
L 216.421875 171.386309 
L 216.966797 171.247881 
L 217.511719 170.827471 
L 218.601562 169.345781 
L 219.691406 167.612871 
L 221.326172 165.315996 
L 222.960938 164.054766 
L 224.050781 164.090654 
L 225.140625 164.593096 
L 226.230469 165.644121 
L 227.320312 167.710283 
L 228.410156 169.930254 
L 229.5 172.380937 
L 230.044922 173.426836 
L 230.589844 174.231768 
L 231.134766 174.821367 
L 231.679688 174.980303 
L 232.224609 175.005937 
L 233.314453 174.457354 
L 234.404297 173.108965 
L 235.494141 171.796465 
L 236.583984 169.858477 
L 237.128906 168.797197 
L 238.21875 166.320879 
L 239.853516 163.824053 
L 240.943359 163.219072 
L 242.033203 163.244707 
L 243.123047 163.849687 
L 244.212891 164.152178 
L 245.302734 164.213701 
L 245.847656 163.931719 
L 246.392578 163.880449 
L 246.9375 164.177812 
L 247.482422 164.823809 
L 248.572266 166.936113 
L 249.117188 168.42293 
L 250.751953 174.964922 
L 253.476562 185.459795 
L 254.021484 186.736406 
L 254.566406 187.341387 
L 255.111328 187.649004 
L 255.65625 187.274736 
L 256.201172 186.362139 
L 256.746094 185.213701 
L 260.560547 171.488848 
L 261.650391 168.42293 
L 262.195312 167.679521 
L 262.740234 166.720781 
L 263.285156 166.254229 
L 263.830078 166.141436 
L 264.375 166.40291 
L 264.919922 166.87459 
L 267.099609 169.822588 
L 268.189453 171.581133 
L 268.734375 172.396318 
L 269.279297 172.816729 
L 269.824219 173.585771 
L 270.369141 173.842119 
L 270.914062 174.257402 
L 271.458984 174.313799 
L 272.003906 174.559893 
L 272.548828 174.503496 
L 273.09375 174.144609 
L 274.183594 173.811357 
L 274.728516 173.447344 
L 275.273438 172.929521 
L 275.818359 172.575762 
L 276.908203 171.401689 
L 277.453125 170.904375 
L 279.087891 170.007158 
L 279.632812 170.03792 
L 281.267578 170.535234 
L 281.8125 170.991533 
L 282.357422 171.688799 
L 283.447266 172.145098 
L 283.992188 172.016924 
L 285.082031 170.981279 
L 287.261719 166.592607 
L 287.806641 165.977373 
L 288.351562 164.941729 
L 289.986328 163.742021 
L 290.53125 163.562578 
L 292.166016 161.74251 
L 294.345703 159.061113 
L 294.890625 158.71248 
L 295.435547 157.881914 
L 295.980469 157.338457 
L 297.070312 155.702959 
L 297.615234 155.056963 
L 298.160156 153.929033 
L 299.25 152.611406 
L 299.794922 152.242266 
L 300.339844 152.303789 
L 300.884766 152.498613 
L 301.429688 153.001055 
L 302.519531 155.492754 
L 303.609375 158.804766 
L 305.244141 164.254717 
L 306.333984 166.982256 
L 306.878906 167.946123 
L 307.423828 168.602373 
L 307.96875 168.612627 
L 308.513672 168.79207 
L 310.693359 167.120684 
L 311.783203 165.546709 
L 312.328125 165.305742 
L 312.873047 164.587969 
L 313.962891 162.70125 
L 315.052734 161.634844 
L 316.142578 161.316973 
L 316.6875 161.665605 
L 317.232422 162.291094 
L 317.777344 163.106279 
L 318.322266 164.321367 
L 318.867188 165.264727 
L 319.957031 167.623125 
L 321.046875 169.607256 
L 321.591797 170.345537 
L 322.136719 170.858232 
L 322.681641 171.58626 
L 323.226562 172.119463 
L 324.316406 172.647539 
L 324.861328 172.826982 
L 325.951172 171.991289 
L 326.496094 171.406816 
L 327.585938 169.130449 
L 329.220703 165.521074 
L 329.765625 164.562334 
L 330.310547 164.044512 
L 330.855469 163.193437 
L 331.400391 163.224199 
L 331.945312 162.880693 
L 333.035156 162.921709 
L 334.669922 162.378252 
L 335.759766 161.501543 
L 336.304688 161.229814 
L 336.849609 160.460771 
L 337.939453 160.040361 
L 338.484375 160.055742 
L 339.029297 160.465898 
L 339.574219 161.593828 
L 340.119141 162.439775 
L 340.664062 164.152178 
L 341.753906 168.515215 
L 343.933594 178.482012 
L 344.478516 180.558428 
L 345.023438 182.117021 
L 346.113281 184.167803 
L 346.658203 184.557451 
L 347.203125 184.362627 
L 347.748047 183.824297 
L 348.292969 183.121904 
L 349.927734 178.225664 
L 351.5625 172.693682 
L 353.197266 168.202471 
L 353.742188 166.972002 
L 354.832031 165.695391 
L 355.376953 165.2596 
L 355.921875 165.362139 
L 357.011719 165.777422 
L 357.556641 166.58748 
L 358.101562 167.05916 
L 360.28125 169.981523 
L 361.916016 171.488848 
L 362.460938 171.781084 
L 363.005859 172.201494 
L 363.550781 172.222002 
L 364.095703 172.627031 
L 364.640625 172.47835 
L 365.185547 172.616777 
L 365.730469 172.483477 
L 366.275391 171.986162 
L 366.820312 171.673418 
L 367.365234 170.6429 
L 368.455078 169.284258 
L 369 168.617754 
L 369.544922 168.269121 
L 370.634766 168.351152 
L 373.359375 171.35042 
L 373.904297 171.555498 
L 374.449219 171.406816 
L 374.994141 171.140215 
L 377.173828 168.889482 
L 377.71875 168.561357 
L 378.263672 167.659014 
L 378.808594 167.151445 
L 379.898438 165.936357 
L 380.988281 164.757158 
L 381.533203 164.044512 
L 383.167969 162.64998 
L 383.712891 162.521807 
L 385.347656 161.224687 
L 387.527344 158.04085 
L 389.707031 153.729082 
L 390.251953 152.847246 
L 391.341797 151.724443 
L 392.431641 152.242266 
L 392.976562 152.960039 
L 394.066406 155.651689 
L 395.701172 160.96834 
L 397.335938 165.423662 
L 397.880859 166.356768 
L 398.425781 167.576982 
L 399.515625 168.925371 
L 400.060547 169.325273 
L 400.605469 169.504717 
L 401.695312 169.356035 
L 402.240234 168.997148 
L 402.785156 168.079424 
L 403.330078 167.397539 
L 403.875 166.515703 
L 404.419922 165.223711 
L 405.509766 163.557451 
L 406.599609 162.7679 
L 407.689453 162.901201 
L 408.234375 163.270342 
L 409.869141 165.064775 
L 411.503906 167.71541 
L 412.048828 168.684404 
L 412.59375 169.899492 
L 413.138672 170.596758 
L 413.683594 172.104082 
L 415.318359 174.206133 
L 415.863281 174.493242 
L 416.408203 174.570146 
L 417.498047 173.375566 
L 418.042969 172.683428 
L 418.587891 171.499102 
L 419.132812 170.81209 
L 420.767578 167.976885 
L 421.3125 167.525713 
L 422.402344 166.433672 
L 424.582031 165.726152 
L 425.671875 164.685381 
L 426.216797 164.024004 
L 426.761719 163.044756 
L 427.306641 162.409014 
L 428.396484 160.54793 
L 428.941406 160.035234 
L 429.486328 159.871172 
L 430.03125 159.95833 
L 430.576172 160.49666 
L 431.121094 161.404131 
L 431.666016 162.726885 
L 432.755859 166.264482 
L 434.935547 176.195391 
L 436.025391 180.696855 
L 436.570312 182.465654 
L 437.660156 184.931719 
L 438.205078 185.628984 
L 438.75 185.587969 
L 439.294922 185.326494 
L 440.384766 183.608965 
L 442.019531 179.358721 
L 443.654297 174.165117 
L 444.199219 172.591143 
L 445.833984 168.951006 
L 446.378906 168.140947 
L 446.923828 167.689775 
L 447.46875 167.59749 
L 448.558594 167.787187 
L 451.283203 169.709795 
L 451.828125 170.591631 
L 452.917969 171.8221 
L 453.462891 172.903887 
L 455.097656 174.770098 
L 455.642578 174.703447 
L 456.1875 174.764971 
L 457.277344 173.883135 
L 457.822266 172.652666 
L 458.367188 172.252764 
L 458.912109 171.273516 
L 459.457031 170.776201 
L 460.001953 170.683916 
L 460.546875 170.442949 
L 461.091797 170.827471 
L 461.636719 171.04793 
L 462.726562 171.765703 
L 464.361328 172.432207 
L 465.996094 172.806475 
L 466.541016 172.350176 
L 467.085938 172.452715 
L 468.175781 171.832354 
L 468.720703 171.483721 
L 470.900391 169.207354 
L 472.535156 167.038652 
L 474.169922 165.423662 
L 474.714844 165.110918 
L 475.259766 164.998125 
L 475.804688 164.459795 
L 476.349609 164.254717 
L 477.439453 163.013994 
L 477.984375 162.409014 
L 480.164062 156.564287 
L 481.253906 153.847002 
L 481.798828 153.185625 
L 482.34375 152.288408 
L 482.888672 152.334551 
L 483.433594 152.519121 
L 483.978516 153.016436 
L 485.068359 155.000566 
L 487.248047 160.040361 
L 487.792969 161.804033 
L 488.337891 163.065264 
L 490.517578 168.966387 
L 491.607422 170.304521 
L 492.152344 170.719805 
L 492.697266 170.581377 
L 493.242188 170.227617 
L 493.787109 169.417559 
L 494.876953 168.258867 
L 495.421875 167.407793 
L 497.601562 165.028887 
L 498.146484 164.716143 
L 498.691406 164.157305 
L 499.236328 163.89583 
L 499.78125 163.813799 
L 500.871094 164.049639 
L 501.416016 164.946855 
L 501.960938 165.551836 
L 503.050781 167.669268 
L 505.230469 172.145098 
L 505.775391 173.2679 
L 506.865234 174.86751 
L 507.410156 175.082842 
L 507.955078 175.082842 
L 508.5 174.852129 
L 510.134766 172.944902 
L 511.224609 171.442705 
L 512.314453 170.504473 
L 513.404297 169.97127 
L 513.949219 170.119951 
L 515.583984 169.391924 
L 516.673828 167.879473 
L 517.21875 167.069414 
L 518.853516 163.967607 
L 520.488281 161.347734 
L 521.033203 160.865801 
L 521.578125 160.870928 
L 522.123047 161.301592 
L 522.667969 162.173174 
L 523.212891 163.265215 
L 524.302734 167.05916 
L 525.392578 171.596514 
L 525.9375 174.488115 
L 527.027344 178.810137 
L 527.572266 181.132646 
L 528.662109 184.3575 
L 529.751953 186.992754 
L 530.296875 187.623369 
L 530.841797 187.82332 
L 531.386719 187.413164 
L 531.931641 187.274736 
L 532.476562 186.121172 
L 535.746094 177.08748 
L 536.835938 174.795732 
L 537.925781 173.365312 
L 538.470703 172.457842 
L 539.015625 172.047686 
L 539.560547 171.294023 
L 540.105469 170.873613 
L 540.650391 170.62752 
L 541.195312 170.519854 
L 541.740234 171.001787 
L 542.830078 172.278398 
L 545.009766 176.046709 
L 545.554688 176.528643 
L 546.644531 176.656816 
L 547.734375 176.210771 
L 549.369141 174.811113 
L 549.914062 174.488115 
L 550.458984 173.816484 
L 551.003906 173.862627 
L 552.09375 173.478105 
L 553.183594 173.67293 
L 553.728516 174.175371 
L 554.273438 174.359941 
L 554.818359 174.74959 
L 555.363281 174.964922 
L 555.908203 175.564775 
L 556.453125 175.585283 
L 556.998047 175.754473 
L 559.177734 175.698076 
L 559.722656 175.559648 
L 560.8125 174.503496 
L 561.357422 173.749834 
L 561.902344 173.314043 
L 562.447266 172.288652 
L 563.537109 170.924883 
L 564.626953 170.22249 
L 565.171875 170.427568 
L 566.806641 170.068682 
L 567.896484 169.120195 
L 568.986328 167.125811 
L 570.076172 163.865068 
L 570.621094 162.537187 
L 571.166016 160.901689 
L 572.800781 157.651201 
L 573.890625 156.425859 
L 574.435547 156.082354 
L 574.980469 156.056719 
L 575.525391 155.805498 
L 576.070312 156.159258 
L 576.615234 156.759111 
L 577.160156 157.528154 
L 577.705078 158.676592 
L 578.25 160.522295 
L 578.794922 161.834795 
L 580.974609 168.689531 
L 582.064453 171.063311 
L 583.154297 172.437334 
L 583.699219 172.59627 
L 584.244141 172.970537 
L 584.789062 173.124346 
L 585.878906 172.273271 
L 590.783203 166.161943 
L 591.328125 166.090166 
L 591.873047 165.762041 
L 592.417969 166.038896 
L 592.962891 166.525957 
L 593.507812 167.171953 
L 596.777344 174.257402 
L 597.322266 175.385332 
L 597.867188 176.082598 
L 598.957031 176.538896 
L 599.501953 176.405596 
L 602.226562 174.785479 
L 602.771484 174.508623 
L 603.316406 174.09334 
L 603.861328 174.006182 
L 604.951172 173.585771 
L 606.041016 173.534502 
L 607.130859 172.627031 
L 607.675781 172.083574 
L 608.765625 169.843096 
L 609.310547 168.633135 
L 610.945312 164.085527 
L 612.035156 162.434648 
L 612.580078 161.850176 
L 613.125 161.942461 
L 613.669922 162.250078 
L 614.214844 162.942217 
L 614.759766 164.06502 
L 615.849609 167.17708 
L 616.939453 170.786455 
L 618.029297 175.815996 
L 619.664062 183.034746 
L 620.208984 185.059893 
L 620.753906 186.459551 
L 621.298828 187.484941 
L 621.84375 188.095049 
L 622.388672 188.141191 
L 622.933594 187.787432 
L 623.478516 187.233721 
L 625.113281 184.736895 
L 625.658203 183.998613 
L 628.382812 177.866777 
L 630.017578 173.847246 
L 631.107422 172.273271 
L 632.197266 171.827227 
L 632.742188 172.170732 
L 633.287109 172.66292 
L 636.011719 176.754229 
L 636.556641 176.974687 
L 637.646484 177.718096 
L 638.191406 177.32332 
L 638.736328 177.282305 
L 639.826172 176.53377 
L 640.371094 176.221025 
L 640.916016 175.769854 
L 642.550781 175.339189 
L 643.640625 175.339189 
L 644.185547 175.267412 
L 645.820312 175.518633 
L 646.910156 176.18001 
L 647.455078 176.697832 
L 647.455078 176.697832 
" style="fill:none;stroke:#4c72b0;stroke-linecap:round;stroke-width:1.75;"/>
   </g>
   <g id="patch_3">
    <path d="M 90 270.72 
L 90 69.12 
" style="fill:none;stroke:#262626;stroke-linecap:square;stroke-linejoin:miter;stroke-width:1.25;"/>
   </g>
   <g id="patch_4">
    <path d="M 90 270.72 
L 648 270.72 
" style="fill:none;stroke:#262626;stroke-linecap:square;stroke-linejoin:miter;stroke-width:1.25;"/>
   </g>
  </g>
  <g id="axes_2">
   <g id="patch_5">
    <path d="M 90 512.64 
L 648 512.64 
L 648 311.04 
L 90 311.04 
z
" style="fill:#ffffff;"/>
   </g>
   <g id="matplotlib.axis_3">
    <g id="xtick_7">
     <g id="line2d_15">
      <g>
       <use style="fill:#262626;stroke:#262626;" x="218.197478" xlink:href="#m1cd4192a09" y="512.64"/>
      </g>
     </g>
     <g id="text_14">
      <!-- $\mathdefault{10^{2}}$ -->
      <g style="fill:#262626;" transform="translate(210.347478 535.9525)scale(0.1 -0.1)">
       <use transform="translate(0 0.99375)" xlink:href="#ArialMT-31"/>
       <use transform="translate(55.615234 0.99375)" xlink:href="#ArialMT-30"/>
       <use transform="translate(112.972813 70.6875)scale(0.7)" xlink:href="#ArialMT-32"/>
      </g>
     </g>
    </g>
    <g id="xtick_8">
     <g id="line2d_16">
      <g>
       <use style="fill:#262626;stroke:#262626;" x="401.606604" xlink:href="#m1cd4192a09" y="512.64"/>
      </g>
     </g>
     <g id="text_15">
      <!-- $\mathdefault{10^{3}}$ -->
      <defs>
       <path d="M 4.203125 18.890625 
L 12.984375 20.0625 
Q 14.5 12.59375 18.140625 9.296875 
Q 21.78125 6 27 6 
Q 33.203125 6 37.46875 10.296875 
Q 41.75 14.59375 41.75 20.953125 
Q 41.75 27 37.796875 30.921875 
Q 33.84375 34.859375 27.734375 34.859375 
Q 25.25 34.859375 21.53125 33.890625 
L 22.515625 41.609375 
Q 23.390625 41.5 23.921875 41.5 
Q 29.546875 41.5 34.03125 44.421875 
Q 38.53125 47.359375 38.53125 53.46875 
Q 38.53125 58.296875 35.25 61.46875 
Q 31.984375 64.65625 26.8125 64.65625 
Q 21.6875 64.65625 18.265625 61.421875 
Q 14.84375 58.203125 13.875 51.765625 
L 5.078125 53.328125 
Q 6.6875 62.15625 12.390625 67.015625 
Q 18.109375 71.875 26.609375 71.875 
Q 32.46875 71.875 37.390625 69.359375 
Q 42.328125 66.84375 44.9375 62.5 
Q 47.5625 58.15625 47.5625 53.265625 
Q 47.5625 48.640625 45.0625 44.828125 
Q 42.578125 41.015625 37.703125 38.765625 
Q 44.046875 37.3125 47.5625 32.6875 
Q 51.078125 28.078125 51.078125 21.140625 
Q 51.078125 11.765625 44.234375 5.25 
Q 37.40625 -1.265625 26.953125 -1.265625 
Q 17.53125 -1.265625 11.296875 4.34375 
Q 5.078125 9.96875 4.203125 18.890625 
z
" id="ArialMT-33"/>
      </defs>
      <g style="fill:#262626;" transform="translate(393.756604 535.9525)scale(0.1 -0.1)">
       <use transform="translate(0 0.99375)" xlink:href="#ArialMT-31"/>
       <use transform="translate(55.615234 0.99375)" xlink:href="#ArialMT-30"/>
       <use transform="translate(112.972813 70.6875)scale(0.7)" xlink:href="#ArialMT-33"/>
      </g>
     </g>
    </g>
    <g id="xtick_9">
     <g id="line2d_17">
      <g>
       <use style="fill:#262626;stroke:#262626;" x="585.01573" xlink:href="#m1cd4192a09" y="512.64"/>
      </g>
     </g>
     <g id="text_16">
      <!-- $\mathdefault{10^{4}}$ -->
      <g style="fill:#262626;" transform="translate(577.16573 535.8525)scale(0.1 -0.1)">
       <use transform="translate(0 0.201563)" xlink:href="#ArialMT-31"/>
       <use transform="translate(55.615234 0.201563)" xlink:href="#ArialMT-30"/>
       <use transform="translate(112.972813 69.895313)scale(0.7)" xlink:href="#ArialMT-34"/>
      </g>
     </g>
    </g>
    <g id="xtick_10">
     <g id="line2d_18">
      <defs>
       <path d="M 0 0 
L 0 3 
" id="m73a38cde65" style="stroke:#262626;stroke-width:0.5;"/>
      </defs>
      <g>
       <use style="fill:#262626;stroke:#262626;stroke-width:0.5;" x="90" xlink:href="#m73a38cde65" y="512.64"/>
      </g>
     </g>
    </g>
    <g id="xtick_11">
     <g id="line2d_19">
      <g>
       <use style="fill:#262626;stroke:#262626;stroke-width:0.5;" x="122.296744" xlink:href="#m73a38cde65" y="512.64"/>
      </g>
     </g>
    </g>
    <g id="xtick_12">
     <g id="line2d_20">
      <g>
       <use style="fill:#262626;stroke:#262626;stroke-width:0.5;" x="145.211648" xlink:href="#m73a38cde65" y="512.64"/>
      </g>
     </g>
    </g>
    <g id="xtick_13">
     <g id="line2d_21">
      <g>
       <use style="fill:#262626;stroke:#262626;stroke-width:0.5;" x="162.985829" xlink:href="#m73a38cde65" y="512.64"/>
      </g>
     </g>
    </g>
    <g id="xtick_14">
     <g id="line2d_22">
      <g>
       <use style="fill:#262626;stroke:#262626;stroke-width:0.5;" x="177.508392" xlink:href="#m73a38cde65" y="512.64"/>
      </g>
     </g>
    </g>
    <g id="xtick_15">
     <g id="line2d_23">
      <g>
       <use style="fill:#262626;stroke:#262626;stroke-width:0.5;" x="189.787045" xlink:href="#m73a38cde65" y="512.64"/>
      </g>
     </g>
    </g>
    <g id="xtick_16">
     <g id="line2d_24">
      <g>
       <use style="fill:#262626;stroke:#262626;stroke-width:0.5;" x="200.423297" xlink:href="#m73a38cde65" y="512.64"/>
      </g>
     </g>
    </g>
    <g id="xtick_17">
     <g id="line2d_25">
      <g>
       <use style="fill:#262626;stroke:#262626;stroke-width:0.5;" x="209.805136" xlink:href="#m73a38cde65" y="512.64"/>
      </g>
     </g>
    </g>
    <g id="xtick_18">
     <g id="line2d_26">
      <g>
       <use style="fill:#262626;stroke:#262626;stroke-width:0.5;" x="273.409126" xlink:href="#m73a38cde65" y="512.64"/>
      </g>
     </g>
    </g>
    <g id="xtick_19">
     <g id="line2d_27">
      <g>
       <use style="fill:#262626;stroke:#262626;stroke-width:0.5;" x="305.70587" xlink:href="#m73a38cde65" y="512.64"/>
      </g>
     </g>
    </g>
    <g id="xtick_20">
     <g id="line2d_28">
      <g>
       <use style="fill:#262626;stroke:#262626;stroke-width:0.5;" x="328.620775" xlink:href="#m73a38cde65" y="512.64"/>
      </g>
     </g>
    </g>
    <g id="xtick_21">
     <g id="line2d_29">
      <g>
       <use style="fill:#262626;stroke:#262626;stroke-width:0.5;" x="346.394955" xlink:href="#m73a38cde65" y="512.64"/>
      </g>
     </g>
    </g>
    <g id="xtick_22">
     <g id="line2d_30">
      <g>
       <use style="fill:#262626;stroke:#262626;stroke-width:0.5;" x="360.917518" xlink:href="#m73a38cde65" y="512.64"/>
      </g>
     </g>
    </g>
    <g id="xtick_23">
     <g id="line2d_31">
      <g>
       <use style="fill:#262626;stroke:#262626;stroke-width:0.5;" x="373.196171" xlink:href="#m73a38cde65" y="512.64"/>
      </g>
     </g>
    </g>
    <g id="xtick_24">
     <g id="line2d_32">
      <g>
       <use style="fill:#262626;stroke:#262626;stroke-width:0.5;" x="383.832423" xlink:href="#m73a38cde65" y="512.64"/>
      </g>
     </g>
    </g>
    <g id="xtick_25">
     <g id="line2d_33">
      <g>
       <use style="fill:#262626;stroke:#262626;stroke-width:0.5;" x="393.214262" xlink:href="#m73a38cde65" y="512.64"/>
      </g>
     </g>
    </g>
    <g id="xtick_26">
     <g id="line2d_34">
      <g>
       <use style="fill:#262626;stroke:#262626;stroke-width:0.5;" x="456.818252" xlink:href="#m73a38cde65" y="512.64"/>
      </g>
     </g>
    </g>
    <g id="xtick_27">
     <g id="line2d_35">
      <g>
       <use style="fill:#262626;stroke:#262626;stroke-width:0.5;" x="489.114996" xlink:href="#m73a38cde65" y="512.64"/>
      </g>
     </g>
    </g>
    <g id="xtick_28">
     <g id="line2d_36">
      <g>
       <use style="fill:#262626;stroke:#262626;stroke-width:0.5;" x="512.029901" xlink:href="#m73a38cde65" y="512.64"/>
      </g>
     </g>
    </g>
    <g id="xtick_29">
     <g id="line2d_37">
      <g>
       <use style="fill:#262626;stroke:#262626;stroke-width:0.5;" x="529.804081" xlink:href="#m73a38cde65" y="512.64"/>
      </g>
     </g>
    </g>
    <g id="xtick_30">
     <g id="line2d_38">
      <g>
       <use style="fill:#262626;stroke:#262626;stroke-width:0.5;" x="544.326645" xlink:href="#m73a38cde65" y="512.64"/>
      </g>
     </g>
    </g>
    <g id="xtick_31">
     <g id="line2d_39">
      <g>
       <use style="fill:#262626;stroke:#262626;stroke-width:0.5;" x="556.605297" xlink:href="#m73a38cde65" y="512.64"/>
      </g>
     </g>
    </g>
    <g id="xtick_32">
     <g id="line2d_40">
      <g>
       <use style="fill:#262626;stroke:#262626;stroke-width:0.5;" x="567.241549" xlink:href="#m73a38cde65" y="512.64"/>
      </g>
     </g>
    </g>
    <g id="xtick_33">
     <g id="line2d_41">
      <g>
       <use style="fill:#262626;stroke:#262626;stroke-width:0.5;" x="576.623389" xlink:href="#m73a38cde65" y="512.64"/>
      </g>
     </g>
    </g>
    <g id="xtick_34">
     <g id="line2d_42">
      <g>
       <use style="fill:#262626;stroke:#262626;stroke-width:0.5;" x="640.227378" xlink:href="#m73a38cde65" y="512.64"/>
      </g>
     </g>
    </g>
   </g>
   <g id="matplotlib.axis_4">
    <g id="ytick_8">
     <g id="line2d_43">
      <g>
       <use style="fill:#262626;stroke:#262626;" x="90" xlink:href="#m5d0c280b3c" y="512.64"/>
      </g>
     </g>
     <g id="text_17">
      <!-- $\mathdefault{10^{-5}}$ -->
      <defs>
       <path d="M 4.15625 18.75 
L 13.375 19.53125 
Q 14.40625 12.796875 18.140625 9.390625 
Q 21.875 6 27.15625 6 
Q 33.5 6 37.890625 10.78125 
Q 42.28125 15.578125 42.28125 23.484375 
Q 42.28125 31 38.0625 35.34375 
Q 33.84375 39.703125 27 39.703125 
Q 22.75 39.703125 19.328125 37.765625 
Q 15.921875 35.84375 13.96875 32.765625 
L 5.71875 33.84375 
L 12.640625 70.609375 
L 48.25 70.609375 
L 48.25 62.203125 
L 19.671875 62.203125 
L 15.828125 42.96875 
Q 22.265625 47.46875 29.34375 47.46875 
Q 38.71875 47.46875 45.15625 40.96875 
Q 51.609375 34.46875 51.609375 24.265625 
Q 51.609375 14.546875 45.953125 7.46875 
Q 39.0625 -1.21875 27.15625 -1.21875 
Q 17.390625 -1.21875 11.203125 4.25 
Q 5.03125 9.71875 4.15625 18.75 
z
" id="ArialMT-35"/>
      </defs>
      <g style="fill:#262626;" transform="translate(57.2 517.74625)scale(0.1 -0.1)">
       <use transform="translate(0 0.879688)" xlink:href="#ArialMT-31"/>
       <use transform="translate(55.615234 0.879688)" xlink:href="#ArialMT-30"/>
       <use transform="translate(112.972813 70.573438)scale(0.7)" xlink:href="#ArialMT-2212"/>
       <use transform="translate(153.851719 70.573438)scale(0.7)" xlink:href="#ArialMT-35"/>
      </g>
     </g>
    </g>
    <g id="ytick_9">
     <g id="line2d_44">
      <g>
       <use style="fill:#262626;stroke:#262626;" x="90" xlink:href="#m5d0c280b3c" y="465.767507"/>
      </g>
     </g>
     <g id="text_18">
      <!-- $\mathdefault{10^{-4}}$ -->
      <g style="fill:#262626;" transform="translate(57.2 470.873757)scale(0.1 -0.1)">
       <use transform="translate(0 0.201563)" xlink:href="#ArialMT-31"/>
       <use transform="translate(55.615234 0.201563)" xlink:href="#ArialMT-30"/>
       <use transform="translate(112.972813 69.895313)scale(0.7)" xlink:href="#ArialMT-2212"/>
       <use transform="translate(153.851719 69.895313)scale(0.7)" xlink:href="#ArialMT-34"/>
      </g>
     </g>
    </g>
    <g id="ytick_10">
     <g id="line2d_45">
      <g>
       <use style="fill:#262626;stroke:#262626;" x="90" xlink:href="#m5d0c280b3c" y="418.895013"/>
      </g>
     </g>
     <g id="text_19">
      <!-- $\mathdefault{10^{-3}}$ -->
      <g style="fill:#262626;" transform="translate(57.2 424.051263)scale(0.1 -0.1)">
       <use transform="translate(0 0.99375)" xlink:href="#ArialMT-31"/>
       <use transform="translate(55.615234 0.99375)" xlink:href="#ArialMT-30"/>
       <use transform="translate(112.972813 70.6875)scale(0.7)" xlink:href="#ArialMT-2212"/>
       <use transform="translate(153.851719 70.6875)scale(0.7)" xlink:href="#ArialMT-33"/>
      </g>
     </g>
    </g>
    <g id="ytick_11">
     <g id="line2d_46">
      <g>
       <use style="fill:#262626;stroke:#262626;" x="90" xlink:href="#m5d0c280b3c" y="372.02252"/>
      </g>
     </g>
     <g id="text_20">
      <!-- $\mathdefault{10^{-2}}$ -->
      <g style="fill:#262626;" transform="translate(57.2 377.17877)scale(0.1 -0.1)">
       <use transform="translate(0 0.99375)" xlink:href="#ArialMT-31"/>
       <use transform="translate(55.615234 0.99375)" xlink:href="#ArialMT-30"/>
       <use transform="translate(112.972813 70.6875)scale(0.7)" xlink:href="#ArialMT-2212"/>
       <use transform="translate(153.851719 70.6875)scale(0.7)" xlink:href="#ArialMT-32"/>
      </g>
     </g>
    </g>
    <g id="ytick_12">
     <g id="line2d_47">
      <g>
       <use style="fill:#262626;stroke:#262626;" x="90" xlink:href="#m5d0c280b3c" y="325.150026"/>
      </g>
     </g>
     <g id="text_21">
      <!-- $\mathdefault{10^{-1}}$ -->
      <g style="fill:#262626;" transform="translate(57.2 330.306276)scale(0.1 -0.1)">
       <use transform="translate(0 0.99375)" xlink:href="#ArialMT-31"/>
       <use transform="translate(55.615234 0.99375)" xlink:href="#ArialMT-30"/>
       <use transform="translate(112.972813 70.6875)scale(0.7)" xlink:href="#ArialMT-2212"/>
       <use transform="translate(153.851719 70.6875)scale(0.7)" xlink:href="#ArialMT-31"/>
      </g>
     </g>
    </g>
    <g id="ytick_13">
     <g id="line2d_48">
      <defs>
       <path d="M 0 0 
L -3 0 
" id="m56a74ef1ae" style="stroke:#262626;stroke-width:0.5;"/>
      </defs>
      <g>
       <use style="fill:#262626;stroke:#262626;stroke-width:0.5;" x="90" xlink:href="#m56a74ef1ae" y="498.529974"/>
      </g>
     </g>
    </g>
    <g id="ytick_14">
     <g id="line2d_49">
      <g>
       <use style="fill:#262626;stroke:#262626;stroke-width:0.5;" x="90" xlink:href="#m56a74ef1ae" y="490.276137"/>
      </g>
     </g>
    </g>
    <g id="ytick_15">
     <g id="line2d_50">
      <g>
       <use style="fill:#262626;stroke:#262626;stroke-width:0.5;" x="90" xlink:href="#m56a74ef1ae" y="484.419947"/>
      </g>
     </g>
    </g>
    <g id="ytick_16">
     <g id="line2d_51">
      <g>
       <use style="fill:#262626;stroke:#262626;stroke-width:0.5;" x="90" xlink:href="#m56a74ef1ae" y="479.877533"/>
      </g>
     </g>
    </g>
    <g id="ytick_17">
     <g id="line2d_52">
      <g>
       <use style="fill:#262626;stroke:#262626;stroke-width:0.5;" x="90" xlink:href="#m56a74ef1ae" y="476.166111"/>
      </g>
     </g>
    </g>
    <g id="ytick_18">
     <g id="line2d_53">
      <g>
       <use style="fill:#262626;stroke:#262626;stroke-width:0.5;" x="90" xlink:href="#m56a74ef1ae" y="473.028148"/>
      </g>
     </g>
    </g>
    <g id="ytick_19">
     <g id="line2d_54">
      <g>
       <use style="fill:#262626;stroke:#262626;stroke-width:0.5;" x="90" xlink:href="#m56a74ef1ae" y="470.309921"/>
      </g>
     </g>
    </g>
    <g id="ytick_20">
     <g id="line2d_55">
      <g>
       <use style="fill:#262626;stroke:#262626;stroke-width:0.5;" x="90" xlink:href="#m56a74ef1ae" y="467.912274"/>
      </g>
     </g>
    </g>
    <g id="ytick_21">
     <g id="line2d_56">
      <g>
       <use style="fill:#262626;stroke:#262626;stroke-width:0.5;" x="90" xlink:href="#m56a74ef1ae" y="451.65748"/>
      </g>
     </g>
    </g>
    <g id="ytick_22">
     <g id="line2d_57">
      <g>
       <use style="fill:#262626;stroke:#262626;stroke-width:0.5;" x="90" xlink:href="#m56a74ef1ae" y="443.403644"/>
      </g>
     </g>
    </g>
    <g id="ytick_23">
     <g id="line2d_58">
      <g>
       <use style="fill:#262626;stroke:#262626;stroke-width:0.5;" x="90" xlink:href="#m56a74ef1ae" y="437.547454"/>
      </g>
     </g>
    </g>
    <g id="ytick_24">
     <g id="line2d_59">
      <g>
       <use style="fill:#262626;stroke:#262626;stroke-width:0.5;" x="90" xlink:href="#m56a74ef1ae" y="433.00504"/>
      </g>
     </g>
    </g>
    <g id="ytick_25">
     <g id="line2d_60">
      <g>
       <use style="fill:#262626;stroke:#262626;stroke-width:0.5;" x="90" xlink:href="#m56a74ef1ae" y="429.293617"/>
      </g>
     </g>
    </g>
    <g id="ytick_26">
     <g id="line2d_61">
      <g>
       <use style="fill:#262626;stroke:#262626;stroke-width:0.5;" x="90" xlink:href="#m56a74ef1ae" y="426.155654"/>
      </g>
     </g>
    </g>
    <g id="ytick_27">
     <g id="line2d_62">
      <g>
       <use style="fill:#262626;stroke:#262626;stroke-width:0.5;" x="90" xlink:href="#m56a74ef1ae" y="423.437427"/>
      </g>
     </g>
    </g>
    <g id="ytick_28">
     <g id="line2d_63">
      <g>
       <use style="fill:#262626;stroke:#262626;stroke-width:0.5;" x="90" xlink:href="#m56a74ef1ae" y="421.039781"/>
      </g>
     </g>
    </g>
    <g id="ytick_29">
     <g id="line2d_64">
      <g>
       <use style="fill:#262626;stroke:#262626;stroke-width:0.5;" x="90" xlink:href="#m56a74ef1ae" y="404.784987"/>
      </g>
     </g>
    </g>
    <g id="ytick_30">
     <g id="line2d_65">
      <g>
       <use style="fill:#262626;stroke:#262626;stroke-width:0.5;" x="90" xlink:href="#m56a74ef1ae" y="396.53115"/>
      </g>
     </g>
    </g>
    <g id="ytick_31">
     <g id="line2d_66">
      <g>
       <use style="fill:#262626;stroke:#262626;stroke-width:0.5;" x="90" xlink:href="#m56a74ef1ae" y="390.67496"/>
      </g>
     </g>
    </g>
    <g id="ytick_32">
     <g id="line2d_67">
      <g>
       <use style="fill:#262626;stroke:#262626;stroke-width:0.5;" x="90" xlink:href="#m56a74ef1ae" y="386.132546"/>
      </g>
     </g>
    </g>
    <g id="ytick_33">
     <g id="line2d_68">
      <g>
       <use style="fill:#262626;stroke:#262626;stroke-width:0.5;" x="90" xlink:href="#m56a74ef1ae" y="382.421124"/>
      </g>
     </g>
    </g>
    <g id="ytick_34">
     <g id="line2d_69">
      <g>
       <use style="fill:#262626;stroke:#262626;stroke-width:0.5;" x="90" xlink:href="#m56a74ef1ae" y="379.283161"/>
      </g>
     </g>
    </g>
    <g id="ytick_35">
     <g id="line2d_70">
      <g>
       <use style="fill:#262626;stroke:#262626;stroke-width:0.5;" x="90" xlink:href="#m56a74ef1ae" y="376.564934"/>
      </g>
     </g>
    </g>
    <g id="ytick_36">
     <g id="line2d_71">
      <g>
       <use style="fill:#262626;stroke:#262626;stroke-width:0.5;" x="90" xlink:href="#m56a74ef1ae" y="374.167288"/>
      </g>
     </g>
    </g>
    <g id="ytick_37">
     <g id="line2d_72">
      <g>
       <use style="fill:#262626;stroke:#262626;stroke-width:0.5;" x="90" xlink:href="#m56a74ef1ae" y="357.912493"/>
      </g>
     </g>
    </g>
    <g id="ytick_38">
     <g id="line2d_73">
      <g>
       <use style="fill:#262626;stroke:#262626;stroke-width:0.5;" x="90" xlink:href="#m56a74ef1ae" y="349.658657"/>
      </g>
     </g>
    </g>
    <g id="ytick_39">
     <g id="line2d_74">
      <g>
       <use style="fill:#262626;stroke:#262626;stroke-width:0.5;" x="90" xlink:href="#m56a74ef1ae" y="343.802467"/>
      </g>
     </g>
    </g>
    <g id="ytick_40">
     <g id="line2d_75">
      <g>
       <use style="fill:#262626;stroke:#262626;stroke-width:0.5;" x="90" xlink:href="#m56a74ef1ae" y="339.260053"/>
      </g>
     </g>
    </g>
    <g id="ytick_41">
     <g id="line2d_76">
      <g>
       <use style="fill:#262626;stroke:#262626;stroke-width:0.5;" x="90" xlink:href="#m56a74ef1ae" y="335.548631"/>
      </g>
     </g>
    </g>
    <g id="ytick_42">
     <g id="line2d_77">
      <g>
       <use style="fill:#262626;stroke:#262626;stroke-width:0.5;" x="90" xlink:href="#m56a74ef1ae" y="332.410668"/>
      </g>
     </g>
    </g>
    <g id="ytick_43">
     <g id="line2d_78">
      <g>
       <use style="fill:#262626;stroke:#262626;stroke-width:0.5;" x="90" xlink:href="#m56a74ef1ae" y="329.69244"/>
      </g>
     </g>
    </g>
    <g id="ytick_44">
     <g id="line2d_79">
      <g>
       <use style="fill:#262626;stroke:#262626;stroke-width:0.5;" x="90" xlink:href="#m56a74ef1ae" y="327.294794"/>
      </g>
     </g>
    </g>
    <g id="ytick_45">
     <g id="line2d_80">
      <g>
       <use style="fill:#262626;stroke:#262626;stroke-width:0.5;" x="90" xlink:href="#m56a74ef1ae" y="311.04"/>
      </g>
     </g>
    </g>
   </g>
   <g id="line2d_81">
    <path clip-path="url(#pb13b7df2b5)" d="M -1 379.55459 
L 151.095164 379.542527 
L 206.306812 425.091833 
L 238.603556 414.56113 
L 261.518461 434.310713 
L 279.292642 411.642963 
L 293.815205 360.072532 
L 306.093857 435.308538 
L 316.730109 446.262417 
L 326.111949 438.623951 
L 334.50429 445.789856 
L 342.096086 429.993378 
L 349.026853 378.055702 
L 355.402541 417.447328 
L 361.305505 425.740144 
L 366.801034 427.644393 
L 371.941758 424.666569 
L 376.770725 409.858002 
L 381.323597 368.671535 
L 385.630245 403.765342 
L 389.715939 417.583711 
L 393.602249 426.799719 
L 397.307735 431.301331 
L 400.848476 421.807822 
L 404.238502 375.35303 
L 407.490119 399.531873 
L 410.614189 405.991919 
L 413.620341 406.055914 
L 416.517154 404.329794 
L 419.312303 395.120089 
L 422.012683 369.050874 
L 424.624509 384.533075 
L 427.153406 404.131745 
L 429.604479 414.80778 
L 431.982374 421.330695 
L 434.291335 427.094426 
L 436.535246 420.835171 
L 438.717672 413.766757 
L 440.841893 423.865596 
L 442.910933 423.118319 
L 444.927587 419.802441 
L 446.894442 413.196144 
L 448.813898 395.697775 
L 450.688186 383.905911 
L 452.519383 413.825903 
L 456.060125 433.607365 
L 457.773171 439.814116 
L 459.45015 443.529683 
L 461.09255 432.868071 
L 462.701768 449.974861 
L 464.279118 452.041193 
L 465.825838 448.66614 
L 467.343094 443.99644 
L 468.83199 437.372422 
L 470.293564 402.402955 
L 471.728802 429.03479 
L 473.138637 444.796665 
L 475.885584 457.004452 
L 477.224331 453.946492 
L 478.540949 439.912458 
L 479.836157 447.263133 
L 481.110642 479.209413 
L 482.365055 462.045629 
L 484.816127 486.202562 
L 486.013948 472.366086 
L 487.194022 449.3094 
L 488.356869 471.103549 
L 489.502983 463.297596 
L 490.63284 468.835352 
L 491.746894 464.25177 
L 492.845581 450.229306 
L 493.92932 426.307347 
L 494.998512 431.100541 
L 496.053541 450.088801 
L 497.094779 464.409952 
L 499.137291 477.233105 
L 500.139235 472.46115 
L 501.128734 429.139875 
L 502.10609 473.853409 
L 503.0716 472.626852 
L 504.025546 477.300475 
L 504.968203 462.13625 
L 505.899834 491.70079 
L 506.820695 476.19568 
L 507.731032 473.092428 
L 508.631082 497.59964 
L 509.521075 491.045297 
L 510.401234 492.689807 
L 511.271773 484.391928 
L 512.132901 468.358034 
L 512.984819 448.752757 
L 513.827722 445.659343 
L 514.661799 464.095157 
L 515.487232 472.783817 
L 516.304198 478.096656 
L 517.112871 482.008461 
L 517.913416 483.844091 
L 518.705996 480.724029 
L 519.490766 495.378993 
L 520.26788 486.716876 
L 521.037486 492.189278 
L 521.799727 510.087116 
L 522.554743 497.752374 
L 523.302669 494.703134 
L 524.043638 470.120429 
L 525.505212 512.356857 
L 526.226064 499.9181 
L 526.940451 493.152451 
L 527.648487 497.298928 
L 528.350285 492.457331 
L 529.045954 480.345575 
L 529.7356 509.242249 
L 530.419326 502.056323 
L 531.097232 497.433737 
L 531.769418 492.017942 
L 532.435979 493.59957 
L 533.097009 506.279913 
L 533.752597 505.651691 
L 534.402834 481.837988 
L 535.047806 510.351918 
L 535.687597 496.050721 
L 536.32229 492.01476 
L 536.951966 490.135399 
L 538.196578 527.698233 
L 538.811667 485.913059 
L 539.422042 524.810253 
L 540.027776 499.716749 
L 540.628938 515.933884 
L 541.225596 479.808723 
L 541.817819 498.760755 
L 542.405671 509.950208 
L 542.989216 513.253221 
L 543.568517 501.943934 
L 544.143636 510.386098 
L 544.714632 498.305732 
L 545.281563 497.426029 
L 545.844488 499.894786 
L 546.403463 517.514072 
L 546.958543 498.322084 
L 547.509781 513.616284 
L 548.05723 492.247175 
L 548.600942 510.613871 
L 549.140969 524.365021 
L 549.677358 514.505742 
L 550.21016 507.023918 
L 550.739422 513.50432 
L 551.26519 503.398135 
L 551.78751 504.846613 
L 552.306428 499.314918 
L 552.821987 491.054747 
L 553.33423 515.817115 
L 553.8432 493.865036 
L 554.348939 498.107743 
L 554.851487 498.404288 
L 555.350884 519.395883 
L 555.847169 521.476498 
L 556.340382 511.548196 
L 556.830559 520.227245 
L 557.317739 501.16807 
L 557.801956 498.818388 
L 558.283248 503.932575 
L 558.76165 498.184938 
L 559.237195 498.615676 
L 559.709918 501.744991 
L 560.179852 495.302849 
L 560.647029 505.96645 
L 561.111483 534.126527 
L 561.573244 485.818409 
L 562.032344 532.39997 
L 562.488812 498.48614 
L 562.94268 519.543699 
L 563.393976 511.970983 
L 563.84273 497.047579 
L 564.28897 518.343851 
L 564.732723 513.880601 
L 565.174019 514.082687 
L 565.612882 495.034195 
L 566.049341 549.150534 
L 566.483422 506.517743 
L 566.91515 512.359156 
L 567.34455 516.065086 
L 567.771648 521.072833 
L 568.619034 496.017607 
L 569.039371 491.929442 
L 569.457501 507.09413 
L 569.873447 493.345756 
L 570.287233 512.072676 
L 570.69888 520.199895 
L 571.108411 511.25911 
L 571.515847 511.377805 
L 571.921209 490.708004 
L 572.32452 489.43319 
L 572.725798 510.476669 
L 573.125065 502.955183 
L 573.52234 510.387488 
L 573.917644 513.619149 
L 574.310996 502.605271 
L 574.702415 512.4844 
L 575.091919 493.674468 
L 575.479529 512.412993 
L 575.865261 550.448943 
L 576.249135 496.961172 
L 576.631167 509.530226 
L 577.011376 503.700513 
L 577.389778 529.265815 
L 577.766391 506.265256 
L 578.141232 508.859645 
L 578.514318 499.402228 
L 578.885664 524.88914 
L 579.255287 506.383634 
L 579.623202 507.562594 
L 579.989426 517.307397 
L 580.353974 515.336701 
L 580.716861 497.978783 
L 581.078102 498.535093 
L 581.437713 502.093986 
L 581.795707 496.169675 
L 582.152099 502.131571 
L 582.860136 490.343287 
L 583.211808 494.615623 
L 583.561934 494.733661 
L 584.257603 510.535484 
L 584.603172 495.876052 
L 584.947248 506.209462 
L 585.289845 502.138357 
L 585.630974 489.872615 
L 585.970649 503.675345 
L 586.308881 505.428833 
L 586.645683 494.828517 
L 586.981067 529.25599 
L 587.647628 499.89505 
L 587.978828 551.497689 
L 588.308657 514.132648 
L 588.637126 512.00189 
L 588.964246 522.456838 
L 589.290028 503.375975 
L 589.614483 522.860699 
L 589.937621 512.074147 
L 590.259454 491.150488 
L 590.579992 502.49859 
L 590.899246 508.465286 
L 591.217224 511.323482 
L 591.533939 513.164579 
L 591.849399 500.199739 
L 592.163614 512.86443 
L 592.476596 498.822936 
L 592.788352 520.717797 
L 593.098892 499.240839 
L 593.408227 505.087702 
L 593.716365 522.604662 
L 594.329088 485.163898 
L 594.633691 520.616533 
L 594.937133 509.019781 
L 595.239424 492.784011 
L 595.540572 500.274429 
L 595.840586 493.320861 
L 596.139474 507.84004 
L 596.437245 508.431179 
L 596.733906 513.734441 
L 597.029467 508.839743 
L 597.323936 518.43521 
L 597.909626 495.622222 
L 598.200864 500.622166 
L 598.491042 500.549427 
L 598.780166 507.310552 
L 599.068244 536.326743 
L 599.355284 494.515757 
L 599.641294 487.72577 
L 599.92628 500.18942 
L 600.21025 505.898382 
L 600.493212 502.81809 
L 600.775172 541.611999 
L 601.056137 494.779211 
L 601.336115 532.96384 
L 601.615112 492.575717 
L 601.893135 502.718744 
L 602.170191 489.124364 
L 602.721429 517.057447 
L 602.995624 504.640569 
L 603.268878 519.701942 
L 603.541199 506.58574 
L 603.812591 510.096557 
L 604.083062 538.271131 
L 604.352617 530.987978 
L 604.621264 509.18227 
L 604.889007 516.260622 
L 605.155853 506.284858 
L 605.421809 508.426201 
L 605.686879 505.865127 
L 605.95107 501.604805 
L 606.214388 524.65112 
L 606.476838 510.360899 
L 606.738427 506.476311 
L 606.999159 514.282379 
L 607.25904 510.404054 
L 607.776273 495.747798 
L 608.033635 512.19843 
L 608.290169 509.895294 
L 608.545879 518.422642 
L 608.80077 489.565133 
L 609.054849 500.629978 
L 609.308119 490.377436 
L 609.560587 530.449001 
L 609.812258 508.689217 
L 610.063135 504.683763 
L 610.313225 490.314764 
L 610.562532 510.099041 
L 610.811062 518.821058 
L 611.058818 532.268534 
L 611.305806 523.739008 
L 611.55203 501.474189 
L 611.797496 491.845676 
L 612.042208 508.13946 
L 612.28617 493.252792 
L 612.529387 513.419459 
L 612.771864 505.722964 
L 613.013605 485.211935 
L 613.254614 509.367395 
L 613.494897 515.779916 
L 613.734457 488.673913 
L 614.211426 516.993483 
L 614.448843 506.327426 
L 614.685555 511.027446 
L 615.15688 490.860218 
L 615.3915 510.607492 
L 615.858678 479.763397 
L 616.091243 512.806916 
L 616.323131 514.240711 
L 616.554347 525.847333 
L 616.784892 509.929007 
L 617.014773 535.676899 
L 617.243992 488.188943 
L 617.472553 506.909187 
L 617.700461 515.843831 
L 617.927718 495.068187 
L 618.154329 500.124058 
L 618.380296 536.793766 
L 618.605625 511.043428 
L 618.830318 540.462394 
L 619.054379 515.243898 
L 619.277811 512.413343 
L 619.500618 522.341213 
L 619.944372 489.65547 
L 620.165325 486.488514 
L 620.385667 509.91142 
L 620.605401 514.429835 
L 620.824531 514.35726 
L 621.043059 486.670883 
L 621.26099 541.480822 
L 621.478326 488.462458 
L 621.69507 517.488151 
L 621.911227 505.783449 
L 622.341787 497.733018 
L 622.556198 531.681008 
L 622.983296 486.027412 
L 623.195989 520.525633 
L 623.408116 510.559237 
L 623.61968 493.681181 
L 623.830683 519.687965 
L 624.041128 479.345492 
L 624.460358 525.945612 
L 624.669149 501.462612 
L 624.877394 515.983377 
L 625.085096 496.264167 
L 625.292257 499.444739 
L 625.498881 498.541656 
L 625.704971 507.806081 
L 625.910528 504.213992 
L 626.115557 527.211484 
L 626.320059 511.457103 
L 626.524038 484.325624 
L 626.930435 508.576897 
L 627.132858 503.105622 
L 627.334768 505.159123 
L 627.536168 496.992357 
L 627.73706 502.248778 
L 627.937446 494.230845 
L 628.13733 494.472875 
L 628.336713 507.212923 
L 628.535599 504.836135 
L 628.733989 488.396308 
L 628.931886 488.06557 
L 629.326211 509.227819 
L 629.522644 498.087077 
L 629.718594 502.729977 
L 629.914063 481.174698 
L 630.109054 500.305252 
L 630.303568 495.735098 
L 630.497608 501.142418 
L 630.691177 495.223124 
L 630.884277 502.129629 
L 631.07691 493.704729 
L 631.269078 515.973688 
L 631.460783 515.363711 
L 631.652028 491.626569 
L 631.842815 511.540049 
L 632.033146 502.706588 
L 632.223024 508.214049 
L 632.41245 509.775142 
L 632.601426 496.287514 
L 632.789956 506.717658 
L 632.97804 495.082318 
L 633.165681 492.024628 
L 633.352881 510.342239 
L 633.539642 486.872218 
L 633.725966 488.271558 
L 633.911856 498.37279 
L 634.097312 519.037656 
L 634.282338 510.871798 
L 634.466935 527.668809 
L 634.83485 482.677571 
L 635.018173 489.518088 
L 635.201074 507.447215 
L 635.383557 488.081828 
L 635.565622 487.881445 
L 635.747272 515.375963 
L 636.109335 504.854384 
L 636.469759 486.885827 
L 636.649361 489.610306 
L 636.828559 517.993437 
L 637.007355 501.390493 
L 637.185751 495.546701 
L 637.363748 504.837579 
L 637.541348 507.583011 
L 637.718553 495.982781 
L 637.895364 495.284832 
L 638.071784 501.054355 
L 638.247814 501.038005 
L 638.423456 512.393222 
L 638.598712 489.495254 
L 638.773582 569.961874 
L 638.94807 495.857892 
L 639.122176 523.765397 
L 639.469251 486.419673 
L 639.642223 489.975152 
L 639.81482 502.122917 
L 639.987044 530.996708 
L 640.158897 492.808146 
L 640.330379 491.46308 
L 640.501493 512.501895 
L 640.67224 509.283302 
L 640.842622 498.786415 
L 641.012641 495.320536 
L 641.182297 486.626001 
L 641.351593 511.415987 
L 641.520529 489.11544 
L 641.857331 497.93678 
L 642.0252 506.404192 
L 642.192715 500.522798 
L 642.359879 531.368518 
L 642.526693 522.701818 
L 642.693158 521.051173 
L 642.859276 495.708442 
L 643.025049 502.345202 
L 643.190477 492.472778 
L 643.355562 519.780873 
L 643.520306 497.458949 
L 644.012502 509.485306 
L 644.501676 488.97139 
L 644.664069 502.340621 
L 644.826131 495.533621 
L 644.987864 499.967283 
L 645.14927 499.833117 
L 645.310349 514.194978 
L 645.471103 514.231462 
L 645.631533 489.515331 
L 645.791641 523.499621 
L 645.951427 526.909441 
L 646.110894 526.71541 
L 646.270042 501.661384 
L 646.428873 518.975692 
L 646.587387 499.454071 
L 646.745587 499.601018 
L 646.903473 522.789934 
L 647.061047 506.348135 
L 647.21831 516.888192 
L 647.375263 510.110157 
L 647.531907 497.129826 
L 647.688244 510.830878 
L 647.844274 509.89222 
L 647.844274 509.89222 
" style="fill:none;stroke:#b22222;stroke-linecap:round;stroke-width:1.75;"/>
   </g>
   <g id="patch_6">
    <path d="M 90 512.64 
L 90 311.04 
" style="fill:none;stroke:#262626;stroke-linecap:square;stroke-linejoin:miter;stroke-width:1.25;"/>
   </g>
   <g id="patch_7">
    <path d="M 90 512.64 
L 648 512.64 
" style="fill:none;stroke:#262626;stroke-linecap:square;stroke-linejoin:miter;stroke-width:1.25;"/>
   </g>
  </g>
 </g>
 <defs>
  <clipPath id="pd88566d594">
   <rect height="201.6" width="558" x="90" y="69.12"/>
  </clipPath>
  <clipPath id="pb13b7df2b5">
   <rect height="201.6" width="558" x="90" y="311.04"/>
  </clipPath>
 </defs>
</svg>
