<?xml version="1.0" encoding="utf-8" standalone="no"?>
<!DOCTYPE svg PUBLIC "-//W3C//DTD SVG 1.1//EN"
  "http://www.w3.org/Graphics/SVG/1.1/DTD/svg11.dtd">
<!-- Created with matplotlib (http://matplotlib.org/) -->
<svg height="576pt" version="1.1" viewBox="0 0 720 576" width="720pt" xmlns="http://www.w3.org/2000/svg" xmlns:xlink="http://www.w3.org/1999/xlink">
 <defs>
  <style type="text/css">
*{stroke-linecap:butt;stroke-linejoin:round;}
  </style>
 </defs>
 <g id="figure_1">
  <g id="patch_1">
   <path d="M 0 576 
L 720 576 
L 720 0 
L 0 0 
z
" style="fill:#ffffff;"/>
  </g>
  <g id="axes_1">
   <g id="patch_2">
    <path d="M 90 270.72 
L 648 270.72 
L 648 69.12 
L 90 69.12 
z
" style="fill:#ffffff;"/>
   </g>
   <g id="matplotlib.axis_1">
    <g id="xtick_1">
     <g id="line2d_1">
      <defs>
       <path d="M 0 0 
L 0 6 
" id="m51e6db8d9b" style="stroke:#262626;"/>
      </defs>
      <g>
       <use style="fill:#262626;stroke:#262626;" x="90" xlink:href="#m51e6db8d9b" y="270.72"/>
      </g>
     </g>
     <g id="text_1">
      <!-- 0 -->
      <defs>
       <path d="M 4.15625 35.296875 
Q 4.15625 48 6.765625 55.734375 
Q 9.375 63.484375 14.515625 67.671875 
Q 19.671875 71.875 27.484375 71.875 
Q 33.25 71.875 37.59375 69.546875 
Q 41.9375 67.234375 44.765625 62.859375 
Q 47.609375 58.5 49.21875 52.21875 
Q 50.828125 45.953125 50.828125 35.296875 
Q 50.828125 22.703125 48.234375 14.96875 
Q 45.65625 7.234375 40.5 3 
Q 35.359375 -1.21875 27.484375 -1.21875 
Q 17.140625 -1.21875 11.234375 6.203125 
Q 4.15625 15.140625 4.15625 35.296875 
z
M 13.1875 35.296875 
Q 13.1875 17.671875 17.3125 11.828125 
Q 21.4375 6 27.484375 6 
Q 33.546875 6 37.671875 11.859375 
Q 41.796875 17.71875 41.796875 35.296875 
Q 41.796875 52.984375 37.671875 58.78125 
Q 33.546875 64.59375 27.390625 64.59375 
Q 21.34375 64.59375 17.71875 59.46875 
Q 13.1875 52.9375 13.1875 35.296875 
z
" id="ArialMT-30"/>
      </defs>
      <g style="fill:#262626;" transform="translate(87.219531 290.877812)scale(0.1 -0.1)">
       <use xlink:href="#ArialMT-30"/>
      </g>
     </g>
    </g>
    <g id="xtick_2">
     <g id="line2d_2">
      <g>
       <use style="fill:#262626;stroke:#262626;" x="198.984375" xlink:href="#m51e6db8d9b" y="270.72"/>
      </g>
     </g>
     <g id="text_2">
      <!-- 200 -->
      <defs>
       <path d="M 50.34375 8.453125 
L 50.34375 0 
L 3.03125 0 
Q 2.9375 3.171875 4.046875 6.109375 
Q 5.859375 10.9375 9.828125 15.625 
Q 13.8125 20.3125 21.34375 26.46875 
Q 33.015625 36.03125 37.109375 41.625 
Q 41.21875 47.21875 41.21875 52.203125 
Q 41.21875 57.421875 37.46875 61 
Q 33.734375 64.59375 27.734375 64.59375 
Q 21.390625 64.59375 17.578125 60.78125 
Q 13.765625 56.984375 13.71875 50.25 
L 4.6875 51.171875 
Q 5.609375 61.28125 11.65625 66.578125 
Q 17.71875 71.875 27.9375 71.875 
Q 38.234375 71.875 44.234375 66.15625 
Q 50.25 60.453125 50.25 52 
Q 50.25 47.703125 48.484375 43.546875 
Q 46.734375 39.40625 42.65625 34.8125 
Q 38.578125 30.21875 29.109375 22.21875 
Q 21.1875 15.578125 18.9375 13.203125 
Q 16.703125 10.84375 15.234375 8.453125 
z
" id="ArialMT-32"/>
      </defs>
      <g style="fill:#262626;" transform="translate(190.642969 290.877812)scale(0.1 -0.1)">
       <use xlink:href="#ArialMT-32"/>
       <use x="55.615234" xlink:href="#ArialMT-30"/>
       <use x="111.230469" xlink:href="#ArialMT-30"/>
      </g>
     </g>
    </g>
    <g id="xtick_3">
     <g id="line2d_3">
      <g>
       <use style="fill:#262626;stroke:#262626;" x="307.96875" xlink:href="#m51e6db8d9b" y="270.72"/>
      </g>
     </g>
     <g id="text_3">
      <!-- 400 -->
      <defs>
       <path d="M 32.328125 0 
L 32.328125 17.140625 
L 1.265625 17.140625 
L 1.265625 25.203125 
L 33.9375 71.578125 
L 41.109375 71.578125 
L 41.109375 25.203125 
L 50.78125 25.203125 
L 50.78125 17.140625 
L 41.109375 17.140625 
L 41.109375 0 
z
M 32.328125 25.203125 
L 32.328125 57.46875 
L 9.90625 25.203125 
z
" id="ArialMT-34"/>
      </defs>
      <g style="fill:#262626;" transform="translate(299.627344 290.877812)scale(0.1 -0.1)">
       <use xlink:href="#ArialMT-34"/>
       <use x="55.615234" xlink:href="#ArialMT-30"/>
       <use x="111.230469" xlink:href="#ArialMT-30"/>
      </g>
     </g>
    </g>
    <g id="xtick_4">
     <g id="line2d_4">
      <g>
       <use style="fill:#262626;stroke:#262626;" x="416.953125" xlink:href="#m51e6db8d9b" y="270.72"/>
      </g>
     </g>
     <g id="text_4">
      <!-- 600 -->
      <defs>
       <path d="M 49.75 54.046875 
L 41.015625 53.375 
Q 39.84375 58.546875 37.703125 60.890625 
Q 34.125 64.65625 28.90625 64.65625 
Q 24.703125 64.65625 21.53125 62.3125 
Q 17.390625 59.28125 14.984375 53.46875 
Q 12.59375 47.65625 12.5 36.921875 
Q 15.671875 41.75 20.265625 44.09375 
Q 24.859375 46.4375 29.890625 46.4375 
Q 38.671875 46.4375 44.84375 39.96875 
Q 51.03125 33.5 51.03125 23.25 
Q 51.03125 16.5 48.125 10.71875 
Q 45.21875 4.9375 40.140625 1.859375 
Q 35.0625 -1.21875 28.609375 -1.21875 
Q 17.625 -1.21875 10.6875 6.859375 
Q 3.765625 14.9375 3.765625 33.5 
Q 3.765625 54.25 11.421875 63.671875 
Q 18.109375 71.875 29.4375 71.875 
Q 37.890625 71.875 43.28125 67.140625 
Q 48.6875 62.40625 49.75 54.046875 
z
M 13.875 23.1875 
Q 13.875 18.65625 15.796875 14.5 
Q 17.71875 10.359375 21.1875 8.171875 
Q 24.65625 6 28.46875 6 
Q 34.03125 6 38.03125 10.484375 
Q 42.046875 14.984375 42.046875 22.703125 
Q 42.046875 30.125 38.078125 34.390625 
Q 34.125 38.671875 28.125 38.671875 
Q 22.171875 38.671875 18.015625 34.390625 
Q 13.875 30.125 13.875 23.1875 
z
" id="ArialMT-36"/>
      </defs>
      <g style="fill:#262626;" transform="translate(408.611719 290.877812)scale(0.1 -0.1)">
       <use xlink:href="#ArialMT-36"/>
       <use x="55.615234" xlink:href="#ArialMT-30"/>
       <use x="111.230469" xlink:href="#ArialMT-30"/>
      </g>
     </g>
    </g>
    <g id="xtick_5">
     <g id="line2d_5">
      <g>
       <use style="fill:#262626;stroke:#262626;" x="525.9375" xlink:href="#m51e6db8d9b" y="270.72"/>
      </g>
     </g>
     <g id="text_5">
      <!-- 800 -->
      <defs>
       <path d="M 17.671875 38.8125 
Q 12.203125 40.828125 9.5625 44.53125 
Q 6.9375 48.25 6.9375 53.421875 
Q 6.9375 61.234375 12.546875 66.546875 
Q 18.171875 71.875 27.484375 71.875 
Q 36.859375 71.875 42.578125 66.421875 
Q 48.296875 60.984375 48.296875 53.171875 
Q 48.296875 48.1875 45.671875 44.5 
Q 43.0625 40.828125 37.75 38.8125 
Q 44.34375 36.671875 47.78125 31.875 
Q 51.21875 27.09375 51.21875 20.453125 
Q 51.21875 11.28125 44.71875 5.03125 
Q 38.234375 -1.21875 27.640625 -1.21875 
Q 17.046875 -1.21875 10.546875 5.046875 
Q 4.046875 11.328125 4.046875 20.703125 
Q 4.046875 27.6875 7.59375 32.390625 
Q 11.140625 37.109375 17.671875 38.8125 
z
M 15.921875 53.71875 
Q 15.921875 48.640625 19.1875 45.40625 
Q 22.46875 42.1875 27.6875 42.1875 
Q 32.765625 42.1875 36.015625 45.375 
Q 39.265625 48.578125 39.265625 53.21875 
Q 39.265625 58.0625 35.90625 61.359375 
Q 32.5625 64.65625 27.59375 64.65625 
Q 22.5625 64.65625 19.234375 61.421875 
Q 15.921875 58.203125 15.921875 53.71875 
z
M 13.09375 20.65625 
Q 13.09375 16.890625 14.875 13.375 
Q 16.65625 9.859375 20.171875 7.921875 
Q 23.6875 6 27.734375 6 
Q 34.03125 6 38.125 10.046875 
Q 42.234375 14.109375 42.234375 20.359375 
Q 42.234375 26.703125 38.015625 30.859375 
Q 33.796875 35.015625 27.4375 35.015625 
Q 21.234375 35.015625 17.15625 30.90625 
Q 13.09375 26.8125 13.09375 20.65625 
z
" id="ArialMT-38"/>
      </defs>
      <g style="fill:#262626;" transform="translate(517.596094 290.877812)scale(0.1 -0.1)">
       <use xlink:href="#ArialMT-38"/>
       <use x="55.615234" xlink:href="#ArialMT-30"/>
       <use x="111.230469" xlink:href="#ArialMT-30"/>
      </g>
     </g>
    </g>
    <g id="xtick_6">
     <g id="line2d_6">
      <g>
       <use style="fill:#262626;stroke:#262626;" x="634.921875" xlink:href="#m51e6db8d9b" y="270.72"/>
      </g>
     </g>
     <g id="text_6">
      <!-- 1000 -->
      <defs>
       <path d="M 37.25 0 
L 28.46875 0 
L 28.46875 56 
Q 25.296875 52.984375 20.140625 49.953125 
Q 14.984375 46.921875 10.890625 45.40625 
L 10.890625 53.90625 
Q 18.265625 57.375 23.78125 62.296875 
Q 29.296875 67.234375 31.59375 71.875 
L 37.25 71.875 
z
" id="ArialMT-31"/>
      </defs>
      <g style="fill:#262626;" transform="translate(623.8 290.877812)scale(0.1 -0.1)">
       <use xlink:href="#ArialMT-31"/>
       <use x="55.615234" xlink:href="#ArialMT-30"/>
       <use x="111.230469" xlink:href="#ArialMT-30"/>
       <use x="166.845703" xlink:href="#ArialMT-30"/>
      </g>
     </g>
    </g>
   </g>
   <g id="matplotlib.axis_2">
    <g id="ytick_1">
     <g id="line2d_7">
      <defs>
       <path d="M 0 0 
L -6 0 
" id="m6b0989ec5e" style="stroke:#262626;"/>
      </defs>
      <g>
       <use style="fill:#262626;stroke:#262626;" x="90" xlink:href="#m6b0989ec5e" y="270.72"/>
      </g>
     </g>
     <g id="text_7">
      <!-- −0.6 -->
      <defs>
       <path d="M 52.828125 31.203125 
L 5.5625 31.203125 
L 5.5625 39.40625 
L 52.828125 39.40625 
z
" id="ArialMT-2212"/>
       <path d="M 9.078125 0 
L 9.078125 10.015625 
L 19.09375 10.015625 
L 19.09375 0 
z
" id="ArialMT-2e"/>
      </defs>
      <g style="fill:#262626;" transform="translate(57.259375 274.298906)scale(0.1 -0.1)">
       <use xlink:href="#ArialMT-2212"/>
       <use x="58.398438" xlink:href="#ArialMT-30"/>
       <use x="114.013672" xlink:href="#ArialMT-2e"/>
       <use x="141.796875" xlink:href="#ArialMT-36"/>
      </g>
     </g>
    </g>
    <g id="ytick_2">
     <g id="line2d_8">
      <g>
       <use style="fill:#262626;stroke:#262626;" x="90" xlink:href="#m6b0989ec5e" y="237.12"/>
      </g>
     </g>
     <g id="text_8">
      <!-- −0.4 -->
      <g style="fill:#262626;" transform="translate(57.259375 240.698906)scale(0.1 -0.1)">
       <use xlink:href="#ArialMT-2212"/>
       <use x="58.398438" xlink:href="#ArialMT-30"/>
       <use x="114.013672" xlink:href="#ArialMT-2e"/>
       <use x="141.796875" xlink:href="#ArialMT-34"/>
      </g>
     </g>
    </g>
    <g id="ytick_3">
     <g id="line2d_9">
      <g>
       <use style="fill:#262626;stroke:#262626;" x="90" xlink:href="#m6b0989ec5e" y="203.52"/>
      </g>
     </g>
     <g id="text_9">
      <!-- −0.2 -->
      <g style="fill:#262626;" transform="translate(57.259375 207.098906)scale(0.1 -0.1)">
       <use xlink:href="#ArialMT-2212"/>
       <use x="58.398438" xlink:href="#ArialMT-30"/>
       <use x="114.013672" xlink:href="#ArialMT-2e"/>
       <use x="141.796875" xlink:href="#ArialMT-32"/>
      </g>
     </g>
    </g>
    <g id="ytick_4">
     <g id="line2d_10">
      <g>
       <use style="fill:#262626;stroke:#262626;" x="90" xlink:href="#m6b0989ec5e" y="169.92"/>
      </g>
     </g>
     <g id="text_10">
      <!-- 0.0 -->
      <g style="fill:#262626;" transform="translate(63.1 173.498906)scale(0.1 -0.1)">
       <use xlink:href="#ArialMT-30"/>
       <use x="55.615234" xlink:href="#ArialMT-2e"/>
       <use x="83.398438" xlink:href="#ArialMT-30"/>
      </g>
     </g>
    </g>
    <g id="ytick_5">
     <g id="line2d_11">
      <g>
       <use style="fill:#262626;stroke:#262626;" x="90" xlink:href="#m6b0989ec5e" y="136.32"/>
      </g>
     </g>
     <g id="text_11">
      <!-- 0.2 -->
      <g style="fill:#262626;" transform="translate(63.1 139.898906)scale(0.1 -0.1)">
       <use xlink:href="#ArialMT-30"/>
       <use x="55.615234" xlink:href="#ArialMT-2e"/>
       <use x="83.398438" xlink:href="#ArialMT-32"/>
      </g>
     </g>
    </g>
    <g id="ytick_6">
     <g id="line2d_12">
      <g>
       <use style="fill:#262626;stroke:#262626;" x="90" xlink:href="#m6b0989ec5e" y="102.72"/>
      </g>
     </g>
     <g id="text_12">
      <!-- 0.4 -->
      <g style="fill:#262626;" transform="translate(63.1 106.298906)scale(0.1 -0.1)">
       <use xlink:href="#ArialMT-30"/>
       <use x="55.615234" xlink:href="#ArialMT-2e"/>
       <use x="83.398438" xlink:href="#ArialMT-34"/>
      </g>
     </g>
    </g>
    <g id="ytick_7">
     <g id="line2d_13">
      <g>
       <use style="fill:#262626;stroke:#262626;" x="90" xlink:href="#m6b0989ec5e" y="69.12"/>
      </g>
     </g>
     <g id="text_13">
      <!-- 0.6 -->
      <g style="fill:#262626;" transform="translate(63.1 72.698906)scale(0.1 -0.1)">
       <use xlink:href="#ArialMT-30"/>
       <use x="55.615234" xlink:href="#ArialMT-2e"/>
       <use x="83.398438" xlink:href="#ArialMT-36"/>
      </g>
     </g>
    </g>
   </g>
   <g id="line2d_14">
    <path clip-path="url(#p7c5a3d5644)" d="M 90 156.056719 
L 90.544922 155.974687 
L 91.089844 155.585039 
L 91.634766 155.477373 
L 92.724609 155.487627 
L 93.269531 155.426104 
L 93.814453 156.031084 
L 94.359375 156.395098 
L 94.904297 157.456377 
L 95.449219 158.153643 
L 98.173828 164.305986 
L 98.71875 165.454424 
L 100.898438 167.64876 
L 101.443359 167.828203 
L 101.988281 168.30501 
L 103.078125 168.366533 
L 103.623047 168.212725 
L 104.712891 167.238604 
L 105.257812 166.40291 
L 106.892578 163.285723 
L 107.4375 161.788652 
L 109.072266 159.11751 
L 110.162109 158.348467 
L 111.251953 158.953447 
L 112.341797 160.322344 
L 113.431641 162.614092 
L 114.521484 165.618486 
L 115.066406 167.34627 
L 115.611328 168.612627 
L 116.15625 170.401934 
L 117.791016 173.821611 
L 118.335938 174.457354 
L 118.880859 174.852129 
L 119.970703 174.493242 
L 120.515625 174.021562 
L 123.240234 169.258623 
L 125.419922 165.162187 
L 126.509766 163.336992 
L 127.054688 162.906328 
L 127.599609 161.968096 
L 128.689453 160.922197 
L 129.779297 160.527422 
L 130.324219 160.886309 
L 130.869141 161.101641 
L 131.414062 161.516924 
L 131.958984 162.455156 
L 132.503906 163.034502 
L 134.683594 166.161943 
L 135.228516 166.746416 
L 135.773438 167.617998 
L 136.318359 168.171709 
L 137.408203 169.632891 
L 137.953125 170.740312 
L 138.498047 171.483721 
L 140.132812 174.467607 
L 142.857422 178.543535 
L 143.947266 179.276689 
L 145.582031 179.953447 
L 146.126953 180.025225 
L 146.671875 179.927812 
L 147.216797 179.40999 
L 147.761719 179.353594 
L 148.306641 179.081865 
L 148.851562 179.081865 
L 149.396484 178.907549 
L 149.941406 179.092119 
L 151.03125 178.733232 
L 151.576172 178.861406 
L 152.666016 178.748613 
L 153.210938 177.897539 
L 153.755859 177.72835 
L 154.845703 176.451738 
L 155.390625 175.667314 
L 157.025391 172.329668 
L 159.75 165.315996 
L 160.294922 164.511064 
L 160.839844 163.941973 
L 161.384766 163.716387 
L 161.929688 164.003496 
L 162.474609 164.444414 
L 163.564453 167.202715 
L 167.923828 180.645586 
L 168.46875 181.404375 
L 169.013672 182.701494 
L 169.558594 183.250078 
L 170.103516 184.049883 
L 170.648438 184.444658 
L 171.193359 184.413896 
L 171.738281 184.531816 
L 172.828125 183.46541 
L 174.462891 178.681963 
L 177.732422 166.541338 
L 178.277344 164.880205 
L 180.457031 160.19417 
L 181.001953 159.389238 
L 181.546875 158.076738 
L 182.636719 156.548906 
L 183.181641 156.102861 
L 183.726562 155.820879 
L 184.271484 155.692705 
L 185.361328 156.523271 
L 186.451172 158.286943 
L 188.630859 162.09627 
L 189.175781 162.875566 
L 189.720703 164.0804 
L 192.445312 168.643389 
L 193.535156 169.98665 
L 194.625 170.5096 
L 195.169922 170.386553 
L 195.714844 169.607256 
L 196.259766 169.166338 
L 196.804688 167.812822 
L 197.349609 166.972002 
L 198.439453 164.511064 
L 199.529297 162.562822 
L 200.074219 161.481035 
L 200.619141 160.706865 
L 201.708984 159.589189 
L 202.798828 159.389238 
L 203.34375 159.573809 
L 203.888672 160.26082 
L 204.978516 162.357744 
L 206.068359 165.14168 
L 207.703125 170.289141 
L 208.792969 172.883379 
L 209.337891 173.852373 
L 210.427734 175.046953 
L 210.972656 175.328936 
L 211.517578 174.949541 
L 212.607422 174.5804 
L 213.697266 173.519121 
L 214.242188 172.642412 
L 214.787109 172.052812 
L 215.332031 171.109453 
L 218.056641 165.32625 
L 218.601562 164.223955 
L 220.236328 162.547441 
L 221.326172 162.506426 
L 221.871094 162.711504 
L 222.416016 162.7679 
L 222.960938 163.229326 
L 223.505859 163.347246 
L 226.230469 166.064531 
L 226.775391 166.664385 
L 227.865234 168.166582 
L 228.410156 168.771562 
L 229.5 170.617266 
L 230.589844 172.319414 
L 232.224609 175.646807 
L 234.404297 179.1075 
L 235.494141 180.097002 
L 236.583984 180.512285 
L 237.128906 180.461016 
L 237.673828 180.737871 
L 239.853516 180.563555 
L 240.398438 180.707109 
L 241.488281 180.307207 
L 242.578125 180.394365 
L 243.123047 180.168779 
L 243.667969 180.071367 
L 244.212891 180.266191 
L 245.302734 179.794512 
L 245.847656 179.163896 
L 246.392578 178.763994 
L 246.9375 177.969316 
L 248.572266 173.867754 
L 250.751953 167.192461 
L 251.841797 164.910967 
L 252.386719 164.444414 
L 252.931641 164.511064 
L 253.476562 164.716143 
L 254.021484 165.44417 
L 255.111328 167.382158 
L 257.291016 172.996172 
L 257.835938 174.324053 
L 260.015625 180.727617 
L 261.650391 184.798418 
L 262.195312 185.690508 
L 262.740234 185.967363 
L 263.285156 185.793047 
L 263.830078 185.203447 
L 264.375 184.101152 
L 265.464844 181.07625 
L 266.554688 177.656572 
L 268.189453 172.42708 
L 271.458984 162.608965 
L 273.09375 158.379229 
L 273.638672 157.26668 
L 274.728516 156.113115 
L 275.818359 155.815752 
L 276.908203 156.118242 
L 279.087891 158.199785 
L 280.177734 159.850664 
L 283.447266 166.5721 
L 284.537109 168.735674 
L 285.082031 169.007402 
L 285.626953 169.540605 
L 286.171875 169.709795 
L 287.261719 169.376543 
L 287.806641 168.986895 
L 289.441406 166.197832 
L 289.986328 165.413408 
L 291.621094 161.973223 
L 292.710938 159.968584 
L 293.255859 159.286699 
L 294.345703 158.297197 
L 294.890625 158.743242 
L 295.435547 159.348223 
L 295.980469 160.265947 
L 297.070312 162.870439 
L 298.160156 166.023516 
L 299.794922 170.284014 
L 300.884766 172.350176 
L 301.429688 172.857744 
L 301.974609 173.893389 
L 302.519531 174.272783 
L 303.064453 174.929033 
L 304.699219 175.108477 
L 305.789062 174.057451 
L 307.423828 171.201738 
L 307.96875 169.976396 
L 310.693359 165.56209 
L 312.328125 164.193193 
L 312.873047 163.926592 
L 313.417969 163.803545 
L 315.052734 164.218828 
L 315.597656 164.352129 
L 316.142578 164.962236 
L 316.6875 165.244219 
L 318.867188 166.987383 
L 319.957031 168.263994 
L 322.136719 172.145098 
L 323.771484 175.600664 
L 325.40625 178.39998 
L 327.585938 181.465898 
L 328.130859 181.845293 
L 328.675781 181.804277 
L 329.765625 182.450273 
L 330.310547 182.281084 
L 330.855469 182.409258 
L 331.400391 182.291338 
L 332.490234 182.373369 
L 333.580078 182.33748 
L 334.125 182.773271 
L 335.214844 183.434648 
L 335.759766 183.424395 
L 336.304688 183.6346 
L 336.849609 183.6346 
L 337.939453 182.060625 
L 338.484375 180.999346 
L 339.574219 177.769365 
L 342.298828 169.150957 
L 342.84375 168.453691 
L 343.388672 167.515459 
L 344.478516 166.895098 
L 345.568359 167.274492 
L 346.113281 167.295 
L 347.203125 168.622881 
L 347.748047 169.299639 
L 348.292969 170.591631 
L 350.472656 178.035967 
L 351.5625 182.15291 
L 352.652344 185.357256 
L 353.742188 187.141436 
L 354.832031 187.464434 
L 355.921875 186.51082 
L 357.556641 183.326982 
L 358.646484 180.640459 
L 364.095703 162.608965 
L 365.730469 159.645586 
L 366.275391 159.158525 
L 366.820312 158.235674 
L 367.365234 158.004961 
L 367.910156 157.605059 
L 368.455078 157.456377 
L 369.544922 157.743486 
L 371.179688 159.707109 
L 372.269531 161.896318 
L 375.539062 169.299639 
L 376.083984 169.807207 
L 376.628906 170.699297 
L 377.71875 171.791338 
L 378.263672 172.078447 
L 378.808594 171.996416 
L 379.353516 172.057939 
L 379.898438 171.560625 
L 380.988281 169.817461 
L 381.533203 168.720293 
L 383.712891 163.203691 
L 384.257812 162.09627 
L 384.802734 161.327227 
L 385.892578 160.655596 
L 386.4375 160.927324 
L 386.982422 161.373369 
L 388.072266 162.70125 
L 388.617188 163.685625 
L 393.521484 174.795732 
L 394.611328 176.205645 
L 395.701172 176.805498 
L 396.246094 176.697832 
L 397.335938 175.810869 
L 397.880859 175.257158 
L 398.425781 174.206133 
L 399.515625 172.529619 
L 400.060547 171.119707 
L 402.240234 167.505205 
L 403.330078 166.356768 
L 405.509766 165.203203 
L 406.054688 164.798174 
L 407.144531 164.572588 
L 407.689453 164.582842 
L 408.779297 164.941729 
L 409.324219 165.131426 
L 410.414062 166.233721 
L 411.503906 167.459062 
L 412.048828 168.628008 
L 412.59375 169.427812 
L 418.042969 180.055986 
L 419.132812 181.445391 
L 419.677734 181.794023 
L 420.222656 181.958086 
L 420.767578 182.378496 
L 421.857422 182.199053 
L 423.492188 182.111895 
L 424.037109 182.563066 
L 424.582031 182.727129 
L 425.126953 183.019365 
L 425.671875 184.044756 
L 426.761719 185.290605 
L 427.306641 185.541826 
L 427.851562 185.531572 
L 428.396484 185.039385 
L 429.486328 183.11165 
L 431.121094 178.728105 
L 431.666016 176.815752 
L 433.300781 172.545 
L 434.390625 170.176348 
L 435.480469 168.115312 
L 437.115234 166.5721 
L 437.660156 166.382402 
L 438.205078 166.577227 
L 438.75 167.310381 
L 439.294922 168.366533 
L 439.839844 169.761064 
L 441.474609 175.226396 
L 442.564453 179.210039 
L 443.109375 181.265947 
L 444.199219 184.013994 
L 445.289062 186.290361 
L 445.833984 186.936357 
L 446.378906 187.233721 
L 446.923828 187.367021 
L 447.46875 187.320879 
L 448.558594 186.172441 
L 449.648438 183.983232 
L 450.738281 180.748125 
L 452.373047 175.416094 
L 453.462891 171.565752 
L 455.097656 166.556719 
L 456.732422 162.460283 
L 458.367188 159.076494 
L 460.001953 157.21541 
L 461.091797 157.251299 
L 461.636719 157.640947 
L 464.361328 161.680986 
L 464.90625 162.511553 
L 468.175781 169.253496 
L 469.265625 171.006914 
L 469.810547 171.201738 
L 470.355469 171.540117 
L 470.900391 171.211992 
L 472.535156 168.976641 
L 473.625 166.161943 
L 474.714844 163.639482 
L 475.804688 161.357988 
L 476.894531 159.819902 
L 477.439453 159.261064 
L 477.984375 158.968828 
L 478.529297 158.876543 
L 479.074219 158.902178 
L 479.619141 159.466143 
L 481.253906 162.209062 
L 485.068359 170.796709 
L 485.613281 171.899004 
L 486.703125 173.124346 
L 487.248047 173.524248 
L 488.337891 173.303789 
L 489.427734 172.345049 
L 489.972656 171.658037 
L 491.607422 168.797197 
L 492.152344 168.079424 
L 493.242188 166.315752 
L 493.787109 165.44417 
L 494.332031 165.20833 
L 494.876953 164.326494 
L 495.421875 163.721514 
L 495.966797 163.30623 
L 496.511719 162.532061 
L 497.601562 161.706621 
L 498.146484 161.4554 
L 498.691406 160.947832 
L 499.236328 161.127275 
L 499.78125 160.840166 
L 500.871094 161.245195 
L 501.416016 161.460527 
L 501.960938 162.203936 
L 502.505859 162.562822 
L 504.685547 165.398027 
L 506.865234 169.622637 
L 509.044922 174.929033 
L 510.134766 176.43123 
L 511.769531 177.169512 
L 512.314453 176.882402 
L 512.859375 177.010576 
L 513.404297 177.02083 
L 514.494141 177.815508 
L 516.673828 181.435137 
L 517.21875 181.85042 
L 517.763672 182.634844 
L 518.308594 182.829668 
L 518.853516 182.768145 
L 519.398438 182.578447 
L 520.488281 181.337725 
L 522.667969 176.95418 
L 523.757812 174.236895 
L 524.302734 172.985918 
L 525.9375 168.248613 
L 527.572266 164.357256 
L 528.117188 163.665117 
L 528.662109 163.219072 
L 529.207031 162.926836 
L 529.751953 163.465166 
L 530.296875 163.757402 
L 531.386719 165.9825 
L 532.476562 169.1971 
L 536.291016 181.07625 
L 537.925781 183.916582 
L 538.470703 184.536943 
L 539.015625 184.77791 
L 540.105469 184.198564 
L 541.740234 180.871172 
L 544.464844 173.144854 
L 548.279297 161.163164 
L 549.914062 157.394854 
L 550.458984 156.825762 
L 551.003906 156.082354 
L 551.548828 155.779863 
L 552.09375 155.344072 
L 553.183594 155.369707 
L 554.818359 156.497637 
L 555.908203 158.025469 
L 557.542969 162.285967 
L 559.177734 166.828447 
L 560.267578 169.074053 
L 561.357422 170.453203 
L 561.902344 170.730059 
L 562.447266 170.607012 
L 562.992188 170.242998 
L 563.537109 169.638018 
L 564.626953 167.710283 
L 566.261719 163.82918 
L 566.806641 162.926836 
L 567.896484 160.7325 
L 568.986328 159.127764 
L 569.53125 158.794512 
L 570.076172 158.707354 
L 570.621094 158.492021 
L 571.166016 158.512529 
L 571.710938 159.009844 
L 572.255859 159.901934 
L 572.800781 160.563311 
L 575.525391 167.100176 
L 576.615234 169.909746 
L 577.705078 171.750322 
L 578.25 172.42708 
L 578.794922 172.673174 
L 579.339844 173.093584 
L 580.429688 172.693682 
L 580.974609 172.524492 
L 582.064453 171.335039 
L 582.609375 170.873613 
L 583.154297 169.955889 
L 584.789062 168.094805 
L 586.96875 165.618486 
L 587.513672 164.834062 
L 589.148438 162.967852 
L 590.238281 162.291094 
L 590.783203 162.557695 
L 591.328125 162.086016 
L 591.873047 162.275713 
L 592.962891 162.311602 
L 594.052734 162.270586 
L 595.142578 163.049883 
L 595.6875 163.501055 
L 596.232422 164.331621 
L 597.322266 166.628496 
L 598.957031 171.129961 
L 599.501953 172.442461 
L 600.046875 173.431963 
L 601.136719 174.790605 
L 602.226562 175.339189 
L 603.316406 175.636553 
L 604.951172 177.251543 
L 605.496094 178.14876 
L 606.041016 179.307451 
L 606.585938 180.004717 
L 607.675781 181.865801 
L 608.765625 182.768145 
L 609.855469 183.429521 
L 610.400391 183.414141 
L 611.490234 183.132158 
L 612.035156 182.547686 
L 612.580078 182.193926 
L 614.214844 179.533037 
L 615.849609 174.81624 
L 616.939453 170.93001 
L 618.029297 167.387285 
L 618.574219 165.895342 
L 619.664062 163.598467 
L 620.208984 163.039629 
L 620.753906 162.952471 
L 621.84375 163.213945 
L 622.388672 163.834307 
L 624.023438 167.259111 
L 625.658203 172.30916 
L 627.292969 178.389727 
L 628.927734 182.532305 
L 629.472656 183.388506 
L 630.017578 183.849932 
L 631.107422 184.152422 
L 632.197266 183.614092 
L 633.287109 182.199053 
L 634.376953 179.938066 
L 634.921875 178.866533 
L 636.011719 175.616045 
L 638.736328 165.638994 
L 642.005859 157.369219 
L 643.640625 154.8929 
L 644.730469 154.159746 
L 645.820312 154.272539 
L 646.365234 154.687822 
L 646.910156 155.410723 
L 647.455078 156.333574 
L 647.455078 156.333574 
" style="fill:none;stroke:#4c72b0;stroke-linecap:round;stroke-width:1.75;"/>
   </g>
   <g id="patch_3">
    <path d="M 90 270.72 
L 90 69.12 
" style="fill:none;stroke:#262626;stroke-linecap:square;stroke-linejoin:miter;stroke-width:1.25;"/>
   </g>
   <g id="patch_4">
    <path d="M 90 270.72 
L 648 270.72 
" style="fill:none;stroke:#262626;stroke-linecap:square;stroke-linejoin:miter;stroke-width:1.25;"/>
   </g>
  </g>
  <g id="axes_2">
   <g id="patch_5">
    <path d="M 90 512.64 
L 648 512.64 
L 648 311.04 
L 90 311.04 
z
" style="fill:#ffffff;"/>
   </g>
   <g id="matplotlib.axis_3">
    <g id="xtick_7">
     <g id="line2d_15">
      <g>
       <use style="fill:#262626;stroke:#262626;" x="218.197478" xlink:href="#m51e6db8d9b" y="512.64"/>
      </g>
     </g>
     <g id="text_14">
      <!-- $\mathdefault{10^{2}}$ -->
      <g style="fill:#262626;" transform="translate(210.347478 535.9525)scale(0.1 -0.1)">
       <use transform="translate(0 0.99375)" xlink:href="#ArialMT-31"/>
       <use transform="translate(55.615234 0.99375)" xlink:href="#ArialMT-30"/>
       <use transform="translate(112.972813 70.6875)scale(0.7)" xlink:href="#ArialMT-32"/>
      </g>
     </g>
    </g>
    <g id="xtick_8">
     <g id="line2d_16">
      <g>
       <use style="fill:#262626;stroke:#262626;" x="401.606604" xlink:href="#m51e6db8d9b" y="512.64"/>
      </g>
     </g>
     <g id="text_15">
      <!-- $\mathdefault{10^{3}}$ -->
      <defs>
       <path d="M 4.203125 18.890625 
L 12.984375 20.0625 
Q 14.5 12.59375 18.140625 9.296875 
Q 21.78125 6 27 6 
Q 33.203125 6 37.46875 10.296875 
Q 41.75 14.59375 41.75 20.953125 
Q 41.75 27 37.796875 30.921875 
Q 33.84375 34.859375 27.734375 34.859375 
Q 25.25 34.859375 21.53125 33.890625 
L 22.515625 41.609375 
Q 23.390625 41.5 23.921875 41.5 
Q 29.546875 41.5 34.03125 44.421875 
Q 38.53125 47.359375 38.53125 53.46875 
Q 38.53125 58.296875 35.25 61.46875 
Q 31.984375 64.65625 26.8125 64.65625 
Q 21.6875 64.65625 18.265625 61.421875 
Q 14.84375 58.203125 13.875 51.765625 
L 5.078125 53.328125 
Q 6.6875 62.15625 12.390625 67.015625 
Q 18.109375 71.875 26.609375 71.875 
Q 32.46875 71.875 37.390625 69.359375 
Q 42.328125 66.84375 44.9375 62.5 
Q 47.5625 58.15625 47.5625 53.265625 
Q 47.5625 48.640625 45.0625 44.828125 
Q 42.578125 41.015625 37.703125 38.765625 
Q 44.046875 37.3125 47.5625 32.6875 
Q 51.078125 28.078125 51.078125 21.140625 
Q 51.078125 11.765625 44.234375 5.25 
Q 37.40625 -1.265625 26.953125 -1.265625 
Q 17.53125 -1.265625 11.296875 4.34375 
Q 5.078125 9.96875 4.203125 18.890625 
z
" id="ArialMT-33"/>
      </defs>
      <g style="fill:#262626;" transform="translate(393.756604 535.9525)scale(0.1 -0.1)">
       <use transform="translate(0 0.99375)" xlink:href="#ArialMT-31"/>
       <use transform="translate(55.615234 0.99375)" xlink:href="#ArialMT-30"/>
       <use transform="translate(112.972813 70.6875)scale(0.7)" xlink:href="#ArialMT-33"/>
      </g>
     </g>
    </g>
    <g id="xtick_9">
     <g id="line2d_17">
      <g>
       <use style="fill:#262626;stroke:#262626;" x="585.01573" xlink:href="#m51e6db8d9b" y="512.64"/>
      </g>
     </g>
     <g id="text_16">
      <!-- $\mathdefault{10^{4}}$ -->
      <g style="fill:#262626;" transform="translate(577.16573 535.8525)scale(0.1 -0.1)">
       <use transform="translate(0 0.201563)" xlink:href="#ArialMT-31"/>
       <use transform="translate(55.615234 0.201563)" xlink:href="#ArialMT-30"/>
       <use transform="translate(112.972813 69.895313)scale(0.7)" xlink:href="#ArialMT-34"/>
      </g>
     </g>
    </g>
    <g id="xtick_10">
     <g id="line2d_18">
      <defs>
       <path d="M 0 0 
L 0 3 
" id="mbc9cb5c78b" style="stroke:#262626;stroke-width:0.5;"/>
      </defs>
      <g>
       <use style="fill:#262626;stroke:#262626;stroke-width:0.5;" x="90" xlink:href="#mbc9cb5c78b" y="512.64"/>
      </g>
     </g>
    </g>
    <g id="xtick_11">
     <g id="line2d_19">
      <g>
       <use style="fill:#262626;stroke:#262626;stroke-width:0.5;" x="122.296744" xlink:href="#mbc9cb5c78b" y="512.64"/>
      </g>
     </g>
    </g>
    <g id="xtick_12">
     <g id="line2d_20">
      <g>
       <use style="fill:#262626;stroke:#262626;stroke-width:0.5;" x="145.211648" xlink:href="#mbc9cb5c78b" y="512.64"/>
      </g>
     </g>
    </g>
    <g id="xtick_13">
     <g id="line2d_21">
      <g>
       <use style="fill:#262626;stroke:#262626;stroke-width:0.5;" x="162.985829" xlink:href="#mbc9cb5c78b" y="512.64"/>
      </g>
     </g>
    </g>
    <g id="xtick_14">
     <g id="line2d_22">
      <g>
       <use style="fill:#262626;stroke:#262626;stroke-width:0.5;" x="177.508392" xlink:href="#mbc9cb5c78b" y="512.64"/>
      </g>
     </g>
    </g>
    <g id="xtick_15">
     <g id="line2d_23">
      <g>
       <use style="fill:#262626;stroke:#262626;stroke-width:0.5;" x="189.787045" xlink:href="#mbc9cb5c78b" y="512.64"/>
      </g>
     </g>
    </g>
    <g id="xtick_16">
     <g id="line2d_24">
      <g>
       <use style="fill:#262626;stroke:#262626;stroke-width:0.5;" x="200.423297" xlink:href="#mbc9cb5c78b" y="512.64"/>
      </g>
     </g>
    </g>
    <g id="xtick_17">
     <g id="line2d_25">
      <g>
       <use style="fill:#262626;stroke:#262626;stroke-width:0.5;" x="209.805136" xlink:href="#mbc9cb5c78b" y="512.64"/>
      </g>
     </g>
    </g>
    <g id="xtick_18">
     <g id="line2d_26">
      <g>
       <use style="fill:#262626;stroke:#262626;stroke-width:0.5;" x="273.409126" xlink:href="#mbc9cb5c78b" y="512.64"/>
      </g>
     </g>
    </g>
    <g id="xtick_19">
     <g id="line2d_27">
      <g>
       <use style="fill:#262626;stroke:#262626;stroke-width:0.5;" x="305.70587" xlink:href="#mbc9cb5c78b" y="512.64"/>
      </g>
     </g>
    </g>
    <g id="xtick_20">
     <g id="line2d_28">
      <g>
       <use style="fill:#262626;stroke:#262626;stroke-width:0.5;" x="328.620775" xlink:href="#mbc9cb5c78b" y="512.64"/>
      </g>
     </g>
    </g>
    <g id="xtick_21">
     <g id="line2d_29">
      <g>
       <use style="fill:#262626;stroke:#262626;stroke-width:0.5;" x="346.394955" xlink:href="#mbc9cb5c78b" y="512.64"/>
      </g>
     </g>
    </g>
    <g id="xtick_22">
     <g id="line2d_30">
      <g>
       <use style="fill:#262626;stroke:#262626;stroke-width:0.5;" x="360.917518" xlink:href="#mbc9cb5c78b" y="512.64"/>
      </g>
     </g>
    </g>
    <g id="xtick_23">
     <g id="line2d_31">
      <g>
       <use style="fill:#262626;stroke:#262626;stroke-width:0.5;" x="373.196171" xlink:href="#mbc9cb5c78b" y="512.64"/>
      </g>
     </g>
    </g>
    <g id="xtick_24">
     <g id="line2d_32">
      <g>
       <use style="fill:#262626;stroke:#262626;stroke-width:0.5;" x="383.832423" xlink:href="#mbc9cb5c78b" y="512.64"/>
      </g>
     </g>
    </g>
    <g id="xtick_25">
     <g id="line2d_33">
      <g>
       <use style="fill:#262626;stroke:#262626;stroke-width:0.5;" x="393.214262" xlink:href="#mbc9cb5c78b" y="512.64"/>
      </g>
     </g>
    </g>
    <g id="xtick_26">
     <g id="line2d_34">
      <g>
       <use style="fill:#262626;stroke:#262626;stroke-width:0.5;" x="456.818252" xlink:href="#mbc9cb5c78b" y="512.64"/>
      </g>
     </g>
    </g>
    <g id="xtick_27">
     <g id="line2d_35">
      <g>
       <use style="fill:#262626;stroke:#262626;stroke-width:0.5;" x="489.114996" xlink:href="#mbc9cb5c78b" y="512.64"/>
      </g>
     </g>
    </g>
    <g id="xtick_28">
     <g id="line2d_36">
      <g>
       <use style="fill:#262626;stroke:#262626;stroke-width:0.5;" x="512.029901" xlink:href="#mbc9cb5c78b" y="512.64"/>
      </g>
     </g>
    </g>
    <g id="xtick_29">
     <g id="line2d_37">
      <g>
       <use style="fill:#262626;stroke:#262626;stroke-width:0.5;" x="529.804081" xlink:href="#mbc9cb5c78b" y="512.64"/>
      </g>
     </g>
    </g>
    <g id="xtick_30">
     <g id="line2d_38">
      <g>
       <use style="fill:#262626;stroke:#262626;stroke-width:0.5;" x="544.326645" xlink:href="#mbc9cb5c78b" y="512.64"/>
      </g>
     </g>
    </g>
    <g id="xtick_31">
     <g id="line2d_39">
      <g>
       <use style="fill:#262626;stroke:#262626;stroke-width:0.5;" x="556.605297" xlink:href="#mbc9cb5c78b" y="512.64"/>
      </g>
     </g>
    </g>
    <g id="xtick_32">
     <g id="line2d_40">
      <g>
       <use style="fill:#262626;stroke:#262626;stroke-width:0.5;" x="567.241549" xlink:href="#mbc9cb5c78b" y="512.64"/>
      </g>
     </g>
    </g>
    <g id="xtick_33">
     <g id="line2d_41">
      <g>
       <use style="fill:#262626;stroke:#262626;stroke-width:0.5;" x="576.623389" xlink:href="#mbc9cb5c78b" y="512.64"/>
      </g>
     </g>
    </g>
    <g id="xtick_34">
     <g id="line2d_42">
      <g>
       <use style="fill:#262626;stroke:#262626;stroke-width:0.5;" x="640.227378" xlink:href="#mbc9cb5c78b" y="512.64"/>
      </g>
     </g>
    </g>
   </g>
   <g id="matplotlib.axis_4">
    <g id="ytick_8">
     <g id="line2d_43">
      <g>
       <use style="fill:#262626;stroke:#262626;" x="90" xlink:href="#m6b0989ec5e" y="512.64"/>
      </g>
     </g>
     <g id="text_17">
      <!-- $\mathdefault{10^{-5}}$ -->
      <defs>
       <path d="M 4.15625 18.75 
L 13.375 19.53125 
Q 14.40625 12.796875 18.140625 9.390625 
Q 21.875 6 27.15625 6 
Q 33.5 6 37.890625 10.78125 
Q 42.28125 15.578125 42.28125 23.484375 
Q 42.28125 31 38.0625 35.34375 
Q 33.84375 39.703125 27 39.703125 
Q 22.75 39.703125 19.328125 37.765625 
Q 15.921875 35.84375 13.96875 32.765625 
L 5.71875 33.84375 
L 12.640625 70.609375 
L 48.25 70.609375 
L 48.25 62.203125 
L 19.671875 62.203125 
L 15.828125 42.96875 
Q 22.265625 47.46875 29.34375 47.46875 
Q 38.71875 47.46875 45.15625 40.96875 
Q 51.609375 34.46875 51.609375 24.265625 
Q 51.609375 14.546875 45.953125 7.46875 
Q 39.0625 -1.21875 27.15625 -1.21875 
Q 17.390625 -1.21875 11.203125 4.25 
Q 5.03125 9.71875 4.15625 18.75 
z
" id="ArialMT-35"/>
      </defs>
      <g style="fill:#262626;" transform="translate(57.2 517.74625)scale(0.1 -0.1)">
       <use transform="translate(0 0.879688)" xlink:href="#ArialMT-31"/>
       <use transform="translate(55.615234 0.879688)" xlink:href="#ArialMT-30"/>
       <use transform="translate(112.972813 70.573438)scale(0.7)" xlink:href="#ArialMT-2212"/>
       <use transform="translate(153.851719 70.573438)scale(0.7)" xlink:href="#ArialMT-35"/>
      </g>
     </g>
    </g>
    <g id="ytick_9">
     <g id="line2d_44">
      <g>
       <use style="fill:#262626;stroke:#262626;" x="90" xlink:href="#m6b0989ec5e" y="465.767507"/>
      </g>
     </g>
     <g id="text_18">
      <!-- $\mathdefault{10^{-4}}$ -->
      <g style="fill:#262626;" transform="translate(57.2 470.873757)scale(0.1 -0.1)">
       <use transform="translate(0 0.201563)" xlink:href="#ArialMT-31"/>
       <use transform="translate(55.615234 0.201563)" xlink:href="#ArialMT-30"/>
       <use transform="translate(112.972813 69.895313)scale(0.7)" xlink:href="#ArialMT-2212"/>
       <use transform="translate(153.851719 69.895313)scale(0.7)" xlink:href="#ArialMT-34"/>
      </g>
     </g>
    </g>
    <g id="ytick_10">
     <g id="line2d_45">
      <g>
       <use style="fill:#262626;stroke:#262626;" x="90" xlink:href="#m6b0989ec5e" y="418.895013"/>
      </g>
     </g>
     <g id="text_19">
      <!-- $\mathdefault{10^{-3}}$ -->
      <g style="fill:#262626;" transform="translate(57.2 424.051263)scale(0.1 -0.1)">
       <use transform="translate(0 0.99375)" xlink:href="#ArialMT-31"/>
       <use transform="translate(55.615234 0.99375)" xlink:href="#ArialMT-30"/>
       <use transform="translate(112.972813 70.6875)scale(0.7)" xlink:href="#ArialMT-2212"/>
       <use transform="translate(153.851719 70.6875)scale(0.7)" xlink:href="#ArialMT-33"/>
      </g>
     </g>
    </g>
    <g id="ytick_11">
     <g id="line2d_46">
      <g>
       <use style="fill:#262626;stroke:#262626;" x="90" xlink:href="#m6b0989ec5e" y="372.02252"/>
      </g>
     </g>
     <g id="text_20">
      <!-- $\mathdefault{10^{-2}}$ -->
      <g style="fill:#262626;" transform="translate(57.2 377.17877)scale(0.1 -0.1)">
       <use transform="translate(0 0.99375)" xlink:href="#ArialMT-31"/>
       <use transform="translate(55.615234 0.99375)" xlink:href="#ArialMT-30"/>
       <use transform="translate(112.972813 70.6875)scale(0.7)" xlink:href="#ArialMT-2212"/>
       <use transform="translate(153.851719 70.6875)scale(0.7)" xlink:href="#ArialMT-32"/>
      </g>
     </g>
    </g>
    <g id="ytick_12">
     <g id="line2d_47">
      <g>
       <use style="fill:#262626;stroke:#262626;" x="90" xlink:href="#m6b0989ec5e" y="325.150026"/>
      </g>
     </g>
     <g id="text_21">
      <!-- $\mathdefault{10^{-1}}$ -->
      <g style="fill:#262626;" transform="translate(57.2 330.306276)scale(0.1 -0.1)">
       <use transform="translate(0 0.99375)" xlink:href="#ArialMT-31"/>
       <use transform="translate(55.615234 0.99375)" xlink:href="#ArialMT-30"/>
       <use transform="translate(112.972813 70.6875)scale(0.7)" xlink:href="#ArialMT-2212"/>
       <use transform="translate(153.851719 70.6875)scale(0.7)" xlink:href="#ArialMT-31"/>
      </g>
     </g>
    </g>
    <g id="ytick_13">
     <g id="line2d_48">
      <defs>
       <path d="M 0 0 
L -3 0 
" id="m734a677bfb" style="stroke:#262626;stroke-width:0.5;"/>
      </defs>
      <g>
       <use style="fill:#262626;stroke:#262626;stroke-width:0.5;" x="90" xlink:href="#m734a677bfb" y="498.529974"/>
      </g>
     </g>
    </g>
    <g id="ytick_14">
     <g id="line2d_49">
      <g>
       <use style="fill:#262626;stroke:#262626;stroke-width:0.5;" x="90" xlink:href="#m734a677bfb" y="490.276137"/>
      </g>
     </g>
    </g>
    <g id="ytick_15">
     <g id="line2d_50">
      <g>
       <use style="fill:#262626;stroke:#262626;stroke-width:0.5;" x="90" xlink:href="#m734a677bfb" y="484.419947"/>
      </g>
     </g>
    </g>
    <g id="ytick_16">
     <g id="line2d_51">
      <g>
       <use style="fill:#262626;stroke:#262626;stroke-width:0.5;" x="90" xlink:href="#m734a677bfb" y="479.877533"/>
      </g>
     </g>
    </g>
    <g id="ytick_17">
     <g id="line2d_52">
      <g>
       <use style="fill:#262626;stroke:#262626;stroke-width:0.5;" x="90" xlink:href="#m734a677bfb" y="476.166111"/>
      </g>
     </g>
    </g>
    <g id="ytick_18">
     <g id="line2d_53">
      <g>
       <use style="fill:#262626;stroke:#262626;stroke-width:0.5;" x="90" xlink:href="#m734a677bfb" y="473.028148"/>
      </g>
     </g>
    </g>
    <g id="ytick_19">
     <g id="line2d_54">
      <g>
       <use style="fill:#262626;stroke:#262626;stroke-width:0.5;" x="90" xlink:href="#m734a677bfb" y="470.309921"/>
      </g>
     </g>
    </g>
    <g id="ytick_20">
     <g id="line2d_55">
      <g>
       <use style="fill:#262626;stroke:#262626;stroke-width:0.5;" x="90" xlink:href="#m734a677bfb" y="467.912274"/>
      </g>
     </g>
    </g>
    <g id="ytick_21">
     <g id="line2d_56">
      <g>
       <use style="fill:#262626;stroke:#262626;stroke-width:0.5;" x="90" xlink:href="#m734a677bfb" y="451.65748"/>
      </g>
     </g>
    </g>
    <g id="ytick_22">
     <g id="line2d_57">
      <g>
       <use style="fill:#262626;stroke:#262626;stroke-width:0.5;" x="90" xlink:href="#m734a677bfb" y="443.403644"/>
      </g>
     </g>
    </g>
    <g id="ytick_23">
     <g id="line2d_58">
      <g>
       <use style="fill:#262626;stroke:#262626;stroke-width:0.5;" x="90" xlink:href="#m734a677bfb" y="437.547454"/>
      </g>
     </g>
    </g>
    <g id="ytick_24">
     <g id="line2d_59">
      <g>
       <use style="fill:#262626;stroke:#262626;stroke-width:0.5;" x="90" xlink:href="#m734a677bfb" y="433.00504"/>
      </g>
     </g>
    </g>
    <g id="ytick_25">
     <g id="line2d_60">
      <g>
       <use style="fill:#262626;stroke:#262626;stroke-width:0.5;" x="90" xlink:href="#m734a677bfb" y="429.293617"/>
      </g>
     </g>
    </g>
    <g id="ytick_26">
     <g id="line2d_61">
      <g>
       <use style="fill:#262626;stroke:#262626;stroke-width:0.5;" x="90" xlink:href="#m734a677bfb" y="426.155654"/>
      </g>
     </g>
    </g>
    <g id="ytick_27">
     <g id="line2d_62">
      <g>
       <use style="fill:#262626;stroke:#262626;stroke-width:0.5;" x="90" xlink:href="#m734a677bfb" y="423.437427"/>
      </g>
     </g>
    </g>
    <g id="ytick_28">
     <g id="line2d_63">
      <g>
       <use style="fill:#262626;stroke:#262626;stroke-width:0.5;" x="90" xlink:href="#m734a677bfb" y="421.039781"/>
      </g>
     </g>
    </g>
    <g id="ytick_29">
     <g id="line2d_64">
      <g>
       <use style="fill:#262626;stroke:#262626;stroke-width:0.5;" x="90" xlink:href="#m734a677bfb" y="404.784987"/>
      </g>
     </g>
    </g>
    <g id="ytick_30">
     <g id="line2d_65">
      <g>
       <use style="fill:#262626;stroke:#262626;stroke-width:0.5;" x="90" xlink:href="#m734a677bfb" y="396.53115"/>
      </g>
     </g>
    </g>
    <g id="ytick_31">
     <g id="line2d_66">
      <g>
       <use style="fill:#262626;stroke:#262626;stroke-width:0.5;" x="90" xlink:href="#m734a677bfb" y="390.67496"/>
      </g>
     </g>
    </g>
    <g id="ytick_32">
     <g id="line2d_67">
      <g>
       <use style="fill:#262626;stroke:#262626;stroke-width:0.5;" x="90" xlink:href="#m734a677bfb" y="386.132546"/>
      </g>
     </g>
    </g>
    <g id="ytick_33">
     <g id="line2d_68">
      <g>
       <use style="fill:#262626;stroke:#262626;stroke-width:0.5;" x="90" xlink:href="#m734a677bfb" y="382.421124"/>
      </g>
     </g>
    </g>
    <g id="ytick_34">
     <g id="line2d_69">
      <g>
       <use style="fill:#262626;stroke:#262626;stroke-width:0.5;" x="90" xlink:href="#m734a677bfb" y="379.283161"/>
      </g>
     </g>
    </g>
    <g id="ytick_35">
     <g id="line2d_70">
      <g>
       <use style="fill:#262626;stroke:#262626;stroke-width:0.5;" x="90" xlink:href="#m734a677bfb" y="376.564934"/>
      </g>
     </g>
    </g>
    <g id="ytick_36">
     <g id="line2d_71">
      <g>
       <use style="fill:#262626;stroke:#262626;stroke-width:0.5;" x="90" xlink:href="#m734a677bfb" y="374.167288"/>
      </g>
     </g>
    </g>
    <g id="ytick_37">
     <g id="line2d_72">
      <g>
       <use style="fill:#262626;stroke:#262626;stroke-width:0.5;" x="90" xlink:href="#m734a677bfb" y="357.912493"/>
      </g>
     </g>
    </g>
    <g id="ytick_38">
     <g id="line2d_73">
      <g>
       <use style="fill:#262626;stroke:#262626;stroke-width:0.5;" x="90" xlink:href="#m734a677bfb" y="349.658657"/>
      </g>
     </g>
    </g>
    <g id="ytick_39">
     <g id="line2d_74">
      <g>
       <use style="fill:#262626;stroke:#262626;stroke-width:0.5;" x="90" xlink:href="#m734a677bfb" y="343.802467"/>
      </g>
     </g>
    </g>
    <g id="ytick_40">
     <g id="line2d_75">
      <g>
       <use style="fill:#262626;stroke:#262626;stroke-width:0.5;" x="90" xlink:href="#m734a677bfb" y="339.260053"/>
      </g>
     </g>
    </g>
    <g id="ytick_41">
     <g id="line2d_76">
      <g>
       <use style="fill:#262626;stroke:#262626;stroke-width:0.5;" x="90" xlink:href="#m734a677bfb" y="335.548631"/>
      </g>
     </g>
    </g>
    <g id="ytick_42">
     <g id="line2d_77">
      <g>
       <use style="fill:#262626;stroke:#262626;stroke-width:0.5;" x="90" xlink:href="#m734a677bfb" y="332.410668"/>
      </g>
     </g>
    </g>
    <g id="ytick_43">
     <g id="line2d_78">
      <g>
       <use style="fill:#262626;stroke:#262626;stroke-width:0.5;" x="90" xlink:href="#m734a677bfb" y="329.69244"/>
      </g>
     </g>
    </g>
    <g id="ytick_44">
     <g id="line2d_79">
      <g>
       <use style="fill:#262626;stroke:#262626;stroke-width:0.5;" x="90" xlink:href="#m734a677bfb" y="327.294794"/>
      </g>
     </g>
    </g>
    <g id="ytick_45">
     <g id="line2d_80">
      <g>
       <use style="fill:#262626;stroke:#262626;stroke-width:0.5;" x="90" xlink:href="#m734a677bfb" y="311.04"/>
      </g>
     </g>
    </g>
   </g>
   <g id="line2d_81">
    <path clip-path="url(#p8714a736f8)" d="M -1 387.613428 
L 151.095164 387.570738 
L 206.306812 415.085522 
L 238.603556 404.540692 
L 261.518461 408.838276 
L 279.292642 429.566674 
L 293.815205 358.054706 
L 306.093857 424.812394 
L 316.730109 415.798557 
L 326.111949 427.077764 
L 342.096086 413.91276 
L 349.026853 380.97377 
L 355.402541 452.72246 
L 361.305505 434.204753 
L 366.801034 426.776443 
L 371.941758 417.664162 
L 376.770725 409.794502 
L 381.323597 367.031038 
L 385.630245 398.414305 
L 389.715939 408.856897 
L 393.602249 407.317603 
L 397.307735 402.154074 
L 400.848476 392.765799 
L 404.238502 359.766173 
L 407.490119 389.56302 
L 410.614189 413.85493 
L 413.620341 428.850845 
L 416.517154 433.552626 
L 419.312303 410.199241 
L 422.012683 374.416439 
L 424.624509 384.66833 
L 427.153406 399.305409 
L 429.604479 406.107251 
L 431.982374 409.5903 
L 434.291335 409.628441 
L 436.535246 398.635825 
L 438.717672 426.789747 
L 440.841893 449.158399 
L 442.910933 431.99986 
L 444.927587 428.222057 
L 446.894442 421.458138 
L 448.813898 404.774878 
L 450.688186 397.400243 
L 452.519383 426.643148 
L 454.309426 440.027818 
L 456.060125 444.72634 
L 457.773171 450.677944 
L 459.45015 452.959122 
L 461.09255 425.390536 
L 462.701768 468.285672 
L 464.279118 457.266651 
L 465.825838 465.816153 
L 467.343094 473.402455 
L 468.83199 471.407907 
L 470.293564 429.437556 
L 471.728802 441.132047 
L 473.138637 449.532359 
L 474.523951 448.049014 
L 475.885584 450.617116 
L 477.224331 454.772411 
L 478.540949 431.385977 
L 479.836157 447.545765 
L 481.110642 499.137903 
L 482.365055 465.052491 
L 483.600019 482.248094 
L 484.816127 478.656748 
L 486.013948 458.844132 
L 487.194022 429.315533 
L 488.356869 471.558623 
L 489.502983 467.279724 
L 490.63284 465.712742 
L 491.746894 463.343511 
L 492.845581 453.605761 
L 493.92932 428.553174 
L 494.998512 433.979603 
L 496.053541 458.086658 
L 497.094779 462.683835 
L 498.122582 471.390152 
L 499.137291 488.502427 
L 500.139235 474.177176 
L 501.128734 427.515123 
L 502.10609 491.547085 
L 503.0716 492.972997 
L 504.025546 479.190275 
L 504.968203 470.282117 
L 505.899834 491.196116 
L 506.820695 499.291085 
L 507.731032 473.036681 
L 508.631082 487.359781 
L 509.521075 482.637705 
L 510.401234 474.559654 
L 511.271773 489.028309 
L 512.132901 481.974385 
L 512.984819 467.581972 
L 513.827722 459.285927 
L 515.487232 508.847611 
L 516.304198 487.538159 
L 517.112871 487.845826 
L 517.913416 500.755876 
L 518.705996 475.803938 
L 519.490766 523.471923 
L 520.26788 501.630086 
L 521.037486 503.88369 
L 521.799727 497.83896 
L 522.554743 500.037499 
L 523.302669 499.760419 
L 524.043638 491.493895 
L 524.777778 487.977682 
L 525.505212 494.090849 
L 526.226064 501.226107 
L 526.940451 505.041197 
L 527.648487 492.46536 
L 528.350285 516.094002 
L 529.045954 476.372188 
L 529.7356 493.517942 
L 530.419326 489.192508 
L 531.097232 504.717333 
L 531.769418 485.295276 
L 532.435979 508.106218 
L 533.097009 499.780492 
L 533.752597 488.539925 
L 534.402834 485.924993 
L 535.047806 525.665805 
L 535.687597 502.218174 
L 536.32229 511.403062 
L 536.951966 487.537317 
L 537.576703 548.388836 
L 538.196578 494.8147 
L 538.811667 486.324324 
L 539.422042 500.445794 
L 540.027776 519.919957 
L 541.225596 484.65638 
L 541.817819 491.73354 
L 542.405671 488.998956 
L 542.989216 488.706129 
L 543.568517 489.88925 
L 544.143636 498.250485 
L 544.714632 526.010686 
L 545.281563 520.844458 
L 545.844488 522.815538 
L 546.403463 513.761546 
L 546.958543 500.034347 
L 547.509781 490.120538 
L 548.05723 504.377252 
L 548.600942 496.706528 
L 549.140969 499.08973 
L 549.677358 489.987675 
L 550.21016 493.689289 
L 550.739422 501.726258 
L 551.26519 506.409956 
L 551.78751 524.853409 
L 552.306428 505.368117 
L 552.821987 506.27057 
L 553.33423 503.675583 
L 553.8432 498.635901 
L 554.348939 522.14786 
L 555.350884 493.364887 
L 555.847169 512.21235 
L 556.340382 504.974475 
L 556.830559 499.534844 
L 557.317739 504.323814 
L 558.283248 501.13099 
L 558.76165 500.185547 
L 559.237195 509.838954 
L 559.709918 494.415628 
L 560.179852 522.862478 
L 560.647029 502.711426 
L 561.111483 493.588314 
L 561.573244 501.384114 
L 562.032344 511.353083 
L 562.488812 514.159424 
L 562.94268 493.129141 
L 563.393976 493.757959 
L 563.84273 507.218984 
L 564.28897 489.861063 
L 564.732723 482.58047 
L 565.174019 489.862243 
L 565.612882 502.978421 
L 566.049341 497.837736 
L 566.483422 527.25349 
L 566.91515 526.864452 
L 567.34455 498.87993 
L 567.771648 507.028079 
L 568.196468 500.165414 
L 568.619034 504.319435 
L 569.039371 499.101714 
L 569.457501 509.232004 
L 569.873447 510.656793 
L 570.287233 507.675101 
L 570.69888 486.912207 
L 571.108411 490.423471 
L 571.515847 530.463546 
L 571.921209 504.399888 
L 572.725798 519.664519 
L 573.125065 520.832423 
L 573.52234 503.223651 
L 573.917644 503.930597 
L 574.310996 510.960569 
L 574.702415 501.985172 
L 575.091919 504.982367 
L 575.479529 506.453604 
L 575.865261 493.632434 
L 576.249135 511.791294 
L 576.631167 494.267539 
L 577.011376 499.379722 
L 577.389778 542.575283 
L 577.766391 502.788509 
L 578.141232 514.145592 
L 578.514318 494.5283 
L 578.885664 513.0217 
L 579.255287 501.761365 
L 579.623202 507.264324 
L 579.989426 530.285392 
L 580.353974 507.473441 
L 580.716861 497.68986 
L 581.078102 525.038862 
L 581.437713 525.824707 
L 581.795707 490.489748 
L 582.152099 524.124667 
L 582.506904 512.458694 
L 582.860136 540.13262 
L 583.211808 498.108936 
L 583.561934 512.322124 
L 583.910528 492.653943 
L 584.257603 498.539863 
L 584.603172 501.207915 
L 584.947248 522.084305 
L 585.289845 531.274394 
L 585.630974 511.428736 
L 585.970649 504.954453 
L 586.308881 509.941143 
L 586.645683 495.183559 
L 586.981067 488.653477 
L 587.315045 503.325188 
L 587.978828 516.531922 
L 588.308657 498.362252 
L 588.637126 506.389717 
L 588.964246 491.526605 
L 589.614483 543.0893 
L 589.937621 490.890746 
L 590.259454 491.822789 
L 590.579992 494.858197 
L 590.899246 532.456221 
L 591.217224 493.524324 
L 591.849399 534.557586 
L 592.476596 479.931972 
L 592.788352 507.971197 
L 593.098892 546.446134 
L 593.408227 506.037192 
L 593.716365 510.583458 
L 594.023315 509.558306 
L 594.329088 487.777272 
L 594.633691 497.029437 
L 594.937133 499.737709 
L 595.239424 498.146655 
L 595.540572 503.948951 
L 595.840586 493.583705 
L 596.139474 494.736226 
L 596.437245 512.300344 
L 596.733906 505.809596 
L 597.029467 502.202571 
L 597.323936 511.79597 
L 597.617319 507.855711 
L 597.909626 536.183372 
L 598.491042 494.913282 
L 598.780166 508.238682 
L 599.068244 497.663821 
L 599.355284 509.154316 
L 599.641294 499.724644 
L 599.92628 549.780692 
L 600.21025 504.358363 
L 601.056137 486.380469 
L 601.336115 518.380325 
L 601.615112 499.644338 
L 601.893135 503.590752 
L 602.170191 492.680243 
L 602.446287 489.425807 
L 602.721429 505.723416 
L 602.995624 508.048751 
L 603.268878 515.497314 
L 603.541199 499.071908 
L 603.812591 505.668427 
L 604.083062 503.073219 
L 604.352617 513.954194 
L 604.621264 511.629178 
L 604.889007 510.979183 
L 605.155853 504.385067 
L 605.421809 489.099388 
L 605.686879 513.757014 
L 605.95107 504.813555 
L 606.214388 527.837641 
L 606.476838 517.961092 
L 606.738427 501.387911 
L 606.999159 539.210715 
L 607.518076 497.65513 
L 607.776273 506.169901 
L 608.033635 505.144461 
L 608.290169 501.797038 
L 608.545879 484.208517 
L 608.80077 514.742852 
L 609.054849 507.426142 
L 609.308119 496.417409 
L 609.560587 502.574033 
L 609.812258 503.365246 
L 610.063135 509.657439 
L 610.313225 494.542801 
L 610.562532 491.938314 
L 610.811062 509.367569 
L 611.058818 509.515883 
L 611.305806 497.860755 
L 611.55203 504.429701 
L 611.797496 499.682227 
L 612.042208 530.120446 
L 612.529387 504.904035 
L 612.771864 500.90982 
L 613.013605 499.777347 
L 613.254614 504.570065 
L 613.494897 493.317755 
L 613.734457 493.258341 
L 613.973298 529.904035 
L 614.211426 504.517472 
L 614.448843 555.557821 
L 614.685555 491.789849 
L 614.921566 495.313854 
L 615.15688 513.068558 
L 615.3915 500.842556 
L 615.625431 506.034063 
L 615.858678 516.720345 
L 616.091243 547.042636 
L 616.323131 512.075023 
L 616.554347 503.169047 
L 616.784892 506.116755 
L 617.014773 526.719232 
L 617.243992 496.055835 
L 617.472553 506.298139 
L 617.700461 500.020685 
L 617.927718 501.446308 
L 618.154329 509.349371 
L 618.605625 488.059244 
L 618.830318 487.626741 
L 619.277811 510.746472 
L 619.500618 517.839036 
L 619.944372 502.94362 
L 620.165325 496.37841 
L 620.385667 498.616356 
L 620.824531 518.136533 
L 621.043059 505.878071 
L 621.26099 506.568421 
L 621.478326 530.529047 
L 621.69507 499.658306 
L 621.911227 489.614389 
L 622.126798 505.470629 
L 622.341787 505.33466 
L 622.556198 497.978593 
L 622.983296 494.517642 
L 623.195989 511.177297 
L 623.408116 492.766229 
L 623.61968 506.534708 
L 623.830683 489.67999 
L 624.041128 516.282992 
L 624.251019 502.518277 
L 624.460358 502.034549 
L 624.669149 492.39141 
L 624.877394 498.977225 
L 625.292257 486.83678 
L 625.498881 501.759528 
L 625.704971 498.509547 
L 626.115557 503.425091 
L 626.320059 505.639503 
L 626.524038 524.817282 
L 626.727495 498.649568 
L 626.930435 521.115647 
L 627.132858 497.577751 
L 627.536168 503.88752 
L 628.13733 527.067937 
L 628.336713 493.357302 
L 628.535599 507.877495 
L 628.733989 497.892009 
L 628.931886 503.944738 
L 629.129293 528.301251 
L 629.326211 505.091535 
L 629.522644 504.936635 
L 629.718594 492.412591 
L 630.109054 532.603203 
L 630.303568 499.678184 
L 630.497608 501.383628 
L 630.691177 504.735449 
L 630.884277 500.244567 
L 631.07691 560.643654 
L 631.269078 490.29301 
L 631.460783 501.140261 
L 631.652028 503.183984 
L 631.842815 488.4935 
L 632.223024 503.508501 
L 632.41245 503.200611 
L 632.601426 516.357731 
L 632.789956 483.190288 
L 632.97804 487.421258 
L 633.352881 502.272062 
L 633.539642 495.434293 
L 633.725966 503.567175 
L 634.097312 485.611781 
L 634.282338 508.088279 
L 634.466935 501.778737 
L 634.651105 501.139298 
L 634.83485 486.374924 
L 635.018173 489.070206 
L 635.201074 511.619446 
L 635.383557 497.109296 
L 635.565622 504.916768 
L 635.747272 503.751679 
L 635.928509 489.714588 
L 636.109335 502.861677 
L 636.289751 497.088854 
L 636.469759 507.724995 
L 636.649361 531.749342 
L 636.828559 534.214127 
L 637.007355 504.4005 
L 637.185751 521.802363 
L 637.363748 488.923429 
L 637.541348 501.337529 
L 637.718553 500.01013 
L 638.071784 486.847087 
L 638.247814 486.685386 
L 638.423456 495.690837 
L 638.598712 526.59434 
L 638.773582 497.949268 
L 638.94807 498.133836 
L 639.469251 486.321074 
L 639.642223 540.686316 
L 639.987044 491.042197 
L 640.158897 526.319316 
L 640.330379 496.200009 
L 640.501493 490.687568 
L 640.842622 492.700187 
L 641.012641 532.470937 
L 641.182297 490.562687 
L 641.351593 520.829593 
L 641.520529 498.450037 
L 641.689108 504.443656 
L 641.857331 533.823318 
L 642.0252 481.462191 
L 642.192715 506.133418 
L 642.359879 493.792636 
L 642.526693 490.171842 
L 642.693158 506.628083 
L 642.859276 494.097716 
L 643.025049 498.32724 
L 643.190477 490.938696 
L 643.355562 502.554214 
L 643.520306 500.32424 
L 643.684709 507.171314 
L 643.848774 499.746035 
L 644.175894 515.317243 
L 644.501676 497.767083 
L 644.664069 534.101071 
L 644.826131 503.275238 
L 644.987864 501.270835 
L 645.14927 508.969571 
L 645.310349 507.845331 
L 645.471103 533.577504 
L 645.631533 503.613063 
L 645.791641 512.643203 
L 645.951427 512.946105 
L 646.110894 520.976312 
L 646.270042 494.717747 
L 646.587387 521.310901 
L 646.745587 497.59721 
L 646.903473 500.080954 
L 647.061047 529.592549 
L 647.21831 507.304393 
L 647.375263 516.239645 
L 647.531907 515.90974 
L 647.688244 527.172375 
L 647.844274 520.480093 
L 647.844274 520.480093 
" style="fill:none;stroke:#b22222;stroke-linecap:round;stroke-width:1.75;"/>
   </g>
   <g id="patch_6">
    <path d="M 90 512.64 
L 90 311.04 
" style="fill:none;stroke:#262626;stroke-linecap:square;stroke-linejoin:miter;stroke-width:1.25;"/>
   </g>
   <g id="patch_7">
    <path d="M 90 512.64 
L 648 512.64 
" style="fill:none;stroke:#262626;stroke-linecap:square;stroke-linejoin:miter;stroke-width:1.25;"/>
   </g>
  </g>
 </g>
 <defs>
  <clipPath id="p7c5a3d5644">
   <rect height="201.6" width="558" x="90" y="69.12"/>
  </clipPath>
  <clipPath id="p8714a736f8">
   <rect height="201.6" width="558" x="90" y="311.04"/>
  </clipPath>
 </defs>
</svg>
