<?xml version="1.0" encoding="utf-8" standalone="no"?>
<!DOCTYPE svg PUBLIC "-//W3C//DTD SVG 1.1//EN"
  "http://www.w3.org/Graphics/SVG/1.1/DTD/svg11.dtd">
<!-- Created with matplotlib (http://matplotlib.org/) -->
<svg height="576pt" version="1.1" viewBox="0 0 720 576" width="720pt" xmlns="http://www.w3.org/2000/svg" xmlns:xlink="http://www.w3.org/1999/xlink">
 <defs>
  <style type="text/css">
*{stroke-linecap:butt;stroke-linejoin:round;}
  </style>
 </defs>
 <g id="figure_1">
  <g id="patch_1">
   <path d="M 0 576 
L 720 576 
L 720 0 
L 0 0 
z
" style="fill:#ffffff;"/>
  </g>
  <g id="axes_1">
   <g id="patch_2">
    <path d="M 90 270.72 
L 648 270.72 
L 648 69.12 
L 90 69.12 
z
" style="fill:#ffffff;"/>
   </g>
   <g id="matplotlib.axis_1">
    <g id="xtick_1">
     <g id="line2d_1">
      <defs>
       <path d="M 0 0 
L 0 6 
" id="m5b4000c7f7" style="stroke:#262626;"/>
      </defs>
      <g>
       <use style="fill:#262626;stroke:#262626;" x="90" xlink:href="#m5b4000c7f7" y="270.72"/>
      </g>
     </g>
     <g id="text_1">
      <!-- 0 -->
      <defs>
       <path d="M 4.15625 35.296875 
Q 4.15625 48 6.765625 55.734375 
Q 9.375 63.484375 14.515625 67.671875 
Q 19.671875 71.875 27.484375 71.875 
Q 33.25 71.875 37.59375 69.546875 
Q 41.9375 67.234375 44.765625 62.859375 
Q 47.609375 58.5 49.21875 52.21875 
Q 50.828125 45.953125 50.828125 35.296875 
Q 50.828125 22.703125 48.234375 14.96875 
Q 45.65625 7.234375 40.5 3 
Q 35.359375 -1.21875 27.484375 -1.21875 
Q 17.140625 -1.21875 11.234375 6.203125 
Q 4.15625 15.140625 4.15625 35.296875 
z
M 13.1875 35.296875 
Q 13.1875 17.671875 17.3125 11.828125 
Q 21.4375 6 27.484375 6 
Q 33.546875 6 37.671875 11.859375 
Q 41.796875 17.71875 41.796875 35.296875 
Q 41.796875 52.984375 37.671875 58.78125 
Q 33.546875 64.59375 27.390625 64.59375 
Q 21.34375 64.59375 17.71875 59.46875 
Q 13.1875 52.9375 13.1875 35.296875 
z
" id="ArialMT-30"/>
      </defs>
      <g style="fill:#262626;" transform="translate(87.219531 290.877812)scale(0.1 -0.1)">
       <use xlink:href="#ArialMT-30"/>
      </g>
     </g>
    </g>
    <g id="xtick_2">
     <g id="line2d_2">
      <g>
       <use style="fill:#262626;stroke:#262626;" x="198.984375" xlink:href="#m5b4000c7f7" y="270.72"/>
      </g>
     </g>
     <g id="text_2">
      <!-- 200 -->
      <defs>
       <path d="M 50.34375 8.453125 
L 50.34375 0 
L 3.03125 0 
Q 2.9375 3.171875 4.046875 6.109375 
Q 5.859375 10.9375 9.828125 15.625 
Q 13.8125 20.3125 21.34375 26.46875 
Q 33.015625 36.03125 37.109375 41.625 
Q 41.21875 47.21875 41.21875 52.203125 
Q 41.21875 57.421875 37.46875 61 
Q 33.734375 64.59375 27.734375 64.59375 
Q 21.390625 64.59375 17.578125 60.78125 
Q 13.765625 56.984375 13.71875 50.25 
L 4.6875 51.171875 
Q 5.609375 61.28125 11.65625 66.578125 
Q 17.71875 71.875 27.9375 71.875 
Q 38.234375 71.875 44.234375 66.15625 
Q 50.25 60.453125 50.25 52 
Q 50.25 47.703125 48.484375 43.546875 
Q 46.734375 39.40625 42.65625 34.8125 
Q 38.578125 30.21875 29.109375 22.21875 
Q 21.1875 15.578125 18.9375 13.203125 
Q 16.703125 10.84375 15.234375 8.453125 
z
" id="ArialMT-32"/>
      </defs>
      <g style="fill:#262626;" transform="translate(190.642969 290.877812)scale(0.1 -0.1)">
       <use xlink:href="#ArialMT-32"/>
       <use x="55.615234" xlink:href="#ArialMT-30"/>
       <use x="111.230469" xlink:href="#ArialMT-30"/>
      </g>
     </g>
    </g>
    <g id="xtick_3">
     <g id="line2d_3">
      <g>
       <use style="fill:#262626;stroke:#262626;" x="307.96875" xlink:href="#m5b4000c7f7" y="270.72"/>
      </g>
     </g>
     <g id="text_3">
      <!-- 400 -->
      <defs>
       <path d="M 32.328125 0 
L 32.328125 17.140625 
L 1.265625 17.140625 
L 1.265625 25.203125 
L 33.9375 71.578125 
L 41.109375 71.578125 
L 41.109375 25.203125 
L 50.78125 25.203125 
L 50.78125 17.140625 
L 41.109375 17.140625 
L 41.109375 0 
z
M 32.328125 25.203125 
L 32.328125 57.46875 
L 9.90625 25.203125 
z
" id="ArialMT-34"/>
      </defs>
      <g style="fill:#262626;" transform="translate(299.627344 290.877812)scale(0.1 -0.1)">
       <use xlink:href="#ArialMT-34"/>
       <use x="55.615234" xlink:href="#ArialMT-30"/>
       <use x="111.230469" xlink:href="#ArialMT-30"/>
      </g>
     </g>
    </g>
    <g id="xtick_4">
     <g id="line2d_4">
      <g>
       <use style="fill:#262626;stroke:#262626;" x="416.953125" xlink:href="#m5b4000c7f7" y="270.72"/>
      </g>
     </g>
     <g id="text_4">
      <!-- 600 -->
      <defs>
       <path d="M 49.75 54.046875 
L 41.015625 53.375 
Q 39.84375 58.546875 37.703125 60.890625 
Q 34.125 64.65625 28.90625 64.65625 
Q 24.703125 64.65625 21.53125 62.3125 
Q 17.390625 59.28125 14.984375 53.46875 
Q 12.59375 47.65625 12.5 36.921875 
Q 15.671875 41.75 20.265625 44.09375 
Q 24.859375 46.4375 29.890625 46.4375 
Q 38.671875 46.4375 44.84375 39.96875 
Q 51.03125 33.5 51.03125 23.25 
Q 51.03125 16.5 48.125 10.71875 
Q 45.21875 4.9375 40.140625 1.859375 
Q 35.0625 -1.21875 28.609375 -1.21875 
Q 17.625 -1.21875 10.6875 6.859375 
Q 3.765625 14.9375 3.765625 33.5 
Q 3.765625 54.25 11.421875 63.671875 
Q 18.109375 71.875 29.4375 71.875 
Q 37.890625 71.875 43.28125 67.140625 
Q 48.6875 62.40625 49.75 54.046875 
z
M 13.875 23.1875 
Q 13.875 18.65625 15.796875 14.5 
Q 17.71875 10.359375 21.1875 8.171875 
Q 24.65625 6 28.46875 6 
Q 34.03125 6 38.03125 10.484375 
Q 42.046875 14.984375 42.046875 22.703125 
Q 42.046875 30.125 38.078125 34.390625 
Q 34.125 38.671875 28.125 38.671875 
Q 22.171875 38.671875 18.015625 34.390625 
Q 13.875 30.125 13.875 23.1875 
z
" id="ArialMT-36"/>
      </defs>
      <g style="fill:#262626;" transform="translate(408.611719 290.877812)scale(0.1 -0.1)">
       <use xlink:href="#ArialMT-36"/>
       <use x="55.615234" xlink:href="#ArialMT-30"/>
       <use x="111.230469" xlink:href="#ArialMT-30"/>
      </g>
     </g>
    </g>
    <g id="xtick_5">
     <g id="line2d_5">
      <g>
       <use style="fill:#262626;stroke:#262626;" x="525.9375" xlink:href="#m5b4000c7f7" y="270.72"/>
      </g>
     </g>
     <g id="text_5">
      <!-- 800 -->
      <defs>
       <path d="M 17.671875 38.8125 
Q 12.203125 40.828125 9.5625 44.53125 
Q 6.9375 48.25 6.9375 53.421875 
Q 6.9375 61.234375 12.546875 66.546875 
Q 18.171875 71.875 27.484375 71.875 
Q 36.859375 71.875 42.578125 66.421875 
Q 48.296875 60.984375 48.296875 53.171875 
Q 48.296875 48.1875 45.671875 44.5 
Q 43.0625 40.828125 37.75 38.8125 
Q 44.34375 36.671875 47.78125 31.875 
Q 51.21875 27.09375 51.21875 20.453125 
Q 51.21875 11.28125 44.71875 5.03125 
Q 38.234375 -1.21875 27.640625 -1.21875 
Q 17.046875 -1.21875 10.546875 5.046875 
Q 4.046875 11.328125 4.046875 20.703125 
Q 4.046875 27.6875 7.59375 32.390625 
Q 11.140625 37.109375 17.671875 38.8125 
z
M 15.921875 53.71875 
Q 15.921875 48.640625 19.1875 45.40625 
Q 22.46875 42.1875 27.6875 42.1875 
Q 32.765625 42.1875 36.015625 45.375 
Q 39.265625 48.578125 39.265625 53.21875 
Q 39.265625 58.0625 35.90625 61.359375 
Q 32.5625 64.65625 27.59375 64.65625 
Q 22.5625 64.65625 19.234375 61.421875 
Q 15.921875 58.203125 15.921875 53.71875 
z
M 13.09375 20.65625 
Q 13.09375 16.890625 14.875 13.375 
Q 16.65625 9.859375 20.171875 7.921875 
Q 23.6875 6 27.734375 6 
Q 34.03125 6 38.125 10.046875 
Q 42.234375 14.109375 42.234375 20.359375 
Q 42.234375 26.703125 38.015625 30.859375 
Q 33.796875 35.015625 27.4375 35.015625 
Q 21.234375 35.015625 17.15625 30.90625 
Q 13.09375 26.8125 13.09375 20.65625 
z
" id="ArialMT-38"/>
      </defs>
      <g style="fill:#262626;" transform="translate(517.596094 290.877812)scale(0.1 -0.1)">
       <use xlink:href="#ArialMT-38"/>
       <use x="55.615234" xlink:href="#ArialMT-30"/>
       <use x="111.230469" xlink:href="#ArialMT-30"/>
      </g>
     </g>
    </g>
    <g id="xtick_6">
     <g id="line2d_6">
      <g>
       <use style="fill:#262626;stroke:#262626;" x="634.921875" xlink:href="#m5b4000c7f7" y="270.72"/>
      </g>
     </g>
     <g id="text_6">
      <!-- 1000 -->
      <defs>
       <path d="M 37.25 0 
L 28.46875 0 
L 28.46875 56 
Q 25.296875 52.984375 20.140625 49.953125 
Q 14.984375 46.921875 10.890625 45.40625 
L 10.890625 53.90625 
Q 18.265625 57.375 23.78125 62.296875 
Q 29.296875 67.234375 31.59375 71.875 
L 37.25 71.875 
z
" id="ArialMT-31"/>
      </defs>
      <g style="fill:#262626;" transform="translate(623.8 290.877812)scale(0.1 -0.1)">
       <use xlink:href="#ArialMT-31"/>
       <use x="55.615234" xlink:href="#ArialMT-30"/>
       <use x="111.230469" xlink:href="#ArialMT-30"/>
       <use x="166.845703" xlink:href="#ArialMT-30"/>
      </g>
     </g>
    </g>
   </g>
   <g id="matplotlib.axis_2">
    <g id="ytick_1">
     <g id="line2d_7">
      <defs>
       <path d="M 0 0 
L -6 0 
" id="mbc6c9cb674" style="stroke:#262626;"/>
      </defs>
      <g>
       <use style="fill:#262626;stroke:#262626;" x="90" xlink:href="#mbc6c9cb674" y="270.72"/>
      </g>
     </g>
     <g id="text_7">
      <!-- −0.6 -->
      <defs>
       <path d="M 52.828125 31.203125 
L 5.5625 31.203125 
L 5.5625 39.40625 
L 52.828125 39.40625 
z
" id="ArialMT-2212"/>
       <path d="M 9.078125 0 
L 9.078125 10.015625 
L 19.09375 10.015625 
L 19.09375 0 
z
" id="ArialMT-2e"/>
      </defs>
      <g style="fill:#262626;" transform="translate(57.259375 274.298906)scale(0.1 -0.1)">
       <use xlink:href="#ArialMT-2212"/>
       <use x="58.398438" xlink:href="#ArialMT-30"/>
       <use x="114.013672" xlink:href="#ArialMT-2e"/>
       <use x="141.796875" xlink:href="#ArialMT-36"/>
      </g>
     </g>
    </g>
    <g id="ytick_2">
     <g id="line2d_8">
      <g>
       <use style="fill:#262626;stroke:#262626;" x="90" xlink:href="#mbc6c9cb674" y="237.12"/>
      </g>
     </g>
     <g id="text_8">
      <!-- −0.4 -->
      <g style="fill:#262626;" transform="translate(57.259375 240.698906)scale(0.1 -0.1)">
       <use xlink:href="#ArialMT-2212"/>
       <use x="58.398438" xlink:href="#ArialMT-30"/>
       <use x="114.013672" xlink:href="#ArialMT-2e"/>
       <use x="141.796875" xlink:href="#ArialMT-34"/>
      </g>
     </g>
    </g>
    <g id="ytick_3">
     <g id="line2d_9">
      <g>
       <use style="fill:#262626;stroke:#262626;" x="90" xlink:href="#mbc6c9cb674" y="203.52"/>
      </g>
     </g>
     <g id="text_9">
      <!-- −0.2 -->
      <g style="fill:#262626;" transform="translate(57.259375 207.098906)scale(0.1 -0.1)">
       <use xlink:href="#ArialMT-2212"/>
       <use x="58.398438" xlink:href="#ArialMT-30"/>
       <use x="114.013672" xlink:href="#ArialMT-2e"/>
       <use x="141.796875" xlink:href="#ArialMT-32"/>
      </g>
     </g>
    </g>
    <g id="ytick_4">
     <g id="line2d_10">
      <g>
       <use style="fill:#262626;stroke:#262626;" x="90" xlink:href="#mbc6c9cb674" y="169.92"/>
      </g>
     </g>
     <g id="text_10">
      <!-- 0.0 -->
      <g style="fill:#262626;" transform="translate(63.1 173.498906)scale(0.1 -0.1)">
       <use xlink:href="#ArialMT-30"/>
       <use x="55.615234" xlink:href="#ArialMT-2e"/>
       <use x="83.398438" xlink:href="#ArialMT-30"/>
      </g>
     </g>
    </g>
    <g id="ytick_5">
     <g id="line2d_11">
      <g>
       <use style="fill:#262626;stroke:#262626;" x="90" xlink:href="#mbc6c9cb674" y="136.32"/>
      </g>
     </g>
     <g id="text_11">
      <!-- 0.2 -->
      <g style="fill:#262626;" transform="translate(63.1 139.898906)scale(0.1 -0.1)">
       <use xlink:href="#ArialMT-30"/>
       <use x="55.615234" xlink:href="#ArialMT-2e"/>
       <use x="83.398438" xlink:href="#ArialMT-32"/>
      </g>
     </g>
    </g>
    <g id="ytick_6">
     <g id="line2d_12">
      <g>
       <use style="fill:#262626;stroke:#262626;" x="90" xlink:href="#mbc6c9cb674" y="102.72"/>
      </g>
     </g>
     <g id="text_12">
      <!-- 0.4 -->
      <g style="fill:#262626;" transform="translate(63.1 106.298906)scale(0.1 -0.1)">
       <use xlink:href="#ArialMT-30"/>
       <use x="55.615234" xlink:href="#ArialMT-2e"/>
       <use x="83.398438" xlink:href="#ArialMT-34"/>
      </g>
     </g>
    </g>
    <g id="ytick_7">
     <g id="line2d_13">
      <g>
       <use style="fill:#262626;stroke:#262626;" x="90" xlink:href="#mbc6c9cb674" y="69.12"/>
      </g>
     </g>
     <g id="text_13">
      <!-- 0.6 -->
      <g style="fill:#262626;" transform="translate(63.1 72.698906)scale(0.1 -0.1)">
       <use xlink:href="#ArialMT-30"/>
       <use x="55.615234" xlink:href="#ArialMT-2e"/>
       <use x="83.398438" xlink:href="#ArialMT-36"/>
      </g>
     </g>
    </g>
   </g>
   <g id="line2d_14">
    <path clip-path="url(#p8541ec6b80)" d="M 90 174.216387 
L 91.634766 170.289141 
L 92.724609 168.058916 
L 93.269531 166.987383 
L 93.814453 166.187578 
L 94.904297 165.064775 
L 95.994141 164.762285 
L 96.539062 165.02376 
L 97.628906 166.382402 
L 98.173828 167.500078 
L 98.71875 168.351152 
L 99.263672 170.109697 
L 99.808594 171.41707 
L 103.078125 183.244951 
L 104.167969 186.556963 
L 105.257812 189.515215 
L 105.802734 190.540605 
L 106.347656 191.806963 
L 106.892578 192.493975 
L 107.982422 193.406572 
L 108.527344 193.355303 
L 109.072266 192.965654 
L 110.707031 191.237871 
L 112.886719 186.813311 
L 113.431641 185.521318 
L 116.701172 180.322588 
L 117.246094 179.850908 
L 117.791016 179.88167 
L 118.335938 179.774004 
L 119.425781 180.707109 
L 120.515625 182.03499 
L 122.150391 184.362627 
L 122.695312 185.654619 
L 123.240234 186.567217 
L 125.419922 191.417314 
L 125.964844 192.196611 
L 126.509766 193.30916 
L 128.144531 195.272783 
L 129.234375 195.770098 
L 130.324219 194.816484 
L 131.958984 192.109453 
L 132.503906 191.017412 
L 134.138672 186.469805 
L 135.228516 183.470537 
L 136.318359 181.117266 
L 136.863281 179.927812 
L 137.408203 179.286943 
L 137.953125 178.353838 
L 139.042969 177.548906 
L 139.587891 177.400225 
L 140.132812 176.933672 
L 142.857422 175.990312 
L 143.402344 176.026201 
L 143.947266 175.882646 
L 144.492188 176.169756 
L 145.037109 176.282549 
L 146.126953 176.892656 
L 146.671875 177.123369 
L 147.216797 177.620684 
L 147.761719 177.948809 
L 148.306641 178.410234 
L 148.851562 178.405107 
L 149.396484 178.815264 
L 150.486328 179.020342 
L 151.03125 179.148516 
L 151.576172 179.656084 
L 152.121094 179.758623 
L 153.210938 180.799395 
L 154.300781 181.988848 
L 154.845703 182.316973 
L 155.390625 182.434893 
L 155.935547 182.865557 
L 156.480469 182.378496 
L 157.570312 181.706865 
L 158.115234 181.004473 
L 159.75 178.415361 
L 160.294922 177.195146 
L 160.839844 176.544023 
L 161.384766 175.487871 
L 163.019531 173.872881 
L 163.564453 173.421709 
L 164.109375 173.355059 
L 165.199219 173.985674 
L 166.289062 175.021318 
L 166.833984 175.810869 
L 167.923828 177.969316 
L 169.013672 179.574053 
L 170.103516 181.363359 
L 171.738281 183.860186 
L 172.283203 184.706133 
L 172.828125 184.998369 
L 173.917969 185.951982 
L 175.552734 186.32625 
L 177.1875 185.557207 
L 177.732422 184.941973 
L 178.277344 184.501055 
L 179.367188 182.701494 
L 181.546875 178.220537 
L 184.816406 170.683916 
L 185.90625 168.710039 
L 186.451172 168.25374 
L 186.996094 167.582109 
L 187.541016 167.643633 
L 188.085938 167.407793 
L 188.630859 167.787187 
L 189.720703 169.033037 
L 190.265625 169.899492 
L 192.445312 175.739092 
L 192.990234 177.328447 
L 195.714844 186.890215 
L 197.349609 191.063555 
L 197.894531 192.140215 
L 198.984375 193.601396 
L 199.529297 194.288408 
L 200.074219 194.349932 
L 200.619141 194.585771 
L 201.708984 194.160234 
L 202.798828 192.863115 
L 203.888672 190.85335 
L 206.068359 186.192949 
L 206.613281 185.48543 
L 207.158203 184.249834 
L 207.703125 183.706377 
L 208.248047 182.829668 
L 210.427734 182.127275 
L 210.972656 182.224687 
L 212.607422 183.547441 
L 213.152344 184.336992 
L 213.697266 185.423906 
L 214.242188 186.059648 
L 216.421875 190.525225 
L 217.511719 192.41707 
L 218.056641 193.744951 
L 218.601562 194.442217 
L 219.146484 195.498369 
L 220.236328 196.508379 
L 220.78125 196.482744 
L 221.326172 196.10335 
L 221.871094 196.323809 
L 222.960938 194.524248 
L 224.050781 192.314531 
L 224.595703 191.058428 
L 225.685547 188.146318 
L 227.320312 184.147295 
L 228.410156 181.865801 
L 228.955078 181.132646 
L 230.044922 179.440752 
L 230.589844 178.830645 
L 231.134766 177.953936 
L 231.679688 177.687334 
L 232.224609 176.820879 
L 233.859375 175.923662 
L 234.949219 175.380205 
L 235.494141 175.7596 
L 236.039062 175.728838 
L 236.583984 176.287676 
L 237.128906 176.195391 
L 237.673828 176.503008 
L 238.21875 176.53377 
L 238.763672 176.692705 
L 240.398438 176.656816 
L 241.488281 176.764482 
L 242.033203 177.010576 
L 242.578125 177.405352 
L 243.123047 178.035967 
L 244.212891 178.963945 
L 245.847656 180.666094 
L 246.392578 180.72249 
L 246.9375 181.358232 
L 248.572266 181.07625 
L 249.117188 180.322588 
L 249.662109 180.11751 
L 250.751953 178.630693 
L 251.296875 177.389971 
L 252.386719 175.492998 
L 252.931641 174.51375 
L 254.566406 172.744951 
L 255.65625 172.201494 
L 256.746094 172.273271 
L 258.380859 173.452471 
L 260.015625 175.677568 
L 260.560547 176.410723 
L 261.105469 177.379717 
L 264.375 181.532549 
L 264.919922 181.804277 
L 265.464844 182.486162 
L 266.009766 182.839922 
L 266.554688 182.968096 
L 267.099609 183.291094 
L 268.189453 183.173174 
L 269.824219 181.978594 
L 272.003906 178.779375 
L 274.183594 173.816484 
L 274.728516 172.165605 
L 275.818359 169.632891 
L 276.908203 167.269365 
L 277.453125 166.249102 
L 279.087891 164.106035 
L 279.632812 163.865068 
L 280.722656 163.885576 
L 281.267578 164.188066 
L 282.902344 166.956621 
L 283.992188 169.755937 
L 287.806641 181.958086 
L 288.896484 185.003496 
L 291.076172 189.376787 
L 291.621094 189.735674 
L 292.166016 189.925371 
L 292.710938 189.997148 
L 293.255859 189.781816 
L 294.890625 188.146318 
L 296.525391 185.347002 
L 298.705078 181.342852 
L 299.25 180.466143 
L 300.884766 178.702471 
L 301.974609 178.210283 
L 302.519531 178.220537 
L 303.609375 178.553789 
L 304.154297 179.122881 
L 304.699219 179.40999 
L 306.333984 181.645342 
L 308.513672 185.910967 
L 309.058594 187.372148 
L 310.693359 190.689287 
L 311.238281 191.335283 
L 312.328125 191.986406 
L 312.873047 192.124834 
L 313.417969 191.832598 
L 314.507812 190.643145 
L 316.142578 187.115801 
L 319.957031 178.92293 
L 320.501953 178.051348 
L 321.046875 176.851641 
L 321.591797 175.949297 
L 322.681641 173.693437 
L 323.226562 172.709062 
L 323.771484 172.104082 
L 324.316406 171.309404 
L 324.861328 170.924883 
L 325.40625 170.888994 
L 326.496094 170.581377 
L 327.585938 170.617266 
L 328.130859 170.637773 
L 328.675781 170.427568 
L 329.765625 170.186602 
L 330.310547 170.448076 
L 330.855469 170.135332 
L 331.945312 170.186602 
L 332.490234 170.422441 
L 333.035156 170.432695 
L 333.580078 170.617266 
L 336.304688 172.750078 
L 336.849609 173.426836 
L 338.484375 174.370195 
L 339.574219 174.585527 
L 341.753906 172.703936 
L 342.298828 172.057939 
L 342.84375 171.104326 
L 343.388672 170.499346 
L 344.478516 168.433184 
L 345.023438 167.720537 
L 345.568359 166.592607 
L 346.113281 166.182451 
L 347.203125 165.187822 
L 348.292969 164.998125 
L 349.382812 165.054521 
L 349.927734 165.608232 
L 350.472656 165.756914 
L 351.5625 166.82332 
L 353.197266 169.140703 
L 353.742188 169.955889 
L 354.287109 170.422441 
L 355.376953 172.083574 
L 357.011719 173.642168 
L 357.556641 174.149736 
L 359.736328 175.190508 
L 360.28125 174.970049 
L 360.826172 175.072588 
L 361.916016 174.165117 
L 362.460938 173.611406 
L 363.005859 172.806475 
L 364.640625 169.468828 
L 365.185547 167.853838 
L 365.730469 166.951494 
L 369.544922 157.75374 
L 370.634766 156.046465 
L 371.179688 155.538896 
L 371.724609 155.554277 
L 372.269531 155.344072 
L 372.814453 155.651689 
L 373.359375 156.154131 
L 373.904297 156.84627 
L 374.994141 158.953447 
L 376.628906 162.983232 
L 379.898438 173.62166 
L 380.443359 174.841875 
L 380.988281 176.559404 
L 382.078125 179.117754 
L 383.712891 181.517168 
L 384.802734 181.558184 
L 385.347656 181.107012 
L 385.892578 181.050615 
L 387.527344 178.707598 
L 389.707031 174.964922 
L 391.341797 172.47835 
L 392.976562 170.683916 
L 393.521484 170.52498 
L 394.066406 170.140459 
L 394.611328 170.196855 
L 395.701172 170.6429 
L 396.791016 171.278643 
L 397.335938 171.965654 
L 398.970703 175.046953 
L 400.060547 177.446367 
L 400.605469 179.045977 
L 401.695312 181.199297 
L 402.240234 182.542559 
L 402.785156 182.998857 
L 403.330078 183.619219 
L 403.875 184.039629 
L 404.419922 183.952471 
L 404.964844 183.460283 
L 405.509766 183.183428 
L 406.054688 182.291338 
L 407.144531 181.004473 
L 409.324219 177.261797 
L 409.869141 176.118486 
L 410.958984 173.442217 
L 412.048828 170.899248 
L 413.683594 167.669268 
L 414.773438 166.079912 
L 415.318359 165.403154 
L 416.953125 164.203447 
L 417.498047 163.767656 
L 418.587891 163.665117 
L 419.132812 163.336992 
L 419.677734 163.465166 
L 420.222656 163.178057 
L 421.857422 162.742266 
L 422.402344 162.414141 
L 422.947266 162.511553 
L 424.037109 162.214189 
L 424.582031 162.444902 
L 425.126953 163.00374 
L 426.216797 163.854814 
L 426.761719 164.562334 
L 428.941406 166.725908 
L 429.486328 167.279619 
L 430.03125 167.34627 
L 430.576172 167.64876 
L 431.121094 167.694902 
L 431.666016 167.34627 
L 432.210938 167.474443 
L 432.755859 166.997637 
L 433.300781 166.115801 
L 434.935547 164.147051 
L 435.480469 163.188311 
L 437.660156 160.588945 
L 438.205078 159.978838 
L 439.294922 159.189287 
L 439.839844 158.886797 
L 440.384766 158.922686 
L 440.929688 159.255937 
L 441.474609 159.337969 
L 442.019531 159.568682 
L 442.564453 160.230059 
L 443.654297 161.15291 
L 444.199219 161.686113 
L 444.744141 162.644854 
L 445.289062 162.983232 
L 446.923828 165.080156 
L 447.46875 165.469805 
L 448.013672 166.003008 
L 448.558594 166.951494 
L 449.103516 167.259111 
L 449.648438 167.95125 
L 450.193359 168.438311 
L 450.738281 168.710039 
L 451.283203 168.745928 
L 451.828125 168.940752 
L 452.373047 168.853594 
L 452.917969 168.42293 
L 453.462891 168.274248 
L 454.007812 167.617998 
L 454.552734 167.141191 
L 455.642578 165.44417 
L 456.732422 163.383135 
L 461.091797 152.478105 
L 462.181641 150.555498 
L 463.271484 149.345537 
L 464.361328 148.884111 
L 464.90625 149.166094 
L 465.451172 149.299395 
L 466.541016 150.663164 
L 467.085938 151.59627 
L 468.175781 154.000811 
L 469.810547 158.630449 
L 470.900391 161.947588 
L 471.990234 165.777422 
L 473.080078 168.807451 
L 474.169922 171.16585 
L 475.259766 172.734697 
L 475.804688 173.324297 
L 476.349609 173.62166 
L 476.894531 173.560137 
L 477.439453 173.283281 
L 477.984375 172.878252 
L 478.529297 172.206621 
L 479.074219 171.765703 
L 481.253906 168.48958 
L 482.888672 165.736406 
L 483.433594 165.105791 
L 483.978516 164.716143 
L 484.523438 164.147051 
L 485.613281 163.311357 
L 486.158203 162.685869 
L 486.703125 162.567949 
L 487.248047 162.332109 
L 487.792969 162.619219 
L 488.337891 163.044756 
L 489.427734 164.377764 
L 489.972656 165.285234 
L 491.607422 169.356035 
L 492.152344 170.396807 
L 492.697266 171.760576 
L 493.242188 172.514238 
L 493.787109 173.529375 
L 494.332031 174.185625 
L 494.876953 174.529131 
L 495.421875 175.036699 
L 496.511719 175.487871 
L 497.056641 175.195635 
L 497.601562 175.205889 
L 498.146484 174.544512 
L 498.691406 174.124102 
L 500.326172 171.488848 
L 500.871094 170.140459 
L 501.960938 168.099932 
L 503.050781 165.408281 
L 503.595703 164.121416 
L 504.140625 163.12166 
L 504.685547 161.701494 
L 505.230469 160.604326 
L 505.775391 159.881426 
L 506.320312 158.88167 
L 507.955078 157.287187 
L 511.224609 155.508135 
L 512.314453 154.600664 
L 512.859375 154.518633 
L 514.494141 153.877764 
L 515.583984 153.939287 
L 516.128906 154.308428 
L 516.673828 154.272539 
L 517.21875 154.672441 
L 519.398438 157.14876 
L 519.943359 157.851152 
L 520.488281 158.276689 
L 521.033203 158.891924 
L 521.578125 158.94832 
L 522.123047 159.445635 
L 522.667969 159.327715 
L 523.212891 159.394365 
L 524.302734 159.035479 
L 525.9375 157.379473 
L 527.027344 155.71834 
L 528.117188 154.262285 
L 528.662109 153.129229 
L 529.207031 152.867754 
L 529.751953 151.96541 
L 530.296875 151.432207 
L 530.841797 151.278398 
L 531.386719 150.811846 
L 532.476562 150.729814 
L 533.021484 150.555498 
L 535.746094 152.31917 
L 536.291016 152.775469 
L 537.380859 154.298174 
L 538.470703 155.723467 
L 539.015625 156.236162 
L 540.650391 158.169023 
L 541.195312 158.691973 
L 541.740234 159.394365 
L 542.285156 159.640459 
L 542.830078 160.240312 
L 543.375 160.26082 
L 543.919922 160.670977 
L 544.464844 160.742754 
L 545.554688 160.563311 
L 547.189453 158.266436 
L 548.824219 154.867266 
L 552.638672 145.346514 
L 553.728516 143.31624 
L 554.818359 141.588457 
L 555.908203 140.532305 
L 556.998047 140.614336 
L 558.087891 141.414141 
L 560.267578 145.423418 
L 565.171875 160.61458 
L 565.716797 162.080889 
L 567.351562 164.777666 
L 567.896484 165.126299 
L 568.986328 165.285234 
L 569.53125 165.110918 
L 570.076172 164.78792 
L 573.345703 161.137529 
L 574.435547 159.522539 
L 574.980469 158.845781 
L 575.525391 157.974199 
L 576.070312 156.800127 
L 576.615234 156.266924 
L 577.705078 154.821123 
L 578.25 154.610918 
L 579.339844 155.077471 
L 579.884766 155.43123 
L 580.429688 156.118242 
L 582.609375 159.819902 
L 585.333984 164.97249 
L 585.878906 165.762041 
L 586.423828 166.269609 
L 586.96875 166.961748 
L 588.058594 167.730791 
L 588.603516 167.858965 
L 589.148438 167.643633 
L 589.693359 167.566729 
L 590.238281 166.848955 
L 591.328125 165.905596 
L 592.417969 164.01375 
L 595.6875 156.897539 
L 596.777344 154.70833 
L 597.322266 153.913652 
L 597.867188 152.847246 
L 600.046875 150.509355 
L 600.591797 150.006914 
L 601.681641 149.345537 
L 603.861328 147.730547 
L 604.40625 147.545977 
L 604.951172 147.151201 
L 606.585938 146.653887 
L 607.130859 146.807695 
L 607.675781 146.817949 
L 608.220703 147.120439 
L 609.855469 148.571367 
L 610.400391 149.232744 
L 610.945312 149.519854 
L 612.035156 151.057939 
L 612.580078 151.380937 
L 613.125 152.144854 
L 613.669922 152.50374 
L 614.214844 153.006182 
L 614.759766 153.236895 
L 615.304688 153.221514 
L 615.849609 153.067705 
L 616.939453 152.334551 
L 620.753906 147.592119 
L 621.298828 147.269121 
L 622.933594 145.94124 
L 623.478516 145.643877 
L 625.113281 145.495195 
L 627.837891 147.028154 
L 630.017578 149.27376 
L 632.742188 152.606279 
L 633.832031 154.252031 
L 635.466797 155.815752 
L 636.011719 156.169512 
L 637.101562 156.02083 
L 637.646484 155.682451 
L 638.736328 154.718584 
L 639.826172 153.011309 
L 640.371094 152.073076 
L 641.460938 149.637773 
L 642.005859 148.602129 
L 642.550781 147.00252 
L 645.820312 139.927324 
L 646.365234 139.337725 
L 646.910156 138.399492 
L 647.455078 138.009844 
L 647.455078 138.009844 
" style="fill:none;stroke:#4c72b0;stroke-linecap:round;stroke-width:1.75;"/>
   </g>
   <g id="patch_3">
    <path d="M 90 270.72 
L 90 69.12 
" style="fill:none;stroke:#262626;stroke-linecap:square;stroke-linejoin:miter;stroke-width:1.25;"/>
   </g>
   <g id="patch_4">
    <path d="M 90 270.72 
L 648 270.72 
" style="fill:none;stroke:#262626;stroke-linecap:square;stroke-linejoin:miter;stroke-width:1.25;"/>
   </g>
  </g>
  <g id="axes_2">
   <g id="patch_5">
    <path d="M 90 512.64 
L 648 512.64 
L 648 311.04 
L 90 311.04 
z
" style="fill:#ffffff;"/>
   </g>
   <g id="matplotlib.axis_3">
    <g id="xtick_7">
     <g id="line2d_15">
      <g>
       <use style="fill:#262626;stroke:#262626;" x="218.197478" xlink:href="#m5b4000c7f7" y="512.64"/>
      </g>
     </g>
     <g id="text_14">
      <!-- $\mathdefault{10^{2}}$ -->
      <g style="fill:#262626;" transform="translate(210.347478 535.9525)scale(0.1 -0.1)">
       <use transform="translate(0 0.99375)" xlink:href="#ArialMT-31"/>
       <use transform="translate(55.615234 0.99375)" xlink:href="#ArialMT-30"/>
       <use transform="translate(112.972813 70.6875)scale(0.7)" xlink:href="#ArialMT-32"/>
      </g>
     </g>
    </g>
    <g id="xtick_8">
     <g id="line2d_16">
      <g>
       <use style="fill:#262626;stroke:#262626;" x="401.606604" xlink:href="#m5b4000c7f7" y="512.64"/>
      </g>
     </g>
     <g id="text_15">
      <!-- $\mathdefault{10^{3}}$ -->
      <defs>
       <path d="M 4.203125 18.890625 
L 12.984375 20.0625 
Q 14.5 12.59375 18.140625 9.296875 
Q 21.78125 6 27 6 
Q 33.203125 6 37.46875 10.296875 
Q 41.75 14.59375 41.75 20.953125 
Q 41.75 27 37.796875 30.921875 
Q 33.84375 34.859375 27.734375 34.859375 
Q 25.25 34.859375 21.53125 33.890625 
L 22.515625 41.609375 
Q 23.390625 41.5 23.921875 41.5 
Q 29.546875 41.5 34.03125 44.421875 
Q 38.53125 47.359375 38.53125 53.46875 
Q 38.53125 58.296875 35.25 61.46875 
Q 31.984375 64.65625 26.8125 64.65625 
Q 21.6875 64.65625 18.265625 61.421875 
Q 14.84375 58.203125 13.875 51.765625 
L 5.078125 53.328125 
Q 6.6875 62.15625 12.390625 67.015625 
Q 18.109375 71.875 26.609375 71.875 
Q 32.46875 71.875 37.390625 69.359375 
Q 42.328125 66.84375 44.9375 62.5 
Q 47.5625 58.15625 47.5625 53.265625 
Q 47.5625 48.640625 45.0625 44.828125 
Q 42.578125 41.015625 37.703125 38.765625 
Q 44.046875 37.3125 47.5625 32.6875 
Q 51.078125 28.078125 51.078125 21.140625 
Q 51.078125 11.765625 44.234375 5.25 
Q 37.40625 -1.265625 26.953125 -1.265625 
Q 17.53125 -1.265625 11.296875 4.34375 
Q 5.078125 9.96875 4.203125 18.890625 
z
" id="ArialMT-33"/>
      </defs>
      <g style="fill:#262626;" transform="translate(393.756604 535.9525)scale(0.1 -0.1)">
       <use transform="translate(0 0.99375)" xlink:href="#ArialMT-31"/>
       <use transform="translate(55.615234 0.99375)" xlink:href="#ArialMT-30"/>
       <use transform="translate(112.972813 70.6875)scale(0.7)" xlink:href="#ArialMT-33"/>
      </g>
     </g>
    </g>
    <g id="xtick_9">
     <g id="line2d_17">
      <g>
       <use style="fill:#262626;stroke:#262626;" x="585.01573" xlink:href="#m5b4000c7f7" y="512.64"/>
      </g>
     </g>
     <g id="text_16">
      <!-- $\mathdefault{10^{4}}$ -->
      <g style="fill:#262626;" transform="translate(577.16573 535.8525)scale(0.1 -0.1)">
       <use transform="translate(0 0.201563)" xlink:href="#ArialMT-31"/>
       <use transform="translate(55.615234 0.201563)" xlink:href="#ArialMT-30"/>
       <use transform="translate(112.972813 69.895313)scale(0.7)" xlink:href="#ArialMT-34"/>
      </g>
     </g>
    </g>
    <g id="xtick_10">
     <g id="line2d_18">
      <defs>
       <path d="M 0 0 
L 0 3 
" id="m12a9013dcf" style="stroke:#262626;stroke-width:0.5;"/>
      </defs>
      <g>
       <use style="fill:#262626;stroke:#262626;stroke-width:0.5;" x="90" xlink:href="#m12a9013dcf" y="512.64"/>
      </g>
     </g>
    </g>
    <g id="xtick_11">
     <g id="line2d_19">
      <g>
       <use style="fill:#262626;stroke:#262626;stroke-width:0.5;" x="122.296744" xlink:href="#m12a9013dcf" y="512.64"/>
      </g>
     </g>
    </g>
    <g id="xtick_12">
     <g id="line2d_20">
      <g>
       <use style="fill:#262626;stroke:#262626;stroke-width:0.5;" x="145.211648" xlink:href="#m12a9013dcf" y="512.64"/>
      </g>
     </g>
    </g>
    <g id="xtick_13">
     <g id="line2d_21">
      <g>
       <use style="fill:#262626;stroke:#262626;stroke-width:0.5;" x="162.985829" xlink:href="#m12a9013dcf" y="512.64"/>
      </g>
     </g>
    </g>
    <g id="xtick_14">
     <g id="line2d_22">
      <g>
       <use style="fill:#262626;stroke:#262626;stroke-width:0.5;" x="177.508392" xlink:href="#m12a9013dcf" y="512.64"/>
      </g>
     </g>
    </g>
    <g id="xtick_15">
     <g id="line2d_23">
      <g>
       <use style="fill:#262626;stroke:#262626;stroke-width:0.5;" x="189.787045" xlink:href="#m12a9013dcf" y="512.64"/>
      </g>
     </g>
    </g>
    <g id="xtick_16">
     <g id="line2d_24">
      <g>
       <use style="fill:#262626;stroke:#262626;stroke-width:0.5;" x="200.423297" xlink:href="#m12a9013dcf" y="512.64"/>
      </g>
     </g>
    </g>
    <g id="xtick_17">
     <g id="line2d_25">
      <g>
       <use style="fill:#262626;stroke:#262626;stroke-width:0.5;" x="209.805136" xlink:href="#m12a9013dcf" y="512.64"/>
      </g>
     </g>
    </g>
    <g id="xtick_18">
     <g id="line2d_26">
      <g>
       <use style="fill:#262626;stroke:#262626;stroke-width:0.5;" x="273.409126" xlink:href="#m12a9013dcf" y="512.64"/>
      </g>
     </g>
    </g>
    <g id="xtick_19">
     <g id="line2d_27">
      <g>
       <use style="fill:#262626;stroke:#262626;stroke-width:0.5;" x="305.70587" xlink:href="#m12a9013dcf" y="512.64"/>
      </g>
     </g>
    </g>
    <g id="xtick_20">
     <g id="line2d_28">
      <g>
       <use style="fill:#262626;stroke:#262626;stroke-width:0.5;" x="328.620775" xlink:href="#m12a9013dcf" y="512.64"/>
      </g>
     </g>
    </g>
    <g id="xtick_21">
     <g id="line2d_29">
      <g>
       <use style="fill:#262626;stroke:#262626;stroke-width:0.5;" x="346.394955" xlink:href="#m12a9013dcf" y="512.64"/>
      </g>
     </g>
    </g>
    <g id="xtick_22">
     <g id="line2d_30">
      <g>
       <use style="fill:#262626;stroke:#262626;stroke-width:0.5;" x="360.917518" xlink:href="#m12a9013dcf" y="512.64"/>
      </g>
     </g>
    </g>
    <g id="xtick_23">
     <g id="line2d_31">
      <g>
       <use style="fill:#262626;stroke:#262626;stroke-width:0.5;" x="373.196171" xlink:href="#m12a9013dcf" y="512.64"/>
      </g>
     </g>
    </g>
    <g id="xtick_24">
     <g id="line2d_32">
      <g>
       <use style="fill:#262626;stroke:#262626;stroke-width:0.5;" x="383.832423" xlink:href="#m12a9013dcf" y="512.64"/>
      </g>
     </g>
    </g>
    <g id="xtick_25">
     <g id="line2d_33">
      <g>
       <use style="fill:#262626;stroke:#262626;stroke-width:0.5;" x="393.214262" xlink:href="#m12a9013dcf" y="512.64"/>
      </g>
     </g>
    </g>
    <g id="xtick_26">
     <g id="line2d_34">
      <g>
       <use style="fill:#262626;stroke:#262626;stroke-width:0.5;" x="456.818252" xlink:href="#m12a9013dcf" y="512.64"/>
      </g>
     </g>
    </g>
    <g id="xtick_27">
     <g id="line2d_35">
      <g>
       <use style="fill:#262626;stroke:#262626;stroke-width:0.5;" x="489.114996" xlink:href="#m12a9013dcf" y="512.64"/>
      </g>
     </g>
    </g>
    <g id="xtick_28">
     <g id="line2d_36">
      <g>
       <use style="fill:#262626;stroke:#262626;stroke-width:0.5;" x="512.029901" xlink:href="#m12a9013dcf" y="512.64"/>
      </g>
     </g>
    </g>
    <g id="xtick_29">
     <g id="line2d_37">
      <g>
       <use style="fill:#262626;stroke:#262626;stroke-width:0.5;" x="529.804081" xlink:href="#m12a9013dcf" y="512.64"/>
      </g>
     </g>
    </g>
    <g id="xtick_30">
     <g id="line2d_38">
      <g>
       <use style="fill:#262626;stroke:#262626;stroke-width:0.5;" x="544.326645" xlink:href="#m12a9013dcf" y="512.64"/>
      </g>
     </g>
    </g>
    <g id="xtick_31">
     <g id="line2d_39">
      <g>
       <use style="fill:#262626;stroke:#262626;stroke-width:0.5;" x="556.605297" xlink:href="#m12a9013dcf" y="512.64"/>
      </g>
     </g>
    </g>
    <g id="xtick_32">
     <g id="line2d_40">
      <g>
       <use style="fill:#262626;stroke:#262626;stroke-width:0.5;" x="567.241549" xlink:href="#m12a9013dcf" y="512.64"/>
      </g>
     </g>
    </g>
    <g id="xtick_33">
     <g id="line2d_41">
      <g>
       <use style="fill:#262626;stroke:#262626;stroke-width:0.5;" x="576.623389" xlink:href="#m12a9013dcf" y="512.64"/>
      </g>
     </g>
    </g>
    <g id="xtick_34">
     <g id="line2d_42">
      <g>
       <use style="fill:#262626;stroke:#262626;stroke-width:0.5;" x="640.227378" xlink:href="#m12a9013dcf" y="512.64"/>
      </g>
     </g>
    </g>
   </g>
   <g id="matplotlib.axis_4">
    <g id="ytick_8">
     <g id="line2d_43">
      <g>
       <use style="fill:#262626;stroke:#262626;" x="90" xlink:href="#mbc6c9cb674" y="512.64"/>
      </g>
     </g>
     <g id="text_17">
      <!-- $\mathdefault{10^{-5}}$ -->
      <defs>
       <path d="M 4.15625 18.75 
L 13.375 19.53125 
Q 14.40625 12.796875 18.140625 9.390625 
Q 21.875 6 27.15625 6 
Q 33.5 6 37.890625 10.78125 
Q 42.28125 15.578125 42.28125 23.484375 
Q 42.28125 31 38.0625 35.34375 
Q 33.84375 39.703125 27 39.703125 
Q 22.75 39.703125 19.328125 37.765625 
Q 15.921875 35.84375 13.96875 32.765625 
L 5.71875 33.84375 
L 12.640625 70.609375 
L 48.25 70.609375 
L 48.25 62.203125 
L 19.671875 62.203125 
L 15.828125 42.96875 
Q 22.265625 47.46875 29.34375 47.46875 
Q 38.71875 47.46875 45.15625 40.96875 
Q 51.609375 34.46875 51.609375 24.265625 
Q 51.609375 14.546875 45.953125 7.46875 
Q 39.0625 -1.21875 27.15625 -1.21875 
Q 17.390625 -1.21875 11.203125 4.25 
Q 5.03125 9.71875 4.15625 18.75 
z
" id="ArialMT-35"/>
      </defs>
      <g style="fill:#262626;" transform="translate(57.2 517.74625)scale(0.1 -0.1)">
       <use transform="translate(0 0.879688)" xlink:href="#ArialMT-31"/>
       <use transform="translate(55.615234 0.879688)" xlink:href="#ArialMT-30"/>
       <use transform="translate(112.972813 70.573438)scale(0.7)" xlink:href="#ArialMT-2212"/>
       <use transform="translate(153.851719 70.573438)scale(0.7)" xlink:href="#ArialMT-35"/>
      </g>
     </g>
    </g>
    <g id="ytick_9">
     <g id="line2d_44">
      <g>
       <use style="fill:#262626;stroke:#262626;" x="90" xlink:href="#mbc6c9cb674" y="465.767507"/>
      </g>
     </g>
     <g id="text_18">
      <!-- $\mathdefault{10^{-4}}$ -->
      <g style="fill:#262626;" transform="translate(57.2 470.873757)scale(0.1 -0.1)">
       <use transform="translate(0 0.201563)" xlink:href="#ArialMT-31"/>
       <use transform="translate(55.615234 0.201563)" xlink:href="#ArialMT-30"/>
       <use transform="translate(112.972813 69.895313)scale(0.7)" xlink:href="#ArialMT-2212"/>
       <use transform="translate(153.851719 69.895313)scale(0.7)" xlink:href="#ArialMT-34"/>
      </g>
     </g>
    </g>
    <g id="ytick_10">
     <g id="line2d_45">
      <g>
       <use style="fill:#262626;stroke:#262626;" x="90" xlink:href="#mbc6c9cb674" y="418.895013"/>
      </g>
     </g>
     <g id="text_19">
      <!-- $\mathdefault{10^{-3}}$ -->
      <g style="fill:#262626;" transform="translate(57.2 424.051263)scale(0.1 -0.1)">
       <use transform="translate(0 0.99375)" xlink:href="#ArialMT-31"/>
       <use transform="translate(55.615234 0.99375)" xlink:href="#ArialMT-30"/>
       <use transform="translate(112.972813 70.6875)scale(0.7)" xlink:href="#ArialMT-2212"/>
       <use transform="translate(153.851719 70.6875)scale(0.7)" xlink:href="#ArialMT-33"/>
      </g>
     </g>
    </g>
    <g id="ytick_11">
     <g id="line2d_46">
      <g>
       <use style="fill:#262626;stroke:#262626;" x="90" xlink:href="#mbc6c9cb674" y="372.02252"/>
      </g>
     </g>
     <g id="text_20">
      <!-- $\mathdefault{10^{-2}}$ -->
      <g style="fill:#262626;" transform="translate(57.2 377.17877)scale(0.1 -0.1)">
       <use transform="translate(0 0.99375)" xlink:href="#ArialMT-31"/>
       <use transform="translate(55.615234 0.99375)" xlink:href="#ArialMT-30"/>
       <use transform="translate(112.972813 70.6875)scale(0.7)" xlink:href="#ArialMT-2212"/>
       <use transform="translate(153.851719 70.6875)scale(0.7)" xlink:href="#ArialMT-32"/>
      </g>
     </g>
    </g>
    <g id="ytick_12">
     <g id="line2d_47">
      <g>
       <use style="fill:#262626;stroke:#262626;" x="90" xlink:href="#mbc6c9cb674" y="325.150026"/>
      </g>
     </g>
     <g id="text_21">
      <!-- $\mathdefault{10^{-1}}$ -->
      <g style="fill:#262626;" transform="translate(57.2 330.306276)scale(0.1 -0.1)">
       <use transform="translate(0 0.99375)" xlink:href="#ArialMT-31"/>
       <use transform="translate(55.615234 0.99375)" xlink:href="#ArialMT-30"/>
       <use transform="translate(112.972813 70.6875)scale(0.7)" xlink:href="#ArialMT-2212"/>
       <use transform="translate(153.851719 70.6875)scale(0.7)" xlink:href="#ArialMT-31"/>
      </g>
     </g>
    </g>
    <g id="ytick_13">
     <g id="line2d_48">
      <defs>
       <path d="M 0 0 
L -3 0 
" id="mec0e9cff43" style="stroke:#262626;stroke-width:0.5;"/>
      </defs>
      <g>
       <use style="fill:#262626;stroke:#262626;stroke-width:0.5;" x="90" xlink:href="#mec0e9cff43" y="498.529974"/>
      </g>
     </g>
    </g>
    <g id="ytick_14">
     <g id="line2d_49">
      <g>
       <use style="fill:#262626;stroke:#262626;stroke-width:0.5;" x="90" xlink:href="#mec0e9cff43" y="490.276137"/>
      </g>
     </g>
    </g>
    <g id="ytick_15">
     <g id="line2d_50">
      <g>
       <use style="fill:#262626;stroke:#262626;stroke-width:0.5;" x="90" xlink:href="#mec0e9cff43" y="484.419947"/>
      </g>
     </g>
    </g>
    <g id="ytick_16">
     <g id="line2d_51">
      <g>
       <use style="fill:#262626;stroke:#262626;stroke-width:0.5;" x="90" xlink:href="#mec0e9cff43" y="479.877533"/>
      </g>
     </g>
    </g>
    <g id="ytick_17">
     <g id="line2d_52">
      <g>
       <use style="fill:#262626;stroke:#262626;stroke-width:0.5;" x="90" xlink:href="#mec0e9cff43" y="476.166111"/>
      </g>
     </g>
    </g>
    <g id="ytick_18">
     <g id="line2d_53">
      <g>
       <use style="fill:#262626;stroke:#262626;stroke-width:0.5;" x="90" xlink:href="#mec0e9cff43" y="473.028148"/>
      </g>
     </g>
    </g>
    <g id="ytick_19">
     <g id="line2d_54">
      <g>
       <use style="fill:#262626;stroke:#262626;stroke-width:0.5;" x="90" xlink:href="#mec0e9cff43" y="470.309921"/>
      </g>
     </g>
    </g>
    <g id="ytick_20">
     <g id="line2d_55">
      <g>
       <use style="fill:#262626;stroke:#262626;stroke-width:0.5;" x="90" xlink:href="#mec0e9cff43" y="467.912274"/>
      </g>
     </g>
    </g>
    <g id="ytick_21">
     <g id="line2d_56">
      <g>
       <use style="fill:#262626;stroke:#262626;stroke-width:0.5;" x="90" xlink:href="#mec0e9cff43" y="451.65748"/>
      </g>
     </g>
    </g>
    <g id="ytick_22">
     <g id="line2d_57">
      <g>
       <use style="fill:#262626;stroke:#262626;stroke-width:0.5;" x="90" xlink:href="#mec0e9cff43" y="443.403644"/>
      </g>
     </g>
    </g>
    <g id="ytick_23">
     <g id="line2d_58">
      <g>
       <use style="fill:#262626;stroke:#262626;stroke-width:0.5;" x="90" xlink:href="#mec0e9cff43" y="437.547454"/>
      </g>
     </g>
    </g>
    <g id="ytick_24">
     <g id="line2d_59">
      <g>
       <use style="fill:#262626;stroke:#262626;stroke-width:0.5;" x="90" xlink:href="#mec0e9cff43" y="433.00504"/>
      </g>
     </g>
    </g>
    <g id="ytick_25">
     <g id="line2d_60">
      <g>
       <use style="fill:#262626;stroke:#262626;stroke-width:0.5;" x="90" xlink:href="#mec0e9cff43" y="429.293617"/>
      </g>
     </g>
    </g>
    <g id="ytick_26">
     <g id="line2d_61">
      <g>
       <use style="fill:#262626;stroke:#262626;stroke-width:0.5;" x="90" xlink:href="#mec0e9cff43" y="426.155654"/>
      </g>
     </g>
    </g>
    <g id="ytick_27">
     <g id="line2d_62">
      <g>
       <use style="fill:#262626;stroke:#262626;stroke-width:0.5;" x="90" xlink:href="#mec0e9cff43" y="423.437427"/>
      </g>
     </g>
    </g>
    <g id="ytick_28">
     <g id="line2d_63">
      <g>
       <use style="fill:#262626;stroke:#262626;stroke-width:0.5;" x="90" xlink:href="#mec0e9cff43" y="421.039781"/>
      </g>
     </g>
    </g>
    <g id="ytick_29">
     <g id="line2d_64">
      <g>
       <use style="fill:#262626;stroke:#262626;stroke-width:0.5;" x="90" xlink:href="#mec0e9cff43" y="404.784987"/>
      </g>
     </g>
    </g>
    <g id="ytick_30">
     <g id="line2d_65">
      <g>
       <use style="fill:#262626;stroke:#262626;stroke-width:0.5;" x="90" xlink:href="#mec0e9cff43" y="396.53115"/>
      </g>
     </g>
    </g>
    <g id="ytick_31">
     <g id="line2d_66">
      <g>
       <use style="fill:#262626;stroke:#262626;stroke-width:0.5;" x="90" xlink:href="#mec0e9cff43" y="390.67496"/>
      </g>
     </g>
    </g>
    <g id="ytick_32">
     <g id="line2d_67">
      <g>
       <use style="fill:#262626;stroke:#262626;stroke-width:0.5;" x="90" xlink:href="#mec0e9cff43" y="386.132546"/>
      </g>
     </g>
    </g>
    <g id="ytick_33">
     <g id="line2d_68">
      <g>
       <use style="fill:#262626;stroke:#262626;stroke-width:0.5;" x="90" xlink:href="#mec0e9cff43" y="382.421124"/>
      </g>
     </g>
    </g>
    <g id="ytick_34">
     <g id="line2d_69">
      <g>
       <use style="fill:#262626;stroke:#262626;stroke-width:0.5;" x="90" xlink:href="#mec0e9cff43" y="379.283161"/>
      </g>
     </g>
    </g>
    <g id="ytick_35">
     <g id="line2d_70">
      <g>
       <use style="fill:#262626;stroke:#262626;stroke-width:0.5;" x="90" xlink:href="#mec0e9cff43" y="376.564934"/>
      </g>
     </g>
    </g>
    <g id="ytick_36">
     <g id="line2d_71">
      <g>
       <use style="fill:#262626;stroke:#262626;stroke-width:0.5;" x="90" xlink:href="#mec0e9cff43" y="374.167288"/>
      </g>
     </g>
    </g>
    <g id="ytick_37">
     <g id="line2d_72">
      <g>
       <use style="fill:#262626;stroke:#262626;stroke-width:0.5;" x="90" xlink:href="#mec0e9cff43" y="357.912493"/>
      </g>
     </g>
    </g>
    <g id="ytick_38">
     <g id="line2d_73">
      <g>
       <use style="fill:#262626;stroke:#262626;stroke-width:0.5;" x="90" xlink:href="#mec0e9cff43" y="349.658657"/>
      </g>
     </g>
    </g>
    <g id="ytick_39">
     <g id="line2d_74">
      <g>
       <use style="fill:#262626;stroke:#262626;stroke-width:0.5;" x="90" xlink:href="#mec0e9cff43" y="343.802467"/>
      </g>
     </g>
    </g>
    <g id="ytick_40">
     <g id="line2d_75">
      <g>
       <use style="fill:#262626;stroke:#262626;stroke-width:0.5;" x="90" xlink:href="#mec0e9cff43" y="339.260053"/>
      </g>
     </g>
    </g>
    <g id="ytick_41">
     <g id="line2d_76">
      <g>
       <use style="fill:#262626;stroke:#262626;stroke-width:0.5;" x="90" xlink:href="#mec0e9cff43" y="335.548631"/>
      </g>
     </g>
    </g>
    <g id="ytick_42">
     <g id="line2d_77">
      <g>
       <use style="fill:#262626;stroke:#262626;stroke-width:0.5;" x="90" xlink:href="#mec0e9cff43" y="332.410668"/>
      </g>
     </g>
    </g>
    <g id="ytick_43">
     <g id="line2d_78">
      <g>
       <use style="fill:#262626;stroke:#262626;stroke-width:0.5;" x="90" xlink:href="#mec0e9cff43" y="329.69244"/>
      </g>
     </g>
    </g>
    <g id="ytick_44">
     <g id="line2d_79">
      <g>
       <use style="fill:#262626;stroke:#262626;stroke-width:0.5;" x="90" xlink:href="#mec0e9cff43" y="327.294794"/>
      </g>
     </g>
    </g>
    <g id="ytick_45">
     <g id="line2d_80">
      <g>
       <use style="fill:#262626;stroke:#262626;stroke-width:0.5;" x="90" xlink:href="#mec0e9cff43" y="311.04"/>
      </g>
     </g>
    </g>
   </g>
   <g id="line2d_81">
    <path clip-path="url(#p65aeb745c0)" d="M -1 344.468185 
L 151.095164 344.392997 
L 206.306812 363.107374 
L 238.603556 373.932021 
L 261.518461 379.826636 
L 279.292642 385.181678 
L 293.815205 356.585086 
L 306.093857 397.130833 
L 316.730109 397.037295 
L 326.111949 404.335467 
L 334.50429 404.773409 
L 342.096086 410.598523 
L 349.026853 369.936026 
L 355.402541 395.947179 
L 361.305505 402.520709 
L 366.801034 406.369036 
L 371.941758 408.365675 
L 376.770725 409.206504 
L 381.323597 384.532445 
L 385.630245 423.089271 
L 389.715939 426.41399 
L 393.602249 427.861622 
L 397.307735 417.605962 
L 400.848476 398.918381 
L 404.238502 360.31621 
L 407.490119 381.877034 
L 410.614189 396.290333 
L 413.620341 402.084639 
L 416.517154 410.21515 
L 419.312303 416.873484 
L 422.012683 399.853067 
L 424.624509 394.473176 
L 427.153406 403.190961 
L 429.604479 405.916777 
L 431.982374 408.125434 
L 434.291335 406.562705 
L 436.535246 399.710666 
L 438.717672 440.157518 
L 440.841893 425.572609 
L 442.910933 424.262849 
L 444.927587 423.325173 
L 446.894442 427.443764 
L 448.813898 429.3493 
L 450.688186 401.8213 
L 452.519383 414.540056 
L 454.309426 417.943386 
L 456.060125 419.204655 
L 459.45015 420.39775 
L 461.09255 422.112134 
L 462.701768 424.138304 
L 464.279118 423.222018 
L 465.825838 425.869183 
L 467.343094 425.463602 
L 468.83199 426.420623 
L 470.293564 439.975988 
L 471.728802 424.833443 
L 473.138637 425.685988 
L 474.523951 425.544203 
L 475.885584 426.03753 
L 477.224331 424.672793 
L 478.540949 419.6752 
L 479.836157 449.151542 
L 481.110642 433.404602 
L 482.365055 431.614519 
L 483.600019 431.241763 
L 484.816127 431.498272 
L 486.013948 433.719177 
L 487.194022 424.046795 
L 488.356869 431.913059 
L 489.502983 432.163823 
L 490.63284 432.858169 
L 491.746894 434.605795 
L 492.845581 432.980632 
L 493.92932 436.122136 
L 494.998512 431.897618 
L 496.053541 432.364215 
L 497.094779 434.950316 
L 498.122582 434.023457 
L 499.137291 433.707915 
L 500.139235 433.943054 
L 501.128734 431.574593 
L 502.10609 436.547235 
L 503.0716 437.38499 
L 504.025546 436.635477 
L 504.968203 436.410352 
L 505.899834 436.481381 
L 506.820695 437.718891 
L 507.731032 436.670655 
L 508.631082 436.652608 
L 509.521075 437.505128 
L 510.401234 436.27265 
L 512.132901 438.300584 
L 512.984819 442.908019 
L 513.827722 433.15935 
L 514.661799 437.398366 
L 515.487232 438.393497 
L 516.304198 438.117273 
L 517.112871 438.452027 
L 517.913416 439.307769 
L 518.705996 441.026829 
L 519.490766 440.188215 
L 520.26788 440.998983 
L 521.037486 439.496867 
L 521.799727 440.208745 
L 522.554743 441.424137 
L 523.302669 441.600481 
L 524.043638 441.549508 
L 524.777778 442.506789 
L 526.940451 441.865263 
L 527.648487 441.339559 
L 528.350285 442.678625 
L 529.7356 441.885229 
L 530.419326 440.67373 
L 531.097232 442.878754 
L 531.769418 442.737303 
L 532.435979 444.45189 
L 533.097009 442.91284 
L 533.752597 443.427443 
L 534.402834 443.297205 
L 535.047806 446.411959 
L 535.687597 445.346173 
L 536.32229 443.119454 
L 536.951966 446.231619 
L 537.576703 444.388962 
L 538.196578 443.597072 
L 538.811667 440.952768 
L 539.422042 444.863327 
L 540.027776 443.031817 
L 540.628938 444.184321 
L 541.225596 447.983569 
L 541.817819 445.043288 
L 542.405671 444.938157 
L 542.989216 444.476971 
L 543.568517 447.53745 
L 544.143636 444.081757 
L 544.714632 446.774715 
L 545.281563 447.5626 
L 545.844488 447.437944 
L 546.403463 445.153637 
L 546.958543 447.641782 
L 547.509781 446.908562 
L 548.600942 446.242077 
L 549.140969 448.31328 
L 549.677358 446.78538 
L 550.21016 447.063964 
L 550.739422 449.446467 
L 551.26519 447.515644 
L 551.78751 447.29263 
L 552.306428 449.929454 
L 552.821987 448.376423 
L 553.33423 447.391645 
L 553.8432 446.782151 
L 554.348939 447.317813 
L 554.851487 448.620592 
L 555.350884 447.238364 
L 555.847169 447.853658 
L 556.340382 449.226788 
L 556.830559 449.761836 
L 557.317739 448.209633 
L 558.283248 449.936245 
L 559.237195 448.757654 
L 559.709918 451.190081 
L 560.179852 449.045281 
L 560.647029 448.890804 
L 561.111483 448.187936 
L 562.032344 450.723032 
L 562.488812 451.018271 
L 562.94268 452.725811 
L 563.393976 450.840554 
L 563.84273 449.602331 
L 564.28897 452.11005 
L 565.174019 450.547571 
L 565.612882 451.795994 
L 566.049341 450.608884 
L 566.483422 452.867567 
L 566.91515 450.707086 
L 567.34455 449.694058 
L 567.771648 451.587117 
L 568.196468 451.839276 
L 568.619034 453.734086 
L 569.039371 451.257229 
L 569.457501 452.109439 
L 569.873447 451.453809 
L 570.287233 455.049752 
L 570.69888 450.861462 
L 571.108411 451.919765 
L 571.515847 451.660582 
L 571.921209 455.237174 
L 572.32452 453.329345 
L 572.725798 454.057115 
L 573.125065 452.880092 
L 573.917644 451.922269 
L 574.310996 453.546882 
L 574.702415 454.48767 
L 575.091919 453.772995 
L 575.479529 452.018016 
L 576.249135 454.467419 
L 576.631167 455.494435 
L 577.011376 455.427975 
L 577.389778 454.831615 
L 577.766391 452.731194 
L 578.141232 455.268462 
L 578.514318 454.44454 
L 578.885664 453.342048 
L 579.255287 453.331437 
L 579.623202 452.454294 
L 579.989426 455.065481 
L 580.353974 456.090162 
L 580.716861 454.608391 
L 581.078102 454.307589 
L 581.437713 455.535274 
L 581.795707 455.495633 
L 582.152099 453.700991 
L 582.506904 453.658378 
L 582.860136 454.535127 
L 583.211808 454.146468 
L 583.561934 454.024168 
L 583.910528 456.700023 
L 584.257603 454.342759 
L 584.603172 455.958552 
L 584.947248 454.432738 
L 585.289845 455.293493 
L 585.630974 455.783457 
L 585.970649 455.845529 
L 586.308881 456.875261 
L 586.645683 454.972654 
L 587.315045 456.083308 
L 587.647628 455.141251 
L 587.978828 455.101954 
L 588.308657 458.583666 
L 588.637126 458.026069 
L 588.964246 454.051913 
L 589.290028 454.48978 
L 589.614483 459.244952 
L 590.259454 455.571839 
L 590.899246 457.401391 
L 591.217224 455.895054 
L 591.533939 458.174901 
L 591.849399 451.980848 
L 592.163614 458.469651 
L 592.476596 455.961694 
L 592.788352 456.918992 
L 593.098892 457.272514 
L 593.408227 455.645616 
L 593.716365 456.492211 
L 594.023315 458.829816 
L 594.329088 457.260165 
L 594.633691 458.708792 
L 594.937133 457.401345 
L 595.239424 456.657015 
L 595.540572 457.462106 
L 595.840586 457.226448 
L 596.139474 457.739046 
L 596.437245 457.198998 
L 596.733906 458.12826 
L 597.029467 456.296029 
L 597.323936 456.419172 
L 597.909626 460.034923 
L 598.200864 454.918544 
L 598.491042 455.778711 
L 598.780166 458.15249 
L 599.068244 457.649875 
L 599.355284 461.076669 
L 599.641294 458.206393 
L 599.92628 458.842615 
L 600.493212 457.22076 
L 600.775172 455.793153 
L 601.056137 462.211315 
L 601.615112 459.671351 
L 601.893135 459.655058 
L 602.170191 457.297869 
L 602.446287 460.630089 
L 602.995624 458.041692 
L 603.268878 459.911946 
L 603.541199 459.58551 
L 603.812591 461.688733 
L 604.083062 459.100351 
L 604.352617 458.690541 
L 604.621264 457.487496 
L 604.889007 456.946095 
L 605.155853 460.380901 
L 605.421809 458.722876 
L 605.686879 458.334071 
L 605.95107 462.291004 
L 606.214388 458.767281 
L 606.476838 459.902109 
L 606.738427 455.866143 
L 606.999159 458.041429 
L 607.25904 458.889143 
L 607.518076 459.322422 
L 607.776273 461.193485 
L 608.033635 462.223576 
L 608.290169 458.386569 
L 608.545879 464.525392 
L 608.80077 455.876705 
L 609.054849 463.622324 
L 609.308119 460.13447 
L 609.560587 460.018432 
L 609.812258 462.78417 
L 610.063135 458.918935 
L 610.313225 465.38934 
L 610.562532 459.929952 
L 610.811062 458.019987 
L 611.058818 459.85086 
L 611.55203 461.296258 
L 611.797496 460.944227 
L 612.042208 461.451377 
L 612.28617 459.484304 
L 612.529387 464.519367 
L 612.771864 459.382613 
L 613.013605 460.484958 
L 613.254614 460.792363 
L 613.494897 460.916768 
L 613.973298 463.727785 
L 614.211426 462.139131 
L 614.448843 464.190017 
L 614.685555 459.682126 
L 614.921566 457.919397 
L 615.15688 459.003894 
L 615.3915 461.597785 
L 615.625431 460.381359 
L 615.858678 462.063168 
L 616.091243 461.421183 
L 616.323131 459.937973 
L 616.554347 464.227562 
L 616.784892 459.269386 
L 617.014773 459.599772 
L 617.472553 463.567949 
L 617.700461 460.323334 
L 617.927718 465.099207 
L 618.154329 457.165596 
L 618.380296 460.780696 
L 618.605625 460.936677 
L 618.830318 460.213731 
L 619.054379 458.925385 
L 619.277811 463.957039 
L 619.500618 462.209458 
L 619.722804 461.494512 
L 619.944372 462.36584 
L 620.165325 462.284004 
L 620.385667 462.452095 
L 620.605401 463.239876 
L 620.824531 461.256285 
L 621.043059 460.551891 
L 621.26099 457.409207 
L 621.911227 465.882712 
L 622.126798 459.43965 
L 622.341787 463.299226 
L 622.556198 457.167055 
L 622.770034 460.650139 
L 622.983296 461.8955 
L 623.195989 460.669308 
L 623.408116 461.831784 
L 623.61968 460.81409 
L 623.830683 465.876288 
L 624.041128 462.206836 
L 624.251019 461.261091 
L 624.460358 456.676981 
L 624.669149 463.165526 
L 624.877394 461.997033 
L 625.085096 462.801746 
L 625.292257 459.410116 
L 625.704971 467.242927 
L 625.910528 465.20542 
L 626.115557 465.490437 
L 626.320059 467.817791 
L 626.524038 463.56996 
L 626.727495 464.59202 
L 626.930435 460.112157 
L 627.132858 461.878557 
L 627.334768 465.968736 
L 627.536168 465.337374 
L 627.937446 459.573407 
L 628.336713 462.62967 
L 628.535599 463.373874 
L 628.733989 463.052807 
L 628.931886 461.854438 
L 629.129293 465.255928 
L 629.522644 464.267906 
L 629.718594 462.988711 
L 629.914063 463.497821 
L 630.109054 462.251832 
L 630.303568 462.299845 
L 630.497608 464.647895 
L 630.691177 460.363173 
L 630.884277 464.466875 
L 631.07691 460.593278 
L 631.269078 463.162009 
L 631.460783 462.792452 
L 631.652028 465.248729 
L 632.033146 459.833772 
L 632.223024 462.483127 
L 632.41245 469.273348 
L 632.601426 461.913416 
L 632.789956 459.717803 
L 633.165681 465.362467 
L 633.539642 460.273075 
L 633.725966 460.531705 
L 633.911856 464.233898 
L 634.097312 458.306067 
L 634.282338 465.550824 
L 634.466935 464.438003 
L 634.651105 464.618474 
L 634.83485 465.006382 
L 635.018173 467.182906 
L 635.201074 464.239112 
L 635.383557 466.467708 
L 635.747272 463.753038 
L 635.928509 463.355697 
L 636.109335 459.26922 
L 636.289751 460.225772 
L 636.649361 471.682232 
L 636.828559 460.08433 
L 637.007355 465.661803 
L 637.185751 462.11227 
L 637.363748 464.709097 
L 637.541348 461.26206 
L 637.718553 464.677709 
L 637.895364 464.252353 
L 638.071784 470.096971 
L 638.247814 463.822866 
L 638.423456 470.295353 
L 638.598712 471.553223 
L 638.94807 461.425574 
L 639.295903 466.787178 
L 639.469251 461.51404 
L 639.642223 460.174802 
L 639.81482 461.833408 
L 639.987044 467.200598 
L 640.158897 461.936957 
L 640.330379 465.872939 
L 640.501493 463.754979 
L 640.67224 468.309778 
L 641.012641 460.466357 
L 641.182297 461.591852 
L 641.351593 465.216481 
L 641.520529 463.087763 
L 641.689108 464.712933 
L 641.857331 459.842006 
L 642.0252 462.205479 
L 642.359879 471.852804 
L 642.526693 467.034086 
L 642.693158 458.442245 
L 642.859276 463.125017 
L 643.025049 462.277874 
L 643.190477 462.526131 
L 643.355562 461.315956 
L 643.520306 465.541075 
L 643.684709 465.578173 
L 643.848774 466.136453 
L 644.012502 464.879073 
L 644.175894 460.920656 
L 644.501676 467.731565 
L 644.664069 464.991971 
L 644.826131 464.477227 
L 644.987864 464.835609 
L 645.14927 462.996515 
L 645.310349 470.143779 
L 645.471103 463.846518 
L 645.631533 463.947522 
L 645.791641 467.539166 
L 645.951427 462.15716 
L 646.110894 463.933073 
L 646.270042 467.902063 
L 646.428873 465.217247 
L 646.745587 465.507245 
L 646.903473 466.222091 
L 647.061047 462.151828 
L 647.21831 466.948697 
L 647.375263 463.797737 
L 647.531907 463.596027 
L 647.688244 466.21041 
L 647.844274 464.849458 
L 647.844274 464.849458 
" style="fill:none;stroke:#b22222;stroke-linecap:round;stroke-width:1.75;"/>
   </g>
   <g id="patch_6">
    <path d="M 90 512.64 
L 90 311.04 
" style="fill:none;stroke:#262626;stroke-linecap:square;stroke-linejoin:miter;stroke-width:1.25;"/>
   </g>
   <g id="patch_7">
    <path d="M 90 512.64 
L 648 512.64 
" style="fill:none;stroke:#262626;stroke-linecap:square;stroke-linejoin:miter;stroke-width:1.25;"/>
   </g>
  </g>
 </g>
 <defs>
  <clipPath id="p8541ec6b80">
   <rect height="201.6" width="558" x="90" y="69.12"/>
  </clipPath>
  <clipPath id="p65aeb745c0">
   <rect height="201.6" width="558" x="90" y="311.04"/>
  </clipPath>
 </defs>
</svg>
