<?xml version="1.0" encoding="utf-8" standalone="no"?>
<!DOCTYPE svg PUBLIC "-//W3C//DTD SVG 1.1//EN"
  "http://www.w3.org/Graphics/SVG/1.1/DTD/svg11.dtd">
<!-- Created with matplotlib (http://matplotlib.org/) -->
<svg height="576pt" version="1.1" viewBox="0 0 720 576" width="720pt" xmlns="http://www.w3.org/2000/svg" xmlns:xlink="http://www.w3.org/1999/xlink">
 <defs>
  <style type="text/css">
*{stroke-linecap:butt;stroke-linejoin:round;}
  </style>
 </defs>
 <g id="figure_1">
  <g id="patch_1">
   <path d="M 0 576 
L 720 576 
L 720 0 
L 0 0 
z
" style="fill:#ffffff;"/>
  </g>
  <g id="axes_1">
   <g id="patch_2">
    <path d="M 90 270.72 
L 648 270.72 
L 648 69.12 
L 90 69.12 
z
" style="fill:#ffffff;"/>
   </g>
   <g id="matplotlib.axis_1">
    <g id="xtick_1">
     <g id="line2d_1">
      <defs>
       <path d="M 0 0 
L 0 6 
" id="m60078793b2" style="stroke:#262626;"/>
      </defs>
      <g>
       <use style="fill:#262626;stroke:#262626;" x="90" xlink:href="#m60078793b2" y="270.72"/>
      </g>
     </g>
     <g id="text_1">
      <!-- 0 -->
      <defs>
       <path d="M 4.15625 35.296875 
Q 4.15625 48 6.765625 55.734375 
Q 9.375 63.484375 14.515625 67.671875 
Q 19.671875 71.875 27.484375 71.875 
Q 33.25 71.875 37.59375 69.546875 
Q 41.9375 67.234375 44.765625 62.859375 
Q 47.609375 58.5 49.21875 52.21875 
Q 50.828125 45.953125 50.828125 35.296875 
Q 50.828125 22.703125 48.234375 14.96875 
Q 45.65625 7.234375 40.5 3 
Q 35.359375 -1.21875 27.484375 -1.21875 
Q 17.140625 -1.21875 11.234375 6.203125 
Q 4.15625 15.140625 4.15625 35.296875 
z
M 13.1875 35.296875 
Q 13.1875 17.671875 17.3125 11.828125 
Q 21.4375 6 27.484375 6 
Q 33.546875 6 37.671875 11.859375 
Q 41.796875 17.71875 41.796875 35.296875 
Q 41.796875 52.984375 37.671875 58.78125 
Q 33.546875 64.59375 27.390625 64.59375 
Q 21.34375 64.59375 17.71875 59.46875 
Q 13.1875 52.9375 13.1875 35.296875 
z
" id="ArialMT-30"/>
      </defs>
      <g style="fill:#262626;" transform="translate(87.219531 290.877812)scale(0.1 -0.1)">
       <use xlink:href="#ArialMT-30"/>
      </g>
     </g>
    </g>
    <g id="xtick_2">
     <g id="line2d_2">
      <g>
       <use style="fill:#262626;stroke:#262626;" x="198.984375" xlink:href="#m60078793b2" y="270.72"/>
      </g>
     </g>
     <g id="text_2">
      <!-- 200 -->
      <defs>
       <path d="M 50.34375 8.453125 
L 50.34375 0 
L 3.03125 0 
Q 2.9375 3.171875 4.046875 6.109375 
Q 5.859375 10.9375 9.828125 15.625 
Q 13.8125 20.3125 21.34375 26.46875 
Q 33.015625 36.03125 37.109375 41.625 
Q 41.21875 47.21875 41.21875 52.203125 
Q 41.21875 57.421875 37.46875 61 
Q 33.734375 64.59375 27.734375 64.59375 
Q 21.390625 64.59375 17.578125 60.78125 
Q 13.765625 56.984375 13.71875 50.25 
L 4.6875 51.171875 
Q 5.609375 61.28125 11.65625 66.578125 
Q 17.71875 71.875 27.9375 71.875 
Q 38.234375 71.875 44.234375 66.15625 
Q 50.25 60.453125 50.25 52 
Q 50.25 47.703125 48.484375 43.546875 
Q 46.734375 39.40625 42.65625 34.8125 
Q 38.578125 30.21875 29.109375 22.21875 
Q 21.1875 15.578125 18.9375 13.203125 
Q 16.703125 10.84375 15.234375 8.453125 
z
" id="ArialMT-32"/>
      </defs>
      <g style="fill:#262626;" transform="translate(190.642969 290.877812)scale(0.1 -0.1)">
       <use xlink:href="#ArialMT-32"/>
       <use x="55.615234" xlink:href="#ArialMT-30"/>
       <use x="111.230469" xlink:href="#ArialMT-30"/>
      </g>
     </g>
    </g>
    <g id="xtick_3">
     <g id="line2d_3">
      <g>
       <use style="fill:#262626;stroke:#262626;" x="307.96875" xlink:href="#m60078793b2" y="270.72"/>
      </g>
     </g>
     <g id="text_3">
      <!-- 400 -->
      <defs>
       <path d="M 32.328125 0 
L 32.328125 17.140625 
L 1.265625 17.140625 
L 1.265625 25.203125 
L 33.9375 71.578125 
L 41.109375 71.578125 
L 41.109375 25.203125 
L 50.78125 25.203125 
L 50.78125 17.140625 
L 41.109375 17.140625 
L 41.109375 0 
z
M 32.328125 25.203125 
L 32.328125 57.46875 
L 9.90625 25.203125 
z
" id="ArialMT-34"/>
      </defs>
      <g style="fill:#262626;" transform="translate(299.627344 290.877812)scale(0.1 -0.1)">
       <use xlink:href="#ArialMT-34"/>
       <use x="55.615234" xlink:href="#ArialMT-30"/>
       <use x="111.230469" xlink:href="#ArialMT-30"/>
      </g>
     </g>
    </g>
    <g id="xtick_4">
     <g id="line2d_4">
      <g>
       <use style="fill:#262626;stroke:#262626;" x="416.953125" xlink:href="#m60078793b2" y="270.72"/>
      </g>
     </g>
     <g id="text_4">
      <!-- 600 -->
      <defs>
       <path d="M 49.75 54.046875 
L 41.015625 53.375 
Q 39.84375 58.546875 37.703125 60.890625 
Q 34.125 64.65625 28.90625 64.65625 
Q 24.703125 64.65625 21.53125 62.3125 
Q 17.390625 59.28125 14.984375 53.46875 
Q 12.59375 47.65625 12.5 36.921875 
Q 15.671875 41.75 20.265625 44.09375 
Q 24.859375 46.4375 29.890625 46.4375 
Q 38.671875 46.4375 44.84375 39.96875 
Q 51.03125 33.5 51.03125 23.25 
Q 51.03125 16.5 48.125 10.71875 
Q 45.21875 4.9375 40.140625 1.859375 
Q 35.0625 -1.21875 28.609375 -1.21875 
Q 17.625 -1.21875 10.6875 6.859375 
Q 3.765625 14.9375 3.765625 33.5 
Q 3.765625 54.25 11.421875 63.671875 
Q 18.109375 71.875 29.4375 71.875 
Q 37.890625 71.875 43.28125 67.140625 
Q 48.6875 62.40625 49.75 54.046875 
z
M 13.875 23.1875 
Q 13.875 18.65625 15.796875 14.5 
Q 17.71875 10.359375 21.1875 8.171875 
Q 24.65625 6 28.46875 6 
Q 34.03125 6 38.03125 10.484375 
Q 42.046875 14.984375 42.046875 22.703125 
Q 42.046875 30.125 38.078125 34.390625 
Q 34.125 38.671875 28.125 38.671875 
Q 22.171875 38.671875 18.015625 34.390625 
Q 13.875 30.125 13.875 23.1875 
z
" id="ArialMT-36"/>
      </defs>
      <g style="fill:#262626;" transform="translate(408.611719 290.877812)scale(0.1 -0.1)">
       <use xlink:href="#ArialMT-36"/>
       <use x="55.615234" xlink:href="#ArialMT-30"/>
       <use x="111.230469" xlink:href="#ArialMT-30"/>
      </g>
     </g>
    </g>
    <g id="xtick_5">
     <g id="line2d_5">
      <g>
       <use style="fill:#262626;stroke:#262626;" x="525.9375" xlink:href="#m60078793b2" y="270.72"/>
      </g>
     </g>
     <g id="text_5">
      <!-- 800 -->
      <defs>
       <path d="M 17.671875 38.8125 
Q 12.203125 40.828125 9.5625 44.53125 
Q 6.9375 48.25 6.9375 53.421875 
Q 6.9375 61.234375 12.546875 66.546875 
Q 18.171875 71.875 27.484375 71.875 
Q 36.859375 71.875 42.578125 66.421875 
Q 48.296875 60.984375 48.296875 53.171875 
Q 48.296875 48.1875 45.671875 44.5 
Q 43.0625 40.828125 37.75 38.8125 
Q 44.34375 36.671875 47.78125 31.875 
Q 51.21875 27.09375 51.21875 20.453125 
Q 51.21875 11.28125 44.71875 5.03125 
Q 38.234375 -1.21875 27.640625 -1.21875 
Q 17.046875 -1.21875 10.546875 5.046875 
Q 4.046875 11.328125 4.046875 20.703125 
Q 4.046875 27.6875 7.59375 32.390625 
Q 11.140625 37.109375 17.671875 38.8125 
z
M 15.921875 53.71875 
Q 15.921875 48.640625 19.1875 45.40625 
Q 22.46875 42.1875 27.6875 42.1875 
Q 32.765625 42.1875 36.015625 45.375 
Q 39.265625 48.578125 39.265625 53.21875 
Q 39.265625 58.0625 35.90625 61.359375 
Q 32.5625 64.65625 27.59375 64.65625 
Q 22.5625 64.65625 19.234375 61.421875 
Q 15.921875 58.203125 15.921875 53.71875 
z
M 13.09375 20.65625 
Q 13.09375 16.890625 14.875 13.375 
Q 16.65625 9.859375 20.171875 7.921875 
Q 23.6875 6 27.734375 6 
Q 34.03125 6 38.125 10.046875 
Q 42.234375 14.109375 42.234375 20.359375 
Q 42.234375 26.703125 38.015625 30.859375 
Q 33.796875 35.015625 27.4375 35.015625 
Q 21.234375 35.015625 17.15625 30.90625 
Q 13.09375 26.8125 13.09375 20.65625 
z
" id="ArialMT-38"/>
      </defs>
      <g style="fill:#262626;" transform="translate(517.596094 290.877812)scale(0.1 -0.1)">
       <use xlink:href="#ArialMT-38"/>
       <use x="55.615234" xlink:href="#ArialMT-30"/>
       <use x="111.230469" xlink:href="#ArialMT-30"/>
      </g>
     </g>
    </g>
    <g id="xtick_6">
     <g id="line2d_6">
      <g>
       <use style="fill:#262626;stroke:#262626;" x="634.921875" xlink:href="#m60078793b2" y="270.72"/>
      </g>
     </g>
     <g id="text_6">
      <!-- 1000 -->
      <defs>
       <path d="M 37.25 0 
L 28.46875 0 
L 28.46875 56 
Q 25.296875 52.984375 20.140625 49.953125 
Q 14.984375 46.921875 10.890625 45.40625 
L 10.890625 53.90625 
Q 18.265625 57.375 23.78125 62.296875 
Q 29.296875 67.234375 31.59375 71.875 
L 37.25 71.875 
z
" id="ArialMT-31"/>
      </defs>
      <g style="fill:#262626;" transform="translate(623.8 290.877812)scale(0.1 -0.1)">
       <use xlink:href="#ArialMT-31"/>
       <use x="55.615234" xlink:href="#ArialMT-30"/>
       <use x="111.230469" xlink:href="#ArialMT-30"/>
       <use x="166.845703" xlink:href="#ArialMT-30"/>
      </g>
     </g>
    </g>
   </g>
   <g id="matplotlib.axis_2">
    <g id="ytick_1">
     <g id="line2d_7">
      <defs>
       <path d="M 0 0 
L -6 0 
" id="ma21a125973" style="stroke:#262626;"/>
      </defs>
      <g>
       <use style="fill:#262626;stroke:#262626;" x="90" xlink:href="#ma21a125973" y="270.72"/>
      </g>
     </g>
     <g id="text_7">
      <!-- −0.6 -->
      <defs>
       <path d="M 52.828125 31.203125 
L 5.5625 31.203125 
L 5.5625 39.40625 
L 52.828125 39.40625 
z
" id="ArialMT-2212"/>
       <path d="M 9.078125 0 
L 9.078125 10.015625 
L 19.09375 10.015625 
L 19.09375 0 
z
" id="ArialMT-2e"/>
      </defs>
      <g style="fill:#262626;" transform="translate(57.259375 274.298906)scale(0.1 -0.1)">
       <use xlink:href="#ArialMT-2212"/>
       <use x="58.398438" xlink:href="#ArialMT-30"/>
       <use x="114.013672" xlink:href="#ArialMT-2e"/>
       <use x="141.796875" xlink:href="#ArialMT-36"/>
      </g>
     </g>
    </g>
    <g id="ytick_2">
     <g id="line2d_8">
      <g>
       <use style="fill:#262626;stroke:#262626;" x="90" xlink:href="#ma21a125973" y="237.12"/>
      </g>
     </g>
     <g id="text_8">
      <!-- −0.4 -->
      <g style="fill:#262626;" transform="translate(57.259375 240.698906)scale(0.1 -0.1)">
       <use xlink:href="#ArialMT-2212"/>
       <use x="58.398438" xlink:href="#ArialMT-30"/>
       <use x="114.013672" xlink:href="#ArialMT-2e"/>
       <use x="141.796875" xlink:href="#ArialMT-34"/>
      </g>
     </g>
    </g>
    <g id="ytick_3">
     <g id="line2d_9">
      <g>
       <use style="fill:#262626;stroke:#262626;" x="90" xlink:href="#ma21a125973" y="203.52"/>
      </g>
     </g>
     <g id="text_9">
      <!-- −0.2 -->
      <g style="fill:#262626;" transform="translate(57.259375 207.098906)scale(0.1 -0.1)">
       <use xlink:href="#ArialMT-2212"/>
       <use x="58.398438" xlink:href="#ArialMT-30"/>
       <use x="114.013672" xlink:href="#ArialMT-2e"/>
       <use x="141.796875" xlink:href="#ArialMT-32"/>
      </g>
     </g>
    </g>
    <g id="ytick_4">
     <g id="line2d_10">
      <g>
       <use style="fill:#262626;stroke:#262626;" x="90" xlink:href="#ma21a125973" y="169.92"/>
      </g>
     </g>
     <g id="text_10">
      <!-- 0.0 -->
      <g style="fill:#262626;" transform="translate(63.1 173.498906)scale(0.1 -0.1)">
       <use xlink:href="#ArialMT-30"/>
       <use x="55.615234" xlink:href="#ArialMT-2e"/>
       <use x="83.398438" xlink:href="#ArialMT-30"/>
      </g>
     </g>
    </g>
    <g id="ytick_5">
     <g id="line2d_11">
      <g>
       <use style="fill:#262626;stroke:#262626;" x="90" xlink:href="#ma21a125973" y="136.32"/>
      </g>
     </g>
     <g id="text_11">
      <!-- 0.2 -->
      <g style="fill:#262626;" transform="translate(63.1 139.898906)scale(0.1 -0.1)">
       <use xlink:href="#ArialMT-30"/>
       <use x="55.615234" xlink:href="#ArialMT-2e"/>
       <use x="83.398438" xlink:href="#ArialMT-32"/>
      </g>
     </g>
    </g>
    <g id="ytick_6">
     <g id="line2d_12">
      <g>
       <use style="fill:#262626;stroke:#262626;" x="90" xlink:href="#ma21a125973" y="102.72"/>
      </g>
     </g>
     <g id="text_12">
      <!-- 0.4 -->
      <g style="fill:#262626;" transform="translate(63.1 106.298906)scale(0.1 -0.1)">
       <use xlink:href="#ArialMT-30"/>
       <use x="55.615234" xlink:href="#ArialMT-2e"/>
       <use x="83.398438" xlink:href="#ArialMT-34"/>
      </g>
     </g>
    </g>
    <g id="ytick_7">
     <g id="line2d_13">
      <g>
       <use style="fill:#262626;stroke:#262626;" x="90" xlink:href="#ma21a125973" y="69.12"/>
      </g>
     </g>
     <g id="text_13">
      <!-- 0.6 -->
      <g style="fill:#262626;" transform="translate(63.1 72.698906)scale(0.1 -0.1)">
       <use xlink:href="#ArialMT-30"/>
       <use x="55.615234" xlink:href="#ArialMT-2e"/>
       <use x="83.398438" xlink:href="#ArialMT-36"/>
      </g>
     </g>
    </g>
   </g>
   <g id="line2d_14">
    <path clip-path="url(#pfe7c144fc6)" d="M 90 179.907305 
L 91.089844 180.507158 
L 91.634766 180.430254 
L 93.269531 180.978838 
L 93.814453 181.035234 
L 94.904297 180.404619 
L 95.449219 179.994463 
L 96.539062 178.235918 
L 97.628906 175.636553 
L 99.263672 170.601885 
L 101.443359 162.378252 
L 103.623047 155.43123 
L 104.712891 152.985674 
L 105.257812 151.555254 
L 105.802734 150.606768 
L 106.347656 149.976152 
L 107.4375 149.048174 
L 108.527344 149.166094 
L 109.072266 149.791582 
L 110.162109 151.437334 
L 110.707031 152.544756 
L 111.796875 155.451738 
L 112.341797 156.354082 
L 112.886719 157.887041 
L 113.976562 159.999346 
L 114.521484 160.865801 
L 115.066406 161.4554 
L 115.611328 161.875811 
L 116.15625 162.152666 
L 116.701172 161.773271 
L 117.246094 161.701494 
L 117.791016 160.870928 
L 118.335938 160.594072 
L 118.880859 159.963457 
L 121.060547 156.841143 
L 123.785156 153.482988 
L 124.330078 153.247148 
L 124.875 152.754961 
L 125.419922 152.43709 
L 125.964844 152.360186 
L 127.054688 153.098467 
L 127.599609 153.69832 
L 128.689453 155.585039 
L 129.234375 157.09749 
L 129.779297 158.179277 
L 130.869141 161.127275 
L 134.138672 170.284014 
L 135.773438 174.036943 
L 136.863281 175.313555 
L 137.953125 175.698076 
L 138.498047 175.190508 
L 139.042969 174.959795 
L 139.587891 174.108721 
L 140.132812 173.488359 
L 141.767578 170.053301 
L 142.857422 167.033525 
L 145.037109 160.43001 
L 147.761719 151.719316 
L 148.851562 148.981523 
L 150.486328 146.746172 
L 151.03125 146.36165 
L 152.666016 146.028398 
L 154.300781 146.22835 
L 154.845703 146.064287 
L 155.390625 146.305254 
L 155.935547 146.24373 
L 156.480469 146.64876 
L 157.570312 147.161455 
L 158.115234 147.663896 
L 159.75 149.940264 
L 160.294922 151.12459 
L 160.839844 151.719316 
L 161.384766 152.688311 
L 161.929688 153.216387 
L 162.474609 154.180254 
L 163.019531 154.52376 
L 163.564453 155.06209 
L 164.109375 155.092852 
L 164.654297 155.426104 
L 165.199219 155.092852 
L 165.744141 155.000566 
L 166.289062 154.733965 
L 167.923828 154.785234 
L 168.46875 155.210771 
L 169.558594 156.44124 
L 171.193359 158.861162 
L 173.373047 162.921709 
L 173.917969 163.998369 
L 176.097656 169.068926 
L 177.1875 171.329912 
L 178.277344 173.108965 
L 179.367188 174.144609 
L 179.912109 174.800859 
L 180.457031 175.23665 
L 181.001953 175.508379 
L 181.546875 176.318437 
L 182.091797 176.523516 
L 182.636719 176.928545 
L 183.181641 177.554033 
L 183.726562 177.969316 
L 185.361328 178.666582 
L 185.90625 178.435869 
L 186.451172 178.420488 
L 186.996094 177.784746 
L 187.541016 177.61043 
L 189.720703 172.252764 
L 193.535156 159.717363 
L 194.080078 157.610186 
L 194.625 156.128496 
L 195.169922 153.857256 
L 196.804688 149.130205 
L 198.439453 146.002764 
L 198.984375 145.551592 
L 199.529297 145.715654 
L 200.074219 145.505449 
L 201.164062 146.494951 
L 202.253906 148.453447 
L 204.433594 153.800859 
L 206.068359 156.482256 
L 206.613281 157.138506 
L 207.703125 157.630693 
L 208.248047 157.615312 
L 208.792969 157.810137 
L 209.337891 157.358965 
L 209.882812 157.405107 
L 211.517578 155.882402 
L 212.0625 154.990312 
L 212.607422 154.431475 
L 213.697266 152.708818 
L 214.242188 151.750078 
L 215.876953 149.822344 
L 216.421875 149.62752 
L 216.966797 149.57625 
L 217.511719 149.386553 
L 219.146484 150.196611 
L 219.691406 150.868242 
L 220.78125 152.708818 
L 224.595703 163.229326 
L 225.140625 165.146807 
L 225.685547 166.459307 
L 226.230469 168.156328 
L 227.320312 170.514727 
L 228.955078 172.442461 
L 229.5 172.744951 
L 230.044922 172.816729 
L 231.679688 171.483721 
L 232.224609 170.62752 
L 232.769531 170.053301 
L 234.949219 165.126299 
L 236.039062 161.701494 
L 237.128906 157.92293 
L 238.763672 152.288408 
L 240.398438 148.304766 
L 241.488281 146.905107 
L 242.033203 146.238604 
L 242.578125 145.372148 
L 243.123047 145.413164 
L 243.667969 144.93123 
L 244.212891 144.987627 
L 244.757812 144.644121 
L 245.302734 144.439043 
L 247.482422 144.341631 
L 248.027344 144.387773 
L 248.572266 144.972246 
L 249.662109 145.633623 
L 250.751953 147.438311 
L 252.386719 150.340166 
L 252.931641 151.457842 
L 254.566406 153.088213 
L 255.111328 152.980547 
L 255.65625 153.452227 
L 256.201172 153.139482 
L 257.291016 153.662432 
L 258.380859 154.005937 
L 258.925781 154.226396 
L 260.560547 155.420977 
L 262.195312 157.087236 
L 263.830078 159.881426 
L 264.375 160.942705 
L 265.464844 163.3575 
L 266.554688 165.874834 
L 267.644531 168.151201 
L 268.189453 169.335527 
L 270.914062 173.693437 
L 271.458984 174.493242 
L 272.548828 175.518633 
L 273.09375 176.54915 
L 274.183594 177.841143 
L 274.728516 178.958818 
L 275.273438 179.363848 
L 275.818359 180.061113 
L 276.363281 180.502031 
L 276.908203 180.650713 
L 277.453125 180.645586 
L 277.998047 180.512285 
L 278.542969 180.138018 
L 279.087891 179.471514 
L 280.177734 177.666826 
L 280.722656 176.554277 
L 282.902344 170.745439 
L 283.992188 166.802812 
L 287.806641 153.318926 
L 288.896484 149.883867 
L 289.986328 147.581865 
L 290.53125 146.889727 
L 291.621094 146.592363 
L 292.166016 146.982012 
L 293.255859 148.489336 
L 293.800781 149.69417 
L 294.345703 150.606768 
L 295.435547 152.913896 
L 295.980469 153.713701 
L 296.525391 154.933916 
L 297.070312 155.754229 
L 297.615234 156.795 
L 298.160156 157.138506 
L 298.705078 158.1075 
L 299.794922 159.18416 
L 300.339844 159.502031 
L 301.429688 159.399492 
L 301.974609 159.020098 
L 302.519531 158.871416 
L 303.609375 157.589678 
L 306.333984 153.626543 
L 306.878906 153.288164 
L 307.423828 152.355059 
L 308.513672 151.355303 
L 309.058594 151.109209 
L 309.603516 151.252764 
L 310.148438 151.263018 
L 311.238281 151.698809 
L 312.328125 153.400957 
L 313.417969 155.692705 
L 315.597656 162.183428 
L 317.232422 167.541094 
L 318.322266 170.52498 
L 319.412109 172.760332 
L 320.501953 174.380449 
L 321.591797 175.47249 
L 322.136719 175.857012 
L 322.681641 175.626299 
L 323.226562 175.800615 
L 324.316406 174.805986 
L 324.861328 174.15999 
L 326.496094 170.330156 
L 328.130859 165.054521 
L 330.310547 157.651201 
L 331.400391 154.672441 
L 333.035156 151.796221 
L 333.580078 151.273271 
L 334.125 150.504229 
L 337.394531 147.638262 
L 338.484375 146.940996 
L 339.029297 147.058916 
L 339.574219 147.048662 
L 340.119141 147.966387 
L 340.664062 148.397051 
L 341.753906 150.11458 
L 343.388672 152.749834 
L 344.478516 154.016191 
L 345.023438 154.918535 
L 346.113281 155.856768 
L 347.203125 156.389971 
L 348.837891 157.107744 
L 349.382812 157.241045 
L 349.927734 157.620439 
L 350.472656 157.856279 
L 351.017578 157.68709 
L 351.5625 158.163896 
L 352.107422 158.456133 
L 353.197266 159.609697 
L 353.742188 160.388994 
L 354.287109 160.78377 
L 355.921875 164.0804 
L 357.556641 168.356279 
L 358.646484 170.755693 
L 360.28125 173.662676 
L 360.826172 174.242021 
L 362.460938 176.877275 
L 363.005859 177.666826 
L 364.095703 179.568926 
L 364.640625 180.378984 
L 365.185547 181.527422 
L 366.820312 183.988359 
L 368.455078 185.172686 
L 369 185.459795 
L 370.089844 185.01375 
L 371.179688 184.152422 
L 372.814453 181.31209 
L 373.359375 180.097002 
L 376.083984 171.996416 
L 377.71875 165.859453 
L 378.808594 161.373369 
L 379.898438 157.276934 
L 380.443359 155.53377 
L 381.533203 153.252275 
L 382.078125 152.62166 
L 382.623047 152.426836 
L 383.712891 152.334551 
L 384.257812 153.057451 
L 384.802734 153.51375 
L 385.347656 154.636553 
L 385.892578 155.390215 
L 386.4375 156.338701 
L 388.072266 159.830156 
L 389.162109 161.819414 
L 389.707031 162.860186 
L 390.251953 163.47542 
L 390.796875 164.336748 
L 391.341797 164.957109 
L 391.886719 165.305742 
L 392.431641 165.285234 
L 392.976562 165.556963 
L 394.066406 165.105791 
L 394.611328 164.664873 
L 395.15625 164.008623 
L 395.701172 163.531816 
L 396.246094 162.542314 
L 396.791016 161.911699 
L 397.335938 160.958086 
L 397.880859 160.424883 
L 398.425781 159.681475 
L 398.970703 159.153398 
L 399.515625 158.425371 
L 401.150391 157.405107 
L 401.695312 157.338457 
L 402.240234 157.405107 
L 402.785156 157.620439 
L 403.875 159.076494 
L 404.419922 160.245439 
L 406.054688 165.059648 
L 409.869141 176.226152 
L 410.414062 177.343828 
L 411.503906 179.984209 
L 412.048828 180.95833 
L 413.683594 182.942461 
L 414.773438 183.234697 
L 415.318359 183.09627 
L 416.408203 181.896562 
L 416.953125 181.107012 
L 417.498047 179.973955 
L 418.587891 176.964434 
L 421.3125 167.674395 
L 423.492188 162.403887 
L 425.126953 159.384111 
L 426.761719 156.461748 
L 428.941406 153.990557 
L 429.486328 153.703447 
L 430.03125 153.811113 
L 430.576172 153.713701 
L 431.121094 154.10335 
L 431.666016 154.687822 
L 432.210938 154.939043 
L 432.755859 155.400469 
L 433.845703 157.082109 
L 434.390625 157.733232 
L 434.935547 158.558672 
L 435.480469 158.989336 
L 437.115234 160.640215 
L 438.205078 161.578447 
L 438.75 161.727129 
L 439.294922 162.106523 
L 439.839844 162.168047 
L 440.384766 162.496172 
L 442.564453 162.721758 
L 443.654297 163.465166 
L 444.199219 163.931719 
L 445.289062 165.505693 
L 445.833984 166.238848 
L 447.46875 169.663652 
L 450.193359 175.231523 
L 451.283203 176.810625 
L 451.828125 178.061602 
L 452.373047 178.830645 
L 455.097656 183.629473 
L 455.642578 185.162432 
L 456.1875 185.813555 
L 456.732422 187.115801 
L 457.822266 188.797441 
L 458.367188 189.874102 
L 458.912109 190.699541 
L 459.457031 191.248125 
L 460.001953 191.560869 
L 460.546875 192.104326 
L 461.091797 191.806963 
L 461.636719 192.006914 
L 462.726562 191.22249 
L 464.361328 189.515215 
L 464.90625 188.853838 
L 466.541016 184.336992 
L 467.085938 182.727129 
L 468.720703 176.051836 
L 470.355469 169.268877 
L 471.445312 165.228838 
L 472.535156 162.152666 
L 473.080078 160.942705 
L 473.625 160.035234 
L 474.169922 159.394365 
L 474.714844 158.943193 
L 475.804688 158.989336 
L 476.349609 159.322588 
L 476.894531 160.148027 
L 477.439453 160.753008 
L 477.984375 161.609209 
L 479.074219 163.818926 
L 479.619141 164.685381 
L 481.253906 167.869219 
L 482.34375 169.643145 
L 483.978516 170.976152 
L 484.523438 170.976152 
L 485.068359 170.853105 
L 485.613281 170.607012 
L 486.158203 170.053301 
L 486.703125 169.858477 
L 487.248047 169.202227 
L 487.792969 168.822832 
L 489.972656 165.515947 
L 491.0625 164.095781 
L 492.152344 162.783281 
L 493.242188 162.58333 
L 493.787109 162.706377 
L 494.332031 163.295977 
L 494.876953 163.618975 
L 495.421875 164.567461 
L 496.511719 166.807939 
L 497.056641 167.889727 
L 499.236328 173.960039 
L 501.960938 181.347979 
L 504.685547 187.869463 
L 506.320312 190.186846 
L 506.865234 190.089434 
L 507.410156 189.715166 
L 508.5 188.428301 
L 510.134766 184.265215 
L 512.859375 176.723467 
L 513.404297 175.108477 
L 513.949219 173.965166 
L 515.583984 169.766191 
L 516.673828 167.566729 
L 517.21875 166.090166 
L 517.763672 165.167314 
L 518.853516 162.931963 
L 519.943359 161.158037 
L 521.033203 160.388994 
L 521.578125 160.281328 
L 522.123047 160.363359 
L 523.757812 161.240068 
L 527.572266 165.264727 
L 529.207031 167.202715 
L 530.296875 167.935869 
L 530.841797 168.084551 
L 531.386719 168.356279 
L 533.021484 168.617754 
L 533.566406 168.956133 
L 534.111328 169.099687 
L 534.65625 169.376543 
L 535.201172 169.786699 
L 536.291016 171.073564 
L 537.925781 173.442217 
L 538.470703 174.375322 
L 540.105469 177.733477 
L 541.195312 179.476641 
L 541.740234 180.799395 
L 542.285156 181.368486 
L 542.830078 182.347734 
L 543.375 183.070635 
L 545.009766 185.752031 
L 546.644531 189.520342 
L 547.189453 190.489336 
L 547.734375 192.001787 
L 548.279297 192.842607 
L 548.824219 193.985918 
L 549.914062 195.652178 
L 552.09375 197.71834 
L 553.183594 197.990068 
L 553.728516 198.174639 
L 554.273438 198.2054 
L 554.818359 197.974687 
L 555.363281 197.24666 
L 555.908203 196.8929 
L 556.998047 194.970293 
L 558.087891 191.971025 
L 559.177734 187.787432 
L 560.267578 183.352617 
L 561.902344 175.969805 
L 562.992188 171.499102 
L 563.537109 170.063555 
L 564.626953 166.659258 
L 565.171875 165.485186 
L 566.806641 163.316484 
L 567.896484 163.152422 
L 568.441406 163.649736 
L 568.986328 163.854814 
L 571.166016 167.453936 
L 571.710938 168.6075 
L 572.255859 169.494463 
L 572.800781 170.617266 
L 573.345703 171.35042 
L 573.890625 171.842607 
L 574.435547 172.580889 
L 574.980469 172.950029 
L 575.525391 173.483232 
L 576.070312 173.703691 
L 577.160156 173.867754 
L 578.25 173.160234 
L 580.429688 169.950762 
L 582.609375 165.956865 
L 583.154297 165.439043 
L 583.699219 164.654619 
L 584.244141 164.24959 
L 584.789062 163.685625 
L 585.333984 163.685625 
L 585.878906 164.018877 
L 586.423828 164.188066 
L 587.513672 165.772295 
L 588.603516 167.797441 
L 589.148438 169.156084 
L 590.238281 171.401689 
L 591.328125 173.729326 
L 592.417969 176.544023 
L 594.052734 181.219805 
L 594.597656 183.080889 
L 595.142578 184.3575 
L 595.6875 185.951982 
L 596.232422 187.126055 
L 597.322266 188.705156 
L 597.867188 188.997393 
L 598.412109 189.074297 
L 599.501953 188.428301 
L 600.046875 187.643877 
L 601.681641 184.203691 
L 606.585938 171.186357 
L 608.765625 164.767412 
L 610.945312 160.276201 
L 612.035156 158.615068 
L 613.125 157.902422 
L 613.669922 157.897295 
L 614.214844 158.030596 
L 614.759766 157.794756 
L 615.849609 158.358721 
L 616.394531 159.107256 
L 616.939453 159.348223 
L 617.484375 159.907061 
L 618.029297 160.727373 
L 619.119141 161.481035 
L 619.664062 162.168047 
L 620.208984 162.209062 
L 620.753906 162.706377 
L 622.388672 163.203691 
L 622.933594 163.618975 
L 624.023438 163.716387 
L 624.568359 163.900957 
L 625.113281 163.96248 
L 626.748047 164.910967 
L 627.837891 166.074785 
L 628.382812 167.24373 
L 631.652344 172.673174 
L 632.197266 173.221758 
L 632.742188 174.144609 
L 633.832031 175.585283 
L 634.376953 176.385088 
L 636.556641 180.778887 
L 639.826172 187.900225 
L 642.005859 191.45833 
L 644.185547 193.975664 
L 644.730469 194.314043 
L 645.275391 195.129229 
L 645.820312 195.016436 
L 646.365234 195.252275 
L 647.455078 194.67293 
L 647.455078 194.67293 
" style="fill:none;stroke:#4c72b0;stroke-linecap:round;stroke-width:1.75;"/>
   </g>
   <g id="patch_3">
    <path d="M 90 270.72 
L 90 69.12 
" style="fill:none;stroke:#262626;stroke-linecap:square;stroke-linejoin:miter;stroke-width:1.25;"/>
   </g>
   <g id="patch_4">
    <path d="M 90 270.72 
L 648 270.72 
" style="fill:none;stroke:#262626;stroke-linecap:square;stroke-linejoin:miter;stroke-width:1.25;"/>
   </g>
  </g>
  <g id="axes_2">
   <g id="patch_5">
    <path d="M 90 512.64 
L 648 512.64 
L 648 311.04 
L 90 311.04 
z
" style="fill:#ffffff;"/>
   </g>
   <g id="matplotlib.axis_3">
    <g id="xtick_7">
     <g id="line2d_15">
      <g>
       <use style="fill:#262626;stroke:#262626;" x="218.197478" xlink:href="#m60078793b2" y="512.64"/>
      </g>
     </g>
     <g id="text_14">
      <!-- $\mathdefault{10^{2}}$ -->
      <g style="fill:#262626;" transform="translate(210.347478 535.9525)scale(0.1 -0.1)">
       <use transform="translate(0 0.99375)" xlink:href="#ArialMT-31"/>
       <use transform="translate(55.615234 0.99375)" xlink:href="#ArialMT-30"/>
       <use transform="translate(112.972813 70.6875)scale(0.7)" xlink:href="#ArialMT-32"/>
      </g>
     </g>
    </g>
    <g id="xtick_8">
     <g id="line2d_16">
      <g>
       <use style="fill:#262626;stroke:#262626;" x="401.606604" xlink:href="#m60078793b2" y="512.64"/>
      </g>
     </g>
     <g id="text_15">
      <!-- $\mathdefault{10^{3}}$ -->
      <defs>
       <path d="M 4.203125 18.890625 
L 12.984375 20.0625 
Q 14.5 12.59375 18.140625 9.296875 
Q 21.78125 6 27 6 
Q 33.203125 6 37.46875 10.296875 
Q 41.75 14.59375 41.75 20.953125 
Q 41.75 27 37.796875 30.921875 
Q 33.84375 34.859375 27.734375 34.859375 
Q 25.25 34.859375 21.53125 33.890625 
L 22.515625 41.609375 
Q 23.390625 41.5 23.921875 41.5 
Q 29.546875 41.5 34.03125 44.421875 
Q 38.53125 47.359375 38.53125 53.46875 
Q 38.53125 58.296875 35.25 61.46875 
Q 31.984375 64.65625 26.8125 64.65625 
Q 21.6875 64.65625 18.265625 61.421875 
Q 14.84375 58.203125 13.875 51.765625 
L 5.078125 53.328125 
Q 6.6875 62.15625 12.390625 67.015625 
Q 18.109375 71.875 26.609375 71.875 
Q 32.46875 71.875 37.390625 69.359375 
Q 42.328125 66.84375 44.9375 62.5 
Q 47.5625 58.15625 47.5625 53.265625 
Q 47.5625 48.640625 45.0625 44.828125 
Q 42.578125 41.015625 37.703125 38.765625 
Q 44.046875 37.3125 47.5625 32.6875 
Q 51.078125 28.078125 51.078125 21.140625 
Q 51.078125 11.765625 44.234375 5.25 
Q 37.40625 -1.265625 26.953125 -1.265625 
Q 17.53125 -1.265625 11.296875 4.34375 
Q 5.078125 9.96875 4.203125 18.890625 
z
" id="ArialMT-33"/>
      </defs>
      <g style="fill:#262626;" transform="translate(393.756604 535.9525)scale(0.1 -0.1)">
       <use transform="translate(0 0.99375)" xlink:href="#ArialMT-31"/>
       <use transform="translate(55.615234 0.99375)" xlink:href="#ArialMT-30"/>
       <use transform="translate(112.972813 70.6875)scale(0.7)" xlink:href="#ArialMT-33"/>
      </g>
     </g>
    </g>
    <g id="xtick_9">
     <g id="line2d_17">
      <g>
       <use style="fill:#262626;stroke:#262626;" x="585.01573" xlink:href="#m60078793b2" y="512.64"/>
      </g>
     </g>
     <g id="text_16">
      <!-- $\mathdefault{10^{4}}$ -->
      <g style="fill:#262626;" transform="translate(577.16573 535.8525)scale(0.1 -0.1)">
       <use transform="translate(0 0.201563)" xlink:href="#ArialMT-31"/>
       <use transform="translate(55.615234 0.201563)" xlink:href="#ArialMT-30"/>
       <use transform="translate(112.972813 69.895313)scale(0.7)" xlink:href="#ArialMT-34"/>
      </g>
     </g>
    </g>
    <g id="xtick_10">
     <g id="line2d_18">
      <defs>
       <path d="M 0 0 
L 0 3 
" id="m0afd509b1a" style="stroke:#262626;stroke-width:0.5;"/>
      </defs>
      <g>
       <use style="fill:#262626;stroke:#262626;stroke-width:0.5;" x="90" xlink:href="#m0afd509b1a" y="512.64"/>
      </g>
     </g>
    </g>
    <g id="xtick_11">
     <g id="line2d_19">
      <g>
       <use style="fill:#262626;stroke:#262626;stroke-width:0.5;" x="122.296744" xlink:href="#m0afd509b1a" y="512.64"/>
      </g>
     </g>
    </g>
    <g id="xtick_12">
     <g id="line2d_20">
      <g>
       <use style="fill:#262626;stroke:#262626;stroke-width:0.5;" x="145.211648" xlink:href="#m0afd509b1a" y="512.64"/>
      </g>
     </g>
    </g>
    <g id="xtick_13">
     <g id="line2d_21">
      <g>
       <use style="fill:#262626;stroke:#262626;stroke-width:0.5;" x="162.985829" xlink:href="#m0afd509b1a" y="512.64"/>
      </g>
     </g>
    </g>
    <g id="xtick_14">
     <g id="line2d_22">
      <g>
       <use style="fill:#262626;stroke:#262626;stroke-width:0.5;" x="177.508392" xlink:href="#m0afd509b1a" y="512.64"/>
      </g>
     </g>
    </g>
    <g id="xtick_15">
     <g id="line2d_23">
      <g>
       <use style="fill:#262626;stroke:#262626;stroke-width:0.5;" x="189.787045" xlink:href="#m0afd509b1a" y="512.64"/>
      </g>
     </g>
    </g>
    <g id="xtick_16">
     <g id="line2d_24">
      <g>
       <use style="fill:#262626;stroke:#262626;stroke-width:0.5;" x="200.423297" xlink:href="#m0afd509b1a" y="512.64"/>
      </g>
     </g>
    </g>
    <g id="xtick_17">
     <g id="line2d_25">
      <g>
       <use style="fill:#262626;stroke:#262626;stroke-width:0.5;" x="209.805136" xlink:href="#m0afd509b1a" y="512.64"/>
      </g>
     </g>
    </g>
    <g id="xtick_18">
     <g id="line2d_26">
      <g>
       <use style="fill:#262626;stroke:#262626;stroke-width:0.5;" x="273.409126" xlink:href="#m0afd509b1a" y="512.64"/>
      </g>
     </g>
    </g>
    <g id="xtick_19">
     <g id="line2d_27">
      <g>
       <use style="fill:#262626;stroke:#262626;stroke-width:0.5;" x="305.70587" xlink:href="#m0afd509b1a" y="512.64"/>
      </g>
     </g>
    </g>
    <g id="xtick_20">
     <g id="line2d_28">
      <g>
       <use style="fill:#262626;stroke:#262626;stroke-width:0.5;" x="328.620775" xlink:href="#m0afd509b1a" y="512.64"/>
      </g>
     </g>
    </g>
    <g id="xtick_21">
     <g id="line2d_29">
      <g>
       <use style="fill:#262626;stroke:#262626;stroke-width:0.5;" x="346.394955" xlink:href="#m0afd509b1a" y="512.64"/>
      </g>
     </g>
    </g>
    <g id="xtick_22">
     <g id="line2d_30">
      <g>
       <use style="fill:#262626;stroke:#262626;stroke-width:0.5;" x="360.917518" xlink:href="#m0afd509b1a" y="512.64"/>
      </g>
     </g>
    </g>
    <g id="xtick_23">
     <g id="line2d_31">
      <g>
       <use style="fill:#262626;stroke:#262626;stroke-width:0.5;" x="373.196171" xlink:href="#m0afd509b1a" y="512.64"/>
      </g>
     </g>
    </g>
    <g id="xtick_24">
     <g id="line2d_32">
      <g>
       <use style="fill:#262626;stroke:#262626;stroke-width:0.5;" x="383.832423" xlink:href="#m0afd509b1a" y="512.64"/>
      </g>
     </g>
    </g>
    <g id="xtick_25">
     <g id="line2d_33">
      <g>
       <use style="fill:#262626;stroke:#262626;stroke-width:0.5;" x="393.214262" xlink:href="#m0afd509b1a" y="512.64"/>
      </g>
     </g>
    </g>
    <g id="xtick_26">
     <g id="line2d_34">
      <g>
       <use style="fill:#262626;stroke:#262626;stroke-width:0.5;" x="456.818252" xlink:href="#m0afd509b1a" y="512.64"/>
      </g>
     </g>
    </g>
    <g id="xtick_27">
     <g id="line2d_35">
      <g>
       <use style="fill:#262626;stroke:#262626;stroke-width:0.5;" x="489.114996" xlink:href="#m0afd509b1a" y="512.64"/>
      </g>
     </g>
    </g>
    <g id="xtick_28">
     <g id="line2d_36">
      <g>
       <use style="fill:#262626;stroke:#262626;stroke-width:0.5;" x="512.029901" xlink:href="#m0afd509b1a" y="512.64"/>
      </g>
     </g>
    </g>
    <g id="xtick_29">
     <g id="line2d_37">
      <g>
       <use style="fill:#262626;stroke:#262626;stroke-width:0.5;" x="529.804081" xlink:href="#m0afd509b1a" y="512.64"/>
      </g>
     </g>
    </g>
    <g id="xtick_30">
     <g id="line2d_38">
      <g>
       <use style="fill:#262626;stroke:#262626;stroke-width:0.5;" x="544.326645" xlink:href="#m0afd509b1a" y="512.64"/>
      </g>
     </g>
    </g>
    <g id="xtick_31">
     <g id="line2d_39">
      <g>
       <use style="fill:#262626;stroke:#262626;stroke-width:0.5;" x="556.605297" xlink:href="#m0afd509b1a" y="512.64"/>
      </g>
     </g>
    </g>
    <g id="xtick_32">
     <g id="line2d_40">
      <g>
       <use style="fill:#262626;stroke:#262626;stroke-width:0.5;" x="567.241549" xlink:href="#m0afd509b1a" y="512.64"/>
      </g>
     </g>
    </g>
    <g id="xtick_33">
     <g id="line2d_41">
      <g>
       <use style="fill:#262626;stroke:#262626;stroke-width:0.5;" x="576.623389" xlink:href="#m0afd509b1a" y="512.64"/>
      </g>
     </g>
    </g>
    <g id="xtick_34">
     <g id="line2d_42">
      <g>
       <use style="fill:#262626;stroke:#262626;stroke-width:0.5;" x="640.227378" xlink:href="#m0afd509b1a" y="512.64"/>
      </g>
     </g>
    </g>
   </g>
   <g id="matplotlib.axis_4">
    <g id="ytick_8">
     <g id="line2d_43">
      <g>
       <use style="fill:#262626;stroke:#262626;" x="90" xlink:href="#ma21a125973" y="512.64"/>
      </g>
     </g>
     <g id="text_17">
      <!-- $\mathdefault{10^{-5}}$ -->
      <defs>
       <path d="M 4.15625 18.75 
L 13.375 19.53125 
Q 14.40625 12.796875 18.140625 9.390625 
Q 21.875 6 27.15625 6 
Q 33.5 6 37.890625 10.78125 
Q 42.28125 15.578125 42.28125 23.484375 
Q 42.28125 31 38.0625 35.34375 
Q 33.84375 39.703125 27 39.703125 
Q 22.75 39.703125 19.328125 37.765625 
Q 15.921875 35.84375 13.96875 32.765625 
L 5.71875 33.84375 
L 12.640625 70.609375 
L 48.25 70.609375 
L 48.25 62.203125 
L 19.671875 62.203125 
L 15.828125 42.96875 
Q 22.265625 47.46875 29.34375 47.46875 
Q 38.71875 47.46875 45.15625 40.96875 
Q 51.609375 34.46875 51.609375 24.265625 
Q 51.609375 14.546875 45.953125 7.46875 
Q 39.0625 -1.21875 27.15625 -1.21875 
Q 17.390625 -1.21875 11.203125 4.25 
Q 5.03125 9.71875 4.15625 18.75 
z
" id="ArialMT-35"/>
      </defs>
      <g style="fill:#262626;" transform="translate(57.2 517.74625)scale(0.1 -0.1)">
       <use transform="translate(0 0.879688)" xlink:href="#ArialMT-31"/>
       <use transform="translate(55.615234 0.879688)" xlink:href="#ArialMT-30"/>
       <use transform="translate(112.972813 70.573438)scale(0.7)" xlink:href="#ArialMT-2212"/>
       <use transform="translate(153.851719 70.573438)scale(0.7)" xlink:href="#ArialMT-35"/>
      </g>
     </g>
    </g>
    <g id="ytick_9">
     <g id="line2d_44">
      <g>
       <use style="fill:#262626;stroke:#262626;" x="90" xlink:href="#ma21a125973" y="465.767507"/>
      </g>
     </g>
     <g id="text_18">
      <!-- $\mathdefault{10^{-4}}$ -->
      <g style="fill:#262626;" transform="translate(57.2 470.873757)scale(0.1 -0.1)">
       <use transform="translate(0 0.201563)" xlink:href="#ArialMT-31"/>
       <use transform="translate(55.615234 0.201563)" xlink:href="#ArialMT-30"/>
       <use transform="translate(112.972813 69.895313)scale(0.7)" xlink:href="#ArialMT-2212"/>
       <use transform="translate(153.851719 69.895313)scale(0.7)" xlink:href="#ArialMT-34"/>
      </g>
     </g>
    </g>
    <g id="ytick_10">
     <g id="line2d_45">
      <g>
       <use style="fill:#262626;stroke:#262626;" x="90" xlink:href="#ma21a125973" y="418.895013"/>
      </g>
     </g>
     <g id="text_19">
      <!-- $\mathdefault{10^{-3}}$ -->
      <g style="fill:#262626;" transform="translate(57.2 424.051263)scale(0.1 -0.1)">
       <use transform="translate(0 0.99375)" xlink:href="#ArialMT-31"/>
       <use transform="translate(55.615234 0.99375)" xlink:href="#ArialMT-30"/>
       <use transform="translate(112.972813 70.6875)scale(0.7)" xlink:href="#ArialMT-2212"/>
       <use transform="translate(153.851719 70.6875)scale(0.7)" xlink:href="#ArialMT-33"/>
      </g>
     </g>
    </g>
    <g id="ytick_11">
     <g id="line2d_46">
      <g>
       <use style="fill:#262626;stroke:#262626;" x="90" xlink:href="#ma21a125973" y="372.02252"/>
      </g>
     </g>
     <g id="text_20">
      <!-- $\mathdefault{10^{-2}}$ -->
      <g style="fill:#262626;" transform="translate(57.2 377.17877)scale(0.1 -0.1)">
       <use transform="translate(0 0.99375)" xlink:href="#ArialMT-31"/>
       <use transform="translate(55.615234 0.99375)" xlink:href="#ArialMT-30"/>
       <use transform="translate(112.972813 70.6875)scale(0.7)" xlink:href="#ArialMT-2212"/>
       <use transform="translate(153.851719 70.6875)scale(0.7)" xlink:href="#ArialMT-32"/>
      </g>
     </g>
    </g>
    <g id="ytick_12">
     <g id="line2d_47">
      <g>
       <use style="fill:#262626;stroke:#262626;" x="90" xlink:href="#ma21a125973" y="325.150026"/>
      </g>
     </g>
     <g id="text_21">
      <!-- $\mathdefault{10^{-1}}$ -->
      <g style="fill:#262626;" transform="translate(57.2 330.306276)scale(0.1 -0.1)">
       <use transform="translate(0 0.99375)" xlink:href="#ArialMT-31"/>
       <use transform="translate(55.615234 0.99375)" xlink:href="#ArialMT-30"/>
       <use transform="translate(112.972813 70.6875)scale(0.7)" xlink:href="#ArialMT-2212"/>
       <use transform="translate(153.851719 70.6875)scale(0.7)" xlink:href="#ArialMT-31"/>
      </g>
     </g>
    </g>
    <g id="ytick_13">
     <g id="line2d_48">
      <defs>
       <path d="M 0 0 
L -3 0 
" id="mcaed0ad71a" style="stroke:#262626;stroke-width:0.5;"/>
      </defs>
      <g>
       <use style="fill:#262626;stroke:#262626;stroke-width:0.5;" x="90" xlink:href="#mcaed0ad71a" y="498.529974"/>
      </g>
     </g>
    </g>
    <g id="ytick_14">
     <g id="line2d_49">
      <g>
       <use style="fill:#262626;stroke:#262626;stroke-width:0.5;" x="90" xlink:href="#mcaed0ad71a" y="490.276137"/>
      </g>
     </g>
    </g>
    <g id="ytick_15">
     <g id="line2d_50">
      <g>
       <use style="fill:#262626;stroke:#262626;stroke-width:0.5;" x="90" xlink:href="#mcaed0ad71a" y="484.419947"/>
      </g>
     </g>
    </g>
    <g id="ytick_16">
     <g id="line2d_51">
      <g>
       <use style="fill:#262626;stroke:#262626;stroke-width:0.5;" x="90" xlink:href="#mcaed0ad71a" y="479.877533"/>
      </g>
     </g>
    </g>
    <g id="ytick_17">
     <g id="line2d_52">
      <g>
       <use style="fill:#262626;stroke:#262626;stroke-width:0.5;" x="90" xlink:href="#mcaed0ad71a" y="476.166111"/>
      </g>
     </g>
    </g>
    <g id="ytick_18">
     <g id="line2d_53">
      <g>
       <use style="fill:#262626;stroke:#262626;stroke-width:0.5;" x="90" xlink:href="#mcaed0ad71a" y="473.028148"/>
      </g>
     </g>
    </g>
    <g id="ytick_19">
     <g id="line2d_54">
      <g>
       <use style="fill:#262626;stroke:#262626;stroke-width:0.5;" x="90" xlink:href="#mcaed0ad71a" y="470.309921"/>
      </g>
     </g>
    </g>
    <g id="ytick_20">
     <g id="line2d_55">
      <g>
       <use style="fill:#262626;stroke:#262626;stroke-width:0.5;" x="90" xlink:href="#mcaed0ad71a" y="467.912274"/>
      </g>
     </g>
    </g>
    <g id="ytick_21">
     <g id="line2d_56">
      <g>
       <use style="fill:#262626;stroke:#262626;stroke-width:0.5;" x="90" xlink:href="#mcaed0ad71a" y="451.65748"/>
      </g>
     </g>
    </g>
    <g id="ytick_22">
     <g id="line2d_57">
      <g>
       <use style="fill:#262626;stroke:#262626;stroke-width:0.5;" x="90" xlink:href="#mcaed0ad71a" y="443.403644"/>
      </g>
     </g>
    </g>
    <g id="ytick_23">
     <g id="line2d_58">
      <g>
       <use style="fill:#262626;stroke:#262626;stroke-width:0.5;" x="90" xlink:href="#mcaed0ad71a" y="437.547454"/>
      </g>
     </g>
    </g>
    <g id="ytick_24">
     <g id="line2d_59">
      <g>
       <use style="fill:#262626;stroke:#262626;stroke-width:0.5;" x="90" xlink:href="#mcaed0ad71a" y="433.00504"/>
      </g>
     </g>
    </g>
    <g id="ytick_25">
     <g id="line2d_60">
      <g>
       <use style="fill:#262626;stroke:#262626;stroke-width:0.5;" x="90" xlink:href="#mcaed0ad71a" y="429.293617"/>
      </g>
     </g>
    </g>
    <g id="ytick_26">
     <g id="line2d_61">
      <g>
       <use style="fill:#262626;stroke:#262626;stroke-width:0.5;" x="90" xlink:href="#mcaed0ad71a" y="426.155654"/>
      </g>
     </g>
    </g>
    <g id="ytick_27">
     <g id="line2d_62">
      <g>
       <use style="fill:#262626;stroke:#262626;stroke-width:0.5;" x="90" xlink:href="#mcaed0ad71a" y="423.437427"/>
      </g>
     </g>
    </g>
    <g id="ytick_28">
     <g id="line2d_63">
      <g>
       <use style="fill:#262626;stroke:#262626;stroke-width:0.5;" x="90" xlink:href="#mcaed0ad71a" y="421.039781"/>
      </g>
     </g>
    </g>
    <g id="ytick_29">
     <g id="line2d_64">
      <g>
       <use style="fill:#262626;stroke:#262626;stroke-width:0.5;" x="90" xlink:href="#mcaed0ad71a" y="404.784987"/>
      </g>
     </g>
    </g>
    <g id="ytick_30">
     <g id="line2d_65">
      <g>
       <use style="fill:#262626;stroke:#262626;stroke-width:0.5;" x="90" xlink:href="#mcaed0ad71a" y="396.53115"/>
      </g>
     </g>
    </g>
    <g id="ytick_31">
     <g id="line2d_66">
      <g>
       <use style="fill:#262626;stroke:#262626;stroke-width:0.5;" x="90" xlink:href="#mcaed0ad71a" y="390.67496"/>
      </g>
     </g>
    </g>
    <g id="ytick_32">
     <g id="line2d_67">
      <g>
       <use style="fill:#262626;stroke:#262626;stroke-width:0.5;" x="90" xlink:href="#mcaed0ad71a" y="386.132546"/>
      </g>
     </g>
    </g>
    <g id="ytick_33">
     <g id="line2d_68">
      <g>
       <use style="fill:#262626;stroke:#262626;stroke-width:0.5;" x="90" xlink:href="#mcaed0ad71a" y="382.421124"/>
      </g>
     </g>
    </g>
    <g id="ytick_34">
     <g id="line2d_69">
      <g>
       <use style="fill:#262626;stroke:#262626;stroke-width:0.5;" x="90" xlink:href="#mcaed0ad71a" y="379.283161"/>
      </g>
     </g>
    </g>
    <g id="ytick_35">
     <g id="line2d_70">
      <g>
       <use style="fill:#262626;stroke:#262626;stroke-width:0.5;" x="90" xlink:href="#mcaed0ad71a" y="376.564934"/>
      </g>
     </g>
    </g>
    <g id="ytick_36">
     <g id="line2d_71">
      <g>
       <use style="fill:#262626;stroke:#262626;stroke-width:0.5;" x="90" xlink:href="#mcaed0ad71a" y="374.167288"/>
      </g>
     </g>
    </g>
    <g id="ytick_37">
     <g id="line2d_72">
      <g>
       <use style="fill:#262626;stroke:#262626;stroke-width:0.5;" x="90" xlink:href="#mcaed0ad71a" y="357.912493"/>
      </g>
     </g>
    </g>
    <g id="ytick_38">
     <g id="line2d_73">
      <g>
       <use style="fill:#262626;stroke:#262626;stroke-width:0.5;" x="90" xlink:href="#mcaed0ad71a" y="349.658657"/>
      </g>
     </g>
    </g>
    <g id="ytick_39">
     <g id="line2d_74">
      <g>
       <use style="fill:#262626;stroke:#262626;stroke-width:0.5;" x="90" xlink:href="#mcaed0ad71a" y="343.802467"/>
      </g>
     </g>
    </g>
    <g id="ytick_40">
     <g id="line2d_75">
      <g>
       <use style="fill:#262626;stroke:#262626;stroke-width:0.5;" x="90" xlink:href="#mcaed0ad71a" y="339.260053"/>
      </g>
     </g>
    </g>
    <g id="ytick_41">
     <g id="line2d_76">
      <g>
       <use style="fill:#262626;stroke:#262626;stroke-width:0.5;" x="90" xlink:href="#mcaed0ad71a" y="335.548631"/>
      </g>
     </g>
    </g>
    <g id="ytick_42">
     <g id="line2d_77">
      <g>
       <use style="fill:#262626;stroke:#262626;stroke-width:0.5;" x="90" xlink:href="#mcaed0ad71a" y="332.410668"/>
      </g>
     </g>
    </g>
    <g id="ytick_43">
     <g id="line2d_78">
      <g>
       <use style="fill:#262626;stroke:#262626;stroke-width:0.5;" x="90" xlink:href="#mcaed0ad71a" y="329.69244"/>
      </g>
     </g>
    </g>
    <g id="ytick_44">
     <g id="line2d_79">
      <g>
       <use style="fill:#262626;stroke:#262626;stroke-width:0.5;" x="90" xlink:href="#mcaed0ad71a" y="327.294794"/>
      </g>
     </g>
    </g>
    <g id="ytick_45">
     <g id="line2d_80">
      <g>
       <use style="fill:#262626;stroke:#262626;stroke-width:0.5;" x="90" xlink:href="#mcaed0ad71a" y="311.04"/>
      </g>
     </g>
    </g>
   </g>
   <g id="line2d_81">
    <path clip-path="url(#p87b6914aaf)" d="M -1 352.800916 
L 151.095164 352.797761 
L 206.306812 383.971213 
L 238.603556 403.000491 
L 261.518461 411.480816 
L 279.292642 397.976576 
L 293.815205 364.263174 
L 306.093857 410.541854 
L 316.730109 406.352192 
L 326.111949 404.478929 
L 334.50429 401.027091 
L 342.096086 391.656053 
L 349.026853 345.616956 
L 355.402541 392.940669 
L 361.305505 409.709428 
L 366.801034 421.381859 
L 371.941758 423.467783 
L 376.770725 421.064863 
L 381.323597 387.689873 
L 385.630245 429.318204 
L 389.715939 431.435729 
L 393.602249 418.019676 
L 397.307735 411.192361 
L 400.848476 395.729756 
L 404.238502 360.653419 
L 407.490119 381.75951 
L 410.614189 398.507861 
L 413.620341 403.282876 
L 416.517154 407.622219 
L 419.312303 406.645058 
L 422.012683 386.756687 
L 424.624509 399.189342 
L 427.153406 415.848874 
L 429.604479 422.613861 
L 431.982374 423.48317 
L 434.291335 421.148945 
L 436.535246 410.876793 
L 438.717672 409.359344 
L 440.841893 424.360376 
L 442.910933 433.77882 
L 444.927587 434.394001 
L 446.894442 433.47795 
L 448.813898 427.63729 
L 450.688186 413.155159 
L 452.519383 432.647992 
L 454.309426 433.752609 
L 456.060125 439.983675 
L 457.773171 443.274691 
L 459.45015 444.44985 
L 461.09255 421.577531 
L 462.701768 441.635837 
L 464.279118 443.666608 
L 465.825838 445.040298 
L 467.343094 448.767047 
L 468.83199 459.24363 
L 470.293564 424.345705 
L 471.728802 428.401535 
L 473.138637 435.307671 
L 474.523951 438.272253 
L 475.885584 439.163543 
L 477.224331 437.898791 
L 478.540949 434.817166 
L 479.836157 458.329637 
L 482.365055 449.455338 
L 483.600019 450.822911 
L 484.816127 454.995885 
L 486.013948 451.201173 
L 487.194022 420.482544 
L 488.356869 451.189884 
L 489.502983 448.586519 
L 490.63284 453.603744 
L 491.746894 453.605408 
L 492.845581 451.94727 
L 493.92932 452.255996 
L 494.998512 448.41518 
L 497.094779 449.531255 
L 498.122582 449.31803 
L 499.137291 448.797696 
L 500.139235 452.588235 
L 501.128734 441.45244 
L 502.10609 456.725554 
L 503.0716 456.091437 
L 504.025546 454.000429 
L 504.968203 460.715602 
L 505.899834 455.814752 
L 506.820695 454.359845 
L 508.631082 457.565008 
L 509.521075 456.528932 
L 510.401234 454.536563 
L 511.271773 460.685383 
L 512.132901 461.147196 
L 512.984819 462.182839 
L 513.827722 444.014414 
L 514.661799 452.666992 
L 515.487232 456.165064 
L 516.304198 459.116578 
L 517.112871 457.762973 
L 517.913416 452.461763 
L 518.705996 457.900133 
L 519.490766 457.557676 
L 520.26788 459.357555 
L 521.037486 458.522281 
L 521.799727 456.774201 
L 522.554743 456.713189 
L 523.302669 457.73783 
L 524.043638 455.345643 
L 524.777778 459.818895 
L 525.505212 460.973343 
L 526.226064 460.161575 
L 526.940451 459.875625 
L 527.648487 463.646913 
L 528.350285 459.906857 
L 529.045954 466.065494 
L 529.7356 460.423292 
L 530.419326 461.035178 
L 531.097232 460.584446 
L 531.769418 460.962727 
L 532.435979 460.127692 
L 533.097009 462.173374 
L 533.752597 459.26683 
L 534.402834 461.286626 
L 535.047806 462.626808 
L 535.687597 462.593436 
L 536.32229 460.000896 
L 536.951966 466.386555 
L 537.576703 465.06023 
L 538.196578 461.957117 
L 538.811667 461.422805 
L 539.422042 467.571756 
L 540.027776 466.907095 
L 540.628938 465.206265 
L 541.225596 462.998344 
L 541.817819 462.147156 
L 542.405671 471.852262 
L 542.989216 463.164512 
L 543.568517 467.769293 
L 544.143636 462.439958 
L 544.714632 468.61423 
L 545.281563 464.033243 
L 545.844488 466.200916 
L 546.958543 463.749236 
L 547.509781 469.731558 
L 548.05723 464.117068 
L 548.600942 464.072747 
L 549.140969 468.403326 
L 549.677358 470.75785 
L 550.21016 464.812373 
L 550.739422 464.823251 
L 551.26519 465.816422 
L 551.78751 467.23322 
L 552.306428 470.451107 
L 552.821987 465.160832 
L 553.33423 465.225947 
L 553.8432 467.663268 
L 554.851487 468.388954 
L 555.350884 470.778211 
L 555.847169 465.706781 
L 556.340382 465.636018 
L 556.830559 470.172707 
L 557.317739 469.895825 
L 557.801956 467.317831 
L 558.283248 465.618867 
L 558.76165 468.37417 
L 559.237195 469.551469 
L 559.709918 465.482635 
L 560.179852 473.33114 
L 560.647029 465.122798 
L 561.111483 470.567628 
L 561.573244 470.465494 
L 562.032344 472.455644 
L 562.488812 466.653826 
L 562.94268 476.196529 
L 563.393976 475.154983 
L 563.84273 475.24699 
L 564.28897 471.888152 
L 564.732723 477.306051 
L 565.174019 467.053408 
L 565.612882 467.265739 
L 566.049341 473.993455 
L 566.483422 472.213972 
L 566.91515 469.722875 
L 567.34455 469.124287 
L 567.771648 461.836558 
L 568.196468 473.420717 
L 569.039371 467.698827 
L 569.457501 486.660824 
L 569.873447 469.890167 
L 570.287233 469.086228 
L 570.69888 475.680212 
L 571.108411 478.198227 
L 571.515847 474.270878 
L 571.921209 477.221393 
L 572.32452 474.509356 
L 572.725798 470.092274 
L 573.125065 480.620826 
L 573.52234 472.467619 
L 573.917644 466.95076 
L 574.310996 479.183623 
L 574.702415 475.053844 
L 575.865261 469.292964 
L 576.249135 477.442285 
L 576.631167 471.540622 
L 577.011376 476.965468 
L 577.389778 470.348464 
L 577.766391 469.964179 
L 578.141232 472.927577 
L 578.885664 469.832417 
L 579.255287 478.951663 
L 579.623202 476.520263 
L 579.989426 468.592815 
L 580.353974 475.449631 
L 580.716861 471.450547 
L 581.078102 472.269952 
L 581.437713 465.66558 
L 581.795707 471.749522 
L 582.152099 471.458387 
L 582.506904 476.596399 
L 582.860136 470.700304 
L 583.211808 471.082139 
L 583.561934 472.972111 
L 583.910528 483.529636 
L 584.257603 471.74007 
L 584.603172 481.806232 
L 584.947248 483.262519 
L 585.289845 468.939269 
L 585.630974 473.201291 
L 585.970649 473.702093 
L 586.308881 481.886305 
L 586.981067 468.6897 
L 587.315045 470.423663 
L 587.647628 483.177458 
L 587.978828 472.241208 
L 588.308657 472.625814 
L 588.964246 482.284969 
L 589.290028 480.273835 
L 589.614483 479.710712 
L 589.937621 473.923611 
L 590.259454 472.87301 
L 590.579992 469.619894 
L 590.899246 483.714255 
L 591.217224 472.589512 
L 591.533939 474.264252 
L 591.849399 470.92267 
L 592.163614 472.300604 
L 592.476596 476.085862 
L 592.788352 474.886154 
L 593.098892 480.253151 
L 593.408227 480.110542 
L 593.716365 481.286334 
L 594.023315 477.66392 
L 594.329088 487.551381 
L 594.633691 484.769146 
L 594.937133 478.767753 
L 595.239424 476.436138 
L 595.540572 471.255358 
L 595.840586 471.318453 
L 596.139474 483.874677 
L 596.437245 474.051323 
L 596.733906 474.759145 
L 597.029467 473.043876 
L 597.617319 478.79546 
L 597.909626 474.679361 
L 598.200864 476.589594 
L 598.491042 471.795234 
L 599.068244 475.383002 
L 599.355284 479.676088 
L 599.641294 470.138118 
L 599.92628 474.766546 
L 600.493212 469.888934 
L 600.775172 477.447332 
L 601.056137 481.767921 
L 601.336115 471.238347 
L 601.615112 478.773661 
L 601.893135 474.670038 
L 602.446287 472.151178 
L 602.721429 473.534609 
L 603.268878 485.33824 
L 603.541199 476.825372 
L 603.812591 473.227781 
L 604.083062 471.637151 
L 604.352617 474.758352 
L 604.621264 475.542881 
L 604.889007 472.678792 
L 605.155853 480.053469 
L 605.686879 472.561221 
L 605.95107 481.340444 
L 606.214388 472.169016 
L 606.476838 492.987678 
L 606.738427 474.161912 
L 606.999159 477.022059 
L 607.25904 476.988659 
L 607.518076 472.705869 
L 607.776273 490.674648 
L 608.033635 482.623349 
L 608.290169 489.114717 
L 609.054849 481.10228 
L 609.308119 473.825597 
L 609.560587 489.623575 
L 609.812258 485.69874 
L 610.063135 474.924471 
L 610.313225 474.436655 
L 610.811062 478.474158 
L 611.058818 478.741708 
L 611.305806 480.839202 
L 611.55203 481.651209 
L 611.797496 468.047021 
L 612.042208 481.465144 
L 612.28617 472.7765 
L 612.529387 472.578206 
L 612.771864 470.137261 
L 613.013605 496.675627 
L 613.254614 473.414216 
L 613.494897 486.142891 
L 613.734457 485.00124 
L 613.973298 473.186615 
L 614.211426 493.805034 
L 614.448843 482.107209 
L 614.921566 473.512764 
L 615.15688 482.936061 
L 615.3915 474.989326 
L 615.858678 482.829996 
L 616.091243 482.570153 
L 616.323131 476.056045 
L 616.554347 477.681454 
L 616.784892 475.458778 
L 617.014773 488.080197 
L 617.243992 477.082461 
L 617.472553 482.940903 
L 617.700461 479.063433 
L 617.927718 485.27117 
L 618.154329 477.548911 
L 618.380296 481.803804 
L 618.830318 477.228404 
L 619.054379 485.068238 
L 619.277811 477.578142 
L 619.500618 481.162339 
L 619.722804 481.765742 
L 619.944372 474.799708 
L 620.165325 478.678445 
L 620.385667 477.733486 
L 620.605401 484.715513 
L 620.824531 476.032159 
L 621.043059 478.357095 
L 621.26099 485.993948 
L 621.69507 476.891068 
L 621.911227 481.742839 
L 622.126798 481.915128 
L 622.556198 486.214256 
L 622.770034 480.759381 
L 622.983296 491.613555 
L 623.408116 474.229262 
L 623.61968 491.849328 
L 624.041128 474.868176 
L 624.251019 476.210356 
L 624.460358 480.11759 
L 624.669149 469.755553 
L 624.877394 480.615188 
L 625.292257 477.697173 
L 625.498881 478.481151 
L 625.704971 482.655776 
L 625.910528 478.239497 
L 626.115557 480.514223 
L 626.320059 491.856414 
L 626.524038 478.426557 
L 626.727495 479.676543 
L 626.930435 482.056812 
L 627.132858 480.855675 
L 627.334768 487.523313 
L 627.536168 480.716457 
L 627.73706 481.685399 
L 627.937446 475.184947 
L 628.13733 481.029457 
L 628.336713 481.735566 
L 628.535599 481.266791 
L 628.733989 475.732166 
L 628.931886 474.315593 
L 629.129293 493.164547 
L 629.522644 478.903425 
L 629.718594 481.444706 
L 629.914063 486.748949 
L 630.109054 486.595318 
L 630.303568 480.726728 
L 630.497608 501.792999 
L 630.884277 476.559153 
L 631.07691 496.943923 
L 631.460783 470.469582 
L 631.652028 481.82837 
L 631.842815 480.567619 
L 632.033146 478.41314 
L 632.223024 481.07695 
L 632.41245 477.915875 
L 632.601426 483.488729 
L 632.789956 478.833548 
L 632.97804 485.80714 
L 633.352881 478.808556 
L 633.539642 483.481623 
L 633.725966 483.246086 
L 633.911856 497.308344 
L 634.097312 493.943557 
L 634.282338 486.449056 
L 634.466935 484.179374 
L 634.651105 488.39296 
L 634.83485 481.235704 
L 635.018173 487.187132 
L 635.201074 477.538574 
L 635.383557 478.373913 
L 635.565622 543.47646 
L 635.747272 468.104045 
L 635.928509 487.759383 
L 636.109335 482.032906 
L 636.289751 496.189076 
L 636.469759 472.656262 
L 636.649361 476.882612 
L 636.828559 478.124398 
L 637.007355 499.025262 
L 637.185751 479.642378 
L 637.363748 480.59604 
L 637.541348 486.181389 
L 637.718553 472.431688 
L 637.895364 473.186175 
L 638.071784 481.282011 
L 638.247814 480.281479 
L 638.598712 486.190108 
L 638.773582 481.277181 
L 638.94807 483.490281 
L 639.122176 477.983416 
L 639.295903 482.180487 
L 639.469251 477.582093 
L 639.642223 477.651137 
L 639.81482 477.555122 
L 639.987044 500.690949 
L 640.330379 474.32149 
L 640.501493 471.890031 
L 640.67224 474.812681 
L 640.842622 489.586059 
L 641.351593 481.277653 
L 641.520529 468.954891 
L 641.689108 487.729208 
L 641.857331 479.408833 
L 642.0252 488.413397 
L 642.359879 473.648827 
L 642.693158 493.218725 
L 642.859276 474.258857 
L 643.025049 471.361213 
L 643.355562 473.954978 
L 643.520306 488.522114 
L 643.684709 472.999778 
L 643.848774 485.187514 
L 644.012502 474.088226 
L 644.175894 493.60524 
L 644.338952 488.421228 
L 644.501676 472.319705 
L 644.664069 493.610529 
L 644.826131 477.847167 
L 644.987864 485.459022 
L 645.14927 473.311474 
L 645.310349 482.649722 
L 645.471103 477.837846 
L 645.631533 478.074157 
L 645.791641 480.158674 
L 645.951427 479.755088 
L 646.110894 482.844548 
L 646.270042 476.774819 
L 646.428873 484.374532 
L 646.587387 477.941787 
L 646.745587 480.509893 
L 646.903473 474.036007 
L 647.061047 480.883626 
L 647.21831 476.527402 
L 647.375263 505.759411 
L 647.531907 479.972577 
L 647.688244 486.670262 
L 647.844274 482.093798 
L 647.844274 482.093798 
" style="fill:none;stroke:#b22222;stroke-linecap:round;stroke-width:1.75;"/>
   </g>
   <g id="patch_6">
    <path d="M 90 512.64 
L 90 311.04 
" style="fill:none;stroke:#262626;stroke-linecap:square;stroke-linejoin:miter;stroke-width:1.25;"/>
   </g>
   <g id="patch_7">
    <path d="M 90 512.64 
L 648 512.64 
" style="fill:none;stroke:#262626;stroke-linecap:square;stroke-linejoin:miter;stroke-width:1.25;"/>
   </g>
  </g>
 </g>
 <defs>
  <clipPath id="pfe7c144fc6">
   <rect height="201.6" width="558" x="90" y="69.12"/>
  </clipPath>
  <clipPath id="p87b6914aaf">
   <rect height="201.6" width="558" x="90" y="311.04"/>
  </clipPath>
 </defs>
</svg>
