<?xml version="1.0" encoding="utf-8" standalone="no"?>
<!DOCTYPE svg PUBLIC "-//W3C//DTD SVG 1.1//EN"
  "http://www.w3.org/Graphics/SVG/1.1/DTD/svg11.dtd">
<!-- Created with matplotlib (http://matplotlib.org/) -->
<svg height="576pt" version="1.1" viewBox="0 0 720 576" width="720pt" xmlns="http://www.w3.org/2000/svg" xmlns:xlink="http://www.w3.org/1999/xlink">
 <defs>
  <style type="text/css">
*{stroke-linecap:butt;stroke-linejoin:round;}
  </style>
 </defs>
 <g id="figure_1">
  <g id="patch_1">
   <path d="M 0 576 
L 720 576 
L 720 0 
L 0 0 
z
" style="fill:#ffffff;"/>
  </g>
  <g id="axes_1">
   <g id="patch_2">
    <path d="M 90 270.72 
L 648 270.72 
L 648 69.12 
L 90 69.12 
z
" style="fill:#ffffff;"/>
   </g>
   <g id="matplotlib.axis_1">
    <g id="xtick_1">
     <g id="line2d_1">
      <defs>
       <path d="M 0 0 
L 0 6 
" id="me8b01c43aa" style="stroke:#262626;"/>
      </defs>
      <g>
       <use style="fill:#262626;stroke:#262626;" x="90" xlink:href="#me8b01c43aa" y="270.72"/>
      </g>
     </g>
     <g id="text_1">
      <!-- 0 -->
      <defs>
       <path d="M 4.15625 35.296875 
Q 4.15625 48 6.765625 55.734375 
Q 9.375 63.484375 14.515625 67.671875 
Q 19.671875 71.875 27.484375 71.875 
Q 33.25 71.875 37.59375 69.546875 
Q 41.9375 67.234375 44.765625 62.859375 
Q 47.609375 58.5 49.21875 52.21875 
Q 50.828125 45.953125 50.828125 35.296875 
Q 50.828125 22.703125 48.234375 14.96875 
Q 45.65625 7.234375 40.5 3 
Q 35.359375 -1.21875 27.484375 -1.21875 
Q 17.140625 -1.21875 11.234375 6.203125 
Q 4.15625 15.140625 4.15625 35.296875 
z
M 13.1875 35.296875 
Q 13.1875 17.671875 17.3125 11.828125 
Q 21.4375 6 27.484375 6 
Q 33.546875 6 37.671875 11.859375 
Q 41.796875 17.71875 41.796875 35.296875 
Q 41.796875 52.984375 37.671875 58.78125 
Q 33.546875 64.59375 27.390625 64.59375 
Q 21.34375 64.59375 17.71875 59.46875 
Q 13.1875 52.9375 13.1875 35.296875 
z
" id="ArialMT-30"/>
      </defs>
      <g style="fill:#262626;" transform="translate(87.219531 290.877812)scale(0.1 -0.1)">
       <use xlink:href="#ArialMT-30"/>
      </g>
     </g>
    </g>
    <g id="xtick_2">
     <g id="line2d_2">
      <g>
       <use style="fill:#262626;stroke:#262626;" x="198.984375" xlink:href="#me8b01c43aa" y="270.72"/>
      </g>
     </g>
     <g id="text_2">
      <!-- 200 -->
      <defs>
       <path d="M 50.34375 8.453125 
L 50.34375 0 
L 3.03125 0 
Q 2.9375 3.171875 4.046875 6.109375 
Q 5.859375 10.9375 9.828125 15.625 
Q 13.8125 20.3125 21.34375 26.46875 
Q 33.015625 36.03125 37.109375 41.625 
Q 41.21875 47.21875 41.21875 52.203125 
Q 41.21875 57.421875 37.46875 61 
Q 33.734375 64.59375 27.734375 64.59375 
Q 21.390625 64.59375 17.578125 60.78125 
Q 13.765625 56.984375 13.71875 50.25 
L 4.6875 51.171875 
Q 5.609375 61.28125 11.65625 66.578125 
Q 17.71875 71.875 27.9375 71.875 
Q 38.234375 71.875 44.234375 66.15625 
Q 50.25 60.453125 50.25 52 
Q 50.25 47.703125 48.484375 43.546875 
Q 46.734375 39.40625 42.65625 34.8125 
Q 38.578125 30.21875 29.109375 22.21875 
Q 21.1875 15.578125 18.9375 13.203125 
Q 16.703125 10.84375 15.234375 8.453125 
z
" id="ArialMT-32"/>
      </defs>
      <g style="fill:#262626;" transform="translate(190.642969 290.877812)scale(0.1 -0.1)">
       <use xlink:href="#ArialMT-32"/>
       <use x="55.615234" xlink:href="#ArialMT-30"/>
       <use x="111.230469" xlink:href="#ArialMT-30"/>
      </g>
     </g>
    </g>
    <g id="xtick_3">
     <g id="line2d_3">
      <g>
       <use style="fill:#262626;stroke:#262626;" x="307.96875" xlink:href="#me8b01c43aa" y="270.72"/>
      </g>
     </g>
     <g id="text_3">
      <!-- 400 -->
      <defs>
       <path d="M 32.328125 0 
L 32.328125 17.140625 
L 1.265625 17.140625 
L 1.265625 25.203125 
L 33.9375 71.578125 
L 41.109375 71.578125 
L 41.109375 25.203125 
L 50.78125 25.203125 
L 50.78125 17.140625 
L 41.109375 17.140625 
L 41.109375 0 
z
M 32.328125 25.203125 
L 32.328125 57.46875 
L 9.90625 25.203125 
z
" id="ArialMT-34"/>
      </defs>
      <g style="fill:#262626;" transform="translate(299.627344 290.877812)scale(0.1 -0.1)">
       <use xlink:href="#ArialMT-34"/>
       <use x="55.615234" xlink:href="#ArialMT-30"/>
       <use x="111.230469" xlink:href="#ArialMT-30"/>
      </g>
     </g>
    </g>
    <g id="xtick_4">
     <g id="line2d_4">
      <g>
       <use style="fill:#262626;stroke:#262626;" x="416.953125" xlink:href="#me8b01c43aa" y="270.72"/>
      </g>
     </g>
     <g id="text_4">
      <!-- 600 -->
      <defs>
       <path d="M 49.75 54.046875 
L 41.015625 53.375 
Q 39.84375 58.546875 37.703125 60.890625 
Q 34.125 64.65625 28.90625 64.65625 
Q 24.703125 64.65625 21.53125 62.3125 
Q 17.390625 59.28125 14.984375 53.46875 
Q 12.59375 47.65625 12.5 36.921875 
Q 15.671875 41.75 20.265625 44.09375 
Q 24.859375 46.4375 29.890625 46.4375 
Q 38.671875 46.4375 44.84375 39.96875 
Q 51.03125 33.5 51.03125 23.25 
Q 51.03125 16.5 48.125 10.71875 
Q 45.21875 4.9375 40.140625 1.859375 
Q 35.0625 -1.21875 28.609375 -1.21875 
Q 17.625 -1.21875 10.6875 6.859375 
Q 3.765625 14.9375 3.765625 33.5 
Q 3.765625 54.25 11.421875 63.671875 
Q 18.109375 71.875 29.4375 71.875 
Q 37.890625 71.875 43.28125 67.140625 
Q 48.6875 62.40625 49.75 54.046875 
z
M 13.875 23.1875 
Q 13.875 18.65625 15.796875 14.5 
Q 17.71875 10.359375 21.1875 8.171875 
Q 24.65625 6 28.46875 6 
Q 34.03125 6 38.03125 10.484375 
Q 42.046875 14.984375 42.046875 22.703125 
Q 42.046875 30.125 38.078125 34.390625 
Q 34.125 38.671875 28.125 38.671875 
Q 22.171875 38.671875 18.015625 34.390625 
Q 13.875 30.125 13.875 23.1875 
z
" id="ArialMT-36"/>
      </defs>
      <g style="fill:#262626;" transform="translate(408.611719 290.877812)scale(0.1 -0.1)">
       <use xlink:href="#ArialMT-36"/>
       <use x="55.615234" xlink:href="#ArialMT-30"/>
       <use x="111.230469" xlink:href="#ArialMT-30"/>
      </g>
     </g>
    </g>
    <g id="xtick_5">
     <g id="line2d_5">
      <g>
       <use style="fill:#262626;stroke:#262626;" x="525.9375" xlink:href="#me8b01c43aa" y="270.72"/>
      </g>
     </g>
     <g id="text_5">
      <!-- 800 -->
      <defs>
       <path d="M 17.671875 38.8125 
Q 12.203125 40.828125 9.5625 44.53125 
Q 6.9375 48.25 6.9375 53.421875 
Q 6.9375 61.234375 12.546875 66.546875 
Q 18.171875 71.875 27.484375 71.875 
Q 36.859375 71.875 42.578125 66.421875 
Q 48.296875 60.984375 48.296875 53.171875 
Q 48.296875 48.1875 45.671875 44.5 
Q 43.0625 40.828125 37.75 38.8125 
Q 44.34375 36.671875 47.78125 31.875 
Q 51.21875 27.09375 51.21875 20.453125 
Q 51.21875 11.28125 44.71875 5.03125 
Q 38.234375 -1.21875 27.640625 -1.21875 
Q 17.046875 -1.21875 10.546875 5.046875 
Q 4.046875 11.328125 4.046875 20.703125 
Q 4.046875 27.6875 7.59375 32.390625 
Q 11.140625 37.109375 17.671875 38.8125 
z
M 15.921875 53.71875 
Q 15.921875 48.640625 19.1875 45.40625 
Q 22.46875 42.1875 27.6875 42.1875 
Q 32.765625 42.1875 36.015625 45.375 
Q 39.265625 48.578125 39.265625 53.21875 
Q 39.265625 58.0625 35.90625 61.359375 
Q 32.5625 64.65625 27.59375 64.65625 
Q 22.5625 64.65625 19.234375 61.421875 
Q 15.921875 58.203125 15.921875 53.71875 
z
M 13.09375 20.65625 
Q 13.09375 16.890625 14.875 13.375 
Q 16.65625 9.859375 20.171875 7.921875 
Q 23.6875 6 27.734375 6 
Q 34.03125 6 38.125 10.046875 
Q 42.234375 14.109375 42.234375 20.359375 
Q 42.234375 26.703125 38.015625 30.859375 
Q 33.796875 35.015625 27.4375 35.015625 
Q 21.234375 35.015625 17.15625 30.90625 
Q 13.09375 26.8125 13.09375 20.65625 
z
" id="ArialMT-38"/>
      </defs>
      <g style="fill:#262626;" transform="translate(517.596094 290.877812)scale(0.1 -0.1)">
       <use xlink:href="#ArialMT-38"/>
       <use x="55.615234" xlink:href="#ArialMT-30"/>
       <use x="111.230469" xlink:href="#ArialMT-30"/>
      </g>
     </g>
    </g>
    <g id="xtick_6">
     <g id="line2d_6">
      <g>
       <use style="fill:#262626;stroke:#262626;" x="634.921875" xlink:href="#me8b01c43aa" y="270.72"/>
      </g>
     </g>
     <g id="text_6">
      <!-- 1000 -->
      <defs>
       <path d="M 37.25 0 
L 28.46875 0 
L 28.46875 56 
Q 25.296875 52.984375 20.140625 49.953125 
Q 14.984375 46.921875 10.890625 45.40625 
L 10.890625 53.90625 
Q 18.265625 57.375 23.78125 62.296875 
Q 29.296875 67.234375 31.59375 71.875 
L 37.25 71.875 
z
" id="ArialMT-31"/>
      </defs>
      <g style="fill:#262626;" transform="translate(623.8 290.877812)scale(0.1 -0.1)">
       <use xlink:href="#ArialMT-31"/>
       <use x="55.615234" xlink:href="#ArialMT-30"/>
       <use x="111.230469" xlink:href="#ArialMT-30"/>
       <use x="166.845703" xlink:href="#ArialMT-30"/>
      </g>
     </g>
    </g>
   </g>
   <g id="matplotlib.axis_2">
    <g id="ytick_1">
     <g id="line2d_7">
      <defs>
       <path d="M 0 0 
L -6 0 
" id="mb76835b571" style="stroke:#262626;"/>
      </defs>
      <g>
       <use style="fill:#262626;stroke:#262626;" x="90" xlink:href="#mb76835b571" y="270.72"/>
      </g>
     </g>
     <g id="text_7">
      <!-- −0.6 -->
      <defs>
       <path d="M 52.828125 31.203125 
L 5.5625 31.203125 
L 5.5625 39.40625 
L 52.828125 39.40625 
z
" id="ArialMT-2212"/>
       <path d="M 9.078125 0 
L 9.078125 10.015625 
L 19.09375 10.015625 
L 19.09375 0 
z
" id="ArialMT-2e"/>
      </defs>
      <g style="fill:#262626;" transform="translate(57.259375 274.298906)scale(0.1 -0.1)">
       <use xlink:href="#ArialMT-2212"/>
       <use x="58.398438" xlink:href="#ArialMT-30"/>
       <use x="114.013672" xlink:href="#ArialMT-2e"/>
       <use x="141.796875" xlink:href="#ArialMT-36"/>
      </g>
     </g>
    </g>
    <g id="ytick_2">
     <g id="line2d_8">
      <g>
       <use style="fill:#262626;stroke:#262626;" x="90" xlink:href="#mb76835b571" y="237.12"/>
      </g>
     </g>
     <g id="text_8">
      <!-- −0.4 -->
      <g style="fill:#262626;" transform="translate(57.259375 240.698906)scale(0.1 -0.1)">
       <use xlink:href="#ArialMT-2212"/>
       <use x="58.398438" xlink:href="#ArialMT-30"/>
       <use x="114.013672" xlink:href="#ArialMT-2e"/>
       <use x="141.796875" xlink:href="#ArialMT-34"/>
      </g>
     </g>
    </g>
    <g id="ytick_3">
     <g id="line2d_9">
      <g>
       <use style="fill:#262626;stroke:#262626;" x="90" xlink:href="#mb76835b571" y="203.52"/>
      </g>
     </g>
     <g id="text_9">
      <!-- −0.2 -->
      <g style="fill:#262626;" transform="translate(57.259375 207.098906)scale(0.1 -0.1)">
       <use xlink:href="#ArialMT-2212"/>
       <use x="58.398438" xlink:href="#ArialMT-30"/>
       <use x="114.013672" xlink:href="#ArialMT-2e"/>
       <use x="141.796875" xlink:href="#ArialMT-32"/>
      </g>
     </g>
    </g>
    <g id="ytick_4">
     <g id="line2d_10">
      <g>
       <use style="fill:#262626;stroke:#262626;" x="90" xlink:href="#mb76835b571" y="169.92"/>
      </g>
     </g>
     <g id="text_10">
      <!-- 0.0 -->
      <g style="fill:#262626;" transform="translate(63.1 173.498906)scale(0.1 -0.1)">
       <use xlink:href="#ArialMT-30"/>
       <use x="55.615234" xlink:href="#ArialMT-2e"/>
       <use x="83.398438" xlink:href="#ArialMT-30"/>
      </g>
     </g>
    </g>
    <g id="ytick_5">
     <g id="line2d_11">
      <g>
       <use style="fill:#262626;stroke:#262626;" x="90" xlink:href="#mb76835b571" y="136.32"/>
      </g>
     </g>
     <g id="text_11">
      <!-- 0.2 -->
      <g style="fill:#262626;" transform="translate(63.1 139.898906)scale(0.1 -0.1)">
       <use xlink:href="#ArialMT-30"/>
       <use x="55.615234" xlink:href="#ArialMT-2e"/>
       <use x="83.398438" xlink:href="#ArialMT-32"/>
      </g>
     </g>
    </g>
    <g id="ytick_6">
     <g id="line2d_12">
      <g>
       <use style="fill:#262626;stroke:#262626;" x="90" xlink:href="#mb76835b571" y="102.72"/>
      </g>
     </g>
     <g id="text_12">
      <!-- 0.4 -->
      <g style="fill:#262626;" transform="translate(63.1 106.298906)scale(0.1 -0.1)">
       <use xlink:href="#ArialMT-30"/>
       <use x="55.615234" xlink:href="#ArialMT-2e"/>
       <use x="83.398438" xlink:href="#ArialMT-34"/>
      </g>
     </g>
    </g>
    <g id="ytick_7">
     <g id="line2d_13">
      <g>
       <use style="fill:#262626;stroke:#262626;" x="90" xlink:href="#mb76835b571" y="69.12"/>
      </g>
     </g>
     <g id="text_13">
      <!-- 0.6 -->
      <g style="fill:#262626;" transform="translate(63.1 72.698906)scale(0.1 -0.1)">
       <use xlink:href="#ArialMT-30"/>
       <use x="55.615234" xlink:href="#ArialMT-2e"/>
       <use x="83.398438" xlink:href="#ArialMT-36"/>
      </g>
     </g>
    </g>
   </g>
   <g id="line2d_14">
    <path clip-path="url(#p87ee477da2)" d="M 90 193.791094 
L 90.544922 192.816973 
L 91.634766 189.945879 
L 92.179688 188.300127 
L 94.359375 179.348467 
L 95.994141 172.273271 
L 97.083984 167.89998 
L 98.173828 164.239336 
L 98.71875 162.51668 
L 99.808594 160.31209 
L 100.353516 159.912187 
L 101.443359 159.630205 
L 102.533203 160.291582 
L 103.078125 160.686357 
L 103.623047 161.363115 
L 104.167969 162.367998 
L 104.712891 162.967852 
L 105.802734 165.244219 
L 107.982422 169.038164 
L 109.072266 170.284014 
L 110.162109 170.832598 
L 110.707031 170.93001 
L 111.796875 170.463457 
L 112.341797 170.150713 
L 112.886719 169.638018 
L 113.431641 168.822832 
L 113.976562 167.64876 
L 114.521484 166.920732 
L 115.066406 165.567217 
L 116.701172 162.855059 
L 117.791016 161.634844 
L 118.335938 161.404131 
L 118.880859 161.38875 
L 119.425781 161.491289 
L 119.970703 161.778398 
L 120.515625 162.414141 
L 121.060547 162.737139 
L 122.150391 163.926592 
L 123.785156 166.5721 
L 124.875 168.981768 
L 129.779297 183.880693 
L 130.324219 185.147051 
L 131.414062 186.480059 
L 131.958984 186.357012 
L 132.503906 186.485186 
L 133.048828 186.059648 
L 133.59375 185.798174 
L 136.318359 181.471025 
L 136.863281 180.014971 
L 137.408203 178.974199 
L 142.857422 163.013994 
L 144.492188 159.250811 
L 145.582031 157.56917 
L 146.126953 156.928301 
L 147.216797 156.318193 
L 147.761719 155.928545 
L 148.306641 156.143877 
L 148.851562 155.928545 
L 149.941406 156.579668 
L 150.486328 157.235918 
L 151.03125 157.287187 
L 151.576172 157.902422 
L 152.121094 158.333086 
L 152.666016 158.604814 
L 153.210938 159.425127 
L 153.755859 159.507158 
L 154.300781 159.948076 
L 155.390625 160.358232 
L 155.935547 160.373613 
L 156.480469 160.624834 
L 157.025391 160.322344 
L 158.660156 160.860674 
L 159.205078 161.445146 
L 159.75 161.798906 
L 161.384766 164.36751 
L 164.109375 168.54085 
L 164.654297 169.227861 
L 165.199219 170.207109 
L 165.744141 170.719805 
L 167.378906 173.037187 
L 169.558594 177.261797 
L 170.103516 178.523027 
L 170.648438 179.481768 
L 171.193359 180.994219 
L 174.462891 186.79793 
L 175.007812 187.674639 
L 176.097656 190.120195 
L 176.642578 190.940508 
L 177.1875 192.170977 
L 178.822266 194.160234 
L 179.367188 194.575518 
L 180.457031 194.929277 
L 181.001953 194.867754 
L 181.546875 194.606279 
L 182.636719 192.683672 
L 183.726562 190.012529 
L 185.90625 182.040117 
L 187.541016 174.723955 
L 189.175781 168.474199 
L 190.265625 165.018633 
L 190.810547 163.911211 
L 191.355469 162.491045 
L 191.900391 161.470781 
L 192.445312 161.024736 
L 192.990234 160.881182 
L 193.535156 160.383867 
L 194.625 160.824785 
L 195.714844 162.234697 
L 197.894531 165.469805 
L 198.984375 167.36165 
L 199.529297 168.140947 
L 200.074219 169.14583 
L 201.708984 170.750566 
L 202.253906 170.976152 
L 202.798828 170.945391 
L 203.34375 170.704424 
L 204.433594 169.361162 
L 204.978516 168.72542 
L 206.613281 165.854326 
L 207.158203 165.177568 
L 207.703125 164.229082 
L 208.792969 163.060137 
L 209.337891 162.670488 
L 209.882812 162.014238 
L 210.427734 162.168047 
L 211.517578 161.921953 
L 212.0625 162.209062 
L 212.607422 162.219316 
L 213.152344 162.690996 
L 213.697266 162.93709 
L 214.242188 163.567705 
L 214.787109 164.018877 
L 215.876953 165.618486 
L 217.511719 170.5096 
L 218.056641 172.175859 
L 220.236328 180.127764 
L 221.326172 182.629717 
L 221.871094 183.762773 
L 222.416016 184.618975 
L 223.505859 185.705889 
L 224.595703 186.085283 
L 225.140625 185.931475 
L 225.685547 185.608477 
L 226.230469 185.039385 
L 226.775391 184.265215 
L 228.410156 181.306963 
L 231.134766 174.349687 
L 233.859375 166.090166 
L 235.494141 162.034746 
L 236.039062 160.7325 
L 237.673828 157.912676 
L 238.21875 157.461504 
L 238.763672 156.769365 
L 239.853516 155.815752 
L 240.398438 155.923418 
L 240.943359 155.882402 
L 241.488281 156.343828 
L 242.033203 156.528398 
L 242.578125 157.246172 
L 243.123047 157.430742 
L 243.667969 158.097246 
L 245.302734 158.81502 
L 245.847656 158.871416 
L 246.392578 159.194414 
L 246.9375 159.143145 
L 248.572266 159.558428 
L 249.662109 160.230059 
L 250.207031 160.840166 
L 250.751953 161.265703 
L 251.296875 161.834795 
L 252.931641 164.444414 
L 255.111328 167.259111 
L 255.65625 167.53084 
L 256.746094 168.925371 
L 258.925781 172.370684 
L 259.470703 173.616533 
L 260.015625 174.534258 
L 261.650391 178.056475 
L 263.285156 181.353105 
L 264.375 183.203936 
L 264.919922 184.572832 
L 265.464844 185.639238 
L 266.554688 188.22835 
L 267.644531 190.56624 
L 268.189453 191.540361 
L 268.734375 192.786211 
L 270.369141 195.51375 
L 270.914062 196.344316 
L 272.003906 197.113359 
L 272.548828 197.241533 
L 273.09375 196.959551 
L 274.183594 195.32918 
L 274.728516 194.247393 
L 275.273438 192.755449 
L 275.818359 190.730303 
L 276.363281 189.222979 
L 277.998047 183.127031 
L 279.087891 178.153887 
L 279.632812 175.969805 
L 280.177734 173.303789 
L 282.357422 166.013262 
L 282.902344 164.946855 
L 284.537109 162.706377 
L 285.082031 162.352617 
L 286.171875 162.409014 
L 286.716797 162.824297 
L 287.806641 164.147051 
L 288.351562 165.290361 
L 288.896484 165.93123 
L 289.441406 167.253984 
L 291.621094 171.53499 
L 292.166016 172.011797 
L 292.710938 172.652666 
L 293.255859 172.72957 
L 293.800781 173.062822 
L 294.345703 173.175615 
L 294.890625 172.642412 
L 295.435547 172.334795 
L 296.525391 170.637773 
L 297.070312 169.935381 
L 298.160156 168.094805 
L 299.794922 166.059404 
L 300.884766 165.321123 
L 302.519531 164.229082 
L 303.064453 164.075273 
L 303.609375 163.731768 
L 304.699219 163.649736 
L 305.244141 163.906084 
L 306.333984 164.97249 
L 306.878906 165.685137 
L 308.513672 169.509844 
L 311.783203 180.179033 
L 313.417969 184.342119 
L 314.507812 186.690264 
L 315.597656 187.813066 
L 316.6875 188.382158 
L 317.232422 188.387285 
L 317.777344 188.22835 
L 318.322266 187.684893 
L 318.867188 187.305498 
L 319.412109 186.551836 
L 320.501953 184.419023 
L 322.136719 179.99959 
L 323.226562 176.508135 
L 325.40625 169.591875 
L 325.951172 168.315264 
L 326.496094 166.510576 
L 327.041016 165.285234 
L 327.585938 163.701006 
L 328.130859 162.726885 
L 328.675781 161.332354 
L 329.765625 159.563555 
L 330.310547 158.707354 
L 331.400391 158.17415 
L 331.945312 158.097246 
L 332.490234 158.143389 
L 333.035156 158.425371 
L 333.580078 158.548418 
L 334.669922 159.332842 
L 335.759766 159.60457 
L 336.304688 159.625078 
L 338.484375 158.994463 
L 340.119141 159.163652 
L 340.664062 159.425127 
L 341.208984 160.004473 
L 341.753906 160.414629 
L 342.84375 161.69124 
L 343.388672 162.526934 
L 345.023438 163.685625 
L 345.568359 164.126543 
L 346.113281 164.234209 
L 346.658203 164.516191 
L 349.382812 168.894609 
L 349.927734 170.145586 
L 352.107422 173.847246 
L 352.652344 175.144365 
L 353.742188 177.015703 
L 354.287109 178.051348 
L 355.921875 180.573809 
L 356.466797 181.886309 
L 357.011719 182.578447 
L 357.556641 183.511553 
L 358.646484 185.962236 
L 361.371094 191.62752 
L 362.460938 193.022051 
L 363.550781 193.816729 
L 364.095703 194.339678 
L 365.185547 194.088457 
L 365.730469 193.719316 
L 366.275391 192.883623 
L 366.820312 191.730059 
L 367.910156 188.782061 
L 369.544922 182.147783 
L 372.269531 169.996904 
L 372.814453 167.710283 
L 374.449219 162.6346 
L 374.994141 161.065752 
L 375.539062 159.89168 
L 376.083984 159.261064 
L 376.628906 158.256182 
L 377.173828 157.799883 
L 378.263672 157.553789 
L 378.808594 157.938311 
L 379.353516 157.953691 
L 379.898438 158.922686 
L 380.443359 159.573809 
L 381.533203 161.4554 
L 383.712891 165.967119 
L 384.257812 166.551592 
L 384.802734 166.813066 
L 385.347656 166.679766 
L 386.4375 165.961992 
L 387.527344 165.085283 
L 390.796875 161.74251 
L 391.341797 160.768389 
L 391.886719 160.435137 
L 392.431641 159.343096 
L 393.521484 158.57918 
L 394.066406 157.999834 
L 395.15625 157.21541 
L 395.701172 157.020586 
L 396.246094 157.066729 
L 396.791016 157.374346 
L 397.335938 157.50252 
L 398.425781 159.055986 
L 399.515625 161.429766 
L 401.150391 165.93123 
L 402.785156 171.186357 
L 403.330078 172.565508 
L 403.875 174.262529 
L 404.419922 175.185381 
L 404.964844 176.651689 
L 405.509766 177.759111 
L 406.054688 178.56917 
L 406.599609 179.691973 
L 407.144531 180.261064 
L 407.689453 180.507158 
L 408.234375 180.953203 
L 409.324219 180.850664 
L 409.869141 180.72249 
L 410.414062 180.425127 
L 410.958984 179.609941 
L 411.503906 179.004961 
L 413.138672 175.939043 
L 413.683594 174.626543 
L 419.677734 156.923174 
L 420.767578 154.421221 
L 421.857422 152.662676 
L 423.492188 151.673174 
L 425.671875 151.878252 
L 427.306641 151.42708 
L 427.851562 151.083574 
L 429.486328 150.950273 
L 430.03125 150.760576 
L 430.576172 151.196367 
L 431.121094 151.298906 
L 432.210938 152.324297 
L 432.755859 152.616533 
L 435.480469 155.215898 
L 436.025391 155.661943 
L 436.570312 156.287432 
L 437.115234 156.697588 
L 437.660156 157.312822 
L 439.839844 159.112383 
L 440.384766 159.912187 
L 442.564453 164.075273 
L 443.654297 166.208086 
L 445.289062 169.099687 
L 446.378906 170.873613 
L 448.558594 175.549395 
L 449.103516 176.964434 
L 450.193359 179.025469 
L 451.283203 181.347979 
L 454.007812 187.259355 
L 455.097656 189.392168 
L 455.642578 189.997148 
L 456.732422 190.335527 
L 457.822266 189.581865 
L 459.457031 185.782793 
L 460.546875 182.250322 
L 463.816406 167.997393 
L 465.451172 161.680986 
L 466.541016 158.086992 
L 467.085938 156.897539 
L 467.630859 155.354326 
L 468.720703 153.770098 
L 469.265625 153.098467 
L 469.810547 152.934404 
L 470.355469 153.04207 
L 471.445312 154.862139 
L 471.990234 156.051592 
L 472.535156 156.928301 
L 474.169922 160.337725 
L 474.714844 161.065752 
L 475.259766 162.198809 
L 475.804688 162.880693 
L 476.894531 163.562578 
L 477.984375 163.731768 
L 478.529297 163.624102 
L 479.074219 163.208818 
L 479.619141 162.983232 
L 480.164062 162.393633 
L 480.708984 162.060381 
L 481.798828 160.922197 
L 482.888672 159.543047 
L 483.433594 158.932939 
L 483.978516 157.830645 
L 484.523438 157.164141 
L 485.068359 155.769609 
L 486.703125 153.841875 
L 487.792969 153.236895 
L 488.882812 153.780352 
L 489.972656 155.308184 
L 490.517578 156.261797 
L 492.152344 160.440264 
L 496.511719 173.088457 
L 497.056641 174.349687 
L 497.601562 175.939043 
L 498.146484 176.820879 
L 498.691406 178.138506 
L 499.78125 179.451006 
L 500.326172 179.722734 
L 501.416016 179.984209 
L 501.960938 179.799639 
L 502.505859 179.497148 
L 504.140625 177.251543 
L 505.230469 175.252031 
L 507.410156 169.704668 
L 510.134766 160.235186 
L 511.769531 156.369463 
L 512.314453 155.251787 
L 513.404297 154.10335 
L 515.039062 153.69832 
L 516.128906 152.888262 
L 516.673828 152.795977 
L 517.763672 152.119219 
L 518.853516 151.950029 
L 519.398438 151.339922 
L 521.578125 151.222002 
L 522.123047 151.657793 
L 523.212891 152.042314 
L 523.757812 152.452471 
L 524.847656 153.872637 
L 525.392578 154.246904 
L 525.9375 154.790361 
L 527.027344 155.385088 
L 527.572266 155.605547 
L 528.662109 156.456621 
L 529.207031 156.994951 
L 529.751953 157.835771 
L 530.296875 158.456133 
L 531.931641 161.20418 
L 533.566406 164.147051 
L 534.111328 164.941729 
L 535.746094 168.274248 
L 536.835938 170.499346 
L 540.105469 177.800127 
L 542.830078 184.834307 
L 545.554688 191.299395 
L 546.099609 192.217119 
L 546.644531 193.355303 
L 547.734375 194.349932 
L 548.824219 194.601152 
L 549.369141 194.211504 
L 550.458984 192.627275 
L 552.09375 188.054033 
L 554.273438 180.214922 
L 555.363281 175.498125 
L 557.542969 166.623369 
L 558.632812 163.019121 
L 559.722656 160.435137 
L 560.267578 159.732744 
L 560.8125 159.440508 
L 561.357422 159.332842 
L 561.902344 159.522539 
L 562.992188 160.886309 
L 563.537109 161.557939 
L 565.171875 164.685381 
L 565.716797 165.321123 
L 566.261719 166.577227 
L 566.806641 167.407793 
L 568.441406 168.966387 
L 568.986328 169.181719 
L 569.53125 169.56624 
L 570.076172 169.473955 
L 570.621094 169.602129 
L 571.710938 169.509844 
L 572.255859 169.38167 
L 572.800781 169.099687 
L 573.345703 169.007402 
L 573.890625 168.18709 
L 574.435547 167.700029 
L 575.525391 166.120928 
L 576.615234 164.116289 
L 577.160156 163.490801 
L 577.705078 162.501299 
L 578.794922 161.450273 
L 579.339844 161.060625 
L 579.884766 161.009355 
L 580.429688 161.070879 
L 580.974609 161.665605 
L 582.064453 163.085771 
L 583.699219 166.7054 
L 586.96875 176.769609 
L 589.148438 183.793535 
L 590.238281 186.418535 
L 591.328125 188.561602 
L 592.417969 189.458818 
L 592.962891 189.745928 
L 593.507812 189.740801 
L 594.052734 189.935625 
L 594.597656 189.925371 
L 595.142578 189.258867 
L 595.6875 188.966631 
L 596.232422 188.341143 
L 597.322266 186.433916 
L 598.412109 183.455156 
L 601.681641 173.365312 
L 602.226562 171.827227 
L 604.40625 168.079424 
L 606.041016 166.213213 
L 607.130859 165.321123 
L 607.675781 165.09041 
L 608.220703 164.644365 
L 608.765625 164.403398 
L 609.310547 163.644609 
L 609.855469 163.460039 
L 610.400391 162.978105 
L 610.945312 162.829424 
L 611.490234 162.547441 
L 612.580078 162.439775 
L 613.125 162.552568 
L 613.669922 162.814043 
L 614.214844 162.855059 
L 614.759766 163.367754 
L 616.394531 164.141924 
L 617.484375 165.069902 
L 620.208984 168.202471 
L 620.753906 168.899736 
L 621.298828 169.940508 
L 622.388672 171.222246 
L 623.478516 172.955156 
L 624.023438 173.55501 
L 626.203125 177.359209 
L 626.748047 178.123125 
L 630.017578 183.931963 
L 630.5625 185.270098 
L 631.652344 187.233721 
L 634.376953 194.01668 
L 634.921875 196.077715 
L 635.466797 197.508135 
L 637.101562 202.742754 
L 637.646484 204.316729 
L 638.736328 206.403398 
L 639.28125 206.992998 
L 639.826172 207.295488 
L 640.916016 207.459551 
L 642.005859 206.459795 
L 642.550781 205.618975 
L 643.640625 203.250322 
L 645.275391 197.754229 
L 646.910156 190.679033 
L 647.455078 187.915605 
L 647.455078 187.915605 
" style="fill:none;stroke:#4c72b0;stroke-linecap:round;stroke-width:1.75;"/>
   </g>
   <g id="patch_3">
    <path d="M 90 270.72 
L 90 69.12 
" style="fill:none;stroke:#262626;stroke-linecap:square;stroke-linejoin:miter;stroke-width:1.25;"/>
   </g>
   <g id="patch_4">
    <path d="M 90 270.72 
L 648 270.72 
" style="fill:none;stroke:#262626;stroke-linecap:square;stroke-linejoin:miter;stroke-width:1.25;"/>
   </g>
  </g>
  <g id="axes_2">
   <g id="patch_5">
    <path d="M 90 512.64 
L 648 512.64 
L 648 311.04 
L 90 311.04 
z
" style="fill:#ffffff;"/>
   </g>
   <g id="matplotlib.axis_3">
    <g id="xtick_7">
     <g id="line2d_15">
      <g>
       <use style="fill:#262626;stroke:#262626;" x="218.197478" xlink:href="#me8b01c43aa" y="512.64"/>
      </g>
     </g>
     <g id="text_14">
      <!-- $\mathdefault{10^{2}}$ -->
      <g style="fill:#262626;" transform="translate(210.347478 535.9525)scale(0.1 -0.1)">
       <use transform="translate(0 0.99375)" xlink:href="#ArialMT-31"/>
       <use transform="translate(55.615234 0.99375)" xlink:href="#ArialMT-30"/>
       <use transform="translate(112.972813 70.6875)scale(0.7)" xlink:href="#ArialMT-32"/>
      </g>
     </g>
    </g>
    <g id="xtick_8">
     <g id="line2d_16">
      <g>
       <use style="fill:#262626;stroke:#262626;" x="401.606604" xlink:href="#me8b01c43aa" y="512.64"/>
      </g>
     </g>
     <g id="text_15">
      <!-- $\mathdefault{10^{3}}$ -->
      <defs>
       <path d="M 4.203125 18.890625 
L 12.984375 20.0625 
Q 14.5 12.59375 18.140625 9.296875 
Q 21.78125 6 27 6 
Q 33.203125 6 37.46875 10.296875 
Q 41.75 14.59375 41.75 20.953125 
Q 41.75 27 37.796875 30.921875 
Q 33.84375 34.859375 27.734375 34.859375 
Q 25.25 34.859375 21.53125 33.890625 
L 22.515625 41.609375 
Q 23.390625 41.5 23.921875 41.5 
Q 29.546875 41.5 34.03125 44.421875 
Q 38.53125 47.359375 38.53125 53.46875 
Q 38.53125 58.296875 35.25 61.46875 
Q 31.984375 64.65625 26.8125 64.65625 
Q 21.6875 64.65625 18.265625 61.421875 
Q 14.84375 58.203125 13.875 51.765625 
L 5.078125 53.328125 
Q 6.6875 62.15625 12.390625 67.015625 
Q 18.109375 71.875 26.609375 71.875 
Q 32.46875 71.875 37.390625 69.359375 
Q 42.328125 66.84375 44.9375 62.5 
Q 47.5625 58.15625 47.5625 53.265625 
Q 47.5625 48.640625 45.0625 44.828125 
Q 42.578125 41.015625 37.703125 38.765625 
Q 44.046875 37.3125 47.5625 32.6875 
Q 51.078125 28.078125 51.078125 21.140625 
Q 51.078125 11.765625 44.234375 5.25 
Q 37.40625 -1.265625 26.953125 -1.265625 
Q 17.53125 -1.265625 11.296875 4.34375 
Q 5.078125 9.96875 4.203125 18.890625 
z
" id="ArialMT-33"/>
      </defs>
      <g style="fill:#262626;" transform="translate(393.756604 535.9525)scale(0.1 -0.1)">
       <use transform="translate(0 0.99375)" xlink:href="#ArialMT-31"/>
       <use transform="translate(55.615234 0.99375)" xlink:href="#ArialMT-30"/>
       <use transform="translate(112.972813 70.6875)scale(0.7)" xlink:href="#ArialMT-33"/>
      </g>
     </g>
    </g>
    <g id="xtick_9">
     <g id="line2d_17">
      <g>
       <use style="fill:#262626;stroke:#262626;" x="585.01573" xlink:href="#me8b01c43aa" y="512.64"/>
      </g>
     </g>
     <g id="text_16">
      <!-- $\mathdefault{10^{4}}$ -->
      <g style="fill:#262626;" transform="translate(577.16573 535.8525)scale(0.1 -0.1)">
       <use transform="translate(0 0.201563)" xlink:href="#ArialMT-31"/>
       <use transform="translate(55.615234 0.201563)" xlink:href="#ArialMT-30"/>
       <use transform="translate(112.972813 69.895313)scale(0.7)" xlink:href="#ArialMT-34"/>
      </g>
     </g>
    </g>
    <g id="xtick_10">
     <g id="line2d_18">
      <defs>
       <path d="M 0 0 
L 0 3 
" id="m5f7de72c7d" style="stroke:#262626;stroke-width:0.5;"/>
      </defs>
      <g>
       <use style="fill:#262626;stroke:#262626;stroke-width:0.5;" x="90" xlink:href="#m5f7de72c7d" y="512.64"/>
      </g>
     </g>
    </g>
    <g id="xtick_11">
     <g id="line2d_19">
      <g>
       <use style="fill:#262626;stroke:#262626;stroke-width:0.5;" x="122.296744" xlink:href="#m5f7de72c7d" y="512.64"/>
      </g>
     </g>
    </g>
    <g id="xtick_12">
     <g id="line2d_20">
      <g>
       <use style="fill:#262626;stroke:#262626;stroke-width:0.5;" x="145.211648" xlink:href="#m5f7de72c7d" y="512.64"/>
      </g>
     </g>
    </g>
    <g id="xtick_13">
     <g id="line2d_21">
      <g>
       <use style="fill:#262626;stroke:#262626;stroke-width:0.5;" x="162.985829" xlink:href="#m5f7de72c7d" y="512.64"/>
      </g>
     </g>
    </g>
    <g id="xtick_14">
     <g id="line2d_22">
      <g>
       <use style="fill:#262626;stroke:#262626;stroke-width:0.5;" x="177.508392" xlink:href="#m5f7de72c7d" y="512.64"/>
      </g>
     </g>
    </g>
    <g id="xtick_15">
     <g id="line2d_23">
      <g>
       <use style="fill:#262626;stroke:#262626;stroke-width:0.5;" x="189.787045" xlink:href="#m5f7de72c7d" y="512.64"/>
      </g>
     </g>
    </g>
    <g id="xtick_16">
     <g id="line2d_24">
      <g>
       <use style="fill:#262626;stroke:#262626;stroke-width:0.5;" x="200.423297" xlink:href="#m5f7de72c7d" y="512.64"/>
      </g>
     </g>
    </g>
    <g id="xtick_17">
     <g id="line2d_25">
      <g>
       <use style="fill:#262626;stroke:#262626;stroke-width:0.5;" x="209.805136" xlink:href="#m5f7de72c7d" y="512.64"/>
      </g>
     </g>
    </g>
    <g id="xtick_18">
     <g id="line2d_26">
      <g>
       <use style="fill:#262626;stroke:#262626;stroke-width:0.5;" x="273.409126" xlink:href="#m5f7de72c7d" y="512.64"/>
      </g>
     </g>
    </g>
    <g id="xtick_19">
     <g id="line2d_27">
      <g>
       <use style="fill:#262626;stroke:#262626;stroke-width:0.5;" x="305.70587" xlink:href="#m5f7de72c7d" y="512.64"/>
      </g>
     </g>
    </g>
    <g id="xtick_20">
     <g id="line2d_28">
      <g>
       <use style="fill:#262626;stroke:#262626;stroke-width:0.5;" x="328.620775" xlink:href="#m5f7de72c7d" y="512.64"/>
      </g>
     </g>
    </g>
    <g id="xtick_21">
     <g id="line2d_29">
      <g>
       <use style="fill:#262626;stroke:#262626;stroke-width:0.5;" x="346.394955" xlink:href="#m5f7de72c7d" y="512.64"/>
      </g>
     </g>
    </g>
    <g id="xtick_22">
     <g id="line2d_30">
      <g>
       <use style="fill:#262626;stroke:#262626;stroke-width:0.5;" x="360.917518" xlink:href="#m5f7de72c7d" y="512.64"/>
      </g>
     </g>
    </g>
    <g id="xtick_23">
     <g id="line2d_31">
      <g>
       <use style="fill:#262626;stroke:#262626;stroke-width:0.5;" x="373.196171" xlink:href="#m5f7de72c7d" y="512.64"/>
      </g>
     </g>
    </g>
    <g id="xtick_24">
     <g id="line2d_32">
      <g>
       <use style="fill:#262626;stroke:#262626;stroke-width:0.5;" x="383.832423" xlink:href="#m5f7de72c7d" y="512.64"/>
      </g>
     </g>
    </g>
    <g id="xtick_25">
     <g id="line2d_33">
      <g>
       <use style="fill:#262626;stroke:#262626;stroke-width:0.5;" x="393.214262" xlink:href="#m5f7de72c7d" y="512.64"/>
      </g>
     </g>
    </g>
    <g id="xtick_26">
     <g id="line2d_34">
      <g>
       <use style="fill:#262626;stroke:#262626;stroke-width:0.5;" x="456.818252" xlink:href="#m5f7de72c7d" y="512.64"/>
      </g>
     </g>
    </g>
    <g id="xtick_27">
     <g id="line2d_35">
      <g>
       <use style="fill:#262626;stroke:#262626;stroke-width:0.5;" x="489.114996" xlink:href="#m5f7de72c7d" y="512.64"/>
      </g>
     </g>
    </g>
    <g id="xtick_28">
     <g id="line2d_36">
      <g>
       <use style="fill:#262626;stroke:#262626;stroke-width:0.5;" x="512.029901" xlink:href="#m5f7de72c7d" y="512.64"/>
      </g>
     </g>
    </g>
    <g id="xtick_29">
     <g id="line2d_37">
      <g>
       <use style="fill:#262626;stroke:#262626;stroke-width:0.5;" x="529.804081" xlink:href="#m5f7de72c7d" y="512.64"/>
      </g>
     </g>
    </g>
    <g id="xtick_30">
     <g id="line2d_38">
      <g>
       <use style="fill:#262626;stroke:#262626;stroke-width:0.5;" x="544.326645" xlink:href="#m5f7de72c7d" y="512.64"/>
      </g>
     </g>
    </g>
    <g id="xtick_31">
     <g id="line2d_39">
      <g>
       <use style="fill:#262626;stroke:#262626;stroke-width:0.5;" x="556.605297" xlink:href="#m5f7de72c7d" y="512.64"/>
      </g>
     </g>
    </g>
    <g id="xtick_32">
     <g id="line2d_40">
      <g>
       <use style="fill:#262626;stroke:#262626;stroke-width:0.5;" x="567.241549" xlink:href="#m5f7de72c7d" y="512.64"/>
      </g>
     </g>
    </g>
    <g id="xtick_33">
     <g id="line2d_41">
      <g>
       <use style="fill:#262626;stroke:#262626;stroke-width:0.5;" x="576.623389" xlink:href="#m5f7de72c7d" y="512.64"/>
      </g>
     </g>
    </g>
    <g id="xtick_34">
     <g id="line2d_42">
      <g>
       <use style="fill:#262626;stroke:#262626;stroke-width:0.5;" x="640.227378" xlink:href="#m5f7de72c7d" y="512.64"/>
      </g>
     </g>
    </g>
   </g>
   <g id="matplotlib.axis_4">
    <g id="ytick_8">
     <g id="line2d_43">
      <g>
       <use style="fill:#262626;stroke:#262626;" x="90" xlink:href="#mb76835b571" y="512.64"/>
      </g>
     </g>
     <g id="text_17">
      <!-- $\mathdefault{10^{-5}}$ -->
      <defs>
       <path d="M 4.15625 18.75 
L 13.375 19.53125 
Q 14.40625 12.796875 18.140625 9.390625 
Q 21.875 6 27.15625 6 
Q 33.5 6 37.890625 10.78125 
Q 42.28125 15.578125 42.28125 23.484375 
Q 42.28125 31 38.0625 35.34375 
Q 33.84375 39.703125 27 39.703125 
Q 22.75 39.703125 19.328125 37.765625 
Q 15.921875 35.84375 13.96875 32.765625 
L 5.71875 33.84375 
L 12.640625 70.609375 
L 48.25 70.609375 
L 48.25 62.203125 
L 19.671875 62.203125 
L 15.828125 42.96875 
Q 22.265625 47.46875 29.34375 47.46875 
Q 38.71875 47.46875 45.15625 40.96875 
Q 51.609375 34.46875 51.609375 24.265625 
Q 51.609375 14.546875 45.953125 7.46875 
Q 39.0625 -1.21875 27.15625 -1.21875 
Q 17.390625 -1.21875 11.203125 4.25 
Q 5.03125 9.71875 4.15625 18.75 
z
" id="ArialMT-35"/>
      </defs>
      <g style="fill:#262626;" transform="translate(57.2 517.74625)scale(0.1 -0.1)">
       <use transform="translate(0 0.879688)" xlink:href="#ArialMT-31"/>
       <use transform="translate(55.615234 0.879688)" xlink:href="#ArialMT-30"/>
       <use transform="translate(112.972813 70.573438)scale(0.7)" xlink:href="#ArialMT-2212"/>
       <use transform="translate(153.851719 70.573438)scale(0.7)" xlink:href="#ArialMT-35"/>
      </g>
     </g>
    </g>
    <g id="ytick_9">
     <g id="line2d_44">
      <g>
       <use style="fill:#262626;stroke:#262626;" x="90" xlink:href="#mb76835b571" y="465.767507"/>
      </g>
     </g>
     <g id="text_18">
      <!-- $\mathdefault{10^{-4}}$ -->
      <g style="fill:#262626;" transform="translate(57.2 470.873757)scale(0.1 -0.1)">
       <use transform="translate(0 0.201563)" xlink:href="#ArialMT-31"/>
       <use transform="translate(55.615234 0.201563)" xlink:href="#ArialMT-30"/>
       <use transform="translate(112.972813 69.895313)scale(0.7)" xlink:href="#ArialMT-2212"/>
       <use transform="translate(153.851719 69.895313)scale(0.7)" xlink:href="#ArialMT-34"/>
      </g>
     </g>
    </g>
    <g id="ytick_10">
     <g id="line2d_45">
      <g>
       <use style="fill:#262626;stroke:#262626;" x="90" xlink:href="#mb76835b571" y="418.895013"/>
      </g>
     </g>
     <g id="text_19">
      <!-- $\mathdefault{10^{-3}}$ -->
      <g style="fill:#262626;" transform="translate(57.2 424.051263)scale(0.1 -0.1)">
       <use transform="translate(0 0.99375)" xlink:href="#ArialMT-31"/>
       <use transform="translate(55.615234 0.99375)" xlink:href="#ArialMT-30"/>
       <use transform="translate(112.972813 70.6875)scale(0.7)" xlink:href="#ArialMT-2212"/>
       <use transform="translate(153.851719 70.6875)scale(0.7)" xlink:href="#ArialMT-33"/>
      </g>
     </g>
    </g>
    <g id="ytick_11">
     <g id="line2d_46">
      <g>
       <use style="fill:#262626;stroke:#262626;" x="90" xlink:href="#mb76835b571" y="372.02252"/>
      </g>
     </g>
     <g id="text_20">
      <!-- $\mathdefault{10^{-2}}$ -->
      <g style="fill:#262626;" transform="translate(57.2 377.17877)scale(0.1 -0.1)">
       <use transform="translate(0 0.99375)" xlink:href="#ArialMT-31"/>
       <use transform="translate(55.615234 0.99375)" xlink:href="#ArialMT-30"/>
       <use transform="translate(112.972813 70.6875)scale(0.7)" xlink:href="#ArialMT-2212"/>
       <use transform="translate(153.851719 70.6875)scale(0.7)" xlink:href="#ArialMT-32"/>
      </g>
     </g>
    </g>
    <g id="ytick_12">
     <g id="line2d_47">
      <g>
       <use style="fill:#262626;stroke:#262626;" x="90" xlink:href="#mb76835b571" y="325.150026"/>
      </g>
     </g>
     <g id="text_21">
      <!-- $\mathdefault{10^{-1}}$ -->
      <g style="fill:#262626;" transform="translate(57.2 330.306276)scale(0.1 -0.1)">
       <use transform="translate(0 0.99375)" xlink:href="#ArialMT-31"/>
       <use transform="translate(55.615234 0.99375)" xlink:href="#ArialMT-30"/>
       <use transform="translate(112.972813 70.6875)scale(0.7)" xlink:href="#ArialMT-2212"/>
       <use transform="translate(153.851719 70.6875)scale(0.7)" xlink:href="#ArialMT-31"/>
      </g>
     </g>
    </g>
    <g id="ytick_13">
     <g id="line2d_48">
      <defs>
       <path d="M 0 0 
L -3 0 
" id="maefd12012f" style="stroke:#262626;stroke-width:0.5;"/>
      </defs>
      <g>
       <use style="fill:#262626;stroke:#262626;stroke-width:0.5;" x="90" xlink:href="#maefd12012f" y="498.529974"/>
      </g>
     </g>
    </g>
    <g id="ytick_14">
     <g id="line2d_49">
      <g>
       <use style="fill:#262626;stroke:#262626;stroke-width:0.5;" x="90" xlink:href="#maefd12012f" y="490.276137"/>
      </g>
     </g>
    </g>
    <g id="ytick_15">
     <g id="line2d_50">
      <g>
       <use style="fill:#262626;stroke:#262626;stroke-width:0.5;" x="90" xlink:href="#maefd12012f" y="484.419947"/>
      </g>
     </g>
    </g>
    <g id="ytick_16">
     <g id="line2d_51">
      <g>
       <use style="fill:#262626;stroke:#262626;stroke-width:0.5;" x="90" xlink:href="#maefd12012f" y="479.877533"/>
      </g>
     </g>
    </g>
    <g id="ytick_17">
     <g id="line2d_52">
      <g>
       <use style="fill:#262626;stroke:#262626;stroke-width:0.5;" x="90" xlink:href="#maefd12012f" y="476.166111"/>
      </g>
     </g>
    </g>
    <g id="ytick_18">
     <g id="line2d_53">
      <g>
       <use style="fill:#262626;stroke:#262626;stroke-width:0.5;" x="90" xlink:href="#maefd12012f" y="473.028148"/>
      </g>
     </g>
    </g>
    <g id="ytick_19">
     <g id="line2d_54">
      <g>
       <use style="fill:#262626;stroke:#262626;stroke-width:0.5;" x="90" xlink:href="#maefd12012f" y="470.309921"/>
      </g>
     </g>
    </g>
    <g id="ytick_20">
     <g id="line2d_55">
      <g>
       <use style="fill:#262626;stroke:#262626;stroke-width:0.5;" x="90" xlink:href="#maefd12012f" y="467.912274"/>
      </g>
     </g>
    </g>
    <g id="ytick_21">
     <g id="line2d_56">
      <g>
       <use style="fill:#262626;stroke:#262626;stroke-width:0.5;" x="90" xlink:href="#maefd12012f" y="451.65748"/>
      </g>
     </g>
    </g>
    <g id="ytick_22">
     <g id="line2d_57">
      <g>
       <use style="fill:#262626;stroke:#262626;stroke-width:0.5;" x="90" xlink:href="#maefd12012f" y="443.403644"/>
      </g>
     </g>
    </g>
    <g id="ytick_23">
     <g id="line2d_58">
      <g>
       <use style="fill:#262626;stroke:#262626;stroke-width:0.5;" x="90" xlink:href="#maefd12012f" y="437.547454"/>
      </g>
     </g>
    </g>
    <g id="ytick_24">
     <g id="line2d_59">
      <g>
       <use style="fill:#262626;stroke:#262626;stroke-width:0.5;" x="90" xlink:href="#maefd12012f" y="433.00504"/>
      </g>
     </g>
    </g>
    <g id="ytick_25">
     <g id="line2d_60">
      <g>
       <use style="fill:#262626;stroke:#262626;stroke-width:0.5;" x="90" xlink:href="#maefd12012f" y="429.293617"/>
      </g>
     </g>
    </g>
    <g id="ytick_26">
     <g id="line2d_61">
      <g>
       <use style="fill:#262626;stroke:#262626;stroke-width:0.5;" x="90" xlink:href="#maefd12012f" y="426.155654"/>
      </g>
     </g>
    </g>
    <g id="ytick_27">
     <g id="line2d_62">
      <g>
       <use style="fill:#262626;stroke:#262626;stroke-width:0.5;" x="90" xlink:href="#maefd12012f" y="423.437427"/>
      </g>
     </g>
    </g>
    <g id="ytick_28">
     <g id="line2d_63">
      <g>
       <use style="fill:#262626;stroke:#262626;stroke-width:0.5;" x="90" xlink:href="#maefd12012f" y="421.039781"/>
      </g>
     </g>
    </g>
    <g id="ytick_29">
     <g id="line2d_64">
      <g>
       <use style="fill:#262626;stroke:#262626;stroke-width:0.5;" x="90" xlink:href="#maefd12012f" y="404.784987"/>
      </g>
     </g>
    </g>
    <g id="ytick_30">
     <g id="line2d_65">
      <g>
       <use style="fill:#262626;stroke:#262626;stroke-width:0.5;" x="90" xlink:href="#maefd12012f" y="396.53115"/>
      </g>
     </g>
    </g>
    <g id="ytick_31">
     <g id="line2d_66">
      <g>
       <use style="fill:#262626;stroke:#262626;stroke-width:0.5;" x="90" xlink:href="#maefd12012f" y="390.67496"/>
      </g>
     </g>
    </g>
    <g id="ytick_32">
     <g id="line2d_67">
      <g>
       <use style="fill:#262626;stroke:#262626;stroke-width:0.5;" x="90" xlink:href="#maefd12012f" y="386.132546"/>
      </g>
     </g>
    </g>
    <g id="ytick_33">
     <g id="line2d_68">
      <g>
       <use style="fill:#262626;stroke:#262626;stroke-width:0.5;" x="90" xlink:href="#maefd12012f" y="382.421124"/>
      </g>
     </g>
    </g>
    <g id="ytick_34">
     <g id="line2d_69">
      <g>
       <use style="fill:#262626;stroke:#262626;stroke-width:0.5;" x="90" xlink:href="#maefd12012f" y="379.283161"/>
      </g>
     </g>
    </g>
    <g id="ytick_35">
     <g id="line2d_70">
      <g>
       <use style="fill:#262626;stroke:#262626;stroke-width:0.5;" x="90" xlink:href="#maefd12012f" y="376.564934"/>
      </g>
     </g>
    </g>
    <g id="ytick_36">
     <g id="line2d_71">
      <g>
       <use style="fill:#262626;stroke:#262626;stroke-width:0.5;" x="90" xlink:href="#maefd12012f" y="374.167288"/>
      </g>
     </g>
    </g>
    <g id="ytick_37">
     <g id="line2d_72">
      <g>
       <use style="fill:#262626;stroke:#262626;stroke-width:0.5;" x="90" xlink:href="#maefd12012f" y="357.912493"/>
      </g>
     </g>
    </g>
    <g id="ytick_38">
     <g id="line2d_73">
      <g>
       <use style="fill:#262626;stroke:#262626;stroke-width:0.5;" x="90" xlink:href="#maefd12012f" y="349.658657"/>
      </g>
     </g>
    </g>
    <g id="ytick_39">
     <g id="line2d_74">
      <g>
       <use style="fill:#262626;stroke:#262626;stroke-width:0.5;" x="90" xlink:href="#maefd12012f" y="343.802467"/>
      </g>
     </g>
    </g>
    <g id="ytick_40">
     <g id="line2d_75">
      <g>
       <use style="fill:#262626;stroke:#262626;stroke-width:0.5;" x="90" xlink:href="#maefd12012f" y="339.260053"/>
      </g>
     </g>
    </g>
    <g id="ytick_41">
     <g id="line2d_76">
      <g>
       <use style="fill:#262626;stroke:#262626;stroke-width:0.5;" x="90" xlink:href="#maefd12012f" y="335.548631"/>
      </g>
     </g>
    </g>
    <g id="ytick_42">
     <g id="line2d_77">
      <g>
       <use style="fill:#262626;stroke:#262626;stroke-width:0.5;" x="90" xlink:href="#maefd12012f" y="332.410668"/>
      </g>
     </g>
    </g>
    <g id="ytick_43">
     <g id="line2d_78">
      <g>
       <use style="fill:#262626;stroke:#262626;stroke-width:0.5;" x="90" xlink:href="#maefd12012f" y="329.69244"/>
      </g>
     </g>
    </g>
    <g id="ytick_44">
     <g id="line2d_79">
      <g>
       <use style="fill:#262626;stroke:#262626;stroke-width:0.5;" x="90" xlink:href="#maefd12012f" y="327.294794"/>
      </g>
     </g>
    </g>
    <g id="ytick_45">
     <g id="line2d_80">
      <g>
       <use style="fill:#262626;stroke:#262626;stroke-width:0.5;" x="90" xlink:href="#maefd12012f" y="311.04"/>
      </g>
     </g>
    </g>
   </g>
   <g id="line2d_81">
    <path clip-path="url(#pfc7e89ee5e)" d="M -1 369.233987 
L 151.095164 369.220929 
L 206.306812 369.76157 
L 238.603556 392.692436 
L 261.518461 391.138599 
L 279.292642 394.48831 
L 293.815205 361.809552 
L 306.093857 404.191734 
L 316.730109 403.32305 
L 326.111949 402.395382 
L 334.50429 396.894569 
L 342.096086 387.992135 
L 349.026853 343.690123 
L 355.402541 393.757359 
L 361.305505 416.481592 
L 366.801034 423.418712 
L 371.941758 424.203605 
L 376.770725 415.468772 
L 381.323597 382.138562 
L 385.630245 425.189925 
L 389.715939 422.691337 
L 393.602249 411.202179 
L 397.307735 404.155194 
L 400.848476 392.446944 
L 404.238502 360.290127 
L 407.490119 384.103064 
L 410.614189 400.766294 
L 413.620341 414.47573 
L 416.517154 416.493821 
L 419.312303 410.041413 
L 422.012683 385.98061 
L 424.624509 396.997048 
L 427.153406 414.444865 
L 429.604479 423.424634 
L 431.982374 438.08384 
L 434.291335 431.251505 
L 436.535246 417.328917 
L 438.717672 405.025501 
L 440.841893 419.020111 
L 442.910933 426.380916 
L 444.927587 429.575734 
L 446.894442 437.276471 
L 448.813898 454.452079 
L 450.688186 429.07072 
L 452.519383 435.47957 
L 454.309426 433.934582 
L 456.060125 439.881666 
L 457.773171 439.132765 
L 459.45015 446.959893 
L 461.09255 423.582863 
L 462.701768 443.393943 
L 464.279118 445.635841 
L 465.825838 442.04309 
L 467.343094 445.416445 
L 468.83199 447.357617 
L 470.293564 418.013644 
L 471.728802 438.103006 
L 473.138637 442.324623 
L 474.523951 448.255437 
L 477.224331 454.011673 
L 478.540949 448.355779 
L 479.836157 439.92874 
L 481.110642 447.399307 
L 482.365055 464.386803 
L 483.600019 451.645277 
L 484.816127 455.470202 
L 486.013948 448.686976 
L 487.194022 427.65797 
L 488.356869 456.450292 
L 489.502983 463.840016 
L 490.63284 453.333898 
L 491.746894 476.711193 
L 492.845581 451.314791 
L 493.92932 461.336422 
L 494.998512 453.902848 
L 496.053541 460.21231 
L 497.094779 460.50345 
L 498.122582 456.979965 
L 499.137291 467.383723 
L 500.139235 459.26217 
L 501.128734 458.833263 
L 502.10609 461.856848 
L 503.0716 466.831463 
L 504.025546 458.062225 
L 504.968203 468.494513 
L 505.899834 460.369459 
L 506.820695 463.558619 
L 507.731032 480.873292 
L 508.631082 467.772788 
L 509.521075 463.674135 
L 510.401234 469.965032 
L 511.271773 461.55433 
L 512.132901 474.128451 
L 512.984819 465.398523 
L 513.827722 443.389473 
L 514.661799 464.562862 
L 515.487232 461.134891 
L 516.304198 465.652823 
L 517.112871 460.085137 
L 517.913416 466.974826 
L 518.705996 460.376777 
L 519.490766 478.306645 
L 521.037486 459.001739 
L 521.799727 469.210568 
L 522.554743 475.5633 
L 523.302669 473.525815 
L 524.043638 468.643549 
L 524.777778 473.87564 
L 525.505212 461.828681 
L 526.940451 472.002755 
L 527.648487 472.854762 
L 528.350285 468.896097 
L 529.045954 495.725962 
L 529.7356 470.41735 
L 530.419326 469.792487 
L 531.097232 472.082375 
L 531.769418 485.942765 
L 532.435979 476.412006 
L 533.097009 480.268532 
L 533.752597 471.247365 
L 534.402834 478.879799 
L 535.047806 470.560993 
L 535.687597 474.788262 
L 536.32229 485.656569 
L 536.951966 473.459453 
L 537.576703 473.074659 
L 538.811667 471.759883 
L 539.422042 481.319215 
L 540.027776 479.594739 
L 540.628938 481.719162 
L 541.225596 484.595826 
L 541.817819 482.733048 
L 542.405671 474.431763 
L 542.989216 479.549595 
L 543.568517 492.541998 
L 544.143636 483.259613 
L 544.714632 478.444028 
L 545.281563 471.533359 
L 545.844488 472.65298 
L 546.403463 479.04446 
L 546.958543 502.404347 
L 547.509781 472.970318 
L 548.05723 476.645952 
L 548.600942 477.777876 
L 549.140969 475.924357 
L 549.677358 469.578377 
L 550.21016 468.945108 
L 550.739422 475.607565 
L 551.26519 478.175793 
L 551.78751 476.169748 
L 552.306428 478.705777 
L 552.821987 474.220244 
L 553.8432 484.765093 
L 554.348939 475.535057 
L 554.851487 470.809473 
L 555.350884 497.148864 
L 555.847169 489.564825 
L 556.340382 479.448357 
L 556.830559 479.72668 
L 557.317739 473.292415 
L 558.283248 487.625907 
L 558.76165 470.031643 
L 559.237195 473.581735 
L 559.709918 486.686557 
L 560.179852 479.795464 
L 560.647029 478.217131 
L 561.111483 485.83228 
L 561.573244 479.290917 
L 562.032344 490.739784 
L 562.488812 473.182369 
L 562.94268 481.656284 
L 563.393976 483.028151 
L 563.84273 482.097356 
L 564.28897 484.0388 
L 564.732723 480.486009 
L 565.174019 491.949334 
L 565.612882 479.375094 
L 566.049341 481.503281 
L 566.483422 480.633639 
L 566.91515 478.747773 
L 567.34455 478.564009 
L 568.196468 491.122908 
L 568.619034 488.319938 
L 569.039371 477.493914 
L 569.457501 482.554765 
L 569.873447 490.249812 
L 570.287233 482.384852 
L 570.69888 476.76356 
L 571.108411 486.085117 
L 571.515847 483.77395 
L 571.921209 476.390995 
L 572.32452 505.32141 
L 572.725798 478.499298 
L 573.52234 497.459911 
L 573.917644 475.003708 
L 574.310996 486.372199 
L 574.702415 478.526824 
L 575.091919 491.44202 
L 575.479529 478.602176 
L 575.865261 480.295993 
L 576.249135 479.027162 
L 576.631167 493.182881 
L 577.389778 484.929686 
L 577.766391 496.548043 
L 578.141232 485.640317 
L 578.514318 479.163707 
L 578.885664 492.282887 
L 579.255287 488.096739 
L 579.623202 478.109243 
L 579.989426 490.471053 
L 580.353974 489.851659 
L 580.716861 484.051878 
L 581.078102 475.010476 
L 581.437713 486.140521 
L 581.795707 483.509403 
L 582.506904 481.622333 
L 582.860136 487.302508 
L 583.211808 478.817359 
L 583.561934 489.756319 
L 583.910528 491.553809 
L 584.257603 497.682355 
L 584.603172 491.889711 
L 584.947248 495.213305 
L 585.289845 478.951717 
L 585.630974 477.927761 
L 585.970649 496.487753 
L 586.308881 503.236741 
L 586.645683 479.744464 
L 586.981067 488.350829 
L 587.315045 483.571456 
L 587.647628 484.550588 
L 587.978828 505.294081 
L 588.308657 498.081913 
L 588.637126 487.49651 
L 588.964246 484.227917 
L 589.290028 482.769299 
L 589.614483 484.658503 
L 589.937621 488.202206 
L 590.259454 483.864533 
L 590.579992 481.655253 
L 590.899246 493.876556 
L 591.217224 486.813761 
L 591.533939 475.135691 
L 591.849399 481.505971 
L 592.163614 482.759832 
L 592.476596 493.075081 
L 592.788352 496.439831 
L 593.098892 495.203331 
L 593.408227 480.979364 
L 593.716365 492.785821 
L 594.023315 484.862404 
L 594.329088 487.831781 
L 594.633691 487.109338 
L 594.937133 489.868889 
L 595.239424 564.401373 
L 595.540572 512.140252 
L 595.840586 503.453955 
L 596.139474 480.582789 
L 596.437245 479.591192 
L 596.733906 483.755521 
L 597.029467 494.266985 
L 597.323936 489.116348 
L 597.617319 489.811055 
L 597.909626 496.545198 
L 598.491042 476.887385 
L 598.780166 507.938737 
L 599.068244 487.959412 
L 599.355284 492.404096 
L 599.641294 484.577412 
L 599.92628 483.952849 
L 600.21025 477.774309 
L 600.493212 487.427806 
L 600.775172 487.401851 
L 601.056137 513.478988 
L 601.336115 495.392891 
L 601.615112 499.183372 
L 601.893135 480.300326 
L 602.170191 483.036735 
L 602.446287 482.00126 
L 602.721429 511.390442 
L 602.995624 481.266327 
L 603.268878 494.568307 
L 603.541199 474.723231 
L 604.083062 493.609809 
L 604.352617 494.043706 
L 604.621264 477.391454 
L 605.155853 497.963908 
L 605.421809 481.184105 
L 605.686879 486.221099 
L 605.95107 502.625924 
L 606.214388 499.363335 
L 606.476838 484.967739 
L 606.738427 485.60432 
L 606.999159 479.399577 
L 607.25904 501.202353 
L 607.518076 486.048768 
L 607.776273 504.669632 
L 608.033635 483.906809 
L 608.290169 494.634779 
L 608.545879 491.963366 
L 608.80077 491.045881 
L 609.054849 481.488477 
L 609.308119 476.350468 
L 609.812258 494.322856 
L 610.063135 492.520517 
L 610.313225 494.336861 
L 610.562532 483.115151 
L 610.811062 483.821579 
L 611.058818 494.80906 
L 611.305806 493.720733 
L 611.55203 482.223653 
L 611.797496 489.900372 
L 612.042208 480.754222 
L 612.28617 495.361196 
L 612.529387 491.428773 
L 612.771864 489.413411 
L 613.013605 486.345183 
L 613.254614 484.947109 
L 613.494897 495.697057 
L 613.734457 483.716777 
L 613.973298 491.739222 
L 614.448843 486.852236 
L 614.685555 505.182376 
L 614.921566 498.906989 
L 615.15688 487.891953 
L 615.625431 508.549261 
L 615.858678 482.30375 
L 616.091243 492.006587 
L 616.323131 484.314887 
L 616.554347 482.676691 
L 616.784892 503.091669 
L 617.014773 505.082111 
L 617.243992 489.515707 
L 617.472553 489.179021 
L 617.700461 515.742026 
L 617.927718 484.166021 
L 618.154329 484.532845 
L 618.380296 484.418749 
L 618.605625 479.060849 
L 618.830318 496.336348 
L 619.054379 484.027922 
L 619.277811 509.508903 
L 619.500618 507.803038 
L 619.722804 482.502842 
L 619.944372 503.572322 
L 620.165325 481.694792 
L 620.385667 492.512652 
L 620.605401 482.268191 
L 621.043059 489.520341 
L 621.26099 487.08719 
L 621.478326 504.099167 
L 621.69507 510.83743 
L 621.911227 491.052943 
L 622.126798 492.052339 
L 622.556198 482.057413 
L 622.770034 495.669879 
L 622.983296 497.198419 
L 623.195989 480.114332 
L 623.408116 511.952322 
L 623.61968 481.541969 
L 623.830683 506.277136 
L 624.041128 493.204994 
L 624.251019 487.349662 
L 624.460358 474.686883 
L 624.669149 493.431066 
L 624.877394 485.5644 
L 625.085096 490.478079 
L 625.292257 476.625761 
L 625.498881 481.117639 
L 625.704971 506.489955 
L 625.910528 483.430766 
L 626.320059 494.297256 
L 626.524038 496.668242 
L 626.727495 495.622337 
L 626.930435 491.021226 
L 627.132858 523.233494 
L 627.334768 491.392604 
L 627.73706 495.373178 
L 627.937446 489.390443 
L 628.13733 518.683787 
L 628.336713 497.423096 
L 628.535599 499.147093 
L 628.931886 491.679508 
L 629.129293 490.168343 
L 629.326211 518.40318 
L 629.522644 489.629621 
L 629.718594 494.349871 
L 629.914063 492.159605 
L 630.109054 501.940932 
L 630.303568 482.770312 
L 630.497608 496.075622 
L 630.691177 488.437074 
L 630.884277 506.505234 
L 631.07691 499.917546 
L 631.269078 497.2794 
L 631.460783 479.945353 
L 631.652028 495.539727 
L 631.842815 496.228679 
L 632.033146 490.376693 
L 632.223024 498.193168 
L 632.41245 487.253195 
L 632.601426 483.261577 
L 632.789956 483.034289 
L 632.97804 501.235366 
L 633.165681 481.961608 
L 633.352881 492.131453 
L 633.539642 486.305487 
L 633.725966 539.62463 
L 633.911856 483.975495 
L 634.097312 499.155982 
L 634.282338 484.953834 
L 634.466935 499.76133 
L 634.651105 486.842818 
L 634.83485 483.014361 
L 635.018173 486.490152 
L 635.201074 497.176248 
L 635.383557 490.962825 
L 635.565622 496.912788 
L 635.747272 511.232123 
L 635.928509 488.190052 
L 636.289751 493.099523 
L 636.469759 498.583186 
L 636.649361 494.518885 
L 636.828559 499.333789 
L 637.007355 495.525189 
L 637.185751 514.130967 
L 637.363748 502.003421 
L 637.541348 505.410751 
L 637.718553 524.287433 
L 637.895364 501.192715 
L 638.071784 540.816286 
L 638.247814 485.49146 
L 638.598712 505.174889 
L 639.122176 479.63059 
L 639.295903 484.974139 
L 639.469251 480.33142 
L 639.642223 489.018302 
L 639.81482 486.461166 
L 640.158897 500.459585 
L 640.330379 495.843849 
L 640.501493 535.525003 
L 640.67224 480.718491 
L 640.842622 482.587183 
L 641.012641 492.233969 
L 641.182297 490.299907 
L 641.351593 477.463932 
L 641.689108 484.549019 
L 641.857331 495.859125 
L 642.0252 481.439751 
L 642.192715 495.530616 
L 642.526693 482.646865 
L 642.693158 493.973189 
L 642.859276 495.076584 
L 643.190477 484.334742 
L 643.355562 494.463259 
L 643.684709 483.831005 
L 643.848774 488.145958 
L 644.012502 483.935621 
L 644.175894 489.965915 
L 644.338952 508.962477 
L 644.501676 490.596138 
L 644.664069 501.422843 
L 644.826131 519.664951 
L 644.987864 486.544433 
L 645.14927 495.269182 
L 645.310349 489.358086 
L 645.471103 499.403279 
L 645.791641 488.268919 
L 645.951427 528.904027 
L 646.110894 482.408619 
L 646.270042 484.564321 
L 646.428873 502.704498 
L 646.745587 484.92017 
L 646.903473 503.7096 
L 647.061047 491.737106 
L 647.21831 498.543488 
L 647.375263 487.451665 
L 647.688244 504.055671 
L 647.844274 501.643307 
L 647.844274 501.643307 
" style="fill:none;stroke:#b22222;stroke-linecap:round;stroke-width:1.75;"/>
   </g>
   <g id="patch_6">
    <path d="M 90 512.64 
L 90 311.04 
" style="fill:none;stroke:#262626;stroke-linecap:square;stroke-linejoin:miter;stroke-width:1.25;"/>
   </g>
   <g id="patch_7">
    <path d="M 90 512.64 
L 648 512.64 
" style="fill:none;stroke:#262626;stroke-linecap:square;stroke-linejoin:miter;stroke-width:1.25;"/>
   </g>
  </g>
 </g>
 <defs>
  <clipPath id="p87ee477da2">
   <rect height="201.6" width="558" x="90" y="69.12"/>
  </clipPath>
  <clipPath id="pfc7e89ee5e">
   <rect height="201.6" width="558" x="90" y="311.04"/>
  </clipPath>
 </defs>
</svg>
