<?xml version="1.0" encoding="utf-8" standalone="no"?>
<!DOCTYPE svg PUBLIC "-//W3C//DTD SVG 1.1//EN"
  "http://www.w3.org/Graphics/SVG/1.1/DTD/svg11.dtd">
<!-- Created with matplotlib (http://matplotlib.org/) -->
<svg height="576pt" version="1.1" viewBox="0 0 720 576" width="720pt" xmlns="http://www.w3.org/2000/svg" xmlns:xlink="http://www.w3.org/1999/xlink">
 <defs>
  <style type="text/css">
*{stroke-linecap:butt;stroke-linejoin:round;}
  </style>
 </defs>
 <g id="figure_1">
  <g id="patch_1">
   <path d="M 0 576 
L 720 576 
L 720 0 
L 0 0 
z
" style="fill:#ffffff;"/>
  </g>
  <g id="axes_1">
   <g id="patch_2">
    <path d="M 90 270.72 
L 648 270.72 
L 648 69.12 
L 90 69.12 
z
" style="fill:#ffffff;"/>
   </g>
   <g id="matplotlib.axis_1">
    <g id="xtick_1">
     <g id="line2d_1">
      <defs>
       <path d="M 0 0 
L 0 6 
" id="m3f345000ef" style="stroke:#262626;"/>
      </defs>
      <g>
       <use style="fill:#262626;stroke:#262626;" x="90" xlink:href="#m3f345000ef" y="270.72"/>
      </g>
     </g>
     <g id="text_1">
      <!-- 0 -->
      <defs>
       <path d="M 4.15625 35.296875 
Q 4.15625 48 6.765625 55.734375 
Q 9.375 63.484375 14.515625 67.671875 
Q 19.671875 71.875 27.484375 71.875 
Q 33.25 71.875 37.59375 69.546875 
Q 41.9375 67.234375 44.765625 62.859375 
Q 47.609375 58.5 49.21875 52.21875 
Q 50.828125 45.953125 50.828125 35.296875 
Q 50.828125 22.703125 48.234375 14.96875 
Q 45.65625 7.234375 40.5 3 
Q 35.359375 -1.21875 27.484375 -1.21875 
Q 17.140625 -1.21875 11.234375 6.203125 
Q 4.15625 15.140625 4.15625 35.296875 
z
M 13.1875 35.296875 
Q 13.1875 17.671875 17.3125 11.828125 
Q 21.4375 6 27.484375 6 
Q 33.546875 6 37.671875 11.859375 
Q 41.796875 17.71875 41.796875 35.296875 
Q 41.796875 52.984375 37.671875 58.78125 
Q 33.546875 64.59375 27.390625 64.59375 
Q 21.34375 64.59375 17.71875 59.46875 
Q 13.1875 52.9375 13.1875 35.296875 
z
" id="ArialMT-30"/>
      </defs>
      <g style="fill:#262626;" transform="translate(87.219531 290.877812)scale(0.1 -0.1)">
       <use xlink:href="#ArialMT-30"/>
      </g>
     </g>
    </g>
    <g id="xtick_2">
     <g id="line2d_2">
      <g>
       <use style="fill:#262626;stroke:#262626;" x="198.984375" xlink:href="#m3f345000ef" y="270.72"/>
      </g>
     </g>
     <g id="text_2">
      <!-- 200 -->
      <defs>
       <path d="M 50.34375 8.453125 
L 50.34375 0 
L 3.03125 0 
Q 2.9375 3.171875 4.046875 6.109375 
Q 5.859375 10.9375 9.828125 15.625 
Q 13.8125 20.3125 21.34375 26.46875 
Q 33.015625 36.03125 37.109375 41.625 
Q 41.21875 47.21875 41.21875 52.203125 
Q 41.21875 57.421875 37.46875 61 
Q 33.734375 64.59375 27.734375 64.59375 
Q 21.390625 64.59375 17.578125 60.78125 
Q 13.765625 56.984375 13.71875 50.25 
L 4.6875 51.171875 
Q 5.609375 61.28125 11.65625 66.578125 
Q 17.71875 71.875 27.9375 71.875 
Q 38.234375 71.875 44.234375 66.15625 
Q 50.25 60.453125 50.25 52 
Q 50.25 47.703125 48.484375 43.546875 
Q 46.734375 39.40625 42.65625 34.8125 
Q 38.578125 30.21875 29.109375 22.21875 
Q 21.1875 15.578125 18.9375 13.203125 
Q 16.703125 10.84375 15.234375 8.453125 
z
" id="ArialMT-32"/>
      </defs>
      <g style="fill:#262626;" transform="translate(190.642969 290.877812)scale(0.1 -0.1)">
       <use xlink:href="#ArialMT-32"/>
       <use x="55.615234" xlink:href="#ArialMT-30"/>
       <use x="111.230469" xlink:href="#ArialMT-30"/>
      </g>
     </g>
    </g>
    <g id="xtick_3">
     <g id="line2d_3">
      <g>
       <use style="fill:#262626;stroke:#262626;" x="307.96875" xlink:href="#m3f345000ef" y="270.72"/>
      </g>
     </g>
     <g id="text_3">
      <!-- 400 -->
      <defs>
       <path d="M 32.328125 0 
L 32.328125 17.140625 
L 1.265625 17.140625 
L 1.265625 25.203125 
L 33.9375 71.578125 
L 41.109375 71.578125 
L 41.109375 25.203125 
L 50.78125 25.203125 
L 50.78125 17.140625 
L 41.109375 17.140625 
L 41.109375 0 
z
M 32.328125 25.203125 
L 32.328125 57.46875 
L 9.90625 25.203125 
z
" id="ArialMT-34"/>
      </defs>
      <g style="fill:#262626;" transform="translate(299.627344 290.877812)scale(0.1 -0.1)">
       <use xlink:href="#ArialMT-34"/>
       <use x="55.615234" xlink:href="#ArialMT-30"/>
       <use x="111.230469" xlink:href="#ArialMT-30"/>
      </g>
     </g>
    </g>
    <g id="xtick_4">
     <g id="line2d_4">
      <g>
       <use style="fill:#262626;stroke:#262626;" x="416.953125" xlink:href="#m3f345000ef" y="270.72"/>
      </g>
     </g>
     <g id="text_4">
      <!-- 600 -->
      <defs>
       <path d="M 49.75 54.046875 
L 41.015625 53.375 
Q 39.84375 58.546875 37.703125 60.890625 
Q 34.125 64.65625 28.90625 64.65625 
Q 24.703125 64.65625 21.53125 62.3125 
Q 17.390625 59.28125 14.984375 53.46875 
Q 12.59375 47.65625 12.5 36.921875 
Q 15.671875 41.75 20.265625 44.09375 
Q 24.859375 46.4375 29.890625 46.4375 
Q 38.671875 46.4375 44.84375 39.96875 
Q 51.03125 33.5 51.03125 23.25 
Q 51.03125 16.5 48.125 10.71875 
Q 45.21875 4.9375 40.140625 1.859375 
Q 35.0625 -1.21875 28.609375 -1.21875 
Q 17.625 -1.21875 10.6875 6.859375 
Q 3.765625 14.9375 3.765625 33.5 
Q 3.765625 54.25 11.421875 63.671875 
Q 18.109375 71.875 29.4375 71.875 
Q 37.890625 71.875 43.28125 67.140625 
Q 48.6875 62.40625 49.75 54.046875 
z
M 13.875 23.1875 
Q 13.875 18.65625 15.796875 14.5 
Q 17.71875 10.359375 21.1875 8.171875 
Q 24.65625 6 28.46875 6 
Q 34.03125 6 38.03125 10.484375 
Q 42.046875 14.984375 42.046875 22.703125 
Q 42.046875 30.125 38.078125 34.390625 
Q 34.125 38.671875 28.125 38.671875 
Q 22.171875 38.671875 18.015625 34.390625 
Q 13.875 30.125 13.875 23.1875 
z
" id="ArialMT-36"/>
      </defs>
      <g style="fill:#262626;" transform="translate(408.611719 290.877812)scale(0.1 -0.1)">
       <use xlink:href="#ArialMT-36"/>
       <use x="55.615234" xlink:href="#ArialMT-30"/>
       <use x="111.230469" xlink:href="#ArialMT-30"/>
      </g>
     </g>
    </g>
    <g id="xtick_5">
     <g id="line2d_5">
      <g>
       <use style="fill:#262626;stroke:#262626;" x="525.9375" xlink:href="#m3f345000ef" y="270.72"/>
      </g>
     </g>
     <g id="text_5">
      <!-- 800 -->
      <defs>
       <path d="M 17.671875 38.8125 
Q 12.203125 40.828125 9.5625 44.53125 
Q 6.9375 48.25 6.9375 53.421875 
Q 6.9375 61.234375 12.546875 66.546875 
Q 18.171875 71.875 27.484375 71.875 
Q 36.859375 71.875 42.578125 66.421875 
Q 48.296875 60.984375 48.296875 53.171875 
Q 48.296875 48.1875 45.671875 44.5 
Q 43.0625 40.828125 37.75 38.8125 
Q 44.34375 36.671875 47.78125 31.875 
Q 51.21875 27.09375 51.21875 20.453125 
Q 51.21875 11.28125 44.71875 5.03125 
Q 38.234375 -1.21875 27.640625 -1.21875 
Q 17.046875 -1.21875 10.546875 5.046875 
Q 4.046875 11.328125 4.046875 20.703125 
Q 4.046875 27.6875 7.59375 32.390625 
Q 11.140625 37.109375 17.671875 38.8125 
z
M 15.921875 53.71875 
Q 15.921875 48.640625 19.1875 45.40625 
Q 22.46875 42.1875 27.6875 42.1875 
Q 32.765625 42.1875 36.015625 45.375 
Q 39.265625 48.578125 39.265625 53.21875 
Q 39.265625 58.0625 35.90625 61.359375 
Q 32.5625 64.65625 27.59375 64.65625 
Q 22.5625 64.65625 19.234375 61.421875 
Q 15.921875 58.203125 15.921875 53.71875 
z
M 13.09375 20.65625 
Q 13.09375 16.890625 14.875 13.375 
Q 16.65625 9.859375 20.171875 7.921875 
Q 23.6875 6 27.734375 6 
Q 34.03125 6 38.125 10.046875 
Q 42.234375 14.109375 42.234375 20.359375 
Q 42.234375 26.703125 38.015625 30.859375 
Q 33.796875 35.015625 27.4375 35.015625 
Q 21.234375 35.015625 17.15625 30.90625 
Q 13.09375 26.8125 13.09375 20.65625 
z
" id="ArialMT-38"/>
      </defs>
      <g style="fill:#262626;" transform="translate(517.596094 290.877812)scale(0.1 -0.1)">
       <use xlink:href="#ArialMT-38"/>
       <use x="55.615234" xlink:href="#ArialMT-30"/>
       <use x="111.230469" xlink:href="#ArialMT-30"/>
      </g>
     </g>
    </g>
    <g id="xtick_6">
     <g id="line2d_6">
      <g>
       <use style="fill:#262626;stroke:#262626;" x="634.921875" xlink:href="#m3f345000ef" y="270.72"/>
      </g>
     </g>
     <g id="text_6">
      <!-- 1000 -->
      <defs>
       <path d="M 37.25 0 
L 28.46875 0 
L 28.46875 56 
Q 25.296875 52.984375 20.140625 49.953125 
Q 14.984375 46.921875 10.890625 45.40625 
L 10.890625 53.90625 
Q 18.265625 57.375 23.78125 62.296875 
Q 29.296875 67.234375 31.59375 71.875 
L 37.25 71.875 
z
" id="ArialMT-31"/>
      </defs>
      <g style="fill:#262626;" transform="translate(623.8 290.877812)scale(0.1 -0.1)">
       <use xlink:href="#ArialMT-31"/>
       <use x="55.615234" xlink:href="#ArialMT-30"/>
       <use x="111.230469" xlink:href="#ArialMT-30"/>
       <use x="166.845703" xlink:href="#ArialMT-30"/>
      </g>
     </g>
    </g>
   </g>
   <g id="matplotlib.axis_2">
    <g id="ytick_1">
     <g id="line2d_7">
      <defs>
       <path d="M 0 0 
L -6 0 
" id="m1a4300fb08" style="stroke:#262626;"/>
      </defs>
      <g>
       <use style="fill:#262626;stroke:#262626;" x="90" xlink:href="#m1a4300fb08" y="270.72"/>
      </g>
     </g>
     <g id="text_7">
      <!-- −0.6 -->
      <defs>
       <path d="M 52.828125 31.203125 
L 5.5625 31.203125 
L 5.5625 39.40625 
L 52.828125 39.40625 
z
" id="ArialMT-2212"/>
       <path d="M 9.078125 0 
L 9.078125 10.015625 
L 19.09375 10.015625 
L 19.09375 0 
z
" id="ArialMT-2e"/>
      </defs>
      <g style="fill:#262626;" transform="translate(57.259375 274.298906)scale(0.1 -0.1)">
       <use xlink:href="#ArialMT-2212"/>
       <use x="58.398438" xlink:href="#ArialMT-30"/>
       <use x="114.013672" xlink:href="#ArialMT-2e"/>
       <use x="141.796875" xlink:href="#ArialMT-36"/>
      </g>
     </g>
    </g>
    <g id="ytick_2">
     <g id="line2d_8">
      <g>
       <use style="fill:#262626;stroke:#262626;" x="90" xlink:href="#m1a4300fb08" y="237.12"/>
      </g>
     </g>
     <g id="text_8">
      <!-- −0.4 -->
      <g style="fill:#262626;" transform="translate(57.259375 240.698906)scale(0.1 -0.1)">
       <use xlink:href="#ArialMT-2212"/>
       <use x="58.398438" xlink:href="#ArialMT-30"/>
       <use x="114.013672" xlink:href="#ArialMT-2e"/>
       <use x="141.796875" xlink:href="#ArialMT-34"/>
      </g>
     </g>
    </g>
    <g id="ytick_3">
     <g id="line2d_9">
      <g>
       <use style="fill:#262626;stroke:#262626;" x="90" xlink:href="#m1a4300fb08" y="203.52"/>
      </g>
     </g>
     <g id="text_9">
      <!-- −0.2 -->
      <g style="fill:#262626;" transform="translate(57.259375 207.098906)scale(0.1 -0.1)">
       <use xlink:href="#ArialMT-2212"/>
       <use x="58.398438" xlink:href="#ArialMT-30"/>
       <use x="114.013672" xlink:href="#ArialMT-2e"/>
       <use x="141.796875" xlink:href="#ArialMT-32"/>
      </g>
     </g>
    </g>
    <g id="ytick_4">
     <g id="line2d_10">
      <g>
       <use style="fill:#262626;stroke:#262626;" x="90" xlink:href="#m1a4300fb08" y="169.92"/>
      </g>
     </g>
     <g id="text_10">
      <!-- 0.0 -->
      <g style="fill:#262626;" transform="translate(63.1 173.498906)scale(0.1 -0.1)">
       <use xlink:href="#ArialMT-30"/>
       <use x="55.615234" xlink:href="#ArialMT-2e"/>
       <use x="83.398438" xlink:href="#ArialMT-30"/>
      </g>
     </g>
    </g>
    <g id="ytick_5">
     <g id="line2d_11">
      <g>
       <use style="fill:#262626;stroke:#262626;" x="90" xlink:href="#m1a4300fb08" y="136.32"/>
      </g>
     </g>
     <g id="text_11">
      <!-- 0.2 -->
      <g style="fill:#262626;" transform="translate(63.1 139.898906)scale(0.1 -0.1)">
       <use xlink:href="#ArialMT-30"/>
       <use x="55.615234" xlink:href="#ArialMT-2e"/>
       <use x="83.398438" xlink:href="#ArialMT-32"/>
      </g>
     </g>
    </g>
    <g id="ytick_6">
     <g id="line2d_12">
      <g>
       <use style="fill:#262626;stroke:#262626;" x="90" xlink:href="#m1a4300fb08" y="102.72"/>
      </g>
     </g>
     <g id="text_12">
      <!-- 0.4 -->
      <g style="fill:#262626;" transform="translate(63.1 106.298906)scale(0.1 -0.1)">
       <use xlink:href="#ArialMT-30"/>
       <use x="55.615234" xlink:href="#ArialMT-2e"/>
       <use x="83.398438" xlink:href="#ArialMT-34"/>
      </g>
     </g>
    </g>
    <g id="ytick_7">
     <g id="line2d_13">
      <g>
       <use style="fill:#262626;stroke:#262626;" x="90" xlink:href="#m1a4300fb08" y="69.12"/>
      </g>
     </g>
     <g id="text_13">
      <!-- 0.6 -->
      <g style="fill:#262626;" transform="translate(63.1 72.698906)scale(0.1 -0.1)">
       <use xlink:href="#ArialMT-30"/>
       <use x="55.615234" xlink:href="#ArialMT-2e"/>
       <use x="83.398438" xlink:href="#ArialMT-36"/>
      </g>
     </g>
    </g>
   </g>
   <g id="line2d_14">
    <path clip-path="url(#p1fb32a1f61)" d="M 90 182.973223 
L 92.724609 190.550859 
L 93.814453 192.524736 
L 94.359375 192.827227 
L 94.904297 193.514238 
L 95.449219 193.688555 
L 95.994141 193.621904 
L 96.539062 193.19124 
L 97.083984 192.596514 
L 97.628906 191.745439 
L 98.71875 189.197344 
L 99.808594 185.598223 
L 101.443359 181.060869 
L 102.533203 178.497393 
L 103.623047 176.195391 
L 104.712891 174.354814 
L 105.257812 173.416582 
L 107.982422 170.084062 
L 108.527344 169.366289 
L 109.072266 169.202227 
L 109.617188 168.653643 
L 110.162109 168.310137 
L 112.341797 166.264482 
L 113.431641 164.43416 
L 114.521484 162.106523 
L 115.611328 159.30208 
L 116.701172 156.343828 
L 118.880859 151.811602 
L 119.970703 150.857988 
L 120.515625 150.740068 
L 121.605469 150.991289 
L 122.150391 151.545 
L 122.695312 152.416582 
L 123.240234 153.606035 
L 124.875 159.009844 
L 128.144531 172.42708 
L 129.234375 176.395342 
L 130.869141 182.450273 
L 132.503906 187.679766 
L 134.138672 191.724932 
L 136.318359 195.764971 
L 136.863281 196.200762 
L 137.953125 197.379961 
L 138.498047 197.78499 
L 139.042969 197.682451 
L 139.587891 197.969561 
L 140.132812 197.959307 
L 140.677734 197.749102 
L 141.222656 197.333818 
L 141.767578 197.18001 
L 142.3125 196.733965 
L 142.857422 196.462236 
L 143.402344 195.836748 
L 143.947266 195.759844 
L 144.492188 195.406084 
L 145.037109 194.719072 
L 145.582031 194.467852 
L 146.126953 193.627031 
L 146.671875 193.119463 
L 148.851562 188.971758 
L 153.210938 178.861406 
L 154.845703 175.718584 
L 155.935547 173.283281 
L 158.660156 168.48958 
L 159.75 167.679521 
L 160.294922 167.484697 
L 160.839844 167.469316 
L 161.384766 167.048906 
L 161.929688 166.946367 
L 163.019531 167.171953 
L 163.564453 167.038652 
L 165.199219 167.330889 
L 165.744141 167.105303 
L 166.833984 167.171953 
L 167.923828 166.295244 
L 169.558594 165.341631 
L 170.103516 164.752031 
L 170.648438 164.526445 
L 171.193359 163.982988 
L 171.738281 163.131914 
L 172.283203 163.208818 
L 172.828125 162.88582 
L 173.373047 163.065264 
L 173.917969 163.039629 
L 174.462891 163.572832 
L 175.552734 164.111162 
L 176.642578 165.715898 
L 178.822266 171.11458 
L 180.457031 176.461992 
L 181.546875 180.009844 
L 183.726562 187.618242 
L 185.361328 191.709551 
L 185.90625 192.519609 
L 186.451172 192.863115 
L 186.996094 193.406572 
L 188.085938 193.206621 
L 188.630859 192.627275 
L 189.175781 191.545488 
L 189.720703 190.725176 
L 192.990234 181.809404 
L 194.625 177.72835 
L 195.714844 175.636553 
L 196.259766 174.27791 
L 198.984375 169.745684 
L 199.529297 169.166338 
L 201.164062 168.038408 
L 201.708984 167.910234 
L 202.253906 167.22835 
L 202.798828 166.930986 
L 203.34375 166.433672 
L 203.888672 165.721025 
L 204.433594 164.823809 
L 205.523438 162.34749 
L 206.613281 159.768633 
L 208.248047 155.405596 
L 209.337891 152.872881 
L 209.882812 151.421953 
L 211.517578 148.422686 
L 212.0625 147.96126 
L 213.152344 147.868975 
L 213.697266 148.099687 
L 214.242188 148.796953 
L 215.332031 151.273271 
L 218.056641 160.31209 
L 219.691406 166.28499 
L 220.236328 168.058916 
L 221.871094 174.467607 
L 225.140625 185.562334 
L 226.230469 188.207842 
L 227.320312 191.012285 
L 228.410156 192.504229 
L 229.5 193.386064 
L 230.044922 193.324541 
L 230.589844 193.586016 
L 231.679688 193.165605 
L 232.224609 193.022051 
L 232.769531 193.037432 
L 233.314453 192.914385 
L 233.859375 192.360674 
L 234.404297 192.206865 
L 234.949219 191.581377 
L 235.494141 191.401934 
L 236.039062 190.817461 
L 236.583984 190.561113 
L 237.128906 190.181719 
L 238.21875 188.971758 
L 238.763672 188.510332 
L 239.853516 186.597979 
L 240.398438 185.326494 
L 242.033203 182.311846 
L 244.212891 178.071855 
L 245.302734 175.569902 
L 246.9375 171.258135 
L 248.572266 167.259111 
L 249.117188 166.03377 
L 249.662109 165.100664 
L 250.207031 163.808672 
L 250.751953 163.465166 
L 251.841797 162.132158 
L 252.931641 161.552812 
L 253.476562 161.281084 
L 254.566406 161.332354 
L 255.111328 161.33748 
L 255.65625 161.583574 
L 256.201172 162.080889 
L 256.746094 162.383379 
L 257.291016 162.367998 
L 258.380859 162.798662 
L 258.925781 162.814043 
L 259.470703 162.608965 
L 260.015625 162.58333 
L 260.560547 162.193682 
L 261.105469 162.193682 
L 261.650391 161.491289 
L 263.830078 159.532793 
L 266.009766 158.979082 
L 266.554688 159.296953 
L 267.099609 159.753252 
L 267.644531 159.922441 
L 268.189453 160.537676 
L 269.824219 163.495928 
L 271.458984 167.735918 
L 272.548828 171.447832 
L 274.183594 177.502764 
L 275.818359 183.296221 
L 277.998047 188.310381 
L 278.542969 188.623125 
L 279.632812 188.643633 
L 280.177734 188.330889 
L 281.8125 185.97249 
L 283.447266 182.014482 
L 283.992188 180.850664 
L 285.082031 177.779619 
L 285.626953 176.646562 
L 286.171875 175.190508 
L 286.716797 174.057451 
L 287.806641 171.504229 
L 288.351562 170.530107 
L 288.896484 169.309893 
L 291.076172 166.10042 
L 291.621094 165.715898 
L 292.166016 165.157061 
L 292.710938 164.259844 
L 293.255859 163.911211 
L 295.435547 161.404131 
L 298.160156 155.841387 
L 301.429688 146.910234 
L 302.519531 144.736406 
L 303.064453 144.126299 
L 303.609375 143.147051 
L 304.699219 143.049639 
L 305.244141 143.331621 
L 305.789062 143.97249 
L 307.423828 147.13582 
L 310.148438 155.338945 
L 316.142578 176.692705 
L 318.322266 183.378252 
L 319.957031 186.93123 
L 321.046875 187.807939 
L 321.591797 188.428301 
L 322.681641 189.038408 
L 323.226562 189.007646 
L 324.316406 189.515215 
L 324.861328 189.592119 
L 325.40625 189.858721 
L 327.041016 189.884355 
L 328.675781 188.894854 
L 329.765625 187.920732 
L 330.310547 186.844072 
L 330.855469 186.095537 
L 331.400391 185.018877 
L 331.945312 184.203691 
L 332.490234 183.055254 
L 333.580078 181.337725 
L 334.669922 178.835771 
L 335.759766 176.441484 
L 340.119141 164.926348 
L 341.753906 162.060381 
L 342.84375 160.829912 
L 343.388672 160.265947 
L 344.478516 159.809648 
L 345.023438 159.578936 
L 345.568359 159.758379 
L 346.113281 159.666094 
L 347.203125 159.989092 
L 347.748047 160.255693 
L 348.292969 160.168535 
L 349.927734 160.506914 
L 350.472656 160.342852 
L 351.5625 159.599443 
L 352.107422 159.327715 
L 353.197266 158.189531 
L 354.832031 156.287432 
L 355.376953 155.964434 
L 355.921875 155.354326 
L 357.011719 154.872393 
L 358.101562 154.851885 
L 359.191406 155.241533 
L 360.28125 156.55916 
L 360.826172 157.174395 
L 361.371094 158.256182 
L 363.550781 164.388018 
L 364.640625 168.448564 
L 365.730469 173.25252 
L 367.910156 180.942949 
L 368.455078 182.481035 
L 369.544922 184.531816 
L 370.089844 185.418779 
L 371.179688 186.064775 
L 371.724609 185.921221 
L 372.814453 184.818926 
L 373.904297 183.050127 
L 374.994141 181.173662 
L 376.083984 178.153887 
L 379.898438 168.874102 
L 381.533203 166.090166 
L 382.078125 165.413408 
L 382.623047 165.049395 
L 383.167969 164.403398 
L 384.257812 163.685625 
L 384.802734 163.393389 
L 385.892578 162.557695 
L 386.4375 162.260332 
L 387.527344 161.03499 
L 389.162109 158.015215 
L 391.341797 152.190996 
L 392.976562 147.474199 
L 394.611328 143.987871 
L 395.15625 143.644365 
L 395.701172 142.89583 
L 396.791016 142.639482 
L 397.335938 142.916338 
L 398.425781 143.992998 
L 398.970703 145.259355 
L 399.515625 146.095049 
L 402.785156 155.308184 
L 404.419922 160.983721 
L 406.054688 167.002764 
L 407.144531 171.258135 
L 408.779297 177.359209 
L 410.414062 181.773516 
L 411.503906 183.860186 
L 412.048828 184.30623 
L 412.59375 185.290605 
L 413.138672 185.541826 
L 413.683594 186.531328 
L 414.773438 187.633623 
L 415.318359 188.166826 
L 415.863281 188.202715 
L 416.408203 188.828203 
L 416.953125 188.638506 
L 417.498047 189.228105 
L 418.042969 189.294756 
L 418.587891 188.905107 
L 419.677734 188.561602 
L 420.222656 188.136064 
L 421.857422 186.121172 
L 422.947266 184.839434 
L 425.126953 180.983965 
L 426.761719 177.436113 
L 428.396484 173.160234 
L 429.486328 170.765947 
L 432.210938 164.121416 
L 433.845703 160.824785 
L 436.025391 158.850908 
L 437.660156 158.958574 
L 440.384766 160.255693 
L 441.474609 160.327471 
L 443.109375 159.983965 
L 444.744141 158.533037 
L 445.289062 157.666582 
L 446.923828 156.32332 
L 447.46875 155.923418 
L 448.013672 155.800371 
L 448.558594 155.328691 
L 449.103516 155.077471 
L 450.738281 155.164629 
L 451.828125 155.626055 
L 452.917969 157.123125 
L 454.007812 159.343096 
L 454.552734 160.835039 
L 456.1875 166.859209 
L 459.457031 179.691973 
L 461.636719 184.393389 
L 462.181641 185.290605 
L 462.726562 185.803301 
L 463.271484 186.080156 
L 464.361328 185.567461 
L 465.451172 184.30623 
L 465.996094 183.291094 
L 467.630859 179.102373 
L 468.720703 176.487627 
L 470.355469 172.257891 
L 471.445312 170.007158 
L 472.535156 167.930742 
L 474.169922 165.86458 
L 475.259766 164.834062 
L 475.804688 164.659746 
L 477.984375 163.039629 
L 479.074219 161.757891 
L 480.164062 159.768633 
L 480.708984 158.497148 
L 482.888672 152.175615 
L 483.978516 149.253252 
L 485.068359 146.366777 
L 486.158203 144.028887 
L 487.248047 142.665117 
L 487.792969 142.106279 
L 488.882812 142.162676 
L 490.517578 143.418779 
L 491.607422 145.300371 
L 493.787109 150.227373 
L 494.332031 151.580889 
L 494.876953 153.585527 
L 495.421875 155.118486 
L 496.511719 159.36873 
L 498.146484 165.869707 
L 499.236328 170.068682 
L 500.871094 175.005937 
L 502.505859 179.215166 
L 504.140625 182.286211 
L 504.685547 183.050127 
L 505.230469 184.152422 
L 505.775391 184.988115 
L 506.320312 185.480303 
L 507.955078 187.418291 
L 508.5 187.75667 
L 509.589844 188.069414 
L 510.679688 188.34627 
L 511.224609 188.028398 
L 511.769531 188.043779 
L 513.404297 187.054277 
L 515.039062 185.136797 
L 515.583984 184.142168 
L 516.128906 183.434648 
L 518.853516 177.37459 
L 523.757812 163.906084 
L 524.302734 163.024248 
L 524.847656 161.768145 
L 525.9375 160.096758 
L 526.482422 159.281572 
L 527.572266 158.415117 
L 528.117188 158.445879 
L 528.662109 158.297197 
L 529.207031 158.420244 
L 529.751953 158.666338 
L 530.296875 158.768877 
L 530.841797 159.179033 
L 531.386719 159.204668 
L 531.931641 159.404619 
L 533.021484 159.163652 
L 533.566406 159.045732 
L 534.65625 158.40999 
L 535.201172 158.17415 
L 536.291016 157.317949 
L 536.835938 156.800127 
L 538.470703 155.774736 
L 539.015625 155.441484 
L 539.560547 154.857012 
L 540.650391 154.267412 
L 541.740234 153.385576 
L 542.285156 153.206133 
L 543.375 153.375322 
L 544.464844 154.626299 
L 545.009766 155.215898 
L 547.189453 161.583574 
L 549.369141 169.950762 
L 552.09375 179.312578 
L 552.638672 180.763506 
L 553.728516 182.783525 
L 555.363281 183.998613 
L 555.908203 183.793535 
L 556.453125 183.732012 
L 557.542969 182.763018 
L 559.177734 179.758623 
L 560.267578 177.343828 
L 562.992188 171.037676 
L 564.626953 168.084551 
L 565.716797 166.582354 
L 566.261719 166.331133 
L 567.351562 165.398027 
L 568.441406 164.839189 
L 570.076172 163.521562 
L 571.166016 162.121904 
L 572.255859 160.163408 
L 572.800781 158.394609 
L 573.345703 157.33333 
L 575.525391 150.893877 
L 576.615234 147.797197 
L 578.25 144.659502 
L 578.794922 143.885332 
L 579.884766 143.377764 
L 580.429688 143.418779 
L 580.974609 143.19832 
L 582.609375 144.280107 
L 583.699219 145.546465 
L 584.244141 146.520586 
L 584.789062 147.940752 
L 585.333984 148.97127 
L 586.423828 152.114092 
L 591.873047 172.49373 
L 594.597656 180.860918 
L 595.6875 183.393633 
L 597.322266 186.3929 
L 597.867188 187.10042 
L 598.412109 188.028398 
L 598.957031 188.684648 
L 599.501953 189.094805 
L 600.046875 189.797197 
L 601.681641 190.607256 
L 602.771484 190.653398 
L 603.316406 190.720049 
L 605.496094 189.520342 
L 606.041016 188.792314 
L 606.585938 188.34627 
L 607.675781 186.956865 
L 608.220703 186.054521 
L 610.945312 180.050859 
L 612.035156 177.128496 
L 616.394531 165.690264 
L 617.484375 163.752275 
L 618.029297 163.12166 
L 618.574219 162.670488 
L 620.208984 162.285967 
L 620.753906 162.444902 
L 621.298828 162.296221 
L 622.388672 162.660234 
L 622.933594 162.552568 
L 623.478516 162.803789 
L 624.023438 162.757646 
L 624.568359 162.367998 
L 625.113281 162.393633 
L 625.658203 162.285967 
L 626.203125 162.029619 
L 626.748047 162.055254 
L 627.292969 161.793779 
L 627.837891 161.763018 
L 628.382812 161.532305 
L 628.927734 161.060625 
L 629.472656 160.886309 
L 633.832031 156.113115 
L 634.376953 155.877275 
L 634.921875 155.964434 
L 636.011719 156.789873 
L 636.556641 157.56917 
L 637.646484 159.830156 
L 638.191406 161.250322 
L 639.826172 166.915605 
L 642.550781 178.128252 
L 644.185547 183.419268 
L 644.730469 184.977861 
L 645.820312 187.382402 
L 646.365234 187.879717 
L 646.910156 188.607744 
L 647.455078 188.920488 
L 647.455078 188.920488 
" style="fill:none;stroke:#4c72b0;stroke-linecap:round;stroke-width:1.75;"/>
   </g>
   <g id="patch_3">
    <path d="M 90 270.72 
L 90 69.12 
" style="fill:none;stroke:#262626;stroke-linecap:square;stroke-linejoin:miter;stroke-width:1.25;"/>
   </g>
   <g id="patch_4">
    <path d="M 90 270.72 
L 648 270.72 
" style="fill:none;stroke:#262626;stroke-linecap:square;stroke-linejoin:miter;stroke-width:1.25;"/>
   </g>
  </g>
  <g id="axes_2">
   <g id="patch_5">
    <path d="M 90 512.64 
L 648 512.64 
L 648 311.04 
L 90 311.04 
z
" style="fill:#ffffff;"/>
   </g>
   <g id="matplotlib.axis_3">
    <g id="xtick_7">
     <g id="line2d_15">
      <g>
       <use style="fill:#262626;stroke:#262626;" x="218.197478" xlink:href="#m3f345000ef" y="512.64"/>
      </g>
     </g>
     <g id="text_14">
      <!-- $\mathdefault{10^{2}}$ -->
      <g style="fill:#262626;" transform="translate(210.347478 535.9525)scale(0.1 -0.1)">
       <use transform="translate(0 0.99375)" xlink:href="#ArialMT-31"/>
       <use transform="translate(55.615234 0.99375)" xlink:href="#ArialMT-30"/>
       <use transform="translate(112.972813 70.6875)scale(0.7)" xlink:href="#ArialMT-32"/>
      </g>
     </g>
    </g>
    <g id="xtick_8">
     <g id="line2d_16">
      <g>
       <use style="fill:#262626;stroke:#262626;" x="401.606604" xlink:href="#m3f345000ef" y="512.64"/>
      </g>
     </g>
     <g id="text_15">
      <!-- $\mathdefault{10^{3}}$ -->
      <defs>
       <path d="M 4.203125 18.890625 
L 12.984375 20.0625 
Q 14.5 12.59375 18.140625 9.296875 
Q 21.78125 6 27 6 
Q 33.203125 6 37.46875 10.296875 
Q 41.75 14.59375 41.75 20.953125 
Q 41.75 27 37.796875 30.921875 
Q 33.84375 34.859375 27.734375 34.859375 
Q 25.25 34.859375 21.53125 33.890625 
L 22.515625 41.609375 
Q 23.390625 41.5 23.921875 41.5 
Q 29.546875 41.5 34.03125 44.421875 
Q 38.53125 47.359375 38.53125 53.46875 
Q 38.53125 58.296875 35.25 61.46875 
Q 31.984375 64.65625 26.8125 64.65625 
Q 21.6875 64.65625 18.265625 61.421875 
Q 14.84375 58.203125 13.875 51.765625 
L 5.078125 53.328125 
Q 6.6875 62.15625 12.390625 67.015625 
Q 18.109375 71.875 26.609375 71.875 
Q 32.46875 71.875 37.390625 69.359375 
Q 42.328125 66.84375 44.9375 62.5 
Q 47.5625 58.15625 47.5625 53.265625 
Q 47.5625 48.640625 45.0625 44.828125 
Q 42.578125 41.015625 37.703125 38.765625 
Q 44.046875 37.3125 47.5625 32.6875 
Q 51.078125 28.078125 51.078125 21.140625 
Q 51.078125 11.765625 44.234375 5.25 
Q 37.40625 -1.265625 26.953125 -1.265625 
Q 17.53125 -1.265625 11.296875 4.34375 
Q 5.078125 9.96875 4.203125 18.890625 
z
" id="ArialMT-33"/>
      </defs>
      <g style="fill:#262626;" transform="translate(393.756604 535.9525)scale(0.1 -0.1)">
       <use transform="translate(0 0.99375)" xlink:href="#ArialMT-31"/>
       <use transform="translate(55.615234 0.99375)" xlink:href="#ArialMT-30"/>
       <use transform="translate(112.972813 70.6875)scale(0.7)" xlink:href="#ArialMT-33"/>
      </g>
     </g>
    </g>
    <g id="xtick_9">
     <g id="line2d_17">
      <g>
       <use style="fill:#262626;stroke:#262626;" x="585.01573" xlink:href="#m3f345000ef" y="512.64"/>
      </g>
     </g>
     <g id="text_16">
      <!-- $\mathdefault{10^{4}}$ -->
      <g style="fill:#262626;" transform="translate(577.16573 535.8525)scale(0.1 -0.1)">
       <use transform="translate(0 0.201563)" xlink:href="#ArialMT-31"/>
       <use transform="translate(55.615234 0.201563)" xlink:href="#ArialMT-30"/>
       <use transform="translate(112.972813 69.895313)scale(0.7)" xlink:href="#ArialMT-34"/>
      </g>
     </g>
    </g>
    <g id="xtick_10">
     <g id="line2d_18">
      <defs>
       <path d="M 0 0 
L 0 3 
" id="m344be29aef" style="stroke:#262626;stroke-width:0.5;"/>
      </defs>
      <g>
       <use style="fill:#262626;stroke:#262626;stroke-width:0.5;" x="90" xlink:href="#m344be29aef" y="512.64"/>
      </g>
     </g>
    </g>
    <g id="xtick_11">
     <g id="line2d_19">
      <g>
       <use style="fill:#262626;stroke:#262626;stroke-width:0.5;" x="122.296744" xlink:href="#m344be29aef" y="512.64"/>
      </g>
     </g>
    </g>
    <g id="xtick_12">
     <g id="line2d_20">
      <g>
       <use style="fill:#262626;stroke:#262626;stroke-width:0.5;" x="145.211648" xlink:href="#m344be29aef" y="512.64"/>
      </g>
     </g>
    </g>
    <g id="xtick_13">
     <g id="line2d_21">
      <g>
       <use style="fill:#262626;stroke:#262626;stroke-width:0.5;" x="162.985829" xlink:href="#m344be29aef" y="512.64"/>
      </g>
     </g>
    </g>
    <g id="xtick_14">
     <g id="line2d_22">
      <g>
       <use style="fill:#262626;stroke:#262626;stroke-width:0.5;" x="177.508392" xlink:href="#m344be29aef" y="512.64"/>
      </g>
     </g>
    </g>
    <g id="xtick_15">
     <g id="line2d_23">
      <g>
       <use style="fill:#262626;stroke:#262626;stroke-width:0.5;" x="189.787045" xlink:href="#m344be29aef" y="512.64"/>
      </g>
     </g>
    </g>
    <g id="xtick_16">
     <g id="line2d_24">
      <g>
       <use style="fill:#262626;stroke:#262626;stroke-width:0.5;" x="200.423297" xlink:href="#m344be29aef" y="512.64"/>
      </g>
     </g>
    </g>
    <g id="xtick_17">
     <g id="line2d_25">
      <g>
       <use style="fill:#262626;stroke:#262626;stroke-width:0.5;" x="209.805136" xlink:href="#m344be29aef" y="512.64"/>
      </g>
     </g>
    </g>
    <g id="xtick_18">
     <g id="line2d_26">
      <g>
       <use style="fill:#262626;stroke:#262626;stroke-width:0.5;" x="273.409126" xlink:href="#m344be29aef" y="512.64"/>
      </g>
     </g>
    </g>
    <g id="xtick_19">
     <g id="line2d_27">
      <g>
       <use style="fill:#262626;stroke:#262626;stroke-width:0.5;" x="305.70587" xlink:href="#m344be29aef" y="512.64"/>
      </g>
     </g>
    </g>
    <g id="xtick_20">
     <g id="line2d_28">
      <g>
       <use style="fill:#262626;stroke:#262626;stroke-width:0.5;" x="328.620775" xlink:href="#m344be29aef" y="512.64"/>
      </g>
     </g>
    </g>
    <g id="xtick_21">
     <g id="line2d_29">
      <g>
       <use style="fill:#262626;stroke:#262626;stroke-width:0.5;" x="346.394955" xlink:href="#m344be29aef" y="512.64"/>
      </g>
     </g>
    </g>
    <g id="xtick_22">
     <g id="line2d_30">
      <g>
       <use style="fill:#262626;stroke:#262626;stroke-width:0.5;" x="360.917518" xlink:href="#m344be29aef" y="512.64"/>
      </g>
     </g>
    </g>
    <g id="xtick_23">
     <g id="line2d_31">
      <g>
       <use style="fill:#262626;stroke:#262626;stroke-width:0.5;" x="373.196171" xlink:href="#m344be29aef" y="512.64"/>
      </g>
     </g>
    </g>
    <g id="xtick_24">
     <g id="line2d_32">
      <g>
       <use style="fill:#262626;stroke:#262626;stroke-width:0.5;" x="383.832423" xlink:href="#m344be29aef" y="512.64"/>
      </g>
     </g>
    </g>
    <g id="xtick_25">
     <g id="line2d_33">
      <g>
       <use style="fill:#262626;stroke:#262626;stroke-width:0.5;" x="393.214262" xlink:href="#m344be29aef" y="512.64"/>
      </g>
     </g>
    </g>
    <g id="xtick_26">
     <g id="line2d_34">
      <g>
       <use style="fill:#262626;stroke:#262626;stroke-width:0.5;" x="456.818252" xlink:href="#m344be29aef" y="512.64"/>
      </g>
     </g>
    </g>
    <g id="xtick_27">
     <g id="line2d_35">
      <g>
       <use style="fill:#262626;stroke:#262626;stroke-width:0.5;" x="489.114996" xlink:href="#m344be29aef" y="512.64"/>
      </g>
     </g>
    </g>
    <g id="xtick_28">
     <g id="line2d_36">
      <g>
       <use style="fill:#262626;stroke:#262626;stroke-width:0.5;" x="512.029901" xlink:href="#m344be29aef" y="512.64"/>
      </g>
     </g>
    </g>
    <g id="xtick_29">
     <g id="line2d_37">
      <g>
       <use style="fill:#262626;stroke:#262626;stroke-width:0.5;" x="529.804081" xlink:href="#m344be29aef" y="512.64"/>
      </g>
     </g>
    </g>
    <g id="xtick_30">
     <g id="line2d_38">
      <g>
       <use style="fill:#262626;stroke:#262626;stroke-width:0.5;" x="544.326645" xlink:href="#m344be29aef" y="512.64"/>
      </g>
     </g>
    </g>
    <g id="xtick_31">
     <g id="line2d_39">
      <g>
       <use style="fill:#262626;stroke:#262626;stroke-width:0.5;" x="556.605297" xlink:href="#m344be29aef" y="512.64"/>
      </g>
     </g>
    </g>
    <g id="xtick_32">
     <g id="line2d_40">
      <g>
       <use style="fill:#262626;stroke:#262626;stroke-width:0.5;" x="567.241549" xlink:href="#m344be29aef" y="512.64"/>
      </g>
     </g>
    </g>
    <g id="xtick_33">
     <g id="line2d_41">
      <g>
       <use style="fill:#262626;stroke:#262626;stroke-width:0.5;" x="576.623389" xlink:href="#m344be29aef" y="512.64"/>
      </g>
     </g>
    </g>
    <g id="xtick_34">
     <g id="line2d_42">
      <g>
       <use style="fill:#262626;stroke:#262626;stroke-width:0.5;" x="640.227378" xlink:href="#m344be29aef" y="512.64"/>
      </g>
     </g>
    </g>
   </g>
   <g id="matplotlib.axis_4">
    <g id="ytick_8">
     <g id="line2d_43">
      <g>
       <use style="fill:#262626;stroke:#262626;" x="90" xlink:href="#m1a4300fb08" y="512.64"/>
      </g>
     </g>
     <g id="text_17">
      <!-- $\mathdefault{10^{-5}}$ -->
      <defs>
       <path d="M 4.15625 18.75 
L 13.375 19.53125 
Q 14.40625 12.796875 18.140625 9.390625 
Q 21.875 6 27.15625 6 
Q 33.5 6 37.890625 10.78125 
Q 42.28125 15.578125 42.28125 23.484375 
Q 42.28125 31 38.0625 35.34375 
Q 33.84375 39.703125 27 39.703125 
Q 22.75 39.703125 19.328125 37.765625 
Q 15.921875 35.84375 13.96875 32.765625 
L 5.71875 33.84375 
L 12.640625 70.609375 
L 48.25 70.609375 
L 48.25 62.203125 
L 19.671875 62.203125 
L 15.828125 42.96875 
Q 22.265625 47.46875 29.34375 47.46875 
Q 38.71875 47.46875 45.15625 40.96875 
Q 51.609375 34.46875 51.609375 24.265625 
Q 51.609375 14.546875 45.953125 7.46875 
Q 39.0625 -1.21875 27.15625 -1.21875 
Q 17.390625 -1.21875 11.203125 4.25 
Q 5.03125 9.71875 4.15625 18.75 
z
" id="ArialMT-35"/>
      </defs>
      <g style="fill:#262626;" transform="translate(57.2 517.74625)scale(0.1 -0.1)">
       <use transform="translate(0 0.879688)" xlink:href="#ArialMT-31"/>
       <use transform="translate(55.615234 0.879688)" xlink:href="#ArialMT-30"/>
       <use transform="translate(112.972813 70.573438)scale(0.7)" xlink:href="#ArialMT-2212"/>
       <use transform="translate(153.851719 70.573438)scale(0.7)" xlink:href="#ArialMT-35"/>
      </g>
     </g>
    </g>
    <g id="ytick_9">
     <g id="line2d_44">
      <g>
       <use style="fill:#262626;stroke:#262626;" x="90" xlink:href="#m1a4300fb08" y="465.767507"/>
      </g>
     </g>
     <g id="text_18">
      <!-- $\mathdefault{10^{-4}}$ -->
      <g style="fill:#262626;" transform="translate(57.2 470.873757)scale(0.1 -0.1)">
       <use transform="translate(0 0.201563)" xlink:href="#ArialMT-31"/>
       <use transform="translate(55.615234 0.201563)" xlink:href="#ArialMT-30"/>
       <use transform="translate(112.972813 69.895313)scale(0.7)" xlink:href="#ArialMT-2212"/>
       <use transform="translate(153.851719 69.895313)scale(0.7)" xlink:href="#ArialMT-34"/>
      </g>
     </g>
    </g>
    <g id="ytick_10">
     <g id="line2d_45">
      <g>
       <use style="fill:#262626;stroke:#262626;" x="90" xlink:href="#m1a4300fb08" y="418.895013"/>
      </g>
     </g>
     <g id="text_19">
      <!-- $\mathdefault{10^{-3}}$ -->
      <g style="fill:#262626;" transform="translate(57.2 424.051263)scale(0.1 -0.1)">
       <use transform="translate(0 0.99375)" xlink:href="#ArialMT-31"/>
       <use transform="translate(55.615234 0.99375)" xlink:href="#ArialMT-30"/>
       <use transform="translate(112.972813 70.6875)scale(0.7)" xlink:href="#ArialMT-2212"/>
       <use transform="translate(153.851719 70.6875)scale(0.7)" xlink:href="#ArialMT-33"/>
      </g>
     </g>
    </g>
    <g id="ytick_11">
     <g id="line2d_46">
      <g>
       <use style="fill:#262626;stroke:#262626;" x="90" xlink:href="#m1a4300fb08" y="372.02252"/>
      </g>
     </g>
     <g id="text_20">
      <!-- $\mathdefault{10^{-2}}$ -->
      <g style="fill:#262626;" transform="translate(57.2 377.17877)scale(0.1 -0.1)">
       <use transform="translate(0 0.99375)" xlink:href="#ArialMT-31"/>
       <use transform="translate(55.615234 0.99375)" xlink:href="#ArialMT-30"/>
       <use transform="translate(112.972813 70.6875)scale(0.7)" xlink:href="#ArialMT-2212"/>
       <use transform="translate(153.851719 70.6875)scale(0.7)" xlink:href="#ArialMT-32"/>
      </g>
     </g>
    </g>
    <g id="ytick_12">
     <g id="line2d_47">
      <g>
       <use style="fill:#262626;stroke:#262626;" x="90" xlink:href="#m1a4300fb08" y="325.150026"/>
      </g>
     </g>
     <g id="text_21">
      <!-- $\mathdefault{10^{-1}}$ -->
      <g style="fill:#262626;" transform="translate(57.2 330.306276)scale(0.1 -0.1)">
       <use transform="translate(0 0.99375)" xlink:href="#ArialMT-31"/>
       <use transform="translate(55.615234 0.99375)" xlink:href="#ArialMT-30"/>
       <use transform="translate(112.972813 70.6875)scale(0.7)" xlink:href="#ArialMT-2212"/>
       <use transform="translate(153.851719 70.6875)scale(0.7)" xlink:href="#ArialMT-31"/>
      </g>
     </g>
    </g>
    <g id="ytick_13">
     <g id="line2d_48">
      <defs>
       <path d="M 0 0 
L -3 0 
" id="m2e79406280" style="stroke:#262626;stroke-width:0.5;"/>
      </defs>
      <g>
       <use style="fill:#262626;stroke:#262626;stroke-width:0.5;" x="90" xlink:href="#m2e79406280" y="498.529974"/>
      </g>
     </g>
    </g>
    <g id="ytick_14">
     <g id="line2d_49">
      <g>
       <use style="fill:#262626;stroke:#262626;stroke-width:0.5;" x="90" xlink:href="#m2e79406280" y="490.276137"/>
      </g>
     </g>
    </g>
    <g id="ytick_15">
     <g id="line2d_50">
      <g>
       <use style="fill:#262626;stroke:#262626;stroke-width:0.5;" x="90" xlink:href="#m2e79406280" y="484.419947"/>
      </g>
     </g>
    </g>
    <g id="ytick_16">
     <g id="line2d_51">
      <g>
       <use style="fill:#262626;stroke:#262626;stroke-width:0.5;" x="90" xlink:href="#m2e79406280" y="479.877533"/>
      </g>
     </g>
    </g>
    <g id="ytick_17">
     <g id="line2d_52">
      <g>
       <use style="fill:#262626;stroke:#262626;stroke-width:0.5;" x="90" xlink:href="#m2e79406280" y="476.166111"/>
      </g>
     </g>
    </g>
    <g id="ytick_18">
     <g id="line2d_53">
      <g>
       <use style="fill:#262626;stroke:#262626;stroke-width:0.5;" x="90" xlink:href="#m2e79406280" y="473.028148"/>
      </g>
     </g>
    </g>
    <g id="ytick_19">
     <g id="line2d_54">
      <g>
       <use style="fill:#262626;stroke:#262626;stroke-width:0.5;" x="90" xlink:href="#m2e79406280" y="470.309921"/>
      </g>
     </g>
    </g>
    <g id="ytick_20">
     <g id="line2d_55">
      <g>
       <use style="fill:#262626;stroke:#262626;stroke-width:0.5;" x="90" xlink:href="#m2e79406280" y="467.912274"/>
      </g>
     </g>
    </g>
    <g id="ytick_21">
     <g id="line2d_56">
      <g>
       <use style="fill:#262626;stroke:#262626;stroke-width:0.5;" x="90" xlink:href="#m2e79406280" y="451.65748"/>
      </g>
     </g>
    </g>
    <g id="ytick_22">
     <g id="line2d_57">
      <g>
       <use style="fill:#262626;stroke:#262626;stroke-width:0.5;" x="90" xlink:href="#m2e79406280" y="443.403644"/>
      </g>
     </g>
    </g>
    <g id="ytick_23">
     <g id="line2d_58">
      <g>
       <use style="fill:#262626;stroke:#262626;stroke-width:0.5;" x="90" xlink:href="#m2e79406280" y="437.547454"/>
      </g>
     </g>
    </g>
    <g id="ytick_24">
     <g id="line2d_59">
      <g>
       <use style="fill:#262626;stroke:#262626;stroke-width:0.5;" x="90" xlink:href="#m2e79406280" y="433.00504"/>
      </g>
     </g>
    </g>
    <g id="ytick_25">
     <g id="line2d_60">
      <g>
       <use style="fill:#262626;stroke:#262626;stroke-width:0.5;" x="90" xlink:href="#m2e79406280" y="429.293617"/>
      </g>
     </g>
    </g>
    <g id="ytick_26">
     <g id="line2d_61">
      <g>
       <use style="fill:#262626;stroke:#262626;stroke-width:0.5;" x="90" xlink:href="#m2e79406280" y="426.155654"/>
      </g>
     </g>
    </g>
    <g id="ytick_27">
     <g id="line2d_62">
      <g>
       <use style="fill:#262626;stroke:#262626;stroke-width:0.5;" x="90" xlink:href="#m2e79406280" y="423.437427"/>
      </g>
     </g>
    </g>
    <g id="ytick_28">
     <g id="line2d_63">
      <g>
       <use style="fill:#262626;stroke:#262626;stroke-width:0.5;" x="90" xlink:href="#m2e79406280" y="421.039781"/>
      </g>
     </g>
    </g>
    <g id="ytick_29">
     <g id="line2d_64">
      <g>
       <use style="fill:#262626;stroke:#262626;stroke-width:0.5;" x="90" xlink:href="#m2e79406280" y="404.784987"/>
      </g>
     </g>
    </g>
    <g id="ytick_30">
     <g id="line2d_65">
      <g>
       <use style="fill:#262626;stroke:#262626;stroke-width:0.5;" x="90" xlink:href="#m2e79406280" y="396.53115"/>
      </g>
     </g>
    </g>
    <g id="ytick_31">
     <g id="line2d_66">
      <g>
       <use style="fill:#262626;stroke:#262626;stroke-width:0.5;" x="90" xlink:href="#m2e79406280" y="390.67496"/>
      </g>
     </g>
    </g>
    <g id="ytick_32">
     <g id="line2d_67">
      <g>
       <use style="fill:#262626;stroke:#262626;stroke-width:0.5;" x="90" xlink:href="#m2e79406280" y="386.132546"/>
      </g>
     </g>
    </g>
    <g id="ytick_33">
     <g id="line2d_68">
      <g>
       <use style="fill:#262626;stroke:#262626;stroke-width:0.5;" x="90" xlink:href="#m2e79406280" y="382.421124"/>
      </g>
     </g>
    </g>
    <g id="ytick_34">
     <g id="line2d_69">
      <g>
       <use style="fill:#262626;stroke:#262626;stroke-width:0.5;" x="90" xlink:href="#m2e79406280" y="379.283161"/>
      </g>
     </g>
    </g>
    <g id="ytick_35">
     <g id="line2d_70">
      <g>
       <use style="fill:#262626;stroke:#262626;stroke-width:0.5;" x="90" xlink:href="#m2e79406280" y="376.564934"/>
      </g>
     </g>
    </g>
    <g id="ytick_36">
     <g id="line2d_71">
      <g>
       <use style="fill:#262626;stroke:#262626;stroke-width:0.5;" x="90" xlink:href="#m2e79406280" y="374.167288"/>
      </g>
     </g>
    </g>
    <g id="ytick_37">
     <g id="line2d_72">
      <g>
       <use style="fill:#262626;stroke:#262626;stroke-width:0.5;" x="90" xlink:href="#m2e79406280" y="357.912493"/>
      </g>
     </g>
    </g>
    <g id="ytick_38">
     <g id="line2d_73">
      <g>
       <use style="fill:#262626;stroke:#262626;stroke-width:0.5;" x="90" xlink:href="#m2e79406280" y="349.658657"/>
      </g>
     </g>
    </g>
    <g id="ytick_39">
     <g id="line2d_74">
      <g>
       <use style="fill:#262626;stroke:#262626;stroke-width:0.5;" x="90" xlink:href="#m2e79406280" y="343.802467"/>
      </g>
     </g>
    </g>
    <g id="ytick_40">
     <g id="line2d_75">
      <g>
       <use style="fill:#262626;stroke:#262626;stroke-width:0.5;" x="90" xlink:href="#m2e79406280" y="339.260053"/>
      </g>
     </g>
    </g>
    <g id="ytick_41">
     <g id="line2d_76">
      <g>
       <use style="fill:#262626;stroke:#262626;stroke-width:0.5;" x="90" xlink:href="#m2e79406280" y="335.548631"/>
      </g>
     </g>
    </g>
    <g id="ytick_42">
     <g id="line2d_77">
      <g>
       <use style="fill:#262626;stroke:#262626;stroke-width:0.5;" x="90" xlink:href="#m2e79406280" y="332.410668"/>
      </g>
     </g>
    </g>
    <g id="ytick_43">
     <g id="line2d_78">
      <g>
       <use style="fill:#262626;stroke:#262626;stroke-width:0.5;" x="90" xlink:href="#m2e79406280" y="329.69244"/>
      </g>
     </g>
    </g>
    <g id="ytick_44">
     <g id="line2d_79">
      <g>
       <use style="fill:#262626;stroke:#262626;stroke-width:0.5;" x="90" xlink:href="#m2e79406280" y="327.294794"/>
      </g>
     </g>
    </g>
    <g id="ytick_45">
     <g id="line2d_80">
      <g>
       <use style="fill:#262626;stroke:#262626;stroke-width:0.5;" x="90" xlink:href="#m2e79406280" y="311.04"/>
      </g>
     </g>
    </g>
   </g>
   <g id="line2d_81">
    <path clip-path="url(#p42f66127bc)" d="M -1 366.931867 
L 151.095164 366.876906 
L 206.306812 382.8403 
L 238.603556 402.706431 
L 261.518461 418.53071 
L 279.292642 420.467074 
L 293.815205 366.304298 
L 306.093857 403.773613 
L 316.730109 405.65566 
L 326.111949 397.603209 
L 334.50429 396.004328 
L 342.096086 385.609391 
L 349.026853 338.531187 
L 355.402541 386.537057 
L 361.305505 404.749956 
L 366.801034 414.569443 
L 371.941758 422.560524 
L 376.770725 417.842616 
L 381.323597 373.962198 
L 385.630245 410.70573 
L 389.715939 420.848306 
L 393.602249 422.048974 
L 397.307735 414.656525 
L 400.848476 410.429778 
L 404.238502 376.74351 
L 407.490119 415.908862 
L 410.614189 445.768505 
L 413.620341 466.281687 
L 416.517154 420.704365 
L 419.312303 404.661009 
L 422.012683 376.275679 
L 424.624509 386.358236 
L 427.153406 407.80286 
L 429.604479 420.140051 
L 431.982374 421.06154 
L 434.291335 428.051747 
L 436.535246 437.133924 
L 438.717672 406.258453 
L 440.841893 417.815368 
L 442.910933 426.630996 
L 444.927587 427.956705 
L 446.894442 431.06536 
L 448.813898 429.137721 
L 450.688186 426.701555 
L 452.519383 437.518731 
L 454.309426 440.484904 
L 456.060125 439.664784 
L 457.773171 436.532882 
L 459.45015 442.006366 
L 461.09255 446.729142 
L 462.701768 437.523287 
L 464.279118 447.615148 
L 465.825838 443.628487 
L 467.343094 444.827692 
L 468.83199 441.112949 
L 470.293564 416.875166 
L 471.728802 460.608577 
L 473.138637 460.436464 
L 474.523951 454.13223 
L 475.885584 461.278212 
L 477.224331 452.866294 
L 478.540949 458.653833 
L 479.836157 458.703797 
L 481.110642 455.679756 
L 482.365055 458.498028 
L 483.600019 454.268577 
L 484.816127 459.578099 
L 486.013948 456.203043 
L 487.194022 434.934728 
L 488.356869 454.667738 
L 489.502983 466.719527 
L 490.63284 456.939559 
L 491.746894 455.168653 
L 492.845581 460.035799 
L 493.92932 450.798535 
L 494.998512 474.511835 
L 496.053541 467.031084 
L 497.094779 461.113675 
L 498.122582 468.040214 
L 499.137291 480.931647 
L 500.139235 474.264703 
L 501.128734 451.666249 
L 502.10609 490.157127 
L 503.0716 463.933391 
L 504.025546 464.623802 
L 504.968203 471.149966 
L 505.899834 464.259588 
L 506.820695 465.943876 
L 507.731032 463.362175 
L 508.631082 469.711467 
L 509.521075 478.144143 
L 510.401234 468.209476 
L 511.271773 464.958159 
L 512.132901 473.295784 
L 512.984819 485.20287 
L 513.827722 482.234433 
L 514.661799 470.315572 
L 515.487232 470.225993 
L 516.304198 475.769804 
L 517.112871 462.408952 
L 517.913416 469.648116 
L 518.705996 466.224359 
L 519.490766 464.62185 
L 520.26788 470.31526 
L 521.037486 465.463636 
L 521.799727 482.216552 
L 522.554743 468.557994 
L 523.302669 466.757075 
L 524.777778 473.93615 
L 525.505212 469.882116 
L 526.226064 473.375516 
L 526.940451 484.320954 
L 527.648487 478.280587 
L 528.350285 468.546941 
L 529.045954 466.106014 
L 529.7356 462.706644 
L 530.419326 469.416771 
L 531.097232 466.505418 
L 531.769418 470.96515 
L 532.435979 469.788807 
L 533.097009 471.252818 
L 533.752597 474.354481 
L 534.402834 470.204493 
L 535.047806 474.193508 
L 535.687597 473.513447 
L 536.32229 476.167261 
L 536.951966 470.895985 
L 537.576703 477.88068 
L 538.196578 471.03183 
L 538.811667 466.951654 
L 539.422042 479.072467 
L 540.027776 476.745189 
L 540.628938 480.439178 
L 541.225596 480.498252 
L 541.817819 477.295353 
L 542.405671 480.330543 
L 542.989216 487.203204 
L 543.568517 476.645174 
L 544.143636 479.480627 
L 544.714632 485.898857 
L 545.281563 480.012554 
L 545.844488 478.084575 
L 546.403463 474.31114 
L 546.958543 478.119991 
L 548.05723 482.771275 
L 548.600942 488.570977 
L 549.140969 476.166442 
L 549.677358 478.512527 
L 550.21016 485.960988 
L 550.739422 473.61641 
L 551.26519 477.36876 
L 551.78751 494.041254 
L 552.306428 472.2153 
L 552.821987 478.195268 
L 553.33423 480.499139 
L 553.8432 477.247014 
L 554.348939 486.002986 
L 554.851487 482.131449 
L 555.350884 479.305974 
L 555.847169 496.824503 
L 556.340382 476.652674 
L 556.830559 473.282145 
L 557.317739 481.542198 
L 557.801956 481.810882 
L 558.283248 488.384447 
L 558.76165 483.779078 
L 559.237195 490.854033 
L 559.709918 481.061363 
L 560.647029 473.661129 
L 561.111483 481.563457 
L 561.573244 483.076057 
L 562.032344 492.195245 
L 562.94268 483.594457 
L 563.393976 484.885481 
L 563.84273 492.444293 
L 564.28897 482.199839 
L 564.732723 483.357786 
L 565.174019 480.318944 
L 565.612882 481.142902 
L 566.049341 503.54255 
L 566.483422 480.845041 
L 566.91515 475.479244 
L 567.34455 490.79811 
L 567.771648 513.587886 
L 568.196468 477.228335 
L 568.619034 476.241046 
L 569.039371 472.464274 
L 569.457501 503.897674 
L 569.873447 485.748487 
L 570.287233 481.217062 
L 570.69888 474.169363 
L 571.108411 482.01196 
L 571.515847 517.689138 
L 571.921209 475.990634 
L 572.32452 487.682553 
L 572.725798 490.288133 
L 573.125065 485.187841 
L 573.52234 477.998353 
L 573.917644 499.410969 
L 574.310996 487.527285 
L 574.702415 485.377839 
L 575.091919 493.862916 
L 575.479529 486.103227 
L 575.865261 491.307322 
L 576.249135 492.92286 
L 576.631167 481.607612 
L 577.011376 482.943086 
L 577.389778 503.222961 
L 578.141232 480.47674 
L 578.514318 479.688266 
L 578.885664 483.003384 
L 579.255287 473.035399 
L 579.623202 502.67711 
L 579.989426 508.83918 
L 580.353974 486.384036 
L 580.716861 481.43301 
L 581.078102 483.87799 
L 581.795707 512.86058 
L 582.152099 486.303946 
L 582.506904 494.066576 
L 582.860136 479.174459 
L 583.211808 483.064988 
L 583.561934 503.306051 
L 583.910528 487.825282 
L 584.603172 484.846099 
L 584.947248 488.044959 
L 585.289845 486.235109 
L 585.630974 489.626065 
L 585.970649 508.378182 
L 586.645683 480.929303 
L 586.981067 488.530703 
L 587.315045 492.006054 
L 587.647628 487.469002 
L 587.978828 475.287941 
L 588.308657 479.114682 
L 588.637126 498.999146 
L 588.964246 489.782546 
L 589.290028 492.769437 
L 589.614483 490.488079 
L 589.937621 510.308169 
L 590.259454 490.924132 
L 590.579992 483.32025 
L 590.899246 512.323411 
L 591.217224 481.393258 
L 591.533939 487.527696 
L 591.849399 491.405975 
L 592.163614 487.248689 
L 592.476596 498.70183 
L 592.788352 488.218299 
L 593.098892 490.666173 
L 593.408227 487.886044 
L 593.716365 491.822189 
L 594.023315 481.389914 
L 594.329088 481.933307 
L 594.633691 503.379195 
L 594.937133 492.98244 
L 595.239424 476.085721 
L 595.540572 508.781478 
L 595.840586 480.020159 
L 596.139474 481.48232 
L 596.437245 505.490147 
L 597.029467 489.471068 
L 597.323936 479.766677 
L 597.617319 478.321782 
L 597.909626 481.906149 
L 598.200864 490.270322 
L 598.491042 488.484348 
L 598.780166 478.831449 
L 599.068244 492.727326 
L 599.355284 487.621622 
L 599.641294 485.875964 
L 599.92628 488.388893 
L 600.21025 482.337437 
L 600.493212 487.490446 
L 600.775172 480.924003 
L 601.056137 494.035678 
L 601.336115 498.22587 
L 601.615112 485.888496 
L 601.893135 485.438319 
L 602.170191 493.040086 
L 602.446287 477.914489 
L 602.721429 477.577659 
L 602.995624 498.334096 
L 603.268878 496.188038 
L 604.083062 479.130595 
L 604.352617 483.708872 
L 604.621264 481.82764 
L 604.889007 492.133878 
L 605.155853 493.217472 
L 605.421809 491.280087 
L 605.686879 504.714329 
L 605.95107 498.727182 
L 606.214388 486.325348 
L 606.476838 482.042051 
L 606.738427 508.024986 
L 607.518076 477.172555 
L 608.033635 504.682456 
L 608.290169 487.16572 
L 608.545879 512.095482 
L 608.80077 500.882741 
L 609.054849 495.79308 
L 609.308119 505.217157 
L 609.560587 506.26634 
L 609.812258 489.658706 
L 610.063135 486.640065 
L 610.313225 485.247067 
L 610.562532 485.488294 
L 610.811062 490.711406 
L 611.058818 505.891872 
L 611.305806 506.176456 
L 611.55203 491.372623 
L 611.797496 501.513408 
L 612.042208 494.521285 
L 612.529387 488.913542 
L 612.771864 505.522906 
L 613.254614 484.247751 
L 613.494897 498.957938 
L 613.973298 482.896523 
L 614.211426 491.59976 
L 614.448843 484.250488 
L 614.685555 499.521942 
L 614.921566 487.701535 
L 615.15688 495.228626 
L 615.3915 498.254006 
L 615.625431 486.488499 
L 615.858678 482.550982 
L 616.091243 531.418492 
L 616.323131 488.493141 
L 616.554347 496.713153 
L 616.784892 496.85144 
L 617.014773 493.509711 
L 617.243992 479.202091 
L 617.472553 512.771567 
L 617.700461 482.681701 
L 617.927718 522.356892 
L 618.154329 486.89746 
L 618.380296 496.040063 
L 618.605625 491.179105 
L 618.830318 482.618915 
L 619.054379 493.255553 
L 619.277811 494.079273 
L 619.500618 484.350364 
L 619.722804 481.979679 
L 619.944372 505.209327 
L 620.165325 504.226583 
L 620.385667 495.56501 
L 620.605401 492.682565 
L 620.824531 514.935433 
L 621.043059 491.400224 
L 621.478326 492.004049 
L 621.69507 488.961142 
L 621.911227 497.451182 
L 622.126798 489.594148 
L 622.341787 521.208555 
L 622.556198 489.011044 
L 622.770034 494.175325 
L 622.983296 485.606993 
L 623.195989 491.926985 
L 623.408116 521.969705 
L 623.61968 483.262097 
L 623.830683 479.616027 
L 624.041128 501.709379 
L 624.251019 494.129896 
L 624.460358 502.14702 
L 624.669149 488.800144 
L 624.877394 489.395461 
L 625.085096 511.429798 
L 625.292257 496.005363 
L 625.498881 500.231974 
L 625.704971 498.614518 
L 625.910528 497.993617 
L 626.115557 500.009213 
L 626.320059 491.28945 
L 626.524038 493.683408 
L 626.727495 493.921485 
L 626.930435 507.888362 
L 627.132858 501.057926 
L 627.334768 514.153498 
L 627.73706 489.435109 
L 627.937446 486.261138 
L 628.13733 486.730109 
L 628.336713 493.181923 
L 628.535599 487.225253 
L 628.733989 486.557501 
L 628.931886 510.107771 
L 629.129293 476.126891 
L 629.326211 523.122981 
L 629.718594 484.219695 
L 630.303568 498.839232 
L 630.497608 486.429229 
L 630.691177 483.987379 
L 631.269078 517.6017 
L 631.460783 480.971722 
L 631.652028 496.660955 
L 631.842815 476.369047 
L 632.033146 529.366103 
L 632.223024 485.847949 
L 632.41245 486.057378 
L 632.601426 504.170631 
L 632.97804 483.935221 
L 633.165681 484.990995 
L 633.352881 495.640237 
L 633.725966 491.375876 
L 634.282338 502.684773 
L 634.466935 488.920945 
L 634.651105 516.278314 
L 634.83485 512.269435 
L 635.018173 493.478519 
L 635.201074 496.891067 
L 635.383557 496.113829 
L 635.747272 486.195241 
L 635.928509 488.268237 
L 636.109335 497.523314 
L 636.289751 484.647551 
L 636.469759 485.726804 
L 636.649361 504.145997 
L 636.828559 486.565909 
L 637.007355 494.730226 
L 637.185751 488.557294 
L 637.363748 490.991822 
L 637.541348 480.508798 
L 637.718553 503.100856 
L 637.895364 501.813352 
L 638.247814 485.052132 
L 638.423456 495.242237 
L 638.598712 486.458655 
L 638.773582 501.441953 
L 638.94807 499.562941 
L 639.122176 477.866787 
L 639.469251 497.247545 
L 639.642223 490.943665 
L 640.158897 506.099354 
L 640.330379 545.348097 
L 640.501493 486.349104 
L 641.012641 495.672363 
L 641.182297 504.881341 
L 641.351593 495.237443 
L 641.520529 516.535728 
L 641.689108 487.44865 
L 641.857331 507.11194 
L 642.0252 498.54663 
L 642.192715 484.095913 
L 642.359879 488.265768 
L 642.526693 484.693897 
L 642.693158 502.278038 
L 642.859276 506.775532 
L 643.025049 487.256984 
L 643.190477 521.641601 
L 643.355562 489.681084 
L 643.520306 490.704035 
L 643.684709 484.121359 
L 643.848774 509.012891 
L 644.012502 493.321274 
L 644.175894 493.44803 
L 644.338952 491.768514 
L 644.501676 482.1432 
L 644.664069 494.350856 
L 644.826131 518.693757 
L 644.987864 492.418752 
L 645.14927 504.749929 
L 645.310349 503.460178 
L 645.471103 504.049204 
L 645.791641 485.357608 
L 646.110894 513.965094 
L 646.270042 484.227504 
L 646.428873 508.007976 
L 646.587387 508.497842 
L 646.745587 495.145337 
L 646.903473 504.026267 
L 647.061047 496.900052 
L 647.21831 500.534032 
L 647.375263 486.049534 
L 647.688244 510.813901 
L 647.844274 506.230393 
L 647.844274 506.230393 
" style="fill:none;stroke:#b22222;stroke-linecap:round;stroke-width:1.75;"/>
   </g>
   <g id="patch_6">
    <path d="M 90 512.64 
L 90 311.04 
" style="fill:none;stroke:#262626;stroke-linecap:square;stroke-linejoin:miter;stroke-width:1.25;"/>
   </g>
   <g id="patch_7">
    <path d="M 90 512.64 
L 648 512.64 
" style="fill:none;stroke:#262626;stroke-linecap:square;stroke-linejoin:miter;stroke-width:1.25;"/>
   </g>
  </g>
 </g>
 <defs>
  <clipPath id="p1fb32a1f61">
   <rect height="201.6" width="558" x="90" y="69.12"/>
  </clipPath>
  <clipPath id="p42f66127bc">
   <rect height="201.6" width="558" x="90" y="311.04"/>
  </clipPath>
 </defs>
</svg>
