<?xml version="1.0" encoding="utf-8" standalone="no"?>
<!DOCTYPE svg PUBLIC "-//W3C//DTD SVG 1.1//EN"
  "http://www.w3.org/Graphics/SVG/1.1/DTD/svg11.dtd">
<!-- Created with matplotlib (http://matplotlib.org/) -->
<svg height="576pt" version="1.1" viewBox="0 0 720 576" width="720pt" xmlns="http://www.w3.org/2000/svg" xmlns:xlink="http://www.w3.org/1999/xlink">
 <defs>
  <style type="text/css">
*{stroke-linecap:butt;stroke-linejoin:round;}
  </style>
 </defs>
 <g id="figure_1">
  <g id="patch_1">
   <path d="M 0 576 
L 720 576 
L 720 0 
L 0 0 
z
" style="fill:#ffffff;"/>
  </g>
  <g id="axes_1">
   <g id="patch_2">
    <path d="M 90 270.72 
L 648 270.72 
L 648 69.12 
L 90 69.12 
z
" style="fill:#ffffff;"/>
   </g>
   <g id="matplotlib.axis_1">
    <g id="xtick_1">
     <g id="line2d_1">
      <defs>
       <path d="M 0 0 
L 0 6 
" id="m8ea8e4f6cf" style="stroke:#262626;"/>
      </defs>
      <g>
       <use style="fill:#262626;stroke:#262626;" x="90" xlink:href="#m8ea8e4f6cf" y="270.72"/>
      </g>
     </g>
     <g id="text_1">
      <!-- 0 -->
      <defs>
       <path d="M 4.15625 35.296875 
Q 4.15625 48 6.765625 55.734375 
Q 9.375 63.484375 14.515625 67.671875 
Q 19.671875 71.875 27.484375 71.875 
Q 33.25 71.875 37.59375 69.546875 
Q 41.9375 67.234375 44.765625 62.859375 
Q 47.609375 58.5 49.21875 52.21875 
Q 50.828125 45.953125 50.828125 35.296875 
Q 50.828125 22.703125 48.234375 14.96875 
Q 45.65625 7.234375 40.5 3 
Q 35.359375 -1.21875 27.484375 -1.21875 
Q 17.140625 -1.21875 11.234375 6.203125 
Q 4.15625 15.140625 4.15625 35.296875 
z
M 13.1875 35.296875 
Q 13.1875 17.671875 17.3125 11.828125 
Q 21.4375 6 27.484375 6 
Q 33.546875 6 37.671875 11.859375 
Q 41.796875 17.71875 41.796875 35.296875 
Q 41.796875 52.984375 37.671875 58.78125 
Q 33.546875 64.59375 27.390625 64.59375 
Q 21.34375 64.59375 17.71875 59.46875 
Q 13.1875 52.9375 13.1875 35.296875 
z
" id="ArialMT-30"/>
      </defs>
      <g style="fill:#262626;" transform="translate(87.219531 290.877812)scale(0.1 -0.1)">
       <use xlink:href="#ArialMT-30"/>
      </g>
     </g>
    </g>
    <g id="xtick_2">
     <g id="line2d_2">
      <g>
       <use style="fill:#262626;stroke:#262626;" x="198.984375" xlink:href="#m8ea8e4f6cf" y="270.72"/>
      </g>
     </g>
     <g id="text_2">
      <!-- 200 -->
      <defs>
       <path d="M 50.34375 8.453125 
L 50.34375 0 
L 3.03125 0 
Q 2.9375 3.171875 4.046875 6.109375 
Q 5.859375 10.9375 9.828125 15.625 
Q 13.8125 20.3125 21.34375 26.46875 
Q 33.015625 36.03125 37.109375 41.625 
Q 41.21875 47.21875 41.21875 52.203125 
Q 41.21875 57.421875 37.46875 61 
Q 33.734375 64.59375 27.734375 64.59375 
Q 21.390625 64.59375 17.578125 60.78125 
Q 13.765625 56.984375 13.71875 50.25 
L 4.6875 51.171875 
Q 5.609375 61.28125 11.65625 66.578125 
Q 17.71875 71.875 27.9375 71.875 
Q 38.234375 71.875 44.234375 66.15625 
Q 50.25 60.453125 50.25 52 
Q 50.25 47.703125 48.484375 43.546875 
Q 46.734375 39.40625 42.65625 34.8125 
Q 38.578125 30.21875 29.109375 22.21875 
Q 21.1875 15.578125 18.9375 13.203125 
Q 16.703125 10.84375 15.234375 8.453125 
z
" id="ArialMT-32"/>
      </defs>
      <g style="fill:#262626;" transform="translate(190.642969 290.877812)scale(0.1 -0.1)">
       <use xlink:href="#ArialMT-32"/>
       <use x="55.615234" xlink:href="#ArialMT-30"/>
       <use x="111.230469" xlink:href="#ArialMT-30"/>
      </g>
     </g>
    </g>
    <g id="xtick_3">
     <g id="line2d_3">
      <g>
       <use style="fill:#262626;stroke:#262626;" x="307.96875" xlink:href="#m8ea8e4f6cf" y="270.72"/>
      </g>
     </g>
     <g id="text_3">
      <!-- 400 -->
      <defs>
       <path d="M 32.328125 0 
L 32.328125 17.140625 
L 1.265625 17.140625 
L 1.265625 25.203125 
L 33.9375 71.578125 
L 41.109375 71.578125 
L 41.109375 25.203125 
L 50.78125 25.203125 
L 50.78125 17.140625 
L 41.109375 17.140625 
L 41.109375 0 
z
M 32.328125 25.203125 
L 32.328125 57.46875 
L 9.90625 25.203125 
z
" id="ArialMT-34"/>
      </defs>
      <g style="fill:#262626;" transform="translate(299.627344 290.877812)scale(0.1 -0.1)">
       <use xlink:href="#ArialMT-34"/>
       <use x="55.615234" xlink:href="#ArialMT-30"/>
       <use x="111.230469" xlink:href="#ArialMT-30"/>
      </g>
     </g>
    </g>
    <g id="xtick_4">
     <g id="line2d_4">
      <g>
       <use style="fill:#262626;stroke:#262626;" x="416.953125" xlink:href="#m8ea8e4f6cf" y="270.72"/>
      </g>
     </g>
     <g id="text_4">
      <!-- 600 -->
      <defs>
       <path d="M 49.75 54.046875 
L 41.015625 53.375 
Q 39.84375 58.546875 37.703125 60.890625 
Q 34.125 64.65625 28.90625 64.65625 
Q 24.703125 64.65625 21.53125 62.3125 
Q 17.390625 59.28125 14.984375 53.46875 
Q 12.59375 47.65625 12.5 36.921875 
Q 15.671875 41.75 20.265625 44.09375 
Q 24.859375 46.4375 29.890625 46.4375 
Q 38.671875 46.4375 44.84375 39.96875 
Q 51.03125 33.5 51.03125 23.25 
Q 51.03125 16.5 48.125 10.71875 
Q 45.21875 4.9375 40.140625 1.859375 
Q 35.0625 -1.21875 28.609375 -1.21875 
Q 17.625 -1.21875 10.6875 6.859375 
Q 3.765625 14.9375 3.765625 33.5 
Q 3.765625 54.25 11.421875 63.671875 
Q 18.109375 71.875 29.4375 71.875 
Q 37.890625 71.875 43.28125 67.140625 
Q 48.6875 62.40625 49.75 54.046875 
z
M 13.875 23.1875 
Q 13.875 18.65625 15.796875 14.5 
Q 17.71875 10.359375 21.1875 8.171875 
Q 24.65625 6 28.46875 6 
Q 34.03125 6 38.03125 10.484375 
Q 42.046875 14.984375 42.046875 22.703125 
Q 42.046875 30.125 38.078125 34.390625 
Q 34.125 38.671875 28.125 38.671875 
Q 22.171875 38.671875 18.015625 34.390625 
Q 13.875 30.125 13.875 23.1875 
z
" id="ArialMT-36"/>
      </defs>
      <g style="fill:#262626;" transform="translate(408.611719 290.877812)scale(0.1 -0.1)">
       <use xlink:href="#ArialMT-36"/>
       <use x="55.615234" xlink:href="#ArialMT-30"/>
       <use x="111.230469" xlink:href="#ArialMT-30"/>
      </g>
     </g>
    </g>
    <g id="xtick_5">
     <g id="line2d_5">
      <g>
       <use style="fill:#262626;stroke:#262626;" x="525.9375" xlink:href="#m8ea8e4f6cf" y="270.72"/>
      </g>
     </g>
     <g id="text_5">
      <!-- 800 -->
      <defs>
       <path d="M 17.671875 38.8125 
Q 12.203125 40.828125 9.5625 44.53125 
Q 6.9375 48.25 6.9375 53.421875 
Q 6.9375 61.234375 12.546875 66.546875 
Q 18.171875 71.875 27.484375 71.875 
Q 36.859375 71.875 42.578125 66.421875 
Q 48.296875 60.984375 48.296875 53.171875 
Q 48.296875 48.1875 45.671875 44.5 
Q 43.0625 40.828125 37.75 38.8125 
Q 44.34375 36.671875 47.78125 31.875 
Q 51.21875 27.09375 51.21875 20.453125 
Q 51.21875 11.28125 44.71875 5.03125 
Q 38.234375 -1.21875 27.640625 -1.21875 
Q 17.046875 -1.21875 10.546875 5.046875 
Q 4.046875 11.328125 4.046875 20.703125 
Q 4.046875 27.6875 7.59375 32.390625 
Q 11.140625 37.109375 17.671875 38.8125 
z
M 15.921875 53.71875 
Q 15.921875 48.640625 19.1875 45.40625 
Q 22.46875 42.1875 27.6875 42.1875 
Q 32.765625 42.1875 36.015625 45.375 
Q 39.265625 48.578125 39.265625 53.21875 
Q 39.265625 58.0625 35.90625 61.359375 
Q 32.5625 64.65625 27.59375 64.65625 
Q 22.5625 64.65625 19.234375 61.421875 
Q 15.921875 58.203125 15.921875 53.71875 
z
M 13.09375 20.65625 
Q 13.09375 16.890625 14.875 13.375 
Q 16.65625 9.859375 20.171875 7.921875 
Q 23.6875 6 27.734375 6 
Q 34.03125 6 38.125 10.046875 
Q 42.234375 14.109375 42.234375 20.359375 
Q 42.234375 26.703125 38.015625 30.859375 
Q 33.796875 35.015625 27.4375 35.015625 
Q 21.234375 35.015625 17.15625 30.90625 
Q 13.09375 26.8125 13.09375 20.65625 
z
" id="ArialMT-38"/>
      </defs>
      <g style="fill:#262626;" transform="translate(517.596094 290.877812)scale(0.1 -0.1)">
       <use xlink:href="#ArialMT-38"/>
       <use x="55.615234" xlink:href="#ArialMT-30"/>
       <use x="111.230469" xlink:href="#ArialMT-30"/>
      </g>
     </g>
    </g>
    <g id="xtick_6">
     <g id="line2d_6">
      <g>
       <use style="fill:#262626;stroke:#262626;" x="634.921875" xlink:href="#m8ea8e4f6cf" y="270.72"/>
      </g>
     </g>
     <g id="text_6">
      <!-- 1000 -->
      <defs>
       <path d="M 37.25 0 
L 28.46875 0 
L 28.46875 56 
Q 25.296875 52.984375 20.140625 49.953125 
Q 14.984375 46.921875 10.890625 45.40625 
L 10.890625 53.90625 
Q 18.265625 57.375 23.78125 62.296875 
Q 29.296875 67.234375 31.59375 71.875 
L 37.25 71.875 
z
" id="ArialMT-31"/>
      </defs>
      <g style="fill:#262626;" transform="translate(623.8 290.877812)scale(0.1 -0.1)">
       <use xlink:href="#ArialMT-31"/>
       <use x="55.615234" xlink:href="#ArialMT-30"/>
       <use x="111.230469" xlink:href="#ArialMT-30"/>
       <use x="166.845703" xlink:href="#ArialMT-30"/>
      </g>
     </g>
    </g>
   </g>
   <g id="matplotlib.axis_2">
    <g id="ytick_1">
     <g id="line2d_7">
      <defs>
       <path d="M 0 0 
L -6 0 
" id="mb860a27630" style="stroke:#262626;"/>
      </defs>
      <g>
       <use style="fill:#262626;stroke:#262626;" x="90" xlink:href="#mb860a27630" y="270.72"/>
      </g>
     </g>
     <g id="text_7">
      <!-- −0.6 -->
      <defs>
       <path d="M 52.828125 31.203125 
L 5.5625 31.203125 
L 5.5625 39.40625 
L 52.828125 39.40625 
z
" id="ArialMT-2212"/>
       <path d="M 9.078125 0 
L 9.078125 10.015625 
L 19.09375 10.015625 
L 19.09375 0 
z
" id="ArialMT-2e"/>
      </defs>
      <g style="fill:#262626;" transform="translate(57.259375 274.298906)scale(0.1 -0.1)">
       <use xlink:href="#ArialMT-2212"/>
       <use x="58.398438" xlink:href="#ArialMT-30"/>
       <use x="114.013672" xlink:href="#ArialMT-2e"/>
       <use x="141.796875" xlink:href="#ArialMT-36"/>
      </g>
     </g>
    </g>
    <g id="ytick_2">
     <g id="line2d_8">
      <g>
       <use style="fill:#262626;stroke:#262626;" x="90" xlink:href="#mb860a27630" y="237.12"/>
      </g>
     </g>
     <g id="text_8">
      <!-- −0.4 -->
      <g style="fill:#262626;" transform="translate(57.259375 240.698906)scale(0.1 -0.1)">
       <use xlink:href="#ArialMT-2212"/>
       <use x="58.398438" xlink:href="#ArialMT-30"/>
       <use x="114.013672" xlink:href="#ArialMT-2e"/>
       <use x="141.796875" xlink:href="#ArialMT-34"/>
      </g>
     </g>
    </g>
    <g id="ytick_3">
     <g id="line2d_9">
      <g>
       <use style="fill:#262626;stroke:#262626;" x="90" xlink:href="#mb860a27630" y="203.52"/>
      </g>
     </g>
     <g id="text_9">
      <!-- −0.2 -->
      <g style="fill:#262626;" transform="translate(57.259375 207.098906)scale(0.1 -0.1)">
       <use xlink:href="#ArialMT-2212"/>
       <use x="58.398438" xlink:href="#ArialMT-30"/>
       <use x="114.013672" xlink:href="#ArialMT-2e"/>
       <use x="141.796875" xlink:href="#ArialMT-32"/>
      </g>
     </g>
    </g>
    <g id="ytick_4">
     <g id="line2d_10">
      <g>
       <use style="fill:#262626;stroke:#262626;" x="90" xlink:href="#mb860a27630" y="169.92"/>
      </g>
     </g>
     <g id="text_10">
      <!-- 0.0 -->
      <g style="fill:#262626;" transform="translate(63.1 173.498906)scale(0.1 -0.1)">
       <use xlink:href="#ArialMT-30"/>
       <use x="55.615234" xlink:href="#ArialMT-2e"/>
       <use x="83.398438" xlink:href="#ArialMT-30"/>
      </g>
     </g>
    </g>
    <g id="ytick_5">
     <g id="line2d_11">
      <g>
       <use style="fill:#262626;stroke:#262626;" x="90" xlink:href="#mb860a27630" y="136.32"/>
      </g>
     </g>
     <g id="text_11">
      <!-- 0.2 -->
      <g style="fill:#262626;" transform="translate(63.1 139.898906)scale(0.1 -0.1)">
       <use xlink:href="#ArialMT-30"/>
       <use x="55.615234" xlink:href="#ArialMT-2e"/>
       <use x="83.398438" xlink:href="#ArialMT-32"/>
      </g>
     </g>
    </g>
    <g id="ytick_6">
     <g id="line2d_12">
      <g>
       <use style="fill:#262626;stroke:#262626;" x="90" xlink:href="#mb860a27630" y="102.72"/>
      </g>
     </g>
     <g id="text_12">
      <!-- 0.4 -->
      <g style="fill:#262626;" transform="translate(63.1 106.298906)scale(0.1 -0.1)">
       <use xlink:href="#ArialMT-30"/>
       <use x="55.615234" xlink:href="#ArialMT-2e"/>
       <use x="83.398438" xlink:href="#ArialMT-34"/>
      </g>
     </g>
    </g>
    <g id="ytick_7">
     <g id="line2d_13">
      <g>
       <use style="fill:#262626;stroke:#262626;" x="90" xlink:href="#mb860a27630" y="69.12"/>
      </g>
     </g>
     <g id="text_13">
      <!-- 0.6 -->
      <g style="fill:#262626;" transform="translate(63.1 72.698906)scale(0.1 -0.1)">
       <use xlink:href="#ArialMT-30"/>
       <use x="55.615234" xlink:href="#ArialMT-2e"/>
       <use x="83.398438" xlink:href="#ArialMT-36"/>
      </g>
     </g>
    </g>
   </g>
   <g id="line2d_14">
    <path clip-path="url(#p2034a7ddde)" d="M 90 170.319902 
L 92.724609 165.336504 
L 93.269531 163.849687 
L 93.814453 163.029375 
L 94.359375 161.722002 
L 95.449219 159.999346 
L 95.994141 158.840654 
L 96.539062 157.999834 
L 97.083984 156.764238 
L 97.628906 156.066973 
L 99.808594 151.985918 
L 100.898438 149.76082 
L 101.443359 148.858477 
L 102.533203 146.838457 
L 103.078125 145.848955 
L 103.623047 145.479814 
L 104.712891 144.459551 
L 105.802734 144.233965 
L 106.347656 144.310869 
L 107.4375 144.920977 
L 107.982422 145.346514 
L 109.072266 146.674395 
L 110.162109 148.284258 
L 113.431641 155.236406 
L 113.976562 157.025713 
L 115.066406 159.742998 
L 117.246094 167.136064 
L 118.880859 172.980791 
L 119.970703 176.569658 
L 122.695312 183.983232 
L 123.240234 184.977861 
L 123.785156 186.331377 
L 126.509766 190.366289 
L 127.599609 191.571123 
L 128.144531 191.955645 
L 128.689453 192.119707 
L 129.234375 191.904375 
L 130.324219 190.822588 
L 131.414062 188.535967 
L 133.048828 183.624346 
L 134.683594 178.117998 
L 136.318359 172.985918 
L 137.953125 169.304766 
L 139.587891 166.920732 
L 140.677734 166.03377 
L 141.222656 165.859453 
L 141.767578 165.490312 
L 142.3125 165.423662 
L 142.857422 165.531328 
L 143.402344 165.485186 
L 145.037109 165.823564 
L 145.582031 166.192705 
L 146.126953 166.341387 
L 146.671875 166.895098 
L 148.306641 166.320879 
L 148.851562 166.10042 
L 149.941406 164.36751 
L 151.576172 160.583818 
L 154.845703 151.637285 
L 155.935547 149.57625 
L 156.480469 149.217363 
L 157.025391 149.027666 
L 157.570312 149.258379 
L 158.115234 149.806963 
L 159.205078 151.84749 
L 159.75 153.185625 
L 160.294922 154.928789 
L 160.839844 156.251543 
L 161.929688 160.306963 
L 163.564453 165.44417 
L 164.109375 167.53084 
L 164.654297 168.848467 
L 165.744141 172.063066 
L 167.923828 177.554033 
L 168.46875 178.287187 
L 169.013672 179.57918 
L 170.648438 181.37874 
L 171.193359 181.78377 
L 172.283203 182.08626 
L 173.917969 181.358232 
L 174.462891 180.742998 
L 176.097656 179.497148 
L 176.642578 179.194658 
L 177.1875 178.697344 
L 177.732422 178.358965 
L 178.277344 177.887285 
L 180.457031 175.226396 
L 181.001953 174.139482 
L 182.636719 171.46834 
L 183.726562 169.176592 
L 184.816406 167.269365 
L 185.361328 166.120928 
L 185.90625 165.310869 
L 186.451172 164.270098 
L 186.996094 163.526689 
L 188.085938 161.634844 
L 188.630859 160.865801 
L 192.990234 152.185869 
L 193.535156 150.796465 
L 194.080078 150.18123 
L 195.169922 148.417559 
L 196.259766 147.181963 
L 197.349609 146.684648 
L 198.439453 146.494951 
L 199.529297 146.966631 
L 201.708984 148.843096 
L 202.253906 149.868486 
L 202.798828 150.576006 
L 203.888672 152.667803 
L 204.978516 155.138994 
L 206.068359 157.87166 
L 210.972656 174.026689 
L 211.517578 175.933916 
L 214.787109 184.613848 
L 215.332031 185.623857 
L 215.876953 187.156816 
L 218.056641 191.607012 
L 218.601562 192.673418 
L 219.691406 193.801348 
L 220.78125 193.939775 
L 221.326172 193.406572 
L 221.871094 193.063066 
L 222.960938 191.048174 
L 224.050781 188.310381 
L 228.410156 174.667559 
L 228.955078 173.211504 
L 230.044922 171.186357 
L 230.589844 170.150713 
L 232.224609 167.874346 
L 232.769531 167.464189 
L 233.314453 166.889971 
L 233.859375 166.946367 
L 234.404297 166.546465 
L 235.494141 166.772051 
L 236.039062 167.22835 
L 236.583984 167.474443 
L 237.128906 167.966631 
L 237.673828 168.099932 
L 238.21875 168.381914 
L 238.763672 168.833086 
L 239.853516 168.42293 
L 240.398438 168.048662 
L 240.943359 167.392412 
L 242.033203 165.459551 
L 243.123047 162.921709 
L 246.392578 153.334307 
L 246.9375 152.026934 
L 247.482422 151.237383 
L 248.572266 150.258135 
L 249.662109 150.852861 
L 250.207031 151.411699 
L 250.751953 152.298662 
L 251.296875 153.416338 
L 253.476562 159.220049 
L 254.566406 162.670488 
L 256.201172 167.366777 
L 257.291016 170.735186 
L 260.015625 178.123125 
L 260.560547 179.286943 
L 261.650391 180.896807 
L 262.195312 181.624834 
L 263.285156 182.265703 
L 264.919922 182.275957 
L 265.464844 182.019609 
L 266.009766 182.142656 
L 266.554688 181.711992 
L 267.099609 181.588945 
L 267.644531 180.963457 
L 268.189453 180.830156 
L 268.734375 180.261064 
L 270.369141 179.061357 
L 270.914062 178.461504 
L 272.548828 176.01082 
L 273.638672 174.257402 
L 274.728516 172.257891 
L 275.273438 171.550371 
L 275.818359 170.376299 
L 279.087891 165.244219 
L 279.632812 164.13167 
L 280.722656 162.439775 
L 281.267578 161.101641 
L 282.357422 159.240557 
L 286.171875 151.468096 
L 287.261719 149.87874 
L 287.806641 149.232744 
L 288.896484 148.407305 
L 289.986328 147.766436 
L 290.53125 148.017656 
L 291.076172 147.879229 
L 293.800781 149.709551 
L 294.345703 150.560625 
L 294.890625 151.078447 
L 297.070312 155.277422 
L 299.794922 163.521562 
L 301.974609 170.955645 
L 304.154297 177.518145 
L 306.333984 183.39876 
L 307.96875 187.951494 
L 309.603516 192.063311 
L 310.693359 193.985918 
L 311.238281 194.816484 
L 311.783203 195.011309 
L 312.328125 195.339434 
L 312.873047 194.954912 
L 313.417969 194.826738 
L 313.962891 194.25252 
L 314.507812 192.863115 
L 315.052734 191.786455 
L 318.322266 182.393877 
L 320.501953 176.067217 
L 321.046875 175.036699 
L 322.136719 172.30916 
L 322.681641 171.176104 
L 324.316406 168.781816 
L 324.861328 168.248613 
L 325.40625 167.940996 
L 326.496094 167.925615 
L 327.041016 168.335771 
L 327.585938 168.494707 
L 330.310547 170.191729 
L 331.400391 170.289141 
L 331.945312 169.904619 
L 333.035156 168.689531 
L 334.669922 165.14168 
L 336.304688 160.004473 
L 337.939453 154.969805 
L 338.484375 153.877764 
L 339.029297 152.513994 
L 339.574219 151.832109 
L 340.119141 151.791094 
L 340.664062 151.509111 
L 341.208984 151.406572 
L 341.753906 152.232012 
L 342.298828 152.642168 
L 342.84375 153.477861 
L 343.388672 154.59041 
L 343.933594 155.374834 
L 346.658203 162.603838 
L 347.203125 164.188066 
L 348.292969 167.925615 
L 349.382812 171.273516 
L 351.017578 176.210771 
L 352.107422 179.061357 
L 353.197266 181.030107 
L 353.742188 181.563311 
L 354.287109 182.383623 
L 355.376953 182.97835 
L 355.921875 183.521807 
L 356.466797 183.373125 
L 357.011719 183.562822 
L 358.101562 183.506426 
L 358.646484 183.285967 
L 359.191406 183.383379 
L 359.736328 183.34749 
L 360.826172 182.783525 
L 363.005859 180.430254 
L 365.185547 177.031084 
L 365.730469 176.026201 
L 366.275391 175.426348 
L 367.365234 173.596025 
L 371.179688 168.053789 
L 374.449219 162.060381 
L 376.628906 157.507646 
L 378.808594 154.175127 
L 379.898438 152.749834 
L 380.988281 152.011553 
L 381.533203 151.857744 
L 382.078125 151.586016 
L 383.167969 151.642412 
L 383.712891 151.698809 
L 384.257812 152.129473 
L 384.802734 151.996172 
L 385.347656 152.616533 
L 385.892578 152.939531 
L 386.982422 154.072588 
L 387.527344 154.903154 
L 388.617188 157.082109 
L 390.796875 163.444658 
L 392.431641 168.940752 
L 392.976562 170.494219 
L 394.066406 174.103594 
L 394.611328 175.949297 
L 395.15625 177.338701 
L 396.246094 180.640459 
L 401.695312 196.636553 
L 402.785156 198.595049 
L 403.875 199.528154 
L 404.419922 199.389727 
L 404.964844 198.948809 
L 406.054688 197.692705 
L 407.144531 195.426592 
L 408.234375 192.852861 
L 413.138672 178.80501 
L 414.228516 176.082598 
L 414.773438 175.282793 
L 415.318359 174.103594 
L 416.408203 172.929521 
L 416.953125 172.580889 
L 417.498047 172.365557 
L 418.587891 172.452715 
L 419.132812 172.698809 
L 420.222656 173.80623 
L 420.767578 174.026689 
L 421.857422 174.990557 
L 422.947266 175.308428 
L 423.492188 175.318682 
L 424.582031 174.113848 
L 425.126953 173.232012 
L 426.216797 170.555742 
L 427.306641 167.089922 
L 429.486328 160.296709 
L 431.121094 156.994951 
L 431.666016 156.579668 
L 432.755859 156.082354 
L 433.300781 156.082354 
L 433.845703 156.266924 
L 434.390625 156.723223 
L 435.480469 158.102373 
L 436.570312 159.896807 
L 437.115234 161.491289 
L 437.660156 162.496172 
L 439.294922 167.515459 
L 442.019531 176.544023 
L 443.109375 179.758623 
L 443.654297 180.789141 
L 444.199219 182.224687 
L 444.744141 183.291094 
L 446.923828 185.726396 
L 447.46875 186.116045 
L 448.013672 186.741533 
L 448.558594 186.823564 
L 449.103516 187.115801 
L 450.193359 187.279863 
L 451.283203 187.115801 
L 452.373047 186.690264 
L 453.462891 185.598223 
L 460.001953 175.667314 
L 460.546875 175.216143 
L 461.636719 173.539629 
L 462.726562 172.109209 
L 463.816406 170.289141 
L 464.361328 169.443193 
L 464.90625 168.233232 
L 465.451172 167.371904 
L 467.085938 163.96248 
L 468.720703 160.635088 
L 470.900391 157.046221 
L 473.625 154.462236 
L 474.169922 153.98543 
L 474.714844 153.662432 
L 475.259766 153.508623 
L 475.804688 153.09334 
L 476.349609 153.308672 
L 477.439453 153.400957 
L 479.074219 155.349199 
L 480.164062 157.405107 
L 480.708984 158.943193 
L 481.253906 160.148027 
L 486.703125 176.097979 
L 487.248047 177.436113 
L 488.882812 182.706621 
L 489.972656 186.449297 
L 491.607422 192.288896 
L 493.242188 197.36458 
L 494.332031 199.666582 
L 495.421875 200.917559 
L 496.511719 201.071367 
L 497.056641 200.768877 
L 498.146484 199.39998 
L 498.691406 198.579668 
L 499.78125 196.298174 
L 500.871094 193.688555 
L 501.416016 192.263262 
L 503.595703 185.372637 
L 504.140625 184.024248 
L 505.230469 180.860918 
L 505.775391 179.440752 
L 506.320312 178.374346 
L 506.865234 176.990068 
L 508.5 174.723955 
L 510.134766 174.477861 
L 510.679688 174.81624 
L 511.224609 175.40584 
L 511.769531 175.723711 
L 512.314453 176.656816 
L 513.949219 178.128252 
L 515.039062 178.184648 
L 515.583984 177.682207 
L 516.673828 175.990312 
L 518.853516 170.27376 
L 520.488281 165.151934 
L 521.033203 163.3575 
L 523.212891 159.230303 
L 523.757812 158.594561 
L 524.847656 157.728105 
L 525.9375 157.92293 
L 526.482422 158.020342 
L 528.117188 160.353105 
L 528.662109 161.383623 
L 530.841797 167.520586 
L 534.65625 179.425371 
L 536.291016 183.050127 
L 539.015625 187.254229 
L 540.105469 188.279619 
L 541.740234 189.284502 
L 542.830078 189.125566 
L 543.375 189.151201 
L 545.009766 187.797686 
L 545.554688 187.115801 
L 546.644531 185.557207 
L 547.189453 184.803545 
L 547.734375 183.849932 
L 548.279297 183.291094 
L 549.369141 181.599199 
L 550.458984 179.722734 
L 551.003906 179.076738 
L 552.09375 177.425859 
L 553.183594 176.092852 
L 553.728516 175.159746 
L 554.273438 174.452227 
L 556.998047 169.520098 
L 560.267578 163.208818 
L 562.447266 159.573809 
L 562.992188 158.866289 
L 563.537109 157.881914 
L 564.082031 157.143633 
L 564.626953 156.733477 
L 565.171875 155.790117 
L 566.261719 154.949297 
L 566.806641 154.416094 
L 568.441406 153.493242 
L 570.076172 154.005937 
L 571.710938 156.795 
L 573.345703 160.568437 
L 576.070312 167.89998 
L 576.615234 168.986895 
L 579.884766 178.543535 
L 581.519531 184.367754 
L 584.244141 194.037187 
L 584.789062 195.647051 
L 586.423828 198.964189 
L 586.96875 199.425615 
L 587.513672 200.076738 
L 588.058594 200.071611 
L 588.603516 200.312578 
L 589.148438 200.010088 
L 590.238281 198.871904 
L 591.328125 197.195391 
L 591.873047 195.744463 
L 592.417969 194.626787 
L 595.142578 187.156816 
L 596.232422 183.316729 
L 596.777344 181.937578 
L 597.322266 180.194414 
L 598.957031 176.226152 
L 599.501953 175.549395 
L 600.046875 174.539385 
L 601.136719 174.283037 
L 602.226562 174.800859 
L 603.861328 176.66707 
L 604.951172 177.595049 
L 606.041016 177.984697 
L 607.130859 177.32332 
L 607.675781 176.754229 
L 609.855469 172.07332 
L 610.945312 168.992021 
L 613.125 162.988359 
L 614.214844 160.650469 
L 614.759766 159.476396 
L 615.304688 158.57918 
L 616.939453 157.071855 
L 617.484375 156.964189 
L 618.029297 157.087236 
L 619.119141 157.80501 
L 620.753906 160.527422 
L 621.84375 163.188311 
L 624.023438 169.981523 
L 625.658203 174.836748 
L 628.382812 181.342852 
L 630.5625 185.382891 
L 631.107422 185.992998 
L 632.197266 187.52083 
L 633.832031 188.418047 
L 634.376953 188.351396 
L 634.921875 188.489824 
L 635.466797 188.223223 
L 638.191406 185.546953 
L 638.736328 184.383135 
L 639.28125 183.573076 
L 639.826172 183.003984 
L 640.916016 180.968584 
L 642.550781 178.5179 
L 643.095703 178.061602 
L 643.640625 177.220781 
L 644.185547 176.815752 
L 645.275391 175.10335 
L 645.820312 174.503496 
L 647.455078 171.488848 
L 647.455078 171.488848 
" style="fill:none;stroke:#4c72b0;stroke-linecap:round;stroke-width:1.75;"/>
   </g>
   <g id="patch_3">
    <path d="M 90 270.72 
L 90 69.12 
" style="fill:none;stroke:#262626;stroke-linecap:square;stroke-linejoin:miter;stroke-width:1.25;"/>
   </g>
   <g id="patch_4">
    <path d="M 90 270.72 
L 648 270.72 
" style="fill:none;stroke:#262626;stroke-linecap:square;stroke-linejoin:miter;stroke-width:1.25;"/>
   </g>
  </g>
  <g id="axes_2">
   <g id="patch_5">
    <path d="M 90 512.64 
L 648 512.64 
L 648 311.04 
L 90 311.04 
z
" style="fill:#ffffff;"/>
   </g>
   <g id="matplotlib.axis_3">
    <g id="xtick_7">
     <g id="line2d_15">
      <g>
       <use style="fill:#262626;stroke:#262626;" x="218.197478" xlink:href="#m8ea8e4f6cf" y="512.64"/>
      </g>
     </g>
     <g id="text_14">
      <!-- $\mathdefault{10^{2}}$ -->
      <g style="fill:#262626;" transform="translate(210.347478 535.9525)scale(0.1 -0.1)">
       <use transform="translate(0 0.99375)" xlink:href="#ArialMT-31"/>
       <use transform="translate(55.615234 0.99375)" xlink:href="#ArialMT-30"/>
       <use transform="translate(112.972813 70.6875)scale(0.7)" xlink:href="#ArialMT-32"/>
      </g>
     </g>
    </g>
    <g id="xtick_8">
     <g id="line2d_16">
      <g>
       <use style="fill:#262626;stroke:#262626;" x="401.606604" xlink:href="#m8ea8e4f6cf" y="512.64"/>
      </g>
     </g>
     <g id="text_15">
      <!-- $\mathdefault{10^{3}}$ -->
      <defs>
       <path d="M 4.203125 18.890625 
L 12.984375 20.0625 
Q 14.5 12.59375 18.140625 9.296875 
Q 21.78125 6 27 6 
Q 33.203125 6 37.46875 10.296875 
Q 41.75 14.59375 41.75 20.953125 
Q 41.75 27 37.796875 30.921875 
Q 33.84375 34.859375 27.734375 34.859375 
Q 25.25 34.859375 21.53125 33.890625 
L 22.515625 41.609375 
Q 23.390625 41.5 23.921875 41.5 
Q 29.546875 41.5 34.03125 44.421875 
Q 38.53125 47.359375 38.53125 53.46875 
Q 38.53125 58.296875 35.25 61.46875 
Q 31.984375 64.65625 26.8125 64.65625 
Q 21.6875 64.65625 18.265625 61.421875 
Q 14.84375 58.203125 13.875 51.765625 
L 5.078125 53.328125 
Q 6.6875 62.15625 12.390625 67.015625 
Q 18.109375 71.875 26.609375 71.875 
Q 32.46875 71.875 37.390625 69.359375 
Q 42.328125 66.84375 44.9375 62.5 
Q 47.5625 58.15625 47.5625 53.265625 
Q 47.5625 48.640625 45.0625 44.828125 
Q 42.578125 41.015625 37.703125 38.765625 
Q 44.046875 37.3125 47.5625 32.6875 
Q 51.078125 28.078125 51.078125 21.140625 
Q 51.078125 11.765625 44.234375 5.25 
Q 37.40625 -1.265625 26.953125 -1.265625 
Q 17.53125 -1.265625 11.296875 4.34375 
Q 5.078125 9.96875 4.203125 18.890625 
z
" id="ArialMT-33"/>
      </defs>
      <g style="fill:#262626;" transform="translate(393.756604 535.9525)scale(0.1 -0.1)">
       <use transform="translate(0 0.99375)" xlink:href="#ArialMT-31"/>
       <use transform="translate(55.615234 0.99375)" xlink:href="#ArialMT-30"/>
       <use transform="translate(112.972813 70.6875)scale(0.7)" xlink:href="#ArialMT-33"/>
      </g>
     </g>
    </g>
    <g id="xtick_9">
     <g id="line2d_17">
      <g>
       <use style="fill:#262626;stroke:#262626;" x="585.01573" xlink:href="#m8ea8e4f6cf" y="512.64"/>
      </g>
     </g>
     <g id="text_16">
      <!-- $\mathdefault{10^{4}}$ -->
      <g style="fill:#262626;" transform="translate(577.16573 535.8525)scale(0.1 -0.1)">
       <use transform="translate(0 0.201563)" xlink:href="#ArialMT-31"/>
       <use transform="translate(55.615234 0.201563)" xlink:href="#ArialMT-30"/>
       <use transform="translate(112.972813 69.895313)scale(0.7)" xlink:href="#ArialMT-34"/>
      </g>
     </g>
    </g>
    <g id="xtick_10">
     <g id="line2d_18">
      <defs>
       <path d="M 0 0 
L 0 3 
" id="m1da6f4de76" style="stroke:#262626;stroke-width:0.5;"/>
      </defs>
      <g>
       <use style="fill:#262626;stroke:#262626;stroke-width:0.5;" x="90" xlink:href="#m1da6f4de76" y="512.64"/>
      </g>
     </g>
    </g>
    <g id="xtick_11">
     <g id="line2d_19">
      <g>
       <use style="fill:#262626;stroke:#262626;stroke-width:0.5;" x="122.296744" xlink:href="#m1da6f4de76" y="512.64"/>
      </g>
     </g>
    </g>
    <g id="xtick_12">
     <g id="line2d_20">
      <g>
       <use style="fill:#262626;stroke:#262626;stroke-width:0.5;" x="145.211648" xlink:href="#m1da6f4de76" y="512.64"/>
      </g>
     </g>
    </g>
    <g id="xtick_13">
     <g id="line2d_21">
      <g>
       <use style="fill:#262626;stroke:#262626;stroke-width:0.5;" x="162.985829" xlink:href="#m1da6f4de76" y="512.64"/>
      </g>
     </g>
    </g>
    <g id="xtick_14">
     <g id="line2d_22">
      <g>
       <use style="fill:#262626;stroke:#262626;stroke-width:0.5;" x="177.508392" xlink:href="#m1da6f4de76" y="512.64"/>
      </g>
     </g>
    </g>
    <g id="xtick_15">
     <g id="line2d_23">
      <g>
       <use style="fill:#262626;stroke:#262626;stroke-width:0.5;" x="189.787045" xlink:href="#m1da6f4de76" y="512.64"/>
      </g>
     </g>
    </g>
    <g id="xtick_16">
     <g id="line2d_24">
      <g>
       <use style="fill:#262626;stroke:#262626;stroke-width:0.5;" x="200.423297" xlink:href="#m1da6f4de76" y="512.64"/>
      </g>
     </g>
    </g>
    <g id="xtick_17">
     <g id="line2d_25">
      <g>
       <use style="fill:#262626;stroke:#262626;stroke-width:0.5;" x="209.805136" xlink:href="#m1da6f4de76" y="512.64"/>
      </g>
     </g>
    </g>
    <g id="xtick_18">
     <g id="line2d_26">
      <g>
       <use style="fill:#262626;stroke:#262626;stroke-width:0.5;" x="273.409126" xlink:href="#m1da6f4de76" y="512.64"/>
      </g>
     </g>
    </g>
    <g id="xtick_19">
     <g id="line2d_27">
      <g>
       <use style="fill:#262626;stroke:#262626;stroke-width:0.5;" x="305.70587" xlink:href="#m1da6f4de76" y="512.64"/>
      </g>
     </g>
    </g>
    <g id="xtick_20">
     <g id="line2d_28">
      <g>
       <use style="fill:#262626;stroke:#262626;stroke-width:0.5;" x="328.620775" xlink:href="#m1da6f4de76" y="512.64"/>
      </g>
     </g>
    </g>
    <g id="xtick_21">
     <g id="line2d_29">
      <g>
       <use style="fill:#262626;stroke:#262626;stroke-width:0.5;" x="346.394955" xlink:href="#m1da6f4de76" y="512.64"/>
      </g>
     </g>
    </g>
    <g id="xtick_22">
     <g id="line2d_30">
      <g>
       <use style="fill:#262626;stroke:#262626;stroke-width:0.5;" x="360.917518" xlink:href="#m1da6f4de76" y="512.64"/>
      </g>
     </g>
    </g>
    <g id="xtick_23">
     <g id="line2d_31">
      <g>
       <use style="fill:#262626;stroke:#262626;stroke-width:0.5;" x="373.196171" xlink:href="#m1da6f4de76" y="512.64"/>
      </g>
     </g>
    </g>
    <g id="xtick_24">
     <g id="line2d_32">
      <g>
       <use style="fill:#262626;stroke:#262626;stroke-width:0.5;" x="383.832423" xlink:href="#m1da6f4de76" y="512.64"/>
      </g>
     </g>
    </g>
    <g id="xtick_25">
     <g id="line2d_33">
      <g>
       <use style="fill:#262626;stroke:#262626;stroke-width:0.5;" x="393.214262" xlink:href="#m1da6f4de76" y="512.64"/>
      </g>
     </g>
    </g>
    <g id="xtick_26">
     <g id="line2d_34">
      <g>
       <use style="fill:#262626;stroke:#262626;stroke-width:0.5;" x="456.818252" xlink:href="#m1da6f4de76" y="512.64"/>
      </g>
     </g>
    </g>
    <g id="xtick_27">
     <g id="line2d_35">
      <g>
       <use style="fill:#262626;stroke:#262626;stroke-width:0.5;" x="489.114996" xlink:href="#m1da6f4de76" y="512.64"/>
      </g>
     </g>
    </g>
    <g id="xtick_28">
     <g id="line2d_36">
      <g>
       <use style="fill:#262626;stroke:#262626;stroke-width:0.5;" x="512.029901" xlink:href="#m1da6f4de76" y="512.64"/>
      </g>
     </g>
    </g>
    <g id="xtick_29">
     <g id="line2d_37">
      <g>
       <use style="fill:#262626;stroke:#262626;stroke-width:0.5;" x="529.804081" xlink:href="#m1da6f4de76" y="512.64"/>
      </g>
     </g>
    </g>
    <g id="xtick_30">
     <g id="line2d_38">
      <g>
       <use style="fill:#262626;stroke:#262626;stroke-width:0.5;" x="544.326645" xlink:href="#m1da6f4de76" y="512.64"/>
      </g>
     </g>
    </g>
    <g id="xtick_31">
     <g id="line2d_39">
      <g>
       <use style="fill:#262626;stroke:#262626;stroke-width:0.5;" x="556.605297" xlink:href="#m1da6f4de76" y="512.64"/>
      </g>
     </g>
    </g>
    <g id="xtick_32">
     <g id="line2d_40">
      <g>
       <use style="fill:#262626;stroke:#262626;stroke-width:0.5;" x="567.241549" xlink:href="#m1da6f4de76" y="512.64"/>
      </g>
     </g>
    </g>
    <g id="xtick_33">
     <g id="line2d_41">
      <g>
       <use style="fill:#262626;stroke:#262626;stroke-width:0.5;" x="576.623389" xlink:href="#m1da6f4de76" y="512.64"/>
      </g>
     </g>
    </g>
    <g id="xtick_34">
     <g id="line2d_42">
      <g>
       <use style="fill:#262626;stroke:#262626;stroke-width:0.5;" x="640.227378" xlink:href="#m1da6f4de76" y="512.64"/>
      </g>
     </g>
    </g>
   </g>
   <g id="matplotlib.axis_4">
    <g id="ytick_8">
     <g id="line2d_43">
      <g>
       <use style="fill:#262626;stroke:#262626;" x="90" xlink:href="#mb860a27630" y="512.64"/>
      </g>
     </g>
     <g id="text_17">
      <!-- $\mathdefault{10^{-5}}$ -->
      <defs>
       <path d="M 4.15625 18.75 
L 13.375 19.53125 
Q 14.40625 12.796875 18.140625 9.390625 
Q 21.875 6 27.15625 6 
Q 33.5 6 37.890625 10.78125 
Q 42.28125 15.578125 42.28125 23.484375 
Q 42.28125 31 38.0625 35.34375 
Q 33.84375 39.703125 27 39.703125 
Q 22.75 39.703125 19.328125 37.765625 
Q 15.921875 35.84375 13.96875 32.765625 
L 5.71875 33.84375 
L 12.640625 70.609375 
L 48.25 70.609375 
L 48.25 62.203125 
L 19.671875 62.203125 
L 15.828125 42.96875 
Q 22.265625 47.46875 29.34375 47.46875 
Q 38.71875 47.46875 45.15625 40.96875 
Q 51.609375 34.46875 51.609375 24.265625 
Q 51.609375 14.546875 45.953125 7.46875 
Q 39.0625 -1.21875 27.15625 -1.21875 
Q 17.390625 -1.21875 11.203125 4.25 
Q 5.03125 9.71875 4.15625 18.75 
z
" id="ArialMT-35"/>
      </defs>
      <g style="fill:#262626;" transform="translate(57.2 517.74625)scale(0.1 -0.1)">
       <use transform="translate(0 0.879688)" xlink:href="#ArialMT-31"/>
       <use transform="translate(55.615234 0.879688)" xlink:href="#ArialMT-30"/>
       <use transform="translate(112.972813 70.573438)scale(0.7)" xlink:href="#ArialMT-2212"/>
       <use transform="translate(153.851719 70.573438)scale(0.7)" xlink:href="#ArialMT-35"/>
      </g>
     </g>
    </g>
    <g id="ytick_9">
     <g id="line2d_44">
      <g>
       <use style="fill:#262626;stroke:#262626;" x="90" xlink:href="#mb860a27630" y="465.767507"/>
      </g>
     </g>
     <g id="text_18">
      <!-- $\mathdefault{10^{-4}}$ -->
      <g style="fill:#262626;" transform="translate(57.2 470.873757)scale(0.1 -0.1)">
       <use transform="translate(0 0.201563)" xlink:href="#ArialMT-31"/>
       <use transform="translate(55.615234 0.201563)" xlink:href="#ArialMT-30"/>
       <use transform="translate(112.972813 69.895313)scale(0.7)" xlink:href="#ArialMT-2212"/>
       <use transform="translate(153.851719 69.895313)scale(0.7)" xlink:href="#ArialMT-34"/>
      </g>
     </g>
    </g>
    <g id="ytick_10">
     <g id="line2d_45">
      <g>
       <use style="fill:#262626;stroke:#262626;" x="90" xlink:href="#mb860a27630" y="418.895013"/>
      </g>
     </g>
     <g id="text_19">
      <!-- $\mathdefault{10^{-3}}$ -->
      <g style="fill:#262626;" transform="translate(57.2 424.051263)scale(0.1 -0.1)">
       <use transform="translate(0 0.99375)" xlink:href="#ArialMT-31"/>
       <use transform="translate(55.615234 0.99375)" xlink:href="#ArialMT-30"/>
       <use transform="translate(112.972813 70.6875)scale(0.7)" xlink:href="#ArialMT-2212"/>
       <use transform="translate(153.851719 70.6875)scale(0.7)" xlink:href="#ArialMT-33"/>
      </g>
     </g>
    </g>
    <g id="ytick_11">
     <g id="line2d_46">
      <g>
       <use style="fill:#262626;stroke:#262626;" x="90" xlink:href="#mb860a27630" y="372.02252"/>
      </g>
     </g>
     <g id="text_20">
      <!-- $\mathdefault{10^{-2}}$ -->
      <g style="fill:#262626;" transform="translate(57.2 377.17877)scale(0.1 -0.1)">
       <use transform="translate(0 0.99375)" xlink:href="#ArialMT-31"/>
       <use transform="translate(55.615234 0.99375)" xlink:href="#ArialMT-30"/>
       <use transform="translate(112.972813 70.6875)scale(0.7)" xlink:href="#ArialMT-2212"/>
       <use transform="translate(153.851719 70.6875)scale(0.7)" xlink:href="#ArialMT-32"/>
      </g>
     </g>
    </g>
    <g id="ytick_12">
     <g id="line2d_47">
      <g>
       <use style="fill:#262626;stroke:#262626;" x="90" xlink:href="#mb860a27630" y="325.150026"/>
      </g>
     </g>
     <g id="text_21">
      <!-- $\mathdefault{10^{-1}}$ -->
      <g style="fill:#262626;" transform="translate(57.2 330.306276)scale(0.1 -0.1)">
       <use transform="translate(0 0.99375)" xlink:href="#ArialMT-31"/>
       <use transform="translate(55.615234 0.99375)" xlink:href="#ArialMT-30"/>
       <use transform="translate(112.972813 70.6875)scale(0.7)" xlink:href="#ArialMT-2212"/>
       <use transform="translate(153.851719 70.6875)scale(0.7)" xlink:href="#ArialMT-31"/>
      </g>
     </g>
    </g>
    <g id="ytick_13">
     <g id="line2d_48">
      <defs>
       <path d="M 0 0 
L -3 0 
" id="m77a09135f0" style="stroke:#262626;stroke-width:0.5;"/>
      </defs>
      <g>
       <use style="fill:#262626;stroke:#262626;stroke-width:0.5;" x="90" xlink:href="#m77a09135f0" y="498.529974"/>
      </g>
     </g>
    </g>
    <g id="ytick_14">
     <g id="line2d_49">
      <g>
       <use style="fill:#262626;stroke:#262626;stroke-width:0.5;" x="90" xlink:href="#m77a09135f0" y="490.276137"/>
      </g>
     </g>
    </g>
    <g id="ytick_15">
     <g id="line2d_50">
      <g>
       <use style="fill:#262626;stroke:#262626;stroke-width:0.5;" x="90" xlink:href="#m77a09135f0" y="484.419947"/>
      </g>
     </g>
    </g>
    <g id="ytick_16">
     <g id="line2d_51">
      <g>
       <use style="fill:#262626;stroke:#262626;stroke-width:0.5;" x="90" xlink:href="#m77a09135f0" y="479.877533"/>
      </g>
     </g>
    </g>
    <g id="ytick_17">
     <g id="line2d_52">
      <g>
       <use style="fill:#262626;stroke:#262626;stroke-width:0.5;" x="90" xlink:href="#m77a09135f0" y="476.166111"/>
      </g>
     </g>
    </g>
    <g id="ytick_18">
     <g id="line2d_53">
      <g>
       <use style="fill:#262626;stroke:#262626;stroke-width:0.5;" x="90" xlink:href="#m77a09135f0" y="473.028148"/>
      </g>
     </g>
    </g>
    <g id="ytick_19">
     <g id="line2d_54">
      <g>
       <use style="fill:#262626;stroke:#262626;stroke-width:0.5;" x="90" xlink:href="#m77a09135f0" y="470.309921"/>
      </g>
     </g>
    </g>
    <g id="ytick_20">
     <g id="line2d_55">
      <g>
       <use style="fill:#262626;stroke:#262626;stroke-width:0.5;" x="90" xlink:href="#m77a09135f0" y="467.912274"/>
      </g>
     </g>
    </g>
    <g id="ytick_21">
     <g id="line2d_56">
      <g>
       <use style="fill:#262626;stroke:#262626;stroke-width:0.5;" x="90" xlink:href="#m77a09135f0" y="451.65748"/>
      </g>
     </g>
    </g>
    <g id="ytick_22">
     <g id="line2d_57">
      <g>
       <use style="fill:#262626;stroke:#262626;stroke-width:0.5;" x="90" xlink:href="#m77a09135f0" y="443.403644"/>
      </g>
     </g>
    </g>
    <g id="ytick_23">
     <g id="line2d_58">
      <g>
       <use style="fill:#262626;stroke:#262626;stroke-width:0.5;" x="90" xlink:href="#m77a09135f0" y="437.547454"/>
      </g>
     </g>
    </g>
    <g id="ytick_24">
     <g id="line2d_59">
      <g>
       <use style="fill:#262626;stroke:#262626;stroke-width:0.5;" x="90" xlink:href="#m77a09135f0" y="433.00504"/>
      </g>
     </g>
    </g>
    <g id="ytick_25">
     <g id="line2d_60">
      <g>
       <use style="fill:#262626;stroke:#262626;stroke-width:0.5;" x="90" xlink:href="#m77a09135f0" y="429.293617"/>
      </g>
     </g>
    </g>
    <g id="ytick_26">
     <g id="line2d_61">
      <g>
       <use style="fill:#262626;stroke:#262626;stroke-width:0.5;" x="90" xlink:href="#m77a09135f0" y="426.155654"/>
      </g>
     </g>
    </g>
    <g id="ytick_27">
     <g id="line2d_62">
      <g>
       <use style="fill:#262626;stroke:#262626;stroke-width:0.5;" x="90" xlink:href="#m77a09135f0" y="423.437427"/>
      </g>
     </g>
    </g>
    <g id="ytick_28">
     <g id="line2d_63">
      <g>
       <use style="fill:#262626;stroke:#262626;stroke-width:0.5;" x="90" xlink:href="#m77a09135f0" y="421.039781"/>
      </g>
     </g>
    </g>
    <g id="ytick_29">
     <g id="line2d_64">
      <g>
       <use style="fill:#262626;stroke:#262626;stroke-width:0.5;" x="90" xlink:href="#m77a09135f0" y="404.784987"/>
      </g>
     </g>
    </g>
    <g id="ytick_30">
     <g id="line2d_65">
      <g>
       <use style="fill:#262626;stroke:#262626;stroke-width:0.5;" x="90" xlink:href="#m77a09135f0" y="396.53115"/>
      </g>
     </g>
    </g>
    <g id="ytick_31">
     <g id="line2d_66">
      <g>
       <use style="fill:#262626;stroke:#262626;stroke-width:0.5;" x="90" xlink:href="#m77a09135f0" y="390.67496"/>
      </g>
     </g>
    </g>
    <g id="ytick_32">
     <g id="line2d_67">
      <g>
       <use style="fill:#262626;stroke:#262626;stroke-width:0.5;" x="90" xlink:href="#m77a09135f0" y="386.132546"/>
      </g>
     </g>
    </g>
    <g id="ytick_33">
     <g id="line2d_68">
      <g>
       <use style="fill:#262626;stroke:#262626;stroke-width:0.5;" x="90" xlink:href="#m77a09135f0" y="382.421124"/>
      </g>
     </g>
    </g>
    <g id="ytick_34">
     <g id="line2d_69">
      <g>
       <use style="fill:#262626;stroke:#262626;stroke-width:0.5;" x="90" xlink:href="#m77a09135f0" y="379.283161"/>
      </g>
     </g>
    </g>
    <g id="ytick_35">
     <g id="line2d_70">
      <g>
       <use style="fill:#262626;stroke:#262626;stroke-width:0.5;" x="90" xlink:href="#m77a09135f0" y="376.564934"/>
      </g>
     </g>
    </g>
    <g id="ytick_36">
     <g id="line2d_71">
      <g>
       <use style="fill:#262626;stroke:#262626;stroke-width:0.5;" x="90" xlink:href="#m77a09135f0" y="374.167288"/>
      </g>
     </g>
    </g>
    <g id="ytick_37">
     <g id="line2d_72">
      <g>
       <use style="fill:#262626;stroke:#262626;stroke-width:0.5;" x="90" xlink:href="#m77a09135f0" y="357.912493"/>
      </g>
     </g>
    </g>
    <g id="ytick_38">
     <g id="line2d_73">
      <g>
       <use style="fill:#262626;stroke:#262626;stroke-width:0.5;" x="90" xlink:href="#m77a09135f0" y="349.658657"/>
      </g>
     </g>
    </g>
    <g id="ytick_39">
     <g id="line2d_74">
      <g>
       <use style="fill:#262626;stroke:#262626;stroke-width:0.5;" x="90" xlink:href="#m77a09135f0" y="343.802467"/>
      </g>
     </g>
    </g>
    <g id="ytick_40">
     <g id="line2d_75">
      <g>
       <use style="fill:#262626;stroke:#262626;stroke-width:0.5;" x="90" xlink:href="#m77a09135f0" y="339.260053"/>
      </g>
     </g>
    </g>
    <g id="ytick_41">
     <g id="line2d_76">
      <g>
       <use style="fill:#262626;stroke:#262626;stroke-width:0.5;" x="90" xlink:href="#m77a09135f0" y="335.548631"/>
      </g>
     </g>
    </g>
    <g id="ytick_42">
     <g id="line2d_77">
      <g>
       <use style="fill:#262626;stroke:#262626;stroke-width:0.5;" x="90" xlink:href="#m77a09135f0" y="332.410668"/>
      </g>
     </g>
    </g>
    <g id="ytick_43">
     <g id="line2d_78">
      <g>
       <use style="fill:#262626;stroke:#262626;stroke-width:0.5;" x="90" xlink:href="#m77a09135f0" y="329.69244"/>
      </g>
     </g>
    </g>
    <g id="ytick_44">
     <g id="line2d_79">
      <g>
       <use style="fill:#262626;stroke:#262626;stroke-width:0.5;" x="90" xlink:href="#m77a09135f0" y="327.294794"/>
      </g>
     </g>
    </g>
    <g id="ytick_45">
     <g id="line2d_80">
      <g>
       <use style="fill:#262626;stroke:#262626;stroke-width:0.5;" x="90" xlink:href="#m77a09135f0" y="311.04"/>
      </g>
     </g>
    </g>
   </g>
   <g id="line2d_81">
    <path clip-path="url(#p2b3fd78408)" d="M -1 368.477893 
L 151.095164 368.472153 
L 206.306812 394.470405 
L 238.603556 394.636755 
L 261.518461 410.733164 
L 279.292642 398.571937 
L 293.815205 364.064268 
L 306.093857 401.376277 
L 316.730109 405.678771 
L 334.50429 398.351354 
L 342.096086 387.120936 
L 349.026853 339.311612 
L 355.402541 388.206015 
L 361.305505 405.234842 
L 366.801034 415.209774 
L 371.941758 430.790016 
L 376.770725 434.892761 
L 381.323597 381.139888 
L 385.630245 404.352087 
L 389.715939 412.80626 
L 393.602249 412.837876 
L 397.307735 409.910687 
L 400.848476 400.779052 
L 404.238502 367.747927 
L 407.490119 392.889425 
L 410.614189 408.043168 
L 413.620341 413.86236 
L 416.517154 414.28558 
L 419.312303 407.592141 
L 422.012683 381.702534 
L 424.624509 396.069085 
L 427.153406 413.942524 
L 429.604479 422.905517 
L 431.982374 425.380809 
L 434.291335 419.97099 
L 436.535246 403.680171 
L 438.717672 406.651056 
L 440.841893 429.299697 
L 442.910933 443.955907 
L 446.894442 457.66297 
L 450.688186 431.508245 
L 452.519383 455.082333 
L 454.309426 461.127935 
L 456.060125 472.425447 
L 457.773171 463.878121 
L 459.45015 458.40735 
L 461.09255 429.188088 
L 462.701768 490.511616 
L 464.279118 465.206251 
L 465.825838 464.499128 
L 467.343094 459.784519 
L 468.83199 448.898176 
L 470.293564 411.401191 
L 471.728802 438.828516 
L 473.138637 457.22563 
L 474.523951 465.879102 
L 475.885584 465.924917 
L 477.224331 470.770242 
L 478.540949 461.363882 
L 479.836157 473.775191 
L 481.110642 493.534122 
L 482.365055 490.109715 
L 483.600019 475.768387 
L 484.816127 483.195451 
L 486.013948 474.779451 
L 487.194022 444.321677 
L 488.356869 494.525482 
L 489.502983 559.105856 
L 490.63284 504.199252 
L 491.746894 491.332535 
L 492.845581 513.606281 
L 493.92932 478.376608 
L 494.998512 475.052714 
L 496.053541 500.549407 
L 497.094779 497.308237 
L 498.122582 498.58346 
L 499.137291 497.453277 
L 500.139235 492.294989 
L 501.128734 463.550819 
L 502.10609 533.634243 
L 503.0716 511.471493 
L 504.025546 493.685806 
L 504.968203 493.825851 
L 505.899834 498.6315 
L 506.820695 491.54761 
L 507.731032 489.020991 
L 508.631082 519.266907 
L 509.521075 490.234414 
L 510.401234 514.350616 
L 511.271773 488.678078 
L 512.984819 476.557178 
L 513.827722 481.709429 
L 514.661799 493.123143 
L 515.487232 501.818112 
L 516.304198 495.251018 
L 517.112871 511.197291 
L 517.913416 498.684887 
L 518.705996 513.052299 
L 519.490766 494.960843 
L 520.26788 547.710857 
L 521.037486 492.280611 
L 521.799727 492.154633 
L 522.554743 506.640936 
L 523.302669 499.04071 
L 524.043638 515.691879 
L 524.777778 502.8836 
L 525.505212 500.564498 
L 526.226064 493.589561 
L 526.940451 508.609394 
L 527.648487 486.766364 
L 528.350285 503.593967 
L 529.045954 523.550893 
L 529.7356 487.474133 
L 530.419326 492.393754 
L 531.097232 504.782864 
L 531.769418 503.074679 
L 532.435979 492.657559 
L 533.097009 509.782632 
L 533.752597 497.995664 
L 534.402834 496.654334 
L 535.047806 519.091637 
L 535.687597 494.265079 
L 536.32229 492.513596 
L 536.951966 518.396084 
L 537.576703 481.990968 
L 538.196578 533.871822 
L 538.811667 492.653788 
L 539.422042 492.092202 
L 540.027776 493.699775 
L 540.628938 493.27497 
L 541.225596 507.700587 
L 541.817819 512.273832 
L 542.405671 503.995581 
L 542.989216 502.552237 
L 543.568517 493.162998 
L 544.143636 507.778606 
L 544.714632 530.278186 
L 545.281563 495.919709 
L 545.844488 519.66572 
L 546.403463 494.768745 
L 546.958543 497.429772 
L 547.509781 508.818613 
L 548.05723 513.299169 
L 548.600942 492.66945 
L 549.140969 501.926908 
L 549.677358 515.649203 
L 550.21016 494.529925 
L 550.739422 516.775146 
L 551.26519 499.030424 
L 551.78751 493.583282 
L 552.306428 495.9839 
L 552.821987 523.737376 
L 553.33423 517.564525 
L 553.8432 518.424256 
L 554.348939 493.723271 
L 554.851487 518.893484 
L 555.350884 514.436514 
L 555.847169 530.018115 
L 556.340382 495.022101 
L 556.830559 515.215277 
L 557.317739 511.452122 
L 557.801956 495.257787 
L 558.76165 519.043722 
L 559.237195 507.94083 
L 559.709918 501.667273 
L 560.179852 493.676224 
L 560.647029 501.973489 
L 561.111483 495.480361 
L 561.573244 492.872643 
L 562.032344 531.90279 
L 562.488812 508.244303 
L 562.94268 518.581113 
L 563.393976 521.056807 
L 563.84273 517.56058 
L 564.28897 498.476845 
L 564.732723 525.553353 
L 565.174019 524.626825 
L 565.612882 492.268239 
L 566.049341 502.658707 
L 566.483422 493.46856 
L 566.91515 500.36458 
L 567.34455 510.028471 
L 567.771648 498.348134 
L 568.619034 509.11153 
L 569.039371 498.053796 
L 569.457501 506.459593 
L 569.873447 518.757003 
L 570.287233 520.797857 
L 570.69888 529.502294 
L 571.108411 506.761958 
L 571.515847 519.315689 
L 571.921209 518.369253 
L 572.32452 536.141619 
L 572.725798 500.488221 
L 573.125065 534.443654 
L 573.917644 500.391422 
L 574.310996 527.332301 
L 574.702415 494.523376 
L 575.091919 517.529433 
L 575.479529 510.250792 
L 575.865261 511.120951 
L 576.249135 487.247313 
L 576.631167 495.632113 
L 577.011376 497.382504 
L 577.389778 516.809656 
L 577.766391 513.730278 
L 578.141232 502.929061 
L 578.514318 522.101699 
L 578.885664 508.033812 
L 579.255287 487.391279 
L 579.623202 490.545897 
L 579.989426 531.243018 
L 580.353974 513.705209 
L 580.716861 524.430771 
L 581.078102 493.466626 
L 581.437713 495.76841 
L 581.795707 501.343841 
L 582.152099 513.083871 
L 582.506904 493.737831 
L 582.860136 505.355945 
L 583.211808 504.266043 
L 583.910528 512.263563 
L 584.257603 487.830862 
L 584.603172 490.993009 
L 584.947248 539.133643 
L 585.289845 505.140193 
L 585.630974 509.829081 
L 585.970649 510.582067 
L 586.308881 491.984425 
L 586.645683 504.826446 
L 586.981067 510.231474 
L 587.315045 496.566214 
L 587.647628 522.566402 
L 587.978828 499.872568 
L 588.308657 529.565492 
L 588.637126 527.009926 
L 588.964246 508.260123 
L 589.290028 499.608329 
L 589.614483 515.47382 
L 589.937621 509.064083 
L 590.259454 517.881582 
L 590.579992 519.437902 
L 590.899246 488.937539 
L 591.217224 535.047469 
L 591.533939 497.66057 
L 592.163614 524.118015 
L 592.476596 512.23482 
L 592.788352 550.52731 
L 593.098892 500.184785 
L 593.408227 511.394782 
L 593.716365 508.445108 
L 594.023315 501.868154 
L 594.329088 510.923693 
L 594.633691 497.035221 
L 594.937133 516.338323 
L 595.239424 497.832402 
L 595.540572 516.014187 
L 596.139474 492.40539 
L 596.437245 495.434787 
L 596.733906 490.516914 
L 597.029467 504.263433 
L 597.617319 486.998969 
L 597.909626 507.084801 
L 598.200864 501.16261 
L 598.491042 505.038947 
L 598.780166 519.397994 
L 599.068244 486.029523 
L 599.355284 496.896093 
L 599.641294 495.493652 
L 599.92628 510.327182 
L 600.21025 513.674391 
L 600.493212 518.733455 
L 600.775172 498.365204 
L 601.056137 505.767476 
L 601.336115 526.348594 
L 601.615112 501.858278 
L 601.893135 499.342224 
L 602.170191 493.561354 
L 602.446287 504.06793 
L 602.721429 504.373462 
L 602.995624 493.069241 
L 603.541199 530.128894 
L 603.812591 482.277124 
L 604.352617 540.688179 
L 604.889007 499.007391 
L 605.155853 522.154033 
L 605.421809 517.438891 
L 605.686879 543.890176 
L 605.95107 499.87965 
L 606.214388 531.869921 
L 606.476838 494.374245 
L 606.738427 510.759693 
L 606.999159 514.824839 
L 607.25904 504.274895 
L 607.518076 503.504778 
L 607.776273 495.254454 
L 608.033635 514.974573 
L 608.290169 496.740064 
L 608.545879 488.207526 
L 608.80077 505.199763 
L 609.054849 497.671312 
L 609.308119 498.268378 
L 609.560587 487.8395 
L 610.063135 524.348585 
L 610.313225 500.256107 
L 610.562532 509.13418 
L 610.811062 491.586616 
L 611.058818 537.140185 
L 611.305806 508.778692 
L 611.55203 498.309031 
L 611.797496 507.255029 
L 612.042208 499.949407 
L 612.28617 501.71348 
L 612.529387 504.958697 
L 612.771864 497.675971 
L 613.013605 506.567778 
L 613.254614 533.306843 
L 613.494897 504.650851 
L 613.734457 491.458441 
L 613.973298 499.63689 
L 614.211426 513.078534 
L 614.448843 497.408327 
L 614.685555 503.838284 
L 614.921566 521.130394 
L 615.15688 510.537868 
L 615.3915 493.753827 
L 615.625431 493.519433 
L 615.858678 506.467389 
L 616.091243 491.141154 
L 616.323131 507.388421 
L 616.554347 504.222402 
L 616.784892 481.701254 
L 617.014773 508.645579 
L 617.243992 499.752826 
L 617.472553 497.554587 
L 617.700461 522.583659 
L 617.927718 519.206249 
L 618.154329 507.424413 
L 618.380296 515.000547 
L 618.605625 499.692174 
L 618.830318 497.725539 
L 619.054379 479.14778 
L 619.277811 497.420564 
L 619.500618 498.61854 
L 619.722804 508.574198 
L 619.944372 505.139657 
L 620.165325 522.854608 
L 620.605401 488.901214 
L 620.824531 534.912361 
L 621.043059 499.815199 
L 621.26099 488.293038 
L 621.478326 504.984808 
L 621.69507 501.937774 
L 622.126798 521.685524 
L 622.341787 495.26324 
L 622.983296 510.92673 
L 623.408116 498.259054 
L 623.61968 492.771179 
L 623.830683 518.752806 
L 624.041128 528.38904 
L 624.251019 500.494557 
L 624.460358 513.983044 
L 624.669149 497.641872 
L 625.085096 491.834579 
L 625.292257 494.538967 
L 625.498881 511.503439 
L 625.704971 491.537361 
L 625.910528 502.471168 
L 626.115557 503.949694 
L 626.320059 503.219075 
L 626.524038 510.379092 
L 626.727495 511.062369 
L 626.930435 499.898053 
L 627.132858 497.161431 
L 627.334768 498.334452 
L 627.536168 501.84271 
L 627.73706 525.350288 
L 627.937446 495.86569 
L 628.13733 514.017323 
L 628.535599 505.14063 
L 628.733989 492.356532 
L 628.931886 497.307757 
L 629.129293 494.535728 
L 629.326211 489.571814 
L 629.522644 501.935206 
L 629.718594 496.407966 
L 629.914063 510.257752 
L 630.109054 490.441182 
L 630.303568 515.775445 
L 630.497608 496.44603 
L 630.691177 510.217805 
L 630.884277 509.830007 
L 631.07691 486.882966 
L 631.269078 520.236112 
L 631.460783 491.447392 
L 631.652028 488.513459 
L 631.842815 509.780503 
L 632.033146 513.273511 
L 632.41245 493.121918 
L 632.789956 503.36127 
L 632.97804 499.972951 
L 633.165681 506.81609 
L 633.352881 494.651653 
L 633.539642 519.572077 
L 633.725966 506.158347 
L 633.911856 517.598958 
L 634.466935 482.389664 
L 634.651105 486.309996 
L 634.83485 482.859625 
L 635.201074 509.612784 
L 635.383557 502.630196 
L 635.565622 508.785653 
L 635.747272 494.457804 
L 635.928509 494.036012 
L 636.109335 509.039246 
L 636.289751 507.665573 
L 636.469759 492.092771 
L 636.649361 524.81975 
L 636.828559 489.374238 
L 637.007355 477.750562 
L 637.185751 525.479666 
L 637.363748 485.257062 
L 637.541348 485.043501 
L 637.895364 543.075612 
L 638.071784 487.063603 
L 638.247814 508.869394 
L 638.423456 500.669971 
L 638.598712 532.789151 
L 638.773582 522.893446 
L 638.94807 499.014163 
L 639.122176 509.977744 
L 639.469251 498.545307 
L 639.642223 492.344125 
L 639.81482 523.424137 
L 639.987044 497.243093 
L 640.158897 530.31912 
L 640.330379 497.587698 
L 640.501493 527.019405 
L 640.67224 485.598183 
L 641.012641 504.653471 
L 641.182297 504.435194 
L 641.351593 506.047986 
L 641.520529 483.281404 
L 641.857331 511.405972 
L 642.0252 489.678662 
L 642.192715 506.26624 
L 642.359879 500.002363 
L 642.526693 502.15319 
L 642.693158 491.789842 
L 643.025049 503.523489 
L 643.190477 491.368918 
L 643.355562 526.370867 
L 643.520306 516.470693 
L 643.684709 495.566495 
L 643.848774 495.854535 
L 644.012502 554.388504 
L 644.175894 508.843586 
L 644.338952 536.946608 
L 644.501676 489.054613 
L 644.664069 494.491317 
L 644.826131 524.264999 
L 644.987864 506.018993 
L 645.14927 512.294082 
L 645.310349 507.91859 
L 645.631533 509.933493 
L 645.951427 493.745396 
L 646.110894 501.80318 
L 646.270042 557.620032 
L 646.428873 506.307761 
L 646.587387 507.700895 
L 646.745587 500.767748 
L 646.903473 502.68637 
L 647.061047 502.721751 
L 647.21831 515.199338 
L 647.375263 510.771015 
L 647.531907 510.877741 
L 647.688244 512.663477 
L 647.844274 531.508914 
L 647.844274 531.508914 
" style="fill:none;stroke:#b22222;stroke-linecap:round;stroke-width:1.75;"/>
   </g>
   <g id="patch_6">
    <path d="M 90 512.64 
L 90 311.04 
" style="fill:none;stroke:#262626;stroke-linecap:square;stroke-linejoin:miter;stroke-width:1.25;"/>
   </g>
   <g id="patch_7">
    <path d="M 90 512.64 
L 648 512.64 
" style="fill:none;stroke:#262626;stroke-linecap:square;stroke-linejoin:miter;stroke-width:1.25;"/>
   </g>
  </g>
 </g>
 <defs>
  <clipPath id="p2034a7ddde">
   <rect height="201.6" width="558" x="90" y="69.12"/>
  </clipPath>
  <clipPath id="p2b3fd78408">
   <rect height="201.6" width="558" x="90" y="311.04"/>
  </clipPath>
 </defs>
</svg>
