<?xml version="1.0" encoding="utf-8" standalone="no"?>
<!DOCTYPE svg PUBLIC "-//W3C//DTD SVG 1.1//EN"
  "http://www.w3.org/Graphics/SVG/1.1/DTD/svg11.dtd">
<!-- Created with matplotlib (http://matplotlib.org/) -->
<svg height="576pt" version="1.1" viewBox="0 0 720 576" width="720pt" xmlns="http://www.w3.org/2000/svg" xmlns:xlink="http://www.w3.org/1999/xlink">
 <defs>
  <style type="text/css">
*{stroke-linecap:butt;stroke-linejoin:round;}
  </style>
 </defs>
 <g id="figure_1">
  <g id="patch_1">
   <path d="M 0 576 
L 720 576 
L 720 0 
L 0 0 
z
" style="fill:#ffffff;"/>
  </g>
  <g id="axes_1">
   <g id="patch_2">
    <path d="M 90 270.72 
L 648 270.72 
L 648 69.12 
L 90 69.12 
z
" style="fill:#ffffff;"/>
   </g>
   <g id="matplotlib.axis_1">
    <g id="xtick_1">
     <g id="line2d_1">
      <defs>
       <path d="M 0 0 
L 0 6 
" id="m050f455829" style="stroke:#262626;"/>
      </defs>
      <g>
       <use style="fill:#262626;stroke:#262626;" x="90" xlink:href="#m050f455829" y="270.72"/>
      </g>
     </g>
     <g id="text_1">
      <!-- 0 -->
      <defs>
       <path d="M 4.15625 35.296875 
Q 4.15625 48 6.765625 55.734375 
Q 9.375 63.484375 14.515625 67.671875 
Q 19.671875 71.875 27.484375 71.875 
Q 33.25 71.875 37.59375 69.546875 
Q 41.9375 67.234375 44.765625 62.859375 
Q 47.609375 58.5 49.21875 52.21875 
Q 50.828125 45.953125 50.828125 35.296875 
Q 50.828125 22.703125 48.234375 14.96875 
Q 45.65625 7.234375 40.5 3 
Q 35.359375 -1.21875 27.484375 -1.21875 
Q 17.140625 -1.21875 11.234375 6.203125 
Q 4.15625 15.140625 4.15625 35.296875 
z
M 13.1875 35.296875 
Q 13.1875 17.671875 17.3125 11.828125 
Q 21.4375 6 27.484375 6 
Q 33.546875 6 37.671875 11.859375 
Q 41.796875 17.71875 41.796875 35.296875 
Q 41.796875 52.984375 37.671875 58.78125 
Q 33.546875 64.59375 27.390625 64.59375 
Q 21.34375 64.59375 17.71875 59.46875 
Q 13.1875 52.9375 13.1875 35.296875 
z
" id="ArialMT-30"/>
      </defs>
      <g style="fill:#262626;" transform="translate(87.219531 290.877812)scale(0.1 -0.1)">
       <use xlink:href="#ArialMT-30"/>
      </g>
     </g>
    </g>
    <g id="xtick_2">
     <g id="line2d_2">
      <g>
       <use style="fill:#262626;stroke:#262626;" x="198.984375" xlink:href="#m050f455829" y="270.72"/>
      </g>
     </g>
     <g id="text_2">
      <!-- 200 -->
      <defs>
       <path d="M 50.34375 8.453125 
L 50.34375 0 
L 3.03125 0 
Q 2.9375 3.171875 4.046875 6.109375 
Q 5.859375 10.9375 9.828125 15.625 
Q 13.8125 20.3125 21.34375 26.46875 
Q 33.015625 36.03125 37.109375 41.625 
Q 41.21875 47.21875 41.21875 52.203125 
Q 41.21875 57.421875 37.46875 61 
Q 33.734375 64.59375 27.734375 64.59375 
Q 21.390625 64.59375 17.578125 60.78125 
Q 13.765625 56.984375 13.71875 50.25 
L 4.6875 51.171875 
Q 5.609375 61.28125 11.65625 66.578125 
Q 17.71875 71.875 27.9375 71.875 
Q 38.234375 71.875 44.234375 66.15625 
Q 50.25 60.453125 50.25 52 
Q 50.25 47.703125 48.484375 43.546875 
Q 46.734375 39.40625 42.65625 34.8125 
Q 38.578125 30.21875 29.109375 22.21875 
Q 21.1875 15.578125 18.9375 13.203125 
Q 16.703125 10.84375 15.234375 8.453125 
z
" id="ArialMT-32"/>
      </defs>
      <g style="fill:#262626;" transform="translate(190.642969 290.877812)scale(0.1 -0.1)">
       <use xlink:href="#ArialMT-32"/>
       <use x="55.615234" xlink:href="#ArialMT-30"/>
       <use x="111.230469" xlink:href="#ArialMT-30"/>
      </g>
     </g>
    </g>
    <g id="xtick_3">
     <g id="line2d_3">
      <g>
       <use style="fill:#262626;stroke:#262626;" x="307.96875" xlink:href="#m050f455829" y="270.72"/>
      </g>
     </g>
     <g id="text_3">
      <!-- 400 -->
      <defs>
       <path d="M 32.328125 0 
L 32.328125 17.140625 
L 1.265625 17.140625 
L 1.265625 25.203125 
L 33.9375 71.578125 
L 41.109375 71.578125 
L 41.109375 25.203125 
L 50.78125 25.203125 
L 50.78125 17.140625 
L 41.109375 17.140625 
L 41.109375 0 
z
M 32.328125 25.203125 
L 32.328125 57.46875 
L 9.90625 25.203125 
z
" id="ArialMT-34"/>
      </defs>
      <g style="fill:#262626;" transform="translate(299.627344 290.877812)scale(0.1 -0.1)">
       <use xlink:href="#ArialMT-34"/>
       <use x="55.615234" xlink:href="#ArialMT-30"/>
       <use x="111.230469" xlink:href="#ArialMT-30"/>
      </g>
     </g>
    </g>
    <g id="xtick_4">
     <g id="line2d_4">
      <g>
       <use style="fill:#262626;stroke:#262626;" x="416.953125" xlink:href="#m050f455829" y="270.72"/>
      </g>
     </g>
     <g id="text_4">
      <!-- 600 -->
      <defs>
       <path d="M 49.75 54.046875 
L 41.015625 53.375 
Q 39.84375 58.546875 37.703125 60.890625 
Q 34.125 64.65625 28.90625 64.65625 
Q 24.703125 64.65625 21.53125 62.3125 
Q 17.390625 59.28125 14.984375 53.46875 
Q 12.59375 47.65625 12.5 36.921875 
Q 15.671875 41.75 20.265625 44.09375 
Q 24.859375 46.4375 29.890625 46.4375 
Q 38.671875 46.4375 44.84375 39.96875 
Q 51.03125 33.5 51.03125 23.25 
Q 51.03125 16.5 48.125 10.71875 
Q 45.21875 4.9375 40.140625 1.859375 
Q 35.0625 -1.21875 28.609375 -1.21875 
Q 17.625 -1.21875 10.6875 6.859375 
Q 3.765625 14.9375 3.765625 33.5 
Q 3.765625 54.25 11.421875 63.671875 
Q 18.109375 71.875 29.4375 71.875 
Q 37.890625 71.875 43.28125 67.140625 
Q 48.6875 62.40625 49.75 54.046875 
z
M 13.875 23.1875 
Q 13.875 18.65625 15.796875 14.5 
Q 17.71875 10.359375 21.1875 8.171875 
Q 24.65625 6 28.46875 6 
Q 34.03125 6 38.03125 10.484375 
Q 42.046875 14.984375 42.046875 22.703125 
Q 42.046875 30.125 38.078125 34.390625 
Q 34.125 38.671875 28.125 38.671875 
Q 22.171875 38.671875 18.015625 34.390625 
Q 13.875 30.125 13.875 23.1875 
z
" id="ArialMT-36"/>
      </defs>
      <g style="fill:#262626;" transform="translate(408.611719 290.877812)scale(0.1 -0.1)">
       <use xlink:href="#ArialMT-36"/>
       <use x="55.615234" xlink:href="#ArialMT-30"/>
       <use x="111.230469" xlink:href="#ArialMT-30"/>
      </g>
     </g>
    </g>
    <g id="xtick_5">
     <g id="line2d_5">
      <g>
       <use style="fill:#262626;stroke:#262626;" x="525.9375" xlink:href="#m050f455829" y="270.72"/>
      </g>
     </g>
     <g id="text_5">
      <!-- 800 -->
      <defs>
       <path d="M 17.671875 38.8125 
Q 12.203125 40.828125 9.5625 44.53125 
Q 6.9375 48.25 6.9375 53.421875 
Q 6.9375 61.234375 12.546875 66.546875 
Q 18.171875 71.875 27.484375 71.875 
Q 36.859375 71.875 42.578125 66.421875 
Q 48.296875 60.984375 48.296875 53.171875 
Q 48.296875 48.1875 45.671875 44.5 
Q 43.0625 40.828125 37.75 38.8125 
Q 44.34375 36.671875 47.78125 31.875 
Q 51.21875 27.09375 51.21875 20.453125 
Q 51.21875 11.28125 44.71875 5.03125 
Q 38.234375 -1.21875 27.640625 -1.21875 
Q 17.046875 -1.21875 10.546875 5.046875 
Q 4.046875 11.328125 4.046875 20.703125 
Q 4.046875 27.6875 7.59375 32.390625 
Q 11.140625 37.109375 17.671875 38.8125 
z
M 15.921875 53.71875 
Q 15.921875 48.640625 19.1875 45.40625 
Q 22.46875 42.1875 27.6875 42.1875 
Q 32.765625 42.1875 36.015625 45.375 
Q 39.265625 48.578125 39.265625 53.21875 
Q 39.265625 58.0625 35.90625 61.359375 
Q 32.5625 64.65625 27.59375 64.65625 
Q 22.5625 64.65625 19.234375 61.421875 
Q 15.921875 58.203125 15.921875 53.71875 
z
M 13.09375 20.65625 
Q 13.09375 16.890625 14.875 13.375 
Q 16.65625 9.859375 20.171875 7.921875 
Q 23.6875 6 27.734375 6 
Q 34.03125 6 38.125 10.046875 
Q 42.234375 14.109375 42.234375 20.359375 
Q 42.234375 26.703125 38.015625 30.859375 
Q 33.796875 35.015625 27.4375 35.015625 
Q 21.234375 35.015625 17.15625 30.90625 
Q 13.09375 26.8125 13.09375 20.65625 
z
" id="ArialMT-38"/>
      </defs>
      <g style="fill:#262626;" transform="translate(517.596094 290.877812)scale(0.1 -0.1)">
       <use xlink:href="#ArialMT-38"/>
       <use x="55.615234" xlink:href="#ArialMT-30"/>
       <use x="111.230469" xlink:href="#ArialMT-30"/>
      </g>
     </g>
    </g>
    <g id="xtick_6">
     <g id="line2d_6">
      <g>
       <use style="fill:#262626;stroke:#262626;" x="634.921875" xlink:href="#m050f455829" y="270.72"/>
      </g>
     </g>
     <g id="text_6">
      <!-- 1000 -->
      <defs>
       <path d="M 37.25 0 
L 28.46875 0 
L 28.46875 56 
Q 25.296875 52.984375 20.140625 49.953125 
Q 14.984375 46.921875 10.890625 45.40625 
L 10.890625 53.90625 
Q 18.265625 57.375 23.78125 62.296875 
Q 29.296875 67.234375 31.59375 71.875 
L 37.25 71.875 
z
" id="ArialMT-31"/>
      </defs>
      <g style="fill:#262626;" transform="translate(623.8 290.877812)scale(0.1 -0.1)">
       <use xlink:href="#ArialMT-31"/>
       <use x="55.615234" xlink:href="#ArialMT-30"/>
       <use x="111.230469" xlink:href="#ArialMT-30"/>
       <use x="166.845703" xlink:href="#ArialMT-30"/>
      </g>
     </g>
    </g>
   </g>
   <g id="matplotlib.axis_2">
    <g id="ytick_1">
     <g id="line2d_7">
      <defs>
       <path d="M 0 0 
L -6 0 
" id="m3fb5c43646" style="stroke:#262626;"/>
      </defs>
      <g>
       <use style="fill:#262626;stroke:#262626;" x="90" xlink:href="#m3fb5c43646" y="270.72"/>
      </g>
     </g>
     <g id="text_7">
      <!-- −0.6 -->
      <defs>
       <path d="M 52.828125 31.203125 
L 5.5625 31.203125 
L 5.5625 39.40625 
L 52.828125 39.40625 
z
" id="ArialMT-2212"/>
       <path d="M 9.078125 0 
L 9.078125 10.015625 
L 19.09375 10.015625 
L 19.09375 0 
z
" id="ArialMT-2e"/>
      </defs>
      <g style="fill:#262626;" transform="translate(57.259375 274.298906)scale(0.1 -0.1)">
       <use xlink:href="#ArialMT-2212"/>
       <use x="58.398438" xlink:href="#ArialMT-30"/>
       <use x="114.013672" xlink:href="#ArialMT-2e"/>
       <use x="141.796875" xlink:href="#ArialMT-36"/>
      </g>
     </g>
    </g>
    <g id="ytick_2">
     <g id="line2d_8">
      <g>
       <use style="fill:#262626;stroke:#262626;" x="90" xlink:href="#m3fb5c43646" y="237.12"/>
      </g>
     </g>
     <g id="text_8">
      <!-- −0.4 -->
      <g style="fill:#262626;" transform="translate(57.259375 240.698906)scale(0.1 -0.1)">
       <use xlink:href="#ArialMT-2212"/>
       <use x="58.398438" xlink:href="#ArialMT-30"/>
       <use x="114.013672" xlink:href="#ArialMT-2e"/>
       <use x="141.796875" xlink:href="#ArialMT-34"/>
      </g>
     </g>
    </g>
    <g id="ytick_3">
     <g id="line2d_9">
      <g>
       <use style="fill:#262626;stroke:#262626;" x="90" xlink:href="#m3fb5c43646" y="203.52"/>
      </g>
     </g>
     <g id="text_9">
      <!-- −0.2 -->
      <g style="fill:#262626;" transform="translate(57.259375 207.098906)scale(0.1 -0.1)">
       <use xlink:href="#ArialMT-2212"/>
       <use x="58.398438" xlink:href="#ArialMT-30"/>
       <use x="114.013672" xlink:href="#ArialMT-2e"/>
       <use x="141.796875" xlink:href="#ArialMT-32"/>
      </g>
     </g>
    </g>
    <g id="ytick_4">
     <g id="line2d_10">
      <g>
       <use style="fill:#262626;stroke:#262626;" x="90" xlink:href="#m3fb5c43646" y="169.92"/>
      </g>
     </g>
     <g id="text_10">
      <!-- 0.0 -->
      <g style="fill:#262626;" transform="translate(63.1 173.498906)scale(0.1 -0.1)">
       <use xlink:href="#ArialMT-30"/>
       <use x="55.615234" xlink:href="#ArialMT-2e"/>
       <use x="83.398438" xlink:href="#ArialMT-30"/>
      </g>
     </g>
    </g>
    <g id="ytick_5">
     <g id="line2d_11">
      <g>
       <use style="fill:#262626;stroke:#262626;" x="90" xlink:href="#m3fb5c43646" y="136.32"/>
      </g>
     </g>
     <g id="text_11">
      <!-- 0.2 -->
      <g style="fill:#262626;" transform="translate(63.1 139.898906)scale(0.1 -0.1)">
       <use xlink:href="#ArialMT-30"/>
       <use x="55.615234" xlink:href="#ArialMT-2e"/>
       <use x="83.398438" xlink:href="#ArialMT-32"/>
      </g>
     </g>
    </g>
    <g id="ytick_6">
     <g id="line2d_12">
      <g>
       <use style="fill:#262626;stroke:#262626;" x="90" xlink:href="#m3fb5c43646" y="102.72"/>
      </g>
     </g>
     <g id="text_12">
      <!-- 0.4 -->
      <g style="fill:#262626;" transform="translate(63.1 106.298906)scale(0.1 -0.1)">
       <use xlink:href="#ArialMT-30"/>
       <use x="55.615234" xlink:href="#ArialMT-2e"/>
       <use x="83.398438" xlink:href="#ArialMT-34"/>
      </g>
     </g>
    </g>
    <g id="ytick_7">
     <g id="line2d_13">
      <g>
       <use style="fill:#262626;stroke:#262626;" x="90" xlink:href="#m3fb5c43646" y="69.12"/>
      </g>
     </g>
     <g id="text_13">
      <!-- 0.6 -->
      <g style="fill:#262626;" transform="translate(63.1 72.698906)scale(0.1 -0.1)">
       <use xlink:href="#ArialMT-30"/>
       <use x="55.615234" xlink:href="#ArialMT-2e"/>
       <use x="83.398438" xlink:href="#ArialMT-36"/>
      </g>
     </g>
    </g>
   </g>
   <g id="line2d_14">
    <path clip-path="url(#pd475cd2861)" d="M 90 174.534258 
L 90.544922 174.426592 
L 91.089844 174.057451 
L 91.634766 173.949785 
L 92.179688 173.31917 
L 92.724609 172.442461 
L 93.269531 172.047686 
L 93.814453 171.258135 
L 94.359375 170.258379 
L 94.904297 169.622637 
L 95.449219 168.740801 
L 96.539062 166.582354 
L 97.083984 165.767168 
L 97.628906 165.162187 
L 98.173828 164.239336 
L 99.263672 163.167803 
L 101.443359 163.152422 
L 101.988281 163.131914 
L 103.623047 163.818926 
L 104.167969 164.321367 
L 105.257812 164.664873 
L 105.802734 165.146807 
L 106.347656 164.782793 
L 106.892578 165.223711 
L 107.4375 165.464678 
L 109.072266 165.777422 
L 109.617188 166.126055 
L 110.162109 166.03377 
L 111.251953 167.048906 
L 111.796875 167.500078 
L 112.341797 168.479326 
L 113.431641 169.704668 
L 113.976562 170.832598 
L 114.521484 171.683672 
L 115.066406 172.893633 
L 115.611328 173.688311 
L 116.15625 174.949541 
L 117.791016 177.031084 
L 118.335938 177.600176 
L 119.425781 178.143633 
L 119.970703 178.420488 
L 120.515625 178.276934 
L 121.060547 178.45125 
L 121.605469 177.764238 
L 123.240234 175.026445 
L 124.875 170.678789 
L 125.964844 167.587236 
L 127.054688 164.577715 
L 128.144531 162.403887 
L 128.689453 161.3221 
L 129.234375 160.645342 
L 130.869141 160.065996 
L 131.414062 160.163408 
L 133.048828 161.055498 
L 133.59375 161.804033 
L 134.683594 162.839678 
L 135.773438 163.562578 
L 136.318359 163.685625 
L 136.863281 164.003496 
L 137.408203 164.029131 
L 137.953125 164.628984 
L 139.042969 164.264971 
L 139.587891 164.259844 
L 140.132812 163.972734 
L 140.677734 163.921465 
L 142.857422 162.178301 
L 143.947266 160.696611 
L 148.306641 152.565264 
L 148.851562 151.924395 
L 149.396484 151.637285 
L 149.941406 151.07332 
L 150.486328 151.293779 
L 151.03125 151.345049 
L 151.576172 151.878252 
L 152.666016 153.5804 
L 153.210938 154.728838 
L 154.300781 157.999834 
L 157.025391 167.664141 
L 158.115234 171.576006 
L 159.205078 175.011064 
L 160.294922 177.795 
L 161.929688 180.153398 
L 162.474609 180.435381 
L 163.019531 180.589189 
L 164.109375 180.517412 
L 165.744141 178.328203 
L 166.833984 176.313311 
L 167.923828 174.785479 
L 168.46875 173.842119 
L 170.103516 172.391191 
L 170.648438 172.160479 
L 172.283203 171.893877 
L 172.828125 171.883623 
L 173.373047 171.576006 
L 173.917969 171.699053 
L 174.462891 171.606768 
L 175.552734 171.012041 
L 176.097656 170.571123 
L 176.642578 170.62752 
L 178.277344 169.120195 
L 178.822266 169.140703 
L 179.912109 168.679277 
L 180.457031 168.689531 
L 181.001953 168.074297 
L 181.546875 167.915361 
L 182.636719 167.100176 
L 183.726562 166.474687 
L 185.361328 164.388018 
L 185.90625 163.29085 
L 186.451172 162.726885 
L 186.996094 161.568193 
L 188.630859 159.086748 
L 189.175781 158.476641 
L 190.265625 156.984697 
L 191.355469 156.169512 
L 191.900391 156.08748 
L 192.445312 156.133623 
L 193.535156 156.061846 
L 194.625 156.543779 
L 195.169922 156.820635 
L 195.714844 157.343584 
L 196.259766 157.21541 
L 196.804688 157.558916 
L 197.349609 157.543535 
L 197.894531 157.825518 
L 198.439453 157.692217 
L 198.984375 157.80501 
L 199.529297 157.666582 
L 200.074219 157.80501 
L 200.619141 157.784502 
L 201.164062 157.963945 
L 201.708984 158.271562 
L 203.34375 159.681475 
L 203.888672 160.604326 
L 204.433594 161.111895 
L 204.978516 162.244951 
L 205.523438 162.957598 
L 208.248047 167.71541 
L 208.792969 168.366533 
L 209.337891 169.386797 
L 209.882812 170.032793 
L 210.427734 170.971025 
L 210.972656 171.365801 
L 212.0625 171.8221 
L 212.607422 171.714434 
L 213.152344 171.401689 
L 214.242188 170.022539 
L 214.787109 168.966387 
L 216.421875 164.910967 
L 216.966797 163.12166 
L 219.146484 158.092119 
L 220.236328 156.523271 
L 221.326172 155.523516 
L 221.871094 155.451738 
L 222.960938 155.585039 
L 223.505859 155.872148 
L 224.595703 156.810381 
L 225.685547 157.3846 
L 227.320312 158.681719 
L 228.410156 159.086748 
L 228.955078 158.912432 
L 229.5 159.337969 
L 231.134766 159.404619 
L 231.679688 159.281572 
L 232.224609 159.322588 
L 232.769531 158.835527 
L 233.314453 158.886797 
L 234.404297 157.599932 
L 234.949219 156.67708 
L 235.494141 156.149004 
L 236.583984 154.575029 
L 239.308594 149.186602 
L 239.853516 148.161211 
L 240.398438 147.402422 
L 240.943359 146.894854 
L 242.033203 146.484697 
L 242.578125 146.566729 
L 243.123047 146.940996 
L 243.667969 147.530596 
L 244.212891 148.407305 
L 245.847656 152.534502 
L 246.9375 156.046465 
L 250.751953 168.776689 
L 251.841797 171.427324 
L 252.386719 172.811602 
L 253.476562 174.406084 
L 254.021484 174.93416 
L 254.566406 175.241777 
L 256.201172 174.544512 
L 259.470703 170.22249 
L 260.015625 169.68416 
L 260.560547 169.484209 
L 261.105469 169.099687 
L 262.195312 169.02791 
L 262.740234 168.65877 
L 263.285156 168.684404 
L 263.830078 168.443437 
L 264.919922 168.274248 
L 265.464844 168.033281 
L 266.009766 168.00252 
L 266.554688 167.587236 
L 267.099609 167.402666 
L 267.644531 166.889971 
L 269.824219 165.715898 
L 270.914062 165.367266 
L 271.458984 165.357012 
L 272.548828 164.521318 
L 273.638672 164.218828 
L 275.273438 163.096025 
L 275.818359 162.198809 
L 276.908203 160.983721 
L 277.453125 159.860918 
L 277.998047 159.194414 
L 279.632812 156.430986 
L 281.267578 154.349443 
L 281.8125 154.211016 
L 282.357422 153.559893 
L 282.902344 153.098467 
L 283.447266 152.883135 
L 283.992188 152.811357 
L 284.537109 152.893389 
L 285.082031 153.267656 
L 285.626953 153.411211 
L 286.716797 154.067461 
L 287.261719 154.40584 
L 287.806641 154.467363 
L 288.351562 154.672441 
L 288.896484 154.672441 
L 289.441406 154.928789 
L 290.53125 154.498125 
L 291.076172 154.672441 
L 291.621094 154.277666 
L 292.166016 154.616045 
L 292.710938 154.636553 
L 294.345703 155.472246 
L 296.525391 157.656328 
L 297.070312 158.748369 
L 297.615234 159.312334 
L 302.519531 169.274004 
L 303.609375 170.499346 
L 304.154297 170.565996 
L 304.699219 170.514727 
L 305.244141 170.330156 
L 306.878906 167.684648 
L 307.96875 165.151934 
L 310.693359 158.451006 
L 311.783203 156.923174 
L 312.328125 156.251543 
L 312.873047 155.815752 
L 313.962891 155.467119 
L 314.507812 155.451738 
L 315.597656 155.800371 
L 318.867188 157.574297 
L 319.412109 158.081865 
L 321.046875 159.009844 
L 321.591797 159.445635 
L 322.136719 159.491777 
L 322.681641 159.768633 
L 323.226562 159.917314 
L 323.771484 159.778887 
L 324.316406 159.84041 
L 325.40625 159.563555 
L 327.041016 157.892168 
L 327.585938 156.666826 
L 328.130859 156.102861 
L 328.675781 154.82625 
L 329.220703 153.918779 
L 330.310547 151.298906 
L 332.490234 147.479326 
L 334.125 146.24373 
L 335.214844 146.689775 
L 336.304688 148.397051 
L 337.394531 150.745195 
L 337.939453 152.144854 
L 340.664062 161.111895 
L 341.753906 165.372393 
L 343.933594 171.304277 
L 344.478516 172.550127 
L 345.023438 173.375566 
L 346.113281 174.426592 
L 347.203125 174.385576 
L 348.292969 173.836992 
L 348.837891 173.237139 
L 349.382812 172.832109 
L 349.927734 172.652666 
L 350.472656 172.068193 
L 351.017578 171.801592 
L 352.107422 170.653154 
L 352.652344 170.904375 
L 353.742188 170.432695 
L 355.921875 170.084062 
L 356.466797 169.658525 
L 357.556641 169.248369 
L 358.101562 168.643389 
L 358.646484 168.663896 
L 359.191406 168.207598 
L 360.28125 167.95125 
L 360.826172 167.664141 
L 361.916016 167.823076 
L 362.460938 167.556475 
L 363.005859 167.710283 
L 365.185547 167.089922 
L 366.820312 165.838945 
L 368.455078 164.193193 
L 369.544922 162.624346 
L 371.724609 158.8304 
L 372.269531 158.210039 
L 372.814453 157.358965 
L 373.359375 157.082109 
L 373.904297 156.451494 
L 374.449219 156.32332 
L 374.994141 156.025957 
L 376.083984 156.005449 
L 376.628906 156.292559 
L 377.173828 156.149004 
L 379.353516 156.415605 
L 379.898438 156.451494 
L 380.988281 156.184893 
L 382.623047 156.395098 
L 383.167969 156.277178 
L 383.712891 156.400225 
L 384.802734 156.933428 
L 385.347656 157.169268 
L 385.892578 157.697344 
L 386.4375 157.881914 
L 387.527344 158.897051 
L 389.162109 161.091387 
L 389.707031 162.193682 
L 390.796875 164.78792 
L 391.341797 165.859453 
L 392.976562 169.92 
L 394.066406 171.83748 
L 395.15625 173.314043 
L 395.701172 173.744707 
L 396.791016 173.698564 
L 397.880859 172.524492 
L 398.970703 170.448076 
L 399.515625 169.304766 
L 400.060547 167.730791 
L 402.240234 163.188311 
L 402.785156 162.209062 
L 403.330078 161.511797 
L 403.875 161.224687 
L 404.419922 160.553057 
L 406.054688 159.727617 
L 406.599609 159.968584 
L 407.144531 159.968584 
L 407.689453 159.742998 
L 408.234375 159.963457 
L 413.683594 163.644609 
L 414.228516 164.218828 
L 414.773438 164.623857 
L 415.318359 164.741777 
L 415.863281 165.013506 
L 416.953125 164.705889 
L 417.498047 164.685381 
L 418.587891 163.772783 
L 420.222656 160.835039 
L 420.767578 159.701982 
L 421.3125 158.179277 
L 421.857422 157.056475 
L 422.947266 154.385332 
L 423.492188 153.575273 
L 424.037109 152.472979 
L 424.582031 152.216631 
L 425.126953 151.473223 
L 425.671875 151.211748 
L 426.216797 151.304033 
L 426.761719 151.114336 
L 427.851562 152.006426 
L 428.396484 152.785723 
L 429.486328 155.01082 
L 430.03125 156.195146 
L 433.845703 169.961016 
L 434.390625 172.104082 
L 434.935547 173.396074 
L 435.480469 175.046953 
L 436.570312 177.220781 
L 437.115234 178.107744 
L 438.205078 178.743486 
L 439.294922 178.707598 
L 439.839844 178.543535 
L 440.384766 178.184648 
L 440.929688 177.682207 
L 441.474609 177.405352 
L 442.019531 177.266924 
L 443.654297 176.067217 
L 444.199219 175.836504 
L 444.744141 175.903154 
L 445.289062 175.513506 
L 445.833984 175.369951 
L 446.378906 175.036699 
L 446.923828 175.082842 
L 449.648438 173.575518 
L 450.738281 173.196123 
L 453.462891 172.498857 
L 455.642578 172.36043 
L 456.1875 172.129717 
L 456.732422 172.298906 
L 457.277344 172.063066 
L 457.822266 171.437578 
L 458.367188 171.186357 
L 458.912109 170.448076 
L 459.457031 169.98665 
L 460.001953 169.222734 
L 460.546875 168.166582 
L 461.091797 167.402666 
L 463.816406 162.22957 
L 464.90625 160.927324 
L 465.996094 160.030107 
L 466.541016 159.886553 
L 467.085938 159.901934 
L 467.630859 159.609697 
L 468.175781 159.589189 
L 468.720703 159.784014 
L 469.265625 159.53792 
L 470.355469 159.399492 
L 470.900391 159.343096 
L 471.445312 159.461016 
L 471.990234 159.322588 
L 472.535156 159.640459 
L 473.080078 159.286699 
L 473.625 159.527666 
L 474.714844 159.48665 
L 476.349609 159.271318 
L 477.984375 159.732744 
L 478.529297 160.214678 
L 479.074219 160.471025 
L 480.708984 162.147539 
L 481.253906 163.208818 
L 481.798828 163.998369 
L 483.978516 168.904863 
L 485.068359 171.442705 
L 486.158203 173.534502 
L 487.248047 174.549639 
L 487.792969 174.780352 
L 488.337891 174.708574 
L 489.427734 174.026689 
L 490.517578 172.488604 
L 492.152344 169.632891 
L 494.876953 165.008379 
L 495.421875 164.377764 
L 497.601562 162.783281 
L 498.146484 162.675615 
L 498.691406 162.414141 
L 499.236328 162.444902 
L 500.871094 162.901201 
L 501.416016 163.326738 
L 501.960938 163.295977 
L 503.050781 164.24959 
L 503.595703 164.377764 
L 504.140625 164.864824 
L 504.685547 165.075029 
L 505.230469 165.731279 
L 505.775391 166.095293 
L 506.320312 166.720781 
L 506.865234 166.951494 
L 507.410156 167.356523 
L 507.955078 167.320635 
L 509.044922 166.946367 
L 510.134766 165.838945 
L 511.769531 162.808916 
L 512.859375 160.486406 
L 513.404297 159.009844 
L 516.128906 153.575273 
L 516.673828 153.016436 
L 517.21875 152.283281 
L 517.763672 152.093584 
L 518.308594 151.765459 
L 519.943359 152.990801 
L 520.488281 153.621416 
L 521.578125 156.2054 
L 523.757812 163.501055 
L 527.027344 174.857256 
L 528.117188 176.892656 
L 528.662109 177.625811 
L 529.207031 178.015459 
L 530.296875 178.364092 
L 531.386719 178.287187 
L 531.931641 177.994951 
L 532.476562 177.851396 
L 533.021484 177.451494 
L 534.111328 177.169512 
L 535.201172 176.749102 
L 535.746094 176.461992 
L 536.291016 176.43123 
L 536.835938 175.949297 
L 537.925781 175.764727 
L 539.015625 175.139238 
L 540.105469 174.826494 
L 540.650391 174.400957 
L 541.195312 174.21126 
L 542.285156 173.616533 
L 542.830078 173.508867 
L 543.919922 173.037187 
L 544.464844 173.08333 
L 545.009766 172.642412 
L 545.554688 172.632158 
L 546.099609 172.755205 
L 546.644531 172.632158 
L 547.734375 172.724443 
L 548.279297 172.668047 
L 548.824219 172.288652 
L 549.369141 172.304033 
L 550.458984 171.032549 
L 551.548828 169.489336 
L 552.638672 167.069414 
L 555.363281 162.311602 
L 556.998047 159.994219 
L 557.542969 159.650713 
L 558.087891 158.866289 
L 558.632812 158.686846 
L 559.722656 157.92293 
L 560.8125 157.789629 
L 561.357422 157.533281 
L 562.447266 157.748613 
L 562.992188 157.56917 
L 563.537109 157.743486 
L 564.082031 157.758867 
L 564.626953 157.420488 
L 565.716797 157.420488 
L 566.261719 157.348711 
L 566.806641 157.420488 
L 567.351562 157.046221 
L 567.896484 157.169268 
L 568.441406 157.082109 
L 570.076172 157.312822 
L 570.621094 157.630693 
L 571.166016 157.707598 
L 571.710938 158.148516 
L 572.800781 159.707109 
L 573.345703 160.388994 
L 574.435547 162.757646 
L 574.980469 163.495928 
L 575.525391 165.244219 
L 576.615234 167.305254 
L 577.160156 168.530596 
L 577.705078 169.31502 
L 578.25 170.314775 
L 578.794922 170.740312 
L 580.429688 170.730059 
L 580.974609 170.401934 
L 582.609375 168.320391 
L 584.789062 164.362383 
L 585.333984 163.485674 
L 585.878906 162.357744 
L 586.96875 160.78377 
L 587.513672 160.43001 
L 588.058594 159.676348 
L 588.603516 159.143145 
L 589.148438 158.809893 
L 590.238281 158.507402 
L 590.783203 158.066484 
L 591.328125 158.015215 
L 592.417969 158.163896 
L 592.962891 157.815264 
L 593.507812 158.307451 
L 594.597656 158.717607 
L 595.6875 159.691729 
L 596.232422 160.112139 
L 596.777344 160.737627 
L 597.322266 161.024736 
L 597.867188 161.778398 
L 598.412109 162.203936 
L 598.957031 162.28084 
L 599.501953 162.593584 
L 600.046875 162.51668 
L 601.136719 161.783525 
L 602.226562 160.491533 
L 604.40625 155.841387 
L 607.675781 148.412432 
L 609.310547 145.879717 
L 609.855469 145.341387 
L 610.945312 145.249102 
L 611.490234 145.525957 
L 612.035156 146.095049 
L 612.580078 147.00252 
L 614.214844 151.273271 
L 615.304688 155.041582 
L 617.484375 162.439775 
L 618.574219 165.254473 
L 619.664062 167.525713 
L 620.208984 168.279375 
L 620.753906 168.833086 
L 621.298828 169.058672 
L 621.84375 169.627764 
L 622.388672 169.725176 
L 622.933594 169.56624 
L 623.478516 169.961016 
L 624.023438 169.689287 
L 624.568359 169.720049 
L 625.113281 169.484209 
L 626.203125 169.320146 
L 626.748047 168.920244 
L 627.292969 169.07918 
L 627.837891 168.735674 
L 628.927734 168.484453 
L 629.472656 168.176836 
L 630.017578 168.120439 
L 630.5625 167.628252 
L 631.107422 167.592363 
L 632.197266 166.94124 
L 632.742188 166.438799 
L 633.287109 166.141436 
L 633.832031 165.505693 
L 635.466797 164.757158 
L 636.011719 164.85457 
L 636.556641 164.705889 
L 637.646484 164.844316 
L 638.191406 164.864824 
L 638.736328 165.105791 
L 640.371094 164.526445 
L 640.916016 163.967607 
L 641.460938 163.583086 
L 642.550781 162.157793 
L 644.185547 159.609697 
L 647.455078 154.164873 
L 647.455078 154.164873 
" style="fill:none;stroke:#4c72b0;stroke-linecap:round;stroke-width:1.75;"/>
   </g>
   <g id="patch_3">
    <path d="M 90 270.72 
L 90 69.12 
" style="fill:none;stroke:#262626;stroke-linecap:square;stroke-linejoin:miter;stroke-width:1.25;"/>
   </g>
   <g id="patch_4">
    <path d="M 90 270.72 
L 648 270.72 
" style="fill:none;stroke:#262626;stroke-linecap:square;stroke-linejoin:miter;stroke-width:1.25;"/>
   </g>
  </g>
  <g id="axes_2">
   <g id="patch_5">
    <path d="M 90 512.64 
L 648 512.64 
L 648 311.04 
L 90 311.04 
z
" style="fill:#ffffff;"/>
   </g>
   <g id="matplotlib.axis_3">
    <g id="xtick_7">
     <g id="line2d_15">
      <g>
       <use style="fill:#262626;stroke:#262626;" x="218.197478" xlink:href="#m050f455829" y="512.64"/>
      </g>
     </g>
     <g id="text_14">
      <!-- $\mathdefault{10^{2}}$ -->
      <g style="fill:#262626;" transform="translate(210.347478 535.9525)scale(0.1 -0.1)">
       <use transform="translate(0 0.99375)" xlink:href="#ArialMT-31"/>
       <use transform="translate(55.615234 0.99375)" xlink:href="#ArialMT-30"/>
       <use transform="translate(112.972813 70.6875)scale(0.7)" xlink:href="#ArialMT-32"/>
      </g>
     </g>
    </g>
    <g id="xtick_8">
     <g id="line2d_16">
      <g>
       <use style="fill:#262626;stroke:#262626;" x="401.606604" xlink:href="#m050f455829" y="512.64"/>
      </g>
     </g>
     <g id="text_15">
      <!-- $\mathdefault{10^{3}}$ -->
      <defs>
       <path d="M 4.203125 18.890625 
L 12.984375 20.0625 
Q 14.5 12.59375 18.140625 9.296875 
Q 21.78125 6 27 6 
Q 33.203125 6 37.46875 10.296875 
Q 41.75 14.59375 41.75 20.953125 
Q 41.75 27 37.796875 30.921875 
Q 33.84375 34.859375 27.734375 34.859375 
Q 25.25 34.859375 21.53125 33.890625 
L 22.515625 41.609375 
Q 23.390625 41.5 23.921875 41.5 
Q 29.546875 41.5 34.03125 44.421875 
Q 38.53125 47.359375 38.53125 53.46875 
Q 38.53125 58.296875 35.25 61.46875 
Q 31.984375 64.65625 26.8125 64.65625 
Q 21.6875 64.65625 18.265625 61.421875 
Q 14.84375 58.203125 13.875 51.765625 
L 5.078125 53.328125 
Q 6.6875 62.15625 12.390625 67.015625 
Q 18.109375 71.875 26.609375 71.875 
Q 32.46875 71.875 37.390625 69.359375 
Q 42.328125 66.84375 44.9375 62.5 
Q 47.5625 58.15625 47.5625 53.265625 
Q 47.5625 48.640625 45.0625 44.828125 
Q 42.578125 41.015625 37.703125 38.765625 
Q 44.046875 37.3125 47.5625 32.6875 
Q 51.078125 28.078125 51.078125 21.140625 
Q 51.078125 11.765625 44.234375 5.25 
Q 37.40625 -1.265625 26.953125 -1.265625 
Q 17.53125 -1.265625 11.296875 4.34375 
Q 5.078125 9.96875 4.203125 18.890625 
z
" id="ArialMT-33"/>
      </defs>
      <g style="fill:#262626;" transform="translate(393.756604 535.9525)scale(0.1 -0.1)">
       <use transform="translate(0 0.99375)" xlink:href="#ArialMT-31"/>
       <use transform="translate(55.615234 0.99375)" xlink:href="#ArialMT-30"/>
       <use transform="translate(112.972813 70.6875)scale(0.7)" xlink:href="#ArialMT-33"/>
      </g>
     </g>
    </g>
    <g id="xtick_9">
     <g id="line2d_17">
      <g>
       <use style="fill:#262626;stroke:#262626;" x="585.01573" xlink:href="#m050f455829" y="512.64"/>
      </g>
     </g>
     <g id="text_16">
      <!-- $\mathdefault{10^{4}}$ -->
      <g style="fill:#262626;" transform="translate(577.16573 535.8525)scale(0.1 -0.1)">
       <use transform="translate(0 0.201563)" xlink:href="#ArialMT-31"/>
       <use transform="translate(55.615234 0.201563)" xlink:href="#ArialMT-30"/>
       <use transform="translate(112.972813 69.895313)scale(0.7)" xlink:href="#ArialMT-34"/>
      </g>
     </g>
    </g>
    <g id="xtick_10">
     <g id="line2d_18">
      <defs>
       <path d="M 0 0 
L 0 3 
" id="m44fa745e17" style="stroke:#262626;stroke-width:0.5;"/>
      </defs>
      <g>
       <use style="fill:#262626;stroke:#262626;stroke-width:0.5;" x="90" xlink:href="#m44fa745e17" y="512.64"/>
      </g>
     </g>
    </g>
    <g id="xtick_11">
     <g id="line2d_19">
      <g>
       <use style="fill:#262626;stroke:#262626;stroke-width:0.5;" x="122.296744" xlink:href="#m44fa745e17" y="512.64"/>
      </g>
     </g>
    </g>
    <g id="xtick_12">
     <g id="line2d_20">
      <g>
       <use style="fill:#262626;stroke:#262626;stroke-width:0.5;" x="145.211648" xlink:href="#m44fa745e17" y="512.64"/>
      </g>
     </g>
    </g>
    <g id="xtick_13">
     <g id="line2d_21">
      <g>
       <use style="fill:#262626;stroke:#262626;stroke-width:0.5;" x="162.985829" xlink:href="#m44fa745e17" y="512.64"/>
      </g>
     </g>
    </g>
    <g id="xtick_14">
     <g id="line2d_22">
      <g>
       <use style="fill:#262626;stroke:#262626;stroke-width:0.5;" x="177.508392" xlink:href="#m44fa745e17" y="512.64"/>
      </g>
     </g>
    </g>
    <g id="xtick_15">
     <g id="line2d_23">
      <g>
       <use style="fill:#262626;stroke:#262626;stroke-width:0.5;" x="189.787045" xlink:href="#m44fa745e17" y="512.64"/>
      </g>
     </g>
    </g>
    <g id="xtick_16">
     <g id="line2d_24">
      <g>
       <use style="fill:#262626;stroke:#262626;stroke-width:0.5;" x="200.423297" xlink:href="#m44fa745e17" y="512.64"/>
      </g>
     </g>
    </g>
    <g id="xtick_17">
     <g id="line2d_25">
      <g>
       <use style="fill:#262626;stroke:#262626;stroke-width:0.5;" x="209.805136" xlink:href="#m44fa745e17" y="512.64"/>
      </g>
     </g>
    </g>
    <g id="xtick_18">
     <g id="line2d_26">
      <g>
       <use style="fill:#262626;stroke:#262626;stroke-width:0.5;" x="273.409126" xlink:href="#m44fa745e17" y="512.64"/>
      </g>
     </g>
    </g>
    <g id="xtick_19">
     <g id="line2d_27">
      <g>
       <use style="fill:#262626;stroke:#262626;stroke-width:0.5;" x="305.70587" xlink:href="#m44fa745e17" y="512.64"/>
      </g>
     </g>
    </g>
    <g id="xtick_20">
     <g id="line2d_28">
      <g>
       <use style="fill:#262626;stroke:#262626;stroke-width:0.5;" x="328.620775" xlink:href="#m44fa745e17" y="512.64"/>
      </g>
     </g>
    </g>
    <g id="xtick_21">
     <g id="line2d_29">
      <g>
       <use style="fill:#262626;stroke:#262626;stroke-width:0.5;" x="346.394955" xlink:href="#m44fa745e17" y="512.64"/>
      </g>
     </g>
    </g>
    <g id="xtick_22">
     <g id="line2d_30">
      <g>
       <use style="fill:#262626;stroke:#262626;stroke-width:0.5;" x="360.917518" xlink:href="#m44fa745e17" y="512.64"/>
      </g>
     </g>
    </g>
    <g id="xtick_23">
     <g id="line2d_31">
      <g>
       <use style="fill:#262626;stroke:#262626;stroke-width:0.5;" x="373.196171" xlink:href="#m44fa745e17" y="512.64"/>
      </g>
     </g>
    </g>
    <g id="xtick_24">
     <g id="line2d_32">
      <g>
       <use style="fill:#262626;stroke:#262626;stroke-width:0.5;" x="383.832423" xlink:href="#m44fa745e17" y="512.64"/>
      </g>
     </g>
    </g>
    <g id="xtick_25">
     <g id="line2d_33">
      <g>
       <use style="fill:#262626;stroke:#262626;stroke-width:0.5;" x="393.214262" xlink:href="#m44fa745e17" y="512.64"/>
      </g>
     </g>
    </g>
    <g id="xtick_26">
     <g id="line2d_34">
      <g>
       <use style="fill:#262626;stroke:#262626;stroke-width:0.5;" x="456.818252" xlink:href="#m44fa745e17" y="512.64"/>
      </g>
     </g>
    </g>
    <g id="xtick_27">
     <g id="line2d_35">
      <g>
       <use style="fill:#262626;stroke:#262626;stroke-width:0.5;" x="489.114996" xlink:href="#m44fa745e17" y="512.64"/>
      </g>
     </g>
    </g>
    <g id="xtick_28">
     <g id="line2d_36">
      <g>
       <use style="fill:#262626;stroke:#262626;stroke-width:0.5;" x="512.029901" xlink:href="#m44fa745e17" y="512.64"/>
      </g>
     </g>
    </g>
    <g id="xtick_29">
     <g id="line2d_37">
      <g>
       <use style="fill:#262626;stroke:#262626;stroke-width:0.5;" x="529.804081" xlink:href="#m44fa745e17" y="512.64"/>
      </g>
     </g>
    </g>
    <g id="xtick_30">
     <g id="line2d_38">
      <g>
       <use style="fill:#262626;stroke:#262626;stroke-width:0.5;" x="544.326645" xlink:href="#m44fa745e17" y="512.64"/>
      </g>
     </g>
    </g>
    <g id="xtick_31">
     <g id="line2d_39">
      <g>
       <use style="fill:#262626;stroke:#262626;stroke-width:0.5;" x="556.605297" xlink:href="#m44fa745e17" y="512.64"/>
      </g>
     </g>
    </g>
    <g id="xtick_32">
     <g id="line2d_40">
      <g>
       <use style="fill:#262626;stroke:#262626;stroke-width:0.5;" x="567.241549" xlink:href="#m44fa745e17" y="512.64"/>
      </g>
     </g>
    </g>
    <g id="xtick_33">
     <g id="line2d_41">
      <g>
       <use style="fill:#262626;stroke:#262626;stroke-width:0.5;" x="576.623389" xlink:href="#m44fa745e17" y="512.64"/>
      </g>
     </g>
    </g>
    <g id="xtick_34">
     <g id="line2d_42">
      <g>
       <use style="fill:#262626;stroke:#262626;stroke-width:0.5;" x="640.227378" xlink:href="#m44fa745e17" y="512.64"/>
      </g>
     </g>
    </g>
   </g>
   <g id="matplotlib.axis_4">
    <g id="ytick_8">
     <g id="line2d_43">
      <g>
       <use style="fill:#262626;stroke:#262626;" x="90" xlink:href="#m3fb5c43646" y="512.64"/>
      </g>
     </g>
     <g id="text_17">
      <!-- $\mathdefault{10^{-5}}$ -->
      <defs>
       <path d="M 4.15625 18.75 
L 13.375 19.53125 
Q 14.40625 12.796875 18.140625 9.390625 
Q 21.875 6 27.15625 6 
Q 33.5 6 37.890625 10.78125 
Q 42.28125 15.578125 42.28125 23.484375 
Q 42.28125 31 38.0625 35.34375 
Q 33.84375 39.703125 27 39.703125 
Q 22.75 39.703125 19.328125 37.765625 
Q 15.921875 35.84375 13.96875 32.765625 
L 5.71875 33.84375 
L 12.640625 70.609375 
L 48.25 70.609375 
L 48.25 62.203125 
L 19.671875 62.203125 
L 15.828125 42.96875 
Q 22.265625 47.46875 29.34375 47.46875 
Q 38.71875 47.46875 45.15625 40.96875 
Q 51.609375 34.46875 51.609375 24.265625 
Q 51.609375 14.546875 45.953125 7.46875 
Q 39.0625 -1.21875 27.15625 -1.21875 
Q 17.390625 -1.21875 11.203125 4.25 
Q 5.03125 9.71875 4.15625 18.75 
z
" id="ArialMT-35"/>
      </defs>
      <g style="fill:#262626;" transform="translate(57.2 517.74625)scale(0.1 -0.1)">
       <use transform="translate(0 0.879688)" xlink:href="#ArialMT-31"/>
       <use transform="translate(55.615234 0.879688)" xlink:href="#ArialMT-30"/>
       <use transform="translate(112.972813 70.573438)scale(0.7)" xlink:href="#ArialMT-2212"/>
       <use transform="translate(153.851719 70.573438)scale(0.7)" xlink:href="#ArialMT-35"/>
      </g>
     </g>
    </g>
    <g id="ytick_9">
     <g id="line2d_44">
      <g>
       <use style="fill:#262626;stroke:#262626;" x="90" xlink:href="#m3fb5c43646" y="465.767507"/>
      </g>
     </g>
     <g id="text_18">
      <!-- $\mathdefault{10^{-4}}$ -->
      <g style="fill:#262626;" transform="translate(57.2 470.873757)scale(0.1 -0.1)">
       <use transform="translate(0 0.201563)" xlink:href="#ArialMT-31"/>
       <use transform="translate(55.615234 0.201563)" xlink:href="#ArialMT-30"/>
       <use transform="translate(112.972813 69.895313)scale(0.7)" xlink:href="#ArialMT-2212"/>
       <use transform="translate(153.851719 69.895313)scale(0.7)" xlink:href="#ArialMT-34"/>
      </g>
     </g>
    </g>
    <g id="ytick_10">
     <g id="line2d_45">
      <g>
       <use style="fill:#262626;stroke:#262626;" x="90" xlink:href="#m3fb5c43646" y="418.895013"/>
      </g>
     </g>
     <g id="text_19">
      <!-- $\mathdefault{10^{-3}}$ -->
      <g style="fill:#262626;" transform="translate(57.2 424.051263)scale(0.1 -0.1)">
       <use transform="translate(0 0.99375)" xlink:href="#ArialMT-31"/>
       <use transform="translate(55.615234 0.99375)" xlink:href="#ArialMT-30"/>
       <use transform="translate(112.972813 70.6875)scale(0.7)" xlink:href="#ArialMT-2212"/>
       <use transform="translate(153.851719 70.6875)scale(0.7)" xlink:href="#ArialMT-33"/>
      </g>
     </g>
    </g>
    <g id="ytick_11">
     <g id="line2d_46">
      <g>
       <use style="fill:#262626;stroke:#262626;" x="90" xlink:href="#m3fb5c43646" y="372.02252"/>
      </g>
     </g>
     <g id="text_20">
      <!-- $\mathdefault{10^{-2}}$ -->
      <g style="fill:#262626;" transform="translate(57.2 377.17877)scale(0.1 -0.1)">
       <use transform="translate(0 0.99375)" xlink:href="#ArialMT-31"/>
       <use transform="translate(55.615234 0.99375)" xlink:href="#ArialMT-30"/>
       <use transform="translate(112.972813 70.6875)scale(0.7)" xlink:href="#ArialMT-2212"/>
       <use transform="translate(153.851719 70.6875)scale(0.7)" xlink:href="#ArialMT-32"/>
      </g>
     </g>
    </g>
    <g id="ytick_12">
     <g id="line2d_47">
      <g>
       <use style="fill:#262626;stroke:#262626;" x="90" xlink:href="#m3fb5c43646" y="325.150026"/>
      </g>
     </g>
     <g id="text_21">
      <!-- $\mathdefault{10^{-1}}$ -->
      <g style="fill:#262626;" transform="translate(57.2 330.306276)scale(0.1 -0.1)">
       <use transform="translate(0 0.99375)" xlink:href="#ArialMT-31"/>
       <use transform="translate(55.615234 0.99375)" xlink:href="#ArialMT-30"/>
       <use transform="translate(112.972813 70.6875)scale(0.7)" xlink:href="#ArialMT-2212"/>
       <use transform="translate(153.851719 70.6875)scale(0.7)" xlink:href="#ArialMT-31"/>
      </g>
     </g>
    </g>
    <g id="ytick_13">
     <g id="line2d_48">
      <defs>
       <path d="M 0 0 
L -3 0 
" id="mb1e70175e9" style="stroke:#262626;stroke-width:0.5;"/>
      </defs>
      <g>
       <use style="fill:#262626;stroke:#262626;stroke-width:0.5;" x="90" xlink:href="#mb1e70175e9" y="498.529974"/>
      </g>
     </g>
    </g>
    <g id="ytick_14">
     <g id="line2d_49">
      <g>
       <use style="fill:#262626;stroke:#262626;stroke-width:0.5;" x="90" xlink:href="#mb1e70175e9" y="490.276137"/>
      </g>
     </g>
    </g>
    <g id="ytick_15">
     <g id="line2d_50">
      <g>
       <use style="fill:#262626;stroke:#262626;stroke-width:0.5;" x="90" xlink:href="#mb1e70175e9" y="484.419947"/>
      </g>
     </g>
    </g>
    <g id="ytick_16">
     <g id="line2d_51">
      <g>
       <use style="fill:#262626;stroke:#262626;stroke-width:0.5;" x="90" xlink:href="#mb1e70175e9" y="479.877533"/>
      </g>
     </g>
    </g>
    <g id="ytick_17">
     <g id="line2d_52">
      <g>
       <use style="fill:#262626;stroke:#262626;stroke-width:0.5;" x="90" xlink:href="#mb1e70175e9" y="476.166111"/>
      </g>
     </g>
    </g>
    <g id="ytick_18">
     <g id="line2d_53">
      <g>
       <use style="fill:#262626;stroke:#262626;stroke-width:0.5;" x="90" xlink:href="#mb1e70175e9" y="473.028148"/>
      </g>
     </g>
    </g>
    <g id="ytick_19">
     <g id="line2d_54">
      <g>
       <use style="fill:#262626;stroke:#262626;stroke-width:0.5;" x="90" xlink:href="#mb1e70175e9" y="470.309921"/>
      </g>
     </g>
    </g>
    <g id="ytick_20">
     <g id="line2d_55">
      <g>
       <use style="fill:#262626;stroke:#262626;stroke-width:0.5;" x="90" xlink:href="#mb1e70175e9" y="467.912274"/>
      </g>
     </g>
    </g>
    <g id="ytick_21">
     <g id="line2d_56">
      <g>
       <use style="fill:#262626;stroke:#262626;stroke-width:0.5;" x="90" xlink:href="#mb1e70175e9" y="451.65748"/>
      </g>
     </g>
    </g>
    <g id="ytick_22">
     <g id="line2d_57">
      <g>
       <use style="fill:#262626;stroke:#262626;stroke-width:0.5;" x="90" xlink:href="#mb1e70175e9" y="443.403644"/>
      </g>
     </g>
    </g>
    <g id="ytick_23">
     <g id="line2d_58">
      <g>
       <use style="fill:#262626;stroke:#262626;stroke-width:0.5;" x="90" xlink:href="#mb1e70175e9" y="437.547454"/>
      </g>
     </g>
    </g>
    <g id="ytick_24">
     <g id="line2d_59">
      <g>
       <use style="fill:#262626;stroke:#262626;stroke-width:0.5;" x="90" xlink:href="#mb1e70175e9" y="433.00504"/>
      </g>
     </g>
    </g>
    <g id="ytick_25">
     <g id="line2d_60">
      <g>
       <use style="fill:#262626;stroke:#262626;stroke-width:0.5;" x="90" xlink:href="#mb1e70175e9" y="429.293617"/>
      </g>
     </g>
    </g>
    <g id="ytick_26">
     <g id="line2d_61">
      <g>
       <use style="fill:#262626;stroke:#262626;stroke-width:0.5;" x="90" xlink:href="#mb1e70175e9" y="426.155654"/>
      </g>
     </g>
    </g>
    <g id="ytick_27">
     <g id="line2d_62">
      <g>
       <use style="fill:#262626;stroke:#262626;stroke-width:0.5;" x="90" xlink:href="#mb1e70175e9" y="423.437427"/>
      </g>
     </g>
    </g>
    <g id="ytick_28">
     <g id="line2d_63">
      <g>
       <use style="fill:#262626;stroke:#262626;stroke-width:0.5;" x="90" xlink:href="#mb1e70175e9" y="421.039781"/>
      </g>
     </g>
    </g>
    <g id="ytick_29">
     <g id="line2d_64">
      <g>
       <use style="fill:#262626;stroke:#262626;stroke-width:0.5;" x="90" xlink:href="#mb1e70175e9" y="404.784987"/>
      </g>
     </g>
    </g>
    <g id="ytick_30">
     <g id="line2d_65">
      <g>
       <use style="fill:#262626;stroke:#262626;stroke-width:0.5;" x="90" xlink:href="#mb1e70175e9" y="396.53115"/>
      </g>
     </g>
    </g>
    <g id="ytick_31">
     <g id="line2d_66">
      <g>
       <use style="fill:#262626;stroke:#262626;stroke-width:0.5;" x="90" xlink:href="#mb1e70175e9" y="390.67496"/>
      </g>
     </g>
    </g>
    <g id="ytick_32">
     <g id="line2d_67">
      <g>
       <use style="fill:#262626;stroke:#262626;stroke-width:0.5;" x="90" xlink:href="#mb1e70175e9" y="386.132546"/>
      </g>
     </g>
    </g>
    <g id="ytick_33">
     <g id="line2d_68">
      <g>
       <use style="fill:#262626;stroke:#262626;stroke-width:0.5;" x="90" xlink:href="#mb1e70175e9" y="382.421124"/>
      </g>
     </g>
    </g>
    <g id="ytick_34">
     <g id="line2d_69">
      <g>
       <use style="fill:#262626;stroke:#262626;stroke-width:0.5;" x="90" xlink:href="#mb1e70175e9" y="379.283161"/>
      </g>
     </g>
    </g>
    <g id="ytick_35">
     <g id="line2d_70">
      <g>
       <use style="fill:#262626;stroke:#262626;stroke-width:0.5;" x="90" xlink:href="#mb1e70175e9" y="376.564934"/>
      </g>
     </g>
    </g>
    <g id="ytick_36">
     <g id="line2d_71">
      <g>
       <use style="fill:#262626;stroke:#262626;stroke-width:0.5;" x="90" xlink:href="#mb1e70175e9" y="374.167288"/>
      </g>
     </g>
    </g>
    <g id="ytick_37">
     <g id="line2d_72">
      <g>
       <use style="fill:#262626;stroke:#262626;stroke-width:0.5;" x="90" xlink:href="#mb1e70175e9" y="357.912493"/>
      </g>
     </g>
    </g>
    <g id="ytick_38">
     <g id="line2d_73">
      <g>
       <use style="fill:#262626;stroke:#262626;stroke-width:0.5;" x="90" xlink:href="#mb1e70175e9" y="349.658657"/>
      </g>
     </g>
    </g>
    <g id="ytick_39">
     <g id="line2d_74">
      <g>
       <use style="fill:#262626;stroke:#262626;stroke-width:0.5;" x="90" xlink:href="#mb1e70175e9" y="343.802467"/>
      </g>
     </g>
    </g>
    <g id="ytick_40">
     <g id="line2d_75">
      <g>
       <use style="fill:#262626;stroke:#262626;stroke-width:0.5;" x="90" xlink:href="#mb1e70175e9" y="339.260053"/>
      </g>
     </g>
    </g>
    <g id="ytick_41">
     <g id="line2d_76">
      <g>
       <use style="fill:#262626;stroke:#262626;stroke-width:0.5;" x="90" xlink:href="#mb1e70175e9" y="335.548631"/>
      </g>
     </g>
    </g>
    <g id="ytick_42">
     <g id="line2d_77">
      <g>
       <use style="fill:#262626;stroke:#262626;stroke-width:0.5;" x="90" xlink:href="#mb1e70175e9" y="332.410668"/>
      </g>
     </g>
    </g>
    <g id="ytick_43">
     <g id="line2d_78">
      <g>
       <use style="fill:#262626;stroke:#262626;stroke-width:0.5;" x="90" xlink:href="#mb1e70175e9" y="329.69244"/>
      </g>
     </g>
    </g>
    <g id="ytick_44">
     <g id="line2d_79">
      <g>
       <use style="fill:#262626;stroke:#262626;stroke-width:0.5;" x="90" xlink:href="#mb1e70175e9" y="327.294794"/>
      </g>
     </g>
    </g>
    <g id="ytick_45">
     <g id="line2d_80">
      <g>
       <use style="fill:#262626;stroke:#262626;stroke-width:0.5;" x="90" xlink:href="#mb1e70175e9" y="311.04"/>
      </g>
     </g>
    </g>
   </g>
   <g id="line2d_81">
    <path clip-path="url(#p4a7eb4e91b)" d="M -1 383.565351 
L 151.095164 383.596811 
L 206.306812 379.21889 
L 238.603556 389.372574 
L 261.518461 392.810644 
L 279.292642 399.915999 
L 293.815205 371.785247 
L 306.093857 397.698431 
L 316.730109 400.623187 
L 326.111949 409.392066 
L 334.50429 414.453421 
L 342.096086 417.540045 
L 349.026853 355.988176 
L 355.402541 399.309921 
L 361.305505 405.435438 
L 366.801034 409.16834 
L 371.941758 414.722382 
L 376.770725 413.720607 
L 381.323597 404.683232 
L 385.630245 410.330408 
L 389.715939 412.917431 
L 393.602249 410.416263 
L 397.307735 405.728577 
L 400.848476 399.366381 
L 404.238502 368.459488 
L 407.490119 390.767722 
L 410.614189 404.172228 
L 413.620341 410.03566 
L 416.517154 413.872964 
L 419.312303 408.936369 
L 422.012683 379.349492 
L 424.624509 391.804427 
L 427.153406 406.250456 
L 429.604479 415.420116 
L 431.982374 417.48951 
L 434.291335 423.788616 
L 436.535246 439.744711 
L 438.717672 414.707686 
L 440.841893 423.86272 
L 442.910933 422.811764 
L 444.927587 424.301837 
L 446.894442 423.203741 
L 448.813898 412.682908 
L 450.688186 401.519913 
L 452.519383 427.422861 
L 454.309426 428.414638 
L 456.060125 431.16709 
L 457.773171 431.319863 
L 459.45015 432.020245 
L 461.09255 428.418748 
L 462.701768 431.744916 
L 464.279118 434.502507 
L 465.825838 434.300805 
L 467.343094 433.15802 
L 468.83199 431.351488 
L 470.293564 412.488873 
L 471.728802 457.316893 
L 473.138637 445.430318 
L 474.523951 442.176671 
L 475.885584 441.540337 
L 477.224331 441.985096 
L 478.540949 445.422582 
L 479.836157 438.709436 
L 481.110642 440.356128 
L 482.365055 440.736929 
L 483.600019 439.797745 
L 484.816127 443.75929 
L 486.013948 444.040822 
L 487.194022 429.780412 
L 488.356869 444.911944 
L 489.502983 443.609799 
L 490.63284 445.628563 
L 491.746894 444.190477 
L 492.845581 445.366554 
L 493.92932 445.273015 
L 494.998512 448.547573 
L 496.053541 446.760535 
L 497.094779 446.683687 
L 498.122582 444.298804 
L 499.137291 447.220595 
L 500.139235 447.804145 
L 501.128734 463.641936 
L 502.10609 444.9082 
L 503.0716 447.667636 
L 504.025546 447.63249 
L 504.968203 446.656697 
L 505.899834 448.510478 
L 506.820695 449.262786 
L 507.731032 448.400443 
L 508.631082 449.248513 
L 509.521075 449.203744 
L 510.401234 447.228666 
L 511.271773 449.917376 
L 512.132901 450.185485 
L 512.984819 451.435803 
L 513.827722 446.378148 
L 514.661799 448.775723 
L 515.487232 451.847896 
L 516.304198 451.575546 
L 517.112871 450.597913 
L 517.913416 450.207256 
L 518.705996 453.219926 
L 519.490766 447.406358 
L 520.26788 451.712037 
L 521.037486 452.525092 
L 521.799727 450.669254 
L 522.554743 451.153576 
L 523.302669 450.623821 
L 524.043638 451.965101 
L 524.777778 456.006195 
L 525.505212 452.405707 
L 526.226064 450.649445 
L 526.940451 452.229739 
L 527.648487 452.302835 
L 528.350285 449.338729 
L 529.045954 453.343809 
L 529.7356 455.960018 
L 530.419326 455.323738 
L 531.097232 451.780847 
L 531.769418 454.731794 
L 532.435979 455.864096 
L 533.097009 454.466662 
L 533.752597 456.08707 
L 534.402834 458.240395 
L 535.047806 453.943337 
L 536.32229 453.847718 
L 536.951966 454.788476 
L 537.576703 456.367319 
L 538.196578 452.563646 
L 538.811667 454.248025 
L 539.422042 453.080679 
L 540.027776 457.682558 
L 540.628938 456.955789 
L 541.225596 456.815946 
L 541.817819 460.767771 
L 542.989216 454.490432 
L 543.568517 455.608341 
L 544.143636 460.404672 
L 544.714632 459.139342 
L 545.281563 462.705407 
L 545.844488 458.305078 
L 546.403463 456.141909 
L 546.958543 459.370542 
L 547.509781 460.479097 
L 548.05723 460.858196 
L 548.600942 460.220825 
L 549.140969 457.413706 
L 549.677358 458.238748 
L 550.21016 457.494068 
L 550.739422 460.089304 
L 551.26519 459.047988 
L 551.78751 459.050223 
L 552.306428 459.168032 
L 552.821987 455.559746 
L 553.33423 461.754677 
L 553.8432 458.718572 
L 554.348939 459.880594 
L 554.851487 461.875353 
L 555.350884 460.400601 
L 555.847169 460.477017 
L 556.830559 460.289564 
L 557.317739 455.18602 
L 557.801956 460.169749 
L 558.283248 458.155936 
L 558.76165 459.44176 
L 559.237195 459.621187 
L 559.709918 460.150107 
L 560.179852 462.997196 
L 560.647029 464.999935 
L 561.111483 460.855617 
L 561.573244 462.325368 
L 562.032344 465.831796 
L 562.488812 462.333087 
L 562.94268 460.284994 
L 563.84273 464.133206 
L 564.28897 463.068335 
L 564.732723 459.715045 
L 565.174019 461.404291 
L 565.612882 459.235662 
L 566.049341 466.500871 
L 566.483422 465.193215 
L 566.91515 462.505716 
L 567.34455 465.519195 
L 567.771648 461.261824 
L 568.196468 468.915023 
L 569.039371 466.472138 
L 569.457501 461.02711 
L 569.873447 464.141225 
L 570.287233 465.400541 
L 570.69888 474.318022 
L 571.108411 461.41654 
L 571.515847 464.226217 
L 571.921209 465.247435 
L 572.725798 460.602634 
L 573.125065 465.494087 
L 573.52234 463.488683 
L 573.917644 469.490195 
L 574.310996 465.346795 
L 574.702415 467.13921 
L 575.091919 469.980542 
L 575.479529 462.45366 
L 575.865261 469.259226 
L 576.249135 463.771967 
L 576.631167 463.855746 
L 577.011376 466.913396 
L 577.389778 466.047028 
L 577.766391 464.586726 
L 578.141232 464.909506 
L 578.514318 467.483519 
L 579.255287 465.699177 
L 579.623202 469.135828 
L 579.989426 464.862624 
L 580.353974 463.025605 
L 580.716861 467.730627 
L 581.437713 463.33968 
L 581.795707 469.99796 
L 582.152099 463.756078 
L 582.506904 463.588773 
L 582.860136 470.245383 
L 583.211808 467.04525 
L 583.561934 471.365164 
L 583.910528 465.852265 
L 584.257603 466.294577 
L 584.603172 462.258177 
L 584.947248 465.815254 
L 585.289845 463.770228 
L 585.630974 465.464148 
L 585.970649 470.229063 
L 586.308881 465.448351 
L 586.645683 468.846233 
L 586.981067 460.586409 
L 587.315045 468.428266 
L 587.647628 468.295467 
L 587.978828 471.581274 
L 588.308657 471.298435 
L 588.637126 471.653658 
L 588.964246 470.646862 
L 589.290028 470.641037 
L 589.614483 471.73052 
L 589.937621 466.137861 
L 590.259454 473.018118 
L 590.579992 464.184544 
L 590.899246 469.325198 
L 591.217224 469.580822 
L 591.533939 469.452784 
L 591.849399 464.984263 
L 592.163614 469.122376 
L 592.476596 467.253624 
L 592.788352 469.025834 
L 593.098892 465.438156 
L 593.408227 470.525267 
L 593.716365 469.583912 
L 594.023315 477.644569 
L 594.329088 475.048327 
L 594.937133 476.43518 
L 595.239424 466.853264 
L 595.540572 466.164103 
L 595.840586 468.353009 
L 596.139474 468.239209 
L 596.437245 471.229241 
L 596.733906 469.840236 
L 597.029467 473.79923 
L 597.323936 468.730154 
L 597.617319 469.001997 
L 597.909626 474.937218 
L 598.200864 474.556038 
L 598.491042 471.01134 
L 598.780166 476.840961 
L 599.355284 465.405685 
L 599.641294 469.130453 
L 599.92628 465.997321 
L 600.21025 471.771838 
L 600.775172 470.280197 
L 601.056137 474.08878 
L 601.336115 472.024295 
L 601.615112 474.084993 
L 601.893135 470.239416 
L 602.170191 473.530989 
L 602.446287 466.131041 
L 602.721429 471.744506 
L 602.995624 474.859314 
L 603.268878 467.573722 
L 603.541199 474.24566 
L 603.812591 466.419469 
L 604.083062 465.609346 
L 604.352617 465.509715 
L 604.621264 474.041072 
L 604.889007 473.226067 
L 605.155853 466.981807 
L 605.421809 467.666932 
L 605.686879 470.888907 
L 605.95107 468.748653 
L 606.476838 471.192652 
L 606.738427 467.774976 
L 606.999159 474.902901 
L 607.25904 474.45011 
L 607.518076 470.325833 
L 607.776273 474.980131 
L 608.033635 473.557892 
L 608.290169 470.952851 
L 608.545879 474.284076 
L 608.80077 475.357803 
L 609.054849 471.221098 
L 609.308119 475.87842 
L 609.812258 465.707527 
L 610.063135 467.257807 
L 610.313225 470.295017 
L 610.562532 470.834083 
L 610.811062 470.958864 
L 611.058818 471.969663 
L 611.305806 464.123837 
L 611.55203 464.153376 
L 611.797496 474.371772 
L 612.042208 471.756412 
L 612.28617 471.573074 
L 612.529387 480.438066 
L 612.771864 468.314913 
L 613.013605 475.272263 
L 613.254614 471.757472 
L 613.494897 472.778052 
L 613.734457 471.661833 
L 613.973298 473.119201 
L 614.211426 471.405513 
L 614.448843 483.002672 
L 614.921566 465.223019 
L 615.15688 468.91868 
L 615.3915 466.007421 
L 615.625431 474.925627 
L 615.858678 476.50156 
L 616.091243 479.865416 
L 616.554347 469.110567 
L 616.784892 474.194894 
L 617.014773 467.945535 
L 617.243992 474.704492 
L 617.472553 471.97881 
L 617.700461 466.799914 
L 617.927718 475.023554 
L 618.154329 475.083949 
L 618.380296 467.436516 
L 618.605625 474.013676 
L 618.830318 470.536192 
L 619.054379 473.820893 
L 619.277811 474.69678 
L 619.500618 468.800774 
L 619.722804 467.1999 
L 619.944372 475.924958 
L 620.165325 470.672566 
L 620.385667 475.012403 
L 620.605401 476.322326 
L 620.824531 472.295416 
L 621.043059 473.248281 
L 621.26099 477.095623 
L 621.478326 477.983666 
L 621.69507 468.047577 
L 621.911227 477.512131 
L 622.126798 463.232673 
L 622.341787 473.543794 
L 622.556198 467.731865 
L 622.983296 482.952456 
L 623.195989 474.959221 
L 623.61968 468.542238 
L 623.830683 475.947357 
L 624.041128 479.331344 
L 624.251019 473.401932 
L 624.460358 478.582449 
L 624.669149 470.205665 
L 624.877394 475.821268 
L 625.085096 471.724869 
L 625.292257 479.471043 
L 625.498881 473.64543 
L 625.704971 478.987656 
L 625.910528 472.971402 
L 626.115557 473.784623 
L 626.320059 477.945399 
L 626.727495 473.866078 
L 626.930435 476.8715 
L 627.132858 474.908464 
L 627.334768 474.191267 
L 627.536168 497.298192 
L 627.73706 468.916538 
L 627.937446 477.749304 
L 628.13733 471.864069 
L 628.336713 471.123528 
L 628.535599 477.42994 
L 628.733989 473.521814 
L 628.931886 471.98126 
L 629.129293 469.506105 
L 629.326211 475.040838 
L 629.522644 471.581369 
L 629.718594 473.209134 
L 629.914063 471.667255 
L 630.109054 480.292191 
L 630.303568 481.14491 
L 630.497608 480.327982 
L 630.691177 472.538733 
L 630.884277 475.892305 
L 631.07691 490.580079 
L 631.269078 471.297228 
L 631.460783 480.42308 
L 631.652028 476.195709 
L 631.842815 479.711205 
L 632.033146 474.119249 
L 632.223024 476.293933 
L 632.41245 475.009271 
L 632.601426 472.593497 
L 632.789956 475.128496 
L 633.165681 467.385526 
L 633.539642 477.440934 
L 633.725966 477.156038 
L 634.097312 470.380691 
L 634.282338 468.268178 
L 634.466935 472.487502 
L 634.651105 467.72221 
L 634.83485 470.695546 
L 635.018173 482.657706 
L 635.201074 473.750403 
L 635.383557 483.062519 
L 635.565622 471.819226 
L 635.747272 474.756718 
L 635.928509 482.180656 
L 636.109335 477.515796 
L 636.289751 477.249735 
L 636.469759 489.670685 
L 636.649361 471.615107 
L 636.828559 472.592354 
L 637.007355 484.300361 
L 637.185751 478.670132 
L 637.363748 481.397349 
L 637.541348 479.437668 
L 637.718553 471.283013 
L 637.895364 468.744291 
L 638.071784 468.596399 
L 638.423456 472.011019 
L 638.598712 469.860142 
L 638.773582 486.015922 
L 638.94807 472.775082 
L 639.122176 482.182701 
L 639.295903 480.208653 
L 639.642223 472.049485 
L 639.81482 472.559061 
L 639.987044 474.890652 
L 640.158897 467.307673 
L 640.501493 482.086749 
L 640.67224 477.516932 
L 640.842622 476.430519 
L 641.012641 471.49974 
L 641.182297 474.792285 
L 641.351593 473.084791 
L 641.520529 474.766633 
L 641.689108 481.608941 
L 641.857331 483.207917 
L 642.0252 470.544393 
L 642.192715 483.627523 
L 642.359879 478.621485 
L 642.526693 496.026746 
L 642.859276 469.547267 
L 643.025049 478.99072 
L 643.190477 480.461004 
L 643.355562 478.238625 
L 643.520306 482.337489 
L 643.848774 468.640715 
L 644.338952 476.523203 
L 644.501676 475.077762 
L 644.664069 470.629268 
L 644.826131 472.165194 
L 644.987864 481.132998 
L 645.14927 475.862443 
L 645.310349 474.56243 
L 645.471103 474.787955 
L 645.631533 474.703917 
L 645.791641 476.615176 
L 645.951427 475.852881 
L 646.110894 472.590245 
L 646.270042 475.192415 
L 646.428873 473.274065 
L 646.587387 474.018838 
L 646.903473 477.348047 
L 647.061047 474.682767 
L 647.21831 481.418179 
L 647.375263 475.424813 
L 647.531907 474.795593 
L 647.844274 475.188284 
L 647.844274 475.188284 
" style="fill:none;stroke:#b22222;stroke-linecap:round;stroke-width:1.75;"/>
   </g>
   <g id="patch_6">
    <path d="M 90 512.64 
L 90 311.04 
" style="fill:none;stroke:#262626;stroke-linecap:square;stroke-linejoin:miter;stroke-width:1.25;"/>
   </g>
   <g id="patch_7">
    <path d="M 90 512.64 
L 648 512.64 
" style="fill:none;stroke:#262626;stroke-linecap:square;stroke-linejoin:miter;stroke-width:1.25;"/>
   </g>
  </g>
 </g>
 <defs>
  <clipPath id="pd475cd2861">
   <rect height="201.6" width="558" x="90" y="69.12"/>
  </clipPath>
  <clipPath id="p4a7eb4e91b">
   <rect height="201.6" width="558" x="90" y="311.04"/>
  </clipPath>
 </defs>
</svg>
